<?xml version="1.0" encoding="UTF-8" standalone="no"?>
<!DOCTYPE svg PUBLIC "-//W3C//DTD SVG 1.1//EN"
 "http://www.w3.org/Graphics/SVG/1.1/DTD/svg11.dtd">
<!-- Generated by graphviz version 2.43.0 (0)
 -->
<!-- Title: include/ac_fft.h Pages: 1 -->
<svg width="1149pt" height="82pt"
 viewBox="0.00 0.00 1148.50 82.00" xmlns="http://www.w3.org/2000/svg" xmlns:xlink="http://www.w3.org/1999/xlink">
<g id="graph0" class="graph" transform="scale(1 1) rotate(0) translate(4 78)">
<title>include/ac_fft.h</title>
<!-- Node1 -->
<g id="Node000001" class="node">
<title>Node1</title>
<g id="a_Node000001"><a xlink:title=" ">
<polygon fill="#999999" stroke="#666666" points="572.5,-74 481.5,-74 481.5,-55 572.5,-55 572.5,-74"/>
<text text-anchor="middle" x="527" y="-62" font-family="Helvetica,sans-Serif" font-size="10.00">include/ac_fft.h</text>
</a>
</g>
</g>
<!-- Node2 -->
<g id="Node000002" class="node">
<title>Node2</title>
<g id="a_Node000002"><a xlink:href="device_8cc.html" target="_top" xlink:title=" ">
<polygon fill="white" stroke="#666666" points="104,-19 0,-19 0,0 104,0 104,-19"/>
<text text-anchor="middle" x="52" y="-7" font-family="Helvetica,sans-Serif" font-size="10.00">src/core/device.cc</text>
</a>
</g>
</g>
<!-- Node1&#45;&gt;Node2 -->
<g id="edge1_Node000001_Node000002" class="edge">
<title>Node1&#45;&gt;Node2</title>
<g id="a_edge1_Node000001_Node000002"><a xlink:title=" ">
<path fill="none" stroke="#63b8ff" d="M471.02,-58.05C391.39,-50.16 240.88,-34.78 113,-19 110.13,-18.65 107.2,-18.27 104.23,-17.89"/>
<polygon fill="#63b8ff" stroke="#63b8ff" points="471.01,-61.56 481.31,-59.06 471.7,-54.6 471.01,-61.56"/>
</a>
</g>
</g>
<!-- Node3 -->
<g id="Node000003" class="node">
<title>Node3</title>
<g id="a_Node000003"><a xlink:href="grid_8cc.html" target="_top" xlink:title=" ">
<polygon fill="white" stroke="#666666" points="212,-19 122,-19 122,0 212,0 212,-19"/>
<text text-anchor="middle" x="167" y="-7" font-family="Helvetica,sans-Serif" font-size="10.00">src/core/grid.cc</text>
</a>
</g>
</g>
<!-- Node1&#45;&gt;Node3 -->
<g id="edge2_Node000001_Node000003" class="edge">
<title>Node1&#45;&gt;Node3</title>
<g id="a_edge2_Node000001_Node000003"><a xlink:title=" ">
<path fill="none" stroke="#63b8ff" d="M471.12,-55.57C409.75,-46.82 308.31,-32.22 221,-19 218.09,-18.56 215.09,-18.1 212.08,-17.64"/>
<polygon fill="#63b8ff" stroke="#63b8ff" points="470.96,-59.09 481.35,-57.03 471.95,-52.16 470.96,-59.09"/>
</a>
</g>
</g>
<!-- Node4 -->
<g id="Node000004" class="node">
<title>Node4</title>
<g id="a_Node000004"><a xlink:href="cpufft_8cc.html" target="_top" xlink:title=" ">
<polygon fill="white" stroke="#666666" points="367.5,-19 230.5,-19 230.5,0 367.5,0 367.5,-19"/>
<text text-anchor="middle" x="299" y="-7" font-family="Helvetica,sans-Serif" font-size="10.00">src/core/kernels/cpufft.cc</text>
</a>
</g>
</g>
<!-- Node1&#45;&gt;Node4 -->
<g id="edge3_Node000001_Node000004" class="edge">
<title>Node1&#45;&gt;Node4</title>
<g id="a_edge3_Node000001_Node000004"><a xlink:title=" ">
<path fill="none" stroke="#63b8ff" d="M480.5,-52.69C437.78,-42.76 375.3,-28.24 335.92,-19.08"/>
<polygon fill="#63b8ff" stroke="#63b8ff" points="479.84,-56.13 490.37,-54.98 481.42,-49.31 479.84,-56.13"/>
</a>
</g>
</g>
<!-- Node5 -->
<g id="Node000005" class="node">
<title>Node5</title>
<g id="a_Node000005"><a xlink:href="cufft_8cc.html" target="_top" xlink:title=" ">
<polygon fill="white" stroke="#666666" points="516.5,-19 385.5,-19 385.5,0 516.5,0 516.5,-19"/>
<text text-anchor="middle" x="451" y="-7" font-family="Helvetica,sans-Serif" font-size="10.00">src/core/kernels/cufft.cc</text>
</a>
</g>
</g>
<!-- Node1&#45;&gt;Node5 -->
<g id="edge4_Node000001_Node000005" class="edge">
<title>Node1&#45;&gt;Node5</title>
<g id="a_edge4_Node000001_Node000005"><a xlink:title=" ">
<path fill="none" stroke="#63b8ff" d="M506.42,-49.15C492.69,-39.57 475.07,-27.29 463.43,-19.17"/>
<polygon fill="#63b8ff" stroke="#63b8ff" points="504.58,-52.14 514.79,-54.98 508.59,-46.39 504.58,-52.14"/>
</a>
</g>
</g>
<!-- Node6 -->
<g id="Node000006" class="node">
<title>Node6</title>
<g id="a_Node000006"><a xlink:href="heffte_8cc.html" target="_top" xlink:title=" ">
<polygon fill="white" stroke="#666666" points="673,-19 535,-19 535,0 673,0 673,-19"/>
<text text-anchor="middle" x="604" y="-7" font-family="Helvetica,sans-Serif" font-size="10.00">src/core/kernels/heffte.cc</text>
</a>
</g>
</g>
<!-- Node1&#45;&gt;Node6 -->
<g id="edge5_Node000001_Node000006" class="edge">
<title>Node1&#45;&gt;Node6</title>
<g id="a_edge5_Node000001_Node000006"><a xlink:title=" ">
<path fill="none" stroke="#63b8ff" d="M547.85,-49.15C561.76,-39.57 579.61,-27.29 591.4,-19.17"/>
<polygon fill="#63b8ff" stroke="#63b8ff" points="545.62,-46.43 539.37,-54.98 549.59,-52.2 545.62,-46.43"/>
</a>
</g>
</g>
<!-- Node7 -->
<g id="Node000007" class="node">
<title>Node7</title>
<g id="a_Node000007"><a xlink:href="kernels_8cu.html" target="_top" xlink:title=" ">
<polygon fill="white" stroke="#666666" points="837,-19 691,-19 691,0 837,0 837,-19"/>
<text text-anchor="middle" x="764" y="-7" font-family="Helvetica,sans-Serif" font-size="10.00">src/core/kernels/kernels.cu</text>
</a>
</g>
</g>
<!-- Node1&#45;&gt;Node7 -->
<g id="edge6_Node000001_Node000007" class="edge">
<title>Node1&#45;&gt;Node7</title>
<g id="a_edge6_Node000001_Node000007"><a xlink:title=" ">
<path fill="none" stroke="#63b8ff" d="M575.06,-52.75C619.47,-42.82 684.6,-28.26 725.62,-19.08"/>
<polygon fill="#63b8ff" stroke="#63b8ff" points="574.07,-49.39 565.08,-54.98 575.6,-56.22 574.07,-49.39"/>
</a>
</g>
</g>
<!-- Node8 -->
<g id="Node000008" class="node">
<title>Node8</title>
<g id="a_Node000008"><a xlink:href="nofft_8cc.html" target="_top" xlink:title=" ">
<polygon fill="white" stroke="#666666" points="987,-19 855,-19 855,0 987,0 987,-19"/>
<text text-anchor="middle" x="921" y="-7" font-family="Helvetica,sans-Serif" font-size="10.00">src/core/kernels/nofft.cc</text>
</a>
</g>
</g>
<!-- Node1&#45;&gt;Node8 -->
<g id="edge7_Node000001_Node000008" class="edge">
<title>Node1&#45;&gt;Node8</title>
<g id="a_edge7_Node000001_Node000008"><a xlink:title=" ">
<path fill="none" stroke="#63b8ff" d="M582.88,-55.98C655.41,-46.23 781.66,-29.24 857.67,-19.02"/>
<polygon fill="#63b8ff" stroke="#63b8ff" points="582.03,-52.57 572.58,-57.37 582.96,-59.5 582.03,-52.57"/>
</a>
</g>
</g>
<!-- Node9 -->
<g id="Node000009" class="node">
<title>Node9</title>
<g id="a_Node000009"><a xlink:href="rocfft_8cc.html" target="_top" xlink:title=" ">
<polygon fill="white" stroke="#666666" points="1140.5,-19 1005.5,-19 1005.5,0 1140.5,0 1140.5,-19"/>
<text text-anchor="middle" x="1073" y="-7" font-family="Helvetica,sans-Serif" font-size="10.00">src/core/kernels/rocfft.cc</text>
</a>
</g>
</g>
<!-- Node1&#45;&gt;Node9 -->
<g id="edge8_Node000001_Node000009" class="edge">
<title>Node1&#45;&gt;Node9</title>
<g id="a_edge8_Node000001_Node000009"><a xlink:title=" ">
<path fill="none" stroke="#63b8ff" d="M582.64,-58.5C670.49,-50.54 846.71,-34.32 996,-19 999.08,-18.68 1002.22,-18.36 1005.4,-18.02"/>
<polygon fill="#63b8ff" stroke="#63b8ff" points="582.27,-55.02 572.63,-59.41 582.9,-61.99 582.27,-55.02"/>
</a>
</g>
</g>
</g>
</svg>
