<?xml version="1.0" encoding="UTF-8" standalone="no"?>
<!DOCTYPE svg PUBLIC "-//W3C//DTD SVG 1.1//EN"
 "http://www.w3.org/Graphics/SVG/1.1/DTD/svg11.dtd">
<!-- Generated by graphviz version 2.43.0 (0)
 -->
<!-- Title: acc&#45;runtime/acc/ast.h Pages: 1 -->
<svg width="623pt" height="192pt"
 viewBox="0.00 0.00 623.00 192.00" xmlns="http://www.w3.org/2000/svg" xmlns:xlink="http://www.w3.org/1999/xlink">
<g id="graph0" class="graph" transform="scale(1 1) rotate(0) translate(4 188)">
<title>acc&#45;runtime/acc/ast.h</title>
<!-- Node1 -->
<g id="Node000001" class="node">
<title>Node1</title>
<g id="a_Node000001"><a xlink:title=" ">
<polygon fill="#999999" stroke="#666666" points="375,-184 253,-184 253,-165 375,-165 375,-184"/>
<text text-anchor="middle" x="314" y="-172" font-family="Helvetica,sans-Serif" font-size="10.00">acc&#45;runtime/acc/ast.h</text>
</a>
</g>
</g>
<!-- Node2 -->
<g id="Node000002" class="node">
<title>Node2</title>
<g id="a_Node000002"><a xlink:title=" ">
<polygon fill="#e0e0e0" stroke="#999999" points="56,-129 0,-129 0,-110 56,-110 56,-129"/>
<text text-anchor="middle" x="28" y="-117" font-family="Helvetica,sans-Serif" font-size="10.00">assert.h</text>
</a>
</g>
</g>
<!-- Node1&#45;&gt;Node2 -->
<g id="edge1_Node000001_Node000002" class="edge">
<title>Node1&#45;&gt;Node2</title>
<g id="a_edge1_Node000001_Node000002"><a xlink:title=" ">
<path fill="none" stroke="#63b8ff" d="M261.88,-164.95C213.57,-156.85 139.47,-144 66.12,-129.15"/>
<polygon fill="#63b8ff" stroke="#63b8ff" points="66.75,-125.71 56.25,-127.14 65.35,-132.57 66.75,-125.71"/>
</a>
</g>
</g>
<!-- Node3 -->
<g id="Node000003" class="node">
<title>Node3</title>
<g id="a_Node000003"><a xlink:title=" ">
<polygon fill="#e0e0e0" stroke="#999999" points="127.5,-129 74.5,-129 74.5,-110 127.5,-110 127.5,-129"/>
<text text-anchor="middle" x="101" y="-117" font-family="Helvetica,sans-Serif" font-size="10.00">ctype.h</text>
</a>
</g>
</g>
<!-- Node1&#45;&gt;Node3 -->
<g id="edge2_Node000001_Node000003" class="edge">
<title>Node1&#45;&gt;Node3</title>
<g id="a_edge2_Node000001_Node000003"><a xlink:title=" ">
<path fill="none" stroke="#63b8ff" d="M279.78,-164.98C240.83,-155.29 177.47,-139.53 137.57,-129.6"/>
<polygon fill="#63b8ff" stroke="#63b8ff" points="138.27,-126.17 127.72,-127.15 136.58,-132.96 138.27,-126.17"/>
</a>
</g>
</g>
<!-- Node4 -->
<g id="Node000004" class="node">
<title>Node4</title>
<g id="a_Node000004"><a xlink:title=" ">
<polygon fill="#e0e0e0" stroke="#999999" points="208,-129 146,-129 146,-110 208,-110 208,-129"/>
<text text-anchor="middle" x="177" y="-117" font-family="Helvetica,sans-Serif" font-size="10.00">stdbool.h</text>
</a>
</g>
</g>
<!-- Node1&#45;&gt;Node4 -->
<g id="edge3_Node000001_Node000004" class="edge">
<title>Node1&#45;&gt;Node4</title>
<g id="a_edge3_Node000001_Node000004"><a xlink:title=" ">
<path fill="none" stroke="#63b8ff" d="M291.99,-164.98C269.55,-156.3 234.52,-142.75 209.01,-132.88"/>
<polygon fill="#63b8ff" stroke="#63b8ff" points="210,-129.51 199.41,-129.17 207.48,-136.04 210,-129.51"/>
</a>
</g>
</g>
<!-- Node5 -->
<g id="Node000005" class="node">
<title>Node5</title>
<g id="a_Node000005"><a xlink:title=" ">
<polygon fill="#e0e0e0" stroke="#999999" points="255,-19 205,-19 205,0 255,0 255,-19"/>
<text text-anchor="middle" x="230" y="-7" font-family="Helvetica,sans-Serif" font-size="10.00">stdio.h</text>
</a>
</g>
</g>
<!-- Node1&#45;&gt;Node5 -->
<g id="edge4_Node000001_Node000005" class="edge">
<title>Node1&#45;&gt;Node5</title>
<g id="a_edge4_Node000001_Node000005"><a xlink:title=" ">
<path fill="none" stroke="#63b8ff" d="M306.53,-164.72C299.37,-156.03 288.58,-142.17 281,-129 261.53,-95.16 244.93,-52.47 236.32,-28.66"/>
<polygon fill="#63b8ff" stroke="#63b8ff" points="239.59,-27.41 232.94,-19.16 232.99,-29.75 239.59,-27.41"/>
</a>
</g>
</g>
<!-- Node6 -->
<g id="Node000006" class="node">
<title>Node6</title>
<g id="a_Node000006"><a xlink:title=" ">
<polygon fill="#e0e0e0" stroke="#999999" points="552.5,-19 499.5,-19 499.5,0 552.5,0 552.5,-19"/>
<text text-anchor="middle" x="526" y="-7" font-family="Helvetica,sans-Serif" font-size="10.00">stdlib.h</text>
</a>
</g>
</g>
<!-- Node1&#45;&gt;Node6 -->
<g id="edge5_Node000001_Node000006" class="edge">
<title>Node1&#45;&gt;Node6</title>
<g id="a_edge5_Node000001_Node000006"><a xlink:title=" ">
<path fill="none" stroke="#63b8ff" d="M375.4,-171.76C411.73,-167.61 456.3,-156.62 486,-129 514.39,-102.59 522.64,-55.37 525.03,-29.22"/>
<polygon fill="#63b8ff" stroke="#63b8ff" points="528.53,-29.35 525.75,-19.13 521.54,-28.85 528.53,-29.35"/>
</a>
</g>
</g>
<!-- Node7 -->
<g id="Node000007" class="node">
<title>Node7</title>
<g id="a_Node000007"><a xlink:title=" ">
<polygon fill="#e0e0e0" stroke="#999999" points="410.5,-19 357.5,-19 357.5,0 410.5,0 410.5,-19"/>
<text text-anchor="middle" x="384" y="-7" font-family="Helvetica,sans-Serif" font-size="10.00">string.h</text>
</a>
</g>
</g>
<!-- Node1&#45;&gt;Node7 -->
<g id="edge6_Node000001_Node000007" class="edge">
<title>Node1&#45;&gt;Node7</title>
<g id="a_edge6_Node000001_Node000007"><a xlink:title=" ">
<path fill="none" stroke="#63b8ff" d="M321.19,-164.88C334.41,-148.43 362.32,-110.93 374,-74 378.59,-59.5 381.12,-42.44 382.49,-29.66"/>
<polygon fill="#63b8ff" stroke="#63b8ff" points="386.01,-29.6 383.45,-19.32 379.04,-28.95 386.01,-29.6"/>
</a>
</g>
</g>
<!-- Node8 -->
<g id="Node000008" class="node">
<title>Node8</title>
<g id="a_Node000008"><a xlink:title=" ">
<polygon fill="#e0e0e0" stroke="#999999" points="615,-129 551,-129 551,-110 615,-110 615,-129"/>
<text text-anchor="middle" x="583" y="-117" font-family="Helvetica,sans-Serif" font-size="10.00">sys/stat.h</text>
</a>
</g>
</g>
<!-- Node1&#45;&gt;Node8 -->
<g id="edge7_Node000001_Node000008" class="edge">
<title>Node1&#45;&gt;Node8</title>
<g id="a_edge7_Node000001_Node000008"><a xlink:title=" ">
<path fill="none" stroke="#63b8ff" d="M357.22,-164.98C407.79,-155.02 490.97,-138.63 541.01,-128.77"/>
<polygon fill="#63b8ff" stroke="#63b8ff" points="541.73,-132.2 550.86,-126.83 540.37,-125.33 541.73,-132.2"/>
</a>
</g>
</g>
<!-- Node9 -->
<g id="Node000009" class="node">
<title>Node9</title>
<g id="a_Node000009"><a xlink:href="hash_8h.html" target="_top" xlink:title=" ">
<polygon fill="white" stroke="#666666" points="476.5,-129 427.5,-129 427.5,-110 476.5,-110 476.5,-129"/>
<text text-anchor="middle" x="452" y="-117" font-family="Helvetica,sans-Serif" font-size="10.00">hash.h</text>
</a>
</g>
</g>
<!-- Node1&#45;&gt;Node9 -->
<g id="edge8_Node000001_Node000009" class="edge">
<title>Node1&#45;&gt;Node9</title>
<g id="a_edge8_Node000001_Node000009"><a xlink:title=" ">
<path fill="none" stroke="#63b8ff" d="M336.17,-164.98C358.77,-156.3 394.06,-142.75 419.75,-132.88"/>
<polygon fill="#63b8ff" stroke="#63b8ff" points="421.34,-136.02 429.42,-129.17 418.83,-129.49 421.34,-136.02"/>
</a>
</g>
</g>
<!-- Node12 -->
<g id="Node000012" class="node">
<title>Node12</title>
<g id="a_Node000012"><a xlink:href="vecs_8h.html" target="_top" xlink:title=" ">
<polygon fill="white" stroke="#666666" points="338,-129 290,-129 290,-110 338,-110 338,-129"/>
<text text-anchor="middle" x="314" y="-117" font-family="Helvetica,sans-Serif" font-size="10.00">vecs.h</text>
</a>
</g>
</g>
<!-- Node1&#45;&gt;Node12 -->
<g id="edge13_Node000001_Node000012" class="edge">
<title>Node1&#45;&gt;Node12</title>
<g id="a_edge13_Node000001_Node000012"><a xlink:title=" ">
<path fill="none" stroke="#63b8ff" d="M314,-164.75C314,-157.8 314,-147.85 314,-139.13"/>
<polygon fill="#63b8ff" stroke="#63b8ff" points="317.5,-139.09 314,-129.09 310.5,-139.09 317.5,-139.09"/>
</a>
</g>
</g>
<!-- Node10 -->
<g id="Node000010" class="node">
<title>Node10</title>
<g id="a_Node000010"><a xlink:href="hashtable_8h.html" target="_top" xlink:title=" ">
<polygon fill="white" stroke="#666666" points="495,-74 421,-74 421,-55 495,-55 495,-74"/>
<text text-anchor="middle" x="458" y="-62" font-family="Helvetica,sans-Serif" font-size="10.00">hashtable.h</text>
</a>
</g>
</g>
<!-- Node9&#45;&gt;Node10 -->
<g id="edge9_Node000009_Node000010" class="edge">
<title>Node9&#45;&gt;Node10</title>
<g id="a_edge9_Node000009_Node000010"><a xlink:title=" ">
<path fill="none" stroke="#63b8ff" d="M452.99,-109.75C453.78,-102.8 454.9,-92.85 455.89,-84.13"/>
<polygon fill="#63b8ff" stroke="#63b8ff" points="459.38,-84.42 457.03,-74.09 452.42,-83.63 459.38,-84.42"/>
</a>
</g>
</g>
<!-- Node10&#45;&gt;Node6 -->
<g id="edge10_Node000010_Node000006" class="edge">
<title>Node10&#45;&gt;Node6</title>
<g id="a_edge10_Node000010_Node000006"><a xlink:title=" ">
<path fill="none" stroke="#63b8ff" d="M468.93,-54.98C479.08,-47.07 494.42,-35.11 506.65,-25.58"/>
<polygon fill="#63b8ff" stroke="#63b8ff" points="509.14,-28.08 514.88,-19.17 504.84,-22.56 509.14,-28.08"/>
</a>
</g>
</g>
<!-- Node10&#45;&gt;Node7 -->
<g id="edge11_Node000010_Node000007" class="edge">
<title>Node10&#45;&gt;Node7</title>
<g id="a_edge11_Node000010_Node000007"><a xlink:title=" ">
<path fill="none" stroke="#63b8ff" d="M446.11,-54.98C434.85,-46.92 417.71,-34.65 404.29,-25.03"/>
<polygon fill="#63b8ff" stroke="#63b8ff" points="406.27,-22.15 396.11,-19.17 402.2,-27.84 406.27,-22.15"/>
</a>
</g>
</g>
<!-- Node11 -->
<g id="Node000011" class="node">
<title>Node11</title>
<g id="a_Node000011"><a xlink:title=" ">
<polygon fill="#e0e0e0" stroke="#999999" points="481.5,-19 428.5,-19 428.5,0 481.5,0 481.5,-19"/>
<text text-anchor="middle" x="455" y="-7" font-family="Helvetica,sans-Serif" font-size="10.00">stdint.h</text>
</a>
</g>
</g>
<!-- Node10&#45;&gt;Node11 -->
<g id="edge12_Node000010_Node000011" class="edge">
<title>Node10&#45;&gt;Node11</title>
<g id="a_edge12_Node000010_Node000011"><a xlink:title=" ">
<path fill="none" stroke="#63b8ff" d="M457.5,-54.75C457.11,-47.8 456.55,-37.85 456.05,-29.13"/>
<polygon fill="#63b8ff" stroke="#63b8ff" points="459.55,-28.88 455.49,-19.09 452.56,-29.27 459.55,-28.88"/>
</a>
</g>
</g>
<!-- Node13 -->
<g id="Node000013" class="node">
<title>Node13</title>
<g id="a_Node000013"><a xlink:title=" ">
<polygon fill="#e0e0e0" stroke="#999999" points="336,-19 280,-19 280,0 336,0 336,-19"/>
<text text-anchor="middle" x="308" y="-7" font-family="Helvetica,sans-Serif" font-size="10.00">stdarg.h</text>
</a>
</g>
</g>
<!-- Node12&#45;&gt;Node13 -->
<g id="edge14_Node000012_Node000013" class="edge">
<title>Node12&#45;&gt;Node13</title>
<g id="a_edge14_Node000012_Node000013"><a xlink:title=" ">
<path fill="none" stroke="#63b8ff" d="M304.39,-109.69C296.13,-101.41 284.8,-88.18 280,-74 274.48,-57.68 283.86,-39.78 293.22,-27.15"/>
<polygon fill="#63b8ff" stroke="#63b8ff" points="295.97,-29.33 299.52,-19.34 290.52,-24.93 295.97,-29.33"/>
</a>
</g>
</g>
<!-- Node14 -->
<g id="Node000014" class="node">
<title>Node14</title>
<g id="a_Node000014"><a xlink:href="string__vec_8h.html" target="_top" xlink:title=" ">
<polygon fill="white" stroke="#666666" points="365,-74 289,-74 289,-55 365,-55 365,-74"/>
<text text-anchor="middle" x="327" y="-62" font-family="Helvetica,sans-Serif" font-size="10.00">string_vec.h</text>
</a>
</g>
</g>
<!-- Node12&#45;&gt;Node14 -->
<g id="edge15_Node000012_Node000014" class="edge">
<title>Node12&#45;&gt;Node14</title>
<g id="a_edge15_Node000012_Node000014"><a xlink:title=" ">
<path fill="none" stroke="#63b8ff" d="M316.15,-109.75C317.87,-102.72 320.35,-92.62 322.5,-83.84"/>
<polygon fill="#63b8ff" stroke="#63b8ff" points="325.91,-84.63 324.89,-74.09 319.11,-82.97 325.91,-84.63"/>
</a>
</g>
</g>
<!-- Node14&#45;&gt;Node5 -->
<g id="edge17_Node000014_Node000005" class="edge">
<title>Node14&#45;&gt;Node5</title>
<g id="a_edge17_Node000014_Node000005"><a xlink:title=" ">
<path fill="none" stroke="#63b8ff" d="M311.42,-54.98C296.23,-46.69 272.9,-33.94 255.1,-24.22"/>
<polygon fill="#63b8ff" stroke="#63b8ff" points="256.32,-20.89 245.87,-19.17 252.97,-27.04 256.32,-20.89"/>
</a>
</g>
</g>
<!-- Node14&#45;&gt;Node7 -->
<g id="edge18_Node000014_Node000007" class="edge">
<title>Node14&#45;&gt;Node7</title>
<g id="a_edge18_Node000014_Node000007"><a xlink:title=" ">
<path fill="none" stroke="#63b8ff" d="M336.16,-54.98C344.5,-47.23 357.03,-35.58 367.18,-26.14"/>
<polygon fill="#63b8ff" stroke="#63b8ff" points="369.74,-28.54 374.68,-19.17 364.97,-23.42 369.74,-28.54"/>
</a>
</g>
</g>
<!-- Node14&#45;&gt;Node13 -->
<g id="edge16_Node000014_Node000013" class="edge">
<title>Node14&#45;&gt;Node13</title>
<g id="a_edge16_Node000014_Node000013"><a xlink:title=" ">
<path fill="none" stroke="#63b8ff" d="M323.86,-54.75C321.32,-47.65 317.64,-37.4 314.47,-28.56"/>
<polygon fill="#63b8ff" stroke="#63b8ff" points="317.75,-27.32 311.08,-19.09 311.16,-29.68 317.75,-27.32"/>
</a>
</g>
</g>
</g>
</svg>
