<?xml version="1.0" encoding="UTF-8" standalone="no"?>
<!DOCTYPE svg PUBLIC "-//W3C//DTD SVG 1.1//EN"
 "http://www.w3.org/Graphics/SVG/1.1/DTD/svg11.dtd">
<!-- Generated by graphviz version 2.43.0 (0)
 -->
<!-- Title: acc&#45;runtime/stdlib/geometric_multigrid.h Pages: 1 -->
<svg width="610pt" height="115pt"
 viewBox="0.00 0.00 610.00 115.00" xmlns="http://www.w3.org/2000/svg" xmlns:xlink="http://www.w3.org/1999/xlink">
<g id="graph0" class="graph" transform="scale(1 1) rotate(0) translate(4 111)">
<title>acc&#45;runtime/stdlib/geometric_multigrid.h</title>
<!-- Node1 -->
<g id="Node000001" class="node">
<title>Node1</title>
<g id="a_Node000001"><a xlink:title=" ">
<polygon fill="#999999" stroke="#666666" points="372.5,-107 244.5,-107 244.5,-77 372.5,-77 372.5,-107"/>
<text text-anchor="start" x="252.5" y="-95" font-family="Helvetica,sans-Serif" font-size="10.00">acc&#45;runtime/stdlib</text>
<text text-anchor="middle" x="308.5" y="-84" font-family="Helvetica,sans-Serif" font-size="10.00">/geometric_multigrid.h</text>
</a>
</g>
</g>
<!-- Node2 -->
<g id="Node000002" class="node">
<title>Node2</title>
<g id="a_Node000002"><a xlink:title=" ">
<polygon fill="#e0e0e0" stroke="#999999" points="149,-41 0,-41 0,0 149,0 149,-41"/>
<text text-anchor="start" x="8" y="-29" font-family="Helvetica,sans-Serif" font-size="10.00">$AC_HOME/acc&#45;runtime</text>
<text text-anchor="start" x="8" y="-18" font-family="Helvetica,sans-Serif" font-size="10.00">/stdlib/geometric_multigrid</text>
<text text-anchor="middle" x="74.5" y="-7" font-family="Helvetica,sans-Serif" font-size="10.00">_core.h</text>
</a>
</g>
</g>
<!-- Node1&#45;&gt;Node2 -->
<g id="edge1_Node000001_Node000002" class="edge">
<title>Node1&#45;&gt;Node2</title>
<g id="a_edge1_Node000001_Node000002"><a xlink:title=" ">
<path fill="none" stroke="#63b8ff" d="M261.15,-76.94C229.27,-67.47 186.56,-54.78 150.03,-43.93"/>
<polygon fill="#63b8ff" stroke="#63b8ff" points="150.98,-40.57 140.4,-41.07 148.99,-47.28 150.98,-40.57"/>
</a>
</g>
</g>
<!-- Node3 -->
<g id="Node000003" class="node">
<title>Node3</title>
<g id="a_Node000003"><a xlink:title=" ">
<polygon fill="#e0e0e0" stroke="#999999" points="300,-41 167,-41 167,0 300,0 300,-41"/>
<text text-anchor="start" x="175" y="-29" font-family="Helvetica,sans-Serif" font-size="10.00">$AC_HOME/acc&#45;runtime</text>
<text text-anchor="start" x="175" y="-18" font-family="Helvetica,sans-Serif" font-size="10.00">/stdlib/grid_transfer</text>
<text text-anchor="middle" x="233.5" y="-7" font-family="Helvetica,sans-Serif" font-size="10.00">_functions.h</text>
</a>
</g>
</g>
<!-- Node1&#45;&gt;Node3 -->
<g id="edge2_Node000001_Node000003" class="edge">
<title>Node1&#45;&gt;Node3</title>
<g id="a_edge2_Node000001_Node000003"><a xlink:title=" ">
<path fill="none" stroke="#63b8ff" d="M293.32,-76.94C284.37,-68.64 272.74,-57.86 262.12,-48.02"/>
<polygon fill="#63b8ff" stroke="#63b8ff" points="264.34,-45.3 254.62,-41.07 259.58,-50.44 264.34,-45.3"/>
</a>
</g>
</g>
<!-- Node4 -->
<g id="Node000004" class="node">
<title>Node4</title>
<g id="a_Node000004"><a xlink:title=" ">
<polygon fill="#e0e0e0" stroke="#999999" points="451,-35.5 318,-35.5 318,-5.5 451,-5.5 451,-35.5"/>
<text text-anchor="start" x="326" y="-23.5" font-family="Helvetica,sans-Serif" font-size="10.00">$AC_HOME/acc&#45;runtime</text>
<text text-anchor="middle" x="384.5" y="-12.5" font-family="Helvetica,sans-Serif" font-size="10.00">/stdlib/poisson.h</text>
</a>
</g>
</g>
<!-- Node1&#45;&gt;Node4 -->
<g id="edge3_Node000001_Node000004" class="edge">
<title>Node1&#45;&gt;Node4</title>
<g id="a_edge3_Node000001_Node000004"><a xlink:title=" ">
<path fill="none" stroke="#63b8ff" d="M323.88,-76.94C334.7,-67.04 349.36,-53.64 361.55,-42.49"/>
<polygon fill="#63b8ff" stroke="#63b8ff" points="364.13,-44.87 369.14,-35.54 359.4,-39.71 364.13,-44.87"/>
</a>
</g>
</g>
<!-- Node5 -->
<g id="Node000005" class="node">
<title>Node5</title>
<g id="a_Node000005"><a xlink:title=" ">
<polygon fill="#e0e0e0" stroke="#999999" points="602,-35.5 469,-35.5 469,-5.5 602,-5.5 602,-35.5"/>
<text text-anchor="start" x="477" y="-23.5" font-family="Helvetica,sans-Serif" font-size="10.00">$AC_HOME/acc&#45;runtime</text>
<text text-anchor="middle" x="535.5" y="-12.5" font-family="Helvetica,sans-Serif" font-size="10.00">/stdlib/cg.h</text>
</a>
</g>
</g>
<!-- Node1&#45;&gt;Node5 -->
<g id="edge4_Node000001_Node000005" class="edge">
<title>Node1&#45;&gt;Node5</title>
<g id="a_edge4_Node000001_Node000005"><a xlink:title=" ">
<path fill="none" stroke="#63b8ff" d="M354.44,-76.94C390.59,-65.87 441.12,-50.4 479.62,-38.61"/>
<polygon fill="#63b8ff" stroke="#63b8ff" points="481.09,-41.82 489.63,-35.54 479.04,-35.12 481.09,-41.82"/>
</a>
</g>
</g>
</g>
</svg>
