<?xml version="1.0" encoding="UTF-8" standalone="no"?>
<!DOCTYPE svg PUBLIC "-//W3C//DTD SVG 1.1//EN"
 "http://www.w3.org/Graphics/SVG/1.1/DTD/svg11.dtd">
<!-- Generated by graphviz version 2.43.0 (0)
 -->
<!-- Title: acc&#45;runtime/api/acc_runtime.h Pages: 1 -->
<svg width="3268pt" height="214pt"
 viewBox="0.00 0.00 3267.50 214.00" xmlns="http://www.w3.org/2000/svg" xmlns:xlink="http://www.w3.org/1999/xlink">
<g id="graph0" class="graph" transform="scale(1 1) rotate(0) translate(4 210)">
<title>acc&#45;runtime/api/acc_runtime.h</title>
<!-- Node1 -->
<g id="Node000001" class="node">
<title>Node1</title>
<g id="a_Node000001"><a xlink:title=" ">
<polygon fill="#999999" stroke="#666666" points="1774,-206 1661,-206 1661,-176 1774,-176 1774,-206"/>
<text text-anchor="start" x="1669" y="-194" font-family="Helvetica,sans-Serif" font-size="10.00">acc&#45;runtime/api/acc</text>
<text text-anchor="middle" x="1717.5" y="-183" font-family="Helvetica,sans-Serif" font-size="10.00">_runtime.h</text>
</a>
</g>
</g>
<!-- Node2 -->
<g id="Node000002" class="node">
<title>Node2</title>
<g id="a_Node000002"><a xlink:title=" ">
<polygon fill="#e0e0e0" stroke="#999999" points="835.5,-74 785.5,-74 785.5,-55 835.5,-55 835.5,-74"/>
<text text-anchor="middle" x="810.5" y="-62" font-family="Helvetica,sans-Serif" font-size="10.00">stdio.h</text>
</a>
</g>
</g>
<!-- Node1&#45;&gt;Node2 -->
<g id="edge1_Node000001_Node000002" class="edge">
<title>Node1&#45;&gt;Node2</title>
<g id="a_edge1_Node000001_Node000002"><a xlink:title=" ">
<path fill="none" stroke="#63b8ff" d="M1660.72,-190.38C1476.29,-191.13 902.11,-189.45 836.5,-140 819.27,-127.01 813.4,-101.81 811.43,-84.33"/>
<polygon fill="#63b8ff" stroke="#63b8ff" points="814.91,-83.86 810.62,-74.17 807.93,-84.42 814.91,-83.86"/>
</a>
</g>
</g>
<!-- Node3 -->
<g id="Node000003" class="node">
<title>Node3</title>
<g id="a_Node000003"><a xlink:title=" ">
<polygon fill="#e0e0e0" stroke="#999999" points="915.5,-74 853.5,-74 853.5,-55 915.5,-55 915.5,-74"/>
<text text-anchor="middle" x="884.5" y="-62" font-family="Helvetica,sans-Serif" font-size="10.00">stdbool.h</text>
</a>
</g>
</g>
<!-- Node1&#45;&gt;Node3 -->
<g id="edge2_Node000001_Node000003" class="edge">
<title>Node1&#45;&gt;Node3</title>
<g id="a_edge2_Node000001_Node000003"><a xlink:title=" ">
<path fill="none" stroke="#63b8ff" d="M1660.84,-188.86C1472.16,-184.79 875.46,-169.62 847.5,-140 831.4,-122.95 850.62,-97.54 866.83,-81.25"/>
<polygon fill="#63b8ff" stroke="#63b8ff" points="869.55,-83.49 874.37,-74.06 864.72,-78.42 869.55,-83.49"/>
</a>
</g>
</g>
<!-- Node4 -->
<g id="Node000004" class="node">
<title>Node4</title>
<g id="a_Node000004"><a xlink:href="device__headers_8h.html" target="_top" xlink:title=" ">
<polygon fill="white" stroke="#666666" points="647.5,-74 545.5,-74 545.5,-55 647.5,-55 647.5,-74"/>
<text text-anchor="middle" x="596.5" y="-62" font-family="Helvetica,sans-Serif" font-size="10.00">device_headers.h</text>
</a>
</g>
</g>
<!-- Node1&#45;&gt;Node4 -->
<g id="edge3_Node000001_Node000004" class="edge">
<title>Node1&#45;&gt;Node4</title>
<g id="a_edge3_Node000001_Node000004"><a xlink:title=" ">
<path fill="none" stroke="#63b8ff" d="M1660.75,-188.9C1489.06,-185.26 976.93,-171.94 813.5,-140 743.62,-126.34 665.52,-95.43 624.76,-78.02"/>
<polygon fill="#63b8ff" stroke="#63b8ff" points="626.03,-74.76 615.46,-74.01 623.25,-81.19 626.03,-74.76"/>
</a>
</g>
</g>
<!-- Node7 -->
<g id="Node000007" class="node">
<title>Node7</title>
<g id="a_Node000007"><a xlink:title=" ">
<polygon fill="#e0e0e0" stroke="#999999" points="527,-74 432,-74 432,-55 527,-55 527,-74"/>
<text text-anchor="middle" x="479.5" y="-62" font-family="Helvetica,sans-Serif" font-size="10.00">builtin_enums.h</text>
</a>
</g>
</g>
<!-- Node1&#45;&gt;Node7 -->
<g id="edge6_Node000001_Node000007" class="edge">
<title>Node1&#45;&gt;Node7</title>
<g id="a_edge6_Node000001_Node000007"><a xlink:title=" ">
<path fill="none" stroke="#63b8ff" d="M1660.75,-189.18C1475.93,-186.18 892.55,-174.18 707.5,-140 634.14,-126.45 551.81,-95.38 508.98,-77.95"/>
<polygon fill="#63b8ff" stroke="#63b8ff" points="510.04,-74.6 499.46,-74.04 507.38,-81.08 510.04,-74.6"/>
</a>
</g>
</g>
<!-- Node8 -->
<g id="Node000008" class="node">
<title>Node8</title>
<g id="a_Node000008"><a xlink:href="datatypes_8h.html" target="_top" xlink:title=" ">
<polygon fill="white" stroke="#666666" points="404.5,-134.5 330.5,-134.5 330.5,-115.5 404.5,-115.5 404.5,-134.5"/>
<text text-anchor="middle" x="367.5" y="-122.5" font-family="Helvetica,sans-Serif" font-size="10.00">datatypes.h</text>
</a>
</g>
</g>
<!-- Node1&#45;&gt;Node8 -->
<g id="edge7_Node000001_Node000008" class="edge">
<title>Node1&#45;&gt;Node8</title>
<g id="a_edge7_Node000001_Node000008"><a xlink:title=" ">
<path fill="none" stroke="#63b8ff" d="M1660.95,-188.33C1491.47,-183.17 972.89,-166.21 543.5,-140 499.78,-137.33 450.03,-133.28 414.61,-130.22"/>
<polygon fill="#63b8ff" stroke="#63b8ff" points="414.82,-126.73 404.55,-129.35 414.21,-133.7 414.82,-126.73"/>
</a>
</g>
</g>
<!-- Node16 -->
<g id="Node000016" class="node">
<title>Node16</title>
<g id="a_Node000016"><a xlink:href="errchk_8h.html" target="_top" xlink:title="Brief info.">
<polygon fill="white" stroke="#666666" points="912.5,-134.5 856.5,-134.5 856.5,-115.5 912.5,-115.5 912.5,-134.5"/>
<text text-anchor="middle" x="884.5" y="-122.5" font-family="Helvetica,sans-Serif" font-size="10.00">errchk.h</text>
</a>
</g>
</g>
<!-- Node1&#45;&gt;Node16 -->
<g id="edge19_Node000001_Node000016" class="edge">
<title>Node1&#45;&gt;Node16</title>
<g id="a_edge19_Node000001_Node000016"><a xlink:title=" ">
<path fill="none" stroke="#63b8ff" d="M1660.97,-188.57C1503.78,-184.26 1063.82,-169.81 922.5,-140 919.66,-139.4 916.75,-138.63 913.87,-137.76"/>
<polygon fill="#63b8ff" stroke="#63b8ff" points="914.89,-134.41 904.29,-134.52 912.65,-141.04 914.89,-134.41"/>
</a>
</g>
</g>
<!-- Node20 -->
<g id="Node000020" class="node">
<title>Node20</title>
<g id="a_Node000020"><a xlink:title=" ">
<polygon fill="#e0e0e0" stroke="#999999" points="1018,-134.5 931,-134.5 931,-115.5 1018,-115.5 1018,-134.5"/>
<text text-anchor="middle" x="974.5" y="-122.5" font-family="Helvetica,sans-Serif" font-size="10.00">user_defines.h</text>
</a>
</g>
</g>
<!-- Node1&#45;&gt;Node20 -->
<g id="edge28_Node000001_Node000020" class="edge">
<title>Node1&#45;&gt;Node20</title>
<g id="a_edge28_Node000001_Node000020"><a xlink:title=" ">
<path fill="none" stroke="#63b8ff" d="M1660.73,-189.45C1542.24,-187.51 1260.29,-178.83 1027.5,-140 1022.71,-139.2 1017.72,-138.16 1012.8,-137.01"/>
<polygon fill="#63b8ff" stroke="#63b8ff" points="1013.44,-133.57 1002.89,-134.54 1011.75,-140.36 1013.44,-133.57"/>
</a>
</g>
</g>
<!-- Node21 -->
<g id="Node000021" class="node">
<title>Node21</title>
<g id="a_Node000021"><a xlink:title=" ">
<polygon fill="#e0e0e0" stroke="#999999" points="1122.5,-134.5 1036.5,-134.5 1036.5,-115.5 1122.5,-115.5 1122.5,-134.5"/>
<text text-anchor="middle" x="1079.5" y="-122.5" font-family="Helvetica,sans-Serif" font-size="10.00">profiles_info.h</text>
</a>
</g>
</g>
<!-- Node1&#45;&gt;Node21 -->
<g id="edge29_Node000001_Node000021" class="edge">
<title>Node1&#45;&gt;Node21</title>
<g id="a_edge29_Node000001_Node000021"><a xlink:title=" ">
<path fill="none" stroke="#63b8ff" d="M1660.61,-188.4C1555.56,-184.73 1324.33,-173.28 1132.5,-140 1127.77,-139.18 1122.84,-138.14 1117.98,-136.99"/>
<polygon fill="#63b8ff" stroke="#63b8ff" points="1118.73,-133.57 1108.18,-134.54 1117.03,-140.37 1118.73,-133.57"/>
</a>
</g>
</g>
<!-- Node22 -->
<g id="Node000022" class="node">
<title>Node22</title>
<g id="a_Node000022"><a xlink:title=" ">
<polygon fill="#e0e0e0" stroke="#999999" points="1280,-134.5 1141,-134.5 1141,-115.5 1280,-115.5 1280,-134.5"/>
<text text-anchor="middle" x="1210.5" y="-122.5" font-family="Helvetica,sans-Serif" font-size="10.00">user_built&#45;in_constants.h</text>
</a>
</g>
</g>
<!-- Node1&#45;&gt;Node22 -->
<g id="edge30_Node000001_Node000022" class="edge">
<title>Node1&#45;&gt;Node22</title>
<g id="a_edge30_Node000001_Node000022"><a xlink:title=" ">
<path fill="none" stroke="#63b8ff" d="M1660.93,-184.47C1578.89,-176.2 1422.17,-159.49 1289.5,-140 1281.85,-138.88 1273.79,-137.58 1265.88,-136.24"/>
<polygon fill="#63b8ff" stroke="#63b8ff" points="1266.41,-132.78 1255.96,-134.53 1265.22,-139.68 1266.41,-132.78"/>
</a>
</g>
</g>
<!-- Node23 -->
<g id="Node000023" class="node">
<title>Node23</title>
<g id="a_Node000023"><a xlink:href="func__attributes_8h.html" target="_top" xlink:title=" ">
<polygon fill="white" stroke="#666666" points="1397,-134.5 1298,-134.5 1298,-115.5 1397,-115.5 1397,-134.5"/>
<text text-anchor="middle" x="1347.5" y="-122.5" font-family="Helvetica,sans-Serif" font-size="10.00">func_attributes.h</text>
</a>
</g>
</g>
<!-- Node1&#45;&gt;Node23 -->
<g id="edge31_Node000001_Node000023" class="edge">
<title>Node1&#45;&gt;Node23</title>
<g id="a_edge31_Node000001_Node000023"><a xlink:title=" ">
<path fill="none" stroke="#63b8ff" d="M1660.81,-182.17C1598.3,-173.23 1494.87,-157.56 1406.5,-140 1401.72,-139.05 1396.74,-137.98 1391.78,-136.88"/>
<polygon fill="#63b8ff" stroke="#63b8ff" points="1392.25,-133.4 1381.72,-134.57 1390.69,-140.22 1392.25,-133.4"/>
</a>
</g>
</g>
<!-- Node24 -->
<g id="Node000024" class="node">
<title>Node24</title>
<g id="a_Node000024"><a xlink:title=" ">
<polygon fill="#e0e0e0" stroke="#999999" points="1540,-134.5 1415,-134.5 1415,-115.5 1540,-115.5 1540,-134.5"/>
<text text-anchor="middle" x="1477.5" y="-122.5" font-family="Helvetica,sans-Serif" font-size="10.00">user_input_typedefs.h</text>
</a>
</g>
</g>
<!-- Node1&#45;&gt;Node24 -->
<g id="edge32_Node000001_Node000024" class="edge">
<title>Node1&#45;&gt;Node24</title>
<g id="a_edge32_Node000001_Node000024"><a xlink:title=" ">
<path fill="none" stroke="#63b8ff" d="M1664.83,-175.95C1621.07,-164.29 1559.65,-147.91 1519.24,-137.13"/>
<polygon fill="#63b8ff" stroke="#63b8ff" points="1520,-133.71 1509.44,-134.52 1518.2,-140.48 1520,-133.71"/>
</a>
</g>
</g>
<!-- Node25 -->
<g id="Node000025" class="node">
<title>Node25</title>
<g id="a_Node000025"><a xlink:title=" ">
<polygon fill="#e0e0e0" stroke="#999999" points="1641,-134.5 1558,-134.5 1558,-115.5 1641,-115.5 1641,-134.5"/>
<text text-anchor="middle" x="1599.5" y="-122.5" font-family="Helvetica,sans-Serif" font-size="10.00">output_decl.h</text>
</a>
</g>
</g>
<!-- Node1&#45;&gt;Node25 -->
<g id="edge33_Node000001_Node000025" class="edge">
<title>Node1&#45;&gt;Node25</title>
<g id="a_edge33_Node000001_Node000025"><a xlink:title=" ">
<path fill="none" stroke="#63b8ff" d="M1691.6,-175.95C1671.55,-165.08 1643.95,-150.11 1624.2,-139.4"/>
<polygon fill="#63b8ff" stroke="#63b8ff" points="1625.66,-136.21 1615.2,-134.52 1622.33,-142.36 1625.66,-136.21"/>
</a>
</g>
</g>
<!-- Node26 -->
<g id="Node000026" class="node">
<title>Node26</title>
<g id="a_Node000026"><a xlink:title=" ">
<polygon fill="#e0e0e0" stroke="#999999" points="1775.5,-134.5 1659.5,-134.5 1659.5,-115.5 1775.5,-115.5 1775.5,-134.5"/>
<text text-anchor="middle" x="1717.5" y="-122.5" font-family="Helvetica,sans-Serif" font-size="10.00">comp_loaded_decl.h</text>
</a>
</g>
</g>
<!-- Node1&#45;&gt;Node26 -->
<g id="edge34_Node000001_Node000026" class="edge">
<title>Node1&#45;&gt;Node26</title>
<g id="a_edge34_Node000001_Node000026"><a xlink:title=" ">
<path fill="none" stroke="#63b8ff" d="M1717.5,-175.8C1717.5,-166.7 1717.5,-154.79 1717.5,-144.9"/>
<polygon fill="#63b8ff" stroke="#63b8ff" points="1721,-144.84 1717.5,-134.84 1714,-144.84 1721,-144.84"/>
</a>
</g>
</g>
<!-- Node27 -->
<g id="Node000027" class="node">
<title>Node27</title>
<g id="a_Node000027"><a xlink:title=" ">
<polygon fill="#e0e0e0" stroke="#999999" points="1871.5,-134.5 1793.5,-134.5 1793.5,-115.5 1871.5,-115.5 1871.5,-134.5"/>
<text text-anchor="middle" x="1832.5" y="-122.5" font-family="Helvetica,sans-Serif" font-size="10.00">comp_decl.h</text>
</a>
</g>
</g>
<!-- Node1&#45;&gt;Node27 -->
<g id="edge35_Node000001_Node000027" class="edge">
<title>Node1&#45;&gt;Node27</title>
<g id="a_edge35_Node000001_Node000027"><a xlink:title=" ">
<path fill="none" stroke="#63b8ff" d="M1742.74,-175.95C1762.28,-165.08 1789.18,-150.11 1808.43,-139.4"/>
<polygon fill="#63b8ff" stroke="#63b8ff" points="1810.16,-142.44 1817.2,-134.52 1806.76,-136.32 1810.16,-142.44"/>
</a>
</g>
</g>
<!-- Node28 -->
<g id="Node000028" class="node">
<title>Node28</title>
<g id="a_Node000028"><a xlink:title=" ">
<polygon fill="#e0e0e0" stroke="#999999" points="1997.5,-134.5 1889.5,-134.5 1889.5,-115.5 1997.5,-115.5 1997.5,-134.5"/>
<text text-anchor="middle" x="1943.5" y="-122.5" font-family="Helvetica,sans-Serif" font-size="10.00">info_loaded_decl.h</text>
</a>
</g>
</g>
<!-- Node1&#45;&gt;Node28 -->
<g id="edge36_Node000001_Node000028" class="edge">
<title>Node1&#45;&gt;Node28</title>
<g id="a_edge36_Node000001_Node000028"><a xlink:title=" ">
<path fill="none" stroke="#63b8ff" d="M1767.1,-175.95C1808.13,-164.34 1865.65,-148.05 1903.71,-137.27"/>
<polygon fill="#63b8ff" stroke="#63b8ff" points="1904.76,-140.61 1913.42,-134.52 1902.85,-133.87 1904.76,-140.61"/>
</a>
</g>
</g>
<!-- Node29 -->
<g id="Node000029" class="node">
<title>Node29</title>
<g id="a_Node000029"><a xlink:title=" ">
<polygon fill="#e0e0e0" stroke="#999999" points="2155.5,-134.5 2015.5,-134.5 2015.5,-115.5 2155.5,-115.5 2155.5,-134.5"/>
<text text-anchor="middle" x="2085.5" y="-122.5" font-family="Helvetica,sans-Serif" font-size="10.00">device_mesh_info_decl.h</text>
</a>
</g>
</g>
<!-- Node1&#45;&gt;Node29 -->
<g id="edge37_Node000001_Node000029" class="edge">
<title>Node1&#45;&gt;Node29</title>
<g id="a_edge37_Node000001_Node000029"><a xlink:title=" ">
<path fill="none" stroke="#63b8ff" d="M1774.27,-180.25C1832.55,-170.22 1925.87,-154.12 2006.5,-140 2013.23,-138.82 2020.28,-137.58 2027.28,-136.34"/>
<polygon fill="#63b8ff" stroke="#63b8ff" points="2028.22,-139.73 2037.46,-134.55 2027.01,-132.84 2028.22,-139.73"/>
</a>
</g>
</g>
<!-- Node30 -->
<g id="Node000030" class="node">
<title>Node30</title>
<g id="a_Node000030"><a xlink:title=" ">
<polygon fill="#e0e0e0" stroke="#999999" points="2251,-134.5 2174,-134.5 2174,-115.5 2251,-115.5 2251,-134.5"/>
<text text-anchor="middle" x="2212.5" y="-122.5" font-family="Helvetica,sans-Serif" font-size="10.00">array_decl.h</text>
</a>
</g>
</g>
<!-- Node1&#45;&gt;Node30 -->
<g id="edge38_Node000001_Node000030" class="edge">
<title>Node1&#45;&gt;Node30</title>
<g id="a_edge38_Node000001_Node000030"><a xlink:title=" ">
<path fill="none" stroke="#63b8ff" d="M1774.08,-186.81C1859.38,-181.29 2025.72,-167.78 2164.5,-140 2168.41,-139.22 2172.46,-138.26 2176.48,-137.23"/>
<polygon fill="#63b8ff" stroke="#63b8ff" points="2177.58,-140.56 2186.3,-134.53 2175.72,-133.81 2177.58,-140.56"/>
</a>
</g>
</g>
<!-- Node31 -->
<g id="Node000031" class="node">
<title>Node31</title>
<g id="a_Node000031"><a xlink:title=" ">
<polygon fill="#e0e0e0" stroke="#999999" points="2345.5,-134.5 2269.5,-134.5 2269.5,-115.5 2345.5,-115.5 2345.5,-134.5"/>
<text text-anchor="middle" x="2307.5" y="-122.5" font-family="Helvetica,sans-Serif" font-size="10.00">input_decl.h</text>
</a>
</g>
</g>
<!-- Node1&#45;&gt;Node31 -->
<g id="edge39_Node000001_Node000031" class="edge">
<title>Node1&#45;&gt;Node31</title>
<g id="a_edge39_Node000001_Node000031"><a xlink:title=" ">
<path fill="none" stroke="#63b8ff" d="M1774.3,-188.46C1873.7,-184.94 2085.28,-173.82 2260.5,-140 2264.23,-139.28 2268.09,-138.39 2271.92,-137.4"/>
<polygon fill="#63b8ff" stroke="#63b8ff" points="2273.17,-140.68 2281.87,-134.63 2271.3,-133.94 2273.17,-140.68"/>
</a>
</g>
</g>
<!-- Node32 -->
<g id="Node000032" class="node">
<title>Node32</title>
<g id="a_Node000032"><a xlink:href="ac__helpers_8h.html" target="_top" xlink:title=" ">
<polygon fill="white" stroke="#666666" points="2441.5,-134.5 2363.5,-134.5 2363.5,-115.5 2441.5,-115.5 2441.5,-134.5"/>
<text text-anchor="middle" x="2402.5" y="-122.5" font-family="Helvetica,sans-Serif" font-size="10.00">ac_helpers.h</text>
</a>
</g>
</g>
<!-- Node1&#45;&gt;Node32 -->
<g id="edge40_Node000001_Node000032" class="edge">
<title>Node1&#45;&gt;Node32</title>
<g id="a_edge40_Node000001_Node000032"><a xlink:title=" ">
<path fill="none" stroke="#63b8ff" d="M1774.24,-189.44C1886.15,-187.49 2142.81,-178.75 2354.5,-140 2358.63,-139.24 2362.91,-138.27 2367.15,-137.2"/>
<polygon fill="#63b8ff" stroke="#63b8ff" points="2368.11,-140.56 2376.83,-134.54 2366.26,-133.81 2368.11,-140.56"/>
</a>
</g>
</g>
<!-- Node33 -->
<g id="Node000033" class="node">
<title>Node33</title>
<g id="a_Node000033"><a xlink:title=" ">
<polygon fill="#e0e0e0" stroke="#999999" points="2577.5,-140 2459.5,-140 2459.5,-110 2577.5,-110 2577.5,-140"/>
<text text-anchor="start" x="2467.5" y="-128" font-family="Helvetica,sans-Serif" font-size="10.00">scalar_reduce_buffer</text>
<text text-anchor="middle" x="2518.5" y="-117" font-family="Helvetica,sans-Serif" font-size="10.00">_defs.h</text>
</a>
</g>
</g>
<!-- Node1&#45;&gt;Node33 -->
<g id="edge41_Node000001_Node000033" class="edge">
<title>Node1&#45;&gt;Node33</title>
<g id="a_edge41_Node000001_Node000033"><a xlink:title=" ">
<path fill="none" stroke="#63b8ff" d="M1774.32,-188.73C1896.24,-185.45 2192.01,-174.47 2448.97,-140.08"/>
<polygon fill="#63b8ff" stroke="#63b8ff" points="2449.8,-143.5 2459.24,-138.69 2448.86,-136.56 2449.8,-143.5"/>
</a>
</g>
</g>
<!-- Node34 -->
<g id="Node000034" class="node">
<title>Node34</title>
<g id="a_Node000034"><a xlink:title=" ">
<polygon fill="#e0e0e0" stroke="#999999" points="2719,-140 2596,-140 2596,-110 2719,-110 2719,-140"/>
<text text-anchor="start" x="2604" y="-128" font-family="Helvetica,sans-Serif" font-size="10.00">scalar_reduce_buffers</text>
<text text-anchor="middle" x="2657.5" y="-117" font-family="Helvetica,sans-Serif" font-size="10.00">_in_vba.h</text>
</a>
</g>
</g>
<!-- Node1&#45;&gt;Node34 -->
<g id="edge42_Node000001_Node000034" class="edge">
<title>Node1&#45;&gt;Node34</title>
<g id="a_edge42_Node000001_Node000034"><a xlink:title=" ">
<path fill="none" stroke="#63b8ff" d="M1774.17,-189.43C1911.66,-187.46 2273.9,-178.81 2585.49,-139.99"/>
<polygon fill="#63b8ff" stroke="#63b8ff" points="2586.14,-143.44 2595.63,-138.72 2585.27,-136.5 2586.14,-143.44"/>
</a>
</g>
</g>
<!-- Node35 -->
<g id="Node000035" class="node">
<title>Node35</title>
<g id="a_Node000035"><a xlink:href="astaroth__analysis_8h.html" target="_top" xlink:title=" ">
<polygon fill="white" stroke="#666666" points="2849.5,-134.5 2737.5,-134.5 2737.5,-115.5 2849.5,-115.5 2849.5,-134.5"/>
<text text-anchor="middle" x="2793.5" y="-122.5" font-family="Helvetica,sans-Serif" font-size="10.00">astaroth_analysis.h</text>
</a>
</g>
</g>
<!-- Node1&#45;&gt;Node35 -->
<g id="edge43_Node000001_Node000035" class="edge">
<title>Node1&#45;&gt;Node35</title>
<g id="a_edge43_Node000001_Node000035"><a xlink:title=" ">
<path fill="none" stroke="#63b8ff" d="M1774.24,-190.42C1928.36,-190.86 2367.4,-187.5 2728.5,-140 2735.19,-139.12 2742.21,-137.91 2749.07,-136.57"/>
<polygon fill="#63b8ff" stroke="#63b8ff" points="2749.85,-139.98 2758.94,-134.54 2748.44,-133.13 2749.85,-139.98"/>
</a>
</g>
</g>
<!-- Node36 -->
<g id="Node000036" class="node">
<title>Node36</title>
<g id="a_Node000036"><a xlink:href="common__kernels_8h.html" target="_top" xlink:title=" ">
<polygon fill="white" stroke="#666666" points="2977,-134.5 2868,-134.5 2868,-115.5 2977,-115.5 2977,-134.5"/>
<text text-anchor="middle" x="2922.5" y="-122.5" font-family="Helvetica,sans-Serif" font-size="10.00">common_kernels.h</text>
</a>
</g>
</g>
<!-- Node1&#45;&gt;Node36 -->
<g id="edge44_Node000001_Node000036" class="edge">
<title>Node1&#45;&gt;Node36</title>
<g id="a_edge44_Node000001_Node000036"><a xlink:title=" ">
<path fill="none" stroke="#63b8ff" d="M1774.02,-188.81C1973.67,-184.4 2645.17,-167.8 2858.5,-140 2865.17,-139.13 2872.17,-137.92 2879,-136.56"/>
<polygon fill="#63b8ff" stroke="#63b8ff" points="2879.74,-139.98 2888.81,-134.5 2878.31,-133.13 2879.74,-139.98"/>
</a>
</g>
</g>
<!-- Node37 -->
<g id="Node000037" class="node">
<title>Node37</title>
<g id="a_Node000037"><a xlink:title=" ">
<polygon fill="#e0e0e0" stroke="#999999" points="3107.5,-134.5 2995.5,-134.5 2995.5,-115.5 3107.5,-115.5 3107.5,-134.5"/>
<text text-anchor="middle" x="3051.5" y="-122.5" font-family="Helvetica,sans-Serif" font-size="10.00">user_declarations.h</text>
</a>
</g>
</g>
<!-- Node1&#45;&gt;Node37 -->
<g id="edge45_Node000001_Node000037" class="edge">
<title>Node1&#45;&gt;Node37</title>
<g id="a_edge45_Node000001_Node000037"><a xlink:title=" ">
<path fill="none" stroke="#63b8ff" d="M1774.35,-189.07C1988.57,-185.34 2746.98,-170.28 2986.5,-140 2993.27,-139.14 3000.38,-137.94 3007.31,-136.59"/>
<polygon fill="#63b8ff" stroke="#63b8ff" points="3008.2,-139.98 3017.28,-134.53 3006.78,-133.12 3008.2,-139.98"/>
</a>
</g>
</g>
<!-- Node38 -->
<g id="Node000038" class="node">
<title>Node38</title>
<g id="a_Node000038"><a xlink:title=" ">
<polygon fill="#e0e0e0" stroke="#999999" points="3259.5,-140 3125.5,-140 3125.5,-110 3259.5,-110 3259.5,-140"/>
<text text-anchor="start" x="3133.5" y="-128" font-family="Helvetica,sans-Serif" font-size="10.00">load_and_store_uniform</text>
<text text-anchor="middle" x="3192.5" y="-117" font-family="Helvetica,sans-Serif" font-size="10.00">_header.h</text>
</a>
</g>
</g>
<!-- Node1&#45;&gt;Node38 -->
<g id="edge46_Node000001_Node000038" class="edge">
<title>Node1&#45;&gt;Node38</title>
<g id="a_edge46_Node000001_Node000038"><a xlink:title=" ">
<path fill="none" stroke="#63b8ff" d="M1774.22,-189.08C1999.07,-185.28 2829.08,-169.57 3115.09,-140.01"/>
<polygon fill="#63b8ff" stroke="#63b8ff" points="3115.87,-143.44 3125.44,-138.9 3115.13,-136.48 3115.87,-143.44"/>
</a>
</g>
</g>
<!-- Node5 -->
<g id="Node000005" class="node">
<title>Node5</title>
<g id="a_Node000005"><a xlink:title=" ">
<polygon fill="#e0e0e0" stroke="#999999" points="323,-19 210,-19 210,0 323,0 323,-19"/>
<text text-anchor="middle" x="266.5" y="-7" font-family="Helvetica,sans-Serif" font-size="10.00">cuda_runtime_api.h</text>
</a>
</g>
</g>
<!-- Node4&#45;&gt;Node5 -->
<g id="edge4_Node000004_Node000005" class="edge">
<title>Node4&#45;&gt;Node5</title>
<g id="a_edge4_Node000004_Node000005"><a xlink:title=" ">
<path fill="none" stroke="#63b8ff" d="M545.3,-55.28C487.16,-45.94 392.28,-30.7 329.62,-20.64"/>
<polygon fill="#63b8ff" stroke="#63b8ff" points="329.89,-17.14 319.46,-19.01 328.78,-24.05 329.89,-17.14"/>
</a>
</g>
</g>
<!-- Node6 -->
<g id="Node000006" class="node">
<title>Node6</title>
<g id="a_Node000006"><a xlink:title=" ">
<polygon fill="#e0e0e0" stroke="#999999" points="634.5,-19 558.5,-19 558.5,0 634.5,0 634.5,-19"/>
<text text-anchor="middle" x="596.5" y="-7" font-family="Helvetica,sans-Serif" font-size="10.00">cuda_fp16.h</text>
</a>
</g>
</g>
<!-- Node4&#45;&gt;Node6 -->
<g id="edge5_Node000004_Node000006" class="edge">
<title>Node4&#45;&gt;Node6</title>
<g id="a_edge5_Node000004_Node000006"><a xlink:title=" ">
<path fill="none" stroke="#63b8ff" d="M596.5,-54.75C596.5,-47.8 596.5,-37.85 596.5,-29.13"/>
<polygon fill="#63b8ff" stroke="#63b8ff" points="600,-29.09 596.5,-19.09 593,-29.09 600,-29.09"/>
</a>
</g>
</g>
<!-- Node8&#45;&gt;Node4 -->
<g id="edge10_Node000008_Node000004" class="edge">
<title>Node8&#45;&gt;Node4</title>
<g id="a_edge10_Node000008_Node000004"><a xlink:title=" ">
<path fill="none" stroke="#63b8ff" d="M400.8,-115.49C441.08,-105.2 508.98,-87.86 553.27,-76.54"/>
<polygon fill="#63b8ff" stroke="#63b8ff" points="554.34,-79.88 563.16,-74.02 552.61,-73.1 554.34,-79.88"/>
</a>
</g>
</g>
<!-- Node8&#45;&gt;Node5 -->
<g id="edge12_Node000008_Node000005" class="edge">
<title>Node8&#45;&gt;Node5</title>
<g id="a_edge12_Node000008_Node000005"><a xlink:title=" ">
<path fill="none" stroke="#63b8ff" d="M330.06,-121.22C272.27,-116.06 165.6,-102.79 142.5,-74 121.11,-47.33 161.14,-30.76 201.29,-21.26"/>
<polygon fill="#63b8ff" stroke="#63b8ff" points="202.19,-24.64 211.19,-19.05 200.67,-17.81 202.19,-24.64"/>
</a>
</g>
</g>
<!-- Node8&#45;&gt;Node7 -->
<g id="edge14_Node000008_Node000007" class="edge">
<title>Node8&#45;&gt;Node7</title>
<g id="a_edge14_Node000008_Node000007"><a xlink:title=" ">
<path fill="none" stroke="#63b8ff" d="M384.03,-115.37C402.47,-105.73 432.54,-90.03 454.01,-78.81"/>
<polygon fill="#63b8ff" stroke="#63b8ff" points="455.66,-81.9 462.91,-74.17 452.42,-75.69 455.66,-81.9"/>
</a>
</g>
</g>
<!-- Node9 -->
<g id="Node000009" class="node">
<title>Node9</title>
<g id="a_Node000009"><a xlink:title=" ">
<polygon fill="#e0e0e0" stroke="#999999" points="199,-74 152,-74 152,-55 199,-55 199,-74"/>
<text text-anchor="middle" x="175.5" y="-62" font-family="Helvetica,sans-Serif" font-size="10.00">float.h</text>
</a>
</g>
</g>
<!-- Node8&#45;&gt;Node9 -->
<g id="edge8_Node000008_Node000009" class="edge">
<title>Node8&#45;&gt;Node9</title>
<g id="a_edge8_Node000008_Node000009"><a xlink:title=" ">
<path fill="none" stroke="#63b8ff" d="M339.58,-115.49C304.98,-104.95 246.06,-87 209.04,-75.72"/>
<polygon fill="#63b8ff" stroke="#63b8ff" points="209.8,-72.29 199.21,-72.73 207.76,-78.99 209.8,-72.29"/>
</a>
</g>
</g>
<!-- Node10 -->
<g id="Node000010" class="node">
<title>Node10</title>
<g id="a_Node000010"><a xlink:title=" ">
<polygon fill="#e0e0e0" stroke="#999999" points="268,-74 217,-74 217,-55 268,-55 268,-74"/>
<text text-anchor="middle" x="242.5" y="-62" font-family="Helvetica,sans-Serif" font-size="10.00">math.h</text>
</a>
</g>
</g>
<!-- Node8&#45;&gt;Node10 -->
<g id="edge9_Node000008_Node000010" class="edge">
<title>Node8&#45;&gt;Node10</title>
<g id="a_edge9_Node000008_Node000010"><a xlink:title=" ">
<path fill="none" stroke="#63b8ff" d="M349.32,-115.49C328.49,-105.75 294.13,-89.66 270.02,-78.38"/>
<polygon fill="#63b8ff" stroke="#63b8ff" points="271.24,-75.09 260.7,-74.02 268.27,-81.43 271.24,-75.09"/>
</a>
</g>
</g>
<!-- Node11 -->
<g id="Node000011" class="node">
<title>Node11</title>
<g id="a_Node000011"><a xlink:title=" ">
<polygon fill="#e0e0e0" stroke="#999999" points="375,-74 286,-74 286,-55 375,-55 375,-74"/>
<text text-anchor="middle" x="330.5" y="-62" font-family="Helvetica,sans-Serif" font-size="10.00">vector_types.h</text>
</a>
</g>
</g>
<!-- Node8&#45;&gt;Node11 -->
<g id="edge11_Node000008_Node000011" class="edge">
<title>Node8&#45;&gt;Node11</title>
<g id="a_edge11_Node000008_Node000011"><a xlink:title=" ">
<path fill="none" stroke="#63b8ff" d="M362.04,-115.37C356.63,-106.81 348.19,-93.47 341.4,-82.74"/>
<polygon fill="#63b8ff" stroke="#63b8ff" points="344.29,-80.75 335.98,-74.17 338.37,-84.49 344.29,-80.75"/>
</a>
</g>
</g>
<!-- Node12 -->
<g id="Node000012" class="node">
<title>Node12</title>
<g id="a_Node000012"><a xlink:href="acreal_8h.html" target="_top" xlink:title=" ">
<polygon fill="white" stroke="#666666" points="485.5,-19 429.5,-19 429.5,0 485.5,0 485.5,-19"/>
<text text-anchor="middle" x="457.5" y="-7" font-family="Helvetica,sans-Serif" font-size="10.00">acreal.h</text>
</a>
</g>
</g>
<!-- Node8&#45;&gt;Node12 -->
<g id="edge13_Node000008_Node000012" class="edge">
<title>Node8&#45;&gt;Node12</title>
<g id="a_edge13_Node000008_Node000012"><a xlink:title=" ">
<path fill="none" stroke="#63b8ff" d="M374.26,-115.47C389.12,-96.74 424.81,-51.72 444.29,-27.16"/>
<polygon fill="#63b8ff" stroke="#63b8ff" points="447.19,-29.14 450.66,-19.13 441.7,-24.79 447.19,-29.14"/>
</a>
</g>
</g>
<!-- Node13 -->
<g id="Node000013" class="node">
<title>Node13</title>
<g id="a_Node000013"><a xlink:title=" ">
<polygon fill="#e0e0e0" stroke="#999999" points="95,-74 0,-74 0,-55 95,-55 95,-74"/>
<text text-anchor="middle" x="47.5" y="-62" font-family="Helvetica,sans-Serif" font-size="10.00">user_typedefs.h</text>
</a>
</g>
</g>
<!-- Node8&#45;&gt;Node13 -->
<g id="edge15_Node000008_Node000013" class="edge">
<title>Node8&#45;&gt;Node13</title>
<g id="a_edge15_Node000008_Node000013"><a xlink:title=" ">
<path fill="none" stroke="#63b8ff" d="M330.48,-117.23C274.96,-107.08 169.7,-87.84 104.39,-75.9"/>
<polygon fill="#63b8ff" stroke="#63b8ff" points="104.73,-72.4 94.26,-74.05 103.47,-79.29 104.73,-72.4"/>
</a>
</g>
</g>
<!-- Node14 -->
<g id="Node000014" class="node">
<title>Node14</title>
<g id="a_Node000014"><a xlink:href="host__datatypes_8h.html" target="_top" xlink:title=" ">
<polygon fill="white" stroke="#666666" points="767,-74 666,-74 666,-55 767,-55 767,-74"/>
<text text-anchor="middle" x="716.5" y="-62" font-family="Helvetica,sans-Serif" font-size="10.00">host_datatypes.h</text>
</a>
</g>
</g>
<!-- Node8&#45;&gt;Node14 -->
<g id="edge16_Node000008_Node000014" class="edge">
<title>Node8&#45;&gt;Node14</title>
<g id="a_edge16_Node000008_Node000014"><a xlink:title=" ">
<path fill="none" stroke="#63b8ff" d="M404.52,-117.79C464.5,-107.74 583.5,-87.79 655.95,-75.65"/>
<polygon fill="#63b8ff" stroke="#63b8ff" points="656.57,-79.1 665.85,-73.99 655.41,-72.19 656.57,-79.1"/>
</a>
</g>
</g>
<!-- Node14&#45;&gt;Node12 -->
<g id="edge17_Node000014_Node000012" class="edge">
<title>Node14&#45;&gt;Node12</title>
<g id="a_edge17_Node000014_Node000012"><a xlink:title=" ">
<path fill="none" stroke="#63b8ff" d="M674.89,-54.98C625.46,-44.87 543.7,-28.14 495.78,-18.33"/>
<polygon fill="#63b8ff" stroke="#63b8ff" points="496.31,-14.87 485.81,-16.29 494.9,-21.73 496.31,-14.87"/>
</a>
</g>
</g>
<!-- Node15 -->
<g id="Node000015" class="node">
<title>Node15</title>
<g id="a_Node000015"><a xlink:title=" ">
<polygon fill="#e0e0e0" stroke="#999999" points="962.5,-19 906.5,-19 906.5,0 962.5,0 962.5,-19"/>
<text text-anchor="middle" x="934.5" y="-7" font-family="Helvetica,sans-Serif" font-size="10.00">stddef.h</text>
</a>
</g>
</g>
<!-- Node14&#45;&gt;Node15 -->
<g id="edge18_Node000014_Node000015" class="edge">
<title>Node14&#45;&gt;Node15</title>
<g id="a_edge18_Node000014_Node000015"><a xlink:title=" ">
<path fill="none" stroke="#63b8ff" d="M751.53,-54.98C791.25,-45.33 855.79,-29.64 896.64,-19.7"/>
<polygon fill="#63b8ff" stroke="#63b8ff" points="897.6,-23.07 906.49,-17.31 895.95,-16.27 897.6,-23.07"/>
</a>
</g>
</g>
<!-- Node16&#45;&gt;Node2 -->
<g id="edge24_Node000016_Node000002" class="edge">
<title>Node16&#45;&gt;Node2</title>
<g id="a_edge24_Node000016_Node000002"><a xlink:title=" ">
<path fill="none" stroke="#63b8ff" d="M873.58,-115.37C861.99,-106.21 843.47,-91.56 829.48,-80.51"/>
<polygon fill="#63b8ff" stroke="#63b8ff" points="831.48,-77.62 821.46,-74.17 827.14,-83.11 831.48,-77.62"/>
</a>
</g>
</g>
<!-- Node16&#45;&gt;Node3 -->
<g id="edge22_Node000016_Node000003" class="edge">
<title>Node16&#45;&gt;Node3</title>
<g id="a_edge22_Node000016_Node000003"><a xlink:title=" ">
<path fill="none" stroke="#63b8ff" d="M884.5,-115.37C884.5,-107.25 884.5,-94.81 884.5,-84.39"/>
<polygon fill="#63b8ff" stroke="#63b8ff" points="888,-84.17 884.5,-74.17 881,-84.17 888,-84.17"/>
</a>
</g>
</g>
<!-- Node16&#45;&gt;Node4 -->
<g id="edge27_Node000016_Node000004" class="edge">
<title>Node16&#45;&gt;Node4</title>
<g id="a_edge27_Node000016_Node000004"><a xlink:title=" ">
<path fill="none" stroke="#63b8ff" d="M856.36,-118.28C808.23,-108.51 709.4,-88.43 648.45,-76.05"/>
<polygon fill="#63b8ff" stroke="#63b8ff" points="649.13,-72.62 638.63,-74.06 647.74,-79.48 649.13,-72.62"/>
</a>
</g>
</g>
<!-- Node16&#45;&gt;Node14 -->
<g id="edge21_Node000016_Node000014" class="edge">
<title>Node16&#45;&gt;Node14</title>
<g id="a_edge21_Node000016_Node000014"><a xlink:title=" ">
<path fill="none" stroke="#63b8ff" d="M860.07,-115.49C831.21,-105.44 783,-88.66 750.5,-77.34"/>
<polygon fill="#63b8ff" stroke="#63b8ff" points="751.55,-74 740.96,-74.02 749.25,-80.61 751.55,-74"/>
</a>
</g>
</g>
<!-- Node16&#45;&gt;Node15 -->
<g id="edge20_Node000016_Node000015" class="edge">
<title>Node16&#45;&gt;Node15</title>
<g id="a_edge20_Node000016_Node000015"><a xlink:title=" ">
<path fill="none" stroke="#63b8ff" d="M905.58,-115.45C911.03,-113.46 916.93,-111.49 922.5,-110 968.46,-97.73 1102.82,-110.35 1133.5,-74 1178.66,-20.48 1042.49,-11.57 972.83,-10.42"/>
<polygon fill="#63b8ff" stroke="#63b8ff" points="972.7,-6.92 962.66,-10.3 972.62,-13.92 972.7,-6.92"/>
</a>
</g>
</g>
<!-- Node17 -->
<g id="Node000017" class="node">
<title>Node17</title>
<g id="a_Node000017"><a xlink:title=" ">
<polygon fill="#e0e0e0" stroke="#999999" points="987,-74 934,-74 934,-55 987,-55 987,-74"/>
<text text-anchor="middle" x="960.5" y="-62" font-family="Helvetica,sans-Serif" font-size="10.00">stdint.h</text>
</a>
</g>
</g>
<!-- Node16&#45;&gt;Node17 -->
<g id="edge23_Node000016_Node000017" class="edge">
<title>Node16&#45;&gt;Node17</title>
<g id="a_edge23_Node000016_Node000017"><a xlink:title=" ">
<path fill="none" stroke="#63b8ff" d="M895.71,-115.37C907.61,-106.21 926.64,-91.56 941.01,-80.51"/>
<polygon fill="#63b8ff" stroke="#63b8ff" points="943.45,-83.04 949.24,-74.17 939.18,-77.49 943.45,-83.04"/>
</a>
</g>
</g>
<!-- Node18 -->
<g id="Node000018" class="node">
<title>Node18</title>
<g id="a_Node000018"><a xlink:title=" ">
<polygon fill="#e0e0e0" stroke="#999999" points="1058,-74 1005,-74 1005,-55 1058,-55 1058,-74"/>
<text text-anchor="middle" x="1031.5" y="-62" font-family="Helvetica,sans-Serif" font-size="10.00">stdlib.h</text>
</a>
</g>
</g>
<!-- Node16&#45;&gt;Node18 -->
<g id="edge25_Node000016_Node000018" class="edge">
<title>Node16&#45;&gt;Node18</title>
<g id="a_edge25_Node000016_Node000018"><a xlink:title=" ">
<path fill="none" stroke="#63b8ff" d="M905.88,-115.49C930.81,-105.57 972.22,-89.09 1000.64,-77.78"/>
<polygon fill="#63b8ff" stroke="#63b8ff" points="1002.1,-80.97 1010.1,-74.02 999.51,-74.46 1002.1,-80.97"/>
</a>
</g>
</g>
<!-- Node19 -->
<g id="Node000019" class="node">
<title>Node19</title>
<g id="a_Node000019"><a xlink:title=" ">
<polygon fill="#e0e0e0" stroke="#999999" points="1124.5,-74 1076.5,-74 1076.5,-55 1124.5,-55 1124.5,-74"/>
<text text-anchor="middle" x="1100.5" y="-62" font-family="Helvetica,sans-Serif" font-size="10.00">time.h</text>
</a>
</g>
</g>
<!-- Node16&#45;&gt;Node19 -->
<g id="edge26_Node000016_Node000019" class="edge">
<title>Node16&#45;&gt;Node19</title>
<g id="a_edge26_Node000016_Node000019"><a xlink:title=" ">
<path fill="none" stroke="#63b8ff" d="M906.46,-115.44C911.68,-113.54 917.26,-111.61 922.5,-110 983,-91.41 1001.42,-90.34 1066.42,-74.23"/>
<polygon fill="#63b8ff" stroke="#63b8ff" points="1067.51,-77.57 1076.36,-71.74 1065.8,-70.78 1067.51,-77.57"/>
</a>
</g>
</g>
</g>
</svg>
