<?xml version="1.0" encoding="UTF-8" standalone="no"?>
<!DOCTYPE svg PUBLIC "-//W3C//DTD SVG 1.1//EN"
 "http://www.w3.org/Graphics/SVG/1.1/DTD/svg11.dtd">
<!-- Generated by graphviz version 2.43.0 (0)
 -->
<!-- Title: acc&#45;runtime/api/acc_runtime.h Pages: 1 -->
<svg width="3368pt" height="214pt"
 viewBox="0.00 0.00 3367.50 214.00" xmlns="http://www.w3.org/2000/svg" xmlns:xlink="http://www.w3.org/1999/xlink">
<g id="graph0" class="graph" transform="scale(1 1) rotate(0) translate(4 210)">
<title>acc&#45;runtime/api/acc_runtime.h</title>
<!-- Node1 -->
<g id="Node000001" class="node">
<title>Node1</title>
<g id="a_Node000001"><a xlink:title=" ">
<polygon fill="#999999" stroke="#666666" points="1831,-206 1718,-206 1718,-176 1831,-176 1831,-206"/>
<text text-anchor="start" x="1726" y="-194" font-family="Helvetica,sans-Serif" font-size="10.00">acc&#45;runtime/api/acc</text>
<text text-anchor="middle" x="1774.5" y="-183" font-family="Helvetica,sans-Serif" font-size="10.00">_runtime.h</text>
</a>
</g>
</g>
<!-- Node2 -->
<g id="Node000002" class="node">
<title>Node2</title>
<g id="a_Node000002"><a xlink:title=" ">
<polygon fill="#e0e0e0" stroke="#999999" points="835.5,-74 785.5,-74 785.5,-55 835.5,-55 835.5,-74"/>
<text text-anchor="middle" x="810.5" y="-62" font-family="Helvetica,sans-Serif" font-size="10.00">stdio.h</text>
</a>
</g>
</g>
<!-- Node1&#45;&gt;Node2 -->
<g id="edge1_Node000001_Node000002" class="edge">
<title>Node1&#45;&gt;Node2</title>
<g id="a_edge1_Node000001_Node000002"><a xlink:title=" ">
<path fill="none" stroke="#63b8ff" d="M1717.95,-188.71C1520.5,-184 871.85,-166.55 836.5,-140 819.25,-127.04 813.38,-101.83 811.42,-84.35"/>
<polygon fill="#63b8ff" stroke="#63b8ff" points="814.9,-83.87 810.62,-74.18 807.92,-84.42 814.9,-83.87"/>
</a>
</g>
</g>
<!-- Node3 -->
<g id="Node000003" class="node">
<title>Node3</title>
<g id="a_Node000003"><a xlink:title=" ">
<polygon fill="#e0e0e0" stroke="#999999" points="915.5,-74 853.5,-74 853.5,-55 915.5,-55 915.5,-74"/>
<text text-anchor="middle" x="884.5" y="-62" font-family="Helvetica,sans-Serif" font-size="10.00">stdbool.h</text>
</a>
</g>
</g>
<!-- Node1&#45;&gt;Node3 -->
<g id="edge2_Node000001_Node000003" class="edge">
<title>Node1&#45;&gt;Node3</title>
<g id="a_edge2_Node000001_Node000003"><a xlink:title=" ">
<path fill="none" stroke="#63b8ff" d="M1717.93,-189.07C1521.25,-185.56 877.53,-171.7 847.5,-140 831.37,-122.97 850.6,-97.56 866.82,-81.26"/>
<polygon fill="#63b8ff" stroke="#63b8ff" points="869.54,-83.5 874.37,-74.07 864.71,-78.43 869.54,-83.5"/>
</a>
</g>
</g>
<!-- Node4 -->
<g id="Node000004" class="node">
<title>Node4</title>
<g id="a_Node000004"><a xlink:href="device__headers_8h.html" target="_top" xlink:title=" ">
<polygon fill="white" stroke="#666666" points="647.5,-74 545.5,-74 545.5,-55 647.5,-55 647.5,-74"/>
<text text-anchor="middle" x="596.5" y="-62" font-family="Helvetica,sans-Serif" font-size="10.00">device_headers.h</text>
</a>
</g>
</g>
<!-- Node1&#45;&gt;Node4 -->
<g id="edge3_Node000001_Node000004" class="edge">
<title>Node1&#45;&gt;Node4</title>
<g id="a_edge3_Node000001_Node000004"><a xlink:title=" ">
<path fill="none" stroke="#63b8ff" d="M1718,-189.12C1539.39,-186.02 988.49,-173.9 813.5,-140 743.6,-126.46 665.51,-95.5 624.75,-78.06"/>
<polygon fill="#63b8ff" stroke="#63b8ff" points="626.02,-74.79 615.46,-74.03 623.24,-81.22 626.02,-74.79"/>
</a>
</g>
</g>
<!-- Node7 -->
<g id="Node000007" class="node">
<title>Node7</title>
<g id="a_Node000007"><a xlink:title=" ">
<polygon fill="#e0e0e0" stroke="#999999" points="527,-74 432,-74 432,-55 527,-55 527,-74"/>
<text text-anchor="middle" x="479.5" y="-62" font-family="Helvetica,sans-Serif" font-size="10.00">builtin_enums.h</text>
</a>
</g>
</g>
<!-- Node1&#45;&gt;Node7 -->
<g id="edge6_Node000001_Node000007" class="edge">
<title>Node1&#45;&gt;Node7</title>
<g id="a_edge6_Node000001_Node000007"><a xlink:title=" ">
<path fill="none" stroke="#63b8ff" d="M1717.92,-189.35C1526.51,-186.84 904.16,-176.05 707.5,-140 634.12,-126.55 551.8,-95.44 508.97,-77.98"/>
<polygon fill="#63b8ff" stroke="#63b8ff" points="510.04,-74.63 499.46,-74.06 507.37,-81.1 510.04,-74.63"/>
</a>
</g>
</g>
<!-- Node8 -->
<g id="Node000008" class="node">
<title>Node8</title>
<g id="a_Node000008"><a xlink:href="datatypes_8h.html" target="_top" xlink:title=" ">
<polygon fill="white" stroke="#666666" points="404.5,-134.5 330.5,-134.5 330.5,-115.5 404.5,-115.5 404.5,-134.5"/>
<text text-anchor="middle" x="367.5" y="-122.5" font-family="Helvetica,sans-Serif" font-size="10.00">datatypes.h</text>
</a>
</g>
</g>
<!-- Node1&#45;&gt;Node8 -->
<g id="edge7_Node000001_Node000008" class="edge">
<title>Node1&#45;&gt;Node8</title>
<g id="a_edge7_Node000001_Node000008"><a xlink:title=" ">
<path fill="none" stroke="#63b8ff" d="M1717.71,-188.48C1542.66,-183.61 995.87,-167.17 543.5,-140 499.78,-137.37 450.03,-133.32 414.61,-130.25"/>
<polygon fill="#63b8ff" stroke="#63b8ff" points="414.82,-126.75 404.55,-129.37 414.21,-133.72 414.82,-126.75"/>
</a>
</g>
</g>
<!-- Node16 -->
<g id="Node000016" class="node">
<title>Node16</title>
<g id="a_Node000016"><a xlink:href="errchk_8h.html" target="_top" xlink:title="Brief info.">
<polygon fill="white" stroke="#666666" points="912.5,-134.5 856.5,-134.5 856.5,-115.5 912.5,-115.5 912.5,-134.5"/>
<text text-anchor="middle" x="884.5" y="-122.5" font-family="Helvetica,sans-Serif" font-size="10.00">errchk.h</text>
</a>
</g>
</g>
<!-- Node1&#45;&gt;Node16 -->
<g id="edge19_Node000001_Node000016" class="edge">
<title>Node1&#45;&gt;Node16</title>
<g id="a_edge19_Node000001_Node000016"><a xlink:title=" ">
<path fill="none" stroke="#63b8ff" d="M1717.79,-188.84C1552.82,-185.13 1075.16,-171.87 922.5,-140 919.66,-139.41 916.75,-138.64 913.86,-137.78"/>
<polygon fill="#63b8ff" stroke="#63b8ff" points="914.89,-134.43 904.29,-134.54 912.64,-141.06 914.89,-134.43"/>
</a>
</g>
</g>
<!-- Node20 -->
<g id="Node000020" class="node">
<title>Node20</title>
<g id="a_Node000020"><a xlink:title=" ">
<polygon fill="#e0e0e0" stroke="#999999" points="1018,-134.5 931,-134.5 931,-115.5 1018,-115.5 1018,-134.5"/>
<text text-anchor="middle" x="974.5" y="-122.5" font-family="Helvetica,sans-Serif" font-size="10.00">user_defines.h</text>
</a>
</g>
</g>
<!-- Node1&#45;&gt;Node20 -->
<g id="edge28_Node000001_Node000020" class="edge">
<title>Node1&#45;&gt;Node20</title>
<g id="a_edge28_Node000001_Node000020"><a xlink:title=" ">
<path fill="none" stroke="#63b8ff" d="M1717.85,-189.89C1592.55,-188.85 1282.75,-181.86 1027.5,-140 1022.7,-139.21 1017.71,-138.18 1012.8,-137.04"/>
<polygon fill="#63b8ff" stroke="#63b8ff" points="1013.44,-133.59 1002.89,-134.57 1011.75,-140.38 1013.44,-133.59"/>
</a>
</g>
</g>
<!-- Node21 -->
<g id="Node000021" class="node">
<title>Node21</title>
<g id="a_Node000021"><a xlink:title=" ">
<polygon fill="#e0e0e0" stroke="#999999" points="1122.5,-134.5 1036.5,-134.5 1036.5,-115.5 1122.5,-115.5 1122.5,-134.5"/>
<text text-anchor="middle" x="1079.5" y="-122.5" font-family="Helvetica,sans-Serif" font-size="10.00">profiles_info.h</text>
</a>
</g>
</g>
<!-- Node1&#45;&gt;Node21 -->
<g id="edge29_Node000001_Node000021" class="edge">
<title>Node1&#45;&gt;Node21</title>
<g id="a_edge29_Node000001_Node000021"><a xlink:title=" ">
<path fill="none" stroke="#63b8ff" d="M1717.83,-189.01C1605.43,-186.3 1346.61,-176.31 1132.5,-140 1127.71,-139.19 1122.72,-138.14 1117.8,-136.99"/>
<polygon fill="#63b8ff" stroke="#63b8ff" points="1118.45,-133.54 1107.9,-134.51 1116.75,-140.33 1118.45,-133.54"/>
</a>
</g>
</g>
<!-- Node22 -->
<g id="Node000022" class="node">
<title>Node22</title>
<g id="a_Node000022"><a xlink:title=" ">
<polygon fill="#e0e0e0" stroke="#999999" points="1280,-134.5 1141,-134.5 1141,-115.5 1280,-115.5 1280,-134.5"/>
<text text-anchor="middle" x="1210.5" y="-122.5" font-family="Helvetica,sans-Serif" font-size="10.00">user_built&#45;in_constants.h</text>
</a>
</g>
</g>
<!-- Node1&#45;&gt;Node22 -->
<g id="edge30_Node000001_Node000022" class="edge">
<title>Node1&#45;&gt;Node22</title>
<g id="a_edge30_Node000001_Node000022"><a xlink:title=" ">
<path fill="none" stroke="#63b8ff" d="M1717.96,-185.51C1627.31,-178.02 1443.96,-161.62 1289.5,-140 1281.74,-138.91 1273.58,-137.63 1265.56,-136.29"/>
<polygon fill="#63b8ff" stroke="#63b8ff" points="1265.98,-132.81 1255.53,-134.56 1264.79,-139.7 1265.98,-132.81"/>
</a>
</g>
</g>
<!-- Node23 -->
<g id="Node000023" class="node">
<title>Node23</title>
<g id="a_Node000023"><a xlink:href="func__attributes_8h.html" target="_top" xlink:title=" ">
<polygon fill="white" stroke="#666666" points="1397,-134.5 1298,-134.5 1298,-115.5 1397,-115.5 1397,-134.5"/>
<text text-anchor="middle" x="1347.5" y="-122.5" font-family="Helvetica,sans-Serif" font-size="10.00">func_attributes.h</text>
</a>
</g>
</g>
<!-- Node1&#45;&gt;Node23 -->
<g id="edge31_Node000001_Node000023" class="edge">
<title>Node1&#45;&gt;Node23</title>
<g id="a_edge31_Node000001_Node000023"><a xlink:title=" ">
<path fill="none" stroke="#63b8ff" d="M1717.8,-184.04C1645.29,-176.02 1516,-160.38 1406.5,-140 1401.45,-139.06 1396.19,-137.97 1390.98,-136.82"/>
<polygon fill="#63b8ff" stroke="#63b8ff" points="1391.6,-133.38 1381.08,-134.57 1390.05,-140.2 1391.6,-133.38"/>
</a>
</g>
</g>
<!-- Node24 -->
<g id="Node000024" class="node">
<title>Node24</title>
<g id="a_Node000024"><a xlink:title=" ">
<polygon fill="#e0e0e0" stroke="#999999" points="1540,-134.5 1415,-134.5 1415,-115.5 1540,-115.5 1540,-134.5"/>
<text text-anchor="middle" x="1477.5" y="-122.5" font-family="Helvetica,sans-Serif" font-size="10.00">user_input_typedefs.h</text>
</a>
</g>
</g>
<!-- Node1&#45;&gt;Node24 -->
<g id="edge32_Node000001_Node000024" class="edge">
<title>Node1&#45;&gt;Node24</title>
<g id="a_edge32_Node000001_Node000024"><a xlink:title=" ">
<path fill="none" stroke="#63b8ff" d="M1717.94,-177.81C1662.76,-165.92 1579.65,-148.01 1527.01,-136.67"/>
<polygon fill="#63b8ff" stroke="#63b8ff" points="1527.74,-133.25 1517.23,-134.56 1526.27,-140.09 1527.74,-133.25"/>
</a>
</g>
</g>
<!-- Node25 -->
<g id="Node000025" class="node">
<title>Node25</title>
<g id="a_Node000025"><a xlink:title=" ">
<polygon fill="#e0e0e0" stroke="#999999" points="1641,-134.5 1558,-134.5 1558,-115.5 1641,-115.5 1641,-134.5"/>
<text text-anchor="middle" x="1599.5" y="-122.5" font-family="Helvetica,sans-Serif" font-size="10.00">output_decl.h</text>
</a>
</g>
</g>
<!-- Node1&#45;&gt;Node25 -->
<g id="edge33_Node000001_Node000025" class="edge">
<title>Node1&#45;&gt;Node25</title>
<g id="a_edge33_Node000001_Node000025"><a xlink:title=" ">
<path fill="none" stroke="#63b8ff" d="M1736.1,-175.95C1705,-164.58 1661.67,-148.74 1632.21,-137.96"/>
<polygon fill="#63b8ff" stroke="#63b8ff" points="1633.38,-134.66 1622.79,-134.52 1630.98,-141.24 1633.38,-134.66"/>
</a>
</g>
</g>
<!-- Node26 -->
<g id="Node000026" class="node">
<title>Node26</title>
<g id="a_Node000026"><a xlink:title=" ">
<polygon fill="#e0e0e0" stroke="#999999" points="1775.5,-134.5 1659.5,-134.5 1659.5,-115.5 1775.5,-115.5 1775.5,-134.5"/>
<text text-anchor="middle" x="1717.5" y="-122.5" font-family="Helvetica,sans-Serif" font-size="10.00">comp_loaded_decl.h</text>
</a>
</g>
</g>
<!-- Node1&#45;&gt;Node26 -->
<g id="edge34_Node000001_Node000026" class="edge">
<title>Node1&#45;&gt;Node26</title>
<g id="a_edge34_Node000001_Node000026"><a xlink:title=" ">
<path fill="none" stroke="#63b8ff" d="M1761.85,-175.8C1753.05,-165.92 1741.3,-152.72 1732.1,-142.39"/>
<polygon fill="#63b8ff" stroke="#63b8ff" points="1734.64,-139.98 1725.38,-134.84 1729.41,-144.64 1734.64,-139.98"/>
</a>
</g>
</g>
<!-- Node27 -->
<g id="Node000027" class="node">
<title>Node27</title>
<g id="a_Node000027"><a xlink:title=" ">
<polygon fill="#e0e0e0" stroke="#999999" points="1871.5,-134.5 1793.5,-134.5 1793.5,-115.5 1871.5,-115.5 1871.5,-134.5"/>
<text text-anchor="middle" x="1832.5" y="-122.5" font-family="Helvetica,sans-Serif" font-size="10.00">comp_decl.h</text>
</a>
</g>
</g>
<!-- Node1&#45;&gt;Node27 -->
<g id="edge35_Node000001_Node000027" class="edge">
<title>Node1&#45;&gt;Node27</title>
<g id="a_edge35_Node000001_Node000027"><a xlink:title=" ">
<path fill="none" stroke="#63b8ff" d="M1787.37,-175.8C1796.33,-165.92 1808.29,-152.72 1817.64,-142.39"/>
<polygon fill="#63b8ff" stroke="#63b8ff" points="1820.36,-144.6 1824.48,-134.84 1815.18,-139.9 1820.36,-144.6"/>
</a>
</g>
</g>
<!-- Node28 -->
<g id="Node000028" class="node">
<title>Node28</title>
<g id="a_Node000028"><a xlink:title=" ">
<polygon fill="#e0e0e0" stroke="#999999" points="1997.5,-134.5 1889.5,-134.5 1889.5,-115.5 1997.5,-115.5 1997.5,-134.5"/>
<text text-anchor="middle" x="1943.5" y="-122.5" font-family="Helvetica,sans-Serif" font-size="10.00">info_loaded_decl.h</text>
</a>
</g>
</g>
<!-- Node1&#45;&gt;Node28 -->
<g id="edge36_Node000001_Node000028" class="edge">
<title>Node1&#45;&gt;Node28</title>
<g id="a_edge36_Node000001_Node000028"><a xlink:title=" ">
<path fill="none" stroke="#63b8ff" d="M1811.59,-175.95C1841.49,-164.63 1883.1,-148.88 1911.54,-138.1"/>
<polygon fill="#63b8ff" stroke="#63b8ff" points="1912.9,-141.33 1921.01,-134.52 1910.42,-134.79 1912.9,-141.33"/>
</a>
</g>
</g>
<!-- Node29 -->
<g id="Node000029" class="node">
<title>Node29</title>
<g id="a_Node000029"><a xlink:title=" ">
<polygon fill="#e0e0e0" stroke="#999999" points="2155.5,-134.5 2015.5,-134.5 2015.5,-115.5 2155.5,-115.5 2155.5,-134.5"/>
<text text-anchor="middle" x="2085.5" y="-122.5" font-family="Helvetica,sans-Serif" font-size="10.00">device_mesh_info_decl.h</text>
</a>
</g>
</g>
<!-- Node1&#45;&gt;Node29 -->
<g id="edge37_Node000001_Node000029" class="edge">
<title>Node1&#45;&gt;Node29</title>
<g id="a_edge37_Node000001_Node000029"><a xlink:title=" ">
<path fill="none" stroke="#63b8ff" d="M1831.18,-178.34C1889.07,-166.42 1978.17,-148.09 2034.08,-136.58"/>
<polygon fill="#63b8ff" stroke="#63b8ff" points="2035.03,-139.96 2044.12,-134.52 2033.62,-133.1 2035.03,-139.96"/>
</a>
</g>
</g>
<!-- Node30 -->
<g id="Node000030" class="node">
<title>Node30</title>
<g id="a_Node000030"><a xlink:title=" ">
<polygon fill="#e0e0e0" stroke="#999999" points="2251,-134.5 2174,-134.5 2174,-115.5 2251,-115.5 2251,-134.5"/>
<text text-anchor="middle" x="2212.5" y="-122.5" font-family="Helvetica,sans-Serif" font-size="10.00">array_decl.h</text>
</a>
</g>
</g>
<!-- Node1&#45;&gt;Node30 -->
<g id="edge38_Node000001_Node000030" class="edge">
<title>Node1&#45;&gt;Node30</title>
<g id="a_edge38_Node000001_Node000030"><a xlink:title=" ">
<path fill="none" stroke="#63b8ff" d="M1831.15,-185.53C1907.45,-178.88 2047.22,-164.46 2164.5,-140 2168.36,-139.2 2172.36,-138.24 2176.32,-137.2"/>
<polygon fill="#63b8ff" stroke="#63b8ff" points="2177.32,-140.56 2186.03,-134.52 2175.46,-133.81 2177.32,-140.56"/>
</a>
</g>
</g>
<!-- Node31 -->
<g id="Node000031" class="node">
<title>Node31</title>
<g id="a_Node000031"><a xlink:title=" ">
<polygon fill="#e0e0e0" stroke="#999999" points="2345.5,-134.5 2269.5,-134.5 2269.5,-115.5 2345.5,-115.5 2345.5,-134.5"/>
<text text-anchor="middle" x="2307.5" y="-122.5" font-family="Helvetica,sans-Serif" font-size="10.00">input_decl.h</text>
</a>
</g>
</g>
<!-- Node1&#45;&gt;Node31 -->
<g id="edge39_Node000001_Node000031" class="edge">
<title>Node1&#45;&gt;Node31</title>
<g id="a_edge39_Node000001_Node000031"><a xlink:title=" ">
<path fill="none" stroke="#63b8ff" d="M1831.14,-187.61C1922.32,-183 2107,-170.48 2260.5,-140 2264.23,-139.26 2268.08,-138.35 2271.91,-137.36"/>
<polygon fill="#63b8ff" stroke="#63b8ff" points="2273.17,-140.64 2281.86,-134.58 2271.29,-133.9 2273.17,-140.64"/>
</a>
</g>
</g>
<!-- Node32 -->
<g id="Node000032" class="node">
<title>Node32</title>
<g id="a_Node000032"><a xlink:href="ac__helpers_8h.html" target="_top" xlink:title=" ">
<polygon fill="white" stroke="#666666" points="2441.5,-134.5 2363.5,-134.5 2363.5,-115.5 2441.5,-115.5 2441.5,-134.5"/>
<text text-anchor="middle" x="2402.5" y="-122.5" font-family="Helvetica,sans-Serif" font-size="10.00">ac_helpers.h</text>
</a>
</g>
</g>
<!-- Node1&#45;&gt;Node32 -->
<g id="edge40_Node000001_Node000032" class="edge">
<title>Node1&#45;&gt;Node32</title>
<g id="a_edge40_Node000001_Node000032"><a xlink:title=" ">
<path fill="none" stroke="#63b8ff" d="M1831.4,-188.82C1935.88,-185.83 2165,-175.44 2354.5,-140 2358.63,-139.23 2362.91,-138.25 2367.14,-137.17"/>
<polygon fill="#63b8ff" stroke="#63b8ff" points="2368.1,-140.53 2376.82,-134.51 2366.25,-133.78 2368.1,-140.53"/>
</a>
</g>
</g>
<!-- Node33 -->
<g id="Node000033" class="node">
<title>Node33</title>
<g id="a_Node000033"><a xlink:title=" ">
<polygon fill="#e0e0e0" stroke="#999999" points="2577.5,-140 2459.5,-140 2459.5,-110 2577.5,-110 2577.5,-140"/>
<text text-anchor="start" x="2467.5" y="-128" font-family="Helvetica,sans-Serif" font-size="10.00">scalar_reduce_buffer</text>
<text text-anchor="middle" x="2518.5" y="-117" font-family="Helvetica,sans-Serif" font-size="10.00">_defs.h</text>
</a>
</g>
</g>
<!-- Node1&#45;&gt;Node33 -->
<g id="edge41_Node000001_Node000033" class="edge">
<title>Node1&#45;&gt;Node33</title>
<g id="a_edge41_Node000001_Node000033"><a xlink:title=" ">
<path fill="none" stroke="#63b8ff" d="M1831.29,-188.28C1946.21,-184.26 2214.6,-172.14 2449.15,-140.06"/>
<polygon fill="#63b8ff" stroke="#63b8ff" points="2449.81,-143.51 2459.24,-138.67 2448.85,-136.57 2449.81,-143.51"/>
</a>
</g>
</g>
<!-- Node34 -->
<g id="Node000034" class="node">
<title>Node34</title>
<g id="a_Node000034"><a xlink:title=" ">
<polygon fill="#e0e0e0" stroke="#999999" points="2719,-140 2596,-140 2596,-110 2719,-110 2719,-140"/>
<text text-anchor="start" x="2604" y="-128" font-family="Helvetica,sans-Serif" font-size="10.00">scalar_reduce_buffers</text>
<text text-anchor="middle" x="2657.5" y="-117" font-family="Helvetica,sans-Serif" font-size="10.00">_in_vba.h</text>
</a>
</g>
</g>
<!-- Node1&#45;&gt;Node34 -->
<g id="edge42_Node000001_Node000034" class="edge">
<title>Node1&#45;&gt;Node34</title>
<g id="a_edge42_Node000001_Node000034"><a xlink:title=" ">
<path fill="none" stroke="#63b8ff" d="M1831.35,-189.1C1962.54,-186.46 2296.63,-176.55 2585.37,-140.02"/>
<polygon fill="#63b8ff" stroke="#63b8ff" points="2586.15,-143.44 2595.62,-138.7 2585.26,-136.5 2586.15,-143.44"/>
</a>
</g>
</g>
<!-- Node35 -->
<g id="Node000035" class="node">
<title>Node35</title>
<g id="a_Node000035"><a xlink:href="astaroth__analysis_8h.html" target="_top" xlink:title=" ">
<polygon fill="white" stroke="#666666" points="2849.5,-134.5 2737.5,-134.5 2737.5,-115.5 2849.5,-115.5 2849.5,-134.5"/>
<text text-anchor="middle" x="2793.5" y="-122.5" font-family="Helvetica,sans-Serif" font-size="10.00">astaroth_analysis.h</text>
</a>
</g>
</g>
<!-- Node1&#45;&gt;Node35 -->
<g id="edge43_Node000001_Node000035" class="edge">
<title>Node1&#45;&gt;Node35</title>
<g id="a_edge43_Node000001_Node000035"><a xlink:title=" ">
<path fill="none" stroke="#63b8ff" d="M1831.24,-190.18C1979.47,-189.96 2390.24,-185 2728.5,-140 2735.19,-139.11 2742.21,-137.9 2749.07,-136.55"/>
<polygon fill="#63b8ff" stroke="#63b8ff" points="2749.85,-139.97 2758.93,-134.52 2748.43,-133.11 2749.85,-139.97"/>
</a>
</g>
</g>
<!-- Node36 -->
<g id="Node000036" class="node">
<title>Node36</title>
<g id="a_Node000036"><a xlink:href="func__define_8h.html" target="_top" xlink:title=" ">
<polygon fill="white" stroke="#666666" points="2949.5,-134.5 2867.5,-134.5 2867.5,-115.5 2949.5,-115.5 2949.5,-134.5"/>
<text text-anchor="middle" x="2908.5" y="-122.5" font-family="Helvetica,sans-Serif" font-size="10.00">func_define.h</text>
</a>
</g>
</g>
<!-- Node1&#45;&gt;Node36 -->
<g id="edge44_Node000001_Node000036" class="edge">
<title>Node1&#45;&gt;Node36</title>
<g id="a_edge44_Node000001_Node000036"><a xlink:title=" ">
<path fill="none" stroke="#63b8ff" d="M1831.25,-189.08C2024.74,-185.68 2657.73,-172.31 2858.5,-140 2863.03,-139.27 2867.73,-138.28 2872.36,-137.16"/>
<polygon fill="#63b8ff" stroke="#63b8ff" points="2873.5,-140.48 2882.28,-134.55 2871.72,-133.71 2873.5,-140.48"/>
</a>
</g>
</g>
<!-- Node37 -->
<g id="Node000037" class="node">
<title>Node37</title>
<g id="a_Node000037"><a xlink:href="common__kernels_8h.html" target="_top" xlink:title=" ">
<polygon fill="white" stroke="#666666" points="3077,-134.5 2968,-134.5 2968,-115.5 3077,-115.5 3077,-134.5"/>
<text text-anchor="middle" x="3022.5" y="-122.5" font-family="Helvetica,sans-Serif" font-size="10.00">common_kernels.h</text>
</a>
</g>
</g>
<!-- Node1&#45;&gt;Node37 -->
<g id="edge45_Node000001_Node000037" class="edge">
<title>Node1&#45;&gt;Node37</title>
<g id="a_edge45_Node000001_Node000037"><a xlink:title=" ">
<path fill="none" stroke="#63b8ff" d="M1831.02,-188.91C2035.5,-184.77 2736.36,-168.77 2958.5,-140 2965.17,-139.14 2972.17,-137.92 2979,-136.57"/>
<polygon fill="#63b8ff" stroke="#63b8ff" points="2979.74,-139.99 2988.81,-134.51 2978.31,-133.14 2979.74,-139.99"/>
</a>
</g>
</g>
<!-- Node38 -->
<g id="Node000038" class="node">
<title>Node38</title>
<g id="a_Node000038"><a xlink:title=" ">
<polygon fill="#e0e0e0" stroke="#999999" points="3207.5,-134.5 3095.5,-134.5 3095.5,-115.5 3207.5,-115.5 3207.5,-134.5"/>
<text text-anchor="middle" x="3151.5" y="-122.5" font-family="Helvetica,sans-Serif" font-size="10.00">user_declarations.h</text>
</a>
</g>
</g>
<!-- Node1&#45;&gt;Node38 -->
<g id="edge46_Node000001_Node000038" class="edge">
<title>Node1&#45;&gt;Node38</title>
<g id="a_edge46_Node000001_Node000038"><a xlink:title=" ">
<path fill="none" stroke="#63b8ff" d="M1831.02,-189.16C2049.38,-185.69 2838.01,-171.25 3086.5,-140 3093.27,-139.15 3100.38,-137.94 3107.31,-136.59"/>
<polygon fill="#63b8ff" stroke="#63b8ff" points="3108.2,-139.99 3117.28,-134.54 3106.78,-133.13 3108.2,-139.99"/>
</a>
</g>
</g>
<!-- Node39 -->
<g id="Node000039" class="node">
<title>Node39</title>
<g id="a_Node000039"><a xlink:title=" ">
<polygon fill="#e0e0e0" stroke="#999999" points="3359.5,-140 3225.5,-140 3225.5,-110 3359.5,-110 3359.5,-140"/>
<text text-anchor="start" x="3233.5" y="-128" font-family="Helvetica,sans-Serif" font-size="10.00">load_and_store_uniform</text>
<text text-anchor="middle" x="3292.5" y="-117" font-family="Helvetica,sans-Serif" font-size="10.00">_header.h</text>
</a>
</g>
</g>
<!-- Node1&#45;&gt;Node39 -->
<g id="edge47_Node000001_Node000039" class="edge">
<title>Node1&#45;&gt;Node39</title>
<g id="a_edge47_Node000001_Node000039"><a xlink:title=" ">
<path fill="none" stroke="#63b8ff" d="M1831.37,-189.15C2060.91,-185.55 2920.39,-170.36 3215.2,-139.99"/>
<polygon fill="#63b8ff" stroke="#63b8ff" points="3215.87,-143.44 3225.44,-138.91 3215.13,-136.48 3215.87,-143.44"/>
</a>
</g>
</g>
<!-- Node5 -->
<g id="Node000005" class="node">
<title>Node5</title>
<g id="a_Node000005"><a xlink:title=" ">
<polygon fill="#e0e0e0" stroke="#999999" points="323,-19 210,-19 210,0 323,0 323,-19"/>
<text text-anchor="middle" x="266.5" y="-7" font-family="Helvetica,sans-Serif" font-size="10.00">cuda_runtime_api.h</text>
</a>
</g>
</g>
<!-- Node4&#45;&gt;Node5 -->
<g id="edge4_Node000004_Node000005" class="edge">
<title>Node4&#45;&gt;Node5</title>
<g id="a_edge4_Node000004_Node000005"><a xlink:title=" ">
<path fill="none" stroke="#63b8ff" d="M545.3,-55.28C487.16,-45.94 392.28,-30.7 329.62,-20.64"/>
<polygon fill="#63b8ff" stroke="#63b8ff" points="329.89,-17.14 319.46,-19.01 328.78,-24.05 329.89,-17.14"/>
</a>
</g>
</g>
<!-- Node6 -->
<g id="Node000006" class="node">
<title>Node6</title>
<g id="a_Node000006"><a xlink:title=" ">
<polygon fill="#e0e0e0" stroke="#999999" points="634.5,-19 558.5,-19 558.5,0 634.5,0 634.5,-19"/>
<text text-anchor="middle" x="596.5" y="-7" font-family="Helvetica,sans-Serif" font-size="10.00">cuda_fp16.h</text>
</a>
</g>
</g>
<!-- Node4&#45;&gt;Node6 -->
<g id="edge5_Node000004_Node000006" class="edge">
<title>Node4&#45;&gt;Node6</title>
<g id="a_edge5_Node000004_Node000006"><a xlink:title=" ">
<path fill="none" stroke="#63b8ff" d="M596.5,-54.75C596.5,-47.8 596.5,-37.85 596.5,-29.13"/>
<polygon fill="#63b8ff" stroke="#63b8ff" points="600,-29.09 596.5,-19.09 593,-29.09 600,-29.09"/>
</a>
</g>
</g>
<!-- Node8&#45;&gt;Node4 -->
<g id="edge10_Node000008_Node000004" class="edge">
<title>Node8&#45;&gt;Node4</title>
<g id="a_edge10_Node000008_Node000004"><a xlink:title=" ">
<path fill="none" stroke="#63b8ff" d="M400.8,-115.49C441.08,-105.2 508.98,-87.86 553.27,-76.54"/>
<polygon fill="#63b8ff" stroke="#63b8ff" points="554.34,-79.88 563.16,-74.02 552.61,-73.1 554.34,-79.88"/>
</a>
</g>
</g>
<!-- Node8&#45;&gt;Node5 -->
<g id="edge12_Node000008_Node000005" class="edge">
<title>Node8&#45;&gt;Node5</title>
<g id="a_edge12_Node000008_Node000005"><a xlink:title=" ">
<path fill="none" stroke="#63b8ff" d="M330.06,-121.22C272.27,-116.06 165.6,-102.79 142.5,-74 121.11,-47.33 161.14,-30.76 201.29,-21.26"/>
<polygon fill="#63b8ff" stroke="#63b8ff" points="202.19,-24.64 211.19,-19.05 200.67,-17.81 202.19,-24.64"/>
</a>
</g>
</g>
<!-- Node8&#45;&gt;Node7 -->
<g id="edge14_Node000008_Node000007" class="edge">
<title>Node8&#45;&gt;Node7</title>
<g id="a_edge14_Node000008_Node000007"><a xlink:title=" ">
<path fill="none" stroke="#63b8ff" d="M384.03,-115.37C402.47,-105.73 432.54,-90.03 454.01,-78.81"/>
<polygon fill="#63b8ff" stroke="#63b8ff" points="455.66,-81.9 462.91,-74.17 452.42,-75.69 455.66,-81.9"/>
</a>
</g>
</g>
<!-- Node9 -->
<g id="Node000009" class="node">
<title>Node9</title>
<g id="a_Node000009"><a xlink:title=" ">
<polygon fill="#e0e0e0" stroke="#999999" points="199,-74 152,-74 152,-55 199,-55 199,-74"/>
<text text-anchor="middle" x="175.5" y="-62" font-family="Helvetica,sans-Serif" font-size="10.00">float.h</text>
</a>
</g>
</g>
<!-- Node8&#45;&gt;Node9 -->
<g id="edge8_Node000008_Node000009" class="edge">
<title>Node8&#45;&gt;Node9</title>
<g id="a_edge8_Node000008_Node000009"><a xlink:title=" ">
<path fill="none" stroke="#63b8ff" d="M339.58,-115.49C304.98,-104.95 246.06,-87 209.04,-75.72"/>
<polygon fill="#63b8ff" stroke="#63b8ff" points="209.8,-72.29 199.21,-72.73 207.76,-78.99 209.8,-72.29"/>
</a>
</g>
</g>
<!-- Node10 -->
<g id="Node000010" class="node">
<title>Node10</title>
<g id="a_Node000010"><a xlink:title=" ">
<polygon fill="#e0e0e0" stroke="#999999" points="268,-74 217,-74 217,-55 268,-55 268,-74"/>
<text text-anchor="middle" x="242.5" y="-62" font-family="Helvetica,sans-Serif" font-size="10.00">math.h</text>
</a>
</g>
</g>
<!-- Node8&#45;&gt;Node10 -->
<g id="edge9_Node000008_Node000010" class="edge">
<title>Node8&#45;&gt;Node10</title>
<g id="a_edge9_Node000008_Node000010"><a xlink:title=" ">
<path fill="none" stroke="#63b8ff" d="M349.32,-115.49C328.49,-105.75 294.13,-89.66 270.02,-78.38"/>
<polygon fill="#63b8ff" stroke="#63b8ff" points="271.24,-75.09 260.7,-74.02 268.27,-81.43 271.24,-75.09"/>
</a>
</g>
</g>
<!-- Node11 -->
<g id="Node000011" class="node">
<title>Node11</title>
<g id="a_Node000011"><a xlink:title=" ">
<polygon fill="#e0e0e0" stroke="#999999" points="375,-74 286,-74 286,-55 375,-55 375,-74"/>
<text text-anchor="middle" x="330.5" y="-62" font-family="Helvetica,sans-Serif" font-size="10.00">vector_types.h</text>
</a>
</g>
</g>
<!-- Node8&#45;&gt;Node11 -->
<g id="edge11_Node000008_Node000011" class="edge">
<title>Node8&#45;&gt;Node11</title>
<g id="a_edge11_Node000008_Node000011"><a xlink:title=" ">
<path fill="none" stroke="#63b8ff" d="M362.04,-115.37C356.63,-106.81 348.19,-93.47 341.4,-82.74"/>
<polygon fill="#63b8ff" stroke="#63b8ff" points="344.29,-80.75 335.98,-74.17 338.37,-84.49 344.29,-80.75"/>
</a>
</g>
</g>
<!-- Node12 -->
<g id="Node000012" class="node">
<title>Node12</title>
<g id="a_Node000012"><a xlink:href="acreal_8h.html" target="_top" xlink:title=" ">
<polygon fill="white" stroke="#666666" points="485.5,-19 429.5,-19 429.5,0 485.5,0 485.5,-19"/>
<text text-anchor="middle" x="457.5" y="-7" font-family="Helvetica,sans-Serif" font-size="10.00">acreal.h</text>
</a>
</g>
</g>
<!-- Node8&#45;&gt;Node12 -->
<g id="edge13_Node000008_Node000012" class="edge">
<title>Node8&#45;&gt;Node12</title>
<g id="a_edge13_Node000008_Node000012"><a xlink:title=" ">
<path fill="none" stroke="#63b8ff" d="M374.26,-115.47C389.12,-96.74 424.81,-51.72 444.29,-27.16"/>
<polygon fill="#63b8ff" stroke="#63b8ff" points="447.19,-29.14 450.66,-19.13 441.7,-24.79 447.19,-29.14"/>
</a>
</g>
</g>
<!-- Node13 -->
<g id="Node000013" class="node">
<title>Node13</title>
<g id="a_Node000013"><a xlink:title=" ">
<polygon fill="#e0e0e0" stroke="#999999" points="95,-74 0,-74 0,-55 95,-55 95,-74"/>
<text text-anchor="middle" x="47.5" y="-62" font-family="Helvetica,sans-Serif" font-size="10.00">user_typedefs.h</text>
</a>
</g>
</g>
<!-- Node8&#45;&gt;Node13 -->
<g id="edge15_Node000008_Node000013" class="edge">
<title>Node8&#45;&gt;Node13</title>
<g id="a_edge15_Node000008_Node000013"><a xlink:title=" ">
<path fill="none" stroke="#63b8ff" d="M330.48,-117.23C274.96,-107.08 169.7,-87.84 104.39,-75.9"/>
<polygon fill="#63b8ff" stroke="#63b8ff" points="104.73,-72.4 94.26,-74.05 103.47,-79.29 104.73,-72.4"/>
</a>
</g>
</g>
<!-- Node14 -->
<g id="Node000014" class="node">
<title>Node14</title>
<g id="a_Node000014"><a xlink:href="host__datatypes_8h.html" target="_top" xlink:title=" ">
<polygon fill="white" stroke="#666666" points="767,-74 666,-74 666,-55 767,-55 767,-74"/>
<text text-anchor="middle" x="716.5" y="-62" font-family="Helvetica,sans-Serif" font-size="10.00">host_datatypes.h</text>
</a>
</g>
</g>
<!-- Node8&#45;&gt;Node14 -->
<g id="edge16_Node000008_Node000014" class="edge">
<title>Node8&#45;&gt;Node14</title>
<g id="a_edge16_Node000008_Node000014"><a xlink:title=" ">
<path fill="none" stroke="#63b8ff" d="M404.52,-117.79C464.5,-107.74 583.5,-87.79 655.95,-75.65"/>
<polygon fill="#63b8ff" stroke="#63b8ff" points="656.57,-79.1 665.85,-73.99 655.41,-72.19 656.57,-79.1"/>
</a>
</g>
</g>
<!-- Node14&#45;&gt;Node12 -->
<g id="edge17_Node000014_Node000012" class="edge">
<title>Node14&#45;&gt;Node12</title>
<g id="a_edge17_Node000014_Node000012"><a xlink:title=" ">
<path fill="none" stroke="#63b8ff" d="M674.89,-54.98C625.46,-44.87 543.7,-28.14 495.78,-18.33"/>
<polygon fill="#63b8ff" stroke="#63b8ff" points="496.31,-14.87 485.81,-16.29 494.9,-21.73 496.31,-14.87"/>
</a>
</g>
</g>
<!-- Node15 -->
<g id="Node000015" class="node">
<title>Node15</title>
<g id="a_Node000015"><a xlink:title=" ">
<polygon fill="#e0e0e0" stroke="#999999" points="962.5,-19 906.5,-19 906.5,0 962.5,0 962.5,-19"/>
<text text-anchor="middle" x="934.5" y="-7" font-family="Helvetica,sans-Serif" font-size="10.00">stddef.h</text>
</a>
</g>
</g>
<!-- Node14&#45;&gt;Node15 -->
<g id="edge18_Node000014_Node000015" class="edge">
<title>Node14&#45;&gt;Node15</title>
<g id="a_edge18_Node000014_Node000015"><a xlink:title=" ">
<path fill="none" stroke="#63b8ff" d="M751.53,-54.98C791.25,-45.33 855.79,-29.64 896.64,-19.7"/>
<polygon fill="#63b8ff" stroke="#63b8ff" points="897.6,-23.07 906.49,-17.31 895.95,-16.27 897.6,-23.07"/>
</a>
</g>
</g>
<!-- Node16&#45;&gt;Node2 -->
<g id="edge24_Node000016_Node000002" class="edge">
<title>Node16&#45;&gt;Node2</title>
<g id="a_edge24_Node000016_Node000002"><a xlink:title=" ">
<path fill="none" stroke="#63b8ff" d="M873.58,-115.37C861.99,-106.21 843.47,-91.56 829.48,-80.51"/>
<polygon fill="#63b8ff" stroke="#63b8ff" points="831.48,-77.62 821.46,-74.17 827.14,-83.11 831.48,-77.62"/>
</a>
</g>
</g>
<!-- Node16&#45;&gt;Node3 -->
<g id="edge22_Node000016_Node000003" class="edge">
<title>Node16&#45;&gt;Node3</title>
<g id="a_edge22_Node000016_Node000003"><a xlink:title=" ">
<path fill="none" stroke="#63b8ff" d="M884.5,-115.37C884.5,-107.25 884.5,-94.81 884.5,-84.39"/>
<polygon fill="#63b8ff" stroke="#63b8ff" points="888,-84.17 884.5,-74.17 881,-84.17 888,-84.17"/>
</a>
</g>
</g>
<!-- Node16&#45;&gt;Node4 -->
<g id="edge27_Node000016_Node000004" class="edge">
<title>Node16&#45;&gt;Node4</title>
<g id="a_edge27_Node000016_Node000004"><a xlink:title=" ">
<path fill="none" stroke="#63b8ff" d="M856.36,-118.28C808.23,-108.51 709.4,-88.43 648.45,-76.05"/>
<polygon fill="#63b8ff" stroke="#63b8ff" points="649.13,-72.62 638.63,-74.06 647.74,-79.48 649.13,-72.62"/>
</a>
</g>
</g>
<!-- Node16&#45;&gt;Node14 -->
<g id="edge21_Node000016_Node000014" class="edge">
<title>Node16&#45;&gt;Node14</title>
<g id="a_edge21_Node000016_Node000014"><a xlink:title=" ">
<path fill="none" stroke="#63b8ff" d="M860.07,-115.49C831.21,-105.44 783,-88.66 750.5,-77.34"/>
<polygon fill="#63b8ff" stroke="#63b8ff" points="751.55,-74 740.96,-74.02 749.25,-80.61 751.55,-74"/>
</a>
</g>
</g>
<!-- Node16&#45;&gt;Node15 -->
<g id="edge20_Node000016_Node000015" class="edge">
<title>Node16&#45;&gt;Node15</title>
<g id="a_edge20_Node000016_Node000015"><a xlink:title=" ">
<path fill="none" stroke="#63b8ff" d="M905.58,-115.45C911.03,-113.46 916.93,-111.49 922.5,-110 968.46,-97.73 1102.82,-110.35 1133.5,-74 1178.66,-20.48 1042.49,-11.57 972.83,-10.42"/>
<polygon fill="#63b8ff" stroke="#63b8ff" points="972.7,-6.92 962.66,-10.3 972.62,-13.92 972.7,-6.92"/>
</a>
</g>
</g>
<!-- Node17 -->
<g id="Node000017" class="node">
<title>Node17</title>
<g id="a_Node000017"><a xlink:title=" ">
<polygon fill="#e0e0e0" stroke="#999999" points="987,-74 934,-74 934,-55 987,-55 987,-74"/>
<text text-anchor="middle" x="960.5" y="-62" font-family="Helvetica,sans-Serif" font-size="10.00">stdint.h</text>
</a>
</g>
</g>
<!-- Node16&#45;&gt;Node17 -->
<g id="edge23_Node000016_Node000017" class="edge">
<title>Node16&#45;&gt;Node17</title>
<g id="a_edge23_Node000016_Node000017"><a xlink:title=" ">
<path fill="none" stroke="#63b8ff" d="M895.71,-115.37C907.61,-106.21 926.64,-91.56 941.01,-80.51"/>
<polygon fill="#63b8ff" stroke="#63b8ff" points="943.45,-83.04 949.24,-74.17 939.18,-77.49 943.45,-83.04"/>
</a>
</g>
</g>
<!-- Node18 -->
<g id="Node000018" class="node">
<title>Node18</title>
<g id="a_Node000018"><a xlink:title=" ">
<polygon fill="#e0e0e0" stroke="#999999" points="1058,-74 1005,-74 1005,-55 1058,-55 1058,-74"/>
<text text-anchor="middle" x="1031.5" y="-62" font-family="Helvetica,sans-Serif" font-size="10.00">stdlib.h</text>
</a>
</g>
</g>
<!-- Node16&#45;&gt;Node18 -->
<g id="edge25_Node000016_Node000018" class="edge">
<title>Node16&#45;&gt;Node18</title>
<g id="a_edge25_Node000016_Node000018"><a xlink:title=" ">
<path fill="none" stroke="#63b8ff" d="M905.88,-115.49C930.81,-105.57 972.22,-89.09 1000.64,-77.78"/>
<polygon fill="#63b8ff" stroke="#63b8ff" points="1002.1,-80.97 1010.1,-74.02 999.51,-74.46 1002.1,-80.97"/>
</a>
</g>
</g>
<!-- Node19 -->
<g id="Node000019" class="node">
<title>Node19</title>
<g id="a_Node000019"><a xlink:title=" ">
<polygon fill="#e0e0e0" stroke="#999999" points="1124.5,-74 1076.5,-74 1076.5,-55 1124.5,-55 1124.5,-74"/>
<text text-anchor="middle" x="1100.5" y="-62" font-family="Helvetica,sans-Serif" font-size="10.00">time.h</text>
</a>
</g>
</g>
<!-- Node16&#45;&gt;Node19 -->
<g id="edge26_Node000016_Node000019" class="edge">
<title>Node16&#45;&gt;Node19</title>
<g id="a_edge26_Node000016_Node000019"><a xlink:title=" ">
<path fill="none" stroke="#63b8ff" d="M906.46,-115.44C911.68,-113.54 917.26,-111.61 922.5,-110 983,-91.41 1001.42,-90.34 1066.42,-74.23"/>
<polygon fill="#63b8ff" stroke="#63b8ff" points="1067.51,-77.57 1076.36,-71.74 1065.8,-70.78 1067.51,-77.57"/>
</a>
</g>
</g>
</g>
</svg>
