<?xml version="1.0" encoding="UTF-8" standalone="no"?>
<!DOCTYPE svg PUBLIC "-//W3C//DTD SVG 1.1//EN"
 "http://www.w3.org/Graphics/SVG/1.1/DTD/svg11.dtd">
<!-- Generated by graphviz version 2.43.0 (0)
 -->
<!-- Title: src/core/analysis_helpers.cc Pages: 1 -->
<svg width="2766pt" height="379pt"
 viewBox="0.00 0.00 2766.21 379.00" xmlns="http://www.w3.org/2000/svg" xmlns:xlink="http://www.w3.org/1999/xlink">
<g id="graph0" class="graph" transform="scale(1 1) rotate(0) translate(4 375)">
<title>src/core/analysis_helpers.cc</title>
<!-- Node1 -->
<g id="Node000001" class="node">
<title>Node1</title>
<g id="a_Node000001"><a xlink:title=" ">
<polygon fill="#999999" stroke="#666666" points="746.71,-371 593.71,-371 593.71,-352 746.71,-352 746.71,-371"/>
<text text-anchor="middle" x="670.21" y="-359" font-family="Helvetica,sans-Serif" font-size="10.00">src/core/analysis_helpers.cc</text>
</a>
</g>
</g>
<!-- Node2 -->
<g id="Node000002" class="node">
<title>Node2</title>
<g id="a_Node000002"><a xlink:href="astaroth_8h.html" target="_top" xlink:title=" ">
<polygon fill="white" stroke="#666666" points="666.21,-316 600.21,-316 600.21,-297 666.21,-297 666.21,-316"/>
<text text-anchor="middle" x="633.21" y="-304" font-family="Helvetica,sans-Serif" font-size="10.00">astaroth.h</text>
</a>
</g>
</g>
<!-- Node1&#45;&gt;Node2 -->
<g id="edge1_Node000001_Node000002" class="edge">
<title>Node1&#45;&gt;Node2</title>
<g id="a_edge1_Node000001_Node000002"><a xlink:title=" ">
<path fill="none" stroke="#63b8ff" d="M664.1,-351.75C658.93,-344.34 651.36,-333.5 645.01,-324.41"/>
<polygon fill="#63b8ff" stroke="#63b8ff" points="647.8,-322.29 639.2,-316.09 642.06,-326.29 647.8,-322.29"/>
</a>
</g>
</g>
<!-- Node38 -->
<g id="Node000038" class="node">
<title>Node38</title>
<g id="a_Node000038"><a xlink:href="astaroth__analysis_8h.html" target="_top" xlink:title=" ">
<polygon fill="white" stroke="#666666" points="152.21,-134.5 40.21,-134.5 40.21,-115.5 152.21,-115.5 152.21,-134.5"/>
<text text-anchor="middle" x="96.21" y="-122.5" font-family="Helvetica,sans-Serif" font-size="10.00">astaroth_analysis.h</text>
</a>
</g>
</g>
<!-- Node1&#45;&gt;Node38 -->
<g id="edge56_Node000001_Node000038" class="edge">
<title>Node1&#45;&gt;Node38</title>
<g id="a_edge56_Node000001_Node000038"><a xlink:title=" ">
<path fill="none" stroke="#63b8ff" d="M593.66,-360.87C436.25,-359.83 84.75,-347.63 10.21,-261 -24.05,-221.19 39.14,-166.59 74.57,-140.73"/>
<polygon fill="#63b8ff" stroke="#63b8ff" points="76.78,-143.45 82.9,-134.8 72.73,-137.74 76.78,-143.45"/>
</a>
</g>
</g>
<!-- Node55 -->
<g id="Node000055" class="node">
<title>Node55</title>
<g id="a_Node000055"><a xlink:title=" ">
<polygon fill="#e0e0e0" stroke="#999999" points="731.71,-316 684.71,-316 684.71,-297 731.71,-297 731.71,-316"/>
<text text-anchor="middle" x="708.21" y="-304" font-family="Helvetica,sans-Serif" font-size="10.00">vector</text>
</a>
</g>
</g>
<!-- Node1&#45;&gt;Node55 -->
<g id="edge57_Node000001_Node000055" class="edge">
<title>Node1&#45;&gt;Node55</title>
<g id="a_edge57_Node000001_Node000055"><a xlink:title=" ">
<path fill="none" stroke="#63b8ff" d="M676.48,-351.75C681.79,-344.34 689.56,-333.5 696.08,-324.41"/>
<polygon fill="#63b8ff" stroke="#63b8ff" points="699.07,-326.26 702.05,-316.09 693.38,-322.18 699.07,-326.26"/>
</a>
</g>
</g>
<!-- Node56 -->
<g id="Node000056" class="node">
<title>Node56</title>
<g id="a_Node000056"><a xlink:title=" ">
<polygon fill="#e0e0e0" stroke="#999999" points="804.71,-316 749.71,-316 749.71,-297 804.71,-297 804.71,-316"/>
<text text-anchor="middle" x="777.21" y="-304" font-family="Helvetica,sans-Serif" font-size="10.00">coeffs.h</text>
</a>
</g>
</g>
<!-- Node1&#45;&gt;Node56 -->
<g id="edge58_Node000001_Node000056" class="edge">
<title>Node1&#45;&gt;Node56</title>
<g id="a_edge58_Node000001_Node000056"><a xlink:title=" ">
<path fill="none" stroke="#63b8ff" d="M687.4,-351.98C704.46,-343.54 730.84,-330.47 750.6,-320.68"/>
<polygon fill="#63b8ff" stroke="#63b8ff" points="752.3,-323.75 759.7,-316.17 749.19,-317.47 752.3,-323.75"/>
</a>
</g>
</g>
<!-- Node3 -->
<g id="Node000003" class="node">
<title>Node3</title>
<g id="a_Node000003"><a xlink:href="astaroth__base_8h.html" target="_top" xlink:title=" ">
<polygon fill="white" stroke="#666666" points="1468.71,-261 1373.71,-261 1373.71,-242 1468.71,-242 1468.71,-261"/>
<text text-anchor="middle" x="1421.21" y="-249" font-family="Helvetica,sans-Serif" font-size="10.00">astaroth_base.h</text>
</a>
</g>
</g>
<!-- Node2&#45;&gt;Node3 -->
<g id="edge2_Node000002_Node000003" class="edge">
<title>Node2&#45;&gt;Node3</title>
<g id="a_edge2_Node000002_Node000003"><a xlink:title=" ">
<path fill="none" stroke="#63b8ff" d="M666.47,-298.44C669.75,-297.89 673.04,-297.39 676.21,-297 977.24,-259.58 1058.41,-291.35 1363.57,-261.06"/>
<polygon fill="#63b8ff" stroke="#63b8ff" points="1363.99,-264.54 1373.59,-260.05 1363.29,-257.57 1363.99,-264.54"/>
</a>
</g>
</g>
<!-- Node43 -->
<g id="Node000043" class="node">
<title>Node43</title>
<g id="a_Node000043"><a xlink:href="astaroth__grid_8h.html" target="_top" xlink:title=" ">
<polygon fill="white" stroke="#666666" points="109.21,-261 19.21,-261 19.21,-242 109.21,-242 109.21,-261"/>
<text text-anchor="middle" x="64.21" y="-249" font-family="Helvetica,sans-Serif" font-size="10.00">astaroth_grid.h</text>
</a>
</g>
</g>
<!-- Node2&#45;&gt;Node43 -->
<g id="edge44_Node000002_Node000043" class="edge">
<title>Node2&#45;&gt;Node43</title>
<g id="a_edge44_Node000002_Node000043"><a xlink:title=" ">
<path fill="none" stroke="#63b8ff" d="M599.99,-303.44C519.43,-298.27 307.13,-283.6 119.31,-261.05"/>
<polygon fill="#63b8ff" stroke="#63b8ff" points="119.6,-257.56 109.26,-259.83 118.76,-264.51 119.6,-257.56"/>
</a>
</g>
</g>
<!-- Node44 -->
<g id="Node000044" class="node">
<title>Node44</title>
<g id="a_Node000044"><a xlink:href="astaroth__node_8h.html" target="_top" xlink:title=" ">
<polygon fill="white" stroke="#666666" points="222.71,-261 127.71,-261 127.71,-242 222.71,-242 222.71,-261"/>
<text text-anchor="middle" x="175.21" y="-249" font-family="Helvetica,sans-Serif" font-size="10.00">astaroth_node.h</text>
</a>
</g>
</g>
<!-- Node2&#45;&gt;Node44 -->
<g id="edge45_Node000002_Node000044" class="edge">
<title>Node2&#45;&gt;Node44</title>
<g id="a_edge45_Node000002_Node000044"><a xlink:title=" ">
<path fill="none" stroke="#63b8ff" d="M600.15,-302.26C533.11,-295.58 376.11,-279.5 233.05,-261.06"/>
<polygon fill="#63b8ff" stroke="#63b8ff" points="233.14,-257.54 222.77,-259.73 232.24,-264.49 233.14,-257.54"/>
</a>
</g>
</g>
<!-- Node45 -->
<g id="Node000045" class="node">
<title>Node45</title>
<g id="a_Node000045"><a xlink:href="astaroth__device_8h.html" target="_top" xlink:title=" ">
<polygon fill="white" stroke="#666666" points="345.21,-261 241.21,-261 241.21,-242 345.21,-242 345.21,-261"/>
<text text-anchor="middle" x="293.21" y="-249" font-family="Helvetica,sans-Serif" font-size="10.00">astaroth_device.h</text>
</a>
</g>
</g>
<!-- Node2&#45;&gt;Node45 -->
<g id="edge46_Node000002_Node000045" class="edge">
<title>Node2&#45;&gt;Node45</title>
<g id="a_edge46_Node000002_Node000045"><a xlink:title=" ">
<path fill="none" stroke="#63b8ff" d="M599.99,-300.32C543.45,-291.51 427.66,-273.46 355.62,-262.23"/>
<polygon fill="#63b8ff" stroke="#63b8ff" points="355.74,-258.71 345.32,-260.62 354.66,-265.62 355.74,-258.71"/>
</a>
</g>
</g>
<!-- Node48 -->
<g id="Node000048" class="node">
<title>Node48</title>
<g id="a_Node000048"><a xlink:href="astaroth__legacy_8h.html" target="_top" xlink:title=" ">
<polygon fill="white" stroke="#666666" points="465.21,-261 363.21,-261 363.21,-242 465.21,-242 465.21,-261"/>
<text text-anchor="middle" x="414.21" y="-249" font-family="Helvetica,sans-Serif" font-size="10.00">astaroth_legacy.h</text>
</a>
</g>
</g>
<!-- Node2&#45;&gt;Node48 -->
<g id="edge49_Node000002_Node000048" class="edge">
<title>Node2&#45;&gt;Node48</title>
<g id="a_edge49_Node000002_Node000048"><a xlink:title=" ">
<path fill="none" stroke="#63b8ff" d="M599.95,-297.45C562.47,-288.38 501.35,-273.59 459.53,-263.47"/>
<polygon fill="#63b8ff" stroke="#63b8ff" points="460.14,-260.02 449.6,-261.07 458.5,-266.82 460.14,-260.02"/>
</a>
</g>
</g>
<!-- Node49 -->
<g id="Node000049" class="node">
<title>Node49</title>
<g id="a_Node000049"><a xlink:title=" ">
<polygon fill="#e0e0e0" stroke="#999999" points="622.71,-261 483.71,-261 483.71,-242 622.71,-242 622.71,-261"/>
<text text-anchor="middle" x="553.21" y="-249" font-family="Helvetica,sans-Serif" font-size="10.00">device_set_input_decls.h</text>
</a>
</g>
</g>
<!-- Node2&#45;&gt;Node49 -->
<g id="edge50_Node000002_Node000049" class="edge">
<title>Node2&#45;&gt;Node49</title>
<g id="a_edge50_Node000002_Node000049"><a xlink:title=" ">
<path fill="none" stroke="#63b8ff" d="M620.35,-296.98C608.06,-288.84 589.3,-276.41 574.73,-266.76"/>
<polygon fill="#63b8ff" stroke="#63b8ff" points="576.56,-263.78 566.29,-261.17 572.7,-269.61 576.56,-263.78"/>
</a>
</g>
</g>
<!-- Node50 -->
<g id="Node000050" class="node">
<title>Node50</title>
<g id="a_Node000050"><a xlink:title=" ">
<polygon fill="#e0e0e0" stroke="#999999" points="787.21,-261 641.21,-261 641.21,-242 787.21,-242 787.21,-261"/>
<text text-anchor="middle" x="714.21" y="-249" font-family="Helvetica,sans-Serif" font-size="10.00">device_get_output_decls.h</text>
</a>
</g>
</g>
<!-- Node2&#45;&gt;Node50 -->
<g id="edge51_Node000002_Node000050" class="edge">
<title>Node2&#45;&gt;Node50</title>
<g id="a_edge51_Node000002_Node000050"><a xlink:title=" ">
<path fill="none" stroke="#63b8ff" d="M646.22,-296.98C658.66,-288.84 677.66,-276.41 692.42,-266.76"/>
<polygon fill="#63b8ff" stroke="#63b8ff" points="694.51,-269.57 700.96,-261.17 690.67,-263.72 694.51,-269.57"/>
</a>
</g>
</g>
<!-- Node51 -->
<g id="Node000051" class="node">
<title>Node51</title>
<g id="a_Node000051"><a xlink:title=" ">
<polygon fill="#e0e0e0" stroke="#999999" points="945.21,-261 805.21,-261 805.21,-242 945.21,-242 945.21,-261"/>
<text text-anchor="middle" x="875.21" y="-249" font-family="Helvetica,sans-Serif" font-size="10.00">device_get_input_decls.h</text>
</a>
</g>
</g>
<!-- Node2&#45;&gt;Node51 -->
<g id="edge52_Node000002_Node000051" class="edge">
<title>Node2&#45;&gt;Node51</title>
<g id="a_edge52_Node000002_Node000051"><a xlink:title=" ">
<path fill="none" stroke="#63b8ff" d="M666.35,-298.24C707.68,-289.19 778.69,-273.64 826.28,-263.22"/>
<polygon fill="#63b8ff" stroke="#63b8ff" points="827.04,-266.63 836.06,-261.07 825.55,-259.79 827.04,-266.63"/>
</a>
</g>
</g>
<!-- Node52 -->
<g id="Node000052" class="node">
<title>Node52</title>
<g id="a_Node000052"><a xlink:title=" ">
<polygon fill="#e0e0e0" stroke="#999999" points="1093.21,-261 963.21,-261 963.21,-242 1093.21,-242 1093.21,-261"/>
<text text-anchor="middle" x="1028.21" y="-249" font-family="Helvetica,sans-Serif" font-size="10.00">get_vtxbufs_declares.h</text>
</a>
</g>
</g>
<!-- Node2&#45;&gt;Node52 -->
<g id="edge53_Node000002_Node000052" class="edge">
<title>Node2&#45;&gt;Node52</title>
<g id="a_edge53_Node000002_Node000052"><a xlink:title=" ">
<path fill="none" stroke="#63b8ff" d="M666.5,-298.68C669.78,-298.08 673.05,-297.51 676.21,-297 727.83,-288.65 865.8,-271.8 952.88,-261.4"/>
<polygon fill="#63b8ff" stroke="#63b8ff" points="953.46,-264.86 962.98,-260.2 952.63,-257.91 953.46,-264.86"/>
</a>
</g>
</g>
<!-- Node53 -->
<g id="Node000053" class="node">
<title>Node53</title>
<g id="a_Node000053"><a xlink:href="astaroth__runtime__compilation_8h.html" target="_top" xlink:title=" ">
<polygon fill="white" stroke="#666666" points="1284.71,-261 1111.71,-261 1111.71,-242 1284.71,-242 1284.71,-261"/>
<text text-anchor="middle" x="1198.21" y="-249" font-family="Helvetica,sans-Serif" font-size="10.00">astaroth_runtime_compilation.h</text>
</a>
</g>
</g>
<!-- Node2&#45;&gt;Node53 -->
<g id="edge54_Node000002_Node000053" class="edge">
<title>Node2&#45;&gt;Node53</title>
<g id="a_edge54_Node000002_Node000053"><a xlink:title=" ">
<path fill="none" stroke="#63b8ff" d="M666.48,-298.54C669.76,-297.97 673.04,-297.45 676.21,-297 861.15,-270.99 911.21,-277.15 1101.54,-261.05"/>
<polygon fill="#63b8ff" stroke="#63b8ff" points="1101.94,-264.52 1111.6,-260.18 1101.34,-257.55 1101.94,-264.52"/>
</a>
</g>
</g>
<!-- Node54 -->
<g id="Node000054" class="node">
<title>Node54</title>
<g id="a_Node000054"><a xlink:title=" ">
<polygon fill="#e0e0e0" stroke="#999999" points="1355.71,-261 1302.71,-261 1302.71,-242 1355.71,-242 1355.71,-261"/>
<text text-anchor="middle" x="1329.21" y="-249" font-family="Helvetica,sans-Serif" font-size="10.00">string.h</text>
</a>
</g>
</g>
<!-- Node2&#45;&gt;Node54 -->
<g id="edge55_Node000002_Node000054" class="edge">
<title>Node2&#45;&gt;Node54</title>
<g id="a_edge55_Node000002_Node000054"><a xlink:title=" ">
<path fill="none" stroke="#63b8ff" d="M666.47,-298.46C669.75,-297.9 673.04,-297.4 676.21,-297 945.8,-262.67 1020.28,-300.68 1292.37,-261"/>
<polygon fill="#63b8ff" stroke="#63b8ff" points="1293.17,-264.42 1302.55,-259.5 1292.15,-257.5 1293.17,-264.42"/>
</a>
</g>
</g>
<!-- Node4 -->
<g id="Node000004" class="node">
<title>Node4</title>
<g id="a_Node000004"><a xlink:title=" ">
<polygon fill="#e0e0e0" stroke="#999999" points="2758.21,-74 2696.21,-74 2696.21,-55 2758.21,-55 2758.21,-74"/>
<text text-anchor="middle" x="2727.21" y="-62" font-family="Helvetica,sans-Serif" font-size="10.00">stdbool.h</text>
</a>
</g>
</g>
<!-- Node3&#45;&gt;Node4 -->
<g id="edge3_Node000003_Node000004" class="edge">
<title>Node3&#45;&gt;Node4</title>
<g id="a_edge3_Node000003_Node000004"><a xlink:title=" ">
<path fill="none" stroke="#63b8ff" d="M1468.95,-249.77C1691.39,-245.95 2619.23,-224.98 2713.21,-140 2728.5,-126.17 2730.32,-101.36 2729.43,-84.2"/>
<polygon fill="#63b8ff" stroke="#63b8ff" points="2732.91,-83.87 2728.56,-74.21 2725.94,-84.47 2732.91,-83.87"/>
</a>
</g>
</g>
<!-- Node5 -->
<g id="Node000005" class="node">
<title>Node5</title>
<g id="a_Node000005"><a xlink:href="acc__runtime_8h.html" target="_top" xlink:title=" ">
<polygon fill="white" stroke="#666666" points="1464.21,-200.5 1378.21,-200.5 1378.21,-181.5 1464.21,-181.5 1464.21,-200.5"/>
<text text-anchor="middle" x="1421.21" y="-188.5" font-family="Helvetica,sans-Serif" font-size="10.00">acc_runtime.h</text>
</a>
</g>
</g>
<!-- Node3&#45;&gt;Node5 -->
<g id="edge4_Node000003_Node000005" class="edge">
<title>Node3&#45;&gt;Node5</title>
<g id="a_edge4_Node000003_Node000005"><a xlink:title=" ">
<path fill="none" stroke="#63b8ff" d="M1421.21,-241.87C1421.21,-233.75 1421.21,-221.31 1421.21,-210.89"/>
<polygon fill="#63b8ff" stroke="#63b8ff" points="1424.71,-210.67 1421.21,-200.67 1417.71,-210.67 1424.71,-210.67"/>
</a>
</g>
</g>
<!-- Node25 -->
<g id="Node000025" class="node">
<title>Node25</title>
<g id="a_Node000025"><a xlink:title=" ">
<polygon fill="#e0e0e0" stroke="#999999" points="359.71,-134.5 220.71,-134.5 220.71,-115.5 359.71,-115.5 359.71,-134.5"/>
<text text-anchor="middle" x="290.21" y="-122.5" font-family="Helvetica,sans-Serif" font-size="10.00">user_built&#45;in_constants.h</text>
</a>
</g>
</g>
<!-- Node3&#45;&gt;Node25 -->
<g id="edge42_Node000003_Node000025" class="edge">
<title>Node3&#45;&gt;Node25</title>
<g id="a_edge42_Node000003_Node000025"><a xlink:title=" ">
<path fill="none" stroke="#63b8ff" d="M1411.19,-241.91C1388.74,-222.71 1335.97,-177.82 1331.21,-176 1231.79,-138.06 480.07,-150.77 374.21,-140 364.71,-139.03 354.66,-137.66 344.94,-136.16"/>
<polygon fill="#63b8ff" stroke="#63b8ff" points="345.4,-132.69 334.97,-134.55 344.28,-139.6 345.4,-132.69"/>
</a>
</g>
</g>
<!-- Node42 -->
<g id="Node000042" class="node">
<title>Node42</title>
<g id="a_Node000042"><a xlink:title=" ">
<polygon fill="#e0e0e0" stroke="#999999" points="1321.71,-206 1190.71,-206 1190.71,-176 1321.71,-176 1321.71,-206"/>
<text text-anchor="start" x="1198.71" y="-194" font-family="Helvetica,sans-Serif" font-size="10.00">user_builtin_non_scalar</text>
<text text-anchor="middle" x="1256.21" y="-183" font-family="Helvetica,sans-Serif" font-size="10.00">_constants.h</text>
</a>
</g>
</g>
<!-- Node3&#45;&gt;Node42 -->
<g id="edge43_Node000003_Node000042" class="edge">
<title>Node3&#45;&gt;Node42</title>
<g id="a_edge43_Node000003_Node000042"><a xlink:title=" ">
<path fill="none" stroke="#63b8ff" d="M1397.22,-241.99C1373.26,-233.5 1335.75,-220.2 1305.44,-209.45"/>
<polygon fill="#63b8ff" stroke="#63b8ff" points="1306.47,-206.11 1295.88,-206.06 1304.13,-212.7 1306.47,-206.11"/>
</a>
</g>
</g>
<!-- Node5&#45;&gt;Node4 -->
<g id="edge6_Node000005_Node000004" class="edge">
<title>Node5&#45;&gt;Node4</title>
<g id="a_edge6_Node000005_Node000004"><a xlink:title=" ">
<path fill="none" stroke="#63b8ff" d="M1464.23,-189.49C1679.8,-186.81 2634.29,-173.09 2687.21,-140 2707,-127.63 2717.64,-101.88 2722.86,-84.15"/>
<polygon fill="#63b8ff" stroke="#63b8ff" points="2726.28,-84.9 2725.44,-74.34 2719.51,-83.12 2726.28,-84.9"/>
</a>
</g>
</g>
<!-- Node6 -->
<g id="Node000006" class="node">
<title>Node6</title>
<g id="a_Node000006"><a xlink:title=" ">
<polygon fill="#e0e0e0" stroke="#999999" points="1719.21,-74 1669.21,-74 1669.21,-55 1719.21,-55 1719.21,-74"/>
<text text-anchor="middle" x="1694.21" y="-62" font-family="Helvetica,sans-Serif" font-size="10.00">stdio.h</text>
</a>
</g>
</g>
<!-- Node5&#45;&gt;Node6 -->
<g id="edge5_Node000005_Node000006" class="edge">
<title>Node5&#45;&gt;Node6</title>
<g id="a_edge5_Node000005_Node000006"><a xlink:title=" ">
<path fill="none" stroke="#63b8ff" d="M1464.37,-189.93C1679.54,-189.37 2627.57,-184.38 2670.21,-140 2679.45,-130.39 2679.42,-119.64 2670.21,-110 2637.08,-75.33 1900.82,-67.19 1729.57,-65.76"/>
<polygon fill="#63b8ff" stroke="#63b8ff" points="1729.37,-62.26 1719.35,-65.68 1729.32,-69.26 1729.37,-62.26"/>
</a>
</g>
</g>
<!-- Node7 -->
<g id="Node000007" class="node">
<title>Node7</title>
<g id="a_Node000007"><a xlink:href="device__headers_8h.html" target="_top" xlink:title=" ">
<polygon fill="white" stroke="#666666" points="735.21,-74 633.21,-74 633.21,-55 735.21,-55 735.21,-74"/>
<text text-anchor="middle" x="684.21" y="-62" font-family="Helvetica,sans-Serif" font-size="10.00">device_headers.h</text>
</a>
</g>
</g>
<!-- Node5&#45;&gt;Node7 -->
<g id="edge7_Node000005_Node000007" class="edge">
<title>Node5&#45;&gt;Node7</title>
<g id="a_edge7_Node000005_Node000007"><a xlink:title=" ">
<path fill="none" stroke="#63b8ff" d="M1391.25,-181.47C1382.59,-179.32 1373.08,-177.27 1364.21,-176 1318.68,-169.48 569.01,-173.22 537.21,-140 505.89,-107.29 569.51,-86.54 622.63,-75.48"/>
<polygon fill="#63b8ff" stroke="#63b8ff" points="623.62,-78.85 632.74,-73.46 622.25,-71.98 623.62,-78.85"/>
</a>
</g>
</g>
<!-- Node10 -->
<g id="Node000010" class="node">
<title>Node10</title>
<g id="a_Node000010"><a xlink:title=" ">
<polygon fill="#e0e0e0" stroke="#999999" points="261.71,-74 166.71,-74 166.71,-55 261.71,-55 261.71,-74"/>
<text text-anchor="middle" x="214.21" y="-62" font-family="Helvetica,sans-Serif" font-size="10.00">builtin_enums.h</text>
</a>
</g>
</g>
<!-- Node5&#45;&gt;Node10 -->
<g id="edge10_Node000005_Node000010" class="edge">
<title>Node5&#45;&gt;Node10</title>
<g id="a_edge10_Node000005_Node000010"><a xlink:title=" ">
<path fill="none" stroke="#63b8ff" d="M1390.72,-181.44C1381.91,-179.29 1372.24,-177.25 1363.21,-176 1257.91,-161.46 506.95,-176.75 407.21,-140 387.02,-132.56 388.35,-119.82 369.21,-110 338.55,-94.27 301.54,-83.38 271.37,-76.31"/>
<polygon fill="#63b8ff" stroke="#63b8ff" points="271.95,-72.85 261.42,-74.06 270.4,-79.68 271.95,-72.85"/>
</a>
</g>
</g>
<!-- Node11 -->
<g id="Node000011" class="node">
<title>Node11</title>
<g id="a_Node000011"><a xlink:href="datatypes_8h.html" target="_top" xlink:title=" ">
<polygon fill="#fff0f0" stroke="red" points="490.21,-134.5 416.21,-134.5 416.21,-115.5 490.21,-115.5 490.21,-134.5"/>
<text text-anchor="middle" x="453.21" y="-122.5" font-family="Helvetica,sans-Serif" font-size="10.00">datatypes.h</text>
</a>
</g>
</g>
<!-- Node5&#45;&gt;Node11 -->
<g id="edge11_Node000005_Node000011" class="edge">
<title>Node5&#45;&gt;Node11</title>
<g id="a_edge11_Node000005_Node000011"><a xlink:title=" ">
<path fill="none" stroke="#63b8ff" d="M1391.25,-181.46C1382.59,-179.31 1373.09,-177.26 1364.21,-176 985.47,-122.11 882.19,-199.01 504.21,-140 499.47,-139.26 494.54,-138.24 489.69,-137.08"/>
<polygon fill="#63b8ff" stroke="#63b8ff" points="490.52,-133.68 479.96,-134.56 488.76,-140.46 490.52,-133.68"/>
</a>
</g>
</g>
<!-- Node19 -->
<g id="Node000019" class="node">
<title>Node19</title>
<g id="a_Node000019"><a xlink:href="errchk_8h.html" target="_top" xlink:title="Brief info.">
<polygon fill="#fff0f0" stroke="red" points="602.21,-134.5 546.21,-134.5 546.21,-115.5 602.21,-115.5 602.21,-134.5"/>
<text text-anchor="middle" x="574.21" y="-122.5" font-family="Helvetica,sans-Serif" font-size="10.00">errchk.h</text>
</a>
</g>
</g>
<!-- Node5&#45;&gt;Node19 -->
<g id="edge19_Node000005_Node000019" class="edge">
<title>Node5&#45;&gt;Node19</title>
<g id="a_edge19_Node000005_Node000019"><a xlink:title=" ">
<path fill="none" stroke="#63b8ff" d="M1391.25,-181.49C1382.59,-179.35 1373.08,-177.29 1364.21,-176 1033.08,-127.87 940.12,-206.61 612.21,-140 609.37,-139.42 606.45,-138.67 603.57,-137.81"/>
<polygon fill="#63b8ff" stroke="#63b8ff" points="604.58,-134.46 593.99,-134.58 602.35,-141.09 604.58,-134.46"/>
</a>
</g>
</g>
<!-- Node23 -->
<g id="Node000023" class="node">
<title>Node23</title>
<g id="a_Node000023"><a xlink:title=" ">
<polygon fill="#e0e0e0" stroke="#999999" points="707.71,-134.5 620.71,-134.5 620.71,-115.5 707.71,-115.5 707.71,-134.5"/>
<text text-anchor="middle" x="664.21" y="-122.5" font-family="Helvetica,sans-Serif" font-size="10.00">user_defines.h</text>
</a>
</g>
</g>
<!-- Node5&#45;&gt;Node23 -->
<g id="edge23_Node000005_Node000023" class="edge">
<title>Node5&#45;&gt;Node23</title>
<g id="a_edge23_Node000005_Node000023"><a xlink:title=" ">
<path fill="none" stroke="#63b8ff" d="M1390.95,-181.46C1382.37,-179.35 1372.98,-177.31 1364.21,-176 1079.36,-133.47 1001.67,-185.01 717.21,-140 712.35,-139.23 707.3,-138.2 702.32,-137.05"/>
<polygon fill="#63b8ff" stroke="#63b8ff" points="702.86,-133.58 692.31,-134.56 701.17,-140.37 702.86,-133.58"/>
</a>
</g>
</g>
<!-- Node24 -->
<g id="Node000024" class="node">
<title>Node24</title>
<g id="a_Node000024"><a xlink:title=" ">
<polygon fill="#e0e0e0" stroke="#999999" points="812.21,-134.5 726.21,-134.5 726.21,-115.5 812.21,-115.5 812.21,-134.5"/>
<text text-anchor="middle" x="769.21" y="-122.5" font-family="Helvetica,sans-Serif" font-size="10.00">profiles_info.h</text>
</a>
</g>
</g>
<!-- Node5&#45;&gt;Node24 -->
<g id="edge24_Node000005_Node000024" class="edge">
<title>Node5&#45;&gt;Node24</title>
<g id="a_edge24_Node000005_Node000024"><a xlink:title=" ">
<path fill="none" stroke="#63b8ff" d="M1390.64,-181.45C1382.14,-179.36 1372.87,-177.34 1364.21,-176 1125.63,-139.07 1060.45,-179.01 822.21,-140 817.41,-139.21 812.42,-138.19 807.5,-137.04"/>
<polygon fill="#63b8ff" stroke="#63b8ff" points="808.15,-133.6 797.6,-134.57 806.45,-140.39 808.15,-133.6"/>
</a>
</g>
</g>
<!-- Node5&#45;&gt;Node25 -->
<g id="edge25_Node000005_Node000025" class="edge">
<title>Node5&#45;&gt;Node25</title>
<g id="a_edge25_Node000005_Node000025"><a xlink:title=" ">
<path fill="none" stroke="#63b8ff" d="M1391.55,-181.5C1382.82,-179.33 1373.19,-177.25 1364.21,-176 928.14,-115.17 812.27,-184.28 374.21,-140 364.71,-139.04 354.66,-137.67 344.94,-136.17"/>
<polygon fill="#63b8ff" stroke="#63b8ff" points="345.4,-132.7 334.97,-134.56 344.28,-139.61 345.4,-132.7"/>
</a>
</g>
</g>
<!-- Node26 -->
<g id="Node000026" class="node">
<title>Node26</title>
<g id="a_Node000026"><a xlink:href="func__attributes_8h.html" target="_top" xlink:title=" ">
<polygon fill="white" stroke="#666666" points="929.71,-134.5 830.71,-134.5 830.71,-115.5 929.71,-115.5 929.71,-134.5"/>
<text text-anchor="middle" x="880.21" y="-122.5" font-family="Helvetica,sans-Serif" font-size="10.00">func_attributes.h</text>
</a>
</g>
</g>
<!-- Node5&#45;&gt;Node26 -->
<g id="edge26_Node000005_Node000026" class="edge">
<title>Node5&#45;&gt;Node26</title>
<g id="a_edge26_Node000005_Node000026"><a xlink:title=" ">
<path fill="none" stroke="#63b8ff" d="M1390.33,-181.48C1381.91,-179.42 1372.75,-177.4 1364.21,-176 1177.14,-145.3 1126.39,-169.97 939.21,-140 933.69,-139.12 927.91,-138 922.23,-136.78"/>
<polygon fill="#63b8ff" stroke="#63b8ff" points="922.71,-133.3 912.19,-134.5 921.17,-140.12 922.71,-133.3"/>
</a>
</g>
</g>
<!-- Node27 -->
<g id="Node000027" class="node">
<title>Node27</title>
<g id="a_Node000027"><a xlink:title=" ">
<polygon fill="#e0e0e0" stroke="#999999" points="1072.71,-134.5 947.71,-134.5 947.71,-115.5 1072.71,-115.5 1072.71,-134.5"/>
<text text-anchor="middle" x="1010.21" y="-122.5" font-family="Helvetica,sans-Serif" font-size="10.00">user_input_typedefs.h</text>
</a>
</g>
</g>
<!-- Node5&#45;&gt;Node27 -->
<g id="edge27_Node000005_Node000027" class="edge">
<title>Node5&#45;&gt;Node27</title>
<g id="a_edge27_Node000005_Node000027"><a xlink:title=" ">
<path fill="none" stroke="#63b8ff" d="M1389.09,-181.43C1381.01,-179.47 1372.32,-177.51 1364.21,-176 1239.99,-152.89 1206.95,-160.07 1082.21,-140 1075.53,-138.93 1068.53,-137.7 1061.63,-136.42"/>
<polygon fill="#63b8ff" stroke="#63b8ff" points="1062.1,-132.95 1051.63,-134.53 1060.8,-139.83 1062.1,-132.95"/>
</a>
</g>
</g>
<!-- Node28 -->
<g id="Node000028" class="node">
<title>Node28</title>
<g id="a_Node000028"><a xlink:title=" ">
<polygon fill="#e0e0e0" stroke="#999999" points="1173.71,-134.5 1090.71,-134.5 1090.71,-115.5 1173.71,-115.5 1173.71,-134.5"/>
<text text-anchor="middle" x="1132.21" y="-122.5" font-family="Helvetica,sans-Serif" font-size="10.00">output_decl.h</text>
</a>
</g>
</g>
<!-- Node5&#45;&gt;Node28 -->
<g id="edge28_Node000005_Node000028" class="edge">
<title>Node5&#45;&gt;Node28</title>
<g id="a_edge28_Node000005_Node000028"><a xlink:title=" ">
<path fill="none" stroke="#63b8ff" d="M1387.51,-181.46C1379.86,-179.6 1371.77,-177.68 1364.21,-176 1284.14,-158.21 1263.03,-158.87 1183.21,-140 1179.4,-139.1 1175.44,-138.11 1171.49,-137.09"/>
<polygon fill="#63b8ff" stroke="#63b8ff" points="1172.34,-133.69 1161.78,-134.5 1170.54,-140.46 1172.34,-133.69"/>
</a>
</g>
</g>
<!-- Node29 -->
<g id="Node000029" class="node">
<title>Node29</title>
<g id="a_Node000029"><a xlink:title=" ">
<polygon fill="#e0e0e0" stroke="#999999" points="1308.21,-134.5 1192.21,-134.5 1192.21,-115.5 1308.21,-115.5 1308.21,-134.5"/>
<text text-anchor="middle" x="1250.21" y="-122.5" font-family="Helvetica,sans-Serif" font-size="10.00">comp_loaded_decl.h</text>
</a>
</g>
</g>
<!-- Node5&#45;&gt;Node29 -->
<g id="edge29_Node000005_Node000029" class="edge">
<title>Node5&#45;&gt;Node29</title>
<g id="a_edge29_Node000005_Node000029"><a xlink:title=" ">
<path fill="none" stroke="#63b8ff" d="M1398.15,-181.37C1368.36,-170.22 1316.34,-150.75 1282.6,-138.12"/>
<polygon fill="#63b8ff" stroke="#63b8ff" points="1283.77,-134.82 1273.18,-134.6 1281.32,-141.38 1283.77,-134.82"/>
</a>
</g>
</g>
<!-- Node30 -->
<g id="Node000030" class="node">
<title>Node30</title>
<g id="a_Node000030"><a xlink:title=" ">
<polygon fill="#e0e0e0" stroke="#999999" points="1404.21,-134.5 1326.21,-134.5 1326.21,-115.5 1404.21,-115.5 1404.21,-134.5"/>
<text text-anchor="middle" x="1365.21" y="-122.5" font-family="Helvetica,sans-Serif" font-size="10.00">comp_decl.h</text>
</a>
</g>
</g>
<!-- Node5&#45;&gt;Node30 -->
<g id="edge30_Node000005_Node000030" class="edge">
<title>Node5&#45;&gt;Node30</title>
<g id="a_edge30_Node000005_Node000030"><a xlink:title=" ">
<path fill="none" stroke="#63b8ff" d="M1413.66,-181.37C1405.02,-171.5 1390.68,-155.11 1379.83,-142.72"/>
<polygon fill="#63b8ff" stroke="#63b8ff" points="1382.22,-140.13 1373,-134.91 1376.95,-144.74 1382.22,-140.13"/>
</a>
</g>
</g>
<!-- Node31 -->
<g id="Node000031" class="node">
<title>Node31</title>
<g id="a_Node000031"><a xlink:title=" ">
<polygon fill="#e0e0e0" stroke="#999999" points="1530.21,-134.5 1422.21,-134.5 1422.21,-115.5 1530.21,-115.5 1530.21,-134.5"/>
<text text-anchor="middle" x="1476.21" y="-122.5" font-family="Helvetica,sans-Serif" font-size="10.00">info_loaded_decl.h</text>
</a>
</g>
</g>
<!-- Node5&#45;&gt;Node31 -->
<g id="edge31_Node000005_Node000031" class="edge">
<title>Node5&#45;&gt;Node31</title>
<g id="a_edge31_Node000005_Node000031"><a xlink:title=" ">
<path fill="none" stroke="#63b8ff" d="M1428.63,-181.37C1437.11,-171.5 1451.19,-155.11 1461.84,-142.72"/>
<polygon fill="#63b8ff" stroke="#63b8ff" points="1464.69,-144.77 1468.55,-134.91 1459.38,-140.21 1464.69,-144.77"/>
</a>
</g>
</g>
<!-- Node32 -->
<g id="Node000032" class="node">
<title>Node32</title>
<g id="a_Node000032"><a xlink:title=" ">
<polygon fill="#e0e0e0" stroke="#999999" points="1688.21,-134.5 1548.21,-134.5 1548.21,-115.5 1688.21,-115.5 1688.21,-134.5"/>
<text text-anchor="middle" x="1618.21" y="-122.5" font-family="Helvetica,sans-Serif" font-size="10.00">device_mesh_info_decl.h</text>
</a>
</g>
</g>
<!-- Node5&#45;&gt;Node32 -->
<g id="edge32_Node000005_Node000032" class="edge">
<title>Node5&#45;&gt;Node32</title>
<g id="a_edge32_Node000005_Node000032"><a xlink:title=" ">
<path fill="none" stroke="#63b8ff" d="M1447.78,-181.37C1482.39,-170.12 1543.05,-150.42 1581.89,-137.8"/>
<polygon fill="#63b8ff" stroke="#63b8ff" points="1583.32,-141.02 1591.75,-134.6 1581.15,-134.36 1583.32,-141.02"/>
</a>
</g>
</g>
<!-- Node33 -->
<g id="Node000033" class="node">
<title>Node33</title>
<g id="a_Node000033"><a xlink:title=" ">
<polygon fill="#e0e0e0" stroke="#999999" points="1783.71,-134.5 1706.71,-134.5 1706.71,-115.5 1783.71,-115.5 1783.71,-134.5"/>
<text text-anchor="middle" x="1745.21" y="-122.5" font-family="Helvetica,sans-Serif" font-size="10.00">array_decl.h</text>
</a>
</g>
</g>
<!-- Node5&#45;&gt;Node33 -->
<g id="edge33_Node000005_Node000033" class="edge">
<title>Node5&#45;&gt;Node33</title>
<g id="a_edge33_Node000005_Node000033"><a xlink:title=" ">
<path fill="none" stroke="#63b8ff" d="M1464.52,-183.59C1519.12,-175.18 1615.68,-159.22 1697.21,-140 1700.65,-139.19 1704.21,-138.28 1707.77,-137.33"/>
<polygon fill="#63b8ff" stroke="#63b8ff" points="1708.98,-140.62 1717.67,-134.57 1707.1,-133.88 1708.98,-140.62"/>
</a>
</g>
</g>
<!-- Node34 -->
<g id="Node000034" class="node">
<title>Node34</title>
<g id="a_Node000034"><a xlink:title=" ">
<polygon fill="#e0e0e0" stroke="#999999" points="1878.21,-134.5 1802.21,-134.5 1802.21,-115.5 1878.21,-115.5 1878.21,-134.5"/>
<text text-anchor="middle" x="1840.21" y="-122.5" font-family="Helvetica,sans-Serif" font-size="10.00">input_decl.h</text>
</a>
</g>
</g>
<!-- Node5&#45;&gt;Node34 -->
<g id="edge34_Node000005_Node000034" class="edge">
<title>Node5&#45;&gt;Node34</title>
<g id="a_edge34_Node000005_Node000034"><a xlink:title=" ">
<path fill="none" stroke="#63b8ff" d="M1464.26,-186.41C1533.94,-180.11 1675.5,-165.28 1793.21,-140 1796.83,-139.22 1800.59,-138.3 1804.32,-137.31"/>
<polygon fill="#63b8ff" stroke="#63b8ff" points="1805.36,-140.65 1814.04,-134.58 1803.47,-133.92 1805.36,-140.65"/>
</a>
</g>
</g>
<!-- Node35 -->
<g id="Node000035" class="node">
<title>Node35</title>
<g id="a_Node000035"><a xlink:href="ac__helpers_8h.html" target="_top" xlink:title=" ">
<polygon fill="white" stroke="#666666" points="1974.21,-134.5 1896.21,-134.5 1896.21,-115.5 1974.21,-115.5 1974.21,-134.5"/>
<text text-anchor="middle" x="1935.21" y="-122.5" font-family="Helvetica,sans-Serif" font-size="10.00">ac_helpers.h</text>
</a>
</g>
</g>
<!-- Node5&#45;&gt;Node35 -->
<g id="edge35_Node000005_Node000035" class="edge">
<title>Node5&#45;&gt;Node35</title>
<g id="a_edge35_Node000005_Node000035"><a xlink:title=" ">
<path fill="none" stroke="#63b8ff" d="M1464.31,-187.93C1547.01,-183.39 1733.36,-170.44 1887.21,-140 1891.12,-139.23 1895.17,-138.28 1899.19,-137.25"/>
<polygon fill="#63b8ff" stroke="#63b8ff" points="1900.29,-140.57 1909.01,-134.55 1898.44,-133.82 1900.29,-140.57"/>
</a>
</g>
</g>
<!-- Node36 -->
<g id="Node000036" class="node">
<title>Node36</title>
<g id="a_Node000036"><a xlink:title=" ">
<polygon fill="#e0e0e0" stroke="#999999" points="2110.21,-140 1992.21,-140 1992.21,-110 2110.21,-110 2110.21,-140"/>
<text text-anchor="start" x="2000.21" y="-128" font-family="Helvetica,sans-Serif" font-size="10.00">scalar_reduce_buffer</text>
<text text-anchor="middle" x="2051.21" y="-117" font-family="Helvetica,sans-Serif" font-size="10.00">_defs.h</text>
</a>
</g>
</g>
<!-- Node5&#45;&gt;Node36 -->
<g id="edge36_Node000005_Node000036" class="edge">
<title>Node5&#45;&gt;Node36</title>
<g id="a_edge36_Node000005_Node000036"><a xlink:title=" ">
<path fill="none" stroke="#63b8ff" d="M1464.41,-187.84C1557.33,-182.84 1783.17,-168.74 1981.9,-140.08"/>
<polygon fill="#63b8ff" stroke="#63b8ff" points="1982.55,-143.52 1991.94,-138.62 1981.54,-136.6 1982.55,-143.52"/>
</a>
</g>
</g>
<!-- Node37 -->
<g id="Node000037" class="node">
<title>Node37</title>
<g id="a_Node000037"><a xlink:title=" ">
<polygon fill="#e0e0e0" stroke="#999999" points="2251.71,-140 2128.71,-140 2128.71,-110 2251.71,-110 2251.71,-140"/>
<text text-anchor="start" x="2136.71" y="-128" font-family="Helvetica,sans-Serif" font-size="10.00">scalar_reduce_buffers</text>
<text text-anchor="middle" x="2190.21" y="-117" font-family="Helvetica,sans-Serif" font-size="10.00">_in_vba.h</text>
</a>
</g>
</g>
<!-- Node5&#45;&gt;Node37 -->
<g id="edge37_Node000005_Node000037" class="edge">
<title>Node5&#45;&gt;Node37</title>
<g id="a_edge37_Node000005_Node000037"><a xlink:title=" ">
<path fill="none" stroke="#63b8ff" d="M1464.29,-188.76C1572.54,-185.25 1864.81,-173.33 2118.19,-140.01"/>
<polygon fill="#63b8ff" stroke="#63b8ff" points="2118.87,-143.45 2128.33,-138.67 2117.95,-136.52 2118.87,-143.45"/>
</a>
</g>
</g>
<!-- Node5&#45;&gt;Node38 -->
<g id="edge38_Node000005_Node000038" class="edge">
<title>Node5&#45;&gt;Node38</title>
<g id="a_edge38_Node000005_Node000038"><a xlink:title=" ">
<path fill="none" stroke="#63b8ff" d="M1377.85,-182.16C1363.1,-179.78 1346.48,-177.43 1331.21,-176 835.34,-129.64 707.78,-178.13 211.21,-140 195.42,-138.79 178.46,-137 162.54,-135.1"/>
<polygon fill="#63b8ff" stroke="#63b8ff" points="162.61,-131.58 152.26,-133.84 161.76,-138.53 162.61,-131.58"/>
</a>
</g>
</g>
<!-- Node39 -->
<g id="Node000039" class="node">
<title>Node39</title>
<g id="a_Node000039"><a xlink:href="common__kernels_8h.html" target="_top" xlink:title=" ">
<polygon fill="white" stroke="#666666" points="2378.71,-134.5 2269.71,-134.5 2269.71,-115.5 2378.71,-115.5 2378.71,-134.5"/>
<text text-anchor="middle" x="2324.21" y="-122.5" font-family="Helvetica,sans-Serif" font-size="10.00">common_kernels.h</text>
</a>
</g>
</g>
<!-- Node5&#45;&gt;Node39 -->
<g id="edge39_Node000005_Node000039" class="edge">
<title>Node5&#45;&gt;Node39</title>
<g id="a_edge39_Node000005_Node000039"><a xlink:title=" ">
<path fill="none" stroke="#63b8ff" d="M1464.28,-189.85C1588.54,-188.9 1958.1,-182.42 2261.21,-140 2267.47,-139.12 2274.03,-137.95 2280.46,-136.66"/>
<polygon fill="#63b8ff" stroke="#63b8ff" points="2281.33,-140.05 2290.38,-134.55 2279.88,-133.21 2281.33,-140.05"/>
</a>
</g>
</g>
<!-- Node40 -->
<g id="Node000040" class="node">
<title>Node40</title>
<g id="a_Node000040"><a xlink:title=" ">
<polygon fill="#e0e0e0" stroke="#999999" points="2509.21,-134.5 2397.21,-134.5 2397.21,-115.5 2509.21,-115.5 2509.21,-134.5"/>
<text text-anchor="middle" x="2453.21" y="-122.5" font-family="Helvetica,sans-Serif" font-size="10.00">user_declarations.h</text>
</a>
</g>
</g>
<!-- Node5&#45;&gt;Node40 -->
<g id="edge40_Node000005_Node000040" class="edge">
<title>Node5&#45;&gt;Node40</title>
<g id="a_edge40_Node000005_Node000040"><a xlink:title=" ">
<path fill="none" stroke="#63b8ff" d="M1464.32,-190.23C1600.55,-190.43 2033.67,-187.04 2388.21,-140 2394.9,-139.11 2401.92,-137.9 2408.78,-136.56"/>
<polygon fill="#63b8ff" stroke="#63b8ff" points="2409.56,-139.97 2418.64,-134.52 2408.14,-133.12 2409.56,-139.97"/>
</a>
</g>
</g>
<!-- Node41 -->
<g id="Node000041" class="node">
<title>Node41</title>
<g id="a_Node000041"><a xlink:title=" ">
<polygon fill="#e0e0e0" stroke="#999999" points="2661.21,-140 2527.21,-140 2527.21,-110 2661.21,-110 2661.21,-140"/>
<text text-anchor="start" x="2535.21" y="-128" font-family="Helvetica,sans-Serif" font-size="10.00">load_and_store_uniform</text>
<text text-anchor="middle" x="2594.21" y="-117" font-family="Helvetica,sans-Serif" font-size="10.00">_header.h</text>
</a>
</g>
</g>
<!-- Node5&#45;&gt;Node41 -->
<g id="edge41_Node000005_Node000041" class="edge">
<title>Node5&#45;&gt;Node41</title>
<g id="a_edge41_Node000005_Node000041"><a xlink:title=" ">
<path fill="none" stroke="#63b8ff" d="M1464.24,-190.15C1610.51,-190.2 2102.01,-186.73 2517.05,-140.01"/>
<polygon fill="#63b8ff" stroke="#63b8ff" points="2517.6,-143.47 2527.15,-138.87 2516.81,-136.52 2517.6,-143.47"/>
</a>
</g>
</g>
<!-- Node8 -->
<g id="Node000008" class="node">
<title>Node8</title>
<g id="a_Node000008"><a xlink:title=" ">
<polygon fill="#e0e0e0" stroke="#999999" points="487.71,-19 374.71,-19 374.71,0 487.71,0 487.71,-19"/>
<text text-anchor="middle" x="431.21" y="-7" font-family="Helvetica,sans-Serif" font-size="10.00">cuda_runtime_api.h</text>
</a>
</g>
</g>
<!-- Node7&#45;&gt;Node8 -->
<g id="edge8_Node000007_Node000008" class="edge">
<title>Node7&#45;&gt;Node8</title>
<g id="a_edge8_Node000007_Node000008"><a xlink:title=" ">
<path fill="none" stroke="#63b8ff" d="M643.56,-54.98C599.7,-45.8 529.78,-31.15 482.26,-21.19"/>
<polygon fill="#63b8ff" stroke="#63b8ff" points="482.68,-17.71 472.17,-19.08 481.24,-24.56 482.68,-17.71"/>
</a>
</g>
</g>
<!-- Node9 -->
<g id="Node000009" class="node">
<title>Node9</title>
<g id="a_Node000009"><a xlink:title=" ">
<polygon fill="#e0e0e0" stroke="#999999" points="722.21,-19 646.21,-19 646.21,0 722.21,0 722.21,-19"/>
<text text-anchor="middle" x="684.21" y="-7" font-family="Helvetica,sans-Serif" font-size="10.00">cuda_fp16.h</text>
</a>
</g>
</g>
<!-- Node7&#45;&gt;Node9 -->
<g id="edge9_Node000007_Node000009" class="edge">
<title>Node7&#45;&gt;Node9</title>
<g id="a_edge9_Node000007_Node000009"><a xlink:title=" ">
<path fill="none" stroke="#63b8ff" d="M684.21,-54.75C684.21,-47.8 684.21,-37.85 684.21,-29.13"/>
<polygon fill="#63b8ff" stroke="#63b8ff" points="687.71,-29.09 684.21,-19.09 680.71,-29.09 687.71,-29.09"/>
</a>
</g>
</g>
<!-- Node11&#45;&gt;Node7 -->
<g id="edge14_Node000011_Node000007" class="edge">
<title>Node11&#45;&gt;Node7</title>
<g id="a_edge14_Node000011_Node000007"><a xlink:title=" ">
<path fill="none" stroke="#63b8ff" d="M483.92,-115.43C490.6,-113.61 497.63,-111.71 504.21,-110 549.9,-98.08 602.34,-85.21 638.78,-76.39"/>
<polygon fill="#63b8ff" stroke="#63b8ff" points="639.72,-79.76 648.62,-74.01 638.08,-72.96 639.72,-79.76"/>
</a>
</g>
</g>
<!-- Node11&#45;&gt;Node8 -->
<g id="edge16_Node000011_Node000008" class="edge">
<title>Node11&#45;&gt;Node8</title>
<g id="a_edge16_Node000011_Node000008"><a xlink:title=" ">
<path fill="none" stroke="#63b8ff" d="M422.81,-115.48C382.61,-103.91 316.01,-83.57 309.21,-74 290.09,-47.12 327.13,-30.76 365.29,-21.39"/>
<polygon fill="#63b8ff" stroke="#63b8ff" points="366.55,-24.69 375.51,-19.04 364.98,-17.87 366.55,-24.69"/>
</a>
</g>
</g>
<!-- Node11&#45;&gt;Node10 -->
<g id="edge18_Node000011_Node000010" class="edge">
<title>Node11&#45;&gt;Node10</title>
<g id="a_edge18_Node000011_Node000010"><a xlink:title=" ">
<path fill="none" stroke="#63b8ff" d="M422.78,-115.46C416.02,-113.61 408.88,-111.7 402.21,-110 354.63,-97.84 299.98,-85.03 261.91,-76.3"/>
<polygon fill="#63b8ff" stroke="#63b8ff" points="262.64,-72.88 252.11,-74.06 261.08,-79.7 262.64,-72.88"/>
</a>
</g>
</g>
<!-- Node12 -->
<g id="Node000012" class="node">
<title>Node12</title>
<g id="a_Node000012"><a xlink:title=" ">
<polygon fill="#e0e0e0" stroke="#999999" points="365.71,-74 318.71,-74 318.71,-55 365.71,-55 365.71,-74"/>
<text text-anchor="middle" x="342.21" y="-62" font-family="Helvetica,sans-Serif" font-size="10.00">float.h</text>
</a>
</g>
</g>
<!-- Node11&#45;&gt;Node12 -->
<g id="edge12_Node000011_Node000012" class="edge">
<title>Node11&#45;&gt;Node12</title>
<g id="a_edge12_Node000011_Node000012"><a xlink:title=" ">
<path fill="none" stroke="#63b8ff" d="M436.83,-115.37C418.63,-105.78 389.01,-90.17 367.76,-78.97"/>
<polygon fill="#63b8ff" stroke="#63b8ff" points="369.13,-75.73 358.65,-74.17 365.87,-81.93 369.13,-75.73"/>
</a>
</g>
</g>
<!-- Node13 -->
<g id="Node000013" class="node">
<title>Node13</title>
<g id="a_Node000013"><a xlink:title=" ">
<polygon fill="#e0e0e0" stroke="#999999" points="434.71,-74 383.71,-74 383.71,-55 434.71,-55 434.71,-74"/>
<text text-anchor="middle" x="409.21" y="-62" font-family="Helvetica,sans-Serif" font-size="10.00">math.h</text>
</a>
</g>
</g>
<!-- Node11&#45;&gt;Node13 -->
<g id="edge13_Node000011_Node000013" class="edge">
<title>Node11&#45;&gt;Node13</title>
<g id="a_edge13_Node000011_Node000013"><a xlink:title=" ">
<path fill="none" stroke="#63b8ff" d="M446.72,-115.37C440.22,-106.73 430.04,-93.2 421.93,-82.42"/>
<polygon fill="#63b8ff" stroke="#63b8ff" points="424.53,-80.06 415.73,-74.17 418.94,-84.26 424.53,-80.06"/>
</a>
</g>
</g>
<!-- Node14 -->
<g id="Node000014" class="node">
<title>Node14</title>
<g id="a_Node000014"><a xlink:title=" ">
<polygon fill="#e0e0e0" stroke="#999999" points="541.71,-74 452.71,-74 452.71,-55 541.71,-55 541.71,-74"/>
<text text-anchor="middle" x="497.21" y="-62" font-family="Helvetica,sans-Serif" font-size="10.00">vector_types.h</text>
</a>
</g>
</g>
<!-- Node11&#45;&gt;Node14 -->
<g id="edge15_Node000011_Node000014" class="edge">
<title>Node11&#45;&gt;Node14</title>
<g id="a_edge15_Node000011_Node000014"><a xlink:title=" ">
<path fill="none" stroke="#63b8ff" d="M459.7,-115.37C466.2,-106.73 476.37,-93.2 484.48,-82.42"/>
<polygon fill="#63b8ff" stroke="#63b8ff" points="487.47,-84.26 490.69,-74.17 481.88,-80.06 487.47,-84.26"/>
</a>
</g>
</g>
<!-- Node15 -->
<g id="Node000015" class="node">
<title>Node15</title>
<g id="a_Node000015"><a xlink:href="acreal_8h.html" target="_top" xlink:title=" ">
<polygon fill="white" stroke="#666666" points="615.21,-74 559.21,-74 559.21,-55 615.21,-55 615.21,-74"/>
<text text-anchor="middle" x="587.21" y="-62" font-family="Helvetica,sans-Serif" font-size="10.00">acreal.h</text>
</a>
</g>
</g>
<!-- Node11&#45;&gt;Node15 -->
<g id="edge17_Node000011_Node000015" class="edge">
<title>Node11&#45;&gt;Node15</title>
<g id="a_edge17_Node000011_Node000015"><a xlink:title=" ">
<path fill="none" stroke="#63b8ff" d="M472.69,-115.49C495.22,-105.66 532.51,-89.38 558.39,-78.08"/>
<polygon fill="#63b8ff" stroke="#63b8ff" points="559.93,-81.23 567.7,-74.02 557.13,-74.81 559.93,-81.23"/>
</a>
</g>
</g>
<!-- Node19&#45;&gt;Node4 -->
<g id="edge20_Node000019_Node000004" class="edge">
<title>Node19&#45;&gt;Node4</title>
<g id="a_edge20_Node000019_Node000004"><a xlink:title=" ">
<path fill="none" stroke="#63b8ff" d="M593.58,-115.46C599.45,-113.26 605.99,-111.18 612.21,-110 717.81,-90.02 2399.1,-69.37 2685.79,-65.98"/>
<polygon fill="#63b8ff" stroke="#63b8ff" points="2686.2,-69.48 2696.15,-65.86 2686.11,-62.48 2686.2,-69.48"/>
</a>
</g>
</g>
<!-- Node19&#45;&gt;Node6 -->
<g id="edge21_Node000019_Node000006" class="edge">
<title>Node19&#45;&gt;Node6</title>
<g id="a_edge21_Node000019_Node000006"><a xlink:title=" ">
<path fill="none" stroke="#63b8ff" d="M593.98,-115.39C599.75,-113.24 606.14,-111.21 612.21,-110 819.24,-68.67 1495.79,-65.61 1658.69,-65.48"/>
<polygon fill="#63b8ff" stroke="#63b8ff" points="1659.09,-68.98 1669.09,-65.47 1659.09,-61.98 1659.09,-68.98"/>
</a>
</g>
</g>
<!-- Node19&#45;&gt;Node7 -->
<g id="edge22_Node000019_Node000007" class="edge">
<title>Node19&#45;&gt;Node7</title>
<g id="a_edge22_Node000019_Node000007"><a xlink:title=" ">
<path fill="none" stroke="#63b8ff" d="M590.44,-115.37C608.47,-105.78 637.82,-90.17 658.89,-78.97"/>
<polygon fill="#63b8ff" stroke="#63b8ff" points="660.72,-81.95 667.91,-74.17 657.44,-75.77 660.72,-81.95"/>
</a>
</g>
</g>
<!-- Node46 -->
<g id="Node000046" class="node">
<title>Node46</title>
<g id="a_Node000046"><a xlink:title=" ">
<polygon fill="#e0e0e0" stroke="#999999" points="421.71,-206 302.71,-206 302.71,-176 421.71,-176 421.71,-206"/>
<text text-anchor="start" x="310.71" y="-194" font-family="Helvetica,sans-Serif" font-size="10.00">device_load_uniform</text>
<text text-anchor="middle" x="362.21" y="-183" font-family="Helvetica,sans-Serif" font-size="10.00">_decl.h</text>
</a>
</g>
</g>
<!-- Node45&#45;&gt;Node46 -->
<g id="edge47_Node000045_Node000046" class="edge">
<title>Node45&#45;&gt;Node46</title>
<g id="a_edge47_Node000045_Node000046"><a xlink:title=" ">
<path fill="none" stroke="#63b8ff" d="M303.39,-241.87C312.4,-234.22 325.93,-222.76 337.74,-212.75"/>
<polygon fill="#63b8ff" stroke="#63b8ff" points="340.2,-215.25 345.56,-206.11 335.67,-209.91 340.2,-215.25"/>
</a>
</g>
</g>
<!-- Node47 -->
<g id="Node000047" class="node">
<title>Node47</title>
<g id="a_Node000047"><a xlink:title=" ">
<polygon fill="#e0e0e0" stroke="#999999" points="284.21,-206 162.21,-206 162.21,-176 284.21,-176 284.21,-206"/>
<text text-anchor="start" x="170.21" y="-194" font-family="Helvetica,sans-Serif" font-size="10.00">device_store_uniform</text>
<text text-anchor="middle" x="223.21" y="-183" font-family="Helvetica,sans-Serif" font-size="10.00">_decl.h</text>
</a>
</g>
</g>
<!-- Node45&#45;&gt;Node47 -->
<g id="edge48_Node000045_Node000047" class="edge">
<title>Node45&#45;&gt;Node47</title>
<g id="a_edge48_Node000045_Node000047"><a xlink:title=" ">
<path fill="none" stroke="#63b8ff" d="M282.88,-241.87C273.73,-234.22 260.01,-222.76 248.03,-212.75"/>
<polygon fill="#63b8ff" stroke="#63b8ff" points="250.01,-209.84 240.1,-206.11 245.53,-215.21 250.01,-209.84"/>
</a>
</g>
</g>
</g>
</svg>
