<?xml version="1.0" encoding="UTF-8" standalone="no"?>
<!DOCTYPE svg PUBLIC "-//W3C//DTD SVG 1.1//EN"
 "http://www.w3.org/Graphics/SVG/1.1/DTD/svg11.dtd">
<!-- Generated by graphviz version 2.43.0 (0)
 -->
<!-- Title: src/core/analysis_helpers.cc Pages: 1 -->
<svg width="2730pt" height="379pt"
 viewBox="0.00 0.00 2729.60 379.00" xmlns="http://www.w3.org/2000/svg" xmlns:xlink="http://www.w3.org/1999/xlink">
<g id="graph0" class="graph" transform="scale(1 1) rotate(0) translate(4 375)">
<title>src/core/analysis_helpers.cc</title>
<!-- Node1 -->
<g id="Node000001" class="node">
<title>Node1</title>
<g id="a_Node000001"><a xlink:title=" ">
<polygon fill="#999999" stroke="#666666" points="2675.6,-371 2522.6,-371 2522.6,-352 2675.6,-352 2675.6,-371"/>
<text text-anchor="middle" x="2599.1" y="-359" font-family="Helvetica,sans-Serif" font-size="10.00">src/core/analysis_helpers.cc</text>
</a>
</g>
</g>
<!-- Node2 -->
<g id="Node000002" class="node">
<title>Node2</title>
<g id="a_Node000002"><a xlink:href="astaroth_8h.html" target="_top" xlink:title=" ">
<polygon fill="white" stroke="#666666" points="1853.1,-316 1787.1,-316 1787.1,-297 1853.1,-297 1853.1,-316"/>
<text text-anchor="middle" x="1820.1" y="-304" font-family="Helvetica,sans-Serif" font-size="10.00">astaroth.h</text>
</a>
</g>
</g>
<!-- Node1&#45;&gt;Node2 -->
<g id="edge1_Node000001_Node000002" class="edge">
<title>Node1&#45;&gt;Node2</title>
<g id="a_edge1_Node000001_Node000002"><a xlink:title=" ">
<path fill="none" stroke="#63b8ff" d="M2522.27,-355.27C2360.61,-344.27 1989.79,-319.05 1863.3,-310.44"/>
<polygon fill="#63b8ff" stroke="#63b8ff" points="1863.43,-306.94 1853.22,-309.75 1862.96,-313.92 1863.43,-306.94"/>
</a>
</g>
</g>
<!-- Node38 -->
<g id="Node000038" class="node">
<title>Node38</title>
<g id="a_Node000038"><a xlink:href="astaroth__analysis_8h.html" target="_top" xlink:title=" ">
<polygon fill="white" stroke="#666666" points="2632.1,-134.5 2520.1,-134.5 2520.1,-115.5 2632.1,-115.5 2632.1,-134.5"/>
<text text-anchor="middle" x="2576.1" y="-122.5" font-family="Helvetica,sans-Serif" font-size="10.00">astaroth_analysis.h</text>
</a>
</g>
</g>
<!-- Node1&#45;&gt;Node38 -->
<g id="edge57_Node000001_Node000038" class="edge">
<title>Node1&#45;&gt;Node38</title>
<g id="a_edge57_Node000001_Node000038"><a xlink:title=" ">
<path fill="none" stroke="#63b8ff" d="M2597.84,-351.98C2596.53,-343.04 2594.51,-328.55 2593.1,-316 2586.1,-253.59 2580.14,-179.38 2577.52,-145.1"/>
<polygon fill="#63b8ff" stroke="#63b8ff" points="2580.98,-144.43 2576.74,-134.73 2574,-144.96 2580.98,-144.43"/>
</a>
</g>
</g>
<!-- Node55 -->
<g id="Node000055" class="node">
<title>Node55</title>
<g id="a_Node000055"><a xlink:title=" ">
<polygon fill="#e0e0e0" stroke="#999999" points="2648.6,-316 2601.6,-316 2601.6,-297 2648.6,-297 2648.6,-316"/>
<text text-anchor="middle" x="2625.1" y="-304" font-family="Helvetica,sans-Serif" font-size="10.00">vector</text>
</a>
</g>
</g>
<!-- Node1&#45;&gt;Node55 -->
<g id="edge58_Node000001_Node000055" class="edge">
<title>Node1&#45;&gt;Node55</title>
<g id="a_edge58_Node000001_Node000055"><a xlink:title=" ">
<path fill="none" stroke="#63b8ff" d="M2603.39,-351.75C2606.91,-344.57 2612.01,-334.18 2616.38,-325.27"/>
<polygon fill="#63b8ff" stroke="#63b8ff" points="2619.62,-326.61 2620.89,-316.09 2613.34,-323.53 2619.62,-326.61"/>
</a>
</g>
</g>
<!-- Node56 -->
<g id="Node000056" class="node">
<title>Node56</title>
<g id="a_Node000056"><a xlink:title=" ">
<polygon fill="#e0e0e0" stroke="#999999" points="2721.6,-316 2666.6,-316 2666.6,-297 2721.6,-297 2721.6,-316"/>
<text text-anchor="middle" x="2694.1" y="-304" font-family="Helvetica,sans-Serif" font-size="10.00">coeffs.h</text>
</a>
</g>
</g>
<!-- Node1&#45;&gt;Node56 -->
<g id="edge59_Node000001_Node000056" class="edge">
<title>Node1&#45;&gt;Node56</title>
<g id="a_edge59_Node000001_Node000056"><a xlink:title=" ">
<path fill="none" stroke="#63b8ff" d="M2614.36,-351.98C2629.23,-343.69 2652.08,-330.94 2669.51,-321.22"/>
<polygon fill="#63b8ff" stroke="#63b8ff" points="2671.53,-324.1 2678.56,-316.17 2668.12,-317.99 2671.53,-324.1"/>
</a>
</g>
</g>
<!-- Node3 -->
<g id="Node000003" class="node">
<title>Node3</title>
<g id="a_Node000003"><a xlink:href="astaroth__base_8h.html" target="_top" xlink:title=" ">
<polygon fill="white" stroke="#666666" points="1180.6,-261 1085.6,-261 1085.6,-242 1180.6,-242 1180.6,-261"/>
<text text-anchor="middle" x="1133.1" y="-249" font-family="Helvetica,sans-Serif" font-size="10.00">astaroth_base.h</text>
</a>
</g>
</g>
<!-- Node2&#45;&gt;Node3 -->
<g id="edge2_Node000002_Node000003" class="edge">
<title>Node2&#45;&gt;Node3</title>
<g id="a_edge2_Node000002_Node000003"><a xlink:title=" ">
<path fill="none" stroke="#63b8ff" d="M1786.89,-303.87C1693.61,-299.13 1421.36,-284.2 1196.1,-261 1194.4,-260.83 1192.68,-260.64 1190.94,-260.45"/>
<polygon fill="#63b8ff" stroke="#63b8ff" points="1191.21,-256.96 1180.87,-259.27 1190.4,-263.91 1191.21,-256.96"/>
</a>
</g>
</g>
<!-- Node43 -->
<g id="Node000043" class="node">
<title>Node43</title>
<g id="a_Node000043"><a xlink:href="astaroth__grid_8h.html" target="_top" xlink:title=" ">
<polygon fill="white" stroke="#666666" points="1295.1,-261 1205.1,-261 1205.1,-242 1295.1,-242 1295.1,-261"/>
<text text-anchor="middle" x="1250.1" y="-249" font-family="Helvetica,sans-Serif" font-size="10.00">astaroth_grid.h</text>
</a>
</g>
</g>
<!-- Node2&#45;&gt;Node43 -->
<g id="edge45_Node000002_Node000043" class="edge">
<title>Node2&#45;&gt;Node43</title>
<g id="a_edge45_Node000002_Node000043"><a xlink:title=" ">
<path fill="none" stroke="#63b8ff" d="M1786.81,-303.44C1706.1,-298.28 1493.39,-283.63 1305.22,-261.05"/>
<polygon fill="#63b8ff" stroke="#63b8ff" points="1305.5,-257.56 1295.15,-259.83 1304.65,-264.51 1305.5,-257.56"/>
</a>
</g>
</g>
<!-- Node44 -->
<g id="Node000044" class="node">
<title>Node44</title>
<g id="a_Node000044"><a xlink:href="astaroth__node_8h.html" target="_top" xlink:title=" ">
<polygon fill="white" stroke="#666666" points="1408.6,-261 1313.6,-261 1313.6,-242 1408.6,-242 1408.6,-261"/>
<text text-anchor="middle" x="1361.1" y="-249" font-family="Helvetica,sans-Serif" font-size="10.00">astaroth_node.h</text>
</a>
</g>
</g>
<!-- Node2&#45;&gt;Node44 -->
<g id="edge46_Node000002_Node000044" class="edge">
<title>Node2&#45;&gt;Node44</title>
<g id="a_edge46_Node000002_Node000044"><a xlink:title=" ">
<path fill="none" stroke="#63b8ff" d="M1786.96,-302.26C1719.75,-295.6 1562.36,-279.52 1418.96,-261.06"/>
<polygon fill="#63b8ff" stroke="#63b8ff" points="1419.03,-257.54 1408.67,-259.73 1418.13,-264.49 1419.03,-257.54"/>
</a>
</g>
</g>
<!-- Node45 -->
<g id="Node000045" class="node">
<title>Node45</title>
<g id="a_Node000045"><a xlink:href="astaroth__device_8h.html" target="_top" xlink:title=" ">
<polygon fill="white" stroke="#666666" points="1531.1,-261 1427.1,-261 1427.1,-242 1531.1,-242 1531.1,-261"/>
<text text-anchor="middle" x="1479.1" y="-249" font-family="Helvetica,sans-Serif" font-size="10.00">astaroth_device.h</text>
</a>
</g>
</g>
<!-- Node2&#45;&gt;Node45 -->
<g id="edge47_Node000002_Node000045" class="edge">
<title>Node2&#45;&gt;Node45</title>
<g id="a_edge47_Node000002_Node000045"><a xlink:title=" ">
<path fill="none" stroke="#63b8ff" d="M1787.09,-300.37C1730.34,-291.55 1613.42,-273.38 1541.08,-262.13"/>
<polygon fill="#63b8ff" stroke="#63b8ff" points="1541.6,-258.67 1531.18,-260.59 1540.52,-265.59 1541.6,-258.67"/>
</a>
</g>
</g>
<!-- Node48 -->
<g id="Node000048" class="node">
<title>Node48</title>
<g id="a_Node000048"><a xlink:href="astaroth__legacy_8h.html" target="_top" xlink:title=" ">
<polygon fill="white" stroke="#666666" points="1651.1,-261 1549.1,-261 1549.1,-242 1651.1,-242 1651.1,-261"/>
<text text-anchor="middle" x="1600.1" y="-249" font-family="Helvetica,sans-Serif" font-size="10.00">astaroth_legacy.h</text>
</a>
</g>
</g>
<!-- Node2&#45;&gt;Node48 -->
<g id="edge50_Node000002_Node000048" class="edge">
<title>Node2&#45;&gt;Node48</title>
<g id="a_edge50_Node000002_Node000048"><a xlink:title=" ">
<path fill="none" stroke="#63b8ff" d="M1786.69,-297.45C1749.04,-288.38 1687.64,-273.59 1645.63,-263.47"/>
<polygon fill="#63b8ff" stroke="#63b8ff" points="1646.2,-260.01 1635.65,-261.07 1644.56,-266.81 1646.2,-260.01"/>
</a>
</g>
</g>
<!-- Node49 -->
<g id="Node000049" class="node">
<title>Node49</title>
<g id="a_Node000049"><a xlink:title=" ">
<polygon fill="#e0e0e0" stroke="#999999" points="1808.6,-261 1669.6,-261 1669.6,-242 1808.6,-242 1808.6,-261"/>
<text text-anchor="middle" x="1739.1" y="-249" font-family="Helvetica,sans-Serif" font-size="10.00">device_set_input_decls.h</text>
</a>
</g>
</g>
<!-- Node2&#45;&gt;Node49 -->
<g id="edge51_Node000002_Node000049" class="edge">
<title>Node2&#45;&gt;Node49</title>
<g id="a_edge51_Node000002_Node000049"><a xlink:title=" ">
<path fill="none" stroke="#63b8ff" d="M1807.08,-296.98C1794.64,-288.84 1775.64,-276.41 1760.89,-266.76"/>
<polygon fill="#63b8ff" stroke="#63b8ff" points="1762.63,-263.72 1752.35,-261.17 1758.8,-269.57 1762.63,-263.72"/>
</a>
</g>
</g>
<!-- Node50 -->
<g id="Node000050" class="node">
<title>Node50</title>
<g id="a_Node000050"><a xlink:title=" ">
<polygon fill="#e0e0e0" stroke="#999999" points="1973.1,-261 1827.1,-261 1827.1,-242 1973.1,-242 1973.1,-261"/>
<text text-anchor="middle" x="1900.1" y="-249" font-family="Helvetica,sans-Serif" font-size="10.00">device_get_output_decls.h</text>
</a>
</g>
</g>
<!-- Node2&#45;&gt;Node50 -->
<g id="edge52_Node000002_Node000050" class="edge">
<title>Node2&#45;&gt;Node50</title>
<g id="a_edge52_Node000002_Node000050"><a xlink:title=" ">
<path fill="none" stroke="#63b8ff" d="M1832.95,-296.98C1845.24,-288.84 1864.01,-276.41 1878.58,-266.76"/>
<polygon fill="#63b8ff" stroke="#63b8ff" points="1880.61,-269.61 1887.01,-261.17 1876.74,-263.78 1880.61,-269.61"/>
</a>
</g>
</g>
<!-- Node51 -->
<g id="Node000051" class="node">
<title>Node51</title>
<g id="a_Node000051"><a xlink:title=" ">
<polygon fill="#e0e0e0" stroke="#999999" points="2131.1,-261 1991.1,-261 1991.1,-242 2131.1,-242 2131.1,-261"/>
<text text-anchor="middle" x="2061.1" y="-249" font-family="Helvetica,sans-Serif" font-size="10.00">device_get_input_decls.h</text>
</a>
</g>
</g>
<!-- Node2&#45;&gt;Node51 -->
<g id="edge53_Node000002_Node000051" class="edge">
<title>Node2&#45;&gt;Node51</title>
<g id="a_edge53_Node000002_Node000051"><a xlink:title=" ">
<path fill="none" stroke="#63b8ff" d="M1853.1,-298.24C1894.18,-289.21 1964.68,-273.7 2012.08,-263.28"/>
<polygon fill="#63b8ff" stroke="#63b8ff" points="2013.1,-266.64 2022.12,-261.07 2011.6,-259.8 2013.1,-266.64"/>
</a>
</g>
</g>
<!-- Node52 -->
<g id="Node000052" class="node">
<title>Node52</title>
<g id="a_Node000052"><a xlink:title=" ">
<polygon fill="#e0e0e0" stroke="#999999" points="2279.1,-261 2149.1,-261 2149.1,-242 2279.1,-242 2279.1,-261"/>
<text text-anchor="middle" x="2214.1" y="-249" font-family="Helvetica,sans-Serif" font-size="10.00">get_vtxbufs_declares.h</text>
</a>
</g>
</g>
<!-- Node2&#45;&gt;Node52 -->
<g id="edge54_Node000002_Node000052" class="edge">
<title>Node2&#45;&gt;Node52</title>
<g id="a_edge54_Node000002_Node000052"><a xlink:title=" ">
<path fill="none" stroke="#63b8ff" d="M1853.35,-301.03C1916.44,-292.54 2054.84,-273.92 2140.7,-262.37"/>
<polygon fill="#63b8ff" stroke="#63b8ff" points="2141.2,-265.84 2150.64,-261.04 2140.27,-258.9 2141.2,-265.84"/>
</a>
</g>
</g>
<!-- Node53 -->
<g id="Node000053" class="node">
<title>Node53</title>
<g id="a_Node000053"><a xlink:href="astaroth__runtime__compilation_8h.html" target="_top" xlink:title=" ">
<polygon fill="white" stroke="#666666" points="2470.6,-261 2297.6,-261 2297.6,-242 2470.6,-242 2470.6,-261"/>
<text text-anchor="middle" x="2384.1" y="-249" font-family="Helvetica,sans-Serif" font-size="10.00">astaroth_runtime_compilation.h</text>
</a>
</g>
</g>
<!-- Node2&#45;&gt;Node53 -->
<g id="edge55_Node000002_Node000053" class="edge">
<title>Node2&#45;&gt;Node53</title>
<g id="a_edge55_Node000002_Node000053"><a xlink:title=" ">
<path fill="none" stroke="#63b8ff" d="M1853.27,-302.38C1936.79,-294.53 2158.21,-273.73 2287.17,-261.61"/>
<polygon fill="#63b8ff" stroke="#63b8ff" points="2287.81,-265.06 2297.44,-260.64 2287.15,-258.09 2287.81,-265.06"/>
</a>
</g>
</g>
<!-- Node54 -->
<g id="Node000054" class="node">
<title>Node54</title>
<g id="a_Node000054"><a xlink:title=" ">
<polygon fill="#e0e0e0" stroke="#999999" points="2541.6,-261 2488.6,-261 2488.6,-242 2541.6,-242 2541.6,-261"/>
<text text-anchor="middle" x="2515.1" y="-249" font-family="Helvetica,sans-Serif" font-size="10.00">string.h</text>
</a>
</g>
</g>
<!-- Node2&#45;&gt;Node54 -->
<g id="edge56_Node000002_Node000054" class="edge">
<title>Node2&#45;&gt;Node54</title>
<g id="a_edge56_Node000002_Node000054"><a xlink:title=" ">
<path fill="none" stroke="#63b8ff" d="M1853.28,-305.26C1948.99,-304.15 2233.8,-297.88 2478.3,-261.02"/>
<polygon fill="#63b8ff" stroke="#63b8ff" points="2479.08,-264.44 2488.44,-259.47 2478.03,-257.52 2479.08,-264.44"/>
</a>
</g>
</g>
<!-- Node4 -->
<g id="Node000004" class="node">
<title>Node4</title>
<g id="a_Node000004"><a xlink:title=" ">
<polygon fill="#e0e0e0" stroke="#999999" points="140.1,-74 78.1,-74 78.1,-55 140.1,-55 140.1,-74"/>
<text text-anchor="middle" x="109.1" y="-62" font-family="Helvetica,sans-Serif" font-size="10.00">stdbool.h</text>
</a>
</g>
</g>
<!-- Node3&#45;&gt;Node4 -->
<g id="edge3_Node000003_Node000004" class="edge">
<title>Node3&#45;&gt;Node4</title>
<g id="a_edge3_Node000003_Node000004"><a xlink:title=" ">
<path fill="none" stroke="#63b8ff" d="M1085.31,-249.6C879.73,-245.24 77.69,-222.99 6.1,-140 -2.61,-129.9 -1.22,-121.14 6.1,-110 19.83,-89.11 45.68,-77.98 68.05,-72.08"/>
<polygon fill="#63b8ff" stroke="#63b8ff" points="69.1,-75.42 78.03,-69.71 67.49,-68.61 69.1,-75.42"/>
</a>
</g>
</g>
<!-- Node5 -->
<g id="Node000005" class="node">
<title>Node5</title>
<g id="a_Node000005"><a xlink:href="acc__runtime_8h.html" target="_top" xlink:title=" ">
<polygon fill="white" stroke="#666666" points="1164.1,-200.5 1078.1,-200.5 1078.1,-181.5 1164.1,-181.5 1164.1,-200.5"/>
<text text-anchor="middle" x="1121.1" y="-188.5" font-family="Helvetica,sans-Serif" font-size="10.00">acc_runtime.h</text>
</a>
</g>
</g>
<!-- Node3&#45;&gt;Node5 -->
<g id="edge4_Node000003_Node000005" class="edge">
<title>Node3&#45;&gt;Node5</title>
<g id="a_edge4_Node000003_Node000005"><a xlink:title=" ">
<path fill="none" stroke="#63b8ff" d="M1131.33,-241.87C1129.64,-233.66 1127.06,-221.04 1124.9,-210.55"/>
<polygon fill="#63b8ff" stroke="#63b8ff" points="1128.31,-209.76 1122.88,-200.67 1121.46,-211.17 1128.31,-209.76"/>
</a>
</g>
</g>
<!-- Node25 -->
<g id="Node000025" class="node">
<title>Node25</title>
<g id="a_Node000025"><a xlink:title=" ">
<polygon fill="#e0e0e0" stroke="#999999" points="154.6,-134.5 15.6,-134.5 15.6,-115.5 154.6,-115.5 154.6,-134.5"/>
<text text-anchor="middle" x="85.1" y="-122.5" font-family="Helvetica,sans-Serif" font-size="10.00">user_built&#45;in_constants.h</text>
</a>
</g>
</g>
<!-- Node3&#45;&gt;Node25 -->
<g id="edge43_Node000003_Node000025" class="edge">
<title>Node3&#45;&gt;Node25</title>
<g id="a_edge43_Node000003_Node000025"><a xlink:title=" ">
<path fill="none" stroke="#63b8ff" d="M1085.47,-246.21C944.2,-233.25 515.41,-192.16 162.1,-140 154.62,-138.9 146.76,-137.61 139.03,-136.28"/>
<polygon fill="#63b8ff" stroke="#63b8ff" points="139.45,-132.8 128.99,-134.5 138.23,-139.69 139.45,-132.8"/>
</a>
</g>
</g>
<!-- Node39 -->
<g id="Node000039" class="node">
<title>Node39</title>
<g id="a_Node000039"><a xlink:href="func__define_8h.html" target="_top" xlink:title=" ">
<polygon fill="white" stroke="#666666" points="2502.1,-134.5 2420.1,-134.5 2420.1,-115.5 2502.1,-115.5 2502.1,-134.5"/>
<text text-anchor="middle" x="2461.1" y="-122.5" font-family="Helvetica,sans-Serif" font-size="10.00">func_define.h</text>
</a>
</g>
</g>
<!-- Node3&#45;&gt;Node39 -->
<g id="edge42_Node000003_Node000039" class="edge">
<title>Node3&#45;&gt;Node39</title>
<g id="a_edge42_Node000003_Node000039"><a xlink:title=" ">
<path fill="none" stroke="#63b8ff" d="M1140.66,-241.86C1156.69,-223.81 1194,-183.15 1211.1,-176 1334.16,-124.52 2279.23,-160.13 2411.1,-140 2415.68,-139.3 2420.45,-138.32 2425.13,-137.19"/>
<polygon fill="#63b8ff" stroke="#63b8ff" points="2426.37,-140.48 2435.15,-134.55 2424.59,-133.71 2426.37,-140.48"/>
</a>
</g>
</g>
<!-- Node42 -->
<g id="Node000042" class="node">
<title>Node42</title>
<g id="a_Node000042"><a xlink:title=" ">
<polygon fill="#e0e0e0" stroke="#999999" points="1351.6,-206 1220.6,-206 1220.6,-176 1351.6,-176 1351.6,-206"/>
<text text-anchor="start" x="1228.6" y="-194" font-family="Helvetica,sans-Serif" font-size="10.00">user_builtin_non_scalar</text>
<text text-anchor="middle" x="1286.1" y="-183" font-family="Helvetica,sans-Serif" font-size="10.00">_constants.h</text>
</a>
</g>
</g>
<!-- Node3&#45;&gt;Node42 -->
<g id="edge44_Node000003_Node000042" class="edge">
<title>Node3&#45;&gt;Node42</title>
<g id="a_edge44_Node000003_Node000042"><a xlink:title=" ">
<path fill="none" stroke="#63b8ff" d="M1155.35,-241.99C1177.37,-233.57 1211.74,-220.43 1239.72,-209.73"/>
<polygon fill="#63b8ff" stroke="#63b8ff" points="1241.22,-212.9 1249.32,-206.06 1238.72,-206.37 1241.22,-212.9"/>
</a>
</g>
</g>
<!-- Node5&#45;&gt;Node4 -->
<g id="edge6_Node000005_Node000004" class="edge">
<title>Node5&#45;&gt;Node4</title>
<g id="a_edge6_Node000005_Node000004"><a xlink:title=" ">
<path fill="none" stroke="#63b8ff" d="M1077.89,-189.15C907.48,-185.61 287.35,-170.7 205.1,-140 196.22,-136.69 152.51,-101.32 127.24,-80.53"/>
<polygon fill="#63b8ff" stroke="#63b8ff" points="129.39,-77.77 119.45,-74.11 124.94,-83.17 129.39,-77.77"/>
</a>
</g>
</g>
<!-- Node6 -->
<g id="Node000006" class="node">
<title>Node6</title>
<g id="a_Node000006"><a xlink:title=" ">
<polygon fill="#e0e0e0" stroke="#999999" points="208.1,-74 158.1,-74 158.1,-55 208.1,-55 208.1,-74"/>
<text text-anchor="middle" x="183.1" y="-62" font-family="Helvetica,sans-Serif" font-size="10.00">stdio.h</text>
</a>
</g>
</g>
<!-- Node5&#45;&gt;Node6 -->
<g id="edge5_Node000005_Node000006" class="edge">
<title>Node5&#45;&gt;Node6</title>
<g id="a_edge5_Node000005_Node000006"><a xlink:title=" ">
<path fill="none" stroke="#63b8ff" d="M1078,-188.55C906.18,-182.65 277.47,-159.8 240.1,-140 216.89,-127.71 200.31,-101.34 191.21,-83.51"/>
<polygon fill="#63b8ff" stroke="#63b8ff" points="194.31,-81.89 186.82,-74.4 188,-84.92 194.31,-81.89"/>
</a>
</g>
</g>
<!-- Node7 -->
<g id="Node000007" class="node">
<title>Node7</title>
<g id="a_Node000007"><a xlink:href="device__headers_8h.html" target="_top" xlink:title=" ">
<polygon fill="white" stroke="#666666" points="328.1,-74 226.1,-74 226.1,-55 328.1,-55 328.1,-74"/>
<text text-anchor="middle" x="277.1" y="-62" font-family="Helvetica,sans-Serif" font-size="10.00">device_headers.h</text>
</a>
</g>
</g>
<!-- Node5&#45;&gt;Node7 -->
<g id="edge7_Node000005_Node000007" class="edge">
<title>Node5&#45;&gt;Node7</title>
<g id="a_edge7_Node000005_Node000007"><a xlink:title=" ">
<path fill="none" stroke="#63b8ff" d="M1078.09,-190.28C939.64,-190.68 507.04,-187.98 377.1,-140 343.28,-127.51 311.15,-99.76 292.82,-81.87"/>
<polygon fill="#63b8ff" stroke="#63b8ff" points="294.95,-79.05 285.41,-74.44 289.99,-83.99 294.95,-79.05"/>
</a>
</g>
</g>
<!-- Node10 -->
<g id="Node000010" class="node">
<title>Node10</title>
<g id="a_Node000010"><a xlink:title=" ">
<polygon fill="#e0e0e0" stroke="#999999" points="441.6,-74 346.6,-74 346.6,-55 441.6,-55 441.6,-74"/>
<text text-anchor="middle" x="394.1" y="-62" font-family="Helvetica,sans-Serif" font-size="10.00">builtin_enums.h</text>
</a>
</g>
</g>
<!-- Node5&#45;&gt;Node10 -->
<g id="edge10_Node000005_Node000010" class="edge">
<title>Node5&#45;&gt;Node10</title>
<g id="a_edge10_Node000005_Node000010"><a xlink:title=" ">
<path fill="none" stroke="#63b8ff" d="M1078.07,-188.66C924.86,-183.69 413.7,-165.28 390.1,-140 376.32,-125.25 380.8,-100.84 386.42,-84.01"/>
<polygon fill="#63b8ff" stroke="#63b8ff" points="389.85,-84.81 390.09,-74.22 383.3,-82.35 389.85,-84.81"/>
</a>
</g>
</g>
<!-- Node11 -->
<g id="Node000011" class="node">
<title>Node11</title>
<g id="a_Node000011"><a xlink:href="datatypes_8h.html" target="_top" xlink:title=" ">
<polygon fill="#fff0f0" stroke="red" points="473.1,-134.5 399.1,-134.5 399.1,-115.5 473.1,-115.5 473.1,-134.5"/>
<text text-anchor="middle" x="436.1" y="-122.5" font-family="Helvetica,sans-Serif" font-size="10.00">datatypes.h</text>
</a>
</g>
</g>
<!-- Node5&#45;&gt;Node11 -->
<g id="edge11_Node000005_Node000011" class="edge">
<title>Node5&#45;&gt;Node11</title>
<g id="a_edge11_Node000005_Node000011"><a xlink:title=" ">
<path fill="none" stroke="#63b8ff" d="M1078.05,-189.84C974.47,-188.77 703.52,-181.84 482.1,-140 478.24,-139.27 474.25,-138.34 470.3,-137.3"/>
<polygon fill="#63b8ff" stroke="#63b8ff" points="471.26,-133.93 460.68,-134.56 469.34,-140.66 471.26,-133.93"/>
</a>
</g>
</g>
<!-- Node19 -->
<g id="Node000019" class="node">
<title>Node19</title>
<g id="a_Node000019"><a xlink:href="errchk_8h.html" target="_top" xlink:title="Brief info.">
<polygon fill="#fff0f0" stroke="red" points="305.1,-134.5 249.1,-134.5 249.1,-115.5 305.1,-115.5 305.1,-134.5"/>
<text text-anchor="middle" x="277.1" y="-122.5" font-family="Helvetica,sans-Serif" font-size="10.00">errchk.h</text>
</a>
</g>
</g>
<!-- Node5&#45;&gt;Node19 -->
<g id="edge19_Node000005_Node000019" class="edge">
<title>Node5&#45;&gt;Node19</title>
<g id="a_edge19_Node000005_Node000019"><a xlink:title=" ">
<path fill="none" stroke="#63b8ff" d="M1078.06,-188.79C933.56,-184.49 466.57,-168.67 319.1,-140 315.68,-139.33 312.15,-138.47 308.66,-137.48"/>
<polygon fill="#63b8ff" stroke="#63b8ff" points="309.63,-134.12 299.04,-134.51 307.56,-140.81 309.63,-134.12"/>
</a>
</g>
</g>
<!-- Node23 -->
<g id="Node000023" class="node">
<title>Node23</title>
<g id="a_Node000023"><a xlink:title=" ">
<polygon fill="#e0e0e0" stroke="#999999" points="578.6,-134.5 491.6,-134.5 491.6,-115.5 578.6,-115.5 578.6,-134.5"/>
<text text-anchor="middle" x="535.1" y="-122.5" font-family="Helvetica,sans-Serif" font-size="10.00">user_defines.h</text>
</a>
</g>
</g>
<!-- Node5&#45;&gt;Node23 -->
<g id="edge23_Node000005_Node000023" class="edge">
<title>Node5&#45;&gt;Node23</title>
<g id="a_edge23_Node000005_Node000023"><a xlink:title=" ">
<path fill="none" stroke="#63b8ff" d="M1077.94,-188.36C986.82,-184.38 768.37,-172.04 588.1,-140 583.55,-139.19 578.82,-138.19 574.14,-137.09"/>
<polygon fill="#63b8ff" stroke="#63b8ff" points="574.62,-133.6 564.07,-134.57 572.92,-140.39 574.62,-133.6"/>
</a>
</g>
</g>
<!-- Node24 -->
<g id="Node000024" class="node">
<title>Node24</title>
<g id="a_Node000024"><a xlink:title=" ">
<polygon fill="#e0e0e0" stroke="#999999" points="683.1,-134.5 597.1,-134.5 597.1,-115.5 683.1,-115.5 683.1,-134.5"/>
<text text-anchor="middle" x="640.1" y="-122.5" font-family="Helvetica,sans-Serif" font-size="10.00">profiles_info.h</text>
</a>
</g>
</g>
<!-- Node5&#45;&gt;Node24 -->
<g id="edge24_Node000005_Node000024" class="edge">
<title>Node5&#45;&gt;Node24</title>
<g id="a_edge24_Node000005_Node000024"><a xlink:title=" ">
<path fill="none" stroke="#63b8ff" d="M1077.85,-187.07C1000.11,-181.34 831.83,-166.8 692.1,-140 687.69,-139.15 683.11,-138.13 678.58,-137.03"/>
<polygon fill="#63b8ff" stroke="#63b8ff" points="679.36,-133.62 668.8,-134.54 677.63,-140.4 679.36,-133.62"/>
</a>
</g>
</g>
<!-- Node5&#45;&gt;Node25 -->
<g id="edge25_Node000005_Node000025" class="edge">
<title>Node5&#45;&gt;Node25</title>
<g id="a_edge25_Node000005_Node000025"><a xlink:title=" ">
<path fill="none" stroke="#63b8ff" d="M1077.79,-189.46C942.87,-187.41 518.31,-178.15 169.1,-140 159.92,-139 150.23,-137.65 140.81,-136.19"/>
<polygon fill="#63b8ff" stroke="#63b8ff" points="141.17,-132.7 130.74,-134.57 140.06,-139.61 141.17,-132.7"/>
</a>
</g>
</g>
<!-- Node26 -->
<g id="Node000026" class="node">
<title>Node26</title>
<g id="a_Node000026"><a xlink:href="func__attributes_8h.html" target="_top" xlink:title=" ">
<polygon fill="white" stroke="#666666" points="800.6,-134.5 701.6,-134.5 701.6,-115.5 800.6,-115.5 800.6,-134.5"/>
<text text-anchor="middle" x="751.1" y="-122.5" font-family="Helvetica,sans-Serif" font-size="10.00">func_attributes.h</text>
</a>
</g>
</g>
<!-- Node5&#45;&gt;Node26 -->
<g id="edge26_Node000005_Node000026" class="edge">
<title>Node5&#45;&gt;Node26</title>
<g id="a_edge26_Node000005_Node000026"><a xlink:title=" ">
<path fill="none" stroke="#63b8ff" d="M1078.01,-184.18C1017.64,-175.78 904.57,-159.14 809.1,-140 804.33,-139.04 799.37,-137.97 794.44,-136.85"/>
<polygon fill="#63b8ff" stroke="#63b8ff" points="794.96,-133.38 784.43,-134.52 793.37,-140.2 794.96,-133.38"/>
</a>
</g>
</g>
<!-- Node27 -->
<g id="Node000027" class="node">
<title>Node27</title>
<g id="a_Node000027"><a xlink:title=" ">
<polygon fill="#e0e0e0" stroke="#999999" points="943.6,-134.5 818.6,-134.5 818.6,-115.5 943.6,-115.5 943.6,-134.5"/>
<text text-anchor="middle" x="881.1" y="-122.5" font-family="Helvetica,sans-Serif" font-size="10.00">user_input_typedefs.h</text>
</a>
</g>
</g>
<!-- Node5&#45;&gt;Node27 -->
<g id="edge27_Node000005_Node000027" class="edge">
<title>Node5&#45;&gt;Node27</title>
<g id="a_edge27_Node000005_Node000027"><a xlink:title=" ">
<path fill="none" stroke="#63b8ff" d="M1088.73,-181.37C1045.94,-169.96 970.45,-149.83 923.25,-137.24"/>
<polygon fill="#63b8ff" stroke="#63b8ff" points="923.9,-133.79 913.34,-134.6 922.1,-140.56 923.9,-133.79"/>
</a>
</g>
</g>
<!-- Node28 -->
<g id="Node000028" class="node">
<title>Node28</title>
<g id="a_Node000028"><a xlink:title=" ">
<polygon fill="#e0e0e0" stroke="#999999" points="1044.6,-134.5 961.6,-134.5 961.6,-115.5 1044.6,-115.5 1044.6,-134.5"/>
<text text-anchor="middle" x="1003.1" y="-122.5" font-family="Helvetica,sans-Serif" font-size="10.00">output_decl.h</text>
</a>
</g>
</g>
<!-- Node5&#45;&gt;Node28 -->
<g id="edge28_Node000005_Node000028" class="edge">
<title>Node5&#45;&gt;Node28</title>
<g id="a_edge28_Node000005_Node000028"><a xlink:title=" ">
<path fill="none" stroke="#63b8ff" d="M1105.18,-181.37C1085.39,-170.63 1051.37,-152.18 1028.09,-139.55"/>
<polygon fill="#63b8ff" stroke="#63b8ff" points="1029.6,-136.39 1019.14,-134.7 1026.26,-142.54 1029.6,-136.39"/>
</a>
</g>
</g>
<!-- Node29 -->
<g id="Node000029" class="node">
<title>Node29</title>
<g id="a_Node000029"><a xlink:title=" ">
<polygon fill="#e0e0e0" stroke="#999999" points="1179.1,-134.5 1063.1,-134.5 1063.1,-115.5 1179.1,-115.5 1179.1,-134.5"/>
<text text-anchor="middle" x="1121.1" y="-122.5" font-family="Helvetica,sans-Serif" font-size="10.00">comp_loaded_decl.h</text>
</a>
</g>
</g>
<!-- Node5&#45;&gt;Node29 -->
<g id="edge29_Node000005_Node000029" class="edge">
<title>Node5&#45;&gt;Node29</title>
<g id="a_edge29_Node000005_Node000029"><a xlink:title=" ">
<path fill="none" stroke="#63b8ff" d="M1121.1,-181.37C1121.1,-172.16 1121.1,-157.29 1121.1,-145.27"/>
<polygon fill="#63b8ff" stroke="#63b8ff" points="1124.6,-144.91 1121.1,-134.91 1117.6,-144.91 1124.6,-144.91"/>
</a>
</g>
</g>
<!-- Node30 -->
<g id="Node000030" class="node">
<title>Node30</title>
<g id="a_Node000030"><a xlink:title=" ">
<polygon fill="#e0e0e0" stroke="#999999" points="1275.1,-134.5 1197.1,-134.5 1197.1,-115.5 1275.1,-115.5 1275.1,-134.5"/>
<text text-anchor="middle" x="1236.1" y="-122.5" font-family="Helvetica,sans-Serif" font-size="10.00">comp_decl.h</text>
</a>
</g>
</g>
<!-- Node5&#45;&gt;Node30 -->
<g id="edge30_Node000005_Node000030" class="edge">
<title>Node5&#45;&gt;Node30</title>
<g id="a_edge30_Node000005_Node000030"><a xlink:title=" ">
<path fill="none" stroke="#63b8ff" d="M1136.61,-181.37C1155.81,-170.68 1188.76,-152.35 1211.44,-139.72"/>
<polygon fill="#63b8ff" stroke="#63b8ff" points="1213.43,-142.62 1220.47,-134.7 1210.03,-136.5 1213.43,-142.62"/>
</a>
</g>
</g>
<!-- Node31 -->
<g id="Node000031" class="node">
<title>Node31</title>
<g id="a_Node000031"><a xlink:title=" ">
<polygon fill="#e0e0e0" stroke="#999999" points="1401.1,-134.5 1293.1,-134.5 1293.1,-115.5 1401.1,-115.5 1401.1,-134.5"/>
<text text-anchor="middle" x="1347.1" y="-122.5" font-family="Helvetica,sans-Serif" font-size="10.00">info_loaded_decl.h</text>
</a>
</g>
</g>
<!-- Node5&#45;&gt;Node31 -->
<g id="edge31_Node000005_Node000031" class="edge">
<title>Node5&#45;&gt;Node31</title>
<g id="a_edge31_Node000005_Node000031"><a xlink:title=" ">
<path fill="none" stroke="#63b8ff" d="M1151.58,-181.37C1191.71,-170 1262.36,-150 1306.85,-137.4"/>
<polygon fill="#63b8ff" stroke="#63b8ff" points="1308.07,-140.69 1316.74,-134.6 1306.17,-133.95 1308.07,-140.69"/>
</a>
</g>
</g>
<!-- Node32 -->
<g id="Node000032" class="node">
<title>Node32</title>
<g id="a_Node000032"><a xlink:title=" ">
<polygon fill="#e0e0e0" stroke="#999999" points="1559.1,-134.5 1419.1,-134.5 1419.1,-115.5 1559.1,-115.5 1559.1,-134.5"/>
<text text-anchor="middle" x="1489.1" y="-122.5" font-family="Helvetica,sans-Serif" font-size="10.00">device_mesh_info_decl.h</text>
</a>
</g>
</g>
<!-- Node5&#45;&gt;Node32 -->
<g id="edge32_Node000005_Node000032" class="edge">
<title>Node5&#45;&gt;Node32</title>
<g id="a_edge32_Node000005_Node000032"><a xlink:title=" ">
<path fill="none" stroke="#63b8ff" d="M1153.84,-181.44C1161.76,-179.52 1170.21,-177.58 1178.1,-176 1280.42,-155.54 1307.17,-157.1 1410.1,-140 1417.18,-138.82 1424.62,-137.55 1431.98,-136.27"/>
<polygon fill="#63b8ff" stroke="#63b8ff" points="1432.68,-139.7 1441.92,-134.53 1431.47,-132.81 1432.68,-139.7"/>
</a>
</g>
</g>
<!-- Node33 -->
<g id="Node000033" class="node">
<title>Node33</title>
<g id="a_Node000033"><a xlink:title=" ">
<polygon fill="#e0e0e0" stroke="#999999" points="1654.6,-134.5 1577.6,-134.5 1577.6,-115.5 1654.6,-115.5 1654.6,-134.5"/>
<text text-anchor="middle" x="1616.1" y="-122.5" font-family="Helvetica,sans-Serif" font-size="10.00">array_decl.h</text>
</a>
</g>
</g>
<!-- Node5&#45;&gt;Node33 -->
<g id="edge33_Node000005_Node000033" class="edge">
<title>Node5&#45;&gt;Node33</title>
<g id="a_edge33_Node000005_Node000033"><a xlink:title=" ">
<path fill="none" stroke="#63b8ff" d="M1152.28,-181.45C1160.62,-179.41 1169.66,-177.42 1178.1,-176 1349.76,-147.16 1397.09,-172.52 1568.1,-140 1572.06,-139.25 1576.17,-138.3 1580.24,-137.27"/>
<polygon fill="#63b8ff" stroke="#63b8ff" points="1581.44,-140.57 1590.16,-134.55 1579.59,-133.82 1581.44,-140.57"/>
</a>
</g>
</g>
<!-- Node34 -->
<g id="Node000034" class="node">
<title>Node34</title>
<g id="a_Node000034"><a xlink:title=" ">
<polygon fill="#e0e0e0" stroke="#999999" points="1749.1,-134.5 1673.1,-134.5 1673.1,-115.5 1749.1,-115.5 1749.1,-134.5"/>
<text text-anchor="middle" x="1711.1" y="-122.5" font-family="Helvetica,sans-Serif" font-size="10.00">input_decl.h</text>
</a>
</g>
</g>
<!-- Node5&#45;&gt;Node34 -->
<g id="edge34_Node000005_Node000034" class="edge">
<title>Node5&#45;&gt;Node34</title>
<g id="a_edge34_Node000005_Node000034"><a xlink:title=" ">
<path fill="none" stroke="#63b8ff" d="M1151.67,-181.5C1160.17,-179.4 1169.44,-177.37 1178.1,-176 1392.01,-142.05 1451.07,-179.14 1664.1,-140 1668.04,-139.28 1672.11,-138.35 1676.15,-137.31"/>
<polygon fill="#63b8ff" stroke="#63b8ff" points="1677.28,-140.63 1685.97,-134.57 1675.4,-133.88 1677.28,-140.63"/>
</a>
</g>
</g>
<!-- Node35 -->
<g id="Node000035" class="node">
<title>Node35</title>
<g id="a_Node000035"><a xlink:href="ac__helpers_8h.html" target="_top" xlink:title=" ">
<polygon fill="white" stroke="#666666" points="1845.1,-134.5 1767.1,-134.5 1767.1,-115.5 1845.1,-115.5 1845.1,-134.5"/>
<text text-anchor="middle" x="1806.1" y="-122.5" font-family="Helvetica,sans-Serif" font-size="10.00">ac_helpers.h</text>
</a>
</g>
</g>
<!-- Node5&#45;&gt;Node35 -->
<g id="edge35_Node000005_Node000035" class="edge">
<title>Node5&#45;&gt;Node35</title>
<g id="a_edge35_Node000005_Node000035"><a xlink:title=" ">
<path fill="none" stroke="#63b8ff" d="M1151.66,-181.43C1160.16,-179.34 1169.44,-177.32 1178.1,-176 1433.42,-137.04 1503.68,-184.43 1758.1,-140 1762.28,-139.27 1766.62,-138.31 1770.9,-137.23"/>
<polygon fill="#63b8ff" stroke="#63b8ff" points="1771.97,-140.56 1780.69,-134.55 1770.12,-133.81 1771.97,-140.56"/>
</a>
</g>
</g>
<!-- Node36 -->
<g id="Node000036" class="node">
<title>Node36</title>
<g id="a_Node000036"><a xlink:title=" ">
<polygon fill="#e0e0e0" stroke="#999999" points="1981.1,-140 1863.1,-140 1863.1,-110 1981.1,-110 1981.1,-140"/>
<text text-anchor="start" x="1871.1" y="-128" font-family="Helvetica,sans-Serif" font-size="10.00">scalar_reduce_buffer</text>
<text text-anchor="middle" x="1922.1" y="-117" font-family="Helvetica,sans-Serif" font-size="10.00">_defs.h</text>
</a>
</g>
</g>
<!-- Node5&#45;&gt;Node36 -->
<g id="edge36_Node000005_Node000036" class="edge">
<title>Node5&#45;&gt;Node36</title>
<g id="a_edge36_Node000005_Node000036"><a xlink:title=" ">
<path fill="none" stroke="#63b8ff" d="M1151.36,-181.45C1159.94,-179.33 1169.33,-177.3 1178.1,-176 1472.38,-132.42 1553.87,-177.41 1852.59,-140.05"/>
<polygon fill="#63b8ff" stroke="#63b8ff" points="1853.37,-143.48 1862.85,-138.74 1852.49,-136.53 1853.37,-143.48"/>
</a>
</g>
</g>
<!-- Node37 -->
<g id="Node000037" class="node">
<title>Node37</title>
<g id="a_Node000037"><a xlink:title=" ">
<polygon fill="#e0e0e0" stroke="#999999" points="2122.6,-140 1999.6,-140 1999.6,-110 2122.6,-110 2122.6,-140"/>
<text text-anchor="start" x="2007.6" y="-128" font-family="Helvetica,sans-Serif" font-size="10.00">scalar_reduce_buffers</text>
<text text-anchor="middle" x="2061.1" y="-117" font-family="Helvetica,sans-Serif" font-size="10.00">_in_vba.h</text>
</a>
</g>
</g>
<!-- Node5&#45;&gt;Node37 -->
<g id="edge37_Node000005_Node000037" class="edge">
<title>Node5&#45;&gt;Node37</title>
<g id="a_edge37_Node000005_Node000037"><a xlink:title=" ">
<path fill="none" stroke="#63b8ff" d="M1151.06,-181.47C1159.71,-179.33 1169.22,-177.27 1178.1,-176 1532.36,-125.15 1629.63,-181.99 1989.06,-139.97"/>
<polygon fill="#63b8ff" stroke="#63b8ff" points="1989.71,-143.42 1999.23,-138.77 1988.89,-136.47 1989.71,-143.42"/>
</a>
</g>
</g>
<!-- Node5&#45;&gt;Node38 -->
<g id="edge38_Node000005_Node000038" class="edge">
<title>Node5&#45;&gt;Node38</title>
<g id="a_edge38_Node000005_Node000038"><a xlink:title=" ">
<path fill="none" stroke="#63b8ff" d="M1164.45,-182.12C1179.2,-179.74 1195.82,-177.39 1211.1,-176 1786.71,-123.47 1937.25,-209.14 2511.1,-140 2517.95,-139.17 2525.15,-137.97 2532.16,-136.61"/>
<polygon fill="#63b8ff" stroke="#63b8ff" points="2533.14,-139.98 2542.23,-134.53 2531.73,-133.13 2533.14,-139.98"/>
</a>
</g>
</g>
<!-- Node5&#45;&gt;Node39 -->
<g id="edge39_Node000005_Node000039" class="edge">
<title>Node5&#45;&gt;Node39</title>
<g id="a_edge39_Node000005_Node000039"><a xlink:title=" ">
<path fill="none" stroke="#63b8ff" d="M1150.75,-181.46C1159.48,-179.28 1169.11,-177.22 1178.1,-176 1721.34,-102.2 1869.11,-222.52 2411.1,-140 2415.68,-139.3 2420.45,-138.32 2425.13,-137.19"/>
<polygon fill="#63b8ff" stroke="#63b8ff" points="2426.37,-140.49 2435.15,-134.56 2424.59,-133.72 2426.37,-140.49"/>
</a>
</g>
</g>
<!-- Node40 -->
<g id="Node000040" class="node">
<title>Node40</title>
<g id="a_Node000040"><a xlink:href="common__kernels_8h.html" target="_top" xlink:title=" ">
<polygon fill="white" stroke="#666666" points="2249.6,-134.5 2140.6,-134.5 2140.6,-115.5 2249.6,-115.5 2249.6,-134.5"/>
<text text-anchor="middle" x="2195.1" y="-122.5" font-family="Helvetica,sans-Serif" font-size="10.00">common_kernels.h</text>
</a>
</g>
</g>
<!-- Node5&#45;&gt;Node40 -->
<g id="edge40_Node000005_Node000040" class="edge">
<title>Node5&#45;&gt;Node40</title>
<g id="a_edge40_Node000005_Node000040"><a xlink:title=" ">
<path fill="none" stroke="#63b8ff" d="M1151.05,-181.43C1159.71,-179.29 1169.22,-177.24 1178.1,-176 1598.29,-117.09 1711.28,-194.24 2132.1,-140 2138.52,-139.17 2145.24,-138.01 2151.82,-136.7"/>
<polygon fill="#63b8ff" stroke="#63b8ff" points="2152.89,-140.05 2161.95,-134.55 2151.44,-133.2 2152.89,-140.05"/>
</a>
</g>
</g>
<!-- Node41 -->
<g id="Node000041" class="node">
<title>Node41</title>
<g id="a_Node000041"><a xlink:title=" ">
<polygon fill="#e0e0e0" stroke="#999999" points="2402.1,-140 2268.1,-140 2268.1,-110 2402.1,-110 2402.1,-140"/>
<text text-anchor="start" x="2276.1" y="-128" font-family="Helvetica,sans-Serif" font-size="10.00">load_and_store_uniform</text>
<text text-anchor="middle" x="2335.1" y="-117" font-family="Helvetica,sans-Serif" font-size="10.00">_header.h</text>
</a>
</g>
</g>
<!-- Node5&#45;&gt;Node41 -->
<g id="edge41_Node000005_Node000041" class="edge">
<title>Node5&#45;&gt;Node41</title>
<g id="a_edge41_Node000005_Node000041"><a xlink:title=" ">
<path fill="none" stroke="#63b8ff" d="M1150.75,-181.48C1159.49,-179.31 1169.11,-177.24 1178.1,-176 1650.93,-110.78 1779.36,-190.54 2257.75,-140.01"/>
<polygon fill="#63b8ff" stroke="#63b8ff" points="2258.47,-143.46 2268.04,-138.91 2257.73,-136.5 2258.47,-143.46"/>
</a>
</g>
</g>
<!-- Node8 -->
<g id="Node000008" class="node">
<title>Node8</title>
<g id="a_Node000008"><a xlink:title=" ">
<polygon fill="#e0e0e0" stroke="#999999" points="486.6,-19 373.6,-19 373.6,0 486.6,0 486.6,-19"/>
<text text-anchor="middle" x="430.1" y="-7" font-family="Helvetica,sans-Serif" font-size="10.00">cuda_runtime_api.h</text>
</a>
</g>
</g>
<!-- Node7&#45;&gt;Node8 -->
<g id="edge8_Node000007_Node000008" class="edge">
<title>Node7&#45;&gt;Node8</title>
<g id="a_edge8_Node000007_Node000008"><a xlink:title=" ">
<path fill="none" stroke="#63b8ff" d="M301.68,-54.98C327.15,-46.16 367.14,-32.31 395.73,-22.41"/>
<polygon fill="#63b8ff" stroke="#63b8ff" points="397.02,-25.66 405.32,-19.08 394.73,-19.05 397.02,-25.66"/>
</a>
</g>
</g>
<!-- Node9 -->
<g id="Node000009" class="node">
<title>Node9</title>
<g id="a_Node000009"><a xlink:title=" ">
<polygon fill="#e0e0e0" stroke="#999999" points="315.1,-19 239.1,-19 239.1,0 315.1,0 315.1,-19"/>
<text text-anchor="middle" x="277.1" y="-7" font-family="Helvetica,sans-Serif" font-size="10.00">cuda_fp16.h</text>
</a>
</g>
</g>
<!-- Node7&#45;&gt;Node9 -->
<g id="edge9_Node000007_Node000009" class="edge">
<title>Node7&#45;&gt;Node9</title>
<g id="a_edge9_Node000007_Node000009"><a xlink:title=" ">
<path fill="none" stroke="#63b8ff" d="M277.1,-54.75C277.1,-47.8 277.1,-37.85 277.1,-29.13"/>
<polygon fill="#63b8ff" stroke="#63b8ff" points="280.6,-29.09 277.1,-19.09 273.6,-29.09 280.6,-29.09"/>
</a>
</g>
</g>
<!-- Node11&#45;&gt;Node7 -->
<g id="edge14_Node000011_Node000007" class="edge">
<title>Node11&#45;&gt;Node7</title>
<g id="a_edge14_Node000011_Node000007"><a xlink:title=" ">
<path fill="none" stroke="#63b8ff" d="M412.98,-115.49C385.78,-105.49 340.43,-88.8 309.68,-77.49"/>
<polygon fill="#63b8ff" stroke="#63b8ff" points="310.84,-74.18 300.25,-74.02 308.42,-80.75 310.84,-74.18"/>
</a>
</g>
</g>
<!-- Node11&#45;&gt;Node8 -->
<g id="edge16_Node000011_Node000008" class="edge">
<title>Node11&#45;&gt;Node8</title>
<g id="a_edge16_Node000011_Node000008"><a xlink:title=" ">
<path fill="none" stroke="#63b8ff" d="M440.1,-115.49C445.72,-102.45 454.76,-76.75 450.1,-55 448.13,-45.8 444.1,-36.2 440.17,-28.29"/>
<polygon fill="#63b8ff" stroke="#63b8ff" points="443.19,-26.51 435.41,-19.32 437.01,-29.79 443.19,-26.51"/>
</a>
</g>
</g>
<!-- Node11&#45;&gt;Node10 -->
<g id="edge18_Node000011_Node000010" class="edge">
<title>Node11&#45;&gt;Node10</title>
<g id="a_edge18_Node000011_Node000010"><a xlink:title=" ">
<path fill="none" stroke="#63b8ff" d="M429.9,-115.37C423.7,-106.73 413.99,-93.2 406.24,-82.42"/>
<polygon fill="#63b8ff" stroke="#63b8ff" points="409,-80.25 400.32,-74.17 403.31,-84.33 409,-80.25"/>
</a>
</g>
</g>
<!-- Node12 -->
<g id="Node000012" class="node">
<title>Node12</title>
<g id="a_Node000012"><a xlink:title=" ">
<polygon fill="#e0e0e0" stroke="#999999" points="545.6,-74 498.6,-74 498.6,-55 545.6,-55 545.6,-74"/>
<text text-anchor="middle" x="522.1" y="-62" font-family="Helvetica,sans-Serif" font-size="10.00">float.h</text>
</a>
</g>
</g>
<!-- Node11&#45;&gt;Node12 -->
<g id="edge12_Node000011_Node000012" class="edge">
<title>Node11&#45;&gt;Node12</title>
<g id="a_edge12_Node000011_Node000012"><a xlink:title=" ">
<path fill="none" stroke="#63b8ff" d="M448.79,-115.37C462.51,-106.04 484.6,-91.01 500.95,-79.88"/>
<polygon fill="#63b8ff" stroke="#63b8ff" points="503.06,-82.69 509.36,-74.17 499.12,-76.9 503.06,-82.69"/>
</a>
</g>
</g>
<!-- Node13 -->
<g id="Node000013" class="node">
<title>Node13</title>
<g id="a_Node000013"><a xlink:title=" ">
<polygon fill="#e0e0e0" stroke="#999999" points="614.6,-74 563.6,-74 563.6,-55 614.6,-55 614.6,-74"/>
<text text-anchor="middle" x="589.1" y="-62" font-family="Helvetica,sans-Serif" font-size="10.00">math.h</text>
</a>
</g>
</g>
<!-- Node11&#45;&gt;Node13 -->
<g id="edge13_Node000011_Node000013" class="edge">
<title>Node11&#45;&gt;Node13</title>
<g id="a_edge13_Node000011_Node000013"><a xlink:title=" ">
<path fill="none" stroke="#63b8ff" d="M458.35,-115.49C484.41,-105.53 527.78,-88.95 557.36,-77.63"/>
<polygon fill="#63b8ff" stroke="#63b8ff" points="558.73,-80.86 566.82,-74.02 556.23,-74.32 558.73,-80.86"/>
</a>
</g>
</g>
<!-- Node14 -->
<g id="Node000014" class="node">
<title>Node14</title>
<g id="a_Node000014"><a xlink:title=" ">
<polygon fill="#e0e0e0" stroke="#999999" points="721.6,-74 632.6,-74 632.6,-55 721.6,-55 721.6,-74"/>
<text text-anchor="middle" x="677.1" y="-62" font-family="Helvetica,sans-Serif" font-size="10.00">vector_types.h</text>
</a>
</g>
</g>
<!-- Node11&#45;&gt;Node14 -->
<g id="edge15_Node000011_Node000014" class="edge">
<title>Node11&#45;&gt;Node14</title>
<g id="a_edge15_Node000011_Node000014"><a xlink:title=" ">
<path fill="none" stroke="#63b8ff" d="M463.25,-115.39C469.42,-113.53 475.97,-111.63 482.1,-110 530.57,-97.11 586.41,-84.6 625.88,-76.15"/>
<polygon fill="#63b8ff" stroke="#63b8ff" points="626.75,-79.54 635.8,-74.03 625.29,-72.69 626.75,-79.54"/>
</a>
</g>
</g>
<!-- Node15 -->
<g id="Node000015" class="node">
<title>Node15</title>
<g id="a_Node000015"><a xlink:href="acreal_8h.html" target="_top" xlink:title=" ">
<polygon fill="white" stroke="#666666" points="795.1,-74 739.1,-74 739.1,-55 795.1,-55 795.1,-74"/>
<text text-anchor="middle" x="767.1" y="-62" font-family="Helvetica,sans-Serif" font-size="10.00">acreal.h</text>
</a>
</g>
</g>
<!-- Node11&#45;&gt;Node15 -->
<g id="edge17_Node000011_Node000015" class="edge">
<title>Node11&#45;&gt;Node15</title>
<g id="a_edge17_Node000011_Node000015"><a xlink:title=" ">
<path fill="none" stroke="#63b8ff" d="M461.7,-115.46C468.3,-113.47 475.42,-111.49 482.1,-110 587.72,-86.4 618.87,-94.02 729.03,-74.05"/>
<polygon fill="#63b8ff" stroke="#63b8ff" points="729.67,-77.49 738.87,-72.24 728.4,-70.61 729.67,-77.49"/>
</a>
</g>
</g>
<!-- Node19&#45;&gt;Node4 -->
<g id="edge20_Node000019_Node000004" class="edge">
<title>Node19&#45;&gt;Node4</title>
<g id="a_edge20_Node000019_Node000004"><a xlink:title=" ">
<path fill="none" stroke="#63b8ff" d="M252.67,-115.49C223.8,-105.44 175.6,-88.66 143.1,-77.34"/>
<polygon fill="#63b8ff" stroke="#63b8ff" points="144.15,-74 133.56,-74.02 141.85,-80.61 144.15,-74"/>
</a>
</g>
</g>
<!-- Node19&#45;&gt;Node6 -->
<g id="edge21_Node000019_Node000006" class="edge">
<title>Node19&#45;&gt;Node6</title>
<g id="a_edge21_Node000019_Node000006"><a xlink:title=" ">
<path fill="none" stroke="#63b8ff" d="M263.23,-115.37C248.09,-105.95 223.64,-90.73 205.72,-79.58"/>
<polygon fill="#63b8ff" stroke="#63b8ff" points="207.37,-76.48 197.03,-74.17 203.67,-82.42 207.37,-76.48"/>
</a>
</g>
</g>
<!-- Node19&#45;&gt;Node7 -->
<g id="edge22_Node000019_Node000007" class="edge">
<title>Node19&#45;&gt;Node7</title>
<g id="a_edge22_Node000019_Node000007"><a xlink:title=" ">
<path fill="none" stroke="#63b8ff" d="M277.1,-115.37C277.1,-107.25 277.1,-94.81 277.1,-84.39"/>
<polygon fill="#63b8ff" stroke="#63b8ff" points="280.6,-84.17 277.1,-74.17 273.6,-84.17 280.6,-84.17"/>
</a>
</g>
</g>
<!-- Node46 -->
<g id="Node000046" class="node">
<title>Node46</title>
<g id="a_Node000046"><a xlink:title=" ">
<polygon fill="#e0e0e0" stroke="#999999" points="1513.6,-206 1394.6,-206 1394.6,-176 1513.6,-176 1513.6,-206"/>
<text text-anchor="start" x="1402.6" y="-194" font-family="Helvetica,sans-Serif" font-size="10.00">device_load_uniform</text>
<text text-anchor="middle" x="1454.1" y="-183" font-family="Helvetica,sans-Serif" font-size="10.00">_decl.h</text>
</a>
</g>
</g>
<!-- Node45&#45;&gt;Node46 -->
<g id="edge48_Node000045_Node000046" class="edge">
<title>Node45&#45;&gt;Node46</title>
<g id="a_edge48_Node000045_Node000046"><a xlink:title=" ">
<path fill="none" stroke="#63b8ff" d="M1475.41,-241.87C1472.43,-234.89 1468.08,-224.71 1464.09,-215.38"/>
<polygon fill="#63b8ff" stroke="#63b8ff" points="1467.28,-213.93 1460.13,-206.11 1460.84,-216.69 1467.28,-213.93"/>
</a>
</g>
</g>
<!-- Node47 -->
<g id="Node000047" class="node">
<title>Node47</title>
<g id="a_Node000047"><a xlink:title=" ">
<polygon fill="#e0e0e0" stroke="#999999" points="1654.1,-206 1532.1,-206 1532.1,-176 1654.1,-176 1654.1,-206"/>
<text text-anchor="start" x="1540.1" y="-194" font-family="Helvetica,sans-Serif" font-size="10.00">device_store_uniform</text>
<text text-anchor="middle" x="1593.1" y="-183" font-family="Helvetica,sans-Serif" font-size="10.00">_decl.h</text>
</a>
</g>
</g>
<!-- Node45&#45;&gt;Node47 -->
<g id="edge49_Node000045_Node000047" class="edge">
<title>Node45&#45;&gt;Node47</title>
<g id="a_edge49_Node000045_Node000047"><a xlink:title=" ">
<path fill="none" stroke="#63b8ff" d="M1495.92,-241.87C1511.82,-233.71 1536.2,-221.2 1556.56,-210.75"/>
<polygon fill="#63b8ff" stroke="#63b8ff" points="1558.29,-213.79 1565.59,-206.11 1555.1,-207.57 1558.29,-213.79"/>
</a>
</g>
</g>
</g>
</svg>
