<?xml version="1.0" encoding="UTF-8" standalone="no"?>
<!DOCTYPE svg PUBLIC "-//W3C//DTD SVG 1.1//EN"
 "http://www.w3.org/Graphics/SVG/1.1/DTD/svg11.dtd">
<!-- Generated by graphviz version 2.43.0 (0)
 -->
<!-- Title: src/core/analysis_helpers.cc Pages: 1 -->
<svg width="3054pt" height="379pt"
 viewBox="0.00 0.00 3053.50 379.00" xmlns="http://www.w3.org/2000/svg" xmlns:xlink="http://www.w3.org/1999/xlink">
<g id="graph0" class="graph" transform="scale(1 1) rotate(0) translate(4 375)">
<title>src/core/analysis_helpers.cc</title>
<!-- Node1 -->
<g id="Node000001" class="node">
<title>Node1</title>
<g id="a_Node000001"><a xlink:title=" ">
<polygon fill="#999999" stroke="#666666" points="2999.5,-371 2846.5,-371 2846.5,-352 2999.5,-352 2999.5,-371"/>
<text text-anchor="middle" x="2923" y="-359" font-family="Helvetica,sans-Serif" font-size="10.00">src/core/analysis_helpers.cc</text>
</a>
</g>
</g>
<!-- Node2 -->
<g id="Node000002" class="node">
<title>Node2</title>
<g id="a_Node000002"><a xlink:href="astaroth_8h.html" target="_top" xlink:title=" ">
<polygon fill="white" stroke="#666666" points="809,-316 743,-316 743,-297 809,-297 809,-316"/>
<text text-anchor="middle" x="776" y="-304" font-family="Helvetica,sans-Serif" font-size="10.00">astaroth.h</text>
</a>
</g>
</g>
<!-- Node1&#45;&gt;Node2 -->
<g id="edge1_Node000001_Node000002" class="edge">
<title>Node1&#45;&gt;Node2</title>
<g id="a_edge1_Node000001_Node000002"><a xlink:title=" ">
<path fill="none" stroke="#63b8ff" d="M2846.27,-358.61C2499.62,-350.05 1085.1,-315.13 819.2,-308.57"/>
<polygon fill="#63b8ff" stroke="#63b8ff" points="819.25,-305.07 809.16,-308.32 819.08,-312.06 819.25,-305.07"/>
</a>
</g>
</g>
<!-- Node38 -->
<g id="Node000038" class="node">
<title>Node38</title>
<g id="a_Node000038"><a xlink:href="astaroth__analysis_8h.html" target="_top" xlink:title=" ">
<polygon fill="white" stroke="#666666" points="2831,-134.5 2719,-134.5 2719,-115.5 2831,-115.5 2831,-134.5"/>
<text text-anchor="middle" x="2775" y="-122.5" font-family="Helvetica,sans-Serif" font-size="10.00">astaroth_analysis.h</text>
</a>
</g>
</g>
<!-- Node1&#45;&gt;Node38 -->
<g id="edge57_Node000001_Node000038" class="edge">
<title>Node1&#45;&gt;Node38</title>
<g id="a_edge57_Node000001_Node000038"><a xlink:title=" ">
<path fill="none" stroke="#63b8ff" d="M2917.56,-351.88C2895.89,-317.55 2815.55,-190.25 2786,-143.43"/>
<polygon fill="#63b8ff" stroke="#63b8ff" points="2788.95,-141.54 2780.65,-134.95 2783.03,-145.28 2788.95,-141.54"/>
</a>
</g>
</g>
<!-- Node56 -->
<g id="Node000056" class="node">
<title>Node56</title>
<g id="a_Node000056"><a xlink:title=" ">
<polygon fill="#e0e0e0" stroke="#999999" points="2972.5,-316 2925.5,-316 2925.5,-297 2972.5,-297 2972.5,-316"/>
<text text-anchor="middle" x="2949" y="-304" font-family="Helvetica,sans-Serif" font-size="10.00">vector</text>
</a>
</g>
</g>
<!-- Node1&#45;&gt;Node56 -->
<g id="edge58_Node000001_Node000056" class="edge">
<title>Node1&#45;&gt;Node56</title>
<g id="a_edge58_Node000001_Node000056"><a xlink:title=" ">
<path fill="none" stroke="#63b8ff" d="M2927.29,-351.75C2930.81,-344.57 2935.91,-334.18 2940.28,-325.27"/>
<polygon fill="#63b8ff" stroke="#63b8ff" points="2943.52,-326.61 2944.79,-316.09 2937.24,-323.53 2943.52,-326.61"/>
</a>
</g>
</g>
<!-- Node57 -->
<g id="Node000057" class="node">
<title>Node57</title>
<g id="a_Node000057"><a xlink:title=" ">
<polygon fill="#e0e0e0" stroke="#999999" points="3045.5,-316 2990.5,-316 2990.5,-297 3045.5,-297 3045.5,-316"/>
<text text-anchor="middle" x="3018" y="-304" font-family="Helvetica,sans-Serif" font-size="10.00">coeffs.h</text>
</a>
</g>
</g>
<!-- Node1&#45;&gt;Node57 -->
<g id="edge59_Node000001_Node000057" class="edge">
<title>Node1&#45;&gt;Node57</title>
<g id="a_edge59_Node000001_Node000057"><a xlink:title=" ">
<path fill="none" stroke="#63b8ff" d="M2938.26,-351.98C2953.13,-343.69 2975.98,-330.94 2993.42,-321.22"/>
<polygon fill="#63b8ff" stroke="#63b8ff" points="2995.43,-324.1 3002.46,-316.17 2992.02,-317.99 2995.43,-324.1"/>
</a>
</g>
</g>
<!-- Node3 -->
<g id="Node000003" class="node">
<title>Node3</title>
<g id="a_Node000003"><a xlink:href="astaroth__base_8h.html" target="_top" xlink:title=" ">
<polygon fill="white" stroke="#666666" points="1449.5,-261 1354.5,-261 1354.5,-242 1449.5,-242 1449.5,-261"/>
<text text-anchor="middle" x="1402" y="-249" font-family="Helvetica,sans-Serif" font-size="10.00">astaroth_base.h</text>
</a>
</g>
</g>
<!-- Node2&#45;&gt;Node3 -->
<g id="edge2_Node000002_Node000003" class="edge">
<title>Node2&#45;&gt;Node3</title>
<g id="a_edge2_Node000002_Node000003"><a xlink:title=" ">
<path fill="none" stroke="#63b8ff" d="M809.17,-303.76C895.59,-299.03 1134.97,-284.8 1344.42,-261.11"/>
<polygon fill="#63b8ff" stroke="#63b8ff" points="1344.83,-264.58 1354.37,-259.97 1344.04,-257.63 1344.83,-264.58"/>
</a>
</g>
</g>
<!-- Node44 -->
<g id="Node000044" class="node">
<title>Node44</title>
<g id="a_Node000044"><a xlink:href="astaroth__grid_8h.html" target="_top" xlink:title=" ">
<polygon fill="white" stroke="#666666" points="90,-261 0,-261 0,-242 90,-242 90,-261"/>
<text text-anchor="middle" x="45" y="-249" font-family="Helvetica,sans-Serif" font-size="10.00">astaroth_grid.h</text>
</a>
</g>
</g>
<!-- Node2&#45;&gt;Node44 -->
<g id="edge45_Node000002_Node000044" class="edge">
<title>Node2&#45;&gt;Node44</title>
<g id="a_edge45_Node000002_Node000044"><a xlink:title=" ">
<path fill="none" stroke="#63b8ff" d="M742.8,-304.38C645.63,-300.89 353.27,-288.76 100.16,-261.02"/>
<polygon fill="#63b8ff" stroke="#63b8ff" points="100.36,-257.52 90.04,-259.9 99.59,-264.48 100.36,-257.52"/>
</a>
</g>
</g>
<!-- Node45 -->
<g id="Node000045" class="node">
<title>Node45</title>
<g id="a_Node000045"><a xlink:href="astaroth__node_8h.html" target="_top" xlink:title=" ">
<polygon fill="white" stroke="#666666" points="203.5,-261 108.5,-261 108.5,-242 203.5,-242 203.5,-261"/>
<text text-anchor="middle" x="156" y="-249" font-family="Helvetica,sans-Serif" font-size="10.00">astaroth_node.h</text>
</a>
</g>
</g>
<!-- Node2&#45;&gt;Node45 -->
<g id="edge46_Node000002_Node000045" class="edge">
<title>Node2&#45;&gt;Node45</title>
<g id="a_edge46_Node000002_Node000045"><a xlink:title=" ">
<path fill="none" stroke="#63b8ff" d="M742.93,-303.69C657.35,-298.83 421.45,-284.34 213.74,-261"/>
<polygon fill="#63b8ff" stroke="#63b8ff" points="213.88,-257.49 203.55,-259.84 213.1,-264.45 213.88,-257.49"/>
</a>
</g>
</g>
<!-- Node46 -->
<g id="Node000046" class="node">
<title>Node46</title>
<g id="a_Node000046"><a xlink:href="astaroth__device_8h.html" target="_top" xlink:title=" ">
<polygon fill="white" stroke="#666666" points="326,-261 222,-261 222,-242 326,-242 326,-261"/>
<text text-anchor="middle" x="274" y="-249" font-family="Helvetica,sans-Serif" font-size="10.00">astaroth_device.h</text>
</a>
</g>
</g>
<!-- Node2&#45;&gt;Node46 -->
<g id="edge47_Node000002_Node000046" class="edge">
<title>Node2&#45;&gt;Node46</title>
<g id="a_edge47_Node000002_Node000046"><a xlink:title=" ">
<path fill="none" stroke="#63b8ff" d="M742.76,-302.58C670.77,-296.16 494.82,-279.97 336.62,-261.15"/>
<polygon fill="#63b8ff" stroke="#63b8ff" points="336.57,-257.62 326.23,-259.91 335.74,-264.57 336.57,-257.62"/>
</a>
</g>
</g>
<!-- Node49 -->
<g id="Node000049" class="node">
<title>Node49</title>
<g id="a_Node000049"><a xlink:href="astaroth__legacy_8h.html" target="_top" xlink:title=" ">
<polygon fill="white" stroke="#666666" points="446,-261 344,-261 344,-242 446,-242 446,-261"/>
<text text-anchor="middle" x="395" y="-249" font-family="Helvetica,sans-Serif" font-size="10.00">astaroth_legacy.h</text>
</a>
</g>
</g>
<!-- Node2&#45;&gt;Node49 -->
<g id="edge50_Node000002_Node000049" class="edge">
<title>Node2&#45;&gt;Node49</title>
<g id="a_edge50_Node000002_Node000049"><a xlink:title=" ">
<path fill="none" stroke="#63b8ff" d="M742.72,-300.92C686.13,-293.12 567.26,-276.72 456.1,-261.15"/>
<polygon fill="#63b8ff" stroke="#63b8ff" points="456.45,-257.67 446.06,-259.74 455.48,-264.6 456.45,-257.67"/>
</a>
</g>
</g>
<!-- Node50 -->
<g id="Node000050" class="node">
<title>Node50</title>
<g id="a_Node000050"><a xlink:title=" ">
<polygon fill="#e0e0e0" stroke="#999999" points="603.5,-261 464.5,-261 464.5,-242 603.5,-242 603.5,-261"/>
<text text-anchor="middle" x="534" y="-249" font-family="Helvetica,sans-Serif" font-size="10.00">device_set_input_decls.h</text>
</a>
</g>
</g>
<!-- Node2&#45;&gt;Node50 -->
<g id="edge51_Node000002_Node000050" class="edge">
<title>Node2&#45;&gt;Node50</title>
<g id="a_edge51_Node000002_Node000050"><a xlink:title=" ">
<path fill="none" stroke="#63b8ff" d="M742.86,-298.24C701.53,-289.19 630.52,-273.64 582.93,-263.22"/>
<polygon fill="#63b8ff" stroke="#63b8ff" points="583.66,-259.79 573.14,-261.07 582.16,-266.63 583.66,-259.79"/>
</a>
</g>
</g>
<!-- Node51 -->
<g id="Node000051" class="node">
<title>Node51</title>
<g id="a_Node000051"><a xlink:title=" ">
<polygon fill="#e0e0e0" stroke="#999999" points="768,-261 622,-261 622,-242 768,-242 768,-261"/>
<text text-anchor="middle" x="695" y="-249" font-family="Helvetica,sans-Serif" font-size="10.00">device_get_output_decls.h</text>
</a>
</g>
</g>
<!-- Node2&#45;&gt;Node51 -->
<g id="edge52_Node000002_Node000051" class="edge">
<title>Node2&#45;&gt;Node51</title>
<g id="a_edge52_Node000002_Node000051"><a xlink:title=" ">
<path fill="none" stroke="#63b8ff" d="M762.99,-296.98C750.54,-288.84 731.54,-276.41 716.79,-266.76"/>
<polygon fill="#63b8ff" stroke="#63b8ff" points="718.54,-263.72 708.25,-261.17 714.7,-269.57 718.54,-263.72"/>
</a>
</g>
</g>
<!-- Node52 -->
<g id="Node000052" class="node">
<title>Node52</title>
<g id="a_Node000052"><a xlink:title=" ">
<polygon fill="#e0e0e0" stroke="#999999" points="926,-261 786,-261 786,-242 926,-242 926,-261"/>
<text text-anchor="middle" x="856" y="-249" font-family="Helvetica,sans-Serif" font-size="10.00">device_get_input_decls.h</text>
</a>
</g>
</g>
<!-- Node2&#45;&gt;Node52 -->
<g id="edge53_Node000002_Node000052" class="edge">
<title>Node2&#45;&gt;Node52</title>
<g id="a_edge53_Node000002_Node000052"><a xlink:title=" ">
<path fill="none" stroke="#63b8ff" d="M788.85,-296.98C801.14,-288.84 819.91,-276.41 834.48,-266.76"/>
<polygon fill="#63b8ff" stroke="#63b8ff" points="836.51,-269.61 842.91,-261.17 832.64,-263.78 836.51,-269.61"/>
</a>
</g>
</g>
<!-- Node53 -->
<g id="Node000053" class="node">
<title>Node53</title>
<g id="a_Node000053"><a xlink:title=" ">
<polygon fill="#e0e0e0" stroke="#999999" points="1074,-261 944,-261 944,-242 1074,-242 1074,-261"/>
<text text-anchor="middle" x="1009" y="-249" font-family="Helvetica,sans-Serif" font-size="10.00">get_vtxbufs_declares.h</text>
</a>
</g>
</g>
<!-- Node2&#45;&gt;Node53 -->
<g id="edge54_Node000002_Node000053" class="edge">
<title>Node2&#45;&gt;Node53</title>
<g id="a_edge54_Node000002_Node000053"><a xlink:title=" ">
<path fill="none" stroke="#63b8ff" d="M809.38,-297.91C849.28,-288.83 916.3,-273.59 961.56,-263.29"/>
<polygon fill="#63b8ff" stroke="#63b8ff" points="962.46,-266.68 971.43,-261.05 960.91,-259.85 962.46,-266.68"/>
</a>
</g>
</g>
<!-- Node54 -->
<g id="Node000054" class="node">
<title>Node54</title>
<g id="a_Node000054"><a xlink:href="astaroth__runtime__compilation_8h.html" target="_top" xlink:title=" ">
<polygon fill="white" stroke="#666666" points="1265.5,-261 1092.5,-261 1092.5,-242 1265.5,-242 1265.5,-261"/>
<text text-anchor="middle" x="1179" y="-249" font-family="Helvetica,sans-Serif" font-size="10.00">astaroth_runtime_compilation.h</text>
</a>
</g>
</g>
<!-- Node2&#45;&gt;Node54 -->
<g id="edge55_Node000002_Node000054" class="edge">
<title>Node2&#45;&gt;Node54</title>
<g id="a_edge55_Node000002_Node000054"><a xlink:title=" ">
<path fill="none" stroke="#63b8ff" d="M809.32,-301.12C873.6,-292.66 1016.14,-273.92 1104.25,-262.33"/>
<polygon fill="#63b8ff" stroke="#63b8ff" points="1104.73,-265.8 1114.19,-261.02 1103.82,-258.86 1104.73,-265.8"/>
</a>
</g>
</g>
<!-- Node55 -->
<g id="Node000055" class="node">
<title>Node55</title>
<g id="a_Node000055"><a xlink:title=" ">
<polygon fill="#e0e0e0" stroke="#999999" points="1336.5,-261 1283.5,-261 1283.5,-242 1336.5,-242 1336.5,-261"/>
<text text-anchor="middle" x="1310" y="-249" font-family="Helvetica,sans-Serif" font-size="10.00">string.h</text>
</a>
</g>
</g>
<!-- Node2&#45;&gt;Node55 -->
<g id="edge56_Node000002_Node000055" class="edge">
<title>Node2&#45;&gt;Node55</title>
<g id="a_edge56_Node000002_Node000055"><a xlink:title=" ">
<path fill="none" stroke="#63b8ff" d="M809.21,-304.25C888.17,-300.92 1093.42,-290.12 1273.42,-261.04"/>
<polygon fill="#63b8ff" stroke="#63b8ff" points="1274.03,-264.48 1283.33,-259.41 1272.9,-257.57 1274.03,-264.48"/>
</a>
</g>
</g>
<!-- Node4 -->
<g id="Node000004" class="node">
<title>Node4</title>
<g id="a_Node000004"><a xlink:title=" ">
<polygon fill="#e0e0e0" stroke="#999999" points="2722,-74 2660,-74 2660,-55 2722,-55 2722,-74"/>
<text text-anchor="middle" x="2691" y="-62" font-family="Helvetica,sans-Serif" font-size="10.00">stdbool.h</text>
</a>
</g>
</g>
<!-- Node3&#45;&gt;Node4 -->
<g id="edge3_Node000003_Node000004" class="edge">
<title>Node3&#45;&gt;Node4</title>
<g id="a_edge3_Node000003_Node000004"><a xlink:title=" ">
<path fill="none" stroke="#63b8ff" d="M1449.86,-250.58C1688.63,-250.5 2743.5,-244.2 2840,-140 2875.34,-101.85 2787.53,-80.54 2732.13,-71.23"/>
<polygon fill="#63b8ff" stroke="#63b8ff" points="2732.63,-67.77 2722.2,-69.63 2731.52,-74.68 2732.63,-67.77"/>
</a>
</g>
</g>
<!-- Node5 -->
<g id="Node000005" class="node">
<title>Node5</title>
<g id="a_Node000005"><a xlink:href="acc__runtime_8h.html" target="_top" xlink:title=" ">
<polygon fill="white" stroke="#666666" points="1480,-200.5 1394,-200.5 1394,-181.5 1480,-181.5 1480,-200.5"/>
<text text-anchor="middle" x="1437" y="-188.5" font-family="Helvetica,sans-Serif" font-size="10.00">acc_runtime.h</text>
</a>
</g>
</g>
<!-- Node3&#45;&gt;Node5 -->
<g id="edge4_Node000003_Node000005" class="edge">
<title>Node3&#45;&gt;Node5</title>
<g id="a_edge4_Node000003_Node000005"><a xlink:title=" ">
<path fill="none" stroke="#63b8ff" d="M1407.16,-241.87C1412.23,-233.4 1420.1,-220.24 1426.49,-209.57"/>
<polygon fill="#63b8ff" stroke="#63b8ff" points="1429.68,-211.05 1431.81,-200.67 1423.68,-207.45 1429.68,-211.05"/>
</a>
</g>
</g>
<!-- Node25 -->
<g id="Node000025" class="node">
<title>Node25</title>
<g id="a_Node000025"><a xlink:title=" ">
<polygon fill="#e0e0e0" stroke="#999999" points="323.5,-134.5 184.5,-134.5 184.5,-115.5 323.5,-115.5 323.5,-134.5"/>
<text text-anchor="middle" x="254" y="-122.5" font-family="Helvetica,sans-Serif" font-size="10.00">user_built&#45;in_constants.h</text>
</a>
</g>
</g>
<!-- Node3&#45;&gt;Node25 -->
<g id="edge43_Node000003_Node000025" class="edge">
<title>Node3&#45;&gt;Node25</title>
<g id="a_edge43_Node000003_Node000025"><a xlink:title=" ">
<path fill="none" stroke="#63b8ff" d="M1398.53,-241.56C1391.59,-225.11 1374.3,-190.4 1347,-176 1247.77,-123.67 449.62,-151.24 338,-140 328.5,-139.04 318.45,-137.68 308.73,-136.17"/>
<polygon fill="#63b8ff" stroke="#63b8ff" points="309.19,-132.7 298.76,-134.56 308.07,-139.61 309.19,-132.7"/>
</a>
</g>
</g>
<!-- Node39 -->
<g id="Node000039" class="node">
<title>Node39</title>
<g id="a_Node000039"><a xlink:href="func__define_8h.html" target="_top" xlink:title=" ">
<polygon fill="white" stroke="#666666" points="166,-134.5 84,-134.5 84,-115.5 166,-115.5 166,-134.5"/>
<text text-anchor="middle" x="125" y="-122.5" font-family="Helvetica,sans-Serif" font-size="10.00">func_define.h</text>
</a>
</g>
</g>
<!-- Node3&#45;&gt;Node39 -->
<g id="edge42_Node000003_Node000039" class="edge">
<title>Node3&#45;&gt;Node39</title>
<g id="a_edge42_Node000003_Node000039"><a xlink:title=" ">
<path fill="none" stroke="#63b8ff" d="M1354.37,-243.06C1351.54,-242.68 1348.73,-242.33 1346,-242 1086.63,-211.05 431.99,-186.75 175,-140 170.76,-139.23 166.36,-138.26 162.01,-137.19"/>
<polygon fill="#63b8ff" stroke="#63b8ff" points="162.59,-133.72 152.03,-134.56 160.81,-140.49 162.59,-133.72"/>
</a>
</g>
</g>
<!-- Node43 -->
<g id="Node000043" class="node">
<title>Node43</title>
<g id="a_Node000043"><a xlink:title=" ">
<polygon fill="#e0e0e0" stroke="#999999" points="1337.5,-206 1206.5,-206 1206.5,-176 1337.5,-176 1337.5,-206"/>
<text text-anchor="start" x="1214.5" y="-194" font-family="Helvetica,sans-Serif" font-size="10.00">user_builtin_non_scalar</text>
<text text-anchor="middle" x="1272" y="-183" font-family="Helvetica,sans-Serif" font-size="10.00">_constants.h</text>
</a>
</g>
</g>
<!-- Node3&#45;&gt;Node43 -->
<g id="edge44_Node000003_Node000043" class="edge">
<title>Node3&#45;&gt;Node43</title>
<g id="a_edge44_Node000003_Node000043"><a xlink:title=" ">
<path fill="none" stroke="#63b8ff" d="M1383.1,-241.99C1364.71,-233.72 1336.2,-220.89 1312.66,-210.3"/>
<polygon fill="#63b8ff" stroke="#63b8ff" points="1313.81,-206.98 1303.25,-206.06 1310.94,-213.36 1313.81,-206.98"/>
</a>
</g>
</g>
<!-- Node5&#45;&gt;Node4 -->
<g id="edge6_Node000005_Node000004" class="edge">
<title>Node5&#45;&gt;Node4</title>
<g id="a_edge6_Node000005_Node000004"><a xlink:title=" ">
<path fill="none" stroke="#63b8ff" d="M1480.18,-189.69C1693.32,-187.96 2624.76,-178.26 2672,-140 2688.34,-126.77 2691.76,-101.62 2691.98,-84.22"/>
<polygon fill="#63b8ff" stroke="#63b8ff" points="2695.48,-84.04 2691.77,-74.12 2688.48,-84.19 2695.48,-84.04"/>
</a>
</g>
</g>
<!-- Node6 -->
<g id="Node000006" class="node">
<title>Node6</title>
<g id="a_Node000006"><a xlink:title=" ">
<polygon fill="#e0e0e0" stroke="#999999" points="2623,-74 2573,-74 2573,-55 2623,-55 2623,-74"/>
<text text-anchor="middle" x="2598" y="-62" font-family="Helvetica,sans-Serif" font-size="10.00">stdio.h</text>
</a>
</g>
</g>
<!-- Node5&#45;&gt;Node6 -->
<g id="edge5_Node000005_Node000006" class="edge">
<title>Node5&#45;&gt;Node6</title>
<g id="a_edge5_Node000005_Node000006"><a xlink:title=" ">
<path fill="none" stroke="#63b8ff" d="M1480.05,-189.29C1680.41,-185.84 2513.82,-169.72 2560,-140 2579.41,-127.51 2589.37,-101.79 2594.13,-84.1"/>
<polygon fill="#63b8ff" stroke="#63b8ff" points="2597.55,-84.85 2596.46,-74.31 2590.74,-83.23 2597.55,-84.85"/>
</a>
</g>
</g>
<!-- Node7 -->
<g id="Node000007" class="node">
<title>Node7</title>
<g id="a_Node000007"><a xlink:href="device__headers_8h.html" target="_top" xlink:title=" ">
<polygon fill="white" stroke="#666666" points="708,-74 606,-74 606,-55 708,-55 708,-74"/>
<text text-anchor="middle" x="657" y="-62" font-family="Helvetica,sans-Serif" font-size="10.00">device_headers.h</text>
</a>
</g>
</g>
<!-- Node5&#45;&gt;Node7 -->
<g id="edge7_Node000005_Node000007" class="edge">
<title>Node5&#45;&gt;Node7</title>
<g id="a_edge7_Node000005_Node000007"><a xlink:title=" ">
<path fill="none" stroke="#63b8ff" d="M1407.05,-181.45C1398.39,-179.31 1388.88,-177.26 1380,-176 1331.61,-169.14 534.84,-175.26 501,-140 467.33,-104.92 538.76,-84.4 595.75,-74.07"/>
<polygon fill="#63b8ff" stroke="#63b8ff" points="596.58,-77.47 605.83,-72.31 595.38,-70.58 596.58,-77.47"/>
</a>
</g>
</g>
<!-- Node10 -->
<g id="Node000010" class="node">
<title>Node10</title>
<g id="a_Node000010"><a xlink:title=" ">
<polygon fill="#e0e0e0" stroke="#999999" points="308.5,-74 213.5,-74 213.5,-55 308.5,-55 308.5,-74"/>
<text text-anchor="middle" x="261" y="-62" font-family="Helvetica,sans-Serif" font-size="10.00">builtin_enums.h</text>
</a>
</g>
</g>
<!-- Node5&#45;&gt;Node10 -->
<g id="edge10_Node000005_Node000010" class="edge">
<title>Node5&#45;&gt;Node10</title>
<g id="a_edge10_Node000005_Node000010"><a xlink:title=" ">
<path fill="none" stroke="#63b8ff" d="M1404.92,-181.44C1395.65,-179.29 1385.48,-177.25 1376,-176 1265.21,-161.44 476.13,-177.87 371,-140 350.43,-132.59 349.95,-122.49 332,-110 316.42,-99.16 298.29,-87.82 284.25,-79.3"/>
<polygon fill="#63b8ff" stroke="#63b8ff" points="286.05,-76.3 275.68,-74.14 282.44,-82.29 286.05,-76.3"/>
</a>
</g>
</g>
<!-- Node11 -->
<g id="Node000011" class="node">
<title>Node11</title>
<g id="a_Node000011"><a xlink:href="datatypes_8h.html" target="_top" xlink:title=" ">
<polygon fill="#fff0f0" stroke="red" points="454,-134.5 380,-134.5 380,-115.5 454,-115.5 454,-134.5"/>
<text text-anchor="middle" x="417" y="-122.5" font-family="Helvetica,sans-Serif" font-size="10.00">datatypes.h</text>
</a>
</g>
</g>
<!-- Node5&#45;&gt;Node11 -->
<g id="edge11_Node000005_Node000011" class="edge">
<title>Node5&#45;&gt;Node11</title>
<g id="a_edge11_Node000005_Node000011"><a xlink:title=" ">
<path fill="none" stroke="#63b8ff" d="M1407.05,-181.44C1398.39,-179.3 1388.88,-177.25 1380,-176 978.33,-119.33 868.87,-202.1 468,-140 463.21,-139.26 458.22,-138.22 453.32,-137.05"/>
<polygon fill="#63b8ff" stroke="#63b8ff" points="454.04,-133.63 443.48,-134.5 452.29,-140.4 454.04,-133.63"/>
</a>
</g>
</g>
<!-- Node19 -->
<g id="Node000019" class="node">
<title>Node19</title>
<g id="a_Node000019"><a xlink:href="errchk_8h.html" target="_top" xlink:title="Brief info.">
<polygon fill="#fff0f0" stroke="red" points="2663,-134.5 2607,-134.5 2607,-115.5 2663,-115.5 2663,-134.5"/>
<text text-anchor="middle" x="2635" y="-122.5" font-family="Helvetica,sans-Serif" font-size="10.00">errchk.h</text>
</a>
</g>
</g>
<!-- Node5&#45;&gt;Node19 -->
<g id="edge18_Node000005_Node000019" class="edge">
<title>Node5&#45;&gt;Node19</title>
<g id="a_edge18_Node000005_Node000019"><a xlink:title=" ">
<path fill="none" stroke="#63b8ff" d="M1480.22,-189.74C1663.03,-188.38 2373.35,-180.53 2593,-140 2596.43,-139.37 2599.96,-138.52 2603.46,-137.55"/>
<polygon fill="#63b8ff" stroke="#63b8ff" points="2604.54,-140.88 2613.07,-134.59 2602.48,-134.19 2604.54,-140.88"/>
</a>
</g>
</g>
<!-- Node23 -->
<g id="Node000023" class="node">
<title>Node23</title>
<g id="a_Node000023"><a xlink:title=" ">
<polygon fill="#e0e0e0" stroke="#999999" points="597.5,-134.5 510.5,-134.5 510.5,-115.5 597.5,-115.5 597.5,-134.5"/>
<text text-anchor="middle" x="554" y="-122.5" font-family="Helvetica,sans-Serif" font-size="10.00">user_defines.h</text>
</a>
</g>
</g>
<!-- Node5&#45;&gt;Node23 -->
<g id="edge22_Node000005_Node000023" class="edge">
<title>Node5&#45;&gt;Node23</title>
<g id="a_edge22_Node000005_Node000023"><a xlink:title=" ">
<path fill="none" stroke="#63b8ff" d="M1407.04,-181.48C1398.38,-179.34 1388.87,-177.28 1380,-176 1039.62,-126.75 946.94,-192.21 607,-140 601.96,-139.23 596.7,-138.16 591.54,-136.96"/>
<polygon fill="#63b8ff" stroke="#63b8ff" points="592.37,-133.56 581.82,-134.53 590.67,-140.35 592.37,-133.56"/>
</a>
</g>
</g>
<!-- Node24 -->
<g id="Node000024" class="node">
<title>Node24</title>
<g id="a_Node000024"><a xlink:title=" ">
<polygon fill="#e0e0e0" stroke="#999999" points="702,-134.5 616,-134.5 616,-115.5 702,-115.5 702,-134.5"/>
<text text-anchor="middle" x="659" y="-122.5" font-family="Helvetica,sans-Serif" font-size="10.00">profiles_info.h</text>
</a>
</g>
</g>
<!-- Node5&#45;&gt;Node24 -->
<g id="edge23_Node000005_Node000024" class="edge">
<title>Node5&#45;&gt;Node24</title>
<g id="a_edge23_Node000005_Node000024"><a xlink:title=" ">
<path fill="none" stroke="#63b8ff" d="M1406.74,-181.45C1398.16,-179.33 1388.77,-177.3 1380,-176 1085.46,-132.3 1005.04,-186.96 711,-140 706.23,-139.24 701.27,-138.21 696.39,-137.06"/>
<polygon fill="#63b8ff" stroke="#63b8ff" points="697.12,-133.64 686.56,-134.57 695.4,-140.42 697.12,-133.64"/>
</a>
</g>
</g>
<!-- Node5&#45;&gt;Node25 -->
<g id="edge24_Node000005_Node000025" class="edge">
<title>Node5&#45;&gt;Node25</title>
<g id="a_edge24_Node000005_Node000025"><a xlink:title=" ">
<path fill="none" stroke="#63b8ff" d="M1407.35,-181.49C1398.61,-179.32 1388.98,-177.24 1380,-176 921,-112.4 799.08,-186.19 338,-140 328.5,-139.05 318.45,-137.69 308.73,-136.18"/>
<polygon fill="#63b8ff" stroke="#63b8ff" points="309.19,-132.71 298.76,-134.57 308.07,-139.62 309.19,-132.71"/>
</a>
</g>
</g>
<!-- Node26 -->
<g id="Node000026" class="node">
<title>Node26</title>
<g id="a_Node000026"><a xlink:href="func__attributes_8h.html" target="_top" xlink:title=" ">
<polygon fill="white" stroke="#666666" points="819.5,-134.5 720.5,-134.5 720.5,-115.5 819.5,-115.5 819.5,-134.5"/>
<text text-anchor="middle" x="770" y="-122.5" font-family="Helvetica,sans-Serif" font-size="10.00">func_attributes.h</text>
</a>
</g>
</g>
<!-- Node5&#45;&gt;Node26 -->
<g id="edge25_Node000005_Node000026" class="edge">
<title>Node5&#45;&gt;Node26</title>
<g id="a_edge25_Node000005_Node000026"><a xlink:title=" ">
<path fill="none" stroke="#63b8ff" d="M1406.43,-181.45C1397.94,-179.35 1388.66,-177.34 1380,-176 1137.46,-138.59 1071.69,-176.46 829,-140 823.4,-139.16 817.56,-138.05 811.81,-136.83"/>
<polygon fill="#63b8ff" stroke="#63b8ff" points="812.18,-133.33 801.65,-134.54 810.64,-140.16 812.18,-133.33"/>
</a>
</g>
</g>
<!-- Node27 -->
<g id="Node000027" class="node">
<title>Node27</title>
<g id="a_Node000027"><a xlink:title=" ">
<polygon fill="#e0e0e0" stroke="#999999" points="962.5,-134.5 837.5,-134.5 837.5,-115.5 962.5,-115.5 962.5,-134.5"/>
<text text-anchor="middle" x="900" y="-122.5" font-family="Helvetica,sans-Serif" font-size="10.00">user_input_typedefs.h</text>
</a>
</g>
</g>
<!-- Node5&#45;&gt;Node27 -->
<g id="edge26_Node000005_Node000027" class="edge">
<title>Node5&#45;&gt;Node27</title>
<g id="a_edge26_Node000005_Node000027"><a xlink:title=" ">
<path fill="none" stroke="#63b8ff" d="M1405.82,-181.43C1397.48,-179.39 1388.44,-177.4 1380,-176 1200.42,-146.2 1152.26,-165.41 972,-140 964.8,-138.99 957.24,-137.73 949.83,-136.39"/>
<polygon fill="#63b8ff" stroke="#63b8ff" points="950.34,-132.92 939.86,-134.52 949.05,-139.8 950.34,-132.92"/>
</a>
</g>
</g>
<!-- Node28 -->
<g id="Node000028" class="node">
<title>Node28</title>
<g id="a_Node000028"><a xlink:title=" ">
<polygon fill="#e0e0e0" stroke="#999999" points="1063.5,-134.5 980.5,-134.5 980.5,-115.5 1063.5,-115.5 1063.5,-134.5"/>
<text text-anchor="middle" x="1022" y="-122.5" font-family="Helvetica,sans-Serif" font-size="10.00">output_decl.h</text>
</a>
</g>
</g>
<!-- Node5&#45;&gt;Node28 -->
<g id="edge27_Node000005_Node000028" class="edge">
<title>Node5&#45;&gt;Node28</title>
<g id="a_edge27_Node000005_Node000028"><a xlink:title=" ">
<path fill="none" stroke="#63b8ff" d="M1405.19,-181.45C1397.03,-179.46 1388.22,-177.49 1380,-176 1244.81,-151.57 1207.85,-166.26 1073,-140 1068.79,-139.18 1064.42,-138.19 1060.09,-137.13"/>
<polygon fill="#63b8ff" stroke="#63b8ff" points="1060.7,-133.67 1050.14,-134.54 1058.94,-140.45 1060.7,-133.67"/>
</a>
</g>
</g>
<!-- Node29 -->
<g id="Node000029" class="node">
<title>Node29</title>
<g id="a_Node000029"><a xlink:title=" ">
<polygon fill="#e0e0e0" stroke="#999999" points="1198,-134.5 1082,-134.5 1082,-115.5 1198,-115.5 1198,-134.5"/>
<text text-anchor="middle" x="1140" y="-122.5" font-family="Helvetica,sans-Serif" font-size="10.00">comp_loaded_decl.h</text>
</a>
</g>
</g>
<!-- Node5&#45;&gt;Node29 -->
<g id="edge28_Node000005_Node000029" class="edge">
<title>Node5&#45;&gt;Node29</title>
<g id="a_edge28_Node000005_Node000029"><a xlink:title=" ">
<path fill="none" stroke="#63b8ff" d="M1402.99,-181.44C1395.43,-179.59 1387.45,-177.69 1380,-176 1303.41,-158.63 1283.88,-156.03 1207,-140 1201.69,-138.89 1196.15,-137.74 1190.62,-136.58"/>
<polygon fill="#63b8ff" stroke="#63b8ff" points="1191.25,-133.14 1180.74,-134.52 1189.82,-139.99 1191.25,-133.14"/>
</a>
</g>
</g>
<!-- Node30 -->
<g id="Node000030" class="node">
<title>Node30</title>
<g id="a_Node000030"><a xlink:title=" ">
<polygon fill="#e0e0e0" stroke="#999999" points="1294,-134.5 1216,-134.5 1216,-115.5 1294,-115.5 1294,-134.5"/>
<text text-anchor="middle" x="1255" y="-122.5" font-family="Helvetica,sans-Serif" font-size="10.00">comp_decl.h</text>
</a>
</g>
</g>
<!-- Node5&#45;&gt;Node30 -->
<g id="edge29_Node000005_Node000030" class="edge">
<title>Node5&#45;&gt;Node30</title>
<g id="a_edge29_Node000005_Node000030"><a xlink:title=" ">
<path fill="none" stroke="#63b8ff" d="M1412.45,-181.37C1380.62,-170.17 1324.91,-150.58 1289.01,-137.96"/>
<polygon fill="#63b8ff" stroke="#63b8ff" points="1290.04,-134.61 1279.45,-134.6 1287.72,-141.22 1290.04,-134.61"/>
</a>
</g>
</g>
<!-- Node31 -->
<g id="Node000031" class="node">
<title>Node31</title>
<g id="a_Node000031"><a xlink:title=" ">
<polygon fill="#e0e0e0" stroke="#999999" points="1420,-134.5 1312,-134.5 1312,-115.5 1420,-115.5 1420,-134.5"/>
<text text-anchor="middle" x="1366" y="-122.5" font-family="Helvetica,sans-Serif" font-size="10.00">info_loaded_decl.h</text>
</a>
</g>
</g>
<!-- Node5&#45;&gt;Node31 -->
<g id="edge30_Node000005_Node000031" class="edge">
<title>Node5&#45;&gt;Node31</title>
<g id="a_edge30_Node000005_Node000031"><a xlink:title=" ">
<path fill="none" stroke="#63b8ff" d="M1427.42,-181.37C1416.16,-171.21 1397.24,-154.16 1383.37,-141.65"/>
<polygon fill="#63b8ff" stroke="#63b8ff" points="1385.65,-139 1375.88,-134.91 1380.96,-144.2 1385.65,-139"/>
</a>
</g>
</g>
<!-- Node32 -->
<g id="Node000032" class="node">
<title>Node32</title>
<g id="a_Node000032"><a xlink:title=" ">
<polygon fill="#e0e0e0" stroke="#999999" points="1578,-134.5 1438,-134.5 1438,-115.5 1578,-115.5 1578,-134.5"/>
<text text-anchor="middle" x="1508" y="-122.5" font-family="Helvetica,sans-Serif" font-size="10.00">device_mesh_info_decl.h</text>
</a>
</g>
</g>
<!-- Node5&#45;&gt;Node32 -->
<g id="edge31_Node000005_Node000032" class="edge">
<title>Node5&#45;&gt;Node32</title>
<g id="a_edge31_Node000005_Node000032"><a xlink:title=" ">
<path fill="none" stroke="#63b8ff" d="M1446.58,-181.37C1457.84,-171.21 1476.76,-154.16 1490.63,-141.65"/>
<polygon fill="#63b8ff" stroke="#63b8ff" points="1493.04,-144.2 1498.12,-134.91 1488.35,-139 1493.04,-144.2"/>
</a>
</g>
</g>
<!-- Node33 -->
<g id="Node000033" class="node">
<title>Node33</title>
<g id="a_Node000033"><a xlink:title=" ">
<polygon fill="#e0e0e0" stroke="#999999" points="1673.5,-134.5 1596.5,-134.5 1596.5,-115.5 1673.5,-115.5 1673.5,-134.5"/>
<text text-anchor="middle" x="1635" y="-122.5" font-family="Helvetica,sans-Serif" font-size="10.00">array_decl.h</text>
</a>
</g>
</g>
<!-- Node5&#45;&gt;Node33 -->
<g id="edge32_Node000005_Node000033" class="edge">
<title>Node5&#45;&gt;Node33</title>
<g id="a_edge32_Node000005_Node000033"><a xlink:title=" ">
<path fill="none" stroke="#63b8ff" d="M1463.7,-181.37C1498.49,-170.12 1559.46,-150.42 1598.5,-137.8"/>
<polygon fill="#63b8ff" stroke="#63b8ff" points="1599.97,-141 1608.4,-134.6 1597.81,-134.34 1599.97,-141"/>
</a>
</g>
</g>
<!-- Node34 -->
<g id="Node000034" class="node">
<title>Node34</title>
<g id="a_Node000034"><a xlink:title=" ">
<polygon fill="#e0e0e0" stroke="#999999" points="1768,-134.5 1692,-134.5 1692,-115.5 1768,-115.5 1768,-134.5"/>
<text text-anchor="middle" x="1730" y="-122.5" font-family="Helvetica,sans-Serif" font-size="10.00">input_decl.h</text>
</a>
</g>
</g>
<!-- Node5&#45;&gt;Node34 -->
<g id="edge33_Node000005_Node000034" class="edge">
<title>Node5&#45;&gt;Node34</title>
<g id="a_edge33_Node000005_Node000034"><a xlink:title=" ">
<path fill="none" stroke="#63b8ff" d="M1480.37,-182.39C1529.72,-173.46 1612.6,-157.6 1683,-140 1686.22,-139.19 1689.55,-138.31 1692.88,-137.39"/>
<polygon fill="#63b8ff" stroke="#63b8ff" points="1694.12,-140.67 1702.78,-134.56 1692.2,-133.94 1694.12,-140.67"/>
</a>
</g>
</g>
<!-- Node35 -->
<g id="Node000035" class="node">
<title>Node35</title>
<g id="a_Node000035"><a xlink:href="ac__helpers_8h.html" target="_top" xlink:title=" ">
<polygon fill="white" stroke="#666666" points="1864,-134.5 1786,-134.5 1786,-115.5 1864,-115.5 1864,-134.5"/>
<text text-anchor="middle" x="1825" y="-122.5" font-family="Helvetica,sans-Serif" font-size="10.00">ac_helpers.h</text>
</a>
</g>
</g>
<!-- Node5&#45;&gt;Node35 -->
<g id="edge34_Node000005_Node000035" class="edge">
<title>Node5&#45;&gt;Node35</title>
<g id="a_edge34_Node000005_Node000035"><a xlink:title=" ">
<path fill="none" stroke="#63b8ff" d="M1480.01,-185.6C1544.87,-178.53 1671.35,-163.06 1777,-140 1780.69,-139.19 1784.52,-138.26 1788.33,-137.26"/>
<polygon fill="#63b8ff" stroke="#63b8ff" points="1789.55,-140.55 1798.26,-134.51 1787.69,-133.8 1789.55,-140.55"/>
</a>
</g>
</g>
<!-- Node36 -->
<g id="Node000036" class="node">
<title>Node36</title>
<g id="a_Node000036"><a xlink:title=" ">
<polygon fill="#e0e0e0" stroke="#999999" points="2000,-140 1882,-140 1882,-110 2000,-110 2000,-140"/>
<text text-anchor="start" x="1890" y="-128" font-family="Helvetica,sans-Serif" font-size="10.00">scalar_reduce_buffer</text>
<text text-anchor="middle" x="1941" y="-117" font-family="Helvetica,sans-Serif" font-size="10.00">_defs.h</text>
</a>
</g>
</g>
<!-- Node5&#45;&gt;Node36 -->
<g id="edge35_Node000005_Node000036" class="edge">
<title>Node5&#45;&gt;Node36</title>
<g id="a_edge35_Node000005_Node000036"><a xlink:title=" ">
<path fill="none" stroke="#63b8ff" d="M1480.18,-186.33C1556.91,-179.53 1722.22,-163.63 1871.46,-140.16"/>
<polygon fill="#63b8ff" stroke="#63b8ff" points="1872.39,-143.55 1881.72,-138.53 1871.29,-136.64 1872.39,-143.55"/>
</a>
</g>
</g>
<!-- Node37 -->
<g id="Node000037" class="node">
<title>Node37</title>
<g id="a_Node000037"><a xlink:title=" ">
<polygon fill="#e0e0e0" stroke="#999999" points="2141.5,-140 2018.5,-140 2018.5,-110 2141.5,-110 2141.5,-140"/>
<text text-anchor="start" x="2026.5" y="-128" font-family="Helvetica,sans-Serif" font-size="10.00">scalar_reduce_buffers</text>
<text text-anchor="middle" x="2080" y="-117" font-family="Helvetica,sans-Serif" font-size="10.00">_in_vba.h</text>
</a>
</g>
</g>
<!-- Node5&#45;&gt;Node37 -->
<g id="edge36_Node000005_Node000037" class="edge">
<title>Node5&#45;&gt;Node37</title>
<g id="a_edge36_Node000005_Node000037"><a xlink:title=" ">
<path fill="none" stroke="#63b8ff" d="M1480.23,-187.81C1574.36,-182.71 1805,-168.34 2008.52,-139.95"/>
<polygon fill="#63b8ff" stroke="#63b8ff" points="2009.08,-143.41 2018.5,-138.55 2008.1,-136.48 2009.08,-143.41"/>
</a>
</g>
</g>
<!-- Node5&#45;&gt;Node38 -->
<g id="edge37_Node000005_Node000038" class="edge">
<title>Node5&#45;&gt;Node38</title>
<g id="a_edge37_Node000005_Node000038"><a xlink:title=" ">
<path fill="none" stroke="#63b8ff" d="M1480.32,-189.21C1673.81,-185.55 2460.12,-169.13 2705,-140 2712.53,-139.1 2720.46,-137.84 2728.17,-136.43"/>
<polygon fill="#63b8ff" stroke="#63b8ff" points="2728.96,-139.84 2738.12,-134.51 2727.64,-132.96 2728.96,-139.84"/>
</a>
</g>
</g>
<!-- Node5&#45;&gt;Node39 -->
<g id="edge38_Node000005_Node000039" class="edge">
<title>Node5&#45;&gt;Node39</title>
<g id="a_edge38_Node000005_Node000039"><a xlink:title=" ">
<path fill="none" stroke="#63b8ff" d="M1393.65,-182.15C1378.89,-179.77 1362.27,-177.42 1347,-176 828.09,-127.86 690.14,-218.83 175,-140 170.42,-139.3 165.65,-138.31 160.97,-137.19"/>
<polygon fill="#63b8ff" stroke="#63b8ff" points="161.51,-133.71 150.95,-134.55 159.73,-140.48 161.51,-133.71"/>
</a>
</g>
</g>
<!-- Node40 -->
<g id="Node000040" class="node">
<title>Node40</title>
<g id="a_Node000040"><a xlink:href="common__kernels_8h.html" target="_top" xlink:title=" ">
<polygon fill="white" stroke="#666666" points="2268.5,-134.5 2159.5,-134.5 2159.5,-115.5 2268.5,-115.5 2268.5,-134.5"/>
<text text-anchor="middle" x="2214" y="-122.5" font-family="Helvetica,sans-Serif" font-size="10.00">common_kernels.h</text>
</a>
</g>
</g>
<!-- Node5&#45;&gt;Node40 -->
<g id="edge39_Node000005_Node000040" class="edge">
<title>Node5&#45;&gt;Node40</title>
<g id="a_edge39_Node000005_Node000040"><a xlink:title=" ">
<path fill="none" stroke="#63b8ff" d="M1480.3,-189.21C1591.96,-186.68 1898.6,-176.67 2151,-140 2157.18,-139.1 2163.67,-137.93 2170.02,-136.65"/>
<polygon fill="#63b8ff" stroke="#63b8ff" points="2170.78,-140.06 2179.84,-134.56 2169.33,-133.21 2170.78,-140.06"/>
</a>
</g>
</g>
<!-- Node41 -->
<g id="Node000041" class="node">
<title>Node41</title>
<g id="a_Node000041"><a xlink:title=" ">
<polygon fill="#e0e0e0" stroke="#999999" points="2399,-134.5 2287,-134.5 2287,-115.5 2399,-115.5 2399,-134.5"/>
<text text-anchor="middle" x="2343" y="-122.5" font-family="Helvetica,sans-Serif" font-size="10.00">user_declarations.h</text>
</a>
</g>
</g>
<!-- Node5&#45;&gt;Node41 -->
<g id="edge40_Node000005_Node000041" class="edge">
<title>Node5&#45;&gt;Node41</title>
<g id="a_edge40_Node000005_Node000041"><a xlink:title=" ">
<path fill="none" stroke="#63b8ff" d="M1480.11,-189.76C1604.48,-188.55 1974.39,-181.47 2278,-140 2284.45,-139.12 2291.22,-137.94 2297.85,-136.65"/>
<polygon fill="#63b8ff" stroke="#63b8ff" points="2299,-139.99 2308.09,-134.54 2297.59,-133.13 2299,-139.99"/>
</a>
</g>
</g>
<!-- Node42 -->
<g id="Node000042" class="node">
<title>Node42</title>
<g id="a_Node000042"><a xlink:title=" ">
<polygon fill="#e0e0e0" stroke="#999999" points="2551,-140 2417,-140 2417,-110 2551,-110 2551,-140"/>
<text text-anchor="start" x="2425" y="-128" font-family="Helvetica,sans-Serif" font-size="10.00">load_and_store_uniform</text>
<text text-anchor="middle" x="2484" y="-117" font-family="Helvetica,sans-Serif" font-size="10.00">_header.h</text>
</a>
</g>
</g>
<!-- Node5&#45;&gt;Node42 -->
<g id="edge41_Node000005_Node000042" class="edge">
<title>Node5&#45;&gt;Node42</title>
<g id="a_edge41_Node000005_Node000042"><a xlink:title=" ">
<path fill="none" stroke="#63b8ff" d="M1480.24,-189.78C1615.59,-188.68 2043.29,-181.98 2406.74,-140.03"/>
<polygon fill="#63b8ff" stroke="#63b8ff" points="2407.41,-143.48 2416.94,-138.85 2406.6,-136.53 2407.41,-143.48"/>
</a>
</g>
</g>
<!-- Node8 -->
<g id="Node000008" class="node">
<title>Node8</title>
<g id="a_Node000008"><a xlink:title=" ">
<polygon fill="#e0e0e0" stroke="#999999" points="634.5,-19 521.5,-19 521.5,0 634.5,0 634.5,-19"/>
<text text-anchor="middle" x="578" y="-7" font-family="Helvetica,sans-Serif" font-size="10.00">cuda_runtime_api.h</text>
</a>
</g>
</g>
<!-- Node7&#45;&gt;Node8 -->
<g id="edge8_Node000007_Node000008" class="edge">
<title>Node7&#45;&gt;Node8</title>
<g id="a_edge8_Node000007_Node000008"><a xlink:title=" ">
<path fill="none" stroke="#63b8ff" d="M644.31,-54.98C632.17,-46.84 613.64,-34.41 599.25,-24.76"/>
<polygon fill="#63b8ff" stroke="#63b8ff" points="601.18,-21.84 590.92,-19.17 597.28,-27.65 601.18,-21.84"/>
</a>
</g>
</g>
<!-- Node9 -->
<g id="Node000009" class="node">
<title>Node9</title>
<g id="a_Node000009"><a xlink:title=" ">
<polygon fill="#e0e0e0" stroke="#999999" points="729,-19 653,-19 653,0 729,0 729,-19"/>
<text text-anchor="middle" x="691" y="-7" font-family="Helvetica,sans-Serif" font-size="10.00">cuda_fp16.h</text>
</a>
</g>
</g>
<!-- Node7&#45;&gt;Node9 -->
<g id="edge9_Node000007_Node000009" class="edge">
<title>Node7&#45;&gt;Node9</title>
<g id="a_edge9_Node000007_Node000009"><a xlink:title=" ">
<path fill="none" stroke="#63b8ff" d="M662.61,-54.75C667.32,-47.42 674.17,-36.73 679.97,-27.7"/>
<polygon fill="#63b8ff" stroke="#63b8ff" points="683.04,-29.4 685.49,-19.09 677.14,-25.62 683.04,-29.4"/>
</a>
</g>
</g>
<!-- Node11&#45;&gt;Node7 -->
<g id="edge14_Node000011_Node000007" class="edge">
<title>Node11&#45;&gt;Node7</title>
<g id="a_edge14_Node000011_Node000007"><a xlink:title=" ">
<path fill="none" stroke="#63b8ff" d="M447.43,-115.45C454.19,-113.61 461.33,-111.7 468,-110 515.83,-97.81 570.77,-85.01 609.04,-76.28"/>
<polygon fill="#63b8ff" stroke="#63b8ff" points="609.91,-79.67 618.89,-74.04 608.36,-72.85 609.91,-79.67"/>
</a>
</g>
</g>
<!-- Node11&#45;&gt;Node8 -->
<g id="edge16_Node000011_Node000008" class="edge">
<title>Node11&#45;&gt;Node8</title>
<g id="a_edge16_Node000011_Node000008"><a xlink:title=" ">
<path fill="none" stroke="#63b8ff" d="M445.4,-115.42C484.21,-103.48 549.93,-82.36 558,-74 569.65,-61.92 574.52,-43.12 576.55,-29.11"/>
<polygon fill="#63b8ff" stroke="#63b8ff" points="580.04,-29.43 577.65,-19.11 573.08,-28.67 580.04,-29.43"/>
</a>
</g>
</g>
<!-- Node11&#45;&gt;Node10 -->
<g id="edge17_Node000011_Node000010" class="edge">
<title>Node11&#45;&gt;Node10</title>
<g id="a_edge17_Node000011_Node000010"><a xlink:title=" ">
<path fill="none" stroke="#63b8ff" d="M394.32,-115.49C367.74,-105.53 323.52,-88.95 293.36,-77.63"/>
<polygon fill="#63b8ff" stroke="#63b8ff" points="294.3,-74.25 283.71,-74.02 291.85,-80.81 294.3,-74.25"/>
</a>
</g>
</g>
<!-- Node12 -->
<g id="Node000012" class="node">
<title>Node12</title>
<g id="a_Node000012"><a xlink:title=" ">
<polygon fill="#e0e0e0" stroke="#999999" points="373.5,-74 326.5,-74 326.5,-55 373.5,-55 373.5,-74"/>
<text text-anchor="middle" x="350" y="-62" font-family="Helvetica,sans-Serif" font-size="10.00">float.h</text>
</a>
</g>
</g>
<!-- Node11&#45;&gt;Node12 -->
<g id="edge12_Node000011_Node000012" class="edge">
<title>Node11&#45;&gt;Node12</title>
<g id="a_edge12_Node000011_Node000012"><a xlink:title=" ">
<path fill="none" stroke="#63b8ff" d="M407.11,-115.37C396.72,-106.3 380.16,-91.84 367.55,-80.82"/>
<polygon fill="#63b8ff" stroke="#63b8ff" points="369.76,-78.11 359.93,-74.17 365.16,-83.38 369.76,-78.11"/>
</a>
</g>
</g>
<!-- Node13 -->
<g id="Node000013" class="node">
<title>Node13</title>
<g id="a_Node000013"><a xlink:title=" ">
<polygon fill="#e0e0e0" stroke="#999999" points="442.5,-74 391.5,-74 391.5,-55 442.5,-55 442.5,-74"/>
<text text-anchor="middle" x="417" y="-62" font-family="Helvetica,sans-Serif" font-size="10.00">math.h</text>
</a>
</g>
</g>
<!-- Node11&#45;&gt;Node13 -->
<g id="edge13_Node000011_Node000013" class="edge">
<title>Node11&#45;&gt;Node13</title>
<g id="a_edge13_Node000011_Node000013"><a xlink:title=" ">
<path fill="none" stroke="#63b8ff" d="M417,-115.37C417,-107.25 417,-94.81 417,-84.39"/>
<polygon fill="#63b8ff" stroke="#63b8ff" points="420.5,-84.17 417,-74.17 413.5,-84.17 420.5,-84.17"/>
</a>
</g>
</g>
<!-- Node14 -->
<g id="Node000014" class="node">
<title>Node14</title>
<g id="a_Node000014"><a xlink:title=" ">
<polygon fill="#e0e0e0" stroke="#999999" points="549.5,-74 460.5,-74 460.5,-55 549.5,-55 549.5,-74"/>
<text text-anchor="middle" x="505" y="-62" font-family="Helvetica,sans-Serif" font-size="10.00">vector_types.h</text>
</a>
</g>
</g>
<!-- Node11&#45;&gt;Node14 -->
<g id="edge15_Node000011_Node000014" class="edge">
<title>Node11&#45;&gt;Node14</title>
<g id="a_edge15_Node000011_Node000014"><a xlink:title=" ">
<path fill="none" stroke="#63b8ff" d="M429.98,-115.37C444.02,-106.04 466.63,-91.01 483.36,-79.88"/>
<polygon fill="#63b8ff" stroke="#63b8ff" points="485.57,-82.62 491.96,-74.17 481.7,-76.79 485.57,-82.62"/>
</a>
</g>
</g>
<!-- Node19&#45;&gt;Node4 -->
<g id="edge19_Node000019_Node000004" class="edge">
<title>Node19&#45;&gt;Node4</title>
<g id="a_edge19_Node000019_Node000004"><a xlink:title=" ">
<path fill="none" stroke="#63b8ff" d="M2643.26,-115.37C2651.78,-106.47 2665.26,-92.39 2675.73,-81.45"/>
<polygon fill="#63b8ff" stroke="#63b8ff" points="2678.32,-83.81 2682.7,-74.17 2673.26,-78.97 2678.32,-83.81"/>
</a>
</g>
</g>
<!-- Node19&#45;&gt;Node6 -->
<g id="edge20_Node000019_Node000006" class="edge">
<title>Node19&#45;&gt;Node6</title>
<g id="a_edge20_Node000019_Node000006"><a xlink:title=" ">
<path fill="none" stroke="#63b8ff" d="M2629.54,-115.37C2624.13,-106.81 2615.69,-93.47 2608.9,-82.74"/>
<polygon fill="#63b8ff" stroke="#63b8ff" points="2611.79,-80.75 2603.48,-74.17 2605.87,-84.49 2611.79,-80.75"/>
</a>
</g>
</g>
<!-- Node19&#45;&gt;Node7 -->
<g id="edge21_Node000019_Node000007" class="edge">
<title>Node19&#45;&gt;Node7</title>
<g id="a_edge21_Node000019_Node000007"><a xlink:title=" ">
<path fill="none" stroke="#63b8ff" d="M2606.67,-117.6C2592.69,-114.72 2575.55,-111.62 2560,-110 2190.48,-71.45 1002.05,-66.29 718.27,-65.6"/>
<polygon fill="#63b8ff" stroke="#63b8ff" points="718.18,-62.1 708.17,-65.58 718.16,-69.1 718.18,-62.1"/>
</a>
</g>
</g>
<!-- Node47 -->
<g id="Node000047" class="node">
<title>Node47</title>
<g id="a_Node000047"><a xlink:title=" ">
<polygon fill="#e0e0e0" stroke="#999999" points="402.5,-206 283.5,-206 283.5,-176 402.5,-176 402.5,-206"/>
<text text-anchor="start" x="291.5" y="-194" font-family="Helvetica,sans-Serif" font-size="10.00">device_load_uniform</text>
<text text-anchor="middle" x="343" y="-183" font-family="Helvetica,sans-Serif" font-size="10.00">_decl.h</text>
</a>
</g>
</g>
<!-- Node46&#45;&gt;Node47 -->
<g id="edge48_Node000046_Node000047" class="edge">
<title>Node46&#45;&gt;Node47</title>
<g id="a_edge48_Node000046_Node000047"><a xlink:title=" ">
<path fill="none" stroke="#63b8ff" d="M284.18,-241.87C293.2,-234.22 306.72,-222.76 318.53,-212.75"/>
<polygon fill="#63b8ff" stroke="#63b8ff" points="320.99,-215.25 326.35,-206.11 316.46,-209.91 320.99,-215.25"/>
</a>
</g>
</g>
<!-- Node48 -->
<g id="Node000048" class="node">
<title>Node48</title>
<g id="a_Node000048"><a xlink:title=" ">
<polygon fill="#e0e0e0" stroke="#999999" points="265,-206 143,-206 143,-176 265,-176 265,-206"/>
<text text-anchor="start" x="151" y="-194" font-family="Helvetica,sans-Serif" font-size="10.00">device_store_uniform</text>
<text text-anchor="middle" x="204" y="-183" font-family="Helvetica,sans-Serif" font-size="10.00">_decl.h</text>
</a>
</g>
</g>
<!-- Node46&#45;&gt;Node48 -->
<g id="edge49_Node000046_Node000048" class="edge">
<title>Node46&#45;&gt;Node48</title>
<g id="a_edge49_Node000046_Node000048"><a xlink:title=" ">
<path fill="none" stroke="#63b8ff" d="M263.67,-241.87C254.52,-234.22 240.81,-222.76 228.83,-212.75"/>
<polygon fill="#63b8ff" stroke="#63b8ff" points="230.81,-209.84 220.89,-206.11 226.32,-215.21 230.81,-209.84"/>
</a>
</g>
</g>
</g>
</svg>
