<?xml version="1.0" encoding="UTF-8" standalone="no"?>
<!DOCTYPE svg PUBLIC "-//W3C//DTD SVG 1.1//EN"
 "http://www.w3.org/Graphics/SVG/1.1/DTD/svg11.dtd">
<!-- Generated by graphviz version 2.43.0 (0)
 -->
<!-- Title: acc&#45;runtime/api/arrays.cc Pages: 1 -->
<svg width="2949pt" height="269pt"
 viewBox="0.00 0.00 2948.50 269.00" xmlns="http://www.w3.org/2000/svg" xmlns:xlink="http://www.w3.org/1999/xlink">
<g id="graph0" class="graph" transform="scale(1 1) rotate(0) translate(4 265)">
<title>acc&#45;runtime/api/arrays.cc</title>
<!-- Node1 -->
<g id="Node000001" class="node">
<title>Node1</title>
<g id="a_Node000001"><a xlink:title=" ">
<polygon fill="#999999" stroke="#666666" points="1562.5,-261 1422.5,-261 1422.5,-242 1562.5,-242 1562.5,-261"/>
<text text-anchor="middle" x="1492.5" y="-249" font-family="Helvetica,sans-Serif" font-size="10.00">acc&#45;runtime/api/arrays.cc</text>
</a>
</g>
</g>
<!-- Node2 -->
<g id="Node000002" class="node">
<title>Node2</title>
<g id="a_Node000002"><a xlink:href="acc__runtime_8h.html" target="_top" xlink:title=" ">
<polygon fill="white" stroke="#666666" points="1468.5,-200.5 1382.5,-200.5 1382.5,-181.5 1468.5,-181.5 1468.5,-200.5"/>
<text text-anchor="middle" x="1425.5" y="-188.5" font-family="Helvetica,sans-Serif" font-size="10.00">acc_runtime.h</text>
</a>
</g>
</g>
<!-- Node1&#45;&gt;Node2 -->
<g id="edge1_Node000001_Node000002" class="edge">
<title>Node1&#45;&gt;Node2</title>
<g id="a_edge1_Node000001_Node000002"><a xlink:title=" ">
<path fill="none" stroke="#63b8ff" d="M1482.61,-241.87C1472.22,-232.8 1455.66,-218.34 1443.05,-207.32"/>
<polygon fill="#63b8ff" stroke="#63b8ff" points="1445.26,-204.61 1435.43,-200.67 1440.66,-209.88 1445.26,-204.61"/>
</a>
</g>
</g>
<!-- Node40 -->
<g id="Node000040" class="node">
<title>Node40</title>
<g id="a_Node000040"><a xlink:href="astaroth__cuda__wrappers_8h.html" target="_top" xlink:title=" ">
<polygon fill="white" stroke="#666666" points="902,-200.5 757,-200.5 757,-181.5 902,-181.5 902,-200.5"/>
<text text-anchor="middle" x="829.5" y="-188.5" font-family="Helvetica,sans-Serif" font-size="10.00">astaroth_cuda_wrappers.h</text>
</a>
</g>
</g>
<!-- Node1&#45;&gt;Node40 -->
<g id="edge48_Node000001_Node000040" class="edge">
<title>Node1&#45;&gt;Node40</title>
<g id="a_edge48_Node000001_Node000040"><a xlink:title=" ">
<path fill="none" stroke="#63b8ff" d="M1422.49,-244.32C1299.21,-233.45 1044.01,-210.93 912.24,-199.3"/>
<polygon fill="#63b8ff" stroke="#63b8ff" points="912.47,-195.81 902.2,-198.41 911.85,-202.78 912.47,-195.81"/>
</a>
</g>
</g>
<!-- Node41 -->
<g id="Node000041" class="node">
<title>Node41</title>
<g id="a_Node000041"><a xlink:title=" ">
<polygon fill="#e0e0e0" stroke="#999999" points="1634,-206 1487,-206 1487,-176 1634,-176 1634,-206"/>
<text text-anchor="start" x="1495" y="-194" font-family="Helvetica,sans-Serif" font-size="10.00">memcpy_to_gmem_arrays</text>
<text text-anchor="middle" x="1560.5" y="-183" font-family="Helvetica,sans-Serif" font-size="10.00">_header.inc</text>
</a>
</g>
</g>
<!-- Node1&#45;&gt;Node41 -->
<g id="edge50_Node000001_Node000041" class="edge">
<title>Node1&#45;&gt;Node41</title>
<g id="a_edge50_Node000001_Node000041"><a xlink:title=" ">
<path fill="none" stroke="#63b8ff" d="M1502.53,-241.87C1511.42,-234.22 1524.75,-222.76 1536.38,-212.75"/>
<polygon fill="#63b8ff" stroke="#63b8ff" points="1538.8,-215.29 1544.09,-206.11 1534.23,-209.98 1538.8,-215.29"/>
</a>
</g>
</g>
<!-- Node42 -->
<g id="Node000042" class="node">
<title>Node42</title>
<g id="a_Node000042"><a xlink:title=" ">
<polygon fill="#e0e0e0" stroke="#999999" points="1813,-206 1652,-206 1652,-176 1813,-176 1813,-206"/>
<text text-anchor="start" x="1660" y="-194" font-family="Helvetica,sans-Serif" font-size="10.00">memcpy_from_gmem_arrays</text>
<text text-anchor="middle" x="1732.5" y="-183" font-family="Helvetica,sans-Serif" font-size="10.00">_header.inc</text>
</a>
</g>
</g>
<!-- Node1&#45;&gt;Node42 -->
<g id="edge51_Node000001_Node000042" class="edge">
<title>Node1&#45;&gt;Node42</title>
<g id="a_edge51_Node000001_Node000042"><a xlink:title=" ">
<path fill="none" stroke="#63b8ff" d="M1527.4,-241.99C1563.3,-233.24 1620.13,-219.39 1664.87,-208.48"/>
<polygon fill="#63b8ff" stroke="#63b8ff" points="1665.91,-211.83 1674.8,-206.06 1664.26,-205.03 1665.91,-211.83"/>
</a>
</g>
</g>
<!-- Node3 -->
<g id="Node000003" class="node">
<title>Node3</title>
<g id="a_Node000003"><a xlink:title=" ">
<polygon fill="#e0e0e0" stroke="#999999" points="2940.5,-74 2890.5,-74 2890.5,-55 2940.5,-55 2940.5,-74"/>
<text text-anchor="middle" x="2915.5" y="-62" font-family="Helvetica,sans-Serif" font-size="10.00">stdio.h</text>
</a>
</g>
</g>
<!-- Node2&#45;&gt;Node3 -->
<g id="edge2_Node000002_Node000003" class="edge">
<title>Node2&#45;&gt;Node3</title>
<g id="a_edge2_Node000002_Node000003"><a xlink:title=" ">
<path fill="none" stroke="#63b8ff" d="M1453.03,-181.43C1461.15,-179.26 1470.12,-177.2 1478.5,-176 1555.74,-164.96 2817.65,-183.39 2882.5,-140 2901.11,-127.55 2909.32,-102.02 2912.88,-84.35"/>
<polygon fill="#63b8ff" stroke="#63b8ff" points="2916.36,-84.75 2914.58,-74.31 2909.46,-83.58 2916.36,-84.75"/>
</a>
</g>
</g>
<!-- Node4 -->
<g id="Node000004" class="node">
<title>Node4</title>
<g id="a_Node000004"><a xlink:title=" ">
<polygon fill="#e0e0e0" stroke="#999999" points="1759.5,-74 1697.5,-74 1697.5,-55 1759.5,-55 1759.5,-74"/>
<text text-anchor="middle" x="1728.5" y="-62" font-family="Helvetica,sans-Serif" font-size="10.00">stdbool.h</text>
</a>
</g>
</g>
<!-- Node2&#45;&gt;Node4 -->
<g id="edge3_Node000002_Node000004" class="edge">
<title>Node2&#45;&gt;Node4</title>
<g id="a_edge3_Node000002_Node000004"><a xlink:title=" ">
<path fill="none" stroke="#63b8ff" d="M1382.39,-188.7C1190.26,-182.78 420.65,-158.01 403.5,-140 394.31,-130.34 394.23,-119.59 403.5,-110 414.94,-98.17 1463.9,-71.95 1687.06,-66.5"/>
<polygon fill="#63b8ff" stroke="#63b8ff" points="1687.44,-69.99 1697.35,-66.25 1687.27,-63 1687.44,-69.99"/>
</a>
</g>
</g>
<!-- Node5 -->
<g id="Node000005" class="node">
<title>Node5</title>
<g id="a_Node000005"><a xlink:href="device__headers_8h.html" target="_top" xlink:title=" ">
<polygon fill="white" stroke="#666666" points="655.5,-74 553.5,-74 553.5,-55 655.5,-55 655.5,-74"/>
<text text-anchor="middle" x="604.5" y="-62" font-family="Helvetica,sans-Serif" font-size="10.00">device_headers.h</text>
</a>
</g>
</g>
<!-- Node2&#45;&gt;Node5 -->
<g id="edge4_Node000002_Node000005" class="edge">
<title>Node2&#45;&gt;Node5</title>
<g id="a_edge4_Node000002_Node000005"><a xlink:title=" ">
<path fill="none" stroke="#63b8ff" d="M1382.25,-188.71C1188.59,-182.86 409.85,-158.21 392.5,-140 383.3,-130.35 384.1,-120.35 392.5,-110 402.08,-98.2 484.09,-83.56 543.24,-74.37"/>
<polygon fill="#63b8ff" stroke="#63b8ff" points="543.9,-77.81 553.26,-72.83 542.84,-70.89 543.9,-77.81"/>
</a>
</g>
</g>
<!-- Node8 -->
<g id="Node000008" class="node">
<title>Node8</title>
<g id="a_Node000008"><a xlink:title=" ">
<polygon fill="#e0e0e0" stroke="#999999" points="95,-74 0,-74 0,-55 95,-55 95,-74"/>
<text text-anchor="middle" x="47.5" y="-62" font-family="Helvetica,sans-Serif" font-size="10.00">builtin_enums.h</text>
</a>
</g>
</g>
<!-- Node2&#45;&gt;Node8 -->
<g id="edge7_Node000002_Node000008" class="edge">
<title>Node2&#45;&gt;Node8</title>
<g id="a_edge7_Node000002_Node000008"><a xlink:title=" ">
<path fill="none" stroke="#63b8ff" d="M1382.28,-188.75C1171.06,-182.59 255.02,-155.08 196.5,-140 147.69,-127.42 96.27,-97.44 68.43,-79.58"/>
<polygon fill="#63b8ff" stroke="#63b8ff" points="70.21,-76.56 59.92,-74.03 66.39,-82.43 70.21,-76.56"/>
</a>
</g>
</g>
<!-- Node9 -->
<g id="Node000009" class="node">
<title>Node9</title>
<g id="a_Node000009"><a xlink:href="datatypes_8h.html" target="_top" xlink:title=" ">
<polygon fill="white" stroke="#666666" points="279.5,-134.5 205.5,-134.5 205.5,-115.5 279.5,-115.5 279.5,-134.5"/>
<text text-anchor="middle" x="242.5" y="-122.5" font-family="Helvetica,sans-Serif" font-size="10.00">datatypes.h</text>
</a>
</g>
</g>
<!-- Node2&#45;&gt;Node9 -->
<g id="edge8_Node000002_Node000009" class="edge">
<title>Node2&#45;&gt;Node9</title>
<g id="a_edge8_Node000002_Node000009"><a xlink:title=" ">
<path fill="none" stroke="#63b8ff" d="M1382.37,-188.67C1206.22,-183.12 540.88,-161.19 331.5,-140 317.86,-138.62 303.12,-136.54 289.65,-134.41"/>
<polygon fill="#63b8ff" stroke="#63b8ff" points="290.05,-130.93 279.62,-132.78 288.93,-137.84 290.05,-130.93"/>
</a>
</g>
</g>
<!-- Node17 -->
<g id="Node000017" class="node">
<title>Node17</title>
<g id="a_Node000017"><a xlink:href="errchk_8h.html" target="_top" xlink:title="Brief info.">
<polygon fill="white" stroke="#666666" points="2873.5,-134.5 2817.5,-134.5 2817.5,-115.5 2873.5,-115.5 2873.5,-134.5"/>
<text text-anchor="middle" x="2845.5" y="-122.5" font-family="Helvetica,sans-Serif" font-size="10.00">errchk.h</text>
</a>
</g>
</g>
<!-- Node2&#45;&gt;Node17 -->
<g id="edge20_Node000002_Node000017" class="edge">
<title>Node2&#45;&gt;Node17</title>
<g id="a_edge20_Node000002_Node000017"><a xlink:title=" ">
<path fill="none" stroke="#63b8ff" d="M1453.03,-181.44C1461.16,-179.26 1470.12,-177.2 1478.5,-176 1771.16,-133.96 2518.41,-197.11 2808.5,-140 2811.34,-139.44 2814.25,-138.68 2817.13,-137.81"/>
<polygon fill="#63b8ff" stroke="#63b8ff" points="2818.35,-141.1 2826.65,-134.52 2816.06,-134.48 2818.35,-141.1"/>
</a>
</g>
</g>
<!-- Node21 -->
<g id="Node000021" class="node">
<title>Node21</title>
<g id="a_Node000021"><a xlink:title=" ">
<polygon fill="#e0e0e0" stroke="#999999" points="507,-134.5 412,-134.5 412,-115.5 507,-115.5 507,-134.5"/>
<text text-anchor="middle" x="459.5" y="-122.5" font-family="Helvetica,sans-Serif" font-size="10.00">user_defines.inc</text>
</a>
</g>
</g>
<!-- Node2&#45;&gt;Node21 -->
<g id="edge29_Node000002_Node000021" class="edge">
<title>Node2&#45;&gt;Node21</title>
<g id="a_edge29_Node000002_Node000021"><a xlink:title=" ">
<path fill="none" stroke="#63b8ff" d="M1382.35,-188.69C1225.64,-183.77 686.8,-165.37 516.5,-140 511.02,-139.18 505.3,-138.08 499.68,-136.85"/>
<polygon fill="#63b8ff" stroke="#63b8ff" points="500.29,-133.4 489.76,-134.54 498.7,-140.22 500.29,-133.4"/>
</a>
</g>
</g>
<!-- Node22 -->
<g id="Node000022" class="node">
<title>Node22</title>
<g id="a_Node000022"><a xlink:title=" ">
<polygon fill="#e0e0e0" stroke="#999999" points="619.5,-134.5 525.5,-134.5 525.5,-115.5 619.5,-115.5 619.5,-134.5"/>
<text text-anchor="middle" x="572.5" y="-122.5" font-family="Helvetica,sans-Serif" font-size="10.00">profiles_info.inc</text>
</a>
</g>
</g>
<!-- Node2&#45;&gt;Node22 -->
<g id="edge30_Node000002_Node000022" class="edge">
<title>Node2&#45;&gt;Node22</title>
<g id="a_edge30_Node000002_Node000022"><a xlink:title=" ">
<path fill="none" stroke="#63b8ff" d="M1382.07,-189.98C1261.75,-189.34 914.2,-183.55 629.5,-140 624.09,-139.17 618.43,-138.07 612.88,-136.86"/>
<polygon fill="#63b8ff" stroke="#63b8ff" points="613.6,-133.43 603.06,-134.57 612.01,-140.25 613.6,-133.43"/>
</a>
</g>
</g>
<!-- Node23 -->
<g id="Node000023" class="node">
<title>Node23</title>
<g id="a_Node000023"><a xlink:title=" ">
<polygon fill="#e0e0e0" stroke="#999999" points="785,-134.5 638,-134.5 638,-115.5 785,-115.5 785,-134.5"/>
<text text-anchor="middle" x="711.5" y="-122.5" font-family="Helvetica,sans-Serif" font-size="10.00">user_built&#45;in_constants.inc</text>
</a>
</g>
</g>
<!-- Node2&#45;&gt;Node23 -->
<g id="edge31_Node000002_Node000023" class="edge">
<title>Node2&#45;&gt;Node23</title>
<g id="a_edge31_Node000002_Node000023"><a xlink:title=" ">
<path fill="none" stroke="#63b8ff" d="M1382.14,-187.88C1279.66,-182.59 1014.53,-167.22 794.5,-140 785.86,-138.93 776.75,-137.6 767.85,-136.19"/>
<polygon fill="#63b8ff" stroke="#63b8ff" points="768.36,-132.73 757.93,-134.57 767.23,-139.64 768.36,-132.73"/>
</a>
</g>
</g>
<!-- Node24 -->
<g id="Node000024" class="node">
<title>Node24</title>
<g id="a_Node000024"><a xlink:href="func__attributes_8h.html" target="_top" xlink:title=" ">
<polygon fill="white" stroke="#666666" points="902,-134.5 803,-134.5 803,-115.5 902,-115.5 902,-134.5"/>
<text text-anchor="middle" x="852.5" y="-122.5" font-family="Helvetica,sans-Serif" font-size="10.00">func_attributes.h</text>
</a>
</g>
</g>
<!-- Node2&#45;&gt;Node24 -->
<g id="edge32_Node000002_Node000024" class="edge">
<title>Node2&#45;&gt;Node24</title>
<g id="a_edge32_Node000002_Node000024"><a xlink:title=" ">
<path fill="none" stroke="#63b8ff" d="M1382.26,-187.78C1293.52,-182.8 1084.62,-168.82 911.5,-140 906.05,-139.09 900.35,-137.97 894.74,-136.75"/>
<polygon fill="#63b8ff" stroke="#63b8ff" points="895.33,-133.3 884.8,-134.5 893.78,-140.13 895.33,-133.3"/>
</a>
</g>
</g>
<!-- Node25 -->
<g id="Node000025" class="node">
<title>Node25</title>
<g id="a_Node000025"><a xlink:title=" ">
<polygon fill="#e0e0e0" stroke="#999999" points="1053,-134.5 920,-134.5 920,-115.5 1053,-115.5 1053,-134.5"/>
<text text-anchor="middle" x="986.5" y="-122.5" font-family="Helvetica,sans-Serif" font-size="10.00">user_input_typedefs.inc</text>
</a>
</g>
</g>
<!-- Node2&#45;&gt;Node25 -->
<g id="edge33_Node000002_Node000025" class="edge">
<title>Node2&#45;&gt;Node25</title>
<g id="a_edge33_Node000002_Node000025"><a xlink:title=" ">
<path fill="none" stroke="#63b8ff" d="M1382.38,-184.7C1314.29,-176.19 1177.75,-158.54 1062.5,-140 1055.65,-138.9 1048.46,-137.67 1041.35,-136.41"/>
<polygon fill="#63b8ff" stroke="#63b8ff" points="1041.51,-132.88 1031.05,-134.56 1040.27,-139.77 1041.51,-132.88"/>
</a>
</g>
</g>
<!-- Node26 -->
<g id="Node000026" class="node">
<title>Node26</title>
<g id="a_Node000026"><a xlink:title=" ">
<polygon fill="#e0e0e0" stroke="#999999" points="1162,-134.5 1071,-134.5 1071,-115.5 1162,-115.5 1162,-134.5"/>
<text text-anchor="middle" x="1116.5" y="-122.5" font-family="Helvetica,sans-Serif" font-size="10.00">output_decl.inc</text>
</a>
</g>
</g>
<!-- Node2&#45;&gt;Node26 -->
<g id="edge34_Node000002_Node000026" class="edge">
<title>Node2&#45;&gt;Node26</title>
<g id="a_edge34_Node000002_Node000026"><a xlink:title=" ">
<path fill="none" stroke="#63b8ff" d="M1382.2,-182.23C1331.53,-172.95 1245.16,-156.61 1171.5,-140 1167.34,-139.06 1163.01,-138.04 1158.69,-136.99"/>
<polygon fill="#63b8ff" stroke="#63b8ff" points="1159.26,-133.52 1148.71,-134.51 1157.57,-140.32 1159.26,-133.52"/>
</a>
</g>
</g>
<!-- Node27 -->
<g id="Node000027" class="node">
<title>Node27</title>
<g id="a_Node000027"><a xlink:title=" ">
<polygon fill="#e0e0e0" stroke="#999999" points="1305,-134.5 1180,-134.5 1180,-115.5 1305,-115.5 1305,-134.5"/>
<text text-anchor="middle" x="1242.5" y="-122.5" font-family="Helvetica,sans-Serif" font-size="10.00">comp_loaded_decl.inc</text>
</a>
</g>
</g>
<!-- Node2&#45;&gt;Node27 -->
<g id="edge35_Node000002_Node000027" class="edge">
<title>Node2&#45;&gt;Node27</title>
<g id="a_edge35_Node000002_Node000027"><a xlink:title=" ">
<path fill="none" stroke="#63b8ff" d="M1400.82,-181.37C1368.81,-170.17 1312.79,-150.58 1276.7,-137.96"/>
<polygon fill="#63b8ff" stroke="#63b8ff" points="1277.68,-134.59 1267.08,-134.6 1275.36,-141.2 1277.68,-134.59"/>
</a>
</g>
</g>
<!-- Node28 -->
<g id="Node000028" class="node">
<title>Node28</title>
<g id="a_Node000028"><a xlink:title=" ">
<polygon fill="#e0e0e0" stroke="#999999" points="1409.5,-134.5 1323.5,-134.5 1323.5,-115.5 1409.5,-115.5 1409.5,-134.5"/>
<text text-anchor="middle" x="1366.5" y="-122.5" font-family="Helvetica,sans-Serif" font-size="10.00">comp_decl.inc</text>
</a>
</g>
</g>
<!-- Node2&#45;&gt;Node28 -->
<g id="edge36_Node000002_Node000028" class="edge">
<title>Node2&#45;&gt;Node28</title>
<g id="a_edge36_Node000002_Node000028"><a xlink:title=" ">
<path fill="none" stroke="#63b8ff" d="M1417.54,-181.37C1408.36,-171.4 1393.04,-154.79 1381.58,-142.36"/>
<polygon fill="#63b8ff" stroke="#63b8ff" points="1384.06,-139.89 1374.71,-134.91 1378.91,-144.63 1384.06,-139.89"/>
</a>
</g>
</g>
<!-- Node29 -->
<g id="Node000029" class="node">
<title>Node29</title>
<g id="a_Node000029"><a xlink:title=" ">
<polygon fill="#e0e0e0" stroke="#999999" points="1543.5,-134.5 1427.5,-134.5 1427.5,-115.5 1543.5,-115.5 1543.5,-134.5"/>
<text text-anchor="middle" x="1485.5" y="-122.5" font-family="Helvetica,sans-Serif" font-size="10.00">info_loaded_decl.inc</text>
</a>
</g>
</g>
<!-- Node2&#45;&gt;Node29 -->
<g id="edge37_Node000002_Node000029" class="edge">
<title>Node2&#45;&gt;Node29</title>
<g id="a_edge37_Node000002_Node000029"><a xlink:title=" ">
<path fill="none" stroke="#63b8ff" d="M1433.59,-181.37C1442.93,-171.4 1458.51,-154.79 1470.16,-142.36"/>
<polygon fill="#63b8ff" stroke="#63b8ff" points="1472.87,-144.59 1477.15,-134.91 1467.76,-139.81 1472.87,-144.59"/>
</a>
</g>
</g>
<!-- Node30 -->
<g id="Node000030" class="node">
<title>Node30</title>
<g id="a_Node000030"><a xlink:title=" ">
<polygon fill="#e0e0e0" stroke="#999999" points="1709.5,-134.5 1561.5,-134.5 1561.5,-115.5 1709.5,-115.5 1709.5,-134.5"/>
<text text-anchor="middle" x="1635.5" y="-122.5" font-family="Helvetica,sans-Serif" font-size="10.00">device_mesh_info_decl.inc</text>
</a>
</g>
</g>
<!-- Node2&#45;&gt;Node30 -->
<g id="edge38_Node000002_Node000030" class="edge">
<title>Node2&#45;&gt;Node30</title>
<g id="a_edge38_Node000002_Node000030"><a xlink:title=" ">
<path fill="none" stroke="#63b8ff" d="M1453.82,-181.37C1490.95,-170.05 1556.21,-150.16 1597.58,-137.56"/>
<polygon fill="#63b8ff" stroke="#63b8ff" points="1598.75,-140.86 1607.29,-134.6 1596.71,-134.16 1598.75,-140.86"/>
</a>
</g>
</g>
<!-- Node31 -->
<g id="Node000031" class="node">
<title>Node31</title>
<g id="a_Node000031"><a xlink:title=" ">
<polygon fill="#e0e0e0" stroke="#999999" points="1813,-134.5 1728,-134.5 1728,-115.5 1813,-115.5 1813,-134.5"/>
<text text-anchor="middle" x="1770.5" y="-122.5" font-family="Helvetica,sans-Serif" font-size="10.00">array_decl.inc</text>
</a>
</g>
</g>
<!-- Node2&#45;&gt;Node31 -->
<g id="edge39_Node000002_Node000031" class="edge">
<title>Node2&#45;&gt;Node31</title>
<g id="a_edge39_Node000002_Node000031"><a xlink:title=" ">
<path fill="none" stroke="#63b8ff" d="M1455.63,-181.43C1463.07,-179.48 1471.04,-177.54 1478.5,-176 1584.13,-154.19 1612.92,-162.06 1718.5,-140 1722.67,-139.13 1727,-138.12 1731.31,-137.06"/>
<polygon fill="#63b8ff" stroke="#63b8ff" points="1732.4,-140.39 1741.22,-134.51 1730.66,-133.61 1732.4,-140.39"/>
</a>
</g>
</g>
<!-- Node32 -->
<g id="Node000032" class="node">
<title>Node32</title>
<g id="a_Node000032"><a xlink:title=" ">
<polygon fill="#e0e0e0" stroke="#999999" points="1915.5,-134.5 1831.5,-134.5 1831.5,-115.5 1915.5,-115.5 1915.5,-134.5"/>
<text text-anchor="middle" x="1873.5" y="-122.5" font-family="Helvetica,sans-Serif" font-size="10.00">input_decl.inc</text>
</a>
</g>
</g>
<!-- Node2&#45;&gt;Node32 -->
<g id="edge40_Node000002_Node000032" class="edge">
<title>Node2&#45;&gt;Node32</title>
<g id="a_edge40_Node000002_Node000032"><a xlink:title=" ">
<path fill="none" stroke="#63b8ff" d="M1454.48,-181.48C1462.23,-179.44 1470.64,-177.44 1478.5,-176 1629.71,-148.29 1671.43,-168.44 1822.5,-140 1826.88,-139.18 1831.44,-138.16 1835.94,-137.05"/>
<polygon fill="#63b8ff" stroke="#63b8ff" points="1836.84,-140.44 1845.63,-134.53 1835.07,-133.66 1836.84,-140.44"/>
</a>
</g>
</g>
<!-- Node33 -->
<g id="Node000033" class="node">
<title>Node33</title>
<g id="a_Node000033"><a xlink:href="ac__helpers_8h.html" target="_top" xlink:title=" ">
<polygon fill="white" stroke="#666666" points="2011.5,-134.5 1933.5,-134.5 1933.5,-115.5 2011.5,-115.5 2011.5,-134.5"/>
<text text-anchor="middle" x="1972.5" y="-122.5" font-family="Helvetica,sans-Serif" font-size="10.00">ac_helpers.h</text>
</a>
</g>
</g>
<!-- Node2&#45;&gt;Node33 -->
<g id="edge41_Node000002_Node000033" class="edge">
<title>Node2&#45;&gt;Node33</title>
<g id="a_edge41_Node000002_Node000033"><a xlink:title=" ">
<path fill="none" stroke="#63b8ff" d="M1454.18,-181.43C1462,-179.37 1470.53,-177.36 1478.5,-176 1674.52,-142.47 1728.92,-176.03 1924.5,-140 1928.63,-139.24 1932.91,-138.27 1937.14,-137.19"/>
<polygon fill="#63b8ff" stroke="#63b8ff" points="1938.11,-140.55 1946.82,-134.53 1936.25,-133.8 1938.11,-140.55"/>
</a>
</g>
</g>
<!-- Node34 -->
<g id="Node000034" class="node">
<title>Node34</title>
<g id="a_Node000034"><a xlink:title=" ">
<polygon fill="#e0e0e0" stroke="#999999" points="2147.5,-140 2029.5,-140 2029.5,-110 2147.5,-110 2147.5,-140"/>
<text text-anchor="start" x="2037.5" y="-128" font-family="Helvetica,sans-Serif" font-size="10.00">scalar_reduce_buffer</text>
<text text-anchor="middle" x="2088.5" y="-117" font-family="Helvetica,sans-Serif" font-size="10.00">_defs.inc</text>
</a>
</g>
</g>
<!-- Node2&#45;&gt;Node34 -->
<g id="edge42_Node000002_Node000034" class="edge">
<title>Node2&#45;&gt;Node34</title>
<g id="a_edge42_Node000002_Node000034"><a xlink:title=" ">
<path fill="none" stroke="#63b8ff" d="M1453.89,-181.43C1461.79,-179.34 1470.42,-177.32 1478.5,-176 1713.49,-137.53 1779.47,-171.46 2019.17,-140.04"/>
<polygon fill="#63b8ff" stroke="#63b8ff" points="2019.8,-143.49 2029.24,-138.7 2018.87,-136.55 2019.8,-143.49"/>
</a>
</g>
</g>
<!-- Node35 -->
<g id="Node000035" class="node">
<title>Node35</title>
<g id="a_Node000035"><a xlink:title=" ">
<polygon fill="#e0e0e0" stroke="#999999" points="2289,-140 2166,-140 2166,-110 2289,-110 2289,-140"/>
<text text-anchor="start" x="2174" y="-128" font-family="Helvetica,sans-Serif" font-size="10.00">scalar_reduce_buffers</text>
<text text-anchor="middle" x="2227.5" y="-117" font-family="Helvetica,sans-Serif" font-size="10.00">_in_vba.inc</text>
</a>
</g>
</g>
<!-- Node2&#45;&gt;Node35 -->
<g id="edge43_Node000002_Node000035" class="edge">
<title>Node2&#45;&gt;Node35</title>
<g id="a_edge43_Node000002_Node000035"><a xlink:title=" ">
<path fill="none" stroke="#63b8ff" d="M1453.6,-181.43C1461.58,-179.31 1470.32,-177.28 1478.5,-176 1773.26,-129.75 1855.22,-176.21 2155.32,-140"/>
<polygon fill="#63b8ff" stroke="#63b8ff" points="2156.13,-143.43 2165.63,-138.74 2155.28,-136.48 2156.13,-143.43"/>
</a>
</g>
</g>
<!-- Node36 -->
<g id="Node000036" class="node">
<title>Node36</title>
<g id="a_Node000036"><a xlink:href="astaroth__analysis_8h.html" target="_top" xlink:title=" ">
<polygon fill="white" stroke="#666666" points="2419.5,-134.5 2307.5,-134.5 2307.5,-115.5 2419.5,-115.5 2419.5,-134.5"/>
<text text-anchor="middle" x="2363.5" y="-122.5" font-family="Helvetica,sans-Serif" font-size="10.00">astaroth_analysis.h</text>
</a>
</g>
</g>
<!-- Node2&#45;&gt;Node36 -->
<g id="edge44_Node000002_Node000036" class="edge">
<title>Node2&#45;&gt;Node36</title>
<g id="a_edge44_Node000002_Node000036"><a xlink:title=" ">
<path fill="none" stroke="#63b8ff" d="M1453.32,-181.45C1461.37,-179.31 1470.22,-177.26 1478.5,-176 1839.14,-121.1 1936.69,-186.57 2298.5,-140 2305.19,-139.14 2312.22,-137.94 2319.07,-136.6"/>
<polygon fill="#63b8ff" stroke="#63b8ff" points="2319.85,-140.02 2328.94,-134.57 2318.44,-133.16 2319.85,-140.02"/>
</a>
</g>
</g>
<!-- Node37 -->
<g id="Node000037" class="node">
<title>Node37</title>
<g id="a_Node000037"><a xlink:href="func__define_8h.html" target="_top" xlink:title=" ">
<polygon fill="white" stroke="#666666" points="2519.5,-134.5 2437.5,-134.5 2437.5,-115.5 2519.5,-115.5 2519.5,-134.5"/>
<text text-anchor="middle" x="2478.5" y="-122.5" font-family="Helvetica,sans-Serif" font-size="10.00">func_define.h</text>
</a>
</g>
</g>
<!-- Node2&#45;&gt;Node37 -->
<g id="edge45_Node000002_Node000037" class="edge">
<title>Node2&#45;&gt;Node37</title>
<g id="a_edge45_Node000002_Node000037"><a xlink:title=" ">
<path fill="none" stroke="#63b8ff" d="M1453.04,-181.5C1461.16,-179.32 1470.12,-177.25 1478.5,-176 1896.4,-113.67 2011.07,-205.41 2428.5,-140 2433.08,-139.28 2437.84,-138.29 2442.52,-137.16"/>
<polygon fill="#63b8ff" stroke="#63b8ff" points="2443.77,-140.45 2452.55,-134.51 2441.98,-133.68 2443.77,-140.45"/>
</a>
</g>
</g>
<!-- Node38 -->
<g id="Node000038" class="node">
<title>Node38</title>
<g id="a_Node000038"><a xlink:href="common__kernels_8h.html" target="_top" xlink:title=" ">
<polygon fill="white" stroke="#666666" points="2647,-134.5 2538,-134.5 2538,-115.5 2647,-115.5 2647,-134.5"/>
<text text-anchor="middle" x="2592.5" y="-122.5" font-family="Helvetica,sans-Serif" font-size="10.00">common_kernels.h</text>
</a>
</g>
</g>
<!-- Node2&#45;&gt;Node38 -->
<g id="edge46_Node000002_Node000038" class="edge">
<title>Node2&#45;&gt;Node38</title>
<g id="a_edge46_Node000002_Node000038"><a xlink:title=" ">
<path fill="none" stroke="#63b8ff" d="M1453.04,-181.48C1461.16,-179.3 1470.12,-177.23 1478.5,-176 1940.46,-107.95 2065.19,-198.13 2528.5,-140 2535.17,-139.16 2542.18,-137.97 2549,-136.62"/>
<polygon fill="#63b8ff" stroke="#63b8ff" points="2549.75,-140.04 2558.82,-134.56 2548.31,-133.19 2549.75,-140.04"/>
</a>
</g>
</g>
<!-- Node39 -->
<g id="Node000039" class="node">
<title>Node39</title>
<g id="a_Node000039"><a xlink:title=" ">
<polygon fill="#e0e0e0" stroke="#999999" points="2799.5,-140 2665.5,-140 2665.5,-110 2799.5,-110 2799.5,-140"/>
<text text-anchor="start" x="2673.5" y="-128" font-family="Helvetica,sans-Serif" font-size="10.00">load_and_store_uniform</text>
<text text-anchor="middle" x="2732.5" y="-117" font-family="Helvetica,sans-Serif" font-size="10.00">_header.inc</text>
</a>
</g>
</g>
<!-- Node2&#45;&gt;Node39 -->
<g id="edge47_Node000002_Node000039" class="edge">
<title>Node2&#45;&gt;Node39</title>
<g id="a_edge47_Node000002_Node000039"><a xlink:title=" ">
<path fill="none" stroke="#63b8ff" d="M1453.04,-181.46C1461.16,-179.28 1470.12,-177.22 1478.5,-176 1993.56,-101.1 2133.88,-194.41 2655.4,-139.98"/>
<polygon fill="#63b8ff" stroke="#63b8ff" points="2655.87,-143.45 2665.44,-138.92 2655.13,-136.49 2655.87,-143.45"/>
</a>
</g>
</g>
<!-- Node6 -->
<g id="Node000006" class="node">
<title>Node6</title>
<g id="a_Node000006"><a xlink:title=" ">
<polygon fill="#e0e0e0" stroke="#999999" points="364,-19 251,-19 251,0 364,0 364,-19"/>
<text text-anchor="middle" x="307.5" y="-7" font-family="Helvetica,sans-Serif" font-size="10.00">cuda_runtime_api.h</text>
</a>
</g>
</g>
<!-- Node5&#45;&gt;Node6 -->
<g id="edge5_Node000005_Node000006" class="edge">
<title>Node5&#45;&gt;Node6</title>
<g id="a_edge5_Node000005_Node000006"><a xlink:title=" ">
<path fill="none" stroke="#63b8ff" d="M556.78,-54.98C504.76,-45.7 421.5,-30.84 365.68,-20.88"/>
<polygon fill="#63b8ff" stroke="#63b8ff" points="366.05,-17.39 355.59,-19.08 364.82,-24.28 366.05,-17.39"/>
</a>
</g>
</g>
<!-- Node7 -->
<g id="Node000007" class="node">
<title>Node7</title>
<g id="a_Node000007"><a xlink:title=" ">
<polygon fill="#e0e0e0" stroke="#999999" points="642.5,-19 566.5,-19 566.5,0 642.5,0 642.5,-19"/>
<text text-anchor="middle" x="604.5" y="-7" font-family="Helvetica,sans-Serif" font-size="10.00">cuda_fp16.h</text>
</a>
</g>
</g>
<!-- Node5&#45;&gt;Node7 -->
<g id="edge6_Node000005_Node000007" class="edge">
<title>Node5&#45;&gt;Node7</title>
<g id="a_edge6_Node000005_Node000007"><a xlink:title=" ">
<path fill="none" stroke="#63b8ff" d="M604.5,-54.75C604.5,-47.8 604.5,-37.85 604.5,-29.13"/>
<polygon fill="#63b8ff" stroke="#63b8ff" points="608,-29.09 604.5,-19.09 601,-29.09 608,-29.09"/>
</a>
</g>
</g>
<!-- Node9&#45;&gt;Node5 -->
<g id="edge11_Node000009_Node000005" class="edge">
<title>Node9&#45;&gt;Node5</title>
<g id="a_edge11_Node000009_Node000005"><a xlink:title=" ">
<path fill="none" stroke="#63b8ff" d="M271.21,-115.44C278.44,-113.47 286.22,-111.51 293.5,-110 296.55,-109.37 453.66,-86.97 543.37,-74.2"/>
<polygon fill="#63b8ff" stroke="#63b8ff" points="544.02,-77.64 553.43,-72.77 543.04,-70.71 544.02,-77.64"/>
</a>
</g>
</g>
<!-- Node9&#45;&gt;Node6 -->
<g id="edge13_Node000009_Node000006" class="edge">
<title>Node9&#45;&gt;Node6</title>
<g id="a_edge13_Node000009_Node000006"><a xlink:title=" ">
<path fill="none" stroke="#63b8ff" d="M208.52,-115.41C171.65,-104.43 120.76,-83.38 142.5,-55 154.77,-38.99 200.55,-27.43 240.79,-20.11"/>
<polygon fill="#63b8ff" stroke="#63b8ff" points="241.63,-23.52 250.88,-18.34 240.42,-16.62 241.63,-23.52"/>
</a>
</g>
</g>
<!-- Node9&#45;&gt;Node8 -->
<g id="edge15_Node000009_Node000008" class="edge">
<title>Node9&#45;&gt;Node8</title>
<g id="a_edge15_Node000009_Node000008"><a xlink:title=" ">
<path fill="none" stroke="#63b8ff" d="M214.15,-115.49C180.21,-105.31 123.24,-88.22 85.51,-76.9"/>
<polygon fill="#63b8ff" stroke="#63b8ff" points="86.47,-73.54 75.89,-74.02 84.46,-80.24 86.47,-73.54"/>
</a>
</g>
</g>
<!-- Node10 -->
<g id="Node000010" class="node">
<title>Node10</title>
<g id="a_Node000010"><a xlink:title=" ">
<polygon fill="#e0e0e0" stroke="#999999" points="199,-74 152,-74 152,-55 199,-55 199,-74"/>
<text text-anchor="middle" x="175.5" y="-62" font-family="Helvetica,sans-Serif" font-size="10.00">float.h</text>
</a>
</g>
</g>
<!-- Node9&#45;&gt;Node10 -->
<g id="edge9_Node000009_Node000010" class="edge">
<title>Node9&#45;&gt;Node10</title>
<g id="a_edge9_Node000009_Node000010"><a xlink:title=" ">
<path fill="none" stroke="#63b8ff" d="M232.61,-115.37C222.22,-106.3 205.66,-91.84 193.05,-80.82"/>
<polygon fill="#63b8ff" stroke="#63b8ff" points="195.26,-78.11 185.43,-74.17 190.66,-83.38 195.26,-78.11"/>
</a>
</g>
</g>
<!-- Node11 -->
<g id="Node000011" class="node">
<title>Node11</title>
<g id="a_Node000011"><a xlink:title=" ">
<polygon fill="#e0e0e0" stroke="#999999" points="268,-74 217,-74 217,-55 268,-55 268,-74"/>
<text text-anchor="middle" x="242.5" y="-62" font-family="Helvetica,sans-Serif" font-size="10.00">math.h</text>
</a>
</g>
</g>
<!-- Node9&#45;&gt;Node11 -->
<g id="edge10_Node000009_Node000011" class="edge">
<title>Node9&#45;&gt;Node11</title>
<g id="a_edge10_Node000009_Node000011"><a xlink:title=" ">
<path fill="none" stroke="#63b8ff" d="M242.5,-115.37C242.5,-107.25 242.5,-94.81 242.5,-84.39"/>
<polygon fill="#63b8ff" stroke="#63b8ff" points="246,-84.17 242.5,-74.17 239,-84.17 246,-84.17"/>
</a>
</g>
</g>
<!-- Node12 -->
<g id="Node000012" class="node">
<title>Node12</title>
<g id="a_Node000012"><a xlink:title=" ">
<polygon fill="#e0e0e0" stroke="#999999" points="375,-74 286,-74 286,-55 375,-55 375,-74"/>
<text text-anchor="middle" x="330.5" y="-62" font-family="Helvetica,sans-Serif" font-size="10.00">vector_types.h</text>
</a>
</g>
</g>
<!-- Node9&#45;&gt;Node12 -->
<g id="edge12_Node000009_Node000012" class="edge">
<title>Node9&#45;&gt;Node12</title>
<g id="a_edge12_Node000009_Node000012"><a xlink:title=" ">
<path fill="none" stroke="#63b8ff" d="M255.48,-115.37C269.52,-106.04 292.13,-91.01 308.86,-79.88"/>
<polygon fill="#63b8ff" stroke="#63b8ff" points="311.07,-82.62 317.46,-74.17 307.2,-76.79 311.07,-82.62"/>
</a>
</g>
</g>
<!-- Node13 -->
<g id="Node000013" class="node">
<title>Node13</title>
<g id="a_Node000013"><a xlink:href="acreal_8h.html" target="_top" xlink:title=" ">
<polygon fill="white" stroke="#666666" points="1149.5,-19 1093.5,-19 1093.5,0 1149.5,0 1149.5,-19"/>
<text text-anchor="middle" x="1121.5" y="-7" font-family="Helvetica,sans-Serif" font-size="10.00">acreal.h</text>
</a>
</g>
</g>
<!-- Node9&#45;&gt;Node13 -->
<g id="edge14_Node000009_Node000013" class="edge">
<title>Node9&#45;&gt;Node13</title>
<g id="a_edge14_Node000009_Node000013"><a xlink:title=" ">
<path fill="none" stroke="#63b8ff" d="M269.81,-115.42C298.66,-106.11 345.31,-90.38 384.5,-74 402.29,-66.56 404.86,-59.93 423.5,-55 549.67,-21.64 956.09,-12.93 1083.16,-10.99"/>
<polygon fill="#63b8ff" stroke="#63b8ff" points="1083.25,-14.49 1093.2,-10.84 1083.15,-7.49 1083.25,-14.49"/>
</a>
</g>
</g>
<!-- Node14 -->
<g id="Node000014" class="node">
<title>Node14</title>
<g id="a_Node000014"><a xlink:title=" ">
<polygon fill="#e0e0e0" stroke="#999999" points="535,-74 432,-74 432,-55 535,-55 535,-74"/>
<text text-anchor="middle" x="483.5" y="-62" font-family="Helvetica,sans-Serif" font-size="10.00">user_typedefs.inc</text>
</a>
</g>
</g>
<!-- Node9&#45;&gt;Node14 -->
<g id="edge16_Node000009_Node000014" class="edge">
<title>Node9&#45;&gt;Node14</title>
<g id="a_edge16_Node000009_Node000014"><a xlink:title=" ">
<path fill="none" stroke="#63b8ff" d="M272.92,-115.45C279.69,-113.6 286.83,-111.7 293.5,-110 341.57,-97.78 396.81,-84.98 435.29,-76.26"/>
<polygon fill="#63b8ff" stroke="#63b8ff" points="436.2,-79.64 445.18,-74.03 434.66,-72.82 436.2,-79.64"/>
</a>
</g>
</g>
<!-- Node15 -->
<g id="Node000015" class="node">
<title>Node15</title>
<g id="a_Node000015"><a xlink:href="host__datatypes_8h.html" target="_top" xlink:title=" ">
<polygon fill="white" stroke="#666666" points="1317,-74 1216,-74 1216,-55 1317,-55 1317,-74"/>
<text text-anchor="middle" x="1266.5" y="-62" font-family="Helvetica,sans-Serif" font-size="10.00">host_datatypes.h</text>
</a>
</g>
</g>
<!-- Node9&#45;&gt;Node15 -->
<g id="edge17_Node000009_Node000015" class="edge">
<title>Node9&#45;&gt;Node15</title>
<g id="a_edge17_Node000009_Node000015"><a xlink:title=" ">
<path fill="none" stroke="#63b8ff" d="M279.68,-119.31C304.97,-116.26 339.21,-112.42 369.5,-110 683.69,-84.91 1061,-71.7 1205.83,-67.25"/>
<polygon fill="#63b8ff" stroke="#63b8ff" points="1205.96,-70.75 1215.85,-66.94 1205.75,-63.75 1205.96,-70.75"/>
</a>
</g>
</g>
<!-- Node15&#45;&gt;Node13 -->
<g id="edge18_Node000015_Node000013" class="edge">
<title>Node15&#45;&gt;Node13</title>
<g id="a_edge18_Node000015_Node000013"><a xlink:title=" ">
<path fill="none" stroke="#63b8ff" d="M1243.2,-54.98C1219.25,-46.23 1181.72,-32.51 1154.67,-22.62"/>
<polygon fill="#63b8ff" stroke="#63b8ff" points="1155.81,-19.32 1145.22,-19.17 1153.41,-25.89 1155.81,-19.32"/>
</a>
</g>
</g>
<!-- Node16 -->
<g id="Node000016" class="node">
<title>Node16</title>
<g id="a_Node000016"><a xlink:title=" ">
<polygon fill="#e0e0e0" stroke="#999999" points="1439.5,-19 1383.5,-19 1383.5,0 1439.5,0 1439.5,-19"/>
<text text-anchor="middle" x="1411.5" y="-7" font-family="Helvetica,sans-Serif" font-size="10.00">stddef.h</text>
</a>
</g>
</g>
<!-- Node15&#45;&gt;Node16 -->
<g id="edge19_Node000015_Node000016" class="edge">
<title>Node15&#45;&gt;Node16</title>
<g id="a_edge19_Node000015_Node000016"><a xlink:title=" ">
<path fill="none" stroke="#63b8ff" d="M1289.8,-54.98C1313.75,-46.23 1351.28,-32.51 1378.33,-22.62"/>
<polygon fill="#63b8ff" stroke="#63b8ff" points="1379.59,-25.89 1387.78,-19.17 1377.19,-19.32 1379.59,-25.89"/>
</a>
</g>
</g>
<!-- Node17&#45;&gt;Node3 -->
<g id="edge25_Node000017_Node000003" class="edge">
<title>Node17&#45;&gt;Node3</title>
<g id="a_edge25_Node000017_Node000003"><a xlink:title=" ">
<path fill="none" stroke="#63b8ff" d="M2855.83,-115.37C2866.69,-106.3 2883.99,-91.84 2897.17,-80.82"/>
<polygon fill="#63b8ff" stroke="#63b8ff" points="2899.7,-83.27 2905.13,-74.17 2895.21,-77.89 2899.7,-83.27"/>
</a>
</g>
</g>
<!-- Node17&#45;&gt;Node4 -->
<g id="edge23_Node000017_Node000004" class="edge">
<title>Node17&#45;&gt;Node4</title>
<g id="a_edge23_Node000017_Node000004"><a xlink:title=" ">
<path fill="none" stroke="#63b8ff" d="M2826.26,-115.39C2820.64,-113.24 2814.42,-111.21 2808.5,-110 2604.43,-68.32 1942.25,-65.46 1769.84,-65.44"/>
<polygon fill="#63b8ff" stroke="#63b8ff" points="1769.67,-61.94 1759.67,-65.44 1769.67,-68.94 1769.67,-61.94"/>
</a>
</g>
</g>
<!-- Node17&#45;&gt;Node5 -->
<g id="edge28_Node000017_Node000005" class="edge">
<title>Node17&#45;&gt;Node5</title>
<g id="a_edge28_Node000017_Node000005"><a xlink:title=" ">
<path fill="none" stroke="#63b8ff" d="M2826.66,-115.45C2820.94,-113.25 2814.57,-111.17 2808.5,-110 2754.46,-99.55 1016.81,-71.93 665.9,-66.45"/>
<polygon fill="#63b8ff" stroke="#63b8ff" points="665.74,-62.95 655.69,-66.29 665.63,-69.95 665.74,-62.95"/>
</a>
</g>
</g>
<!-- Node17&#45;&gt;Node15 -->
<g id="edge22_Node000017_Node000015" class="edge">
<title>Node17&#45;&gt;Node15</title>
<g id="a_edge22_Node000017_Node000015"><a xlink:title=" ">
<path fill="none" stroke="#63b8ff" d="M2826.65,-115.49C2820.94,-113.29 2814.56,-111.2 2808.5,-110 2734.78,-95.42 1604.6,-72.19 1327.49,-66.69"/>
<polygon fill="#63b8ff" stroke="#63b8ff" points="1327.29,-63.19 1317.23,-66.49 1327.15,-70.19 1327.29,-63.19"/>
</a>
</g>
</g>
<!-- Node17&#45;&gt;Node16 -->
<g id="edge21_Node000017_Node000016" class="edge">
<title>Node17&#45;&gt;Node16</title>
<g id="a_edge21_Node000017_Node000016"><a xlink:title=" ">
<path fill="none" stroke="#63b8ff" d="M2839.43,-115.15C2828.17,-99.58 2802.35,-67.74 2771.5,-55 2708.83,-29.12 1664.4,-13.86 1449.84,-11"/>
<polygon fill="#63b8ff" stroke="#63b8ff" points="1449.74,-7.49 1439.69,-10.86 1449.65,-14.49 1449.74,-7.49"/>
</a>
</g>
</g>
<!-- Node18 -->
<g id="Node000018" class="node">
<title>Node18</title>
<g id="a_Node000018"><a xlink:title=" ">
<polygon fill="#e0e0e0" stroke="#999999" points="2872,-74 2819,-74 2819,-55 2872,-55 2872,-74"/>
<text text-anchor="middle" x="2845.5" y="-62" font-family="Helvetica,sans-Serif" font-size="10.00">stdint.h</text>
</a>
</g>
</g>
<!-- Node17&#45;&gt;Node18 -->
<g id="edge24_Node000017_Node000018" class="edge">
<title>Node17&#45;&gt;Node18</title>
<g id="a_edge24_Node000017_Node000018"><a xlink:title=" ">
<path fill="none" stroke="#63b8ff" d="M2845.5,-115.37C2845.5,-107.25 2845.5,-94.81 2845.5,-84.39"/>
<polygon fill="#63b8ff" stroke="#63b8ff" points="2849,-84.17 2845.5,-74.17 2842,-84.17 2849,-84.17"/>
</a>
</g>
</g>
<!-- Node19 -->
<g id="Node000019" class="node">
<title>Node19</title>
<g id="a_Node000019"><a xlink:title=" ">
<polygon fill="#e0e0e0" stroke="#999999" points="2696,-74 2643,-74 2643,-55 2696,-55 2696,-74"/>
<text text-anchor="middle" x="2669.5" y="-62" font-family="Helvetica,sans-Serif" font-size="10.00">stdlib.h</text>
</a>
</g>
</g>
<!-- Node17&#45;&gt;Node19 -->
<g id="edge26_Node000017_Node000019" class="edge">
<title>Node17&#45;&gt;Node19</title>
<g id="a_edge26_Node000017_Node000019"><a xlink:title=" ">
<path fill="none" stroke="#63b8ff" d="M2823.26,-115.37C2818.41,-113.55 2813.3,-111.67 2808.5,-110 2773.88,-97.92 2733.98,-85.27 2705.83,-76.56"/>
<polygon fill="#63b8ff" stroke="#63b8ff" points="2706.61,-73.14 2696.02,-73.54 2704.55,-79.83 2706.61,-73.14"/>
</a>
</g>
</g>
<!-- Node20 -->
<g id="Node000020" class="node">
<title>Node20</title>
<g id="a_Node000020"><a xlink:title=" ">
<polygon fill="#e0e0e0" stroke="#999999" points="2762.5,-74 2714.5,-74 2714.5,-55 2762.5,-55 2762.5,-74"/>
<text text-anchor="middle" x="2738.5" y="-62" font-family="Helvetica,sans-Serif" font-size="10.00">time.h</text>
</a>
</g>
</g>
<!-- Node17&#45;&gt;Node20 -->
<g id="edge27_Node000017_Node000020" class="edge">
<title>Node17&#45;&gt;Node20</title>
<g id="a_edge27_Node000017_Node000020"><a xlink:title=" ">
<path fill="none" stroke="#63b8ff" d="M2829.71,-115.37C2812.17,-105.78 2783.62,-90.17 2763.13,-78.97"/>
<polygon fill="#63b8ff" stroke="#63b8ff" points="2764.81,-75.89 2754.35,-74.17 2761.45,-82.04 2764.81,-75.89"/>
</a>
</g>
</g>
<!-- Node40&#45;&gt;Node5 -->
<g id="edge49_Node000040_Node000005" class="edge">
<title>Node40&#45;&gt;Node5</title>
<g id="a_edge49_Node000040_Node000005"><a xlink:title=" ">
<path fill="none" stroke="#63b8ff" d="M756.93,-187.99C625.62,-183.59 359.48,-170.93 331.5,-140 322.56,-130.11 322.86,-120.16 331.5,-110 334.94,-105.95 464.03,-86.24 543.44,-74.45"/>
<polygon fill="#63b8ff" stroke="#63b8ff" points="543.97,-77.92 553.35,-72.99 542.94,-70.99 543.97,-77.92"/>
</a>
</g>
</g>
</g>
</svg>
