<?xml version="1.0" encoding="UTF-8" standalone="no"?>
<!DOCTYPE svg PUBLIC "-//W3C//DTD SVG 1.1//EN"
 "http://www.w3.org/Graphics/SVG/1.1/DTD/svg11.dtd">
<!-- Generated by graphviz version 2.43.0 (0)
 -->
<!-- Title: acc&#45;runtime/api/arrays.cc Pages: 1 -->
<!--zoomable 269 -->

<svg id="main" version="1.1" xmlns="http://www.w3.org/2000/svg" xmlns:xlink="http://www.w3.org/1999/xlink" xml:space="preserve" onload="init(evt)">
<style type="text/css"><![CDATA[
.node, .edge {opacity: 0.7;}
.node.selected, .edge.selected {opacity: 1;}
.edge:hover path { stroke: red; }
.edge:hover polygon { stroke: red; fill: red; }
]]></style>

<defs>
  <circle id="rim" cx="0" cy="0" r="7"/>
  <circle id="rim2" cx="0" cy="0" r="3.5"/>
  <g id="zoomPlus">
    <use xlink:href="#rim" fill="#404040"><set attributeName="fill" to="#808080" begin="zoomplus.mouseover" end="zoomplus.mouseout"/></use>
    <path d="M-4,0h8M0,-4v8" fill="none" stroke="white" stroke-width="1.5" pointer-events="none"/>
  </g>
  <g id="zoomMin">
    <use xlink:href="#rim" fill="#404040"><set attributeName="fill" to="#808080" begin="zoomminus.mouseover" end="zoomminus.mouseout"/></use>
    <path d="M-4,0h8" fill="none" stroke="white" stroke-width="1.5" pointer-events="none"/>
  </g>
  <g id="arrowUp" transform="translate(30 24)">
    <use xlink:href="#rim"/>
    <path pointer-events="none" fill="none" stroke="white" stroke-width="1.5" d="M0,-3.0v7 M-2.5,-0.5L0,-3.0L2.5,-0.5"/>
  </g>
  <g id="arrowRight" transform="rotate(90) translate(36 -43)">
    <use xlink:href="#rim"/>
    <path pointer-events="none" fill="none" stroke="white" stroke-width="1.5" d="M0,-3.0v7 M-2.5,-0.5L0,-3.0L2.5,-0.5"/>
  </g>
  <g id="arrowDown" transform="rotate(180) translate(-30 -48)">
    <use xlink:href="#rim"/>
    <path pointer-events="none" fill="none" stroke="white" stroke-width="1.5" d="M0,-3.0v7 M-2.5,-0.5L0,-3.0L2.5,-0.5"/>
  </g>
  <g id="arrowLeft" transform="rotate(270) translate(-36 17)">
    <use xlink:href="#rim"/>
    <path pointer-events="none" fill="none" stroke="white" stroke-width="1.5" d="M0,-3.0v7 M-2.5,-0.5L0,-3.0L2.5,-0.5"/>
  </g>
  <g id="resetDef">
    <use xlink:href="#rim2" fill="#404040"><set attributeName="fill" to="#808080" begin="reset.mouseover" end="reset.mouseout"/></use>
  </g>
</defs>
<script type="application/ecmascript">
var viewWidth = 2860;
var viewHeight = 269;
var sectionId = 'dynsection-0';
</script>
<script type="application/ecmascript" xlink:href="svg.min.js"/>
<svg id="graph" class="graph">
<g id="viewport">
<title>acc&#45;runtime/api/arrays.cc</title>
<!-- Node1 -->
<g id="Node000001" class="node">
<title>Node1</title>
<g id="a_Node000001"><a xlink:title=" ">
<polygon fill="#999999" stroke="#666666" points="1505.5,-261 1365.5,-261 1365.5,-242 1505.5,-242 1505.5,-261"/>
<text text-anchor="middle" x="1435.5" y="-249" font-family="Helvetica,sans-Serif" font-size="10.00">acc&#45;runtime/api/arrays.cc</text>
</a>
</g>
</g>
<!-- Node2 -->
<g id="Node000002" class="node">
<title>Node2</title>
<g id="a_Node000002"><a xlink:href="acc__runtime_8h.html" target="_top" xlink:title=" ">
<polygon fill="white" stroke="#666666" points="1411.5,-200.5 1325.5,-200.5 1325.5,-181.5 1411.5,-181.5 1411.5,-200.5"/>
<text text-anchor="middle" x="1368.5" y="-188.5" font-family="Helvetica,sans-Serif" font-size="10.00">acc_runtime.h</text>
</a>
</g>
</g>
<!-- Node1&#45;&gt;Node2 -->
<g id="edge1_Node000001_Node000002" class="edge">
<title>Node1&#45;&gt;Node2</title>
<g id="a_edge1_Node000001_Node000002"><a xlink:title=" ">
<path fill="none" stroke="#63b8ff" d="M1425.61,-241.87C1415.22,-232.8 1398.66,-218.34 1386.05,-207.32"/>
<polygon fill="#63b8ff" stroke="#63b8ff" points="1388.26,-204.61 1378.43,-200.67 1383.66,-209.88 1388.26,-204.61"/>
</a>
</g>
</g>
<!-- Node40 -->
<g id="Node000040" class="node">
<title>Node40</title>
<g id="a_Node000040"><a xlink:href="astaroth__cuda__wrappers_8h.html" target="_top" xlink:title=" ">
<polygon fill="white" stroke="#666666" points="871,-200.5 726,-200.5 726,-181.5 871,-181.5 871,-200.5"/>
<text text-anchor="middle" x="798.5" y="-188.5" font-family="Helvetica,sans-Serif" font-size="10.00">astaroth_cuda_wrappers.h</text>
</a>
</g>
</g>
<!-- Node1&#45;&gt;Node40 -->
<g id="edge48_Node000001_Node000040" class="edge">
<title>Node1&#45;&gt;Node40</title>
<g id="a_edge48_Node000001_Node000040"><a xlink:title=" ">
<path fill="none" stroke="#63b8ff" d="M1365.2,-244.04C1246.75,-233.17 1007.97,-211.24 881.48,-199.62"/>
<polygon fill="#63b8ff" stroke="#63b8ff" points="881.74,-196.13 871.46,-198.7 881.1,-203.1 881.74,-196.13"/>
</a>
</g>
</g>
<!-- Node41 -->
<g id="Node000041" class="node">
<title>Node41</title>
<g id="a_Node000041"><a xlink:title=" ">
<polygon fill="#e0e0e0" stroke="#999999" points="1577,-206 1430,-206 1430,-176 1577,-176 1577,-206"/>
<text text-anchor="start" x="1438" y="-194" font-family="Helvetica,sans-Serif" font-size="10.00">memcpy_to_gmem_arrays</text>
<text text-anchor="middle" x="1503.5" y="-183" font-family="Helvetica,sans-Serif" font-size="10.00">_header.h</text>
</a>
</g>
</g>
<!-- Node1&#45;&gt;Node41 -->
<g id="edge50_Node000001_Node000041" class="edge">
<title>Node1&#45;&gt;Node41</title>
<g id="a_edge50_Node000001_Node000041"><a xlink:title=" ">
<path fill="none" stroke="#63b8ff" d="M1445.53,-241.87C1454.42,-234.22 1467.75,-222.76 1479.38,-212.75"/>
<polygon fill="#63b8ff" stroke="#63b8ff" points="1481.8,-215.29 1487.09,-206.11 1477.23,-209.98 1481.8,-215.29"/>
</a>
</g>
</g>
<!-- Node42 -->
<g id="Node000042" class="node">
<title>Node42</title>
<g id="a_Node000042"><a xlink:title=" ">
<polygon fill="#e0e0e0" stroke="#999999" points="1756,-206 1595,-206 1595,-176 1756,-176 1756,-206"/>
<text text-anchor="start" x="1603" y="-194" font-family="Helvetica,sans-Serif" font-size="10.00">memcpy_from_gmem_arrays</text>
<text text-anchor="middle" x="1675.5" y="-183" font-family="Helvetica,sans-Serif" font-size="10.00">_header.h</text>
</a>
</g>
</g>
<!-- Node1&#45;&gt;Node42 -->
<g id="edge51_Node000001_Node000042" class="edge">
<title>Node1&#45;&gt;Node42</title>
<g id="a_edge51_Node000001_Node000042"><a xlink:title=" ">
<path fill="none" stroke="#63b8ff" d="M1470.4,-241.99C1506.3,-233.24 1563.13,-219.39 1607.87,-208.48"/>
<polygon fill="#63b8ff" stroke="#63b8ff" points="1608.91,-211.83 1617.8,-206.06 1607.26,-205.03 1608.91,-211.83"/>
</a>
</g>
</g>
<!-- Node3 -->
<g id="Node000003" class="node">
<title>Node3</title>
<g id="a_Node000003"><a xlink:title=" ">
<polygon fill="#e0e0e0" stroke="#999999" points="2851.5,-74 2801.5,-74 2801.5,-55 2851.5,-55 2851.5,-74"/>
<text text-anchor="middle" x="2826.5" y="-62" font-family="Helvetica,sans-Serif" font-size="10.00">stdio.h</text>
</a>
</g>
</g>
<!-- Node2&#45;&gt;Node3 -->
<g id="edge2_Node000002_Node000003" class="edge">
<title>Node2&#45;&gt;Node3</title>
<g id="a_edge2_Node000002_Node000003"><a xlink:title=" ">
<path fill="none" stroke="#63b8ff" d="M1396.03,-181.43C1404.15,-179.26 1413.12,-177.2 1421.5,-176 1496.98,-165.19 2730.14,-182.42 2793.5,-140 2812.1,-127.54 2820.32,-102.02 2823.88,-84.34"/>
<polygon fill="#63b8ff" stroke="#63b8ff" points="2827.36,-84.75 2825.58,-74.31 2820.46,-83.58 2827.36,-84.75"/>
</a>
</g>
</g>
<!-- Node4 -->
<g id="Node000004" class="node">
<title>Node4</title>
<g id="a_Node000004"><a xlink:title=" ">
<polygon fill="#e0e0e0" stroke="#999999" points="1710.5,-74 1648.5,-74 1648.5,-55 1710.5,-55 1710.5,-74"/>
<text text-anchor="middle" x="1679.5" y="-62" font-family="Helvetica,sans-Serif" font-size="10.00">stdbool.h</text>
</a>
</g>
</g>
<!-- Node2&#45;&gt;Node4 -->
<g id="edge3_Node000002_Node000004" class="edge">
<title>Node2&#45;&gt;Node4</title>
<g id="a_edge3_Node000002_Node000004"><a xlink:title=" ">
<path fill="none" stroke="#63b8ff" d="M1325.33,-188.57C1139.9,-182.31 419.6,-156.96 403.5,-140 394.32,-130.33 394.24,-119.59 403.5,-110 414.48,-98.63 1420.34,-72.16 1638.19,-66.55"/>
<polygon fill="#63b8ff" stroke="#63b8ff" points="1638.35,-70.05 1648.25,-66.3 1638.17,-63.05 1638.35,-70.05"/>
</a>
</g>
</g>
<!-- Node5 -->
<g id="Node000005" class="node">
<title>Node5</title>
<g id="a_Node000005"><a xlink:href="device__headers_8h.html" target="_top" xlink:title=" ">
<polygon fill="white" stroke="#666666" points="647.5,-74 545.5,-74 545.5,-55 647.5,-55 647.5,-74"/>
<text text-anchor="middle" x="596.5" y="-62" font-family="Helvetica,sans-Serif" font-size="10.00">device_headers.h</text>
</a>
</g>
</g>
<!-- Node2&#45;&gt;Node5 -->
<g id="edge4_Node000002_Node000005" class="edge">
<title>Node2&#45;&gt;Node5</title>
<g id="a_edge4_Node000002_Node000005"><a xlink:title=" ">
<path fill="none" stroke="#63b8ff" d="M1325.47,-188.6C1138.93,-182.42 408.81,-157.16 392.5,-140 383.32,-130.33 384.14,-120.38 392.5,-110 401.58,-98.73 478.68,-84.21 535.43,-74.87"/>
<polygon fill="#63b8ff" stroke="#63b8ff" points="536.11,-78.31 545.41,-73.25 534.98,-71.4 536.11,-78.31"/>
</a>
</g>
</g>
<!-- Node8 -->
<g id="Node000008" class="node">
<title>Node8</title>
<g id="a_Node000008"><a xlink:title=" ">
<polygon fill="#e0e0e0" stroke="#999999" points="95,-74 0,-74 0,-55 95,-55 95,-74"/>
<text text-anchor="middle" x="47.5" y="-62" font-family="Helvetica,sans-Serif" font-size="10.00">builtin_enums.h</text>
</a>
</g>
</g>
<!-- Node2&#45;&gt;Node8 -->
<g id="edge7_Node000002_Node000008" class="edge">
<title>Node2&#45;&gt;Node8</title>
<g id="a_edge7_Node000002_Node000008"><a xlink:title=" ">
<path fill="none" stroke="#63b8ff" d="M1325.26,-188.66C1120.07,-182.25 252.11,-154.39 196.5,-140 147.7,-127.38 96.28,-97.41 68.43,-79.56"/>
<polygon fill="#63b8ff" stroke="#63b8ff" points="70.22,-76.55 59.93,-74.02 66.39,-82.41 70.22,-76.55"/>
</a>
</g>
</g>
<!-- Node9 -->
<g id="Node000009" class="node">
<title>Node9</title>
<g id="a_Node000009"><a xlink:href="datatypes_8h.html" target="_top" xlink:title=" ">
<polygon fill="white" stroke="#666666" points="279.5,-134.5 205.5,-134.5 205.5,-115.5 279.5,-115.5 279.5,-134.5"/>
<text text-anchor="middle" x="242.5" y="-122.5" font-family="Helvetica,sans-Serif" font-size="10.00">datatypes.h</text>
</a>
</g>
</g>
<!-- Node2&#45;&gt;Node9 -->
<g id="edge8_Node000002_Node000009" class="edge">
<title>Node2&#45;&gt;Node9</title>
<g id="a_edge8_Node000002_Node000009"><a xlink:title=" ">
<path fill="none" stroke="#63b8ff" d="M1325.32,-188.54C1154.95,-182.69 529.07,-160.24 331.5,-140 317.86,-138.6 303.13,-136.52 289.65,-134.39"/>
<polygon fill="#63b8ff" stroke="#63b8ff" points="290.06,-130.91 279.62,-132.76 288.93,-137.82 290.06,-130.91"/>
</a>
</g>
</g>
<!-- Node17 -->
<g id="Node000017" class="node">
<title>Node17</title>
<g id="a_Node000017"><a xlink:href="errchk_8h.html" target="_top" xlink:title="Brief info.">
<polygon fill="white" stroke="#666666" points="2784.5,-134.5 2728.5,-134.5 2728.5,-115.5 2784.5,-115.5 2784.5,-134.5"/>
<text text-anchor="middle" x="2756.5" y="-122.5" font-family="Helvetica,sans-Serif" font-size="10.00">errchk.h</text>
</a>
</g>
</g>
<!-- Node2&#45;&gt;Node17 -->
<g id="edge20_Node000002_Node000017" class="edge">
<title>Node2&#45;&gt;Node17</title>
<g id="a_edge20_Node000002_Node000017"><a xlink:title=" ">
<path fill="none" stroke="#63b8ff" d="M1396.03,-181.44C1404.16,-179.27 1413.12,-177.21 1421.5,-176 1707.11,-134.88 2436.4,-195.84 2719.5,-140 2722.34,-139.44 2725.25,-138.68 2728.13,-137.81"/>
<polygon fill="#63b8ff" stroke="#63b8ff" points="2729.35,-141.09 2737.65,-134.52 2727.06,-134.48 2729.35,-141.09"/>
</a>
</g>
</g>
<!-- Node21 -->
<g id="Node000021" class="node">
<title>Node21</title>
<g id="a_Node000021"><a xlink:title=" ">
<polygon fill="#e0e0e0" stroke="#999999" points="499,-134.5 412,-134.5 412,-115.5 499,-115.5 499,-134.5"/>
<text text-anchor="middle" x="455.5" y="-122.5" font-family="Helvetica,sans-Serif" font-size="10.00">user_defines.h</text>
</a>
</g>
</g>
<!-- Node2&#45;&gt;Node21 -->
<g id="edge29_Node000002_Node000021" class="edge">
<title>Node2&#45;&gt;Node21</title>
<g id="a_edge29_Node000002_Node000021"><a xlink:title=" ">
<path fill="none" stroke="#63b8ff" d="M1325.34,-188.63C1174.09,-183.67 668.56,-165.53 508.5,-140 503.65,-139.23 498.59,-138.19 493.62,-137.04"/>
<polygon fill="#63b8ff" stroke="#63b8ff" points="494.16,-133.57 483.61,-134.54 492.46,-140.36 494.16,-133.57"/>
</a>
</g>
</g>
<!-- Node22 -->
<g id="Node000022" class="node">
<title>Node22</title>
<g id="a_Node000022"><a xlink:title=" ">
<polygon fill="#e0e0e0" stroke="#999999" points="603.5,-134.5 517.5,-134.5 517.5,-115.5 603.5,-115.5 603.5,-134.5"/>
<text text-anchor="middle" x="560.5" y="-122.5" font-family="Helvetica,sans-Serif" font-size="10.00">profiles_info.h</text>
</a>
</g>
</g>
<!-- Node2&#45;&gt;Node22 -->
<g id="edge30_Node000002_Node000022" class="edge">
<title>Node2&#45;&gt;Node22</title>
<g id="a_edge30_Node000002_Node000022"><a xlink:title=" ">
<path fill="none" stroke="#63b8ff" d="M1325.18,-190.03C1209.07,-189.49 881.53,-183.86 613.5,-140 608.65,-139.21 603.6,-138.16 598.62,-137"/>
<polygon fill="#63b8ff" stroke="#63b8ff" points="599.16,-133.53 588.61,-134.5 597.47,-140.32 599.16,-133.53"/>
</a>
</g>
</g>
<!-- Node23 -->
<g id="Node000023" class="node">
<title>Node23</title>
<g id="a_Node000023"><a xlink:title=" ">
<polygon fill="#e0e0e0" stroke="#999999" points="761,-134.5 622,-134.5 622,-115.5 761,-115.5 761,-134.5"/>
<text text-anchor="middle" x="691.5" y="-122.5" font-family="Helvetica,sans-Serif" font-size="10.00">user_built&#45;in_constants.h</text>
</a>
</g>
</g>
<!-- Node2&#45;&gt;Node23 -->
<g id="edge31_Node000002_Node000023" class="edge">
<title>Node2&#45;&gt;Node23</title>
<g id="a_edge31_Node000002_Node000023"><a xlink:title=" ">
<path fill="none" stroke="#63b8ff" d="M1325.21,-187.75C1226.51,-182.32 977.38,-166.92 770.5,-140 762.45,-138.95 753.97,-137.66 745.67,-136.28"/>
<polygon fill="#63b8ff" stroke="#63b8ff" points="746.13,-132.81 735.68,-134.57 744.95,-139.71 746.13,-132.81"/>
</a>
</g>
</g>
<!-- Node24 -->
<g id="Node000024" class="node">
<title>Node24</title>
<g id="a_Node000024"><a xlink:href="func__attributes_8h.html" target="_top" xlink:title=" ">
<polygon fill="white" stroke="#666666" points="878,-134.5 779,-134.5 779,-115.5 878,-115.5 878,-134.5"/>
<text text-anchor="middle" x="828.5" y="-122.5" font-family="Helvetica,sans-Serif" font-size="10.00">func_attributes.h</text>
</a>
</g>
</g>
<!-- Node2&#45;&gt;Node24 -->
<g id="edge32_Node000002_Node000024" class="edge">
<title>Node2&#45;&gt;Node24</title>
<g id="a_edge32_Node000002_Node000024"><a xlink:title=" ">
<path fill="none" stroke="#63b8ff" d="M1325.46,-187.4C1241.01,-181.89 1047.87,-167.24 887.5,-140 882.12,-139.09 876.49,-137.97 870.94,-136.76"/>
<polygon fill="#63b8ff" stroke="#63b8ff" points="871.64,-133.33 861.11,-134.53 870.09,-140.16 871.64,-133.33"/>
</a>
</g>
</g>
<!-- Node25 -->
<g id="Node000025" class="node">
<title>Node25</title>
<g id="a_Node000025"><a xlink:title=" ">
<polygon fill="#e0e0e0" stroke="#999999" points="1021,-134.5 896,-134.5 896,-115.5 1021,-115.5 1021,-134.5"/>
<text text-anchor="middle" x="958.5" y="-122.5" font-family="Helvetica,sans-Serif" font-size="10.00">user_input_typedefs.h</text>
</a>
</g>
</g>
<!-- Node2&#45;&gt;Node25 -->
<g id="edge33_Node000002_Node000025" class="edge">
<title>Node2&#45;&gt;Node25</title>
<g id="a_edge33_Node000002_Node000025"><a xlink:title=" ">
<path fill="none" stroke="#63b8ff" d="M1325.45,-184.27C1261.13,-175.56 1136.18,-158.08 1030.5,-140 1024.16,-138.91 1017.51,-137.71 1010.93,-136.48"/>
<polygon fill="#63b8ff" stroke="#63b8ff" points="1011.18,-132.97 1000.7,-134.54 1009.87,-139.84 1011.18,-132.97"/>
</a>
</g>
</g>
<!-- Node26 -->
<g id="Node000026" class="node">
<title>Node26</title>
<g id="a_Node000026"><a xlink:title=" ">
<polygon fill="#e0e0e0" stroke="#999999" points="1122,-134.5 1039,-134.5 1039,-115.5 1122,-115.5 1122,-134.5"/>
<text text-anchor="middle" x="1080.5" y="-122.5" font-family="Helvetica,sans-Serif" font-size="10.00">output_decl.h</text>
</a>
</g>
</g>
<!-- Node2&#45;&gt;Node26 -->
<g id="edge34_Node000002_Node000026" class="edge">
<title>Node2&#45;&gt;Node26</title>
<g id="a_edge34_Node000002_Node000026"><a xlink:title=" ">
<path fill="none" stroke="#63b8ff" d="M1325.08,-181.65C1277.42,-172.3 1198.73,-156.3 1131.5,-140 1127.85,-139.11 1124.06,-138.16 1120.28,-137.17"/>
<polygon fill="#63b8ff" stroke="#63b8ff" points="1120.92,-133.72 1110.36,-134.52 1119.12,-140.48 1120.92,-133.72"/>
</a>
</g>
</g>
<!-- Node27 -->
<g id="Node000027" class="node">
<title>Node27</title>
<g id="a_Node000027"><a xlink:title=" ">
<polygon fill="#e0e0e0" stroke="#999999" points="1256.5,-134.5 1140.5,-134.5 1140.5,-115.5 1256.5,-115.5 1256.5,-134.5"/>
<text text-anchor="middle" x="1198.5" y="-122.5" font-family="Helvetica,sans-Serif" font-size="10.00">comp_loaded_decl.h</text>
</a>
</g>
</g>
<!-- Node2&#45;&gt;Node27 -->
<g id="edge35_Node000002_Node000027" class="edge">
<title>Node2&#45;&gt;Node27</title>
<g id="a_edge35_Node000002_Node000027"><a xlink:title=" ">
<path fill="none" stroke="#63b8ff" d="M1345.57,-181.37C1315.96,-170.22 1264.25,-150.75 1230.7,-138.12"/>
<polygon fill="#63b8ff" stroke="#63b8ff" points="1231.93,-134.84 1221.33,-134.6 1229.46,-141.4 1231.93,-134.84"/>
</a>
</g>
</g>
<!-- Node28 -->
<g id="Node000028" class="node">
<title>Node28</title>
<g id="a_Node000028"><a xlink:title=" ">
<polygon fill="#e0e0e0" stroke="#999999" points="1352.5,-134.5 1274.5,-134.5 1274.5,-115.5 1352.5,-115.5 1352.5,-134.5"/>
<text text-anchor="middle" x="1313.5" y="-122.5" font-family="Helvetica,sans-Serif" font-size="10.00">comp_decl.h</text>
</a>
</g>
</g>
<!-- Node2&#45;&gt;Node28 -->
<g id="edge36_Node000002_Node000028" class="edge">
<title>Node2&#45;&gt;Node28</title>
<g id="a_edge36_Node000002_Node000028"><a xlink:title=" ">
<path fill="none" stroke="#63b8ff" d="M1361.08,-181.37C1352.6,-171.5 1338.52,-155.11 1327.87,-142.72"/>
<polygon fill="#63b8ff" stroke="#63b8ff" points="1330.33,-140.21 1321.15,-134.91 1325.02,-144.77 1330.33,-140.21"/>
</a>
</g>
</g>
<!-- Node29 -->
<g id="Node000029" class="node">
<title>Node29</title>
<g id="a_Node000029"><a xlink:title=" ">
<polygon fill="#e0e0e0" stroke="#999999" points="1478.5,-134.5 1370.5,-134.5 1370.5,-115.5 1478.5,-115.5 1478.5,-134.5"/>
<text text-anchor="middle" x="1424.5" y="-122.5" font-family="Helvetica,sans-Serif" font-size="10.00">info_loaded_decl.h</text>
</a>
</g>
</g>
<!-- Node2&#45;&gt;Node29 -->
<g id="edge37_Node000002_Node000029" class="edge">
<title>Node2&#45;&gt;Node29</title>
<g id="a_edge37_Node000002_Node000029"><a xlink:title=" ">
<path fill="none" stroke="#63b8ff" d="M1376.05,-181.37C1384.69,-171.5 1399.03,-155.11 1409.87,-142.72"/>
<polygon fill="#63b8ff" stroke="#63b8ff" points="1412.76,-144.74 1416.71,-134.91 1407.49,-140.13 1412.76,-144.74"/>
</a>
</g>
</g>
<!-- Node30 -->
<g id="Node000030" class="node">
<title>Node30</title>
<g id="a_Node000030"><a xlink:title=" ">
<polygon fill="#e0e0e0" stroke="#999999" points="1636.5,-134.5 1496.5,-134.5 1496.5,-115.5 1636.5,-115.5 1636.5,-134.5"/>
<text text-anchor="middle" x="1566.5" y="-122.5" font-family="Helvetica,sans-Serif" font-size="10.00">device_mesh_info_decl.h</text>
</a>
</g>
</g>
<!-- Node2&#45;&gt;Node30 -->
<g id="edge38_Node000002_Node000030" class="edge">
<title>Node2&#45;&gt;Node30</title>
<g id="a_edge38_Node000002_Node000030"><a xlink:title=" ">
<path fill="none" stroke="#63b8ff" d="M1395.2,-181.37C1429.99,-170.12 1490.96,-150.42 1530,-137.8"/>
<polygon fill="#63b8ff" stroke="#63b8ff" points="1531.47,-141 1539.9,-134.6 1529.31,-134.34 1531.47,-141"/>
</a>
</g>
</g>
<!-- Node31 -->
<g id="Node000031" class="node">
<title>Node31</title>
<g id="a_Node000031"><a xlink:title=" ">
<polygon fill="#e0e0e0" stroke="#999999" points="1732,-134.5 1655,-134.5 1655,-115.5 1732,-115.5 1732,-134.5"/>
<text text-anchor="middle" x="1693.5" y="-122.5" font-family="Helvetica,sans-Serif" font-size="10.00">array_decl.h</text>
</a>
</g>
</g>
<!-- Node2&#45;&gt;Node31 -->
<g id="edge39_Node000002_Node000031" class="edge">
<title>Node2&#45;&gt;Node31</title>
<g id="a_edge39_Node000002_Node000031"><a xlink:title=" ">
<path fill="none" stroke="#63b8ff" d="M1398.65,-181.48C1406.08,-179.54 1414.05,-177.58 1421.5,-176 1520.14,-155.1 1547.13,-162.16 1645.5,-140 1649.14,-139.18 1652.92,-138.24 1656.68,-137.24"/>
<polygon fill="#63b8ff" stroke="#63b8ff" points="1657.79,-140.56 1666.49,-134.52 1655.92,-133.82 1657.79,-140.56"/>
</a>
</g>
</g>
<!-- Node32 -->
<g id="Node000032" class="node">
<title>Node32</title>
<g id="a_Node000032"><a xlink:title=" ">
<polygon fill="#e0e0e0" stroke="#999999" points="1826.5,-134.5 1750.5,-134.5 1750.5,-115.5 1826.5,-115.5 1826.5,-134.5"/>
<text text-anchor="middle" x="1788.5" y="-122.5" font-family="Helvetica,sans-Serif" font-size="10.00">input_decl.h</text>
</a>
</g>
</g>
<!-- Node2&#45;&gt;Node32 -->
<g id="edge40_Node000002_Node000032" class="edge">
<title>Node2&#45;&gt;Node32</title>
<g id="a_edge40_Node000002_Node000032"><a xlink:title=" ">
<path fill="none" stroke="#63b8ff" d="M1397.76,-181.45C1405.44,-179.44 1413.74,-177.45 1421.5,-176 1562.17,-149.65 1601.26,-168.54 1741.5,-140 1745.22,-139.24 1749.08,-138.32 1752.9,-137.32"/>
<polygon fill="#63b8ff" stroke="#63b8ff" points="1754.17,-140.6 1762.85,-134.54 1752.28,-133.86 1754.17,-140.6"/>
</a>
</g>
</g>
<!-- Node33 -->
<g id="Node000033" class="node">
<title>Node33</title>
<g id="a_Node000033"><a xlink:href="ac__helpers_8h.html" target="_top" xlink:title=" ">
<polygon fill="white" stroke="#666666" points="1922.5,-134.5 1844.5,-134.5 1844.5,-115.5 1922.5,-115.5 1922.5,-134.5"/>
<text text-anchor="middle" x="1883.5" y="-122.5" font-family="Helvetica,sans-Serif" font-size="10.00">ac_helpers.h</text>
</a>
</g>
</g>
<!-- Node2&#45;&gt;Node33 -->
<g id="edge41_Node000002_Node000033" class="edge">
<title>Node2&#45;&gt;Node33</title>
<g id="a_edge41_Node000002_Node000033"><a xlink:title=" ">
<path fill="none" stroke="#63b8ff" d="M1397.18,-181.46C1405.01,-179.4 1413.53,-177.39 1421.5,-176 1603.45,-144.3 1653.97,-174.02 1835.5,-140 1839.63,-139.23 1843.91,-138.25 1848.14,-137.16"/>
<polygon fill="#63b8ff" stroke="#63b8ff" points="1849.1,-140.53 1857.82,-134.5 1847.25,-133.78 1849.1,-140.53"/>
</a>
</g>
</g>
<!-- Node34 -->
<g id="Node000034" class="node">
<title>Node34</title>
<g id="a_Node000034"><a xlink:title=" ">
<polygon fill="#e0e0e0" stroke="#999999" points="2058.5,-140 1940.5,-140 1940.5,-110 2058.5,-110 2058.5,-140"/>
<text text-anchor="start" x="1948.5" y="-128" font-family="Helvetica,sans-Serif" font-size="10.00">scalar_reduce_buffer</text>
<text text-anchor="middle" x="1999.5" y="-117" font-family="Helvetica,sans-Serif" font-size="10.00">_defs.h</text>
</a>
</g>
</g>
<!-- Node2&#45;&gt;Node34 -->
<g id="edge42_Node000002_Node000034" class="edge">
<title>Node2&#45;&gt;Node34</title>
<g id="a_edge42_Node000002_Node000034"><a xlink:title=" ">
<path fill="none" stroke="#63b8ff" d="M1396.89,-181.45C1404.8,-179.36 1413.43,-177.34 1421.5,-176 1642.38,-139.36 1704.58,-170.05 1930.08,-140.06"/>
<polygon fill="#63b8ff" stroke="#63b8ff" points="1930.8,-143.49 1940.24,-138.68 1929.86,-136.56 1930.8,-143.49"/>
</a>
</g>
</g>
<!-- Node35 -->
<g id="Node000035" class="node">
<title>Node35</title>
<g id="a_Node000035"><a xlink:title=" ">
<polygon fill="#e0e0e0" stroke="#999999" points="2200,-140 2077,-140 2077,-110 2200,-110 2200,-140"/>
<text text-anchor="start" x="2085" y="-128" font-family="Helvetica,sans-Serif" font-size="10.00">scalar_reduce_buffers</text>
<text text-anchor="middle" x="2138.5" y="-117" font-family="Helvetica,sans-Serif" font-size="10.00">_in_vba.h</text>
</a>
</g>
</g>
<!-- Node2&#45;&gt;Node35 -->
<g id="edge43_Node000002_Node000035" class="edge">
<title>Node2&#45;&gt;Node35</title>
<g id="a_edge43_Node000002_Node000035"><a xlink:title=" ">
<path fill="none" stroke="#63b8ff" d="M1396.6,-181.44C1404.58,-179.33 1413.32,-177.29 1421.5,-176 1702.19,-131.58 1780.37,-174.86 2066.36,-140"/>
<polygon fill="#63b8ff" stroke="#63b8ff" points="2067.13,-143.43 2076.63,-138.73 2066.27,-136.48 2067.13,-143.43"/>
</a>
</g>
</g>
<!-- Node36 -->
<g id="Node000036" class="node">
<title>Node36</title>
<g id="a_Node000036"><a xlink:href="astaroth__analysis_8h.html" target="_top" xlink:title=" ">
<polygon fill="white" stroke="#666666" points="2330.5,-134.5 2218.5,-134.5 2218.5,-115.5 2330.5,-115.5 2330.5,-134.5"/>
<text text-anchor="middle" x="2274.5" y="-122.5" font-family="Helvetica,sans-Serif" font-size="10.00">astaroth_analysis.h</text>
</a>
</g>
</g>
<!-- Node2&#45;&gt;Node36 -->
<g id="edge44_Node000002_Node000036" class="edge">
<title>Node2&#45;&gt;Node36</title>
<g id="a_edge44_Node000002_Node000036"><a xlink:title=" ">
<path fill="none" stroke="#63b8ff" d="M1396.32,-181.46C1404.37,-179.32 1413.22,-177.27 1421.5,-176 1768.05,-122.93 1861.82,-185.07 2209.5,-140 2216.19,-139.13 2223.22,-137.93 2230.07,-136.59"/>
<polygon fill="#63b8ff" stroke="#63b8ff" points="2230.85,-140.01 2239.94,-134.56 2229.44,-133.15 2230.85,-140.01"/>
</a>
</g>
</g>
<!-- Node37 -->
<g id="Node000037" class="node">
<title>Node37</title>
<g id="a_Node000037"><a xlink:href="func__define_8h.html" target="_top" xlink:title=" ">
<polygon fill="white" stroke="#666666" points="2430.5,-134.5 2348.5,-134.5 2348.5,-115.5 2430.5,-115.5 2430.5,-134.5"/>
<text text-anchor="middle" x="2389.5" y="-122.5" font-family="Helvetica,sans-Serif" font-size="10.00">func_define.h</text>
</a>
</g>
</g>
<!-- Node2&#45;&gt;Node37 -->
<g id="edge45_Node000002_Node000037" class="edge">
<title>Node2&#45;&gt;Node37</title>
<g id="a_edge45_Node000002_Node000037"><a xlink:title=" ">
<path fill="none" stroke="#63b8ff" d="M1396.32,-181.43C1404.37,-179.28 1413.22,-177.24 1421.5,-176 1825.31,-115.5 1936.15,-203.48 2339.5,-140 2344.08,-139.28 2348.84,-138.28 2353.52,-137.15"/>
<polygon fill="#63b8ff" stroke="#63b8ff" points="2354.77,-140.44 2363.55,-134.51 2352.98,-133.67 2354.77,-140.44"/>
</a>
</g>
</g>
<!-- Node38 -->
<g id="Node000038" class="node">
<title>Node38</title>
<g id="a_Node000038"><a xlink:href="common__kernels_8h.html" target="_top" xlink:title=" ">
<polygon fill="white" stroke="#666666" points="2558,-134.5 2449,-134.5 2449,-115.5 2558,-115.5 2558,-134.5"/>
<text text-anchor="middle" x="2503.5" y="-122.5" font-family="Helvetica,sans-Serif" font-size="10.00">common_kernels.h</text>
</a>
</g>
</g>
<!-- Node2&#45;&gt;Node38 -->
<g id="edge46_Node000002_Node000038" class="edge">
<title>Node2&#45;&gt;Node38</title>
<g id="a_edge46_Node000002_Node000038"><a xlink:title=" ">
<path fill="none" stroke="#63b8ff" d="M1396.04,-181.48C1404.16,-179.31 1413.12,-177.24 1421.5,-176 1869.36,-109.78 1990.33,-196.6 2439.5,-140 2446.17,-139.16 2453.18,-137.96 2460,-136.61"/>
<polygon fill="#63b8ff" stroke="#63b8ff" points="2460.75,-140.03 2469.82,-134.56 2459.31,-133.18 2460.75,-140.03"/>
</a>
</g>
</g>
<!-- Node39 -->
<g id="Node000039" class="node">
<title>Node39</title>
<g id="a_Node000039"><a xlink:title=" ">
<polygon fill="#e0e0e0" stroke="#999999" points="2710.5,-140 2576.5,-140 2576.5,-110 2710.5,-110 2710.5,-140"/>
<text text-anchor="start" x="2584.5" y="-128" font-family="Helvetica,sans-Serif" font-size="10.00">load_and_store_uniform</text>
<text text-anchor="middle" x="2643.5" y="-117" font-family="Helvetica,sans-Serif" font-size="10.00">_header.h</text>
</a>
</g>
</g>
<!-- Node2&#45;&gt;Node39 -->
<g id="edge47_Node000002_Node000039" class="edge">
<title>Node2&#45;&gt;Node39</title>
<g id="a_edge47_Node000002_Node000039"><a xlink:title=" ">
<path fill="none" stroke="#63b8ff" d="M1396.04,-181.46C1404.16,-179.29 1413.12,-177.22 1421.5,-176 1922.43,-102.94 2059.02,-193.11 2566.3,-140"/>
<polygon fill="#63b8ff" stroke="#63b8ff" points="2566.87,-143.45 2576.44,-138.92 2566.13,-136.49 2566.87,-143.45"/>
</a>
</g>
</g>
<!-- Node6 -->
<g id="Node000006" class="node">
<title>Node6</title>
<g id="a_Node000006"><a xlink:title=" ">
<polygon fill="#e0e0e0" stroke="#999999" points="360,-19 247,-19 247,0 360,0 360,-19"/>
<text text-anchor="middle" x="303.5" y="-7" font-family="Helvetica,sans-Serif" font-size="10.00">cuda_runtime_api.h</text>
</a>
</g>
</g>
<!-- Node5&#45;&gt;Node6 -->
<g id="edge5_Node000005_Node000006" class="edge">
<title>Node5&#45;&gt;Node6</title>
<g id="a_edge5_Node000005_Node000006"><a xlink:title=" ">
<path fill="none" stroke="#63b8ff" d="M549.42,-54.98C498.1,-45.7 415.96,-30.84 360.9,-20.88"/>
<polygon fill="#63b8ff" stroke="#63b8ff" points="361.41,-17.42 350.94,-19.08 360.16,-24.31 361.41,-17.42"/>
</a>
</g>
</g>
<!-- Node7 -->
<g id="Node000007" class="node">
<title>Node7</title>
<g id="a_Node000007"><a xlink:title=" ">
<polygon fill="#e0e0e0" stroke="#999999" points="634.5,-19 558.5,-19 558.5,0 634.5,0 634.5,-19"/>
<text text-anchor="middle" x="596.5" y="-7" font-family="Helvetica,sans-Serif" font-size="10.00">cuda_fp16.h</text>
</a>
</g>
</g>
<!-- Node5&#45;&gt;Node7 -->
<g id="edge6_Node000005_Node000007" class="edge">
<title>Node5&#45;&gt;Node7</title>
<g id="a_edge6_Node000005_Node000007"><a xlink:title=" ">
<path fill="none" stroke="#63b8ff" d="M596.5,-54.75C596.5,-47.8 596.5,-37.85 596.5,-29.13"/>
<polygon fill="#63b8ff" stroke="#63b8ff" points="600,-29.09 596.5,-19.09 593,-29.09 600,-29.09"/>
</a>
</g>
</g>
<!-- Node9&#45;&gt;Node5 -->
<g id="edge11_Node000009_Node000005" class="edge">
<title>Node9&#45;&gt;Node5</title>
<g id="a_edge11_Node000009_Node000005"><a xlink:title=" ">
<path fill="none" stroke="#63b8ff" d="M271.21,-115.46C278.44,-113.49 286.22,-111.53 293.5,-110 305.2,-107.54 450.15,-86.56 535.25,-74.3"/>
<polygon fill="#63b8ff" stroke="#63b8ff" points="535.91,-77.74 545.31,-72.85 534.92,-70.81 535.91,-77.74"/>
</a>
</g>
</g>
<!-- Node9&#45;&gt;Node6 -->
<g id="edge13_Node000009_Node000006" class="edge">
<title>Node9&#45;&gt;Node6</title>
<g id="a_edge13_Node000009_Node000006"><a xlink:title=" ">
<path fill="none" stroke="#63b8ff" d="M208.55,-115.43C171.71,-104.47 120.85,-83.45 142.5,-55 154.27,-39.54 197.84,-28.07 236.69,-20.65"/>
<polygon fill="#63b8ff" stroke="#63b8ff" points="237.77,-24.01 246.97,-18.76 236.5,-17.13 237.77,-24.01"/>
</a>
</g>
</g>
<!-- Node9&#45;&gt;Node8 -->
<g id="edge15_Node000009_Node000008" class="edge">
<title>Node9&#45;&gt;Node8</title>
<g id="a_edge15_Node000009_Node000008"><a xlink:title=" ">
<path fill="none" stroke="#63b8ff" d="M214.15,-115.49C180.21,-105.31 123.24,-88.22 85.51,-76.9"/>
<polygon fill="#63b8ff" stroke="#63b8ff" points="86.47,-73.54 75.89,-74.02 84.46,-80.24 86.47,-73.54"/>
</a>
</g>
</g>
<!-- Node10 -->
<g id="Node000010" class="node">
<title>Node10</title>
<g id="a_Node000010"><a xlink:title=" ">
<polygon fill="#e0e0e0" stroke="#999999" points="199,-74 152,-74 152,-55 199,-55 199,-74"/>
<text text-anchor="middle" x="175.5" y="-62" font-family="Helvetica,sans-Serif" font-size="10.00">float.h</text>
</a>
</g>
</g>
<!-- Node9&#45;&gt;Node10 -->
<g id="edge9_Node000009_Node000010" class="edge">
<title>Node9&#45;&gt;Node10</title>
<g id="a_edge9_Node000009_Node000010"><a xlink:title=" ">
<path fill="none" stroke="#63b8ff" d="M232.61,-115.37C222.22,-106.3 205.66,-91.84 193.05,-80.82"/>
<polygon fill="#63b8ff" stroke="#63b8ff" points="195.26,-78.11 185.43,-74.17 190.66,-83.38 195.26,-78.11"/>
</a>
</g>
</g>
<!-- Node11 -->
<g id="Node000011" class="node">
<title>Node11</title>
<g id="a_Node000011"><a xlink:title=" ">
<polygon fill="#e0e0e0" stroke="#999999" points="268,-74 217,-74 217,-55 268,-55 268,-74"/>
<text text-anchor="middle" x="242.5" y="-62" font-family="Helvetica,sans-Serif" font-size="10.00">math.h</text>
</a>
</g>
</g>
<!-- Node9&#45;&gt;Node11 -->
<g id="edge10_Node000009_Node000011" class="edge">
<title>Node9&#45;&gt;Node11</title>
<g id="a_edge10_Node000009_Node000011"><a xlink:title=" ">
<path fill="none" stroke="#63b8ff" d="M242.5,-115.37C242.5,-107.25 242.5,-94.81 242.5,-84.39"/>
<polygon fill="#63b8ff" stroke="#63b8ff" points="246,-84.17 242.5,-74.17 239,-84.17 246,-84.17"/>
</a>
</g>
</g>
<!-- Node12 -->
<g id="Node000012" class="node">
<title>Node12</title>
<g id="a_Node000012"><a xlink:title=" ">
<polygon fill="#e0e0e0" stroke="#999999" points="375,-74 286,-74 286,-55 375,-55 375,-74"/>
<text text-anchor="middle" x="330.5" y="-62" font-family="Helvetica,sans-Serif" font-size="10.00">vector_types.h</text>
</a>
</g>
</g>
<!-- Node9&#45;&gt;Node12 -->
<g id="edge12_Node000009_Node000012" class="edge">
<title>Node9&#45;&gt;Node12</title>
<g id="a_edge12_Node000009_Node000012"><a xlink:title=" ">
<path fill="none" stroke="#63b8ff" d="M255.48,-115.37C269.52,-106.04 292.13,-91.01 308.86,-79.88"/>
<polygon fill="#63b8ff" stroke="#63b8ff" points="311.07,-82.62 317.46,-74.17 307.2,-76.79 311.07,-82.62"/>
</a>
</g>
</g>
<!-- Node13 -->
<g id="Node000013" class="node">
<title>Node13</title>
<g id="a_Node000013"><a xlink:href="acreal_8h.html" target="_top" xlink:title=" ">
<polygon fill="white" stroke="#666666" points="1120.5,-19 1064.5,-19 1064.5,0 1120.5,0 1120.5,-19"/>
<text text-anchor="middle" x="1092.5" y="-7" font-family="Helvetica,sans-Serif" font-size="10.00">acreal.h</text>
</a>
</g>
</g>
<!-- Node9&#45;&gt;Node13 -->
<g id="edge14_Node000009_Node000013" class="edge">
<title>Node9&#45;&gt;Node13</title>
<g id="a_edge14_Node000009_Node000013"><a xlink:title=" ">
<path fill="none" stroke="#63b8ff" d="M269.81,-115.42C298.66,-106.11 345.31,-90.38 384.5,-74 402.29,-66.56 404.87,-59.95 423.5,-55 543.88,-22.99 930.53,-13.4 1054.13,-11.12"/>
<polygon fill="#63b8ff" stroke="#63b8ff" points="1054.32,-14.61 1064.25,-10.93 1054.19,-7.61 1054.32,-14.61"/>
</a>
</g>
</g>
<!-- Node14 -->
<g id="Node000014" class="node">
<title>Node14</title>
<g id="a_Node000014"><a xlink:title=" ">
<polygon fill="#e0e0e0" stroke="#999999" points="527,-74 432,-74 432,-55 527,-55 527,-74"/>
<text text-anchor="middle" x="479.5" y="-62" font-family="Helvetica,sans-Serif" font-size="10.00">user_typedefs.h</text>
</a>
</g>
</g>
<!-- Node9&#45;&gt;Node14 -->
<g id="edge16_Node000009_Node000014" class="edge">
<title>Node9&#45;&gt;Node14</title>
<g id="a_edge16_Node000009_Node000014"><a xlink:title=" ">
<path fill="none" stroke="#63b8ff" d="M272.93,-115.47C279.69,-113.62 286.83,-111.71 293.5,-110 340.53,-97.92 394.53,-85.12 432.19,-76.36"/>
<polygon fill="#63b8ff" stroke="#63b8ff" points="433.41,-79.67 442.36,-74.01 431.82,-72.86 433.41,-79.67"/>
</a>
</g>
</g>
<!-- Node15 -->
<g id="Node000015" class="node">
<title>Node15</title>
<g id="a_Node000015"><a xlink:href="host__datatypes_8h.html" target="_top" xlink:title=" ">
<polygon fill="white" stroke="#666666" points="1283,-74 1182,-74 1182,-55 1283,-55 1283,-74"/>
<text text-anchor="middle" x="1232.5" y="-62" font-family="Helvetica,sans-Serif" font-size="10.00">host_datatypes.h</text>
</a>
</g>
</g>
<!-- Node9&#45;&gt;Node15 -->
<g id="edge17_Node000009_Node000015" class="edge">
<title>Node9&#45;&gt;Node15</title>
<g id="a_edge17_Node000009_Node000015"><a xlink:title=" ">
<path fill="none" stroke="#63b8ff" d="M279.68,-119.32C304.97,-116.29 339.21,-112.45 369.5,-110 670.03,-85.71 1030.56,-72.13 1171.67,-67.42"/>
<polygon fill="#63b8ff" stroke="#63b8ff" points="1171.97,-70.91 1181.85,-67.08 1171.74,-63.91 1171.97,-70.91"/>
</a>
</g>
</g>
<!-- Node15&#45;&gt;Node13 -->
<g id="edge18_Node000015_Node000013" class="edge">
<title>Node15&#45;&gt;Node13</title>
<g id="a_edge18_Node000015_Node000013"><a xlink:title=" ">
<path fill="none" stroke="#63b8ff" d="M1210.01,-54.98C1186.98,-46.27 1150.96,-32.63 1124.87,-22.75"/>
<polygon fill="#63b8ff" stroke="#63b8ff" points="1125.99,-19.44 1115.4,-19.17 1123.52,-25.98 1125.99,-19.44"/>
</a>
</g>
</g>
<!-- Node16 -->
<g id="Node000016" class="node">
<title>Node16</title>
<g id="a_Node000016"><a xlink:title=" ">
<polygon fill="#e0e0e0" stroke="#999999" points="1400.5,-19 1344.5,-19 1344.5,0 1400.5,0 1400.5,-19"/>
<text text-anchor="middle" x="1372.5" y="-7" font-family="Helvetica,sans-Serif" font-size="10.00">stddef.h</text>
</a>
</g>
</g>
<!-- Node15&#45;&gt;Node16 -->
<g id="edge19_Node000015_Node000016" class="edge">
<title>Node15&#45;&gt;Node16</title>
<g id="a_edge19_Node000015_Node000016"><a xlink:title=" ">
<path fill="none" stroke="#63b8ff" d="M1254.99,-54.98C1278.02,-46.27 1314.04,-32.63 1340.13,-22.75"/>
<polygon fill="#63b8ff" stroke="#63b8ff" points="1341.48,-25.98 1349.6,-19.17 1339.01,-19.44 1341.48,-25.98"/>
</a>
</g>
</g>
<!-- Node17&#45;&gt;Node3 -->
<g id="edge25_Node000017_Node000003" class="edge">
<title>Node17&#45;&gt;Node3</title>
<g id="a_edge25_Node000017_Node000003"><a xlink:title=" ">
<path fill="none" stroke="#63b8ff" d="M2766.83,-115.37C2777.69,-106.3 2794.99,-91.84 2808.17,-80.82"/>
<polygon fill="#63b8ff" stroke="#63b8ff" points="2810.7,-83.27 2816.13,-74.17 2806.21,-77.89 2810.7,-83.27"/>
</a>
</g>
</g>
<!-- Node17&#45;&gt;Node4 -->
<g id="edge23_Node000017_Node000004" class="edge">
<title>Node17&#45;&gt;Node4</title>
<g id="a_edge23_Node000017_Node000004"><a xlink:title=" ">
<path fill="none" stroke="#63b8ff" d="M2737.26,-115.39C2731.64,-113.25 2725.42,-111.21 2719.5,-110 2523.65,-69.84 1889.48,-65.86 1720.95,-65.52"/>
<polygon fill="#63b8ff" stroke="#63b8ff" points="1720.76,-62.02 1710.76,-65.5 1720.75,-69.02 1720.76,-62.02"/>
</a>
</g>
</g>
<!-- Node17&#45;&gt;Node5 -->
<g id="edge28_Node000017_Node000005" class="edge">
<title>Node17&#45;&gt;Node5</title>
<g id="a_edge28_Node000017_Node000005"><a xlink:title=" ">
<path fill="none" stroke="#63b8ff" d="M2737.66,-115.46C2731.94,-113.25 2725.57,-111.18 2719.5,-110 2667.56,-99.94 1000.77,-72.12 657.82,-66.5"/>
<polygon fill="#63b8ff" stroke="#63b8ff" points="657.65,-63 647.6,-66.33 657.54,-70 657.65,-63"/>
</a>
</g>
</g>
<!-- Node17&#45;&gt;Node15 -->
<g id="edge22_Node000017_Node000015" class="edge">
<title>Node17&#45;&gt;Node15</title>
<g id="a_edge22_Node000017_Node000015"><a xlink:title=" ">
<path fill="none" stroke="#63b8ff" d="M2737.65,-115.49C2731.94,-113.29 2725.56,-111.2 2719.5,-110 2648.57,-95.93 1563.33,-72.41 1293.09,-66.75"/>
<polygon fill="#63b8ff" stroke="#63b8ff" points="1293.14,-63.25 1283.07,-66.54 1293,-70.25 1293.14,-63.25"/>
</a>
</g>
</g>
<!-- Node17&#45;&gt;Node16 -->
<g id="edge21_Node000017_Node000016" class="edge">
<title>Node17&#45;&gt;Node16</title>
<g id="a_edge21_Node000017_Node000016"><a xlink:title=" ">
<path fill="none" stroke="#63b8ff" d="M2750.43,-115.15C2739.16,-99.59 2713.34,-67.76 2682.5,-55 2562.42,-5.33 1613.74,-8.87 1410.68,-10.21"/>
<polygon fill="#63b8ff" stroke="#63b8ff" points="1410.48,-6.71 1400.5,-10.28 1410.52,-13.71 1410.48,-6.71"/>
</a>
</g>
</g>
<!-- Node18 -->
<g id="Node000018" class="node">
<title>Node18</title>
<g id="a_Node000018"><a xlink:title=" ">
<polygon fill="#e0e0e0" stroke="#999999" points="2783,-74 2730,-74 2730,-55 2783,-55 2783,-74"/>
<text text-anchor="middle" x="2756.5" y="-62" font-family="Helvetica,sans-Serif" font-size="10.00">stdint.h</text>
</a>
</g>
</g>
<!-- Node17&#45;&gt;Node18 -->
<g id="edge24_Node000017_Node000018" class="edge">
<title>Node17&#45;&gt;Node18</title>
<g id="a_edge24_Node000017_Node000018"><a xlink:title=" ">
<path fill="none" stroke="#63b8ff" d="M2756.5,-115.37C2756.5,-107.25 2756.5,-94.81 2756.5,-84.39"/>
<polygon fill="#63b8ff" stroke="#63b8ff" points="2760,-84.17 2756.5,-74.17 2753,-84.17 2760,-84.17"/>
</a>
</g>
</g>
<!-- Node19 -->
<g id="Node000019" class="node">
<title>Node19</title>
<g id="a_Node000019"><a xlink:title=" ">
<polygon fill="#e0e0e0" stroke="#999999" points="2607,-74 2554,-74 2554,-55 2607,-55 2607,-74"/>
<text text-anchor="middle" x="2580.5" y="-62" font-family="Helvetica,sans-Serif" font-size="10.00">stdlib.h</text>
</a>
</g>
</g>
<!-- Node17&#45;&gt;Node19 -->
<g id="edge26_Node000017_Node000019" class="edge">
<title>Node17&#45;&gt;Node19</title>
<g id="a_edge26_Node000017_Node000019"><a xlink:title=" ">
<path fill="none" stroke="#63b8ff" d="M2734.26,-115.37C2729.41,-113.55 2724.3,-111.67 2719.5,-110 2684.88,-97.92 2644.98,-85.27 2616.83,-76.56"/>
<polygon fill="#63b8ff" stroke="#63b8ff" points="2617.61,-73.14 2607.02,-73.54 2615.55,-79.83 2617.61,-73.14"/>
</a>
</g>
</g>
<!-- Node20 -->
<g id="Node000020" class="node">
<title>Node20</title>
<g id="a_Node000020"><a xlink:title=" ">
<polygon fill="#e0e0e0" stroke="#999999" points="2673.5,-74 2625.5,-74 2625.5,-55 2673.5,-55 2673.5,-74"/>
<text text-anchor="middle" x="2649.5" y="-62" font-family="Helvetica,sans-Serif" font-size="10.00">time.h</text>
</a>
</g>
</g>
<!-- Node17&#45;&gt;Node20 -->
<g id="edge27_Node000017_Node000020" class="edge">
<title>Node17&#45;&gt;Node20</title>
<g id="a_edge27_Node000017_Node000020"><a xlink:title=" ">
<path fill="none" stroke="#63b8ff" d="M2740.71,-115.37C2723.17,-105.78 2694.62,-90.17 2674.13,-78.97"/>
<polygon fill="#63b8ff" stroke="#63b8ff" points="2675.81,-75.89 2665.35,-74.17 2672.45,-82.04 2675.81,-75.89"/>
</a>
</g>
</g>
<!-- Node40&#45;&gt;Node5 -->
<g id="edge49_Node000040_Node000005" class="edge">
<title>Node40&#45;&gt;Node5</title>
<g id="a_edge49_Node000040_Node000005"><a xlink:title=" ">
<path fill="none" stroke="#63b8ff" d="M725.56,-187.45C600.81,-182.32 357.32,-168.73 331.5,-140 322.59,-130.08 322.89,-120.18 331.5,-110 334.8,-106.1 457.95,-86.66 535.19,-74.8"/>
<polygon fill="#63b8ff" stroke="#63b8ff" points="535.94,-78.22 545.3,-73.25 534.88,-71.31 535.94,-78.22"/>
</a>
</g>
</g>
</g>
</svg>

<g id="navigator" transform="translate(0 0)" fill="#404254">
  <rect fill="#f2f5e9" fill-opacity="0.5" stroke="#606060" stroke-width=".5" x="0" y="0" width="60" height="60"/>
  <use id="zoomplus" xlink:href="#zoomPlus" x="17" y="9" onmousedown="handleZoom(evt,'in')"/>
  <use id="zoomminus" xlink:href="#zoomMin" x="42" y="9" onmousedown="handleZoom(evt,'out')"/>
  <use id="reset" xlink:href="#resetDef" x="30" y="36" onmousedown="handleReset()"/>
   <use id="arrowup" xlink:href="#arrowUp" x="0" y="0" onmousedown="handlePan(0,-1)"/>
  <use id="arrowright" xlink:href="#arrowRight" x="0" y="0" onmousedown="handlePan(1,0)"/>
  <use id="arrowdown" xlink:href="#arrowDown" x="0" y="0" onmousedown="handlePan(0,1)"/>
  <use id="arrowleft" xlink:href="#arrowLeft" x="0" y="0" onmousedown="handlePan(-1,0)"/>
</g>
<svg viewBox="0 0 15 15" width="100%" height="30px" preserveAspectRatio="xMaxYMin meet">
 <g id="arrow_out" transform="scale(0.3 0.3)">
  <a xlink:href="arrays_8cc__incl_org.svg" target="_base">
   <rect id="button" ry="5" rx="5" y="6" x="6" height="38" width="38"
        fill="#f2f5e9" fill-opacity="0.5" stroke="#606060" stroke-width="1.0"/>
   <path id="arrow"
     d="M 11.500037,31.436501 C 11.940474,20.09759 22.043105,11.32322 32.158766,21.979434 L 37.068811,17.246167 C 37.068811,17.246167 37.088388,32 37.088388,32 L 22.160133,31.978069 C 22.160133,31.978069 26.997745,27.140456 26.997745,27.140456 C 18.528582,18.264221 13.291696,25.230495 11.500037,31.436501 z"
     style="fill:#404040;"/>
  </a>
 </g>
</svg>

<style type='text/css'>
<![CDATA[
[data-mouse-over-selected='false'] { opacity: 0.7; }
[data-mouse-over-selected='true']  { opacity: 1.0; }
]]>
</style>
<script type="application/ecmascript"><![CDATA[
document.addEventListener('DOMContentLoaded', (event) => {
  highlightEdges();
  highlightAdjacentNodes();
});
]]></script>
</svg>
