<?xml version="1.0" encoding="UTF-8" standalone="no"?>
<!DOCTYPE svg PUBLIC "-//W3C//DTD SVG 1.1//EN"
 "http://www.w3.org/Graphics/SVG/1.1/DTD/svg11.dtd">
<!-- Generated by graphviz version 2.43.0 (0)
 -->
<!-- Title: acc&#45;runtime/api/arrays.cc Pages: 1 -->
<svg width="2710pt" height="324pt"
 viewBox="0.00 0.00 2710.47 324.00" xmlns="http://www.w3.org/2000/svg" xmlns:xlink="http://www.w3.org/1999/xlink">
<g id="graph0" class="graph" transform="scale(1 1) rotate(0) translate(4 320)">
<title>acc&#45;runtime/api/arrays.cc</title>
<!-- Node1 -->
<g id="Node000001" class="node">
<title>Node1</title>
<g id="a_Node000001"><a xlink:title=" ">
<polygon fill="#999999" stroke="#666666" points="1355,-316 1215,-316 1215,-297 1355,-297 1355,-316"/>
<text text-anchor="middle" x="1285" y="-304" font-family="Helvetica,sans-Serif" font-size="10.00">acc&#45;runtime/api/arrays.cc</text>
</a>
</g>
</g>
<!-- Node2 -->
<g id="Node000002" class="node">
<title>Node2</title>
<g id="a_Node000002"><a xlink:title=" ">
<polygon fill="#e0e0e0" stroke="#999999" points="394,-129 344,-129 344,-110 394,-110 394,-129"/>
<text text-anchor="middle" x="369" y="-117" font-family="Helvetica,sans-Serif" font-size="10.00">stdio.h</text>
</a>
</g>
</g>
<!-- Node1&#45;&gt;Node2 -->
<g id="edge1_Node000001_Node000002" class="edge">
<title>Node1&#45;&gt;Node2</title>
<g id="a_edge1_Node000001_Node000002"><a xlink:title=" ">
<path fill="none" stroke="#63b8ff" d="M1214.83,-303.87C1023.65,-299.13 502.96,-284.24 429,-261 376.05,-244.37 349.94,-243.52 323,-195 316.53,-183.34 317.8,-177.28 323,-165 327.98,-153.25 337.75,-143.09 347.01,-135.45"/>
<polygon fill="#63b8ff" stroke="#63b8ff" points="349.4,-138.03 355.22,-129.18 345.15,-132.47 349.4,-138.03"/>
</a>
</g>
</g>
<!-- Node3 -->
<g id="Node000003" class="node">
<title>Node3</title>
<g id="a_Node000003"><a xlink:href="ac__helpers_8h.html" target="_top" xlink:title=" ">
<polygon fill="white" stroke="#666666" points="2502,-189.5 2424,-189.5 2424,-170.5 2502,-170.5 2502,-189.5"/>
<text text-anchor="middle" x="2463" y="-177.5" font-family="Helvetica,sans-Serif" font-size="10.00">ac_helpers.h</text>
</a>
</g>
</g>
<!-- Node1&#45;&gt;Node3 -->
<g id="edge2_Node000001_Node000003" class="edge">
<title>Node1&#45;&gt;Node3</title>
<g id="a_edge2_Node000001_Node000003"><a xlink:title=" ">
<path fill="none" stroke="#63b8ff" d="M1295.13,-296.91C1317.84,-277.7 1371.2,-232.81 1376,-231 1483.57,-190.46 2296.27,-211.78 2410,-195 2415.11,-194.25 2420.43,-193.18 2425.64,-191.98"/>
<polygon fill="#63b8ff" stroke="#63b8ff" points="2426.61,-195.34 2435.46,-189.52 2424.91,-188.55 2426.61,-195.34"/>
</a>
</g>
</g>
<!-- Node8 -->
<g id="Node000008" class="node">
<title>Node8</title>
<g id="a_Node000008"><a xlink:href="host__datatypes_8h.html" target="_top" xlink:title=" ">
<polygon fill="white" stroke="#666666" points="1011.5,-129 910.5,-129 910.5,-110 1011.5,-110 1011.5,-129"/>
<text text-anchor="middle" x="961" y="-117" font-family="Helvetica,sans-Serif" font-size="10.00">host_datatypes.h</text>
</a>
</g>
</g>
<!-- Node1&#45;&gt;Node8 -->
<g id="edge60_Node000001_Node000008" class="edge">
<title>Node1&#45;&gt;Node8</title>
<g id="a_edge60_Node000001_Node000008"><a xlink:title=" ">
<path fill="none" stroke="#63b8ff" d="M1214.75,-302.63C1004.59,-293.34 391.58,-260.78 333,-195 324.13,-185.04 323.91,-174.76 333,-165 371.13,-124.07 749.85,-120.15 900.07,-120.21"/>
<polygon fill="#63b8ff" stroke="#63b8ff" points="900.48,-123.71 910.48,-120.23 900.49,-116.71 900.48,-123.71"/>
</a>
</g>
</g>
<!-- Node13 -->
<g id="Node000013" class="node">
<title>Node13</title>
<g id="a_Node000013"><a xlink:href="acc__runtime_8h.html" target="_top" xlink:title=" ">
<polygon fill="white" stroke="#666666" points="1328,-255.5 1242,-255.5 1242,-236.5 1328,-236.5 1328,-255.5"/>
<text text-anchor="middle" x="1285" y="-243.5" font-family="Helvetica,sans-Serif" font-size="10.00">acc_runtime.h</text>
</a>
</g>
</g>
<!-- Node1&#45;&gt;Node13 -->
<g id="edge14_Node000001_Node000013" class="edge">
<title>Node1&#45;&gt;Node13</title>
<g id="a_edge14_Node000001_Node000013"><a xlink:title=" ">
<path fill="none" stroke="#63b8ff" d="M1285,-296.87C1285,-288.75 1285,-276.31 1285,-265.89"/>
<polygon fill="#63b8ff" stroke="#63b8ff" points="1288.5,-265.67 1285,-255.67 1281.5,-265.67 1288.5,-265.67"/>
</a>
</g>
</g>
<!-- Node19 -->
<g id="Node000019" class="node">
<title>Node19</title>
<g id="a_Node000019"><a xlink:href="errchk_8h.html" target="_top" xlink:title="Brief info.">
<polygon fill="white" stroke="#666666" points="210,-189.5 154,-189.5 154,-170.5 210,-170.5 210,-189.5"/>
<text text-anchor="middle" x="182" y="-177.5" font-family="Helvetica,sans-Serif" font-size="10.00">errchk.h</text>
</a>
</g>
</g>
<!-- Node1&#45;&gt;Node19 -->
<g id="edge59_Node000001_Node000019" class="edge">
<title>Node1&#45;&gt;Node19</title>
<g id="a_edge59_Node000001_Node000019"><a xlink:title=" ">
<path fill="none" stroke="#63b8ff" d="M1214.89,-304.48C984.93,-300.86 265.83,-287.5 224,-261 202.4,-247.32 191.28,-218.62 186.05,-199.58"/>
<polygon fill="#63b8ff" stroke="#63b8ff" points="189.4,-198.55 183.62,-189.67 182.6,-200.22 189.4,-198.55"/>
</a>
</g>
</g>
<!-- Node39 -->
<g id="Node000039" class="node">
<title>Node39</title>
<g id="a_Node000039"><a xlink:title=" ">
<polygon fill="#e0e0e0" stroke="#999999" points="1545.5,-261 1384.5,-261 1384.5,-231 1545.5,-231 1545.5,-261"/>
<text text-anchor="start" x="1392.5" y="-249" font-family="Helvetica,sans-Serif" font-size="10.00">memcpy_from_gmem_arrays</text>
<text text-anchor="middle" x="1465" y="-238" font-family="Helvetica,sans-Serif" font-size="10.00">_header.h</text>
</a>
</g>
</g>
<!-- Node1&#45;&gt;Node39 -->
<g id="edge61_Node000001_Node000039" class="edge">
<title>Node1&#45;&gt;Node39</title>
<g id="a_edge61_Node000001_Node000039"><a xlink:title=" ">
<path fill="none" stroke="#63b8ff" d="M1311.17,-296.99C1337.53,-288.43 1378.93,-274.97 1412.15,-264.18"/>
<polygon fill="#63b8ff" stroke="#63b8ff" points="1413.3,-267.48 1421.73,-261.06 1411.13,-260.83 1413.3,-267.48"/>
</a>
</g>
</g>
<!-- Node40 -->
<g id="Node000040" class="node">
<title>Node40</title>
<g id="a_Node000040"><a xlink:title=" ">
<polygon fill="#e0e0e0" stroke="#999999" points="1710.5,-261 1563.5,-261 1563.5,-231 1710.5,-231 1710.5,-261"/>
<text text-anchor="start" x="1571.5" y="-249" font-family="Helvetica,sans-Serif" font-size="10.00">memcpy_to_gmem_arrays</text>
<text text-anchor="middle" x="1637" y="-238" font-family="Helvetica,sans-Serif" font-size="10.00">_header.h</text>
</a>
</g>
</g>
<!-- Node1&#45;&gt;Node40 -->
<g id="edge62_Node000001_Node000040" class="edge">
<title>Node1&#45;&gt;Node40</title>
<g id="a_edge62_Node000001_Node000040"><a xlink:title=" ">
<path fill="none" stroke="#63b8ff" d="M1337.28,-296.97C1389.45,-288.45 1472.2,-274.87 1552.9,-261.35"/>
<polygon fill="#63b8ff" stroke="#63b8ff" points="1553.96,-264.72 1563.25,-259.61 1552.81,-257.81 1553.96,-264.72"/>
</a>
</g>
</g>
<!-- Node4 -->
<g id="Node000004" class="node">
<title>Node4</title>
<g id="a_Node000004"><a xlink:href="acreal_8h.html" target="_top" xlink:title=" ">
<polygon fill="white" stroke="#666666" points="2338,-74 2282,-74 2282,-55 2338,-55 2338,-74"/>
<text text-anchor="middle" x="2310" y="-62" font-family="Helvetica,sans-Serif" font-size="10.00">acreal.h</text>
</a>
</g>
</g>
<!-- Node3&#45;&gt;Node4 -->
<g id="edge3_Node000003_Node000004" class="edge">
<title>Node3&#45;&gt;Node4</title>
<g id="a_edge3_Node000003_Node000004"><a xlink:title=" ">
<path fill="none" stroke="#63b8ff" d="M2446.81,-170.48C2429.64,-161.16 2402,-145.36 2380,-129 2360.19,-114.27 2339.48,-94.92 2325.78,-81.46"/>
<polygon fill="#63b8ff" stroke="#63b8ff" points="2328.14,-78.87 2318.58,-74.31 2323.2,-83.84 2328.14,-78.87"/>
</a>
</g>
</g>
<!-- Node5 -->
<g id="Node000005" class="node">
<title>Node5</title>
<g id="a_Node000005"><a xlink:href="device__headers_8h.html" target="_top" xlink:title=" ">
<polygon fill="white" stroke="#666666" points="2255,-74 2153,-74 2153,-55 2255,-55 2255,-74"/>
<text text-anchor="middle" x="2204" y="-62" font-family="Helvetica,sans-Serif" font-size="10.00">device_headers.h</text>
</a>
</g>
</g>
<!-- Node3&#45;&gt;Node5 -->
<g id="edge4_Node000003_Node000005" class="edge">
<title>Node3&#45;&gt;Node5</title>
<g id="a_edge4_Node000003_Node000005"><a xlink:title=" ">
<path fill="none" stroke="#63b8ff" d="M2443.53,-170.47C2398.35,-150.67 2286.15,-101.5 2232.92,-78.17"/>
<polygon fill="#63b8ff" stroke="#63b8ff" points="2234.26,-74.94 2223.69,-74.13 2231.45,-81.35 2234.26,-74.94"/>
</a>
</g>
</g>
<!-- Node3&#45;&gt;Node8 -->
<g id="edge7_Node000003_Node000008" class="edge">
<title>Node3&#45;&gt;Node8</title>
<g id="a_edge7_Node000003_Node000008"><a xlink:title=" ">
<path fill="none" stroke="#63b8ff" d="M2423.75,-171.51C2409.13,-169.01 2392.36,-166.49 2377,-165 2107.88,-138.98 1256.62,-124.83 1021.61,-121.35"/>
<polygon fill="#63b8ff" stroke="#63b8ff" points="1021.6,-117.85 1011.54,-121.21 1021.49,-124.85 1021.6,-117.85"/>
</a>
</g>
</g>
<!-- Node6 -->
<g id="Node000006" class="node">
<title>Node6</title>
<g id="a_Node000006"><a xlink:title=" ">
<polygon fill="#e0e0e0" stroke="#999999" points="2570.5,-19 2457.5,-19 2457.5,0 2570.5,0 2570.5,-19"/>
<text text-anchor="middle" x="2514" y="-7" font-family="Helvetica,sans-Serif" font-size="10.00">cuda_runtime_api.h</text>
</a>
</g>
</g>
<!-- Node5&#45;&gt;Node6 -->
<g id="edge5_Node000005_Node000006" class="edge">
<title>Node5&#45;&gt;Node6</title>
<g id="a_edge5_Node000005_Node000006"><a xlink:title=" ">
<path fill="none" stroke="#63b8ff" d="M2253.81,-54.98C2308.3,-45.67 2395.63,-30.74 2453.89,-20.78"/>
<polygon fill="#63b8ff" stroke="#63b8ff" points="2454.79,-24.17 2464.06,-19.04 2453.61,-17.27 2454.79,-24.17"/>
</a>
</g>
</g>
<!-- Node7 -->
<g id="Node000007" class="node">
<title>Node7</title>
<g id="a_Node000007"><a xlink:title=" ">
<polygon fill="#e0e0e0" stroke="#999999" points="2242,-19 2166,-19 2166,0 2242,0 2242,-19"/>
<text text-anchor="middle" x="2204" y="-7" font-family="Helvetica,sans-Serif" font-size="10.00">cuda_fp16.h</text>
</a>
</g>
</g>
<!-- Node5&#45;&gt;Node7 -->
<g id="edge6_Node000005_Node000007" class="edge">
<title>Node5&#45;&gt;Node7</title>
<g id="a_edge6_Node000005_Node000007"><a xlink:title=" ">
<path fill="none" stroke="#63b8ff" d="M2204,-54.75C2204,-47.8 2204,-37.85 2204,-29.13"/>
<polygon fill="#63b8ff" stroke="#63b8ff" points="2207.5,-29.09 2204,-19.09 2200.5,-29.09 2207.5,-29.09"/>
</a>
</g>
</g>
<!-- Node8&#45;&gt;Node4 -->
<g id="edge10_Node000008_Node000004" class="edge">
<title>Node8&#45;&gt;Node4</title>
<g id="a_edge10_Node000008_Node000004"><a xlink:title=" ">
<path fill="none" stroke="#63b8ff" d="M1011.68,-117.78C1220.47,-114.64 2014.65,-101.14 2264,-74 2266.54,-73.72 2269.16,-73.39 2271.79,-73.01"/>
<polygon fill="#63b8ff" stroke="#63b8ff" points="2272.56,-76.43 2281.88,-71.38 2271.45,-69.52 2272.56,-76.43"/>
</a>
</g>
</g>
<!-- Node8&#45;&gt;Node5 -->
<g id="edge12_Node000008_Node000005" class="edge">
<title>Node8&#45;&gt;Node5</title>
<g id="a_edge12_Node000008_Node000005"><a xlink:title=" ">
<path fill="none" stroke="#63b8ff" d="M1011.65,-116.34C1209.19,-107.92 1927.45,-77.29 2142.66,-68.12"/>
<polygon fill="#63b8ff" stroke="#63b8ff" points="2142.98,-71.61 2152.82,-67.68 2142.68,-64.61 2142.98,-71.61"/>
</a>
</g>
</g>
<!-- Node9 -->
<g id="Node000009" class="node">
<title>Node9</title>
<g id="a_Node000009"><a xlink:title=" ">
<polygon fill="#e0e0e0" stroke="#999999" points="62,-74 0,-74 0,-55 62,-55 62,-74"/>
<text text-anchor="middle" x="31" y="-62" font-family="Helvetica,sans-Serif" font-size="10.00">stdbool.h</text>
</a>
</g>
</g>
<!-- Node8&#45;&gt;Node9 -->
<g id="edge8_Node000008_Node000009" class="edge">
<title>Node8&#45;&gt;Node9</title>
<g id="a_edge8_Node000008_Node000009"><a xlink:title=" ">
<path fill="none" stroke="#63b8ff" d="M910.34,-115.61C745.06,-106.19 223.53,-76.47 72.41,-67.86"/>
<polygon fill="#63b8ff" stroke="#63b8ff" points="72.37,-64.35 62.18,-67.28 71.97,-71.34 72.37,-64.35"/>
</a>
</g>
</g>
<!-- Node10 -->
<g id="Node000010" class="node">
<title>Node10</title>
<g id="a_Node000010"><a xlink:title=" ">
<polygon fill="#e0e0e0" stroke="#999999" points="450,-74 394,-74 394,-55 450,-55 450,-74"/>
<text text-anchor="middle" x="422" y="-62" font-family="Helvetica,sans-Serif" font-size="10.00">stddef.h</text>
</a>
</g>
</g>
<!-- Node8&#45;&gt;Node10 -->
<g id="edge9_Node000008_Node000010" class="edge">
<title>Node8&#45;&gt;Node10</title>
<g id="a_edge9_Node000008_Node000010"><a xlink:title=" ">
<path fill="none" stroke="#63b8ff" d="M910.29,-113.51C803.07,-102.97 555.38,-78.62 460.21,-69.26"/>
<polygon fill="#63b8ff" stroke="#63b8ff" points="460.46,-65.76 450.16,-68.27 459.77,-72.73 460.46,-65.76"/>
</a>
</g>
</g>
<!-- Node11 -->
<g id="Node000011" class="node">
<title>Node11</title>
<g id="a_Node000011"><a xlink:title=" ">
<polygon fill="#e0e0e0" stroke="#999999" points="2683.5,-74 2588.5,-74 2588.5,-55 2683.5,-55 2683.5,-74"/>
<text text-anchor="middle" x="2636" y="-62" font-family="Helvetica,sans-Serif" font-size="10.00">builtin_enums.h</text>
</a>
</g>
</g>
<!-- Node8&#45;&gt;Node11 -->
<g id="edge11_Node000008_Node000011" class="edge">
<title>Node8&#45;&gt;Node11</title>
<g id="a_edge11_Node000008_Node000011"><a xlink:title=" ">
<path fill="none" stroke="#63b8ff" d="M1011.59,-116.9C1256.47,-109.15 2317.7,-75.57 2578.13,-67.33"/>
<polygon fill="#63b8ff" stroke="#63b8ff" points="2578.25,-70.83 2588.13,-67.01 2578.03,-63.83 2578.25,-70.83"/>
</a>
</g>
</g>
<!-- Node12 -->
<g id="Node000012" class="node">
<title>Node12</title>
<g id="a_Node000012"><a xlink:title=" ">
<polygon fill="#e0e0e0" stroke="#999999" points="1008.5,-74 913.5,-74 913.5,-55 1008.5,-55 1008.5,-74"/>
<text text-anchor="middle" x="961" y="-62" font-family="Helvetica,sans-Serif" font-size="10.00">user_typedefs.h</text>
</a>
</g>
</g>
<!-- Node8&#45;&gt;Node12 -->
<g id="edge13_Node000008_Node000012" class="edge">
<title>Node8&#45;&gt;Node12</title>
<g id="a_edge13_Node000008_Node000012"><a xlink:title=" ">
<path fill="none" stroke="#63b8ff" d="M961,-109.75C961,-102.8 961,-92.85 961,-84.13"/>
<polygon fill="#63b8ff" stroke="#63b8ff" points="964.5,-84.09 961,-74.09 957.5,-84.09 964.5,-84.09"/>
</a>
</g>
</g>
<!-- Node13&#45;&gt;Node2 -->
<g id="edge16_Node000013_Node000002" class="edge">
<title>Node13&#45;&gt;Node2</title>
<g id="a_edge16_Node000013_Node000002"><a xlink:title=" ">
<path fill="none" stroke="#63b8ff" d="M1241.99,-244.37C1060.44,-241.51 364.68,-228.39 333,-195 316.94,-178.07 335.75,-152.64 351.65,-136.3"/>
<polygon fill="#63b8ff" stroke="#63b8ff" points="354.33,-138.57 359.05,-129.09 349.45,-133.56 354.33,-138.57"/>
</a>
</g>
</g>
<!-- Node13&#45;&gt;Node3 -->
<g id="edge17_Node000013_Node000003" class="edge">
<title>Node13&#45;&gt;Node3</title>
<g id="a_edge17_Node000013_Node000003"><a xlink:title=" ">
<path fill="none" stroke="#63b8ff" d="M1314.65,-236.48C1323.39,-234.31 1333.02,-232.24 1342,-231 1812.47,-166.01 1940.11,-264.08 2410,-195 2415.11,-194.25 2420.43,-193.19 2425.64,-191.98"/>
<polygon fill="#63b8ff" stroke="#63b8ff" points="2426.61,-195.35 2435.46,-189.53 2424.91,-188.56 2426.61,-195.35"/>
</a>
</g>
</g>
<!-- Node13&#45;&gt;Node5 -->
<g id="edge33_Node000013_Node000005" class="edge">
<title>Node13&#45;&gt;Node5</title>
<g id="a_edge33_Node000013_Node000005"><a xlink:title=" ">
<path fill="none" stroke="#63b8ff" d="M1310.42,-236.47C1317.93,-234.29 1326.22,-232.23 1334,-231 1391.27,-221.97 2336.72,-236.7 2377,-195 2386.26,-185.41 2383.98,-176.36 2377,-165 2358.48,-134.85 2336.82,-146.37 2306,-129 2277.63,-113.02 2245.94,-92.92 2225.52,-79.66"/>
<polygon fill="#63b8ff" stroke="#63b8ff" points="2227.27,-76.63 2216.98,-74.09 2223.44,-82.49 2227.27,-76.63"/>
</a>
</g>
</g>
<!-- Node13&#45;&gt;Node9 -->
<g id="edge15_Node000013_Node000009" class="edge">
<title>Node13&#45;&gt;Node9</title>
<g id="a_edge15_Node000013_Node000009"><a xlink:title=" ">
<path fill="none" stroke="#63b8ff" d="M1241.98,-244.36C1047.03,-241.32 251.42,-227 145,-195 90.4,-178.58 64.64,-177.71 35,-129 26.84,-115.58 26.51,-97.48 27.83,-84.04"/>
<polygon fill="#63b8ff" stroke="#63b8ff" points="31.31,-84.43 29.19,-74.05 24.37,-83.48 31.31,-84.43"/>
</a>
</g>
</g>
<!-- Node13&#45;&gt;Node11 -->
<g id="edge18_Node000013_Node000011" class="edge">
<title>Node13&#45;&gt;Node11</title>
<g id="a_edge18_Node000013_Node000011"><a xlink:title=" ">
<path fill="none" stroke="#63b8ff" d="M1328.38,-237.21C1343.41,-234.81 1360.4,-232.42 1376,-231 1511.83,-218.61 2477.57,-248.57 2603,-195 2641.44,-178.58 2653.86,-167.56 2670,-129 2676.97,-112.35 2665.27,-94.28 2653.73,-81.69"/>
<polygon fill="#63b8ff" stroke="#63b8ff" points="2655.9,-78.91 2646.38,-74.28 2650.94,-83.84 2655.9,-78.91"/>
</a>
</g>
</g>
<!-- Node14 -->
<g id="Node000014" class="node">
<title>Node14</title>
<g id="a_Node000014"><a xlink:href="common__kernels_8h.html" target="_top" xlink:title=" ">
<polygon fill="white" stroke="#666666" points="451.5,-189.5 342.5,-189.5 342.5,-170.5 451.5,-170.5 451.5,-189.5"/>
<text text-anchor="middle" x="397" y="-177.5" font-family="Helvetica,sans-Serif" font-size="10.00">common_kernels.h</text>
</a>
</g>
</g>
<!-- Node13&#45;&gt;Node14 -->
<g id="edge19_Node000013_Node000014" class="edge">
<title>Node13&#45;&gt;Node14</title>
<g id="a_edge19_Node000013_Node000014"><a xlink:title=" ">
<path fill="none" stroke="#63b8ff" d="M1241.88,-244.73C1119.15,-243.45 757.69,-236.2 461,-195 454.64,-194.12 447.98,-192.94 441.45,-191.65"/>
<polygon fill="#63b8ff" stroke="#63b8ff" points="441.87,-188.16 431.37,-189.54 440.44,-195.01 441.87,-188.16"/>
</a>
</g>
</g>
<!-- Node15 -->
<g id="Node000015" class="node">
<title>Node15</title>
<g id="a_Node000015"><a xlink:href="datatypes_8h.html" target="_top" xlink:title=" ">
<polygon fill="white" stroke="#666666" points="2594,-189.5 2520,-189.5 2520,-170.5 2594,-170.5 2594,-189.5"/>
<text text-anchor="middle" x="2557" y="-177.5" font-family="Helvetica,sans-Serif" font-size="10.00">datatypes.h</text>
</a>
</g>
</g>
<!-- Node13&#45;&gt;Node15 -->
<g id="edge24_Node000013_Node000015" class="edge">
<title>Node13&#45;&gt;Node15</title>
<g id="a_edge24_Node000013_Node000015"><a xlink:title=" ">
<path fill="none" stroke="#63b8ff" d="M1328.38,-237.23C1343.41,-234.83 1360.4,-232.44 1376,-231 1878.56,-184.54 2013.04,-277.19 2511,-195 2514.96,-194.35 2519.06,-193.44 2523.11,-192.41"/>
<polygon fill="#63b8ff" stroke="#63b8ff" points="2524.26,-195.72 2532.93,-189.63 2522.36,-188.98 2524.26,-195.72"/>
</a>
</g>
</g>
<!-- Node13&#45;&gt;Node19 -->
<g id="edge34_Node000013_Node000019" class="edge">
<title>Node13&#45;&gt;Node19</title>
<g id="a_edge34_Node000013_Node000019"><a xlink:title=" ">
<path fill="none" stroke="#63b8ff" d="M1241.72,-243.84C1103.98,-239.94 663.42,-225.75 300,-195 273.26,-192.74 243.23,-189.16 220.15,-186.19"/>
<polygon fill="#63b8ff" stroke="#63b8ff" points="220.45,-182.7 210.08,-184.87 219.54,-189.64 220.45,-182.7"/>
</a>
</g>
</g>
<!-- Node23 -->
<g id="Node000023" class="node">
<title>Node23</title>
<g id="a_Node000023"><a xlink:href="func__define_8h.html" target="_top" xlink:title=" ">
<polygon fill="white" stroke="#666666" points="552,-189.5 470,-189.5 470,-170.5 552,-170.5 552,-189.5"/>
<text text-anchor="middle" x="511" y="-177.5" font-family="Helvetica,sans-Serif" font-size="10.00">func_define.h</text>
</a>
</g>
</g>
<!-- Node13&#45;&gt;Node23 -->
<g id="edge43_Node000013_Node000023" class="edge">
<title>Node13&#45;&gt;Node23</title>
<g id="a_edge43_Node000013_Node000023"><a xlink:title=" ">
<path fill="none" stroke="#63b8ff" d="M1241.79,-245.08C1128.95,-244.61 816.45,-239.11 561,-195 556.53,-194.23 551.89,-193.22 547.31,-192.1"/>
<polygon fill="#63b8ff" stroke="#63b8ff" points="548.06,-188.67 537.5,-189.5 546.27,-195.44 548.06,-188.67"/>
</a>
</g>
</g>
<!-- Node24 -->
<g id="Node000024" class="node">
<title>Node24</title>
<g id="a_Node000024"><a xlink:title=" ">
<polygon fill="#e0e0e0" stroke="#999999" points="656,-189.5 570,-189.5 570,-170.5 656,-170.5 656,-189.5"/>
<text text-anchor="middle" x="613" y="-177.5" font-family="Helvetica,sans-Serif" font-size="10.00">profiles_info.h</text>
</a>
</g>
</g>
<!-- Node13&#45;&gt;Node24 -->
<g id="edge44_Node000013_Node000024" class="edge">
<title>Node13&#45;&gt;Node24</title>
<g id="a_edge44_Node000013_Node000024"><a xlink:title=" ">
<path fill="none" stroke="#63b8ff" d="M1241.82,-244.22C1140.4,-241.81 879.4,-232.19 665,-195 660.3,-194.18 655.4,-193.14 650.58,-191.98"/>
<polygon fill="#63b8ff" stroke="#63b8ff" points="651.41,-188.58 640.86,-189.5 649.68,-195.37 651.41,-188.58"/>
</a>
</g>
</g>
<!-- Node25 -->
<g id="Node000025" class="node">
<title>Node25</title>
<g id="a_Node000025"><a xlink:title=" ">
<polygon fill="#e0e0e0" stroke="#999999" points="792,-195 674,-195 674,-165 792,-165 792,-195"/>
<text text-anchor="start" x="682" y="-183" font-family="Helvetica,sans-Serif" font-size="10.00">scalar_reduce_buffer</text>
<text text-anchor="middle" x="733" y="-172" font-family="Helvetica,sans-Serif" font-size="10.00">_defs.h</text>
</a>
</g>
</g>
<!-- Node13&#45;&gt;Node25 -->
<g id="edge45_Node000013_Node000025" class="edge">
<title>Node13&#45;&gt;Node25</title>
<g id="a_edge45_Node000013_Node000025"><a xlink:title=" ">
<path fill="none" stroke="#63b8ff" d="M1241.76,-241.99C1158.56,-235.89 970.3,-220.56 802.29,-195.1"/>
<polygon fill="#63b8ff" stroke="#63b8ff" points="802.69,-191.62 792.27,-193.57 801.63,-198.54 802.69,-191.62"/>
</a>
</g>
</g>
<!-- Node26 -->
<g id="Node000026" class="node">
<title>Node26</title>
<g id="a_Node000026"><a xlink:title=" ">
<polygon fill="#e0e0e0" stroke="#999999" points="949.5,-189.5 810.5,-189.5 810.5,-170.5 949.5,-170.5 949.5,-189.5"/>
<text text-anchor="middle" x="880" y="-177.5" font-family="Helvetica,sans-Serif" font-size="10.00">user_built&#45;in_constants.h</text>
</a>
</g>
</g>
<!-- Node13&#45;&gt;Node26 -->
<g id="edge46_Node000013_Node000026" class="edge">
<title>Node13&#45;&gt;Node26</title>
<g id="a_edge46_Node000013_Node000026"><a xlink:title=" ">
<path fill="none" stroke="#63b8ff" d="M1241.83,-238.76C1179.21,-229.63 1059.55,-211.87 958,-195 951.16,-193.86 943.99,-192.63 936.89,-191.39"/>
<polygon fill="#63b8ff" stroke="#63b8ff" points="937.03,-187.86 926.57,-189.56 935.81,-194.75 937.03,-187.86"/>
</a>
</g>
</g>
<!-- Node27 -->
<g id="Node000027" class="node">
<title>Node27</title>
<g id="a_Node000027"><a xlink:title=" ">
<polygon fill="#e0e0e0" stroke="#999999" points="1054.5,-189.5 967.5,-189.5 967.5,-170.5 1054.5,-170.5 1054.5,-189.5"/>
<text text-anchor="middle" x="1011" y="-177.5" font-family="Helvetica,sans-Serif" font-size="10.00">user_defines.h</text>
</a>
</g>
</g>
<!-- Node13&#45;&gt;Node27 -->
<g id="edge47_Node000013_Node000027" class="edge">
<title>Node13&#45;&gt;Node27</title>
<g id="a_edge47_Node000013_Node000027"><a xlink:title=" ">
<path fill="none" stroke="#63b8ff" d="M1244.78,-236.47C1200.21,-226.89 1126.28,-210.64 1063,-195 1059.34,-194.09 1055.53,-193.13 1051.73,-192.14"/>
<polygon fill="#63b8ff" stroke="#63b8ff" points="1052.3,-188.67 1041.74,-189.5 1050.52,-195.44 1052.3,-188.67"/>
</a>
</g>
</g>
<!-- Node28 -->
<g id="Node000028" class="node">
<title>Node28</title>
<g id="a_Node000028"><a xlink:title=" ">
<polygon fill="#e0e0e0" stroke="#999999" points="1197.5,-189.5 1072.5,-189.5 1072.5,-170.5 1197.5,-170.5 1197.5,-189.5"/>
<text text-anchor="middle" x="1135" y="-177.5" font-family="Helvetica,sans-Serif" font-size="10.00">user_input_typedefs.h</text>
</a>
</g>
</g>
<!-- Node13&#45;&gt;Node28 -->
<g id="edge48_Node000013_Node000028" class="edge">
<title>Node13&#45;&gt;Node28</title>
<g id="a_edge48_Node000013_Node000028"><a xlink:title=" ">
<path fill="none" stroke="#63b8ff" d="M1264.77,-236.37C1239.05,-225.39 1194.43,-206.36 1164.81,-193.72"/>
<polygon fill="#63b8ff" stroke="#63b8ff" points="1165.96,-190.4 1155.39,-189.7 1163.21,-196.84 1165.96,-190.4"/>
</a>
</g>
</g>
<!-- Node29 -->
<g id="Node000029" class="node">
<title>Node29</title>
<g id="a_Node000029"><a xlink:title=" ">
<polygon fill="#e0e0e0" stroke="#999999" points="1268.5,-189.5 1215.5,-189.5 1215.5,-170.5 1268.5,-170.5 1268.5,-189.5"/>
<text text-anchor="middle" x="1242" y="-177.5" font-family="Helvetica,sans-Serif" font-size="10.00">string.h</text>
</a>
</g>
</g>
<!-- Node13&#45;&gt;Node29 -->
<g id="edge49_Node000013_Node000029" class="edge">
<title>Node13&#45;&gt;Node29</title>
<g id="a_edge49_Node000013_Node000029"><a xlink:title=" ">
<path fill="none" stroke="#63b8ff" d="M1279.2,-236.37C1272.7,-226.69 1261.98,-210.74 1253.72,-198.44"/>
<polygon fill="#63b8ff" stroke="#63b8ff" points="1256.47,-196.25 1247.98,-189.91 1250.65,-200.16 1256.47,-196.25"/>
</a>
</g>
</g>
<!-- Node30 -->
<g id="Node000030" class="node">
<title>Node30</title>
<g id="a_Node000030"><a xlink:title=" ">
<polygon fill="#e0e0e0" stroke="#999999" points="1369.5,-189.5 1286.5,-189.5 1286.5,-170.5 1369.5,-170.5 1369.5,-189.5"/>
<text text-anchor="middle" x="1328" y="-177.5" font-family="Helvetica,sans-Serif" font-size="10.00">output_decl.h</text>
</a>
</g>
</g>
<!-- Node13&#45;&gt;Node30 -->
<g id="edge50_Node000013_Node000030" class="edge">
<title>Node13&#45;&gt;Node30</title>
<g id="a_edge50_Node000013_Node000030"><a xlink:title=" ">
<path fill="none" stroke="#63b8ff" d="M1290.8,-236.37C1297.3,-226.69 1308.02,-210.74 1316.28,-198.44"/>
<polygon fill="#63b8ff" stroke="#63b8ff" points="1319.35,-200.16 1322.02,-189.91 1313.53,-196.25 1319.35,-200.16"/>
</a>
</g>
</g>
<!-- Node31 -->
<g id="Node000031" class="node">
<title>Node31</title>
<g id="a_Node000031"><a xlink:title=" ">
<polygon fill="#e0e0e0" stroke="#999999" points="1504,-189.5 1388,-189.5 1388,-170.5 1504,-170.5 1504,-189.5"/>
<text text-anchor="middle" x="1446" y="-177.5" font-family="Helvetica,sans-Serif" font-size="10.00">comp_loaded_decl.h</text>
</a>
</g>
</g>
<!-- Node13&#45;&gt;Node31 -->
<g id="edge51_Node000013_Node000031" class="edge">
<title>Node13&#45;&gt;Node31</title>
<g id="a_edge51_Node000013_Node000031"><a xlink:title=" ">
<path fill="none" stroke="#63b8ff" d="M1306.71,-236.37C1334.52,-225.32 1382.9,-206.08 1414.68,-193.45"/>
<polygon fill="#63b8ff" stroke="#63b8ff" points="1416.37,-196.54 1424.37,-189.6 1413.79,-190.04 1416.37,-196.54"/>
</a>
</g>
</g>
<!-- Node32 -->
<g id="Node000032" class="node">
<title>Node32</title>
<g id="a_Node000032"><a xlink:title=" ">
<polygon fill="#e0e0e0" stroke="#999999" points="1600,-189.5 1522,-189.5 1522,-170.5 1600,-170.5 1600,-189.5"/>
<text text-anchor="middle" x="1561" y="-177.5" font-family="Helvetica,sans-Serif" font-size="10.00">comp_decl.h</text>
</a>
</g>
</g>
<!-- Node13&#45;&gt;Node32 -->
<g id="edge52_Node000013_Node000032" class="edge">
<title>Node13&#45;&gt;Node32</title>
<g id="a_edge52_Node000013_Node000032"><a xlink:title=" ">
<path fill="none" stroke="#63b8ff" d="M1319.02,-236.45C1326.57,-234.6 1334.55,-232.7 1342,-231 1417.72,-213.73 1437.67,-213.89 1513,-195 1516.39,-194.15 1519.89,-193.22 1523.4,-192.26"/>
<polygon fill="#63b8ff" stroke="#63b8ff" points="1524.5,-195.59 1533.18,-189.5 1522.6,-188.85 1524.5,-195.59"/>
</a>
</g>
</g>
<!-- Node33 -->
<g id="Node000033" class="node">
<title>Node33</title>
<g id="a_Node000033"><a xlink:title=" ">
<polygon fill="#e0e0e0" stroke="#999999" points="1726,-189.5 1618,-189.5 1618,-170.5 1726,-170.5 1726,-189.5"/>
<text text-anchor="middle" x="1672" y="-177.5" font-family="Helvetica,sans-Serif" font-size="10.00">info_loaded_decl.h</text>
</a>
</g>
</g>
<!-- Node13&#45;&gt;Node33 -->
<g id="edge53_Node000013_Node000033" class="edge">
<title>Node13&#45;&gt;Node33</title>
<g id="a_edge53_Node000013_Node000033"><a xlink:title=" ">
<path fill="none" stroke="#63b8ff" d="M1317.12,-236.47C1325.21,-234.5 1333.89,-232.54 1342,-231 1459.64,-208.69 1491.12,-216.01 1609,-195 1614.52,-194.02 1620.28,-192.88 1625.98,-191.7"/>
<polygon fill="#63b8ff" stroke="#63b8ff" points="1627.08,-195.04 1636.12,-189.52 1625.61,-188.2 1627.08,-195.04"/>
</a>
</g>
</g>
<!-- Node34 -->
<g id="Node000034" class="node">
<title>Node34</title>
<g id="a_Node000034"><a xlink:title=" ">
<polygon fill="#e0e0e0" stroke="#999999" points="1884,-189.5 1744,-189.5 1744,-170.5 1884,-170.5 1884,-189.5"/>
<text text-anchor="middle" x="1814" y="-177.5" font-family="Helvetica,sans-Serif" font-size="10.00">device_mesh_info_decl.h</text>
</a>
</g>
</g>
<!-- Node13&#45;&gt;Node34 -->
<g id="edge54_Node000013_Node000034" class="edge">
<title>Node13&#45;&gt;Node34</title>
<g id="a_edge54_Node000013_Node000034"><a xlink:title=" ">
<path fill="none" stroke="#63b8ff" d="M1316.18,-236.45C1324.52,-234.41 1333.56,-232.42 1342,-231 1514.98,-202 1561.16,-218.32 1735,-195 1743.05,-193.92 1751.53,-192.61 1759.82,-191.22"/>
<polygon fill="#63b8ff" stroke="#63b8ff" points="1760.55,-194.65 1769.81,-189.51 1759.36,-187.75 1760.55,-194.65"/>
</a>
</g>
</g>
<!-- Node35 -->
<g id="Node000035" class="node">
<title>Node35</title>
<g id="a_Node000035"><a xlink:title=" ">
<polygon fill="#e0e0e0" stroke="#999999" points="1979.5,-189.5 1902.5,-189.5 1902.5,-170.5 1979.5,-170.5 1979.5,-189.5"/>
<text text-anchor="middle" x="1941" y="-177.5" font-family="Helvetica,sans-Serif" font-size="10.00">array_decl.h</text>
</a>
</g>
</g>
<!-- Node13&#45;&gt;Node35 -->
<g id="edge55_Node000013_Node000035" class="edge">
<title>Node13&#45;&gt;Node35</title>
<g id="a_edge55_Node000013_Node000035"><a xlink:title=" ">
<path fill="none" stroke="#63b8ff" d="M1315.57,-236.45C1324.06,-234.35 1333.34,-232.34 1342,-231 1584.54,-193.59 1651.32,-237.61 1893,-195 1897.18,-194.26 1901.52,-193.3 1905.8,-192.21"/>
<polygon fill="#63b8ff" stroke="#63b8ff" points="1906.87,-195.55 1915.59,-189.53 1905.02,-188.8 1906.87,-195.55"/>
</a>
</g>
</g>
<!-- Node36 -->
<g id="Node000036" class="node">
<title>Node36</title>
<g id="a_Node000036"><a xlink:title=" ">
<polygon fill="#e0e0e0" stroke="#999999" points="2074,-189.5 1998,-189.5 1998,-170.5 2074,-170.5 2074,-189.5"/>
<text text-anchor="middle" x="2036" y="-177.5" font-family="Helvetica,sans-Serif" font-size="10.00">input_decl.h</text>
</a>
</g>
</g>
<!-- Node13&#45;&gt;Node36 -->
<g id="edge56_Node000013_Node000036" class="edge">
<title>Node13&#45;&gt;Node36</title>
<g id="a_edge56_Node000013_Node000036"><a xlink:title=" ">
<path fill="none" stroke="#63b8ff" d="M1315.26,-236.46C1323.84,-234.35 1333.23,-232.31 1342,-231 1626.84,-188.47 1705.28,-244.45 1989,-195 1993.15,-194.28 1997.46,-193.31 2001.7,-192.22"/>
<polygon fill="#63b8ff" stroke="#63b8ff" points="2002.69,-195.58 2011.38,-189.51 2000.81,-188.83 2002.69,-195.58"/>
</a>
</g>
</g>
<!-- Node37 -->
<g id="Node000037" class="node">
<title>Node37</title>
<g id="a_Node000037"><a xlink:title=" ">
<polygon fill="#e0e0e0" stroke="#999999" points="2215.5,-195 2092.5,-195 2092.5,-165 2215.5,-165 2215.5,-195"/>
<text text-anchor="start" x="2100.5" y="-183" font-family="Helvetica,sans-Serif" font-size="10.00">scalar_reduce_buffers</text>
<text text-anchor="middle" x="2154" y="-172" font-family="Helvetica,sans-Serif" font-size="10.00">_in_vba.h</text>
</a>
</g>
</g>
<!-- Node13&#45;&gt;Node37 -->
<g id="edge57_Node000013_Node000037" class="edge">
<title>Node13&#45;&gt;Node37</title>
<g id="a_edge57_Node000013_Node000037"><a xlink:title=" ">
<path fill="none" stroke="#63b8ff" d="M1314.96,-236.5C1323.62,-234.35 1333.13,-232.29 1342,-231 1664.93,-183.94 1753.9,-233.95 2081.86,-194.99"/>
<polygon fill="#63b8ff" stroke="#63b8ff" points="2082.62,-198.43 2092.13,-193.75 2081.78,-191.48 2082.62,-198.43"/>
</a>
</g>
</g>
<!-- Node38 -->
<g id="Node000038" class="node">
<title>Node38</title>
<g id="a_Node000038"><a xlink:title=" ">
<polygon fill="#e0e0e0" stroke="#999999" points="2368,-195 2234,-195 2234,-165 2368,-165 2368,-195"/>
<text text-anchor="start" x="2242" y="-183" font-family="Helvetica,sans-Serif" font-size="10.00">load_and_store_uniform</text>
<text text-anchor="middle" x="2301" y="-172" font-family="Helvetica,sans-Serif" font-size="10.00">_header.h</text>
</a>
</g>
</g>
<!-- Node13&#45;&gt;Node38 -->
<g id="edge58_Node000013_Node000038" class="edge">
<title>Node13&#45;&gt;Node38</title>
<g id="a_edge58_Node000013_Node000038"><a xlink:title=" ">
<path fill="none" stroke="#63b8ff" d="M1314.95,-236.45C1323.61,-234.31 1333.12,-232.26 1342,-231 1727.56,-176.35 1832.87,-237.62 2223.77,-195.01"/>
<polygon fill="#63b8ff" stroke="#63b8ff" points="2224.39,-198.46 2233.94,-193.88 2223.62,-191.51 2224.39,-198.46"/>
</a>
</g>
</g>
<!-- Node14&#45;&gt;Node4 -->
<g id="edge21_Node000014_Node000004" class="edge">
<title>Node14&#45;&gt;Node4</title>
<g id="a_edge21_Node000014_Node000004"><a xlink:title=" ">
<path fill="none" stroke="#63b8ff" d="M431.02,-170.44C440.66,-168.32 451.19,-166.29 461,-165 800.66,-120.24 888.83,-146.11 1231,-129 1690.19,-106.04 1807.43,-128.11 2264,-74 2266.54,-73.7 2269.15,-73.34 2271.78,-72.95"/>
<polygon fill="#63b8ff" stroke="#63b8ff" points="2272.57,-76.37 2281.87,-71.29 2271.43,-69.46 2272.57,-76.37"/>
</a>
</g>
</g>
<!-- Node14&#45;&gt;Node5 -->
<g id="edge22_Node000014_Node000005" class="edge">
<title>Node14&#45;&gt;Node5</title>
<g id="a_edge22_Node000014_Node000005"><a xlink:title=" ">
<path fill="none" stroke="#63b8ff" d="M431.36,-170.44C440.91,-168.34 451.31,-166.33 461,-165 545.95,-153.36 1842.93,-84.54 2142.56,-68.73"/>
<polygon fill="#63b8ff" stroke="#63b8ff" points="2142.99,-72.22 2152.79,-68.19 2142.62,-65.23 2142.99,-72.22"/>
</a>
</g>
</g>
<!-- Node14&#45;&gt;Node8 -->
<g id="edge23_Node000014_Node000008" class="edge">
<title>Node14&#45;&gt;Node8</title>
<g id="a_edge23_Node000014_Node000008"><a xlink:title=" ">
<path fill="none" stroke="#63b8ff" d="M432.06,-170.49C441.42,-168.45 451.56,-166.45 461,-165 618.34,-140.89 805.69,-128.53 900.13,-123.43"/>
<polygon fill="#63b8ff" stroke="#63b8ff" points="900.56,-126.91 910.36,-122.88 900.19,-119.92 900.56,-126.91"/>
</a>
</g>
</g>
<!-- Node14&#45;&gt;Node10 -->
<g id="edge20_Node000014_Node000010" class="edge">
<title>Node14&#45;&gt;Node10</title>
<g id="a_edge20_Node000014_Node000010"><a xlink:title=" ">
<path fill="none" stroke="#63b8ff" d="M398.88,-170.47C402.9,-152.23 412.4,-109.07 417.89,-84.14"/>
<polygon fill="#63b8ff" stroke="#63b8ff" points="421.37,-84.65 420.1,-74.13 414.53,-83.14 421.37,-84.65"/>
</a>
</g>
</g>
<!-- Node15&#45;&gt;Node4 -->
<g id="edge27_Node000015_Node000004" class="edge">
<title>Node15&#45;&gt;Node4</title>
<g id="a_edge27_Node000015_Node000004"><a xlink:title=" ">
<path fill="none" stroke="#63b8ff" d="M2530.26,-170.4C2495,-158.94 2434.98,-138.93 2414,-129 2383.66,-114.63 2350.97,-93.68 2330.5,-79.82"/>
<polygon fill="#63b8ff" stroke="#63b8ff" points="2332.24,-76.77 2322.01,-74 2328.28,-82.54 2332.24,-76.77"/>
</a>
</g>
</g>
<!-- Node15&#45;&gt;Node5 -->
<g id="edge29_Node000015_Node000005" class="edge">
<title>Node15&#45;&gt;Node5</title>
<g id="a_edge29_Node000015_Node000005"><a xlink:title=" ">
<path fill="none" stroke="#63b8ff" d="M2529.32,-170.39C2523.29,-168.57 2516.94,-166.68 2511,-165 2450.43,-147.83 2432.53,-152.19 2374,-129 2357.54,-122.48 2355.25,-117.02 2339,-110 2308.27,-96.72 2272.19,-85.02 2245.07,-76.95"/>
<polygon fill="#63b8ff" stroke="#63b8ff" points="2245.72,-73.49 2235.14,-74.04 2243.76,-80.21 2245.72,-73.49"/>
</a>
</g>
</g>
<!-- Node15&#45;&gt;Node6 -->
<g id="edge31_Node000015_Node000006" class="edge">
<title>Node15&#45;&gt;Node6</title>
<g id="a_edge31_Node000015_Node000006"><a xlink:title=" ">
<path fill="none" stroke="#63b8ff" d="M2593.42,-170.48C2617.84,-163.12 2649.21,-150.22 2670,-129 2694.1,-104.4 2714.21,-82.13 2693,-55 2679.02,-37.12 2625.62,-25.39 2580.76,-18.49"/>
<polygon fill="#63b8ff" stroke="#63b8ff" points="2581.15,-15.01 2570.74,-17.01 2580.12,-21.94 2581.15,-15.01"/>
</a>
</g>
</g>
<!-- Node15&#45;&gt;Node8 -->
<g id="edge30_Node000015_Node000008" class="edge">
<title>Node15&#45;&gt;Node8</title>
<g id="a_edge30_Node000015_Node000008"><a xlink:title=" ">
<path fill="none" stroke="#63b8ff" d="M2532.94,-170.36C2525.95,-168.21 2518.25,-166.19 2511,-165 2216.83,-116.9 1271.79,-118.72 1022.02,-120.08"/>
<polygon fill="#63b8ff" stroke="#63b8ff" points="1021.67,-116.59 1011.69,-120.14 1021.71,-123.59 1021.67,-116.59"/>
</a>
</g>
</g>
<!-- Node15&#45;&gt;Node11 -->
<g id="edge28_Node000015_Node000011" class="edge">
<title>Node15&#45;&gt;Node11</title>
<g id="a_edge28_Node000015_Node000011"><a xlink:title=" ">
<path fill="none" stroke="#63b8ff" d="M2593.94,-170.47C2615.8,-163.31 2641.73,-150.66 2655,-129 2663.7,-114.79 2656.48,-96.33 2648.56,-82.98"/>
<polygon fill="#63b8ff" stroke="#63b8ff" points="2651.29,-80.76 2642.89,-74.3 2645.43,-84.58 2651.29,-80.76"/>
</a>
</g>
</g>
<!-- Node16 -->
<g id="Node000016" class="node">
<title>Node16</title>
<g id="a_Node000016"><a xlink:title=" ">
<polygon fill="#e0e0e0" stroke="#999999" points="2469.5,-129 2422.5,-129 2422.5,-110 2469.5,-110 2469.5,-129"/>
<text text-anchor="middle" x="2446" y="-117" font-family="Helvetica,sans-Serif" font-size="10.00">float.h</text>
</a>
</g>
</g>
<!-- Node15&#45;&gt;Node16 -->
<g id="edge25_Node000015_Node000016" class="edge">
<title>Node15&#45;&gt;Node16</title>
<g id="a_edge25_Node000015_Node000016"><a xlink:title=" ">
<path fill="none" stroke="#63b8ff" d="M2540.62,-170.37C2522.42,-160.78 2492.8,-145.17 2471.55,-133.97"/>
<polygon fill="#63b8ff" stroke="#63b8ff" points="2472.92,-130.73 2462.45,-129.17 2469.66,-136.93 2472.92,-130.73"/>
</a>
</g>
</g>
<!-- Node17 -->
<g id="Node000017" class="node">
<title>Node17</title>
<g id="a_Node000017"><a xlink:title=" ">
<polygon fill="#e0e0e0" stroke="#999999" points="2538.5,-129 2487.5,-129 2487.5,-110 2538.5,-110 2538.5,-129"/>
<text text-anchor="middle" x="2513" y="-117" font-family="Helvetica,sans-Serif" font-size="10.00">math.h</text>
</a>
</g>
</g>
<!-- Node15&#45;&gt;Node17 -->
<g id="edge26_Node000015_Node000017" class="edge">
<title>Node15&#45;&gt;Node17</title>
<g id="a_edge26_Node000015_Node000017"><a xlink:title=" ">
<path fill="none" stroke="#63b8ff" d="M2550.51,-170.37C2544.01,-161.73 2533.84,-148.2 2525.72,-137.42"/>
<polygon fill="#63b8ff" stroke="#63b8ff" points="2528.33,-135.06 2519.52,-129.17 2522.73,-139.26 2528.33,-135.06"/>
</a>
</g>
</g>
<!-- Node18 -->
<g id="Node000018" class="node">
<title>Node18</title>
<g id="a_Node000018"><a xlink:title=" ">
<polygon fill="#e0e0e0" stroke="#999999" points="2645.5,-129 2556.5,-129 2556.5,-110 2645.5,-110 2645.5,-129"/>
<text text-anchor="middle" x="2601" y="-117" font-family="Helvetica,sans-Serif" font-size="10.00">vector_types.h</text>
</a>
</g>
</g>
<!-- Node15&#45;&gt;Node18 -->
<g id="edge32_Node000015_Node000018" class="edge">
<title>Node15&#45;&gt;Node18</title>
<g id="a_edge32_Node000015_Node000018"><a xlink:title=" ">
<path fill="none" stroke="#63b8ff" d="M2563.49,-170.37C2569.99,-161.73 2580.16,-148.2 2588.28,-137.42"/>
<polygon fill="#63b8ff" stroke="#63b8ff" points="2591.27,-139.26 2594.48,-129.17 2585.67,-135.06 2591.27,-139.26"/>
</a>
</g>
</g>
<!-- Node19&#45;&gt;Node2 -->
<g id="edge38_Node000019_Node000002" class="edge">
<title>Node19&#45;&gt;Node2</title>
<g id="a_edge38_Node000019_Node000002"><a xlink:title=" ">
<path fill="none" stroke="#63b8ff" d="M207.29,-170.46C212.79,-168.64 218.58,-166.73 224,-165 261.46,-153.01 304.58,-139.86 333.99,-130.99"/>
<polygon fill="#63b8ff" stroke="#63b8ff" points="335.23,-134.27 343.8,-128.04 333.21,-127.57 335.23,-134.27"/>
</a>
</g>
</g>
<!-- Node19&#45;&gt;Node5 -->
<g id="edge41_Node000019_Node000005" class="edge">
<title>Node19&#45;&gt;Node5</title>
<g id="a_edge41_Node000019_Node000005"><a xlink:title=" ">
<path fill="none" stroke="#63b8ff" d="M204.03,-170.41C227.95,-160.91 267.13,-144.84 300,-129 315.94,-121.32 317.9,-114.56 335,-110 424.15,-86.23 1829.85,-69.57 2142.64,-66.15"/>
<polygon fill="#63b8ff" stroke="#63b8ff" points="2142.91,-69.65 2152.87,-66.04 2142.83,-62.65 2142.91,-69.65"/>
</a>
</g>
</g>
<!-- Node19&#45;&gt;Node8 -->
<g id="edge42_Node000019_Node000008" class="edge">
<title>Node19&#45;&gt;Node8</title>
<g id="a_edge42_Node000019_Node000008"><a xlink:title=" ">
<path fill="none" stroke="#63b8ff" d="M210.03,-173.32C225.33,-170.41 244.64,-167.07 262,-165 496.95,-137.05 778.56,-125.88 900.17,-122.13"/>
<polygon fill="#63b8ff" stroke="#63b8ff" points="900.5,-125.62 910.39,-121.82 900.29,-118.62 900.5,-125.62"/>
</a>
</g>
</g>
<!-- Node19&#45;&gt;Node9 -->
<g id="edge35_Node000019_Node000009" class="edge">
<title>Node19&#45;&gt;Node9</title>
<g id="a_edge35_Node000019_Node000009"><a xlink:title=" ">
<path fill="none" stroke="#63b8ff" d="M153.99,-175.71C124.14,-170.74 77.47,-158.5 50,-129 38.62,-116.77 34.03,-97.99 32.2,-84.02"/>
<polygon fill="#63b8ff" stroke="#63b8ff" points="35.68,-83.68 31.24,-74.07 28.71,-84.36 35.68,-83.68"/>
</a>
</g>
</g>
<!-- Node19&#45;&gt;Node10 -->
<g id="edge36_Node000019_Node000010" class="edge">
<title>Node19&#45;&gt;Node10</title>
<g id="a_edge36_Node000019_Node000010"><a xlink:title=" ">
<path fill="none" stroke="#63b8ff" d="M195.28,-170.38C217,-156.5 261.75,-128.88 302,-110 329.11,-97.29 360.93,-85.63 384.99,-77.44"/>
<polygon fill="#63b8ff" stroke="#63b8ff" points="386.42,-80.65 394.78,-74.15 384.19,-74.01 386.42,-80.65"/>
</a>
</g>
</g>
<!-- Node20 -->
<g id="Node000020" class="node">
<title>Node20</title>
<g id="a_Node000020"><a xlink:title=" ">
<polygon fill="#e0e0e0" stroke="#999999" points="112.5,-129 59.5,-129 59.5,-110 112.5,-110 112.5,-129"/>
<text text-anchor="middle" x="86" y="-117" font-family="Helvetica,sans-Serif" font-size="10.00">stdint.h</text>
</a>
</g>
</g>
<!-- Node19&#45;&gt;Node20 -->
<g id="edge37_Node000019_Node000020" class="edge">
<title>Node19&#45;&gt;Node20</title>
<g id="a_edge37_Node000019_Node000020"><a xlink:title=" ">
<path fill="none" stroke="#63b8ff" d="M167.83,-170.37C152.31,-160.91 127.17,-145.59 108.85,-134.42"/>
<polygon fill="#63b8ff" stroke="#63b8ff" points="110.58,-131.38 100.22,-129.17 106.94,-137.36 110.58,-131.38"/>
</a>
</g>
</g>
<!-- Node21 -->
<g id="Node000021" class="node">
<title>Node21</title>
<g id="a_Node000021"><a xlink:title=" ">
<polygon fill="#e0e0e0" stroke="#999999" points="183.5,-129 130.5,-129 130.5,-110 183.5,-110 183.5,-129"/>
<text text-anchor="middle" x="157" y="-117" font-family="Helvetica,sans-Serif" font-size="10.00">stdlib.h</text>
</a>
</g>
</g>
<!-- Node19&#45;&gt;Node21 -->
<g id="edge39_Node000019_Node000021" class="edge">
<title>Node19&#45;&gt;Node21</title>
<g id="a_edge39_Node000019_Node000021"><a xlink:title=" ">
<path fill="none" stroke="#63b8ff" d="M178.31,-170.37C174.73,-161.99 169.18,-149.01 164.65,-138.39"/>
<polygon fill="#63b8ff" stroke="#63b8ff" points="167.85,-136.99 160.7,-129.17 161.42,-139.74 167.85,-136.99"/>
</a>
</g>
</g>
<!-- Node22 -->
<g id="Node000022" class="node">
<title>Node22</title>
<g id="a_Node000022"><a xlink:title=" ">
<polygon fill="#e0e0e0" stroke="#999999" points="250,-129 202,-129 202,-110 250,-110 250,-129"/>
<text text-anchor="middle" x="226" y="-117" font-family="Helvetica,sans-Serif" font-size="10.00">time.h</text>
</a>
</g>
</g>
<!-- Node19&#45;&gt;Node22 -->
<g id="edge40_Node000019_Node000022" class="edge">
<title>Node19&#45;&gt;Node22</title>
<g id="a_edge40_Node000019_Node000022"><a xlink:title=" ">
<path fill="none" stroke="#63b8ff" d="M188.49,-170.37C194.99,-161.73 205.16,-148.2 213.28,-137.42"/>
<polygon fill="#63b8ff" stroke="#63b8ff" points="216.27,-139.26 219.48,-129.17 210.67,-135.06 216.27,-139.26"/>
</a>
</g>
</g>
</g>
</svg>
