<?xml version="1.0" encoding="UTF-8" standalone="no"?>
<!DOCTYPE svg PUBLIC "-//W3C//DTD SVG 1.1//EN"
 "http://www.w3.org/Graphics/SVG/1.1/DTD/svg11.dtd">
<!-- Generated by graphviz version 2.43.0 (0)
 -->
<!-- Title: include/astaroth_utils.h Pages: 1 -->
<!--zoomable 379 -->

<svg id="main" version="1.1" xmlns="http://www.w3.org/2000/svg" xmlns:xlink="http://www.w3.org/1999/xlink" xml:space="preserve" onload="init(evt)">
<style type="text/css"><![CDATA[
.node, .edge {opacity: 0.7;}
.node.selected, .edge.selected {opacity: 1;}
.edge:hover path { stroke: red; }
.edge:hover polygon { stroke: red; fill: red; }
]]></style>

<defs>
  <circle id="rim" cx="0" cy="0" r="7"/>
  <circle id="rim2" cx="0" cy="0" r="3.5"/>
  <g id="zoomPlus">
    <use xlink:href="#rim" fill="#404040"><set attributeName="fill" to="#808080" begin="zoomplus.mouseover" end="zoomplus.mouseout"/></use>
    <path d="M-4,0h8M0,-4v8" fill="none" stroke="white" stroke-width="1.5" pointer-events="none"/>
  </g>
  <g id="zoomMin">
    <use xlink:href="#rim" fill="#404040"><set attributeName="fill" to="#808080" begin="zoomminus.mouseover" end="zoomminus.mouseout"/></use>
    <path d="M-4,0h8" fill="none" stroke="white" stroke-width="1.5" pointer-events="none"/>
  </g>
  <g id="arrowUp" transform="translate(30 24)">
    <use xlink:href="#rim"/>
    <path pointer-events="none" fill="none" stroke="white" stroke-width="1.5" d="M0,-3.0v7 M-2.5,-0.5L0,-3.0L2.5,-0.5"/>
  </g>
  <g id="arrowRight" transform="rotate(90) translate(36 -43)">
    <use xlink:href="#rim"/>
    <path pointer-events="none" fill="none" stroke="white" stroke-width="1.5" d="M0,-3.0v7 M-2.5,-0.5L0,-3.0L2.5,-0.5"/>
  </g>
  <g id="arrowDown" transform="rotate(180) translate(-30 -48)">
    <use xlink:href="#rim"/>
    <path pointer-events="none" fill="none" stroke="white" stroke-width="1.5" d="M0,-3.0v7 M-2.5,-0.5L0,-3.0L2.5,-0.5"/>
  </g>
  <g id="arrowLeft" transform="rotate(270) translate(-36 17)">
    <use xlink:href="#rim"/>
    <path pointer-events="none" fill="none" stroke="white" stroke-width="1.5" d="M0,-3.0v7 M-2.5,-0.5L0,-3.0L2.5,-0.5"/>
  </g>
  <g id="resetDef">
    <use xlink:href="#rim2" fill="#404040"><set attributeName="fill" to="#808080" begin="reset.mouseover" end="reset.mouseout"/></use>
  </g>
</defs>
<script type="application/ecmascript">
var viewWidth = 2641;
var viewHeight = 379;
var sectionId = 'dynsection-0';
</script>
<script type="application/ecmascript" xlink:href="svg.min.js"/>
<svg id="graph" class="graph">
<g id="viewport">
<title>include/astaroth_utils.h</title>
<!-- Node1 -->
<g id="Node000001" class="node">
<title>Node1</title>
<g id="a_Node000001"><a xlink:title="Functions for loading and updating AcMeshInfo.">
<polygon fill="#999999" stroke="#666666" points="1806.4,-371 1675.4,-371 1675.4,-352 1806.4,-352 1806.4,-371"/>
<text text-anchor="middle" x="1740.9" y="-359" font-family="Helvetica,sans-Serif" font-size="10.00">include/astaroth_utils.h</text>
</a>
</g>
</g>
<!-- Node2 -->
<g id="Node000002" class="node">
<title>Node2</title>
<g id="a_Node000002"><a xlink:href="astaroth_8h.html" target="_top" xlink:title=" ">
<polygon fill="white" stroke="#666666" points="1694.9,-316 1628.9,-316 1628.9,-297 1694.9,-297 1694.9,-316"/>
<text text-anchor="middle" x="1661.9" y="-304" font-family="Helvetica,sans-Serif" font-size="10.00">astaroth.h</text>
</a>
</g>
</g>
<!-- Node1&#45;&gt;Node2 -->
<g id="edge1_Node000001_Node000002" class="edge">
<title>Node1&#45;&gt;Node2</title>
<g id="a_edge1_Node000001_Node000002"><a xlink:title=" ">
<path fill="none" stroke="#63b8ff" d="M1728.21,-351.98C1716.08,-343.84 1697.55,-331.41 1683.16,-321.76"/>
<polygon fill="#63b8ff" stroke="#63b8ff" points="1685.08,-318.84 1674.83,-316.17 1681.18,-324.65 1685.08,-318.84"/>
</a>
</g>
</g>
<!-- Node55 -->
<g id="Node000055" class="node">
<title>Node55</title>
<g id="a_Node000055"><a xlink:title=" ">
<polygon fill="#e0e0e0" stroke="#999999" points="1768.9,-316 1712.9,-316 1712.9,-297 1768.9,-297 1768.9,-316"/>
<text text-anchor="middle" x="1740.9" y="-304" font-family="Helvetica,sans-Serif" font-size="10.00">stdarg.h</text>
</a>
</g>
</g>
<!-- Node1&#45;&gt;Node55 -->
<g id="edge57_Node000001_Node000055" class="edge">
<title>Node1&#45;&gt;Node55</title>
<g id="a_edge57_Node000001_Node000055"><a xlink:title=" ">
<path fill="none" stroke="#63b8ff" d="M1740.9,-351.75C1740.9,-344.8 1740.9,-334.85 1740.9,-326.13"/>
<polygon fill="#63b8ff" stroke="#63b8ff" points="1744.4,-326.09 1740.9,-316.09 1737.4,-326.09 1744.4,-326.09"/>
</a>
</g>
</g>
<!-- Node56 -->
<g id="Node000056" class="node">
<title>Node56</title>
<g id="a_Node000056"><a xlink:href="astaroth__lib_8h.html" target="_top" xlink:title=" ">
<polygon fill="white" stroke="#666666" points="1870.4,-316 1787.4,-316 1787.4,-297 1870.4,-297 1870.4,-316"/>
<text text-anchor="middle" x="1828.9" y="-304" font-family="Helvetica,sans-Serif" font-size="10.00">astaroth_lib.h</text>
</a>
</g>
</g>
<!-- Node1&#45;&gt;Node56 -->
<g id="edge58_Node000001_Node000056" class="edge">
<title>Node1&#45;&gt;Node56</title>
<g id="a_edge58_Node000001_Node000056"><a xlink:title=" ">
<path fill="none" stroke="#63b8ff" d="M1755.04,-351.98C1768.69,-343.77 1789.59,-331.18 1805.68,-321.49"/>
<polygon fill="#63b8ff" stroke="#63b8ff" points="1807.75,-324.33 1814.51,-316.17 1804.14,-318.33 1807.75,-324.33"/>
</a>
</g>
</g>
<!-- Node3 -->
<g id="Node000003" class="node">
<title>Node3</title>
<g id="a_Node000003"><a xlink:href="astaroth__base_8h.html" target="_top" xlink:title=" ">
<polygon fill="white" stroke="#666666" points="1109.4,-261 1014.4,-261 1014.4,-242 1109.4,-242 1109.4,-261"/>
<text text-anchor="middle" x="1061.9" y="-249" font-family="Helvetica,sans-Serif" font-size="10.00">astaroth_base.h</text>
</a>
</g>
</g>
<!-- Node2&#45;&gt;Node3 -->
<g id="edge2_Node000002_Node000003" class="edge">
<title>Node2&#45;&gt;Node3</title>
<g id="a_edge2_Node000002_Node000003"><a xlink:title=" ">
<path fill="none" stroke="#63b8ff" d="M1628.77,-303.55C1545.26,-298.48 1319.2,-283.73 1119.55,-260.99"/>
<polygon fill="#63b8ff" stroke="#63b8ff" points="1119.79,-257.5 1109.46,-259.83 1118.99,-264.45 1119.79,-257.5"/>
</a>
</g>
</g>
<!-- Node43 -->
<g id="Node000043" class="node">
<title>Node43</title>
<g id="a_Node000043"><a xlink:href="astaroth__grid_8h.html" target="_top" xlink:title=" ">
<polygon fill="white" stroke="#666666" points="1217.9,-261 1127.9,-261 1127.9,-242 1217.9,-242 1217.9,-261"/>
<text text-anchor="middle" x="1172.9" y="-249" font-family="Helvetica,sans-Serif" font-size="10.00">astaroth_grid.h</text>
</a>
</g>
</g>
<!-- Node2&#45;&gt;Node43 -->
<g id="edge45_Node000002_Node000043" class="edge">
<title>Node2&#45;&gt;Node43</title>
<g id="a_edge45_Node000002_Node000043"><a xlink:title=" ">
<path fill="none" stroke="#63b8ff" d="M1628.82,-302.73C1557.59,-296.64 1384.19,-281.1 1228.21,-261.1"/>
<polygon fill="#63b8ff" stroke="#63b8ff" points="1228.33,-257.59 1217.96,-259.78 1227.43,-264.53 1228.33,-257.59"/>
</a>
</g>
</g>
<!-- Node44 -->
<g id="Node000044" class="node">
<title>Node44</title>
<g id="a_Node000044"><a xlink:href="astaroth__node_8h.html" target="_top" xlink:title=" ">
<polygon fill="white" stroke="#666666" points="1331.4,-261 1236.4,-261 1236.4,-242 1331.4,-242 1331.4,-261"/>
<text text-anchor="middle" x="1283.9" y="-249" font-family="Helvetica,sans-Serif" font-size="10.00">astaroth_node.h</text>
</a>
</g>
</g>
<!-- Node2&#45;&gt;Node44 -->
<g id="edge46_Node000002_Node000044" class="edge">
<title>Node2&#45;&gt;Node44</title>
<g id="a_edge46_Node000002_Node000044"><a xlink:title=" ">
<path fill="none" stroke="#63b8ff" d="M1628.62,-301C1572.01,-293.32 1453.11,-277.09 1341.56,-261.08"/>
<polygon fill="#63b8ff" stroke="#63b8ff" points="1341.88,-257.59 1331.49,-259.63 1340.89,-264.52 1341.88,-257.59"/>
</a>
</g>
</g>
<!-- Node45 -->
<g id="Node000045" class="node">
<title>Node45</title>
<g id="a_Node000045"><a xlink:href="astaroth__device_8h.html" target="_top" xlink:title=" ">
<polygon fill="white" stroke="#666666" points="1453.9,-261 1349.9,-261 1349.9,-242 1453.9,-242 1453.9,-261"/>
<text text-anchor="middle" x="1401.9" y="-249" font-family="Helvetica,sans-Serif" font-size="10.00">astaroth_device.h</text>
</a>
</g>
</g>
<!-- Node2&#45;&gt;Node45 -->
<g id="edge47_Node000002_Node000045" class="edge">
<title>Node2&#45;&gt;Node45</title>
<g id="a_edge47_Node000002_Node000045"><a xlink:title=" ">
<path fill="none" stroke="#63b8ff" d="M1628.71,-298.73C1584.56,-289.73 1506.04,-273.73 1453.97,-263.11"/>
<polygon fill="#63b8ff" stroke="#63b8ff" points="1454.42,-259.63 1443.93,-261.07 1453.03,-266.49 1454.42,-259.63"/>
</a>
</g>
</g>
<!-- Node48 -->
<g id="Node000048" class="node">
<title>Node48</title>
<g id="a_Node000048"><a xlink:href="astaroth__legacy_8h.html" target="_top" xlink:title=" ">
<polygon fill="white" stroke="#666666" points="1573.9,-261 1471.9,-261 1471.9,-242 1573.9,-242 1573.9,-261"/>
<text text-anchor="middle" x="1522.9" y="-249" font-family="Helvetica,sans-Serif" font-size="10.00">astaroth_legacy.h</text>
</a>
</g>
</g>
<!-- Node2&#45;&gt;Node48 -->
<g id="edge50_Node000002_Node000048" class="edge">
<title>Node2&#45;&gt;Node48</title>
<g id="a_edge50_Node000002_Node000048"><a xlink:title=" ">
<path fill="none" stroke="#63b8ff" d="M1639.57,-296.98C1616.71,-288.27 1580.95,-274.63 1555.04,-264.75"/>
<polygon fill="#63b8ff" stroke="#63b8ff" points="1556.23,-261.46 1545.64,-261.17 1553.74,-268 1556.23,-261.46"/>
</a>
</g>
</g>
<!-- Node49 -->
<g id="Node000049" class="node">
<title>Node49</title>
<g id="a_Node000049"><a xlink:title=" ">
<polygon fill="#e0e0e0" stroke="#999999" points="1731.4,-261 1592.4,-261 1592.4,-242 1731.4,-242 1731.4,-261"/>
<text text-anchor="middle" x="1661.9" y="-249" font-family="Helvetica,sans-Serif" font-size="10.00">device_set_input_decls.h</text>
</a>
</g>
</g>
<!-- Node2&#45;&gt;Node49 -->
<g id="edge51_Node000002_Node000049" class="edge">
<title>Node2&#45;&gt;Node49</title>
<g id="a_edge51_Node000002_Node000049"><a xlink:title=" ">
<path fill="none" stroke="#63b8ff" d="M1661.9,-296.75C1661.9,-289.8 1661.9,-279.85 1661.9,-271.13"/>
<polygon fill="#63b8ff" stroke="#63b8ff" points="1665.4,-271.09 1661.9,-261.09 1658.4,-271.09 1665.4,-271.09"/>
</a>
</g>
</g>
<!-- Node50 -->
<g id="Node000050" class="node">
<title>Node50</title>
<g id="a_Node000050"><a xlink:title=" ">
<polygon fill="#e0e0e0" stroke="#999999" points="1895.9,-261 1749.9,-261 1749.9,-242 1895.9,-242 1895.9,-261"/>
<text text-anchor="middle" x="1822.9" y="-249" font-family="Helvetica,sans-Serif" font-size="10.00">device_get_output_decls.h</text>
</a>
</g>
</g>
<!-- Node2&#45;&gt;Node50 -->
<g id="edge52_Node000002_Node000050" class="edge">
<title>Node2&#45;&gt;Node50</title>
<g id="a_edge52_Node000002_Node000050"><a xlink:title=" ">
<path fill="none" stroke="#63b8ff" d="M1687.77,-296.98C1714.69,-288.13 1757.02,-274.19 1787.13,-264.28"/>
<polygon fill="#63b8ff" stroke="#63b8ff" points="1788.43,-267.53 1796.83,-261.08 1786.24,-260.88 1788.43,-267.53"/>
</a>
</g>
</g>
<!-- Node51 -->
<g id="Node000051" class="node">
<title>Node51</title>
<g id="a_Node000051"><a xlink:title=" ">
<polygon fill="#e0e0e0" stroke="#999999" points="2053.9,-261 1913.9,-261 1913.9,-242 2053.9,-242 2053.9,-261"/>
<text text-anchor="middle" x="1983.9" y="-249" font-family="Helvetica,sans-Serif" font-size="10.00">device_get_input_decls.h</text>
</a>
</g>
</g>
<!-- Node2&#45;&gt;Node51 -->
<g id="edge53_Node000002_Node000051" class="edge">
<title>Node2&#45;&gt;Node51</title>
<g id="a_edge53_Node000002_Node000051"><a xlink:title=" ">
<path fill="none" stroke="#63b8ff" d="M1695.35,-298.6C1698.24,-298.04 1701.12,-297.5 1703.9,-297 1775.99,-283.98 1858.88,-271.06 1915.66,-262.53"/>
<polygon fill="#63b8ff" stroke="#63b8ff" points="1916.23,-265.98 1925.6,-261.04 1915.19,-259.06 1916.23,-265.98"/>
</a>
</g>
</g>
<!-- Node52 -->
<g id="Node000052" class="node">
<title>Node52</title>
<g id="a_Node000052"><a xlink:title=" ">
<polygon fill="#e0e0e0" stroke="#999999" points="2201.9,-261 2071.9,-261 2071.9,-242 2201.9,-242 2201.9,-261"/>
<text text-anchor="middle" x="2136.9" y="-249" font-family="Helvetica,sans-Serif" font-size="10.00">get_vtxbufs_declares.h</text>
</a>
</g>
</g>
<!-- Node2&#45;&gt;Node52 -->
<g id="edge54_Node000002_Node000052" class="edge">
<title>Node2&#45;&gt;Node52</title>
<g id="a_edge54_Node000002_Node000052"><a xlink:title=" ">
<path fill="none" stroke="#63b8ff" d="M1695.32,-298.42C1698.22,-297.91 1701.11,-297.42 1703.9,-297 1859.21,-273.56 1901.74,-277.95 2061.36,-261.14"/>
<polygon fill="#63b8ff" stroke="#63b8ff" points="2061.97,-264.6 2071.54,-260.06 2061.23,-257.64 2061.97,-264.6"/>
</a>
</g>
</g>
<!-- Node53 -->
<g id="Node000053" class="node">
<title>Node53</title>
<g id="a_Node000053"><a xlink:href="astaroth__runtime__compilation_8h.html" target="_top" xlink:title=" ">
<polygon fill="white" stroke="#666666" points="2393.4,-261 2220.4,-261 2220.4,-242 2393.4,-242 2393.4,-261"/>
<text text-anchor="middle" x="2306.9" y="-249" font-family="Helvetica,sans-Serif" font-size="10.00">astaroth_runtime_compilation.h</text>
</a>
</g>
</g>
<!-- Node2&#45;&gt;Node53 -->
<g id="edge55_Node000002_Node000053" class="edge">
<title>Node2&#45;&gt;Node53</title>
<g id="a_edge55_Node000002_Node000053"><a xlink:title=" ">
<path fill="none" stroke="#63b8ff" d="M1695.31,-298.34C1698.21,-297.84 1701.1,-297.38 1703.9,-297 1924.46,-266.98 1983.99,-278.61 2210.11,-261.04"/>
<polygon fill="#63b8ff" stroke="#63b8ff" points="2210.61,-264.51 2220.3,-260.24 2210.06,-257.53 2210.61,-264.51"/>
</a>
</g>
</g>
<!-- Node54 -->
<g id="Node000054" class="node">
<title>Node54</title>
<g id="a_Node000054"><a xlink:title=" ">
<polygon fill="#e0e0e0" stroke="#999999" points="2464.4,-261 2411.4,-261 2411.4,-242 2464.4,-242 2464.4,-261"/>
<text text-anchor="middle" x="2437.9" y="-249" font-family="Helvetica,sans-Serif" font-size="10.00">string.h</text>
</a>
</g>
</g>
<!-- Node2&#45;&gt;Node54 -->
<g id="edge56_Node000002_Node000054" class="edge">
<title>Node2&#45;&gt;Node54</title>
<g id="a_edge56_Node000002_Node000054"><a xlink:title=" ">
<path fill="none" stroke="#63b8ff" d="M1695.3,-298.28C1698.2,-297.79 1701.1,-297.35 1703.9,-297 2009.22,-258.46 2093.28,-304.88 2401.14,-260.98"/>
<polygon fill="#63b8ff" stroke="#63b8ff" points="2401.86,-264.41 2411.25,-259.52 2400.85,-257.48 2401.86,-264.41"/>
</a>
</g>
</g>
<!-- Node4 -->
<g id="Node000004" class="node">
<title>Node4</title>
<g id="a_Node000004"><a xlink:title=" ">
<polygon fill="#e0e0e0" stroke="#999999" points="116.9,-74 54.9,-74 54.9,-55 116.9,-55 116.9,-74"/>
<text text-anchor="middle" x="85.9" y="-62" font-family="Helvetica,sans-Serif" font-size="10.00">stdbool.h</text>
</a>
</g>
</g>
<!-- Node3&#45;&gt;Node4 -->
<g id="edge3_Node000003_Node000004" class="edge">
<title>Node3&#45;&gt;Node4</title>
<g id="a_edge3_Node000003_Node000004"><a xlink:title=" ">
<path fill="none" stroke="#63b8ff" d="M1014.16,-249.27C816.86,-243.72 72.38,-217.69 5.9,-140 -2.76,-129.87 -0.85,-121.49 5.9,-110 14.64,-95.14 30.34,-84.88 45.53,-77.99"/>
<polygon fill="#63b8ff" stroke="#63b8ff" points="46.96,-81.19 54.86,-74.13 44.28,-74.72 46.96,-81.19"/>
</a>
</g>
</g>
<!-- Node5 -->
<g id="Node000005" class="node">
<title>Node5</title>
<g id="a_Node000005"><a xlink:href="acc__runtime_8h.html" target="_top" xlink:title=" ">
<polygon fill="white" stroke="#666666" points="1104.9,-200.5 1018.9,-200.5 1018.9,-181.5 1104.9,-181.5 1104.9,-200.5"/>
<text text-anchor="middle" x="1061.9" y="-188.5" font-family="Helvetica,sans-Serif" font-size="10.00">acc_runtime.h</text>
</a>
</g>
</g>
<!-- Node3&#45;&gt;Node5 -->
<g id="edge4_Node000003_Node000005" class="edge">
<title>Node3&#45;&gt;Node5</title>
<g id="a_edge4_Node000003_Node000005"><a xlink:title=" ">
<path fill="none" stroke="#63b8ff" d="M1061.9,-241.87C1061.9,-233.75 1061.9,-221.31 1061.9,-210.89"/>
<polygon fill="#63b8ff" stroke="#63b8ff" points="1065.4,-210.67 1061.9,-200.67 1058.4,-210.67 1065.4,-210.67"/>
</a>
</g>
</g>
<!-- Node25 -->
<g id="Node000025" class="node">
<title>Node25</title>
<g id="a_Node000025"><a xlink:title=" ">
<polygon fill="#e0e0e0" stroke="#999999" points="154.4,-134.5 15.4,-134.5 15.4,-115.5 154.4,-115.5 154.4,-134.5"/>
<text text-anchor="middle" x="84.9" y="-122.5" font-family="Helvetica,sans-Serif" font-size="10.00">user_built&#45;in_constants.h</text>
</a>
</g>
</g>
<!-- Node3&#45;&gt;Node25 -->
<g id="edge43_Node000003_Node000025" class="edge">
<title>Node3&#45;&gt;Node25</title>
<g id="a_edge43_Node000003_Node000025"><a xlink:title=" ">
<path fill="none" stroke="#63b8ff" d="M1014.27,-245.78C879.59,-232.19 484.68,-190.69 158.9,-140 152.05,-138.93 144.85,-137.71 137.75,-136.43"/>
<polygon fill="#63b8ff" stroke="#63b8ff" points="137.94,-132.91 127.48,-134.55 136.68,-139.79 137.94,-132.91"/>
</a>
</g>
</g>
<!-- Node39 -->
<g id="Node000039" class="node">
<title>Node39</title>
<g id="a_Node000039"><a xlink:href="func__define_8h.html" target="_top" xlink:title=" ">
<polygon fill="white" stroke="#666666" points="2632.9,-134.5 2550.9,-134.5 2550.9,-115.5 2632.9,-115.5 2632.9,-134.5"/>
<text text-anchor="middle" x="2591.9" y="-122.5" font-family="Helvetica,sans-Serif" font-size="10.00">func_define.h</text>
</a>
</g>
</g>
<!-- Node3&#45;&gt;Node39 -->
<g id="edge42_Node000003_Node000039" class="edge">
<title>Node3&#45;&gt;Node39</title>
<g id="a_edge42_Node000003_Node000039"><a xlink:title=" ">
<path fill="none" stroke="#63b8ff" d="M1071.92,-241.91C1094.37,-222.7 1147.13,-177.79 1151.9,-176 1296.57,-121.77 2389.13,-163 2541.9,-140 2546.67,-139.28 2551.62,-138.25 2556.48,-137.08"/>
<polygon fill="#63b8ff" stroke="#63b8ff" points="2557.45,-140.44 2566.22,-134.5 2555.66,-133.67 2557.45,-140.44"/>
</a>
</g>
</g>
<!-- Node42 -->
<g id="Node000042" class="node">
<title>Node42</title>
<g id="a_Node000042"><a xlink:title=" ">
<polygon fill="#e0e0e0" stroke="#999999" points="1292.4,-206 1161.4,-206 1161.4,-176 1292.4,-176 1292.4,-206"/>
<text text-anchor="start" x="1169.4" y="-194" font-family="Helvetica,sans-Serif" font-size="10.00">user_builtin_non_scalar</text>
<text text-anchor="middle" x="1226.9" y="-183" font-family="Helvetica,sans-Serif" font-size="10.00">_constants.h</text>
</a>
</g>
</g>
<!-- Node3&#45;&gt;Node42 -->
<g id="edge44_Node000003_Node000042" class="edge">
<title>Node3&#45;&gt;Node42</title>
<g id="a_edge44_Node000003_Node000042"><a xlink:title=" ">
<path fill="none" stroke="#63b8ff" d="M1085.9,-241.99C1109.85,-233.5 1147.36,-220.2 1177.67,-209.45"/>
<polygon fill="#63b8ff" stroke="#63b8ff" points="1178.98,-212.7 1187.24,-206.06 1176.64,-206.11 1178.98,-212.7"/>
</a>
</g>
</g>
<!-- Node5&#45;&gt;Node4 -->
<g id="edge6_Node000005_Node000004" class="edge">
<title>Node5&#45;&gt;Node4</title>
<g id="a_edge6_Node000005_Node000004"><a xlink:title=" ">
<path fill="none" stroke="#63b8ff" d="M1018.85,-188.98C855.42,-184.92 278.76,-168.66 201.9,-140 181.41,-132.36 181.08,-122.16 162.9,-110 146.12,-98.76 126.37,-87.39 111.08,-78.95"/>
<polygon fill="#63b8ff" stroke="#63b8ff" points="112.66,-75.82 102.2,-74.11 109.31,-81.97 112.66,-75.82"/>
</a>
</g>
</g>
<!-- Node6 -->
<g id="Node000006" class="node">
<title>Node6</title>
<g id="a_Node000006"><a xlink:title=" ">
<polygon fill="#e0e0e0" stroke="#999999" points="184.9,-74 134.9,-74 134.9,-55 184.9,-55 184.9,-74"/>
<text text-anchor="middle" x="159.9" y="-62" font-family="Helvetica,sans-Serif" font-size="10.00">stdio.h</text>
</a>
</g>
</g>
<!-- Node5&#45;&gt;Node6 -->
<g id="edge5_Node000005_Node000006" class="edge">
<title>Node5&#45;&gt;Node6</title>
<g id="a_edge5_Node000005_Node000006"><a xlink:title=" ">
<path fill="none" stroke="#63b8ff" d="M1018.65,-188.75C868.49,-184.18 375.32,-167.25 309.9,-140 291.3,-132.25 293.14,-120.44 275.9,-110 250.4,-94.55 218.61,-82.81 194.76,-75.28"/>
<polygon fill="#63b8ff" stroke="#63b8ff" points="195.66,-71.89 185.07,-72.31 193.61,-78.58 195.66,-71.89"/>
</a>
</g>
</g>
<!-- Node7 -->
<g id="Node000007" class="node">
<title>Node7</title>
<g id="a_Node000007"><a xlink:href="device__headers_8h.html" target="_top" xlink:title=" ">
<polygon fill="white" stroke="#666666" points="304.9,-74 202.9,-74 202.9,-55 304.9,-55 304.9,-74"/>
<text text-anchor="middle" x="253.9" y="-62" font-family="Helvetica,sans-Serif" font-size="10.00">device_headers.h</text>
</a>
</g>
</g>
<!-- Node5&#45;&gt;Node7 -->
<g id="edge7_Node000005_Node000007" class="edge">
<title>Node5&#45;&gt;Node7</title>
<g id="a_edge7_Node000005_Node000007"><a xlink:title=" ">
<path fill="none" stroke="#63b8ff" d="M1018.81,-189.66C887.05,-188.18 491.18,-180.39 369.9,-140 331.39,-127.17 292.98,-98.63 271.45,-80.84"/>
<polygon fill="#63b8ff" stroke="#63b8ff" points="273.46,-77.95 263.56,-74.16 268.94,-83.29 273.46,-77.95"/>
</a>
</g>
</g>
<!-- Node10 -->
<g id="Node000010" class="node">
<title>Node10</title>
<g id="a_Node000010"><a xlink:title=" ">
<polygon fill="#e0e0e0" stroke="#999999" points="418.4,-74 323.4,-74 323.4,-55 418.4,-55 418.4,-74"/>
<text text-anchor="middle" x="370.9" y="-62" font-family="Helvetica,sans-Serif" font-size="10.00">builtin_enums.h</text>
</a>
</g>
</g>
<!-- Node5&#45;&gt;Node10 -->
<g id="edge10_Node000005_Node000010" class="edge">
<title>Node5&#45;&gt;Node10</title>
<g id="a_edge10_Node000005_Node000010"><a xlink:title=" ">
<path fill="none" stroke="#63b8ff" d="M1018.44,-189.66C877.28,-188.17 437.98,-180.3 389.9,-140 373.79,-126.49 370.32,-101.41 370.02,-84.1"/>
<polygon fill="#63b8ff" stroke="#63b8ff" points="373.52,-84.11 370.19,-74.05 366.52,-83.99 373.52,-84.11"/>
</a>
</g>
</g>
<!-- Node11 -->
<g id="Node000011" class="node">
<title>Node11</title>
<g id="a_Node000011"><a xlink:href="datatypes_8h.html" target="_top" xlink:title=" ">
<polygon fill="#fff0f0" stroke="red" points="472.9,-134.5 398.9,-134.5 398.9,-115.5 472.9,-115.5 472.9,-134.5"/>
<text text-anchor="middle" x="435.9" y="-122.5" font-family="Helvetica,sans-Serif" font-size="10.00">datatypes.h</text>
</a>
</g>
</g>
<!-- Node5&#45;&gt;Node11 -->
<g id="edge11_Node000005_Node000011" class="edge">
<title>Node5&#45;&gt;Node11</title>
<g id="a_edge11_Node000005_Node000011"><a xlink:title=" ">
<path fill="none" stroke="#63b8ff" d="M1018.55,-189.35C921.53,-187.24 679.88,-178.22 481.9,-140 478.05,-139.26 474.06,-138.31 470.11,-137.27"/>
<polygon fill="#63b8ff" stroke="#63b8ff" points="471.07,-133.9 460.49,-134.52 469.15,-140.63 471.07,-133.9"/>
</a>
</g>
</g>
<!-- Node19 -->
<g id="Node000019" class="node">
<title>Node19</title>
<g id="a_Node000019"><a xlink:href="errchk_8h.html" target="_top" xlink:title="Brief info.">
<polygon fill="#fff0f0" stroke="red" points="266.9,-134.5 210.9,-134.5 210.9,-115.5 266.9,-115.5 266.9,-134.5"/>
<text text-anchor="middle" x="238.9" y="-122.5" font-family="Helvetica,sans-Serif" font-size="10.00">errchk.h</text>
</a>
</g>
</g>
<!-- Node5&#45;&gt;Node19 -->
<g id="edge19_Node000005_Node000019" class="edge">
<title>Node5&#45;&gt;Node19</title>
<g id="a_edge19_Node000005_Node000019"><a xlink:title=" ">
<path fill="none" stroke="#63b8ff" d="M1018.76,-188.7C876.64,-184.2 424.09,-167.96 280.9,-140 277.66,-139.37 274.32,-138.55 271.01,-137.63"/>
<polygon fill="#63b8ff" stroke="#63b8ff" points="271.87,-134.24 261.29,-134.65 269.82,-140.93 271.87,-134.24"/>
</a>
</g>
</g>
<!-- Node23 -->
<g id="Node000023" class="node">
<title>Node23</title>
<g id="a_Node000023"><a xlink:title=" ">
<polygon fill="#e0e0e0" stroke="#999999" points="578.4,-134.5 491.4,-134.5 491.4,-115.5 578.4,-115.5 578.4,-134.5"/>
<text text-anchor="middle" x="534.9" y="-122.5" font-family="Helvetica,sans-Serif" font-size="10.00">user_defines.h</text>
</a>
</g>
</g>
<!-- Node5&#45;&gt;Node23 -->
<g id="edge23_Node000005_Node000023" class="edge">
<title>Node5&#45;&gt;Node23</title>
<g id="a_edge23_Node000005_Node000023"><a xlink:title=" ">
<path fill="none" stroke="#63b8ff" d="M1018.78,-187.67C935.12,-182.66 745.18,-168.89 587.9,-140 583.36,-139.16 578.63,-138.14 573.95,-137.03"/>
<polygon fill="#63b8ff" stroke="#63b8ff" points="574.43,-133.55 563.88,-134.51 572.73,-140.34 574.43,-133.55"/>
</a>
</g>
</g>
<!-- Node24 -->
<g id="Node000024" class="node">
<title>Node24</title>
<g id="a_Node000024"><a xlink:title=" ">
<polygon fill="#e0e0e0" stroke="#999999" points="682.9,-134.5 596.9,-134.5 596.9,-115.5 682.9,-115.5 682.9,-134.5"/>
<text text-anchor="middle" x="639.9" y="-122.5" font-family="Helvetica,sans-Serif" font-size="10.00">profiles_info.h</text>
</a>
</g>
</g>
<!-- Node5&#45;&gt;Node24 -->
<g id="edge24_Node000005_Node000024" class="edge">
<title>Node5&#45;&gt;Node24</title>
<g id="a_edge24_Node000005_Node000024"><a xlink:title=" ">
<path fill="none" stroke="#63b8ff" d="M1018.88,-186C949.58,-179.15 809.15,-163.6 691.9,-140 687.68,-139.15 683.29,-138.15 678.92,-137.08"/>
<polygon fill="#63b8ff" stroke="#63b8ff" points="679.46,-133.61 668.9,-134.51 677.72,-140.39 679.46,-133.61"/>
</a>
</g>
</g>
<!-- Node5&#45;&gt;Node25 -->
<g id="edge25_Node000005_Node000025" class="edge">
<title>Node5&#45;&gt;Node25</title>
<g id="a_edge25_Node000005_Node000025"><a xlink:title=" ">
<path fill="none" stroke="#63b8ff" d="M1018.55,-189.25C889.1,-186.65 494.15,-176.1 168.9,-140 159.73,-138.98 150.04,-137.63 140.62,-136.16"/>
<polygon fill="#63b8ff" stroke="#63b8ff" points="140.98,-132.68 130.55,-134.54 139.87,-139.59 140.98,-132.68"/>
</a>
</g>
</g>
<!-- Node26 -->
<g id="Node000026" class="node">
<title>Node26</title>
<g id="a_Node000026"><a xlink:href="func__attributes_8h.html" target="_top" xlink:title=" ">
<polygon fill="white" stroke="#666666" points="800.4,-134.5 701.4,-134.5 701.4,-115.5 800.4,-115.5 800.4,-134.5"/>
<text text-anchor="middle" x="750.9" y="-122.5" font-family="Helvetica,sans-Serif" font-size="10.00">func_attributes.h</text>
</a>
</g>
</g>
<!-- Node5&#45;&gt;Node26 -->
<g id="edge26_Node000005_Node000026" class="edge">
<title>Node5&#45;&gt;Node26</title>
<g id="a_edge26_Node000005_Node000026"><a xlink:title=" ">
<path fill="none" stroke="#63b8ff" d="M1018.82,-182.05C968.37,-172.62 882.38,-156.12 808.9,-140 804.46,-139.02 799.83,-137.97 795.21,-136.9"/>
<polygon fill="#63b8ff" stroke="#63b8ff" points="795.74,-133.42 785.2,-134.53 794.13,-140.24 795.74,-133.42"/>
</a>
</g>
</g>
<!-- Node27 -->
<g id="Node000027" class="node">
<title>Node27</title>
<g id="a_Node000027"><a xlink:title=" ">
<polygon fill="#e0e0e0" stroke="#999999" points="943.4,-134.5 818.4,-134.5 818.4,-115.5 943.4,-115.5 943.4,-134.5"/>
<text text-anchor="middle" x="880.9" y="-122.5" font-family="Helvetica,sans-Serif" font-size="10.00">user_input_typedefs.h</text>
</a>
</g>
</g>
<!-- Node5&#45;&gt;Node27 -->
<g id="edge27_Node000005_Node000027" class="edge">
<title>Node5&#45;&gt;Node27</title>
<g id="a_edge27_Node000005_Node000027"><a xlink:title=" ">
<path fill="none" stroke="#63b8ff" d="M1037.49,-181.37C1005.83,-170.17 950.43,-150.58 914.73,-137.96"/>
<polygon fill="#63b8ff" stroke="#63b8ff" points="915.81,-134.63 905.22,-134.6 913.48,-141.23 915.81,-134.63"/>
</a>
</g>
</g>
<!-- Node28 -->
<g id="Node000028" class="node">
<title>Node28</title>
<g id="a_Node000028"><a xlink:title=" ">
<polygon fill="#e0e0e0" stroke="#999999" points="1044.4,-134.5 961.4,-134.5 961.4,-115.5 1044.4,-115.5 1044.4,-134.5"/>
<text text-anchor="middle" x="1002.9" y="-122.5" font-family="Helvetica,sans-Serif" font-size="10.00">output_decl.h</text>
</a>
</g>
</g>
<!-- Node5&#45;&gt;Node28 -->
<g id="edge28_Node000005_Node000028" class="edge">
<title>Node5&#45;&gt;Node28</title>
<g id="a_edge28_Node000005_Node000028"><a xlink:title=" ">
<path fill="none" stroke="#63b8ff" d="M1053.95,-181.37C1044.76,-171.4 1029.45,-154.79 1017.99,-142.36"/>
<polygon fill="#63b8ff" stroke="#63b8ff" points="1020.47,-139.89 1011.11,-134.91 1015.32,-144.63 1020.47,-139.89"/>
</a>
</g>
</g>
<!-- Node29 -->
<g id="Node000029" class="node">
<title>Node29</title>
<g id="a_Node000029"><a xlink:title=" ">
<polygon fill="#e0e0e0" stroke="#999999" points="1178.9,-134.5 1062.9,-134.5 1062.9,-115.5 1178.9,-115.5 1178.9,-134.5"/>
<text text-anchor="middle" x="1120.9" y="-122.5" font-family="Helvetica,sans-Serif" font-size="10.00">comp_loaded_decl.h</text>
</a>
</g>
</g>
<!-- Node5&#45;&gt;Node29 -->
<g id="edge29_Node000005_Node000029" class="edge">
<title>Node5&#45;&gt;Node29</title>
<g id="a_edge29_Node000005_Node000029"><a xlink:title=" ">
<path fill="none" stroke="#63b8ff" d="M1069.86,-181.37C1079.05,-171.4 1094.36,-154.79 1105.82,-142.36"/>
<polygon fill="#63b8ff" stroke="#63b8ff" points="1108.49,-144.63 1112.7,-134.91 1103.34,-139.89 1108.49,-144.63"/>
</a>
</g>
</g>
<!-- Node30 -->
<g id="Node000030" class="node">
<title>Node30</title>
<g id="a_Node000030"><a xlink:title=" ">
<polygon fill="#e0e0e0" stroke="#999999" points="1274.9,-134.5 1196.9,-134.5 1196.9,-115.5 1274.9,-115.5 1274.9,-134.5"/>
<text text-anchor="middle" x="1235.9" y="-122.5" font-family="Helvetica,sans-Serif" font-size="10.00">comp_decl.h</text>
</a>
</g>
</g>
<!-- Node5&#45;&gt;Node30 -->
<g id="edge30_Node000005_Node000030" class="edge">
<title>Node5&#45;&gt;Node30</title>
<g id="a_edge30_Node000005_Node000030"><a xlink:title=" ">
<path fill="none" stroke="#63b8ff" d="M1085.37,-181.37C1115.68,-170.22 1168.61,-150.75 1202.95,-138.12"/>
<polygon fill="#63b8ff" stroke="#63b8ff" points="1204.36,-141.33 1212.53,-134.6 1201.94,-134.76 1204.36,-141.33"/>
</a>
</g>
</g>
<!-- Node31 -->
<g id="Node000031" class="node">
<title>Node31</title>
<g id="a_Node000031"><a xlink:title=" ">
<polygon fill="#e0e0e0" stroke="#999999" points="1400.9,-134.5 1292.9,-134.5 1292.9,-115.5 1400.9,-115.5 1400.9,-134.5"/>
<text text-anchor="middle" x="1346.9" y="-122.5" font-family="Helvetica,sans-Serif" font-size="10.00">info_loaded_decl.h</text>
</a>
</g>
</g>
<!-- Node5&#45;&gt;Node31 -->
<g id="edge31_Node000005_Node000031" class="edge">
<title>Node5&#45;&gt;Node31</title>
<g id="a_edge31_Node000005_Node000031"><a xlink:title=" ">
<path fill="none" stroke="#63b8ff" d="M1095.93,-181.49C1103.48,-179.64 1111.46,-177.73 1118.9,-176 1192.02,-159.05 1210.6,-156.14 1283.9,-140 1288.65,-138.96 1293.59,-137.86 1298.53,-136.77"/>
<polygon fill="#63b8ff" stroke="#63b8ff" points="1299.59,-140.12 1308.6,-134.54 1298.08,-133.29 1299.59,-140.12"/>
</a>
</g>
</g>
<!-- Node32 -->
<g id="Node000032" class="node">
<title>Node32</title>
<g id="a_Node000032"><a xlink:title=" ">
<polygon fill="#e0e0e0" stroke="#999999" points="1558.9,-134.5 1418.9,-134.5 1418.9,-115.5 1558.9,-115.5 1558.9,-134.5"/>
<text text-anchor="middle" x="1488.9" y="-122.5" font-family="Helvetica,sans-Serif" font-size="10.00">device_mesh_info_decl.h</text>
</a>
</g>
</g>
<!-- Node5&#45;&gt;Node32 -->
<g id="edge32_Node000005_Node000032" class="edge">
<title>Node5&#45;&gt;Node32</title>
<g id="a_edge32_Node000005_Node000032"><a xlink:title=" ">
<path fill="none" stroke="#63b8ff" d="M1093.72,-181.48C1101.89,-179.49 1110.69,-177.51 1118.9,-176 1247.07,-152.42 1281.03,-159.38 1409.9,-140 1417.38,-138.88 1425.23,-137.6 1432.96,-136.29"/>
<polygon fill="#63b8ff" stroke="#63b8ff" points="1433.76,-139.7 1443.02,-134.55 1432.57,-132.8 1433.76,-139.7"/>
</a>
</g>
</g>
<!-- Node33 -->
<g id="Node000033" class="node">
<title>Node33</title>
<g id="a_Node000033"><a xlink:title=" ">
<polygon fill="#e0e0e0" stroke="#999999" points="1654.4,-134.5 1577.4,-134.5 1577.4,-115.5 1654.4,-115.5 1654.4,-134.5"/>
<text text-anchor="middle" x="1615.9" y="-122.5" font-family="Helvetica,sans-Serif" font-size="10.00">array_decl.h</text>
</a>
</g>
</g>
<!-- Node5&#45;&gt;Node33 -->
<g id="edge33_Node000005_Node000033" class="edge">
<title>Node5&#45;&gt;Node33</title>
<g id="a_edge33_Node000005_Node000033"><a xlink:title=" ">
<path fill="none" stroke="#63b8ff" d="M1092.78,-181.46C1101.2,-179.39 1110.35,-177.38 1118.9,-176 1316.53,-144.02 1371.01,-176.22 1567.9,-140 1572.03,-139.24 1576.32,-138.27 1580.55,-137.19"/>
<polygon fill="#63b8ff" stroke="#63b8ff" points="1581.51,-140.56 1590.23,-134.54 1579.66,-133.8 1581.51,-140.56"/>
</a>
</g>
</g>
<!-- Node34 -->
<g id="Node000034" class="node">
<title>Node34</title>
<g id="a_Node000034"><a xlink:title=" ">
<polygon fill="#e0e0e0" stroke="#999999" points="1748.9,-134.5 1672.9,-134.5 1672.9,-115.5 1748.9,-115.5 1748.9,-134.5"/>
<text text-anchor="middle" x="1710.9" y="-122.5" font-family="Helvetica,sans-Serif" font-size="10.00">input_decl.h</text>
</a>
</g>
</g>
<!-- Node5&#45;&gt;Node34 -->
<g id="edge34_Node000005_Node000034" class="edge">
<title>Node5&#45;&gt;Node34</title>
<g id="a_edge34_Node000005_Node000034"><a xlink:title=" ">
<path fill="none" stroke="#63b8ff" d="M1092.47,-181.45C1100.97,-179.36 1110.24,-177.34 1118.9,-176 1358.8,-138.91 1424.98,-182.92 1663.9,-140 1667.85,-139.29 1671.93,-138.37 1675.96,-137.34"/>
<polygon fill="#63b8ff" stroke="#63b8ff" points="1677.09,-140.66 1685.79,-134.61 1675.22,-133.91 1677.09,-140.66"/>
</a>
</g>
</g>
<!-- Node35 -->
<g id="Node000035" class="node">
<title>Node35</title>
<g id="a_Node000035"><a xlink:href="ac__helpers_8h.html" target="_top" xlink:title=" ">
<polygon fill="white" stroke="#666666" points="1844.9,-134.5 1766.9,-134.5 1766.9,-115.5 1844.9,-115.5 1844.9,-134.5"/>
<text text-anchor="middle" x="1805.9" y="-122.5" font-family="Helvetica,sans-Serif" font-size="10.00">ac_helpers.h</text>
</a>
</g>
</g>
<!-- Node5&#45;&gt;Node35 -->
<g id="edge35_Node000005_Node000035" class="edge">
<title>Node5&#45;&gt;Node35</title>
<g id="a_edge35_Node000005_Node000035"><a xlink:title=" ">
<path fill="none" stroke="#63b8ff" d="M1092.17,-181.47C1100.75,-179.35 1110.14,-177.31 1118.9,-176 1400.22,-133.9 1477.56,-188.13 1757.9,-140 1762.14,-139.27 1766.53,-138.3 1770.86,-137.21"/>
<polygon fill="#63b8ff" stroke="#63b8ff" points="1772.03,-140.52 1780.75,-134.5 1770.18,-133.77 1772.03,-140.52"/>
</a>
</g>
</g>
<!-- Node36 -->
<g id="Node000036" class="node">
<title>Node36</title>
<g id="a_Node000036"><a xlink:title=" ">
<polygon fill="#e0e0e0" stroke="#999999" points="1980.9,-140 1862.9,-140 1862.9,-110 1980.9,-110 1980.9,-140"/>
<text text-anchor="start" x="1870.9" y="-128" font-family="Helvetica,sans-Serif" font-size="10.00">scalar_reduce_buffer</text>
<text text-anchor="middle" x="1921.9" y="-117" font-family="Helvetica,sans-Serif" font-size="10.00">_defs.h</text>
</a>
</g>
</g>
<!-- Node5&#45;&gt;Node36 -->
<g id="edge36_Node000005_Node000036" class="edge">
<title>Node5&#45;&gt;Node36</title>
<g id="a_edge36_Node000005_Node000036"><a xlink:title=" ">
<path fill="none" stroke="#63b8ff" d="M1091.87,-181.5C1100.52,-179.35 1110.03,-177.29 1118.9,-176 1439.22,-129.26 1527.63,-180.04 1852.48,-140.03"/>
<polygon fill="#63b8ff" stroke="#63b8ff" points="1853.17,-143.47 1862.66,-138.76 1852.3,-136.53 1853.17,-143.47"/>
</a>
</g>
</g>
<!-- Node37 -->
<g id="Node000037" class="node">
<title>Node37</title>
<g id="a_Node000037"><a xlink:title=" ">
<polygon fill="#e0e0e0" stroke="#999999" points="2122.4,-140 1999.4,-140 1999.4,-110 2122.4,-110 2122.4,-140"/>
<text text-anchor="start" x="2007.4" y="-128" font-family="Helvetica,sans-Serif" font-size="10.00">scalar_reduce_buffers</text>
<text text-anchor="middle" x="2060.9" y="-117" font-family="Helvetica,sans-Serif" font-size="10.00">_in_vba.h</text>
</a>
</g>
</g>
<!-- Node5&#45;&gt;Node37 -->
<g id="edge37_Node000005_Node000037" class="edge">
<title>Node5&#45;&gt;Node37</title>
<g id="a_edge37_Node000005_Node000037"><a xlink:title=" ">
<path fill="none" stroke="#63b8ff" d="M1091.86,-181.45C1100.52,-179.31 1110.03,-177.26 1118.9,-176 1499.22,-121.99 1603.38,-184.52 1989,-139.96"/>
<polygon fill="#63b8ff" stroke="#63b8ff" points="1989.51,-143.42 1999.04,-138.78 1988.7,-136.47 1989.51,-143.42"/>
</a>
</g>
</g>
<!-- Node38 -->
<g id="Node000038" class="node">
<title>Node38</title>
<g id="a_Node000038"><a xlink:href="astaroth__analysis_8h.html" target="_top" xlink:title=" ">
<polygon fill="white" stroke="#666666" points="2252.9,-134.5 2140.9,-134.5 2140.9,-115.5 2252.9,-115.5 2252.9,-134.5"/>
<text text-anchor="middle" x="2196.9" y="-122.5" font-family="Helvetica,sans-Serif" font-size="10.00">astaroth_analysis.h</text>
</a>
</g>
</g>
<!-- Node5&#45;&gt;Node38 -->
<g id="edge38_Node000005_Node000038" class="edge">
<title>Node5&#45;&gt;Node38</title>
<g id="a_edge38_Node000005_Node000038"><a xlink:title=" ">
<path fill="none" stroke="#63b8ff" d="M1091.56,-181.49C1100.3,-179.32 1109.92,-177.25 1118.9,-176 1565.12,-113.94 1684.85,-195.65 2131.9,-140 2138.68,-139.16 2145.79,-137.96 2152.72,-136.61"/>
<polygon fill="#63b8ff" stroke="#63b8ff" points="2153.6,-140 2162.69,-134.55 2152.19,-133.15 2153.6,-140"/>
</a>
</g>
</g>
<!-- Node5&#45;&gt;Node39 -->
<g id="edge39_Node000005_Node000039" class="edge">
<title>Node5&#45;&gt;Node39</title>
<g id="a_edge39_Node000005_Node000039"><a xlink:title=" ">
<path fill="none" stroke="#63b8ff" d="M1091.55,-181.44C1100.29,-179.26 1109.92,-177.2 1118.9,-176 1745.96,-92.06 1916.28,-234.01 2541.9,-140 2546.67,-139.28 2551.62,-138.26 2556.48,-137.08"/>
<polygon fill="#63b8ff" stroke="#63b8ff" points="2557.45,-140.44 2566.22,-134.5 2555.66,-133.68 2557.45,-140.44"/>
</a>
</g>
</g>
<!-- Node40 -->
<g id="Node000040" class="node">
<title>Node40</title>
<g id="a_Node000040"><a xlink:href="common__kernels_8h.html" target="_top" xlink:title=" ">
<polygon fill="white" stroke="#666666" points="2380.4,-134.5 2271.4,-134.5 2271.4,-115.5 2380.4,-115.5 2380.4,-134.5"/>
<text text-anchor="middle" x="2325.9" y="-122.5" font-family="Helvetica,sans-Serif" font-size="10.00">common_kernels.h</text>
</a>
</g>
</g>
<!-- Node5&#45;&gt;Node40 -->
<g id="edge40_Node000005_Node000040" class="edge">
<title>Node5&#45;&gt;Node40</title>
<g id="a_edge40_Node000005_Node000040"><a xlink:title=" ">
<path fill="none" stroke="#63b8ff" d="M1091.56,-181.47C1100.29,-179.3 1109.92,-177.23 1118.9,-176 1622.45,-107.01 1757.52,-202.57 2261.9,-140 2268.65,-139.16 2275.74,-137.95 2282.64,-136.59"/>
<polygon fill="#63b8ff" stroke="#63b8ff" points="2283.49,-139.99 2292.56,-134.51 2282.05,-133.14 2283.49,-139.99"/>
</a>
</g>
</g>
<!-- Node41 -->
<g id="Node000041" class="node">
<title>Node41</title>
<g id="a_Node000041"><a xlink:title=" ">
<polygon fill="#e0e0e0" stroke="#999999" points="2532.9,-140 2398.9,-140 2398.9,-110 2532.9,-110 2532.9,-140"/>
<text text-anchor="start" x="2406.9" y="-128" font-family="Helvetica,sans-Serif" font-size="10.00">load_and_store_uniform</text>
<text text-anchor="middle" x="2465.9" y="-117" font-family="Helvetica,sans-Serif" font-size="10.00">_header.h</text>
</a>
</g>
</g>
<!-- Node5&#45;&gt;Node41 -->
<g id="edge41_Node000005_Node000041" class="edge">
<title>Node5&#45;&gt;Node41</title>
<g id="a_edge41_Node000005_Node000041"><a xlink:title=" ">
<path fill="none" stroke="#63b8ff" d="M1091.55,-181.45C1100.29,-179.28 1109.92,-177.22 1118.9,-176 1675.63,-100.62 1826.16,-198.21 2388.86,-139.98"/>
<polygon fill="#63b8ff" stroke="#63b8ff" points="2389.27,-143.45 2398.85,-138.93 2388.54,-136.49 2389.27,-143.45"/>
</a>
</g>
</g>
<!-- Node8 -->
<g id="Node000008" class="node">
<title>Node8</title>
<g id="a_Node000008"><a xlink:title=" ">
<polygon fill="#e0e0e0" stroke="#999999" points="463.4,-19 350.4,-19 350.4,0 463.4,0 463.4,-19"/>
<text text-anchor="middle" x="406.9" y="-7" font-family="Helvetica,sans-Serif" font-size="10.00">cuda_runtime_api.h</text>
</a>
</g>
</g>
<!-- Node7&#45;&gt;Node8 -->
<g id="edge8_Node000007_Node000008" class="edge">
<title>Node7&#45;&gt;Node8</title>
<g id="a_edge8_Node000007_Node000008"><a xlink:title=" ">
<path fill="none" stroke="#63b8ff" d="M278.49,-54.98C303.95,-46.16 343.95,-32.31 372.54,-22.41"/>
<polygon fill="#63b8ff" stroke="#63b8ff" points="373.83,-25.66 382.13,-19.08 371.54,-19.05 373.83,-25.66"/>
</a>
</g>
</g>
<!-- Node9 -->
<g id="Node000009" class="node">
<title>Node9</title>
<g id="a_Node000009"><a xlink:title=" ">
<polygon fill="#e0e0e0" stroke="#999999" points="291.9,-19 215.9,-19 215.9,0 291.9,0 291.9,-19"/>
<text text-anchor="middle" x="253.9" y="-7" font-family="Helvetica,sans-Serif" font-size="10.00">cuda_fp16.h</text>
</a>
</g>
</g>
<!-- Node7&#45;&gt;Node9 -->
<g id="edge9_Node000007_Node000009" class="edge">
<title>Node7&#45;&gt;Node9</title>
<g id="a_edge9_Node000007_Node000009"><a xlink:title=" ">
<path fill="none" stroke="#63b8ff" d="M253.9,-54.75C253.9,-47.8 253.9,-37.85 253.9,-29.13"/>
<polygon fill="#63b8ff" stroke="#63b8ff" points="257.4,-29.09 253.9,-19.09 250.4,-29.09 257.4,-29.09"/>
</a>
</g>
</g>
<!-- Node11&#45;&gt;Node7 -->
<g id="edge14_Node000011_Node000007" class="edge">
<title>Node11&#45;&gt;Node7</title>
<g id="a_edge14_Node000011_Node000007"><a xlink:title=" ">
<path fill="none" stroke="#63b8ff" d="M409.44,-115.49C378.03,-105.4 325.5,-88.51 290.29,-77.19"/>
<polygon fill="#63b8ff" stroke="#63b8ff" points="290.99,-73.74 280.4,-74.02 288.85,-80.41 290.99,-73.74"/>
</a>
</g>
</g>
<!-- Node11&#45;&gt;Node8 -->
<g id="edge16_Node000011_Node000008" class="edge">
<title>Node11&#45;&gt;Node8</title>
<g id="a_edge16_Node000011_Node000008"><a xlink:title=" ">
<path fill="none" stroke="#63b8ff" d="M435.59,-115.34C434.92,-102.1 432.9,-76.15 426.9,-55 424.31,-45.83 420.13,-36.13 416.26,-28.13"/>
<polygon fill="#63b8ff" stroke="#63b8ff" points="419.32,-26.41 411.67,-19.08 413.08,-29.58 419.32,-26.41"/>
</a>
</g>
</g>
<!-- Node11&#45;&gt;Node10 -->
<g id="edge18_Node000011_Node000010" class="edge">
<title>Node11&#45;&gt;Node10</title>
<g id="a_edge18_Node000011_Node000010"><a xlink:title=" ">
<path fill="none" stroke="#63b8ff" d="M426.31,-115.37C416.33,-106.38 400.47,-92.11 388.28,-81.14"/>
<polygon fill="#63b8ff" stroke="#63b8ff" points="390.31,-78.26 380.54,-74.17 385.63,-83.46 390.31,-78.26"/>
</a>
</g>
</g>
<!-- Node12 -->
<g id="Node000012" class="node">
<title>Node12</title>
<g id="a_Node000012"><a xlink:title=" ">
<polygon fill="#e0e0e0" stroke="#999999" points="522.4,-74 475.4,-74 475.4,-55 522.4,-55 522.4,-74"/>
<text text-anchor="middle" x="498.9" y="-62" font-family="Helvetica,sans-Serif" font-size="10.00">float.h</text>
</a>
</g>
</g>
<!-- Node11&#45;&gt;Node12 -->
<g id="edge12_Node000011_Node000012" class="edge">
<title>Node11&#45;&gt;Node12</title>
<g id="a_edge12_Node000011_Node000012"><a xlink:title=" ">
<path fill="none" stroke="#63b8ff" d="M445.2,-115.37C454.88,-106.38 470.25,-92.11 482.07,-81.14"/>
<polygon fill="#63b8ff" stroke="#63b8ff" points="484.62,-83.54 489.57,-74.17 479.86,-78.41 484.62,-83.54"/>
</a>
</g>
</g>
<!-- Node13 -->
<g id="Node000013" class="node">
<title>Node13</title>
<g id="a_Node000013"><a xlink:title=" ">
<polygon fill="#e0e0e0" stroke="#999999" points="591.4,-74 540.4,-74 540.4,-55 591.4,-55 591.4,-74"/>
<text text-anchor="middle" x="565.9" y="-62" font-family="Helvetica,sans-Serif" font-size="10.00">math.h</text>
</a>
</g>
</g>
<!-- Node11&#45;&gt;Node13 -->
<g id="edge13_Node000011_Node000013" class="edge">
<title>Node11&#45;&gt;Node13</title>
<g id="a_edge13_Node000011_Node000013"><a xlink:title=" ">
<path fill="none" stroke="#63b8ff" d="M454.81,-115.49C476.57,-105.7 512.52,-89.52 537.62,-78.23"/>
<polygon fill="#63b8ff" stroke="#63b8ff" points="539.3,-81.31 546.98,-74.02 536.42,-74.93 539.3,-81.31"/>
</a>
</g>
</g>
<!-- Node14 -->
<g id="Node000014" class="node">
<title>Node14</title>
<g id="a_Node000014"><a xlink:title=" ">
<polygon fill="#e0e0e0" stroke="#999999" points="698.4,-74 609.4,-74 609.4,-55 698.4,-55 698.4,-74"/>
<text text-anchor="middle" x="653.9" y="-62" font-family="Helvetica,sans-Serif" font-size="10.00">vector_types.h</text>
</a>
</g>
</g>
<!-- Node11&#45;&gt;Node14 -->
<g id="edge15_Node000011_Node000014" class="edge">
<title>Node11&#45;&gt;Node14</title>
<g id="a_edge15_Node000011_Node000014"><a xlink:title=" ">
<path fill="none" stroke="#63b8ff" d="M463.58,-115.37C469.61,-113.55 475.96,-111.67 481.9,-110 525.01,-97.87 574.54,-85.19 609.34,-76.48"/>
<polygon fill="#63b8ff" stroke="#63b8ff" points="610.34,-79.84 619.2,-74.02 608.65,-73.05 610.34,-79.84"/>
</a>
</g>
</g>
<!-- Node15 -->
<g id="Node000015" class="node">
<title>Node15</title>
<g id="a_Node000015"><a xlink:href="acreal_8h.html" target="_top" xlink:title=" ">
<polygon fill="white" stroke="#666666" points="771.9,-74 715.9,-74 715.9,-55 771.9,-55 771.9,-74"/>
<text text-anchor="middle" x="743.9" y="-62" font-family="Helvetica,sans-Serif" font-size="10.00">acreal.h</text>
</a>
</g>
</g>
<!-- Node11&#45;&gt;Node15 -->
<g id="edge17_Node000011_Node000015" class="edge">
<title>Node11&#45;&gt;Node15</title>
<g id="a_edge17_Node000011_Node000015"><a xlink:title=" ">
<path fill="none" stroke="#63b8ff" d="M462.01,-115.38C468.47,-113.43 475.4,-111.5 481.9,-110 577.49,-87.92 605.75,-92.99 705.76,-74.1"/>
<polygon fill="#63b8ff" stroke="#63b8ff" points="706.51,-77.52 715.66,-72.19 705.18,-70.64 706.51,-77.52"/>
</a>
</g>
</g>
<!-- Node19&#45;&gt;Node4 -->
<g id="edge20_Node000019_Node000004" class="edge">
<title>Node19&#45;&gt;Node4</title>
<g id="a_edge20_Node000019_Node000004"><a xlink:title=" ">
<path fill="none" stroke="#63b8ff" d="M216.66,-115.49C190.6,-105.53 147.23,-88.95 117.64,-77.63"/>
<polygon fill="#63b8ff" stroke="#63b8ff" points="118.77,-74.32 108.18,-74.02 116.27,-80.86 118.77,-74.32"/>
</a>
</g>
</g>
<!-- Node19&#45;&gt;Node6 -->
<g id="edge21_Node000019_Node000006" class="edge">
<title>Node19&#45;&gt;Node6</title>
<g id="a_edge21_Node000019_Node000006"><a xlink:title=" ">
<path fill="none" stroke="#63b8ff" d="M227.25,-115.37C214.76,-106.12 194.72,-91.28 179.75,-80.19"/>
<polygon fill="#63b8ff" stroke="#63b8ff" points="181.73,-77.31 171.61,-74.17 177.56,-82.93 181.73,-77.31"/>
</a>
</g>
</g>
<!-- Node19&#45;&gt;Node7 -->
<g id="edge22_Node000019_Node000007" class="edge">
<title>Node19&#45;&gt;Node7</title>
<g id="a_edge22_Node000019_Node000007"><a xlink:title=" ">
<path fill="none" stroke="#63b8ff" d="M241.12,-115.37C243.22,-107.16 246.46,-94.54 249.15,-84.05"/>
<polygon fill="#63b8ff" stroke="#63b8ff" points="252.59,-84.72 251.68,-74.17 245.81,-82.98 252.59,-84.72"/>
</a>
</g>
</g>
<!-- Node46 -->
<g id="Node000046" class="node">
<title>Node46</title>
<g id="a_Node000046"><a xlink:title=" ">
<polygon fill="#e0e0e0" stroke="#999999" points="1445.4,-206 1326.4,-206 1326.4,-176 1445.4,-176 1445.4,-206"/>
<text text-anchor="start" x="1334.4" y="-194" font-family="Helvetica,sans-Serif" font-size="10.00">device_load_uniform</text>
<text text-anchor="middle" x="1385.9" y="-183" font-family="Helvetica,sans-Serif" font-size="10.00">_decl.h</text>
</a>
</g>
</g>
<!-- Node45&#45;&gt;Node46 -->
<g id="edge48_Node000045_Node000046" class="edge">
<title>Node45&#45;&gt;Node46</title>
<g id="a_edge48_Node000045_Node000046"><a xlink:title=" ">
<path fill="none" stroke="#63b8ff" d="M1399.54,-241.87C1397.67,-235.03 1394.97,-225.14 1392.46,-215.97"/>
<polygon fill="#63b8ff" stroke="#63b8ff" points="1395.78,-214.84 1389.77,-206.11 1389.03,-216.68 1395.78,-214.84"/>
</a>
</g>
</g>
<!-- Node47 -->
<g id="Node000047" class="node">
<title>Node47</title>
<g id="a_Node000047"><a xlink:title=" ">
<polygon fill="#e0e0e0" stroke="#999999" points="1585.9,-206 1463.9,-206 1463.9,-176 1585.9,-176 1585.9,-206"/>
<text text-anchor="start" x="1471.9" y="-194" font-family="Helvetica,sans-Serif" font-size="10.00">device_store_uniform</text>
<text text-anchor="middle" x="1524.9" y="-183" font-family="Helvetica,sans-Serif" font-size="10.00">_decl.h</text>
</a>
</g>
</g>
<!-- Node45&#45;&gt;Node47 -->
<g id="edge49_Node000045_Node000047" class="edge">
<title>Node45&#45;&gt;Node47</title>
<g id="a_edge49_Node000045_Node000047"><a xlink:title=" ">
<path fill="none" stroke="#63b8ff" d="M1419.79,-241.99C1437.05,-233.79 1463.74,-221.09 1485.91,-210.55"/>
<polygon fill="#63b8ff" stroke="#63b8ff" points="1487.57,-213.63 1495.1,-206.18 1484.56,-207.31 1487.57,-213.63"/>
</a>
</g>
</g>
</g>
</svg>

<g id="navigator" transform="translate(0 0)" fill="#404254">
  <rect fill="#f2f5e9" fill-opacity="0.5" stroke="#606060" stroke-width=".5" x="0" y="0" width="60" height="60"/>
  <use id="zoomplus" xlink:href="#zoomPlus" x="17" y="9" onmousedown="handleZoom(evt,'in')"/>
  <use id="zoomminus" xlink:href="#zoomMin" x="42" y="9" onmousedown="handleZoom(evt,'out')"/>
  <use id="reset" xlink:href="#resetDef" x="30" y="36" onmousedown="handleReset()"/>
   <use id="arrowup" xlink:href="#arrowUp" x="0" y="0" onmousedown="handlePan(0,-1)"/>
  <use id="arrowright" xlink:href="#arrowRight" x="0" y="0" onmousedown="handlePan(1,0)"/>
  <use id="arrowdown" xlink:href="#arrowDown" x="0" y="0" onmousedown="handlePan(0,1)"/>
  <use id="arrowleft" xlink:href="#arrowLeft" x="0" y="0" onmousedown="handlePan(-1,0)"/>
</g>
<svg viewBox="0 0 15 15" width="100%" height="30px" preserveAspectRatio="xMaxYMin meet">
 <g id="arrow_out" transform="scale(0.3 0.3)">
  <a xlink:href="astaroth__utils_8h__incl_org.svg" target="_base">
   <rect id="button" ry="5" rx="5" y="6" x="6" height="38" width="38"
        fill="#f2f5e9" fill-opacity="0.5" stroke="#606060" stroke-width="1.0"/>
   <path id="arrow"
     d="M 11.500037,31.436501 C 11.940474,20.09759 22.043105,11.32322 32.158766,21.979434 L 37.068811,17.246167 C 37.068811,17.246167 37.088388,32 37.088388,32 L 22.160133,31.978069 C 22.160133,31.978069 26.997745,27.140456 26.997745,27.140456 C 18.528582,18.264221 13.291696,25.230495 11.500037,31.436501 z"
     style="fill:#404040;"/>
  </a>
 </g>
</svg>

<style type='text/css'>
<![CDATA[
[data-mouse-over-selected='false'] { opacity: 0.7; }
[data-mouse-over-selected='true']  { opacity: 1.0; }
]]>
</style>
<script type="application/ecmascript"><![CDATA[
document.addEventListener('DOMContentLoaded', (event) => {
  highlightEdges();
  highlightAdjacentNodes();
});
]]></script>
</svg>
