<?xml version="1.0" encoding="UTF-8" standalone="no"?>
<!DOCTYPE svg PUBLIC "-//W3C//DTD SVG 1.1//EN"
 "http://www.w3.org/Graphics/SVG/1.1/DTD/svg11.dtd">
<!-- Generated by graphviz version 2.43.0 (0)
 -->
<!-- Title: include/astaroth_lib.h Pages: 1 -->
<svg width="871pt" height="148pt"
 viewBox="0.00 0.00 871.00 148.00" xmlns="http://www.w3.org/2000/svg" xmlns:xlink="http://www.w3.org/1999/xlink">
<g id="graph0" class="graph" transform="scale(1 1) rotate(0) translate(4 144)">
<title>include/astaroth_lib.h</title>
<!-- Node1 -->
<g id="Node000001" class="node">
<title>Node1</title>
<g id="a_Node000001"><a xlink:title=" ">
<polygon fill="#999999" stroke="#666666" points="488,-140 366,-140 366,-121 488,-121 488,-140"/>
<text text-anchor="middle" x="427" y="-128" font-family="Helvetica,sans-Serif" font-size="10.00">include/astaroth_lib.h</text>
</a>
</g>
</g>
<!-- Node2 -->
<g id="Node000002" class="node">
<title>Node2</title>
<g id="a_Node000002"><a xlink:href="astaroth__utils_8h.html" target="_top" xlink:title="Functions for loading and updating AcMeshInfo.">
<polygon fill="white" stroke="#666666" points="492.5,-85 361.5,-85 361.5,-66 492.5,-66 492.5,-85"/>
<text text-anchor="middle" x="427" y="-73" font-family="Helvetica,sans-Serif" font-size="10.00">include/astaroth_utils.h</text>
</a>
</g>
</g>
<!-- Node1&#45;&gt;Node2 -->
<g id="edge1_Node000001_Node000002" class="edge">
<title>Node1&#45;&gt;Node2</title>
<g id="a_edge1_Node000001_Node000002"><a xlink:title=" ">
<path fill="none" stroke="#63b8ff" d="M427,-110.66C427,-101.93 427,-91.99 427,-85.09"/>
<polygon fill="#63b8ff" stroke="#63b8ff" points="423.5,-110.75 427,-120.75 430.5,-110.75 423.5,-110.75"/>
</a>
</g>
</g>
<!-- Node3 -->
<g id="Node000003" class="node">
<title>Node3</title>
<g id="a_Node000003"><a xlink:href="config__loader_8cc.html" target="_top" xlink:title=" ">
<polygon fill="white" stroke="#666666" points="136,-24.5 0,-24.5 0,-5.5 136,-5.5 136,-24.5"/>
<text text-anchor="middle" x="68" y="-12.5" font-family="Helvetica,sans-Serif" font-size="10.00">src/utils/config_loader.cc</text>
</a>
</g>
</g>
<!-- Node2&#45;&gt;Node3 -->
<g id="edge2_Node000002_Node000003" class="edge">
<title>Node2&#45;&gt;Node3</title>
<g id="a_edge2_Node000002_Node000003"><a xlink:title=" ">
<path fill="none" stroke="#63b8ff" d="M360.49,-64.45C303.3,-55.71 218.64,-42.5 145,-30 134.95,-28.29 124.18,-26.39 113.98,-24.54"/>
<polygon fill="#63b8ff" stroke="#63b8ff" points="360.08,-67.93 370.49,-65.98 361.13,-61.01 360.08,-67.93"/>
</a>
</g>
</g>
<!-- Node4 -->
<g id="Node000004" class="node">
<title>Node4</title>
<g id="a_Node000004"><a xlink:href="memory_8cc.html" target="_top" xlink:title=" ">
<polygon fill="white" stroke="#666666" points="265.5,-24.5 154.5,-24.5 154.5,-5.5 265.5,-5.5 265.5,-24.5"/>
<text text-anchor="middle" x="210" y="-12.5" font-family="Helvetica,sans-Serif" font-size="10.00">src/utils/memory.cc</text>
</a>
</g>
</g>
<!-- Node2&#45;&gt;Node4 -->
<g id="edge3_Node000002_Node000004" class="edge">
<title>Node2&#45;&gt;Node4</title>
<g id="a_edge3_Node000002_Node000004"><a xlink:title=" ">
<path fill="none" stroke="#63b8ff" d="M385.54,-63.32C343.58,-52.01 279.62,-34.77 241.59,-24.52"/>
<polygon fill="#63b8ff" stroke="#63b8ff" points="384.88,-66.77 395.45,-65.99 386.7,-60.01 384.88,-66.77"/>
</a>
</g>
</g>
<!-- Node5 -->
<g id="Node000005" class="node">
<title>Node5</title>
<g id="a_Node000005"><a xlink:href="modelreduce_8cc.html" target="_top" xlink:title=" ">
<polygon fill="white" stroke="#666666" points="418.5,-24.5 283.5,-24.5 283.5,-5.5 418.5,-5.5 418.5,-24.5"/>
<text text-anchor="middle" x="351" y="-12.5" font-family="Helvetica,sans-Serif" font-size="10.00">src/utils/modelreduce.cc</text>
</a>
</g>
</g>
<!-- Node2&#45;&gt;Node5 -->
<g id="edge4_Node000002_Node000005" class="edge">
<title>Node2&#45;&gt;Node5</title>
<g id="a_edge4_Node000002_Node000005"><a xlink:title=" ">
<path fill="none" stroke="#63b8ff" d="M407.56,-59.54C393.21,-48.49 374.18,-33.84 362.26,-24.67"/>
<polygon fill="#63b8ff" stroke="#63b8ff" points="405.73,-62.54 415.79,-65.87 410,-56.99 405.73,-62.54"/>
</a>
</g>
</g>
<!-- Node6 -->
<g id="Node000006" class="node">
<title>Node6</title>
<g id="a_Node000006"><a xlink:href="modelsolver-legacy-do-not-modify_8c.html" target="_top" xlink:title=" ">
<polygon fill="white" stroke="#666666" points="569,-30 437,-30 437,0 569,0 569,-30"/>
<text text-anchor="start" x="445" y="-18" font-family="Helvetica,sans-Serif" font-size="10.00">src/utils/modelsolver</text>
<text text-anchor="middle" x="503" y="-7" font-family="Helvetica,sans-Serif" font-size="10.00">&#45;legacy&#45;do&#45;not&#45;modify.c</text>
</a>
</g>
</g>
<!-- Node2&#45;&gt;Node6 -->
<g id="edge5_Node000002_Node000006" class="edge">
<title>Node2&#45;&gt;Node6</title>
<g id="a_edge5_Node000002_Node000006"><a xlink:title=" ">
<path fill="none" stroke="#63b8ff" d="M446.14,-59.77C457.95,-50.68 473.01,-39.09 484.66,-30.11"/>
<polygon fill="#63b8ff" stroke="#63b8ff" points="444,-56.99 438.21,-65.87 448.27,-62.54 444,-56.99"/>
</a>
</g>
</g>
<!-- Node7 -->
<g id="Node000007" class="node">
<title>Node7</title>
<g id="a_Node000007"><a xlink:href="modelsolver_8cc.html" target="_top" xlink:title=" ">
<polygon fill="white" stroke="#666666" points="718.5,-24.5 587.5,-24.5 587.5,-5.5 718.5,-5.5 718.5,-24.5"/>
<text text-anchor="middle" x="653" y="-12.5" font-family="Helvetica,sans-Serif" font-size="10.00">src/utils/modelsolver.cc</text>
</a>
</g>
</g>
<!-- Node2&#45;&gt;Node7 -->
<g id="edge6_Node000002_Node000007" class="edge">
<title>Node2&#45;&gt;Node7</title>
<g id="a_edge6_Node000002_Node000007"><a xlink:title=" ">
<path fill="none" stroke="#63b8ff" d="M469.62,-63.47C513.32,-52.16 580.33,-34.81 620.1,-24.52"/>
<polygon fill="#63b8ff" stroke="#63b8ff" points="468.67,-60.1 459.86,-65.99 470.42,-66.88 468.67,-60.1"/>
</a>
</g>
</g>
<!-- Node8 -->
<g id="Node000008" class="node">
<title>Node8</title>
<g id="a_Node000008"><a xlink:href="verification_8cc.html" target="_top" xlink:title=" ">
<polygon fill="white" stroke="#666666" points="863,-24.5 737,-24.5 737,-5.5 863,-5.5 863,-24.5"/>
<text text-anchor="middle" x="800" y="-12.5" font-family="Helvetica,sans-Serif" font-size="10.00">src/utils/verification.cc</text>
</a>
</g>
</g>
<!-- Node2&#45;&gt;Node8 -->
<g id="edge7_Node000002_Node000008" class="edge">
<title>Node2&#45;&gt;Node8</title>
<g id="a_edge7_Node000002_Node000008"><a xlink:title=" ">
<path fill="none" stroke="#63b8ff" d="M500.19,-64.62C561.23,-56.16 650.44,-43.27 728,-30 737.66,-28.35 748.03,-26.42 757.8,-24.54"/>
<polygon fill="#63b8ff" stroke="#63b8ff" points="499.69,-61.16 490.26,-66 500.65,-68.09 499.69,-61.16"/>
</a>
</g>
</g>
</g>
</svg>
