<?xml version="1.0" encoding="UTF-8" standalone="no"?>
<!DOCTYPE svg PUBLIC "-//W3C//DTD SVG 1.1//EN"
 "http://www.w3.org/Graphics/SVG/1.1/DTD/svg11.dtd">
<!-- Generated by graphviz version 2.43.0 (0)
 -->
<!-- Title: include/astaroth_cuda_wrappers.h Pages: 1 -->
<!--zoomable 159 -->

<svg id="main" version="1.1" xmlns="http://www.w3.org/2000/svg" xmlns:xlink="http://www.w3.org/1999/xlink" xml:space="preserve" onload="init(evt)">
<style type="text/css"><![CDATA[
.node, .edge {opacity: 0.7;}
.node.selected, .edge.selected {opacity: 1;}
.edge:hover path { stroke: red; }
.edge:hover polygon { stroke: red; fill: red; }
]]></style>

<defs>
  <circle id="rim" cx="0" cy="0" r="7"/>
  <circle id="rim2" cx="0" cy="0" r="3.5"/>
  <g id="zoomPlus">
    <use xlink:href="#rim" fill="#404040"><set attributeName="fill" to="#808080" begin="zoomplus.mouseover" end="zoomplus.mouseout"/></use>
    <path d="M-4,0h8M0,-4v8" fill="none" stroke="white" stroke-width="1.5" pointer-events="none"/>
  </g>
  <g id="zoomMin">
    <use xlink:href="#rim" fill="#404040"><set attributeName="fill" to="#808080" begin="zoomminus.mouseover" end="zoomminus.mouseout"/></use>
    <path d="M-4,0h8" fill="none" stroke="white" stroke-width="1.5" pointer-events="none"/>
  </g>
  <g id="arrowUp" transform="translate(30 24)">
    <use xlink:href="#rim"/>
    <path pointer-events="none" fill="none" stroke="white" stroke-width="1.5" d="M0,-3.0v7 M-2.5,-0.5L0,-3.0L2.5,-0.5"/>
  </g>
  <g id="arrowRight" transform="rotate(90) translate(36 -43)">
    <use xlink:href="#rim"/>
    <path pointer-events="none" fill="none" stroke="white" stroke-width="1.5" d="M0,-3.0v7 M-2.5,-0.5L0,-3.0L2.5,-0.5"/>
  </g>
  <g id="arrowDown" transform="rotate(180) translate(-30 -48)">
    <use xlink:href="#rim"/>
    <path pointer-events="none" fill="none" stroke="white" stroke-width="1.5" d="M0,-3.0v7 M-2.5,-0.5L0,-3.0L2.5,-0.5"/>
  </g>
  <g id="arrowLeft" transform="rotate(270) translate(-36 17)">
    <use xlink:href="#rim"/>
    <path pointer-events="none" fill="none" stroke="white" stroke-width="1.5" d="M0,-3.0v7 M-2.5,-0.5L0,-3.0L2.5,-0.5"/>
  </g>
  <g id="resetDef">
    <use xlink:href="#rim2" fill="#404040"><set attributeName="fill" to="#808080" begin="reset.mouseover" end="reset.mouseout"/></use>
  </g>
</defs>
<script type="application/ecmascript">
var viewWidth = 2893;
var viewHeight = 159;
var sectionId = 'dynsection-1';
</script>
<script type="application/ecmascript" xlink:href="svg.min.js"/>
<svg id="graph" class="graph">
<g id="viewport">
<title>include/astaroth_cuda_wrappers.h</title>
<!-- Node1 -->
<g id="Node000001" class="node">
<title>Node1</title>
<g id="a_Node000001"><a xlink:title=" ">
<polygon fill="#999999" stroke="#666666" points="1451,-151 1327,-151 1327,-121 1451,-121 1451,-151"/>
<text text-anchor="start" x="1335" y="-139" font-family="Helvetica,sans-Serif" font-size="10.00">include/astaroth_cuda</text>
<text text-anchor="middle" x="1389" y="-128" font-family="Helvetica,sans-Serif" font-size="10.00">_wrappers.h</text>
</a>
</g>
</g>
<!-- Node2 -->
<g id="Node000002" class="node">
<title>Node2</title>
<g id="a_Node000002"><a xlink:href="acc__runtime_8cu.html" target="_top" xlink:title=" ">
<polygon fill="white" stroke="#666666" points="129.5,-85 16.5,-85 16.5,-55 129.5,-55 129.5,-85"/>
<text text-anchor="start" x="24.5" y="-73" font-family="Helvetica,sans-Serif" font-size="10.00">acc&#45;runtime/api/acc</text>
<text text-anchor="middle" x="73" y="-62" font-family="Helvetica,sans-Serif" font-size="10.00">_runtime.cu</text>
</a>
</g>
</g>
<!-- Node1&#45;&gt;Node2 -->
<g id="edge1_Node000001_Node000002" class="edge">
<title>Node1&#45;&gt;Node2</title>
<g id="a_edge1_Node000001_Node000002"><a xlink:title=" ">
<path fill="none" stroke="#63b8ff" d="M1316.41,-133.71C1085.42,-129.35 369.15,-113.8 139,-85 135.98,-84.62 132.89,-84.18 129.78,-83.68"/>
<polygon fill="#63b8ff" stroke="#63b8ff" points="1316.64,-137.21 1326.71,-133.9 1316.78,-130.22 1316.64,-137.21"/>
</a>
</g>
</g>
<!-- Node4 -->
<g id="Node000004" class="node">
<title>Node4</title>
<g id="a_Node000004"><a xlink:href="arrays_8cc.html" target="_top" xlink:title=" ">
<polygon fill="white" stroke="#666666" points="288,-79.5 148,-79.5 148,-60.5 288,-60.5 288,-79.5"/>
<text text-anchor="middle" x="218" y="-67.5" font-family="Helvetica,sans-Serif" font-size="10.00">acc&#45;runtime/api/arrays.cc</text>
</a>
</g>
</g>
<!-- Node1&#45;&gt;Node4 -->
<g id="edge3_Node000001_Node000004" class="edge">
<title>Node1&#45;&gt;Node4</title>
<g id="a_edge3_Node000001_Node000004"><a xlink:title=" ">
<path fill="none" stroke="#63b8ff" d="M1316.84,-134.87C1141.69,-133.85 680.29,-127.04 298,-85 285.95,-83.67 272.96,-81.66 261.04,-79.57"/>
<polygon fill="#63b8ff" stroke="#63b8ff" points="1316.95,-138.37 1326.97,-134.92 1316.99,-131.37 1316.95,-138.37"/>
</a>
</g>
</g>
<!-- Node5 -->
<g id="Node000005" class="node">
<title>Node5</title>
<g id="a_Node000005"><a xlink:href="common__kernels_8cc.html" target="_top" xlink:title=" ">
<polygon fill="white" stroke="#666666" points="445.5,-85 306.5,-85 306.5,-55 445.5,-55 445.5,-85"/>
<text text-anchor="start" x="314.5" y="-73" font-family="Helvetica,sans-Serif" font-size="10.00">acc&#45;runtime/api/common</text>
<text text-anchor="middle" x="376" y="-62" font-family="Helvetica,sans-Serif" font-size="10.00">_kernels.cc</text>
</a>
</g>
</g>
<!-- Node1&#45;&gt;Node5 -->
<g id="edge4_Node000001_Node000005" class="edge">
<title>Node1&#45;&gt;Node5</title>
<g id="a_edge4_Node000001_Node000005"><a xlink:title=" ">
<path fill="none" stroke="#63b8ff" d="M1316.73,-134.13C1159.52,-131.57 774.86,-121.76 455,-85 451.96,-84.65 448.85,-84.26 445.72,-83.83"/>
<polygon fill="#63b8ff" stroke="#63b8ff" points="1316.7,-137.63 1326.75,-134.29 1316.81,-130.63 1316.7,-137.63"/>
</a>
</g>
</g>
<!-- Node6 -->
<g id="Node000006" class="node">
<title>Node6</title>
<g id="a_Node000006"><a xlink:href="vba_8cc.html" target="_top" xlink:title=" ">
<polygon fill="white" stroke="#666666" points="592,-79.5 464,-79.5 464,-60.5 592,-60.5 592,-79.5"/>
<text text-anchor="middle" x="528" y="-67.5" font-family="Helvetica,sans-Serif" font-size="10.00">acc&#45;runtime/api/vba.cc</text>
</a>
</g>
</g>
<!-- Node1&#45;&gt;Node6 -->
<g id="edge5_Node000001_Node000006" class="edge">
<title>Node1&#45;&gt;Node6</title>
<g id="a_edge5_Node000001_Node000006"><a xlink:title=" ">
<path fill="none" stroke="#63b8ff" d="M1316.84,-133.46C1177.8,-129.83 863.35,-118.34 601,-85 590.12,-83.62 578.42,-81.61 567.64,-79.54"/>
<polygon fill="#63b8ff" stroke="#63b8ff" points="1316.85,-136.96 1326.94,-133.72 1317.03,-129.97 1316.85,-136.96"/>
</a>
</g>
</g>
<!-- Node7 -->
<g id="Node000007" class="node">
<title>Node7</title>
<g id="a_Node000007"><a xlink:href="astaroth_8cc.html" target="_top" xlink:title=" ">
<polygon fill="white" stroke="#666666" points="722,-79.5 610,-79.5 610,-60.5 722,-60.5 722,-79.5"/>
<text text-anchor="middle" x="666" y="-67.5" font-family="Helvetica,sans-Serif" font-size="10.00">src/core/astaroth.cc</text>
</a>
</g>
</g>
<!-- Node1&#45;&gt;Node7 -->
<g id="edge6_Node000001_Node000007" class="edge">
<title>Node1&#45;&gt;Node7</title>
<g id="a_edge6_Node000001_Node000007"><a xlink:title=" ">
<path fill="none" stroke="#63b8ff" d="M1316.36,-132.63C1194.87,-127.96 942.98,-115.27 732,-85 722.14,-83.59 711.56,-81.57 701.81,-79.5"/>
<polygon fill="#63b8ff" stroke="#63b8ff" points="1316.53,-136.14 1326.65,-133.02 1316.79,-129.14 1316.53,-136.14"/>
</a>
</g>
</g>
<!-- Node8 -->
<g id="Node000008" class="node">
<title>Node8</title>
<g id="a_Node000008"><a xlink:href="cpu_8cc.html" target="_top" xlink:title=" ">
<polygon fill="white" stroke="#666666" points="871.5,-85 740.5,-85 740.5,-55 871.5,-55 871.5,-85"/>
<text text-anchor="start" x="748.5" y="-73" font-family="Helvetica,sans-Serif" font-size="10.00">src/core/cuda_wrappers</text>
<text text-anchor="middle" x="806" y="-62" font-family="Helvetica,sans-Serif" font-size="10.00">/cpu.cc</text>
</a>
</g>
</g>
<!-- Node1&#45;&gt;Node8 -->
<g id="edge7_Node000001_Node000008" class="edge">
<title>Node1&#45;&gt;Node8</title>
<g id="a_edge7_Node000001_Node000008"><a xlink:title=" ">
<path fill="none" stroke="#63b8ff" d="M1316.45,-129.84C1217.66,-122.37 1035.44,-106.97 881,-85 877.98,-84.57 874.9,-84.11 871.8,-83.61"/>
<polygon fill="#63b8ff" stroke="#63b8ff" points="1316.39,-133.35 1326.62,-130.61 1316.91,-126.37 1316.39,-133.35"/>
</a>
</g>
</g>
<!-- Node9 -->
<g id="Node000009" class="node">
<title>Node9</title>
<g id="a_Node000009"><a xlink:href="cuda_8cc.html" target="_top" xlink:title=" ">
<polygon fill="white" stroke="#666666" points="1020.5,-85 889.5,-85 889.5,-55 1020.5,-55 1020.5,-85"/>
<text text-anchor="start" x="897.5" y="-73" font-family="Helvetica,sans-Serif" font-size="10.00">src/core/cuda_wrappers</text>
<text text-anchor="middle" x="955" y="-62" font-family="Helvetica,sans-Serif" font-size="10.00">/cuda.cc</text>
</a>
</g>
</g>
<!-- Node1&#45;&gt;Node9 -->
<g id="edge8_Node000001_Node000009" class="edge">
<title>Node1&#45;&gt;Node9</title>
<g id="a_edge8_Node000001_Node000009"><a xlink:title=" ">
<path fill="none" stroke="#63b8ff" d="M1316.98,-125.96C1244.39,-116.62 1129.21,-101.16 1030,-85 1026.99,-84.51 1023.92,-84 1020.82,-83.46"/>
<polygon fill="#63b8ff" stroke="#63b8ff" points="1316.57,-129.44 1326.93,-127.24 1317.46,-122.5 1316.57,-129.44"/>
</a>
</g>
</g>
<!-- Node10 -->
<g id="Node000010" class="node">
<title>Node10</title>
<g id="a_Node000010"><a xlink:href="device_8cc.html" target="_top" xlink:title=" ">
<polygon fill="white" stroke="#666666" points="1143,-79.5 1039,-79.5 1039,-60.5 1143,-60.5 1143,-79.5"/>
<text text-anchor="middle" x="1091" y="-67.5" font-family="Helvetica,sans-Serif" font-size="10.00">src/core/device.cc</text>
</a>
</g>
</g>
<!-- Node1&#45;&gt;Node10 -->
<g id="edge9_Node000001_Node000010" class="edge">
<title>Node1&#45;&gt;Node10</title>
<g id="a_edge9_Node000001_Node000010"><a xlink:title=" ">
<path fill="none" stroke="#63b8ff" d="M1316.48,-120.05C1269.53,-110.28 1207.09,-97.13 1152,-85 1144.15,-83.27 1135.74,-81.37 1127.75,-79.54"/>
<polygon fill="#63b8ff" stroke="#63b8ff" points="1316.06,-123.53 1326.56,-122.14 1317.48,-116.68 1316.06,-123.53"/>
</a>
</g>
</g>
<!-- Node11 -->
<g id="Node000011" class="node">
<title>Node11</title>
<g id="a_Node000011"><a xlink:href="buffer_8cc.html" target="_top" xlink:title=" ">
<polygon fill="white" stroke="#666666" points="1299,-79.5 1161,-79.5 1161,-60.5 1299,-60.5 1299,-79.5"/>
<text text-anchor="middle" x="1230" y="-67.5" font-family="Helvetica,sans-Serif" font-size="10.00">src/core/helpers/buffer.cc</text>
</a>
</g>
</g>
<!-- Node1&#45;&gt;Node11 -->
<g id="edge10_Node000001_Node000011" class="edge">
<title>Node1&#45;&gt;Node11</title>
<g id="a_edge10_Node000001_Node000011"><a xlink:title=" ">
<path fill="none" stroke="#63b8ff" d="M1344.53,-117.1C1314.01,-104.82 1274.88,-89.06 1251.16,-79.52"/>
<polygon fill="#63b8ff" stroke="#63b8ff" points="1343.52,-120.47 1354.11,-120.95 1346.14,-113.97 1343.52,-120.47"/>
</a>
</g>
</g>
<!-- Node12 -->
<g id="Node000012" class="node">
<title>Node12</title>
<g id="a_Node000012"><a xlink:href="helpers_2device_8cc.html" target="_top" xlink:title=" ">
<polygon fill="white" stroke="#666666" points="1460.5,-79.5 1317.5,-79.5 1317.5,-60.5 1460.5,-60.5 1460.5,-79.5"/>
<text text-anchor="middle" x="1389" y="-67.5" font-family="Helvetica,sans-Serif" font-size="10.00">src/core/helpers/device.cc</text>
</a>
</g>
</g>
<!-- Node1&#45;&gt;Node12 -->
<g id="edge11_Node000001_Node000012" class="edge">
<title>Node1&#45;&gt;Node12</title>
<g id="a_edge11_Node000001_Node000012"><a xlink:title=" ">
<path fill="none" stroke="#63b8ff" d="M1389,-110.6C1389,-99.8 1389,-87.78 1389,-79.84"/>
<polygon fill="#63b8ff" stroke="#63b8ff" points="1385.5,-110.8 1389,-120.8 1392.5,-110.8 1385.5,-110.8"/>
</a>
</g>
</g>
<!-- Node13 -->
<g id="Node000013" class="node">
<title>Node13</title>
<g id="a_Node000013"><a xlink:href="helpers_8cc.html" target="_top" xlink:title=" ">
<polygon fill="white" stroke="#666666" points="1625,-79.5 1479,-79.5 1479,-60.5 1625,-60.5 1625,-79.5"/>
<text text-anchor="middle" x="1552" y="-67.5" font-family="Helvetica,sans-Serif" font-size="10.00">src/core/helpers/helpers.cc</text>
</a>
</g>
</g>
<!-- Node1&#45;&gt;Node13 -->
<g id="edge12_Node000001_Node000013" class="edge">
<title>Node1&#45;&gt;Node13</title>
<g id="a_edge12_Node000001_Node000013"><a xlink:title=" ">
<path fill="none" stroke="#63b8ff" d="M1434.18,-117.26C1465.53,-104.95 1505.89,-89.11 1530.31,-79.52"/>
<polygon fill="#63b8ff" stroke="#63b8ff" points="1432.8,-114.04 1424.77,-120.95 1435.36,-120.56 1432.8,-114.04"/>
</a>
</g>
</g>
<!-- Node14 -->
<g id="Node000014" class="node">
<title>Node14</title>
<g id="a_Node000014"><a xlink:href="cpufft_8cc.html" target="_top" xlink:title=" ">
<polygon fill="white" stroke="#666666" points="1780.5,-79.5 1643.5,-79.5 1643.5,-60.5 1780.5,-60.5 1780.5,-79.5"/>
<text text-anchor="middle" x="1712" y="-67.5" font-family="Helvetica,sans-Serif" font-size="10.00">src/core/kernels/cpufft.cc</text>
</a>
</g>
</g>
<!-- Node1&#45;&gt;Node14 -->
<g id="edge13_Node000001_Node000014" class="edge">
<title>Node1&#45;&gt;Node14</title>
<g id="a_edge13_Node000001_Node000014"><a xlink:title=" ">
<path fill="none" stroke="#63b8ff" d="M1461.28,-120.68C1525.09,-108.03 1615.99,-90.02 1669,-79.52"/>
<polygon fill="#63b8ff" stroke="#63b8ff" points="1460.41,-117.28 1451.28,-122.66 1461.77,-124.15 1460.41,-117.28"/>
</a>
</g>
</g>
<!-- Node15 -->
<g id="Node000015" class="node">
<title>Node15</title>
<g id="a_Node000015"><a xlink:href="cufft_8cc.html" target="_top" xlink:title=" ">
<polygon fill="white" stroke="#666666" points="1929.5,-79.5 1798.5,-79.5 1798.5,-60.5 1929.5,-60.5 1929.5,-79.5"/>
<text text-anchor="middle" x="1864" y="-67.5" font-family="Helvetica,sans-Serif" font-size="10.00">src/core/kernels/cufft.cc</text>
</a>
</g>
</g>
<!-- Node1&#45;&gt;Node15 -->
<g id="edge14_Node000001_Node000015" class="edge">
<title>Node1&#45;&gt;Node15</title>
<g id="a_edge14_Node000001_Node000015"><a xlink:title=" ">
<path fill="none" stroke="#63b8ff" d="M1461.36,-127.36C1541.81,-118.55 1675.51,-102.95 1790,-85 1800.2,-83.4 1811.16,-81.45 1821.43,-79.53"/>
<polygon fill="#63b8ff" stroke="#63b8ff" points="1460.9,-123.89 1451.34,-128.46 1461.66,-130.85 1460.9,-123.89"/>
</a>
</g>
</g>
<!-- Node16 -->
<g id="Node000016" class="node">
<title>Node16</title>
<g id="a_Node000016"><a xlink:href="heffte_8cc.html" target="_top" xlink:title=" ">
<polygon fill="white" stroke="#666666" points="2086,-79.5 1948,-79.5 1948,-60.5 2086,-60.5 2086,-79.5"/>
<text text-anchor="middle" x="2017" y="-67.5" font-family="Helvetica,sans-Serif" font-size="10.00">src/core/kernels/heffte.cc</text>
</a>
</g>
</g>
<!-- Node1&#45;&gt;Node16 -->
<g id="edge15_Node000001_Node000016" class="edge">
<title>Node1&#45;&gt;Node16</title>
<g id="a_edge15_Node000001_Node000016"><a xlink:title=" ">
<path fill="none" stroke="#63b8ff" d="M1461.26,-130.44C1566.61,-123.34 1768.42,-108.02 1939,-85 1950.18,-83.49 1962.2,-81.51 1973.38,-79.52"/>
<polygon fill="#63b8ff" stroke="#63b8ff" points="1460.8,-126.96 1451.06,-131.12 1461.27,-133.95 1460.8,-126.96"/>
</a>
</g>
</g>
<!-- Node17 -->
<g id="Node000017" class="node">
<title>Node17</title>
<g id="a_Node000017"><a xlink:href="reductions_8cu.html" target="_top" xlink:title=" ">
<polygon fill="white" stroke="#666666" points="2265.5,-79.5 2104.5,-79.5 2104.5,-60.5 2265.5,-60.5 2265.5,-79.5"/>
<text text-anchor="middle" x="2185" y="-67.5" font-family="Helvetica,sans-Serif" font-size="10.00">src/core/kernels/reductions.cu</text>
</a>
</g>
</g>
<!-- Node1&#45;&gt;Node17 -->
<g id="edge16_Node000001_Node000017" class="edge">
<title>Node1&#45;&gt;Node17</title>
<g id="a_edge16_Node000001_Node000017"><a xlink:title=" ">
<path fill="none" stroke="#63b8ff" d="M1461.08,-131.89C1589.02,-125.92 1864.08,-111.09 2095,-85 2108.04,-83.53 2122.09,-81.54 2135.11,-79.52"/>
<polygon fill="#63b8ff" stroke="#63b8ff" points="1460.84,-128.4 1451.02,-132.35 1461.17,-135.39 1460.84,-128.4"/>
</a>
</g>
</g>
<!-- Node18 -->
<g id="Node000018" class="node">
<title>Node18</title>
<g id="a_Node000018"><a xlink:href="rocfft_8cc.html" target="_top" xlink:title=" ">
<polygon fill="white" stroke="#666666" points="2418.5,-79.5 2283.5,-79.5 2283.5,-60.5 2418.5,-60.5 2418.5,-79.5"/>
<text text-anchor="middle" x="2351" y="-67.5" font-family="Helvetica,sans-Serif" font-size="10.00">src/core/kernels/rocfft.cc</text>
</a>
</g>
</g>
<!-- Node1&#45;&gt;Node18 -->
<g id="edge17_Node000001_Node000018" class="edge">
<title>Node1&#45;&gt;Node18</title>
<g id="a_edge17_Node000001_Node000018"><a xlink:title=" ">
<path fill="none" stroke="#63b8ff" d="M1461.38,-133.99C1612.87,-131.21 1974.25,-121.04 2275,-85 2286.46,-83.63 2298.79,-81.6 2310.12,-79.51"/>
<polygon fill="#63b8ff" stroke="#63b8ff" points="1461.2,-130.5 1451.27,-134.18 1461.33,-137.5 1461.2,-130.5"/>
</a>
</g>
</g>
<!-- Node19 -->
<g id="Node000019" class="node">
<title>Node19</title>
<g id="a_Node000019"><a xlink:href="transpose_8cc.html" target="_top" xlink:title=" ">
<polygon fill="white" stroke="#666666" points="2595,-79.5 2437,-79.5 2437,-60.5 2595,-60.5 2595,-79.5"/>
<text text-anchor="middle" x="2516" y="-67.5" font-family="Helvetica,sans-Serif" font-size="10.00">src/core/kernels/transpose.cc</text>
</a>
</g>
</g>
<!-- Node1&#45;&gt;Node19 -->
<g id="edge18_Node000001_Node000019" class="edge">
<title>Node1&#45;&gt;Node19</title>
<g id="a_edge18_Node000001_Node000019"><a xlink:title=" ">
<path fill="none" stroke="#63b8ff" d="M1461.29,-134.25C1630.67,-131.89 2066.24,-122.37 2428,-85 2441.23,-83.63 2455.51,-81.6 2468.63,-79.51"/>
<polygon fill="#63b8ff" stroke="#63b8ff" points="1461.2,-130.75 1451.25,-134.38 1461.29,-137.75 1461.2,-130.75"/>
</a>
</g>
</g>
<!-- Node20 -->
<g id="Node000020" class="node">
<title>Node20</title>
<g id="a_Node000020"><a xlink:href="transpose_8cu.html" target="_top" xlink:title=" ">
<polygon fill="white" stroke="#666666" points="2771,-79.5 2613,-79.5 2613,-60.5 2771,-60.5 2771,-79.5"/>
<text text-anchor="middle" x="2692" y="-67.5" font-family="Helvetica,sans-Serif" font-size="10.00">src/core/kernels/transpose.cu</text>
</a>
</g>
</g>
<!-- Node1&#45;&gt;Node20 -->
<g id="edge19_Node000001_Node000020" class="edge">
<title>Node1&#45;&gt;Node20</title>
<g id="a_edge19_Node000001_Node000020"><a xlink:title=" ">
<path fill="none" stroke="#63b8ff" d="M1461.2,-134.96C1649.66,-134.23 2171.85,-128.12 2604,-85 2617.39,-83.66 2631.85,-81.62 2645.09,-79.5"/>
<polygon fill="#63b8ff" stroke="#63b8ff" points="1461.12,-131.46 1451.14,-135 1461.15,-138.46 1461.12,-131.46"/>
</a>
</g>
</g>
<!-- Node21 -->
<g id="Node000021" class="node">
<title>Node21</title>
<g id="a_Node000021"><a xlink:href="node_8cc.html" target="_top" xlink:title="Multi&#45;GPU implementation.">
<polygon fill="white" stroke="#666666" points="2884.5,-79.5 2789.5,-79.5 2789.5,-60.5 2884.5,-60.5 2884.5,-79.5"/>
<text text-anchor="middle" x="2837" y="-67.5" font-family="Helvetica,sans-Serif" font-size="10.00">src/core/node.cc</text>
</a>
</g>
</g>
<!-- Node1&#45;&gt;Node21 -->
<g id="edge20_Node000001_Node000021" class="edge">
<title>Node1&#45;&gt;Node21</title>
<g id="a_edge20_Node000001_Node000021"><a xlink:title=" ">
<path fill="none" stroke="#63b8ff" d="M1461.68,-134.35C1709.71,-131.84 2521.64,-120.98 2780,-85 2788.98,-83.75 2798.61,-81.68 2807.35,-79.5"/>
<polygon fill="#63b8ff" stroke="#63b8ff" points="1461.31,-130.86 1451.35,-134.46 1461.38,-137.86 1461.31,-130.86"/>
</a>
</g>
</g>
<!-- Node3 -->
<g id="Node000003" class="node">
<title>Node3</title>
<g id="a_Node000003"><a xlink:href="kernels_8cu.html" target="_top" xlink:title=" ">
<polygon fill="white" stroke="#666666" points="146,-19 0,-19 0,0 146,0 146,-19"/>
<text text-anchor="middle" x="73" y="-7" font-family="Helvetica,sans-Serif" font-size="10.00">src/core/kernels/kernels.cu</text>
</a>
</g>
</g>
<!-- Node2&#45;&gt;Node3 -->
<g id="edge2_Node000002_Node000003" class="edge">
<title>Node2&#45;&gt;Node3</title>
<g id="a_edge2_Node000002_Node000003"><a xlink:title=" ">
<path fill="none" stroke="#63b8ff" d="M73,-44.75C73,-35.72 73,-26.03 73,-19.27"/>
<polygon fill="#63b8ff" stroke="#63b8ff" points="69.5,-44.84 73,-54.84 76.5,-44.84 69.5,-44.84"/>
</a>
</g>
</g>
</g>
</svg>

<g id="navigator" transform="translate(0 0)" fill="#404254">
  <rect fill="#f2f5e9" fill-opacity="0.5" stroke="#606060" stroke-width=".5" x="0" y="0" width="60" height="60"/>
  <use id="zoomplus" xlink:href="#zoomPlus" x="17" y="9" onmousedown="handleZoom(evt,'in')"/>
  <use id="zoomminus" xlink:href="#zoomMin" x="42" y="9" onmousedown="handleZoom(evt,'out')"/>
  <use id="reset" xlink:href="#resetDef" x="30" y="36" onmousedown="handleReset()"/>
   <use id="arrowup" xlink:href="#arrowUp" x="0" y="0" onmousedown="handlePan(0,-1)"/>
  <use id="arrowright" xlink:href="#arrowRight" x="0" y="0" onmousedown="handlePan(1,0)"/>
  <use id="arrowdown" xlink:href="#arrowDown" x="0" y="0" onmousedown="handlePan(0,1)"/>
  <use id="arrowleft" xlink:href="#arrowLeft" x="0" y="0" onmousedown="handlePan(-1,0)"/>
</g>
<svg viewBox="0 0 15 15" width="100%" height="30px" preserveAspectRatio="xMaxYMin meet">
 <g id="arrow_out" transform="scale(0.3 0.3)">
  <a xlink:href="astaroth__cuda__wrappers_8h__dep__incl_org.svg" target="_base">
   <rect id="button" ry="5" rx="5" y="6" x="6" height="38" width="38"
        fill="#f2f5e9" fill-opacity="0.5" stroke="#606060" stroke-width="1.0"/>
   <path id="arrow"
     d="M 11.500037,31.436501 C 11.940474,20.09759 22.043105,11.32322 32.158766,21.979434 L 37.068811,17.246167 C 37.068811,17.246167 37.088388,32 37.088388,32 L 22.160133,31.978069 C 22.160133,31.978069 26.997745,27.140456 26.997745,27.140456 C 18.528582,18.264221 13.291696,25.230495 11.500037,31.436501 z"
     style="fill:#404040;"/>
  </a>
 </g>
</svg>

<style type='text/css'>
<![CDATA[
[data-mouse-over-selected='false'] { opacity: 0.7; }
[data-mouse-over-selected='true']  { opacity: 1.0; }
]]>
</style>
<script type="application/ecmascript"><![CDATA[
document.addEventListener('DOMContentLoaded', (event) => {
  highlightEdges();
  highlightAdjacentNodes();
});
]]></script>
</svg>
