<?xml version="1.0" encoding="UTF-8" standalone="no"?>
<!DOCTYPE svg PUBLIC "-//W3C//DTD SVG 1.1//EN"
 "http://www.w3.org/Graphics/SVG/1.1/DTD/svg11.dtd">
<!-- Generated by graphviz version 2.43.0 (0)
 -->
<!-- Title: include/astaroth_lib.h Pages: 1 -->
<svg width="6284pt" height="159pt"
 viewBox="0.00 0.00 6284.00 159.00" xmlns="http://www.w3.org/2000/svg" xmlns:xlink="http://www.w3.org/1999/xlink">
<g id="graph0" class="graph" transform="scale(1 1) rotate(0) translate(4 155)">
<title>include/astaroth_lib.h</title>
<!-- Node1 -->
<g id="Node000001" class="node">
<title>Node1</title>
<g id="a_Node000001"><a xlink:title=" ">
<polygon fill="#999999" stroke="#666666" points="3122,-151 3000,-151 3000,-132 3122,-132 3122,-151"/>
<text text-anchor="middle" x="3061" y="-139" font-family="Helvetica,sans-Serif" font-size="10.00">include/astaroth_lib.h</text>
</a>
</g>
</g>
<!-- Node2 -->
<g id="Node000002" class="node">
<title>Node2</title>
<g id="a_Node000002"><a xlink:href="astaroth__utils_8h.html" target="_top" xlink:title="Functions for loading and updating AcMeshInfo.">
<polygon fill="white" stroke="#666666" points="3126.5,-96 2995.5,-96 2995.5,-77 3126.5,-77 3126.5,-96"/>
<text text-anchor="middle" x="3061" y="-84" font-family="Helvetica,sans-Serif" font-size="10.00">include/astaroth_utils.h</text>
</a>
</g>
</g>
<!-- Node1&#45;&gt;Node2 -->
<g id="edge1_Node000001_Node000002" class="edge">
<title>Node1&#45;&gt;Node2</title>
<g id="a_edge1_Node000001_Node000002"><a xlink:title=" ">
<path fill="none" stroke="#63b8ff" d="M3061,-121.66C3061,-112.93 3061,-102.99 3061,-96.09"/>
<polygon fill="#63b8ff" stroke="#63b8ff" points="3057.5,-121.75 3061,-131.75 3064.5,-121.75 3057.5,-121.75"/>
</a>
</g>
</g>
<!-- Node3 -->
<g id="Node000003" class="node">
<title>Node3</title>
<g id="a_Node000003"><a xlink:href="config__loader_8cc.html" target="_top" xlink:title="Brief info.">
<polygon fill="white" stroke="#666666" points="136,-30 0,-30 0,-11 136,-11 136,-30"/>
<text text-anchor="middle" x="68" y="-18" font-family="Helvetica,sans-Serif" font-size="10.00">src/utils/config_loader.cc</text>
</a>
</g>
</g>
<!-- Node2&#45;&gt;Node3 -->
<g id="edge2_Node000002_Node000003" class="edge">
<title>Node2&#45;&gt;Node3</title>
<g id="a_edge2_Node000002_Node000003"><a xlink:title=" ">
<path fill="none" stroke="#63b8ff" d="M2985.15,-85.4C2555.23,-84.68 433.46,-79.2 145,-41 128.18,-38.77 109.75,-34.18 95.14,-30.02"/>
<polygon fill="#63b8ff" stroke="#63b8ff" points="2985.28,-88.9 2995.29,-85.41 2985.29,-81.9 2985.28,-88.9"/>
</a>
</g>
</g>
<!-- Node4 -->
<g id="Node000004" class="node">
<title>Node4</title>
<g id="a_Node000004"><a xlink:href="memory_8cc.html" target="_top" xlink:title=" ">
<polygon fill="white" stroke="#666666" points="265.5,-30 154.5,-30 154.5,-11 265.5,-11 265.5,-30"/>
<text text-anchor="middle" x="210" y="-18" font-family="Helvetica,sans-Serif" font-size="10.00">src/utils/memory.cc</text>
</a>
</g>
</g>
<!-- Node2&#45;&gt;Node4 -->
<g id="edge3_Node000002_Node000004" class="edge">
<title>Node2&#45;&gt;Node4</title>
<g id="a_edge3_Node000002_Node000004"><a xlink:title=" ">
<path fill="none" stroke="#63b8ff" d="M2985.14,-85.55C2566.57,-85.68 548,-84.06 274,-41 259.89,-38.78 244.56,-34.19 232.45,-30.03"/>
<polygon fill="#63b8ff" stroke="#63b8ff" points="2985.32,-89.05 2995.32,-85.55 2985.32,-82.05 2985.32,-89.05"/>
</a>
</g>
</g>
<!-- Node5 -->
<g id="Node000005" class="node">
<title>Node5</title>
<g id="a_Node000005"><a xlink:href="modelreduce_8cc.html" target="_top" xlink:title="Brief info.">
<polygon fill="white" stroke="#666666" points="418.5,-30 283.5,-30 283.5,-11 418.5,-11 418.5,-30"/>
<text text-anchor="middle" x="351" y="-18" font-family="Helvetica,sans-Serif" font-size="10.00">src/utils/modelreduce.cc</text>
</a>
</g>
</g>
<!-- Node2&#45;&gt;Node5 -->
<g id="edge4_Node000002_Node000005" class="edge">
<title>Node2&#45;&gt;Node5</title>
<g id="a_edge4_Node000002_Node000005"><a xlink:title=" ">
<path fill="none" stroke="#63b8ff" d="M2985.17,-85.26C2580.79,-83.86 686.84,-75.49 428,-41 411.19,-38.76 392.75,-34.17 378.14,-30.01"/>
<polygon fill="#63b8ff" stroke="#63b8ff" points="2985.28,-88.76 2995.29,-85.3 2985.31,-81.76 2985.28,-88.76"/>
</a>
</g>
</g>
<!-- Node6 -->
<g id="Node000006" class="node">
<title>Node6</title>
<g id="a_Node000006"><a xlink:href="modelsolver-legacy-do-not-modify_8c.html" target="_top" xlink:title=" ">
<polygon fill="white" stroke="#666666" points="569,-35.5 437,-35.5 437,-5.5 569,-5.5 569,-35.5"/>
<text text-anchor="start" x="445" y="-23.5" font-family="Helvetica,sans-Serif" font-size="10.00">src/utils/modelsolver</text>
<text text-anchor="middle" x="503" y="-12.5" font-family="Helvetica,sans-Serif" font-size="10.00">&#45;legacy&#45;do&#45;not&#45;modify.c</text>
</a>
</g>
</g>
<!-- Node2&#45;&gt;Node6 -->
<g id="edge5_Node000002_Node000006" class="edge">
<title>Node2&#45;&gt;Node6</title>
<g id="a_edge5_Node000002_Node000006"><a xlink:title=" ">
<path fill="none" stroke="#63b8ff" d="M2985.43,-85.21C2595.64,-83.57 821.13,-74.31 578,-41 568.94,-39.76 559.4,-37.8 550.27,-35.59"/>
<polygon fill="#63b8ff" stroke="#63b8ff" points="2985.46,-88.71 2995.47,-85.25 2985.49,-81.71 2985.46,-88.71"/>
</a>
</g>
</g>
<!-- Node7 -->
<g id="Node000007" class="node">
<title>Node7</title>
<g id="a_Node000007"><a xlink:href="modelsolver_8cc.html" target="_top" xlink:title="Brief info.">
<polygon fill="white" stroke="#666666" points="718.5,-30 587.5,-30 587.5,-11 718.5,-11 718.5,-30"/>
<text text-anchor="middle" x="653" y="-18" font-family="Helvetica,sans-Serif" font-size="10.00">src/utils/modelsolver.cc</text>
</a>
</g>
</g>
<!-- Node2&#45;&gt;Node7 -->
<g id="edge6_Node000002_Node000007" class="edge">
<title>Node2&#45;&gt;Node7</title>
<g id="a_edge6_Node000002_Node000007"><a xlink:title=" ">
<path fill="none" stroke="#63b8ff" d="M2985.2,-85.11C2609.44,-83.06 955.44,-72.29 728,-41 711.74,-38.76 693.94,-34.23 679.77,-30.1"/>
<polygon fill="#63b8ff" stroke="#63b8ff" points="2985.4,-88.62 2995.42,-85.17 2985.44,-81.62 2985.4,-88.62"/>
</a>
</g>
</g>
<!-- Node8 -->
<g id="Node000008" class="node">
<title>Node8</title>
<g id="a_Node000008"><a xlink:href="verification_8cc.html" target="_top" xlink:title=" ">
<polygon fill="white" stroke="#666666" points="863,-30 737,-30 737,-11 863,-11 863,-30"/>
<text text-anchor="middle" x="800" y="-18" font-family="Helvetica,sans-Serif" font-size="10.00">src/utils/verification.cc</text>
</a>
</g>
</g>
<!-- Node2&#45;&gt;Node8 -->
<g id="edge7_Node000002_Node000008" class="edge">
<title>Node2&#45;&gt;Node8</title>
<g id="a_edge7_Node000002_Node000008"><a xlink:title=" ">
<path fill="none" stroke="#63b8ff" d="M2985.21,-85.06C2623.82,-82.8 1084.31,-71.44 872,-41 856.36,-38.76 839.28,-34.22 825.67,-30.09"/>
<polygon fill="#63b8ff" stroke="#63b8ff" points="2985.28,-88.56 2995.3,-85.12 2985.33,-81.56 2985.28,-88.56"/>
</a>
</g>
</g>
<!-- Node9 -->
<g id="Node000009" class="node">
<title>Node9</title>
<g id="a_Node000009"><a xlink:href="1d-test_2main_8cc.html" target="_top" xlink:title=" ">
<polygon fill="white" stroke="#666666" points="995,-30 881,-30 881,-11 995,-11 995,-30"/>
<text text-anchor="middle" x="938" y="-18" font-family="Helvetica,sans-Serif" font-size="10.00">test/1d&#45;test/main.cc</text>
</a>
</g>
</g>
<!-- Node2&#45;&gt;Node9 -->
<g id="edge8_Node000002_Node000009" class="edge">
<title>Node2&#45;&gt;Node9</title>
<g id="a_edge8_Node000002_Node000009"><a xlink:title=" ">
<path fill="none" stroke="#63b8ff" d="M2985,-85.05C2636.8,-82.83 1202.24,-71.87 1004,-41 989.6,-38.76 973.93,-34.22 961.48,-30.09"/>
<polygon fill="#63b8ff" stroke="#63b8ff" points="2985.21,-88.55 2995.23,-85.12 2985.25,-81.55 2985.21,-88.55"/>
</a>
</g>
</g>
<!-- Node10 -->
<g id="Node000010" class="node">
<title>Node10</title>
<g id="a_Node000010"><a xlink:href="2d-test_2main_8cc.html" target="_top" xlink:title=" ">
<polygon fill="white" stroke="#666666" points="1127,-30 1013,-30 1013,-11 1127,-11 1127,-30"/>
<text text-anchor="middle" x="1070" y="-18" font-family="Helvetica,sans-Serif" font-size="10.00">test/2d&#45;test/main.cc</text>
</a>
</g>
</g>
<!-- Node2&#45;&gt;Node10 -->
<g id="edge9_Node000002_Node000010" class="edge">
<title>Node2&#45;&gt;Node10</title>
<g id="a_edge9_Node000002_Node000010"><a xlink:title=" ">
<path fill="none" stroke="#63b8ff" d="M2985.27,-84.93C2651.55,-82.26 1320.64,-69.89 1136,-41 1121.6,-38.75 1105.93,-34.21 1093.48,-30.08"/>
<polygon fill="#63b8ff" stroke="#63b8ff" points="2985.29,-88.43 2995.31,-85.01 2985.34,-81.43 2985.29,-88.43"/>
</a>
</g>
</g>
<!-- Node11 -->
<g id="Node000011" class="node">
<title>Node11</title>
<g id="a_Node000011"><a xlink:href="arr-test_2main_8cc.html" target="_top" xlink:title=" ">
<polygon fill="white" stroke="#666666" points="1261,-30 1145,-30 1145,-11 1261,-11 1261,-30"/>
<text text-anchor="middle" x="1203" y="-18" font-family="Helvetica,sans-Serif" font-size="10.00">test/arr&#45;test/main.cc</text>
</a>
</g>
</g>
<!-- Node2&#45;&gt;Node11 -->
<g id="edge10_Node000002_Node000011" class="edge">
<title>Node2&#45;&gt;Node11</title>
<g id="a_edge10_Node000002_Node000011"><a xlink:title=" ">
<path fill="none" stroke="#63b8ff" d="M2985.36,-84.77C2666.55,-81.55 1440.89,-67.53 1270,-41 1255.4,-38.73 1239.49,-34.2 1226.85,-30.07"/>
<polygon fill="#63b8ff" stroke="#63b8ff" points="2985.39,-88.27 2995.42,-84.87 2985.46,-81.27 2985.39,-88.27"/>
</a>
</g>
</g>
<!-- Node12 -->
<g id="Node000012" class="node">
<title>Node12</title>
<g id="a_Node000012"><a xlink:href="average-stencil_2main_8cc.html" target="_top" xlink:title=" ">
<polygon fill="white" stroke="#666666" points="1393,-35.5 1279,-35.5 1279,-5.5 1393,-5.5 1393,-35.5"/>
<text text-anchor="start" x="1287" y="-23.5" font-family="Helvetica,sans-Serif" font-size="10.00">test/average&#45;stencil</text>
<text text-anchor="middle" x="1336" y="-12.5" font-family="Helvetica,sans-Serif" font-size="10.00">/main.cc</text>
</a>
</g>
</g>
<!-- Node2&#45;&gt;Node12 -->
<g id="edge11_Node000002_Node000012" class="edge">
<title>Node2&#45;&gt;Node12</title>
<g id="a_edge11_Node000002_Node000012"><a xlink:title=" ">
<path fill="none" stroke="#63b8ff" d="M2985.22,-84.63C2681.27,-80.97 1559.22,-65.9 1402,-41 1393.98,-39.73 1385.56,-37.76 1377.52,-35.55"/>
<polygon fill="#63b8ff" stroke="#63b8ff" points="2985.22,-88.13 2995.26,-84.75 2985.31,-81.13 2985.22,-88.13"/>
</a>
</g>
</g>
<!-- Node13 -->
<g id="Node000013" class="node">
<title>Node13</title>
<g id="a_Node000013"><a xlink:href="bicgstab-test_2main_8cc.html" target="_top" xlink:title=" ">
<polygon fill="white" stroke="#666666" points="1513,-35.5 1411,-35.5 1411,-5.5 1513,-5.5 1513,-35.5"/>
<text text-anchor="start" x="1419" y="-23.5" font-family="Helvetica,sans-Serif" font-size="10.00">test/bicgstab&#45;test</text>
<text text-anchor="middle" x="1462" y="-12.5" font-family="Helvetica,sans-Serif" font-size="10.00">/main.cc</text>
</a>
</g>
</g>
<!-- Node2&#45;&gt;Node13 -->
<g id="edge12_Node000002_Node000013" class="edge">
<title>Node2&#45;&gt;Node13</title>
<g id="a_edge12_Node000002_Node000013"><a xlink:title=" ">
<path fill="none" stroke="#63b8ff" d="M2985.03,-84.57C2694.99,-80.86 1666.55,-66.05 1522,-41 1514.66,-39.73 1506.99,-37.76 1499.68,-35.55"/>
<polygon fill="#63b8ff" stroke="#63b8ff" points="2985.39,-88.08 2995.44,-84.71 2985.48,-81.08 2985.39,-88.08"/>
</a>
</g>
</g>
<!-- Node14 -->
<g id="Node000014" class="node">
<title>Node14</title>
<g id="a_Node000014"><a xlink:href="boundary-halo-exchange-test_2main_8cc.html" target="_top" xlink:title=" ">
<polygon fill="white" stroke="#666666" points="1662.5,-35.5 1531.5,-35.5 1531.5,-5.5 1662.5,-5.5 1662.5,-35.5"/>
<text text-anchor="start" x="1539.5" y="-23.5" font-family="Helvetica,sans-Serif" font-size="10.00">test/boundary&#45;halo</text>
<text text-anchor="middle" x="1597" y="-12.5" font-family="Helvetica,sans-Serif" font-size="10.00">&#45;exchange&#45;test/main.cc</text>
</a>
</g>
</g>
<!-- Node2&#45;&gt;Node14 -->
<g id="edge13_Node000002_Node000014" class="edge">
<title>Node2&#45;&gt;Node14</title>
<g id="a_edge13_Node000002_Node000014"><a xlink:title=" ">
<path fill="none" stroke="#63b8ff" d="M2985.29,-85.32C2733.83,-84.39 1927.86,-78.46 1671,-41 1662.19,-39.72 1652.93,-37.77 1644.04,-35.59"/>
<polygon fill="#63b8ff" stroke="#63b8ff" points="2985.41,-88.82 2995.43,-85.36 2985.44,-81.82 2985.41,-88.82"/>
</a>
</g>
</g>
<!-- Node15 -->
<g id="Node000015" class="node">
<title>Node15</title>
<g id="a_Node000015"><a xlink:href="cg-test_2main_8cc.html" target="_top" xlink:title=" ">
<polygon fill="white" stroke="#666666" points="1793.5,-30 1680.5,-30 1680.5,-11 1793.5,-11 1793.5,-30"/>
<text text-anchor="middle" x="1737" y="-18" font-family="Helvetica,sans-Serif" font-size="10.00">test/cg&#45;test/main.cc</text>
</a>
</g>
</g>
<!-- Node2&#45;&gt;Node15 -->
<g id="edge14_Node000002_Node000015" class="edge">
<title>Node2&#45;&gt;Node15</title>
<g id="a_edge14_Node000002_Node000015"><a xlink:title=" ">
<path fill="none" stroke="#63b8ff" d="M2984.94,-85.32C2749.12,-84.35 2032.41,-78.33 1803,-41 1788.61,-38.66 1772.95,-34.12 1760.49,-30.01"/>
<polygon fill="#63b8ff" stroke="#63b8ff" points="2985.12,-88.82 2995.13,-85.36 2985.15,-81.82 2985.12,-88.82"/>
</a>
</g>
</g>
<!-- Node16 -->
<g id="Node000016" class="node">
<title>Node16</title>
<g id="a_Node000016"><a xlink:href="compact-poisson-test_2main_8cc.html" target="_top" xlink:title=" ">
<polygon fill="white" stroke="#666666" points="1934,-35.5 1812,-35.5 1812,-5.5 1934,-5.5 1934,-35.5"/>
<text text-anchor="start" x="1820" y="-23.5" font-family="Helvetica,sans-Serif" font-size="10.00">test/compact&#45;poisson</text>
<text text-anchor="middle" x="1873" y="-12.5" font-family="Helvetica,sans-Serif" font-size="10.00">&#45;test/main.cc</text>
</a>
</g>
</g>
<!-- Node2&#45;&gt;Node16 -->
<g id="edge15_Node000002_Node000016" class="edge">
<title>Node2&#45;&gt;Node16</title>
<g id="a_edge15_Node000002_Node000016"><a xlink:title=" ">
<path fill="none" stroke="#63b8ff" d="M2985.32,-84.77C2767.97,-82.32 2144.53,-72.64 1943,-41 1934.65,-39.69 1925.88,-37.73 1917.47,-35.55"/>
<polygon fill="#63b8ff" stroke="#63b8ff" points="2985.33,-88.27 2995.36,-84.88 2985.4,-81.27 2985.33,-88.27"/>
</a>
</g>
</g>
<!-- Node17 -->
<g id="Node000017" class="node">
<title>Node17</title>
<g id="a_Node000017"><a xlink:href="constant-values_2main_8cc.html" target="_top" xlink:title=" ">
<polygon fill="white" stroke="#666666" points="2068,-35.5 1952,-35.5 1952,-5.5 2068,-5.5 2068,-35.5"/>
<text text-anchor="start" x="1960" y="-23.5" font-family="Helvetica,sans-Serif" font-size="10.00">test/constant&#45;values</text>
<text text-anchor="middle" x="2010" y="-12.5" font-family="Helvetica,sans-Serif" font-size="10.00">/main.cc</text>
</a>
</g>
</g>
<!-- Node2&#45;&gt;Node17 -->
<g id="edge16_Node000002_Node000017" class="edge">
<title>Node2&#45;&gt;Node17</title>
<g id="a_edge16_Node000002_Node000017"><a xlink:title=" ">
<path fill="none" stroke="#63b8ff" d="M2985.21,-84.4C2786.07,-81.15 2251.43,-69.9 2077,-41 2068.99,-39.67 2060.59,-37.71 2052.54,-35.52"/>
<polygon fill="#63b8ff" stroke="#63b8ff" points="2985.23,-87.9 2995.29,-84.57 2985.34,-80.9 2985.23,-87.9"/>
</a>
</g>
</g>
<!-- Node18 -->
<g id="Node000018" class="node">
<title>Node18</title>
<g id="a_Node000018"><a xlink:href="main_8cu.html" target="_top" xlink:title=" ">
<polygon fill="white" stroke="#666666" points="2182,-35.5 2086,-35.5 2086,-5.5 2182,-5.5 2182,-35.5"/>
<text text-anchor="start" x="2094" y="-23.5" font-family="Helvetica,sans-Serif" font-size="10.00">test/fft&#45;shift&#45;test</text>
<text text-anchor="middle" x="2134" y="-12.5" font-family="Helvetica,sans-Serif" font-size="10.00">/main.cu</text>
</a>
</g>
</g>
<!-- Node2&#45;&gt;Node18 -->
<g id="edge17_Node000002_Node000018" class="edge">
<title>Node2&#45;&gt;Node18</title>
<g id="a_edge17_Node000002_Node000018"><a xlink:title=" ">
<path fill="none" stroke="#63b8ff" d="M2985.38,-84.33C2802.85,-81.07 2342.13,-70.12 2191,-41 2184.12,-39.67 2176.94,-37.71 2170.08,-35.52"/>
<polygon fill="#63b8ff" stroke="#63b8ff" points="2985.37,-87.83 2995.43,-84.51 2985.49,-80.83 2985.37,-87.83"/>
</a>
</g>
</g>
<!-- Node19 -->
<g id="Node000019" class="node">
<title>Node19</title>
<g id="a_Node000019"><a xlink:href="fft-test_2main_8cc.html" target="_top" xlink:title=" ">
<polygon fill="white" stroke="#666666" points="2313.5,-30 2200.5,-30 2200.5,-11 2313.5,-11 2313.5,-30"/>
<text text-anchor="middle" x="2257" y="-18" font-family="Helvetica,sans-Serif" font-size="10.00">test/fft&#45;test/main.cc</text>
</a>
</g>
</g>
<!-- Node2&#45;&gt;Node19 -->
<g id="edge18_Node000002_Node000019" class="edge">
<title>Node2&#45;&gt;Node19</title>
<g id="a_edge18_Node000002_Node000019"><a xlink:title=" ">
<path fill="none" stroke="#63b8ff" d="M2984.95,-83.15C2822.79,-77.78 2447.61,-63.31 2322,-41 2308.08,-38.53 2292.93,-34.09 2280.76,-30.07"/>
<polygon fill="#63b8ff" stroke="#63b8ff" points="2985.21,-86.66 2995.32,-83.49 2985.44,-79.67 2985.21,-86.66"/>
</a>
</g>
</g>
<!-- Node20 -->
<g id="Node000020" class="node">
<title>Node20</title>
<g id="a_Node000020"><a xlink:href="field-arr-test_2main_8cc.html" target="_top" xlink:title=" ">
<polygon fill="white" stroke="#666666" points="2430.5,-35.5 2331.5,-35.5 2331.5,-5.5 2430.5,-5.5 2430.5,-35.5"/>
<text text-anchor="start" x="2339.5" y="-23.5" font-family="Helvetica,sans-Serif" font-size="10.00">test/field&#45;arr&#45;test</text>
<text text-anchor="middle" x="2381" y="-12.5" font-family="Helvetica,sans-Serif" font-size="10.00">/main.cc</text>
</a>
</g>
</g>
<!-- Node2&#45;&gt;Node20 -->
<g id="edge19_Node000002_Node000020" class="edge">
<title>Node2&#45;&gt;Node20</title>
<g id="a_edge19_Node000002_Node000020"><a xlink:title=" ">
<path fill="none" stroke="#63b8ff" d="M2985.13,-86.07C2867.32,-85.62 2633.76,-79.34 2440,-41 2433.12,-39.64 2425.93,-37.71 2419.03,-35.59"/>
<polygon fill="#63b8ff" stroke="#63b8ff" points="2985.47,-89.57 2995.48,-86.1 2985.49,-82.57 2985.47,-89.57"/>
</a>
</g>
</g>
<!-- Node21 -->
<g id="Node000021" class="node">
<title>Node21</title>
<g id="a_Node000021"><a xlink:href="grid-calculation_2main_8cc.html" target="_top" xlink:title=" ">
<polygon fill="white" stroke="#666666" points="2563,-35.5 2449,-35.5 2449,-5.5 2563,-5.5 2563,-35.5"/>
<text text-anchor="start" x="2457" y="-23.5" font-family="Helvetica,sans-Serif" font-size="10.00">test/grid&#45;calculation</text>
<text text-anchor="middle" x="2506" y="-12.5" font-family="Helvetica,sans-Serif" font-size="10.00">/main.cc</text>
</a>
</g>
</g>
<!-- Node2&#45;&gt;Node21 -->
<g id="edge20_Node000002_Node000021" class="edge">
<title>Node2&#45;&gt;Node21</title>
<g id="a_edge20_Node000002_Node000021"><a xlink:title=" ">
<path fill="none" stroke="#63b8ff" d="M2984.91,-83.2C2888.18,-79.22 2716.4,-68.62 2572,-41 2564.49,-39.56 2556.61,-37.63 2549.01,-35.53"/>
<polygon fill="#63b8ff" stroke="#63b8ff" points="2985.04,-86.71 2995.18,-83.61 2985.32,-79.72 2985.04,-86.71"/>
</a>
</g>
</g>
<!-- Node22 -->
<g id="Node000022" class="node">
<title>Node22</title>
<g id="a_Node000022"><a xlink:href="inplace__gaussian-test_2main_8cc.html" target="_top" xlink:title=" ">
<polygon fill="white" stroke="#666666" points="2703,-35.5 2581,-35.5 2581,-5.5 2703,-5.5 2703,-35.5"/>
<text text-anchor="start" x="2589" y="-23.5" font-family="Helvetica,sans-Serif" font-size="10.00">test/inplace_gaussian</text>
<text text-anchor="middle" x="2642" y="-12.5" font-family="Helvetica,sans-Serif" font-size="10.00">&#45;test/main.cc</text>
</a>
</g>
</g>
<!-- Node2&#45;&gt;Node22 -->
<g id="edge21_Node000002_Node000022" class="edge">
<title>Node2&#45;&gt;Node22</title>
<g id="a_edge21_Node000002_Node000022"><a xlink:title=" ">
<path fill="none" stroke="#63b8ff" d="M2985.05,-79.02C2914,-72.2 2805.16,-59.81 2712,-41 2704.46,-39.48 2696.53,-37.57 2688.84,-35.55"/>
<polygon fill="#63b8ff" stroke="#63b8ff" points="2984.97,-82.52 2995.25,-79.98 2985.63,-75.55 2984.97,-82.52"/>
</a>
</g>
</g>
<!-- Node23 -->
<g id="Node000023" class="node">
<title>Node23</title>
<g id="a_Node000023"><a xlink:href="iterative-refinement-test_2main_8cc.html" target="_top" xlink:title=" ">
<polygon fill="white" stroke="#666666" points="2858.5,-35.5 2721.5,-35.5 2721.5,-5.5 2858.5,-5.5 2858.5,-35.5"/>
<text text-anchor="start" x="2729.5" y="-23.5" font-family="Helvetica,sans-Serif" font-size="10.00">test/iterative&#45;refinement</text>
<text text-anchor="middle" x="2790" y="-12.5" font-family="Helvetica,sans-Serif" font-size="10.00">&#45;test/main.cc</text>
</a>
</g>
</g>
<!-- Node2&#45;&gt;Node23 -->
<g id="edge22_Node000002_Node000023" class="edge">
<title>Node2&#45;&gt;Node23</title>
<g id="a_edge22_Node000002_Node000023"><a xlink:title=" ">
<path fill="none" stroke="#63b8ff" d="M3012.83,-74.65C2973.75,-65.79 2917.26,-52.84 2868,-41 2860.81,-39.27 2853.25,-37.42 2845.79,-35.58"/>
<polygon fill="#63b8ff" stroke="#63b8ff" points="3012.34,-78.13 3022.87,-76.92 3013.89,-71.3 3012.34,-78.13"/>
</a>
</g>
</g>
<!-- Node24 -->
<g id="Node000024" class="node">
<title>Node24</title>
<g id="a_Node000024"><a xlink:href="kernel-fusion-test_2main_8cc.html" target="_top" xlink:title=" ">
<polygon fill="white" stroke="#666666" points="2979,-35.5 2877,-35.5 2877,-5.5 2979,-5.5 2979,-35.5"/>
<text text-anchor="start" x="2885" y="-23.5" font-family="Helvetica,sans-Serif" font-size="10.00">test/kernel&#45;fusion</text>
<text text-anchor="middle" x="2928" y="-12.5" font-family="Helvetica,sans-Serif" font-size="10.00">&#45;test/main.cc</text>
</a>
</g>
</g>
<!-- Node2&#45;&gt;Node24 -->
<g id="edge23_Node000002_Node000024" class="edge">
<title>Node2&#45;&gt;Node24</title>
<g id="a_edge23_Node000002_Node000024"><a xlink:title=" ">
<path fill="none" stroke="#63b8ff" d="M3033.84,-72.43C3011.59,-61.72 2980.16,-46.6 2957.33,-35.62"/>
<polygon fill="#63b8ff" stroke="#63b8ff" points="3032.53,-75.69 3043.06,-76.87 3035.57,-69.38 3032.53,-75.69"/>
</a>
</g>
</g>
<!-- Node25 -->
<g id="Node000025" class="node">
<title>Node25</title>
<g id="a_Node000025"><a xlink:href="mpi-profile-reduce_2main_8cc.html" target="_top" xlink:title=" ">
<polygon fill="white" stroke="#666666" points="3125,-35.5 2997,-35.5 2997,-5.5 3125,-5.5 3125,-35.5"/>
<text text-anchor="start" x="3005" y="-23.5" font-family="Helvetica,sans-Serif" font-size="10.00">test/mpi&#45;profile&#45;reduce</text>
<text text-anchor="middle" x="3061" y="-12.5" font-family="Helvetica,sans-Serif" font-size="10.00">/main.cc</text>
</a>
</g>
</g>
<!-- Node2&#45;&gt;Node25 -->
<g id="edge24_Node000002_Node000025" class="edge">
<title>Node2&#45;&gt;Node25</title>
<g id="a_edge24_Node000002_Node000025"><a xlink:title=" ">
<path fill="none" stroke="#63b8ff" d="M3061,-66.85C3061,-56.97 3061,-45.01 3061,-35.86"/>
<polygon fill="#63b8ff" stroke="#63b8ff" points="3057.5,-66.87 3061,-76.87 3064.5,-66.87 3057.5,-66.87"/>
</a>
</g>
</g>
<!-- Node26 -->
<g id="Node000026" class="node">
<title>Node26</title>
<g id="a_Node000026"><a xlink:href="multigrid-tests_2anisotropic-test_2main_8cc.html" target="_top" xlink:title=" ">
<polygon fill="white" stroke="#666666" points="3280.5,-35.5 3143.5,-35.5 3143.5,-5.5 3280.5,-5.5 3280.5,-35.5"/>
<text text-anchor="start" x="3151.5" y="-23.5" font-family="Helvetica,sans-Serif" font-size="10.00">test/multigrid&#45;tests</text>
<text text-anchor="middle" x="3212" y="-12.5" font-family="Helvetica,sans-Serif" font-size="10.00">/anisotropic&#45;test/main.cc</text>
</a>
</g>
</g>
<!-- Node2&#45;&gt;Node26 -->
<g id="edge25_Node000002_Node000026" class="edge">
<title>Node2&#45;&gt;Node26</title>
<g id="a_edge25_Node000002_Node000026"><a xlink:title=" ">
<path fill="none" stroke="#63b8ff" d="M3090.82,-72.86C3116.13,-62.13 3152.43,-46.75 3178.7,-35.62"/>
<polygon fill="#63b8ff" stroke="#63b8ff" points="3089.21,-69.74 3081.36,-76.87 3091.94,-76.19 3089.21,-69.74"/>
</a>
</g>
</g>
<!-- Node27 -->
<g id="Node000027" class="node">
<title>Node27</title>
<g id="a_Node000027"><a xlink:href="multigrid-tests_2compact-stencil-multigrid-test_2main_8cc.html" target="_top" xlink:title=" ">
<polygon fill="white" stroke="#666666" points="3445,-41 3299,-41 3299,0 3445,0 3445,-41"/>
<text text-anchor="start" x="3307" y="-29" font-family="Helvetica,sans-Serif" font-size="10.00">test/multigrid&#45;tests</text>
<text text-anchor="start" x="3307" y="-18" font-family="Helvetica,sans-Serif" font-size="10.00">/compact&#45;stencil&#45;multigrid</text>
<text text-anchor="middle" x="3372" y="-7" font-family="Helvetica,sans-Serif" font-size="10.00">&#45;test/main.cc</text>
</a>
</g>
</g>
<!-- Node2&#45;&gt;Node27 -->
<g id="edge26_Node000002_Node000027" class="edge">
<title>Node2&#45;&gt;Node27</title>
<g id="a_edge26_Node000002_Node000027"><a xlink:title=" ">
<path fill="none" stroke="#63b8ff" d="M3117.91,-75.12C3164.33,-66.49 3231.54,-53.62 3290,-41 3292.86,-40.38 3295.77,-39.74 3298.72,-39.09"/>
<polygon fill="#63b8ff" stroke="#63b8ff" points="3117.24,-71.69 3108.04,-76.95 3118.52,-78.57 3117.24,-71.69"/>
</a>
</g>
</g>
<!-- Node28 -->
<g id="Node000028" class="node">
<title>Node28</title>
<g id="a_Node000028"><a xlink:href="multigrid-tests_2line-smoother-multigrid-test_2main_8cc.html" target="_top" xlink:title=" ">
<polygon fill="white" stroke="#666666" points="3599,-41 3463,-41 3463,0 3599,0 3599,-41"/>
<text text-anchor="start" x="3471" y="-29" font-family="Helvetica,sans-Serif" font-size="10.00">test/multigrid&#45;tests</text>
<text text-anchor="start" x="3471" y="-18" font-family="Helvetica,sans-Serif" font-size="10.00">/line&#45;smoother&#45;multigrid</text>
<text text-anchor="middle" x="3531" y="-7" font-family="Helvetica,sans-Serif" font-size="10.00">&#45;test/main.cc</text>
</a>
</g>
</g>
<!-- Node2&#45;&gt;Node28 -->
<g id="edge27_Node000002_Node000028" class="edge">
<title>Node2&#45;&gt;Node28</title>
<g id="a_edge27_Node000002_Node000028"><a xlink:title=" ">
<path fill="none" stroke="#63b8ff" d="M3137.17,-79.95C3216.67,-73.44 3344.74,-60.93 3454,-41 3456.85,-40.48 3459.75,-39.91 3462.67,-39.31"/>
<polygon fill="#63b8ff" stroke="#63b8ff" points="3136.45,-76.49 3126.76,-80.79 3137.01,-83.47 3136.45,-76.49"/>
</a>
</g>
</g>
<!-- Node29 -->
<g id="Node000029" class="node">
<title>Node29</title>
<g id="a_Node000029"><a xlink:href="multigrid-tests_2multigrid-test_2main_8cc.html" target="_top" xlink:title=" ">
<polygon fill="white" stroke="#666666" points="3745,-35.5 3617,-35.5 3617,-5.5 3745,-5.5 3745,-35.5"/>
<text text-anchor="start" x="3625" y="-23.5" font-family="Helvetica,sans-Serif" font-size="10.00">test/multigrid&#45;tests</text>
<text text-anchor="middle" x="3681" y="-12.5" font-family="Helvetica,sans-Serif" font-size="10.00">/multigrid&#45;test/main.cc</text>
</a>
</g>
</g>
<!-- Node2&#45;&gt;Node29 -->
<g id="edge28_Node000002_Node000029" class="edge">
<title>Node2&#45;&gt;Node29</title>
<g id="a_edge28_Node000002_Node000029"><a xlink:title=" ">
<path fill="none" stroke="#63b8ff" d="M3137.03,-83.63C3243.18,-80.04 3441.5,-69.77 3608,-41 3616.27,-39.57 3624.97,-37.64 3633.37,-35.54"/>
<polygon fill="#63b8ff" stroke="#63b8ff" points="3136.61,-80.14 3126.73,-83.96 3136.84,-87.13 3136.61,-80.14"/>
</a>
</g>
</g>
<!-- Node30 -->
<g id="Node000030" class="node">
<title>Node30</title>
<g id="a_Node000030"><a xlink:href="multigrid-tests_2non-equidistant-test_2main_8cc.html" target="_top" xlink:title=" ">
<polygon fill="white" stroke="#666666" points="3882.5,-41 3763.5,-41 3763.5,0 3882.5,0 3882.5,-41"/>
<text text-anchor="start" x="3771.5" y="-29" font-family="Helvetica,sans-Serif" font-size="10.00">test/multigrid&#45;tests</text>
<text text-anchor="start" x="3771.5" y="-18" font-family="Helvetica,sans-Serif" font-size="10.00">/non&#45;equidistant&#45;test</text>
<text text-anchor="middle" x="3823" y="-7" font-family="Helvetica,sans-Serif" font-size="10.00">/main.cc</text>
</a>
</g>
</g>
<!-- Node2&#45;&gt;Node30 -->
<g id="edge29_Node000002_Node000030" class="edge">
<title>Node2&#45;&gt;Node30</title>
<g id="a_edge29_Node000002_Node000030"><a xlink:title=" ">
<path fill="none" stroke="#63b8ff" d="M3136.59,-85.85C3264.62,-85.27 3531.87,-79.08 3754,-41 3757.07,-40.47 3760.19,-39.87 3763.34,-39.19"/>
<polygon fill="#63b8ff" stroke="#63b8ff" points="3136.49,-82.35 3126.5,-85.88 3136.52,-89.35 3136.49,-82.35"/>
</a>
</g>
</g>
<!-- Node31 -->
<g id="Node000031" class="node">
<title>Node31</title>
<g id="a_Node000031"><a xlink:href="multigrid-tests_2parallel-multigrid-test_2main_8cc.html" target="_top" xlink:title=" ">
<polygon fill="white" stroke="#666666" points="4027.5,-41 3900.5,-41 3900.5,0 4027.5,0 4027.5,-41"/>
<text text-anchor="start" x="3908.5" y="-29" font-family="Helvetica,sans-Serif" font-size="10.00">test/multigrid&#45;tests</text>
<text text-anchor="start" x="3908.5" y="-18" font-family="Helvetica,sans-Serif" font-size="10.00">/parallel&#45;multigrid&#45;test</text>
<text text-anchor="middle" x="3964" y="-7" font-family="Helvetica,sans-Serif" font-size="10.00">/main.cc</text>
</a>
</g>
</g>
<!-- Node2&#45;&gt;Node31 -->
<g id="edge30_Node000002_Node000031" class="edge">
<title>Node2&#45;&gt;Node31</title>
<g id="a_edge30_Node000002_Node000031"><a xlink:title=" ">
<path fill="none" stroke="#63b8ff" d="M3136.83,-83.49C3313.39,-78.47 3747.85,-64.11 3892,-41 3894.69,-40.57 3897.41,-40.08 3900.16,-39.54"/>
<polygon fill="#63b8ff" stroke="#63b8ff" points="3136.49,-79.99 3126.59,-83.78 3136.69,-86.99 3136.49,-79.99"/>
</a>
</g>
</g>
<!-- Node32 -->
<g id="Node000032" class="node">
<title>Node32</title>
<g id="a_Node000032"><a xlink:href="planetest_2main_8cc.html" target="_top" xlink:title=" ">
<polygon fill="white" stroke="#666666" points="4170.5,-30 4045.5,-30 4045.5,-11 4170.5,-11 4170.5,-30"/>
<text text-anchor="middle" x="4108" y="-18" font-family="Helvetica,sans-Serif" font-size="10.00">test/planetest/main.cc</text>
</a>
</g>
</g>
<!-- Node2&#45;&gt;Node32 -->
<g id="edge31_Node000002_Node000032" class="edge">
<title>Node2&#45;&gt;Node32</title>
<g id="a_edge31_Node000002_Node000032"><a xlink:title=" ">
<path fill="none" stroke="#63b8ff" d="M3136.86,-84.22C3334.88,-80.54 3863.99,-68.35 4037,-41 4052.28,-38.58 4068.97,-34.1 4082.34,-30.03"/>
<polygon fill="#63b8ff" stroke="#63b8ff" points="3136.77,-80.72 3126.83,-84.41 3136.9,-87.72 3136.77,-80.72"/>
</a>
</g>
</g>
<!-- Node33 -->
<g id="Node000033" class="node">
<title>Node33</title>
<g id="a_Node000033"><a xlink:href="poisson-test_2main_8cc.html" target="_top" xlink:title=" ">
<polygon fill="white" stroke="#666666" points="4329,-30 4189,-30 4189,-11 4329,-11 4329,-30"/>
<text text-anchor="middle" x="4259" y="-18" font-family="Helvetica,sans-Serif" font-size="10.00">test/poisson&#45;test/main.cc</text>
</a>
</g>
</g>
<!-- Node2&#45;&gt;Node33 -->
<g id="edge32_Node000002_Node000033" class="edge">
<title>Node2&#45;&gt;Node33</title>
<g id="a_edge32_Node000002_Node000033"><a xlink:title=" ">
<path fill="none" stroke="#63b8ff" d="M3136.7,-84.48C3354.13,-81.25 3977.84,-69.67 4180,-41 4196.92,-38.6 4215.5,-34.11 4230.38,-30.05"/>
<polygon fill="#63b8ff" stroke="#63b8ff" points="3136.6,-80.99 3126.66,-84.63 3136.71,-87.98 3136.6,-80.99"/>
</a>
</g>
</g>
<!-- Node34 -->
<g id="Node000034" class="node">
<title>Node34</title>
<g id="a_Node000034"><a xlink:href="ray-mpi-test_2main_8cc.html" target="_top" xlink:title=" ">
<polygon fill="white" stroke="#666666" points="4487,-30 4347,-30 4347,-11 4487,-11 4487,-30"/>
<text text-anchor="middle" x="4417" y="-18" font-family="Helvetica,sans-Serif" font-size="10.00">test/ray&#45;mpi&#45;test/main.cc</text>
</a>
</g>
</g>
<!-- Node2&#45;&gt;Node34 -->
<g id="edge33_Node000002_Node000034" class="edge">
<title>Node2&#45;&gt;Node34</title>
<g id="a_edge33_Node000002_Node000034"><a xlink:title=" ">
<path fill="none" stroke="#63b8ff" d="M3136.9,-84.92C3374.79,-82.76 4103.91,-73.61 4338,-41 4354.93,-38.64 4373.5,-34.16 4388.39,-30.08"/>
<polygon fill="#63b8ff" stroke="#63b8ff" points="3136.59,-81.42 3126.62,-85.01 3136.65,-88.42 3136.59,-81.42"/>
</a>
</g>
</g>
<!-- Node35 -->
<g id="Node000035" class="node">
<title>Node35</title>
<g id="a_Node000035"><a xlink:href="ray-test_2main_8cc.html" target="_top" xlink:title=" ">
<polygon fill="white" stroke="#666666" points="4623,-30 4505,-30 4505,-11 4623,-11 4623,-30"/>
<text text-anchor="middle" x="4564" y="-18" font-family="Helvetica,sans-Serif" font-size="10.00">test/ray&#45;test/main.cc</text>
</a>
</g>
</g>
<!-- Node2&#45;&gt;Node35 -->
<g id="edge34_Node000002_Node000035" class="edge">
<title>Node2&#45;&gt;Node35</title>
<g id="a_edge34_Node000002_Node000035"><a xlink:title=" ">
<path fill="none" stroke="#63b8ff" d="M3136.97,-85.63C3394.12,-85.67 4230.49,-82.52 4496,-41 4510.8,-38.68 4526.94,-34.15 4539.78,-30.03"/>
<polygon fill="#63b8ff" stroke="#63b8ff" points="3136.62,-82.13 3126.62,-85.62 3136.61,-89.13 3136.62,-82.13"/>
</a>
</g>
</g>
<!-- Node36 -->
<g id="Node000036" class="node">
<title>Node36</title>
<g id="a_Node000036"><a xlink:href="reduce-sum-add-test_2main_8cc.html" target="_top" xlink:title=" ">
<polygon fill="white" stroke="#666666" points="4759,-35.5 4641,-35.5 4641,-5.5 4759,-5.5 4759,-35.5"/>
<text text-anchor="start" x="4649" y="-23.5" font-family="Helvetica,sans-Serif" font-size="10.00">test/reduce&#45;sum&#45;add</text>
<text text-anchor="middle" x="4700" y="-12.5" font-family="Helvetica,sans-Serif" font-size="10.00">&#45;test/main.cc</text>
</a>
</g>
</g>
<!-- Node2&#45;&gt;Node36 -->
<g id="edge35_Node000002_Node000036" class="edge">
<title>Node2&#45;&gt;Node36</title>
<g id="a_edge35_Node000002_Node000036"><a xlink:title=" ">
<path fill="none" stroke="#63b8ff" d="M3136.72,-85.87C3409.14,-86.79 4338.67,-86.47 4632,-41 4640.25,-39.72 4648.92,-37.75 4657.2,-35.53"/>
<polygon fill="#63b8ff" stroke="#63b8ff" points="3136.55,-82.37 3126.54,-85.83 3136.53,-89.37 3136.55,-82.37"/>
</a>
</g>
</g>
<!-- Node37 -->
<g id="Node000037" class="node">
<title>Node37</title>
<g id="a_Node000037"><a xlink:href="reduce-test_2main_8cc.html" target="_top" xlink:title=" ">
<polygon fill="white" stroke="#666666" points="4912.5,-30 4777.5,-30 4777.5,-11 4912.5,-11 4912.5,-30"/>
<text text-anchor="middle" x="4845" y="-18" font-family="Helvetica,sans-Serif" font-size="10.00">test/reduce&#45;test/main.cc</text>
</a>
</g>
</g>
<!-- Node2&#45;&gt;Node37 -->
<g id="edge36_Node000002_Node000037" class="edge">
<title>Node2&#45;&gt;Node37</title>
<g id="a_edge36_Node000002_Node000037"><a xlink:title=" ">
<path fill="none" stroke="#63b8ff" d="M3136.86,-85.76C3424.26,-86.39 4446.18,-85.38 4768,-41 4784.67,-38.7 4802.93,-34.17 4817.49,-30.05"/>
<polygon fill="#63b8ff" stroke="#63b8ff" points="3136.55,-82.26 3126.54,-85.73 3136.53,-89.26 3136.55,-82.26"/>
</a>
</g>
</g>
<!-- Node38 -->
<g id="Node000038" class="node">
<title>Node38</title>
<g id="a_Node000038"><a xlink:href="single-precision-test_2main_8cc.html" target="_top" xlink:title=" ">
<polygon fill="white" stroke="#666666" points="5047,-35.5 4931,-35.5 4931,-5.5 5047,-5.5 5047,-35.5"/>
<text text-anchor="start" x="4939" y="-23.5" font-family="Helvetica,sans-Serif" font-size="10.00">test/single&#45;precision</text>
<text text-anchor="middle" x="4989" y="-12.5" font-family="Helvetica,sans-Serif" font-size="10.00">&#45;test/main.cc</text>
</a>
</g>
</g>
<!-- Node2&#45;&gt;Node38 -->
<g id="edge37_Node000002_Node000038" class="edge">
<title>Node2&#45;&gt;Node38</title>
<g id="a_edge37_Node000002_Node000038"><a xlink:title=" ">
<path fill="none" stroke="#63b8ff" d="M3136.85,-84.85C3463.78,-81.87 4743.93,-68.56 4922,-41 4930.14,-39.74 4938.68,-37.77 4946.84,-35.56"/>
<polygon fill="#63b8ff" stroke="#63b8ff" points="3136.51,-81.35 3126.54,-84.94 3136.57,-88.35 3136.51,-81.35"/>
</a>
</g>
</g>
<!-- Node39 -->
<g id="Node000039" class="node">
<title>Node39</title>
<g id="a_Node000039"><a xlink:href="small-grid-test_2main_8cc.html" target="_top" xlink:title=" ">
<polygon fill="white" stroke="#666666" points="5175,-35.5 5065,-35.5 5065,-5.5 5175,-5.5 5175,-35.5"/>
<text text-anchor="start" x="5073" y="-23.5" font-family="Helvetica,sans-Serif" font-size="10.00">test/small&#45;grid&#45;test</text>
<text text-anchor="middle" x="5120" y="-12.5" font-family="Helvetica,sans-Serif" font-size="10.00">/main.cc</text>
</a>
</g>
</g>
<!-- Node2&#45;&gt;Node39 -->
<g id="edge38_Node000002_Node000039" class="edge">
<title>Node2&#45;&gt;Node39</title>
<g id="a_edge38_Node000002_Node000039"><a xlink:title=" ">
<path fill="none" stroke="#63b8ff" d="M3136.68,-85.04C3477.81,-82.77 4864.24,-71.75 5056,-41 5063.8,-39.75 5071.97,-37.79 5079.77,-35.58"/>
<polygon fill="#63b8ff" stroke="#63b8ff" points="3136.63,-81.54 3126.65,-85.1 3136.68,-88.54 3136.63,-81.54"/>
</a>
</g>
</g>
<!-- Node40 -->
<g id="Node000040" class="node">
<title>Node40</title>
<g id="a_Node000040"><a xlink:href="sor-test_2main_8cc.html" target="_top" xlink:title=" ">
<polygon fill="white" stroke="#666666" points="5310.5,-30 5193.5,-30 5193.5,-11 5310.5,-11 5310.5,-30"/>
<text text-anchor="middle" x="5252" y="-18" font-family="Helvetica,sans-Serif" font-size="10.00">test/sor&#45;test/main.cc</text>
</a>
</g>
</g>
<!-- Node2&#45;&gt;Node40 -->
<g id="edge39_Node000002_Node000040" class="edge">
<title>Node2&#45;&gt;Node40</title>
<g id="a_edge39_Node000002_Node000040"><a xlink:title=" ">
<path fill="none" stroke="#63b8ff" d="M3136.81,-85.07C3491.52,-82.91 4978.77,-72.04 5184,-41 5198.81,-38.76 5214.95,-34.23 5227.79,-30.09"/>
<polygon fill="#63b8ff" stroke="#63b8ff" points="3136.62,-81.57 3126.65,-85.13 3136.67,-88.57 3136.62,-81.57"/>
</a>
</g>
</g>
<!-- Node41 -->
<g id="Node000041" class="node">
<title>Node41</title>
<g id="a_Node000041"><a xlink:href="stencil-accesses-fail-test_2main_8cc.html" target="_top" xlink:title=" ">
<polygon fill="white" stroke="#666666" points="5447.5,-35.5 5328.5,-35.5 5328.5,-5.5 5447.5,-5.5 5447.5,-35.5"/>
<text text-anchor="start" x="5336.5" y="-23.5" font-family="Helvetica,sans-Serif" font-size="10.00">test/stencil&#45;accesses</text>
<text text-anchor="middle" x="5388" y="-12.5" font-family="Helvetica,sans-Serif" font-size="10.00">&#45;fail&#45;test/main.cc</text>
</a>
</g>
</g>
<!-- Node2&#45;&gt;Node41 -->
<g id="edge40_Node000002_Node000041" class="edge">
<title>Node2&#45;&gt;Node41</title>
<g id="a_edge40_Node000002_Node000041"><a xlink:title=" ">
<path fill="none" stroke="#63b8ff" d="M3136.51,-85.18C3504.45,-83.44 5100.59,-74.04 5320,-41 5328.26,-39.76 5336.93,-37.8 5345.21,-35.59"/>
<polygon fill="#63b8ff" stroke="#63b8ff" points="3136.49,-81.68 3126.5,-85.22 3136.52,-88.68 3136.49,-81.68"/>
</a>
</g>
</g>
<!-- Node42 -->
<g id="Node000042" class="node">
<title>Node42</title>
<g id="a_Node000042"><a xlink:href="stencil-accesses-ok-test_2main_8cc.html" target="_top" xlink:title=" ">
<polygon fill="white" stroke="#666666" points="5584.5,-35.5 5465.5,-35.5 5465.5,-5.5 5584.5,-5.5 5584.5,-35.5"/>
<text text-anchor="start" x="5473.5" y="-23.5" font-family="Helvetica,sans-Serif" font-size="10.00">test/stencil&#45;accesses</text>
<text text-anchor="middle" x="5525" y="-12.5" font-family="Helvetica,sans-Serif" font-size="10.00">&#45;ok&#45;test/main.cc</text>
</a>
</g>
</g>
<!-- Node2&#45;&gt;Node42 -->
<g id="edge41_Node000002_Node000042" class="edge">
<title>Node2&#45;&gt;Node42</title>
<g id="a_edge41_Node000002_Node000042"><a xlink:title=" ">
<path fill="none" stroke="#63b8ff" d="M3136.69,-85.27C3518.44,-83.93 5223.39,-76.05 5457,-41 5465.38,-39.74 5474.18,-37.75 5482.57,-35.5"/>
<polygon fill="#63b8ff" stroke="#63b8ff" points="3136.57,-81.77 3126.59,-85.3 3136.6,-88.77 3136.57,-81.77"/>
</a>
</g>
</g>
<!-- Node43 -->
<g id="Node000043" class="node">
<title>Node43</title>
<g id="a_Node000043"><a xlink:href="uneven-grid-test_2main_8cc.html" target="_top" xlink:title=" ">
<polygon fill="white" stroke="#666666" points="5721.5,-35.5 5602.5,-35.5 5602.5,-5.5 5721.5,-5.5 5721.5,-35.5"/>
<text text-anchor="start" x="5610.5" y="-23.5" font-family="Helvetica,sans-Serif" font-size="10.00">test/uneven&#45;grid&#45;test</text>
<text text-anchor="middle" x="5662" y="-12.5" font-family="Helvetica,sans-Serif" font-size="10.00">/main.cc</text>
</a>
</g>
</g>
<!-- Node2&#45;&gt;Node43 -->
<g id="edge42_Node000002_Node000043" class="edge">
<title>Node2&#45;&gt;Node43</title>
<g id="a_edge42_Node000002_Node000043"><a xlink:title=" ">
<path fill="none" stroke="#63b8ff" d="M3136.81,-85.35C3531.88,-84.4 5346.15,-78.06 5594,-41 5602.38,-39.75 5611.18,-37.75 5619.57,-35.51"/>
<polygon fill="#63b8ff" stroke="#63b8ff" points="3136.63,-81.85 3126.64,-85.37 3136.65,-88.85 3136.63,-81.85"/>
</a>
</g>
</g>
<!-- Node44 -->
<g id="Node000044" class="node">
<title>Node44</title>
<g id="a_Node000044"><a xlink:href="uneven-sor-test_2main_8cc.html" target="_top" xlink:title=" ">
<polygon fill="white" stroke="#666666" points="5856,-35.5 5740,-35.5 5740,-5.5 5856,-5.5 5856,-35.5"/>
<text text-anchor="start" x="5748" y="-23.5" font-family="Helvetica,sans-Serif" font-size="10.00">test/uneven&#45;sor&#45;test</text>
<text text-anchor="middle" x="5798" y="-12.5" font-family="Helvetica,sans-Serif" font-size="10.00">/main.cc</text>
</a>
</g>
</g>
<!-- Node2&#45;&gt;Node44 -->
<g id="edge43_Node000002_Node000044" class="edge">
<title>Node2&#45;&gt;Node44</title>
<g id="a_edge43_Node000002_Node000044"><a xlink:title=" ">
<path fill="none" stroke="#63b8ff" d="M3136.92,-85.44C3544.97,-84.96 5468.96,-80.59 5731,-41 5739.27,-39.75 5747.94,-37.76 5756.21,-35.51"/>
<polygon fill="#63b8ff" stroke="#63b8ff" points="3136.7,-81.94 3126.71,-85.45 3136.71,-88.94 3136.7,-81.94"/>
</a>
</g>
</g>
<!-- Node45 -->
<g id="Node000045" class="node">
<title>Node45</title>
<g id="a_Node000045"><a xlink:href="use-scalar-reduce_2main_8cc.html" target="_top" xlink:title=" ">
<polygon fill="white" stroke="#666666" points="5999.5,-35.5 5874.5,-35.5 5874.5,-5.5 5999.5,-5.5 5999.5,-35.5"/>
<text text-anchor="start" x="5882.5" y="-23.5" font-family="Helvetica,sans-Serif" font-size="10.00">test/use&#45;scalar&#45;reduce</text>
<text text-anchor="middle" x="5937" y="-12.5" font-family="Helvetica,sans-Serif" font-size="10.00">/main.cc</text>
</a>
</g>
</g>
<!-- Node2&#45;&gt;Node45 -->
<g id="edge44_Node000002_Node000045" class="edge">
<title>Node2&#45;&gt;Node45</title>
<g id="a_edge44_Node000002_Node000045"><a xlink:title=" ">
<path fill="none" stroke="#63b8ff" d="M3136.96,-85.42C3557.21,-84.84 5588.6,-80 5865,-41 5873.85,-39.75 5883.16,-37.76 5892.04,-35.52"/>
<polygon fill="#63b8ff" stroke="#63b8ff" points="3136.74,-81.92 3126.74,-85.44 3136.75,-88.92 3136.74,-81.92"/>
</a>
</g>
</g>
<!-- Node46 -->
<g id="Node000046" class="node">
<title>Node46</title>
<g id="a_Node000046"><a xlink:href="variable-dims_2main_8cc.html" target="_top" xlink:title=" ">
<polygon fill="white" stroke="#666666" points="6124,-35.5 6018,-35.5 6018,-5.5 6124,-5.5 6124,-35.5"/>
<text text-anchor="start" x="6026" y="-23.5" font-family="Helvetica,sans-Serif" font-size="10.00">test/variable&#45;dims</text>
<text text-anchor="middle" x="6071" y="-12.5" font-family="Helvetica,sans-Serif" font-size="10.00">/main.cc</text>
</a>
</g>
</g>
<!-- Node2&#45;&gt;Node46 -->
<g id="edge45_Node000002_Node000046" class="edge">
<title>Node2&#45;&gt;Node46</title>
<g id="a_edge45_Node000002_Node000046"><a xlink:title=" ">
<path fill="none" stroke="#63b8ff" d="M3137.02,-85.67C3570.25,-86.44 5718.42,-87.87 6009,-41 6016.69,-39.76 6024.73,-37.77 6032.39,-35.53"/>
<polygon fill="#63b8ff" stroke="#63b8ff" points="3136.81,-82.17 3126.8,-85.65 3136.8,-89.17 3136.81,-82.17"/>
</a>
</g>
</g>
<!-- Node47 -->
<g id="Node000047" class="node">
<title>Node47</title>
<g id="a_Node000047"><a xlink:href="walker-test_2main_8cc.html" target="_top" xlink:title=" ">
<polygon fill="white" stroke="#666666" points="6276,-30 6142,-30 6142,-11 6276,-11 6276,-30"/>
<text text-anchor="middle" x="6209" y="-18" font-family="Helvetica,sans-Serif" font-size="10.00">test/walker&#45;test/main.cc</text>
</a>
</g>
</g>
<!-- Node2&#45;&gt;Node47 -->
<g id="edge46_Node000002_Node000047" class="edge">
<title>Node2&#45;&gt;Node47</title>
<g id="a_edge46_Node000002_Node000047"><a xlink:title=" ">
<path fill="none" stroke="#63b8ff" d="M3136.96,-85.48C3580.66,-85.19 5828.26,-81.72 6133,-41 6149.61,-38.78 6167.8,-34.19 6182.22,-30.02"/>
<polygon fill="#63b8ff" stroke="#63b8ff" points="3136.81,-81.98 3126.81,-85.48 3136.81,-88.98 3136.81,-81.98"/>
</a>
</g>
</g>
</g>
</svg>
