<?xml version="1.0" encoding="UTF-8" standalone="no"?>
<!DOCTYPE svg PUBLIC "-//W3C//DTD SVG 1.1//EN"
 "http://www.w3.org/Graphics/SVG/1.1/DTD/svg11.dtd">
<!-- Generated by graphviz version 2.43.0 (0)
 -->
<!-- Title: include/astaroth.h Pages: 1 -->
<svg width="2641pt" height="324pt"
 viewBox="0.00 0.00 2640.84 324.00" xmlns="http://www.w3.org/2000/svg" xmlns:xlink="http://www.w3.org/1999/xlink">
<g id="graph0" class="graph" transform="scale(1 1) rotate(0) translate(4 320)">
<title>include/astaroth.h</title>
<!-- Node1 -->
<g id="Node000001" class="node">
<title>Node1</title>
<g id="a_Node000001"><a xlink:title=" ">
<polygon fill="#999999" stroke="#666666" points="1778.84,-316 1674.84,-316 1674.84,-297 1778.84,-297 1778.84,-316"/>
<text text-anchor="middle" x="1726.84" y="-304" font-family="Helvetica,sans-Serif" font-size="10.00">include/astaroth.h</text>
</a>
</g>
</g>
<!-- Node2 -->
<g id="Node000002" class="node">
<title>Node2</title>
<g id="a_Node000002"><a xlink:href="astaroth__base_8h.html" target="_top" xlink:title=" ">
<polygon fill="white" stroke="#666666" points="1174.34,-261 1079.34,-261 1079.34,-242 1174.34,-242 1174.34,-261"/>
<text text-anchor="middle" x="1126.84" y="-249" font-family="Helvetica,sans-Serif" font-size="10.00">astaroth_base.h</text>
</a>
</g>
</g>
<!-- Node1&#45;&gt;Node2 -->
<g id="edge1_Node000001_Node000002" class="edge">
<title>Node1&#45;&gt;Node2</title>
<g id="a_edge1_Node000001_Node000002"><a xlink:title=" ">
<path fill="none" stroke="#63b8ff" d="M1674.69,-302.38C1579.5,-296.43 1371.04,-282.25 1184.39,-260.98"/>
<polygon fill="#63b8ff" stroke="#63b8ff" points="1184.73,-257.5 1174.39,-259.83 1183.93,-264.45 1184.73,-257.5"/>
</a>
</g>
</g>
<!-- Node43 -->
<g id="Node000043" class="node">
<title>Node43</title>
<g id="a_Node000043"><a xlink:href="astaroth__grid_8h.html" target="_top" xlink:title=" ">
<polygon fill="white" stroke="#666666" points="1282.84,-261 1192.84,-261 1192.84,-242 1282.84,-242 1282.84,-261"/>
<text text-anchor="middle" x="1237.84" y="-249" font-family="Helvetica,sans-Serif" font-size="10.00">astaroth_grid.h</text>
</a>
</g>
</g>
<!-- Node1&#45;&gt;Node43 -->
<g id="edge49_Node000001_Node000043" class="edge">
<title>Node1&#45;&gt;Node43</title>
<g id="a_edge49_Node000001_Node000043"><a xlink:title=" ">
<path fill="none" stroke="#63b8ff" d="M1674.5,-301.07C1594.61,-294.1 1437.21,-279.58 1293.23,-261.12"/>
<polygon fill="#63b8ff" stroke="#63b8ff" points="1293.26,-257.59 1282.89,-259.78 1292.36,-264.53 1293.26,-257.59"/>
</a>
</g>
</g>
<!-- Node44 -->
<g id="Node000044" class="node">
<title>Node44</title>
<g id="a_Node000044"><a xlink:href="astaroth__node_8h.html" target="_top" xlink:title=" ">
<polygon fill="white" stroke="#666666" points="1396.34,-261 1301.34,-261 1301.34,-242 1396.34,-242 1396.34,-261"/>
<text text-anchor="middle" x="1348.84" y="-249" font-family="Helvetica,sans-Serif" font-size="10.00">astaroth_node.h</text>
</a>
</g>
</g>
<!-- Node1&#45;&gt;Node44 -->
<g id="edge50_Node000001_Node000044" class="edge">
<title>Node1&#45;&gt;Node44</title>
<g id="a_edge50_Node000001_Node000044"><a xlink:title=" ">
<path fill="none" stroke="#63b8ff" d="M1674.83,-298.46C1613.37,-290.1 1507.73,-275.61 1406.51,-261.08"/>
<polygon fill="#63b8ff" stroke="#63b8ff" points="1406.81,-257.59 1396.42,-259.63 1405.82,-264.52 1406.81,-257.59"/>
</a>
</g>
</g>
<!-- Node45 -->
<g id="Node000045" class="node">
<title>Node45</title>
<g id="a_Node000045"><a xlink:href="astaroth__device_8h.html" target="_top" xlink:title=" ">
<polygon fill="white" stroke="#666666" points="1518.84,-261 1414.84,-261 1414.84,-242 1518.84,-242 1518.84,-261"/>
<text text-anchor="middle" x="1466.84" y="-249" font-family="Helvetica,sans-Serif" font-size="10.00">astaroth_device.h</text>
</a>
</g>
</g>
<!-- Node1&#45;&gt;Node45 -->
<g id="edge51_Node000001_Node000045" class="edge">
<title>Node1&#45;&gt;Node45</title>
<g id="a_edge51_Node000001_Node000045"><a xlink:title=" ">
<path fill="none" stroke="#63b8ff" d="M1685.06,-296.98C1639.9,-287.78 1567.84,-273.09 1518.99,-263.13"/>
<polygon fill="#63b8ff" stroke="#63b8ff" points="1519.44,-259.65 1508.94,-261.08 1518.04,-266.51 1519.44,-259.65"/>
</a>
</g>
</g>
<!-- Node48 -->
<g id="Node000048" class="node">
<title>Node48</title>
<g id="a_Node000048"><a xlink:href="astaroth__legacy_8h.html" target="_top" xlink:title=" ">
<polygon fill="white" stroke="#666666" points="1638.84,-261 1536.84,-261 1536.84,-242 1638.84,-242 1638.84,-261"/>
<text text-anchor="middle" x="1587.84" y="-249" font-family="Helvetica,sans-Serif" font-size="10.00">astaroth_legacy.h</text>
</a>
</g>
</g>
<!-- Node1&#45;&gt;Node48 -->
<g id="edge54_Node000001_Node000048" class="edge">
<title>Node1&#45;&gt;Node48</title>
<g id="a_edge54_Node000001_Node000048"><a xlink:title=" ">
<path fill="none" stroke="#63b8ff" d="M1704.51,-296.98C1681.64,-288.27 1645.88,-274.63 1619.98,-264.75"/>
<polygon fill="#63b8ff" stroke="#63b8ff" points="1621.17,-261.46 1610.58,-261.17 1618.67,-268 1621.17,-261.46"/>
</a>
</g>
</g>
<!-- Node49 -->
<g id="Node000049" class="node">
<title>Node49</title>
<g id="a_Node000049"><a xlink:title=" ">
<polygon fill="#e0e0e0" stroke="#999999" points="1796.34,-261 1657.34,-261 1657.34,-242 1796.34,-242 1796.34,-261"/>
<text text-anchor="middle" x="1726.84" y="-249" font-family="Helvetica,sans-Serif" font-size="10.00">device_set_input_decls.h</text>
</a>
</g>
</g>
<!-- Node1&#45;&gt;Node49 -->
<g id="edge55_Node000001_Node000049" class="edge">
<title>Node1&#45;&gt;Node49</title>
<g id="a_edge55_Node000001_Node000049"><a xlink:title=" ">
<path fill="none" stroke="#63b8ff" d="M1726.84,-296.75C1726.84,-289.8 1726.84,-279.85 1726.84,-271.13"/>
<polygon fill="#63b8ff" stroke="#63b8ff" points="1730.34,-271.09 1726.84,-261.09 1723.34,-271.09 1730.34,-271.09"/>
</a>
</g>
</g>
<!-- Node50 -->
<g id="Node000050" class="node">
<title>Node50</title>
<g id="a_Node000050"><a xlink:title=" ">
<polygon fill="#e0e0e0" stroke="#999999" points="1960.84,-261 1814.84,-261 1814.84,-242 1960.84,-242 1960.84,-261"/>
<text text-anchor="middle" x="1887.84" y="-249" font-family="Helvetica,sans-Serif" font-size="10.00">device_get_output_decls.h</text>
</a>
</g>
</g>
<!-- Node1&#45;&gt;Node50 -->
<g id="edge56_Node000001_Node000050" class="edge">
<title>Node1&#45;&gt;Node50</title>
<g id="a_edge56_Node000001_Node000050"><a xlink:title=" ">
<path fill="none" stroke="#63b8ff" d="M1752.71,-296.98C1779.62,-288.13 1821.96,-274.19 1852.07,-264.28"/>
<polygon fill="#63b8ff" stroke="#63b8ff" points="1853.36,-267.53 1861.77,-261.08 1851.17,-260.88 1853.36,-267.53"/>
</a>
</g>
</g>
<!-- Node51 -->
<g id="Node000051" class="node">
<title>Node51</title>
<g id="a_Node000051"><a xlink:title=" ">
<polygon fill="#e0e0e0" stroke="#999999" points="2118.84,-261 1978.84,-261 1978.84,-242 2118.84,-242 2118.84,-261"/>
<text text-anchor="middle" x="2048.84" y="-249" font-family="Helvetica,sans-Serif" font-size="10.00">device_get_input_decls.h</text>
</a>
</g>
</g>
<!-- Node1&#45;&gt;Node51 -->
<g id="edge57_Node000001_Node000051" class="edge">
<title>Node1&#45;&gt;Node51</title>
<g id="a_edge57_Node000001_Node000051"><a xlink:title=" ">
<path fill="none" stroke="#63b8ff" d="M1778.57,-296.98C1835.29,-287.65 1926.27,-272.67 1986.78,-262.71"/>
<polygon fill="#63b8ff" stroke="#63b8ff" points="1987.67,-266.12 1996.96,-261.04 1986.53,-259.21 1987.67,-266.12"/>
</a>
</g>
</g>
<!-- Node52 -->
<g id="Node000052" class="node">
<title>Node52</title>
<g id="a_Node000052"><a xlink:title=" ">
<polygon fill="#e0e0e0" stroke="#999999" points="2266.84,-261 2136.84,-261 2136.84,-242 2266.84,-242 2266.84,-261"/>
<text text-anchor="middle" x="2201.84" y="-249" font-family="Helvetica,sans-Serif" font-size="10.00">get_vtxbufs_declares.h</text>
</a>
</g>
</g>
<!-- Node1&#45;&gt;Node52 -->
<g id="edge58_Node000001_Node000052" class="edge">
<title>Node1&#45;&gt;Node52</title>
<g id="a_edge58_Node000001_Node000052"><a xlink:title=" ">
<path fill="none" stroke="#63b8ff" d="M1779.07,-299.77C1853.67,-291.57 1995.3,-275.95 2126.26,-261.17"/>
<polygon fill="#63b8ff" stroke="#63b8ff" points="2126.93,-264.62 2136.47,-260.02 2126.14,-257.67 2126.93,-264.62"/>
</a>
</g>
</g>
<!-- Node53 -->
<g id="Node000053" class="node">
<title>Node53</title>
<g id="a_Node000053"><a xlink:href="astaroth__runtime__compilation_8h.html" target="_top" xlink:title=" ">
<polygon fill="white" stroke="#666666" points="2458.34,-261 2285.34,-261 2285.34,-242 2458.34,-242 2458.34,-261"/>
<text text-anchor="middle" x="2371.84" y="-249" font-family="Helvetica,sans-Serif" font-size="10.00">astaroth_runtime_compilation.h</text>
</a>
</g>
</g>
<!-- Node1&#45;&gt;Node53 -->
<g id="edge59_Node000001_Node000053" class="edge">
<title>Node1&#45;&gt;Node53</title>
<g id="a_edge59_Node000001_Node000053"><a xlink:title=" ">
<path fill="none" stroke="#63b8ff" d="M1779.08,-301.4C1874.97,-293.83 2085.79,-277.08 2275.09,-261.06"/>
<polygon fill="#63b8ff" stroke="#63b8ff" points="2275.56,-264.53 2285.23,-260.2 2274.97,-257.55 2275.56,-264.53"/>
</a>
</g>
</g>
<!-- Node54 -->
<g id="Node000054" class="node">
<title>Node54</title>
<g id="a_Node000054"><a xlink:title=" ">
<polygon fill="#e0e0e0" stroke="#999999" points="2529.34,-261 2476.34,-261 2476.34,-242 2529.34,-242 2529.34,-261"/>
<text text-anchor="middle" x="2502.84" y="-249" font-family="Helvetica,sans-Serif" font-size="10.00">string.h</text>
</a>
</g>
</g>
<!-- Node1&#45;&gt;Node54 -->
<g id="edge60_Node000001_Node000054" class="edge">
<title>Node1&#45;&gt;Node54</title>
<g id="a_edge60_Node000001_Node000054"><a xlink:title=" ">
<path fill="none" stroke="#63b8ff" d="M1779.28,-305.55C1899.42,-304.98 2203.81,-299.62 2466.09,-261"/>
<polygon fill="#63b8ff" stroke="#63b8ff" points="2466.81,-264.43 2476.18,-259.49 2465.78,-257.51 2466.81,-264.43"/>
</a>
</g>
</g>
<!-- Node3 -->
<g id="Node000003" class="node">
<title>Node3</title>
<g id="a_Node000003"><a xlink:title=" ">
<polygon fill="#e0e0e0" stroke="#999999" points="110.84,-74 48.84,-74 48.84,-55 110.84,-55 110.84,-74"/>
<text text-anchor="middle" x="79.84" y="-62" font-family="Helvetica,sans-Serif" font-size="10.00">stdbool.h</text>
</a>
</g>
</g>
<!-- Node2&#45;&gt;Node3 -->
<g id="edge2_Node000002_Node000003" class="edge">
<title>Node2&#45;&gt;Node3</title>
<g id="a_edge2_Node000002_Node000003"><a xlink:title=" ">
<path fill="none" stroke="#63b8ff" d="M1079.29,-249.6C874.71,-245.23 76.62,-222.93 5.84,-140 -2.82,-129.86 -0.73,-121.61 5.84,-110 14.01,-95.55 28.96,-85.27 43.29,-78.26"/>
<polygon fill="#63b8ff" stroke="#63b8ff" points="44.85,-81.4 52.55,-74.12 41.99,-75.01 44.85,-81.4"/>
</a>
</g>
</g>
<!-- Node4 -->
<g id="Node000004" class="node">
<title>Node4</title>
<g id="a_Node000004"><a xlink:href="ac__mpi_8h.html" target="_top" xlink:title=" ">
<polygon fill="white" stroke="#666666" points="1222.34,-200.5 1161.34,-200.5 1161.34,-181.5 1222.34,-181.5 1222.34,-200.5"/>
<text text-anchor="middle" x="1191.84" y="-188.5" font-family="Helvetica,sans-Serif" font-size="10.00">ac_mpi.h</text>
</a>
</g>
</g>
<!-- Node2&#45;&gt;Node4 -->
<g id="edge3_Node000002_Node000004" class="edge">
<title>Node2&#45;&gt;Node4</title>
<g id="a_edge3_Node000002_Node000004"><a xlink:title=" ">
<path fill="none" stroke="#63b8ff" d="M1136.43,-241.87C1146.41,-232.88 1162.27,-218.61 1174.47,-207.64"/>
<polygon fill="#63b8ff" stroke="#63b8ff" points="1177.12,-209.96 1182.21,-200.67 1172.43,-204.76 1177.12,-209.96"/>
</a>
</g>
</g>
<!-- Node5 -->
<g id="Node000005" class="node">
<title>Node5</title>
<g id="a_Node000005"><a xlink:href="acc__runtime_8h.html" target="_top" xlink:title=" ">
<polygon fill="white" stroke="#666666" points="1104.84,-200.5 1018.84,-200.5 1018.84,-181.5 1104.84,-181.5 1104.84,-200.5"/>
<text text-anchor="middle" x="1061.84" y="-188.5" font-family="Helvetica,sans-Serif" font-size="10.00">acc_runtime.h</text>
</a>
</g>
</g>
<!-- Node2&#45;&gt;Node5 -->
<g id="edge4_Node000002_Node000005" class="edge">
<title>Node2&#45;&gt;Node5</title>
<g id="a_edge4_Node000002_Node000005"><a xlink:title=" ">
<path fill="none" stroke="#63b8ff" d="M1117.25,-241.87C1107.26,-232.88 1091.41,-218.61 1079.21,-207.64"/>
<polygon fill="#63b8ff" stroke="#63b8ff" points="1081.24,-204.76 1071.47,-200.67 1076.56,-209.96 1081.24,-204.76"/>
</a>
</g>
</g>
<!-- Node25 -->
<g id="Node000025" class="node">
<title>Node25</title>
<g id="a_Node000025"><a xlink:title=" ">
<polygon fill="#e0e0e0" stroke="#999999" points="154.34,-134.5 15.34,-134.5 15.34,-115.5 154.34,-115.5 154.34,-134.5"/>
<text text-anchor="middle" x="84.84" y="-122.5" font-family="Helvetica,sans-Serif" font-size="10.00">user_built&#45;in_constants.h</text>
</a>
</g>
</g>
<!-- Node2&#45;&gt;Node25 -->
<g id="edge47_Node000002_Node000025" class="edge">
<title>Node2&#45;&gt;Node25</title>
<g id="a_edge47_Node000002_Node000025"><a xlink:title=" ">
<path fill="none" stroke="#63b8ff" d="M1079.33,-246.32C938.46,-233.67 510.88,-193.32 158.84,-140 151.73,-138.92 144.26,-137.66 136.91,-136.35"/>
<polygon fill="#63b8ff" stroke="#63b8ff" points="137.48,-132.89 127.01,-134.53 136.21,-139.78 137.48,-132.89"/>
</a>
</g>
</g>
<!-- Node39 -->
<g id="Node000039" class="node">
<title>Node39</title>
<g id="a_Node000039"><a xlink:href="func__define_8h.html" target="_top" xlink:title=" ">
<polygon fill="white" stroke="#666666" points="2632.84,-134.5 2550.84,-134.5 2550.84,-115.5 2632.84,-115.5 2632.84,-134.5"/>
<text text-anchor="middle" x="2591.84" y="-122.5" font-family="Helvetica,sans-Serif" font-size="10.00">func_define.h</text>
</a>
</g>
</g>
<!-- Node2&#45;&gt;Node39 -->
<g id="edge46_Node000002_Node000039" class="edge">
<title>Node2&#45;&gt;Node39</title>
<g id="a_edge46_Node000002_Node000039"><a xlink:title=" ">
<path fill="none" stroke="#63b8ff" d="M1126.79,-241.78C1127.24,-225.69 1130.77,-191.57 1151.84,-176 1213.96,-130.09 2465.45,-151.5 2541.84,-140 2546.6,-139.28 2551.55,-138.25 2556.41,-137.08"/>
<polygon fill="#63b8ff" stroke="#63b8ff" points="2557.38,-140.44 2566.15,-134.5 2555.59,-133.67 2557.38,-140.44"/>
</a>
</g>
</g>
<!-- Node42 -->
<g id="Node000042" class="node">
<title>Node42</title>
<g id="a_Node000042"><a xlink:title=" ">
<polygon fill="#e0e0e0" stroke="#999999" points="1371.34,-206 1240.34,-206 1240.34,-176 1371.34,-176 1371.34,-206"/>
<text text-anchor="start" x="1248.34" y="-194" font-family="Helvetica,sans-Serif" font-size="10.00">user_builtin_non_scalar</text>
<text text-anchor="middle" x="1305.84" y="-183" font-family="Helvetica,sans-Serif" font-size="10.00">_constants.h</text>
</a>
</g>
</g>
<!-- Node2&#45;&gt;Node42 -->
<g id="edge48_Node000002_Node000042" class="edge">
<title>Node2&#45;&gt;Node42</title>
<g id="a_edge48_Node000002_Node000042"><a xlink:title=" ">
<path fill="none" stroke="#63b8ff" d="M1152.87,-241.99C1179.08,-233.43 1220.25,-219.97 1253.28,-209.18"/>
<polygon fill="#63b8ff" stroke="#63b8ff" points="1254.39,-212.5 1262.8,-206.06 1252.21,-205.84 1254.39,-212.5"/>
</a>
</g>
</g>
<!-- Node5&#45;&gt;Node3 -->
<g id="edge6_Node000005_Node000003" class="edge">
<title>Node5&#45;&gt;Node3</title>
<g id="a_edge6_Node000005_Node000003"><a xlink:title=" ">
<path fill="none" stroke="#63b8ff" d="M1018.82,-189.12C854.83,-185.55 274.31,-170.83 197.84,-140 178.84,-132.34 179.74,-121.57 162.84,-110 145.36,-98.03 124.31,-86.78 107.78,-78.58"/>
<polygon fill="#63b8ff" stroke="#63b8ff" points="109.16,-75.36 98.64,-74.13 106.1,-81.65 109.16,-75.36"/>
</a>
</g>
</g>
<!-- Node6 -->
<g id="Node000006" class="node">
<title>Node6</title>
<g id="a_Node000006"><a xlink:title=" ">
<polygon fill="#e0e0e0" stroke="#999999" points="178.84,-74 128.84,-74 128.84,-55 178.84,-55 178.84,-74"/>
<text text-anchor="middle" x="153.84" y="-62" font-family="Helvetica,sans-Serif" font-size="10.00">stdio.h</text>
</a>
</g>
</g>
<!-- Node5&#45;&gt;Node6 -->
<g id="edge5_Node000005_Node000006" class="edge">
<title>Node5&#45;&gt;Node6</title>
<g id="a_edge5_Node000005_Node000006"><a xlink:title=" ">
<path fill="none" stroke="#63b8ff" d="M1018.75,-188.99C859.84,-185.07 312.15,-169.5 239.84,-140 223.85,-133.48 189.6,-101.13 169.48,-81.26"/>
<polygon fill="#63b8ff" stroke="#63b8ff" points="171.85,-78.68 162.29,-74.1 166.91,-83.64 171.85,-78.68"/>
</a>
</g>
</g>
<!-- Node7 -->
<g id="Node000007" class="node">
<title>Node7</title>
<g id="a_Node000007"><a xlink:href="device__headers_8h.html" target="_top" xlink:title=" ">
<polygon fill="white" stroke="#666666" points="298.84,-74 196.84,-74 196.84,-55 298.84,-55 298.84,-74"/>
<text text-anchor="middle" x="247.84" y="-62" font-family="Helvetica,sans-Serif" font-size="10.00">device_headers.h</text>
</a>
</g>
</g>
<!-- Node5&#45;&gt;Node7 -->
<g id="edge7_Node000005_Node000007" class="edge">
<title>Node5&#45;&gt;Node7</title>
<g id="a_edge7_Node000005_Node000007"><a xlink:title=" ">
<path fill="none" stroke="#63b8ff" d="M1018.64,-189.58C886.58,-187.89 489.78,-179.57 367.84,-140 357.22,-136.56 301.03,-100.34 269.45,-79.7"/>
<polygon fill="#63b8ff" stroke="#63b8ff" points="271.16,-76.64 260.88,-74.09 267.33,-82.5 271.16,-76.64"/>
</a>
</g>
</g>
<!-- Node10 -->
<g id="Node000010" class="node">
<title>Node10</title>
<g id="a_Node000010"><a xlink:title=" ">
<polygon fill="#e0e0e0" stroke="#999999" points="412.34,-74 317.34,-74 317.34,-55 412.34,-55 412.34,-74"/>
<text text-anchor="middle" x="364.84" y="-62" font-family="Helvetica,sans-Serif" font-size="10.00">builtin_enums.h</text>
</a>
</g>
</g>
<!-- Node5&#45;&gt;Node10 -->
<g id="edge10_Node000005_Node000010" class="edge">
<title>Node5&#45;&gt;Node10</title>
<g id="a_edge10_Node000005_Node000010"><a xlink:title=" ">
<path fill="none" stroke="#63b8ff" d="M1018.49,-189.52C877.68,-187.58 439.37,-178.5 389.84,-140 372.87,-126.81 367.32,-101.65 365.56,-84.24"/>
<polygon fill="#63b8ff" stroke="#63b8ff" points="369.04,-83.86 364.87,-74.13 362.06,-84.34 369.04,-83.86"/>
</a>
</g>
</g>
<!-- Node11 -->
<g id="Node000011" class="node">
<title>Node11</title>
<g id="a_Node000011"><a xlink:href="datatypes_8h.html" target="_top" xlink:title=" ">
<polygon fill="white" stroke="#666666" points="472.84,-134.5 398.84,-134.5 398.84,-115.5 472.84,-115.5 472.84,-134.5"/>
<text text-anchor="middle" x="435.84" y="-122.5" font-family="Helvetica,sans-Serif" font-size="10.00">datatypes.h</text>
</a>
</g>
</g>
<!-- Node5&#45;&gt;Node11 -->
<g id="edge11_Node000005_Node000011" class="edge">
<title>Node5&#45;&gt;Node11</title>
<g id="a_edge11_Node000005_Node000011"><a xlink:title=" ">
<path fill="none" stroke="#63b8ff" d="M1018.48,-189.35C921.46,-187.24 679.81,-178.22 481.84,-140 477.98,-139.26 473.99,-138.31 470.05,-137.27"/>
<polygon fill="#63b8ff" stroke="#63b8ff" points="471,-133.9 460.43,-134.52 469.08,-140.63 471,-133.9"/>
</a>
</g>
</g>
<!-- Node19 -->
<g id="Node000019" class="node">
<title>Node19</title>
<g id="a_Node000019"><a xlink:href="errchk_8h.html" target="_top" xlink:title="Brief info.">
<polygon fill="#fff0f0" stroke="red" points="304.84,-134.5 248.84,-134.5 248.84,-115.5 304.84,-115.5 304.84,-134.5"/>
<text text-anchor="middle" x="276.84" y="-122.5" font-family="Helvetica,sans-Serif" font-size="10.00">errchk.h</text>
</a>
</g>
</g>
<!-- Node5&#45;&gt;Node19 -->
<g id="edge22_Node000005_Node000019" class="edge">
<title>Node5&#45;&gt;Node19</title>
<g id="a_edge22_Node000005_Node000019"><a xlink:title=" ">
<path fill="none" stroke="#63b8ff" d="M1018.4,-188.53C880.58,-183.63 454.25,-166.67 318.84,-140 315.6,-139.36 312.26,-138.54 308.95,-137.62"/>
<polygon fill="#63b8ff" stroke="#63b8ff" points="309.81,-134.23 299.22,-134.63 307.75,-140.92 309.81,-134.23"/>
</a>
</g>
</g>
<!-- Node23 -->
<g id="Node000023" class="node">
<title>Node23</title>
<g id="a_Node000023"><a xlink:title=" ">
<polygon fill="#e0e0e0" stroke="#999999" points="578.34,-134.5 491.34,-134.5 491.34,-115.5 578.34,-115.5 578.34,-134.5"/>
<text text-anchor="middle" x="534.84" y="-122.5" font-family="Helvetica,sans-Serif" font-size="10.00">user_defines.h</text>
</a>
</g>
</g>
<!-- Node5&#45;&gt;Node23 -->
<g id="edge27_Node000005_Node000023" class="edge">
<title>Node5&#45;&gt;Node23</title>
<g id="a_edge27_Node000005_Node000023"><a xlink:title=" ">
<path fill="none" stroke="#63b8ff" d="M1018.71,-187.67C935.05,-182.66 745.12,-168.89 587.84,-140 583.29,-139.16 578.56,-138.14 573.89,-137.03"/>
<polygon fill="#63b8ff" stroke="#63b8ff" points="574.37,-133.55 563.82,-134.51 572.67,-140.34 574.37,-133.55"/>
</a>
</g>
</g>
<!-- Node24 -->
<g id="Node000024" class="node">
<title>Node24</title>
<g id="a_Node000024"><a xlink:title=" ">
<polygon fill="#e0e0e0" stroke="#999999" points="682.84,-134.5 596.84,-134.5 596.84,-115.5 682.84,-115.5 682.84,-134.5"/>
<text text-anchor="middle" x="639.84" y="-122.5" font-family="Helvetica,sans-Serif" font-size="10.00">profiles_info.h</text>
</a>
</g>
</g>
<!-- Node5&#45;&gt;Node24 -->
<g id="edge28_Node000005_Node000024" class="edge">
<title>Node5&#45;&gt;Node24</title>
<g id="a_edge28_Node000005_Node000024"><a xlink:title=" ">
<path fill="none" stroke="#63b8ff" d="M1018.81,-186C949.51,-179.15 809.08,-163.6 691.84,-140 687.61,-139.15 683.22,-138.15 678.86,-137.08"/>
<polygon fill="#63b8ff" stroke="#63b8ff" points="679.39,-133.61 668.83,-134.51 677.65,-140.39 679.39,-133.61"/>
</a>
</g>
</g>
<!-- Node5&#45;&gt;Node25 -->
<g id="edge29_Node000005_Node000025" class="edge">
<title>Node5&#45;&gt;Node25</title>
<g id="a_edge29_Node000005_Node000025"><a xlink:title=" ">
<path fill="none" stroke="#63b8ff" d="M1018.49,-189.25C889.03,-186.65 494.09,-176.1 168.84,-140 159.67,-138.98 149.97,-137.63 140.56,-136.16"/>
<polygon fill="#63b8ff" stroke="#63b8ff" points="140.92,-132.68 130.49,-134.54 139.8,-139.59 140.92,-132.68"/>
</a>
</g>
</g>
<!-- Node26 -->
<g id="Node000026" class="node">
<title>Node26</title>
<g id="a_Node000026"><a xlink:href="func__attributes_8h.html" target="_top" xlink:title=" ">
<polygon fill="white" stroke="#666666" points="800.34,-134.5 701.34,-134.5 701.34,-115.5 800.34,-115.5 800.34,-134.5"/>
<text text-anchor="middle" x="750.84" y="-122.5" font-family="Helvetica,sans-Serif" font-size="10.00">func_attributes.h</text>
</a>
</g>
</g>
<!-- Node5&#45;&gt;Node26 -->
<g id="edge30_Node000005_Node000026" class="edge">
<title>Node5&#45;&gt;Node26</title>
<g id="a_edge30_Node000005_Node000026"><a xlink:title=" ">
<path fill="none" stroke="#63b8ff" d="M1018.75,-182.05C968.31,-172.62 882.31,-156.12 808.84,-140 804.39,-139.02 799.76,-137.97 795.15,-136.9"/>
<polygon fill="#63b8ff" stroke="#63b8ff" points="795.67,-133.42 785.13,-134.53 794.06,-140.24 795.67,-133.42"/>
</a>
</g>
</g>
<!-- Node27 -->
<g id="Node000027" class="node">
<title>Node27</title>
<g id="a_Node000027"><a xlink:title=" ">
<polygon fill="#e0e0e0" stroke="#999999" points="943.34,-134.5 818.34,-134.5 818.34,-115.5 943.34,-115.5 943.34,-134.5"/>
<text text-anchor="middle" x="880.84" y="-122.5" font-family="Helvetica,sans-Serif" font-size="10.00">user_input_typedefs.h</text>
</a>
</g>
</g>
<!-- Node5&#45;&gt;Node27 -->
<g id="edge31_Node000005_Node000027" class="edge">
<title>Node5&#45;&gt;Node27</title>
<g id="a_edge31_Node000005_Node000027"><a xlink:title=" ">
<path fill="none" stroke="#63b8ff" d="M1037.43,-181.37C1005.76,-170.17 950.36,-150.58 914.66,-137.96"/>
<polygon fill="#63b8ff" stroke="#63b8ff" points="915.75,-134.63 905.15,-134.6 913.41,-141.23 915.75,-134.63"/>
</a>
</g>
</g>
<!-- Node28 -->
<g id="Node000028" class="node">
<title>Node28</title>
<g id="a_Node000028"><a xlink:title=" ">
<polygon fill="#e0e0e0" stroke="#999999" points="1044.34,-134.5 961.34,-134.5 961.34,-115.5 1044.34,-115.5 1044.34,-134.5"/>
<text text-anchor="middle" x="1002.84" y="-122.5" font-family="Helvetica,sans-Serif" font-size="10.00">output_decl.h</text>
</a>
</g>
</g>
<!-- Node5&#45;&gt;Node28 -->
<g id="edge32_Node000005_Node000028" class="edge">
<title>Node5&#45;&gt;Node28</title>
<g id="a_edge32_Node000005_Node000028"><a xlink:title=" ">
<path fill="none" stroke="#63b8ff" d="M1053.88,-181.37C1044.7,-171.4 1029.38,-154.79 1017.92,-142.36"/>
<polygon fill="#63b8ff" stroke="#63b8ff" points="1020.4,-139.89 1011.05,-134.91 1015.25,-144.63 1020.4,-139.89"/>
</a>
</g>
</g>
<!-- Node29 -->
<g id="Node000029" class="node">
<title>Node29</title>
<g id="a_Node000029"><a xlink:title=" ">
<polygon fill="#e0e0e0" stroke="#999999" points="1178.84,-134.5 1062.84,-134.5 1062.84,-115.5 1178.84,-115.5 1178.84,-134.5"/>
<text text-anchor="middle" x="1120.84" y="-122.5" font-family="Helvetica,sans-Serif" font-size="10.00">comp_loaded_decl.h</text>
</a>
</g>
</g>
<!-- Node5&#45;&gt;Node29 -->
<g id="edge33_Node000005_Node000029" class="edge">
<title>Node5&#45;&gt;Node29</title>
<g id="a_edge33_Node000005_Node000029"><a xlink:title=" ">
<path fill="none" stroke="#63b8ff" d="M1069.8,-181.37C1078.98,-171.4 1094.29,-154.79 1105.76,-142.36"/>
<polygon fill="#63b8ff" stroke="#63b8ff" points="1108.42,-144.63 1112.63,-134.91 1103.28,-139.89 1108.42,-144.63"/>
</a>
</g>
</g>
<!-- Node30 -->
<g id="Node000030" class="node">
<title>Node30</title>
<g id="a_Node000030"><a xlink:title=" ">
<polygon fill="#e0e0e0" stroke="#999999" points="1274.84,-134.5 1196.84,-134.5 1196.84,-115.5 1274.84,-115.5 1274.84,-134.5"/>
<text text-anchor="middle" x="1235.84" y="-122.5" font-family="Helvetica,sans-Serif" font-size="10.00">comp_decl.h</text>
</a>
</g>
</g>
<!-- Node5&#45;&gt;Node30 -->
<g id="edge34_Node000005_Node000030" class="edge">
<title>Node5&#45;&gt;Node30</title>
<g id="a_edge34_Node000005_Node000030"><a xlink:title=" ">
<path fill="none" stroke="#63b8ff" d="M1085.3,-181.37C1115.61,-170.22 1168.55,-150.75 1202.88,-138.12"/>
<polygon fill="#63b8ff" stroke="#63b8ff" points="1204.29,-141.33 1212.47,-134.6 1201.87,-134.76 1204.29,-141.33"/>
</a>
</g>
</g>
<!-- Node31 -->
<g id="Node000031" class="node">
<title>Node31</title>
<g id="a_Node000031"><a xlink:title=" ">
<polygon fill="#e0e0e0" stroke="#999999" points="1400.84,-134.5 1292.84,-134.5 1292.84,-115.5 1400.84,-115.5 1400.84,-134.5"/>
<text text-anchor="middle" x="1346.84" y="-122.5" font-family="Helvetica,sans-Serif" font-size="10.00">info_loaded_decl.h</text>
</a>
</g>
</g>
<!-- Node5&#45;&gt;Node31 -->
<g id="edge35_Node000005_Node000031" class="edge">
<title>Node5&#45;&gt;Node31</title>
<g id="a_edge35_Node000005_Node000031"><a xlink:title=" ">
<path fill="none" stroke="#63b8ff" d="M1095.86,-181.49C1103.42,-179.64 1111.39,-177.73 1118.84,-176 1191.96,-159.05 1210.54,-156.14 1283.84,-140 1288.58,-138.96 1293.52,-137.86 1298.46,-136.77"/>
<polygon fill="#63b8ff" stroke="#63b8ff" points="1299.53,-140.12 1308.53,-134.54 1298.01,-133.29 1299.53,-140.12"/>
</a>
</g>
</g>
<!-- Node32 -->
<g id="Node000032" class="node">
<title>Node32</title>
<g id="a_Node000032"><a xlink:title=" ">
<polygon fill="#e0e0e0" stroke="#999999" points="1558.84,-134.5 1418.84,-134.5 1418.84,-115.5 1558.84,-115.5 1558.84,-134.5"/>
<text text-anchor="middle" x="1488.84" y="-122.5" font-family="Helvetica,sans-Serif" font-size="10.00">device_mesh_info_decl.h</text>
</a>
</g>
</g>
<!-- Node5&#45;&gt;Node32 -->
<g id="edge36_Node000005_Node000032" class="edge">
<title>Node5&#45;&gt;Node32</title>
<g id="a_edge36_Node000005_Node000032"><a xlink:title=" ">
<path fill="none" stroke="#63b8ff" d="M1093.65,-181.48C1101.82,-179.49 1110.62,-177.51 1118.84,-176 1247.01,-152.42 1280.97,-159.38 1409.84,-140 1417.31,-138.88 1425.16,-137.6 1432.89,-136.29"/>
<polygon fill="#63b8ff" stroke="#63b8ff" points="1433.7,-139.7 1442.95,-134.55 1432.5,-132.8 1433.7,-139.7"/>
</a>
</g>
</g>
<!-- Node33 -->
<g id="Node000033" class="node">
<title>Node33</title>
<g id="a_Node000033"><a xlink:title=" ">
<polygon fill="#e0e0e0" stroke="#999999" points="1654.34,-134.5 1577.34,-134.5 1577.34,-115.5 1654.34,-115.5 1654.34,-134.5"/>
<text text-anchor="middle" x="1615.84" y="-122.5" font-family="Helvetica,sans-Serif" font-size="10.00">array_decl.h</text>
</a>
</g>
</g>
<!-- Node5&#45;&gt;Node33 -->
<g id="edge37_Node000005_Node000033" class="edge">
<title>Node5&#45;&gt;Node33</title>
<g id="a_edge37_Node000005_Node000033"><a xlink:title=" ">
<path fill="none" stroke="#63b8ff" d="M1092.71,-181.46C1101.13,-179.39 1110.29,-177.38 1118.84,-176 1316.46,-144.02 1370.95,-176.22 1567.84,-140 1571.97,-139.24 1576.25,-138.27 1580.48,-137.19"/>
<polygon fill="#63b8ff" stroke="#63b8ff" points="1581.44,-140.56 1590.16,-134.54 1579.59,-133.8 1581.44,-140.56"/>
</a>
</g>
</g>
<!-- Node34 -->
<g id="Node000034" class="node">
<title>Node34</title>
<g id="a_Node000034"><a xlink:title=" ">
<polygon fill="#e0e0e0" stroke="#999999" points="1748.84,-134.5 1672.84,-134.5 1672.84,-115.5 1748.84,-115.5 1748.84,-134.5"/>
<text text-anchor="middle" x="1710.84" y="-122.5" font-family="Helvetica,sans-Serif" font-size="10.00">input_decl.h</text>
</a>
</g>
</g>
<!-- Node5&#45;&gt;Node34 -->
<g id="edge38_Node000005_Node000034" class="edge">
<title>Node5&#45;&gt;Node34</title>
<g id="a_edge38_Node000005_Node000034"><a xlink:title=" ">
<path fill="none" stroke="#63b8ff" d="M1092.4,-181.45C1100.9,-179.36 1110.18,-177.34 1118.84,-176 1358.74,-138.91 1424.91,-182.92 1663.84,-140 1667.78,-139.29 1671.86,-138.37 1675.89,-137.34"/>
<polygon fill="#63b8ff" stroke="#63b8ff" points="1677.02,-140.66 1685.72,-134.61 1675.15,-133.91 1677.02,-140.66"/>
</a>
</g>
</g>
<!-- Node35 -->
<g id="Node000035" class="node">
<title>Node35</title>
<g id="a_Node000035"><a xlink:href="ac__helpers_8h.html" target="_top" xlink:title=" ">
<polygon fill="white" stroke="#666666" points="1844.84,-134.5 1766.84,-134.5 1766.84,-115.5 1844.84,-115.5 1844.84,-134.5"/>
<text text-anchor="middle" x="1805.84" y="-122.5" font-family="Helvetica,sans-Serif" font-size="10.00">ac_helpers.h</text>
</a>
</g>
</g>
<!-- Node5&#45;&gt;Node35 -->
<g id="edge39_Node000005_Node000035" class="edge">
<title>Node5&#45;&gt;Node35</title>
<g id="a_edge39_Node000005_Node000035"><a xlink:title=" ">
<path fill="none" stroke="#63b8ff" d="M1092.1,-181.47C1100.68,-179.35 1110.07,-177.31 1118.84,-176 1400.16,-133.9 1477.49,-188.13 1757.84,-140 1762.07,-139.27 1766.46,-138.3 1770.79,-137.21"/>
<polygon fill="#63b8ff" stroke="#63b8ff" points="1771.96,-140.52 1780.68,-134.5 1770.11,-133.77 1771.96,-140.52"/>
</a>
</g>
</g>
<!-- Node36 -->
<g id="Node000036" class="node">
<title>Node36</title>
<g id="a_Node000036"><a xlink:title=" ">
<polygon fill="#e0e0e0" stroke="#999999" points="1980.84,-140 1862.84,-140 1862.84,-110 1980.84,-110 1980.84,-140"/>
<text text-anchor="start" x="1870.84" y="-128" font-family="Helvetica,sans-Serif" font-size="10.00">scalar_reduce_buffer</text>
<text text-anchor="middle" x="1921.84" y="-117" font-family="Helvetica,sans-Serif" font-size="10.00">_defs.h</text>
</a>
</g>
</g>
<!-- Node5&#45;&gt;Node36 -->
<g id="edge40_Node000005_Node000036" class="edge">
<title>Node5&#45;&gt;Node36</title>
<g id="a_edge40_Node000005_Node000036"><a xlink:title=" ">
<path fill="none" stroke="#63b8ff" d="M1091.8,-181.5C1100.46,-179.35 1109.96,-177.29 1118.84,-176 1439.15,-129.26 1527.57,-180.04 1852.42,-140.03"/>
<polygon fill="#63b8ff" stroke="#63b8ff" points="1853.1,-143.47 1862.59,-138.76 1852.23,-136.53 1853.1,-143.47"/>
</a>
</g>
</g>
<!-- Node37 -->
<g id="Node000037" class="node">
<title>Node37</title>
<g id="a_Node000037"><a xlink:title=" ">
<polygon fill="#e0e0e0" stroke="#999999" points="2122.34,-140 1999.34,-140 1999.34,-110 2122.34,-110 2122.34,-140"/>
<text text-anchor="start" x="2007.34" y="-128" font-family="Helvetica,sans-Serif" font-size="10.00">scalar_reduce_buffers</text>
<text text-anchor="middle" x="2060.84" y="-117" font-family="Helvetica,sans-Serif" font-size="10.00">_in_vba.h</text>
</a>
</g>
</g>
<!-- Node5&#45;&gt;Node37 -->
<g id="edge41_Node000005_Node000037" class="edge">
<title>Node5&#45;&gt;Node37</title>
<g id="a_edge41_Node000005_Node000037"><a xlink:title=" ">
<path fill="none" stroke="#63b8ff" d="M1091.79,-181.45C1100.45,-179.31 1109.96,-177.26 1118.84,-176 1499.15,-121.99 1603.32,-184.52 1988.94,-139.96"/>
<polygon fill="#63b8ff" stroke="#63b8ff" points="1989.45,-143.42 1998.97,-138.78 1988.63,-136.47 1989.45,-143.42"/>
</a>
</g>
</g>
<!-- Node38 -->
<g id="Node000038" class="node">
<title>Node38</title>
<g id="a_Node000038"><a xlink:href="astaroth__analysis_8h.html" target="_top" xlink:title=" ">
<polygon fill="white" stroke="#666666" points="2252.84,-134.5 2140.84,-134.5 2140.84,-115.5 2252.84,-115.5 2252.84,-134.5"/>
<text text-anchor="middle" x="2196.84" y="-122.5" font-family="Helvetica,sans-Serif" font-size="10.00">astaroth_analysis.h</text>
</a>
</g>
</g>
<!-- Node5&#45;&gt;Node38 -->
<g id="edge42_Node000005_Node000038" class="edge">
<title>Node5&#45;&gt;Node38</title>
<g id="a_edge42_Node000005_Node000038"><a xlink:title=" ">
<path fill="none" stroke="#63b8ff" d="M1091.49,-181.49C1100.23,-179.32 1109.86,-177.25 1118.84,-176 1565.05,-113.94 1684.78,-195.65 2131.84,-140 2138.61,-139.16 2145.72,-137.96 2152.66,-136.61"/>
<polygon fill="#63b8ff" stroke="#63b8ff" points="2153.54,-140 2162.62,-134.55 2152.12,-133.15 2153.54,-140"/>
</a>
</g>
</g>
<!-- Node5&#45;&gt;Node39 -->
<g id="edge43_Node000005_Node000039" class="edge">
<title>Node5&#45;&gt;Node39</title>
<g id="a_edge43_Node000005_Node000039"><a xlink:title=" ">
<path fill="none" stroke="#63b8ff" d="M1091.48,-181.44C1100.22,-179.26 1109.85,-177.2 1118.84,-176 1745.89,-92.06 1916.22,-234.01 2541.84,-140 2546.6,-139.28 2551.56,-138.26 2556.41,-137.08"/>
<polygon fill="#63b8ff" stroke="#63b8ff" points="2557.38,-140.44 2566.15,-134.5 2555.59,-133.68 2557.38,-140.44"/>
</a>
</g>
</g>
<!-- Node40 -->
<g id="Node000040" class="node">
<title>Node40</title>
<g id="a_Node000040"><a xlink:href="common__kernels_8h.html" target="_top" xlink:title=" ">
<polygon fill="white" stroke="#666666" points="2380.34,-134.5 2271.34,-134.5 2271.34,-115.5 2380.34,-115.5 2380.34,-134.5"/>
<text text-anchor="middle" x="2325.84" y="-122.5" font-family="Helvetica,sans-Serif" font-size="10.00">common_kernels.h</text>
</a>
</g>
</g>
<!-- Node5&#45;&gt;Node40 -->
<g id="edge44_Node000005_Node000040" class="edge">
<title>Node5&#45;&gt;Node40</title>
<g id="a_edge44_Node000005_Node000040"><a xlink:title=" ">
<path fill="none" stroke="#63b8ff" d="M1091.49,-181.47C1100.23,-179.3 1109.85,-177.23 1118.84,-176 1622.39,-107.01 1757.45,-202.57 2261.84,-140 2268.59,-139.16 2275.68,-137.95 2282.58,-136.59"/>
<polygon fill="#63b8ff" stroke="#63b8ff" points="2283.42,-139.99 2292.49,-134.51 2281.98,-133.14 2283.42,-139.99"/>
</a>
</g>
</g>
<!-- Node41 -->
<g id="Node000041" class="node">
<title>Node41</title>
<g id="a_Node000041"><a xlink:title=" ">
<polygon fill="#e0e0e0" stroke="#999999" points="2532.84,-140 2398.84,-140 2398.84,-110 2532.84,-110 2532.84,-140"/>
<text text-anchor="start" x="2406.84" y="-128" font-family="Helvetica,sans-Serif" font-size="10.00">load_and_store_uniform</text>
<text text-anchor="middle" x="2465.84" y="-117" font-family="Helvetica,sans-Serif" font-size="10.00">_header.h</text>
</a>
</g>
</g>
<!-- Node5&#45;&gt;Node41 -->
<g id="edge45_Node000005_Node000041" class="edge">
<title>Node5&#45;&gt;Node41</title>
<g id="a_edge45_Node000005_Node000041"><a xlink:title=" ">
<path fill="none" stroke="#63b8ff" d="M1091.49,-181.45C1100.22,-179.28 1109.85,-177.22 1118.84,-176 1675.56,-100.62 1826.09,-198.21 2388.79,-139.98"/>
<polygon fill="#63b8ff" stroke="#63b8ff" points="2389.2,-143.45 2398.78,-138.93 2388.47,-136.49 2389.2,-143.45"/>
</a>
</g>
</g>
<!-- Node8 -->
<g id="Node000008" class="node">
<title>Node8</title>
<g id="a_Node000008"><a xlink:title=" ">
<polygon fill="#e0e0e0" stroke="#999999" points="471.34,-19 358.34,-19 358.34,0 471.34,0 471.34,-19"/>
<text text-anchor="middle" x="414.84" y="-7" font-family="Helvetica,sans-Serif" font-size="10.00">cuda_runtime_api.h</text>
</a>
</g>
</g>
<!-- Node7&#45;&gt;Node8 -->
<g id="edge8_Node000007_Node000008" class="edge">
<title>Node7&#45;&gt;Node8</title>
<g id="a_edge8_Node000007_Node000008"><a xlink:title=" ">
<path fill="none" stroke="#63b8ff" d="M274.67,-54.98C302.71,-46.09 346.88,-32.07 378.14,-22.15"/>
<polygon fill="#63b8ff" stroke="#63b8ff" points="379.32,-25.44 387.8,-19.08 377.21,-18.77 379.32,-25.44"/>
</a>
</g>
</g>
<!-- Node9 -->
<g id="Node000009" class="node">
<title>Node9</title>
<g id="a_Node000009"><a xlink:title=" ">
<polygon fill="#e0e0e0" stroke="#999999" points="285.84,-19 209.84,-19 209.84,0 285.84,0 285.84,-19"/>
<text text-anchor="middle" x="247.84" y="-7" font-family="Helvetica,sans-Serif" font-size="10.00">cuda_fp16.h</text>
</a>
</g>
</g>
<!-- Node7&#45;&gt;Node9 -->
<g id="edge9_Node000007_Node000009" class="edge">
<title>Node7&#45;&gt;Node9</title>
<g id="a_edge9_Node000007_Node000009"><a xlink:title=" ">
<path fill="none" stroke="#63b8ff" d="M247.84,-54.75C247.84,-47.8 247.84,-37.85 247.84,-29.13"/>
<polygon fill="#63b8ff" stroke="#63b8ff" points="251.34,-29.09 247.84,-19.09 244.34,-29.09 251.34,-29.09"/>
</a>
</g>
</g>
<!-- Node11&#45;&gt;Node7 -->
<g id="edge14_Node000011_Node000007" class="edge">
<title>Node11&#45;&gt;Node7</title>
<g id="a_edge14_Node000011_Node000007"><a xlink:title=" ">
<path fill="none" stroke="#63b8ff" d="M408.5,-115.49C375.92,-105.36 321.33,-88.37 284.95,-77.05"/>
<polygon fill="#63b8ff" stroke="#63b8ff" points="285.8,-73.65 275.21,-74.02 283.72,-80.33 285.8,-73.65"/>
</a>
</g>
</g>
<!-- Node11&#45;&gt;Node8 -->
<g id="edge16_Node000011_Node000008" class="edge">
<title>Node11&#45;&gt;Node8</title>
<g id="a_edge16_Node000011_Node000008"><a xlink:title=" ">
<path fill="none" stroke="#63b8ff" d="M434.26,-115.47C430.88,-97.23 422.9,-54.07 418.29,-29.14"/>
<polygon fill="#63b8ff" stroke="#63b8ff" points="421.7,-28.33 416.43,-19.13 414.81,-29.6 421.7,-28.33"/>
</a>
</g>
</g>
<!-- Node11&#45;&gt;Node10 -->
<g id="edge18_Node000011_Node000010" class="edge">
<title>Node11&#45;&gt;Node10</title>
<g id="a_edge18_Node000011_Node000010"><a xlink:title=" ">
<path fill="none" stroke="#63b8ff" d="M425.36,-115.37C414.35,-106.3 396.8,-91.84 383.43,-80.82"/>
<polygon fill="#63b8ff" stroke="#63b8ff" points="385.3,-77.83 375.36,-74.17 380.85,-83.23 385.3,-77.83"/>
</a>
</g>
</g>
<!-- Node12 -->
<g id="Node000012" class="node">
<title>Node12</title>
<g id="a_Node000012"><a xlink:title=" ">
<polygon fill="#e0e0e0" stroke="#999999" points="635.34,-74 588.34,-74 588.34,-55 635.34,-55 635.34,-74"/>
<text text-anchor="middle" x="611.84" y="-62" font-family="Helvetica,sans-Serif" font-size="10.00">float.h</text>
</a>
</g>
</g>
<!-- Node11&#45;&gt;Node12 -->
<g id="edge12_Node000011_Node000012" class="edge">
<title>Node11&#45;&gt;Node12</title>
<g id="a_edge12_Node000011_Node000012"><a xlink:title=" ">
<path fill="none" stroke="#63b8ff" d="M461.43,-115.49C492.41,-105.2 544.64,-87.83 578.68,-76.52"/>
<polygon fill="#63b8ff" stroke="#63b8ff" points="579.8,-79.84 588.19,-73.36 577.59,-73.19 579.8,-79.84"/>
</a>
</g>
</g>
<!-- Node13 -->
<g id="Node000013" class="node">
<title>Node13</title>
<g id="a_Node000013"><a xlink:title=" ">
<polygon fill="#e0e0e0" stroke="#999999" points="704.34,-74 653.34,-74 653.34,-55 704.34,-55 704.34,-74"/>
<text text-anchor="middle" x="678.84" y="-62" font-family="Helvetica,sans-Serif" font-size="10.00">math.h</text>
</a>
</g>
</g>
<!-- Node11&#45;&gt;Node13 -->
<g id="edge13_Node000011_Node000013" class="edge">
<title>Node11&#45;&gt;Node13</title>
<g id="a_edge13_Node000011_Node000013"><a xlink:title=" ">
<path fill="none" stroke="#63b8ff" d="M462.98,-115.36C469.16,-113.5 475.7,-111.61 481.84,-110 550.11,-92.05 570.28,-90.78 643.1,-74.12"/>
<polygon fill="#63b8ff" stroke="#63b8ff" points="644.28,-77.44 653.24,-71.78 642.71,-70.62 644.28,-77.44"/>
</a>
</g>
</g>
<!-- Node14 -->
<g id="Node000014" class="node">
<title>Node14</title>
<g id="a_Node000014"><a xlink:title=" ">
<polygon fill="#e0e0e0" stroke="#999999" points="811.34,-74 722.34,-74 722.34,-55 811.34,-55 811.34,-74"/>
<text text-anchor="middle" x="766.84" y="-62" font-family="Helvetica,sans-Serif" font-size="10.00">vector_types.h</text>
</a>
</g>
</g>
<!-- Node11&#45;&gt;Node14 -->
<g id="edge15_Node000011_Node000014" class="edge">
<title>Node11&#45;&gt;Node14</title>
<g id="a_edge15_Node000011_Node000014"><a xlink:title=" ">
<path fill="none" stroke="#63b8ff" d="M461.94,-115.36C468.39,-113.42 475.33,-111.49 481.84,-110 580.06,-87.52 608.48,-89.91 712.12,-74.09"/>
<polygon fill="#63b8ff" stroke="#63b8ff" points="712.7,-77.54 722.05,-72.56 711.63,-70.62 712.7,-77.54"/>
</a>
</g>
</g>
<!-- Node15 -->
<g id="Node000015" class="node">
<title>Node15</title>
<g id="a_Node000015"><a xlink:href="acreal_8h.html" target="_top" xlink:title=" ">
<polygon fill="white" stroke="#666666" points="573.84,-19 517.84,-19 517.84,0 573.84,0 573.84,-19"/>
<text text-anchor="middle" x="545.84" y="-7" font-family="Helvetica,sans-Serif" font-size="10.00">acreal.h</text>
</a>
</g>
</g>
<!-- Node11&#45;&gt;Node15 -->
<g id="edge17_Node000011_Node000015" class="edge">
<title>Node11&#45;&gt;Node15</title>
<g id="a_edge17_Node000011_Node000015"><a xlink:title=" ">
<path fill="none" stroke="#63b8ff" d="M460.92,-115.43C467.65,-113.39 474.97,-111.4 481.84,-110 555.86,-94.94 769.33,-130.17 819.84,-74 825.48,-67.72 825.31,-61.43 819.84,-55 790.05,-19.98 652.47,-12.44 584.31,-10.87"/>
<polygon fill="#63b8ff" stroke="#63b8ff" points="584.07,-7.37 574,-10.67 583.93,-14.37 584.07,-7.37"/>
</a>
</g>
</g>
<!-- Node16 -->
<g id="Node000016" class="node">
<title>Node16</title>
<g id="a_Node000016"><a xlink:title=" ">
<polygon fill="#e0e0e0" stroke="#999999" points="963.34,-74 868.34,-74 868.34,-55 963.34,-55 963.34,-74"/>
<text text-anchor="middle" x="915.84" y="-62" font-family="Helvetica,sans-Serif" font-size="10.00">user_typedefs.h</text>
</a>
</g>
</g>
<!-- Node11&#45;&gt;Node16 -->
<g id="edge19_Node000011_Node000016" class="edge">
<title>Node11&#45;&gt;Node16</title>
<g id="a_edge19_Node000011_Node000016"><a xlink:title=" ">
<path fill="none" stroke="#63b8ff" d="M460.92,-115.38C467.64,-113.34 474.96,-111.37 481.84,-110 644.76,-77.66 688.86,-93.28 853.84,-74 855.14,-73.85 856.46,-73.69 857.79,-73.53"/>
<polygon fill="#63b8ff" stroke="#63b8ff" points="858.65,-76.95 868.14,-72.23 857.78,-70 858.65,-76.95"/>
</a>
</g>
</g>
<!-- Node17 -->
<g id="Node000017" class="node">
<title>Node17</title>
<g id="a_Node000017"><a xlink:href="host__datatypes_8h.html" target="_top" xlink:title=" ">
<polygon fill="#fff0f0" stroke="red" points="570.34,-74 469.34,-74 469.34,-55 570.34,-55 570.34,-74"/>
<text text-anchor="middle" x="519.84" y="-62" font-family="Helvetica,sans-Serif" font-size="10.00">host_datatypes.h</text>
</a>
</g>
</g>
<!-- Node11&#45;&gt;Node17 -->
<g id="edge20_Node000011_Node000017" class="edge">
<title>Node11&#45;&gt;Node17</title>
<g id="a_edge20_Node000011_Node000017"><a xlink:title=" ">
<path fill="none" stroke="#63b8ff" d="M448.23,-115.37C461.63,-106.04 483.21,-91.01 499.18,-79.88"/>
<polygon fill="#63b8ff" stroke="#63b8ff" points="501.19,-82.75 507.39,-74.17 497.19,-77.01 501.19,-82.75"/>
</a>
</g>
</g>
<!-- Node17&#45;&gt;Node15 -->
<g id="edge21_Node000017_Node000015" class="edge">
<title>Node17&#45;&gt;Node15</title>
<g id="a_edge21_Node000017_Node000015"><a xlink:title=" ">
<path fill="none" stroke="#63b8ff" d="M524.13,-54.75C527.65,-47.57 532.75,-37.18 537.12,-28.27"/>
<polygon fill="#63b8ff" stroke="#63b8ff" points="540.36,-29.61 541.62,-19.09 534.08,-26.53 540.36,-29.61"/>
</a>
</g>
</g>
<!-- Node19&#45;&gt;Node3 -->
<g id="edge24_Node000019_Node000003" class="edge">
<title>Node19&#45;&gt;Node3</title>
<g id="a_edge24_Node000019_Node000003"><a xlink:title=" ">
<path fill="none" stroke="#63b8ff" d="M248.61,-115.62C214.43,-105.47 156.69,-88.32 118.42,-76.96"/>
<polygon fill="#63b8ff" stroke="#63b8ff" points="119.23,-73.55 108.65,-74.06 117.24,-80.26 119.23,-73.55"/>
</a>
</g>
</g>
<!-- Node19&#45;&gt;Node6 -->
<g id="edge25_Node000019_Node000006" class="edge">
<title>Node19&#45;&gt;Node6</title>
<g id="a_edge25_Node000019_Node000006"><a xlink:title=" ">
<path fill="none" stroke="#63b8ff" d="M258.95,-115.49C238.46,-105.75 204.65,-89.66 180.92,-78.38"/>
<polygon fill="#63b8ff" stroke="#63b8ff" points="182.28,-75.15 171.74,-74.02 179.27,-81.47 182.28,-75.15"/>
</a>
</g>
</g>
<!-- Node19&#45;&gt;Node7 -->
<g id="edge26_Node000019_Node000007" class="edge">
<title>Node19&#45;&gt;Node7</title>
<g id="a_edge26_Node000019_Node000007"><a xlink:title=" ">
<path fill="none" stroke="#63b8ff" d="M272.56,-115.37C268.4,-106.99 261.97,-94.01 256.71,-83.39"/>
<polygon fill="#63b8ff" stroke="#63b8ff" points="259.71,-81.57 252.13,-74.17 253.44,-84.68 259.71,-81.57"/>
</a>
</g>
</g>
<!-- Node19&#45;&gt;Node17 -->
<g id="edge23_Node000019_Node000017" class="edge">
<title>Node19&#45;&gt;Node17</title>
<g id="a_edge23_Node000019_Node000017"><a xlink:title=" ">
<path fill="none" stroke="#63b8ff" d="M305.19,-117.17C346.77,-107.16 424.72,-88.4 474.37,-76.45"/>
<polygon fill="#63b8ff" stroke="#63b8ff" points="475.3,-79.82 484.2,-74.08 473.66,-73.02 475.3,-79.82"/>
</a>
</g>
</g>
<!-- Node46 -->
<g id="Node000046" class="node">
<title>Node46</title>
<g id="a_Node000046"><a xlink:title=" ">
<polygon fill="#e0e0e0" stroke="#999999" points="1520.34,-206 1401.34,-206 1401.34,-176 1520.34,-176 1520.34,-206"/>
<text text-anchor="start" x="1409.34" y="-194" font-family="Helvetica,sans-Serif" font-size="10.00">device_load_uniform</text>
<text text-anchor="middle" x="1460.84" y="-183" font-family="Helvetica,sans-Serif" font-size="10.00">_decl.h</text>
</a>
</g>
</g>
<!-- Node45&#45;&gt;Node46 -->
<g id="edge52_Node000045_Node000046" class="edge">
<title>Node45&#45;&gt;Node46</title>
<g id="a_edge52_Node000045_Node000046"><a xlink:title=" ">
<path fill="none" stroke="#63b8ff" d="M1465.95,-241.87C1465.26,-235.11 1464.26,-225.35 1463.33,-216.26"/>
<polygon fill="#63b8ff" stroke="#63b8ff" points="1466.79,-215.71 1462.29,-206.11 1459.82,-216.42 1466.79,-215.71"/>
</a>
</g>
</g>
<!-- Node47 -->
<g id="Node000047" class="node">
<title>Node47</title>
<g id="a_Node000047"><a xlink:title=" ">
<polygon fill="#e0e0e0" stroke="#999999" points="1660.84,-206 1538.84,-206 1538.84,-176 1660.84,-176 1660.84,-206"/>
<text text-anchor="start" x="1546.84" y="-194" font-family="Helvetica,sans-Serif" font-size="10.00">device_store_uniform</text>
<text text-anchor="middle" x="1599.84" y="-183" font-family="Helvetica,sans-Serif" font-size="10.00">_decl.h</text>
</a>
</g>
</g>
<!-- Node45&#45;&gt;Node47 -->
<g id="edge53_Node000045_Node000047" class="edge">
<title>Node45&#45;&gt;Node47</title>
<g id="a_edge53_Node000045_Node000047"><a xlink:title=" ">
<path fill="none" stroke="#63b8ff" d="M1486.18,-241.99C1505.07,-233.68 1534.42,-220.78 1558.56,-210.16"/>
<polygon fill="#63b8ff" stroke="#63b8ff" points="1560.12,-213.29 1567.86,-206.06 1557.3,-206.89 1560.12,-213.29"/>
</a>
</g>
</g>
</g>
</svg>
