<?xml version="1.0" encoding="UTF-8" standalone="no"?>
<!DOCTYPE svg PUBLIC "-//W3C//DTD SVG 1.1//EN"
 "http://www.w3.org/Graphics/SVG/1.1/DTD/svg11.dtd">
<!-- Generated by graphviz version 2.43.0 (0)
 -->
<!-- Title: src/core/astaroth.cc Pages: 1 -->
<svg width="2296pt" height="368pt"
 viewBox="0.00 0.00 2295.90 368.00" xmlns="http://www.w3.org/2000/svg" xmlns:xlink="http://www.w3.org/1999/xlink">
<g id="graph0" class="graph" transform="scale(1 1) rotate(0) translate(4 364)">
<title>src/core/astaroth.cc</title>
<!-- Node1 -->
<g id="Node000001" class="node">
<title>Node1</title>
<g id="a_Node000001"><a xlink:title=" ">
<polygon fill="#999999" stroke="#666666" points="1507.9,-360 1395.9,-360 1395.9,-341 1507.9,-341 1507.9,-360"/>
<text text-anchor="middle" x="1451.9" y="-348" font-family="Helvetica,sans-Serif" font-size="10.00">src/core/astaroth.cc</text>
</a>
</g>
</g>
<!-- Node2 -->
<g id="Node000002" class="node">
<title>Node2</title>
<g id="a_Node000002"><a xlink:href="astaroth_8h.html" target="_top" xlink:title=" ">
<polygon fill="white" stroke="#666666" points="1394.9,-305 1328.9,-305 1328.9,-286 1394.9,-286 1394.9,-305"/>
<text text-anchor="middle" x="1361.9" y="-293" font-family="Helvetica,sans-Serif" font-size="10.00">astaroth.h</text>
</a>
</g>
</g>
<!-- Node1&#45;&gt;Node2 -->
<g id="edge1_Node000001_Node000002" class="edge">
<title>Node1&#45;&gt;Node2</title>
<g id="a_edge1_Node000001_Node000002"><a xlink:title=" ">
<path fill="none" stroke="#63b8ff" d="M1437.44,-340.98C1423.49,-332.77 1402.11,-320.18 1385.65,-310.49"/>
<polygon fill="#63b8ff" stroke="#63b8ff" points="1387.02,-307.23 1376.63,-305.17 1383.47,-313.26 1387.02,-307.23"/>
</a>
</g>
</g>
<!-- Node55 -->
<g id="Node000055" class="node">
<title>Node55</title>
<g id="a_Node000055"><a xlink:title=" ">
<polygon fill="#e0e0e0" stroke="#999999" points="1991.4,-250 1938.4,-250 1938.4,-231 1991.4,-231 1991.4,-250"/>
<text text-anchor="middle" x="1964.9" y="-238" font-family="Helvetica,sans-Serif" font-size="10.00">string.h</text>
</a>
</g>
</g>
<!-- Node1&#45;&gt;Node55 -->
<g id="edge54_Node000001_Node000055" class="edge">
<title>Node1&#45;&gt;Node55</title>
<g id="a_edge54_Node000001_Node000055"><a xlink:title=" ">
<path fill="none" stroke="#63b8ff" d="M1446.66,-340.83C1439.21,-327.27 1427.93,-301.05 1441.9,-286 1477.21,-247.99 1841.13,-257.3 1928.08,-249.48"/>
<polygon fill="#63b8ff" stroke="#63b8ff" points="1928.73,-252.93 1938.26,-248.29 1927.92,-245.98 1928.73,-252.93"/>
</a>
</g>
</g>
<!-- Node56 -->
<g id="Node000056" class="node">
<title>Node56</title>
<g id="a_Node000056"><a xlink:title=" ">
<polygon fill="#e0e0e0" stroke="#999999" points="1512.4,-305 1451.4,-305 1451.4,-286 1512.4,-286 1512.4,-305"/>
<text text-anchor="middle" x="1481.9" y="-293" font-family="Helvetica,sans-Serif" font-size="10.00">kernels.h</text>
</a>
</g>
</g>
<!-- Node1&#45;&gt;Node56 -->
<g id="edge51_Node000001_Node000056" class="edge">
<title>Node1&#45;&gt;Node56</title>
<g id="a_edge51_Node000001_Node000056"><a xlink:title=" ">
<path fill="none" stroke="#63b8ff" d="M1456.86,-340.75C1460.96,-333.49 1466.93,-322.95 1472.01,-313.98"/>
<polygon fill="#63b8ff" stroke="#63b8ff" points="1475.16,-315.52 1477.04,-305.09 1469.07,-312.07 1475.16,-315.52"/>
</a>
</g>
</g>
<!-- Node57 -->
<g id="Node000057" class="node">
<title>Node57</title>
<g id="a_Node000057"><a xlink:href="astaroth__cuda__wrappers_8h.html" target="_top" xlink:title=" ">
<polygon fill="white" stroke="#666666" points="980.4,-305 835.4,-305 835.4,-286 980.4,-286 980.4,-305"/>
<text text-anchor="middle" x="907.9" y="-293" font-family="Helvetica,sans-Serif" font-size="10.00">astaroth_cuda_wrappers.h</text>
</a>
</g>
</g>
<!-- Node1&#45;&gt;Node57 -->
<g id="edge52_Node000001_Node000057" class="edge">
<title>Node1&#45;&gt;Node57</title>
<g id="a_edge52_Node000001_Node000057"><a xlink:title=" ">
<path fill="none" stroke="#63b8ff" d="M1395.73,-344.03C1299.52,-334.65 1102.74,-315.48 990.73,-304.57"/>
<polygon fill="#63b8ff" stroke="#63b8ff" points="990.79,-301.06 980.5,-303.57 990.11,-308.03 990.79,-301.06"/>
</a>
</g>
</g>
<!-- Node58 -->
<g id="Node000058" class="node">
<title>Node58</title>
<g id="a_Node000058"><a xlink:href="math__utils_8h.html" target="_top" xlink:title="Brief info.">
<polygon fill="white" stroke="#666666" points="382.4,-189.5 305.4,-189.5 305.4,-170.5 382.4,-170.5 382.4,-189.5"/>
<text text-anchor="middle" x="343.9" y="-177.5" font-family="Helvetica,sans-Serif" font-size="10.00">math_utils.h</text>
</a>
</g>
</g>
<!-- Node1&#45;&gt;Node58 -->
<g id="edge55_Node000001_Node000058" class="edge">
<title>Node1&#45;&gt;Node58</title>
<g id="a_edge55_Node000001_Node000058"><a xlink:title=" ">
<path fill="none" stroke="#63b8ff" d="M1395.62,-347.32C1285.77,-342.65 1035.24,-330.04 825.9,-305 680.01,-287.55 640.63,-292.27 499.9,-250 451.79,-235.55 398.94,-209.95 368.76,-194.32"/>
<polygon fill="#63b8ff" stroke="#63b8ff" points="370.27,-191.17 359.79,-189.63 367.02,-197.37 370.27,-191.17"/>
</a>
</g>
</g>
<!-- Node61 -->
<g id="Node000061" class="node">
<title>Node61</title>
<g id="a_Node000061"><a xlink:title=" ">
<polygon fill="#e0e0e0" stroke="#999999" points="1645.4,-305 1530.4,-305 1530.4,-286 1645.4,-286 1645.4,-305"/>
<text text-anchor="middle" x="1587.9" y="-293" font-family="Helvetica,sans-Serif" font-size="10.00">get_vtxbufs_funcs.h</text>
</a>
</g>
</g>
<!-- Node1&#45;&gt;Node61 -->
<g id="edge65_Node000001_Node000061" class="edge">
<title>Node1&#45;&gt;Node61</title>
<g id="a_edge65_Node000001_Node000061"><a xlink:title=" ">
<path fill="none" stroke="#63b8ff" d="M1473.75,-340.98C1496.03,-332.3 1530.8,-318.75 1556.12,-308.88"/>
<polygon fill="#63b8ff" stroke="#63b8ff" points="1557.61,-312.06 1565.65,-305.17 1555.07,-305.54 1557.61,-312.06"/>
</a>
</g>
</g>
<!-- Node62 -->
<g id="Node000062" class="node">
<title>Node62</title>
<g id="a_Node000062"><a xlink:title=" ">
<polygon fill="#e0e0e0" stroke="#999999" points="1770.4,-305 1663.4,-305 1663.4,-286 1770.4,-286 1770.4,-305"/>
<text text-anchor="middle" x="1716.9" y="-293" font-family="Helvetica,sans-Serif" font-size="10.00">stencil_accesses.h</text>
</a>
</g>
</g>
<!-- Node1&#45;&gt;Node62 -->
<g id="edge66_Node000001_Node000062" class="edge">
<title>Node1&#45;&gt;Node62</title>
<g id="a_edge66_Node000001_Node000062"><a xlink:title=" ">
<path fill="none" stroke="#63b8ff" d="M1494.48,-340.98C1540.61,-331.76 1614.27,-317.03 1664.06,-307.07"/>
<polygon fill="#63b8ff" stroke="#63b8ff" points="1664.87,-310.48 1673.99,-305.08 1663.5,-303.61 1664.87,-310.48"/>
</a>
</g>
</g>
<!-- Node63 -->
<g id="Node000063" class="node">
<title>Node63</title>
<g id="a_Node000063"><a xlink:href="config__helpers_8h.html" target="_top" xlink:title=" ">
<polygon fill="white" stroke="#666666" points="2176.4,-305 2071.4,-305 2071.4,-286 2176.4,-286 2176.4,-305"/>
<text text-anchor="middle" x="2123.9" y="-293" font-family="Helvetica,sans-Serif" font-size="10.00">../config_helpers.h</text>
</a>
</g>
</g>
<!-- Node1&#45;&gt;Node63 -->
<g id="edge67_Node000001_Node000063" class="edge">
<title>Node1&#45;&gt;Node63</title>
<g id="a_edge67_Node000001_Node000063"><a xlink:title=" ">
<path fill="none" stroke="#63b8ff" d="M1508.04,-345.07C1632.43,-335.26 1930.51,-311.75 2060.97,-301.46"/>
<polygon fill="#63b8ff" stroke="#63b8ff" points="2061.5,-304.93 2071.19,-300.66 2060.95,-297.95 2061.5,-304.93"/>
</a>
</g>
</g>
<!-- Node3 -->
<g id="Node000003" class="node">
<title>Node3</title>
<g id="a_Node000003"><a xlink:href="astaroth__base_8h.html" target="_top" xlink:title=" ">
<polygon fill="white" stroke="#666666" points="1298.4,-250 1203.4,-250 1203.4,-231 1298.4,-231 1298.4,-250"/>
<text text-anchor="middle" x="1250.9" y="-238" font-family="Helvetica,sans-Serif" font-size="10.00">astaroth_base.h</text>
</a>
</g>
</g>
<!-- Node2&#45;&gt;Node3 -->
<g id="edge2_Node000002_Node000003" class="edge">
<title>Node2&#45;&gt;Node3</title>
<g id="a_edge2_Node000002_Node000003"><a xlink:title=" ">
<path fill="none" stroke="#63b8ff" d="M1344.07,-285.98C1326.29,-277.5 1298.76,-264.35 1278.22,-254.54"/>
<polygon fill="#63b8ff" stroke="#63b8ff" points="1279.59,-251.32 1269.06,-250.17 1276.58,-257.64 1279.59,-251.32"/>
</a>
</g>
</g>
<!-- Node44 -->
<g id="Node000044" class="node">
<title>Node44</title>
<g id="a_Node000044"><a xlink:href="astaroth__grid_8h.html" target="_top" xlink:title=" ">
<polygon fill="white" stroke="#666666" points="1406.9,-250 1316.9,-250 1316.9,-231 1406.9,-231 1406.9,-250"/>
<text text-anchor="middle" x="1361.9" y="-238" font-family="Helvetica,sans-Serif" font-size="10.00">astaroth_grid.h</text>
</a>
</g>
</g>
<!-- Node2&#45;&gt;Node44 -->
<g id="edge39_Node000002_Node000044" class="edge">
<title>Node2&#45;&gt;Node44</title>
<g id="a_edge39_Node000002_Node000044"><a xlink:title=" ">
<path fill="none" stroke="#63b8ff" d="M1361.9,-285.75C1361.9,-278.8 1361.9,-268.85 1361.9,-260.13"/>
<polygon fill="#63b8ff" stroke="#63b8ff" points="1365.4,-260.09 1361.9,-250.09 1358.4,-260.09 1365.4,-260.09"/>
</a>
</g>
</g>
<!-- Node45 -->
<g id="Node000045" class="node">
<title>Node45</title>
<g id="a_Node000045"><a xlink:href="astaroth__node_8h.html" target="_top" xlink:title=" ">
<polygon fill="white" stroke="#666666" points="1520.4,-250 1425.4,-250 1425.4,-231 1520.4,-231 1520.4,-250"/>
<text text-anchor="middle" x="1472.9" y="-238" font-family="Helvetica,sans-Serif" font-size="10.00">astaroth_node.h</text>
</a>
</g>
</g>
<!-- Node2&#45;&gt;Node45 -->
<g id="edge40_Node000002_Node000045" class="edge">
<title>Node2&#45;&gt;Node45</title>
<g id="a_edge40_Node000002_Node000045"><a xlink:title=" ">
<path fill="none" stroke="#63b8ff" d="M1379.74,-285.98C1397.51,-277.5 1425.05,-264.35 1445.58,-254.54"/>
<polygon fill="#63b8ff" stroke="#63b8ff" points="1447.23,-257.64 1454.74,-250.17 1444.21,-251.32 1447.23,-257.64"/>
</a>
</g>
</g>
<!-- Node46 -->
<g id="Node000046" class="node">
<title>Node46</title>
<g id="a_Node000046"><a xlink:href="astaroth__device_8h.html" target="_top" xlink:title=" ">
<polygon fill="white" stroke="#666666" points="1642.9,-250 1538.9,-250 1538.9,-231 1642.9,-231 1642.9,-250"/>
<text text-anchor="middle" x="1590.9" y="-238" font-family="Helvetica,sans-Serif" font-size="10.00">astaroth_device.h</text>
</a>
</g>
</g>
<!-- Node2&#45;&gt;Node46 -->
<g id="edge41_Node000002_Node000046" class="edge">
<title>Node2&#45;&gt;Node46</title>
<g id="a_edge41_Node000002_Node000046"><a xlink:title=" ">
<path fill="none" stroke="#63b8ff" d="M1395.2,-286.79C1434.44,-277.71 1499.91,-262.56 1544.21,-252.31"/>
<polygon fill="#63b8ff" stroke="#63b8ff" points="1545.2,-255.67 1554.15,-250.01 1543.62,-248.85 1545.2,-255.67"/>
</a>
</g>
</g>
<!-- Node49 -->
<g id="Node000049" class="node">
<title>Node49</title>
<g id="a_Node000049"><a xlink:href="astaroth__legacy_8h.html" target="_top" xlink:title=" ">
<polygon fill="white" stroke="#666666" points="1762.9,-250 1660.9,-250 1660.9,-231 1762.9,-231 1762.9,-250"/>
<text text-anchor="middle" x="1711.9" y="-238" font-family="Helvetica,sans-Serif" font-size="10.00">astaroth_legacy.h</text>
</a>
</g>
</g>
<!-- Node2&#45;&gt;Node49 -->
<g id="edge44_Node000002_Node000049" class="edge">
<title>Node2&#45;&gt;Node49</title>
<g id="a_edge44_Node000002_Node000049"><a xlink:title=" ">
<path fill="none" stroke="#63b8ff" d="M1395,-288.37C1399.67,-287.55 1404.4,-286.74 1408.9,-286 1454.13,-278.59 1575.85,-260.98 1650.53,-250.27"/>
<polygon fill="#63b8ff" stroke="#63b8ff" points="1651.34,-253.69 1660.74,-248.8 1650.34,-246.76 1651.34,-253.69"/>
</a>
</g>
</g>
<!-- Node50 -->
<g id="Node000050" class="node">
<title>Node50</title>
<g id="a_Node000050"><a xlink:title=" ">
<polygon fill="#e0e0e0" stroke="#999999" points="1920.4,-250 1781.4,-250 1781.4,-231 1920.4,-231 1920.4,-250"/>
<text text-anchor="middle" x="1850.9" y="-238" font-family="Helvetica,sans-Serif" font-size="10.00">device_set_input_decls.h</text>
</a>
</g>
</g>
<!-- Node2&#45;&gt;Node50 -->
<g id="edge45_Node000002_Node000050" class="edge">
<title>Node2&#45;&gt;Node50</title>
<g id="a_edge45_Node000002_Node000050"><a xlink:title=" ">
<path fill="none" stroke="#63b8ff" d="M1394.97,-288.18C1399.64,-287.38 1404.39,-286.63 1408.9,-286 1566.17,-264.02 1608.9,-266.55 1770.79,-250.1"/>
<polygon fill="#63b8ff" stroke="#63b8ff" points="1771.53,-253.54 1781.12,-249.04 1770.81,-246.58 1771.53,-253.54"/>
</a>
</g>
</g>
<!-- Node51 -->
<g id="Node000051" class="node">
<title>Node51</title>
<g id="a_Node000051"><a xlink:title=" ">
<polygon fill="#e0e0e0" stroke="#999999" points="687.9,-250 541.9,-250 541.9,-231 687.9,-231 687.9,-250"/>
<text text-anchor="middle" x="614.9" y="-238" font-family="Helvetica,sans-Serif" font-size="10.00">device_get_output_decls.h</text>
</a>
</g>
</g>
<!-- Node2&#45;&gt;Node51 -->
<g id="edge46_Node000002_Node000051" class="edge">
<title>Node2&#45;&gt;Node51</title>
<g id="a_edge46_Node000002_Node000051"><a xlink:title=" ">
<path fill="none" stroke="#63b8ff" d="M1328.66,-292.71C1232.73,-287.44 946.97,-271.1 698.52,-250.11"/>
<polygon fill="#63b8ff" stroke="#63b8ff" points="698.47,-246.59 688.21,-249.23 697.88,-253.57 698.47,-246.59"/>
</a>
</g>
</g>
<!-- Node52 -->
<g id="Node000052" class="node">
<title>Node52</title>
<g id="a_Node000052"><a xlink:title=" ">
<polygon fill="#e0e0e0" stroke="#999999" points="845.9,-250 705.9,-250 705.9,-231 845.9,-231 845.9,-250"/>
<text text-anchor="middle" x="775.9" y="-238" font-family="Helvetica,sans-Serif" font-size="10.00">device_get_input_decls.h</text>
</a>
</g>
</g>
<!-- Node2&#45;&gt;Node52 -->
<g id="edge47_Node000002_Node000052" class="edge">
<title>Node2&#45;&gt;Node52</title>
<g id="a_edge47_Node000002_Node000052"><a xlink:title=" ">
<path fill="none" stroke="#63b8ff" d="M1328.66,-291.81C1249.09,-285.32 1041.12,-268.07 856.28,-250.12"/>
<polygon fill="#63b8ff" stroke="#63b8ff" points="856.4,-246.61 846.11,-249.13 855.72,-253.58 856.4,-246.61"/>
</a>
</g>
</g>
<!-- Node53 -->
<g id="Node000053" class="node">
<title>Node53</title>
<g id="a_Node000053"><a xlink:title=" ">
<polygon fill="#e0e0e0" stroke="#999999" points="993.9,-250 863.9,-250 863.9,-231 993.9,-231 993.9,-250"/>
<text text-anchor="middle" x="928.9" y="-238" font-family="Helvetica,sans-Serif" font-size="10.00">get_vtxbufs_declares.h</text>
</a>
</g>
</g>
<!-- Node2&#45;&gt;Node53 -->
<g id="edge48_Node000002_Node000053" class="edge">
<title>Node2&#45;&gt;Node53</title>
<g id="a_edge48_Node000002_Node000053"><a xlink:title=" ">
<path fill="none" stroke="#63b8ff" d="M1328.64,-290.43C1259.67,-281.99 1099.54,-262.39 1004.2,-250.72"/>
<polygon fill="#63b8ff" stroke="#63b8ff" points="1004.4,-247.21 994.05,-249.47 1003.55,-254.16 1004.4,-247.21"/>
</a>
</g>
</g>
<!-- Node54 -->
<g id="Node000054" class="node">
<title>Node54</title>
<g id="a_Node000054"><a xlink:href="astaroth__runtime__compilation_8h.html" target="_top" xlink:title=" ">
<polygon fill="white" stroke="#666666" points="1185.4,-250 1012.4,-250 1012.4,-231 1185.4,-231 1185.4,-250"/>
<text text-anchor="middle" x="1098.9" y="-238" font-family="Helvetica,sans-Serif" font-size="10.00">astaroth_runtime_compilation.h</text>
</a>
</g>
</g>
<!-- Node2&#45;&gt;Node54 -->
<g id="edge49_Node000002_Node000054" class="edge">
<title>Node2&#45;&gt;Node54</title>
<g id="a_edge49_Node000002_Node000054"><a xlink:title=" ">
<path fill="none" stroke="#63b8ff" d="M1328.86,-287.84C1284.14,-278.83 1203.89,-262.66 1151.01,-252"/>
<polygon fill="#63b8ff" stroke="#63b8ff" points="1151.64,-248.56 1141.15,-250.01 1150.26,-255.42 1151.64,-248.56"/>
</a>
</g>
</g>
<!-- Node2&#45;&gt;Node55 -->
<g id="edge50_Node000002_Node000055" class="edge">
<title>Node2&#45;&gt;Node55</title>
<g id="a_edge50_Node000002_Node000055"><a xlink:title=" ">
<path fill="none" stroke="#63b8ff" d="M1394.96,-288.05C1399.63,-287.28 1404.38,-286.56 1408.9,-286 1635.53,-257.75 1698.09,-283.97 1928.24,-249.81"/>
<polygon fill="#63b8ff" stroke="#63b8ff" points="1928.89,-253.25 1938.26,-248.3 1927.85,-246.33 1928.89,-253.25"/>
</a>
</g>
</g>
<!-- Node4 -->
<g id="Node000004" class="node">
<title>Node4</title>
<g id="a_Node000004"><a xlink:title=" ">
<polygon fill="#e0e0e0" stroke="#999999" points="1350.9,-74 1288.9,-74 1288.9,-55 1350.9,-55 1350.9,-74"/>
<text text-anchor="middle" x="1319.9" y="-62" font-family="Helvetica,sans-Serif" font-size="10.00">stdbool.h</text>
</a>
</g>
</g>
<!-- Node3&#45;&gt;Node4 -->
<g id="edge3_Node000003_Node000004" class="edge">
<title>Node3&#45;&gt;Node4</title>
<g id="a_edge3_Node000003_Node000004"><a xlink:title=" ">
<path fill="none" stroke="#63b8ff" d="M1255.33,-230.79C1264.6,-212.34 1286.37,-167.85 1300.9,-129 1306.45,-114.16 1311.53,-96.92 1315.03,-84.15"/>
<polygon fill="#63b8ff" stroke="#63b8ff" points="1318.48,-84.81 1317.68,-74.25 1311.72,-83 1318.48,-84.81"/>
</a>
</g>
</g>
<!-- Node5 -->
<g id="Node000005" class="node">
<title>Node5</title>
<g id="a_Node000005"><a xlink:href="ac__mpi_8h.html" target="_top" xlink:title=" ">
<polygon fill="white" stroke="#666666" points="794.4,-189.5 733.4,-189.5 733.4,-170.5 794.4,-170.5 794.4,-189.5"/>
<text text-anchor="middle" x="763.9" y="-177.5" font-family="Helvetica,sans-Serif" font-size="10.00">ac_mpi.h</text>
</a>
</g>
</g>
<!-- Node3&#45;&gt;Node5 -->
<g id="edge4_Node000003_Node000005" class="edge">
<title>Node3&#45;&gt;Node5</title>
<g id="a_edge4_Node000003_Node000005"><a xlink:title=" ">
<path fill="none" stroke="#63b8ff" d="M1203.34,-232.2C1200.15,-231.78 1196.98,-231.37 1193.9,-231 1020.64,-210.12 973.28,-232.78 802.9,-195 800.07,-194.37 797.16,-193.59 794.28,-192.73"/>
<polygon fill="#63b8ff" stroke="#63b8ff" points="795.26,-189.37 784.67,-189.55 793.06,-196.01 795.26,-189.37"/>
</a>
</g>
</g>
<!-- Node6 -->
<g id="Node000006" class="node">
<title>Node6</title>
<g id="a_Node000006"><a xlink:href="acc__runtime_8h.html" target="_top" xlink:title=" ">
<polygon fill="#fff0f0" stroke="red" points="1047.9,-189.5 961.9,-189.5 961.9,-170.5 1047.9,-170.5 1047.9,-189.5"/>
<text text-anchor="middle" x="1004.9" y="-177.5" font-family="Helvetica,sans-Serif" font-size="10.00">acc_runtime.h</text>
</a>
</g>
</g>
<!-- Node3&#45;&gt;Node6 -->
<g id="edge5_Node000003_Node000006" class="edge">
<title>Node3&#45;&gt;Node6</title>
<g id="a_edge5_Node000003_Node000006"><a xlink:title=" ">
<path fill="none" stroke="#63b8ff" d="M1215.13,-230.99C1171.59,-220.64 1098,-203.14 1050.45,-191.83"/>
<polygon fill="#63b8ff" stroke="#63b8ff" points="1051.25,-188.43 1040.72,-189.52 1049.64,-195.24 1051.25,-188.43"/>
</a>
</g>
</g>
<!-- Node26 -->
<g id="Node000026" class="node">
<title>Node26</title>
<g id="a_Node000026"><a xlink:title=" ">
<polygon fill="#e0e0e0" stroke="#999999" points="1191.4,-129 1052.4,-129 1052.4,-110 1191.4,-110 1191.4,-129"/>
<text text-anchor="middle" x="1121.9" y="-117" font-family="Helvetica,sans-Serif" font-size="10.00">user_built&#45;in_constants.h</text>
</a>
</g>
</g>
<!-- Node3&#45;&gt;Node26 -->
<g id="edge37_Node000003_Node000026" class="edge">
<title>Node3&#45;&gt;Node26</title>
<g id="a_edge37_Node000003_Node000026"><a xlink:title=" ">
<path fill="none" stroke="#63b8ff" d="M1241.63,-230.94C1220.16,-211.14 1166.8,-161.91 1139.14,-136.4"/>
<polygon fill="#63b8ff" stroke="#63b8ff" points="1141.17,-133.51 1131.44,-129.3 1136.42,-138.65 1141.17,-133.51"/>
</a>
</g>
</g>
<!-- Node40 -->
<g id="Node000040" class="node">
<title>Node40</title>
<g id="a_Node000040"><a xlink:href="func__define_8h.html" target="_top" xlink:title=" ">
<polygon fill="white" stroke="#666666" points="1291.9,-129 1209.9,-129 1209.9,-110 1291.9,-110 1291.9,-129"/>
<text text-anchor="middle" x="1250.9" y="-117" font-family="Helvetica,sans-Serif" font-size="10.00">func_define.h</text>
</a>
</g>
</g>
<!-- Node3&#45;&gt;Node40 -->
<g id="edge36_Node000003_Node000040" class="edge">
<title>Node3&#45;&gt;Node40</title>
<g id="a_edge36_Node000003_Node000040"><a xlink:title=" ">
<path fill="none" stroke="#63b8ff" d="M1250.9,-230.94C1250.9,-211.91 1250.9,-165.69 1250.9,-139.47"/>
<polygon fill="#63b8ff" stroke="#63b8ff" points="1254.4,-139.3 1250.9,-129.3 1247.4,-139.3 1254.4,-139.3"/>
</a>
</g>
</g>
<!-- Node43 -->
<g id="Node000043" class="node">
<title>Node43</title>
<g id="a_Node000043"><a xlink:title=" ">
<polygon fill="#e0e0e0" stroke="#999999" points="943.4,-195 812.4,-195 812.4,-165 943.4,-165 943.4,-195"/>
<text text-anchor="start" x="820.4" y="-183" font-family="Helvetica,sans-Serif" font-size="10.00">user_builtin_non_scalar</text>
<text text-anchor="middle" x="877.9" y="-172" font-family="Helvetica,sans-Serif" font-size="10.00">_constants.h</text>
</a>
</g>
</g>
<!-- Node3&#45;&gt;Node43 -->
<g id="edge38_Node000003_Node000043" class="edge">
<title>Node3&#45;&gt;Node43</title>
<g id="a_edge38_Node000003_Node000043"><a xlink:title=" ">
<path fill="none" stroke="#63b8ff" d="M1203.29,-232.4C1129.53,-221.4 992.69,-200.99 953.65,-194.99"/>
<polygon fill="#63b8ff" stroke="#63b8ff" points="954.15,-191.52 943.73,-193.43 953.06,-198.44 954.15,-191.52"/>
</a>
</g>
</g>
<!-- Node6&#45;&gt;Node4 -->
<g id="edge7_Node000006_Node000004" class="edge">
<title>Node6&#45;&gt;Node4</title>
<g id="a_edge7_Node000006_Node000004"><a xlink:title=" ">
<path fill="none" stroke="#63b8ff" d="M1007.06,-170.1C1011.21,-155.03 1021.82,-124.72 1042.9,-110 1127.27,-51.11 1171.74,-90.24 1278.42,-73.87"/>
<polygon fill="#63b8ff" stroke="#63b8ff" points="1279.31,-77.27 1288.6,-72.17 1278.16,-70.36 1279.31,-77.27"/>
</a>
</g>
</g>
<!-- Node7 -->
<g id="Node000007" class="node">
<title>Node7</title>
<g id="a_Node000007"><a xlink:title=" ">
<polygon fill="#e0e0e0" stroke="#999999" points="554.9,-74 504.9,-74 504.9,-55 554.9,-55 554.9,-74"/>
<text text-anchor="middle" x="529.9" y="-62" font-family="Helvetica,sans-Serif" font-size="10.00">stdio.h</text>
</a>
</g>
</g>
<!-- Node6&#45;&gt;Node7 -->
<g id="edge6_Node000006_Node000007" class="edge">
<title>Node6&#45;&gt;Node7</title>
<g id="a_edge6_Node000006_Node000007"><a xlink:title=" ">
<path fill="none" stroke="#63b8ff" d="M973.27,-170.49C966.25,-168.64 958.83,-166.73 951.9,-165 783.23,-122.95 737.72,-115.95 565.07,-74.26"/>
<polygon fill="#63b8ff" stroke="#63b8ff" points="565.69,-70.8 555.14,-71.85 564.04,-77.61 565.69,-70.8"/>
</a>
</g>
</g>
<!-- Node8 -->
<g id="Node000008" class="node">
<title>Node8</title>
<g id="a_Node000008"><a xlink:href="device__headers_8h.html" target="_top" xlink:title=" ">
<polygon fill="white" stroke="#666666" points="794.9,-74 692.9,-74 692.9,-55 794.9,-55 794.9,-74"/>
<text text-anchor="middle" x="743.9" y="-62" font-family="Helvetica,sans-Serif" font-size="10.00">device_headers.h</text>
</a>
</g>
</g>
<!-- Node6&#45;&gt;Node8 -->
<g id="edge8_Node000006_Node000008" class="edge">
<title>Node6&#45;&gt;Node8</title>
<g id="a_edge8_Node000006_Node000008"><a xlink:title=" ">
<path fill="none" stroke="#63b8ff" d="M972.43,-170.46C941.14,-161.74 892.81,-146.95 852.9,-129 821.06,-114.68 786.61,-93.57 765.15,-79.68"/>
<polygon fill="#63b8ff" stroke="#63b8ff" points="766.8,-76.58 756.52,-74.04 762.97,-82.44 766.8,-76.58"/>
</a>
</g>
</g>
<!-- Node11 -->
<g id="Node000011" class="node">
<title>Node11</title>
<g id="a_Node000011"><a xlink:title=" ">
<polygon fill="#e0e0e0" stroke="#999999" points="1270.4,-74 1175.4,-74 1175.4,-55 1270.4,-55 1270.4,-74"/>
<text text-anchor="middle" x="1222.9" y="-62" font-family="Helvetica,sans-Serif" font-size="10.00">builtin_enums.h</text>
</a>
</g>
</g>
<!-- Node6&#45;&gt;Node11 -->
<g id="edge11_Node000006_Node000011" class="edge">
<title>Node6&#45;&gt;Node11</title>
<g id="a_edge11_Node000006_Node000011"><a xlink:title=" ">
<path fill="none" stroke="#63b8ff" d="M1002.52,-170.12C999.22,-155.62 995.2,-126.82 1009.9,-110 1015.09,-104.07 1104.11,-86.94 1165.4,-75.75"/>
<polygon fill="#63b8ff" stroke="#63b8ff" points="1166.15,-79.17 1175.36,-73.94 1164.9,-72.29 1166.15,-79.17"/>
</a>
</g>
</g>
<!-- Node12 -->
<g id="Node000012" class="node">
<title>Node12</title>
<g id="a_Node000012"><a xlink:href="datatypes_8h.html" target="_top" xlink:title=" ">
<polygon fill="white" stroke="#666666" points="935.9,-129 861.9,-129 861.9,-110 935.9,-110 935.9,-129"/>
<text text-anchor="middle" x="898.9" y="-117" font-family="Helvetica,sans-Serif" font-size="10.00">datatypes.h</text>
</a>
</g>
</g>
<!-- Node6&#45;&gt;Node12 -->
<g id="edge12_Node000006_Node000012" class="edge">
<title>Node6&#45;&gt;Node12</title>
<g id="a_edge12_Node000006_Node000012"><a xlink:title=" ">
<path fill="none" stroke="#63b8ff" d="M989.26,-170.37C971.96,-160.82 943.85,-145.31 923.58,-134.12"/>
<polygon fill="#63b8ff" stroke="#63b8ff" points="925.05,-130.93 914.61,-129.17 921.67,-137.06 925.05,-130.93"/>
</a>
</g>
</g>
<!-- Node20 -->
<g id="Node000020" class="node">
<title>Node20</title>
<g id="a_Node000020"><a xlink:href="errchk_8h.html" target="_top" xlink:title="Brief info.">
<polygon fill="white" stroke="#666666" points="503.9,-129 447.9,-129 447.9,-110 503.9,-110 503.9,-129"/>
<text text-anchor="middle" x="475.9" y="-117" font-family="Helvetica,sans-Serif" font-size="10.00">errchk.h</text>
</a>
</g>
</g>
<!-- Node6&#45;&gt;Node20 -->
<g id="edge24_Node000006_Node000020" class="edge">
<title>Node6&#45;&gt;Node20</title>
<g id="a_edge24_Node000006_Node000020"><a xlink:title=" ">
<path fill="none" stroke="#63b8ff" d="M976.22,-170.44C968.4,-168.38 959.87,-166.37 951.9,-165 761.16,-132.16 709.53,-156.24 517.9,-129 516.8,-128.84 515.68,-128.68 514.55,-128.5"/>
<polygon fill="#63b8ff" stroke="#63b8ff" points="514.74,-124.98 504.29,-126.71 513.54,-131.88 514.74,-124.98"/>
</a>
</g>
</g>
<!-- Node6&#45;&gt;Node26 -->
<g id="edge33_Node000006_Node000026" class="edge">
<title>Node6&#45;&gt;Node26</title>
<g id="a_edge33_Node000006_Node000026"><a xlink:title=" ">
<path fill="none" stroke="#63b8ff" d="M1021.92,-170.49C1041.33,-160.79 1073.29,-144.81 1095.84,-133.53"/>
<polygon fill="#63b8ff" stroke="#63b8ff" points="1097.49,-136.62 1104.87,-129.02 1094.36,-130.36 1097.49,-136.62"/>
</a>
</g>
</g>
<!-- Node27 -->
<g id="Node000027" class="node">
<title>Node27</title>
<g id="a_Node000027"><a xlink:href="func__attributes_8h.html" target="_top" xlink:title=" ">
<polygon fill="white" stroke="#666666" points="116.4,-74 17.4,-74 17.4,-55 116.4,-55 116.4,-74"/>
<text text-anchor="middle" x="66.9" y="-62" font-family="Helvetica,sans-Serif" font-size="10.00">func_attributes.h</text>
</a>
</g>
</g>
<!-- Node6&#45;&gt;Node27 -->
<g id="edge34_Node000006_Node000027" class="edge">
<title>Node6&#45;&gt;Node27</title>
<g id="a_edge34_Node000006_Node000027"><a xlink:title=" ">
<path fill="none" stroke="#63b8ff" d="M976.51,-170.45C968.61,-168.36 959.98,-166.34 951.9,-165 726.41,-127.65 665.83,-156.26 438.9,-129 324.05,-115.2 190.66,-90.23 118.95,-76.06"/>
<polygon fill="#63b8ff" stroke="#63b8ff" points="119.31,-72.57 108.82,-74.05 117.95,-79.43 119.31,-72.57"/>
</a>
</g>
</g>
<!-- Node6&#45;&gt;Node40 -->
<g id="edge35_Node000006_Node000040" class="edge">
<title>Node6&#45;&gt;Node40</title>
<g id="a_edge35_Node000006_Node000040"><a xlink:title=" ">
<path fill="none" stroke="#63b8ff" d="M1040.67,-170.49C1084.22,-160.14 1157.81,-142.64 1205.36,-131.33"/>
<polygon fill="#63b8ff" stroke="#63b8ff" points="1206.17,-134.74 1215.09,-129.02 1204.55,-127.93 1206.17,-134.74"/>
</a>
</g>
</g>
<!-- Node9 -->
<g id="Node000009" class="node">
<title>Node9</title>
<g id="a_Node000009"><a xlink:title=" ">
<polygon fill="#e0e0e0" stroke="#999999" points="972.4,-19 859.4,-19 859.4,0 972.4,0 972.4,-19"/>
<text text-anchor="middle" x="915.9" y="-7" font-family="Helvetica,sans-Serif" font-size="10.00">cuda_runtime_api.h</text>
</a>
</g>
</g>
<!-- Node8&#45;&gt;Node9 -->
<g id="edge9_Node000008_Node000009" class="edge">
<title>Node8&#45;&gt;Node9</title>
<g id="a_edge9_Node000008_Node000009"><a xlink:title=" ">
<path fill="none" stroke="#63b8ff" d="M771.54,-54.98C800.41,-46.09 845.91,-32.07 878.11,-22.15"/>
<polygon fill="#63b8ff" stroke="#63b8ff" points="879.53,-25.37 888.05,-19.08 877.46,-18.68 879.53,-25.37"/>
</a>
</g>
</g>
<!-- Node10 -->
<g id="Node000010" class="node">
<title>Node10</title>
<g id="a_Node000010"><a xlink:title=" ">
<polygon fill="#e0e0e0" stroke="#999999" points="781.9,-19 705.9,-19 705.9,0 781.9,0 781.9,-19"/>
<text text-anchor="middle" x="743.9" y="-7" font-family="Helvetica,sans-Serif" font-size="10.00">cuda_fp16.h</text>
</a>
</g>
</g>
<!-- Node8&#45;&gt;Node10 -->
<g id="edge10_Node000008_Node000010" class="edge">
<title>Node8&#45;&gt;Node10</title>
<g id="a_edge10_Node000008_Node000010"><a xlink:title=" ">
<path fill="none" stroke="#63b8ff" d="M743.9,-54.75C743.9,-47.8 743.9,-37.85 743.9,-29.13"/>
<polygon fill="#63b8ff" stroke="#63b8ff" points="747.4,-29.09 743.9,-19.09 740.4,-29.09 747.4,-29.09"/>
</a>
</g>
</g>
<!-- Node12&#45;&gt;Node8 -->
<g id="edge15_Node000012_Node000008" class="edge">
<title>Node12&#45;&gt;Node8</title>
<g id="a_edge15_Node000012_Node000008"><a xlink:title=" ">
<path fill="none" stroke="#63b8ff" d="M874,-109.98C848.2,-101.16 807.68,-87.31 778.72,-77.41"/>
<polygon fill="#63b8ff" stroke="#63b8ff" points="779.6,-74.01 769,-74.08 777.33,-80.63 779.6,-74.01"/>
</a>
</g>
</g>
<!-- Node12&#45;&gt;Node9 -->
<g id="edge17_Node000012_Node000009" class="edge">
<title>Node12&#45;&gt;Node9</title>
<g id="a_edge17_Node000012_Node000009"><a xlink:title=" ">
<path fill="none" stroke="#63b8ff" d="M916.67,-109.96C929.92,-102.51 947.02,-90.33 954.9,-74 963.18,-56.86 949.06,-38.45 935.55,-25.89"/>
<polygon fill="#63b8ff" stroke="#63b8ff" points="937.7,-23.11 927.85,-19.22 933.12,-28.41 937.7,-23.11"/>
</a>
</g>
</g>
<!-- Node12&#45;&gt;Node11 -->
<g id="edge19_Node000012_Node000011" class="edge">
<title>Node12&#45;&gt;Node11</title>
<g id="a_edge19_Node000012_Node000011"><a xlink:title=" ">
<path fill="none" stroke="#63b8ff" d="M936.07,-112.42C992.2,-103.24 1099.05,-85.76 1165.31,-74.92"/>
<polygon fill="#63b8ff" stroke="#63b8ff" points="1165.87,-78.38 1175.18,-73.31 1164.74,-71.47 1165.87,-78.38"/>
</a>
</g>
</g>
<!-- Node13 -->
<g id="Node000013" class="node">
<title>Node13</title>
<g id="a_Node000013"><a xlink:title=" ">
<polygon fill="#e0e0e0" stroke="#999999" points="1050.4,-74 1003.4,-74 1003.4,-55 1050.4,-55 1050.4,-74"/>
<text text-anchor="middle" x="1026.9" y="-62" font-family="Helvetica,sans-Serif" font-size="10.00">float.h</text>
</a>
</g>
</g>
<!-- Node12&#45;&gt;Node13 -->
<g id="edge13_Node000012_Node000013" class="edge">
<title>Node12&#45;&gt;Node13</title>
<g id="a_edge13_Node000012_Node000013"><a xlink:title=" ">
<path fill="none" stroke="#63b8ff" d="M919.47,-109.98C940.34,-101.34 972.87,-87.87 996.68,-78.02"/>
<polygon fill="#63b8ff" stroke="#63b8ff" points="998.06,-81.23 1005.96,-74.17 995.38,-74.76 998.06,-81.23"/>
</a>
</g>
</g>
<!-- Node14 -->
<g id="Node000014" class="node">
<title>Node14</title>
<g id="a_Node000014"><a xlink:title=" ">
<polygon fill="#e0e0e0" stroke="#999999" points="382.4,-74 331.4,-74 331.4,-55 382.4,-55 382.4,-74"/>
<text text-anchor="middle" x="356.9" y="-62" font-family="Helvetica,sans-Serif" font-size="10.00">math.h</text>
</a>
</g>
</g>
<!-- Node12&#45;&gt;Node14 -->
<g id="edge14_Node000012_Node000014" class="edge">
<title>Node12&#45;&gt;Node14</title>
<g id="a_edge14_Node000012_Node000014"><a xlink:title=" ">
<path fill="none" stroke="#63b8ff" d="M861.77,-117.16C779.16,-113.76 573.88,-103.06 392.42,-73.8"/>
<polygon fill="#63b8ff" stroke="#63b8ff" points="392.86,-70.33 382.43,-72.17 391.73,-77.24 392.86,-70.33"/>
</a>
</g>
</g>
<!-- Node15 -->
<g id="Node000015" class="node">
<title>Node15</title>
<g id="a_Node000015"><a xlink:title=" ">
<polygon fill="#e0e0e0" stroke="#999999" points="1157.4,-74 1068.4,-74 1068.4,-55 1157.4,-55 1157.4,-74"/>
<text text-anchor="middle" x="1112.9" y="-62" font-family="Helvetica,sans-Serif" font-size="10.00">vector_types.h</text>
</a>
</g>
</g>
<!-- Node12&#45;&gt;Node15 -->
<g id="edge16_Node000012_Node000015" class="edge">
<title>Node12&#45;&gt;Node15</title>
<g id="a_edge16_Node000012_Node000015"><a xlink:title=" ">
<path fill="none" stroke="#63b8ff" d="M933.29,-109.98C969.99,-100.89 1028.28,-86.46 1068.45,-76.51"/>
<polygon fill="#63b8ff" stroke="#63b8ff" points="1069.39,-79.88 1078.25,-74.08 1067.7,-73.09 1069.39,-79.88"/>
</a>
</g>
</g>
<!-- Node16 -->
<g id="Node000016" class="node">
<title>Node16</title>
<g id="a_Node000016"><a xlink:href="acreal_8h.html" target="_top" xlink:title=" ">
<polygon fill="white" stroke="#666666" points="669.9,-19 613.9,-19 613.9,0 669.9,0 669.9,-19"/>
<text text-anchor="middle" x="641.9" y="-7" font-family="Helvetica,sans-Serif" font-size="10.00">acreal.h</text>
</a>
</g>
</g>
<!-- Node12&#45;&gt;Node16 -->
<g id="edge18_Node000012_Node000016" class="edge">
<title>Node12&#45;&gt;Node16</title>
<g id="a_edge18_Node000012_Node000016"><a xlink:title=" ">
<path fill="none" stroke="#63b8ff" d="M888.46,-109.86C871.65,-96.34 837.1,-70.17 803.9,-55 763.39,-36.49 713.57,-24.23 679.96,-17.35"/>
<polygon fill="#63b8ff" stroke="#63b8ff" points="680.57,-13.9 670.08,-15.38 679.2,-20.76 680.57,-13.9"/>
</a>
</g>
</g>
<!-- Node17 -->
<g id="Node000017" class="node">
<title>Node17</title>
<g id="a_Node000017"><a xlink:title=" ">
<polygon fill="#e0e0e0" stroke="#999999" points="946.4,-74 851.4,-74 851.4,-55 946.4,-55 946.4,-74"/>
<text text-anchor="middle" x="898.9" y="-62" font-family="Helvetica,sans-Serif" font-size="10.00">user_typedefs.h</text>
</a>
</g>
</g>
<!-- Node12&#45;&gt;Node17 -->
<g id="edge20_Node000012_Node000017" class="edge">
<title>Node12&#45;&gt;Node17</title>
<g id="a_edge20_Node000012_Node000017"><a xlink:title=" ">
<path fill="none" stroke="#63b8ff" d="M898.9,-109.75C898.9,-102.8 898.9,-92.85 898.9,-84.13"/>
<polygon fill="#63b8ff" stroke="#63b8ff" points="902.4,-84.09 898.9,-74.09 895.4,-84.09 902.4,-84.09"/>
</a>
</g>
</g>
<!-- Node18 -->
<g id="Node000018" class="node">
<title>Node18</title>
<g id="a_Node000018"><a xlink:href="host__datatypes_8h.html" target="_top" xlink:title=" ">
<polygon fill="white" stroke="#666666" points="674.4,-74 573.4,-74 573.4,-55 674.4,-55 674.4,-74"/>
<text text-anchor="middle" x="623.9" y="-62" font-family="Helvetica,sans-Serif" font-size="10.00">host_datatypes.h</text>
</a>
</g>
</g>
<!-- Node12&#45;&gt;Node18 -->
<g id="edge21_Node000012_Node000018" class="edge">
<title>Node12&#45;&gt;Node18</title>
<g id="a_edge21_Node000012_Node000018"><a xlink:title=" ">
<path fill="none" stroke="#63b8ff" d="M861.81,-111.35C814.57,-102.25 732.56,-86.44 678.25,-75.98"/>
<polygon fill="#63b8ff" stroke="#63b8ff" points="678.6,-72.48 668.12,-74.02 677.27,-79.35 678.6,-72.48"/>
</a>
</g>
</g>
<!-- Node18&#45;&gt;Node16 -->
<g id="edge22_Node000018_Node000016" class="edge">
<title>Node18&#45;&gt;Node16</title>
<g id="a_edge22_Node000018_Node000016"><a xlink:title=" ">
<path fill="none" stroke="#63b8ff" d="M626.88,-54.75C629.26,-47.72 632.69,-37.62 635.67,-28.84"/>
<polygon fill="#63b8ff" stroke="#63b8ff" points="639.08,-29.68 638.99,-19.09 632.46,-27.43 639.08,-29.68"/>
</a>
</g>
</g>
<!-- Node19 -->
<g id="Node000019" class="node">
<title>Node19</title>
<g id="a_Node000019"><a xlink:title=" ">
<polygon fill="#e0e0e0" stroke="#999999" points="559.9,-19 503.9,-19 503.9,0 559.9,0 559.9,-19"/>
<text text-anchor="middle" x="531.9" y="-7" font-family="Helvetica,sans-Serif" font-size="10.00">stddef.h</text>
</a>
</g>
</g>
<!-- Node18&#45;&gt;Node19 -->
<g id="edge23_Node000018_Node000019" class="edge">
<title>Node18&#45;&gt;Node19</title>
<g id="a_edge23_Node000018_Node000019"><a xlink:title=" ">
<path fill="none" stroke="#63b8ff" d="M609.12,-54.98C594.72,-46.69 572.59,-33.94 555.71,-24.22"/>
<polygon fill="#63b8ff" stroke="#63b8ff" points="557.37,-21.13 546.95,-19.17 553.87,-27.19 557.37,-21.13"/>
</a>
</g>
</g>
<!-- Node20&#45;&gt;Node4 -->
<g id="edge27_Node000020_Node000004" class="edge">
<title>Node20&#45;&gt;Node4</title>
<g id="a_edge27_Node000020_Node000004"><a xlink:title=" ">
<path fill="none" stroke="#63b8ff" d="M504.14,-118.45C606.73,-117.97 969.52,-113.48 1278.6,-73.79"/>
<polygon fill="#63b8ff" stroke="#63b8ff" points="1279.18,-77.24 1288.65,-72.48 1278.28,-70.3 1279.18,-77.24"/>
</a>
</g>
</g>
<!-- Node20&#45;&gt;Node7 -->
<g id="edge29_Node000020_Node000007" class="edge">
<title>Node20&#45;&gt;Node7</title>
<g id="a_edge29_Node000020_Node000007"><a xlink:title=" ">
<path fill="none" stroke="#63b8ff" d="M484.82,-109.75C492.68,-102.03 504.33,-90.6 513.82,-81.28"/>
<polygon fill="#63b8ff" stroke="#63b8ff" points="516.47,-83.59 521.15,-74.09 511.56,-78.6 516.47,-83.59"/>
</a>
</g>
</g>
<!-- Node20&#45;&gt;Node8 -->
<g id="edge32_Node000020_Node000008" class="edge">
<title>Node20&#45;&gt;Node8</title>
<g id="a_edge32_Node000020_Node000008"><a xlink:title=" ">
<path fill="none" stroke="#63b8ff" d="M504.08,-112.93C548.23,-104.2 634.47,-87.14 690.61,-76.04"/>
<polygon fill="#63b8ff" stroke="#63b8ff" points="691.59,-79.41 700.72,-74.04 690.23,-72.55 691.59,-79.41"/>
</a>
</g>
</g>
<!-- Node20&#45;&gt;Node18 -->
<g id="edge26_Node000020_Node000018" class="edge">
<title>Node20&#45;&gt;Node18</title>
<g id="a_edge26_Node000020_Node000018"><a xlink:title=" ">
<path fill="none" stroke="#63b8ff" d="M499.68,-109.98C524.13,-101.23 562.44,-87.51 590.05,-77.62"/>
<polygon fill="#63b8ff" stroke="#63b8ff" points="591.46,-80.84 599.69,-74.17 589.1,-74.25 591.46,-80.84"/>
</a>
</g>
</g>
<!-- Node20&#45;&gt;Node19 -->
<g id="edge25_Node000020_Node000019" class="edge">
<title>Node20&#45;&gt;Node19</title>
<g id="a_edge25_Node000020_Node000019"><a xlink:title=" ">
<path fill="none" stroke="#63b8ff" d="M477.54,-109.88C480.17,-97.28 486.06,-73.33 495.9,-55 501.34,-44.86 509.23,-34.79 516.23,-26.8"/>
<polygon fill="#63b8ff" stroke="#63b8ff" points="518.91,-29.06 523.07,-19.31 513.74,-24.34 518.91,-29.06"/>
</a>
</g>
</g>
<!-- Node21 -->
<g id="Node000021" class="node">
<title>Node21</title>
<g id="a_Node000021"><a xlink:title=" ">
<polygon fill="#e0e0e0" stroke="#999999" points="242.4,-74 189.4,-74 189.4,-55 242.4,-55 242.4,-74"/>
<text text-anchor="middle" x="215.9" y="-62" font-family="Helvetica,sans-Serif" font-size="10.00">stdint.h</text>
</a>
</g>
</g>
<!-- Node20&#45;&gt;Node21 -->
<g id="edge28_Node000020_Node000021" class="edge">
<title>Node20&#45;&gt;Node21</title>
<g id="a_edge28_Node000020_Node000021"><a xlink:title=" ">
<path fill="none" stroke="#63b8ff" d="M447.76,-113.34C406.91,-105.75 328.59,-90.89 252.82,-74.35"/>
<polygon fill="#63b8ff" stroke="#63b8ff" points="253.15,-70.84 242.63,-72.12 251.64,-77.68 253.15,-70.84"/>
</a>
</g>
</g>
<!-- Node22 -->
<g id="Node000022" class="node">
<title>Node22</title>
<g id="a_Node000022"><a xlink:title=" ">
<polygon fill="#e0e0e0" stroke="#999999" points="313.4,-74 260.4,-74 260.4,-55 313.4,-55 313.4,-74"/>
<text text-anchor="middle" x="286.9" y="-62" font-family="Helvetica,sans-Serif" font-size="10.00">stdlib.h</text>
</a>
</g>
</g>
<!-- Node20&#45;&gt;Node22 -->
<g id="edge30_Node000020_Node000022" class="edge">
<title>Node20&#45;&gt;Node22</title>
<g id="a_edge30_Node000020_Node000022"><a xlink:title=" ">
<path fill="none" stroke="#63b8ff" d="M447.61,-110.57C414.47,-101.27 359.52,-85.86 323.26,-75.69"/>
<polygon fill="#63b8ff" stroke="#63b8ff" points="324.13,-72.3 313.56,-72.97 322.24,-79.04 324.13,-72.3"/>
</a>
</g>
</g>
<!-- Node23 -->
<g id="Node000023" class="node">
<title>Node23</title>
<g id="a_Node000023"><a xlink:title=" ">
<polygon fill="#e0e0e0" stroke="#999999" points="448.9,-74 400.9,-74 400.9,-55 448.9,-55 448.9,-74"/>
<text text-anchor="middle" x="424.9" y="-62" font-family="Helvetica,sans-Serif" font-size="10.00">time.h</text>
</a>
</g>
</g>
<!-- Node20&#45;&gt;Node23 -->
<g id="edge31_Node000020_Node000023" class="edge">
<title>Node20&#45;&gt;Node23</title>
<g id="a_edge31_Node000020_Node000023"><a xlink:title=" ">
<path fill="none" stroke="#63b8ff" d="M467.48,-109.75C460.13,-102.11 449.27,-90.82 440.36,-81.56"/>
<polygon fill="#63b8ff" stroke="#63b8ff" points="442.62,-78.87 433.17,-74.09 437.58,-83.72 442.62,-78.87"/>
</a>
</g>
</g>
<!-- Node47 -->
<g id="Node000047" class="node">
<title>Node47</title>
<g id="a_Node000047"><a xlink:title=" ">
<polygon fill="#e0e0e0" stroke="#999999" points="1580.4,-195 1461.4,-195 1461.4,-165 1580.4,-165 1580.4,-195"/>
<text text-anchor="start" x="1469.4" y="-183" font-family="Helvetica,sans-Serif" font-size="10.00">device_load_uniform</text>
<text text-anchor="middle" x="1520.9" y="-172" font-family="Helvetica,sans-Serif" font-size="10.00">_decl.h</text>
</a>
</g>
</g>
<!-- Node46&#45;&gt;Node47 -->
<g id="edge42_Node000046_Node000047" class="edge">
<title>Node46&#45;&gt;Node47</title>
<g id="a_edge42_Node000046_Node000047"><a xlink:title=" ">
<path fill="none" stroke="#63b8ff" d="M1580.57,-230.87C1571.43,-223.22 1557.71,-211.76 1545.73,-201.75"/>
<polygon fill="#63b8ff" stroke="#63b8ff" points="1547.71,-198.84 1537.79,-195.11 1543.22,-204.21 1547.71,-198.84"/>
</a>
</g>
</g>
<!-- Node48 -->
<g id="Node000048" class="node">
<title>Node48</title>
<g id="a_Node000048"><a xlink:title=" ">
<polygon fill="#e0e0e0" stroke="#999999" points="1720.9,-195 1598.9,-195 1598.9,-165 1720.9,-165 1720.9,-195"/>
<text text-anchor="start" x="1606.9" y="-183" font-family="Helvetica,sans-Serif" font-size="10.00">device_store_uniform</text>
<text text-anchor="middle" x="1659.9" y="-172" font-family="Helvetica,sans-Serif" font-size="10.00">_decl.h</text>
</a>
</g>
</g>
<!-- Node46&#45;&gt;Node48 -->
<g id="edge43_Node000046_Node000048" class="edge">
<title>Node46&#45;&gt;Node48</title>
<g id="a_edge43_Node000046_Node000048"><a xlink:title=" ">
<path fill="none" stroke="#63b8ff" d="M1601.08,-230.87C1610.1,-223.22 1623.62,-211.76 1635.43,-201.75"/>
<polygon fill="#63b8ff" stroke="#63b8ff" points="1637.89,-204.25 1643.25,-195.11 1633.36,-198.91 1637.89,-204.25"/>
</a>
</g>
</g>
<!-- Node57&#45;&gt;Node8 -->
<g id="edge53_Node000057_Node000008" class="edge">
<title>Node57&#45;&gt;Node8</title>
<g id="a_edge53_Node000057_Node000008"><a xlink:title=" ">
<path fill="none" stroke="#63b8ff" d="M835.28,-290.99C731.91,-285.24 552.61,-272.18 532.9,-250 468.11,-177.06 634.23,-105.2 709.31,-77.47"/>
<polygon fill="#63b8ff" stroke="#63b8ff" points="710.64,-80.71 718.85,-74.01 708.25,-74.13 710.64,-80.71"/>
</a>
</g>
</g>
<!-- Node58&#45;&gt;Node12 -->
<g id="edge59_Node000058_Node000012" class="edge">
<title>Node58&#45;&gt;Node12</title>
<g id="a_edge59_Node000058_Node000012"><a xlink:title=" ">
<path fill="none" stroke="#63b8ff" d="M382.49,-174.93C481.34,-164.51 743.45,-136.89 851.41,-125.51"/>
<polygon fill="#63b8ff" stroke="#63b8ff" points="852.09,-128.95 861.67,-124.42 851.36,-121.99 852.09,-128.95"/>
</a>
</g>
</g>
<!-- Node58&#45;&gt;Node14 -->
<g id="edge58_Node000058_Node000014" class="edge">
<title>Node58&#45;&gt;Node14</title>
<g id="a_edge58_Node000058_Node000014"><a xlink:title=" ">
<path fill="none" stroke="#63b8ff" d="M347.12,-170.3C350.58,-160.45 355.87,-143.82 357.9,-129 359.05,-120.63 358,-118.44 357.9,-110 357.81,-101.49 357.61,-92.07 357.41,-84.09"/>
<polygon fill="#63b8ff" stroke="#63b8ff" points="360.91,-83.94 357.15,-74.03 353.91,-84.12 360.91,-83.94"/>
</a>
</g>
</g>
<!-- Node58&#45;&gt;Node20 -->
<g id="edge60_Node000058_Node000020" class="edge">
<title>Node58&#45;&gt;Node20</title>
<g id="a_edge60_Node000058_Node000020"><a xlink:title=" ">
<path fill="none" stroke="#63b8ff" d="M363.1,-170.49C385.29,-160.66 422.02,-144.38 447.52,-133.08"/>
<polygon fill="#63b8ff" stroke="#63b8ff" points="448.96,-136.27 456.69,-129.02 446.13,-129.87 448.96,-136.27"/>
</a>
</g>
</g>
<!-- Node58&#45;&gt;Node21 -->
<g id="edge56_Node000058_Node000021" class="edge">
<title>Node58&#45;&gt;Node21</title>
<g id="a_edge56_Node000058_Node000021"><a xlink:title=" ">
<path fill="none" stroke="#63b8ff" d="M337.86,-170.2C328.05,-156.31 307.57,-128.97 285.9,-110 272.34,-98.13 255.32,-87.23 241.45,-79.19"/>
<polygon fill="#63b8ff" stroke="#63b8ff" points="242.87,-75.97 232.44,-74.11 239.43,-82.07 242.87,-75.97"/>
</a>
</g>
</g>
<!-- Node58&#45;&gt;Node22 -->
<g id="edge57_Node000058_Node000022" class="edge">
<title>Node58&#45;&gt;Node22</title>
<g id="a_edge57_Node000058_Node000022"><a xlink:title=" ">
<path fill="none" stroke="#63b8ff" d="M341.75,-170.15C338.27,-156.67 330.69,-130.41 319.9,-110 314.69,-100.13 307.42,-90.07 301.03,-82.01"/>
<polygon fill="#63b8ff" stroke="#63b8ff" points="303.64,-79.67 294.59,-74.16 298.23,-84.11 303.64,-79.67"/>
</a>
</g>
</g>
<!-- Node58&#45;&gt;Node27 -->
<g id="edge61_Node000058_Node000027" class="edge">
<title>Node58&#45;&gt;Node27</title>
<g id="a_edge61_Node000058_Node000027"><a xlink:title=" ">
<path fill="none" stroke="#63b8ff" d="M305.21,-179.33C224.68,-179.1 43.34,-173.52 4.9,-129 -10.83,-110.78 15.74,-91.14 38.84,-78.61"/>
<polygon fill="#63b8ff" stroke="#63b8ff" points="40.46,-81.71 47.74,-74.01 37.25,-75.49 40.46,-81.71"/>
</a>
</g>
</g>
<!-- Node59 -->
<g id="Node000059" class="node">
<title>Node59</title>
<g id="a_Node000059"><a xlink:href="math__utils__base_8h.html" target="_top" xlink:title=" ">
<polygon fill="white" stroke="#666666" points="119.9,-129 13.9,-129 13.9,-110 119.9,-110 119.9,-129"/>
<text text-anchor="middle" x="66.9" y="-117" font-family="Helvetica,sans-Serif" font-size="10.00">math_utils_base.h</text>
</a>
</g>
</g>
<!-- Node58&#45;&gt;Node59 -->
<g id="edge62_Node000058_Node000059" class="edge">
<title>Node58&#45;&gt;Node59</title>
<g id="a_edge62_Node000058_Node000059"><a xlink:title=" ">
<path fill="none" stroke="#63b8ff" d="M305.39,-170.87C256.37,-160.51 171.57,-142.6 117.41,-131.17"/>
<polygon fill="#63b8ff" stroke="#63b8ff" points="117.85,-127.68 107.34,-129.04 116.4,-134.53 117.85,-127.68"/>
</a>
</g>
</g>
<!-- Node60 -->
<g id="Node000060" class="node">
<title>Node60</title>
<g id="a_Node000060"><a xlink:title=" ">
<polygon fill="#e0e0e0" stroke="#999999" points="277.4,-129 138.4,-129 138.4,-110 277.4,-110 277.4,-129"/>
<text text-anchor="middle" x="207.9" y="-117" font-family="Helvetica,sans-Serif" font-size="10.00">generated_comp_funcs.h</text>
</a>
</g>
</g>
<!-- Node58&#45;&gt;Node60 -->
<g id="edge64_Node000058_Node000060" class="edge">
<title>Node58&#45;&gt;Node60</title>
<g id="a_edge64_Node000058_Node000060"><a xlink:title=" ">
<path fill="none" stroke="#63b8ff" d="M324.13,-170.49C301.26,-160.66 263.41,-144.38 237.15,-133.08"/>
<polygon fill="#63b8ff" stroke="#63b8ff" points="238.27,-129.75 227.7,-129.02 235.51,-136.18 238.27,-129.75"/>
</a>
</g>
</g>
<!-- Node59&#45;&gt;Node27 -->
<g id="edge63_Node000059_Node000027" class="edge">
<title>Node59&#45;&gt;Node27</title>
<g id="a_edge63_Node000059_Node000027"><a xlink:title=" ">
<path fill="none" stroke="#63b8ff" d="M66.9,-109.75C66.9,-102.8 66.9,-92.85 66.9,-84.13"/>
<polygon fill="#63b8ff" stroke="#63b8ff" points="70.4,-84.09 66.9,-74.09 63.4,-84.09 70.4,-84.09"/>
</a>
</g>
</g>
<!-- Node64 -->
<g id="Node000064" class="node">
<title>Node64</title>
<g id="a_Node000064"><a xlink:title=" ">
<polygon fill="#e0e0e0" stroke="#999999" points="2287.9,-250 2243.9,-250 2243.9,-231 2287.9,-231 2287.9,-250"/>
<text text-anchor="middle" x="2265.9" y="-238" font-family="Helvetica,sans-Serif" font-size="10.00">string</text>
</a>
</g>
</g>
<!-- Node63&#45;&gt;Node64 -->
<g id="edge68_Node000063_Node000064" class="edge">
<title>Node63&#45;&gt;Node64</title>
<g id="a_edge68_Node000063_Node000064"><a xlink:title=" ">
<path fill="none" stroke="#63b8ff" d="M2146.72,-285.98C2170.35,-277.16 2207.48,-263.31 2234.01,-253.4"/>
<polygon fill="#63b8ff" stroke="#63b8ff" points="2235.47,-256.6 2243.61,-249.82 2233.02,-250.04 2235.47,-256.6"/>
</a>
</g>
</g>
<!-- Node65 -->
<g id="Node000065" class="node">
<title>Node65</title>
<g id="a_Node000065"><a xlink:title=" ">
<polygon fill="#e0e0e0" stroke="#999999" points="2122.4,-250 2009.4,-250 2009.4,-231 2122.4,-231 2122.4,-250"/>
<text text-anchor="middle" x="2065.9" y="-238" font-family="Helvetica,sans-Serif" font-size="10.00">get_default_value.h</text>
</a>
</g>
</g>
<!-- Node63&#45;&gt;Node65 -->
<g id="edge69_Node000063_Node000065" class="edge">
<title>Node63&#45;&gt;Node65</title>
<g id="a_edge69_Node000063_Node000065"><a xlink:title=" ">
<path fill="none" stroke="#63b8ff" d="M2114.58,-285.98C2106.09,-278.23 2093.34,-266.58 2083.02,-257.14"/>
<polygon fill="#63b8ff" stroke="#63b8ff" points="2085.13,-254.33 2075.39,-250.17 2080.41,-259.5 2085.13,-254.33"/>
</a>
</g>
</g>
<!-- Node66 -->
<g id="Node000066" class="node">
<title>Node66</title>
<g id="a_Node000066"><a xlink:title=" ">
<polygon fill="#e0e0e0" stroke="#999999" points="2225.4,-250 2140.4,-250 2140.4,-231 2225.4,-231 2225.4,-250"/>
<text text-anchor="middle" x="2182.9" y="-238" font-family="Helvetica,sans-Serif" font-size="10.00">to_str_funcs.h</text>
</a>
</g>
</g>
<!-- Node63&#45;&gt;Node66 -->
<g id="edge70_Node000063_Node000066" class="edge">
<title>Node63&#45;&gt;Node66</title>
<g id="a_edge70_Node000063_Node000066"><a xlink:title=" ">
<path fill="none" stroke="#63b8ff" d="M2133.38,-285.98C2142.1,-278.15 2155.25,-266.34 2165.8,-256.86"/>
<polygon fill="#63b8ff" stroke="#63b8ff" points="2168.15,-259.46 2173.25,-250.17 2163.47,-254.25 2168.15,-259.46"/>
</a>
</g>
</g>
</g>
</svg>
