<?xml version="1.0" encoding="UTF-8" standalone="no"?>
<!DOCTYPE svg PUBLIC "-//W3C//DTD SVG 1.1//EN"
 "http://www.w3.org/Graphics/SVG/1.1/DTD/svg11.dtd">
<!-- Generated by graphviz version 2.43.0 (0)
 -->
<!-- Title: include/astaroth.h Pages: 1 -->
<svg width="3394pt" height="324pt"
 viewBox="0.00 0.00 3394.44 324.00" xmlns="http://www.w3.org/2000/svg" xmlns:xlink="http://www.w3.org/1999/xlink">
<g id="graph0" class="graph" transform="scale(1 1) rotate(0) translate(4 320)">
<title>include/astaroth.h</title>
<!-- Node1 -->
<g id="Node000001" class="node">
<title>Node1</title>
<g id="a_Node000001"><a xlink:title=" ">
<polygon fill="#999999" stroke="#666666" points="2635.94,-316 2531.94,-316 2531.94,-297 2635.94,-297 2635.94,-316"/>
<text text-anchor="middle" x="2583.94" y="-304" font-family="Helvetica,sans-Serif" font-size="10.00">include/astaroth.h</text>
</a>
</g>
</g>
<!-- Node2 -->
<g id="Node000002" class="node">
<title>Node2</title>
<g id="a_Node000002"><a xlink:href="astaroth__base_8h.html" target="_top" xlink:title=" ">
<polygon fill="white" stroke="#666666" points="2031.44,-261 1936.44,-261 1936.44,-242 2031.44,-242 2031.44,-261"/>
<text text-anchor="middle" x="1983.94" y="-249" font-family="Helvetica,sans-Serif" font-size="10.00">astaroth_base.h</text>
</a>
</g>
</g>
<!-- Node1&#45;&gt;Node2 -->
<g id="edge1_Node000001_Node000002" class="edge">
<title>Node1&#45;&gt;Node2</title>
<g id="a_edge1_Node000001_Node000002"><a xlink:title=" ">
<path fill="none" stroke="#63b8ff" d="M2531.79,-302.38C2436.6,-296.43 2228.14,-282.25 2041.49,-260.98"/>
<polygon fill="#63b8ff" stroke="#63b8ff" points="2041.83,-257.5 2031.49,-259.83 2041.03,-264.45 2041.83,-257.5"/>
</a>
</g>
</g>
<!-- Node42 -->
<g id="Node000042" class="node">
<title>Node42</title>
<g id="a_Node000042"><a xlink:href="astaroth__grid_8h.html" target="_top" xlink:title=" ">
<polygon fill="white" stroke="#666666" points="2139.94,-261 2049.94,-261 2049.94,-242 2139.94,-242 2139.94,-261"/>
<text text-anchor="middle" x="2094.94" y="-249" font-family="Helvetica,sans-Serif" font-size="10.00">astaroth_grid.h</text>
</a>
</g>
</g>
<!-- Node1&#45;&gt;Node42 -->
<g id="edge50_Node000001_Node000042" class="edge">
<title>Node1&#45;&gt;Node42</title>
<g id="a_edge50_Node000001_Node000042"><a xlink:title=" ">
<path fill="none" stroke="#63b8ff" d="M2531.6,-301.07C2451.71,-294.1 2294.31,-279.58 2150.34,-261.12"/>
<polygon fill="#63b8ff" stroke="#63b8ff" points="2150.36,-257.59 2139.99,-259.78 2149.46,-264.53 2150.36,-257.59"/>
</a>
</g>
</g>
<!-- Node43 -->
<g id="Node000043" class="node">
<title>Node43</title>
<g id="a_Node000043"><a xlink:href="astaroth__node_8h.html" target="_top" xlink:title=" ">
<polygon fill="white" stroke="#666666" points="2253.44,-261 2158.44,-261 2158.44,-242 2253.44,-242 2253.44,-261"/>
<text text-anchor="middle" x="2205.94" y="-249" font-family="Helvetica,sans-Serif" font-size="10.00">astaroth_node.h</text>
</a>
</g>
</g>
<!-- Node1&#45;&gt;Node43 -->
<g id="edge51_Node000001_Node000043" class="edge">
<title>Node1&#45;&gt;Node43</title>
<g id="a_edge51_Node000001_Node000043"><a xlink:title=" ">
<path fill="none" stroke="#63b8ff" d="M2531.93,-298.46C2470.47,-290.1 2364.83,-275.61 2263.61,-261.08"/>
<polygon fill="#63b8ff" stroke="#63b8ff" points="2263.92,-257.59 2253.52,-259.63 2262.92,-264.52 2263.92,-257.59"/>
</a>
</g>
</g>
<!-- Node44 -->
<g id="Node000044" class="node">
<title>Node44</title>
<g id="a_Node000044"><a xlink:href="astaroth__device_8h.html" target="_top" xlink:title=" ">
<polygon fill="white" stroke="#666666" points="2375.94,-261 2271.94,-261 2271.94,-242 2375.94,-242 2375.94,-261"/>
<text text-anchor="middle" x="2323.94" y="-249" font-family="Helvetica,sans-Serif" font-size="10.00">astaroth_device.h</text>
</a>
</g>
</g>
<!-- Node1&#45;&gt;Node44 -->
<g id="edge52_Node000001_Node000044" class="edge">
<title>Node1&#45;&gt;Node44</title>
<g id="a_edge52_Node000001_Node000044"><a xlink:title=" ">
<path fill="none" stroke="#63b8ff" d="M2542.17,-296.98C2497,-287.78 2424.94,-273.09 2376.09,-263.13"/>
<polygon fill="#63b8ff" stroke="#63b8ff" points="2376.54,-259.65 2366.04,-261.08 2375.14,-266.51 2376.54,-259.65"/>
</a>
</g>
</g>
<!-- Node47 -->
<g id="Node000047" class="node">
<title>Node47</title>
<g id="a_Node000047"><a xlink:href="astaroth__legacy_8h.html" target="_top" xlink:title=" ">
<polygon fill="white" stroke="#666666" points="2495.94,-261 2393.94,-261 2393.94,-242 2495.94,-242 2495.94,-261"/>
<text text-anchor="middle" x="2444.94" y="-249" font-family="Helvetica,sans-Serif" font-size="10.00">astaroth_legacy.h</text>
</a>
</g>
</g>
<!-- Node1&#45;&gt;Node47 -->
<g id="edge55_Node000001_Node000047" class="edge">
<title>Node1&#45;&gt;Node47</title>
<g id="a_edge55_Node000001_Node000047"><a xlink:title=" ">
<path fill="none" stroke="#63b8ff" d="M2561.61,-296.98C2538.74,-288.27 2502.98,-274.63 2477.08,-264.75"/>
<polygon fill="#63b8ff" stroke="#63b8ff" points="2478.27,-261.46 2467.68,-261.17 2475.77,-268 2478.27,-261.46"/>
</a>
</g>
</g>
<!-- Node48 -->
<g id="Node000048" class="node">
<title>Node48</title>
<g id="a_Node000048"><a xlink:title=" ">
<polygon fill="#e0e0e0" stroke="#999999" points="2653.44,-261 2514.44,-261 2514.44,-242 2653.44,-242 2653.44,-261"/>
<text text-anchor="middle" x="2583.94" y="-249" font-family="Helvetica,sans-Serif" font-size="10.00">device_set_input_decls.h</text>
</a>
</g>
</g>
<!-- Node1&#45;&gt;Node48 -->
<g id="edge56_Node000001_Node000048" class="edge">
<title>Node1&#45;&gt;Node48</title>
<g id="a_edge56_Node000001_Node000048"><a xlink:title=" ">
<path fill="none" stroke="#63b8ff" d="M2583.94,-296.75C2583.94,-289.8 2583.94,-279.85 2583.94,-271.13"/>
<polygon fill="#63b8ff" stroke="#63b8ff" points="2587.44,-271.09 2583.94,-261.09 2580.44,-271.09 2587.44,-271.09"/>
</a>
</g>
</g>
<!-- Node49 -->
<g id="Node000049" class="node">
<title>Node49</title>
<g id="a_Node000049"><a xlink:title=" ">
<polygon fill="#e0e0e0" stroke="#999999" points="2817.94,-261 2671.94,-261 2671.94,-242 2817.94,-242 2817.94,-261"/>
<text text-anchor="middle" x="2744.94" y="-249" font-family="Helvetica,sans-Serif" font-size="10.00">device_get_output_decls.h</text>
</a>
</g>
</g>
<!-- Node1&#45;&gt;Node49 -->
<g id="edge57_Node000001_Node000049" class="edge">
<title>Node1&#45;&gt;Node49</title>
<g id="a_edge57_Node000001_Node000049"><a xlink:title=" ">
<path fill="none" stroke="#63b8ff" d="M2609.81,-296.98C2636.72,-288.13 2679.06,-274.19 2709.17,-264.28"/>
<polygon fill="#63b8ff" stroke="#63b8ff" points="2710.46,-267.53 2718.87,-261.08 2708.28,-260.88 2710.46,-267.53"/>
</a>
</g>
</g>
<!-- Node50 -->
<g id="Node000050" class="node">
<title>Node50</title>
<g id="a_Node000050"><a xlink:title=" ">
<polygon fill="#e0e0e0" stroke="#999999" points="2975.94,-261 2835.94,-261 2835.94,-242 2975.94,-242 2975.94,-261"/>
<text text-anchor="middle" x="2905.94" y="-249" font-family="Helvetica,sans-Serif" font-size="10.00">device_get_input_decls.h</text>
</a>
</g>
</g>
<!-- Node1&#45;&gt;Node50 -->
<g id="edge58_Node000001_Node000050" class="edge">
<title>Node1&#45;&gt;Node50</title>
<g id="a_edge58_Node000001_Node000050"><a xlink:title=" ">
<path fill="none" stroke="#63b8ff" d="M2635.67,-296.98C2692.39,-287.65 2783.37,-272.67 2843.88,-262.71"/>
<polygon fill="#63b8ff" stroke="#63b8ff" points="2844.77,-266.12 2854.07,-261.04 2843.63,-259.21 2844.77,-266.12"/>
</a>
</g>
</g>
<!-- Node51 -->
<g id="Node000051" class="node">
<title>Node51</title>
<g id="a_Node000051"><a xlink:title=" ">
<polygon fill="#e0e0e0" stroke="#999999" points="3123.94,-261 2993.94,-261 2993.94,-242 3123.94,-242 3123.94,-261"/>
<text text-anchor="middle" x="3058.94" y="-249" font-family="Helvetica,sans-Serif" font-size="10.00">get_vtxbufs_declares.h</text>
</a>
</g>
</g>
<!-- Node1&#45;&gt;Node51 -->
<g id="edge59_Node000001_Node000051" class="edge">
<title>Node1&#45;&gt;Node51</title>
<g id="a_edge59_Node000001_Node000051"><a xlink:title=" ">
<path fill="none" stroke="#63b8ff" d="M2636.17,-299.77C2710.77,-291.57 2852.4,-275.95 2983.36,-261.17"/>
<polygon fill="#63b8ff" stroke="#63b8ff" points="2984.03,-264.62 2993.57,-260.02 2983.24,-257.67 2984.03,-264.62"/>
</a>
</g>
</g>
<!-- Node52 -->
<g id="Node000052" class="node">
<title>Node52</title>
<g id="a_Node000052"><a xlink:href="astaroth__runtime__compilation_8h.html" target="_top" xlink:title=" ">
<polygon fill="white" stroke="#666666" points="3315.44,-261 3142.44,-261 3142.44,-242 3315.44,-242 3315.44,-261"/>
<text text-anchor="middle" x="3228.94" y="-249" font-family="Helvetica,sans-Serif" font-size="10.00">astaroth_runtime_compilation.h</text>
</a>
</g>
</g>
<!-- Node1&#45;&gt;Node52 -->
<g id="edge60_Node000001_Node000052" class="edge">
<title>Node1&#45;&gt;Node52</title>
<g id="a_edge60_Node000001_Node000052"><a xlink:title=" ">
<path fill="none" stroke="#63b8ff" d="M2636.18,-301.4C2732.07,-293.83 2942.89,-277.08 3132.19,-261.06"/>
<polygon fill="#63b8ff" stroke="#63b8ff" points="3132.67,-264.53 3142.33,-260.2 3132.07,-257.55 3132.67,-264.53"/>
</a>
</g>
</g>
<!-- Node53 -->
<g id="Node000053" class="node">
<title>Node53</title>
<g id="a_Node000053"><a xlink:title=" ">
<polygon fill="#e0e0e0" stroke="#999999" points="3386.44,-261 3333.44,-261 3333.44,-242 3386.44,-242 3386.44,-261"/>
<text text-anchor="middle" x="3359.94" y="-249" font-family="Helvetica,sans-Serif" font-size="10.00">string.h</text>
</a>
</g>
</g>
<!-- Node1&#45;&gt;Node53 -->
<g id="edge61_Node000001_Node000053" class="edge">
<title>Node1&#45;&gt;Node53</title>
<g id="a_edge61_Node000001_Node000053"><a xlink:title=" ">
<path fill="none" stroke="#63b8ff" d="M2636.38,-305.55C2756.52,-304.98 3060.91,-299.62 3323.19,-261"/>
<polygon fill="#63b8ff" stroke="#63b8ff" points="3323.91,-264.43 3333.28,-259.49 3322.88,-257.51 3323.91,-264.43"/>
</a>
</g>
</g>
<!-- Node3 -->
<g id="Node000003" class="node">
<title>Node3</title>
<g id="a_Node000003"><a xlink:title=" ">
<polygon fill="#e0e0e0" stroke="#999999" points="1926.94,-74 1864.94,-74 1864.94,-55 1926.94,-55 1926.94,-74"/>
<text text-anchor="middle" x="1895.94" y="-62" font-family="Helvetica,sans-Serif" font-size="10.00">stdbool.h</text>
</a>
</g>
</g>
<!-- Node2&#45;&gt;Node3 -->
<g id="edge2_Node000002_Node000003" class="edge">
<title>Node2&#45;&gt;Node3</title>
<g id="a_edge2_Node000002_Node000003"><a xlink:title=" ">
<path fill="none" stroke="#63b8ff" d="M1936.4,-249.67C1641.78,-244.3 75.4,-212.39 6.94,-140 -2.22,-130.31 -2.38,-119.54 6.94,-110 40.36,-75.79 1581.17,-66.98 1854.66,-65.68"/>
<polygon fill="#63b8ff" stroke="#63b8ff" points="1854.95,-69.18 1864.93,-65.63 1854.92,-62.18 1854.95,-69.18"/>
</a>
</g>
</g>
<!-- Node4 -->
<g id="Node000004" class="node">
<title>Node4</title>
<g id="a_Node000004"><a xlink:href="acc__runtime_8h.html" target="_top" xlink:title=" ">
<polygon fill="white" stroke="#666666" points="1558.94,-200.5 1472.94,-200.5 1472.94,-181.5 1558.94,-181.5 1558.94,-200.5"/>
<text text-anchor="middle" x="1515.94" y="-188.5" font-family="Helvetica,sans-Serif" font-size="10.00">acc_runtime.h</text>
</a>
</g>
</g>
<!-- Node2&#45;&gt;Node4 -->
<g id="edge3_Node000002_Node000004" class="edge">
<title>Node2&#45;&gt;Node4</title>
<g id="a_edge3_Node000002_Node000004"><a xlink:title=" ">
<path fill="none" stroke="#63b8ff" d="M1936.05,-244.51C1848.01,-233.51 1661.04,-210.14 1569.16,-198.65"/>
<polygon fill="#63b8ff" stroke="#63b8ff" points="1569.33,-195.15 1558.97,-197.38 1568.46,-202.09 1569.33,-195.15"/>
</a>
</g>
</g>
<!-- Node24 -->
<g id="Node000024" class="node">
<title>Node24</title>
<g id="a_Node000024"><a xlink:title=" ">
<polygon fill="#e0e0e0" stroke="#999999" points="2633.44,-134.5 2494.44,-134.5 2494.44,-115.5 2633.44,-115.5 2633.44,-134.5"/>
<text text-anchor="middle" x="2563.94" y="-122.5" font-family="Helvetica,sans-Serif" font-size="10.00">user_built&#45;in_constants.h</text>
</a>
</g>
</g>
<!-- Node2&#45;&gt;Node24 -->
<g id="edge48_Node000002_Node000024" class="edge">
<title>Node2&#45;&gt;Node24</title>
<g id="a_edge48_Node000002_Node000024"><a xlink:title=" ">
<path fill="none" stroke="#63b8ff" d="M2019.23,-241.99C2053.38,-233.56 2106.5,-219.92 2151.94,-206 2190.64,-194.14 2198.62,-185.63 2237.94,-176 2345.69,-149.61 2375.42,-157.68 2484.94,-140 2492.12,-138.84 2499.67,-137.57 2507.12,-136.28"/>
<polygon fill="#63b8ff" stroke="#63b8ff" points="2507.94,-139.69 2517.19,-134.53 2506.74,-132.8 2507.94,-139.69"/>
</a>
</g>
</g>
<!-- Node38 -->
<g id="Node000038" class="node">
<title>Node38</title>
<g id="a_Node000038"><a xlink:href="func__define_8h.html" target="_top" xlink:title=" ">
<polygon fill="white" stroke="#666666" points="2475.94,-134.5 2393.94,-134.5 2393.94,-115.5 2475.94,-115.5 2475.94,-134.5"/>
<text text-anchor="middle" x="2434.94" y="-122.5" font-family="Helvetica,sans-Serif" font-size="10.00">func_define.h</text>
</a>
</g>
</g>
<!-- Node2&#45;&gt;Node38 -->
<g id="edge47_Node000002_Node000038" class="edge">
<title>Node2&#45;&gt;Node38</title>
<g id="a_edge47_Node000002_Node000038"><a xlink:title=" ">
<path fill="none" stroke="#63b8ff" d="M1983.26,-241.98C1982.51,-226.23 1983.46,-192.66 2002.94,-176 2067.74,-120.58 2301.11,-155.56 2384.94,-140 2389.18,-139.21 2393.58,-138.23 2397.93,-137.16"/>
<polygon fill="#63b8ff" stroke="#63b8ff" points="2399.12,-140.46 2407.9,-134.52 2397.34,-133.69 2399.12,-140.46"/>
</a>
</g>
</g>
<!-- Node41 -->
<g id="Node000041" class="node">
<title>Node41</title>
<g id="a_Node000041"><a xlink:title=" ">
<polygon fill="#e0e0e0" stroke="#999999" points="2143.44,-206 2012.44,-206 2012.44,-176 2143.44,-176 2143.44,-206"/>
<text text-anchor="start" x="2020.44" y="-194" font-family="Helvetica,sans-Serif" font-size="10.00">user_builtin_non_scalar</text>
<text text-anchor="middle" x="2077.94" y="-183" font-family="Helvetica,sans-Serif" font-size="10.00">_constants.h</text>
</a>
</g>
</g>
<!-- Node2&#45;&gt;Node41 -->
<g id="edge49_Node000002_Node000041" class="edge">
<title>Node2&#45;&gt;Node41</title>
<g id="a_edge49_Node000002_Node000041"><a xlink:title=" ">
<path fill="none" stroke="#63b8ff" d="M1997.81,-241.87C2010.56,-233.93 2029.94,-221.87 2046.45,-211.6"/>
<polygon fill="#63b8ff" stroke="#63b8ff" points="2048.62,-214.37 2055.26,-206.11 2044.92,-208.43 2048.62,-214.37"/>
</a>
</g>
</g>
<!-- Node4&#45;&gt;Node3 -->
<g id="edge5_Node000004_Node000003" class="edge">
<title>Node4&#45;&gt;Node3</title>
<g id="a_edge5_Node000004_Node000003"><a xlink:title=" ">
<path fill="none" stroke="#63b8ff" d="M1559.18,-189.35C1683.11,-187.05 2032.89,-177.28 2066.94,-140 2075.93,-130.16 2075.09,-120.55 2066.94,-110 2062.88,-104.75 1986.15,-86.26 1936.86,-74.83"/>
<polygon fill="#63b8ff" stroke="#63b8ff" points="1937.63,-71.42 1927.1,-72.58 1936.06,-78.24 1937.63,-71.42"/>
</a>
</g>
</g>
<!-- Node5 -->
<g id="Node000005" class="node">
<title>Node5</title>
<g id="a_Node000005"><a xlink:title=" ">
<polygon fill="#e0e0e0" stroke="#999999" points="1994.94,-74 1944.94,-74 1944.94,-55 1994.94,-55 1994.94,-74"/>
<text text-anchor="middle" x="1969.94" y="-62" font-family="Helvetica,sans-Serif" font-size="10.00">stdio.h</text>
</a>
</g>
</g>
<!-- Node4&#45;&gt;Node5 -->
<g id="edge4_Node000004_Node000005" class="edge">
<title>Node4&#45;&gt;Node5</title>
<g id="a_edge4_Node000004_Node000005"><a xlink:title=" ">
<path fill="none" stroke="#63b8ff" d="M1559.23,-189.48C1685.97,-187.53 2049.61,-178.57 2084.94,-140 2093.94,-130.17 2092.48,-121 2084.94,-110 2067.2,-84.12 2032.09,-73.29 2005.3,-68.76"/>
<polygon fill="#63b8ff" stroke="#63b8ff" points="2005.54,-65.25 1995.14,-67.26 2004.52,-72.18 2005.54,-65.25"/>
</a>
</g>
</g>
<!-- Node6 -->
<g id="Node000006" class="node">
<title>Node6</title>
<g id="a_Node000006"><a xlink:href="device__headers_8h.html" target="_top" xlink:title=" ">
<polygon fill="white" stroke="#666666" points="2272.94,-74 2170.94,-74 2170.94,-55 2272.94,-55 2272.94,-74"/>
<text text-anchor="middle" x="2221.94" y="-62" font-family="Helvetica,sans-Serif" font-size="10.00">device_headers.h</text>
</a>
</g>
</g>
<!-- Node4&#45;&gt;Node6 -->
<g id="edge6_Node000004_Node000006" class="edge">
<title>Node4&#45;&gt;Node6</title>
<g id="a_edge6_Node000004_Node000006"><a xlink:title=" ">
<path fill="none" stroke="#63b8ff" d="M1559.19,-188.47C1708.38,-182.98 2193.64,-163.4 2216.94,-140 2231.2,-125.68 2229.95,-101.18 2226.79,-84.21"/>
<polygon fill="#63b8ff" stroke="#63b8ff" points="2230.17,-83.32 2224.58,-74.32 2223.34,-84.84 2230.17,-83.32"/>
</a>
</g>
</g>
<!-- Node9 -->
<g id="Node000009" class="node">
<title>Node9</title>
<g id="a_Node000009"><a xlink:title=" ">
<polygon fill="#e0e0e0" stroke="#999999" points="2386.44,-74 2291.44,-74 2291.44,-55 2386.44,-55 2386.44,-74"/>
<text text-anchor="middle" x="2338.94" y="-62" font-family="Helvetica,sans-Serif" font-size="10.00">builtin_enums.h</text>
</a>
</g>
</g>
<!-- Node4&#45;&gt;Node9 -->
<g id="edge9_Node000004_Node000009" class="edge">
<title>Node4&#45;&gt;Node9</title>
<g id="a_edge9_Node000004_Node000009"><a xlink:title=" ">
<path fill="none" stroke="#63b8ff" d="M1559.09,-188.4C1704.85,-182.81 2173.37,-163.21 2236.94,-140 2271.39,-127.42 2304.36,-99.48 2323.08,-81.62"/>
<polygon fill="#63b8ff" stroke="#63b8ff" points="2325.72,-83.93 2330.42,-74.43 2320.82,-78.93 2325.72,-83.93"/>
</a>
</g>
</g>
<!-- Node10 -->
<g id="Node000010" class="node">
<title>Node10</title>
<g id="a_Node000010"><a xlink:href="datatypes_8h.html" target="_top" xlink:title=" ">
<polygon fill="white" stroke="#666666" points="2375.94,-134.5 2301.94,-134.5 2301.94,-115.5 2375.94,-115.5 2375.94,-134.5"/>
<text text-anchor="middle" x="2338.94" y="-122.5" font-family="Helvetica,sans-Serif" font-size="10.00">datatypes.h</text>
</a>
</g>
</g>
<!-- Node4&#45;&gt;Node10 -->
<g id="edge10_Node000004_Node000010" class="edge">
<title>Node4&#45;&gt;Node10</title>
<g id="a_edge10_Node000004_Node000010"><a xlink:title=" ">
<path fill="none" stroke="#63b8ff" d="M1559.02,-188.36C1699.89,-182.83 2145.88,-163.84 2287.94,-140 2292.49,-139.24 2297.23,-138.23 2301.89,-137.11"/>
<polygon fill="#63b8ff" stroke="#63b8ff" points="2303.1,-140.41 2311.91,-134.52 2301.35,-133.64 2303.1,-140.41"/>
</a>
</g>
</g>
<!-- Node18 -->
<g id="Node000018" class="node">
<title>Node18</title>
<g id="a_Node000018"><a xlink:href="errchk_8h.html" target="_top" xlink:title="Brief info.">
<polygon fill="#fff0f0" stroke="red" points="2207.94,-134.5 2151.94,-134.5 2151.94,-115.5 2207.94,-115.5 2207.94,-134.5"/>
<text text-anchor="middle" x="2179.94" y="-122.5" font-family="Helvetica,sans-Serif" font-size="10.00">errchk.h</text>
</a>
</g>
</g>
<!-- Node4&#45;&gt;Node18 -->
<g id="edge22_Node000004_Node000018" class="edge">
<title>Node4&#45;&gt;Node18</title>
<g id="a_edge22_Node000004_Node000018"><a xlink:title=" ">
<path fill="none" stroke="#63b8ff" d="M1559.04,-190.09C1660.86,-189.55 1923.77,-183.63 2137.94,-140 2141.18,-139.34 2144.51,-138.51 2147.82,-137.58"/>
<polygon fill="#63b8ff" stroke="#63b8ff" points="2149.02,-140.87 2157.54,-134.58 2146.95,-134.18 2149.02,-140.87"/>
</a>
</g>
</g>
<!-- Node22 -->
<g id="Node000022" class="node">
<title>Node22</title>
<g id="a_Node000022"><a xlink:title=" ">
<polygon fill="#e0e0e0" stroke="#999999" points="103.44,-134.5 16.44,-134.5 16.44,-115.5 103.44,-115.5 103.44,-134.5"/>
<text text-anchor="middle" x="59.94" y="-122.5" font-family="Helvetica,sans-Serif" font-size="10.00">user_defines.h</text>
</a>
</g>
</g>
<!-- Node4&#45;&gt;Node22 -->
<g id="edge28_Node000004_Node000022" class="edge">
<title>Node4&#45;&gt;Node22</title>
<g id="a_edge28_Node000004_Node000022"><a xlink:title=" ">
<path fill="none" stroke="#63b8ff" d="M1472.86,-189.76C1267.3,-188.39 384.93,-180.26 112.94,-140 107.83,-139.24 102.51,-138.18 97.3,-136.97"/>
<polygon fill="#63b8ff" stroke="#63b8ff" points="98.03,-133.55 87.48,-134.52 96.33,-140.34 98.03,-133.55"/>
</a>
</g>
</g>
<!-- Node23 -->
<g id="Node000023" class="node">
<title>Node23</title>
<g id="a_Node000023"><a xlink:title=" ">
<polygon fill="#e0e0e0" stroke="#999999" points="207.94,-134.5 121.94,-134.5 121.94,-115.5 207.94,-115.5 207.94,-134.5"/>
<text text-anchor="middle" x="164.94" y="-122.5" font-family="Helvetica,sans-Serif" font-size="10.00">profiles_info.h</text>
</a>
</g>
</g>
<!-- Node4&#45;&gt;Node23 -->
<g id="edge29_Node000004_Node000023" class="edge">
<title>Node4&#45;&gt;Node23</title>
<g id="a_edge29_Node000004_Node000023"><a xlink:title=" ">
<path fill="none" stroke="#63b8ff" d="M1472.83,-189.64C1276.67,-187.8 467.26,-178.02 216.94,-140 212.05,-139.26 206.97,-138.23 201.98,-137.06"/>
<polygon fill="#63b8ff" stroke="#63b8ff" points="202.51,-133.58 191.95,-134.51 200.78,-140.36 202.51,-133.58"/>
</a>
</g>
</g>
<!-- Node4&#45;&gt;Node24 -->
<g id="edge30_Node000004_Node000024" class="edge">
<title>Node4&#45;&gt;Node24</title>
<g id="a_edge30_Node000004_Node000024"><a xlink:title=" ">
<path fill="none" stroke="#63b8ff" d="M1559.05,-188.49C1722.16,-182.65 2301.56,-160.9 2484.94,-140 2493.49,-139.03 2502.52,-137.7 2511.3,-136.26"/>
<polygon fill="#63b8ff" stroke="#63b8ff" points="2512.17,-139.66 2521.44,-134.53 2510.99,-132.76 2512.17,-139.66"/>
</a>
</g>
</g>
<!-- Node25 -->
<g id="Node000025" class="node">
<title>Node25</title>
<g id="a_Node000025"><a xlink:href="func__attributes_8h.html" target="_top" xlink:title=" ">
<polygon fill="white" stroke="#666666" points="325.44,-134.5 226.44,-134.5 226.44,-115.5 325.44,-115.5 325.44,-134.5"/>
<text text-anchor="middle" x="275.94" y="-122.5" font-family="Helvetica,sans-Serif" font-size="10.00">func_attributes.h</text>
</a>
</g>
</g>
<!-- Node4&#45;&gt;Node25 -->
<g id="edge31_Node000004_Node000025" class="edge">
<title>Node4&#45;&gt;Node25</title>
<g id="a_edge31_Node000004_Node000025"><a xlink:title=" ">
<path fill="none" stroke="#63b8ff" d="M1472.76,-189.3C1287.68,-186.12 560.47,-171.82 333.94,-140 328.16,-139.19 322.11,-138.05 316.19,-136.78"/>
<polygon fill="#63b8ff" stroke="#63b8ff" points="316.96,-133.37 306.43,-134.54 315.39,-140.19 316.96,-133.37"/>
</a>
</g>
</g>
<!-- Node26 -->
<g id="Node000026" class="node">
<title>Node26</title>
<g id="a_Node000026"><a xlink:title=" ">
<polygon fill="#e0e0e0" stroke="#999999" points="468.44,-134.5 343.44,-134.5 343.44,-115.5 468.44,-115.5 468.44,-134.5"/>
<text text-anchor="middle" x="405.94" y="-122.5" font-family="Helvetica,sans-Serif" font-size="10.00">user_input_typedefs.h</text>
</a>
</g>
</g>
<!-- Node4&#45;&gt;Node26 -->
<g id="edge32_Node000004_Node000026" class="edge">
<title>Node4&#45;&gt;Node26</title>
<g id="a_edge32_Node000004_Node000026"><a xlink:title=" ">
<path fill="none" stroke="#63b8ff" d="M1472.69,-190.18C1329.95,-190.3 861.01,-186.85 476.94,-140 469.39,-139.08 461.45,-137.81 453.72,-136.41"/>
<polygon fill="#63b8ff" stroke="#63b8ff" points="454.2,-132.94 443.73,-134.52 452.9,-139.82 454.2,-132.94"/>
</a>
</g>
</g>
<!-- Node27 -->
<g id="Node000027" class="node">
<title>Node27</title>
<g id="a_Node000027"><a xlink:title=" ">
<polygon fill="#e0e0e0" stroke="#999999" points="569.44,-134.5 486.44,-134.5 486.44,-115.5 569.44,-115.5 569.44,-134.5"/>
<text text-anchor="middle" x="527.94" y="-122.5" font-family="Helvetica,sans-Serif" font-size="10.00">output_decl.h</text>
</a>
</g>
</g>
<!-- Node4&#45;&gt;Node27 -->
<g id="edge33_Node000004_Node000027" class="edge">
<title>Node4&#45;&gt;Node27</title>
<g id="a_edge33_Node000004_Node000027"><a xlink:title=" ">
<path fill="none" stroke="#63b8ff" d="M1472.82,-188.93C1313,-184.76 754.62,-168.46 578.94,-140 574.2,-139.23 569.28,-138.2 564.43,-137.03"/>
<polygon fill="#63b8ff" stroke="#63b8ff" points="565.26,-133.63 554.7,-134.5 563.5,-140.4 565.26,-133.63"/>
</a>
</g>
</g>
<!-- Node28 -->
<g id="Node000028" class="node">
<title>Node28</title>
<g id="a_Node000028"><a xlink:title=" ">
<polygon fill="#e0e0e0" stroke="#999999" points="703.94,-134.5 587.94,-134.5 587.94,-115.5 703.94,-115.5 703.94,-134.5"/>
<text text-anchor="middle" x="645.94" y="-122.5" font-family="Helvetica,sans-Serif" font-size="10.00">comp_loaded_decl.h</text>
</a>
</g>
</g>
<!-- Node4&#45;&gt;Node28 -->
<g id="edge34_Node000004_Node000028" class="edge">
<title>Node4&#45;&gt;Node28</title>
<g id="a_edge34_Node000004_Node000028"><a xlink:title=" ">
<path fill="none" stroke="#63b8ff" d="M1472.64,-189.49C1351.86,-187.59 1001.21,-178.89 712.94,-140 706.13,-139.08 698.99,-137.87 692,-136.53"/>
<polygon fill="#63b8ff" stroke="#63b8ff" points="692.43,-133.05 681.94,-134.51 691.05,-139.91 692.43,-133.05"/>
</a>
</g>
</g>
<!-- Node29 -->
<g id="Node000029" class="node">
<title>Node29</title>
<g id="a_Node000029"><a xlink:title=" ">
<polygon fill="#e0e0e0" stroke="#999999" points="799.94,-134.5 721.94,-134.5 721.94,-115.5 799.94,-115.5 799.94,-134.5"/>
<text text-anchor="middle" x="760.94" y="-122.5" font-family="Helvetica,sans-Serif" font-size="10.00">comp_decl.h</text>
</a>
</g>
</g>
<!-- Node4&#45;&gt;Node29 -->
<g id="edge35_Node000004_Node000029" class="edge">
<title>Node4&#45;&gt;Node29</title>
<g id="a_edge35_Node000004_Node000029"><a xlink:title=" ">
<path fill="none" stroke="#63b8ff" d="M1472.91,-190.13C1361.98,-189.79 1057.54,-184.52 808.94,-140 804.76,-139.25 800.42,-138.28 796.14,-137.19"/>
<polygon fill="#63b8ff" stroke="#63b8ff" points="796.93,-133.78 786.36,-134.51 795.07,-140.53 796.93,-133.78"/>
</a>
</g>
</g>
<!-- Node30 -->
<g id="Node000030" class="node">
<title>Node30</title>
<g id="a_Node000030"><a xlink:title=" ">
<polygon fill="#e0e0e0" stroke="#999999" points="925.94,-134.5 817.94,-134.5 817.94,-115.5 925.94,-115.5 925.94,-134.5"/>
<text text-anchor="middle" x="871.94" y="-122.5" font-family="Helvetica,sans-Serif" font-size="10.00">info_loaded_decl.h</text>
</a>
</g>
</g>
<!-- Node4&#45;&gt;Node30 -->
<g id="edge36_Node000004_Node000030" class="edge">
<title>Node4&#45;&gt;Node30</title>
<g id="a_edge36_Node000004_Node000030"><a xlink:title=" ">
<path fill="none" stroke="#63b8ff" d="M1472.7,-188.25C1375.9,-183.89 1134.58,-170.63 934.94,-140 928.98,-139.09 922.74,-137.94 916.61,-136.69"/>
<polygon fill="#63b8ff" stroke="#63b8ff" points="916.95,-133.19 906.44,-134.53 915.5,-140.04 916.95,-133.19"/>
</a>
</g>
</g>
<!-- Node31 -->
<g id="Node000031" class="node">
<title>Node31</title>
<g id="a_Node000031"><a xlink:title=" ">
<polygon fill="#e0e0e0" stroke="#999999" points="1083.94,-134.5 943.94,-134.5 943.94,-115.5 1083.94,-115.5 1083.94,-134.5"/>
<text text-anchor="middle" x="1013.94" y="-122.5" font-family="Helvetica,sans-Serif" font-size="10.00">device_mesh_info_decl.h</text>
</a>
</g>
</g>
<!-- Node4&#45;&gt;Node31 -->
<g id="edge37_Node000004_Node000031" class="edge">
<title>Node4&#45;&gt;Node31</title>
<g id="a_edge37_Node000004_Node000031"><a xlink:title=" ">
<path fill="none" stroke="#63b8ff" d="M1472.9,-185.74C1396.31,-177.98 1231.39,-160.43 1092.94,-140 1085.28,-138.87 1077.23,-137.57 1069.32,-136.23"/>
<polygon fill="#63b8ff" stroke="#63b8ff" points="1069.85,-132.77 1059.4,-134.52 1068.66,-139.67 1069.85,-132.77"/>
</a>
</g>
</g>
<!-- Node32 -->
<g id="Node000032" class="node">
<title>Node32</title>
<g id="a_Node000032"><a xlink:title=" ">
<polygon fill="#e0e0e0" stroke="#999999" points="1179.44,-134.5 1102.44,-134.5 1102.44,-115.5 1179.44,-115.5 1179.44,-134.5"/>
<text text-anchor="middle" x="1140.94" y="-122.5" font-family="Helvetica,sans-Serif" font-size="10.00">array_decl.h</text>
</a>
</g>
</g>
<!-- Node4&#45;&gt;Node32 -->
<g id="edge38_Node000004_Node000032" class="edge">
<title>Node4&#45;&gt;Node32</title>
<g id="a_edge38_Node000004_Node000032"><a xlink:title=" ">
<path fill="none" stroke="#63b8ff" d="M1472.75,-185.24C1409.86,-177.89 1289.59,-162.27 1188.94,-140 1185.29,-139.19 1181.51,-138.26 1177.75,-137.27"/>
<polygon fill="#63b8ff" stroke="#63b8ff" points="1178.51,-133.85 1167.94,-134.55 1176.64,-140.59 1178.51,-133.85"/>
</a>
</g>
</g>
<!-- Node33 -->
<g id="Node000033" class="node">
<title>Node33</title>
<g id="a_Node000033"><a xlink:title=" ">
<polygon fill="#e0e0e0" stroke="#999999" points="1273.94,-134.5 1197.94,-134.5 1197.94,-115.5 1273.94,-115.5 1273.94,-134.5"/>
<text text-anchor="middle" x="1235.94" y="-122.5" font-family="Helvetica,sans-Serif" font-size="10.00">input_decl.h</text>
</a>
</g>
</g>
<!-- Node4&#45;&gt;Node33 -->
<g id="edge39_Node000004_Node000033" class="edge">
<title>Node4&#45;&gt;Node33</title>
<g id="a_edge39_Node000004_Node000033"><a xlink:title=" ">
<path fill="none" stroke="#63b8ff" d="M1472.76,-181.78C1425.81,-172.61 1348.67,-156.82 1282.94,-140 1279.72,-139.18 1276.39,-138.28 1273.06,-137.35"/>
<polygon fill="#63b8ff" stroke="#63b8ff" points="1273.75,-133.91 1263.18,-134.51 1271.82,-140.63 1273.75,-133.91"/>
</a>
</g>
</g>
<!-- Node34 -->
<g id="Node000034" class="node">
<title>Node34</title>
<g id="a_Node000034"><a xlink:href="ac__helpers_8h.html" target="_top" xlink:title=" ">
<polygon fill="white" stroke="#666666" points="1369.94,-134.5 1291.94,-134.5 1291.94,-115.5 1369.94,-115.5 1369.94,-134.5"/>
<text text-anchor="middle" x="1330.94" y="-122.5" font-family="Helvetica,sans-Serif" font-size="10.00">ac_helpers.h</text>
</a>
</g>
</g>
<!-- Node4&#45;&gt;Node34 -->
<g id="edge40_Node000004_Node000034" class="edge">
<title>Node4&#45;&gt;Node34</title>
<g id="a_edge40_Node000004_Node000034"><a xlink:title=" ">
<path fill="none" stroke="#63b8ff" d="M1490.99,-181.37C1458.62,-170.17 1402,-150.58 1365.51,-137.96"/>
<polygon fill="#63b8ff" stroke="#63b8ff" points="1366.38,-134.56 1355.79,-134.6 1364.09,-141.17 1366.38,-134.56"/>
</a>
</g>
</g>
<!-- Node35 -->
<g id="Node000035" class="node">
<title>Node35</title>
<g id="a_Node000035"><a xlink:title=" ">
<polygon fill="#e0e0e0" stroke="#999999" points="1505.94,-140 1387.94,-140 1387.94,-110 1505.94,-110 1505.94,-140"/>
<text text-anchor="start" x="1395.94" y="-128" font-family="Helvetica,sans-Serif" font-size="10.00">scalar_reduce_buffer</text>
<text text-anchor="middle" x="1446.94" y="-117" font-family="Helvetica,sans-Serif" font-size="10.00">_defs.h</text>
</a>
</g>
</g>
<!-- Node4&#45;&gt;Node35 -->
<g id="edge41_Node000004_Node000035" class="edge">
<title>Node4&#45;&gt;Node35</title>
<g id="a_edge41_Node000004_Node000035"><a xlink:title=" ">
<path fill="none" stroke="#63b8ff" d="M1506.63,-181.37C1497.19,-172.61 1482.21,-158.71 1469.62,-147.04"/>
<polygon fill="#63b8ff" stroke="#63b8ff" points="1471.87,-144.35 1462.16,-140.12 1467.11,-149.48 1471.87,-144.35"/>
</a>
</g>
</g>
<!-- Node36 -->
<g id="Node000036" class="node">
<title>Node36</title>
<g id="a_Node000036"><a xlink:title=" ">
<polygon fill="#e0e0e0" stroke="#999999" points="1647.44,-140 1524.44,-140 1524.44,-110 1647.44,-110 1647.44,-140"/>
<text text-anchor="start" x="1532.44" y="-128" font-family="Helvetica,sans-Serif" font-size="10.00">scalar_reduce_buffers</text>
<text text-anchor="middle" x="1585.94" y="-117" font-family="Helvetica,sans-Serif" font-size="10.00">_in_vba.h</text>
</a>
</g>
</g>
<!-- Node4&#45;&gt;Node36 -->
<g id="edge42_Node000004_Node000036" class="edge">
<title>Node4&#45;&gt;Node36</title>
<g id="a_edge42_Node000004_Node000036"><a xlink:title=" ">
<path fill="none" stroke="#63b8ff" d="M1525.38,-181.37C1534.96,-172.61 1550.16,-158.71 1562.93,-147.04"/>
<polygon fill="#63b8ff" stroke="#63b8ff" points="1565.48,-149.45 1570.5,-140.12 1560.76,-144.28 1565.48,-149.45"/>
</a>
</g>
</g>
<!-- Node37 -->
<g id="Node000037" class="node">
<title>Node37</title>
<g id="a_Node000037"><a xlink:href="astaroth__analysis_8h.html" target="_top" xlink:title=" ">
<polygon fill="white" stroke="#666666" points="1777.94,-134.5 1665.94,-134.5 1665.94,-115.5 1777.94,-115.5 1777.94,-134.5"/>
<text text-anchor="middle" x="1721.94" y="-122.5" font-family="Helvetica,sans-Serif" font-size="10.00">astaroth_analysis.h</text>
</a>
</g>
</g>
<!-- Node4&#45;&gt;Node37 -->
<g id="edge43_Node000004_Node000037" class="edge">
<title>Node4&#45;&gt;Node37</title>
<g id="a_edge43_Node000004_Node000037"><a xlink:title=" ">
<path fill="none" stroke="#63b8ff" d="M1543.72,-181.37C1580.07,-170.08 1643.89,-150.25 1684.48,-137.64"/>
<polygon fill="#63b8ff" stroke="#63b8ff" points="1685.76,-140.91 1694.27,-134.6 1683.68,-134.22 1685.76,-140.91"/>
</a>
</g>
</g>
<!-- Node4&#45;&gt;Node38 -->
<g id="edge44_Node000004_Node000038" class="edge">
<title>Node4&#45;&gt;Node38</title>
<g id="a_edge44_Node000004_Node000038"><a xlink:title=" ">
<path fill="none" stroke="#63b8ff" d="M1559.04,-188.75C1711.27,-184.14 2223.21,-166.97 2384.94,-140 2389.41,-139.25 2394.06,-138.26 2398.63,-137.15"/>
<polygon fill="#63b8ff" stroke="#63b8ff" points="2399.67,-140.49 2408.45,-134.56 2397.89,-133.72 2399.67,-140.49"/>
</a>
</g>
</g>
<!-- Node39 -->
<g id="Node000039" class="node">
<title>Node39</title>
<g id="a_Node000039"><a xlink:href="common__kernels_8h.html" target="_top" xlink:title=" ">
<polygon fill="white" stroke="#666666" points="1905.44,-134.5 1796.44,-134.5 1796.44,-115.5 1905.44,-115.5 1905.44,-134.5"/>
<text text-anchor="middle" x="1850.94" y="-122.5" font-family="Helvetica,sans-Serif" font-size="10.00">common_kernels.h</text>
</a>
</g>
</g>
<!-- Node4&#45;&gt;Node39 -->
<g id="edge45_Node000004_Node000039" class="edge">
<title>Node4&#45;&gt;Node39</title>
<g id="a_edge45_Node000004_Node000039"><a xlink:title=" ">
<path fill="none" stroke="#63b8ff" d="M1559.2,-182.47C1612.77,-173.04 1706.74,-156.17 1786.94,-140 1792.03,-138.97 1797.35,-137.87 1802.65,-136.74"/>
<polygon fill="#63b8ff" stroke="#63b8ff" points="1803.7,-140.09 1812.74,-134.57 1802.23,-133.25 1803.7,-140.09"/>
</a>
</g>
</g>
<!-- Node40 -->
<g id="Node000040" class="node">
<title>Node40</title>
<g id="a_Node000040"><a xlink:title=" ">
<polygon fill="#e0e0e0" stroke="#999999" points="2057.94,-140 1923.94,-140 1923.94,-110 2057.94,-110 2057.94,-140"/>
<text text-anchor="start" x="1931.94" y="-128" font-family="Helvetica,sans-Serif" font-size="10.00">load_and_store_uniform</text>
<text text-anchor="middle" x="1990.94" y="-117" font-family="Helvetica,sans-Serif" font-size="10.00">_header.h</text>
</a>
</g>
</g>
<!-- Node4&#45;&gt;Node40 -->
<g id="edge46_Node000004_Node000040" class="edge">
<title>Node4&#45;&gt;Node40</title>
<g id="a_edge46_Node000004_Node000040"><a xlink:title=" ">
<path fill="none" stroke="#63b8ff" d="M1559.04,-185.37C1630.4,-177.53 1777.8,-160.62 1913.61,-139.99"/>
<polygon fill="#63b8ff" stroke="#63b8ff" points="1914.43,-143.41 1923.78,-138.43 1913.37,-136.49 1914.43,-143.41"/>
</a>
</g>
</g>
<!-- Node7 -->
<g id="Node000007" class="node">
<title>Node7</title>
<g id="a_Node000007"><a xlink:title=" ">
<polygon fill="#e0e0e0" stroke="#999999" points="2570.44,-19 2457.44,-19 2457.44,0 2570.44,0 2570.44,-19"/>
<text text-anchor="middle" x="2513.94" y="-7" font-family="Helvetica,sans-Serif" font-size="10.00">cuda_runtime_api.h</text>
</a>
</g>
</g>
<!-- Node6&#45;&gt;Node7 -->
<g id="edge7_Node000006_Node000007" class="edge">
<title>Node6&#45;&gt;Node7</title>
<g id="a_edge7_Node000006_Node000007"><a xlink:title=" ">
<path fill="none" stroke="#63b8ff" d="M2268.85,-54.98C2320,-45.7 2401.86,-30.84 2456.74,-20.88"/>
<polygon fill="#63b8ff" stroke="#63b8ff" points="2457.44,-24.31 2466.66,-19.08 2456.19,-17.42 2457.44,-24.31"/>
</a>
</g>
</g>
<!-- Node8 -->
<g id="Node000008" class="node">
<title>Node8</title>
<g id="a_Node000008"><a xlink:title=" ">
<polygon fill="#e0e0e0" stroke="#999999" points="2259.94,-19 2183.94,-19 2183.94,0 2259.94,0 2259.94,-19"/>
<text text-anchor="middle" x="2221.94" y="-7" font-family="Helvetica,sans-Serif" font-size="10.00">cuda_fp16.h</text>
</a>
</g>
</g>
<!-- Node6&#45;&gt;Node8 -->
<g id="edge8_Node000006_Node000008" class="edge">
<title>Node6&#45;&gt;Node8</title>
<g id="a_edge8_Node000006_Node000008"><a xlink:title=" ">
<path fill="none" stroke="#63b8ff" d="M2221.94,-54.75C2221.94,-47.8 2221.94,-37.85 2221.94,-29.13"/>
<polygon fill="#63b8ff" stroke="#63b8ff" points="2225.44,-29.09 2221.94,-19.09 2218.44,-29.09 2225.44,-29.09"/>
</a>
</g>
</g>
<!-- Node10&#45;&gt;Node6 -->
<g id="edge13_Node000010_Node000006" class="edge">
<title>Node10&#45;&gt;Node6</title>
<g id="a_edge13_Node000010_Node000006"><a xlink:title=" ">
<path fill="none" stroke="#63b8ff" d="M2321.93,-115.49C2302.52,-105.79 2270.55,-89.81 2248,-78.53"/>
<polygon fill="#63b8ff" stroke="#63b8ff" points="2249.48,-75.36 2238.97,-74.02 2246.35,-81.62 2249.48,-75.36"/>
</a>
</g>
</g>
<!-- Node10&#45;&gt;Node7 -->
<g id="edge15_Node000010_Node000007" class="edge">
<title>Node10&#45;&gt;Node7</title>
<g id="a_edge15_Node000010_Node000007"><a xlink:title=" ">
<path fill="none" stroke="#63b8ff" d="M2364.53,-115.37C2371.12,-113.38 2378.24,-111.43 2384.94,-110 2447.37,-96.66 2627.72,-121.88 2669.94,-74 2700.07,-39.83 2635.74,-23.73 2580.77,-16.36"/>
<polygon fill="#63b8ff" stroke="#63b8ff" points="2581,-12.86 2570.64,-15.09 2580.13,-19.81 2581,-12.86"/>
</a>
</g>
</g>
<!-- Node10&#45;&gt;Node9 -->
<g id="edge17_Node000010_Node000009" class="edge">
<title>Node10&#45;&gt;Node9</title>
<g id="a_edge17_Node000010_Node000009"><a xlink:title=" ">
<path fill="none" stroke="#63b8ff" d="M2338.94,-115.37C2338.94,-107.25 2338.94,-94.81 2338.94,-84.39"/>
<polygon fill="#63b8ff" stroke="#63b8ff" points="2342.44,-84.17 2338.94,-74.17 2335.44,-84.17 2342.44,-84.17"/>
</a>
</g>
</g>
<!-- Node11 -->
<g id="Node000011" class="node">
<title>Node11</title>
<g id="a_Node000011"><a xlink:title=" ">
<polygon fill="#e0e0e0" stroke="#999999" points="2451.44,-74 2404.44,-74 2404.44,-55 2451.44,-55 2451.44,-74"/>
<text text-anchor="middle" x="2427.94" y="-62" font-family="Helvetica,sans-Serif" font-size="10.00">float.h</text>
</a>
</g>
</g>
<!-- Node10&#45;&gt;Node11 -->
<g id="edge11_Node000010_Node000011" class="edge">
<title>Node10&#45;&gt;Node11</title>
<g id="a_edge11_Node000010_Node000011"><a xlink:title=" ">
<path fill="none" stroke="#63b8ff" d="M2352.07,-115.37C2366.27,-106.04 2389.13,-91.01 2406.06,-79.88"/>
<polygon fill="#63b8ff" stroke="#63b8ff" points="2408.32,-82.58 2414.75,-74.17 2404.47,-76.74 2408.32,-82.58"/>
</a>
</g>
</g>
<!-- Node12 -->
<g id="Node000012" class="node">
<title>Node12</title>
<g id="a_Node000012"><a xlink:title=" ">
<polygon fill="#e0e0e0" stroke="#999999" points="2520.44,-74 2469.44,-74 2469.44,-55 2520.44,-55 2520.44,-74"/>
<text text-anchor="middle" x="2494.94" y="-62" font-family="Helvetica,sans-Serif" font-size="10.00">math.h</text>
</a>
</g>
</g>
<!-- Node10&#45;&gt;Node12 -->
<g id="edge12_Node000010_Node000012" class="edge">
<title>Node10&#45;&gt;Node12</title>
<g id="a_edge12_Node000010_Node000012"><a xlink:title=" ">
<path fill="none" stroke="#63b8ff" d="M2361.62,-115.49C2388.2,-105.53 2432.41,-88.95 2462.58,-77.63"/>
<polygon fill="#63b8ff" stroke="#63b8ff" points="2464.09,-80.81 2472.23,-74.02 2461.64,-74.25 2464.09,-80.81"/>
</a>
</g>
</g>
<!-- Node13 -->
<g id="Node000013" class="node">
<title>Node13</title>
<g id="a_Node000013"><a xlink:title=" ">
<polygon fill="#e0e0e0" stroke="#999999" points="2627.44,-74 2538.44,-74 2538.44,-55 2627.44,-55 2627.44,-74"/>
<text text-anchor="middle" x="2582.94" y="-62" font-family="Helvetica,sans-Serif" font-size="10.00">vector_types.h</text>
</a>
</g>
</g>
<!-- Node10&#45;&gt;Node13 -->
<g id="edge14_Node000010_Node000013" class="edge">
<title>Node10&#45;&gt;Node13</title>
<g id="a_edge14_Node000010_Node000013"><a xlink:title=" ">
<path fill="none" stroke="#63b8ff" d="M2366.09,-115.37C2372.26,-113.51 2378.8,-111.62 2384.94,-110 2434.08,-97.02 2490.72,-84.53 2530.8,-76.11"/>
<polygon fill="#63b8ff" stroke="#63b8ff" points="2531.54,-79.53 2540.62,-74.06 2530.11,-72.68 2531.54,-79.53"/>
</a>
</g>
</g>
<!-- Node14 -->
<g id="Node000014" class="node">
<title>Node14</title>
<g id="a_Node000014"><a xlink:href="acreal_8h.html" target="_top" xlink:title=" ">
<polygon fill="white" stroke="#666666" points="2147.94,-19 2091.94,-19 2091.94,0 2147.94,0 2147.94,-19"/>
<text text-anchor="middle" x="2119.94" y="-7" font-family="Helvetica,sans-Serif" font-size="10.00">acreal.h</text>
</a>
</g>
</g>
<!-- Node10&#45;&gt;Node14 -->
<g id="edge16_Node000010_Node000014" class="edge">
<title>Node10&#45;&gt;Node14</title>
<g id="a_edge16_Node000010_Node000014"><a xlink:title=" ">
<path fill="none" stroke="#63b8ff" d="M2364.54,-115.45C2371.14,-113.45 2378.26,-111.48 2384.94,-110 2496.85,-85.13 2714.79,-139.15 2636.94,-55 2601.97,-17.2 2226.08,-24.94 2174.94,-19 2169.48,-18.37 2163.73,-17.59 2158.09,-16.78"/>
<polygon fill="#63b8ff" stroke="#63b8ff" points="2158.56,-13.31 2148.15,-15.28 2157.51,-20.23 2158.56,-13.31"/>
</a>
</g>
</g>
<!-- Node15 -->
<g id="Node000015" class="node">
<title>Node15</title>
<g id="a_Node000015"><a xlink:title=" ">
<polygon fill="#e0e0e0" stroke="#999999" points="2817.44,-74 2722.44,-74 2722.44,-55 2817.44,-55 2817.44,-74"/>
<text text-anchor="middle" x="2769.94" y="-62" font-family="Helvetica,sans-Serif" font-size="10.00">user_typedefs.h</text>
</a>
</g>
</g>
<!-- Node10&#45;&gt;Node15 -->
<g id="edge18_Node000010_Node000015" class="edge">
<title>Node10&#45;&gt;Node15</title>
<g id="a_edge18_Node000010_Node000015"><a xlink:title=" ">
<path fill="none" stroke="#63b8ff" d="M2364.03,-115.45C2370.76,-113.41 2378.07,-111.42 2384.94,-110 2526.41,-80.85 2564.6,-91.81 2707.94,-74 2709.24,-73.84 2710.56,-73.67 2711.89,-73.5"/>
<polygon fill="#63b8ff" stroke="#63b8ff" points="2712.76,-76.92 2722.23,-72.16 2711.86,-69.98 2712.76,-76.92"/>
</a>
</g>
</g>
<!-- Node16 -->
<g id="Node000016" class="node">
<title>Node16</title>
<g id="a_Node000016"><a xlink:href="host__datatypes_8h.html" target="_top" xlink:title=" ">
<polygon fill="white" stroke="#666666" points="2152.44,-74 2051.44,-74 2051.44,-55 2152.44,-55 2152.44,-74"/>
<text text-anchor="middle" x="2101.94" y="-62" font-family="Helvetica,sans-Serif" font-size="10.00">host_datatypes.h</text>
</a>
</g>
</g>
<!-- Node10&#45;&gt;Node16 -->
<g id="edge19_Node000010_Node000016" class="edge">
<title>Node10&#45;&gt;Node16</title>
<g id="a_edge19_Node000010_Node000016"><a xlink:title=" ">
<path fill="none" stroke="#63b8ff" d="M2304.48,-115.49C2262.7,-105.18 2192.22,-87.78 2146.39,-76.47"/>
<polygon fill="#63b8ff" stroke="#63b8ff" points="2146.99,-73.02 2136.44,-74.02 2145.31,-79.81 2146.99,-73.02"/>
</a>
</g>
</g>
<!-- Node16&#45;&gt;Node14 -->
<g id="edge20_Node000016_Node000014" class="edge">
<title>Node16&#45;&gt;Node14</title>
<g id="a_edge20_Node000016_Node000014"><a xlink:title=" ">
<path fill="none" stroke="#63b8ff" d="M2104.91,-54.75C2107.3,-47.72 2110.73,-37.62 2113.71,-28.84"/>
<polygon fill="#63b8ff" stroke="#63b8ff" points="2117.12,-29.68 2117.02,-19.09 2110.49,-27.43 2117.12,-29.68"/>
</a>
</g>
</g>
<!-- Node17 -->
<g id="Node000017" class="node">
<title>Node17</title>
<g id="a_Node000017"><a xlink:title=" ">
<polygon fill="#e0e0e0" stroke="#999999" points="2071.94,-19 2015.94,-19 2015.94,0 2071.94,0 2071.94,-19"/>
<text text-anchor="middle" x="2043.94" y="-7" font-family="Helvetica,sans-Serif" font-size="10.00">stddef.h</text>
</a>
</g>
</g>
<!-- Node16&#45;&gt;Node17 -->
<g id="edge21_Node000016_Node000017" class="edge">
<title>Node16&#45;&gt;Node17</title>
<g id="a_edge21_Node000016_Node000017"><a xlink:title=" ">
<path fill="none" stroke="#63b8ff" d="M2092.62,-54.98C2084.13,-47.23 2071.38,-35.58 2061.06,-26.14"/>
<polygon fill="#63b8ff" stroke="#63b8ff" points="2063.17,-23.33 2053.43,-19.17 2058.45,-28.5 2063.17,-23.33"/>
</a>
</g>
</g>
<!-- Node18&#45;&gt;Node3 -->
<g id="edge25_Node000018_Node000003" class="edge">
<title>Node18&#45;&gt;Node3</title>
<g id="a_edge25_Node000018_Node000003"><a xlink:title=" ">
<path fill="none" stroke="#63b8ff" d="M2151.75,-118.29C2108.03,-109.43 2021,-91.72 1936.91,-74.19"/>
<polygon fill="#63b8ff" stroke="#63b8ff" points="1937.45,-70.73 1926.94,-72.11 1936.02,-77.58 1937.45,-70.73"/>
</a>
</g>
</g>
<!-- Node18&#45;&gt;Node5 -->
<g id="edge26_Node000018_Node000005" class="edge">
<title>Node18&#45;&gt;Node5</title>
<g id="a_edge26_Node000018_Node000005"><a xlink:title=" ">
<path fill="none" stroke="#63b8ff" d="M2155.15,-115.45C2149.51,-113.59 2143.54,-111.67 2137.94,-110 2092.35,-96.38 2039.18,-82.65 2005.07,-74.12"/>
<polygon fill="#63b8ff" stroke="#63b8ff" points="2005.67,-70.67 1995.12,-71.65 2003.98,-77.46 2005.67,-70.67"/>
</a>
</g>
</g>
<!-- Node18&#45;&gt;Node6 -->
<g id="edge27_Node000018_Node000006" class="edge">
<title>Node18&#45;&gt;Node6</title>
<g id="a_edge27_Node000018_Node000006"><a xlink:title=" ">
<path fill="none" stroke="#63b8ff" d="M2186.14,-115.37C2192.34,-106.73 2202.05,-93.2 2209.79,-82.42"/>
<polygon fill="#63b8ff" stroke="#63b8ff" points="2212.73,-84.33 2215.72,-74.17 2207.04,-80.25 2212.73,-84.33"/>
</a>
</g>
</g>
<!-- Node18&#45;&gt;Node16 -->
<g id="edge24_Node000018_Node000016" class="edge">
<title>Node18&#45;&gt;Node16</title>
<g id="a_edge24_Node000018_Node000016"><a xlink:title=" ">
<path fill="none" stroke="#63b8ff" d="M2168.43,-115.37C2156.1,-106.12 2136.32,-91.28 2121.53,-80.19"/>
<polygon fill="#63b8ff" stroke="#63b8ff" points="2123.6,-77.37 2113.5,-74.17 2119.4,-82.97 2123.6,-77.37"/>
</a>
</g>
</g>
<!-- Node18&#45;&gt;Node17 -->
<g id="edge23_Node000018_Node000017" class="edge">
<title>Node18&#45;&gt;Node17</title>
<g id="a_edge23_Node000018_Node000017"><a xlink:title=" ">
<path fill="none" stroke="#63b8ff" d="M2155.33,-115.48C2116.11,-101.86 2043.64,-76.43 2041.94,-74 2032.84,-61.03 2034.58,-42.63 2037.86,-28.97"/>
<polygon fill="#63b8ff" stroke="#63b8ff" points="2041.26,-29.81 2040.64,-19.23 2034.53,-27.88 2041.26,-29.81"/>
</a>
</g>
</g>
<!-- Node45 -->
<g id="Node000045" class="node">
<title>Node45</title>
<g id="a_Node000045"><a xlink:title=" ">
<polygon fill="#e0e0e0" stroke="#999999" points="2506.44,-206 2387.44,-206 2387.44,-176 2506.44,-176 2506.44,-206"/>
<text text-anchor="start" x="2395.44" y="-194" font-family="Helvetica,sans-Serif" font-size="10.00">device_load_uniform</text>
<text text-anchor="middle" x="2446.94" y="-183" font-family="Helvetica,sans-Serif" font-size="10.00">_decl.h</text>
</a>
</g>
</g>
<!-- Node44&#45;&gt;Node45 -->
<g id="edge53_Node000044_Node000045" class="edge">
<title>Node44&#45;&gt;Node45</title>
<g id="a_edge53_Node000044_Node000045"><a xlink:title=" ">
<path fill="none" stroke="#63b8ff" d="M2341.82,-241.99C2359.08,-233.79 2385.78,-221.09 2407.95,-210.55"/>
<polygon fill="#63b8ff" stroke="#63b8ff" points="2409.6,-213.63 2417.13,-206.18 2406.6,-207.31 2409.6,-213.63"/>
</a>
</g>
</g>
<!-- Node46 -->
<g id="Node000046" class="node">
<title>Node46</title>
<g id="a_Node000046"><a xlink:title=" ">
<polygon fill="#e0e0e0" stroke="#999999" points="2368.94,-206 2246.94,-206 2246.94,-176 2368.94,-176 2368.94,-206"/>
<text text-anchor="start" x="2254.94" y="-194" font-family="Helvetica,sans-Serif" font-size="10.00">device_store_uniform</text>
<text text-anchor="middle" x="2307.94" y="-183" font-family="Helvetica,sans-Serif" font-size="10.00">_decl.h</text>
</a>
</g>
</g>
<!-- Node44&#45;&gt;Node46 -->
<g id="edge54_Node000044_Node000046" class="edge">
<title>Node44&#45;&gt;Node46</title>
<g id="a_edge54_Node000044_Node000046"><a xlink:title=" ">
<path fill="none" stroke="#63b8ff" d="M2321.58,-241.87C2319.71,-235.03 2317,-225.14 2314.49,-215.97"/>
<polygon fill="#63b8ff" stroke="#63b8ff" points="2317.81,-214.84 2311.8,-206.11 2311.06,-216.68 2317.81,-214.84"/>
</a>
</g>
</g>
</g>
</svg>
