<?xml version="1.0" encoding="UTF-8" standalone="no"?>
<!DOCTYPE svg PUBLIC "-//W3C//DTD SVG 1.1//EN"
 "http://www.w3.org/Graphics/SVG/1.1/DTD/svg11.dtd">
<!-- Generated by graphviz version 2.43.0 (0)
 -->
<!-- Title: include/astaroth_forcing.h Pages: 1 -->
<svg width="2734pt" height="313pt"
 viewBox="0.00 0.00 2733.79 313.00" xmlns="http://www.w3.org/2000/svg" xmlns:xlink="http://www.w3.org/1999/xlink">
<g id="graph0" class="graph" transform="scale(1 1) rotate(0) translate(4 309)">
<title>include/astaroth_forcing.h</title>
<!-- Node1 -->
<g id="Node000001" class="node">
<title>Node1</title>
<g id="a_Node000001"><a xlink:title=" ">
<polygon fill="#999999" stroke="#666666" points="761.55,-305 618.55,-305 618.55,-286 761.55,-286 761.55,-305"/>
<text text-anchor="middle" x="690.05" y="-293" font-family="Helvetica,sans-Serif" font-size="10.00">include/astaroth_forcing.h</text>
</a>
</g>
</g>
<!-- Node2 -->
<g id="Node000002" class="node">
<title>Node2</title>
<g id="a_Node000002"><a xlink:href="acc__runtime_8h.html" target="_top" xlink:title=" ">
<polygon fill="white" stroke="#666666" points="1499.05,-250 1413.05,-250 1413.05,-231 1499.05,-231 1499.05,-250"/>
<text text-anchor="middle" x="1456.05" y="-238" font-family="Helvetica,sans-Serif" font-size="10.00">acc_runtime.h</text>
</a>
</g>
</g>
<!-- Node1&#45;&gt;Node2 -->
<g id="edge1_Node000001_Node000002" class="edge">
<title>Node1&#45;&gt;Node2</title>
<g id="a_edge1_Node000001_Node000002"><a xlink:title=" ">
<path fill="none" stroke="#63b8ff" d="M761.77,-289.54C914.37,-278.98 1268.27,-254.49 1402.83,-245.18"/>
<polygon fill="#63b8ff" stroke="#63b8ff" points="1403.15,-248.67 1412.89,-244.49 1402.67,-241.69 1403.15,-248.67"/>
</a>
</g>
</g>
<!-- Node6 -->
<g id="Node000006" class="node">
<title>Node6</title>
<g id="a_Node000006"><a xlink:href="acreal_8h.html" target="_top" xlink:title=" ">
<polygon fill="white" stroke="#666666" points="329.05,-74 273.05,-74 273.05,-55 329.05,-55 329.05,-74"/>
<text text-anchor="middle" x="301.05" y="-62" font-family="Helvetica,sans-Serif" font-size="10.00">acreal.h</text>
</a>
</g>
</g>
<!-- Node1&#45;&gt;Node6 -->
<g id="edge57_Node000001_Node000006" class="edge">
<title>Node1&#45;&gt;Node6</title>
<g id="a_edge57_Node000001_Node000006"><a xlink:title=" ">
<path fill="none" stroke="#63b8ff" d="M618.37,-289.04C457.1,-275.01 74.55,-231.37 7.05,-129 2.4,-121.95 1.54,-116.4 7.05,-110 39.61,-72.14 190.9,-66.09 262.84,-65.39"/>
<polygon fill="#63b8ff" stroke="#63b8ff" points="262.88,-68.89 272.86,-65.32 262.83,-61.89 262.88,-68.89"/>
</a>
</g>
</g>
<!-- Node3 -->
<g id="Node000003" class="node">
<title>Node3</title>
<g id="a_Node000003"><a xlink:title=" ">
<polygon fill="#e0e0e0" stroke="#999999" points="2660.05,-74 2598.05,-74 2598.05,-55 2660.05,-55 2660.05,-74"/>
<text text-anchor="middle" x="2629.05" y="-62" font-family="Helvetica,sans-Serif" font-size="10.00">stdbool.h</text>
</a>
</g>
</g>
<!-- Node2&#45;&gt;Node3 -->
<g id="edge2_Node000002_Node000003" class="edge">
<title>Node2&#45;&gt;Node3</title>
<g id="a_edge2_Node000002_Node000003"><a xlink:title=" ">
<path fill="none" stroke="#63b8ff" d="M1499.33,-239.22C1711.87,-237.67 2636.96,-229.01 2687.05,-195 2720.07,-172.58 2736.88,-144.05 2716.05,-110 2705.82,-93.27 2687.09,-82.58 2669.62,-75.88"/>
<polygon fill="#63b8ff" stroke="#63b8ff" points="2670.7,-72.55 2660.11,-72.55 2668.39,-79.16 2670.7,-72.55"/>
</a>
</g>
</g>
<!-- Node4 -->
<g id="Node000004" class="node">
<title>Node4</title>
<g id="a_Node000004"><a xlink:title=" ">
<polygon fill="#e0e0e0" stroke="#999999" points="2707.05,-129 2657.05,-129 2657.05,-110 2707.05,-110 2707.05,-129"/>
<text text-anchor="middle" x="2682.05" y="-117" font-family="Helvetica,sans-Serif" font-size="10.00">stdio.h</text>
</a>
</g>
</g>
<!-- Node2&#45;&gt;Node4 -->
<g id="edge3_Node000002_Node000004" class="edge">
<title>Node2&#45;&gt;Node4</title>
<g id="a_edge3_Node000002_Node000004"><a xlink:title=" ">
<path fill="none" stroke="#63b8ff" d="M1499.38,-239.37C1710.09,-238.56 2619.3,-232.89 2665.05,-195 2681.14,-181.67 2683.87,-156.55 2683.58,-139.18"/>
<polygon fill="#63b8ff" stroke="#63b8ff" points="2687.07,-138.9 2683.07,-129.09 2680.08,-139.26 2687.07,-138.9"/>
</a>
</g>
</g>
<!-- Node5 -->
<g id="Node000005" class="node">
<title>Node5</title>
<g id="a_Node000005"><a xlink:href="ac__helpers_8h.html" target="_top" xlink:title=" ">
<polygon fill="white" stroke="#666666" points="500.05,-189.5 422.05,-189.5 422.05,-170.5 500.05,-170.5 500.05,-189.5"/>
<text text-anchor="middle" x="461.05" y="-177.5" font-family="Helvetica,sans-Serif" font-size="10.00">ac_helpers.h</text>
</a>
</g>
</g>
<!-- Node2&#45;&gt;Node5 -->
<g id="edge4_Node000002_Node000005" class="edge">
<title>Node2&#45;&gt;Node5</title>
<g id="a_edge4_Node000002_Node000005"><a xlink:title=" ">
<path fill="none" stroke="#63b8ff" d="M1413.01,-238.83C1252.18,-236.12 686.61,-224.64 509.05,-195 504.81,-194.29 500.42,-193.34 496.09,-192.25"/>
<polygon fill="#63b8ff" stroke="#63b8ff" points="496.77,-188.81 486.2,-189.55 494.92,-195.56 496.77,-188.81"/>
</a>
</g>
</g>
<!-- Node7 -->
<g id="Node000007" class="node">
<title>Node7</title>
<g id="a_Node000007"><a xlink:href="device__headers_8h.html" target="_top" xlink:title=" ">
<polygon fill="white" stroke="#666666" points="678.05,-74 576.05,-74 576.05,-55 678.05,-55 678.05,-74"/>
<text text-anchor="middle" x="627.05" y="-62" font-family="Helvetica,sans-Serif" font-size="10.00">device_headers.h</text>
</a>
</g>
</g>
<!-- Node2&#45;&gt;Node7 -->
<g id="edge31_Node000002_Node000007" class="edge">
<title>Node2&#45;&gt;Node7</title>
<g id="a_edge31_Node000002_Node000007"><a xlink:title=" ">
<path fill="none" stroke="#63b8ff" d="M1412.94,-239.76C1257.87,-240.33 734.51,-238.94 675.05,-195 639.64,-168.83 630.33,-113.58 627.9,-84.43"/>
<polygon fill="#63b8ff" stroke="#63b8ff" points="631.38,-84.08 627.25,-74.32 624.4,-84.53 631.38,-84.08"/>
</a>
</g>
</g>
<!-- Node12 -->
<g id="Node000012" class="node">
<title>Node12</title>
<g id="a_Node000012"><a xlink:title=" ">
<polygon fill="#e0e0e0" stroke="#999999" points="442.55,-74 347.55,-74 347.55,-55 442.55,-55 442.55,-74"/>
<text text-anchor="middle" x="395.05" y="-62" font-family="Helvetica,sans-Serif" font-size="10.00">builtin_enums.h</text>
</a>
</g>
</g>
<!-- Node2&#45;&gt;Node12 -->
<g id="edge16_Node000002_Node000012" class="edge">
<title>Node2&#45;&gt;Node12</title>
<g id="a_edge16_Node000002_Node000012"><a xlink:title=" ">
<path fill="none" stroke="#63b8ff" d="M1412.99,-239.19C1220.99,-237.6 450.6,-229.13 413.05,-195 382.2,-166.97 386.35,-112.52 391.16,-83.98"/>
<polygon fill="#63b8ff" stroke="#63b8ff" points="394.6,-84.58 393.03,-74.1 387.73,-83.28 394.6,-84.58"/>
</a>
</g>
</g>
<!-- Node14 -->
<g id="Node000014" class="node">
<title>Node14</title>
<g id="a_Node000014"><a xlink:href="common__kernels_8h.html" target="_top" xlink:title=" ">
<polygon fill="white" stroke="#666666" points="627.55,-189.5 518.55,-189.5 518.55,-170.5 627.55,-170.5 627.55,-189.5"/>
<text text-anchor="middle" x="573.05" y="-177.5" font-family="Helvetica,sans-Serif" font-size="10.00">common_kernels.h</text>
</a>
</g>
</g>
<!-- Node2&#45;&gt;Node14 -->
<g id="edge17_Node000002_Node000014" class="edge">
<title>Node2&#45;&gt;Node14</title>
<g id="a_edge17_Node000002_Node000014"><a xlink:title=" ">
<path fill="none" stroke="#63b8ff" d="M1413.05,-239.35C1291.48,-238.45 935.1,-232.54 642.05,-195 634.88,-194.08 627.34,-192.84 619.99,-191.48"/>
<polygon fill="#63b8ff" stroke="#63b8ff" points="620.61,-188.03 610.13,-189.55 619.27,-194.9 620.61,-188.03"/>
</a>
</g>
</g>
<!-- Node15 -->
<g id="Node000015" class="node">
<title>Node15</title>
<g id="a_Node000015"><a xlink:href="datatypes_8h.html" target="_top" xlink:title=" ">
<polygon fill="white" stroke="#666666" points="244.05,-189.5 170.05,-189.5 170.05,-170.5 244.05,-170.5 244.05,-189.5"/>
<text text-anchor="middle" x="207.05" y="-177.5" font-family="Helvetica,sans-Serif" font-size="10.00">datatypes.h</text>
</a>
</g>
</g>
<!-- Node2&#45;&gt;Node15 -->
<g id="edge22_Node000002_Node000015" class="edge">
<title>Node2&#45;&gt;Node15</title>
<g id="a_edge22_Node000002_Node000015"><a xlink:title=" ">
<path fill="none" stroke="#63b8ff" d="M1412.97,-238.33C1267.51,-234.24 781.28,-219.52 380.05,-195 337.53,-192.4 289.21,-188.4 254.47,-185.34"/>
<polygon fill="#63b8ff" stroke="#63b8ff" points="254.41,-181.83 244.14,-184.43 253.79,-188.8 254.41,-181.83"/>
</a>
</g>
</g>
<!-- Node19 -->
<g id="Node000019" class="node">
<title>Node19</title>
<g id="a_Node000019"><a xlink:href="errchk_8h.html" target="_top" xlink:title="Brief info.">
<polygon fill="white" stroke="#666666" points="2656.05,-189.5 2600.05,-189.5 2600.05,-170.5 2656.05,-170.5 2656.05,-189.5"/>
<text text-anchor="middle" x="2628.05" y="-177.5" font-family="Helvetica,sans-Serif" font-size="10.00">errchk.h</text>
</a>
</g>
</g>
<!-- Node2&#45;&gt;Node19 -->
<g id="edge32_Node000002_Node000019" class="edge">
<title>Node2&#45;&gt;Node19</title>
<g id="a_edge32_Node000002_Node000019"><a xlink:title=" ">
<path fill="none" stroke="#63b8ff" d="M1499.14,-239.66C1679.75,-240.04 2376.42,-238.61 2591.05,-195 2593.73,-194.45 2596.48,-193.74 2599.2,-192.92"/>
<polygon fill="#63b8ff" stroke="#63b8ff" points="2600.49,-196.18 2608.81,-189.62 2598.22,-189.56 2600.49,-196.18"/>
</a>
</g>
</g>
<!-- Node23 -->
<g id="Node000023" class="node">
<title>Node23</title>
<g id="a_Node000023"><a xlink:href="func__define_8h.html" target="_top" xlink:title=" ">
<polygon fill="white" stroke="#666666" points="766.05,-189.5 684.05,-189.5 684.05,-170.5 766.05,-170.5 766.05,-189.5"/>
<text text-anchor="middle" x="725.05" y="-177.5" font-family="Helvetica,sans-Serif" font-size="10.00">func_define.h</text>
</a>
</g>
</g>
<!-- Node2&#45;&gt;Node23 -->
<g id="edge41_Node000002_Node000023" class="edge">
<title>Node2&#45;&gt;Node23</title>
<g id="a_edge41_Node000002_Node000023"><a xlink:title=" ">
<path fill="none" stroke="#63b8ff" d="M1412.66,-239.77C1304.28,-239.79 1013.3,-235.68 775.05,-195 770.58,-194.24 765.94,-193.23 761.36,-192.11"/>
<polygon fill="#63b8ff" stroke="#63b8ff" points="762.11,-188.69 751.54,-189.52 760.32,-195.46 762.11,-188.69"/>
</a>
</g>
</g>
<!-- Node24 -->
<g id="Node000024" class="node">
<title>Node24</title>
<g id="a_Node000024"><a xlink:title=" ">
<polygon fill="#e0e0e0" stroke="#999999" points="870.05,-189.5 784.05,-189.5 784.05,-170.5 870.05,-170.5 870.05,-189.5"/>
<text text-anchor="middle" x="827.05" y="-177.5" font-family="Helvetica,sans-Serif" font-size="10.00">profiles_info.h</text>
</a>
</g>
</g>
<!-- Node2&#45;&gt;Node24 -->
<g id="edge42_Node000002_Node000024" class="edge">
<title>Node2&#45;&gt;Node24</title>
<g id="a_edge42_Node000002_Node000024"><a xlink:title=" ">
<path fill="none" stroke="#63b8ff" d="M1413.01,-238.91C1316.66,-236.99 1076.6,-228.91 879.05,-195 874.34,-194.19 869.45,-193.15 864.62,-192"/>
<polygon fill="#63b8ff" stroke="#63b8ff" points="865.46,-188.6 854.9,-189.52 863.73,-195.38 865.46,-188.6"/>
</a>
</g>
</g>
<!-- Node25 -->
<g id="Node000025" class="node">
<title>Node25</title>
<g id="a_Node000025"><a xlink:title=" ">
<polygon fill="#e0e0e0" stroke="#999999" points="1006.05,-195 888.05,-195 888.05,-165 1006.05,-165 1006.05,-195"/>
<text text-anchor="start" x="896.05" y="-183" font-family="Helvetica,sans-Serif" font-size="10.00">scalar_reduce_buffer</text>
<text text-anchor="middle" x="947.05" y="-172" font-family="Helvetica,sans-Serif" font-size="10.00">_defs.h</text>
</a>
</g>
</g>
<!-- Node2&#45;&gt;Node25 -->
<g id="edge43_Node000002_Node000025" class="edge">
<title>Node2&#45;&gt;Node25</title>
<g id="a_edge43_Node000002_Node000025"><a xlink:title=" ">
<path fill="none" stroke="#63b8ff" d="M1412.98,-236.63C1335.56,-231.14 1167.57,-217.79 1016.26,-195.09"/>
<polygon fill="#63b8ff" stroke="#63b8ff" points="1016.74,-191.62 1006.32,-193.58 1015.68,-198.54 1016.74,-191.62"/>
</a>
</g>
</g>
<!-- Node26 -->
<g id="Node000026" class="node">
<title>Node26</title>
<g id="a_Node000026"><a xlink:title=" ">
<polygon fill="#e0e0e0" stroke="#999999" points="1163.55,-189.5 1024.55,-189.5 1024.55,-170.5 1163.55,-170.5 1163.55,-189.5"/>
<text text-anchor="middle" x="1094.05" y="-177.5" font-family="Helvetica,sans-Serif" font-size="10.00">user_built&#45;in_constants.h</text>
</a>
</g>
</g>
<!-- Node2&#45;&gt;Node26 -->
<g id="edge44_Node000002_Node000026" class="edge">
<title>Node2&#45;&gt;Node26</title>
<g id="a_edge44_Node000002_Node000026"><a xlink:title=" ">
<path fill="none" stroke="#63b8ff" d="M1412.7,-233.01C1356.96,-224.6 1257.19,-209.31 1172.05,-195 1165.21,-193.85 1158.04,-192.61 1150.94,-191.36"/>
<polygon fill="#63b8ff" stroke="#63b8ff" points="1151.08,-187.83 1140.63,-189.53 1149.86,-194.73 1151.08,-187.83"/>
</a>
</g>
</g>
<!-- Node27 -->
<g id="Node000027" class="node">
<title>Node27</title>
<g id="a_Node000027"><a xlink:title=" ">
<polygon fill="#e0e0e0" stroke="#999999" points="1268.55,-189.5 1181.55,-189.5 1181.55,-170.5 1268.55,-170.5 1268.55,-189.5"/>
<text text-anchor="middle" x="1225.05" y="-177.5" font-family="Helvetica,sans-Serif" font-size="10.00">user_defines.h</text>
</a>
</g>
</g>
<!-- Node2&#45;&gt;Node27 -->
<g id="edge45_Node000002_Node000027" class="edge">
<title>Node2&#45;&gt;Node27</title>
<g id="a_edge45_Node000002_Node000027"><a xlink:title=" ">
<path fill="none" stroke="#63b8ff" d="M1420.68,-230.92C1384.53,-222.1 1326.8,-207.88 1277.05,-195 1273.49,-194.08 1269.8,-193.11 1266.1,-192.13"/>
<polygon fill="#63b8ff" stroke="#63b8ff" points="1266.93,-188.73 1256.37,-189.54 1265.13,-195.5 1266.93,-188.73"/>
</a>
</g>
</g>
<!-- Node28 -->
<g id="Node000028" class="node">
<title>Node28</title>
<g id="a_Node000028"><a xlink:title=" ">
<polygon fill="#e0e0e0" stroke="#999999" points="1411.55,-189.5 1286.55,-189.5 1286.55,-170.5 1411.55,-170.5 1411.55,-189.5"/>
<text text-anchor="middle" x="1349.05" y="-177.5" font-family="Helvetica,sans-Serif" font-size="10.00">user_input_typedefs.h</text>
</a>
</g>
</g>
<!-- Node2&#45;&gt;Node28 -->
<g id="edge46_Node000002_Node000028" class="edge">
<title>Node2&#45;&gt;Node28</title>
<g id="a_edge46_Node000002_Node000028"><a xlink:title=" ">
<path fill="none" stroke="#63b8ff" d="M1440.26,-230.87C1422.72,-221.28 1394.17,-205.67 1373.68,-194.47"/>
<polygon fill="#63b8ff" stroke="#63b8ff" points="1375.36,-191.39 1364.9,-189.67 1372,-197.54 1375.36,-191.39"/>
</a>
</g>
</g>
<!-- Node29 -->
<g id="Node000029" class="node">
<title>Node29</title>
<g id="a_Node000029"><a xlink:title=" ">
<polygon fill="#e0e0e0" stroke="#999999" points="1482.55,-189.5 1429.55,-189.5 1429.55,-170.5 1482.55,-170.5 1482.55,-189.5"/>
<text text-anchor="middle" x="1456.05" y="-177.5" font-family="Helvetica,sans-Serif" font-size="10.00">string.h</text>
</a>
</g>
</g>
<!-- Node2&#45;&gt;Node29 -->
<g id="edge47_Node000002_Node000029" class="edge">
<title>Node2&#45;&gt;Node29</title>
<g id="a_edge47_Node000002_Node000029"><a xlink:title=" ">
<path fill="none" stroke="#63b8ff" d="M1456.05,-230.87C1456.05,-222.75 1456.05,-210.31 1456.05,-199.89"/>
<polygon fill="#63b8ff" stroke="#63b8ff" points="1459.55,-199.67 1456.05,-189.67 1452.55,-199.67 1459.55,-199.67"/>
</a>
</g>
</g>
<!-- Node30 -->
<g id="Node000030" class="node">
<title>Node30</title>
<g id="a_Node000030"><a xlink:title=" ">
<polygon fill="#e0e0e0" stroke="#999999" points="1583.55,-189.5 1500.55,-189.5 1500.55,-170.5 1583.55,-170.5 1583.55,-189.5"/>
<text text-anchor="middle" x="1542.05" y="-177.5" font-family="Helvetica,sans-Serif" font-size="10.00">output_decl.h</text>
</a>
</g>
</g>
<!-- Node2&#45;&gt;Node30 -->
<g id="edge48_Node000002_Node000030" class="edge">
<title>Node2&#45;&gt;Node30</title>
<g id="a_edge48_Node000002_Node000030"><a xlink:title=" ">
<path fill="none" stroke="#63b8ff" d="M1468.74,-230.87C1482.46,-221.54 1504.55,-206.51 1520.9,-195.38"/>
<polygon fill="#63b8ff" stroke="#63b8ff" points="1523.01,-198.19 1529.31,-189.67 1519.07,-192.4 1523.01,-198.19"/>
</a>
</g>
</g>
<!-- Node31 -->
<g id="Node000031" class="node">
<title>Node31</title>
<g id="a_Node000031"><a xlink:title=" ">
<polygon fill="#e0e0e0" stroke="#999999" points="1718.05,-189.5 1602.05,-189.5 1602.05,-170.5 1718.05,-170.5 1718.05,-189.5"/>
<text text-anchor="middle" x="1660.05" y="-177.5" font-family="Helvetica,sans-Serif" font-size="10.00">comp_loaded_decl.h</text>
</a>
</g>
</g>
<!-- Node2&#45;&gt;Node31 -->
<g id="edge49_Node000002_Node000031" class="edge">
<title>Node2&#45;&gt;Node31</title>
<g id="a_edge49_Node000002_Node000031"><a xlink:title=" ">
<path fill="none" stroke="#63b8ff" d="M1485.71,-230.99C1521.29,-220.79 1581.07,-203.65 1620.53,-192.33"/>
<polygon fill="#63b8ff" stroke="#63b8ff" points="1621.7,-195.64 1630.35,-189.52 1619.77,-188.91 1621.7,-195.64"/>
</a>
</g>
</g>
<!-- Node32 -->
<g id="Node000032" class="node">
<title>Node32</title>
<g id="a_Node000032"><a xlink:title=" ">
<polygon fill="#e0e0e0" stroke="#999999" points="1814.05,-189.5 1736.05,-189.5 1736.05,-170.5 1814.05,-170.5 1814.05,-189.5"/>
<text text-anchor="middle" x="1775.05" y="-177.5" font-family="Helvetica,sans-Serif" font-size="10.00">comp_decl.h</text>
</a>
</g>
</g>
<!-- Node2&#45;&gt;Node32 -->
<g id="edge50_Node000002_Node000032" class="edge">
<title>Node2&#45;&gt;Node32</title>
<g id="a_edge50_Node000002_Node000032"><a xlink:title=" ">
<path fill="none" stroke="#63b8ff" d="M1499.07,-234.07C1552.79,-226.92 1647.31,-213.11 1727.05,-195 1730.65,-194.18 1734.37,-193.25 1738.09,-192.27"/>
<polygon fill="#63b8ff" stroke="#63b8ff" points="1739.09,-195.62 1747.78,-189.57 1737.21,-188.88 1739.09,-195.62"/>
</a>
</g>
</g>
<!-- Node33 -->
<g id="Node000033" class="node">
<title>Node33</title>
<g id="a_Node000033"><a xlink:title=" ">
<polygon fill="#e0e0e0" stroke="#999999" points="1940.05,-189.5 1832.05,-189.5 1832.05,-170.5 1940.05,-170.5 1940.05,-189.5"/>
<text text-anchor="middle" x="1886.05" y="-177.5" font-family="Helvetica,sans-Serif" font-size="10.00">info_loaded_decl.h</text>
</a>
</g>
</g>
<!-- Node2&#45;&gt;Node33 -->
<g id="edge51_Node000002_Node000033" class="edge">
<title>Node2&#45;&gt;Node33</title>
<g id="a_edge51_Node000002_Node000033"><a xlink:title=" ">
<path fill="none" stroke="#63b8ff" d="M1499.19,-235.65C1567.98,-229.21 1706.65,-214.94 1823.05,-195 1828.78,-194.02 1834.78,-192.86 1840.69,-191.64"/>
<polygon fill="#63b8ff" stroke="#63b8ff" points="1841.47,-195.05 1850.52,-189.53 1840.01,-188.2 1841.47,-195.05"/>
</a>
</g>
</g>
<!-- Node34 -->
<g id="Node000034" class="node">
<title>Node34</title>
<g id="a_Node000034"><a xlink:title=" ">
<polygon fill="#e0e0e0" stroke="#999999" points="2098.05,-189.5 1958.05,-189.5 1958.05,-170.5 2098.05,-170.5 2098.05,-189.5"/>
<text text-anchor="middle" x="2028.05" y="-177.5" font-family="Helvetica,sans-Serif" font-size="10.00">device_mesh_info_decl.h</text>
</a>
</g>
</g>
<!-- Node2&#45;&gt;Node34 -->
<g id="edge52_Node000002_Node000034" class="edge">
<title>Node2&#45;&gt;Node34</title>
<g id="a_edge52_Node000002_Node000034"><a xlink:title=" ">
<path fill="none" stroke="#63b8ff" d="M1499.05,-236.86C1584.86,-231.31 1783.37,-217.12 1949.05,-195 1957.1,-193.93 1965.58,-192.61 1973.87,-191.23"/>
<polygon fill="#63b8ff" stroke="#63b8ff" points="1974.6,-194.66 1983.86,-189.52 1973.42,-187.76 1974.6,-194.66"/>
</a>
</g>
</g>
<!-- Node35 -->
<g id="Node000035" class="node">
<title>Node35</title>
<g id="a_Node000035"><a xlink:title=" ">
<polygon fill="#e0e0e0" stroke="#999999" points="2193.55,-189.5 2116.55,-189.5 2116.55,-170.5 2193.55,-170.5 2193.55,-189.5"/>
<text text-anchor="middle" x="2155.05" y="-177.5" font-family="Helvetica,sans-Serif" font-size="10.00">array_decl.h</text>
</a>
</g>
</g>
<!-- Node2&#45;&gt;Node35 -->
<g id="edge53_Node000002_Node000035" class="edge">
<title>Node2&#45;&gt;Node35</title>
<g id="a_edge53_Node000002_Node000035"><a xlink:title=" ">
<path fill="none" stroke="#63b8ff" d="M1499.09,-239.75C1603.95,-239.66 1880.64,-235.27 2107.05,-195 2111.23,-194.26 2115.57,-193.29 2119.85,-192.2"/>
<polygon fill="#63b8ff" stroke="#63b8ff" points="2120.91,-195.54 2129.63,-189.52 2119.06,-188.79 2120.91,-195.54"/>
</a>
</g>
</g>
<!-- Node36 -->
<g id="Node000036" class="node">
<title>Node36</title>
<g id="a_Node000036"><a xlink:title=" ">
<polygon fill="#e0e0e0" stroke="#999999" points="2288.05,-189.5 2212.05,-189.5 2212.05,-170.5 2288.05,-170.5 2288.05,-189.5"/>
<text text-anchor="middle" x="2250.05" y="-177.5" font-family="Helvetica,sans-Serif" font-size="10.00">input_decl.h</text>
</a>
</g>
</g>
<!-- Node2&#45;&gt;Node36 -->
<g id="edge54_Node000002_Node000036" class="edge">
<title>Node2&#45;&gt;Node36</title>
<g id="a_edge54_Node000002_Node000036"><a xlink:title=" ">
<path fill="none" stroke="#63b8ff" d="M1499.2,-238.23C1637.14,-233.98 2066.31,-219.11 2203.05,-195 2206.99,-194.3 2211.07,-193.39 2215.11,-192.37"/>
<polygon fill="#63b8ff" stroke="#63b8ff" points="2216.24,-195.69 2224.94,-189.64 2214.37,-188.94 2216.24,-195.69"/>
</a>
</g>
</g>
<!-- Node37 -->
<g id="Node000037" class="node">
<title>Node37</title>
<g id="a_Node000037"><a xlink:title=" ">
<polygon fill="#e0e0e0" stroke="#999999" points="2429.55,-195 2306.55,-195 2306.55,-165 2429.55,-165 2429.55,-195"/>
<text text-anchor="start" x="2314.55" y="-183" font-family="Helvetica,sans-Serif" font-size="10.00">scalar_reduce_buffers</text>
<text text-anchor="middle" x="2368.05" y="-172" font-family="Helvetica,sans-Serif" font-size="10.00">_in_vba.h</text>
</a>
</g>
</g>
<!-- Node2&#45;&gt;Node37 -->
<g id="edge55_Node000002_Node000037" class="edge">
<title>Node2&#45;&gt;Node37</title>
<g id="a_edge55_Node000002_Node000037"><a xlink:title=" ">
<path fill="none" stroke="#63b8ff" d="M1499.12,-239.37C1622.06,-238.55 1985.17,-232.94 2296.07,-194.98"/>
<polygon fill="#63b8ff" stroke="#63b8ff" points="2296.68,-198.44 2306.18,-193.74 2295.82,-191.49 2296.68,-198.44"/>
</a>
</g>
</g>
<!-- Node38 -->
<g id="Node000038" class="node">
<title>Node38</title>
<g id="a_Node000038"><a xlink:title=" ">
<polygon fill="#e0e0e0" stroke="#999999" points="2582.05,-195 2448.05,-195 2448.05,-165 2582.05,-165 2582.05,-195"/>
<text text-anchor="start" x="2456.05" y="-183" font-family="Helvetica,sans-Serif" font-size="10.00">load_and_store_uniform</text>
<text text-anchor="middle" x="2515.05" y="-172" font-family="Helvetica,sans-Serif" font-size="10.00">_header.h</text>
</a>
</g>
</g>
<!-- Node2&#45;&gt;Node38 -->
<g id="edge56_Node000002_Node000038" class="edge">
<title>Node2&#45;&gt;Node38</title>
<g id="a_edge56_Node000002_Node000038"><a xlink:title=" ">
<path fill="none" stroke="#63b8ff" d="M1499.33,-239.65C1635.85,-239.68 2069.59,-236.35 2437.93,-195.01"/>
<polygon fill="#63b8ff" stroke="#63b8ff" points="2438.45,-198.47 2447.99,-193.87 2437.66,-191.52 2438.45,-198.47"/>
</a>
</g>
</g>
<!-- Node5&#45;&gt;Node6 -->
<g id="edge5_Node000005_Node000006" class="edge">
<title>Node5&#45;&gt;Node6</title>
<g id="a_edge5_Node000005_Node000006"><a xlink:title=" ">
<path fill="none" stroke="#63b8ff" d="M449.02,-170.47C421.8,-151.16 355.23,-103.93 321.44,-79.96"/>
<polygon fill="#63b8ff" stroke="#63b8ff" points="323.4,-77.06 313.21,-74.13 319.35,-82.77 323.4,-77.06"/>
</a>
</g>
</g>
<!-- Node5&#45;&gt;Node7 -->
<g id="edge6_Node000005_Node000007" class="edge">
<title>Node5&#45;&gt;Node7</title>
<g id="a_edge6_Node000005_Node000007"><a xlink:title=" ">
<path fill="none" stroke="#63b8ff" d="M487.33,-170.4C510.47,-162.06 544.4,-147.89 570.05,-129 587.86,-115.89 604.28,-96.47 614.88,-82.56"/>
<polygon fill="#63b8ff" stroke="#63b8ff" points="617.83,-84.46 620.96,-74.34 612.2,-80.3 617.83,-84.46"/>
</a>
</g>
</g>
<!-- Node10 -->
<g id="Node000010" class="node">
<title>Node10</title>
<g id="a_Node000010"><a xlink:href="host__datatypes_8h.html" target="_top" xlink:title=" ">
<polygon fill="white" stroke="#666666" points="561.55,-129 460.55,-129 460.55,-110 561.55,-110 561.55,-129"/>
<text text-anchor="middle" x="511.05" y="-117" font-family="Helvetica,sans-Serif" font-size="10.00">host_datatypes.h</text>
</a>
</g>
</g>
<!-- Node5&#45;&gt;Node10 -->
<g id="edge9_Node000005_Node000010" class="edge">
<title>Node5&#45;&gt;Node10</title>
<g id="a_edge9_Node000005_Node000010"><a xlink:title=" ">
<path fill="none" stroke="#63b8ff" d="M468.43,-170.37C475.96,-161.55 487.84,-147.66 497.14,-136.77"/>
<polygon fill="#63b8ff" stroke="#63b8ff" points="499.8,-139.04 503.64,-129.17 494.48,-134.5 499.8,-139.04"/>
</a>
</g>
</g>
<!-- Node8 -->
<g id="Node000008" class="node">
<title>Node8</title>
<g id="a_Node000008"><a xlink:title=" ">
<polygon fill="#e0e0e0" stroke="#999999" points="296.55,-19 183.55,-19 183.55,0 296.55,0 296.55,-19"/>
<text text-anchor="middle" x="240.05" y="-7" font-family="Helvetica,sans-Serif" font-size="10.00">cuda_runtime_api.h</text>
</a>
</g>
</g>
<!-- Node7&#45;&gt;Node8 -->
<g id="edge7_Node000007_Node000008" class="edge">
<title>Node7&#45;&gt;Node8</title>
<g id="a_edge7_Node000007_Node000008"><a xlink:title=" ">
<path fill="none" stroke="#63b8ff" d="M575.8,-56.35C572.5,-55.89 569.23,-55.44 566.05,-55 476.35,-42.63 372.74,-28.52 306.84,-19.56"/>
<polygon fill="#63b8ff" stroke="#63b8ff" points="306.97,-16.05 296.59,-18.17 306.03,-22.98 306.97,-16.05"/>
</a>
</g>
</g>
<!-- Node9 -->
<g id="Node000009" class="node">
<title>Node9</title>
<g id="a_Node000009"><a xlink:title=" ">
<polygon fill="#e0e0e0" stroke="#999999" points="665.05,-19 589.05,-19 589.05,0 665.05,0 665.05,-19"/>
<text text-anchor="middle" x="627.05" y="-7" font-family="Helvetica,sans-Serif" font-size="10.00">cuda_fp16.h</text>
</a>
</g>
</g>
<!-- Node7&#45;&gt;Node9 -->
<g id="edge8_Node000007_Node000009" class="edge">
<title>Node7&#45;&gt;Node9</title>
<g id="a_edge8_Node000007_Node000009"><a xlink:title=" ">
<path fill="none" stroke="#63b8ff" d="M627.05,-54.75C627.05,-47.8 627.05,-37.85 627.05,-29.13"/>
<polygon fill="#63b8ff" stroke="#63b8ff" points="630.55,-29.09 627.05,-19.09 623.55,-29.09 630.55,-29.09"/>
</a>
</g>
</g>
<!-- Node10&#45;&gt;Node3 -->
<g id="edge10_Node000010_Node000003" class="edge">
<title>Node10&#45;&gt;Node3</title>
<g id="a_edge10_Node000010_Node000003"><a xlink:title=" ">
<path fill="none" stroke="#63b8ff" d="M561.57,-117.24C853.52,-109.93 2320.83,-73.21 2587.45,-66.54"/>
<polygon fill="#63b8ff" stroke="#63b8ff" points="2587.93,-70.03 2597.84,-66.28 2587.76,-63.03 2587.93,-70.03"/>
</a>
</g>
</g>
<!-- Node10&#45;&gt;Node6 -->
<g id="edge12_Node000010_Node000006" class="edge">
<title>Node10&#45;&gt;Node6</title>
<g id="a_edge12_Node000010_Node000006"><a xlink:title=" ">
<path fill="none" stroke="#63b8ff" d="M477.31,-109.98C439.55,-100.46 378.52,-85.05 339.09,-75.1"/>
<polygon fill="#63b8ff" stroke="#63b8ff" points="339.87,-71.69 329.32,-72.63 338.16,-78.48 339.87,-71.69"/>
</a>
</g>
</g>
<!-- Node10&#45;&gt;Node7 -->
<g id="edge14_Node000010_Node000007" class="edge">
<title>Node10&#45;&gt;Node7</title>
<g id="a_edge14_Node000010_Node000007"><a xlink:title=" ">
<path fill="none" stroke="#63b8ff" d="M529.69,-109.98C548.35,-101.46 577.3,-88.23 598.79,-78.41"/>
<polygon fill="#63b8ff" stroke="#63b8ff" points="600.43,-81.51 608.07,-74.17 597.52,-75.14 600.43,-81.51"/>
</a>
</g>
</g>
<!-- Node11 -->
<g id="Node000011" class="node">
<title>Node11</title>
<g id="a_Node000011"><a xlink:title=" ">
<polygon fill="#e0e0e0" stroke="#999999" points="770.05,-74 714.05,-74 714.05,-55 770.05,-55 770.05,-74"/>
<text text-anchor="middle" x="742.05" y="-62" font-family="Helvetica,sans-Serif" font-size="10.00">stddef.h</text>
</a>
</g>
</g>
<!-- Node10&#45;&gt;Node11 -->
<g id="edge11_Node000010_Node000011" class="edge">
<title>Node10&#45;&gt;Node11</title>
<g id="a_edge11_Node000010_Node000011"><a xlink:title=" ">
<path fill="none" stroke="#63b8ff" d="M548.16,-109.98C590.9,-100.18 660.76,-84.15 703.93,-74.25"/>
<polygon fill="#63b8ff" stroke="#63b8ff" points="704.8,-77.64 713.76,-71.99 703.23,-70.81 704.8,-77.64"/>
</a>
</g>
</g>
<!-- Node10&#45;&gt;Node12 -->
<g id="edge13_Node000010_Node000012" class="edge">
<title>Node10&#45;&gt;Node12</title>
<g id="a_edge13_Node000010_Node000012"><a xlink:title=" ">
<path fill="none" stroke="#63b8ff" d="M492.41,-109.98C473.75,-101.46 444.8,-88.23 423.31,-78.41"/>
<polygon fill="#63b8ff" stroke="#63b8ff" points="424.58,-75.14 414.03,-74.17 421.67,-81.51 424.58,-75.14"/>
</a>
</g>
</g>
<!-- Node13 -->
<g id="Node000013" class="node">
<title>Node13</title>
<g id="a_Node000013"><a xlink:title=" ">
<polygon fill="#e0e0e0" stroke="#999999" points="557.55,-74 462.55,-74 462.55,-55 557.55,-55 557.55,-74"/>
<text text-anchor="middle" x="510.05" y="-62" font-family="Helvetica,sans-Serif" font-size="10.00">user_typedefs.h</text>
</a>
</g>
</g>
<!-- Node10&#45;&gt;Node13 -->
<g id="edge15_Node000010_Node000013" class="edge">
<title>Node10&#45;&gt;Node13</title>
<g id="a_edge15_Node000010_Node000013"><a xlink:title=" ">
<path fill="none" stroke="#63b8ff" d="M510.88,-109.75C510.75,-102.8 510.57,-92.85 510.4,-84.13"/>
<polygon fill="#63b8ff" stroke="#63b8ff" points="513.9,-84.02 510.21,-74.09 506.9,-84.15 513.9,-84.02"/>
</a>
</g>
</g>
<!-- Node14&#45;&gt;Node6 -->
<g id="edge19_Node000014_Node000006" class="edge">
<title>Node14&#45;&gt;Node6</title>
<g id="a_edge19_Node000014_Node000006"><a xlink:title=" ">
<path fill="none" stroke="#63b8ff" d="M551.86,-170.4C527.5,-160.5 486.34,-143.7 451.05,-129 409.3,-111.61 361.18,-91.17 330.93,-78.27"/>
<polygon fill="#63b8ff" stroke="#63b8ff" points="331.97,-74.91 321.4,-74.2 329.22,-81.35 331.97,-74.91"/>
</a>
</g>
</g>
<!-- Node14&#45;&gt;Node7 -->
<g id="edge20_Node000014_Node000007" class="edge">
<title>Node14&#45;&gt;Node7</title>
<g id="a_edge20_Node000014_Node000007"><a xlink:title=" ">
<path fill="none" stroke="#63b8ff" d="M579.11,-170.46C585.82,-160.75 596.66,-144.26 604.05,-129 611.16,-114.33 617.33,-96.86 621.49,-83.96"/>
<polygon fill="#63b8ff" stroke="#63b8ff" points="624.84,-84.95 624.48,-74.36 618.16,-82.87 624.84,-84.95"/>
</a>
</g>
</g>
<!-- Node14&#45;&gt;Node10 -->
<g id="edge21_Node000014_Node000010" class="edge">
<title>Node14&#45;&gt;Node10</title>
<g id="a_edge21_Node000014_Node000010"><a xlink:title=" ">
<path fill="none" stroke="#63b8ff" d="M563.9,-170.37C554.38,-161.38 539.25,-147.11 527.62,-136.14"/>
<polygon fill="#63b8ff" stroke="#63b8ff" points="529.91,-133.48 520.24,-129.17 525.11,-138.58 529.91,-133.48"/>
</a>
</g>
</g>
<!-- Node14&#45;&gt;Node11 -->
<g id="edge18_Node000014_Node000011" class="edge">
<title>Node14&#45;&gt;Node11</title>
<g id="a_edge18_Node000014_Node000011"><a xlink:title=" ">
<path fill="none" stroke="#63b8ff" d="M585.75,-170.47C614.5,-151.16 684.83,-103.93 720.52,-79.96"/>
<polygon fill="#63b8ff" stroke="#63b8ff" points="722.85,-82.61 729.2,-74.13 718.95,-76.8 722.85,-82.61"/>
</a>
</g>
</g>
<!-- Node15&#45;&gt;Node6 -->
<g id="edge25_Node000015_Node000006" class="edge">
<title>Node15&#45;&gt;Node6</title>
<g id="a_edge25_Node000015_Node000006"><a xlink:title=" ">
<path fill="none" stroke="#63b8ff" d="M169.8,-177.75C103.45,-174.22 -24.37,-160.81 19.05,-110 49.98,-73.8 193.33,-66.87 262.93,-65.67"/>
<polygon fill="#63b8ff" stroke="#63b8ff" points="263.09,-69.17 273.04,-65.52 262.99,-62.17 263.09,-69.17"/>
</a>
</g>
</g>
<!-- Node15&#45;&gt;Node7 -->
<g id="edge27_Node000015_Node000007" class="edge">
<title>Node15&#45;&gt;Node7</title>
<g id="a_edge27_Node000015_Node000007"><a xlink:title=" ">
<path fill="none" stroke="#63b8ff" d="M236.27,-170.45C281.98,-157.14 373.23,-130.84 451.05,-110 495.38,-98.13 546.23,-85.36 581.83,-76.56"/>
<polygon fill="#63b8ff" stroke="#63b8ff" points="583.04,-79.87 591.91,-74.08 581.36,-73.07 583.04,-79.87"/>
</a>
</g>
</g>
<!-- Node15&#45;&gt;Node8 -->
<g id="edge29_Node000015_Node000008" class="edge">
<title>Node15&#45;&gt;Node8</title>
<g id="a_edge29_Node000015_Node000008"><a xlink:title=" ">
<path fill="none" stroke="#63b8ff" d="M169.84,-179.27C101.84,-178.36 -32.06,-169.23 7.05,-110 43.73,-54.45 118.46,-29.81 173.44,-18.94"/>
<polygon fill="#63b8ff" stroke="#63b8ff" points="174.28,-22.35 183.47,-17.07 172.99,-15.47 174.28,-22.35"/>
</a>
</g>
</g>
<!-- Node15&#45;&gt;Node10 -->
<g id="edge28_Node000015_Node000010" class="edge">
<title>Node15&#45;&gt;Node10</title>
<g id="a_edge28_Node000015_Node000010"><a xlink:title=" ">
<path fill="none" stroke="#63b8ff" d="M244.33,-171.83C297.57,-161.58 395.71,-142.7 456.94,-130.91"/>
<polygon fill="#63b8ff" stroke="#63b8ff" points="457.66,-134.34 466.81,-129.01 456.33,-127.47 457.66,-134.34"/>
</a>
</g>
</g>
<!-- Node15&#45;&gt;Node12 -->
<g id="edge26_Node000015_Node000012" class="edge">
<title>Node15&#45;&gt;Node12</title>
<g id="a_edge26_Node000015_Node000012"><a xlink:title=" ">
<path fill="none" stroke="#63b8ff" d="M221.18,-170.47C253.43,-151 332.73,-103.13 372.1,-79.36"/>
<polygon fill="#63b8ff" stroke="#63b8ff" points="374,-82.29 380.75,-74.13 370.38,-76.3 374,-82.29"/>
</a>
</g>
</g>
<!-- Node16 -->
<g id="Node000016" class="node">
<title>Node16</title>
<g id="a_Node000016"><a xlink:title=" ">
<polygon fill="#e0e0e0" stroke="#999999" points="75.55,-129 28.55,-129 28.55,-110 75.55,-110 75.55,-129"/>
<text text-anchor="middle" x="52.05" y="-117" font-family="Helvetica,sans-Serif" font-size="10.00">float.h</text>
</a>
</g>
</g>
<!-- Node15&#45;&gt;Node16 -->
<g id="edge23_Node000015_Node000016" class="edge">
<title>Node15&#45;&gt;Node16</title>
<g id="a_edge23_Node000015_Node000016"><a xlink:title=" ">
<path fill="none" stroke="#63b8ff" d="M184.51,-170.49C158.11,-160.53 114.17,-143.95 84.2,-132.63"/>
<polygon fill="#63b8ff" stroke="#63b8ff" points="85.21,-129.27 74.61,-129.02 82.73,-135.82 85.21,-129.27"/>
</a>
</g>
</g>
<!-- Node17 -->
<g id="Node000017" class="node">
<title>Node17</title>
<g id="a_Node000017"><a xlink:title=" ">
<polygon fill="#e0e0e0" stroke="#999999" points="144.55,-129 93.55,-129 93.55,-110 144.55,-110 144.55,-129"/>
<text text-anchor="middle" x="119.05" y="-117" font-family="Helvetica,sans-Serif" font-size="10.00">math.h</text>
</a>
</g>
</g>
<!-- Node15&#45;&gt;Node17 -->
<g id="edge24_Node000015_Node000017" class="edge">
<title>Node15&#45;&gt;Node17</title>
<g id="a_edge24_Node000015_Node000017"><a xlink:title=" ">
<path fill="none" stroke="#63b8ff" d="M194.06,-170.37C180.03,-161.04 157.42,-146.01 140.69,-134.88"/>
<polygon fill="#63b8ff" stroke="#63b8ff" points="142.35,-131.79 132.09,-129.17 138.48,-137.62 142.35,-131.79"/>
</a>
</g>
</g>
<!-- Node18 -->
<g id="Node000018" class="node">
<title>Node18</title>
<g id="a_Node000018"><a xlink:title=" ">
<polygon fill="#e0e0e0" stroke="#999999" points="251.55,-129 162.55,-129 162.55,-110 251.55,-110 251.55,-129"/>
<text text-anchor="middle" x="207.05" y="-117" font-family="Helvetica,sans-Serif" font-size="10.00">vector_types.h</text>
</a>
</g>
</g>
<!-- Node15&#45;&gt;Node18 -->
<g id="edge30_Node000015_Node000018" class="edge">
<title>Node15&#45;&gt;Node18</title>
<g id="a_edge30_Node000015_Node000018"><a xlink:title=" ">
<path fill="none" stroke="#63b8ff" d="M207.05,-170.37C207.05,-162.25 207.05,-149.81 207.05,-139.39"/>
<polygon fill="#63b8ff" stroke="#63b8ff" points="210.55,-139.17 207.05,-129.17 203.55,-139.17 210.55,-139.17"/>
</a>
</g>
</g>
<!-- Node19&#45;&gt;Node3 -->
<g id="edge33_Node000019_Node000003" class="edge">
<title>Node19&#45;&gt;Node3</title>
<g id="a_edge33_Node000019_Node000003"><a xlink:title=" ">
<path fill="none" stroke="#63b8ff" d="M2628.12,-170.47C2628.29,-152.23 2628.67,-109.07 2628.89,-84.14"/>
<polygon fill="#63b8ff" stroke="#63b8ff" points="2632.38,-84.16 2628.97,-74.13 2625.39,-84.1 2632.38,-84.16"/>
</a>
</g>
</g>
<!-- Node19&#45;&gt;Node4 -->
<g id="edge36_Node000019_Node000004" class="edge">
<title>Node19&#45;&gt;Node4</title>
<g id="a_edge36_Node000019_Node000004"><a xlink:title=" ">
<path fill="none" stroke="#63b8ff" d="M2636.02,-170.37C2644.15,-161.55 2656.98,-147.66 2667.03,-136.77"/>
<polygon fill="#63b8ff" stroke="#63b8ff" points="2669.84,-138.89 2674.05,-129.17 2664.69,-134.14 2669.84,-138.89"/>
</a>
</g>
</g>
<!-- Node19&#45;&gt;Node7 -->
<g id="edge39_Node000019_Node000007" class="edge">
<title>Node19&#45;&gt;Node7</title>
<g id="a_edge39_Node000019_Node000007"><a xlink:title=" ">
<path fill="none" stroke="#63b8ff" d="M2608.8,-170.41C2603.19,-168.27 2596.97,-166.23 2591.05,-165 2180.23,-79.6 1123.36,-106.85 705.05,-74 699.62,-73.57 693.98,-73.07 688.33,-72.53"/>
<polygon fill="#63b8ff" stroke="#63b8ff" points="688.49,-69.03 678.2,-71.52 687.8,-76 688.49,-69.03"/>
</a>
</g>
</g>
<!-- Node19&#45;&gt;Node10 -->
<g id="edge40_Node000019_Node000010" class="edge">
<title>Node19&#45;&gt;Node10</title>
<g id="a_edge40_Node000019_Node000010"><a xlink:title=" ">
<path fill="none" stroke="#63b8ff" d="M2609.21,-170.45C2603.49,-168.25 2597.12,-166.17 2591.05,-165 2383.6,-125.03 901.19,-136.01 690.05,-129 650.74,-127.69 606.6,-125.61 571.99,-123.83"/>
<polygon fill="#63b8ff" stroke="#63b8ff" points="571.74,-120.31 561.57,-123.28 571.38,-127.3 571.74,-120.31"/>
</a>
</g>
</g>
<!-- Node19&#45;&gt;Node11 -->
<g id="edge34_Node000019_Node000011" class="edge">
<title>Node19&#45;&gt;Node11</title>
<g id="a_edge34_Node000019_Node000011"><a xlink:title=" ">
<path fill="none" stroke="#63b8ff" d="M2624.05,-170.18C2616.46,-154.67 2598.36,-122.93 2572.05,-110 2488.83,-69.12 1036.23,-65.79 780.38,-65.52"/>
<polygon fill="#63b8ff" stroke="#63b8ff" points="780.11,-62.02 770.1,-65.51 780.1,-69.02 780.11,-62.02"/>
</a>
</g>
</g>
<!-- Node20 -->
<g id="Node000020" class="node">
<title>Node20</title>
<g id="a_Node000020"><a xlink:title=" ">
<polygon fill="#e0e0e0" stroke="#999999" points="2425.55,-129 2372.55,-129 2372.55,-110 2425.55,-110 2425.55,-129"/>
<text text-anchor="middle" x="2399.05" y="-117" font-family="Helvetica,sans-Serif" font-size="10.00">stdint.h</text>
</a>
</g>
</g>
<!-- Node19&#45;&gt;Node20 -->
<g id="edge35_Node000019_Node000020" class="edge">
<title>Node19&#45;&gt;Node20</title>
<g id="a_edge35_Node000019_Node000020"><a xlink:title=" ">
<path fill="none" stroke="#63b8ff" d="M2606.7,-170.36C2601.61,-168.46 2596.18,-166.55 2591.05,-165 2525.88,-145.25 2506.03,-145.15 2435.59,-129.09"/>
<polygon fill="#63b8ff" stroke="#63b8ff" points="2436.31,-125.67 2425.78,-126.83 2434.74,-132.49 2436.31,-125.67"/>
</a>
</g>
</g>
<!-- Node21 -->
<g id="Node000021" class="node">
<title>Node21</title>
<g id="a_Node000021"><a xlink:title=" ">
<polygon fill="#e0e0e0" stroke="#999999" points="2496.55,-129 2443.55,-129 2443.55,-110 2496.55,-110 2496.55,-129"/>
<text text-anchor="middle" x="2470.05" y="-117" font-family="Helvetica,sans-Serif" font-size="10.00">stdlib.h</text>
</a>
</g>
</g>
<!-- Node19&#45;&gt;Node21 -->
<g id="edge37_Node000019_Node000021" class="edge">
<title>Node19&#45;&gt;Node21</title>
<g id="a_edge37_Node000019_Node000021"><a xlink:title=" ">
<path fill="none" stroke="#63b8ff" d="M2605.36,-170.38C2600.64,-168.59 2595.68,-166.73 2591.05,-165 2561.37,-153.93 2527.54,-141.5 2503.2,-132.6"/>
<polygon fill="#63b8ff" stroke="#63b8ff" points="2504.32,-129.28 2493.72,-129.13 2501.91,-135.85 2504.32,-129.28"/>
</a>
</g>
</g>
<!-- Node22 -->
<g id="Node000022" class="node">
<title>Node22</title>
<g id="a_Node000022"><a xlink:title=" ">
<polygon fill="#e0e0e0" stroke="#999999" points="2563.05,-129 2515.05,-129 2515.05,-110 2563.05,-110 2563.05,-129"/>
<text text-anchor="middle" x="2539.05" y="-117" font-family="Helvetica,sans-Serif" font-size="10.00">time.h</text>
</a>
</g>
</g>
<!-- Node19&#45;&gt;Node22 -->
<g id="edge38_Node000019_Node000022" class="edge">
<title>Node19&#45;&gt;Node22</title>
<g id="a_edge38_Node000019_Node000022"><a xlink:title=" ">
<path fill="none" stroke="#63b8ff" d="M2614.92,-170.37C2600.72,-161.04 2577.85,-146.01 2560.93,-134.88"/>
<polygon fill="#63b8ff" stroke="#63b8ff" points="2562.51,-131.74 2552.24,-129.17 2558.67,-137.58 2562.51,-131.74"/>
</a>
</g>
</g>
</g>
</svg>
