<?xml version="1.0" encoding="UTF-8" standalone="no"?>
<!DOCTYPE svg PUBLIC "-//W3C//DTD SVG 1.1//EN"
 "http://www.w3.org/Graphics/SVG/1.1/DTD/svg11.dtd">
<!-- Generated by graphviz version 2.43.0 (0)
 -->
<!-- Title: include/astaroth_device.h Pages: 1 -->
<!--zoomable 214 -->

<svg id="main" version="1.1" xmlns="http://www.w3.org/2000/svg" xmlns:xlink="http://www.w3.org/1999/xlink" xml:space="preserve" onload="init(evt)">
<style type="text/css"><![CDATA[
.node, .edge {opacity: 0.7;}
.node.selected, .edge.selected {opacity: 1;}
.edge:hover path { stroke: red; }
.edge:hover polygon { stroke: red; fill: red; }
]]></style>

<defs>
  <circle id="rim" cx="0" cy="0" r="7"/>
  <circle id="rim2" cx="0" cy="0" r="3.5"/>
  <g id="zoomPlus">
    <use xlink:href="#rim" fill="#404040"><set attributeName="fill" to="#808080" begin="zoomplus.mouseover" end="zoomplus.mouseout"/></use>
    <path d="M-4,0h8M0,-4v8" fill="none" stroke="white" stroke-width="1.5" pointer-events="none"/>
  </g>
  <g id="zoomMin">
    <use xlink:href="#rim" fill="#404040"><set attributeName="fill" to="#808080" begin="zoomminus.mouseover" end="zoomminus.mouseout"/></use>
    <path d="M-4,0h8" fill="none" stroke="white" stroke-width="1.5" pointer-events="none"/>
  </g>
  <g id="arrowUp" transform="translate(30 24)">
    <use xlink:href="#rim"/>
    <path pointer-events="none" fill="none" stroke="white" stroke-width="1.5" d="M0,-3.0v7 M-2.5,-0.5L0,-3.0L2.5,-0.5"/>
  </g>
  <g id="arrowRight" transform="rotate(90) translate(36 -43)">
    <use xlink:href="#rim"/>
    <path pointer-events="none" fill="none" stroke="white" stroke-width="1.5" d="M0,-3.0v7 M-2.5,-0.5L0,-3.0L2.5,-0.5"/>
  </g>
  <g id="arrowDown" transform="rotate(180) translate(-30 -48)">
    <use xlink:href="#rim"/>
    <path pointer-events="none" fill="none" stroke="white" stroke-width="1.5" d="M0,-3.0v7 M-2.5,-0.5L0,-3.0L2.5,-0.5"/>
  </g>
  <g id="arrowLeft" transform="rotate(270) translate(-36 17)">
    <use xlink:href="#rim"/>
    <path pointer-events="none" fill="none" stroke="white" stroke-width="1.5" d="M0,-3.0v7 M-2.5,-0.5L0,-3.0L2.5,-0.5"/>
  </g>
  <g id="resetDef">
    <use xlink:href="#rim2" fill="#404040"><set attributeName="fill" to="#808080" begin="reset.mouseover" end="reset.mouseout"/></use>
  </g>
</defs>
<script type="application/ecmascript">
var viewWidth = 2151;
var viewHeight = 214;
var sectionId = 'dynsection-1';
</script>
<script type="application/ecmascript" xlink:href="svg.min.js"/>
<svg id="graph" class="graph">
<g id="viewport">
<title>include/astaroth_device.h</title>
<!-- Node1 -->
<g id="Node000001" class="node">
<title>Node1</title>
<g id="a_Node000001"><a xlink:title=" ">
<polygon fill="#999999" stroke="#666666" points="2048.5,-206 1906.5,-206 1906.5,-187 2048.5,-187 2048.5,-206"/>
<text text-anchor="middle" x="1977.5" y="-194" font-family="Helvetica,sans-Serif" font-size="10.00">include/astaroth_device.h</text>
</a>
</g>
</g>
<!-- Node2 -->
<g id="Node000002" class="node">
<title>Node2</title>
<g id="a_Node000002"><a xlink:href="astaroth_8h.html" target="_top" xlink:title=" ">
<polygon fill="white" stroke="#666666" points="1192.5,-151 1088.5,-151 1088.5,-132 1192.5,-132 1192.5,-151"/>
<text text-anchor="middle" x="1140.5" y="-139" font-family="Helvetica,sans-Serif" font-size="10.00">include/astaroth.h</text>
</a>
</g>
</g>
<!-- Node1&#45;&gt;Node2 -->
<g id="edge1_Node000001_Node000002" class="edge">
<title>Node1&#45;&gt;Node2</title>
<g id="a_edge1_Node000001_Node000002"><a xlink:title=" ">
<path fill="none" stroke="#63b8ff" d="M1896.32,-190.36C1725.69,-179.55 1333.93,-154.75 1192.57,-145.8"/>
<polygon fill="#63b8ff" stroke="#63b8ff" points="1896.3,-193.87 1906.5,-191 1896.74,-186.88 1896.3,-193.87"/>
</a>
</g>
</g>
<!-- Node18 -->
<g id="Node000018" class="node">
<title>Node18</title>
<g id="a_Node000018"><a xlink:href="device_8cc.html" target="_top" xlink:title=" ">
<polygon fill="white" stroke="#666666" points="2029.5,-90.5 1925.5,-90.5 1925.5,-71.5 2029.5,-71.5 2029.5,-90.5"/>
<text text-anchor="middle" x="1977.5" y="-78.5" font-family="Helvetica,sans-Serif" font-size="10.00">src/core/device.cc</text>
</a>
</g>
</g>
<!-- Node1&#45;&gt;Node18 -->
<g id="edge35_Node000001_Node000018" class="edge">
<title>Node1&#45;&gt;Node18</title>
<g id="a_edge35_Node000001_Node000018"><a xlink:title=" ">
<path fill="none" stroke="#63b8ff" d="M1977.5,-176.65C1977.5,-151.74 1977.5,-108.88 1977.5,-90.63"/>
<polygon fill="#63b8ff" stroke="#63b8ff" points="1974,-176.97 1977.5,-186.97 1981,-176.97 1974,-176.97"/>
</a>
</g>
</g>
<!-- Node21 -->
<g id="Node000021" class="node">
<title>Node21</title>
<g id="a_Node000021"><a xlink:href="node_8cc.html" target="_top" xlink:title="Multi&#45;GPU implementation.">
<polygon fill="white" stroke="#666666" points="2143,-90.5 2048,-90.5 2048,-71.5 2143,-71.5 2143,-90.5"/>
<text text-anchor="middle" x="2095.5" y="-78.5" font-family="Helvetica,sans-Serif" font-size="10.00">src/core/node.cc</text>
</a>
</g>
</g>
<!-- Node1&#45;&gt;Node21 -->
<g id="edge36_Node000001_Node000021" class="edge">
<title>Node1&#45;&gt;Node21</title>
<g id="a_edge36_Node000001_Node000021"><a xlink:title=" ">
<path fill="none" stroke="#63b8ff" d="M1993.7,-179.92C2018.91,-155.67 2066.7,-109.7 2086.53,-90.63"/>
<polygon fill="#63b8ff" stroke="#63b8ff" points="1991.15,-177.51 1986.37,-186.97 1996,-182.56 1991.15,-177.51"/>
</a>
</g>
</g>
<!-- Node3 -->
<g id="Node000003" class="node">
<title>Node3</title>
<g id="a_Node000003"><a xlink:href="astaroth__utils_8h.html" target="_top" xlink:title="Functions for loading and updating AcMeshInfo.">
<polygon fill="white" stroke="#666666" points="793,-90.5 662,-90.5 662,-71.5 793,-71.5 793,-90.5"/>
<text text-anchor="middle" x="727.5" y="-78.5" font-family="Helvetica,sans-Serif" font-size="10.00">include/astaroth_utils.h</text>
</a>
</g>
</g>
<!-- Node2&#45;&gt;Node3 -->
<g id="edge2_Node000002_Node000003" class="edge">
<title>Node2&#45;&gt;Node3</title>
<g id="a_edge2_Node000002_Node000003"><a xlink:title=" ">
<path fill="none" stroke="#63b8ff" d="M1078.53,-132.98C1011.58,-124.68 901.81,-110.55 807.5,-96 796.77,-94.34 785.26,-92.42 774.4,-90.53"/>
<polygon fill="#63b8ff" stroke="#63b8ff" points="1078.14,-136.46 1088.49,-134.21 1079,-129.51 1078.14,-136.46"/>
</a>
</g>
</g>
<!-- Node4 -->
<g id="Node000004" class="node">
<title>Node4</title>
<g id="a_Node000004"><a xlink:href="config__loader_8cc.html" target="_top" xlink:title=" ">
<polygon fill="white" stroke="#666666" points="1185.5,-24.5 1049.5,-24.5 1049.5,-5.5 1185.5,-5.5 1185.5,-24.5"/>
<text text-anchor="middle" x="1117.5" y="-12.5" font-family="Helvetica,sans-Serif" font-size="10.00">src/utils/config_loader.cc</text>
</a>
</g>
</g>
<!-- Node2&#45;&gt;Node4 -->
<g id="edge29_Node000002_Node000004" class="edge">
<title>Node2&#45;&gt;Node4</title>
<g id="a_edge29_Node000002_Node000004"><a xlink:title=" ">
<path fill="none" stroke="#63b8ff" d="M1078.37,-136.78C1019.33,-131.8 936.65,-120.55 916.5,-96 908.04,-85.69 908.29,-76.5 916.5,-66 926.05,-53.78 1013.99,-35.33 1070.35,-24.59"/>
<polygon fill="#63b8ff" stroke="#63b8ff" points="1078.11,-140.28 1088.36,-137.59 1078.68,-133.3 1078.11,-140.28"/>
</a>
</g>
</g>
<!-- Node5 -->
<g id="Node000005" class="node">
<title>Node5</title>
<g id="a_Node000005"><a xlink:href="memory_8cc.html" target="_top" xlink:title=" ">
<polygon fill="white" stroke="#666666" points="434,-24.5 323,-24.5 323,-5.5 434,-5.5 434,-24.5"/>
<text text-anchor="middle" x="378.5" y="-12.5" font-family="Helvetica,sans-Serif" font-size="10.00">src/utils/memory.cc</text>
</a>
</g>
</g>
<!-- Node2&#45;&gt;Node5 -->
<g id="edge30_Node000002_Node000005" class="edge">
<title>Node2&#45;&gt;Node5</title>
<g id="a_edge30_Node000002_Node000005"><a xlink:title=" ">
<path fill="none" stroke="#63b8ff" d="M1078.17,-140.25C956.52,-138.97 692.12,-131.98 609.5,-96 591.33,-88.09 593.96,-75.37 576.5,-66 562.4,-58.43 469.75,-36.68 416.33,-24.51"/>
<polygon fill="#63b8ff" stroke="#63b8ff" points="1078.41,-143.76 1088.44,-140.35 1078.47,-136.76 1078.41,-143.76"/>
</a>
</g>
</g>
<!-- Node6 -->
<g id="Node000006" class="node">
<title>Node6</title>
<g id="a_Node000006"><a xlink:href="modelreduce_8cc.html" target="_top" xlink:title=" ">
<polygon fill="white" stroke="#666666" points="587,-24.5 452,-24.5 452,-5.5 587,-5.5 587,-24.5"/>
<text text-anchor="middle" x="519.5" y="-12.5" font-family="Helvetica,sans-Serif" font-size="10.00">src/utils/modelreduce.cc</text>
</a>
</g>
</g>
<!-- Node2&#45;&gt;Node6 -->
<g id="edge31_Node000002_Node000006" class="edge">
<title>Node2&#45;&gt;Node6</title>
<g id="a_edge31_Node000002_Node000006"><a xlink:title=" ">
<path fill="none" stroke="#63b8ff" d="M1078.22,-138.78C964.78,-135.01 729.12,-123.97 652.5,-96 630.61,-88.01 629.27,-78.34 609.5,-66 584.48,-50.38 554.33,-34.12 536.05,-24.54"/>
<polygon fill="#63b8ff" stroke="#63b8ff" points="1078.37,-142.29 1088.47,-139.12 1078.59,-135.29 1078.37,-142.29"/>
</a>
</g>
</g>
<!-- Node8 -->
<g id="Node000008" class="node">
<title>Node8</title>
<g id="a_Node000008"><a xlink:href="modelsolver_8cc.html" target="_top" xlink:title=" ">
<polygon fill="white" stroke="#666666" points="887,-24.5 756,-24.5 756,-5.5 887,-5.5 887,-24.5"/>
<text text-anchor="middle" x="821.5" y="-12.5" font-family="Helvetica,sans-Serif" font-size="10.00">src/utils/modelsolver.cc</text>
</a>
</g>
</g>
<!-- Node2&#45;&gt;Node8 -->
<g id="edge32_Node000002_Node000008" class="edge">
<title>Node2&#45;&gt;Node8</title>
<g id="a_edge32_Node000002_Node000008"><a xlink:title=" ">
<path fill="none" stroke="#63b8ff" d="M1077.83,-139.6C1026.56,-136.47 953.61,-126.37 897.5,-96 864.82,-78.31 838.02,-41.49 826.96,-24.69"/>
<polygon fill="#63b8ff" stroke="#63b8ff" points="1077.93,-143.11 1088.11,-140.16 1078.31,-136.12 1077.93,-143.11"/>
</a>
</g>
</g>
<!-- Node9 -->
<g id="Node000009" class="node">
<title>Node9</title>
<g id="a_Node000009"><a xlink:href="verification_8cc.html" target="_top" xlink:title=" ">
<polygon fill="white" stroke="#666666" points="1031.5,-24.5 905.5,-24.5 905.5,-5.5 1031.5,-5.5 1031.5,-24.5"/>
<text text-anchor="middle" x="968.5" y="-12.5" font-family="Helvetica,sans-Serif" font-size="10.00">src/utils/verification.cc</text>
</a>
</g>
</g>
<!-- Node2&#45;&gt;Node9 -->
<g id="edge34_Node000002_Node000009" class="edge">
<title>Node2&#45;&gt;Node9</title>
<g id="a_edge34_Node000002_Node000009"><a xlink:title=" ">
<path fill="none" stroke="#63b8ff" d="M1078.18,-137.38C1016.39,-132.83 927.92,-121.88 906.5,-96 885.44,-70.55 928.75,-39.34 953.24,-24.55"/>
<polygon fill="#63b8ff" stroke="#63b8ff" points="1078.02,-140.88 1088.24,-138.08 1078.51,-133.9 1078.02,-140.88"/>
</a>
</g>
</g>
<!-- Node10 -->
<g id="Node000010" class="node">
<title>Node10</title>
<g id="a_Node000010"><a xlink:href="device__detail_8h.html" target="_top" xlink:title=" ">
<polygon fill="white" stroke="#666666" points="129,-90.5 0,-90.5 0,-71.5 129,-71.5 129,-90.5"/>
<text text-anchor="middle" x="64.5" y="-78.5" font-family="Helvetica,sans-Serif" font-size="10.00">include/device_detail.h</text>
</a>
</g>
</g>
<!-- Node2&#45;&gt;Node10 -->
<g id="edge9_Node000002_Node000010" class="edge">
<title>Node2&#45;&gt;Node10</title>
<g id="a_edge9_Node000002_Node000010"><a xlink:title=" ">
<path fill="none" stroke="#63b8ff" d="M1077.94,-140.81C919.92,-140.93 492.09,-137.09 138.5,-96 127.2,-94.69 115.03,-92.65 103.9,-90.53"/>
<polygon fill="#63b8ff" stroke="#63b8ff" points="1078.41,-144.31 1088.4,-140.8 1078.4,-137.31 1078.41,-144.31"/>
</a>
</g>
</g>
<!-- Node11 -->
<g id="Node000011" class="node">
<title>Node11</title>
<g id="a_Node000011"><a xlink:href="compiler_8cpp.html" target="_top" xlink:title=" ">
<polygon fill="white" stroke="#666666" points="265.5,-96 147.5,-96 147.5,-66 265.5,-66 265.5,-96"/>
<text text-anchor="start" x="155.5" y="-84" font-family="Helvetica,sans-Serif" font-size="10.00">runtime_compilation</text>
<text text-anchor="middle" x="206.5" y="-73" font-family="Helvetica,sans-Serif" font-size="10.00">/compiler.cpp</text>
</a>
</g>
</g>
<!-- Node2&#45;&gt;Node11 -->
<g id="edge10_Node000002_Node000011" class="edge">
<title>Node2&#45;&gt;Node11</title>
<g id="a_edge10_Node000002_Node000011"><a xlink:title=" ">
<path fill="none" stroke="#63b8ff" d="M1077.7,-140.53C934.59,-139.88 573.52,-134.24 274.5,-96 271.63,-95.63 268.7,-95.21 265.75,-94.75"/>
<polygon fill="#63b8ff" stroke="#63b8ff" points="1078.02,-144.03 1088.03,-140.57 1078.04,-137.03 1078.02,-144.03"/>
</a>
</g>
</g>
<!-- Node12 -->
<g id="Node000012" class="node">
<title>Node12</title>
<g id="a_Node000012"><a xlink:href="analysis__helpers_8cc.html" target="_top" xlink:title=" ">
<polygon fill="white" stroke="#666666" points="437,-90.5 284,-90.5 284,-71.5 437,-71.5 437,-90.5"/>
<text text-anchor="middle" x="360.5" y="-78.5" font-family="Helvetica,sans-Serif" font-size="10.00">src/core/analysis_helpers.cc</text>
</a>
</g>
</g>
<!-- Node2&#45;&gt;Node12 -->
<g id="edge11_Node000002_Node000012" class="edge">
<title>Node2&#45;&gt;Node12</title>
<g id="a_edge11_Node000002_Node000012"><a xlink:title=" ">
<path fill="none" stroke="#63b8ff" d="M1077.85,-138.53C955.96,-134.24 678.47,-122.26 446.5,-96 433.87,-94.57 420.27,-92.57 407.7,-90.53"/>
<polygon fill="#63b8ff" stroke="#63b8ff" points="1078,-142.03 1088.11,-138.88 1078.24,-135.04 1078,-142.03"/>
</a>
</g>
</g>
<!-- Node13 -->
<g id="Node000013" class="node">
<title>Node13</title>
<g id="a_Node000013"><a xlink:href="astaroth_8cc.html" target="_top" xlink:title=" ">
<polygon fill="white" stroke="#666666" points="567.5,-90.5 455.5,-90.5 455.5,-71.5 567.5,-71.5 567.5,-90.5"/>
<text text-anchor="middle" x="511.5" y="-78.5" font-family="Helvetica,sans-Serif" font-size="10.00">src/core/astaroth.cc</text>
</a>
</g>
</g>
<!-- Node2&#45;&gt;Node13 -->
<g id="edge12_Node000002_Node000013" class="edge">
<title>Node2&#45;&gt;Node13</title>
<g id="a_edge12_Node000002_Node000013"><a xlink:title=" ">
<path fill="none" stroke="#63b8ff" d="M1077.98,-137.93C974.37,-133.14 760.72,-120.97 581.5,-96 571.19,-94.56 560.11,-92.56 549.87,-90.52"/>
<polygon fill="#63b8ff" stroke="#63b8ff" points="1078.11,-141.44 1088.26,-138.4 1078.43,-134.45 1078.11,-141.44"/>
</a>
</g>
</g>
<!-- Node14 -->
<g id="Node000014" class="node">
<title>Node14</title>
<g id="a_Node000014"><a xlink:href="astaroth__fortran_8cc.html" target="_top" xlink:title=" ">
<polygon fill="white" stroke="#666666" points="1588.5,-24.5 1438.5,-24.5 1438.5,-5.5 1588.5,-5.5 1588.5,-24.5"/>
<text text-anchor="middle" x="1513.5" y="-12.5" font-family="Helvetica,sans-Serif" font-size="10.00">src/core/astaroth_fortran.cc</text>
</a>
</g>
</g>
<!-- Node2&#45;&gt;Node14 -->
<g id="edge13_Node000002_Node000014" class="edge">
<title>Node2&#45;&gt;Node14</title>
<g id="a_edge13_Node000002_Node000014"><a xlink:title=" ">
<path fill="none" stroke="#63b8ff" d="M1202.84,-140.83C1292.49,-139.98 1451.67,-133.1 1493.5,-96 1514.28,-77.57 1515.05,-41.13 1514.21,-24.56"/>
<polygon fill="#63b8ff" stroke="#63b8ff" points="1202.77,-137.33 1192.79,-140.9 1202.82,-144.33 1202.77,-137.33"/>
</a>
</g>
</g>
<!-- Node15 -->
<g id="Node000015" class="node">
<title>Node15</title>
<g id="a_Node000015"><a xlink:href="astaroth__fortran_8h.html" target="_top" xlink:title=" ">
<polygon fill="white" stroke="#666666" points="1687.5,-90.5 1541.5,-90.5 1541.5,-71.5 1687.5,-71.5 1687.5,-90.5"/>
<text text-anchor="middle" x="1614.5" y="-78.5" font-family="Helvetica,sans-Serif" font-size="10.00">src/core/astaroth_fortran.h</text>
</a>
</g>
</g>
<!-- Node2&#45;&gt;Node15 -->
<g id="edge14_Node000002_Node000015" class="edge">
<title>Node2&#45;&gt;Node15</title>
<g id="a_edge14_Node000002_Node000015"><a xlink:title=" ">
<path fill="none" stroke="#63b8ff" d="M1202.5,-134.24C1279.02,-126.32 1413.05,-111.78 1527.5,-96 1539.32,-94.37 1552.02,-92.43 1563.95,-90.53"/>
<polygon fill="#63b8ff" stroke="#63b8ff" points="1202.14,-130.76 1192.55,-135.27 1202.86,-137.72 1202.14,-130.76"/>
</a>
</g>
</g>
<!-- Node16 -->
<g id="Node000016" class="node">
<title>Node16</title>
<g id="a_Node000016"><a xlink:href="debug_8cc.html" target="_top" xlink:title=" ">
<polygon fill="white" stroke="#666666" points="1708,-24.5 1607,-24.5 1607,-5.5 1708,-5.5 1708,-24.5"/>
<text text-anchor="middle" x="1657.5" y="-12.5" font-family="Helvetica,sans-Serif" font-size="10.00">src/core/debug.cc</text>
</a>
</g>
</g>
<!-- Node2&#45;&gt;Node16 -->
<g id="edge16_Node000002_Node000016" class="edge">
<title>Node2&#45;&gt;Node16</title>
<g id="a_edge16_Node000002_Node000016"><a xlink:title=" ">
<path fill="none" stroke="#63b8ff" d="M1202.96,-140.16C1341.22,-138.76 1663.58,-131.66 1696.5,-96 1716.52,-74.32 1684.96,-40.46 1667.64,-24.66"/>
<polygon fill="#63b8ff" stroke="#63b8ff" points="1202.9,-136.66 1192.93,-140.26 1202.97,-143.66 1202.9,-136.66"/>
</a>
</g>
</g>
<!-- Node17 -->
<g id="Node000017" class="node">
<title>Node17</title>
<g id="a_Node000017"><a xlink:href="decomposition_8cc.html" target="_top" xlink:title=" ">
<polygon fill="white" stroke="#666666" points="1055.5,-96 925.5,-96 925.5,-66 1055.5,-66 1055.5,-96"/>
<text text-anchor="start" x="933.5" y="-84" font-family="Helvetica,sans-Serif" font-size="10.00">src/core/decomposition</text>
<text text-anchor="middle" x="990.5" y="-73" font-family="Helvetica,sans-Serif" font-size="10.00">/decomposition.cc</text>
</a>
</g>
</g>
<!-- Node2&#45;&gt;Node17 -->
<g id="edge17_Node000002_Node000017" class="edge">
<title>Node2&#45;&gt;Node17</title>
<g id="a_edge17_Node000002_Node000017"><a xlink:title=" ">
<path fill="none" stroke="#63b8ff" d="M1109.3,-128.33C1085.2,-118.93 1051.81,-105.91 1026.56,-96.06"/>
<polygon fill="#63b8ff" stroke="#63b8ff" points="1108.1,-131.62 1118.69,-131.99 1110.64,-125.1 1108.1,-131.62"/>
</a>
</g>
</g>
<!-- Node2&#45;&gt;Node18 -->
<g id="edge18_Node000002_Node000018" class="edge">
<title>Node2&#45;&gt;Node18</title>
<g id="a_edge18_Node000002_Node000018"><a xlink:title=" ">
<path fill="none" stroke="#63b8ff" d="M1202.93,-140.09C1334.53,-138.53 1649.82,-131.1 1911.5,-96 1921.48,-94.66 1932.21,-92.64 1942.05,-90.55"/>
<polygon fill="#63b8ff" stroke="#63b8ff" points="1202.61,-136.6 1192.65,-140.21 1202.69,-143.59 1202.61,-136.6"/>
</a>
</g>
</g>
<!-- Node19 -->
<g id="Node000019" class="node">
<title>Node19</title>
<g id="a_Node000019"><a xlink:href="grid_8cc.html" target="_top" xlink:title=" ">
<polygon fill="white" stroke="#666666" points="1816.5,-24.5 1726.5,-24.5 1726.5,-5.5 1816.5,-5.5 1816.5,-24.5"/>
<text text-anchor="middle" x="1771.5" y="-12.5" font-family="Helvetica,sans-Serif" font-size="10.00">src/core/grid.cc</text>
</a>
</g>
</g>
<!-- Node2&#45;&gt;Node19 -->
<g id="edge19_Node000002_Node000019" class="edge">
<title>Node2&#45;&gt;Node19</title>
<g id="a_edge19_Node000002_Node000019"><a xlink:title=" ">
<path fill="none" stroke="#63b8ff" d="M1202.61,-138.64C1341.96,-134.05 1670.78,-120.71 1714.5,-96 1743.45,-79.63 1761.37,-41.78 1768.26,-24.67"/>
<polygon fill="#63b8ff" stroke="#63b8ff" points="1202.39,-135.15 1192.51,-138.97 1202.62,-142.14 1202.39,-135.15"/>
</a>
</g>
</g>
<!-- Node20 -->
<g id="Node000020" class="node">
<title>Node20</title>
<g id="a_Node000020"><a xlink:href="grid__commdata__based_8cc.html" target="_top" xlink:title=" ">
<polygon fill="white" stroke="#666666" points="1207.5,-96 1073.5,-96 1073.5,-66 1207.5,-66 1207.5,-96"/>
<text text-anchor="start" x="1081.5" y="-84" font-family="Helvetica,sans-Serif" font-size="10.00">src/core/grid_commdata</text>
<text text-anchor="middle" x="1140.5" y="-73" font-family="Helvetica,sans-Serif" font-size="10.00">_based.cc</text>
</a>
</g>
</g>
<!-- Node2&#45;&gt;Node20 -->
<g id="edge20_Node000002_Node000020" class="edge">
<title>Node2&#45;&gt;Node20</title>
<g id="a_edge20_Node000002_Node000020"><a xlink:title=" ">
<path fill="none" stroke="#63b8ff" d="M1140.5,-121.65C1140.5,-113.36 1140.5,-103.78 1140.5,-96.11"/>
<polygon fill="#63b8ff" stroke="#63b8ff" points="1137,-121.87 1140.5,-131.87 1144,-121.87 1137,-121.87"/>
</a>
</g>
</g>
<!-- Node2&#45;&gt;Node21 -->
<g id="edge21_Node000002_Node000021" class="edge">
<title>Node2&#45;&gt;Node21</title>
<g id="a_edge21_Node000002_Node000021"><a xlink:title=" ">
<path fill="none" stroke="#63b8ff" d="M1202.73,-138.97C1378.55,-134.39 1876.75,-119.65 2038.5,-96 2047.27,-94.72 2056.66,-92.69 2065.24,-90.57"/>
<polygon fill="#63b8ff" stroke="#63b8ff" points="1202.51,-135.47 1192.61,-139.23 1202.69,-142.47 1202.51,-135.47"/>
</a>
</g>
</g>
<!-- Node22 -->
<g id="Node000022" class="node">
<title>Node22</title>
<g id="a_Node000022"><a xlink:href="task_8cc.html" target="_top" xlink:title=" ">
<polygon fill="white" stroke="#666666" points="2090.5,-24.5 1998.5,-24.5 1998.5,-5.5 2090.5,-5.5 2090.5,-24.5"/>
<text text-anchor="middle" x="2044.5" y="-12.5" font-family="Helvetica,sans-Serif" font-size="10.00">src/core/task.cc</text>
</a>
</g>
</g>
<!-- Node2&#45;&gt;Node22 -->
<g id="edge22_Node000002_Node000022" class="edge">
<title>Node2&#45;&gt;Node22</title>
<g id="a_edge22_Node000002_Node000022"><a xlink:title=" ">
<path fill="none" stroke="#63b8ff" d="M1202.86,-138.88C1369.41,-134.25 1816.24,-119.74 1878.5,-96 1898.61,-88.33 1897.83,-76.7 1916.5,-66 1948.69,-47.56 1989,-33.07 2015.69,-24.54"/>
<polygon fill="#63b8ff" stroke="#63b8ff" points="1202.68,-135.38 1192.78,-139.16 1202.87,-142.38 1202.68,-135.38"/>
</a>
</g>
</g>
<!-- Node23 -->
<g id="Node000023" class="node">
<title>Node23</title>
<g id="a_Node000023"><a xlink:href="task_8h.html" target="_top" xlink:title=" ">
<polygon fill="white" stroke="#666666" points="1869.5,-90.5 1781.5,-90.5 1781.5,-71.5 1869.5,-71.5 1869.5,-90.5"/>
<text text-anchor="middle" x="1825.5" y="-78.5" font-family="Helvetica,sans-Serif" font-size="10.00">src/core/task.h</text>
</a>
</g>
</g>
<!-- Node2&#45;&gt;Node23 -->
<g id="edge23_Node000002_Node000023" class="edge">
<title>Node2&#45;&gt;Node23</title>
<g id="a_edge23_Node000002_Node000023"><a xlink:title=" ">
<path fill="none" stroke="#63b8ff" d="M1203.06,-139.49C1316.3,-136.9 1562.53,-127.79 1767.5,-96 1776.3,-94.63 1785.74,-92.61 1794.38,-90.52"/>
<polygon fill="#63b8ff" stroke="#63b8ff" points="1202.77,-136 1192.85,-139.71 1202.92,-142.99 1202.77,-136"/>
</a>
</g>
</g>
<!-- Node25 -->
<g id="Node000025" class="node">
<title>Node25</title>
<g id="a_Node000025"><a xlink:href="update__params_8cc.html" target="_top" xlink:title=" ">
<polygon fill="white" stroke="#666666" points="1359.5,-96 1225.5,-96 1225.5,-66 1359.5,-66 1359.5,-96"/>
<text text-anchor="start" x="1233.5" y="-84" font-family="Helvetica,sans-Serif" font-size="10.00">src/core/update_params</text>
<text text-anchor="middle" x="1292.5" y="-73" font-family="Helvetica,sans-Serif" font-size="10.00">/update_params.cc</text>
</a>
</g>
</g>
<!-- Node2&#45;&gt;Node25 -->
<g id="edge28_Node000002_Node000025" class="edge">
<title>Node2&#45;&gt;Node25</title>
<g id="a_edge28_Node000002_Node000025"><a xlink:title=" ">
<path fill="none" stroke="#63b8ff" d="M1172.11,-128.33C1196.54,-118.93 1230.37,-105.91 1255.96,-96.06"/>
<polygon fill="#63b8ff" stroke="#63b8ff" points="1170.68,-125.14 1162.6,-131.99 1173.19,-131.67 1170.68,-125.14"/>
</a>
</g>
</g>
<!-- Node26 -->
<g id="Node000026" class="node">
<title>Node26</title>
<g id="a_Node000026"><a xlink:href="profiles_8cc.html" target="_top" xlink:title="Brief info.">
<polygon fill="white" stroke="#666666" points="1485,-90.5 1378,-90.5 1378,-71.5 1485,-71.5 1485,-90.5"/>
<text text-anchor="middle" x="1431.5" y="-78.5" font-family="Helvetica,sans-Serif" font-size="10.00">src/utils/profiles.cc</text>
</a>
</g>
</g>
<!-- Node2&#45;&gt;Node26 -->
<g id="edge33_Node000002_Node000026" class="edge">
<title>Node2&#45;&gt;Node26</title>
<g id="a_edge33_Node000002_Node000026"><a xlink:title=" ">
<path fill="none" stroke="#63b8ff" d="M1196.1,-130.07C1242.32,-121.29 1309.77,-108.25 1368.5,-96 1376.73,-94.28 1385.54,-92.37 1393.89,-90.53"/>
<polygon fill="#63b8ff" stroke="#63b8ff" points="1195.17,-126.68 1185.99,-131.98 1196.47,-133.56 1195.17,-126.68"/>
</a>
</g>
</g>
<!-- Node3&#45;&gt;Node4 -->
<g id="edge3_Node000003_Node000004" class="edge">
<title>Node3&#45;&gt;Node4</title>
<g id="a_edge3_Node000003_Node000004"><a xlink:title=" ">
<path fill="none" stroke="#63b8ff" d="M793.5,-69.88C856.9,-60.06 955.33,-44.54 1040.5,-30 1050.55,-28.28 1061.31,-26.37 1071.52,-24.53"/>
<polygon fill="#63b8ff" stroke="#63b8ff" points="792.6,-66.48 783.25,-71.46 793.67,-73.39 792.6,-66.48"/>
</a>
</g>
</g>
<!-- Node3&#45;&gt;Node5 -->
<g id="edge4_Node000003_Node000005" class="edge">
<title>Node3&#45;&gt;Node5</title>
<g id="a_edge4_Node000003_Node000005"><a xlink:title=" ">
<path fill="none" stroke="#63b8ff" d="M665.03,-69.81C607.2,-60.19 518.87,-45.05 442.5,-30 434.02,-28.33 424.93,-26.42 416.35,-24.55"/>
<polygon fill="#63b8ff" stroke="#63b8ff" points="664.67,-73.3 675.11,-71.48 665.82,-66.39 664.67,-73.3"/>
</a>
</g>
</g>
<!-- Node3&#45;&gt;Node6 -->
<g id="edge5_Node000003_Node000006" class="edge">
<title>Node3&#45;&gt;Node6</title>
<g id="a_edge5_Node000003_Node000006"><a xlink:title=" ">
<path fill="none" stroke="#63b8ff" d="M689.81,-68.4C648.79,-55.78 584.16,-35.89 547.44,-24.6"/>
<polygon fill="#63b8ff" stroke="#63b8ff" points="688.86,-71.77 699.45,-71.37 690.92,-65.08 688.86,-71.77"/>
</a>
</g>
</g>
<!-- Node7 -->
<g id="Node000007" class="node">
<title>Node7</title>
<g id="a_Node000007"><a xlink:href="modelsolver-legacy-do-not-modify_8c.html" target="_top" xlink:title=" ">
<polygon fill="white" stroke="#666666" points="737.5,-30 605.5,-30 605.5,0 737.5,0 737.5,-30"/>
<text text-anchor="start" x="613.5" y="-18" font-family="Helvetica,sans-Serif" font-size="10.00">src/utils/modelsolver</text>
<text text-anchor="middle" x="671.5" y="-7" font-family="Helvetica,sans-Serif" font-size="10.00">&#45;legacy&#45;do&#45;not&#45;modify.c</text>
</a>
</g>
</g>
<!-- Node3&#45;&gt;Node7 -->
<g id="edge6_Node000003_Node000007" class="edge">
<title>Node3&#45;&gt;Node7</title>
<g id="a_edge6_Node000003_Node000007"><a xlink:title=" ">
<path fill="none" stroke="#63b8ff" d="M713.1,-63.54C704.12,-53.28 692.68,-40.2 684.07,-30.36"/>
<polygon fill="#63b8ff" stroke="#63b8ff" points="710.73,-66.15 719.95,-71.37 716,-61.54 710.73,-66.15"/>
</a>
</g>
</g>
<!-- Node3&#45;&gt;Node8 -->
<g id="edge7_Node000003_Node000008" class="edge">
<title>Node3&#45;&gt;Node8</title>
<g id="a_edge7_Node000003_Node000008"><a xlink:title=" ">
<path fill="none" stroke="#63b8ff" d="M748.53,-65.68C767,-53.11 793.26,-35.23 808.72,-24.7"/>
<polygon fill="#63b8ff" stroke="#63b8ff" points="746.47,-62.85 740.18,-71.37 750.41,-68.63 746.47,-62.85"/>
</a>
</g>
</g>
<!-- Node3&#45;&gt;Node9 -->
<g id="edge8_Node000003_Node000009" class="edge">
<title>Node3&#45;&gt;Node9</title>
<g id="a_edge8_Node000003_Node000009"><a xlink:title=" ">
<path fill="none" stroke="#63b8ff" d="M769.67,-68.8C817.11,-56.2 893.13,-36.01 936.13,-24.6"/>
<polygon fill="#63b8ff" stroke="#63b8ff" points="768.77,-65.42 760,-71.37 770.57,-72.18 768.77,-65.42"/>
</a>
</g>
</g>
<!-- Node15&#45;&gt;Node14 -->
<g id="edge15_Node000015_Node000014" class="edge">
<title>Node15&#45;&gt;Node14</title>
<g id="a_edge15_Node000015_Node000014"><a xlink:title=" ">
<path fill="none" stroke="#63b8ff" d="M1592.17,-65.85C1572.31,-53.27 1543.92,-35.28 1527.23,-24.7"/>
<polygon fill="#63b8ff" stroke="#63b8ff" points="1590.56,-68.97 1600.88,-71.37 1594.31,-63.06 1590.56,-68.97"/>
</a>
</g>
</g>
<!-- Node23&#45;&gt;Node16 -->
<g id="edge25_Node000023_Node000016" class="edge">
<title>Node23&#45;&gt;Node16</title>
<g id="a_edge25_Node000023_Node000016"><a xlink:title=" ">
<path fill="none" stroke="#63b8ff" d="M1793.15,-67.68C1759.95,-55.03 1709.16,-35.68 1680.07,-24.6"/>
<polygon fill="#63b8ff" stroke="#63b8ff" points="1792.25,-71.08 1802.84,-71.37 1794.74,-64.54 1792.25,-71.08"/>
</a>
</g>
</g>
<!-- Node23&#45;&gt;Node19 -->
<g id="edge26_Node000023_Node000019" class="edge">
<title>Node23&#45;&gt;Node19</title>
<g id="a_edge26_Node000023_Node000019"><a xlink:title=" ">
<path fill="none" stroke="#63b8ff" d="M1811.68,-63.62C1801.29,-51.31 1787.44,-34.89 1779.01,-24.91"/>
<polygon fill="#63b8ff" stroke="#63b8ff" points="1809.09,-65.98 1818.22,-71.37 1814.44,-61.47 1809.09,-65.98"/>
</a>
</g>
</g>
<!-- Node23&#45;&gt;Node22 -->
<g id="edge27_Node000023_Node000022" class="edge">
<title>Node23&#45;&gt;Node22</title>
<g id="a_edge27_Node000023_Node000022"><a xlink:title=" ">
<path fill="none" stroke="#63b8ff" d="M1864.63,-68.56C1907.8,-55.95 1976.26,-35.94 2015.08,-24.6"/>
<polygon fill="#63b8ff" stroke="#63b8ff" points="1863.65,-65.2 1855.04,-71.37 1865.62,-71.92 1863.65,-65.2"/>
</a>
</g>
</g>
<!-- Node24 -->
<g id="Node000024" class="node">
<title>Node24</title>
<g id="a_Node000024"><a xlink:href="compute__steps_8cc.html" target="_top" xlink:title=" ">
<polygon fill="white" stroke="#666666" points="1980.5,-24.5 1834.5,-24.5 1834.5,-5.5 1980.5,-5.5 1980.5,-24.5"/>
<text text-anchor="middle" x="1907.5" y="-12.5" font-family="Helvetica,sans-Serif" font-size="10.00">src/core/compute_steps.cc</text>
</a>
</g>
</g>
<!-- Node23&#45;&gt;Node24 -->
<g id="edge24_Node000023_Node000024" class="edge">
<title>Node23&#45;&gt;Node24</title>
<g id="a_edge24_Node000023_Node000024"><a xlink:title=" ">
<path fill="none" stroke="#63b8ff" d="M1844.73,-64.99C1860.79,-52.46 1883.11,-35.04 1896.35,-24.7"/>
<polygon fill="#63b8ff" stroke="#63b8ff" points="1842.29,-62.46 1836.56,-71.37 1846.6,-67.98 1842.29,-62.46"/>
</a>
</g>
</g>
</g>
</svg>

<g id="navigator" transform="translate(0 0)" fill="#404254">
  <rect fill="#f2f5e9" fill-opacity="0.5" stroke="#606060" stroke-width=".5" x="0" y="0" width="60" height="60"/>
  <use id="zoomplus" xlink:href="#zoomPlus" x="17" y="9" onmousedown="handleZoom(evt,'in')"/>
  <use id="zoomminus" xlink:href="#zoomMin" x="42" y="9" onmousedown="handleZoom(evt,'out')"/>
  <use id="reset" xlink:href="#resetDef" x="30" y="36" onmousedown="handleReset()"/>
   <use id="arrowup" xlink:href="#arrowUp" x="0" y="0" onmousedown="handlePan(0,-1)"/>
  <use id="arrowright" xlink:href="#arrowRight" x="0" y="0" onmousedown="handlePan(1,0)"/>
  <use id="arrowdown" xlink:href="#arrowDown" x="0" y="0" onmousedown="handlePan(0,1)"/>
  <use id="arrowleft" xlink:href="#arrowLeft" x="0" y="0" onmousedown="handlePan(-1,0)"/>
</g>
<svg viewBox="0 0 15 15" width="100%" height="30px" preserveAspectRatio="xMaxYMin meet">
 <g id="arrow_out" transform="scale(0.3 0.3)">
  <a xlink:href="astaroth__device_8h__dep__incl_org.svg" target="_base">
   <rect id="button" ry="5" rx="5" y="6" x="6" height="38" width="38"
        fill="#f2f5e9" fill-opacity="0.5" stroke="#606060" stroke-width="1.0"/>
   <path id="arrow"
     d="M 11.500037,31.436501 C 11.940474,20.09759 22.043105,11.32322 32.158766,21.979434 L 37.068811,17.246167 C 37.068811,17.246167 37.088388,32 37.088388,32 L 22.160133,31.978069 C 22.160133,31.978069 26.997745,27.140456 26.997745,27.140456 C 18.528582,18.264221 13.291696,25.230495 11.500037,31.436501 z"
     style="fill:#404040;"/>
  </a>
 </g>
</svg>

<style type='text/css'>
<![CDATA[
[data-mouse-over-selected='false'] { opacity: 0.7; }
[data-mouse-over-selected='true']  { opacity: 1.0; }
]]>
</style>
<script type="application/ecmascript"><![CDATA[
document.addEventListener('DOMContentLoaded', (event) => {
  highlightEdges();
  highlightAdjacentNodes();
});
]]></script>
</svg>
