<?xml version="1.0" encoding="UTF-8" standalone="no"?>
<!DOCTYPE svg PUBLIC "-//W3C//DTD SVG 1.1//EN"
 "http://www.w3.org/Graphics/SVG/1.1/DTD/svg11.dtd">
<!-- Generated by graphviz version 2.43.0 (0)
 -->
<!-- Title: src/core/astaroth_fortran.h Pages: 1 -->
<svg width="4120pt" height="379pt"
 viewBox="0.00 0.00 4120.00 379.00" xmlns="http://www.w3.org/2000/svg" xmlns:xlink="http://www.w3.org/1999/xlink">
<g id="graph0" class="graph" transform="scale(1 1) rotate(0) translate(4 375)">
<title>src/core/astaroth_fortran.h</title>
<!-- Node1 -->
<g id="Node000001" class="node">
<title>Node1</title>
<g id="a_Node000001"><a xlink:title=" ">
<polygon fill="#999999" stroke="#666666" points="3382.5,-371 3236.5,-371 3236.5,-352 3382.5,-352 3382.5,-371"/>
<text text-anchor="middle" x="3309.5" y="-359" font-family="Helvetica,sans-Serif" font-size="10.00">src/core/astaroth_fortran.h</text>
</a>
</g>
</g>
<!-- Node2 -->
<g id="Node000002" class="node">
<title>Node2</title>
<g id="a_Node000002"><a xlink:href="astaroth_8h.html" target="_top" xlink:title=" ">
<polygon fill="white" stroke="#666666" points="3342.5,-316 3276.5,-316 3276.5,-297 3342.5,-297 3342.5,-316"/>
<text text-anchor="middle" x="3309.5" y="-304" font-family="Helvetica,sans-Serif" font-size="10.00">astaroth.h</text>
</a>
</g>
</g>
<!-- Node1&#45;&gt;Node2 -->
<g id="edge1_Node000001_Node000002" class="edge">
<title>Node1&#45;&gt;Node2</title>
<g id="a_edge1_Node000001_Node000002"><a xlink:title=" ">
<path fill="none" stroke="#63b8ff" d="M3309.5,-351.75C3309.5,-344.8 3309.5,-334.85 3309.5,-326.13"/>
<polygon fill="#63b8ff" stroke="#63b8ff" points="3313,-326.09 3309.5,-316.09 3306,-326.09 3313,-326.09"/>
</a>
</g>
</g>
<!-- Node3 -->
<g id="Node000003" class="node">
<title>Node3</title>
<g id="a_Node000003"><a xlink:href="astaroth__base_8h.html" target="_top" xlink:title=" ">
<polygon fill="white" stroke="#666666" points="2757,-261 2662,-261 2662,-242 2757,-242 2757,-261"/>
<text text-anchor="middle" x="2709.5" y="-249" font-family="Helvetica,sans-Serif" font-size="10.00">astaroth_base.h</text>
</a>
</g>
</g>
<!-- Node2&#45;&gt;Node3 -->
<g id="edge2_Node000002_Node000003" class="edge">
<title>Node2&#45;&gt;Node3</title>
<g id="a_edge2_Node000002_Node000003"><a xlink:title=" ">
<path fill="none" stroke="#63b8ff" d="M3276.37,-303.55C3192.86,-298.48 2966.8,-283.73 2767.14,-260.99"/>
<polygon fill="#63b8ff" stroke="#63b8ff" points="2767.39,-257.5 2757.05,-259.83 2766.59,-264.45 2767.39,-257.5"/>
</a>
</g>
</g>
<!-- Node44 -->
<g id="Node000044" class="node">
<title>Node44</title>
<g id="a_Node000044"><a xlink:href="astaroth__grid_8h.html" target="_top" xlink:title=" ">
<polygon fill="white" stroke="#666666" points="2865.5,-261 2775.5,-261 2775.5,-242 2865.5,-242 2865.5,-261"/>
<text text-anchor="middle" x="2820.5" y="-249" font-family="Helvetica,sans-Serif" font-size="10.00">astaroth_grid.h</text>
</a>
</g>
</g>
<!-- Node2&#45;&gt;Node44 -->
<g id="edge47_Node000002_Node000044" class="edge">
<title>Node2&#45;&gt;Node44</title>
<g id="a_edge47_Node000002_Node000044"><a xlink:title=" ">
<path fill="none" stroke="#63b8ff" d="M3276.41,-302.73C3205.18,-296.64 3031.79,-281.1 2875.8,-261.1"/>
<polygon fill="#63b8ff" stroke="#63b8ff" points="2875.92,-257.59 2865.55,-259.78 2875.02,-264.53 2875.92,-257.59"/>
</a>
</g>
</g>
<!-- Node45 -->
<g id="Node000045" class="node">
<title>Node45</title>
<g id="a_Node000045"><a xlink:href="astaroth__node_8h.html" target="_top" xlink:title=" ">
<polygon fill="white" stroke="#666666" points="2979,-261 2884,-261 2884,-242 2979,-242 2979,-261"/>
<text text-anchor="middle" x="2931.5" y="-249" font-family="Helvetica,sans-Serif" font-size="10.00">astaroth_node.h</text>
</a>
</g>
</g>
<!-- Node2&#45;&gt;Node45 -->
<g id="edge48_Node000002_Node000045" class="edge">
<title>Node2&#45;&gt;Node45</title>
<g id="a_edge48_Node000002_Node000045"><a xlink:title=" ">
<path fill="none" stroke="#63b8ff" d="M3276.21,-301C3219.6,-293.32 3100.71,-277.09 2989.16,-261.08"/>
<polygon fill="#63b8ff" stroke="#63b8ff" points="2989.48,-257.59 2979.08,-259.63 2988.48,-264.52 2989.48,-257.59"/>
</a>
</g>
</g>
<!-- Node46 -->
<g id="Node000046" class="node">
<title>Node46</title>
<g id="a_Node000046"><a xlink:href="astaroth__device_8h.html" target="_top" xlink:title=" ">
<polygon fill="white" stroke="#666666" points="3101.5,-261 2997.5,-261 2997.5,-242 3101.5,-242 3101.5,-261"/>
<text text-anchor="middle" x="3049.5" y="-249" font-family="Helvetica,sans-Serif" font-size="10.00">astaroth_device.h</text>
</a>
</g>
</g>
<!-- Node2&#45;&gt;Node46 -->
<g id="edge49_Node000002_Node000046" class="edge">
<title>Node2&#45;&gt;Node46</title>
<g id="a_edge49_Node000002_Node000046"><a xlink:title=" ">
<path fill="none" stroke="#63b8ff" d="M3276.31,-298.73C3232.16,-289.73 3153.64,-273.73 3101.57,-263.11"/>
<polygon fill="#63b8ff" stroke="#63b8ff" points="3102.02,-259.63 3091.52,-261.07 3100.62,-266.49 3102.02,-259.63"/>
</a>
</g>
</g>
<!-- Node49 -->
<g id="Node000049" class="node">
<title>Node49</title>
<g id="a_Node000049"><a xlink:href="astaroth__legacy_8h.html" target="_top" xlink:title=" ">
<polygon fill="white" stroke="#666666" points="3221.5,-261 3119.5,-261 3119.5,-242 3221.5,-242 3221.5,-261"/>
<text text-anchor="middle" x="3170.5" y="-249" font-family="Helvetica,sans-Serif" font-size="10.00">astaroth_legacy.h</text>
</a>
</g>
</g>
<!-- Node2&#45;&gt;Node49 -->
<g id="edge52_Node000002_Node000049" class="edge">
<title>Node2&#45;&gt;Node49</title>
<g id="a_edge52_Node000002_Node000049"><a xlink:title=" ">
<path fill="none" stroke="#63b8ff" d="M3287.17,-296.98C3264.3,-288.27 3228.54,-274.63 3202.64,-264.75"/>
<polygon fill="#63b8ff" stroke="#63b8ff" points="3203.83,-261.46 3193.24,-261.17 3201.34,-268 3203.83,-261.46"/>
</a>
</g>
</g>
<!-- Node50 -->
<g id="Node000050" class="node">
<title>Node50</title>
<g id="a_Node000050"><a xlink:title=" ">
<polygon fill="#e0e0e0" stroke="#999999" points="3379,-261 3240,-261 3240,-242 3379,-242 3379,-261"/>
<text text-anchor="middle" x="3309.5" y="-249" font-family="Helvetica,sans-Serif" font-size="10.00">device_set_input_decls.h</text>
</a>
</g>
</g>
<!-- Node2&#45;&gt;Node50 -->
<g id="edge53_Node000002_Node000050" class="edge">
<title>Node2&#45;&gt;Node50</title>
<g id="a_edge53_Node000002_Node000050"><a xlink:title=" ">
<path fill="none" stroke="#63b8ff" d="M3309.5,-296.75C3309.5,-289.8 3309.5,-279.85 3309.5,-271.13"/>
<polygon fill="#63b8ff" stroke="#63b8ff" points="3313,-271.09 3309.5,-261.09 3306,-271.09 3313,-271.09"/>
</a>
</g>
</g>
<!-- Node51 -->
<g id="Node000051" class="node">
<title>Node51</title>
<g id="a_Node000051"><a xlink:title=" ">
<polygon fill="#e0e0e0" stroke="#999999" points="3543.5,-261 3397.5,-261 3397.5,-242 3543.5,-242 3543.5,-261"/>
<text text-anchor="middle" x="3470.5" y="-249" font-family="Helvetica,sans-Serif" font-size="10.00">device_get_output_decls.h</text>
</a>
</g>
</g>
<!-- Node2&#45;&gt;Node51 -->
<g id="edge54_Node000002_Node000051" class="edge">
<title>Node2&#45;&gt;Node51</title>
<g id="a_edge54_Node000002_Node000051"><a xlink:title=" ">
<path fill="none" stroke="#63b8ff" d="M3335.37,-296.98C3362.28,-288.13 3404.62,-274.19 3434.73,-264.28"/>
<polygon fill="#63b8ff" stroke="#63b8ff" points="3436.03,-267.53 3444.43,-261.08 3433.84,-260.88 3436.03,-267.53"/>
</a>
</g>
</g>
<!-- Node52 -->
<g id="Node000052" class="node">
<title>Node52</title>
<g id="a_Node000052"><a xlink:title=" ">
<polygon fill="#e0e0e0" stroke="#999999" points="3701.5,-261 3561.5,-261 3561.5,-242 3701.5,-242 3701.5,-261"/>
<text text-anchor="middle" x="3631.5" y="-249" font-family="Helvetica,sans-Serif" font-size="10.00">device_get_input_decls.h</text>
</a>
</g>
</g>
<!-- Node2&#45;&gt;Node52 -->
<g id="edge55_Node000002_Node000052" class="edge">
<title>Node2&#45;&gt;Node52</title>
<g id="a_edge55_Node000002_Node000052"><a xlink:title=" ">
<path fill="none" stroke="#63b8ff" d="M3342.75,-300.03C3396.16,-291.24 3501.95,-273.82 3569.57,-262.69"/>
<polygon fill="#63b8ff" stroke="#63b8ff" points="3570.38,-266.11 3579.67,-261.03 3569.24,-259.2 3570.38,-266.11"/>
</a>
</g>
</g>
<!-- Node53 -->
<g id="Node000053" class="node">
<title>Node53</title>
<g id="a_Node000053"><a xlink:title=" ">
<polygon fill="#e0e0e0" stroke="#999999" points="3849.5,-261 3719.5,-261 3719.5,-242 3849.5,-242 3849.5,-261"/>
<text text-anchor="middle" x="3784.5" y="-249" font-family="Helvetica,sans-Serif" font-size="10.00">get_vtxbufs_declares.h</text>
</a>
</g>
</g>
<!-- Node2&#45;&gt;Node53 -->
<g id="edge56_Node000002_Node000053" class="edge">
<title>Node2&#45;&gt;Node53</title>
<g id="a_edge56_Node000002_Node000053"><a xlink:title=" ">
<path fill="none" stroke="#63b8ff" d="M3342.51,-301.88C3409.47,-294.53 3566.32,-277.26 3708.89,-261.18"/>
<polygon fill="#63b8ff" stroke="#63b8ff" points="3709.59,-264.62 3719.13,-260.02 3708.8,-257.67 3709.59,-264.62"/>
</a>
</g>
</g>
<!-- Node54 -->
<g id="Node000054" class="node">
<title>Node54</title>
<g id="a_Node000054"><a xlink:href="astaroth__runtime__compilation_8h.html" target="_top" xlink:title=" ">
<polygon fill="white" stroke="#666666" points="4041,-261 3868,-261 3868,-242 4041,-242 4041,-261"/>
<text text-anchor="middle" x="3954.5" y="-249" font-family="Helvetica,sans-Serif" font-size="10.00">astaroth_runtime_compilation.h</text>
</a>
</g>
</g>
<!-- Node2&#45;&gt;Node54 -->
<g id="edge57_Node000002_Node000054" class="edge">
<title>Node2&#45;&gt;Node54</title>
<g id="a_edge57_Node000002_Node000054"><a xlink:title=" ">
<path fill="none" stroke="#63b8ff" d="M3342.62,-302.9C3426.64,-296.29 3655.17,-278.2 3857.66,-261.06"/>
<polygon fill="#63b8ff" stroke="#63b8ff" points="3858.23,-264.53 3867.9,-260.2 3857.64,-257.55 3858.23,-264.53"/>
</a>
</g>
</g>
<!-- Node55 -->
<g id="Node000055" class="node">
<title>Node55</title>
<g id="a_Node000055"><a xlink:title=" ">
<polygon fill="#e0e0e0" stroke="#999999" points="4112,-261 4059,-261 4059,-242 4112,-242 4112,-261"/>
<text text-anchor="middle" x="4085.5" y="-249" font-family="Helvetica,sans-Serif" font-size="10.00">string.h</text>
</a>
</g>
</g>
<!-- Node2&#45;&gt;Node55 -->
<g id="edge58_Node000002_Node000055" class="edge">
<title>Node2&#45;&gt;Node55</title>
<g id="a_edge58_Node000002_Node000055"><a xlink:title=" ">
<path fill="none" stroke="#63b8ff" d="M3342.59,-305.61C3445.83,-305.5 3771.28,-301.82 4048.59,-261.02"/>
<polygon fill="#63b8ff" stroke="#63b8ff" points="4049.47,-264.43 4058.84,-259.49 4048.44,-257.51 4049.47,-264.43"/>
</a>
</g>
</g>
<!-- Node4 -->
<g id="Node000004" class="node">
<title>Node4</title>
<g id="a_Node000004"><a xlink:title=" ">
<polygon fill="#e0e0e0" stroke="#999999" points="2716.5,-74 2654.5,-74 2654.5,-55 2716.5,-55 2716.5,-74"/>
<text text-anchor="middle" x="2685.5" y="-62" font-family="Helvetica,sans-Serif" font-size="10.00">stdbool.h</text>
</a>
</g>
</g>
<!-- Node3&#45;&gt;Node4 -->
<g id="edge3_Node000003_Node000004" class="edge">
<title>Node3&#45;&gt;Node4</title>
<g id="a_edge3_Node000003_Node000004"><a xlink:title=" ">
<path fill="none" stroke="#63b8ff" d="M2750,-241.91C2769.67,-235.5 2791.58,-224.52 2803.5,-206 2826.59,-170.12 2828.82,-145.06 2804.5,-110 2787.05,-84.85 2753.55,-73.89 2726.53,-69.13"/>
<polygon fill="#63b8ff" stroke="#63b8ff" points="2726.96,-65.65 2716.54,-67.59 2725.89,-72.57 2726.96,-65.65"/>
</a>
</g>
</g>
<!-- Node5 -->
<g id="Node000005" class="node">
<title>Node5</title>
<g id="a_Node000005"><a xlink:href="ac__mpi_8h.html" target="_top" xlink:title=" ">
<polygon fill="white" stroke="#666666" points="2913,-200.5 2852,-200.5 2852,-181.5 2913,-181.5 2913,-200.5"/>
<text text-anchor="middle" x="2882.5" y="-188.5" font-family="Helvetica,sans-Serif" font-size="10.00">ac_mpi.h</text>
</a>
</g>
</g>
<!-- Node3&#45;&gt;Node5 -->
<g id="edge4_Node000003_Node000005" class="edge">
<title>Node3&#45;&gt;Node5</title>
<g id="a_edge4_Node000003_Node000005"><a xlink:title=" ">
<path fill="none" stroke="#63b8ff" d="M2734.66,-241.99C2764.38,-231.94 2814.02,-215.16 2847.49,-203.84"/>
<polygon fill="#63b8ff" stroke="#63b8ff" points="2848.96,-207.04 2857.31,-200.52 2846.72,-200.4 2848.96,-207.04"/>
</a>
</g>
</g>
<!-- Node6 -->
<g id="Node000006" class="node">
<title>Node6</title>
<g id="a_Node000006"><a xlink:href="acc__runtime_8h.html" target="_top" xlink:title=" ">
<polygon fill="white" stroke="#666666" points="1547.5,-200.5 1461.5,-200.5 1461.5,-181.5 1547.5,-181.5 1547.5,-200.5"/>
<text text-anchor="middle" x="1504.5" y="-188.5" font-family="Helvetica,sans-Serif" font-size="10.00">acc_runtime.h</text>
</a>
</g>
</g>
<!-- Node3&#45;&gt;Node6 -->
<g id="edge5_Node000003_Node000006" class="edge">
<title>Node3&#45;&gt;Node6</title>
<g id="a_edge5_Node000003_Node000006"><a xlink:title=" ">
<path fill="none" stroke="#63b8ff" d="M2661.89,-248.19C2470.57,-238.9 1758.4,-204.33 1557.54,-194.58"/>
<polygon fill="#63b8ff" stroke="#63b8ff" points="1557.69,-191.08 1547.53,-194.09 1557.35,-198.07 1557.69,-191.08"/>
</a>
</g>
</g>
<!-- Node26 -->
<g id="Node000026" class="node">
<title>Node26</title>
<g id="a_Node000026"><a xlink:title=" ">
<polygon fill="#e0e0e0" stroke="#999999" points="317,-134.5 178,-134.5 178,-115.5 317,-115.5 317,-134.5"/>
<text text-anchor="middle" x="247.5" y="-122.5" font-family="Helvetica,sans-Serif" font-size="10.00">user_built&#45;in_constants.h</text>
</a>
</g>
</g>
<!-- Node3&#45;&gt;Node26 -->
<g id="edge45_Node000003_Node000026" class="edge">
<title>Node3&#45;&gt;Node26</title>
<g id="a_edge45_Node000003_Node000026"><a xlink:title=" ">
<path fill="none" stroke="#63b8ff" d="M2661.65,-249.28C2367.25,-241.66 798.54,-198.8 321.5,-140 313.65,-139.03 305.38,-137.74 297.33,-136.33"/>
<polygon fill="#63b8ff" stroke="#63b8ff" points="297.76,-132.85 287.29,-134.5 296.5,-139.74 297.76,-132.85"/>
</a>
</g>
</g>
<!-- Node40 -->
<g id="Node000040" class="node">
<title>Node40</title>
<g id="a_Node000040"><a xlink:href="func__define_8h.html" target="_top" xlink:title=" ">
<polygon fill="white" stroke="#666666" points="2795.5,-134.5 2713.5,-134.5 2713.5,-115.5 2795.5,-115.5 2795.5,-134.5"/>
<text text-anchor="middle" x="2754.5" y="-122.5" font-family="Helvetica,sans-Serif" font-size="10.00">func_define.h</text>
</a>
</g>
</g>
<!-- Node3&#45;&gt;Node40 -->
<g id="edge44_Node000003_Node000040" class="edge">
<title>Node3&#45;&gt;Node40</title>
<g id="a_edge44_Node000003_Node000040"><a xlink:title=" ">
<path fill="none" stroke="#63b8ff" d="M2692.04,-241.88C2679.03,-234.38 2662.22,-222.18 2654.5,-206 2648.76,-193.97 2647.49,-187.34 2654.5,-176 2666.03,-157.34 2686.87,-145.41 2706.55,-137.91"/>
<polygon fill="#63b8ff" stroke="#63b8ff" points="2707.79,-141.18 2716.07,-134.57 2705.48,-134.57 2707.79,-141.18"/>
</a>
</g>
</g>
<!-- Node43 -->
<g id="Node000043" class="node">
<title>Node43</title>
<g id="a_Node000043"><a xlink:title=" ">
<polygon fill="#e0e0e0" stroke="#999999" points="2795,-206 2664,-206 2664,-176 2795,-176 2795,-206"/>
<text text-anchor="start" x="2672" y="-194" font-family="Helvetica,sans-Serif" font-size="10.00">user_builtin_non_scalar</text>
<text text-anchor="middle" x="2729.5" y="-183" font-family="Helvetica,sans-Serif" font-size="10.00">_constants.h</text>
</a>
</g>
</g>
<!-- Node3&#45;&gt;Node43 -->
<g id="edge46_Node000003_Node000043" class="edge">
<title>Node3&#45;&gt;Node43</title>
<g id="a_edge46_Node000003_Node000043"><a xlink:title=" ">
<path fill="none" stroke="#63b8ff" d="M2712.45,-241.87C2714.81,-234.96 2718.24,-224.93 2721.41,-215.67"/>
<polygon fill="#63b8ff" stroke="#63b8ff" points="2724.75,-216.71 2724.67,-206.11 2718.13,-214.44 2724.75,-216.71"/>
</a>
</g>
</g>
<!-- Node6&#45;&gt;Node4 -->
<g id="edge7_Node000006_Node000004" class="edge">
<title>Node6&#45;&gt;Node4</title>
<g id="a_edge7_Node000006_Node000004"><a xlink:title=" ">
<path fill="none" stroke="#63b8ff" d="M1547.59,-189.31C1750.1,-185.93 2599.31,-169.99 2646.5,-140 2666.09,-127.55 2676.39,-101.83 2681.38,-84.12"/>
<polygon fill="#63b8ff" stroke="#63b8ff" points="2684.8,-84.87 2683.84,-74.32 2678.01,-83.17 2684.8,-84.87"/>
</a>
</g>
</g>
<!-- Node7 -->
<g id="Node000007" class="node">
<title>Node7</title>
<g id="a_Node000007"><a xlink:title=" ">
<polygon fill="#e0e0e0" stroke="#999999" points="1693.5,-74 1643.5,-74 1643.5,-55 1693.5,-55 1693.5,-74"/>
<text text-anchor="middle" x="1668.5" y="-62" font-family="Helvetica,sans-Serif" font-size="10.00">stdio.h</text>
</a>
</g>
</g>
<!-- Node6&#45;&gt;Node7 -->
<g id="edge6_Node000006_Node000007" class="edge">
<title>Node6&#45;&gt;Node7</title>
<g id="a_edge6_Node000006_Node000007"><a xlink:title=" ">
<path fill="none" stroke="#63b8ff" d="M1547.61,-189.73C1749.17,-188.26 2590.48,-179.74 2628.5,-140 2637.72,-130.36 2637.71,-119.64 2628.5,-110 2595.97,-75.92 1873.29,-67.34 1703.83,-65.79"/>
<polygon fill="#63b8ff" stroke="#63b8ff" points="1703.74,-62.29 1693.71,-65.7 1703.67,-69.29 1703.74,-62.29"/>
</a>
</g>
</g>
<!-- Node8 -->
<g id="Node000008" class="node">
<title>Node8</title>
<g id="a_Node000008"><a xlink:href="device__headers_8h.html" target="_top" xlink:title=" ">
<polygon fill="white" stroke="#666666" points="682.5,-74 580.5,-74 580.5,-55 682.5,-55 682.5,-74"/>
<text text-anchor="middle" x="631.5" y="-62" font-family="Helvetica,sans-Serif" font-size="10.00">device_headers.h</text>
</a>
</g>
</g>
<!-- Node6&#45;&gt;Node8 -->
<g id="edge8_Node000006_Node000008" class="edge">
<title>Node6&#45;&gt;Node8</title>
<g id="a_edge8_Node000006_Node000008"><a xlink:title=" ">
<path fill="none" stroke="#63b8ff" d="M1461.26,-188.67C1270.32,-182.68 511.43,-157.78 494.5,-140 465.02,-109.02 524.08,-87.91 573.65,-76.28"/>
<polygon fill="#63b8ff" stroke="#63b8ff" points="574.42,-79.69 583.4,-74.08 572.88,-72.86 574.42,-79.69"/>
</a>
</g>
</g>
<!-- Node11 -->
<g id="Node000011" class="node">
<title>Node11</title>
<g id="a_Node000011"><a xlink:title=" ">
<polygon fill="#e0e0e0" stroke="#999999" points="95,-74 0,-74 0,-55 95,-55 95,-74"/>
<text text-anchor="middle" x="47.5" y="-62" font-family="Helvetica,sans-Serif" font-size="10.00">builtin_enums.h</text>
</a>
</g>
</g>
<!-- Node6&#45;&gt;Node11 -->
<g id="edge11_Node000006_Node000011" class="edge">
<title>Node6&#45;&gt;Node11</title>
<g id="a_edge11_Node000006_Node000011"><a xlink:title=" ">
<path fill="none" stroke="#63b8ff" d="M1461.38,-188.84C1259.67,-183.3 416.9,-159.11 364.5,-140 343.96,-132.51 345.58,-118.66 325.5,-110 320.45,-107.82 184.99,-86.7 105.06,-74.35"/>
<polygon fill="#63b8ff" stroke="#63b8ff" points="105.54,-70.88 95.12,-72.82 104.47,-77.8 105.54,-70.88"/>
</a>
</g>
</g>
<!-- Node12 -->
<g id="Node000012" class="node">
<title>Node12</title>
<g id="a_Node000012"><a xlink:href="datatypes_8h.html" target="_top" xlink:title=" ">
<polygon fill="#fff0f0" stroke="red" points="447.5,-134.5 373.5,-134.5 373.5,-115.5 447.5,-115.5 447.5,-134.5"/>
<text text-anchor="middle" x="410.5" y="-122.5" font-family="Helvetica,sans-Serif" font-size="10.00">datatypes.h</text>
</a>
</g>
</g>
<!-- Node6&#45;&gt;Node12 -->
<g id="edge12_Node000006_Node000012" class="edge">
<title>Node6&#45;&gt;Node12</title>
<g id="a_edge12_Node000006_Node000012"><a xlink:title=" ">
<path fill="none" stroke="#63b8ff" d="M1461.28,-189.2C1290.03,-185.81 658.88,-171.43 461.5,-140 456.76,-139.25 451.83,-138.22 446.99,-137.05"/>
<polygon fill="#63b8ff" stroke="#63b8ff" points="447.81,-133.65 437.25,-134.53 446.06,-140.43 447.81,-133.65"/>
</a>
</g>
</g>
<!-- Node20 -->
<g id="Node000020" class="node">
<title>Node20</title>
<g id="a_Node000020"><a xlink:href="errchk_8h.html" target="_top" xlink:title="Brief info.">
<polygon fill="#fff0f0" stroke="red" points="559.5,-134.5 503.5,-134.5 503.5,-115.5 559.5,-115.5 559.5,-134.5"/>
<text text-anchor="middle" x="531.5" y="-122.5" font-family="Helvetica,sans-Serif" font-size="10.00">errchk.h</text>
</a>
</g>
</g>
<!-- Node6&#45;&gt;Node20 -->
<g id="edge21_Node000006_Node000020" class="edge">
<title>Node6&#45;&gt;Node20</title>
<g id="a_edge21_Node000006_Node000020"><a xlink:title=" ">
<path fill="none" stroke="#63b8ff" d="M1461.33,-189.45C1301.33,-187.16 742.47,-176.63 568.5,-140 565.82,-139.44 563.08,-138.71 560.36,-137.88"/>
<polygon fill="#63b8ff" stroke="#63b8ff" points="561.34,-134.52 550.75,-134.57 559.06,-141.14 561.34,-134.52"/>
</a>
</g>
</g>
<!-- Node24 -->
<g id="Node000024" class="node">
<title>Node24</title>
<g id="a_Node000024"><a xlink:title=" ">
<polygon fill="#e0e0e0" stroke="#999999" points="665,-134.5 578,-134.5 578,-115.5 665,-115.5 665,-134.5"/>
<text text-anchor="middle" x="621.5" y="-122.5" font-family="Helvetica,sans-Serif" font-size="10.00">user_defines.h</text>
</a>
</g>
</g>
<!-- Node6&#45;&gt;Node24 -->
<g id="edge25_Node000006_Node000024" class="edge">
<title>Node6&#45;&gt;Node24</title>
<g id="a_edge25_Node000006_Node000024"><a xlink:title=" ">
<path fill="none" stroke="#63b8ff" d="M1461.41,-190.4C1337.97,-190.9 972.75,-187.89 674.5,-140 669.65,-139.22 664.59,-138.19 659.62,-137.03"/>
<polygon fill="#63b8ff" stroke="#63b8ff" points="660.16,-133.56 649.61,-134.53 658.46,-140.35 660.16,-133.56"/>
</a>
</g>
</g>
<!-- Node25 -->
<g id="Node000025" class="node">
<title>Node25</title>
<g id="a_Node000025"><a xlink:title=" ">
<polygon fill="#e0e0e0" stroke="#999999" points="769.5,-134.5 683.5,-134.5 683.5,-115.5 769.5,-115.5 769.5,-134.5"/>
<text text-anchor="middle" x="726.5" y="-122.5" font-family="Helvetica,sans-Serif" font-size="10.00">profiles_info.h</text>
</a>
</g>
</g>
<!-- Node6&#45;&gt;Node25 -->
<g id="edge26_Node000006_Node000025" class="edge">
<title>Node6&#45;&gt;Node25</title>
<g id="a_edge26_Node000006_Node000025"><a xlink:title=" ">
<path fill="none" stroke="#63b8ff" d="M1461.2,-189.94C1348.11,-189.15 1034.88,-182.92 778.5,-140 773.79,-139.21 768.89,-138.18 764.07,-137.04"/>
<polygon fill="#63b8ff" stroke="#63b8ff" points="764.9,-133.64 754.35,-134.57 763.18,-140.42 764.9,-133.64"/>
</a>
</g>
</g>
<!-- Node6&#45;&gt;Node26 -->
<g id="edge27_Node000006_Node000026" class="edge">
<title>Node6&#45;&gt;Node26</title>
<g id="a_edge27_Node000006_Node000026"><a xlink:title=" ">
<path fill="none" stroke="#63b8ff" d="M1461.39,-188.87C1277.43,-183.95 557.17,-163.53 331.5,-140 322.01,-139.01 311.96,-137.63 302.24,-136.12"/>
<polygon fill="#63b8ff" stroke="#63b8ff" points="302.69,-132.65 292.26,-134.5 301.58,-139.56 302.69,-132.65"/>
</a>
</g>
</g>
<!-- Node27 -->
<g id="Node000027" class="node">
<title>Node27</title>
<g id="a_Node000027"><a xlink:href="func__attributes_8h.html" target="_top" xlink:title=" ">
<polygon fill="white" stroke="#666666" points="887,-134.5 788,-134.5 788,-115.5 887,-115.5 887,-134.5"/>
<text text-anchor="middle" x="837.5" y="-122.5" font-family="Helvetica,sans-Serif" font-size="10.00">func_attributes.h</text>
</a>
</g>
</g>
<!-- Node6&#45;&gt;Node27 -->
<g id="edge28_Node000006_Node000027" class="edge">
<title>Node6&#45;&gt;Node27</title>
<g id="a_edge28_Node000006_Node000027"><a xlink:title=" ">
<path fill="none" stroke="#63b8ff" d="M1461.4,-188.75C1361.39,-185.36 1106.03,-173.84 895.5,-140 890.07,-139.13 884.39,-138.01 878.81,-136.8"/>
<polygon fill="#63b8ff" stroke="#63b8ff" points="879.46,-133.35 868.93,-134.52 877.89,-140.18 879.46,-133.35"/>
</a>
</g>
</g>
<!-- Node28 -->
<g id="Node000028" class="node">
<title>Node28</title>
<g id="a_Node000028"><a xlink:title=" ">
<polygon fill="#e0e0e0" stroke="#999999" points="1030,-134.5 905,-134.5 905,-115.5 1030,-115.5 1030,-134.5"/>
<text text-anchor="middle" x="967.5" y="-122.5" font-family="Helvetica,sans-Serif" font-size="10.00">user_input_typedefs.h</text>
</a>
</g>
</g>
<!-- Node6&#45;&gt;Node28 -->
<g id="edge29_Node000006_Node000028" class="edge">
<title>Node6&#45;&gt;Node28</title>
<g id="a_edge29_Node000006_Node000028"><a xlink:title=" ">
<path fill="none" stroke="#63b8ff" d="M1461.29,-186.64C1378.81,-179.94 1193.35,-163.53 1038.5,-140 1031.74,-138.97 1024.65,-137.75 1017.66,-136.46"/>
<polygon fill="#63b8ff" stroke="#63b8ff" points="1018.05,-132.97 1007.57,-134.54 1016.74,-139.85 1018.05,-132.97"/>
</a>
</g>
</g>
<!-- Node29 -->
<g id="Node000029" class="node">
<title>Node29</title>
<g id="a_Node000029"><a xlink:title=" ">
<polygon fill="#e0e0e0" stroke="#999999" points="1131,-134.5 1048,-134.5 1048,-115.5 1131,-115.5 1131,-134.5"/>
<text text-anchor="middle" x="1089.5" y="-122.5" font-family="Helvetica,sans-Serif" font-size="10.00">output_decl.h</text>
</a>
</g>
</g>
<!-- Node6&#45;&gt;Node29 -->
<g id="edge30_Node000006_Node000029" class="edge">
<title>Node6&#45;&gt;Node29</title>
<g id="a_edge30_Node000006_Node000029"><a xlink:title=" ">
<path fill="none" stroke="#63b8ff" d="M1461.32,-185.93C1392.84,-179.05 1255.32,-163.54 1140.5,-140 1136.35,-139.15 1132.04,-138.15 1127.76,-137.09"/>
<polygon fill="#63b8ff" stroke="#63b8ff" points="1128.49,-133.66 1117.93,-134.52 1126.72,-140.43 1128.49,-133.66"/>
</a>
</g>
</g>
<!-- Node30 -->
<g id="Node000030" class="node">
<title>Node30</title>
<g id="a_Node000030"><a xlink:title=" ">
<polygon fill="#e0e0e0" stroke="#999999" points="1265.5,-134.5 1149.5,-134.5 1149.5,-115.5 1265.5,-115.5 1265.5,-134.5"/>
<text text-anchor="middle" x="1207.5" y="-122.5" font-family="Helvetica,sans-Serif" font-size="10.00">comp_loaded_decl.h</text>
</a>
</g>
</g>
<!-- Node6&#45;&gt;Node30 -->
<g id="edge31_Node000006_Node000030" class="edge">
<title>Node6&#45;&gt;Node30</title>
<g id="a_edge31_Node000006_Node000030"><a xlink:title=" ">
<path fill="none" stroke="#63b8ff" d="M1464.75,-181.44C1411.07,-169.87 1315.42,-149.26 1257.1,-136.69"/>
<polygon fill="#63b8ff" stroke="#63b8ff" points="1257.52,-133.2 1247.01,-134.51 1256.05,-140.04 1257.52,-133.2"/>
</a>
</g>
</g>
<!-- Node31 -->
<g id="Node000031" class="node">
<title>Node31</title>
<g id="a_Node000031"><a xlink:title=" ">
<polygon fill="#e0e0e0" stroke="#999999" points="1361.5,-134.5 1283.5,-134.5 1283.5,-115.5 1361.5,-115.5 1361.5,-134.5"/>
<text text-anchor="middle" x="1322.5" y="-122.5" font-family="Helvetica,sans-Serif" font-size="10.00">comp_decl.h</text>
</a>
</g>
</g>
<!-- Node6&#45;&gt;Node31 -->
<g id="edge32_Node000006_Node000031" class="edge">
<title>Node6&#45;&gt;Node31</title>
<g id="a_edge32_Node000006_Node000031"><a xlink:title=" ">
<path fill="none" stroke="#63b8ff" d="M1479.95,-181.37C1448.12,-170.17 1392.41,-150.58 1356.51,-137.96"/>
<polygon fill="#63b8ff" stroke="#63b8ff" points="1357.54,-134.61 1346.95,-134.6 1355.22,-141.22 1357.54,-134.61"/>
</a>
</g>
</g>
<!-- Node32 -->
<g id="Node000032" class="node">
<title>Node32</title>
<g id="a_Node000032"><a xlink:title=" ">
<polygon fill="#e0e0e0" stroke="#999999" points="1487.5,-134.5 1379.5,-134.5 1379.5,-115.5 1487.5,-115.5 1487.5,-134.5"/>
<text text-anchor="middle" x="1433.5" y="-122.5" font-family="Helvetica,sans-Serif" font-size="10.00">info_loaded_decl.h</text>
</a>
</g>
</g>
<!-- Node6&#45;&gt;Node32 -->
<g id="edge33_Node000006_Node000032" class="edge">
<title>Node6&#45;&gt;Node32</title>
<g id="a_edge33_Node000006_Node000032"><a xlink:title=" ">
<path fill="none" stroke="#63b8ff" d="M1494.92,-181.37C1483.66,-171.21 1464.74,-154.16 1450.87,-141.65"/>
<polygon fill="#63b8ff" stroke="#63b8ff" points="1453.15,-139 1443.38,-134.91 1448.46,-144.2 1453.15,-139"/>
</a>
</g>
</g>
<!-- Node33 -->
<g id="Node000033" class="node">
<title>Node33</title>
<g id="a_Node000033"><a xlink:title=" ">
<polygon fill="#e0e0e0" stroke="#999999" points="1645.5,-134.5 1505.5,-134.5 1505.5,-115.5 1645.5,-115.5 1645.5,-134.5"/>
<text text-anchor="middle" x="1575.5" y="-122.5" font-family="Helvetica,sans-Serif" font-size="10.00">device_mesh_info_decl.h</text>
</a>
</g>
</g>
<!-- Node6&#45;&gt;Node33 -->
<g id="edge34_Node000006_Node000033" class="edge">
<title>Node6&#45;&gt;Node33</title>
<g id="a_edge34_Node000006_Node000033"><a xlink:title=" ">
<path fill="none" stroke="#63b8ff" d="M1514.08,-181.37C1525.34,-171.21 1544.26,-154.16 1558.13,-141.65"/>
<polygon fill="#63b8ff" stroke="#63b8ff" points="1560.54,-144.2 1565.62,-134.91 1555.85,-139 1560.54,-144.2"/>
</a>
</g>
</g>
<!-- Node34 -->
<g id="Node000034" class="node">
<title>Node34</title>
<g id="a_Node000034"><a xlink:title=" ">
<polygon fill="#e0e0e0" stroke="#999999" points="1741,-134.5 1664,-134.5 1664,-115.5 1741,-115.5 1741,-134.5"/>
<text text-anchor="middle" x="1702.5" y="-122.5" font-family="Helvetica,sans-Serif" font-size="10.00">array_decl.h</text>
</a>
</g>
</g>
<!-- Node6&#45;&gt;Node34 -->
<g id="edge35_Node000006_Node000034" class="edge">
<title>Node6&#45;&gt;Node34</title>
<g id="a_edge35_Node000006_Node000034"><a xlink:title=" ">
<path fill="none" stroke="#63b8ff" d="M1531.2,-181.37C1565.99,-170.12 1626.96,-150.42 1666,-137.8"/>
<polygon fill="#63b8ff" stroke="#63b8ff" points="1667.47,-141 1675.9,-134.6 1665.31,-134.34 1667.47,-141"/>
</a>
</g>
</g>
<!-- Node35 -->
<g id="Node000035" class="node">
<title>Node35</title>
<g id="a_Node000035"><a xlink:title=" ">
<polygon fill="#e0e0e0" stroke="#999999" points="1835.5,-134.5 1759.5,-134.5 1759.5,-115.5 1835.5,-115.5 1835.5,-134.5"/>
<text text-anchor="middle" x="1797.5" y="-122.5" font-family="Helvetica,sans-Serif" font-size="10.00">input_decl.h</text>
</a>
</g>
</g>
<!-- Node6&#45;&gt;Node35 -->
<g id="edge36_Node000006_Node000035" class="edge">
<title>Node6&#45;&gt;Node35</title>
<g id="a_edge36_Node000006_Node000035"><a xlink:title=" ">
<path fill="none" stroke="#63b8ff" d="M1547.67,-182.3C1596.8,-173.29 1679.34,-157.36 1749.5,-140 1752.89,-139.16 1756.4,-138.24 1759.91,-137.28"/>
<polygon fill="#63b8ff" stroke="#63b8ff" points="1761.01,-140.61 1769.69,-134.53 1759.11,-133.87 1761.01,-140.61"/>
</a>
</g>
</g>
<!-- Node36 -->
<g id="Node000036" class="node">
<title>Node36</title>
<g id="a_Node000036"><a xlink:href="ac__helpers_8h.html" target="_top" xlink:title=" ">
<polygon fill="white" stroke="#666666" points="1931.5,-134.5 1853.5,-134.5 1853.5,-115.5 1931.5,-115.5 1931.5,-134.5"/>
<text text-anchor="middle" x="1892.5" y="-122.5" font-family="Helvetica,sans-Serif" font-size="10.00">ac_helpers.h</text>
</a>
</g>
</g>
<!-- Node6&#45;&gt;Node36 -->
<g id="edge37_Node000006_Node000036" class="edge">
<title>Node6&#45;&gt;Node36</title>
<g id="a_edge37_Node000006_Node000036"><a xlink:title=" ">
<path fill="none" stroke="#63b8ff" d="M1547.51,-185.6C1612.37,-178.53 1738.85,-163.06 1844.5,-140 1848.19,-139.19 1852.02,-138.26 1855.83,-137.26"/>
<polygon fill="#63b8ff" stroke="#63b8ff" points="1857.05,-140.55 1865.76,-134.51 1855.19,-133.8 1857.05,-140.55"/>
</a>
</g>
</g>
<!-- Node37 -->
<g id="Node000037" class="node">
<title>Node37</title>
<g id="a_Node000037"><a xlink:title=" ">
<polygon fill="#e0e0e0" stroke="#999999" points="2067.5,-140 1949.5,-140 1949.5,-110 2067.5,-110 2067.5,-140"/>
<text text-anchor="start" x="1957.5" y="-128" font-family="Helvetica,sans-Serif" font-size="10.00">scalar_reduce_buffer</text>
<text text-anchor="middle" x="2008.5" y="-117" font-family="Helvetica,sans-Serif" font-size="10.00">_defs.h</text>
</a>
</g>
</g>
<!-- Node6&#45;&gt;Node37 -->
<g id="edge38_Node000006_Node000037" class="edge">
<title>Node6&#45;&gt;Node37</title>
<g id="a_edge38_Node000006_Node000037"><a xlink:title=" ">
<path fill="none" stroke="#63b8ff" d="M1547.68,-186.33C1624.41,-179.53 1789.72,-163.63 1938.96,-140.16"/>
<polygon fill="#63b8ff" stroke="#63b8ff" points="1939.89,-143.55 1949.22,-138.53 1938.79,-136.64 1939.89,-143.55"/>
</a>
</g>
</g>
<!-- Node38 -->
<g id="Node000038" class="node">
<title>Node38</title>
<g id="a_Node000038"><a xlink:title=" ">
<polygon fill="#e0e0e0" stroke="#999999" points="2209,-140 2086,-140 2086,-110 2209,-110 2209,-140"/>
<text text-anchor="start" x="2094" y="-128" font-family="Helvetica,sans-Serif" font-size="10.00">scalar_reduce_buffers</text>
<text text-anchor="middle" x="2147.5" y="-117" font-family="Helvetica,sans-Serif" font-size="10.00">_in_vba.h</text>
</a>
</g>
</g>
<!-- Node6&#45;&gt;Node38 -->
<g id="edge39_Node000006_Node000038" class="edge">
<title>Node6&#45;&gt;Node38</title>
<g id="a_edge39_Node000006_Node000038"><a xlink:title=" ">
<path fill="none" stroke="#63b8ff" d="M1547.73,-187.81C1641.86,-182.71 1872.5,-168.34 2076.02,-139.95"/>
<polygon fill="#63b8ff" stroke="#63b8ff" points="2076.58,-143.41 2086,-138.55 2075.6,-136.48 2076.58,-143.41"/>
</a>
</g>
</g>
<!-- Node39 -->
<g id="Node000039" class="node">
<title>Node39</title>
<g id="a_Node000039"><a xlink:href="astaroth__analysis_8h.html" target="_top" xlink:title=" ">
<polygon fill="white" stroke="#666666" points="2339.5,-134.5 2227.5,-134.5 2227.5,-115.5 2339.5,-115.5 2339.5,-134.5"/>
<text text-anchor="middle" x="2283.5" y="-122.5" font-family="Helvetica,sans-Serif" font-size="10.00">astaroth_analysis.h</text>
</a>
</g>
</g>
<!-- Node6&#45;&gt;Node39 -->
<g id="edge40_Node000006_Node000039" class="edge">
<title>Node6&#45;&gt;Node39</title>
<g id="a_edge40_Node000006_Node000039"><a xlink:title=" ">
<path fill="none" stroke="#63b8ff" d="M1547.72,-189.06C1659.17,-186.18 1965.28,-175.42 2217.5,-140 2224.12,-139.07 2231.08,-137.86 2237.88,-136.54"/>
<polygon fill="#63b8ff" stroke="#63b8ff" points="2238.59,-139.96 2247.69,-134.54 2237.2,-133.1 2238.59,-139.96"/>
</a>
</g>
</g>
<!-- Node6&#45;&gt;Node40 -->
<g id="edge41_Node000006_Node000040" class="edge">
<title>Node6&#45;&gt;Node40</title>
<g id="a_edge41_Node000006_Node000040"><a xlink:title=" ">
<path fill="none" stroke="#63b8ff" d="M1547.53,-189.4C1733.67,-186.6 2470.42,-173.58 2699.5,-140 2704.73,-139.23 2710.18,-138.17 2715.53,-136.98"/>
<polygon fill="#63b8ff" stroke="#63b8ff" points="2716.71,-140.29 2725.61,-134.55 2715.07,-133.49 2716.71,-140.29"/>
</a>
</g>
</g>
<!-- Node41 -->
<g id="Node000041" class="node">
<title>Node41</title>
<g id="a_Node000041"><a xlink:href="common__kernels_8h.html" target="_top" xlink:title=" ">
<polygon fill="white" stroke="#666666" points="2467,-134.5 2358,-134.5 2358,-115.5 2467,-115.5 2467,-134.5"/>
<text text-anchor="middle" x="2412.5" y="-122.5" font-family="Helvetica,sans-Serif" font-size="10.00">common_kernels.h</text>
</a>
</g>
</g>
<!-- Node6&#45;&gt;Node41 -->
<g id="edge42_Node000006_Node000041" class="edge">
<title>Node6&#45;&gt;Node41</title>
<g id="a_edge42_Node000006_Node000041"><a xlink:title=" ">
<path fill="none" stroke="#63b8ff" d="M1547.77,-189.82C1672.6,-188.77 2043.88,-182.08 2348.5,-140 2354.86,-139.12 2361.52,-137.95 2368.05,-136.66"/>
<polygon fill="#63b8ff" stroke="#63b8ff" points="2369.06,-140.02 2378.13,-134.55 2367.63,-133.17 2369.06,-140.02"/>
</a>
</g>
</g>
<!-- Node42 -->
<g id="Node000042" class="node">
<title>Node42</title>
<g id="a_Node000042"><a xlink:title=" ">
<polygon fill="#e0e0e0" stroke="#999999" points="2619.5,-140 2485.5,-140 2485.5,-110 2619.5,-110 2619.5,-140"/>
<text text-anchor="start" x="2493.5" y="-128" font-family="Helvetica,sans-Serif" font-size="10.00">load_and_store_uniform</text>
<text text-anchor="middle" x="2552.5" y="-117" font-family="Helvetica,sans-Serif" font-size="10.00">_header.h</text>
</a>
</g>
</g>
<!-- Node6&#45;&gt;Node42 -->
<g id="edge43_Node000006_Node000042" class="edge">
<title>Node6&#45;&gt;Node42</title>
<g id="a_edge43_Node000006_Node000042"><a xlink:title=" ">
<path fill="none" stroke="#63b8ff" d="M1547.73,-189.75C1683.11,-188.55 2110.95,-181.57 2475.43,-139.88"/>
<polygon fill="#63b8ff" stroke="#63b8ff" points="2475.85,-143.35 2485.38,-138.73 2475.05,-136.4 2475.85,-143.35"/>
</a>
</g>
</g>
<!-- Node9 -->
<g id="Node000009" class="node">
<title>Node9</title>
<g id="a_Node000009"><a xlink:title=" ">
<polygon fill="#e0e0e0" stroke="#999999" points="559,-19 446,-19 446,0 559,0 559,-19"/>
<text text-anchor="middle" x="502.5" y="-7" font-family="Helvetica,sans-Serif" font-size="10.00">cuda_runtime_api.h</text>
</a>
</g>
</g>
<!-- Node8&#45;&gt;Node9 -->
<g id="edge9_Node000008_Node000009" class="edge">
<title>Node8&#45;&gt;Node9</title>
<g id="a_edge9_Node000008_Node000009"><a xlink:title=" ">
<path fill="none" stroke="#63b8ff" d="M610.77,-54.98C589.74,-46.34 556.95,-32.87 532.96,-23.02"/>
<polygon fill="#63b8ff" stroke="#63b8ff" points="534.18,-19.73 523.6,-19.17 531.52,-26.21 534.18,-19.73"/>
</a>
</g>
</g>
<!-- Node10 -->
<g id="Node000010" class="node">
<title>Node10</title>
<g id="a_Node000010"><a xlink:title=" ">
<polygon fill="#e0e0e0" stroke="#999999" points="669.5,-19 593.5,-19 593.5,0 669.5,0 669.5,-19"/>
<text text-anchor="middle" x="631.5" y="-7" font-family="Helvetica,sans-Serif" font-size="10.00">cuda_fp16.h</text>
</a>
</g>
</g>
<!-- Node8&#45;&gt;Node10 -->
<g id="edge10_Node000008_Node000010" class="edge">
<title>Node8&#45;&gt;Node10</title>
<g id="a_edge10_Node000008_Node000010"><a xlink:title=" ">
<path fill="none" stroke="#63b8ff" d="M631.5,-54.75C631.5,-47.8 631.5,-37.85 631.5,-29.13"/>
<polygon fill="#63b8ff" stroke="#63b8ff" points="635,-29.09 631.5,-19.09 628,-29.09 635,-29.09"/>
</a>
</g>
</g>
<!-- Node12&#45;&gt;Node8 -->
<g id="edge15_Node000012_Node000008" class="edge">
<title>Node12&#45;&gt;Node8</title>
<g id="a_edge15_Node000012_Node000008"><a xlink:title=" ">
<path fill="none" stroke="#63b8ff" d="M441.5,-115.43C448.1,-113.62 455.03,-111.74 461.5,-110 504.68,-98.42 554.13,-85.52 588.52,-76.6"/>
<polygon fill="#63b8ff" stroke="#63b8ff" points="589.44,-79.98 598.24,-74.08 587.68,-73.2 589.44,-79.98"/>
</a>
</g>
</g>
<!-- Node12&#45;&gt;Node9 -->
<g id="edge17_Node000012_Node000009" class="edge">
<title>Node12&#45;&gt;Node9</title>
<g id="a_edge17_Node000012_Node000009"><a xlink:title=" ">
<path fill="none" stroke="#63b8ff" d="M422.24,-115.37C434.34,-106.09 453.24,-90.43 466.5,-74 477.91,-59.85 487.84,-41.62 494.36,-28.33"/>
<polygon fill="#63b8ff" stroke="#63b8ff" points="497.53,-29.81 498.65,-19.27 491.21,-26.81 497.53,-29.81"/>
</a>
</g>
</g>
<!-- Node12&#45;&gt;Node11 -->
<g id="edge19_Node000012_Node000011" class="edge">
<title>Node12&#45;&gt;Node11</title>
<g id="a_edge19_Node000012_Node000011"><a xlink:title=" ">
<path fill="none" stroke="#63b8ff" d="M381.8,-115.43C374.56,-113.46 366.78,-111.51 359.5,-110 250.17,-87.4 218.94,-90.42 105.3,-74.23"/>
<polygon fill="#63b8ff" stroke="#63b8ff" points="105.55,-70.73 95.15,-72.77 104.55,-77.66 105.55,-70.73"/>
</a>
</g>
</g>
<!-- Node13 -->
<g id="Node000013" class="node">
<title>Node13</title>
<g id="a_Node000013"><a xlink:title=" ">
<polygon fill="#e0e0e0" stroke="#999999" points="562,-74 515,-74 515,-55 562,-55 562,-74"/>
<text text-anchor="middle" x="538.5" y="-62" font-family="Helvetica,sans-Serif" font-size="10.00">float.h</text>
</a>
</g>
</g>
<!-- Node12&#45;&gt;Node13 -->
<g id="edge13_Node000012_Node000013" class="edge">
<title>Node12&#45;&gt;Node13</title>
<g id="a_edge13_Node000012_Node000013"><a xlink:title=" ">
<path fill="none" stroke="#63b8ff" d="M429.11,-115.49C450.54,-105.7 485.94,-89.52 510.65,-78.23"/>
<polygon fill="#63b8ff" stroke="#63b8ff" points="512.22,-81.36 519.87,-74.02 509.32,-74.99 512.22,-81.36"/>
</a>
</g>
</g>
<!-- Node14 -->
<g id="Node000014" class="node">
<title>Node14</title>
<g id="a_Node000014"><a xlink:title=" ">
<polygon fill="#e0e0e0" stroke="#999999" points="164,-74 113,-74 113,-55 164,-55 164,-74"/>
<text text-anchor="middle" x="138.5" y="-62" font-family="Helvetica,sans-Serif" font-size="10.00">math.h</text>
</a>
</g>
</g>
<!-- Node12&#45;&gt;Node14 -->
<g id="edge14_Node000012_Node000014" class="edge">
<title>Node12&#45;&gt;Node14</title>
<g id="a_edge14_Node000012_Node000014"><a xlink:title=" ">
<path fill="none" stroke="#63b8ff" d="M380.93,-115.47C373.93,-113.56 366.47,-111.63 359.5,-110 280.13,-91.5 256.85,-92.19 173.94,-74.22"/>
<polygon fill="#63b8ff" stroke="#63b8ff" points="174.6,-70.78 164.08,-72.06 173.1,-77.62 174.6,-70.78"/>
</a>
</g>
</g>
<!-- Node15 -->
<g id="Node000015" class="node">
<title>Node15</title>
<g id="a_Node000015"><a xlink:title=" ">
<polygon fill="#e0e0e0" stroke="#999999" points="271,-74 182,-74 182,-55 271,-55 271,-74"/>
<text text-anchor="middle" x="226.5" y="-62" font-family="Helvetica,sans-Serif" font-size="10.00">vector_types.h</text>
</a>
</g>
</g>
<!-- Node12&#45;&gt;Node15 -->
<g id="edge16_Node000012_Node000015" class="edge">
<title>Node12&#45;&gt;Node15</title>
<g id="a_edge16_Node000012_Node000015"><a xlink:title=" ">
<path fill="none" stroke="#63b8ff" d="M383.74,-115.49C351.86,-105.36 298.43,-88.37 262.82,-77.05"/>
<polygon fill="#63b8ff" stroke="#63b8ff" points="263.88,-73.71 253.29,-74.02 261.76,-80.38 263.88,-73.71"/>
</a>
</g>
</g>
<!-- Node16 -->
<g id="Node000016" class="node">
<title>Node16</title>
<g id="a_Node000016"><a xlink:href="acreal_8h.html" target="_top" xlink:title=" ">
<polygon fill="white" stroke="#666666" points="344.5,-74 288.5,-74 288.5,-55 344.5,-55 344.5,-74"/>
<text text-anchor="middle" x="316.5" y="-62" font-family="Helvetica,sans-Serif" font-size="10.00">acreal.h</text>
</a>
</g>
</g>
<!-- Node12&#45;&gt;Node16 -->
<g id="edge18_Node000012_Node000016" class="edge">
<title>Node12&#45;&gt;Node16</title>
<g id="a_edge18_Node000012_Node000016"><a xlink:title=" ">
<path fill="none" stroke="#63b8ff" d="M396.63,-115.37C381.5,-105.95 357.04,-90.73 339.12,-79.58"/>
<polygon fill="#63b8ff" stroke="#63b8ff" points="340.77,-76.48 330.43,-74.17 337.07,-82.42 340.77,-76.48"/>
</a>
</g>
</g>
<!-- Node17 -->
<g id="Node000017" class="node">
<title>Node17</title>
<g id="a_Node000017"><a xlink:title=" ">
<polygon fill="#e0e0e0" stroke="#999999" points="458,-74 363,-74 363,-55 458,-55 458,-74"/>
<text text-anchor="middle" x="410.5" y="-62" font-family="Helvetica,sans-Serif" font-size="10.00">user_typedefs.h</text>
</a>
</g>
</g>
<!-- Node12&#45;&gt;Node17 -->
<g id="edge20_Node000012_Node000017" class="edge">
<title>Node12&#45;&gt;Node17</title>
<g id="a_edge20_Node000012_Node000017"><a xlink:title=" ">
<path fill="none" stroke="#63b8ff" d="M410.5,-115.37C410.5,-107.25 410.5,-94.81 410.5,-84.39"/>
<polygon fill="#63b8ff" stroke="#63b8ff" points="414,-84.17 410.5,-74.17 407,-84.17 414,-84.17"/>
</a>
</g>
</g>
<!-- Node20&#45;&gt;Node4 -->
<g id="edge22_Node000020_Node000004" class="edge">
<title>Node20&#45;&gt;Node4</title>
<g id="a_edge22_Node000020_Node000004"><a xlink:title=" ">
<path fill="none" stroke="#63b8ff" d="M550.34,-115.46C556.06,-113.26 562.43,-111.18 568.5,-110 674.12,-89.54 2357.07,-69.28 2644.04,-65.97"/>
<polygon fill="#63b8ff" stroke="#63b8ff" points="2644.46,-69.47 2654.42,-65.85 2644.38,-62.47 2644.46,-69.47"/>
</a>
</g>
</g>
<!-- Node20&#45;&gt;Node7 -->
<g id="edge23_Node000020_Node000007" class="edge">
<title>Node20&#45;&gt;Node7</title>
<g id="a_edge23_Node000020_Node000007"><a xlink:title=" ">
<path fill="none" stroke="#63b8ff" d="M550.74,-115.39C556.36,-113.24 562.58,-111.21 568.5,-110 779.24,-67.04 1469.61,-65.22 1633.41,-65.41"/>
<polygon fill="#63b8ff" stroke="#63b8ff" points="1633.42,-68.91 1643.43,-65.43 1633.44,-61.91 1633.42,-68.91"/>
</a>
</g>
</g>
<!-- Node20&#45;&gt;Node8 -->
<g id="edge24_Node000020_Node000008" class="edge">
<title>Node20&#45;&gt;Node8</title>
<g id="a_edge24_Node000020_Node000008"><a xlink:title=" ">
<path fill="none" stroke="#63b8ff" d="M546.26,-115.37C562.5,-105.86 588.85,-90.45 607.96,-79.27"/>
<polygon fill="#63b8ff" stroke="#63b8ff" points="609.82,-82.24 616.68,-74.17 606.29,-76.2 609.82,-82.24"/>
</a>
</g>
</g>
<!-- Node47 -->
<g id="Node000047" class="node">
<title>Node47</title>
<g id="a_Node000047"><a xlink:title=" ">
<polygon fill="#e0e0e0" stroke="#999999" points="3089,-206 2970,-206 2970,-176 3089,-176 3089,-206"/>
<text text-anchor="start" x="2978" y="-194" font-family="Helvetica,sans-Serif" font-size="10.00">device_load_uniform</text>
<text text-anchor="middle" x="3029.5" y="-183" font-family="Helvetica,sans-Serif" font-size="10.00">_decl.h</text>
</a>
</g>
</g>
<!-- Node46&#45;&gt;Node47 -->
<g id="edge50_Node000046_Node000047" class="edge">
<title>Node46&#45;&gt;Node47</title>
<g id="a_edge50_Node000046_Node000047"><a xlink:title=" ">
<path fill="none" stroke="#63b8ff" d="M3046.55,-241.87C3044.19,-234.96 3040.76,-224.93 3037.59,-215.67"/>
<polygon fill="#63b8ff" stroke="#63b8ff" points="3040.87,-214.44 3034.33,-206.11 3034.25,-216.71 3040.87,-214.44"/>
</a>
</g>
</g>
<!-- Node48 -->
<g id="Node000048" class="node">
<title>Node48</title>
<g id="a_Node000048"><a xlink:title=" ">
<polygon fill="#e0e0e0" stroke="#999999" points="3229.5,-206 3107.5,-206 3107.5,-176 3229.5,-176 3229.5,-206"/>
<text text-anchor="start" x="3115.5" y="-194" font-family="Helvetica,sans-Serif" font-size="10.00">device_store_uniform</text>
<text text-anchor="middle" x="3168.5" y="-183" font-family="Helvetica,sans-Serif" font-size="10.00">_decl.h</text>
</a>
</g>
</g>
<!-- Node46&#45;&gt;Node48 -->
<g id="edge51_Node000046_Node000048" class="edge">
<title>Node46&#45;&gt;Node48</title>
<g id="a_edge51_Node000046_Node000048"><a xlink:title=" ">
<path fill="none" stroke="#63b8ff" d="M3066.8,-241.99C3083.42,-233.82 3109.1,-221.2 3130.49,-210.69"/>
<polygon fill="#63b8ff" stroke="#63b8ff" points="3132.23,-213.73 3139.66,-206.18 3129.14,-207.45 3132.23,-213.73"/>
</a>
</g>
</g>
</g>
</svg>
