<?xml version="1.0" encoding="UTF-8" standalone="no"?>
<!DOCTYPE svg PUBLIC "-//W3C//DTD SVG 1.1//EN"
 "http://www.w3.org/Graphics/SVG/1.1/DTD/svg11.dtd">
<!-- Generated by graphviz version 2.43.0 (0)
 -->
<!-- Title: include/astaroth_analysis_helpers.h Pages: 1 -->
<svg width="372pt" height="93pt"
 viewBox="0.00 0.00 372.00 93.00" xmlns="http://www.w3.org/2000/svg" xmlns:xlink="http://www.w3.org/1999/xlink">
<g id="graph0" class="graph" transform="scale(1 1) rotate(0) translate(4 89)">
<title>include/astaroth_analysis_helpers.h</title>
<!-- Node1 -->
<g id="Node000001" class="node">
<title>Node1</title>
<g id="a_Node000001"><a xlink:title=" ">
<polygon fill="#999999" stroke="#666666" points="279.5,-85 138.5,-85 138.5,-55 279.5,-55 279.5,-85"/>
<text text-anchor="start" x="146.5" y="-73" font-family="Helvetica,sans-Serif" font-size="10.00">include/astaroth_analysis</text>
<text text-anchor="middle" x="209" y="-62" font-family="Helvetica,sans-Serif" font-size="10.00">_helpers.h</text>
</a>
</g>
</g>
<!-- Node2 -->
<g id="Node000002" class="node">
<title>Node2</title>
<g id="a_Node000002"><a xlink:href="compute__steps_8cc.html" target="_top" xlink:title=" ">
<polygon fill="white" stroke="#666666" points="146,-19 0,-19 0,0 146,0 146,-19"/>
<text text-anchor="middle" x="73" y="-7" font-family="Helvetica,sans-Serif" font-size="10.00">src/core/compute_steps.cc</text>
</a>
</g>
</g>
<!-- Node1&#45;&gt;Node2 -->
<g id="edge1_Node000001_Node000002" class="edge">
<title>Node1&#45;&gt;Node2</title>
<g id="a_edge1_Node000001_Node000002"><a xlink:title=" ">
<path fill="none" stroke="#63b8ff" d="M166.95,-50.91C142.37,-40.34 112.45,-27.47 93.08,-19.14"/>
<polygon fill="#63b8ff" stroke="#63b8ff" points="165.86,-54.25 176.42,-54.99 168.62,-47.82 165.86,-54.25"/>
</a>
</g>
</g>
<!-- Node3 -->
<g id="Node000003" class="node">
<title>Node3</title>
<g id="a_Node000003"><a xlink:href="grid_8cc.html" target="_top" xlink:title=" ">
<polygon fill="white" stroke="#666666" points="254,-19 164,-19 164,0 254,0 254,-19"/>
<text text-anchor="middle" x="209" y="-7" font-family="Helvetica,sans-Serif" font-size="10.00">src/core/grid.cc</text>
</a>
</g>
</g>
<!-- Node1&#45;&gt;Node3 -->
<g id="edge2_Node000001_Node000003" class="edge">
<title>Node1&#45;&gt;Node3</title>
<g id="a_edge2_Node000001_Node000003"><a xlink:title=" ">
<path fill="none" stroke="#63b8ff" d="M209,-44.75C209,-35.72 209,-26.03 209,-19.27"/>
<polygon fill="#63b8ff" stroke="#63b8ff" points="205.5,-44.84 209,-54.84 212.5,-44.84 205.5,-44.84"/>
</a>
</g>
</g>
<!-- Node4 -->
<g id="Node000004" class="node">
<title>Node4</title>
<g id="a_Node000004"><a xlink:href="task_8cc.html" target="_top" xlink:title=" ">
<polygon fill="white" stroke="#666666" points="364,-19 272,-19 272,0 364,0 364,-19"/>
<text text-anchor="middle" x="318" y="-7" font-family="Helvetica,sans-Serif" font-size="10.00">src/core/task.cc</text>
</a>
</g>
</g>
<!-- Node1&#45;&gt;Node4 -->
<g id="edge3_Node000001_Node000004" class="edge">
<title>Node1&#45;&gt;Node4</title>
<g id="a_edge3_Node000001_Node000004"><a xlink:title=" ">
<path fill="none" stroke="#63b8ff" d="M244.01,-50.21C263.46,-39.77 286.72,-27.29 301.9,-19.14"/>
<polygon fill="#63b8ff" stroke="#63b8ff" points="242.26,-47.17 235.11,-54.99 245.57,-53.34 242.26,-47.17"/>
</a>
</g>
</g>
</g>
</svg>
