<?xml version="1.0" encoding="UTF-8" standalone="no"?>
<!DOCTYPE svg PUBLIC "-//W3C//DTD SVG 1.1//EN"
 "http://www.w3.org/Graphics/SVG/1.1/DTD/svg11.dtd">
<!-- Generated by graphviz version 2.43.0 (0)
 -->
<!-- Title: include/astaroth.h Pages: 1 -->
<svg width="3944pt" height="324pt"
 viewBox="0.00 0.00 3944.00 324.00" xmlns="http://www.w3.org/2000/svg" xmlns:xlink="http://www.w3.org/1999/xlink">
<g id="graph0" class="graph" transform="scale(1 1) rotate(0) translate(4 320)">
<title>include/astaroth.h</title>
<!-- Node1 -->
<g id="Node000001" class="node">
<title>Node1</title>
<g id="a_Node000001"><a xlink:title=" ">
<polygon fill="#999999" stroke="#666666" points="3185.5,-316 3081.5,-316 3081.5,-297 3185.5,-297 3185.5,-316"/>
<text text-anchor="middle" x="3133.5" y="-304" font-family="Helvetica,sans-Serif" font-size="10.00">include/astaroth.h</text>
</a>
</g>
</g>
<!-- Node2 -->
<g id="Node000002" class="node">
<title>Node2</title>
<g id="a_Node000002"><a xlink:href="astaroth__base_8h.html" target="_top" xlink:title=" ">
<polygon fill="white" stroke="#666666" points="2045,-261 1950,-261 1950,-242 2045,-242 2045,-261"/>
<text text-anchor="middle" x="1997.5" y="-249" font-family="Helvetica,sans-Serif" font-size="10.00">astaroth_base.h</text>
</a>
</g>
</g>
<!-- Node1&#45;&gt;Node2 -->
<g id="edge1_Node000001_Node000002" class="edge">
<title>Node1&#45;&gt;Node2</title>
<g id="a_edge1_Node000001_Node000002"><a xlink:title=" ">
<path fill="none" stroke="#63b8ff" d="M3081.36,-303.07C2893.45,-294.3 2251.66,-264.36 2055.15,-255.19"/>
<polygon fill="#63b8ff" stroke="#63b8ff" points="2055.19,-251.69 2045.04,-254.72 2054.86,-258.68 2055.19,-251.69"/>
</a>
</g>
</g>
<!-- Node43 -->
<g id="Node000043" class="node">
<title>Node43</title>
<g id="a_Node000043"><a xlink:href="astaroth__grid_8h.html" target="_top" xlink:title=" ">
<polygon fill="white" stroke="#666666" points="2689.5,-261 2599.5,-261 2599.5,-242 2689.5,-242 2689.5,-261"/>
<text text-anchor="middle" x="2644.5" y="-249" font-family="Helvetica,sans-Serif" font-size="10.00">astaroth_grid.h</text>
</a>
</g>
</g>
<!-- Node1&#45;&gt;Node43 -->
<g id="edge49_Node000001_Node000043" class="edge">
<title>Node1&#45;&gt;Node43</title>
<g id="a_edge49_Node000001_Node000043"><a xlink:title=" ">
<path fill="none" stroke="#63b8ff" d="M3081.17,-301.07C3001.27,-294.1 2843.87,-279.58 2699.9,-261.12"/>
<polygon fill="#63b8ff" stroke="#63b8ff" points="2699.92,-257.59 2689.55,-259.78 2699.02,-264.53 2699.92,-257.59"/>
</a>
</g>
</g>
<!-- Node44 -->
<g id="Node000044" class="node">
<title>Node44</title>
<g id="a_Node000044"><a xlink:href="astaroth__node_8h.html" target="_top" xlink:title=" ">
<polygon fill="white" stroke="#666666" points="2803,-261 2708,-261 2708,-242 2803,-242 2803,-261"/>
<text text-anchor="middle" x="2755.5" y="-249" font-family="Helvetica,sans-Serif" font-size="10.00">astaroth_node.h</text>
</a>
</g>
</g>
<!-- Node1&#45;&gt;Node44 -->
<g id="edge50_Node000001_Node000044" class="edge">
<title>Node1&#45;&gt;Node44</title>
<g id="a_edge50_Node000001_Node000044"><a xlink:title=" ">
<path fill="none" stroke="#63b8ff" d="M3081.49,-298.46C3020.03,-290.1 2914.39,-275.61 2813.18,-261.08"/>
<polygon fill="#63b8ff" stroke="#63b8ff" points="2813.48,-257.59 2803.08,-259.63 2812.48,-264.52 2813.48,-257.59"/>
</a>
</g>
</g>
<!-- Node45 -->
<g id="Node000045" class="node">
<title>Node45</title>
<g id="a_Node000045"><a xlink:href="astaroth__device_8h.html" target="_top" xlink:title=" ">
<polygon fill="white" stroke="#666666" points="2925.5,-261 2821.5,-261 2821.5,-242 2925.5,-242 2925.5,-261"/>
<text text-anchor="middle" x="2873.5" y="-249" font-family="Helvetica,sans-Serif" font-size="10.00">astaroth_device.h</text>
</a>
</g>
</g>
<!-- Node1&#45;&gt;Node45 -->
<g id="edge51_Node000001_Node000045" class="edge">
<title>Node1&#45;&gt;Node45</title>
<g id="a_edge51_Node000001_Node000045"><a xlink:title=" ">
<path fill="none" stroke="#63b8ff" d="M3091.73,-296.98C3046.56,-287.78 2974.5,-273.09 2925.65,-263.13"/>
<polygon fill="#63b8ff" stroke="#63b8ff" points="2926.1,-259.65 2915.6,-261.08 2924.7,-266.51 2926.1,-259.65"/>
</a>
</g>
</g>
<!-- Node48 -->
<g id="Node000048" class="node">
<title>Node48</title>
<g id="a_Node000048"><a xlink:href="astaroth__legacy_8h.html" target="_top" xlink:title=" ">
<polygon fill="white" stroke="#666666" points="3045.5,-261 2943.5,-261 2943.5,-242 3045.5,-242 3045.5,-261"/>
<text text-anchor="middle" x="2994.5" y="-249" font-family="Helvetica,sans-Serif" font-size="10.00">astaroth_legacy.h</text>
</a>
</g>
</g>
<!-- Node1&#45;&gt;Node48 -->
<g id="edge54_Node000001_Node000048" class="edge">
<title>Node1&#45;&gt;Node48</title>
<g id="a_edge54_Node000001_Node000048"><a xlink:title=" ">
<path fill="none" stroke="#63b8ff" d="M3111.17,-296.98C3088.3,-288.27 3052.54,-274.63 3026.64,-264.75"/>
<polygon fill="#63b8ff" stroke="#63b8ff" points="3027.83,-261.46 3017.24,-261.17 3025.34,-268 3027.83,-261.46"/>
</a>
</g>
</g>
<!-- Node49 -->
<g id="Node000049" class="node">
<title>Node49</title>
<g id="a_Node000049"><a xlink:title=" ">
<polygon fill="#e0e0e0" stroke="#999999" points="3203,-261 3064,-261 3064,-242 3203,-242 3203,-261"/>
<text text-anchor="middle" x="3133.5" y="-249" font-family="Helvetica,sans-Serif" font-size="10.00">device_set_input_decls.h</text>
</a>
</g>
</g>
<!-- Node1&#45;&gt;Node49 -->
<g id="edge55_Node000001_Node000049" class="edge">
<title>Node1&#45;&gt;Node49</title>
<g id="a_edge55_Node000001_Node000049"><a xlink:title=" ">
<path fill="none" stroke="#63b8ff" d="M3133.5,-296.75C3133.5,-289.8 3133.5,-279.85 3133.5,-271.13"/>
<polygon fill="#63b8ff" stroke="#63b8ff" points="3137,-271.09 3133.5,-261.09 3130,-271.09 3137,-271.09"/>
</a>
</g>
</g>
<!-- Node50 -->
<g id="Node000050" class="node">
<title>Node50</title>
<g id="a_Node000050"><a xlink:title=" ">
<polygon fill="#e0e0e0" stroke="#999999" points="3367.5,-261 3221.5,-261 3221.5,-242 3367.5,-242 3367.5,-261"/>
<text text-anchor="middle" x="3294.5" y="-249" font-family="Helvetica,sans-Serif" font-size="10.00">device_get_output_decls.h</text>
</a>
</g>
</g>
<!-- Node1&#45;&gt;Node50 -->
<g id="edge56_Node000001_Node000050" class="edge">
<title>Node1&#45;&gt;Node50</title>
<g id="a_edge56_Node000001_Node000050"><a xlink:title=" ">
<path fill="none" stroke="#63b8ff" d="M3159.37,-296.98C3186.28,-288.13 3228.62,-274.19 3258.73,-264.28"/>
<polygon fill="#63b8ff" stroke="#63b8ff" points="3260.03,-267.53 3268.43,-261.08 3257.84,-260.88 3260.03,-267.53"/>
</a>
</g>
</g>
<!-- Node51 -->
<g id="Node000051" class="node">
<title>Node51</title>
<g id="a_Node000051"><a xlink:title=" ">
<polygon fill="#e0e0e0" stroke="#999999" points="3525.5,-261 3385.5,-261 3385.5,-242 3525.5,-242 3525.5,-261"/>
<text text-anchor="middle" x="3455.5" y="-249" font-family="Helvetica,sans-Serif" font-size="10.00">device_get_input_decls.h</text>
</a>
</g>
</g>
<!-- Node1&#45;&gt;Node51 -->
<g id="edge57_Node000001_Node000051" class="edge">
<title>Node1&#45;&gt;Node51</title>
<g id="a_edge57_Node000001_Node000051"><a xlink:title=" ">
<path fill="none" stroke="#63b8ff" d="M3185.23,-296.98C3241.95,-287.65 3332.93,-272.67 3393.44,-262.71"/>
<polygon fill="#63b8ff" stroke="#63b8ff" points="3394.33,-266.12 3403.63,-261.04 3393.19,-259.21 3394.33,-266.12"/>
</a>
</g>
</g>
<!-- Node52 -->
<g id="Node000052" class="node">
<title>Node52</title>
<g id="a_Node000052"><a xlink:title=" ">
<polygon fill="#e0e0e0" stroke="#999999" points="3673.5,-261 3543.5,-261 3543.5,-242 3673.5,-242 3673.5,-261"/>
<text text-anchor="middle" x="3608.5" y="-249" font-family="Helvetica,sans-Serif" font-size="10.00">get_vtxbufs_declares.h</text>
</a>
</g>
</g>
<!-- Node1&#45;&gt;Node52 -->
<g id="edge58_Node000001_Node000052" class="edge">
<title>Node1&#45;&gt;Node52</title>
<g id="a_edge58_Node000001_Node000052"><a xlink:title=" ">
<path fill="none" stroke="#63b8ff" d="M3185.73,-299.77C3260.33,-291.57 3401.96,-275.95 3532.92,-261.17"/>
<polygon fill="#63b8ff" stroke="#63b8ff" points="3533.59,-264.62 3543.13,-260.02 3532.8,-257.67 3533.59,-264.62"/>
</a>
</g>
</g>
<!-- Node53 -->
<g id="Node000053" class="node">
<title>Node53</title>
<g id="a_Node000053"><a xlink:href="astaroth__runtime__compilation_8h.html" target="_top" xlink:title=" ">
<polygon fill="white" stroke="#666666" points="3865,-261 3692,-261 3692,-242 3865,-242 3865,-261"/>
<text text-anchor="middle" x="3778.5" y="-249" font-family="Helvetica,sans-Serif" font-size="10.00">astaroth_runtime_compilation.h</text>
</a>
</g>
</g>
<!-- Node1&#45;&gt;Node53 -->
<g id="edge59_Node000001_Node000053" class="edge">
<title>Node1&#45;&gt;Node53</title>
<g id="a_edge59_Node000001_Node000053"><a xlink:title=" ">
<path fill="none" stroke="#63b8ff" d="M3185.74,-301.4C3281.63,-293.83 3492.45,-277.08 3681.76,-261.06"/>
<polygon fill="#63b8ff" stroke="#63b8ff" points="3682.23,-264.53 3691.9,-260.2 3681.64,-257.55 3682.23,-264.53"/>
</a>
</g>
</g>
<!-- Node54 -->
<g id="Node000054" class="node">
<title>Node54</title>
<g id="a_Node000054"><a xlink:title=" ">
<polygon fill="#e0e0e0" stroke="#999999" points="3936,-261 3883,-261 3883,-242 3936,-242 3936,-261"/>
<text text-anchor="middle" x="3909.5" y="-249" font-family="Helvetica,sans-Serif" font-size="10.00">string.h</text>
</a>
</g>
</g>
<!-- Node1&#45;&gt;Node54 -->
<g id="edge60_Node000001_Node000054" class="edge">
<title>Node1&#45;&gt;Node54</title>
<g id="a_edge60_Node000001_Node000054"><a xlink:title=" ">
<path fill="none" stroke="#63b8ff" d="M3185.94,-305.55C3306.08,-304.98 3610.47,-299.62 3872.75,-261"/>
<polygon fill="#63b8ff" stroke="#63b8ff" points="3873.47,-264.43 3882.84,-259.49 3872.44,-257.51 3873.47,-264.43"/>
</a>
</g>
</g>
<!-- Node3 -->
<g id="Node000003" class="node">
<title>Node3</title>
<g id="a_Node000003"><a xlink:title=" ">
<polygon fill="#e0e0e0" stroke="#999999" points="2678.5,-74 2616.5,-74 2616.5,-55 2678.5,-55 2678.5,-74"/>
<text text-anchor="middle" x="2647.5" y="-62" font-family="Helvetica,sans-Serif" font-size="10.00">stdbool.h</text>
</a>
</g>
</g>
<!-- Node2&#45;&gt;Node3 -->
<g id="edge2_Node000002_Node000003" class="edge">
<title>Node2&#45;&gt;Node3</title>
<g id="a_edge2_Node000002_Node000003"><a xlink:title=" ">
<path fill="none" stroke="#63b8ff" d="M2045.09,-247.3C2205.61,-236.02 2719.78,-195.77 2766.5,-140 2792.93,-108.45 2732.73,-86.11 2688.67,-74.56"/>
<polygon fill="#63b8ff" stroke="#63b8ff" points="2689.27,-71.1 2678.72,-72.05 2687.57,-77.89 2689.27,-71.1"/>
</a>
</g>
</g>
<!-- Node4 -->
<g id="Node000004" class="node">
<title>Node4</title>
<g id="a_Node000004"><a xlink:href="acc__runtime_8h.html" target="_top" xlink:title=" ">
<polygon fill="white" stroke="#666666" points="1550.5,-200.5 1464.5,-200.5 1464.5,-181.5 1550.5,-181.5 1550.5,-200.5"/>
<text text-anchor="middle" x="1507.5" y="-188.5" font-family="Helvetica,sans-Serif" font-size="10.00">acc_runtime.h</text>
</a>
</g>
</g>
<!-- Node2&#45;&gt;Node4 -->
<g id="edge3_Node000002_Node000004" class="edge">
<title>Node2&#45;&gt;Node4</title>
<g id="a_edge3_Node000002_Node000004"><a xlink:title=" ">
<path fill="none" stroke="#63b8ff" d="M1949.62,-244.78C1857.61,-233.8 1656.72,-209.81 1560.68,-198.35"/>
<polygon fill="#63b8ff" stroke="#63b8ff" points="1560.96,-194.86 1550.62,-197.15 1560.13,-201.81 1560.96,-194.86"/>
</a>
</g>
</g>
<!-- Node24 -->
<g id="Node000024" class="node">
<title>Node24</title>
<g id="a_Node000024"><a xlink:title=" ">
<polygon fill="#e0e0e0" stroke="#999999" points="149,-134.5 10,-134.5 10,-115.5 149,-115.5 149,-134.5"/>
<text text-anchor="middle" x="79.5" y="-122.5" font-family="Helvetica,sans-Serif" font-size="10.00">user_built&#45;in_constants.h</text>
</a>
</g>
</g>
<!-- Node2&#45;&gt;Node24 -->
<g id="edge47_Node000002_Node000024" class="edge">
<title>Node2&#45;&gt;Node24</title>
<g id="a_edge47_Node000002_Node000024"><a xlink:title=" ">
<path fill="none" stroke="#63b8ff" d="M1949.77,-250.02C1834.74,-248.32 1545.11,-240.63 1455.5,-206 1435.1,-198.12 1437.1,-183.34 1416.5,-176 1284.24,-128.9 293.08,-155.1 153.5,-140 145.27,-139.11 136.6,-137.81 128.19,-136.34"/>
<polygon fill="#63b8ff" stroke="#63b8ff" points="128.58,-132.86 118.12,-134.5 127.32,-139.74 128.58,-132.86"/>
</a>
</g>
</g>
<!-- Node38 -->
<g id="Node000038" class="node">
<title>Node38</title>
<g id="a_Node000038"><a xlink:href="func__define_8h.html" target="_top" xlink:title=" ">
<polygon fill="white" stroke="#666666" points="2757.5,-134.5 2675.5,-134.5 2675.5,-115.5 2757.5,-115.5 2757.5,-134.5"/>
<text text-anchor="middle" x="2716.5" y="-122.5" font-family="Helvetica,sans-Serif" font-size="10.00">func_define.h</text>
</a>
</g>
</g>
<!-- Node2&#45;&gt;Node38 -->
<g id="edge46_Node000002_Node000038" class="edge">
<title>Node2&#45;&gt;Node38</title>
<g id="a_edge46_Node000002_Node000038"><a xlink:title=" ">
<path fill="none" stroke="#63b8ff" d="M2045.26,-243.96C2154.77,-228.67 2432.2,-188.17 2661.5,-140 2665.9,-139.07 2670.49,-138.03 2675.05,-136.95"/>
<polygon fill="#63b8ff" stroke="#63b8ff" points="2676.03,-140.31 2684.91,-134.53 2674.36,-133.51 2676.03,-140.31"/>
</a>
</g>
</g>
<!-- Node42 -->
<g id="Node000042" class="node">
<title>Node42</title>
<g id="a_Node000042"><a xlink:title=" ">
<polygon fill="#e0e0e0" stroke="#999999" points="1408,-206 1277,-206 1277,-176 1408,-176 1408,-206"/>
<text text-anchor="start" x="1285" y="-194" font-family="Helvetica,sans-Serif" font-size="10.00">user_builtin_non_scalar</text>
<text text-anchor="middle" x="1342.5" y="-183" font-family="Helvetica,sans-Serif" font-size="10.00">_constants.h</text>
</a>
</g>
</g>
<!-- Node2&#45;&gt;Node42 -->
<g id="edge48_Node000002_Node000042" class="edge">
<title>Node2&#45;&gt;Node42</title>
<g id="a_edge48_Node000002_Node000042"><a xlink:title=" ">
<path fill="none" stroke="#63b8ff" d="M1949.64,-248.35C1850.82,-243.58 1617.21,-230.51 1422.5,-206 1421.2,-205.84 1419.89,-205.67 1418.57,-205.49"/>
<polygon fill="#63b8ff" stroke="#63b8ff" points="1418.74,-201.98 1408.35,-204.04 1417.75,-208.91 1418.74,-201.98"/>
</a>
</g>
</g>
<!-- Node4&#45;&gt;Node3 -->
<g id="edge5_Node000004_Node000003" class="edge">
<title>Node4&#45;&gt;Node3</title>
<g id="a_edge5_Node000004_Node000003"><a xlink:title=" ">
<path fill="none" stroke="#63b8ff" d="M1550.69,-189.24C1748.82,-185.59 2563.16,-168.87 2608.5,-140 2628.08,-127.53 2638.38,-101.81 2643.38,-84.11"/>
<polygon fill="#63b8ff" stroke="#63b8ff" points="2646.8,-84.87 2645.84,-74.32 2640.01,-83.16 2646.8,-84.87"/>
</a>
</g>
</g>
<!-- Node5 -->
<g id="Node000005" class="node">
<title>Node5</title>
<g id="a_Node000005"><a xlink:title=" ">
<polygon fill="#e0e0e0" stroke="#999999" points="2588.5,-74 2538.5,-74 2538.5,-55 2588.5,-55 2588.5,-74"/>
<text text-anchor="middle" x="2563.5" y="-62" font-family="Helvetica,sans-Serif" font-size="10.00">stdio.h</text>
</a>
</g>
</g>
<!-- Node4&#45;&gt;Node5 -->
<g id="edge4_Node000004_Node000005" class="edge">
<title>Node4&#45;&gt;Node5</title>
<g id="a_edge4_Node000004_Node000005"><a xlink:title=" ">
<path fill="none" stroke="#63b8ff" d="M1550.67,-189.65C1747.75,-187.86 2554,-178.22 2590.5,-140 2605.87,-123.9 2591.03,-98.39 2578.02,-81.8"/>
<polygon fill="#63b8ff" stroke="#63b8ff" points="2580.65,-79.48 2571.56,-74.03 2575.26,-83.96 2580.65,-79.48"/>
</a>
</g>
</g>
<!-- Node6 -->
<g id="Node000006" class="node">
<title>Node6</title>
<g id="a_Node000006"><a xlink:href="device__headers_8h.html" target="_top" xlink:title=" ">
<polygon fill="white" stroke="#666666" points="765.5,-74 663.5,-74 663.5,-55 765.5,-55 765.5,-74"/>
<text text-anchor="middle" x="714.5" y="-62" font-family="Helvetica,sans-Serif" font-size="10.00">device_headers.h</text>
</a>
</g>
</g>
<!-- Node4&#45;&gt;Node6 -->
<g id="edge6_Node000004_Node000006" class="edge">
<title>Node4&#45;&gt;Node6</title>
<g id="a_edge6_Node000004_Node000006"><a xlink:title=" ">
<path fill="none" stroke="#63b8ff" d="M1477.85,-181.47C1469.11,-179.3 1459.48,-177.23 1450.5,-176 1388.6,-167.5 369.96,-184.88 326.5,-140 317.22,-130.42 317.63,-119.95 326.5,-110 327.85,-108.49 543.91,-84.38 652.98,-72.3"/>
<polygon fill="#63b8ff" stroke="#63b8ff" points="653.64,-75.74 663.19,-71.16 652.87,-68.79 653.64,-75.74"/>
</a>
</g>
</g>
<!-- Node9 -->
<g id="Node000009" class="node">
<title>Node9</title>
<g id="a_Node000009"><a xlink:title=" ">
<polygon fill="#e0e0e0" stroke="#999999" points="95,-74 0,-74 0,-55 95,-55 95,-74"/>
<text text-anchor="middle" x="47.5" y="-62" font-family="Helvetica,sans-Serif" font-size="10.00">builtin_enums.h</text>
</a>
</g>
</g>
<!-- Node4&#45;&gt;Node9 -->
<g id="edge9_Node000004_Node000009" class="edge">
<title>Node4&#45;&gt;Node9</title>
<g id="a_edge9_Node000004_Node000009"><a xlink:title=" ">
<path fill="none" stroke="#63b8ff" d="M1477.85,-181.46C1469.11,-179.28 1459.49,-177.22 1450.5,-176 1312.37,-157.27 327.81,-186.77 196.5,-140 175.9,-132.66 176.48,-120.87 157.5,-110 134.09,-96.59 105.85,-85.26 83.84,-77.39"/>
<polygon fill="#63b8ff" stroke="#63b8ff" points="84.81,-74.01 74.21,-74.02 82.49,-80.62 84.81,-74.01"/>
</a>
</g>
</g>
<!-- Node10 -->
<g id="Node000010" class="node">
<title>Node10</title>
<g id="a_Node000010"><a xlink:href="datatypes_8h.html" target="_top" xlink:title=" ">
<polygon fill="white" stroke="#666666" points="279.5,-134.5 205.5,-134.5 205.5,-115.5 279.5,-115.5 279.5,-134.5"/>
<text text-anchor="middle" x="242.5" y="-122.5" font-family="Helvetica,sans-Serif" font-size="10.00">datatypes.h</text>
</a>
</g>
</g>
<!-- Node4&#45;&gt;Node10 -->
<g id="edge10_Node000004_Node000010" class="edge">
<title>Node4&#45;&gt;Node10</title>
<g id="a_edge10_Node000004_Node000010"><a xlink:title=" ">
<path fill="none" stroke="#63b8ff" d="M1477.85,-181.47C1469.11,-179.3 1459.49,-177.23 1450.5,-176 940.78,-106.26 802.23,-216.63 293.5,-140 288.7,-139.28 283.71,-138.26 278.81,-137.09"/>
<polygon fill="#63b8ff" stroke="#63b8ff" points="279.54,-133.66 268.98,-134.55 277.78,-140.44 279.54,-133.66"/>
</a>
</g>
</g>
<!-- Node18 -->
<g id="Node000018" class="node">
<title>Node18</title>
<g id="a_Node000018"><a xlink:href="errchk_8h.html" target="_top" xlink:title="Brief info.">
<polygon fill="#fff0f0" stroke="red" points="2581.5,-134.5 2525.5,-134.5 2525.5,-115.5 2581.5,-115.5 2581.5,-134.5"/>
<text text-anchor="middle" x="2553.5" y="-122.5" font-family="Helvetica,sans-Serif" font-size="10.00">errchk.h</text>
</a>
</g>
</g>
<!-- Node4&#45;&gt;Node18 -->
<g id="edge21_Node000004_Node000018" class="edge">
<title>Node4&#45;&gt;Node18</title>
<g id="a_edge21_Node000004_Node000018"><a xlink:title=" ">
<path fill="none" stroke="#63b8ff" d="M1550.54,-189.65C1718.21,-188.01 2327.64,-179.39 2516.5,-140 2519.18,-139.44 2521.92,-138.72 2524.65,-137.89"/>
<polygon fill="#63b8ff" stroke="#63b8ff" points="2525.94,-141.15 2534.25,-134.58 2523.66,-134.53 2525.94,-141.15"/>
</a>
</g>
</g>
<!-- Node22 -->
<g id="Node000022" class="node">
<title>Node22</title>
<g id="a_Node000022"><a xlink:title=" ">
<polygon fill="#e0e0e0" stroke="#999999" points="423,-134.5 336,-134.5 336,-115.5 423,-115.5 423,-134.5"/>
<text text-anchor="middle" x="379.5" y="-122.5" font-family="Helvetica,sans-Serif" font-size="10.00">user_defines.h</text>
</a>
</g>
</g>
<!-- Node4&#45;&gt;Node22 -->
<g id="edge26_Node000004_Node000022" class="edge">
<title>Node4&#45;&gt;Node22</title>
<g id="a_edge26_Node000004_Node000022"><a xlink:title=" ">
<path fill="none" stroke="#63b8ff" d="M1477.85,-181.49C1469.11,-179.32 1459.48,-177.25 1450.5,-176 1002.08,-113.68 880.36,-206.22 432.5,-140 427.39,-139.25 422.07,-138.18 416.86,-136.97"/>
<polygon fill="#63b8ff" stroke="#63b8ff" points="417.59,-133.55 407.04,-134.52 415.89,-140.34 417.59,-133.55"/>
</a>
</g>
</g>
<!-- Node23 -->
<g id="Node000023" class="node">
<title>Node23</title>
<g id="a_Node000023"><a xlink:title=" ">
<polygon fill="#e0e0e0" stroke="#999999" points="527.5,-134.5 441.5,-134.5 441.5,-115.5 527.5,-115.5 527.5,-134.5"/>
<text text-anchor="middle" x="484.5" y="-122.5" font-family="Helvetica,sans-Serif" font-size="10.00">profiles_info.h</text>
</a>
</g>
</g>
<!-- Node4&#45;&gt;Node23 -->
<g id="edge27_Node000004_Node000023" class="edge">
<title>Node4&#45;&gt;Node23</title>
<g id="a_edge27_Node000004_Node000023"><a xlink:title=" ">
<path fill="none" stroke="#63b8ff" d="M1477.55,-181.44C1468.89,-179.3 1459.38,-177.25 1450.5,-176 1047.95,-119.23 938.4,-201.23 536.5,-140 531.62,-139.26 526.53,-138.22 521.54,-137.05"/>
<polygon fill="#63b8ff" stroke="#63b8ff" points="522.07,-133.57 511.51,-134.5 520.34,-140.36 522.07,-133.57"/>
</a>
</g>
</g>
<!-- Node4&#45;&gt;Node24 -->
<g id="edge28_Node000004_Node000024" class="edge">
<title>Node4&#45;&gt;Node24</title>
<g id="a_edge28_Node000004_Node000024"><a xlink:title=" ">
<path fill="none" stroke="#63b8ff" d="M1477.85,-181.45C1469.11,-179.28 1459.49,-177.22 1450.5,-176 883.44,-99.32 733.06,-195.17 163.5,-140 153.89,-139.07 143.71,-137.7 133.89,-136.18"/>
<polygon fill="#63b8ff" stroke="#63b8ff" points="134.25,-132.69 123.82,-134.55 133.13,-139.6 134.25,-132.69"/>
</a>
</g>
</g>
<!-- Node25 -->
<g id="Node000025" class="node">
<title>Node25</title>
<g id="a_Node000025"><a xlink:href="func__attributes_8h.html" target="_top" xlink:title=" ">
<polygon fill="white" stroke="#666666" points="645,-134.5 546,-134.5 546,-115.5 645,-115.5 645,-134.5"/>
<text text-anchor="middle" x="595.5" y="-122.5" font-family="Helvetica,sans-Serif" font-size="10.00">func_attributes.h</text>
</a>
</g>
</g>
<!-- Node4&#45;&gt;Node25 -->
<g id="edge29_Node000004_Node000025" class="edge">
<title>Node4&#45;&gt;Node25</title>
<g id="a_edge29_Node000004_Node000025"><a xlink:title=" ">
<path fill="none" stroke="#63b8ff" d="M1477.54,-181.48C1468.88,-179.33 1459.38,-177.28 1450.5,-176 1099.54,-125.47 1004.56,-189.83 653.5,-140 647.72,-139.18 641.67,-138.04 635.75,-136.77"/>
<polygon fill="#63b8ff" stroke="#63b8ff" points="636.52,-133.35 625.99,-134.52 634.95,-140.17 636.52,-133.35"/>
</a>
</g>
</g>
<!-- Node26 -->
<g id="Node000026" class="node">
<title>Node26</title>
<g id="a_Node000026"><a xlink:title=" ">
<polygon fill="#e0e0e0" stroke="#999999" points="788,-134.5 663,-134.5 663,-115.5 788,-115.5 788,-134.5"/>
<text text-anchor="middle" x="725.5" y="-122.5" font-family="Helvetica,sans-Serif" font-size="10.00">user_input_typedefs.h</text>
</a>
</g>
</g>
<!-- Node4&#45;&gt;Node26 -->
<g id="edge30_Node000004_Node000026" class="edge">
<title>Node4&#45;&gt;Node26</title>
<g id="a_edge30_Node000004_Node000026"><a xlink:title=" ">
<path fill="none" stroke="#63b8ff" d="M1477.24,-181.46C1468.66,-179.34 1459.27,-177.31 1450.5,-176 1162.57,-133.1 1085.34,-176.25 796.5,-140 789.05,-139.06 781.2,-137.8 773.55,-136.42"/>
<polygon fill="#63b8ff" stroke="#63b8ff" points="774.14,-132.97 763.66,-134.54 772.84,-139.84 774.14,-132.97"/>
</a>
</g>
</g>
<!-- Node27 -->
<g id="Node000027" class="node">
<title>Node27</title>
<g id="a_Node000027"><a xlink:title=" ">
<polygon fill="#e0e0e0" stroke="#999999" points="889,-134.5 806,-134.5 806,-115.5 889,-115.5 889,-134.5"/>
<text text-anchor="middle" x="847.5" y="-122.5" font-family="Helvetica,sans-Serif" font-size="10.00">output_decl.h</text>
</a>
</g>
</g>
<!-- Node4&#45;&gt;Node27 -->
<g id="edge31_Node000004_Node000027" class="edge">
<title>Node4&#45;&gt;Node27</title>
<g id="a_edge31_Node000004_Node000027"><a xlink:title=" ">
<path fill="none" stroke="#63b8ff" d="M1476.93,-181.45C1468.44,-179.35 1459.16,-177.34 1450.5,-176 1207.52,-138.53 1140.95,-180.75 898.5,-140 893.95,-139.23 889.21,-138.23 884.55,-137.11"/>
<polygon fill="#63b8ff" stroke="#63b8ff" points="885.09,-133.63 874.53,-134.52 883.34,-140.41 885.09,-133.63"/>
</a>
</g>
</g>
<!-- Node28 -->
<g id="Node000028" class="node">
<title>Node28</title>
<g id="a_Node000028"><a xlink:title=" ">
<polygon fill="#e0e0e0" stroke="#999999" points="1023.5,-134.5 907.5,-134.5 907.5,-115.5 1023.5,-115.5 1023.5,-134.5"/>
<text text-anchor="middle" x="965.5" y="-122.5" font-family="Helvetica,sans-Serif" font-size="10.00">comp_loaded_decl.h</text>
</a>
</g>
</g>
<!-- Node4&#45;&gt;Node28 -->
<g id="edge32_Node000004_Node000028" class="edge">
<title>Node4&#45;&gt;Node28</title>
<g id="a_edge32_Node000004_Node000028"><a xlink:title=" ">
<path fill="none" stroke="#63b8ff" d="M1476.62,-181.49C1468.2,-179.43 1459.05,-177.41 1450.5,-176 1266.52,-145.67 1216.98,-167.12 1032.5,-140 1025.86,-139.02 1018.9,-137.8 1012.07,-136.48"/>
<polygon fill="#63b8ff" stroke="#63b8ff" points="1012.71,-133.04 1002.22,-134.5 1011.33,-139.9 1012.71,-133.04"/>
</a>
</g>
</g>
<!-- Node29 -->
<g id="Node000029" class="node">
<title>Node29</title>
<g id="a_Node000029"><a xlink:title=" ">
<polygon fill="#e0e0e0" stroke="#999999" points="1119.5,-134.5 1041.5,-134.5 1041.5,-115.5 1119.5,-115.5 1119.5,-134.5"/>
<text text-anchor="middle" x="1080.5" y="-122.5" font-family="Helvetica,sans-Serif" font-size="10.00">comp_decl.h</text>
</a>
</g>
</g>
<!-- Node4&#45;&gt;Node29 -->
<g id="edge33_Node000004_Node000029" class="edge">
<title>Node4&#45;&gt;Node29</title>
<g id="a_edge33_Node000004_Node000029"><a xlink:title=" ">
<path fill="none" stroke="#63b8ff" d="M1476,-181.49C1467.75,-179.47 1458.83,-177.48 1450.5,-176 1308.72,-150.77 1269.7,-168.27 1128.5,-140 1124.59,-139.22 1120.54,-138.26 1116.52,-137.23"/>
<polygon fill="#63b8ff" stroke="#63b8ff" points="1117.28,-133.81 1106.7,-134.53 1115.42,-140.56 1117.28,-133.81"/>
</a>
</g>
</g>
<!-- Node30 -->
<g id="Node000030" class="node">
<title>Node30</title>
<g id="a_Node000030"><a xlink:title=" ">
<polygon fill="#e0e0e0" stroke="#999999" points="1245.5,-134.5 1137.5,-134.5 1137.5,-115.5 1245.5,-115.5 1245.5,-134.5"/>
<text text-anchor="middle" x="1191.5" y="-122.5" font-family="Helvetica,sans-Serif" font-size="10.00">info_loaded_decl.h</text>
</a>
</g>
</g>
<!-- Node4&#45;&gt;Node30 -->
<g id="edge34_Node000004_Node000030" class="edge">
<title>Node4&#45;&gt;Node30</title>
<g id="a_edge34_Node000004_Node000030"><a xlink:title=" ">
<path fill="none" stroke="#63b8ff" d="M1474.12,-181.45C1466.39,-179.57 1458.17,-177.65 1450.5,-176 1363.9,-157.43 1341.3,-157.61 1254.5,-140 1249.41,-138.97 1244.11,-137.85 1238.82,-136.71"/>
<polygon fill="#63b8ff" stroke="#63b8ff" points="1239.28,-133.23 1228.76,-134.52 1237.79,-140.07 1239.28,-133.23"/>
</a>
</g>
</g>
<!-- Node31 -->
<g id="Node000031" class="node">
<title>Node31</title>
<g id="a_Node000031"><a xlink:title=" ">
<polygon fill="#e0e0e0" stroke="#999999" points="1403.5,-134.5 1263.5,-134.5 1263.5,-115.5 1403.5,-115.5 1403.5,-134.5"/>
<text text-anchor="middle" x="1333.5" y="-122.5" font-family="Helvetica,sans-Serif" font-size="10.00">device_mesh_info_decl.h</text>
</a>
</g>
</g>
<!-- Node4&#45;&gt;Node31 -->
<g id="edge35_Node000004_Node000031" class="edge">
<title>Node4&#45;&gt;Node31</title>
<g id="a_edge35_Node000004_Node000031"><a xlink:title=" ">
<path fill="none" stroke="#63b8ff" d="M1484.03,-181.37C1453.72,-170.22 1400.79,-150.75 1366.46,-138.12"/>
<polygon fill="#63b8ff" stroke="#63b8ff" points="1367.47,-134.76 1356.87,-134.6 1365.05,-141.33 1367.47,-134.76"/>
</a>
</g>
</g>
<!-- Node32 -->
<g id="Node000032" class="node">
<title>Node32</title>
<g id="a_Node000032"><a xlink:title=" ">
<polygon fill="#e0e0e0" stroke="#999999" points="1499,-134.5 1422,-134.5 1422,-115.5 1499,-115.5 1499,-134.5"/>
<text text-anchor="middle" x="1460.5" y="-122.5" font-family="Helvetica,sans-Serif" font-size="10.00">array_decl.h</text>
</a>
</g>
</g>
<!-- Node4&#45;&gt;Node32 -->
<g id="edge36_Node000004_Node000032" class="edge">
<title>Node4&#45;&gt;Node32</title>
<g id="a_edge36_Node000004_Node000032"><a xlink:title=" ">
<path fill="none" stroke="#63b8ff" d="M1501.16,-181.37C1493.98,-171.59 1482.11,-155.42 1473.04,-143.08"/>
<polygon fill="#63b8ff" stroke="#63b8ff" points="1475.78,-140.89 1467.04,-134.91 1470.14,-145.04 1475.78,-140.89"/>
</a>
</g>
</g>
<!-- Node33 -->
<g id="Node000033" class="node">
<title>Node33</title>
<g id="a_Node000033"><a xlink:title=" ">
<polygon fill="#e0e0e0" stroke="#999999" points="1593.5,-134.5 1517.5,-134.5 1517.5,-115.5 1593.5,-115.5 1593.5,-134.5"/>
<text text-anchor="middle" x="1555.5" y="-122.5" font-family="Helvetica,sans-Serif" font-size="10.00">input_decl.h</text>
</a>
</g>
</g>
<!-- Node4&#45;&gt;Node33 -->
<g id="edge37_Node000004_Node000033" class="edge">
<title>Node4&#45;&gt;Node33</title>
<g id="a_edge37_Node000004_Node000033"><a xlink:title=" ">
<path fill="none" stroke="#63b8ff" d="M1513.97,-181.37C1521.3,-171.59 1533.43,-155.42 1542.69,-143.08"/>
<polygon fill="#63b8ff" stroke="#63b8ff" points="1545.62,-145.01 1548.82,-134.91 1540.02,-140.81 1545.62,-145.01"/>
</a>
</g>
</g>
<!-- Node34 -->
<g id="Node000034" class="node">
<title>Node34</title>
<g id="a_Node000034"><a xlink:href="ac__helpers_8h.html" target="_top" xlink:title=" ">
<polygon fill="white" stroke="#666666" points="1689.5,-134.5 1611.5,-134.5 1611.5,-115.5 1689.5,-115.5 1689.5,-134.5"/>
<text text-anchor="middle" x="1650.5" y="-122.5" font-family="Helvetica,sans-Serif" font-size="10.00">ac_helpers.h</text>
</a>
</g>
</g>
<!-- Node4&#45;&gt;Node34 -->
<g id="edge38_Node000004_Node000034" class="edge">
<title>Node4&#45;&gt;Node34</title>
<g id="a_edge38_Node000004_Node000034"><a xlink:title=" ">
<path fill="none" stroke="#63b8ff" d="M1526.79,-181.37C1551.2,-170.44 1593.47,-151.52 1621.71,-138.88"/>
<polygon fill="#63b8ff" stroke="#63b8ff" points="1623.37,-141.98 1631.06,-134.7 1620.51,-135.59 1623.37,-141.98"/>
</a>
</g>
</g>
<!-- Node35 -->
<g id="Node000035" class="node">
<title>Node35</title>
<g id="a_Node000035"><a xlink:title=" ">
<polygon fill="#e0e0e0" stroke="#999999" points="1825.5,-140 1707.5,-140 1707.5,-110 1825.5,-110 1825.5,-140"/>
<text text-anchor="start" x="1715.5" y="-128" font-family="Helvetica,sans-Serif" font-size="10.00">scalar_reduce_buffer</text>
<text text-anchor="middle" x="1766.5" y="-117" font-family="Helvetica,sans-Serif" font-size="10.00">_defs.h</text>
</a>
</g>
</g>
<!-- Node4&#45;&gt;Node35 -->
<g id="edge39_Node000004_Node000035" class="edge">
<title>Node4&#45;&gt;Node35</title>
<g id="a_edge39_Node000004_Node000035"><a xlink:title=" ">
<path fill="none" stroke="#63b8ff" d="M1542.16,-181.44C1582.35,-171.5 1649.52,-154.91 1699.9,-142.46"/>
<polygon fill="#63b8ff" stroke="#63b8ff" points="1700.87,-145.82 1709.74,-140.02 1699.2,-139.03 1700.87,-145.82"/>
</a>
</g>
</g>
<!-- Node36 -->
<g id="Node000036" class="node">
<title>Node36</title>
<g id="a_Node000036"><a xlink:title=" ">
<polygon fill="#e0e0e0" stroke="#999999" points="1967,-140 1844,-140 1844,-110 1967,-110 1967,-140"/>
<text text-anchor="start" x="1852" y="-128" font-family="Helvetica,sans-Serif" font-size="10.00">scalar_reduce_buffers</text>
<text text-anchor="middle" x="1905.5" y="-117" font-family="Helvetica,sans-Serif" font-size="10.00">_in_vba.h</text>
</a>
</g>
</g>
<!-- Node4&#45;&gt;Node36 -->
<g id="edge40_Node000004_Node000036" class="edge">
<title>Node4&#45;&gt;Node36</title>
<g id="a_edge40_Node000004_Node000036"><a xlink:title=" ">
<path fill="none" stroke="#63b8ff" d="M1550.71,-184C1611.48,-175.42 1725.9,-158.79 1833.87,-140.06"/>
<polygon fill="#63b8ff" stroke="#63b8ff" points="1834.71,-143.47 1843.96,-138.3 1833.5,-136.57 1834.71,-143.47"/>
</a>
</g>
</g>
<!-- Node37 -->
<g id="Node000037" class="node">
<title>Node37</title>
<g id="a_Node000037"><a xlink:href="astaroth__analysis_8h.html" target="_top" xlink:title=" ">
<polygon fill="white" stroke="#666666" points="2097.5,-134.5 1985.5,-134.5 1985.5,-115.5 2097.5,-115.5 2097.5,-134.5"/>
<text text-anchor="middle" x="2041.5" y="-122.5" font-family="Helvetica,sans-Serif" font-size="10.00">astaroth_analysis.h</text>
</a>
</g>
</g>
<!-- Node4&#45;&gt;Node37 -->
<g id="edge41_Node000004_Node000037" class="edge">
<title>Node4&#45;&gt;Node37</title>
<g id="a_edge41_Node000004_Node000037"><a xlink:title=" ">
<path fill="none" stroke="#63b8ff" d="M1550.6,-186.88C1633.33,-180.57 1819.95,-164.74 1975.5,-140 1981.72,-139.01 1988.25,-137.82 1994.67,-136.55"/>
<polygon fill="#63b8ff" stroke="#63b8ff" points="1995.53,-139.95 2004.62,-134.52 1994.13,-133.09 1995.53,-139.95"/>
</a>
</g>
</g>
<!-- Node4&#45;&gt;Node38 -->
<g id="edge42_Node000004_Node000038" class="edge">
<title>Node4&#45;&gt;Node38</title>
<g id="a_edge42_Node000004_Node000038"><a xlink:title=" ">
<path fill="none" stroke="#63b8ff" d="M1550.58,-189.32C1732.79,-186.27 2440.91,-172.5 2661.5,-140 2666.73,-139.23 2672.18,-138.17 2677.53,-136.97"/>
<polygon fill="#63b8ff" stroke="#63b8ff" points="2678.71,-140.29 2687.61,-134.54 2677.07,-133.48 2678.71,-140.29"/>
</a>
</g>
</g>
<!-- Node39 -->
<g id="Node000039" class="node">
<title>Node39</title>
<g id="a_Node000039"><a xlink:href="common__kernels_8h.html" target="_top" xlink:title=" ">
<polygon fill="white" stroke="#666666" points="2225,-134.5 2116,-134.5 2116,-115.5 2225,-115.5 2225,-134.5"/>
<text text-anchor="middle" x="2170.5" y="-122.5" font-family="Helvetica,sans-Serif" font-size="10.00">common_kernels.h</text>
</a>
</g>
</g>
<!-- Node4&#45;&gt;Node39 -->
<g id="edge43_Node000004_Node000039" class="edge">
<title>Node4&#45;&gt;Node39</title>
<g id="a_edge43_Node000004_Node000039"><a xlink:title=" ">
<path fill="none" stroke="#63b8ff" d="M1550.58,-188.36C1649.36,-184.17 1899.6,-171.13 2106.5,-140 2112.7,-139.07 2119.2,-137.89 2125.58,-136.61"/>
<polygon fill="#63b8ff" stroke="#63b8ff" points="2126.37,-140.02 2135.44,-134.54 2124.94,-133.17 2126.37,-140.02"/>
</a>
</g>
</g>
<!-- Node40 -->
<g id="Node000040" class="node">
<title>Node40</title>
<g id="a_Node000040"><a xlink:title=" ">
<polygon fill="#e0e0e0" stroke="#999999" points="2355.5,-134.5 2243.5,-134.5 2243.5,-115.5 2355.5,-115.5 2355.5,-134.5"/>
<text text-anchor="middle" x="2299.5" y="-122.5" font-family="Helvetica,sans-Serif" font-size="10.00">user_declarations.h</text>
</a>
</g>
</g>
<!-- Node4&#45;&gt;Node40 -->
<g id="edge44_Node000004_Node000040" class="edge">
<title>Node4&#45;&gt;Node40</title>
<g id="a_edge44_Node000004_Node000040"><a xlink:title=" ">
<path fill="none" stroke="#63b8ff" d="M1550.68,-189.14C1663.47,-186.43 1976.06,-175.99 2233.5,-140 2240.12,-139.07 2247.08,-137.86 2253.88,-136.54"/>
<polygon fill="#63b8ff" stroke="#63b8ff" points="2254.59,-139.97 2263.7,-134.55 2253.2,-133.11 2254.59,-139.97"/>
</a>
</g>
</g>
<!-- Node41 -->
<g id="Node000041" class="node">
<title>Node41</title>
<g id="a_Node000041"><a xlink:title=" ">
<polygon fill="#e0e0e0" stroke="#999999" points="2507.5,-140 2373.5,-140 2373.5,-110 2507.5,-110 2507.5,-140"/>
<text text-anchor="start" x="2381.5" y="-128" font-family="Helvetica,sans-Serif" font-size="10.00">load_and_store_uniform</text>
<text text-anchor="middle" x="2440.5" y="-117" font-family="Helvetica,sans-Serif" font-size="10.00">_header.h</text>
</a>
</g>
</g>
<!-- Node4&#45;&gt;Node41 -->
<g id="edge45_Node000004_Node000041" class="edge">
<title>Node4&#45;&gt;Node41</title>
<g id="a_edge45_Node000004_Node000041"><a xlink:title=" ">
<path fill="none" stroke="#63b8ff" d="M1550.92,-189.36C1675.69,-187.14 2046.08,-177.7 2363.12,-140.06"/>
<polygon fill="#63b8ff" stroke="#63b8ff" points="2363.92,-143.49 2373.43,-138.82 2363.09,-136.54 2363.92,-143.49"/>
</a>
</g>
</g>
<!-- Node7 -->
<g id="Node000007" class="node">
<title>Node7</title>
<g id="a_Node000007"><a xlink:title=" ">
<polygon fill="#e0e0e0" stroke="#999999" points="692,-19 579,-19 579,0 692,0 692,-19"/>
<text text-anchor="middle" x="635.5" y="-7" font-family="Helvetica,sans-Serif" font-size="10.00">cuda_runtime_api.h</text>
</a>
</g>
</g>
<!-- Node6&#45;&gt;Node7 -->
<g id="edge7_Node000006_Node000007" class="edge">
<title>Node6&#45;&gt;Node7</title>
<g id="a_edge7_Node000006_Node000007"><a xlink:title=" ">
<path fill="none" stroke="#63b8ff" d="M701.81,-54.98C689.67,-46.84 671.14,-34.41 656.75,-24.76"/>
<polygon fill="#63b8ff" stroke="#63b8ff" points="658.68,-21.84 648.42,-19.17 654.78,-27.65 658.68,-21.84"/>
</a>
</g>
</g>
<!-- Node8 -->
<g id="Node000008" class="node">
<title>Node8</title>
<g id="a_Node000008"><a xlink:title=" ">
<polygon fill="#e0e0e0" stroke="#999999" points="786.5,-19 710.5,-19 710.5,0 786.5,0 786.5,-19"/>
<text text-anchor="middle" x="748.5" y="-7" font-family="Helvetica,sans-Serif" font-size="10.00">cuda_fp16.h</text>
</a>
</g>
</g>
<!-- Node6&#45;&gt;Node8 -->
<g id="edge8_Node000006_Node000008" class="edge">
<title>Node6&#45;&gt;Node8</title>
<g id="a_edge8_Node000006_Node000008"><a xlink:title=" ">
<path fill="none" stroke="#63b8ff" d="M720.11,-54.75C724.82,-47.42 731.67,-36.73 737.47,-27.7"/>
<polygon fill="#63b8ff" stroke="#63b8ff" points="740.54,-29.4 742.99,-19.09 734.64,-25.62 740.54,-29.4"/>
</a>
</g>
</g>
<!-- Node10&#45;&gt;Node6 -->
<g id="edge13_Node000010_Node000006" class="edge">
<title>Node10&#45;&gt;Node6</title>
<g id="a_edge13_Node000010_Node000006"><a xlink:title=" ">
<path fill="none" stroke="#63b8ff" d="M270.36,-115.45C277.82,-113.41 285.92,-111.41 293.5,-110 449.83,-80.85 491.53,-92.31 649.5,-74 650.77,-73.85 652.06,-73.7 653.35,-73.55"/>
<polygon fill="#63b8ff" stroke="#63b8ff" points="653.92,-77 663.42,-72.32 653.07,-70.06 653.92,-77"/>
</a>
</g>
</g>
<!-- Node10&#45;&gt;Node7 -->
<g id="edge15_Node000010_Node000007" class="edge">
<title>Node10&#45;&gt;Node7</title>
<g id="a_edge15_Node000010_Node000007"><a xlink:title=" ">
<path fill="none" stroke="#63b8ff" d="M270.64,-115.43C278.02,-113.41 286.02,-111.44 293.5,-110 364.21,-96.43 559.9,-119.75 615.5,-74 628.6,-63.22 633.25,-43.93 634.84,-29.43"/>
<polygon fill="#63b8ff" stroke="#63b8ff" points="638.36,-29.3 635.56,-19.08 631.37,-28.82 638.36,-29.3"/>
</a>
</g>
</g>
<!-- Node10&#45;&gt;Node9 -->
<g id="edge17_Node000010_Node000009" class="edge">
<title>Node10&#45;&gt;Node9</title>
<g id="a_edge17_Node000010_Node000009"><a xlink:title=" ">
<path fill="none" stroke="#63b8ff" d="M214.15,-115.49C180.21,-105.31 123.24,-88.22 85.51,-76.9"/>
<polygon fill="#63b8ff" stroke="#63b8ff" points="86.47,-73.54 75.89,-74.02 84.46,-80.24 86.47,-73.54"/>
</a>
</g>
</g>
<!-- Node11 -->
<g id="Node000011" class="node">
<title>Node11</title>
<g id="a_Node000011"><a xlink:title=" ">
<polygon fill="#e0e0e0" stroke="#999999" points="199,-74 152,-74 152,-55 199,-55 199,-74"/>
<text text-anchor="middle" x="175.5" y="-62" font-family="Helvetica,sans-Serif" font-size="10.00">float.h</text>
</a>
</g>
</g>
<!-- Node10&#45;&gt;Node11 -->
<g id="edge11_Node000010_Node000011" class="edge">
<title>Node10&#45;&gt;Node11</title>
<g id="a_edge11_Node000010_Node000011"><a xlink:title=" ">
<path fill="none" stroke="#63b8ff" d="M232.61,-115.37C222.22,-106.3 205.66,-91.84 193.05,-80.82"/>
<polygon fill="#63b8ff" stroke="#63b8ff" points="195.26,-78.11 185.43,-74.17 190.66,-83.38 195.26,-78.11"/>
</a>
</g>
</g>
<!-- Node12 -->
<g id="Node000012" class="node">
<title>Node12</title>
<g id="a_Node000012"><a xlink:title=" ">
<polygon fill="#e0e0e0" stroke="#999999" points="268,-74 217,-74 217,-55 268,-55 268,-74"/>
<text text-anchor="middle" x="242.5" y="-62" font-family="Helvetica,sans-Serif" font-size="10.00">math.h</text>
</a>
</g>
</g>
<!-- Node10&#45;&gt;Node12 -->
<g id="edge12_Node000010_Node000012" class="edge">
<title>Node10&#45;&gt;Node12</title>
<g id="a_edge12_Node000010_Node000012"><a xlink:title=" ">
<path fill="none" stroke="#63b8ff" d="M242.5,-115.37C242.5,-107.25 242.5,-94.81 242.5,-84.39"/>
<polygon fill="#63b8ff" stroke="#63b8ff" points="246,-84.17 242.5,-74.17 239,-84.17 246,-84.17"/>
</a>
</g>
</g>
<!-- Node13 -->
<g id="Node000013" class="node">
<title>Node13</title>
<g id="a_Node000013"><a xlink:title=" ">
<polygon fill="#e0e0e0" stroke="#999999" points="375,-74 286,-74 286,-55 375,-55 375,-74"/>
<text text-anchor="middle" x="330.5" y="-62" font-family="Helvetica,sans-Serif" font-size="10.00">vector_types.h</text>
</a>
</g>
</g>
<!-- Node10&#45;&gt;Node13 -->
<g id="edge14_Node000010_Node000013" class="edge">
<title>Node10&#45;&gt;Node13</title>
<g id="a_edge14_Node000010_Node000013"><a xlink:title=" ">
<path fill="none" stroke="#63b8ff" d="M255.48,-115.37C269.52,-106.04 292.13,-91.01 308.86,-79.88"/>
<polygon fill="#63b8ff" stroke="#63b8ff" points="311.07,-82.62 317.46,-74.17 307.2,-76.79 311.07,-82.62"/>
</a>
</g>
</g>
<!-- Node14 -->
<g id="Node000014" class="node">
<title>Node14</title>
<g id="a_Node000014"><a xlink:href="acreal_8h.html" target="_top" xlink:title=" ">
<polygon fill="white" stroke="#666666" points="356.5,-19 300.5,-19 300.5,0 356.5,0 356.5,-19"/>
<text text-anchor="middle" x="328.5" y="-7" font-family="Helvetica,sans-Serif" font-size="10.00">acreal.h</text>
</a>
</g>
</g>
<!-- Node10&#45;&gt;Node14 -->
<g id="edge16_Node000010_Node000014" class="edge">
<title>Node10&#45;&gt;Node14</title>
<g id="a_edge16_Node000010_Node000014"><a xlink:title=" ">
<path fill="none" stroke="#63b8ff" d="M209.03,-115.5C171.98,-104.47 120.22,-83.23 142.5,-55 160.51,-32.17 240.94,-19.75 289.95,-14.18"/>
<polygon fill="#63b8ff" stroke="#63b8ff" points="290.63,-17.63 300.19,-13.06 289.87,-10.67 290.63,-17.63"/>
</a>
</g>
</g>
<!-- Node15 -->
<g id="Node000015" class="node">
<title>Node15</title>
<g id="a_Node000015"><a xlink:title=" ">
<polygon fill="#e0e0e0" stroke="#999999" points="488,-74 393,-74 393,-55 488,-55 488,-74"/>
<text text-anchor="middle" x="440.5" y="-62" font-family="Helvetica,sans-Serif" font-size="10.00">user_typedefs.h</text>
</a>
</g>
</g>
<!-- Node10&#45;&gt;Node15 -->
<g id="edge18_Node000010_Node000015" class="edge">
<title>Node10&#45;&gt;Node15</title>
<g id="a_edge18_Node000010_Node000015"><a xlink:title=" ">
<path fill="none" stroke="#63b8ff" d="M271.29,-115.49C305.75,-105.31 363.59,-88.22 401.9,-76.9"/>
<polygon fill="#63b8ff" stroke="#63b8ff" points="403.08,-80.21 411.67,-74.02 401.09,-73.49 403.08,-80.21"/>
</a>
</g>
</g>
<!-- Node16 -->
<g id="Node000016" class="node">
<title>Node16</title>
<g id="a_Node000016"><a xlink:href="host__datatypes_8h.html" target="_top" xlink:title=" ">
<polygon fill="#fff0f0" stroke="red" points="607,-74 506,-74 506,-55 607,-55 607,-74"/>
<text text-anchor="middle" x="556.5" y="-62" font-family="Helvetica,sans-Serif" font-size="10.00">host_datatypes.h</text>
</a>
</g>
</g>
<!-- Node10&#45;&gt;Node16 -->
<g id="edge19_Node000010_Node000016" class="edge">
<title>Node10&#45;&gt;Node16</title>
<g id="a_edge19_Node000010_Node000016"><a xlink:title=" ">
<path fill="none" stroke="#63b8ff" d="M271.5,-115.5C278.66,-113.55 286.33,-111.59 293.5,-110 331,-101.7 430.32,-85.47 495.61,-75.08"/>
<polygon fill="#63b8ff" stroke="#63b8ff" points="496.45,-78.49 505.78,-73.46 495.35,-71.57 496.45,-78.49"/>
</a>
</g>
</g>
<!-- Node16&#45;&gt;Node14 -->
<g id="edge20_Node000016_Node000014" class="edge">
<title>Node16&#45;&gt;Node14</title>
<g id="a_edge20_Node000016_Node000014"><a xlink:title=" ">
<path fill="none" stroke="#63b8ff" d="M519.87,-54.98C477.89,-45.23 409.4,-29.31 366.75,-19.39"/>
<polygon fill="#63b8ff" stroke="#63b8ff" points="367.29,-15.92 356.76,-17.07 365.71,-22.74 367.29,-15.92"/>
</a>
</g>
</g>
<!-- Node18&#45;&gt;Node3 -->
<g id="edge23_Node000018_Node000003" class="edge">
<title>Node18&#45;&gt;Node3</title>
<g id="a_edge23_Node000018_Node000003"><a xlink:title=" ">
<path fill="none" stroke="#63b8ff" d="M2567.37,-115.37C2582.5,-105.95 2606.96,-90.73 2624.88,-79.58"/>
<polygon fill="#63b8ff" stroke="#63b8ff" points="2626.93,-82.42 2633.57,-74.17 2623.23,-76.48 2626.93,-82.42"/>
</a>
</g>
</g>
<!-- Node18&#45;&gt;Node5 -->
<g id="edge24_Node000018_Node000005" class="edge">
<title>Node18&#45;&gt;Node5</title>
<g id="a_edge24_Node000018_Node000005"><a xlink:title=" ">
<path fill="none" stroke="#63b8ff" d="M2554.98,-115.37C2556.38,-107.16 2558.54,-94.54 2560.33,-84.05"/>
<polygon fill="#63b8ff" stroke="#63b8ff" points="2563.78,-84.61 2562.02,-74.17 2556.88,-83.43 2563.78,-84.61"/>
</a>
</g>
</g>
<!-- Node18&#45;&gt;Node6 -->
<g id="edge25_Node000018_Node000006" class="edge">
<title>Node18&#45;&gt;Node6</title>
<g id="a_edge25_Node000018_Node000006"><a xlink:title=" ">
<path fill="none" stroke="#63b8ff" d="M2534.66,-115.47C2528.94,-113.27 2522.57,-111.19 2516.5,-110 2343.02,-76.06 1072.04,-67.37 776,-65.79"/>
<polygon fill="#63b8ff" stroke="#63b8ff" points="775.91,-62.29 765.89,-65.74 775.87,-69.29 775.91,-62.29"/>
</a>
</g>
</g>
<!-- Node18&#45;&gt;Node16 -->
<g id="edge22_Node000018_Node000016" class="edge">
<title>Node18&#45;&gt;Node16</title>
<g id="a_edge22_Node000018_Node000016"><a xlink:title=" ">
<path fill="none" stroke="#63b8ff" d="M2534.66,-115.45C2528.94,-113.25 2522.57,-111.17 2516.5,-110 2313.32,-70.81 861.14,-84.95 654.5,-74 642.44,-73.36 629.57,-72.43 617.25,-71.41"/>
<polygon fill="#63b8ff" stroke="#63b8ff" points="617.33,-67.9 607.07,-70.54 616.73,-74.88 617.33,-67.9"/>
</a>
</g>
</g>
<!-- Node46 -->
<g id="Node000046" class="node">
<title>Node46</title>
<g id="a_Node000046"><a xlink:title=" ">
<polygon fill="#e0e0e0" stroke="#999999" points="2933,-206 2814,-206 2814,-176 2933,-176 2933,-206"/>
<text text-anchor="start" x="2822" y="-194" font-family="Helvetica,sans-Serif" font-size="10.00">device_load_uniform</text>
<text text-anchor="middle" x="2873.5" y="-183" font-family="Helvetica,sans-Serif" font-size="10.00">_decl.h</text>
</a>
</g>
</g>
<!-- Node45&#45;&gt;Node46 -->
<g id="edge52_Node000045_Node000046" class="edge">
<title>Node45&#45;&gt;Node46</title>
<g id="a_edge52_Node000045_Node000046"><a xlink:title=" ">
<path fill="none" stroke="#63b8ff" d="M2873.5,-241.87C2873.5,-235.11 2873.5,-225.35 2873.5,-216.26"/>
<polygon fill="#63b8ff" stroke="#63b8ff" points="2877,-216.11 2873.5,-206.11 2870,-216.11 2877,-216.11"/>
</a>
</g>
</g>
<!-- Node47 -->
<g id="Node000047" class="node">
<title>Node47</title>
<g id="a_Node000047"><a xlink:title=" ">
<polygon fill="#e0e0e0" stroke="#999999" points="3073.5,-206 2951.5,-206 2951.5,-176 3073.5,-176 3073.5,-206"/>
<text text-anchor="start" x="2959.5" y="-194" font-family="Helvetica,sans-Serif" font-size="10.00">device_store_uniform</text>
<text text-anchor="middle" x="3012.5" y="-183" font-family="Helvetica,sans-Serif" font-size="10.00">_decl.h</text>
</a>
</g>
</g>
<!-- Node45&#45;&gt;Node47 -->
<g id="edge53_Node000045_Node000047" class="edge">
<title>Node45&#45;&gt;Node47</title>
<g id="a_edge53_Node000045_Node000047"><a xlink:title=" ">
<path fill="none" stroke="#63b8ff" d="M2893.71,-241.99C2913.54,-233.65 2944.4,-220.66 2969.69,-210.02"/>
<polygon fill="#63b8ff" stroke="#63b8ff" points="2971.22,-213.17 2979.08,-206.06 2968.51,-206.72 2971.22,-213.17"/>
</a>
</g>
</g>
</g>
</svg>
