<?xml version="1.0" encoding="UTF-8" standalone="no"?>
<!DOCTYPE svg PUBLIC "-//W3C//DTD SVG 1.1//EN"
 "http://www.w3.org/Graphics/SVG/1.1/DTD/svg11.dtd">
<!-- Generated by graphviz version 2.43.0 (0)
 -->
<!-- Title: src/core/astaroth.cc Pages: 1 -->
<svg width="2544pt" height="368pt"
 viewBox="0.00 0.00 2544.00 368.00" xmlns="http://www.w3.org/2000/svg" xmlns:xlink="http://www.w3.org/1999/xlink">
<g id="graph0" class="graph" transform="scale(1 1) rotate(0) translate(4 364)">
<title>src/core/astaroth.cc</title>
<!-- Node1 -->
<g id="Node000001" class="node">
<title>Node1</title>
<g id="a_Node000001"><a xlink:title=" ">
<polygon fill="#999999" stroke="#666666" points="1661.5,-360 1549.5,-360 1549.5,-341 1661.5,-341 1661.5,-360"/>
<text text-anchor="middle" x="1605.5" y="-348" font-family="Helvetica,sans-Serif" font-size="10.00">src/core/astaroth.cc</text>
</a>
</g>
</g>
<!-- Node2 -->
<g id="Node000002" class="node">
<title>Node2</title>
<g id="a_Node000002"><a xlink:href="astaroth_8h.html" target="_top" xlink:title=" ">
<polygon fill="white" stroke="#666666" points="1548.5,-305 1482.5,-305 1482.5,-286 1548.5,-286 1548.5,-305"/>
<text text-anchor="middle" x="1515.5" y="-293" font-family="Helvetica,sans-Serif" font-size="10.00">astaroth.h</text>
</a>
</g>
</g>
<!-- Node1&#45;&gt;Node2 -->
<g id="edge1_Node000001_Node000002" class="edge">
<title>Node1&#45;&gt;Node2</title>
<g id="a_edge1_Node000001_Node000002"><a xlink:title=" ">
<path fill="none" stroke="#63b8ff" d="M1591.04,-340.98C1577.08,-332.77 1555.71,-320.18 1539.25,-310.49"/>
<polygon fill="#63b8ff" stroke="#63b8ff" points="1540.62,-307.23 1530.22,-305.17 1537.06,-313.26 1540.62,-307.23"/>
</a>
</g>
</g>
<!-- Node54 -->
<g id="Node000054" class="node">
<title>Node54</title>
<g id="a_Node000054"><a xlink:title=" ">
<polygon fill="#e0e0e0" stroke="#999999" points="2239,-250 2186,-250 2186,-231 2239,-231 2239,-250"/>
<text text-anchor="middle" x="2212.5" y="-238" font-family="Helvetica,sans-Serif" font-size="10.00">string.h</text>
</a>
</g>
</g>
<!-- Node1&#45;&gt;Node54 -->
<g id="edge53_Node000001_Node000054" class="edge">
<title>Node1&#45;&gt;Node54</title>
<g id="a_edge53_Node000001_Node000054"><a xlink:title=" ">
<path fill="none" stroke="#63b8ff" d="M1600.23,-340.81C1592.75,-327.22 1581.44,-300.96 1595.5,-286 1638.11,-240.67 2077.13,-258 2175.79,-249.46"/>
<polygon fill="#63b8ff" stroke="#63b8ff" points="2176.32,-252.93 2185.86,-248.32 2175.53,-245.97 2176.32,-252.93"/>
</a>
</g>
</g>
<!-- Node55 -->
<g id="Node000055" class="node">
<title>Node55</title>
<g id="a_Node000055"><a xlink:title=" ">
<polygon fill="#e0e0e0" stroke="#999999" points="1666,-305 1605,-305 1605,-286 1666,-286 1666,-305"/>
<text text-anchor="middle" x="1635.5" y="-293" font-family="Helvetica,sans-Serif" font-size="10.00">kernels.h</text>
</a>
</g>
</g>
<!-- Node1&#45;&gt;Node55 -->
<g id="edge50_Node000001_Node000055" class="edge">
<title>Node1&#45;&gt;Node55</title>
<g id="a_edge50_Node000001_Node000055"><a xlink:title=" ">
<path fill="none" stroke="#63b8ff" d="M1610.45,-340.75C1614.56,-333.49 1620.53,-322.95 1625.6,-313.98"/>
<polygon fill="#63b8ff" stroke="#63b8ff" points="1628.76,-315.52 1630.64,-305.09 1622.67,-312.07 1628.76,-315.52"/>
</a>
</g>
</g>
<!-- Node56 -->
<g id="Node000056" class="node">
<title>Node56</title>
<g id="a_Node000056"><a xlink:href="astaroth__cuda__wrappers_8h.html" target="_top" xlink:title=" ">
<polygon fill="white" stroke="#666666" points="803,-189.5 658,-189.5 658,-170.5 803,-170.5 803,-189.5"/>
<text text-anchor="middle" x="730.5" y="-177.5" font-family="Helvetica,sans-Serif" font-size="10.00">astaroth_cuda_wrappers.h</text>
</a>
</g>
</g>
<!-- Node1&#45;&gt;Node56 -->
<g id="edge51_Node000001_Node000056" class="edge">
<title>Node1&#45;&gt;Node56</title>
<g id="a_edge51_Node000001_Node000056"><a xlink:title=" ">
<path fill="none" stroke="#63b8ff" d="M1549.46,-348.57C1385.55,-344.94 910.31,-327.81 779.5,-250 759.82,-238.29 745.94,-215.27 738.09,-199.04"/>
<polygon fill="#63b8ff" stroke="#63b8ff" points="741.11,-197.22 733.81,-189.55 734.73,-200.1 741.11,-197.22"/>
</a>
</g>
</g>
<!-- Node57 -->
<g id="Node000057" class="node">
<title>Node57</title>
<g id="a_Node000057"><a xlink:href="math__utils_8h.html" target="_top" xlink:title="Brief info.">
<polygon fill="white" stroke="#666666" points="604,-189.5 527,-189.5 527,-170.5 604,-170.5 604,-189.5"/>
<text text-anchor="middle" x="565.5" y="-177.5" font-family="Helvetica,sans-Serif" font-size="10.00">math_utils.h</text>
</a>
</g>
</g>
<!-- Node1&#45;&gt;Node57 -->
<g id="edge54_Node000001_Node000057" class="edge">
<title>Node1&#45;&gt;Node57</title>
<g id="a_edge54_Node000001_Node000057"><a xlink:title=" ">
<path fill="none" stroke="#63b8ff" d="M1549.43,-348.29C1402.73,-344.75 1010.21,-332.89 883.5,-305 770.18,-280.05 644.17,-220.72 591.18,-194.2"/>
<polygon fill="#63b8ff" stroke="#63b8ff" points="592.66,-191.03 582.15,-189.65 589.5,-197.28 592.66,-191.03"/>
</a>
</g>
</g>
<!-- Node60 -->
<g id="Node000060" class="node">
<title>Node60</title>
<g id="a_Node000060"><a xlink:title=" ">
<polygon fill="#e0e0e0" stroke="#999999" points="1799,-305 1684,-305 1684,-286 1799,-286 1799,-305"/>
<text text-anchor="middle" x="1741.5" y="-293" font-family="Helvetica,sans-Serif" font-size="10.00">get_vtxbufs_funcs.h</text>
</a>
</g>
</g>
<!-- Node1&#45;&gt;Node60 -->
<g id="edge64_Node000001_Node000060" class="edge">
<title>Node1&#45;&gt;Node60</title>
<g id="a_edge64_Node000001_Node000060"><a xlink:title=" ">
<path fill="none" stroke="#63b8ff" d="M1627.35,-340.98C1649.62,-332.3 1684.4,-318.75 1709.72,-308.88"/>
<polygon fill="#63b8ff" stroke="#63b8ff" points="1711.21,-312.06 1719.25,-305.17 1708.66,-305.54 1711.21,-312.06"/>
</a>
</g>
</g>
<!-- Node61 -->
<g id="Node000061" class="node">
<title>Node61</title>
<g id="a_Node000061"><a xlink:title=" ">
<polygon fill="#e0e0e0" stroke="#999999" points="1924,-305 1817,-305 1817,-286 1924,-286 1924,-305"/>
<text text-anchor="middle" x="1870.5" y="-293" font-family="Helvetica,sans-Serif" font-size="10.00">stencil_accesses.h</text>
</a>
</g>
</g>
<!-- Node1&#45;&gt;Node61 -->
<g id="edge65_Node000001_Node000061" class="edge">
<title>Node1&#45;&gt;Node61</title>
<g id="a_edge65_Node000001_Node000061"><a xlink:title=" ">
<path fill="none" stroke="#63b8ff" d="M1648.08,-340.98C1694.2,-331.76 1767.86,-317.03 1817.66,-307.07"/>
<polygon fill="#63b8ff" stroke="#63b8ff" points="1818.47,-310.48 1827.59,-305.08 1817.1,-303.61 1818.47,-310.48"/>
</a>
</g>
</g>
<!-- Node62 -->
<g id="Node000062" class="node">
<title>Node62</title>
<g id="a_Node000062"><a xlink:href="config__helpers_8h.html" target="_top" xlink:title=" ">
<polygon fill="white" stroke="#666666" points="2380,-305 2275,-305 2275,-286 2380,-286 2380,-305"/>
<text text-anchor="middle" x="2327.5" y="-293" font-family="Helvetica,sans-Serif" font-size="10.00">../config_helpers.h</text>
</a>
</g>
</g>
<!-- Node1&#45;&gt;Node62 -->
<g id="edge66_Node000001_Node000062" class="edge">
<title>Node1&#45;&gt;Node62</title>
<g id="a_edge66_Node000001_Node000062"><a xlink:title=" ">
<path fill="none" stroke="#63b8ff" d="M1661.55,-345.39C1794.08,-335.66 2125.98,-311.29 2264.86,-301.1"/>
<polygon fill="#63b8ff" stroke="#63b8ff" points="2265.2,-304.58 2274.91,-300.36 2264.68,-297.6 2265.2,-304.58"/>
</a>
</g>
</g>
<!-- Node3 -->
<g id="Node000003" class="node">
<title>Node3</title>
<g id="a_Node000003"><a xlink:href="astaroth__base_8h.html" target="_top" xlink:title=" ">
<polygon fill="white" stroke="#666666" points="1223,-250 1128,-250 1128,-231 1223,-231 1223,-250"/>
<text text-anchor="middle" x="1175.5" y="-238" font-family="Helvetica,sans-Serif" font-size="10.00">astaroth_base.h</text>
</a>
</g>
</g>
<!-- Node2&#45;&gt;Node3 -->
<g id="edge2_Node000002_Node000003" class="edge">
<title>Node2&#45;&gt;Node3</title>
<g id="a_edge2_Node000002_Node000003"><a xlink:title=" ">
<path fill="none" stroke="#63b8ff" d="M1482.28,-289.32C1424.55,-280.32 1305.03,-261.69 1233.41,-250.53"/>
<polygon fill="#63b8ff" stroke="#63b8ff" points="1233.62,-247.02 1223.2,-248.94 1232.54,-253.93 1233.62,-247.02"/>
</a>
</g>
</g>
<!-- Node43 -->
<g id="Node000043" class="node">
<title>Node43</title>
<g id="a_Node000043"><a xlink:href="astaroth__grid_8h.html" target="_top" xlink:title=" ">
<polygon fill="white" stroke="#666666" points="1331.5,-250 1241.5,-250 1241.5,-231 1331.5,-231 1331.5,-250"/>
<text text-anchor="middle" x="1286.5" y="-238" font-family="Helvetica,sans-Serif" font-size="10.00">astaroth_grid.h</text>
</a>
</g>
</g>
<!-- Node2&#45;&gt;Node43 -->
<g id="edge38_Node000002_Node000043" class="edge">
<title>Node2&#45;&gt;Node43</title>
<g id="a_edge38_Node000002_Node000043"><a xlink:title=" ">
<path fill="none" stroke="#63b8ff" d="M1482.2,-286.79C1442.96,-277.71 1377.5,-262.56 1333.2,-252.31"/>
<polygon fill="#63b8ff" stroke="#63b8ff" points="1333.78,-248.85 1323.25,-250.01 1332.21,-255.67 1333.78,-248.85"/>
</a>
</g>
</g>
<!-- Node44 -->
<g id="Node000044" class="node">
<title>Node44</title>
<g id="a_Node000044"><a xlink:href="astaroth__node_8h.html" target="_top" xlink:title=" ">
<polygon fill="white" stroke="#666666" points="1445,-250 1350,-250 1350,-231 1445,-231 1445,-250"/>
<text text-anchor="middle" x="1397.5" y="-238" font-family="Helvetica,sans-Serif" font-size="10.00">astaroth_node.h</text>
</a>
</g>
</g>
<!-- Node2&#45;&gt;Node44 -->
<g id="edge39_Node000002_Node000044" class="edge">
<title>Node2&#45;&gt;Node44</title>
<g id="a_edge39_Node000002_Node000044"><a xlink:title=" ">
<path fill="none" stroke="#63b8ff" d="M1496.54,-285.98C1477.47,-277.42 1447.84,-264.11 1425.95,-254.28"/>
<polygon fill="#63b8ff" stroke="#63b8ff" points="1427.36,-251.07 1416.8,-250.17 1424.49,-257.46 1427.36,-251.07"/>
</a>
</g>
</g>
<!-- Node45 -->
<g id="Node000045" class="node">
<title>Node45</title>
<g id="a_Node000045"><a xlink:href="astaroth__device_8h.html" target="_top" xlink:title=" ">
<polygon fill="white" stroke="#666666" points="1567.5,-250 1463.5,-250 1463.5,-231 1567.5,-231 1567.5,-250"/>
<text text-anchor="middle" x="1515.5" y="-238" font-family="Helvetica,sans-Serif" font-size="10.00">astaroth_device.h</text>
</a>
</g>
</g>
<!-- Node2&#45;&gt;Node45 -->
<g id="edge40_Node000002_Node000045" class="edge">
<title>Node2&#45;&gt;Node45</title>
<g id="a_edge40_Node000002_Node000045"><a xlink:title=" ">
<path fill="none" stroke="#63b8ff" d="M1515.5,-285.75C1515.5,-278.8 1515.5,-268.85 1515.5,-260.13"/>
<polygon fill="#63b8ff" stroke="#63b8ff" points="1519,-260.09 1515.5,-250.09 1512,-260.09 1519,-260.09"/>
</a>
</g>
</g>
<!-- Node48 -->
<g id="Node000048" class="node">
<title>Node48</title>
<g id="a_Node000048"><a xlink:href="astaroth__legacy_8h.html" target="_top" xlink:title=" ">
<polygon fill="white" stroke="#666666" points="1687.5,-250 1585.5,-250 1585.5,-231 1687.5,-231 1687.5,-250"/>
<text text-anchor="middle" x="1636.5" y="-238" font-family="Helvetica,sans-Serif" font-size="10.00">astaroth_legacy.h</text>
</a>
</g>
</g>
<!-- Node2&#45;&gt;Node48 -->
<g id="edge43_Node000002_Node000048" class="edge">
<title>Node2&#45;&gt;Node48</title>
<g id="a_edge43_Node000002_Node000048"><a xlink:title=" ">
<path fill="none" stroke="#63b8ff" d="M1534.94,-285.98C1554.49,-277.42 1584.88,-264.11 1607.32,-254.28"/>
<polygon fill="#63b8ff" stroke="#63b8ff" points="1608.95,-257.39 1616.71,-250.17 1606.14,-250.98 1608.95,-257.39"/>
</a>
</g>
</g>
<!-- Node49 -->
<g id="Node000049" class="node">
<title>Node49</title>
<g id="a_Node000049"><a xlink:title=" ">
<polygon fill="#e0e0e0" stroke="#999999" points="1845,-250 1706,-250 1706,-231 1845,-231 1845,-250"/>
<text text-anchor="middle" x="1775.5" y="-238" font-family="Helvetica,sans-Serif" font-size="10.00">device_set_input_decls.h</text>
</a>
</g>
</g>
<!-- Node2&#45;&gt;Node49 -->
<g id="edge44_Node000002_Node000049" class="edge">
<title>Node2&#45;&gt;Node49</title>
<g id="a_edge44_Node000002_Node000049"><a xlink:title=" ">
<path fill="none" stroke="#63b8ff" d="M1548.69,-287.73C1592.84,-278.73 1671.36,-262.73 1723.43,-252.11"/>
<polygon fill="#63b8ff" stroke="#63b8ff" points="1724.38,-255.49 1733.48,-250.07 1722.98,-248.63 1724.38,-255.49"/>
</a>
</g>
</g>
<!-- Node50 -->
<g id="Node000050" class="node">
<title>Node50</title>
<g id="a_Node000050"><a xlink:title=" ">
<polygon fill="#e0e0e0" stroke="#999999" points="2009.5,-250 1863.5,-250 1863.5,-231 2009.5,-231 2009.5,-250"/>
<text text-anchor="middle" x="1936.5" y="-238" font-family="Helvetica,sans-Serif" font-size="10.00">device_get_output_decls.h</text>
</a>
</g>
</g>
<!-- Node2&#45;&gt;Node50 -->
<g id="edge45_Node000002_Node000050" class="edge">
<title>Node2&#45;&gt;Node50</title>
<g id="a_edge45_Node000002_Node000050"><a xlink:title=" ">
<path fill="none" stroke="#63b8ff" d="M1548.58,-288.26C1553.25,-287.45 1557.99,-286.68 1562.5,-286 1616.73,-277.88 1760.42,-261.3 1853.08,-250.83"/>
<polygon fill="#63b8ff" stroke="#63b8ff" points="1853.74,-254.28 1863.28,-249.68 1852.95,-247.32 1853.74,-254.28"/>
</a>
</g>
</g>
<!-- Node51 -->
<g id="Node000051" class="node">
<title>Node51</title>
<g id="a_Node000051"><a xlink:title=" ">
<polygon fill="#e0e0e0" stroke="#999999" points="2167.5,-250 2027.5,-250 2027.5,-231 2167.5,-231 2167.5,-250"/>
<text text-anchor="middle" x="2097.5" y="-238" font-family="Helvetica,sans-Serif" font-size="10.00">device_get_input_decls.h</text>
</a>
</g>
</g>
<!-- Node2&#45;&gt;Node51 -->
<g id="edge46_Node000002_Node000051" class="edge">
<title>Node2&#45;&gt;Node51</title>
<g id="a_edge46_Node000002_Node000051"><a xlink:title=" ">
<path fill="none" stroke="#63b8ff" d="M1548.56,-288.09C1553.23,-287.31 1557.98,-286.59 1562.5,-286 1760.86,-260.3 1814.37,-268.6 2017.21,-250.09"/>
<polygon fill="#63b8ff" stroke="#63b8ff" points="2017.66,-253.56 2027.3,-249.16 2017.02,-246.59 2017.66,-253.56"/>
</a>
</g>
</g>
<!-- Node52 -->
<g id="Node000052" class="node">
<title>Node52</title>
<g id="a_Node000052"><a xlink:title=" ">
<polygon fill="#e0e0e0" stroke="#999999" points="918.5,-250 788.5,-250 788.5,-231 918.5,-231 918.5,-250"/>
<text text-anchor="middle" x="853.5" y="-238" font-family="Helvetica,sans-Serif" font-size="10.00">get_vtxbufs_declares.h</text>
</a>
</g>
</g>
<!-- Node2&#45;&gt;Node52 -->
<g id="edge47_Node000002_Node000052" class="edge">
<title>Node2&#45;&gt;Node52</title>
<g id="a_edge47_Node000002_Node000052"><a xlink:title=" ">
<path fill="none" stroke="#63b8ff" d="M1482.31,-292.44C1394.06,-286.87 1146.12,-270.59 928.85,-250.09"/>
<polygon fill="#63b8ff" stroke="#63b8ff" points="929.14,-246.61 918.86,-249.15 928.48,-253.58 929.14,-246.61"/>
</a>
</g>
</g>
<!-- Node53 -->
<g id="Node000053" class="node">
<title>Node53</title>
<g id="a_Node000053"><a xlink:href="astaroth__runtime__compilation_8h.html" target="_top" xlink:title=" ">
<polygon fill="white" stroke="#666666" points="1110,-250 937,-250 937,-231 1110,-231 1110,-250"/>
<text text-anchor="middle" x="1023.5" y="-238" font-family="Helvetica,sans-Serif" font-size="10.00">astaroth_runtime_compilation.h</text>
</a>
</g>
</g>
<!-- Node2&#45;&gt;Node53 -->
<g id="edge48_Node000002_Node000053" class="edge">
<title>Node2&#45;&gt;Node53</title>
<g id="a_edge48_Node000002_Node000053"><a xlink:title=" ">
<path fill="none" stroke="#63b8ff" d="M1482.45,-290.94C1407.76,-282.89 1223.8,-263.08 1112.79,-251.12"/>
<polygon fill="#63b8ff" stroke="#63b8ff" points="1112.93,-247.61 1102.61,-250.02 1112.18,-254.57 1112.93,-247.61"/>
</a>
</g>
</g>
<!-- Node2&#45;&gt;Node54 -->
<g id="edge49_Node000002_Node000054" class="edge">
<title>Node2&#45;&gt;Node54</title>
<g id="a_edge49_Node000002_Node000054"><a xlink:title=" ">
<path fill="none" stroke="#63b8ff" d="M1548.55,-288.01C1553.22,-287.24 1557.97,-286.54 1562.5,-286 1830.62,-254.01 1904.23,-288.69 2175.71,-249.81"/>
<polygon fill="#63b8ff" stroke="#63b8ff" points="2176.47,-253.23 2185.86,-248.33 2175.46,-246.31 2176.47,-253.23"/>
</a>
</g>
</g>
<!-- Node4 -->
<g id="Node000004" class="node">
<title>Node4</title>
<g id="a_Node000004"><a xlink:title=" ">
<polygon fill="#e0e0e0" stroke="#999999" points="1278.5,-74 1216.5,-74 1216.5,-55 1278.5,-55 1278.5,-74"/>
<text text-anchor="middle" x="1247.5" y="-62" font-family="Helvetica,sans-Serif" font-size="10.00">stdbool.h</text>
</a>
</g>
</g>
<!-- Node3&#45;&gt;Node4 -->
<g id="edge3_Node000003_Node000004" class="edge">
<title>Node3&#45;&gt;Node4</title>
<g id="a_edge3_Node000003_Node000004"><a xlink:title=" ">
<path fill="none" stroke="#63b8ff" d="M1223.16,-232.44C1278.81,-221.33 1368.24,-193.89 1407.5,-129 1435.32,-83.02 1345.13,-70.31 1288.97,-66.81"/>
<polygon fill="#63b8ff" stroke="#63b8ff" points="1289.1,-63.31 1278.92,-66.26 1288.72,-70.3 1289.1,-63.31"/>
</a>
</g>
</g>
<!-- Node5 -->
<g id="Node000005" class="node">
<title>Node5</title>
<g id="a_Node000005"><a xlink:href="acc__runtime_8h.html" target="_top" xlink:title=" ">
<polygon fill="#fff0f0" stroke="red" points="1060.5,-189.5 974.5,-189.5 974.5,-170.5 1060.5,-170.5 1060.5,-189.5"/>
<text text-anchor="middle" x="1017.5" y="-177.5" font-family="Helvetica,sans-Serif" font-size="10.00">acc_runtime.h</text>
</a>
</g>
</g>
<!-- Node3&#45;&gt;Node5 -->
<g id="edge4_Node000003_Node000005" class="edge">
<title>Node3&#45;&gt;Node5</title>
<g id="a_edge4_Node000003_Node000005"><a xlink:title=" ">
<path fill="none" stroke="#63b8ff" d="M1152.53,-230.99C1125.61,-221.03 1080.83,-204.45 1050.27,-193.13"/>
<polygon fill="#63b8ff" stroke="#63b8ff" points="1051.1,-189.71 1040.5,-189.52 1048.66,-196.27 1051.1,-189.71"/>
</a>
</g>
</g>
<!-- Node25 -->
<g id="Node000025" class="node">
<title>Node25</title>
<g id="a_Node000025"><a xlink:title=" ">
<polygon fill="#e0e0e0" stroke="#999999" points="1399,-129 1260,-129 1260,-110 1399,-110 1399,-129"/>
<text text-anchor="middle" x="1329.5" y="-117" font-family="Helvetica,sans-Serif" font-size="10.00">user_built&#45;in_constants.h</text>
</a>
</g>
</g>
<!-- Node3&#45;&gt;Node25 -->
<g id="edge36_Node000003_Node000025" class="edge">
<title>Node3&#45;&gt;Node25</title>
<g id="a_edge36_Node000003_Node000025"><a xlink:title=" ">
<path fill="none" stroke="#63b8ff" d="M1192,-230.88C1207.43,-222.52 1230.82,-209.07 1249.5,-195 1273.51,-176.91 1298.43,-152.69 1313.95,-136.84"/>
<polygon fill="#63b8ff" stroke="#63b8ff" points="1316.71,-139.02 1321.15,-129.4 1311.68,-134.15 1316.71,-139.02"/>
</a>
</g>
</g>
<!-- Node42 -->
<g id="Node000042" class="node">
<title>Node42</title>
<g id="a_Node000042"><a xlink:title=" ">
<polygon fill="#e0e0e0" stroke="#999999" points="1241,-195 1110,-195 1110,-165 1241,-165 1241,-195"/>
<text text-anchor="start" x="1118" y="-183" font-family="Helvetica,sans-Serif" font-size="10.00">user_builtin_non_scalar</text>
<text text-anchor="middle" x="1175.5" y="-172" font-family="Helvetica,sans-Serif" font-size="10.00">_constants.h</text>
</a>
</g>
</g>
<!-- Node3&#45;&gt;Node42 -->
<g id="edge37_Node000003_Node000042" class="edge">
<title>Node3&#45;&gt;Node42</title>
<g id="a_edge37_Node000003_Node000042"><a xlink:title=" ">
<path fill="none" stroke="#63b8ff" d="M1175.5,-230.87C1175.5,-224.11 1175.5,-214.35 1175.5,-205.26"/>
<polygon fill="#63b8ff" stroke="#63b8ff" points="1179,-205.11 1175.5,-195.11 1172,-205.11 1179,-205.11"/>
</a>
</g>
</g>
<!-- Node5&#45;&gt;Node4 -->
<g id="edge6_Node000005_Node000004" class="edge">
<title>Node5&#45;&gt;Node4</title>
<g id="a_edge6_Node000005_Node000004"><a xlink:title=" ">
<path fill="none" stroke="#63b8ff" d="M1060.78,-172.02C1110.73,-163.27 1189.01,-147.19 1212.5,-129 1227.09,-117.7 1236.45,-98.51 1241.78,-84.18"/>
<polygon fill="#63b8ff" stroke="#63b8ff" points="1245.21,-84.97 1245.1,-74.38 1238.58,-82.73 1245.21,-84.97"/>
</a>
</g>
</g>
<!-- Node6 -->
<g id="Node000006" class="node">
<title>Node6</title>
<g id="a_Node000006"><a xlink:title=" ">
<polygon fill="#e0e0e0" stroke="#999999" points="1198.5,-74 1148.5,-74 1148.5,-55 1198.5,-55 1198.5,-74"/>
<text text-anchor="middle" x="1173.5" y="-62" font-family="Helvetica,sans-Serif" font-size="10.00">stdio.h</text>
</a>
</g>
</g>
<!-- Node5&#45;&gt;Node6 -->
<g id="edge5_Node000005_Node000006" class="edge">
<title>Node5&#45;&gt;Node6</title>
<g id="a_edge5_Node000005_Node000006"><a xlink:title=" ">
<path fill="none" stroke="#63b8ff" d="M1028.58,-170.33C1045.58,-157.07 1079.23,-131.1 1108.5,-110 1122.78,-99.7 1139.14,-88.51 1151.87,-79.92"/>
<polygon fill="#63b8ff" stroke="#63b8ff" points="1154.07,-82.66 1160.42,-74.18 1150.17,-76.85 1154.07,-82.66"/>
</a>
</g>
</g>
<!-- Node7 -->
<g id="Node000007" class="node">
<title>Node7</title>
<g id="a_Node000007"><a xlink:href="device__headers_8h.html" target="_top" xlink:title=" ">
<polygon fill="white" stroke="#666666" points="883.5,-74 781.5,-74 781.5,-55 883.5,-55 883.5,-74"/>
<text text-anchor="middle" x="832.5" y="-62" font-family="Helvetica,sans-Serif" font-size="10.00">device_headers.h</text>
</a>
</g>
</g>
<!-- Node5&#45;&gt;Node7 -->
<g id="edge7_Node000005_Node000007" class="edge">
<title>Node5&#45;&gt;Node7</title>
<g id="a_edge7_Node000005_Node000007"><a xlink:title=" ">
<path fill="none" stroke="#63b8ff" d="M984.19,-170.43C957.32,-162.49 919.39,-148.88 890.5,-129 871.94,-116.22 855.1,-96.44 844.41,-82.35"/>
<polygon fill="#63b8ff" stroke="#63b8ff" points="847.05,-80.04 838.31,-74.05 841.41,-84.18 847.05,-80.04"/>
</a>
</g>
</g>
<!-- Node10 -->
<g id="Node000010" class="node">
<title>Node10</title>
<g id="a_Node000010"><a xlink:title=" ">
<polygon fill="#e0e0e0" stroke="#999999" points="644,-74 549,-74 549,-55 644,-55 644,-74"/>
<text text-anchor="middle" x="596.5" y="-62" font-family="Helvetica,sans-Serif" font-size="10.00">builtin_enums.h</text>
</a>
</g>
</g>
<!-- Node5&#45;&gt;Node10 -->
<g id="edge10_Node000005_Node000010" class="edge">
<title>Node5&#45;&gt;Node10</title>
<g id="a_edge10_Node000005_Node000010"><a xlink:title=" ">
<path fill="none" stroke="#63b8ff" d="M985.86,-170.47C910.79,-150.23 721.96,-99.32 637.94,-76.67"/>
<polygon fill="#63b8ff" stroke="#63b8ff" points="638.79,-73.28 628.22,-74.05 636.97,-80.03 638.79,-73.28"/>
</a>
</g>
</g>
<!-- Node11 -->
<g id="Node000011" class="node">
<title>Node11</title>
<g id="a_Node000011"><a xlink:href="datatypes_8h.html" target="_top" xlink:title=" ">
<polygon fill="white" stroke="#666666" points="602.5,-129 528.5,-129 528.5,-110 602.5,-110 602.5,-129"/>
<text text-anchor="middle" x="565.5" y="-117" font-family="Helvetica,sans-Serif" font-size="10.00">datatypes.h</text>
</a>
</g>
</g>
<!-- Node5&#45;&gt;Node11 -->
<g id="edge11_Node000005_Node000011" class="edge">
<title>Node5&#45;&gt;Node11</title>
<g id="a_edge11_Node000005_Node000011"><a xlink:title=" ">
<path fill="none" stroke="#63b8ff" d="M974.16,-173.39C889.04,-162.37 700.65,-137.99 612.59,-126.59"/>
<polygon fill="#63b8ff" stroke="#63b8ff" points="612.98,-123.12 602.61,-125.3 612.08,-130.06 612.98,-123.12"/>
</a>
</g>
</g>
<!-- Node19 -->
<g id="Node000019" class="node">
<title>Node19</title>
<g id="a_Node000019"><a xlink:href="errchk_8h.html" target="_top" xlink:title="Brief info.">
<polygon fill="white" stroke="#666666" points="955.5,-129 899.5,-129 899.5,-110 955.5,-110 955.5,-129"/>
<text text-anchor="middle" x="927.5" y="-117" font-family="Helvetica,sans-Serif" font-size="10.00">errchk.h</text>
</a>
</g>
</g>
<!-- Node5&#45;&gt;Node19 -->
<g id="edge23_Node000005_Node000019" class="edge">
<title>Node5&#45;&gt;Node19</title>
<g id="a_edge23_Node000005_Node000019"><a xlink:title=" ">
<path fill="none" stroke="#63b8ff" d="M1004.22,-170.37C989.86,-161.04 966.74,-146.01 949.63,-134.88"/>
<polygon fill="#63b8ff" stroke="#63b8ff" points="951.13,-131.68 940.83,-129.17 947.31,-137.55 951.13,-131.68"/>
</a>
</g>
</g>
<!-- Node23 -->
<g id="Node000023" class="node">
<title>Node23</title>
<g id="a_Node000023"><a xlink:title=" ">
<polygon fill="#e0e0e0" stroke="#999999" points="1061,-129 974,-129 974,-110 1061,-110 1061,-129"/>
<text text-anchor="middle" x="1017.5" y="-117" font-family="Helvetica,sans-Serif" font-size="10.00">user_defines.h</text>
</a>
</g>
</g>
<!-- Node5&#45;&gt;Node23 -->
<g id="edge32_Node000005_Node000023" class="edge">
<title>Node5&#45;&gt;Node23</title>
<g id="a_edge32_Node000005_Node000023"><a xlink:title=" ">
<path fill="none" stroke="#63b8ff" d="M1017.5,-170.37C1017.5,-162.25 1017.5,-149.81 1017.5,-139.39"/>
<polygon fill="#63b8ff" stroke="#63b8ff" points="1021,-139.17 1017.5,-129.17 1014,-139.17 1021,-139.17"/>
</a>
</g>
</g>
<!-- Node24 -->
<g id="Node000024" class="node">
<title>Node24</title>
<g id="a_Node000024"><a xlink:title=" ">
<polygon fill="#e0e0e0" stroke="#999999" points="1203.5,-129 1117.5,-129 1117.5,-110 1203.5,-110 1203.5,-129"/>
<text text-anchor="middle" x="1160.5" y="-117" font-family="Helvetica,sans-Serif" font-size="10.00">profiles_info.h</text>
</a>
</g>
</g>
<!-- Node5&#45;&gt;Node24 -->
<g id="edge33_Node000005_Node000024" class="edge">
<title>Node5&#45;&gt;Node24</title>
<g id="a_edge33_Node000005_Node000024"><a xlink:title=" ">
<path fill="none" stroke="#63b8ff" d="M1038.29,-170.49C1062.44,-160.62 1102.48,-144.23 1130.12,-132.93"/>
<polygon fill="#63b8ff" stroke="#63b8ff" points="1131.75,-136.04 1139.68,-129.02 1129.1,-129.56 1131.75,-136.04"/>
</a>
</g>
</g>
<!-- Node5&#45;&gt;Node25 -->
<g id="edge34_Node000005_Node000025" class="edge">
<title>Node5&#45;&gt;Node25</title>
<g id="a_edge34_Node000005_Node000025"><a xlink:title=" ">
<path fill="none" stroke="#63b8ff" d="M1060.55,-170.93C1116.22,-160.49 1213.22,-142.3 1274.26,-130.86"/>
<polygon fill="#63b8ff" stroke="#63b8ff" points="1274.92,-134.29 1284.11,-129.01 1273.63,-127.41 1274.92,-134.29"/>
</a>
</g>
</g>
<!-- Node26 -->
<g id="Node000026" class="node">
<title>Node26</title>
<g id="a_Node000026"><a xlink:href="func__attributes_8h.html" target="_top" xlink:title=" ">
<polygon fill="white" stroke="#666666" points="99,-74 0,-74 0,-55 99,-55 99,-74"/>
<text text-anchor="middle" x="49.5" y="-62" font-family="Helvetica,sans-Serif" font-size="10.00">func_attributes.h</text>
</a>
</g>
</g>
<!-- Node5&#45;&gt;Node26 -->
<g id="edge35_Node000005_Node000026" class="edge">
<title>Node5&#45;&gt;Node26</title>
<g id="a_edge35_Node000005_Node000026"><a xlink:title=" ">
<path fill="none" stroke="#63b8ff" d="M974.5,-175.58C861.64,-166.48 562.69,-141.51 519.5,-129 501.36,-123.75 499.65,-115.21 481.5,-110 324.14,-64.78 275.18,-92.96 109.21,-74.12"/>
<polygon fill="#63b8ff" stroke="#63b8ff" points="109.49,-70.63 99.15,-72.94 108.68,-77.59 109.49,-70.63"/>
</a>
</g>
</g>
<!-- Node8 -->
<g id="Node000008" class="node">
<title>Node8</title>
<g id="a_Node000008"><a xlink:title=" ">
<polygon fill="#e0e0e0" stroke="#999999" points="676,-19 563,-19 563,0 676,0 676,-19"/>
<text text-anchor="middle" x="619.5" y="-7" font-family="Helvetica,sans-Serif" font-size="10.00">cuda_runtime_api.h</text>
</a>
</g>
</g>
<!-- Node7&#45;&gt;Node8 -->
<g id="edge8_Node000007_Node000008" class="edge">
<title>Node7&#45;&gt;Node8</title>
<g id="a_edge8_Node000007_Node000008"><a xlink:title=" ">
<path fill="none" stroke="#63b8ff" d="M798.28,-54.98C761.74,-45.89 703.72,-31.46 663.74,-21.51"/>
<polygon fill="#63b8ff" stroke="#63b8ff" points="664.54,-18.1 653.99,-19.08 662.85,-24.89 664.54,-18.1"/>
</a>
</g>
</g>
<!-- Node9 -->
<g id="Node000009" class="node">
<title>Node9</title>
<g id="a_Node000009"><a xlink:title=" ">
<polygon fill="#e0e0e0" stroke="#999999" points="870.5,-19 794.5,-19 794.5,0 870.5,0 870.5,-19"/>
<text text-anchor="middle" x="832.5" y="-7" font-family="Helvetica,sans-Serif" font-size="10.00">cuda_fp16.h</text>
</a>
</g>
</g>
<!-- Node7&#45;&gt;Node9 -->
<g id="edge9_Node000007_Node000009" class="edge">
<title>Node7&#45;&gt;Node9</title>
<g id="a_edge9_Node000007_Node000009"><a xlink:title=" ">
<path fill="none" stroke="#63b8ff" d="M832.5,-54.75C832.5,-47.8 832.5,-37.85 832.5,-29.13"/>
<polygon fill="#63b8ff" stroke="#63b8ff" points="836,-29.09 832.5,-19.09 829,-29.09 836,-29.09"/>
</a>
</g>
</g>
<!-- Node11&#45;&gt;Node7 -->
<g id="edge14_Node000011_Node000007" class="edge">
<title>Node11&#45;&gt;Node7</title>
<g id="a_edge14_Node000011_Node000007"><a xlink:title=" ">
<path fill="none" stroke="#63b8ff" d="M602.63,-111.13C648.57,-102.01 727.12,-86.42 779.42,-76.04"/>
<polygon fill="#63b8ff" stroke="#63b8ff" points="780.38,-79.41 789.51,-74.03 779.02,-72.55 780.38,-79.41"/>
</a>
</g>
</g>
<!-- Node11&#45;&gt;Node8 -->
<g id="edge16_Node000011_Node000008" class="edge">
<title>Node11&#45;&gt;Node8</title>
<g id="a_edge16_Node000011_Node000008"><a xlink:title=" ">
<path fill="none" stroke="#63b8ff" d="M557.11,-109.92C545.9,-97.37 528.63,-73.48 539.5,-55 548.24,-40.14 563.94,-29.88 579.13,-22.99"/>
<polygon fill="#63b8ff" stroke="#63b8ff" points="580.56,-26.19 588.45,-19.13 577.88,-19.72 580.56,-26.19"/>
</a>
</g>
</g>
<!-- Node11&#45;&gt;Node10 -->
<g id="edge18_Node000011_Node000010" class="edge">
<title>Node11&#45;&gt;Node10</title>
<g id="a_edge18_Node000011_Node000010"><a xlink:title=" ">
<path fill="none" stroke="#63b8ff" d="M570.62,-109.75C574.86,-102.49 581.03,-91.95 586.28,-82.98"/>
<polygon fill="#63b8ff" stroke="#63b8ff" points="589.45,-84.49 591.48,-74.09 583.41,-80.95 589.45,-84.49"/>
</a>
</g>
</g>
<!-- Node12 -->
<g id="Node000012" class="node">
<title>Node12</title>
<g id="a_Node000012"><a xlink:title=" ">
<polygon fill="#e0e0e0" stroke="#999999" points="385,-74 338,-74 338,-55 385,-55 385,-74"/>
<text text-anchor="middle" x="361.5" y="-62" font-family="Helvetica,sans-Serif" font-size="10.00">float.h</text>
</a>
</g>
</g>
<!-- Node11&#45;&gt;Node12 -->
<g id="edge12_Node000011_Node000012" class="edge">
<title>Node11&#45;&gt;Node12</title>
<g id="a_edge12_Node000011_Node000012"><a xlink:title=" ">
<path fill="none" stroke="#63b8ff" d="M532.19,-109.95C499.56,-101.56 448.16,-88.3 395.17,-74.43"/>
<polygon fill="#63b8ff" stroke="#63b8ff" points="395.82,-70.98 385.26,-71.83 394.05,-77.75 395.82,-70.98"/>
</a>
</g>
</g>
<!-- Node13 -->
<g id="Node000013" class="node">
<title>Node13</title>
<g id="a_Node000013"><a xlink:title=" ">
<polygon fill="#e0e0e0" stroke="#999999" points="168,-74 117,-74 117,-55 168,-55 168,-74"/>
<text text-anchor="middle" x="142.5" y="-62" font-family="Helvetica,sans-Serif" font-size="10.00">math.h</text>
</a>
</g>
</g>
<!-- Node11&#45;&gt;Node13 -->
<g id="edge13_Node000011_Node000013" class="edge">
<title>Node11&#45;&gt;Node13</title>
<g id="a_edge13_Node000011_Node000013"><a xlink:title=" ">
<path fill="none" stroke="#63b8ff" d="M528.49,-112.07C523.79,-111.33 519.04,-110.62 514.5,-110 368.03,-90.01 327,-99.93 178.01,-74.05"/>
<polygon fill="#63b8ff" stroke="#63b8ff" points="178.49,-70.58 168.04,-72.29 177.28,-77.47 178.49,-70.58"/>
</a>
</g>
</g>
<!-- Node14 -->
<g id="Node000014" class="node">
<title>Node14</title>
<g id="a_Node000014"><a xlink:title=" ">
<polygon fill="#e0e0e0" stroke="#999999" points="492,-74 403,-74 403,-55 492,-55 492,-74"/>
<text text-anchor="middle" x="447.5" y="-62" font-family="Helvetica,sans-Serif" font-size="10.00">vector_types.h</text>
</a>
</g>
</g>
<!-- Node11&#45;&gt;Node14 -->
<g id="edge15_Node000011_Node000014" class="edge">
<title>Node11&#45;&gt;Node14</title>
<g id="a_edge15_Node000011_Node000014"><a xlink:title=" ">
<path fill="none" stroke="#63b8ff" d="M546.54,-109.98C527.47,-101.42 497.84,-88.11 475.95,-78.28"/>
<polygon fill="#63b8ff" stroke="#63b8ff" points="477.36,-75.07 466.8,-74.17 474.49,-81.46 477.36,-75.07"/>
</a>
</g>
</g>
<!-- Node15 -->
<g id="Node000015" class="node">
<title>Node15</title>
<g id="a_Node000015"><a xlink:href="acreal_8h.html" target="_top" xlink:title=" ">
<polygon fill="white" stroke="#666666" points="490.5,-19 434.5,-19 434.5,0 490.5,0 490.5,-19"/>
<text text-anchor="middle" x="462.5" y="-7" font-family="Helvetica,sans-Serif" font-size="10.00">acreal.h</text>
</a>
</g>
</g>
<!-- Node11&#45;&gt;Node15 -->
<g id="edge17_Node000011_Node000015" class="edge">
<title>Node11&#45;&gt;Node15</title>
<g id="a_edge17_Node000011_Node000015"><a xlink:title=" ">
<path fill="none" stroke="#63b8ff" d="M528.3,-112.14C462.39,-100.78 331.7,-77.85 328.5,-74 299.34,-38.86 374.93,-21.93 424.1,-14.84"/>
<polygon fill="#63b8ff" stroke="#63b8ff" points="424.71,-18.29 434.14,-13.48 423.76,-11.36 424.71,-18.29"/>
</a>
</g>
</g>
<!-- Node16 -->
<g id="Node000016" class="node">
<title>Node16</title>
<g id="a_Node000016"><a xlink:title=" ">
<polygon fill="#e0e0e0" stroke="#999999" points="281,-74 186,-74 186,-55 281,-55 281,-74"/>
<text text-anchor="middle" x="233.5" y="-62" font-family="Helvetica,sans-Serif" font-size="10.00">user_typedefs.h</text>
</a>
</g>
</g>
<!-- Node11&#45;&gt;Node16 -->
<g id="edge19_Node000011_Node000016" class="edge">
<title>Node11&#45;&gt;Node16</title>
<g id="a_edge19_Node000011_Node000016"><a xlink:title=" ">
<path fill="none" stroke="#63b8ff" d="M528.46,-112.29C523.76,-111.51 519.02,-110.73 514.5,-110 437.39,-97.47 348.31,-83.44 291.48,-74.54"/>
<polygon fill="#63b8ff" stroke="#63b8ff" points="291.67,-71.03 281.25,-72.94 290.59,-77.94 291.67,-71.03"/>
</a>
</g>
</g>
<!-- Node17 -->
<g id="Node000017" class="node">
<title>Node17</title>
<g id="a_Node000017"><a xlink:href="host__datatypes_8h.html" target="_top" xlink:title=" ">
<polygon fill="white" stroke="#666666" points="763,-74 662,-74 662,-55 763,-55 763,-74"/>
<text text-anchor="middle" x="712.5" y="-62" font-family="Helvetica,sans-Serif" font-size="10.00">host_datatypes.h</text>
</a>
</g>
</g>
<!-- Node11&#45;&gt;Node17 -->
<g id="edge20_Node000011_Node000017" class="edge">
<title>Node11&#45;&gt;Node17</title>
<g id="a_edge20_Node000011_Node000017"><a xlink:title=" ">
<path fill="none" stroke="#63b8ff" d="M589.12,-109.98C613.4,-101.23 651.45,-87.51 678.87,-77.62"/>
<polygon fill="#63b8ff" stroke="#63b8ff" points="680.23,-80.85 688.45,-74.17 677.86,-74.27 680.23,-80.85"/>
</a>
</g>
</g>
<!-- Node17&#45;&gt;Node15 -->
<g id="edge21_Node000017_Node000015" class="edge">
<title>Node17&#45;&gt;Node15</title>
<g id="a_edge21_Node000017_Node000015"><a xlink:title=" ">
<path fill="none" stroke="#63b8ff" d="M672.33,-54.98C624.98,-44.95 546.88,-28.39 500.5,-18.56"/>
<polygon fill="#63b8ff" stroke="#63b8ff" points="501.05,-15.1 490.54,-16.45 499.6,-21.94 501.05,-15.1"/>
</a>
</g>
</g>
<!-- Node18 -->
<g id="Node000018" class="node">
<title>Node18</title>
<g id="a_Node000018"><a xlink:title=" ">
<polygon fill="#e0e0e0" stroke="#999999" points="1013.5,-19 957.5,-19 957.5,0 1013.5,0 1013.5,-19"/>
<text text-anchor="middle" x="985.5" y="-7" font-family="Helvetica,sans-Serif" font-size="10.00">stddef.h</text>
</a>
</g>
</g>
<!-- Node17&#45;&gt;Node18 -->
<g id="edge22_Node000017_Node000018" class="edge">
<title>Node17&#45;&gt;Node18</title>
<g id="a_edge22_Node000017_Node000018"><a xlink:title=" ">
<path fill="none" stroke="#63b8ff" d="M756.36,-54.98C809.13,-44.74 896.87,-27.71 947.08,-17.96"/>
<polygon fill="#63b8ff" stroke="#63b8ff" points="948.05,-21.34 957.2,-15.99 946.72,-14.46 948.05,-21.34"/>
</a>
</g>
</g>
<!-- Node19&#45;&gt;Node4 -->
<g id="edge26_Node000019_Node000004" class="edge">
<title>Node19&#45;&gt;Node4</title>
<g id="a_edge26_Node000019_Node000004"><a xlink:title=" ">
<path fill="none" stroke="#63b8ff" d="M955.73,-111.77C958.69,-111.14 961.65,-110.54 964.5,-110 1068.64,-90.35 1098.33,-93.17 1206.12,-74.15"/>
<polygon fill="#63b8ff" stroke="#63b8ff" points="1206.87,-77.57 1216.09,-72.37 1205.63,-70.68 1206.87,-77.57"/>
</a>
</g>
</g>
<!-- Node19&#45;&gt;Node6 -->
<g id="edge28_Node000019_Node000006" class="edge">
<title>Node19&#45;&gt;Node6</title>
<g id="a_edge28_Node000019_Node000006"><a xlink:title=" ">
<path fill="none" stroke="#63b8ff" d="M955.77,-111.94C958.71,-111.27 961.67,-110.62 964.5,-110 1039.06,-93.77 1060.43,-91.77 1138.47,-74.16"/>
<polygon fill="#63b8ff" stroke="#63b8ff" points="1139.3,-77.56 1148.28,-71.93 1137.75,-70.73 1139.3,-77.56"/>
</a>
</g>
</g>
<!-- Node19&#45;&gt;Node7 -->
<g id="edge31_Node000019_Node000007" class="edge">
<title>Node19&#45;&gt;Node7</title>
<g id="a_edge31_Node000019_Node000007"><a xlink:title=" ">
<path fill="none" stroke="#63b8ff" d="M912.24,-109.98C897.37,-101.69 874.52,-88.94 857.08,-79.22"/>
<polygon fill="#63b8ff" stroke="#63b8ff" points="858.48,-75.99 848.04,-74.17 855.07,-82.1 858.48,-75.99"/>
</a>
</g>
</g>
<!-- Node19&#45;&gt;Node17 -->
<g id="edge25_Node000019_Node000017" class="edge">
<title>Node19&#45;&gt;Node17</title>
<g id="a_edge25_Node000019_Node000017"><a xlink:title=" ">
<path fill="none" stroke="#63b8ff" d="M899.39,-111.57C863.14,-102.64 799.68,-86.99 756.88,-76.44"/>
<polygon fill="#63b8ff" stroke="#63b8ff" points="757.56,-73 747.01,-74.01 755.89,-79.8 757.56,-73"/>
</a>
</g>
</g>
<!-- Node19&#45;&gt;Node18 -->
<g id="edge24_Node000019_Node000018" class="edge">
<title>Node19&#45;&gt;Node18</title>
<g id="a_edge24_Node000019_Node000018"><a xlink:title=" ">
<path fill="none" stroke="#63b8ff" d="M955.74,-110.63C984.26,-102.04 1025.37,-87.68 1034.5,-74 1046.26,-56.38 1026.74,-37.28 1008.97,-24.68"/>
<polygon fill="#63b8ff" stroke="#63b8ff" points="1010.79,-21.69 1000.53,-19.05 1006.9,-27.51 1010.79,-21.69"/>
</a>
</g>
</g>
<!-- Node20 -->
<g id="Node000020" class="node">
<title>Node20</title>
<g id="a_Node000020"><a xlink:title=" ">
<polygon fill="#e0e0e0" stroke="#999999" points="1026,-74 973,-74 973,-55 1026,-55 1026,-74"/>
<text text-anchor="middle" x="999.5" y="-62" font-family="Helvetica,sans-Serif" font-size="10.00">stdint.h</text>
</a>
</g>
</g>
<!-- Node19&#45;&gt;Node20 -->
<g id="edge27_Node000019_Node000020" class="edge">
<title>Node19&#45;&gt;Node20</title>
<g id="a_edge27_Node000019_Node000020"><a xlink:title=" ">
<path fill="none" stroke="#63b8ff" d="M939.07,-109.98C949.92,-102 966.38,-89.88 979.38,-80.31"/>
<polygon fill="#63b8ff" stroke="#63b8ff" points="981.74,-82.92 987.72,-74.17 977.59,-77.28 981.74,-82.92"/>
</a>
</g>
</g>
<!-- Node21 -->
<g id="Node000021" class="node">
<title>Node21</title>
<g id="a_Node000021"><a xlink:title=" ">
<polygon fill="#e0e0e0" stroke="#999999" points="955,-74 902,-74 902,-55 955,-55 955,-74"/>
<text text-anchor="middle" x="928.5" y="-62" font-family="Helvetica,sans-Serif" font-size="10.00">stdlib.h</text>
</a>
</g>
</g>
<!-- Node19&#45;&gt;Node21 -->
<g id="edge29_Node000019_Node000021" class="edge">
<title>Node19&#45;&gt;Node21</title>
<g id="a_edge29_Node000019_Node000021"><a xlink:title=" ">
<path fill="none" stroke="#63b8ff" d="M927.67,-109.75C927.8,-102.8 927.98,-92.85 928.15,-84.13"/>
<polygon fill="#63b8ff" stroke="#63b8ff" points="931.65,-84.15 928.34,-74.09 924.65,-84.02 931.65,-84.15"/>
</a>
</g>
</g>
<!-- Node22 -->
<g id="Node000022" class="node">
<title>Node22</title>
<g id="a_Node000022"><a xlink:title=" ">
<polygon fill="#e0e0e0" stroke="#999999" points="1130.5,-74 1082.5,-74 1082.5,-55 1130.5,-55 1130.5,-74"/>
<text text-anchor="middle" x="1106.5" y="-62" font-family="Helvetica,sans-Serif" font-size="10.00">time.h</text>
</a>
</g>
</g>
<!-- Node19&#45;&gt;Node22 -->
<g id="edge30_Node000019_Node000022" class="edge">
<title>Node19&#45;&gt;Node22</title>
<g id="a_edge30_Node000019_Node000022"><a xlink:title=" ">
<path fill="none" stroke="#63b8ff" d="M955.86,-110.1C987.49,-100.74 1038.62,-85.6 1072.4,-75.6"/>
<polygon fill="#63b8ff" stroke="#63b8ff" points="1073.69,-78.86 1082.29,-72.67 1071.71,-72.15 1073.69,-78.86"/>
</a>
</g>
</g>
<!-- Node46 -->
<g id="Node000046" class="node">
<title>Node46</title>
<g id="a_Node000046"><a xlink:title=" ">
<polygon fill="#e0e0e0" stroke="#999999" points="1575,-195 1456,-195 1456,-165 1575,-165 1575,-195"/>
<text text-anchor="start" x="1464" y="-183" font-family="Helvetica,sans-Serif" font-size="10.00">device_load_uniform</text>
<text text-anchor="middle" x="1515.5" y="-172" font-family="Helvetica,sans-Serif" font-size="10.00">_decl.h</text>
</a>
</g>
</g>
<!-- Node45&#45;&gt;Node46 -->
<g id="edge41_Node000045_Node000046" class="edge">
<title>Node45&#45;&gt;Node46</title>
<g id="a_edge41_Node000045_Node000046"><a xlink:title=" ">
<path fill="none" stroke="#63b8ff" d="M1515.5,-230.87C1515.5,-224.11 1515.5,-214.35 1515.5,-205.26"/>
<polygon fill="#63b8ff" stroke="#63b8ff" points="1519,-205.11 1515.5,-195.11 1512,-205.11 1519,-205.11"/>
</a>
</g>
</g>
<!-- Node47 -->
<g id="Node000047" class="node">
<title>Node47</title>
<g id="a_Node000047"><a xlink:title=" ">
<polygon fill="#e0e0e0" stroke="#999999" points="1715.5,-195 1593.5,-195 1593.5,-165 1715.5,-165 1715.5,-195"/>
<text text-anchor="start" x="1601.5" y="-183" font-family="Helvetica,sans-Serif" font-size="10.00">device_store_uniform</text>
<text text-anchor="middle" x="1654.5" y="-172" font-family="Helvetica,sans-Serif" font-size="10.00">_decl.h</text>
</a>
</g>
</g>
<!-- Node45&#45;&gt;Node47 -->
<g id="edge42_Node000045_Node000047" class="edge">
<title>Node45&#45;&gt;Node47</title>
<g id="a_edge42_Node000045_Node000047"><a xlink:title=" ">
<path fill="none" stroke="#63b8ff" d="M1535.71,-230.99C1555.54,-222.65 1586.4,-209.66 1611.69,-199.02"/>
<polygon fill="#63b8ff" stroke="#63b8ff" points="1613.22,-202.17 1621.08,-195.06 1610.51,-195.72 1613.22,-202.17"/>
</a>
</g>
</g>
<!-- Node56&#45;&gt;Node7 -->
<g id="edge52_Node000056_Node000007" class="edge">
<title>Node56&#45;&gt;Node7</title>
<g id="a_edge52_Node000056_Node000007"><a xlink:title=" ">
<path fill="none" stroke="#63b8ff" d="M738.17,-170.47C755.08,-151.65 795.81,-106.32 817.81,-81.84"/>
<polygon fill="#63b8ff" stroke="#63b8ff" points="820.66,-83.91 824.74,-74.13 815.46,-79.23 820.66,-83.91"/>
</a>
</g>
</g>
<!-- Node57&#45;&gt;Node11 -->
<g id="edge58_Node000057_Node000011" class="edge">
<title>Node57&#45;&gt;Node11</title>
<g id="a_edge58_Node000057_Node000011"><a xlink:title=" ">
<path fill="none" stroke="#63b8ff" d="M565.5,-170.37C565.5,-162.25 565.5,-149.81 565.5,-139.39"/>
<polygon fill="#63b8ff" stroke="#63b8ff" points="569,-139.17 565.5,-129.17 562,-139.17 569,-139.17"/>
</a>
</g>
</g>
<!-- Node57&#45;&gt;Node13 -->
<g id="edge57_Node000057_Node000013" class="edge">
<title>Node57&#45;&gt;Node13</title>
<g id="a_edge57_Node000057_Node000013"><a xlink:title=" ">
<path fill="none" stroke="#63b8ff" d="M526.77,-179.41C436.58,-179.58 216.09,-175.13 161.5,-129 148.6,-118.1 144.25,-98.83 142.88,-84.36"/>
<polygon fill="#63b8ff" stroke="#63b8ff" points="146.36,-83.84 142.32,-74.05 139.37,-84.22 146.36,-83.84"/>
</a>
</g>
</g>
<!-- Node57&#45;&gt;Node19 -->
<g id="edge59_Node000057_Node000019" class="edge">
<title>Node57&#45;&gt;Node19</title>
<g id="a_edge59_Node000057_Node000019"><a xlink:title=" ">
<path fill="none" stroke="#63b8ff" d="M604.33,-172.32C618.25,-169.95 634.07,-167.31 648.5,-165 753.7,-148.14 780.59,-147.57 885.5,-129 886.6,-128.81 887.71,-128.6 888.84,-128.4"/>
<polygon fill="#63b8ff" stroke="#63b8ff" points="889.9,-131.76 899.07,-126.45 888.59,-124.88 889.9,-131.76"/>
</a>
</g>
</g>
<!-- Node57&#45;&gt;Node20 -->
<g id="edge55_Node000057_Node000020" class="edge">
<title>Node57&#45;&gt;Node20</title>
<g id="a_edge55_Node000057_Node000020"><a xlink:title=" ">
<path fill="none" stroke="#63b8ff" d="M602.62,-170.46C644.12,-160.8 713.29,-144.43 772.5,-129 839.92,-111.43 918.05,-89.15 962.84,-76.19"/>
<polygon fill="#63b8ff" stroke="#63b8ff" points="964.05,-79.48 972.68,-73.34 962.1,-72.76 964.05,-79.48"/>
</a>
</g>
</g>
<!-- Node57&#45;&gt;Node21 -->
<g id="edge56_Node000057_Node000021" class="edge">
<title>Node57&#45;&gt;Node21</title>
<g id="a_edge56_Node000057_Node000021"><a xlink:title=" ">
<path fill="none" stroke="#63b8ff" d="M592.78,-170.47C657.35,-150.28 819.53,-99.57 892.24,-76.84"/>
<polygon fill="#63b8ff" stroke="#63b8ff" points="893.39,-80.15 901.89,-73.82 891.3,-73.47 893.39,-80.15"/>
</a>
</g>
</g>
<!-- Node57&#45;&gt;Node26 -->
<g id="edge60_Node000057_Node000026" class="edge">
<title>Node57&#45;&gt;Node26</title>
<g id="a_edge60_Node000057_Node000026"><a xlink:title=" ">
<path fill="none" stroke="#63b8ff" d="M526.82,-172.31C484.49,-164.4 415,-149.64 357.5,-129 339.35,-122.49 336.87,-115.86 318.5,-110 298.93,-103.76 182.22,-85.52 109.1,-74.43"/>
<polygon fill="#63b8ff" stroke="#63b8ff" points="109.5,-70.95 99.09,-72.91 108.45,-77.87 109.5,-70.95"/>
</a>
</g>
</g>
<!-- Node58 -->
<g id="Node000058" class="node">
<title>Node58</title>
<g id="a_Node000058"><a xlink:href="math__utils__base_8h.html" target="_top" xlink:title=" ">
<polygon fill="white" stroke="#666666" points="472.5,-129 366.5,-129 366.5,-110 472.5,-110 472.5,-129"/>
<text text-anchor="middle" x="419.5" y="-117" font-family="Helvetica,sans-Serif" font-size="10.00">math_utils_base.h</text>
</a>
</g>
</g>
<!-- Node57&#45;&gt;Node58 -->
<g id="edge61_Node000057_Node000058" class="edge">
<title>Node57&#45;&gt;Node58</title>
<g id="a_edge61_Node000057_Node000058"><a xlink:title=" ">
<path fill="none" stroke="#63b8ff" d="M544.27,-170.49C519.51,-160.57 478.38,-144.09 450.15,-132.78"/>
<polygon fill="#63b8ff" stroke="#63b8ff" points="451.34,-129.49 440.76,-129.02 448.74,-135.99 451.34,-129.49"/>
</a>
</g>
</g>
<!-- Node59 -->
<g id="Node000059" class="node">
<title>Node59</title>
<g id="a_Node000059"><a xlink:title=" ">
<polygon fill="#e0e0e0" stroke="#999999" points="310,-129 171,-129 171,-110 310,-110 310,-129"/>
<text text-anchor="middle" x="240.5" y="-117" font-family="Helvetica,sans-Serif" font-size="10.00">generated_comp_funcs.h</text>
</a>
</g>
</g>
<!-- Node57&#45;&gt;Node59 -->
<g id="edge63_Node000057_Node000059" class="edge">
<title>Node57&#45;&gt;Node59</title>
<g id="a_edge63_Node000057_Node000059"><a xlink:title=" ">
<path fill="none" stroke="#63b8ff" d="M526.94,-172.06C470.28,-161.86 364.13,-142.75 298.17,-130.88"/>
<polygon fill="#63b8ff" stroke="#63b8ff" points="298.41,-127.37 287.95,-129.04 297.17,-134.26 298.41,-127.37"/>
</a>
</g>
</g>
<!-- Node58&#45;&gt;Node26 -->
<g id="edge62_Node000058_Node000026" class="edge">
<title>Node58&#45;&gt;Node26</title>
<g id="a_edge62_Node000058_Node000026"><a xlink:title=" ">
<path fill="none" stroke="#63b8ff" d="M366.49,-111C306.47,-102.5 205.46,-88.15 109.08,-74.22"/>
<polygon fill="#63b8ff" stroke="#63b8ff" points="109.57,-70.76 99.17,-72.79 108.57,-77.69 109.57,-70.76"/>
</a>
</g>
</g>
<!-- Node63 -->
<g id="Node000063" class="node">
<title>Node63</title>
<g id="a_Node000063"><a xlink:title=" ">
<polygon fill="#e0e0e0" stroke="#999999" points="2301.5,-250 2257.5,-250 2257.5,-231 2301.5,-231 2301.5,-250"/>
<text text-anchor="middle" x="2279.5" y="-238" font-family="Helvetica,sans-Serif" font-size="10.00">string</text>
</a>
</g>
</g>
<!-- Node62&#45;&gt;Node63 -->
<g id="edge67_Node000062_Node000063" class="edge">
<title>Node62&#45;&gt;Node63</title>
<g id="a_edge67_Node000062_Node000063"><a xlink:title=" ">
<path fill="none" stroke="#63b8ff" d="M2319.57,-285.75C2312.65,-278.11 2302.43,-266.82 2294.05,-257.56"/>
<polygon fill="#63b8ff" stroke="#63b8ff" points="2296.59,-255.15 2287.28,-250.09 2291.4,-259.85 2296.59,-255.15"/>
</a>
</g>
</g>
<!-- Node64 -->
<g id="Node000064" class="node">
<title>Node64</title>
<g id="a_Node000064"><a xlink:title=" ">
<polygon fill="#e0e0e0" stroke="#999999" points="2433,-250 2320,-250 2320,-231 2433,-231 2433,-250"/>
<text text-anchor="middle" x="2376.5" y="-238" font-family="Helvetica,sans-Serif" font-size="10.00">get_default_value.h</text>
</a>
</g>
</g>
<!-- Node62&#45;&gt;Node64 -->
<g id="edge68_Node000062_Node000064" class="edge">
<title>Node62&#45;&gt;Node64</title>
<g id="a_edge68_Node000062_Node000064"><a xlink:title=" ">
<path fill="none" stroke="#63b8ff" d="M2335.59,-285.75C2342.66,-278.11 2353.09,-266.82 2361.65,-257.56"/>
<polygon fill="#63b8ff" stroke="#63b8ff" points="2364.34,-259.81 2368.56,-250.09 2359.2,-255.06 2364.34,-259.81"/>
</a>
</g>
</g>
<!-- Node65 -->
<g id="Node000065" class="node">
<title>Node65</title>
<g id="a_Node000065"><a xlink:title=" ">
<polygon fill="#e0e0e0" stroke="#999999" points="2536,-250 2451,-250 2451,-231 2536,-231 2536,-250"/>
<text text-anchor="middle" x="2493.5" y="-238" font-family="Helvetica,sans-Serif" font-size="10.00">to_str_funcs.h</text>
</a>
</g>
</g>
<!-- Node62&#45;&gt;Node65 -->
<g id="edge69_Node000062_Node000065" class="edge">
<title>Node62&#45;&gt;Node65</title>
<g id="a_edge69_Node000062_Node000065"><a xlink:title=" ">
<path fill="none" stroke="#63b8ff" d="M2354.17,-285.98C2382.04,-277.09 2425.95,-263.07 2457.02,-253.15"/>
<polygon fill="#63b8ff" stroke="#63b8ff" points="2458.16,-256.46 2466.62,-250.08 2456.03,-249.79 2458.16,-256.46"/>
</a>
</g>
</g>
</g>
</svg>
