<?xml version="1.0" encoding="UTF-8" standalone="no"?>
<!DOCTYPE svg PUBLIC "-//W3C//DTD SVG 1.1//EN"
 "http://www.w3.org/Graphics/SVG/1.1/DTD/svg11.dtd">
<!-- Generated by graphviz version 2.43.0 (0)
 -->
<!-- Title: src/utils/astaroth_forcing.cc Pages: 1 -->
<!--zoomable 335 -->

<svg id="main" version="1.1" xmlns="http://www.w3.org/2000/svg" xmlns:xlink="http://www.w3.org/1999/xlink" xml:space="preserve" onload="init(evt)">
<style type="text/css"><![CDATA[
.node, .edge {opacity: 0.7;}
.node.selected, .edge.selected {opacity: 1;}
.edge:hover path { stroke: red; }
.edge:hover polygon { stroke: red; fill: red; }
]]></style>

<defs>
  <circle id="rim" cx="0" cy="0" r="7"/>
  <circle id="rim2" cx="0" cy="0" r="3.5"/>
  <g id="zoomPlus">
    <use xlink:href="#rim" fill="#404040"><set attributeName="fill" to="#808080" begin="zoomplus.mouseover" end="zoomplus.mouseout"/></use>
    <path d="M-4,0h8M0,-4v8" fill="none" stroke="white" stroke-width="1.5" pointer-events="none"/>
  </g>
  <g id="zoomMin">
    <use xlink:href="#rim" fill="#404040"><set attributeName="fill" to="#808080" begin="zoomminus.mouseover" end="zoomminus.mouseout"/></use>
    <path d="M-4,0h8" fill="none" stroke="white" stroke-width="1.5" pointer-events="none"/>
  </g>
  <g id="arrowUp" transform="translate(30 24)">
    <use xlink:href="#rim"/>
    <path pointer-events="none" fill="none" stroke="white" stroke-width="1.5" d="M0,-3.0v7 M-2.5,-0.5L0,-3.0L2.5,-0.5"/>
  </g>
  <g id="arrowRight" transform="rotate(90) translate(36 -43)">
    <use xlink:href="#rim"/>
    <path pointer-events="none" fill="none" stroke="white" stroke-width="1.5" d="M0,-3.0v7 M-2.5,-0.5L0,-3.0L2.5,-0.5"/>
  </g>
  <g id="arrowDown" transform="rotate(180) translate(-30 -48)">
    <use xlink:href="#rim"/>
    <path pointer-events="none" fill="none" stroke="white" stroke-width="1.5" d="M0,-3.0v7 M-2.5,-0.5L0,-3.0L2.5,-0.5"/>
  </g>
  <g id="arrowLeft" transform="rotate(270) translate(-36 17)">
    <use xlink:href="#rim"/>
    <path pointer-events="none" fill="none" stroke="white" stroke-width="1.5" d="M0,-3.0v7 M-2.5,-0.5L0,-3.0L2.5,-0.5"/>
  </g>
  <g id="resetDef">
    <use xlink:href="#rim2" fill="#404040"><set attributeName="fill" to="#808080" begin="reset.mouseover" end="reset.mouseout"/></use>
  </g>
</defs>
<script type="application/ecmascript">
var viewWidth = 3248;
var viewHeight = 335;
var sectionId = 'dynsection-0';
</script>
<script type="application/ecmascript" xlink:href="svg.min.js"/>
<svg id="graph" class="graph">
<g id="viewport">
<title>src/utils/astaroth_forcing.cc</title>
<!-- Node1 -->
<g id="Node000001" class="node">
<title>Node1</title>
<g id="a_Node000001"><a xlink:title="Brief info.">
<polygon fill="#999999" stroke="#666666" points="2093.04,-327 1995.04,-327 1995.04,-297 2093.04,-297 2093.04,-327"/>
<text text-anchor="start" x="2003.04" y="-315" font-family="Helvetica,sans-Serif" font-size="10.00">src/utils/astaroth</text>
<text text-anchor="middle" x="2044.04" y="-304" font-family="Helvetica,sans-Serif" font-size="10.00">_forcing.cc</text>
</a>
</g>
</g>
<!-- Node2 -->
<g id="Node000002" class="node">
<title>Node2</title>
<g id="a_Node000002"><a xlink:href="astaroth__base_8h.html" target="_top" xlink:title=" ">
<polygon fill="white" stroke="#666666" points="1065.54,-261 970.54,-261 970.54,-242 1065.54,-242 1065.54,-261"/>
<text text-anchor="middle" x="1018.04" y="-249" font-family="Helvetica,sans-Serif" font-size="10.00">astaroth_base.h</text>
</a>
</g>
</g>
<!-- Node1&#45;&gt;Node2 -->
<g id="edge1_Node000001_Node000002" class="edge">
<title>Node1&#45;&gt;Node2</title>
<g id="a_edge1_Node000001_Node000002"><a xlink:title=" ">
<path fill="none" stroke="#63b8ff" d="M1994.9,-308.2C1824.43,-298.48 1258.96,-266.24 1075.82,-255.79"/>
<polygon fill="#63b8ff" stroke="#63b8ff" points="1075.78,-252.29 1065.59,-255.21 1075.38,-259.28 1075.78,-252.29"/>
</a>
</g>
</g>
<!-- Node18 -->
<g id="Node000018" class="node">
<title>Node18</title>
<g id="a_Node000018"><a xlink:href="errchk_8h.html" target="_top" xlink:title="Brief info.">
<polygon fill="white" stroke="#666666" points="2536.04,-134.5 2480.04,-134.5 2480.04,-115.5 2536.04,-115.5 2536.04,-134.5"/>
<text text-anchor="middle" x="2508.04" y="-122.5" font-family="Helvetica,sans-Serif" font-size="10.00">errchk.h</text>
</a>
</g>
</g>
<!-- Node1&#45;&gt;Node18 -->
<g id="edge58_Node000001_Node000018" class="edge">
<title>Node1&#45;&gt;Node18</title>
<g id="a_edge58_Node000001_Node000018"><a xlink:title=" ">
<path fill="none" stroke="#63b8ff" d="M2039.89,-296.86C2036.34,-281.58 2033.57,-257.35 2046.04,-242 2168.5,-91.21 2285.38,-197.15 2471.04,-140 2472.96,-139.41 2474.92,-138.77 2476.9,-138.1"/>
<polygon fill="#63b8ff" stroke="#63b8ff" points="2478.44,-141.27 2486.68,-134.61 2476.08,-134.68 2478.44,-141.27"/>
</a>
</g>
</g>
<!-- Node42 -->
<g id="Node000042" class="node">
<title>Node42</title>
<g id="a_Node000042"><a xlink:href="astaroth__forcing_8h.html" target="_top" xlink:title=" ">
<polygon fill="white" stroke="#666666" points="1726.54,-261 1621.54,-261 1621.54,-242 1726.54,-242 1726.54,-261"/>
<text text-anchor="middle" x="1674.04" y="-249" font-family="Helvetica,sans-Serif" font-size="10.00">astaroth_forcing.h</text>
</a>
</g>
</g>
<!-- Node1&#45;&gt;Node42 -->
<g id="edge52_Node000001_Node000042" class="edge">
<title>Node1&#45;&gt;Node42</title>
<g id="a_edge52_Node000001_Node000042"><a xlink:title=" ">
<path fill="none" stroke="#63b8ff" d="M1994.9,-303.23C1928.35,-292.71 1809.5,-273.92 1736.63,-262.4"/>
<polygon fill="#63b8ff" stroke="#63b8ff" points="1737.09,-258.93 1726.66,-260.82 1735.99,-265.84 1737.09,-258.93"/>
</a>
</g>
</g>
<!-- Node43 -->
<g id="Node000043" class="node">
<title>Node43</title>
<g id="a_Node000043"><a xlink:href="astaroth__random_8h.html" target="_top" xlink:title=" ">
<polygon fill="white" stroke="#666666" points="2806.54,-200.5 2697.54,-200.5 2697.54,-181.5 2806.54,-181.5 2806.54,-200.5"/>
<text text-anchor="middle" x="2752.04" y="-188.5" font-family="Helvetica,sans-Serif" font-size="10.00">astaroth_random.h</text>
</a>
</g>
</g>
<!-- Node1&#45;&gt;Node43 -->
<g id="edge54_Node000001_Node000043" class="edge">
<title>Node1&#45;&gt;Node43</title>
<g id="a_edge54_Node000001_Node000043"><a xlink:title=" ">
<path fill="none" stroke="#63b8ff" d="M2043.73,-296.82C2044.23,-280.78 2047.75,-255.19 2064.04,-242 2111.77,-203.35 2524.71,-194.54 2686.97,-192.56"/>
<polygon fill="#63b8ff" stroke="#63b8ff" points="2687.33,-196.06 2697.29,-192.44 2687.25,-189.06 2687.33,-196.06"/>
</a>
</g>
</g>
<!-- Node45 -->
<g id="Node000045" class="node">
<title>Node45</title>
<g id="a_Node000045"><a xlink:title=" ">
<polygon fill="#e0e0e0" stroke="#999999" points="2119.54,-261 2072.54,-261 2072.54,-242 2119.54,-242 2119.54,-261"/>
<text text-anchor="middle" x="2096.04" y="-249" font-family="Helvetica,sans-Serif" font-size="10.00">cmath</text>
</a>
</g>
</g>
<!-- Node1&#45;&gt;Node45 -->
<g id="edge59_Node000001_Node000045" class="edge">
<title>Node1&#45;&gt;Node45</title>
<g id="a_edge59_Node000001_Node000045"><a xlink:title=" ">
<path fill="none" stroke="#63b8ff" d="M2056.63,-296.84C2064.1,-288.43 2073.6,-277.74 2081.41,-268.96"/>
<polygon fill="#63b8ff" stroke="#63b8ff" points="2084.22,-271.07 2088.25,-261.27 2078.99,-266.41 2084.22,-271.07"/>
</a>
</g>
</g>
<!-- Node46 -->
<g id="Node000046" class="node">
<title>Node46</title>
<g id="a_Node000046"><a xlink:title=" ">
<polygon fill="#e0e0e0" stroke="#999999" points="2176.04,-261 2138.04,-261 2138.04,-242 2176.04,-242 2176.04,-261"/>
<text text-anchor="middle" x="2157.04" y="-249" font-family="Helvetica,sans-Serif" font-size="10.00">map</text>
</a>
</g>
</g>
<!-- Node1&#45;&gt;Node46 -->
<g id="edge60_Node000001_Node000046" class="edge">
<title>Node1&#45;&gt;Node46</title>
<g id="a_edge60_Node000001_Node000046"><a xlink:title=" ">
<path fill="none" stroke="#63b8ff" d="M2071.1,-296.99C2089.28,-287.58 2113.11,-275.24 2131.06,-265.95"/>
<polygon fill="#63b8ff" stroke="#63b8ff" points="2133.08,-268.84 2140.35,-261.14 2129.86,-262.63 2133.08,-268.84"/>
</a>
</g>
</g>
<!-- Node47 -->
<g id="Node000047" class="node">
<title>Node47</title>
<g id="a_Node000047"><a xlink:title=" ">
<polygon fill="#e0e0e0" stroke="#999999" points="2241.54,-261 2194.54,-261 2194.54,-242 2241.54,-242 2241.54,-261"/>
<text text-anchor="middle" x="2218.04" y="-249" font-family="Helvetica,sans-Serif" font-size="10.00">vector</text>
</a>
</g>
</g>
<!-- Node1&#45;&gt;Node47 -->
<g id="edge61_Node000001_Node000047" class="edge">
<title>Node1&#45;&gt;Node47</title>
<g id="a_edge61_Node000001_Node000047"><a xlink:title=" ">
<path fill="none" stroke="#63b8ff" d="M2085.72,-296.99C2115.98,-286.81 2156.4,-273.22 2184.57,-263.75"/>
<polygon fill="#63b8ff" stroke="#63b8ff" points="2185.99,-266.97 2194.35,-260.46 2183.76,-260.33 2185.99,-266.97"/>
</a>
</g>
</g>
<!-- Node3 -->
<g id="Node000003" class="node">
<title>Node3</title>
<g id="a_Node000003"><a xlink:title=" ">
<polygon fill="#e0e0e0" stroke="#999999" points="217.04,-74 155.04,-74 155.04,-55 217.04,-55 217.04,-74"/>
<text text-anchor="middle" x="186.04" y="-62" font-family="Helvetica,sans-Serif" font-size="10.00">stdbool.h</text>
</a>
</g>
</g>
<!-- Node2&#45;&gt;Node3 -->
<g id="edge2_Node000002_Node000003" class="edge">
<title>Node2&#45;&gt;Node3</title>
<g id="a_edge2_Node000002_Node000003"><a xlink:title=" ">
<path fill="none" stroke="#63b8ff" d="M970.48,-249.03C779.08,-242.63 72.28,-214.1 9.04,-140 -31.25,-92.8 80.62,-74.85 144.69,-68.57"/>
<polygon fill="#63b8ff" stroke="#63b8ff" points="145.27,-72.03 154.91,-67.63 144.63,-65.06 145.27,-72.03"/>
</a>
</g>
</g>
<!-- Node4 -->
<g id="Node000004" class="node">
<title>Node4</title>
<g id="a_Node000004"><a xlink:href="acc__runtime_8h.html" target="_top" xlink:title=" ">
<polygon fill="white" stroke="#666666" points="1466.04,-200.5 1380.04,-200.5 1380.04,-181.5 1466.04,-181.5 1466.04,-200.5"/>
<text text-anchor="middle" x="1423.04" y="-188.5" font-family="Helvetica,sans-Serif" font-size="10.00">acc_runtime.h</text>
</a>
</g>
</g>
<!-- Node2&#45;&gt;Node4 -->
<g id="edge3_Node000002_Node000004" class="edge">
<title>Node2&#45;&gt;Node4</title>
<g id="a_edge3_Node000002_Node000004"><a xlink:title=" ">
<path fill="none" stroke="#63b8ff" d="M1065.69,-243.62C1141.73,-232.63 1290.04,-211.21 1369.59,-199.72"/>
<polygon fill="#63b8ff" stroke="#63b8ff" points="1370.48,-203.13 1379.87,-198.23 1369.47,-196.2 1370.48,-203.13"/>
</a>
</g>
</g>
<!-- Node24 -->
<g id="Node000024" class="node">
<title>Node24</title>
<g id="a_Node000024"><a xlink:title=" ">
<polygon fill="#e0e0e0" stroke="#999999" points="157.54,-134.5 18.54,-134.5 18.54,-115.5 157.54,-115.5 157.54,-134.5"/>
<text text-anchor="middle" x="88.04" y="-122.5" font-family="Helvetica,sans-Serif" font-size="10.00">user_built&#45;in_constants.h</text>
</a>
</g>
</g>
<!-- Node2&#45;&gt;Node24 -->
<g id="edge50_Node000002_Node000024" class="edge">
<title>Node2&#45;&gt;Node24</title>
<g id="a_edge50_Node000002_Node000024"><a xlink:title=" ">
<path fill="none" stroke="#63b8ff" d="M970.25,-244.86C841.27,-229.5 475.32,-185.07 172.04,-140 164.03,-138.81 155.61,-137.49 147.31,-136.15"/>
<polygon fill="#63b8ff" stroke="#63b8ff" points="147.73,-132.67 137.3,-134.51 146.6,-139.58 147.73,-132.67"/>
</a>
</g>
</g>
<!-- Node41 -->
<g id="Node000041" class="node">
<title>Node41</title>
<g id="a_Node000041"><a xlink:title=" ">
<polygon fill="#e0e0e0" stroke="#999999" points="1083.54,-206 952.54,-206 952.54,-176 1083.54,-176 1083.54,-206"/>
<text text-anchor="start" x="960.54" y="-194" font-family="Helvetica,sans-Serif" font-size="10.00">user_builtin_non_scalar</text>
<text text-anchor="middle" x="1018.04" y="-183" font-family="Helvetica,sans-Serif" font-size="10.00">_constants.h</text>
</a>
</g>
</g>
<!-- Node2&#45;&gt;Node41 -->
<g id="edge51_Node000002_Node000041" class="edge">
<title>Node2&#45;&gt;Node41</title>
<g id="a_edge51_Node000002_Node000041"><a xlink:title=" ">
<path fill="none" stroke="#63b8ff" d="M1018.04,-241.87C1018.04,-235.11 1018.04,-225.35 1018.04,-216.26"/>
<polygon fill="#63b8ff" stroke="#63b8ff" points="1021.54,-216.11 1018.04,-206.11 1014.54,-216.11 1021.54,-216.11"/>
</a>
</g>
</g>
<!-- Node4&#45;&gt;Node3 -->
<g id="edge5_Node000004_Node000003" class="edge">
<title>Node4&#45;&gt;Node3</title>
<g id="a_edge5_Node000004_Node000003"><a xlink:title=" ">
<path fill="none" stroke="#63b8ff" d="M1379.93,-188.15C1316.76,-185.45 1195.34,-180.28 1092.04,-176 1042.76,-173.96 243.36,-171.04 205.04,-140 188.7,-126.77 185.27,-101.62 185.06,-84.22"/>
<polygon fill="#63b8ff" stroke="#63b8ff" points="188.56,-84.19 185.27,-74.12 181.56,-84.04 188.56,-84.19"/>
</a>
</g>
</g>
<!-- Node5 -->
<g id="Node000005" class="node">
<title>Node5</title>
<g id="a_Node000005"><a xlink:title=" ">
<polygon fill="#e0e0e0" stroke="#999999" points="2207.04,-74 2157.04,-74 2157.04,-55 2207.04,-55 2207.04,-74"/>
<text text-anchor="middle" x="2182.04" y="-62" font-family="Helvetica,sans-Serif" font-size="10.00">stdio.h</text>
</a>
</g>
</g>
<!-- Node4&#45;&gt;Node5 -->
<g id="edge4_Node000004_Node000005" class="edge">
<title>Node4&#45;&gt;Node5</title>
<g id="a_edge4_Node000004_Node000005"><a xlink:title=" ">
<path fill="none" stroke="#63b8ff" d="M1466.15,-189.14C1637.25,-185.5 2260.51,-170.22 2289.04,-140 2298.19,-130.3 2296.44,-121.09 2289.04,-110 2280.61,-97.37 2244.91,-84.16 2217.04,-75.45"/>
<polygon fill="#63b8ff" stroke="#63b8ff" points="2217.78,-72.01 2207.19,-72.45 2215.74,-78.71 2217.78,-72.01"/>
</a>
</g>
</g>
<!-- Node6 -->
<g id="Node000006" class="node">
<title>Node6</title>
<g id="a_Node000006"><a xlink:href="device__headers_8h.html" target="_top" xlink:title=" ">
<polygon fill="white" stroke="#666666" points="2808.04,-74 2706.04,-74 2706.04,-55 2808.04,-55 2808.04,-74"/>
<text text-anchor="middle" x="2757.04" y="-62" font-family="Helvetica,sans-Serif" font-size="10.00">device_headers.h</text>
</a>
</g>
</g>
<!-- Node4&#45;&gt;Node6 -->
<g id="edge6_Node000004_Node000006" class="edge">
<title>Node4&#45;&gt;Node6</title>
<g id="a_edge6_Node000004_Node000006"><a xlink:title=" ">
<path fill="none" stroke="#63b8ff" d="M1466.21,-189.76C1645.61,-188.52 2332.67,-181.11 2545.04,-140 2613.36,-126.77 2689.4,-95.81 2729.23,-78.24"/>
<polygon fill="#63b8ff" stroke="#63b8ff" points="2730.84,-81.36 2738.55,-74.09 2727.99,-74.97 2730.84,-81.36"/>
</a>
</g>
</g>
<!-- Node9 -->
<g id="Node000009" class="node">
<title>Node9</title>
<g id="a_Node000009"><a xlink:title=" ">
<polygon fill="#e0e0e0" stroke="#999999" points="2320.54,-74 2225.54,-74 2225.54,-55 2320.54,-55 2320.54,-74"/>
<text text-anchor="middle" x="2273.04" y="-62" font-family="Helvetica,sans-Serif" font-size="10.00">builtin_enums.h</text>
</a>
</g>
</g>
<!-- Node4&#45;&gt;Node9 -->
<g id="edge9_Node000004_Node000009" class="edge">
<title>Node4&#45;&gt;Node9</title>
<g id="a_edge9_Node000004_Node000009"><a xlink:title=" ">
<path fill="none" stroke="#63b8ff" d="M1466.11,-189.19C1639.29,-185.71 2276.89,-170.85 2306.04,-140 2321.74,-123.39 2304.48,-98.07 2289.61,-81.65"/>
<polygon fill="#63b8ff" stroke="#63b8ff" points="2292.09,-79.19 2282.65,-74.39 2287.04,-84.03 2292.09,-79.19"/>
</a>
</g>
</g>
<!-- Node10 -->
<g id="Node000010" class="node">
<title>Node10</title>
<g id="a_Node000010"><a xlink:href="datatypes_8h.html" target="_top" xlink:title=" ">
<polygon fill="white" stroke="#666666" points="2839.04,-134.5 2765.04,-134.5 2765.04,-115.5 2839.04,-115.5 2839.04,-134.5"/>
<text text-anchor="middle" x="2802.04" y="-122.5" font-family="Helvetica,sans-Serif" font-size="10.00">datatypes.h</text>
</a>
</g>
</g>
<!-- Node4&#45;&gt;Node10 -->
<g id="edge10_Node000004_Node000010" class="edge">
<title>Node4&#45;&gt;Node10</title>
<g id="a_edge10_Node000004_Node000010"><a xlink:title=" ">
<path fill="none" stroke="#63b8ff" d="M1466.1,-188.99C1623.7,-185.12 2183.93,-169.98 2645.04,-140 2681.96,-137.6 2723.68,-133.83 2754.83,-130.81"/>
<polygon fill="#63b8ff" stroke="#63b8ff" points="2755.35,-134.27 2764.96,-129.81 2754.67,-127.3 2755.35,-134.27"/>
</a>
</g>
</g>
<!-- Node4&#45;&gt;Node18 -->
<g id="edge22_Node000004_Node000018" class="edge">
<title>Node4&#45;&gt;Node18</title>
<g id="a_edge22_Node000004_Node000018"><a xlink:title=" ">
<path fill="none" stroke="#63b8ff" d="M1466.15,-188.74C1650.99,-183.24 2371.66,-160.63 2471.04,-140 2473.72,-139.44 2476.46,-138.72 2479.18,-137.9"/>
<polygon fill="#63b8ff" stroke="#63b8ff" points="2480.48,-141.15 2488.79,-134.59 2478.2,-134.53 2480.48,-141.15"/>
</a>
</g>
</g>
<!-- Node22 -->
<g id="Node000022" class="node">
<title>Node22</title>
<g id="a_Node000022"><a xlink:title=" ">
<polygon fill="#e0e0e0" stroke="#999999" points="2461.54,-134.5 2374.54,-134.5 2374.54,-115.5 2461.54,-115.5 2461.54,-134.5"/>
<text text-anchor="middle" x="2418.04" y="-122.5" font-family="Helvetica,sans-Serif" font-size="10.00">user_defines.h</text>
</a>
</g>
</g>
<!-- Node4&#45;&gt;Node22 -->
<g id="edge31_Node000004_Node000022" class="edge">
<title>Node4&#45;&gt;Node22</title>
<g id="a_edge31_Node000004_Node000022"><a xlink:title=" ">
<path fill="none" stroke="#63b8ff" d="M1466.13,-188.75C1625.85,-183.96 2183.93,-165.73 2360.04,-140 2365.61,-139.19 2371.43,-138.09 2377.15,-136.86"/>
<polygon fill="#63b8ff" stroke="#63b8ff" points="2378.27,-140.19 2387.24,-134.54 2376.71,-133.37 2378.27,-140.19"/>
</a>
</g>
</g>
<!-- Node23 -->
<g id="Node000023" class="node">
<title>Node23</title>
<g id="a_Node000023"><a xlink:title=" ">
<polygon fill="#e0e0e0" stroke="#999999" points="300.04,-134.5 214.04,-134.5 214.04,-115.5 300.04,-115.5 300.04,-134.5"/>
<text text-anchor="middle" x="257.04" y="-122.5" font-family="Helvetica,sans-Serif" font-size="10.00">profiles_info.h</text>
</a>
</g>
</g>
<!-- Node4&#45;&gt;Node23 -->
<g id="edge32_Node000004_Node000023" class="edge">
<title>Node4&#45;&gt;Node23</title>
<g id="a_edge32_Node000004_Node000023"><a xlink:title=" ">
<path fill="none" stroke="#63b8ff" d="M1379.94,-188.13C1176.62,-179.29 322.52,-142.09 309.04,-140 304.21,-139.25 299.19,-138.22 294.25,-137.07"/>
<polygon fill="#63b8ff" stroke="#63b8ff" points="294.88,-133.61 284.32,-134.54 293.16,-140.4 294.88,-133.61"/>
</a>
</g>
</g>
<!-- Node4&#45;&gt;Node24 -->
<g id="edge33_Node000004_Node000024" class="edge">
<title>Node4&#45;&gt;Node24</title>
<g id="a_edge33_Node000004_Node000024"><a xlink:title=" ">
<path fill="none" stroke="#63b8ff" d="M1379.93,-188.13C1316.76,-185.41 1195.34,-180.21 1092.04,-176 683.17,-159.35 579.11,-181.72 172.04,-140 162.54,-139.03 152.49,-137.65 142.77,-136.14"/>
<polygon fill="#63b8ff" stroke="#63b8ff" points="143.23,-132.67 132.8,-134.53 142.11,-139.58 143.23,-132.67"/>
</a>
</g>
</g>
<!-- Node25 -->
<g id="Node000025" class="node">
<title>Node25</title>
<g id="a_Node000025"><a xlink:href="func__attributes_8h.html" target="_top" xlink:title=" ">
<polygon fill="white" stroke="#666666" points="417.54,-134.5 318.54,-134.5 318.54,-115.5 417.54,-115.5 417.54,-134.5"/>
<text text-anchor="middle" x="368.04" y="-122.5" font-family="Helvetica,sans-Serif" font-size="10.00">func_attributes.h</text>
</a>
</g>
</g>
<!-- Node4&#45;&gt;Node25 -->
<g id="edge34_Node000004_Node000025" class="edge">
<title>Node4&#45;&gt;Node25</title>
<g id="a_edge34_Node000004_Node000025"><a xlink:title=" ">
<path fill="none" stroke="#63b8ff" d="M1379.99,-188.07C1194.89,-179.72 473.85,-146.91 426.04,-140 420.46,-139.19 414.64,-138.1 408.93,-136.87"/>
<polygon fill="#63b8ff" stroke="#63b8ff" points="409.36,-133.38 398.83,-134.56 407.8,-140.21 409.36,-133.38"/>
</a>
</g>
</g>
<!-- Node26 -->
<g id="Node000026" class="node">
<title>Node26</title>
<g id="a_Node000026"><a xlink:title=" ">
<polygon fill="#e0e0e0" stroke="#999999" points="560.54,-134.5 435.54,-134.5 435.54,-115.5 560.54,-115.5 560.54,-134.5"/>
<text text-anchor="middle" x="498.04" y="-122.5" font-family="Helvetica,sans-Serif" font-size="10.00">user_input_typedefs.h</text>
</a>
</g>
</g>
<!-- Node4&#45;&gt;Node26 -->
<g id="edge35_Node000004_Node000026" class="edge">
<title>Node4&#45;&gt;Node26</title>
<g id="a_edge35_Node000004_Node000026"><a xlink:title=" ">
<path fill="none" stroke="#63b8ff" d="M1379.97,-188.26C1229.62,-182.05 728.61,-160.31 569.04,-140 561.59,-139.05 553.74,-137.78 546.09,-136.39"/>
<polygon fill="#63b8ff" stroke="#63b8ff" points="546.68,-132.94 536.2,-134.52 545.38,-139.82 546.68,-132.94"/>
</a>
</g>
</g>
<!-- Node27 -->
<g id="Node000027" class="node">
<title>Node27</title>
<g id="a_Node000027"><a xlink:title=" ">
<polygon fill="#e0e0e0" stroke="#999999" points="661.54,-134.5 578.54,-134.5 578.54,-115.5 661.54,-115.5 661.54,-134.5"/>
<text text-anchor="middle" x="620.04" y="-122.5" font-family="Helvetica,sans-Serif" font-size="10.00">output_decl.h</text>
</a>
</g>
</g>
<!-- Node4&#45;&gt;Node27 -->
<g id="edge36_Node000004_Node000027" class="edge">
<title>Node4&#45;&gt;Node27</title>
<g id="a_edge36_Node000004_Node000027"><a xlink:title=" ">
<path fill="none" stroke="#63b8ff" d="M1379.62,-188.26C1240.82,-182.54 808.93,-163.27 671.04,-140 666.48,-139.23 661.75,-138.22 657.08,-137.1"/>
<polygon fill="#63b8ff" stroke="#63b8ff" points="657.63,-133.63 647.07,-134.51 655.88,-140.41 657.63,-133.63"/>
</a>
</g>
</g>
<!-- Node28 -->
<g id="Node000028" class="node">
<title>Node28</title>
<g id="a_Node000028"><a xlink:title=" ">
<polygon fill="#e0e0e0" stroke="#999999" points="796.04,-134.5 680.04,-134.5 680.04,-115.5 796.04,-115.5 796.04,-134.5"/>
<text text-anchor="middle" x="738.04" y="-122.5" font-family="Helvetica,sans-Serif" font-size="10.00">comp_loaded_decl.h</text>
</a>
</g>
</g>
<!-- Node4&#45;&gt;Node28 -->
<g id="edge37_Node000004_Node000028" class="edge">
<title>Node4&#45;&gt;Node28</title>
<g id="a_edge37_Node000004_Node000028"><a xlink:title=" ">
<path fill="none" stroke="#63b8ff" d="M1379.75,-188.36C1278.67,-184.14 1019.45,-170.95 805.04,-140 798.4,-139.04 791.43,-137.83 784.6,-136.51"/>
<polygon fill="#63b8ff" stroke="#63b8ff" points="785.24,-133.07 774.75,-134.54 783.87,-139.93 785.24,-133.07"/>
</a>
</g>
</g>
<!-- Node29 -->
<g id="Node000029" class="node">
<title>Node29</title>
<g id="a_Node000029"><a xlink:title=" ">
<polygon fill="#e0e0e0" stroke="#999999" points="892.04,-134.5 814.04,-134.5 814.04,-115.5 892.04,-115.5 892.04,-134.5"/>
<text text-anchor="middle" x="853.04" y="-122.5" font-family="Helvetica,sans-Serif" font-size="10.00">comp_decl.h</text>
</a>
</g>
</g>
<!-- Node4&#45;&gt;Node29 -->
<g id="edge38_Node000004_Node000029" class="edge">
<title>Node4&#45;&gt;Node29</title>
<g id="a_edge38_Node000004_Node000029"><a xlink:title=" ">
<path fill="none" stroke="#63b8ff" d="M1380.02,-188.62C1290.25,-185.13 1076.72,-173.72 901.04,-140 897.08,-139.24 892.97,-138.29 888.9,-137.25"/>
<polygon fill="#63b8ff" stroke="#63b8ff" points="889.55,-133.8 878.98,-134.53 887.7,-140.55 889.55,-133.8"/>
</a>
</g>
</g>
<!-- Node30 -->
<g id="Node000030" class="node">
<title>Node30</title>
<g id="a_Node000030"><a xlink:title=" ">
<polygon fill="#e0e0e0" stroke="#999999" points="1018.04,-134.5 910.04,-134.5 910.04,-115.5 1018.04,-115.5 1018.04,-134.5"/>
<text text-anchor="middle" x="964.04" y="-122.5" font-family="Helvetica,sans-Serif" font-size="10.00">info_loaded_decl.h</text>
</a>
</g>
</g>
<!-- Node4&#45;&gt;Node30 -->
<g id="edge39_Node000004_Node000030" class="edge">
<title>Node4&#45;&gt;Node30</title>
<g id="a_edge39_Node000004_Node000030"><a xlink:title=" ">
<path fill="none" stroke="#63b8ff" d="M1379.77,-185.87C1306.75,-178.6 1154.54,-162.17 1027.04,-140 1021.31,-139 1015.32,-137.84 1009.4,-136.61"/>
<polygon fill="#63b8ff" stroke="#63b8ff" points="1010.08,-133.18 999.57,-134.5 1008.62,-140.02 1010.08,-133.18"/>
</a>
</g>
</g>
<!-- Node31 -->
<g id="Node000031" class="node">
<title>Node31</title>
<g id="a_Node000031"><a xlink:title=" ">
<polygon fill="#e0e0e0" stroke="#999999" points="1176.04,-134.5 1036.04,-134.5 1036.04,-115.5 1176.04,-115.5 1176.04,-134.5"/>
<text text-anchor="middle" x="1106.04" y="-122.5" font-family="Helvetica,sans-Serif" font-size="10.00">device_mesh_info_decl.h</text>
</a>
</g>
</g>
<!-- Node4&#45;&gt;Node31 -->
<g id="edge40_Node000004_Node000031" class="edge">
<title>Node4&#45;&gt;Node31</title>
<g id="a_edge40_Node000004_Node000031"><a xlink:title=" ">
<path fill="none" stroke="#63b8ff" d="M1380.61,-181.44C1323.08,-169.82 1220.38,-149.09 1158.2,-136.53"/>
<polygon fill="#63b8ff" stroke="#63b8ff" points="1158.7,-133.06 1148.21,-134.51 1157.32,-139.92 1158.7,-133.06"/>
</a>
</g>
</g>
<!-- Node32 -->
<g id="Node000032" class="node">
<title>Node32</title>
<g id="a_Node000032"><a xlink:title=" ">
<polygon fill="#e0e0e0" stroke="#999999" points="1271.54,-134.5 1194.54,-134.5 1194.54,-115.5 1271.54,-115.5 1271.54,-134.5"/>
<text text-anchor="middle" x="1233.04" y="-122.5" font-family="Helvetica,sans-Serif" font-size="10.00">array_decl.h</text>
</a>
</g>
</g>
<!-- Node4&#45;&gt;Node32 -->
<g id="edge41_Node000004_Node000032" class="edge">
<title>Node4&#45;&gt;Node32</title>
<g id="a_edge41_Node000004_Node000032"><a xlink:title=" ">
<path fill="none" stroke="#63b8ff" d="M1397.41,-181.37C1364.03,-170.12 1305.52,-150.42 1268.06,-137.8"/>
<polygon fill="#63b8ff" stroke="#63b8ff" points="1269.15,-134.47 1258.56,-134.6 1266.92,-141.11 1269.15,-134.47"/>
</a>
</g>
</g>
<!-- Node33 -->
<g id="Node000033" class="node">
<title>Node33</title>
<g id="a_Node000033"><a xlink:title=" ">
<polygon fill="#e0e0e0" stroke="#999999" points="1366.04,-134.5 1290.04,-134.5 1290.04,-115.5 1366.04,-115.5 1366.04,-134.5"/>
<text text-anchor="middle" x="1328.04" y="-122.5" font-family="Helvetica,sans-Serif" font-size="10.00">input_decl.h</text>
</a>
</g>
</g>
<!-- Node4&#45;&gt;Node33 -->
<g id="edge42_Node000004_Node000033" class="edge">
<title>Node4&#45;&gt;Node33</title>
<g id="a_edge42_Node000004_Node000033"><a xlink:title=" ">
<path fill="none" stroke="#63b8ff" d="M1410.23,-181.37C1394.64,-170.87 1368.11,-153 1349.42,-140.4"/>
<polygon fill="#63b8ff" stroke="#63b8ff" points="1351.2,-137.38 1340.95,-134.7 1347.29,-143.19 1351.2,-137.38"/>
</a>
</g>
</g>
<!-- Node34 -->
<g id="Node000034" class="node">
<title>Node34</title>
<g id="a_Node000034"><a xlink:href="ac__helpers_8h.html" target="_top" xlink:title=" ">
<polygon fill="white" stroke="#666666" points="1462.04,-134.5 1384.04,-134.5 1384.04,-115.5 1462.04,-115.5 1462.04,-134.5"/>
<text text-anchor="middle" x="1423.04" y="-122.5" font-family="Helvetica,sans-Serif" font-size="10.00">ac_helpers.h</text>
</a>
</g>
</g>
<!-- Node4&#45;&gt;Node34 -->
<g id="edge43_Node000004_Node000034" class="edge">
<title>Node4&#45;&gt;Node34</title>
<g id="a_edge43_Node000004_Node000034"><a xlink:title=" ">
<path fill="none" stroke="#63b8ff" d="M1423.04,-181.37C1423.04,-172.16 1423.04,-157.29 1423.04,-145.27"/>
<polygon fill="#63b8ff" stroke="#63b8ff" points="1426.54,-144.91 1423.04,-134.91 1419.54,-144.91 1426.54,-144.91"/>
</a>
</g>
</g>
<!-- Node35 -->
<g id="Node000035" class="node">
<title>Node35</title>
<g id="a_Node000035"><a xlink:title=" ">
<polygon fill="#e0e0e0" stroke="#999999" points="1598.04,-140 1480.04,-140 1480.04,-110 1598.04,-110 1598.04,-140"/>
<text text-anchor="start" x="1488.04" y="-128" font-family="Helvetica,sans-Serif" font-size="10.00">scalar_reduce_buffer</text>
<text text-anchor="middle" x="1539.04" y="-117" font-family="Helvetica,sans-Serif" font-size="10.00">_defs.h</text>
</a>
</g>
</g>
<!-- Node4&#45;&gt;Node35 -->
<g id="edge44_Node000004_Node000035" class="edge">
<title>Node4&#45;&gt;Node35</title>
<g id="a_edge44_Node000004_Node000035"><a xlink:title=" ">
<path fill="none" stroke="#63b8ff" d="M1438.68,-181.37C1455.46,-172.11 1482.62,-157.12 1504.47,-145.07"/>
<polygon fill="#63b8ff" stroke="#63b8ff" points="1506.39,-148.01 1513.45,-140.12 1503.01,-141.88 1506.39,-148.01"/>
</a>
</g>
</g>
<!-- Node36 -->
<g id="Node000036" class="node">
<title>Node36</title>
<g id="a_Node000036"><a xlink:title=" ">
<polygon fill="#e0e0e0" stroke="#999999" points="1739.54,-140 1616.54,-140 1616.54,-110 1739.54,-110 1739.54,-140"/>
<text text-anchor="start" x="1624.54" y="-128" font-family="Helvetica,sans-Serif" font-size="10.00">scalar_reduce_buffers</text>
<text text-anchor="middle" x="1678.04" y="-117" font-family="Helvetica,sans-Serif" font-size="10.00">_in_vba.h</text>
</a>
</g>
</g>
<!-- Node4&#45;&gt;Node36 -->
<g id="edge45_Node000004_Node000036" class="edge">
<title>Node4&#45;&gt;Node36</title>
<g id="a_edge45_Node000004_Node000036"><a xlink:title=" ">
<path fill="none" stroke="#63b8ff" d="M1457.16,-181.44C1496.65,-171.52 1562.59,-154.98 1612.16,-142.53"/>
<polygon fill="#63b8ff" stroke="#63b8ff" points="1613.31,-145.85 1622.16,-140.02 1611.61,-139.06 1613.31,-145.85"/>
</a>
</g>
</g>
<!-- Node37 -->
<g id="Node000037" class="node">
<title>Node37</title>
<g id="a_Node000037"><a xlink:href="astaroth__analysis_8h.html" target="_top" xlink:title=" ">
<polygon fill="white" stroke="#666666" points="1870.04,-134.5 1758.04,-134.5 1758.04,-115.5 1870.04,-115.5 1870.04,-134.5"/>
<text text-anchor="middle" x="1814.04" y="-122.5" font-family="Helvetica,sans-Serif" font-size="10.00">astaroth_analysis.h</text>
</a>
</g>
</g>
<!-- Node4&#45;&gt;Node37 -->
<g id="edge46_Node000004_Node000037" class="edge">
<title>Node4&#45;&gt;Node37</title>
<g id="a_edge46_Node000004_Node000037"><a xlink:title=" ">
<path fill="none" stroke="#63b8ff" d="M1466.16,-184.23C1528.68,-175.66 1648.1,-158.59 1749.04,-140 1754.57,-138.98 1760.36,-137.84 1766.09,-136.67"/>
<polygon fill="#63b8ff" stroke="#63b8ff" points="1767.24,-140 1776.31,-134.53 1765.8,-133.15 1767.24,-140"/>
</a>
</g>
</g>
<!-- Node38 -->
<g id="Node000038" class="node">
<title>Node38</title>
<g id="a_Node000038"><a xlink:href="common__kernels_8h.html" target="_top" xlink:title=" ">
<polygon fill="white" stroke="#666666" points="1997.54,-134.5 1888.54,-134.5 1888.54,-115.5 1997.54,-115.5 1997.54,-134.5"/>
<text text-anchor="middle" x="1943.04" y="-122.5" font-family="Helvetica,sans-Serif" font-size="10.00">common_kernels.h</text>
</a>
</g>
</g>
<!-- Node4&#45;&gt;Node38 -->
<g id="edge47_Node000004_Node000038" class="edge">
<title>Node4&#45;&gt;Node38</title>
<g id="a_edge47_Node000004_Node000038"><a xlink:title=" ">
<path fill="none" stroke="#63b8ff" d="M1466.31,-186.8C1547.56,-180.44 1728.33,-164.67 1879.04,-140 1884.93,-139.03 1891.11,-137.88 1897.19,-136.64"/>
<polygon fill="#63b8ff" stroke="#63b8ff" points="1898.22,-140 1907.29,-134.52 1896.78,-133.15 1898.22,-140"/>
</a>
</g>
</g>
<!-- Node39 -->
<g id="Node000039" class="node">
<title>Node39</title>
<g id="a_Node000039"><a xlink:title=" ">
<polygon fill="#e0e0e0" stroke="#999999" points="2128.04,-134.5 2016.04,-134.5 2016.04,-115.5 2128.04,-115.5 2128.04,-134.5"/>
<text text-anchor="middle" x="2072.04" y="-122.5" font-family="Helvetica,sans-Serif" font-size="10.00">user_declarations.h</text>
</a>
</g>
</g>
<!-- Node4&#45;&gt;Node39 -->
<g id="edge48_Node000004_Node000039" class="edge">
<title>Node4&#45;&gt;Node39</title>
<g id="a_edge48_Node000004_Node000039"><a xlink:title=" ">
<path fill="none" stroke="#63b8ff" d="M1466.12,-188.18C1563.14,-183.68 1806.02,-170.13 2007.04,-140 2013.33,-139.06 2019.93,-137.87 2026.41,-136.59"/>
<polygon fill="#63b8ff" stroke="#63b8ff" points="2027.34,-139.97 2036.43,-134.52 2025.93,-133.12 2027.34,-139.97"/>
</a>
</g>
</g>
<!-- Node40 -->
<g id="Node000040" class="node">
<title>Node40</title>
<g id="a_Node000040"><a xlink:title=" ">
<polygon fill="#e0e0e0" stroke="#999999" points="2280.04,-140 2146.04,-140 2146.04,-110 2280.04,-110 2280.04,-140"/>
<text text-anchor="start" x="2154.04" y="-128" font-family="Helvetica,sans-Serif" font-size="10.00">load_and_store_uniform</text>
<text text-anchor="middle" x="2213.04" y="-117" font-family="Helvetica,sans-Serif" font-size="10.00">_header.h</text>
</a>
</g>
</g>
<!-- Node4&#45;&gt;Node40 -->
<g id="edge49_Node000004_Node000040" class="edge">
<title>Node4&#45;&gt;Node40</title>
<g id="a_edge49_Node000004_Node000040"><a xlink:title=" ">
<path fill="none" stroke="#63b8ff" d="M1466.26,-188.66C1576.33,-184.9 1876.27,-172.38 2135.97,-140.04"/>
<polygon fill="#63b8ff" stroke="#63b8ff" points="2136.48,-143.5 2145.96,-138.78 2135.61,-136.55 2136.48,-143.5"/>
</a>
</g>
</g>
<!-- Node7 -->
<g id="Node000007" class="node">
<title>Node7</title>
<g id="a_Node000007"><a xlink:title=" ">
<polygon fill="#e0e0e0" stroke="#999999" points="3038.54,-19 2925.54,-19 2925.54,0 3038.54,0 3038.54,-19"/>
<text text-anchor="middle" x="2982.04" y="-7" font-family="Helvetica,sans-Serif" font-size="10.00">cuda_runtime_api.h</text>
</a>
</g>
</g>
<!-- Node6&#45;&gt;Node7 -->
<g id="edge7_Node000006_Node000007" class="edge">
<title>Node6&#45;&gt;Node7</title>
<g id="a_edge7_Node000006_Node000007"><a xlink:title=" ">
<path fill="none" stroke="#63b8ff" d="M2793.19,-54.98C2831.94,-45.86 2893.59,-31.33 2935.84,-21.38"/>
<polygon fill="#63b8ff" stroke="#63b8ff" points="2936.67,-24.78 2945.6,-19.08 2935.07,-17.97 2936.67,-24.78"/>
</a>
</g>
</g>
<!-- Node8 -->
<g id="Node000008" class="node">
<title>Node8</title>
<g id="a_Node000008"><a xlink:title=" ">
<polygon fill="#e0e0e0" stroke="#999999" points="2795.04,-19 2719.04,-19 2719.04,0 2795.04,0 2795.04,-19"/>
<text text-anchor="middle" x="2757.04" y="-7" font-family="Helvetica,sans-Serif" font-size="10.00">cuda_fp16.h</text>
</a>
</g>
</g>
<!-- Node6&#45;&gt;Node8 -->
<g id="edge8_Node000006_Node000008" class="edge">
<title>Node6&#45;&gt;Node8</title>
<g id="a_edge8_Node000006_Node000008"><a xlink:title=" ">
<path fill="none" stroke="#63b8ff" d="M2757.04,-54.75C2757.04,-47.8 2757.04,-37.85 2757.04,-29.13"/>
<polygon fill="#63b8ff" stroke="#63b8ff" points="2760.54,-29.09 2757.04,-19.09 2753.54,-29.09 2760.54,-29.09"/>
</a>
</g>
</g>
<!-- Node10&#45;&gt;Node6 -->
<g id="edge13_Node000010_Node000006" class="edge">
<title>Node10&#45;&gt;Node6</title>
<g id="a_edge13_Node000010_Node000006"><a xlink:title=" ">
<path fill="none" stroke="#63b8ff" d="M2795.4,-115.37C2788.75,-106.73 2778.35,-93.2 2770.05,-82.42"/>
<polygon fill="#63b8ff" stroke="#63b8ff" points="2772.58,-79.96 2763.7,-74.17 2767.03,-84.23 2772.58,-79.96"/>
</a>
</g>
</g>
<!-- Node10&#45;&gt;Node7 -->
<g id="edge15_Node000010_Node000007" class="edge">
<title>Node10&#45;&gt;Node7</title>
<g id="a_edge15_Node000010_Node000007"><a xlink:title=" ">
<path fill="none" stroke="#63b8ff" d="M2828.14,-115.37C2834.6,-113.43 2841.53,-111.5 2848.04,-110 2898.03,-98.5 3042.72,-113 3076.04,-74 3095.54,-51.17 3058.48,-33.02 3025.31,-22.06"/>
<polygon fill="#63b8ff" stroke="#63b8ff" points="3026.25,-18.69 3015.66,-19.03 3024.15,-25.36 3026.25,-18.69"/>
</a>
</g>
</g>
<!-- Node10&#45;&gt;Node9 -->
<g id="edge17_Node000010_Node000009" class="edge">
<title>Node10&#45;&gt;Node9</title>
<g id="a_edge17_Node000010_Node000009"><a xlink:title=" ">
<path fill="none" stroke="#63b8ff" d="M2764.84,-119.89C2673.94,-109.83 2439.99,-83.96 2330.79,-71.89"/>
<polygon fill="#63b8ff" stroke="#63b8ff" points="2330.94,-68.38 2320.62,-70.76 2330.17,-75.34 2330.94,-68.38"/>
</a>
</g>
</g>
<!-- Node11 -->
<g id="Node000011" class="node">
<title>Node11</title>
<g id="a_Node000011"><a xlink:title=" ">
<polygon fill="#e0e0e0" stroke="#999999" points="3170.54,-74 3123.54,-74 3123.54,-55 3170.54,-55 3170.54,-74"/>
<text text-anchor="middle" x="3147.04" y="-62" font-family="Helvetica,sans-Serif" font-size="10.00">float.h</text>
</a>
</g>
</g>
<!-- Node10&#45;&gt;Node11 -->
<g id="edge11_Node000010_Node000011" class="edge">
<title>Node10&#45;&gt;Node11</title>
<g id="a_edge11_Node000010_Node000011"><a xlink:title=" ">
<path fill="none" stroke="#63b8ff" d="M2827.64,-115.42C2834.23,-113.43 2841.35,-111.47 2848.04,-110 2962.41,-84.87 2993.8,-94.8 3109.04,-74 3110.49,-73.74 3111.98,-73.46 3113.47,-73.17"/>
<polygon fill="#63b8ff" stroke="#63b8ff" points="3114.3,-76.57 3123.38,-71.11 3112.88,-69.71 3114.3,-76.57"/>
</a>
</g>
</g>
<!-- Node12 -->
<g id="Node000012" class="node">
<title>Node12</title>
<g id="a_Node000012"><a xlink:title=" ">
<polygon fill="#e0e0e0" stroke="#999999" points="3239.54,-74 3188.54,-74 3188.54,-55 3239.54,-55 3239.54,-74"/>
<text text-anchor="middle" x="3214.04" y="-62" font-family="Helvetica,sans-Serif" font-size="10.00">math.h</text>
</a>
</g>
</g>
<!-- Node10&#45;&gt;Node12 -->
<g id="edge12_Node000010_Node000012" class="edge">
<title>Node10&#45;&gt;Node12</title>
<g id="a_edge12_Node000010_Node000012"><a xlink:title=" ">
<path fill="none" stroke="#63b8ff" d="M2827.13,-115.44C2833.85,-113.4 2841.17,-111.4 2848.04,-110 2990.18,-80.93 3032.05,-99.2 3178.25,-74.08"/>
<polygon fill="#63b8ff" stroke="#63b8ff" points="3179.26,-77.46 3188.5,-72.28 3178.04,-70.57 3179.26,-77.46"/>
</a>
</g>
</g>
<!-- Node13 -->
<g id="Node000013" class="node">
<title>Node13</title>
<g id="a_Node000013"><a xlink:title=" ">
<polygon fill="#e0e0e0" stroke="#999999" points="2953.54,-74 2864.54,-74 2864.54,-55 2953.54,-55 2953.54,-74"/>
<text text-anchor="middle" x="2909.04" y="-62" font-family="Helvetica,sans-Serif" font-size="10.00">vector_types.h</text>
</a>
</g>
</g>
<!-- Node10&#45;&gt;Node13 -->
<g id="edge14_Node000010_Node000013" class="edge">
<title>Node10&#45;&gt;Node13</title>
<g id="a_edge14_Node000010_Node000013"><a xlink:title=" ">
<path fill="none" stroke="#63b8ff" d="M2817.83,-115.37C2835.37,-105.78 2863.92,-90.17 2884.41,-78.97"/>
<polygon fill="#63b8ff" stroke="#63b8ff" points="2886.09,-82.04 2893.18,-74.17 2882.73,-75.89 2886.09,-82.04"/>
</a>
</g>
</g>
<!-- Node14 -->
<g id="Node000014" class="node">
<title>Node14</title>
<g id="a_Node000014"><a xlink:href="acreal_8h.html" target="_top" xlink:title=" ">
<polygon fill="white" stroke="#666666" points="2683.04,-19 2627.04,-19 2627.04,0 2683.04,0 2683.04,-19"/>
<text text-anchor="middle" x="2655.04" y="-7" font-family="Helvetica,sans-Serif" font-size="10.00">acreal.h</text>
</a>
</g>
</g>
<!-- Node10&#45;&gt;Node14 -->
<g id="edge16_Node000010_Node000014" class="edge">
<title>Node10&#45;&gt;Node14</title>
<g id="a_edge16_Node000010_Node000014"><a xlink:title=" ">
<path fill="none" stroke="#63b8ff" d="M2807.89,-115.41C2816.68,-101.34 2830.86,-73.13 2817.04,-55 2809.41,-45 2738.54,-28.28 2693.1,-18.43"/>
<polygon fill="#63b8ff" stroke="#63b8ff" points="2693.78,-14.99 2683.26,-16.32 2692.31,-21.84 2693.78,-14.99"/>
</a>
</g>
</g>
<!-- Node15 -->
<g id="Node000015" class="node">
<title>Node15</title>
<g id="a_Node000015"><a xlink:title=" ">
<polygon fill="#e0e0e0" stroke="#999999" points="3066.54,-74 2971.54,-74 2971.54,-55 3066.54,-55 3066.54,-74"/>
<text text-anchor="middle" x="3019.04" y="-62" font-family="Helvetica,sans-Serif" font-size="10.00">user_typedefs.h</text>
</a>
</g>
</g>
<!-- Node10&#45;&gt;Node15 -->
<g id="edge18_Node000010_Node000015" class="edge">
<title>Node10&#45;&gt;Node15</title>
<g id="a_edge18_Node000010_Node000015"><a xlink:title=" ">
<path fill="none" stroke="#63b8ff" d="M2829.71,-115.38C2835.74,-113.56 2842.09,-111.68 2848.04,-110 2890.9,-97.91 2940.14,-85.22 2974.74,-76.5"/>
<polygon fill="#63b8ff" stroke="#63b8ff" points="2975.69,-79.87 2984.54,-74.04 2973.98,-73.08 2975.69,-79.87"/>
</a>
</g>
</g>
<!-- Node16 -->
<g id="Node000016" class="node">
<title>Node16</title>
<g id="a_Node000016"><a xlink:href="host__datatypes_8h.html" target="_top" xlink:title=" ">
<polygon fill="white" stroke="#666666" points="2687.54,-74 2586.54,-74 2586.54,-55 2687.54,-55 2687.54,-74"/>
<text text-anchor="middle" x="2637.04" y="-62" font-family="Helvetica,sans-Serif" font-size="10.00">host_datatypes.h</text>
</a>
</g>
</g>
<!-- Node10&#45;&gt;Node16 -->
<g id="edge19_Node000010_Node000016" class="edge">
<title>Node10&#45;&gt;Node16</title>
<g id="a_edge19_Node000010_Node000016"><a xlink:title=" ">
<path fill="none" stroke="#63b8ff" d="M2778.05,-115.49C2749.82,-105.49 2702.76,-88.8 2670.85,-77.49"/>
<polygon fill="#63b8ff" stroke="#63b8ff" points="2671.65,-74.06 2661.06,-74.02 2669.31,-80.66 2671.65,-74.06"/>
</a>
</g>
</g>
<!-- Node16&#45;&gt;Node14 -->
<g id="edge20_Node000016_Node000014" class="edge">
<title>Node16&#45;&gt;Node14</title>
<g id="a_edge20_Node000016_Node000014"><a xlink:title=" ">
<path fill="none" stroke="#63b8ff" d="M2640.01,-54.75C2642.4,-47.72 2645.83,-37.62 2648.81,-28.84"/>
<polygon fill="#63b8ff" stroke="#63b8ff" points="2652.22,-29.68 2652.12,-19.09 2645.59,-27.43 2652.22,-29.68"/>
</a>
</g>
</g>
<!-- Node17 -->
<g id="Node000017" class="node">
<title>Node17</title>
<g id="a_Node000017"><a xlink:title=" ">
<polygon fill="#e0e0e0" stroke="#999999" points="2502.04,-19 2446.04,-19 2446.04,0 2502.04,0 2502.04,-19"/>
<text text-anchor="middle" x="2474.04" y="-7" font-family="Helvetica,sans-Serif" font-size="10.00">stddef.h</text>
</a>
</g>
</g>
<!-- Node16&#45;&gt;Node17 -->
<g id="edge21_Node000016_Node000017" class="edge">
<title>Node16&#45;&gt;Node17</title>
<g id="a_edge21_Node000016_Node000017"><a xlink:title=" ">
<path fill="none" stroke="#63b8ff" d="M2610.85,-54.98C2583.6,-46.13 2540.74,-32.19 2510.25,-22.28"/>
<polygon fill="#63b8ff" stroke="#63b8ff" points="2511.02,-18.85 2500.43,-19.08 2508.86,-25.5 2511.02,-18.85"/>
</a>
</g>
</g>
<!-- Node18&#45;&gt;Node3 -->
<g id="edge25_Node000018_Node000003" class="edge">
<title>Node18&#45;&gt;Node3</title>
<g id="a_edge25_Node000018_Node000003"><a xlink:title=" ">
<path fill="none" stroke="#63b8ff" d="M2489.2,-115.45C2483.48,-113.25 2477.11,-111.17 2471.04,-110 2242.78,-65.96 517.52,-65.26 227.39,-65.46"/>
<polygon fill="#63b8ff" stroke="#63b8ff" points="227.29,-61.96 217.3,-65.46 227.3,-68.96 227.29,-61.96"/>
</a>
</g>
</g>
<!-- Node18&#45;&gt;Node5 -->
<g id="edge27_Node000018_Node000005" class="edge">
<title>Node18&#45;&gt;Node5</title>
<g id="a_edge27_Node000018_Node000005"><a xlink:title=" ">
<path fill="none" stroke="#63b8ff" d="M2487.94,-115.48C2482.53,-113.43 2476.63,-111.43 2471.04,-110 2360.6,-81.65 2329.01,-95.48 2217.04,-74 2216.94,-73.98 2216.84,-73.96 2216.74,-73.94"/>
<polygon fill="#63b8ff" stroke="#63b8ff" points="2217.72,-70.57 2207.21,-71.92 2216.27,-77.42 2217.72,-70.57"/>
</a>
</g>
</g>
<!-- Node18&#45;&gt;Node6 -->
<g id="edge30_Node000018_Node000006" class="edge">
<title>Node18&#45;&gt;Node6</title>
<g id="a_edge30_Node000018_Node000006"><a xlink:title=" ">
<path fill="none" stroke="#63b8ff" d="M2536.12,-117.4C2578.57,-107.43 2659.55,-88.4 2710.79,-76.37"/>
<polygon fill="#63b8ff" stroke="#63b8ff" points="2711.68,-79.75 2720.62,-74.06 2710.08,-72.94 2711.68,-79.75"/>
</a>
</g>
</g>
<!-- Node18&#45;&gt;Node16 -->
<g id="edge24_Node000018_Node000016" class="edge">
<title>Node18&#45;&gt;Node16</title>
<g id="a_edge24_Node000018_Node000016"><a xlink:title=" ">
<path fill="none" stroke="#63b8ff" d="M2526.8,-115.49C2548.39,-105.7 2584.07,-89.52 2608.97,-78.23"/>
<polygon fill="#63b8ff" stroke="#63b8ff" points="2610.6,-81.33 2618.26,-74.02 2607.7,-74.96 2610.6,-81.33"/>
</a>
</g>
</g>
<!-- Node18&#45;&gt;Node17 -->
<g id="edge23_Node000018_Node000017" class="edge">
<title>Node18&#45;&gt;Node17</title>
<g id="a_edge23_Node000018_Node000017"><a xlink:title=" ">
<path fill="none" stroke="#63b8ff" d="M2485.76,-115.48C2480.92,-113.65 2475.81,-111.75 2471.04,-110 2425.89,-93.49 2396.8,-113.24 2369.04,-74 2348.71,-45.26 2398.36,-27.17 2436.13,-17.95"/>
<polygon fill="#63b8ff" stroke="#63b8ff" points="2436.96,-21.35 2445.91,-15.69 2435.38,-14.53 2436.96,-21.35"/>
</a>
</g>
</g>
<!-- Node19 -->
<g id="Node000019" class="node">
<title>Node19</title>
<g id="a_Node000019"><a xlink:title=" ">
<polygon fill="#e0e0e0" stroke="#999999" points="2568.54,-74 2515.54,-74 2515.54,-55 2568.54,-55 2568.54,-74"/>
<text text-anchor="middle" x="2542.04" y="-62" font-family="Helvetica,sans-Serif" font-size="10.00">stdint.h</text>
</a>
</g>
</g>
<!-- Node18&#45;&gt;Node19 -->
<g id="edge26_Node000018_Node000019" class="edge">
<title>Node18&#45;&gt;Node19</title>
<g id="a_edge26_Node000018_Node000019"><a xlink:title=" ">
<path fill="none" stroke="#63b8ff" d="M2513.05,-115.37C2517.98,-106.9 2525.62,-93.74 2531.83,-83.07"/>
<polygon fill="#63b8ff" stroke="#63b8ff" points="2535,-84.57 2537,-74.17 2528.95,-81.05 2535,-84.57"/>
</a>
</g>
</g>
<!-- Node20 -->
<g id="Node000020" class="node">
<title>Node20</title>
<g id="a_Node000020"><a xlink:title=" ">
<polygon fill="#e0e0e0" stroke="#999999" points="2430.54,-74 2377.54,-74 2377.54,-55 2430.54,-55 2430.54,-74"/>
<text text-anchor="middle" x="2404.04" y="-62" font-family="Helvetica,sans-Serif" font-size="10.00">stdlib.h</text>
</a>
</g>
</g>
<!-- Node18&#45;&gt;Node20 -->
<g id="edge28_Node000018_Node000020" class="edge">
<title>Node18&#45;&gt;Node20</title>
<g id="a_edge28_Node000018_Node000020"><a xlink:title=" ">
<path fill="none" stroke="#63b8ff" d="M2492.69,-115.37C2475.72,-105.82 2448.14,-90.31 2428.25,-79.12"/>
<polygon fill="#63b8ff" stroke="#63b8ff" points="2429.88,-76.02 2419.45,-74.17 2426.45,-82.12 2429.88,-76.02"/>
</a>
</g>
</g>
<!-- Node21 -->
<g id="Node000021" class="node">
<title>Node21</title>
<g id="a_Node000021"><a xlink:title=" ">
<polygon fill="#e0e0e0" stroke="#999999" points="2497.04,-74 2449.04,-74 2449.04,-55 2497.04,-55 2497.04,-74"/>
<text text-anchor="middle" x="2473.04" y="-62" font-family="Helvetica,sans-Serif" font-size="10.00">time.h</text>
</a>
</g>
</g>
<!-- Node18&#45;&gt;Node21 -->
<g id="edge29_Node000018_Node000021" class="edge">
<title>Node18&#45;&gt;Node21</title>
<g id="a_edge29_Node000018_Node000021"><a xlink:title=" ">
<path fill="none" stroke="#63b8ff" d="M2502.87,-115.37C2497.81,-106.9 2489.93,-93.74 2483.55,-83.07"/>
<polygon fill="#63b8ff" stroke="#63b8ff" points="2486.36,-80.95 2478.22,-74.17 2480.35,-84.55 2486.36,-80.95"/>
</a>
</g>
</g>
<!-- Node42&#45;&gt;Node4 -->
<g id="edge53_Node000042_Node000004" class="edge">
<title>Node42&#45;&gt;Node4</title>
<g id="a_edge53_Node000042_Node000004"><a xlink:title=" ">
<path fill="none" stroke="#63b8ff" d="M1637.54,-241.99C1593.11,-231.64 1518.03,-214.14 1469.51,-202.83"/>
<polygon fill="#63b8ff" stroke="#63b8ff" points="1470.11,-199.38 1459.58,-200.52 1468.52,-206.2 1470.11,-199.38"/>
</a>
</g>
</g>
<!-- Node43&#45;&gt;Node10 -->
<g id="edge55_Node000043_Node000010" class="edge">
<title>Node43&#45;&gt;Node10</title>
<g id="a_edge55_Node000043_Node000010"><a xlink:title=" ">
<path fill="none" stroke="#63b8ff" d="M2758.78,-181.37C2766.42,-171.59 2779.05,-155.42 2788.7,-143.08"/>
<polygon fill="#63b8ff" stroke="#63b8ff" points="2791.68,-144.94 2795.08,-134.91 2786.17,-140.63 2791.68,-144.94"/>
</a>
</g>
</g>
<!-- Node43&#45;&gt;Node19 -->
<g id="edge57_Node000043_Node000019" class="edge">
<title>Node43&#45;&gt;Node19</title>
<g id="a_edge57_Node000043_Node000019"><a xlink:title=" ">
<path fill="none" stroke="#63b8ff" d="M2737.6,-181.44C2701.86,-160.25 2608.99,-105.19 2565.34,-79.32"/>
<polygon fill="#63b8ff" stroke="#63b8ff" points="2566.96,-76.21 2556.57,-74.12 2563.39,-82.23 2566.96,-76.21"/>
</a>
</g>
</g>
<!-- Node44 -->
<g id="Node000044" class="node">
<title>Node44</title>
<g id="a_Node000044"><a xlink:title=" ">
<polygon fill="#e0e0e0" stroke="#999999" points="2911.04,-134.5 2857.04,-134.5 2857.04,-115.5 2911.04,-115.5 2911.04,-134.5"/>
<text text-anchor="middle" x="2884.04" y="-122.5" font-family="Helvetica,sans-Serif" font-size="10.00">random</text>
</a>
</g>
</g>
<!-- Node43&#45;&gt;Node44 -->
<g id="edge56_Node000043_Node000044" class="edge">
<title>Node43&#45;&gt;Node44</title>
<g id="a_edge56_Node000043_Node000044"><a xlink:title=" ">
<path fill="none" stroke="#63b8ff" d="M2769.84,-181.37C2792.18,-170.54 2830.72,-151.85 2856.78,-139.22"/>
<polygon fill="#63b8ff" stroke="#63b8ff" points="2858.63,-142.21 2866.1,-134.7 2855.57,-135.91 2858.63,-142.21"/>
</a>
</g>
</g>
</g>
</svg>

<g id="navigator" transform="translate(0 0)" fill="#404254">
  <rect fill="#f2f5e9" fill-opacity="0.5" stroke="#606060" stroke-width=".5" x="0" y="0" width="60" height="60"/>
  <use id="zoomplus" xlink:href="#zoomPlus" x="17" y="9" onmousedown="handleZoom(evt,'in')"/>
  <use id="zoomminus" xlink:href="#zoomMin" x="42" y="9" onmousedown="handleZoom(evt,'out')"/>
  <use id="reset" xlink:href="#resetDef" x="30" y="36" onmousedown="handleReset()"/>
   <use id="arrowup" xlink:href="#arrowUp" x="0" y="0" onmousedown="handlePan(0,-1)"/>
  <use id="arrowright" xlink:href="#arrowRight" x="0" y="0" onmousedown="handlePan(1,0)"/>
  <use id="arrowdown" xlink:href="#arrowDown" x="0" y="0" onmousedown="handlePan(0,1)"/>
  <use id="arrowleft" xlink:href="#arrowLeft" x="0" y="0" onmousedown="handlePan(-1,0)"/>
</g>
<svg viewBox="0 0 15 15" width="100%" height="30px" preserveAspectRatio="xMaxYMin meet">
 <g id="arrow_out" transform="scale(0.3 0.3)">
  <a xlink:href="astaroth__forcing_8cc__incl_org.svg" target="_base">
   <rect id="button" ry="5" rx="5" y="6" x="6" height="38" width="38"
        fill="#f2f5e9" fill-opacity="0.5" stroke="#606060" stroke-width="1.0"/>
   <path id="arrow"
     d="M 11.500037,31.436501 C 11.940474,20.09759 22.043105,11.32322 32.158766,21.979434 L 37.068811,17.246167 C 37.068811,17.246167 37.088388,32 37.088388,32 L 22.160133,31.978069 C 22.160133,31.978069 26.997745,27.140456 26.997745,27.140456 C 18.528582,18.264221 13.291696,25.230495 11.500037,31.436501 z"
     style="fill:#404040;"/>
  </a>
 </g>
</svg>

<style type='text/css'>
<![CDATA[
[data-mouse-over-selected='false'] { opacity: 0.7; }
[data-mouse-over-selected='true']  { opacity: 1.0; }
]]>
</style>
<script type="application/ecmascript"><![CDATA[
document.addEventListener('DOMContentLoaded', (event) => {
  highlightEdges();
  highlightAdjacentNodes();
});
]]></script>
</svg>
