<?xml version="1.0" encoding="UTF-8" standalone="no"?>
<!DOCTYPE svg PUBLIC "-//W3C//DTD SVG 1.1//EN"
 "http://www.w3.org/Graphics/SVG/1.1/DTD/svg11.dtd">
<!-- Generated by graphviz version 2.43.0 (0)
 -->
<!-- Title: src/core/astaroth.cc Pages: 1 -->
<svg width="2353pt" height="368pt"
 viewBox="0.00 0.00 2352.50 368.00" xmlns="http://www.w3.org/2000/svg" xmlns:xlink="http://www.w3.org/1999/xlink">
<g id="graph0" class="graph" transform="scale(1 1) rotate(0) translate(4 364)">
<title>src/core/astaroth.cc</title>
<!-- Node1 -->
<g id="Node000001" class="node">
<title>Node1</title>
<g id="a_Node000001"><a xlink:title=" ">
<polygon fill="#999999" stroke="#666666" points="1538.5,-360 1426.5,-360 1426.5,-341 1538.5,-341 1538.5,-360"/>
<text text-anchor="middle" x="1482.5" y="-348" font-family="Helvetica,sans-Serif" font-size="10.00">src/core/astaroth.cc</text>
</a>
</g>
</g>
<!-- Node2 -->
<g id="Node000002" class="node">
<title>Node2</title>
<g id="a_Node000002"><a xlink:href="astaroth_8h.html" target="_top" xlink:title=" ">
<polygon fill="white" stroke="#666666" points="1425.5,-305 1359.5,-305 1359.5,-286 1425.5,-286 1425.5,-305"/>
<text text-anchor="middle" x="1392.5" y="-293" font-family="Helvetica,sans-Serif" font-size="10.00">astaroth.h</text>
</a>
</g>
</g>
<!-- Node1&#45;&gt;Node2 -->
<g id="edge1_Node000001_Node000002" class="edge">
<title>Node1&#45;&gt;Node2</title>
<g id="a_edge1_Node000001_Node000002"><a xlink:title=" ">
<path fill="none" stroke="#63b8ff" d="M1468.04,-340.98C1454.08,-332.77 1432.71,-320.18 1416.25,-310.49"/>
<polygon fill="#63b8ff" stroke="#63b8ff" points="1417.62,-307.23 1407.22,-305.17 1414.06,-313.26 1417.62,-307.23"/>
</a>
</g>
</g>
<!-- Node54 -->
<g id="Node000054" class="node">
<title>Node54</title>
<g id="a_Node000054"><a xlink:title=" ">
<polygon fill="#e0e0e0" stroke="#999999" points="2030,-250 1977,-250 1977,-231 2030,-231 2030,-250"/>
<text text-anchor="middle" x="2003.5" y="-238" font-family="Helvetica,sans-Serif" font-size="10.00">string.h</text>
</a>
</g>
</g>
<!-- Node1&#45;&gt;Node54 -->
<g id="edge54_Node000001_Node000054" class="edge">
<title>Node1&#45;&gt;Node54</title>
<g id="a_edge54_Node000001_Node000054"><a xlink:title=" ">
<path fill="none" stroke="#63b8ff" d="M1477.25,-340.83C1469.8,-327.26 1458.52,-301.04 1472.5,-286 1508.44,-247.35 1879.04,-257.37 1966.8,-249.47"/>
<polygon fill="#63b8ff" stroke="#63b8ff" points="1967.33,-252.93 1976.86,-248.29 1966.52,-245.98 1967.33,-252.93"/>
</a>
</g>
</g>
<!-- Node55 -->
<g id="Node000055" class="node">
<title>Node55</title>
<g id="a_Node000055"><a xlink:title=" ">
<polygon fill="#e0e0e0" stroke="#999999" points="1543,-305 1482,-305 1482,-286 1543,-286 1543,-305"/>
<text text-anchor="middle" x="1512.5" y="-293" font-family="Helvetica,sans-Serif" font-size="10.00">kernels.h</text>
</a>
</g>
</g>
<!-- Node1&#45;&gt;Node55 -->
<g id="edge51_Node000001_Node000055" class="edge">
<title>Node1&#45;&gt;Node55</title>
<g id="a_edge51_Node000001_Node000055"><a xlink:title=" ">
<path fill="none" stroke="#63b8ff" d="M1487.45,-340.75C1491.56,-333.49 1497.53,-322.95 1502.6,-313.98"/>
<polygon fill="#63b8ff" stroke="#63b8ff" points="1505.76,-315.52 1507.64,-305.09 1499.67,-312.07 1505.76,-315.52"/>
</a>
</g>
</g>
<!-- Node56 -->
<g id="Node000056" class="node">
<title>Node56</title>
<g id="a_Node000056"><a xlink:href="astaroth__cuda__wrappers_8h.html" target="_top" xlink:title=" ">
<polygon fill="white" stroke="#666666" points="757,-189.5 612,-189.5 612,-170.5 757,-170.5 757,-189.5"/>
<text text-anchor="middle" x="684.5" y="-177.5" font-family="Helvetica,sans-Serif" font-size="10.00">astaroth_cuda_wrappers.h</text>
</a>
</g>
</g>
<!-- Node1&#45;&gt;Node56 -->
<g id="edge52_Node000001_Node000056" class="edge">
<title>Node1&#45;&gt;Node56</title>
<g id="a_edge52_Node000001_Node000056"><a xlink:title=" ">
<path fill="none" stroke="#63b8ff" d="M1426.22,-347.86C1231.81,-341.64 597.24,-316.36 537.5,-250 510.05,-219.5 561.33,-201.38 610.69,-191.42"/>
<polygon fill="#63b8ff" stroke="#63b8ff" points="611.35,-194.86 620.51,-189.53 610.03,-187.98 611.35,-194.86"/>
</a>
</g>
</g>
<!-- Node57 -->
<g id="Node000057" class="node">
<title>Node57</title>
<g id="a_Node000057"><a xlink:href="math__utils_8h.html" target="_top" xlink:title="Brief info.">
<polygon fill="white" stroke="#666666" points="519,-189.5 442,-189.5 442,-170.5 519,-170.5 519,-189.5"/>
<text text-anchor="middle" x="480.5" y="-177.5" font-family="Helvetica,sans-Serif" font-size="10.00">math_utils.h</text>
</a>
</g>
</g>
<!-- Node1&#45;&gt;Node57 -->
<g id="edge55_Node000001_Node000057" class="edge">
<title>Node1&#45;&gt;Node57</title>
<g id="a_edge55_Node000001_Node000057"><a xlink:title=" ">
<path fill="none" stroke="#63b8ff" d="M1426.38,-349.27C1263.7,-348.18 794.07,-341.83 645.5,-305 588.95,-290.98 570.77,-287.88 526.5,-250 509.97,-235.85 496.93,-214.36 489.01,-199.13"/>
<polygon fill="#63b8ff" stroke="#63b8ff" points="491.94,-197.16 484.37,-189.75 485.67,-200.27 491.94,-197.16"/>
</a>
</g>
</g>
<!-- Node60 -->
<g id="Node000060" class="node">
<title>Node60</title>
<g id="a_Node000060"><a xlink:title=" ">
<polygon fill="#e0e0e0" stroke="#999999" points="1684,-305 1561,-305 1561,-286 1684,-286 1684,-305"/>
<text text-anchor="middle" x="1622.5" y="-293" font-family="Helvetica,sans-Serif" font-size="10.00">get_vtxbufs_funcs.inc</text>
</a>
</g>
</g>
<!-- Node1&#45;&gt;Node60 -->
<g id="edge65_Node000001_Node000060" class="edge">
<title>Node1&#45;&gt;Node60</title>
<g id="a_edge65_Node000001_Node000060"><a xlink:title=" ">
<path fill="none" stroke="#63b8ff" d="M1504.99,-340.98C1528.02,-332.27 1564.04,-318.63 1590.13,-308.75"/>
<polygon fill="#63b8ff" stroke="#63b8ff" points="1591.48,-311.98 1599.6,-305.17 1589.01,-305.44 1591.48,-311.98"/>
</a>
</g>
</g>
<!-- Node61 -->
<g id="Node000061" class="node">
<title>Node61</title>
<g id="a_Node000061"><a xlink:title=" ">
<polygon fill="#e0e0e0" stroke="#999999" points="1818.5,-305 1702.5,-305 1702.5,-286 1818.5,-286 1818.5,-305"/>
<text text-anchor="middle" x="1760.5" y="-293" font-family="Helvetica,sans-Serif" font-size="10.00">stencil_accesses.inc</text>
</a>
</g>
</g>
<!-- Node1&#45;&gt;Node61 -->
<g id="edge66_Node000001_Node000061" class="edge">
<title>Node1&#45;&gt;Node61</title>
<g id="a_edge66_Node000001_Node000061"><a xlink:title=" ">
<path fill="none" stroke="#63b8ff" d="M1527.17,-340.98C1575.66,-331.74 1653.15,-316.97 1705.39,-307.01"/>
<polygon fill="#63b8ff" stroke="#63b8ff" points="1706.32,-310.39 1715.48,-305.08 1705.01,-303.52 1706.32,-310.39"/>
</a>
</g>
</g>
<!-- Node62 -->
<g id="Node000062" class="node">
<title>Node62</title>
<g id="a_Node000062"><a xlink:href="config__helpers_8h.html" target="_top" xlink:title=" ">
<polygon fill="white" stroke="#666666" points="2225,-305 2120,-305 2120,-286 2225,-286 2225,-305"/>
<text text-anchor="middle" x="2172.5" y="-293" font-family="Helvetica,sans-Serif" font-size="10.00">../config_helpers.h</text>
</a>
</g>
</g>
<!-- Node1&#45;&gt;Node62 -->
<g id="edge67_Node000001_Node000062" class="edge">
<title>Node1&#45;&gt;Node62</title>
<g id="a_edge67_Node000001_Node000062"><a xlink:title=" ">
<path fill="none" stroke="#63b8ff" d="M1538.67,-345.19C1666.14,-335.39 1976.54,-311.55 2109.91,-301.31"/>
<polygon fill="#63b8ff" stroke="#63b8ff" points="2110.26,-304.79 2119.96,-300.54 2109.73,-297.81 2110.26,-304.79"/>
</a>
</g>
</g>
<!-- Node3 -->
<g id="Node000003" class="node">
<title>Node3</title>
<g id="a_Node000003"><a xlink:href="astaroth__base_8h.html" target="_top" xlink:title=" ">
<polygon fill="white" stroke="#666666" points="1329,-250 1234,-250 1234,-231 1329,-231 1329,-250"/>
<text text-anchor="middle" x="1281.5" y="-238" font-family="Helvetica,sans-Serif" font-size="10.00">astaroth_base.h</text>
</a>
</g>
</g>
<!-- Node2&#45;&gt;Node3 -->
<g id="edge2_Node000002_Node000003" class="edge">
<title>Node2&#45;&gt;Node3</title>
<g id="a_edge2_Node000002_Node000003"><a xlink:title=" ">
<path fill="none" stroke="#63b8ff" d="M1374.67,-285.98C1356.89,-277.5 1329.35,-264.35 1308.82,-254.54"/>
<polygon fill="#63b8ff" stroke="#63b8ff" points="1310.19,-251.32 1299.66,-250.17 1307.17,-257.64 1310.19,-251.32"/>
</a>
</g>
</g>
<!-- Node43 -->
<g id="Node000043" class="node">
<title>Node43</title>
<g id="a_Node000043"><a xlink:href="astaroth__grid_8h.html" target="_top" xlink:title=" ">
<polygon fill="white" stroke="#666666" points="1437.5,-250 1347.5,-250 1347.5,-231 1437.5,-231 1437.5,-250"/>
<text text-anchor="middle" x="1392.5" y="-238" font-family="Helvetica,sans-Serif" font-size="10.00">astaroth_grid.h</text>
</a>
</g>
</g>
<!-- Node2&#45;&gt;Node43 -->
<g id="edge39_Node000002_Node000043" class="edge">
<title>Node2&#45;&gt;Node43</title>
<g id="a_edge39_Node000002_Node000043"><a xlink:title=" ">
<path fill="none" stroke="#63b8ff" d="M1392.5,-285.75C1392.5,-278.8 1392.5,-268.85 1392.5,-260.13"/>
<polygon fill="#63b8ff" stroke="#63b8ff" points="1396,-260.09 1392.5,-250.09 1389,-260.09 1396,-260.09"/>
</a>
</g>
</g>
<!-- Node44 -->
<g id="Node000044" class="node">
<title>Node44</title>
<g id="a_Node000044"><a xlink:href="astaroth__node_8h.html" target="_top" xlink:title=" ">
<polygon fill="white" stroke="#666666" points="1551,-250 1456,-250 1456,-231 1551,-231 1551,-250"/>
<text text-anchor="middle" x="1503.5" y="-238" font-family="Helvetica,sans-Serif" font-size="10.00">astaroth_node.h</text>
</a>
</g>
</g>
<!-- Node2&#45;&gt;Node44 -->
<g id="edge40_Node000002_Node000044" class="edge">
<title>Node2&#45;&gt;Node44</title>
<g id="a_edge40_Node000002_Node000044"><a xlink:title=" ">
<path fill="none" stroke="#63b8ff" d="M1410.33,-285.98C1428.11,-277.5 1455.65,-264.35 1476.18,-254.54"/>
<polygon fill="#63b8ff" stroke="#63b8ff" points="1477.83,-257.64 1485.34,-250.17 1474.81,-251.32 1477.83,-257.64"/>
</a>
</g>
</g>
<!-- Node45 -->
<g id="Node000045" class="node">
<title>Node45</title>
<g id="a_Node000045"><a xlink:href="astaroth__device_8h.html" target="_top" xlink:title=" ">
<polygon fill="white" stroke="#666666" points="1673.5,-250 1569.5,-250 1569.5,-231 1673.5,-231 1673.5,-250"/>
<text text-anchor="middle" x="1621.5" y="-238" font-family="Helvetica,sans-Serif" font-size="10.00">astaroth_device.h</text>
</a>
</g>
</g>
<!-- Node2&#45;&gt;Node45 -->
<g id="edge41_Node000002_Node000045" class="edge">
<title>Node2&#45;&gt;Node45</title>
<g id="a_edge41_Node000002_Node000045"><a xlink:title=" ">
<path fill="none" stroke="#63b8ff" d="M1425.8,-286.79C1465.04,-277.71 1530.5,-262.56 1574.8,-252.31"/>
<polygon fill="#63b8ff" stroke="#63b8ff" points="1575.79,-255.67 1584.75,-250.01 1574.22,-248.85 1575.79,-255.67"/>
</a>
</g>
</g>
<!-- Node48 -->
<g id="Node000048" class="node">
<title>Node48</title>
<g id="a_Node000048"><a xlink:href="astaroth__legacy_8h.html" target="_top" xlink:title=" ">
<polygon fill="white" stroke="#666666" points="1793.5,-250 1691.5,-250 1691.5,-231 1793.5,-231 1793.5,-250"/>
<text text-anchor="middle" x="1742.5" y="-238" font-family="Helvetica,sans-Serif" font-size="10.00">astaroth_legacy.h</text>
</a>
</g>
</g>
<!-- Node2&#45;&gt;Node48 -->
<g id="edge44_Node000002_Node000048" class="edge">
<title>Node2&#45;&gt;Node48</title>
<g id="a_edge44_Node000002_Node000048"><a xlink:title=" ">
<path fill="none" stroke="#63b8ff" d="M1425.6,-288.37C1430.26,-287.55 1435,-286.74 1439.5,-286 1484.73,-278.59 1606.44,-260.98 1681.12,-250.27"/>
<polygon fill="#63b8ff" stroke="#63b8ff" points="1681.94,-253.69 1691.34,-248.8 1680.94,-246.76 1681.94,-253.69"/>
</a>
</g>
</g>
<!-- Node49 -->
<g id="Node000049" class="node">
<title>Node49</title>
<g id="a_Node000049"><a xlink:title=" ">
<polygon fill="#e0e0e0" stroke="#999999" points="1959,-250 1812,-250 1812,-231 1959,-231 1959,-250"/>
<text text-anchor="middle" x="1885.5" y="-238" font-family="Helvetica,sans-Serif" font-size="10.00">device_set_input_decls.inc</text>
</a>
</g>
</g>
<!-- Node2&#45;&gt;Node49 -->
<g id="edge45_Node000002_Node000049" class="edge">
<title>Node2&#45;&gt;Node49</title>
<g id="a_edge45_Node000002_Node000049"><a xlink:title=" ">
<path fill="none" stroke="#63b8ff" d="M1425.57,-288.18C1430.24,-287.38 1434.98,-286.63 1439.5,-286 1596.77,-264.02 1639.46,-266.16 1801.4,-250.1"/>
<polygon fill="#63b8ff" stroke="#63b8ff" points="1802.13,-253.54 1811.73,-249.07 1801.44,-246.58 1802.13,-253.54"/>
</a>
</g>
</g>
<!-- Node50 -->
<g id="Node000050" class="node">
<title>Node50</title>
<g id="a_Node000050"><a xlink:title=" ">
<polygon fill="#e0e0e0" stroke="#999999" points="702,-250 547,-250 547,-231 702,-231 702,-250"/>
<text text-anchor="middle" x="624.5" y="-238" font-family="Helvetica,sans-Serif" font-size="10.00">device_get_output_decls.inc</text>
</a>
</g>
</g>
<!-- Node2&#45;&gt;Node50 -->
<g id="edge46_Node000002_Node000050" class="edge">
<title>Node2&#45;&gt;Node50</title>
<g id="a_edge46_Node000002_Node000050"><a xlink:title=" ">
<path fill="none" stroke="#63b8ff" d="M1359.17,-292.7C1261.6,-287.36 967.96,-270.71 712.49,-250.05"/>
<polygon fill="#63b8ff" stroke="#63b8ff" points="712.53,-246.54 702.28,-249.22 711.96,-253.52 712.53,-246.54"/>
</a>
</g>
</g>
<!-- Node51 -->
<g id="Node000051" class="node">
<title>Node51</title>
<g id="a_Node000051"><a xlink:title=" ">
<polygon fill="#e0e0e0" stroke="#999999" points="868.5,-250 720.5,-250 720.5,-231 868.5,-231 868.5,-250"/>
<text text-anchor="middle" x="794.5" y="-238" font-family="Helvetica,sans-Serif" font-size="10.00">device_get_input_decls.inc</text>
</a>
</g>
</g>
<!-- Node2&#45;&gt;Node51 -->
<g id="edge47_Node000002_Node000051" class="edge">
<title>Node2&#45;&gt;Node51</title>
<g id="a_edge47_Node000002_Node000051"><a xlink:title=" ">
<path fill="none" stroke="#63b8ff" d="M1359.35,-291.82C1278.94,-285.28 1066.95,-267.79 878.78,-250.11"/>
<polygon fill="#63b8ff" stroke="#63b8ff" points="878.99,-246.61 868.71,-249.16 878.33,-253.58 878.99,-246.61"/>
</a>
</g>
</g>
<!-- Node52 -->
<g id="Node000052" class="node">
<title>Node52</title>
<g id="a_Node000052"><a xlink:title=" ">
<polygon fill="#e0e0e0" stroke="#999999" points="1024.5,-250 886.5,-250 886.5,-231 1024.5,-231 1024.5,-250"/>
<text text-anchor="middle" x="955.5" y="-238" font-family="Helvetica,sans-Serif" font-size="10.00">get_vtxbufs_declares.inc</text>
</a>
</g>
</g>
<!-- Node2&#45;&gt;Node52 -->
<g id="edge48_Node000002_Node000052" class="edge">
<title>Node2&#45;&gt;Node52</title>
<g id="a_edge48_Node000002_Node000052"><a xlink:title=" ">
<path fill="none" stroke="#63b8ff" d="M1359.3,-290.47C1290.62,-282.14 1131.31,-262.82 1034.59,-251.09"/>
<polygon fill="#63b8ff" stroke="#63b8ff" points="1034.91,-247.61 1024.56,-249.88 1034.07,-254.55 1034.91,-247.61"/>
</a>
</g>
</g>
<!-- Node53 -->
<g id="Node000053" class="node">
<title>Node53</title>
<g id="a_Node000053"><a xlink:href="astaroth__runtime__compilation_8h.html" target="_top" xlink:title=" ">
<polygon fill="white" stroke="#666666" points="1216,-250 1043,-250 1043,-231 1216,-231 1216,-250"/>
<text text-anchor="middle" x="1129.5" y="-238" font-family="Helvetica,sans-Serif" font-size="10.00">astaroth_runtime_compilation.h</text>
</a>
</g>
</g>
<!-- Node2&#45;&gt;Node53 -->
<g id="edge49_Node000002_Node000053" class="edge">
<title>Node2&#45;&gt;Node53</title>
<g id="a_edge49_Node000002_Node000053"><a xlink:title=" ">
<path fill="none" stroke="#63b8ff" d="M1359.46,-287.84C1314.74,-278.83 1234.49,-262.66 1181.61,-252"/>
<polygon fill="#63b8ff" stroke="#63b8ff" points="1182.24,-248.56 1171.74,-250.01 1180.86,-255.42 1182.24,-248.56"/>
</a>
</g>
</g>
<!-- Node2&#45;&gt;Node54 -->
<g id="edge50_Node000002_Node000054" class="edge">
<title>Node2&#45;&gt;Node54</title>
<g id="a_edge50_Node000002_Node000054"><a xlink:title=" ">
<path fill="none" stroke="#63b8ff" d="M1425.55,-288.05C1430.22,-287.27 1434.97,-286.56 1439.5,-286 1669.61,-257.44 1733.14,-284.36 1966.69,-249.83"/>
<polygon fill="#63b8ff" stroke="#63b8ff" points="1967.49,-253.25 1976.86,-248.3 1966.45,-246.33 1967.49,-253.25"/>
</a>
</g>
</g>
<!-- Node4 -->
<g id="Node000004" class="node">
<title>Node4</title>
<g id="a_Node000004"><a xlink:title=" ">
<polygon fill="#e0e0e0" stroke="#999999" points="1285.5,-74 1223.5,-74 1223.5,-55 1285.5,-55 1285.5,-74"/>
<text text-anchor="middle" x="1254.5" y="-62" font-family="Helvetica,sans-Serif" font-size="10.00">stdbool.h</text>
</a>
</g>
</g>
<!-- Node3&#45;&gt;Node4 -->
<g id="edge3_Node000003_Node000004" class="edge">
<title>Node3&#45;&gt;Node4</title>
<g id="a_edge3_Node000003_Node000004"><a xlink:title=" ">
<path fill="none" stroke="#63b8ff" d="M1306.52,-230.88C1358.23,-211.74 1468.71,-163.15 1427.5,-110 1411.47,-89.32 1341.41,-76.57 1295.51,-70.28"/>
<polygon fill="#63b8ff" stroke="#63b8ff" points="1295.92,-66.8 1285.55,-68.96 1295,-73.74 1295.92,-66.8"/>
</a>
</g>
</g>
<!-- Node5 -->
<g id="Node000005" class="node">
<title>Node5</title>
<g id="a_Node000005"><a xlink:href="acc__runtime_8h.html" target="_top" xlink:title=" ">
<polygon fill="#fff0f0" stroke="red" points="1053.5,-189.5 967.5,-189.5 967.5,-170.5 1053.5,-170.5 1053.5,-189.5"/>
<text text-anchor="middle" x="1010.5" y="-177.5" font-family="Helvetica,sans-Serif" font-size="10.00">acc_runtime.h</text>
</a>
</g>
</g>
<!-- Node3&#45;&gt;Node5 -->
<g id="edge4_Node000003_Node000005" class="edge">
<title>Node3&#45;&gt;Node5</title>
<g id="a_edge4_Node000003_Node000005"><a xlink:title=" ">
<path fill="none" stroke="#63b8ff" d="M1242.09,-230.99C1193.93,-220.6 1112.38,-202.99 1060.02,-191.69"/>
<polygon fill="#63b8ff" stroke="#63b8ff" points="1060.47,-188.21 1049.95,-189.52 1058.99,-195.05 1060.47,-188.21"/>
</a>
</g>
</g>
<!-- Node25 -->
<g id="Node000025" class="node">
<title>Node25</title>
<g id="a_Node000025"><a xlink:title=" ">
<polygon fill="#e0e0e0" stroke="#999999" points="1318,-129 1171,-129 1171,-110 1318,-110 1318,-129"/>
<text text-anchor="middle" x="1244.5" y="-117" font-family="Helvetica,sans-Serif" font-size="10.00">user_built&#45;in_constants.inc</text>
</a>
</g>
</g>
<!-- Node3&#45;&gt;Node25 -->
<g id="edge37_Node000003_Node000025" class="edge">
<title>Node3&#45;&gt;Node25</title>
<g id="a_edge37_Node000003_Node000025"><a xlink:title=" ">
<path fill="none" stroke="#63b8ff" d="M1278.84,-230.94C1272.89,-211.82 1258.42,-165.27 1250.29,-139.12"/>
<polygon fill="#63b8ff" stroke="#63b8ff" points="1253.55,-137.81 1247.24,-129.3 1246.86,-139.89 1253.55,-137.81"/>
</a>
</g>
</g>
<!-- Node39 -->
<g id="Node000039" class="node">
<title>Node39</title>
<g id="a_Node000039"><a xlink:href="func__define_8h.html" target="_top" xlink:title=" ">
<polygon fill="white" stroke="#666666" points="1418.5,-129 1336.5,-129 1336.5,-110 1418.5,-110 1418.5,-129"/>
<text text-anchor="middle" x="1377.5" y="-117" font-family="Helvetica,sans-Serif" font-size="10.00">func_define.h</text>
</a>
</g>
</g>
<!-- Node3&#45;&gt;Node39 -->
<g id="edge36_Node000003_Node000039" class="edge">
<title>Node3&#45;&gt;Node39</title>
<g id="a_edge36_Node000003_Node000039"><a xlink:title=" ">
<path fill="none" stroke="#63b8ff" d="M1288.4,-230.94C1304.17,-211.4 1343.07,-163.18 1363.87,-137.4"/>
<polygon fill="#63b8ff" stroke="#63b8ff" points="1366.84,-139.28 1370.4,-129.3 1361.4,-134.89 1366.84,-139.28"/>
</a>
</g>
</g>
<!-- Node42 -->
<g id="Node000042" class="node">
<title>Node42</title>
<g id="a_Node000042"><a xlink:title=" ">
<polygon fill="#e0e0e0" stroke="#999999" points="949,-195 818,-195 818,-165 949,-165 949,-195"/>
<text text-anchor="start" x="826" y="-183" font-family="Helvetica,sans-Serif" font-size="10.00">user_builtin_non_scalar</text>
<text text-anchor="middle" x="883.5" y="-172" font-family="Helvetica,sans-Serif" font-size="10.00">_constants.inc</text>
</a>
</g>
</g>
<!-- Node3&#45;&gt;Node42 -->
<g id="edge38_Node000003_Node000042" class="edge">
<title>Node3&#45;&gt;Node42</title>
<g id="a_edge38_Node000003_Node000042"><a xlink:title=" ">
<path fill="none" stroke="#63b8ff" d="M1233.92,-232.36C1230.73,-231.89 1227.57,-231.44 1224.5,-231 1109.62,-214.66 1078,-213.98 959.52,-195.11"/>
<polygon fill="#63b8ff" stroke="#63b8ff" points="959.75,-191.61 949.32,-193.48 958.64,-198.52 959.75,-191.61"/>
</a>
</g>
</g>
<!-- Node5&#45;&gt;Node4 -->
<g id="edge6_Node000005_Node000004" class="edge">
<title>Node5&#45;&gt;Node4</title>
<g id="a_edge6_Node000005_Node000004"><a xlink:title=" ">
<path fill="none" stroke="#63b8ff" d="M1012.75,-170.23C1017.05,-155.37 1027.88,-125.36 1048.5,-110 1049.34,-109.38 1153.61,-87.04 1213.46,-74.26"/>
<polygon fill="#63b8ff" stroke="#63b8ff" points="1214.33,-77.65 1223.37,-72.14 1212.86,-70.8 1214.33,-77.65"/>
</a>
</g>
</g>
<!-- Node6 -->
<g id="Node000006" class="node">
<title>Node6</title>
<g id="a_Node000006"><a xlink:title=" ">
<polygon fill="#e0e0e0" stroke="#999999" points="1205.5,-74 1155.5,-74 1155.5,-55 1205.5,-55 1205.5,-74"/>
<text text-anchor="middle" x="1180.5" y="-62" font-family="Helvetica,sans-Serif" font-size="10.00">stdio.h</text>
</a>
</g>
</g>
<!-- Node5&#45;&gt;Node6 -->
<g id="edge5_Node000005_Node000006" class="edge">
<title>Node5&#45;&gt;Node6</title>
<g id="a_edge5_Node000005_Node000006"><a xlink:title=" ">
<path fill="none" stroke="#63b8ff" d="M1008.23,-170.21C1005.09,-155.85 1001.28,-127.23 1015.5,-110 1023.86,-99.87 1099.62,-82.46 1145.53,-72.69"/>
<polygon fill="#63b8ff" stroke="#63b8ff" points="1146.33,-76.1 1155.39,-70.61 1144.88,-69.25 1146.33,-76.1"/>
</a>
</g>
</g>
<!-- Node7 -->
<g id="Node000007" class="node">
<title>Node7</title>
<g id="a_Node000007"><a xlink:href="device__headers_8h.html" target="_top" xlink:title=" ">
<polygon fill="white" stroke="#666666" points="771.5,-74 669.5,-74 669.5,-55 771.5,-55 771.5,-74"/>
<text text-anchor="middle" x="720.5" y="-62" font-family="Helvetica,sans-Serif" font-size="10.00">device_headers.h</text>
</a>
</g>
</g>
<!-- Node5&#45;&gt;Node7 -->
<g id="edge7_Node000005_Node000007" class="edge">
<title>Node5&#45;&gt;Node7</title>
<g id="a_edge7_Node000005_Node000007"><a xlink:title=" ">
<path fill="none" stroke="#63b8ff" d="M988.7,-170.47C937.9,-150.59 811.44,-101.09 752.14,-77.88"/>
<polygon fill="#63b8ff" stroke="#63b8ff" points="753.14,-74.52 742.55,-74.13 750.59,-81.03 753.14,-74.52"/>
</a>
</g>
</g>
<!-- Node10 -->
<g id="Node000010" class="node">
<title>Node10</title>
<g id="a_Node000010"><a xlink:title=" ">
<polygon fill="#e0e0e0" stroke="#999999" points="651,-74 556,-74 556,-55 651,-55 651,-74"/>
<text text-anchor="middle" x="603.5" y="-62" font-family="Helvetica,sans-Serif" font-size="10.00">builtin_enums.h</text>
</a>
</g>
</g>
<!-- Node5&#45;&gt;Node10 -->
<g id="edge10_Node000005_Node000010" class="edge">
<title>Node5&#45;&gt;Node10</title>
<g id="a_edge10_Node000005_Node000010"><a xlink:title=" ">
<path fill="none" stroke="#63b8ff" d="M979.91,-170.47C907.49,-150.27 725.53,-99.53 644.05,-76.81"/>
<polygon fill="#63b8ff" stroke="#63b8ff" points="644.74,-73.37 634.17,-74.05 642.86,-80.11 644.74,-73.37"/>
</a>
</g>
</g>
<!-- Node11 -->
<g id="Node000011" class="node">
<title>Node11</title>
<g id="a_Node000011"><a xlink:href="datatypes_8h.html" target="_top" xlink:title=" ">
<polygon fill="white" stroke="#666666" points="523.5,-129 449.5,-129 449.5,-110 523.5,-110 523.5,-129"/>
<text text-anchor="middle" x="486.5" y="-117" font-family="Helvetica,sans-Serif" font-size="10.00">datatypes.h</text>
</a>
</g>
</g>
<!-- Node5&#45;&gt;Node11 -->
<g id="edge11_Node000005_Node000011" class="edge">
<title>Node5&#45;&gt;Node11</title>
<g id="a_edge11_Node000005_Node000011"><a xlink:title=" ">
<path fill="none" stroke="#63b8ff" d="M981.53,-170.43C973.78,-168.39 965.37,-166.4 957.5,-165 916.52,-157.7 645.12,-134.06 533.9,-124.53"/>
<polygon fill="#63b8ff" stroke="#63b8ff" points="533.92,-121.02 523.65,-123.66 533.32,-128 533.92,-121.02"/>
</a>
</g>
</g>
<!-- Node19 -->
<g id="Node000019" class="node">
<title>Node19</title>
<g id="a_Node000019"><a xlink:href="errchk_8h.html" target="_top" xlink:title="Brief info.">
<polygon fill="white" stroke="#666666" points="963.5,-129 907.5,-129 907.5,-110 963.5,-110 963.5,-129"/>
<text text-anchor="middle" x="935.5" y="-117" font-family="Helvetica,sans-Serif" font-size="10.00">errchk.h</text>
</a>
</g>
</g>
<!-- Node5&#45;&gt;Node19 -->
<g id="edge23_Node000005_Node000019" class="edge">
<title>Node5&#45;&gt;Node19</title>
<g id="a_edge23_Node000005_Node000019"><a xlink:title=" ">
<path fill="none" stroke="#63b8ff" d="M999.43,-170.37C987.69,-161.21 968.91,-146.56 954.74,-135.51"/>
<polygon fill="#63b8ff" stroke="#63b8ff" points="956.65,-132.56 946.61,-129.17 952.34,-138.08 956.65,-132.56"/>
</a>
</g>
</g>
<!-- Node23 -->
<g id="Node000023" class="node">
<title>Node23</title>
<g id="a_Node000023"><a xlink:title=" ">
<polygon fill="#e0e0e0" stroke="#999999" points="1153,-129 1058,-129 1058,-110 1153,-110 1153,-129"/>
<text text-anchor="middle" x="1105.5" y="-117" font-family="Helvetica,sans-Serif" font-size="10.00">user_defines.inc</text>
</a>
</g>
</g>
<!-- Node5&#45;&gt;Node23 -->
<g id="edge32_Node000005_Node000023" class="edge">
<title>Node5&#45;&gt;Node23</title>
<g id="a_edge32_Node000005_Node000023"><a xlink:title=" ">
<path fill="none" stroke="#63b8ff" d="M1024.52,-170.37C1039.81,-160.95 1064.53,-145.73 1082.64,-134.58"/>
<polygon fill="#63b8ff" stroke="#63b8ff" points="1084.75,-137.39 1091.42,-129.17 1081.07,-131.43 1084.75,-137.39"/>
</a>
</g>
</g>
<!-- Node5&#45;&gt;Node25 -->
<g id="edge33_Node000005_Node000025" class="edge">
<title>Node5&#45;&gt;Node25</title>
<g id="a_edge33_Node000005_Node000025"><a xlink:title=" ">
<path fill="none" stroke="#63b8ff" d="M1044.53,-170.49C1085.77,-160.18 1155.36,-142.78 1200.61,-131.47"/>
<polygon fill="#63b8ff" stroke="#63b8ff" points="1201.58,-134.84 1210.43,-129.02 1199.88,-128.05 1201.58,-134.84"/>
</a>
</g>
</g>
<!-- Node26 -->
<g id="Node000026" class="node">
<title>Node26</title>
<g id="a_Node000026"><a xlink:href="func__attributes_8h.html" target="_top" xlink:title=" ">
<polygon fill="white" stroke="#666666" points="99,-74 0,-74 0,-55 99,-55 99,-74"/>
<text text-anchor="middle" x="49.5" y="-62" font-family="Helvetica,sans-Serif" font-size="10.00">func_attributes.h</text>
</a>
</g>
</g>
<!-- Node5&#45;&gt;Node26 -->
<g id="edge34_Node000005_Node000026" class="edge">
<title>Node5&#45;&gt;Node26</title>
<g id="a_edge34_Node000005_Node000026"><a xlink:title=" ">
<path fill="none" stroke="#63b8ff" d="M982.11,-170.44C974.21,-168.35 965.57,-166.34 957.5,-165 730.25,-127.42 668.05,-164.72 440.5,-129 405.68,-123.53 398.11,-116.69 363.5,-110 253.88,-88.83 222.97,-90.23 109.32,-74.24"/>
<polygon fill="#63b8ff" stroke="#63b8ff" points="109.56,-70.74 99.17,-72.8 108.58,-77.67 109.56,-70.74"/>
</a>
</g>
</g>
<!-- Node5&#45;&gt;Node39 -->
<g id="edge35_Node000005_Node000039" class="edge">
<title>Node5&#45;&gt;Node39</title>
<g id="a_edge35_Node000005_Node000039"><a xlink:title=" ">
<path fill="none" stroke="#63b8ff" d="M1053.71,-172.28C1112.68,-163.08 1221.95,-145.94 1326.23,-129.03"/>
<polygon fill="#63b8ff" stroke="#63b8ff" points="1327,-132.45 1336.31,-127.4 1325.88,-125.54 1327,-132.45"/>
</a>
</g>
</g>
<!-- Node8 -->
<g id="Node000008" class="node">
<title>Node8</title>
<g id="a_Node000008"><a xlink:title=" ">
<polygon fill="#e0e0e0" stroke="#999999" points="428,-19 315,-19 315,0 428,0 428,-19"/>
<text text-anchor="middle" x="371.5" y="-7" font-family="Helvetica,sans-Serif" font-size="10.00">cuda_runtime_api.h</text>
</a>
</g>
</g>
<!-- Node7&#45;&gt;Node8 -->
<g id="edge8_Node000007_Node000008" class="edge">
<title>Node7&#45;&gt;Node8</title>
<g id="a_edge8_Node000007_Node000008"><a xlink:title=" ">
<path fill="none" stroke="#63b8ff" d="M669.38,-55.74C608.06,-46.42 505.12,-30.79 437.76,-20.56"/>
<polygon fill="#63b8ff" stroke="#63b8ff" points="438.09,-17.07 427.68,-19.03 437.04,-23.99 438.09,-17.07"/>
</a>
</g>
</g>
<!-- Node9 -->
<g id="Node000009" class="node">
<title>Node9</title>
<g id="a_Node000009"><a xlink:title=" ">
<polygon fill="#e0e0e0" stroke="#999999" points="758.5,-19 682.5,-19 682.5,0 758.5,0 758.5,-19"/>
<text text-anchor="middle" x="720.5" y="-7" font-family="Helvetica,sans-Serif" font-size="10.00">cuda_fp16.h</text>
</a>
</g>
</g>
<!-- Node7&#45;&gt;Node9 -->
<g id="edge9_Node000007_Node000009" class="edge">
<title>Node7&#45;&gt;Node9</title>
<g id="a_edge9_Node000007_Node000009"><a xlink:title=" ">
<path fill="none" stroke="#63b8ff" d="M720.5,-54.75C720.5,-47.8 720.5,-37.85 720.5,-29.13"/>
<polygon fill="#63b8ff" stroke="#63b8ff" points="724,-29.09 720.5,-19.09 717,-29.09 724,-29.09"/>
</a>
</g>
</g>
<!-- Node11&#45;&gt;Node7 -->
<g id="edge14_Node000011_Node000007" class="edge">
<title>Node11&#45;&gt;Node7</title>
<g id="a_edge14_Node000011_Node000007"><a xlink:title=" ">
<path fill="none" stroke="#63b8ff" d="M523.58,-110.1C563.99,-100.95 628.76,-86.28 672.9,-76.28"/>
<polygon fill="#63b8ff" stroke="#63b8ff" points="673.84,-79.66 682.82,-74.03 672.29,-72.83 673.84,-79.66"/>
</a>
</g>
</g>
<!-- Node11&#45;&gt;Node8 -->
<g id="edge16_Node000011_Node000008" class="edge">
<title>Node11&#45;&gt;Node8</title>
<g id="a_edge16_Node000011_Node000008"><a xlink:title=" ">
<path fill="none" stroke="#63b8ff" d="M450.11,-109.99C418.24,-101.71 375.49,-88.32 365.5,-74 356.4,-60.96 359.4,-42.57 363.78,-28.93"/>
<polygon fill="#63b8ff" stroke="#63b8ff" points="367.19,-29.8 367.4,-19.21 360.63,-27.36 367.19,-29.8"/>
</a>
</g>
</g>
<!-- Node11&#45;&gt;Node10 -->
<g id="edge18_Node000011_Node000010" class="edge">
<title>Node11&#45;&gt;Node10</title>
<g id="a_edge18_Node000011_Node000010"><a xlink:title=" ">
<path fill="none" stroke="#63b8ff" d="M505.3,-109.98C524.12,-101.46 553.32,-88.23 575,-78.41"/>
<polygon fill="#63b8ff" stroke="#63b8ff" points="576.7,-81.48 584.36,-74.17 573.81,-75.11 576.7,-81.48"/>
</a>
</g>
</g>
<!-- Node12 -->
<g id="Node000012" class="node">
<title>Node12</title>
<g id="a_Node000012"><a xlink:title=" ">
<polygon fill="#e0e0e0" stroke="#999999" points="431,-74 384,-74 384,-55 431,-55 431,-74"/>
<text text-anchor="middle" x="407.5" y="-62" font-family="Helvetica,sans-Serif" font-size="10.00">float.h</text>
</a>
</g>
</g>
<!-- Node11&#45;&gt;Node12 -->
<g id="edge12_Node000011_Node000012" class="edge">
<title>Node11&#45;&gt;Node12</title>
<g id="a_edge12_Node000011_Node000012"><a xlink:title=" ">
<path fill="none" stroke="#63b8ff" d="M473.81,-109.98C461.67,-101.84 443.14,-89.41 428.75,-79.76"/>
<polygon fill="#63b8ff" stroke="#63b8ff" points="430.68,-76.84 420.42,-74.17 426.78,-82.65 430.68,-76.84"/>
</a>
</g>
</g>
<!-- Node13 -->
<g id="Node000013" class="node">
<title>Node13</title>
<g id="a_Node000013"><a xlink:title=" ">
<polygon fill="#e0e0e0" stroke="#999999" points="168,-74 117,-74 117,-55 168,-55 168,-74"/>
<text text-anchor="middle" x="142.5" y="-62" font-family="Helvetica,sans-Serif" font-size="10.00">math.h</text>
</a>
</g>
</g>
<!-- Node11&#45;&gt;Node13 -->
<g id="edge13_Node000011_Node000013" class="edge">
<title>Node11&#45;&gt;Node13</title>
<g id="a_edge13_Node000011_Node000013"><a xlink:title=" ">
<path fill="none" stroke="#63b8ff" d="M449.47,-112.21C444.77,-111.44 440.03,-110.69 435.5,-110 323.76,-92.93 292.3,-95.94 177.9,-74.1"/>
<polygon fill="#63b8ff" stroke="#63b8ff" points="178.54,-70.66 168.05,-72.2 177.21,-77.53 178.54,-70.66"/>
</a>
</g>
</g>
<!-- Node14 -->
<g id="Node000014" class="node">
<title>Node14</title>
<g id="a_Node000014"><a xlink:title=" ">
<polygon fill="#e0e0e0" stroke="#999999" points="538,-74 449,-74 449,-55 538,-55 538,-74"/>
<text text-anchor="middle" x="493.5" y="-62" font-family="Helvetica,sans-Serif" font-size="10.00">vector_types.h</text>
</a>
</g>
</g>
<!-- Node11&#45;&gt;Node14 -->
<g id="edge15_Node000011_Node000014" class="edge">
<title>Node11&#45;&gt;Node14</title>
<g id="a_edge15_Node000011_Node000014"><a xlink:title=" ">
<path fill="none" stroke="#63b8ff" d="M487.66,-109.75C488.57,-102.8 489.89,-92.85 491.04,-84.13"/>
<polygon fill="#63b8ff" stroke="#63b8ff" points="494.53,-84.46 492.37,-74.09 487.59,-83.54 494.53,-84.46"/>
</a>
</g>
</g>
<!-- Node15 -->
<g id="Node000015" class="node">
<title>Node15</title>
<g id="a_Node000015"><a xlink:href="acreal_8h.html" target="_top" xlink:title=" ">
<polygon fill="white" stroke="#666666" points="610.5,-19 554.5,-19 554.5,0 610.5,0 610.5,-19"/>
<text text-anchor="middle" x="582.5" y="-7" font-family="Helvetica,sans-Serif" font-size="10.00">acreal.h</text>
</a>
</g>
</g>
<!-- Node11&#45;&gt;Node15 -->
<g id="edge17_Node000011_Node000015" class="edge">
<title>Node11&#45;&gt;Node15</title>
<g id="a_edge17_Node000011_Node000015"><a xlink:title=" ">
<path fill="none" stroke="#63b8ff" d="M449.35,-111.9C408.17,-102.96 350.54,-84.63 374.5,-55 395.4,-29.16 489.74,-17.66 543.91,-13.1"/>
<polygon fill="#63b8ff" stroke="#63b8ff" points="544.49,-16.57 554.18,-12.28 543.93,-9.59 544.49,-16.57"/>
</a>
</g>
</g>
<!-- Node16 -->
<g id="Node000016" class="node">
<title>Node16</title>
<g id="a_Node000016"><a xlink:title=" ">
<polygon fill="#e0e0e0" stroke="#999999" points="289,-74 186,-74 186,-55 289,-55 289,-74"/>
<text text-anchor="middle" x="237.5" y="-62" font-family="Helvetica,sans-Serif" font-size="10.00">user_typedefs.inc</text>
</a>
</g>
</g>
<!-- Node11&#45;&gt;Node16 -->
<g id="edge19_Node000011_Node000016" class="edge">
<title>Node11&#45;&gt;Node16</title>
<g id="a_edge19_Node000011_Node000016"><a xlink:title=" ">
<path fill="none" stroke="#63b8ff" d="M449.49,-110.62C406.49,-101.47 335.33,-86.32 287.45,-76.13"/>
<polygon fill="#63b8ff" stroke="#63b8ff" points="288.11,-72.69 277.6,-74.04 286.66,-79.54 288.11,-72.69"/>
</a>
</g>
</g>
<!-- Node17 -->
<g id="Node000017" class="node">
<title>Node17</title>
<g id="a_Node000017"><a xlink:href="host__datatypes_8h.html" target="_top" xlink:title=" ">
<polygon fill="white" stroke="#666666" points="891,-74 790,-74 790,-55 891,-55 891,-74"/>
<text text-anchor="middle" x="840.5" y="-62" font-family="Helvetica,sans-Serif" font-size="10.00">host_datatypes.h</text>
</a>
</g>
</g>
<!-- Node11&#45;&gt;Node17 -->
<g id="edge20_Node000011_Node000017" class="edge">
<title>Node11&#45;&gt;Node17</title>
<g id="a_edge20_Node000011_Node000017"><a xlink:title=" ">
<path fill="none" stroke="#63b8ff" d="M523.72,-112.93C584.67,-103.8 706.33,-85.59 779.87,-74.58"/>
<polygon fill="#63b8ff" stroke="#63b8ff" points="780.54,-78.02 789.91,-73.07 779.51,-71.09 780.54,-78.02"/>
</a>
</g>
</g>
<!-- Node17&#45;&gt;Node15 -->
<g id="edge21_Node000017_Node000015" class="edge">
<title>Node17&#45;&gt;Node15</title>
<g id="a_edge21_Node000017_Node000015"><a xlink:title=" ">
<path fill="none" stroke="#63b8ff" d="M799.05,-54.98C749.81,-44.87 668.37,-28.14 620.64,-18.33"/>
<polygon fill="#63b8ff" stroke="#63b8ff" points="621.2,-14.88 610.7,-16.29 619.79,-21.73 621.2,-14.88"/>
</a>
</g>
</g>
<!-- Node18 -->
<g id="Node000018" class="node">
<title>Node18</title>
<g id="a_Node000018"><a xlink:title=" ">
<polygon fill="#e0e0e0" stroke="#999999" points="1011.5,-19 955.5,-19 955.5,0 1011.5,0 1011.5,-19"/>
<text text-anchor="middle" x="983.5" y="-7" font-family="Helvetica,sans-Serif" font-size="10.00">stddef.h</text>
</a>
</g>
</g>
<!-- Node17&#45;&gt;Node18 -->
<g id="edge22_Node000017_Node000018" class="edge">
<title>Node17&#45;&gt;Node18</title>
<g id="a_edge22_Node000017_Node000018"><a xlink:title=" ">
<path fill="none" stroke="#63b8ff" d="M863.48,-54.98C887,-46.27 923.79,-32.63 950.44,-22.75"/>
<polygon fill="#63b8ff" stroke="#63b8ff" points="951.95,-25.93 960.11,-19.17 949.51,-19.36 951.95,-25.93"/>
</a>
</g>
</g>
<!-- Node19&#45;&gt;Node4 -->
<g id="edge26_Node000019_Node000004" class="edge">
<title>Node19&#45;&gt;Node4</title>
<g id="a_edge26_Node000019_Node000004"><a xlink:title=" ">
<path fill="none" stroke="#63b8ff" d="M963.7,-114.49C1012.47,-107.45 1115.94,-92.05 1213.1,-74.18"/>
<polygon fill="#63b8ff" stroke="#63b8ff" points="1213.89,-77.6 1223.09,-72.33 1212.62,-70.71 1213.89,-77.6"/>
</a>
</g>
</g>
<!-- Node19&#45;&gt;Node6 -->
<g id="edge28_Node000019_Node000006" class="edge">
<title>Node19&#45;&gt;Node6</title>
<g id="a_edge28_Node000019_Node000006"><a xlink:title=" ">
<path fill="none" stroke="#63b8ff" d="M963.83,-112.4C1003.54,-103.84 1078.03,-87.77 1141.5,-74 1142.76,-73.73 1144.04,-73.45 1145.33,-73.17"/>
<polygon fill="#63b8ff" stroke="#63b8ff" points="1146.3,-76.54 1155.33,-70.99 1144.81,-69.7 1146.3,-76.54"/>
</a>
</g>
</g>
<!-- Node19&#45;&gt;Node7 -->
<g id="edge31_Node000019_Node000007" class="edge">
<title>Node19&#45;&gt;Node7</title>
<g id="a_edge31_Node000019_Node000007"><a xlink:title=" ">
<path fill="none" stroke="#63b8ff" d="M907.39,-111.57C871.14,-102.64 807.68,-86.99 764.88,-76.44"/>
<polygon fill="#63b8ff" stroke="#63b8ff" points="765.56,-73 755.01,-74.01 763.89,-79.8 765.56,-73"/>
</a>
</g>
</g>
<!-- Node19&#45;&gt;Node17 -->
<g id="edge25_Node000019_Node000017" class="edge">
<title>Node19&#45;&gt;Node17</title>
<g id="a_edge25_Node000019_Node000017"><a xlink:title=" ">
<path fill="none" stroke="#63b8ff" d="M920.24,-109.98C905.37,-101.69 882.52,-88.94 865.08,-79.22"/>
<polygon fill="#63b8ff" stroke="#63b8ff" points="866.48,-75.99 856.04,-74.17 863.07,-82.1 866.48,-75.99"/>
</a>
</g>
</g>
<!-- Node19&#45;&gt;Node18 -->
<g id="edge24_Node000019_Node000018" class="edge">
<title>Node19&#45;&gt;Node18</title>
<g id="a_edge24_Node000019_Node000018"><a xlink:title=" ">
<path fill="none" stroke="#63b8ff" d="M963.55,-112.23C1011.37,-101.4 1104,-79.81 1108.5,-74 1134.5,-40.47 1067.13,-23.16 1021.5,-15.53"/>
<polygon fill="#63b8ff" stroke="#63b8ff" points="1021.99,-12.06 1011.57,-13.96 1020.9,-18.98 1021.99,-12.06"/>
</a>
</g>
</g>
<!-- Node20 -->
<g id="Node000020" class="node">
<title>Node20</title>
<g id="a_Node000020"><a xlink:title=" ">
<polygon fill="#e0e0e0" stroke="#999999" points="962,-74 909,-74 909,-55 962,-55 962,-74"/>
<text text-anchor="middle" x="935.5" y="-62" font-family="Helvetica,sans-Serif" font-size="10.00">stdint.h</text>
</a>
</g>
</g>
<!-- Node19&#45;&gt;Node20 -->
<g id="edge27_Node000019_Node000020" class="edge">
<title>Node19&#45;&gt;Node20</title>
<g id="a_edge27_Node000019_Node000020"><a xlink:title=" ">
<path fill="none" stroke="#63b8ff" d="M935.5,-109.75C935.5,-102.8 935.5,-92.85 935.5,-84.13"/>
<polygon fill="#63b8ff" stroke="#63b8ff" points="939,-84.09 935.5,-74.09 932,-84.09 939,-84.09"/>
</a>
</g>
</g>
<!-- Node21 -->
<g id="Node000021" class="node">
<title>Node21</title>
<g id="a_Node000021"><a xlink:title=" ">
<polygon fill="#e0e0e0" stroke="#999999" points="1033,-74 980,-74 980,-55 1033,-55 1033,-74"/>
<text text-anchor="middle" x="1006.5" y="-62" font-family="Helvetica,sans-Serif" font-size="10.00">stdlib.h</text>
</a>
</g>
</g>
<!-- Node19&#45;&gt;Node21 -->
<g id="edge29_Node000019_Node000021" class="edge">
<title>Node19&#45;&gt;Node21</title>
<g id="a_edge29_Node000019_Node000021"><a xlink:title=" ">
<path fill="none" stroke="#63b8ff" d="M946.91,-109.98C957.61,-102 973.84,-89.88 986.66,-80.31"/>
<polygon fill="#63b8ff" stroke="#63b8ff" points="988.97,-82.96 994.89,-74.17 984.78,-77.35 988.97,-82.96"/>
</a>
</g>
</g>
<!-- Node22 -->
<g id="Node000022" class="node">
<title>Node22</title>
<g id="a_Node000022"><a xlink:title=" ">
<polygon fill="#e0e0e0" stroke="#999999" points="1099.5,-74 1051.5,-74 1051.5,-55 1099.5,-55 1099.5,-74"/>
<text text-anchor="middle" x="1075.5" y="-62" font-family="Helvetica,sans-Serif" font-size="10.00">time.h</text>
</a>
</g>
</g>
<!-- Node19&#45;&gt;Node22 -->
<g id="edge30_Node000019_Node000022" class="edge">
<title>Node19&#45;&gt;Node22</title>
<g id="a_edge30_Node000019_Node000022"><a xlink:title=" ">
<path fill="none" stroke="#63b8ff" d="M957.99,-109.98C981.02,-101.27 1017.04,-87.63 1043.13,-77.75"/>
<polygon fill="#63b8ff" stroke="#63b8ff" points="1044.48,-80.98 1052.6,-74.17 1042.01,-74.44 1044.48,-80.98"/>
</a>
</g>
</g>
<!-- Node46 -->
<g id="Node000046" class="node">
<title>Node46</title>
<g id="a_Node000046"><a xlink:title=" ">
<polygon fill="#e0e0e0" stroke="#999999" points="1780,-195 1661,-195 1661,-165 1780,-165 1780,-195"/>
<text text-anchor="start" x="1669" y="-183" font-family="Helvetica,sans-Serif" font-size="10.00">device_load_uniform</text>
<text text-anchor="middle" x="1720.5" y="-172" font-family="Helvetica,sans-Serif" font-size="10.00">_decl.inc</text>
</a>
</g>
</g>
<!-- Node45&#45;&gt;Node46 -->
<g id="edge42_Node000045_Node000046" class="edge">
<title>Node45&#45;&gt;Node46</title>
<g id="a_edge42_Node000045_Node000046"><a xlink:title=" ">
<path fill="none" stroke="#63b8ff" d="M1636.11,-230.87C1649.67,-222.86 1670.33,-210.65 1687.81,-200.31"/>
<polygon fill="#63b8ff" stroke="#63b8ff" points="1689.79,-203.22 1696.61,-195.11 1686.22,-197.19 1689.79,-203.22"/>
</a>
</g>
</g>
<!-- Node47 -->
<g id="Node000047" class="node">
<title>Node47</title>
<g id="a_Node000047"><a xlink:title=" ">
<polygon fill="#e0e0e0" stroke="#999999" points="1642.5,-195 1520.5,-195 1520.5,-165 1642.5,-165 1642.5,-195"/>
<text text-anchor="start" x="1528.5" y="-183" font-family="Helvetica,sans-Serif" font-size="10.00">device_store_uniform</text>
<text text-anchor="middle" x="1581.5" y="-172" font-family="Helvetica,sans-Serif" font-size="10.00">_decl.inc</text>
</a>
</g>
</g>
<!-- Node45&#45;&gt;Node47 -->
<g id="edge43_Node000045_Node000047" class="edge">
<title>Node45&#45;&gt;Node47</title>
<g id="a_edge43_Node000045_Node000047"><a xlink:title=" ">
<path fill="none" stroke="#63b8ff" d="M1615.6,-230.87C1610.67,-223.67 1603.43,-213.07 1596.88,-203.49"/>
<polygon fill="#63b8ff" stroke="#63b8ff" points="1599.68,-201.39 1591.15,-195.11 1593.91,-205.34 1599.68,-201.39"/>
</a>
</g>
</g>
<!-- Node56&#45;&gt;Node7 -->
<g id="edge53_Node000056_Node000007" class="edge">
<title>Node56&#45;&gt;Node7</title>
<g id="a_edge53_Node000056_Node000007"><a xlink:title=" ">
<path fill="none" stroke="#63b8ff" d="M687.21,-170.47C693.02,-152.15 706.8,-108.68 714.69,-83.81"/>
<polygon fill="#63b8ff" stroke="#63b8ff" points="718.08,-84.72 717.76,-74.13 711.4,-82.6 718.08,-84.72"/>
</a>
</g>
</g>
<!-- Node57&#45;&gt;Node11 -->
<g id="edge59_Node000057_Node000011" class="edge">
<title>Node57&#45;&gt;Node11</title>
<g id="a_edge59_Node000057_Node000011"><a xlink:title=" ">
<path fill="none" stroke="#63b8ff" d="M481.39,-170.37C482.22,-162.25 483.49,-149.81 484.56,-139.39"/>
<polygon fill="#63b8ff" stroke="#63b8ff" points="488.07,-139.47 485.61,-129.17 481.11,-138.76 488.07,-139.47"/>
</a>
</g>
</g>
<!-- Node57&#45;&gt;Node13 -->
<g id="edge58_Node000057_Node000013" class="edge">
<title>Node57&#45;&gt;Node13</title>
<g id="a_edge58_Node000057_Node000013"><a xlink:title=" ">
<path fill="none" stroke="#63b8ff" d="M468.9,-170.3C448.63,-155.54 404.97,-125.68 363.5,-110 287.27,-81.18 261.09,-91.42 177.96,-74.18"/>
<polygon fill="#63b8ff" stroke="#63b8ff" points="178.6,-70.73 168.08,-72.06 177.13,-77.58 178.6,-70.73"/>
</a>
</g>
</g>
<!-- Node57&#45;&gt;Node19 -->
<g id="edge60_Node000057_Node000019" class="edge">
<title>Node57&#45;&gt;Node19</title>
<g id="a_edge60_Node000057_Node000019"><a xlink:title=" ">
<path fill="none" stroke="#63b8ff" d="M519.29,-174.01C605.42,-162.94 811.74,-136.41 897.31,-125.41"/>
<polygon fill="#63b8ff" stroke="#63b8ff" points="897.9,-128.86 907.37,-124.12 897,-121.92 897.9,-128.86"/>
</a>
</g>
</g>
<!-- Node57&#45;&gt;Node20 -->
<g id="edge56_Node000057_Node000020" class="edge">
<title>Node57&#45;&gt;Node20</title>
<g id="a_edge56_Node000057_Node000020"><a xlink:title=" ">
<path fill="none" stroke="#63b8ff" d="M499.74,-170.44C533.19,-155.89 604.53,-126.33 667.5,-110 765.45,-84.6 795.29,-93.42 898.89,-73.95"/>
<polygon fill="#63b8ff" stroke="#63b8ff" points="899.65,-77.37 908.81,-72.05 898.33,-70.5 899.65,-77.37"/>
</a>
</g>
</g>
<!-- Node57&#45;&gt;Node21 -->
<g id="edge57_Node000057_Node000021" class="edge">
<title>Node57&#45;&gt;Node21</title>
<g id="a_edge57_Node000057_Node000021"><a xlink:title=" ">
<path fill="none" stroke="#63b8ff" d="M519.31,-170.97C600.71,-154.07 795.47,-113.3 969.91,-74.1"/>
<polygon fill="#63b8ff" stroke="#63b8ff" points="970.79,-77.48 979.78,-71.87 969.25,-70.66 970.79,-77.48"/>
</a>
</g>
</g>
<!-- Node57&#45;&gt;Node26 -->
<g id="edge61_Node000057_Node000026" class="edge">
<title>Node57&#45;&gt;Node26</title>
<g id="a_edge61_Node000057_Node000026"><a xlink:title=" ">
<path fill="none" stroke="#63b8ff" d="M441.54,-174.93C386.53,-168.55 283.33,-154.24 198.5,-129 153.7,-115.67 104.27,-92.88 75.1,-78.54"/>
<polygon fill="#63b8ff" stroke="#63b8ff" points="76.53,-75.34 66.02,-74.02 73.41,-81.61 76.53,-75.34"/>
</a>
</g>
</g>
<!-- Node58 -->
<g id="Node000058" class="node">
<title>Node58</title>
<g id="a_Node000058"><a xlink:href="math__utils__base_8h.html" target="_top" xlink:title=" ">
<polygon fill="white" stroke="#666666" points="109.5,-129 3.5,-129 3.5,-110 109.5,-110 109.5,-129"/>
<text text-anchor="middle" x="56.5" y="-117" font-family="Helvetica,sans-Serif" font-size="10.00">math_utils_base.h</text>
</a>
</g>
</g>
<!-- Node57&#45;&gt;Node58 -->
<g id="edge62_Node000057_Node000058" class="edge">
<title>Node57&#45;&gt;Node58</title>
<g id="a_edge62_Node000057_Node000058"><a xlink:title=" ">
<path fill="none" stroke="#63b8ff" d="M441.75,-173.65C368.42,-163.54 208.77,-141.51 119.72,-129.22"/>
<polygon fill="#63b8ff" stroke="#63b8ff" points="120.14,-125.75 109.75,-127.85 119.18,-132.68 120.14,-125.75"/>
</a>
</g>
</g>
<!-- Node59 -->
<g id="Node000059" class="node">
<title>Node59</title>
<g id="a_Node000059"><a xlink:title=" ">
<polygon fill="#e0e0e0" stroke="#999999" points="355,-129 208,-129 208,-110 355,-110 355,-129"/>
<text text-anchor="middle" x="281.5" y="-117" font-family="Helvetica,sans-Serif" font-size="10.00">generated_comp_funcs.inc</text>
</a>
</g>
</g>
<!-- Node57&#45;&gt;Node59 -->
<g id="edge64_Node000057_Node000059" class="edge">
<title>Node57&#45;&gt;Node59</title>
<g id="a_edge64_Node000057_Node000059"><a xlink:title=" ">
<path fill="none" stroke="#63b8ff" d="M451.56,-170.49C416.93,-160.31 358.8,-143.22 320.29,-131.9"/>
<polygon fill="#63b8ff" stroke="#63b8ff" points="321.05,-128.48 310.47,-129.02 319.08,-135.2 321.05,-128.48"/>
</a>
</g>
</g>
<!-- Node58&#45;&gt;Node26 -->
<g id="edge63_Node000058_Node000026" class="edge">
<title>Node58&#45;&gt;Node26</title>
<g id="a_edge63_Node000058_Node000026"><a xlink:title=" ">
<path fill="none" stroke="#63b8ff" d="M55.34,-109.75C54.43,-102.8 53.11,-92.85 51.96,-84.13"/>
<polygon fill="#63b8ff" stroke="#63b8ff" points="55.41,-83.54 50.63,-74.09 48.47,-84.46 55.41,-83.54"/>
</a>
</g>
</g>
<!-- Node63 -->
<g id="Node000063" class="node">
<title>Node63</title>
<g id="a_Node000063"><a xlink:title=" ">
<polygon fill="#e0e0e0" stroke="#999999" points="2344.5,-250 2300.5,-250 2300.5,-231 2344.5,-231 2344.5,-250"/>
<text text-anchor="middle" x="2322.5" y="-238" font-family="Helvetica,sans-Serif" font-size="10.00">string</text>
</a>
</g>
</g>
<!-- Node62&#45;&gt;Node63 -->
<g id="edge68_Node000062_Node000063" class="edge">
<title>Node62&#45;&gt;Node63</title>
<g id="a_edge68_Node000062_Node000063"><a xlink:title=" ">
<path fill="none" stroke="#63b8ff" d="M2196.6,-285.98C2222.12,-276.97 2262.53,-262.69 2290.66,-252.75"/>
<polygon fill="#63b8ff" stroke="#63b8ff" points="2292.15,-255.94 2300.41,-249.3 2289.82,-249.33 2292.15,-255.94"/>
</a>
</g>
</g>
<!-- Node64 -->
<g id="Node000064" class="node">
<title>Node64</title>
<g id="a_Node000064"><a xlink:title=" ">
<polygon fill="#e0e0e0" stroke="#999999" points="2170.5,-250 2048.5,-250 2048.5,-231 2170.5,-231 2170.5,-250"/>
<text text-anchor="middle" x="2109.5" y="-238" font-family="Helvetica,sans-Serif" font-size="10.00">get_default_value.inc</text>
</a>
</g>
</g>
<!-- Node62&#45;&gt;Node64 -->
<g id="edge69_Node000062_Node000064" class="edge">
<title>Node62&#45;&gt;Node64</title>
<g id="a_edge69_Node000062_Node000064"><a xlink:title=" ">
<path fill="none" stroke="#63b8ff" d="M2162.38,-285.98C2153.06,-278.15 2139.03,-266.34 2127.76,-256.86"/>
<polygon fill="#63b8ff" stroke="#63b8ff" points="2129.71,-253.93 2119.81,-250.17 2125.21,-259.29 2129.71,-253.93"/>
</a>
</g>
</g>
<!-- Node65 -->
<g id="Node000065" class="node">
<title>Node65</title>
<g id="a_Node000065"><a xlink:title=" ">
<polygon fill="#e0e0e0" stroke="#999999" points="2282,-250 2189,-250 2189,-231 2282,-231 2282,-250"/>
<text text-anchor="middle" x="2235.5" y="-238" font-family="Helvetica,sans-Serif" font-size="10.00">to_str_funcs.inc</text>
</a>
</g>
</g>
<!-- Node62&#45;&gt;Node65 -->
<g id="edge70_Node000062_Node000065" class="edge">
<title>Node62&#45;&gt;Node65</title>
<g id="a_edge70_Node000062_Node000065"><a xlink:title=" ">
<path fill="none" stroke="#63b8ff" d="M2182.62,-285.98C2191.94,-278.15 2205.97,-266.34 2217.24,-256.86"/>
<polygon fill="#63b8ff" stroke="#63b8ff" points="2219.79,-259.29 2225.19,-250.17 2215.29,-253.93 2219.79,-259.29"/>
</a>
</g>
</g>
</g>
</svg>
