<?xml version="1.0" encoding="UTF-8" standalone="no"?>
<!DOCTYPE svg PUBLIC "-//W3C//DTD SVG 1.1//EN"
 "http://www.w3.org/Graphics/SVG/1.1/DTD/svg11.dtd">
<!-- Generated by graphviz version 2.43.0 (0)
 -->
<!-- Title: src/utils/astaroth_forcing.cc Pages: 1 -->
<svg width="3050pt" height="335pt"
 viewBox="0.00 0.00 3050.05 335.00" xmlns="http://www.w3.org/2000/svg" xmlns:xlink="http://www.w3.org/1999/xlink">
<g id="graph0" class="graph" transform="scale(1 1) rotate(0) translate(4 331)">
<title>src/utils/astaroth_forcing.cc</title>
<!-- Node1 -->
<g id="Node000001" class="node">
<title>Node1</title>
<g id="a_Node000001"><a xlink:title="Brief info.">
<polygon fill="#999999" stroke="#666666" points="2820.5,-327 2722.5,-327 2722.5,-297 2820.5,-297 2820.5,-327"/>
<text text-anchor="start" x="2730.5" y="-315" font-family="Helvetica,sans-Serif" font-size="10.00">src/utils/astaroth</text>
<text text-anchor="middle" x="2771.5" y="-304" font-family="Helvetica,sans-Serif" font-size="10.00">_forcing.cc</text>
</a>
</g>
</g>
<!-- Node2 -->
<g id="Node000002" class="node">
<title>Node2</title>
<g id="a_Node000002"><a xlink:href="astaroth__base_8h.html" target="_top" xlink:title=" ">
<polygon fill="white" stroke="#666666" points="2819,-261 2724,-261 2724,-242 2819,-242 2819,-261"/>
<text text-anchor="middle" x="2771.5" y="-249" font-family="Helvetica,sans-Serif" font-size="10.00">astaroth_base.h</text>
</a>
</g>
</g>
<!-- Node1&#45;&gt;Node2 -->
<g id="edge1_Node000001_Node000002" class="edge">
<title>Node1&#45;&gt;Node2</title>
<g id="a_edge1_Node000001_Node000002"><a xlink:title=" ">
<path fill="none" stroke="#63b8ff" d="M2771.5,-296.84C2771.5,-289.21 2771.5,-279.7 2771.5,-271.45"/>
<polygon fill="#63b8ff" stroke="#63b8ff" points="2775,-271.27 2771.5,-261.27 2768,-271.27 2775,-271.27"/>
</a>
</g>
</g>
<!-- Node18 -->
<g id="Node000018" class="node">
<title>Node18</title>
<g id="a_Node000018"><a xlink:href="errchk_8h.html" target="_top" xlink:title="Brief info.">
<polygon fill="white" stroke="#666666" points="2723.5,-134.5 2667.5,-134.5 2667.5,-115.5 2723.5,-115.5 2723.5,-134.5"/>
<text text-anchor="middle" x="2695.5" y="-122.5" font-family="Helvetica,sans-Serif" font-size="10.00">errchk.h</text>
</a>
</g>
</g>
<!-- Node1&#45;&gt;Node18 -->
<g id="edge60_Node000001_Node000018" class="edge">
<title>Node1&#45;&gt;Node18</title>
<g id="a_edge60_Node000001_Node000018"><a xlink:title=" ">
<path fill="none" stroke="#63b8ff" d="M2749.16,-296.81C2737.2,-287.99 2723.36,-275.57 2715.5,-261 2695.23,-223.41 2693.59,-171.83 2694.39,-144.59"/>
<polygon fill="#63b8ff" stroke="#63b8ff" points="2697.89,-144.67 2694.84,-134.52 2690.9,-144.36 2697.89,-144.67"/>
</a>
</g>
</g>
<!-- Node43 -->
<g id="Node000043" class="node">
<title>Node43</title>
<g id="a_Node000043"><a xlink:href="astaroth__forcing_8h.html" target="_top" xlink:title=" ">
<polygon fill="white" stroke="#666666" points="2231,-261 2126,-261 2126,-242 2231,-242 2231,-261"/>
<text text-anchor="middle" x="2178.5" y="-249" font-family="Helvetica,sans-Serif" font-size="10.00">astaroth_forcing.h</text>
</a>
</g>
</g>
<!-- Node1&#45;&gt;Node43 -->
<g id="edge54_Node000001_Node000043" class="edge">
<title>Node1&#45;&gt;Node43</title>
<g id="a_edge54_Node000001_Node000043"><a xlink:title=" ">
<path fill="none" stroke="#63b8ff" d="M2722.47,-306.16C2615.29,-295.59 2360.25,-270.43 2241.43,-258.71"/>
<polygon fill="#63b8ff" stroke="#63b8ff" points="2241.69,-255.22 2231.4,-257.72 2241.01,-262.18 2241.69,-255.22"/>
</a>
</g>
</g>
<!-- Node44 -->
<g id="Node000044" class="node">
<title>Node44</title>
<g id="a_Node000044"><a xlink:href="astaroth__random_8h.html" target="_top" xlink:title=" ">
<polygon fill="white" stroke="#666666" points="377,-200.5 268,-200.5 268,-181.5 377,-181.5 377,-200.5"/>
<text text-anchor="middle" x="322.5" y="-188.5" font-family="Helvetica,sans-Serif" font-size="10.00">astaroth_random.h</text>
</a>
</g>
</g>
<!-- Node1&#45;&gt;Node44 -->
<g id="edge56_Node000001_Node000044" class="edge">
<title>Node1&#45;&gt;Node44</title>
<g id="a_edge56_Node000001_Node000044"><a xlink:title=" ">
<path fill="none" stroke="#63b8ff" d="M2722.3,-308.61C2412.99,-293.58 738.66,-212.22 387.23,-195.15"/>
<polygon fill="#63b8ff" stroke="#63b8ff" points="387.38,-191.65 377.22,-194.66 387.04,-198.64 387.38,-191.65"/>
</a>
</g>
</g>
<!-- Node46 -->
<g id="Node000046" class="node">
<title>Node46</title>
<g id="a_Node000046"><a xlink:title=" ">
<polygon fill="#e0e0e0" stroke="#999999" points="2884,-261 2837,-261 2837,-242 2884,-242 2884,-261"/>
<text text-anchor="middle" x="2860.5" y="-249" font-family="Helvetica,sans-Serif" font-size="10.00">cmath</text>
</a>
</g>
</g>
<!-- Node1&#45;&gt;Node46 -->
<g id="edge61_Node000001_Node000046" class="edge">
<title>Node1&#45;&gt;Node46</title>
<g id="a_edge61_Node000001_Node000046"><a xlink:title=" ">
<path fill="none" stroke="#63b8ff" d="M2793.04,-296.84C2806.97,-287.68 2825.03,-275.82 2838.95,-266.66"/>
<polygon fill="#63b8ff" stroke="#63b8ff" points="2840.99,-269.51 2847.42,-261.09 2837.15,-263.66 2840.99,-269.51"/>
</a>
</g>
</g>
<!-- Node47 -->
<g id="Node000047" class="node">
<title>Node47</title>
<g id="a_Node000047"><a xlink:title=" ">
<polygon fill="#e0e0e0" stroke="#999999" points="2940.5,-261 2902.5,-261 2902.5,-242 2940.5,-242 2940.5,-261"/>
<text text-anchor="middle" x="2921.5" y="-249" font-family="Helvetica,sans-Serif" font-size="10.00">map</text>
</a>
</g>
</g>
<!-- Node1&#45;&gt;Node47 -->
<g id="edge62_Node000001_Node000047" class="edge">
<title>Node1&#45;&gt;Node47</title>
<g id="a_edge62_Node000001_Node000047"><a xlink:title=" ">
<path fill="none" stroke="#63b8ff" d="M2807.43,-296.99C2833.63,-286.77 2868.67,-273.1 2892.96,-263.63"/>
<polygon fill="#63b8ff" stroke="#63b8ff" points="2894.3,-266.86 2902.35,-259.97 2891.76,-260.34 2894.3,-266.86"/>
</a>
</g>
</g>
<!-- Node48 -->
<g id="Node000048" class="node">
<title>Node48</title>
<g id="a_Node000048"><a xlink:title=" ">
<polygon fill="#e0e0e0" stroke="#999999" points="3006,-261 2959,-261 2959,-242 3006,-242 3006,-261"/>
<text text-anchor="middle" x="2982.5" y="-249" font-family="Helvetica,sans-Serif" font-size="10.00">vector</text>
</a>
</g>
</g>
<!-- Node1&#45;&gt;Node48 -->
<g id="edge63_Node000001_Node000048" class="edge">
<title>Node1&#45;&gt;Node48</title>
<g id="a_edge63_Node000001_Node000048"><a xlink:title=" ">
<path fill="none" stroke="#63b8ff" d="M2820.7,-297.36C2860.1,-286.44 2914.31,-271.4 2948.89,-261.82"/>
<polygon fill="#63b8ff" stroke="#63b8ff" points="2950.24,-265.07 2958.95,-259.03 2948.37,-258.33 2950.24,-265.07"/>
</a>
</g>
</g>
<!-- Node3 -->
<g id="Node000003" class="node">
<title>Node3</title>
<g id="a_Node000003"><a xlink:title=" ">
<polygon fill="#e0e0e0" stroke="#999999" points="2799.5,-74 2737.5,-74 2737.5,-55 2799.5,-55 2799.5,-74"/>
<text text-anchor="middle" x="2768.5" y="-62" font-family="Helvetica,sans-Serif" font-size="10.00">stdbool.h</text>
</a>
</g>
</g>
<!-- Node2&#45;&gt;Node3 -->
<g id="edge2_Node000002_Node000003" class="edge">
<title>Node2&#45;&gt;Node3</title>
<g id="a_edge2_Node000002_Node000003"><a xlink:title=" ">
<path fill="none" stroke="#63b8ff" d="M2819.21,-243.28C2909.85,-227.64 3092.43,-185.8 3028.5,-110 3001.04,-77.44 2876.17,-68.7 2809.98,-66.36"/>
<polygon fill="#63b8ff" stroke="#63b8ff" points="2809.99,-62.86 2799.88,-66.03 2809.77,-69.85 2809.99,-62.86"/>
</a>
</g>
</g>
<!-- Node4 -->
<g id="Node000004" class="node">
<title>Node4</title>
<g id="a_Node000004"><a xlink:href="acc__runtime_8h.html" target="_top" xlink:title=" ">
<polygon fill="white" stroke="#666666" points="1849.5,-200.5 1763.5,-200.5 1763.5,-181.5 1849.5,-181.5 1849.5,-200.5"/>
<text text-anchor="middle" x="1806.5" y="-188.5" font-family="Helvetica,sans-Serif" font-size="10.00">acc_runtime.h</text>
</a>
</g>
</g>
<!-- Node2&#45;&gt;Node4 -->
<g id="edge3_Node000002_Node000004" class="edge">
<title>Node2&#45;&gt;Node4</title>
<g id="a_edge3_Node000002_Node000004"><a xlink:title=" ">
<path fill="none" stroke="#63b8ff" d="M2723.97,-247.62C2561.7,-237.78 2030.17,-205.56 1859.66,-195.22"/>
<polygon fill="#63b8ff" stroke="#63b8ff" points="1859.86,-191.73 1849.66,-194.62 1859.43,-198.72 1859.86,-191.73"/>
</a>
</g>
</g>
<!-- Node24 -->
<g id="Node000024" class="node">
<title>Node24</title>
<g id="a_Node000024"><a xlink:title=" ">
<polygon fill="#e0e0e0" stroke="#999999" points="2919,-134.5 2780,-134.5 2780,-115.5 2919,-115.5 2919,-134.5"/>
<text text-anchor="middle" x="2849.5" y="-122.5" font-family="Helvetica,sans-Serif" font-size="10.00">user_built&#45;in_constants.h</text>
</a>
</g>
</g>
<!-- Node2&#45;&gt;Node24 -->
<g id="edge52_Node000002_Node000024" class="edge">
<title>Node2&#45;&gt;Node24</title>
<g id="a_edge52_Node000002_Node000024"><a xlink:title=" ">
<path fill="none" stroke="#63b8ff" d="M2772.2,-241.57C2773.7,-226.86 2778.25,-197.09 2791.5,-176 2800.49,-161.69 2814.86,-149.26 2827.04,-140.37"/>
<polygon fill="#63b8ff" stroke="#63b8ff" points="2829.2,-143.13 2835.42,-134.55 2825.21,-137.38 2829.2,-143.13"/>
</a>
</g>
</g>
<!-- Node38 -->
<g id="Node000038" class="node">
<title>Node38</title>
<g id="a_Node000038"><a xlink:href="func__define_8h.html" target="_top" xlink:title=" ">
<polygon fill="white" stroke="#666666" points="3019.5,-134.5 2937.5,-134.5 2937.5,-115.5 3019.5,-115.5 3019.5,-134.5"/>
<text text-anchor="middle" x="2978.5" y="-122.5" font-family="Helvetica,sans-Serif" font-size="10.00">func_define.h</text>
</a>
</g>
</g>
<!-- Node2&#45;&gt;Node38 -->
<g id="edge51_Node000002_Node000038" class="edge">
<title>Node2&#45;&gt;Node38</title>
<g id="a_edge51_Node000002_Node000038"><a xlink:title=" ">
<path fill="none" stroke="#63b8ff" d="M2819.14,-242.58C2862.38,-234.58 2922.11,-221.25 2940.5,-206 2959.51,-190.24 2969.62,-162.77 2974.52,-144.49"/>
<polygon fill="#63b8ff" stroke="#63b8ff" points="2977.94,-145.25 2976.88,-134.71 2971.13,-143.61 2977.94,-145.25"/>
</a>
</g>
</g>
<!-- Node42 -->
<g id="Node000042" class="node">
<title>Node42</title>
<g id="a_Node000042"><a xlink:title=" ">
<polygon fill="#e0e0e0" stroke="#999999" points="2931,-206 2800,-206 2800,-176 2931,-176 2931,-206"/>
<text text-anchor="start" x="2808" y="-194" font-family="Helvetica,sans-Serif" font-size="10.00">user_builtin_non_scalar</text>
<text text-anchor="middle" x="2865.5" y="-183" font-family="Helvetica,sans-Serif" font-size="10.00">_constants.h</text>
</a>
</g>
</g>
<!-- Node2&#45;&gt;Node42 -->
<g id="edge53_Node000002_Node000042" class="edge">
<title>Node2&#45;&gt;Node42</title>
<g id="a_edge53_Node000002_Node000042"><a xlink:title=" ">
<path fill="none" stroke="#63b8ff" d="M2785.37,-241.87C2798.12,-233.93 2817.5,-221.87 2834.01,-211.6"/>
<polygon fill="#63b8ff" stroke="#63b8ff" points="2836.18,-214.37 2842.82,-206.11 2832.48,-208.43 2836.18,-214.37"/>
</a>
</g>
</g>
<!-- Node4&#45;&gt;Node3 -->
<g id="edge5_Node000004_Node000003" class="edge">
<title>Node4&#45;&gt;Node3</title>
<g id="a_edge5_Node000004_Node000003"><a xlink:title=" ">
<path fill="none" stroke="#63b8ff" d="M1849.54,-190.22C2022.15,-190.74 2658.45,-189.29 2732.5,-140 2751.42,-127.4 2760.71,-101.91 2765.04,-84.28"/>
<polygon fill="#63b8ff" stroke="#63b8ff" points="2768.51,-84.79 2767.18,-74.28 2761.67,-83.32 2768.51,-84.79"/>
</a>
</g>
</g>
<!-- Node5 -->
<g id="Node000005" class="node">
<title>Node5</title>
<g id="a_Node000005"><a xlink:title=" ">
<polygon fill="#e0e0e0" stroke="#999999" points="2112.5,-74 2062.5,-74 2062.5,-55 2112.5,-55 2112.5,-74"/>
<text text-anchor="middle" x="2087.5" y="-62" font-family="Helvetica,sans-Serif" font-size="10.00">stdio.h</text>
</a>
</g>
</g>
<!-- Node4&#45;&gt;Node5 -->
<g id="edge4_Node000004_Node000005" class="edge">
<title>Node4&#45;&gt;Node5</title>
<g id="a_edge4_Node000004_Node000005"><a xlink:title=" ">
<path fill="none" stroke="#63b8ff" d="M1831.57,-181.38C1855.87,-172.55 1893.38,-157.64 1923.5,-140 1942.37,-128.95 1943.3,-120.46 1962.5,-110 1991.25,-94.34 2026.61,-82.35 2052.37,-74.78"/>
<polygon fill="#63b8ff" stroke="#63b8ff" points="2053.44,-78.12 2062.09,-72.01 2051.51,-71.39 2053.44,-78.12"/>
</a>
</g>
</g>
<!-- Node6 -->
<g id="Node000006" class="node">
<title>Node6</title>
<g id="a_Node000006"><a xlink:href="device__headers_8h.html" target="_top" xlink:title=" ">
<polygon fill="white" stroke="#666666" points="646.5,-74 544.5,-74 544.5,-55 646.5,-55 646.5,-74"/>
<text text-anchor="middle" x="595.5" y="-62" font-family="Helvetica,sans-Serif" font-size="10.00">device_headers.h</text>
</a>
</g>
</g>
<!-- Node4&#45;&gt;Node6 -->
<g id="edge6_Node000004_Node000006" class="edge">
<title>Node4&#45;&gt;Node6</title>
<g id="a_edge6_Node000004_Node000006"><a xlink:title=" ">
<path fill="none" stroke="#63b8ff" d="M1763.17,-190.1C1534.62,-190.39 477.84,-189.09 430.5,-140 421.24,-130.4 422.39,-120.58 430.5,-110 443.33,-93.25 492.86,-81.37 534.34,-74.12"/>
<polygon fill="#63b8ff" stroke="#63b8ff" points="535.13,-77.54 544.41,-72.43 533.96,-70.64 535.13,-77.54"/>
</a>
</g>
</g>
<!-- Node9 -->
<g id="Node000009" class="node">
<title>Node9</title>
<g id="a_Node000009"><a xlink:title=" ">
<polygon fill="#e0e0e0" stroke="#999999" points="526,-74 431,-74 431,-55 526,-55 526,-74"/>
<text text-anchor="middle" x="478.5" y="-62" font-family="Helvetica,sans-Serif" font-size="10.00">builtin_enums.h</text>
</a>
</g>
</g>
<!-- Node4&#45;&gt;Node9 -->
<g id="edge9_Node000004_Node000009" class="edge">
<title>Node4&#45;&gt;Node9</title>
<g id="a_edge9_Node000004_Node000009"><a xlink:title=" ">
<path fill="none" stroke="#63b8ff" d="M1763.23,-190.11C1533.81,-190.47 468.22,-189.47 420.5,-140 411.24,-130.4 414.6,-121.96 420.5,-110 426.99,-96.85 439.43,-86.5 451.14,-79.11"/>
<polygon fill="#63b8ff" stroke="#63b8ff" points="452.96,-82.1 459.83,-74.03 449.43,-76.05 452.96,-82.1"/>
</a>
</g>
</g>
<!-- Node10 -->
<g id="Node000010" class="node">
<title>Node10</title>
<g id="a_Node000010"><a xlink:href="datatypes_8h.html" target="_top" xlink:title=" ">
<polygon fill="white" stroke="#666666" points="307.5,-134.5 233.5,-134.5 233.5,-115.5 307.5,-115.5 307.5,-134.5"/>
<text text-anchor="middle" x="270.5" y="-122.5" font-family="Helvetica,sans-Serif" font-size="10.00">datatypes.h</text>
</a>
</g>
</g>
<!-- Node4&#45;&gt;Node10 -->
<g id="edge10_Node000004_Node000010" class="edge">
<title>Node4&#45;&gt;Node10</title>
<g id="a_edge10_Node000004_Node000010"><a xlink:title=" ">
<path fill="none" stroke="#63b8ff" d="M1763.39,-189.91C1550.54,-189.25 610.32,-183.88 321.5,-140 316.7,-139.27 311.71,-138.25 306.82,-137.08"/>
<polygon fill="#63b8ff" stroke="#63b8ff" points="307.54,-133.65 296.98,-134.53 305.78,-140.43 307.54,-133.65"/>
</a>
</g>
</g>
<!-- Node4&#45;&gt;Node18 -->
<g id="edge22_Node000004_Node000018" class="edge">
<title>Node4&#45;&gt;Node18</title>
<g id="a_edge22_Node000004_Node000018"><a xlink:title=" ">
<path fill="none" stroke="#63b8ff" d="M1849.63,-189.19C2000.15,-186.1 2501.54,-173.48 2658.5,-140 2661.18,-139.43 2663.92,-138.7 2666.64,-137.87"/>
<polygon fill="#63b8ff" stroke="#63b8ff" points="2667.94,-141.12 2676.25,-134.55 2665.65,-134.5 2667.94,-141.12"/>
</a>
</g>
</g>
<!-- Node22 -->
<g id="Node000022" class="node">
<title>Node22</title>
<g id="a_Node000022"><a xlink:title=" ">
<polygon fill="#e0e0e0" stroke="#999999" points="1915,-134.5 1828,-134.5 1828,-115.5 1915,-115.5 1915,-134.5"/>
<text text-anchor="middle" x="1871.5" y="-122.5" font-family="Helvetica,sans-Serif" font-size="10.00">user_defines.h</text>
</a>
</g>
</g>
<!-- Node4&#45;&gt;Node22 -->
<g id="edge31_Node000004_Node000022" class="edge">
<title>Node4&#45;&gt;Node22</title>
<g id="a_edge31_Node000004_Node000022"><a xlink:title=" ">
<path fill="none" stroke="#63b8ff" d="M1815.27,-181.37C1825.48,-171.31 1842.58,-154.48 1855.24,-142.01"/>
<polygon fill="#63b8ff" stroke="#63b8ff" points="1857.79,-144.42 1862.46,-134.91 1852.87,-139.43 1857.79,-144.42"/>
</a>
</g>
</g>
<!-- Node23 -->
<g id="Node000023" class="node">
<title>Node23</title>
<g id="a_Node000023"><a xlink:title=" ">
<polygon fill="#e0e0e0" stroke="#999999" points="2057.5,-134.5 1971.5,-134.5 1971.5,-115.5 2057.5,-115.5 2057.5,-134.5"/>
<text text-anchor="middle" x="2014.5" y="-122.5" font-family="Helvetica,sans-Serif" font-size="10.00">profiles_info.h</text>
</a>
</g>
</g>
<!-- Node4&#45;&gt;Node23 -->
<g id="edge32_Node000004_Node000023" class="edge">
<title>Node4&#45;&gt;Node23</title>
<g id="a_edge32_Node000004_Node000023"><a xlink:title=" ">
<path fill="none" stroke="#63b8ff" d="M1834.55,-181.37C1871.33,-170.05 1935.97,-150.16 1976.94,-137.56"/>
<polygon fill="#63b8ff" stroke="#63b8ff" points="1978.03,-140.88 1986.56,-134.6 1975.97,-134.19 1978.03,-140.88"/>
</a>
</g>
</g>
<!-- Node4&#45;&gt;Node24 -->
<g id="edge33_Node000004_Node000024" class="edge">
<title>Node4&#45;&gt;Node24</title>
<g id="a_edge33_Node000004_Node000024"><a xlink:title=" ">
<path fill="none" stroke="#63b8ff" d="M1849.65,-189.49C1985.03,-187.5 2413.31,-178.41 2765.5,-140 2774.67,-139 2784.37,-137.65 2793.78,-136.19"/>
<polygon fill="#63b8ff" stroke="#63b8ff" points="2794.54,-139.62 2803.85,-134.57 2793.42,-132.71 2794.54,-139.62"/>
</a>
</g>
</g>
<!-- Node25 -->
<g id="Node000025" class="node">
<title>Node25</title>
<g id="a_Node000025"><a xlink:href="func__attributes_8h.html" target="_top" xlink:title=" ">
<polygon fill="white" stroke="#666666" points="2175,-134.5 2076,-134.5 2076,-115.5 2175,-115.5 2175,-134.5"/>
<text text-anchor="middle" x="2125.5" y="-122.5" font-family="Helvetica,sans-Serif" font-size="10.00">func_attributes.h</text>
</a>
</g>
</g>
<!-- Node4&#45;&gt;Node25 -->
<g id="edge34_Node000004_Node000025" class="edge">
<title>Node4&#45;&gt;Node25</title>
<g id="a_edge34_Node000004_Node000025"><a xlink:title=" ">
<path fill="none" stroke="#63b8ff" d="M1849.86,-182.25C1901.57,-172.87 1990.55,-156.31 2066.5,-140 2071.14,-139 2075.99,-137.92 2080.81,-136.82"/>
<polygon fill="#63b8ff" stroke="#63b8ff" points="2081.67,-140.21 2090.61,-134.54 2080.08,-133.39 2081.67,-140.21"/>
</a>
</g>
</g>
<!-- Node26 -->
<g id="Node000026" class="node">
<title>Node26</title>
<g id="a_Node000026"><a xlink:title=" ">
<polygon fill="#e0e0e0" stroke="#999999" points="2318,-134.5 2193,-134.5 2193,-115.5 2318,-115.5 2318,-134.5"/>
<text text-anchor="middle" x="2255.5" y="-122.5" font-family="Helvetica,sans-Serif" font-size="10.00">user_input_typedefs.h</text>
</a>
</g>
</g>
<!-- Node4&#45;&gt;Node26 -->
<g id="edge35_Node000004_Node000026" class="edge">
<title>Node4&#45;&gt;Node26</title>
<g id="a_edge35_Node000004_Node000026"><a xlink:title=" ">
<path fill="none" stroke="#63b8ff" d="M1849.71,-185.18C1920.07,-177.14 2063.66,-159.89 2184.5,-140 2191.08,-138.92 2197.98,-137.68 2204.79,-136.4"/>
<polygon fill="#63b8ff" stroke="#63b8ff" points="2205.49,-139.83 2214.66,-134.51 2204.18,-132.96 2205.49,-139.83"/>
</a>
</g>
</g>
<!-- Node27 -->
<g id="Node000027" class="node">
<title>Node27</title>
<g id="a_Node000027"><a xlink:title=" ">
<polygon fill="#e0e0e0" stroke="#999999" points="2419,-134.5 2336,-134.5 2336,-115.5 2419,-115.5 2419,-134.5"/>
<text text-anchor="middle" x="2377.5" y="-122.5" font-family="Helvetica,sans-Serif" font-size="10.00">output_decl.h</text>
</a>
</g>
</g>
<!-- Node4&#45;&gt;Node27 -->
<g id="edge36_Node000004_Node000027" class="edge">
<title>Node4&#45;&gt;Node27</title>
<g id="a_edge36_Node000004_Node000027"><a xlink:title=" ">
<path fill="none" stroke="#63b8ff" d="M1849.75,-188.44C1939.49,-184.64 2152.19,-172.69 2327.5,-140 2331.74,-139.21 2336.14,-138.23 2340.49,-137.15"/>
<polygon fill="#63b8ff" stroke="#63b8ff" points="2341.68,-140.45 2350.46,-134.51 2339.9,-133.69 2341.68,-140.45"/>
</a>
</g>
</g>
<!-- Node28 -->
<g id="Node000028" class="node">
<title>Node28</title>
<g id="a_Node000028"><a xlink:title=" ">
<polygon fill="#e0e0e0" stroke="#999999" points="2553.5,-134.5 2437.5,-134.5 2437.5,-115.5 2553.5,-115.5 2553.5,-134.5"/>
<text text-anchor="middle" x="2495.5" y="-122.5" font-family="Helvetica,sans-Serif" font-size="10.00">comp_loaded_decl.h</text>
</a>
</g>
</g>
<!-- Node4&#45;&gt;Node28 -->
<g id="edge37_Node000004_Node000028" class="edge">
<title>Node4&#45;&gt;Node28</title>
<g id="a_edge37_Node000004_Node000028"><a xlink:title=" ">
<path fill="none" stroke="#63b8ff" d="M1849.69,-188.4C1951.15,-184.23 2212.44,-171.13 2428.5,-140 2435.14,-139.04 2442.11,-137.83 2448.93,-136.52"/>
<polygon fill="#63b8ff" stroke="#63b8ff" points="2449.67,-139.94 2458.79,-134.54 2448.29,-133.07 2449.67,-139.94"/>
</a>
</g>
</g>
<!-- Node29 -->
<g id="Node000029" class="node">
<title>Node29</title>
<g id="a_Node000029"><a xlink:title=" ">
<polygon fill="#e0e0e0" stroke="#999999" points="2649.5,-134.5 2571.5,-134.5 2571.5,-115.5 2649.5,-115.5 2649.5,-134.5"/>
<text text-anchor="middle" x="2610.5" y="-122.5" font-family="Helvetica,sans-Serif" font-size="10.00">comp_decl.h</text>
</a>
</g>
</g>
<!-- Node4&#45;&gt;Node29 -->
<g id="edge38_Node000004_Node000029" class="edge">
<title>Node4&#45;&gt;Node29</title>
<g id="a_edge38_Node000004_Node000029"><a xlink:title=" ">
<path fill="none" stroke="#63b8ff" d="M1849.52,-190.41C1965.57,-190.83 2294.37,-187.38 2562.5,-140 2566.68,-139.26 2571.02,-138.29 2575.3,-137.21"/>
<polygon fill="#63b8ff" stroke="#63b8ff" points="2576.37,-140.55 2585.09,-134.53 2574.52,-133.8 2576.37,-140.55"/>
</a>
</g>
</g>
<!-- Node30 -->
<g id="Node000030" class="node">
<title>Node30</title>
<g id="a_Node000030"><a xlink:title=" ">
<polygon fill="#e0e0e0" stroke="#999999" points="547.5,-134.5 439.5,-134.5 439.5,-115.5 547.5,-115.5 547.5,-134.5"/>
<text text-anchor="middle" x="493.5" y="-122.5" font-family="Helvetica,sans-Serif" font-size="10.00">info_loaded_decl.h</text>
</a>
</g>
</g>
<!-- Node4&#45;&gt;Node30 -->
<g id="edge39_Node000004_Node000030" class="edge">
<title>Node4&#45;&gt;Node30</title>
<g id="a_edge39_Node000004_Node000030"><a xlink:title=" ">
<path fill="none" stroke="#63b8ff" d="M1763.46,-189.31C1572.1,-186.09 797.45,-171.34 556.5,-140 550.08,-139.17 543.36,-138 536.78,-136.68"/>
<polygon fill="#63b8ff" stroke="#63b8ff" points="537.16,-133.18 526.65,-134.53 535.71,-140.03 537.16,-133.18"/>
</a>
</g>
</g>
<!-- Node31 -->
<g id="Node000031" class="node">
<title>Node31</title>
<g id="a_Node000031"><a xlink:title=" ">
<polygon fill="#e0e0e0" stroke="#999999" points="705.5,-134.5 565.5,-134.5 565.5,-115.5 705.5,-115.5 705.5,-134.5"/>
<text text-anchor="middle" x="635.5" y="-122.5" font-family="Helvetica,sans-Serif" font-size="10.00">device_mesh_info_decl.h</text>
</a>
</g>
</g>
<!-- Node4&#45;&gt;Node31 -->
<g id="edge40_Node000004_Node000031" class="edge">
<title>Node4&#45;&gt;Node31</title>
<g id="a_edge40_Node000004_Node000031"><a xlink:title=" ">
<path fill="none" stroke="#63b8ff" d="M1763.42,-190.03C1616.35,-189.71 1120.75,-185.1 714.5,-140 705.94,-139.05 696.91,-137.74 688.14,-136.31"/>
<polygon fill="#63b8ff" stroke="#63b8ff" points="688.44,-132.81 677.99,-134.57 687.26,-139.71 688.44,-132.81"/>
</a>
</g>
</g>
<!-- Node32 -->
<g id="Node000032" class="node">
<title>Node32</title>
<g id="a_Node000032"><a xlink:title=" ">
<polygon fill="#e0e0e0" stroke="#999999" points="801,-134.5 724,-134.5 724,-115.5 801,-115.5 801,-134.5"/>
<text text-anchor="middle" x="762.5" y="-122.5" font-family="Helvetica,sans-Serif" font-size="10.00">array_decl.h</text>
</a>
</g>
</g>
<!-- Node4&#45;&gt;Node32 -->
<g id="edge41_Node000004_Node000032" class="edge">
<title>Node4&#45;&gt;Node32</title>
<g id="a_edge41_Node000004_Node000032"><a xlink:title=" ">
<path fill="none" stroke="#63b8ff" d="M1763.24,-189.17C1596.84,-185.78 997.98,-171.6 810.5,-140 806.26,-139.29 801.87,-138.32 797.54,-137.24"/>
<polygon fill="#63b8ff" stroke="#63b8ff" points="798.22,-133.8 787.65,-134.53 796.37,-140.55 798.22,-133.8"/>
</a>
</g>
</g>
<!-- Node33 -->
<g id="Node000033" class="node">
<title>Node33</title>
<g id="a_Node000033"><a xlink:title=" ">
<polygon fill="#e0e0e0" stroke="#999999" points="895.5,-134.5 819.5,-134.5 819.5,-115.5 895.5,-115.5 895.5,-134.5"/>
<text text-anchor="middle" x="857.5" y="-122.5" font-family="Helvetica,sans-Serif" font-size="10.00">input_decl.h</text>
</a>
</g>
</g>
<!-- Node4&#45;&gt;Node33 -->
<g id="edge42_Node000004_Node000033" class="edge">
<title>Node4&#45;&gt;Node33</title>
<g id="a_edge42_Node000004_Node000033"><a xlink:title=" ">
<path fill="none" stroke="#63b8ff" d="M1763.37,-188.95C1607.36,-184.93 1072.72,-169.3 904.5,-140 900.35,-139.28 896.04,-138.31 891.8,-137.22"/>
<polygon fill="#63b8ff" stroke="#63b8ff" points="892.69,-133.84 882.12,-134.51 890.81,-140.58 892.69,-133.84"/>
</a>
</g>
</g>
<!-- Node34 -->
<g id="Node000034" class="node">
<title>Node34</title>
<g id="a_Node000034"><a xlink:href="ac__helpers_8h.html" target="_top" xlink:title=" ">
<polygon fill="white" stroke="#666666" points="991.5,-134.5 913.5,-134.5 913.5,-115.5 991.5,-115.5 991.5,-134.5"/>
<text text-anchor="middle" x="952.5" y="-122.5" font-family="Helvetica,sans-Serif" font-size="10.00">ac_helpers.h</text>
</a>
</g>
</g>
<!-- Node4&#45;&gt;Node34 -->
<g id="edge43_Node000004_Node000034" class="edge">
<title>Node4&#45;&gt;Node34</title>
<g id="a_edge43_Node000004_Node000034"><a xlink:title=" ">
<path fill="none" stroke="#63b8ff" d="M1763.29,-190.67C1642.01,-191.83 1288.46,-190.28 1000.5,-140 996.32,-139.27 991.98,-138.31 987.7,-137.23"/>
<polygon fill="#63b8ff" stroke="#63b8ff" points="988.48,-133.81 977.91,-134.55 986.63,-140.56 988.48,-133.81"/>
</a>
</g>
</g>
<!-- Node35 -->
<g id="Node000035" class="node">
<title>Node35</title>
<g id="a_Node000035"><a xlink:title=" ">
<polygon fill="#e0e0e0" stroke="#999999" points="1127.5,-140 1009.5,-140 1009.5,-110 1127.5,-110 1127.5,-140"/>
<text text-anchor="start" x="1017.5" y="-128" font-family="Helvetica,sans-Serif" font-size="10.00">scalar_reduce_buffer</text>
<text text-anchor="middle" x="1068.5" y="-117" font-family="Helvetica,sans-Serif" font-size="10.00">_defs.h</text>
</a>
</g>
</g>
<!-- Node4&#45;&gt;Node35 -->
<g id="edge44_Node000004_Node000035" class="edge">
<title>Node4&#45;&gt;Node35</title>
<g id="a_edge44_Node000004_Node000035"><a xlink:title=" ">
<path fill="none" stroke="#63b8ff" d="M1763.18,-188.7C1657.76,-185.11 1379.34,-173.17 1137.78,-140.06"/>
<polygon fill="#63b8ff" stroke="#63b8ff" points="1138.15,-136.57 1127.76,-138.67 1137.19,-143.51 1138.15,-136.57"/>
</a>
</g>
</g>
<!-- Node36 -->
<g id="Node000036" class="node">
<title>Node36</title>
<g id="a_Node000036"><a xlink:title=" ">
<polygon fill="#e0e0e0" stroke="#999999" points="1269,-140 1146,-140 1146,-110 1269,-110 1269,-140"/>
<text text-anchor="start" x="1154" y="-128" font-family="Helvetica,sans-Serif" font-size="10.00">scalar_reduce_buffers</text>
<text text-anchor="middle" x="1207.5" y="-117" font-family="Helvetica,sans-Serif" font-size="10.00">_in_vba.h</text>
</a>
</g>
</g>
<!-- Node4&#45;&gt;Node36 -->
<g id="edge45_Node000004_Node000036" class="edge">
<title>Node4&#45;&gt;Node36</title>
<g id="a_edge45_Node000004_Node000036"><a xlink:title=" ">
<path fill="none" stroke="#63b8ff" d="M1763.21,-187.38C1674.4,-181.68 1465.07,-166.6 1278.97,-139.96"/>
<polygon fill="#63b8ff" stroke="#63b8ff" points="1279.41,-136.49 1269.01,-138.52 1278.4,-143.42 1279.41,-136.49"/>
</a>
</g>
</g>
<!-- Node37 -->
<g id="Node000037" class="node">
<title>Node37</title>
<g id="a_Node000037"><a xlink:href="astaroth__analysis_8h.html" target="_top" xlink:title=" ">
<polygon fill="white" stroke="#666666" points="1399.5,-134.5 1287.5,-134.5 1287.5,-115.5 1399.5,-115.5 1399.5,-134.5"/>
<text text-anchor="middle" x="1343.5" y="-122.5" font-family="Helvetica,sans-Serif" font-size="10.00">astaroth_analysis.h</text>
</a>
</g>
</g>
<!-- Node4&#45;&gt;Node37 -->
<g id="edge46_Node000004_Node000037" class="edge">
<title>Node4&#45;&gt;Node37</title>
<g id="a_edge46_Node000004_Node000037"><a xlink:title=" ">
<path fill="none" stroke="#63b8ff" d="M1763.33,-185.82C1690.07,-178.46 1536.88,-161.85 1408.5,-140 1402.67,-139.01 1396.57,-137.85 1390.54,-136.64"/>
<polygon fill="#63b8ff" stroke="#63b8ff" points="1391.02,-133.16 1380.52,-134.56 1389.59,-140.02 1391.02,-133.16"/>
</a>
</g>
</g>
<!-- Node4&#45;&gt;Node38 -->
<g id="edge47_Node000004_Node000038" class="edge">
<title>Node4&#45;&gt;Node38</title>
<g id="a_edge47_Node000004_Node000038"><a xlink:title=" ">
<path fill="none" stroke="#63b8ff" d="M1849.61,-189.39C2028.75,-186.68 2714.91,-174.2 2928.5,-140 2933.03,-139.27 2937.73,-138.29 2942.36,-137.16"/>
<polygon fill="#63b8ff" stroke="#63b8ff" points="2943.5,-140.48 2952.28,-134.55 2941.72,-133.71 2943.5,-140.48"/>
</a>
</g>
</g>
<!-- Node39 -->
<g id="Node000039" class="node">
<title>Node39</title>
<g id="a_Node000039"><a xlink:href="common__kernels_8h.html" target="_top" xlink:title=" ">
<polygon fill="white" stroke="#666666" points="1527,-134.5 1418,-134.5 1418,-115.5 1527,-115.5 1527,-134.5"/>
<text text-anchor="middle" x="1472.5" y="-122.5" font-family="Helvetica,sans-Serif" font-size="10.00">common_kernels.h</text>
</a>
</g>
</g>
<!-- Node4&#45;&gt;Node39 -->
<g id="edge48_Node000004_Node000039" class="edge">
<title>Node4&#45;&gt;Node39</title>
<g id="a_edge48_Node000004_Node000039"><a xlink:title=" ">
<path fill="none" stroke="#63b8ff" d="M1763.4,-182.46C1710.03,-173.02 1616.41,-156.13 1536.5,-140 1531.4,-138.97 1526.09,-137.86 1520.79,-136.74"/>
<polygon fill="#63b8ff" stroke="#63b8ff" points="1521.21,-133.25 1510.7,-134.57 1519.74,-140.09 1521.21,-133.25"/>
</a>
</g>
</g>
<!-- Node40 -->
<g id="Node000040" class="node">
<title>Node40</title>
<g id="a_Node000040"><a xlink:title=" ">
<polygon fill="#e0e0e0" stroke="#999999" points="1657.5,-134.5 1545.5,-134.5 1545.5,-115.5 1657.5,-115.5 1657.5,-134.5"/>
<text text-anchor="middle" x="1601.5" y="-122.5" font-family="Helvetica,sans-Serif" font-size="10.00">user_declarations.h</text>
</a>
</g>
</g>
<!-- Node4&#45;&gt;Node40 -->
<g id="edge49_Node000004_Node000040" class="edge">
<title>Node4&#45;&gt;Node40</title>
<g id="a_edge49_Node000004_Node000040"><a xlink:title=" ">
<path fill="none" stroke="#63b8ff" d="M1778.85,-181.37C1742.68,-170.08 1679.17,-150.25 1638.78,-137.64"/>
<polygon fill="#63b8ff" stroke="#63b8ff" points="1639.62,-134.24 1629.04,-134.6 1637.54,-140.92 1639.62,-134.24"/>
</a>
</g>
</g>
<!-- Node41 -->
<g id="Node000041" class="node">
<title>Node41</title>
<g id="a_Node000041"><a xlink:title=" ">
<polygon fill="#e0e0e0" stroke="#999999" points="1809.5,-140 1675.5,-140 1675.5,-110 1809.5,-110 1809.5,-140"/>
<text text-anchor="start" x="1683.5" y="-128" font-family="Helvetica,sans-Serif" font-size="10.00">load_and_store_uniform</text>
<text text-anchor="middle" x="1742.5" y="-117" font-family="Helvetica,sans-Serif" font-size="10.00">_header.h</text>
</a>
</g>
</g>
<!-- Node4&#45;&gt;Node41 -->
<g id="edge50_Node000004_Node000041" class="edge">
<title>Node4&#45;&gt;Node41</title>
<g id="a_edge50_Node000004_Node000041"><a xlink:title=" ">
<path fill="none" stroke="#63b8ff" d="M1797.87,-181.37C1789.25,-172.75 1775.65,-159.15 1764.09,-147.59"/>
<polygon fill="#63b8ff" stroke="#63b8ff" points="1766.41,-144.96 1756.86,-140.36 1761.46,-149.91 1766.41,-144.96"/>
</a>
</g>
</g>
<!-- Node7 -->
<g id="Node000007" class="node">
<title>Node7</title>
<g id="a_Node000007"><a xlink:title=" ">
<polygon fill="#e0e0e0" stroke="#999999" points="348,-19 235,-19 235,0 348,0 348,-19"/>
<text text-anchor="middle" x="291.5" y="-7" font-family="Helvetica,sans-Serif" font-size="10.00">cuda_runtime_api.h</text>
</a>
</g>
</g>
<!-- Node6&#45;&gt;Node7 -->
<g id="edge7_Node000006_Node000007" class="edge">
<title>Node6&#45;&gt;Node7</title>
<g id="a_edge7_Node000006_Node000007"><a xlink:title=" ">
<path fill="none" stroke="#63b8ff" d="M546.66,-54.98C493.22,-45.67 407.58,-30.74 350.44,-20.78"/>
<polygon fill="#63b8ff" stroke="#63b8ff" points="350.93,-17.31 340.47,-19.04 349.72,-24.2 350.93,-17.31"/>
</a>
</g>
</g>
<!-- Node8 -->
<g id="Node000008" class="node">
<title>Node8</title>
<g id="a_Node000008"><a xlink:title=" ">
<polygon fill="#e0e0e0" stroke="#999999" points="633.5,-19 557.5,-19 557.5,0 633.5,0 633.5,-19"/>
<text text-anchor="middle" x="595.5" y="-7" font-family="Helvetica,sans-Serif" font-size="10.00">cuda_fp16.h</text>
</a>
</g>
</g>
<!-- Node6&#45;&gt;Node8 -->
<g id="edge8_Node000006_Node000008" class="edge">
<title>Node6&#45;&gt;Node8</title>
<g id="a_edge8_Node000006_Node000008"><a xlink:title=" ">
<path fill="none" stroke="#63b8ff" d="M595.5,-54.75C595.5,-47.8 595.5,-37.85 595.5,-29.13"/>
<polygon fill="#63b8ff" stroke="#63b8ff" points="599,-29.09 595.5,-19.09 592,-29.09 599,-29.09"/>
</a>
</g>
</g>
<!-- Node10&#45;&gt;Node6 -->
<g id="edge13_Node000010_Node000006" class="edge">
<title>Node10&#45;&gt;Node6</title>
<g id="a_edge13_Node000010_Node000006"><a xlink:title=" ">
<path fill="none" stroke="#63b8ff" d="M307.78,-117.29C364.24,-107.13 471.87,-87.75 538.29,-75.8"/>
<polygon fill="#63b8ff" stroke="#63b8ff" points="538.96,-79.23 548.18,-74.02 537.72,-72.35 538.96,-79.23"/>
</a>
</g>
</g>
<!-- Node10&#45;&gt;Node7 -->
<g id="edge15_Node000010_Node000007" class="edge">
<title>Node10&#45;&gt;Node7</title>
<g id="a_edge15_Node000010_Node000007"><a xlink:title=" ">
<path fill="none" stroke="#63b8ff" d="M270.38,-115.4C270.35,-102.24 270.97,-76.38 275.5,-55 277.39,-46.06 280.66,-36.49 283.75,-28.52"/>
<polygon fill="#63b8ff" stroke="#63b8ff" points="287.04,-29.74 287.59,-19.16 280.56,-27.09 287.04,-29.74"/>
</a>
</g>
</g>
<!-- Node10&#45;&gt;Node9 -->
<g id="edge17_Node000010_Node000009" class="edge">
<title>Node10&#45;&gt;Node9</title>
<g id="a_edge17_Node000010_Node000009"><a xlink:title=" ">
<path fill="none" stroke="#63b8ff" d="M300.74,-115.49C337.1,-105.27 398.23,-88.08 438.47,-76.76"/>
<polygon fill="#63b8ff" stroke="#63b8ff" points="439.54,-80.09 448.22,-74.02 437.64,-73.35 439.54,-80.09"/>
</a>
</g>
</g>
<!-- Node11 -->
<g id="Node000011" class="node">
<title>Node11</title>
<g id="a_Node000011"><a xlink:title=" ">
<polygon fill="#e0e0e0" stroke="#999999" points="47,-74 0,-74 0,-55 47,-55 47,-74"/>
<text text-anchor="middle" x="23.5" y="-62" font-family="Helvetica,sans-Serif" font-size="10.00">float.h</text>
</a>
</g>
</g>
<!-- Node10&#45;&gt;Node11 -->
<g id="edge11_Node000010_Node000011" class="edge">
<title>Node10&#45;&gt;Node11</title>
<g id="a_edge11_Node000010_Node000011"><a xlink:title=" ">
<path fill="none" stroke="#63b8ff" d="M243.85,-115.47C237.54,-113.56 230.8,-111.63 224.5,-110 153.19,-91.59 131.92,-91.81 57.13,-74.29"/>
<polygon fill="#63b8ff" stroke="#63b8ff" points="57.77,-70.85 47.23,-71.94 56.15,-77.66 57.77,-70.85"/>
</a>
</g>
</g>
<!-- Node12 -->
<g id="Node000012" class="node">
<title>Node12</title>
<g id="a_Node000012"><a xlink:title=" ">
<polygon fill="#e0e0e0" stroke="#999999" points="116,-74 65,-74 65,-55 116,-55 116,-74"/>
<text text-anchor="middle" x="90.5" y="-62" font-family="Helvetica,sans-Serif" font-size="10.00">math.h</text>
</a>
</g>
</g>
<!-- Node10&#45;&gt;Node12 -->
<g id="edge12_Node000010_Node000012" class="edge">
<title>Node10&#45;&gt;Node12</title>
<g id="a_edge12_Node000010_Node000012"><a xlink:title=" ">
<path fill="none" stroke="#63b8ff" d="M244.33,-115.49C213.09,-105.34 160.71,-88.32 125.89,-77"/>
<polygon fill="#63b8ff" stroke="#63b8ff" points="126.71,-73.59 116.12,-73.83 124.55,-80.25 126.71,-73.59"/>
</a>
</g>
</g>
<!-- Node13 -->
<g id="Node000013" class="node">
<title>Node13</title>
<g id="a_Node000013"><a xlink:title=" ">
<polygon fill="#e0e0e0" stroke="#999999" points="223,-74 134,-74 134,-55 223,-55 223,-74"/>
<text text-anchor="middle" x="178.5" y="-62" font-family="Helvetica,sans-Serif" font-size="10.00">vector_types.h</text>
</a>
</g>
</g>
<!-- Node10&#45;&gt;Node13 -->
<g id="edge14_Node000010_Node000013" class="edge">
<title>Node10&#45;&gt;Node13</title>
<g id="a_edge14_Node000010_Node000013"><a xlink:title=" ">
<path fill="none" stroke="#63b8ff" d="M256.93,-115.37C242.11,-105.95 218.17,-90.73 200.64,-79.58"/>
<polygon fill="#63b8ff" stroke="#63b8ff" points="202.45,-76.58 192.13,-74.17 198.69,-82.49 202.45,-76.58"/>
</a>
</g>
</g>
<!-- Node14 -->
<g id="Node000014" class="node">
<title>Node14</title>
<g id="a_Node000014"><a xlink:href="acreal_8h.html" target="_top" xlink:title=" ">
<polygon fill="white" stroke="#666666" points="500.5,-19 444.5,-19 444.5,0 500.5,0 500.5,-19"/>
<text text-anchor="middle" x="472.5" y="-7" font-family="Helvetica,sans-Serif" font-size="10.00">acreal.h</text>
</a>
</g>
</g>
<!-- Node10&#45;&gt;Node14 -->
<g id="edge16_Node000010_Node000014" class="edge">
<title>Node10&#45;&gt;Node14</title>
<g id="a_edge16_Node000010_Node000014"><a xlink:title=" ">
<path fill="none" stroke="#63b8ff" d="M272.84,-115.34C277.27,-100.65 288.29,-70.89 308.5,-55 344.91,-26.38 398.35,-16.12 434.23,-12.48"/>
<polygon fill="#63b8ff" stroke="#63b8ff" points="434.66,-15.95 444.31,-11.58 434.04,-8.98 434.66,-15.95"/>
</a>
</g>
</g>
<!-- Node15 -->
<g id="Node000015" class="node">
<title>Node15</title>
<g id="a_Node000015"><a xlink:title=" ">
<polygon fill="#e0e0e0" stroke="#999999" points="413,-74 318,-74 318,-55 413,-55 413,-74"/>
<text text-anchor="middle" x="365.5" y="-62" font-family="Helvetica,sans-Serif" font-size="10.00">user_typedefs.h</text>
</a>
</g>
</g>
<!-- Node10&#45;&gt;Node15 -->
<g id="edge18_Node000010_Node000015" class="edge">
<title>Node10&#45;&gt;Node15</title>
<g id="a_edge18_Node000010_Node000015"><a xlink:title=" ">
<path fill="none" stroke="#63b8ff" d="M284.52,-115.37C299.81,-105.95 324.53,-90.73 342.64,-79.58"/>
<polygon fill="#63b8ff" stroke="#63b8ff" points="344.75,-82.39 351.42,-74.17 341.07,-76.43 344.75,-82.39"/>
</a>
</g>
</g>
<!-- Node16 -->
<g id="Node000016" class="node">
<title>Node16</title>
<g id="a_Node000016"><a xlink:href="host__datatypes_8h.html" target="_top" xlink:title=" ">
<polygon fill="white" stroke="#666666" points="1288,-74 1187,-74 1187,-55 1288,-55 1288,-74"/>
<text text-anchor="middle" x="1237.5" y="-62" font-family="Helvetica,sans-Serif" font-size="10.00">host_datatypes.h</text>
</a>
</g>
</g>
<!-- Node10&#45;&gt;Node16 -->
<g id="edge19_Node000010_Node000016" class="edge">
<title>Node10&#45;&gt;Node16</title>
<g id="a_edge19_Node000010_Node000016"><a xlink:title=" ">
<path fill="none" stroke="#63b8ff" d="M307.63,-117.26C323.55,-114.61 342.39,-111.77 359.5,-110 665.34,-78.28 1033.55,-68.93 1176.57,-66.38"/>
<polygon fill="#63b8ff" stroke="#63b8ff" points="1176.94,-69.87 1186.88,-66.2 1176.82,-62.88 1176.94,-69.87"/>
</a>
</g>
</g>
<!-- Node16&#45;&gt;Node14 -->
<g id="edge20_Node000016_Node000014" class="edge">
<title>Node16&#45;&gt;Node14</title>
<g id="a_edge20_Node000016_Node000014"><a xlink:title=" ">
<path fill="none" stroke="#63b8ff" d="M1186.87,-61.04C1072.8,-55.33 787.01,-40.03 548.5,-19 536.23,-17.92 522.86,-16.5 510.81,-15.14"/>
<polygon fill="#63b8ff" stroke="#63b8ff" points="510.96,-11.63 500.62,-13.96 510.15,-18.59 510.96,-11.63"/>
</a>
</g>
</g>
<!-- Node17 -->
<g id="Node000017" class="node">
<title>Node17</title>
<g id="a_Node000017"><a xlink:title=" ">
<polygon fill="#e0e0e0" stroke="#999999" points="1788.5,-19 1732.5,-19 1732.5,0 1788.5,0 1788.5,-19"/>
<text text-anchor="middle" x="1760.5" y="-7" font-family="Helvetica,sans-Serif" font-size="10.00">stddef.h</text>
</a>
</g>
</g>
<!-- Node16&#45;&gt;Node17 -->
<g id="edge21_Node000016_Node000017" class="edge">
<title>Node16&#45;&gt;Node17</title>
<g id="a_edge21_Node000016_Node000017"><a xlink:title=" ">
<path fill="none" stroke="#63b8ff" d="M1288.12,-58.37C1392.54,-47.79 1629.76,-23.75 1722.42,-14.36"/>
<polygon fill="#63b8ff" stroke="#63b8ff" points="1722.88,-17.83 1732.47,-13.34 1722.17,-10.87 1722.88,-17.83"/>
</a>
</g>
</g>
<!-- Node18&#45;&gt;Node3 -->
<g id="edge25_Node000018_Node000003" class="edge">
<title>Node18&#45;&gt;Node3</title>
<g id="a_edge25_Node000018_Node000003"><a xlink:title=" ">
<path fill="none" stroke="#63b8ff" d="M2706.27,-115.37C2717.7,-106.21 2735.98,-91.56 2749.78,-80.51"/>
<polygon fill="#63b8ff" stroke="#63b8ff" points="2752.07,-83.15 2757.68,-74.17 2747.69,-77.69 2752.07,-83.15"/>
</a>
</g>
</g>
<!-- Node18&#45;&gt;Node5 -->
<g id="edge27_Node000018_Node000005" class="edge">
<title>Node18&#45;&gt;Node5</title>
<g id="a_edge27_Node000018_Node000005"><a xlink:title=" ">
<path fill="none" stroke="#63b8ff" d="M2675.85,-115.38C2670.33,-113.29 2664.26,-111.29 2658.5,-110 2555.43,-86.98 2230.25,-71.52 2122.54,-66.93"/>
<polygon fill="#63b8ff" stroke="#63b8ff" points="2122.66,-63.43 2112.52,-66.51 2122.36,-70.42 2122.66,-63.43"/>
</a>
</g>
</g>
<!-- Node18&#45;&gt;Node6 -->
<g id="edge30_Node000018_Node000006" class="edge">
<title>Node18&#45;&gt;Node6</title>
<g id="a_edge30_Node000018_Node000006"><a xlink:title=" ">
<path fill="none" stroke="#63b8ff" d="M2676.66,-115.46C2670.94,-113.26 2664.57,-111.18 2658.5,-110 2608.11,-100.22 993.58,-72.27 656.72,-66.54"/>
<polygon fill="#63b8ff" stroke="#63b8ff" points="656.72,-63.04 646.66,-66.36 656.6,-70.03 656.72,-63.04"/>
</a>
</g>
</g>
<!-- Node18&#45;&gt;Node16 -->
<g id="edge24_Node000018_Node000016" class="edge">
<title>Node18&#45;&gt;Node16</title>
<g id="a_edge24_Node000018_Node000016"><a xlink:title=" ">
<path fill="none" stroke="#63b8ff" d="M2676.65,-115.5C2670.94,-113.3 2664.56,-111.21 2658.5,-110 2590.98,-96.56 1561.52,-72.74 1298.38,-66.85"/>
<polygon fill="#63b8ff" stroke="#63b8ff" points="1298.32,-63.34 1288.24,-66.62 1298.16,-70.34 1298.32,-63.34"/>
</a>
</g>
</g>
<!-- Node18&#45;&gt;Node17 -->
<g id="edge23_Node000018_Node000017" class="edge">
<title>Node18&#45;&gt;Node17</title>
<g id="a_edge23_Node000018_Node000017"><a xlink:title=" ">
<path fill="none" stroke="#63b8ff" d="M2675.43,-115.36C2670.02,-113.32 2664.11,-111.35 2658.5,-110 2332.49,-31.59 1924.78,-14.75 1799.13,-11.33"/>
<polygon fill="#63b8ff" stroke="#63b8ff" points="1798.96,-7.82 1788.88,-11.06 1798.78,-14.82 1798.96,-7.82"/>
</a>
</g>
</g>
<!-- Node19 -->
<g id="Node000019" class="node">
<title>Node19</title>
<g id="a_Node000019"><a xlink:title=" ">
<polygon fill="#e0e0e0" stroke="#999999" points="1783,-74 1730,-74 1730,-55 1783,-55 1783,-74"/>
<text text-anchor="middle" x="1756.5" y="-62" font-family="Helvetica,sans-Serif" font-size="10.00">stdint.h</text>
</a>
</g>
</g>
<!-- Node18&#45;&gt;Node19 -->
<g id="edge26_Node000018_Node000019" class="edge">
<title>Node18&#45;&gt;Node19</title>
<g id="a_edge26_Node000018_Node000019"><a xlink:title=" ">
<path fill="none" stroke="#63b8ff" d="M2676.25,-115.42C2670.64,-113.27 2664.42,-111.23 2658.5,-110 2572.98,-92.17 1952.67,-71.66 1793.59,-66.65"/>
<polygon fill="#63b8ff" stroke="#63b8ff" points="1793.48,-63.14 1783.37,-66.33 1793.26,-70.14 1793.48,-63.14"/>
</a>
</g>
</g>
<!-- Node20 -->
<g id="Node000020" class="node">
<title>Node20</title>
<g id="a_Node000020"><a xlink:title=" ">
<polygon fill="#e0e0e0" stroke="#999999" points="2653,-74 2600,-74 2600,-55 2653,-55 2653,-74"/>
<text text-anchor="middle" x="2626.5" y="-62" font-family="Helvetica,sans-Serif" font-size="10.00">stdlib.h</text>
</a>
</g>
</g>
<!-- Node18&#45;&gt;Node20 -->
<g id="edge28_Node000018_Node000020" class="edge">
<title>Node18&#45;&gt;Node20</title>
<g id="a_edge28_Node000018_Node000020"><a xlink:title=" ">
<path fill="none" stroke="#63b8ff" d="M2685.32,-115.37C2674.62,-106.3 2657.56,-91.84 2644.57,-80.82"/>
<polygon fill="#63b8ff" stroke="#63b8ff" points="2646.61,-77.96 2636.72,-74.17 2642.09,-83.3 2646.61,-77.96"/>
</a>
</g>
</g>
<!-- Node21 -->
<g id="Node000021" class="node">
<title>Node21</title>
<g id="a_Node000021"><a xlink:title=" ">
<polygon fill="#e0e0e0" stroke="#999999" points="2719.5,-74 2671.5,-74 2671.5,-55 2719.5,-55 2719.5,-74"/>
<text text-anchor="middle" x="2695.5" y="-62" font-family="Helvetica,sans-Serif" font-size="10.00">time.h</text>
</a>
</g>
</g>
<!-- Node18&#45;&gt;Node21 -->
<g id="edge29_Node000018_Node000021" class="edge">
<title>Node18&#45;&gt;Node21</title>
<g id="a_edge29_Node000018_Node000021"><a xlink:title=" ">
<path fill="none" stroke="#63b8ff" d="M2695.5,-115.37C2695.5,-107.25 2695.5,-94.81 2695.5,-84.39"/>
<polygon fill="#63b8ff" stroke="#63b8ff" points="2699,-84.17 2695.5,-74.17 2692,-84.17 2699,-84.17"/>
</a>
</g>
</g>
<!-- Node43&#45;&gt;Node4 -->
<g id="edge55_Node000043_Node000004" class="edge">
<title>Node43&#45;&gt;Node4</title>
<g id="a_edge55_Node000043_Node000004"><a xlink:title=" ">
<path fill="none" stroke="#63b8ff" d="M2125.99,-242.24C2055.46,-231.15 1930.79,-211.55 1859.84,-200.39"/>
<polygon fill="#63b8ff" stroke="#63b8ff" points="1860.19,-196.9 1849.77,-198.8 1859.11,-203.82 1860.19,-196.9"/>
</a>
</g>
</g>
<!-- Node44&#45;&gt;Node10 -->
<g id="edge57_Node000044_Node000010" class="edge">
<title>Node44&#45;&gt;Node10</title>
<g id="a_edge57_Node000044_Node000010"><a xlink:title=" ">
<path fill="none" stroke="#63b8ff" d="M315.49,-181.37C307.47,-171.5 294.15,-155.11 284.08,-142.72"/>
<polygon fill="#63b8ff" stroke="#63b8ff" points="286.76,-140.46 277.74,-134.91 281.33,-144.87 286.76,-140.46"/>
</a>
</g>
</g>
<!-- Node44&#45;&gt;Node19 -->
<g id="edge59_Node000044_Node000019" class="edge">
<title>Node44&#45;&gt;Node19</title>
<g id="a_edge59_Node000044_Node000019"><a xlink:title=" ">
<path fill="none" stroke="#63b8ff" d="M330.4,-181.36C346.95,-163.95 387.32,-125.06 430.5,-110 493,-88.21 1512.45,-69.67 1719.85,-66.11"/>
<polygon fill="#63b8ff" stroke="#63b8ff" points="1719.98,-69.61 1729.92,-65.94 1719.87,-62.61 1719.98,-69.61"/>
</a>
</g>
</g>
<!-- Node45 -->
<g id="Node000045" class="node">
<title>Node45</title>
<g id="a_Node000045"><a xlink:title=" ">
<polygon fill="#e0e0e0" stroke="#999999" points="215.5,-134.5 161.5,-134.5 161.5,-115.5 215.5,-115.5 215.5,-134.5"/>
<text text-anchor="middle" x="188.5" y="-122.5" font-family="Helvetica,sans-Serif" font-size="10.00">random</text>
</a>
</g>
</g>
<!-- Node44&#45;&gt;Node45 -->
<g id="edge58_Node000044_Node000045" class="edge">
<title>Node44&#45;&gt;Node45</title>
<g id="a_edge58_Node000044_Node000045"><a xlink:title=" ">
<path fill="none" stroke="#63b8ff" d="M304.43,-181.37C281.65,-170.49 242.28,-151.69 215.82,-139.05"/>
<polygon fill="#63b8ff" stroke="#63b8ff" points="217.25,-135.85 206.71,-134.7 214.23,-142.17 217.25,-135.85"/>
</a>
</g>
</g>
</g>
</svg>
