<?xml version="1.0" encoding="UTF-8" standalone="no"?>
<!DOCTYPE svg PUBLIC "-//W3C//DTD SVG 1.1//EN"
 "http://www.w3.org/Graphics/SVG/1.1/DTD/svg11.dtd">
<!-- Generated by graphviz version 2.43.0 (0)
 -->
<!-- Title: include/astaroth_base.h Pages: 1 -->
<svg width="2843pt" height="269pt"
 viewBox="0.00 0.00 2843.00 269.00" xmlns="http://www.w3.org/2000/svg" xmlns:xlink="http://www.w3.org/1999/xlink">
<g id="graph0" class="graph" transform="scale(1 1) rotate(0) translate(4 265)">
<title>include/astaroth_base.h</title>
<!-- Node1 -->
<g id="Node000001" class="node">
<title>Node1</title>
<g id="a_Node000001"><a xlink:title=" ">
<polygon fill="#999999" stroke="#666666" points="2249,-261 2116,-261 2116,-242 2249,-242 2249,-261"/>
<text text-anchor="middle" x="2182.5" y="-249" font-family="Helvetica,sans-Serif" font-size="10.00">include/astaroth_base.h</text>
</a>
</g>
</g>
<!-- Node2 -->
<g id="Node000002" class="node">
<title>Node2</title>
<g id="a_Node000002"><a xlink:title=" ">
<polygon fill="#e0e0e0" stroke="#999999" points="2469.5,-74 2407.5,-74 2407.5,-55 2469.5,-55 2469.5,-74"/>
<text text-anchor="middle" x="2438.5" y="-62" font-family="Helvetica,sans-Serif" font-size="10.00">stdbool.h</text>
</a>
</g>
</g>
<!-- Node1&#45;&gt;Node2 -->
<g id="edge1_Node000001_Node000002" class="edge">
<title>Node1&#45;&gt;Node2</title>
<g id="a_edge1_Node000001_Node000002"><a xlink:title=" ">
<path fill="none" stroke="#63b8ff" d="M2249.42,-244.93C2367.8,-233.53 2606.4,-203.12 2656.5,-140 2704.59,-79.41 2555.59,-67.85 2479.85,-65.82"/>
<polygon fill="#63b8ff" stroke="#63b8ff" points="2479.76,-62.31 2469.68,-65.59 2479.6,-69.31 2479.76,-62.31"/>
</a>
</g>
</g>
<!-- Node3 -->
<g id="Node000003" class="node">
<title>Node3</title>
<g id="a_Node000003"><a xlink:href="acc__runtime_8h.html" target="_top" xlink:title=" ">
<polygon fill="white" stroke="#666666" points="1662.5,-200.5 1576.5,-200.5 1576.5,-181.5 1662.5,-181.5 1662.5,-200.5"/>
<text text-anchor="middle" x="1619.5" y="-188.5" font-family="Helvetica,sans-Serif" font-size="10.00">acc_runtime.h</text>
</a>
</g>
</g>
<!-- Node1&#45;&gt;Node3 -->
<g id="edge2_Node000001_Node000003" class="edge">
<title>Node1&#45;&gt;Node3</title>
<g id="a_edge2_Node000001_Node000003"><a xlink:title=" ">
<path fill="none" stroke="#63b8ff" d="M2115.98,-243.59C2003.04,-231.85 1775.98,-208.26 1672.76,-197.53"/>
<polygon fill="#63b8ff" stroke="#63b8ff" points="1672.88,-194.03 1662.57,-196.48 1672.15,-200.99 1672.88,-194.03"/>
</a>
</g>
</g>
<!-- Node23 -->
<g id="Node000023" class="node">
<title>Node23</title>
<g id="a_Node000023"><a xlink:title=" ">
<polygon fill="#e0e0e0" stroke="#999999" points="139,-134.5 0,-134.5 0,-115.5 139,-115.5 139,-134.5"/>
<text text-anchor="middle" x="69.5" y="-122.5" font-family="Helvetica,sans-Serif" font-size="10.00">user_built&#45;in_constants.h</text>
</a>
</g>
</g>
<!-- Node1&#45;&gt;Node23 -->
<g id="edge49_Node000001_Node000023" class="edge">
<title>Node1&#45;&gt;Node23</title>
<g id="a_edge49_Node000001_Node000023"><a xlink:title=" ">
<path fill="none" stroke="#63b8ff" d="M2115.97,-249.81C1860.51,-246.54 918.32,-228.79 148.5,-140 139.95,-139.01 130.92,-137.69 122.14,-136.24"/>
<polygon fill="#63b8ff" stroke="#63b8ff" points="122.45,-132.74 112,-134.51 121.27,-139.64 122.45,-132.74"/>
</a>
</g>
</g>
<!-- Node40 -->
<g id="Node000040" class="node">
<title>Node40</title>
<g id="a_Node000040"><a xlink:title=" ">
<polygon fill="#e0e0e0" stroke="#999999" points="2835,-206 2704,-206 2704,-176 2835,-176 2835,-206"/>
<text text-anchor="start" x="2712" y="-194" font-family="Helvetica,sans-Serif" font-size="10.00">user_builtin_non_scalar</text>
<text text-anchor="middle" x="2769.5" y="-183" font-family="Helvetica,sans-Serif" font-size="10.00">_constants.h</text>
</a>
</g>
</g>
<!-- Node1&#45;&gt;Node40 -->
<g id="edge50_Node000001_Node000040" class="edge">
<title>Node1&#45;&gt;Node40</title>
<g id="a_edge50_Node000001_Node000040"><a xlink:title=" ">
<path fill="none" stroke="#63b8ff" d="M2249.14,-246.48C2346.25,-240.2 2532.24,-226.62 2689.5,-206 2690.8,-205.83 2692.11,-205.65 2693.42,-205.47"/>
<polygon fill="#63b8ff" stroke="#63b8ff" points="2694.26,-208.89 2703.65,-203.98 2693.25,-201.96 2694.26,-208.89"/>
</a>
</g>
</g>
<!-- Node3&#45;&gt;Node2 -->
<g id="edge4_Node000003_Node000002" class="edge">
<title>Node3&#45;&gt;Node2</title>
<g id="a_edge4_Node000003_Node000002"><a xlink:title=" ">
<path fill="none" stroke="#63b8ff" d="M1662.64,-187.87C1756.74,-182.74 1977.53,-168.04 2046.5,-140 2066.76,-131.76 2065.23,-118.21 2085.5,-110 2212.23,-58.63 2258.15,-94.79 2396.95,-74.06"/>
<polygon fill="#63b8ff" stroke="#63b8ff" points="2397.77,-77.47 2407.11,-72.46 2396.69,-70.56 2397.77,-77.47"/>
</a>
</g>
</g>
<!-- Node4 -->
<g id="Node000004" class="node">
<title>Node4</title>
<g id="a_Node000004"><a xlink:title=" ">
<polygon fill="#e0e0e0" stroke="#999999" points="2141.5,-74 2091.5,-74 2091.5,-55 2141.5,-55 2141.5,-74"/>
<text text-anchor="middle" x="2116.5" y="-62" font-family="Helvetica,sans-Serif" font-size="10.00">stdio.h</text>
</a>
</g>
</g>
<!-- Node3&#45;&gt;Node4 -->
<g id="edge3_Node000003_Node000004" class="edge">
<title>Node3&#45;&gt;Node4</title>
<g id="a_edge3_Node000003_Node000004"><a xlink:title=" ">
<path fill="none" stroke="#63b8ff" d="M1662.5,-185.01C1717.66,-178 1815.95,-163.38 1897.5,-140 1932.01,-130.11 1938.66,-121.98 1972.5,-110 2009.35,-96.96 2052.23,-83.99 2081.55,-75.44"/>
<polygon fill="#63b8ff" stroke="#63b8ff" points="2082.69,-78.75 2091.33,-72.61 2080.75,-72.03 2082.69,-78.75"/>
</a>
</g>
</g>
<!-- Node5 -->
<g id="Node000005" class="node">
<title>Node5</title>
<g id="a_Node000005"><a xlink:href="device__headers_8h.html" target="_top" xlink:title=" ">
<polygon fill="white" stroke="#666666" points="1953.5,-74 1851.5,-74 1851.5,-55 1953.5,-55 1953.5,-74"/>
<text text-anchor="middle" x="1902.5" y="-62" font-family="Helvetica,sans-Serif" font-size="10.00">device_headers.h</text>
</a>
</g>
</g>
<!-- Node3&#45;&gt;Node5 -->
<g id="edge5_Node000003_Node000005" class="edge">
<title>Node3&#45;&gt;Node5</title>
<g id="a_edge5_Node000003_Node000005"><a xlink:title=" ">
<path fill="none" stroke="#63b8ff" d="M1662.72,-186.58C1726.86,-180.68 1843.08,-166.6 1874.5,-140 1891.02,-126.01 1897.81,-101.24 1900.59,-84.12"/>
<polygon fill="#63b8ff" stroke="#63b8ff" points="1904.06,-84.54 1901.9,-74.17 1897.12,-83.63 1904.06,-84.54"/>
</a>
</g>
</g>
<!-- Node8 -->
<g id="Node000008" class="node">
<title>Node8</title>
<g id="a_Node000008"><a xlink:title=" ">
<polygon fill="#e0e0e0" stroke="#999999" points="1833,-74 1738,-74 1738,-55 1833,-55 1833,-74"/>
<text text-anchor="middle" x="1785.5" y="-62" font-family="Helvetica,sans-Serif" font-size="10.00">builtin_enums.h</text>
</a>
</g>
</g>
<!-- Node3&#45;&gt;Node8 -->
<g id="edge8_Node000003_Node000008" class="edge">
<title>Node3&#45;&gt;Node8</title>
<g id="a_edge8_Node000003_Node000008"><a xlink:title=" ">
<path fill="none" stroke="#63b8ff" d="M1662.54,-187.33C1724.55,-182.48 1834.28,-169.82 1858.5,-140 1866.91,-129.65 1865.03,-121.63 1858.5,-110 1850.39,-95.56 1835.49,-85.26 1821.25,-78.22"/>
<polygon fill="#63b8ff" stroke="#63b8ff" points="1822.62,-75 1812.07,-74.06 1819.73,-81.38 1822.62,-75"/>
</a>
</g>
</g>
<!-- Node9 -->
<g id="Node000009" class="node">
<title>Node9</title>
<g id="a_Node000009"><a xlink:href="datatypes_8h.html" target="_top" xlink:title=" ">
<polygon fill="white" stroke="#666666" points="1849.5,-134.5 1775.5,-134.5 1775.5,-115.5 1849.5,-115.5 1849.5,-134.5"/>
<text text-anchor="middle" x="1812.5" y="-122.5" font-family="Helvetica,sans-Serif" font-size="10.00">datatypes.h</text>
</a>
</g>
</g>
<!-- Node3&#45;&gt;Node9 -->
<g id="edge9_Node000003_Node000009" class="edge">
<title>Node3&#45;&gt;Node9</title>
<g id="a_edge9_Node000003_Node000009"><a xlink:title=" ">
<path fill="none" stroke="#63b8ff" d="M1645.53,-181.37C1679.44,-170.12 1738.87,-150.42 1776.92,-137.8"/>
<polygon fill="#63b8ff" stroke="#63b8ff" points="1778.19,-141.07 1786.58,-134.6 1775.98,-134.42 1778.19,-141.07"/>
</a>
</g>
</g>
<!-- Node17 -->
<g id="Node000017" class="node">
<title>Node17</title>
<g id="a_Node000017"><a xlink:href="errchk_8h.html" target="_top" xlink:title="Brief info.">
<polygon fill="white" stroke="#666666" points="2037.5,-134.5 1981.5,-134.5 1981.5,-115.5 2037.5,-115.5 2037.5,-134.5"/>
<text text-anchor="middle" x="2009.5" y="-122.5" font-family="Helvetica,sans-Serif" font-size="10.00">errchk.h</text>
</a>
</g>
</g>
<!-- Node3&#45;&gt;Node17 -->
<g id="edge21_Node000003_Node000017" class="edge">
<title>Node3&#45;&gt;Node17</title>
<g id="a_edge21_Node000003_Node000017"><a xlink:title=" ">
<path fill="none" stroke="#63b8ff" d="M1662.55,-186.32C1728.75,-180.09 1859.25,-165.6 1967.5,-140 1970.47,-139.3 1973.53,-138.48 1976.58,-137.59"/>
<polygon fill="#63b8ff" stroke="#63b8ff" points="1977.66,-140.92 1986.17,-134.6 1975.58,-134.24 1977.66,-140.92"/>
</a>
</g>
</g>
<!-- Node21 -->
<g id="Node000021" class="node">
<title>Node21</title>
<g id="a_Node000021"><a xlink:title=" ">
<polygon fill="#e0e0e0" stroke="#999999" points="2181,-134.5 2094,-134.5 2094,-115.5 2181,-115.5 2181,-134.5"/>
<text text-anchor="middle" x="2137.5" y="-122.5" font-family="Helvetica,sans-Serif" font-size="10.00">user_defines.h</text>
</a>
</g>
</g>
<!-- Node3&#45;&gt;Node21 -->
<g id="edge30_Node000003_Node000021" class="edge">
<title>Node3&#45;&gt;Node21</title>
<g id="a_edge30_Node000003_Node000021"><a xlink:title=" ">
<path fill="none" stroke="#63b8ff" d="M1662.57,-187.18C1744.3,-181.41 1927.36,-166.52 2079.5,-140 2084.66,-139.1 2090.05,-138.01 2095.37,-136.84"/>
<polygon fill="#63b8ff" stroke="#63b8ff" points="2096.48,-140.17 2105.44,-134.52 2094.91,-133.35 2096.48,-140.17"/>
</a>
</g>
</g>
<!-- Node22 -->
<g id="Node000022" class="node">
<title>Node22</title>
<g id="a_Node000022"><a xlink:title=" ">
<polygon fill="#e0e0e0" stroke="#999999" points="2285.5,-134.5 2199.5,-134.5 2199.5,-115.5 2285.5,-115.5 2285.5,-134.5"/>
<text text-anchor="middle" x="2242.5" y="-122.5" font-family="Helvetica,sans-Serif" font-size="10.00">profiles_info.h</text>
</a>
</g>
</g>
<!-- Node3&#45;&gt;Node22 -->
<g id="edge31_Node000003_Node000022" class="edge">
<title>Node3&#45;&gt;Node22</title>
<g id="a_edge31_Node000003_Node000022"><a xlink:title=" ">
<path fill="none" stroke="#63b8ff" d="M1662.82,-188.8C1758.63,-185.58 1995.5,-174.51 2190.5,-140 2195.02,-139.2 2199.73,-138.19 2204.37,-137.08"/>
<polygon fill="#63b8ff" stroke="#63b8ff" points="2205.54,-140.4 2214.37,-134.54 2203.81,-133.61 2205.54,-140.4"/>
</a>
</g>
</g>
<!-- Node3&#45;&gt;Node23 -->
<g id="edge32_Node000003_Node000023" class="edge">
<title>Node3&#45;&gt;Node23</title>
<g id="a_edge32_Node000003_Node000023"><a xlink:title=" ">
<path fill="none" stroke="#63b8ff" d="M1576.17,-189.35C1364.29,-186.07 435.99,-170.21 148.5,-140 139.64,-139.07 130.28,-137.73 121.22,-136.24"/>
<polygon fill="#63b8ff" stroke="#63b8ff" points="121.61,-132.76 111.16,-134.52 120.43,-139.66 121.61,-132.76"/>
</a>
</g>
</g>
<!-- Node24 -->
<g id="Node000024" class="node">
<title>Node24</title>
<g id="a_Node000024"><a xlink:href="func__attributes_8h.html" target="_top" xlink:title=" ">
<polygon fill="white" stroke="#666666" points="2403,-134.5 2304,-134.5 2304,-115.5 2403,-115.5 2403,-134.5"/>
<text text-anchor="middle" x="2353.5" y="-122.5" font-family="Helvetica,sans-Serif" font-size="10.00">func_attributes.h</text>
</a>
</g>
</g>
<!-- Node3&#45;&gt;Node24 -->
<g id="edge33_Node000003_Node000024" class="edge">
<title>Node3&#45;&gt;Node24</title>
<g id="a_edge33_Node000003_Node000024"><a xlink:title=" ">
<path fill="none" stroke="#63b8ff" d="M1662.81,-189.18C1770.33,-186.61 2057.89,-176.6 2294.5,-140 2300.03,-139.15 2305.8,-138.04 2311.48,-136.83"/>
<polygon fill="#63b8ff" stroke="#63b8ff" points="2312.55,-140.18 2321.53,-134.56 2311.01,-133.35 2312.55,-140.18"/>
</a>
</g>
</g>
<!-- Node25 -->
<g id="Node000025" class="node">
<title>Node25</title>
<g id="a_Node000025"><a xlink:title=" ">
<polygon fill="#e0e0e0" stroke="#999999" points="2546,-134.5 2421,-134.5 2421,-115.5 2546,-115.5 2546,-134.5"/>
<text text-anchor="middle" x="2483.5" y="-122.5" font-family="Helvetica,sans-Serif" font-size="10.00">user_input_typedefs.h</text>
</a>
</g>
</g>
<!-- Node3&#45;&gt;Node25 -->
<g id="edge34_Node000003_Node000025" class="edge">
<title>Node3&#45;&gt;Node25</title>
<g id="a_edge34_Node000003_Node000025"><a xlink:title=" ">
<path fill="none" stroke="#63b8ff" d="M1662.67,-189.27C1782.29,-186.83 2127.95,-176.86 2412.5,-140 2419.78,-139.06 2427.44,-137.81 2434.92,-136.46"/>
<polygon fill="#63b8ff" stroke="#63b8ff" points="2435.79,-139.86 2444.96,-134.56 2434.48,-132.98 2435.79,-139.86"/>
</a>
</g>
</g>
<!-- Node26 -->
<g id="Node000026" class="node">
<title>Node26</title>
<g id="a_Node000026"><a xlink:title=" ">
<polygon fill="#e0e0e0" stroke="#999999" points="2647,-134.5 2564,-134.5 2564,-115.5 2647,-115.5 2647,-134.5"/>
<text text-anchor="middle" x="2605.5" y="-122.5" font-family="Helvetica,sans-Serif" font-size="10.00">output_decl.h</text>
</a>
</g>
</g>
<!-- Node3&#45;&gt;Node26 -->
<g id="edge35_Node000003_Node000026" class="edge">
<title>Node3&#45;&gt;Node26</title>
<g id="a_edge35_Node000003_Node000026"><a xlink:title=" ">
<path fill="none" stroke="#63b8ff" d="M1662.58,-188.96C1822.24,-184.89 2380.08,-168.88 2555.5,-140 2560.03,-139.25 2564.73,-138.25 2569.36,-137.13"/>
<polygon fill="#63b8ff" stroke="#63b8ff" points="2570.5,-140.44 2579.28,-134.51 2568.71,-133.68 2570.5,-140.44"/>
</a>
</g>
</g>
<!-- Node27 -->
<g id="Node000027" class="node">
<title>Node27</title>
<g id="a_Node000027"><a xlink:title=" ">
<polygon fill="#e0e0e0" stroke="#999999" points="273.5,-134.5 157.5,-134.5 157.5,-115.5 273.5,-115.5 273.5,-134.5"/>
<text text-anchor="middle" x="215.5" y="-122.5" font-family="Helvetica,sans-Serif" font-size="10.00">comp_loaded_decl.h</text>
</a>
</g>
</g>
<!-- Node3&#45;&gt;Node27 -->
<g id="edge36_Node000003_Node000027" class="edge">
<title>Node3&#45;&gt;Node27</title>
<g id="a_edge36_Node000003_Node000027"><a xlink:title=" ">
<path fill="none" stroke="#63b8ff" d="M1576.18,-189.36C1376.26,-186.27 541.59,-171.68 282.5,-140 275.53,-139.15 268.2,-137.94 261.06,-136.59"/>
<polygon fill="#63b8ff" stroke="#63b8ff" points="261.27,-133.07 250.78,-134.53 259.9,-139.93 261.27,-133.07"/>
</a>
</g>
</g>
<!-- Node28 -->
<g id="Node000028" class="node">
<title>Node28</title>
<g id="a_Node000028"><a xlink:title=" ">
<polygon fill="#e0e0e0" stroke="#999999" points="369.5,-134.5 291.5,-134.5 291.5,-115.5 369.5,-115.5 369.5,-134.5"/>
<text text-anchor="middle" x="330.5" y="-122.5" font-family="Helvetica,sans-Serif" font-size="10.00">comp_decl.h</text>
</a>
</g>
</g>
<!-- Node3&#45;&gt;Node28 -->
<g id="edge37_Node000003_Node000028" class="edge">
<title>Node3&#45;&gt;Node28</title>
<g id="a_edge37_Node000003_Node000028"><a xlink:title=" ">
<path fill="none" stroke="#63b8ff" d="M1576.39,-189.67C1385.64,-187.99 616.44,-178.89 378.5,-140 374.26,-139.31 369.86,-138.36 365.53,-137.28"/>
<polygon fill="#63b8ff" stroke="#63b8ff" points="366.21,-133.84 355.64,-134.58 364.37,-140.59 366.21,-133.84"/>
</a>
</g>
</g>
<!-- Node29 -->
<g id="Node000029" class="node">
<title>Node29</title>
<g id="a_Node000029"><a xlink:title=" ">
<polygon fill="#e0e0e0" stroke="#999999" points="495.5,-134.5 387.5,-134.5 387.5,-115.5 495.5,-115.5 495.5,-134.5"/>
<text text-anchor="middle" x="441.5" y="-122.5" font-family="Helvetica,sans-Serif" font-size="10.00">info_loaded_decl.h</text>
</a>
</g>
</g>
<!-- Node3&#45;&gt;Node29 -->
<g id="edge38_Node000003_Node000029" class="edge">
<title>Node3&#45;&gt;Node29</title>
<g id="a_edge38_Node000003_Node000029"><a xlink:title=" ">
<path fill="none" stroke="#63b8ff" d="M1576.4,-189.07C1398.1,-185.07 717.48,-168.22 504.5,-140 498.09,-139.15 491.36,-137.97 484.79,-136.65"/>
<polygon fill="#63b8ff" stroke="#63b8ff" points="485.17,-133.16 474.66,-134.5 483.71,-140 485.17,-133.16"/>
</a>
</g>
</g>
<!-- Node30 -->
<g id="Node000030" class="node">
<title>Node30</title>
<g id="a_Node000030"><a xlink:title=" ">
<polygon fill="#e0e0e0" stroke="#999999" points="653.5,-134.5 513.5,-134.5 513.5,-115.5 653.5,-115.5 653.5,-134.5"/>
<text text-anchor="middle" x="583.5" y="-122.5" font-family="Helvetica,sans-Serif" font-size="10.00">device_mesh_info_decl.h</text>
</a>
</g>
</g>
<!-- Node3&#45;&gt;Node30 -->
<g id="edge39_Node000003_Node000030" class="edge">
<title>Node3&#45;&gt;Node30</title>
<g id="a_edge39_Node000003_Node000030"><a xlink:title=" ">
<path fill="none" stroke="#63b8ff" d="M1576.42,-189.64C1441.27,-188.09 1013.75,-180.15 662.5,-140 653.95,-139.02 644.92,-137.7 636.14,-136.26"/>
<polygon fill="#63b8ff" stroke="#63b8ff" points="636.45,-132.76 626,-134.52 635.27,-139.66 636.45,-132.76"/>
</a>
</g>
</g>
<!-- Node31 -->
<g id="Node000031" class="node">
<title>Node31</title>
<g id="a_Node000031"><a xlink:title=" ">
<polygon fill="#e0e0e0" stroke="#999999" points="749,-134.5 672,-134.5 672,-115.5 749,-115.5 749,-134.5"/>
<text text-anchor="middle" x="710.5" y="-122.5" font-family="Helvetica,sans-Serif" font-size="10.00">array_decl.h</text>
</a>
</g>
</g>
<!-- Node3&#45;&gt;Node31 -->
<g id="edge40_Node000003_Node000031" class="edge">
<title>Node3&#45;&gt;Node31</title>
<g id="a_edge40_Node000003_Node000031"><a xlink:title=" ">
<path fill="none" stroke="#63b8ff" d="M1576.26,-188.78C1424.76,-184.31 918.41,-167.6 758.5,-140 754.31,-139.28 749.97,-138.32 745.69,-137.24"/>
<polygon fill="#63b8ff" stroke="#63b8ff" points="746.48,-133.83 735.91,-134.57 744.63,-140.58 746.48,-133.83"/>
</a>
</g>
</g>
<!-- Node32 -->
<g id="Node000032" class="node">
<title>Node32</title>
<g id="a_Node000032"><a xlink:title=" ">
<polygon fill="#e0e0e0" stroke="#999999" points="843.5,-134.5 767.5,-134.5 767.5,-115.5 843.5,-115.5 843.5,-134.5"/>
<text text-anchor="middle" x="805.5" y="-122.5" font-family="Helvetica,sans-Serif" font-size="10.00">input_decl.h</text>
</a>
</g>
</g>
<!-- Node3&#45;&gt;Node32 -->
<g id="edge41_Node000003_Node000032" class="edge">
<title>Node3&#45;&gt;Node32</title>
<g id="a_edge41_Node000003_Node000032"><a xlink:title=" ">
<path fill="none" stroke="#63b8ff" d="M1576.27,-190.56C1458.87,-191.35 1124.72,-188.78 852.5,-140 848.56,-139.29 844.48,-138.37 840.45,-137.34"/>
<polygon fill="#63b8ff" stroke="#63b8ff" points="841.19,-133.92 830.62,-134.61 839.31,-140.66 841.19,-133.92"/>
</a>
</g>
</g>
<!-- Node33 -->
<g id="Node000033" class="node">
<title>Node33</title>
<g id="a_Node000033"><a xlink:href="ac__helpers_8h.html" target="_top" xlink:title=" ">
<polygon fill="white" stroke="#666666" points="939.5,-134.5 861.5,-134.5 861.5,-115.5 939.5,-115.5 939.5,-134.5"/>
<text text-anchor="middle" x="900.5" y="-122.5" font-family="Helvetica,sans-Serif" font-size="10.00">ac_helpers.h</text>
</a>
</g>
</g>
<!-- Node3&#45;&gt;Node33 -->
<g id="edge42_Node000003_Node000033" class="edge">
<title>Node3&#45;&gt;Node33</title>
<g id="a_edge42_Node000003_Node000033"><a xlink:title=" ">
<path fill="none" stroke="#63b8ff" d="M1576.32,-189.9C1469.15,-188.98 1182.71,-182.4 948.5,-140 944.37,-139.25 940.08,-138.29 935.85,-137.21"/>
<polygon fill="#63b8ff" stroke="#63b8ff" points="936.74,-133.83 926.17,-134.56 934.89,-140.58 936.74,-133.83"/>
</a>
</g>
</g>
<!-- Node34 -->
<g id="Node000034" class="node">
<title>Node34</title>
<g id="a_Node000034"><a xlink:title=" ">
<polygon fill="#e0e0e0" stroke="#999999" points="1075.5,-140 957.5,-140 957.5,-110 1075.5,-110 1075.5,-140"/>
<text text-anchor="start" x="965.5" y="-128" font-family="Helvetica,sans-Serif" font-size="10.00">scalar_reduce_buffer</text>
<text text-anchor="middle" x="1016.5" y="-117" font-family="Helvetica,sans-Serif" font-size="10.00">_defs.h</text>
</a>
</g>
</g>
<!-- Node3&#45;&gt;Node34 -->
<g id="edge43_Node000003_Node000034" class="edge">
<title>Node3&#45;&gt;Node34</title>
<g id="a_edge43_Node000003_Node000034"><a xlink:title=" ">
<path fill="none" stroke="#63b8ff" d="M1576.31,-187.58C1486.7,-182.21 1273.92,-167.64 1085.84,-140.09"/>
<polygon fill="#63b8ff" stroke="#63b8ff" points="1086.17,-136.6 1075.77,-138.6 1085.15,-143.53 1086.17,-136.6"/>
</a>
</g>
</g>
<!-- Node35 -->
<g id="Node000035" class="node">
<title>Node35</title>
<g id="a_Node000035"><a xlink:title=" ">
<polygon fill="#e0e0e0" stroke="#999999" points="1217,-140 1094,-140 1094,-110 1217,-110 1217,-140"/>
<text text-anchor="start" x="1102" y="-128" font-family="Helvetica,sans-Serif" font-size="10.00">scalar_reduce_buffers</text>
<text text-anchor="middle" x="1155.5" y="-117" font-family="Helvetica,sans-Serif" font-size="10.00">_in_vba.h</text>
</a>
</g>
</g>
<!-- Node3&#45;&gt;Node35 -->
<g id="edge44_Node000003_Node000035" class="edge">
<title>Node3&#45;&gt;Node35</title>
<g id="a_edge44_Node000003_Node000035"><a xlink:title=" ">
<path fill="none" stroke="#63b8ff" d="M1576.33,-185.48C1505.6,-177.87 1360.43,-161.35 1227.02,-140.01"/>
<polygon fill="#63b8ff" stroke="#63b8ff" points="1227.46,-136.53 1217.03,-138.4 1226.34,-143.45 1227.46,-136.53"/>
</a>
</g>
</g>
<!-- Node36 -->
<g id="Node000036" class="node">
<title>Node36</title>
<g id="a_Node000036"><a xlink:href="astaroth__analysis_8h.html" target="_top" xlink:title=" ">
<polygon fill="white" stroke="#666666" points="1347.5,-134.5 1235.5,-134.5 1235.5,-115.5 1347.5,-115.5 1347.5,-134.5"/>
<text text-anchor="middle" x="1291.5" y="-122.5" font-family="Helvetica,sans-Serif" font-size="10.00">astaroth_analysis.h</text>
</a>
</g>
</g>
<!-- Node3&#45;&gt;Node36 -->
<g id="edge45_Node000003_Node000036" class="edge">
<title>Node3&#45;&gt;Node36</title>
<g id="a_edge45_Node000003_Node000036"><a xlink:title=" ">
<path fill="none" stroke="#63b8ff" d="M1576.16,-182.09C1523.97,-172.5 1433.71,-155.65 1356.5,-140 1351.2,-138.92 1345.66,-137.77 1340.14,-136.61"/>
<polygon fill="#63b8ff" stroke="#63b8ff" points="1340.82,-133.18 1330.31,-134.52 1339.36,-140.02 1340.82,-133.18"/>
</a>
</g>
</g>
<!-- Node37 -->
<g id="Node000037" class="node">
<title>Node37</title>
<g id="a_Node000037"><a xlink:href="common__kernels_8h.html" target="_top" xlink:title=" ">
<polygon fill="white" stroke="#666666" points="1475,-134.5 1366,-134.5 1366,-115.5 1475,-115.5 1475,-134.5"/>
<text text-anchor="middle" x="1420.5" y="-122.5" font-family="Helvetica,sans-Serif" font-size="10.00">common_kernels.h</text>
</a>
</g>
</g>
<!-- Node3&#45;&gt;Node37 -->
<g id="edge46_Node000003_Node000037" class="edge">
<title>Node3&#45;&gt;Node37</title>
<g id="a_edge46_Node000003_Node000037"><a xlink:title=" ">
<path fill="none" stroke="#63b8ff" d="M1592.66,-181.37C1557.63,-170.1 1496.16,-150.33 1456.94,-137.72"/>
<polygon fill="#63b8ff" stroke="#63b8ff" points="1457.82,-134.33 1447.23,-134.6 1455.68,-140.99 1457.82,-134.33"/>
</a>
</g>
</g>
<!-- Node38 -->
<g id="Node000038" class="node">
<title>Node38</title>
<g id="a_Node000038"><a xlink:title=" ">
<polygon fill="#e0e0e0" stroke="#999999" points="1605.5,-134.5 1493.5,-134.5 1493.5,-115.5 1605.5,-115.5 1605.5,-134.5"/>
<text text-anchor="middle" x="1549.5" y="-122.5" font-family="Helvetica,sans-Serif" font-size="10.00">user_declarations.h</text>
</a>
</g>
</g>
<!-- Node3&#45;&gt;Node38 -->
<g id="edge47_Node000003_Node000038" class="edge">
<title>Node3&#45;&gt;Node38</title>
<g id="a_edge47_Node000003_Node000038"><a xlink:title=" ">
<path fill="none" stroke="#63b8ff" d="M1610.06,-181.37C1598.95,-171.21 1580.3,-154.16 1566.62,-141.65"/>
<polygon fill="#63b8ff" stroke="#63b8ff" points="1568.98,-139.07 1559.24,-134.91 1564.26,-144.24 1568.98,-139.07"/>
</a>
</g>
</g>
<!-- Node39 -->
<g id="Node000039" class="node">
<title>Node39</title>
<g id="a_Node000039"><a xlink:title=" ">
<polygon fill="#e0e0e0" stroke="#999999" points="1757.5,-140 1623.5,-140 1623.5,-110 1757.5,-110 1757.5,-140"/>
<text text-anchor="start" x="1631.5" y="-128" font-family="Helvetica,sans-Serif" font-size="10.00">load_and_store_uniform</text>
<text text-anchor="middle" x="1690.5" y="-117" font-family="Helvetica,sans-Serif" font-size="10.00">_header.h</text>
</a>
</g>
</g>
<!-- Node3&#45;&gt;Node39 -->
<g id="edge48_Node000003_Node000039" class="edge">
<title>Node3&#45;&gt;Node39</title>
<g id="a_edge48_Node000003_Node000039"><a xlink:title=" ">
<path fill="none" stroke="#63b8ff" d="M1629.08,-181.37C1638.79,-172.61 1654.21,-158.71 1667.16,-147.04"/>
<polygon fill="#63b8ff" stroke="#63b8ff" points="1669.76,-149.41 1674.84,-140.12 1665.07,-144.21 1669.76,-149.41"/>
</a>
</g>
</g>
<!-- Node6 -->
<g id="Node000006" class="node">
<title>Node6</title>
<g id="a_Node000006"><a xlink:title=" ">
<polygon fill="#e0e0e0" stroke="#999999" points="1572,-19 1459,-19 1459,0 1572,0 1572,-19"/>
<text text-anchor="middle" x="1515.5" y="-7" font-family="Helvetica,sans-Serif" font-size="10.00">cuda_runtime_api.h</text>
</a>
</g>
</g>
<!-- Node5&#45;&gt;Node6 -->
<g id="edge6_Node000005_Node000006" class="edge">
<title>Node5&#45;&gt;Node6</title>
<g id="a_edge6_Node000005_Node000006"><a xlink:title=" ">
<path fill="none" stroke="#63b8ff" d="M1851.44,-56.25C1848.42,-55.82 1845.42,-55.41 1842.5,-55 1752.54,-42.51 1648.61,-28.42 1582.5,-19.51"/>
<polygon fill="#63b8ff" stroke="#63b8ff" points="1582.6,-15.99 1572.22,-18.12 1581.67,-22.93 1582.6,-15.99"/>
</a>
</g>
</g>
<!-- Node7 -->
<g id="Node000007" class="node">
<title>Node7</title>
<g id="a_Node000007"><a xlink:title=" ">
<polygon fill="#e0e0e0" stroke="#999999" points="1940.5,-19 1864.5,-19 1864.5,0 1940.5,0 1940.5,-19"/>
<text text-anchor="middle" x="1902.5" y="-7" font-family="Helvetica,sans-Serif" font-size="10.00">cuda_fp16.h</text>
</a>
</g>
</g>
<!-- Node5&#45;&gt;Node7 -->
<g id="edge7_Node000005_Node000007" class="edge">
<title>Node5&#45;&gt;Node7</title>
<g id="a_edge7_Node000005_Node000007"><a xlink:title=" ">
<path fill="none" stroke="#63b8ff" d="M1902.5,-54.75C1902.5,-47.8 1902.5,-37.85 1902.5,-29.13"/>
<polygon fill="#63b8ff" stroke="#63b8ff" points="1906,-29.09 1902.5,-19.09 1899,-29.09 1906,-29.09"/>
</a>
</g>
</g>
<!-- Node9&#45;&gt;Node5 -->
<g id="edge12_Node000009_Node000005" class="edge">
<title>Node9&#45;&gt;Node5</title>
<g id="a_edge12_Node000009_Node000005"><a xlink:title=" ">
<path fill="none" stroke="#63b8ff" d="M1825.78,-115.37C1840.14,-106.04 1863.26,-91.01 1880.37,-79.88"/>
<polygon fill="#63b8ff" stroke="#63b8ff" points="1882.69,-82.55 1889.17,-74.17 1878.87,-76.68 1882.69,-82.55"/>
</a>
</g>
</g>
<!-- Node9&#45;&gt;Node6 -->
<g id="edge14_Node000009_Node000006" class="edge">
<title>Node9&#45;&gt;Node6</title>
<g id="a_edge14_Node000009_Node000006"><a xlink:title=" ">
<path fill="none" stroke="#63b8ff" d="M1787.91,-115.47C1781.06,-113.37 1773.55,-111.35 1766.5,-110 1719.3,-100.95 1368.04,-109.37 1335.5,-74 1298.66,-33.95 1383.15,-19.15 1448.47,-13.69"/>
<polygon fill="#63b8ff" stroke="#63b8ff" points="1449.07,-17.16 1458.77,-12.89 1448.52,-10.18 1449.07,-17.16"/>
</a>
</g>
</g>
<!-- Node9&#45;&gt;Node8 -->
<g id="edge16_Node000009_Node000008" class="edge">
<title>Node9&#45;&gt;Node8</title>
<g id="a_edge16_Node000009_Node000008"><a xlink:title=" ">
<path fill="none" stroke="#63b8ff" d="M1808.52,-115.37C1804.65,-106.99 1798.66,-94.01 1793.76,-83.39"/>
<polygon fill="#63b8ff" stroke="#63b8ff" points="1796.87,-81.78 1789.5,-74.17 1790.51,-84.71 1796.87,-81.78"/>
</a>
</g>
</g>
<!-- Node10 -->
<g id="Node000010" class="node">
<title>Node10</title>
<g id="a_Node000010"><a xlink:title=" ">
<polygon fill="#e0e0e0" stroke="#999999" points="1505,-74 1458,-74 1458,-55 1505,-55 1505,-74"/>
<text text-anchor="middle" x="1481.5" y="-62" font-family="Helvetica,sans-Serif" font-size="10.00">float.h</text>
</a>
</g>
</g>
<!-- Node9&#45;&gt;Node10 -->
<g id="edge10_Node000009_Node000010" class="edge">
<title>Node9&#45;&gt;Node10</title>
<g id="a_edge10_Node000009_Node000010"><a xlink:title=" ">
<path fill="none" stroke="#63b8ff" d="M1786.9,-115.45C1780.3,-113.45 1773.18,-111.48 1766.5,-110 1659.18,-86.15 1627.25,-95.57 1515.22,-73.92"/>
<polygon fill="#63b8ff" stroke="#63b8ff" points="1515.71,-70.45 1505.22,-71.94 1514.35,-77.31 1515.71,-70.45"/>
</a>
</g>
</g>
<!-- Node11 -->
<g id="Node000011" class="node">
<title>Node11</title>
<g id="a_Node000011"><a xlink:title=" ">
<polygon fill="#e0e0e0" stroke="#999999" points="1574,-74 1523,-74 1523,-55 1574,-55 1574,-74"/>
<text text-anchor="middle" x="1548.5" y="-62" font-family="Helvetica,sans-Serif" font-size="10.00">math.h</text>
</a>
</g>
</g>
<!-- Node9&#45;&gt;Node11 -->
<g id="edge11_Node000009_Node000011" class="edge">
<title>Node9&#45;&gt;Node11</title>
<g id="a_edge11_Node000009_Node000011"><a xlink:title=" ">
<path fill="none" stroke="#63b8ff" d="M1785.87,-115.4C1779.56,-113.49 1772.82,-111.58 1766.5,-110 1689.06,-90.65 1666.15,-91.68 1583.87,-73.98"/>
<polygon fill="#63b8ff" stroke="#63b8ff" points="1584.6,-70.56 1574.08,-71.85 1583.11,-77.4 1584.6,-70.56"/>
</a>
</g>
</g>
<!-- Node12 -->
<g id="Node000012" class="node">
<title>Node12</title>
<g id="a_Node000012"><a xlink:title=" ">
<polygon fill="#e0e0e0" stroke="#999999" points="1681,-74 1592,-74 1592,-55 1681,-55 1681,-74"/>
<text text-anchor="middle" x="1636.5" y="-62" font-family="Helvetica,sans-Serif" font-size="10.00">vector_types.h</text>
</a>
</g>
</g>
<!-- Node9&#45;&gt;Node12 -->
<g id="edge13_Node000009_Node000012" class="edge">
<title>Node9&#45;&gt;Node12</title>
<g id="a_edge13_Node000009_Node000012"><a xlink:title=" ">
<path fill="none" stroke="#63b8ff" d="M1786.91,-115.49C1756.54,-105.4 1705.74,-88.51 1671.68,-77.19"/>
<polygon fill="#63b8ff" stroke="#63b8ff" points="1672.72,-73.85 1662.12,-74.02 1670.51,-80.49 1672.72,-73.85"/>
</a>
</g>
</g>
<!-- Node13 -->
<g id="Node000013" class="node">
<title>Node13</title>
<g id="a_Node000013"><a xlink:href="acreal_8h.html" target="_top" xlink:title=" ">
<polygon fill="white" stroke="#666666" points="1791.5,-19 1735.5,-19 1735.5,0 1791.5,0 1791.5,-19"/>
<text text-anchor="middle" x="1763.5" y="-7" font-family="Helvetica,sans-Serif" font-size="10.00">acreal.h</text>
</a>
</g>
</g>
<!-- Node9&#45;&gt;Node13 -->
<g id="edge15_Node000009_Node000013" class="edge">
<title>Node9&#45;&gt;Node13</title>
<g id="a_edge15_Node000009_Node000013"><a xlink:title=" ">
<path fill="none" stroke="#63b8ff" d="M1784.77,-115.46C1765.5,-107.91 1741.25,-94.8 1729.5,-74 1720.43,-57.95 1733.08,-39.33 1745.44,-26.42"/>
<polygon fill="#63b8ff" stroke="#63b8ff" points="1748.15,-28.67 1752.9,-19.2 1743.29,-23.64 1748.15,-28.67"/>
</a>
</g>
</g>
<!-- Node14 -->
<g id="Node000014" class="node">
<title>Node14</title>
<g id="a_Node000014"><a xlink:title=" ">
<polygon fill="#e0e0e0" stroke="#999999" points="1440,-74 1345,-74 1345,-55 1440,-55 1440,-74"/>
<text text-anchor="middle" x="1392.5" y="-62" font-family="Helvetica,sans-Serif" font-size="10.00">user_typedefs.h</text>
</a>
</g>
</g>
<!-- Node9&#45;&gt;Node14 -->
<g id="edge17_Node000009_Node000014" class="edge">
<title>Node9&#45;&gt;Node14</title>
<g id="a_edge17_Node000009_Node000014"><a xlink:title=" ">
<path fill="none" stroke="#63b8ff" d="M1787.41,-115.46C1780.68,-113.42 1773.37,-111.42 1766.5,-110 1630.48,-81.85 1591.33,-92.16 1450.46,-74.2"/>
<polygon fill="#63b8ff" stroke="#63b8ff" points="1450.51,-70.68 1440.14,-72.86 1449.61,-77.62 1450.51,-70.68"/>
</a>
</g>
</g>
<!-- Node15 -->
<g id="Node000015" class="node">
<title>Node15</title>
<g id="a_Node000015"><a xlink:href="host__datatypes_8h.html" target="_top" xlink:title=" ">
<polygon fill="white" stroke="#666666" points="2073,-74 1972,-74 1972,-55 2073,-55 2073,-74"/>
<text text-anchor="middle" x="2022.5" y="-62" font-family="Helvetica,sans-Serif" font-size="10.00">host_datatypes.h</text>
</a>
</g>
</g>
<!-- Node9&#45;&gt;Node15 -->
<g id="edge18_Node000009_Node000015" class="edge">
<title>Node9&#45;&gt;Node15</title>
<g id="a_edge18_Node000009_Node000015"><a xlink:title=" ">
<path fill="none" stroke="#63b8ff" d="M1843.04,-115.49C1879.74,-105.27 1941.45,-88.08 1982.08,-76.76"/>
<polygon fill="#63b8ff" stroke="#63b8ff" points="1983.23,-80.07 1991.93,-74.02 1981.35,-73.33 1983.23,-80.07"/>
</a>
</g>
</g>
<!-- Node15&#45;&gt;Node13 -->
<g id="edge19_Node000015_Node000013" class="edge">
<title>Node15&#45;&gt;Node13</title>
<g id="a_edge19_Node000015_Node000013"><a xlink:title=" ">
<path fill="none" stroke="#63b8ff" d="M1980.89,-54.98C1931.46,-44.87 1849.7,-28.14 1801.78,-18.33"/>
<polygon fill="#63b8ff" stroke="#63b8ff" points="1802.31,-14.87 1791.81,-16.29 1800.9,-21.73 1802.31,-14.87"/>
</a>
</g>
</g>
<!-- Node16 -->
<g id="Node000016" class="node">
<title>Node16</title>
<g id="a_Node000016"><a xlink:title=" ">
<polygon fill="#e0e0e0" stroke="#999999" points="2159.5,-19 2103.5,-19 2103.5,0 2159.5,0 2159.5,-19"/>
<text text-anchor="middle" x="2131.5" y="-7" font-family="Helvetica,sans-Serif" font-size="10.00">stddef.h</text>
</a>
</g>
</g>
<!-- Node15&#45;&gt;Node16 -->
<g id="edge20_Node000015_Node000016" class="edge">
<title>Node15&#45;&gt;Node16</title>
<g id="a_edge20_Node000015_Node000016"><a xlink:title=" ">
<path fill="none" stroke="#63b8ff" d="M2040.01,-54.98C2057.47,-46.5 2084.51,-33.35 2104.67,-23.54"/>
<polygon fill="#63b8ff" stroke="#63b8ff" points="2106.21,-26.69 2113.67,-19.17 2103.14,-20.4 2106.21,-26.69"/>
</a>
</g>
</g>
<!-- Node17&#45;&gt;Node2 -->
<g id="edge24_Node000017_Node000002" class="edge">
<title>Node17&#45;&gt;Node2</title>
<g id="a_edge24_Node000017_Node000002"><a xlink:title=" ">
<path fill="none" stroke="#63b8ff" d="M2032.35,-115.38C2038.5,-113.34 2045.19,-111.36 2051.5,-110 2199.8,-77.99 2243.47,-97.28 2396.85,-74.09"/>
<polygon fill="#63b8ff" stroke="#63b8ff" points="2397.77,-77.49 2407.12,-72.5 2396.7,-70.57 2397.77,-77.49"/>
</a>
</g>
</g>
<!-- Node17&#45;&gt;Node4 -->
<g id="edge26_Node000017_Node000004" class="edge">
<title>Node17&#45;&gt;Node4</title>
<g id="a_edge26_Node000017_Node000004"><a xlink:title=" ">
<path fill="none" stroke="#63b8ff" d="M2025.29,-115.37C2042.83,-105.78 2071.38,-90.17 2091.87,-78.97"/>
<polygon fill="#63b8ff" stroke="#63b8ff" points="2093.55,-82.04 2100.65,-74.17 2090.19,-75.89 2093.55,-82.04"/>
</a>
</g>
</g>
<!-- Node17&#45;&gt;Node5 -->
<g id="edge29_Node000017_Node000005" class="edge">
<title>Node17&#45;&gt;Node5</title>
<g id="a_edge29_Node000017_Node000005"><a xlink:title=" ">
<path fill="none" stroke="#63b8ff" d="M1993.71,-115.37C1976.17,-105.78 1947.62,-90.17 1927.13,-78.97"/>
<polygon fill="#63b8ff" stroke="#63b8ff" points="1928.81,-75.89 1918.35,-74.17 1925.45,-82.04 1928.81,-75.89"/>
</a>
</g>
</g>
<!-- Node17&#45;&gt;Node15 -->
<g id="edge23_Node000017_Node000015" class="edge">
<title>Node17&#45;&gt;Node15</title>
<g id="a_edge23_Node000017_Node000015"><a xlink:title=" ">
<path fill="none" stroke="#63b8ff" d="M2011.42,-115.37C2013.24,-107.16 2016.05,-94.54 2018.38,-84.05"/>
<polygon fill="#63b8ff" stroke="#63b8ff" points="2021.82,-84.69 2020.57,-74.17 2014.99,-83.17 2021.82,-84.69"/>
</a>
</g>
</g>
<!-- Node17&#45;&gt;Node16 -->
<g id="edge22_Node000017_Node000016" class="edge">
<title>Node17&#45;&gt;Node16</title>
<g id="a_edge22_Node000017_Node000016"><a xlink:title=" ">
<path fill="none" stroke="#63b8ff" d="M2033.79,-115.38C2039.55,-113.48 2045.71,-111.57 2051.5,-110 2126.46,-89.69 2173.56,-134.31 2222.5,-74 2241.7,-50.34 2202.45,-31.68 2169.64,-20.87"/>
<polygon fill="#63b8ff" stroke="#63b8ff" points="2170.33,-17.42 2159.74,-17.77 2168.24,-24.1 2170.33,-17.42"/>
</a>
</g>
</g>
<!-- Node18 -->
<g id="Node000018" class="node">
<title>Node18</title>
<g id="a_Node000018"><a xlink:title=" ">
<polygon fill="#e0e0e0" stroke="#999999" points="2389,-74 2336,-74 2336,-55 2389,-55 2389,-74"/>
<text text-anchor="middle" x="2362.5" y="-62" font-family="Helvetica,sans-Serif" font-size="10.00">stdint.h</text>
</a>
</g>
</g>
<!-- Node17&#45;&gt;Node18 -->
<g id="edge25_Node000017_Node000018" class="edge">
<title>Node17&#45;&gt;Node18</title>
<g id="a_edge25_Node000017_Node000018"><a xlink:title=" ">
<path fill="none" stroke="#63b8ff" d="M2032.38,-115.49C2038.52,-113.45 2045.21,-111.45 2051.5,-110 2168.46,-83.11 2203.42,-95.49 2325.7,-73.94"/>
<polygon fill="#63b8ff" stroke="#63b8ff" points="2326.61,-77.34 2335.83,-72.12 2325.36,-70.45 2326.61,-77.34"/>
</a>
</g>
</g>
<!-- Node19 -->
<g id="Node000019" class="node">
<title>Node19</title>
<g id="a_Node000019"><a xlink:title=" ">
<polygon fill="#e0e0e0" stroke="#999999" points="2213,-74 2160,-74 2160,-55 2213,-55 2213,-74"/>
<text text-anchor="middle" x="2186.5" y="-62" font-family="Helvetica,sans-Serif" font-size="10.00">stdlib.h</text>
</a>
</g>
</g>
<!-- Node17&#45;&gt;Node19 -->
<g id="edge27_Node000017_Node000019" class="edge">
<title>Node17&#45;&gt;Node19</title>
<g id="a_edge27_Node000017_Node000019"><a xlink:title=" ">
<path fill="none" stroke="#63b8ff" d="M2035.26,-115.4C2040.63,-113.61 2046.25,-111.74 2051.5,-110 2085.15,-98.85 2123.54,-86.2 2150.76,-77.25"/>
<polygon fill="#63b8ff" stroke="#63b8ff" points="2152.21,-80.45 2160.61,-74.01 2150.02,-73.8 2152.21,-80.45"/>
</a>
</g>
</g>
<!-- Node20 -->
<g id="Node000020" class="node">
<title>Node20</title>
<g id="a_Node000020"><a xlink:title=" ">
<polygon fill="#e0e0e0" stroke="#999999" points="2317.5,-74 2269.5,-74 2269.5,-55 2317.5,-55 2317.5,-74"/>
<text text-anchor="middle" x="2293.5" y="-62" font-family="Helvetica,sans-Serif" font-size="10.00">time.h</text>
</a>
</g>
</g>
<!-- Node17&#45;&gt;Node20 -->
<g id="edge28_Node000017_Node000020" class="edge">
<title>Node17&#45;&gt;Node20</title>
<g id="a_edge28_Node000017_Node000020"><a xlink:title=" ">
<path fill="none" stroke="#63b8ff" d="M2033.31,-115.39C2039.2,-113.44 2045.54,-111.51 2051.5,-110 2140.75,-87.38 2165.22,-92.05 2255.5,-74 2256.77,-73.75 2258.06,-73.48 2259.36,-73.21"/>
<polygon fill="#63b8ff" stroke="#63b8ff" points="2260.37,-76.58 2269.41,-71.06 2258.9,-69.73 2260.37,-76.58"/>
</a>
</g>
</g>
</g>
</svg>
