<?xml version="1.0" encoding="UTF-8" standalone="no"?>
<!DOCTYPE svg PUBLIC "-//W3C//DTD SVG 1.1//EN"
 "http://www.w3.org/Graphics/SVG/1.1/DTD/svg11.dtd">
<!-- Generated by graphviz version 2.43.0 (0)
 -->
<!-- Title: include/astaroth.h Pages: 1 -->
<!--zoomable 324 -->

<svg id="main" version="1.1" xmlns="http://www.w3.org/2000/svg" xmlns:xlink="http://www.w3.org/1999/xlink" xml:space="preserve" onload="init(evt)">
<style type="text/css"><![CDATA[
.node, .edge {opacity: 0.7;}
.node.selected, .edge.selected {opacity: 1;}
.edge:hover path { stroke: red; }
.edge:hover polygon { stroke: red; fill: red; }
]]></style>

<defs>
  <circle id="rim" cx="0" cy="0" r="7"/>
  <circle id="rim2" cx="0" cy="0" r="3.5"/>
  <g id="zoomPlus">
    <use xlink:href="#rim" fill="#404040"><set attributeName="fill" to="#808080" begin="zoomplus.mouseover" end="zoomplus.mouseout"/></use>
    <path d="M-4,0h8M0,-4v8" fill="none" stroke="white" stroke-width="1.5" pointer-events="none"/>
  </g>
  <g id="zoomMin">
    <use xlink:href="#rim" fill="#404040"><set attributeName="fill" to="#808080" begin="zoomminus.mouseover" end="zoomminus.mouseout"/></use>
    <path d="M-4,0h8" fill="none" stroke="white" stroke-width="1.5" pointer-events="none"/>
  </g>
  <g id="arrowUp" transform="translate(30 24)">
    <use xlink:href="#rim"/>
    <path pointer-events="none" fill="none" stroke="white" stroke-width="1.5" d="M0,-3.0v7 M-2.5,-0.5L0,-3.0L2.5,-0.5"/>
  </g>
  <g id="arrowRight" transform="rotate(90) translate(36 -43)">
    <use xlink:href="#rim"/>
    <path pointer-events="none" fill="none" stroke="white" stroke-width="1.5" d="M0,-3.0v7 M-2.5,-0.5L0,-3.0L2.5,-0.5"/>
  </g>
  <g id="arrowDown" transform="rotate(180) translate(-30 -48)">
    <use xlink:href="#rim"/>
    <path pointer-events="none" fill="none" stroke="white" stroke-width="1.5" d="M0,-3.0v7 M-2.5,-0.5L0,-3.0L2.5,-0.5"/>
  </g>
  <g id="arrowLeft" transform="rotate(270) translate(-36 17)">
    <use xlink:href="#rim"/>
    <path pointer-events="none" fill="none" stroke="white" stroke-width="1.5" d="M0,-3.0v7 M-2.5,-0.5L0,-3.0L2.5,-0.5"/>
  </g>
  <g id="resetDef">
    <use xlink:href="#rim2" fill="#404040"><set attributeName="fill" to="#808080" begin="reset.mouseover" end="reset.mouseout"/></use>
  </g>
</defs>
<script type="application/ecmascript">
var viewWidth = 4075;
var viewHeight = 324;
var sectionId = 'dynsection-0';
</script>
<script type="application/ecmascript" xlink:href="svg.min.js"/>
<svg id="graph" class="graph">
<g id="viewport">
<title>include/astaroth.h</title>
<!-- Node1 -->
<g id="Node000001" class="node">
<title>Node1</title>
<g id="a_Node000001"><a xlink:title=" ">
<polygon fill="#999999" stroke="#666666" points="3316.5,-316 3212.5,-316 3212.5,-297 3316.5,-297 3316.5,-316"/>
<text text-anchor="middle" x="3264.5" y="-304" font-family="Helvetica,sans-Serif" font-size="10.00">include/astaroth.h</text>
</a>
</g>
</g>
<!-- Node2 -->
<g id="Node000002" class="node">
<title>Node2</title>
<g id="a_Node000002"><a xlink:href="astaroth__base_8h.html" target="_top" xlink:title=" ">
<polygon fill="white" stroke="#666666" points="2712,-261 2617,-261 2617,-242 2712,-242 2712,-261"/>
<text text-anchor="middle" x="2664.5" y="-249" font-family="Helvetica,sans-Serif" font-size="10.00">astaroth_base.h</text>
</a>
</g>
</g>
<!-- Node1&#45;&gt;Node2 -->
<g id="edge1_Node000001_Node000002" class="edge">
<title>Node1&#45;&gt;Node2</title>
<g id="a_edge1_Node000001_Node000002"><a xlink:title=" ">
<path fill="none" stroke="#63b8ff" d="M3212.35,-302.38C3117.16,-296.43 2908.7,-282.25 2722.05,-260.98"/>
<polygon fill="#63b8ff" stroke="#63b8ff" points="2722.39,-257.5 2712.05,-259.83 2721.59,-264.45 2722.39,-257.5"/>
</a>
</g>
</g>
<!-- Node42 -->
<g id="Node000042" class="node">
<title>Node42</title>
<g id="a_Node000042"><a xlink:href="astaroth__grid_8h.html" target="_top" xlink:title=" ">
<polygon fill="white" stroke="#666666" points="2820.5,-261 2730.5,-261 2730.5,-242 2820.5,-242 2820.5,-261"/>
<text text-anchor="middle" x="2775.5" y="-249" font-family="Helvetica,sans-Serif" font-size="10.00">astaroth_grid.h</text>
</a>
</g>
</g>
<!-- Node1&#45;&gt;Node42 -->
<g id="edge49_Node000001_Node000042" class="edge">
<title>Node1&#45;&gt;Node42</title>
<g id="a_edge49_Node000001_Node000042"><a xlink:title=" ">
<path fill="none" stroke="#63b8ff" d="M3212.17,-301.07C3132.27,-294.1 2974.87,-279.58 2830.9,-261.12"/>
<polygon fill="#63b8ff" stroke="#63b8ff" points="2830.92,-257.59 2820.55,-259.78 2830.02,-264.53 2830.92,-257.59"/>
</a>
</g>
</g>
<!-- Node43 -->
<g id="Node000043" class="node">
<title>Node43</title>
<g id="a_Node000043"><a xlink:href="astaroth__node_8h.html" target="_top" xlink:title=" ">
<polygon fill="white" stroke="#666666" points="2934,-261 2839,-261 2839,-242 2934,-242 2934,-261"/>
<text text-anchor="middle" x="2886.5" y="-249" font-family="Helvetica,sans-Serif" font-size="10.00">astaroth_node.h</text>
</a>
</g>
</g>
<!-- Node1&#45;&gt;Node43 -->
<g id="edge50_Node000001_Node000043" class="edge">
<title>Node1&#45;&gt;Node43</title>
<g id="a_edge50_Node000001_Node000043"><a xlink:title=" ">
<path fill="none" stroke="#63b8ff" d="M3212.49,-298.46C3151.03,-290.1 3045.39,-275.61 2944.18,-261.08"/>
<polygon fill="#63b8ff" stroke="#63b8ff" points="2944.48,-257.59 2934.08,-259.63 2943.48,-264.52 2944.48,-257.59"/>
</a>
</g>
</g>
<!-- Node44 -->
<g id="Node000044" class="node">
<title>Node44</title>
<g id="a_Node000044"><a xlink:href="astaroth__device_8h.html" target="_top" xlink:title=" ">
<polygon fill="white" stroke="#666666" points="3056.5,-261 2952.5,-261 2952.5,-242 3056.5,-242 3056.5,-261"/>
<text text-anchor="middle" x="3004.5" y="-249" font-family="Helvetica,sans-Serif" font-size="10.00">astaroth_device.h</text>
</a>
</g>
</g>
<!-- Node1&#45;&gt;Node44 -->
<g id="edge51_Node000001_Node000044" class="edge">
<title>Node1&#45;&gt;Node44</title>
<g id="a_edge51_Node000001_Node000044"><a xlink:title=" ">
<path fill="none" stroke="#63b8ff" d="M3222.73,-296.98C3177.56,-287.78 3105.5,-273.09 3056.65,-263.13"/>
<polygon fill="#63b8ff" stroke="#63b8ff" points="3057.1,-259.65 3046.6,-261.08 3055.7,-266.51 3057.1,-259.65"/>
</a>
</g>
</g>
<!-- Node47 -->
<g id="Node000047" class="node">
<title>Node47</title>
<g id="a_Node000047"><a xlink:href="astaroth__legacy_8h.html" target="_top" xlink:title=" ">
<polygon fill="white" stroke="#666666" points="3176.5,-261 3074.5,-261 3074.5,-242 3176.5,-242 3176.5,-261"/>
<text text-anchor="middle" x="3125.5" y="-249" font-family="Helvetica,sans-Serif" font-size="10.00">astaroth_legacy.h</text>
</a>
</g>
</g>
<!-- Node1&#45;&gt;Node47 -->
<g id="edge54_Node000001_Node000047" class="edge">
<title>Node1&#45;&gt;Node47</title>
<g id="a_edge54_Node000001_Node000047"><a xlink:title=" ">
<path fill="none" stroke="#63b8ff" d="M3242.17,-296.98C3219.3,-288.27 3183.54,-274.63 3157.64,-264.75"/>
<polygon fill="#63b8ff" stroke="#63b8ff" points="3158.83,-261.46 3148.24,-261.17 3156.34,-268 3158.83,-261.46"/>
</a>
</g>
</g>
<!-- Node48 -->
<g id="Node000048" class="node">
<title>Node48</title>
<g id="a_Node000048"><a xlink:title=" ">
<polygon fill="#e0e0e0" stroke="#999999" points="3334,-261 3195,-261 3195,-242 3334,-242 3334,-261"/>
<text text-anchor="middle" x="3264.5" y="-249" font-family="Helvetica,sans-Serif" font-size="10.00">device_set_input_decls.h</text>
</a>
</g>
</g>
<!-- Node1&#45;&gt;Node48 -->
<g id="edge55_Node000001_Node000048" class="edge">
<title>Node1&#45;&gt;Node48</title>
<g id="a_edge55_Node000001_Node000048"><a xlink:title=" ">
<path fill="none" stroke="#63b8ff" d="M3264.5,-296.75C3264.5,-289.8 3264.5,-279.85 3264.5,-271.13"/>
<polygon fill="#63b8ff" stroke="#63b8ff" points="3268,-271.09 3264.5,-261.09 3261,-271.09 3268,-271.09"/>
</a>
</g>
</g>
<!-- Node49 -->
<g id="Node000049" class="node">
<title>Node49</title>
<g id="a_Node000049"><a xlink:title=" ">
<polygon fill="#e0e0e0" stroke="#999999" points="3498.5,-261 3352.5,-261 3352.5,-242 3498.5,-242 3498.5,-261"/>
<text text-anchor="middle" x="3425.5" y="-249" font-family="Helvetica,sans-Serif" font-size="10.00">device_get_output_decls.h</text>
</a>
</g>
</g>
<!-- Node1&#45;&gt;Node49 -->
<g id="edge56_Node000001_Node000049" class="edge">
<title>Node1&#45;&gt;Node49</title>
<g id="a_edge56_Node000001_Node000049"><a xlink:title=" ">
<path fill="none" stroke="#63b8ff" d="M3290.37,-296.98C3317.28,-288.13 3359.62,-274.19 3389.73,-264.28"/>
<polygon fill="#63b8ff" stroke="#63b8ff" points="3391.03,-267.53 3399.43,-261.08 3388.84,-260.88 3391.03,-267.53"/>
</a>
</g>
</g>
<!-- Node50 -->
<g id="Node000050" class="node">
<title>Node50</title>
<g id="a_Node000050"><a xlink:title=" ">
<polygon fill="#e0e0e0" stroke="#999999" points="3656.5,-261 3516.5,-261 3516.5,-242 3656.5,-242 3656.5,-261"/>
<text text-anchor="middle" x="3586.5" y="-249" font-family="Helvetica,sans-Serif" font-size="10.00">device_get_input_decls.h</text>
</a>
</g>
</g>
<!-- Node1&#45;&gt;Node50 -->
<g id="edge57_Node000001_Node000050" class="edge">
<title>Node1&#45;&gt;Node50</title>
<g id="a_edge57_Node000001_Node000050"><a xlink:title=" ">
<path fill="none" stroke="#63b8ff" d="M3316.23,-296.98C3372.95,-287.65 3463.93,-272.67 3524.44,-262.71"/>
<polygon fill="#63b8ff" stroke="#63b8ff" points="3525.33,-266.12 3534.63,-261.04 3524.19,-259.21 3525.33,-266.12"/>
</a>
</g>
</g>
<!-- Node51 -->
<g id="Node000051" class="node">
<title>Node51</title>
<g id="a_Node000051"><a xlink:title=" ">
<polygon fill="#e0e0e0" stroke="#999999" points="3804.5,-261 3674.5,-261 3674.5,-242 3804.5,-242 3804.5,-261"/>
<text text-anchor="middle" x="3739.5" y="-249" font-family="Helvetica,sans-Serif" font-size="10.00">get_vtxbufs_declares.h</text>
</a>
</g>
</g>
<!-- Node1&#45;&gt;Node51 -->
<g id="edge58_Node000001_Node000051" class="edge">
<title>Node1&#45;&gt;Node51</title>
<g id="a_edge58_Node000001_Node000051"><a xlink:title=" ">
<path fill="none" stroke="#63b8ff" d="M3316.73,-299.77C3391.33,-291.57 3532.96,-275.95 3663.92,-261.17"/>
<polygon fill="#63b8ff" stroke="#63b8ff" points="3664.59,-264.62 3674.13,-260.02 3663.8,-257.67 3664.59,-264.62"/>
</a>
</g>
</g>
<!-- Node52 -->
<g id="Node000052" class="node">
<title>Node52</title>
<g id="a_Node000052"><a xlink:href="astaroth__runtime__compilation_8h.html" target="_top" xlink:title=" ">
<polygon fill="white" stroke="#666666" points="3996,-261 3823,-261 3823,-242 3996,-242 3996,-261"/>
<text text-anchor="middle" x="3909.5" y="-249" font-family="Helvetica,sans-Serif" font-size="10.00">astaroth_runtime_compilation.h</text>
</a>
</g>
</g>
<!-- Node1&#45;&gt;Node52 -->
<g id="edge59_Node000001_Node000052" class="edge">
<title>Node1&#45;&gt;Node52</title>
<g id="a_edge59_Node000001_Node000052"><a xlink:title=" ">
<path fill="none" stroke="#63b8ff" d="M3316.74,-301.4C3412.63,-293.83 3623.45,-277.08 3812.76,-261.06"/>
<polygon fill="#63b8ff" stroke="#63b8ff" points="3813.23,-264.53 3822.9,-260.2 3812.64,-257.55 3813.23,-264.53"/>
</a>
</g>
</g>
<!-- Node53 -->
<g id="Node000053" class="node">
<title>Node53</title>
<g id="a_Node000053"><a xlink:title=" ">
<polygon fill="#e0e0e0" stroke="#999999" points="4067,-261 4014,-261 4014,-242 4067,-242 4067,-261"/>
<text text-anchor="middle" x="4040.5" y="-249" font-family="Helvetica,sans-Serif" font-size="10.00">string.h</text>
</a>
</g>
</g>
<!-- Node1&#45;&gt;Node53 -->
<g id="edge60_Node000001_Node000053" class="edge">
<title>Node1&#45;&gt;Node53</title>
<g id="a_edge60_Node000001_Node000053"><a xlink:title=" ">
<path fill="none" stroke="#63b8ff" d="M3316.94,-305.55C3437.08,-304.98 3741.47,-299.62 4003.75,-261"/>
<polygon fill="#63b8ff" stroke="#63b8ff" points="4004.47,-264.43 4013.84,-259.49 4003.44,-257.51 4004.47,-264.43"/>
</a>
</g>
</g>
<!-- Node3 -->
<g id="Node000003" class="node">
<title>Node3</title>
<g id="a_Node000003"><a xlink:title=" ">
<polygon fill="#e0e0e0" stroke="#999999" points="2644.5,-74 2582.5,-74 2582.5,-55 2644.5,-55 2644.5,-74"/>
<text text-anchor="middle" x="2613.5" y="-62" font-family="Helvetica,sans-Serif" font-size="10.00">stdbool.h</text>
</a>
</g>
</g>
<!-- Node2&#45;&gt;Node3 -->
<g id="edge2_Node000002_Node000003" class="edge">
<title>Node2&#45;&gt;Node3</title>
<g id="a_edge2_Node000002_Node000003"><a xlink:title=" ">
<path fill="none" stroke="#63b8ff" d="M2682.94,-241.97C2726.75,-220.57 2830.42,-162.55 2789.5,-110 2773.12,-88.96 2701.51,-76.29 2654.83,-70.12"/>
<polygon fill="#63b8ff" stroke="#63b8ff" points="2655.06,-66.62 2644.7,-68.83 2654.18,-73.57 2655.06,-66.62"/>
</a>
</g>
</g>
<!-- Node4 -->
<g id="Node000004" class="node">
<title>Node4</title>
<g id="a_Node000004"><a xlink:href="acc__runtime_8h.html" target="_top" xlink:title=" ">
<polygon fill="white" stroke="#666666" points="1517.5,-200.5 1431.5,-200.5 1431.5,-181.5 1517.5,-181.5 1517.5,-200.5"/>
<text text-anchor="middle" x="1474.5" y="-188.5" font-family="Helvetica,sans-Serif" font-size="10.00">acc_runtime.h</text>
</a>
</g>
</g>
<!-- Node2&#45;&gt;Node4 -->
<g id="edge3_Node000002_Node000004" class="edge">
<title>Node2&#45;&gt;Node4</title>
<g id="a_edge3_Node000002_Node000004"><a xlink:title=" ">
<path fill="none" stroke="#63b8ff" d="M2616.75,-248.15C2426.99,-238.82 1726.99,-204.41 1527.74,-194.62"/>
<polygon fill="#63b8ff" stroke="#63b8ff" points="1527.69,-191.11 1517.53,-194.12 1527.34,-198.1 1527.69,-191.11"/>
</a>
</g>
</g>
<!-- Node24 -->
<g id="Node000024" class="node">
<title>Node24</title>
<g id="a_Node000024"><a xlink:title=" ">
<polygon fill="#e0e0e0" stroke="#999999" points="2781,-134.5 2642,-134.5 2642,-115.5 2781,-115.5 2781,-134.5"/>
<text text-anchor="middle" x="2711.5" y="-122.5" font-family="Helvetica,sans-Serif" font-size="10.00">user_built&#45;in_constants.h</text>
</a>
</g>
</g>
<!-- Node2&#45;&gt;Node24 -->
<g id="edge47_Node000002_Node000024" class="edge">
<title>Node2&#45;&gt;Node24</title>
<g id="a_edge47_Node000002_Node000024"><a xlink:title=" ">
<path fill="none" stroke="#63b8ff" d="M2670.92,-241.72C2677.01,-233.04 2686,-219.18 2691.5,-206 2699.92,-185.82 2705.41,-161.24 2708.47,-144.69"/>
<polygon fill="#63b8ff" stroke="#63b8ff" points="2711.95,-145.13 2710.21,-134.68 2705.05,-143.93 2711.95,-145.13"/>
</a>
</g>
</g>
<!-- Node41 -->
<g id="Node000041" class="node">
<title>Node41</title>
<g id="a_Node000041"><a xlink:title=" ">
<polygon fill="#e0e0e0" stroke="#999999" points="2683,-206 2552,-206 2552,-176 2683,-176 2683,-206"/>
<text text-anchor="start" x="2560" y="-194" font-family="Helvetica,sans-Serif" font-size="10.00">user_builtin_non_scalar</text>
<text text-anchor="middle" x="2617.5" y="-183" font-family="Helvetica,sans-Serif" font-size="10.00">_constants.h</text>
</a>
</g>
</g>
<!-- Node2&#45;&gt;Node41 -->
<g id="edge48_Node000002_Node000041" class="edge">
<title>Node2&#45;&gt;Node41</title>
<g id="a_edge48_Node000002_Node000041"><a xlink:title=" ">
<path fill="none" stroke="#63b8ff" d="M2657.56,-241.87C2651.72,-234.59 2643.09,-223.85 2635.34,-214.2"/>
<polygon fill="#63b8ff" stroke="#63b8ff" points="2637.83,-211.72 2628.84,-206.11 2632.37,-216.1 2637.83,-211.72"/>
</a>
</g>
</g>
<!-- Node4&#45;&gt;Node3 -->
<g id="edge5_Node000004_Node000003" class="edge">
<title>Node4&#45;&gt;Node3</title>
<g id="a_edge5_Node000004_Node000003"><a xlink:title=" ">
<path fill="none" stroke="#63b8ff" d="M1517.65,-189.24C1715.6,-185.58 2529.2,-168.85 2574.5,-140 2594.08,-127.53 2604.38,-101.81 2609.38,-84.11"/>
<polygon fill="#63b8ff" stroke="#63b8ff" points="2612.8,-84.87 2611.84,-74.32 2606.01,-83.16 2612.8,-84.87"/>
</a>
</g>
</g>
<!-- Node5 -->
<g id="Node000005" class="node">
<title>Node5</title>
<g id="a_Node000005"><a xlink:title=" ">
<polygon fill="#e0e0e0" stroke="#999999" points="2554.5,-74 2504.5,-74 2504.5,-55 2554.5,-55 2554.5,-74"/>
<text text-anchor="middle" x="2529.5" y="-62" font-family="Helvetica,sans-Serif" font-size="10.00">stdio.h</text>
</a>
</g>
</g>
<!-- Node4&#45;&gt;Node5 -->
<g id="edge4_Node000004_Node000005" class="edge">
<title>Node4&#45;&gt;Node5</title>
<g id="a_edge4_Node000004_Node000005"><a xlink:title=" ">
<path fill="none" stroke="#63b8ff" d="M1517.63,-189.65C1714.53,-187.86 2520.04,-178.19 2556.5,-140 2571.87,-123.9 2557.03,-98.39 2544.02,-81.8"/>
<polygon fill="#63b8ff" stroke="#63b8ff" points="2546.64,-79.48 2537.56,-74.03 2541.26,-83.96 2546.64,-79.48"/>
</a>
</g>
</g>
<!-- Node6 -->
<g id="Node000006" class="node">
<title>Node6</title>
<g id="a_Node000006"><a xlink:href="device__headers_8h.html" target="_top" xlink:title=" ">
<polygon fill="white" stroke="#666666" points="646.5,-74 544.5,-74 544.5,-55 646.5,-55 646.5,-74"/>
<text text-anchor="middle" x="595.5" y="-62" font-family="Helvetica,sans-Serif" font-size="10.00">device_headers.h</text>
</a>
</g>
</g>
<!-- Node4&#45;&gt;Node6 -->
<g id="edge6_Node000004_Node000006" class="edge">
<title>Node4&#45;&gt;Node6</title>
<g id="a_edge6_Node000004_Node000006"><a xlink:title=" ">
<path fill="none" stroke="#63b8ff" d="M1431.26,-189.83C1223.11,-188.79 332.65,-181.89 292.5,-140 283.27,-130.37 283.78,-120.09 292.5,-110 294.47,-107.72 446.06,-86.29 534.04,-74.02"/>
<polygon fill="#63b8ff" stroke="#63b8ff" points="534.76,-77.45 544.18,-72.61 533.79,-70.52 534.76,-77.45"/>
</a>
</g>
</g>
<!-- Node9 -->
<g id="Node000009" class="node">
<title>Node9</title>
<g id="a_Node000009"><a xlink:title=" ">
<polygon fill="#e0e0e0" stroke="#999999" points="95,-74 0,-74 0,-55 95,-55 95,-74"/>
<text text-anchor="middle" x="47.5" y="-62" font-family="Helvetica,sans-Serif" font-size="10.00">builtin_enums.h</text>
</a>
</g>
</g>
<!-- Node4&#45;&gt;Node9 -->
<g id="edge9_Node000004_Node000009" class="edge">
<title>Node4&#45;&gt;Node9</title>
<g id="a_edge9_Node000004_Node000009"><a xlink:title=" ">
<path fill="none" stroke="#63b8ff" d="M1431.15,-189.71C1217.91,-188.12 285.56,-178.94 162.5,-140 123.83,-127.76 85.65,-98.78 64.47,-80.78"/>
<polygon fill="#63b8ff" stroke="#63b8ff" points="66.57,-77.97 56.73,-74.04 61.97,-83.25 66.57,-77.97"/>
</a>
</g>
</g>
<!-- Node10 -->
<g id="Node000010" class="node">
<title>Node10</title>
<g id="a_Node000010"><a xlink:href="datatypes_8h.html" target="_top" xlink:title=" ">
<polygon fill="white" stroke="#666666" points="245.5,-134.5 171.5,-134.5 171.5,-115.5 245.5,-115.5 245.5,-134.5"/>
<text text-anchor="middle" x="208.5" y="-122.5" font-family="Helvetica,sans-Serif" font-size="10.00">datatypes.h</text>
</a>
</g>
</g>
<!-- Node4&#45;&gt;Node10 -->
<g id="edge10_Node000004_Node000010" class="edge">
<title>Node4&#45;&gt;Node10</title>
<g id="a_edge10_Node000004_Node000010"><a xlink:title=" ">
<path fill="none" stroke="#63b8ff" d="M1431.37,-189.54C1243.09,-187.31 492.35,-176.27 259.5,-140 254.76,-139.26 249.83,-138.24 244.99,-137.09"/>
<polygon fill="#63b8ff" stroke="#63b8ff" points="245.81,-133.68 235.25,-134.57 244.05,-140.46 245.81,-133.68"/>
</a>
</g>
</g>
<!-- Node18 -->
<g id="Node000018" class="node">
<title>Node18</title>
<g id="a_Node000018"><a xlink:href="errchk_8h.html" target="_top" xlink:title="Brief info.">
<polygon fill="#fff0f0" stroke="red" points="2547.5,-134.5 2491.5,-134.5 2491.5,-115.5 2547.5,-115.5 2547.5,-134.5"/>
<text text-anchor="middle" x="2519.5" y="-122.5" font-family="Helvetica,sans-Serif" font-size="10.00">errchk.h</text>
</a>
</g>
</g>
<!-- Node4&#45;&gt;Node18 -->
<g id="edge22_Node000004_Node000018" class="edge">
<title>Node4&#45;&gt;Node18</title>
<g id="a_edge22_Node000004_Node000018"><a xlink:title=" ">
<path fill="none" stroke="#63b8ff" d="M1517.5,-189.65C1685,-188 2293.82,-179.36 2482.5,-140 2485.18,-139.44 2487.92,-138.72 2490.65,-137.89"/>
<polygon fill="#63b8ff" stroke="#63b8ff" points="2491.94,-141.15 2500.25,-134.58 2489.66,-134.53 2491.94,-141.15"/>
</a>
</g>
</g>
<!-- Node22 -->
<g id="Node000022" class="node">
<title>Node22</title>
<g id="a_Node000022"><a xlink:title=" ">
<polygon fill="#e0e0e0" stroke="#999999" points="389,-134.5 302,-134.5 302,-115.5 389,-115.5 389,-134.5"/>
<text text-anchor="middle" x="345.5" y="-122.5" font-family="Helvetica,sans-Serif" font-size="10.00">user_defines.h</text>
</a>
</g>
</g>
<!-- Node4&#45;&gt;Node22 -->
<g id="edge28_Node000004_Node000022" class="edge">
<title>Node4&#45;&gt;Node22</title>
<g id="a_edge28_Node000004_Node000022"><a xlink:title=" ">
<path fill="none" stroke="#63b8ff" d="M1431.41,-189.22C1256.98,-185.85 602.87,-171.38 398.5,-140 393.46,-139.23 388.2,-138.16 383.04,-136.96"/>
<polygon fill="#63b8ff" stroke="#63b8ff" points="383.87,-133.56 373.32,-134.53 382.17,-140.35 383.87,-133.56"/>
</a>
</g>
</g>
<!-- Node23 -->
<g id="Node000023" class="node">
<title>Node23</title>
<g id="a_Node000023"><a xlink:title=" ">
<polygon fill="#e0e0e0" stroke="#999999" points="493.5,-134.5 407.5,-134.5 407.5,-115.5 493.5,-115.5 493.5,-134.5"/>
<text text-anchor="middle" x="450.5" y="-122.5" font-family="Helvetica,sans-Serif" font-size="10.00">profiles_info.h</text>
</a>
</g>
</g>
<!-- Node4&#45;&gt;Node23 -->
<g id="edge29_Node000004_Node000023" class="edge">
<title>Node4&#45;&gt;Node23</title>
<g id="a_edge29_Node000004_Node000023"><a xlink:title=" ">
<path fill="none" stroke="#63b8ff" d="M1431.47,-189C1267.99,-185 685.45,-169 502.5,-140 497.68,-139.24 492.65,-138.2 487.72,-137.04"/>
<polygon fill="#63b8ff" stroke="#63b8ff" points="488.35,-133.58 477.79,-134.51 486.62,-140.37 488.35,-133.58"/>
</a>
</g>
</g>
<!-- Node4&#45;&gt;Node24 -->
<g id="edge30_Node000004_Node000024" class="edge">
<title>Node4&#45;&gt;Node24</title>
<g id="a_edge30_Node000004_Node000024"><a xlink:title=" ">
<path fill="none" stroke="#63b8ff" d="M1517.57,-190.02C1669.72,-189.69 2196.07,-185.14 2627.5,-140 2636.79,-139.03 2646.6,-137.68 2656.12,-136.21"/>
<polygon fill="#63b8ff" stroke="#63b8ff" points="2656.98,-139.62 2666.3,-134.57 2655.87,-132.71 2656.98,-139.62"/>
</a>
</g>
</g>
<!-- Node25 -->
<g id="Node000025" class="node">
<title>Node25</title>
<g id="a_Node000025"><a xlink:href="func__attributes_8h.html" target="_top" xlink:title=" ">
<polygon fill="white" stroke="#666666" points="611,-134.5 512,-134.5 512,-115.5 611,-115.5 611,-134.5"/>
<text text-anchor="middle" x="561.5" y="-122.5" font-family="Helvetica,sans-Serif" font-size="10.00">func_attributes.h</text>
</a>
</g>
</g>
<!-- Node4&#45;&gt;Node25 -->
<g id="edge31_Node000004_Node000025" class="edge">
<title>Node4&#45;&gt;Node25</title>
<g id="a_edge31_Node000004_Node000025"><a xlink:title=" ">
<path fill="none" stroke="#63b8ff" d="M1431.07,-190.19C1304.94,-190.14 927.99,-185.88 619.5,-140 613.93,-139.17 608.11,-138.06 602.39,-136.83"/>
<polygon fill="#63b8ff" stroke="#63b8ff" points="602.83,-133.34 592.3,-134.52 601.27,-140.16 602.83,-133.34"/>
</a>
</g>
</g>
<!-- Node26 -->
<g id="Node000026" class="node">
<title>Node26</title>
<g id="a_Node000026"><a xlink:title=" ">
<polygon fill="#e0e0e0" stroke="#999999" points="754,-134.5 629,-134.5 629,-115.5 754,-115.5 754,-134.5"/>
<text text-anchor="middle" x="691.5" y="-122.5" font-family="Helvetica,sans-Serif" font-size="10.00">user_input_typedefs.h</text>
</a>
</g>
</g>
<!-- Node4&#45;&gt;Node26 -->
<g id="edge32_Node000004_Node000026" class="edge">
<title>Node4&#45;&gt;Node26</title>
<g id="a_edge32_Node000004_Node000026"><a xlink:title=" ">
<path fill="none" stroke="#63b8ff" d="M1431.37,-188.84C1320.14,-185.45 1014.61,-173.58 762.5,-140 755.22,-139.03 747.57,-137.77 740.09,-136.41"/>
<polygon fill="#63b8ff" stroke="#63b8ff" points="740.52,-132.93 730.05,-134.51 739.22,-139.81 740.52,-132.93"/>
</a>
</g>
</g>
<!-- Node27 -->
<g id="Node000027" class="node">
<title>Node27</title>
<g id="a_Node000027"><a xlink:title=" ">
<polygon fill="#e0e0e0" stroke="#999999" points="855,-134.5 772,-134.5 772,-115.5 855,-115.5 855,-134.5"/>
<text text-anchor="middle" x="813.5" y="-122.5" font-family="Helvetica,sans-Serif" font-size="10.00">output_decl.h</text>
</a>
</g>
</g>
<!-- Node4&#45;&gt;Node27 -->
<g id="edge33_Node000004_Node000027" class="edge">
<title>Node4&#45;&gt;Node27</title>
<g id="a_edge33_Node000004_Node000027"><a xlink:title=" ">
<path fill="none" stroke="#63b8ff" d="M1431.25,-189.21C1330.92,-186.79 1074.82,-177.15 864.5,-140 860,-139.21 855.33,-138.19 850.72,-137.07"/>
<polygon fill="#63b8ff" stroke="#63b8ff" points="851.37,-133.63 840.81,-134.5 849.61,-140.4 851.37,-133.63"/>
</a>
</g>
</g>
<!-- Node28 -->
<g id="Node000028" class="node">
<title>Node28</title>
<g id="a_Node000028"><a xlink:title=" ">
<polygon fill="#e0e0e0" stroke="#999999" points="989.5,-134.5 873.5,-134.5 873.5,-115.5 989.5,-115.5 989.5,-134.5"/>
<text text-anchor="middle" x="931.5" y="-122.5" font-family="Helvetica,sans-Serif" font-size="10.00">comp_loaded_decl.h</text>
</a>
</g>
</g>
<!-- Node4&#45;&gt;Node28 -->
<g id="edge34_Node000004_Node000028" class="edge">
<title>Node4&#45;&gt;Node28</title>
<g id="a_edge34_Node000004_Node000028"><a xlink:title=" ">
<path fill="none" stroke="#63b8ff" d="M1431.32,-186.94C1347.52,-180.67 1157.15,-164.84 998.5,-140 992.18,-139.01 985.56,-137.82 979.04,-136.55"/>
<polygon fill="#63b8ff" stroke="#63b8ff" points="979.43,-133.06 968.94,-134.52 978.05,-139.92 979.43,-133.06"/>
</a>
</g>
</g>
<!-- Node29 -->
<g id="Node000029" class="node">
<title>Node29</title>
<g id="a_Node000029"><a xlink:title=" ">
<polygon fill="#e0e0e0" stroke="#999999" points="1085.5,-134.5 1007.5,-134.5 1007.5,-115.5 1085.5,-115.5 1085.5,-134.5"/>
<text text-anchor="middle" x="1046.5" y="-122.5" font-family="Helvetica,sans-Serif" font-size="10.00">comp_decl.h</text>
</a>
</g>
</g>
<!-- Node4&#45;&gt;Node29 -->
<g id="edge35_Node000004_Node000029" class="edge">
<title>Node4&#45;&gt;Node29</title>
<g id="a_edge35_Node000004_Node000029"><a xlink:title=" ">
<path fill="none" stroke="#63b8ff" d="M1431.4,-186.49C1360.55,-180.25 1215.29,-165.41 1094.5,-140 1090.64,-139.19 1086.65,-138.23 1082.68,-137.19"/>
<polygon fill="#63b8ff" stroke="#63b8ff" points="1083.55,-133.8 1072.98,-134.51 1081.68,-140.54 1083.55,-133.8"/>
</a>
</g>
</g>
<!-- Node30 -->
<g id="Node000030" class="node">
<title>Node30</title>
<g id="a_Node000030"><a xlink:title=" ">
<polygon fill="#e0e0e0" stroke="#999999" points="1211.5,-134.5 1103.5,-134.5 1103.5,-115.5 1211.5,-115.5 1211.5,-134.5"/>
<text text-anchor="middle" x="1157.5" y="-122.5" font-family="Helvetica,sans-Serif" font-size="10.00">info_loaded_decl.h</text>
</a>
</g>
</g>
<!-- Node4&#45;&gt;Node30 -->
<g id="edge36_Node000004_Node000030" class="edge">
<title>Node4&#45;&gt;Node30</title>
<g id="a_edge36_Node000004_Node000030"><a xlink:title=" ">
<path fill="none" stroke="#63b8ff" d="M1431.29,-181.83C1380.7,-172.18 1294.4,-155.48 1220.5,-140 1215.49,-138.95 1210.26,-137.83 1205.05,-136.69"/>
<polygon fill="#63b8ff" stroke="#63b8ff" points="1205.63,-133.24 1195.11,-134.52 1204.13,-140.08 1205.63,-133.24"/>
</a>
</g>
</g>
<!-- Node31 -->
<g id="Node000031" class="node">
<title>Node31</title>
<g id="a_Node000031"><a xlink:title=" ">
<polygon fill="#e0e0e0" stroke="#999999" points="1369.5,-134.5 1229.5,-134.5 1229.5,-115.5 1369.5,-115.5 1369.5,-134.5"/>
<text text-anchor="middle" x="1299.5" y="-122.5" font-family="Helvetica,sans-Serif" font-size="10.00">device_mesh_info_decl.h</text>
</a>
</g>
</g>
<!-- Node4&#45;&gt;Node31 -->
<g id="edge37_Node000004_Node000031" class="edge">
<title>Node4&#45;&gt;Node31</title>
<g id="a_edge37_Node000004_Node000031"><a xlink:title=" ">
<path fill="none" stroke="#63b8ff" d="M1450.9,-181.37C1420.41,-170.22 1367.18,-150.75 1332.65,-138.12"/>
<polygon fill="#63b8ff" stroke="#63b8ff" points="1333.6,-134.74 1323.01,-134.6 1331.2,-141.32 1333.6,-134.74"/>
</a>
</g>
</g>
<!-- Node32 -->
<g id="Node000032" class="node">
<title>Node32</title>
<g id="a_Node000032"><a xlink:title=" ">
<polygon fill="#e0e0e0" stroke="#999999" points="1465,-134.5 1388,-134.5 1388,-115.5 1465,-115.5 1465,-134.5"/>
<text text-anchor="middle" x="1426.5" y="-122.5" font-family="Helvetica,sans-Serif" font-size="10.00">array_decl.h</text>
</a>
</g>
</g>
<!-- Node4&#45;&gt;Node32 -->
<g id="edge38_Node000004_Node000032" class="edge">
<title>Node4&#45;&gt;Node32</title>
<g id="a_edge38_Node000004_Node000032"><a xlink:title=" ">
<path fill="none" stroke="#63b8ff" d="M1468.03,-181.37C1460.7,-171.59 1448.57,-155.42 1439.31,-143.08"/>
<polygon fill="#63b8ff" stroke="#63b8ff" points="1441.98,-140.81 1433.18,-134.91 1436.38,-145.01 1441.98,-140.81"/>
</a>
</g>
</g>
<!-- Node33 -->
<g id="Node000033" class="node">
<title>Node33</title>
<g id="a_Node000033"><a xlink:title=" ">
<polygon fill="#e0e0e0" stroke="#999999" points="1559.5,-134.5 1483.5,-134.5 1483.5,-115.5 1559.5,-115.5 1559.5,-134.5"/>
<text text-anchor="middle" x="1521.5" y="-122.5" font-family="Helvetica,sans-Serif" font-size="10.00">input_decl.h</text>
</a>
</g>
</g>
<!-- Node4&#45;&gt;Node33 -->
<g id="edge39_Node000004_Node000033" class="edge">
<title>Node4&#45;&gt;Node33</title>
<g id="a_edge39_Node000004_Node000033"><a xlink:title=" ">
<path fill="none" stroke="#63b8ff" d="M1480.84,-181.37C1488.02,-171.59 1499.89,-155.42 1508.96,-143.08"/>
<polygon fill="#63b8ff" stroke="#63b8ff" points="1511.86,-145.04 1514.96,-134.91 1506.22,-140.89 1511.86,-145.04"/>
</a>
</g>
</g>
<!-- Node34 -->
<g id="Node000034" class="node">
<title>Node34</title>
<g id="a_Node000034"><a xlink:href="ac__helpers_8h.html" target="_top" xlink:title=" ">
<polygon fill="white" stroke="#666666" points="1655.5,-134.5 1577.5,-134.5 1577.5,-115.5 1655.5,-115.5 1655.5,-134.5"/>
<text text-anchor="middle" x="1616.5" y="-122.5" font-family="Helvetica,sans-Serif" font-size="10.00">ac_helpers.h</text>
</a>
</g>
</g>
<!-- Node4&#45;&gt;Node34 -->
<g id="edge40_Node000004_Node000034" class="edge">
<title>Node4&#45;&gt;Node34</title>
<g id="a_edge40_Node000004_Node000034"><a xlink:title=" ">
<path fill="none" stroke="#63b8ff" d="M1493.65,-181.37C1517.89,-170.44 1559.87,-151.52 1587.91,-138.88"/>
<polygon fill="#63b8ff" stroke="#63b8ff" points="1589.52,-142 1597.2,-134.7 1586.64,-135.62 1589.52,-142"/>
</a>
</g>
</g>
<!-- Node35 -->
<g id="Node000035" class="node">
<title>Node35</title>
<g id="a_Node000035"><a xlink:title=" ">
<polygon fill="#e0e0e0" stroke="#999999" points="1791.5,-140 1673.5,-140 1673.5,-110 1791.5,-110 1791.5,-140"/>
<text text-anchor="start" x="1681.5" y="-128" font-family="Helvetica,sans-Serif" font-size="10.00">scalar_reduce_buffer</text>
<text text-anchor="middle" x="1732.5" y="-117" font-family="Helvetica,sans-Serif" font-size="10.00">_defs.h</text>
</a>
</g>
</g>
<!-- Node4&#45;&gt;Node35 -->
<g id="edge41_Node000004_Node000035" class="edge">
<title>Node4&#45;&gt;Node35</title>
<g id="a_edge41_Node000004_Node000035"><a xlink:title=" ">
<path fill="none" stroke="#63b8ff" d="M1509.03,-181.44C1549.06,-171.5 1615.97,-154.91 1666.16,-142.46"/>
<polygon fill="#63b8ff" stroke="#63b8ff" points="1667.1,-145.83 1675.96,-140.02 1665.41,-139.04 1667.1,-145.83"/>
</a>
</g>
</g>
<!-- Node36 -->
<g id="Node000036" class="node">
<title>Node36</title>
<g id="a_Node000036"><a xlink:title=" ">
<polygon fill="#e0e0e0" stroke="#999999" points="1933,-140 1810,-140 1810,-110 1933,-110 1933,-140"/>
<text text-anchor="start" x="1818" y="-128" font-family="Helvetica,sans-Serif" font-size="10.00">scalar_reduce_buffers</text>
<text text-anchor="middle" x="1871.5" y="-117" font-family="Helvetica,sans-Serif" font-size="10.00">_in_vba.h</text>
</a>
</g>
</g>
<!-- Node4&#45;&gt;Node36 -->
<g id="edge42_Node000004_Node000036" class="edge">
<title>Node4&#45;&gt;Node36</title>
<g id="a_edge42_Node000004_Node000036"><a xlink:title=" ">
<path fill="none" stroke="#63b8ff" d="M1517.58,-183.99C1578.16,-175.4 1692.23,-158.76 1799.89,-140.06"/>
<polygon fill="#63b8ff" stroke="#63b8ff" points="1800.71,-143.47 1809.96,-138.3 1799.5,-136.57 1800.71,-143.47"/>
</a>
</g>
</g>
<!-- Node37 -->
<g id="Node000037" class="node">
<title>Node37</title>
<g id="a_Node000037"><a xlink:href="astaroth__analysis_8h.html" target="_top" xlink:title=" ">
<polygon fill="white" stroke="#666666" points="2063.5,-134.5 1951.5,-134.5 1951.5,-115.5 2063.5,-115.5 2063.5,-134.5"/>
<text text-anchor="middle" x="2007.5" y="-122.5" font-family="Helvetica,sans-Serif" font-size="10.00">astaroth_analysis.h</text>
</a>
</g>
</g>
<!-- Node4&#45;&gt;Node37 -->
<g id="edge43_Node000004_Node000037" class="edge">
<title>Node4&#45;&gt;Node37</title>
<g id="a_edge43_Node000004_Node000037"><a xlink:title=" ">
<path fill="none" stroke="#63b8ff" d="M1517.51,-186.88C1600.06,-180.55 1786.29,-164.7 1941.5,-140 1947.72,-139.01 1954.25,-137.82 1960.67,-136.55"/>
<polygon fill="#63b8ff" stroke="#63b8ff" points="1961.53,-139.95 1970.62,-134.52 1960.12,-133.09 1961.53,-139.95"/>
</a>
</g>
</g>
<!-- Node38 -->
<g id="Node000038" class="node">
<title>Node38</title>
<g id="a_Node000038"><a xlink:href="common__kernels_8h.html" target="_top" xlink:title=" ">
<polygon fill="white" stroke="#666666" points="2191,-134.5 2082,-134.5 2082,-115.5 2191,-115.5 2191,-134.5"/>
<text text-anchor="middle" x="2136.5" y="-122.5" font-family="Helvetica,sans-Serif" font-size="10.00">common_kernels.h</text>
</a>
</g>
</g>
<!-- Node4&#45;&gt;Node38 -->
<g id="edge44_Node000004_Node000038" class="edge">
<title>Node4&#45;&gt;Node38</title>
<g id="a_edge44_Node000004_Node000038"><a xlink:title=" ">
<path fill="none" stroke="#63b8ff" d="M1517.51,-188.35C1616.12,-184.15 1865.94,-171.09 2072.5,-140 2078.7,-139.07 2085.2,-137.89 2091.58,-136.61"/>
<polygon fill="#63b8ff" stroke="#63b8ff" points="2092.37,-140.02 2101.44,-134.54 2090.94,-133.17 2092.37,-140.02"/>
</a>
</g>
</g>
<!-- Node39 -->
<g id="Node000039" class="node">
<title>Node39</title>
<g id="a_Node000039"><a xlink:title=" ">
<polygon fill="#e0e0e0" stroke="#999999" points="2321.5,-134.5 2209.5,-134.5 2209.5,-115.5 2321.5,-115.5 2321.5,-134.5"/>
<text text-anchor="middle" x="2265.5" y="-122.5" font-family="Helvetica,sans-Serif" font-size="10.00">user_declarations.h</text>
</a>
</g>
</g>
<!-- Node4&#45;&gt;Node39 -->
<g id="edge45_Node000004_Node000039" class="edge">
<title>Node4&#45;&gt;Node39</title>
<g id="a_edge45_Node000004_Node000039"><a xlink:title=" ">
<path fill="none" stroke="#63b8ff" d="M1517.62,-189.13C1630.26,-186.41 1942.41,-175.95 2199.5,-140 2206.12,-139.07 2213.08,-137.86 2219.88,-136.54"/>
<polygon fill="#63b8ff" stroke="#63b8ff" points="2220.59,-139.97 2229.7,-134.55 2219.2,-133.11 2220.59,-139.97"/>
</a>
</g>
</g>
<!-- Node40 -->
<g id="Node000040" class="node">
<title>Node40</title>
<g id="a_Node000040"><a xlink:title=" ">
<polygon fill="#e0e0e0" stroke="#999999" points="2473.5,-140 2339.5,-140 2339.5,-110 2473.5,-110 2473.5,-140"/>
<text text-anchor="start" x="2347.5" y="-128" font-family="Helvetica,sans-Serif" font-size="10.00">load_and_store_uniform</text>
<text text-anchor="middle" x="2406.5" y="-117" font-family="Helvetica,sans-Serif" font-size="10.00">_header.h</text>
</a>
</g>
</g>
<!-- Node4&#45;&gt;Node40 -->
<g id="edge46_Node000004_Node000040" class="edge">
<title>Node4&#45;&gt;Node40</title>
<g id="a_edge46_Node000004_Node000040"><a xlink:title=" ">
<path fill="none" stroke="#63b8ff" d="M1517.87,-189.36C1642.5,-187.12 2012.45,-177.67 2329.13,-140.06"/>
<polygon fill="#63b8ff" stroke="#63b8ff" points="2329.92,-143.49 2339.43,-138.82 2329.09,-136.54 2329.92,-143.49"/>
</a>
</g>
</g>
<!-- Node7 -->
<g id="Node000007" class="node">
<title>Node7</title>
<g id="a_Node000007"><a xlink:title=" ">
<polygon fill="#e0e0e0" stroke="#999999" points="360,-19 247,-19 247,0 360,0 360,-19"/>
<text text-anchor="middle" x="303.5" y="-7" font-family="Helvetica,sans-Serif" font-size="10.00">cuda_runtime_api.h</text>
</a>
</g>
</g>
<!-- Node6&#45;&gt;Node7 -->
<g id="edge7_Node000006_Node000007" class="edge">
<title>Node6&#45;&gt;Node7</title>
<g id="a_edge7_Node000006_Node000007"><a xlink:title=" ">
<path fill="none" stroke="#63b8ff" d="M548.59,-54.98C497.44,-45.7 415.58,-30.84 360.7,-20.88"/>
<polygon fill="#63b8ff" stroke="#63b8ff" points="361.25,-17.42 350.78,-19.08 360,-24.31 361.25,-17.42"/>
</a>
</g>
</g>
<!-- Node8 -->
<g id="Node000008" class="node">
<title>Node8</title>
<g id="a_Node000008"><a xlink:title=" ">
<polygon fill="#e0e0e0" stroke="#999999" points="633.5,-19 557.5,-19 557.5,0 633.5,0 633.5,-19"/>
<text text-anchor="middle" x="595.5" y="-7" font-family="Helvetica,sans-Serif" font-size="10.00">cuda_fp16.h</text>
</a>
</g>
</g>
<!-- Node6&#45;&gt;Node8 -->
<g id="edge8_Node000006_Node000008" class="edge">
<title>Node6&#45;&gt;Node8</title>
<g id="a_edge8_Node000006_Node000008"><a xlink:title=" ">
<path fill="none" stroke="#63b8ff" d="M595.5,-54.75C595.5,-47.8 595.5,-37.85 595.5,-29.13"/>
<polygon fill="#63b8ff" stroke="#63b8ff" points="599,-29.09 595.5,-19.09 592,-29.09 599,-29.09"/>
</a>
</g>
</g>
<!-- Node10&#45;&gt;Node6 -->
<g id="edge13_Node000010_Node000006" class="edge">
<title>Node10&#45;&gt;Node6</title>
<g id="a_edge13_Node000010_Node000006"><a xlink:title=" ">
<path fill="none" stroke="#63b8ff" d="M236.93,-115.46C244.24,-113.47 252.12,-111.49 259.5,-110 262.85,-109.32 438.2,-86.2 534.21,-73.56"/>
<polygon fill="#63b8ff" stroke="#63b8ff" points="534.92,-77 544.38,-72.23 534.01,-70.06 534.92,-77"/>
</a>
</g>
</g>
<!-- Node10&#45;&gt;Node7 -->
<g id="edge15_Node000010_Node000007" class="edge">
<title>Node10&#45;&gt;Node7</title>
<g id="a_edge15_Node000010_Node000007"><a xlink:title=" ">
<path fill="none" stroke="#63b8ff" d="M189.3,-115.44C163.96,-102.94 124.53,-78.61 142.5,-55 154.27,-39.54 197.84,-28.07 236.69,-20.65"/>
<polygon fill="#63b8ff" stroke="#63b8ff" points="237.77,-24.01 246.97,-18.76 236.5,-17.13 237.77,-24.01"/>
</a>
</g>
</g>
<!-- Node10&#45;&gt;Node9 -->
<g id="edge17_Node000010_Node000009" class="edge">
<title>Node10&#45;&gt;Node9</title>
<g id="a_edge17_Node000010_Node000009"><a xlink:title=" ">
<path fill="none" stroke="#63b8ff" d="M185.09,-115.49C157.55,-105.49 111.63,-88.8 80.49,-77.49"/>
<polygon fill="#63b8ff" stroke="#63b8ff" points="81.53,-74.14 70.94,-74.02 79.14,-80.72 81.53,-74.14"/>
</a>
</g>
</g>
<!-- Node11 -->
<g id="Node000011" class="node">
<title>Node11</title>
<g id="a_Node000011"><a xlink:title=" ">
<polygon fill="#e0e0e0" stroke="#999999" points="199,-74 152,-74 152,-55 199,-55 199,-74"/>
<text text-anchor="middle" x="175.5" y="-62" font-family="Helvetica,sans-Serif" font-size="10.00">float.h</text>
</a>
</g>
</g>
<!-- Node10&#45;&gt;Node11 -->
<g id="edge11_Node000010_Node000011" class="edge">
<title>Node10&#45;&gt;Node11</title>
<g id="a_edge11_Node000010_Node000011"><a xlink:title=" ">
<path fill="none" stroke="#63b8ff" d="M203.63,-115.37C198.85,-106.9 191.43,-93.74 185.41,-83.07"/>
<polygon fill="#63b8ff" stroke="#63b8ff" points="188.35,-81.16 180.39,-74.17 182.25,-84.6 188.35,-81.16"/>
</a>
</g>
</g>
<!-- Node12 -->
<g id="Node000012" class="node">
<title>Node12</title>
<g id="a_Node000012"><a xlink:title=" ">
<polygon fill="#e0e0e0" stroke="#999999" points="268,-74 217,-74 217,-55 268,-55 268,-74"/>
<text text-anchor="middle" x="242.5" y="-62" font-family="Helvetica,sans-Serif" font-size="10.00">math.h</text>
</a>
</g>
</g>
<!-- Node10&#45;&gt;Node12 -->
<g id="edge12_Node000010_Node000012" class="edge">
<title>Node10&#45;&gt;Node12</title>
<g id="a_edge12_Node000010_Node000012"><a xlink:title=" ">
<path fill="none" stroke="#63b8ff" d="M213.52,-115.37C218.44,-106.9 226.09,-93.74 232.29,-83.07"/>
<polygon fill="#63b8ff" stroke="#63b8ff" points="235.46,-84.57 237.46,-74.17 229.41,-81.05 235.46,-84.57"/>
</a>
</g>
</g>
<!-- Node13 -->
<g id="Node000013" class="node">
<title>Node13</title>
<g id="a_Node000013"><a xlink:title=" ">
<polygon fill="#e0e0e0" stroke="#999999" points="375,-74 286,-74 286,-55 375,-55 375,-74"/>
<text text-anchor="middle" x="330.5" y="-62" font-family="Helvetica,sans-Serif" font-size="10.00">vector_types.h</text>
</a>
</g>
</g>
<!-- Node10&#45;&gt;Node13 -->
<g id="edge14_Node000010_Node000013" class="edge">
<title>Node10&#45;&gt;Node13</title>
<g id="a_edge14_Node000010_Node000013"><a xlink:title=" ">
<path fill="none" stroke="#63b8ff" d="M226.24,-115.49C246.57,-105.75 280.11,-89.66 303.64,-78.38"/>
<polygon fill="#63b8ff" stroke="#63b8ff" points="305.24,-81.5 312.74,-74.02 302.21,-75.18 305.24,-81.5"/>
</a>
</g>
</g>
<!-- Node14 -->
<g id="Node000014" class="node">
<title>Node14</title>
<g id="a_Node000014"><a xlink:href="acreal_8h.html" target="_top" xlink:title=" ">
<polygon fill="white" stroke="#666666" points="1107.5,-19 1051.5,-19 1051.5,0 1107.5,0 1107.5,-19"/>
<text text-anchor="middle" x="1079.5" y="-7" font-family="Helvetica,sans-Serif" font-size="10.00">acreal.h</text>
</a>
</g>
</g>
<!-- Node10&#45;&gt;Node14 -->
<g id="edge16_Node000010_Node000014" class="edge">
<title>Node10&#45;&gt;Node14</title>
<g id="a_edge16_Node000010_Node000014"><a xlink:title=" ">
<path fill="none" stroke="#63b8ff" d="M237.22,-115.48C244.45,-113.51 252.23,-111.55 259.5,-110 363.72,-87.86 394.78,-105.69 496.5,-74 514.91,-68.26 516.9,-60.1 535.5,-55 631.13,-28.79 933.97,-15.69 1041.31,-11.79"/>
<polygon fill="#63b8ff" stroke="#63b8ff" points="1041.5,-15.28 1051.37,-11.43 1041.25,-8.29 1041.5,-15.28"/>
</a>
</g>
</g>
<!-- Node15 -->
<g id="Node000015" class="node">
<title>Node15</title>
<g id="a_Node000015"><a xlink:title=" ">
<polygon fill="#e0e0e0" stroke="#999999" points="488,-74 393,-74 393,-55 488,-55 488,-74"/>
<text text-anchor="middle" x="440.5" y="-62" font-family="Helvetica,sans-Serif" font-size="10.00">user_typedefs.h</text>
</a>
</g>
</g>
<!-- Node10&#45;&gt;Node15 -->
<g id="edge18_Node000010_Node000015" class="edge">
<title>Node10&#45;&gt;Node15</title>
<g id="a_edge18_Node000010_Node000015"><a xlink:title=" ">
<path fill="none" stroke="#63b8ff" d="M239.21,-115.43C245.89,-113.6 252.92,-111.71 259.5,-110 305.3,-98.09 357.84,-85.26 394.48,-76.45"/>
<polygon fill="#63b8ff" stroke="#63b8ff" points="395.46,-79.82 404.37,-74.08 393.83,-73.01 395.46,-79.82"/>
</a>
</g>
</g>
<!-- Node16 -->
<g id="Node000016" class="node">
<title>Node16</title>
<g id="a_Node000016"><a xlink:href="host__datatypes_8h.html" target="_top" xlink:title=" ">
<polygon fill="white" stroke="#666666" points="1267,-74 1166,-74 1166,-55 1267,-55 1267,-74"/>
<text text-anchor="middle" x="1216.5" y="-62" font-family="Helvetica,sans-Serif" font-size="10.00">host_datatypes.h</text>
</a>
</g>
</g>
<!-- Node10&#45;&gt;Node16 -->
<g id="edge19_Node000010_Node000016" class="edge">
<title>Node10&#45;&gt;Node16</title>
<g id="a_edge19_Node000010_Node000016"><a xlink:title=" ">
<path fill="none" stroke="#63b8ff" d="M245.59,-116.86C260.16,-114.3 277.06,-111.65 292.5,-110 616.48,-75.32 1007.28,-67.66 1155.51,-65.97"/>
<polygon fill="#63b8ff" stroke="#63b8ff" points="1155.8,-69.47 1165.76,-65.86 1155.72,-62.47 1155.8,-69.47"/>
</a>
</g>
</g>
<!-- Node16&#45;&gt;Node14 -->
<g id="edge20_Node000016_Node000014" class="edge">
<title>Node16&#45;&gt;Node14</title>
<g id="a_edge20_Node000016_Node000014"><a xlink:title=" ">
<path fill="none" stroke="#63b8ff" d="M1194.49,-54.98C1172.05,-46.3 1137.02,-32.75 1111.51,-22.88"/>
<polygon fill="#63b8ff" stroke="#63b8ff" points="1112.5,-19.51 1101.91,-19.17 1109.98,-26.04 1112.5,-19.51"/>
</a>
</g>
</g>
<!-- Node17 -->
<g id="Node000017" class="node">
<title>Node17</title>
<g id="a_Node000017"><a xlink:title=" ">
<polygon fill="#e0e0e0" stroke="#999999" points="1381.5,-19 1325.5,-19 1325.5,0 1381.5,0 1381.5,-19"/>
<text text-anchor="middle" x="1353.5" y="-7" font-family="Helvetica,sans-Serif" font-size="10.00">stddef.h</text>
</a>
</g>
</g>
<!-- Node16&#45;&gt;Node17 -->
<g id="edge21_Node000016_Node000017" class="edge">
<title>Node16&#45;&gt;Node17</title>
<g id="a_edge21_Node000016_Node000017"><a xlink:title=" ">
<path fill="none" stroke="#63b8ff" d="M1238.51,-54.98C1260.95,-46.3 1295.98,-32.75 1321.49,-22.88"/>
<polygon fill="#63b8ff" stroke="#63b8ff" points="1323.02,-26.04 1331.09,-19.17 1320.5,-19.51 1323.02,-26.04"/>
</a>
</g>
</g>
<!-- Node18&#45;&gt;Node3 -->
<g id="edge25_Node000018_Node000003" class="edge">
<title>Node18&#45;&gt;Node3</title>
<g id="a_edge25_Node000018_Node000003"><a xlink:title=" ">
<path fill="none" stroke="#63b8ff" d="M2533.37,-115.37C2548.5,-105.95 2572.96,-90.73 2590.88,-79.58"/>
<polygon fill="#63b8ff" stroke="#63b8ff" points="2592.93,-82.42 2599.57,-74.17 2589.23,-76.48 2592.93,-82.42"/>
</a>
</g>
</g>
<!-- Node18&#45;&gt;Node5 -->
<g id="edge26_Node000018_Node000005" class="edge">
<title>Node18&#45;&gt;Node5</title>
<g id="a_edge26_Node000018_Node000005"><a xlink:title=" ">
<path fill="none" stroke="#63b8ff" d="M2520.98,-115.37C2522.38,-107.16 2524.54,-94.54 2526.33,-84.05"/>
<polygon fill="#63b8ff" stroke="#63b8ff" points="2529.78,-84.61 2528.02,-74.17 2522.88,-83.43 2529.78,-84.61"/>
</a>
</g>
</g>
<!-- Node18&#45;&gt;Node6 -->
<g id="edge27_Node000018_Node000006" class="edge">
<title>Node18&#45;&gt;Node6</title>
<g id="a_edge27_Node000018_Node000006"><a xlink:title=" ">
<path fill="none" stroke="#63b8ff" d="M2500.66,-115.47C2494.94,-113.27 2488.57,-111.18 2482.5,-110 2391.02,-92.15 971.39,-70.88 656.89,-66.37"/>
<polygon fill="#63b8ff" stroke="#63b8ff" points="656.65,-62.86 646.6,-66.22 656.55,-69.86 656.65,-62.86"/>
</a>
</g>
</g>
<!-- Node18&#45;&gt;Node16 -->
<g id="edge24_Node000018_Node000016" class="edge">
<title>Node18&#45;&gt;Node16</title>
<g id="a_edge24_Node000018_Node000016"><a xlink:title=" ">
<path fill="none" stroke="#63b8ff" d="M2500.27,-115.36C2494.65,-113.22 2488.43,-111.19 2482.5,-110 2363.86,-86.14 1513.38,-70.41 1277.2,-66.47"/>
<polygon fill="#63b8ff" stroke="#63b8ff" points="1277.13,-62.97 1267.08,-66.3 1277.02,-69.97 1277.13,-62.97"/>
</a>
</g>
</g>
<!-- Node18&#45;&gt;Node17 -->
<g id="edge23_Node000018_Node000017" class="edge">
<title>Node18&#45;&gt;Node17</title>
<g id="a_edge23_Node000018_Node000017"><a xlink:title=" ">
<path fill="none" stroke="#63b8ff" d="M2499.84,-115.42C2494.32,-113.33 2488.26,-111.32 2482.5,-110 2063.32,-14.14 1537.1,-9.43 1392.04,-10.11"/>
<polygon fill="#63b8ff" stroke="#63b8ff" points="1391.85,-6.61 1381.87,-10.17 1391.89,-13.61 1391.85,-6.61"/>
</a>
</g>
</g>
<!-- Node45 -->
<g id="Node000045" class="node">
<title>Node45</title>
<g id="a_Node000045"><a xlink:title=" ">
<polygon fill="#e0e0e0" stroke="#999999" points="3011,-206 2892,-206 2892,-176 3011,-176 3011,-206"/>
<text text-anchor="start" x="2900" y="-194" font-family="Helvetica,sans-Serif" font-size="10.00">device_load_uniform</text>
<text text-anchor="middle" x="2951.5" y="-183" font-family="Helvetica,sans-Serif" font-size="10.00">_decl.h</text>
</a>
</g>
</g>
<!-- Node44&#45;&gt;Node45 -->
<g id="edge52_Node000044_Node000045" class="edge">
<title>Node44&#45;&gt;Node45</title>
<g id="a_edge52_Node000044_Node000045"><a xlink:title=" ">
<path fill="none" stroke="#63b8ff" d="M2996.68,-241.87C2989.95,-234.44 2979.96,-223.42 2971.09,-213.62"/>
<polygon fill="#63b8ff" stroke="#63b8ff" points="2973.6,-211.18 2964.29,-206.11 2968.41,-215.88 2973.6,-211.18"/>
</a>
</g>
</g>
<!-- Node46 -->
<g id="Node000046" class="node">
<title>Node46</title>
<g id="a_Node000046"><a xlink:title=" ">
<polygon fill="#e0e0e0" stroke="#999999" points="3151.5,-206 3029.5,-206 3029.5,-176 3151.5,-176 3151.5,-206"/>
<text text-anchor="start" x="3037.5" y="-194" font-family="Helvetica,sans-Serif" font-size="10.00">device_store_uniform</text>
<text text-anchor="middle" x="3090.5" y="-183" font-family="Helvetica,sans-Serif" font-size="10.00">_decl.h</text>
</a>
</g>
</g>
<!-- Node44&#45;&gt;Node46 -->
<g id="edge53_Node000044_Node000046" class="edge">
<title>Node44&#45;&gt;Node46</title>
<g id="a_edge53_Node000044_Node000046"><a xlink:title=" ">
<path fill="none" stroke="#63b8ff" d="M3017.19,-241.87C3028.75,-234 3046.26,-222.09 3061.27,-211.89"/>
<polygon fill="#63b8ff" stroke="#63b8ff" points="3063.45,-214.63 3069.75,-206.11 3059.51,-208.85 3063.45,-214.63"/>
</a>
</g>
</g>
</g>
</svg>

<g id="navigator" transform="translate(0 0)" fill="#404254">
  <rect fill="#f2f5e9" fill-opacity="0.5" stroke="#606060" stroke-width=".5" x="0" y="0" width="60" height="60"/>
  <use id="zoomplus" xlink:href="#zoomPlus" x="17" y="9" onmousedown="handleZoom(evt,'in')"/>
  <use id="zoomminus" xlink:href="#zoomMin" x="42" y="9" onmousedown="handleZoom(evt,'out')"/>
  <use id="reset" xlink:href="#resetDef" x="30" y="36" onmousedown="handleReset()"/>
   <use id="arrowup" xlink:href="#arrowUp" x="0" y="0" onmousedown="handlePan(0,-1)"/>
  <use id="arrowright" xlink:href="#arrowRight" x="0" y="0" onmousedown="handlePan(1,0)"/>
  <use id="arrowdown" xlink:href="#arrowDown" x="0" y="0" onmousedown="handlePan(0,1)"/>
  <use id="arrowleft" xlink:href="#arrowLeft" x="0" y="0" onmousedown="handlePan(-1,0)"/>
</g>
<svg viewBox="0 0 15 15" width="100%" height="30px" preserveAspectRatio="xMaxYMin meet">
 <g id="arrow_out" transform="scale(0.3 0.3)">
  <a xlink:href="astaroth_8h__incl_org.svg" target="_base">
   <rect id="button" ry="5" rx="5" y="6" x="6" height="38" width="38"
        fill="#f2f5e9" fill-opacity="0.5" stroke="#606060" stroke-width="1.0"/>
   <path id="arrow"
     d="M 11.500037,31.436501 C 11.940474,20.09759 22.043105,11.32322 32.158766,21.979434 L 37.068811,17.246167 C 37.068811,17.246167 37.088388,32 37.088388,32 L 22.160133,31.978069 C 22.160133,31.978069 26.997745,27.140456 26.997745,27.140456 C 18.528582,18.264221 13.291696,25.230495 11.500037,31.436501 z"
     style="fill:#404040;"/>
  </a>
 </g>
</svg>

<style type='text/css'>
<![CDATA[
[data-mouse-over-selected='false'] { opacity: 0.7; }
[data-mouse-over-selected='true']  { opacity: 1.0; }
]]>
</style>
<script type="application/ecmascript"><![CDATA[
document.addEventListener('DOMContentLoaded', (event) => {
  highlightEdges();
  highlightAdjacentNodes();
});
]]></script>
</svg>
