<?xml version="1.0" encoding="UTF-8" standalone="no"?>
<!DOCTYPE svg PUBLIC "-//W3C//DTD SVG 1.1//EN"
 "http://www.w3.org/Graphics/SVG/1.1/DTD/svg11.dtd">
<!-- Generated by graphviz version 2.43.0 (0)
 -->
<!-- Title: include/astaroth_forcing.h Pages: 1 -->
<!--zoomable 258 -->

<svg id="main" version="1.1" xmlns="http://www.w3.org/2000/svg" xmlns:xlink="http://www.w3.org/1999/xlink" xml:space="preserve" onload="init(evt)">
<style type="text/css"><![CDATA[
.node, .edge {opacity: 0.7;}
.node.selected, .edge.selected {opacity: 1;}
.edge:hover path { stroke: red; }
.edge:hover polygon { stroke: red; fill: red; }
]]></style>

<defs>
  <circle id="rim" cx="0" cy="0" r="7"/>
  <circle id="rim2" cx="0" cy="0" r="3.5"/>
  <g id="zoomPlus">
    <use xlink:href="#rim" fill="#404040"><set attributeName="fill" to="#808080" begin="zoomplus.mouseover" end="zoomplus.mouseout"/></use>
    <path d="M-4,0h8M0,-4v8" fill="none" stroke="white" stroke-width="1.5" pointer-events="none"/>
  </g>
  <g id="zoomMin">
    <use xlink:href="#rim" fill="#404040"><set attributeName="fill" to="#808080" begin="zoomminus.mouseover" end="zoomminus.mouseout"/></use>
    <path d="M-4,0h8" fill="none" stroke="white" stroke-width="1.5" pointer-events="none"/>
  </g>
  <g id="arrowUp" transform="translate(30 24)">
    <use xlink:href="#rim"/>
    <path pointer-events="none" fill="none" stroke="white" stroke-width="1.5" d="M0,-3.0v7 M-2.5,-0.5L0,-3.0L2.5,-0.5"/>
  </g>
  <g id="arrowRight" transform="rotate(90) translate(36 -43)">
    <use xlink:href="#rim"/>
    <path pointer-events="none" fill="none" stroke="white" stroke-width="1.5" d="M0,-3.0v7 M-2.5,-0.5L0,-3.0L2.5,-0.5"/>
  </g>
  <g id="arrowDown" transform="rotate(180) translate(-30 -48)">
    <use xlink:href="#rim"/>
    <path pointer-events="none" fill="none" stroke="white" stroke-width="1.5" d="M0,-3.0v7 M-2.5,-0.5L0,-3.0L2.5,-0.5"/>
  </g>
  <g id="arrowLeft" transform="rotate(270) translate(-36 17)">
    <use xlink:href="#rim"/>
    <path pointer-events="none" fill="none" stroke="white" stroke-width="1.5" d="M0,-3.0v7 M-2.5,-0.5L0,-3.0L2.5,-0.5"/>
  </g>
  <g id="resetDef">
    <use xlink:href="#rim2" fill="#404040"><set attributeName="fill" to="#808080" begin="reset.mouseover" end="reset.mouseout"/></use>
  </g>
</defs>
<script type="application/ecmascript">
var viewWidth = 3368;
var viewHeight = 258;
var sectionId = 'dynsection-0';
</script>
<script type="application/ecmascript" xlink:href="svg.min.js"/>
<svg id="graph" class="graph">
<g id="viewport">
<title>include/astaroth_forcing.h</title>
<!-- Node1 -->
<g id="Node000001" class="node">
<title>Node1</title>
<g id="a_Node000001"><a xlink:title=" ">
<polygon fill="#999999" stroke="#666666" points="1846,-250 1703,-250 1703,-231 1846,-231 1846,-250"/>
<text text-anchor="middle" x="1774.5" y="-238" font-family="Helvetica,sans-Serif" font-size="10.00">include/astaroth_forcing.h</text>
</a>
</g>
</g>
<!-- Node2 -->
<g id="Node000002" class="node">
<title>Node2</title>
<g id="a_Node000002"><a xlink:href="acc__runtime_8h.html" target="_top" xlink:title=" ">
<polygon fill="white" stroke="#666666" points="1817.5,-195 1731.5,-195 1731.5,-176 1817.5,-176 1817.5,-195"/>
<text text-anchor="middle" x="1774.5" y="-183" font-family="Helvetica,sans-Serif" font-size="10.00">acc_runtime.h</text>
</a>
</g>
</g>
<!-- Node1&#45;&gt;Node2 -->
<g id="edge1_Node000001_Node000002" class="edge">
<title>Node1&#45;&gt;Node2</title>
<g id="a_edge1_Node000001_Node000002"><a xlink:title=" ">
<path fill="none" stroke="#63b8ff" d="M1774.5,-230.75C1774.5,-223.8 1774.5,-213.85 1774.5,-205.13"/>
<polygon fill="#63b8ff" stroke="#63b8ff" points="1778,-205.09 1774.5,-195.09 1771,-205.09 1778,-205.09"/>
</a>
</g>
</g>
<!-- Node3 -->
<g id="Node000003" class="node">
<title>Node3</title>
<g id="a_Node000003"><a xlink:title=" ">
<polygon fill="#e0e0e0" stroke="#999999" points="835.5,-74 785.5,-74 785.5,-55 835.5,-55 835.5,-74"/>
<text text-anchor="middle" x="810.5" y="-62" font-family="Helvetica,sans-Serif" font-size="10.00">stdio.h</text>
</a>
</g>
</g>
<!-- Node2&#45;&gt;Node3 -->
<g id="edge2_Node000002_Node000003" class="edge">
<title>Node2&#45;&gt;Node3</title>
<g id="a_edge2_Node000002_Node000003"><a xlink:title=" ">
<path fill="none" stroke="#63b8ff" d="M1731.48,-183.79C1552.28,-180.67 872.78,-167.08 836.5,-140 819.21,-127.09 813.35,-101.87 811.41,-84.37"/>
<polygon fill="#63b8ff" stroke="#63b8ff" points="814.88,-83.89 810.61,-74.19 807.9,-84.43 814.88,-83.89"/>
</a>
</g>
</g>
<!-- Node4 -->
<g id="Node000004" class="node">
<title>Node4</title>
<g id="a_Node000004"><a xlink:title=" ">
<polygon fill="#e0e0e0" stroke="#999999" points="915.5,-74 853.5,-74 853.5,-55 915.5,-55 915.5,-74"/>
<text text-anchor="middle" x="884.5" y="-62" font-family="Helvetica,sans-Serif" font-size="10.00">stdbool.h</text>
</a>
</g>
</g>
<!-- Node2&#45;&gt;Node4 -->
<g id="edge3_Node000002_Node000004" class="edge">
<title>Node2&#45;&gt;Node4</title>
<g id="a_edge3_Node000002_Node000004"><a xlink:title=" ">
<path fill="none" stroke="#63b8ff" d="M1731.42,-184.07C1552.81,-182.06 878.35,-172.36 847.5,-140 831.32,-123.02 850.56,-97.6 866.8,-81.28"/>
<polygon fill="#63b8ff" stroke="#63b8ff" points="869.53,-83.51 874.35,-74.08 864.7,-78.44 869.53,-83.51"/>
</a>
</g>
</g>
<!-- Node5 -->
<g id="Node000005" class="node">
<title>Node5</title>
<g id="a_Node000005"><a xlink:href="device__headers_8h.html" target="_top" xlink:title=" ">
<polygon fill="white" stroke="#666666" points="647.5,-74 545.5,-74 545.5,-55 647.5,-55 647.5,-74"/>
<text text-anchor="middle" x="596.5" y="-62" font-family="Helvetica,sans-Serif" font-size="10.00">device_headers.h</text>
</a>
</g>
</g>
<!-- Node2&#45;&gt;Node5 -->
<g id="edge4_Node000002_Node000005" class="edge">
<title>Node2&#45;&gt;Node5</title>
<g id="a_edge4_Node000002_Node000005"><a xlink:title=" ">
<path fill="none" stroke="#63b8ff" d="M1731.34,-184.13C1568.71,-182.47 993.15,-174.27 813.5,-140 743.56,-126.66 665.48,-95.62 624.74,-78.11"/>
<polygon fill="#63b8ff" stroke="#63b8ff" points="626.02,-74.85 615.45,-74.07 623.22,-81.27 626.02,-74.85"/>
</a>
</g>
</g>
<!-- Node8 -->
<g id="Node000008" class="node">
<title>Node8</title>
<g id="a_Node000008"><a xlink:title=" ">
<polygon fill="#e0e0e0" stroke="#999999" points="527,-74 432,-74 432,-55 527,-55 527,-74"/>
<text text-anchor="middle" x="479.5" y="-62" font-family="Helvetica,sans-Serif" font-size="10.00">builtin_enums.h</text>
</a>
</g>
</g>
<!-- Node2&#45;&gt;Node8 -->
<g id="edge7_Node000002_Node000008" class="edge">
<title>Node2&#45;&gt;Node8</title>
<g id="a_edge7_Node000002_Node000008"><a xlink:title=" ">
<path fill="none" stroke="#63b8ff" d="M1731.43,-184.27C1557.81,-183.12 909.11,-176.43 707.5,-140 634.09,-126.74 551.78,-95.56 508.96,-78.03"/>
<polygon fill="#63b8ff" stroke="#63b8ff" points="510.03,-74.68 499.45,-74.09 507.36,-81.15 510.03,-74.68"/>
</a>
</g>
</g>
<!-- Node9 -->
<g id="Node000009" class="node">
<title>Node9</title>
<g id="a_Node000009"><a xlink:href="datatypes_8h.html" target="_top" xlink:title=" ">
<polygon fill="white" stroke="#666666" points="404.5,-134.5 330.5,-134.5 330.5,-115.5 404.5,-115.5 404.5,-134.5"/>
<text text-anchor="middle" x="367.5" y="-122.5" font-family="Helvetica,sans-Serif" font-size="10.00">datatypes.h</text>
</a>
</g>
</g>
<!-- Node2&#45;&gt;Node9 -->
<g id="edge8_Node000002_Node000009" class="edge">
<title>Node2&#45;&gt;Node9</title>
<g id="a_edge8_Node000002_Node000009"><a xlink:title=" ">
<path fill="none" stroke="#63b8ff" d="M1731.4,-183.62C1573.05,-180.23 1008.39,-166.88 543.5,-140 499.77,-137.47 450.03,-133.4 414.6,-130.3"/>
<polygon fill="#63b8ff" stroke="#63b8ff" points="414.82,-126.81 404.55,-129.42 414.2,-133.78 414.82,-126.81"/>
</a>
</g>
</g>
<!-- Node17 -->
<g id="Node000017" class="node">
<title>Node17</title>
<g id="a_Node000017"><a xlink:href="errchk_8h.html" target="_top" xlink:title="Brief info.">
<polygon fill="white" stroke="#666666" points="912.5,-134.5 856.5,-134.5 856.5,-115.5 912.5,-115.5 912.5,-134.5"/>
<text text-anchor="middle" x="884.5" y="-122.5" font-family="Helvetica,sans-Serif" font-size="10.00">errchk.h</text>
</a>
</g>
</g>
<!-- Node2&#45;&gt;Node17 -->
<g id="edge20_Node000002_Node000017" class="edge">
<title>Node2&#45;&gt;Node17</title>
<g id="a_edge20_Node000002_Node000017"><a xlink:title=" ">
<path fill="none" stroke="#63b8ff" d="M1731.39,-183.96C1580.91,-181.79 1079.65,-172.28 922.5,-140 919.66,-139.42 916.75,-138.66 913.86,-137.79"/>
<polygon fill="#63b8ff" stroke="#63b8ff" points="914.88,-134.45 904.29,-134.57 912.64,-141.08 914.88,-134.45"/>
</a>
</g>
</g>
<!-- Node21 -->
<g id="Node000021" class="node">
<title>Node21</title>
<g id="a_Node000021"><a xlink:title=" ">
<polygon fill="#e0e0e0" stroke="#999999" points="1018,-134.5 931,-134.5 931,-115.5 1018,-115.5 1018,-134.5"/>
<text text-anchor="middle" x="974.5" y="-122.5" font-family="Helvetica,sans-Serif" font-size="10.00">user_defines.h</text>
</a>
</g>
</g>
<!-- Node2&#45;&gt;Node21 -->
<g id="edge29_Node000002_Node000021" class="edge">
<title>Node2&#45;&gt;Node21</title>
<g id="a_edge29_Node000002_Node000021"><a xlink:title=" ">
<path fill="none" stroke="#63b8ff" d="M1731.23,-184.91C1615.99,-185.37 1292.4,-182.44 1027.5,-140 1022.65,-139.22 1017.59,-138.19 1012.62,-137.03"/>
<polygon fill="#63b8ff" stroke="#63b8ff" points="1013.16,-133.56 1002.61,-134.54 1011.46,-140.35 1013.16,-133.56"/>
</a>
</g>
</g>
<!-- Node22 -->
<g id="Node000022" class="node">
<title>Node22</title>
<g id="a_Node000022"><a xlink:title=" ">
<polygon fill="#e0e0e0" stroke="#999999" points="1122.5,-134.5 1036.5,-134.5 1036.5,-115.5 1122.5,-115.5 1122.5,-134.5"/>
<text text-anchor="middle" x="1079.5" y="-122.5" font-family="Helvetica,sans-Serif" font-size="10.00">profiles_info.h</text>
</a>
</g>
</g>
<!-- Node2&#45;&gt;Node22 -->
<g id="edge30_Node000002_Node000022" class="edge">
<title>Node2&#45;&gt;Node22</title>
<g id="a_edge30_Node000002_Node000022"><a xlink:title=" ">
<path fill="none" stroke="#63b8ff" d="M1731.35,-184.31C1627.5,-183.26 1355.72,-176.88 1132.5,-140 1127.71,-139.21 1122.71,-138.17 1117.8,-137.03"/>
<polygon fill="#63b8ff" stroke="#63b8ff" points="1118.44,-133.58 1107.89,-134.56 1116.75,-140.37 1118.44,-133.58"/>
</a>
</g>
</g>
<!-- Node23 -->
<g id="Node000023" class="node">
<title>Node23</title>
<g id="a_Node000023"><a xlink:title=" ">
<polygon fill="#e0e0e0" stroke="#999999" points="1280,-134.5 1141,-134.5 1141,-115.5 1280,-115.5 1280,-134.5"/>
<text text-anchor="middle" x="1210.5" y="-122.5" font-family="Helvetica,sans-Serif" font-size="10.00">user_built&#45;in_constants.h</text>
</a>
</g>
</g>
<!-- Node2&#45;&gt;Node23 -->
<g id="edge31_Node000002_Node000023" class="edge">
<title>Node2&#45;&gt;Node23</title>
<g id="a_edge31_Node000002_Node000023"><a xlink:title=" ">
<path fill="none" stroke="#63b8ff" d="M1731.22,-181.75C1646.27,-176.09 1451.87,-161.8 1289.5,-140 1281.45,-138.92 1272.97,-137.61 1264.68,-136.22"/>
<polygon fill="#63b8ff" stroke="#63b8ff" points="1265.14,-132.75 1254.69,-134.5 1263.95,-139.65 1265.14,-132.75"/>
</a>
</g>
</g>
<!-- Node24 -->
<g id="Node000024" class="node">
<title>Node24</title>
<g id="a_Node000024"><a xlink:href="func__attributes_8h.html" target="_top" xlink:title=" ">
<polygon fill="white" stroke="#666666" points="1397,-134.5 1298,-134.5 1298,-115.5 1397,-115.5 1397,-134.5"/>
<text text-anchor="middle" x="1347.5" y="-122.5" font-family="Helvetica,sans-Serif" font-size="10.00">func_attributes.h</text>
</a>
</g>
</g>
<!-- Node2&#45;&gt;Node24 -->
<g id="edge32_Node000002_Node000024" class="edge">
<title>Node2&#45;&gt;Node24</title>
<g id="a_edge32_Node000002_Node000024"><a xlink:title=" ">
<path fill="none" stroke="#63b8ff" d="M1731.49,-180.88C1662.56,-174.73 1523.23,-160.84 1406.5,-140 1401.32,-139.08 1395.92,-137.98 1390.57,-136.81"/>
<polygon fill="#63b8ff" stroke="#63b8ff" points="1390.97,-133.31 1380.44,-134.51 1389.42,-140.14 1390.97,-133.31"/>
</a>
</g>
</g>
<!-- Node25 -->
<g id="Node000025" class="node">
<title>Node25</title>
<g id="a_Node000025"><a xlink:title=" ">
<polygon fill="#e0e0e0" stroke="#999999" points="1540,-134.5 1415,-134.5 1415,-115.5 1540,-115.5 1540,-134.5"/>
<text text-anchor="middle" x="1477.5" y="-122.5" font-family="Helvetica,sans-Serif" font-size="10.00">user_input_typedefs.h</text>
</a>
</g>
</g>
<!-- Node2&#45;&gt;Node25 -->
<g id="edge33_Node000002_Node000025" class="edge">
<title>Node2&#45;&gt;Node25</title>
<g id="a_edge33_Node000002_Node000025"><a xlink:title=" ">
<path fill="none" stroke="#63b8ff" d="M1731.31,-175.99C1678.19,-165.53 1588.03,-147.77 1530.7,-136.48"/>
<polygon fill="#63b8ff" stroke="#63b8ff" points="1531.23,-133.02 1520.74,-134.52 1529.87,-139.88 1531.23,-133.02"/>
</a>
</g>
</g>
<!-- Node26 -->
<g id="Node000026" class="node">
<title>Node26</title>
<g id="a_Node000026"><a xlink:title=" ">
<polygon fill="#e0e0e0" stroke="#999999" points="1641,-134.5 1558,-134.5 1558,-115.5 1641,-115.5 1641,-134.5"/>
<text text-anchor="middle" x="1599.5" y="-122.5" font-family="Helvetica,sans-Serif" font-size="10.00">output_decl.h</text>
</a>
</g>
</g>
<!-- Node2&#45;&gt;Node26 -->
<g id="edge34_Node000002_Node000026" class="edge">
<title>Node2&#45;&gt;Node26</title>
<g id="a_edge34_Node000002_Node000026"><a xlink:title=" ">
<path fill="none" stroke="#63b8ff" d="M1749.05,-175.99C1718.86,-165.9 1668.34,-149.01 1634.48,-137.69"/>
<polygon fill="#63b8ff" stroke="#63b8ff" points="1635.57,-134.37 1624.98,-134.52 1633.35,-141.01 1635.57,-134.37"/>
</a>
</g>
</g>
<!-- Node27 -->
<g id="Node000027" class="node">
<title>Node27</title>
<g id="a_Node000027"><a xlink:title=" ">
<polygon fill="#e0e0e0" stroke="#999999" points="1775.5,-134.5 1659.5,-134.5 1659.5,-115.5 1775.5,-115.5 1775.5,-134.5"/>
<text text-anchor="middle" x="1717.5" y="-122.5" font-family="Helvetica,sans-Serif" font-size="10.00">comp_loaded_decl.h</text>
</a>
</g>
</g>
<!-- Node2&#45;&gt;Node27 -->
<g id="edge35_Node000002_Node000027" class="edge">
<title>Node2&#45;&gt;Node27</title>
<g id="a_edge35_Node000002_Node000027"><a xlink:title=" ">
<path fill="none" stroke="#63b8ff" d="M1766.09,-175.87C1757.42,-166.97 1743.7,-152.89 1733.04,-141.95"/>
<polygon fill="#63b8ff" stroke="#63b8ff" points="1735.43,-139.39 1725.95,-134.67 1730.42,-144.27 1735.43,-139.39"/>
</a>
</g>
</g>
<!-- Node28 -->
<g id="Node000028" class="node">
<title>Node28</title>
<g id="a_Node000028"><a xlink:title=" ">
<polygon fill="#e0e0e0" stroke="#999999" points="1871.5,-134.5 1793.5,-134.5 1793.5,-115.5 1871.5,-115.5 1871.5,-134.5"/>
<text text-anchor="middle" x="1832.5" y="-122.5" font-family="Helvetica,sans-Serif" font-size="10.00">comp_decl.h</text>
</a>
</g>
</g>
<!-- Node2&#45;&gt;Node28 -->
<g id="edge36_Node000002_Node000028" class="edge">
<title>Node2&#45;&gt;Node28</title>
<g id="a_edge36_Node000002_Node000028"><a xlink:title=" ">
<path fill="none" stroke="#63b8ff" d="M1783.06,-175.87C1791.88,-166.97 1805.84,-152.89 1816.68,-141.95"/>
<polygon fill="#63b8ff" stroke="#63b8ff" points="1819.35,-144.23 1823.91,-134.67 1814.38,-139.3 1819.35,-144.23"/>
</a>
</g>
</g>
<!-- Node29 -->
<g id="Node000029" class="node">
<title>Node29</title>
<g id="a_Node000029"><a xlink:title=" ">
<polygon fill="#e0e0e0" stroke="#999999" points="1997.5,-134.5 1889.5,-134.5 1889.5,-115.5 1997.5,-115.5 1997.5,-134.5"/>
<text text-anchor="middle" x="1943.5" y="-122.5" font-family="Helvetica,sans-Serif" font-size="10.00">info_loaded_decl.h</text>
</a>
</g>
</g>
<!-- Node2&#45;&gt;Node29 -->
<g id="edge37_Node000002_Node000029" class="edge">
<title>Node2&#45;&gt;Node29</title>
<g id="a_edge37_Node000002_Node000029"><a xlink:title=" ">
<path fill="none" stroke="#63b8ff" d="M1799.07,-175.99C1828.11,-165.94 1876.6,-149.16 1909.3,-137.84"/>
<polygon fill="#63b8ff" stroke="#63b8ff" points="1910.59,-141.1 1918.9,-134.52 1908.3,-134.48 1910.59,-141.1"/>
</a>
</g>
</g>
<!-- Node30 -->
<g id="Node000030" class="node">
<title>Node30</title>
<g id="a_Node000030"><a xlink:title=" ">
<polygon fill="#e0e0e0" stroke="#999999" points="2155.5,-134.5 2015.5,-134.5 2015.5,-115.5 2155.5,-115.5 2155.5,-134.5"/>
<text text-anchor="middle" x="2085.5" y="-122.5" font-family="Helvetica,sans-Serif" font-size="10.00">device_mesh_info_decl.h</text>
</a>
</g>
</g>
<!-- Node2&#45;&gt;Node30 -->
<g id="edge38_Node000002_Node000030" class="edge">
<title>Node2&#45;&gt;Node30</title>
<g id="a_edge38_Node000002_Node000030"><a xlink:title=" ">
<path fill="none" stroke="#63b8ff" d="M1817.74,-176.37C1873.12,-165.95 1969.18,-147.88 2029.93,-136.45"/>
<polygon fill="#63b8ff" stroke="#63b8ff" points="2030.92,-139.83 2040.1,-134.54 2029.63,-132.95 2030.92,-139.83"/>
</a>
</g>
</g>
<!-- Node31 -->
<g id="Node000031" class="node">
<title>Node31</title>
<g id="a_Node000031"><a xlink:title=" ">
<polygon fill="#e0e0e0" stroke="#999999" points="2251,-134.5 2174,-134.5 2174,-115.5 2251,-115.5 2251,-134.5"/>
<text text-anchor="middle" x="2212.5" y="-122.5" font-family="Helvetica,sans-Serif" font-size="10.00">array_decl.h</text>
</a>
</g>
</g>
<!-- Node2&#45;&gt;Node31 -->
<g id="edge39_Node000002_Node000031" class="edge">
<title>Node2&#45;&gt;Node31</title>
<g id="a_edge39_Node000002_Node000031"><a xlink:title=" ">
<path fill="none" stroke="#63b8ff" d="M1817.58,-181.99C1889.86,-177.24 2039.91,-165.09 2164.5,-140 2168.41,-139.21 2172.46,-138.26 2176.48,-137.22"/>
<polygon fill="#63b8ff" stroke="#63b8ff" points="2177.58,-140.55 2186.29,-134.52 2175.72,-133.8 2177.58,-140.55"/>
</a>
</g>
</g>
<!-- Node32 -->
<g id="Node000032" class="node">
<title>Node32</title>
<g id="a_Node000032"><a xlink:title=" ">
<polygon fill="#e0e0e0" stroke="#999999" points="2345.5,-134.5 2269.5,-134.5 2269.5,-115.5 2345.5,-115.5 2345.5,-134.5"/>
<text text-anchor="middle" x="2307.5" y="-122.5" font-family="Helvetica,sans-Serif" font-size="10.00">input_decl.h</text>
</a>
</g>
</g>
<!-- Node2&#45;&gt;Node32 -->
<g id="edge40_Node000002_Node000032" class="edge">
<title>Node2&#45;&gt;Node32</title>
<g id="a_edge40_Node000002_Node000032"><a xlink:title=" ">
<path fill="none" stroke="#63b8ff" d="M1817.81,-183.41C1903.22,-180.62 2099.1,-171.11 2260.5,-140 2264.23,-139.28 2268.09,-138.39 2271.92,-137.4"/>
<polygon fill="#63b8ff" stroke="#63b8ff" points="2273.17,-140.68 2281.87,-134.63 2271.3,-133.94 2273.17,-140.68"/>
</a>
</g>
</g>
<!-- Node33 -->
<g id="Node000033" class="node">
<title>Node33</title>
<g id="a_Node000033"><a xlink:href="ac__helpers_8h.html" target="_top" xlink:title=" ">
<polygon fill="white" stroke="#666666" points="2441.5,-134.5 2363.5,-134.5 2363.5,-115.5 2441.5,-115.5 2441.5,-134.5"/>
<text text-anchor="middle" x="2402.5" y="-122.5" font-family="Helvetica,sans-Serif" font-size="10.00">ac_helpers.h</text>
</a>
</g>
</g>
<!-- Node2&#45;&gt;Node33 -->
<g id="edge41_Node000002_Node000033" class="edge">
<title>Node2&#45;&gt;Node33</title>
<g id="a_edge41_Node000002_Node000033"><a xlink:title=" ">
<path fill="none" stroke="#63b8ff" d="M1817.82,-184.23C1914.77,-182.96 2156.29,-176.11 2354.5,-140 2358.63,-139.25 2362.92,-138.28 2367.15,-137.2"/>
<polygon fill="#63b8ff" stroke="#63b8ff" points="2368.11,-140.57 2376.83,-134.55 2366.26,-133.82 2368.11,-140.57"/>
</a>
</g>
</g>
<!-- Node34 -->
<g id="Node000034" class="node">
<title>Node34</title>
<g id="a_Node000034"><a xlink:title=" ">
<polygon fill="#e0e0e0" stroke="#999999" points="2577.5,-140 2459.5,-140 2459.5,-110 2577.5,-110 2577.5,-140"/>
<text text-anchor="start" x="2467.5" y="-128" font-family="Helvetica,sans-Serif" font-size="10.00">scalar_reduce_buffer</text>
<text text-anchor="middle" x="2518.5" y="-117" font-family="Helvetica,sans-Serif" font-size="10.00">_defs.h</text>
</a>
</g>
</g>
<!-- Node2&#45;&gt;Node34 -->
<g id="edge42_Node000002_Node000034" class="edge">
<title>Node2&#45;&gt;Node34</title>
<g id="a_edge42_Node000002_Node000034"><a xlink:title=" ">
<path fill="none" stroke="#63b8ff" d="M1817.81,-183.71C1923.87,-181.33 2205.19,-172.36 2449.12,-140.06"/>
<polygon fill="#63b8ff" stroke="#63b8ff" points="2449.8,-143.5 2459.24,-138.7 2448.87,-136.56 2449.8,-143.5"/>
</a>
</g>
</g>
<!-- Node35 -->
<g id="Node000035" class="node">
<title>Node35</title>
<g id="a_Node000035"><a xlink:title=" ">
<polygon fill="#e0e0e0" stroke="#999999" points="2719,-140 2596,-140 2596,-110 2719,-110 2719,-140"/>
<text text-anchor="start" x="2604" y="-128" font-family="Helvetica,sans-Serif" font-size="10.00">scalar_reduce_buffers</text>
<text text-anchor="middle" x="2657.5" y="-117" font-family="Helvetica,sans-Serif" font-size="10.00">_in_vba.h</text>
</a>
</g>
</g>
<!-- Node2&#45;&gt;Node35 -->
<g id="edge43_Node000002_Node000035" class="edge">
<title>Node2&#45;&gt;Node35</title>
<g id="a_edge43_Node000002_Node000035"><a xlink:title=" ">
<path fill="none" stroke="#63b8ff" d="M1817.82,-184.25C1938.12,-183.12 2286.48,-176.76 2585.46,-139.99"/>
<polygon fill="#63b8ff" stroke="#63b8ff" points="2586.14,-143.44 2595.63,-138.73 2585.27,-136.49 2586.14,-143.44"/>
</a>
</g>
</g>
<!-- Node36 -->
<g id="Node000036" class="node">
<title>Node36</title>
<g id="a_Node000036"><a xlink:href="astaroth__analysis_8h.html" target="_top" xlink:title=" ">
<polygon fill="white" stroke="#666666" points="2849.5,-134.5 2737.5,-134.5 2737.5,-115.5 2849.5,-115.5 2849.5,-134.5"/>
<text text-anchor="middle" x="2793.5" y="-122.5" font-family="Helvetica,sans-Serif" font-size="10.00">astaroth_analysis.h</text>
</a>
</g>
</g>
<!-- Node2&#45;&gt;Node36 -->
<g id="edge44_Node000002_Node000036" class="edge">
<title>Node2&#45;&gt;Node36</title>
<g id="a_edge44_Node000002_Node000036"><a xlink:title=" ">
<path fill="none" stroke="#63b8ff" d="M1817.51,-185.02C1952.43,-186.11 2379.11,-185.46 2728.5,-140 2735.19,-139.13 2742.22,-137.93 2749.07,-136.59"/>
<polygon fill="#63b8ff" stroke="#63b8ff" points="2749.85,-140 2758.94,-134.55 2748.44,-133.15 2749.85,-140"/>
</a>
</g>
</g>
<!-- Node37 -->
<g id="Node000037" class="node">
<title>Node37</title>
<g id="a_Node000037"><a xlink:href="func__define_8h.html" target="_top" xlink:title=" ">
<polygon fill="white" stroke="#666666" points="2949.5,-134.5 2867.5,-134.5 2867.5,-115.5 2949.5,-115.5 2949.5,-134.5"/>
<text text-anchor="middle" x="2908.5" y="-122.5" font-family="Helvetica,sans-Serif" font-size="10.00">func_define.h</text>
</a>
</g>
</g>
<!-- Node2&#45;&gt;Node37 -->
<g id="edge45_Node000002_Node000037" class="edge">
<title>Node2&#45;&gt;Node37</title>
<g id="a_edge45_Node000002_Node000037"><a xlink:title=" ">
<path fill="none" stroke="#63b8ff" d="M1817.62,-184.06C1992.94,-182.08 2652.7,-172.58 2858.5,-140 2863.03,-139.28 2867.73,-138.3 2872.36,-137.18"/>
<polygon fill="#63b8ff" stroke="#63b8ff" points="2873.5,-140.5 2882.29,-134.57 2871.72,-133.73 2873.5,-140.5"/>
</a>
</g>
</g>
<!-- Node38 -->
<g id="Node000038" class="node">
<title>Node38</title>
<g id="a_Node000038"><a xlink:href="common__kernels_8h.html" target="_top" xlink:title=" ">
<polygon fill="white" stroke="#666666" points="3077,-134.5 2968,-134.5 2968,-115.5 3077,-115.5 3077,-134.5"/>
<text text-anchor="middle" x="3022.5" y="-122.5" font-family="Helvetica,sans-Serif" font-size="10.00">common_kernels.h</text>
</a>
</g>
</g>
<!-- Node2&#45;&gt;Node38 -->
<g id="edge46_Node000002_Node000038" class="edge">
<title>Node2&#45;&gt;Node38</title>
<g id="a_edge46_Node000002_Node000038"><a xlink:title=" ">
<path fill="none" stroke="#63b8ff" d="M1817.73,-183.91C2003.05,-181.2 2731.23,-168.9 2958.5,-140 2965.17,-139.15 2972.17,-137.95 2979,-136.6"/>
<polygon fill="#63b8ff" stroke="#63b8ff" points="2979.75,-140.02 2988.82,-134.54 2978.31,-133.17 2979.75,-140.02"/>
</a>
</g>
</g>
<!-- Node39 -->
<g id="Node000039" class="node">
<title>Node39</title>
<g id="a_Node000039"><a xlink:title=" ">
<polygon fill="#e0e0e0" stroke="#999999" points="3207.5,-134.5 3095.5,-134.5 3095.5,-115.5 3207.5,-115.5 3207.5,-134.5"/>
<text text-anchor="middle" x="3151.5" y="-122.5" font-family="Helvetica,sans-Serif" font-size="10.00">user_declarations.h</text>
</a>
</g>
</g>
<!-- Node2&#45;&gt;Node39 -->
<g id="edge47_Node000002_Node000039" class="edge">
<title>Node2&#45;&gt;Node39</title>
<g id="a_edge47_Node000002_Node000039"><a xlink:title=" ">
<path fill="none" stroke="#63b8ff" d="M1817.67,-184.07C2015.03,-181.95 2832.61,-171.39 3086.5,-140 3093.27,-139.16 3100.39,-137.97 3107.32,-136.62"/>
<polygon fill="#63b8ff" stroke="#63b8ff" points="3108.2,-140.01 3117.29,-134.56 3106.79,-133.15 3108.2,-140.01"/>
</a>
</g>
</g>
<!-- Node40 -->
<g id="Node000040" class="node">
<title>Node40</title>
<g id="a_Node000040"><a xlink:title=" ">
<polygon fill="#e0e0e0" stroke="#999999" points="3359.5,-140 3225.5,-140 3225.5,-110 3359.5,-110 3359.5,-140"/>
<text text-anchor="start" x="3233.5" y="-128" font-family="Helvetica,sans-Serif" font-size="10.00">load_and_store_uniform</text>
<text text-anchor="middle" x="3292.5" y="-117" font-family="Helvetica,sans-Serif" font-size="10.00">_header.h</text>
</a>
</g>
</g>
<!-- Node2&#45;&gt;Node40 -->
<g id="edge48_Node000002_Node000040" class="edge">
<title>Node2&#45;&gt;Node40</title>
<g id="a_edge48_Node000002_Node000040"><a xlink:title=" ">
<path fill="none" stroke="#63b8ff" d="M1817.67,-184.05C2024.36,-181.76 2914.76,-170.35 3215.43,-139.96"/>
<polygon fill="#63b8ff" stroke="#63b8ff" points="3215.86,-143.44 3225.44,-138.92 3215.14,-136.48 3215.86,-143.44"/>
</a>
</g>
</g>
<!-- Node6 -->
<g id="Node000006" class="node">
<title>Node6</title>
<g id="a_Node000006"><a xlink:title=" ">
<polygon fill="#e0e0e0" stroke="#999999" points="323,-19 210,-19 210,0 323,0 323,-19"/>
<text text-anchor="middle" x="266.5" y="-7" font-family="Helvetica,sans-Serif" font-size="10.00">cuda_runtime_api.h</text>
</a>
</g>
</g>
<!-- Node5&#45;&gt;Node6 -->
<g id="edge5_Node000005_Node000006" class="edge">
<title>Node5&#45;&gt;Node6</title>
<g id="a_edge5_Node000005_Node000006"><a xlink:title=" ">
<path fill="none" stroke="#63b8ff" d="M545.3,-55.28C487.16,-45.94 392.28,-30.7 329.62,-20.64"/>
<polygon fill="#63b8ff" stroke="#63b8ff" points="329.89,-17.14 319.46,-19.01 328.78,-24.05 329.89,-17.14"/>
</a>
</g>
</g>
<!-- Node7 -->
<g id="Node000007" class="node">
<title>Node7</title>
<g id="a_Node000007"><a xlink:title=" ">
<polygon fill="#e0e0e0" stroke="#999999" points="634.5,-19 558.5,-19 558.5,0 634.5,0 634.5,-19"/>
<text text-anchor="middle" x="596.5" y="-7" font-family="Helvetica,sans-Serif" font-size="10.00">cuda_fp16.h</text>
</a>
</g>
</g>
<!-- Node5&#45;&gt;Node7 -->
<g id="edge6_Node000005_Node000007" class="edge">
<title>Node5&#45;&gt;Node7</title>
<g id="a_edge6_Node000005_Node000007"><a xlink:title=" ">
<path fill="none" stroke="#63b8ff" d="M596.5,-54.75C596.5,-47.8 596.5,-37.85 596.5,-29.13"/>
<polygon fill="#63b8ff" stroke="#63b8ff" points="600,-29.09 596.5,-19.09 593,-29.09 600,-29.09"/>
</a>
</g>
</g>
<!-- Node9&#45;&gt;Node5 -->
<g id="edge11_Node000009_Node000005" class="edge">
<title>Node9&#45;&gt;Node5</title>
<g id="a_edge11_Node000009_Node000005"><a xlink:title=" ">
<path fill="none" stroke="#63b8ff" d="M400.8,-115.49C441.08,-105.2 508.98,-87.86 553.27,-76.54"/>
<polygon fill="#63b8ff" stroke="#63b8ff" points="554.34,-79.88 563.16,-74.02 552.61,-73.1 554.34,-79.88"/>
</a>
</g>
</g>
<!-- Node9&#45;&gt;Node6 -->
<g id="edge13_Node000009_Node000006" class="edge">
<title>Node9&#45;&gt;Node6</title>
<g id="a_edge13_Node000009_Node000006"><a xlink:title=" ">
<path fill="none" stroke="#63b8ff" d="M330.06,-121.22C272.27,-116.06 165.6,-102.79 142.5,-74 121.11,-47.33 161.14,-30.76 201.29,-21.26"/>
<polygon fill="#63b8ff" stroke="#63b8ff" points="202.19,-24.64 211.19,-19.05 200.67,-17.81 202.19,-24.64"/>
</a>
</g>
</g>
<!-- Node9&#45;&gt;Node8 -->
<g id="edge15_Node000009_Node000008" class="edge">
<title>Node9&#45;&gt;Node8</title>
<g id="a_edge15_Node000009_Node000008"><a xlink:title=" ">
<path fill="none" stroke="#63b8ff" d="M384.03,-115.37C402.47,-105.73 432.54,-90.03 454.01,-78.81"/>
<polygon fill="#63b8ff" stroke="#63b8ff" points="455.66,-81.9 462.91,-74.17 452.42,-75.69 455.66,-81.9"/>
</a>
</g>
</g>
<!-- Node10 -->
<g id="Node000010" class="node">
<title>Node10</title>
<g id="a_Node000010"><a xlink:title=" ">
<polygon fill="#e0e0e0" stroke="#999999" points="199,-74 152,-74 152,-55 199,-55 199,-74"/>
<text text-anchor="middle" x="175.5" y="-62" font-family="Helvetica,sans-Serif" font-size="10.00">float.h</text>
</a>
</g>
</g>
<!-- Node9&#45;&gt;Node10 -->
<g id="edge9_Node000009_Node000010" class="edge">
<title>Node9&#45;&gt;Node10</title>
<g id="a_edge9_Node000009_Node000010"><a xlink:title=" ">
<path fill="none" stroke="#63b8ff" d="M339.58,-115.49C304.98,-104.95 246.06,-87 209.04,-75.72"/>
<polygon fill="#63b8ff" stroke="#63b8ff" points="209.8,-72.29 199.21,-72.73 207.76,-78.99 209.8,-72.29"/>
</a>
</g>
</g>
<!-- Node11 -->
<g id="Node000011" class="node">
<title>Node11</title>
<g id="a_Node000011"><a xlink:title=" ">
<polygon fill="#e0e0e0" stroke="#999999" points="268,-74 217,-74 217,-55 268,-55 268,-74"/>
<text text-anchor="middle" x="242.5" y="-62" font-family="Helvetica,sans-Serif" font-size="10.00">math.h</text>
</a>
</g>
</g>
<!-- Node9&#45;&gt;Node11 -->
<g id="edge10_Node000009_Node000011" class="edge">
<title>Node9&#45;&gt;Node11</title>
<g id="a_edge10_Node000009_Node000011"><a xlink:title=" ">
<path fill="none" stroke="#63b8ff" d="M349.32,-115.49C328.49,-105.75 294.13,-89.66 270.02,-78.38"/>
<polygon fill="#63b8ff" stroke="#63b8ff" points="271.24,-75.09 260.7,-74.02 268.27,-81.43 271.24,-75.09"/>
</a>
</g>
</g>
<!-- Node12 -->
<g id="Node000012" class="node">
<title>Node12</title>
<g id="a_Node000012"><a xlink:title=" ">
<polygon fill="#e0e0e0" stroke="#999999" points="375,-74 286,-74 286,-55 375,-55 375,-74"/>
<text text-anchor="middle" x="330.5" y="-62" font-family="Helvetica,sans-Serif" font-size="10.00">vector_types.h</text>
</a>
</g>
</g>
<!-- Node9&#45;&gt;Node12 -->
<g id="edge12_Node000009_Node000012" class="edge">
<title>Node9&#45;&gt;Node12</title>
<g id="a_edge12_Node000009_Node000012"><a xlink:title=" ">
<path fill="none" stroke="#63b8ff" d="M362.04,-115.37C356.63,-106.81 348.19,-93.47 341.4,-82.74"/>
<polygon fill="#63b8ff" stroke="#63b8ff" points="344.29,-80.75 335.98,-74.17 338.37,-84.49 344.29,-80.75"/>
</a>
</g>
</g>
<!-- Node13 -->
<g id="Node000013" class="node">
<title>Node13</title>
<g id="a_Node000013"><a xlink:href="acreal_8h.html" target="_top" xlink:title=" ">
<polygon fill="white" stroke="#666666" points="485.5,-19 429.5,-19 429.5,0 485.5,0 485.5,-19"/>
<text text-anchor="middle" x="457.5" y="-7" font-family="Helvetica,sans-Serif" font-size="10.00">acreal.h</text>
</a>
</g>
</g>
<!-- Node9&#45;&gt;Node13 -->
<g id="edge14_Node000009_Node000013" class="edge">
<title>Node9&#45;&gt;Node13</title>
<g id="a_edge14_Node000009_Node000013"><a xlink:title=" ">
<path fill="none" stroke="#63b8ff" d="M374.26,-115.47C389.12,-96.74 424.81,-51.72 444.29,-27.16"/>
<polygon fill="#63b8ff" stroke="#63b8ff" points="447.19,-29.14 450.66,-19.13 441.7,-24.79 447.19,-29.14"/>
</a>
</g>
</g>
<!-- Node14 -->
<g id="Node000014" class="node">
<title>Node14</title>
<g id="a_Node000014"><a xlink:title=" ">
<polygon fill="#e0e0e0" stroke="#999999" points="95,-74 0,-74 0,-55 95,-55 95,-74"/>
<text text-anchor="middle" x="47.5" y="-62" font-family="Helvetica,sans-Serif" font-size="10.00">user_typedefs.h</text>
</a>
</g>
</g>
<!-- Node9&#45;&gt;Node14 -->
<g id="edge16_Node000009_Node000014" class="edge">
<title>Node9&#45;&gt;Node14</title>
<g id="a_edge16_Node000009_Node000014"><a xlink:title=" ">
<path fill="none" stroke="#63b8ff" d="M330.48,-117.23C274.96,-107.08 169.7,-87.84 104.39,-75.9"/>
<polygon fill="#63b8ff" stroke="#63b8ff" points="104.73,-72.4 94.26,-74.05 103.47,-79.29 104.73,-72.4"/>
</a>
</g>
</g>
<!-- Node15 -->
<g id="Node000015" class="node">
<title>Node15</title>
<g id="a_Node000015"><a xlink:href="host__datatypes_8h.html" target="_top" xlink:title=" ">
<polygon fill="white" stroke="#666666" points="767,-74 666,-74 666,-55 767,-55 767,-74"/>
<text text-anchor="middle" x="716.5" y="-62" font-family="Helvetica,sans-Serif" font-size="10.00">host_datatypes.h</text>
</a>
</g>
</g>
<!-- Node9&#45;&gt;Node15 -->
<g id="edge17_Node000009_Node000015" class="edge">
<title>Node9&#45;&gt;Node15</title>
<g id="a_edge17_Node000009_Node000015"><a xlink:title=" ">
<path fill="none" stroke="#63b8ff" d="M404.52,-117.79C464.5,-107.74 583.5,-87.79 655.95,-75.65"/>
<polygon fill="#63b8ff" stroke="#63b8ff" points="656.57,-79.1 665.85,-73.99 655.41,-72.19 656.57,-79.1"/>
</a>
</g>
</g>
<!-- Node15&#45;&gt;Node13 -->
<g id="edge18_Node000015_Node000013" class="edge">
<title>Node15&#45;&gt;Node13</title>
<g id="a_edge18_Node000015_Node000013"><a xlink:title=" ">
<path fill="none" stroke="#63b8ff" d="M674.89,-54.98C625.46,-44.87 543.7,-28.14 495.78,-18.33"/>
<polygon fill="#63b8ff" stroke="#63b8ff" points="496.31,-14.87 485.81,-16.29 494.9,-21.73 496.31,-14.87"/>
</a>
</g>
</g>
<!-- Node16 -->
<g id="Node000016" class="node">
<title>Node16</title>
<g id="a_Node000016"><a xlink:title=" ">
<polygon fill="#e0e0e0" stroke="#999999" points="962.5,-19 906.5,-19 906.5,0 962.5,0 962.5,-19"/>
<text text-anchor="middle" x="934.5" y="-7" font-family="Helvetica,sans-Serif" font-size="10.00">stddef.h</text>
</a>
</g>
</g>
<!-- Node15&#45;&gt;Node16 -->
<g id="edge19_Node000015_Node000016" class="edge">
<title>Node15&#45;&gt;Node16</title>
<g id="a_edge19_Node000015_Node000016"><a xlink:title=" ">
<path fill="none" stroke="#63b8ff" d="M751.53,-54.98C791.25,-45.33 855.79,-29.64 896.64,-19.7"/>
<polygon fill="#63b8ff" stroke="#63b8ff" points="897.6,-23.07 906.49,-17.31 895.95,-16.27 897.6,-23.07"/>
</a>
</g>
</g>
<!-- Node17&#45;&gt;Node3 -->
<g id="edge25_Node000017_Node000003" class="edge">
<title>Node17&#45;&gt;Node3</title>
<g id="a_edge25_Node000017_Node000003"><a xlink:title=" ">
<path fill="none" stroke="#63b8ff" d="M873.58,-115.37C861.99,-106.21 843.47,-91.56 829.48,-80.51"/>
<polygon fill="#63b8ff" stroke="#63b8ff" points="831.48,-77.62 821.46,-74.17 827.14,-83.11 831.48,-77.62"/>
</a>
</g>
</g>
<!-- Node17&#45;&gt;Node4 -->
<g id="edge23_Node000017_Node000004" class="edge">
<title>Node17&#45;&gt;Node4</title>
<g id="a_edge23_Node000017_Node000004"><a xlink:title=" ">
<path fill="none" stroke="#63b8ff" d="M884.5,-115.37C884.5,-107.25 884.5,-94.81 884.5,-84.39"/>
<polygon fill="#63b8ff" stroke="#63b8ff" points="888,-84.17 884.5,-74.17 881,-84.17 888,-84.17"/>
</a>
</g>
</g>
<!-- Node17&#45;&gt;Node5 -->
<g id="edge28_Node000017_Node000005" class="edge">
<title>Node17&#45;&gt;Node5</title>
<g id="a_edge28_Node000017_Node000005"><a xlink:title=" ">
<path fill="none" stroke="#63b8ff" d="M856.36,-118.28C808.23,-108.51 709.4,-88.43 648.45,-76.05"/>
<polygon fill="#63b8ff" stroke="#63b8ff" points="649.13,-72.62 638.63,-74.06 647.74,-79.48 649.13,-72.62"/>
</a>
</g>
</g>
<!-- Node17&#45;&gt;Node15 -->
<g id="edge22_Node000017_Node000015" class="edge">
<title>Node17&#45;&gt;Node15</title>
<g id="a_edge22_Node000017_Node000015"><a xlink:title=" ">
<path fill="none" stroke="#63b8ff" d="M860.07,-115.49C831.21,-105.44 783,-88.66 750.5,-77.34"/>
<polygon fill="#63b8ff" stroke="#63b8ff" points="751.55,-74 740.96,-74.02 749.25,-80.61 751.55,-74"/>
</a>
</g>
</g>
<!-- Node17&#45;&gt;Node16 -->
<g id="edge21_Node000017_Node000016" class="edge">
<title>Node17&#45;&gt;Node16</title>
<g id="a_edge21_Node000017_Node000016"><a xlink:title=" ">
<path fill="none" stroke="#63b8ff" d="M905.58,-115.45C911.03,-113.46 916.93,-111.49 922.5,-110 968.46,-97.73 1102.82,-110.35 1133.5,-74 1178.66,-20.48 1042.49,-11.57 972.83,-10.42"/>
<polygon fill="#63b8ff" stroke="#63b8ff" points="972.7,-6.92 962.66,-10.3 972.62,-13.92 972.7,-6.92"/>
</a>
</g>
</g>
<!-- Node18 -->
<g id="Node000018" class="node">
<title>Node18</title>
<g id="a_Node000018"><a xlink:title=" ">
<polygon fill="#e0e0e0" stroke="#999999" points="987,-74 934,-74 934,-55 987,-55 987,-74"/>
<text text-anchor="middle" x="960.5" y="-62" font-family="Helvetica,sans-Serif" font-size="10.00">stdint.h</text>
</a>
</g>
</g>
<!-- Node17&#45;&gt;Node18 -->
<g id="edge24_Node000017_Node000018" class="edge">
<title>Node17&#45;&gt;Node18</title>
<g id="a_edge24_Node000017_Node000018"><a xlink:title=" ">
<path fill="none" stroke="#63b8ff" d="M895.71,-115.37C907.61,-106.21 926.64,-91.56 941.01,-80.51"/>
<polygon fill="#63b8ff" stroke="#63b8ff" points="943.45,-83.04 949.24,-74.17 939.18,-77.49 943.45,-83.04"/>
</a>
</g>
</g>
<!-- Node19 -->
<g id="Node000019" class="node">
<title>Node19</title>
<g id="a_Node000019"><a xlink:title=" ">
<polygon fill="#e0e0e0" stroke="#999999" points="1058,-74 1005,-74 1005,-55 1058,-55 1058,-74"/>
<text text-anchor="middle" x="1031.5" y="-62" font-family="Helvetica,sans-Serif" font-size="10.00">stdlib.h</text>
</a>
</g>
</g>
<!-- Node17&#45;&gt;Node19 -->
<g id="edge26_Node000017_Node000019" class="edge">
<title>Node17&#45;&gt;Node19</title>
<g id="a_edge26_Node000017_Node000019"><a xlink:title=" ">
<path fill="none" stroke="#63b8ff" d="M905.88,-115.49C930.81,-105.57 972.22,-89.09 1000.64,-77.78"/>
<polygon fill="#63b8ff" stroke="#63b8ff" points="1002.1,-80.97 1010.1,-74.02 999.51,-74.46 1002.1,-80.97"/>
</a>
</g>
</g>
<!-- Node20 -->
<g id="Node000020" class="node">
<title>Node20</title>
<g id="a_Node000020"><a xlink:title=" ">
<polygon fill="#e0e0e0" stroke="#999999" points="1124.5,-74 1076.5,-74 1076.5,-55 1124.5,-55 1124.5,-74"/>
<text text-anchor="middle" x="1100.5" y="-62" font-family="Helvetica,sans-Serif" font-size="10.00">time.h</text>
</a>
</g>
</g>
<!-- Node17&#45;&gt;Node20 -->
<g id="edge27_Node000017_Node000020" class="edge">
<title>Node17&#45;&gt;Node20</title>
<g id="a_edge27_Node000017_Node000020"><a xlink:title=" ">
<path fill="none" stroke="#63b8ff" d="M906.46,-115.44C911.68,-113.54 917.26,-111.61 922.5,-110 983,-91.41 1001.42,-90.34 1066.42,-74.23"/>
<polygon fill="#63b8ff" stroke="#63b8ff" points="1067.51,-77.57 1076.36,-71.74 1065.8,-70.78 1067.51,-77.57"/>
</a>
</g>
</g>
</g>
</svg>

<g id="navigator" transform="translate(0 0)" fill="#404254">
  <rect fill="#f2f5e9" fill-opacity="0.5" stroke="#606060" stroke-width=".5" x="0" y="0" width="60" height="60"/>
  <use id="zoomplus" xlink:href="#zoomPlus" x="17" y="9" onmousedown="handleZoom(evt,'in')"/>
  <use id="zoomminus" xlink:href="#zoomMin" x="42" y="9" onmousedown="handleZoom(evt,'out')"/>
  <use id="reset" xlink:href="#resetDef" x="30" y="36" onmousedown="handleReset()"/>
   <use id="arrowup" xlink:href="#arrowUp" x="0" y="0" onmousedown="handlePan(0,-1)"/>
  <use id="arrowright" xlink:href="#arrowRight" x="0" y="0" onmousedown="handlePan(1,0)"/>
  <use id="arrowdown" xlink:href="#arrowDown" x="0" y="0" onmousedown="handlePan(0,1)"/>
  <use id="arrowleft" xlink:href="#arrowLeft" x="0" y="0" onmousedown="handlePan(-1,0)"/>
</g>
<svg viewBox="0 0 15 15" width="100%" height="30px" preserveAspectRatio="xMaxYMin meet">
 <g id="arrow_out" transform="scale(0.3 0.3)">
  <a xlink:href="astaroth__forcing_8h__incl_org.svg" target="_base">
   <rect id="button" ry="5" rx="5" y="6" x="6" height="38" width="38"
        fill="#f2f5e9" fill-opacity="0.5" stroke="#606060" stroke-width="1.0"/>
   <path id="arrow"
     d="M 11.500037,31.436501 C 11.940474,20.09759 22.043105,11.32322 32.158766,21.979434 L 37.068811,17.246167 C 37.068811,17.246167 37.088388,32 37.088388,32 L 22.160133,31.978069 C 22.160133,31.978069 26.997745,27.140456 26.997745,27.140456 C 18.528582,18.264221 13.291696,25.230495 11.500037,31.436501 z"
     style="fill:#404040;"/>
  </a>
 </g>
</svg>

<style type='text/css'>
<![CDATA[
[data-mouse-over-selected='false'] { opacity: 0.7; }
[data-mouse-over-selected='true']  { opacity: 1.0; }
]]>
</style>
<script type="application/ecmascript"><![CDATA[
document.addEventListener('DOMContentLoaded', (event) => {
  highlightEdges();
  highlightAdjacentNodes();
});
]]></script>
</svg>
