<?xml version="1.0" encoding="UTF-8" standalone="no"?>
<!DOCTYPE svg PUBLIC "-//W3C//DTD SVG 1.1//EN"
 "http://www.w3.org/Graphics/SVG/1.1/DTD/svg11.dtd">
<!-- Generated by graphviz version 2.43.0 (0)
 -->
<!-- Title: include/astaroth_base.h Pages: 1 -->
<!--zoomable 269 -->

<svg id="main" version="1.1" xmlns="http://www.w3.org/2000/svg" xmlns:xlink="http://www.w3.org/1999/xlink" xml:space="preserve" onload="init(evt)">
<style type="text/css"><![CDATA[
.node, .edge {opacity: 0.7;}
.node.selected, .edge.selected {opacity: 1;}
.edge:hover path { stroke: red; }
.edge:hover polygon { stroke: red; fill: red; }
]]></style>

<defs>
  <circle id="rim" cx="0" cy="0" r="7"/>
  <circle id="rim2" cx="0" cy="0" r="3.5"/>
  <g id="zoomPlus">
    <use xlink:href="#rim" fill="#404040"><set attributeName="fill" to="#808080" begin="zoomplus.mouseover" end="zoomplus.mouseout"/></use>
    <path d="M-4,0h8M0,-4v8" fill="none" stroke="white" stroke-width="1.5" pointer-events="none"/>
  </g>
  <g id="zoomMin">
    <use xlink:href="#rim" fill="#404040"><set attributeName="fill" to="#808080" begin="zoomminus.mouseover" end="zoomminus.mouseout"/></use>
    <path d="M-4,0h8" fill="none" stroke="white" stroke-width="1.5" pointer-events="none"/>
  </g>
  <g id="arrowUp" transform="translate(30 24)">
    <use xlink:href="#rim"/>
    <path pointer-events="none" fill="none" stroke="white" stroke-width="1.5" d="M0,-3.0v7 M-2.5,-0.5L0,-3.0L2.5,-0.5"/>
  </g>
  <g id="arrowRight" transform="rotate(90) translate(36 -43)">
    <use xlink:href="#rim"/>
    <path pointer-events="none" fill="none" stroke="white" stroke-width="1.5" d="M0,-3.0v7 M-2.5,-0.5L0,-3.0L2.5,-0.5"/>
  </g>
  <g id="arrowDown" transform="rotate(180) translate(-30 -48)">
    <use xlink:href="#rim"/>
    <path pointer-events="none" fill="none" stroke="white" stroke-width="1.5" d="M0,-3.0v7 M-2.5,-0.5L0,-3.0L2.5,-0.5"/>
  </g>
  <g id="arrowLeft" transform="rotate(270) translate(-36 17)">
    <use xlink:href="#rim"/>
    <path pointer-events="none" fill="none" stroke="white" stroke-width="1.5" d="M0,-3.0v7 M-2.5,-0.5L0,-3.0L2.5,-0.5"/>
  </g>
  <g id="resetDef">
    <use xlink:href="#rim2" fill="#404040"><set attributeName="fill" to="#808080" begin="reset.mouseover" end="reset.mouseout"/></use>
  </g>
</defs>
<script type="application/ecmascript">
var viewWidth = 3284;
var viewHeight = 269;
var sectionId = 'dynsection-0';
</script>
<script type="application/ecmascript" xlink:href="svg.min.js"/>
<svg id="graph" class="graph">
<g id="viewport">
<title>include/astaroth_base.h</title>
<!-- Node1 -->
<g id="Node000001" class="node">
<title>Node1</title>
<g id="a_Node000001"><a xlink:title=" ">
<polygon fill="#999999" stroke="#666666" points="3114.36,-261 2981.36,-261 2981.36,-242 3114.36,-242 3114.36,-261"/>
<text text-anchor="middle" x="3047.86" y="-249" font-family="Helvetica,sans-Serif" font-size="10.00">include/astaroth_base.h</text>
</a>
</g>
</g>
<!-- Node2 -->
<g id="Node000002" class="node">
<title>Node2</title>
<g id="a_Node000002"><a xlink:title=" ">
<polygon fill="#e0e0e0" stroke="#999999" points="3009.86,-74 2947.86,-74 2947.86,-55 3009.86,-55 3009.86,-74"/>
<text text-anchor="middle" x="2978.86" y="-62" font-family="Helvetica,sans-Serif" font-size="10.00">stdbool.h</text>
</a>
</g>
</g>
<!-- Node1&#45;&gt;Node2 -->
<g id="edge1_Node000001_Node000002" class="edge">
<title>Node1&#45;&gt;Node2</title>
<g id="a_edge1_Node000001_Node000002"><a xlink:title=" ">
<path fill="none" stroke="#63b8ff" d="M3056.01,-241.87C3076.86,-218.72 3128.4,-154.04 3097.86,-110 3080.41,-84.85 3046.91,-73.89 3019.89,-69.13"/>
<polygon fill="#63b8ff" stroke="#63b8ff" points="3020.31,-65.65 3009.9,-67.59 3019.25,-72.57 3020.31,-65.65"/>
</a>
</g>
</g>
<!-- Node3 -->
<g id="Node000003" class="node">
<title>Node3</title>
<g id="a_Node000003"><a xlink:href="acc__runtime_8h.html" target="_top" xlink:title=" ">
<polygon fill="white" stroke="#666666" points="1781.86,-200.5 1695.86,-200.5 1695.86,-181.5 1781.86,-181.5 1781.86,-200.5"/>
<text text-anchor="middle" x="1738.86" y="-188.5" font-family="Helvetica,sans-Serif" font-size="10.00">acc_runtime.h</text>
</a>
</g>
</g>
<!-- Node1&#45;&gt;Node3 -->
<g id="edge2_Node000001_Node000003" class="edge">
<title>Node1&#45;&gt;Node3</title>
<g id="a_edge2_Node000001_Node000003"><a xlink:title=" ">
<path fill="none" stroke="#63b8ff" d="M2981.14,-247.52C2751.87,-237.27 1998.97,-203.62 1791.95,-194.37"/>
<polygon fill="#63b8ff" stroke="#63b8ff" points="1792.08,-190.88 1781.93,-193.93 1791.77,-197.87 1792.08,-190.88"/>
</a>
</g>
</g>
<!-- Node23 -->
<g id="Node000023" class="node">
<title>Node23</title>
<g id="a_Node000023"><a xlink:title=" ">
<polygon fill="#e0e0e0" stroke="#999999" points="332.36,-134.5 193.36,-134.5 193.36,-115.5 332.36,-115.5 332.36,-134.5"/>
<text text-anchor="middle" x="262.86" y="-122.5" font-family="Helvetica,sans-Serif" font-size="10.00">user_built&#45;in_constants.h</text>
</a>
</g>
</g>
<!-- Node1&#45;&gt;Node23 -->
<g id="edge51_Node000001_Node000023" class="edge">
<title>Node1&#45;&gt;Node23</title>
<g id="a_edge51_Node000001_Node000023"><a xlink:title=" ">
<path fill="none" stroke="#63b8ff" d="M2981.16,-249.07C2618.1,-241.09 876.54,-200.25 341.86,-140 333.3,-139.04 324.27,-137.72 315.49,-136.28"/>
<polygon fill="#63b8ff" stroke="#63b8ff" points="315.8,-132.78 305.35,-134.55 314.62,-139.68 315.8,-132.78"/>
</a>
</g>
</g>
<!-- Node37 -->
<g id="Node000037" class="node">
<title>Node37</title>
<g id="a_Node000037"><a xlink:href="func__define_8h.html" target="_top" xlink:title=" ">
<polygon fill="white" stroke="#666666" points="3088.86,-134.5 3006.86,-134.5 3006.86,-115.5 3088.86,-115.5 3088.86,-134.5"/>
<text text-anchor="middle" x="3047.86" y="-122.5" font-family="Helvetica,sans-Serif" font-size="10.00">func_define.h</text>
</a>
</g>
</g>
<!-- Node1&#45;&gt;Node37 -->
<g id="edge50_Node000001_Node000037" class="edge">
<title>Node1&#45;&gt;Node37</title>
<g id="a_edge50_Node000001_Node000037"><a xlink:title=" ">
<path fill="none" stroke="#63b8ff" d="M3047.86,-241.94C3047.86,-222.04 3047.86,-172.26 3047.86,-144.85"/>
<polygon fill="#63b8ff" stroke="#63b8ff" points="3051.36,-144.62 3047.86,-134.62 3044.36,-144.62 3051.36,-144.62"/>
</a>
</g>
</g>
<!-- Node41 -->
<g id="Node000041" class="node">
<title>Node41</title>
<g id="a_Node000041"><a xlink:title=" ">
<polygon fill="#e0e0e0" stroke="#999999" points="3276.36,-206 3145.36,-206 3145.36,-176 3276.36,-176 3276.36,-206"/>
<text text-anchor="start" x="3153.36" y="-194" font-family="Helvetica,sans-Serif" font-size="10.00">user_builtin_non_scalar</text>
<text text-anchor="middle" x="3210.86" y="-183" font-family="Helvetica,sans-Serif" font-size="10.00">_constants.h</text>
</a>
</g>
</g>
<!-- Node1&#45;&gt;Node41 -->
<g id="edge52_Node000001_Node000041" class="edge">
<title>Node1&#45;&gt;Node41</title>
<g id="a_edge52_Node000001_Node000041"><a xlink:title=" ">
<path fill="none" stroke="#63b8ff" d="M3071.56,-241.99C3095.22,-233.5 3132.28,-220.2 3162.22,-209.45"/>
<polygon fill="#63b8ff" stroke="#63b8ff" points="3163.44,-212.74 3171.67,-206.06 3161.07,-206.15 3163.44,-212.74"/>
</a>
</g>
</g>
<!-- Node3&#45;&gt;Node2 -->
<g id="edge4_Node000003_Node000002" class="edge">
<title>Node3&#45;&gt;Node2</title>
<g id="a_edge4_Node000003_Node000002"><a xlink:title=" ">
<path fill="none" stroke="#63b8ff" d="M1782.03,-189.39C1990.94,-186.32 2888.92,-171.3 2938.86,-140 2958.63,-127.6 2969.28,-101.87 2974.5,-84.14"/>
<polygon fill="#63b8ff" stroke="#63b8ff" points="2977.92,-84.9 2977.08,-74.33 2971.15,-83.11 2977.92,-84.9"/>
</a>
</g>
</g>
<!-- Node4 -->
<g id="Node000004" class="node">
<title>Node4</title>
<g id="a_Node000004"><a xlink:title=" ">
<polygon fill="#e0e0e0" stroke="#999999" points="1995.86,-74 1945.86,-74 1945.86,-55 1995.86,-55 1995.86,-74"/>
<text text-anchor="middle" x="1970.86" y="-62" font-family="Helvetica,sans-Serif" font-size="10.00">stdio.h</text>
</a>
</g>
</g>
<!-- Node3&#45;&gt;Node4 -->
<g id="edge3_Node000003_Node000004" class="edge">
<title>Node3&#45;&gt;Node4</title>
<g id="a_edge3_Node000003_Node000004"><a xlink:title=" ">
<path fill="none" stroke="#63b8ff" d="M1782.13,-189.83C1990.46,-188.79 2881.67,-181.92 2921.86,-140 2931.08,-130.37 2931.06,-119.65 2921.86,-110 2889.67,-76.27 2175.28,-67.43 2006.41,-65.81"/>
<polygon fill="#63b8ff" stroke="#63b8ff" points="2006.34,-62.31 1996.31,-65.71 2006.27,-69.3 2006.34,-62.31"/>
</a>
</g>
</g>
<!-- Node5 -->
<g id="Node000005" class="node">
<title>Node5</title>
<g id="a_Node000005"><a xlink:href="device__headers_8h.html" target="_top" xlink:title=" ">
<polygon fill="white" stroke="#666666" points="745.86,-74 643.86,-74 643.86,-55 745.86,-55 745.86,-74"/>
<text text-anchor="middle" x="694.86" y="-62" font-family="Helvetica,sans-Serif" font-size="10.00">device_headers.h</text>
</a>
</g>
</g>
<!-- Node3&#45;&gt;Node5 -->
<g id="edge5_Node000003_Node000005" class="edge">
<title>Node3&#45;&gt;Node5</title>
<g id="a_edge5_Node000003_Node000005"><a xlink:title=" ">
<path fill="none" stroke="#63b8ff" d="M1695.77,-189.65C1499.05,-187.85 694.29,-178.15 657.86,-140 641.66,-123.04 660.91,-97.61 677.15,-81.29"/>
<polygon fill="#63b8ff" stroke="#63b8ff" points="679.88,-83.51 684.71,-74.08 675.05,-78.45 679.88,-83.51"/>
</a>
</g>
</g>
<!-- Node8 -->
<g id="Node000008" class="node">
<title>Node8</title>
<g id="a_Node000008"><a xlink:title=" ">
<polygon fill="#e0e0e0" stroke="#999999" points="506.36,-74 411.36,-74 411.36,-55 506.36,-55 506.36,-74"/>
<text text-anchor="middle" x="458.86" y="-62" font-family="Helvetica,sans-Serif" font-size="10.00">builtin_enums.h</text>
</a>
</g>
</g>
<!-- Node3&#45;&gt;Node8 -->
<g id="edge8_Node000003_Node000008" class="edge">
<title>Node3&#45;&gt;Node8</title>
<g id="a_edge8_Node000003_Node000008"><a xlink:title=" ">
<path fill="none" stroke="#63b8ff" d="M1695.64,-189.91C1519.21,-189.26 853.09,-183.88 647.86,-140 587.01,-126.99 520.27,-96.53 484.66,-78.85"/>
<polygon fill="#63b8ff" stroke="#63b8ff" points="485.97,-75.6 475.47,-74.23 482.83,-81.85 485.97,-75.6"/>
</a>
</g>
</g>
<!-- Node9 -->
<g id="Node000009" class="node">
<title>Node9</title>
<g id="a_Node000009"><a xlink:href="datatypes_8h.html" target="_top" xlink:title=" ">
<polygon fill="white" stroke="#666666" points="424.86,-134.5 350.86,-134.5 350.86,-115.5 424.86,-115.5 424.86,-134.5"/>
<text text-anchor="middle" x="387.86" y="-122.5" font-family="Helvetica,sans-Serif" font-size="10.00">datatypes.h</text>
</a>
</g>
</g>
<!-- Node3&#45;&gt;Node9 -->
<g id="edge9_Node000003_Node000009" class="edge">
<title>Node3&#45;&gt;Node9</title>
<g id="a_edge9_Node000003_Node000009"><a xlink:title=" ">
<path fill="none" stroke="#63b8ff" d="M1695.74,-189.3C1537.94,-186.51 977.02,-174.61 515.86,-140 489.04,-137.99 459.15,-134.77 435.01,-131.93"/>
<polygon fill="#63b8ff" stroke="#63b8ff" points="435.39,-128.45 425.04,-130.74 434.56,-135.4 435.39,-128.45"/>
</a>
</g>
</g>
<!-- Node17 -->
<g id="Node000017" class="node">
<title>Node17</title>
<g id="a_Node000017"><a xlink:href="errchk_8h.html" target="_top" xlink:title="Brief info.">
<polygon fill="white" stroke="#666666" points="722.86,-134.5 666.86,-134.5 666.86,-115.5 722.86,-115.5 722.86,-134.5"/>
<text text-anchor="middle" x="694.86" y="-122.5" font-family="Helvetica,sans-Serif" font-size="10.00">errchk.h</text>
</a>
</g>
</g>
<!-- Node3&#45;&gt;Node17 -->
<g id="edge21_Node000003_Node000017" class="edge">
<title>Node3&#45;&gt;Node17</title>
<g id="a_edge21_Node000003_Node000017"><a xlink:title=" ">
<path fill="none" stroke="#63b8ff" d="M1695.61,-189.64C1527.87,-187.98 920.24,-179.3 731.86,-140 729.18,-139.44 726.43,-138.72 723.71,-137.89"/>
<polygon fill="#63b8ff" stroke="#63b8ff" points="724.7,-134.53 714.1,-134.58 722.42,-141.15 724.7,-134.53"/>
</a>
</g>
</g>
<!-- Node21 -->
<g id="Node000021" class="node">
<title>Node21</title>
<g id="a_Node000021"><a xlink:title=" ">
<polygon fill="#e0e0e0" stroke="#999999" points="828.36,-134.5 741.36,-134.5 741.36,-115.5 828.36,-115.5 828.36,-134.5"/>
<text text-anchor="middle" x="784.86" y="-122.5" font-family="Helvetica,sans-Serif" font-size="10.00">user_defines.h</text>
</a>
</g>
</g>
<!-- Node3&#45;&gt;Node21 -->
<g id="edge30_Node000003_Node000021" class="edge">
<title>Node3&#45;&gt;Node21</title>
<g id="a_edge30_Node000003_Node000021"><a xlink:title=" ">
<path fill="none" stroke="#63b8ff" d="M1695.81,-188.77C1540.07,-184.14 1006.33,-166.64 837.86,-140 833,-139.23 827.95,-138.2 822.97,-137.05"/>
<polygon fill="#63b8ff" stroke="#63b8ff" points="823.51,-133.58 812.96,-134.56 821.82,-140.37 823.51,-133.58"/>
</a>
</g>
</g>
<!-- Node22 -->
<g id="Node000022" class="node">
<title>Node22</title>
<g id="a_Node000022"><a xlink:title=" ">
<polygon fill="#e0e0e0" stroke="#999999" points="932.86,-134.5 846.86,-134.5 846.86,-115.5 932.86,-115.5 932.86,-134.5"/>
<text text-anchor="middle" x="889.86" y="-122.5" font-family="Helvetica,sans-Serif" font-size="10.00">profiles_info.h</text>
</a>
</g>
</g>
<!-- Node3&#45;&gt;Node22 -->
<g id="edge31_Node000003_Node000022" class="edge">
<title>Node3&#45;&gt;Node22</title>
<g id="a_edge31_Node000003_Node000022"><a xlink:title=" ">
<path fill="none" stroke="#63b8ff" d="M1695.75,-190.32C1575.55,-190.55 1226.76,-186.8 941.86,-140 937.09,-139.22 932.13,-138.18 927.25,-137.02"/>
<polygon fill="#63b8ff" stroke="#63b8ff" points="927.98,-133.6 917.43,-134.52 926.26,-140.38 927.98,-133.6"/>
</a>
</g>
</g>
<!-- Node3&#45;&gt;Node23 -->
<g id="edge32_Node000003_Node000023" class="edge">
<title>Node3&#45;&gt;Node23</title>
<g id="a_edge32_Node000003_Node000023"><a xlink:title=" ">
<path fill="none" stroke="#63b8ff" d="M1695.68,-189.27C1490.65,-185.67 613.97,-168.84 341.86,-140 333,-139.06 323.64,-137.72 314.58,-136.23"/>
<polygon fill="#63b8ff" stroke="#63b8ff" points="314.97,-132.75 304.52,-134.51 313.79,-139.65 314.97,-132.75"/>
</a>
</g>
</g>
<!-- Node24 -->
<g id="Node000024" class="node">
<title>Node24</title>
<g id="a_Node000024"><a xlink:href="func__attributes_8h.html" target="_top" xlink:title=" ">
<polygon fill="white" stroke="#666666" points="1050.36,-134.5 951.36,-134.5 951.36,-115.5 1050.36,-115.5 1050.36,-134.5"/>
<text text-anchor="middle" x="1000.86" y="-122.5" font-family="Helvetica,sans-Serif" font-size="10.00">func_attributes.h</text>
</a>
</g>
</g>
<!-- Node3&#45;&gt;Node24 -->
<g id="edge33_Node000003_Node000024" class="edge">
<title>Node3&#45;&gt;Node24</title>
<g id="a_edge33_Node000003_Node000024"><a xlink:title=" ">
<path fill="none" stroke="#63b8ff" d="M1695.62,-189.27C1587.59,-186.91 1297.44,-177.31 1058.86,-140 1053.36,-139.14 1047.61,-138.02 1041.96,-136.8"/>
<polygon fill="#63b8ff" stroke="#63b8ff" points="1042.5,-133.33 1031.97,-134.5 1040.94,-140.15 1042.5,-133.33"/>
</a>
</g>
</g>
<!-- Node25 -->
<g id="Node000025" class="node">
<title>Node25</title>
<g id="a_Node000025"><a xlink:title=" ">
<polygon fill="#e0e0e0" stroke="#999999" points="1193.36,-134.5 1068.36,-134.5 1068.36,-115.5 1193.36,-115.5 1193.36,-134.5"/>
<text text-anchor="middle" x="1130.86" y="-122.5" font-family="Helvetica,sans-Serif" font-size="10.00">user_input_typedefs.h</text>
</a>
</g>
</g>
<!-- Node3&#45;&gt;Node25 -->
<g id="edge34_Node000003_Node000025" class="edge">
<title>Node3&#45;&gt;Node25</title>
<g id="a_edge34_Node000003_Node000025"><a xlink:title=" ">
<path fill="none" stroke="#63b8ff" d="M1695.52,-187.47C1604,-181.79 1384.41,-166.43 1201.86,-140 1195.01,-139.01 1187.82,-137.8 1180.75,-136.5"/>
<polygon fill="#63b8ff" stroke="#63b8ff" points="1181.02,-132.99 1170.54,-134.57 1179.71,-139.87 1181.02,-132.99"/>
</a>
</g>
</g>
<!-- Node26 -->
<g id="Node000026" class="node">
<title>Node26</title>
<g id="a_Node000026"><a xlink:title=" ">
<polygon fill="#e0e0e0" stroke="#999999" points="1294.36,-134.5 1211.36,-134.5 1211.36,-115.5 1294.36,-115.5 1294.36,-134.5"/>
<text text-anchor="middle" x="1252.86" y="-122.5" font-family="Helvetica,sans-Serif" font-size="10.00">output_decl.h</text>
</a>
</g>
</g>
<!-- Node3&#45;&gt;Node26 -->
<g id="edge35_Node000003_Node000026" class="edge">
<title>Node3&#45;&gt;Node26</title>
<g id="a_edge35_Node000003_Node000026"><a xlink:title=" ">
<path fill="none" stroke="#63b8ff" d="M1695.61,-187.24C1617.04,-181.73 1445.85,-167.48 1303.86,-140 1299.65,-139.19 1295.28,-138.2 1290.95,-137.14"/>
<polygon fill="#63b8ff" stroke="#63b8ff" points="1291.56,-133.68 1281,-134.56 1289.8,-140.46 1291.56,-133.68"/>
</a>
</g>
</g>
<!-- Node27 -->
<g id="Node000027" class="node">
<title>Node27</title>
<g id="a_Node000027"><a xlink:title=" ">
<polygon fill="#e0e0e0" stroke="#999999" points="1428.86,-134.5 1312.86,-134.5 1312.86,-115.5 1428.86,-115.5 1428.86,-134.5"/>
<text text-anchor="middle" x="1370.86" y="-122.5" font-family="Helvetica,sans-Serif" font-size="10.00">comp_loaded_decl.h</text>
</a>
</g>
</g>
<!-- Node3&#45;&gt;Node27 -->
<g id="edge36_Node000003_Node000027" class="edge">
<title>Node3&#45;&gt;Node27</title>
<g id="a_edge36_Node000003_Node000027"><a xlink:title=" ">
<path fill="none" stroke="#63b8ff" d="M1695.64,-183.4C1637.09,-174.32 1529.36,-157.15 1437.86,-140 1432.17,-138.93 1426.22,-137.77 1420.32,-136.58"/>
<polygon fill="#63b8ff" stroke="#63b8ff" points="1420.98,-133.14 1410.48,-134.56 1419.58,-140 1420.98,-133.14"/>
</a>
</g>
</g>
<!-- Node28 -->
<g id="Node000028" class="node">
<title>Node28</title>
<g id="a_Node000028"><a xlink:title=" ">
<polygon fill="#e0e0e0" stroke="#999999" points="1524.86,-134.5 1446.86,-134.5 1446.86,-115.5 1524.86,-115.5 1524.86,-134.5"/>
<text text-anchor="middle" x="1485.86" y="-122.5" font-family="Helvetica,sans-Serif" font-size="10.00">comp_decl.h</text>
</a>
</g>
</g>
<!-- Node3&#45;&gt;Node28 -->
<g id="edge37_Node000003_Node000028" class="edge">
<title>Node3&#45;&gt;Node28</title>
<g id="a_edge37_Node000003_Node000028"><a xlink:title=" ">
<path fill="none" stroke="#63b8ff" d="M1701.7,-181.46C1660.53,-171.88 1592.25,-155.63 1533.86,-140 1530.67,-139.15 1527.37,-138.24 1524.07,-137.31"/>
<polygon fill="#63b8ff" stroke="#63b8ff" points="1524.8,-133.88 1514.23,-134.5 1522.88,-140.61 1524.8,-133.88"/>
</a>
</g>
</g>
<!-- Node29 -->
<g id="Node000029" class="node">
<title>Node29</title>
<g id="a_Node000029"><a xlink:title=" ">
<polygon fill="#e0e0e0" stroke="#999999" points="1650.86,-134.5 1542.86,-134.5 1542.86,-115.5 1650.86,-115.5 1650.86,-134.5"/>
<text text-anchor="middle" x="1596.86" y="-122.5" font-family="Helvetica,sans-Serif" font-size="10.00">info_loaded_decl.h</text>
</a>
</g>
</g>
<!-- Node3&#45;&gt;Node29 -->
<g id="edge38_Node000003_Node000029" class="edge">
<title>Node3&#45;&gt;Node29</title>
<g id="a_edge38_Node000003_Node000029"><a xlink:title=" ">
<path fill="none" stroke="#63b8ff" d="M1719.71,-181.37C1695.46,-170.44 1653.49,-151.52 1625.44,-138.88"/>
<polygon fill="#63b8ff" stroke="#63b8ff" points="1626.71,-135.62 1616.16,-134.7 1623.84,-142 1626.71,-135.62"/>
</a>
</g>
</g>
<!-- Node30 -->
<g id="Node000030" class="node">
<title>Node30</title>
<g id="a_Node000030"><a xlink:title=" ">
<polygon fill="#e0e0e0" stroke="#999999" points="1808.86,-134.5 1668.86,-134.5 1668.86,-115.5 1808.86,-115.5 1808.86,-134.5"/>
<text text-anchor="middle" x="1738.86" y="-122.5" font-family="Helvetica,sans-Serif" font-size="10.00">device_mesh_info_decl.h</text>
</a>
</g>
</g>
<!-- Node3&#45;&gt;Node30 -->
<g id="edge39_Node000003_Node000030" class="edge">
<title>Node3&#45;&gt;Node30</title>
<g id="a_edge39_Node000003_Node000030"><a xlink:title=" ">
<path fill="none" stroke="#63b8ff" d="M1738.86,-181.37C1738.86,-172.16 1738.86,-157.29 1738.86,-145.27"/>
<polygon fill="#63b8ff" stroke="#63b8ff" points="1742.36,-144.91 1738.86,-134.91 1735.36,-144.91 1742.36,-144.91"/>
</a>
</g>
</g>
<!-- Node31 -->
<g id="Node000031" class="node">
<title>Node31</title>
<g id="a_Node000031"><a xlink:title=" ">
<polygon fill="#e0e0e0" stroke="#999999" points="1904.36,-134.5 1827.36,-134.5 1827.36,-115.5 1904.36,-115.5 1904.36,-134.5"/>
<text text-anchor="middle" x="1865.86" y="-122.5" font-family="Helvetica,sans-Serif" font-size="10.00">array_decl.h</text>
</a>
</g>
</g>
<!-- Node3&#45;&gt;Node31 -->
<g id="edge40_Node000003_Node000031" class="edge">
<title>Node3&#45;&gt;Node31</title>
<g id="a_edge40_Node000003_Node000031"><a xlink:title=" ">
<path fill="none" stroke="#63b8ff" d="M1755.98,-181.37C1777.48,-170.54 1814.55,-151.85 1839.63,-139.22"/>
<polygon fill="#63b8ff" stroke="#63b8ff" points="1841.24,-142.32 1848.59,-134.7 1838.09,-136.07 1841.24,-142.32"/>
</a>
</g>
</g>
<!-- Node32 -->
<g id="Node000032" class="node">
<title>Node32</title>
<g id="a_Node000032"><a xlink:title=" ">
<polygon fill="#e0e0e0" stroke="#999999" points="1998.86,-134.5 1922.86,-134.5 1922.86,-115.5 1998.86,-115.5 1998.86,-134.5"/>
<text text-anchor="middle" x="1960.86" y="-122.5" font-family="Helvetica,sans-Serif" font-size="10.00">input_decl.h</text>
</a>
</g>
</g>
<!-- Node3&#45;&gt;Node32 -->
<g id="edge41_Node000003_Node000032" class="edge">
<title>Node3&#45;&gt;Node32</title>
<g id="a_edge41_Node000003_Node000032"><a xlink:title=" ">
<path fill="none" stroke="#63b8ff" d="M1768.73,-181.45C1803.4,-171.53 1862.29,-154.64 1912.86,-140 1915.8,-139.15 1918.85,-138.26 1921.92,-137.37"/>
<polygon fill="#63b8ff" stroke="#63b8ff" points="1923.05,-140.69 1931.67,-134.53 1921.09,-133.97 1923.05,-140.69"/>
</a>
</g>
</g>
<!-- Node33 -->
<g id="Node000033" class="node">
<title>Node33</title>
<g id="a_Node000033"><a xlink:href="ac__helpers_8h.html" target="_top" xlink:title=" ">
<polygon fill="white" stroke="#666666" points="2094.86,-134.5 2016.86,-134.5 2016.86,-115.5 2094.86,-115.5 2094.86,-134.5"/>
<text text-anchor="middle" x="2055.86" y="-122.5" font-family="Helvetica,sans-Serif" font-size="10.00">ac_helpers.h</text>
</a>
</g>
</g>
<!-- Node3&#45;&gt;Node33 -->
<g id="edge42_Node000003_Node000033" class="edge">
<title>Node3&#45;&gt;Node33</title>
<g id="a_edge42_Node000003_Node000033"><a xlink:title=" ">
<path fill="none" stroke="#63b8ff" d="M1782,-183.35C1835.36,-174.8 1928.84,-158.82 2007.86,-140 2011.3,-139.18 2014.86,-138.27 2018.41,-137.31"/>
<polygon fill="#63b8ff" stroke="#63b8ff" points="2019.63,-140.61 2028.32,-134.54 2017.74,-133.86 2019.63,-140.61"/>
</a>
</g>
</g>
<!-- Node34 -->
<g id="Node000034" class="node">
<title>Node34</title>
<g id="a_Node000034"><a xlink:title=" ">
<polygon fill="#e0e0e0" stroke="#999999" points="2230.86,-140 2112.86,-140 2112.86,-110 2230.86,-110 2230.86,-140"/>
<text text-anchor="start" x="2120.86" y="-128" font-family="Helvetica,sans-Serif" font-size="10.00">scalar_reduce_buffer</text>
<text text-anchor="middle" x="2171.86" y="-117" font-family="Helvetica,sans-Serif" font-size="10.00">_defs.h</text>
</a>
</g>
</g>
<!-- Node3&#45;&gt;Node34 -->
<g id="edge43_Node000003_Node000034" class="edge">
<title>Node3&#45;&gt;Node34</title>
<g id="a_edge43_Node000003_Node000034"><a xlink:title=" ">
<path fill="none" stroke="#63b8ff" d="M1781.98,-185.04C1848.62,-177.17 1980.81,-160.73 2102.69,-140.13"/>
<polygon fill="#63b8ff" stroke="#63b8ff" points="2103.29,-143.58 2112.56,-138.45 2102.12,-136.68 2103.29,-143.58"/>
</a>
</g>
</g>
<!-- Node35 -->
<g id="Node000035" class="node">
<title>Node35</title>
<g id="a_Node000035"><a xlink:title=" ">
<polygon fill="#e0e0e0" stroke="#999999" points="2372.36,-140 2249.36,-140 2249.36,-110 2372.36,-110 2372.36,-140"/>
<text text-anchor="start" x="2257.36" y="-128" font-family="Helvetica,sans-Serif" font-size="10.00">scalar_reduce_buffers</text>
<text text-anchor="middle" x="2310.86" y="-117" font-family="Helvetica,sans-Serif" font-size="10.00">_in_vba.h</text>
</a>
</g>
</g>
<!-- Node3&#45;&gt;Node35 -->
<g id="edge44_Node000003_Node000035" class="edge">
<title>Node3&#45;&gt;Node35</title>
<g id="a_edge44_Node000003_Node000035"><a xlink:title=" ">
<path fill="none" stroke="#63b8ff" d="M1781.92,-187.09C1867.2,-181.03 2063.77,-165.57 2239.41,-139.96"/>
<polygon fill="#63b8ff" stroke="#63b8ff" points="2239.96,-143.42 2249.35,-138.5 2238.94,-136.5 2239.96,-143.42"/>
</a>
</g>
</g>
<!-- Node36 -->
<g id="Node000036" class="node">
<title>Node36</title>
<g id="a_Node000036"><a xlink:href="astaroth__analysis_8h.html" target="_top" xlink:title=" ">
<polygon fill="white" stroke="#666666" points="2502.86,-134.5 2390.86,-134.5 2390.86,-115.5 2502.86,-115.5 2502.86,-134.5"/>
<text text-anchor="middle" x="2446.86" y="-122.5" font-family="Helvetica,sans-Serif" font-size="10.00">astaroth_analysis.h</text>
</a>
</g>
</g>
<!-- Node3&#45;&gt;Node36 -->
<g id="edge45_Node000003_Node000036" class="edge">
<title>Node3&#45;&gt;Node36</title>
<g id="a_edge45_Node000003_Node000036"><a xlink:title=" ">
<path fill="none" stroke="#63b8ff" d="M1781.9,-188.6C1885.5,-184.81 2156.79,-172.35 2380.86,-140 2387.25,-139.08 2393.95,-137.9 2400.52,-136.63"/>
<polygon fill="#63b8ff" stroke="#63b8ff" points="2401.59,-139.98 2410.7,-134.56 2400.2,-133.12 2401.59,-139.98"/>
</a>
</g>
</g>
<!-- Node3&#45;&gt;Node37 -->
<g id="edge46_Node000003_Node000037" class="edge">
<title>Node3&#45;&gt;Node37</title>
<g id="a_edge46_Node000003_Node000037"><a xlink:title=" ">
<path fill="none" stroke="#63b8ff" d="M1782.06,-189.49C1974.13,-187.04 2751.64,-175.11 2992.86,-140 2998.09,-139.24 3003.54,-138.18 3008.89,-136.99"/>
<polygon fill="#63b8ff" stroke="#63b8ff" points="3010.07,-140.3 3018.97,-134.56 3008.43,-133.5 3010.07,-140.3"/>
</a>
</g>
</g>
<!-- Node38 -->
<g id="Node000038" class="node">
<title>Node38</title>
<g id="a_Node000038"><a xlink:href="common__kernels_8h.html" target="_top" xlink:title=" ">
<polygon fill="white" stroke="#666666" points="2630.36,-134.5 2521.36,-134.5 2521.36,-115.5 2630.36,-115.5 2630.36,-134.5"/>
<text text-anchor="middle" x="2575.86" y="-122.5" font-family="Helvetica,sans-Serif" font-size="10.00">common_kernels.h</text>
</a>
</g>
</g>
<!-- Node3&#45;&gt;Node38 -->
<g id="edge47_Node000003_Node000038" class="edge">
<title>Node3&#45;&gt;Node38</title>
<g id="a_edge47_Node000003_Node000038"><a xlink:title=" ">
<path fill="none" stroke="#63b8ff" d="M1782.25,-189.48C1900.12,-187.58 2235.87,-178.89 2511.86,-140 2518.21,-139.1 2524.88,-137.92 2531.4,-136.63"/>
<polygon fill="#63b8ff" stroke="#63b8ff" points="2532.41,-139.99 2541.49,-134.52 2530.98,-133.14 2532.41,-139.99"/>
</a>
</g>
</g>
<!-- Node39 -->
<g id="Node000039" class="node">
<title>Node39</title>
<g id="a_Node000039"><a xlink:title=" ">
<polygon fill="#e0e0e0" stroke="#999999" points="2760.86,-134.5 2648.86,-134.5 2648.86,-115.5 2760.86,-115.5 2760.86,-134.5"/>
<text text-anchor="middle" x="2704.86" y="-122.5" font-family="Helvetica,sans-Serif" font-size="10.00">user_declarations.h</text>
</a>
</g>
</g>
<!-- Node3&#45;&gt;Node39 -->
<g id="edge48_Node000003_Node000039" class="edge">
<title>Node3&#45;&gt;Node39</title>
<g id="a_edge48_Node000003_Node000039"><a xlink:title=" ">
<path fill="none" stroke="#63b8ff" d="M1782.17,-189.94C1912.38,-189.28 2311.54,-183.54 2638.86,-140 2645.57,-139.11 2652.61,-137.9 2659.49,-136.58"/>
<polygon fill="#63b8ff" stroke="#63b8ff" points="2660.3,-139.98 2669.41,-134.56 2658.91,-133.12 2660.3,-139.98"/>
</a>
</g>
</g>
<!-- Node40 -->
<g id="Node000040" class="node">
<title>Node40</title>
<g id="a_Node000040"><a xlink:title=" ">
<polygon fill="#e0e0e0" stroke="#999999" points="2912.86,-140 2778.86,-140 2778.86,-110 2912.86,-110 2912.86,-140"/>
<text text-anchor="start" x="2786.86" y="-128" font-family="Helvetica,sans-Serif" font-size="10.00">load_and_store_uniform</text>
<text text-anchor="middle" x="2845.86" y="-117" font-family="Helvetica,sans-Serif" font-size="10.00">_header.h</text>
</a>
</g>
</g>
<!-- Node3&#45;&gt;Node40 -->
<g id="edge49_Node000003_Node000040" class="edge">
<title>Node3&#45;&gt;Node40</title>
<g id="a_edge49_Node000003_Node000040"><a xlink:title=" ">
<path fill="none" stroke="#63b8ff" d="M1782.24,-189.97C1923.19,-189.42 2380.99,-184.21 2768.78,-140.01"/>
<polygon fill="#63b8ff" stroke="#63b8ff" points="2769.26,-143.48 2778.79,-138.86 2768.46,-136.52 2769.26,-143.48"/>
</a>
</g>
</g>
<!-- Node6 -->
<g id="Node000006" class="node">
<title>Node6</title>
<g id="a_Node000006"><a xlink:title=" ">
<polygon fill="#e0e0e0" stroke="#999999" points="483.36,-19 370.36,-19 370.36,0 483.36,0 483.36,-19"/>
<text text-anchor="middle" x="426.86" y="-7" font-family="Helvetica,sans-Serif" font-size="10.00">cuda_runtime_api.h</text>
</a>
</g>
</g>
<!-- Node5&#45;&gt;Node6 -->
<g id="edge6_Node000005_Node000006" class="edge">
<title>Node5&#45;&gt;Node6</title>
<g id="a_edge6_Node000005_Node000006"><a xlink:title=" ">
<path fill="none" stroke="#63b8ff" d="M651.8,-54.98C605.15,-45.76 530.66,-31.03 480.3,-21.07"/>
<polygon fill="#63b8ff" stroke="#63b8ff" points="480.74,-17.59 470.25,-19.08 479.38,-24.46 480.74,-17.59"/>
</a>
</g>
</g>
<!-- Node7 -->
<g id="Node000007" class="node">
<title>Node7</title>
<g id="a_Node000007"><a xlink:title=" ">
<polygon fill="#e0e0e0" stroke="#999999" points="732.86,-19 656.86,-19 656.86,0 732.86,0 732.86,-19"/>
<text text-anchor="middle" x="694.86" y="-7" font-family="Helvetica,sans-Serif" font-size="10.00">cuda_fp16.h</text>
</a>
</g>
</g>
<!-- Node5&#45;&gt;Node7 -->
<g id="edge7_Node000005_Node000007" class="edge">
<title>Node5&#45;&gt;Node7</title>
<g id="a_edge7_Node000005_Node000007"><a xlink:title=" ">
<path fill="none" stroke="#63b8ff" d="M694.86,-54.75C694.86,-47.8 694.86,-37.85 694.86,-29.13"/>
<polygon fill="#63b8ff" stroke="#63b8ff" points="698.36,-29.09 694.86,-19.09 691.36,-29.09 698.36,-29.09"/>
</a>
</g>
</g>
<!-- Node9&#45;&gt;Node5 -->
<g id="edge12_Node000009_Node000005" class="edge">
<title>Node9&#45;&gt;Node5</title>
<g id="a_edge12_Node000009_Node000005"><a xlink:title=" ">
<path fill="none" stroke="#63b8ff" d="M424.89,-116.94C478.52,-106.72 578.16,-87.74 640.24,-75.91"/>
<polygon fill="#63b8ff" stroke="#63b8ff" points="641.07,-79.31 650.24,-74 639.76,-72.44 641.07,-79.31"/>
</a>
</g>
</g>
<!-- Node9&#45;&gt;Node6 -->
<g id="edge14_Node000009_Node000006" class="edge">
<title>Node9&#45;&gt;Node6</title>
<g id="a_edge14_Node000009_Node000006"><a xlink:title=" ">
<path fill="none" stroke="#63b8ff" d="M388.75,-115.26C390.3,-101.93 394.1,-75.85 401.86,-55 405.33,-45.67 410.56,-35.96 415.35,-28"/>
<polygon fill="#63b8ff" stroke="#63b8ff" points="418.46,-29.63 420.82,-19.3 412.53,-25.91 418.46,-29.63"/>
</a>
</g>
</g>
<!-- Node9&#45;&gt;Node8 -->
<g id="edge16_Node000009_Node000008" class="edge">
<title>Node9&#45;&gt;Node8</title>
<g id="a_edge16_Node000009_Node000008"><a xlink:title=" ">
<path fill="none" stroke="#63b8ff" d="M398.33,-115.37C409.34,-106.3 426.89,-91.84 440.26,-80.82"/>
<polygon fill="#63b8ff" stroke="#63b8ff" points="442.85,-83.23 448.34,-74.17 438.39,-77.83 442.85,-83.23"/>
</a>
</g>
</g>
<!-- Node10 -->
<g id="Node000010" class="node">
<title>Node10</title>
<g id="a_Node000010"><a xlink:title=" ">
<polygon fill="#e0e0e0" stroke="#999999" points="65.36,-74 18.36,-74 18.36,-55 65.36,-55 65.36,-74"/>
<text text-anchor="middle" x="41.86" y="-62" font-family="Helvetica,sans-Serif" font-size="10.00">float.h</text>
</a>
</g>
</g>
<!-- Node9&#45;&gt;Node10 -->
<g id="edge10_Node000009_Node000010" class="edge">
<title>Node9&#45;&gt;Node10</title>
<g id="a_edge10_Node000009_Node000010"><a xlink:title=" ">
<path fill="none" stroke="#63b8ff" d="M361.69,-115.42C354.96,-113.43 347.68,-111.47 340.86,-110 226.99,-85.52 193.13,-96.76 75.65,-74.14"/>
<polygon fill="#63b8ff" stroke="#63b8ff" points="76.03,-70.64 65.54,-72.15 74.68,-77.51 76.03,-70.64"/>
</a>
</g>
</g>
<!-- Node11 -->
<g id="Node000011" class="node">
<title>Node11</title>
<g id="a_Node000011"><a xlink:title=" ">
<polygon fill="#e0e0e0" stroke="#999999" points="134.36,-74 83.36,-74 83.36,-55 134.36,-55 134.36,-74"/>
<text text-anchor="middle" x="108.86" y="-62" font-family="Helvetica,sans-Serif" font-size="10.00">math.h</text>
</a>
</g>
</g>
<!-- Node9&#45;&gt;Node11 -->
<g id="edge11_Node000009_Node000011" class="edge">
<title>Node9&#45;&gt;Node11</title>
<g id="a_edge11_Node000009_Node000011"><a xlink:title=" ">
<path fill="none" stroke="#63b8ff" d="M361.15,-115.49C354.56,-113.54 347.48,-111.58 340.86,-110 256.92,-89.93 232.03,-92.63 144.28,-74.19"/>
<polygon fill="#63b8ff" stroke="#63b8ff" points="144.95,-70.75 134.43,-72.08 143.48,-77.59 144.95,-70.75"/>
</a>
</g>
</g>
<!-- Node12 -->
<g id="Node000012" class="node">
<title>Node12</title>
<g id="a_Node000012"><a xlink:title=" ">
<polygon fill="#e0e0e0" stroke="#999999" points="241.36,-74 152.36,-74 152.36,-55 241.36,-55 241.36,-74"/>
<text text-anchor="middle" x="196.86" y="-62" font-family="Helvetica,sans-Serif" font-size="10.00">vector_types.h</text>
</a>
</g>
</g>
<!-- Node9&#45;&gt;Node12 -->
<g id="edge13_Node000009_Node000012" class="edge">
<title>Node9&#45;&gt;Node12</title>
<g id="a_edge13_Node000009_Node000012"><a xlink:title=" ">
<path fill="none" stroke="#63b8ff" d="M360.08,-115.49C326.98,-105.36 271.52,-88.37 234.56,-77.05"/>
<polygon fill="#63b8ff" stroke="#63b8ff" points="235.25,-73.6 224.66,-74.02 233.2,-80.29 235.25,-73.6"/>
</a>
</g>
</g>
<!-- Node13 -->
<g id="Node000013" class="node">
<title>Node13</title>
<g id="a_Node000013"><a xlink:href="acreal_8h.html" target="_top" xlink:title=" ">
<polygon fill="white" stroke="#666666" points="206.86,-19 150.86,-19 150.86,0 206.86,0 206.86,-19"/>
<text text-anchor="middle" x="178.86" y="-7" font-family="Helvetica,sans-Serif" font-size="10.00">acreal.h</text>
</a>
</g>
</g>
<!-- Node9&#45;&gt;Node13 -->
<g id="edge15_Node000009_Node000013" class="edge">
<title>Node9&#45;&gt;Node13</title>
<g id="a_edge15_Node000009_Node000013"><a xlink:title=" ">
<path fill="none" stroke="#63b8ff" d="M362.21,-115.45C355.34,-113.4 347.87,-111.41 340.86,-110 268.11,-95.35 58.42,-129.23 8.86,-74 -30.63,-30 79.11,-16.39 140.52,-12.25"/>
<polygon fill="#63b8ff" stroke="#63b8ff" points="140.89,-15.74 150.66,-11.63 140.46,-8.75 140.89,-15.74"/>
</a>
</g>
</g>
<!-- Node14 -->
<g id="Node000014" class="node">
<title>Node14</title>
<g id="a_Node000014"><a xlink:title=" ">
<polygon fill="#e0e0e0" stroke="#999999" points="354.36,-74 259.36,-74 259.36,-55 354.36,-55 354.36,-74"/>
<text text-anchor="middle" x="306.86" y="-62" font-family="Helvetica,sans-Serif" font-size="10.00">user_typedefs.h</text>
</a>
</g>
</g>
<!-- Node9&#45;&gt;Node14 -->
<g id="edge17_Node000009_Node000014" class="edge">
<title>Node9&#45;&gt;Node14</title>
<g id="a_edge17_Node000009_Node000014"><a xlink:title=" ">
<path fill="none" stroke="#63b8ff" d="M375.9,-115.37C363.1,-106.12 342.56,-91.28 327.2,-80.19"/>
<polygon fill="#63b8ff" stroke="#63b8ff" points="329.01,-77.18 318.86,-74.17 324.92,-82.86 329.01,-77.18"/>
</a>
</g>
</g>
<!-- Node15 -->
<g id="Node000015" class="node">
<title>Node15</title>
<g id="a_Node000015"><a xlink:href="host__datatypes_8h.html" target="_top" xlink:title=" ">
<polygon fill="white" stroke="#666666" points="625.36,-74 524.36,-74 524.36,-55 625.36,-55 625.36,-74"/>
<text text-anchor="middle" x="574.86" y="-62" font-family="Helvetica,sans-Serif" font-size="10.00">host_datatypes.h</text>
</a>
</g>
</g>
<!-- Node9&#45;&gt;Node15 -->
<g id="edge18_Node000009_Node000015" class="edge">
<title>Node9&#45;&gt;Node15</title>
<g id="a_edge18_Node000009_Node000015"><a xlink:title=" ">
<path fill="none" stroke="#63b8ff" d="M415.05,-115.49C447.46,-105.36 501.76,-88.37 537.94,-77.05"/>
<polygon fill="#63b8ff" stroke="#63b8ff" points="539.13,-80.34 547.63,-74.02 537.04,-73.66 539.13,-80.34"/>
</a>
</g>
</g>
<!-- Node15&#45;&gt;Node13 -->
<g id="edge19_Node000015_Node000013" class="edge">
<title>Node15&#45;&gt;Node13</title>
<g id="a_edge19_Node000015_Node000013"><a xlink:title=" ">
<path fill="none" stroke="#63b8ff" d="M524.12,-56.28C520.99,-55.84 517.88,-55.41 514.86,-55 407.12,-40.23 279.83,-23.6 217.36,-15.48"/>
<polygon fill="#63b8ff" stroke="#63b8ff" points="217.56,-11.98 207.19,-14.16 216.65,-18.92 217.56,-11.98"/>
</a>
</g>
</g>
<!-- Node16 -->
<g id="Node000016" class="node">
<title>Node16</title>
<g id="a_Node000016"><a xlink:title=" ">
<polygon fill="#e0e0e0" stroke="#999999" points="620.86,-19 564.86,-19 564.86,0 620.86,0 620.86,-19"/>
<text text-anchor="middle" x="592.86" y="-7" font-family="Helvetica,sans-Serif" font-size="10.00">stddef.h</text>
</a>
</g>
</g>
<!-- Node15&#45;&gt;Node16 -->
<g id="edge20_Node000015_Node000016" class="edge">
<title>Node15&#45;&gt;Node16</title>
<g id="a_edge20_Node000015_Node000016"><a xlink:title=" ">
<path fill="none" stroke="#63b8ff" d="M577.83,-54.75C580.21,-47.72 583.64,-37.62 586.63,-28.84"/>
<polygon fill="#63b8ff" stroke="#63b8ff" points="590.04,-29.68 589.94,-19.09 583.41,-27.43 590.04,-29.68"/>
</a>
</g>
</g>
<!-- Node17&#45;&gt;Node2 -->
<g id="edge24_Node000017_Node000002" class="edge">
<title>Node17&#45;&gt;Node2</title>
<g id="a_edge24_Node000017_Node000002"><a xlink:title=" ">
<path fill="none" stroke="#63b8ff" d="M713.7,-115.45C719.41,-113.25 725.79,-111.17 731.86,-110 844.26,-88.29 2639.57,-68.98 2937.21,-65.92"/>
<polygon fill="#63b8ff" stroke="#63b8ff" points="2937.58,-69.42 2947.55,-65.82 2937.51,-62.42 2937.58,-69.42"/>
</a>
</g>
</g>
<!-- Node17&#45;&gt;Node4 -->
<g id="edge26_Node000017_Node000004" class="edge">
<title>Node17&#45;&gt;Node4</title>
<g id="a_edge26_Node000017_Node000004"><a xlink:title=" ">
<path fill="none" stroke="#63b8ff" d="M714.09,-115.37C719.71,-113.22 725.93,-111.19 731.86,-110 971.2,-61.78 1759.37,-64.08 1935.67,-65.22"/>
<polygon fill="#63b8ff" stroke="#63b8ff" points="1935.67,-68.72 1945.7,-65.29 1935.72,-61.72 1935.67,-68.72"/>
</a>
</g>
</g>
<!-- Node17&#45;&gt;Node5 -->
<g id="edge29_Node000017_Node000005" class="edge">
<title>Node17&#45;&gt;Node5</title>
<g id="a_edge29_Node000017_Node000005"><a xlink:title=" ">
<path fill="none" stroke="#63b8ff" d="M694.86,-115.37C694.86,-107.25 694.86,-94.81 694.86,-84.39"/>
<polygon fill="#63b8ff" stroke="#63b8ff" points="698.36,-84.17 694.86,-74.17 691.36,-84.17 698.36,-84.17"/>
</a>
</g>
</g>
<!-- Node17&#45;&gt;Node15 -->
<g id="edge23_Node000017_Node000015" class="edge">
<title>Node17&#45;&gt;Node15</title>
<g id="a_edge23_Node000017_Node000015"><a xlink:title=" ">
<path fill="none" stroke="#63b8ff" d="M677.41,-115.49C657.5,-105.79 624.72,-89.81 601.58,-78.53"/>
<polygon fill="#63b8ff" stroke="#63b8ff" points="602.85,-75.25 592.33,-74.02 599.78,-81.54 602.85,-75.25"/>
</a>
</g>
</g>
<!-- Node17&#45;&gt;Node16 -->
<g id="edge22_Node000017_Node000016" class="edge">
<title>Node17&#45;&gt;Node16</title>
<g id="a_edge22_Node000017_Node000016"><a xlink:title=" ">
<path fill="none" stroke="#63b8ff" d="M715.35,-115.38C720.66,-113.39 726.41,-111.44 731.86,-110 834.32,-82.98 1034.42,-134.06 963.86,-55 916.79,-2.27 717.91,-28.4 647.86,-19 642.41,-18.27 636.67,-17.44 631.03,-16.6"/>
<polygon fill="#63b8ff" stroke="#63b8ff" points="631.5,-13.13 621.09,-15.08 630.45,-20.05 631.5,-13.13"/>
</a>
</g>
</g>
<!-- Node18 -->
<g id="Node000018" class="node">
<title>Node18</title>
<g id="a_Node000018"><a xlink:title=" ">
<polygon fill="#e0e0e0" stroke="#999999" points="817.36,-74 764.36,-74 764.36,-55 817.36,-55 817.36,-74"/>
<text text-anchor="middle" x="790.86" y="-62" font-family="Helvetica,sans-Serif" font-size="10.00">stdint.h</text>
</a>
</g>
</g>
<!-- Node17&#45;&gt;Node18 -->
<g id="edge25_Node000017_Node000018" class="edge">
<title>Node17&#45;&gt;Node18</title>
<g id="a_edge25_Node000017_Node000018"><a xlink:title=" ">
<path fill="none" stroke="#63b8ff" d="M709.02,-115.37C724.55,-105.91 749.69,-90.59 768.01,-79.42"/>
<polygon fill="#63b8ff" stroke="#63b8ff" points="769.92,-82.36 776.63,-74.17 766.27,-76.38 769.92,-82.36"/>
</a>
</g>
</g>
<!-- Node19 -->
<g id="Node000019" class="node">
<title>Node19</title>
<g id="a_Node000019"><a xlink:title=" ">
<polygon fill="#e0e0e0" stroke="#999999" points="888.36,-74 835.36,-74 835.36,-55 888.36,-55 888.36,-74"/>
<text text-anchor="middle" x="861.86" y="-62" font-family="Helvetica,sans-Serif" font-size="10.00">stdlib.h</text>
</a>
</g>
</g>
<!-- Node17&#45;&gt;Node19 -->
<g id="edge27_Node000017_Node000019" class="edge">
<title>Node17&#45;&gt;Node19</title>
<g id="a_edge27_Node000017_Node000019"><a xlink:title=" ">
<path fill="none" stroke="#63b8ff" d="M717.12,-115.44C721.97,-113.62 727.08,-111.72 731.86,-110 763.7,-98.53 800.17,-86.11 826.37,-77.31"/>
<polygon fill="#63b8ff" stroke="#63b8ff" points="827.5,-80.62 835.87,-74.12 825.28,-73.98 827.5,-80.62"/>
</a>
</g>
</g>
<!-- Node20 -->
<g id="Node000020" class="node">
<title>Node20</title>
<g id="a_Node000020"><a xlink:title=" ">
<polygon fill="#e0e0e0" stroke="#999999" points="954.86,-74 906.86,-74 906.86,-55 954.86,-55 954.86,-74"/>
<text text-anchor="middle" x="930.86" y="-62" font-family="Helvetica,sans-Serif" font-size="10.00">time.h</text>
</a>
</g>
</g>
<!-- Node17&#45;&gt;Node20 -->
<g id="edge28_Node000017_Node000020" class="edge">
<title>Node17&#45;&gt;Node20</title>
<g id="a_edge28_Node000017_Node000020"><a xlink:title=" ">
<path fill="none" stroke="#63b8ff" d="M715.81,-115.46C721,-113.52 726.59,-111.56 731.86,-110 803.82,-88.66 823.77,-91.1 896.86,-74 896.96,-73.98 897.06,-73.95 897.16,-73.93"/>
<polygon fill="#63b8ff" stroke="#63b8ff" points="897.83,-77.37 906.73,-71.63 896.19,-70.56 897.83,-77.37"/>
</a>
</g>
</g>
</g>
</svg>

<g id="navigator" transform="translate(0 0)" fill="#404254">
  <rect fill="#f2f5e9" fill-opacity="0.5" stroke="#606060" stroke-width=".5" x="0" y="0" width="60" height="60"/>
  <use id="zoomplus" xlink:href="#zoomPlus" x="17" y="9" onmousedown="handleZoom(evt,'in')"/>
  <use id="zoomminus" xlink:href="#zoomMin" x="42" y="9" onmousedown="handleZoom(evt,'out')"/>
  <use id="reset" xlink:href="#resetDef" x="30" y="36" onmousedown="handleReset()"/>
   <use id="arrowup" xlink:href="#arrowUp" x="0" y="0" onmousedown="handlePan(0,-1)"/>
  <use id="arrowright" xlink:href="#arrowRight" x="0" y="0" onmousedown="handlePan(1,0)"/>
  <use id="arrowdown" xlink:href="#arrowDown" x="0" y="0" onmousedown="handlePan(0,1)"/>
  <use id="arrowleft" xlink:href="#arrowLeft" x="0" y="0" onmousedown="handlePan(-1,0)"/>
</g>
<svg viewBox="0 0 15 15" width="100%" height="30px" preserveAspectRatio="xMaxYMin meet">
 <g id="arrow_out" transform="scale(0.3 0.3)">
  <a xlink:href="astaroth__base_8h__incl_org.svg" target="_base">
   <rect id="button" ry="5" rx="5" y="6" x="6" height="38" width="38"
        fill="#f2f5e9" fill-opacity="0.5" stroke="#606060" stroke-width="1.0"/>
   <path id="arrow"
     d="M 11.500037,31.436501 C 11.940474,20.09759 22.043105,11.32322 32.158766,21.979434 L 37.068811,17.246167 C 37.068811,17.246167 37.088388,32 37.088388,32 L 22.160133,31.978069 C 22.160133,31.978069 26.997745,27.140456 26.997745,27.140456 C 18.528582,18.264221 13.291696,25.230495 11.500037,31.436501 z"
     style="fill:#404040;"/>
  </a>
 </g>
</svg>

<style type='text/css'>
<![CDATA[
[data-mouse-over-selected='false'] { opacity: 0.7; }
[data-mouse-over-selected='true']  { opacity: 1.0; }
]]>
</style>
<script type="application/ecmascript"><![CDATA[
document.addEventListener('DOMContentLoaded', (event) => {
  highlightEdges();
  highlightAdjacentNodes();
});
]]></script>
</svg>
