<?xml version="1.0" encoding="UTF-8" standalone="no"?>
<!DOCTYPE svg PUBLIC "-//W3C//DTD SVG 1.1//EN"
 "http://www.w3.org/Graphics/SVG/1.1/DTD/svg11.dtd">
<!-- Generated by graphviz version 2.43.0 (0)
 -->
<!-- Title: include/astaroth_lib.h Pages: 1 -->
<svg width="6553pt" height="159pt"
 viewBox="0.00 0.00 6553.00 159.00" xmlns="http://www.w3.org/2000/svg" xmlns:xlink="http://www.w3.org/1999/xlink">
<g id="graph0" class="graph" transform="scale(1 1) rotate(0) translate(4 155)">
<title>include/astaroth_lib.h</title>
<!-- Node1 -->
<g id="Node000001" class="node">
<title>Node1</title>
<g id="a_Node000001"><a xlink:title=" ">
<polygon fill="#999999" stroke="#666666" points="3254,-151 3132,-151 3132,-132 3254,-132 3254,-151"/>
<text text-anchor="middle" x="3193" y="-139" font-family="Helvetica,sans-Serif" font-size="10.00">include/astaroth_lib.h</text>
</a>
</g>
</g>
<!-- Node2 -->
<g id="Node000002" class="node">
<title>Node2</title>
<g id="a_Node000002"><a xlink:href="astaroth__utils_8h.html" target="_top" xlink:title="Functions for loading and updating AcMeshInfo.">
<polygon fill="white" stroke="#666666" points="3258.5,-96 3127.5,-96 3127.5,-77 3258.5,-77 3258.5,-96"/>
<text text-anchor="middle" x="3193" y="-84" font-family="Helvetica,sans-Serif" font-size="10.00">include/astaroth_utils.h</text>
</a>
</g>
</g>
<!-- Node1&#45;&gt;Node2 -->
<g id="edge1_Node000001_Node000002" class="edge">
<title>Node1&#45;&gt;Node2</title>
<g id="a_edge1_Node000001_Node000002"><a xlink:title=" ">
<path fill="none" stroke="#63b8ff" d="M3193,-121.66C3193,-112.93 3193,-102.99 3193,-96.09"/>
<polygon fill="#63b8ff" stroke="#63b8ff" points="3189.5,-121.75 3193,-131.75 3196.5,-121.75 3189.5,-121.75"/>
</a>
</g>
</g>
<!-- Node3 -->
<g id="Node000003" class="node">
<title>Node3</title>
<g id="a_Node000003"><a xlink:href="config__loader_8cc.html" target="_top" xlink:title="Brief info.">
<polygon fill="white" stroke="#666666" points="136,-30 0,-30 0,-11 136,-11 136,-30"/>
<text text-anchor="middle" x="68" y="-18" font-family="Helvetica,sans-Serif" font-size="10.00">src/utils/config_loader.cc</text>
</a>
</g>
</g>
<!-- Node2&#45;&gt;Node3 -->
<g id="edge2_Node000002_Node000003" class="edge">
<title>Node2&#45;&gt;Node3</title>
<g id="a_edge2_Node000002_Node000003"><a xlink:title=" ">
<path fill="none" stroke="#63b8ff" d="M3117.28,-85.45C2676.21,-85.03 447.34,-80.93 145,-41 128.18,-38.78 109.75,-34.19 95.14,-30.02"/>
<polygon fill="#63b8ff" stroke="#63b8ff" points="3117.36,-88.95 3127.37,-85.46 3117.37,-81.95 3117.36,-88.95"/>
</a>
</g>
</g>
<!-- Node4 -->
<g id="Node000004" class="node">
<title>Node4</title>
<g id="a_Node000004"><a xlink:href="memory_8cc.html" target="_top" xlink:title=" ">
<polygon fill="white" stroke="#666666" points="265.5,-30 154.5,-30 154.5,-11 265.5,-11 265.5,-30"/>
<text text-anchor="middle" x="210" y="-18" font-family="Helvetica,sans-Serif" font-size="10.00">src/utils/memory.cc</text>
</a>
</g>
</g>
<!-- Node2&#45;&gt;Node4 -->
<g id="edge3_Node000002_Node000004" class="edge">
<title>Node2&#45;&gt;Node4</title>
<g id="a_edge3_Node000002_Node000004"><a xlink:title=" ">
<path fill="none" stroke="#63b8ff" d="M3117.04,-85.61C2686.5,-86.09 561.76,-86.11 274,-41 259.89,-38.79 244.56,-34.2 232.44,-30.03"/>
<polygon fill="#63b8ff" stroke="#63b8ff" points="3117.2,-89.11 3127.19,-85.6 3117.19,-82.11 3117.2,-89.11"/>
</a>
</g>
</g>
<!-- Node5 -->
<g id="Node000005" class="node">
<title>Node5</title>
<g id="a_Node000005"><a xlink:href="modelreduce_8cc.html" target="_top" xlink:title="Brief info.">
<polygon fill="white" stroke="#666666" points="418.5,-30 283.5,-30 283.5,-11 418.5,-11 418.5,-30"/>
<text text-anchor="middle" x="351" y="-18" font-family="Helvetica,sans-Serif" font-size="10.00">src/utils/modelreduce.cc</text>
</a>
</g>
</g>
<!-- Node2&#45;&gt;Node5 -->
<g id="edge4_Node000002_Node000005" class="edge">
<title>Node2&#45;&gt;Node5</title>
<g id="a_edge4_Node000002_Node000005"><a xlink:title=" ">
<path fill="none" stroke="#63b8ff" d="M3117.1,-85.33C2700.51,-84.25 700.63,-77.22 428,-41 411.19,-38.77 392.75,-34.18 378.14,-30.01"/>
<polygon fill="#63b8ff" stroke="#63b8ff" points="3117.22,-88.83 3127.23,-85.36 3117.23,-81.83 3117.22,-88.83"/>
</a>
</g>
</g>
<!-- Node6 -->
<g id="Node000006" class="node">
<title>Node6</title>
<g id="a_Node000006"><a xlink:href="modelsolver-legacy-do-not-modify_8c.html" target="_top" xlink:title=" ">
<polygon fill="white" stroke="#666666" points="569,-35.5 437,-35.5 437,-5.5 569,-5.5 569,-35.5"/>
<text text-anchor="start" x="445" y="-23.5" font-family="Helvetica,sans-Serif" font-size="10.00">src/utils/modelsolver</text>
<text text-anchor="middle" x="503" y="-12.5" font-family="Helvetica,sans-Serif" font-size="10.00">&#45;legacy&#45;do&#45;not&#45;modify.c</text>
</a>
</g>
</g>
<!-- Node2&#45;&gt;Node6 -->
<g id="edge5_Node000002_Node000006" class="edge">
<title>Node2&#45;&gt;Node6</title>
<g id="a_edge5_Node000002_Node000006"><a xlink:title=" ">
<path fill="none" stroke="#63b8ff" d="M3117.36,-85.28C2715.03,-83.98 834.89,-76.07 578,-41 568.8,-39.74 559.11,-37.75 549.87,-35.5"/>
<polygon fill="#63b8ff" stroke="#63b8ff" points="3117.42,-88.78 3127.43,-85.32 3117.44,-81.78 3117.42,-88.78"/>
</a>
</g>
</g>
<!-- Node7 -->
<g id="Node000007" class="node">
<title>Node7</title>
<g id="a_Node000007"><a xlink:href="modelsolver_8cc.html" target="_top" xlink:title="Brief info.">
<polygon fill="white" stroke="#666666" points="718.5,-30 587.5,-30 587.5,-11 718.5,-11 718.5,-30"/>
<text text-anchor="middle" x="653" y="-18" font-family="Helvetica,sans-Serif" font-size="10.00">src/utils/modelsolver.cc</text>
</a>
</g>
</g>
<!-- Node2&#45;&gt;Node7 -->
<g id="edge6_Node000002_Node000007" class="edge">
<title>Node2&#45;&gt;Node7</title>
<g id="a_edge6_Node000002_Node000007"><a xlink:title=" ">
<path fill="none" stroke="#63b8ff" d="M3117.35,-85.2C2729.1,-83.51 969.23,-74.06 728,-41 711.61,-38.75 693.65,-34.16 679.42,-30"/>
<polygon fill="#63b8ff" stroke="#63b8ff" points="3117.33,-88.7 3127.35,-85.24 3117.36,-81.7 3117.33,-88.7"/>
</a>
</g>
</g>
<!-- Node8 -->
<g id="Node000008" class="node">
<title>Node8</title>
<g id="a_Node000008"><a xlink:href="verification_8cc.html" target="_top" xlink:title=" ">
<polygon fill="white" stroke="#666666" points="863,-30 737,-30 737,-11 863,-11 863,-30"/>
<text text-anchor="middle" x="800" y="-18" font-family="Helvetica,sans-Serif" font-size="10.00">src/utils/verification.cc</text>
</a>
</g>
</g>
<!-- Node2&#45;&gt;Node8 -->
<g id="edge7_Node000002_Node000008" class="edge">
<title>Node2&#45;&gt;Node8</title>
<g id="a_edge7_Node000002_Node000008"><a xlink:title=" ">
<path fill="none" stroke="#63b8ff" d="M3117.28,-85.15C2742.83,-83.28 1098.05,-73.28 872,-41 856.36,-38.77 839.27,-34.23 825.67,-30.1"/>
<polygon fill="#63b8ff" stroke="#63b8ff" points="3117.44,-88.65 3127.46,-85.2 3117.48,-81.65 3117.44,-88.65"/>
</a>
</g>
</g>
<!-- Node9 -->
<g id="Node000009" class="node">
<title>Node9</title>
<g id="a_Node000009"><a xlink:href="1d-test_2main_8cc.html" target="_top" xlink:title=" ">
<polygon fill="white" stroke="#666666" points="995,-30 881,-30 881,-11 995,-11 995,-30"/>
<text text-anchor="middle" x="938" y="-18" font-family="Helvetica,sans-Serif" font-size="10.00">test/1d&#45;test/main.cc</text>
</a>
</g>
</g>
<!-- Node2&#45;&gt;Node9 -->
<g id="edge8_Node000002_Node000009" class="edge">
<title>Node2&#45;&gt;Node9</title>
<g id="a_edge8_Node000002_Node000009"><a xlink:title=" ">
<path fill="none" stroke="#63b8ff" d="M3117.2,-85.16C2755.73,-83.37 1215.95,-73.86 1004,-41 989.6,-38.77 973.93,-34.23 961.48,-30.1"/>
<polygon fill="#63b8ff" stroke="#63b8ff" points="3117.27,-88.66 3127.29,-85.21 3117.31,-81.66 3117.27,-88.66"/>
</a>
</g>
</g>
<!-- Node10 -->
<g id="Node000010" class="node">
<title>Node10</title>
<g id="a_Node000010"><a xlink:href="2d-test_2main_8cc.html" target="_top" xlink:title=" ">
<polygon fill="white" stroke="#666666" points="1127,-30 1013,-30 1013,-11 1127,-11 1127,-30"/>
<text text-anchor="middle" x="1070" y="-18" font-family="Helvetica,sans-Serif" font-size="10.00">test/2d&#45;test/main.cc</text>
</a>
</g>
</g>
<!-- Node2&#45;&gt;Node10 -->
<g id="edge9_Node000002_Node000010" class="edge">
<title>Node2&#45;&gt;Node10</title>
<g id="a_edge9_Node000002_Node000010"><a xlink:title=" ">
<path fill="none" stroke="#63b8ff" d="M3117,-85.05C2768.8,-82.83 1334.24,-71.87 1136,-41 1121.6,-38.76 1105.93,-34.22 1093.48,-30.09"/>
<polygon fill="#63b8ff" stroke="#63b8ff" points="3117.21,-88.55 3127.23,-85.12 3117.25,-81.55 3117.21,-88.55"/>
</a>
</g>
</g>
<!-- Node11 -->
<g id="Node000011" class="node">
<title>Node11</title>
<g id="a_Node000011"><a xlink:href="arr-test_2main_8cc.html" target="_top" xlink:title=" ">
<polygon fill="white" stroke="#666666" points="1261,-30 1145,-30 1145,-11 1261,-11 1261,-30"/>
<text text-anchor="middle" x="1203" y="-18" font-family="Helvetica,sans-Serif" font-size="10.00">test/arr&#45;test/main.cc</text>
</a>
</g>
</g>
<!-- Node2&#45;&gt;Node11 -->
<g id="edge10_Node000002_Node000011" class="edge">
<title>Node2&#45;&gt;Node11</title>
<g id="a_edge10_Node000002_Node000011"><a xlink:title=" ">
<path fill="none" stroke="#63b8ff" d="M3117.35,-84.91C2783.99,-82.16 1454.51,-69.49 1270,-41 1255.39,-38.74 1239.49,-34.21 1226.85,-30.08"/>
<polygon fill="#63b8ff" stroke="#63b8ff" points="3117.36,-88.41 3127.38,-84.99 3117.41,-81.41 3117.36,-88.41"/>
</a>
</g>
</g>
<!-- Node12 -->
<g id="Node000012" class="node">
<title>Node12</title>
<g id="a_Node000012"><a xlink:href="average-stencil_2main_8cc.html" target="_top" xlink:title=" ">
<polygon fill="white" stroke="#666666" points="1393,-35.5 1279,-35.5 1279,-5.5 1393,-5.5 1393,-35.5"/>
<text text-anchor="start" x="1287" y="-23.5" font-family="Helvetica,sans-Serif" font-size="10.00">test/average&#45;stencil</text>
<text text-anchor="middle" x="1336" y="-12.5" font-family="Helvetica,sans-Serif" font-size="10.00">/main.cc</text>
</a>
</g>
</g>
<!-- Node2&#45;&gt;Node12 -->
<g id="edge11_Node000002_Node000012" class="edge">
<title>Node2&#45;&gt;Node12</title>
<g id="a_edge11_Node000002_Node000012"><a xlink:title=" ">
<path fill="none" stroke="#63b8ff" d="M3117.36,-84.79C2798.53,-81.64 1572.83,-67.88 1402,-41 1393.97,-39.74 1385.56,-37.77 1377.52,-35.56"/>
<polygon fill="#63b8ff" stroke="#63b8ff" points="3117.39,-88.29 3127.42,-84.89 3117.46,-81.29 3117.39,-88.29"/>
</a>
</g>
</g>
<!-- Node13 -->
<g id="Node000013" class="node">
<title>Node13</title>
<g id="a_Node000013"><a xlink:href="bicgstab-test_2main_8cc.html" target="_top" xlink:title=" ">
<polygon fill="white" stroke="#666666" points="1513,-35.5 1411,-35.5 1411,-5.5 1513,-5.5 1513,-35.5"/>
<text text-anchor="start" x="1419" y="-23.5" font-family="Helvetica,sans-Serif" font-size="10.00">test/bicgstab&#45;test</text>
<text text-anchor="middle" x="1462" y="-12.5" font-family="Helvetica,sans-Serif" font-size="10.00">/main.cc</text>
</a>
</g>
</g>
<!-- Node2&#45;&gt;Node13 -->
<g id="edge12_Node000002_Node000013" class="edge">
<title>Node2&#45;&gt;Node13</title>
<g id="a_edge12_Node000002_Node000013"><a xlink:title=" ">
<path fill="none" stroke="#63b8ff" d="M3117.17,-84.76C2811.69,-81.61 1680.1,-68.21 1522,-41 1514.66,-39.74 1506.99,-37.77 1499.67,-35.56"/>
<polygon fill="#63b8ff" stroke="#63b8ff" points="3117.22,-88.26 3127.26,-84.87 3117.29,-81.26 3117.22,-88.26"/>
</a>
</g>
</g>
<!-- Node14 -->
<g id="Node000014" class="node">
<title>Node14</title>
<g id="a_Node000014"><a xlink:href="boundary-halo-exchange-test_2main_8cc.html" target="_top" xlink:title=" ">
<polygon fill="white" stroke="#666666" points="1662.5,-35.5 1531.5,-35.5 1531.5,-5.5 1662.5,-5.5 1662.5,-35.5"/>
<text text-anchor="start" x="1539.5" y="-23.5" font-family="Helvetica,sans-Serif" font-size="10.00">test/boundary&#45;halo</text>
<text text-anchor="middle" x="1597" y="-12.5" font-family="Helvetica,sans-Serif" font-size="10.00">&#45;exchange&#45;test/main.cc</text>
</a>
</g>
</g>
<!-- Node2&#45;&gt;Node14 -->
<g id="edge13_Node000002_Node000014" class="edge">
<title>Node2&#45;&gt;Node14</title>
<g id="a_edge13_Node000002_Node000014"><a xlink:title=" ">
<path fill="none" stroke="#63b8ff" d="M3117.01,-85.57C2849.87,-85.46 1954.68,-81.97 1671,-41 1662.06,-39.71 1652.65,-37.73 1643.64,-35.51"/>
<polygon fill="#63b8ff" stroke="#63b8ff" points="3117.38,-89.07 3127.38,-85.57 3117.38,-82.07 3117.38,-89.07"/>
</a>
</g>
</g>
<!-- Node15 -->
<g id="Node000015" class="node">
<title>Node15</title>
<g id="a_Node000015"><a xlink:href="cg-test_2main_8cc.html" target="_top" xlink:title=" ">
<polygon fill="white" stroke="#666666" points="1793.5,-30 1680.5,-30 1680.5,-11 1793.5,-11 1793.5,-30"/>
<text text-anchor="middle" x="1737" y="-18" font-family="Helvetica,sans-Serif" font-size="10.00">test/cg&#45;test/main.cc</text>
</a>
</g>
</g>
<!-- Node2&#45;&gt;Node15 -->
<g id="edge14_Node000002_Node000015" class="edge">
<title>Node2&#45;&gt;Node15</title>
<g id="a_edge14_Node000002_Node000015"><a xlink:title=" ">
<path fill="none" stroke="#63b8ff" d="M3117.25,-85.62C2865.65,-85.6 2059.27,-82.26 1803,-41 1788.61,-38.68 1772.94,-34.15 1760.49,-30.03"/>
<polygon fill="#63b8ff" stroke="#63b8ff" points="3117.39,-89.12 3127.39,-85.61 3117.39,-82.12 3117.39,-89.12"/>
</a>
</g>
</g>
<!-- Node16 -->
<g id="Node000016" class="node">
<title>Node16</title>
<g id="a_Node000016"><a xlink:href="compact-poisson-test_2main_8cc.html" target="_top" xlink:title=" ">
<polygon fill="white" stroke="#666666" points="1934,-35.5 1812,-35.5 1812,-5.5 1934,-5.5 1934,-35.5"/>
<text text-anchor="start" x="1820" y="-23.5" font-family="Helvetica,sans-Serif" font-size="10.00">test/compact&#45;poisson</text>
<text text-anchor="middle" x="1873" y="-12.5" font-family="Helvetica,sans-Serif" font-size="10.00">&#45;test/main.cc</text>
</a>
</g>
</g>
<!-- Node2&#45;&gt;Node16 -->
<g id="edge15_Node000002_Node000016" class="edge">
<title>Node2&#45;&gt;Node16</title>
<g id="a_edge15_Node000002_Node000016"><a xlink:title=" ">
<path fill="none" stroke="#63b8ff" d="M3117.04,-85.14C2882.37,-83.67 2171.1,-76.32 1943,-41 1934.65,-39.71 1925.87,-37.75 1917.47,-35.58"/>
<polygon fill="#63b8ff" stroke="#63b8ff" points="3117.16,-88.64 3127.18,-85.2 3117.21,-81.64 3117.16,-88.64"/>
</a>
</g>
</g>
<!-- Node17 -->
<g id="Node000017" class="node">
<title>Node17</title>
<g id="a_Node000017"><a xlink:href="constant-values_2main_8cc.html" target="_top" xlink:title=" ">
<polygon fill="white" stroke="#666666" points="2068,-35.5 1952,-35.5 1952,-5.5 2068,-5.5 2068,-35.5"/>
<text text-anchor="start" x="1960" y="-23.5" font-family="Helvetica,sans-Serif" font-size="10.00">test/constant&#45;values</text>
<text text-anchor="middle" x="2010" y="-12.5" font-family="Helvetica,sans-Serif" font-size="10.00">/main.cc</text>
</a>
</g>
</g>
<!-- Node2&#45;&gt;Node17 -->
<g id="edge16_Node000002_Node000017" class="edge">
<title>Node2&#45;&gt;Node17</title>
<g id="a_edge16_Node000002_Node000017"><a xlink:title=" ">
<path fill="none" stroke="#63b8ff" d="M3117.44,-84.88C2900.43,-82.72 2277.99,-73.75 2077,-41 2068.99,-39.69 2060.58,-37.74 2052.53,-35.56"/>
<polygon fill="#63b8ff" stroke="#63b8ff" points="3117.43,-88.38 3127.47,-84.98 3117.5,-81.38 3117.43,-88.38"/>
</a>
</g>
</g>
<!-- Node18 -->
<g id="Node000018" class="node">
<title>Node18</title>
<g id="a_Node000018"><a xlink:href="main_8cu.html" target="_top" xlink:title=" ">
<polygon fill="white" stroke="#666666" points="2182,-35.5 2086,-35.5 2086,-5.5 2182,-5.5 2182,-35.5"/>
<text text-anchor="start" x="2094" y="-23.5" font-family="Helvetica,sans-Serif" font-size="10.00">test/fft&#45;shift&#45;test</text>
<text text-anchor="middle" x="2134" y="-12.5" font-family="Helvetica,sans-Serif" font-size="10.00">/main.cu</text>
</a>
</g>
</g>
<!-- Node2&#45;&gt;Node18 -->
<g id="edge17_Node000002_Node000018" class="edge">
<title>Node2&#45;&gt;Node18</title>
<g id="a_edge17_Node000002_Node000018"><a xlink:title=" ">
<path fill="none" stroke="#63b8ff" d="M3117.18,-84.92C2915.35,-82.94 2368.31,-74.55 2191,-41 2184.11,-39.7 2176.93,-37.74 2170.07,-35.56"/>
<polygon fill="#63b8ff" stroke="#63b8ff" points="3117.36,-88.43 3127.39,-85.02 3117.43,-81.43 3117.36,-88.43"/>
</a>
</g>
</g>
<!-- Node19 -->
<g id="Node000019" class="node">
<title>Node19</title>
<g id="a_Node000019"><a xlink:href="fft-test_2main_8cc.html" target="_top" xlink:title=" ">
<polygon fill="white" stroke="#666666" points="2313.5,-30 2200.5,-30 2200.5,-11 2313.5,-11 2313.5,-30"/>
<text text-anchor="middle" x="2257" y="-18" font-family="Helvetica,sans-Serif" font-size="10.00">test/fft&#45;test/main.cc</text>
</a>
</g>
</g>
<!-- Node2&#45;&gt;Node19 -->
<g id="edge18_Node000002_Node000019" class="edge">
<title>Node2&#45;&gt;Node19</title>
<g id="a_edge18_Node000002_Node000019"><a xlink:title=" ">
<path fill="none" stroke="#63b8ff" d="M3117.36,-83.97C2934.77,-79.89 2473.83,-67.26 2322,-41 2307.95,-38.57 2292.66,-34.08 2280.44,-30.02"/>
<polygon fill="#63b8ff" stroke="#63b8ff" points="3117.33,-87.47 3127.41,-84.19 3117.49,-80.47 3117.33,-87.47"/>
</a>
</g>
</g>
<!-- Node20 -->
<g id="Node000020" class="node">
<title>Node20</title>
<g id="a_Node000020"><a xlink:href="field-arr-test_2main_8cc.html" target="_top" xlink:title=" ">
<polygon fill="white" stroke="#666666" points="2430.5,-35.5 2331.5,-35.5 2331.5,-5.5 2430.5,-5.5 2430.5,-35.5"/>
<text text-anchor="start" x="2339.5" y="-23.5" font-family="Helvetica,sans-Serif" font-size="10.00">test/field&#45;arr&#45;test</text>
<text text-anchor="middle" x="2381" y="-12.5" font-family="Helvetica,sans-Serif" font-size="10.00">/main.cc</text>
</a>
</g>
</g>
<!-- Node2&#45;&gt;Node20 -->
<g id="edge19_Node000002_Node000020" class="edge">
<title>Node2&#45;&gt;Node20</title>
<g id="a_edge19_Node000002_Node000020"><a xlink:title=" ">
<path fill="none" stroke="#63b8ff" d="M3117.48,-83.53C2953.26,-78.84 2568.19,-65.54 2440,-41 2433.01,-39.66 2425.7,-37.72 2418.7,-35.57"/>
<polygon fill="#63b8ff" stroke="#63b8ff" points="3117.4,-87.03 3127.49,-83.81 3117.6,-80.03 3117.4,-87.03"/>
</a>
</g>
</g>
<!-- Node21 -->
<g id="Node000021" class="node">
<title>Node21</title>
<g id="a_Node000021"><a xlink:href="grid-calculation_2main_8cc.html" target="_top" xlink:title=" ">
<polygon fill="white" stroke="#666666" points="2563,-35.5 2449,-35.5 2449,-5.5 2563,-5.5 2563,-35.5"/>
<text text-anchor="start" x="2457" y="-23.5" font-family="Helvetica,sans-Serif" font-size="10.00">test/grid&#45;calculation</text>
<text text-anchor="middle" x="2506" y="-12.5" font-family="Helvetica,sans-Serif" font-size="10.00">/main.cc</text>
</a>
</g>
</g>
<!-- Node2&#45;&gt;Node21 -->
<g id="edge20_Node000002_Node000021" class="edge">
<title>Node2&#45;&gt;Node21</title>
<g id="a_edge20_Node000002_Node000021"><a xlink:title=" ">
<path fill="none" stroke="#63b8ff" d="M3116.81,-85.31C2999.03,-83.83 2766.09,-76.2 2572,-41 2564.36,-39.61 2556.34,-37.67 2548.63,-35.55"/>
<polygon fill="#63b8ff" stroke="#63b8ff" points="3117.11,-88.81 3127.15,-85.42 3117.19,-81.81 3117.11,-88.81"/>
</a>
</g>
</g>
<!-- Node22 -->
<g id="Node000022" class="node">
<title>Node22</title>
<g id="a_Node000022"><a xlink:href="inplace__gaussian-test_2main_8cc.html" target="_top" xlink:title=" ">
<polygon fill="white" stroke="#666666" points="2703,-35.5 2581,-35.5 2581,-5.5 2703,-5.5 2703,-35.5"/>
<text text-anchor="start" x="2589" y="-23.5" font-family="Helvetica,sans-Serif" font-size="10.00">test/inplace_gaussian</text>
<text text-anchor="middle" x="2642" y="-12.5" font-family="Helvetica,sans-Serif" font-size="10.00">&#45;test/main.cc</text>
</a>
</g>
</g>
<!-- Node2&#45;&gt;Node22 -->
<g id="edge21_Node000002_Node000022" class="edge">
<title>Node2&#45;&gt;Node22</title>
<g id="a_edge21_Node000002_Node000022"><a xlink:title=" ">
<path fill="none" stroke="#63b8ff" d="M3117.02,-82.68C3021.72,-78.19 2853.65,-67.06 2712,-41 2704.18,-39.56 2695.97,-37.65 2688.04,-35.59"/>
<polygon fill="#63b8ff" stroke="#63b8ff" points="3116.99,-86.18 3127.14,-83.15 3117.31,-79.19 3116.99,-86.18"/>
</a>
</g>
</g>
<!-- Node23 -->
<g id="Node000023" class="node">
<title>Node23</title>
<g id="a_Node000023"><a xlink:href="integration-test_2main_8cc.html" target="_top" xlink:title=" ">
<polygon fill="white" stroke="#666666" points="2835,-35.5 2721,-35.5 2721,-5.5 2835,-5.5 2835,-35.5"/>
<text text-anchor="start" x="2729" y="-23.5" font-family="Helvetica,sans-Serif" font-size="10.00">test/integration&#45;test</text>
<text text-anchor="middle" x="2778" y="-12.5" font-family="Helvetica,sans-Serif" font-size="10.00">/main.cc</text>
</a>
</g>
</g>
<!-- Node2&#45;&gt;Node23 -->
<g id="edge22_Node000002_Node000023" class="edge">
<title>Node2&#45;&gt;Node23</title>
<g id="a_edge22_Node000002_Node000023"><a xlink:title=" ">
<path fill="none" stroke="#63b8ff" d="M3116.98,-79.35C3045.89,-72.76 2937.01,-60.54 2844,-41 2836.87,-39.5 2829.39,-37.61 2822.13,-35.6"/>
<polygon fill="#63b8ff" stroke="#63b8ff" points="3116.91,-82.86 3127.19,-80.28 3117.55,-75.89 3116.91,-82.86"/>
</a>
</g>
</g>
<!-- Node24 -->
<g id="Node000024" class="node">
<title>Node24</title>
<g id="a_Node000024"><a xlink:href="iterative-refinement-test_2main_8cc.html" target="_top" xlink:title=" ">
<polygon fill="white" stroke="#666666" points="2990.5,-35.5 2853.5,-35.5 2853.5,-5.5 2990.5,-5.5 2990.5,-35.5"/>
<text text-anchor="start" x="2861.5" y="-23.5" font-family="Helvetica,sans-Serif" font-size="10.00">test/iterative&#45;refinement</text>
<text text-anchor="middle" x="2922" y="-12.5" font-family="Helvetica,sans-Serif" font-size="10.00">&#45;test/main.cc</text>
</a>
</g>
</g>
<!-- Node2&#45;&gt;Node24 -->
<g id="edge23_Node000002_Node000024" class="edge">
<title>Node2&#45;&gt;Node24</title>
<g id="a_edge23_Node000002_Node000024"><a xlink:title=" ">
<path fill="none" stroke="#63b8ff" d="M3144.83,-74.65C3105.75,-65.79 3049.26,-52.84 3000,-41 2992.81,-39.27 2985.25,-37.42 2977.79,-35.58"/>
<polygon fill="#63b8ff" stroke="#63b8ff" points="3144.34,-78.13 3154.87,-76.92 3145.89,-71.3 3144.34,-78.13"/>
</a>
</g>
</g>
<!-- Node25 -->
<g id="Node000025" class="node">
<title>Node25</title>
<g id="a_Node000025"><a xlink:href="kernel-fusion-test_2main_8cc.html" target="_top" xlink:title=" ">
<polygon fill="white" stroke="#666666" points="3111,-35.5 3009,-35.5 3009,-5.5 3111,-5.5 3111,-35.5"/>
<text text-anchor="start" x="3017" y="-23.5" font-family="Helvetica,sans-Serif" font-size="10.00">test/kernel&#45;fusion</text>
<text text-anchor="middle" x="3060" y="-12.5" font-family="Helvetica,sans-Serif" font-size="10.00">&#45;test/main.cc</text>
</a>
</g>
</g>
<!-- Node2&#45;&gt;Node25 -->
<g id="edge24_Node000002_Node000025" class="edge">
<title>Node2&#45;&gt;Node25</title>
<g id="a_edge24_Node000002_Node000025"><a xlink:title=" ">
<path fill="none" stroke="#63b8ff" d="M3165.84,-72.43C3143.59,-61.72 3112.16,-46.6 3089.33,-35.62"/>
<polygon fill="#63b8ff" stroke="#63b8ff" points="3164.53,-75.69 3175.06,-76.87 3167.57,-69.38 3164.53,-75.69"/>
</a>
</g>
</g>
<!-- Node26 -->
<g id="Node000026" class="node">
<title>Node26</title>
<g id="a_Node000026"><a xlink:href="mpi-profile-reduce_2main_8cc.html" target="_top" xlink:title=" ">
<polygon fill="white" stroke="#666666" points="3257,-35.5 3129,-35.5 3129,-5.5 3257,-5.5 3257,-35.5"/>
<text text-anchor="start" x="3137" y="-23.5" font-family="Helvetica,sans-Serif" font-size="10.00">test/mpi&#45;profile&#45;reduce</text>
<text text-anchor="middle" x="3193" y="-12.5" font-family="Helvetica,sans-Serif" font-size="10.00">/main.cc</text>
</a>
</g>
</g>
<!-- Node2&#45;&gt;Node26 -->
<g id="edge25_Node000002_Node000026" class="edge">
<title>Node2&#45;&gt;Node26</title>
<g id="a_edge25_Node000002_Node000026"><a xlink:title=" ">
<path fill="none" stroke="#63b8ff" d="M3193,-66.85C3193,-56.97 3193,-45.01 3193,-35.86"/>
<polygon fill="#63b8ff" stroke="#63b8ff" points="3189.5,-66.87 3193,-76.87 3196.5,-66.87 3189.5,-66.87"/>
</a>
</g>
</g>
<!-- Node27 -->
<g id="Node000027" class="node">
<title>Node27</title>
<g id="a_Node000027"><a xlink:href="multigrid-tests_2anisotropic-test_2main_8cc.html" target="_top" xlink:title=" ">
<polygon fill="white" stroke="#666666" points="3412.5,-35.5 3275.5,-35.5 3275.5,-5.5 3412.5,-5.5 3412.5,-35.5"/>
<text text-anchor="start" x="3283.5" y="-23.5" font-family="Helvetica,sans-Serif" font-size="10.00">test/multigrid&#45;tests</text>
<text text-anchor="middle" x="3344" y="-12.5" font-family="Helvetica,sans-Serif" font-size="10.00">/anisotropic&#45;test/main.cc</text>
</a>
</g>
</g>
<!-- Node2&#45;&gt;Node27 -->
<g id="edge26_Node000002_Node000027" class="edge">
<title>Node2&#45;&gt;Node27</title>
<g id="a_edge26_Node000002_Node000027"><a xlink:title=" ">
<path fill="none" stroke="#63b8ff" d="M3222.82,-72.86C3248.13,-62.13 3284.43,-46.75 3310.7,-35.62"/>
<polygon fill="#63b8ff" stroke="#63b8ff" points="3221.21,-69.74 3213.36,-76.87 3223.94,-76.19 3221.21,-69.74"/>
</a>
</g>
</g>
<!-- Node28 -->
<g id="Node000028" class="node">
<title>Node28</title>
<g id="a_Node000028"><a xlink:href="multigrid-tests_2compact-stencil-multigrid-test_2main_8cc.html" target="_top" xlink:title=" ">
<polygon fill="white" stroke="#666666" points="3577,-41 3431,-41 3431,0 3577,0 3577,-41"/>
<text text-anchor="start" x="3439" y="-29" font-family="Helvetica,sans-Serif" font-size="10.00">test/multigrid&#45;tests</text>
<text text-anchor="start" x="3439" y="-18" font-family="Helvetica,sans-Serif" font-size="10.00">/compact&#45;stencil&#45;multigrid</text>
<text text-anchor="middle" x="3504" y="-7" font-family="Helvetica,sans-Serif" font-size="10.00">&#45;test/main.cc</text>
</a>
</g>
</g>
<!-- Node2&#45;&gt;Node28 -->
<g id="edge27_Node000002_Node000028" class="edge">
<title>Node2&#45;&gt;Node28</title>
<g id="a_edge27_Node000002_Node000028"><a xlink:title=" ">
<path fill="none" stroke="#63b8ff" d="M3249.91,-75.12C3296.33,-66.49 3363.54,-53.62 3422,-41 3424.86,-40.38 3427.77,-39.74 3430.72,-39.09"/>
<polygon fill="#63b8ff" stroke="#63b8ff" points="3249.24,-71.69 3240.04,-76.95 3250.52,-78.57 3249.24,-71.69"/>
</a>
</g>
</g>
<!-- Node29 -->
<g id="Node000029" class="node">
<title>Node29</title>
<g id="a_Node000029"><a xlink:href="multigrid-tests_2line-smoother-multigrid-test_2main_8cc.html" target="_top" xlink:title=" ">
<polygon fill="white" stroke="#666666" points="3731,-41 3595,-41 3595,0 3731,0 3731,-41"/>
<text text-anchor="start" x="3603" y="-29" font-family="Helvetica,sans-Serif" font-size="10.00">test/multigrid&#45;tests</text>
<text text-anchor="start" x="3603" y="-18" font-family="Helvetica,sans-Serif" font-size="10.00">/line&#45;smoother&#45;multigrid</text>
<text text-anchor="middle" x="3663" y="-7" font-family="Helvetica,sans-Serif" font-size="10.00">&#45;test/main.cc</text>
</a>
</g>
</g>
<!-- Node2&#45;&gt;Node29 -->
<g id="edge28_Node000002_Node000029" class="edge">
<title>Node2&#45;&gt;Node29</title>
<g id="a_edge28_Node000002_Node000029"><a xlink:title=" ">
<path fill="none" stroke="#63b8ff" d="M3269.17,-79.95C3348.67,-73.44 3476.74,-60.93 3586,-41 3588.85,-40.48 3591.75,-39.91 3594.67,-39.31"/>
<polygon fill="#63b8ff" stroke="#63b8ff" points="3268.45,-76.49 3258.76,-80.79 3269.01,-83.47 3268.45,-76.49"/>
</a>
</g>
</g>
<!-- Node30 -->
<g id="Node000030" class="node">
<title>Node30</title>
<g id="a_Node000030"><a xlink:href="multigrid-tests_2multigrid-test_2main_8cc.html" target="_top" xlink:title=" ">
<polygon fill="white" stroke="#666666" points="3877,-35.5 3749,-35.5 3749,-5.5 3877,-5.5 3877,-35.5"/>
<text text-anchor="start" x="3757" y="-23.5" font-family="Helvetica,sans-Serif" font-size="10.00">test/multigrid&#45;tests</text>
<text text-anchor="middle" x="3813" y="-12.5" font-family="Helvetica,sans-Serif" font-size="10.00">/multigrid&#45;test/main.cc</text>
</a>
</g>
</g>
<!-- Node2&#45;&gt;Node30 -->
<g id="edge29_Node000002_Node000030" class="edge">
<title>Node2&#45;&gt;Node30</title>
<g id="a_edge29_Node000002_Node000030"><a xlink:title=" ">
<path fill="none" stroke="#63b8ff" d="M3269.03,-83.63C3375.18,-80.04 3573.5,-69.77 3740,-41 3748.27,-39.57 3756.97,-37.64 3765.37,-35.54"/>
<polygon fill="#63b8ff" stroke="#63b8ff" points="3268.61,-80.14 3258.73,-83.96 3268.84,-87.13 3268.61,-80.14"/>
</a>
</g>
</g>
<!-- Node31 -->
<g id="Node000031" class="node">
<title>Node31</title>
<g id="a_Node000031"><a xlink:href="multigrid-tests_2non-equidistant-test_2main_8cc.html" target="_top" xlink:title=" ">
<polygon fill="white" stroke="#666666" points="4014.5,-41 3895.5,-41 3895.5,0 4014.5,0 4014.5,-41"/>
<text text-anchor="start" x="3903.5" y="-29" font-family="Helvetica,sans-Serif" font-size="10.00">test/multigrid&#45;tests</text>
<text text-anchor="start" x="3903.5" y="-18" font-family="Helvetica,sans-Serif" font-size="10.00">/non&#45;equidistant&#45;test</text>
<text text-anchor="middle" x="3955" y="-7" font-family="Helvetica,sans-Serif" font-size="10.00">/main.cc</text>
</a>
</g>
</g>
<!-- Node2&#45;&gt;Node31 -->
<g id="edge30_Node000002_Node000031" class="edge">
<title>Node2&#45;&gt;Node31</title>
<g id="a_edge30_Node000002_Node000031"><a xlink:title=" ">
<path fill="none" stroke="#63b8ff" d="M3268.59,-85.85C3396.62,-85.27 3663.87,-79.08 3886,-41 3889.07,-40.47 3892.19,-39.87 3895.34,-39.19"/>
<polygon fill="#63b8ff" stroke="#63b8ff" points="3268.49,-82.35 3258.5,-85.88 3268.52,-89.35 3268.49,-82.35"/>
</a>
</g>
</g>
<!-- Node32 -->
<g id="Node000032" class="node">
<title>Node32</title>
<g id="a_Node000032"><a xlink:href="multigrid-tests_2parallel-multigrid-test_2main_8cc.html" target="_top" xlink:title=" ">
<polygon fill="white" stroke="#666666" points="4159.5,-41 4032.5,-41 4032.5,0 4159.5,0 4159.5,-41"/>
<text text-anchor="start" x="4040.5" y="-29" font-family="Helvetica,sans-Serif" font-size="10.00">test/multigrid&#45;tests</text>
<text text-anchor="start" x="4040.5" y="-18" font-family="Helvetica,sans-Serif" font-size="10.00">/parallel&#45;multigrid&#45;test</text>
<text text-anchor="middle" x="4096" y="-7" font-family="Helvetica,sans-Serif" font-size="10.00">/main.cc</text>
</a>
</g>
</g>
<!-- Node2&#45;&gt;Node32 -->
<g id="edge31_Node000002_Node000032" class="edge">
<title>Node2&#45;&gt;Node32</title>
<g id="a_edge31_Node000002_Node000032"><a xlink:title=" ">
<path fill="none" stroke="#63b8ff" d="M3268.83,-83.49C3445.39,-78.47 3879.85,-64.11 4024,-41 4026.69,-40.57 4029.41,-40.08 4032.16,-39.54"/>
<polygon fill="#63b8ff" stroke="#63b8ff" points="3268.49,-79.99 3258.59,-83.78 3268.69,-86.99 3268.49,-79.99"/>
</a>
</g>
</g>
<!-- Node33 -->
<g id="Node000033" class="node">
<title>Node33</title>
<g id="a_Node000033"><a xlink:href="planetest_2main_8cc.html" target="_top" xlink:title=" ">
<polygon fill="white" stroke="#666666" points="4302.5,-30 4177.5,-30 4177.5,-11 4302.5,-11 4302.5,-30"/>
<text text-anchor="middle" x="4240" y="-18" font-family="Helvetica,sans-Serif" font-size="10.00">test/planetest/main.cc</text>
</a>
</g>
</g>
<!-- Node2&#45;&gt;Node33 -->
<g id="edge32_Node000002_Node000033" class="edge">
<title>Node2&#45;&gt;Node33</title>
<g id="a_edge32_Node000002_Node000033"><a xlink:title=" ">
<path fill="none" stroke="#63b8ff" d="M3268.86,-84.22C3466.88,-80.54 3995.99,-68.35 4169,-41 4184.28,-38.58 4200.97,-34.1 4214.34,-30.03"/>
<polygon fill="#63b8ff" stroke="#63b8ff" points="3268.77,-80.72 3258.83,-84.41 3268.9,-87.72 3268.77,-80.72"/>
</a>
</g>
</g>
<!-- Node34 -->
<g id="Node000034" class="node">
<title>Node34</title>
<g id="a_Node000034"><a xlink:href="poisson-test_2main_8cc.html" target="_top" xlink:title=" ">
<polygon fill="white" stroke="#666666" points="4461,-30 4321,-30 4321,-11 4461,-11 4461,-30"/>
<text text-anchor="middle" x="4391" y="-18" font-family="Helvetica,sans-Serif" font-size="10.00">test/poisson&#45;test/main.cc</text>
</a>
</g>
</g>
<!-- Node2&#45;&gt;Node34 -->
<g id="edge33_Node000002_Node000034" class="edge">
<title>Node2&#45;&gt;Node34</title>
<g id="a_edge33_Node000002_Node000034"><a xlink:title=" ">
<path fill="none" stroke="#63b8ff" d="M3268.7,-84.48C3486.13,-81.25 4109.84,-69.67 4312,-41 4328.92,-38.6 4347.5,-34.11 4362.38,-30.05"/>
<polygon fill="#63b8ff" stroke="#63b8ff" points="3268.6,-80.99 3258.66,-84.63 3268.71,-87.98 3268.6,-80.99"/>
</a>
</g>
</g>
<!-- Node35 -->
<g id="Node000035" class="node">
<title>Node35</title>
<g id="a_Node000035"><a xlink:href="ray-mpi-test_2main_8cc.html" target="_top" xlink:title=" ">
<polygon fill="white" stroke="#666666" points="4619,-30 4479,-30 4479,-11 4619,-11 4619,-30"/>
<text text-anchor="middle" x="4549" y="-18" font-family="Helvetica,sans-Serif" font-size="10.00">test/ray&#45;mpi&#45;test/main.cc</text>
</a>
</g>
</g>
<!-- Node2&#45;&gt;Node35 -->
<g id="edge34_Node000002_Node000035" class="edge">
<title>Node2&#45;&gt;Node35</title>
<g id="a_edge34_Node000002_Node000035"><a xlink:title=" ">
<path fill="none" stroke="#63b8ff" d="M3268.9,-84.92C3506.79,-82.76 4235.91,-73.61 4470,-41 4486.93,-38.64 4505.5,-34.16 4520.39,-30.08"/>
<polygon fill="#63b8ff" stroke="#63b8ff" points="3268.59,-81.42 3258.62,-85.01 3268.65,-88.42 3268.59,-81.42"/>
</a>
</g>
</g>
<!-- Node36 -->
<g id="Node000036" class="node">
<title>Node36</title>
<g id="a_Node000036"><a xlink:href="ray-test_2main_8cc.html" target="_top" xlink:title=" ">
<polygon fill="white" stroke="#666666" points="4755,-30 4637,-30 4637,-11 4755,-11 4755,-30"/>
<text text-anchor="middle" x="4696" y="-18" font-family="Helvetica,sans-Serif" font-size="10.00">test/ray&#45;test/main.cc</text>
</a>
</g>
</g>
<!-- Node2&#45;&gt;Node36 -->
<g id="edge35_Node000002_Node000036" class="edge">
<title>Node2&#45;&gt;Node36</title>
<g id="a_edge35_Node000002_Node000036"><a xlink:title=" ">
<path fill="none" stroke="#63b8ff" d="M3268.97,-85.63C3526.12,-85.67 4362.49,-82.52 4628,-41 4642.8,-38.68 4658.94,-34.15 4671.78,-30.03"/>
<polygon fill="#63b8ff" stroke="#63b8ff" points="3268.62,-82.13 3258.62,-85.62 3268.61,-89.13 3268.62,-82.13"/>
</a>
</g>
</g>
<!-- Node37 -->
<g id="Node000037" class="node">
<title>Node37</title>
<g id="a_Node000037"><a xlink:href="reduce-sum-add-test_2main_8cc.html" target="_top" xlink:title=" ">
<polygon fill="white" stroke="#666666" points="4891,-35.5 4773,-35.5 4773,-5.5 4891,-5.5 4891,-35.5"/>
<text text-anchor="start" x="4781" y="-23.5" font-family="Helvetica,sans-Serif" font-size="10.00">test/reduce&#45;sum&#45;add</text>
<text text-anchor="middle" x="4832" y="-12.5" font-family="Helvetica,sans-Serif" font-size="10.00">&#45;test/main.cc</text>
</a>
</g>
</g>
<!-- Node2&#45;&gt;Node37 -->
<g id="edge36_Node000002_Node000037" class="edge">
<title>Node2&#45;&gt;Node37</title>
<g id="a_edge36_Node000002_Node000037"><a xlink:title=" ">
<path fill="none" stroke="#63b8ff" d="M3268.72,-85.87C3541.14,-86.79 4470.67,-86.47 4764,-41 4772.25,-39.72 4780.92,-37.75 4789.2,-35.53"/>
<polygon fill="#63b8ff" stroke="#63b8ff" points="3268.55,-82.37 3258.54,-85.83 3268.53,-89.37 3268.55,-82.37"/>
</a>
</g>
</g>
<!-- Node38 -->
<g id="Node000038" class="node">
<title>Node38</title>
<g id="a_Node000038"><a xlink:href="reduce-test_2main_8cc.html" target="_top" xlink:title=" ">
<polygon fill="white" stroke="#666666" points="5044.5,-30 4909.5,-30 4909.5,-11 5044.5,-11 5044.5,-30"/>
<text text-anchor="middle" x="4977" y="-18" font-family="Helvetica,sans-Serif" font-size="10.00">test/reduce&#45;test/main.cc</text>
</a>
</g>
</g>
<!-- Node2&#45;&gt;Node38 -->
<g id="edge37_Node000002_Node000038" class="edge">
<title>Node2&#45;&gt;Node38</title>
<g id="a_edge37_Node000002_Node000038"><a xlink:title=" ">
<path fill="none" stroke="#63b8ff" d="M3268.86,-85.76C3556.26,-86.39 4578.18,-85.38 4900,-41 4916.67,-38.7 4934.93,-34.17 4949.49,-30.05"/>
<polygon fill="#63b8ff" stroke="#63b8ff" points="3268.55,-82.26 3258.54,-85.73 3268.53,-89.26 3268.55,-82.26"/>
</a>
</g>
</g>
<!-- Node39 -->
<g id="Node000039" class="node">
<title>Node39</title>
<g id="a_Node000039"><a xlink:href="single-precision-test_2main_8cc.html" target="_top" xlink:title=" ">
<polygon fill="white" stroke="#666666" points="5179,-35.5 5063,-35.5 5063,-5.5 5179,-5.5 5179,-35.5"/>
<text text-anchor="start" x="5071" y="-23.5" font-family="Helvetica,sans-Serif" font-size="10.00">test/single&#45;precision</text>
<text text-anchor="middle" x="5121" y="-12.5" font-family="Helvetica,sans-Serif" font-size="10.00">&#45;test/main.cc</text>
</a>
</g>
</g>
<!-- Node2&#45;&gt;Node39 -->
<g id="edge38_Node000002_Node000039" class="edge">
<title>Node2&#45;&gt;Node39</title>
<g id="a_edge38_Node000002_Node000039"><a xlink:title=" ">
<path fill="none" stroke="#63b8ff" d="M3268.85,-84.85C3595.78,-81.87 4875.93,-68.56 5054,-41 5062.14,-39.74 5070.68,-37.77 5078.84,-35.56"/>
<polygon fill="#63b8ff" stroke="#63b8ff" points="3268.51,-81.35 3258.54,-84.94 3268.57,-88.35 3268.51,-81.35"/>
</a>
</g>
</g>
<!-- Node40 -->
<g id="Node000040" class="node">
<title>Node40</title>
<g id="a_Node000040"><a xlink:href="small-grid-test_2main_8cc.html" target="_top" xlink:title=" ">
<polygon fill="white" stroke="#666666" points="5307,-35.5 5197,-35.5 5197,-5.5 5307,-5.5 5307,-35.5"/>
<text text-anchor="start" x="5205" y="-23.5" font-family="Helvetica,sans-Serif" font-size="10.00">test/small&#45;grid&#45;test</text>
<text text-anchor="middle" x="5252" y="-12.5" font-family="Helvetica,sans-Serif" font-size="10.00">/main.cc</text>
</a>
</g>
</g>
<!-- Node2&#45;&gt;Node40 -->
<g id="edge39_Node000002_Node000040" class="edge">
<title>Node2&#45;&gt;Node40</title>
<g id="a_edge39_Node000002_Node000040"><a xlink:title=" ">
<path fill="none" stroke="#63b8ff" d="M3268.68,-85.04C3609.81,-82.77 4996.24,-71.75 5188,-41 5195.8,-39.75 5203.97,-37.79 5211.77,-35.58"/>
<polygon fill="#63b8ff" stroke="#63b8ff" points="3268.63,-81.54 3258.65,-85.1 3268.68,-88.54 3268.63,-81.54"/>
</a>
</g>
</g>
<!-- Node41 -->
<g id="Node000041" class="node">
<title>Node41</title>
<g id="a_Node000041"><a xlink:href="sor-test_2main_8cc.html" target="_top" xlink:title=" ">
<polygon fill="white" stroke="#666666" points="5442.5,-30 5325.5,-30 5325.5,-11 5442.5,-11 5442.5,-30"/>
<text text-anchor="middle" x="5384" y="-18" font-family="Helvetica,sans-Serif" font-size="10.00">test/sor&#45;test/main.cc</text>
</a>
</g>
</g>
<!-- Node2&#45;&gt;Node41 -->
<g id="edge40_Node000002_Node000041" class="edge">
<title>Node2&#45;&gt;Node41</title>
<g id="a_edge40_Node000002_Node000041"><a xlink:title=" ">
<path fill="none" stroke="#63b8ff" d="M3268.81,-85.07C3623.52,-82.91 5110.77,-72.04 5316,-41 5330.81,-38.76 5346.95,-34.23 5359.79,-30.09"/>
<polygon fill="#63b8ff" stroke="#63b8ff" points="3268.62,-81.57 3258.65,-85.13 3268.67,-88.57 3268.62,-81.57"/>
</a>
</g>
</g>
<!-- Node42 -->
<g id="Node000042" class="node">
<title>Node42</title>
<g id="a_Node000042"><a xlink:href="stencil-accesses-fail-test_2main_8cc.html" target="_top" xlink:title=" ">
<polygon fill="white" stroke="#666666" points="5579.5,-35.5 5460.5,-35.5 5460.5,-5.5 5579.5,-5.5 5579.5,-35.5"/>
<text text-anchor="start" x="5468.5" y="-23.5" font-family="Helvetica,sans-Serif" font-size="10.00">test/stencil&#45;accesses</text>
<text text-anchor="middle" x="5520" y="-12.5" font-family="Helvetica,sans-Serif" font-size="10.00">&#45;fail&#45;test/main.cc</text>
</a>
</g>
</g>
<!-- Node2&#45;&gt;Node42 -->
<g id="edge41_Node000002_Node000042" class="edge">
<title>Node2&#45;&gt;Node42</title>
<g id="a_edge41_Node000002_Node000042"><a xlink:title=" ">
<path fill="none" stroke="#63b8ff" d="M3268.51,-85.18C3636.45,-83.44 5232.59,-74.04 5452,-41 5460.26,-39.76 5468.93,-37.8 5477.21,-35.59"/>
<polygon fill="#63b8ff" stroke="#63b8ff" points="3268.49,-81.68 3258.5,-85.22 3268.52,-88.68 3268.49,-81.68"/>
</a>
</g>
</g>
<!-- Node43 -->
<g id="Node000043" class="node">
<title>Node43</title>
<g id="a_Node000043"><a xlink:href="stencil-accesses-ok-test_2main_8cc.html" target="_top" xlink:title=" ">
<polygon fill="white" stroke="#666666" points="5716.5,-35.5 5597.5,-35.5 5597.5,-5.5 5716.5,-5.5 5716.5,-35.5"/>
<text text-anchor="start" x="5605.5" y="-23.5" font-family="Helvetica,sans-Serif" font-size="10.00">test/stencil&#45;accesses</text>
<text text-anchor="middle" x="5657" y="-12.5" font-family="Helvetica,sans-Serif" font-size="10.00">&#45;ok&#45;test/main.cc</text>
</a>
</g>
</g>
<!-- Node2&#45;&gt;Node43 -->
<g id="edge42_Node000002_Node000043" class="edge">
<title>Node2&#45;&gt;Node43</title>
<g id="a_edge42_Node000002_Node000043"><a xlink:title=" ">
<path fill="none" stroke="#63b8ff" d="M3268.69,-85.27C3650.44,-83.93 5355.39,-76.05 5589,-41 5597.38,-39.74 5606.18,-37.75 5614.57,-35.5"/>
<polygon fill="#63b8ff" stroke="#63b8ff" points="3268.57,-81.77 3258.59,-85.3 3268.6,-88.77 3268.57,-81.77"/>
</a>
</g>
</g>
<!-- Node44 -->
<g id="Node000044" class="node">
<title>Node44</title>
<g id="a_Node000044"><a xlink:href="tfm-test_2main_8cc.html" target="_top" xlink:title=" ">
<polygon fill="white" stroke="#666666" points="5853.5,-30 5734.5,-30 5734.5,-11 5853.5,-11 5853.5,-30"/>
<text text-anchor="middle" x="5794" y="-18" font-family="Helvetica,sans-Serif" font-size="10.00">test/tfm&#45;test/main.cc</text>
</a>
</g>
</g>
<!-- Node2&#45;&gt;Node44 -->
<g id="edge43_Node000002_Node000044" class="edge">
<title>Node2&#45;&gt;Node44</title>
<g id="a_edge43_Node000002_Node000044"><a xlink:title=" ">
<path fill="none" stroke="#63b8ff" d="M3268.81,-85.35C3663.88,-84.4 5478.15,-78.06 5726,-41 5740.94,-38.77 5757.22,-34.18 5770.11,-30.01"/>
<polygon fill="#63b8ff" stroke="#63b8ff" points="3268.63,-81.85 3258.64,-85.37 3268.65,-88.85 3268.63,-81.85"/>
</a>
</g>
</g>
<!-- Node45 -->
<g id="Node000045" class="node">
<title>Node45</title>
<g id="a_Node000045"><a xlink:href="uneven-grid-test_2main_8cc.html" target="_top" xlink:title=" ">
<polygon fill="white" stroke="#666666" points="5990.5,-35.5 5871.5,-35.5 5871.5,-5.5 5990.5,-5.5 5990.5,-35.5"/>
<text text-anchor="start" x="5879.5" y="-23.5" font-family="Helvetica,sans-Serif" font-size="10.00">test/uneven&#45;grid&#45;test</text>
<text text-anchor="middle" x="5931" y="-12.5" font-family="Helvetica,sans-Serif" font-size="10.00">/main.cc</text>
</a>
</g>
</g>
<!-- Node2&#45;&gt;Node45 -->
<g id="edge44_Node000002_Node000045" class="edge">
<title>Node2&#45;&gt;Node45</title>
<g id="a_edge44_Node000002_Node000045"><a xlink:title=" ">
<path fill="none" stroke="#63b8ff" d="M3268.92,-85.42C3676.95,-84.85 5600.88,-80.07 5863,-41 5871.38,-39.75 5880.18,-37.76 5888.57,-35.51"/>
<polygon fill="#63b8ff" stroke="#63b8ff" points="3268.7,-81.92 3258.71,-85.44 3268.71,-88.92 3268.7,-81.92"/>
</a>
</g>
</g>
<!-- Node46 -->
<g id="Node000046" class="node">
<title>Node46</title>
<g id="a_Node000046"><a xlink:href="uneven-sor-test_2main_8cc.html" target="_top" xlink:title=" ">
<polygon fill="white" stroke="#666666" points="6125,-35.5 6009,-35.5 6009,-5.5 6125,-5.5 6125,-35.5"/>
<text text-anchor="start" x="6017" y="-23.5" font-family="Helvetica,sans-Serif" font-size="10.00">test/uneven&#45;sor&#45;test</text>
<text text-anchor="middle" x="6067" y="-12.5" font-family="Helvetica,sans-Serif" font-size="10.00">/main.cc</text>
</a>
</g>
</g>
<!-- Node2&#45;&gt;Node46 -->
<g id="edge45_Node000002_Node000046" class="edge">
<title>Node2&#45;&gt;Node46</title>
<g id="a_edge45_Node000002_Node000046"><a xlink:title=" ">
<path fill="none" stroke="#63b8ff" d="M3268.71,-85.51C3688.72,-85.39 5723.61,-82.64 6000,-41 6008.27,-39.75 6016.94,-37.76 6025.21,-35.52"/>
<polygon fill="#63b8ff" stroke="#63b8ff" points="3268.5,-82.01 3258.5,-85.51 3268.5,-89.01 3268.5,-82.01"/>
</a>
</g>
</g>
<!-- Node47 -->
<g id="Node000047" class="node">
<title>Node47</title>
<g id="a_Node000047"><a xlink:href="use-scalar-reduce_2main_8cc.html" target="_top" xlink:title=" ">
<polygon fill="white" stroke="#666666" points="6268.5,-35.5 6143.5,-35.5 6143.5,-5.5 6268.5,-5.5 6268.5,-35.5"/>
<text text-anchor="start" x="6151.5" y="-23.5" font-family="Helvetica,sans-Serif" font-size="10.00">test/use&#45;scalar&#45;reduce</text>
<text text-anchor="middle" x="6206" y="-12.5" font-family="Helvetica,sans-Serif" font-size="10.00">/main.cc</text>
</a>
</g>
</g>
<!-- Node2&#45;&gt;Node47 -->
<g id="edge46_Node000002_Node000047" class="edge">
<title>Node2&#45;&gt;Node47</title>
<g id="a_edge46_Node000002_Node000047"><a xlink:title=" ">
<path fill="none" stroke="#63b8ff" d="M3268.81,-85.48C3700.87,-85.23 5843.23,-81.92 6134,-41 6142.85,-39.75 6152.16,-37.76 6161.04,-35.52"/>
<polygon fill="#63b8ff" stroke="#63b8ff" points="3268.62,-81.98 3258.62,-85.49 3268.63,-88.98 3268.62,-81.98"/>
</a>
</g>
</g>
<!-- Node48 -->
<g id="Node000048" class="node">
<title>Node48</title>
<g id="a_Node000048"><a xlink:href="variable-dims_2main_8cc.html" target="_top" xlink:title=" ">
<polygon fill="white" stroke="#666666" points="6393,-35.5 6287,-35.5 6287,-5.5 6393,-5.5 6393,-35.5"/>
<text text-anchor="start" x="6295" y="-23.5" font-family="Helvetica,sans-Serif" font-size="10.00">test/variable&#45;dims</text>
<text text-anchor="middle" x="6340" y="-12.5" font-family="Helvetica,sans-Serif" font-size="10.00">/main.cc</text>
</a>
</g>
</g>
<!-- Node2&#45;&gt;Node48 -->
<g id="edge47_Node000002_Node000048" class="edge">
<title>Node2&#45;&gt;Node48</title>
<g id="a_edge47_Node000002_Node000048"><a xlink:title=" ">
<path fill="none" stroke="#63b8ff" d="M3268.95,-85.72C3713.89,-86.84 5973.09,-90.07 6278,-41 6285.69,-39.76 6293.73,-37.78 6301.39,-35.53"/>
<polygon fill="#63b8ff" stroke="#63b8ff" points="3268.79,-82.22 3258.78,-85.7 3268.77,-89.22 3268.79,-82.22"/>
</a>
</g>
</g>
<!-- Node49 -->
<g id="Node000049" class="node">
<title>Node49</title>
<g id="a_Node000049"><a xlink:href="walker-test_2main_8cc.html" target="_top" xlink:title=" ">
<polygon fill="white" stroke="#666666" points="6545,-30 6411,-30 6411,-11 6545,-11 6545,-30"/>
<text text-anchor="middle" x="6478" y="-18" font-family="Helvetica,sans-Serif" font-size="10.00">test/walker&#45;test/main.cc</text>
</a>
</g>
</g>
<!-- Node2&#45;&gt;Node49 -->
<g id="edge48_Node000002_Node000049" class="edge">
<title>Node2&#45;&gt;Node49</title>
<g id="a_edge48_Node000002_Node000049"><a xlink:title=" ">
<path fill="none" stroke="#63b8ff" d="M3268.67,-85.53C3723.3,-85.54 6082.81,-83.55 6402,-41 6418.61,-38.79 6436.8,-34.2 6451.22,-30.03"/>
<polygon fill="#63b8ff" stroke="#63b8ff" points="3268.61,-82.03 3258.61,-85.53 3268.61,-89.03 3268.61,-82.03"/>
</a>
</g>
</g>
</g>
</svg>
