<?xml version="1.0" encoding="UTF-8" standalone="no"?>
<!DOCTYPE svg PUBLIC "-//W3C//DTD SVG 1.1//EN"
 "http://www.w3.org/Graphics/SVG/1.1/DTD/svg11.dtd">
<!-- Generated by graphviz version 2.43.0 (0)
 -->
<!-- Title: include/astaroth_base.h Pages: 1 -->
<!--zoomable 324 -->

<svg id="main" version="1.1" xmlns="http://www.w3.org/2000/svg" xmlns:xlink="http://www.w3.org/1999/xlink" xml:space="preserve" onload="init(evt)">
<style type="text/css"><![CDATA[
.node, .edge {opacity: 0.7;}
.node.selected, .edge.selected {opacity: 1;}
.edge:hover path { stroke: red; }
.edge:hover polygon { stroke: red; fill: red; }
]]></style>

<defs>
  <circle id="rim" cx="0" cy="0" r="7"/>
  <circle id="rim2" cx="0" cy="0" r="3.5"/>
  <g id="zoomPlus">
    <use xlink:href="#rim" fill="#404040"><set attributeName="fill" to="#808080" begin="zoomplus.mouseover" end="zoomplus.mouseout"/></use>
    <path d="M-4,0h8M0,-4v8" fill="none" stroke="white" stroke-width="1.5" pointer-events="none"/>
  </g>
  <g id="zoomMin">
    <use xlink:href="#rim" fill="#404040"><set attributeName="fill" to="#808080" begin="zoomminus.mouseover" end="zoomminus.mouseout"/></use>
    <path d="M-4,0h8" fill="none" stroke="white" stroke-width="1.5" pointer-events="none"/>
  </g>
  <g id="arrowUp" transform="translate(30 24)">
    <use xlink:href="#rim"/>
    <path pointer-events="none" fill="none" stroke="white" stroke-width="1.5" d="M0,-3.0v7 M-2.5,-0.5L0,-3.0L2.5,-0.5"/>
  </g>
  <g id="arrowRight" transform="rotate(90) translate(36 -43)">
    <use xlink:href="#rim"/>
    <path pointer-events="none" fill="none" stroke="white" stroke-width="1.5" d="M0,-3.0v7 M-2.5,-0.5L0,-3.0L2.5,-0.5"/>
  </g>
  <g id="arrowDown" transform="rotate(180) translate(-30 -48)">
    <use xlink:href="#rim"/>
    <path pointer-events="none" fill="none" stroke="white" stroke-width="1.5" d="M0,-3.0v7 M-2.5,-0.5L0,-3.0L2.5,-0.5"/>
  </g>
  <g id="arrowLeft" transform="rotate(270) translate(-36 17)">
    <use xlink:href="#rim"/>
    <path pointer-events="none" fill="none" stroke="white" stroke-width="1.5" d="M0,-3.0v7 M-2.5,-0.5L0,-3.0L2.5,-0.5"/>
  </g>
  <g id="resetDef">
    <use xlink:href="#rim2" fill="#404040"><set attributeName="fill" to="#808080" begin="reset.mouseover" end="reset.mouseout"/></use>
  </g>
</defs>
<script type="application/ecmascript">
var viewWidth = 2781;
var viewHeight = 324;
var sectionId = 'dynsection-0';
</script>
<script type="application/ecmascript" xlink:href="svg.min.js"/>
<svg id="graph" class="graph">
<g id="viewport">
<title>include/astaroth_base.h</title>
<!-- Node1 -->
<g id="Node000001" class="node">
<title>Node1</title>
<g id="a_Node000001"><a xlink:title=" ">
<polygon fill="#999999" stroke="#666666" points="2002,-316 1869,-316 1869,-297 2002,-297 2002,-316"/>
<text text-anchor="middle" x="1935.5" y="-304" font-family="Helvetica,sans-Serif" font-size="10.00">include/astaroth_base.h</text>
</a>
</g>
</g>
<!-- Node2 -->
<g id="Node000002" class="node">
<title>Node2</title>
<g id="a_Node000002"><a xlink:title=" ">
<polygon fill="#e0e0e0" stroke="#999999" points="2166.5,-74 2104.5,-74 2104.5,-55 2166.5,-55 2166.5,-74"/>
<text text-anchor="middle" x="2135.5" y="-62" font-family="Helvetica,sans-Serif" font-size="10.00">stdbool.h</text>
</a>
</g>
</g>
<!-- Node1&#45;&gt;Node2 -->
<g id="edge1_Node000001_Node000002" class="edge">
<title>Node1&#45;&gt;Node2</title>
<g id="a_edge1_Node000001_Node000002"><a xlink:title=" ">
<path fill="none" stroke="#63b8ff" d="M2002.05,-302.54C2136.47,-295.01 2432.8,-270.1 2494.5,-195 2515.77,-169.12 2466.87,-110.26 2466.5,-110 2420.76,-77.57 2255.21,-68.74 2176.99,-66.36"/>
<polygon fill="#63b8ff" stroke="#63b8ff" points="2176.65,-62.85 2166.55,-66.07 2176.45,-69.85 2176.65,-62.85"/>
</a>
</g>
</g>
<!-- Node3 -->
<g id="Node000003" class="node">
<title>Node3</title>
<g id="a_Node000003"><a xlink:href="acc__runtime_8h.html" target="_top" xlink:title=" ">
<polygon fill="white" stroke="#666666" points="1363.5,-255.5 1277.5,-255.5 1277.5,-236.5 1363.5,-236.5 1363.5,-255.5"/>
<text text-anchor="middle" x="1320.5" y="-243.5" font-family="Helvetica,sans-Serif" font-size="10.00">acc_runtime.h</text>
</a>
</g>
</g>
<!-- Node1&#45;&gt;Node3 -->
<g id="edge2_Node000001_Node000003" class="edge">
<title>Node1&#45;&gt;Node3</title>
<g id="a_edge2_Node000001_Node000003"><a xlink:title=" ">
<path fill="none" stroke="#63b8ff" d="M1868.81,-299.16C1745.93,-287.47 1486.11,-262.75 1373.93,-252.08"/>
<polygon fill="#63b8ff" stroke="#63b8ff" points="1374.15,-248.59 1363.86,-251.12 1373.49,-255.56 1374.15,-248.59"/>
</a>
</g>
</g>
<!-- Node23 -->
<g id="Node000023" class="node">
<title>Node23</title>
<g id="a_Node000023"><a xlink:href="func__define_8h.html" target="_top" xlink:title=" ">
<polygon fill="white" stroke="#666666" points="95.5,-189.5 13.5,-189.5 13.5,-170.5 95.5,-170.5 95.5,-189.5"/>
<text text-anchor="middle" x="54.5" y="-177.5" font-family="Helvetica,sans-Serif" font-size="10.00">func_define.h</text>
</a>
</g>
</g>
<!-- Node1&#45;&gt;Node23 -->
<g id="edge58_Node000001_Node000023" class="edge">
<title>Node1&#45;&gt;Node23</title>
<g id="a_edge58_Node000001_Node000023"><a xlink:title=" ">
<path fill="none" stroke="#63b8ff" d="M1868.68,-305.38C1675.86,-304.58 1102,-298.93 627.5,-261 393.96,-242.33 334.15,-241.38 104.5,-195 100.37,-194.17 96.09,-193.17 91.84,-192.1"/>
<polygon fill="#63b8ff" stroke="#63b8ff" points="92.66,-188.7 82.09,-189.51 90.86,-195.46 92.66,-188.7"/>
</a>
</g>
</g>
<!-- Node26 -->
<g id="Node000026" class="node">
<title>Node26</title>
<g id="a_Node000026"><a xlink:title=" ">
<polygon fill="#e0e0e0" stroke="#999999" points="253,-189.5 114,-189.5 114,-170.5 253,-170.5 253,-189.5"/>
<text text-anchor="middle" x="183.5" y="-177.5" font-family="Helvetica,sans-Serif" font-size="10.00">user_built&#45;in_constants.h</text>
</a>
</g>
</g>
<!-- Node1&#45;&gt;Node26 -->
<g id="edge59_Node000001_Node000026" class="edge">
<title>Node1&#45;&gt;Node26</title>
<g id="a_edge59_Node000001_Node000026"><a xlink:title=" ">
<path fill="none" stroke="#63b8ff" d="M1868.94,-303.46C1643.41,-296.04 887.66,-267.04 267.5,-195 258.44,-193.95 248.87,-192.59 239.56,-191.13"/>
<polygon fill="#63b8ff" stroke="#63b8ff" points="240.03,-187.66 229.6,-189.53 238.91,-194.57 240.03,-187.66"/>
</a>
</g>
</g>
<!-- Node39 -->
<g id="Node000039" class="node">
<title>Node39</title>
<g id="a_Node000039"><a xlink:title=" ">
<polygon fill="#e0e0e0" stroke="#999999" points="2710,-261 2579,-261 2579,-231 2710,-231 2710,-261"/>
<text text-anchor="start" x="2587" y="-249" font-family="Helvetica,sans-Serif" font-size="10.00">user_builtin_non_scalar</text>
<text text-anchor="middle" x="2644.5" y="-238" font-family="Helvetica,sans-Serif" font-size="10.00">_constants.h</text>
</a>
</g>
</g>
<!-- Node1&#45;&gt;Node39 -->
<g id="edge60_Node000001_Node000039" class="edge">
<title>Node1&#45;&gt;Node39</title>
<g id="a_edge60_Node000001_Node000039"><a xlink:title=" ">
<path fill="none" stroke="#63b8ff" d="M2002.28,-303.03C2117.4,-298.27 2360.49,-286 2564.5,-261 2565.8,-260.84 2567.11,-260.67 2568.43,-260.5"/>
<polygon fill="#63b8ff" stroke="#63b8ff" points="2569.24,-263.92 2578.66,-259.07 2568.27,-256.99 2569.24,-263.92"/>
</a>
</g>
</g>
<!-- Node40 -->
<g id="Node000040" class="node">
<title>Node40</title>
<g id="a_Node000040"><a xlink:title=" ">
<polygon fill="#e0e0e0" stroke="#999999" points="2772.5,-255.5 2728.5,-255.5 2728.5,-236.5 2772.5,-236.5 2772.5,-255.5"/>
<text text-anchor="middle" x="2750.5" y="-243.5" font-family="Helvetica,sans-Serif" font-size="10.00">mpi.h</text>
</a>
</g>
</g>
<!-- Node1&#45;&gt;Node40 -->
<g id="edge61_Node000001_Node000040" class="edge">
<title>Node1&#45;&gt;Node40</title>
<g id="a_edge61_Node000001_Node000040"><a xlink:title=" ">
<path fill="none" stroke="#63b8ff" d="M2002.08,-304.84C2165.76,-302.73 2584.28,-294.16 2719.5,-261 2721.23,-260.57 2722.99,-260.05 2724.74,-259.47"/>
<polygon fill="#63b8ff" stroke="#63b8ff" points="2726.5,-262.53 2734.49,-255.58 2723.91,-256.03 2726.5,-262.53"/>
</a>
</g>
</g>
<!-- Node3&#45;&gt;Node2 -->
<g id="edge3_Node000003_Node000002" class="edge">
<title>Node3&#45;&gt;Node2</title>
<g id="a_edge3_Node000003_Node000002"><a xlink:title=" ">
<path fill="none" stroke="#63b8ff" d="M1363.66,-244.78C1568.39,-243.52 2433.45,-235.78 2472.5,-195 2562.49,-101.02 2284.94,-74.3 2176.75,-67.56"/>
<polygon fill="#63b8ff" stroke="#63b8ff" points="2176.72,-64.05 2166.53,-66.95 2176.3,-71.04 2176.72,-64.05"/>
</a>
</g>
</g>
<!-- Node4 -->
<g id="Node000004" class="node">
<title>Node4</title>
<g id="a_Node000004"><a xlink:title=" ">
<polygon fill="#e0e0e0" stroke="#999999" points="2161.5,-129 2111.5,-129 2111.5,-110 2161.5,-110 2161.5,-129"/>
<text text-anchor="middle" x="2136.5" y="-117" font-family="Helvetica,sans-Serif" font-size="10.00">stdio.h</text>
</a>
</g>
</g>
<!-- Node3&#45;&gt;Node4 -->
<g id="edge4_Node000003_Node000004" class="edge">
<title>Node3&#45;&gt;Node4</title>
<g id="a_edge4_Node000003_Node000004"><a xlink:title=" ">
<path fill="none" stroke="#63b8ff" d="M1363.69,-244.75C1566.62,-243.36 2417.08,-235.15 2455.5,-195 2464.72,-185.37 2464.25,-175.06 2455.5,-165 2419.11,-123.19 2247.77,-119.45 2172.32,-119.89"/>
<polygon fill="#63b8ff" stroke="#63b8ff" points="2171.88,-116.39 2161.91,-119.98 2171.94,-123.39 2171.88,-116.39"/>
</a>
</g>
</g>
<!-- Node5 -->
<g id="Node000005" class="node">
<title>Node5</title>
<g id="a_Node000005"><a xlink:href="ac__helpers_8h.html" target="_top" xlink:title=" ">
<polygon fill="white" stroke="#666666" points="585.5,-189.5 507.5,-189.5 507.5,-170.5 585.5,-170.5 585.5,-189.5"/>
<text text-anchor="middle" x="546.5" y="-177.5" font-family="Helvetica,sans-Serif" font-size="10.00">ac_helpers.h</text>
</a>
</g>
</g>
<!-- Node3&#45;&gt;Node5 -->
<g id="edge5_Node000003_Node000005" class="edge">
<title>Node3&#45;&gt;Node5</title>
<g id="a_edge5_Node000003_Node000005"><a xlink:title=" ">
<path fill="none" stroke="#63b8ff" d="M1277.21,-243.21C1141.86,-237.41 727.85,-218.21 595.5,-195 591.24,-194.25 586.81,-193.28 582.44,-192.19"/>
<polygon fill="#63b8ff" stroke="#63b8ff" points="583.02,-188.72 572.46,-189.51 581.21,-195.49 583.02,-188.72"/>
</a>
</g>
</g>
<!-- Node7 -->
<g id="Node000007" class="node">
<title>Node7</title>
<g id="a_Node000007"><a xlink:href="device__headers_8h.html" target="_top" xlink:title=" ">
<polygon fill="white" stroke="#666666" points="654.5,-74 552.5,-74 552.5,-55 654.5,-55 654.5,-74"/>
<text text-anchor="middle" x="603.5" y="-62" font-family="Helvetica,sans-Serif" font-size="10.00">device_headers.h</text>
</a>
</g>
</g>
<!-- Node3&#45;&gt;Node7 -->
<g id="edge32_Node000003_Node000007" class="edge">
<title>Node3&#45;&gt;Node7</title>
<g id="a_edge32_Node000003_Node000007"><a xlink:title=" ">
<path fill="none" stroke="#63b8ff" d="M1277.34,-244C1111.81,-239.94 525.41,-223.6 498.5,-195 460.88,-155.02 536.63,-103.2 578.42,-79.03"/>
<polygon fill="#63b8ff" stroke="#63b8ff" points="580.27,-82 587.25,-74.04 576.83,-75.91 580.27,-82"/>
</a>
</g>
</g>
<!-- Node12 -->
<g id="Node000012" class="node">
<title>Node12</title>
<g id="a_Node000012"><a xlink:title=" ">
<polygon fill="#e0e0e0" stroke="#999999" points="95,-74 0,-74 0,-55 95,-55 95,-74"/>
<text text-anchor="middle" x="47.5" y="-62" font-family="Helvetica,sans-Serif" font-size="10.00">builtin_enums.h</text>
</a>
</g>
</g>
<!-- Node3&#45;&gt;Node12 -->
<g id="edge17_Node000003_Node000012" class="edge">
<title>Node3&#45;&gt;Node12</title>
<g id="a_edge17_Node000003_Node000012"><a xlink:title=" ">
<path fill="none" stroke="#63b8ff" d="M1277.28,-243.62C1088.9,-237.5 346.85,-212.38 300.5,-195 280.35,-187.45 282.04,-174.01 262.5,-165 187.61,-130.49 146.47,-178.47 80.5,-129 65.77,-117.95 57.03,-98.41 52.29,-83.91"/>
<polygon fill="#63b8ff" stroke="#63b8ff" points="55.57,-82.66 49.41,-74.04 48.85,-84.62 55.57,-82.66"/>
</a>
</g>
</g>
<!-- Node14 -->
<g id="Node000014" class="node">
<title>Node14</title>
<g id="a_Node000014"><a xlink:href="common__kernels_8h.html" target="_top" xlink:title=" ">
<polygon fill="white" stroke="#666666" points="713,-189.5 604,-189.5 604,-170.5 713,-170.5 713,-189.5"/>
<text text-anchor="middle" x="658.5" y="-177.5" font-family="Helvetica,sans-Serif" font-size="10.00">common_kernels.h</text>
</a>
</g>
</g>
<!-- Node3&#45;&gt;Node14 -->
<g id="edge18_Node000003_Node000014" class="edge">
<title>Node3&#45;&gt;Node14</title>
<g id="a_edge18_Node000003_Node000014"><a xlink:title=" ">
<path fill="none" stroke="#63b8ff" d="M1277.49,-243.35C1178.88,-239.15 929.06,-226.09 722.5,-195 716.3,-194.07 709.8,-192.89 703.42,-191.61"/>
<polygon fill="#63b8ff" stroke="#63b8ff" points="704.06,-188.17 693.56,-189.54 702.63,-195.02 704.06,-188.17"/>
</a>
</g>
</g>
<!-- Node15 -->
<g id="Node000015" class="node">
<title>Node15</title>
<g id="a_Node000015"><a xlink:href="datatypes_8h.html" target="_top" xlink:title=" ">
<polygon fill="white" stroke="#666666" points="383.5,-189.5 309.5,-189.5 309.5,-170.5 383.5,-170.5 383.5,-189.5"/>
<text text-anchor="middle" x="346.5" y="-177.5" font-family="Helvetica,sans-Serif" font-size="10.00">datatypes.h</text>
</a>
</g>
</g>
<!-- Node3&#45;&gt;Node15 -->
<g id="edge23_Node000003_Node000015" class="edge">
<title>Node3&#45;&gt;Node15</title>
<g id="a_edge23_Node000003_Node000015"><a xlink:title=" ">
<path fill="none" stroke="#63b8ff" d="M1277.28,-243.37C1151.73,-238.44 776.18,-222.34 465.5,-195 441.8,-192.91 415.52,-189.9 393.7,-187.2"/>
<polygon fill="#63b8ff" stroke="#63b8ff" points="394.05,-183.72 383.69,-185.94 393.18,-190.66 394.05,-183.72"/>
</a>
</g>
</g>
<!-- Node19 -->
<g id="Node000019" class="node">
<title>Node19</title>
<g id="a_Node000019"><a xlink:href="errchk_8h.html" target="_top" xlink:title="Brief info.">
<polygon fill="white" stroke="#666666" points="787.5,-189.5 731.5,-189.5 731.5,-170.5 787.5,-170.5 787.5,-189.5"/>
<text text-anchor="middle" x="759.5" y="-177.5" font-family="Helvetica,sans-Serif" font-size="10.00">errchk.h</text>
</a>
</g>
</g>
<!-- Node3&#45;&gt;Node19 -->
<g id="edge33_Node000003_Node000019" class="edge">
<title>Node3&#45;&gt;Node19</title>
<g id="a_edge33_Node000003_Node000019"><a xlink:title=" ">
<path fill="none" stroke="#63b8ff" d="M1277.43,-244.75C1187.08,-243.38 971.63,-235.72 796.5,-195 793.98,-194.41 791.41,-193.7 788.84,-192.9"/>
<polygon fill="#63b8ff" stroke="#63b8ff" points="789.76,-189.52 779.17,-189.55 787.47,-196.13 789.76,-189.52"/>
</a>
</g>
</g>
<!-- Node3&#45;&gt;Node23 -->
<g id="edge42_Node000003_Node000023" class="edge">
<title>Node3&#45;&gt;Node23</title>
<g id="a_edge42_Node000003_Node000023"><a xlink:title=" ">
<path fill="none" stroke="#63b8ff" d="M1277.33,-244.57C1088.88,-242.46 337.45,-231.89 104.5,-195 99.97,-194.28 95.27,-193.3 90.64,-192.18"/>
<polygon fill="#63b8ff" stroke="#63b8ff" points="91.28,-188.73 80.71,-189.57 89.5,-195.5 91.28,-188.73"/>
</a>
</g>
</g>
<!-- Node24 -->
<g id="Node000024" class="node">
<title>Node24</title>
<g id="a_Node000024"><a xlink:title=" ">
<polygon fill="#e0e0e0" stroke="#999999" points="891.5,-189.5 805.5,-189.5 805.5,-170.5 891.5,-170.5 891.5,-189.5"/>
<text text-anchor="middle" x="848.5" y="-177.5" font-family="Helvetica,sans-Serif" font-size="10.00">profiles_info.h</text>
</a>
</g>
</g>
<!-- Node3&#45;&gt;Node24 -->
<g id="edge43_Node000003_Node000024" class="edge">
<title>Node3&#45;&gt;Node24</title>
<g id="a_edge43_Node000003_Node000024"><a xlink:title=" ">
<path fill="none" stroke="#63b8ff" d="M1277.25,-241.93C1200.75,-236.03 1036.77,-221.31 900.5,-195 896.1,-194.15 891.51,-193.13 886.98,-192.02"/>
<polygon fill="#63b8ff" stroke="#63b8ff" points="887.76,-188.61 877.21,-189.52 886.03,-195.39 887.76,-188.61"/>
</a>
</g>
</g>
<!-- Node25 -->
<g id="Node000025" class="node">
<title>Node25</title>
<g id="a_Node000025"><a xlink:title=" ">
<polygon fill="#e0e0e0" stroke="#999999" points="1027.5,-195 909.5,-195 909.5,-165 1027.5,-165 1027.5,-195"/>
<text text-anchor="start" x="917.5" y="-183" font-family="Helvetica,sans-Serif" font-size="10.00">scalar_reduce_buffer</text>
<text text-anchor="middle" x="968.5" y="-172" font-family="Helvetica,sans-Serif" font-size="10.00">_defs.h</text>
</a>
</g>
</g>
<!-- Node3&#45;&gt;Node25 -->
<g id="edge44_Node000003_Node000025" class="edge">
<title>Node3&#45;&gt;Node25</title>
<g id="a_edge44_Node000003_Node000025"><a xlink:title=" ">
<path fill="none" stroke="#63b8ff" d="M1277.29,-237.72C1221.73,-228.27 1122.3,-211.09 1037.5,-195 1037.4,-194.98 1037.3,-194.96 1037.2,-194.94"/>
<polygon fill="#63b8ff" stroke="#63b8ff" points="1038.06,-191.54 1027.58,-193.09 1036.73,-198.42 1038.06,-191.54"/>
</a>
</g>
</g>
<!-- Node3&#45;&gt;Node26 -->
<g id="edge45_Node000003_Node000026" class="edge">
<title>Node3&#45;&gt;Node26</title>
<g id="a_edge45_Node000003_Node000026"><a xlink:title=" ">
<path fill="none" stroke="#63b8ff" d="M1277.32,-243.09C1085.59,-234.6 318.43,-200.43 267.5,-195 258.22,-194.01 248.4,-192.66 238.88,-191.18"/>
<polygon fill="#63b8ff" stroke="#63b8ff" points="239.13,-187.67 228.7,-189.54 238.02,-194.58 239.13,-187.67"/>
</a>
</g>
</g>
<!-- Node27 -->
<g id="Node000027" class="node">
<title>Node27</title>
<g id="a_Node000027"><a xlink:title=" ">
<polygon fill="#e0e0e0" stroke="#999999" points="1133,-189.5 1046,-189.5 1046,-170.5 1133,-170.5 1133,-189.5"/>
<text text-anchor="middle" x="1089.5" y="-177.5" font-family="Helvetica,sans-Serif" font-size="10.00">user_defines.h</text>
</a>
</g>
</g>
<!-- Node3&#45;&gt;Node27 -->
<g id="edge46_Node000003_Node000027" class="edge">
<title>Node3&#45;&gt;Node27</title>
<g id="a_edge46_Node000003_Node000027"><a xlink:title=" ">
<path fill="none" stroke="#63b8ff" d="M1289.35,-236.37C1248.24,-224.98 1175.81,-204.91 1130.35,-192.32"/>
<polygon fill="#63b8ff" stroke="#63b8ff" points="1131.1,-188.89 1120.53,-189.6 1129.23,-195.64 1131.1,-188.89"/>
</a>
</g>
</g>
<!-- Node28 -->
<g id="Node000028" class="node">
<title>Node28</title>
<g id="a_Node000028"><a xlink:title=" ">
<polygon fill="#e0e0e0" stroke="#999999" points="1276,-189.5 1151,-189.5 1151,-170.5 1276,-170.5 1276,-189.5"/>
<text text-anchor="middle" x="1213.5" y="-177.5" font-family="Helvetica,sans-Serif" font-size="10.00">user_input_typedefs.h</text>
</a>
</g>
</g>
<!-- Node3&#45;&gt;Node28 -->
<g id="edge47_Node000003_Node000028" class="edge">
<title>Node3&#45;&gt;Node28</title>
<g id="a_edge47_Node000003_Node000028"><a xlink:title=" ">
<path fill="none" stroke="#63b8ff" d="M1306.07,-236.37C1288.28,-225.73 1257.82,-207.51 1236.72,-194.89"/>
<polygon fill="#63b8ff" stroke="#63b8ff" points="1238.42,-191.83 1228.04,-189.7 1234.83,-197.84 1238.42,-191.83"/>
</a>
</g>
</g>
<!-- Node29 -->
<g id="Node000029" class="node">
<title>Node29</title>
<g id="a_Node000029"><a xlink:title=" ">
<polygon fill="#e0e0e0" stroke="#999999" points="1347,-189.5 1294,-189.5 1294,-170.5 1347,-170.5 1347,-189.5"/>
<text text-anchor="middle" x="1320.5" y="-177.5" font-family="Helvetica,sans-Serif" font-size="10.00">string.h</text>
</a>
</g>
</g>
<!-- Node3&#45;&gt;Node29 -->
<g id="edge48_Node000003_Node000029" class="edge">
<title>Node3&#45;&gt;Node29</title>
<g id="a_edge48_Node000003_Node000029"><a xlink:title=" ">
<path fill="none" stroke="#63b8ff" d="M1320.5,-236.37C1320.5,-227.16 1320.5,-212.29 1320.5,-200.27"/>
<polygon fill="#63b8ff" stroke="#63b8ff" points="1324,-199.91 1320.5,-189.91 1317,-199.91 1324,-199.91"/>
</a>
</g>
</g>
<!-- Node30 -->
<g id="Node000030" class="node">
<title>Node30</title>
<g id="a_Node000030"><a xlink:title=" ">
<polygon fill="#e0e0e0" stroke="#999999" points="1448,-189.5 1365,-189.5 1365,-170.5 1448,-170.5 1448,-189.5"/>
<text text-anchor="middle" x="1406.5" y="-177.5" font-family="Helvetica,sans-Serif" font-size="10.00">output_decl.h</text>
</a>
</g>
</g>
<!-- Node3&#45;&gt;Node30 -->
<g id="edge49_Node000003_Node000030" class="edge">
<title>Node3&#45;&gt;Node30</title>
<g id="a_edge49_Node000003_Node000030"><a xlink:title=" ">
<path fill="none" stroke="#63b8ff" d="M1332.1,-236.37C1346.08,-225.97 1369.79,-208.32 1386.68,-195.75"/>
<polygon fill="#63b8ff" stroke="#63b8ff" points="1388.88,-198.48 1394.81,-189.7 1384.7,-192.86 1388.88,-198.48"/>
</a>
</g>
</g>
<!-- Node31 -->
<g id="Node000031" class="node">
<title>Node31</title>
<g id="a_Node000031"><a xlink:title=" ">
<polygon fill="#e0e0e0" stroke="#999999" points="1582.5,-189.5 1466.5,-189.5 1466.5,-170.5 1582.5,-170.5 1582.5,-189.5"/>
<text text-anchor="middle" x="1524.5" y="-177.5" font-family="Helvetica,sans-Serif" font-size="10.00">comp_loaded_decl.h</text>
</a>
</g>
</g>
<!-- Node3&#45;&gt;Node31 -->
<g id="edge50_Node000003_Node000031" class="edge">
<title>Node3&#45;&gt;Node31</title>
<g id="a_edge50_Node000003_Node000031"><a xlink:title=" ">
<path fill="none" stroke="#63b8ff" d="M1348.01,-236.37C1384.01,-225.08 1447.21,-205.25 1487.41,-192.64"/>
<polygon fill="#63b8ff" stroke="#63b8ff" points="1488.6,-195.93 1497.1,-189.6 1486.51,-189.25 1488.6,-195.93"/>
</a>
</g>
</g>
<!-- Node32 -->
<g id="Node000032" class="node">
<title>Node32</title>
<g id="a_Node000032"><a xlink:title=" ">
<polygon fill="#e0e0e0" stroke="#999999" points="1678.5,-189.5 1600.5,-189.5 1600.5,-170.5 1678.5,-170.5 1678.5,-189.5"/>
<text text-anchor="middle" x="1639.5" y="-177.5" font-family="Helvetica,sans-Serif" font-size="10.00">comp_decl.h</text>
</a>
</g>
</g>
<!-- Node3&#45;&gt;Node32 -->
<g id="edge51_Node000003_Node000032" class="edge">
<title>Node3&#45;&gt;Node32</title>
<g id="a_edge51_Node000003_Node000032"><a xlink:title=" ">
<path fill="none" stroke="#63b8ff" d="M1363.96,-238.37C1417.73,-229.86 1511.9,-213.9 1591.5,-195 1594.94,-194.18 1598.5,-193.27 1602.06,-192.32"/>
<polygon fill="#63b8ff" stroke="#63b8ff" points="1603.27,-195.61 1611.96,-189.55 1601.39,-188.87 1603.27,-195.61"/>
</a>
</g>
</g>
<!-- Node33 -->
<g id="Node000033" class="node">
<title>Node33</title>
<g id="a_Node000033"><a xlink:title=" ">
<polygon fill="#e0e0e0" stroke="#999999" points="1804.5,-189.5 1696.5,-189.5 1696.5,-170.5 1804.5,-170.5 1804.5,-189.5"/>
<text text-anchor="middle" x="1750.5" y="-177.5" font-family="Helvetica,sans-Serif" font-size="10.00">info_loaded_decl.h</text>
</a>
</g>
</g>
<!-- Node3&#45;&gt;Node33 -->
<g id="edge52_Node000003_Node000033" class="edge">
<title>Node3&#45;&gt;Node33</title>
<g id="a_edge52_Node000003_Node000033"><a xlink:title=" ">
<path fill="none" stroke="#63b8ff" d="M1363.62,-240.3C1432.39,-232.55 1571.03,-215.84 1687.5,-195 1693.01,-194.01 1698.78,-192.88 1704.48,-191.69"/>
<polygon fill="#63b8ff" stroke="#63b8ff" points="1705.58,-195.03 1714.62,-189.51 1704.11,-188.19 1705.58,-195.03"/>
</a>
</g>
</g>
<!-- Node34 -->
<g id="Node000034" class="node">
<title>Node34</title>
<g id="a_Node000034"><a xlink:title=" ">
<polygon fill="#e0e0e0" stroke="#999999" points="1962.5,-189.5 1822.5,-189.5 1822.5,-170.5 1962.5,-170.5 1962.5,-189.5"/>
<text text-anchor="middle" x="1892.5" y="-177.5" font-family="Helvetica,sans-Serif" font-size="10.00">device_mesh_info_decl.h</text>
</a>
</g>
</g>
<!-- Node3&#45;&gt;Node34 -->
<g id="edge53_Node000003_Node000034" class="edge">
<title>Node3&#45;&gt;Node34</title>
<g id="a_edge53_Node000003_Node000034"><a xlink:title=" ">
<path fill="none" stroke="#63b8ff" d="M1363.82,-241.7C1449.8,-234.9 1647.98,-218.03 1813.5,-195 1821.44,-193.89 1829.81,-192.58 1838.01,-191.2"/>
<polygon fill="#63b8ff" stroke="#63b8ff" points="1838.63,-194.65 1847.89,-189.5 1837.44,-187.75 1838.63,-194.65"/>
</a>
</g>
</g>
<!-- Node35 -->
<g id="Node000035" class="node">
<title>Node35</title>
<g id="a_Node000035"><a xlink:title=" ">
<polygon fill="#e0e0e0" stroke="#999999" points="2058,-189.5 1981,-189.5 1981,-170.5 2058,-170.5 2058,-189.5"/>
<text text-anchor="middle" x="2019.5" y="-177.5" font-family="Helvetica,sans-Serif" font-size="10.00">array_decl.h</text>
</a>
</g>
</g>
<!-- Node3&#45;&gt;Node35 -->
<g id="edge54_Node000003_Node000035" class="edge">
<title>Node3&#45;&gt;Node35</title>
<g id="a_edge54_Node000003_Node000035"><a xlink:title=" ">
<path fill="none" stroke="#63b8ff" d="M1363.55,-244.76C1468.42,-243.52 1745.12,-236.25 1971.5,-195 1975.63,-194.25 1979.92,-193.28 1984.15,-192.2"/>
<polygon fill="#63b8ff" stroke="#63b8ff" points="1985.11,-195.57 1993.83,-189.55 1983.26,-188.82 1985.11,-195.57"/>
</a>
</g>
</g>
<!-- Node36 -->
<g id="Node000036" class="node">
<title>Node36</title>
<g id="a_Node000036"><a xlink:title=" ">
<polygon fill="#e0e0e0" stroke="#999999" points="2152.5,-189.5 2076.5,-189.5 2076.5,-170.5 2152.5,-170.5 2152.5,-189.5"/>
<text text-anchor="middle" x="2114.5" y="-177.5" font-family="Helvetica,sans-Serif" font-size="10.00">input_decl.h</text>
</a>
</g>
</g>
<!-- Node3&#45;&gt;Node36 -->
<g id="edge55_Node000003_Node000036" class="edge">
<title>Node3&#45;&gt;Node36</title>
<g id="a_edge55_Node000003_Node000036"><a xlink:title=" ">
<path fill="none" stroke="#63b8ff" d="M1363.86,-245.45C1479.3,-245.93 1803.34,-242.57 2067.5,-195 2071.44,-194.29 2075.52,-193.37 2079.55,-192.34"/>
<polygon fill="#63b8ff" stroke="#63b8ff" points="2080.68,-195.66 2089.38,-189.6 2078.81,-188.91 2080.68,-195.66"/>
</a>
</g>
</g>
<!-- Node37 -->
<g id="Node000037" class="node">
<title>Node37</title>
<g id="a_Node000037"><a xlink:title=" ">
<polygon fill="#e0e0e0" stroke="#999999" points="2294,-195 2171,-195 2171,-165 2294,-165 2294,-195"/>
<text text-anchor="start" x="2179" y="-183" font-family="Helvetica,sans-Serif" font-size="10.00">scalar_reduce_buffers</text>
<text text-anchor="middle" x="2232.5" y="-172" font-family="Helvetica,sans-Serif" font-size="10.00">_in_vba.h</text>
</a>
</g>
</g>
<!-- Node3&#45;&gt;Node37 -->
<g id="edge56_Node000003_Node000037" class="edge">
<title>Node3&#45;&gt;Node37</title>
<g id="a_edge56_Node000003_Node000037"><a xlink:title=" ">
<path fill="none" stroke="#63b8ff" d="M1363.58,-244.49C1486.52,-242.61 1849.63,-234.01 2160.52,-194.99"/>
<polygon fill="#63b8ff" stroke="#63b8ff" points="2161.14,-198.44 2170.62,-193.71 2160.26,-191.5 2161.14,-198.44"/>
</a>
</g>
</g>
<!-- Node38 -->
<g id="Node000038" class="node">
<title>Node38</title>
<g id="a_Node000038"><a xlink:title=" ">
<polygon fill="#e0e0e0" stroke="#999999" points="2446.5,-195 2312.5,-195 2312.5,-165 2446.5,-165 2446.5,-195"/>
<text text-anchor="start" x="2320.5" y="-183" font-family="Helvetica,sans-Serif" font-size="10.00">load_and_store_uniform</text>
<text text-anchor="middle" x="2379.5" y="-172" font-family="Helvetica,sans-Serif" font-size="10.00">_header.h</text>
</a>
</g>
</g>
<!-- Node3&#45;&gt;Node38 -->
<g id="edge57_Node000003_Node000038" class="edge">
<title>Node3&#45;&gt;Node38</title>
<g id="a_edge57_Node000003_Node000038"><a xlink:title=" ">
<path fill="none" stroke="#63b8ff" d="M1363.79,-244.82C1500.3,-243.83 1934.06,-237.42 2302.38,-195.02"/>
<polygon fill="#63b8ff" stroke="#63b8ff" points="2302.91,-198.48 2312.44,-193.85 2302.1,-191.53 2302.91,-198.48"/>
</a>
</g>
</g>
<!-- Node6 -->
<g id="Node000006" class="node">
<title>Node6</title>
<g id="a_Node000006"><a xlink:href="acreal_8h.html" target="_top" xlink:title=" ">
<polygon fill="white" stroke="#666666" points="534.5,-74 478.5,-74 478.5,-55 534.5,-55 534.5,-74"/>
<text text-anchor="middle" x="506.5" y="-62" font-family="Helvetica,sans-Serif" font-size="10.00">acreal.h</text>
</a>
</g>
</g>
<!-- Node5&#45;&gt;Node6 -->
<g id="edge6_Node000005_Node000006" class="edge">
<title>Node5&#45;&gt;Node6</title>
<g id="a_edge6_Node000005_Node000006"><a xlink:title=" ">
<path fill="none" stroke="#63b8ff" d="M543.49,-170.47C537.04,-152.15 521.72,-108.68 512.95,-83.81"/>
<polygon fill="#63b8ff" stroke="#63b8ff" points="516.17,-82.4 509.54,-74.13 509.56,-84.72 516.17,-82.4"/>
</a>
</g>
</g>
<!-- Node5&#45;&gt;Node7 -->
<g id="edge7_Node000005_Node000007" class="edge">
<title>Node5&#45;&gt;Node7</title>
<g id="a_edge7_Node000005_Node000007"><a xlink:title=" ">
<path fill="none" stroke="#63b8ff" d="M550.78,-170.47C560.07,-151.98 582.21,-107.9 594.64,-83.14"/>
<polygon fill="#63b8ff" stroke="#63b8ff" points="597.81,-84.64 599.17,-74.13 591.55,-81.5 597.81,-84.64"/>
</a>
</g>
</g>
<!-- Node10 -->
<g id="Node000010" class="node">
<title>Node10</title>
<g id="a_Node000010"><a xlink:href="host__datatypes_8h.html" target="_top" xlink:title=" ">
<polygon fill="white" stroke="#666666" points="723,-129 622,-129 622,-110 723,-110 723,-129"/>
<text text-anchor="middle" x="672.5" y="-117" font-family="Helvetica,sans-Serif" font-size="10.00">host_datatypes.h</text>
</a>
</g>
</g>
<!-- Node5&#45;&gt;Node10 -->
<g id="edge10_Node000005_Node000010" class="edge">
<title>Node5&#45;&gt;Node10</title>
<g id="a_edge10_Node000005_Node000010"><a xlink:title=" ">
<path fill="none" stroke="#63b8ff" d="M564.82,-170.49C585.91,-160.7 620.76,-144.52 645.08,-133.23"/>
<polygon fill="#63b8ff" stroke="#63b8ff" points="646.56,-136.4 654.16,-129.02 643.61,-130.05 646.56,-136.4"/>
</a>
</g>
</g>
<!-- Node8 -->
<g id="Node000008" class="node">
<title>Node8</title>
<g id="a_Node000008"><a xlink:title=" ">
<polygon fill="#e0e0e0" stroke="#999999" points="369,-19 256,-19 256,0 369,0 369,-19"/>
<text text-anchor="middle" x="312.5" y="-7" font-family="Helvetica,sans-Serif" font-size="10.00">cuda_runtime_api.h</text>
</a>
</g>
</g>
<!-- Node7&#45;&gt;Node8 -->
<g id="edge8_Node000007_Node000008" class="edge">
<title>Node7&#45;&gt;Node8</title>
<g id="a_edge8_Node000007_Node000008"><a xlink:title=" ">
<path fill="none" stroke="#63b8ff" d="M556.75,-54.98C505.78,-45.7 424.19,-30.84 369.51,-20.88"/>
<polygon fill="#63b8ff" stroke="#63b8ff" points="370.09,-17.43 359.62,-19.08 368.83,-24.32 370.09,-17.43"/>
</a>
</g>
</g>
<!-- Node9 -->
<g id="Node000009" class="node">
<title>Node9</title>
<g id="a_Node000009"><a xlink:title=" ">
<polygon fill="#e0e0e0" stroke="#999999" points="641.5,-19 565.5,-19 565.5,0 641.5,0 641.5,-19"/>
<text text-anchor="middle" x="603.5" y="-7" font-family="Helvetica,sans-Serif" font-size="10.00">cuda_fp16.h</text>
</a>
</g>
</g>
<!-- Node7&#45;&gt;Node9 -->
<g id="edge9_Node000007_Node000009" class="edge">
<title>Node7&#45;&gt;Node9</title>
<g id="a_edge9_Node000007_Node000009"><a xlink:title=" ">
<path fill="none" stroke="#63b8ff" d="M603.5,-54.75C603.5,-47.8 603.5,-37.85 603.5,-29.13"/>
<polygon fill="#63b8ff" stroke="#63b8ff" points="607,-29.09 603.5,-19.09 600,-29.09 607,-29.09"/>
</a>
</g>
</g>
<!-- Node10&#45;&gt;Node2 -->
<g id="edge11_Node000010_Node000002" class="edge">
<title>Node10&#45;&gt;Node2</title>
<g id="a_edge11_Node000010_Node000002"><a xlink:title=" ">
<path fill="none" stroke="#63b8ff" d="M723.03,-115.86C757.98,-114.08 805.56,-111.74 847.5,-110 1337.55,-89.63 1932.77,-71.52 2093.71,-66.73"/>
<polygon fill="#63b8ff" stroke="#63b8ff" points="2094.22,-70.22 2104.11,-66.42 2094.01,-63.22 2094.22,-70.22"/>
</a>
</g>
</g>
<!-- Node10&#45;&gt;Node6 -->
<g id="edge13_Node000010_Node000006" class="edge">
<title>Node10&#45;&gt;Node6</title>
<g id="a_edge13_Node000010_Node000006"><a xlink:title=" ">
<path fill="none" stroke="#63b8ff" d="M645.83,-109.98C617.96,-101.09 574.05,-87.07 542.98,-77.15"/>
<polygon fill="#63b8ff" stroke="#63b8ff" points="543.97,-73.79 533.38,-74.08 541.84,-80.46 543.97,-73.79"/>
</a>
</g>
</g>
<!-- Node10&#45;&gt;Node7 -->
<g id="edge15_Node000010_Node000007" class="edge">
<title>Node10&#45;&gt;Node7</title>
<g id="a_edge15_Node000010_Node000007"><a xlink:title=" ">
<path fill="none" stroke="#63b8ff" d="M661.41,-109.98C651.01,-102 635.24,-89.88 622.78,-80.31"/>
<polygon fill="#63b8ff" stroke="#63b8ff" points="624.85,-77.49 614.79,-74.17 620.59,-83.04 624.85,-77.49"/>
</a>
</g>
</g>
<!-- Node11 -->
<g id="Node000011" class="node">
<title>Node11</title>
<g id="a_Node000011"><a xlink:title=" ">
<polygon fill="#e0e0e0" stroke="#999999" points="855.5,-74 799.5,-74 799.5,-55 855.5,-55 855.5,-74"/>
<text text-anchor="middle" x="827.5" y="-62" font-family="Helvetica,sans-Serif" font-size="10.00">stddef.h</text>
</a>
</g>
</g>
<!-- Node10&#45;&gt;Node11 -->
<g id="edge12_Node000010_Node000011" class="edge">
<title>Node10&#45;&gt;Node11</title>
<g id="a_edge12_Node000010_Node000011"><a xlink:title=" ">
<path fill="none" stroke="#63b8ff" d="M697.4,-109.98C723.2,-101.16 763.72,-87.31 792.68,-77.41"/>
<polygon fill="#63b8ff" stroke="#63b8ff" points="794.07,-80.63 802.4,-74.08 791.81,-74.01 794.07,-80.63"/>
</a>
</g>
</g>
<!-- Node10&#45;&gt;Node12 -->
<g id="edge14_Node000010_Node000012" class="edge">
<title>Node10&#45;&gt;Node12</title>
<g id="a_edge14_Node000010_Node000012"><a xlink:title=" ">
<path fill="none" stroke="#63b8ff" d="M621.88,-114.21C506.96,-104.46 226.88,-80.71 105.35,-70.41"/>
<polygon fill="#63b8ff" stroke="#63b8ff" points="105.4,-66.9 95.14,-69.54 104.81,-73.87 105.4,-66.9"/>
</a>
</g>
</g>
<!-- Node13 -->
<g id="Node000013" class="node">
<title>Node13</title>
<g id="a_Node000013"><a xlink:title=" ">
<polygon fill="#e0e0e0" stroke="#999999" points="768,-74 673,-74 673,-55 768,-55 768,-74"/>
<text text-anchor="middle" x="720.5" y="-62" font-family="Helvetica,sans-Serif" font-size="10.00">user_typedefs.h</text>
</a>
</g>
</g>
<!-- Node10&#45;&gt;Node13 -->
<g id="edge16_Node000010_Node000013" class="edge">
<title>Node10&#45;&gt;Node13</title>
<g id="a_edge16_Node000010_Node000013"><a xlink:title=" ">
<path fill="none" stroke="#63b8ff" d="M680.43,-109.75C687.35,-102.11 697.57,-90.82 705.95,-81.56"/>
<polygon fill="#63b8ff" stroke="#63b8ff" points="708.6,-83.85 712.72,-74.09 703.41,-79.15 708.6,-83.85"/>
</a>
</g>
</g>
<!-- Node14&#45;&gt;Node6 -->
<g id="edge20_Node000014_Node000006" class="edge">
<title>Node14&#45;&gt;Node6</title>
<g id="a_edge20_Node000014_Node000006"><a xlink:title=" ">
<path fill="none" stroke="#63b8ff" d="M647.08,-170.47C621.33,-151.24 558.51,-104.33 526.28,-80.27"/>
<polygon fill="#63b8ff" stroke="#63b8ff" points="528.16,-77.31 518.06,-74.13 523.98,-82.92 528.16,-77.31"/>
</a>
</g>
</g>
<!-- Node14&#45;&gt;Node7 -->
<g id="edge21_Node000014_Node000007" class="edge">
<title>Node14&#45;&gt;Node7</title>
<g id="a_edge21_Node000014_Node000007"><a xlink:title=" ">
<path fill="none" stroke="#63b8ff" d="M680.92,-170.37C708.74,-158.35 750.45,-135.17 732.5,-110 722.93,-96.58 685.67,-84.61 653.64,-76.47"/>
<polygon fill="#63b8ff" stroke="#63b8ff" points="654.45,-73.06 643.9,-74.07 652.78,-79.86 654.45,-73.06"/>
</a>
</g>
</g>
<!-- Node14&#45;&gt;Node10 -->
<g id="edge22_Node000014_Node000010" class="edge">
<title>Node14&#45;&gt;Node10</title>
<g id="a_edge22_Node000014_Node000010"><a xlink:title=" ">
<path fill="none" stroke="#63b8ff" d="M660.57,-170.37C662.53,-162.16 665.55,-149.54 668.06,-139.05"/>
<polygon fill="#63b8ff" stroke="#63b8ff" points="671.5,-139.71 670.43,-129.17 664.69,-138.08 671.5,-139.71"/>
</a>
</g>
</g>
<!-- Node14&#45;&gt;Node11 -->
<g id="edge19_Node000014_Node000011" class="edge">
<title>Node14&#45;&gt;Node11</title>
<g id="a_edge19_Node000014_Node000011"><a xlink:title=" ">
<path fill="none" stroke="#63b8ff" d="M675.93,-170.44C694.45,-161.08 724.32,-145.26 748.5,-129 770.68,-114.09 794.34,-94.52 809.93,-81.07"/>
<polygon fill="#63b8ff" stroke="#63b8ff" points="812.46,-83.5 817.7,-74.29 807.86,-78.23 812.46,-83.5"/>
</a>
</g>
</g>
<!-- Node15&#45;&gt;Node6 -->
<g id="edge26_Node000015_Node000006" class="edge">
<title>Node15&#45;&gt;Node6</title>
<g id="a_edge26_Node000015_Node000006"><a xlink:title=" ">
<path fill="none" stroke="#63b8ff" d="M316.7,-170.46C269.74,-156.92 183.57,-131.79 181.5,-129 176.47,-122.22 175.95,-116.36 181.5,-110 218.29,-67.84 390.09,-64.18 467.96,-64.76"/>
<polygon fill="#63b8ff" stroke="#63b8ff" points="468.27,-68.26 478.3,-64.87 468.34,-61.26 468.27,-68.26"/>
</a>
</g>
</g>
<!-- Node15&#45;&gt;Node7 -->
<g id="edge28_Node000015_Node000007" class="edge">
<title>Node15&#45;&gt;Node7</title>
<g id="a_edge28_Node000015_Node000007"><a xlink:title=" ">
<path fill="none" stroke="#63b8ff" d="M359.22,-170.4C380.49,-156.3 424.92,-128.06 465.5,-110 496.43,-96.24 532.95,-84.65 560.65,-76.76"/>
<polygon fill="#63b8ff" stroke="#63b8ff" points="561.74,-80.09 570.42,-74.02 559.85,-73.34 561.74,-80.09"/>
</a>
</g>
</g>
<!-- Node15&#45;&gt;Node8 -->
<g id="edge30_Node000015_Node000008" class="edge">
<title>Node15&#45;&gt;Node8</title>
<g id="a_edge30_Node000015_Node000008"><a xlink:title=" ">
<path fill="none" stroke="#63b8ff" d="M316.21,-170.49C266.89,-156.61 174.6,-130.46 173.5,-129 138.59,-82.57 224.82,-41.91 276.69,-22.54"/>
<polygon fill="#63b8ff" stroke="#63b8ff" points="278.05,-25.77 286.25,-19.06 275.66,-19.19 278.05,-25.77"/>
</a>
</g>
</g>
<!-- Node15&#45;&gt;Node10 -->
<g id="edge29_Node000015_Node000010" class="edge">
<title>Node15&#45;&gt;Node10</title>
<g id="a_edge29_Node000015_Node000010"><a xlink:title=" ">
<path fill="none" stroke="#63b8ff" d="M383.58,-172.35C440.09,-162.21 548.23,-142.8 614.98,-130.82"/>
<polygon fill="#63b8ff" stroke="#63b8ff" points="615.7,-134.25 624.93,-129.04 614.46,-127.36 615.7,-134.25"/>
</a>
</g>
</g>
<!-- Node15&#45;&gt;Node12 -->
<g id="edge27_Node000015_Node000012" class="edge">
<title>Node15&#45;&gt;Node12</title>
<g id="a_edge27_Node000015_Node000012"><a xlink:title=" ">
<path fill="none" stroke="#63b8ff" d="M316.93,-170.47C309.93,-168.57 302.47,-166.63 295.5,-165 213.51,-145.84 183.62,-168.94 109.5,-129 88.61,-117.74 70.41,-97.04 59.23,-82.34"/>
<polygon fill="#63b8ff" stroke="#63b8ff" points="61.94,-80.11 53.21,-74.1 56.28,-84.24 61.94,-80.11"/>
</a>
</g>
</g>
<!-- Node16 -->
<g id="Node000016" class="node">
<title>Node16</title>
<g id="a_Node000016"><a xlink:title=" ">
<polygon fill="#e0e0e0" stroke="#999999" points="413,-129 366,-129 366,-110 413,-110 413,-129"/>
<text text-anchor="middle" x="389.5" y="-117" font-family="Helvetica,sans-Serif" font-size="10.00">float.h</text>
</a>
</g>
</g>
<!-- Node15&#45;&gt;Node16 -->
<g id="edge24_Node000015_Node000016" class="edge">
<title>Node15&#45;&gt;Node16</title>
<g id="a_edge24_Node000015_Node000016"><a xlink:title=" ">
<path fill="none" stroke="#63b8ff" d="M352.84,-170.37C359.2,-161.73 369.14,-148.2 377.07,-137.42"/>
<polygon fill="#63b8ff" stroke="#63b8ff" points="380.03,-139.3 383.13,-129.17 374.39,-135.15 380.03,-139.3"/>
</a>
</g>
</g>
<!-- Node17 -->
<g id="Node000017" class="node">
<title>Node17</title>
<g id="a_Node000017"><a xlink:title=" ">
<polygon fill="#e0e0e0" stroke="#999999" points="241,-129 190,-129 190,-110 241,-110 241,-129"/>
<text text-anchor="middle" x="215.5" y="-117" font-family="Helvetica,sans-Serif" font-size="10.00">math.h</text>
</a>
</g>
</g>
<!-- Node15&#45;&gt;Node17 -->
<g id="edge25_Node000015_Node000017" class="edge">
<title>Node15&#45;&gt;Node17</title>
<g id="a_edge25_Node000015_Node000017"><a xlink:title=" ">
<path fill="none" stroke="#63b8ff" d="M327.45,-170.49C305.53,-160.7 269.29,-144.52 244,-133.23"/>
<polygon fill="#63b8ff" stroke="#63b8ff" points="245.13,-129.9 234.57,-129.02 242.28,-136.29 245.13,-129.9"/>
</a>
</g>
</g>
<!-- Node18 -->
<g id="Node000018" class="node">
<title>Node18</title>
<g id="a_Node000018"><a xlink:title=" ">
<polygon fill="#e0e0e0" stroke="#999999" points="348,-129 259,-129 259,-110 348,-110 348,-129"/>
<text text-anchor="middle" x="303.5" y="-117" font-family="Helvetica,sans-Serif" font-size="10.00">vector_types.h</text>
</a>
</g>
</g>
<!-- Node15&#45;&gt;Node18 -->
<g id="edge31_Node000015_Node000018" class="edge">
<title>Node15&#45;&gt;Node18</title>
<g id="a_edge31_Node000015_Node000018"><a xlink:title=" ">
<path fill="none" stroke="#63b8ff" d="M340.16,-170.37C333.8,-161.73 323.86,-148.2 315.93,-137.42"/>
<polygon fill="#63b8ff" stroke="#63b8ff" points="318.61,-135.15 309.87,-129.17 312.97,-139.3 318.61,-135.15"/>
</a>
</g>
</g>
<!-- Node19&#45;&gt;Node2 -->
<g id="edge34_Node000019_Node000002" class="edge">
<title>Node19&#45;&gt;Node2</title>
<g id="a_edge34_Node000019_Node000002"><a xlink:title=" ">
<path fill="none" stroke="#63b8ff" d="M779.15,-170.37C784.67,-168.28 790.73,-166.28 796.5,-165 925.96,-136.33 1883.06,-80.02 2094.32,-67.85"/>
<polygon fill="#63b8ff" stroke="#63b8ff" points="2094.59,-71.34 2104.37,-67.28 2094.18,-64.36 2094.59,-71.34"/>
</a>
</g>
</g>
<!-- Node19&#45;&gt;Node4 -->
<g id="edge37_Node000019_Node000004" class="edge">
<title>Node19&#45;&gt;Node4</title>
<g id="a_edge37_Node000019_Node000004"><a xlink:title=" ">
<path fill="none" stroke="#63b8ff" d="M778.73,-170.36C784.35,-168.21 790.57,-166.19 796.5,-165 862.26,-151.84 1895.95,-126.3 2101.22,-121.34"/>
<polygon fill="#63b8ff" stroke="#63b8ff" points="2101.52,-124.84 2111.43,-121.1 2101.35,-117.84 2101.52,-124.84"/>
</a>
</g>
</g>
<!-- Node19&#45;&gt;Node7 -->
<g id="edge40_Node000019_Node000007" class="edge">
<title>Node19&#45;&gt;Node7</title>
<g id="a_edge40_Node000019_Node000007"><a xlink:title=" ">
<path fill="none" stroke="#63b8ff" d="M760.8,-170.16C762.4,-155.74 763.3,-127.03 748.5,-110 736.46,-96.15 694.54,-84.19 658.85,-76.17"/>
<polygon fill="#63b8ff" stroke="#63b8ff" points="659.5,-72.72 648.98,-74.01 658,-79.56 659.5,-72.72"/>
</a>
</g>
</g>
<!-- Node19&#45;&gt;Node10 -->
<g id="edge41_Node000019_Node000010" class="edge">
<title>Node19&#45;&gt;Node10</title>
<g id="a_edge41_Node000019_Node000010"><a xlink:title=" ">
<path fill="none" stroke="#63b8ff" d="M746.66,-170.37C732.78,-161.04 710.43,-146.01 693.89,-134.88"/>
<polygon fill="#63b8ff" stroke="#63b8ff" points="695.64,-131.84 685.39,-129.17 691.74,-137.65 695.64,-131.84"/>
</a>
</g>
</g>
<!-- Node19&#45;&gt;Node11 -->
<g id="edge35_Node000019_Node000011" class="edge">
<title>Node19&#45;&gt;Node11</title>
<g id="a_edge35_Node000019_Node000011"><a xlink:title=" ">
<path fill="none" stroke="#63b8ff" d="M779.59,-170.47C785,-168.42 790.91,-166.43 796.5,-165 852.8,-150.63 1017.34,-172.83 1055.5,-129 1061.04,-122.63 1060.87,-116.52 1055.5,-110 1031.92,-81.37 924.5,-70.91 865.91,-67.29"/>
<polygon fill="#63b8ff" stroke="#63b8ff" points="866.09,-63.79 855.91,-66.71 865.69,-70.78 866.09,-63.79"/>
</a>
</g>
</g>
<!-- Node20 -->
<g id="Node000020" class="node">
<title>Node20</title>
<g id="a_Node000020"><a xlink:title=" ">
<polygon fill="#e0e0e0" stroke="#999999" points="909,-129 856,-129 856,-110 909,-110 909,-129"/>
<text text-anchor="middle" x="882.5" y="-117" font-family="Helvetica,sans-Serif" font-size="10.00">stdint.h</text>
</a>
</g>
</g>
<!-- Node19&#45;&gt;Node20 -->
<g id="edge36_Node000019_Node000020" class="edge">
<title>Node19&#45;&gt;Node20</title>
<g id="a_edge36_Node000019_Node000020"><a xlink:title=" ">
<path fill="none" stroke="#63b8ff" d="M777.39,-170.49C797.88,-160.75 831.69,-144.66 855.42,-133.38"/>
<polygon fill="#63b8ff" stroke="#63b8ff" points="857.07,-136.47 864.59,-129.02 854.06,-130.15 857.07,-136.47"/>
</a>
</g>
</g>
<!-- Node21 -->
<g id="Node000021" class="node">
<title>Node21</title>
<g id="a_Node000021"><a xlink:title=" ">
<polygon fill="#e0e0e0" stroke="#999999" points="980,-129 927,-129 927,-110 980,-110 980,-129"/>
<text text-anchor="middle" x="953.5" y="-117" font-family="Helvetica,sans-Serif" font-size="10.00">stdlib.h</text>
</a>
</g>
</g>
<!-- Node19&#45;&gt;Node21 -->
<g id="edge38_Node000019_Node000021" class="edge">
<title>Node19&#45;&gt;Node21</title>
<g id="a_edge38_Node000019_Node000021"><a xlink:title=" ">
<path fill="none" stroke="#63b8ff" d="M781.3,-170.4C786.27,-168.54 791.54,-166.64 796.5,-165 837.4,-151.49 885.1,-138.33 917.09,-129.87"/>
<polygon fill="#63b8ff" stroke="#63b8ff" points="918.12,-133.22 926.9,-127.3 916.34,-126.45 918.12,-133.22"/>
</a>
</g>
</g>
<!-- Node22 -->
<g id="Node000022" class="node">
<title>Node22</title>
<g id="a_Node000022"><a xlink:title=" ">
<polygon fill="#e0e0e0" stroke="#999999" points="1046.5,-129 998.5,-129 998.5,-110 1046.5,-110 1046.5,-129"/>
<text text-anchor="middle" x="1022.5" y="-117" font-family="Helvetica,sans-Serif" font-size="10.00">time.h</text>
</a>
</g>
</g>
<!-- Node19&#45;&gt;Node22 -->
<g id="edge39_Node000019_Node000022" class="edge">
<title>Node19&#45;&gt;Node22</title>
<g id="a_edge39_Node000019_Node000022"><a xlink:title=" ">
<path fill="none" stroke="#63b8ff" d="M780.03,-170.49C785.33,-168.5 791.08,-166.52 796.5,-165 877.49,-142.32 902.51,-147.47 988.47,-129.08"/>
<polygon fill="#63b8ff" stroke="#63b8ff" points="989.37,-132.46 998.39,-126.91 987.88,-125.63 989.37,-132.46"/>
</a>
</g>
</g>
</g>
</svg>

<g id="navigator" transform="translate(0 0)" fill="#404254">
  <rect fill="#f2f5e9" fill-opacity="0.5" stroke="#606060" stroke-width=".5" x="0" y="0" width="60" height="60"/>
  <use id="zoomplus" xlink:href="#zoomPlus" x="17" y="9" onmousedown="handleZoom(evt,'in')"/>
  <use id="zoomminus" xlink:href="#zoomMin" x="42" y="9" onmousedown="handleZoom(evt,'out')"/>
  <use id="reset" xlink:href="#resetDef" x="30" y="36" onmousedown="handleReset()"/>
   <use id="arrowup" xlink:href="#arrowUp" x="0" y="0" onmousedown="handlePan(0,-1)"/>
  <use id="arrowright" xlink:href="#arrowRight" x="0" y="0" onmousedown="handlePan(1,0)"/>
  <use id="arrowdown" xlink:href="#arrowDown" x="0" y="0" onmousedown="handlePan(0,1)"/>
  <use id="arrowleft" xlink:href="#arrowLeft" x="0" y="0" onmousedown="handlePan(-1,0)"/>
</g>
<svg viewBox="0 0 15 15" width="100%" height="30px" preserveAspectRatio="xMaxYMin meet">
 <g id="arrow_out" transform="scale(0.3 0.3)">
  <a xlink:href="astaroth__base_8h__incl_org.svg" target="_base">
   <rect id="button" ry="5" rx="5" y="6" x="6" height="38" width="38"
        fill="#f2f5e9" fill-opacity="0.5" stroke="#606060" stroke-width="1.0"/>
   <path id="arrow"
     d="M 11.500037,31.436501 C 11.940474,20.09759 22.043105,11.32322 32.158766,21.979434 L 37.068811,17.246167 C 37.068811,17.246167 37.088388,32 37.088388,32 L 22.160133,31.978069 C 22.160133,31.978069 26.997745,27.140456 26.997745,27.140456 C 18.528582,18.264221 13.291696,25.230495 11.500037,31.436501 z"
     style="fill:#404040;"/>
  </a>
 </g>
</svg>

<style type='text/css'>
<![CDATA[
[data-mouse-over-selected='false'] { opacity: 0.7; }
[data-mouse-over-selected='true']  { opacity: 1.0; }
]]>
</style>
<script type="application/ecmascript"><![CDATA[
document.addEventListener('DOMContentLoaded', (event) => {
  highlightEdges();
  highlightAdjacentNodes();
});
]]></script>
</svg>
