<?xml version="1.0" encoding="UTF-8" standalone="no"?>
<!DOCTYPE svg PUBLIC "-//W3C//DTD SVG 1.1//EN"
 "http://www.w3.org/Graphics/SVG/1.1/DTD/svg11.dtd">
<!-- Generated by graphviz version 2.43.0 (0)
 -->
<!-- Title: include/astaroth_cuda_wrappers.h Pages: 1 -->
<!--zoomable 159 -->

<svg id="main" version="1.1" xmlns="http://www.w3.org/2000/svg" xmlns:xlink="http://www.w3.org/1999/xlink" xml:space="preserve" onload="init(evt)">
<style type="text/css"><![CDATA[
.node, .edge {opacity: 0.7;}
.node.selected, .edge.selected {opacity: 1;}
.edge:hover path { stroke: red; }
.edge:hover polygon { stroke: red; fill: red; }
]]></style>

<defs>
  <circle id="rim" cx="0" cy="0" r="7"/>
  <circle id="rim2" cx="0" cy="0" r="3.5"/>
  <g id="zoomPlus">
    <use xlink:href="#rim" fill="#404040"><set attributeName="fill" to="#808080" begin="zoomplus.mouseover" end="zoomplus.mouseout"/></use>
    <path d="M-4,0h8M0,-4v8" fill="none" stroke="white" stroke-width="1.5" pointer-events="none"/>
  </g>
  <g id="zoomMin">
    <use xlink:href="#rim" fill="#404040"><set attributeName="fill" to="#808080" begin="zoomminus.mouseover" end="zoomminus.mouseout"/></use>
    <path d="M-4,0h8" fill="none" stroke="white" stroke-width="1.5" pointer-events="none"/>
  </g>
  <g id="arrowUp" transform="translate(30 24)">
    <use xlink:href="#rim"/>
    <path pointer-events="none" fill="none" stroke="white" stroke-width="1.5" d="M0,-3.0v7 M-2.5,-0.5L0,-3.0L2.5,-0.5"/>
  </g>
  <g id="arrowRight" transform="rotate(90) translate(36 -43)">
    <use xlink:href="#rim"/>
    <path pointer-events="none" fill="none" stroke="white" stroke-width="1.5" d="M0,-3.0v7 M-2.5,-0.5L0,-3.0L2.5,-0.5"/>
  </g>
  <g id="arrowDown" transform="rotate(180) translate(-30 -48)">
    <use xlink:href="#rim"/>
    <path pointer-events="none" fill="none" stroke="white" stroke-width="1.5" d="M0,-3.0v7 M-2.5,-0.5L0,-3.0L2.5,-0.5"/>
  </g>
  <g id="arrowLeft" transform="rotate(270) translate(-36 17)">
    <use xlink:href="#rim"/>
    <path pointer-events="none" fill="none" stroke="white" stroke-width="1.5" d="M0,-3.0v7 M-2.5,-0.5L0,-3.0L2.5,-0.5"/>
  </g>
  <g id="resetDef">
    <use xlink:href="#rim2" fill="#404040"><set attributeName="fill" to="#808080" begin="reset.mouseover" end="reset.mouseout"/></use>
  </g>
</defs>
<script type="application/ecmascript">
var viewWidth = 3100;
var viewHeight = 159;
var sectionId = 'dynsection-1';
</script>
<script type="application/ecmascript" xlink:href="svg.min.js"/>
<svg id="graph" class="graph">
<g id="viewport">
<title>include/astaroth_cuda_wrappers.h</title>
<!-- Node1 -->
<g id="Node000001" class="node">
<title>Node1</title>
<g id="a_Node000001"><a xlink:title=" ">
<polygon fill="#999999" stroke="#666666" points="1548,-151 1424,-151 1424,-121 1548,-121 1548,-151"/>
<text text-anchor="start" x="1432" y="-139" font-family="Helvetica,sans-Serif" font-size="10.00">include/astaroth_cuda</text>
<text text-anchor="middle" x="1486" y="-128" font-family="Helvetica,sans-Serif" font-size="10.00">_wrappers.h</text>
</a>
</g>
</g>
<!-- Node2 -->
<g id="Node000002" class="node">
<title>Node2</title>
<g id="a_Node000002"><a xlink:href="acc__runtime_8cu.html" target="_top" xlink:title=" ">
<polygon fill="white" stroke="#666666" points="129.5,-85 16.5,-85 16.5,-55 129.5,-55 129.5,-85"/>
<text text-anchor="start" x="24.5" y="-73" font-family="Helvetica,sans-Serif" font-size="10.00">acc&#45;runtime/api/acc</text>
<text text-anchor="middle" x="73" y="-62" font-family="Helvetica,sans-Serif" font-size="10.00">_runtime.cu</text>
</a>
</g>
</g>
<!-- Node1&#45;&gt;Node2 -->
<g id="edge1_Node000001_Node000002" class="edge">
<title>Node1&#45;&gt;Node2</title>
<g id="a_edge1_Node000001_Node000002"><a xlink:title=" ">
<path fill="none" stroke="#63b8ff" d="M1413.59,-133.95C1171.11,-130.2 388.99,-115.92 139,-85 135.98,-84.63 132.89,-84.18 129.78,-83.69"/>
<polygon fill="#63b8ff" stroke="#63b8ff" points="1413.64,-137.46 1423.7,-134.11 1413.75,-130.46 1413.64,-137.46"/>
</a>
</g>
</g>
<!-- Node4 -->
<g id="Node000004" class="node">
<title>Node4</title>
<g id="a_Node000004"><a xlink:href="common__kernels_8cc.html" target="_top" xlink:title=" ">
<polygon fill="white" stroke="#666666" points="286.5,-85 147.5,-85 147.5,-55 286.5,-55 286.5,-85"/>
<text text-anchor="start" x="155.5" y="-73" font-family="Helvetica,sans-Serif" font-size="10.00">acc&#45;runtime/api/common</text>
<text text-anchor="middle" x="217" y="-62" font-family="Helvetica,sans-Serif" font-size="10.00">_kernels.cc</text>
</a>
</g>
</g>
<!-- Node1&#45;&gt;Node4 -->
<g id="edge3_Node000001_Node000004" class="edge">
<title>Node1&#45;&gt;Node4</title>
<g id="a_edge3_Node000001_Node000004"><a xlink:title=" ">
<path fill="none" stroke="#63b8ff" d="M1413.64,-135.31C1227.6,-135.39 717.65,-131.01 296,-85 292.95,-84.67 289.85,-84.29 286.71,-83.87"/>
<polygon fill="#63b8ff" stroke="#63b8ff" points="1413.84,-138.81 1423.84,-135.3 1413.84,-131.81 1413.84,-138.81"/>
</a>
</g>
</g>
<!-- Node5 -->
<g id="Node000005" class="node">
<title>Node5</title>
<g id="a_Node000005"><a xlink:href="vba_8cc.html" target="_top" xlink:title=" ">
<polygon fill="white" stroke="#666666" points="433,-79.5 305,-79.5 305,-60.5 433,-60.5 433,-79.5"/>
<text text-anchor="middle" x="369" y="-67.5" font-family="Helvetica,sans-Serif" font-size="10.00">acc&#45;runtime/api/vba.cc</text>
</a>
</g>
</g>
<!-- Node1&#45;&gt;Node5 -->
<g id="edge4_Node000001_Node000005" class="edge">
<title>Node1&#45;&gt;Node5</title>
<g id="a_edge4_Node000001_Node000005"><a xlink:title=" ">
<path fill="none" stroke="#63b8ff" d="M1413.89,-135.05C1243.96,-134.42 805.3,-128.32 442,-85 430.85,-83.67 418.85,-81.63 407.86,-79.51"/>
<polygon fill="#63b8ff" stroke="#63b8ff" points="1413.96,-138.55 1423.97,-135.09 1413.98,-131.55 1413.96,-138.55"/>
</a>
</g>
</g>
<!-- Node6 -->
<g id="Node000006" class="node">
<title>Node6</title>
<g id="a_Node000006"><a xlink:href="astaroth_8cc.html" target="_top" xlink:title=" ">
<polygon fill="white" stroke="#666666" points="563,-79.5 451,-79.5 451,-60.5 563,-60.5 563,-79.5"/>
<text text-anchor="middle" x="507" y="-67.5" font-family="Helvetica,sans-Serif" font-size="10.00">src/core/astaroth.cc</text>
</a>
</g>
</g>
<!-- Node1&#45;&gt;Node6 -->
<g id="edge5_Node000001_Node000006" class="edge">
<title>Node1&#45;&gt;Node6</title>
<g id="a_edge5_Node000001_Node000006"><a xlink:title=" ">
<path fill="none" stroke="#63b8ff" d="M1413.65,-134.82C1258.77,-133.61 883.93,-126.24 573,-85 563.01,-83.68 552.29,-81.66 542.45,-79.57"/>
<polygon fill="#63b8ff" stroke="#63b8ff" points="1413.95,-138.32 1423.97,-134.89 1414,-131.32 1413.95,-138.32"/>
</a>
</g>
</g>
<!-- Node7 -->
<g id="Node000007" class="node">
<title>Node7</title>
<g id="a_Node000007"><a xlink:href="cpu_8cc.html" target="_top" xlink:title=" ">
<polygon fill="white" stroke="#666666" points="712.5,-85 581.5,-85 581.5,-55 712.5,-55 712.5,-85"/>
<text text-anchor="start" x="589.5" y="-73" font-family="Helvetica,sans-Serif" font-size="10.00">src/core/cuda_wrappers</text>
<text text-anchor="middle" x="647" y="-62" font-family="Helvetica,sans-Serif" font-size="10.00">/cpu.cc</text>
</a>
</g>
</g>
<!-- Node1&#45;&gt;Node7 -->
<g id="edge6_Node000001_Node000007" class="edge">
<title>Node1&#45;&gt;Node7</title>
<g id="a_edge6_Node000001_Node000007"><a xlink:title=" ">
<path fill="none" stroke="#63b8ff" d="M1413.58,-133.14C1277.59,-129 974.9,-116.76 722,-85 718.98,-84.62 715.89,-84.2 712.78,-83.74"/>
<polygon fill="#63b8ff" stroke="#63b8ff" points="1413.77,-136.64 1423.87,-133.44 1413.98,-129.65 1413.77,-136.64"/>
</a>
</g>
</g>
<!-- Node8 -->
<g id="Node000008" class="node">
<title>Node8</title>
<g id="a_Node000008"><a xlink:href="cuda_8cc.html" target="_top" xlink:title=" ">
<polygon fill="white" stroke="#666666" points="861.5,-85 730.5,-85 730.5,-55 861.5,-55 861.5,-85"/>
<text text-anchor="start" x="738.5" y="-73" font-family="Helvetica,sans-Serif" font-size="10.00">src/core/cuda_wrappers</text>
<text text-anchor="middle" x="796" y="-62" font-family="Helvetica,sans-Serif" font-size="10.00">/cuda.cc</text>
</a>
</g>
</g>
<!-- Node1&#45;&gt;Node8 -->
<g id="edge7_Node000001_Node000008" class="edge">
<title>Node1&#45;&gt;Node8</title>
<g id="a_edge7_Node000001_Node000008"><a xlink:title=" ">
<path fill="none" stroke="#63b8ff" d="M1413.69,-131.55C1298.48,-125.51 1066.32,-111.1 871,-85 867.98,-84.6 864.9,-84.15 861.79,-83.68"/>
<polygon fill="#63b8ff" stroke="#63b8ff" points="1413.63,-135.05 1423.79,-132.07 1413.99,-128.06 1413.63,-135.05"/>
</a>
</g>
</g>
<!-- Node9 -->
<g id="Node000009" class="node">
<title>Node9</title>
<g id="a_Node000009"><a xlink:href="decomposition_8cc.html" target="_top" xlink:title=" ">
<polygon fill="white" stroke="#666666" points="1010,-85 880,-85 880,-55 1010,-55 1010,-85"/>
<text text-anchor="start" x="888" y="-73" font-family="Helvetica,sans-Serif" font-size="10.00">src/core/decomposition</text>
<text text-anchor="middle" x="945" y="-62" font-family="Helvetica,sans-Serif" font-size="10.00">/decomposition.cc</text>
</a>
</g>
</g>
<!-- Node1&#45;&gt;Node9 -->
<g id="edge8_Node000001_Node000009" class="edge">
<title>Node1&#45;&gt;Node9</title>
<g id="a_edge8_Node000001_Node000009"><a xlink:title=" ">
<path fill="none" stroke="#63b8ff" d="M1413.82,-129.08C1321.87,-121.13 1158.17,-105.58 1019,-85 1016.15,-84.58 1013.25,-84.13 1010.32,-83.65"/>
<polygon fill="#63b8ff" stroke="#63b8ff" points="1413.59,-132.58 1423.86,-129.95 1414.19,-125.6 1413.59,-132.58"/>
</a>
</g>
</g>
<!-- Node10 -->
<g id="Node000010" class="node">
<title>Node10</title>
<g id="a_Node000010"><a xlink:href="device_8cc.html" target="_top" xlink:title=" ">
<polygon fill="white" stroke="#666666" points="1132,-79.5 1028,-79.5 1028,-60.5 1132,-60.5 1132,-79.5"/>
<text text-anchor="middle" x="1080" y="-67.5" font-family="Helvetica,sans-Serif" font-size="10.00">src/core/device.cc</text>
</a>
</g>
</g>
<!-- Node1&#45;&gt;Node10 -->
<g id="edge9_Node000001_Node000010" class="edge">
<title>Node1&#45;&gt;Node10</title>
<g id="a_edge9_Node000001_Node000010"><a xlink:title=" ">
<path fill="none" stroke="#63b8ff" d="M1413.7,-126.27C1343.7,-117.4 1234.7,-102.51 1141,-85 1132.56,-83.42 1123.52,-81.49 1115.06,-79.56"/>
<polygon fill="#63b8ff" stroke="#63b8ff" points="1413.38,-129.76 1423.74,-127.53 1414.25,-122.81 1413.38,-129.76"/>
</a>
</g>
</g>
<!-- Node11 -->
<g id="Node000011" class="node">
<title>Node11</title>
<g id="a_Node000011"><a xlink:href="grid_8cc.html" target="_top" xlink:title=" ">
<polygon fill="white" stroke="#666666" points="1240,-79.5 1150,-79.5 1150,-60.5 1240,-60.5 1240,-79.5"/>
<text text-anchor="middle" x="1195" y="-67.5" font-family="Helvetica,sans-Serif" font-size="10.00">src/core/grid.cc</text>
</a>
</g>
</g>
<!-- Node1&#45;&gt;Node11 -->
<g id="edge10_Node000001_Node000011" class="edge">
<title>Node1&#45;&gt;Node11</title>
<g id="a_edge10_Node000001_Node000011"><a xlink:title=" ">
<path fill="none" stroke="#63b8ff" d="M1414.15,-120.73C1367.06,-111.16 1304.23,-97.98 1249,-85 1241.83,-83.32 1234.16,-81.4 1226.92,-79.53"/>
<polygon fill="#63b8ff" stroke="#63b8ff" points="1413.45,-124.16 1423.95,-122.72 1414.84,-117.3 1413.45,-124.16"/>
</a>
</g>
</g>
<!-- Node12 -->
<g id="Node000012" class="node">
<title>Node12</title>
<g id="a_Node000012"><a xlink:href="buffer_8cc.html" target="_top" xlink:title=" ">
<polygon fill="white" stroke="#666666" points="1396,-79.5 1258,-79.5 1258,-60.5 1396,-60.5 1396,-79.5"/>
<text text-anchor="middle" x="1327" y="-67.5" font-family="Helvetica,sans-Serif" font-size="10.00">src/core/helpers/buffer.cc</text>
</a>
</g>
</g>
<!-- Node1&#45;&gt;Node12 -->
<g id="edge11_Node000001_Node000012" class="edge">
<title>Node1&#45;&gt;Node12</title>
<g id="a_edge11_Node000001_Node000012"><a xlink:title=" ">
<path fill="none" stroke="#63b8ff" d="M1441.53,-117.1C1411.01,-104.82 1371.88,-89.06 1348.16,-79.52"/>
<polygon fill="#63b8ff" stroke="#63b8ff" points="1440.52,-120.47 1451.11,-120.95 1443.14,-113.97 1440.52,-120.47"/>
</a>
</g>
</g>
<!-- Node13 -->
<g id="Node000013" class="node">
<title>Node13</title>
<g id="a_Node000013"><a xlink:href="helpers_2device_8cc.html" target="_top" xlink:title=" ">
<polygon fill="white" stroke="#666666" points="1557.5,-79.5 1414.5,-79.5 1414.5,-60.5 1557.5,-60.5 1557.5,-79.5"/>
<text text-anchor="middle" x="1486" y="-67.5" font-family="Helvetica,sans-Serif" font-size="10.00">src/core/helpers/device.cc</text>
</a>
</g>
</g>
<!-- Node1&#45;&gt;Node13 -->
<g id="edge12_Node000001_Node000013" class="edge">
<title>Node1&#45;&gt;Node13</title>
<g id="a_edge12_Node000001_Node000013"><a xlink:title=" ">
<path fill="none" stroke="#63b8ff" d="M1486,-110.6C1486,-99.8 1486,-87.78 1486,-79.84"/>
<polygon fill="#63b8ff" stroke="#63b8ff" points="1482.5,-110.8 1486,-120.8 1489.5,-110.8 1482.5,-110.8"/>
</a>
</g>
</g>
<!-- Node14 -->
<g id="Node000014" class="node">
<title>Node14</title>
<g id="a_Node000014"><a xlink:href="helpers_8cc.html" target="_top" xlink:title=" ">
<polygon fill="white" stroke="#666666" points="1722,-79.5 1576,-79.5 1576,-60.5 1722,-60.5 1722,-79.5"/>
<text text-anchor="middle" x="1649" y="-67.5" font-family="Helvetica,sans-Serif" font-size="10.00">src/core/helpers/helpers.cc</text>
</a>
</g>
</g>
<!-- Node1&#45;&gt;Node14 -->
<g id="edge13_Node000001_Node000014" class="edge">
<title>Node1&#45;&gt;Node14</title>
<g id="a_edge13_Node000001_Node000014"><a xlink:title=" ">
<path fill="none" stroke="#63b8ff" d="M1531.18,-117.26C1562.53,-104.95 1602.89,-89.11 1627.31,-79.52"/>
<polygon fill="#63b8ff" stroke="#63b8ff" points="1529.8,-114.04 1521.77,-120.95 1532.36,-120.56 1529.8,-114.04"/>
</a>
</g>
</g>
<!-- Node15 -->
<g id="Node000015" class="node">
<title>Node15</title>
<g id="a_Node000015"><a xlink:href="cpufft_8cc.html" target="_top" xlink:title=" ">
<polygon fill="white" stroke="#666666" points="1877.5,-79.5 1740.5,-79.5 1740.5,-60.5 1877.5,-60.5 1877.5,-79.5"/>
<text text-anchor="middle" x="1809" y="-67.5" font-family="Helvetica,sans-Serif" font-size="10.00">src/core/kernels/cpufft.cc</text>
</a>
</g>
</g>
<!-- Node1&#45;&gt;Node15 -->
<g id="edge14_Node000001_Node000015" class="edge">
<title>Node1&#45;&gt;Node15</title>
<g id="a_edge14_Node000001_Node000015"><a xlink:title=" ">
<path fill="none" stroke="#63b8ff" d="M1558.28,-120.68C1622.09,-108.03 1712.99,-90.02 1766,-79.52"/>
<polygon fill="#63b8ff" stroke="#63b8ff" points="1557.41,-117.28 1548.28,-122.66 1558.77,-124.15 1557.41,-117.28"/>
</a>
</g>
</g>
<!-- Node16 -->
<g id="Node000016" class="node">
<title>Node16</title>
<g id="a_Node000016"><a xlink:href="cufft_8cc.html" target="_top" xlink:title=" ">
<polygon fill="white" stroke="#666666" points="2026.5,-79.5 1895.5,-79.5 1895.5,-60.5 2026.5,-60.5 2026.5,-79.5"/>
<text text-anchor="middle" x="1961" y="-67.5" font-family="Helvetica,sans-Serif" font-size="10.00">src/core/kernels/cufft.cc</text>
</a>
</g>
</g>
<!-- Node1&#45;&gt;Node16 -->
<g id="edge15_Node000001_Node000016" class="edge">
<title>Node1&#45;&gt;Node16</title>
<g id="a_edge15_Node000001_Node000016"><a xlink:title=" ">
<path fill="none" stroke="#63b8ff" d="M1558.36,-127.36C1638.81,-118.55 1772.51,-102.95 1887,-85 1897.2,-83.4 1908.16,-81.45 1918.43,-79.53"/>
<polygon fill="#63b8ff" stroke="#63b8ff" points="1557.9,-123.89 1548.34,-128.46 1558.66,-130.85 1557.9,-123.89"/>
</a>
</g>
</g>
<!-- Node17 -->
<g id="Node000017" class="node">
<title>Node17</title>
<g id="a_Node000017"><a xlink:href="heffte_8cc.html" target="_top" xlink:title=" ">
<polygon fill="white" stroke="#666666" points="2183,-79.5 2045,-79.5 2045,-60.5 2183,-60.5 2183,-79.5"/>
<text text-anchor="middle" x="2114" y="-67.5" font-family="Helvetica,sans-Serif" font-size="10.00">src/core/kernels/heffte.cc</text>
</a>
</g>
</g>
<!-- Node1&#45;&gt;Node17 -->
<g id="edge16_Node000001_Node000017" class="edge">
<title>Node1&#45;&gt;Node17</title>
<g id="a_edge16_Node000001_Node000017"><a xlink:title=" ">
<path fill="none" stroke="#63b8ff" d="M1558.26,-130.44C1663.61,-123.34 1865.42,-108.02 2036,-85 2047.18,-83.49 2059.2,-81.51 2070.38,-79.52"/>
<polygon fill="#63b8ff" stroke="#63b8ff" points="1557.8,-126.96 1548.06,-131.12 1558.27,-133.95 1557.8,-126.96"/>
</a>
</g>
</g>
<!-- Node18 -->
<g id="Node000018" class="node">
<title>Node18</title>
<g id="a_Node000018"><a xlink:href="reductions_8cu.html" target="_top" xlink:title=" ">
<polygon fill="white" stroke="#666666" points="2362.5,-79.5 2201.5,-79.5 2201.5,-60.5 2362.5,-60.5 2362.5,-79.5"/>
<text text-anchor="middle" x="2282" y="-67.5" font-family="Helvetica,sans-Serif" font-size="10.00">src/core/kernels/reductions.cu</text>
</a>
</g>
</g>
<!-- Node1&#45;&gt;Node18 -->
<g id="edge17_Node000001_Node000018" class="edge">
<title>Node1&#45;&gt;Node18</title>
<g id="a_edge17_Node000001_Node000018"><a xlink:title=" ">
<path fill="none" stroke="#63b8ff" d="M1558.08,-131.89C1686.02,-125.92 1961.08,-111.09 2192,-85 2205.04,-83.53 2219.09,-81.54 2232.11,-79.52"/>
<polygon fill="#63b8ff" stroke="#63b8ff" points="1557.84,-128.4 1548.02,-132.35 1558.17,-135.39 1557.84,-128.4"/>
</a>
</g>
</g>
<!-- Node19 -->
<g id="Node000019" class="node">
<title>Node19</title>
<g id="a_Node000019"><a xlink:href="rocfft_8cc.html" target="_top" xlink:title=" ">
<polygon fill="white" stroke="#666666" points="2515.5,-79.5 2380.5,-79.5 2380.5,-60.5 2515.5,-60.5 2515.5,-79.5"/>
<text text-anchor="middle" x="2448" y="-67.5" font-family="Helvetica,sans-Serif" font-size="10.00">src/core/kernels/rocfft.cc</text>
</a>
</g>
</g>
<!-- Node1&#45;&gt;Node19 -->
<g id="edge18_Node000001_Node000019" class="edge">
<title>Node1&#45;&gt;Node19</title>
<g id="a_edge18_Node000001_Node000019"><a xlink:title=" ">
<path fill="none" stroke="#63b8ff" d="M1558.38,-133.99C1709.87,-131.21 2071.25,-121.04 2372,-85 2383.46,-83.63 2395.79,-81.6 2407.12,-79.51"/>
<polygon fill="#63b8ff" stroke="#63b8ff" points="1558.2,-130.5 1548.27,-134.18 1558.33,-137.5 1558.2,-130.5"/>
</a>
</g>
</g>
<!-- Node20 -->
<g id="Node000020" class="node">
<title>Node20</title>
<g id="a_Node000020"><a xlink:href="transpose_8cc.html" target="_top" xlink:title=" ">
<polygon fill="white" stroke="#666666" points="2692,-79.5 2534,-79.5 2534,-60.5 2692,-60.5 2692,-79.5"/>
<text text-anchor="middle" x="2613" y="-67.5" font-family="Helvetica,sans-Serif" font-size="10.00">src/core/kernels/transpose.cc</text>
</a>
</g>
</g>
<!-- Node1&#45;&gt;Node20 -->
<g id="edge19_Node000001_Node000020" class="edge">
<title>Node1&#45;&gt;Node20</title>
<g id="a_edge19_Node000001_Node000020"><a xlink:title=" ">
<path fill="none" stroke="#63b8ff" d="M1558.29,-134.25C1727.67,-131.89 2163.24,-122.37 2525,-85 2538.23,-83.63 2552.51,-81.6 2565.63,-79.51"/>
<polygon fill="#63b8ff" stroke="#63b8ff" points="1558.2,-130.75 1548.25,-134.38 1558.29,-137.75 1558.2,-130.75"/>
</a>
</g>
</g>
<!-- Node21 -->
<g id="Node000021" class="node">
<title>Node21</title>
<g id="a_Node000021"><a xlink:href="transpose_8cu.html" target="_top" xlink:title=" ">
<polygon fill="white" stroke="#666666" points="2868,-79.5 2710,-79.5 2710,-60.5 2868,-60.5 2868,-79.5"/>
<text text-anchor="middle" x="2789" y="-67.5" font-family="Helvetica,sans-Serif" font-size="10.00">src/core/kernels/transpose.cu</text>
</a>
</g>
</g>
<!-- Node1&#45;&gt;Node21 -->
<g id="edge20_Node000001_Node000021" class="edge">
<title>Node1&#45;&gt;Node21</title>
<g id="a_edge20_Node000001_Node000021"><a xlink:title=" ">
<path fill="none" stroke="#63b8ff" d="M1558.2,-134.96C1746.66,-134.23 2268.85,-128.12 2701,-85 2714.39,-83.66 2728.85,-81.62 2742.09,-79.5"/>
<polygon fill="#63b8ff" stroke="#63b8ff" points="1558.12,-131.46 1548.14,-135 1558.15,-138.46 1558.12,-131.46"/>
</a>
</g>
</g>
<!-- Node22 -->
<g id="Node000022" class="node">
<title>Node22</title>
<g id="a_Node000022"><a xlink:href="node_8cc.html" target="_top" xlink:title="Multi&#45;GPU implementation.">
<polygon fill="white" stroke="#666666" points="2981.5,-79.5 2886.5,-79.5 2886.5,-60.5 2981.5,-60.5 2981.5,-79.5"/>
<text text-anchor="middle" x="2934" y="-67.5" font-family="Helvetica,sans-Serif" font-size="10.00">src/core/node.cc</text>
</a>
</g>
</g>
<!-- Node1&#45;&gt;Node22 -->
<g id="edge21_Node000001_Node000022" class="edge">
<title>Node1&#45;&gt;Node22</title>
<g id="a_edge21_Node000001_Node000022"><a xlink:title=" ">
<path fill="none" stroke="#63b8ff" d="M1558.68,-134.35C1806.71,-131.84 2618.64,-120.98 2877,-85 2885.98,-83.75 2895.61,-81.68 2904.35,-79.5"/>
<polygon fill="#63b8ff" stroke="#63b8ff" points="1558.31,-130.86 1548.35,-134.46 1558.38,-137.86 1558.31,-130.86"/>
</a>
</g>
</g>
<!-- Node23 -->
<g id="Node000023" class="node">
<title>Node23</title>
<g id="a_Node000023"><a xlink:href="task_8cc.html" target="_top" xlink:title=" ">
<polygon fill="white" stroke="#666666" points="3092,-79.5 3000,-79.5 3000,-60.5 3092,-60.5 3092,-79.5"/>
<text text-anchor="middle" x="3046" y="-67.5" font-family="Helvetica,sans-Serif" font-size="10.00">src/core/task.cc</text>
</a>
</g>
</g>
<!-- Node1&#45;&gt;Node23 -->
<g id="edge22_Node000001_Node000023" class="edge">
<title>Node1&#45;&gt;Node23</title>
<g id="a_edge22_Node000001_Node000023"><a xlink:title=" ">
<path fill="none" stroke="#63b8ff" d="M1558.45,-134.66C1819.21,-133.14 2709.41,-125.04 2991,-85 2999.68,-83.77 3008.97,-81.7 3017.4,-79.52"/>
<polygon fill="#63b8ff" stroke="#63b8ff" points="1558.31,-131.17 1548.33,-134.72 1558.35,-138.17 1558.31,-131.17"/>
</a>
</g>
</g>
<!-- Node3 -->
<g id="Node000003" class="node">
<title>Node3</title>
<g id="a_Node000003"><a xlink:href="kernels_8cu.html" target="_top" xlink:title=" ">
<polygon fill="white" stroke="#666666" points="146,-19 0,-19 0,0 146,0 146,-19"/>
<text text-anchor="middle" x="73" y="-7" font-family="Helvetica,sans-Serif" font-size="10.00">src/core/kernels/kernels.cu</text>
</a>
</g>
</g>
<!-- Node2&#45;&gt;Node3 -->
<g id="edge2_Node000002_Node000003" class="edge">
<title>Node2&#45;&gt;Node3</title>
<g id="a_edge2_Node000002_Node000003"><a xlink:title=" ">
<path fill="none" stroke="#63b8ff" d="M73,-44.75C73,-35.72 73,-26.03 73,-19.27"/>
<polygon fill="#63b8ff" stroke="#63b8ff" points="69.5,-44.84 73,-54.84 76.5,-44.84 69.5,-44.84"/>
</a>
</g>
</g>
</g>
</svg>

<g id="navigator" transform="translate(0 0)" fill="#404254">
  <rect fill="#f2f5e9" fill-opacity="0.5" stroke="#606060" stroke-width=".5" x="0" y="0" width="60" height="60"/>
  <use id="zoomplus" xlink:href="#zoomPlus" x="17" y="9" onmousedown="handleZoom(evt,'in')"/>
  <use id="zoomminus" xlink:href="#zoomMin" x="42" y="9" onmousedown="handleZoom(evt,'out')"/>
  <use id="reset" xlink:href="#resetDef" x="30" y="36" onmousedown="handleReset()"/>
   <use id="arrowup" xlink:href="#arrowUp" x="0" y="0" onmousedown="handlePan(0,-1)"/>
  <use id="arrowright" xlink:href="#arrowRight" x="0" y="0" onmousedown="handlePan(1,0)"/>
  <use id="arrowdown" xlink:href="#arrowDown" x="0" y="0" onmousedown="handlePan(0,1)"/>
  <use id="arrowleft" xlink:href="#arrowLeft" x="0" y="0" onmousedown="handlePan(-1,0)"/>
</g>
<svg viewBox="0 0 15 15" width="100%" height="30px" preserveAspectRatio="xMaxYMin meet">
 <g id="arrow_out" transform="scale(0.3 0.3)">
  <a xlink:href="astaroth__cuda__wrappers_8h__dep__incl_org.svg" target="_base">
   <rect id="button" ry="5" rx="5" y="6" x="6" height="38" width="38"
        fill="#f2f5e9" fill-opacity="0.5" stroke="#606060" stroke-width="1.0"/>
   <path id="arrow"
     d="M 11.500037,31.436501 C 11.940474,20.09759 22.043105,11.32322 32.158766,21.979434 L 37.068811,17.246167 C 37.068811,17.246167 37.088388,32 37.088388,32 L 22.160133,31.978069 C 22.160133,31.978069 26.997745,27.140456 26.997745,27.140456 C 18.528582,18.264221 13.291696,25.230495 11.500037,31.436501 z"
     style="fill:#404040;"/>
  </a>
 </g>
</svg>

<style type='text/css'>
<![CDATA[
[data-mouse-over-selected='false'] { opacity: 0.7; }
[data-mouse-over-selected='true']  { opacity: 1.0; }
]]>
</style>
<script type="application/ecmascript"><![CDATA[
document.addEventListener('DOMContentLoaded', (event) => {
  highlightEdges();
  highlightAdjacentNodes();
});
]]></script>
</svg>
