<?xml version="1.0" encoding="UTF-8" standalone="no"?>
<!DOCTYPE svg PUBLIC "-//W3C//DTD SVG 1.1//EN"
 "http://www.w3.org/Graphics/SVG/1.1/DTD/svg11.dtd">
<!-- Generated by graphviz version 14.1.2 (0)
 -->
<!-- Title: include/astaroth_random.h Pages: 1 -->
<svg width="323pt" height="142pt"
 viewBox="0.00 0.00 323.00 142.00" xmlns="http://www.w3.org/2000/svg" xmlns:xlink="http://www.w3.org/1999/xlink">
<g id="graph0" class="graph" transform="scale(1 1) rotate(0) translate(4 138.25)">
<title>include/astaroth_random.h</title>
<!-- Node1 -->
<g id="Node000001" class="node">
<title>Node1</title>
<g id="a_Node000001"><a xlink:title=" ">
<polygon fill="#999999" stroke="#666666" points="206.62,-134.25 60.12,-134.25 60.12,-113.5 206.62,-113.5 206.62,-134.25"/>
<text xml:space="preserve" text-anchor="middle" x="133.38" y="-120.75" font-family="Helvetica,sans-Serif" font-size="10.00">include/astaroth_random.h</text>
</a>
</g>
</g>
<!-- Node2 -->
<g id="Node000002" class="node">
<title>Node2</title>
<g id="a_Node000002"><a xlink:title=" ">
<polygon fill="#e0e0e0" stroke="#999999" points="52.75,-77.5 0,-77.5 0,-56.75 52.75,-56.75 52.75,-77.5"/>
<text xml:space="preserve" text-anchor="middle" x="26.38" y="-64" font-family="Helvetica,sans-Serif" font-size="10.00">stdint.h</text>
</a>
</g>
</g>
<!-- Node1&#45;&gt;Node2 -->
<g id="edge1_Node000001_Node000002" class="edge">
<title>Node1&#45;&gt;Node2</title>
<g id="a_edge1_Node000001_Node000002"><a xlink:title=" ">
<path fill="none" stroke="#63b8ff" d="M114.25,-113.09C97.89,-104.72 74.1,-92.54 55.4,-82.97"/>
<polygon fill="#63b8ff" stroke="#63b8ff" points="57.18,-79.96 46.69,-78.52 53.99,-86.19 57.18,-79.96"/>
</a>
</g>
</g>
<!-- Node3 -->
<g id="Node000003" class="node">
<title>Node3</title>
<g id="a_Node000003"><a xlink:title=" ">
<polygon fill="#e0e0e0" stroke="#999999" points="124.12,-77.5 70.62,-77.5 70.62,-56.75 124.12,-56.75 124.12,-77.5"/>
<text xml:space="preserve" text-anchor="middle" x="97.38" y="-64" font-family="Helvetica,sans-Serif" font-size="10.00">random</text>
</a>
</g>
</g>
<!-- Node1&#45;&gt;Node3 -->
<g id="edge2_Node000001_Node000003" class="edge">
<title>Node1&#45;&gt;Node3</title>
<g id="a_edge2_Node000001_Node000003"><a xlink:title=" ">
<path fill="none" stroke="#63b8ff" d="M126.94,-113.09C122.23,-105.92 115.69,-95.98 109.96,-87.26"/>
<polygon fill="#63b8ff" stroke="#63b8ff" points="113.01,-85.53 104.59,-79.09 107.16,-89.37 113.01,-85.53"/>
</a>
</g>
</g>
<!-- Node4 -->
<g id="Node000004" class="node">
<title>Node4</title>
<g id="a_Node000004"><a xlink:href="acreal_8h.html" target="_top" xlink:title=" ">
<polygon fill="white" stroke="#666666" points="196.88,-77.5 141.88,-77.5 141.88,-56.75 196.88,-56.75 196.88,-77.5"/>
<text xml:space="preserve" text-anchor="middle" x="169.38" y="-64" font-family="Helvetica,sans-Serif" font-size="10.00">acreal.h</text>
</a>
</g>
</g>
<!-- Node1&#45;&gt;Node4 -->
<g id="edge3_Node000001_Node000004" class="edge">
<title>Node1&#45;&gt;Node4</title>
<g id="a_edge3_Node000001_Node000004"><a xlink:title=" ">
<path fill="none" stroke="#63b8ff" d="M139.81,-113.09C144.52,-105.92 151.06,-95.98 156.79,-87.26"/>
<polygon fill="#63b8ff" stroke="#63b8ff" points="159.59,-89.37 162.16,-79.09 153.74,-85.53 159.59,-89.37"/>
</a>
</g>
</g>
<!-- Node5 -->
<g id="Node000005" class="node">
<title>Node5</title>
<g id="a_Node000005"><a xlink:href="func__define_8h.html" target="_top" xlink:title=" ">
<polygon fill="white" stroke="#666666" points="296,-77.5 214.75,-77.5 214.75,-56.75 296,-56.75 296,-77.5"/>
<text xml:space="preserve" text-anchor="middle" x="255.38" y="-64" font-family="Helvetica,sans-Serif" font-size="10.00">func_define.h</text>
</a>
</g>
</g>
<!-- Node1&#45;&gt;Node5 -->
<g id="edge4_Node000001_Node000005" class="edge">
<title>Node1&#45;&gt;Node5</title>
<g id="a_edge4_Node000001_Node000005"><a xlink:title=" ">
<path fill="none" stroke="#63b8ff" d="M155.19,-113.09C174.18,-104.56 201.97,-92.09 223.47,-82.44"/>
<polygon fill="#63b8ff" stroke="#63b8ff" points="224.68,-85.74 232.37,-78.45 221.82,-79.35 224.68,-85.74"/>
</a>
</g>
</g>
<!-- Node6 -->
<g id="Node000006" class="node">
<title>Node6</title>
<g id="a_Node000006"><a xlink:title=" ">
<polygon fill="#e0e0e0" stroke="#999999" points="244.88,-20.75 195.88,-20.75 195.88,0 244.88,0 244.88,-20.75"/>
<text xml:space="preserve" text-anchor="middle" x="220.38" y="-7.25" font-family="Helvetica,sans-Serif" font-size="10.00">stdio.h</text>
</a>
</g>
</g>
<!-- Node5&#45;&gt;Node6 -->
<g id="edge5_Node000005_Node000006" class="edge">
<title>Node5&#45;&gt;Node6</title>
<g id="a_edge5_Node000005_Node000006"><a xlink:title=" ">
<path fill="none" stroke="#63b8ff" d="M249.12,-56.34C244.54,-49.17 238.18,-39.23 232.61,-30.51"/>
<polygon fill="#63b8ff" stroke="#63b8ff" points="235.73,-28.89 227.39,-22.35 229.83,-32.66 235.73,-28.89"/>
</a>
</g>
</g>
<!-- Node7 -->
<g id="Node000007" class="node">
<title>Node7</title>
<g id="a_Node000007"><a xlink:title=" ">
<polygon fill="#e0e0e0" stroke="#999999" points="315.38,-20.75 263.38,-20.75 263.38,0 315.38,0 315.38,-20.75"/>
<text xml:space="preserve" text-anchor="middle" x="289.38" y="-7.25" font-family="Helvetica,sans-Serif" font-size="10.00">stdlib.h</text>
</a>
</g>
</g>
<!-- Node5&#45;&gt;Node7 -->
<g id="edge6_Node000005_Node000007" class="edge">
<title>Node5&#45;&gt;Node7</title>
<g id="a_edge6_Node000005_Node000007"><a xlink:title=" ">
<path fill="none" stroke="#63b8ff" d="M261.45,-56.34C265.85,-49.25 271.95,-39.44 277.32,-30.79"/>
<polygon fill="#63b8ff" stroke="#63b8ff" points="280.25,-32.71 282.55,-22.36 274.3,-29.01 280.25,-32.71"/>
</a>
</g>
</g>
</g>
</svg>
