<?xml version="1.0" encoding="UTF-8" standalone="no"?>
<!DOCTYPE svg PUBLIC "-//W3C//DTD SVG 1.1//EN"
 "http://www.w3.org/Graphics/SVG/1.1/DTD/svg11.dtd">
<!-- Generated by graphviz version 2.43.0 (0)
 -->
<!-- Title: src/utils/astaroth_forcing.cc Pages: 1 -->
<!--zoomable 335 -->

<svg id="main" version="1.1" xmlns="http://www.w3.org/2000/svg" xmlns:xlink="http://www.w3.org/1999/xlink" xml:space="preserve" onload="init(evt)">
<style type="text/css"><![CDATA[
.node, .edge {opacity: 0.7;}
.node.selected, .edge.selected {opacity: 1;}
.edge:hover path { stroke: red; }
.edge:hover polygon { stroke: red; fill: red; }
]]></style>

<defs>
  <circle id="rim" cx="0" cy="0" r="7"/>
  <circle id="rim2" cx="0" cy="0" r="3.5"/>
  <g id="zoomPlus">
    <use xlink:href="#rim" fill="#404040"><set attributeName="fill" to="#808080" begin="zoomplus.mouseover" end="zoomplus.mouseout"/></use>
    <path d="M-4,0h8M0,-4v8" fill="none" stroke="white" stroke-width="1.5" pointer-events="none"/>
  </g>
  <g id="zoomMin">
    <use xlink:href="#rim" fill="#404040"><set attributeName="fill" to="#808080" begin="zoomminus.mouseover" end="zoomminus.mouseout"/></use>
    <path d="M-4,0h8" fill="none" stroke="white" stroke-width="1.5" pointer-events="none"/>
  </g>
  <g id="arrowUp" transform="translate(30 24)">
    <use xlink:href="#rim"/>
    <path pointer-events="none" fill="none" stroke="white" stroke-width="1.5" d="M0,-3.0v7 M-2.5,-0.5L0,-3.0L2.5,-0.5"/>
  </g>
  <g id="arrowRight" transform="rotate(90) translate(36 -43)">
    <use xlink:href="#rim"/>
    <path pointer-events="none" fill="none" stroke="white" stroke-width="1.5" d="M0,-3.0v7 M-2.5,-0.5L0,-3.0L2.5,-0.5"/>
  </g>
  <g id="arrowDown" transform="rotate(180) translate(-30 -48)">
    <use xlink:href="#rim"/>
    <path pointer-events="none" fill="none" stroke="white" stroke-width="1.5" d="M0,-3.0v7 M-2.5,-0.5L0,-3.0L2.5,-0.5"/>
  </g>
  <g id="arrowLeft" transform="rotate(270) translate(-36 17)">
    <use xlink:href="#rim"/>
    <path pointer-events="none" fill="none" stroke="white" stroke-width="1.5" d="M0,-3.0v7 M-2.5,-0.5L0,-3.0L2.5,-0.5"/>
  </g>
  <g id="resetDef">
    <use xlink:href="#rim2" fill="#404040"><set attributeName="fill" to="#808080" begin="reset.mouseover" end="reset.mouseout"/></use>
  </g>
</defs>
<script type="application/ecmascript">
var viewWidth = 2855;
var viewHeight = 335;
var sectionId = 'dynsection-0';
</script>
<script type="application/ecmascript" xlink:href="svg.min.js"/>
<svg id="graph" class="graph">
<g id="viewport">
<title>src/utils/astaroth_forcing.cc</title>
<!-- Node1 -->
<g id="Node000001" class="node">
<title>Node1</title>
<g id="a_Node000001"><a xlink:title="Brief info.">
<polygon fill="#999999" stroke="#666666" points="2625.5,-327 2527.5,-327 2527.5,-297 2625.5,-297 2625.5,-327"/>
<text text-anchor="start" x="2535.5" y="-315" font-family="Helvetica,sans-Serif" font-size="10.00">src/utils/astaroth</text>
<text text-anchor="middle" x="2576.5" y="-304" font-family="Helvetica,sans-Serif" font-size="10.00">_forcing.cc</text>
</a>
</g>
</g>
<!-- Node2 -->
<g id="Node000002" class="node">
<title>Node2</title>
<g id="a_Node000002"><a xlink:href="astaroth__base_8h.html" target="_top" xlink:title=" ">
<polygon fill="white" stroke="#666666" points="2624,-261 2529,-261 2529,-242 2624,-242 2624,-261"/>
<text text-anchor="middle" x="2576.5" y="-249" font-family="Helvetica,sans-Serif" font-size="10.00">astaroth_base.h</text>
</a>
</g>
</g>
<!-- Node1&#45;&gt;Node2 -->
<g id="edge1_Node000001_Node000002" class="edge">
<title>Node1&#45;&gt;Node2</title>
<g id="a_edge1_Node000001_Node000002"><a xlink:title=" ">
<path fill="none" stroke="#63b8ff" d="M2576.5,-296.84C2576.5,-289.21 2576.5,-279.7 2576.5,-271.45"/>
<polygon fill="#63b8ff" stroke="#63b8ff" points="2580,-271.27 2576.5,-261.27 2573,-271.27 2580,-271.27"/>
</a>
</g>
</g>
<!-- Node18 -->
<g id="Node000018" class="node">
<title>Node18</title>
<g id="a_Node000018"><a xlink:href="errchk_8h.html" target="_top" xlink:title="Brief info.">
<polygon fill="white" stroke="#666666" points="2528.5,-134.5 2472.5,-134.5 2472.5,-115.5 2528.5,-115.5 2528.5,-134.5"/>
<text text-anchor="middle" x="2500.5" y="-122.5" font-family="Helvetica,sans-Serif" font-size="10.00">errchk.h</text>
</a>
</g>
</g>
<!-- Node1&#45;&gt;Node18 -->
<g id="edge59_Node000001_Node000018" class="edge">
<title>Node1&#45;&gt;Node18</title>
<g id="a_edge59_Node000001_Node000018"><a xlink:title=" ">
<path fill="none" stroke="#63b8ff" d="M2554.16,-296.81C2542.2,-287.99 2528.36,-275.57 2520.5,-261 2500.23,-223.41 2498.59,-171.83 2499.39,-144.59"/>
<polygon fill="#63b8ff" stroke="#63b8ff" points="2502.89,-144.67 2499.84,-134.52 2495.9,-144.36 2502.89,-144.67"/>
</a>
</g>
</g>
<!-- Node42 -->
<g id="Node000042" class="node">
<title>Node42</title>
<g id="a_Node000042"><a xlink:href="astaroth__forcing_8h.html" target="_top" xlink:title=" ">
<polygon fill="white" stroke="#666666" points="2084,-261 1979,-261 1979,-242 2084,-242 2084,-261"/>
<text text-anchor="middle" x="2031.5" y="-249" font-family="Helvetica,sans-Serif" font-size="10.00">astaroth_forcing.h</text>
</a>
</g>
</g>
<!-- Node1&#45;&gt;Node42 -->
<g id="edge53_Node000001_Node000042" class="edge">
<title>Node1&#45;&gt;Node42</title>
<g id="a_edge53_Node000001_Node000042"><a xlink:title=" ">
<path fill="none" stroke="#63b8ff" d="M2527.17,-305.71C2427.92,-295.05 2204.24,-271.04 2094.55,-259.27"/>
<polygon fill="#63b8ff" stroke="#63b8ff" points="2094.62,-255.75 2084.3,-258.17 2093.87,-262.71 2094.62,-255.75"/>
</a>
</g>
</g>
<!-- Node43 -->
<g id="Node000043" class="node">
<title>Node43</title>
<g id="a_Node000043"><a xlink:href="astaroth__random_8h.html" target="_top" xlink:title=" ">
<polygon fill="white" stroke="#666666" points="293,-200.5 184,-200.5 184,-181.5 293,-181.5 293,-200.5"/>
<text text-anchor="middle" x="238.5" y="-188.5" font-family="Helvetica,sans-Serif" font-size="10.00">astaroth_random.h</text>
</a>
</g>
</g>
<!-- Node1&#45;&gt;Node43 -->
<g id="edge55_Node000001_Node000043" class="edge">
<title>Node1&#45;&gt;Node43</title>
<g id="a_edge55_Node000001_Node000043"><a xlink:title=" ">
<path fill="none" stroke="#63b8ff" d="M2527.4,-308.5C2227.51,-293.24 644.36,-212.66 303.29,-195.3"/>
<polygon fill="#63b8ff" stroke="#63b8ff" points="303.25,-191.79 293.09,-194.78 302.9,-198.78 303.25,-191.79"/>
</a>
</g>
</g>
<!-- Node45 -->
<g id="Node000045" class="node">
<title>Node45</title>
<g id="a_Node000045"><a xlink:title=" ">
<polygon fill="#e0e0e0" stroke="#999999" points="2689,-261 2642,-261 2642,-242 2689,-242 2689,-261"/>
<text text-anchor="middle" x="2665.5" y="-249" font-family="Helvetica,sans-Serif" font-size="10.00">cmath</text>
</a>
</g>
</g>
<!-- Node1&#45;&gt;Node45 -->
<g id="edge60_Node000001_Node000045" class="edge">
<title>Node1&#45;&gt;Node45</title>
<g id="a_edge60_Node000001_Node000045"><a xlink:title=" ">
<path fill="none" stroke="#63b8ff" d="M2598.04,-296.84C2611.97,-287.68 2630.03,-275.82 2643.95,-266.66"/>
<polygon fill="#63b8ff" stroke="#63b8ff" points="2645.99,-269.51 2652.42,-261.09 2642.15,-263.66 2645.99,-269.51"/>
</a>
</g>
</g>
<!-- Node46 -->
<g id="Node000046" class="node">
<title>Node46</title>
<g id="a_Node000046"><a xlink:title=" ">
<polygon fill="#e0e0e0" stroke="#999999" points="2745.5,-261 2707.5,-261 2707.5,-242 2745.5,-242 2745.5,-261"/>
<text text-anchor="middle" x="2726.5" y="-249" font-family="Helvetica,sans-Serif" font-size="10.00">map</text>
</a>
</g>
</g>
<!-- Node1&#45;&gt;Node46 -->
<g id="edge61_Node000001_Node000046" class="edge">
<title>Node1&#45;&gt;Node46</title>
<g id="a_edge61_Node000001_Node000046"><a xlink:title=" ">
<path fill="none" stroke="#63b8ff" d="M2612.43,-296.99C2638.63,-286.77 2673.67,-273.1 2697.96,-263.63"/>
<polygon fill="#63b8ff" stroke="#63b8ff" points="2699.3,-266.86 2707.35,-259.97 2696.76,-260.34 2699.3,-266.86"/>
</a>
</g>
</g>
<!-- Node47 -->
<g id="Node000047" class="node">
<title>Node47</title>
<g id="a_Node000047"><a xlink:title=" ">
<polygon fill="#e0e0e0" stroke="#999999" points="2811,-261 2764,-261 2764,-242 2811,-242 2811,-261"/>
<text text-anchor="middle" x="2787.5" y="-249" font-family="Helvetica,sans-Serif" font-size="10.00">vector</text>
</a>
</g>
</g>
<!-- Node1&#45;&gt;Node47 -->
<g id="edge62_Node000001_Node000047" class="edge">
<title>Node1&#45;&gt;Node47</title>
<g id="a_edge62_Node000001_Node000047"><a xlink:title=" ">
<path fill="none" stroke="#63b8ff" d="M2625.7,-297.36C2665.1,-286.44 2719.31,-271.4 2753.89,-261.82"/>
<polygon fill="#63b8ff" stroke="#63b8ff" points="2755.24,-265.07 2763.95,-259.03 2753.37,-258.33 2755.24,-265.07"/>
</a>
</g>
</g>
<!-- Node3 -->
<g id="Node000003" class="node">
<title>Node3</title>
<g id="a_Node000003"><a xlink:title=" ">
<polygon fill="#e0e0e0" stroke="#999999" points="2604.5,-74 2542.5,-74 2542.5,-55 2604.5,-55 2604.5,-74"/>
<text text-anchor="middle" x="2573.5" y="-62" font-family="Helvetica,sans-Serif" font-size="10.00">stdbool.h</text>
</a>
</g>
</g>
<!-- Node2&#45;&gt;Node3 -->
<g id="edge2_Node000002_Node000003" class="edge">
<title>Node2&#45;&gt;Node3</title>
<g id="a_edge2_Node000002_Node000003"><a xlink:title=" ">
<path fill="none" stroke="#63b8ff" d="M2624.21,-243.28C2714.85,-227.64 2897.43,-185.8 2833.5,-110 2806.04,-77.44 2681.17,-68.7 2614.98,-66.36"/>
<polygon fill="#63b8ff" stroke="#63b8ff" points="2614.99,-62.86 2604.88,-66.03 2614.77,-69.85 2614.99,-62.86"/>
</a>
</g>
</g>
<!-- Node4 -->
<g id="Node000004" class="node">
<title>Node4</title>
<g id="a_Node000004"><a xlink:href="acc__runtime_8h.html" target="_top" xlink:title=" ">
<polygon fill="white" stroke="#666666" points="1685.5,-200.5 1599.5,-200.5 1599.5,-181.5 1685.5,-181.5 1685.5,-200.5"/>
<text text-anchor="middle" x="1642.5" y="-188.5" font-family="Helvetica,sans-Serif" font-size="10.00">acc_runtime.h</text>
</a>
</g>
</g>
<!-- Node2&#45;&gt;Node4 -->
<g id="edge3_Node000002_Node000004" class="edge">
<title>Node2&#45;&gt;Node4</title>
<g id="a_edge3_Node000002_Node000004"><a xlink:title=" ">
<path fill="none" stroke="#63b8ff" d="M2528.9,-247.52C2370.51,-237.6 1861.88,-205.74 1695.63,-195.33"/>
<polygon fill="#63b8ff" stroke="#63b8ff" points="1695.84,-191.83 1685.64,-194.7 1695.4,-198.82 1695.84,-191.83"/>
</a>
</g>
</g>
<!-- Node24 -->
<g id="Node000024" class="node">
<title>Node24</title>
<g id="a_Node000024"><a xlink:title=" ">
<polygon fill="#e0e0e0" stroke="#999999" points="2724,-134.5 2585,-134.5 2585,-115.5 2724,-115.5 2724,-134.5"/>
<text text-anchor="middle" x="2654.5" y="-122.5" font-family="Helvetica,sans-Serif" font-size="10.00">user_built&#45;in_constants.h</text>
</a>
</g>
</g>
<!-- Node2&#45;&gt;Node24 -->
<g id="edge51_Node000002_Node000024" class="edge">
<title>Node2&#45;&gt;Node24</title>
<g id="a_edge51_Node000002_Node000024"><a xlink:title=" ">
<path fill="none" stroke="#63b8ff" d="M2577.2,-241.57C2578.7,-226.86 2583.25,-197.09 2596.5,-176 2605.49,-161.69 2619.86,-149.26 2632.04,-140.37"/>
<polygon fill="#63b8ff" stroke="#63b8ff" points="2634.2,-143.13 2640.42,-134.55 2630.21,-137.38 2634.2,-143.13"/>
</a>
</g>
</g>
<!-- Node38 -->
<g id="Node000038" class="node">
<title>Node38</title>
<g id="a_Node000038"><a xlink:href="func__define_8h.html" target="_top" xlink:title=" ">
<polygon fill="white" stroke="#666666" points="2824.5,-134.5 2742.5,-134.5 2742.5,-115.5 2824.5,-115.5 2824.5,-134.5"/>
<text text-anchor="middle" x="2783.5" y="-122.5" font-family="Helvetica,sans-Serif" font-size="10.00">func_define.h</text>
</a>
</g>
</g>
<!-- Node2&#45;&gt;Node38 -->
<g id="edge50_Node000002_Node000038" class="edge">
<title>Node2&#45;&gt;Node38</title>
<g id="a_edge50_Node000002_Node000038"><a xlink:title=" ">
<path fill="none" stroke="#63b8ff" d="M2624.14,-242.58C2667.38,-234.58 2727.11,-221.25 2745.5,-206 2764.51,-190.24 2774.62,-162.77 2779.52,-144.49"/>
<polygon fill="#63b8ff" stroke="#63b8ff" points="2782.94,-145.25 2781.88,-134.71 2776.13,-143.61 2782.94,-145.25"/>
</a>
</g>
</g>
<!-- Node41 -->
<g id="Node000041" class="node">
<title>Node41</title>
<g id="a_Node000041"><a xlink:title=" ">
<polygon fill="#e0e0e0" stroke="#999999" points="2736,-206 2605,-206 2605,-176 2736,-176 2736,-206"/>
<text text-anchor="start" x="2613" y="-194" font-family="Helvetica,sans-Serif" font-size="10.00">user_builtin_non_scalar</text>
<text text-anchor="middle" x="2670.5" y="-183" font-family="Helvetica,sans-Serif" font-size="10.00">_constants.h</text>
</a>
</g>
</g>
<!-- Node2&#45;&gt;Node41 -->
<g id="edge52_Node000002_Node000041" class="edge">
<title>Node2&#45;&gt;Node41</title>
<g id="a_edge52_Node000002_Node000041"><a xlink:title=" ">
<path fill="none" stroke="#63b8ff" d="M2590.37,-241.87C2603.12,-233.93 2622.5,-221.87 2639.01,-211.6"/>
<polygon fill="#63b8ff" stroke="#63b8ff" points="2641.18,-214.37 2647.82,-206.11 2637.48,-208.43 2641.18,-214.37"/>
</a>
</g>
</g>
<!-- Node4&#45;&gt;Node3 -->
<g id="edge5_Node000004_Node000003" class="edge">
<title>Node4&#45;&gt;Node3</title>
<g id="a_edge5_Node000004_Node000003"><a xlink:title=" ">
<path fill="none" stroke="#63b8ff" d="M1685.53,-190.13C1854.41,-190.29 2466.17,-187.58 2537.5,-140 2556.41,-127.39 2565.7,-101.9 2570.03,-84.27"/>
<polygon fill="#63b8ff" stroke="#63b8ff" points="2573.5,-84.78 2572.18,-74.27 2566.66,-83.32 2573.5,-84.78"/>
</a>
</g>
</g>
<!-- Node5 -->
<g id="Node000005" class="node">
<title>Node5</title>
<g id="a_Node000005"><a xlink:title=" ">
<polygon fill="#e0e0e0" stroke="#999999" points="1837.5,-74 1787.5,-74 1787.5,-55 1837.5,-55 1837.5,-74"/>
<text text-anchor="middle" x="1812.5" y="-62" font-family="Helvetica,sans-Serif" font-size="10.00">stdio.h</text>
</a>
</g>
</g>
<!-- Node4&#45;&gt;Node5 -->
<g id="edge4_Node000004_Node000005" class="edge">
<title>Node4&#45;&gt;Node5</title>
<g id="a_edge4_Node000004_Node000005"><a xlink:title=" ">
<path fill="none" stroke="#63b8ff" d="M1641.93,-181.23C1641.38,-164.95 1642.64,-129.89 1661.5,-110 1691.57,-78.27 1743.02,-68.82 1777.38,-66.19"/>
<polygon fill="#63b8ff" stroke="#63b8ff" points="1777.69,-69.68 1787.46,-65.58 1777.26,-62.7 1777.69,-69.68"/>
</a>
</g>
</g>
<!-- Node6 -->
<g id="Node000006" class="node">
<title>Node6</title>
<g id="a_Node000006"><a xlink:href="device__headers_8h.html" target="_top" xlink:title=" ">
<polygon fill="white" stroke="#666666" points="998.5,-74 896.5,-74 896.5,-55 998.5,-55 998.5,-74"/>
<text text-anchor="middle" x="947.5" y="-62" font-family="Helvetica,sans-Serif" font-size="10.00">device_headers.h</text>
</a>
</g>
</g>
<!-- Node4&#45;&gt;Node6 -->
<g id="edge6_Node000004_Node000006" class="edge">
<title>Node4&#45;&gt;Node6</title>
<g id="a_edge6_Node000004_Node000006"><a xlink:title=" ">
<path fill="none" stroke="#63b8ff" d="M1639.27,-181.31C1632.4,-164.16 1614.51,-126.25 1585.5,-110 1573,-103 1165.67,-78.34 1008.51,-69.07"/>
<polygon fill="#63b8ff" stroke="#63b8ff" points="1008.71,-65.57 998.53,-68.48 1008.3,-72.56 1008.71,-65.57"/>
</a>
</g>
</g>
<!-- Node9 -->
<g id="Node000009" class="node">
<title>Node9</title>
<g id="a_Node000009"><a xlink:title=" ">
<polygon fill="#e0e0e0" stroke="#999999" points="526,-74 431,-74 431,-55 526,-55 526,-74"/>
<text text-anchor="middle" x="478.5" y="-62" font-family="Helvetica,sans-Serif" font-size="10.00">builtin_enums.h</text>
</a>
</g>
</g>
<!-- Node4&#45;&gt;Node9 -->
<g id="edge9_Node000004_Node000009" class="edge">
<title>Node4&#45;&gt;Node9</title>
<g id="a_edge9_Node000004_Node000009"><a xlink:title=" ">
<path fill="none" stroke="#63b8ff" d="M1599.28,-190.02C1377.14,-189.91 372.58,-186.83 327.5,-140 294.39,-105.6 365,-84.77 420.45,-74.2"/>
<polygon fill="#63b8ff" stroke="#63b8ff" points="421.39,-77.58 430.6,-72.34 420.14,-70.7 421.39,-77.58"/>
</a>
</g>
</g>
<!-- Node10 -->
<g id="Node000010" class="node">
<title>Node10</title>
<g id="a_Node000010"><a xlink:href="datatypes_8h.html" target="_top" xlink:title=" ">
<polygon fill="white" stroke="#666666" points="242.5,-134.5 168.5,-134.5 168.5,-115.5 242.5,-115.5 242.5,-134.5"/>
<text text-anchor="middle" x="205.5" y="-122.5" font-family="Helvetica,sans-Serif" font-size="10.00">datatypes.h</text>
</a>
</g>
</g>
<!-- Node4&#45;&gt;Node10 -->
<g id="edge10_Node000004_Node000010" class="edge">
<title>Node4&#45;&gt;Node10</title>
<g id="a_edge10_Node000004_Node000010"><a xlink:title=" ">
<path fill="none" stroke="#63b8ff" d="M1599.31,-190.26C1431.41,-190.89 806.15,-189.55 294.5,-140 280.85,-138.68 266.12,-136.62 252.64,-134.49"/>
<polygon fill="#63b8ff" stroke="#63b8ff" points="253.05,-131.01 242.61,-132.85 251.92,-137.91 253.05,-131.01"/>
</a>
</g>
</g>
<!-- Node4&#45;&gt;Node18 -->
<g id="edge22_Node000004_Node000018" class="edge">
<title>Node4&#45;&gt;Node18</title>
<g id="a_edge22_Node000004_Node000018"><a xlink:title=" ">
<path fill="none" stroke="#63b8ff" d="M1685.58,-189.08C1832.45,-185.69 2312.79,-172.32 2463.5,-140 2466.18,-139.43 2468.92,-138.69 2471.64,-137.86"/>
<polygon fill="#63b8ff" stroke="#63b8ff" points="2472.94,-141.11 2481.25,-134.54 2470.65,-134.5 2472.94,-141.11"/>
</a>
</g>
</g>
<!-- Node22 -->
<g id="Node000022" class="node">
<title>Node22</title>
<g id="a_Node000022"><a xlink:title=" ">
<polygon fill="#e0e0e0" stroke="#999999" points="1758,-134.5 1671,-134.5 1671,-115.5 1758,-115.5 1758,-134.5"/>
<text text-anchor="middle" x="1714.5" y="-122.5" font-family="Helvetica,sans-Serif" font-size="10.00">user_defines.h</text>
</a>
</g>
</g>
<!-- Node4&#45;&gt;Node22 -->
<g id="edge31_Node000004_Node000022" class="edge">
<title>Node4&#45;&gt;Node22</title>
<g id="a_edge31_Node000004_Node000022"><a xlink:title=" ">
<path fill="none" stroke="#63b8ff" d="M1652.21,-181.37C1663.63,-171.21 1682.82,-154.16 1696.89,-141.65"/>
<polygon fill="#63b8ff" stroke="#63b8ff" points="1699.33,-144.16 1704.48,-134.91 1694.68,-138.93 1699.33,-144.16"/>
</a>
</g>
</g>
<!-- Node23 -->
<g id="Node000023" class="node">
<title>Node23</title>
<g id="a_Node000023"><a xlink:title=" ">
<polygon fill="#e0e0e0" stroke="#999999" points="1862.5,-134.5 1776.5,-134.5 1776.5,-115.5 1862.5,-115.5 1862.5,-134.5"/>
<text text-anchor="middle" x="1819.5" y="-122.5" font-family="Helvetica,sans-Serif" font-size="10.00">profiles_info.h</text>
</a>
</g>
</g>
<!-- Node4&#45;&gt;Node23 -->
<g id="edge32_Node000004_Node000023" class="edge">
<title>Node4&#45;&gt;Node23</title>
<g id="a_edge32_Node000004_Node000023"><a xlink:title=" ">
<path fill="none" stroke="#63b8ff" d="M1666.37,-181.37C1697.2,-170.22 1751.05,-150.75 1785.98,-138.12"/>
<polygon fill="#63b8ff" stroke="#63b8ff" points="1787.51,-141.29 1795.73,-134.6 1785.13,-134.71 1787.51,-141.29"/>
</a>
</g>
</g>
<!-- Node4&#45;&gt;Node24 -->
<g id="edge33_Node000004_Node000024" class="edge">
<title>Node4&#45;&gt;Node24</title>
<g id="a_edge33_Node000004_Node000024"><a xlink:title=" ">
<path fill="none" stroke="#63b8ff" d="M1685.65,-189.38C1818.18,-187.11 2230.9,-177.33 2570.5,-140 2579.67,-138.99 2589.37,-137.64 2598.78,-136.18"/>
<polygon fill="#63b8ff" stroke="#63b8ff" points="2599.54,-139.6 2608.85,-134.56 2598.42,-132.69 2599.54,-139.6"/>
</a>
</g>
</g>
<!-- Node25 -->
<g id="Node000025" class="node">
<title>Node25</title>
<g id="a_Node000025"><a xlink:href="func__attributes_8h.html" target="_top" xlink:title=" ">
<polygon fill="white" stroke="#666666" points="1980,-134.5 1881,-134.5 1881,-115.5 1980,-115.5 1980,-134.5"/>
<text text-anchor="middle" x="1930.5" y="-122.5" font-family="Helvetica,sans-Serif" font-size="10.00">func_attributes.h</text>
</a>
</g>
</g>
<!-- Node4&#45;&gt;Node25 -->
<g id="edge34_Node000004_Node000025" class="edge">
<title>Node4&#45;&gt;Node25</title>
<g id="a_edge34_Node000004_Node000025"><a xlink:title=" ">
<path fill="none" stroke="#63b8ff" d="M1682.67,-181.46C1728.44,-171.67 1805.44,-155.05 1871.5,-140 1875.89,-139 1880.46,-137.94 1885.03,-136.88"/>
<polygon fill="#63b8ff" stroke="#63b8ff" points="1886.02,-140.24 1894.96,-134.54 1884.42,-133.42 1886.02,-140.24"/>
</a>
</g>
</g>
<!-- Node26 -->
<g id="Node000026" class="node">
<title>Node26</title>
<g id="a_Node000026"><a xlink:title=" ">
<polygon fill="#e0e0e0" stroke="#999999" points="2123,-134.5 1998,-134.5 1998,-115.5 2123,-115.5 2123,-134.5"/>
<text text-anchor="middle" x="2060.5" y="-122.5" font-family="Helvetica,sans-Serif" font-size="10.00">user_input_typedefs.h</text>
</a>
</g>
</g>
<!-- Node4&#45;&gt;Node26 -->
<g id="edge35_Node000004_Node000026" class="edge">
<title>Node4&#45;&gt;Node26</title>
<g id="a_edge35_Node000004_Node000026"><a xlink:title=" ">
<path fill="none" stroke="#63b8ff" d="M1685.62,-184.51C1751.34,-175.99 1880.45,-158.6 1989.5,-140 1995.84,-138.92 2002.48,-137.71 2009.05,-136.47"/>
<polygon fill="#63b8ff" stroke="#63b8ff" points="2010.11,-139.83 2019.27,-134.5 2008.79,-132.96 2010.11,-139.83"/>
</a>
</g>
</g>
<!-- Node27 -->
<g id="Node000027" class="node">
<title>Node27</title>
<g id="a_Node000027"><a xlink:title=" ">
<polygon fill="#e0e0e0" stroke="#999999" points="2224,-134.5 2141,-134.5 2141,-115.5 2224,-115.5 2224,-134.5"/>
<text text-anchor="middle" x="2182.5" y="-122.5" font-family="Helvetica,sans-Serif" font-size="10.00">output_decl.h</text>
</a>
</g>
</g>
<!-- Node4&#45;&gt;Node27 -->
<g id="edge36_Node000004_Node000027" class="edge">
<title>Node4&#45;&gt;Node27</title>
<g id="a_edge36_Node000004_Node000027"><a xlink:title=" ">
<path fill="none" stroke="#63b8ff" d="M1685.79,-188.08C1771.65,-183.71 1969.3,-170.94 2132.5,-140 2136.68,-139.21 2141.03,-138.23 2145.33,-137.16"/>
<polygon fill="#63b8ff" stroke="#63b8ff" points="2146.42,-140.5 2155.19,-134.56 2144.63,-133.73 2146.42,-140.5"/>
</a>
</g>
</g>
<!-- Node28 -->
<g id="Node000028" class="node">
<title>Node28</title>
<g id="a_Node000028"><a xlink:title=" ">
<polygon fill="#e0e0e0" stroke="#999999" points="2358.5,-134.5 2242.5,-134.5 2242.5,-115.5 2358.5,-115.5 2358.5,-134.5"/>
<text text-anchor="middle" x="2300.5" y="-122.5" font-family="Helvetica,sans-Serif" font-size="10.00">comp_loaded_decl.h</text>
</a>
</g>
</g>
<!-- Node4&#45;&gt;Node28 -->
<g id="edge37_Node000004_Node000028" class="edge">
<title>Node4&#45;&gt;Node28</title>
<g id="a_edge37_Node000004_Node000028"><a xlink:title=" ">
<path fill="none" stroke="#63b8ff" d="M1685.72,-188.15C1783.63,-183.55 2029.73,-169.8 2233.5,-140 2240.14,-139.03 2247.1,-137.81 2253.93,-136.49"/>
<polygon fill="#63b8ff" stroke="#63b8ff" points="2254.67,-139.91 2263.78,-134.51 2253.29,-133.05 2254.67,-139.91"/>
</a>
</g>
</g>
<!-- Node29 -->
<g id="Node000029" class="node">
<title>Node29</title>
<g id="a_Node000029"><a xlink:title=" ">
<polygon fill="#e0e0e0" stroke="#999999" points="2454.5,-134.5 2376.5,-134.5 2376.5,-115.5 2454.5,-115.5 2454.5,-134.5"/>
<text text-anchor="middle" x="2415.5" y="-122.5" font-family="Helvetica,sans-Serif" font-size="10.00">comp_decl.h</text>
</a>
</g>
</g>
<!-- Node4&#45;&gt;Node29 -->
<g id="edge38_Node000004_Node000029" class="edge">
<title>Node4&#45;&gt;Node29</title>
<g id="a_edge38_Node000004_Node000029"><a xlink:title=" ">
<path fill="none" stroke="#63b8ff" d="M1685.8,-190.24C1798.86,-190.17 2111.94,-185.54 2367.5,-140 2371.68,-139.25 2376.02,-138.28 2380.3,-137.2"/>
<polygon fill="#63b8ff" stroke="#63b8ff" points="2381.36,-140.54 2390.08,-134.52 2379.51,-133.78 2381.36,-140.54"/>
</a>
</g>
</g>
<!-- Node30 -->
<g id="Node000030" class="node">
<title>Node30</title>
<g id="a_Node000030"><a xlink:title=" ">
<polygon fill="#e0e0e0" stroke="#999999" points="444.5,-134.5 336.5,-134.5 336.5,-115.5 444.5,-115.5 444.5,-134.5"/>
<text text-anchor="middle" x="390.5" y="-122.5" font-family="Helvetica,sans-Serif" font-size="10.00">info_loaded_decl.h</text>
</a>
</g>
</g>
<!-- Node4&#45;&gt;Node30 -->
<g id="edge39_Node000004_Node000030" class="edge">
<title>Node4&#45;&gt;Node30</title>
<g id="a_edge39_Node000004_Node000030"><a xlink:title=" ">
<path fill="none" stroke="#63b8ff" d="M1599.4,-189.21C1413.78,-185.64 681.78,-169.93 453.5,-140 447.08,-139.16 440.36,-137.98 433.79,-136.67"/>
<polygon fill="#63b8ff" stroke="#63b8ff" points="434.16,-133.17 423.65,-134.52 432.71,-140.02 434.16,-133.17"/>
</a>
</g>
</g>
<!-- Node31 -->
<g id="Node000031" class="node">
<title>Node31</title>
<g id="a_Node000031"><a xlink:title=" ">
<polygon fill="#e0e0e0" stroke="#999999" points="602.5,-134.5 462.5,-134.5 462.5,-115.5 602.5,-115.5 602.5,-134.5"/>
<text text-anchor="middle" x="532.5" y="-122.5" font-family="Helvetica,sans-Serif" font-size="10.00">device_mesh_info_decl.h</text>
</a>
</g>
</g>
<!-- Node4&#45;&gt;Node31 -->
<g id="edge40_Node000004_Node000031" class="edge">
<title>Node4&#45;&gt;Node31</title>
<g id="a_edge40_Node000004_Node000031"><a xlink:title=" ">
<path fill="none" stroke="#63b8ff" d="M1599.13,-189.86C1457,-188.99 992.6,-182.83 611.5,-140 602.94,-139.04 593.91,-137.72 585.14,-136.29"/>
<polygon fill="#63b8ff" stroke="#63b8ff" points="585.44,-132.79 575,-134.55 584.26,-139.69 585.44,-132.79"/>
</a>
</g>
</g>
<!-- Node32 -->
<g id="Node000032" class="node">
<title>Node32</title>
<g id="a_Node000032"><a xlink:title=" ">
<polygon fill="#e0e0e0" stroke="#999999" points="698,-134.5 621,-134.5 621,-115.5 698,-115.5 698,-134.5"/>
<text text-anchor="middle" x="659.5" y="-122.5" font-family="Helvetica,sans-Serif" font-size="10.00">array_decl.h</text>
</a>
</g>
</g>
<!-- Node4&#45;&gt;Node32 -->
<g id="edge41_Node000004_Node000032" class="edge">
<title>Node4&#45;&gt;Node32</title>
<g id="a_edge41_Node000004_Node000032"><a xlink:title=" ">
<path fill="none" stroke="#63b8ff" d="M1599.46,-189.01C1439.93,-185.16 882.58,-169.8 707.5,-140 703.26,-139.28 698.87,-138.31 694.54,-137.22"/>
<polygon fill="#63b8ff" stroke="#63b8ff" points="695.22,-133.78 684.65,-134.52 693.38,-140.53 695.22,-133.78"/>
</a>
</g>
</g>
<!-- Node33 -->
<g id="Node000033" class="node">
<title>Node33</title>
<g id="a_Node000033"><a xlink:title=" ">
<polygon fill="#e0e0e0" stroke="#999999" points="792.5,-134.5 716.5,-134.5 716.5,-115.5 792.5,-115.5 792.5,-134.5"/>
<text text-anchor="middle" x="754.5" y="-122.5" font-family="Helvetica,sans-Serif" font-size="10.00">input_decl.h</text>
</a>
</g>
</g>
<!-- Node4&#45;&gt;Node33 -->
<g id="edge42_Node000004_Node000033" class="edge">
<title>Node4&#45;&gt;Node33</title>
<g id="a_edge42_Node000004_Node000033"><a xlink:title=" ">
<path fill="none" stroke="#63b8ff" d="M1599.49,-188.75C1450.54,-184.22 957.34,-167.46 801.5,-140 797.56,-139.31 793.48,-138.39 789.44,-137.37"/>
<polygon fill="#63b8ff" stroke="#63b8ff" points="790.18,-133.94 779.61,-134.64 788.31,-140.69 790.18,-133.94"/>
</a>
</g>
</g>
<!-- Node34 -->
<g id="Node000034" class="node">
<title>Node34</title>
<g id="a_Node000034"><a xlink:href="ac__helpers_8h.html" target="_top" xlink:title=" ">
<polygon fill="white" stroke="#666666" points="888.5,-134.5 810.5,-134.5 810.5,-115.5 888.5,-115.5 888.5,-134.5"/>
<text text-anchor="middle" x="849.5" y="-122.5" font-family="Helvetica,sans-Serif" font-size="10.00">ac_helpers.h</text>
</a>
</g>
</g>
<!-- Node4&#45;&gt;Node34 -->
<g id="edge43_Node000004_Node000034" class="edge">
<title>Node4&#45;&gt;Node34</title>
<g id="a_edge43_Node000004_Node000034"><a xlink:title=" ">
<path fill="none" stroke="#63b8ff" d="M1599.27,-190.35C1484.18,-190.6 1161.08,-186.71 897.5,-140 893.32,-139.26 888.98,-138.29 884.7,-137.21"/>
<polygon fill="#63b8ff" stroke="#63b8ff" points="885.48,-133.79 874.91,-134.53 883.63,-140.54 885.48,-133.79"/>
</a>
</g>
</g>
<!-- Node35 -->
<g id="Node000035" class="node">
<title>Node35</title>
<g id="a_Node000035"><a xlink:title=" ">
<polygon fill="#e0e0e0" stroke="#999999" points="1024.5,-140 906.5,-140 906.5,-110 1024.5,-110 1024.5,-140"/>
<text text-anchor="start" x="914.5" y="-128" font-family="Helvetica,sans-Serif" font-size="10.00">scalar_reduce_buffer</text>
<text text-anchor="middle" x="965.5" y="-117" font-family="Helvetica,sans-Serif" font-size="10.00">_defs.h</text>
</a>
</g>
</g>
<!-- Node4&#45;&gt;Node35 -->
<g id="edge44_Node000004_Node000035" class="edge">
<title>Node4&#45;&gt;Node35</title>
<g id="a_edge44_Node000004_Node000035"><a xlink:title=" ">
<path fill="none" stroke="#63b8ff" d="M1599.48,-188.26C1501.14,-183.9 1252.26,-170.69 1034.77,-140.07"/>
<polygon fill="#63b8ff" stroke="#63b8ff" points="1035.16,-136.59 1024.76,-138.64 1034.17,-143.52 1035.16,-136.59"/>
</a>
</g>
</g>
<!-- Node36 -->
<g id="Node000036" class="node">
<title>Node36</title>
<g id="a_Node000036"><a xlink:title=" ">
<polygon fill="#e0e0e0" stroke="#999999" points="1166,-140 1043,-140 1043,-110 1166,-110 1166,-140"/>
<text text-anchor="start" x="1051" y="-128" font-family="Helvetica,sans-Serif" font-size="10.00">scalar_reduce_buffers</text>
<text text-anchor="middle" x="1104.5" y="-117" font-family="Helvetica,sans-Serif" font-size="10.00">_in_vba.h</text>
</a>
</g>
</g>
<!-- Node4&#45;&gt;Node36 -->
<g id="edge45_Node000004_Node000036" class="edge">
<title>Node4&#45;&gt;Node36</title>
<g id="a_edge45_Node000004_Node000036"><a xlink:title=" ">
<path fill="none" stroke="#63b8ff" d="M1599.2,-186.65C1518.24,-180.1 1338.27,-164.23 1176.17,-140.01"/>
<polygon fill="#63b8ff" stroke="#63b8ff" points="1176.43,-136.51 1166.02,-138.47 1175.38,-143.43 1176.43,-136.51"/>
</a>
</g>
</g>
<!-- Node37 -->
<g id="Node000037" class="node">
<title>Node37</title>
<g id="a_Node000037"><a xlink:href="astaroth__analysis_8h.html" target="_top" xlink:title=" ">
<polygon fill="white" stroke="#666666" points="1296.5,-134.5 1184.5,-134.5 1184.5,-115.5 1296.5,-115.5 1296.5,-134.5"/>
<text text-anchor="middle" x="1240.5" y="-122.5" font-family="Helvetica,sans-Serif" font-size="10.00">astaroth_analysis.h</text>
</a>
</g>
</g>
<!-- Node4&#45;&gt;Node37 -->
<g id="edge46_Node000004_Node000037" class="edge">
<title>Node4&#45;&gt;Node37</title>
<g id="a_edge46_Node000004_Node000037"><a xlink:title=" ">
<path fill="none" stroke="#63b8ff" d="M1599.26,-184.5C1534.99,-176.11 1410.54,-159.08 1305.5,-140 1299.96,-138.99 1294.18,-137.86 1288.44,-136.69"/>
<polygon fill="#63b8ff" stroke="#63b8ff" points="1288.73,-133.18 1278.23,-134.56 1287.3,-140.03 1288.73,-133.18"/>
</a>
</g>
</g>
<!-- Node4&#45;&gt;Node38 -->
<g id="edge47_Node000004_Node000038" class="edge">
<title>Node4&#45;&gt;Node38</title>
<g id="a_edge47_Node000004_Node000038"><a xlink:title=" ">
<path fill="none" stroke="#63b8ff" d="M1685.6,-189.33C1861.61,-186.4 2526.29,-173.31 2733.5,-140 2738.03,-139.27 2742.73,-138.28 2747.36,-137.16"/>
<polygon fill="#63b8ff" stroke="#63b8ff" points="2748.5,-140.48 2757.28,-134.55 2746.72,-133.71 2748.5,-140.48"/>
</a>
</g>
</g>
<!-- Node39 -->
<g id="Node000039" class="node">
<title>Node39</title>
<g id="a_Node000039"><a xlink:href="common__kernels_8h.html" target="_top" xlink:title=" ">
<polygon fill="white" stroke="#666666" points="1424,-134.5 1315,-134.5 1315,-115.5 1424,-115.5 1424,-134.5"/>
<text text-anchor="middle" x="1369.5" y="-122.5" font-family="Helvetica,sans-Serif" font-size="10.00">common_kernels.h</text>
</a>
</g>
</g>
<!-- Node4&#45;&gt;Node39 -->
<g id="edge48_Node000004_Node000039" class="edge">
<title>Node4&#45;&gt;Node39</title>
<g id="a_edge48_Node000004_Node000039"><a xlink:title=" ">
<path fill="none" stroke="#63b8ff" d="M1605.97,-181.44C1556.83,-169.92 1469.43,-149.43 1415.76,-136.84"/>
<polygon fill="#63b8ff" stroke="#63b8ff" points="1416.35,-133.39 1405.82,-134.51 1414.76,-140.2 1416.35,-133.39"/>
</a>
</g>
</g>
<!-- Node40 -->
<g id="Node000040" class="node">
<title>Node40</title>
<g id="a_Node000040"><a xlink:title=" ">
<polygon fill="#e0e0e0" stroke="#999999" points="1576.5,-140 1442.5,-140 1442.5,-110 1576.5,-110 1576.5,-140"/>
<text text-anchor="start" x="1450.5" y="-128" font-family="Helvetica,sans-Serif" font-size="10.00">load_and_store_uniform</text>
<text text-anchor="middle" x="1509.5" y="-117" font-family="Helvetica,sans-Serif" font-size="10.00">_header.h</text>
</a>
</g>
</g>
<!-- Node4&#45;&gt;Node40 -->
<g id="edge49_Node000004_Node000040" class="edge">
<title>Node4&#45;&gt;Node40</title>
<g id="a_edge49_Node000004_Node000040"><a xlink:title=" ">
<path fill="none" stroke="#63b8ff" d="M1624.56,-181.37C1605.07,-171.99 1573.34,-156.72 1548.14,-144.59"/>
<polygon fill="#63b8ff" stroke="#63b8ff" points="1549.36,-141.3 1538.83,-140.12 1546.33,-147.61 1549.36,-141.3"/>
</a>
</g>
</g>
<!-- Node7 -->
<g id="Node000007" class="node">
<title>Node7</title>
<g id="a_Node000007"><a xlink:title=" ">
<polygon fill="#e0e0e0" stroke="#999999" points="567,-19 454,-19 454,0 567,0 567,-19"/>
<text text-anchor="middle" x="510.5" y="-7" font-family="Helvetica,sans-Serif" font-size="10.00">cuda_runtime_api.h</text>
</a>
</g>
</g>
<!-- Node6&#45;&gt;Node7 -->
<g id="edge7_Node000006_Node000007" class="edge">
<title>Node6&#45;&gt;Node7</title>
<g id="a_edge7_Node000006_Node000007"><a xlink:title=" ">
<path fill="none" stroke="#63b8ff" d="M896.09,-57.26C816.87,-47.66 664.98,-29.24 577.34,-18.61"/>
<polygon fill="#63b8ff" stroke="#63b8ff" points="577.59,-15.11 567.24,-17.38 576.74,-22.06 577.59,-15.11"/>
</a>
</g>
</g>
<!-- Node8 -->
<g id="Node000008" class="node">
<title>Node8</title>
<g id="a_Node000008"><a xlink:title=" ">
<polygon fill="#e0e0e0" stroke="#999999" points="985.5,-19 909.5,-19 909.5,0 985.5,0 985.5,-19"/>
<text text-anchor="middle" x="947.5" y="-7" font-family="Helvetica,sans-Serif" font-size="10.00">cuda_fp16.h</text>
</a>
</g>
</g>
<!-- Node6&#45;&gt;Node8 -->
<g id="edge8_Node000006_Node000008" class="edge">
<title>Node6&#45;&gt;Node8</title>
<g id="a_edge8_Node000006_Node000008"><a xlink:title=" ">
<path fill="none" stroke="#63b8ff" d="M947.5,-54.75C947.5,-47.8 947.5,-37.85 947.5,-29.13"/>
<polygon fill="#63b8ff" stroke="#63b8ff" points="951,-29.09 947.5,-19.09 944,-29.09 951,-29.09"/>
</a>
</g>
</g>
<!-- Node10&#45;&gt;Node6 -->
<g id="edge13_Node000010_Node000006" class="edge">
<title>Node10&#45;&gt;Node6</title>
<g id="a_edge13_Node000010_Node000006"><a xlink:title=" ">
<path fill="none" stroke="#63b8ff" d="M232.53,-115.48C240.21,-113.36 248.62,-111.32 256.5,-110 486.61,-71.42 765,-65.76 886.19,-65.28"/>
<polygon fill="#63b8ff" stroke="#63b8ff" points="886.39,-68.78 896.38,-65.25 886.37,-61.78 886.39,-68.78"/>
</a>
</g>
</g>
<!-- Node10&#45;&gt;Node7 -->
<g id="edge15_Node000010_Node000007" class="edge">
<title>Node10&#45;&gt;Node7</title>
<g id="a_edge15_Node000010_Node000007"><a xlink:title=" ">
<path fill="none" stroke="#63b8ff" d="M203.12,-115.48C199.64,-101.01 195.14,-71.55 210.5,-55 241.13,-21.98 364.79,-13.22 443.46,-11.04"/>
<polygon fill="#63b8ff" stroke="#63b8ff" points="443.87,-14.53 453.78,-10.79 443.69,-7.54 443.87,-14.53"/>
</a>
</g>
</g>
<!-- Node10&#45;&gt;Node9 -->
<g id="edge17_Node000010_Node000009" class="edge">
<title>Node10&#45;&gt;Node9</title>
<g id="a_edge17_Node000010_Node000009"><a xlink:title=" ">
<path fill="none" stroke="#63b8ff" d="M235.34,-115.43C242.27,-113.55 249.62,-111.63 256.5,-110 312.15,-96.8 376.25,-84.23 421.22,-75.84"/>
<polygon fill="#63b8ff" stroke="#63b8ff" points="421.89,-79.27 431.09,-74.01 420.62,-72.39 421.89,-79.27"/>
</a>
</g>
</g>
<!-- Node11 -->
<g id="Node000011" class="node">
<title>Node11</title>
<g id="a_Node000011"><a xlink:title=" ">
<polygon fill="#e0e0e0" stroke="#999999" points="413,-74 366,-74 366,-55 413,-55 413,-74"/>
<text text-anchor="middle" x="389.5" y="-62" font-family="Helvetica,sans-Serif" font-size="10.00">float.h</text>
</a>
</g>
</g>
<!-- Node10&#45;&gt;Node11 -->
<g id="edge11_Node000010_Node000011" class="edge">
<title>Node10&#45;&gt;Node11</title>
<g id="a_edge11_Node000010_Node000011"><a xlink:title=" ">
<path fill="none" stroke="#63b8ff" d="M232.26,-115.49C265,-105.08 320.48,-87.44 356.02,-76.14"/>
<polygon fill="#63b8ff" stroke="#63b8ff" points="357.46,-79.36 365.93,-73 355.33,-72.69 357.46,-79.36"/>
</a>
</g>
</g>
<!-- Node12 -->
<g id="Node000012" class="node">
<title>Node12</title>
<g id="a_Node000012"><a xlink:title=" ">
<polygon fill="#e0e0e0" stroke="#999999" points="51,-74 0,-74 0,-55 51,-55 51,-74"/>
<text text-anchor="middle" x="25.5" y="-62" font-family="Helvetica,sans-Serif" font-size="10.00">math.h</text>
</a>
</g>
</g>
<!-- Node10&#45;&gt;Node12 -->
<g id="edge12_Node000010_Node000012" class="edge">
<title>Node10&#45;&gt;Node12</title>
<g id="a_edge12_Node000010_Node000012"><a xlink:title=" ">
<path fill="none" stroke="#63b8ff" d="M179.33,-115.49C148.09,-105.34 95.71,-88.32 60.89,-77"/>
<polygon fill="#63b8ff" stroke="#63b8ff" points="61.71,-73.59 51.12,-73.83 59.55,-80.25 61.71,-73.59"/>
</a>
</g>
</g>
<!-- Node13 -->
<g id="Node000013" class="node">
<title>Node13</title>
<g id="a_Node000013"><a xlink:title=" ">
<polygon fill="#e0e0e0" stroke="#999999" points="158,-74 69,-74 69,-55 158,-55 158,-74"/>
<text text-anchor="middle" x="113.5" y="-62" font-family="Helvetica,sans-Serif" font-size="10.00">vector_types.h</text>
</a>
</g>
</g>
<!-- Node10&#45;&gt;Node13 -->
<g id="edge14_Node000010_Node000013" class="edge">
<title>Node10&#45;&gt;Node13</title>
<g id="a_edge14_Node000010_Node000013"><a xlink:title=" ">
<path fill="none" stroke="#63b8ff" d="M191.93,-115.37C177.11,-105.95 153.17,-90.73 135.64,-79.58"/>
<polygon fill="#63b8ff" stroke="#63b8ff" points="137.45,-76.58 127.13,-74.17 133.69,-82.49 137.45,-76.58"/>
</a>
</g>
</g>
<!-- Node14 -->
<g id="Node000014" class="node">
<title>Node14</title>
<g id="a_Node000014"><a xlink:href="acreal_8h.html" target="_top" xlink:title=" ">
<polygon fill="white" stroke="#666666" points="1147.5,-19 1091.5,-19 1091.5,0 1147.5,0 1147.5,-19"/>
<text text-anchor="middle" x="1119.5" y="-7" font-family="Helvetica,sans-Serif" font-size="10.00">acreal.h</text>
</a>
</g>
</g>
<!-- Node10&#45;&gt;Node14 -->
<g id="edge16_Node000010_Node000014" class="edge">
<title>Node10&#45;&gt;Node14</title>
<g id="a_edge16_Node000010_Node000014"><a xlink:title=" ">
<path fill="none" stroke="#63b8ff" d="M207.38,-115.35C211.2,-100.1 221.45,-68.75 243.5,-55 314.38,-10.79 911.1,-23.83 994.5,-19 1023.57,-17.31 1056.42,-15.07 1081.15,-13.31"/>
<polygon fill="#63b8ff" stroke="#63b8ff" points="1081.49,-16.79 1091.21,-12.59 1080.99,-9.81 1081.49,-16.79"/>
</a>
</g>
</g>
<!-- Node15 -->
<g id="Node000015" class="node">
<title>Node15</title>
<g id="a_Node000015"><a xlink:title=" ">
<polygon fill="#e0e0e0" stroke="#999999" points="348,-74 253,-74 253,-55 348,-55 348,-74"/>
<text text-anchor="middle" x="300.5" y="-62" font-family="Helvetica,sans-Serif" font-size="10.00">user_typedefs.h</text>
</a>
</g>
</g>
<!-- Node10&#45;&gt;Node15 -->
<g id="edge18_Node000010_Node000015" class="edge">
<title>Node10&#45;&gt;Node15</title>
<g id="a_edge18_Node000010_Node000015"><a xlink:title=" ">
<path fill="none" stroke="#63b8ff" d="M219.52,-115.37C234.81,-105.95 259.53,-90.73 277.64,-79.58"/>
<polygon fill="#63b8ff" stroke="#63b8ff" points="279.75,-82.39 286.42,-74.17 276.07,-76.43 279.75,-82.39"/>
</a>
</g>
</g>
<!-- Node16 -->
<g id="Node000016" class="node">
<title>Node16</title>
<g id="a_Node000016"><a xlink:href="host__datatypes_8h.html" target="_top" xlink:title=" ">
<polygon fill="white" stroke="#666666" points="1229,-74 1128,-74 1128,-55 1229,-55 1229,-74"/>
<text text-anchor="middle" x="1178.5" y="-62" font-family="Helvetica,sans-Serif" font-size="10.00">host_datatypes.h</text>
</a>
</g>
</g>
<!-- Node10&#45;&gt;Node16 -->
<g id="edge19_Node000010_Node000016" class="edge">
<title>Node10&#45;&gt;Node16</title>
<g id="a_edge19_Node000010_Node000016"><a xlink:title=" ">
<path fill="none" stroke="#63b8ff" d="M232.25,-115.47C240,-113.32 248.52,-111.27 256.5,-110 586.5,-57.45 673.74,-90.29 1007.5,-74 1044.07,-72.21 1085.03,-70.18 1117.7,-68.55"/>
<polygon fill="#63b8ff" stroke="#63b8ff" points="1118.18,-72.03 1128,-68.03 1117.83,-65.04 1118.18,-72.03"/>
</a>
</g>
</g>
<!-- Node16&#45;&gt;Node14 -->
<g id="edge20_Node000016_Node000014" class="edge">
<title>Node16&#45;&gt;Node14</title>
<g id="a_edge20_Node000016_Node000014"><a xlink:title=" ">
<path fill="none" stroke="#63b8ff" d="M1169.02,-54.98C1160.3,-47.15 1147.16,-35.34 1136.6,-25.86"/>
<polygon fill="#63b8ff" stroke="#63b8ff" points="1138.93,-23.25 1129.15,-19.17 1134.25,-28.46 1138.93,-23.25"/>
</a>
</g>
</g>
<!-- Node17 -->
<g id="Node000017" class="node">
<title>Node17</title>
<g id="a_Node000017"><a xlink:title=" ">
<polygon fill="#e0e0e0" stroke="#999999" points="1265.5,-19 1209.5,-19 1209.5,0 1265.5,0 1265.5,-19"/>
<text text-anchor="middle" x="1237.5" y="-7" font-family="Helvetica,sans-Serif" font-size="10.00">stddef.h</text>
</a>
</g>
</g>
<!-- Node16&#45;&gt;Node17 -->
<g id="edge21_Node000016_Node000017" class="edge">
<title>Node16&#45;&gt;Node17</title>
<g id="a_edge21_Node000016_Node000017"><a xlink:title=" ">
<path fill="none" stroke="#63b8ff" d="M1187.98,-54.98C1196.7,-47.15 1209.84,-35.34 1220.4,-25.86"/>
<polygon fill="#63b8ff" stroke="#63b8ff" points="1222.75,-28.46 1227.85,-19.17 1218.07,-23.25 1222.75,-28.46"/>
</a>
</g>
</g>
<!-- Node18&#45;&gt;Node3 -->
<g id="edge25_Node000018_Node000003" class="edge">
<title>Node18&#45;&gt;Node3</title>
<g id="a_edge25_Node000018_Node000003"><a xlink:title=" ">
<path fill="none" stroke="#63b8ff" d="M2511.27,-115.37C2522.7,-106.21 2540.98,-91.56 2554.78,-80.51"/>
<polygon fill="#63b8ff" stroke="#63b8ff" points="2557.07,-83.15 2562.68,-74.17 2552.69,-77.69 2557.07,-83.15"/>
</a>
</g>
</g>
<!-- Node18&#45;&gt;Node5 -->
<g id="edge27_Node000018_Node000005" class="edge">
<title>Node18&#45;&gt;Node5</title>
<g id="a_edge27_Node000018_Node000005"><a xlink:title=" ">
<path fill="none" stroke="#63b8ff" d="M2481.24,-115.49C2475.62,-113.35 2469.4,-111.29 2463.5,-110 2403.28,-96.85 1974.87,-73.89 1847.89,-67.31"/>
<polygon fill="#63b8ff" stroke="#63b8ff" points="1847.73,-63.8 1837.57,-66.78 1847.37,-70.79 1847.73,-63.8"/>
</a>
</g>
</g>
<!-- Node18&#45;&gt;Node6 -->
<g id="edge30_Node000018_Node000006" class="edge">
<title>Node18&#45;&gt;Node6</title>
<g id="a_edge30_Node000018_Node000006"><a xlink:title=" ">
<path fill="none" stroke="#63b8ff" d="M2481.65,-115.48C2475.94,-113.28 2469.57,-111.19 2463.5,-110 2170.13,-52.29 1417.28,-85.42 1118.5,-74 1082.18,-72.61 1041.55,-70.61 1009.01,-68.9"/>
<polygon fill="#63b8ff" stroke="#63b8ff" points="1008.91,-65.39 998.74,-68.35 1008.54,-72.38 1008.91,-65.39"/>
</a>
</g>
</g>
<!-- Node18&#45;&gt;Node16 -->
<g id="edge24_Node000018_Node000016" class="edge">
<title>Node18&#45;&gt;Node16</title>
<g id="a_edge24_Node000018_Node000016"><a xlink:title=" ">
<path fill="none" stroke="#63b8ff" d="M2481.27,-115.36C2475.65,-113.22 2469.43,-111.19 2463.5,-110 2402.95,-97.84 1486.66,-73.45 1239.52,-67.06"/>
<polygon fill="#63b8ff" stroke="#63b8ff" points="1239.38,-63.55 1229.29,-66.8 1239.2,-70.55 1239.38,-63.55"/>
</a>
</g>
</g>
<!-- Node18&#45;&gt;Node17 -->
<g id="edge23_Node000018_Node000017" class="edge">
<title>Node18&#45;&gt;Node17</title>
<g id="a_edge23_Node000018_Node000017"><a xlink:title=" ">
<path fill="none" stroke="#63b8ff" d="M2480.84,-115.42C2475.32,-113.33 2469.26,-111.32 2463.5,-110 2228.93,-56.23 1457.09,-20.02 1275.84,-12.12"/>
<polygon fill="#63b8ff" stroke="#63b8ff" points="1275.87,-8.62 1265.72,-11.68 1275.56,-15.61 1275.87,-8.62"/>
</a>
</g>
</g>
<!-- Node19 -->
<g id="Node000019" class="node">
<title>Node19</title>
<g id="a_Node000019"><a xlink:title=" ">
<polygon fill="#e0e0e0" stroke="#999999" points="1593,-74 1540,-74 1540,-55 1593,-55 1593,-74"/>
<text text-anchor="middle" x="1566.5" y="-62" font-family="Helvetica,sans-Serif" font-size="10.00">stdint.h</text>
</a>
</g>
</g>
<!-- Node18&#45;&gt;Node19 -->
<g id="edge26_Node000018_Node000019" class="edge">
<title>Node18&#45;&gt;Node19</title>
<g id="a_edge26_Node000018_Node000019"><a xlink:title=" ">
<path fill="none" stroke="#63b8ff" d="M2481.25,-115.42C2475.64,-113.27 2469.42,-111.23 2463.5,-110 2420.79,-101.09 1767.01,-73.74 1603.4,-67.01"/>
<polygon fill="#63b8ff" stroke="#63b8ff" points="1603.48,-63.51 1593.34,-66.6 1603.19,-70.5 1603.48,-63.51"/>
</a>
</g>
</g>
<!-- Node20 -->
<g id="Node000020" class="node">
<title>Node20</title>
<g id="a_Node000020"><a xlink:title=" ">
<polygon fill="#e0e0e0" stroke="#999999" points="2458,-74 2405,-74 2405,-55 2458,-55 2458,-74"/>
<text text-anchor="middle" x="2431.5" y="-62" font-family="Helvetica,sans-Serif" font-size="10.00">stdlib.h</text>
</a>
</g>
</g>
<!-- Node18&#45;&gt;Node20 -->
<g id="edge28_Node000018_Node000020" class="edge">
<title>Node18&#45;&gt;Node20</title>
<g id="a_edge28_Node000018_Node000020"><a xlink:title=" ">
<path fill="none" stroke="#63b8ff" d="M2490.32,-115.37C2479.62,-106.3 2462.56,-91.84 2449.57,-80.82"/>
<polygon fill="#63b8ff" stroke="#63b8ff" points="2451.61,-77.96 2441.72,-74.17 2447.09,-83.3 2451.61,-77.96"/>
</a>
</g>
</g>
<!-- Node21 -->
<g id="Node000021" class="node">
<title>Node21</title>
<g id="a_Node000021"><a xlink:title=" ">
<polygon fill="#e0e0e0" stroke="#999999" points="2524.5,-74 2476.5,-74 2476.5,-55 2524.5,-55 2524.5,-74"/>
<text text-anchor="middle" x="2500.5" y="-62" font-family="Helvetica,sans-Serif" font-size="10.00">time.h</text>
</a>
</g>
</g>
<!-- Node18&#45;&gt;Node21 -->
<g id="edge29_Node000018_Node000021" class="edge">
<title>Node18&#45;&gt;Node21</title>
<g id="a_edge29_Node000018_Node000021"><a xlink:title=" ">
<path fill="none" stroke="#63b8ff" d="M2500.5,-115.37C2500.5,-107.25 2500.5,-94.81 2500.5,-84.39"/>
<polygon fill="#63b8ff" stroke="#63b8ff" points="2504,-84.17 2500.5,-74.17 2497,-84.17 2504,-84.17"/>
</a>
</g>
</g>
<!-- Node42&#45;&gt;Node4 -->
<g id="edge54_Node000042_Node000004" class="edge">
<title>Node42&#45;&gt;Node4</title>
<g id="a_edge54_Node000042_Node000004"><a xlink:title=" ">
<path fill="none" stroke="#63b8ff" d="M1978.63,-242.55C1904.43,-231.39 1770.16,-211.2 1695.75,-200.01"/>
<polygon fill="#63b8ff" stroke="#63b8ff" points="1696.07,-196.52 1685.66,-198.49 1695.03,-203.44 1696.07,-196.52"/>
</a>
</g>
</g>
<!-- Node43&#45;&gt;Node10 -->
<g id="edge56_Node000043_Node000010" class="edge">
<title>Node43&#45;&gt;Node10</title>
<g id="a_edge56_Node000043_Node000010"><a xlink:title=" ">
<path fill="none" stroke="#63b8ff" d="M234.05,-181.37C229.11,-171.78 220.99,-156.05 214.68,-143.8"/>
<polygon fill="#63b8ff" stroke="#63b8ff" points="217.79,-142.19 210.09,-134.91 211.56,-145.4 217.79,-142.19"/>
</a>
</g>
</g>
<!-- Node43&#45;&gt;Node19 -->
<g id="edge58_Node000043_Node000019" class="edge">
<title>Node43&#45;&gt;Node19</title>
<g id="a_edge58_Node000043_Node000019"><a xlink:title=" ">
<path fill="none" stroke="#63b8ff" d="M244.65,-181.39C257.63,-164.05 289.75,-125.26 327.5,-110 356.1,-98.44 1327.26,-71.89 1529.74,-66.48"/>
<polygon fill="#63b8ff" stroke="#63b8ff" points="1529.96,-69.97 1539.86,-66.21 1529.77,-62.97 1529.96,-69.97"/>
</a>
</g>
</g>
<!-- Node44 -->
<g id="Node000044" class="node">
<title>Node44</title>
<g id="a_Node000044"><a xlink:title=" ">
<polygon fill="#e0e0e0" stroke="#999999" points="150.5,-134.5 96.5,-134.5 96.5,-115.5 150.5,-115.5 150.5,-134.5"/>
<text text-anchor="middle" x="123.5" y="-122.5" font-family="Helvetica,sans-Serif" font-size="10.00">random</text>
</a>
</g>
</g>
<!-- Node43&#45;&gt;Node44 -->
<g id="edge57_Node000043_Node000044" class="edge">
<title>Node43&#45;&gt;Node44</title>
<g id="a_edge57_Node000043_Node000044"><a xlink:title=" ">
<path fill="none" stroke="#63b8ff" d="M222.99,-181.37C203.79,-170.68 170.84,-152.35 148.15,-139.72"/>
<polygon fill="#63b8ff" stroke="#63b8ff" points="149.57,-136.5 139.13,-134.7 146.17,-142.62 149.57,-136.5"/>
</a>
</g>
</g>
</g>
</svg>

<g id="navigator" transform="translate(0 0)" fill="#404254">
  <rect fill="#f2f5e9" fill-opacity="0.5" stroke="#606060" stroke-width=".5" x="0" y="0" width="60" height="60"/>
  <use id="zoomplus" xlink:href="#zoomPlus" x="17" y="9" onmousedown="handleZoom(evt,'in')"/>
  <use id="zoomminus" xlink:href="#zoomMin" x="42" y="9" onmousedown="handleZoom(evt,'out')"/>
  <use id="reset" xlink:href="#resetDef" x="30" y="36" onmousedown="handleReset()"/>
   <use id="arrowup" xlink:href="#arrowUp" x="0" y="0" onmousedown="handlePan(0,-1)"/>
  <use id="arrowright" xlink:href="#arrowRight" x="0" y="0" onmousedown="handlePan(1,0)"/>
  <use id="arrowdown" xlink:href="#arrowDown" x="0" y="0" onmousedown="handlePan(0,1)"/>
  <use id="arrowleft" xlink:href="#arrowLeft" x="0" y="0" onmousedown="handlePan(-1,0)"/>
</g>
<svg viewBox="0 0 15 15" width="100%" height="30px" preserveAspectRatio="xMaxYMin meet">
 <g id="arrow_out" transform="scale(0.3 0.3)">
  <a xlink:href="astaroth__forcing_8cc__incl_org.svg" target="_base">
   <rect id="button" ry="5" rx="5" y="6" x="6" height="38" width="38"
        fill="#f2f5e9" fill-opacity="0.5" stroke="#606060" stroke-width="1.0"/>
   <path id="arrow"
     d="M 11.500037,31.436501 C 11.940474,20.09759 22.043105,11.32322 32.158766,21.979434 L 37.068811,17.246167 C 37.068811,17.246167 37.088388,32 37.088388,32 L 22.160133,31.978069 C 22.160133,31.978069 26.997745,27.140456 26.997745,27.140456 C 18.528582,18.264221 13.291696,25.230495 11.500037,31.436501 z"
     style="fill:#404040;"/>
  </a>
 </g>
</svg>

<style type='text/css'>
<![CDATA[
[data-mouse-over-selected='false'] { opacity: 0.7; }
[data-mouse-over-selected='true']  { opacity: 1.0; }
]]>
</style>
<script type="application/ecmascript"><![CDATA[
document.addEventListener('DOMContentLoaded', (event) => {
  highlightEdges();
  highlightAdjacentNodes();
});
]]></script>
</svg>
