<?xml version="1.0" encoding="UTF-8" standalone="no"?>
<!DOCTYPE svg PUBLIC "-//W3C//DTD SVG 1.1//EN"
 "http://www.w3.org/Graphics/SVG/1.1/DTD/svg11.dtd">
<!-- Generated by graphviz version 2.43.0 (0)
 -->
<!-- Title: include/astaroth_utils.h Pages: 1 -->
<svg width="4009pt" height="379pt"
 viewBox="0.00 0.00 4009.00 379.00" xmlns="http://www.w3.org/2000/svg" xmlns:xlink="http://www.w3.org/1999/xlink">
<g id="graph0" class="graph" transform="scale(1 1) rotate(0) translate(4 375)">
<title>include/astaroth_utils.h</title>
<!-- Node1 -->
<g id="Node000001" class="node">
<title>Node1</title>
<g id="a_Node000001"><a xlink:title="Functions for loading and updating AcMeshInfo.">
<polygon fill="#999999" stroke="#666666" points="3343,-371 3212,-371 3212,-352 3343,-352 3343,-371"/>
<text text-anchor="middle" x="3277.5" y="-359" font-family="Helvetica,sans-Serif" font-size="10.00">include/astaroth_utils.h</text>
</a>
</g>
</g>
<!-- Node2 -->
<g id="Node000002" class="node">
<title>Node2</title>
<g id="a_Node000002"><a xlink:href="astaroth_8h.html" target="_top" xlink:title=" ">
<polygon fill="white" stroke="#666666" points="3231.5,-316 3165.5,-316 3165.5,-297 3231.5,-297 3231.5,-316"/>
<text text-anchor="middle" x="3198.5" y="-304" font-family="Helvetica,sans-Serif" font-size="10.00">astaroth.h</text>
</a>
</g>
</g>
<!-- Node1&#45;&gt;Node2 -->
<g id="edge1_Node000001_Node000002" class="edge">
<title>Node1&#45;&gt;Node2</title>
<g id="a_edge1_Node000001_Node000002"><a xlink:title=" ">
<path fill="none" stroke="#63b8ff" d="M3264.81,-351.98C3252.67,-343.84 3234.14,-331.41 3219.75,-321.76"/>
<polygon fill="#63b8ff" stroke="#63b8ff" points="3221.68,-318.84 3211.42,-316.17 3217.78,-324.65 3221.68,-318.84"/>
</a>
</g>
</g>
<!-- Node56 -->
<g id="Node000056" class="node">
<title>Node56</title>
<g id="a_Node000056"><a xlink:title=" ">
<polygon fill="#e0e0e0" stroke="#999999" points="3305.5,-316 3249.5,-316 3249.5,-297 3305.5,-297 3305.5,-316"/>
<text text-anchor="middle" x="3277.5" y="-304" font-family="Helvetica,sans-Serif" font-size="10.00">stdarg.h</text>
</a>
</g>
</g>
<!-- Node1&#45;&gt;Node56 -->
<g id="edge57_Node000001_Node000056" class="edge">
<title>Node1&#45;&gt;Node56</title>
<g id="a_edge57_Node000001_Node000056"><a xlink:title=" ">
<path fill="none" stroke="#63b8ff" d="M3277.5,-351.75C3277.5,-344.8 3277.5,-334.85 3277.5,-326.13"/>
<polygon fill="#63b8ff" stroke="#63b8ff" points="3281,-326.09 3277.5,-316.09 3274,-326.09 3281,-326.09"/>
</a>
</g>
</g>
<!-- Node57 -->
<g id="Node000057" class="node">
<title>Node57</title>
<g id="a_Node000057"><a xlink:href="astaroth__lib_8h.html" target="_top" xlink:title=" ">
<polygon fill="white" stroke="#666666" points="3407,-316 3324,-316 3324,-297 3407,-297 3407,-316"/>
<text text-anchor="middle" x="3365.5" y="-304" font-family="Helvetica,sans-Serif" font-size="10.00">astaroth_lib.h</text>
</a>
</g>
</g>
<!-- Node1&#45;&gt;Node57 -->
<g id="edge58_Node000001_Node000057" class="edge">
<title>Node1&#45;&gt;Node57</title>
<g id="a_edge58_Node000001_Node000057"><a xlink:title=" ">
<path fill="none" stroke="#63b8ff" d="M3291.64,-351.98C3305.29,-343.77 3326.19,-331.18 3342.28,-321.49"/>
<polygon fill="#63b8ff" stroke="#63b8ff" points="3344.34,-324.33 3351.1,-316.17 3340.73,-318.33 3344.34,-324.33"/>
</a>
</g>
</g>
<!-- Node3 -->
<g id="Node000003" class="node">
<title>Node3</title>
<g id="a_Node000003"><a xlink:href="astaroth__base_8h.html" target="_top" xlink:title=" ">
<polygon fill="white" stroke="#666666" points="2646,-261 2551,-261 2551,-242 2646,-242 2646,-261"/>
<text text-anchor="middle" x="2598.5" y="-249" font-family="Helvetica,sans-Serif" font-size="10.00">astaroth_base.h</text>
</a>
</g>
</g>
<!-- Node2&#45;&gt;Node3 -->
<g id="edge2_Node000002_Node000003" class="edge">
<title>Node2&#45;&gt;Node3</title>
<g id="a_edge2_Node000002_Node000003"><a xlink:title=" ">
<path fill="none" stroke="#63b8ff" d="M3165.37,-303.55C3081.86,-298.48 2855.8,-283.73 2656.14,-260.99"/>
<polygon fill="#63b8ff" stroke="#63b8ff" points="2656.39,-257.5 2646.05,-259.83 2655.59,-264.45 2656.39,-257.5"/>
</a>
</g>
</g>
<!-- Node44 -->
<g id="Node000044" class="node">
<title>Node44</title>
<g id="a_Node000044"><a xlink:href="astaroth__grid_8h.html" target="_top" xlink:title=" ">
<polygon fill="white" stroke="#666666" points="2754.5,-261 2664.5,-261 2664.5,-242 2754.5,-242 2754.5,-261"/>
<text text-anchor="middle" x="2709.5" y="-249" font-family="Helvetica,sans-Serif" font-size="10.00">astaroth_grid.h</text>
</a>
</g>
</g>
<!-- Node2&#45;&gt;Node44 -->
<g id="edge45_Node000002_Node000044" class="edge">
<title>Node2&#45;&gt;Node44</title>
<g id="a_edge45_Node000002_Node000044"><a xlink:title=" ">
<path fill="none" stroke="#63b8ff" d="M3165.41,-302.73C3094.18,-296.64 2920.79,-281.1 2764.8,-261.1"/>
<polygon fill="#63b8ff" stroke="#63b8ff" points="2764.92,-257.59 2754.55,-259.78 2764.02,-264.53 2764.92,-257.59"/>
</a>
</g>
</g>
<!-- Node45 -->
<g id="Node000045" class="node">
<title>Node45</title>
<g id="a_Node000045"><a xlink:href="astaroth__node_8h.html" target="_top" xlink:title=" ">
<polygon fill="white" stroke="#666666" points="2868,-261 2773,-261 2773,-242 2868,-242 2868,-261"/>
<text text-anchor="middle" x="2820.5" y="-249" font-family="Helvetica,sans-Serif" font-size="10.00">astaroth_node.h</text>
</a>
</g>
</g>
<!-- Node2&#45;&gt;Node45 -->
<g id="edge46_Node000002_Node000045" class="edge">
<title>Node2&#45;&gt;Node45</title>
<g id="a_edge46_Node000002_Node000045"><a xlink:title=" ">
<path fill="none" stroke="#63b8ff" d="M3165.21,-301C3108.6,-293.32 2989.71,-277.09 2878.16,-261.08"/>
<polygon fill="#63b8ff" stroke="#63b8ff" points="2878.48,-257.59 2868.08,-259.63 2877.48,-264.52 2878.48,-257.59"/>
</a>
</g>
</g>
<!-- Node46 -->
<g id="Node000046" class="node">
<title>Node46</title>
<g id="a_Node000046"><a xlink:href="astaroth__device_8h.html" target="_top" xlink:title=" ">
<polygon fill="white" stroke="#666666" points="2990.5,-261 2886.5,-261 2886.5,-242 2990.5,-242 2990.5,-261"/>
<text text-anchor="middle" x="2938.5" y="-249" font-family="Helvetica,sans-Serif" font-size="10.00">astaroth_device.h</text>
</a>
</g>
</g>
<!-- Node2&#45;&gt;Node46 -->
<g id="edge47_Node000002_Node000046" class="edge">
<title>Node2&#45;&gt;Node46</title>
<g id="a_edge47_Node000002_Node000046"><a xlink:title=" ">
<path fill="none" stroke="#63b8ff" d="M3165.31,-298.73C3121.16,-289.73 3042.64,-273.73 2990.57,-263.11"/>
<polygon fill="#63b8ff" stroke="#63b8ff" points="2991.02,-259.63 2980.52,-261.07 2989.62,-266.49 2991.02,-259.63"/>
</a>
</g>
</g>
<!-- Node49 -->
<g id="Node000049" class="node">
<title>Node49</title>
<g id="a_Node000049"><a xlink:href="astaroth__legacy_8h.html" target="_top" xlink:title=" ">
<polygon fill="white" stroke="#666666" points="3110.5,-261 3008.5,-261 3008.5,-242 3110.5,-242 3110.5,-261"/>
<text text-anchor="middle" x="3059.5" y="-249" font-family="Helvetica,sans-Serif" font-size="10.00">astaroth_legacy.h</text>
</a>
</g>
</g>
<!-- Node2&#45;&gt;Node49 -->
<g id="edge50_Node000002_Node000049" class="edge">
<title>Node2&#45;&gt;Node49</title>
<g id="a_edge50_Node000002_Node000049"><a xlink:title=" ">
<path fill="none" stroke="#63b8ff" d="M3176.17,-296.98C3153.3,-288.27 3117.54,-274.63 3091.64,-264.75"/>
<polygon fill="#63b8ff" stroke="#63b8ff" points="3092.83,-261.46 3082.24,-261.17 3090.34,-268 3092.83,-261.46"/>
</a>
</g>
</g>
<!-- Node50 -->
<g id="Node000050" class="node">
<title>Node50</title>
<g id="a_Node000050"><a xlink:title=" ">
<polygon fill="#e0e0e0" stroke="#999999" points="3268,-261 3129,-261 3129,-242 3268,-242 3268,-261"/>
<text text-anchor="middle" x="3198.5" y="-249" font-family="Helvetica,sans-Serif" font-size="10.00">device_set_input_decls.h</text>
</a>
</g>
</g>
<!-- Node2&#45;&gt;Node50 -->
<g id="edge51_Node000002_Node000050" class="edge">
<title>Node2&#45;&gt;Node50</title>
<g id="a_edge51_Node000002_Node000050"><a xlink:title=" ">
<path fill="none" stroke="#63b8ff" d="M3198.5,-296.75C3198.5,-289.8 3198.5,-279.85 3198.5,-271.13"/>
<polygon fill="#63b8ff" stroke="#63b8ff" points="3202,-271.09 3198.5,-261.09 3195,-271.09 3202,-271.09"/>
</a>
</g>
</g>
<!-- Node51 -->
<g id="Node000051" class="node">
<title>Node51</title>
<g id="a_Node000051"><a xlink:title=" ">
<polygon fill="#e0e0e0" stroke="#999999" points="3432.5,-261 3286.5,-261 3286.5,-242 3432.5,-242 3432.5,-261"/>
<text text-anchor="middle" x="3359.5" y="-249" font-family="Helvetica,sans-Serif" font-size="10.00">device_get_output_decls.h</text>
</a>
</g>
</g>
<!-- Node2&#45;&gt;Node51 -->
<g id="edge52_Node000002_Node000051" class="edge">
<title>Node2&#45;&gt;Node51</title>
<g id="a_edge52_Node000002_Node000051"><a xlink:title=" ">
<path fill="none" stroke="#63b8ff" d="M3224.37,-296.98C3251.28,-288.13 3293.62,-274.19 3323.73,-264.28"/>
<polygon fill="#63b8ff" stroke="#63b8ff" points="3325.03,-267.53 3333.43,-261.08 3322.84,-260.88 3325.03,-267.53"/>
</a>
</g>
</g>
<!-- Node52 -->
<g id="Node000052" class="node">
<title>Node52</title>
<g id="a_Node000052"><a xlink:title=" ">
<polygon fill="#e0e0e0" stroke="#999999" points="3590.5,-261 3450.5,-261 3450.5,-242 3590.5,-242 3590.5,-261"/>
<text text-anchor="middle" x="3520.5" y="-249" font-family="Helvetica,sans-Serif" font-size="10.00">device_get_input_decls.h</text>
</a>
</g>
</g>
<!-- Node2&#45;&gt;Node52 -->
<g id="edge53_Node000002_Node000052" class="edge">
<title>Node2&#45;&gt;Node52</title>
<g id="a_edge53_Node000002_Node000052"><a xlink:title=" ">
<path fill="none" stroke="#63b8ff" d="M3231.95,-298.6C3234.84,-298.04 3237.72,-297.5 3240.5,-297 3312.58,-283.98 3395.48,-271.06 3452.26,-262.53"/>
<polygon fill="#63b8ff" stroke="#63b8ff" points="3452.82,-265.98 3462.19,-261.04 3451.79,-259.06 3452.82,-265.98"/>
</a>
</g>
</g>
<!-- Node53 -->
<g id="Node000053" class="node">
<title>Node53</title>
<g id="a_Node000053"><a xlink:title=" ">
<polygon fill="#e0e0e0" stroke="#999999" points="3738.5,-261 3608.5,-261 3608.5,-242 3738.5,-242 3738.5,-261"/>
<text text-anchor="middle" x="3673.5" y="-249" font-family="Helvetica,sans-Serif" font-size="10.00">get_vtxbufs_declares.h</text>
</a>
</g>
</g>
<!-- Node2&#45;&gt;Node53 -->
<g id="edge54_Node000002_Node000053" class="edge">
<title>Node2&#45;&gt;Node53</title>
<g id="a_edge54_Node000002_Node000053"><a xlink:title=" ">
<path fill="none" stroke="#63b8ff" d="M3231.92,-298.42C3234.81,-297.91 3237.7,-297.42 3240.5,-297 3395.81,-273.56 3438.33,-277.95 3597.95,-261.14"/>
<polygon fill="#63b8ff" stroke="#63b8ff" points="3598.56,-264.6 3608.14,-260.06 3597.82,-257.64 3598.56,-264.6"/>
</a>
</g>
</g>
<!-- Node54 -->
<g id="Node000054" class="node">
<title>Node54</title>
<g id="a_Node000054"><a xlink:href="astaroth__runtime__compilation_8h.html" target="_top" xlink:title=" ">
<polygon fill="white" stroke="#666666" points="3930,-261 3757,-261 3757,-242 3930,-242 3930,-261"/>
<text text-anchor="middle" x="3843.5" y="-249" font-family="Helvetica,sans-Serif" font-size="10.00">astaroth_runtime_compilation.h</text>
</a>
</g>
</g>
<!-- Node2&#45;&gt;Node54 -->
<g id="edge55_Node000002_Node000054" class="edge">
<title>Node2&#45;&gt;Node54</title>
<g id="a_edge55_Node000002_Node000054"><a xlink:title=" ">
<path fill="none" stroke="#63b8ff" d="M3231.9,-298.34C3234.8,-297.84 3237.7,-297.38 3240.5,-297 3461.06,-266.98 3520.58,-278.61 3746.7,-261.04"/>
<polygon fill="#63b8ff" stroke="#63b8ff" points="3747.2,-264.51 3756.9,-260.24 3746.65,-257.53 3747.2,-264.51"/>
</a>
</g>
</g>
<!-- Node55 -->
<g id="Node000055" class="node">
<title>Node55</title>
<g id="a_Node000055"><a xlink:title=" ">
<polygon fill="#e0e0e0" stroke="#999999" points="4001,-261 3948,-261 3948,-242 4001,-242 4001,-261"/>
<text text-anchor="middle" x="3974.5" y="-249" font-family="Helvetica,sans-Serif" font-size="10.00">string.h</text>
</a>
</g>
</g>
<!-- Node2&#45;&gt;Node55 -->
<g id="edge56_Node000002_Node000055" class="edge">
<title>Node2&#45;&gt;Node55</title>
<g id="a_edge56_Node000002_Node000055"><a xlink:title=" ">
<path fill="none" stroke="#63b8ff" d="M3231.9,-298.28C3234.8,-297.79 3237.7,-297.35 3240.5,-297 3545.81,-258.46 3629.88,-304.88 3937.74,-260.98"/>
<polygon fill="#63b8ff" stroke="#63b8ff" points="3938.45,-264.41 3947.85,-259.52 3937.45,-257.48 3938.45,-264.41"/>
</a>
</g>
</g>
<!-- Node4 -->
<g id="Node000004" class="node">
<title>Node4</title>
<g id="a_Node000004"><a xlink:title=" ">
<polygon fill="#e0e0e0" stroke="#999999" points="2605.5,-74 2543.5,-74 2543.5,-55 2605.5,-55 2605.5,-74"/>
<text text-anchor="middle" x="2574.5" y="-62" font-family="Helvetica,sans-Serif" font-size="10.00">stdbool.h</text>
</a>
</g>
</g>
<!-- Node3&#45;&gt;Node4 -->
<g id="edge3_Node000003_Node000004" class="edge">
<title>Node3&#45;&gt;Node4</title>
<g id="a_edge3_Node000003_Node000004"><a xlink:title=" ">
<path fill="none" stroke="#63b8ff" d="M2639,-241.91C2658.67,-235.5 2680.58,-224.52 2692.5,-206 2715.59,-170.12 2717.82,-145.06 2693.5,-110 2676.05,-84.85 2642.55,-73.89 2615.53,-69.13"/>
<polygon fill="#63b8ff" stroke="#63b8ff" points="2615.96,-65.65 2605.54,-67.59 2614.89,-72.57 2615.96,-65.65"/>
</a>
</g>
</g>
<!-- Node5 -->
<g id="Node000005" class="node">
<title>Node5</title>
<g id="a_Node000005"><a xlink:href="ac__mpi_8h.html" target="_top" xlink:title=" ">
<polygon fill="white" stroke="#666666" points="2802,-200.5 2741,-200.5 2741,-181.5 2802,-181.5 2802,-200.5"/>
<text text-anchor="middle" x="2771.5" y="-188.5" font-family="Helvetica,sans-Serif" font-size="10.00">ac_mpi.h</text>
</a>
</g>
</g>
<!-- Node3&#45;&gt;Node5 -->
<g id="edge4_Node000003_Node000005" class="edge">
<title>Node3&#45;&gt;Node5</title>
<g id="a_edge4_Node000003_Node000005"><a xlink:title=" ">
<path fill="none" stroke="#63b8ff" d="M2623.66,-241.99C2653.38,-231.94 2703.02,-215.16 2736.49,-203.84"/>
<polygon fill="#63b8ff" stroke="#63b8ff" points="2737.96,-207.04 2746.31,-200.52 2735.72,-200.4 2737.96,-207.04"/>
</a>
</g>
</g>
<!-- Node6 -->
<g id="Node000006" class="node">
<title>Node6</title>
<g id="a_Node000006"><a xlink:href="acc__runtime_8h.html" target="_top" xlink:title=" ">
<polygon fill="white" stroke="#666666" points="1436.5,-200.5 1350.5,-200.5 1350.5,-181.5 1436.5,-181.5 1436.5,-200.5"/>
<text text-anchor="middle" x="1393.5" y="-188.5" font-family="Helvetica,sans-Serif" font-size="10.00">acc_runtime.h</text>
</a>
</g>
</g>
<!-- Node3&#45;&gt;Node6 -->
<g id="edge5_Node000003_Node000006" class="edge">
<title>Node3&#45;&gt;Node6</title>
<g id="a_edge5_Node000003_Node000006"><a xlink:title=" ">
<path fill="none" stroke="#63b8ff" d="M2550.89,-248.19C2359.57,-238.9 1647.4,-204.33 1446.54,-194.58"/>
<polygon fill="#63b8ff" stroke="#63b8ff" points="1446.69,-191.08 1436.53,-194.09 1446.35,-198.07 1446.69,-191.08"/>
</a>
</g>
</g>
<!-- Node26 -->
<g id="Node000026" class="node">
<title>Node26</title>
<g id="a_Node000026"><a xlink:title=" ">
<polygon fill="#e0e0e0" stroke="#999999" points="206,-134.5 67,-134.5 67,-115.5 206,-115.5 206,-134.5"/>
<text text-anchor="middle" x="136.5" y="-122.5" font-family="Helvetica,sans-Serif" font-size="10.00">user_built&#45;in_constants.h</text>
</a>
</g>
</g>
<!-- Node3&#45;&gt;Node26 -->
<g id="edge43_Node000003_Node000026" class="edge">
<title>Node3&#45;&gt;Node26</title>
<g id="a_edge43_Node000003_Node000026"><a xlink:title=" ">
<path fill="none" stroke="#63b8ff" d="M2550.65,-249.28C2256.25,-241.66 687.54,-198.8 210.5,-140 202.65,-139.03 194.38,-137.74 186.33,-136.33"/>
<polygon fill="#63b8ff" stroke="#63b8ff" points="186.76,-132.85 176.29,-134.5 185.5,-139.74 186.76,-132.85"/>
</a>
</g>
</g>
<!-- Node40 -->
<g id="Node000040" class="node">
<title>Node40</title>
<g id="a_Node000040"><a xlink:href="func__define_8h.html" target="_top" xlink:title=" ">
<polygon fill="white" stroke="#666666" points="2684.5,-134.5 2602.5,-134.5 2602.5,-115.5 2684.5,-115.5 2684.5,-134.5"/>
<text text-anchor="middle" x="2643.5" y="-122.5" font-family="Helvetica,sans-Serif" font-size="10.00">func_define.h</text>
</a>
</g>
</g>
<!-- Node3&#45;&gt;Node40 -->
<g id="edge42_Node000003_Node000040" class="edge">
<title>Node3&#45;&gt;Node40</title>
<g id="a_edge42_Node000003_Node000040"><a xlink:title=" ">
<path fill="none" stroke="#63b8ff" d="M2581.04,-241.88C2568.03,-234.38 2551.22,-222.18 2543.5,-206 2537.76,-193.97 2536.49,-187.34 2543.5,-176 2555.03,-157.34 2575.87,-145.41 2595.55,-137.91"/>
<polygon fill="#63b8ff" stroke="#63b8ff" points="2596.79,-141.18 2605.07,-134.57 2594.48,-134.57 2596.79,-141.18"/>
</a>
</g>
</g>
<!-- Node43 -->
<g id="Node000043" class="node">
<title>Node43</title>
<g id="a_Node000043"><a xlink:title=" ">
<polygon fill="#e0e0e0" stroke="#999999" points="2684,-206 2553,-206 2553,-176 2684,-176 2684,-206"/>
<text text-anchor="start" x="2561" y="-194" font-family="Helvetica,sans-Serif" font-size="10.00">user_builtin_non_scalar</text>
<text text-anchor="middle" x="2618.5" y="-183" font-family="Helvetica,sans-Serif" font-size="10.00">_constants.h</text>
</a>
</g>
</g>
<!-- Node3&#45;&gt;Node43 -->
<g id="edge44_Node000003_Node000043" class="edge">
<title>Node3&#45;&gt;Node43</title>
<g id="a_edge44_Node000003_Node000043"><a xlink:title=" ">
<path fill="none" stroke="#63b8ff" d="M2601.45,-241.87C2603.81,-234.96 2607.24,-224.93 2610.41,-215.67"/>
<polygon fill="#63b8ff" stroke="#63b8ff" points="2613.75,-216.71 2613.67,-206.11 2607.13,-214.44 2613.75,-216.71"/>
</a>
</g>
</g>
<!-- Node6&#45;&gt;Node4 -->
<g id="edge7_Node000006_Node000004" class="edge">
<title>Node6&#45;&gt;Node4</title>
<g id="a_edge7_Node000006_Node000004"><a xlink:title=" ">
<path fill="none" stroke="#63b8ff" d="M1436.59,-189.31C1639.1,-185.93 2488.31,-169.99 2535.5,-140 2555.09,-127.55 2565.39,-101.83 2570.38,-84.12"/>
<polygon fill="#63b8ff" stroke="#63b8ff" points="2573.8,-84.87 2572.84,-74.32 2567.01,-83.17 2573.8,-84.87"/>
</a>
</g>
</g>
<!-- Node7 -->
<g id="Node000007" class="node">
<title>Node7</title>
<g id="a_Node000007"><a xlink:title=" ">
<polygon fill="#e0e0e0" stroke="#999999" points="1544.5,-74 1494.5,-74 1494.5,-55 1544.5,-55 1544.5,-74"/>
<text text-anchor="middle" x="1519.5" y="-62" font-family="Helvetica,sans-Serif" font-size="10.00">stdio.h</text>
</a>
</g>
</g>
<!-- Node6&#45;&gt;Node7 -->
<g id="edge6_Node000006_Node000007" class="edge">
<title>Node6&#45;&gt;Node7</title>
<g id="a_edge6_Node000006_Node000007"><a xlink:title=" ">
<path fill="none" stroke="#63b8ff" d="M1436.61,-189.73C1638.17,-188.26 2479.48,-179.74 2517.5,-140 2526.72,-130.36 2526.72,-119.64 2517.5,-110 2483.56,-74.51 1728.38,-66.99 1554.83,-65.72"/>
<polygon fill="#63b8ff" stroke="#63b8ff" points="1554.73,-62.22 1544.71,-65.65 1554.68,-69.22 1554.73,-62.22"/>
</a>
</g>
</g>
<!-- Node8 -->
<g id="Node000008" class="node">
<title>Node8</title>
<g id="a_Node000008"><a xlink:href="device__headers_8h.html" target="_top" xlink:title=" ">
<polygon fill="white" stroke="#666666" points="495.5,-74 393.5,-74 393.5,-55 495.5,-55 495.5,-74"/>
<text text-anchor="middle" x="444.5" y="-62" font-family="Helvetica,sans-Serif" font-size="10.00">device_headers.h</text>
</a>
</g>
</g>
<!-- Node6&#45;&gt;Node8 -->
<g id="edge8_Node000006_Node000008" class="edge">
<title>Node6&#45;&gt;Node8</title>
<g id="a_edge8_Node000006_Node000008"><a xlink:title=" ">
<path fill="none" stroke="#63b8ff" d="M1350.26,-188.67C1159.32,-182.68 400.43,-157.78 383.5,-140 374.31,-130.34 377.46,-121.89 383.5,-110 390.27,-96.68 403.1,-86.41 415.25,-79.1"/>
<polygon fill="#63b8ff" stroke="#63b8ff" points="417.25,-81.99 424.3,-74.09 413.86,-75.87 417.25,-81.99"/>
</a>
</g>
</g>
<!-- Node11 -->
<g id="Node000011" class="node">
<title>Node11</title>
<g id="a_Node000011"><a xlink:title=" ">
<polygon fill="#e0e0e0" stroke="#999999" points="95,-74 0,-74 0,-55 95,-55 95,-74"/>
<text text-anchor="middle" x="47.5" y="-62" font-family="Helvetica,sans-Serif" font-size="10.00">builtin_enums.h</text>
</a>
</g>
</g>
<!-- Node6&#45;&gt;Node11 -->
<g id="edge11_Node000006_Node000011" class="edge">
<title>Node6&#45;&gt;Node11</title>
<g id="a_edge11_Node000006_Node000011"><a xlink:title=" ">
<path fill="none" stroke="#63b8ff" d="M1350.38,-188.84C1148.67,-183.3 305.9,-159.11 253.5,-140 232.96,-132.51 234.11,-119.67 214.5,-110 180.11,-93.05 138.45,-81.93 105.33,-75.05"/>
<polygon fill="#63b8ff" stroke="#63b8ff" points="105.84,-71.58 95.35,-73.05 104.47,-78.44 105.84,-71.58"/>
</a>
</g>
</g>
<!-- Node12 -->
<g id="Node000012" class="node">
<title>Node12</title>
<g id="a_Node000012"><a xlink:href="datatypes_8h.html" target="_top" xlink:title=" ">
<polygon fill="#fff0f0" stroke="red" points="336.5,-134.5 262.5,-134.5 262.5,-115.5 336.5,-115.5 336.5,-134.5"/>
<text text-anchor="middle" x="299.5" y="-122.5" font-family="Helvetica,sans-Serif" font-size="10.00">datatypes.h</text>
</a>
</g>
</g>
<!-- Node6&#45;&gt;Node12 -->
<g id="edge12_Node000006_Node000012" class="edge">
<title>Node6&#45;&gt;Node12</title>
<g id="a_edge12_Node000006_Node000012"><a xlink:title=" ">
<path fill="none" stroke="#63b8ff" d="M1350.28,-189.2C1179.03,-185.81 547.88,-171.43 350.5,-140 345.76,-139.25 340.83,-138.22 335.99,-137.05"/>
<polygon fill="#63b8ff" stroke="#63b8ff" points="336.81,-133.65 326.25,-134.53 335.06,-140.43 336.81,-133.65"/>
</a>
</g>
</g>
<!-- Node20 -->
<g id="Node000020" class="node">
<title>Node20</title>
<g id="a_Node000020"><a xlink:href="errchk_8h.html" target="_top" xlink:title="Brief info.">
<polygon fill="#fff0f0" stroke="red" points="448.5,-134.5 392.5,-134.5 392.5,-115.5 448.5,-115.5 448.5,-134.5"/>
<text text-anchor="middle" x="420.5" y="-122.5" font-family="Helvetica,sans-Serif" font-size="10.00">errchk.h</text>
</a>
</g>
</g>
<!-- Node6&#45;&gt;Node20 -->
<g id="edge19_Node000006_Node000020" class="edge">
<title>Node6&#45;&gt;Node20</title>
<g id="a_edge19_Node000006_Node000020"><a xlink:title=" ">
<path fill="none" stroke="#63b8ff" d="M1350.33,-189.45C1190.33,-187.16 631.47,-176.63 457.5,-140 454.82,-139.44 452.08,-138.71 449.36,-137.88"/>
<polygon fill="#63b8ff" stroke="#63b8ff" points="450.34,-134.52 439.75,-134.57 448.06,-141.14 450.34,-134.52"/>
</a>
</g>
</g>
<!-- Node24 -->
<g id="Node000024" class="node">
<title>Node24</title>
<g id="a_Node000024"><a xlink:title=" ">
<polygon fill="#e0e0e0" stroke="#999999" points="554,-134.5 467,-134.5 467,-115.5 554,-115.5 554,-134.5"/>
<text text-anchor="middle" x="510.5" y="-122.5" font-family="Helvetica,sans-Serif" font-size="10.00">user_defines.h</text>
</a>
</g>
</g>
<!-- Node6&#45;&gt;Node24 -->
<g id="edge23_Node000006_Node000024" class="edge">
<title>Node6&#45;&gt;Node24</title>
<g id="a_edge23_Node000006_Node000024"><a xlink:title=" ">
<path fill="none" stroke="#63b8ff" d="M1350.41,-190.4C1226.97,-190.9 861.75,-187.89 563.5,-140 558.65,-139.22 553.59,-138.19 548.62,-137.03"/>
<polygon fill="#63b8ff" stroke="#63b8ff" points="549.16,-133.56 538.61,-134.53 547.46,-140.35 549.16,-133.56"/>
</a>
</g>
</g>
<!-- Node25 -->
<g id="Node000025" class="node">
<title>Node25</title>
<g id="a_Node000025"><a xlink:title=" ">
<polygon fill="#e0e0e0" stroke="#999999" points="658.5,-134.5 572.5,-134.5 572.5,-115.5 658.5,-115.5 658.5,-134.5"/>
<text text-anchor="middle" x="615.5" y="-122.5" font-family="Helvetica,sans-Serif" font-size="10.00">profiles_info.h</text>
</a>
</g>
</g>
<!-- Node6&#45;&gt;Node25 -->
<g id="edge24_Node000006_Node000025" class="edge">
<title>Node6&#45;&gt;Node25</title>
<g id="a_edge24_Node000006_Node000025"><a xlink:title=" ">
<path fill="none" stroke="#63b8ff" d="M1350.2,-189.94C1237.11,-189.15 923.88,-182.92 667.5,-140 662.79,-139.21 657.89,-138.18 653.07,-137.04"/>
<polygon fill="#63b8ff" stroke="#63b8ff" points="653.9,-133.64 643.35,-134.57 652.18,-140.42 653.9,-133.64"/>
</a>
</g>
</g>
<!-- Node6&#45;&gt;Node26 -->
<g id="edge25_Node000006_Node000026" class="edge">
<title>Node6&#45;&gt;Node26</title>
<g id="a_edge25_Node000006_Node000026"><a xlink:title=" ">
<path fill="none" stroke="#63b8ff" d="M1350.39,-188.87C1166.43,-183.95 446.17,-163.53 220.5,-140 211.01,-139.01 200.96,-137.63 191.24,-136.12"/>
<polygon fill="#63b8ff" stroke="#63b8ff" points="191.69,-132.65 181.26,-134.5 190.58,-139.56 191.69,-132.65"/>
</a>
</g>
</g>
<!-- Node27 -->
<g id="Node000027" class="node">
<title>Node27</title>
<g id="a_Node000027"><a xlink:href="func__attributes_8h.html" target="_top" xlink:title=" ">
<polygon fill="white" stroke="#666666" points="776,-134.5 677,-134.5 677,-115.5 776,-115.5 776,-134.5"/>
<text text-anchor="middle" x="726.5" y="-122.5" font-family="Helvetica,sans-Serif" font-size="10.00">func_attributes.h</text>
</a>
</g>
</g>
<!-- Node6&#45;&gt;Node27 -->
<g id="edge26_Node000006_Node000027" class="edge">
<title>Node6&#45;&gt;Node27</title>
<g id="a_edge26_Node000006_Node000027"><a xlink:title=" ">
<path fill="none" stroke="#63b8ff" d="M1350.4,-188.75C1250.39,-185.36 995.03,-173.84 784.5,-140 779.07,-139.13 773.39,-138.01 767.81,-136.8"/>
<polygon fill="#63b8ff" stroke="#63b8ff" points="768.46,-133.35 757.93,-134.52 766.89,-140.18 768.46,-133.35"/>
</a>
</g>
</g>
<!-- Node28 -->
<g id="Node000028" class="node">
<title>Node28</title>
<g id="a_Node000028"><a xlink:title=" ">
<polygon fill="#e0e0e0" stroke="#999999" points="919,-134.5 794,-134.5 794,-115.5 919,-115.5 919,-134.5"/>
<text text-anchor="middle" x="856.5" y="-122.5" font-family="Helvetica,sans-Serif" font-size="10.00">user_input_typedefs.h</text>
</a>
</g>
</g>
<!-- Node6&#45;&gt;Node28 -->
<g id="edge27_Node000006_Node000028" class="edge">
<title>Node6&#45;&gt;Node28</title>
<g id="a_edge27_Node000006_Node000028"><a xlink:title=" ">
<path fill="none" stroke="#63b8ff" d="M1350.29,-186.64C1267.81,-179.94 1082.35,-163.53 927.5,-140 920.74,-138.97 913.65,-137.75 906.66,-136.46"/>
<polygon fill="#63b8ff" stroke="#63b8ff" points="907.05,-132.97 896.57,-134.54 905.74,-139.85 907.05,-132.97"/>
</a>
</g>
</g>
<!-- Node29 -->
<g id="Node000029" class="node">
<title>Node29</title>
<g id="a_Node000029"><a xlink:title=" ">
<polygon fill="#e0e0e0" stroke="#999999" points="1020,-134.5 937,-134.5 937,-115.5 1020,-115.5 1020,-134.5"/>
<text text-anchor="middle" x="978.5" y="-122.5" font-family="Helvetica,sans-Serif" font-size="10.00">output_decl.h</text>
</a>
</g>
</g>
<!-- Node6&#45;&gt;Node29 -->
<g id="edge28_Node000006_Node000029" class="edge">
<title>Node6&#45;&gt;Node29</title>
<g id="a_edge28_Node000006_Node000029"><a xlink:title=" ">
<path fill="none" stroke="#63b8ff" d="M1350.32,-185.93C1281.84,-179.05 1144.32,-163.54 1029.5,-140 1025.35,-139.15 1021.04,-138.15 1016.76,-137.09"/>
<polygon fill="#63b8ff" stroke="#63b8ff" points="1017.49,-133.66 1006.93,-134.52 1015.72,-140.43 1017.49,-133.66"/>
</a>
</g>
</g>
<!-- Node30 -->
<g id="Node000030" class="node">
<title>Node30</title>
<g id="a_Node000030"><a xlink:title=" ">
<polygon fill="#e0e0e0" stroke="#999999" points="1154.5,-134.5 1038.5,-134.5 1038.5,-115.5 1154.5,-115.5 1154.5,-134.5"/>
<text text-anchor="middle" x="1096.5" y="-122.5" font-family="Helvetica,sans-Serif" font-size="10.00">comp_loaded_decl.h</text>
</a>
</g>
</g>
<!-- Node6&#45;&gt;Node30 -->
<g id="edge29_Node000006_Node000030" class="edge">
<title>Node6&#45;&gt;Node30</title>
<g id="a_edge29_Node000006_Node000030"><a xlink:title=" ">
<path fill="none" stroke="#63b8ff" d="M1353.75,-181.44C1300.07,-169.87 1204.42,-149.26 1146.1,-136.69"/>
<polygon fill="#63b8ff" stroke="#63b8ff" points="1146.52,-133.2 1136.01,-134.51 1145.05,-140.04 1146.52,-133.2"/>
</a>
</g>
</g>
<!-- Node31 -->
<g id="Node000031" class="node">
<title>Node31</title>
<g id="a_Node000031"><a xlink:title=" ">
<polygon fill="#e0e0e0" stroke="#999999" points="1250.5,-134.5 1172.5,-134.5 1172.5,-115.5 1250.5,-115.5 1250.5,-134.5"/>
<text text-anchor="middle" x="1211.5" y="-122.5" font-family="Helvetica,sans-Serif" font-size="10.00">comp_decl.h</text>
</a>
</g>
</g>
<!-- Node6&#45;&gt;Node31 -->
<g id="edge30_Node000006_Node000031" class="edge">
<title>Node6&#45;&gt;Node31</title>
<g id="a_edge30_Node000006_Node000031"><a xlink:title=" ">
<path fill="none" stroke="#63b8ff" d="M1368.95,-181.37C1337.12,-170.17 1281.41,-150.58 1245.51,-137.96"/>
<polygon fill="#63b8ff" stroke="#63b8ff" points="1246.54,-134.61 1235.95,-134.6 1244.22,-141.22 1246.54,-134.61"/>
</a>
</g>
</g>
<!-- Node32 -->
<g id="Node000032" class="node">
<title>Node32</title>
<g id="a_Node000032"><a xlink:title=" ">
<polygon fill="#e0e0e0" stroke="#999999" points="1376.5,-134.5 1268.5,-134.5 1268.5,-115.5 1376.5,-115.5 1376.5,-134.5"/>
<text text-anchor="middle" x="1322.5" y="-122.5" font-family="Helvetica,sans-Serif" font-size="10.00">info_loaded_decl.h</text>
</a>
</g>
</g>
<!-- Node6&#45;&gt;Node32 -->
<g id="edge31_Node000006_Node000032" class="edge">
<title>Node6&#45;&gt;Node32</title>
<g id="a_edge31_Node000006_Node000032"><a xlink:title=" ">
<path fill="none" stroke="#63b8ff" d="M1383.92,-181.37C1372.66,-171.21 1353.74,-154.16 1339.87,-141.65"/>
<polygon fill="#63b8ff" stroke="#63b8ff" points="1342.15,-139 1332.38,-134.91 1337.46,-144.2 1342.15,-139"/>
</a>
</g>
</g>
<!-- Node33 -->
<g id="Node000033" class="node">
<title>Node33</title>
<g id="a_Node000033"><a xlink:title=" ">
<polygon fill="#e0e0e0" stroke="#999999" points="1534.5,-134.5 1394.5,-134.5 1394.5,-115.5 1534.5,-115.5 1534.5,-134.5"/>
<text text-anchor="middle" x="1464.5" y="-122.5" font-family="Helvetica,sans-Serif" font-size="10.00">device_mesh_info_decl.h</text>
</a>
</g>
</g>
<!-- Node6&#45;&gt;Node33 -->
<g id="edge32_Node000006_Node000033" class="edge">
<title>Node6&#45;&gt;Node33</title>
<g id="a_edge32_Node000006_Node000033"><a xlink:title=" ">
<path fill="none" stroke="#63b8ff" d="M1403.08,-181.37C1414.34,-171.21 1433.26,-154.16 1447.13,-141.65"/>
<polygon fill="#63b8ff" stroke="#63b8ff" points="1449.54,-144.2 1454.62,-134.91 1444.85,-139 1449.54,-144.2"/>
</a>
</g>
</g>
<!-- Node34 -->
<g id="Node000034" class="node">
<title>Node34</title>
<g id="a_Node000034"><a xlink:title=" ">
<polygon fill="#e0e0e0" stroke="#999999" points="1630,-134.5 1553,-134.5 1553,-115.5 1630,-115.5 1630,-134.5"/>
<text text-anchor="middle" x="1591.5" y="-122.5" font-family="Helvetica,sans-Serif" font-size="10.00">array_decl.h</text>
</a>
</g>
</g>
<!-- Node6&#45;&gt;Node34 -->
<g id="edge33_Node000006_Node000034" class="edge">
<title>Node6&#45;&gt;Node34</title>
<g id="a_edge33_Node000006_Node000034"><a xlink:title=" ">
<path fill="none" stroke="#63b8ff" d="M1420.2,-181.37C1454.99,-170.12 1515.96,-150.42 1555,-137.8"/>
<polygon fill="#63b8ff" stroke="#63b8ff" points="1556.47,-141 1564.9,-134.6 1554.31,-134.34 1556.47,-141"/>
</a>
</g>
</g>
<!-- Node35 -->
<g id="Node000035" class="node">
<title>Node35</title>
<g id="a_Node000035"><a xlink:title=" ">
<polygon fill="#e0e0e0" stroke="#999999" points="1724.5,-134.5 1648.5,-134.5 1648.5,-115.5 1724.5,-115.5 1724.5,-134.5"/>
<text text-anchor="middle" x="1686.5" y="-122.5" font-family="Helvetica,sans-Serif" font-size="10.00">input_decl.h</text>
</a>
</g>
</g>
<!-- Node6&#45;&gt;Node35 -->
<g id="edge34_Node000006_Node000035" class="edge">
<title>Node6&#45;&gt;Node35</title>
<g id="a_edge34_Node000006_Node000035"><a xlink:title=" ">
<path fill="none" stroke="#63b8ff" d="M1436.67,-182.3C1485.8,-173.29 1568.34,-157.36 1638.5,-140 1641.89,-139.16 1645.4,-138.24 1648.91,-137.28"/>
<polygon fill="#63b8ff" stroke="#63b8ff" points="1650.01,-140.61 1658.69,-134.53 1648.11,-133.87 1650.01,-140.61"/>
</a>
</g>
</g>
<!-- Node36 -->
<g id="Node000036" class="node">
<title>Node36</title>
<g id="a_Node000036"><a xlink:href="ac__helpers_8h.html" target="_top" xlink:title=" ">
<polygon fill="white" stroke="#666666" points="1820.5,-134.5 1742.5,-134.5 1742.5,-115.5 1820.5,-115.5 1820.5,-134.5"/>
<text text-anchor="middle" x="1781.5" y="-122.5" font-family="Helvetica,sans-Serif" font-size="10.00">ac_helpers.h</text>
</a>
</g>
</g>
<!-- Node6&#45;&gt;Node36 -->
<g id="edge35_Node000006_Node000036" class="edge">
<title>Node6&#45;&gt;Node36</title>
<g id="a_edge35_Node000006_Node000036"><a xlink:title=" ">
<path fill="none" stroke="#63b8ff" d="M1436.51,-185.6C1501.37,-178.53 1627.85,-163.06 1733.5,-140 1737.19,-139.19 1741.02,-138.26 1744.83,-137.26"/>
<polygon fill="#63b8ff" stroke="#63b8ff" points="1746.05,-140.55 1754.76,-134.51 1744.19,-133.8 1746.05,-140.55"/>
</a>
</g>
</g>
<!-- Node37 -->
<g id="Node000037" class="node">
<title>Node37</title>
<g id="a_Node000037"><a xlink:title=" ">
<polygon fill="#e0e0e0" stroke="#999999" points="1956.5,-140 1838.5,-140 1838.5,-110 1956.5,-110 1956.5,-140"/>
<text text-anchor="start" x="1846.5" y="-128" font-family="Helvetica,sans-Serif" font-size="10.00">scalar_reduce_buffer</text>
<text text-anchor="middle" x="1897.5" y="-117" font-family="Helvetica,sans-Serif" font-size="10.00">_defs.h</text>
</a>
</g>
</g>
<!-- Node6&#45;&gt;Node37 -->
<g id="edge36_Node000006_Node000037" class="edge">
<title>Node6&#45;&gt;Node37</title>
<g id="a_edge36_Node000006_Node000037"><a xlink:title=" ">
<path fill="none" stroke="#63b8ff" d="M1436.68,-186.33C1513.41,-179.53 1678.72,-163.63 1827.96,-140.16"/>
<polygon fill="#63b8ff" stroke="#63b8ff" points="1828.89,-143.55 1838.22,-138.53 1827.79,-136.64 1828.89,-143.55"/>
</a>
</g>
</g>
<!-- Node38 -->
<g id="Node000038" class="node">
<title>Node38</title>
<g id="a_Node000038"><a xlink:title=" ">
<polygon fill="#e0e0e0" stroke="#999999" points="2098,-140 1975,-140 1975,-110 2098,-110 2098,-140"/>
<text text-anchor="start" x="1983" y="-128" font-family="Helvetica,sans-Serif" font-size="10.00">scalar_reduce_buffers</text>
<text text-anchor="middle" x="2036.5" y="-117" font-family="Helvetica,sans-Serif" font-size="10.00">_in_vba.h</text>
</a>
</g>
</g>
<!-- Node6&#45;&gt;Node38 -->
<g id="edge37_Node000006_Node000038" class="edge">
<title>Node6&#45;&gt;Node38</title>
<g id="a_edge37_Node000006_Node000038"><a xlink:title=" ">
<path fill="none" stroke="#63b8ff" d="M1436.73,-187.81C1530.86,-182.71 1761.5,-168.34 1965.02,-139.95"/>
<polygon fill="#63b8ff" stroke="#63b8ff" points="1965.58,-143.41 1975,-138.55 1964.6,-136.48 1965.58,-143.41"/>
</a>
</g>
</g>
<!-- Node39 -->
<g id="Node000039" class="node">
<title>Node39</title>
<g id="a_Node000039"><a xlink:href="astaroth__analysis_8h.html" target="_top" xlink:title=" ">
<polygon fill="white" stroke="#666666" points="2228.5,-134.5 2116.5,-134.5 2116.5,-115.5 2228.5,-115.5 2228.5,-134.5"/>
<text text-anchor="middle" x="2172.5" y="-122.5" font-family="Helvetica,sans-Serif" font-size="10.00">astaroth_analysis.h</text>
</a>
</g>
</g>
<!-- Node6&#45;&gt;Node39 -->
<g id="edge38_Node000006_Node000039" class="edge">
<title>Node6&#45;&gt;Node39</title>
<g id="a_edge38_Node000006_Node000039"><a xlink:title=" ">
<path fill="none" stroke="#63b8ff" d="M1436.72,-189.06C1548.17,-186.18 1854.28,-175.42 2106.5,-140 2113.12,-139.07 2120.08,-137.86 2126.88,-136.54"/>
<polygon fill="#63b8ff" stroke="#63b8ff" points="2127.59,-139.96 2136.69,-134.54 2126.2,-133.1 2127.59,-139.96"/>
</a>
</g>
</g>
<!-- Node6&#45;&gt;Node40 -->
<g id="edge39_Node000006_Node000040" class="edge">
<title>Node6&#45;&gt;Node40</title>
<g id="a_edge39_Node000006_Node000040"><a xlink:title=" ">
<path fill="none" stroke="#63b8ff" d="M1436.53,-189.4C1622.67,-186.6 2359.42,-173.58 2588.5,-140 2593.73,-139.23 2599.18,-138.17 2604.53,-136.98"/>
<polygon fill="#63b8ff" stroke="#63b8ff" points="2605.71,-140.29 2614.61,-134.55 2604.07,-133.49 2605.71,-140.29"/>
</a>
</g>
</g>
<!-- Node41 -->
<g id="Node000041" class="node">
<title>Node41</title>
<g id="a_Node000041"><a xlink:href="common__kernels_8h.html" target="_top" xlink:title=" ">
<polygon fill="white" stroke="#666666" points="2356,-134.5 2247,-134.5 2247,-115.5 2356,-115.5 2356,-134.5"/>
<text text-anchor="middle" x="2301.5" y="-122.5" font-family="Helvetica,sans-Serif" font-size="10.00">common_kernels.h</text>
</a>
</g>
</g>
<!-- Node6&#45;&gt;Node41 -->
<g id="edge40_Node000006_Node000041" class="edge">
<title>Node6&#45;&gt;Node41</title>
<g id="a_edge40_Node000006_Node000041"><a xlink:title=" ">
<path fill="none" stroke="#63b8ff" d="M1436.77,-189.82C1561.6,-188.77 1932.88,-182.08 2237.5,-140 2243.86,-139.12 2250.52,-137.95 2257.05,-136.66"/>
<polygon fill="#63b8ff" stroke="#63b8ff" points="2258.06,-140.02 2267.13,-134.55 2256.63,-133.17 2258.06,-140.02"/>
</a>
</g>
</g>
<!-- Node42 -->
<g id="Node000042" class="node">
<title>Node42</title>
<g id="a_Node000042"><a xlink:title=" ">
<polygon fill="#e0e0e0" stroke="#999999" points="2508.5,-140 2374.5,-140 2374.5,-110 2508.5,-110 2508.5,-140"/>
<text text-anchor="start" x="2382.5" y="-128" font-family="Helvetica,sans-Serif" font-size="10.00">load_and_store_uniform</text>
<text text-anchor="middle" x="2441.5" y="-117" font-family="Helvetica,sans-Serif" font-size="10.00">_header.h</text>
</a>
</g>
</g>
<!-- Node6&#45;&gt;Node42 -->
<g id="edge41_Node000006_Node000042" class="edge">
<title>Node6&#45;&gt;Node42</title>
<g id="a_edge41_Node000006_Node000042"><a xlink:title=" ">
<path fill="none" stroke="#63b8ff" d="M1436.73,-189.75C1572.11,-188.55 1999.95,-181.57 2364.43,-139.88"/>
<polygon fill="#63b8ff" stroke="#63b8ff" points="2364.85,-143.35 2374.38,-138.73 2364.05,-136.4 2364.85,-143.35"/>
</a>
</g>
</g>
<!-- Node9 -->
<g id="Node000009" class="node">
<title>Node9</title>
<g id="a_Node000009"><a xlink:title=" ">
<polygon fill="#e0e0e0" stroke="#999999" points="372,-19 259,-19 259,0 372,0 372,-19"/>
<text text-anchor="middle" x="315.5" y="-7" font-family="Helvetica,sans-Serif" font-size="10.00">cuda_runtime_api.h</text>
</a>
</g>
</g>
<!-- Node8&#45;&gt;Node9 -->
<g id="edge9_Node000008_Node000009" class="edge">
<title>Node8&#45;&gt;Node9</title>
<g id="a_edge9_Node000008_Node000009"><a xlink:title=" ">
<path fill="none" stroke="#63b8ff" d="M423.77,-54.98C402.74,-46.34 369.95,-32.87 345.96,-23.02"/>
<polygon fill="#63b8ff" stroke="#63b8ff" points="347.18,-19.73 336.6,-19.17 344.52,-26.21 347.18,-19.73"/>
</a>
</g>
</g>
<!-- Node10 -->
<g id="Node000010" class="node">
<title>Node10</title>
<g id="a_Node000010"><a xlink:title=" ">
<polygon fill="#e0e0e0" stroke="#999999" points="482.5,-19 406.5,-19 406.5,0 482.5,0 482.5,-19"/>
<text text-anchor="middle" x="444.5" y="-7" font-family="Helvetica,sans-Serif" font-size="10.00">cuda_fp16.h</text>
</a>
</g>
</g>
<!-- Node8&#45;&gt;Node10 -->
<g id="edge10_Node000008_Node000010" class="edge">
<title>Node8&#45;&gt;Node10</title>
<g id="a_edge10_Node000008_Node000010"><a xlink:title=" ">
<path fill="none" stroke="#63b8ff" d="M444.5,-54.75C444.5,-47.8 444.5,-37.85 444.5,-29.13"/>
<polygon fill="#63b8ff" stroke="#63b8ff" points="448,-29.09 444.5,-19.09 441,-29.09 448,-29.09"/>
</a>
</g>
</g>
<!-- Node12&#45;&gt;Node8 -->
<g id="edge15_Node000012_Node000008" class="edge">
<title>Node12&#45;&gt;Node8</title>
<g id="a_edge15_Node000012_Node000008"><a xlink:title=" ">
<path fill="none" stroke="#63b8ff" d="M320.58,-115.49C345.18,-105.57 386.03,-89.09 414.06,-77.78"/>
<polygon fill="#63b8ff" stroke="#63b8ff" points="415.43,-81 423.39,-74.02 412.81,-74.51 415.43,-81"/>
</a>
</g>
</g>
<!-- Node12&#45;&gt;Node9 -->
<g id="edge17_Node000012_Node000009" class="edge">
<title>Node12&#45;&gt;Node9</title>
<g id="a_edge17_Node000012_Node000009"><a xlink:title=" ">
<path fill="none" stroke="#63b8ff" d="M300.7,-115.47C303.27,-97.23 309.36,-54.07 312.87,-29.14"/>
<polygon fill="#63b8ff" stroke="#63b8ff" points="316.35,-29.52 314.28,-19.13 309.42,-28.54 316.35,-29.52"/>
</a>
</g>
</g>
<!-- Node12&#45;&gt;Node11 -->
<g id="edge18_Node000012_Node000011" class="edge">
<title>Node12&#45;&gt;Node11</title>
<g id="a_edge18_Node000012_Node000011"><a xlink:title=" ">
<path fill="none" stroke="#63b8ff" d="M269.36,-115.46C262.52,-113.59 255.27,-111.68 248.5,-110 197.81,-97.44 139.5,-84.72 98.79,-76.12"/>
<polygon fill="#63b8ff" stroke="#63b8ff" points="99.34,-72.65 88.83,-74.02 97.9,-79.5 99.34,-72.65"/>
</a>
</g>
</g>
<!-- Node13 -->
<g id="Node000013" class="node">
<title>Node13</title>
<g id="a_Node000013"><a xlink:title=" ">
<polygon fill="#e0e0e0" stroke="#999999" points="375,-74 328,-74 328,-55 375,-55 375,-74"/>
<text text-anchor="middle" x="351.5" y="-62" font-family="Helvetica,sans-Serif" font-size="10.00">float.h</text>
</a>
</g>
</g>
<!-- Node12&#45;&gt;Node13 -->
<g id="edge13_Node000012_Node000013" class="edge">
<title>Node12&#45;&gt;Node13</title>
<g id="a_edge13_Node000012_Node000013"><a xlink:title=" ">
<path fill="none" stroke="#63b8ff" d="M307.17,-115.37C315.01,-106.55 327.36,-92.66 337.04,-81.77"/>
<polygon fill="#63b8ff" stroke="#63b8ff" points="339.77,-83.97 343.8,-74.17 334.54,-79.32 339.77,-83.97"/>
</a>
</g>
</g>
<!-- Node14 -->
<g id="Node000014" class="node">
<title>Node14</title>
<g id="a_Node000014"><a xlink:title=" ">
<polygon fill="#e0e0e0" stroke="#999999" points="164,-74 113,-74 113,-55 164,-55 164,-74"/>
<text text-anchor="middle" x="138.5" y="-62" font-family="Helvetica,sans-Serif" font-size="10.00">math.h</text>
</a>
</g>
</g>
<!-- Node12&#45;&gt;Node14 -->
<g id="edge14_Node000012_Node000014" class="edge">
<title>Node12&#45;&gt;Node14</title>
<g id="a_edge14_Node000012_Node000014"><a xlink:title=" ">
<path fill="none" stroke="#63b8ff" d="M276.09,-115.49C248.55,-105.49 202.63,-88.8 171.49,-77.49"/>
<polygon fill="#63b8ff" stroke="#63b8ff" points="172.53,-74.14 161.94,-74.02 170.14,-80.72 172.53,-74.14"/>
</a>
</g>
</g>
<!-- Node15 -->
<g id="Node000015" class="node">
<title>Node15</title>
<g id="a_Node000015"><a xlink:title=" ">
<polygon fill="#e0e0e0" stroke="#999999" points="271,-74 182,-74 182,-55 271,-55 271,-74"/>
<text text-anchor="middle" x="226.5" y="-62" font-family="Helvetica,sans-Serif" font-size="10.00">vector_types.h</text>
</a>
</g>
</g>
<!-- Node12&#45;&gt;Node15 -->
<g id="edge16_Node000012_Node000015" class="edge">
<title>Node12&#45;&gt;Node15</title>
<g id="a_edge16_Node000012_Node000015"><a xlink:title=" ">
<path fill="none" stroke="#63b8ff" d="M288.73,-115.37C277.3,-106.21 259.02,-91.56 245.22,-80.51"/>
<polygon fill="#63b8ff" stroke="#63b8ff" points="247.31,-77.69 237.32,-74.17 242.93,-83.15 247.31,-77.69"/>
</a>
</g>
</g>
<!-- Node20&#45;&gt;Node4 -->
<g id="edge20_Node000020_Node000004" class="edge">
<title>Node20&#45;&gt;Node4</title>
<g id="a_edge20_Node000020_Node000004"><a xlink:title=" ">
<path fill="none" stroke="#63b8ff" d="M439.34,-115.46C445.06,-113.26 451.43,-111.18 457.5,-110 563.12,-89.54 2246.07,-69.28 2533.04,-65.97"/>
<polygon fill="#63b8ff" stroke="#63b8ff" points="2533.46,-69.47 2543.42,-65.85 2533.38,-62.47 2533.46,-69.47"/>
</a>
</g>
</g>
<!-- Node20&#45;&gt;Node7 -->
<g id="edge21_Node000020_Node000007" class="edge">
<title>Node20&#45;&gt;Node7</title>
<g id="a_edge21_Node000020_Node000007"><a xlink:title=" ">
<path fill="none" stroke="#63b8ff" d="M439.74,-115.39C445.36,-113.24 451.58,-111.21 457.5,-110 660.3,-68.51 1323.25,-65.56 1484.1,-65.47"/>
<polygon fill="#63b8ff" stroke="#63b8ff" points="1484.39,-68.97 1494.39,-65.47 1484.38,-61.97 1484.39,-68.97"/>
</a>
</g>
</g>
<!-- Node20&#45;&gt;Node8 -->
<g id="edge22_Node000020_Node000008" class="edge">
<title>Node20&#45;&gt;Node8</title>
<g id="a_edge22_Node000020_Node000008"><a xlink:title=" ">
<path fill="none" stroke="#63b8ff" d="M424.04,-115.37C427.44,-107.07 432.69,-94.28 437.02,-83.72"/>
<polygon fill="#63b8ff" stroke="#63b8ff" points="440.39,-84.75 440.94,-74.17 433.91,-82.09 440.39,-84.75"/>
</a>
</g>
</g>
<!-- Node47 -->
<g id="Node000047" class="node">
<title>Node47</title>
<g id="a_Node000047"><a xlink:title=" ">
<polygon fill="#e0e0e0" stroke="#999999" points="2978,-206 2859,-206 2859,-176 2978,-176 2978,-206"/>
<text text-anchor="start" x="2867" y="-194" font-family="Helvetica,sans-Serif" font-size="10.00">device_load_uniform</text>
<text text-anchor="middle" x="2918.5" y="-183" font-family="Helvetica,sans-Serif" font-size="10.00">_decl.h</text>
</a>
</g>
</g>
<!-- Node46&#45;&gt;Node47 -->
<g id="edge48_Node000046_Node000047" class="edge">
<title>Node46&#45;&gt;Node47</title>
<g id="a_edge48_Node000046_Node000047"><a xlink:title=" ">
<path fill="none" stroke="#63b8ff" d="M2935.55,-241.87C2933.19,-234.96 2929.76,-224.93 2926.59,-215.67"/>
<polygon fill="#63b8ff" stroke="#63b8ff" points="2929.87,-214.44 2923.33,-206.11 2923.25,-216.71 2929.87,-214.44"/>
</a>
</g>
</g>
<!-- Node48 -->
<g id="Node000048" class="node">
<title>Node48</title>
<g id="a_Node000048"><a xlink:title=" ">
<polygon fill="#e0e0e0" stroke="#999999" points="3118.5,-206 2996.5,-206 2996.5,-176 3118.5,-176 3118.5,-206"/>
<text text-anchor="start" x="3004.5" y="-194" font-family="Helvetica,sans-Serif" font-size="10.00">device_store_uniform</text>
<text text-anchor="middle" x="3057.5" y="-183" font-family="Helvetica,sans-Serif" font-size="10.00">_decl.h</text>
</a>
</g>
</g>
<!-- Node46&#45;&gt;Node48 -->
<g id="edge49_Node000046_Node000048" class="edge">
<title>Node46&#45;&gt;Node48</title>
<g id="a_edge49_Node000046_Node000048"><a xlink:title=" ">
<path fill="none" stroke="#63b8ff" d="M2955.8,-241.99C2972.42,-233.82 2998.1,-221.2 3019.49,-210.69"/>
<polygon fill="#63b8ff" stroke="#63b8ff" points="3021.23,-213.73 3028.66,-206.18 3018.14,-207.45 3021.23,-213.73"/>
</a>
</g>
</g>
</g>
</svg>
