<?xml version="1.0" encoding="UTF-8" standalone="no"?>
<!DOCTYPE svg PUBLIC "-//W3C//DTD SVG 1.1//EN"
 "http://www.w3.org/Graphics/SVG/1.1/DTD/svg11.dtd">
<!-- Generated by graphviz version 2.43.0 (0)
 -->
<!-- Title: include/astaroth_base.h Pages: 1 -->
<!--zoomable 324 -->

<svg id="main" version="1.1" xmlns="http://www.w3.org/2000/svg" xmlns:xlink="http://www.w3.org/1999/xlink" xml:space="preserve" onload="init(evt)">
<style type="text/css"><![CDATA[
.node, .edge {opacity: 0.7;}
.node.selected, .edge.selected {opacity: 1;}
.edge:hover path { stroke: red; }
.edge:hover polygon { stroke: red; fill: red; }
]]></style>

<defs>
  <circle id="rim" cx="0" cy="0" r="7"/>
  <circle id="rim2" cx="0" cy="0" r="3.5"/>
  <g id="zoomPlus">
    <use xlink:href="#rim" fill="#404040"><set attributeName="fill" to="#808080" begin="zoomplus.mouseover" end="zoomplus.mouseout"/></use>
    <path d="M-4,0h8M0,-4v8" fill="none" stroke="white" stroke-width="1.5" pointer-events="none"/>
  </g>
  <g id="zoomMin">
    <use xlink:href="#rim" fill="#404040"><set attributeName="fill" to="#808080" begin="zoomminus.mouseover" end="zoomminus.mouseout"/></use>
    <path d="M-4,0h8" fill="none" stroke="white" stroke-width="1.5" pointer-events="none"/>
  </g>
  <g id="arrowUp" transform="translate(30 24)">
    <use xlink:href="#rim"/>
    <path pointer-events="none" fill="none" stroke="white" stroke-width="1.5" d="M0,-3.0v7 M-2.5,-0.5L0,-3.0L2.5,-0.5"/>
  </g>
  <g id="arrowRight" transform="rotate(90) translate(36 -43)">
    <use xlink:href="#rim"/>
    <path pointer-events="none" fill="none" stroke="white" stroke-width="1.5" d="M0,-3.0v7 M-2.5,-0.5L0,-3.0L2.5,-0.5"/>
  </g>
  <g id="arrowDown" transform="rotate(180) translate(-30 -48)">
    <use xlink:href="#rim"/>
    <path pointer-events="none" fill="none" stroke="white" stroke-width="1.5" d="M0,-3.0v7 M-2.5,-0.5L0,-3.0L2.5,-0.5"/>
  </g>
  <g id="arrowLeft" transform="rotate(270) translate(-36 17)">
    <use xlink:href="#rim"/>
    <path pointer-events="none" fill="none" stroke="white" stroke-width="1.5" d="M0,-3.0v7 M-2.5,-0.5L0,-3.0L2.5,-0.5"/>
  </g>
  <g id="resetDef">
    <use xlink:href="#rim2" fill="#404040"><set attributeName="fill" to="#808080" begin="reset.mouseover" end="reset.mouseout"/></use>
  </g>
</defs>
<script type="application/ecmascript">
var viewWidth = 2718;
var viewHeight = 324;
var sectionId = 'dynsection-0';
</script>
<script type="application/ecmascript" xlink:href="svg.min.js"/>
<svg id="graph" class="graph">
<g id="viewport">
<title>include/astaroth_base.h</title>
<!-- Node1 -->
<g id="Node000001" class="node">
<title>Node1</title>
<g id="a_Node000001"><a xlink:title=" ">
<polygon fill="#999999" stroke="#666666" points="1333,-316 1200,-316 1200,-297 1333,-297 1333,-316"/>
<text text-anchor="middle" x="1266.5" y="-304" font-family="Helvetica,sans-Serif" font-size="10.00">include/astaroth_base.h</text>
</a>
</g>
</g>
<!-- Node2 -->
<g id="Node000002" class="node">
<title>Node2</title>
<g id="a_Node000002"><a xlink:title=" ">
<polygon fill="#e0e0e0" stroke="#999999" points="2166.5,-74 2104.5,-74 2104.5,-55 2166.5,-55 2166.5,-74"/>
<text text-anchor="middle" x="2135.5" y="-62" font-family="Helvetica,sans-Serif" font-size="10.00">stdbool.h</text>
</a>
</g>
</g>
<!-- Node1&#45;&gt;Node2 -->
<g id="edge1_Node000001_Node000002" class="edge">
<title>Node1&#45;&gt;Node2</title>
<g id="a_edge1_Node000001_Node000002"><a xlink:title=" ">
<path fill="none" stroke="#63b8ff" d="M1333.17,-304.63C1577.76,-300.76 2415.66,-281.26 2494.5,-195 2517.22,-170.15 2469.85,-112.38 2466.5,-110 2420.76,-77.57 2255.21,-68.74 2176.99,-66.36"/>
<polygon fill="#63b8ff" stroke="#63b8ff" points="2176.65,-62.85 2166.55,-66.07 2176.45,-69.85 2176.65,-62.85"/>
</a>
</g>
</g>
<!-- Node3 -->
<g id="Node000003" class="node">
<title>Node3</title>
<g id="a_Node000003"><a xlink:href="acc__runtime_8h.html" target="_top" xlink:title=" ">
<polygon fill="white" stroke="#666666" points="1309.5,-255.5 1223.5,-255.5 1223.5,-236.5 1309.5,-236.5 1309.5,-255.5"/>
<text text-anchor="middle" x="1266.5" y="-243.5" font-family="Helvetica,sans-Serif" font-size="10.00">acc_runtime.h</text>
</a>
</g>
</g>
<!-- Node1&#45;&gt;Node3 -->
<g id="edge2_Node000001_Node000003" class="edge">
<title>Node1&#45;&gt;Node3</title>
<g id="a_edge2_Node000001_Node000003"><a xlink:title=" ">
<path fill="none" stroke="#63b8ff" d="M1266.5,-296.87C1266.5,-288.75 1266.5,-276.31 1266.5,-265.89"/>
<polygon fill="#63b8ff" stroke="#63b8ff" points="1270,-265.67 1266.5,-255.67 1263,-265.67 1270,-265.67"/>
</a>
</g>
</g>
<!-- Node23 -->
<g id="Node000023" class="node">
<title>Node23</title>
<g id="a_Node000023"><a xlink:href="func__define_8h.html" target="_top" xlink:title=" ">
<polygon fill="white" stroke="#666666" points="95.5,-189.5 13.5,-189.5 13.5,-170.5 95.5,-170.5 95.5,-189.5"/>
<text text-anchor="middle" x="54.5" y="-177.5" font-family="Helvetica,sans-Serif" font-size="10.00">func_define.h</text>
</a>
</g>
</g>
<!-- Node1&#45;&gt;Node23 -->
<g id="edge58_Node000001_Node000023" class="edge">
<title>Node1&#45;&gt;Node23</title>
<g id="a_edge58_Node000001_Node000023"><a xlink:title=" ">
<path fill="none" stroke="#63b8ff" d="M1199.57,-303.02C1074.54,-298.01 797.12,-285.02 564.5,-261 359.05,-239.78 306.6,-237.6 104.5,-195 100.59,-194.18 96.54,-193.22 92.51,-192.2"/>
<polygon fill="#63b8ff" stroke="#63b8ff" points="93.2,-188.76 82.63,-189.57 91.4,-195.52 93.2,-188.76"/>
</a>
</g>
</g>
<!-- Node26 -->
<g id="Node000026" class="node">
<title>Node26</title>
<g id="a_Node000026"><a xlink:title=" ">
<polygon fill="#e0e0e0" stroke="#999999" points="253,-189.5 114,-189.5 114,-170.5 253,-170.5 253,-189.5"/>
<text text-anchor="middle" x="183.5" y="-177.5" font-family="Helvetica,sans-Serif" font-size="10.00">user_built&#45;in_constants.h</text>
</a>
</g>
</g>
<!-- Node1&#45;&gt;Node26 -->
<g id="edge59_Node000001_Node000026" class="edge">
<title>Node1&#45;&gt;Node26</title>
<g id="a_edge59_Node000001_Node000026"><a xlink:title=" ">
<path fill="none" stroke="#63b8ff" d="M1199.7,-299.39C1038.87,-284.41 617.51,-243.49 267.5,-195 259.18,-193.85 250.43,-192.52 241.83,-191.15"/>
<polygon fill="#63b8ff" stroke="#63b8ff" points="242.28,-187.67 231.85,-189.52 241.16,-194.58 242.28,-187.67"/>
</a>
</g>
</g>
<!-- Node39 -->
<g id="Node000039" class="node">
<title>Node39</title>
<g id="a_Node000039"><a xlink:title=" ">
<polygon fill="#e0e0e0" stroke="#999999" points="2710,-261 2579,-261 2579,-231 2710,-231 2710,-261"/>
<text text-anchor="start" x="2587" y="-249" font-family="Helvetica,sans-Serif" font-size="10.00">user_builtin_non_scalar</text>
<text text-anchor="middle" x="2644.5" y="-238" font-family="Helvetica,sans-Serif" font-size="10.00">_constants.h</text>
</a>
</g>
</g>
<!-- Node1&#45;&gt;Node39 -->
<g id="edge60_Node000001_Node000039" class="edge">
<title>Node1&#45;&gt;Node39</title>
<g id="a_edge60_Node000001_Node000039"><a xlink:title=" ">
<path fill="none" stroke="#63b8ff" d="M1333.13,-304.44C1562.99,-300.6 2322.01,-286.25 2564.5,-261 2565.8,-260.86 2567.11,-260.72 2568.43,-260.57"/>
<polygon fill="#63b8ff" stroke="#63b8ff" points="2569.2,-264 2578.68,-259.27 2568.32,-257.06 2569.2,-264"/>
</a>
</g>
</g>
<!-- Node3&#45;&gt;Node2 -->
<g id="edge3_Node000003_Node000002" class="edge">
<title>Node3&#45;&gt;Node2</title>
<g id="a_edge3_Node000003_Node000002"><a xlink:title=" ">
<path fill="none" stroke="#63b8ff" d="M1309.56,-244.87C1519.97,-244 2431.45,-237.79 2472.5,-195 2562.58,-101.11 2284.98,-74.34 2176.76,-67.57"/>
<polygon fill="#63b8ff" stroke="#63b8ff" points="2176.73,-64.06 2166.54,-66.96 2176.31,-71.05 2176.73,-64.06"/>
</a>
</g>
</g>
<!-- Node4 -->
<g id="Node000004" class="node">
<title>Node4</title>
<g id="a_Node000004"><a xlink:title=" ">
<polygon fill="#e0e0e0" stroke="#999999" points="2161.5,-129 2111.5,-129 2111.5,-110 2161.5,-110 2161.5,-129"/>
<text text-anchor="middle" x="2136.5" y="-117" font-family="Helvetica,sans-Serif" font-size="10.00">stdio.h</text>
</a>
</g>
</g>
<!-- Node3&#45;&gt;Node4 -->
<g id="edge4_Node000003_Node000004" class="edge">
<title>Node3&#45;&gt;Node4</title>
<g id="a_edge4_Node000003_Node000004"><a xlink:title=" ">
<path fill="none" stroke="#63b8ff" d="M1309.65,-244.84C1518.38,-243.85 2415.08,-237.15 2455.5,-195 2464.73,-185.38 2464.25,-175.06 2455.5,-165 2419.11,-123.19 2247.77,-119.45 2172.32,-119.89"/>
<polygon fill="#63b8ff" stroke="#63b8ff" points="2171.88,-116.39 2161.91,-119.98 2171.94,-123.39 2171.88,-116.39"/>
</a>
</g>
</g>
<!-- Node5 -->
<g id="Node000005" class="node">
<title>Node5</title>
<g id="a_Node000005"><a xlink:href="ac__helpers_8h.html" target="_top" xlink:title=" ">
<polygon fill="white" stroke="#666666" points="585.5,-189.5 507.5,-189.5 507.5,-170.5 585.5,-170.5 585.5,-189.5"/>
<text text-anchor="middle" x="546.5" y="-177.5" font-family="Helvetica,sans-Serif" font-size="10.00">ac_helpers.h</text>
</a>
</g>
</g>
<!-- Node3&#45;&gt;Node5 -->
<g id="edge5_Node000003_Node000005" class="edge">
<title>Node3&#45;&gt;Node5</title>
<g id="a_edge5_Node000003_Node000005"><a xlink:title=" ">
<path fill="none" stroke="#63b8ff" d="M1223.29,-242.93C1094.88,-236.61 716.97,-216.65 595.5,-195 591.29,-194.25 586.92,-193.28 582.6,-192.21"/>
<polygon fill="#63b8ff" stroke="#63b8ff" points="583.28,-188.77 572.72,-189.56 581.47,-195.53 583.28,-188.77"/>
</a>
</g>
</g>
<!-- Node7 -->
<g id="Node000007" class="node">
<title>Node7</title>
<g id="a_Node000007"><a xlink:href="device__headers_8h.html" target="_top" xlink:title=" ">
<polygon fill="white" stroke="#666666" points="654.5,-74 552.5,-74 552.5,-55 654.5,-55 654.5,-74"/>
<text text-anchor="middle" x="603.5" y="-62" font-family="Helvetica,sans-Serif" font-size="10.00">device_headers.h</text>
</a>
</g>
</g>
<!-- Node3&#45;&gt;Node7 -->
<g id="edge32_Node000003_Node000007" class="edge">
<title>Node3&#45;&gt;Node7</title>
<g id="a_edge32_Node000003_Node000007"><a xlink:title=" ">
<path fill="none" stroke="#63b8ff" d="M1223.5,-243.81C1065.29,-239.23 523.45,-221.63 498.5,-195 460.97,-154.94 536.67,-103.16 578.44,-79.01"/>
<polygon fill="#63b8ff" stroke="#63b8ff" points="580.28,-81.99 587.27,-74.03 576.84,-75.9 580.28,-81.99"/>
</a>
</g>
</g>
<!-- Node12 -->
<g id="Node000012" class="node">
<title>Node12</title>
<g id="a_Node000012"><a xlink:title=" ">
<polygon fill="#e0e0e0" stroke="#999999" points="95,-74 0,-74 0,-55 95,-55 95,-74"/>
<text text-anchor="middle" x="47.5" y="-62" font-family="Helvetica,sans-Serif" font-size="10.00">builtin_enums.h</text>
</a>
</g>
</g>
<!-- Node3&#45;&gt;Node12 -->
<g id="edge17_Node000003_Node000012" class="edge">
<title>Node3&#45;&gt;Node12</title>
<g id="a_edge17_Node000003_Node000012"><a xlink:title=" ">
<path fill="none" stroke="#63b8ff" d="M1223.34,-244.31C1047.13,-241.26 387.53,-227.76 300.5,-195 280.36,-187.42 282.04,-174.01 262.5,-165 187.61,-130.49 146.47,-178.47 80.5,-129 65.77,-117.95 57.03,-98.41 52.29,-83.91"/>
<polygon fill="#63b8ff" stroke="#63b8ff" points="55.57,-82.66 49.41,-74.04 48.85,-84.62 55.57,-82.66"/>
</a>
</g>
</g>
<!-- Node14 -->
<g id="Node000014" class="node">
<title>Node14</title>
<g id="a_Node000014"><a xlink:href="common__kernels_8h.html" target="_top" xlink:title=" ">
<polygon fill="white" stroke="#666666" points="713,-189.5 604,-189.5 604,-170.5 713,-170.5 713,-189.5"/>
<text text-anchor="middle" x="658.5" y="-177.5" font-family="Helvetica,sans-Serif" font-size="10.00">common_kernels.h</text>
</a>
</g>
</g>
<!-- Node3&#45;&gt;Node14 -->
<g id="edge18_Node000003_Node000014" class="edge">
<title>Node3&#45;&gt;Node14</title>
<g id="a_edge18_Node000003_Node000014"><a xlink:title=" ">
<path fill="none" stroke="#63b8ff" d="M1223.26,-242.85C1130.88,-237.85 907.61,-223.64 722.5,-195 716.52,-194.08 710.27,-192.93 704.11,-191.7"/>
<polygon fill="#63b8ff" stroke="#63b8ff" points="704.4,-188.18 693.9,-189.56 702.97,-195.04 704.4,-188.18"/>
</a>
</g>
</g>
<!-- Node15 -->
<g id="Node000015" class="node">
<title>Node15</title>
<g id="a_Node000015"><a xlink:href="datatypes_8h.html" target="_top" xlink:title=" ">
<polygon fill="white" stroke="#666666" points="383.5,-189.5 309.5,-189.5 309.5,-170.5 383.5,-170.5 383.5,-189.5"/>
<text text-anchor="middle" x="346.5" y="-177.5" font-family="Helvetica,sans-Serif" font-size="10.00">datatypes.h</text>
</a>
</g>
</g>
<!-- Node3&#45;&gt;Node15 -->
<g id="edge23_Node000003_Node000015" class="edge">
<title>Node3&#45;&gt;Node15</title>
<g id="a_edge23_Node000003_Node000015"><a xlink:title=" ">
<path fill="none" stroke="#63b8ff" d="M1223.46,-243.14C1103.37,-237.79 754.49,-221 465.5,-195 441.8,-192.87 415.52,-189.85 393.7,-187.16"/>
<polygon fill="#63b8ff" stroke="#63b8ff" points="394.05,-183.67 383.7,-185.91 393.19,-190.62 394.05,-183.67"/>
</a>
</g>
</g>
<!-- Node19 -->
<g id="Node000019" class="node">
<title>Node19</title>
<g id="a_Node000019"><a xlink:href="errchk_8h.html" target="_top" xlink:title="Brief info.">
<polygon fill="white" stroke="#666666" points="787.5,-189.5 731.5,-189.5 731.5,-170.5 787.5,-170.5 787.5,-189.5"/>
<text text-anchor="middle" x="759.5" y="-177.5" font-family="Helvetica,sans-Serif" font-size="10.00">errchk.h</text>
</a>
</g>
</g>
<!-- Node3&#45;&gt;Node19 -->
<g id="edge33_Node000003_Node000019" class="edge">
<title>Node3&#45;&gt;Node19</title>
<g id="a_edge33_Node000003_Node000019"><a xlink:title=" ">
<path fill="none" stroke="#63b8ff" d="M1223.43,-244.08C1139.95,-241.51 950.76,-231.75 796.5,-195 793.99,-194.4 791.41,-193.68 788.85,-192.87"/>
<polygon fill="#63b8ff" stroke="#63b8ff" points="789.77,-189.49 779.18,-189.51 787.47,-196.1 789.77,-189.49"/>
</a>
</g>
</g>
<!-- Node3&#45;&gt;Node23 -->
<g id="edge42_Node000003_Node000023" class="edge">
<title>Node3&#45;&gt;Node23</title>
<g id="a_edge42_Node000003_Node000023"><a xlink:title=" ">
<path fill="none" stroke="#63b8ff" d="M1223.41,-244.47C1040.34,-242.02 326.34,-230.35 104.5,-195 99.97,-194.28 95.27,-193.29 90.64,-192.17"/>
<polygon fill="#63b8ff" stroke="#63b8ff" points="91.28,-188.72 80.72,-189.56 89.5,-195.49 91.28,-188.72"/>
</a>
</g>
</g>
<!-- Node24 -->
<g id="Node000024" class="node">
<title>Node24</title>
<g id="a_Node000024"><a xlink:title=" ">
<polygon fill="#e0e0e0" stroke="#999999" points="891.5,-189.5 805.5,-189.5 805.5,-170.5 891.5,-170.5 891.5,-189.5"/>
<text text-anchor="middle" x="848.5" y="-177.5" font-family="Helvetica,sans-Serif" font-size="10.00">profiles_info.h</text>
</a>
</g>
</g>
<!-- Node3&#45;&gt;Node24 -->
<g id="edge43_Node000003_Node000024" class="edge">
<title>Node3&#45;&gt;Node24</title>
<g id="a_edge43_Node000003_Node000024"><a xlink:title=" ">
<path fill="none" stroke="#63b8ff" d="M1223.38,-240.91C1154.64,-233.98 1016.16,-218.37 900.5,-195 896.27,-194.15 891.88,-193.15 887.52,-192.08"/>
<polygon fill="#63b8ff" stroke="#63b8ff" points="888.05,-188.6 877.5,-189.51 886.31,-195.38 888.05,-188.6"/>
</a>
</g>
</g>
<!-- Node25 -->
<g id="Node000025" class="node">
<title>Node25</title>
<g id="a_Node000025"><a xlink:title=" ">
<polygon fill="#e0e0e0" stroke="#999999" points="1027.5,-195 909.5,-195 909.5,-165 1027.5,-165 1027.5,-195"/>
<text text-anchor="start" x="917.5" y="-183" font-family="Helvetica,sans-Serif" font-size="10.00">scalar_reduce_buffer</text>
<text text-anchor="middle" x="968.5" y="-172" font-family="Helvetica,sans-Serif" font-size="10.00">_defs.h</text>
</a>
</g>
</g>
<!-- Node3&#45;&gt;Node25 -->
<g id="edge44_Node000003_Node000025" class="edge">
<title>Node3&#45;&gt;Node25</title>
<g id="a_edge44_Node000003_Node000025"><a xlink:title=" ">
<path fill="none" stroke="#63b8ff" d="M1226.62,-236.44C1178.34,-226.07 1096.24,-208.43 1037.59,-195.84"/>
<polygon fill="#63b8ff" stroke="#63b8ff" points="1038.17,-192.38 1027.66,-193.71 1036.7,-199.23 1038.17,-192.38"/>
</a>
</g>
</g>
<!-- Node3&#45;&gt;Node26 -->
<g id="edge45_Node000003_Node000026" class="edge">
<title>Node3&#45;&gt;Node26</title>
<g id="a_edge45_Node000003_Node000026"><a xlink:title=" ">
<path fill="none" stroke="#63b8ff" d="M1223.38,-242.98C1037.95,-234.28 315.63,-200.2 267.5,-195 258.22,-194 248.4,-192.64 238.88,-191.16"/>
<polygon fill="#63b8ff" stroke="#63b8ff" points="239.14,-187.65 228.71,-189.52 238.02,-194.56 239.14,-187.65"/>
</a>
</g>
</g>
<!-- Node27 -->
<g id="Node000027" class="node">
<title>Node27</title>
<g id="a_Node000027"><a xlink:title=" ">
<polygon fill="#e0e0e0" stroke="#999999" points="1133,-189.5 1046,-189.5 1046,-170.5 1133,-170.5 1133,-189.5"/>
<text text-anchor="middle" x="1089.5" y="-177.5" font-family="Helvetica,sans-Serif" font-size="10.00">user_defines.h</text>
</a>
</g>
</g>
<!-- Node3&#45;&gt;Node27 -->
<g id="edge46_Node000003_Node000027" class="edge">
<title>Node3&#45;&gt;Node27</title>
<g id="a_edge46_Node000003_Node000027"><a xlink:title=" ">
<path fill="none" stroke="#63b8ff" d="M1242.63,-236.37C1211.8,-225.22 1157.95,-205.75 1123.02,-193.12"/>
<polygon fill="#63b8ff" stroke="#63b8ff" points="1123.87,-189.71 1113.27,-189.6 1121.49,-196.29 1123.87,-189.71"/>
</a>
</g>
</g>
<!-- Node28 -->
<g id="Node000028" class="node">
<title>Node28</title>
<g id="a_Node000028"><a xlink:title=" ">
<polygon fill="#e0e0e0" stroke="#999999" points="1276,-189.5 1151,-189.5 1151,-170.5 1276,-170.5 1276,-189.5"/>
<text text-anchor="middle" x="1213.5" y="-177.5" font-family="Helvetica,sans-Serif" font-size="10.00">user_input_typedefs.h</text>
</a>
</g>
</g>
<!-- Node3&#45;&gt;Node28 -->
<g id="edge47_Node000003_Node000028" class="edge">
<title>Node3&#45;&gt;Node28</title>
<g id="a_edge47_Node000003_Node000028"><a xlink:title=" ">
<path fill="none" stroke="#63b8ff" d="M1259.35,-236.37C1251.18,-226.5 1237.61,-210.11 1227.34,-197.72"/>
<polygon fill="#63b8ff" stroke="#63b8ff" points="1229.95,-195.37 1220.87,-189.91 1224.56,-199.84 1229.95,-195.37"/>
</a>
</g>
</g>
<!-- Node29 -->
<g id="Node000029" class="node">
<title>Node29</title>
<g id="a_Node000029"><a xlink:title=" ">
<polygon fill="#e0e0e0" stroke="#999999" points="1347,-189.5 1294,-189.5 1294,-170.5 1347,-170.5 1347,-189.5"/>
<text text-anchor="middle" x="1320.5" y="-177.5" font-family="Helvetica,sans-Serif" font-size="10.00">string.h</text>
</a>
</g>
</g>
<!-- Node3&#45;&gt;Node29 -->
<g id="edge48_Node000003_Node000029" class="edge">
<title>Node3&#45;&gt;Node29</title>
<g id="a_edge48_Node000003_Node000029"><a xlink:title=" ">
<path fill="none" stroke="#63b8ff" d="M1273.78,-236.37C1282.11,-226.5 1295.94,-210.11 1306.39,-197.72"/>
<polygon fill="#63b8ff" stroke="#63b8ff" points="1309.21,-199.81 1312.99,-189.91 1303.86,-195.29 1309.21,-199.81"/>
</a>
</g>
</g>
<!-- Node30 -->
<g id="Node000030" class="node">
<title>Node30</title>
<g id="a_Node000030"><a xlink:title=" ">
<polygon fill="#e0e0e0" stroke="#999999" points="1448,-189.5 1365,-189.5 1365,-170.5 1448,-170.5 1448,-189.5"/>
<text text-anchor="middle" x="1406.5" y="-177.5" font-family="Helvetica,sans-Serif" font-size="10.00">output_decl.h</text>
</a>
</g>
</g>
<!-- Node3&#45;&gt;Node30 -->
<g id="edge49_Node000003_Node000030" class="edge">
<title>Node3&#45;&gt;Node30</title>
<g id="a_edge49_Node000003_Node000030"><a xlink:title=" ">
<path fill="none" stroke="#63b8ff" d="M1285.38,-236.37C1309.28,-225.44 1350.67,-206.52 1378.32,-193.88"/>
<polygon fill="#63b8ff" stroke="#63b8ff" points="1379.83,-197.04 1387.47,-189.7 1376.92,-190.67 1379.83,-197.04"/>
</a>
</g>
</g>
<!-- Node31 -->
<g id="Node000031" class="node">
<title>Node31</title>
<g id="a_Node000031"><a xlink:title=" ">
<polygon fill="#e0e0e0" stroke="#999999" points="1582.5,-189.5 1466.5,-189.5 1466.5,-170.5 1582.5,-170.5 1582.5,-189.5"/>
<text text-anchor="middle" x="1524.5" y="-177.5" font-family="Helvetica,sans-Serif" font-size="10.00">comp_loaded_decl.h</text>
</a>
</g>
</g>
<!-- Node3&#45;&gt;Node31 -->
<g id="edge50_Node000003_Node000031" class="edge">
<title>Node3&#45;&gt;Node31</title>
<g id="a_edge50_Node000003_Node000031"><a xlink:title=" ">
<path fill="none" stroke="#63b8ff" d="M1301.03,-236.44C1347.37,-224.94 1429.72,-204.51 1480.47,-191.92"/>
<polygon fill="#63b8ff" stroke="#63b8ff" points="1481.31,-195.32 1490.18,-189.51 1479.63,-188.52 1481.31,-195.32"/>
</a>
</g>
</g>
<!-- Node32 -->
<g id="Node000032" class="node">
<title>Node32</title>
<g id="a_Node000032"><a xlink:title=" ">
<polygon fill="#e0e0e0" stroke="#999999" points="1678.5,-189.5 1600.5,-189.5 1600.5,-170.5 1678.5,-170.5 1678.5,-189.5"/>
<text text-anchor="middle" x="1639.5" y="-177.5" font-family="Helvetica,sans-Serif" font-size="10.00">comp_decl.h</text>
</a>
</g>
</g>
<!-- Node3&#45;&gt;Node32 -->
<g id="edge51_Node000003_Node000032" class="edge">
<title>Node3&#45;&gt;Node32</title>
<g id="a_edge51_Node000003_Node000032"><a xlink:title=" ">
<path fill="none" stroke="#63b8ff" d="M1309.68,-240.19C1372.26,-232.8 1491.6,-217.15 1591.5,-195 1595.15,-194.19 1598.92,-193.26 1602.68,-192.27"/>
<polygon fill="#63b8ff" stroke="#63b8ff" points="1603.8,-195.59 1612.5,-189.55 1601.93,-188.85 1603.8,-195.59"/>
</a>
</g>
</g>
<!-- Node33 -->
<g id="Node000033" class="node">
<title>Node33</title>
<g id="a_Node000033"><a xlink:title=" ">
<polygon fill="#e0e0e0" stroke="#999999" points="1804.5,-189.5 1696.5,-189.5 1696.5,-170.5 1804.5,-170.5 1804.5,-189.5"/>
<text text-anchor="middle" x="1750.5" y="-177.5" font-family="Helvetica,sans-Serif" font-size="10.00">info_loaded_decl.h</text>
</a>
</g>
</g>
<!-- Node3&#45;&gt;Node33 -->
<g id="edge52_Node000003_Node000033" class="edge">
<title>Node3&#45;&gt;Node33</title>
<g id="a_edge52_Node000003_Node000033"><a xlink:title=" ">
<path fill="none" stroke="#63b8ff" d="M1309.74,-241.31C1386.24,-234.46 1550.36,-218.32 1687.5,-195 1693.23,-194.03 1699.23,-192.87 1705.15,-191.65"/>
<polygon fill="#63b8ff" stroke="#63b8ff" points="1705.93,-195.06 1714.97,-189.55 1704.46,-188.22 1705.93,-195.06"/>
</a>
</g>
</g>
<!-- Node34 -->
<g id="Node000034" class="node">
<title>Node34</title>
<g id="a_Node000034"><a xlink:title=" ">
<polygon fill="#e0e0e0" stroke="#999999" points="1962.5,-189.5 1822.5,-189.5 1822.5,-170.5 1962.5,-170.5 1962.5,-189.5"/>
<text text-anchor="middle" x="1892.5" y="-177.5" font-family="Helvetica,sans-Serif" font-size="10.00">device_mesh_info_decl.h</text>
</a>
</g>
</g>
<!-- Node3&#45;&gt;Node34 -->
<g id="edge53_Node000003_Node000034" class="edge">
<title>Node3&#45;&gt;Node34</title>
<g id="a_edge53_Node000003_Node000034"><a xlink:title=" ">
<path fill="none" stroke="#63b8ff" d="M1309.54,-242.3C1402.05,-236.24 1626.6,-220.06 1813.5,-195 1821.55,-193.92 1830.03,-192.61 1838.32,-191.22"/>
<polygon fill="#63b8ff" stroke="#63b8ff" points="1839.05,-194.65 1848.31,-189.51 1837.87,-187.75 1839.05,-194.65"/>
</a>
</g>
</g>
<!-- Node35 -->
<g id="Node000035" class="node">
<title>Node35</title>
<g id="a_Node000035"><a xlink:title=" ">
<polygon fill="#e0e0e0" stroke="#999999" points="2058,-189.5 1981,-189.5 1981,-170.5 2058,-170.5 2058,-189.5"/>
<text text-anchor="middle" x="2019.5" y="-177.5" font-family="Helvetica,sans-Serif" font-size="10.00">array_decl.h</text>
</a>
</g>
</g>
<!-- Node3&#45;&gt;Node35 -->
<g id="edge54_Node000003_Node000035" class="edge">
<title>Node3&#45;&gt;Node35</title>
<g id="a_edge54_Node000003_Node000035"><a xlink:title=" ">
<path fill="none" stroke="#63b8ff" d="M1309.81,-245.12C1420.77,-244.74 1723.9,-239.36 1971.5,-195 1975.68,-194.25 1980.02,-193.28 1984.3,-192.19"/>
<polygon fill="#63b8ff" stroke="#63b8ff" points="1985.36,-195.53 1994.08,-189.51 1983.51,-188.78 1985.36,-195.53"/>
</a>
</g>
</g>
<!-- Node36 -->
<g id="Node000036" class="node">
<title>Node36</title>
<g id="a_Node000036"><a xlink:title=" ">
<polygon fill="#e0e0e0" stroke="#999999" points="2152.5,-189.5 2076.5,-189.5 2076.5,-170.5 2152.5,-170.5 2152.5,-189.5"/>
<text text-anchor="middle" x="2114.5" y="-177.5" font-family="Helvetica,sans-Serif" font-size="10.00">input_decl.h</text>
</a>
</g>
</g>
<!-- Node3&#45;&gt;Node36 -->
<g id="edge55_Node000003_Node000036" class="edge">
<title>Node3&#45;&gt;Node36</title>
<g id="a_edge55_Node000003_Node000036"><a xlink:title=" ">
<path fill="none" stroke="#63b8ff" d="M1309.7,-243.6C1454.21,-238.7 1919.86,-221.24 2067.5,-195 2071.44,-194.3 2075.52,-193.38 2079.56,-192.36"/>
<polygon fill="#63b8ff" stroke="#63b8ff" points="2080.69,-195.67 2089.39,-189.63 2078.81,-188.93 2080.69,-195.67"/>
</a>
</g>
</g>
<!-- Node37 -->
<g id="Node000037" class="node">
<title>Node37</title>
<g id="a_Node000037"><a xlink:title=" ">
<polygon fill="#e0e0e0" stroke="#999999" points="2294,-195 2171,-195 2171,-165 2294,-165 2294,-195"/>
<text text-anchor="start" x="2179" y="-183" font-family="Helvetica,sans-Serif" font-size="10.00">scalar_reduce_buffers</text>
<text text-anchor="middle" x="2232.5" y="-172" font-family="Helvetica,sans-Serif" font-size="10.00">_in_vba.h</text>
</a>
</g>
</g>
<!-- Node3&#45;&gt;Node37 -->
<g id="edge56_Node000003_Node000037" class="edge">
<title>Node3&#45;&gt;Node37</title>
<g id="a_edge56_Node000003_Node000037"><a xlink:title=" ">
<path fill="none" stroke="#63b8ff" d="M1309.54,-244.71C1437.63,-243.4 1827.6,-236.17 2160.3,-195.02"/>
<polygon fill="#63b8ff" stroke="#63b8ff" points="2161.14,-198.44 2170.63,-193.73 2160.27,-191.49 2161.14,-198.44"/>
</a>
</g>
</g>
<!-- Node38 -->
<g id="Node000038" class="node">
<title>Node38</title>
<g id="a_Node000038"><a xlink:title=" ">
<polygon fill="#e0e0e0" stroke="#999999" points="2446.5,-195 2312.5,-195 2312.5,-165 2446.5,-165 2446.5,-195"/>
<text text-anchor="start" x="2320.5" y="-183" font-family="Helvetica,sans-Serif" font-size="10.00">load_and_store_uniform</text>
<text text-anchor="middle" x="2379.5" y="-172" font-family="Helvetica,sans-Serif" font-size="10.00">_header.h</text>
</a>
</g>
</g>
<!-- Node3&#45;&gt;Node38 -->
<g id="edge57_Node000003_Node000038" class="edge">
<title>Node3&#45;&gt;Node38</title>
<g id="a_edge57_Node000003_Node000038"><a xlink:title=" ">
<path fill="none" stroke="#63b8ff" d="M1309.64,-244.99C1450.82,-244.5 1911.91,-239.47 2302.36,-195.02"/>
<polygon fill="#63b8ff" stroke="#63b8ff" points="2302.9,-198.48 2312.44,-193.86 2302.1,-191.52 2302.9,-198.48"/>
</a>
</g>
</g>
<!-- Node6 -->
<g id="Node000006" class="node">
<title>Node6</title>
<g id="a_Node000006"><a xlink:href="acreal_8h.html" target="_top" xlink:title=" ">
<polygon fill="white" stroke="#666666" points="534.5,-74 478.5,-74 478.5,-55 534.5,-55 534.5,-74"/>
<text text-anchor="middle" x="506.5" y="-62" font-family="Helvetica,sans-Serif" font-size="10.00">acreal.h</text>
</a>
</g>
</g>
<!-- Node5&#45;&gt;Node6 -->
<g id="edge6_Node000005_Node000006" class="edge">
<title>Node5&#45;&gt;Node6</title>
<g id="a_edge6_Node000005_Node000006"><a xlink:title=" ">
<path fill="none" stroke="#63b8ff" d="M543.49,-170.47C537.04,-152.15 521.72,-108.68 512.95,-83.81"/>
<polygon fill="#63b8ff" stroke="#63b8ff" points="516.17,-82.4 509.54,-74.13 509.56,-84.72 516.17,-82.4"/>
</a>
</g>
</g>
<!-- Node5&#45;&gt;Node7 -->
<g id="edge7_Node000005_Node000007" class="edge">
<title>Node5&#45;&gt;Node7</title>
<g id="a_edge7_Node000005_Node000007"><a xlink:title=" ">
<path fill="none" stroke="#63b8ff" d="M550.78,-170.47C560.07,-151.98 582.21,-107.9 594.64,-83.14"/>
<polygon fill="#63b8ff" stroke="#63b8ff" points="597.81,-84.64 599.17,-74.13 591.55,-81.5 597.81,-84.64"/>
</a>
</g>
</g>
<!-- Node10 -->
<g id="Node000010" class="node">
<title>Node10</title>
<g id="a_Node000010"><a xlink:href="host__datatypes_8h.html" target="_top" xlink:title=" ">
<polygon fill="white" stroke="#666666" points="723,-129 622,-129 622,-110 723,-110 723,-129"/>
<text text-anchor="middle" x="672.5" y="-117" font-family="Helvetica,sans-Serif" font-size="10.00">host_datatypes.h</text>
</a>
</g>
</g>
<!-- Node5&#45;&gt;Node10 -->
<g id="edge10_Node000005_Node000010" class="edge">
<title>Node5&#45;&gt;Node10</title>
<g id="a_edge10_Node000005_Node000010"><a xlink:title=" ">
<path fill="none" stroke="#63b8ff" d="M564.82,-170.49C585.91,-160.7 620.76,-144.52 645.08,-133.23"/>
<polygon fill="#63b8ff" stroke="#63b8ff" points="646.56,-136.4 654.16,-129.02 643.61,-130.05 646.56,-136.4"/>
</a>
</g>
</g>
<!-- Node8 -->
<g id="Node000008" class="node">
<title>Node8</title>
<g id="a_Node000008"><a xlink:title=" ">
<polygon fill="#e0e0e0" stroke="#999999" points="369,-19 256,-19 256,0 369,0 369,-19"/>
<text text-anchor="middle" x="312.5" y="-7" font-family="Helvetica,sans-Serif" font-size="10.00">cuda_runtime_api.h</text>
</a>
</g>
</g>
<!-- Node7&#45;&gt;Node8 -->
<g id="edge8_Node000007_Node000008" class="edge">
<title>Node7&#45;&gt;Node8</title>
<g id="a_edge8_Node000007_Node000008"><a xlink:title=" ">
<path fill="none" stroke="#63b8ff" d="M556.75,-54.98C505.78,-45.7 424.19,-30.84 369.51,-20.88"/>
<polygon fill="#63b8ff" stroke="#63b8ff" points="370.09,-17.43 359.62,-19.08 368.83,-24.32 370.09,-17.43"/>
</a>
</g>
</g>
<!-- Node9 -->
<g id="Node000009" class="node">
<title>Node9</title>
<g id="a_Node000009"><a xlink:title=" ">
<polygon fill="#e0e0e0" stroke="#999999" points="641.5,-19 565.5,-19 565.5,0 641.5,0 641.5,-19"/>
<text text-anchor="middle" x="603.5" y="-7" font-family="Helvetica,sans-Serif" font-size="10.00">cuda_fp16.h</text>
</a>
</g>
</g>
<!-- Node7&#45;&gt;Node9 -->
<g id="edge9_Node000007_Node000009" class="edge">
<title>Node7&#45;&gt;Node9</title>
<g id="a_edge9_Node000007_Node000009"><a xlink:title=" ">
<path fill="none" stroke="#63b8ff" d="M603.5,-54.75C603.5,-47.8 603.5,-37.85 603.5,-29.13"/>
<polygon fill="#63b8ff" stroke="#63b8ff" points="607,-29.09 603.5,-19.09 600,-29.09 607,-29.09"/>
</a>
</g>
</g>
<!-- Node10&#45;&gt;Node2 -->
<g id="edge11_Node000010_Node000002" class="edge">
<title>Node10&#45;&gt;Node2</title>
<g id="a_edge11_Node000010_Node000002"><a xlink:title=" ">
<path fill="none" stroke="#63b8ff" d="M723.03,-115.86C757.98,-114.08 805.56,-111.74 847.5,-110 1337.55,-89.63 1932.77,-71.52 2093.71,-66.73"/>
<polygon fill="#63b8ff" stroke="#63b8ff" points="2094.22,-70.22 2104.11,-66.42 2094.01,-63.22 2094.22,-70.22"/>
</a>
</g>
</g>
<!-- Node10&#45;&gt;Node6 -->
<g id="edge13_Node000010_Node000006" class="edge">
<title>Node10&#45;&gt;Node6</title>
<g id="a_edge13_Node000010_Node000006"><a xlink:title=" ">
<path fill="none" stroke="#63b8ff" d="M645.83,-109.98C617.96,-101.09 574.05,-87.07 542.98,-77.15"/>
<polygon fill="#63b8ff" stroke="#63b8ff" points="543.97,-73.79 533.38,-74.08 541.84,-80.46 543.97,-73.79"/>
</a>
</g>
</g>
<!-- Node10&#45;&gt;Node7 -->
<g id="edge15_Node000010_Node000007" class="edge">
<title>Node10&#45;&gt;Node7</title>
<g id="a_edge15_Node000010_Node000007"><a xlink:title=" ">
<path fill="none" stroke="#63b8ff" d="M661.41,-109.98C651.01,-102 635.24,-89.88 622.78,-80.31"/>
<polygon fill="#63b8ff" stroke="#63b8ff" points="624.85,-77.49 614.79,-74.17 620.59,-83.04 624.85,-77.49"/>
</a>
</g>
</g>
<!-- Node11 -->
<g id="Node000011" class="node">
<title>Node11</title>
<g id="a_Node000011"><a xlink:title=" ">
<polygon fill="#e0e0e0" stroke="#999999" points="855.5,-74 799.5,-74 799.5,-55 855.5,-55 855.5,-74"/>
<text text-anchor="middle" x="827.5" y="-62" font-family="Helvetica,sans-Serif" font-size="10.00">stddef.h</text>
</a>
</g>
</g>
<!-- Node10&#45;&gt;Node11 -->
<g id="edge12_Node000010_Node000011" class="edge">
<title>Node10&#45;&gt;Node11</title>
<g id="a_edge12_Node000010_Node000011"><a xlink:title=" ">
<path fill="none" stroke="#63b8ff" d="M697.4,-109.98C723.2,-101.16 763.72,-87.31 792.68,-77.41"/>
<polygon fill="#63b8ff" stroke="#63b8ff" points="794.07,-80.63 802.4,-74.08 791.81,-74.01 794.07,-80.63"/>
</a>
</g>
</g>
<!-- Node10&#45;&gt;Node12 -->
<g id="edge14_Node000010_Node000012" class="edge">
<title>Node10&#45;&gt;Node12</title>
<g id="a_edge14_Node000010_Node000012"><a xlink:title=" ">
<path fill="none" stroke="#63b8ff" d="M621.88,-114.21C506.96,-104.46 226.88,-80.71 105.35,-70.41"/>
<polygon fill="#63b8ff" stroke="#63b8ff" points="105.4,-66.9 95.14,-69.54 104.81,-73.87 105.4,-66.9"/>
</a>
</g>
</g>
<!-- Node13 -->
<g id="Node000013" class="node">
<title>Node13</title>
<g id="a_Node000013"><a xlink:title=" ">
<polygon fill="#e0e0e0" stroke="#999999" points="768,-74 673,-74 673,-55 768,-55 768,-74"/>
<text text-anchor="middle" x="720.5" y="-62" font-family="Helvetica,sans-Serif" font-size="10.00">user_typedefs.h</text>
</a>
</g>
</g>
<!-- Node10&#45;&gt;Node13 -->
<g id="edge16_Node000010_Node000013" class="edge">
<title>Node10&#45;&gt;Node13</title>
<g id="a_edge16_Node000010_Node000013"><a xlink:title=" ">
<path fill="none" stroke="#63b8ff" d="M680.43,-109.75C687.35,-102.11 697.57,-90.82 705.95,-81.56"/>
<polygon fill="#63b8ff" stroke="#63b8ff" points="708.6,-83.85 712.72,-74.09 703.41,-79.15 708.6,-83.85"/>
</a>
</g>
</g>
<!-- Node14&#45;&gt;Node6 -->
<g id="edge20_Node000014_Node000006" class="edge">
<title>Node14&#45;&gt;Node6</title>
<g id="a_edge20_Node000014_Node000006"><a xlink:title=" ">
<path fill="none" stroke="#63b8ff" d="M647.08,-170.47C621.33,-151.24 558.51,-104.33 526.28,-80.27"/>
<polygon fill="#63b8ff" stroke="#63b8ff" points="528.16,-77.31 518.06,-74.13 523.98,-82.92 528.16,-77.31"/>
</a>
</g>
</g>
<!-- Node14&#45;&gt;Node7 -->
<g id="edge21_Node000014_Node000007" class="edge">
<title>Node14&#45;&gt;Node7</title>
<g id="a_edge21_Node000014_Node000007"><a xlink:title=" ">
<path fill="none" stroke="#63b8ff" d="M680.92,-170.37C708.74,-158.35 750.45,-135.17 732.5,-110 722.93,-96.58 685.67,-84.61 653.64,-76.47"/>
<polygon fill="#63b8ff" stroke="#63b8ff" points="654.45,-73.06 643.9,-74.07 652.78,-79.86 654.45,-73.06"/>
</a>
</g>
</g>
<!-- Node14&#45;&gt;Node10 -->
<g id="edge22_Node000014_Node000010" class="edge">
<title>Node14&#45;&gt;Node10</title>
<g id="a_edge22_Node000014_Node000010"><a xlink:title=" ">
<path fill="none" stroke="#63b8ff" d="M660.57,-170.37C662.53,-162.16 665.55,-149.54 668.06,-139.05"/>
<polygon fill="#63b8ff" stroke="#63b8ff" points="671.5,-139.71 670.43,-129.17 664.69,-138.08 671.5,-139.71"/>
</a>
</g>
</g>
<!-- Node14&#45;&gt;Node11 -->
<g id="edge19_Node000014_Node000011" class="edge">
<title>Node14&#45;&gt;Node11</title>
<g id="a_edge19_Node000014_Node000011"><a xlink:title=" ">
<path fill="none" stroke="#63b8ff" d="M675.93,-170.44C694.45,-161.08 724.32,-145.26 748.5,-129 770.68,-114.09 794.34,-94.52 809.93,-81.07"/>
<polygon fill="#63b8ff" stroke="#63b8ff" points="812.46,-83.5 817.7,-74.29 807.86,-78.23 812.46,-83.5"/>
</a>
</g>
</g>
<!-- Node15&#45;&gt;Node6 -->
<g id="edge26_Node000015_Node000006" class="edge">
<title>Node15&#45;&gt;Node6</title>
<g id="a_edge26_Node000015_Node000006"><a xlink:title=" ">
<path fill="none" stroke="#63b8ff" d="M316.7,-170.46C269.74,-156.92 183.57,-131.79 181.5,-129 176.47,-122.22 175.95,-116.36 181.5,-110 218.29,-67.84 390.09,-64.18 467.96,-64.76"/>
<polygon fill="#63b8ff" stroke="#63b8ff" points="468.27,-68.26 478.3,-64.87 468.34,-61.26 468.27,-68.26"/>
</a>
</g>
</g>
<!-- Node15&#45;&gt;Node7 -->
<g id="edge28_Node000015_Node000007" class="edge">
<title>Node15&#45;&gt;Node7</title>
<g id="a_edge28_Node000015_Node000007"><a xlink:title=" ">
<path fill="none" stroke="#63b8ff" d="M359.22,-170.4C380.49,-156.3 424.92,-128.06 465.5,-110 496.43,-96.24 532.95,-84.65 560.65,-76.76"/>
<polygon fill="#63b8ff" stroke="#63b8ff" points="561.74,-80.09 570.42,-74.02 559.85,-73.34 561.74,-80.09"/>
</a>
</g>
</g>
<!-- Node15&#45;&gt;Node8 -->
<g id="edge30_Node000015_Node000008" class="edge">
<title>Node15&#45;&gt;Node8</title>
<g id="a_edge30_Node000015_Node000008"><a xlink:title=" ">
<path fill="none" stroke="#63b8ff" d="M316.21,-170.49C266.89,-156.61 174.6,-130.46 173.5,-129 138.59,-82.57 224.82,-41.91 276.69,-22.54"/>
<polygon fill="#63b8ff" stroke="#63b8ff" points="278.05,-25.77 286.25,-19.06 275.66,-19.19 278.05,-25.77"/>
</a>
</g>
</g>
<!-- Node15&#45;&gt;Node10 -->
<g id="edge29_Node000015_Node000010" class="edge">
<title>Node15&#45;&gt;Node10</title>
<g id="a_edge29_Node000015_Node000010"><a xlink:title=" ">
<path fill="none" stroke="#63b8ff" d="M383.58,-172.35C440.09,-162.21 548.23,-142.8 614.98,-130.82"/>
<polygon fill="#63b8ff" stroke="#63b8ff" points="615.7,-134.25 624.93,-129.04 614.46,-127.36 615.7,-134.25"/>
</a>
</g>
</g>
<!-- Node15&#45;&gt;Node12 -->
<g id="edge27_Node000015_Node000012" class="edge">
<title>Node15&#45;&gt;Node12</title>
<g id="a_edge27_Node000015_Node000012"><a xlink:title=" ">
<path fill="none" stroke="#63b8ff" d="M316.93,-170.47C309.93,-168.57 302.47,-166.63 295.5,-165 213.51,-145.84 183.62,-168.94 109.5,-129 88.61,-117.74 70.41,-97.04 59.23,-82.34"/>
<polygon fill="#63b8ff" stroke="#63b8ff" points="61.94,-80.11 53.21,-74.1 56.28,-84.24 61.94,-80.11"/>
</a>
</g>
</g>
<!-- Node16 -->
<g id="Node000016" class="node">
<title>Node16</title>
<g id="a_Node000016"><a xlink:title=" ">
<polygon fill="#e0e0e0" stroke="#999999" points="413,-129 366,-129 366,-110 413,-110 413,-129"/>
<text text-anchor="middle" x="389.5" y="-117" font-family="Helvetica,sans-Serif" font-size="10.00">float.h</text>
</a>
</g>
</g>
<!-- Node15&#45;&gt;Node16 -->
<g id="edge24_Node000015_Node000016" class="edge">
<title>Node15&#45;&gt;Node16</title>
<g id="a_edge24_Node000015_Node000016"><a xlink:title=" ">
<path fill="none" stroke="#63b8ff" d="M352.84,-170.37C359.2,-161.73 369.14,-148.2 377.07,-137.42"/>
<polygon fill="#63b8ff" stroke="#63b8ff" points="380.03,-139.3 383.13,-129.17 374.39,-135.15 380.03,-139.3"/>
</a>
</g>
</g>
<!-- Node17 -->
<g id="Node000017" class="node">
<title>Node17</title>
<g id="a_Node000017"><a xlink:title=" ">
<polygon fill="#e0e0e0" stroke="#999999" points="241,-129 190,-129 190,-110 241,-110 241,-129"/>
<text text-anchor="middle" x="215.5" y="-117" font-family="Helvetica,sans-Serif" font-size="10.00">math.h</text>
</a>
</g>
</g>
<!-- Node15&#45;&gt;Node17 -->
<g id="edge25_Node000015_Node000017" class="edge">
<title>Node15&#45;&gt;Node17</title>
<g id="a_edge25_Node000015_Node000017"><a xlink:title=" ">
<path fill="none" stroke="#63b8ff" d="M327.45,-170.49C305.53,-160.7 269.29,-144.52 244,-133.23"/>
<polygon fill="#63b8ff" stroke="#63b8ff" points="245.13,-129.9 234.57,-129.02 242.28,-136.29 245.13,-129.9"/>
</a>
</g>
</g>
<!-- Node18 -->
<g id="Node000018" class="node">
<title>Node18</title>
<g id="a_Node000018"><a xlink:title=" ">
<polygon fill="#e0e0e0" stroke="#999999" points="348,-129 259,-129 259,-110 348,-110 348,-129"/>
<text text-anchor="middle" x="303.5" y="-117" font-family="Helvetica,sans-Serif" font-size="10.00">vector_types.h</text>
</a>
</g>
</g>
<!-- Node15&#45;&gt;Node18 -->
<g id="edge31_Node000015_Node000018" class="edge">
<title>Node15&#45;&gt;Node18</title>
<g id="a_edge31_Node000015_Node000018"><a xlink:title=" ">
<path fill="none" stroke="#63b8ff" d="M340.16,-170.37C333.8,-161.73 323.86,-148.2 315.93,-137.42"/>
<polygon fill="#63b8ff" stroke="#63b8ff" points="318.61,-135.15 309.87,-129.17 312.97,-139.3 318.61,-135.15"/>
</a>
</g>
</g>
<!-- Node19&#45;&gt;Node2 -->
<g id="edge34_Node000019_Node000002" class="edge">
<title>Node19&#45;&gt;Node2</title>
<g id="a_edge34_Node000019_Node000002"><a xlink:title=" ">
<path fill="none" stroke="#63b8ff" d="M779.15,-170.37C784.67,-168.28 790.73,-166.28 796.5,-165 925.96,-136.33 1883.06,-80.02 2094.32,-67.85"/>
<polygon fill="#63b8ff" stroke="#63b8ff" points="2094.59,-71.34 2104.37,-67.28 2094.18,-64.36 2094.59,-71.34"/>
</a>
</g>
</g>
<!-- Node19&#45;&gt;Node4 -->
<g id="edge37_Node000019_Node000004" class="edge">
<title>Node19&#45;&gt;Node4</title>
<g id="a_edge37_Node000019_Node000004"><a xlink:title=" ">
<path fill="none" stroke="#63b8ff" d="M778.73,-170.36C784.35,-168.21 790.57,-166.19 796.5,-165 862.26,-151.84 1895.95,-126.3 2101.22,-121.34"/>
<polygon fill="#63b8ff" stroke="#63b8ff" points="2101.52,-124.84 2111.43,-121.1 2101.35,-117.84 2101.52,-124.84"/>
</a>
</g>
</g>
<!-- Node19&#45;&gt;Node7 -->
<g id="edge40_Node000019_Node000007" class="edge">
<title>Node19&#45;&gt;Node7</title>
<g id="a_edge40_Node000019_Node000007"><a xlink:title=" ">
<path fill="none" stroke="#63b8ff" d="M760.8,-170.16C762.4,-155.74 763.3,-127.03 748.5,-110 736.46,-96.15 694.54,-84.19 658.85,-76.17"/>
<polygon fill="#63b8ff" stroke="#63b8ff" points="659.5,-72.72 648.98,-74.01 658,-79.56 659.5,-72.72"/>
</a>
</g>
</g>
<!-- Node19&#45;&gt;Node10 -->
<g id="edge41_Node000019_Node000010" class="edge">
<title>Node19&#45;&gt;Node10</title>
<g id="a_edge41_Node000019_Node000010"><a xlink:title=" ">
<path fill="none" stroke="#63b8ff" d="M746.66,-170.37C732.78,-161.04 710.43,-146.01 693.89,-134.88"/>
<polygon fill="#63b8ff" stroke="#63b8ff" points="695.64,-131.84 685.39,-129.17 691.74,-137.65 695.64,-131.84"/>
</a>
</g>
</g>
<!-- Node19&#45;&gt;Node11 -->
<g id="edge35_Node000019_Node000011" class="edge">
<title>Node19&#45;&gt;Node11</title>
<g id="a_edge35_Node000019_Node000011"><a xlink:title=" ">
<path fill="none" stroke="#63b8ff" d="M779.59,-170.47C785,-168.42 790.91,-166.43 796.5,-165 852.8,-150.63 1017.34,-172.83 1055.5,-129 1061.04,-122.63 1060.87,-116.52 1055.5,-110 1031.92,-81.37 924.5,-70.91 865.91,-67.29"/>
<polygon fill="#63b8ff" stroke="#63b8ff" points="866.09,-63.79 855.91,-66.71 865.69,-70.78 866.09,-63.79"/>
</a>
</g>
</g>
<!-- Node20 -->
<g id="Node000020" class="node">
<title>Node20</title>
<g id="a_Node000020"><a xlink:title=" ">
<polygon fill="#e0e0e0" stroke="#999999" points="909,-129 856,-129 856,-110 909,-110 909,-129"/>
<text text-anchor="middle" x="882.5" y="-117" font-family="Helvetica,sans-Serif" font-size="10.00">stdint.h</text>
</a>
</g>
</g>
<!-- Node19&#45;&gt;Node20 -->
<g id="edge36_Node000019_Node000020" class="edge">
<title>Node19&#45;&gt;Node20</title>
<g id="a_edge36_Node000019_Node000020"><a xlink:title=" ">
<path fill="none" stroke="#63b8ff" d="M777.39,-170.49C797.88,-160.75 831.69,-144.66 855.42,-133.38"/>
<polygon fill="#63b8ff" stroke="#63b8ff" points="857.07,-136.47 864.59,-129.02 854.06,-130.15 857.07,-136.47"/>
</a>
</g>
</g>
<!-- Node21 -->
<g id="Node000021" class="node">
<title>Node21</title>
<g id="a_Node000021"><a xlink:title=" ">
<polygon fill="#e0e0e0" stroke="#999999" points="980,-129 927,-129 927,-110 980,-110 980,-129"/>
<text text-anchor="middle" x="953.5" y="-117" font-family="Helvetica,sans-Serif" font-size="10.00">stdlib.h</text>
</a>
</g>
</g>
<!-- Node19&#45;&gt;Node21 -->
<g id="edge38_Node000019_Node000021" class="edge">
<title>Node19&#45;&gt;Node21</title>
<g id="a_edge38_Node000019_Node000021"><a xlink:title=" ">
<path fill="none" stroke="#63b8ff" d="M781.3,-170.4C786.27,-168.54 791.54,-166.64 796.5,-165 837.4,-151.49 885.1,-138.33 917.09,-129.87"/>
<polygon fill="#63b8ff" stroke="#63b8ff" points="918.12,-133.22 926.9,-127.3 916.34,-126.45 918.12,-133.22"/>
</a>
</g>
</g>
<!-- Node22 -->
<g id="Node000022" class="node">
<title>Node22</title>
<g id="a_Node000022"><a xlink:title=" ">
<polygon fill="#e0e0e0" stroke="#999999" points="1046.5,-129 998.5,-129 998.5,-110 1046.5,-110 1046.5,-129"/>
<text text-anchor="middle" x="1022.5" y="-117" font-family="Helvetica,sans-Serif" font-size="10.00">time.h</text>
</a>
</g>
</g>
<!-- Node19&#45;&gt;Node22 -->
<g id="edge39_Node000019_Node000022" class="edge">
<title>Node19&#45;&gt;Node22</title>
<g id="a_edge39_Node000019_Node000022"><a xlink:title=" ">
<path fill="none" stroke="#63b8ff" d="M780.03,-170.49C785.33,-168.5 791.08,-166.52 796.5,-165 877.49,-142.32 902.51,-147.47 988.47,-129.08"/>
<polygon fill="#63b8ff" stroke="#63b8ff" points="989.37,-132.46 998.39,-126.91 987.88,-125.63 989.37,-132.46"/>
</a>
</g>
</g>
</g>
</svg>

<g id="navigator" transform="translate(0 0)" fill="#404254">
  <rect fill="#f2f5e9" fill-opacity="0.5" stroke="#606060" stroke-width=".5" x="0" y="0" width="60" height="60"/>
  <use id="zoomplus" xlink:href="#zoomPlus" x="17" y="9" onmousedown="handleZoom(evt,'in')"/>
  <use id="zoomminus" xlink:href="#zoomMin" x="42" y="9" onmousedown="handleZoom(evt,'out')"/>
  <use id="reset" xlink:href="#resetDef" x="30" y="36" onmousedown="handleReset()"/>
   <use id="arrowup" xlink:href="#arrowUp" x="0" y="0" onmousedown="handlePan(0,-1)"/>
  <use id="arrowright" xlink:href="#arrowRight" x="0" y="0" onmousedown="handlePan(1,0)"/>
  <use id="arrowdown" xlink:href="#arrowDown" x="0" y="0" onmousedown="handlePan(0,1)"/>
  <use id="arrowleft" xlink:href="#arrowLeft" x="0" y="0" onmousedown="handlePan(-1,0)"/>
</g>
<svg viewBox="0 0 15 15" width="100%" height="30px" preserveAspectRatio="xMaxYMin meet">
 <g id="arrow_out" transform="scale(0.3 0.3)">
  <a xlink:href="astaroth__base_8h__incl_org.svg" target="_base">
   <rect id="button" ry="5" rx="5" y="6" x="6" height="38" width="38"
        fill="#f2f5e9" fill-opacity="0.5" stroke="#606060" stroke-width="1.0"/>
   <path id="arrow"
     d="M 11.500037,31.436501 C 11.940474,20.09759 22.043105,11.32322 32.158766,21.979434 L 37.068811,17.246167 C 37.068811,17.246167 37.088388,32 37.088388,32 L 22.160133,31.978069 C 22.160133,31.978069 26.997745,27.140456 26.997745,27.140456 C 18.528582,18.264221 13.291696,25.230495 11.500037,31.436501 z"
     style="fill:#404040;"/>
  </a>
 </g>
</svg>

<style type='text/css'>
<![CDATA[
[data-mouse-over-selected='false'] { opacity: 0.7; }
[data-mouse-over-selected='true']  { opacity: 1.0; }
]]>
</style>
<script type="application/ecmascript"><![CDATA[
document.addEventListener('DOMContentLoaded', (event) => {
  highlightEdges();
  highlightAdjacentNodes();
});
]]></script>
</svg>
