<?xml version="1.0" encoding="UTF-8" standalone="no"?>
<!DOCTYPE svg PUBLIC "-//W3C//DTD SVG 1.1//EN"
 "http://www.w3.org/Graphics/SVG/1.1/DTD/svg11.dtd">
<!-- Generated by graphviz version 2.43.0 (0)
 -->
<!-- Title: include/astaroth_random.h Pages: 1 -->
<svg width="384pt" height="93pt"
 viewBox="0.00 0.00 383.50 93.00" xmlns="http://www.w3.org/2000/svg" xmlns:xlink="http://www.w3.org/1999/xlink">
<g id="graph0" class="graph" transform="scale(1 1) rotate(0) translate(4 89)">
<title>include/astaroth_random.h</title>
<!-- Node1 -->
<g id="Node000001" class="node">
<title>Node1</title>
<g id="a_Node000001"><a xlink:title=" ">
<polygon fill="#999999" stroke="#666666" points="238.5,-85 91.5,-85 91.5,-66 238.5,-66 238.5,-85"/>
<text text-anchor="middle" x="165" y="-73" font-family="Helvetica,sans-Serif" font-size="10.00">include/astaroth_random.h</text>
</a>
</g>
</g>
<!-- Node2 -->
<g id="Node000002" class="node">
<title>Node2</title>
<g id="a_Node000002"><a xlink:href="astaroth__forcing_8cc.html" target="_top" xlink:title="Brief info.">
<polygon fill="white" stroke="#666666" points="98,-30 0,-30 0,0 98,0 98,-30"/>
<text text-anchor="start" x="8" y="-18" font-family="Helvetica,sans-Serif" font-size="10.00">src/utils/astaroth</text>
<text text-anchor="middle" x="49" y="-7" font-family="Helvetica,sans-Serif" font-size="10.00">_forcing.cc</text>
</a>
</g>
</g>
<!-- Node1&#45;&gt;Node2 -->
<g id="edge1_Node000001_Node000002" class="edge">
<title>Node1&#45;&gt;Node2</title>
<g id="a_edge1_Node000001_Node000002"><a xlink:title=" ">
<path fill="none" stroke="#63b8ff" d="M138.88,-61.33C120.46,-52.04 95.81,-39.61 76.99,-30.11"/>
<polygon fill="#63b8ff" stroke="#63b8ff" points="137.38,-64.49 147.88,-65.87 140.53,-58.24 137.38,-64.49"/>
</a>
</g>
</g>
<!-- Node3 -->
<g id="Node000003" class="node">
<title>Node3</title>
<g id="a_Node000003"><a xlink:href="astaroth__random_8cc.html" target="_top" xlink:title=" ">
<polygon fill="white" stroke="#666666" points="214,-30 116,-30 116,0 214,0 214,-30"/>
<text text-anchor="start" x="124" y="-18" font-family="Helvetica,sans-Serif" font-size="10.00">src/utils/astaroth</text>
<text text-anchor="middle" x="165" y="-7" font-family="Helvetica,sans-Serif" font-size="10.00">_random.cc</text>
</a>
</g>
</g>
<!-- Node1&#45;&gt;Node3 -->
<g id="edge2_Node000001_Node000003" class="edge">
<title>Node1&#45;&gt;Node3</title>
<g id="a_edge2_Node000001_Node000003"><a xlink:title=" ">
<path fill="none" stroke="#63b8ff" d="M165,-55.65C165,-47.36 165,-37.78 165,-30.11"/>
<polygon fill="#63b8ff" stroke="#63b8ff" points="161.5,-55.87 165,-65.87 168.5,-55.87 161.5,-55.87"/>
</a>
</g>
</g>
<!-- Node4 -->
<g id="Node000004" class="node">
<title>Node4</title>
<g id="a_Node000004"><a xlink:href="helical__forcing_8cc.html" target="_top" xlink:title=" ">
<polygon fill="white" stroke="#666666" points="375.5,-24.5 232.5,-24.5 232.5,-5.5 375.5,-5.5 375.5,-24.5"/>
<text text-anchor="middle" x="304" y="-12.5" font-family="Helvetica,sans-Serif" font-size="10.00">src/utils/helical_forcing.cc</text>
</a>
</g>
</g>
<!-- Node1&#45;&gt;Node4 -->
<g id="edge3_Node000001_Node000004" class="edge">
<title>Node1&#45;&gt;Node4</title>
<g id="a_edge3_Node000001_Node000004"><a xlink:title=" ">
<path fill="none" stroke="#63b8ff" d="M194.51,-62.08C221.36,-50.78 260.28,-34.4 283.76,-24.52"/>
<polygon fill="#63b8ff" stroke="#63b8ff" points="193.07,-58.89 185.21,-65.99 195.79,-65.34 193.07,-58.89"/>
</a>
</g>
</g>
</g>
</svg>
