<?xml version="1.0" encoding="UTF-8" standalone="no"?>
<!DOCTYPE svg PUBLIC "-//W3C//DTD SVG 1.1//EN"
 "http://www.w3.org/Graphics/SVG/1.1/DTD/svg11.dtd">
<!-- Generated by graphviz version 2.43.0 (0)
 -->
<!-- Title: src/core/astaroth_fortran.cc Pages: 1 -->
<svg width="2640pt" height="434pt"
 viewBox="0.00 0.00 2639.50 434.00" xmlns="http://www.w3.org/2000/svg" xmlns:xlink="http://www.w3.org/1999/xlink">
<g id="graph0" class="graph" transform="scale(1 1) rotate(0) translate(4 430)">
<title>src/core/astaroth_fortran.cc</title>
<!-- Node1 -->
<g id="Node000001" class="node">
<title>Node1</title>
<g id="a_Node000001"><a xlink:title=" ">
<polygon fill="#999999" stroke="#666666" points="2056.5,-426 1906.5,-426 1906.5,-407 2056.5,-407 2056.5,-426"/>
<text text-anchor="middle" x="1981.5" y="-414" font-family="Helvetica,sans-Serif" font-size="10.00">src/core/astaroth_fortran.cc</text>
</a>
</g>
</g>
<!-- Node2 -->
<g id="Node000002" class="node">
<title>Node2</title>
<g id="a_Node000002"><a xlink:href="astaroth__fortran_8h.html" target="_top" xlink:title=" ">
<polygon fill="white" stroke="#666666" points="2033.5,-371 1929.5,-371 1929.5,-352 2033.5,-352 2033.5,-371"/>
<text text-anchor="middle" x="1981.5" y="-359" font-family="Helvetica,sans-Serif" font-size="10.00">astaroth_fortran.h</text>
</a>
</g>
</g>
<!-- Node1&#45;&gt;Node2 -->
<g id="edge1_Node000001_Node000002" class="edge">
<title>Node1&#45;&gt;Node2</title>
<g id="a_edge1_Node000001_Node000002"><a xlink:title=" ">
<path fill="none" stroke="#63b8ff" d="M1981.5,-406.75C1981.5,-399.8 1981.5,-389.85 1981.5,-381.13"/>
<polygon fill="#63b8ff" stroke="#63b8ff" points="1985,-381.09 1981.5,-371.09 1978,-381.09 1985,-381.09"/>
</a>
</g>
</g>
<!-- Node3 -->
<g id="Node000003" class="node">
<title>Node3</title>
<g id="a_Node000003"><a xlink:href="astaroth_8h.html" target="_top" xlink:title=" ">
<polygon fill="white" stroke="#666666" points="1934.5,-316 1868.5,-316 1868.5,-297 1934.5,-297 1934.5,-316"/>
<text text-anchor="middle" x="1901.5" y="-304" font-family="Helvetica,sans-Serif" font-size="10.00">astaroth.h</text>
</a>
</g>
</g>
<!-- Node1&#45;&gt;Node3 -->
<g id="edge61_Node000001_Node000003" class="edge">
<title>Node1&#45;&gt;Node3</title>
<g id="a_edge61_Node000001_Node000003"><a xlink:title=" ">
<path fill="none" stroke="#63b8ff" d="M1964.07,-406.88C1950.34,-399.24 1931.7,-386.84 1920.5,-371 1911.05,-357.64 1906.24,-339.53 1903.82,-326.07"/>
<polygon fill="#63b8ff" stroke="#63b8ff" points="1907.27,-325.43 1902.31,-316.06 1900.35,-326.47 1907.27,-325.43"/>
</a>
</g>
</g>
<!-- Node20 -->
<g id="Node000020" class="node">
<title>Node20</title>
<g id="a_Node000020"><a xlink:href="errchk_8h.html" target="_top" xlink:title="Brief info.">
<polygon fill="white" stroke="#666666" points="2457.5,-134.5 2401.5,-134.5 2401.5,-115.5 2457.5,-115.5 2457.5,-134.5"/>
<text text-anchor="middle" x="2429.5" y="-122.5" font-family="Helvetica,sans-Serif" font-size="10.00">errchk.h</text>
</a>
</g>
</g>
<!-- Node1&#45;&gt;Node20 -->
<g id="edge62_Node000001_Node000020" class="edge">
<title>Node1&#45;&gt;Node20</title>
<g id="a_edge62_Node000001_Node000020"><a xlink:title=" ">
<path fill="none" stroke="#63b8ff" d="M2056.73,-409.24C2213.66,-395.17 2561.5,-358.26 2561.5,-307.5 2561.5,-307.5 2561.5,-307.5 2561.5,-250.5 2561.5,-195.32 2499.71,-157.37 2460.68,-138.9"/>
<polygon fill="#63b8ff" stroke="#63b8ff" points="2461.85,-135.59 2451.3,-134.62 2458.95,-141.96 2461.85,-135.59"/>
</a>
</g>
</g>
<!-- Node2&#45;&gt;Node3 -->
<g id="edge2_Node000002_Node000003" class="edge">
<title>Node2&#45;&gt;Node3</title>
<g id="a_edge2_Node000002_Node000003"><a xlink:title=" ">
<path fill="none" stroke="#63b8ff" d="M1968.65,-351.98C1956.36,-343.84 1937.59,-331.41 1923.02,-321.76"/>
<polygon fill="#63b8ff" stroke="#63b8ff" points="1924.86,-318.78 1914.59,-316.17 1920.99,-324.61 1924.86,-318.78"/>
</a>
</g>
</g>
<!-- Node4 -->
<g id="Node000004" class="node">
<title>Node4</title>
<g id="a_Node000004"><a xlink:href="astaroth__base_8h.html" target="_top" xlink:title=" ">
<polygon fill="white" stroke="#666666" points="2257,-261 2162,-261 2162,-242 2257,-242 2257,-261"/>
<text text-anchor="middle" x="2209.5" y="-249" font-family="Helvetica,sans-Serif" font-size="10.00">astaroth_base.h</text>
</a>
</g>
</g>
<!-- Node3&#45;&gt;Node4 -->
<g id="edge3_Node000003_Node000004" class="edge">
<title>Node3&#45;&gt;Node4</title>
<g id="a_edge3_Node000003_Node000004"><a xlink:title=" ">
<path fill="none" stroke="#63b8ff" d="M1934.75,-299.78C1986.73,-290.83 2087.87,-273.43 2151.88,-262.42"/>
<polygon fill="#63b8ff" stroke="#63b8ff" points="2152.56,-265.85 2161.82,-260.7 2151.37,-258.95 2152.56,-265.85"/>
</a>
</g>
</g>
<!-- Node44 -->
<g id="Node000044" class="node">
<title>Node44</title>
<g id="a_Node000044"><a xlink:href="astaroth__grid_8h.html" target="_top" xlink:title=" ">
<polygon fill="white" stroke="#666666" points="2365.5,-261 2275.5,-261 2275.5,-242 2365.5,-242 2365.5,-261"/>
<text text-anchor="middle" x="2320.5" y="-249" font-family="Helvetica,sans-Serif" font-size="10.00">astaroth_grid.h</text>
</a>
</g>
</g>
<!-- Node3&#45;&gt;Node44 -->
<g id="edge49_Node000003_Node000044" class="edge">
<title>Node3&#45;&gt;Node44</title>
<g id="a_edge49_Node000003_Node000044"><a xlink:title=" ">
<path fill="none" stroke="#63b8ff" d="M1934.77,-301.84C1997.35,-294.86 2137.14,-278.88 2265.43,-261.11"/>
<polygon fill="#63b8ff" stroke="#63b8ff" points="2266.01,-264.56 2275.44,-259.71 2265.05,-257.63 2266.01,-264.56"/>
</a>
</g>
</g>
<!-- Node45 -->
<g id="Node000045" class="node">
<title>Node45</title>
<g id="a_Node000045"><a xlink:href="astaroth__node_8h.html" target="_top" xlink:title=" ">
<polygon fill="white" stroke="#666666" points="2479,-261 2384,-261 2384,-242 2479,-242 2479,-261"/>
<text text-anchor="middle" x="2431.5" y="-249" font-family="Helvetica,sans-Serif" font-size="10.00">astaroth_node.h</text>
</a>
</g>
</g>
<!-- Node3&#45;&gt;Node45 -->
<g id="edge50_Node000003_Node000045" class="edge">
<title>Node3&#45;&gt;Node45</title>
<g id="a_edge50_Node000003_Node000045"><a xlink:title=" ">
<path fill="none" stroke="#63b8ff" d="M1934.54,-303.01C2010.23,-297.18 2202.22,-281.63 2373.96,-261"/>
<polygon fill="#63b8ff" stroke="#63b8ff" points="2374.43,-264.47 2383.94,-259.79 2373.59,-257.52 2374.43,-264.47"/>
</a>
</g>
</g>
<!-- Node46 -->
<g id="Node000046" class="node">
<title>Node46</title>
<g id="a_Node000046"><a xlink:href="astaroth__device_8h.html" target="_top" xlink:title=" ">
<polygon fill="white" stroke="#666666" points="1133.5,-261 1029.5,-261 1029.5,-242 1133.5,-242 1133.5,-261"/>
<text text-anchor="middle" x="1081.5" y="-249" font-family="Helvetica,sans-Serif" font-size="10.00">astaroth_device.h</text>
</a>
</g>
</g>
<!-- Node3&#45;&gt;Node46 -->
<g id="edge51_Node000003_Node000046" class="edge">
<title>Node3&#45;&gt;Node46</title>
<g id="a_edge51_Node000003_Node000046"><a xlink:title=" ">
<path fill="none" stroke="#63b8ff" d="M1868.13,-304.5C1763.17,-301.14 1430.22,-288.94 1143.88,-261.05"/>
<polygon fill="#63b8ff" stroke="#63b8ff" points="1144,-257.55 1133.71,-260.05 1143.32,-264.52 1144,-257.55"/>
</a>
</g>
</g>
<!-- Node49 -->
<g id="Node000049" class="node">
<title>Node49</title>
<g id="a_Node000049"><a xlink:href="astaroth__legacy_8h.html" target="_top" xlink:title=" ">
<polygon fill="white" stroke="#666666" points="1253.5,-261 1151.5,-261 1151.5,-242 1253.5,-242 1253.5,-261"/>
<text text-anchor="middle" x="1202.5" y="-249" font-family="Helvetica,sans-Serif" font-size="10.00">astaroth_legacy.h</text>
</a>
</g>
</g>
<!-- Node3&#45;&gt;Node49 -->
<g id="edge54_Node000003_Node000049" class="edge">
<title>Node3&#45;&gt;Node49</title>
<g id="a_edge54_Node000003_Node000049"><a xlink:title=" ">
<path fill="none" stroke="#63b8ff" d="M1868.17,-304.02C1774.62,-299.68 1501.52,-285.79 1263.76,-261.05"/>
<polygon fill="#63b8ff" stroke="#63b8ff" points="1263.84,-257.54 1253.53,-259.98 1263.11,-264.51 1263.84,-257.54"/>
</a>
</g>
</g>
<!-- Node50 -->
<g id="Node000050" class="node">
<title>Node50</title>
<g id="a_Node000050"><a xlink:title=" ">
<polygon fill="#e0e0e0" stroke="#999999" points="1411,-261 1272,-261 1272,-242 1411,-242 1411,-261"/>
<text text-anchor="middle" x="1341.5" y="-249" font-family="Helvetica,sans-Serif" font-size="10.00">device_set_input_decls.h</text>
</a>
</g>
</g>
<!-- Node3&#45;&gt;Node50 -->
<g id="edge55_Node000003_Node000050" class="edge">
<title>Node3&#45;&gt;Node50</title>
<g id="a_edge55_Node000003_Node000050"><a xlink:title=" ">
<path fill="none" stroke="#63b8ff" d="M1868.24,-302.6C1791.58,-295.86 1596.27,-278.5 1421.44,-261.08"/>
<polygon fill="#63b8ff" stroke="#63b8ff" points="1421.58,-257.58 1411.28,-260.07 1420.88,-264.54 1421.58,-257.58"/>
</a>
</g>
</g>
<!-- Node51 -->
<g id="Node000051" class="node">
<title>Node51</title>
<g id="a_Node000051"><a xlink:title=" ">
<polygon fill="#e0e0e0" stroke="#999999" points="1575.5,-261 1429.5,-261 1429.5,-242 1575.5,-242 1575.5,-261"/>
<text text-anchor="middle" x="1502.5" y="-249" font-family="Helvetica,sans-Serif" font-size="10.00">device_get_output_decls.h</text>
</a>
</g>
</g>
<!-- Node3&#45;&gt;Node51 -->
<g id="edge56_Node000003_Node000051" class="edge">
<title>Node3&#45;&gt;Node51</title>
<g id="a_edge56_Node000003_Node000051"><a xlink:title=" ">
<path fill="none" stroke="#63b8ff" d="M1868.17,-301.07C1804.39,-292.6 1663.7,-273.91 1576.62,-262.35"/>
<polygon fill="#63b8ff" stroke="#63b8ff" points="1576.91,-258.85 1566.53,-261.01 1575.99,-265.79 1576.91,-258.85"/>
</a>
</g>
</g>
<!-- Node52 -->
<g id="Node000052" class="node">
<title>Node52</title>
<g id="a_Node000052"><a xlink:title=" ">
<polygon fill="#e0e0e0" stroke="#999999" points="1733.5,-261 1593.5,-261 1593.5,-242 1733.5,-242 1733.5,-261"/>
<text text-anchor="middle" x="1663.5" y="-249" font-family="Helvetica,sans-Serif" font-size="10.00">device_get_input_decls.h</text>
</a>
</g>
</g>
<!-- Node3&#45;&gt;Node52 -->
<g id="edge57_Node000003_Node000052" class="edge">
<title>Node3&#45;&gt;Node52</title>
<g id="a_edge57_Node000003_Node000052"><a xlink:title=" ">
<path fill="none" stroke="#63b8ff" d="M1868.41,-298.13C1827.71,-289.07 1758.31,-273.61 1711.69,-263.23"/>
<polygon fill="#63b8ff" stroke="#63b8ff" points="1712.34,-259.79 1701.82,-261.03 1710.82,-266.62 1712.34,-259.79"/>
</a>
</g>
</g>
<!-- Node53 -->
<g id="Node000053" class="node">
<title>Node53</title>
<g id="a_Node000053"><a xlink:title=" ">
<polygon fill="#e0e0e0" stroke="#999999" points="1881.5,-261 1751.5,-261 1751.5,-242 1881.5,-242 1881.5,-261"/>
<text text-anchor="middle" x="1816.5" y="-249" font-family="Helvetica,sans-Serif" font-size="10.00">get_vtxbufs_declares.h</text>
</a>
</g>
</g>
<!-- Node3&#45;&gt;Node53 -->
<g id="edge58_Node000003_Node000053" class="edge">
<title>Node3&#45;&gt;Node53</title>
<g id="a_edge58_Node000003_Node000053"><a xlink:title=" ">
<path fill="none" stroke="#63b8ff" d="M1887.84,-296.98C1874.66,-288.77 1854.47,-276.18 1838.93,-266.49"/>
<polygon fill="#63b8ff" stroke="#63b8ff" points="1840.74,-263.49 1830.41,-261.17 1837.04,-269.43 1840.74,-263.49"/>
</a>
</g>
</g>
<!-- Node54 -->
<g id="Node000054" class="node">
<title>Node54</title>
<g id="a_Node000054"><a xlink:href="astaroth__runtime__compilation_8h.html" target="_top" xlink:title=" ">
<polygon fill="white" stroke="#666666" points="2073,-261 1900,-261 1900,-242 2073,-242 2073,-261"/>
<text text-anchor="middle" x="1986.5" y="-249" font-family="Helvetica,sans-Serif" font-size="10.00">astaroth_runtime_compilation.h</text>
</a>
</g>
</g>
<!-- Node3&#45;&gt;Node54 -->
<g id="edge59_Node000003_Node000054" class="edge">
<title>Node3&#45;&gt;Node54</title>
<g id="a_edge59_Node000003_Node000054"><a xlink:title=" ">
<path fill="none" stroke="#63b8ff" d="M1915.16,-296.98C1928.34,-288.77 1948.53,-276.18 1964.07,-266.49"/>
<polygon fill="#63b8ff" stroke="#63b8ff" points="1965.96,-269.43 1972.59,-261.17 1962.26,-263.49 1965.96,-269.43"/>
</a>
</g>
</g>
<!-- Node55 -->
<g id="Node000055" class="node">
<title>Node55</title>
<g id="a_Node000055"><a xlink:title=" ">
<polygon fill="#e0e0e0" stroke="#999999" points="2144,-261 2091,-261 2091,-242 2144,-242 2144,-261"/>
<text text-anchor="middle" x="2117.5" y="-249" font-family="Helvetica,sans-Serif" font-size="10.00">string.h</text>
</a>
</g>
</g>
<!-- Node3&#45;&gt;Node55 -->
<g id="edge60_Node000003_Node000055" class="edge">
<title>Node3&#45;&gt;Node55</title>
<g id="a_edge60_Node000003_Node000055"><a xlink:title=" ">
<path fill="none" stroke="#63b8ff" d="M1934.78,-297.33C1974.38,-287.62 2040.27,-271.45 2081.17,-261.41"/>
<polygon fill="#63b8ff" stroke="#63b8ff" points="2082.12,-264.79 2091,-259 2080.45,-257.99 2082.12,-264.79"/>
</a>
</g>
</g>
<!-- Node5 -->
<g id="Node000005" class="node">
<title>Node5</title>
<g id="a_Node000005"><a xlink:title=" ">
<polygon fill="#e0e0e0" stroke="#999999" points="2631.5,-74 2569.5,-74 2569.5,-55 2631.5,-55 2631.5,-74"/>
<text text-anchor="middle" x="2600.5" y="-62" font-family="Helvetica,sans-Serif" font-size="10.00">stdbool.h</text>
</a>
</g>
</g>
<!-- Node4&#45;&gt;Node5 -->
<g id="edge4_Node000004_Node000005" class="edge">
<title>Node4&#45;&gt;Node5</title>
<g id="a_edge4_Node000004_Node000005"><a xlink:title=" ">
<path fill="none" stroke="#63b8ff" d="M2240.59,-241.91C2295.37,-226.1 2411.77,-189.42 2501.5,-140 2532.38,-122.99 2564.3,-97.22 2583.27,-80.89"/>
<polygon fill="#63b8ff" stroke="#63b8ff" points="2585.8,-83.32 2591.02,-74.11 2581.19,-78.05 2585.8,-83.32"/>
</a>
</g>
</g>
<!-- Node6 -->
<g id="Node000006" class="node">
<title>Node6</title>
<g id="a_Node000006"><a xlink:href="acc__runtime_8h.html" target="_top" xlink:title=" ">
<polygon fill="#fff0f0" stroke="red" points="1459.5,-200.5 1373.5,-200.5 1373.5,-181.5 1459.5,-181.5 1459.5,-200.5"/>
<text text-anchor="middle" x="1416.5" y="-188.5" font-family="Helvetica,sans-Serif" font-size="10.00">acc_runtime.h</text>
</a>
</g>
</g>
<!-- Node4&#45;&gt;Node6 -->
<g id="edge5_Node000004_Node000006" class="edge">
<title>Node4&#45;&gt;Node6</title>
<g id="a_edge5_Node000004_Node000006"><a xlink:title=" ">
<path fill="none" stroke="#63b8ff" d="M2161.88,-243C2159.05,-242.64 2156.24,-242.3 2153.5,-242 1898.32,-214.03 1591.62,-199.23 1469.97,-194.11"/>
<polygon fill="#63b8ff" stroke="#63b8ff" points="1469.94,-190.6 1459.81,-193.68 1469.65,-197.6 1469.94,-190.6"/>
</a>
</g>
</g>
<!-- Node26 -->
<g id="Node000026" class="node">
<title>Node26</title>
<g id="a_Node000026"><a xlink:title=" ">
<polygon fill="#e0e0e0" stroke="#999999" points="139,-134.5 0,-134.5 0,-115.5 139,-115.5 139,-134.5"/>
<text text-anchor="middle" x="69.5" y="-122.5" font-family="Helvetica,sans-Serif" font-size="10.00">user_built&#45;in_constants.h</text>
</a>
</g>
</g>
<!-- Node4&#45;&gt;Node26 -->
<g id="edge47_Node000004_Node000026" class="edge">
<title>Node4&#45;&gt;Node26</title>
<g id="a_edge47_Node000004_Node000026"><a xlink:title=" ">
<path fill="none" stroke="#63b8ff" d="M2161.88,-242.92C2159.05,-242.58 2156.24,-242.27 2153.5,-242 1804.16,-207.61 1712.28,-253.66 1364.5,-206 1305.75,-197.95 1293.29,-183.71 1234.5,-176 768,-114.82 645.41,-178.56 176.5,-140 163.56,-138.94 149.77,-137.42 136.56,-135.78"/>
<polygon fill="#63b8ff" stroke="#63b8ff" points="136.95,-132.3 126.59,-134.5 136.06,-139.24 136.95,-132.3"/>
</a>
</g>
</g>
<!-- Node43 -->
<g id="Node000043" class="node">
<title>Node43</title>
<g id="a_Node000043"><a xlink:title=" ">
<polygon fill="#e0e0e0" stroke="#999999" points="2275,-206 2144,-206 2144,-176 2275,-176 2275,-206"/>
<text text-anchor="start" x="2152" y="-194" font-family="Helvetica,sans-Serif" font-size="10.00">user_builtin_non_scalar</text>
<text text-anchor="middle" x="2209.5" y="-183" font-family="Helvetica,sans-Serif" font-size="10.00">_constants.h</text>
</a>
</g>
</g>
<!-- Node4&#45;&gt;Node43 -->
<g id="edge48_Node000004_Node000043" class="edge">
<title>Node4&#45;&gt;Node43</title>
<g id="a_edge48_Node000004_Node000043"><a xlink:title=" ">
<path fill="none" stroke="#63b8ff" d="M2209.5,-241.87C2209.5,-235.11 2209.5,-225.35 2209.5,-216.26"/>
<polygon fill="#63b8ff" stroke="#63b8ff" points="2213,-216.11 2209.5,-206.11 2206,-216.11 2213,-216.11"/>
</a>
</g>
</g>
<!-- Node6&#45;&gt;Node5 -->
<g id="edge7_Node000006_Node000005" class="edge">
<title>Node6&#45;&gt;Node5</title>
<g id="a_edge7_Node000006_Node000005"><a xlink:title=" ">
<path fill="none" stroke="#63b8ff" d="M1459.54,-189.36C1644.93,-186.4 2370.19,-172.81 2466.5,-140 2488.56,-132.48 2489.42,-121.82 2509.5,-110 2529.67,-98.13 2553.46,-86.57 2571.66,-78.21"/>
<polygon fill="#63b8ff" stroke="#63b8ff" points="2573.21,-81.35 2580.87,-74.03 2570.32,-74.98 2573.21,-81.35"/>
</a>
</g>
</g>
<!-- Node7 -->
<g id="Node000007" class="node">
<title>Node7</title>
<g id="a_Node000007"><a xlink:title=" ">
<polygon fill="#e0e0e0" stroke="#999999" points="2304.5,-74 2254.5,-74 2254.5,-55 2304.5,-55 2304.5,-74"/>
<text text-anchor="middle" x="2279.5" y="-62" font-family="Helvetica,sans-Serif" font-size="10.00">stdio.h</text>
</a>
</g>
</g>
<!-- Node6&#45;&gt;Node7 -->
<g id="edge6_Node000006_Node000007" class="edge">
<title>Node6&#45;&gt;Node7</title>
<g id="a_edge6_Node000006_Node000007"><a xlink:title=" ">
<path fill="none" stroke="#63b8ff" d="M1459.57,-190.28C1596.16,-190.68 2018.03,-187.91 2144.5,-140 2164.95,-132.25 2164.8,-121.33 2183.5,-110 2204.1,-97.51 2228.79,-86.14 2247.97,-78.02"/>
<polygon fill="#63b8ff" stroke="#63b8ff" points="2249.56,-81.15 2257.45,-74.08 2246.87,-74.69 2249.56,-81.15"/>
</a>
</g>
</g>
<!-- Node8 -->
<g id="Node000008" class="node">
<title>Node8</title>
<g id="a_Node000008"><a xlink:href="device__headers_8h.html" target="_top" xlink:title=" ">
<polygon fill="white" stroke="#666666" points="2078.5,-74 1976.5,-74 1976.5,-55 2078.5,-55 2078.5,-74"/>
<text text-anchor="middle" x="2027.5" y="-62" font-family="Helvetica,sans-Serif" font-size="10.00">device_headers.h</text>
</a>
</g>
</g>
<!-- Node6&#45;&gt;Node8 -->
<g id="edge8_Node000006_Node000008" class="edge">
<title>Node6&#45;&gt;Node8</title>
<g id="a_edge8_Node000006_Node000008"><a xlink:title=" ">
<path fill="none" stroke="#63b8ff" d="M1373.27,-181.92C1359.35,-179.62 1343.82,-177.37 1329.5,-176 1266.26,-169.94 230.71,-185.63 186.5,-140 177.22,-130.42 177.17,-119.52 186.5,-110 220.39,-75.41 1881.14,-76.59 1929.5,-74 1941.42,-73.36 1954.15,-72.44 1966.34,-71.43"/>
<polygon fill="#63b8ff" stroke="#63b8ff" points="1966.76,-74.91 1976.43,-70.57 1966.17,-67.93 1966.76,-74.91"/>
</a>
</g>
</g>
<!-- Node11 -->
<g id="Node000011" class="node">
<title>Node11</title>
<g id="a_Node000011"><a xlink:title=" ">
<polygon fill="#e0e0e0" stroke="#999999" points="1920,-74 1825,-74 1825,-55 1920,-55 1920,-74"/>
<text text-anchor="middle" x="1872.5" y="-62" font-family="Helvetica,sans-Serif" font-size="10.00">builtin_enums.h</text>
</a>
</g>
</g>
<!-- Node6&#45;&gt;Node11 -->
<g id="edge11_Node000006_Node000011" class="edge">
<title>Node6&#45;&gt;Node11</title>
<g id="a_edge11_Node000006_Node000011"><a xlink:title=" ">
<path fill="none" stroke="#63b8ff" d="M1459.65,-189.68C1590.64,-188.28 1977.07,-180.69 2014.5,-140 2044.63,-107.25 1981.77,-86.35 1930.3,-75.27"/>
<polygon fill="#63b8ff" stroke="#63b8ff" points="1930.69,-71.78 1920.19,-73.19 1929.28,-78.64 1930.69,-71.78"/>
</a>
</g>
</g>
<!-- Node12 -->
<g id="Node000012" class="node">
<title>Node12</title>
<g id="a_Node000012"><a xlink:href="datatypes_8h.html" target="_top" xlink:title=" ">
<polygon fill="#fff0f0" stroke="red" points="2135.5,-134.5 2061.5,-134.5 2061.5,-115.5 2135.5,-115.5 2135.5,-134.5"/>
<text text-anchor="middle" x="2098.5" y="-122.5" font-family="Helvetica,sans-Serif" font-size="10.00">datatypes.h</text>
</a>
</g>
</g>
<!-- Node6&#45;&gt;Node12 -->
<g id="edge12_Node000006_Node000012" class="edge">
<title>Node6&#45;&gt;Node12</title>
<g id="a_edge12_Node000006_Node000012"><a xlink:title=" ">
<path fill="none" stroke="#63b8ff" d="M1459.7,-189.38C1562.38,-187.3 1828.85,-178.32 2047.5,-140 2052,-139.21 2056.67,-138.2 2061.28,-137.09"/>
<polygon fill="#63b8ff" stroke="#63b8ff" points="2062.39,-140.42 2071.19,-134.52 2060.63,-133.64 2062.39,-140.42"/>
</a>
</g>
</g>
<!-- Node6&#45;&gt;Node20 -->
<g id="edge20_Node000006_Node000020" class="edge">
<title>Node6&#45;&gt;Node20</title>
<g id="a_edge20_Node000006_Node000020"><a xlink:title=" ">
<path fill="none" stroke="#63b8ff" d="M1459.53,-189.57C1623.67,-187.63 2210.35,-178.15 2392.5,-140 2395.18,-139.44 2397.92,-138.71 2400.64,-137.89"/>
<polygon fill="#63b8ff" stroke="#63b8ff" points="2401.94,-141.14 2410.25,-134.57 2399.66,-134.52 2401.94,-141.14"/>
</a>
</g>
</g>
<!-- Node24 -->
<g id="Node000024" class="node">
<title>Node24</title>
<g id="a_Node000024"><a xlink:title=" ">
<polygon fill="#e0e0e0" stroke="#999999" points="2279,-134.5 2192,-134.5 2192,-115.5 2279,-115.5 2279,-134.5"/>
<text text-anchor="middle" x="2235.5" y="-122.5" font-family="Helvetica,sans-Serif" font-size="10.00">user_defines.h</text>
</a>
</g>
</g>
<!-- Node6&#45;&gt;Node24 -->
<g id="edge29_Node000006_Node000024" class="edge">
<title>Node6&#45;&gt;Node24</title>
<g id="a_edge29_Node000006_Node000024"><a xlink:title=" ">
<path fill="none" stroke="#63b8ff" d="M1459.69,-189.74C1576.22,-188.5 1906.55,-181.29 2177.5,-140 2183,-139.16 2188.75,-138.06 2194.4,-136.84"/>
<polygon fill="#63b8ff" stroke="#63b8ff" points="2195.43,-140.19 2204.39,-134.55 2193.86,-133.37 2195.43,-140.19"/>
</a>
</g>
</g>
<!-- Node25 -->
<g id="Node000025" class="node">
<title>Node25</title>
<g id="a_Node000025"><a xlink:title=" ">
<polygon fill="#e0e0e0" stroke="#999999" points="2383.5,-134.5 2297.5,-134.5 2297.5,-115.5 2383.5,-115.5 2383.5,-134.5"/>
<text text-anchor="middle" x="2340.5" y="-122.5" font-family="Helvetica,sans-Serif" font-size="10.00">profiles_info.h</text>
</a>
</g>
</g>
<!-- Node6&#45;&gt;Node25 -->
<g id="edge30_Node000006_Node000025" class="edge">
<title>Node6&#45;&gt;Node25</title>
<g id="a_edge30_Node000006_Node000025"><a xlink:title=" ">
<path fill="none" stroke="#63b8ff" d="M1459.94,-190.65C1587.83,-191.9 1973.76,-190.84 2288.5,-140 2293.27,-139.23 2298.23,-138.2 2303.11,-137.05"/>
<polygon fill="#63b8ff" stroke="#63b8ff" points="2304.1,-140.41 2312.93,-134.55 2302.38,-133.62 2304.1,-140.41"/>
</a>
</g>
</g>
<!-- Node6&#45;&gt;Node26 -->
<g id="edge31_Node000006_Node000026" class="edge">
<title>Node6&#45;&gt;Node26</title>
<g id="a_edge31_Node000006_Node000026"><a xlink:title=" ">
<path fill="none" stroke="#63b8ff" d="M1373.27,-181.92C1359.35,-179.62 1343.82,-177.37 1329.5,-176 808.95,-126.36 673.91,-191.1 153.5,-140 143.89,-139.06 133.72,-137.68 123.89,-136.16"/>
<polygon fill="#63b8ff" stroke="#63b8ff" points="124.25,-132.67 113.82,-134.53 123.13,-139.58 124.25,-132.67"/>
</a>
</g>
</g>
<!-- Node27 -->
<g id="Node000027" class="node">
<title>Node27</title>
<g id="a_Node000027"><a xlink:href="func__attributes_8h.html" target="_top" xlink:title=" ">
<polygon fill="white" stroke="#666666" points="295,-134.5 196,-134.5 196,-115.5 295,-115.5 295,-134.5"/>
<text text-anchor="middle" x="245.5" y="-122.5" font-family="Helvetica,sans-Serif" font-size="10.00">func_attributes.h</text>
</a>
</g>
</g>
<!-- Node6&#45;&gt;Node27 -->
<g id="edge32_Node000006_Node000027" class="edge">
<title>Node6&#45;&gt;Node27</title>
<g id="a_edge32_Node000006_Node000027"><a xlink:title=" ">
<path fill="none" stroke="#63b8ff" d="M1373.27,-181.96C1359.34,-179.66 1343.81,-177.4 1329.5,-176 875.38,-131.67 755.57,-201.85 303.5,-140 297.65,-139.2 291.53,-138.06 285.54,-136.78"/>
<polygon fill="#63b8ff" stroke="#63b8ff" points="286.21,-133.34 275.68,-134.5 284.64,-140.16 286.21,-133.34"/>
</a>
</g>
</g>
<!-- Node28 -->
<g id="Node000028" class="node">
<title>Node28</title>
<g id="a_Node000028"><a xlink:title=" ">
<polygon fill="#e0e0e0" stroke="#999999" points="438,-134.5 313,-134.5 313,-115.5 438,-115.5 438,-134.5"/>
<text text-anchor="middle" x="375.5" y="-122.5" font-family="Helvetica,sans-Serif" font-size="10.00">user_input_typedefs.h</text>
</a>
</g>
</g>
<!-- Node6&#45;&gt;Node28 -->
<g id="edge33_Node000006_Node000028" class="edge">
<title>Node6&#45;&gt;Node28</title>
<g id="a_edge33_Node000006_Node000028"><a xlink:title=" ">
<path fill="none" stroke="#63b8ff" d="M1373.27,-182C1359.34,-179.71 1343.81,-177.44 1329.5,-176 938.7,-136.73 836.55,-186.13 446.5,-140 438.95,-139.11 431.01,-137.85 423.27,-136.46"/>
<polygon fill="#63b8ff" stroke="#63b8ff" points="423.76,-132.99 413.28,-134.57 422.46,-139.87 423.76,-132.99"/>
</a>
</g>
</g>
<!-- Node29 -->
<g id="Node000029" class="node">
<title>Node29</title>
<g id="a_Node000029"><a xlink:title=" ">
<polygon fill="#e0e0e0" stroke="#999999" points="539,-134.5 456,-134.5 456,-115.5 539,-115.5 539,-134.5"/>
<text text-anchor="middle" x="497.5" y="-122.5" font-family="Helvetica,sans-Serif" font-size="10.00">output_decl.h</text>
</a>
</g>
</g>
<!-- Node6&#45;&gt;Node29 -->
<g id="edge34_Node000006_Node000029" class="edge">
<title>Node6&#45;&gt;Node29</title>
<g id="a_edge34_Node000006_Node000029"><a xlink:title=" ">
<path fill="none" stroke="#63b8ff" d="M1373.26,-182.05C1359.33,-179.76 1343.8,-177.48 1329.5,-176 983.86,-140.34 891.71,-194.33 548.5,-140 543.76,-139.25 538.83,-138.22 533.99,-137.06"/>
<polygon fill="#63b8ff" stroke="#63b8ff" points="534.81,-133.66 524.25,-134.54 533.06,-140.44 534.81,-133.66"/>
</a>
</g>
</g>
<!-- Node30 -->
<g id="Node000030" class="node">
<title>Node30</title>
<g id="a_Node000030"><a xlink:title=" ">
<polygon fill="#e0e0e0" stroke="#999999" points="673.5,-134.5 557.5,-134.5 557.5,-115.5 673.5,-115.5 673.5,-134.5"/>
<text text-anchor="middle" x="615.5" y="-122.5" font-family="Helvetica,sans-Serif" font-size="10.00">comp_loaded_decl.h</text>
</a>
</g>
</g>
<!-- Node6&#45;&gt;Node30 -->
<g id="edge35_Node000006_Node000030" class="edge">
<title>Node6&#45;&gt;Node30</title>
<g id="a_edge35_Node000006_Node000030"><a xlink:title=" ">
<path fill="none" stroke="#63b8ff" d="M1373.25,-182.13C1359.33,-179.84 1343.8,-177.54 1329.5,-176 1043.16,-145.08 968.04,-177.56 682.5,-140 675.69,-139.1 668.54,-137.9 661.56,-136.57"/>
<polygon fill="#63b8ff" stroke="#63b8ff" points="661.98,-133.09 651.49,-134.56 660.61,-139.95 661.98,-133.09"/>
</a>
</g>
</g>
<!-- Node31 -->
<g id="Node000031" class="node">
<title>Node31</title>
<g id="a_Node000031"><a xlink:title=" ">
<polygon fill="#e0e0e0" stroke="#999999" points="769.5,-134.5 691.5,-134.5 691.5,-115.5 769.5,-115.5 769.5,-134.5"/>
<text text-anchor="middle" x="730.5" y="-122.5" font-family="Helvetica,sans-Serif" font-size="10.00">comp_decl.h</text>
</a>
</g>
</g>
<!-- Node6&#45;&gt;Node31 -->
<g id="edge36_Node000006_Node000031" class="edge">
<title>Node6&#45;&gt;Node31</title>
<g id="a_edge36_Node000006_Node000031"><a xlink:title=" ">
<path fill="none" stroke="#63b8ff" d="M1373.24,-182.21C1359.32,-179.93 1343.79,-177.61 1329.5,-176 1085.64,-148.47 1020.18,-182.61 778.5,-140 774.32,-139.26 769.98,-138.3 765.7,-137.21"/>
<polygon fill="#63b8ff" stroke="#63b8ff" points="766.48,-133.8 755.91,-134.53 764.63,-140.55 766.48,-133.8"/>
</a>
</g>
</g>
<!-- Node32 -->
<g id="Node000032" class="node">
<title>Node32</title>
<g id="a_Node000032"><a xlink:title=" ">
<polygon fill="#e0e0e0" stroke="#999999" points="895.5,-134.5 787.5,-134.5 787.5,-115.5 895.5,-115.5 895.5,-134.5"/>
<text text-anchor="middle" x="841.5" y="-122.5" font-family="Helvetica,sans-Serif" font-size="10.00">info_loaded_decl.h</text>
</a>
</g>
</g>
<!-- Node6&#45;&gt;Node32 -->
<g id="edge37_Node000006_Node000032" class="edge">
<title>Node6&#45;&gt;Node32</title>
<g id="a_edge37_Node000006_Node000032"><a xlink:title=" ">
<path fill="none" stroke="#63b8ff" d="M1373.22,-182.38C1359.29,-180.1 1343.77,-177.75 1329.5,-176 1141.34,-152.93 1091.89,-168.63 904.5,-140 898.54,-139.09 892.3,-137.94 886.17,-136.7"/>
<polygon fill="#63b8ff" stroke="#63b8ff" points="886.51,-133.2 876,-134.54 885.06,-140.04 886.51,-133.2"/>
</a>
</g>
</g>
<!-- Node33 -->
<g id="Node000033" class="node">
<title>Node33</title>
<g id="a_Node000033"><a xlink:title=" ">
<polygon fill="#e0e0e0" stroke="#999999" points="1053.5,-134.5 913.5,-134.5 913.5,-115.5 1053.5,-115.5 1053.5,-134.5"/>
<text text-anchor="middle" x="983.5" y="-122.5" font-family="Helvetica,sans-Serif" font-size="10.00">device_mesh_info_decl.h</text>
</a>
</g>
</g>
<!-- Node6&#45;&gt;Node33 -->
<g id="edge38_Node000006_Node000033" class="edge">
<title>Node6&#45;&gt;Node33</title>
<g id="a_edge38_Node000006_Node000033"><a xlink:title=" ">
<path fill="none" stroke="#63b8ff" d="M1373.17,-182.8C1359.23,-180.55 1343.73,-178.1 1329.5,-176 1211.05,-158.49 1180.81,-158.45 1062.5,-140 1055.13,-138.85 1047.39,-137.57 1039.75,-136.26"/>
<polygon fill="#63b8ff" stroke="#63b8ff" points="1040.27,-132.8 1029.82,-134.54 1039.07,-139.7 1040.27,-132.8"/>
</a>
</g>
</g>
<!-- Node34 -->
<g id="Node000034" class="node">
<title>Node34</title>
<g id="a_Node000034"><a xlink:title=" ">
<polygon fill="#e0e0e0" stroke="#999999" points="1149,-134.5 1072,-134.5 1072,-115.5 1149,-115.5 1149,-134.5"/>
<text text-anchor="middle" x="1110.5" y="-122.5" font-family="Helvetica,sans-Serif" font-size="10.00">array_decl.h</text>
</a>
</g>
</g>
<!-- Node6&#45;&gt;Node34 -->
<g id="edge39_Node000006_Node000034" class="edge">
<title>Node6&#45;&gt;Node34</title>
<g id="a_edge39_Node000006_Node000034"><a xlink:title=" ">
<path fill="none" stroke="#63b8ff" d="M1373.33,-182.89C1321.87,-174.13 1233.44,-158.15 1158.5,-140 1155.06,-139.17 1151.51,-138.25 1147.95,-137.28"/>
<polygon fill="#63b8ff" stroke="#63b8ff" points="1148.62,-133.84 1138.05,-134.51 1146.73,-140.58 1148.62,-133.84"/>
</a>
</g>
</g>
<!-- Node35 -->
<g id="Node000035" class="node">
<title>Node35</title>
<g id="a_Node000035"><a xlink:title=" ">
<polygon fill="#e0e0e0" stroke="#999999" points="1243.5,-134.5 1167.5,-134.5 1167.5,-115.5 1243.5,-115.5 1243.5,-134.5"/>
<text text-anchor="middle" x="1205.5" y="-122.5" font-family="Helvetica,sans-Serif" font-size="10.00">input_decl.h</text>
</a>
</g>
</g>
<!-- Node6&#45;&gt;Node35 -->
<g id="edge40_Node000006_Node000035" class="edge">
<title>Node6&#45;&gt;Node35</title>
<g id="a_edge40_Node000006_Node000035"><a xlink:title=" ">
<path fill="none" stroke="#63b8ff" d="M1388.04,-181.37C1350.74,-170.05 1285.17,-150.16 1243.6,-137.56"/>
<polygon fill="#63b8ff" stroke="#63b8ff" points="1244.43,-134.15 1233.84,-134.6 1242.4,-140.85 1244.43,-134.15"/>
</a>
</g>
</g>
<!-- Node36 -->
<g id="Node000036" class="node">
<title>Node36</title>
<g id="a_Node000036"><a xlink:href="ac__helpers_8h.html" target="_top" xlink:title=" ">
<polygon fill="white" stroke="#666666" points="1339.5,-134.5 1261.5,-134.5 1261.5,-115.5 1339.5,-115.5 1339.5,-134.5"/>
<text text-anchor="middle" x="1300.5" y="-122.5" font-family="Helvetica,sans-Serif" font-size="10.00">ac_helpers.h</text>
</a>
</g>
</g>
<!-- Node6&#45;&gt;Node36 -->
<g id="edge41_Node000006_Node000036" class="edge">
<title>Node6&#45;&gt;Node36</title>
<g id="a_edge41_Node000006_Node000036"><a xlink:title=" ">
<path fill="none" stroke="#63b8ff" d="M1400.86,-181.37C1381.4,-170.63 1347.95,-152.18 1325.06,-139.55"/>
<polygon fill="#63b8ff" stroke="#63b8ff" points="1326.71,-136.47 1316.27,-134.7 1323.33,-142.59 1326.71,-136.47"/>
</a>
</g>
</g>
<!-- Node37 -->
<g id="Node000037" class="node">
<title>Node37</title>
<g id="a_Node000037"><a xlink:title=" ">
<polygon fill="#e0e0e0" stroke="#999999" points="1475.5,-140 1357.5,-140 1357.5,-110 1475.5,-110 1475.5,-140"/>
<text text-anchor="start" x="1365.5" y="-128" font-family="Helvetica,sans-Serif" font-size="10.00">scalar_reduce_buffer</text>
<text text-anchor="middle" x="1416.5" y="-117" font-family="Helvetica,sans-Serif" font-size="10.00">_defs.h</text>
</a>
</g>
</g>
<!-- Node6&#45;&gt;Node37 -->
<g id="edge42_Node000006_Node000037" class="edge">
<title>Node6&#45;&gt;Node37</title>
<g id="a_edge42_Node000006_Node000037"><a xlink:title=" ">
<path fill="none" stroke="#63b8ff" d="M1416.5,-181.37C1416.5,-173.49 1416.5,-161.45 1416.5,-150.6"/>
<polygon fill="#63b8ff" stroke="#63b8ff" points="1420,-150.36 1416.5,-140.36 1413,-150.36 1420,-150.36"/>
</a>
</g>
</g>
<!-- Node38 -->
<g id="Node000038" class="node">
<title>Node38</title>
<g id="a_Node000038"><a xlink:title=" ">
<polygon fill="#e0e0e0" stroke="#999999" points="1617,-140 1494,-140 1494,-110 1617,-110 1617,-140"/>
<text text-anchor="start" x="1502" y="-128" font-family="Helvetica,sans-Serif" font-size="10.00">scalar_reduce_buffers</text>
<text text-anchor="middle" x="1555.5" y="-117" font-family="Helvetica,sans-Serif" font-size="10.00">_in_vba.h</text>
</a>
</g>
</g>
<!-- Node6&#45;&gt;Node38 -->
<g id="edge43_Node000006_Node000038" class="edge">
<title>Node6&#45;&gt;Node38</title>
<g id="a_edge43_Node000006_Node000038"><a xlink:title=" ">
<path fill="none" stroke="#63b8ff" d="M1435.25,-181.37C1455.71,-171.95 1489.07,-156.59 1515.47,-144.43"/>
<polygon fill="#63b8ff" stroke="#63b8ff" points="1517.22,-147.48 1524.84,-140.12 1514.3,-141.12 1517.22,-147.48"/>
</a>
</g>
</g>
<!-- Node39 -->
<g id="Node000039" class="node">
<title>Node39</title>
<g id="a_Node000039"><a xlink:href="astaroth__analysis_8h.html" target="_top" xlink:title=" ">
<polygon fill="white" stroke="#666666" points="1747.5,-134.5 1635.5,-134.5 1635.5,-115.5 1747.5,-115.5 1747.5,-134.5"/>
<text text-anchor="middle" x="1691.5" y="-122.5" font-family="Helvetica,sans-Serif" font-size="10.00">astaroth_analysis.h</text>
</a>
</g>
</g>
<!-- Node6&#45;&gt;Node39 -->
<g id="edge44_Node000006_Node000039" class="edge">
<title>Node6&#45;&gt;Node39</title>
<g id="a_edge44_Node000006_Node000039"><a xlink:title=" ">
<path fill="none" stroke="#63b8ff" d="M1453.3,-181.44C1502.8,-169.92 1590.84,-149.43 1644.9,-136.84"/>
<polygon fill="#63b8ff" stroke="#63b8ff" points="1645.97,-140.19 1654.92,-134.51 1644.38,-133.37 1645.97,-140.19"/>
</a>
</g>
</g>
<!-- Node40 -->
<g id="Node000040" class="node">
<title>Node40</title>
<g id="a_Node000040"><a xlink:href="common__kernels_8h.html" target="_top" xlink:title=" ">
<polygon fill="white" stroke="#666666" points="1875,-134.5 1766,-134.5 1766,-115.5 1875,-115.5 1875,-134.5"/>
<text text-anchor="middle" x="1820.5" y="-122.5" font-family="Helvetica,sans-Serif" font-size="10.00">common_kernels.h</text>
</a>
</g>
</g>
<!-- Node6&#45;&gt;Node40 -->
<g id="edge45_Node000006_Node000040" class="edge">
<title>Node6&#45;&gt;Node40</title>
<g id="a_edge45_Node000006_Node000040"><a xlink:title=" ">
<path fill="none" stroke="#63b8ff" d="M1459.59,-184.64C1524.29,-176.37 1650.27,-159.41 1756.5,-140 1762.02,-138.99 1767.8,-137.85 1773.52,-136.67"/>
<polygon fill="#63b8ff" stroke="#63b8ff" points="1774.64,-140.01 1783.7,-134.51 1773.19,-133.16 1774.64,-140.01"/>
</a>
</g>
</g>
<!-- Node41 -->
<g id="Node000041" class="node">
<title>Node41</title>
<g id="a_Node000041"><a xlink:title=" ">
<polygon fill="#e0e0e0" stroke="#999999" points="2005.5,-134.5 1893.5,-134.5 1893.5,-115.5 2005.5,-115.5 2005.5,-134.5"/>
<text text-anchor="middle" x="1949.5" y="-122.5" font-family="Helvetica,sans-Serif" font-size="10.00">user_declarations.h</text>
</a>
</g>
</g>
<!-- Node6&#45;&gt;Node41 -->
<g id="edge46_Node000006_Node000041" class="edge">
<title>Node6&#45;&gt;Node41</title>
<g id="a_edge46_Node000006_Node000041"><a xlink:title=" ">
<path fill="none" stroke="#63b8ff" d="M1459.51,-186.88C1542.06,-180.55 1728.29,-164.7 1883.5,-140 1889.72,-139.01 1896.25,-137.82 1902.67,-136.55"/>
<polygon fill="#63b8ff" stroke="#63b8ff" points="1903.53,-139.95 1912.62,-134.52 1902.12,-133.09 1903.53,-139.95"/>
</a>
</g>
</g>
<!-- Node9 -->
<g id="Node000009" class="node">
<title>Node9</title>
<g id="a_Node000009"><a xlink:title=" ">
<polygon fill="#e0e0e0" stroke="#999999" points="2005,-19 1892,-19 1892,0 2005,0 2005,-19"/>
<text text-anchor="middle" x="1948.5" y="-7" font-family="Helvetica,sans-Serif" font-size="10.00">cuda_runtime_api.h</text>
</a>
</g>
</g>
<!-- Node8&#45;&gt;Node9 -->
<g id="edge9_Node000008_Node000009" class="edge">
<title>Node8&#45;&gt;Node9</title>
<g id="a_edge9_Node000008_Node000009"><a xlink:title=" ">
<path fill="none" stroke="#63b8ff" d="M2014.81,-54.98C2002.67,-46.84 1984.14,-34.41 1969.75,-24.76"/>
<polygon fill="#63b8ff" stroke="#63b8ff" points="1971.68,-21.84 1961.42,-19.17 1967.78,-27.65 1971.68,-21.84"/>
</a>
</g>
</g>
<!-- Node10 -->
<g id="Node000010" class="node">
<title>Node10</title>
<g id="a_Node000010"><a xlink:title=" ">
<polygon fill="#e0e0e0" stroke="#999999" points="2099.5,-19 2023.5,-19 2023.5,0 2099.5,0 2099.5,-19"/>
<text text-anchor="middle" x="2061.5" y="-7" font-family="Helvetica,sans-Serif" font-size="10.00">cuda_fp16.h</text>
</a>
</g>
</g>
<!-- Node8&#45;&gt;Node10 -->
<g id="edge10_Node000008_Node000010" class="edge">
<title>Node8&#45;&gt;Node10</title>
<g id="a_edge10_Node000008_Node000010"><a xlink:title=" ">
<path fill="none" stroke="#63b8ff" d="M2033.11,-54.75C2037.82,-47.42 2044.67,-36.73 2050.47,-27.7"/>
<polygon fill="#63b8ff" stroke="#63b8ff" points="2053.54,-29.4 2055.99,-19.09 2047.64,-25.62 2053.54,-29.4"/>
</a>
</g>
</g>
<!-- Node12&#45;&gt;Node8 -->
<g id="edge13_Node000012_Node000008" class="edge">
<title>Node12&#45;&gt;Node8</title>
<g id="a_edge13_Node000012_Node000008"><a xlink:title=" ">
<path fill="none" stroke="#63b8ff" d="M2088.02,-115.37C2077.01,-106.3 2059.46,-91.84 2046.09,-80.82"/>
<polygon fill="#63b8ff" stroke="#63b8ff" points="2047.96,-77.83 2038.02,-74.17 2043.51,-83.23 2047.96,-77.83"/>
</a>
</g>
</g>
<!-- Node12&#45;&gt;Node9 -->
<g id="edge14_Node000012_Node000009" class="edge">
<title>Node12&#45;&gt;Node9</title>
<g id="a_edge14_Node000012_Node000009"><a xlink:title=" ">
<path fill="none" stroke="#63b8ff" d="M2067.02,-115.47C2032.87,-105.63 1981.33,-88.89 1967.5,-74 1956.24,-61.88 1951.64,-43.35 1949.76,-29.43"/>
<polygon fill="#63b8ff" stroke="#63b8ff" points="1953.21,-28.67 1948.74,-19.06 1946.24,-29.36 1953.21,-28.67"/>
</a>
</g>
</g>
<!-- Node12&#45;&gt;Node11 -->
<g id="edge16_Node000012_Node000011" class="edge">
<title>Node12&#45;&gt;Node11</title>
<g id="a_edge16_Node000012_Node000011"><a xlink:title=" ">
<path fill="none" stroke="#63b8ff" d="M2067.78,-115.47C2061.1,-113.64 2054.07,-111.74 2047.5,-110 2003.09,-98.26 1952.18,-85.38 1916.77,-76.51"/>
<polygon fill="#63b8ff" stroke="#63b8ff" points="1917.3,-73.04 1906.75,-74.01 1915.61,-79.83 1917.3,-73.04"/>
</a>
</g>
</g>
<!-- Node16 -->
<g id="Node000016" class="node">
<title>Node16</title>
<g id="a_Node000016"><a xlink:href="acreal_8h.html" target="_top" xlink:title=" ">
<polygon fill="white" stroke="#666666" points="2193.5,-19 2137.5,-19 2137.5,0 2193.5,0 2193.5,-19"/>
<text text-anchor="middle" x="2165.5" y="-7" font-family="Helvetica,sans-Serif" font-size="10.00">acreal.h</text>
</a>
</g>
</g>
<!-- Node12&#45;&gt;Node16 -->
<g id="edge15_Node000012_Node000016" class="edge">
<title>Node12&#45;&gt;Node16</title>
<g id="a_edge15_Node000012_Node000016"><a xlink:title=" ">
<path fill="none" stroke="#63b8ff" d="M2101.07,-115.06C2105.21,-101.45 2114.15,-75.03 2126.5,-55 2132.81,-44.77 2141.5,-34.6 2149.07,-26.56"/>
<polygon fill="#63b8ff" stroke="#63b8ff" points="2151.66,-28.92 2156.15,-19.32 2146.65,-24.03 2151.66,-28.92"/>
</a>
</g>
</g>
<!-- Node18 -->
<g id="Node000018" class="node">
<title>Node18</title>
<g id="a_Node000018"><a xlink:href="host__datatypes_8h.html" target="_top" xlink:title=" ">
<polygon fill="white" stroke="#666666" points="2236,-74 2135,-74 2135,-55 2236,-55 2236,-74"/>
<text text-anchor="middle" x="2185.5" y="-62" font-family="Helvetica,sans-Serif" font-size="10.00">host_datatypes.h</text>
</a>
</g>
</g>
<!-- Node12&#45;&gt;Node18 -->
<g id="edge17_Node000012_Node000018" class="edge">
<title>Node12&#45;&gt;Node18</title>
<g id="a_edge17_Node000012_Node000018"><a xlink:title=" ">
<path fill="none" stroke="#63b8ff" d="M2111.34,-115.37C2125.22,-106.04 2147.57,-91.01 2164.11,-79.88"/>
<polygon fill="#63b8ff" stroke="#63b8ff" points="2166.26,-82.65 2172.61,-74.17 2162.36,-76.84 2166.26,-82.65"/>
</a>
</g>
</g>
<!-- Node18&#45;&gt;Node16 -->
<g id="edge18_Node000018_Node000016" class="edge">
<title>Node18&#45;&gt;Node16</title>
<g id="a_edge18_Node000018_Node000016"><a xlink:title=" ">
<path fill="none" stroke="#63b8ff" d="M2182.2,-54.75C2179.52,-47.65 2175.65,-37.4 2172.31,-28.56"/>
<polygon fill="#63b8ff" stroke="#63b8ff" points="2175.55,-27.21 2168.74,-19.09 2169,-29.68 2175.55,-27.21"/>
</a>
</g>
</g>
<!-- Node19 -->
<g id="Node000019" class="node">
<title>Node19</title>
<g id="a_Node000019"><a xlink:title=" ">
<polygon fill="#e0e0e0" stroke="#999999" points="2418.5,-19 2362.5,-19 2362.5,0 2418.5,0 2418.5,-19"/>
<text text-anchor="middle" x="2390.5" y="-7" font-family="Helvetica,sans-Serif" font-size="10.00">stddef.h</text>
</a>
</g>
</g>
<!-- Node18&#45;&gt;Node19 -->
<g id="edge19_Node000018_Node000019" class="edge">
<title>Node18&#45;&gt;Node19</title>
<g id="a_edge19_Node000018_Node000019"><a xlink:title=" ">
<path fill="none" stroke="#63b8ff" d="M2218.44,-54.98C2255.01,-45.53 2313.95,-30.29 2352.46,-20.33"/>
<polygon fill="#63b8ff" stroke="#63b8ff" points="2353.46,-23.69 2362.26,-17.8 2351.71,-16.91 2353.46,-23.69"/>
</a>
</g>
</g>
<!-- Node20&#45;&gt;Node5 -->
<g id="edge23_Node000020_Node000005" class="edge">
<title>Node20&#45;&gt;Node5</title>
<g id="a_edge23_Node000020_Node000005"><a xlink:title=" ">
<path fill="none" stroke="#63b8ff" d="M2454.36,-115.49C2483.75,-105.44 2532.81,-88.66 2565.89,-77.34"/>
<polygon fill="#63b8ff" stroke="#63b8ff" points="2567.28,-80.57 2575.61,-74.02 2565.01,-73.94 2567.28,-80.57"/>
</a>
</g>
</g>
<!-- Node20&#45;&gt;Node7 -->
<g id="edge25_Node000020_Node000007" class="edge">
<title>Node20&#45;&gt;Node7</title>
<g id="a_edge25_Node000020_Node000007"><a xlink:title=" ">
<path fill="none" stroke="#63b8ff" d="M2407.69,-115.49C2382.25,-105.57 2339.99,-89.09 2310.99,-77.78"/>
<polygon fill="#63b8ff" stroke="#63b8ff" points="2311.93,-74.39 2301.34,-74.02 2309.38,-80.91 2311.93,-74.39"/>
</a>
</g>
</g>
<!-- Node20&#45;&gt;Node8 -->
<g id="edge28_Node000020_Node000008" class="edge">
<title>Node20&#45;&gt;Node8</title>
<g id="a_edge28_Node000020_Node000008"><a xlink:title=" ">
<path fill="none" stroke="#63b8ff" d="M2409.42,-115.4C2404.01,-113.36 2398.1,-111.38 2392.5,-110 2336.45,-96.19 2177.45,-79.69 2088.92,-71.18"/>
<polygon fill="#63b8ff" stroke="#63b8ff" points="2089.03,-67.68 2078.75,-70.21 2088.37,-74.65 2089.03,-67.68"/>
</a>
</g>
</g>
<!-- Node20&#45;&gt;Node18 -->
<g id="edge22_Node000020_Node000018" class="edge">
<title>Node20&#45;&gt;Node18</title>
<g id="a_edge22_Node000020_Node000018"><a xlink:title=" ">
<path fill="none" stroke="#63b8ff" d="M2408.55,-115.45C2403.36,-113.5 2397.77,-111.55 2392.5,-110 2343.64,-95.59 2287.02,-83.74 2245.36,-75.91"/>
<polygon fill="#63b8ff" stroke="#63b8ff" points="2245.85,-72.44 2235.38,-74.05 2244.57,-79.32 2245.85,-72.44"/>
</a>
</g>
</g>
<!-- Node20&#45;&gt;Node19 -->
<g id="edge21_Node000020_Node000019" class="edge">
<title>Node20&#45;&gt;Node19</title>
<g id="a_edge21_Node000020_Node000019"><a xlink:title=" ">
<path fill="none" stroke="#63b8ff" d="M2451.23,-115.39C2476.12,-105.03 2514.51,-87.37 2522.5,-74 2526.83,-66.75 2527.43,-61.86 2522.5,-55 2501.33,-25.53 2459.64,-15.32 2428.74,-11.91"/>
<polygon fill="#63b8ff" stroke="#63b8ff" points="2429,-8.42 2418.73,-11 2428.37,-15.39 2429,-8.42"/>
</a>
</g>
</g>
<!-- Node21 -->
<g id="Node000021" class="node">
<title>Node21</title>
<g id="a_Node000021"><a xlink:title=" ">
<polygon fill="#e0e0e0" stroke="#999999" points="2376,-74 2323,-74 2323,-55 2376,-55 2376,-74"/>
<text text-anchor="middle" x="2349.5" y="-62" font-family="Helvetica,sans-Serif" font-size="10.00">stdint.h</text>
</a>
</g>
</g>
<!-- Node20&#45;&gt;Node21 -->
<g id="edge24_Node000020_Node000021" class="edge">
<title>Node20&#45;&gt;Node21</title>
<g id="a_edge24_Node000020_Node000021"><a xlink:title=" ">
<path fill="none" stroke="#63b8ff" d="M2417.7,-115.37C2405.05,-106.12 2384.76,-91.28 2369.59,-80.19"/>
<polygon fill="#63b8ff" stroke="#63b8ff" points="2371.49,-77.24 2361.35,-74.17 2367.36,-82.9 2371.49,-77.24"/>
</a>
</g>
</g>
<!-- Node22 -->
<g id="Node000022" class="node">
<title>Node22</title>
<g id="a_Node000022"><a xlink:title=" ">
<polygon fill="#e0e0e0" stroke="#999999" points="2447,-74 2394,-74 2394,-55 2447,-55 2447,-74"/>
<text text-anchor="middle" x="2420.5" y="-62" font-family="Helvetica,sans-Serif" font-size="10.00">stdlib.h</text>
</a>
</g>
</g>
<!-- Node20&#45;&gt;Node22 -->
<g id="edge26_Node000020_Node000022" class="edge">
<title>Node20&#45;&gt;Node22</title>
<g id="a_edge26_Node000020_Node000022"><a xlink:title=" ">
<path fill="none" stroke="#63b8ff" d="M2428.17,-115.37C2426.91,-107.16 2424.97,-94.54 2423.35,-84.05"/>
<polygon fill="#63b8ff" stroke="#63b8ff" points="2426.81,-83.52 2421.83,-74.17 2419.89,-84.58 2426.81,-83.52"/>
</a>
</g>
</g>
<!-- Node23 -->
<g id="Node000023" class="node">
<title>Node23</title>
<g id="a_Node000023"><a xlink:title=" ">
<polygon fill="#e0e0e0" stroke="#999999" points="2513.5,-74 2465.5,-74 2465.5,-55 2513.5,-55 2513.5,-74"/>
<text text-anchor="middle" x="2489.5" y="-62" font-family="Helvetica,sans-Serif" font-size="10.00">time.h</text>
</a>
</g>
</g>
<!-- Node20&#45;&gt;Node23 -->
<g id="edge27_Node000020_Node000023" class="edge">
<title>Node20&#45;&gt;Node23</title>
<g id="a_edge27_Node000020_Node000023"><a xlink:title=" ">
<path fill="none" stroke="#63b8ff" d="M2438.35,-115.37C2447.48,-106.47 2461.92,-92.39 2473.14,-81.45"/>
<polygon fill="#63b8ff" stroke="#63b8ff" points="2475.89,-83.65 2480.61,-74.17 2471.01,-78.64 2475.89,-83.65"/>
</a>
</g>
</g>
<!-- Node47 -->
<g id="Node000047" class="node">
<title>Node47</title>
<g id="a_Node000047"><a xlink:title=" ">
<polygon fill="#e0e0e0" stroke="#999999" points="1226,-206 1107,-206 1107,-176 1226,-176 1226,-206"/>
<text text-anchor="start" x="1115" y="-194" font-family="Helvetica,sans-Serif" font-size="10.00">device_load_uniform</text>
<text text-anchor="middle" x="1166.5" y="-183" font-family="Helvetica,sans-Serif" font-size="10.00">_decl.h</text>
</a>
</g>
</g>
<!-- Node46&#45;&gt;Node47 -->
<g id="edge52_Node000046_Node000047" class="edge">
<title>Node46&#45;&gt;Node47</title>
<g id="a_edge52_Node000046_Node000047"><a xlink:title=" ">
<path fill="none" stroke="#63b8ff" d="M1094.04,-241.87C1105.47,-234 1122.77,-222.09 1137.61,-211.89"/>
<polygon fill="#63b8ff" stroke="#63b8ff" points="1139.74,-214.67 1145.99,-206.11 1135.77,-208.9 1139.74,-214.67"/>
</a>
</g>
</g>
<!-- Node48 -->
<g id="Node000048" class="node">
<title>Node48</title>
<g id="a_Node000048"><a xlink:title=" ">
<polygon fill="#e0e0e0" stroke="#999999" points="1088.5,-206 966.5,-206 966.5,-176 1088.5,-176 1088.5,-206"/>
<text text-anchor="start" x="974.5" y="-194" font-family="Helvetica,sans-Serif" font-size="10.00">device_store_uniform</text>
<text text-anchor="middle" x="1027.5" y="-183" font-family="Helvetica,sans-Serif" font-size="10.00">_decl.h</text>
</a>
</g>
</g>
<!-- Node46&#45;&gt;Node48 -->
<g id="edge53_Node000046_Node000048" class="edge">
<title>Node46&#45;&gt;Node48</title>
<g id="a_edge53_Node000046_Node000048"><a xlink:title=" ">
<path fill="none" stroke="#63b8ff" d="M1073.53,-241.87C1066.68,-234.44 1056.5,-223.42 1047.45,-213.62"/>
<polygon fill="#63b8ff" stroke="#63b8ff" points="1049.88,-211.09 1040.53,-206.11 1044.74,-215.84 1049.88,-211.09"/>
</a>
</g>
</g>
</g>
</svg>
