<?xml version="1.0" encoding="UTF-8" standalone="no"?>
<!DOCTYPE svg PUBLIC "-//W3C//DTD SVG 1.1//EN"
 "http://www.w3.org/Graphics/SVG/1.1/DTD/svg11.dtd">
<!-- Generated by graphviz version 2.43.0 (0)
 -->
<!-- Title: include/astaroth_legacy.h Pages: 1 -->
<svg width="2252pt" height="214pt"
 viewBox="0.00 0.00 2252.00 214.00" xmlns="http://www.w3.org/2000/svg" xmlns:xlink="http://www.w3.org/1999/xlink">
<g id="graph0" class="graph" transform="scale(1 1) rotate(0) translate(4 210)">
<title>include/astaroth_legacy.h</title>
<!-- Node1 -->
<g id="Node000001" class="node">
<title>Node1</title>
<g id="a_Node000001"><a xlink:title=" ">
<polygon fill="#999999" stroke="#666666" points="566,-206 426,-206 426,-187 566,-187 566,-206"/>
<text text-anchor="middle" x="496" y="-194" font-family="Helvetica,sans-Serif" font-size="10.00">include/astaroth_legacy.h</text>
</a>
</g>
</g>
<!-- Node2 -->
<g id="Node000002" class="node">
<title>Node2</title>
<g id="a_Node000002"><a xlink:href="astaroth_8h.html" target="_top" xlink:title=" ">
<polygon fill="white" stroke="#666666" points="987,-151 883,-151 883,-132 987,-132 987,-151"/>
<text text-anchor="middle" x="935" y="-139" font-family="Helvetica,sans-Serif" font-size="10.00">include/astaroth.h</text>
</a>
</g>
</g>
<!-- Node1&#45;&gt;Node2 -->
<g id="edge1_Node000001_Node000002" class="edge">
<title>Node1&#45;&gt;Node2</title>
<g id="a_edge1_Node000001_Node000002"><a xlink:title=" ">
<path fill="none" stroke="#63b8ff" d="M576.12,-185.83C665.29,-175.06 806.81,-157.98 882.75,-148.81"/>
<polygon fill="#63b8ff" stroke="#63b8ff" points="575.55,-182.37 566.05,-187.04 576.39,-189.32 575.55,-182.37"/>
</a>
</g>
</g>
<!-- Node13 -->
<g id="Node000013" class="node">
<title>Node13</title>
<g id="a_Node000013"><a xlink:href="astaroth_8cc.html" target="_top" xlink:title=" ">
<polygon fill="white" stroke="#666666" points="112,-90.5 0,-90.5 0,-71.5 112,-71.5 112,-90.5"/>
<text text-anchor="middle" x="56" y="-78.5" font-family="Helvetica,sans-Serif" font-size="10.00">src/core/astaroth.cc</text>
</a>
</g>
</g>
<!-- Node1&#45;&gt;Node13 -->
<g id="edge35_Node000001_Node000013" class="edge">
<title>Node1&#45;&gt;Node13</title>
<g id="a_edge35_Node000001_Node000013"><a xlink:title=" ">
<path fill="none" stroke="#63b8ff" d="M453.05,-184.42C365.45,-161.82 167.77,-110.83 89.15,-90.55"/>
<polygon fill="#63b8ff" stroke="#63b8ff" points="452.37,-187.86 462.93,-186.97 454.12,-181.08 452.37,-187.86"/>
</a>
</g>
</g>
<!-- Node3 -->
<g id="Node000003" class="node">
<title>Node3</title>
<g id="a_Node000003"><a xlink:href="astaroth__utils_8h.html" target="_top" xlink:title="Functions for loading and updating AcMeshInfo.">
<polygon fill="white" stroke="#666666" points="337.5,-90.5 206.5,-90.5 206.5,-71.5 337.5,-71.5 337.5,-90.5"/>
<text text-anchor="middle" x="272" y="-78.5" font-family="Helvetica,sans-Serif" font-size="10.00">include/astaroth_utils.h</text>
</a>
</g>
</g>
<!-- Node2&#45;&gt;Node3 -->
<g id="edge2_Node000002_Node000003" class="edge">
<title>Node2&#45;&gt;Node3</title>
<g id="a_edge2_Node000002_Node000003"><a xlink:title=" ">
<path fill="none" stroke="#63b8ff" d="M872.75,-138.08C765.04,-133.39 537.07,-121.21 346,-96 335.11,-94.56 323.4,-92.56 312.58,-90.52"/>
<polygon fill="#63b8ff" stroke="#63b8ff" points="872.66,-141.58 882.8,-138.51 872.96,-134.59 872.66,-141.58"/>
</a>
</g>
</g>
<!-- Node4 -->
<g id="Node000004" class="node">
<title>Node4</title>
<g id="a_Node000004"><a xlink:href="config__loader_8cc.html" target="_top" xlink:title=" ">
<polygon fill="white" stroke="#666666" points="641,-24.5 505,-24.5 505,-5.5 641,-5.5 641,-24.5"/>
<text text-anchor="middle" x="573" y="-12.5" font-family="Helvetica,sans-Serif" font-size="10.00">src/utils/config_loader.cc</text>
</a>
</g>
</g>
<!-- Node2&#45;&gt;Node4 -->
<g id="edge29_Node000002_Node000004" class="edge">
<title>Node2&#45;&gt;Node4</title>
<g id="a_edge29_Node000002_Node000004"><a xlink:title=" ">
<path fill="none" stroke="#63b8ff" d="M900.5,-128.17C880.59,-120.32 855.52,-109.18 835,-96 818.04,-85.11 818.97,-75.12 801,-66 784.78,-57.77 679.21,-36.5 617.57,-24.52"/>
<polygon fill="#63b8ff" stroke="#63b8ff" points="899.51,-131.53 910.1,-131.85 902.02,-125 899.51,-131.53"/>
</a>
</g>
</g>
<!-- Node5 -->
<g id="Node000005" class="node">
<title>Node5</title>
<g id="a_Node000005"><a xlink:href="memory_8cc.html" target="_top" xlink:title=" ">
<polygon fill="white" stroke="#666666" points="775.5,-24.5 664.5,-24.5 664.5,-5.5 775.5,-5.5 775.5,-24.5"/>
<text text-anchor="middle" x="720" y="-12.5" font-family="Helvetica,sans-Serif" font-size="10.00">src/utils/memory.cc</text>
</a>
</g>
</g>
<!-- Node2&#45;&gt;Node5 -->
<g id="edge30_Node000002_Node000005" class="edge">
<title>Node2&#45;&gt;Node5</title>
<g id="a_edge30_Node000002_Node000005"><a xlink:title=" ">
<path fill="none" stroke="#63b8ff" d="M917.36,-125.38C898.03,-109.3 865.68,-83.78 835,-66 805.05,-48.64 767.94,-33.56 744.12,-24.62"/>
<polygon fill="#63b8ff" stroke="#63b8ff" points="915.13,-128.08 925.04,-131.84 919.64,-122.72 915.13,-128.08"/>
</a>
</g>
</g>
<!-- Node6 -->
<g id="Node000006" class="node">
<title>Node6</title>
<g id="a_Node000006"><a xlink:href="modelreduce_8cc.html" target="_top" xlink:title=" ">
<polygon fill="white" stroke="#666666" points="931.5,-24.5 796.5,-24.5 796.5,-5.5 931.5,-5.5 931.5,-24.5"/>
<text text-anchor="middle" x="864" y="-12.5" font-family="Helvetica,sans-Serif" font-size="10.00">src/utils/modelreduce.cc</text>
</a>
</g>
</g>
<!-- Node2&#45;&gt;Node6 -->
<g id="edge31_Node000002_Node000006" class="edge">
<title>Node2&#45;&gt;Node6</title>
<g id="a_edge31_Node000002_Node000006"><a xlink:title=" ">
<path fill="none" stroke="#63b8ff" d="M925.12,-123.18C909.71,-96.15 880.5,-44.93 868.91,-24.62"/>
<polygon fill="#63b8ff" stroke="#63b8ff" points="922.13,-124.99 930.12,-131.94 928.21,-121.52 922.13,-124.99"/>
</a>
</g>
</g>
<!-- Node8 -->
<g id="Node000008" class="node">
<title>Node8</title>
<g id="a_Node000008"><a xlink:href="modelsolver_8cc.html" target="_top" xlink:title=" ">
<polygon fill="white" stroke="#666666" points="190.5,-24.5 59.5,-24.5 59.5,-5.5 190.5,-5.5 190.5,-24.5"/>
<text text-anchor="middle" x="125" y="-12.5" font-family="Helvetica,sans-Serif" font-size="10.00">src/utils/modelsolver.cc</text>
</a>
</g>
</g>
<!-- Node2&#45;&gt;Node8 -->
<g id="edge32_Node000002_Node000008" class="edge">
<title>Node2&#45;&gt;Node8</title>
<g id="a_edge32_Node000002_Node000008"><a xlink:title=" ">
<path fill="none" stroke="#63b8ff" d="M872.63,-139.73C703.86,-137.23 246.87,-127.59 187,-96 156.69,-80.01 136.58,-41.96 128.72,-24.74"/>
<polygon fill="#63b8ff" stroke="#63b8ff" points="872.79,-143.23 882.84,-139.88 872.89,-136.23 872.79,-143.23"/>
</a>
</g>
</g>
<!-- Node9 -->
<g id="Node000009" class="node">
<title>Node9</title>
<g id="a_Node000009"><a xlink:href="verification_8cc.html" target="_top" xlink:title=" ">
<polygon fill="white" stroke="#666666" points="335,-24.5 209,-24.5 209,-5.5 335,-5.5 335,-24.5"/>
<text text-anchor="middle" x="272" y="-12.5" font-family="Helvetica,sans-Serif" font-size="10.00">src/utils/verification.cc</text>
</a>
</g>
</g>
<!-- Node2&#45;&gt;Node9 -->
<g id="edge34_Node000002_Node000009" class="edge">
<title>Node2&#45;&gt;Node9</title>
<g id="a_edge34_Node000002_Node000009"><a xlink:title=" ">
<path fill="none" stroke="#63b8ff" d="M872.96,-139.05C699.4,-134.69 220.04,-120.47 197,-96 172.6,-70.08 223.86,-39.34 253.27,-24.65"/>
<polygon fill="#63b8ff" stroke="#63b8ff" points="872.88,-142.55 882.96,-139.3 873.05,-135.55 872.88,-142.55"/>
</a>
</g>
</g>
<!-- Node10 -->
<g id="Node000010" class="node">
<title>Node10</title>
<g id="a_Node000010"><a xlink:href="device__detail_8h.html" target="_top" xlink:title=" ">
<polygon fill="white" stroke="#666666" points="484.5,-90.5 355.5,-90.5 355.5,-71.5 484.5,-71.5 484.5,-90.5"/>
<text text-anchor="middle" x="420" y="-78.5" font-family="Helvetica,sans-Serif" font-size="10.00">include/device_detail.h</text>
</a>
</g>
</g>
<!-- Node2&#45;&gt;Node10 -->
<g id="edge9_Node000002_Node000010" class="edge">
<title>Node2&#45;&gt;Node10</title>
<g id="a_edge9_Node000002_Node000010"><a xlink:title=" ">
<path fill="none" stroke="#63b8ff" d="M872.82,-135.93C787.24,-129.25 628.47,-115.47 494,-96 483.52,-94.48 472.26,-92.52 461.77,-90.55"/>
<polygon fill="#63b8ff" stroke="#63b8ff" points="872.65,-139.43 882.89,-136.71 873.19,-132.45 872.65,-139.43"/>
</a>
</g>
</g>
<!-- Node11 -->
<g id="Node000011" class="node">
<title>Node11</title>
<g id="a_Node000011"><a xlink:href="compiler_8cpp.html" target="_top" xlink:title=" ">
<polygon fill="white" stroke="#666666" points="621,-96 503,-96 503,-66 621,-66 621,-96"/>
<text text-anchor="start" x="511" y="-84" font-family="Helvetica,sans-Serif" font-size="10.00">runtime_compilation</text>
<text text-anchor="middle" x="562" y="-73" font-family="Helvetica,sans-Serif" font-size="10.00">/compiler.cpp</text>
</a>
</g>
</g>
<!-- Node2&#45;&gt;Node11 -->
<g id="edge10_Node000002_Node000011" class="edge">
<title>Node2&#45;&gt;Node11</title>
<g id="a_edge10_Node000002_Node000011"><a xlink:title=" ">
<path fill="none" stroke="#63b8ff" d="M872.8,-132.5C811.04,-124.31 713.75,-110.72 630,-96 627.15,-95.5 624.24,-94.97 621.3,-94.42"/>
<polygon fill="#63b8ff" stroke="#63b8ff" points="872.4,-135.98 882.77,-133.82 873.32,-129.04 872.4,-135.98"/>
</a>
</g>
</g>
<!-- Node12 -->
<g id="Node000012" class="node">
<title>Node12</title>
<g id="a_Node000012"><a xlink:href="analysis__helpers_8cc.html" target="_top" xlink:title=" ">
<polygon fill="white" stroke="#666666" points="792.5,-90.5 639.5,-90.5 639.5,-71.5 792.5,-71.5 792.5,-90.5"/>
<text text-anchor="middle" x="716" y="-78.5" font-family="Helvetica,sans-Serif" font-size="10.00">src/core/analysis_helpers.cc</text>
</a>
</g>
</g>
<!-- Node2&#45;&gt;Node12 -->
<g id="edge11_Node000002_Node000012" class="edge">
<title>Node2&#45;&gt;Node12</title>
<g id="a_edge11_Node000002_Node000012"><a xlink:title=" ">
<path fill="none" stroke="#63b8ff" d="M893.43,-129.4C851.08,-118.08 786.34,-100.79 747.88,-90.52"/>
<polygon fill="#63b8ff" stroke="#63b8ff" points="892.59,-132.79 903.16,-131.99 894.4,-126.03 892.59,-132.79"/>
</a>
</g>
</g>
<!-- Node2&#45;&gt;Node13 -->
<g id="edge12_Node000002_Node000013" class="edge">
<title>Node2&#45;&gt;Node13</title>
<g id="a_edge12_Node000002_Node000013"><a xlink:title=" ">
<path fill="none" stroke="#63b8ff" d="M872.47,-140.09C736.27,-138.53 402.76,-131.11 126,-96 115.43,-94.66 104.06,-92.64 93.62,-90.55"/>
<polygon fill="#63b8ff" stroke="#63b8ff" points="872.68,-143.59 882.71,-140.2 872.75,-136.59 872.68,-143.59"/>
</a>
</g>
</g>
<!-- Node14 -->
<g id="Node000014" class="node">
<title>Node14</title>
<g id="a_Node000014"><a xlink:href="astaroth__fortran_8cc.html" target="_top" xlink:title=" ">
<polygon fill="white" stroke="#666666" points="1101,-24.5 951,-24.5 951,-5.5 1101,-5.5 1101,-24.5"/>
<text text-anchor="middle" x="1026" y="-12.5" font-family="Helvetica,sans-Serif" font-size="10.00">src/core/astaroth_fortran.cc</text>
</a>
</g>
</g>
<!-- Node2&#45;&gt;Node14 -->
<g id="edge13_Node000002_Node000014" class="edge">
<title>Node2&#45;&gt;Node14</title>
<g id="a_edge13_Node000002_Node000014"><a xlink:title=" ">
<path fill="none" stroke="#63b8ff" d="M936.16,-121.63C937.94,-105.59 942.49,-82.59 954,-66 967.19,-47 990.1,-32.93 1006.54,-24.64"/>
<polygon fill="#63b8ff" stroke="#63b8ff" points="932.64,-121.63 935.28,-131.89 939.62,-122.22 932.64,-121.63"/>
</a>
</g>
</g>
<!-- Node15 -->
<g id="Node000015" class="node">
<title>Node15</title>
<g id="a_Node000015"><a xlink:href="astaroth__fortran_8h.html" target="_top" xlink:title=" ">
<polygon fill="white" stroke="#666666" points="1109,-90.5 963,-90.5 963,-71.5 1109,-71.5 1109,-90.5"/>
<text text-anchor="middle" x="1036" y="-78.5" font-family="Helvetica,sans-Serif" font-size="10.00">src/core/astaroth_fortran.h</text>
</a>
</g>
</g>
<!-- Node2&#45;&gt;Node15 -->
<g id="edge14_Node000002_Node000015" class="edge">
<title>Node2&#45;&gt;Node15</title>
<g id="a_edge14_Node000002_Node000015"><a xlink:title=" ">
<path fill="none" stroke="#63b8ff" d="M958.7,-126.77C977.98,-115.6 1004.6,-100.19 1021.04,-90.67"/>
<polygon fill="#63b8ff" stroke="#63b8ff" points="956.8,-123.83 949.9,-131.87 960.31,-129.88 956.8,-123.83"/>
</a>
</g>
</g>
<!-- Node16 -->
<g id="Node000016" class="node">
<title>Node16</title>
<g id="a_Node000016"><a xlink:href="debug_8cc.html" target="_top" xlink:title=" ">
<polygon fill="white" stroke="#666666" points="1541.5,-24.5 1440.5,-24.5 1440.5,-5.5 1541.5,-5.5 1541.5,-24.5"/>
<text text-anchor="middle" x="1491" y="-12.5" font-family="Helvetica,sans-Serif" font-size="10.00">src/core/debug.cc</text>
</a>
</g>
</g>
<!-- Node2&#45;&gt;Node16 -->
<g id="edge16_Node000002_Node000016" class="edge">
<title>Node2&#45;&gt;Node16</title>
<g id="a_edge16_Node000002_Node000016"><a xlink:title=" ">
<path fill="none" stroke="#63b8ff" d="M997.14,-132.2C1033.67,-125.69 1079.98,-114.52 1118,-96 1137.34,-86.57 1136.25,-74.54 1156,-66 1250.59,-25.09 1372.66,-16.76 1440.27,-15.57"/>
<polygon fill="#63b8ff" stroke="#63b8ff" points="996.38,-128.78 987.12,-133.92 997.56,-135.68 996.38,-128.78"/>
</a>
</g>
</g>
<!-- Node17 -->
<g id="Node000017" class="node">
<title>Node17</title>
<g id="a_Node000017"><a xlink:href="decomposition_8cc.html" target="_top" xlink:title=" ">
<polygon fill="white" stroke="#666666" points="1295,-96 1165,-96 1165,-66 1295,-66 1295,-96"/>
<text text-anchor="start" x="1173" y="-84" font-family="Helvetica,sans-Serif" font-size="10.00">src/core/decomposition</text>
<text text-anchor="middle" x="1230" y="-73" font-family="Helvetica,sans-Serif" font-size="10.00">/decomposition.cc</text>
</a>
</g>
</g>
<!-- Node2&#45;&gt;Node17 -->
<g id="edge17_Node000002_Node000017" class="edge">
<title>Node2&#45;&gt;Node17</title>
<g id="a_edge17_Node000002_Node000017"><a xlink:title=" ">
<path fill="none" stroke="#63b8ff" d="M987.78,-130.03C1037.38,-120.2 1111.75,-105.45 1164.99,-94.89"/>
<polygon fill="#63b8ff" stroke="#63b8ff" points="987.02,-126.62 977.9,-131.99 988.39,-133.48 987.02,-126.62"/>
</a>
</g>
</g>
<!-- Node18 -->
<g id="Node000018" class="node">
<title>Node18</title>
<g id="a_Node000018"><a xlink:href="device_8cc.html" target="_top" xlink:title=" ">
<polygon fill="white" stroke="#666666" points="1417,-90.5 1313,-90.5 1313,-71.5 1417,-71.5 1417,-90.5"/>
<text text-anchor="middle" x="1365" y="-78.5" font-family="Helvetica,sans-Serif" font-size="10.00">src/core/device.cc</text>
</a>
</g>
</g>
<!-- Node2&#45;&gt;Node18 -->
<g id="edge18_Node000002_Node000018" class="edge">
<title>Node2&#45;&gt;Node18</title>
<g id="a_edge18_Node000002_Node000018"><a xlink:title=" ">
<path fill="none" stroke="#63b8ff" d="M997.22,-135.02C1070.81,-128.07 1196.85,-114.7 1304,-96 1312.67,-94.49 1321.96,-92.53 1330.61,-90.56"/>
<polygon fill="#63b8ff" stroke="#63b8ff" points="996.83,-131.54 987.2,-135.96 997.48,-138.51 996.83,-131.54"/>
</a>
</g>
</g>
<!-- Node19 -->
<g id="Node000019" class="node">
<title>Node19</title>
<g id="a_Node000019"><a xlink:href="grid_8cc.html" target="_top" xlink:title=" ">
<polygon fill="white" stroke="#666666" points="1970,-24.5 1880,-24.5 1880,-5.5 1970,-5.5 1970,-24.5"/>
<text text-anchor="middle" x="1925" y="-12.5" font-family="Helvetica,sans-Serif" font-size="10.00">src/core/grid.cc</text>
</a>
</g>
</g>
<!-- Node2&#45;&gt;Node19 -->
<g id="edge19_Node000002_Node000019" class="edge">
<title>Node2&#45;&gt;Node19</title>
<g id="a_edge19_Node000002_Node000019"><a xlink:title=" ">
<path fill="none" stroke="#63b8ff" d="M997.23,-140.17C1215.69,-138.71 1936.24,-131.24 1970,-96 1991.05,-74.02 1955.64,-40.31 1936.3,-24.6"/>
<polygon fill="#63b8ff" stroke="#63b8ff" points="997.19,-136.67 987.21,-140.24 997.23,-143.67 997.19,-136.67"/>
</a>
</g>
</g>
<!-- Node20 -->
<g id="Node000020" class="node">
<title>Node20</title>
<g id="a_Node000020"><a xlink:href="grid__commdata__based_8cc.html" target="_top" xlink:title=" ">
<polygon fill="white" stroke="#666666" points="1569,-96 1435,-96 1435,-66 1569,-66 1569,-96"/>
<text text-anchor="start" x="1443" y="-84" font-family="Helvetica,sans-Serif" font-size="10.00">src/core/grid_commdata</text>
<text text-anchor="middle" x="1502" y="-73" font-family="Helvetica,sans-Serif" font-size="10.00">_based.cc</text>
</a>
</g>
</g>
<!-- Node2&#45;&gt;Node20 -->
<g id="edge20_Node000002_Node000020" class="edge">
<title>Node2&#45;&gt;Node20</title>
<g id="a_edge20_Node000002_Node000020"><a xlink:title=" ">
<path fill="none" stroke="#63b8ff" d="M997.27,-136.7C1090.69,-130.57 1272.54,-117.04 1426,-96 1428.92,-95.6 1431.91,-95.16 1434.92,-94.7"/>
<polygon fill="#63b8ff" stroke="#63b8ff" points="996.89,-133.21 987.14,-137.35 997.35,-140.2 996.89,-133.21"/>
</a>
</g>
</g>
<!-- Node21 -->
<g id="Node000021" class="node">
<title>Node21</title>
<g id="a_Node000021"><a xlink:href="node_8cc.html" target="_top" xlink:title="Multi&#45;GPU implementation.">
<polygon fill="white" stroke="#666666" points="1682.5,-90.5 1587.5,-90.5 1587.5,-71.5 1682.5,-71.5 1682.5,-90.5"/>
<text text-anchor="middle" x="1635" y="-78.5" font-family="Helvetica,sans-Serif" font-size="10.00">src/core/node.cc</text>
</a>
</g>
</g>
<!-- Node2&#45;&gt;Node21 -->
<g id="edge21_Node000002_Node000021" class="edge">
<title>Node2&#45;&gt;Node21</title>
<g id="a_edge21_Node000002_Node000021"><a xlink:title=" ">
<path fill="none" stroke="#63b8ff" d="M997.06,-139.74C1112.23,-137.54 1366.58,-129.03 1578,-96 1586.66,-94.65 1595.93,-92.62 1604.43,-90.53"/>
<polygon fill="#63b8ff" stroke="#63b8ff" points="996.95,-136.24 987.01,-139.92 997.07,-143.24 996.95,-136.24"/>
</a>
</g>
</g>
<!-- Node22 -->
<g id="Node000022" class="node">
<title>Node22</title>
<g id="a_Node000022"><a xlink:href="task_8cc.html" target="_top" xlink:title=" ">
<polygon fill="white" stroke="#666666" points="2244,-24.5 2152,-24.5 2152,-5.5 2244,-5.5 2244,-24.5"/>
<text text-anchor="middle" x="2198" y="-12.5" font-family="Helvetica,sans-Serif" font-size="10.00">src/core/task.cc</text>
</a>
</g>
</g>
<!-- Node2&#45;&gt;Node22 -->
<g id="edge22_Node000002_Node000022" class="edge">
<title>Node2&#45;&gt;Node22</title>
<g id="a_edge22_Node000002_Node000022"><a xlink:title=" ">
<path fill="none" stroke="#63b8ff" d="M997.18,-140.72C1225.68,-141.16 2010.97,-139.49 2114,-96 2150.37,-80.65 2180.29,-41.91 2192.31,-24.59"/>
<polygon fill="#63b8ff" stroke="#63b8ff" points="997.05,-137.22 987.05,-140.69 997.04,-144.22 997.05,-137.22"/>
</a>
</g>
</g>
<!-- Node23 -->
<g id="Node000023" class="node">
<title>Node23</title>
<g id="a_Node000023"><a xlink:href="task_8h.html" target="_top" xlink:title=" ">
<polygon fill="white" stroke="#666666" points="2105,-90.5 2017,-90.5 2017,-71.5 2105,-71.5 2105,-90.5"/>
<text text-anchor="middle" x="2061" y="-78.5" font-family="Helvetica,sans-Serif" font-size="10.00">src/core/task.h</text>
</a>
</g>
</g>
<!-- Node2&#45;&gt;Node23 -->
<g id="edge23_Node000002_Node000023" class="edge">
<title>Node2&#45;&gt;Node23</title>
<g id="a_edge23_Node000002_Node000023"><a xlink:title=" ">
<path fill="none" stroke="#63b8ff" d="M997.5,-139.5C1195.43,-136.07 1806.88,-123.49 2003,-96 2012.03,-94.73 2021.7,-92.69 2030.51,-90.54"/>
<polygon fill="#63b8ff" stroke="#63b8ff" points="997.22,-136 987.28,-139.67 997.34,-143 997.22,-136"/>
</a>
</g>
</g>
<!-- Node25 -->
<g id="Node000025" class="node">
<title>Node25</title>
<g id="a_Node000025"><a xlink:href="update__params_8cc.html" target="_top" xlink:title=" ">
<polygon fill="white" stroke="#666666" points="1835,-96 1701,-96 1701,-66 1835,-66 1835,-96"/>
<text text-anchor="start" x="1709" y="-84" font-family="Helvetica,sans-Serif" font-size="10.00">src/core/update_params</text>
<text text-anchor="middle" x="1768" y="-73" font-family="Helvetica,sans-Serif" font-size="10.00">/update_params.cc</text>
</a>
</g>
</g>
<!-- Node2&#45;&gt;Node25 -->
<g id="edge28_Node000002_Node000025" class="edge">
<title>Node2&#45;&gt;Node25</title>
<g id="a_edge28_Node000002_Node000025"><a xlink:title=" ">
<path fill="none" stroke="#63b8ff" d="M997.58,-139.38C1127.32,-136.48 1434.89,-126.71 1691,-96 1694.24,-95.61 1697.55,-95.17 1700.88,-94.7"/>
<polygon fill="#63b8ff" stroke="#63b8ff" points="997.36,-135.88 987.44,-139.6 997.51,-142.88 997.36,-135.88"/>
</a>
</g>
</g>
<!-- Node26 -->
<g id="Node000026" class="node">
<title>Node26</title>
<g id="a_Node000026"><a xlink:href="profiles_8cc.html" target="_top" xlink:title="Brief info.">
<polygon fill="white" stroke="#666666" points="1960.5,-90.5 1853.5,-90.5 1853.5,-71.5 1960.5,-71.5 1960.5,-90.5"/>
<text text-anchor="middle" x="1907" y="-78.5" font-family="Helvetica,sans-Serif" font-size="10.00">src/utils/profiles.cc</text>
</a>
</g>
</g>
<!-- Node2&#45;&gt;Node26 -->
<g id="edge33_Node000002_Node000026" class="edge">
<title>Node2&#45;&gt;Node26</title>
<g id="a_edge33_Node000002_Node000026"><a xlink:title=" ">
<path fill="none" stroke="#63b8ff" d="M997.26,-141.08C1144.96,-141.66 1527.84,-138.55 1844,-96 1853.66,-94.7 1864.03,-92.67 1873.51,-90.55"/>
<polygon fill="#63b8ff" stroke="#63b8ff" points="997.05,-137.58 987.04,-141.03 997.02,-144.58 997.05,-137.58"/>
</a>
</g>
</g>
<!-- Node3&#45;&gt;Node4 -->
<g id="edge3_Node000003_Node000004" class="edge">
<title>Node3&#45;&gt;Node4</title>
<g id="a_edge3_Node000003_Node000004"><a xlink:title=" ">
<path fill="none" stroke="#63b8ff" d="M322.16,-69.34C381.34,-56.75 478.57,-36.08 532.96,-24.51"/>
<polygon fill="#63b8ff" stroke="#63b8ff" points="321.34,-65.93 312.28,-71.44 322.79,-72.78 321.34,-65.93"/>
</a>
</g>
</g>
<!-- Node3&#45;&gt;Node5 -->
<g id="edge4_Node000003_Node000005" class="edge">
<title>Node3&#45;&gt;Node5</title>
<g id="a_edge4_Node000003_Node000005"><a xlink:title=" ">
<path fill="none" stroke="#63b8ff" d="M324.08,-69.68C331.42,-68.36 338.89,-67.09 346,-66 480.48,-45.34 515.63,-51.36 650,-30 659.79,-28.44 670.3,-26.49 680.12,-24.55"/>
<polygon fill="#63b8ff" stroke="#63b8ff" points="323.38,-66.25 314.18,-71.5 324.64,-73.13 323.38,-66.25"/>
</a>
</g>
</g>
<!-- Node3&#45;&gt;Node6 -->
<g id="edge5_Node000003_Node000006" class="edge">
<title>Node3&#45;&gt;Node6</title>
<g id="a_edge5_Node000003_Node000006"><a xlink:title=" ">
<path fill="none" stroke="#63b8ff" d="M322.95,-69.63C330.66,-68.28 338.52,-67.01 346,-66 539.56,-39.81 590.27,-54.86 784,-30 795.47,-28.53 807.8,-26.56 819.26,-24.57"/>
<polygon fill="#63b8ff" stroke="#63b8ff" points="322.18,-66.22 312.97,-71.45 323.44,-73.1 322.18,-66.22"/>
</a>
</g>
</g>
<!-- Node7 -->
<g id="Node000007" class="node">
<title>Node7</title>
<g id="a_Node000007"><a xlink:href="modelsolver-legacy-do-not-modify_8c.html" target="_top" xlink:title=" ">
<polygon fill="white" stroke="#666666" points="485,-30 353,-30 353,0 485,0 485,-30"/>
<text text-anchor="start" x="361" y="-18" font-family="Helvetica,sans-Serif" font-size="10.00">src/utils/modelsolver</text>
<text text-anchor="middle" x="419" y="-7" font-family="Helvetica,sans-Serif" font-size="10.00">&#45;legacy&#45;do&#45;not&#45;modify.c</text>
</a>
</g>
</g>
<!-- Node3&#45;&gt;Node7 -->
<g id="edge6_Node000003_Node000007" class="edge">
<title>Node3&#45;&gt;Node7</title>
<g id="a_edge6_Node000003_Node000007"><a xlink:title=" ">
<path fill="none" stroke="#63b8ff" d="M301.03,-67.36C325.67,-56.63 361.01,-41.25 386.58,-30.12"/>
<polygon fill="#63b8ff" stroke="#63b8ff" points="299.6,-64.17 291.83,-71.37 302.39,-70.59 299.6,-64.17"/>
</a>
</g>
</g>
<!-- Node3&#45;&gt;Node8 -->
<g id="edge7_Node000003_Node000008" class="edge">
<title>Node3&#45;&gt;Node8</title>
<g id="a_edge7_Node000003_Node000008"><a xlink:title=" ">
<path fill="none" stroke="#63b8ff" d="M242.96,-67.36C214,-54.75 170.26,-35.71 144.98,-24.7"/>
<polygon fill="#63b8ff" stroke="#63b8ff" points="241.61,-70.59 252.17,-71.37 244.4,-64.17 241.61,-70.59"/>
</a>
</g>
</g>
<!-- Node3&#45;&gt;Node9 -->
<g id="edge8_Node000003_Node000009" class="edge">
<title>Node3&#45;&gt;Node9</title>
<g id="a_edge8_Node000003_Node000009"><a xlink:title=" ">
<path fill="none" stroke="#63b8ff" d="M272,-61.08C272,-49.13 272,-34.22 272,-24.91"/>
<polygon fill="#63b8ff" stroke="#63b8ff" points="268.5,-61.37 272,-71.37 275.5,-61.37 268.5,-61.37"/>
</a>
</g>
</g>
<!-- Node15&#45;&gt;Node14 -->
<g id="edge15_Node000015_Node000014" class="edge">
<title>Node15&#45;&gt;Node14</title>
<g id="a_edge15_Node000015_Node000014"><a xlink:title=" ">
<path fill="none" stroke="#63b8ff" d="M1033.1,-61.45C1031.22,-49.43 1028.86,-34.32 1027.39,-24.91"/>
<polygon fill="#63b8ff" stroke="#63b8ff" points="1029.65,-62.03 1034.65,-71.37 1036.57,-60.95 1029.65,-62.03"/>
</a>
</g>
</g>
<!-- Node23&#45;&gt;Node16 -->
<g id="edge25_Node000023_Node000016" class="edge">
<title>Node23&#45;&gt;Node16</title>
<g id="a_edge25_Node000023_Node000016"><a xlink:title=" ">
<path fill="none" stroke="#63b8ff" d="M2006.69,-71.2C1994.62,-69.37 1981.89,-67.53 1970,-66 1814.31,-45.91 1629.34,-28.39 1541.79,-20.48"/>
<polygon fill="#63b8ff" stroke="#63b8ff" points="2006.21,-74.67 2016.63,-72.73 2007.28,-67.75 2006.21,-74.67"/>
</a>
</g>
</g>
<!-- Node23&#45;&gt;Node19 -->
<g id="edge26_Node000023_Node000019" class="edge">
<title>Node23&#45;&gt;Node19</title>
<g id="a_edge26_Node000023_Node000019"><a xlink:title=" ">
<path fill="none" stroke="#63b8ff" d="M2033.44,-67.03C2006.63,-54.42 1966.67,-35.61 1943.49,-24.7"/>
<polygon fill="#63b8ff" stroke="#63b8ff" points="2032.12,-70.28 2042.66,-71.37 2035.1,-63.94 2032.12,-70.28"/>
</a>
</g>
</g>
<!-- Node23&#45;&gt;Node22 -->
<g id="edge27_Node000023_Node000022" class="edge">
<title>Node23&#45;&gt;Node22</title>
<g id="a_edge27_Node000023_Node000022"><a xlink:title=" ">
<path fill="none" stroke="#63b8ff" d="M2088.77,-67.03C2115.77,-54.42 2156.02,-35.61 2179.38,-24.7"/>
<polygon fill="#63b8ff" stroke="#63b8ff" points="2087.06,-63.97 2079.48,-71.37 2090.02,-70.31 2087.06,-63.97"/>
</a>
</g>
</g>
<!-- Node24 -->
<g id="Node000024" class="node">
<title>Node24</title>
<g id="a_Node000024"><a xlink:href="compute__steps_8cc.html" target="_top" xlink:title=" ">
<polygon fill="white" stroke="#666666" points="2134,-24.5 1988,-24.5 1988,-5.5 2134,-5.5 2134,-24.5"/>
<text text-anchor="middle" x="2061" y="-12.5" font-family="Helvetica,sans-Serif" font-size="10.00">src/core/compute_steps.cc</text>
</a>
</g>
</g>
<!-- Node23&#45;&gt;Node24 -->
<g id="edge24_Node000023_Node000024" class="edge">
<title>Node23&#45;&gt;Node24</title>
<g id="a_edge24_Node000023_Node000024"><a xlink:title=" ">
<path fill="none" stroke="#63b8ff" d="M2061,-61.08C2061,-49.13 2061,-34.22 2061,-24.91"/>
<polygon fill="#63b8ff" stroke="#63b8ff" points="2057.5,-61.37 2061,-71.37 2064.5,-61.37 2057.5,-61.37"/>
</a>
</g>
</g>
</g>
</svg>
