<?xml version="1.0" encoding="UTF-8" standalone="no"?>
<!DOCTYPE svg PUBLIC "-//W3C//DTD SVG 1.1//EN"
 "http://www.w3.org/Graphics/SVG/1.1/DTD/svg11.dtd">
<!-- Generated by graphviz version 2.43.0 (0)
 -->
<!-- Title: src/core/astaroth_fortran.h Pages: 1 -->
<svg width="3990pt" height="379pt"
 viewBox="0.00 0.00 3990.00 379.00" xmlns="http://www.w3.org/2000/svg" xmlns:xlink="http://www.w3.org/1999/xlink">
<g id="graph0" class="graph" transform="scale(1 1) rotate(0) translate(4 375)">
<title>src/core/astaroth_fortran.h</title>
<!-- Node1 -->
<g id="Node000001" class="node">
<title>Node1</title>
<g id="a_Node000001"><a xlink:title=" ">
<polygon fill="#999999" stroke="#666666" points="3252.5,-371 3106.5,-371 3106.5,-352 3252.5,-352 3252.5,-371"/>
<text text-anchor="middle" x="3179.5" y="-359" font-family="Helvetica,sans-Serif" font-size="10.00">src/core/astaroth_fortran.h</text>
</a>
</g>
</g>
<!-- Node2 -->
<g id="Node000002" class="node">
<title>Node2</title>
<g id="a_Node000002"><a xlink:href="astaroth_8h.html" target="_top" xlink:title=" ">
<polygon fill="white" stroke="#666666" points="3212.5,-316 3146.5,-316 3146.5,-297 3212.5,-297 3212.5,-316"/>
<text text-anchor="middle" x="3179.5" y="-304" font-family="Helvetica,sans-Serif" font-size="10.00">astaroth.h</text>
</a>
</g>
</g>
<!-- Node1&#45;&gt;Node2 -->
<g id="edge1_Node000001_Node000002" class="edge">
<title>Node1&#45;&gt;Node2</title>
<g id="a_edge1_Node000001_Node000002"><a xlink:title=" ">
<path fill="none" stroke="#63b8ff" d="M3179.5,-351.75C3179.5,-344.8 3179.5,-334.85 3179.5,-326.13"/>
<polygon fill="#63b8ff" stroke="#63b8ff" points="3183,-326.09 3179.5,-316.09 3176,-326.09 3183,-326.09"/>
</a>
</g>
</g>
<!-- Node3 -->
<g id="Node000003" class="node">
<title>Node3</title>
<g id="a_Node000003"><a xlink:href="astaroth__base_8h.html" target="_top" xlink:title=" ">
<polygon fill="white" stroke="#666666" points="2091,-261 1996,-261 1996,-242 2091,-242 2091,-261"/>
<text text-anchor="middle" x="2043.5" y="-249" font-family="Helvetica,sans-Serif" font-size="10.00">astaroth_base.h</text>
</a>
</g>
</g>
<!-- Node2&#45;&gt;Node3 -->
<g id="edge2_Node000002_Node000003" class="edge">
<title>Node2&#45;&gt;Node3</title>
<g id="a_edge2_Node000002_Node000003"><a xlink:title=" ">
<path fill="none" stroke="#63b8ff" d="M3146.42,-303.96C2987.97,-296.56 2305.81,-264.74 2101.52,-255.21"/>
<polygon fill="#63b8ff" stroke="#63b8ff" points="2101.46,-251.7 2091.31,-254.73 2101.13,-258.69 2101.46,-251.7"/>
</a>
</g>
</g>
<!-- Node44 -->
<g id="Node000044" class="node">
<title>Node44</title>
<g id="a_Node000044"><a xlink:href="astaroth__grid_8h.html" target="_top" xlink:title=" ">
<polygon fill="white" stroke="#666666" points="2735.5,-261 2645.5,-261 2645.5,-242 2735.5,-242 2735.5,-261"/>
<text text-anchor="middle" x="2690.5" y="-249" font-family="Helvetica,sans-Serif" font-size="10.00">astaroth_grid.h</text>
</a>
</g>
</g>
<!-- Node2&#45;&gt;Node44 -->
<g id="edge47_Node000002_Node000044" class="edge">
<title>Node2&#45;&gt;Node44</title>
<g id="a_edge47_Node000002_Node000044"><a xlink:title=" ">
<path fill="none" stroke="#63b8ff" d="M3146.41,-302.73C3075.18,-296.64 2901.79,-281.1 2745.8,-261.1"/>
<polygon fill="#63b8ff" stroke="#63b8ff" points="2745.92,-257.59 2735.55,-259.78 2745.02,-264.53 2745.92,-257.59"/>
</a>
</g>
</g>
<!-- Node45 -->
<g id="Node000045" class="node">
<title>Node45</title>
<g id="a_Node000045"><a xlink:href="astaroth__node_8h.html" target="_top" xlink:title=" ">
<polygon fill="white" stroke="#666666" points="2849,-261 2754,-261 2754,-242 2849,-242 2849,-261"/>
<text text-anchor="middle" x="2801.5" y="-249" font-family="Helvetica,sans-Serif" font-size="10.00">astaroth_node.h</text>
</a>
</g>
</g>
<!-- Node2&#45;&gt;Node45 -->
<g id="edge48_Node000002_Node000045" class="edge">
<title>Node2&#45;&gt;Node45</title>
<g id="a_edge48_Node000002_Node000045"><a xlink:title=" ">
<path fill="none" stroke="#63b8ff" d="M3146.21,-301C3089.6,-293.32 2970.71,-277.09 2859.16,-261.08"/>
<polygon fill="#63b8ff" stroke="#63b8ff" points="2859.48,-257.59 2849.08,-259.63 2858.48,-264.52 2859.48,-257.59"/>
</a>
</g>
</g>
<!-- Node46 -->
<g id="Node000046" class="node">
<title>Node46</title>
<g id="a_Node000046"><a xlink:href="astaroth__device_8h.html" target="_top" xlink:title=" ">
<polygon fill="white" stroke="#666666" points="2971.5,-261 2867.5,-261 2867.5,-242 2971.5,-242 2971.5,-261"/>
<text text-anchor="middle" x="2919.5" y="-249" font-family="Helvetica,sans-Serif" font-size="10.00">astaroth_device.h</text>
</a>
</g>
</g>
<!-- Node2&#45;&gt;Node46 -->
<g id="edge49_Node000002_Node000046" class="edge">
<title>Node2&#45;&gt;Node46</title>
<g id="a_edge49_Node000002_Node000046"><a xlink:title=" ">
<path fill="none" stroke="#63b8ff" d="M3146.31,-298.73C3102.16,-289.73 3023.64,-273.73 2971.57,-263.11"/>
<polygon fill="#63b8ff" stroke="#63b8ff" points="2972.02,-259.63 2961.52,-261.07 2970.62,-266.49 2972.02,-259.63"/>
</a>
</g>
</g>
<!-- Node49 -->
<g id="Node000049" class="node">
<title>Node49</title>
<g id="a_Node000049"><a xlink:href="astaroth__legacy_8h.html" target="_top" xlink:title=" ">
<polygon fill="white" stroke="#666666" points="3091.5,-261 2989.5,-261 2989.5,-242 3091.5,-242 3091.5,-261"/>
<text text-anchor="middle" x="3040.5" y="-249" font-family="Helvetica,sans-Serif" font-size="10.00">astaroth_legacy.h</text>
</a>
</g>
</g>
<!-- Node2&#45;&gt;Node49 -->
<g id="edge52_Node000002_Node000049" class="edge">
<title>Node2&#45;&gt;Node49</title>
<g id="a_edge52_Node000002_Node000049"><a xlink:title=" ">
<path fill="none" stroke="#63b8ff" d="M3157.17,-296.98C3134.3,-288.27 3098.54,-274.63 3072.64,-264.75"/>
<polygon fill="#63b8ff" stroke="#63b8ff" points="3073.83,-261.46 3063.24,-261.17 3071.34,-268 3073.83,-261.46"/>
</a>
</g>
</g>
<!-- Node50 -->
<g id="Node000050" class="node">
<title>Node50</title>
<g id="a_Node000050"><a xlink:title=" ">
<polygon fill="#e0e0e0" stroke="#999999" points="3249,-261 3110,-261 3110,-242 3249,-242 3249,-261"/>
<text text-anchor="middle" x="3179.5" y="-249" font-family="Helvetica,sans-Serif" font-size="10.00">device_set_input_decls.h</text>
</a>
</g>
</g>
<!-- Node2&#45;&gt;Node50 -->
<g id="edge53_Node000002_Node000050" class="edge">
<title>Node2&#45;&gt;Node50</title>
<g id="a_edge53_Node000002_Node000050"><a xlink:title=" ">
<path fill="none" stroke="#63b8ff" d="M3179.5,-296.75C3179.5,-289.8 3179.5,-279.85 3179.5,-271.13"/>
<polygon fill="#63b8ff" stroke="#63b8ff" points="3183,-271.09 3179.5,-261.09 3176,-271.09 3183,-271.09"/>
</a>
</g>
</g>
<!-- Node51 -->
<g id="Node000051" class="node">
<title>Node51</title>
<g id="a_Node000051"><a xlink:title=" ">
<polygon fill="#e0e0e0" stroke="#999999" points="3413.5,-261 3267.5,-261 3267.5,-242 3413.5,-242 3413.5,-261"/>
<text text-anchor="middle" x="3340.5" y="-249" font-family="Helvetica,sans-Serif" font-size="10.00">device_get_output_decls.h</text>
</a>
</g>
</g>
<!-- Node2&#45;&gt;Node51 -->
<g id="edge54_Node000002_Node000051" class="edge">
<title>Node2&#45;&gt;Node51</title>
<g id="a_edge54_Node000002_Node000051"><a xlink:title=" ">
<path fill="none" stroke="#63b8ff" d="M3205.37,-296.98C3232.28,-288.13 3274.62,-274.19 3304.73,-264.28"/>
<polygon fill="#63b8ff" stroke="#63b8ff" points="3306.03,-267.53 3314.43,-261.08 3303.84,-260.88 3306.03,-267.53"/>
</a>
</g>
</g>
<!-- Node52 -->
<g id="Node000052" class="node">
<title>Node52</title>
<g id="a_Node000052"><a xlink:title=" ">
<polygon fill="#e0e0e0" stroke="#999999" points="3571.5,-261 3431.5,-261 3431.5,-242 3571.5,-242 3571.5,-261"/>
<text text-anchor="middle" x="3501.5" y="-249" font-family="Helvetica,sans-Serif" font-size="10.00">device_get_input_decls.h</text>
</a>
</g>
</g>
<!-- Node2&#45;&gt;Node52 -->
<g id="edge55_Node000002_Node000052" class="edge">
<title>Node2&#45;&gt;Node52</title>
<g id="a_edge55_Node000002_Node000052"><a xlink:title=" ">
<path fill="none" stroke="#63b8ff" d="M3212.75,-300.03C3266.16,-291.24 3371.95,-273.82 3439.57,-262.69"/>
<polygon fill="#63b8ff" stroke="#63b8ff" points="3440.38,-266.11 3449.67,-261.03 3439.24,-259.2 3440.38,-266.11"/>
</a>
</g>
</g>
<!-- Node53 -->
<g id="Node000053" class="node">
<title>Node53</title>
<g id="a_Node000053"><a xlink:title=" ">
<polygon fill="#e0e0e0" stroke="#999999" points="3719.5,-261 3589.5,-261 3589.5,-242 3719.5,-242 3719.5,-261"/>
<text text-anchor="middle" x="3654.5" y="-249" font-family="Helvetica,sans-Serif" font-size="10.00">get_vtxbufs_declares.h</text>
</a>
</g>
</g>
<!-- Node2&#45;&gt;Node53 -->
<g id="edge56_Node000002_Node000053" class="edge">
<title>Node2&#45;&gt;Node53</title>
<g id="a_edge56_Node000002_Node000053"><a xlink:title=" ">
<path fill="none" stroke="#63b8ff" d="M3212.51,-301.88C3279.47,-294.53 3436.32,-277.26 3578.89,-261.18"/>
<polygon fill="#63b8ff" stroke="#63b8ff" points="3579.59,-264.62 3589.13,-260.02 3578.8,-257.67 3579.59,-264.62"/>
</a>
</g>
</g>
<!-- Node54 -->
<g id="Node000054" class="node">
<title>Node54</title>
<g id="a_Node000054"><a xlink:href="astaroth__runtime__compilation_8h.html" target="_top" xlink:title=" ">
<polygon fill="white" stroke="#666666" points="3911,-261 3738,-261 3738,-242 3911,-242 3911,-261"/>
<text text-anchor="middle" x="3824.5" y="-249" font-family="Helvetica,sans-Serif" font-size="10.00">astaroth_runtime_compilation.h</text>
</a>
</g>
</g>
<!-- Node2&#45;&gt;Node54 -->
<g id="edge57_Node000002_Node000054" class="edge">
<title>Node2&#45;&gt;Node54</title>
<g id="a_edge57_Node000002_Node000054"><a xlink:title=" ">
<path fill="none" stroke="#63b8ff" d="M3212.62,-302.9C3296.64,-296.29 3525.17,-278.2 3727.66,-261.06"/>
<polygon fill="#63b8ff" stroke="#63b8ff" points="3728.23,-264.53 3737.9,-260.2 3727.64,-257.55 3728.23,-264.53"/>
</a>
</g>
</g>
<!-- Node55 -->
<g id="Node000055" class="node">
<title>Node55</title>
<g id="a_Node000055"><a xlink:title=" ">
<polygon fill="#e0e0e0" stroke="#999999" points="3982,-261 3929,-261 3929,-242 3982,-242 3982,-261"/>
<text text-anchor="middle" x="3955.5" y="-249" font-family="Helvetica,sans-Serif" font-size="10.00">string.h</text>
</a>
</g>
</g>
<!-- Node2&#45;&gt;Node55 -->
<g id="edge58_Node000002_Node000055" class="edge">
<title>Node2&#45;&gt;Node55</title>
<g id="a_edge58_Node000002_Node000055"><a xlink:title=" ">
<path fill="none" stroke="#63b8ff" d="M3212.59,-305.61C3315.83,-305.5 3641.28,-301.82 3918.59,-261.02"/>
<polygon fill="#63b8ff" stroke="#63b8ff" points="3919.47,-264.43 3928.84,-259.49 3918.44,-257.51 3919.47,-264.43"/>
</a>
</g>
</g>
<!-- Node4 -->
<g id="Node000004" class="node">
<title>Node4</title>
<g id="a_Node000004"><a xlink:title=" ">
<polygon fill="#e0e0e0" stroke="#999999" points="2724.5,-74 2662.5,-74 2662.5,-55 2724.5,-55 2724.5,-74"/>
<text text-anchor="middle" x="2693.5" y="-62" font-family="Helvetica,sans-Serif" font-size="10.00">stdbool.h</text>
</a>
</g>
</g>
<!-- Node3&#45;&gt;Node4 -->
<g id="edge3_Node000003_Node000004" class="edge">
<title>Node3&#45;&gt;Node4</title>
<g id="a_edge3_Node000003_Node000004"><a xlink:title=" ">
<path fill="none" stroke="#63b8ff" d="M2091.09,-247.3C2251.61,-236.02 2765.78,-195.77 2812.5,-140 2838.93,-108.45 2778.73,-86.11 2734.67,-74.56"/>
<polygon fill="#63b8ff" stroke="#63b8ff" points="2735.27,-71.1 2724.72,-72.05 2733.57,-77.89 2735.27,-71.1"/>
</a>
</g>
</g>
<!-- Node5 -->
<g id="Node000005" class="node">
<title>Node5</title>
<g id="a_Node000005"><a xlink:href="acc__runtime_8h.html" target="_top" xlink:title=" ">
<polygon fill="white" stroke="#666666" points="1596.5,-200.5 1510.5,-200.5 1510.5,-181.5 1596.5,-181.5 1596.5,-200.5"/>
<text text-anchor="middle" x="1553.5" y="-188.5" font-family="Helvetica,sans-Serif" font-size="10.00">acc_runtime.h</text>
</a>
</g>
</g>
<!-- Node3&#45;&gt;Node5 -->
<g id="edge4_Node000003_Node000005" class="edge">
<title>Node3&#45;&gt;Node5</title>
<g id="a_edge4_Node000003_Node000005"><a xlink:title=" ">
<path fill="none" stroke="#63b8ff" d="M1995.62,-244.78C1903.61,-233.8 1702.72,-209.81 1606.68,-198.35"/>
<polygon fill="#63b8ff" stroke="#63b8ff" points="1606.96,-194.86 1596.62,-197.15 1606.13,-201.81 1606.96,-194.86"/>
</a>
</g>
</g>
<!-- Node25 -->
<g id="Node000025" class="node">
<title>Node25</title>
<g id="a_Node000025"><a xlink:title=" ">
<polygon fill="#e0e0e0" stroke="#999999" points="195,-134.5 56,-134.5 56,-115.5 195,-115.5 195,-134.5"/>
<text text-anchor="middle" x="125.5" y="-122.5" font-family="Helvetica,sans-Serif" font-size="10.00">user_built&#45;in_constants.h</text>
</a>
</g>
</g>
<!-- Node3&#45;&gt;Node25 -->
<g id="edge45_Node000003_Node000025" class="edge">
<title>Node3&#45;&gt;Node25</title>
<g id="a_edge45_Node000003_Node000025"><a xlink:title=" ">
<path fill="none" stroke="#63b8ff" d="M1995.77,-250.02C1880.74,-248.32 1591.11,-240.63 1501.5,-206 1481.1,-198.12 1483.1,-183.34 1462.5,-176 1330.24,-128.9 339.08,-155.1 199.5,-140 191.27,-139.11 182.6,-137.81 174.19,-136.34"/>
<polygon fill="#63b8ff" stroke="#63b8ff" points="174.58,-132.86 164.12,-134.5 173.32,-139.74 174.58,-132.86"/>
</a>
</g>
</g>
<!-- Node39 -->
<g id="Node000039" class="node">
<title>Node39</title>
<g id="a_Node000039"><a xlink:href="func__define_8h.html" target="_top" xlink:title=" ">
<polygon fill="white" stroke="#666666" points="2803.5,-134.5 2721.5,-134.5 2721.5,-115.5 2803.5,-115.5 2803.5,-134.5"/>
<text text-anchor="middle" x="2762.5" y="-122.5" font-family="Helvetica,sans-Serif" font-size="10.00">func_define.h</text>
</a>
</g>
</g>
<!-- Node3&#45;&gt;Node39 -->
<g id="edge44_Node000003_Node000039" class="edge">
<title>Node3&#45;&gt;Node39</title>
<g id="a_edge44_Node000003_Node000039"><a xlink:title=" ">
<path fill="none" stroke="#63b8ff" d="M2091.26,-243.96C2200.77,-228.67 2478.2,-188.17 2707.5,-140 2711.9,-139.07 2716.49,-138.03 2721.05,-136.95"/>
<polygon fill="#63b8ff" stroke="#63b8ff" points="2722.03,-140.31 2730.91,-134.53 2720.36,-133.51 2722.03,-140.31"/>
</a>
</g>
</g>
<!-- Node43 -->
<g id="Node000043" class="node">
<title>Node43</title>
<g id="a_Node000043"><a xlink:title=" ">
<polygon fill="#e0e0e0" stroke="#999999" points="1454,-206 1323,-206 1323,-176 1454,-176 1454,-206"/>
<text text-anchor="start" x="1331" y="-194" font-family="Helvetica,sans-Serif" font-size="10.00">user_builtin_non_scalar</text>
<text text-anchor="middle" x="1388.5" y="-183" font-family="Helvetica,sans-Serif" font-size="10.00">_constants.h</text>
</a>
</g>
</g>
<!-- Node3&#45;&gt;Node43 -->
<g id="edge46_Node000003_Node000043" class="edge">
<title>Node3&#45;&gt;Node43</title>
<g id="a_edge46_Node000003_Node000043"><a xlink:title=" ">
<path fill="none" stroke="#63b8ff" d="M1995.64,-248.35C1896.82,-243.58 1663.21,-230.51 1468.5,-206 1467.2,-205.84 1465.89,-205.67 1464.57,-205.49"/>
<polygon fill="#63b8ff" stroke="#63b8ff" points="1464.74,-201.98 1454.35,-204.04 1463.75,-208.91 1464.74,-201.98"/>
</a>
</g>
</g>
<!-- Node5&#45;&gt;Node4 -->
<g id="edge6_Node000005_Node000004" class="edge">
<title>Node5&#45;&gt;Node4</title>
<g id="a_edge6_Node000005_Node000004"><a xlink:title=" ">
<path fill="none" stroke="#63b8ff" d="M1596.63,-189.5C1797.33,-187.01 2631.97,-174.59 2674.5,-140 2690.81,-126.73 2694.24,-101.59 2694.47,-84.21"/>
<polygon fill="#63b8ff" stroke="#63b8ff" points="2697.97,-84.03 2694.26,-74.11 2690.97,-84.18 2697.97,-84.03"/>
</a>
</g>
</g>
<!-- Node6 -->
<g id="Node000006" class="node">
<title>Node6</title>
<g id="a_Node000006"><a xlink:title=" ">
<polygon fill="#e0e0e0" stroke="#999999" points="2625.5,-74 2575.5,-74 2575.5,-55 2625.5,-55 2625.5,-74"/>
<text text-anchor="middle" x="2600.5" y="-62" font-family="Helvetica,sans-Serif" font-size="10.00">stdio.h</text>
</a>
</g>
</g>
<!-- Node5&#45;&gt;Node6 -->
<g id="edge5_Node000005_Node000006" class="edge">
<title>Node5&#45;&gt;Node6</title>
<g id="a_edge5_Node000005_Node000006"><a xlink:title=" ">
<path fill="none" stroke="#63b8ff" d="M1596.61,-190.38C1778.86,-191.64 2480.59,-193 2562.5,-140 2581.88,-127.46 2591.85,-101.76 2596.62,-84.08"/>
<polygon fill="#63b8ff" stroke="#63b8ff" points="2600.03,-84.84 2598.95,-74.3 2593.22,-83.21 2600.03,-84.84"/>
</a>
</g>
</g>
<!-- Node7 -->
<g id="Node000007" class="node">
<title>Node7</title>
<g id="a_Node000007"><a xlink:href="device__headers_8h.html" target="_top" xlink:title=" ">
<polygon fill="white" stroke="#666666" points="681.5,-74 579.5,-74 579.5,-55 681.5,-55 681.5,-74"/>
<text text-anchor="middle" x="630.5" y="-62" font-family="Helvetica,sans-Serif" font-size="10.00">device_headers.h</text>
</a>
</g>
</g>
<!-- Node5&#45;&gt;Node7 -->
<g id="edge7_Node000005_Node000007" class="edge">
<title>Node5&#45;&gt;Node7</title>
<g id="a_edge7_Node000005_Node000007"><a xlink:title=" ">
<path fill="none" stroke="#63b8ff" d="M1523.85,-181.47C1515.11,-179.3 1505.48,-177.23 1496.5,-176 1434.6,-167.5 415.96,-184.88 372.5,-140 363.22,-130.42 363.91,-120.2 372.5,-110 375.69,-106.22 493.82,-87.01 569.11,-75.1"/>
<polygon fill="#63b8ff" stroke="#63b8ff" points="570.1,-78.48 579.43,-73.47 569.01,-71.57 570.1,-78.48"/>
</a>
</g>
</g>
<!-- Node10 -->
<g id="Node000010" class="node">
<title>Node10</title>
<g id="a_Node000010"><a xlink:title=" ">
<polygon fill="#e0e0e0" stroke="#999999" points="95,-74 0,-74 0,-55 95,-55 95,-74"/>
<text text-anchor="middle" x="47.5" y="-62" font-family="Helvetica,sans-Serif" font-size="10.00">builtin_enums.h</text>
</a>
</g>
</g>
<!-- Node5&#45;&gt;Node10 -->
<g id="edge10_Node000005_Node000010" class="edge">
<title>Node5&#45;&gt;Node10</title>
<g id="a_edge10_Node000005_Node000010"><a xlink:title=" ">
<path fill="none" stroke="#63b8ff" d="M1523.85,-181.46C1515.11,-179.28 1505.49,-177.22 1496.5,-176 1358.37,-157.27 373.81,-186.77 242.5,-140 221.9,-132.66 223.03,-119.84 203.5,-110 172.43,-94.34 135.02,-83.43 104.62,-76.34"/>
<polygon fill="#63b8ff" stroke="#63b8ff" points="105.13,-72.86 94.6,-74.08 103.59,-79.69 105.13,-72.86"/>
</a>
</g>
</g>
<!-- Node11 -->
<g id="Node000011" class="node">
<title>Node11</title>
<g id="a_Node000011"><a xlink:href="datatypes_8h.html" target="_top" xlink:title=" ">
<polygon fill="#fff0f0" stroke="red" points="325.5,-134.5 251.5,-134.5 251.5,-115.5 325.5,-115.5 325.5,-134.5"/>
<text text-anchor="middle" x="288.5" y="-122.5" font-family="Helvetica,sans-Serif" font-size="10.00">datatypes.h</text>
</a>
</g>
</g>
<!-- Node5&#45;&gt;Node11 -->
<g id="edge11_Node000005_Node000011" class="edge">
<title>Node5&#45;&gt;Node11</title>
<g id="a_edge11_Node000005_Node000011"><a xlink:title=" ">
<path fill="none" stroke="#63b8ff" d="M1523.85,-181.47C1515.11,-179.3 1505.49,-177.23 1496.5,-176 986.78,-106.26 848.23,-216.63 339.5,-140 334.7,-139.28 329.71,-138.26 324.81,-137.09"/>
<polygon fill="#63b8ff" stroke="#63b8ff" points="325.54,-133.66 314.98,-134.55 323.78,-140.44 325.54,-133.66"/>
</a>
</g>
</g>
<!-- Node19 -->
<g id="Node000019" class="node">
<title>Node19</title>
<g id="a_Node000019"><a xlink:href="errchk_8h.html" target="_top" xlink:title="Brief info.">
<polygon fill="#fff0f0" stroke="red" points="2665.5,-134.5 2609.5,-134.5 2609.5,-115.5 2665.5,-115.5 2665.5,-134.5"/>
<text text-anchor="middle" x="2637.5" y="-122.5" font-family="Helvetica,sans-Serif" font-size="10.00">errchk.h</text>
</a>
</g>
</g>
<!-- Node5&#45;&gt;Node19 -->
<g id="edge20_Node000005_Node000019" class="edge">
<title>Node5&#45;&gt;Node19</title>
<g id="a_edge20_Node000005_Node000019"><a xlink:title=" ">
<path fill="none" stroke="#63b8ff" d="M1596.73,-189.5C1768.02,-187.27 2399.23,-176.7 2595.5,-140 2598.93,-139.36 2602.46,-138.51 2605.95,-137.53"/>
<polygon fill="#63b8ff" stroke="#63b8ff" points="2607.04,-140.86 2615.57,-134.57 2604.98,-134.17 2607.04,-140.86"/>
</a>
</g>
</g>
<!-- Node23 -->
<g id="Node000023" class="node">
<title>Node23</title>
<g id="a_Node000023"><a xlink:title=" ">
<polygon fill="#e0e0e0" stroke="#999999" points="469,-134.5 382,-134.5 382,-115.5 469,-115.5 469,-134.5"/>
<text text-anchor="middle" x="425.5" y="-122.5" font-family="Helvetica,sans-Serif" font-size="10.00">user_defines.h</text>
</a>
</g>
</g>
<!-- Node5&#45;&gt;Node23 -->
<g id="edge24_Node000005_Node000023" class="edge">
<title>Node5&#45;&gt;Node23</title>
<g id="a_edge24_Node000005_Node000023"><a xlink:title=" ">
<path fill="none" stroke="#63b8ff" d="M1523.85,-181.49C1515.11,-179.32 1505.48,-177.25 1496.5,-176 1048.08,-113.68 926.36,-206.22 478.5,-140 473.39,-139.25 468.07,-138.18 462.86,-136.97"/>
<polygon fill="#63b8ff" stroke="#63b8ff" points="463.59,-133.55 453.04,-134.52 461.89,-140.34 463.59,-133.55"/>
</a>
</g>
</g>
<!-- Node24 -->
<g id="Node000024" class="node">
<title>Node24</title>
<g id="a_Node000024"><a xlink:title=" ">
<polygon fill="#e0e0e0" stroke="#999999" points="573.5,-134.5 487.5,-134.5 487.5,-115.5 573.5,-115.5 573.5,-134.5"/>
<text text-anchor="middle" x="530.5" y="-122.5" font-family="Helvetica,sans-Serif" font-size="10.00">profiles_info.h</text>
</a>
</g>
</g>
<!-- Node5&#45;&gt;Node24 -->
<g id="edge25_Node000005_Node000024" class="edge">
<title>Node5&#45;&gt;Node24</title>
<g id="a_edge25_Node000005_Node000024"><a xlink:title=" ">
<path fill="none" stroke="#63b8ff" d="M1523.55,-181.44C1514.89,-179.3 1505.38,-177.25 1496.5,-176 1093.95,-119.23 984.4,-201.23 582.5,-140 577.62,-139.26 572.53,-138.22 567.54,-137.05"/>
<polygon fill="#63b8ff" stroke="#63b8ff" points="568.07,-133.57 557.51,-134.5 566.34,-140.36 568.07,-133.57"/>
</a>
</g>
</g>
<!-- Node5&#45;&gt;Node25 -->
<g id="edge26_Node000005_Node000025" class="edge">
<title>Node5&#45;&gt;Node25</title>
<g id="a_edge26_Node000005_Node000025"><a xlink:title=" ">
<path fill="none" stroke="#63b8ff" d="M1523.85,-181.45C1515.11,-179.28 1505.49,-177.22 1496.5,-176 929.44,-99.32 779.06,-195.17 209.5,-140 199.89,-139.07 189.71,-137.7 179.89,-136.18"/>
<polygon fill="#63b8ff" stroke="#63b8ff" points="180.25,-132.69 169.82,-134.55 179.13,-139.6 180.25,-132.69"/>
</a>
</g>
</g>
<!-- Node26 -->
<g id="Node000026" class="node">
<title>Node26</title>
<g id="a_Node000026"><a xlink:href="func__attributes_8h.html" target="_top" xlink:title=" ">
<polygon fill="white" stroke="#666666" points="691,-134.5 592,-134.5 592,-115.5 691,-115.5 691,-134.5"/>
<text text-anchor="middle" x="641.5" y="-122.5" font-family="Helvetica,sans-Serif" font-size="10.00">func_attributes.h</text>
</a>
</g>
</g>
<!-- Node5&#45;&gt;Node26 -->
<g id="edge27_Node000005_Node000026" class="edge">
<title>Node5&#45;&gt;Node26</title>
<g id="a_edge27_Node000005_Node000026"><a xlink:title=" ">
<path fill="none" stroke="#63b8ff" d="M1523.54,-181.48C1514.88,-179.33 1505.38,-177.28 1496.5,-176 1145.54,-125.47 1050.56,-189.83 699.5,-140 693.72,-139.18 687.67,-138.04 681.75,-136.77"/>
<polygon fill="#63b8ff" stroke="#63b8ff" points="682.52,-133.35 671.99,-134.52 680.95,-140.17 682.52,-133.35"/>
</a>
</g>
</g>
<!-- Node27 -->
<g id="Node000027" class="node">
<title>Node27</title>
<g id="a_Node000027"><a xlink:title=" ">
<polygon fill="#e0e0e0" stroke="#999999" points="834,-134.5 709,-134.5 709,-115.5 834,-115.5 834,-134.5"/>
<text text-anchor="middle" x="771.5" y="-122.5" font-family="Helvetica,sans-Serif" font-size="10.00">user_input_typedefs.h</text>
</a>
</g>
</g>
<!-- Node5&#45;&gt;Node27 -->
<g id="edge28_Node000005_Node000027" class="edge">
<title>Node5&#45;&gt;Node27</title>
<g id="a_edge28_Node000005_Node000027"><a xlink:title=" ">
<path fill="none" stroke="#63b8ff" d="M1523.24,-181.46C1514.66,-179.34 1505.27,-177.31 1496.5,-176 1208.57,-133.1 1131.34,-176.25 842.5,-140 835.05,-139.06 827.2,-137.8 819.55,-136.42"/>
<polygon fill="#63b8ff" stroke="#63b8ff" points="820.14,-132.97 809.66,-134.54 818.84,-139.84 820.14,-132.97"/>
</a>
</g>
</g>
<!-- Node28 -->
<g id="Node000028" class="node">
<title>Node28</title>
<g id="a_Node000028"><a xlink:title=" ">
<polygon fill="#e0e0e0" stroke="#999999" points="935,-134.5 852,-134.5 852,-115.5 935,-115.5 935,-134.5"/>
<text text-anchor="middle" x="893.5" y="-122.5" font-family="Helvetica,sans-Serif" font-size="10.00">output_decl.h</text>
</a>
</g>
</g>
<!-- Node5&#45;&gt;Node28 -->
<g id="edge29_Node000005_Node000028" class="edge">
<title>Node5&#45;&gt;Node28</title>
<g id="a_edge29_Node000005_Node000028"><a xlink:title=" ">
<path fill="none" stroke="#63b8ff" d="M1522.93,-181.45C1514.44,-179.35 1505.16,-177.34 1496.5,-176 1253.52,-138.53 1186.95,-180.75 944.5,-140 939.95,-139.23 935.21,-138.23 930.55,-137.11"/>
<polygon fill="#63b8ff" stroke="#63b8ff" points="931.09,-133.63 920.53,-134.52 929.34,-140.41 931.09,-133.63"/>
</a>
</g>
</g>
<!-- Node29 -->
<g id="Node000029" class="node">
<title>Node29</title>
<g id="a_Node000029"><a xlink:title=" ">
<polygon fill="#e0e0e0" stroke="#999999" points="1069.5,-134.5 953.5,-134.5 953.5,-115.5 1069.5,-115.5 1069.5,-134.5"/>
<text text-anchor="middle" x="1011.5" y="-122.5" font-family="Helvetica,sans-Serif" font-size="10.00">comp_loaded_decl.h</text>
</a>
</g>
</g>
<!-- Node5&#45;&gt;Node29 -->
<g id="edge30_Node000005_Node000029" class="edge">
<title>Node5&#45;&gt;Node29</title>
<g id="a_edge30_Node000005_Node000029"><a xlink:title=" ">
<path fill="none" stroke="#63b8ff" d="M1522.62,-181.49C1514.2,-179.43 1505.05,-177.41 1496.5,-176 1312.52,-145.67 1262.98,-167.12 1078.5,-140 1071.86,-139.02 1064.9,-137.8 1058.07,-136.48"/>
<polygon fill="#63b8ff" stroke="#63b8ff" points="1058.71,-133.04 1048.22,-134.5 1057.33,-139.9 1058.71,-133.04"/>
</a>
</g>
</g>
<!-- Node30 -->
<g id="Node000030" class="node">
<title>Node30</title>
<g id="a_Node000030"><a xlink:title=" ">
<polygon fill="#e0e0e0" stroke="#999999" points="1165.5,-134.5 1087.5,-134.5 1087.5,-115.5 1165.5,-115.5 1165.5,-134.5"/>
<text text-anchor="middle" x="1126.5" y="-122.5" font-family="Helvetica,sans-Serif" font-size="10.00">comp_decl.h</text>
</a>
</g>
</g>
<!-- Node5&#45;&gt;Node30 -->
<g id="edge31_Node000005_Node000030" class="edge">
<title>Node5&#45;&gt;Node30</title>
<g id="a_edge31_Node000005_Node000030"><a xlink:title=" ">
<path fill="none" stroke="#63b8ff" d="M1522,-181.49C1513.75,-179.47 1504.83,-177.48 1496.5,-176 1354.72,-150.77 1315.7,-168.27 1174.5,-140 1170.59,-139.22 1166.54,-138.26 1162.52,-137.23"/>
<polygon fill="#63b8ff" stroke="#63b8ff" points="1163.28,-133.81 1152.7,-134.53 1161.42,-140.56 1163.28,-133.81"/>
</a>
</g>
</g>
<!-- Node31 -->
<g id="Node000031" class="node">
<title>Node31</title>
<g id="a_Node000031"><a xlink:title=" ">
<polygon fill="#e0e0e0" stroke="#999999" points="1291.5,-134.5 1183.5,-134.5 1183.5,-115.5 1291.5,-115.5 1291.5,-134.5"/>
<text text-anchor="middle" x="1237.5" y="-122.5" font-family="Helvetica,sans-Serif" font-size="10.00">info_loaded_decl.h</text>
</a>
</g>
</g>
<!-- Node5&#45;&gt;Node31 -->
<g id="edge32_Node000005_Node000031" class="edge">
<title>Node5&#45;&gt;Node31</title>
<g id="a_edge32_Node000005_Node000031"><a xlink:title=" ">
<path fill="none" stroke="#63b8ff" d="M1520.12,-181.45C1512.39,-179.57 1504.17,-177.65 1496.5,-176 1409.9,-157.43 1387.3,-157.61 1300.5,-140 1295.41,-138.97 1290.11,-137.85 1284.82,-136.71"/>
<polygon fill="#63b8ff" stroke="#63b8ff" points="1285.28,-133.23 1274.76,-134.52 1283.79,-140.07 1285.28,-133.23"/>
</a>
</g>
</g>
<!-- Node32 -->
<g id="Node000032" class="node">
<title>Node32</title>
<g id="a_Node000032"><a xlink:title=" ">
<polygon fill="#e0e0e0" stroke="#999999" points="1449.5,-134.5 1309.5,-134.5 1309.5,-115.5 1449.5,-115.5 1449.5,-134.5"/>
<text text-anchor="middle" x="1379.5" y="-122.5" font-family="Helvetica,sans-Serif" font-size="10.00">device_mesh_info_decl.h</text>
</a>
</g>
</g>
<!-- Node5&#45;&gt;Node32 -->
<g id="edge33_Node000005_Node000032" class="edge">
<title>Node5&#45;&gt;Node32</title>
<g id="a_edge33_Node000005_Node000032"><a xlink:title=" ">
<path fill="none" stroke="#63b8ff" d="M1530.03,-181.37C1499.72,-170.22 1446.79,-150.75 1412.46,-138.12"/>
<polygon fill="#63b8ff" stroke="#63b8ff" points="1413.47,-134.76 1402.87,-134.6 1411.05,-141.33 1413.47,-134.76"/>
</a>
</g>
</g>
<!-- Node33 -->
<g id="Node000033" class="node">
<title>Node33</title>
<g id="a_Node000033"><a xlink:title=" ">
<polygon fill="#e0e0e0" stroke="#999999" points="1545,-134.5 1468,-134.5 1468,-115.5 1545,-115.5 1545,-134.5"/>
<text text-anchor="middle" x="1506.5" y="-122.5" font-family="Helvetica,sans-Serif" font-size="10.00">array_decl.h</text>
</a>
</g>
</g>
<!-- Node5&#45;&gt;Node33 -->
<g id="edge34_Node000005_Node000033" class="edge">
<title>Node5&#45;&gt;Node33</title>
<g id="a_edge34_Node000005_Node000033"><a xlink:title=" ">
<path fill="none" stroke="#63b8ff" d="M1547.16,-181.37C1539.98,-171.59 1528.11,-155.42 1519.04,-143.08"/>
<polygon fill="#63b8ff" stroke="#63b8ff" points="1521.78,-140.89 1513.04,-134.91 1516.14,-145.04 1521.78,-140.89"/>
</a>
</g>
</g>
<!-- Node34 -->
<g id="Node000034" class="node">
<title>Node34</title>
<g id="a_Node000034"><a xlink:title=" ">
<polygon fill="#e0e0e0" stroke="#999999" points="1639.5,-134.5 1563.5,-134.5 1563.5,-115.5 1639.5,-115.5 1639.5,-134.5"/>
<text text-anchor="middle" x="1601.5" y="-122.5" font-family="Helvetica,sans-Serif" font-size="10.00">input_decl.h</text>
</a>
</g>
</g>
<!-- Node5&#45;&gt;Node34 -->
<g id="edge35_Node000005_Node000034" class="edge">
<title>Node5&#45;&gt;Node34</title>
<g id="a_edge35_Node000005_Node000034"><a xlink:title=" ">
<path fill="none" stroke="#63b8ff" d="M1559.97,-181.37C1567.3,-171.59 1579.43,-155.42 1588.69,-143.08"/>
<polygon fill="#63b8ff" stroke="#63b8ff" points="1591.62,-145.01 1594.82,-134.91 1586.02,-140.81 1591.62,-145.01"/>
</a>
</g>
</g>
<!-- Node35 -->
<g id="Node000035" class="node">
<title>Node35</title>
<g id="a_Node000035"><a xlink:href="ac__helpers_8h.html" target="_top" xlink:title=" ">
<polygon fill="white" stroke="#666666" points="1735.5,-134.5 1657.5,-134.5 1657.5,-115.5 1735.5,-115.5 1735.5,-134.5"/>
<text text-anchor="middle" x="1696.5" y="-122.5" font-family="Helvetica,sans-Serif" font-size="10.00">ac_helpers.h</text>
</a>
</g>
</g>
<!-- Node5&#45;&gt;Node35 -->
<g id="edge36_Node000005_Node000035" class="edge">
<title>Node5&#45;&gt;Node35</title>
<g id="a_edge36_Node000005_Node000035"><a xlink:title=" ">
<path fill="none" stroke="#63b8ff" d="M1572.79,-181.37C1597.2,-170.44 1639.47,-151.52 1667.71,-138.88"/>
<polygon fill="#63b8ff" stroke="#63b8ff" points="1669.37,-141.98 1677.06,-134.7 1666.51,-135.59 1669.37,-141.98"/>
</a>
</g>
</g>
<!-- Node36 -->
<g id="Node000036" class="node">
<title>Node36</title>
<g id="a_Node000036"><a xlink:title=" ">
<polygon fill="#e0e0e0" stroke="#999999" points="1871.5,-140 1753.5,-140 1753.5,-110 1871.5,-110 1871.5,-140"/>
<text text-anchor="start" x="1761.5" y="-128" font-family="Helvetica,sans-Serif" font-size="10.00">scalar_reduce_buffer</text>
<text text-anchor="middle" x="1812.5" y="-117" font-family="Helvetica,sans-Serif" font-size="10.00">_defs.h</text>
</a>
</g>
</g>
<!-- Node5&#45;&gt;Node36 -->
<g id="edge37_Node000005_Node000036" class="edge">
<title>Node5&#45;&gt;Node36</title>
<g id="a_edge37_Node000005_Node000036"><a xlink:title=" ">
<path fill="none" stroke="#63b8ff" d="M1588.16,-181.44C1628.35,-171.5 1695.52,-154.91 1745.9,-142.46"/>
<polygon fill="#63b8ff" stroke="#63b8ff" points="1746.87,-145.82 1755.74,-140.02 1745.2,-139.03 1746.87,-145.82"/>
</a>
</g>
</g>
<!-- Node37 -->
<g id="Node000037" class="node">
<title>Node37</title>
<g id="a_Node000037"><a xlink:title=" ">
<polygon fill="#e0e0e0" stroke="#999999" points="2013,-140 1890,-140 1890,-110 2013,-110 2013,-140"/>
<text text-anchor="start" x="1898" y="-128" font-family="Helvetica,sans-Serif" font-size="10.00">scalar_reduce_buffers</text>
<text text-anchor="middle" x="1951.5" y="-117" font-family="Helvetica,sans-Serif" font-size="10.00">_in_vba.h</text>
</a>
</g>
</g>
<!-- Node5&#45;&gt;Node37 -->
<g id="edge38_Node000005_Node000037" class="edge">
<title>Node5&#45;&gt;Node37</title>
<g id="a_edge38_Node000005_Node000037"><a xlink:title=" ">
<path fill="none" stroke="#63b8ff" d="M1596.71,-184C1657.48,-175.42 1771.9,-158.79 1879.87,-140.06"/>
<polygon fill="#63b8ff" stroke="#63b8ff" points="1880.71,-143.47 1889.96,-138.3 1879.5,-136.57 1880.71,-143.47"/>
</a>
</g>
</g>
<!-- Node38 -->
<g id="Node000038" class="node">
<title>Node38</title>
<g id="a_Node000038"><a xlink:href="astaroth__analysis_8h.html" target="_top" xlink:title=" ">
<polygon fill="white" stroke="#666666" points="2143.5,-134.5 2031.5,-134.5 2031.5,-115.5 2143.5,-115.5 2143.5,-134.5"/>
<text text-anchor="middle" x="2087.5" y="-122.5" font-family="Helvetica,sans-Serif" font-size="10.00">astaroth_analysis.h</text>
</a>
</g>
</g>
<!-- Node5&#45;&gt;Node38 -->
<g id="edge39_Node000005_Node000038" class="edge">
<title>Node5&#45;&gt;Node38</title>
<g id="a_edge39_Node000005_Node000038"><a xlink:title=" ">
<path fill="none" stroke="#63b8ff" d="M1596.6,-186.88C1679.33,-180.57 1865.95,-164.74 2021.5,-140 2027.72,-139.01 2034.25,-137.82 2040.67,-136.55"/>
<polygon fill="#63b8ff" stroke="#63b8ff" points="2041.53,-139.95 2050.62,-134.52 2040.13,-133.09 2041.53,-139.95"/>
</a>
</g>
</g>
<!-- Node5&#45;&gt;Node39 -->
<g id="edge40_Node000005_Node000039" class="edge">
<title>Node5&#45;&gt;Node39</title>
<g id="a_edge40_Node000005_Node000039"><a xlink:title=" ">
<path fill="none" stroke="#63b8ff" d="M1596.58,-189.32C1778.79,-186.27 2486.91,-172.5 2707.5,-140 2712.73,-139.23 2718.18,-138.17 2723.53,-136.97"/>
<polygon fill="#63b8ff" stroke="#63b8ff" points="2724.71,-140.29 2733.61,-134.54 2723.07,-133.48 2724.71,-140.29"/>
</a>
</g>
</g>
<!-- Node40 -->
<g id="Node000040" class="node">
<title>Node40</title>
<g id="a_Node000040"><a xlink:href="common__kernels_8h.html" target="_top" xlink:title=" ">
<polygon fill="white" stroke="#666666" points="2271,-134.5 2162,-134.5 2162,-115.5 2271,-115.5 2271,-134.5"/>
<text text-anchor="middle" x="2216.5" y="-122.5" font-family="Helvetica,sans-Serif" font-size="10.00">common_kernels.h</text>
</a>
</g>
</g>
<!-- Node5&#45;&gt;Node40 -->
<g id="edge41_Node000005_Node000040" class="edge">
<title>Node5&#45;&gt;Node40</title>
<g id="a_edge41_Node000005_Node000040"><a xlink:title=" ">
<path fill="none" stroke="#63b8ff" d="M1596.58,-188.36C1695.36,-184.17 1945.6,-171.13 2152.5,-140 2158.7,-139.07 2165.2,-137.89 2171.58,-136.61"/>
<polygon fill="#63b8ff" stroke="#63b8ff" points="2172.37,-140.02 2181.44,-134.54 2170.94,-133.17 2172.37,-140.02"/>
</a>
</g>
</g>
<!-- Node41 -->
<g id="Node000041" class="node">
<title>Node41</title>
<g id="a_Node000041"><a xlink:title=" ">
<polygon fill="#e0e0e0" stroke="#999999" points="2401.5,-134.5 2289.5,-134.5 2289.5,-115.5 2401.5,-115.5 2401.5,-134.5"/>
<text text-anchor="middle" x="2345.5" y="-122.5" font-family="Helvetica,sans-Serif" font-size="10.00">user_declarations.h</text>
</a>
</g>
</g>
<!-- Node5&#45;&gt;Node41 -->
<g id="edge42_Node000005_Node000041" class="edge">
<title>Node5&#45;&gt;Node41</title>
<g id="a_edge42_Node000005_Node000041"><a xlink:title=" ">
<path fill="none" stroke="#63b8ff" d="M1596.68,-189.14C1709.47,-186.43 2022.06,-175.99 2279.5,-140 2286.12,-139.07 2293.08,-137.86 2299.88,-136.54"/>
<polygon fill="#63b8ff" stroke="#63b8ff" points="2300.59,-139.97 2309.7,-134.55 2299.2,-133.11 2300.59,-139.97"/>
</a>
</g>
</g>
<!-- Node42 -->
<g id="Node000042" class="node">
<title>Node42</title>
<g id="a_Node000042"><a xlink:title=" ">
<polygon fill="#e0e0e0" stroke="#999999" points="2553.5,-140 2419.5,-140 2419.5,-110 2553.5,-110 2553.5,-140"/>
<text text-anchor="start" x="2427.5" y="-128" font-family="Helvetica,sans-Serif" font-size="10.00">load_and_store_uniform</text>
<text text-anchor="middle" x="2486.5" y="-117" font-family="Helvetica,sans-Serif" font-size="10.00">_header.h</text>
</a>
</g>
</g>
<!-- Node5&#45;&gt;Node42 -->
<g id="edge43_Node000005_Node000042" class="edge">
<title>Node5&#45;&gt;Node42</title>
<g id="a_edge43_Node000005_Node000042"><a xlink:title=" ">
<path fill="none" stroke="#63b8ff" d="M1596.92,-189.36C1721.69,-187.14 2092.08,-177.7 2409.12,-140.06"/>
<polygon fill="#63b8ff" stroke="#63b8ff" points="2409.92,-143.49 2419.43,-138.82 2409.09,-136.54 2409.92,-143.49"/>
</a>
</g>
</g>
<!-- Node8 -->
<g id="Node000008" class="node">
<title>Node8</title>
<g id="a_Node000008"><a xlink:title=" ">
<polygon fill="#e0e0e0" stroke="#999999" points="434,-19 321,-19 321,0 434,0 434,-19"/>
<text text-anchor="middle" x="377.5" y="-7" font-family="Helvetica,sans-Serif" font-size="10.00">cuda_runtime_api.h</text>
</a>
</g>
</g>
<!-- Node7&#45;&gt;Node8 -->
<g id="edge8_Node000007_Node000008" class="edge">
<title>Node7&#45;&gt;Node8</title>
<g id="a_edge8_Node000007_Node000008"><a xlink:title=" ">
<path fill="none" stroke="#63b8ff" d="M589.85,-54.98C546,-45.8 476.08,-31.15 428.55,-21.19"/>
<polygon fill="#63b8ff" stroke="#63b8ff" points="428.97,-17.71 418.47,-19.08 427.54,-24.56 428.97,-17.71"/>
</a>
</g>
</g>
<!-- Node9 -->
<g id="Node000009" class="node">
<title>Node9</title>
<g id="a_Node000009"><a xlink:title=" ">
<polygon fill="#e0e0e0" stroke="#999999" points="668.5,-19 592.5,-19 592.5,0 668.5,0 668.5,-19"/>
<text text-anchor="middle" x="630.5" y="-7" font-family="Helvetica,sans-Serif" font-size="10.00">cuda_fp16.h</text>
</a>
</g>
</g>
<!-- Node7&#45;&gt;Node9 -->
<g id="edge9_Node000007_Node000009" class="edge">
<title>Node7&#45;&gt;Node9</title>
<g id="a_edge9_Node000007_Node000009"><a xlink:title=" ">
<path fill="none" stroke="#63b8ff" d="M630.5,-54.75C630.5,-47.8 630.5,-37.85 630.5,-29.13"/>
<polygon fill="#63b8ff" stroke="#63b8ff" points="634,-29.09 630.5,-19.09 627,-29.09 634,-29.09"/>
</a>
</g>
</g>
<!-- Node11&#45;&gt;Node7 -->
<g id="edge14_Node000011_Node000007" class="edge">
<title>Node11&#45;&gt;Node7</title>
<g id="a_edge14_Node000011_Node000007"><a xlink:title=" ">
<path fill="none" stroke="#63b8ff" d="M317.22,-115.49C324.45,-113.52 332.23,-111.55 339.5,-110 361.45,-105.33 490.22,-86.12 568.93,-74.52"/>
<polygon fill="#63b8ff" stroke="#63b8ff" points="569.84,-77.93 579.22,-73.01 568.82,-71 569.84,-77.93"/>
</a>
</g>
</g>
<!-- Node11&#45;&gt;Node8 -->
<g id="edge16_Node000011_Node000008" class="edge">
<title>Node11&#45;&gt;Node8</title>
<g id="a_edge16_Node000011_Node000008"><a xlink:title=" ">
<path fill="none" stroke="#63b8ff" d="M278.81,-115.45C264.67,-101.91 241.49,-75.02 255.5,-55 268.39,-36.58 289.75,-25.76 311.03,-19.41"/>
<polygon fill="#63b8ff" stroke="#63b8ff" points="312.02,-22.77 320.77,-16.79 310.2,-16.01 312.02,-22.77"/>
</a>
</g>
</g>
<!-- Node11&#45;&gt;Node10 -->
<g id="edge18_Node000011_Node000010" class="edge">
<title>Node11&#45;&gt;Node10</title>
<g id="a_edge18_Node000011_Node000010"><a xlink:title=" ">
<path fill="none" stroke="#63b8ff" d="M258.08,-115.45C251.31,-113.6 244.17,-111.7 237.5,-110 189.43,-97.78 134.19,-84.98 95.71,-76.26"/>
<polygon fill="#63b8ff" stroke="#63b8ff" points="96.34,-72.82 85.82,-74.03 94.8,-79.64 96.34,-72.82"/>
</a>
</g>
</g>
<!-- Node12 -->
<g id="Node000012" class="node">
<title>Node12</title>
<g id="a_Node000012"><a xlink:title=" ">
<polygon fill="#e0e0e0" stroke="#999999" points="312,-74 265,-74 265,-55 312,-55 312,-74"/>
<text text-anchor="middle" x="288.5" y="-62" font-family="Helvetica,sans-Serif" font-size="10.00">float.h</text>
</a>
</g>
</g>
<!-- Node11&#45;&gt;Node12 -->
<g id="edge12_Node000011_Node000012" class="edge">
<title>Node11&#45;&gt;Node12</title>
<g id="a_edge12_Node000011_Node000012"><a xlink:title=" ">
<path fill="none" stroke="#63b8ff" d="M288.5,-115.37C288.5,-107.25 288.5,-94.81 288.5,-84.39"/>
<polygon fill="#63b8ff" stroke="#63b8ff" points="292,-84.17 288.5,-74.17 285,-84.17 292,-84.17"/>
</a>
</g>
</g>
<!-- Node13 -->
<g id="Node000013" class="node">
<title>Node13</title>
<g id="a_Node000013"><a xlink:title=" ">
<polygon fill="#e0e0e0" stroke="#999999" points="381,-74 330,-74 330,-55 381,-55 381,-74"/>
<text text-anchor="middle" x="355.5" y="-62" font-family="Helvetica,sans-Serif" font-size="10.00">math.h</text>
</a>
</g>
</g>
<!-- Node11&#45;&gt;Node13 -->
<g id="edge13_Node000011_Node000013" class="edge">
<title>Node11&#45;&gt;Node13</title>
<g id="a_edge13_Node000011_Node000013"><a xlink:title=" ">
<path fill="none" stroke="#63b8ff" d="M298.39,-115.37C308.78,-106.3 325.34,-91.84 337.95,-80.82"/>
<polygon fill="#63b8ff" stroke="#63b8ff" points="340.34,-83.38 345.57,-74.17 335.74,-78.11 340.34,-83.38"/>
</a>
</g>
</g>
<!-- Node14 -->
<g id="Node000014" class="node">
<title>Node14</title>
<g id="a_Node000014"><a xlink:title=" ">
<polygon fill="#e0e0e0" stroke="#999999" points="488,-74 399,-74 399,-55 488,-55 488,-74"/>
<text text-anchor="middle" x="443.5" y="-62" font-family="Helvetica,sans-Serif" font-size="10.00">vector_types.h</text>
</a>
</g>
</g>
<!-- Node11&#45;&gt;Node14 -->
<g id="edge15_Node000011_Node000014" class="edge">
<title>Node11&#45;&gt;Node14</title>
<g id="a_edge15_Node000011_Node000014"><a xlink:title=" ">
<path fill="none" stroke="#63b8ff" d="M311.04,-115.49C337.44,-105.53 381.38,-88.95 411.35,-77.63"/>
<polygon fill="#63b8ff" stroke="#63b8ff" points="412.81,-80.82 420.93,-74.02 410.34,-74.27 412.81,-80.82"/>
</a>
</g>
</g>
<!-- Node15 -->
<g id="Node000015" class="node">
<title>Node15</title>
<g id="a_Node000015"><a xlink:href="acreal_8h.html" target="_top" xlink:title=" ">
<polygon fill="white" stroke="#666666" points="561.5,-74 505.5,-74 505.5,-55 561.5,-55 561.5,-74"/>
<text text-anchor="middle" x="533.5" y="-62" font-family="Helvetica,sans-Serif" font-size="10.00">acreal.h</text>
</a>
</g>
</g>
<!-- Node11&#45;&gt;Node15 -->
<g id="edge17_Node000011_Node000015" class="edge">
<title>Node11&#45;&gt;Node15</title>
<g id="a_edge17_Node000011_Node000015"><a xlink:title=" ">
<path fill="none" stroke="#63b8ff" d="M318.65,-115.5C325.49,-113.63 332.73,-111.7 339.5,-110 405.94,-93.27 425.1,-90.26 495.43,-74.24"/>
<polygon fill="#63b8ff" stroke="#63b8ff" points="496.25,-77.64 505.22,-72 494.69,-70.82 496.25,-77.64"/>
</a>
</g>
</g>
<!-- Node16 -->
<g id="Node000016" class="node">
<title>Node16</title>
<g id="a_Node000016"><a xlink:title=" ">
<polygon fill="#e0e0e0" stroke="#999999" points="208,-74 113,-74 113,-55 208,-55 208,-74"/>
<text text-anchor="middle" x="160.5" y="-62" font-family="Helvetica,sans-Serif" font-size="10.00">user_typedefs.h</text>
</a>
</g>
</g>
<!-- Node11&#45;&gt;Node16 -->
<g id="edge19_Node000011_Node000016" class="edge">
<title>Node11&#45;&gt;Node16</title>
<g id="a_edge19_Node000011_Node000016"><a xlink:title=" ">
<path fill="none" stroke="#63b8ff" d="M269.89,-115.49C248.46,-105.7 213.06,-89.52 188.35,-78.23"/>
<polygon fill="#63b8ff" stroke="#63b8ff" points="189.68,-74.99 179.13,-74.02 186.78,-81.36 189.68,-74.99"/>
</a>
</g>
</g>
<!-- Node19&#45;&gt;Node4 -->
<g id="edge21_Node000019_Node000004" class="edge">
<title>Node19&#45;&gt;Node4</title>
<g id="a_edge21_Node000019_Node000004"><a xlink:title=" ">
<path fill="none" stroke="#63b8ff" d="M2645.76,-115.37C2654.28,-106.47 2667.76,-92.39 2678.23,-81.45"/>
<polygon fill="#63b8ff" stroke="#63b8ff" points="2680.82,-83.81 2685.2,-74.17 2675.76,-78.97 2680.82,-83.81"/>
</a>
</g>
</g>
<!-- Node19&#45;&gt;Node6 -->
<g id="edge22_Node000019_Node000006" class="edge">
<title>Node19&#45;&gt;Node6</title>
<g id="a_edge22_Node000019_Node000006"><a xlink:title=" ">
<path fill="none" stroke="#63b8ff" d="M2632.04,-115.37C2626.63,-106.81 2618.19,-93.47 2611.4,-82.74"/>
<polygon fill="#63b8ff" stroke="#63b8ff" points="2614.29,-80.75 2605.98,-74.17 2608.37,-84.49 2614.29,-80.75"/>
</a>
</g>
</g>
<!-- Node19&#45;&gt;Node7 -->
<g id="edge23_Node000019_Node000007" class="edge">
<title>Node19&#45;&gt;Node7</title>
<g id="a_edge23_Node000019_Node000007"><a xlink:title=" ">
<path fill="none" stroke="#63b8ff" d="M2609.17,-117.59C2595.2,-114.72 2578.05,-111.62 2562.5,-110 2186.93,-70.88 978.15,-66.15 691.76,-65.58"/>
<polygon fill="#63b8ff" stroke="#63b8ff" points="691.57,-62.08 681.57,-65.56 691.56,-69.08 691.57,-62.08"/>
</a>
</g>
</g>
<!-- Node47 -->
<g id="Node000047" class="node">
<title>Node47</title>
<g id="a_Node000047"><a xlink:title=" ">
<polygon fill="#e0e0e0" stroke="#999999" points="2979,-206 2860,-206 2860,-176 2979,-176 2979,-206"/>
<text text-anchor="start" x="2868" y="-194" font-family="Helvetica,sans-Serif" font-size="10.00">device_load_uniform</text>
<text text-anchor="middle" x="2919.5" y="-183" font-family="Helvetica,sans-Serif" font-size="10.00">_decl.h</text>
</a>
</g>
</g>
<!-- Node46&#45;&gt;Node47 -->
<g id="edge50_Node000046_Node000047" class="edge">
<title>Node46&#45;&gt;Node47</title>
<g id="a_edge50_Node000046_Node000047"><a xlink:title=" ">
<path fill="none" stroke="#63b8ff" d="M2919.5,-241.87C2919.5,-235.11 2919.5,-225.35 2919.5,-216.26"/>
<polygon fill="#63b8ff" stroke="#63b8ff" points="2923,-216.11 2919.5,-206.11 2916,-216.11 2923,-216.11"/>
</a>
</g>
</g>
<!-- Node48 -->
<g id="Node000048" class="node">
<title>Node48</title>
<g id="a_Node000048"><a xlink:title=" ">
<polygon fill="#e0e0e0" stroke="#999999" points="3119.5,-206 2997.5,-206 2997.5,-176 3119.5,-176 3119.5,-206"/>
<text text-anchor="start" x="3005.5" y="-194" font-family="Helvetica,sans-Serif" font-size="10.00">device_store_uniform</text>
<text text-anchor="middle" x="3058.5" y="-183" font-family="Helvetica,sans-Serif" font-size="10.00">_decl.h</text>
</a>
</g>
</g>
<!-- Node46&#45;&gt;Node48 -->
<g id="edge51_Node000046_Node000048" class="edge">
<title>Node46&#45;&gt;Node48</title>
<g id="a_edge51_Node000046_Node000048"><a xlink:title=" ">
<path fill="none" stroke="#63b8ff" d="M2939.71,-241.99C2959.54,-233.65 2990.4,-220.66 3015.69,-210.02"/>
<polygon fill="#63b8ff" stroke="#63b8ff" points="3017.22,-213.17 3025.08,-206.06 3014.51,-206.72 3017.22,-213.17"/>
</a>
</g>
</g>
</g>
</svg>
