<?xml version="1.0" encoding="UTF-8" standalone="no"?>
<!DOCTYPE svg PUBLIC "-//W3C//DTD SVG 1.1//EN"
 "http://www.w3.org/Graphics/SVG/1.1/DTD/svg11.dtd">
<!-- Generated by graphviz version 2.43.0 (0)
 -->
<!-- Title: include/astaroth_forcing.h Pages: 1 -->
<!--zoomable 258 -->

<svg id="main" version="1.1" xmlns="http://www.w3.org/2000/svg" xmlns:xlink="http://www.w3.org/1999/xlink" xml:space="preserve" onload="init(evt)">
<style type="text/css"><![CDATA[
.node, .edge {opacity: 0.7;}
.node.selected, .edge.selected {opacity: 1;}
.edge:hover path { stroke: red; }
.edge:hover polygon { stroke: red; fill: red; }
]]></style>

<defs>
  <circle id="rim" cx="0" cy="0" r="7"/>
  <circle id="rim2" cx="0" cy="0" r="3.5"/>
  <g id="zoomPlus">
    <use xlink:href="#rim" fill="#404040"><set attributeName="fill" to="#808080" begin="zoomplus.mouseover" end="zoomplus.mouseout"/></use>
    <path d="M-4,0h8M0,-4v8" fill="none" stroke="white" stroke-width="1.5" pointer-events="none"/>
  </g>
  <g id="zoomMin">
    <use xlink:href="#rim" fill="#404040"><set attributeName="fill" to="#808080" begin="zoomminus.mouseover" end="zoomminus.mouseout"/></use>
    <path d="M-4,0h8" fill="none" stroke="white" stroke-width="1.5" pointer-events="none"/>
  </g>
  <g id="arrowUp" transform="translate(30 24)">
    <use xlink:href="#rim"/>
    <path pointer-events="none" fill="none" stroke="white" stroke-width="1.5" d="M0,-3.0v7 M-2.5,-0.5L0,-3.0L2.5,-0.5"/>
  </g>
  <g id="arrowRight" transform="rotate(90) translate(36 -43)">
    <use xlink:href="#rim"/>
    <path pointer-events="none" fill="none" stroke="white" stroke-width="1.5" d="M0,-3.0v7 M-2.5,-0.5L0,-3.0L2.5,-0.5"/>
  </g>
  <g id="arrowDown" transform="rotate(180) translate(-30 -48)">
    <use xlink:href="#rim"/>
    <path pointer-events="none" fill="none" stroke="white" stroke-width="1.5" d="M0,-3.0v7 M-2.5,-0.5L0,-3.0L2.5,-0.5"/>
  </g>
  <g id="arrowLeft" transform="rotate(270) translate(-36 17)">
    <use xlink:href="#rim"/>
    <path pointer-events="none" fill="none" stroke="white" stroke-width="1.5" d="M0,-3.0v7 M-2.5,-0.5L0,-3.0L2.5,-0.5"/>
  </g>
  <g id="resetDef">
    <use xlink:href="#rim2" fill="#404040"><set attributeName="fill" to="#808080" begin="reset.mouseover" end="reset.mouseout"/></use>
  </g>
</defs>
<script type="application/ecmascript">
var viewWidth = 3335;
var viewHeight = 258;
var sectionId = 'dynsection-0';
</script>
<script type="application/ecmascript" xlink:href="svg.min.js"/>
<svg id="graph" class="graph">
<g id="viewport">
<title>include/astaroth_forcing.h</title>
<!-- Node1 -->
<g id="Node000001" class="node">
<title>Node1</title>
<g id="a_Node000001"><a xlink:title=" ">
<polygon fill="#999999" stroke="#666666" points="1841,-250 1698,-250 1698,-231 1841,-231 1841,-250"/>
<text text-anchor="middle" x="1769.5" y="-238" font-family="Helvetica,sans-Serif" font-size="10.00">include/astaroth_forcing.h</text>
</a>
</g>
</g>
<!-- Node2 -->
<g id="Node000002" class="node">
<title>Node2</title>
<g id="a_Node000002"><a xlink:href="acc__runtime_8h.html" target="_top" xlink:title=" ">
<polygon fill="white" stroke="#666666" points="1812.5,-195 1726.5,-195 1726.5,-176 1812.5,-176 1812.5,-195"/>
<text text-anchor="middle" x="1769.5" y="-183" font-family="Helvetica,sans-Serif" font-size="10.00">acc_runtime.h</text>
</a>
</g>
</g>
<!-- Node1&#45;&gt;Node2 -->
<g id="edge1_Node000001_Node000002" class="edge">
<title>Node1&#45;&gt;Node2</title>
<g id="a_edge1_Node000001_Node000002"><a xlink:title=" ">
<path fill="none" stroke="#63b8ff" d="M1769.5,-230.75C1769.5,-223.8 1769.5,-213.85 1769.5,-205.13"/>
<polygon fill="#63b8ff" stroke="#63b8ff" points="1773,-205.09 1769.5,-195.09 1766,-205.09 1773,-205.09"/>
</a>
</g>
</g>
<!-- Node3 -->
<g id="Node000003" class="node">
<title>Node3</title>
<g id="a_Node000003"><a xlink:title=" ">
<polygon fill="#e0e0e0" stroke="#999999" points="843.5,-74 793.5,-74 793.5,-55 843.5,-55 843.5,-74"/>
<text text-anchor="middle" x="818.5" y="-62" font-family="Helvetica,sans-Serif" font-size="10.00">stdio.h</text>
</a>
</g>
</g>
<!-- Node2&#45;&gt;Node3 -->
<g id="edge2_Node000002_Node000003" class="edge">
<title>Node2&#45;&gt;Node3</title>
<g id="a_edge2_Node000002_Node000003"><a xlink:title=" ">
<path fill="none" stroke="#63b8ff" d="M1726.23,-183.74C1548.38,-180.46 881.32,-166.43 845.5,-140 828.06,-127.14 821.86,-101.9 819.67,-84.39"/>
<polygon fill="#63b8ff" stroke="#63b8ff" points="823.14,-83.84 818.73,-74.2 816.17,-84.48 823.14,-83.84"/>
</a>
</g>
</g>
<!-- Node4 -->
<g id="Node000004" class="node">
<title>Node4</title>
<g id="a_Node000004"><a xlink:title=" ">
<polygon fill="#e0e0e0" stroke="#999999" points="923.5,-74 861.5,-74 861.5,-55 923.5,-55 923.5,-74"/>
<text text-anchor="middle" x="892.5" y="-62" font-family="Helvetica,sans-Serif" font-size="10.00">stdbool.h</text>
</a>
</g>
</g>
<!-- Node2&#45;&gt;Node4 -->
<g id="edge3_Node000002_Node000004" class="edge">
<title>Node2&#45;&gt;Node4</title>
<g id="a_edge3_Node000002_Node000004"><a xlink:title=" ">
<path fill="none" stroke="#63b8ff" d="M1726.43,-184.04C1549.42,-181.92 885.87,-171.89 855.5,-140 839.32,-123.02 858.57,-97.59 874.8,-81.28"/>
<polygon fill="#63b8ff" stroke="#63b8ff" points="877.53,-83.51 882.36,-74.08 872.7,-78.44 877.53,-83.51"/>
</a>
</g>
</g>
<!-- Node5 -->
<g id="Node000005" class="node">
<title>Node5</title>
<g id="a_Node000005"><a xlink:href="device__headers_8h.html" target="_top" xlink:title=" ">
<polygon fill="white" stroke="#666666" points="655.5,-74 553.5,-74 553.5,-55 655.5,-55 655.5,-74"/>
<text text-anchor="middle" x="604.5" y="-62" font-family="Helvetica,sans-Serif" font-size="10.00">device_headers.h</text>
</a>
</g>
</g>
<!-- Node2&#45;&gt;Node5 -->
<g id="edge4_Node000002_Node000005" class="edge">
<title>Node2&#45;&gt;Node5</title>
<g id="a_edge4_Node000002_Node000005"><a xlink:title=" ">
<path fill="none" stroke="#63b8ff" d="M1726.42,-184.09C1565.42,-182.29 999.35,-173.67 822.5,-140 752.26,-126.63 673.82,-95.6 632.88,-78.1"/>
<polygon fill="#63b8ff" stroke="#63b8ff" points="634.11,-74.82 623.54,-74.07 631.33,-81.25 634.11,-74.82"/>
</a>
</g>
</g>
<!-- Node8 -->
<g id="Node000008" class="node">
<title>Node8</title>
<g id="a_Node000008"><a xlink:title=" ">
<polygon fill="#e0e0e0" stroke="#999999" points="535,-74 440,-74 440,-55 535,-55 535,-74"/>
<text text-anchor="middle" x="487.5" y="-62" font-family="Helvetica,sans-Serif" font-size="10.00">builtin_enums.h</text>
</a>
</g>
</g>
<!-- Node2&#45;&gt;Node8 -->
<g id="edge7_Node000002_Node000008" class="edge">
<title>Node2&#45;&gt;Node8</title>
<g id="a_edge7_Node000002_Node000008"><a xlink:title=" ">
<path fill="none" stroke="#63b8ff" d="M1726.37,-184.25C1554,-183 914.42,-175.99 715.5,-140 642.09,-126.72 559.78,-95.54 516.97,-78.02"/>
<polygon fill="#63b8ff" stroke="#63b8ff" points="518.03,-74.68 507.46,-74.09 515.36,-81.15 518.03,-74.68"/>
</a>
</g>
</g>
<!-- Node9 -->
<g id="Node000009" class="node">
<title>Node9</title>
<g id="a_Node000009"><a xlink:href="datatypes_8h.html" target="_top" xlink:title=" ">
<polygon fill="white" stroke="#666666" points="412.5,-134.5 338.5,-134.5 338.5,-115.5 412.5,-115.5 412.5,-134.5"/>
<text text-anchor="middle" x="375.5" y="-122.5" font-family="Helvetica,sans-Serif" font-size="10.00">datatypes.h</text>
</a>
</g>
</g>
<!-- Node2&#45;&gt;Node9 -->
<g id="edge8_Node000002_Node000009" class="edge">
<title>Node2&#45;&gt;Node9</title>
<g id="a_edge8_Node000002_Node000009"><a xlink:title=" ">
<path fill="none" stroke="#63b8ff" d="M1726.32,-183.59C1568.89,-180.14 1010.96,-166.65 551.5,-140 507.77,-137.46 458.03,-133.4 422.6,-130.3"/>
<polygon fill="#63b8ff" stroke="#63b8ff" points="422.82,-126.8 412.55,-129.41 422.2,-133.78 422.82,-126.8"/>
</a>
</g>
</g>
<!-- Node17 -->
<g id="Node000017" class="node">
<title>Node17</title>
<g id="a_Node000017"><a xlink:href="errchk_8h.html" target="_top" xlink:title="Brief info.">
<polygon fill="white" stroke="#666666" points="920.5,-134.5 864.5,-134.5 864.5,-115.5 920.5,-115.5 920.5,-134.5"/>
<text text-anchor="middle" x="892.5" y="-122.5" font-family="Helvetica,sans-Serif" font-size="10.00">errchk.h</text>
</a>
</g>
</g>
<!-- Node2&#45;&gt;Node17 -->
<g id="edge20_Node000002_Node000017" class="edge">
<title>Node2&#45;&gt;Node17</title>
<g id="a_edge20_Node000002_Node000017"><a xlink:title=" ">
<path fill="none" stroke="#63b8ff" d="M1726.27,-183.91C1577.15,-181.63 1084.98,-171.8 930.5,-140 927.66,-139.42 924.75,-138.66 921.86,-137.79"/>
<polygon fill="#63b8ff" stroke="#63b8ff" points="922.88,-134.44 912.29,-134.56 920.64,-141.08 922.88,-134.44"/>
</a>
</g>
</g>
<!-- Node21 -->
<g id="Node000021" class="node">
<title>Node21</title>
<g id="a_Node000021"><a xlink:title=" ">
<polygon fill="#e0e0e0" stroke="#999999" points="1034,-134.5 939,-134.5 939,-115.5 1034,-115.5 1034,-134.5"/>
<text text-anchor="middle" x="986.5" y="-122.5" font-family="Helvetica,sans-Serif" font-size="10.00">user_defines.inc</text>
</a>
</g>
</g>
<!-- Node2&#45;&gt;Node21 -->
<g id="edge29_Node000002_Node000021" class="edge">
<title>Node2&#45;&gt;Node21</title>
<g id="a_edge29_Node000002_Node000021"><a xlink:title=" ">
<path fill="none" stroke="#63b8ff" d="M1726.25,-184.55C1613.3,-184.09 1300.36,-179.09 1043.5,-140 1038.02,-139.17 1032.3,-138.06 1026.68,-136.82"/>
<polygon fill="#63b8ff" stroke="#63b8ff" points="1027.3,-133.37 1016.77,-134.5 1025.71,-140.19 1027.3,-133.37"/>
</a>
</g>
</g>
<!-- Node22 -->
<g id="Node000022" class="node">
<title>Node22</title>
<g id="a_Node000022"><a xlink:title=" ">
<polygon fill="#e0e0e0" stroke="#999999" points="1146.5,-134.5 1052.5,-134.5 1052.5,-115.5 1146.5,-115.5 1146.5,-134.5"/>
<text text-anchor="middle" x="1099.5" y="-122.5" font-family="Helvetica,sans-Serif" font-size="10.00">profiles_info.inc</text>
</a>
</g>
</g>
<!-- Node2&#45;&gt;Node22 -->
<g id="edge30_Node000002_Node000022" class="edge">
<title>Node2&#45;&gt;Node22</title>
<g id="a_edge30_Node000002_Node000022"><a xlink:title=" ">
<path fill="none" stroke="#63b8ff" d="M1726.48,-183.86C1626.06,-181.83 1368.61,-173.5 1156.5,-140 1151.09,-139.15 1145.44,-138.03 1139.89,-136.81"/>
<polygon fill="#63b8ff" stroke="#63b8ff" points="1140.61,-133.38 1130.07,-134.51 1139.01,-140.2 1140.61,-133.38"/>
</a>
</g>
</g>
<!-- Node23 -->
<g id="Node000023" class="node">
<title>Node23</title>
<g id="a_Node000023"><a xlink:title=" ">
<polygon fill="#e0e0e0" stroke="#999999" points="1312,-134.5 1165,-134.5 1165,-115.5 1312,-115.5 1312,-134.5"/>
<text text-anchor="middle" x="1238.5" y="-122.5" font-family="Helvetica,sans-Serif" font-size="10.00">user_built&#45;in_constants.inc</text>
</a>
</g>
</g>
<!-- Node2&#45;&gt;Node23 -->
<g id="edge31_Node000002_Node000023" class="edge">
<title>Node2&#45;&gt;Node23</title>
<g id="a_edge31_Node000002_Node000023"><a xlink:title=" ">
<path fill="none" stroke="#63b8ff" d="M1726.45,-181.21C1646.48,-174.87 1469.66,-159.83 1321.5,-140 1313.17,-138.89 1304.4,-137.57 1295.8,-136.19"/>
<polygon fill="#63b8ff" stroke="#63b8ff" points="1296.25,-132.72 1285.82,-134.55 1295.12,-139.62 1296.25,-132.72"/>
</a>
</g>
</g>
<!-- Node24 -->
<g id="Node000024" class="node">
<title>Node24</title>
<g id="a_Node000024"><a xlink:href="func__attributes_8h.html" target="_top" xlink:title=" ">
<polygon fill="white" stroke="#666666" points="1429,-134.5 1330,-134.5 1330,-115.5 1429,-115.5 1429,-134.5"/>
<text text-anchor="middle" x="1379.5" y="-122.5" font-family="Helvetica,sans-Serif" font-size="10.00">func_attributes.h</text>
</a>
</g>
</g>
<!-- Node2&#45;&gt;Node24 -->
<g id="edge32_Node000002_Node000024" class="edge">
<title>Node2&#45;&gt;Node24</title>
<g id="a_edge32_Node000002_Node000024"><a xlink:title=" ">
<path fill="none" stroke="#63b8ff" d="M1726.44,-180.09C1663.07,-173.3 1541.12,-159.02 1438.5,-140 1433.39,-139.05 1428.06,-137.95 1422.78,-136.79"/>
<polygon fill="#63b8ff" stroke="#63b8ff" points="1423.29,-133.32 1412.76,-134.5 1421.73,-140.14 1423.29,-133.32"/>
</a>
</g>
</g>
<!-- Node25 -->
<g id="Node000025" class="node">
<title>Node25</title>
<g id="a_Node000025"><a xlink:title=" ">
<polygon fill="#e0e0e0" stroke="#999999" points="1580,-134.5 1447,-134.5 1447,-115.5 1580,-115.5 1580,-134.5"/>
<text text-anchor="middle" x="1513.5" y="-122.5" font-family="Helvetica,sans-Serif" font-size="10.00">user_input_typedefs.inc</text>
</a>
</g>
</g>
<!-- Node2&#45;&gt;Node25 -->
<g id="edge33_Node000002_Node000025" class="edge">
<title>Node2&#45;&gt;Node25</title>
<g id="a_edge33_Node000002_Node000025"><a xlink:title=" ">
<path fill="none" stroke="#63b8ff" d="M1732.28,-175.99C1686.87,-165.62 1610.06,-148.07 1560.59,-136.76"/>
<polygon fill="#63b8ff" stroke="#63b8ff" points="1561.3,-133.33 1550.77,-134.52 1559.74,-140.16 1561.3,-133.33"/>
</a>
</g>
</g>
<!-- Node26 -->
<g id="Node000026" class="node">
<title>Node26</title>
<g id="a_Node000026"><a xlink:title=" ">
<polygon fill="#e0e0e0" stroke="#999999" points="1689,-134.5 1598,-134.5 1598,-115.5 1689,-115.5 1689,-134.5"/>
<text text-anchor="middle" x="1643.5" y="-122.5" font-family="Helvetica,sans-Serif" font-size="10.00">output_decl.inc</text>
</a>
</g>
</g>
<!-- Node2&#45;&gt;Node26 -->
<g id="edge34_Node000002_Node000026" class="edge">
<title>Node2&#45;&gt;Node26</title>
<g id="a_edge34_Node000002_Node000026"><a xlink:title=" ">
<path fill="none" stroke="#63b8ff" d="M1751.18,-175.99C1730.09,-166.2 1695.24,-150.02 1670.92,-138.73"/>
<polygon fill="#63b8ff" stroke="#63b8ff" points="1672.39,-135.55 1661.84,-134.52 1669.44,-141.9 1672.39,-135.55"/>
</a>
</g>
</g>
<!-- Node27 -->
<g id="Node000027" class="node">
<title>Node27</title>
<g id="a_Node000027"><a xlink:title=" ">
<polygon fill="#e0e0e0" stroke="#999999" points="1832,-134.5 1707,-134.5 1707,-115.5 1832,-115.5 1832,-134.5"/>
<text text-anchor="middle" x="1769.5" y="-122.5" font-family="Helvetica,sans-Serif" font-size="10.00">comp_loaded_decl.inc</text>
</a>
</g>
</g>
<!-- Node2&#45;&gt;Node27 -->
<g id="edge35_Node000002_Node000027" class="edge">
<title>Node2&#45;&gt;Node27</title>
<g id="a_edge35_Node000002_Node000027"><a xlink:title=" ">
<path fill="none" stroke="#63b8ff" d="M1769.5,-175.87C1769.5,-167.75 1769.5,-155.31 1769.5,-144.89"/>
<polygon fill="#63b8ff" stroke="#63b8ff" points="1773,-144.67 1769.5,-134.67 1766,-144.67 1773,-144.67"/>
</a>
</g>
</g>
<!-- Node28 -->
<g id="Node000028" class="node">
<title>Node28</title>
<g id="a_Node000028"><a xlink:title=" ">
<polygon fill="#e0e0e0" stroke="#999999" points="1936.5,-134.5 1850.5,-134.5 1850.5,-115.5 1936.5,-115.5 1936.5,-134.5"/>
<text text-anchor="middle" x="1893.5" y="-122.5" font-family="Helvetica,sans-Serif" font-size="10.00">comp_decl.inc</text>
</a>
</g>
</g>
<!-- Node2&#45;&gt;Node28 -->
<g id="edge36_Node000002_Node000028" class="edge">
<title>Node2&#45;&gt;Node28</title>
<g id="a_edge36_Node000002_Node000028"><a xlink:title=" ">
<path fill="none" stroke="#63b8ff" d="M1787.53,-175.99C1808.19,-166.25 1842.28,-150.16 1866.2,-138.88"/>
<polygon fill="#63b8ff" stroke="#63b8ff" points="1867.9,-141.95 1875.45,-134.52 1864.91,-135.62 1867.9,-141.95"/>
</a>
</g>
</g>
<!-- Node29 -->
<g id="Node000029" class="node">
<title>Node29</title>
<g id="a_Node000029"><a xlink:title=" ">
<polygon fill="#e0e0e0" stroke="#999999" points="2070.5,-134.5 1954.5,-134.5 1954.5,-115.5 2070.5,-115.5 2070.5,-134.5"/>
<text text-anchor="middle" x="2012.5" y="-122.5" font-family="Helvetica,sans-Serif" font-size="10.00">info_loaded_decl.inc</text>
</a>
</g>
</g>
<!-- Node2&#45;&gt;Node29 -->
<g id="edge37_Node000002_Node000029" class="edge">
<title>Node2&#45;&gt;Node29</title>
<g id="a_edge37_Node000002_Node000029"><a xlink:title=" ">
<path fill="none" stroke="#63b8ff" d="M1804.83,-175.99C1847.76,-165.66 1920.24,-148.21 1967.22,-136.9"/>
<polygon fill="#63b8ff" stroke="#63b8ff" points="1968.22,-140.26 1977.12,-134.52 1966.58,-133.45 1968.22,-140.26"/>
</a>
</g>
</g>
<!-- Node30 -->
<g id="Node000030" class="node">
<title>Node30</title>
<g id="a_Node000030"><a xlink:title=" ">
<polygon fill="#e0e0e0" stroke="#999999" points="2236.5,-134.5 2088.5,-134.5 2088.5,-115.5 2236.5,-115.5 2236.5,-134.5"/>
<text text-anchor="middle" x="2162.5" y="-122.5" font-family="Helvetica,sans-Serif" font-size="10.00">device_mesh_info_decl.inc</text>
</a>
</g>
</g>
<!-- Node2&#45;&gt;Node30 -->
<g id="edge38_Node000002_Node000030" class="edge">
<title>Node2&#45;&gt;Node30</title>
<g id="a_edge38_Node000002_Node000030"><a xlink:title=" ">
<path fill="none" stroke="#63b8ff" d="M1812.68,-178.64C1872.62,-170.43 1984.41,-154.84 2079.5,-140 2087.11,-138.81 2095.11,-137.52 2103.02,-136.21"/>
<polygon fill="#63b8ff" stroke="#63b8ff" points="2103.65,-139.66 2112.94,-134.56 2102.5,-132.75 2103.65,-139.66"/>
</a>
</g>
</g>
<!-- Node31 -->
<g id="Node000031" class="node">
<title>Node31</title>
<g id="a_Node000031"><a xlink:title=" ">
<polygon fill="#e0e0e0" stroke="#999999" points="2340,-134.5 2255,-134.5 2255,-115.5 2340,-115.5 2340,-134.5"/>
<text text-anchor="middle" x="2297.5" y="-122.5" font-family="Helvetica,sans-Serif" font-size="10.00">array_decl.inc</text>
</a>
</g>
</g>
<!-- Node2&#45;&gt;Node31 -->
<g id="edge39_Node000002_Node000031" class="edge">
<title>Node2&#45;&gt;Node31</title>
<g id="a_edge39_Node000002_Node000031"><a xlink:title=" ">
<path fill="none" stroke="#63b8ff" d="M1812.82,-182.91C1896.86,-179.29 2087.64,-168.42 2245.5,-140 2250.02,-139.19 2254.72,-138.17 2259.37,-137.06"/>
<polygon fill="#63b8ff" stroke="#63b8ff" points="2260.53,-140.37 2269.36,-134.51 2258.81,-133.59 2260.53,-140.37"/>
</a>
</g>
</g>
<!-- Node32 -->
<g id="Node000032" class="node">
<title>Node32</title>
<g id="a_Node000032"><a xlink:title=" ">
<polygon fill="#e0e0e0" stroke="#999999" points="2442.5,-134.5 2358.5,-134.5 2358.5,-115.5 2442.5,-115.5 2442.5,-134.5"/>
<text text-anchor="middle" x="2400.5" y="-122.5" font-family="Helvetica,sans-Serif" font-size="10.00">input_decl.inc</text>
</a>
</g>
</g>
<!-- Node2&#45;&gt;Node32 -->
<g id="edge40_Node000002_Node000032" class="edge">
<title>Node2&#45;&gt;Node32</title>
<g id="a_edge40_Node000002_Node000032"><a xlink:title=" ">
<path fill="none" stroke="#63b8ff" d="M1812.78,-184C1909.65,-182.27 2151.01,-174.53 2349.5,-140 2354,-139.22 2358.67,-138.21 2363.28,-137.1"/>
<polygon fill="#63b8ff" stroke="#63b8ff" points="2364.39,-140.43 2373.19,-134.53 2362.63,-133.65 2364.39,-140.43"/>
</a>
</g>
</g>
<!-- Node33 -->
<g id="Node000033" class="node">
<title>Node33</title>
<g id="a_Node000033"><a xlink:href="ac__helpers_8h.html" target="_top" xlink:title=" ">
<polygon fill="white" stroke="#666666" points="2538.5,-134.5 2460.5,-134.5 2460.5,-115.5 2538.5,-115.5 2538.5,-134.5"/>
<text text-anchor="middle" x="2499.5" y="-122.5" font-family="Helvetica,sans-Serif" font-size="10.00">ac_helpers.h</text>
</a>
</g>
</g>
<!-- Node2&#45;&gt;Node33 -->
<g id="edge41_Node000002_Node000033" class="edge">
<title>Node2&#45;&gt;Node33</title>
<g id="a_edge41_Node000002_Node000033"><a xlink:title=" ">
<path fill="none" stroke="#63b8ff" d="M1812.58,-184.94C1920.87,-185.34 2212.83,-182.07 2451.5,-140 2455.68,-139.26 2460.02,-138.3 2464.3,-137.21"/>
<polygon fill="#63b8ff" stroke="#63b8ff" points="2465.37,-140.55 2474.09,-134.53 2463.52,-133.8 2465.37,-140.55"/>
</a>
</g>
</g>
<!-- Node34 -->
<g id="Node000034" class="node">
<title>Node34</title>
<g id="a_Node000034"><a xlink:title=" ">
<polygon fill="#e0e0e0" stroke="#999999" points="2674.5,-140 2556.5,-140 2556.5,-110 2674.5,-110 2674.5,-140"/>
<text text-anchor="start" x="2564.5" y="-128" font-family="Helvetica,sans-Serif" font-size="10.00">scalar_reduce_buffer</text>
<text text-anchor="middle" x="2615.5" y="-117" font-family="Helvetica,sans-Serif" font-size="10.00">_defs.inc</text>
</a>
</g>
</g>
<!-- Node2&#45;&gt;Node34 -->
<g id="edge42_Node000002_Node000034" class="edge">
<title>Node2&#45;&gt;Node34</title>
<g id="a_edge42_Node000002_Node000034"><a xlink:title=" ">
<path fill="none" stroke="#63b8ff" d="M1812.72,-184.23C1929.51,-183.05 2261.25,-176.57 2546.13,-140.04"/>
<polygon fill="#63b8ff" stroke="#63b8ff" points="2546.78,-143.49 2556.25,-138.73 2545.88,-136.55 2546.78,-143.49"/>
</a>
</g>
</g>
<!-- Node35 -->
<g id="Node000035" class="node">
<title>Node35</title>
<g id="a_Node000035"><a xlink:title=" ">
<polygon fill="#e0e0e0" stroke="#999999" points="2816,-140 2693,-140 2693,-110 2816,-110 2816,-140"/>
<text text-anchor="start" x="2701" y="-128" font-family="Helvetica,sans-Serif" font-size="10.00">scalar_reduce_buffers</text>
<text text-anchor="middle" x="2754.5" y="-117" font-family="Helvetica,sans-Serif" font-size="10.00">_in_vba.inc</text>
</a>
</g>
</g>
<!-- Node2&#45;&gt;Node35 -->
<g id="edge43_Node000002_Node000035" class="edge">
<title>Node2&#45;&gt;Node35</title>
<g id="a_edge43_Node000002_Node000035"><a xlink:title=" ">
<path fill="none" stroke="#63b8ff" d="M1812.52,-184.63C1942.41,-184.55 2342.07,-180.85 2682.57,-139.97"/>
<polygon fill="#63b8ff" stroke="#63b8ff" points="2683.12,-143.43 2692.63,-138.75 2682.28,-136.48 2683.12,-143.43"/>
</a>
</g>
</g>
<!-- Node36 -->
<g id="Node000036" class="node">
<title>Node36</title>
<g id="a_Node000036"><a xlink:href="astaroth__analysis_8h.html" target="_top" xlink:title=" ">
<polygon fill="white" stroke="#666666" points="2946.5,-134.5 2834.5,-134.5 2834.5,-115.5 2946.5,-115.5 2946.5,-134.5"/>
<text text-anchor="middle" x="2890.5" y="-122.5" font-family="Helvetica,sans-Serif" font-size="10.00">astaroth_analysis.h</text>
</a>
</g>
</g>
<!-- Node2&#45;&gt;Node36 -->
<g id="edge44_Node000002_Node000036" class="edge">
<title>Node2&#45;&gt;Node36</title>
<g id="a_edge44_Node000002_Node000036"><a xlink:title=" ">
<path fill="none" stroke="#63b8ff" d="M1812.62,-183.66C1984.96,-180.16 2624.6,-165.68 2825.5,-140 2832.27,-139.13 2839.38,-137.92 2846.31,-136.57"/>
<polygon fill="#63b8ff" stroke="#63b8ff" points="2847.19,-139.96 2856.28,-134.51 2845.78,-133.11 2847.19,-139.96"/>
</a>
</g>
</g>
<!-- Node37 -->
<g id="Node000037" class="node">
<title>Node37</title>
<g id="a_Node000037"><a xlink:href="func__define_8h.html" target="_top" xlink:title=" ">
<polygon fill="white" stroke="#666666" points="3046.5,-134.5 2964.5,-134.5 2964.5,-115.5 3046.5,-115.5 3046.5,-134.5"/>
<text text-anchor="middle" x="3005.5" y="-122.5" font-family="Helvetica,sans-Serif" font-size="10.00">func_define.h</text>
</a>
</g>
</g>
<!-- Node2&#45;&gt;Node37 -->
<g id="edge45_Node000002_Node000037" class="edge">
<title>Node2&#45;&gt;Node37</title>
<g id="a_edge45_Node000002_Node000037"><a xlink:title=" ">
<path fill="none" stroke="#63b8ff" d="M1812.54,-184.24C1997.86,-182.92 2728.65,-175.51 2955.5,-140 2960.08,-139.28 2964.84,-138.29 2969.52,-137.16"/>
<polygon fill="#63b8ff" stroke="#63b8ff" points="2970.77,-140.45 2979.55,-134.52 2968.99,-133.68 2970.77,-140.45"/>
</a>
</g>
</g>
<!-- Node38 -->
<g id="Node000038" class="node">
<title>Node38</title>
<g id="a_Node000038"><a xlink:href="common__kernels_8h.html" target="_top" xlink:title=" ">
<polygon fill="white" stroke="#666666" points="3174,-134.5 3065,-134.5 3065,-115.5 3174,-115.5 3174,-134.5"/>
<text text-anchor="middle" x="3119.5" y="-122.5" font-family="Helvetica,sans-Serif" font-size="10.00">common_kernels.h</text>
</a>
</g>
</g>
<!-- Node2&#45;&gt;Node38 -->
<g id="edge46_Node000002_Node000038" class="edge">
<title>Node2&#45;&gt;Node38</title>
<g id="a_edge46_Node000002_Node000038"><a xlink:title=" ">
<path fill="none" stroke="#63b8ff" d="M1812.79,-184.05C2007.95,-181.88 2807.11,-171.21 3055.5,-140 3062.17,-139.16 3069.18,-137.96 3076,-136.62"/>
<polygon fill="#63b8ff" stroke="#63b8ff" points="3076.75,-140.04 3085.82,-134.56 3075.31,-133.19 3076.75,-140.04"/>
</a>
</g>
</g>
<!-- Node39 -->
<g id="Node000039" class="node">
<title>Node39</title>
<g id="a_Node000039"><a xlink:title=" ">
<polygon fill="#e0e0e0" stroke="#999999" points="3326.5,-140 3192.5,-140 3192.5,-110 3326.5,-110 3326.5,-140"/>
<text text-anchor="start" x="3200.5" y="-128" font-family="Helvetica,sans-Serif" font-size="10.00">load_and_store_uniform</text>
<text text-anchor="middle" x="3259.5" y="-117" font-family="Helvetica,sans-Serif" font-size="10.00">_header.inc</text>
</a>
</g>
</g>
<!-- Node2&#45;&gt;Node39 -->
<g id="edge47_Node000002_Node000039" class="edge">
<title>Node2&#45;&gt;Node39</title>
<g id="a_edge47_Node000002_Node000039"><a xlink:title=" ">
<path fill="none" stroke="#63b8ff" d="M1812.52,-184.02C2016.36,-181.62 2887.11,-169.84 3182.19,-139.99"/>
<polygon fill="#63b8ff" stroke="#63b8ff" points="3182.86,-143.44 3192.44,-138.92 3182.13,-136.48 3182.86,-143.44"/>
</a>
</g>
</g>
<!-- Node6 -->
<g id="Node000006" class="node">
<title>Node6</title>
<g id="a_Node000006"><a xlink:title=" ">
<polygon fill="#e0e0e0" stroke="#999999" points="331,-19 218,-19 218,0 331,0 331,-19"/>
<text text-anchor="middle" x="274.5" y="-7" font-family="Helvetica,sans-Serif" font-size="10.00">cuda_runtime_api.h</text>
</a>
</g>
</g>
<!-- Node5&#45;&gt;Node6 -->
<g id="edge5_Node000005_Node000006" class="edge">
<title>Node5&#45;&gt;Node6</title>
<g id="a_edge5_Node000005_Node000006"><a xlink:title=" ">
<path fill="none" stroke="#63b8ff" d="M553.3,-55.28C495.16,-45.94 400.28,-30.7 337.62,-20.64"/>
<polygon fill="#63b8ff" stroke="#63b8ff" points="337.89,-17.14 327.46,-19.01 336.78,-24.05 337.89,-17.14"/>
</a>
</g>
</g>
<!-- Node7 -->
<g id="Node000007" class="node">
<title>Node7</title>
<g id="a_Node000007"><a xlink:title=" ">
<polygon fill="#e0e0e0" stroke="#999999" points="642.5,-19 566.5,-19 566.5,0 642.5,0 642.5,-19"/>
<text text-anchor="middle" x="604.5" y="-7" font-family="Helvetica,sans-Serif" font-size="10.00">cuda_fp16.h</text>
</a>
</g>
</g>
<!-- Node5&#45;&gt;Node7 -->
<g id="edge6_Node000005_Node000007" class="edge">
<title>Node5&#45;&gt;Node7</title>
<g id="a_edge6_Node000005_Node000007"><a xlink:title=" ">
<path fill="none" stroke="#63b8ff" d="M604.5,-54.75C604.5,-47.8 604.5,-37.85 604.5,-29.13"/>
<polygon fill="#63b8ff" stroke="#63b8ff" points="608,-29.09 604.5,-19.09 601,-29.09 608,-29.09"/>
</a>
</g>
</g>
<!-- Node9&#45;&gt;Node5 -->
<g id="edge11_Node000009_Node000005" class="edge">
<title>Node9&#45;&gt;Node5</title>
<g id="a_edge11_Node000009_Node000005"><a xlink:title=" ">
<path fill="none" stroke="#63b8ff" d="M408.8,-115.49C449.08,-105.2 516.98,-87.86 561.27,-76.54"/>
<polygon fill="#63b8ff" stroke="#63b8ff" points="562.34,-79.88 571.16,-74.02 560.61,-73.1 562.34,-79.88"/>
</a>
</g>
</g>
<!-- Node9&#45;&gt;Node6 -->
<g id="edge13_Node000009_Node000006" class="edge">
<title>Node9&#45;&gt;Node6</title>
<g id="a_edge13_Node000009_Node000006"><a xlink:title=" ">
<path fill="none" stroke="#63b8ff" d="M338.06,-121.22C280.27,-116.06 173.6,-102.79 150.5,-74 129.11,-47.33 169.14,-30.76 209.29,-21.26"/>
<polygon fill="#63b8ff" stroke="#63b8ff" points="210.19,-24.64 219.19,-19.05 208.67,-17.81 210.19,-24.64"/>
</a>
</g>
</g>
<!-- Node9&#45;&gt;Node8 -->
<g id="edge15_Node000009_Node000008" class="edge">
<title>Node9&#45;&gt;Node8</title>
<g id="a_edge15_Node000009_Node000008"><a xlink:title=" ">
<path fill="none" stroke="#63b8ff" d="M392.03,-115.37C410.47,-105.73 440.54,-90.03 462.01,-78.81"/>
<polygon fill="#63b8ff" stroke="#63b8ff" points="463.66,-81.9 470.91,-74.17 460.42,-75.69 463.66,-81.9"/>
</a>
</g>
</g>
<!-- Node10 -->
<g id="Node000010" class="node">
<title>Node10</title>
<g id="a_Node000010"><a xlink:title=" ">
<polygon fill="#e0e0e0" stroke="#999999" points="207,-74 160,-74 160,-55 207,-55 207,-74"/>
<text text-anchor="middle" x="183.5" y="-62" font-family="Helvetica,sans-Serif" font-size="10.00">float.h</text>
</a>
</g>
</g>
<!-- Node9&#45;&gt;Node10 -->
<g id="edge9_Node000009_Node000010" class="edge">
<title>Node9&#45;&gt;Node10</title>
<g id="a_edge9_Node000009_Node000010"><a xlink:title=" ">
<path fill="none" stroke="#63b8ff" d="M347.58,-115.49C312.98,-104.95 254.06,-87 217.04,-75.72"/>
<polygon fill="#63b8ff" stroke="#63b8ff" points="217.8,-72.29 207.21,-72.73 215.76,-78.99 217.8,-72.29"/>
</a>
</g>
</g>
<!-- Node11 -->
<g id="Node000011" class="node">
<title>Node11</title>
<g id="a_Node000011"><a xlink:title=" ">
<polygon fill="#e0e0e0" stroke="#999999" points="276,-74 225,-74 225,-55 276,-55 276,-74"/>
<text text-anchor="middle" x="250.5" y="-62" font-family="Helvetica,sans-Serif" font-size="10.00">math.h</text>
</a>
</g>
</g>
<!-- Node9&#45;&gt;Node11 -->
<g id="edge10_Node000009_Node000011" class="edge">
<title>Node9&#45;&gt;Node11</title>
<g id="a_edge10_Node000009_Node000011"><a xlink:title=" ">
<path fill="none" stroke="#63b8ff" d="M357.32,-115.49C336.49,-105.75 302.13,-89.66 278.02,-78.38"/>
<polygon fill="#63b8ff" stroke="#63b8ff" points="279.24,-75.09 268.7,-74.02 276.27,-81.43 279.24,-75.09"/>
</a>
</g>
</g>
<!-- Node12 -->
<g id="Node000012" class="node">
<title>Node12</title>
<g id="a_Node000012"><a xlink:title=" ">
<polygon fill="#e0e0e0" stroke="#999999" points="383,-74 294,-74 294,-55 383,-55 383,-74"/>
<text text-anchor="middle" x="338.5" y="-62" font-family="Helvetica,sans-Serif" font-size="10.00">vector_types.h</text>
</a>
</g>
</g>
<!-- Node9&#45;&gt;Node12 -->
<g id="edge12_Node000009_Node000012" class="edge">
<title>Node9&#45;&gt;Node12</title>
<g id="a_edge12_Node000009_Node000012"><a xlink:title=" ">
<path fill="none" stroke="#63b8ff" d="M370.04,-115.37C364.63,-106.81 356.19,-93.47 349.4,-82.74"/>
<polygon fill="#63b8ff" stroke="#63b8ff" points="352.29,-80.75 343.98,-74.17 346.37,-84.49 352.29,-80.75"/>
</a>
</g>
</g>
<!-- Node13 -->
<g id="Node000013" class="node">
<title>Node13</title>
<g id="a_Node000013"><a xlink:href="acreal_8h.html" target="_top" xlink:title=" ">
<polygon fill="white" stroke="#666666" points="493.5,-19 437.5,-19 437.5,0 493.5,0 493.5,-19"/>
<text text-anchor="middle" x="465.5" y="-7" font-family="Helvetica,sans-Serif" font-size="10.00">acreal.h</text>
</a>
</g>
</g>
<!-- Node9&#45;&gt;Node13 -->
<g id="edge14_Node000009_Node000013" class="edge">
<title>Node9&#45;&gt;Node13</title>
<g id="a_edge14_Node000009_Node000013"><a xlink:title=" ">
<path fill="none" stroke="#63b8ff" d="M382.26,-115.47C397.12,-96.74 432.81,-51.72 452.29,-27.16"/>
<polygon fill="#63b8ff" stroke="#63b8ff" points="455.19,-29.14 458.66,-19.13 449.7,-24.79 455.19,-29.14"/>
</a>
</g>
</g>
<!-- Node14 -->
<g id="Node000014" class="node">
<title>Node14</title>
<g id="a_Node000014"><a xlink:title=" ">
<polygon fill="#e0e0e0" stroke="#999999" points="103,-74 0,-74 0,-55 103,-55 103,-74"/>
<text text-anchor="middle" x="51.5" y="-62" font-family="Helvetica,sans-Serif" font-size="10.00">user_typedefs.inc</text>
</a>
</g>
</g>
<!-- Node9&#45;&gt;Node14 -->
<g id="edge16_Node000009_Node000014" class="edge">
<title>Node9&#45;&gt;Node14</title>
<g id="a_edge16_Node000009_Node000014"><a xlink:title=" ">
<path fill="none" stroke="#63b8ff" d="M338.33,-117.29C282.05,-107.13 174.75,-87.75 108.54,-75.8"/>
<polygon fill="#63b8ff" stroke="#63b8ff" points="109.14,-72.35 98.68,-74.02 107.9,-79.24 109.14,-72.35"/>
</a>
</g>
</g>
<!-- Node15 -->
<g id="Node000015" class="node">
<title>Node15</title>
<g id="a_Node000015"><a xlink:href="host__datatypes_8h.html" target="_top" xlink:title=" ">
<polygon fill="white" stroke="#666666" points="775,-74 674,-74 674,-55 775,-55 775,-74"/>
<text text-anchor="middle" x="724.5" y="-62" font-family="Helvetica,sans-Serif" font-size="10.00">host_datatypes.h</text>
</a>
</g>
</g>
<!-- Node9&#45;&gt;Node15 -->
<g id="edge17_Node000009_Node000015" class="edge">
<title>Node9&#45;&gt;Node15</title>
<g id="a_edge17_Node000009_Node000015"><a xlink:title=" ">
<path fill="none" stroke="#63b8ff" d="M412.52,-117.79C472.5,-107.74 591.5,-87.79 663.95,-75.65"/>
<polygon fill="#63b8ff" stroke="#63b8ff" points="664.57,-79.1 673.85,-73.99 663.41,-72.19 664.57,-79.1"/>
</a>
</g>
</g>
<!-- Node15&#45;&gt;Node13 -->
<g id="edge18_Node000015_Node000013" class="edge">
<title>Node15&#45;&gt;Node13</title>
<g id="a_edge18_Node000015_Node000013"><a xlink:title=" ">
<path fill="none" stroke="#63b8ff" d="M682.89,-54.98C633.46,-44.87 551.7,-28.14 503.78,-18.33"/>
<polygon fill="#63b8ff" stroke="#63b8ff" points="504.31,-14.87 493.81,-16.29 502.9,-21.73 504.31,-14.87"/>
</a>
</g>
</g>
<!-- Node16 -->
<g id="Node000016" class="node">
<title>Node16</title>
<g id="a_Node000016"><a xlink:title=" ">
<polygon fill="#e0e0e0" stroke="#999999" points="970.5,-19 914.5,-19 914.5,0 970.5,0 970.5,-19"/>
<text text-anchor="middle" x="942.5" y="-7" font-family="Helvetica,sans-Serif" font-size="10.00">stddef.h</text>
</a>
</g>
</g>
<!-- Node15&#45;&gt;Node16 -->
<g id="edge19_Node000015_Node000016" class="edge">
<title>Node15&#45;&gt;Node16</title>
<g id="a_edge19_Node000015_Node000016"><a xlink:title=" ">
<path fill="none" stroke="#63b8ff" d="M759.53,-54.98C799.25,-45.33 863.79,-29.64 904.64,-19.7"/>
<polygon fill="#63b8ff" stroke="#63b8ff" points="905.6,-23.07 914.49,-17.31 903.95,-16.27 905.6,-23.07"/>
</a>
</g>
</g>
<!-- Node17&#45;&gt;Node3 -->
<g id="edge25_Node000017_Node000003" class="edge">
<title>Node17&#45;&gt;Node3</title>
<g id="a_edge25_Node000017_Node000003"><a xlink:title=" ">
<path fill="none" stroke="#63b8ff" d="M881.58,-115.37C869.99,-106.21 851.47,-91.56 837.48,-80.51"/>
<polygon fill="#63b8ff" stroke="#63b8ff" points="839.48,-77.62 829.46,-74.17 835.14,-83.11 839.48,-77.62"/>
</a>
</g>
</g>
<!-- Node17&#45;&gt;Node4 -->
<g id="edge23_Node000017_Node000004" class="edge">
<title>Node17&#45;&gt;Node4</title>
<g id="a_edge23_Node000017_Node000004"><a xlink:title=" ">
<path fill="none" stroke="#63b8ff" d="M892.5,-115.37C892.5,-107.25 892.5,-94.81 892.5,-84.39"/>
<polygon fill="#63b8ff" stroke="#63b8ff" points="896,-84.17 892.5,-74.17 889,-84.17 896,-84.17"/>
</a>
</g>
</g>
<!-- Node17&#45;&gt;Node5 -->
<g id="edge28_Node000017_Node000005" class="edge">
<title>Node17&#45;&gt;Node5</title>
<g id="a_edge28_Node000017_Node000005"><a xlink:title=" ">
<path fill="none" stroke="#63b8ff" d="M864.36,-118.28C816.23,-108.51 717.4,-88.43 656.45,-76.05"/>
<polygon fill="#63b8ff" stroke="#63b8ff" points="657.13,-72.62 646.63,-74.06 655.74,-79.48 657.13,-72.62"/>
</a>
</g>
</g>
<!-- Node17&#45;&gt;Node15 -->
<g id="edge22_Node000017_Node000015" class="edge">
<title>Node17&#45;&gt;Node15</title>
<g id="a_edge22_Node000017_Node000015"><a xlink:title=" ">
<path fill="none" stroke="#63b8ff" d="M868.07,-115.49C839.21,-105.44 791,-88.66 758.5,-77.34"/>
<polygon fill="#63b8ff" stroke="#63b8ff" points="759.55,-74 748.96,-74.02 757.25,-80.61 759.55,-74"/>
</a>
</g>
</g>
<!-- Node17&#45;&gt;Node16 -->
<g id="edge21_Node000017_Node000016" class="edge">
<title>Node17&#45;&gt;Node16</title>
<g id="a_edge21_Node000017_Node000016"><a xlink:title=" ">
<path fill="none" stroke="#63b8ff" d="M913.58,-115.45C919.03,-113.46 924.93,-111.49 930.5,-110 976.46,-97.73 1110.82,-110.35 1141.5,-74 1186.66,-20.48 1050.49,-11.57 980.83,-10.42"/>
<polygon fill="#63b8ff" stroke="#63b8ff" points="980.7,-6.92 970.66,-10.3 980.62,-13.92 980.7,-6.92"/>
</a>
</g>
</g>
<!-- Node18 -->
<g id="Node000018" class="node">
<title>Node18</title>
<g id="a_Node000018"><a xlink:title=" ">
<polygon fill="#e0e0e0" stroke="#999999" points="995,-74 942,-74 942,-55 995,-55 995,-74"/>
<text text-anchor="middle" x="968.5" y="-62" font-family="Helvetica,sans-Serif" font-size="10.00">stdint.h</text>
</a>
</g>
</g>
<!-- Node17&#45;&gt;Node18 -->
<g id="edge24_Node000017_Node000018" class="edge">
<title>Node17&#45;&gt;Node18</title>
<g id="a_edge24_Node000017_Node000018"><a xlink:title=" ">
<path fill="none" stroke="#63b8ff" d="M903.71,-115.37C915.61,-106.21 934.64,-91.56 949.01,-80.51"/>
<polygon fill="#63b8ff" stroke="#63b8ff" points="951.45,-83.04 957.24,-74.17 947.18,-77.49 951.45,-83.04"/>
</a>
</g>
</g>
<!-- Node19 -->
<g id="Node000019" class="node">
<title>Node19</title>
<g id="a_Node000019"><a xlink:title=" ">
<polygon fill="#e0e0e0" stroke="#999999" points="1066,-74 1013,-74 1013,-55 1066,-55 1066,-74"/>
<text text-anchor="middle" x="1039.5" y="-62" font-family="Helvetica,sans-Serif" font-size="10.00">stdlib.h</text>
</a>
</g>
</g>
<!-- Node17&#45;&gt;Node19 -->
<g id="edge26_Node000017_Node000019" class="edge">
<title>Node17&#45;&gt;Node19</title>
<g id="a_edge26_Node000017_Node000019"><a xlink:title=" ">
<path fill="none" stroke="#63b8ff" d="M913.88,-115.49C938.81,-105.57 980.22,-89.09 1008.64,-77.78"/>
<polygon fill="#63b8ff" stroke="#63b8ff" points="1010.1,-80.97 1018.1,-74.02 1007.51,-74.46 1010.1,-80.97"/>
</a>
</g>
</g>
<!-- Node20 -->
<g id="Node000020" class="node">
<title>Node20</title>
<g id="a_Node000020"><a xlink:title=" ">
<polygon fill="#e0e0e0" stroke="#999999" points="1132.5,-74 1084.5,-74 1084.5,-55 1132.5,-55 1132.5,-74"/>
<text text-anchor="middle" x="1108.5" y="-62" font-family="Helvetica,sans-Serif" font-size="10.00">time.h</text>
</a>
</g>
</g>
<!-- Node17&#45;&gt;Node20 -->
<g id="edge27_Node000017_Node000020" class="edge">
<title>Node17&#45;&gt;Node20</title>
<g id="a_edge27_Node000017_Node000020"><a xlink:title=" ">
<path fill="none" stroke="#63b8ff" d="M914.46,-115.44C919.68,-113.54 925.26,-111.61 930.5,-110 991,-91.41 1009.42,-90.34 1074.42,-74.23"/>
<polygon fill="#63b8ff" stroke="#63b8ff" points="1075.51,-77.57 1084.36,-71.74 1073.8,-70.78 1075.51,-77.57"/>
</a>
</g>
</g>
</g>
</svg>

<g id="navigator" transform="translate(0 0)" fill="#404254">
  <rect fill="#f2f5e9" fill-opacity="0.5" stroke="#606060" stroke-width=".5" x="0" y="0" width="60" height="60"/>
  <use id="zoomplus" xlink:href="#zoomPlus" x="17" y="9" onmousedown="handleZoom(evt,'in')"/>
  <use id="zoomminus" xlink:href="#zoomMin" x="42" y="9" onmousedown="handleZoom(evt,'out')"/>
  <use id="reset" xlink:href="#resetDef" x="30" y="36" onmousedown="handleReset()"/>
   <use id="arrowup" xlink:href="#arrowUp" x="0" y="0" onmousedown="handlePan(0,-1)"/>
  <use id="arrowright" xlink:href="#arrowRight" x="0" y="0" onmousedown="handlePan(1,0)"/>
  <use id="arrowdown" xlink:href="#arrowDown" x="0" y="0" onmousedown="handlePan(0,1)"/>
  <use id="arrowleft" xlink:href="#arrowLeft" x="0" y="0" onmousedown="handlePan(-1,0)"/>
</g>
<svg viewBox="0 0 15 15" width="100%" height="30px" preserveAspectRatio="xMaxYMin meet">
 <g id="arrow_out" transform="scale(0.3 0.3)">
  <a xlink:href="astaroth__forcing_8h__incl_org.svg" target="_base">
   <rect id="button" ry="5" rx="5" y="6" x="6" height="38" width="38"
        fill="#f2f5e9" fill-opacity="0.5" stroke="#606060" stroke-width="1.0"/>
   <path id="arrow"
     d="M 11.500037,31.436501 C 11.940474,20.09759 22.043105,11.32322 32.158766,21.979434 L 37.068811,17.246167 C 37.068811,17.246167 37.088388,32 37.088388,32 L 22.160133,31.978069 C 22.160133,31.978069 26.997745,27.140456 26.997745,27.140456 C 18.528582,18.264221 13.291696,25.230495 11.500037,31.436501 z"
     style="fill:#404040;"/>
  </a>
 </g>
</svg>

<style type='text/css'>
<![CDATA[
[data-mouse-over-selected='false'] { opacity: 0.7; }
[data-mouse-over-selected='true']  { opacity: 1.0; }
]]>
</style>
<script type="application/ecmascript"><![CDATA[
document.addEventListener('DOMContentLoaded', (event) => {
  highlightEdges();
  highlightAdjacentNodes();
});
]]></script>
</svg>
