<?xml version="1.0" encoding="UTF-8" standalone="no"?>
<!DOCTYPE svg PUBLIC "-//W3C//DTD SVG 1.1//EN"
 "http://www.w3.org/Graphics/SVG/1.1/DTD/svg11.dtd">
<!-- Generated by graphviz version 2.43.0 (0)
 -->
<!-- Title: include/astaroth_utils.h Pages: 1 -->
<svg width="3934pt" height="379pt"
 viewBox="0.00 0.00 3934.00 379.00" xmlns="http://www.w3.org/2000/svg" xmlns:xlink="http://www.w3.org/1999/xlink">
<g id="graph0" class="graph" transform="scale(1 1) rotate(0) translate(4 375)">
<title>include/astaroth_utils.h</title>
<!-- Node1 -->
<g id="Node000001" class="node">
<title>Node1</title>
<g id="a_Node000001"><a xlink:title="Functions for loading and updating AcMeshInfo.">
<polygon fill="#999999" stroke="#666666" points="3268,-371 3137,-371 3137,-352 3268,-352 3268,-371"/>
<text text-anchor="middle" x="3202.5" y="-359" font-family="Helvetica,sans-Serif" font-size="10.00">include/astaroth_utils.h</text>
</a>
</g>
</g>
<!-- Node2 -->
<g id="Node000002" class="node">
<title>Node2</title>
<g id="a_Node000002"><a xlink:href="astaroth_8h.html" target="_top" xlink:title=" ">
<polygon fill="white" stroke="#666666" points="3156.5,-316 3090.5,-316 3090.5,-297 3156.5,-297 3156.5,-316"/>
<text text-anchor="middle" x="3123.5" y="-304" font-family="Helvetica,sans-Serif" font-size="10.00">astaroth.h</text>
</a>
</g>
</g>
<!-- Node1&#45;&gt;Node2 -->
<g id="edge1_Node000001_Node000002" class="edge">
<title>Node1&#45;&gt;Node2</title>
<g id="a_edge1_Node000001_Node000002"><a xlink:title=" ">
<path fill="none" stroke="#63b8ff" d="M3189.81,-351.98C3177.67,-343.84 3159.14,-331.41 3144.75,-321.76"/>
<polygon fill="#63b8ff" stroke="#63b8ff" points="3146.68,-318.84 3136.42,-316.17 3142.78,-324.65 3146.68,-318.84"/>
</a>
</g>
</g>
<!-- Node56 -->
<g id="Node000056" class="node">
<title>Node56</title>
<g id="a_Node000056"><a xlink:title=" ">
<polygon fill="#e0e0e0" stroke="#999999" points="3230.5,-316 3174.5,-316 3174.5,-297 3230.5,-297 3230.5,-316"/>
<text text-anchor="middle" x="3202.5" y="-304" font-family="Helvetica,sans-Serif" font-size="10.00">stdarg.h</text>
</a>
</g>
</g>
<!-- Node1&#45;&gt;Node56 -->
<g id="edge57_Node000001_Node000056" class="edge">
<title>Node1&#45;&gt;Node56</title>
<g id="a_edge57_Node000001_Node000056"><a xlink:title=" ">
<path fill="none" stroke="#63b8ff" d="M3202.5,-351.75C3202.5,-344.8 3202.5,-334.85 3202.5,-326.13"/>
<polygon fill="#63b8ff" stroke="#63b8ff" points="3206,-326.09 3202.5,-316.09 3199,-326.09 3206,-326.09"/>
</a>
</g>
</g>
<!-- Node57 -->
<g id="Node000057" class="node">
<title>Node57</title>
<g id="a_Node000057"><a xlink:href="astaroth__lib_8h.html" target="_top" xlink:title=" ">
<polygon fill="white" stroke="#666666" points="3332,-316 3249,-316 3249,-297 3332,-297 3332,-316"/>
<text text-anchor="middle" x="3290.5" y="-304" font-family="Helvetica,sans-Serif" font-size="10.00">astaroth_lib.h</text>
</a>
</g>
</g>
<!-- Node1&#45;&gt;Node57 -->
<g id="edge58_Node000001_Node000057" class="edge">
<title>Node1&#45;&gt;Node57</title>
<g id="a_edge58_Node000001_Node000057"><a xlink:title=" ">
<path fill="none" stroke="#63b8ff" d="M3216.64,-351.98C3230.29,-343.77 3251.19,-331.18 3267.28,-321.49"/>
<polygon fill="#63b8ff" stroke="#63b8ff" points="3269.34,-324.33 3276.1,-316.17 3265.73,-318.33 3269.34,-324.33"/>
</a>
</g>
</g>
<!-- Node3 -->
<g id="Node000003" class="node">
<title>Node3</title>
<g id="a_Node000003"><a xlink:href="astaroth__base_8h.html" target="_top" xlink:title=" ">
<polygon fill="white" stroke="#666666" points="2035,-261 1940,-261 1940,-242 2035,-242 2035,-261"/>
<text text-anchor="middle" x="1987.5" y="-249" font-family="Helvetica,sans-Serif" font-size="10.00">astaroth_base.h</text>
</a>
</g>
</g>
<!-- Node2&#45;&gt;Node3 -->
<g id="edge2_Node000002_Node000003" class="edge">
<title>Node2&#45;&gt;Node3</title>
<g id="a_edge2_Node000002_Node000003"><a xlink:title=" ">
<path fill="none" stroke="#63b8ff" d="M3090.42,-303.96C2931.97,-296.56 2249.81,-264.74 2045.52,-255.21"/>
<polygon fill="#63b8ff" stroke="#63b8ff" points="2045.46,-251.7 2035.31,-254.73 2045.13,-258.69 2045.46,-251.7"/>
</a>
</g>
</g>
<!-- Node44 -->
<g id="Node000044" class="node">
<title>Node44</title>
<g id="a_Node000044"><a xlink:href="astaroth__grid_8h.html" target="_top" xlink:title=" ">
<polygon fill="white" stroke="#666666" points="2679.5,-261 2589.5,-261 2589.5,-242 2679.5,-242 2679.5,-261"/>
<text text-anchor="middle" x="2634.5" y="-249" font-family="Helvetica,sans-Serif" font-size="10.00">astaroth_grid.h</text>
</a>
</g>
</g>
<!-- Node2&#45;&gt;Node44 -->
<g id="edge45_Node000002_Node000044" class="edge">
<title>Node2&#45;&gt;Node44</title>
<g id="a_edge45_Node000002_Node000044"><a xlink:title=" ">
<path fill="none" stroke="#63b8ff" d="M3090.41,-302.73C3019.18,-296.64 2845.79,-281.1 2689.8,-261.1"/>
<polygon fill="#63b8ff" stroke="#63b8ff" points="2689.92,-257.59 2679.55,-259.78 2689.02,-264.53 2689.92,-257.59"/>
</a>
</g>
</g>
<!-- Node45 -->
<g id="Node000045" class="node">
<title>Node45</title>
<g id="a_Node000045"><a xlink:href="astaroth__node_8h.html" target="_top" xlink:title=" ">
<polygon fill="white" stroke="#666666" points="2793,-261 2698,-261 2698,-242 2793,-242 2793,-261"/>
<text text-anchor="middle" x="2745.5" y="-249" font-family="Helvetica,sans-Serif" font-size="10.00">astaroth_node.h</text>
</a>
</g>
</g>
<!-- Node2&#45;&gt;Node45 -->
<g id="edge46_Node000002_Node000045" class="edge">
<title>Node2&#45;&gt;Node45</title>
<g id="a_edge46_Node000002_Node000045"><a xlink:title=" ">
<path fill="none" stroke="#63b8ff" d="M3090.21,-301C3033.6,-293.32 2914.71,-277.09 2803.16,-261.08"/>
<polygon fill="#63b8ff" stroke="#63b8ff" points="2803.48,-257.59 2793.08,-259.63 2802.48,-264.52 2803.48,-257.59"/>
</a>
</g>
</g>
<!-- Node46 -->
<g id="Node000046" class="node">
<title>Node46</title>
<g id="a_Node000046"><a xlink:href="astaroth__device_8h.html" target="_top" xlink:title=" ">
<polygon fill="white" stroke="#666666" points="2915.5,-261 2811.5,-261 2811.5,-242 2915.5,-242 2915.5,-261"/>
<text text-anchor="middle" x="2863.5" y="-249" font-family="Helvetica,sans-Serif" font-size="10.00">astaroth_device.h</text>
</a>
</g>
</g>
<!-- Node2&#45;&gt;Node46 -->
<g id="edge47_Node000002_Node000046" class="edge">
<title>Node2&#45;&gt;Node46</title>
<g id="a_edge47_Node000002_Node000046"><a xlink:title=" ">
<path fill="none" stroke="#63b8ff" d="M3090.31,-298.73C3046.16,-289.73 2967.64,-273.73 2915.57,-263.11"/>
<polygon fill="#63b8ff" stroke="#63b8ff" points="2916.02,-259.63 2905.52,-261.07 2914.62,-266.49 2916.02,-259.63"/>
</a>
</g>
</g>
<!-- Node49 -->
<g id="Node000049" class="node">
<title>Node49</title>
<g id="a_Node000049"><a xlink:href="astaroth__legacy_8h.html" target="_top" xlink:title=" ">
<polygon fill="white" stroke="#666666" points="3035.5,-261 2933.5,-261 2933.5,-242 3035.5,-242 3035.5,-261"/>
<text text-anchor="middle" x="2984.5" y="-249" font-family="Helvetica,sans-Serif" font-size="10.00">astaroth_legacy.h</text>
</a>
</g>
</g>
<!-- Node2&#45;&gt;Node49 -->
<g id="edge50_Node000002_Node000049" class="edge">
<title>Node2&#45;&gt;Node49</title>
<g id="a_edge50_Node000002_Node000049"><a xlink:title=" ">
<path fill="none" stroke="#63b8ff" d="M3101.17,-296.98C3078.3,-288.27 3042.54,-274.63 3016.64,-264.75"/>
<polygon fill="#63b8ff" stroke="#63b8ff" points="3017.83,-261.46 3007.24,-261.17 3015.34,-268 3017.83,-261.46"/>
</a>
</g>
</g>
<!-- Node50 -->
<g id="Node000050" class="node">
<title>Node50</title>
<g id="a_Node000050"><a xlink:title=" ">
<polygon fill="#e0e0e0" stroke="#999999" points="3193,-261 3054,-261 3054,-242 3193,-242 3193,-261"/>
<text text-anchor="middle" x="3123.5" y="-249" font-family="Helvetica,sans-Serif" font-size="10.00">device_set_input_decls.h</text>
</a>
</g>
</g>
<!-- Node2&#45;&gt;Node50 -->
<g id="edge51_Node000002_Node000050" class="edge">
<title>Node2&#45;&gt;Node50</title>
<g id="a_edge51_Node000002_Node000050"><a xlink:title=" ">
<path fill="none" stroke="#63b8ff" d="M3123.5,-296.75C3123.5,-289.8 3123.5,-279.85 3123.5,-271.13"/>
<polygon fill="#63b8ff" stroke="#63b8ff" points="3127,-271.09 3123.5,-261.09 3120,-271.09 3127,-271.09"/>
</a>
</g>
</g>
<!-- Node51 -->
<g id="Node000051" class="node">
<title>Node51</title>
<g id="a_Node000051"><a xlink:title=" ">
<polygon fill="#e0e0e0" stroke="#999999" points="3357.5,-261 3211.5,-261 3211.5,-242 3357.5,-242 3357.5,-261"/>
<text text-anchor="middle" x="3284.5" y="-249" font-family="Helvetica,sans-Serif" font-size="10.00">device_get_output_decls.h</text>
</a>
</g>
</g>
<!-- Node2&#45;&gt;Node51 -->
<g id="edge52_Node000002_Node000051" class="edge">
<title>Node2&#45;&gt;Node51</title>
<g id="a_edge52_Node000002_Node000051"><a xlink:title=" ">
<path fill="none" stroke="#63b8ff" d="M3149.37,-296.98C3176.28,-288.13 3218.62,-274.19 3248.73,-264.28"/>
<polygon fill="#63b8ff" stroke="#63b8ff" points="3250.03,-267.53 3258.43,-261.08 3247.84,-260.88 3250.03,-267.53"/>
</a>
</g>
</g>
<!-- Node52 -->
<g id="Node000052" class="node">
<title>Node52</title>
<g id="a_Node000052"><a xlink:title=" ">
<polygon fill="#e0e0e0" stroke="#999999" points="3515.5,-261 3375.5,-261 3375.5,-242 3515.5,-242 3515.5,-261"/>
<text text-anchor="middle" x="3445.5" y="-249" font-family="Helvetica,sans-Serif" font-size="10.00">device_get_input_decls.h</text>
</a>
</g>
</g>
<!-- Node2&#45;&gt;Node52 -->
<g id="edge53_Node000002_Node000052" class="edge">
<title>Node2&#45;&gt;Node52</title>
<g id="a_edge53_Node000002_Node000052"><a xlink:title=" ">
<path fill="none" stroke="#63b8ff" d="M3156.95,-298.6C3159.84,-298.04 3162.72,-297.5 3165.5,-297 3237.58,-283.98 3320.48,-271.06 3377.26,-262.53"/>
<polygon fill="#63b8ff" stroke="#63b8ff" points="3377.82,-265.98 3387.19,-261.04 3376.79,-259.06 3377.82,-265.98"/>
</a>
</g>
</g>
<!-- Node53 -->
<g id="Node000053" class="node">
<title>Node53</title>
<g id="a_Node000053"><a xlink:title=" ">
<polygon fill="#e0e0e0" stroke="#999999" points="3663.5,-261 3533.5,-261 3533.5,-242 3663.5,-242 3663.5,-261"/>
<text text-anchor="middle" x="3598.5" y="-249" font-family="Helvetica,sans-Serif" font-size="10.00">get_vtxbufs_declares.h</text>
</a>
</g>
</g>
<!-- Node2&#45;&gt;Node53 -->
<g id="edge54_Node000002_Node000053" class="edge">
<title>Node2&#45;&gt;Node53</title>
<g id="a_edge54_Node000002_Node000053"><a xlink:title=" ">
<path fill="none" stroke="#63b8ff" d="M3156.92,-298.42C3159.81,-297.91 3162.7,-297.42 3165.5,-297 3320.81,-273.56 3363.33,-277.95 3522.95,-261.14"/>
<polygon fill="#63b8ff" stroke="#63b8ff" points="3523.56,-264.6 3533.14,-260.06 3522.82,-257.64 3523.56,-264.6"/>
</a>
</g>
</g>
<!-- Node54 -->
<g id="Node000054" class="node">
<title>Node54</title>
<g id="a_Node000054"><a xlink:href="astaroth__runtime__compilation_8h.html" target="_top" xlink:title=" ">
<polygon fill="white" stroke="#666666" points="3855,-261 3682,-261 3682,-242 3855,-242 3855,-261"/>
<text text-anchor="middle" x="3768.5" y="-249" font-family="Helvetica,sans-Serif" font-size="10.00">astaroth_runtime_compilation.h</text>
</a>
</g>
</g>
<!-- Node2&#45;&gt;Node54 -->
<g id="edge55_Node000002_Node000054" class="edge">
<title>Node2&#45;&gt;Node54</title>
<g id="a_edge55_Node000002_Node000054"><a xlink:title=" ">
<path fill="none" stroke="#63b8ff" d="M3156.9,-298.34C3159.8,-297.84 3162.7,-297.38 3165.5,-297 3386.06,-266.98 3445.58,-278.61 3671.7,-261.04"/>
<polygon fill="#63b8ff" stroke="#63b8ff" points="3672.2,-264.51 3681.9,-260.24 3671.65,-257.53 3672.2,-264.51"/>
</a>
</g>
</g>
<!-- Node55 -->
<g id="Node000055" class="node">
<title>Node55</title>
<g id="a_Node000055"><a xlink:title=" ">
<polygon fill="#e0e0e0" stroke="#999999" points="3926,-261 3873,-261 3873,-242 3926,-242 3926,-261"/>
<text text-anchor="middle" x="3899.5" y="-249" font-family="Helvetica,sans-Serif" font-size="10.00">string.h</text>
</a>
</g>
</g>
<!-- Node2&#45;&gt;Node55 -->
<g id="edge56_Node000002_Node000055" class="edge">
<title>Node2&#45;&gt;Node55</title>
<g id="a_edge56_Node000002_Node000055"><a xlink:title=" ">
<path fill="none" stroke="#63b8ff" d="M3156.9,-298.28C3159.8,-297.79 3162.7,-297.35 3165.5,-297 3470.81,-258.46 3554.88,-304.88 3862.74,-260.98"/>
<polygon fill="#63b8ff" stroke="#63b8ff" points="3863.45,-264.41 3872.85,-259.52 3862.45,-257.48 3863.45,-264.41"/>
</a>
</g>
</g>
<!-- Node4 -->
<g id="Node000004" class="node">
<title>Node4</title>
<g id="a_Node000004"><a xlink:title=" ">
<polygon fill="#e0e0e0" stroke="#999999" points="2668.5,-74 2606.5,-74 2606.5,-55 2668.5,-55 2668.5,-74"/>
<text text-anchor="middle" x="2637.5" y="-62" font-family="Helvetica,sans-Serif" font-size="10.00">stdbool.h</text>
</a>
</g>
</g>
<!-- Node3&#45;&gt;Node4 -->
<g id="edge3_Node000003_Node000004" class="edge">
<title>Node3&#45;&gt;Node4</title>
<g id="a_edge3_Node000003_Node000004"><a xlink:title=" ">
<path fill="none" stroke="#63b8ff" d="M2035.09,-247.3C2195.61,-236.02 2709.78,-195.77 2756.5,-140 2782.93,-108.45 2722.73,-86.11 2678.67,-74.56"/>
<polygon fill="#63b8ff" stroke="#63b8ff" points="2679.27,-71.1 2668.72,-72.05 2677.57,-77.89 2679.27,-71.1"/>
</a>
</g>
</g>
<!-- Node5 -->
<g id="Node000005" class="node">
<title>Node5</title>
<g id="a_Node000005"><a xlink:href="acc__runtime_8h.html" target="_top" xlink:title=" ">
<polygon fill="white" stroke="#666666" points="1540.5,-200.5 1454.5,-200.5 1454.5,-181.5 1540.5,-181.5 1540.5,-200.5"/>
<text text-anchor="middle" x="1497.5" y="-188.5" font-family="Helvetica,sans-Serif" font-size="10.00">acc_runtime.h</text>
</a>
</g>
</g>
<!-- Node3&#45;&gt;Node5 -->
<g id="edge4_Node000003_Node000005" class="edge">
<title>Node3&#45;&gt;Node5</title>
<g id="a_edge4_Node000003_Node000005"><a xlink:title=" ">
<path fill="none" stroke="#63b8ff" d="M1939.62,-244.78C1847.61,-233.8 1646.72,-209.81 1550.68,-198.35"/>
<polygon fill="#63b8ff" stroke="#63b8ff" points="1550.96,-194.86 1540.62,-197.15 1550.13,-201.81 1550.96,-194.86"/>
</a>
</g>
</g>
<!-- Node25 -->
<g id="Node000025" class="node">
<title>Node25</title>
<g id="a_Node000025"><a xlink:title=" ">
<polygon fill="#e0e0e0" stroke="#999999" points="139,-134.5 0,-134.5 0,-115.5 139,-115.5 139,-134.5"/>
<text text-anchor="middle" x="69.5" y="-122.5" font-family="Helvetica,sans-Serif" font-size="10.00">user_built&#45;in_constants.h</text>
</a>
</g>
</g>
<!-- Node3&#45;&gt;Node25 -->
<g id="edge43_Node000003_Node000025" class="edge">
<title>Node3&#45;&gt;Node25</title>
<g id="a_edge43_Node000003_Node000025"><a xlink:title=" ">
<path fill="none" stroke="#63b8ff" d="M1939.77,-250.02C1824.74,-248.32 1535.11,-240.63 1445.5,-206 1425.1,-198.12 1427.1,-183.34 1406.5,-176 1274.24,-128.9 283.08,-155.1 143.5,-140 135.27,-139.11 126.6,-137.81 118.19,-136.34"/>
<polygon fill="#63b8ff" stroke="#63b8ff" points="118.58,-132.86 108.12,-134.5 117.32,-139.74 118.58,-132.86"/>
</a>
</g>
</g>
<!-- Node39 -->
<g id="Node000039" class="node">
<title>Node39</title>
<g id="a_Node000039"><a xlink:href="func__define_8h.html" target="_top" xlink:title=" ">
<polygon fill="white" stroke="#666666" points="2747.5,-134.5 2665.5,-134.5 2665.5,-115.5 2747.5,-115.5 2747.5,-134.5"/>
<text text-anchor="middle" x="2706.5" y="-122.5" font-family="Helvetica,sans-Serif" font-size="10.00">func_define.h</text>
</a>
</g>
</g>
<!-- Node3&#45;&gt;Node39 -->
<g id="edge42_Node000003_Node000039" class="edge">
<title>Node3&#45;&gt;Node39</title>
<g id="a_edge42_Node000003_Node000039"><a xlink:title=" ">
<path fill="none" stroke="#63b8ff" d="M2035.26,-243.96C2144.77,-228.67 2422.2,-188.17 2651.5,-140 2655.9,-139.07 2660.49,-138.03 2665.05,-136.95"/>
<polygon fill="#63b8ff" stroke="#63b8ff" points="2666.03,-140.31 2674.91,-134.53 2664.36,-133.51 2666.03,-140.31"/>
</a>
</g>
</g>
<!-- Node43 -->
<g id="Node000043" class="node">
<title>Node43</title>
<g id="a_Node000043"><a xlink:title=" ">
<polygon fill="#e0e0e0" stroke="#999999" points="1398,-206 1267,-206 1267,-176 1398,-176 1398,-206"/>
<text text-anchor="start" x="1275" y="-194" font-family="Helvetica,sans-Serif" font-size="10.00">user_builtin_non_scalar</text>
<text text-anchor="middle" x="1332.5" y="-183" font-family="Helvetica,sans-Serif" font-size="10.00">_constants.h</text>
</a>
</g>
</g>
<!-- Node3&#45;&gt;Node43 -->
<g id="edge44_Node000003_Node000043" class="edge">
<title>Node3&#45;&gt;Node43</title>
<g id="a_edge44_Node000003_Node000043"><a xlink:title=" ">
<path fill="none" stroke="#63b8ff" d="M1939.64,-248.35C1840.82,-243.58 1607.21,-230.51 1412.5,-206 1411.2,-205.84 1409.89,-205.67 1408.57,-205.49"/>
<polygon fill="#63b8ff" stroke="#63b8ff" points="1408.74,-201.98 1398.35,-204.04 1407.75,-208.91 1408.74,-201.98"/>
</a>
</g>
</g>
<!-- Node5&#45;&gt;Node4 -->
<g id="edge6_Node000005_Node000004" class="edge">
<title>Node5&#45;&gt;Node4</title>
<g id="a_edge6_Node000005_Node000004"><a xlink:title=" ">
<path fill="none" stroke="#63b8ff" d="M1540.63,-189.5C1741.33,-187.01 2575.97,-174.59 2618.5,-140 2634.81,-126.73 2638.24,-101.59 2638.47,-84.21"/>
<polygon fill="#63b8ff" stroke="#63b8ff" points="2641.97,-84.03 2638.26,-74.11 2634.97,-84.18 2641.97,-84.03"/>
</a>
</g>
</g>
<!-- Node6 -->
<g id="Node000006" class="node">
<title>Node6</title>
<g id="a_Node000006"><a xlink:title=" ">
<polygon fill="#e0e0e0" stroke="#999999" points="2569.5,-74 2519.5,-74 2519.5,-55 2569.5,-55 2569.5,-74"/>
<text text-anchor="middle" x="2544.5" y="-62" font-family="Helvetica,sans-Serif" font-size="10.00">stdio.h</text>
</a>
</g>
</g>
<!-- Node5&#45;&gt;Node6 -->
<g id="edge5_Node000005_Node000006" class="edge">
<title>Node5&#45;&gt;Node6</title>
<g id="a_edge5_Node000005_Node000006"><a xlink:title=" ">
<path fill="none" stroke="#63b8ff" d="M1540.61,-190.38C1722.86,-191.64 2424.59,-193 2506.5,-140 2525.88,-127.46 2535.85,-101.76 2540.62,-84.08"/>
<polygon fill="#63b8ff" stroke="#63b8ff" points="2544.03,-84.84 2542.95,-74.3 2537.22,-83.21 2544.03,-84.84"/>
</a>
</g>
</g>
<!-- Node7 -->
<g id="Node000007" class="node">
<title>Node7</title>
<g id="a_Node000007"><a xlink:href="device__headers_8h.html" target="_top" xlink:title=" ">
<polygon fill="white" stroke="#666666" points="523.5,-74 421.5,-74 421.5,-55 523.5,-55 523.5,-74"/>
<text text-anchor="middle" x="472.5" y="-62" font-family="Helvetica,sans-Serif" font-size="10.00">device_headers.h</text>
</a>
</g>
</g>
<!-- Node5&#45;&gt;Node7 -->
<g id="edge7_Node000005_Node000007" class="edge">
<title>Node5&#45;&gt;Node7</title>
<g id="a_edge7_Node000005_Node000007"><a xlink:title=" ">
<path fill="none" stroke="#63b8ff" d="M1467.85,-181.47C1459.11,-179.3 1449.48,-177.23 1440.5,-176 1378.6,-167.5 359.96,-184.88 316.5,-140 282.67,-105.07 354.15,-84.51 411.19,-74.13"/>
<polygon fill="#63b8ff" stroke="#63b8ff" points="412.03,-77.53 421.28,-72.36 410.83,-70.64 412.03,-77.53"/>
</a>
</g>
</g>
<!-- Node10 -->
<g id="Node000010" class="node">
<title>Node10</title>
<g id="a_Node000010"><a xlink:title=" ">
<polygon fill="#e0e0e0" stroke="#999999" points="124,-74 29,-74 29,-55 124,-55 124,-74"/>
<text text-anchor="middle" x="76.5" y="-62" font-family="Helvetica,sans-Serif" font-size="10.00">builtin_enums.h</text>
</a>
</g>
</g>
<!-- Node5&#45;&gt;Node10 -->
<g id="edge10_Node000005_Node000010" class="edge">
<title>Node5&#45;&gt;Node10</title>
<g id="a_edge10_Node000005_Node000010"><a xlink:title=" ">
<path fill="none" stroke="#63b8ff" d="M1467.85,-181.46C1459.11,-179.28 1449.49,-177.22 1440.5,-176 1302.37,-157.27 317.81,-186.77 186.5,-140 165.9,-132.66 165.45,-122.49 147.5,-110 131.92,-99.16 113.79,-87.82 99.75,-79.3"/>
<polygon fill="#63b8ff" stroke="#63b8ff" points="101.55,-76.3 91.18,-74.14 97.94,-82.29 101.55,-76.3"/>
</a>
</g>
</g>
<!-- Node11 -->
<g id="Node000011" class="node">
<title>Node11</title>
<g id="a_Node000011"><a xlink:href="datatypes_8h.html" target="_top" xlink:title=" ">
<polygon fill="#fff0f0" stroke="red" points="269.5,-134.5 195.5,-134.5 195.5,-115.5 269.5,-115.5 269.5,-134.5"/>
<text text-anchor="middle" x="232.5" y="-122.5" font-family="Helvetica,sans-Serif" font-size="10.00">datatypes.h</text>
</a>
</g>
</g>
<!-- Node5&#45;&gt;Node11 -->
<g id="edge11_Node000005_Node000011" class="edge">
<title>Node5&#45;&gt;Node11</title>
<g id="a_edge11_Node000005_Node000011"><a xlink:title=" ">
<path fill="none" stroke="#63b8ff" d="M1467.85,-181.47C1459.11,-179.3 1449.49,-177.23 1440.5,-176 930.78,-106.26 792.23,-216.63 283.5,-140 278.7,-139.28 273.71,-138.26 268.81,-137.09"/>
<polygon fill="#63b8ff" stroke="#63b8ff" points="269.54,-133.66 258.98,-134.55 267.78,-140.44 269.54,-133.66"/>
</a>
</g>
</g>
<!-- Node19 -->
<g id="Node000019" class="node">
<title>Node19</title>
<g id="a_Node000019"><a xlink:href="errchk_8h.html" target="_top" xlink:title="Brief info.">
<polygon fill="#fff0f0" stroke="red" points="2609.5,-134.5 2553.5,-134.5 2553.5,-115.5 2609.5,-115.5 2609.5,-134.5"/>
<text text-anchor="middle" x="2581.5" y="-122.5" font-family="Helvetica,sans-Serif" font-size="10.00">errchk.h</text>
</a>
</g>
</g>
<!-- Node5&#45;&gt;Node19 -->
<g id="edge18_Node000005_Node000019" class="edge">
<title>Node5&#45;&gt;Node19</title>
<g id="a_edge18_Node000005_Node000019"><a xlink:title=" ">
<path fill="none" stroke="#63b8ff" d="M1540.73,-189.5C1712.02,-187.27 2343.23,-176.7 2539.5,-140 2542.93,-139.36 2546.46,-138.51 2549.95,-137.53"/>
<polygon fill="#63b8ff" stroke="#63b8ff" points="2551.04,-140.86 2559.57,-134.57 2548.98,-134.17 2551.04,-140.86"/>
</a>
</g>
</g>
<!-- Node23 -->
<g id="Node000023" class="node">
<title>Node23</title>
<g id="a_Node000023"><a xlink:title=" ">
<polygon fill="#e0e0e0" stroke="#999999" points="413,-134.5 326,-134.5 326,-115.5 413,-115.5 413,-134.5"/>
<text text-anchor="middle" x="369.5" y="-122.5" font-family="Helvetica,sans-Serif" font-size="10.00">user_defines.h</text>
</a>
</g>
</g>
<!-- Node5&#45;&gt;Node23 -->
<g id="edge22_Node000005_Node000023" class="edge">
<title>Node5&#45;&gt;Node23</title>
<g id="a_edge22_Node000005_Node000023"><a xlink:title=" ">
<path fill="none" stroke="#63b8ff" d="M1467.85,-181.49C1459.11,-179.32 1449.48,-177.25 1440.5,-176 992.08,-113.68 870.36,-206.22 422.5,-140 417.39,-139.25 412.07,-138.18 406.86,-136.97"/>
<polygon fill="#63b8ff" stroke="#63b8ff" points="407.59,-133.55 397.04,-134.52 405.89,-140.34 407.59,-133.55"/>
</a>
</g>
</g>
<!-- Node24 -->
<g id="Node000024" class="node">
<title>Node24</title>
<g id="a_Node000024"><a xlink:title=" ">
<polygon fill="#e0e0e0" stroke="#999999" points="517.5,-134.5 431.5,-134.5 431.5,-115.5 517.5,-115.5 517.5,-134.5"/>
<text text-anchor="middle" x="474.5" y="-122.5" font-family="Helvetica,sans-Serif" font-size="10.00">profiles_info.h</text>
</a>
</g>
</g>
<!-- Node5&#45;&gt;Node24 -->
<g id="edge23_Node000005_Node000024" class="edge">
<title>Node5&#45;&gt;Node24</title>
<g id="a_edge23_Node000005_Node000024"><a xlink:title=" ">
<path fill="none" stroke="#63b8ff" d="M1467.55,-181.44C1458.89,-179.3 1449.38,-177.25 1440.5,-176 1037.95,-119.23 928.4,-201.23 526.5,-140 521.62,-139.26 516.53,-138.22 511.54,-137.05"/>
<polygon fill="#63b8ff" stroke="#63b8ff" points="512.07,-133.57 501.51,-134.5 510.34,-140.36 512.07,-133.57"/>
</a>
</g>
</g>
<!-- Node5&#45;&gt;Node25 -->
<g id="edge24_Node000005_Node000025" class="edge">
<title>Node5&#45;&gt;Node25</title>
<g id="a_edge24_Node000005_Node000025"><a xlink:title=" ">
<path fill="none" stroke="#63b8ff" d="M1467.85,-181.45C1459.11,-179.28 1449.49,-177.22 1440.5,-176 873.44,-99.32 723.06,-195.17 153.5,-140 143.89,-139.07 133.71,-137.7 123.89,-136.18"/>
<polygon fill="#63b8ff" stroke="#63b8ff" points="124.25,-132.69 113.82,-134.55 123.13,-139.6 124.25,-132.69"/>
</a>
</g>
</g>
<!-- Node26 -->
<g id="Node000026" class="node">
<title>Node26</title>
<g id="a_Node000026"><a xlink:href="func__attributes_8h.html" target="_top" xlink:title=" ">
<polygon fill="white" stroke="#666666" points="635,-134.5 536,-134.5 536,-115.5 635,-115.5 635,-134.5"/>
<text text-anchor="middle" x="585.5" y="-122.5" font-family="Helvetica,sans-Serif" font-size="10.00">func_attributes.h</text>
</a>
</g>
</g>
<!-- Node5&#45;&gt;Node26 -->
<g id="edge25_Node000005_Node000026" class="edge">
<title>Node5&#45;&gt;Node26</title>
<g id="a_edge25_Node000005_Node000026"><a xlink:title=" ">
<path fill="none" stroke="#63b8ff" d="M1467.54,-181.48C1458.88,-179.33 1449.38,-177.28 1440.5,-176 1089.54,-125.47 994.56,-189.83 643.5,-140 637.72,-139.18 631.67,-138.04 625.75,-136.77"/>
<polygon fill="#63b8ff" stroke="#63b8ff" points="626.52,-133.35 615.99,-134.52 624.95,-140.17 626.52,-133.35"/>
</a>
</g>
</g>
<!-- Node27 -->
<g id="Node000027" class="node">
<title>Node27</title>
<g id="a_Node000027"><a xlink:title=" ">
<polygon fill="#e0e0e0" stroke="#999999" points="778,-134.5 653,-134.5 653,-115.5 778,-115.5 778,-134.5"/>
<text text-anchor="middle" x="715.5" y="-122.5" font-family="Helvetica,sans-Serif" font-size="10.00">user_input_typedefs.h</text>
</a>
</g>
</g>
<!-- Node5&#45;&gt;Node27 -->
<g id="edge26_Node000005_Node000027" class="edge">
<title>Node5&#45;&gt;Node27</title>
<g id="a_edge26_Node000005_Node000027"><a xlink:title=" ">
<path fill="none" stroke="#63b8ff" d="M1467.24,-181.46C1458.66,-179.34 1449.27,-177.31 1440.5,-176 1152.57,-133.1 1075.34,-176.25 786.5,-140 779.05,-139.06 771.2,-137.8 763.55,-136.42"/>
<polygon fill="#63b8ff" stroke="#63b8ff" points="764.14,-132.97 753.66,-134.54 762.84,-139.84 764.14,-132.97"/>
</a>
</g>
</g>
<!-- Node28 -->
<g id="Node000028" class="node">
<title>Node28</title>
<g id="a_Node000028"><a xlink:title=" ">
<polygon fill="#e0e0e0" stroke="#999999" points="879,-134.5 796,-134.5 796,-115.5 879,-115.5 879,-134.5"/>
<text text-anchor="middle" x="837.5" y="-122.5" font-family="Helvetica,sans-Serif" font-size="10.00">output_decl.h</text>
</a>
</g>
</g>
<!-- Node5&#45;&gt;Node28 -->
<g id="edge27_Node000005_Node000028" class="edge">
<title>Node5&#45;&gt;Node28</title>
<g id="a_edge27_Node000005_Node000028"><a xlink:title=" ">
<path fill="none" stroke="#63b8ff" d="M1466.93,-181.45C1458.44,-179.35 1449.16,-177.34 1440.5,-176 1197.52,-138.53 1130.95,-180.75 888.5,-140 883.95,-139.23 879.21,-138.23 874.55,-137.11"/>
<polygon fill="#63b8ff" stroke="#63b8ff" points="875.09,-133.63 864.53,-134.52 873.34,-140.41 875.09,-133.63"/>
</a>
</g>
</g>
<!-- Node29 -->
<g id="Node000029" class="node">
<title>Node29</title>
<g id="a_Node000029"><a xlink:title=" ">
<polygon fill="#e0e0e0" stroke="#999999" points="1013.5,-134.5 897.5,-134.5 897.5,-115.5 1013.5,-115.5 1013.5,-134.5"/>
<text text-anchor="middle" x="955.5" y="-122.5" font-family="Helvetica,sans-Serif" font-size="10.00">comp_loaded_decl.h</text>
</a>
</g>
</g>
<!-- Node5&#45;&gt;Node29 -->
<g id="edge28_Node000005_Node000029" class="edge">
<title>Node5&#45;&gt;Node29</title>
<g id="a_edge28_Node000005_Node000029"><a xlink:title=" ">
<path fill="none" stroke="#63b8ff" d="M1466.62,-181.49C1458.2,-179.43 1449.05,-177.41 1440.5,-176 1256.52,-145.67 1206.98,-167.12 1022.5,-140 1015.86,-139.02 1008.9,-137.8 1002.07,-136.48"/>
<polygon fill="#63b8ff" stroke="#63b8ff" points="1002.71,-133.04 992.22,-134.5 1001.33,-139.9 1002.71,-133.04"/>
</a>
</g>
</g>
<!-- Node30 -->
<g id="Node000030" class="node">
<title>Node30</title>
<g id="a_Node000030"><a xlink:title=" ">
<polygon fill="#e0e0e0" stroke="#999999" points="1109.5,-134.5 1031.5,-134.5 1031.5,-115.5 1109.5,-115.5 1109.5,-134.5"/>
<text text-anchor="middle" x="1070.5" y="-122.5" font-family="Helvetica,sans-Serif" font-size="10.00">comp_decl.h</text>
</a>
</g>
</g>
<!-- Node5&#45;&gt;Node30 -->
<g id="edge29_Node000005_Node000030" class="edge">
<title>Node5&#45;&gt;Node30</title>
<g id="a_edge29_Node000005_Node000030"><a xlink:title=" ">
<path fill="none" stroke="#63b8ff" d="M1466,-181.49C1457.75,-179.47 1448.83,-177.48 1440.5,-176 1298.72,-150.77 1259.7,-168.27 1118.5,-140 1114.59,-139.22 1110.54,-138.26 1106.52,-137.23"/>
<polygon fill="#63b8ff" stroke="#63b8ff" points="1107.28,-133.81 1096.7,-134.53 1105.42,-140.56 1107.28,-133.81"/>
</a>
</g>
</g>
<!-- Node31 -->
<g id="Node000031" class="node">
<title>Node31</title>
<g id="a_Node000031"><a xlink:title=" ">
<polygon fill="#e0e0e0" stroke="#999999" points="1235.5,-134.5 1127.5,-134.5 1127.5,-115.5 1235.5,-115.5 1235.5,-134.5"/>
<text text-anchor="middle" x="1181.5" y="-122.5" font-family="Helvetica,sans-Serif" font-size="10.00">info_loaded_decl.h</text>
</a>
</g>
</g>
<!-- Node5&#45;&gt;Node31 -->
<g id="edge30_Node000005_Node000031" class="edge">
<title>Node5&#45;&gt;Node31</title>
<g id="a_edge30_Node000005_Node000031"><a xlink:title=" ">
<path fill="none" stroke="#63b8ff" d="M1464.12,-181.45C1456.39,-179.57 1448.17,-177.65 1440.5,-176 1353.9,-157.43 1331.3,-157.61 1244.5,-140 1239.41,-138.97 1234.11,-137.85 1228.82,-136.71"/>
<polygon fill="#63b8ff" stroke="#63b8ff" points="1229.28,-133.23 1218.76,-134.52 1227.79,-140.07 1229.28,-133.23"/>
</a>
</g>
</g>
<!-- Node32 -->
<g id="Node000032" class="node">
<title>Node32</title>
<g id="a_Node000032"><a xlink:title=" ">
<polygon fill="#e0e0e0" stroke="#999999" points="1393.5,-134.5 1253.5,-134.5 1253.5,-115.5 1393.5,-115.5 1393.5,-134.5"/>
<text text-anchor="middle" x="1323.5" y="-122.5" font-family="Helvetica,sans-Serif" font-size="10.00">device_mesh_info_decl.h</text>
</a>
</g>
</g>
<!-- Node5&#45;&gt;Node32 -->
<g id="edge31_Node000005_Node000032" class="edge">
<title>Node5&#45;&gt;Node32</title>
<g id="a_edge31_Node000005_Node000032"><a xlink:title=" ">
<path fill="none" stroke="#63b8ff" d="M1474.03,-181.37C1443.72,-170.22 1390.79,-150.75 1356.46,-138.12"/>
<polygon fill="#63b8ff" stroke="#63b8ff" points="1357.47,-134.76 1346.87,-134.6 1355.05,-141.33 1357.47,-134.76"/>
</a>
</g>
</g>
<!-- Node33 -->
<g id="Node000033" class="node">
<title>Node33</title>
<g id="a_Node000033"><a xlink:title=" ">
<polygon fill="#e0e0e0" stroke="#999999" points="1489,-134.5 1412,-134.5 1412,-115.5 1489,-115.5 1489,-134.5"/>
<text text-anchor="middle" x="1450.5" y="-122.5" font-family="Helvetica,sans-Serif" font-size="10.00">array_decl.h</text>
</a>
</g>
</g>
<!-- Node5&#45;&gt;Node33 -->
<g id="edge32_Node000005_Node000033" class="edge">
<title>Node5&#45;&gt;Node33</title>
<g id="a_edge32_Node000005_Node000033"><a xlink:title=" ">
<path fill="none" stroke="#63b8ff" d="M1491.16,-181.37C1483.98,-171.59 1472.11,-155.42 1463.04,-143.08"/>
<polygon fill="#63b8ff" stroke="#63b8ff" points="1465.78,-140.89 1457.04,-134.91 1460.14,-145.04 1465.78,-140.89"/>
</a>
</g>
</g>
<!-- Node34 -->
<g id="Node000034" class="node">
<title>Node34</title>
<g id="a_Node000034"><a xlink:title=" ">
<polygon fill="#e0e0e0" stroke="#999999" points="1583.5,-134.5 1507.5,-134.5 1507.5,-115.5 1583.5,-115.5 1583.5,-134.5"/>
<text text-anchor="middle" x="1545.5" y="-122.5" font-family="Helvetica,sans-Serif" font-size="10.00">input_decl.h</text>
</a>
</g>
</g>
<!-- Node5&#45;&gt;Node34 -->
<g id="edge33_Node000005_Node000034" class="edge">
<title>Node5&#45;&gt;Node34</title>
<g id="a_edge33_Node000005_Node000034"><a xlink:title=" ">
<path fill="none" stroke="#63b8ff" d="M1503.97,-181.37C1511.3,-171.59 1523.43,-155.42 1532.69,-143.08"/>
<polygon fill="#63b8ff" stroke="#63b8ff" points="1535.62,-145.01 1538.82,-134.91 1530.02,-140.81 1535.62,-145.01"/>
</a>
</g>
</g>
<!-- Node35 -->
<g id="Node000035" class="node">
<title>Node35</title>
<g id="a_Node000035"><a xlink:href="ac__helpers_8h.html" target="_top" xlink:title=" ">
<polygon fill="white" stroke="#666666" points="1679.5,-134.5 1601.5,-134.5 1601.5,-115.5 1679.5,-115.5 1679.5,-134.5"/>
<text text-anchor="middle" x="1640.5" y="-122.5" font-family="Helvetica,sans-Serif" font-size="10.00">ac_helpers.h</text>
</a>
</g>
</g>
<!-- Node5&#45;&gt;Node35 -->
<g id="edge34_Node000005_Node000035" class="edge">
<title>Node5&#45;&gt;Node35</title>
<g id="a_edge34_Node000005_Node000035"><a xlink:title=" ">
<path fill="none" stroke="#63b8ff" d="M1516.79,-181.37C1541.2,-170.44 1583.47,-151.52 1611.71,-138.88"/>
<polygon fill="#63b8ff" stroke="#63b8ff" points="1613.37,-141.98 1621.06,-134.7 1610.51,-135.59 1613.37,-141.98"/>
</a>
</g>
</g>
<!-- Node36 -->
<g id="Node000036" class="node">
<title>Node36</title>
<g id="a_Node000036"><a xlink:title=" ">
<polygon fill="#e0e0e0" stroke="#999999" points="1815.5,-140 1697.5,-140 1697.5,-110 1815.5,-110 1815.5,-140"/>
<text text-anchor="start" x="1705.5" y="-128" font-family="Helvetica,sans-Serif" font-size="10.00">scalar_reduce_buffer</text>
<text text-anchor="middle" x="1756.5" y="-117" font-family="Helvetica,sans-Serif" font-size="10.00">_defs.h</text>
</a>
</g>
</g>
<!-- Node5&#45;&gt;Node36 -->
<g id="edge35_Node000005_Node000036" class="edge">
<title>Node5&#45;&gt;Node36</title>
<g id="a_edge35_Node000005_Node000036"><a xlink:title=" ">
<path fill="none" stroke="#63b8ff" d="M1532.16,-181.44C1572.35,-171.5 1639.52,-154.91 1689.9,-142.46"/>
<polygon fill="#63b8ff" stroke="#63b8ff" points="1690.87,-145.82 1699.74,-140.02 1689.2,-139.03 1690.87,-145.82"/>
</a>
</g>
</g>
<!-- Node37 -->
<g id="Node000037" class="node">
<title>Node37</title>
<g id="a_Node000037"><a xlink:title=" ">
<polygon fill="#e0e0e0" stroke="#999999" points="1957,-140 1834,-140 1834,-110 1957,-110 1957,-140"/>
<text text-anchor="start" x="1842" y="-128" font-family="Helvetica,sans-Serif" font-size="10.00">scalar_reduce_buffers</text>
<text text-anchor="middle" x="1895.5" y="-117" font-family="Helvetica,sans-Serif" font-size="10.00">_in_vba.h</text>
</a>
</g>
</g>
<!-- Node5&#45;&gt;Node37 -->
<g id="edge36_Node000005_Node000037" class="edge">
<title>Node5&#45;&gt;Node37</title>
<g id="a_edge36_Node000005_Node000037"><a xlink:title=" ">
<path fill="none" stroke="#63b8ff" d="M1540.71,-184C1601.48,-175.42 1715.9,-158.79 1823.87,-140.06"/>
<polygon fill="#63b8ff" stroke="#63b8ff" points="1824.71,-143.47 1833.96,-138.3 1823.5,-136.57 1824.71,-143.47"/>
</a>
</g>
</g>
<!-- Node38 -->
<g id="Node000038" class="node">
<title>Node38</title>
<g id="a_Node000038"><a xlink:href="astaroth__analysis_8h.html" target="_top" xlink:title=" ">
<polygon fill="white" stroke="#666666" points="2087.5,-134.5 1975.5,-134.5 1975.5,-115.5 2087.5,-115.5 2087.5,-134.5"/>
<text text-anchor="middle" x="2031.5" y="-122.5" font-family="Helvetica,sans-Serif" font-size="10.00">astaroth_analysis.h</text>
</a>
</g>
</g>
<!-- Node5&#45;&gt;Node38 -->
<g id="edge37_Node000005_Node000038" class="edge">
<title>Node5&#45;&gt;Node38</title>
<g id="a_edge37_Node000005_Node000038"><a xlink:title=" ">
<path fill="none" stroke="#63b8ff" d="M1540.6,-186.88C1623.33,-180.57 1809.95,-164.74 1965.5,-140 1971.72,-139.01 1978.25,-137.82 1984.67,-136.55"/>
<polygon fill="#63b8ff" stroke="#63b8ff" points="1985.53,-139.95 1994.62,-134.52 1984.13,-133.09 1985.53,-139.95"/>
</a>
</g>
</g>
<!-- Node5&#45;&gt;Node39 -->
<g id="edge38_Node000005_Node000039" class="edge">
<title>Node5&#45;&gt;Node39</title>
<g id="a_edge38_Node000005_Node000039"><a xlink:title=" ">
<path fill="none" stroke="#63b8ff" d="M1540.58,-189.32C1722.79,-186.27 2430.91,-172.5 2651.5,-140 2656.73,-139.23 2662.18,-138.17 2667.53,-136.97"/>
<polygon fill="#63b8ff" stroke="#63b8ff" points="2668.71,-140.29 2677.61,-134.54 2667.07,-133.48 2668.71,-140.29"/>
</a>
</g>
</g>
<!-- Node40 -->
<g id="Node000040" class="node">
<title>Node40</title>
<g id="a_Node000040"><a xlink:href="common__kernels_8h.html" target="_top" xlink:title=" ">
<polygon fill="white" stroke="#666666" points="2215,-134.5 2106,-134.5 2106,-115.5 2215,-115.5 2215,-134.5"/>
<text text-anchor="middle" x="2160.5" y="-122.5" font-family="Helvetica,sans-Serif" font-size="10.00">common_kernels.h</text>
</a>
</g>
</g>
<!-- Node5&#45;&gt;Node40 -->
<g id="edge39_Node000005_Node000040" class="edge">
<title>Node5&#45;&gt;Node40</title>
<g id="a_edge39_Node000005_Node000040"><a xlink:title=" ">
<path fill="none" stroke="#63b8ff" d="M1540.58,-188.36C1639.36,-184.17 1889.6,-171.13 2096.5,-140 2102.7,-139.07 2109.2,-137.89 2115.58,-136.61"/>
<polygon fill="#63b8ff" stroke="#63b8ff" points="2116.37,-140.02 2125.44,-134.54 2114.94,-133.17 2116.37,-140.02"/>
</a>
</g>
</g>
<!-- Node41 -->
<g id="Node000041" class="node">
<title>Node41</title>
<g id="a_Node000041"><a xlink:title=" ">
<polygon fill="#e0e0e0" stroke="#999999" points="2345.5,-134.5 2233.5,-134.5 2233.5,-115.5 2345.5,-115.5 2345.5,-134.5"/>
<text text-anchor="middle" x="2289.5" y="-122.5" font-family="Helvetica,sans-Serif" font-size="10.00">user_declarations.h</text>
</a>
</g>
</g>
<!-- Node5&#45;&gt;Node41 -->
<g id="edge40_Node000005_Node000041" class="edge">
<title>Node5&#45;&gt;Node41</title>
<g id="a_edge40_Node000005_Node000041"><a xlink:title=" ">
<path fill="none" stroke="#63b8ff" d="M1540.68,-189.14C1653.47,-186.43 1966.06,-175.99 2223.5,-140 2230.12,-139.07 2237.08,-137.86 2243.88,-136.54"/>
<polygon fill="#63b8ff" stroke="#63b8ff" points="2244.59,-139.97 2253.7,-134.55 2243.2,-133.11 2244.59,-139.97"/>
</a>
</g>
</g>
<!-- Node42 -->
<g id="Node000042" class="node">
<title>Node42</title>
<g id="a_Node000042"><a xlink:title=" ">
<polygon fill="#e0e0e0" stroke="#999999" points="2497.5,-140 2363.5,-140 2363.5,-110 2497.5,-110 2497.5,-140"/>
<text text-anchor="start" x="2371.5" y="-128" font-family="Helvetica,sans-Serif" font-size="10.00">load_and_store_uniform</text>
<text text-anchor="middle" x="2430.5" y="-117" font-family="Helvetica,sans-Serif" font-size="10.00">_header.h</text>
</a>
</g>
</g>
<!-- Node5&#45;&gt;Node42 -->
<g id="edge41_Node000005_Node000042" class="edge">
<title>Node5&#45;&gt;Node42</title>
<g id="a_edge41_Node000005_Node000042"><a xlink:title=" ">
<path fill="none" stroke="#63b8ff" d="M1540.92,-189.36C1665.69,-187.14 2036.08,-177.7 2353.12,-140.06"/>
<polygon fill="#63b8ff" stroke="#63b8ff" points="2353.92,-143.49 2363.43,-138.82 2353.09,-136.54 2353.92,-143.49"/>
</a>
</g>
</g>
<!-- Node8 -->
<g id="Node000008" class="node">
<title>Node8</title>
<g id="a_Node000008"><a xlink:title=" ">
<polygon fill="#e0e0e0" stroke="#999999" points="450,-19 337,-19 337,0 450,0 450,-19"/>
<text text-anchor="middle" x="393.5" y="-7" font-family="Helvetica,sans-Serif" font-size="10.00">cuda_runtime_api.h</text>
</a>
</g>
</g>
<!-- Node7&#45;&gt;Node8 -->
<g id="edge8_Node000007_Node000008" class="edge">
<title>Node7&#45;&gt;Node8</title>
<g id="a_edge8_Node000007_Node000008"><a xlink:title=" ">
<path fill="none" stroke="#63b8ff" d="M459.81,-54.98C447.67,-46.84 429.14,-34.41 414.75,-24.76"/>
<polygon fill="#63b8ff" stroke="#63b8ff" points="416.68,-21.84 406.42,-19.17 412.78,-27.65 416.68,-21.84"/>
</a>
</g>
</g>
<!-- Node9 -->
<g id="Node000009" class="node">
<title>Node9</title>
<g id="a_Node000009"><a xlink:title=" ">
<polygon fill="#e0e0e0" stroke="#999999" points="544.5,-19 468.5,-19 468.5,0 544.5,0 544.5,-19"/>
<text text-anchor="middle" x="506.5" y="-7" font-family="Helvetica,sans-Serif" font-size="10.00">cuda_fp16.h</text>
</a>
</g>
</g>
<!-- Node7&#45;&gt;Node9 -->
<g id="edge9_Node000007_Node000009" class="edge">
<title>Node7&#45;&gt;Node9</title>
<g id="a_edge9_Node000007_Node000009"><a xlink:title=" ">
<path fill="none" stroke="#63b8ff" d="M478.11,-54.75C482.82,-47.42 489.67,-36.73 495.47,-27.7"/>
<polygon fill="#63b8ff" stroke="#63b8ff" points="498.54,-29.4 500.99,-19.09 492.64,-25.62 498.54,-29.4"/>
</a>
</g>
</g>
<!-- Node11&#45;&gt;Node7 -->
<g id="edge14_Node000011_Node000007" class="edge">
<title>Node11&#45;&gt;Node7</title>
<g id="a_edge14_Node000011_Node000007"><a xlink:title=" ">
<path fill="none" stroke="#63b8ff" d="M262.93,-115.45C269.69,-113.61 276.83,-111.7 283.5,-110 331.33,-97.81 386.27,-85.01 424.54,-76.28"/>
<polygon fill="#63b8ff" stroke="#63b8ff" points="425.41,-79.67 434.39,-74.04 423.86,-72.85 425.41,-79.67"/>
</a>
</g>
</g>
<!-- Node11&#45;&gt;Node8 -->
<g id="edge16_Node000011_Node000008" class="edge">
<title>Node11&#45;&gt;Node8</title>
<g id="a_edge16_Node000011_Node000008"><a xlink:title=" ">
<path fill="none" stroke="#63b8ff" d="M260.9,-115.42C299.71,-103.48 365.43,-82.36 373.5,-74 385.15,-61.92 390.02,-43.12 392.05,-29.11"/>
<polygon fill="#63b8ff" stroke="#63b8ff" points="395.54,-29.43 393.15,-19.11 388.58,-28.67 395.54,-29.43"/>
</a>
</g>
</g>
<!-- Node11&#45;&gt;Node10 -->
<g id="edge17_Node000011_Node000010" class="edge">
<title>Node11&#45;&gt;Node10</title>
<g id="a_edge17_Node000011_Node000010"><a xlink:title=" ">
<path fill="none" stroke="#63b8ff" d="M209.82,-115.49C183.24,-105.53 139.02,-88.95 108.86,-77.63"/>
<polygon fill="#63b8ff" stroke="#63b8ff" points="109.8,-74.25 99.21,-74.02 107.35,-80.81 109.8,-74.25"/>
</a>
</g>
</g>
<!-- Node12 -->
<g id="Node000012" class="node">
<title>Node12</title>
<g id="a_Node000012"><a xlink:title=" ">
<polygon fill="#e0e0e0" stroke="#999999" points="189,-74 142,-74 142,-55 189,-55 189,-74"/>
<text text-anchor="middle" x="165.5" y="-62" font-family="Helvetica,sans-Serif" font-size="10.00">float.h</text>
</a>
</g>
</g>
<!-- Node11&#45;&gt;Node12 -->
<g id="edge12_Node000011_Node000012" class="edge">
<title>Node11&#45;&gt;Node12</title>
<g id="a_edge12_Node000011_Node000012"><a xlink:title=" ">
<path fill="none" stroke="#63b8ff" d="M222.61,-115.37C212.22,-106.3 195.66,-91.84 183.05,-80.82"/>
<polygon fill="#63b8ff" stroke="#63b8ff" points="185.26,-78.11 175.43,-74.17 180.66,-83.38 185.26,-78.11"/>
</a>
</g>
</g>
<!-- Node13 -->
<g id="Node000013" class="node">
<title>Node13</title>
<g id="a_Node000013"><a xlink:title=" ">
<polygon fill="#e0e0e0" stroke="#999999" points="258,-74 207,-74 207,-55 258,-55 258,-74"/>
<text text-anchor="middle" x="232.5" y="-62" font-family="Helvetica,sans-Serif" font-size="10.00">math.h</text>
</a>
</g>
</g>
<!-- Node11&#45;&gt;Node13 -->
<g id="edge13_Node000011_Node000013" class="edge">
<title>Node11&#45;&gt;Node13</title>
<g id="a_edge13_Node000011_Node000013"><a xlink:title=" ">
<path fill="none" stroke="#63b8ff" d="M232.5,-115.37C232.5,-107.25 232.5,-94.81 232.5,-84.39"/>
<polygon fill="#63b8ff" stroke="#63b8ff" points="236,-84.17 232.5,-74.17 229,-84.17 236,-84.17"/>
</a>
</g>
</g>
<!-- Node14 -->
<g id="Node000014" class="node">
<title>Node14</title>
<g id="a_Node000014"><a xlink:title=" ">
<polygon fill="#e0e0e0" stroke="#999999" points="365,-74 276,-74 276,-55 365,-55 365,-74"/>
<text text-anchor="middle" x="320.5" y="-62" font-family="Helvetica,sans-Serif" font-size="10.00">vector_types.h</text>
</a>
</g>
</g>
<!-- Node11&#45;&gt;Node14 -->
<g id="edge15_Node000011_Node000014" class="edge">
<title>Node11&#45;&gt;Node14</title>
<g id="a_edge15_Node000011_Node000014"><a xlink:title=" ">
<path fill="none" stroke="#63b8ff" d="M245.48,-115.37C259.52,-106.04 282.13,-91.01 298.86,-79.88"/>
<polygon fill="#63b8ff" stroke="#63b8ff" points="301.07,-82.62 307.46,-74.17 297.2,-76.79 301.07,-82.62"/>
</a>
</g>
</g>
<!-- Node19&#45;&gt;Node4 -->
<g id="edge19_Node000019_Node000004" class="edge">
<title>Node19&#45;&gt;Node4</title>
<g id="a_edge19_Node000019_Node000004"><a xlink:title=" ">
<path fill="none" stroke="#63b8ff" d="M2589.76,-115.37C2598.28,-106.47 2611.76,-92.39 2622.23,-81.45"/>
<polygon fill="#63b8ff" stroke="#63b8ff" points="2624.82,-83.81 2629.2,-74.17 2619.76,-78.97 2624.82,-83.81"/>
</a>
</g>
</g>
<!-- Node19&#45;&gt;Node6 -->
<g id="edge20_Node000019_Node000006" class="edge">
<title>Node19&#45;&gt;Node6</title>
<g id="a_edge20_Node000019_Node000006"><a xlink:title=" ">
<path fill="none" stroke="#63b8ff" d="M2576.04,-115.37C2570.63,-106.81 2562.19,-93.47 2555.4,-82.74"/>
<polygon fill="#63b8ff" stroke="#63b8ff" points="2558.29,-80.75 2549.98,-74.17 2552.37,-84.49 2558.29,-80.75"/>
</a>
</g>
</g>
<!-- Node19&#45;&gt;Node7 -->
<g id="edge21_Node000019_Node000007" class="edge">
<title>Node19&#45;&gt;Node7</title>
<g id="a_edge21_Node000019_Node000007"><a xlink:title=" ">
<path fill="none" stroke="#63b8ff" d="M2553.17,-117.59C2539.2,-114.71 2522.05,-111.61 2506.5,-110 2109.59,-68.89 828.85,-65.68 533.61,-65.5"/>
<polygon fill="#63b8ff" stroke="#63b8ff" points="533.53,-62 523.52,-65.49 533.52,-69 533.53,-62"/>
</a>
</g>
</g>
<!-- Node47 -->
<g id="Node000047" class="node">
<title>Node47</title>
<g id="a_Node000047"><a xlink:title=" ">
<polygon fill="#e0e0e0" stroke="#999999" points="2923,-206 2804,-206 2804,-176 2923,-176 2923,-206"/>
<text text-anchor="start" x="2812" y="-194" font-family="Helvetica,sans-Serif" font-size="10.00">device_load_uniform</text>
<text text-anchor="middle" x="2863.5" y="-183" font-family="Helvetica,sans-Serif" font-size="10.00">_decl.h</text>
</a>
</g>
</g>
<!-- Node46&#45;&gt;Node47 -->
<g id="edge48_Node000046_Node000047" class="edge">
<title>Node46&#45;&gt;Node47</title>
<g id="a_edge48_Node000046_Node000047"><a xlink:title=" ">
<path fill="none" stroke="#63b8ff" d="M2863.5,-241.87C2863.5,-235.11 2863.5,-225.35 2863.5,-216.26"/>
<polygon fill="#63b8ff" stroke="#63b8ff" points="2867,-216.11 2863.5,-206.11 2860,-216.11 2867,-216.11"/>
</a>
</g>
</g>
<!-- Node48 -->
<g id="Node000048" class="node">
<title>Node48</title>
<g id="a_Node000048"><a xlink:title=" ">
<polygon fill="#e0e0e0" stroke="#999999" points="3063.5,-206 2941.5,-206 2941.5,-176 3063.5,-176 3063.5,-206"/>
<text text-anchor="start" x="2949.5" y="-194" font-family="Helvetica,sans-Serif" font-size="10.00">device_store_uniform</text>
<text text-anchor="middle" x="3002.5" y="-183" font-family="Helvetica,sans-Serif" font-size="10.00">_decl.h</text>
</a>
</g>
</g>
<!-- Node46&#45;&gt;Node48 -->
<g id="edge49_Node000046_Node000048" class="edge">
<title>Node46&#45;&gt;Node48</title>
<g id="a_edge49_Node000046_Node000048"><a xlink:title=" ">
<path fill="none" stroke="#63b8ff" d="M2883.71,-241.99C2903.54,-233.65 2934.4,-220.66 2959.69,-210.02"/>
<polygon fill="#63b8ff" stroke="#63b8ff" points="2961.22,-213.17 2969.08,-206.06 2958.51,-206.72 2961.22,-213.17"/>
</a>
</g>
</g>
</g>
</svg>
