<?xml version="1.0" encoding="UTF-8" standalone="no"?>
<!DOCTYPE svg PUBLIC "-//W3C//DTD SVG 1.1//EN"
 "http://www.w3.org/Graphics/SVG/1.1/DTD/svg11.dtd">
<!-- Generated by graphviz version 2.43.0 (0)
 -->
<!-- Title: src/core/astaroth_fortran.cc Pages: 1 -->
<svg width="2864pt" height="434pt"
 viewBox="0.00 0.00 2863.50 434.00" xmlns="http://www.w3.org/2000/svg" xmlns:xlink="http://www.w3.org/1999/xlink">
<g id="graph0" class="graph" transform="scale(1 1) rotate(0) translate(4 430)">
<title>src/core/astaroth_fortran.cc</title>
<!-- Node1 -->
<g id="Node000001" class="node">
<title>Node1</title>
<g id="a_Node000001"><a xlink:title=" ">
<polygon fill="#999999" stroke="#666666" points="947,-426 797,-426 797,-407 947,-407 947,-426"/>
<text text-anchor="middle" x="872" y="-414" font-family="Helvetica,sans-Serif" font-size="10.00">src/core/astaroth_fortran.cc</text>
</a>
</g>
</g>
<!-- Node2 -->
<g id="Node000002" class="node">
<title>Node2</title>
<g id="a_Node000002"><a xlink:href="astaroth__fortran_8h.html" target="_top" xlink:title=" ">
<polygon fill="white" stroke="#666666" points="924,-371 820,-371 820,-352 924,-352 924,-371"/>
<text text-anchor="middle" x="872" y="-359" font-family="Helvetica,sans-Serif" font-size="10.00">astaroth_fortran.h</text>
</a>
</g>
</g>
<!-- Node1&#45;&gt;Node2 -->
<g id="edge1_Node000001_Node000002" class="edge">
<title>Node1&#45;&gt;Node2</title>
<g id="a_edge1_Node000001_Node000002"><a xlink:title=" ">
<path fill="none" stroke="#63b8ff" d="M872,-406.75C872,-399.8 872,-389.85 872,-381.13"/>
<polygon fill="#63b8ff" stroke="#63b8ff" points="875.5,-381.09 872,-371.09 868.5,-381.09 875.5,-381.09"/>
</a>
</g>
</g>
<!-- Node3 -->
<g id="Node000003" class="node">
<title>Node3</title>
<g id="a_Node000003"><a xlink:href="astaroth_8h.html" target="_top" xlink:title=" ">
<polygon fill="white" stroke="#666666" points="825,-316 759,-316 759,-297 825,-297 825,-316"/>
<text text-anchor="middle" x="792" y="-304" font-family="Helvetica,sans-Serif" font-size="10.00">astaroth.h</text>
</a>
</g>
</g>
<!-- Node1&#45;&gt;Node3 -->
<g id="edge62_Node000001_Node000003" class="edge">
<title>Node1&#45;&gt;Node3</title>
<g id="a_edge62_Node000001_Node000003"><a xlink:title=" ">
<path fill="none" stroke="#63b8ff" d="M854.57,-406.88C840.84,-399.24 822.2,-386.84 811,-371 801.55,-357.64 796.74,-339.53 794.32,-326.07"/>
<polygon fill="#63b8ff" stroke="#63b8ff" points="797.77,-325.43 792.81,-316.06 790.85,-326.47 797.77,-325.43"/>
</a>
</g>
</g>
<!-- Node20 -->
<g id="Node000020" class="node">
<title>Node20</title>
<g id="a_Node000020"><a xlink:href="errchk_8h.html" target="_top" xlink:title="Brief info.">
<polygon fill="white" stroke="#666666" points="2683,-134.5 2627,-134.5 2627,-115.5 2683,-115.5 2683,-134.5"/>
<text text-anchor="middle" x="2655" y="-122.5" font-family="Helvetica,sans-Serif" font-size="10.00">errchk.h</text>
</a>
</g>
</g>
<!-- Node1&#45;&gt;Node20 -->
<g id="edge63_Node000001_Node000020" class="edge">
<title>Node1&#45;&gt;Node20</title>
<g id="a_edge63_Node000001_Node000020"><a xlink:title=" ">
<path fill="none" stroke="#63b8ff" d="M947.09,-414.92C1284.75,-411.83 2646,-393.99 2646,-307.5 2646,-307.5 2646,-307.5 2646,-250.5 2646,-212.9 2650.13,-169.07 2652.8,-144.73"/>
<polygon fill="#63b8ff" stroke="#63b8ff" points="2656.28,-145.07 2653.93,-134.74 2649.33,-144.28 2656.28,-145.07"/>
</a>
</g>
</g>
<!-- Node2&#45;&gt;Node3 -->
<g id="edge2_Node000002_Node000003" class="edge">
<title>Node2&#45;&gt;Node3</title>
<g id="a_edge2_Node000002_Node000003"><a xlink:title=" ">
<path fill="none" stroke="#63b8ff" d="M859.15,-351.98C846.86,-343.84 828.09,-331.41 813.52,-321.76"/>
<polygon fill="#63b8ff" stroke="#63b8ff" points="815.36,-318.78 805.09,-316.17 811.49,-324.61 815.36,-318.78"/>
</a>
</g>
</g>
<!-- Node4 -->
<g id="Node000004" class="node">
<title>Node4</title>
<g id="a_Node000004"><a xlink:href="astaroth__base_8h.html" target="_top" xlink:title=" ">
<polygon fill="white" stroke="#666666" points="1482.5,-261 1387.5,-261 1387.5,-242 1482.5,-242 1482.5,-261"/>
<text text-anchor="middle" x="1435" y="-249" font-family="Helvetica,sans-Serif" font-size="10.00">astaroth_base.h</text>
</a>
</g>
</g>
<!-- Node3&#45;&gt;Node4 -->
<g id="edge3_Node000003_Node000004" class="edge">
<title>Node3&#45;&gt;Node4</title>
<g id="a_edge3_Node000003_Node000004"><a xlink:title=" ">
<path fill="none" stroke="#63b8ff" d="M825.18,-303.86C913.38,-299.31 1161.14,-285.32 1377.42,-261.1"/>
<polygon fill="#63b8ff" stroke="#63b8ff" points="1377.83,-264.58 1387.37,-259.98 1377.04,-257.62 1377.83,-264.58"/>
</a>
</g>
</g>
<!-- Node44 -->
<g id="Node000044" class="node">
<title>Node44</title>
<g id="a_Node000044"><a xlink:href="astaroth__grid_8h.html" target="_top" xlink:title=" ">
<polygon fill="white" stroke="#666666" points="90,-261 0,-261 0,-242 90,-242 90,-261"/>
<text text-anchor="middle" x="45" y="-249" font-family="Helvetica,sans-Serif" font-size="10.00">astaroth_grid.h</text>
</a>
</g>
</g>
<!-- Node3&#45;&gt;Node44 -->
<g id="edge50_Node000003_Node000044" class="edge">
<title>Node3&#45;&gt;Node44</title>
<g id="a_edge50_Node000003_Node000044"><a xlink:title=" ">
<path fill="none" stroke="#63b8ff" d="M758.73,-304.45C659.94,-301.1 359.6,-289.26 100.03,-261.01"/>
<polygon fill="#63b8ff" stroke="#63b8ff" points="100.36,-257.52 90.04,-259.91 99.6,-264.48 100.36,-257.52"/>
</a>
</g>
</g>
<!-- Node45 -->
<g id="Node000045" class="node">
<title>Node45</title>
<g id="a_Node000045"><a xlink:href="astaroth__node_8h.html" target="_top" xlink:title=" ">
<polygon fill="white" stroke="#666666" points="203.5,-261 108.5,-261 108.5,-242 203.5,-242 203.5,-261"/>
<text text-anchor="middle" x="156" y="-249" font-family="Helvetica,sans-Serif" font-size="10.00">astaroth_node.h</text>
</a>
</g>
</g>
<!-- Node3&#45;&gt;Node45 -->
<g id="edge51_Node000003_Node000045" class="edge">
<title>Node3&#45;&gt;Node45</title>
<g id="a_edge51_Node000003_Node000045"><a xlink:title=" ">
<path fill="none" stroke="#63b8ff" d="M758.95,-303.79C671.73,-299.09 427.91,-284.83 213.73,-260.99"/>
<polygon fill="#63b8ff" stroke="#63b8ff" points="213.88,-257.49 203.55,-259.85 213.1,-264.44 213.88,-257.49"/>
</a>
</g>
</g>
<!-- Node46 -->
<g id="Node000046" class="node">
<title>Node46</title>
<g id="a_Node000046"><a xlink:href="astaroth__device_8h.html" target="_top" xlink:title=" ">
<polygon fill="white" stroke="#666666" points="326,-261 222,-261 222,-242 326,-242 326,-261"/>
<text text-anchor="middle" x="274" y="-249" font-family="Helvetica,sans-Serif" font-size="10.00">astaroth_device.h</text>
</a>
</g>
</g>
<!-- Node3&#45;&gt;Node46 -->
<g id="edge52_Node000003_Node000046" class="edge">
<title>Node3&#45;&gt;Node46</title>
<g id="a_edge52_Node000003_Node000046"><a xlink:title=" ">
<path fill="none" stroke="#63b8ff" d="M758.97,-302.76C685.22,-296.53 501.28,-280.43 336.55,-261.14"/>
<polygon fill="#63b8ff" stroke="#63b8ff" points="336.57,-257.62 326.23,-259.92 335.75,-264.57 336.57,-257.62"/>
</a>
</g>
</g>
<!-- Node49 -->
<g id="Node000049" class="node">
<title>Node49</title>
<g id="a_Node000049"><a xlink:href="astaroth__legacy_8h.html" target="_top" xlink:title=" ">
<polygon fill="white" stroke="#666666" points="446,-261 344,-261 344,-242 446,-242 446,-261"/>
<text text-anchor="middle" x="395" y="-249" font-family="Helvetica,sans-Serif" font-size="10.00">astaroth_legacy.h</text>
</a>
</g>
</g>
<!-- Node3&#45;&gt;Node49 -->
<g id="edge55_Node000003_Node000049" class="edge">
<title>Node3&#45;&gt;Node49</title>
<g id="a_edge55_Node000003_Node000049"><a xlink:title=" ">
<path fill="none" stroke="#63b8ff" d="M758.98,-301.24C700.32,-293.66 573.82,-277.21 456.31,-261.17"/>
<polygon fill="#63b8ff" stroke="#63b8ff" points="456.44,-257.65 446.06,-259.77 455.49,-264.59 456.44,-257.65"/>
</a>
</g>
</g>
<!-- Node50 -->
<g id="Node000050" class="node">
<title>Node50</title>
<g id="a_Node000050"><a xlink:title=" ">
<polygon fill="#e0e0e0" stroke="#999999" points="611.5,-261 464.5,-261 464.5,-242 611.5,-242 611.5,-261"/>
<text text-anchor="middle" x="538" y="-249" font-family="Helvetica,sans-Serif" font-size="10.00">device_set_input_decls.inc</text>
</a>
</g>
</g>
<!-- Node3&#45;&gt;Node50 -->
<g id="edge56_Node000003_Node000050" class="edge">
<title>Node3&#45;&gt;Node50</title>
<g id="a_edge56_Node000003_Node000050"><a xlink:title=" ">
<path fill="none" stroke="#63b8ff" d="M758.79,-298.57C715.52,-289.54 639.41,-273.66 588.84,-263.11"/>
<polygon fill="#63b8ff" stroke="#63b8ff" points="589.28,-259.62 578.77,-261.01 587.85,-266.48 589.28,-259.62"/>
</a>
</g>
</g>
<!-- Node51 -->
<g id="Node000051" class="node">
<title>Node51</title>
<g id="a_Node000051"><a xlink:title=" ">
<polygon fill="#e0e0e0" stroke="#999999" points="784.5,-261 629.5,-261 629.5,-242 784.5,-242 784.5,-261"/>
<text text-anchor="middle" x="707" y="-249" font-family="Helvetica,sans-Serif" font-size="10.00">device_get_output_decls.inc</text>
</a>
</g>
</g>
<!-- Node3&#45;&gt;Node51 -->
<g id="edge57_Node000003_Node000051" class="edge">
<title>Node3&#45;&gt;Node51</title>
<g id="a_edge57_Node000003_Node000051"><a xlink:title=" ">
<path fill="none" stroke="#63b8ff" d="M778.34,-296.98C765.16,-288.77 744.97,-276.18 729.43,-266.49"/>
<polygon fill="#63b8ff" stroke="#63b8ff" points="731.24,-263.49 720.91,-261.17 727.54,-269.43 731.24,-263.49"/>
</a>
</g>
</g>
<!-- Node52 -->
<g id="Node000052" class="node">
<title>Node52</title>
<g id="a_Node000052"><a xlink:title=" ">
<polygon fill="#e0e0e0" stroke="#999999" points="951,-261 803,-261 803,-242 951,-242 951,-261"/>
<text text-anchor="middle" x="877" y="-249" font-family="Helvetica,sans-Serif" font-size="10.00">device_get_input_decls.inc</text>
</a>
</g>
</g>
<!-- Node3&#45;&gt;Node52 -->
<g id="edge58_Node000003_Node000052" class="edge">
<title>Node3&#45;&gt;Node52</title>
<g id="a_edge58_Node000003_Node000052"><a xlink:title=" ">
<path fill="none" stroke="#63b8ff" d="M805.66,-296.98C818.84,-288.77 839.03,-276.18 854.57,-266.49"/>
<polygon fill="#63b8ff" stroke="#63b8ff" points="856.46,-269.43 863.09,-261.17 852.76,-263.49 856.46,-269.43"/>
</a>
</g>
</g>
<!-- Node53 -->
<g id="Node000053" class="node">
<title>Node53</title>
<g id="a_Node000053"><a xlink:title=" ">
<polygon fill="#e0e0e0" stroke="#999999" points="1107,-261 969,-261 969,-242 1107,-242 1107,-261"/>
<text text-anchor="middle" x="1038" y="-249" font-family="Helvetica,sans-Serif" font-size="10.00">get_vtxbufs_declares.inc</text>
</a>
</g>
</g>
<!-- Node3&#45;&gt;Node53 -->
<g id="edge59_Node000003_Node000053" class="edge">
<title>Node3&#45;&gt;Node53</title>
<g id="a_edge59_Node000003_Node000053"><a xlink:title=" ">
<path fill="none" stroke="#63b8ff" d="M825.18,-298.35C867.17,-289.3 939.89,-273.64 988.47,-263.17"/>
<polygon fill="#63b8ff" stroke="#63b8ff" points="989.41,-266.55 998.45,-261.02 987.94,-259.71 989.41,-266.55"/>
</a>
</g>
</g>
<!-- Node54 -->
<g id="Node000054" class="node">
<title>Node54</title>
<g id="a_Node000054"><a xlink:href="astaroth__runtime__compilation_8h.html" target="_top" xlink:title=" ">
<polygon fill="white" stroke="#666666" points="1298.5,-261 1125.5,-261 1125.5,-242 1298.5,-242 1298.5,-261"/>
<text text-anchor="middle" x="1212" y="-249" font-family="Helvetica,sans-Serif" font-size="10.00">astaroth_runtime_compilation.h</text>
</a>
</g>
</g>
<!-- Node3&#45;&gt;Node54 -->
<g id="edge60_Node000003_Node000054" class="edge">
<title>Node3&#45;&gt;Node54</title>
<g id="a_edge60_Node000003_Node000054"><a xlink:title=" ">
<path fill="none" stroke="#63b8ff" d="M825.31,-301.3C891.6,-292.93 1041.64,-274 1134.11,-262.33"/>
<polygon fill="#63b8ff" stroke="#63b8ff" points="1134.78,-265.77 1144.26,-261.05 1133.9,-258.83 1134.78,-265.77"/>
</a>
</g>
</g>
<!-- Node55 -->
<g id="Node000055" class="node">
<title>Node55</title>
<g id="a_Node000055"><a xlink:title=" ">
<polygon fill="#e0e0e0" stroke="#999999" points="1369.5,-261 1316.5,-261 1316.5,-242 1369.5,-242 1369.5,-261"/>
<text text-anchor="middle" x="1343" y="-249" font-family="Helvetica,sans-Serif" font-size="10.00">string.h</text>
</a>
</g>
</g>
<!-- Node3&#45;&gt;Node55 -->
<g id="edge61_Node000003_Node000055" class="edge">
<title>Node3&#45;&gt;Node55</title>
<g id="a_edge61_Node000003_Node000055"><a xlink:title=" ">
<path fill="none" stroke="#63b8ff" d="M825.12,-304.39C905.89,-301.32 1119.51,-290.95 1306.33,-261.04"/>
<polygon fill="#63b8ff" stroke="#63b8ff" points="1307.02,-264.48 1316.33,-259.42 1305.9,-257.57 1307.02,-264.48"/>
</a>
</g>
</g>
<!-- Node5 -->
<g id="Node000005" class="node">
<title>Node5</title>
<g id="a_Node000005"><a xlink:title=" ">
<polygon fill="#e0e0e0" stroke="#999999" points="2609,-74 2547,-74 2547,-55 2609,-55 2609,-74"/>
<text text-anchor="middle" x="2578" y="-62" font-family="Helvetica,sans-Serif" font-size="10.00">stdbool.h</text>
</a>
</g>
</g>
<!-- Node4&#45;&gt;Node5 -->
<g id="edge4_Node000004_Node000005" class="edge">
<title>Node4&#45;&gt;Node5</title>
<g id="a_edge4_Node000004_Node000005"><a xlink:title=" ">
<path fill="none" stroke="#63b8ff" d="M1482.82,-248.34C1683.21,-238.95 2449.08,-199.4 2538,-140 2557.41,-127.03 2568.14,-101.44 2573.48,-83.9"/>
<polygon fill="#63b8ff" stroke="#63b8ff" points="2576.87,-84.77 2576.14,-74.2 2570.12,-82.92 2576.87,-84.77"/>
</a>
</g>
</g>
<!-- Node6 -->
<g id="Node000006" class="node">
<title>Node6</title>
<g id="a_Node000006"><a xlink:href="acc__runtime_8h.html" target="_top" xlink:title=" ">
<polygon fill="#fff0f0" stroke="red" points="1513,-200.5 1427,-200.5 1427,-181.5 1513,-181.5 1513,-200.5"/>
<text text-anchor="middle" x="1470" y="-188.5" font-family="Helvetica,sans-Serif" font-size="10.00">acc_runtime.h</text>
</a>
</g>
</g>
<!-- Node4&#45;&gt;Node6 -->
<g id="edge5_Node000004_Node000006" class="edge">
<title>Node4&#45;&gt;Node6</title>
<g id="a_edge5_Node000004_Node000006"><a xlink:title=" ">
<path fill="none" stroke="#63b8ff" d="M1440.16,-241.87C1445.23,-233.4 1453.1,-220.24 1459.49,-209.57"/>
<polygon fill="#63b8ff" stroke="#63b8ff" points="1462.68,-211.05 1464.81,-200.67 1456.68,-207.45 1462.68,-211.05"/>
</a>
</g>
</g>
<!-- Node26 -->
<g id="Node000026" class="node">
<title>Node26</title>
<g id="a_Node000026"><a xlink:title=" ">
<polygon fill="#e0e0e0" stroke="#999999" points="337.5,-134.5 190.5,-134.5 190.5,-115.5 337.5,-115.5 337.5,-134.5"/>
<text text-anchor="middle" x="264" y="-122.5" font-family="Helvetica,sans-Serif" font-size="10.00">user_built&#45;in_constants.inc</text>
</a>
</g>
</g>
<!-- Node4&#45;&gt;Node26 -->
<g id="edge48_Node000004_Node000026" class="edge">
<title>Node4&#45;&gt;Node26</title>
<g id="a_edge48_Node000004_Node000026"><a xlink:title=" ">
<path fill="none" stroke="#63b8ff" d="M1431.53,-241.56C1424.59,-225.11 1407.3,-190.4 1380,-176 1281.07,-123.82 485.48,-149.07 374,-140 360.77,-138.92 346.7,-137.41 333.18,-135.78"/>
<polygon fill="#63b8ff" stroke="#63b8ff" points="333.34,-132.27 322.98,-134.51 332.47,-139.22 333.34,-132.27"/>
</a>
</g>
</g>
<!-- Node40 -->
<g id="Node000040" class="node">
<title>Node40</title>
<g id="a_Node000040"><a xlink:href="func__define_8h.html" target="_top" xlink:title=" ">
<polygon fill="white" stroke="#666666" points="172,-134.5 90,-134.5 90,-115.5 172,-115.5 172,-134.5"/>
<text text-anchor="middle" x="131" y="-122.5" font-family="Helvetica,sans-Serif" font-size="10.00">func_define.h</text>
</a>
</g>
</g>
<!-- Node4&#45;&gt;Node40 -->
<g id="edge47_Node000004_Node000040" class="edge">
<title>Node4&#45;&gt;Node40</title>
<g id="a_edge47_Node000004_Node000040"><a xlink:title=" ">
<path fill="none" stroke="#63b8ff" d="M1387.37,-243.05C1384.54,-242.68 1381.73,-242.32 1379,-242 848.33,-179.2 706.84,-235.13 181,-140 176.76,-139.23 172.36,-138.26 168,-137.2"/>
<polygon fill="#63b8ff" stroke="#63b8ff" points="168.59,-133.73 158.03,-134.57 166.81,-140.5 168.59,-133.73"/>
</a>
</g>
</g>
<!-- Node43 -->
<g id="Node000043" class="node">
<title>Node43</title>
<g id="a_Node000043"><a xlink:title=" ">
<polygon fill="#e0e0e0" stroke="#999999" points="1370.5,-206 1239.5,-206 1239.5,-176 1370.5,-176 1370.5,-206"/>
<text text-anchor="start" x="1247.5" y="-194" font-family="Helvetica,sans-Serif" font-size="10.00">user_builtin_non_scalar</text>
<text text-anchor="middle" x="1305" y="-183" font-family="Helvetica,sans-Serif" font-size="10.00">_constants.inc</text>
</a>
</g>
</g>
<!-- Node4&#45;&gt;Node43 -->
<g id="edge49_Node000004_Node000043" class="edge">
<title>Node4&#45;&gt;Node43</title>
<g id="a_edge49_Node000004_Node000043"><a xlink:title=" ">
<path fill="none" stroke="#63b8ff" d="M1416.1,-241.99C1397.71,-233.72 1369.2,-220.89 1345.66,-210.3"/>
<polygon fill="#63b8ff" stroke="#63b8ff" points="1346.81,-206.98 1336.25,-206.06 1343.94,-213.36 1346.81,-206.98"/>
</a>
</g>
</g>
<!-- Node6&#45;&gt;Node5 -->
<g id="edge7_Node000006_Node000005" class="edge">
<title>Node6&#45;&gt;Node5</title>
<g id="a_edge7_Node000006_Node000005"><a xlink:title=" ">
<path fill="none" stroke="#63b8ff" d="M1513.22,-189.76C1697.66,-188.51 2413.61,-181.03 2505,-140 2532.01,-127.88 2554.3,-100.85 2566.87,-82.9"/>
<polygon fill="#63b8ff" stroke="#63b8ff" points="2569.87,-84.72 2572.54,-74.47 2564.06,-80.82 2569.87,-84.72"/>
</a>
</g>
</g>
<!-- Node7 -->
<g id="Node000007" class="node">
<title>Node7</title>
<g id="a_Node000007"><a xlink:title=" ">
<polygon fill="#e0e0e0" stroke="#999999" points="2529,-74 2479,-74 2479,-55 2529,-55 2529,-74"/>
<text text-anchor="middle" x="2504" y="-62" font-family="Helvetica,sans-Serif" font-size="10.00">stdio.h</text>
</a>
</g>
</g>
<!-- Node6&#45;&gt;Node7 -->
<g id="edge6_Node000006_Node000007" class="edge">
<title>Node6&#45;&gt;Node7</title>
<g id="a_edge6_Node000006_Node000007"><a xlink:title=" ">
<path fill="none" stroke="#63b8ff" d="M1513.29,-189.26C1701.94,-185.88 2444.55,-170.63 2483,-140 2499.55,-126.81 2503.69,-101.65 2504.42,-84.24"/>
<polygon fill="#63b8ff" stroke="#63b8ff" points="2507.92,-84.16 2504.5,-74.13 2500.92,-84.1 2507.92,-84.16"/>
</a>
</g>
</g>
<!-- Node8 -->
<g id="Node000008" class="node">
<title>Node8</title>
<g id="a_Node000008"><a xlink:href="device__headers_8h.html" target="_top" xlink:title=" ">
<polygon fill="white" stroke="#666666" points="2121,-74 2019,-74 2019,-55 2121,-55 2121,-74"/>
<text text-anchor="middle" x="2070" y="-62" font-family="Helvetica,sans-Serif" font-size="10.00">device_headers.h</text>
</a>
</g>
</g>
<!-- Node6&#45;&gt;Node8 -->
<g id="edge8_Node000006_Node000008" class="edge">
<title>Node6&#45;&gt;Node8</title>
<g id="a_edge8_Node000006_Node000008"><a xlink:title=" ">
<path fill="none" stroke="#63b8ff" d="M1513.1,-189.47C1700.02,-186.98 2432.7,-175.01 2466,-140 2475.19,-130.34 2474.89,-119.94 2466,-110 2464.61,-108.45 2241.98,-84.13 2131.19,-72.12"/>
<polygon fill="#63b8ff" stroke="#63b8ff" points="2131.47,-68.63 2121.15,-71.03 2130.71,-75.59 2131.47,-68.63"/>
</a>
</g>
</g>
<!-- Node11 -->
<g id="Node000011" class="node">
<title>Node11</title>
<g id="a_Node000011"><a xlink:title=" ">
<polygon fill="#e0e0e0" stroke="#999999" points="446.5,-74 351.5,-74 351.5,-55 446.5,-55 446.5,-74"/>
<text text-anchor="middle" x="399" y="-62" font-family="Helvetica,sans-Serif" font-size="10.00">builtin_enums.h</text>
</a>
</g>
</g>
<!-- Node6&#45;&gt;Node11 -->
<g id="edge11_Node000006_Node000011" class="edge">
<title>Node6&#45;&gt;Node11</title>
<g id="a_edge11_Node000006_Node000011"><a xlink:title=" ">
<path fill="none" stroke="#63b8ff" d="M1440.35,-181.49C1431.61,-179.32 1421.98,-177.25 1413,-176 1356.4,-168.14 424.7,-181.11 385,-140 370.48,-124.96 379.37,-99.91 388.2,-83.05"/>
<polygon fill="#63b8ff" stroke="#63b8ff" points="391.33,-84.64 393.22,-74.22 385.24,-81.18 391.33,-84.64"/>
</a>
</g>
</g>
<!-- Node12 -->
<g id="Node000012" class="node">
<title>Node12</title>
<g id="a_Node000012"><a xlink:href="datatypes_8h.html" target="_top" xlink:title=" ">
<polygon fill="#fff0f0" stroke="red" points="468,-134.5 394,-134.5 394,-115.5 468,-115.5 468,-134.5"/>
<text text-anchor="middle" x="431" y="-122.5" font-family="Helvetica,sans-Serif" font-size="10.00">datatypes.h</text>
</a>
</g>
</g>
<!-- Node6&#45;&gt;Node12 -->
<g id="edge12_Node000006_Node000012" class="edge">
<title>Node6&#45;&gt;Node12</title>
<g id="a_edge12_Node000006_Node000012"><a xlink:title=" ">
<path fill="none" stroke="#63b8ff" d="M1440.05,-181.44C1431.39,-179.29 1421.88,-177.25 1413,-176 1000.74,-118.05 887.52,-209.18 477,-140 473.04,-139.33 468.94,-138.42 464.9,-137.38"/>
<polygon fill="#63b8ff" stroke="#63b8ff" points="465.65,-133.96 455.07,-134.6 463.74,-140.69 465.65,-133.96"/>
</a>
</g>
</g>
<!-- Node6&#45;&gt;Node20 -->
<g id="edge20_Node000006_Node000020" class="edge">
<title>Node6&#45;&gt;Node20</title>
<g id="a_edge20_Node000006_Node000020"><a xlink:title=" ">
<path fill="none" stroke="#63b8ff" d="M1513.07,-190.03C1661.23,-189.71 2163.39,-185.14 2575,-140 2588.71,-138.5 2603.63,-136.1 2616.83,-133.71"/>
<polygon fill="#63b8ff" stroke="#63b8ff" points="2617.8,-137.08 2626.99,-131.81 2616.52,-130.2 2617.8,-137.08"/>
</a>
</g>
</g>
<!-- Node24 -->
<g id="Node000024" class="node">
<title>Node24</title>
<g id="a_Node000024"><a xlink:title=" ">
<polygon fill="#e0e0e0" stroke="#999999" points="581.5,-134.5 486.5,-134.5 486.5,-115.5 581.5,-115.5 581.5,-134.5"/>
<text text-anchor="middle" x="534" y="-122.5" font-family="Helvetica,sans-Serif" font-size="10.00">user_defines.inc</text>
</a>
</g>
</g>
<!-- Node6&#45;&gt;Node24 -->
<g id="edge29_Node000006_Node000024" class="edge">
<title>Node6&#45;&gt;Node24</title>
<g id="a_edge29_Node000006_Node000024"><a xlink:title=" ">
<path fill="none" stroke="#63b8ff" d="M1440.04,-181.47C1431.39,-179.32 1421.88,-177.27 1413,-176 1051.01,-124.14 952.99,-191.86 591,-140 585.45,-139.21 579.66,-138.11 573.98,-136.87"/>
<polygon fill="#63b8ff" stroke="#63b8ff" points="574.49,-133.39 563.96,-134.53 572.9,-140.21 574.49,-133.39"/>
</a>
</g>
</g>
<!-- Node25 -->
<g id="Node000025" class="node">
<title>Node25</title>
<g id="a_Node000025"><a xlink:title=" ">
<polygon fill="#e0e0e0" stroke="#999999" points="694,-134.5 600,-134.5 600,-115.5 694,-115.5 694,-134.5"/>
<text text-anchor="middle" x="647" y="-122.5" font-family="Helvetica,sans-Serif" font-size="10.00">profiles_info.inc</text>
</a>
</g>
</g>
<!-- Node6&#45;&gt;Node25 -->
<g id="edge30_Node000006_Node000025" class="edge">
<title>Node6&#45;&gt;Node25</title>
<g id="a_edge30_Node000006_Node000025"><a xlink:title=" ">
<path fill="none" stroke="#63b8ff" d="M1439.74,-181.44C1431.16,-179.32 1421.77,-177.29 1413,-176 1100.39,-130.11 1015.52,-186.54 703,-140 697.61,-139.2 691.98,-138.1 686.46,-136.88"/>
<polygon fill="#63b8ff" stroke="#63b8ff" points="687.26,-133.47 676.72,-134.57 685.64,-140.28 687.26,-133.47"/>
</a>
</g>
</g>
<!-- Node6&#45;&gt;Node26 -->
<g id="edge31_Node000006_Node000026" class="edge">
<title>Node6&#45;&gt;Node26</title>
<g id="a_edge31_Node000006_Node000026"><a xlink:title=" ">
<path fill="none" stroke="#63b8ff" d="M1440.35,-181.49C1431.61,-179.31 1421.98,-177.24 1413,-176 945.62,-111.38 821.66,-185.15 352,-140 341.95,-139.03 331.31,-137.65 321.03,-136.13"/>
<polygon fill="#63b8ff" stroke="#63b8ff" points="321.32,-132.63 310.9,-134.56 320.25,-139.55 321.32,-132.63"/>
</a>
</g>
</g>
<!-- Node27 -->
<g id="Node000027" class="node">
<title>Node27</title>
<g id="a_Node000027"><a xlink:href="func__attributes_8h.html" target="_top" xlink:title=" ">
<polygon fill="white" stroke="#666666" points="811.5,-134.5 712.5,-134.5 712.5,-115.5 811.5,-115.5 811.5,-134.5"/>
<text text-anchor="middle" x="762" y="-122.5" font-family="Helvetica,sans-Serif" font-size="10.00">func_attributes.h</text>
</a>
</g>
</g>
<!-- Node6&#45;&gt;Node27 -->
<g id="edge32_Node000006_Node000027" class="edge">
<title>Node6&#45;&gt;Node27</title>
<g id="a_edge32_Node000006_Node000027"><a xlink:title=" ">
<path fill="none" stroke="#63b8ff" d="M1439.73,-181.49C1431.16,-179.37 1421.76,-177.33 1413,-176 1151.95,-136.35 1081.13,-179.13 820,-140 814.43,-139.17 808.61,-138.05 802.9,-136.82"/>
<polygon fill="#63b8ff" stroke="#63b8ff" points="803.33,-133.33 792.8,-134.5 801.77,-140.15 803.33,-133.33"/>
</a>
</g>
</g>
<!-- Node28 -->
<g id="Node000028" class="node">
<title>Node28</title>
<g id="a_Node000028"><a xlink:title=" ">
<polygon fill="#e0e0e0" stroke="#999999" points="962.5,-134.5 829.5,-134.5 829.5,-115.5 962.5,-115.5 962.5,-134.5"/>
<text text-anchor="middle" x="896" y="-122.5" font-family="Helvetica,sans-Serif" font-size="10.00">user_input_typedefs.inc</text>
</a>
</g>
</g>
<!-- Node6&#45;&gt;Node28 -->
<g id="edge33_Node000006_Node000028" class="edge">
<title>Node6&#45;&gt;Node28</title>
<g id="a_edge33_Node000006_Node000028"><a xlink:title=" ">
<path fill="none" stroke="#63b8ff" d="M1439.12,-181.46C1430.71,-179.4 1421.55,-177.39 1413,-176 1218.46,-144.39 1166.36,-166.12 971,-140 963.34,-138.98 955.27,-137.69 947.38,-136.32"/>
<polygon fill="#63b8ff" stroke="#63b8ff" points="947.99,-132.87 937.53,-134.54 946.75,-139.76 947.99,-132.87"/>
</a>
</g>
</g>
<!-- Node29 -->
<g id="Node000029" class="node">
<title>Node29</title>
<g id="a_Node000029"><a xlink:title=" ">
<polygon fill="#e0e0e0" stroke="#999999" points="1071.5,-134.5 980.5,-134.5 980.5,-115.5 1071.5,-115.5 1071.5,-134.5"/>
<text text-anchor="middle" x="1026" y="-122.5" font-family="Helvetica,sans-Serif" font-size="10.00">output_decl.inc</text>
</a>
</g>
</g>
<!-- Node6&#45;&gt;Node29 -->
<g id="edge34_Node000006_Node000029" class="edge">
<title>Node6&#45;&gt;Node29</title>
<g id="a_edge34_Node000006_Node000029"><a xlink:title=" ">
<path fill="none" stroke="#63b8ff" d="M1438.5,-181.47C1430.25,-179.46 1421.33,-177.47 1413,-176 1266.83,-150.24 1227.06,-166.37 1081,-140 1076.22,-139.14 1071.24,-138.09 1066.32,-136.96"/>
<polygon fill="#63b8ff" stroke="#63b8ff" points="1066.92,-133.5 1056.38,-134.55 1065.27,-140.3 1066.92,-133.5"/>
</a>
</g>
</g>
<!-- Node30 -->
<g id="Node000030" class="node">
<title>Node30</title>
<g id="a_Node000030"><a xlink:title=" ">
<polygon fill="#e0e0e0" stroke="#999999" points="1214.5,-134.5 1089.5,-134.5 1089.5,-115.5 1214.5,-115.5 1214.5,-134.5"/>
<text text-anchor="middle" x="1152" y="-122.5" font-family="Helvetica,sans-Serif" font-size="10.00">comp_loaded_decl.inc</text>
</a>
</g>
</g>
<!-- Node6&#45;&gt;Node30 -->
<g id="edge35_Node000006_Node000030" class="edge">
<title>Node6&#45;&gt;Node30</title>
<g id="a_edge35_Node000006_Node000030"><a xlink:title=" ">
<path fill="none" stroke="#63b8ff" d="M1436.61,-181.49C1428.88,-179.6 1420.67,-177.67 1413,-176 1329.45,-157.8 1307.97,-156.16 1224,-140 1218.15,-138.87 1212.04,-137.69 1205.95,-136.51"/>
<polygon fill="#63b8ff" stroke="#63b8ff" points="1206.26,-133.01 1195.78,-134.54 1204.93,-139.88 1206.26,-133.01"/>
</a>
</g>
</g>
<!-- Node31 -->
<g id="Node000031" class="node">
<title>Node31</title>
<g id="a_Node000031"><a xlink:title=" ">
<polygon fill="#e0e0e0" stroke="#999999" points="1319,-134.5 1233,-134.5 1233,-115.5 1319,-115.5 1319,-134.5"/>
<text text-anchor="middle" x="1276" y="-122.5" font-family="Helvetica,sans-Serif" font-size="10.00">comp_decl.inc</text>
</a>
</g>
</g>
<!-- Node6&#45;&gt;Node31 -->
<g id="edge36_Node000006_Node000031" class="edge">
<title>Node6&#45;&gt;Node31</title>
<g id="a_edge36_Node000006_Node000031"><a xlink:title=" ">
<path fill="none" stroke="#63b8ff" d="M1443.84,-181.37C1409.75,-170.12 1350.01,-150.42 1311.76,-137.8"/>
<polygon fill="#63b8ff" stroke="#63b8ff" points="1312.65,-134.41 1302.06,-134.6 1310.46,-141.05 1312.65,-134.41"/>
</a>
</g>
</g>
<!-- Node32 -->
<g id="Node000032" class="node">
<title>Node32</title>
<g id="a_Node000032"><a xlink:title=" ">
<polygon fill="#e0e0e0" stroke="#999999" points="1453,-134.5 1337,-134.5 1337,-115.5 1453,-115.5 1453,-134.5"/>
<text text-anchor="middle" x="1395" y="-122.5" font-family="Helvetica,sans-Serif" font-size="10.00">info_loaded_decl.inc</text>
</a>
</g>
</g>
<!-- Node6&#45;&gt;Node32 -->
<g id="edge37_Node000006_Node000032" class="edge">
<title>Node6&#45;&gt;Node32</title>
<g id="a_edge37_Node000006_Node000032"><a xlink:title=" ">
<path fill="none" stroke="#63b8ff" d="M1459.89,-181.37C1447.99,-171.21 1428,-154.16 1413.35,-141.65"/>
<polygon fill="#63b8ff" stroke="#63b8ff" points="1415.31,-138.73 1405.44,-134.91 1410.77,-144.06 1415.31,-138.73"/>
</a>
</g>
</g>
<!-- Node33 -->
<g id="Node000033" class="node">
<title>Node33</title>
<g id="a_Node000033"><a xlink:title=" ">
<polygon fill="#e0e0e0" stroke="#999999" points="1619,-134.5 1471,-134.5 1471,-115.5 1619,-115.5 1619,-134.5"/>
<text text-anchor="middle" x="1545" y="-122.5" font-family="Helvetica,sans-Serif" font-size="10.00">device_mesh_info_decl.inc</text>
</a>
</g>
</g>
<!-- Node6&#45;&gt;Node33 -->
<g id="edge38_Node000006_Node000033" class="edge">
<title>Node6&#45;&gt;Node33</title>
<g id="a_edge38_Node000006_Node000033"><a xlink:title=" ">
<path fill="none" stroke="#63b8ff" d="M1480.11,-181.37C1492.01,-171.21 1512,-154.16 1526.65,-141.65"/>
<polygon fill="#63b8ff" stroke="#63b8ff" points="1529.23,-144.06 1534.56,-134.91 1524.69,-138.73 1529.23,-144.06"/>
</a>
</g>
</g>
<!-- Node34 -->
<g id="Node000034" class="node">
<title>Node34</title>
<g id="a_Node000034"><a xlink:title=" ">
<polygon fill="#e0e0e0" stroke="#999999" points="1722.5,-134.5 1637.5,-134.5 1637.5,-115.5 1722.5,-115.5 1722.5,-134.5"/>
<text text-anchor="middle" x="1680" y="-122.5" font-family="Helvetica,sans-Serif" font-size="10.00">array_decl.inc</text>
</a>
</g>
</g>
<!-- Node6&#45;&gt;Node34 -->
<g id="edge39_Node000006_Node000034" class="edge">
<title>Node6&#45;&gt;Node34</title>
<g id="a_edge39_Node000006_Node000034"><a xlink:title=" ">
<path fill="none" stroke="#63b8ff" d="M1498.32,-181.37C1535.45,-170.05 1600.71,-150.16 1642.08,-137.56"/>
<polygon fill="#63b8ff" stroke="#63b8ff" points="1643.25,-140.86 1651.79,-134.6 1641.21,-134.16 1643.25,-140.86"/>
</a>
</g>
</g>
<!-- Node35 -->
<g id="Node000035" class="node">
<title>Node35</title>
<g id="a_Node000035"><a xlink:title=" ">
<polygon fill="#e0e0e0" stroke="#999999" points="1825,-134.5 1741,-134.5 1741,-115.5 1825,-115.5 1825,-134.5"/>
<text text-anchor="middle" x="1783" y="-122.5" font-family="Helvetica,sans-Serif" font-size="10.00">input_decl.inc</text>
</a>
</g>
</g>
<!-- Node6&#45;&gt;Node35 -->
<g id="edge40_Node000006_Node000035" class="edge">
<title>Node6&#45;&gt;Node35</title>
<g id="a_edge40_Node000006_Node000035"><a xlink:title=" ">
<path fill="none" stroke="#63b8ff" d="M1513.34,-182.82C1565.48,-173.92 1655.55,-157.76 1732,-140 1735.82,-139.11 1739.77,-138.13 1743.72,-137.12"/>
<polygon fill="#63b8ff" stroke="#63b8ff" points="1744.67,-140.49 1753.44,-134.54 1742.87,-133.72 1744.67,-140.49"/>
</a>
</g>
</g>
<!-- Node36 -->
<g id="Node000036" class="node">
<title>Node36</title>
<g id="a_Node000036"><a xlink:href="ac__helpers_8h.html" target="_top" xlink:title=" ">
<polygon fill="white" stroke="#666666" points="1921,-134.5 1843,-134.5 1843,-115.5 1921,-115.5 1921,-134.5"/>
<text text-anchor="middle" x="1882" y="-122.5" font-family="Helvetica,sans-Serif" font-size="10.00">ac_helpers.h</text>
</a>
</g>
</g>
<!-- Node6&#45;&gt;Node36 -->
<g id="edge41_Node000006_Node000036" class="edge">
<title>Node6&#45;&gt;Node36</title>
<g id="a_edge41_Node000006_Node000036"><a xlink:title=" ">
<path fill="none" stroke="#63b8ff" d="M1513.22,-186.14C1581.76,-179.56 1719.37,-164.45 1834,-140 1837.7,-139.21 1841.53,-138.29 1845.34,-137.29"/>
<polygon fill="#63b8ff" stroke="#63b8ff" points="1846.56,-140.59 1855.27,-134.55 1844.7,-133.84 1846.56,-140.59"/>
</a>
</g>
</g>
<!-- Node37 -->
<g id="Node000037" class="node">
<title>Node37</title>
<g id="a_Node000037"><a xlink:title=" ">
<polygon fill="#e0e0e0" stroke="#999999" points="2057,-140 1939,-140 1939,-110 2057,-110 2057,-140"/>
<text text-anchor="start" x="1947" y="-128" font-family="Helvetica,sans-Serif" font-size="10.00">scalar_reduce_buffer</text>
<text text-anchor="middle" x="1998" y="-117" font-family="Helvetica,sans-Serif" font-size="10.00">_defs.inc</text>
</a>
</g>
</g>
<!-- Node6&#45;&gt;Node37 -->
<g id="edge42_Node000006_Node000037" class="edge">
<title>Node6&#45;&gt;Node37</title>
<g id="a_edge42_Node000006_Node000037"><a xlink:title=" ">
<path fill="none" stroke="#63b8ff" d="M1513.31,-186.67C1593.39,-180.22 1770.18,-164.57 1928.79,-140.1"/>
<polygon fill="#63b8ff" stroke="#63b8ff" points="1929.38,-143.55 1938.72,-138.55 1928.3,-136.63 1929.38,-143.55"/>
</a>
</g>
</g>
<!-- Node38 -->
<g id="Node000038" class="node">
<title>Node38</title>
<g id="a_Node000038"><a xlink:title=" ">
<polygon fill="#e0e0e0" stroke="#999999" points="2198.5,-140 2075.5,-140 2075.5,-110 2198.5,-110 2198.5,-140"/>
<text text-anchor="start" x="2083.5" y="-128" font-family="Helvetica,sans-Serif" font-size="10.00">scalar_reduce_buffers</text>
<text text-anchor="middle" x="2137" y="-117" font-family="Helvetica,sans-Serif" font-size="10.00">_in_vba.inc</text>
</a>
</g>
</g>
<!-- Node6&#45;&gt;Node38 -->
<g id="edge43_Node000006_Node000038" class="edge">
<title>Node6&#45;&gt;Node38</title>
<g id="a_edge43_Node000006_Node000038"><a xlink:title=" ">
<path fill="none" stroke="#63b8ff" d="M1513.19,-188.02C1610.09,-183.23 1852.35,-169.29 2065.38,-139.97"/>
<polygon fill="#63b8ff" stroke="#63b8ff" points="2066.07,-143.41 2075.5,-138.56 2065.11,-136.47 2066.07,-143.41"/>
</a>
</g>
</g>
<!-- Node39 -->
<g id="Node000039" class="node">
<title>Node39</title>
<g id="a_Node000039"><a xlink:href="astaroth__analysis_8h.html" target="_top" xlink:title=" ">
<polygon fill="white" stroke="#666666" points="2329,-134.5 2217,-134.5 2217,-115.5 2329,-115.5 2329,-134.5"/>
<text text-anchor="middle" x="2273" y="-122.5" font-family="Helvetica,sans-Serif" font-size="10.00">astaroth_analysis.h</text>
</a>
</g>
</g>
<!-- Node6&#45;&gt;Node39 -->
<g id="edge44_Node000006_Node000039" class="edge">
<title>Node6&#45;&gt;Node39</title>
<g id="a_edge44_Node000006_Node000039"><a xlink:title=" ">
<path fill="none" stroke="#63b8ff" d="M1513.07,-189.25C1627.03,-186.81 1945.72,-176.93 2208,-140 2214.38,-139.1 2221.06,-137.93 2227.61,-136.65"/>
<polygon fill="#63b8ff" stroke="#63b8ff" points="2228.66,-140.01 2237.74,-134.56 2227.24,-133.15 2228.66,-140.01"/>
</a>
</g>
</g>
<!-- Node6&#45;&gt;Node40 -->
<g id="edge45_Node000006_Node000040" class="edge">
<title>Node6&#45;&gt;Node40</title>
<g id="a_edge45_Node000006_Node000040"><a xlink:title=" ">
<path fill="none" stroke="#63b8ff" d="M1426.65,-182.14C1411.89,-179.76 1395.27,-177.41 1380,-176 849.13,-126.93 708.02,-220.47 181,-140 176.41,-139.3 171.65,-138.32 166.97,-137.19"/>
<polygon fill="#63b8ff" stroke="#63b8ff" points="167.51,-133.71 156.95,-134.55 165.73,-140.48 167.51,-133.71"/>
</a>
</g>
</g>
<!-- Node41 -->
<g id="Node000041" class="node">
<title>Node41</title>
<g id="a_Node000041"><a xlink:href="common__kernels_8h.html" target="_top" xlink:title=" ">
<polygon fill="white" stroke="#666666" points="2456.5,-134.5 2347.5,-134.5 2347.5,-115.5 2456.5,-115.5 2456.5,-134.5"/>
<text text-anchor="middle" x="2402" y="-122.5" font-family="Helvetica,sans-Serif" font-size="10.00">common_kernels.h</text>
</a>
</g>
</g>
<!-- Node6&#45;&gt;Node41 -->
<g id="edge46_Node000006_Node000041" class="edge">
<title>Node6&#45;&gt;Node41</title>
<g id="a_edge46_Node000006_Node000041"><a xlink:title=" ">
<path fill="none" stroke="#63b8ff" d="M1513.13,-189.92C1640.14,-189.16 2023.59,-183.17 2338,-140 2344.36,-139.13 2351.03,-137.96 2357.55,-136.67"/>
<polygon fill="#63b8ff" stroke="#63b8ff" points="2358.56,-140.03 2367.64,-134.56 2357.13,-133.18 2358.56,-140.03"/>
</a>
</g>
</g>
<!-- Node9 -->
<g id="Node000009" class="node">
<title>Node9</title>
<g id="a_Node000009"><a xlink:title=" ">
<polygon fill="#e0e0e0" stroke="#999999" points="1381.5,-19 1268.5,-19 1268.5,0 1381.5,0 1381.5,-19"/>
<text text-anchor="middle" x="1325" y="-7" font-family="Helvetica,sans-Serif" font-size="10.00">cuda_runtime_api.h</text>
</a>
</g>
</g>
<!-- Node8&#45;&gt;Node9 -->
<g id="edge9_Node000008_Node000009" class="edge">
<title>Node8&#45;&gt;Node9</title>
<g id="a_edge9_Node000008_Node000009"><a xlink:title=" ">
<path fill="none" stroke="#63b8ff" d="M2018.79,-59.86C1887.49,-50.52 1538.83,-25.71 1391.84,-15.26"/>
<polygon fill="#63b8ff" stroke="#63b8ff" points="1391.84,-11.75 1381.61,-14.53 1391.34,-18.73 1391.84,-11.75"/>
</a>
</g>
</g>
<!-- Node10 -->
<g id="Node000010" class="node">
<title>Node10</title>
<g id="a_Node000010"><a xlink:title=" ">
<polygon fill="#e0e0e0" stroke="#999999" points="2108,-19 2032,-19 2032,0 2108,0 2108,-19"/>
<text text-anchor="middle" x="2070" y="-7" font-family="Helvetica,sans-Serif" font-size="10.00">cuda_fp16.h</text>
</a>
</g>
</g>
<!-- Node8&#45;&gt;Node10 -->
<g id="edge10_Node000008_Node000010" class="edge">
<title>Node8&#45;&gt;Node10</title>
<g id="a_edge10_Node000008_Node000010"><a xlink:title=" ">
<path fill="none" stroke="#63b8ff" d="M2070,-54.75C2070,-47.8 2070,-37.85 2070,-29.13"/>
<polygon fill="#63b8ff" stroke="#63b8ff" points="2073.5,-29.09 2070,-19.09 2066.5,-29.09 2073.5,-29.09"/>
</a>
</g>
</g>
<!-- Node12&#45;&gt;Node8 -->
<g id="edge13_Node000012_Node000008" class="edge">
<title>Node12&#45;&gt;Node8</title>
<g id="a_edge13_Node000012_Node000008"><a xlink:title=" ">
<path fill="none" stroke="#63b8ff" d="M455.06,-115.35C462.05,-113.21 469.75,-111.18 477,-110 553.79,-97.48 1725.84,-72.6 2008.84,-66.75"/>
<polygon fill="#63b8ff" stroke="#63b8ff" points="2009,-70.25 2018.93,-66.54 2008.86,-63.25 2009,-70.25"/>
</a>
</g>
</g>
<!-- Node12&#45;&gt;Node9 -->
<g id="edge14_Node000012_Node000009" class="edge">
<title>Node12&#45;&gt;Node9</title>
<g id="a_edge14_Node000012_Node000009"><a xlink:title=" ">
<path fill="none" stroke="#63b8ff" d="M456.1,-115.48C462.82,-113.44 470.14,-111.44 477,-110 764.28,-49.93 1114.45,-23.26 1258.37,-14.26"/>
<polygon fill="#63b8ff" stroke="#63b8ff" points="1258.61,-17.75 1268.38,-13.64 1258.18,-10.76 1258.61,-17.75"/>
</a>
</g>
</g>
<!-- Node12&#45;&gt;Node11 -->
<g id="edge16_Node000012_Node000011" class="edge">
<title>Node12&#45;&gt;Node11</title>
<g id="a_edge16_Node000012_Node000011"><a xlink:title=" ">
<path fill="none" stroke="#63b8ff" d="M426.28,-115.37C421.65,-106.9 414.45,-93.74 408.61,-83.07"/>
<polygon fill="#63b8ff" stroke="#63b8ff" points="411.61,-81.26 403.74,-74.17 405.47,-84.62 411.61,-81.26"/>
</a>
</g>
</g>
<!-- Node16 -->
<g id="Node000016" class="node">
<title>Node16</title>
<g id="a_Node000016"><a xlink:href="acreal_8h.html" target="_top" xlink:title=" ">
<polygon fill="white" stroke="#666666" points="2209,-19 2153,-19 2153,0 2209,0 2209,-19"/>
<text text-anchor="middle" x="2181" y="-7" font-family="Helvetica,sans-Serif" font-size="10.00">acreal.h</text>
</a>
</g>
</g>
<!-- Node12&#45;&gt;Node16 -->
<g id="edge15_Node000012_Node000016" class="edge">
<title>Node12&#45;&gt;Node16</title>
<g id="a_edge15_Node000012_Node000016"><a xlink:title=" ">
<path fill="none" stroke="#63b8ff" d="M455.08,-115.48C462.07,-113.34 469.77,-111.28 477,-110 836.4,-46.29 1753.6,-53.16 2117,-19 2125.33,-18.22 2134.24,-17.17 2142.69,-16.07"/>
<polygon fill="#63b8ff" stroke="#63b8ff" points="2143.25,-19.53 2152.7,-14.73 2142.32,-12.59 2143.25,-19.53"/>
</a>
</g>
</g>
<!-- Node18 -->
<g id="Node000018" class="node">
<title>Node18</title>
<g id="a_Node000018"><a xlink:href="host__datatypes_8h.html" target="_top" xlink:title=" ">
<polygon fill="white" stroke="#666666" points="2259.5,-74 2158.5,-74 2158.5,-55 2259.5,-55 2259.5,-74"/>
<text text-anchor="middle" x="2209" y="-62" font-family="Helvetica,sans-Serif" font-size="10.00">host_datatypes.h</text>
</a>
</g>
</g>
<!-- Node12&#45;&gt;Node18 -->
<g id="edge17_Node000012_Node000018" class="edge">
<title>Node12&#45;&gt;Node18</title>
<g id="a_edge17_Node000012_Node000018"><a xlink:title=" ">
<path fill="none" stroke="#63b8ff" d="M454.58,-115.47C461.69,-113.27 469.58,-111.19 477,-110 839.81,-51.97 1763.34,-97.67 2130,-74 2135.91,-73.62 2142.06,-73.13 2148.2,-72.57"/>
<polygon fill="#63b8ff" stroke="#63b8ff" points="2148.86,-76.02 2158.48,-71.58 2148.19,-69.05 2148.86,-76.02"/>
</a>
</g>
</g>
<!-- Node18&#45;&gt;Node16 -->
<g id="edge18_Node000018_Node000016" class="edge">
<title>Node18&#45;&gt;Node16</title>
<g id="a_edge18_Node000018_Node000016"><a xlink:title=" ">
<path fill="none" stroke="#63b8ff" d="M2204.38,-54.75C2200.54,-47.49 2194.98,-36.95 2190.24,-27.98"/>
<polygon fill="#63b8ff" stroke="#63b8ff" points="2193.3,-26.3 2185.54,-19.09 2187.11,-29.57 2193.3,-26.3"/>
</a>
</g>
</g>
<!-- Node19 -->
<g id="Node000019" class="node">
<title>Node19</title>
<g id="a_Node000019"><a xlink:title=" ">
<polygon fill="#e0e0e0" stroke="#999999" points="2474,-19 2418,-19 2418,0 2474,0 2474,-19"/>
<text text-anchor="middle" x="2446" y="-7" font-family="Helvetica,sans-Serif" font-size="10.00">stddef.h</text>
</a>
</g>
</g>
<!-- Node18&#45;&gt;Node19 -->
<g id="edge19_Node000018_Node000019" class="edge">
<title>Node18&#45;&gt;Node19</title>
<g id="a_edge19_Node000018_Node000019"><a xlink:title=" ">
<path fill="none" stroke="#63b8ff" d="M2247.08,-54.98C2291.27,-45.1 2363.7,-28.9 2407.9,-19.02"/>
<polygon fill="#63b8ff" stroke="#63b8ff" points="2408.69,-22.43 2417.68,-16.83 2407.16,-15.6 2408.69,-22.43"/>
</a>
</g>
</g>
<!-- Node20&#45;&gt;Node5 -->
<g id="edge23_Node000020_Node000005" class="edge">
<title>Node20&#45;&gt;Node5</title>
<g id="a_edge23_Node000020_Node000005"><a xlink:title=" ">
<path fill="none" stroke="#63b8ff" d="M2643.64,-115.37C2631.58,-106.21 2612.3,-91.56 2597.75,-80.51"/>
<polygon fill="#63b8ff" stroke="#63b8ff" points="2599.49,-77.43 2589.41,-74.17 2595.25,-83 2599.49,-77.43"/>
</a>
</g>
</g>
<!-- Node20&#45;&gt;Node7 -->
<g id="edge25_Node000020_Node000007" class="edge">
<title>Node20&#45;&gt;Node7</title>
<g id="a_edge25_Node000020_Node000007"><a xlink:title=" ">
<path fill="none" stroke="#63b8ff" d="M2633.04,-115.49C2607.32,-105.53 2564.52,-88.95 2535.32,-77.63"/>
<polygon fill="#63b8ff" stroke="#63b8ff" points="2536.57,-74.37 2525.98,-74.02 2534.04,-80.89 2536.57,-74.37"/>
</a>
</g>
</g>
<!-- Node20&#45;&gt;Node8 -->
<g id="edge28_Node000020_Node000008" class="edge">
<title>Node20&#45;&gt;Node8</title>
<g id="a_edge28_Node000020_Node000008"><a xlink:title=" ">
<path fill="none" stroke="#63b8ff" d="M2626.8,-121.28C2550.16,-113.87 2331.64,-92.64 2150,-74 2143.89,-73.37 2137.52,-72.71 2131.16,-72.04"/>
<polygon fill="#63b8ff" stroke="#63b8ff" points="2131.52,-68.56 2121.21,-71 2130.79,-75.52 2131.52,-68.56"/>
</a>
</g>
</g>
<!-- Node20&#45;&gt;Node18 -->
<g id="edge22_Node000020_Node000018" class="edge">
<title>Node20&#45;&gt;Node18</title>
<g id="a_edge22_Node000020_Node000018"><a xlink:title=" ">
<path fill="none" stroke="#63b8ff" d="M2626.76,-120.3C2555.56,-110.96 2367.43,-86.28 2269.77,-73.47"/>
<polygon fill="#63b8ff" stroke="#63b8ff" points="2270.12,-69.99 2259.75,-72.16 2269.21,-76.93 2270.12,-69.99"/>
</a>
</g>
</g>
<!-- Node20&#45;&gt;Node19 -->
<g id="edge21_Node000020_Node000019" class="edge">
<title>Node20&#45;&gt;Node19</title>
<g id="a_edge21_Node000020_Node000019"><a xlink:title=" ">
<path fill="none" stroke="#63b8ff" d="M2652.81,-115.32C2648.63,-100.6 2638.1,-70.79 2618,-55 2579.2,-24.52 2521.73,-14.76 2484.08,-11.72"/>
<polygon fill="#63b8ff" stroke="#63b8ff" points="2484.23,-8.22 2474.01,-11.03 2483.75,-15.21 2484.23,-8.22"/>
</a>
</g>
</g>
<!-- Node21 -->
<g id="Node000021" class="node">
<title>Node21</title>
<g id="a_Node000021"><a xlink:title=" ">
<polygon fill="#e0e0e0" stroke="#999999" points="2784.5,-74 2731.5,-74 2731.5,-55 2784.5,-55 2784.5,-74"/>
<text text-anchor="middle" x="2758" y="-62" font-family="Helvetica,sans-Serif" font-size="10.00">stdint.h</text>
</a>
</g>
</g>
<!-- Node20&#45;&gt;Node21 -->
<g id="edge24_Node000020_Node000021" class="edge">
<title>Node20&#45;&gt;Node21</title>
<g id="a_edge24_Node000020_Node000021"><a xlink:title=" ">
<path fill="none" stroke="#63b8ff" d="M2670.2,-115.37C2687.01,-105.82 2714.32,-90.31 2734.02,-79.12"/>
<polygon fill="#63b8ff" stroke="#63b8ff" points="2735.77,-82.15 2742.74,-74.17 2732.32,-76.06 2735.77,-82.15"/>
</a>
</g>
</g>
<!-- Node22 -->
<g id="Node000022" class="node">
<title>Node22</title>
<g id="a_Node000022"><a xlink:title=" ">
<polygon fill="#e0e0e0" stroke="#999999" points="2855.5,-74 2802.5,-74 2802.5,-55 2855.5,-55 2855.5,-74"/>
<text text-anchor="middle" x="2829" y="-62" font-family="Helvetica,sans-Serif" font-size="10.00">stdlib.h</text>
</a>
</g>
</g>
<!-- Node20&#45;&gt;Node22 -->
<g id="edge26_Node000020_Node000022" class="edge">
<title>Node20&#45;&gt;Node22</title>
<g id="a_edge26_Node000020_Node000022"><a xlink:title=" ">
<path fill="none" stroke="#63b8ff" d="M2680.3,-115.49C2710.2,-105.44 2760.12,-88.66 2793.78,-77.34"/>
<polygon fill="#63b8ff" stroke="#63b8ff" points="2795.31,-80.52 2803.67,-74.02 2793.07,-73.89 2795.31,-80.52"/>
</a>
</g>
</g>
<!-- Node23 -->
<g id="Node000023" class="node">
<title>Node23</title>
<g id="a_Node000023"><a xlink:title=" ">
<polygon fill="#e0e0e0" stroke="#999999" points="2713,-74 2665,-74 2665,-55 2713,-55 2713,-74"/>
<text text-anchor="middle" x="2689" y="-62" font-family="Helvetica,sans-Serif" font-size="10.00">time.h</text>
</a>
</g>
</g>
<!-- Node20&#45;&gt;Node23 -->
<g id="edge27_Node000020_Node000023" class="edge">
<title>Node20&#45;&gt;Node23</title>
<g id="a_edge27_Node000020_Node000023"><a xlink:title=" ">
<path fill="none" stroke="#63b8ff" d="M2660.02,-115.37C2664.94,-106.9 2672.59,-93.74 2678.79,-83.07"/>
<polygon fill="#63b8ff" stroke="#63b8ff" points="2681.96,-84.57 2683.96,-74.17 2675.91,-81.05 2681.96,-84.57"/>
</a>
</g>
</g>
<!-- Node47 -->
<g id="Node000047" class="node">
<title>Node47</title>
<g id="a_Node000047"><a xlink:title=" ">
<polygon fill="#e0e0e0" stroke="#999999" points="403.5,-206 284.5,-206 284.5,-176 403.5,-176 403.5,-206"/>
<text text-anchor="start" x="292.5" y="-194" font-family="Helvetica,sans-Serif" font-size="10.00">device_load_uniform</text>
<text text-anchor="middle" x="344" y="-183" font-family="Helvetica,sans-Serif" font-size="10.00">_decl.inc</text>
</a>
</g>
</g>
<!-- Node46&#45;&gt;Node47 -->
<g id="edge53_Node000046_Node000047" class="edge">
<title>Node46&#45;&gt;Node47</title>
<g id="a_edge53_Node000046_Node000047"><a xlink:title=" ">
<path fill="none" stroke="#63b8ff" d="M284.33,-241.87C293.48,-234.22 307.19,-222.76 319.17,-212.75"/>
<polygon fill="#63b8ff" stroke="#63b8ff" points="321.68,-215.21 327.11,-206.11 317.19,-209.84 321.68,-215.21"/>
</a>
</g>
</g>
<!-- Node48 -->
<g id="Node000048" class="node">
<title>Node48</title>
<g id="a_Node000048"><a xlink:title=" ">
<polygon fill="#e0e0e0" stroke="#999999" points="266,-206 144,-206 144,-176 266,-176 266,-206"/>
<text text-anchor="start" x="152" y="-194" font-family="Helvetica,sans-Serif" font-size="10.00">device_store_uniform</text>
<text text-anchor="middle" x="205" y="-183" font-family="Helvetica,sans-Serif" font-size="10.00">_decl.inc</text>
</a>
</g>
</g>
<!-- Node46&#45;&gt;Node48 -->
<g id="edge54_Node000046_Node000048" class="edge">
<title>Node46&#45;&gt;Node48</title>
<g id="a_edge54_Node000046_Node000048"><a xlink:title=" ">
<path fill="none" stroke="#63b8ff" d="M263.82,-241.87C254.8,-234.22 241.28,-222.76 229.47,-212.75"/>
<polygon fill="#63b8ff" stroke="#63b8ff" points="231.54,-209.91 221.65,-206.11 227.01,-215.25 231.54,-209.91"/>
</a>
</g>
</g>
</g>
</svg>
