<?xml version="1.0" encoding="UTF-8" standalone="no"?>
<!DOCTYPE svg PUBLIC "-//W3C//DTD SVG 1.1//EN"
 "http://www.w3.org/Graphics/SVG/1.1/DTD/svg11.dtd">
<!-- Generated by graphviz version 2.43.0 (0)
 -->
<!-- Title: include/astaroth_grid.h Pages: 1 -->
<svg width="2368pt" height="214pt"
 viewBox="0.00 0.00 2367.50 214.00" xmlns="http://www.w3.org/2000/svg" xmlns:xlink="http://www.w3.org/1999/xlink">
<g id="graph0" class="graph" transform="scale(1 1) rotate(0) translate(4 210)">
<title>include/astaroth_grid.h</title>
<!-- Node1 -->
<g id="Node000001" class="node">
<title>Node1</title>
<g id="a_Node000001"><a xlink:title=" ">
<polygon fill="#999999" stroke="#666666" points="1782.5,-206 1654.5,-206 1654.5,-187 1782.5,-187 1782.5,-206"/>
<text text-anchor="middle" x="1718.5" y="-194" font-family="Helvetica,sans-Serif" font-size="10.00">include/astaroth_grid.h</text>
</a>
</g>
</g>
<!-- Node2 -->
<g id="Node000002" class="node">
<title>Node2</title>
<g id="a_Node000002"><a xlink:href="astaroth_8h.html" target="_top" xlink:title=" ">
<polygon fill="white" stroke="#666666" points="1221.5,-151 1117.5,-151 1117.5,-132 1221.5,-132 1221.5,-151"/>
<text text-anchor="middle" x="1169.5" y="-139" font-family="Helvetica,sans-Serif" font-size="10.00">include/astaroth.h</text>
</a>
</g>
</g>
<!-- Node1&#45;&gt;Node2 -->
<g id="edge1_Node000001_Node000002" class="edge">
<title>Node1&#45;&gt;Node2</title>
<g id="a_edge1_Node000001_Node000002"><a xlink:title=" ">
<path fill="none" stroke="#63b8ff" d="M1644.18,-188.33C1531.38,-177.44 1319.73,-157 1221.74,-147.54"/>
<polygon fill="#63b8ff" stroke="#63b8ff" points="1644.16,-191.84 1654.45,-189.32 1644.83,-184.87 1644.16,-191.84"/>
</a>
</g>
</g>
<!-- Node24 -->
<g id="Node000024" class="node">
<title>Node24</title>
<g id="a_Node000024"><a xlink:href="compute__steps_8cc.html" target="_top" xlink:title=" ">
<polygon fill="white" stroke="#666666" points="2359.5,-24.5 2213.5,-24.5 2213.5,-5.5 2359.5,-5.5 2359.5,-24.5"/>
<text text-anchor="middle" x="2286.5" y="-12.5" font-family="Helvetica,sans-Serif" font-size="10.00">src/core/compute_steps.cc</text>
</a>
</g>
</g>
<!-- Node1&#45;&gt;Node24 -->
<g id="edge35_Node000001_Node000024" class="edge">
<title>Node1&#45;&gt;Node24</title>
<g id="a_edge35_Node000001_Node000024"><a xlink:title=" ">
<path fill="none" stroke="#63b8ff" d="M1792.75,-192.85C1891.54,-186.59 2069.25,-165.69 2202.5,-96 2237.12,-77.89 2267.51,-41.29 2280.2,-24.62"/>
<polygon fill="#63b8ff" stroke="#63b8ff" points="1792.33,-189.37 1782.56,-193.46 1792.75,-196.35 1792.33,-189.37"/>
</a>
</g>
</g>
<!-- Node3 -->
<g id="Node000003" class="node">
<title>Node3</title>
<g id="a_Node000003"><a xlink:href="astaroth__utils_8h.html" target="_top" xlink:title="Functions for loading and updating AcMeshInfo.">
<polygon fill="white" stroke="#666666" points="278,-90.5 147,-90.5 147,-71.5 278,-71.5 278,-90.5"/>
<text text-anchor="middle" x="212.5" y="-78.5" font-family="Helvetica,sans-Serif" font-size="10.00">include/astaroth_utils.h</text>
</a>
</g>
</g>
<!-- Node2&#45;&gt;Node3 -->
<g id="edge2_Node000002_Node000003" class="edge">
<title>Node2&#45;&gt;Node3</title>
<g id="a_edge2_Node000002_Node000003"><a xlink:title=" ">
<path fill="none" stroke="#63b8ff" d="M1107.27,-140.28C962.66,-139.13 592.93,-132.53 286.5,-96 275.33,-94.67 263.32,-92.65 252.29,-90.56"/>
<polygon fill="#63b8ff" stroke="#63b8ff" points="1107.26,-143.78 1117.29,-140.35 1107.31,-136.78 1107.26,-143.78"/>
</a>
</g>
</g>
<!-- Node4 -->
<g id="Node000004" class="node">
<title>Node4</title>
<g id="a_Node000004"><a xlink:href="config__loader_8cc.html" target="_top" xlink:title=" ">
<polygon fill="white" stroke="#666666" points="631.5,-24.5 495.5,-24.5 495.5,-5.5 631.5,-5.5 631.5,-24.5"/>
<text text-anchor="middle" x="563.5" y="-12.5" font-family="Helvetica,sans-Serif" font-size="10.00">src/utils/config_loader.cc</text>
</a>
</g>
</g>
<!-- Node2&#45;&gt;Node4 -->
<g id="edge29_Node000002_Node000004" class="edge">
<title>Node2&#45;&gt;Node4</title>
<g id="a_edge29_Node000002_Node000004"><a xlink:title=" ">
<path fill="none" stroke="#63b8ff" d="M1107.23,-139.81C1051.75,-136.97 969.65,-127.18 905.5,-96 887.67,-87.34 890.36,-74.61 872.5,-66 850.93,-55.6 712.59,-35.82 628.5,-24.51"/>
<polygon fill="#63b8ff" stroke="#63b8ff" points="1107.12,-143.31 1117.27,-140.26 1107.44,-136.31 1107.12,-143.31"/>
</a>
</g>
</g>
<!-- Node5 -->
<g id="Node000005" class="node">
<title>Node5</title>
<g id="a_Node000005"><a xlink:href="memory_8cc.html" target="_top" xlink:title=" ">
<polygon fill="white" stroke="#666666" points="817,-24.5 706,-24.5 706,-5.5 817,-5.5 817,-24.5"/>
<text text-anchor="middle" x="761.5" y="-12.5" font-family="Helvetica,sans-Serif" font-size="10.00">src/utils/memory.cc</text>
</a>
</g>
</g>
<!-- Node2&#45;&gt;Node5 -->
<g id="edge30_Node000002_Node000005" class="edge">
<title>Node2&#45;&gt;Node5</title>
<g id="a_edge30_Node000002_Node000005"><a xlink:title=" ">
<path fill="none" stroke="#63b8ff" d="M1106.92,-133.13C1063.38,-126.65 1004.58,-115.19 955.5,-96 931.36,-86.56 928.98,-76.98 905.5,-66 867.5,-48.24 821.36,-33.3 791.72,-24.5"/>
<polygon fill="#63b8ff" stroke="#63b8ff" points="1106.68,-136.63 1117.08,-134.59 1107.68,-129.7 1106.68,-136.63"/>
</a>
</g>
</g>
<!-- Node6 -->
<g id="Node000006" class="node">
<title>Node6</title>
<g id="a_Node000006"><a xlink:href="modelreduce_8cc.html" target="_top" xlink:title=" ">
<polygon fill="white" stroke="#666666" points="998,-24.5 863,-24.5 863,-5.5 998,-5.5 998,-24.5"/>
<text text-anchor="middle" x="930.5" y="-12.5" font-family="Helvetica,sans-Serif" font-size="10.00">src/utils/modelreduce.cc</text>
</a>
</g>
</g>
<!-- Node2&#45;&gt;Node6 -->
<g id="edge31_Node000002_Node000006" class="edge">
<title>Node2&#45;&gt;Node6</title>
<g id="a_edge31_Node000002_Node000006"><a xlink:title=" ">
<path fill="none" stroke="#63b8ff" d="M1107.05,-136.39C1069.41,-131.35 1022.04,-120.28 986.5,-96 959.34,-77.45 941.19,-41.07 933.98,-24.54"/>
<polygon fill="#63b8ff" stroke="#63b8ff" points="1107.04,-139.91 1117.39,-137.65 1107.89,-132.96 1107.04,-139.91"/>
</a>
</g>
</g>
<!-- Node8 -->
<g id="Node000008" class="node">
<title>Node8</title>
<g id="a_Node000008"><a xlink:href="modelsolver_8cc.html" target="_top" xlink:title=" ">
<polygon fill="white" stroke="#666666" points="131,-24.5 0,-24.5 0,-5.5 131,-5.5 131,-24.5"/>
<text text-anchor="middle" x="65.5" y="-12.5" font-family="Helvetica,sans-Serif" font-size="10.00">src/utils/modelsolver.cc</text>
</a>
</g>
</g>
<!-- Node2&#45;&gt;Node8 -->
<g id="edge32_Node000002_Node000008" class="edge">
<title>Node2&#45;&gt;Node8</title>
<g id="a_edge32_Node000002_Node000008"><a xlink:title=" ">
<path fill="none" stroke="#63b8ff" d="M1107.07,-140.87C895.55,-141.71 214.3,-140.87 127.5,-96 96.91,-80.19 76.82,-41.69 69.08,-24.52"/>
<polygon fill="#63b8ff" stroke="#63b8ff" points="1107.39,-144.37 1117.38,-140.83 1107.36,-137.37 1107.39,-144.37"/>
</a>
</g>
</g>
<!-- Node9 -->
<g id="Node000009" class="node">
<title>Node9</title>
<g id="a_Node000009"><a xlink:href="verification_8cc.html" target="_top" xlink:title=" ">
<polygon fill="white" stroke="#666666" points="275.5,-24.5 149.5,-24.5 149.5,-5.5 275.5,-5.5 275.5,-24.5"/>
<text text-anchor="middle" x="212.5" y="-12.5" font-family="Helvetica,sans-Serif" font-size="10.00">src/utils/verification.cc</text>
</a>
</g>
</g>
<!-- Node2&#45;&gt;Node9 -->
<g id="edge34_Node000002_Node000009" class="edge">
<title>Node2&#45;&gt;Node9</title>
<g id="a_edge34_Node000002_Node000009"><a xlink:title=" ">
<path fill="none" stroke="#63b8ff" d="M1107.13,-140.16C888.92,-138.67 171.14,-131.12 137.5,-96 112.87,-70.29 164.24,-39.45 193.72,-24.7"/>
<polygon fill="#63b8ff" stroke="#63b8ff" points="1107.42,-143.66 1117.44,-140.23 1107.46,-136.66 1107.42,-143.66"/>
</a>
</g>
</g>
<!-- Node10 -->
<g id="Node000010" class="node">
<title>Node10</title>
<g id="a_Node000010"><a xlink:href="device__detail_8h.html" target="_top" xlink:title=" ">
<polygon fill="white" stroke="#666666" points="425,-90.5 296,-90.5 296,-71.5 425,-71.5 425,-90.5"/>
<text text-anchor="middle" x="360.5" y="-78.5" font-family="Helvetica,sans-Serif" font-size="10.00">include/device_detail.h</text>
</a>
</g>
</g>
<!-- Node2&#45;&gt;Node10 -->
<g id="edge9_Node000002_Node000010" class="edge">
<title>Node2&#45;&gt;Node10</title>
<g id="a_edge9_Node000002_Node000010"><a xlink:title=" ">
<path fill="none" stroke="#63b8ff" d="M1106.84,-139.38C979.64,-136.51 682.21,-126.81 434.5,-96 423.47,-94.63 411.61,-92.62 400.68,-90.56"/>
<polygon fill="#63b8ff" stroke="#63b8ff" points="1107.08,-142.88 1117.16,-139.6 1107.24,-135.88 1107.08,-142.88"/>
</a>
</g>
</g>
<!-- Node11 -->
<g id="Node000011" class="node">
<title>Node11</title>
<g id="a_Node000011"><a xlink:href="compiler_8cpp.html" target="_top" xlink:title=" ">
<polygon fill="white" stroke="#666666" points="561.5,-96 443.5,-96 443.5,-66 561.5,-66 561.5,-96"/>
<text text-anchor="start" x="451.5" y="-84" font-family="Helvetica,sans-Serif" font-size="10.00">runtime_compilation</text>
<text text-anchor="middle" x="502.5" y="-73" font-family="Helvetica,sans-Serif" font-size="10.00">/compiler.cpp</text>
</a>
</g>
</g>
<!-- Node2&#45;&gt;Node11 -->
<g id="edge10_Node000002_Node000011" class="edge">
<title>Node2&#45;&gt;Node11</title>
<g id="a_edge10_Node000002_Node000011"><a xlink:title=" ">
<path fill="none" stroke="#63b8ff" d="M1107,-138.51C997.74,-134.44 765.1,-123.15 570.5,-96 567.63,-95.6 564.71,-95.15 561.76,-94.67"/>
<polygon fill="#63b8ff" stroke="#63b8ff" points="1107.06,-142.01 1117.18,-138.88 1107.31,-135.02 1107.06,-142.01"/>
</a>
</g>
</g>
<!-- Node12 -->
<g id="Node000012" class="node">
<title>Node12</title>
<g id="a_Node000012"><a xlink:href="analysis__helpers_8cc.html" target="_top" xlink:title=" ">
<polygon fill="white" stroke="#666666" points="733,-90.5 580,-90.5 580,-71.5 733,-71.5 733,-90.5"/>
<text text-anchor="middle" x="656.5" y="-78.5" font-family="Helvetica,sans-Serif" font-size="10.00">src/core/analysis_helpers.cc</text>
</a>
</g>
</g>
<!-- Node2&#45;&gt;Node12 -->
<g id="edge11_Node000002_Node000012" class="edge">
<title>Node2&#45;&gt;Node12</title>
<g id="a_edge11_Node000002_Node000012"><a xlink:title=" ">
<path fill="none" stroke="#63b8ff" d="M1107.41,-135.16C1024.19,-127.74 871.93,-113.26 742.5,-96 730.65,-94.42 717.93,-92.48 706,-90.56"/>
<polygon fill="#63b8ff" stroke="#63b8ff" points="1107.19,-138.65 1117.46,-136.05 1107.81,-131.68 1107.19,-138.65"/>
</a>
</g>
</g>
<!-- Node13 -->
<g id="Node000013" class="node">
<title>Node13</title>
<g id="a_Node000013"><a xlink:href="astaroth_8cc.html" target="_top" xlink:title=" ">
<polygon fill="white" stroke="#666666" points="863.5,-90.5 751.5,-90.5 751.5,-71.5 863.5,-71.5 863.5,-90.5"/>
<text text-anchor="middle" x="807.5" y="-78.5" font-family="Helvetica,sans-Serif" font-size="10.00">src/core/astaroth.cc</text>
</a>
</g>
</g>
<!-- Node2&#45;&gt;Node13 -->
<g id="edge12_Node000002_Node000013" class="edge">
<title>Node2&#45;&gt;Node13</title>
<g id="a_edge12_Node000002_Node000013"><a xlink:title=" ">
<path fill="none" stroke="#63b8ff" d="M1107.49,-131.9C1048.28,-123.48 956.63,-109.94 877.5,-96 868.1,-94.34 858.02,-92.42 848.53,-90.53"/>
<polygon fill="#63b8ff" stroke="#63b8ff" points="1107.03,-135.37 1117.43,-133.3 1108.02,-128.44 1107.03,-135.37"/>
</a>
</g>
</g>
<!-- Node14 -->
<g id="Node000014" class="node">
<title>Node14</title>
<g id="a_Node000014"><a xlink:href="astaroth__fortran_8cc.html" target="_top" xlink:title=" ">
<polygon fill="white" stroke="#666666" points="1180.5,-24.5 1030.5,-24.5 1030.5,-5.5 1180.5,-5.5 1180.5,-24.5"/>
<text text-anchor="middle" x="1105.5" y="-12.5" font-family="Helvetica,sans-Serif" font-size="10.00">src/core/astaroth_fortran.cc</text>
</a>
</g>
</g>
<!-- Node2&#45;&gt;Node14 -->
<g id="edge13_Node000002_Node000014" class="edge">
<title>Node2&#45;&gt;Node14</title>
<g id="a_edge13_Node000002_Node000014"><a xlink:title=" ">
<path fill="none" stroke="#63b8ff" d="M1167.27,-121.74C1164.82,-106.1 1159.92,-83.62 1150.5,-66 1141.58,-49.32 1125.93,-33.73 1115.64,-24.53"/>
<polygon fill="#63b8ff" stroke="#63b8ff" points="1163.81,-122.32 1168.64,-131.75 1170.75,-121.36 1163.81,-122.32"/>
</a>
</g>
</g>
<!-- Node15 -->
<g id="Node000015" class="node">
<title>Node15</title>
<g id="a_Node000015"><a xlink:href="astaroth__fortran_8h.html" target="_top" xlink:title=" ">
<polygon fill="white" stroke="#666666" points="1141.5,-90.5 995.5,-90.5 995.5,-71.5 1141.5,-71.5 1141.5,-90.5"/>
<text text-anchor="middle" x="1068.5" y="-78.5" font-family="Helvetica,sans-Serif" font-size="10.00">src/core/astaroth_fortran.h</text>
</a>
</g>
</g>
<!-- Node2&#45;&gt;Node15 -->
<g id="edge14_Node000002_Node000015" class="edge">
<title>Node2&#45;&gt;Node15</title>
<g id="a_edge14_Node000002_Node000015"><a xlink:title=" ">
<path fill="none" stroke="#63b8ff" d="M1145.8,-126.77C1126.52,-115.6 1099.9,-100.19 1083.46,-90.67"/>
<polygon fill="#63b8ff" stroke="#63b8ff" points="1144.19,-129.88 1154.6,-131.87 1147.7,-123.83 1144.19,-129.88"/>
</a>
</g>
</g>
<!-- Node16 -->
<g id="Node000016" class="node">
<title>Node16</title>
<g id="a_Node000016"><a xlink:href="debug_8cc.html" target="_top" xlink:title=" ">
<polygon fill="white" stroke="#666666" points="1629,-24.5 1528,-24.5 1528,-5.5 1629,-5.5 1629,-24.5"/>
<text text-anchor="middle" x="1578.5" y="-12.5" font-family="Helvetica,sans-Serif" font-size="10.00">src/core/debug.cc</text>
</a>
</g>
</g>
<!-- Node2&#45;&gt;Node16 -->
<g id="edge16_Node000002_Node000016" class="edge">
<title>Node2&#45;&gt;Node16</title>
<g id="a_edge16_Node000002_Node000016"><a xlink:title=" ">
<path fill="none" stroke="#63b8ff" d="M1177.96,-122.64C1187.26,-105.13 1203.94,-79.2 1226.5,-66 1276.58,-36.7 1442.94,-23.47 1527.79,-18.51"/>
<polygon fill="#63b8ff" stroke="#63b8ff" points="1174.71,-121.31 1173.35,-131.82 1180.97,-124.46 1174.71,-121.31"/>
</a>
</g>
</g>
<!-- Node17 -->
<g id="Node000017" class="node">
<title>Node17</title>
<g id="a_Node000017"><a xlink:href="decomposition_8cc.html" target="_top" xlink:title=" ">
<polygon fill="white" stroke="#666666" points="1365.5,-96 1235.5,-96 1235.5,-66 1365.5,-66 1365.5,-96"/>
<text text-anchor="start" x="1243.5" y="-84" font-family="Helvetica,sans-Serif" font-size="10.00">src/core/decomposition</text>
<text text-anchor="middle" x="1300.5" y="-73" font-family="Helvetica,sans-Serif" font-size="10.00">/decomposition.cc</text>
</a>
</g>
</g>
<!-- Node2&#45;&gt;Node17 -->
<g id="edge17_Node000002_Node000017" class="edge">
<title>Node2&#45;&gt;Node17</title>
<g id="a_edge17_Node000002_Node000017"><a xlink:title=" ">
<path fill="none" stroke="#63b8ff" d="M1197.88,-127.83C1218.83,-118.47 1247.35,-105.74 1269.01,-96.06"/>
<polygon fill="#63b8ff" stroke="#63b8ff" points="1196.25,-124.72 1188.55,-131.99 1199.11,-131.11 1196.25,-124.72"/>
</a>
</g>
</g>
<!-- Node18 -->
<g id="Node000018" class="node">
<title>Node18</title>
<g id="a_Node000018"><a xlink:href="device_8cc.html" target="_top" xlink:title=" ">
<polygon fill="white" stroke="#666666" points="1487.5,-90.5 1383.5,-90.5 1383.5,-71.5 1487.5,-71.5 1487.5,-90.5"/>
<text text-anchor="middle" x="1435.5" y="-78.5" font-family="Helvetica,sans-Serif" font-size="10.00">src/core/device.cc</text>
</a>
</g>
</g>
<!-- Node2&#45;&gt;Node18 -->
<g id="edge18_Node000002_Node000018" class="edge">
<title>Node2&#45;&gt;Node18</title>
<g id="a_edge18_Node000002_Node000018"><a xlink:title=" ">
<path fill="none" stroke="#63b8ff" d="M1219.47,-129.83C1261,-120.91 1321.63,-107.8 1374.5,-96 1382.35,-94.25 1390.75,-92.34 1398.74,-90.51"/>
<polygon fill="#63b8ff" stroke="#63b8ff" points="1218.64,-126.42 1209.6,-131.94 1220.11,-133.27 1218.64,-126.42"/>
</a>
</g>
</g>
<!-- Node19 -->
<g id="Node000019" class="node">
<title>Node19</title>
<g id="a_Node000019"><a xlink:href="grid_8cc.html" target="_top" xlink:title=" ">
<polygon fill="white" stroke="#666666" points="2085.5,-24.5 1995.5,-24.5 1995.5,-5.5 2085.5,-5.5 2085.5,-24.5"/>
<text text-anchor="middle" x="2040.5" y="-12.5" font-family="Helvetica,sans-Serif" font-size="10.00">src/core/grid.cc</text>
</a>
</g>
</g>
<!-- Node2&#45;&gt;Node19 -->
<g id="edge19_Node000002_Node000019" class="edge">
<title>Node2&#45;&gt;Node19</title>
<g id="a_edge19_Node000002_Node000019"><a xlink:title=" ">
<path fill="none" stroke="#63b8ff" d="M1231.68,-139.62C1426.15,-136.59 2011.54,-125.06 2039.5,-96 2057.99,-76.78 2049.31,-41.39 2043.81,-24.9"/>
<polygon fill="#63b8ff" stroke="#63b8ff" points="1231.57,-136.13 1221.62,-139.78 1231.68,-143.12 1231.57,-136.13"/>
</a>
</g>
</g>
<!-- Node20 -->
<g id="Node000020" class="node">
<title>Node20</title>
<g id="a_Node000020"><a xlink:href="grid__commdata__based_8cc.html" target="_top" xlink:title=" ">
<polygon fill="white" stroke="#666666" points="1639.5,-96 1505.5,-96 1505.5,-66 1639.5,-66 1639.5,-96"/>
<text text-anchor="start" x="1513.5" y="-84" font-family="Helvetica,sans-Serif" font-size="10.00">src/core/grid_commdata</text>
<text text-anchor="middle" x="1572.5" y="-73" font-family="Helvetica,sans-Serif" font-size="10.00">_based.cc</text>
</a>
</g>
</g>
<!-- Node2&#45;&gt;Node20 -->
<g id="edge20_Node000002_Node000020" class="edge">
<title>Node2&#45;&gt;Node20</title>
<g id="a_edge20_Node000002_Node000020"><a xlink:title=" ">
<path fill="none" stroke="#63b8ff" d="M1231.93,-132.89C1297.83,-124.65 1404.67,-110.7 1496.5,-96 1499.41,-95.53 1502.39,-95.04 1505.39,-94.54"/>
<polygon fill="#63b8ff" stroke="#63b8ff" points="1231.21,-129.45 1221.71,-134.16 1232.07,-136.4 1231.21,-129.45"/>
</a>
</g>
</g>
<!-- Node21 -->
<g id="Node000021" class="node">
<title>Node21</title>
<g id="a_Node000021"><a xlink:href="node_8cc.html" target="_top" xlink:title="Multi&#45;GPU implementation.">
<polygon fill="white" stroke="#666666" points="1753,-90.5 1658,-90.5 1658,-71.5 1753,-71.5 1753,-90.5"/>
<text text-anchor="middle" x="1705.5" y="-78.5" font-family="Helvetica,sans-Serif" font-size="10.00">src/core/node.cc</text>
</a>
</g>
</g>
<!-- Node2&#45;&gt;Node21 -->
<g id="edge21_Node000002_Node000021" class="edge">
<title>Node2&#45;&gt;Node21</title>
<g id="a_edge21_Node000002_Node000021"><a xlink:title=" ">
<path fill="none" stroke="#63b8ff" d="M1231.79,-137.66C1323.55,-132.82 1500.2,-120.96 1648.5,-96 1656.94,-94.58 1665.98,-92.58 1674.31,-90.54"/>
<polygon fill="#63b8ff" stroke="#63b8ff" points="1231.38,-134.18 1221.57,-138.19 1231.74,-141.17 1231.38,-134.18"/>
</a>
</g>
</g>
<!-- Node22 -->
<g id="Node000022" class="node">
<title>Node22</title>
<g id="a_Node000022"><a xlink:href="task_8cc.html" target="_top" xlink:title=" ">
<polygon fill="white" stroke="#666666" points="2195.5,-24.5 2103.5,-24.5 2103.5,-5.5 2195.5,-5.5 2195.5,-24.5"/>
<text text-anchor="middle" x="2149.5" y="-12.5" font-family="Helvetica,sans-Serif" font-size="10.00">src/core/task.cc</text>
</a>
</g>
</g>
<!-- Node2&#45;&gt;Node22 -->
<g id="edge22_Node000002_Node000022" class="edge">
<title>Node2&#45;&gt;Node22</title>
<g id="a_edge22_Node000002_Node000022"><a xlink:title=" ">
<path fill="none" stroke="#63b8ff" d="M1231.95,-140.11C1447.87,-138.47 2151.48,-130.5 2184.5,-96 2204.63,-74.97 2174.88,-40.49 2158.74,-24.56"/>
<polygon fill="#63b8ff" stroke="#63b8ff" points="1231.71,-136.61 1221.73,-140.19 1231.76,-143.61 1231.71,-136.61"/>
</a>
</g>
</g>
<!-- Node23 -->
<g id="Node000023" class="node">
<title>Node23</title>
<g id="a_Node000023"><a xlink:href="task_8h.html" target="_top" xlink:title=" ">
<polygon fill="white" stroke="#666666" points="2175.5,-90.5 2087.5,-90.5 2087.5,-71.5 2175.5,-71.5 2175.5,-90.5"/>
<text text-anchor="middle" x="2131.5" y="-78.5" font-family="Helvetica,sans-Serif" font-size="10.00">src/core/task.h</text>
</a>
</g>
</g>
<!-- Node2&#45;&gt;Node23 -->
<g id="edge23_Node000002_Node000023" class="edge">
<title>Node2&#45;&gt;Node23</title>
<g id="a_edge23_Node000002_Node000023"><a xlink:title=" ">
<path fill="none" stroke="#63b8ff" d="M1231.83,-138.96C1408.54,-134.34 1910.52,-119.47 2073.5,-96 2082.42,-94.72 2091.98,-92.69 2100.71,-90.57"/>
<polygon fill="#63b8ff" stroke="#63b8ff" points="1231.56,-135.46 1221.66,-139.22 1231.75,-142.46 1231.56,-135.46"/>
</a>
</g>
</g>
<!-- Node25 -->
<g id="Node000025" class="node">
<title>Node25</title>
<g id="a_Node000025"><a xlink:href="update__params_8cc.html" target="_top" xlink:title=" ">
<polygon fill="white" stroke="#666666" points="1905.5,-96 1771.5,-96 1771.5,-66 1905.5,-66 1905.5,-96"/>
<text text-anchor="start" x="1779.5" y="-84" font-family="Helvetica,sans-Serif" font-size="10.00">src/core/update_params</text>
<text text-anchor="middle" x="1838.5" y="-73" font-family="Helvetica,sans-Serif" font-size="10.00">/update_params.cc</text>
</a>
</g>
</g>
<!-- Node2&#45;&gt;Node25 -->
<g id="edge28_Node000002_Node000025" class="edge">
<title>Node2&#45;&gt;Node25</title>
<g id="a_edge28_Node000002_Node000025"><a xlink:title=" ">
<path fill="none" stroke="#63b8ff" d="M1231.63,-137.98C1339.69,-133.11 1569.12,-120.65 1761.5,-96 1764.73,-95.59 1768.04,-95.13 1771.37,-94.63"/>
<polygon fill="#63b8ff" stroke="#63b8ff" points="1231.39,-134.48 1221.55,-138.42 1231.7,-141.48 1231.39,-134.48"/>
</a>
</g>
</g>
<!-- Node26 -->
<g id="Node000026" class="node">
<title>Node26</title>
<g id="a_Node000026"><a xlink:href="profiles_8cc.html" target="_top" xlink:title="Brief info.">
<polygon fill="white" stroke="#666666" points="2031,-90.5 1924,-90.5 1924,-71.5 2031,-71.5 2031,-90.5"/>
<text text-anchor="middle" x="1977.5" y="-78.5" font-family="Helvetica,sans-Serif" font-size="10.00">src/utils/profiles.cc</text>
</a>
</g>
</g>
<!-- Node2&#45;&gt;Node26 -->
<g id="edge33_Node000002_Node000026" class="edge">
<title>Node2&#45;&gt;Node26</title>
<g id="a_edge33_Node000002_Node000026"><a xlink:title=" ">
<path fill="none" stroke="#63b8ff" d="M1231.75,-140.12C1360.08,-138.59 1663.07,-131.22 1914.5,-96 1924.04,-94.66 1934.28,-92.64 1943.68,-90.55"/>
<polygon fill="#63b8ff" stroke="#63b8ff" points="1231.68,-136.62 1221.72,-140.23 1231.75,-143.62 1231.68,-136.62"/>
</a>
</g>
</g>
<!-- Node3&#45;&gt;Node4 -->
<g id="edge3_Node000003_Node000004" class="edge">
<title>Node3&#45;&gt;Node4</title>
<g id="a_edge3_Node000003_Node000004"><a xlink:title=" ">
<path fill="none" stroke="#63b8ff" d="M267.22,-69.59C273.72,-68.37 280.26,-67.15 286.5,-66 366.75,-51.17 460.18,-34.41 515.44,-24.55"/>
<polygon fill="#63b8ff" stroke="#63b8ff" points="266.28,-66.21 257.1,-71.5 267.57,-73.09 266.28,-66.21"/>
</a>
</g>
</g>
<!-- Node3&#45;&gt;Node5 -->
<g id="edge4_Node000003_Node000005" class="edge">
<title>Node3&#45;&gt;Node5</title>
<g id="a_edge4_Node000003_Node000005"><a xlink:title=" ">
<path fill="none" stroke="#63b8ff" d="M264.28,-69.62C271.72,-68.3 279.29,-67.05 286.5,-66 443,-43.28 483.28,-47.09 640.5,-30 661.84,-27.68 685.28,-25 705.8,-22.61"/>
<polygon fill="#63b8ff" stroke="#63b8ff" points="263.48,-66.21 254.27,-71.45 264.74,-73.1 263.48,-66.21"/>
</a>
</g>
</g>
<!-- Node3&#45;&gt;Node6 -->
<g id="edge5_Node000003_Node000006" class="edge">
<title>Node3&#45;&gt;Node6</title>
<g id="a_edge5_Node000003_Node000006"><a xlink:title=" ">
<path fill="none" stroke="#63b8ff" d="M262.62,-69.68C270.58,-68.28 278.75,-66.99 286.5,-66 524.66,-35.63 586.6,-53.88 825.5,-30 840.51,-28.5 856.67,-26.52 871.71,-24.53"/>
<polygon fill="#63b8ff" stroke="#63b8ff" points="261.9,-66.25 252.69,-71.49 263.15,-73.14 261.9,-66.25"/>
</a>
</g>
</g>
<!-- Node7 -->
<g id="Node000007" class="node">
<title>Node7</title>
<g id="a_Node000007"><a xlink:href="modelsolver-legacy-do-not-modify_8c.html" target="_top" xlink:title=" ">
<polygon fill="white" stroke="#666666" points="425.5,-30 293.5,-30 293.5,0 425.5,0 425.5,-30"/>
<text text-anchor="start" x="301.5" y="-18" font-family="Helvetica,sans-Serif" font-size="10.00">src/utils/modelsolver</text>
<text text-anchor="middle" x="359.5" y="-7" font-family="Helvetica,sans-Serif" font-size="10.00">&#45;legacy&#45;do&#45;not&#45;modify.c</text>
</a>
</g>
</g>
<!-- Node3&#45;&gt;Node7 -->
<g id="edge6_Node000003_Node000007" class="edge">
<title>Node3&#45;&gt;Node7</title>
<g id="a_edge6_Node000003_Node000007"><a xlink:title=" ">
<path fill="none" stroke="#63b8ff" d="M241.53,-67.36C266.17,-56.63 301.51,-41.25 327.08,-30.12"/>
<polygon fill="#63b8ff" stroke="#63b8ff" points="240.1,-64.17 232.33,-71.37 242.89,-70.59 240.1,-64.17"/>
</a>
</g>
</g>
<!-- Node3&#45;&gt;Node8 -->
<g id="edge7_Node000003_Node000008" class="edge">
<title>Node3&#45;&gt;Node8</title>
<g id="a_edge7_Node000003_Node000008"><a xlink:title=" ">
<path fill="none" stroke="#63b8ff" d="M183.46,-67.36C154.5,-54.75 110.76,-35.71 85.48,-24.7"/>
<polygon fill="#63b8ff" stroke="#63b8ff" points="182.11,-70.59 192.67,-71.37 184.9,-64.17 182.11,-70.59"/>
</a>
</g>
</g>
<!-- Node3&#45;&gt;Node9 -->
<g id="edge8_Node000003_Node000009" class="edge">
<title>Node3&#45;&gt;Node9</title>
<g id="a_edge8_Node000003_Node000009"><a xlink:title=" ">
<path fill="none" stroke="#63b8ff" d="M212.5,-61.08C212.5,-49.13 212.5,-34.22 212.5,-24.91"/>
<polygon fill="#63b8ff" stroke="#63b8ff" points="209,-61.37 212.5,-71.37 216,-61.37 209,-61.37"/>
</a>
</g>
</g>
<!-- Node15&#45;&gt;Node14 -->
<g id="edge15_Node000015_Node000014" class="edge">
<title>Node15&#45;&gt;Node14</title>
<g id="a_edge15_Node000015_Node000014"><a xlink:title=" ">
<path fill="none" stroke="#63b8ff" d="M1078.59,-62.55C1085.63,-50.36 1094.74,-34.61 1100.35,-24.91"/>
<polygon fill="#63b8ff" stroke="#63b8ff" points="1075.46,-60.96 1073.49,-71.37 1081.53,-64.46 1075.46,-60.96"/>
</a>
</g>
</g>
<!-- Node23&#45;&gt;Node16 -->
<g id="edge25_Node000023_Node000016" class="edge">
<title>Node23&#45;&gt;Node16</title>
<g id="a_edge25_Node000023_Node000016"><a xlink:title=" ">
<path fill="none" stroke="#63b8ff" d="M2076.96,-71.31C2064.66,-69.45 2051.64,-67.58 2039.5,-66 1890.62,-46.61 1713.99,-28.93 1629.06,-20.77"/>
<polygon fill="#63b8ff" stroke="#63b8ff" points="2076.69,-74.8 2087.1,-72.85 2077.74,-67.88 2076.69,-74.8"/>
</a>
</g>
</g>
<!-- Node23&#45;&gt;Node19 -->
<g id="edge26_Node000023_Node000019" class="edge">
<title>Node23&#45;&gt;Node19</title>
<g id="a_edge26_Node000023_Node000019"><a xlink:title=" ">
<path fill="none" stroke="#63b8ff" d="M2110.65,-65.33C2092.8,-52.78 2067.7,-35.13 2052.87,-24.7"/>
<polygon fill="#63b8ff" stroke="#63b8ff" points="2109.03,-68.48 2119.23,-71.37 2113.06,-62.75 2109.03,-68.48"/>
</a>
</g>
</g>
<!-- Node23&#45;&gt;Node22 -->
<g id="edge27_Node000023_Node000022" class="edge">
<title>Node23&#45;&gt;Node22</title>
<g id="a_edge27_Node000023_Node000022"><a xlink:title=" ">
<path fill="none" stroke="#63b8ff" d="M2136.72,-61.45C2140.1,-49.43 2144.35,-34.32 2147,-24.91"/>
<polygon fill="#63b8ff" stroke="#63b8ff" points="2133.27,-60.79 2133.93,-71.37 2140,-62.69 2133.27,-60.79"/>
</a>
</g>
</g>
<!-- Node23&#45;&gt;Node24 -->
<g id="edge24_Node000023_Node000024" class="edge">
<title>Node23&#45;&gt;Node24</title>
<g id="a_edge24_Node000023_Node000024"><a xlink:title=" ">
<path fill="none" stroke="#63b8ff" d="M2161.72,-67.52C2192.26,-54.91 2238.66,-35.75 2265.43,-24.7"/>
<polygon fill="#63b8ff" stroke="#63b8ff" points="2160.31,-64.32 2152.4,-71.37 2162.98,-70.79 2160.31,-64.32"/>
</a>
</g>
</g>
</g>
</svg>
