<?xml version="1.0" encoding="UTF-8" standalone="no"?>
<!DOCTYPE svg PUBLIC "-//W3C//DTD SVG 1.1//EN"
 "http://www.w3.org/Graphics/SVG/1.1/DTD/svg11.dtd">
<!-- Generated by graphviz version 2.43.0 (0)
 -->
<!-- Title: src/core/helpers/buffer.cc Pages: 1 -->
<svg width="763pt" height="192pt"
 viewBox="0.00 0.00 763.00 192.00" xmlns="http://www.w3.org/2000/svg" xmlns:xlink="http://www.w3.org/1999/xlink">
<g id="graph0" class="graph" transform="scale(1 1) rotate(0) translate(4 188)">
<title>src/core/helpers/buffer.cc</title>
<!-- Node1 -->
<g id="Node000001" class="node">
<title>Node1</title>
<g id="a_Node000001"><a xlink:title=" ">
<polygon fill="#999999" stroke="#666666" points="443.5,-184 305.5,-184 305.5,-165 443.5,-165 443.5,-184"/>
<text text-anchor="middle" x="374.5" y="-172" font-family="Helvetica,sans-Serif" font-size="10.00">src/core/helpers/buffer.cc</text>
</a>
</g>
</g>
<!-- Node2 -->
<g id="Node000002" class="node">
<title>Node2</title>
<g id="a_Node000002"><a xlink:href="host__datatypes_8h.html" target="_top" xlink:title=" ">
<polygon fill="white" stroke="#666666" points="359,-74 258,-74 258,-55 359,-55 359,-74"/>
<text text-anchor="middle" x="308.5" y="-62" font-family="Helvetica,sans-Serif" font-size="10.00">host_datatypes.h</text>
</a>
</g>
</g>
<!-- Node1&#45;&gt;Node2 -->
<g id="edge1_Node000001_Node000002" class="edge">
<title>Node1&#45;&gt;Node2</title>
<g id="a_edge1_Node000001_Node000002"><a xlink:title=" ">
<path fill="none" stroke="#63b8ff" d="M369.1,-164.66C358.17,-146.77 333.25,-106 319.01,-82.69"/>
<polygon fill="#63b8ff" stroke="#63b8ff" points="321.99,-80.87 313.79,-74.16 316.02,-84.52 321.99,-80.87"/>
</a>
</g>
</g>
<!-- Node5 -->
<g id="Node000005" class="node">
<title>Node5</title>
<g id="a_Node000005"><a xlink:href="transpose_8h.html" target="_top" xlink:title=" ">
<polygon fill="white" stroke="#666666" points="317.5,-129 243.5,-129 243.5,-110 317.5,-110 317.5,-129"/>
<text text-anchor="middle" x="280.5" y="-117" font-family="Helvetica,sans-Serif" font-size="10.00">transpose.h</text>
</a>
</g>
</g>
<!-- Node1&#45;&gt;Node5 -->
<g id="edge4_Node000001_Node000005" class="edge">
<title>Node1&#45;&gt;Node5</title>
<g id="a_edge4_Node000001_Node000005"><a xlink:title=" ">
<path fill="none" stroke="#63b8ff" d="M359.4,-164.98C344.68,-156.69 322.08,-143.94 304.83,-134.22"/>
<polygon fill="#63b8ff" stroke="#63b8ff" points="306.31,-131.03 295.88,-129.17 302.87,-137.13 306.31,-131.03"/>
</a>
</g>
</g>
<!-- Node9 -->
<g id="Node000009" class="node">
<title>Node9</title>
<g id="a_Node000009"><a xlink:href="reindex_8h.html" target="_top" xlink:title=" ">
<polygon fill="white" stroke="#666666" points="510.5,-129 448.5,-129 448.5,-110 510.5,-110 510.5,-129"/>
<text text-anchor="middle" x="479.5" y="-117" font-family="Helvetica,sans-Serif" font-size="10.00">reindex.h</text>
</a>
</g>
</g>
<!-- Node1&#45;&gt;Node9 -->
<g id="edge10_Node000001_Node000009" class="edge">
<title>Node1&#45;&gt;Node9</title>
<g id="a_edge10_Node000001_Node000009"><a xlink:title=" ">
<path fill="none" stroke="#63b8ff" d="M391.37,-164.98C408.11,-156.54 434,-143.47 453.39,-133.68"/>
<polygon fill="#63b8ff" stroke="#63b8ff" points="454.97,-136.8 462.32,-129.17 451.82,-130.55 454.97,-136.8"/>
</a>
</g>
</g>
<!-- Node10 -->
<g id="Node000010" class="node">
<title>Node10</title>
<g id="a_Node000010"><a xlink:href="ac__helpers_8h.html" target="_top" xlink:title=" ">
<polygon fill="white" stroke="#666666" points="606.5,-129 528.5,-129 528.5,-110 606.5,-110 606.5,-129"/>
<text text-anchor="middle" x="567.5" y="-117" font-family="Helvetica,sans-Serif" font-size="10.00">ac_helpers.h</text>
</a>
</g>
</g>
<!-- Node1&#45;&gt;Node10 -->
<g id="edge11_Node000001_Node000010" class="edge">
<title>Node1&#45;&gt;Node10</title>
<g id="a_edge11_Node000001_Node000010"><a xlink:title=" ">
<path fill="none" stroke="#63b8ff" d="M405.51,-164.98C438.33,-155.97 490.3,-141.7 526.49,-131.76"/>
<polygon fill="#63b8ff" stroke="#63b8ff" points="527.53,-135.11 536.25,-129.08 525.68,-128.36 527.53,-135.11"/>
</a>
</g>
</g>
<!-- Node11 -->
<g id="Node000011" class="node">
<title>Node11</title>
<g id="a_Node000011"><a xlink:href="astaroth__cuda__wrappers_8h.html" target="_top" xlink:title=" ">
<polygon fill="white" stroke="#666666" points="224,-129 79,-129 79,-110 224,-110 224,-129"/>
<text text-anchor="middle" x="151.5" y="-117" font-family="Helvetica,sans-Serif" font-size="10.00">astaroth_cuda_wrappers.h</text>
</a>
</g>
</g>
<!-- Node1&#45;&gt;Node11 -->
<g id="edge12_Node000001_Node000011" class="edge">
<title>Node1&#45;&gt;Node11</title>
<g id="a_edge12_Node000001_Node000011"><a xlink:title=" ">
<path fill="none" stroke="#63b8ff" d="M338.67,-164.98C300.34,-155.87 239.42,-141.4 197.55,-131.45"/>
<polygon fill="#63b8ff" stroke="#63b8ff" points="198.15,-127.99 187.61,-129.08 196.53,-134.8 198.15,-127.99"/>
</a>
</g>
</g>
<!-- Node12 -->
<g id="Node000012" class="node">
<title>Node12</title>
<g id="a_Node000012"><a xlink:href="errchk_8h.html" target="_top" xlink:title="Brief info.">
<polygon fill="white" stroke="#666666" points="430.5,-129 374.5,-129 374.5,-110 430.5,-110 430.5,-129"/>
<text text-anchor="middle" x="402.5" y="-117" font-family="Helvetica,sans-Serif" font-size="10.00">errchk.h</text>
</a>
</g>
</g>
<!-- Node1&#45;&gt;Node12 -->
<g id="edge14_Node000001_Node000012" class="edge">
<title>Node1&#45;&gt;Node12</title>
<g id="a_edge14_Node000001_Node000012"><a xlink:title=" ">
<path fill="none" stroke="#63b8ff" d="M379.12,-164.75C382.96,-157.49 388.52,-146.95 393.26,-137.98"/>
<polygon fill="#63b8ff" stroke="#63b8ff" points="396.39,-139.57 397.96,-129.09 390.2,-136.3 396.39,-139.57"/>
</a>
</g>
</g>
<!-- Node3 -->
<g id="Node000003" class="node">
<title>Node3</title>
<g id="a_Node000003"><a xlink:href="acreal_8h.html" target="_top" xlink:title=" ">
<polygon fill="white" stroke="#666666" points="318.5,-19 262.5,-19 262.5,0 318.5,0 318.5,-19"/>
<text text-anchor="middle" x="290.5" y="-7" font-family="Helvetica,sans-Serif" font-size="10.00">acreal.h</text>
</a>
</g>
</g>
<!-- Node2&#45;&gt;Node3 -->
<g id="edge2_Node000002_Node000003" class="edge">
<title>Node2&#45;&gt;Node3</title>
<g id="a_edge2_Node000002_Node000003"><a xlink:title=" ">
<path fill="none" stroke="#63b8ff" d="M305.53,-54.75C303.14,-47.72 299.71,-37.62 296.73,-28.84"/>
<polygon fill="#63b8ff" stroke="#63b8ff" points="299.95,-27.43 293.42,-19.09 293.32,-29.68 299.95,-27.43"/>
</a>
</g>
</g>
<!-- Node4 -->
<g id="Node000004" class="node">
<title>Node4</title>
<g id="a_Node000004"><a xlink:title=" ">
<polygon fill="#e0e0e0" stroke="#999999" points="497.5,-19 441.5,-19 441.5,0 497.5,0 497.5,-19"/>
<text text-anchor="middle" x="469.5" y="-7" font-family="Helvetica,sans-Serif" font-size="10.00">stddef.h</text>
</a>
</g>
</g>
<!-- Node2&#45;&gt;Node4 -->
<g id="edge3_Node000002_Node000004" class="edge">
<title>Node2&#45;&gt;Node4</title>
<g id="a_edge3_Node000002_Node000004"><a xlink:title=" ">
<path fill="none" stroke="#63b8ff" d="M334.37,-54.98C361.28,-46.13 403.62,-32.19 433.73,-22.28"/>
<polygon fill="#63b8ff" stroke="#63b8ff" points="435.03,-25.53 443.43,-19.08 432.84,-18.88 435.03,-25.53"/>
</a>
</g>
</g>
<!-- Node5&#45;&gt;Node2 -->
<g id="edge9_Node000005_Node000002" class="edge">
<title>Node5&#45;&gt;Node2</title>
<g id="a_edge9_Node000005_Node000002"><a xlink:title=" ">
<path fill="none" stroke="#63b8ff" d="M285.12,-109.75C288.96,-102.49 294.52,-91.95 299.26,-82.98"/>
<polygon fill="#63b8ff" stroke="#63b8ff" points="302.39,-84.57 303.96,-74.09 296.2,-81.3 302.39,-84.57"/>
</a>
</g>
</g>
<!-- Node5&#45;&gt;Node3 -->
<g id="edge8_Node000005_Node000003" class="edge">
<title>Node5&#45;&gt;Node3</title>
<g id="a_edge8_Node000005_Node000003"><a xlink:title=" ">
<path fill="none" stroke="#63b8ff" d="M270.73,-109.69C258.61,-97.63 240.48,-75.19 248.5,-55 253.02,-43.63 261.97,-33.48 270.46,-25.76"/>
<polygon fill="#63b8ff" stroke="#63b8ff" points="272.91,-28.27 278.29,-19.14 268.39,-22.92 272.91,-28.27"/>
</a>
</g>
</g>
<!-- Node6 -->
<g id="Node000006" class="node">
<title>Node6</title>
<g id="a_Node000006"><a xlink:href="device__headers_8h.html" target="_top" xlink:title=" ">
<polygon fill="white" stroke="#666666" points="201.5,-74 99.5,-74 99.5,-55 201.5,-55 201.5,-74"/>
<text text-anchor="middle" x="150.5" y="-62" font-family="Helvetica,sans-Serif" font-size="10.00">device_headers.h</text>
</a>
</g>
</g>
<!-- Node5&#45;&gt;Node6 -->
<g id="edge5_Node000005_Node000006" class="edge">
<title>Node5&#45;&gt;Node6</title>
<g id="a_edge5_Node000005_Node000006"><a xlink:title=" ">
<path fill="none" stroke="#63b8ff" d="M259.61,-109.98C238.42,-101.34 205.37,-87.87 181.2,-78.02"/>
<polygon fill="#63b8ff" stroke="#63b8ff" points="182.35,-74.7 171.77,-74.17 179.71,-81.19 182.35,-74.7"/>
</a>
</g>
</g>
<!-- Node7 -->
<g id="Node000007" class="node">
<title>Node7</title>
<g id="a_Node000007"><a xlink:title=" ">
<polygon fill="#e0e0e0" stroke="#999999" points="113,-19 0,-19 0,0 113,0 113,-19"/>
<text text-anchor="middle" x="56.5" y="-7" font-family="Helvetica,sans-Serif" font-size="10.00">cuda_runtime_api.h</text>
</a>
</g>
</g>
<!-- Node6&#45;&gt;Node7 -->
<g id="edge6_Node000006_Node000007" class="edge">
<title>Node6&#45;&gt;Node7</title>
<g id="a_edge6_Node000006_Node000007"><a xlink:title=" ">
<path fill="none" stroke="#63b8ff" d="M135.4,-54.98C120.68,-46.69 98.08,-33.94 80.83,-24.22"/>
<polygon fill="#63b8ff" stroke="#63b8ff" points="82.31,-21.03 71.88,-19.17 78.87,-27.13 82.31,-21.03"/>
</a>
</g>
</g>
<!-- Node8 -->
<g id="Node000008" class="node">
<title>Node8</title>
<g id="a_Node000008"><a xlink:title=" ">
<polygon fill="#e0e0e0" stroke="#999999" points="207.5,-19 131.5,-19 131.5,0 207.5,0 207.5,-19"/>
<text text-anchor="middle" x="169.5" y="-7" font-family="Helvetica,sans-Serif" font-size="10.00">cuda_fp16.h</text>
</a>
</g>
</g>
<!-- Node6&#45;&gt;Node8 -->
<g id="edge7_Node000006_Node000008" class="edge">
<title>Node6&#45;&gt;Node8</title>
<g id="a_edge7_Node000006_Node000008"><a xlink:title=" ">
<path fill="none" stroke="#63b8ff" d="M153.64,-54.75C156.18,-47.65 159.86,-37.4 163.03,-28.56"/>
<polygon fill="#63b8ff" stroke="#63b8ff" points="166.34,-29.68 166.42,-19.09 159.75,-27.32 166.34,-29.68"/>
</a>
</g>
</g>
<!-- Node11&#45;&gt;Node6 -->
<g id="edge13_Node000011_Node000006" class="edge">
<title>Node11&#45;&gt;Node6</title>
<g id="a_edge13_Node000011_Node000006"><a xlink:title=" ">
<path fill="none" stroke="#63b8ff" d="M151.33,-109.75C151.2,-102.8 151.02,-92.85 150.85,-84.13"/>
<polygon fill="#63b8ff" stroke="#63b8ff" points="154.35,-84.02 150.66,-74.09 147.35,-84.15 154.35,-84.02"/>
</a>
</g>
</g>
<!-- Node12&#45;&gt;Node2 -->
<g id="edge16_Node000012_Node000002" class="edge">
<title>Node12&#45;&gt;Node2</title>
<g id="a_edge16_Node000012_Node000002"><a xlink:title=" ">
<path fill="none" stroke="#63b8ff" d="M387.4,-109.98C372.68,-101.69 350.08,-88.94 332.83,-79.22"/>
<polygon fill="#63b8ff" stroke="#63b8ff" points="334.31,-76.03 323.88,-74.17 330.87,-82.13 334.31,-76.03"/>
</a>
</g>
</g>
<!-- Node12&#45;&gt;Node4 -->
<g id="edge15_Node000012_Node000004" class="edge">
<title>Node12&#45;&gt;Node4</title>
<g id="a_edge15_Node000012_Node000004"><a xlink:title=" ">
<path fill="none" stroke="#63b8ff" d="M430.84,-111.64C479.09,-99.88 572.26,-76.89 574.5,-74 596.11,-46.09 545.76,-27.71 507.55,-18.21"/>
<polygon fill="#63b8ff" stroke="#63b8ff" points="508.19,-14.77 497.65,-15.88 506.58,-21.58 508.19,-14.77"/>
</a>
</g>
</g>
<!-- Node12&#45;&gt;Node6 -->
<g id="edge22_Node000012_Node000006" class="edge">
<title>Node12&#45;&gt;Node6</title>
<g id="a_edge22_Node000012_Node000006"><a xlink:title=" ">
<path fill="none" stroke="#63b8ff" d="M374.08,-112.52C332.21,-103.72 253.28,-87.12 201.3,-76.18"/>
<polygon fill="#63b8ff" stroke="#63b8ff" points="201.78,-72.71 191.28,-74.08 200.34,-79.56 201.78,-72.71"/>
</a>
</g>
</g>
<!-- Node13 -->
<g id="Node000013" class="node">
<title>Node13</title>
<g id="a_Node000013"><a xlink:title=" ">
<polygon fill="#e0e0e0" stroke="#999999" points="683.5,-74 621.5,-74 621.5,-55 683.5,-55 683.5,-74"/>
<text text-anchor="middle" x="652.5" y="-62" font-family="Helvetica,sans-Serif" font-size="10.00">stdbool.h</text>
</a>
</g>
</g>
<!-- Node12&#45;&gt;Node13 -->
<g id="edge17_Node000012_Node000013" class="edge">
<title>Node12&#45;&gt;Node13</title>
<g id="a_edge17_Node000012_Node000013"><a xlink:title=" ">
<path fill="none" stroke="#63b8ff" d="M430.77,-111.95C433.72,-111.28 436.67,-110.62 439.5,-110 499.16,-96.92 568.41,-82.61 611.35,-73.84"/>
<polygon fill="#63b8ff" stroke="#63b8ff" points="612.32,-77.22 621.42,-71.79 610.92,-70.36 612.32,-77.22"/>
</a>
</g>
</g>
<!-- Node14 -->
<g id="Node000014" class="node">
<title>Node14</title>
<g id="a_Node000014"><a xlink:title=" ">
<polygon fill="#e0e0e0" stroke="#999999" points="755,-74 702,-74 702,-55 755,-55 755,-74"/>
<text text-anchor="middle" x="728.5" y="-62" font-family="Helvetica,sans-Serif" font-size="10.00">stdint.h</text>
</a>
</g>
</g>
<!-- Node12&#45;&gt;Node14 -->
<g id="edge18_Node000012_Node000014" class="edge">
<title>Node12&#45;&gt;Node14</title>
<g id="a_edge18_Node000012_Node000014"><a xlink:title=" ">
<path fill="none" stroke="#63b8ff" d="M430.73,-111.76C433.68,-111.13 436.65,-110.53 439.5,-110 548.01,-89.85 579.15,-94.76 691.76,-73.97"/>
<polygon fill="#63b8ff" stroke="#63b8ff" points="692.64,-77.37 701.82,-72.08 691.35,-70.49 692.64,-77.37"/>
</a>
</g>
</g>
<!-- Node15 -->
<g id="Node000015" class="node">
<title>Node15</title>
<g id="a_Node000015"><a xlink:title=" ">
<polygon fill="#e0e0e0" stroke="#999999" points="427.5,-74 377.5,-74 377.5,-55 427.5,-55 427.5,-74"/>
<text text-anchor="middle" x="402.5" y="-62" font-family="Helvetica,sans-Serif" font-size="10.00">stdio.h</text>
</a>
</g>
</g>
<!-- Node12&#45;&gt;Node15 -->
<g id="edge19_Node000012_Node000015" class="edge">
<title>Node12&#45;&gt;Node15</title>
<g id="a_edge19_Node000012_Node000015"><a xlink:title=" ">
<path fill="none" stroke="#63b8ff" d="M402.5,-109.75C402.5,-102.8 402.5,-92.85 402.5,-84.13"/>
<polygon fill="#63b8ff" stroke="#63b8ff" points="406,-84.09 402.5,-74.09 399,-84.09 406,-84.09"/>
</a>
</g>
</g>
<!-- Node16 -->
<g id="Node000016" class="node">
<title>Node16</title>
<g id="a_Node000016"><a xlink:title=" ">
<polygon fill="#e0e0e0" stroke="#999999" points="499,-74 446,-74 446,-55 499,-55 499,-74"/>
<text text-anchor="middle" x="472.5" y="-62" font-family="Helvetica,sans-Serif" font-size="10.00">stdlib.h</text>
</a>
</g>
</g>
<!-- Node12&#45;&gt;Node16 -->
<g id="edge20_Node000012_Node000016" class="edge">
<title>Node12&#45;&gt;Node16</title>
<g id="a_edge20_Node000012_Node000016"><a xlink:title=" ">
<path fill="none" stroke="#63b8ff" d="M413.75,-109.98C424.3,-102 440.3,-89.88 452.94,-80.31"/>
<polygon fill="#63b8ff" stroke="#63b8ff" points="455.19,-83 461.05,-74.17 450.96,-77.42 455.19,-83"/>
</a>
</g>
</g>
<!-- Node17 -->
<g id="Node000017" class="node">
<title>Node17</title>
<g id="a_Node000017"><a xlink:title=" ">
<polygon fill="#e0e0e0" stroke="#999999" points="565.5,-74 517.5,-74 517.5,-55 565.5,-55 565.5,-74"/>
<text text-anchor="middle" x="541.5" y="-62" font-family="Helvetica,sans-Serif" font-size="10.00">time.h</text>
</a>
</g>
</g>
<!-- Node12&#45;&gt;Node17 -->
<g id="edge21_Node000012_Node000017" class="edge">
<title>Node12&#45;&gt;Node17</title>
<g id="a_edge21_Node000012_Node000017"><a xlink:title=" ">
<path fill="none" stroke="#63b8ff" d="M424.83,-109.98C447.7,-101.27 483.46,-87.63 509.36,-77.75"/>
<polygon fill="#63b8ff" stroke="#63b8ff" points="510.66,-81 518.76,-74.17 508.17,-74.46 510.66,-81"/>
</a>
</g>
</g>
</g>
</svg>
