<?xml version="1.0" encoding="UTF-8" standalone="no"?>
<!DOCTYPE svg PUBLIC "-//W3C//DTD SVG 1.1//EN"
 "http://www.w3.org/Graphics/SVG/1.1/DTD/svg11.dtd">
<!-- Generated by graphviz version 2.43.0 (0)
 -->
<!-- Title: ComputeTask Pages: 1 -->
<!--zoomable 500 -->

<svg id="main" version="1.1" xmlns="http://www.w3.org/2000/svg" xmlns:xlink="http://www.w3.org/1999/xlink" xml:space="preserve" onload="init(evt)">
<style type="text/css"><![CDATA[
.node, .edge {opacity: 0.7;}
.node.selected, .edge.selected {opacity: 1;}
.edge:hover path { stroke: red; }
.edge:hover polygon { stroke: red; fill: red; }
]]></style>

<defs>
  <circle id="rim" cx="0" cy="0" r="7"/>
  <circle id="rim2" cx="0" cy="0" r="3.5"/>
  <g id="zoomPlus">
    <use xlink:href="#rim" fill="#404040"><set attributeName="fill" to="#808080" begin="zoomplus.mouseover" end="zoomplus.mouseout"/></use>
    <path d="M-4,0h8M0,-4v8" fill="none" stroke="white" stroke-width="1.5" pointer-events="none"/>
  </g>
  <g id="zoomMin">
    <use xlink:href="#rim" fill="#404040"><set attributeName="fill" to="#808080" begin="zoomminus.mouseover" end="zoomminus.mouseout"/></use>
    <path d="M-4,0h8" fill="none" stroke="white" stroke-width="1.5" pointer-events="none"/>
  </g>
  <g id="arrowUp" transform="translate(30 24)">
    <use xlink:href="#rim"/>
    <path pointer-events="none" fill="none" stroke="white" stroke-width="1.5" d="M0,-3.0v7 M-2.5,-0.5L0,-3.0L2.5,-0.5"/>
  </g>
  <g id="arrowRight" transform="rotate(90) translate(36 -43)">
    <use xlink:href="#rim"/>
    <path pointer-events="none" fill="none" stroke="white" stroke-width="1.5" d="M0,-3.0v7 M-2.5,-0.5L0,-3.0L2.5,-0.5"/>
  </g>
  <g id="arrowDown" transform="rotate(180) translate(-30 -48)">
    <use xlink:href="#rim"/>
    <path pointer-events="none" fill="none" stroke="white" stroke-width="1.5" d="M0,-3.0v7 M-2.5,-0.5L0,-3.0L2.5,-0.5"/>
  </g>
  <g id="arrowLeft" transform="rotate(270) translate(-36 17)">
    <use xlink:href="#rim"/>
    <path pointer-events="none" fill="none" stroke="white" stroke-width="1.5" d="M0,-3.0v7 M-2.5,-0.5L0,-3.0L2.5,-0.5"/>
  </g>
  <g id="resetDef">
    <use xlink:href="#rim2" fill="#404040"><set attributeName="fill" to="#808080" begin="reset.mouseover" end="reset.mouseout"/></use>
  </g>
</defs>
<script type="application/ecmascript">
var viewWidth = 1231;
var viewHeight = 500;
var sectionId = 'dynsection-1';
</script>
<script type="application/ecmascript" xlink:href="svg.min.js"/>
<svg id="graph" class="graph">
<g id="viewport">
<title>ComputeTask</title>
<!-- Node1 -->
<g id="Node000001" class="node">
<title>Node1</title>
<g id="a_Node000001"><a xlink:title=" ">
<polygon fill="#999999" stroke="#666666" points="1223,-145 1140,-145 1140,-126 1223,-126 1223,-145"/>
<text text-anchor="middle" x="1181.5" y="-133" font-family="Helvetica,sans-Serif" font-size="10.00">ComputeTask</text>
</a>
</g>
</g>
<!-- Node2 -->
<g id="Node000002" class="node">
<title>Node2</title>
<g id="a_Node000002"><a xlink:href="classTask.html" target="_top" xlink:title=" ">
<polygon fill="white" stroke="#666666" points="1103,-145 1065,-145 1065,-126 1103,-126 1103,-145"/>
<text text-anchor="middle" x="1084" y="-133" font-family="Helvetica,sans-Serif" font-size="10.00">Task</text>
</a>
</g>
</g>
<!-- Node2&#45;&gt;Node1 -->
<g id="edge1_Node000001_Node000002" class="edge">
<title>Node2&#45;&gt;Node1</title>
<g id="a_edge1_Node000001_Node000002"><a xlink:title=" ">
<path fill="none" stroke="#63b8ff" d="M1113.67,-135.5C1121.95,-135.5 1131.14,-135.5 1140,-135.5"/>
<polygon fill="#63b8ff" stroke="#63b8ff" points="1113.41,-132 1103.41,-135.5 1113.41,-139 1113.41,-132"/>
</a>
</g>
</g>
<!-- Node3 -->
<g id="Node000003" class="node">
<title>Node3</title>
<g id="a_Node000003"><a xlink:href="structdevice__s.html" target="_top" xlink:title=" ">
<polygon fill="white" stroke="#666666" points="993,-212 934,-212 934,-193 993,-193 993,-212"/>
<text text-anchor="middle" x="963.5" y="-200" font-family="Helvetica,sans-Serif" font-size="10.00">device_s</text>
</a>
</g>
</g>
<!-- Node3&#45;&gt;Node2 -->
<g id="edge2_Node000002_Node000003" class="edge">
<title>Node3&#45;&gt;Node2</title>
<g id="a_edge2_Node000002_Node000003"><a xlink:title=" ">
<path fill="none" stroke="#9a32cd" stroke-dasharray="5,2" d="M990.35,-187.88C1013.33,-174.89 1046.27,-156.27 1066.05,-145.08"/>
<polygon fill="#9a32cd" stroke="#9a32cd" points="988.46,-184.93 981.48,-192.9 991.91,-191.03 988.46,-184.93"/>
</a>
</g>
<text text-anchor="middle" x="1029" y="-178.5" font-family="Helvetica,sans-Serif" font-size="10.00" fill="grey"> device</text>
</g>
<!-- Node4 -->
<g id="Node000004" class="node">
<title>Node4</title>
<g id="a_Node000004"><a xlink:href="structAcMeshInfo.html" target="_top" xlink:title=" ">
<polygon fill="white" stroke="#666666" points="800,-437 726,-437 726,-418 800,-418 800,-437"/>
<text text-anchor="middle" x="763" y="-425" font-family="Helvetica,sans-Serif" font-size="10.00">AcMeshInfo</text>
</a>
</g>
</g>
<!-- Node4&#45;&gt;Node3 -->
<g id="edge3_Node000003_Node000004" class="edge">
<title>Node4&#45;&gt;Node3</title>
<g id="a_edge3_Node000003_Node000004"><a xlink:title=" ">
<path fill="none" stroke="#9a32cd" stroke-dasharray="5,2" d="M779.33,-410.12C818.89,-365.28 923.45,-246.76 954,-212.13"/>
<polygon fill="#9a32cd" stroke="#9a32cd" points="776.52,-408.02 772.53,-417.83 781.77,-412.65 776.52,-408.02"/>
</a>
</g>
<text text-anchor="middle" x="880" y="-337.5" font-family="Helvetica,sans-Serif" font-size="10.00" fill="grey"> local_config</text>
</g>
<!-- Node5 -->
<g id="Node000005" class="node">
<title>Node5</title>
<g id="a_Node000005"><a xlink:href="structAcMeshInfoLoaded.html" target="_top" xlink:title=" ">
<polygon fill="white" stroke="#666666" points="538,-492 429,-492 429,-473 538,-473 538,-492"/>
<text text-anchor="middle" x="483.5" y="-480" font-family="Helvetica,sans-Serif" font-size="10.00">AcMeshInfoLoaded</text>
</a>
</g>
</g>
<!-- Node5&#45;&gt;Node4 -->
<g id="edge4_Node000004_Node000005" class="edge">
<title>Node5&#45;&gt;Node4</title>
<g id="a_edge4_Node000004_Node000005"><a xlink:title=" ">
<path fill="none" stroke="#9a32cd" stroke-dasharray="5,2" d="M548.38,-476.47C587.33,-472.05 637.92,-464.97 682,-454.5 700.97,-450 721.82,-442.88 737.48,-437.09"/>
<polygon fill="#9a32cd" stroke="#9a32cd" points="547.78,-473.01 538.23,-477.59 548.55,-479.97 547.78,-473.01"/>
</a>
</g>
<text text-anchor="middle" x="626" y="-476.5" font-family="Helvetica,sans-Serif" font-size="10.00" fill="grey"> is_loaded</text>
</g>
<!-- Node6 -->
<g id="Node000006" class="node">
<title>Node6</title>
<g id="a_Node000006"><a xlink:href="structAcCommunicator.html" target="_top" xlink:title=" ">
<polygon fill="white" stroke="#666666" points="534,-455 433,-455 433,-436 534,-436 534,-455"/>
<text text-anchor="middle" x="483.5" y="-443" font-family="Helvetica,sans-Serif" font-size="10.00">AcCommunicator</text>
</a>
</g>
</g>
<!-- Node6&#45;&gt;Node4 -->
<g id="edge5_Node000004_Node000006" class="edge">
<title>Node6&#45;&gt;Node4</title>
<g id="a_edge5_Node000004_Node000006"><a xlink:title=" ">
<path fill="none" stroke="#9a32cd" stroke-dasharray="5,2" d="M544.1,-441.63C599.26,-438.06 679.49,-432.85 725.64,-429.86"/>
<polygon fill="#9a32cd" stroke="#9a32cd" points="543.86,-438.14 534.11,-442.28 544.32,-445.13 543.86,-438.14"/>
</a>
</g>
<text text-anchor="middle" x="626" y="-442.5" font-family="Helvetica,sans-Serif" font-size="10.00" fill="grey"> comm</text>
</g>
<!-- Node7 -->
<g id="Node000007" class="node">
<title>Node7</title>
<g id="a_Node000007"><a xlink:href="structAcCompInfo.html" target="_top" xlink:title=" ">
<polygon fill="white" stroke="#666666" points="521.5,-418 445.5,-418 445.5,-399 521.5,-399 521.5,-418"/>
<text text-anchor="middle" x="483.5" y="-406" font-family="Helvetica,sans-Serif" font-size="10.00">AcCompInfo</text>
</a>
</g>
</g>
<!-- Node7&#45;&gt;Node4 -->
<g id="edge6_Node000004_Node000007" class="edge">
<title>Node7&#45;&gt;Node4</title>
<g id="a_edge6_Node000004_Node000007"><a xlink:title=" ">
<path fill="none" stroke="#9a32cd" stroke-dasharray="5,2" d="M531.7,-409.61C571.75,-410.79 630.72,-413.13 682,-417.5 696.36,-418.72 712.12,-420.58 725.82,-422.36"/>
<polygon fill="#9a32cd" stroke="#9a32cd" points="531.78,-406.11 521.69,-409.32 531.58,-413.1 531.78,-406.11"/>
</a>
</g>
<text text-anchor="middle" x="626" y="-420.5" font-family="Helvetica,sans-Serif" font-size="10.00" fill="grey"> run_consts</text>
</g>
<!-- Node8 -->
<g id="Node000008" class="node">
<title>Node8</title>
<g id="a_Node000008"><a xlink:href="structAcCompInfoConfig.html" target="_top" xlink:title=" ">
<polygon fill="white" stroke="#666666" points="260.5,-436 153.5,-436 153.5,-417 260.5,-417 260.5,-436"/>
<text text-anchor="middle" x="207" y="-424" font-family="Helvetica,sans-Serif" font-size="10.00">AcCompInfoConfig</text>
</a>
</g>
</g>
<!-- Node8&#45;&gt;Node7 -->
<g id="edge7_Node000007_Node000008" class="edge">
<title>Node8&#45;&gt;Node7</title>
<g id="a_edge7_Node000007_Node000008"><a xlink:title=" ">
<path fill="none" stroke="#9a32cd" stroke-dasharray="5,2" d="M270.75,-422.39C324.7,-418.85 400.7,-413.86 445.46,-410.93"/>
<polygon fill="#9a32cd" stroke="#9a32cd" points="270.35,-418.9 260.6,-423.05 270.81,-425.89 270.35,-418.9"/>
</a>
</g>
<text text-anchor="middle" x="350.5" y="-422.5" font-family="Helvetica,sans-Serif" font-size="10.00" fill="grey"> config</text>
</g>
<!-- Node9 -->
<g id="Node000009" class="node">
<title>Node9</title>
<g id="a_Node000009"><a xlink:href="structAcCompInfoLoaded.html" target="_top" xlink:title=" ">
<polygon fill="white" stroke="#666666" points="262.5,-399 151.5,-399 151.5,-380 262.5,-380 262.5,-399"/>
<text text-anchor="middle" x="207" y="-387" font-family="Helvetica,sans-Serif" font-size="10.00">AcCompInfoLoaded</text>
</a>
</g>
</g>
<!-- Node9&#45;&gt;Node7 -->
<g id="edge8_Node000007_Node000009" class="edge">
<title>Node9&#45;&gt;Node7</title>
<g id="a_edge8_Node000007_Node000009"><a xlink:title=" ">
<path fill="none" stroke="#9a32cd" stroke-dasharray="5,2" d="M272.68,-391.48C309.22,-392.87 355.7,-395.11 397,-398.5 412.79,-399.8 430.16,-401.74 445.1,-403.56"/>
<polygon fill="#9a32cd" stroke="#9a32cd" points="272.77,-387.98 262.65,-391.11 272.51,-394.97 272.77,-387.98"/>
</a>
</g>
<text text-anchor="middle" x="350.5" y="-401.5" font-family="Helvetica,sans-Serif" font-size="10.00" fill="grey"> is_loaded</text>
</g>
<!-- Node10 -->
<g id="Node000010" class="node">
<title>Node10</title>
<g id="a_Node000010"><a xlink:href="structAcCompInfoHasDefaultValue.html" target="_top" xlink:title=" ">
<polygon fill="white" stroke="#666666" points="286,-473 128,-473 128,-454 286,-454 286,-473"/>
<text text-anchor="middle" x="207" y="-461" font-family="Helvetica,sans-Serif" font-size="10.00">AcCompInfoHasDefaultValue</text>
</a>
</g>
</g>
<!-- Node10&#45;&gt;Node7 -->
<g id="edge9_Node000007_Node000010" class="edge">
<title>Node10&#45;&gt;Node7</title>
<g id="a_edge9_Node000007_Node000010"><a xlink:title=" ">
<path fill="none" stroke="#9a32cd" stroke-dasharray="5,2" d="M296.28,-454.02C328.32,-449.52 364.59,-443.18 397,-434.5 405.29,-432.28 406.86,-430.22 415,-427.5 425.05,-424.14 436.06,-420.87 446.22,-418.02"/>
<polygon fill="#9a32cd" stroke="#9a32cd" points="295.47,-450.6 286.03,-455.42 296.42,-457.54 295.47,-450.6"/>
</a>
</g>
<text text-anchor="middle" x="350.5" y="-455.5" font-family="Helvetica,sans-Serif" font-size="10.00" fill="grey"> has_default_value</text>
</g>
<!-- Node11 -->
<g id="Node000011" class="node">
<title>Node11</title>
<g id="a_Node000011"><a xlink:href="structAcInputs.html" target="_top" xlink:title=" ">
<polygon fill="white" stroke="#666666" points="792.5,-249 733.5,-249 733.5,-230 792.5,-230 792.5,-249"/>
<text text-anchor="middle" x="763" y="-237" font-family="Helvetica,sans-Serif" font-size="10.00">AcInputs</text>
</a>
</g>
</g>
<!-- Node11&#45;&gt;Node3 -->
<g id="edge10_Node000003_Node000011" class="edge">
<title>Node11&#45;&gt;Node3</title>
<g id="a_edge10_Node000003_Node000011"><a xlink:title=" ">
<path fill="none" stroke="#9a32cd" stroke-dasharray="5,2" d="M802.5,-235.74C833.43,-232.29 877.84,-226.35 916,-217.5 922.45,-216.01 929.28,-214.03 935.67,-212"/>
<polygon fill="#9a32cd" stroke="#9a32cd" points="802.12,-232.26 792.56,-236.82 802.88,-239.22 802.12,-232.26"/>
</a>
</g>
<text text-anchor="middle" x="880" y="-232.5" font-family="Helvetica,sans-Serif" font-size="10.00" fill="grey"> input</text>
</g>
<!-- Node12 -->
<g id="Node000012" class="node">
<title>Node12</title>
<g id="a_Node000012"><a xlink:href="structVertexBufferArray.html" target="_top" xlink:title=" ">
<polygon fill="white" stroke="#666666" points="815,-166 711,-166 711,-147 815,-147 815,-166"/>
<text text-anchor="middle" x="763" y="-154" font-family="Helvetica,sans-Serif" font-size="10.00">VertexBufferArray</text>
</a>
</g>
</g>
<!-- Node12&#45;&gt;Node2 -->
<g id="edge23_Node000002_Node000012" class="edge">
<title>Node12&#45;&gt;Node2</title>
<g id="a_edge23_Node000002_Node000012"><a xlink:title=" ">
<path fill="none" stroke="#9a32cd" stroke-dasharray="5,2" d="M825.39,-152.46C899.47,-147.58 1019.73,-139.67 1065,-136.69"/>
<polygon fill="#9a32cd" stroke="#9a32cd" points="825,-148.98 815.25,-153.13 825.46,-155.96 825,-148.98"/>
</a>
</g>
<text text-anchor="middle" x="963.5" y="-148.5" font-family="Helvetica,sans-Serif" font-size="10.00" fill="grey"> vba</text>
</g>
<!-- Node12&#45;&gt;Node3 -->
<g id="edge11_Node000003_Node000012" class="edge">
<title>Node12&#45;&gt;Node3</title>
<g id="a_edge11_Node000003_Node000012"><a xlink:title=" ">
<path fill="none" stroke="#9a32cd" stroke-dasharray="5,2" d="M825.33,-167.4C853.17,-172.76 886.42,-179.74 916,-187.5 922.07,-189.09 928.52,-191.02 934.62,-192.95"/>
<polygon fill="#9a32cd" stroke="#9a32cd" points="825.82,-163.93 815.34,-165.5 824.51,-170.81 825.82,-163.93"/>
</a>
</g>
<text text-anchor="middle" x="880" y="-190.5" font-family="Helvetica,sans-Serif" font-size="10.00" fill="grey"> vba</text>
</g>
<!-- Node13 -->
<g id="Node000013" class="node">
<title>Node13</title>
<g id="a_Node000013"><a xlink:href="structAcMeshDims.html" target="_top" xlink:title=" ">
<polygon fill="white" stroke="#666666" points="523.5,-267 443.5,-267 443.5,-248 523.5,-248 523.5,-267"/>
<text text-anchor="middle" x="483.5" y="-255" font-family="Helvetica,sans-Serif" font-size="10.00">AcMeshDims</text>
</a>
</g>
</g>
<!-- Node13&#45;&gt;Node12 -->
<g id="edge12_Node000012_Node000013" class="edge">
<title>Node13&#45;&gt;Node12</title>
<g id="a_edge12_Node000012_Node000013"><a xlink:title=" ">
<path fill="none" stroke="#9a32cd" stroke-dasharray="5,2" d="M526.03,-244.89C566.29,-232.38 628.87,-212.13 682,-191.5 690.16,-188.33 691.99,-187.03 700,-183.5 713.22,-177.68 728.05,-171.22 739.89,-166.08"/>
<polygon fill="#9a32cd" stroke="#9a32cd" points="524.82,-241.6 516.3,-247.9 526.89,-248.29 524.82,-241.6"/>
</a>
</g>
<text text-anchor="middle" x="626" y="-255.5" font-family="Helvetica,sans-Serif" font-size="10.00" fill="grey"> computational_dims</text>
<text text-anchor="middle" x="626" y="-244.5" font-family="Helvetica,sans-Serif" font-size="10.00" fill="grey">dims</text>
<text text-anchor="middle" x="626" y="-233.5" font-family="Helvetica,sans-Serif" font-size="10.00" fill="grey">profile_dims</text>
</g>
<!-- Node14 -->
<g id="Node000014" class="node">
<title>Node14</title>
<g id="a_Node000014"><a xlink:href="structVolume.html" target="_top" xlink:title=" ">
<polygon fill="white" stroke="#666666" points="233.5,-302 180.5,-302 180.5,-283 233.5,-283 233.5,-302"/>
<text text-anchor="middle" x="207" y="-290" font-family="Helvetica,sans-Serif" font-size="10.00">Volume</text>
</a>
</g>
</g>
<!-- Node14&#45;&gt;Node13 -->
<g id="edge13_Node000013_Node000014" class="edge">
<title>Node14&#45;&gt;Node13</title>
<g id="a_edge13_Node000013_Node000014"><a xlink:title=" ">
<path fill="none" stroke="#9a32cd" stroke-dasharray="5,2" d="M243.76,-288.35C281.79,-283.88 343.67,-276.49 397,-269.5 412.16,-267.51 428.81,-265.21 443.36,-263.15"/>
<polygon fill="#9a32cd" stroke="#9a32cd" points="243.22,-284.89 233.7,-289.52 244.04,-291.84 243.22,-284.89"/>
</a>
</g>
<text text-anchor="middle" x="350.5" y="-349.5" font-family="Helvetica,sans-Serif" font-size="10.00" fill="grey"> m0</text>
<text text-anchor="middle" x="350.5" y="-338.5" font-family="Helvetica,sans-Serif" font-size="10.00" fill="grey">m1</text>
<text text-anchor="middle" x="350.5" y="-327.5" font-family="Helvetica,sans-Serif" font-size="10.00" fill="grey">n0</text>
<text text-anchor="middle" x="350.5" y="-316.5" font-family="Helvetica,sans-Serif" font-size="10.00" fill="grey">n1</text>
<text text-anchor="middle" x="350.5" y="-305.5" font-family="Helvetica,sans-Serif" font-size="10.00" fill="grey">nn</text>
<text text-anchor="start" x="327.5" y="-294.5" font-family="Helvetica,sans-Serif" font-size="10.00" fill="grey">reduction</text>
<text text-anchor="middle" x="350.5" y="-283.5" font-family="Helvetica,sans-Serif" font-size="10.00" fill="grey">_tile</text>
</g>
<!-- Node24 -->
<g id="Node000024" class="node">
<title>Node24</title>
<g id="a_Node000024"><a xlink:href="structRegion.html" target="_top" xlink:title=" ">
<polygon fill="white" stroke="#666666" points="508.5,-69 458.5,-69 458.5,-50 508.5,-50 508.5,-69"/>
<text text-anchor="middle" x="483.5" y="-57" font-family="Helvetica,sans-Serif" font-size="10.00">Region</text>
</a>
</g>
</g>
<!-- Node14&#45;&gt;Node24 -->
<g id="edge25_Node000024_Node000014" class="edge">
<title>Node14&#45;&gt;Node24</title>
<g id="a_edge25_Node000024_Node000014"><a xlink:title=" ">
<path fill="none" stroke="#9a32cd" stroke-dasharray="5,2" d="M243.57,-292.43C258.56,-290.55 275.03,-285.72 286,-274.5 313.6,-246.26 276.04,-215.39 304,-187.5 333.87,-157.71 366.71,-197.86 397,-168.5 421.92,-144.34 393.33,-119.61 415,-92.5 425.83,-78.95 443.63,-70.57 458.23,-65.65"/>
<polygon fill="#9a32cd" stroke="#9a32cd" points="243.18,-288.96 233.52,-293.31 243.79,-295.93 243.18,-288.96"/>
</a>
</g>
<text text-anchor="middle" x="350.5" y="-223.5" font-family="Helvetica,sans-Serif" font-size="10.00" fill="grey"> comp_dims</text>
<text text-anchor="middle" x="350.5" y="-212.5" font-family="Helvetica,sans-Serif" font-size="10.00" fill="grey">dims</text>
<text text-anchor="middle" x="350.5" y="-201.5" font-family="Helvetica,sans-Serif" font-size="10.00" fill="grey">halo</text>
<text text-anchor="middle" x="350.5" y="-190.5" font-family="Helvetica,sans-Serif" font-size="10.00" fill="grey">position</text>
</g>
<!-- Node15 -->
<g id="Node000015" class="node">
<title>Node15</title>
<g id="a_Node000015"><a xlink:href="structDeviceVertexBufferArray.html" target="_top" xlink:title=" ">
<polygon fill="white" stroke="#666666" points="552,-195 415,-195 415,-176 552,-176 552,-195"/>
<text text-anchor="middle" x="483.5" y="-183" font-family="Helvetica,sans-Serif" font-size="10.00">DeviceVertexBufferArray</text>
</a>
</g>
</g>
<!-- Node15&#45;&gt;Node12 -->
<g id="edge14_Node000012_Node000015" class="edge">
<title>Node15&#45;&gt;Node12</title>
<g id="a_edge14_Node000012_Node000015"><a xlink:title=" ">
<path fill="none" stroke="#9a32cd" stroke-dasharray="5,2" d="M561.98,-177.4C609.52,-172.43 669.07,-166.21 710.78,-161.85"/>
<polygon fill="#9a32cd" stroke="#9a32cd" points="561.61,-173.92 552.03,-178.44 562.34,-180.88 561.61,-173.92"/>
</a>
</g>
<text text-anchor="middle" x="626" y="-179.5" font-family="Helvetica,sans-Serif" font-size="10.00" fill="grey"> on_device</text>
</g>
<!-- Node16 -->
<g id="Node000016" class="node">
<title>Node16</title>
<g id="a_Node000016"><a xlink:href="structAcComplex.html" target="_top" xlink:title=" ">
<polygon fill="white" stroke="#666666" points="243,-265 171,-265 171,-246 243,-246 243,-265"/>
<text text-anchor="middle" x="207" y="-253" font-family="Helvetica,sans-Serif" font-size="10.00">AcComplex</text>
</a>
</g>
</g>
<!-- Node16&#45;&gt;Node15 -->
<g id="edge15_Node000015_Node000016" class="edge">
<title>Node16&#45;&gt;Node15</title>
<g id="a_edge15_Node000015_Node000016"><a xlink:title=" ">
<path fill="none" stroke="#9a32cd" stroke-dasharray="5,2" d="M253.55,-256.01C292.55,-255.2 349.72,-251.03 397,-235.5 425.1,-226.27 454.04,-206.87 470,-195.14"/>
<polygon fill="#9a32cd" stroke="#9a32cd" points="253.01,-252.52 243.06,-256.15 253.11,-259.52 253.01,-252.52"/>
</a>
</g>
<text text-anchor="middle" x="350.5" y="-255.5" font-family="Helvetica,sans-Serif" font-size="10.00" fill="grey"> complex_in</text>
</g>
<!-- Node17 -->
<g id="Node000017" class="node">
<title>Node17</title>
<g id="a_Node000017"><a xlink:href="structProfileBufferArray.html" target="_top" xlink:title=" ">
<polygon fill="white" stroke="#666666" points="258.5,-166 155.5,-166 155.5,-147 258.5,-147 258.5,-166"/>
<text text-anchor="middle" x="207" y="-154" font-family="Helvetica,sans-Serif" font-size="10.00">ProfileBufferArray</text>
</a>
</g>
</g>
<!-- Node17&#45;&gt;Node15 -->
<g id="edge16_Node000015_Node000017" class="edge">
<title>Node17&#45;&gt;Node15</title>
<g id="a_edge16_Node000015_Node000017"><a xlink:title=" ">
<path fill="none" stroke="#9a32cd" stroke-dasharray="5,2" d="M269.13,-149.85C306.56,-147.49 355.14,-147.5 397,-157.5 405.7,-159.58 406.66,-163.27 415,-166.5 424.2,-170.06 434.33,-173.27 443.89,-175.99"/>
<polygon fill="#9a32cd" stroke="#9a32cd" points="268.61,-146.38 258.89,-150.57 269.11,-153.36 268.61,-146.38"/>
</a>
</g>
<text text-anchor="middle" x="350.5" y="-160.5" font-family="Helvetica,sans-Serif" font-size="10.00" fill="grey"> profiles</text>
</g>
<!-- Node18 -->
<g id="Node000018" class="node">
<title>Node18</title>
<g id="a_Node000018"><a xlink:href="structint3.html" target="_top" xlink:title=" ">
<polygon fill="white" stroke="#666666" points="224.5,-70 189.5,-70 189.5,-51 224.5,-51 224.5,-70"/>
<text text-anchor="middle" x="207" y="-58" font-family="Helvetica,sans-Serif" font-size="10.00">int3</text>
</a>
</g>
</g>
<!-- Node18&#45;&gt;Node15 -->
<g id="edge17_Node000015_Node000018" class="edge">
<title>Node18&#45;&gt;Node15</title>
<g id="a_edge17_Node000015_Node000018"><a xlink:title=" ">
<path fill="none" stroke="#9a32cd" stroke-dasharray="5,2" d="M234.94,-57.37C275.6,-54.25 352.6,-54.83 397,-96.5 420.42,-118.48 392.54,-143.53 415,-166.5 418.74,-170.33 423.2,-173.41 428,-175.87"/>
<polygon fill="#9a32cd" stroke="#9a32cd" points="234.37,-53.91 224.73,-58.29 235,-60.88 234.37,-53.91"/>
</a>
</g>
<text text-anchor="middle" x="350.5" y="-99.5" font-family="Helvetica,sans-Serif" font-size="10.00" fill="grey"> block_factor</text>
</g>
<!-- Node18&#45;&gt;Node24 -->
<g id="edge26_Node000024_Node000018" class="edge">
<title>Node18&#45;&gt;Node24</title>
<g id="a_edge26_Node000024_Node000018"><a xlink:title=" ">
<path fill="none" stroke="#9a32cd" stroke-dasharray="5,2" d="M234.38,-54.9C253.58,-51.11 280.27,-46.46 304,-44.5 345.19,-41.09 355.82,-40.92 397,-44.5 417.87,-46.32 441.28,-50.58 458.32,-54.1"/>
<polygon fill="#9a32cd" stroke="#9a32cd" points="233.65,-51.47 224.54,-56.89 235.04,-58.33 233.65,-51.47"/>
</a>
</g>
<text text-anchor="middle" x="350.5" y="-47.5" font-family="Helvetica,sans-Serif" font-size="10.00" fill="grey"> id</text>
</g>
<!-- Node19 -->
<g id="Node000019" class="node">
<title>Node19</title>
<g id="a_Node000019"><a xlink:href="structAcScratchpadStates.html" target="_top" xlink:title=" ">
<polygon fill="white" stroke="#666666" points="540,-158 427,-158 427,-139 540,-139 540,-158"/>
<text text-anchor="middle" x="483.5" y="-146" font-family="Helvetica,sans-Serif" font-size="10.00">AcScratchpadStates</text>
</a>
</g>
</g>
<!-- Node19&#45;&gt;Node12 -->
<g id="edge18_Node000012_Node000019" class="edge">
<title>Node19&#45;&gt;Node12</title>
<g id="a_edge18_Node000012_Node000019"><a xlink:title=" ">
<path fill="none" stroke="#9a32cd" stroke-dasharray="5,2" d="M550.3,-148.72C588.72,-149.05 638.12,-149.8 682,-151.5 691.32,-151.86 701.24,-152.38 710.81,-152.94"/>
<polygon fill="#9a32cd" stroke="#9a32cd" points="550.31,-145.22 540.28,-148.65 550.25,-152.22 550.31,-145.22"/>
</a>
</g>
<text text-anchor="middle" x="626" y="-154.5" font-family="Helvetica,sans-Serif" font-size="10.00" fill="grey"> scratchpad_states</text>
</g>
<!-- Node20 -->
<g id="Node000020" class="node">
<title>Node20</title>
<g id="a_Node000020"><a xlink:href="structAcReduceBuffer.html" target="_top" xlink:title=" ">
<polygon fill="white" stroke="#666666" points="530.5,-121 436.5,-121 436.5,-102 530.5,-102 530.5,-121"/>
<text text-anchor="middle" x="483.5" y="-109" font-family="Helvetica,sans-Serif" font-size="10.00">AcReduceBuffer</text>
</a>
</g>
</g>
<!-- Node20&#45;&gt;Node12 -->
<g id="edge19_Node000012_Node000020" class="edge">
<title>Node20&#45;&gt;Node12</title>
<g id="a_edge19_Node000012_Node000020"><a xlink:title=" ">
<path fill="none" stroke="#9a32cd" stroke-dasharray="5,2" d="M540.72,-115.75C580.43,-119.31 634.78,-125.31 682,-134.5 698.54,-137.72 716.67,-142.59 731.49,-146.93"/>
<polygon fill="#9a32cd" stroke="#9a32cd" points="540.97,-112.26 530.7,-114.88 540.36,-119.23 540.97,-112.26"/>
</a>
</g>
<text text-anchor="middle" x="626" y="-137.5" font-family="Helvetica,sans-Serif" font-size="10.00" fill="grey"> profile_reduce_buffers</text>
</g>
<!-- Node21 -->
<g id="Node000021" class="node">
<title>Node21</title>
<g id="a_Node000021"><a xlink:href="structAcBuffer.html" target="_top" xlink:title=" ">
<polygon fill="white" stroke="#666666" points="236,-121 178,-121 178,-102 236,-102 236,-121"/>
<text text-anchor="middle" x="207" y="-109" font-family="Helvetica,sans-Serif" font-size="10.00">AcBuffer</text>
</a>
</g>
</g>
<!-- Node21&#45;&gt;Node20 -->
<g id="edge20_Node000020_Node000021" class="edge">
<title>Node21&#45;&gt;Node20</title>
<g id="a_edge20_Node000020_Node000021"><a xlink:title=" ">
<path fill="none" stroke="#9a32cd" stroke-dasharray="5,2" d="M246.12,-111.5C295.93,-111.5 383.08,-111.5 436.5,-111.5"/>
<polygon fill="#9a32cd" stroke="#9a32cd" points="246.09,-108 236.09,-111.5 246.09,-115 246.09,-108"/>
</a>
</g>
<text text-anchor="middle" x="350.5" y="-125.5" font-family="Helvetica,sans-Serif" font-size="10.00" fill="grey"> src</text>
<text text-anchor="middle" x="350.5" y="-114.5" font-family="Helvetica,sans-Serif" font-size="10.00" fill="grey">transposed</text>
</g>
<!-- Node22 -->
<g id="Node000022" class="node">
<title>Node22</title>
<g id="a_Node000022"><a xlink:href="structAcShape.html" target="_top" xlink:title=" ">
<polygon fill="white" stroke="#666666" points="59,-121 0,-121 0,-102 59,-102 59,-121"/>
<text text-anchor="middle" x="29.5" y="-109" font-family="Helvetica,sans-Serif" font-size="10.00">AcShape</text>
</a>
</g>
</g>
<!-- Node22&#45;&gt;Node21 -->
<g id="edge21_Node000021_Node000022" class="edge">
<title>Node22&#45;&gt;Node21</title>
<g id="a_edge21_Node000021_Node000022"><a xlink:title=" ">
<path fill="none" stroke="#9a32cd" stroke-dasharray="5,2" d="M69.23,-111.5C102.03,-111.5 148.29,-111.5 177.72,-111.5"/>
<polygon fill="#9a32cd" stroke="#9a32cd" points="69.09,-108 59.09,-111.5 69.09,-115 69.09,-108"/>
</a>
</g>
<text text-anchor="middle" x="93.5" y="-114.5" font-family="Helvetica,sans-Serif" font-size="10.00" fill="grey"> shape</text>
</g>
<!-- Node23 -->
<g id="Node000023" class="node">
<title>Node23</title>
<g id="a_Node000023"><a xlink:href="structAcDeviceKernelOutput.html" target="_top" xlink:title=" ">
<polygon fill="white" stroke="#666666" points="826,-212 700,-212 700,-193 826,-193 826,-212"/>
<text text-anchor="middle" x="763" y="-200" font-family="Helvetica,sans-Serif" font-size="10.00">AcDeviceKernelOutput</text>
</a>
</g>
</g>
<!-- Node23&#45;&gt;Node3 -->
<g id="edge22_Node000003_Node000023" class="edge">
<title>Node23&#45;&gt;Node3</title>
<g id="a_edge22_Node000003_Node000023"><a xlink:title=" ">
<path fill="none" stroke="#9a32cd" stroke-dasharray="5,2" d="M836.58,-202.5C870.35,-202.5 908.57,-202.5 933.95,-202.5"/>
<polygon fill="#9a32cd" stroke="#9a32cd" points="836.26,-199 826.26,-202.5 836.26,-206 836.26,-199"/>
</a>
</g>
<text text-anchor="middle" x="880" y="-205.5" font-family="Helvetica,sans-Serif" font-size="10.00" fill="grey"> output</text>
</g>
<!-- Node24&#45;&gt;Node2 -->
<g id="edge24_Node000002_Node000024" class="edge">
<title>Node24&#45;&gt;Node2</title>
<g id="a_edge24_Node000002_Node000024"><a xlink:title=" ">
<path fill="none" stroke="#9a32cd" stroke-dasharray="5,2" d="M518.74,-63.85C630.36,-78.02 981.33,-122.59 1064.97,-133.21"/>
<polygon fill="#9a32cd" stroke="#9a32cd" points="519.06,-60.36 508.7,-62.57 518.18,-67.31 519.06,-60.36"/>
</a>
</g>
<text text-anchor="middle" x="880" y="-128.5" font-family="Helvetica,sans-Serif" font-size="10.00" fill="grey"> launch_region</text>
<text text-anchor="middle" x="880" y="-117.5" font-family="Helvetica,sans-Serif" font-size="10.00" fill="grey">output_region</text>
</g>
<!-- Node25 -->
<g id="Node000025" class="node">
<title>Node25</title>
<g id="a_Node000025"><a xlink:href="structRegionMemory.html" target="_top" xlink:title=" ">
<polygon fill="white" stroke="#666666" points="252.5,-19 161.5,-19 161.5,0 252.5,0 252.5,-19"/>
<text text-anchor="middle" x="207" y="-7" font-family="Helvetica,sans-Serif" font-size="10.00">RegionMemory</text>
</a>
</g>
</g>
<!-- Node25&#45;&gt;Node24 -->
<g id="edge27_Node000024_Node000025" class="edge">
<title>Node25&#45;&gt;Node24</title>
<g id="a_edge27_Node000024_Node000025"><a xlink:title=" ">
<path fill="none" stroke="#9a32cd" stroke-dasharray="5,2" d="M263.18,-10.93C301.2,-12.85 352.67,-17.28 397,-27.5 419.7,-32.73 444.52,-42.51 461.55,-49.88"/>
<polygon fill="#9a32cd" stroke="#9a32cd" points="262.98,-7.42 252.83,-10.46 262.66,-14.41 262.98,-7.42"/>
</a>
</g>
<text text-anchor="middle" x="350.5" y="-30.5" font-family="Helvetica,sans-Serif" font-size="10.00" fill="grey"> memory</text>
</g>
</g>
</svg>

<g id="navigator" transform="translate(0 0)" fill="#404254">
  <rect fill="#f2f5e9" fill-opacity="0.5" stroke="#606060" stroke-width=".5" x="0" y="0" width="60" height="60"/>
  <use id="zoomplus" xlink:href="#zoomPlus" x="17" y="9" onmousedown="handleZoom(evt,'in')"/>
  <use id="zoomminus" xlink:href="#zoomMin" x="42" y="9" onmousedown="handleZoom(evt,'out')"/>
  <use id="reset" xlink:href="#resetDef" x="30" y="36" onmousedown="handleReset()"/>
   <use id="arrowup" xlink:href="#arrowUp" x="0" y="0" onmousedown="handlePan(0,-1)"/>
  <use id="arrowright" xlink:href="#arrowRight" x="0" y="0" onmousedown="handlePan(1,0)"/>
  <use id="arrowdown" xlink:href="#arrowDown" x="0" y="0" onmousedown="handlePan(0,1)"/>
  <use id="arrowleft" xlink:href="#arrowLeft" x="0" y="0" onmousedown="handlePan(-1,0)"/>
</g>
<svg viewBox="0 0 15 15" width="100%" height="30px" preserveAspectRatio="xMaxYMin meet">
 <g id="arrow_out" transform="scale(0.3 0.3)">
  <a xlink:href="classComputeTask__coll__graph_org.svg" target="_base">
   <rect id="button" ry="5" rx="5" y="6" x="6" height="38" width="38"
        fill="#f2f5e9" fill-opacity="0.5" stroke="#606060" stroke-width="1.0"/>
   <path id="arrow"
     d="M 11.500037,31.436501 C 11.940474,20.09759 22.043105,11.32322 32.158766,21.979434 L 37.068811,17.246167 C 37.068811,17.246167 37.088388,32 37.088388,32 L 22.160133,31.978069 C 22.160133,31.978069 26.997745,27.140456 26.997745,27.140456 C 18.528582,18.264221 13.291696,25.230495 11.500037,31.436501 z"
     style="fill:#404040;"/>
  </a>
 </g>
</svg>

<style type='text/css'>
<![CDATA[
[data-mouse-over-selected='false'] { opacity: 0.7; }
[data-mouse-over-selected='true']  { opacity: 1.0; }
]]>
</style>
<script type="application/ecmascript"><![CDATA[
document.addEventListener('DOMContentLoaded', (event) => {
  highlightEdges();
  highlightAdjacentNodes();
});
]]></script>
</svg>
