<?xml version="1.0" encoding="UTF-8" standalone="no"?>
<!DOCTYPE svg PUBLIC "-//W3C//DTD SVG 1.1//EN"
 "http://www.w3.org/Graphics/SVG/1.1/DTD/svg11.dtd">
<!-- Generated by graphviz version 2.43.0 (0)
 -->
<!-- Title: PeriodicRayTask Pages: 1 -->
<svg width="1244pt" height="447pt"
 viewBox="0.00 0.00 1244.00 447.00" xmlns="http://www.w3.org/2000/svg" xmlns:xlink="http://www.w3.org/1999/xlink">
<g id="graph0" class="graph" transform="scale(1 1) rotate(0) translate(4 443)">
<title>PeriodicRayTask</title>
<!-- Node1 -->
<g id="Node000001" class="node">
<title>Node1</title>
<g id="a_Node000001"><a xlink:title=" ">
<polygon fill="#999999" stroke="#666666" points="1236,-247 1140,-247 1140,-228 1236,-228 1236,-247"/>
<text text-anchor="middle" x="1188" y="-235" font-family="Helvetica,sans-Serif" font-size="10.00">PeriodicRayTask</text>
</a>
</g>
</g>
<!-- Node2 -->
<g id="Node000002" class="node">
<title>Node2</title>
<g id="a_Node000002"><a xlink:href="classTask.html" target="_top" xlink:title=" ">
<polygon fill="white" stroke="#666666" points="1103,-247 1065,-247 1065,-228 1103,-228 1103,-247"/>
<text text-anchor="middle" x="1084" y="-235" font-family="Helvetica,sans-Serif" font-size="10.00">Task</text>
</a>
</g>
</g>
<!-- Node2&#45;&gt;Node1 -->
<g id="edge1_Node000001_Node000002" class="edge">
<title>Node2&#45;&gt;Node1</title>
<g id="a_edge1_Node000001_Node000002"><a xlink:title=" ">
<path fill="none" stroke="#63b8ff" d="M1113.31,-237.5C1121.47,-237.5 1130.6,-237.5 1139.59,-237.5"/>
<polygon fill="#63b8ff" stroke="#63b8ff" points="1113.24,-234 1103.24,-237.5 1113.24,-241 1113.24,-234"/>
</a>
</g>
</g>
<!-- Node3 -->
<g id="Node000003" class="node">
<title>Node3</title>
<g id="a_Node000003"><a xlink:href="structdevice__s.html" target="_top" xlink:title=" ">
<polygon fill="white" stroke="#666666" points="993,-314 934,-314 934,-295 993,-295 993,-314"/>
<text text-anchor="middle" x="963.5" y="-302" font-family="Helvetica,sans-Serif" font-size="10.00">device_s</text>
</a>
</g>
</g>
<!-- Node3&#45;&gt;Node2 -->
<g id="edge2_Node000002_Node000003" class="edge">
<title>Node3&#45;&gt;Node2</title>
<g id="a_edge2_Node000002_Node000003"><a xlink:title=" ">
<path fill="none" stroke="#9a32cd" stroke-dasharray="5,2" d="M990.35,-289.88C1013.33,-276.89 1046.27,-258.27 1066.05,-247.08"/>
<polygon fill="#9a32cd" stroke="#9a32cd" points="988.46,-286.93 981.48,-294.9 991.91,-293.03 988.46,-286.93"/>
</a>
</g>
<text text-anchor="middle" x="1029" y="-280.5" font-family="Helvetica,sans-Serif" font-size="10.00" fill="grey"> device</text>
</g>
<!-- Node4 -->
<g id="Node000004" class="node">
<title>Node4</title>
<g id="a_Node000004"><a xlink:href="structAcMeshInfo.html" target="_top" xlink:title=" ">
<polygon fill="white" stroke="#666666" points="800,-351 726,-351 726,-332 800,-332 800,-351"/>
<text text-anchor="middle" x="763" y="-339" font-family="Helvetica,sans-Serif" font-size="10.00">AcMeshInfo</text>
</a>
</g>
</g>
<!-- Node4&#45;&gt;Node3 -->
<g id="edge3_Node000003_Node000004" class="edge">
<title>Node4&#45;&gt;Node3</title>
<g id="a_edge3_Node000003_Node000004"><a xlink:title=" ">
<path fill="none" stroke="#9a32cd" stroke-dasharray="5,2" d="M810.46,-336.21C840.72,-332.34 880.95,-326.39 916,-318.5 921.76,-317.2 927.84,-315.57 933.65,-313.88"/>
<polygon fill="#9a32cd" stroke="#9a32cd" points="809.69,-332.78 800.2,-337.49 810.56,-339.73 809.69,-332.78"/>
</a>
</g>
<text text-anchor="middle" x="880" y="-333.5" font-family="Helvetica,sans-Serif" font-size="10.00" fill="grey"> local_config</text>
</g>
<!-- Node5 -->
<g id="Node000005" class="node">
<title>Node5</title>
<g id="a_Node000005"><a xlink:href="structAcMeshInfoLoaded.html" target="_top" xlink:title=" ">
<polygon fill="white" stroke="#666666" points="538,-344 429,-344 429,-325 538,-325 538,-344"/>
<text text-anchor="middle" x="483.5" y="-332" font-family="Helvetica,sans-Serif" font-size="10.00">AcMeshInfoLoaded</text>
</a>
</g>
</g>
<!-- Node5&#45;&gt;Node4 -->
<g id="edge4_Node000004_Node000005" class="edge">
<title>Node5&#45;&gt;Node4</title>
<g id="a_edge4_Node000004_Node000005"><a xlink:title=" ">
<path fill="none" stroke="#9a32cd" stroke-dasharray="5,2" d="M548.24,-334.91C586.94,-335.29 637.32,-336.04 682,-337.5 696.32,-337.97 712.06,-338.71 725.77,-339.42"/>
<polygon fill="#9a32cd" stroke="#9a32cd" points="548.19,-331.41 538.16,-334.81 548.13,-338.41 548.19,-331.41"/>
</a>
</g>
<text text-anchor="middle" x="626" y="-340.5" font-family="Helvetica,sans-Serif" font-size="10.00" fill="grey"> is_loaded</text>
</g>
<!-- Node6 -->
<g id="Node000006" class="node">
<title>Node6</title>
<g id="a_Node000006"><a xlink:href="structAcCommunicator.html" target="_top" xlink:title=" ">
<polygon fill="white" stroke="#666666" points="534,-418 433,-418 433,-399 534,-399 534,-418"/>
<text text-anchor="middle" x="483.5" y="-406" font-family="Helvetica,sans-Serif" font-size="10.00">AcCommunicator</text>
</a>
</g>
</g>
<!-- Node6&#45;&gt;Node4 -->
<g id="edge5_Node000004_Node000006" class="edge">
<title>Node6&#45;&gt;Node4</title>
<g id="a_edge5_Node000004_Node000006"><a xlink:title=" ">
<path fill="none" stroke="#9a32cd" stroke-dasharray="5,2" d="M544.26,-407.47C584.84,-404.75 638.76,-397.05 682,-376.5 691.67,-371.91 690.67,-365.74 700,-360.5 707.95,-356.03 717.08,-352.49 725.84,-349.73"/>
<polygon fill="#9a32cd" stroke="#9a32cd" points="544.03,-403.98 534.25,-408.07 544.44,-410.97 544.03,-403.98"/>
</a>
</g>
<text text-anchor="middle" x="626" y="-407.5" font-family="Helvetica,sans-Serif" font-size="10.00" fill="grey"> comm</text>
</g>
<!-- Node7 -->
<g id="Node000007" class="node">
<title>Node7</title>
<g id="a_Node000007"><a xlink:href="structAcCompInfo.html" target="_top" xlink:title=" ">
<polygon fill="white" stroke="#666666" points="521.5,-381 445.5,-381 445.5,-362 521.5,-362 521.5,-381"/>
<text text-anchor="middle" x="483.5" y="-369" font-family="Helvetica,sans-Serif" font-size="10.00">AcCompInfo</text>
</a>
</g>
</g>
<!-- Node7&#45;&gt;Node4 -->
<g id="edge6_Node000004_Node000007" class="edge">
<title>Node7&#45;&gt;Node4</title>
<g id="a_edge6_Node000004_Node000007"><a xlink:title=" ">
<path fill="none" stroke="#9a32cd" stroke-dasharray="5,2" d="M531.82,-366.38C586.8,-360.44 676.32,-350.76 725.96,-345.4"/>
<polygon fill="#9a32cd" stroke="#9a32cd" points="531.2,-362.93 521.64,-367.49 531.96,-369.89 531.2,-362.93"/>
</a>
</g>
<text text-anchor="middle" x="626" y="-364.5" font-family="Helvetica,sans-Serif" font-size="10.00" fill="grey"> run_consts</text>
</g>
<!-- Node8 -->
<g id="Node000008" class="node">
<title>Node8</title>
<g id="a_Node000008"><a xlink:href="structAcCompInfoConfig.html" target="_top" xlink:title=" ">
<polygon fill="white" stroke="#666666" points="260.5,-439 153.5,-439 153.5,-420 260.5,-420 260.5,-439"/>
<text text-anchor="middle" x="207" y="-427" font-family="Helvetica,sans-Serif" font-size="10.00">AcCompInfoConfig</text>
</a>
</g>
</g>
<!-- Node8&#45;&gt;Node7 -->
<g id="edge7_Node000007_Node000008" class="edge">
<title>Node8&#45;&gt;Node7</title>
<g id="a_edge7_Node000007_Node000008"><a xlink:title=" ">
<path fill="none" stroke="#9a32cd" stroke-dasharray="5,2" d="M270.97,-424.38C308.27,-420.15 356.08,-412.63 397,-399.5 405.52,-396.77 406.66,-393.73 415,-390.5 424.65,-386.77 435.34,-383.42 445.3,-380.61"/>
<polygon fill="#9a32cd" stroke="#9a32cd" points="270.31,-420.93 260.74,-425.49 271.06,-427.89 270.31,-420.93"/>
</a>
</g>
<text text-anchor="middle" x="350.5" y="-422.5" font-family="Helvetica,sans-Serif" font-size="10.00" fill="grey"> config</text>
</g>
<!-- Node9 -->
<g id="Node000009" class="node">
<title>Node9</title>
<g id="a_Node000009"><a xlink:href="structAcCompInfoLoaded.html" target="_top" xlink:title=" ">
<polygon fill="white" stroke="#666666" points="262.5,-402 151.5,-402 151.5,-383 262.5,-383 262.5,-402"/>
<text text-anchor="middle" x="207" y="-390" font-family="Helvetica,sans-Serif" font-size="10.00">AcCompInfoLoaded</text>
</a>
</g>
</g>
<!-- Node9&#45;&gt;Node7 -->
<g id="edge8_Node000007_Node000009" class="edge">
<title>Node9&#45;&gt;Node7</title>
<g id="a_edge8_Node000007_Node000009"><a xlink:title=" ">
<path fill="none" stroke="#9a32cd" stroke-dasharray="5,2" d="M272.67,-387.55C326.39,-383.44 400.93,-377.74 445.19,-374.35"/>
<polygon fill="#9a32cd" stroke="#9a32cd" points="272.26,-384.07 262.56,-388.33 272.8,-391.05 272.26,-384.07"/>
</a>
</g>
<text text-anchor="middle" x="350.5" y="-387.5" font-family="Helvetica,sans-Serif" font-size="10.00" fill="grey"> is_loaded</text>
</g>
<!-- Node10 -->
<g id="Node000010" class="node">
<title>Node10</title>
<g id="a_Node000010"><a xlink:href="structAcCompInfoHasDefaultValue.html" target="_top" xlink:title=" ">
<polygon fill="white" stroke="#666666" points="286,-365 128,-365 128,-346 286,-346 286,-365"/>
<text text-anchor="middle" x="207" y="-353" font-family="Helvetica,sans-Serif" font-size="10.00">AcCompInfoHasDefaultValue</text>
</a>
</g>
</g>
<!-- Node10&#45;&gt;Node7 -->
<g id="edge9_Node000007_Node000010" class="edge">
<title>Node10&#45;&gt;Node7</title>
<g id="a_edge9_Node000007_Node000010"><a xlink:title=" ">
<path fill="none" stroke="#9a32cd" stroke-dasharray="5,2" d="M296.42,-355.21C328.18,-355.68 364.23,-356.86 397,-359.5 412.84,-360.77 430.22,-363.05 445.15,-365.28"/>
<polygon fill="#9a32cd" stroke="#9a32cd" points="296.31,-351.71 286.27,-355.08 296.22,-358.71 296.31,-351.71"/>
</a>
</g>
<text text-anchor="middle" x="350.5" y="-362.5" font-family="Helvetica,sans-Serif" font-size="10.00" fill="grey"> has_default_value</text>
</g>
<!-- Node11 -->
<g id="Node000011" class="node">
<title>Node11</title>
<g id="a_Node000011"><a xlink:href="structAcInputs.html" target="_top" xlink:title=" ">
<polygon fill="white" stroke="#666666" points="792.5,-314 733.5,-314 733.5,-295 792.5,-295 792.5,-314"/>
<text text-anchor="middle" x="763" y="-302" font-family="Helvetica,sans-Serif" font-size="10.00">AcInputs</text>
</a>
</g>
</g>
<!-- Node11&#45;&gt;Node3 -->
<g id="edge10_Node000003_Node000011" class="edge">
<title>Node11&#45;&gt;Node3</title>
<g id="a_edge10_Node000003_Node000011"><a xlink:title=" ">
<path fill="none" stroke="#9a32cd" stroke-dasharray="5,2" d="M803.18,-304.5C841.69,-304.5 899.56,-304.5 933.92,-304.5"/>
<polygon fill="#9a32cd" stroke="#9a32cd" points="802.86,-301 792.86,-304.5 802.86,-308 802.86,-301"/>
</a>
</g>
<text text-anchor="middle" x="880" y="-307.5" font-family="Helvetica,sans-Serif" font-size="10.00" fill="grey"> input</text>
</g>
<!-- Node12 -->
<g id="Node000012" class="node">
<title>Node12</title>
<g id="a_Node000012"><a xlink:href="structVertexBufferArray.html" target="_top" xlink:title=" ">
<polygon fill="white" stroke="#666666" points="815,-262 711,-262 711,-243 815,-243 815,-262"/>
<text text-anchor="middle" x="763" y="-250" font-family="Helvetica,sans-Serif" font-size="10.00">VertexBufferArray</text>
</a>
</g>
</g>
<!-- Node12&#45;&gt;Node2 -->
<g id="edge22_Node000002_Node000012" class="edge">
<title>Node12&#45;&gt;Node2</title>
<g id="a_edge22_Node000002_Node000012"><a xlink:title=" ">
<path fill="none" stroke="#9a32cd" stroke-dasharray="5,2" d="M825.39,-249.61C899.47,-246.13 1019.73,-240.48 1065,-238.35"/>
<polygon fill="#9a32cd" stroke="#9a32cd" points="825.08,-246.12 815.25,-250.09 825.41,-253.12 825.08,-246.12"/>
</a>
</g>
<text text-anchor="middle" x="963.5" y="-248.5" font-family="Helvetica,sans-Serif" font-size="10.00" fill="grey"> vba</text>
</g>
<!-- Node12&#45;&gt;Node3 -->
<g id="edge11_Node000003_Node000012" class="edge">
<title>Node12&#45;&gt;Node3</title>
<g id="a_edge11_Node000003_Node000012"><a xlink:title=" ">
<path fill="none" stroke="#9a32cd" stroke-dasharray="5,2" d="M816.84,-264.36C846.19,-271.2 883.27,-280.25 916,-289.5 921.88,-291.16 928.13,-293.07 934.07,-294.97"/>
<polygon fill="#9a32cd" stroke="#9a32cd" points="817.34,-260.88 806.81,-262.04 815.76,-267.7 817.34,-260.88"/>
</a>
</g>
<text text-anchor="middle" x="880" y="-292.5" font-family="Helvetica,sans-Serif" font-size="10.00" fill="grey"> vba</text>
</g>
<!-- Node13 -->
<g id="Node000013" class="node">
<title>Node13</title>
<g id="a_Node000013"><a xlink:href="structAcMeshDims.html" target="_top" xlink:title=" ">
<polygon fill="white" stroke="#666666" points="523.5,-163 443.5,-163 443.5,-144 523.5,-144 523.5,-163"/>
<text text-anchor="middle" x="483.5" y="-151" font-family="Helvetica,sans-Serif" font-size="10.00">AcMeshDims</text>
</a>
</g>
</g>
<!-- Node13&#45;&gt;Node12 -->
<g id="edge12_Node000012_Node000013" class="edge">
<title>Node13&#45;&gt;Node12</title>
<g id="a_edge12_Node000012_Node000013"><a xlink:title=" ">
<path fill="none" stroke="#9a32cd" stroke-dasharray="5,2" d="M533.91,-157.51C574.99,-162.23 634.24,-172.31 682,-193.5 710.08,-205.96 737.79,-229.62 752.07,-242.88"/>
<polygon fill="#9a32cd" stroke="#9a32cd" points="534.2,-154.02 523.88,-156.42 533.44,-160.98 534.2,-154.02"/>
</a>
</g>
<text text-anchor="middle" x="626" y="-218.5" font-family="Helvetica,sans-Serif" font-size="10.00" fill="grey"> computational_dims</text>
<text text-anchor="middle" x="626" y="-207.5" font-family="Helvetica,sans-Serif" font-size="10.00" fill="grey">dims</text>
<text text-anchor="middle" x="626" y="-196.5" font-family="Helvetica,sans-Serif" font-size="10.00" fill="grey">profile_dims</text>
</g>
<!-- Node14 -->
<g id="Node000014" class="node">
<title>Node14</title>
<g id="a_Node000014"><a xlink:href="structVolume.html" target="_top" xlink:title=" ">
<polygon fill="white" stroke="#666666" points="233.5,-112 180.5,-112 180.5,-93 233.5,-93 233.5,-112"/>
<text text-anchor="middle" x="207" y="-100" font-family="Helvetica,sans-Serif" font-size="10.00">Volume</text>
</a>
</g>
</g>
<!-- Node14&#45;&gt;Node13 -->
<g id="edge13_Node000013_Node000014" class="edge">
<title>Node14&#45;&gt;Node13</title>
<g id="a_edge13_Node000013_Node000014"><a xlink:title=" ">
<path fill="none" stroke="#9a32cd" stroke-dasharray="5,2" d="M243.46,-110.18C261.55,-114.03 283.92,-118.67 304,-122.5 351.89,-131.64 407.22,-141.08 443.43,-147.1"/>
<polygon fill="#9a32cd" stroke="#9a32cd" points="244.13,-106.75 233.62,-108.08 242.67,-113.59 244.13,-106.75"/>
</a>
</g>
<text text-anchor="middle" x="350.5" y="-208.5" font-family="Helvetica,sans-Serif" font-size="10.00" fill="grey"> m0</text>
<text text-anchor="middle" x="350.5" y="-197.5" font-family="Helvetica,sans-Serif" font-size="10.00" fill="grey">m1</text>
<text text-anchor="middle" x="350.5" y="-186.5" font-family="Helvetica,sans-Serif" font-size="10.00" fill="grey">n0</text>
<text text-anchor="middle" x="350.5" y="-175.5" font-family="Helvetica,sans-Serif" font-size="10.00" fill="grey">n1</text>
<text text-anchor="middle" x="350.5" y="-164.5" font-family="Helvetica,sans-Serif" font-size="10.00" fill="grey">nn</text>
<text text-anchor="start" x="327.5" y="-153.5" font-family="Helvetica,sans-Serif" font-size="10.00" fill="grey">reduction</text>
<text text-anchor="middle" x="350.5" y="-142.5" font-family="Helvetica,sans-Serif" font-size="10.00" fill="grey">_tile</text>
</g>
<!-- Node23 -->
<g id="Node000023" class="node">
<title>Node23</title>
<g id="a_Node000023"><a xlink:href="structRegion.html" target="_top" xlink:title=" ">
<polygon fill="white" stroke="#666666" points="508.5,-94 458.5,-94 458.5,-75 508.5,-75 508.5,-94"/>
<text text-anchor="middle" x="483.5" y="-82" font-family="Helvetica,sans-Serif" font-size="10.00">Region</text>
</a>
</g>
</g>
<!-- Node14&#45;&gt;Node23 -->
<g id="edge24_Node000023_Node000014" class="edge">
<title>Node14&#45;&gt;Node23</title>
<g id="a_edge24_Node000023_Node000014"><a xlink:title=" ">
<path fill="none" stroke="#9a32cd" stroke-dasharray="5,2" d="M227.27,-86.47C245.66,-72.29 274.82,-52.63 304,-44.5 343.82,-33.41 356.65,-35.53 397,-44.5 423.24,-50.33 450.95,-65.11 467.47,-74.98"/>
<polygon fill="#9a32cd" stroke="#9a32cd" points="224.8,-83.96 219.15,-92.92 229.16,-89.44 224.8,-83.96"/>
</a>
</g>
<text text-anchor="middle" x="350.5" y="-80.5" font-family="Helvetica,sans-Serif" font-size="10.00" fill="grey"> comp_dims</text>
<text text-anchor="middle" x="350.5" y="-69.5" font-family="Helvetica,sans-Serif" font-size="10.00" fill="grey">dims</text>
<text text-anchor="middle" x="350.5" y="-58.5" font-family="Helvetica,sans-Serif" font-size="10.00" fill="grey">halo</text>
<text text-anchor="middle" x="350.5" y="-47.5" font-family="Helvetica,sans-Serif" font-size="10.00" fill="grey">position</text>
</g>
<!-- Node15 -->
<g id="Node000015" class="node">
<title>Node15</title>
<g id="a_Node000015"><a xlink:href="structDeviceVertexBufferArray.html" target="_top" xlink:title=" ">
<polygon fill="white" stroke="#666666" points="552,-269 415,-269 415,-250 552,-250 552,-269"/>
<text text-anchor="middle" x="483.5" y="-257" font-family="Helvetica,sans-Serif" font-size="10.00">DeviceVertexBufferArray</text>
</a>
</g>
</g>
<!-- Node15&#45;&gt;Node12 -->
<g id="edge14_Node000012_Node000015" class="edge">
<title>Node15&#45;&gt;Node12</title>
<g id="a_edge14_Node000012_Node000015"><a xlink:title=" ">
<path fill="none" stroke="#9a32cd" stroke-dasharray="5,2" d="M562.28,-257.54C609.77,-256.34 669.16,-254.84 710.78,-253.79"/>
<polygon fill="#9a32cd" stroke="#9a32cd" points="561.94,-254.05 552.03,-257.8 562.11,-261.04 561.94,-254.05"/>
</a>
</g>
<text text-anchor="middle" x="626" y="-260.5" font-family="Helvetica,sans-Serif" font-size="10.00" fill="grey"> on_device</text>
</g>
<!-- Node16 -->
<g id="Node000016" class="node">
<title>Node16</title>
<g id="a_Node000016"><a xlink:href="structProfileBufferArray.html" target="_top" xlink:title=" ">
<polygon fill="white" stroke="#666666" points="258.5,-288 155.5,-288 155.5,-269 258.5,-269 258.5,-288"/>
<text text-anchor="middle" x="207" y="-276" font-family="Helvetica,sans-Serif" font-size="10.00">ProfileBufferArray</text>
</a>
</g>
</g>
<!-- Node16&#45;&gt;Node15 -->
<g id="edge15_Node000015_Node000016" class="edge">
<title>Node16&#45;&gt;Node15</title>
<g id="a_edge15_Node000015_Node000016"><a xlink:title=" ">
<path fill="none" stroke="#9a32cd" stroke-dasharray="5,2" d="M268.76,-274.29C311.99,-271.3 370.08,-267.28 414.79,-264.19"/>
<polygon fill="#9a32cd" stroke="#9a32cd" points="268.4,-270.81 258.67,-274.99 268.89,-277.79 268.4,-270.81"/>
</a>
</g>
<text text-anchor="middle" x="350.5" y="-275.5" font-family="Helvetica,sans-Serif" font-size="10.00" fill="grey"> profiles</text>
</g>
<!-- Node17 -->
<g id="Node000017" class="node">
<title>Node17</title>
<g id="a_Node000017"><a xlink:href="structint3.html" target="_top" xlink:title=" ">
<polygon fill="white" stroke="#666666" points="224.5,-162 189.5,-162 189.5,-143 224.5,-143 224.5,-162"/>
<text text-anchor="middle" x="207" y="-150" font-family="Helvetica,sans-Serif" font-size="10.00">int3</text>
</a>
</g>
</g>
<!-- Node17&#45;&gt;Node15 -->
<g id="edge16_Node000015_Node000017" class="edge">
<title>Node17&#45;&gt;Node15</title>
<g id="a_edge16_Node000015_Node000017"><a xlink:title=" ">
<path fill="none" stroke="#9a32cd" stroke-dasharray="5,2" d="M225.91,-168.58C244.24,-184.17 274.19,-207.34 304,-220.5 338.97,-235.94 380.57,-245.48 414.8,-251.26"/>
<polygon fill="#9a32cd" stroke="#9a32cd" points="228.2,-165.92 218.35,-162.01 223.61,-171.21 228.2,-165.92"/>
</a>
</g>
<text text-anchor="middle" x="350.5" y="-250.5" font-family="Helvetica,sans-Serif" font-size="10.00" fill="grey"> block_factor</text>
</g>
<!-- Node17&#45;&gt;Node23 -->
<g id="edge25_Node000023_Node000017" class="edge">
<title>Node17&#45;&gt;Node23</title>
<g id="a_edge25_Node000023_Node000017"><a xlink:title=" ">
<path fill="none" stroke="#9a32cd" stroke-dasharray="5,2" d="M234.18,-142.96C249.55,-137.07 269.18,-129.02 286,-120.5 294.36,-116.26 295.17,-112.66 304,-109.5 356.88,-90.56 423.36,-85.89 458.37,-84.79"/>
<polygon fill="#9a32cd" stroke="#9a32cd" points="232.9,-139.7 224.78,-146.5 235.37,-146.25 232.9,-139.7"/>
</a>
</g>
<text text-anchor="middle" x="350.5" y="-112.5" font-family="Helvetica,sans-Serif" font-size="10.00" fill="grey"> id</text>
</g>
<!-- Node18 -->
<g id="Node000018" class="node">
<title>Node18</title>
<g id="a_Node000018"><a xlink:href="structAcScratchpadStates.html" target="_top" xlink:title=" ">
<polygon fill="white" stroke="#666666" points="540,-232 427,-232 427,-213 540,-213 540,-232"/>
<text text-anchor="middle" x="483.5" y="-220" font-family="Helvetica,sans-Serif" font-size="10.00">AcScratchpadStates</text>
</a>
</g>
</g>
<!-- Node18&#45;&gt;Node12 -->
<g id="edge17_Node000012_Node000018" class="edge">
<title>Node18&#45;&gt;Node12</title>
<g id="a_edge17_Node000012_Node000018"><a xlink:title=" ">
<path fill="none" stroke="#9a32cd" stroke-dasharray="5,2" d="M550.38,-227.54C588.83,-230.73 638.23,-235.23 682,-240.5 691.34,-241.63 701.27,-242.98 710.85,-244.38"/>
<polygon fill="#9a32cd" stroke="#9a32cd" points="550.6,-224.05 540.35,-226.72 550.03,-231.03 550.6,-224.05"/>
</a>
</g>
<text text-anchor="middle" x="626" y="-243.5" font-family="Helvetica,sans-Serif" font-size="10.00" fill="grey"> scratchpad_states</text>
</g>
<!-- Node19 -->
<g id="Node000019" class="node">
<title>Node19</title>
<g id="a_Node000019"><a xlink:href="structAcReduceBuffer.html" target="_top" xlink:title=" ">
<polygon fill="white" stroke="#666666" points="530.5,-307 436.5,-307 436.5,-288 530.5,-288 530.5,-307"/>
<text text-anchor="middle" x="483.5" y="-295" font-family="Helvetica,sans-Serif" font-size="10.00">AcReduceBuffer</text>
</a>
</g>
</g>
<!-- Node19&#45;&gt;Node12 -->
<g id="edge18_Node000012_Node000019" class="edge">
<title>Node19&#45;&gt;Node12</title>
<g id="a_edge18_Node000012_Node000019"><a xlink:title=" ">
<path fill="none" stroke="#9a32cd" stroke-dasharray="5,2" d="M540.65,-292.19C580.33,-288 634.66,-281.38 682,-272.5 697.06,-269.68 713.5,-265.72 727.55,-262.07"/>
<polygon fill="#9a32cd" stroke="#9a32cd" points="540.22,-288.72 530.63,-293.23 540.94,-295.68 540.22,-288.72"/>
</a>
</g>
<text text-anchor="middle" x="626" y="-291.5" font-family="Helvetica,sans-Serif" font-size="10.00" fill="grey"> profile_reduce_buffers</text>
</g>
<!-- Node20 -->
<g id="Node000020" class="node">
<title>Node20</title>
<g id="a_Node000020"><a xlink:href="structAcBuffer.html" target="_top" xlink:title=" ">
<polygon fill="white" stroke="#666666" points="236,-325 178,-325 178,-306 236,-306 236,-325"/>
<text text-anchor="middle" x="207" y="-313" font-family="Helvetica,sans-Serif" font-size="10.00">AcBuffer</text>
</a>
</g>
</g>
<!-- Node20&#45;&gt;Node19 -->
<g id="edge19_Node000019_Node000020" class="edge">
<title>Node20&#45;&gt;Node19</title>
<g id="a_edge19_Node000019_Node000020"><a xlink:title=" ">
<path fill="none" stroke="#9a32cd" stroke-dasharray="5,2" d="M246.12,-313C295.93,-309.73 383.08,-304.02 436.5,-300.52"/>
<polygon fill="#9a32cd" stroke="#9a32cd" points="245.84,-309.51 236.09,-313.66 246.29,-316.5 245.84,-309.51"/>
</a>
</g>
<text text-anchor="middle" x="350.5" y="-323.5" font-family="Helvetica,sans-Serif" font-size="10.00" fill="grey"> src</text>
<text text-anchor="middle" x="350.5" y="-312.5" font-family="Helvetica,sans-Serif" font-size="10.00" fill="grey">transposed</text>
</g>
<!-- Node21 -->
<g id="Node000021" class="node">
<title>Node21</title>
<g id="a_Node000021"><a xlink:href="structAcShape.html" target="_top" xlink:title=" ">
<polygon fill="white" stroke="#666666" points="59,-325 0,-325 0,-306 59,-306 59,-325"/>
<text text-anchor="middle" x="29.5" y="-313" font-family="Helvetica,sans-Serif" font-size="10.00">AcShape</text>
</a>
</g>
</g>
<!-- Node21&#45;&gt;Node20 -->
<g id="edge20_Node000020_Node000021" class="edge">
<title>Node21&#45;&gt;Node20</title>
<g id="a_edge20_Node000020_Node000021"><a xlink:title=" ">
<path fill="none" stroke="#9a32cd" stroke-dasharray="5,2" d="M69.23,-315.5C102.03,-315.5 148.29,-315.5 177.72,-315.5"/>
<polygon fill="#9a32cd" stroke="#9a32cd" points="69.09,-312 59.09,-315.5 69.09,-319 69.09,-312"/>
</a>
</g>
<text text-anchor="middle" x="93.5" y="-318.5" font-family="Helvetica,sans-Serif" font-size="10.00" fill="grey"> shape</text>
</g>
<!-- Node22 -->
<g id="Node000022" class="node">
<title>Node22</title>
<g id="a_Node000022"><a xlink:href="structAcDeviceKernelOutput.html" target="_top" xlink:title=" ">
<polygon fill="white" stroke="#666666" points="826,-388 700,-388 700,-369 826,-369 826,-388"/>
<text text-anchor="middle" x="763" y="-376" font-family="Helvetica,sans-Serif" font-size="10.00">AcDeviceKernelOutput</text>
</a>
</g>
</g>
<!-- Node22&#45;&gt;Node3 -->
<g id="edge21_Node000003_Node000022" class="edge">
<title>Node22&#45;&gt;Node3</title>
<g id="a_edge21_Node000003_Node000022"><a xlink:title=" ">
<path fill="none" stroke="#9a32cd" stroke-dasharray="5,2" d="M836.17,-370.53C862.31,-365.69 891.43,-357.93 916,-345.5 931.37,-337.73 945.69,-323.66 954.27,-314.19"/>
<polygon fill="#9a32cd" stroke="#9a32cd" points="835.57,-367.09 826.32,-372.25 836.77,-373.98 835.57,-367.09"/>
</a>
</g>
<text text-anchor="middle" x="880" y="-370.5" font-family="Helvetica,sans-Serif" font-size="10.00" fill="grey"> output</text>
</g>
<!-- Node23&#45;&gt;Node2 -->
<g id="edge23_Node000002_Node000023" class="edge">
<title>Node23&#45;&gt;Node2</title>
<g id="a_edge23_Node000002_Node000023"><a xlink:title=" ">
<path fill="none" stroke="#9a32cd" stroke-dasharray="5,2" d="M518.4,-93.17C629.66,-121.61 981.24,-211.49 1064.97,-232.89"/>
<polygon fill="#9a32cd" stroke="#9a32cd" points="519.26,-89.77 508.7,-90.69 517.52,-96.56 519.26,-89.77"/>
</a>
</g>
<text text-anchor="middle" x="880" y="-208.5" font-family="Helvetica,sans-Serif" font-size="10.00" fill="grey"> launch_region</text>
<text text-anchor="middle" x="880" y="-197.5" font-family="Helvetica,sans-Serif" font-size="10.00" fill="grey">output_region</text>
</g>
<!-- Node24 -->
<g id="Node000024" class="node">
<title>Node24</title>
<g id="a_Node000024"><a xlink:href="structRegionMemory.html" target="_top" xlink:title=" ">
<polygon fill="white" stroke="#666666" points="252.5,-19 161.5,-19 161.5,0 252.5,0 252.5,-19"/>
<text text-anchor="middle" x="207" y="-7" font-family="Helvetica,sans-Serif" font-size="10.00">RegionMemory</text>
</a>
</g>
</g>
<!-- Node24&#45;&gt;Node23 -->
<g id="edge26_Node000023_Node000024" class="edge">
<title>Node24&#45;&gt;Node23</title>
<g id="a_edge26_Node000023_Node000024"><a xlink:title=" ">
<path fill="none" stroke="#9a32cd" stroke-dasharray="5,2" d="M262.6,-5.42C301.26,-4.38 353.72,-6.8 397,-22.5 428.37,-33.88 458.35,-60.42 473.06,-74.81"/>
<polygon fill="#9a32cd" stroke="#9a32cd" points="262.45,-1.92 252.58,-5.77 262.7,-8.91 262.45,-1.92"/>
</a>
</g>
<text text-anchor="middle" x="350.5" y="-25.5" font-family="Helvetica,sans-Serif" font-size="10.00" fill="grey"> memory</text>
</g>
</g>
</svg>
