<?xml version="1.0" encoding="UTF-8" standalone="no"?>
<!DOCTYPE svg PUBLIC "-//W3C//DTD SVG 1.1//EN"
 "http://www.w3.org/Graphics/SVG/1.1/DTD/svg11.dtd">
<!-- Generated by graphviz version 2.43.0 (0)
 -->
<!-- Title: ComputeTask Pages: 1 -->
<!--zoomable 341 -->

<svg id="main" version="1.1" xmlns="http://www.w3.org/2000/svg" xmlns:xlink="http://www.w3.org/1999/xlink" xml:space="preserve" onload="init(evt)">
<style type="text/css"><![CDATA[
.node, .edge {opacity: 0.7;}
.node.selected, .edge.selected {opacity: 1;}
.edge:hover path { stroke: red; }
.edge:hover polygon { stroke: red; fill: red; }
]]></style>

<defs>
  <circle id="rim" cx="0" cy="0" r="7"/>
  <circle id="rim2" cx="0" cy="0" r="3.5"/>
  <g id="zoomPlus">
    <use xlink:href="#rim" fill="#404040"><set attributeName="fill" to="#808080" begin="zoomplus.mouseover" end="zoomplus.mouseout"/></use>
    <path d="M-4,0h8M0,-4v8" fill="none" stroke="white" stroke-width="1.5" pointer-events="none"/>
  </g>
  <g id="zoomMin">
    <use xlink:href="#rim" fill="#404040"><set attributeName="fill" to="#808080" begin="zoomminus.mouseover" end="zoomminus.mouseout"/></use>
    <path d="M-4,0h8" fill="none" stroke="white" stroke-width="1.5" pointer-events="none"/>
  </g>
  <g id="arrowUp" transform="translate(30 24)">
    <use xlink:href="#rim"/>
    <path pointer-events="none" fill="none" stroke="white" stroke-width="1.5" d="M0,-3.0v7 M-2.5,-0.5L0,-3.0L2.5,-0.5"/>
  </g>
  <g id="arrowRight" transform="rotate(90) translate(36 -43)">
    <use xlink:href="#rim"/>
    <path pointer-events="none" fill="none" stroke="white" stroke-width="1.5" d="M0,-3.0v7 M-2.5,-0.5L0,-3.0L2.5,-0.5"/>
  </g>
  <g id="arrowDown" transform="rotate(180) translate(-30 -48)">
    <use xlink:href="#rim"/>
    <path pointer-events="none" fill="none" stroke="white" stroke-width="1.5" d="M0,-3.0v7 M-2.5,-0.5L0,-3.0L2.5,-0.5"/>
  </g>
  <g id="arrowLeft" transform="rotate(270) translate(-36 17)">
    <use xlink:href="#rim"/>
    <path pointer-events="none" fill="none" stroke="white" stroke-width="1.5" d="M0,-3.0v7 M-2.5,-0.5L0,-3.0L2.5,-0.5"/>
  </g>
  <g id="resetDef">
    <use xlink:href="#rim2" fill="#404040"><set attributeName="fill" to="#808080" begin="reset.mouseover" end="reset.mouseout"/></use>
  </g>
</defs>
<script type="application/ecmascript">
var viewWidth = 944;
var viewHeight = 341;
var sectionId = 'dynsection-1';
</script>
<script type="application/ecmascript" xlink:href="svg.min.js"/>
<svg id="graph" class="graph">
<g id="viewport">
<title>ComputeTask</title>
<!-- Node1 -->
<g id="Node000001" class="node">
<title>Node1</title>
<g id="a_Node000001"><a xlink:title=" ">
<polygon fill="#999999" stroke="#666666" points="936,-146 853,-146 853,-127 936,-127 936,-146"/>
<text text-anchor="middle" x="894.5" y="-134" font-family="Helvetica,sans-Serif" font-size="10.00">ComputeTask</text>
</a>
</g>
</g>
<!-- Node2 -->
<g id="Node000002" class="node">
<title>Node2</title>
<g id="a_Node000002"><a xlink:href="classTask.html" target="_top" xlink:title=" ">
<polygon fill="white" stroke="#666666" points="816,-146 778,-146 778,-127 816,-127 816,-146"/>
<text text-anchor="middle" x="797" y="-134" font-family="Helvetica,sans-Serif" font-size="10.00">Task</text>
</a>
</g>
</g>
<!-- Node2&#45;&gt;Node1 -->
<g id="edge1_Node000001_Node000002" class="edge">
<title>Node2&#45;&gt;Node1</title>
<g id="a_edge1_Node000001_Node000002"><a xlink:title=" ">
<path fill="none" stroke="#63b8ff" d="M826.67,-136.5C834.95,-136.5 844.14,-136.5 853,-136.5"/>
<polygon fill="#63b8ff" stroke="#63b8ff" points="826.41,-133 816.41,-136.5 826.41,-140 826.41,-133"/>
</a>
</g>
</g>
<!-- Node3 -->
<g id="Node000003" class="node">
<title>Node3</title>
<g id="a_Node000003"><a xlink:href="structVertexBufferArray.html" target="_top" xlink:title=" ">
<polygon fill="white" stroke="#666666" points="720,-98 616,-98 616,-79 720,-79 720,-98"/>
<text text-anchor="middle" x="668" y="-86" font-family="Helvetica,sans-Serif" font-size="10.00">VertexBufferArray</text>
</a>
</g>
</g>
<!-- Node3&#45;&gt;Node2 -->
<g id="edge2_Node000002_Node000003" class="edge">
<title>Node3&#45;&gt;Node2</title>
<g id="a_edge2_Node000002_Node000003"><a xlink:title=" ">
<path fill="none" stroke="#9a32cd" stroke-dasharray="5,2" d="M703.82,-101.66C727.68,-110.68 758.39,-122.28 777.64,-129.56"/>
<polygon fill="#9a32cd" stroke="#9a32cd" points="704.99,-98.36 694.4,-98.1 702.51,-104.91 704.99,-98.36"/>
</a>
</g>
<text text-anchor="middle" x="749" y="-124.5" font-family="Helvetica,sans-Serif" font-size="10.00" fill="grey"> vba</text>
</g>
<!-- Node4 -->
<g id="Node000004" class="node">
<title>Node4</title>
<g id="a_Node000004"><a xlink:href="structAcMeshDims.html" target="_top" xlink:title=" ">
<polygon fill="white" stroke="#666666" points="439.5,-159 359.5,-159 359.5,-140 439.5,-140 439.5,-159"/>
<text text-anchor="middle" x="399.5" y="-147" font-family="Helvetica,sans-Serif" font-size="10.00">AcMeshDims</text>
</a>
</g>
</g>
<!-- Node4&#45;&gt;Node3 -->
<g id="edge3_Node000003_Node000004" class="edge">
<title>Node4&#45;&gt;Node3</title>
<g id="a_edge3_Node000003_Node000004"><a xlink:title=" ">
<path fill="none" stroke="#9a32cd" stroke-dasharray="5,2" d="M449.55,-138.27C499.97,-126.73 577.64,-108.95 625.22,-98.06"/>
<polygon fill="#9a32cd" stroke="#9a32cd" points="448.5,-134.92 439.54,-140.56 450.07,-141.75 448.5,-134.92"/>
</a>
</g>
<text text-anchor="middle" x="542" y="-154.5" font-family="Helvetica,sans-Serif" font-size="10.00" fill="grey"> computational_dims</text>
<text text-anchor="middle" x="542" y="-143.5" font-family="Helvetica,sans-Serif" font-size="10.00" fill="grey">dims</text>
<text text-anchor="middle" x="542" y="-132.5" font-family="Helvetica,sans-Serif" font-size="10.00" fill="grey">profile_dims</text>
</g>
<!-- Node5 -->
<g id="Node000005" class="node">
<title>Node5</title>
<g id="a_Node000005"><a xlink:href="structVolume.html" target="_top" xlink:title=" ">
<polygon fill="white" stroke="#666666" points="206,-174 153,-174 153,-155 206,-155 206,-174"/>
<text text-anchor="middle" x="179.5" y="-162" font-family="Helvetica,sans-Serif" font-size="10.00">Volume</text>
</a>
</g>
</g>
<!-- Node5&#45;&gt;Node4 -->
<g id="edge4_Node000004_Node000005" class="edge">
<title>Node5&#45;&gt;Node4</title>
<g id="a_edge4_Node000004_Node000005"><a xlink:title=" ">
<path fill="none" stroke="#9a32cd" stroke-dasharray="5,2" d="M216.29,-160.51C226.82,-159.43 238.36,-158.33 249,-157.5 286.45,-154.59 329.25,-152.41 359.43,-151.07"/>
<polygon fill="#9a32cd" stroke="#9a32cd" points="215.75,-157.05 206.17,-161.58 216.48,-164.01 215.75,-157.05"/>
</a>
</g>
<text text-anchor="middle" x="281" y="-226.5" font-family="Helvetica,sans-Serif" font-size="10.00" fill="grey"> m0</text>
<text text-anchor="middle" x="281" y="-215.5" font-family="Helvetica,sans-Serif" font-size="10.00" fill="grey">m1</text>
<text text-anchor="middle" x="281" y="-204.5" font-family="Helvetica,sans-Serif" font-size="10.00" fill="grey">n0</text>
<text text-anchor="middle" x="281" y="-193.5" font-family="Helvetica,sans-Serif" font-size="10.00" fill="grey">n1</text>
<text text-anchor="middle" x="281" y="-182.5" font-family="Helvetica,sans-Serif" font-size="10.00" fill="grey">nn</text>
<text text-anchor="start" x="258" y="-171.5" font-family="Helvetica,sans-Serif" font-size="10.00" fill="grey">reduction</text>
<text text-anchor="middle" x="281" y="-160.5" font-family="Helvetica,sans-Serif" font-size="10.00" fill="grey">_tile</text>
</g>
<!-- Node13 -->
<g id="Node000013" class="node">
<title>Node13</title>
<g id="a_Node000013"><a xlink:href="structRegion.html" target="_top" xlink:title=" ">
<polygon fill="white" stroke="#666666" points="424.5,-201 374.5,-201 374.5,-182 424.5,-182 424.5,-201"/>
<text text-anchor="middle" x="399.5" y="-189" font-family="Helvetica,sans-Serif" font-size="10.00">Region</text>
</a>
</g>
</g>
<!-- Node5&#45;&gt;Node13 -->
<g id="edge13_Node000013_Node000005" class="edge">
<title>Node5&#45;&gt;Node13</title>
<g id="a_edge13_Node000013_Node000005"><a xlink:title=" ">
<path fill="none" stroke="#9a32cd" stroke-dasharray="5,2" d="M191.9,-182.64C203.79,-199.67 224.14,-224.04 249,-234.5 297.55,-254.92 358.88,-219.28 385.35,-201.14"/>
<polygon fill="#9a32cd" stroke="#9a32cd" points="194.65,-180.45 186.19,-174.07 188.82,-184.33 194.65,-180.45"/>
</a>
</g>
<text text-anchor="middle" x="281" y="-276.5" font-family="Helvetica,sans-Serif" font-size="10.00" fill="grey"> comp_dims</text>
<text text-anchor="middle" x="281" y="-265.5" font-family="Helvetica,sans-Serif" font-size="10.00" fill="grey">dims</text>
<text text-anchor="middle" x="281" y="-254.5" font-family="Helvetica,sans-Serif" font-size="10.00" fill="grey">halo</text>
<text text-anchor="middle" x="281" y="-243.5" font-family="Helvetica,sans-Serif" font-size="10.00" fill="grey">position</text>
</g>
<!-- Node6 -->
<g id="Node000006" class="node">
<title>Node6</title>
<g id="a_Node000006"><a xlink:href="structDeviceVertexBufferArray.html" target="_top" xlink:title=" ">
<polygon fill="white" stroke="#666666" points="468,-98 331,-98 331,-79 468,-79 468,-98"/>
<text text-anchor="middle" x="399.5" y="-86" font-family="Helvetica,sans-Serif" font-size="10.00">DeviceVertexBufferArray</text>
</a>
</g>
</g>
<!-- Node6&#45;&gt;Node3 -->
<g id="edge5_Node000003_Node000006" class="edge">
<title>Node6&#45;&gt;Node3</title>
<g id="a_edge5_Node000003_Node000006"><a xlink:title=" ">
<path fill="none" stroke="#9a32cd" stroke-dasharray="5,2" d="M478.26,-88.5C522.6,-88.5 576.92,-88.5 615.89,-88.5"/>
<polygon fill="#9a32cd" stroke="#9a32cd" points="478.09,-85 468.09,-88.5 478.09,-92 478.09,-85"/>
</a>
</g>
<text text-anchor="middle" x="542" y="-91.5" font-family="Helvetica,sans-Serif" font-size="10.00" fill="grey"> on_device</text>
</g>
<!-- Node7 -->
<g id="Node000007" class="node">
<title>Node7</title>
<g id="a_Node000007"><a xlink:href="structProfileBufferArray.html" target="_top" xlink:title=" ">
<polygon fill="white" stroke="#666666" points="231,-64 128,-64 128,-45 231,-45 231,-64"/>
<text text-anchor="middle" x="179.5" y="-52" font-family="Helvetica,sans-Serif" font-size="10.00">ProfileBufferArray</text>
</a>
</g>
</g>
<!-- Node7&#45;&gt;Node6 -->
<g id="edge6_Node000006_Node000007" class="edge">
<title>Node7&#45;&gt;Node6</title>
<g id="a_edge6_Node000006_Node000007"><a xlink:title=" ">
<path fill="none" stroke="#9a32cd" stroke-dasharray="5,2" d="M241.18,-59.31C263.81,-61.52 289.66,-64.55 313,-68.5 329.23,-71.25 346.99,-75.23 362.09,-78.93"/>
<polygon fill="#9a32cd" stroke="#9a32cd" points="241.32,-55.81 231.04,-58.35 240.66,-62.78 241.32,-55.81"/>
</a>
</g>
<text text-anchor="middle" x="281" y="-71.5" font-family="Helvetica,sans-Serif" font-size="10.00" fill="grey"> profiles</text>
</g>
<!-- Node8 -->
<g id="Node000008" class="node">
<title>Node8</title>
<g id="a_Node000008"><a xlink:href="structint3.html" target="_top" xlink:title=" ">
<polygon fill="white" stroke="#666666" points="197,-123 162,-123 162,-104 197,-104 197,-123"/>
<text text-anchor="middle" x="179.5" y="-111" font-family="Helvetica,sans-Serif" font-size="10.00">int3</text>
</a>
</g>
</g>
<!-- Node8&#45;&gt;Node6 -->
<g id="edge7_Node000006_Node000008" class="edge">
<title>Node8&#45;&gt;Node6</title>
<g id="a_edge7_Node000006_Node000008"><a xlink:title=" ">
<path fill="none" stroke="#9a32cd" stroke-dasharray="5,2" d="M206.63,-102.06C219.19,-97.16 234.6,-92 249,-89.5 275.47,-84.91 304.97,-83.86 330.73,-84.25"/>
<polygon fill="#9a32cd" stroke="#9a32cd" points="205.2,-98.86 197.25,-105.87 207.84,-105.35 205.2,-98.86"/>
</a>
</g>
<text text-anchor="middle" x="281" y="-92.5" font-family="Helvetica,sans-Serif" font-size="10.00" fill="grey"> block_factor</text>
</g>
<!-- Node8&#45;&gt;Node13 -->
<g id="edge14_Node000013_Node000008" class="edge">
<title>Node8&#45;&gt;Node13</title>
<g id="a_edge14_Node000013_Node000008"><a xlink:title=" ">
<path fill="none" stroke="#9a32cd" stroke-dasharray="5,2" d="M207.36,-112.04C236.04,-111.82 281.61,-115.47 313,-137.5 326.04,-146.65 318.68,-158.4 331,-168.5 343.35,-178.62 360.4,-184.38 374.27,-187.61"/>
<polygon fill="#9a32cd" stroke="#9a32cd" points="207.17,-108.54 197.25,-112.28 207.33,-115.54 207.17,-108.54"/>
</a>
</g>
<text text-anchor="middle" x="281" y="-140.5" font-family="Helvetica,sans-Serif" font-size="10.00" fill="grey"> id</text>
</g>
<!-- Node9 -->
<g id="Node000009" class="node">
<title>Node9</title>
<g id="a_Node000009"><a xlink:href="structAcScratchpadStates.html" target="_top" xlink:title=" ">
<polygon fill="white" stroke="#666666" points="456,-24 343,-24 343,-5 456,-5 456,-24"/>
<text text-anchor="middle" x="399.5" y="-12" font-family="Helvetica,sans-Serif" font-size="10.00">AcScratchpadStates</text>
</a>
</g>
</g>
<!-- Node9&#45;&gt;Node3 -->
<g id="edge8_Node000003_Node000009" class="edge">
<title>Node9&#45;&gt;Node3</title>
<g id="a_edge8_Node000003_Node000009"><a xlink:title=" ">
<path fill="none" stroke="#9a32cd" stroke-dasharray="5,2" d="M466.05,-18.18C505.32,-21.99 555.66,-29.73 598,-45.5 619.69,-53.58 641.91,-68.95 655.08,-78.96"/>
<polygon fill="#9a32cd" stroke="#9a32cd" points="466.34,-14.69 456.06,-17.27 465.71,-21.66 466.34,-14.69"/>
</a>
</g>
<text text-anchor="middle" x="542" y="-48.5" font-family="Helvetica,sans-Serif" font-size="10.00" fill="grey"> scratchpad_states</text>
</g>
<!-- Node10 -->
<g id="Node000010" class="node">
<title>Node10</title>
<g id="a_Node000010"><a xlink:href="structAcReduceBuffer.html" target="_top" xlink:title=" ">
<polygon fill="white" stroke="#666666" points="446.5,-61 352.5,-61 352.5,-42 446.5,-42 446.5,-61"/>
<text text-anchor="middle" x="399.5" y="-49" font-family="Helvetica,sans-Serif" font-size="10.00">AcReduceBuffer</text>
</a>
</g>
</g>
<!-- Node10&#45;&gt;Node3 -->
<g id="edge9_Node000003_Node000010" class="edge">
<title>Node10&#45;&gt;Node3</title>
<g id="a_edge9_Node000003_Node000010"><a xlink:title=" ">
<path fill="none" stroke="#9a32cd" stroke-dasharray="5,2" d="M456.58,-56.19C496.23,-59.89 550.55,-65.72 598,-73.5 607.32,-75.03 617.27,-76.99 626.63,-78.99"/>
<polygon fill="#9a32cd" stroke="#9a32cd" points="456.85,-52.7 446.58,-55.28 456.22,-59.68 456.85,-52.7"/>
</a>
</g>
<text text-anchor="middle" x="542" y="-76.5" font-family="Helvetica,sans-Serif" font-size="10.00" fill="grey"> profile_reduce_buffers</text>
</g>
<!-- Node11 -->
<g id="Node000011" class="node">
<title>Node11</title>
<g id="a_Node000011"><a xlink:href="structAcBuffer.html" target="_top" xlink:title=" ">
<polygon fill="white" stroke="#666666" points="208.5,-19 150.5,-19 150.5,0 208.5,0 208.5,-19"/>
<text text-anchor="middle" x="179.5" y="-7" font-family="Helvetica,sans-Serif" font-size="10.00">AcBuffer</text>
</a>
</g>
</g>
<!-- Node11&#45;&gt;Node10 -->
<g id="edge10_Node000010_Node000011" class="edge">
<title>Node11&#45;&gt;Node10</title>
<g id="a_edge10_Node000010_Node000011"><a xlink:title=" ">
<path fill="none" stroke="#9a32cd" stroke-dasharray="5,2" d="M218.7,-16.6C245.18,-21.55 281.25,-28.35 313,-34.5 325.78,-36.98 339.62,-39.71 352.37,-42.24"/>
<polygon fill="#9a32cd" stroke="#9a32cd" points="219.16,-13.13 208.69,-14.74 217.88,-20.01 219.16,-13.13"/>
</a>
</g>
<text text-anchor="middle" x="281" y="-48.5" font-family="Helvetica,sans-Serif" font-size="10.00" fill="grey"> src</text>
<text text-anchor="middle" x="281" y="-37.5" font-family="Helvetica,sans-Serif" font-size="10.00" fill="grey">transposed</text>
</g>
<!-- Node12 -->
<g id="Node000012" class="node">
<title>Node12</title>
<g id="a_Node000012"><a xlink:href="structAcShape.html" target="_top" xlink:title=" ">
<polygon fill="white" stroke="#666666" points="59,-19 0,-19 0,0 59,0 59,-19"/>
<text text-anchor="middle" x="29.5" y="-7" font-family="Helvetica,sans-Serif" font-size="10.00">AcShape</text>
</a>
</g>
</g>
<!-- Node12&#45;&gt;Node11 -->
<g id="edge11_Node000011_Node000012" class="edge">
<title>Node12&#45;&gt;Node11</title>
<g id="a_edge11_Node000011_Node000012"><a xlink:title=" ">
<path fill="none" stroke="#9a32cd" stroke-dasharray="5,2" d="M69.06,-9.5C94.42,-9.5 127.04,-9.5 150.05,-9.5"/>
<polygon fill="#9a32cd" stroke="#9a32cd" points="69.04,-6 59.04,-9.5 69.04,-13 69.04,-6"/>
</a>
</g>
<text text-anchor="middle" x="93.5" y="-12.5" font-family="Helvetica,sans-Serif" font-size="10.00" fill="grey"> shape</text>
</g>
<!-- Node13&#45;&gt;Node2 -->
<g id="edge12_Node000002_Node000013" class="edge">
<title>Node13&#45;&gt;Node2</title>
<g id="a_edge12_Node000002_Node000013"><a xlink:title=" ">
<path fill="none" stroke="#9a32cd" stroke-dasharray="5,2" d="M434.66,-187.43C474.07,-182.68 540.77,-174.46 598,-166.5 664.29,-157.28 742.84,-144.96 777.73,-139.42"/>
<polygon fill="#9a32cd" stroke="#9a32cd" points="434.05,-183.98 424.54,-188.65 434.89,-190.93 434.05,-183.98"/>
</a>
</g>
<text text-anchor="middle" x="668" y="-177.5" font-family="Helvetica,sans-Serif" font-size="10.00" fill="grey"> launch_region</text>
<text text-anchor="middle" x="668" y="-166.5" font-family="Helvetica,sans-Serif" font-size="10.00" fill="grey">output_region</text>
</g>
<!-- Node14 -->
<g id="Node000014" class="node">
<title>Node14</title>
<g id="a_Node000014"><a xlink:href="structRegionMemory.html" target="_top" xlink:title=" ">
<polygon fill="white" stroke="#666666" points="225,-333 134,-333 134,-314 225,-314 225,-333"/>
<text text-anchor="middle" x="179.5" y="-321" font-family="Helvetica,sans-Serif" font-size="10.00">RegionMemory</text>
</a>
</g>
</g>
<!-- Node14&#45;&gt;Node13 -->
<g id="edge15_Node000013_Node000014" class="edge">
<title>Node14&#45;&gt;Node13</title>
<g id="a_edge15_Node000013_Node000014"><a xlink:title=" ">
<path fill="none" stroke="#9a32cd" stroke-dasharray="5,2" d="M235.25,-316.5C260.33,-311.49 289.6,-302.95 313,-288.5 350.43,-265.38 380.67,-220.8 392.78,-201.18"/>
<polygon fill="#9a32cd" stroke="#9a32cd" points="234.34,-313.11 225.15,-318.38 235.62,-319.99 234.34,-313.11"/>
</a>
</g>
<text text-anchor="middle" x="281" y="-315.5" font-family="Helvetica,sans-Serif" font-size="10.00" fill="grey"> memory</text>
</g>
</g>
</svg>

<g id="navigator" transform="translate(0 0)" fill="#404254">
  <rect fill="#f2f5e9" fill-opacity="0.5" stroke="#606060" stroke-width=".5" x="0" y="0" width="60" height="60"/>
  <use id="zoomplus" xlink:href="#zoomPlus" x="17" y="9" onmousedown="handleZoom(evt,'in')"/>
  <use id="zoomminus" xlink:href="#zoomMin" x="42" y="9" onmousedown="handleZoom(evt,'out')"/>
  <use id="reset" xlink:href="#resetDef" x="30" y="36" onmousedown="handleReset()"/>
   <use id="arrowup" xlink:href="#arrowUp" x="0" y="0" onmousedown="handlePan(0,-1)"/>
  <use id="arrowright" xlink:href="#arrowRight" x="0" y="0" onmousedown="handlePan(1,0)"/>
  <use id="arrowdown" xlink:href="#arrowDown" x="0" y="0" onmousedown="handlePan(0,1)"/>
  <use id="arrowleft" xlink:href="#arrowLeft" x="0" y="0" onmousedown="handlePan(-1,0)"/>
</g>
<svg viewBox="0 0 15 15" width="100%" height="30px" preserveAspectRatio="xMaxYMin meet">
 <g id="arrow_out" transform="scale(0.3 0.3)">
  <a xlink:href="classComputeTask__coll__graph_org.svg" target="_base">
   <rect id="button" ry="5" rx="5" y="6" x="6" height="38" width="38"
        fill="#f2f5e9" fill-opacity="0.5" stroke="#606060" stroke-width="1.0"/>
   <path id="arrow"
     d="M 11.500037,31.436501 C 11.940474,20.09759 22.043105,11.32322 32.158766,21.979434 L 37.068811,17.246167 C 37.068811,17.246167 37.088388,32 37.088388,32 L 22.160133,31.978069 C 22.160133,31.978069 26.997745,27.140456 26.997745,27.140456 C 18.528582,18.264221 13.291696,25.230495 11.500037,31.436501 z"
     style="fill:#404040;"/>
  </a>
 </g>
</svg>

<style type='text/css'>
<![CDATA[
[data-mouse-over-selected='false'] { opacity: 0.7; }
[data-mouse-over-selected='true']  { opacity: 1.0; }
]]>
</style>
<script type="application/ecmascript"><![CDATA[
document.addEventListener('DOMContentLoaded', (event) => {
  highlightEdges();
  highlightAdjacentNodes();
});
]]></script>
</svg>
