<?xml version="1.0" encoding="UTF-8" standalone="no"?>
<!DOCTYPE svg PUBLIC "-//W3C//DTD SVG 1.1//EN"
 "http://www.w3.org/Graphics/SVG/1.1/DTD/svg11.dtd">
<!-- Generated by graphviz version 2.43.0 (0)
 -->
<!-- Title: deprecated/acc&#45;2.4/src/code_generator.c Pages: 1 -->
<svg width="377pt" height="148pt"
 viewBox="0.00 0.00 377.21 148.00" xmlns="http://www.w3.org/2000/svg" xmlns:xlink="http://www.w3.org/1999/xlink">
<g id="graph0" class="graph" transform="scale(1 1) rotate(0) translate(4 144)">
<title>deprecated/acc&#45;2.4/src/code_generator.c</title>
<!-- Node1 -->
<g id="Node000001" class="node">
<title>Node1</title>
<g id="a_Node000001"><a xlink:title="Brief info.">
<polygon fill="#999999" stroke="#666666" points="243.55,-140 123.55,-140 123.55,-110 243.55,-110 243.55,-140"/>
<text text-anchor="start" x="131.55" y="-128" font-family="Helvetica,sans-Serif" font-size="10.00">deprecated/acc&#45;2.4</text>
<text text-anchor="middle" x="183.55" y="-117" font-family="Helvetica,sans-Serif" font-size="10.00">/src/code_generator.c</text>
</a>
</g>
</g>
<!-- Node2 -->
<g id="Node000002" class="node">
<title>Node2</title>
<g id="a_Node000002"><a xlink:title=" ">
<polygon fill="#e0e0e0" stroke="#999999" points="143.55,-19 87.55,-19 87.55,0 143.55,0 143.55,-19"/>
<text text-anchor="middle" x="115.55" y="-7" font-family="Helvetica,sans-Serif" font-size="10.00">assert.h</text>
</a>
</g>
</g>
<!-- Node1&#45;&gt;Node2 -->
<g id="edge1_Node000001_Node000002" class="edge">
<title>Node1&#45;&gt;Node2</title>
<g id="a_edge1_Node000001_Node000002"><a xlink:title=" ">
<path fill="none" stroke="#63b8ff" d="M123.36,-115C77.53,-106.78 19.94,-93 5.55,-74 -16.86,-44.43 37.7,-26.3 77.73,-17.35"/>
<polygon fill="#63b8ff" stroke="#63b8ff" points="78.49,-20.76 87.54,-15.27 77.03,-13.92 78.49,-20.76"/>
</a>
</g>
</g>
<!-- Node3 -->
<g id="Node000003" class="node">
<title>Node3</title>
<g id="a_Node000003"><a xlink:title=" ">
<polygon fill="#e0e0e0" stroke="#999999" points="76.55,-74 14.55,-74 14.55,-55 76.55,-55 76.55,-74"/>
<text text-anchor="middle" x="45.55" y="-62" font-family="Helvetica,sans-Serif" font-size="10.00">stdbool.h</text>
</a>
</g>
</g>
<!-- Node1&#45;&gt;Node3 -->
<g id="edge2_Node000001_Node000003" class="edge">
<title>Node1&#45;&gt;Node3</title>
<g id="a_edge2_Node000001_Node000003"><a xlink:title=" ">
<path fill="none" stroke="#63b8ff" d="M150.49,-109.99C127.57,-100.27 97.31,-87.44 75.17,-78.06"/>
<polygon fill="#63b8ff" stroke="#63b8ff" points="76.5,-74.82 65.93,-74.14 73.77,-81.26 76.5,-74.82"/>
</a>
</g>
</g>
<!-- Node4 -->
<g id="Node000004" class="node">
<title>Node4</title>
<g id="a_Node000004"><a xlink:title=" ">
<polygon fill="#e0e0e0" stroke="#999999" points="144.55,-74 94.55,-74 94.55,-55 144.55,-55 144.55,-74"/>
<text text-anchor="middle" x="119.55" y="-62" font-family="Helvetica,sans-Serif" font-size="10.00">stdio.h</text>
</a>
</g>
</g>
<!-- Node1&#45;&gt;Node4 -->
<g id="edge3_Node000001_Node000004" class="edge">
<title>Node1&#45;&gt;Node4</title>
<g id="a_edge3_Node000001_Node000004"><a xlink:title=" ">
<path fill="none" stroke="#63b8ff" d="M168.06,-109.84C158.58,-101.17 146.43,-90.08 136.67,-81.15"/>
<polygon fill="#63b8ff" stroke="#63b8ff" points="138.88,-78.43 129.14,-74.27 134.16,-83.6 138.88,-78.43"/>
</a>
</g>
</g>
<!-- Node5 -->
<g id="Node000005" class="node">
<title>Node5</title>
<g id="a_Node000005"><a xlink:title=" ">
<polygon fill="#e0e0e0" stroke="#999999" points="277.05,-19 224.05,-19 224.05,0 277.05,0 277.05,-19"/>
<text text-anchor="middle" x="250.55" y="-7" font-family="Helvetica,sans-Serif" font-size="10.00">stdlib.h</text>
</a>
</g>
</g>
<!-- Node1&#45;&gt;Node5 -->
<g id="edge4_Node000001_Node000005" class="edge">
<title>Node1&#45;&gt;Node5</title>
<g id="a_edge4_Node000001_Node000005"><a xlink:title=" ">
<path fill="none" stroke="#63b8ff" d="M243.94,-115.18C290.35,-107.02 348.93,-93.24 363.55,-74 386.83,-43.36 328.59,-25.32 287.34,-16.72"/>
<polygon fill="#63b8ff" stroke="#63b8ff" points="287.77,-13.24 277.28,-14.73 286.42,-20.1 287.77,-13.24"/>
</a>
</g>
</g>
<!-- Node6 -->
<g id="Node000006" class="node">
<title>Node6</title>
<g id="a_Node000006"><a xlink:title=" ">
<polygon fill="#e0e0e0" stroke="#999999" points="275.05,-74 222.05,-74 222.05,-55 275.05,-55 275.05,-74"/>
<text text-anchor="middle" x="248.55" y="-62" font-family="Helvetica,sans-Serif" font-size="10.00">string.h</text>
</a>
</g>
</g>
<!-- Node1&#45;&gt;Node6 -->
<g id="edge5_Node000001_Node000006" class="edge">
<title>Node1&#45;&gt;Node6</title>
<g id="a_edge5_Node000001_Node000006"><a xlink:title=" ">
<path fill="none" stroke="#63b8ff" d="M199.28,-109.84C208.91,-101.17 221.24,-90.08 231.16,-81.15"/>
<polygon fill="#63b8ff" stroke="#63b8ff" points="233.72,-83.56 238.81,-74.27 229.03,-78.35 233.72,-83.56"/>
</a>
</g>
</g>
<!-- Node7 -->
<g id="Node000007" class="node">
<title>Node7</title>
<g id="a_Node000007"><a xlink:title=" ">
<polygon fill="#e0e0e0" stroke="#999999" points="354.05,-74 293.05,-74 293.05,-55 354.05,-55 354.05,-74"/>
<text text-anchor="middle" x="323.55" y="-62" font-family="Helvetica,sans-Serif" font-size="10.00">acc.tab.h</text>
</a>
</g>
</g>
<!-- Node1&#45;&gt;Node7 -->
<g id="edge6_Node000001_Node000007" class="edge">
<title>Node1&#45;&gt;Node7</title>
<g id="a_edge6_Node000001_Node000007"><a xlink:title=" ">
<path fill="none" stroke="#63b8ff" d="M217.08,-109.99C240.34,-100.27 271.04,-87.44 293.5,-78.06"/>
<polygon fill="#63b8ff" stroke="#63b8ff" points="295,-81.22 302.87,-74.14 292.3,-74.77 295,-81.22"/>
</a>
</g>
</g>
<!-- Node8 -->
<g id="Node000008" class="node">
<title>Node8</title>
<g id="a_Node000008"><a xlink:href="deprecated_2acc-2_84_2src_2ast_8h.html" target="_top" xlink:title=" ">
<polygon fill="white" stroke="#666666" points="204.05,-74 163.05,-74 163.05,-55 204.05,-55 204.05,-74"/>
<text text-anchor="middle" x="183.55" y="-62" font-family="Helvetica,sans-Serif" font-size="10.00">ast.h</text>
</a>
</g>
</g>
<!-- Node1&#45;&gt;Node8 -->
<g id="edge7_Node000001_Node000008" class="edge">
<title>Node1&#45;&gt;Node8</title>
<g id="a_edge7_Node000001_Node000008"><a xlink:title=" ">
<path fill="none" stroke="#63b8ff" d="M183.55,-109.84C183.55,-102.21 183.55,-92.7 183.55,-84.45"/>
<polygon fill="#63b8ff" stroke="#63b8ff" points="187.05,-84.27 183.55,-74.27 180.05,-84.27 187.05,-84.27"/>
</a>
</g>
</g>
<!-- Node8&#45;&gt;Node2 -->
<g id="edge8_Node000008_Node000002" class="edge">
<title>Node8&#45;&gt;Node2</title>
<g id="a_edge8_Node000008_Node000002"><a xlink:title=" ">
<path fill="none" stroke="#63b8ff" d="M172.62,-54.98C162.47,-47.07 147.13,-35.11 134.9,-25.58"/>
<polygon fill="#63b8ff" stroke="#63b8ff" points="136.71,-22.56 126.67,-19.17 132.41,-28.08 136.71,-22.56"/>
</a>
</g>
</g>
<!-- Node8&#45;&gt;Node5 -->
<g id="edge9_Node000008_Node000005" class="edge">
<title>Node8&#45;&gt;Node5</title>
<g id="a_edge9_Node000008_Node000005"><a xlink:title=" ">
<path fill="none" stroke="#63b8ff" d="M194.31,-54.98C204.31,-47.07 219.43,-35.11 231.48,-25.58"/>
<polygon fill="#63b8ff" stroke="#63b8ff" points="233.92,-28.12 239.59,-19.17 229.57,-22.63 233.92,-28.12"/>
</a>
</g>
</g>
</g>
</svg>
