<?xml version="1.0" encoding="UTF-8" standalone="no"?>
<!DOCTYPE svg PUBLIC "-//W3C//DTD SVG 1.1//EN"
 "http://www.w3.org/Graphics/SVG/1.1/DTD/svg11.dtd">
<!-- Generated by graphviz version 2.43.0 (0)
 -->
<!-- Title: acc&#45;runtime/acc/codegen.c Pages: 1 -->
<svg width="1073pt" height="302pt"
 viewBox="0.00 0.00 1072.50 302.00" xmlns="http://www.w3.org/2000/svg" xmlns:xlink="http://www.w3.org/1999/xlink">
<g id="graph0" class="graph" transform="scale(1 1) rotate(0) translate(4 298)">
<title>acc&#45;runtime/acc/codegen.c</title>
<!-- Node1 -->
<g id="Node000001" class="node">
<title>Node1</title>
<g id="a_Node000001"><a xlink:title=" ">
<polygon fill="#999999" stroke="#666666" points="560,-294 413,-294 413,-275 560,-275 560,-294"/>
<text text-anchor="middle" x="486.5" y="-282" font-family="Helvetica,sans-Serif" font-size="10.00">acc&#45;runtime/acc/codegen.c</text>
</a>
</g>
</g>
<!-- Node2 -->
<g id="Node000002" class="node">
<title>Node2</title>
<g id="a_Node000002"><a xlink:href="hashtable_8h.html" target="_top" xlink:title=" ">
<polygon fill="white" stroke="#666666" points="205.5,-184 131.5,-184 131.5,-165 205.5,-165 205.5,-184"/>
<text text-anchor="middle" x="168.5" y="-172" font-family="Helvetica,sans-Serif" font-size="10.00">hashtable.h</text>
</a>
</g>
</g>
<!-- Node1&#45;&gt;Node2 -->
<g id="edge1_Node000001_Node000002" class="edge">
<title>Node1&#45;&gt;Node2</title>
<g id="a_edge1_Node000001_Node000002"><a xlink:title=" ">
<path fill="none" stroke="#63b8ff" d="M412.84,-279.15C364.09,-274.06 299.76,-263 247.5,-239 222.4,-227.47 198.39,-206.22 183.56,-191.49"/>
<polygon fill="#63b8ff" stroke="#63b8ff" points="185.81,-188.79 176.32,-184.08 180.81,-193.68 185.81,-188.79"/>
</a>
</g>
</g>
<!-- Node3 -->
<g id="Node000003" class="node">
<title>Node3</title>
<g id="a_Node000003"><a xlink:title=" ">
<polygon fill="#e0e0e0" stroke="#999999" points="53,-129 0,-129 0,-110 53,-110 53,-129"/>
<text text-anchor="middle" x="26.5" y="-117" font-family="Helvetica,sans-Serif" font-size="10.00">stdlib.h</text>
</a>
</g>
</g>
<!-- Node1&#45;&gt;Node3 -->
<g id="edge23_Node000001_Node000003" class="edge">
<title>Node1&#45;&gt;Node3</title>
<g id="a_edge23_Node000001_Node000003"><a xlink:title=" ">
<path fill="none" stroke="#63b8ff" d="M412.86,-280.15C324.25,-275.1 181.52,-263.4 134.5,-239 89.17,-215.47 53.34,-164.8 36.68,-137.98"/>
<polygon fill="#63b8ff" stroke="#63b8ff" points="39.59,-136.03 31.43,-129.27 33.59,-139.64 39.59,-136.03"/>
</a>
</g>
</g>
<!-- Node4 -->
<g id="Node000004" class="node">
<title>Node4</title>
<g id="a_Node000004"><a xlink:title=" ">
<polygon fill="#e0e0e0" stroke="#999999" points="195,-129 142,-129 142,-110 195,-110 195,-129"/>
<text text-anchor="middle" x="168.5" y="-117" font-family="Helvetica,sans-Serif" font-size="10.00">string.h</text>
</a>
</g>
</g>
<!-- Node1&#45;&gt;Node4 -->
<g id="edge29_Node000001_Node000004" class="edge">
<title>Node1&#45;&gt;Node4</title>
<g id="a_edge29_Node000001_Node000004"><a xlink:title=" ">
<path fill="none" stroke="#63b8ff" d="M427,-274.95C392.27,-268.35 348.37,-257.2 312.5,-239 284.67,-224.88 217.1,-164.83 185.42,-136.03"/>
<polygon fill="#63b8ff" stroke="#63b8ff" points="187.59,-133.27 177.84,-129.11 182.87,-138.44 187.59,-133.27"/>
</a>
</g>
</g>
<!-- Node6 -->
<g id="Node000006" class="node">
<title>Node6</title>
<g id="a_Node000006"><a xlink:href="hash_8h.html" target="_top" xlink:title=" ">
<polygon fill="white" stroke="#666666" points="193,-239 144,-239 144,-220 193,-220 193,-239"/>
<text text-anchor="middle" x="168.5" y="-227" font-family="Helvetica,sans-Serif" font-size="10.00">hash.h</text>
</a>
</g>
</g>
<!-- Node1&#45;&gt;Node6 -->
<g id="edge5_Node000001_Node000006" class="edge">
<title>Node1&#45;&gt;Node6</title>
<g id="a_edge5_Node000001_Node000006"><a xlink:title=" ">
<path fill="none" stroke="#63b8ff" d="M427.78,-274.98C371.41,-266.6 283.94,-253.04 208.5,-239 206.82,-238.69 205.1,-238.36 203.37,-238.02"/>
<polygon fill="#63b8ff" stroke="#63b8ff" points="203.92,-234.56 193.43,-236 202.53,-241.42 203.92,-234.56"/>
</a>
</g>
</g>
<!-- Node7 -->
<g id="Node000007" class="node">
<title>Node7</title>
<g id="a_Node000007"><a xlink:href="codegen_8h.html" target="_top" xlink:title=" ">
<polygon fill="white" stroke="#666666" points="401,-239 334,-239 334,-220 401,-220 401,-239"/>
<text text-anchor="middle" x="367.5" y="-227" font-family="Helvetica,sans-Serif" font-size="10.00">codegen.h</text>
</a>
</g>
</g>
<!-- Node1&#45;&gt;Node7 -->
<g id="edge7_Node000001_Node000007" class="edge">
<title>Node1&#45;&gt;Node7</title>
<g id="a_edge7_Node000001_Node000007"><a xlink:title=" ">
<path fill="none" stroke="#63b8ff" d="M467.38,-274.98C448.15,-266.42 418.27,-253.11 396.19,-243.28"/>
<polygon fill="#63b8ff" stroke="#63b8ff" points="397.53,-240.04 386.97,-239.17 394.68,-246.44 397.53,-240.04"/>
</a>
</g>
</g>
<!-- Node8 -->
<g id="Node000008" class="node">
<title>Node8</title>
<g id="a_Node000008"><a xlink:title=" ">
<polygon fill="#e0e0e0" stroke="#999999" points="497.5,-129 435.5,-129 435.5,-110 497.5,-110 497.5,-129"/>
<text text-anchor="middle" x="466.5" y="-117" font-family="Helvetica,sans-Serif" font-size="10.00">stdbool.h</text>
</a>
</g>
</g>
<!-- Node1&#45;&gt;Node8 -->
<g id="edge21_Node000001_Node000008" class="edge">
<title>Node1&#45;&gt;Node8</title>
<g id="a_edge21_Node000001_Node000008"><a xlink:title=" ">
<path fill="none" stroke="#63b8ff" d="M477.48,-274.96C469.43,-266.66 458.21,-253.25 453.5,-239 442.24,-204.9 452.21,-162.58 459.81,-138.86"/>
<polygon fill="#63b8ff" stroke="#63b8ff" points="463.23,-139.68 463.15,-129.09 456.61,-137.42 463.23,-139.68"/>
</a>
</g>
</g>
<!-- Node9 -->
<g id="Node000009" class="node">
<title>Node9</title>
<g id="a_Node000009"><a xlink:href="acc-runtime_2acc_2ast_8h.html" target="_top" xlink:title=" ">
<polygon fill="white" stroke="#666666" points="341,-184 300,-184 300,-165 341,-165 341,-184"/>
<text text-anchor="middle" x="320.5" y="-172" font-family="Helvetica,sans-Serif" font-size="10.00">ast.h</text>
</a>
</g>
</g>
<!-- Node1&#45;&gt;Node9 -->
<g id="edge27_Node000001_Node000009" class="edge">
<title>Node1&#45;&gt;Node9</title>
<g id="a_edge27_Node000001_Node000009"><a xlink:title=" ">
<path fill="none" stroke="#63b8ff" d="M429.49,-274.99C388.39,-267.59 337.89,-255.46 324.5,-239 314.38,-226.56 314.45,-207.8 316.41,-193.9"/>
<polygon fill="#63b8ff" stroke="#63b8ff" points="319.87,-194.47 318.23,-184 312.98,-193.21 319.87,-194.47"/>
</a>
</g>
</g>
<!-- Node11 -->
<g id="Node000011" class="node">
<title>Node11</title>
<g id="a_Node000011"><a xlink:title=" ">
<polygon fill="#e0e0e0" stroke="#999999" points="565.5,-129 515.5,-129 515.5,-110 565.5,-110 565.5,-129"/>
<text text-anchor="middle" x="540.5" y="-117" font-family="Helvetica,sans-Serif" font-size="10.00">stdio.h</text>
</a>
</g>
</g>
<!-- Node1&#45;&gt;Node11 -->
<g id="edge22_Node000001_Node000011" class="edge">
<title>Node1&#45;&gt;Node11</title>
<g id="a_edge22_Node000001_Node000011"><a xlink:title=" ">
<path fill="none" stroke="#63b8ff" d="M484.72,-274.93C480.95,-254.67 473.87,-202.67 491.5,-165 497.15,-152.93 507.75,-142.66 517.64,-135.03"/>
<polygon fill="#63b8ff" stroke="#63b8ff" points="519.92,-137.71 526.01,-129.04 515.84,-132.02 519.92,-137.71"/>
</a>
</g>
</g>
<!-- Node12 -->
<g id="Node000012" class="node">
<title>Node12</title>
<g id="a_Node000012"><a xlink:title=" ">
<polygon fill="#e0e0e0" stroke="#999999" points="637,-129 584,-129 584,-110 637,-110 637,-129"/>
<text text-anchor="middle" x="610.5" y="-117" font-family="Helvetica,sans-Serif" font-size="10.00">ctype.h</text>
</a>
</g>
</g>
<!-- Node1&#45;&gt;Node12 -->
<g id="edge30_Node000001_Node000012" class="edge">
<title>Node1&#45;&gt;Node12</title>
<g id="a_edge30_Node000001_Node000012"><a xlink:title=" ">
<path fill="none" stroke="#63b8ff" d="M490.98,-274.99C497.67,-262.52 510.95,-238.74 524.5,-220 546.99,-188.89 577.03,-155.73 595.01,-136.63"/>
<polygon fill="#63b8ff" stroke="#63b8ff" points="597.78,-138.79 602.13,-129.12 592.71,-133.97 597.78,-138.79"/>
</a>
</g>
</g>
<!-- Node17 -->
<g id="Node000017" class="node">
<title>Node17</title>
<g id="a_Node000017"><a xlink:title=" ">
<polygon fill="#e0e0e0" stroke="#999999" points="589.5,-239 533.5,-239 533.5,-220 589.5,-220 589.5,-239"/>
<text text-anchor="middle" x="561.5" y="-227" font-family="Helvetica,sans-Serif" font-size="10.00">unistd.h</text>
</a>
</g>
</g>
<!-- Node1&#45;&gt;Node17 -->
<g id="edge24_Node000001_Node000017" class="edge">
<title>Node1&#45;&gt;Node17</title>
<g id="a_edge24_Node000001_Node000017"><a xlink:title=" ">
<path fill="none" stroke="#63b8ff" d="M498.55,-274.98C509.96,-266.92 527.33,-254.65 540.93,-245.03"/>
<polygon fill="#63b8ff" stroke="#63b8ff" points="543.08,-247.8 549.23,-239.17 539.04,-242.08 543.08,-247.8"/>
</a>
</g>
</g>
<!-- Node18 -->
<g id="Node000018" class="node">
<title>Node18</title>
<g id="a_Node000018"><a xlink:title=" ">
<polygon fill="#e0e0e0" stroke="#999999" points="659,-239 608,-239 608,-220 659,-220 659,-239"/>
<text text-anchor="middle" x="633.5" y="-227" font-family="Helvetica,sans-Serif" font-size="10.00">math.h</text>
</a>
</g>
</g>
<!-- Node1&#45;&gt;Node18 -->
<g id="edge25_Node000001_Node000018" class="edge">
<title>Node1&#45;&gt;Node18</title>
<g id="a_edge25_Node000001_Node000018"><a xlink:title=" ">
<path fill="none" stroke="#63b8ff" d="M510.12,-274.98C534.4,-266.23 572.45,-252.51 599.87,-242.62"/>
<polygon fill="#63b8ff" stroke="#63b8ff" points="601.23,-245.85 609.45,-239.17 598.86,-239.27 601.23,-245.85"/>
</a>
</g>
</g>
<!-- Node19 -->
<g id="Node000019" class="node">
<title>Node19</title>
<g id="a_Node000019"><a xlink:title=" ">
<polygon fill="#e0e0e0" stroke="#999999" points="730,-239 677,-239 677,-220 730,-220 730,-239"/>
<text text-anchor="middle" x="703.5" y="-227" font-family="Helvetica,sans-Serif" font-size="10.00">limits.h</text>
</a>
</g>
</g>
<!-- Node1&#45;&gt;Node19 -->
<g id="edge26_Node000001_Node000019" class="edge">
<title>Node1&#45;&gt;Node19</title>
<g id="a_edge26_Node000001_Node000019"><a xlink:title=" ">
<path fill="none" stroke="#63b8ff" d="M521.36,-274.98C561.35,-265.22 626.59,-249.29 667.17,-239.37"/>
<polygon fill="#63b8ff" stroke="#63b8ff" points="668.04,-242.76 676.93,-236.99 666.38,-235.96 668.04,-242.76"/>
</a>
</g>
</g>
<!-- Node20 -->
<g id="Node000020" class="node">
<title>Node20</title>
<g id="a_Node000020"><a xlink:title=" ">
<polygon fill="#e0e0e0" stroke="#999999" points="789,-239 748,-239 748,-220 789,-220 789,-239"/>
<text text-anchor="middle" x="768.5" y="-227" font-family="Helvetica,sans-Serif" font-size="10.00">tab.h</text>
</a>
</g>
</g>
<!-- Node1&#45;&gt;Node20 -->
<g id="edge28_Node000001_Node000020" class="edge">
<title>Node1&#45;&gt;Node20</title>
<g id="a_edge28_Node000001_Node000020"><a xlink:title=" ">
<path fill="none" stroke="#63b8ff" d="M544.38,-274.99C593.37,-267.39 665.62,-255.29 737.74,-238.96"/>
<polygon fill="#63b8ff" stroke="#63b8ff" points="738.95,-242.28 747.91,-236.63 737.38,-235.45 738.95,-242.28"/>
</a>
</g>
</g>
<!-- Node21 -->
<g id="Node000021" class="node">
<title>Node21</title>
<g id="a_Node000021"><a xlink:href="expr_8h.html" target="_top" xlink:title=" ">
<polygon fill="white" stroke="#666666" points="854,-239 807,-239 807,-220 854,-220 854,-239"/>
<text text-anchor="middle" x="830.5" y="-227" font-family="Helvetica,sans-Serif" font-size="10.00">expr.h</text>
</a>
</g>
</g>
<!-- Node1&#45;&gt;Node21 -->
<g id="edge31_Node000001_Node000021" class="edge">
<title>Node1&#45;&gt;Node21</title>
<g id="a_edge31_Node000001_Node000021"><a xlink:title=" ">
<path fill="none" stroke="#63b8ff" d="M560.05,-275.49C621.18,-268.27 710.6,-256.39 796.85,-239.14"/>
<polygon fill="#63b8ff" stroke="#63b8ff" points="797.7,-242.54 806.81,-237.13 796.31,-235.68 797.7,-242.54"/>
</a>
</g>
</g>
<!-- Node23 -->
<g id="Node000023" class="node">
<title>Node23</title>
<g id="a_Node000023"><a xlink:href="create__node_8h.html" target="_top" xlink:title=" ">
<polygon fill="white" stroke="#666666" points="958.5,-239 872.5,-239 872.5,-220 958.5,-220 958.5,-239"/>
<text text-anchor="middle" x="915.5" y="-227" font-family="Helvetica,sans-Serif" font-size="10.00">create_node.h</text>
</a>
</g>
</g>
<!-- Node1&#45;&gt;Node23 -->
<g id="edge33_Node000001_Node000023" class="edge">
<title>Node1&#45;&gt;Node23</title>
<g id="a_edge33_Node000001_Node000023"><a xlink:title=" ">
<path fill="none" stroke="#63b8ff" d="M560.31,-275.77C634.17,-267.81 751.32,-254.58 862.36,-239.11"/>
<polygon fill="#63b8ff" stroke="#63b8ff" points="862.98,-242.55 872.39,-237.7 862,-235.62 862.98,-242.55"/>
</a>
</g>
</g>
<!-- Node24 -->
<g id="Node000024" class="node">
<title>Node24</title>
<g id="a_Node000024"><a xlink:href="warp__reduce_8h.html" target="_top" xlink:title=" ">
<polygon fill="white" stroke="#666666" points="1064.5,-239 976.5,-239 976.5,-220 1064.5,-220 1064.5,-239"/>
<text text-anchor="middle" x="1020.5" y="-227" font-family="Helvetica,sans-Serif" font-size="10.00">warp_reduce.h</text>
</a>
</g>
</g>
<!-- Node1&#45;&gt;Node24 -->
<g id="edge34_Node000001_Node000024" class="edge">
<title>Node1&#45;&gt;Node24</title>
<g id="a_edge34_Node000001_Node000024"><a xlink:title=" ">
<path fill="none" stroke="#63b8ff" d="M560.01,-278.23C652.38,-271.27 816,-257.8 965.97,-239.11"/>
<polygon fill="#63b8ff" stroke="#63b8ff" points="966.8,-242.54 976.29,-237.82 965.93,-235.59 966.8,-242.54"/>
</a>
</g>
</g>
<!-- Node2&#45;&gt;Node3 -->
<g id="edge2_Node000002_Node000003" class="edge">
<title>Node2&#45;&gt;Node3</title>
<g id="a_edge2_Node000002_Node000003"><a xlink:title=" ">
<path fill="none" stroke="#63b8ff" d="M145.69,-164.98C122.33,-156.27 85.8,-142.63 59.33,-132.75"/>
<polygon fill="#63b8ff" stroke="#63b8ff" points="60.32,-129.39 49.73,-129.17 57.87,-135.95 60.32,-129.39"/>
</a>
</g>
</g>
<!-- Node2&#45;&gt;Node4 -->
<g id="edge3_Node000002_Node000004" class="edge">
<title>Node2&#45;&gt;Node4</title>
<g id="a_edge3_Node000002_Node000004"><a xlink:title=" ">
<path fill="none" stroke="#63b8ff" d="M168.5,-164.75C168.5,-157.8 168.5,-147.85 168.5,-139.13"/>
<polygon fill="#63b8ff" stroke="#63b8ff" points="172,-139.09 168.5,-129.09 165,-139.09 172,-139.09"/>
</a>
</g>
</g>
<!-- Node5 -->
<g id="Node000005" class="node">
<title>Node5</title>
<g id="a_Node000005"><a xlink:title=" ">
<polygon fill="#e0e0e0" stroke="#999999" points="124,-129 71,-129 71,-110 124,-110 124,-129"/>
<text text-anchor="middle" x="97.5" y="-117" font-family="Helvetica,sans-Serif" font-size="10.00">stdint.h</text>
</a>
</g>
</g>
<!-- Node2&#45;&gt;Node5 -->
<g id="edge4_Node000002_Node000005" class="edge">
<title>Node2&#45;&gt;Node5</title>
<g id="a_edge4_Node000002_Node000005"><a xlink:title=" ">
<path fill="none" stroke="#63b8ff" d="M157.09,-164.98C146.39,-157 130.16,-144.88 117.34,-135.31"/>
<polygon fill="#63b8ff" stroke="#63b8ff" points="119.22,-132.35 109.11,-129.17 115.03,-137.96 119.22,-132.35"/>
</a>
</g>
</g>
<!-- Node6&#45;&gt;Node2 -->
<g id="edge6_Node000006_Node000002" class="edge">
<title>Node6&#45;&gt;Node2</title>
<g id="a_edge6_Node000006_Node000002"><a xlink:title=" ">
<path fill="none" stroke="#63b8ff" d="M168.5,-219.75C168.5,-212.8 168.5,-202.85 168.5,-194.13"/>
<polygon fill="#63b8ff" stroke="#63b8ff" points="172,-194.09 168.5,-184.09 165,-194.09 172,-194.09"/>
</a>
</g>
</g>
<!-- Node7&#45;&gt;Node8 -->
<g id="edge8_Node000007_Node000008" class="edge">
<title>Node7&#45;&gt;Node8</title>
<g id="a_edge8_Node000007_Node000008"><a xlink:title=" ">
<path fill="none" stroke="#63b8ff" d="M373.19,-219.84C381.7,-207.2 398.54,-183.2 415.5,-165 425.39,-154.39 437.6,-143.67 447.59,-135.4"/>
<polygon fill="#63b8ff" stroke="#63b8ff" points="449.8,-138.12 455.37,-129.1 445.39,-132.68 449.8,-138.12"/>
</a>
</g>
</g>
<!-- Node7&#45;&gt;Node9 -->
<g id="edge9_Node000007_Node000009" class="edge">
<title>Node7&#45;&gt;Node9</title>
<g id="a_edge9_Node000007_Node000009"><a xlink:title=" ">
<path fill="none" stroke="#63b8ff" d="M359.74,-219.75C353.03,-212.18 343.16,-201.05 334.99,-191.84"/>
<polygon fill="#63b8ff" stroke="#63b8ff" points="337.37,-189.25 328.12,-184.09 332.13,-193.89 337.37,-189.25"/>
</a>
</g>
</g>
<!-- Node9&#45;&gt;Node3 -->
<g id="edge12_Node000009_Node000003" class="edge">
<title>Node9&#45;&gt;Node3</title>
<g id="a_edge12_Node000009_Node000003"><a xlink:title=" ">
<path fill="none" stroke="#63b8ff" d="M299.93,-170.45C257.48,-164.06 156.93,-148.39 63.14,-129.23"/>
<polygon fill="#63b8ff" stroke="#63b8ff" points="63.71,-125.78 53.21,-127.19 62.3,-132.63 63.71,-125.78"/>
</a>
</g>
</g>
<!-- Node9&#45;&gt;Node4 -->
<g id="edge13_Node000009_Node000004" class="edge">
<title>Node9&#45;&gt;Node4</title>
<g id="a_edge13_Node000009_Node000004"><a xlink:title=" ">
<path fill="none" stroke="#63b8ff" d="M299.68,-166.24C274.7,-157.53 232.46,-142.8 202.67,-132.41"/>
<polygon fill="#63b8ff" stroke="#63b8ff" points="203.68,-129.06 193.09,-129.07 201.38,-135.67 203.68,-129.06"/>
</a>
</g>
</g>
<!-- Node9&#45;&gt;Node8 -->
<g id="edge14_Node000009_Node000008" class="edge">
<title>Node9&#45;&gt;Node8</title>
<g id="a_edge14_Node000009_Node000008"><a xlink:title=" ">
<path fill="none" stroke="#63b8ff" d="M341.11,-166.02C365.02,-157.34 404.77,-142.91 433.1,-132.62"/>
<polygon fill="#63b8ff" stroke="#63b8ff" points="434.4,-135.88 442.6,-129.17 432.01,-129.3 434.4,-135.88"/>
</a>
</g>
</g>
<!-- Node10 -->
<g id="Node000010" class="node">
<title>Node10</title>
<g id="a_Node000010"><a xlink:title=" ">
<polygon fill="#e0e0e0" stroke="#999999" points="269.5,-129 213.5,-129 213.5,-110 269.5,-110 269.5,-129"/>
<text text-anchor="middle" x="241.5" y="-117" font-family="Helvetica,sans-Serif" font-size="10.00">assert.h</text>
</a>
</g>
</g>
<!-- Node9&#45;&gt;Node10 -->
<g id="edge10_Node000009_Node000010" class="edge">
<title>Node9&#45;&gt;Node10</title>
<g id="a_edge10_Node000009_Node000010"><a xlink:title=" ">
<path fill="none" stroke="#63b8ff" d="M307.81,-164.98C295.67,-156.84 277.14,-144.41 262.75,-134.76"/>
<polygon fill="#63b8ff" stroke="#63b8ff" points="264.68,-131.84 254.42,-129.17 260.78,-137.65 264.68,-131.84"/>
</a>
</g>
</g>
<!-- Node9&#45;&gt;Node11 -->
<g id="edge11_Node000009_Node000011" class="edge">
<title>Node9&#45;&gt;Node11</title>
<g id="a_edge11_Node000009_Node000011"><a xlink:title=" ">
<path fill="none" stroke="#63b8ff" d="M341.16,-168.63C373.83,-160.91 439.66,-145.3 505.17,-129.31"/>
<polygon fill="#63b8ff" stroke="#63b8ff" points="506.37,-132.62 515.26,-126.84 504.71,-125.82 506.37,-132.62"/>
</a>
</g>
</g>
<!-- Node9&#45;&gt;Node12 -->
<g id="edge15_Node000009_Node000012" class="edge">
<title>Node9&#45;&gt;Node12</title>
<g id="a_edge15_Node000009_Node000012"><a xlink:title=" ">
<path fill="none" stroke="#63b8ff" d="M341.32,-170.28C383.31,-163.68 481.32,-147.84 573.99,-129"/>
<polygon fill="#63b8ff" stroke="#63b8ff" points="574.71,-132.42 583.8,-126.99 573.3,-125.57 574.71,-132.42"/>
</a>
</g>
</g>
<!-- Node13 -->
<g id="Node000013" class="node">
<title>Node13</title>
<g id="a_Node000013"><a xlink:href="vecs_8h.html" target="_top" xlink:title=" ">
<polygon fill="white" stroke="#666666" points="335.5,-129 287.5,-129 287.5,-110 335.5,-110 335.5,-129"/>
<text text-anchor="middle" x="311.5" y="-117" font-family="Helvetica,sans-Serif" font-size="10.00">vecs.h</text>
</a>
</g>
</g>
<!-- Node9&#45;&gt;Node13 -->
<g id="edge16_Node000009_Node000013" class="edge">
<title>Node9&#45;&gt;Node13</title>
<g id="a_edge16_Node000009_Node000013"><a xlink:title=" ">
<path fill="none" stroke="#63b8ff" d="M319.01,-164.75C317.83,-157.8 316.14,-147.85 314.66,-139.13"/>
<polygon fill="#63b8ff" stroke="#63b8ff" points="318.08,-138.36 312.96,-129.09 311.18,-139.53 318.08,-138.36"/>
</a>
</g>
</g>
<!-- Node16 -->
<g id="Node000016" class="node">
<title>Node16</title>
<g id="a_Node000016"><a xlink:title=" ">
<polygon fill="#e0e0e0" stroke="#999999" points="417.5,-129 353.5,-129 353.5,-110 417.5,-110 417.5,-129"/>
<text text-anchor="middle" x="385.5" y="-117" font-family="Helvetica,sans-Serif" font-size="10.00">sys/stat.h</text>
</a>
</g>
</g>
<!-- Node9&#45;&gt;Node16 -->
<g id="edge20_Node000009_Node000016" class="edge">
<title>Node9&#45;&gt;Node16</title>
<g id="a_edge20_Node000009_Node000016"><a xlink:title=" ">
<path fill="none" stroke="#63b8ff" d="M330.94,-164.98C340.65,-157.07 355.32,-145.11 367,-135.58"/>
<polygon fill="#63b8ff" stroke="#63b8ff" points="369.33,-138.2 374.87,-129.17 364.9,-132.78 369.33,-138.2"/>
</a>
</g>
</g>
<!-- Node14 -->
<g id="Node000014" class="node">
<title>Node14</title>
<g id="a_Node000014"><a xlink:title=" ">
<polygon fill="#e0e0e0" stroke="#999999" points="339.5,-19 283.5,-19 283.5,0 339.5,0 339.5,-19"/>
<text text-anchor="middle" x="311.5" y="-7" font-family="Helvetica,sans-Serif" font-size="10.00">stdarg.h</text>
</a>
</g>
</g>
<!-- Node13&#45;&gt;Node14 -->
<g id="edge17_Node000013_Node000014" class="edge">
<title>Node13&#45;&gt;Node14</title>
<g id="a_edge17_Node000013_Node000014"><a xlink:title=" ">
<path fill="none" stroke="#63b8ff" d="M307.54,-109.94C302.41,-97.8 294.45,-74.86 297.5,-55 298.85,-46.19 301.63,-36.74 304.35,-28.82"/>
<polygon fill="#63b8ff" stroke="#63b8ff" points="307.73,-29.77 307.9,-19.18 301.16,-27.35 307.73,-29.77"/>
</a>
</g>
</g>
<!-- Node15 -->
<g id="Node000015" class="node">
<title>Node15</title>
<g id="a_Node000015"><a xlink:href="string__vec_8h.html" target="_top" xlink:title=" ">
<polygon fill="white" stroke="#666666" points="382.5,-74 306.5,-74 306.5,-55 382.5,-55 382.5,-74"/>
<text text-anchor="middle" x="344.5" y="-62" font-family="Helvetica,sans-Serif" font-size="10.00">string_vec.h</text>
</a>
</g>
</g>
<!-- Node13&#45;&gt;Node15 -->
<g id="edge18_Node000013_Node000015" class="edge">
<title>Node13&#45;&gt;Node15</title>
<g id="a_edge18_Node000013_Node000015"><a xlink:title=" ">
<path fill="none" stroke="#63b8ff" d="M316.95,-109.75C321.51,-102.42 328.17,-91.73 333.79,-82.7"/>
<polygon fill="#63b8ff" stroke="#63b8ff" points="336.84,-84.43 339.15,-74.09 330.9,-80.73 336.84,-84.43"/>
</a>
</g>
</g>
<!-- Node15&#45;&gt;Node14 -->
<g id="edge19_Node000015_Node000014" class="edge">
<title>Node15&#45;&gt;Node14</title>
<g id="a_edge19_Node000015_Node000014"><a xlink:title=" ">
<path fill="none" stroke="#63b8ff" d="M339.05,-54.75C334.49,-47.42 327.83,-36.73 322.21,-27.7"/>
<polygon fill="#63b8ff" stroke="#63b8ff" points="325.1,-25.73 316.85,-19.09 319.16,-29.43 325.1,-25.73"/>
</a>
</g>
</g>
<!-- Node22 -->
<g id="Node000022" class="node">
<title>Node22</title>
<g id="a_Node000022"><a xlink:href="tinyexpr_8h.html" target="_top" xlink:title=" ">
<polygon fill="white" stroke="#666666" points="863,-184 798,-184 798,-165 863,-165 863,-184"/>
<text text-anchor="middle" x="830.5" y="-172" font-family="Helvetica,sans-Serif" font-size="10.00">tinyexpr.h</text>
</a>
</g>
</g>
<!-- Node21&#45;&gt;Node22 -->
<g id="edge32_Node000021_Node000022" class="edge">
<title>Node21&#45;&gt;Node22</title>
<g id="a_edge32_Node000021_Node000022"><a xlink:title=" ">
<path fill="none" stroke="#63b8ff" d="M830.5,-219.75C830.5,-212.8 830.5,-202.85 830.5,-194.13"/>
<polygon fill="#63b8ff" stroke="#63b8ff" points="834,-194.09 830.5,-184.09 827,-194.09 834,-194.09"/>
</a>
</g>
</g>
</g>
</svg>
