<?xml version="1.0" encoding="UTF-8" standalone="no"?>
<!DOCTYPE svg PUBLIC "-//W3C//DTD SVG 1.1//EN"
 "http://www.w3.org/Graphics/SVG/1.1/DTD/svg11.dtd">
<!-- Generated by graphviz version 2.43.0 (0)
 -->
<!-- Title: acc&#45;runtime/acc/codegen.h Pages: 1 -->
<svg width="526pt" height="247pt"
 viewBox="0.00 0.00 525.93 247.00" xmlns="http://www.w3.org/2000/svg" xmlns:xlink="http://www.w3.org/1999/xlink">
<g id="graph0" class="graph" transform="scale(1 1) rotate(0) translate(4 243)">
<title>acc&#45;runtime/acc/codegen.h</title>
<!-- Node1 -->
<g id="Node000001" class="node">
<title>Node1</title>
<g id="a_Node000001"><a xlink:title=" ">
<polygon fill="#999999" stroke="#666666" points="212,-239 64,-239 64,-220 212,-220 212,-239"/>
<text text-anchor="middle" x="138" y="-227" font-family="Helvetica,sans-Serif" font-size="10.00">acc&#45;runtime/acc/codegen.h</text>
</a>
</g>
</g>
<!-- Node2 -->
<g id="Node000002" class="node">
<title>Node2</title>
<g id="a_Node000002"><a xlink:title=" ">
<polygon fill="#e0e0e0" stroke="#999999" points="62,-129 0,-129 0,-110 62,-110 62,-129"/>
<text text-anchor="middle" x="31" y="-117" font-family="Helvetica,sans-Serif" font-size="10.00">stdbool.h</text>
</a>
</g>
</g>
<!-- Node1&#45;&gt;Node2 -->
<g id="edge1_Node000001_Node000002" class="edge">
<title>Node1&#45;&gt;Node2</title>
<g id="a_edge1_Node000001_Node000002"><a xlink:title=" ">
<path fill="none" stroke="#63b8ff" d="M129.24,-219.66C111.21,-201.46 69.69,-159.55 46.82,-136.47"/>
<polygon fill="#63b8ff" stroke="#63b8ff" points="49.1,-133.8 39.58,-129.16 44.13,-138.73 49.1,-133.8"/>
</a>
</g>
</g>
<!-- Node3 -->
<g id="Node000003" class="node">
<title>Node3</title>
<g id="a_Node000003"><a xlink:href="acc-runtime_2acc_2ast_8h.html" target="_top" xlink:title=" ">
<polygon fill="white" stroke="#666666" points="240.5,-184 199.5,-184 199.5,-165 240.5,-165 240.5,-184"/>
<text text-anchor="middle" x="220" y="-172" font-family="Helvetica,sans-Serif" font-size="10.00">ast.h</text>
</a>
</g>
</g>
<!-- Node1&#45;&gt;Node3 -->
<g id="edge2_Node000001_Node000003" class="edge">
<title>Node1&#45;&gt;Node3</title>
<g id="a_edge2_Node000001_Node000003"><a xlink:title=" ">
<path fill="none" stroke="#63b8ff" d="M151.17,-219.98C163.77,-211.84 183,-199.41 197.94,-189.76"/>
<polygon fill="#63b8ff" stroke="#63b8ff" points="200.09,-192.54 206.59,-184.17 196.29,-186.66 200.09,-192.54"/>
</a>
</g>
</g>
<!-- Node3&#45;&gt;Node2 -->
<g id="edge5_Node000003_Node000002" class="edge">
<title>Node3&#45;&gt;Node2</title>
<g id="a_edge5_Node000003_Node000002"><a xlink:title=" ">
<path fill="none" stroke="#63b8ff" d="M199.41,-167.73C168.79,-159.14 110.62,-142.83 71.32,-131.81"/>
<polygon fill="#63b8ff" stroke="#63b8ff" points="72.09,-128.39 61.52,-129.06 70.2,-135.13 72.09,-128.39"/>
</a>
</g>
</g>
<!-- Node4 -->
<g id="Node000004" class="node">
<title>Node4</title>
<g id="a_Node000004"><a xlink:title=" ">
<polygon fill="#e0e0e0" stroke="#999999" points="428,-129 372,-129 372,-110 428,-110 428,-129"/>
<text text-anchor="middle" x="400" y="-117" font-family="Helvetica,sans-Serif" font-size="10.00">assert.h</text>
</a>
</g>
</g>
<!-- Node3&#45;&gt;Node4 -->
<g id="edge3_Node000003_Node000004" class="edge">
<title>Node3&#45;&gt;Node4</title>
<g id="a_edge3_Node000003_Node000004"><a xlink:title=" ">
<path fill="none" stroke="#63b8ff" d="M240.65,-167.42C270.19,-158.72 325.03,-142.57 362.02,-131.68"/>
<polygon fill="#63b8ff" stroke="#63b8ff" points="363.34,-134.94 371.94,-128.76 361.36,-128.23 363.34,-134.94"/>
</a>
</g>
</g>
<!-- Node5 -->
<g id="Node000005" class="node">
<title>Node5</title>
<g id="a_Node000005"><a xlink:title=" ">
<polygon fill="#e0e0e0" stroke="#999999" points="499.5,-129 446.5,-129 446.5,-110 499.5,-110 499.5,-129"/>
<text text-anchor="middle" x="473" y="-117" font-family="Helvetica,sans-Serif" font-size="10.00">ctype.h</text>
</a>
</g>
</g>
<!-- Node3&#45;&gt;Node5 -->
<g id="edge4_Node000003_Node000005" class="edge">
<title>Node3&#45;&gt;Node5</title>
<g id="a_edge4_Node000003_Node000005"><a xlink:title=" ">
<path fill="none" stroke="#63b8ff" d="M240.69,-169.47C277.75,-162.2 358.13,-146.24 436.27,-129.11"/>
<polygon fill="#63b8ff" stroke="#63b8ff" points="437.27,-132.47 446.28,-126.9 435.77,-125.63 437.27,-132.47"/>
</a>
</g>
</g>
<!-- Node6 -->
<g id="Node000006" class="node">
<title>Node6</title>
<g id="a_Node000006"><a xlink:title=" ">
<polygon fill="#e0e0e0" stroke="#999999" points="141,-19 91,-19 91,0 141,0 141,-19"/>
<text text-anchor="middle" x="116" y="-7" font-family="Helvetica,sans-Serif" font-size="10.00">stdio.h</text>
</a>
</g>
</g>
<!-- Node3&#45;&gt;Node6 -->
<g id="edge6_Node000003_Node000006" class="edge">
<title>Node3&#45;&gt;Node6</title>
<g id="a_edge6_Node000003_Node000006"><a xlink:title=" ">
<path fill="none" stroke="#63b8ff" d="M214.41,-164.74C197.9,-138.87 149.17,-62.48 127.09,-27.88"/>
<polygon fill="#63b8ff" stroke="#63b8ff" points="129.95,-25.85 121.62,-19.31 124.05,-29.62 129.95,-25.85"/>
</a>
</g>
</g>
<!-- Node7 -->
<g id="Node000007" class="node">
<title>Node7</title>
<g id="a_Node000007"><a xlink:title=" ">
<polygon fill="#e0e0e0" stroke="#999999" points="459.5,-19 406.5,-19 406.5,0 459.5,0 459.5,-19"/>
<text text-anchor="middle" x="433" y="-7" font-family="Helvetica,sans-Serif" font-size="10.00">stdlib.h</text>
</a>
</g>
</g>
<!-- Node3&#45;&gt;Node7 -->
<g id="edge7_Node000003_Node000007" class="edge">
<title>Node3&#45;&gt;Node7</title>
<g id="a_edge7_Node000003_Node000007"><a xlink:title=" ">
<path fill="none" stroke="#63b8ff" d="M240.85,-173.63C301.24,-173.5 474.21,-169.55 509,-129 538.38,-94.75 485.84,-48.26 454.27,-25.01"/>
<polygon fill="#63b8ff" stroke="#63b8ff" points="456.18,-22.06 446.01,-19.09 452.1,-27.76 456.18,-22.06"/>
</a>
</g>
</g>
<!-- Node8 -->
<g id="Node000008" class="node">
<title>Node8</title>
<g id="a_Node000008"><a xlink:title=" ">
<polygon fill="#e0e0e0" stroke="#999999" points="218.5,-19 165.5,-19 165.5,0 218.5,0 218.5,-19"/>
<text text-anchor="middle" x="192" y="-7" font-family="Helvetica,sans-Serif" font-size="10.00">string.h</text>
</a>
</g>
</g>
<!-- Node3&#45;&gt;Node8 -->
<g id="edge8_Node000003_Node000008" class="edge">
<title>Node3&#45;&gt;Node8</title>
<g id="a_edge8_Node000003_Node000008"><a xlink:title=" ">
<path fill="none" stroke="#63b8ff" d="M218.49,-164.74C214.11,-139.2 201.26,-64.43 195.22,-29.23"/>
<polygon fill="#63b8ff" stroke="#63b8ff" points="198.66,-28.57 193.51,-19.31 191.76,-29.76 198.66,-28.57"/>
</a>
</g>
</g>
<!-- Node9 -->
<g id="Node000009" class="node">
<title>Node9</title>
<g id="a_Node000009"><a xlink:title=" ">
<polygon fill="#e0e0e0" stroke="#999999" points="354,-129 290,-129 290,-110 354,-110 354,-129"/>
<text text-anchor="middle" x="322" y="-117" font-family="Helvetica,sans-Serif" font-size="10.00">sys/stat.h</text>
</a>
</g>
</g>
<!-- Node3&#45;&gt;Node9 -->
<g id="edge9_Node000003_Node000009" class="edge">
<title>Node3&#45;&gt;Node9</title>
<g id="a_edge9_Node000003_Node000009"><a xlink:title=" ">
<path fill="none" stroke="#63b8ff" d="M236.39,-164.98C252.57,-156.57 277.57,-143.59 296.38,-133.81"/>
<polygon fill="#63b8ff" stroke="#63b8ff" points="298.05,-136.89 305.31,-129.17 294.83,-130.68 298.05,-136.89"/>
</a>
</g>
</g>
<!-- Node10 -->
<g id="Node000010" class="node">
<title>Node10</title>
<g id="a_Node000010"><a xlink:href="hash_8h.html" target="_top" xlink:title=" ">
<polygon fill="white" stroke="#666666" points="271.5,-129 222.5,-129 222.5,-110 271.5,-110 271.5,-129"/>
<text text-anchor="middle" x="247" y="-117" font-family="Helvetica,sans-Serif" font-size="10.00">hash.h</text>
</a>
</g>
</g>
<!-- Node3&#45;&gt;Node10 -->
<g id="edge10_Node000003_Node000010" class="edge">
<title>Node3&#45;&gt;Node10</title>
<g id="a_edge10_Node000003_Node000010"><a xlink:title=" ">
<path fill="none" stroke="#63b8ff" d="M224.46,-164.75C228.12,-157.57 233.41,-147.18 237.95,-138.27"/>
<polygon fill="#63b8ff" stroke="#63b8ff" points="241.2,-139.59 242.62,-129.09 234.97,-136.41 241.2,-139.59"/>
</a>
</g>
</g>
<!-- Node13 -->
<g id="Node000013" class="node">
<title>Node13</title>
<g id="a_Node000013"><a xlink:href="vecs_8h.html" target="_top" xlink:title=" ">
<polygon fill="white" stroke="#666666" points="128,-129 80,-129 80,-110 128,-110 128,-129"/>
<text text-anchor="middle" x="104" y="-117" font-family="Helvetica,sans-Serif" font-size="10.00">vecs.h</text>
</a>
</g>
</g>
<!-- Node3&#45;&gt;Node13 -->
<g id="edge15_Node000003_Node000013" class="edge">
<title>Node3&#45;&gt;Node13</title>
<g id="a_edge15_Node000003_Node000013"><a xlink:title=" ">
<path fill="none" stroke="#63b8ff" d="M201.36,-164.98C182.7,-156.46 153.75,-143.23 132.26,-133.41"/>
<polygon fill="#63b8ff" stroke="#63b8ff" points="133.53,-130.14 122.98,-129.17 130.62,-136.51 133.53,-130.14"/>
</a>
</g>
</g>
<!-- Node11 -->
<g id="Node000011" class="node">
<title>Node11</title>
<g id="a_Node000011"><a xlink:href="hashtable_8h.html" target="_top" xlink:title=" ">
<polygon fill="white" stroke="#666666" points="299,-74 225,-74 225,-55 299,-55 299,-74"/>
<text text-anchor="middle" x="262" y="-62" font-family="Helvetica,sans-Serif" font-size="10.00">hashtable.h</text>
</a>
</g>
</g>
<!-- Node10&#45;&gt;Node11 -->
<g id="edge11_Node000010_Node000011" class="edge">
<title>Node10&#45;&gt;Node11</title>
<g id="a_edge11_Node000010_Node000011"><a xlink:title=" ">
<path fill="none" stroke="#63b8ff" d="M249.48,-109.75C251.46,-102.72 254.32,-92.62 256.81,-83.84"/>
<polygon fill="#63b8ff" stroke="#63b8ff" points="260.21,-84.66 259.57,-74.09 253.48,-82.76 260.21,-84.66"/>
</a>
</g>
</g>
<!-- Node11&#45;&gt;Node7 -->
<g id="edge12_Node000011_Node000007" class="edge">
<title>Node11&#45;&gt;Node7</title>
<g id="a_edge12_Node000011_Node000007"><a xlink:title=" ">
<path fill="none" stroke="#63b8ff" d="M289.47,-54.98C318.52,-45.98 364.49,-31.73 396.56,-21.8"/>
<polygon fill="#63b8ff" stroke="#63b8ff" points="397.92,-25.04 406.44,-18.73 395.85,-18.35 397.92,-25.04"/>
</a>
</g>
</g>
<!-- Node11&#45;&gt;Node8 -->
<g id="edge13_Node000011_Node000008" class="edge">
<title>Node11&#45;&gt;Node8</title>
<g id="a_edge13_Node000011_Node000008"><a xlink:title=" ">
<path fill="none" stroke="#63b8ff" d="M250.75,-54.98C240.2,-47 224.2,-34.88 211.56,-25.31"/>
<polygon fill="#63b8ff" stroke="#63b8ff" points="213.54,-22.42 203.45,-19.17 209.31,-28 213.54,-22.42"/>
</a>
</g>
</g>
<!-- Node12 -->
<g id="Node000012" class="node">
<title>Node12</title>
<g id="a_Node000012"><a xlink:title=" ">
<polygon fill="#e0e0e0" stroke="#999999" points="289.5,-19 236.5,-19 236.5,0 289.5,0 289.5,-19"/>
<text text-anchor="middle" x="263" y="-7" font-family="Helvetica,sans-Serif" font-size="10.00">stdint.h</text>
</a>
</g>
</g>
<!-- Node11&#45;&gt;Node12 -->
<g id="edge14_Node000011_Node000012" class="edge">
<title>Node11&#45;&gt;Node12</title>
<g id="a_edge14_Node000011_Node000012"><a xlink:title=" ">
<path fill="none" stroke="#63b8ff" d="M262.17,-54.75C262.3,-47.8 262.48,-37.85 262.65,-29.13"/>
<polygon fill="#63b8ff" stroke="#63b8ff" points="266.15,-29.15 262.84,-19.09 259.15,-29.02 266.15,-29.15"/>
</a>
</g>
</g>
<!-- Node14 -->
<g id="Node000014" class="node">
<title>Node14</title>
<g id="a_Node000014"><a xlink:title=" ">
<polygon fill="#e0e0e0" stroke="#999999" points="62,-19 6,-19 6,0 62,0 62,-19"/>
<text text-anchor="middle" x="34" y="-7" font-family="Helvetica,sans-Serif" font-size="10.00">stdarg.h</text>
</a>
</g>
</g>
<!-- Node13&#45;&gt;Node14 -->
<g id="edge16_Node000013_Node000014" class="edge">
<title>Node13&#45;&gt;Node14</title>
<g id="a_edge16_Node000013_Node000014"><a xlink:title=" ">
<path fill="none" stroke="#63b8ff" d="M85.06,-109.85C71.05,-102.41 52.78,-90.3 43,-74 35.02,-60.71 33.06,-43.09 32.93,-29.79"/>
<polygon fill="#63b8ff" stroke="#63b8ff" points="36.44,-29.51 33.18,-19.42 29.44,-29.34 36.44,-29.51"/>
</a>
</g>
</g>
<!-- Node15 -->
<g id="Node000015" class="node">
<title>Node15</title>
<g id="a_Node000015"><a xlink:href="string__vec_8h.html" target="_top" xlink:title=" ">
<polygon fill="white" stroke="#666666" points="128,-74 52,-74 52,-55 128,-55 128,-74"/>
<text text-anchor="middle" x="90" y="-62" font-family="Helvetica,sans-Serif" font-size="10.00">string_vec.h</text>
</a>
</g>
</g>
<!-- Node13&#45;&gt;Node15 -->
<g id="edge17_Node000013_Node000015" class="edge">
<title>Node13&#45;&gt;Node15</title>
<g id="a_edge17_Node000013_Node000015"><a xlink:title=" ">
<path fill="none" stroke="#63b8ff" d="M101.69,-109.75C99.83,-102.72 97.16,-92.62 94.85,-83.84"/>
<polygon fill="#63b8ff" stroke="#63b8ff" points="98.21,-82.86 92.27,-74.09 91.44,-84.65 98.21,-82.86"/>
</a>
</g>
</g>
<!-- Node15&#45;&gt;Node6 -->
<g id="edge19_Node000015_Node000006" class="edge">
<title>Node15&#45;&gt;Node6</title>
<g id="a_edge19_Node000015_Node000006"><a xlink:title=" ">
<path fill="none" stroke="#63b8ff" d="M94.29,-54.75C97.81,-47.57 102.91,-37.18 107.28,-28.27"/>
<polygon fill="#63b8ff" stroke="#63b8ff" points="110.52,-29.61 111.79,-19.09 104.24,-26.53 110.52,-29.61"/>
</a>
</g>
</g>
<!-- Node15&#45;&gt;Node8 -->
<g id="edge20_Node000015_Node000008" class="edge">
<title>Node15&#45;&gt;Node8</title>
<g id="a_edge20_Node000015_Node000008"><a xlink:title=" ">
<path fill="none" stroke="#63b8ff" d="M106.39,-54.98C122.57,-46.57 147.57,-33.59 166.38,-23.81"/>
<polygon fill="#63b8ff" stroke="#63b8ff" points="168.05,-26.89 175.31,-19.17 164.83,-20.68 168.05,-26.89"/>
</a>
</g>
</g>
<!-- Node15&#45;&gt;Node14 -->
<g id="edge18_Node000015_Node000014" class="edge">
<title>Node15&#45;&gt;Node14</title>
<g id="a_edge18_Node000015_Node000014"><a xlink:title=" ">
<path fill="none" stroke="#63b8ff" d="M81,-54.98C72.81,-47.23 60.49,-35.58 50.53,-26.14"/>
<polygon fill="#63b8ff" stroke="#63b8ff" points="52.83,-23.5 43.16,-19.17 48.02,-28.59 52.83,-23.5"/>
</a>
</g>
</g>
</g>
</svg>
