<?xml version="1.0" encoding="UTF-8" standalone="no"?>
<!DOCTYPE svg PUBLIC "-//W3C//DTD SVG 1.1//EN"
 "http://www.w3.org/Graphics/SVG/1.1/DTD/svg11.dtd">
<!-- Generated by graphviz version 14.1.2 (0)
 -->
<!-- Title: acc&#45;runtime/api/common_kernels.h Pages: 1 -->
<svg width="743pt" height="212pt"
 viewBox="0.00 0.00 743.00 212.00" xmlns="http://www.w3.org/2000/svg" xmlns:xlink="http://www.w3.org/1999/xlink">
<g id="graph0" class="graph" transform="scale(1 1) rotate(0) translate(4 207.75)">
<title>acc&#45;runtime/api/common_kernels.h</title>
<!-- Node1 -->
<g id="Node000001" class="node">
<title>Node1</title>
<g id="a_Node000001"><a xlink:title=" ">
<polygon fill="#999999" stroke="#666666" points="249.62,-203.75 111.38,-203.75 111.38,-170.25 249.62,-170.25 249.62,-203.75"/>
<text xml:space="preserve" text-anchor="start" x="119.38" y="-190.25" font-family="Helvetica,sans-Serif" font-size="10.00">acc&#45;runtime/api/common</text>
<text xml:space="preserve" text-anchor="middle" x="180.5" y="-177.5" font-family="Helvetica,sans-Serif" font-size="10.00">_kernels.h</text>
</a>
</g>
</g>
<!-- Node2 -->
<g id="Node000002" class="node">
<title>Node2</title>
<g id="a_Node000002"><a xlink:title=" ">
<polygon fill="#e0e0e0" stroke="#999999" points="55,-77.5 0,-77.5 0,-56.75 55,-56.75 55,-77.5"/>
<text xml:space="preserve" text-anchor="middle" x="27.5" y="-64" font-family="Helvetica,sans-Serif" font-size="10.00">stddef.h</text>
</a>
</g>
</g>
<!-- Node1&#45;&gt;Node2 -->
<g id="edge1_Node000001_Node000002" class="edge">
<title>Node1&#45;&gt;Node2</title>
<g id="a_edge1_Node000001_Node000002"><a xlink:title=" ">
<path fill="none" stroke="#63b8ff" d="M159.55,-169.86C130.58,-147.54 78.55,-107.45 49.19,-84.84"/>
<polygon fill="#63b8ff" stroke="#63b8ff" points="51.43,-82.14 41.37,-78.81 47.15,-87.69 51.43,-82.14"/>
</a>
</g>
</g>
<!-- Node3 -->
<g id="Node000003" class="node">
<title>Node3</title>
<g id="a_Node000003"><a xlink:href="acreal_8h.html" target="_top" xlink:title=" ">
<polygon fill="white" stroke="#666666" points="128,-77.5 73,-77.5 73,-56.75 128,-56.75 128,-77.5"/>
<text xml:space="preserve" text-anchor="middle" x="100.5" y="-64" font-family="Helvetica,sans-Serif" font-size="10.00">acreal.h</text>
</a>
</g>
</g>
<!-- Node1&#45;&gt;Node3 -->
<g id="edge2_Node000001_Node000003" class="edge">
<title>Node1&#45;&gt;Node3</title>
<g id="a_edge2_Node000001_Node000003"><a xlink:title=" ">
<path fill="none" stroke="#63b8ff" d="M169.71,-170.1C155.14,-148.63 129.19,-110.4 113.54,-87.35"/>
<polygon fill="#63b8ff" stroke="#63b8ff" points="116.52,-85.49 108.01,-79.19 110.73,-89.42 116.52,-85.49"/>
</a>
</g>
</g>
<!-- Node4 -->
<g id="Node000004" class="node">
<title>Node4</title>
<g id="a_Node000004"><a xlink:href="astaroth__device__headers_8h.html" target="_top" xlink:title=" ">
<polygon fill="white" stroke="#666666" points="293.12,-77.5 145.88,-77.5 145.88,-56.75 293.12,-56.75 293.12,-77.5"/>
<text xml:space="preserve" text-anchor="middle" x="219.5" y="-64" font-family="Helvetica,sans-Serif" font-size="10.00">astaroth_device_headers.h</text>
</a>
</g>
</g>
<!-- Node1&#45;&gt;Node4 -->
<g id="edge3_Node000001_Node000004" class="edge">
<title>Node1&#45;&gt;Node4</title>
<g id="a_edge3_Node000001_Node000004"><a xlink:title=" ">
<path fill="none" stroke="#63b8ff" d="M183.94,-169.94C187.29,-155.1 192.86,-132.54 199.5,-113.5 202.47,-104.98 206.36,-95.83 209.92,-88"/>
<polygon fill="#63b8ff" stroke="#63b8ff" points="213.04,-89.59 214.11,-79.05 206.7,-86.62 213.04,-89.59"/>
</a>
</g>
</g>
<!-- Node7 -->
<g id="Node000007" class="node">
<title>Node7</title>
<g id="a_Node000007"><a xlink:href="func__define_8h.html" target="_top" xlink:title=" ">
<polygon fill="white" stroke="#666666" points="680.12,-134.25 598.88,-134.25 598.88,-113.5 680.12,-113.5 680.12,-134.25"/>
<text xml:space="preserve" text-anchor="middle" x="639.5" y="-120.75" font-family="Helvetica,sans-Serif" font-size="10.00">func_define.h</text>
</a>
</g>
</g>
<!-- Node1&#45;&gt;Node7 -->
<g id="edge6_Node000001_Node000007" class="edge">
<title>Node1&#45;&gt;Node7</title>
<g id="a_edge6_Node000001_Node000007"><a xlink:title=" ">
<path fill="none" stroke="#63b8ff" d="M249.71,-176.78C342.28,-164.46 504.33,-142.88 587.31,-131.83"/>
<polygon fill="#63b8ff" stroke="#63b8ff" points="587.53,-135.33 596.98,-130.54 586.6,-128.39 587.53,-135.33"/>
</a>
</g>
</g>
<!-- Node10 -->
<g id="Node000010" class="node">
<title>Node10</title>
<g id="a_Node000010"><a xlink:href="host__datatypes_8h.html" target="_top" xlink:title=" ">
<polygon fill="white" stroke="#666666" points="308.5,-134.25 208.5,-134.25 208.5,-113.5 308.5,-113.5 308.5,-134.25"/>
<text xml:space="preserve" text-anchor="middle" x="258.5" y="-120.75" font-family="Helvetica,sans-Serif" font-size="10.00">host_datatypes.h</text>
</a>
</g>
</g>
<!-- Node1&#45;&gt;Node10 -->
<g id="edge9_Node000001_Node000010" class="edge">
<title>Node1&#45;&gt;Node10</title>
<g id="a_edge9_Node000001_Node000010"><a xlink:title=" ">
<path fill="none" stroke="#63b8ff" d="M200.99,-169.94C212.14,-161.21 225.9,-150.42 237.17,-141.59"/>
<polygon fill="#63b8ff" stroke="#63b8ff" points="239.04,-144.57 244.75,-135.65 234.72,-139.06 239.04,-144.57"/>
</a>
</g>
</g>
<!-- Node5 -->
<g id="Node000005" class="node">
<title>Node5</title>
<g id="a_Node000005"><a xlink:title=" ">
<polygon fill="#e0e0e0" stroke="#999999" points="219.5,-20.75 107.5,-20.75 107.5,0 219.5,0 219.5,-20.75"/>
<text xml:space="preserve" text-anchor="middle" x="163.5" y="-7.25" font-family="Helvetica,sans-Serif" font-size="10.00">cuda_runtime_api.h</text>
</a>
</g>
</g>
<!-- Node4&#45;&gt;Node5 -->
<g id="edge4_Node000004_Node000005" class="edge">
<title>Node4&#45;&gt;Node5</title>
<g id="a_edge4_Node000004_Node000005"><a xlink:title=" ">
<path fill="none" stroke="#63b8ff" d="M209.49,-56.34C201.76,-48.78 190.87,-38.14 181.63,-29.1"/>
<polygon fill="#63b8ff" stroke="#63b8ff" points="184.1,-26.62 174.51,-22.14 179.21,-31.63 184.1,-26.62"/>
</a>
</g>
</g>
<!-- Node6 -->
<g id="Node000006" class="node">
<title>Node6</title>
<g id="a_Node000006"><a xlink:title=" ">
<polygon fill="#e0e0e0" stroke="#999999" points="313.12,-20.75 237.88,-20.75 237.88,0 313.12,0 313.12,-20.75"/>
<text xml:space="preserve" text-anchor="middle" x="275.5" y="-7.25" font-family="Helvetica,sans-Serif" font-size="10.00">cuda_fp16.h</text>
</a>
</g>
</g>
<!-- Node4&#45;&gt;Node6 -->
<g id="edge5_Node000004_Node000006" class="edge">
<title>Node4&#45;&gt;Node6</title>
<g id="a_edge5_Node000004_Node000006"><a xlink:title=" ">
<path fill="none" stroke="#63b8ff" d="M229.51,-56.34C237.24,-48.78 248.13,-38.14 257.37,-29.1"/>
<polygon fill="#63b8ff" stroke="#63b8ff" points="259.79,-31.63 264.49,-22.14 254.9,-26.62 259.79,-31.63"/>
</a>
</g>
</g>
<!-- Node8 -->
<g id="Node000008" class="node">
<title>Node8</title>
<g id="a_Node000008"><a xlink:title=" ">
<polygon fill="#e0e0e0" stroke="#999999" points="664,-77.5 615,-77.5 615,-56.75 664,-56.75 664,-77.5"/>
<text xml:space="preserve" text-anchor="middle" x="639.5" y="-64" font-family="Helvetica,sans-Serif" font-size="10.00">stdio.h</text>
</a>
</g>
</g>
<!-- Node7&#45;&gt;Node8 -->
<g id="edge7_Node000007_Node000008" class="edge">
<title>Node7&#45;&gt;Node8</title>
<g id="a_edge7_Node000007_Node000008"><a xlink:title=" ">
<path fill="none" stroke="#63b8ff" d="M639.5,-113.09C639.5,-106.47 639.5,-97.47 639.5,-89.27"/>
<polygon fill="#63b8ff" stroke="#63b8ff" points="643,-89.34 639.5,-79.34 636,-89.34 643,-89.34"/>
</a>
</g>
</g>
<!-- Node9 -->
<g id="Node000009" class="node">
<title>Node9</title>
<g id="a_Node000009"><a xlink:title=" ">
<polygon fill="#e0e0e0" stroke="#999999" points="734.5,-77.5 682.5,-77.5 682.5,-56.75 734.5,-56.75 734.5,-77.5"/>
<text xml:space="preserve" text-anchor="middle" x="708.5" y="-64" font-family="Helvetica,sans-Serif" font-size="10.00">stdlib.h</text>
</a>
</g>
</g>
<!-- Node7&#45;&gt;Node9 -->
<g id="edge8_Node000007_Node000009" class="edge">
<title>Node7&#45;&gt;Node9</title>
<g id="a_edge8_Node000007_Node000009"><a xlink:title=" ">
<path fill="none" stroke="#63b8ff" d="M651.84,-113.09C661.75,-105.22 675.89,-94 687.56,-84.74"/>
<polygon fill="#63b8ff" stroke="#63b8ff" points="689.43,-87.73 695.09,-78.77 685.08,-82.24 689.43,-87.73"/>
</a>
</g>
</g>
<!-- Node10&#45;&gt;Node2 -->
<g id="edge11_Node000010_Node000002" class="edge">
<title>Node10&#45;&gt;Node2</title>
<g id="a_edge11_Node000010_Node000002"><a xlink:title=" ">
<path fill="none" stroke="#63b8ff" d="M214.66,-113.02C177.49,-104.58 122.47,-91.92 66.27,-78.14"/>
<polygon fill="#63b8ff" stroke="#63b8ff" points="67.41,-74.82 56.86,-75.83 65.73,-81.61 67.41,-74.82"/>
</a>
</g>
</g>
<!-- Node10&#45;&gt;Node3 -->
<g id="edge12_Node000010_Node000003" class="edge">
<title>Node10&#45;&gt;Node3</title>
<g id="a_edge12_Node000010_Node000003"><a xlink:title=" ">
<path fill="none" stroke="#63b8ff" d="M230.25,-113.09C204.79,-104.26 167.12,-91.21 138.92,-81.44"/>
<polygon fill="#63b8ff" stroke="#63b8ff" points="140.26,-78.2 129.67,-78.23 137.97,-84.81 140.26,-78.2"/>
</a>
</g>
</g>
<!-- Node10&#45;&gt;Node4 -->
<g id="edge14_Node000010_Node000004" class="edge">
<title>Node10&#45;&gt;Node4</title>
<g id="a_edge14_Node000010_Node000004"><a xlink:title=" ">
<path fill="none" stroke="#63b8ff" d="M251.53,-113.09C246.37,-105.85 239.18,-95.76 232.93,-86.97"/>
<polygon fill="#63b8ff" stroke="#63b8ff" points="235.94,-85.18 227.29,-79.06 230.24,-89.24 235.94,-85.18"/>
</a>
</g>
</g>
<!-- Node11 -->
<g id="Node000011" class="node">
<title>Node11</title>
<g id="a_Node000011"><a xlink:title=" ">
<polygon fill="#e0e0e0" stroke="#999999" points="372,-77.5 311,-77.5 311,-56.75 372,-56.75 372,-77.5"/>
<text xml:space="preserve" text-anchor="middle" x="341.5" y="-64" font-family="Helvetica,sans-Serif" font-size="10.00">stdbool.h</text>
</a>
</g>
</g>
<!-- Node10&#45;&gt;Node11 -->
<g id="edge10_Node000010_Node000011" class="edge">
<title>Node10&#45;&gt;Node11</title>
<g id="a_edge10_Node000010_Node000011"><a xlink:title=" ">
<path fill="none" stroke="#63b8ff" d="M273.34,-113.09C285.61,-104.99 303.29,-93.33 317.56,-83.92"/>
<polygon fill="#63b8ff" stroke="#63b8ff" points="319.11,-87.09 325.53,-78.66 315.25,-81.25 319.11,-87.09"/>
</a>
</g>
</g>
<!-- Node12 -->
<g id="Node000012" class="node">
<title>Node12</title>
<g id="a_Node000012"><a xlink:title=" ">
<polygon fill="#e0e0e0" stroke="#999999" points="484.5,-77.5 390.5,-77.5 390.5,-56.75 484.5,-56.75 484.5,-77.5"/>
<text xml:space="preserve" text-anchor="middle" x="437.5" y="-64" font-family="Helvetica,sans-Serif" font-size="10.00">builtin_enums.h</text>
</a>
</g>
</g>
<!-- Node10&#45;&gt;Node12 -->
<g id="edge13_Node000010_Node000012" class="edge">
<title>Node10&#45;&gt;Node12</title>
<g id="a_edge13_Node000010_Node000012"><a xlink:title=" ">
<path fill="none" stroke="#63b8ff" d="M290.5,-113.09C319.56,-104.2 362.63,-91.02 394.65,-81.23"/>
<polygon fill="#63b8ff" stroke="#63b8ff" points="395.49,-84.64 404.03,-78.36 393.44,-77.94 395.49,-84.64"/>
</a>
</g>
</g>
<!-- Node13 -->
<g id="Node000013" class="node">
<title>Node13</title>
<g id="a_Node000013"><a xlink:title=" ">
<polygon fill="#e0e0e0" stroke="#999999" points="596.5,-77.5 502.5,-77.5 502.5,-56.75 596.5,-56.75 596.5,-77.5"/>
<text xml:space="preserve" text-anchor="middle" x="549.5" y="-64" font-family="Helvetica,sans-Serif" font-size="10.00">user_typedefs.h</text>
</a>
</g>
</g>
<!-- Node10&#45;&gt;Node13 -->
<g id="edge15_Node000010_Node000013" class="edge">
<title>Node10&#45;&gt;Node13</title>
<g id="a_edge15_Node000010_Node000013"><a xlink:title=" ">
<path fill="none" stroke="#63b8ff" d="M308.86,-113.4C359.58,-103.86 437.78,-89.14 491.17,-79.1"/>
<polygon fill="#63b8ff" stroke="#63b8ff" points="491.5,-82.6 500.68,-77.31 490.21,-75.72 491.5,-82.6"/>
</a>
</g>
</g>
</g>
</svg>
