<?xml version="1.0" encoding="UTF-8" standalone="no"?>
<!DOCTYPE svg PUBLIC "-//W3C//DTD SVG 1.1//EN"
 "http://www.w3.org/Graphics/SVG/1.1/DTD/svg11.dtd">
<!-- Generated by graphviz version 2.43.0 (0)
 -->
<!-- Title: acc&#45;runtime/api/common_kernels.cc Pages: 1 -->
<svg width="2988pt" height="269pt"
 viewBox="0.00 0.00 2987.97 269.00" xmlns="http://www.w3.org/2000/svg" xmlns:xlink="http://www.w3.org/1999/xlink">
<g id="graph0" class="graph" transform="scale(1 1) rotate(0) translate(4 265)">
<title>acc&#45;runtime/api/common_kernels.cc</title>
<!-- Node1 -->
<g id="Node000001" class="node">
<title>Node1</title>
<g id="a_Node000001"><a xlink:title=" ">
<polygon fill="#999999" stroke="#666666" points="1850.5,-261 1711.5,-261 1711.5,-231 1850.5,-231 1850.5,-261"/>
<text text-anchor="start" x="1719.5" y="-249" font-family="Helvetica,sans-Serif" font-size="10.00">acc&#45;runtime/api/common</text>
<text text-anchor="middle" x="1781" y="-238" font-family="Helvetica,sans-Serif" font-size="10.00">_kernels.cc</text>
</a>
</g>
</g>
<!-- Node2 -->
<g id="Node000002" class="node">
<title>Node2</title>
<g id="a_Node000002"><a xlink:href="acc__runtime_8h.html" target="_top" xlink:title=" ">
<polygon fill="white" stroke="#666666" points="1757,-195 1671,-195 1671,-176 1757,-176 1757,-195"/>
<text text-anchor="middle" x="1714" y="-183" font-family="Helvetica,sans-Serif" font-size="10.00">acc_runtime.h</text>
</a>
</g>
</g>
<!-- Node1&#45;&gt;Node2 -->
<g id="edge1_Node000001_Node000002" class="edge">
<title>Node1&#45;&gt;Node2</title>
<g id="a_edge1_Node000001_Node000002"><a xlink:title=" ">
<path fill="none" stroke="#63b8ff" d="M1764.78,-230.84C1754.76,-222.09 1741.89,-210.85 1731.62,-201.88"/>
<polygon fill="#63b8ff" stroke="#63b8ff" points="1733.87,-199.21 1724.04,-195.27 1729.27,-204.48 1733.87,-199.21"/>
</a>
</g>
</g>
<!-- Node40 -->
<g id="Node000040" class="node">
<title>Node40</title>
<g id="a_Node000040"><a xlink:title=" ">
<polygon fill="#e0e0e0" stroke="#999999" points="1999.5,-195 1938.5,-195 1938.5,-176 1999.5,-176 1999.5,-195"/>
<text text-anchor="middle" x="1969" y="-183" font-family="Helvetica,sans-Serif" font-size="10.00">kernels.h</text>
</a>
</g>
</g>
<!-- Node1&#45;&gt;Node40 -->
<g id="edge48_Node000001_Node000040" class="edge">
<title>Node1&#45;&gt;Node40</title>
<g id="a_edge48_Node000001_Node000040"><a xlink:title=" ">
<path fill="none" stroke="#63b8ff" d="M1826.03,-230.99C1858.34,-220.94 1901.34,-207.55 1931.73,-198.1"/>
<polygon fill="#63b8ff" stroke="#63b8ff" points="1933,-201.37 1941.51,-195.05 1930.92,-194.68 1933,-201.37"/>
</a>
</g>
</g>
<!-- Node41 -->
<g id="Node000041" class="node">
<title>Node41</title>
<g id="a_Node000041"><a xlink:href="math__utils_8h.html" target="_top" xlink:title="Brief info.">
<polygon fill="white" stroke="#666666" points="444.5,-195 367.5,-195 367.5,-176 444.5,-176 444.5,-195"/>
<text text-anchor="middle" x="406" y="-183" font-family="Helvetica,sans-Serif" font-size="10.00">math_utils.h</text>
</a>
</g>
</g>
<!-- Node1&#45;&gt;Node41 -->
<g id="edge49_Node000001_Node000041" class="edge">
<title>Node1&#45;&gt;Node41</title>
<g id="a_edge49_Node000001_Node000041"><a xlink:title=" ">
<path fill="none" stroke="#63b8ff" d="M1711.4,-242.04C1468.59,-231.71 662.56,-197.42 455.06,-188.59"/>
<polygon fill="#63b8ff" stroke="#63b8ff" points="454.92,-185.08 444.78,-188.15 454.62,-192.07 454.92,-185.08"/>
</a>
</g>
</g>
<!-- Node44 -->
<g id="Node000044" class="node">
<title>Node44</title>
<g id="a_Node000044"><a xlink:href="astaroth__cuda__wrappers_8h.html" target="_top" xlink:title=" ">
<polygon fill="white" stroke="#666666" points="1920.5,-195 1775.5,-195 1775.5,-176 1920.5,-176 1920.5,-195"/>
<text text-anchor="middle" x="1848" y="-183" font-family="Helvetica,sans-Serif" font-size="10.00">astaroth_cuda_wrappers.h</text>
</a>
</g>
</g>
<!-- Node1&#45;&gt;Node44 -->
<g id="edge59_Node000001_Node000044" class="edge">
<title>Node1&#45;&gt;Node44</title>
<g id="a_edge59_Node000001_Node000044"><a xlink:title=" ">
<path fill="none" stroke="#63b8ff" d="M1797.22,-230.84C1807.24,-222.09 1820.11,-210.85 1830.38,-201.88"/>
<polygon fill="#63b8ff" stroke="#63b8ff" points="1832.73,-204.48 1837.96,-195.27 1828.13,-199.21 1832.73,-204.48"/>
</a>
</g>
</g>
<!-- Node3 -->
<g id="Node000003" class="node">
<title>Node3</title>
<g id="a_Node000003"><a xlink:title=" ">
<polygon fill="#e0e0e0" stroke="#999999" points="559,-74 509,-74 509,-55 559,-55 559,-74"/>
<text text-anchor="middle" x="534" y="-62" font-family="Helvetica,sans-Serif" font-size="10.00">stdio.h</text>
</a>
</g>
</g>
<!-- Node2&#45;&gt;Node3 -->
<g id="edge2_Node000002_Node000003" class="edge">
<title>Node2&#45;&gt;Node3</title>
<g id="a_edge2_Node000002_Node000003"><a xlink:title=" ">
<path fill="none" stroke="#63b8ff" d="M1670.7,-184C1468.19,-181.49 622.4,-169.28 575,-140 555.03,-127.66 544.05,-101.91 538.6,-84.17"/>
<polygon fill="#63b8ff" stroke="#63b8ff" points="541.92,-83.05 535.88,-74.35 535.17,-84.92 541.92,-83.05"/>
</a>
</g>
</g>
<!-- Node4 -->
<g id="Node000004" class="node">
<title>Node4</title>
<g id="a_Node000004"><a xlink:title=" ">
<polygon fill="#e0e0e0" stroke="#999999" points="1008,-74 946,-74 946,-55 1008,-55 1008,-74"/>
<text text-anchor="middle" x="977" y="-62" font-family="Helvetica,sans-Serif" font-size="10.00">stdbool.h</text>
</a>
</g>
</g>
<!-- Node2&#45;&gt;Node4 -->
<g id="edge3_Node000002_Node000004" class="edge">
<title>Node2&#45;&gt;Node4</title>
<g id="a_edge3_Node000002_Node000004"><a xlink:title=" ">
<path fill="none" stroke="#63b8ff" d="M1757.13,-177.45C1833.03,-165.04 1982.54,-140.54 1983,-140 1991.62,-129.83 1992.25,-119.6 1983,-110 1947.12,-72.76 1134.12,-79.98 1018.53,-73.51"/>
<polygon fill="#63b8ff" stroke="#63b8ff" points="1018.6,-70 1008.36,-72.7 1018.05,-76.98 1018.6,-70"/>
</a>
</g>
</g>
<!-- Node5 -->
<g id="Node000005" class="node">
<title>Node5</title>
<g id="a_Node000005"><a xlink:href="device__headers_8h.html" target="_top" xlink:title=" ">
<polygon fill="white" stroke="#666666" points="1242,-74 1140,-74 1140,-55 1242,-55 1242,-74"/>
<text text-anchor="middle" x="1191" y="-62" font-family="Helvetica,sans-Serif" font-size="10.00">device_headers.h</text>
</a>
</g>
</g>
<!-- Node2&#45;&gt;Node5 -->
<g id="edge4_Node000002_Node000005" class="edge">
<title>Node2&#45;&gt;Node5</title>
<g id="a_edge4_Node000002_Node000005"><a xlink:title=" ">
<path fill="none" stroke="#63b8ff" d="M1757.12,-177.39C1760.12,-176.91 1763.11,-176.44 1766,-176 1879.58,-158.54 2095.04,-193.42 2016,-110 1989.81,-82.36 1439.37,-69.96 1252.47,-66.53"/>
<polygon fill="#63b8ff" stroke="#63b8ff" points="1252.32,-63.03 1242.26,-66.34 1252.2,-70.02 1252.32,-63.03"/>
</a>
</g>
</g>
<!-- Node8 -->
<g id="Node000008" class="node">
<title>Node8</title>
<g id="a_Node000008"><a xlink:title=" ">
<polygon fill="#e0e0e0" stroke="#999999" points="2200.5,-74 2105.5,-74 2105.5,-55 2200.5,-55 2200.5,-74"/>
<text text-anchor="middle" x="2153" y="-62" font-family="Helvetica,sans-Serif" font-size="10.00">builtin_enums.h</text>
</a>
</g>
</g>
<!-- Node2&#45;&gt;Node8 -->
<g id="edge7_Node000002_Node000008" class="edge">
<title>Node2&#45;&gt;Node8</title>
<g id="a_edge7_Node000002_Node000008"><a xlink:title=" ">
<path fill="none" stroke="#63b8ff" d="M1757.07,-177.01C1760.09,-176.62 1763.09,-176.28 1766,-176 1832.78,-169.57 2926.28,-188.14 2973,-140 2982.29,-130.43 2982.17,-119.68 2973,-110 2946.82,-82.36 2393.44,-69.86 2210.87,-66.48"/>
<polygon fill="#63b8ff" stroke="#63b8ff" points="2210.72,-62.98 2200.66,-66.3 2210.6,-69.98 2210.72,-62.98"/>
</a>
</g>
</g>
<!-- Node9 -->
<g id="Node000009" class="node">
<title>Node9</title>
<g id="a_Node000009"><a xlink:href="datatypes_8h.html" target="_top" xlink:title=" ">
<polygon fill="white" stroke="#666666" points="658,-134.5 584,-134.5 584,-115.5 658,-115.5 658,-134.5"/>
<text text-anchor="middle" x="621" y="-122.5" font-family="Helvetica,sans-Serif" font-size="10.00">datatypes.h</text>
</a>
</g>
</g>
<!-- Node2&#45;&gt;Node9 -->
<g id="edge8_Node000002_Node000009" class="edge">
<title>Node2&#45;&gt;Node9</title>
<g id="a_edge8_Node000002_Node000009"><a xlink:title=" ">
<path fill="none" stroke="#63b8ff" d="M1670.88,-184.12C1499.31,-182.38 864.84,-173.75 667,-140 663.04,-139.32 658.94,-138.41 654.9,-137.37"/>
<polygon fill="#63b8ff" stroke="#63b8ff" points="655.65,-133.94 645.07,-134.58 653.74,-140.67 655.65,-133.94"/>
</a>
</g>
</g>
<!-- Node17 -->
<g id="Node000017" class="node">
<title>Node17</title>
<g id="a_Node000017"><a xlink:href="errchk_8h.html" target="_top" xlink:title="Brief info.">
<polygon fill="white" stroke="#666666" points="528,-134.5 472,-134.5 472,-115.5 528,-115.5 528,-134.5"/>
<text text-anchor="middle" x="500" y="-122.5" font-family="Helvetica,sans-Serif" font-size="10.00">errchk.h</text>
</a>
</g>
</g>
<!-- Node2&#45;&gt;Node17 -->
<g id="edge20_Node000002_Node000017" class="edge">
<title>Node2&#45;&gt;Node17</title>
<g id="a_edge20_Node000002_Node000017"><a xlink:title=" ">
<path fill="none" stroke="#63b8ff" d="M1670.8,-184.5C1486.48,-184.22 765,-180.54 542,-140 538.57,-139.38 535.03,-138.53 531.54,-137.57"/>
<polygon fill="#63b8ff" stroke="#63b8ff" points="532.51,-134.21 521.93,-134.61 530.45,-140.9 532.51,-134.21"/>
</a>
</g>
</g>
<!-- Node21 -->
<g id="Node000021" class="node">
<title>Node21</title>
<g id="a_Node000021"><a xlink:title=" ">
<polygon fill="#e0e0e0" stroke="#999999" points="763.5,-134.5 676.5,-134.5 676.5,-115.5 763.5,-115.5 763.5,-134.5"/>
<text text-anchor="middle" x="720" y="-122.5" font-family="Helvetica,sans-Serif" font-size="10.00">user_defines.h</text>
</a>
</g>
</g>
<!-- Node2&#45;&gt;Node21 -->
<g id="edge29_Node000002_Node000021" class="edge">
<title>Node2&#45;&gt;Node21</title>
<g id="a_edge29_Node000002_Node000021"><a xlink:title=" ">
<path fill="none" stroke="#63b8ff" d="M1670.98,-183.67C1510.89,-180.4 949.7,-167.2 773,-140 767.96,-139.22 762.7,-138.16 757.54,-136.96"/>
<polygon fill="#63b8ff" stroke="#63b8ff" points="758.37,-133.56 747.82,-134.53 756.68,-140.35 758.37,-133.56"/>
</a>
</g>
</g>
<!-- Node22 -->
<g id="Node000022" class="node">
<title>Node22</title>
<g id="a_Node000022"><a xlink:title=" ">
<polygon fill="#e0e0e0" stroke="#999999" points="868,-134.5 782,-134.5 782,-115.5 868,-115.5 868,-134.5"/>
<text text-anchor="middle" x="825" y="-122.5" font-family="Helvetica,sans-Serif" font-size="10.00">profiles_info.h</text>
</a>
</g>
</g>
<!-- Node2&#45;&gt;Node22 -->
<g id="edge30_Node000002_Node000022" class="edge">
<title>Node2&#45;&gt;Node22</title>
<g id="a_edge30_Node000002_Node000022"><a xlink:title=" ">
<path fill="none" stroke="#63b8ff" d="M1670.97,-183.41C1522.5,-179.44 1032.38,-164.77 877,-140 872.18,-139.23 867.15,-138.19 862.22,-137.03"/>
<polygon fill="#63b8ff" stroke="#63b8ff" points="862.85,-133.58 852.29,-134.5 861.12,-140.36 862.85,-133.58"/>
</a>
</g>
</g>
<!-- Node23 -->
<g id="Node000023" class="node">
<title>Node23</title>
<g id="a_Node000023"><a xlink:title=" ">
<polygon fill="#e0e0e0" stroke="#999999" points="1025.5,-134.5 886.5,-134.5 886.5,-115.5 1025.5,-115.5 1025.5,-134.5"/>
<text text-anchor="middle" x="956" y="-122.5" font-family="Helvetica,sans-Serif" font-size="10.00">user_built&#45;in_constants.h</text>
</a>
</g>
</g>
<!-- Node2&#45;&gt;Node23 -->
<g id="edge31_Node000002_Node000023" class="edge">
<title>Node2&#45;&gt;Node23</title>
<g id="a_edge31_Node000002_Node000023"><a xlink:title=" ">
<path fill="none" stroke="#63b8ff" d="M1670.88,-183.36C1563.13,-180.14 1273.57,-169.25 1034,-140 1025.84,-139 1017.25,-137.71 1008.86,-136.31"/>
<polygon fill="#63b8ff" stroke="#63b8ff" points="1009.23,-132.83 998.78,-134.57 1008.04,-139.72 1009.23,-132.83"/>
</a>
</g>
</g>
<!-- Node24 -->
<g id="Node000024" class="node">
<title>Node24</title>
<g id="a_Node000024"><a xlink:href="func__attributes_8h.html" target="_top" xlink:title=" ">
<polygon fill="white" stroke="#666666" points="175.5,-74 76.5,-74 76.5,-55 175.5,-55 175.5,-74"/>
<text text-anchor="middle" x="126" y="-62" font-family="Helvetica,sans-Serif" font-size="10.00">func_attributes.h</text>
</a>
</g>
</g>
<!-- Node2&#45;&gt;Node24 -->
<g id="edge32_Node000002_Node000024" class="edge">
<title>Node2&#45;&gt;Node24</title>
<g id="a_edge32_Node000002_Node000024"><a xlink:title=" ">
<path fill="none" stroke="#63b8ff" d="M1670.9,-184.24C1479.27,-182.87 703.57,-175.22 463,-140 410.74,-132.35 399.47,-121.86 348,-110 291.91,-97.07 227.36,-84.38 182.37,-75.87"/>
<polygon fill="#63b8ff" stroke="#63b8ff" points="182.99,-72.43 172.51,-74.02 181.69,-79.31 182.99,-72.43"/>
</a>
</g>
</g>
<!-- Node25 -->
<g id="Node000025" class="node">
<title>Node25</title>
<g id="a_Node000025"><a xlink:title=" ">
<polygon fill="#e0e0e0" stroke="#999999" points="1168.5,-134.5 1043.5,-134.5 1043.5,-115.5 1168.5,-115.5 1168.5,-134.5"/>
<text text-anchor="middle" x="1106" y="-122.5" font-family="Helvetica,sans-Serif" font-size="10.00">user_input_typedefs.h</text>
</a>
</g>
</g>
<!-- Node2&#45;&gt;Node25 -->
<g id="edge33_Node000002_Node000025" class="edge">
<title>Node2&#45;&gt;Node25</title>
<g id="a_edge33_Node000002_Node000025"><a xlink:title=" ">
<path fill="none" stroke="#63b8ff" d="M1670.66,-182.56C1579.13,-178.09 1359.52,-165.48 1177,-140 1169.9,-139.01 1162.44,-137.76 1155.13,-136.43"/>
<polygon fill="#63b8ff" stroke="#63b8ff" points="1155.78,-132.99 1145.3,-134.56 1154.47,-139.87 1155.78,-132.99"/>
</a>
</g>
</g>
<!-- Node26 -->
<g id="Node000026" class="node">
<title>Node26</title>
<g id="a_Node000026"><a xlink:title=" ">
<polygon fill="#e0e0e0" stroke="#999999" points="1269.5,-134.5 1186.5,-134.5 1186.5,-115.5 1269.5,-115.5 1269.5,-134.5"/>
<text text-anchor="middle" x="1228" y="-122.5" font-family="Helvetica,sans-Serif" font-size="10.00">output_decl.h</text>
</a>
</g>
</g>
<!-- Node2&#45;&gt;Node26 -->
<g id="edge34_Node000002_Node000026" class="edge">
<title>Node2&#45;&gt;Node26</title>
<g id="a_edge34_Node000002_Node000026"><a xlink:title=" ">
<path fill="none" stroke="#63b8ff" d="M1670.75,-182.46C1592.17,-178.22 1420.97,-166.56 1279,-140 1274.62,-139.18 1270.06,-138.17 1265.56,-137.06"/>
<polygon fill="#63b8ff" stroke="#63b8ff" points="1266.42,-133.67 1255.86,-134.55 1264.66,-140.45 1266.42,-133.67"/>
</a>
</g>
</g>
<!-- Node27 -->
<g id="Node000027" class="node">
<title>Node27</title>
<g id="a_Node000027"><a xlink:title=" ">
<polygon fill="#e0e0e0" stroke="#999999" points="1404,-134.5 1288,-134.5 1288,-115.5 1404,-115.5 1404,-134.5"/>
<text text-anchor="middle" x="1346" y="-122.5" font-family="Helvetica,sans-Serif" font-size="10.00">comp_loaded_decl.h</text>
</a>
</g>
</g>
<!-- Node2&#45;&gt;Node27 -->
<g id="edge35_Node000002_Node000027" class="edge">
<title>Node2&#45;&gt;Node27</title>
<g id="a_edge35_Node000002_Node000027"><a xlink:title=" ">
<path fill="none" stroke="#63b8ff" d="M1670.75,-178.93C1612.17,-171.19 1504.4,-156.29 1413,-140 1407.15,-138.96 1401.04,-137.79 1394.98,-136.58"/>
<polygon fill="#63b8ff" stroke="#63b8ff" points="1395.39,-133.1 1384.9,-134.53 1394,-139.96 1395.39,-133.1"/>
</a>
</g>
</g>
<!-- Node28 -->
<g id="Node000028" class="node">
<title>Node28</title>
<g id="a_Node000028"><a xlink:title=" ">
<polygon fill="#e0e0e0" stroke="#999999" points="1500,-134.5 1422,-134.5 1422,-115.5 1500,-115.5 1500,-134.5"/>
<text text-anchor="middle" x="1461" y="-122.5" font-family="Helvetica,sans-Serif" font-size="10.00">comp_decl.h</text>
</a>
</g>
</g>
<!-- Node2&#45;&gt;Node28 -->
<g id="edge36_Node000002_Node000028" class="edge">
<title>Node2&#45;&gt;Node28</title>
<g id="a_edge36_Node000002_Node000028"><a xlink:title=" ">
<path fill="none" stroke="#63b8ff" d="M1671,-176.08C1629.38,-167.71 1564.59,-154.12 1509,-140 1505.66,-139.15 1502.2,-138.23 1498.74,-137.28"/>
<polygon fill="#63b8ff" stroke="#63b8ff" points="1499.66,-133.9 1489.08,-134.55 1497.75,-140.64 1499.66,-133.9"/>
</a>
</g>
</g>
<!-- Node29 -->
<g id="Node000029" class="node">
<title>Node29</title>
<g id="a_Node000029"><a xlink:title=" ">
<polygon fill="#e0e0e0" stroke="#999999" points="1626,-134.5 1518,-134.5 1518,-115.5 1626,-115.5 1626,-134.5"/>
<text text-anchor="middle" x="1572" y="-122.5" font-family="Helvetica,sans-Serif" font-size="10.00">info_loaded_decl.h</text>
</a>
</g>
</g>
<!-- Node2&#45;&gt;Node29 -->
<g id="edge37_Node000002_Node000029" class="edge">
<title>Node2&#45;&gt;Node29</title>
<g id="a_edge37_Node000002_Node000029"><a xlink:title=" ">
<path fill="none" stroke="#63b8ff" d="M1693.35,-175.99C1669.37,-166.12 1629.61,-149.73 1602.17,-138.43"/>
<polygon fill="#63b8ff" stroke="#63b8ff" points="1603.25,-135.09 1592.67,-134.52 1600.59,-141.56 1603.25,-135.09"/>
</a>
</g>
</g>
<!-- Node30 -->
<g id="Node000030" class="node">
<title>Node30</title>
<g id="a_Node000030"><a xlink:title=" ">
<polygon fill="#e0e0e0" stroke="#999999" points="1784,-134.5 1644,-134.5 1644,-115.5 1784,-115.5 1784,-134.5"/>
<text text-anchor="middle" x="1714" y="-122.5" font-family="Helvetica,sans-Serif" font-size="10.00">device_mesh_info_decl.h</text>
</a>
</g>
</g>
<!-- Node2&#45;&gt;Node30 -->
<g id="edge38_Node000002_Node000030" class="edge">
<title>Node2&#45;&gt;Node30</title>
<g id="a_edge38_Node000002_Node000030"><a xlink:title=" ">
<path fill="none" stroke="#63b8ff" d="M1714,-175.87C1714,-167.75 1714,-155.31 1714,-144.89"/>
<polygon fill="#63b8ff" stroke="#63b8ff" points="1717.5,-144.67 1714,-134.67 1710.5,-144.67 1717.5,-144.67"/>
</a>
</g>
</g>
<!-- Node31 -->
<g id="Node000031" class="node">
<title>Node31</title>
<g id="a_Node000031"><a xlink:title=" ">
<polygon fill="#e0e0e0" stroke="#999999" points="1879.5,-134.5 1802.5,-134.5 1802.5,-115.5 1879.5,-115.5 1879.5,-134.5"/>
<text text-anchor="middle" x="1841" y="-122.5" font-family="Helvetica,sans-Serif" font-size="10.00">array_decl.h</text>
</a>
</g>
</g>
<!-- Node2&#45;&gt;Node31 -->
<g id="edge39_Node000002_Node000031" class="edge">
<title>Node2&#45;&gt;Node31</title>
<g id="a_edge39_Node000002_Node000031"><a xlink:title=" ">
<path fill="none" stroke="#63b8ff" d="M1732.47,-175.99C1753.72,-166.2 1788.85,-150.02 1813.37,-138.73"/>
<polygon fill="#63b8ff" stroke="#63b8ff" points="1814.89,-141.88 1822.51,-134.52 1811.96,-135.52 1814.89,-141.88"/>
</a>
</g>
</g>
<!-- Node32 -->
<g id="Node000032" class="node">
<title>Node32</title>
<g id="a_Node000032"><a xlink:title=" ">
<polygon fill="#e0e0e0" stroke="#999999" points="1974,-134.5 1898,-134.5 1898,-115.5 1974,-115.5 1974,-134.5"/>
<text text-anchor="middle" x="1936" y="-122.5" font-family="Helvetica,sans-Serif" font-size="10.00">input_decl.h</text>
</a>
</g>
</g>
<!-- Node2&#45;&gt;Node32 -->
<g id="edge40_Node000002_Node000032" class="edge">
<title>Node2&#45;&gt;Node32</title>
<g id="a_edge40_Node000002_Node000032"><a xlink:title=" ">
<path fill="none" stroke="#63b8ff" d="M1748.75,-175.97C1783.94,-167.26 1839.88,-153.17 1888,-140 1891.14,-139.14 1894.39,-138.23 1897.65,-137.31"/>
<polygon fill="#63b8ff" stroke="#63b8ff" points="1898.72,-140.64 1907.36,-134.52 1896.79,-133.92 1898.72,-140.64"/>
</a>
</g>
</g>
<!-- Node33 -->
<g id="Node000033" class="node">
<title>Node33</title>
<g id="a_Node000033"><a xlink:href="ac__helpers_8h.html" target="_top" xlink:title=" ">
<polygon fill="white" stroke="#666666" points="2146,-134.5 2068,-134.5 2068,-115.5 2146,-115.5 2146,-134.5"/>
<text text-anchor="middle" x="2107" y="-122.5" font-family="Helvetica,sans-Serif" font-size="10.00">ac_helpers.h</text>
</a>
</g>
</g>
<!-- Node2&#45;&gt;Node33 -->
<g id="edge41_Node000002_Node000033" class="edge">
<title>Node2&#45;&gt;Node33</title>
<g id="a_edge41_Node000002_Node000033"><a xlink:title=" ">
<path fill="none" stroke="#63b8ff" d="M1757.11,-177.32C1760.12,-176.86 1763.1,-176.42 1766,-176 1893.68,-157.59 1927.36,-164.53 2054,-140 2058.43,-139.14 2063.04,-138.12 2067.6,-137.03"/>
<polygon fill="#63b8ff" stroke="#63b8ff" points="2068.6,-140.39 2077.45,-134.55 2066.9,-133.6 2068.6,-140.39"/>
</a>
</g>
</g>
<!-- Node34 -->
<g id="Node000034" class="node">
<title>Node34</title>
<g id="a_Node000034"><a xlink:title=" ">
<polygon fill="#e0e0e0" stroke="#999999" points="2282,-140 2164,-140 2164,-110 2282,-110 2282,-140"/>
<text text-anchor="start" x="2172" y="-128" font-family="Helvetica,sans-Serif" font-size="10.00">scalar_reduce_buffer</text>
<text text-anchor="middle" x="2223" y="-117" font-family="Helvetica,sans-Serif" font-size="10.00">_defs.h</text>
</a>
</g>
</g>
<!-- Node2&#45;&gt;Node34 -->
<g id="edge42_Node000002_Node000034" class="edge">
<title>Node2&#45;&gt;Node34</title>
<g id="a_edge42_Node000002_Node000034"><a xlink:title=" ">
<path fill="none" stroke="#63b8ff" d="M1757.1,-177.22C1760.11,-176.78 1763.1,-176.37 1766,-176 1935.03,-154.39 1981.55,-165.13 2153.82,-140.07"/>
<polygon fill="#63b8ff" stroke="#63b8ff" points="2154.35,-143.53 2163.73,-138.61 2153.33,-136.6 2154.35,-143.53"/>
</a>
</g>
</g>
<!-- Node35 -->
<g id="Node000035" class="node">
<title>Node35</title>
<g id="a_Node000035"><a xlink:title=" ">
<polygon fill="#e0e0e0" stroke="#999999" points="2423.5,-140 2300.5,-140 2300.5,-110 2423.5,-110 2423.5,-140"/>
<text text-anchor="start" x="2308.5" y="-128" font-family="Helvetica,sans-Serif" font-size="10.00">scalar_reduce_buffers</text>
<text text-anchor="middle" x="2362" y="-117" font-family="Helvetica,sans-Serif" font-size="10.00">_in_vba.h</text>
</a>
</g>
</g>
<!-- Node2&#45;&gt;Node35 -->
<g id="edge43_Node000002_Node000035" class="edge">
<title>Node2&#45;&gt;Node35</title>
<g id="a_edge43_Node000002_Node000035"><a xlink:title=" ">
<path fill="none" stroke="#63b8ff" d="M1757.09,-177.14C1760.1,-176.72 1763.09,-176.34 1766,-176 1995.04,-149.49 2057.38,-170.08 2289.99,-140.01"/>
<polygon fill="#63b8ff" stroke="#63b8ff" points="2290.66,-143.45 2300.12,-138.68 2289.75,-136.51 2290.66,-143.45"/>
</a>
</g>
</g>
<!-- Node36 -->
<g id="Node000036" class="node">
<title>Node36</title>
<g id="a_Node000036"><a xlink:href="astaroth__analysis_8h.html" target="_top" xlink:title=" ">
<polygon fill="white" stroke="#666666" points="2554,-134.5 2442,-134.5 2442,-115.5 2554,-115.5 2554,-134.5"/>
<text text-anchor="middle" x="2498" y="-122.5" font-family="Helvetica,sans-Serif" font-size="10.00">astaroth_analysis.h</text>
</a>
</g>
</g>
<!-- Node2&#45;&gt;Node36 -->
<g id="edge44_Node000002_Node000036" class="edge">
<title>Node2&#45;&gt;Node36</title>
<g id="a_edge44_Node000002_Node000036"><a xlink:title=" ">
<path fill="none" stroke="#63b8ff" d="M1757.08,-177.09C1760.09,-176.69 1763.09,-176.32 1766,-176 2060.7,-144.04 2138.13,-178.87 2432,-140 2438.79,-139.1 2445.92,-137.88 2452.88,-136.54"/>
<polygon fill="#63b8ff" stroke="#63b8ff" points="2453.79,-139.92 2462.9,-134.5 2452.4,-133.07 2453.79,-139.92"/>
</a>
</g>
</g>
<!-- Node37 -->
<g id="Node000037" class="node">
<title>Node37</title>
<g id="a_Node000037"><a xlink:href="common__kernels_8h.html" target="_top" xlink:title=" ">
<polygon fill="white" stroke="#666666" points="2681.5,-134.5 2572.5,-134.5 2572.5,-115.5 2681.5,-115.5 2681.5,-134.5"/>
<text text-anchor="middle" x="2627" y="-122.5" font-family="Helvetica,sans-Serif" font-size="10.00">common_kernels.h</text>
</a>
</g>
</g>
<!-- Node2&#45;&gt;Node37 -->
<g id="edge45_Node000002_Node000037" class="edge">
<title>Node2&#45;&gt;Node37</title>
<g id="a_edge45_Node000002_Node000037"><a xlink:title=" ">
<path fill="none" stroke="#63b8ff" d="M1757.08,-177.06C1760.09,-176.66 1763.09,-176.3 1766,-176 2118.68,-139.34 2211.42,-186.05 2563,-140 2569.44,-139.16 2576.19,-137.99 2582.79,-136.69"/>
<polygon fill="#63b8ff" stroke="#63b8ff" points="2583.9,-140.04 2592.98,-134.57 2582.47,-133.18 2583.9,-140.04"/>
</a>
</g>
</g>
<!-- Node38 -->
<g id="Node000038" class="node">
<title>Node38</title>
<g id="a_Node000038"><a xlink:title=" ">
<polygon fill="#e0e0e0" stroke="#999999" points="2812,-134.5 2700,-134.5 2700,-115.5 2812,-115.5 2812,-134.5"/>
<text text-anchor="middle" x="2756" y="-122.5" font-family="Helvetica,sans-Serif" font-size="10.00">user_declarations.h</text>
</a>
</g>
</g>
<!-- Node2&#45;&gt;Node38 -->
<g id="edge46_Node000002_Node000038" class="edge">
<title>Node2&#45;&gt;Node38</title>
<g id="a_edge46_Node000002_Node000038"><a xlink:title=" ">
<path fill="none" stroke="#63b8ff" d="M1757.08,-177.04C1760.09,-176.65 1763.09,-176.29 1766,-176 2175.35,-134.74 2282.81,-191.51 2691,-140 2697.77,-139.15 2704.88,-137.94 2711.81,-136.59"/>
<polygon fill="#63b8ff" stroke="#63b8ff" points="2712.7,-139.98 2721.78,-134.53 2711.28,-133.12 2712.7,-139.98"/>
</a>
</g>
</g>
<!-- Node39 -->
<g id="Node000039" class="node">
<title>Node39</title>
<g id="a_Node000039"><a xlink:title=" ">
<polygon fill="#e0e0e0" stroke="#999999" points="2964,-140 2830,-140 2830,-110 2964,-110 2964,-140"/>
<text text-anchor="start" x="2838" y="-128" font-family="Helvetica,sans-Serif" font-size="10.00">load_and_store_uniform</text>
<text text-anchor="middle" x="2897" y="-117" font-family="Helvetica,sans-Serif" font-size="10.00">_header.h</text>
</a>
</g>
</g>
<!-- Node2&#45;&gt;Node39 -->
<g id="edge47_Node000002_Node000039" class="edge">
<title>Node2&#45;&gt;Node39</title>
<g id="a_edge47_Node000002_Node000039"><a xlink:title=" ">
<path fill="none" stroke="#63b8ff" d="M1757.07,-177.02C1760.09,-176.63 1763.09,-176.29 1766,-176 2229.6,-130.39 2352.84,-189.78 2819.9,-139.99"/>
<polygon fill="#63b8ff" stroke="#63b8ff" points="2820.37,-143.46 2829.94,-138.91 2819.63,-136.5 2820.37,-143.46"/>
</a>
</g>
</g>
<!-- Node6 -->
<g id="Node000006" class="node">
<title>Node6</title>
<g id="a_Node000006"><a xlink:title=" ">
<polygon fill="#e0e0e0" stroke="#999999" points="1000.5,-19 887.5,-19 887.5,0 1000.5,0 1000.5,-19"/>
<text text-anchor="middle" x="944" y="-7" font-family="Helvetica,sans-Serif" font-size="10.00">cuda_runtime_api.h</text>
</a>
</g>
</g>
<!-- Node5&#45;&gt;Node6 -->
<g id="edge5_Node000005_Node000006" class="edge">
<title>Node5&#45;&gt;Node6</title>
<g id="a_edge5_Node000005_Node000006"><a xlink:title=" ">
<path fill="none" stroke="#63b8ff" d="M1151.32,-54.98C1108.5,-45.8 1040.24,-31.15 993.84,-21.19"/>
<polygon fill="#63b8ff" stroke="#63b8ff" points="994.51,-17.76 984,-19.08 993.04,-24.6 994.51,-17.76"/>
</a>
</g>
</g>
<!-- Node7 -->
<g id="Node000007" class="node">
<title>Node7</title>
<g id="a_Node000007"><a xlink:title=" ">
<polygon fill="#e0e0e0" stroke="#999999" points="1229,-19 1153,-19 1153,0 1229,0 1229,-19"/>
<text text-anchor="middle" x="1191" y="-7" font-family="Helvetica,sans-Serif" font-size="10.00">cuda_fp16.h</text>
</a>
</g>
</g>
<!-- Node5&#45;&gt;Node7 -->
<g id="edge6_Node000005_Node000007" class="edge">
<title>Node5&#45;&gt;Node7</title>
<g id="a_edge6_Node000005_Node000007"><a xlink:title=" ">
<path fill="none" stroke="#63b8ff" d="M1191,-54.75C1191,-47.8 1191,-37.85 1191,-29.13"/>
<polygon fill="#63b8ff" stroke="#63b8ff" points="1194.5,-29.09 1191,-19.09 1187.5,-29.09 1194.5,-29.09"/>
</a>
</g>
</g>
<!-- Node9&#45;&gt;Node5 -->
<g id="edge11_Node000009_Node000005" class="edge">
<title>Node9&#45;&gt;Node5</title>
<g id="a_edge11_Node000009_Node000005"><a xlink:title=" ">
<path fill="none" stroke="#63b8ff" d="M645.58,-115.44C652.44,-113.35 659.95,-111.33 667,-110 866.65,-72.32 923.05,-95.5 1129.81,-73.93"/>
<polygon fill="#63b8ff" stroke="#63b8ff" points="1130.2,-77.41 1139.77,-72.87 1129.46,-70.45 1130.2,-77.41"/>
</a>
</g>
</g>
<!-- Node9&#45;&gt;Node6 -->
<g id="edge13_Node000009_Node000006" class="edge">
<title>Node9&#45;&gt;Node6</title>
<g id="a_edge13_Node000009_Node000006"><a xlink:title=" ">
<path fill="none" stroke="#63b8ff" d="M649.2,-115.35C655.08,-113.57 661.24,-111.71 667,-110 722.01,-93.65 737.45,-94.64 791,-74 808.99,-67.06 812.34,-62.73 830,-55 856.79,-43.27 887.72,-31.29 910.6,-22.72"/>
<polygon fill="#63b8ff" stroke="#63b8ff" points="912.04,-25.92 920.19,-19.15 909.6,-19.36 912.04,-25.92"/>
</a>
</g>
</g>
<!-- Node9&#45;&gt;Node8 -->
<g id="edge15_Node000009_Node000008" class="edge">
<title>Node9&#45;&gt;Node8</title>
<g id="a_edge15_Node000009_Node000008"><a xlink:title=" ">
<path fill="none" stroke="#63b8ff" d="M645.06,-115.36C652.05,-113.22 659.75,-111.19 667,-110 809.48,-86.61 1838.29,-70.11 2095.06,-66.33"/>
<polygon fill="#63b8ff" stroke="#63b8ff" points="2095.34,-69.82 2105.28,-66.18 2095.23,-62.82 2095.34,-69.82"/>
</a>
</g>
</g>
<!-- Node10 -->
<g id="Node000010" class="node">
<title>Node10</title>
<g id="a_Node000010"><a xlink:title=" ">
<polygon fill="#e0e0e0" stroke="#999999" points="782.5,-74 735.5,-74 735.5,-55 782.5,-55 782.5,-74"/>
<text text-anchor="middle" x="759" y="-62" font-family="Helvetica,sans-Serif" font-size="10.00">float.h</text>
</a>
</g>
</g>
<!-- Node9&#45;&gt;Node10 -->
<g id="edge9_Node000009_Node000010" class="edge">
<title>Node9&#45;&gt;Node10</title>
<g id="a_edge9_Node000009_Node000010"><a xlink:title=" ">
<path fill="none" stroke="#63b8ff" d="M641.07,-115.49C664.37,-105.62 703.01,-89.23 729.68,-77.93"/>
<polygon fill="#63b8ff" stroke="#63b8ff" points="731.07,-81.14 738.91,-74.02 728.34,-74.7 731.07,-81.14"/>
</a>
</g>
</g>
<!-- Node11 -->
<g id="Node000011" class="node">
<title>Node11</title>
<g id="a_Node000011"><a xlink:title=" ">
<polygon fill="#e0e0e0" stroke="#999999" points="386.5,-74 335.5,-74 335.5,-55 386.5,-55 386.5,-74"/>
<text text-anchor="middle" x="361" y="-62" font-family="Helvetica,sans-Serif" font-size="10.00">math.h</text>
</a>
</g>
</g>
<!-- Node9&#45;&gt;Node11 -->
<g id="edge10_Node000009_Node000011" class="edge">
<title>Node9&#45;&gt;Node11</title>
<g id="a_edge10_Node000009_Node000011"><a xlink:title=" ">
<path fill="none" stroke="#63b8ff" d="M583.92,-115.99C541.29,-106.74 468.94,-90.87 396.78,-74.14"/>
<polygon fill="#63b8ff" stroke="#63b8ff" points="397.13,-70.63 386.6,-71.78 395.55,-77.45 397.13,-70.63"/>
</a>
</g>
</g>
<!-- Node12 -->
<g id="Node000012" class="node">
<title>Node12</title>
<g id="a_Node000012"><a xlink:title=" ">
<polygon fill="#e0e0e0" stroke="#999999" points="928.5,-74 839.5,-74 839.5,-55 928.5,-55 928.5,-74"/>
<text text-anchor="middle" x="884" y="-62" font-family="Helvetica,sans-Serif" font-size="10.00">vector_types.h</text>
</a>
</g>
</g>
<!-- Node9&#45;&gt;Node12 -->
<g id="edge12_Node000009_Node000012" class="edge">
<title>Node9&#45;&gt;Node12</title>
<g id="a_edge12_Node000009_Node000012"><a xlink:title=" ">
<path fill="none" stroke="#63b8ff" d="M647.64,-115.43C653.95,-113.53 660.69,-111.6 667,-110 721.81,-96.07 785.25,-83.46 829.32,-75.25"/>
<polygon fill="#63b8ff" stroke="#63b8ff" points="830.06,-78.68 839.25,-73.41 828.78,-71.79 830.06,-78.68"/>
</a>
</g>
</g>
<!-- Node13 -->
<g id="Node000013" class="node">
<title>Node13</title>
<g id="a_Node000013"><a xlink:href="acreal_8h.html" target="_top" xlink:title=" ">
<polygon fill="white" stroke="#666666" points="695,-19 639,-19 639,0 695,0 695,-19"/>
<text text-anchor="middle" x="667" y="-7" font-family="Helvetica,sans-Serif" font-size="10.00">acreal.h</text>
</a>
</g>
</g>
<!-- Node9&#45;&gt;Node13 -->
<g id="edge14_Node000009_Node000013" class="edge">
<title>Node9&#45;&gt;Node13</title>
<g id="a_edge14_Node000009_Node000013"><a xlink:title=" ">
<path fill="none" stroke="#63b8ff" d="M640.33,-115.48C656.11,-107.34 677.34,-93.44 687,-74 694.45,-59.01 687.07,-40.65 679.25,-27.54"/>
<polygon fill="#63b8ff" stroke="#63b8ff" points="682.09,-25.49 673.69,-19.04 676.24,-29.32 682.09,-25.49"/>
</a>
</g>
</g>
<!-- Node14 -->
<g id="Node000014" class="node">
<title>Node14</title>
<g id="a_Node000014"><a xlink:title=" ">
<polygon fill="#e0e0e0" stroke="#999999" points="1121.5,-74 1026.5,-74 1026.5,-55 1121.5,-55 1121.5,-74"/>
<text text-anchor="middle" x="1074" y="-62" font-family="Helvetica,sans-Serif" font-size="10.00">user_typedefs.h</text>
</a>
</g>
</g>
<!-- Node9&#45;&gt;Node14 -->
<g id="edge16_Node000009_Node000014" class="edge">
<title>Node9&#45;&gt;Node14</title>
<g id="a_edge16_Node000009_Node000014"><a xlink:title=" ">
<path fill="none" stroke="#63b8ff" d="M646.08,-115.41C652.81,-113.37 660.13,-111.39 667,-110 817.15,-79.72 860.1,-92.96 1016.46,-73.99"/>
<polygon fill="#63b8ff" stroke="#63b8ff" points="1016.94,-77.46 1026.44,-72.76 1016.08,-70.51 1016.94,-77.46"/>
</a>
</g>
</g>
<!-- Node15 -->
<g id="Node000015" class="node">
<title>Node15</title>
<g id="a_Node000015"><a xlink:href="host__datatypes_8h.html" target="_top" xlink:title=" ">
<polygon fill="white" stroke="#666666" points="678.5,-74 577.5,-74 577.5,-55 678.5,-55 678.5,-74"/>
<text text-anchor="middle" x="628" y="-62" font-family="Helvetica,sans-Serif" font-size="10.00">host_datatypes.h</text>
</a>
</g>
</g>
<!-- Node9&#45;&gt;Node15 -->
<g id="edge17_Node000009_Node000015" class="edge">
<title>Node9&#45;&gt;Node15</title>
<g id="a_edge17_Node000009_Node000015"><a xlink:title=" ">
<path fill="none" stroke="#63b8ff" d="M622.03,-115.37C623,-107.25 624.49,-94.81 625.74,-84.39"/>
<polygon fill="#63b8ff" stroke="#63b8ff" points="629.25,-84.51 626.96,-74.17 622.3,-83.68 629.25,-84.51"/>
</a>
</g>
</g>
<!-- Node15&#45;&gt;Node13 -->
<g id="edge18_Node000015_Node000013" class="edge">
<title>Node15&#45;&gt;Node13</title>
<g id="a_edge18_Node000015_Node000013"><a xlink:title=" ">
<path fill="none" stroke="#63b8ff" d="M634.44,-54.75C639.89,-47.34 647.86,-36.5 654.56,-27.41"/>
<polygon fill="#63b8ff" stroke="#63b8ff" points="657.57,-29.22 660.68,-19.09 651.93,-25.07 657.57,-29.22"/>
</a>
</g>
</g>
<!-- Node16 -->
<g id="Node000016" class="node">
<title>Node16</title>
<g id="a_Node000016"><a xlink:title=" ">
<polygon fill="#e0e0e0" stroke="#999999" points="585,-19 529,-19 529,0 585,0 585,-19"/>
<text text-anchor="middle" x="557" y="-7" font-family="Helvetica,sans-Serif" font-size="10.00">stddef.h</text>
</a>
</g>
</g>
<!-- Node15&#45;&gt;Node16 -->
<g id="edge19_Node000015_Node000016" class="edge">
<title>Node15&#45;&gt;Node16</title>
<g id="a_edge19_Node000015_Node000016"><a xlink:title=" ">
<path fill="none" stroke="#63b8ff" d="M616.59,-54.98C605.89,-47 589.66,-34.88 576.84,-25.31"/>
<polygon fill="#63b8ff" stroke="#63b8ff" points="578.72,-22.35 568.61,-19.17 574.53,-27.96 578.72,-22.35"/>
</a>
</g>
</g>
<!-- Node17&#45;&gt;Node3 -->
<g id="edge25_Node000017_Node000003" class="edge">
<title>Node17&#45;&gt;Node3</title>
<g id="a_edge25_Node000017_Node000003"><a xlink:title=" ">
<path fill="none" stroke="#63b8ff" d="M505.02,-115.37C509.94,-106.9 517.59,-93.74 523.79,-83.07"/>
<polygon fill="#63b8ff" stroke="#63b8ff" points="526.96,-84.57 528.96,-74.17 520.91,-81.05 526.96,-84.57"/>
</a>
</g>
</g>
<!-- Node17&#45;&gt;Node4 -->
<g id="edge23_Node000017_Node000004" class="edge">
<title>Node17&#45;&gt;Node4</title>
<g id="a_edge23_Node000017_Node000004"><a xlink:title=" ">
<path fill="none" stroke="#63b8ff" d="M528.04,-118.18C542.09,-115.41 559.4,-112.23 575,-110 731.78,-87.61 775.46,-98.38 935.42,-74.08"/>
<polygon fill="#63b8ff" stroke="#63b8ff" points="936.27,-77.49 945.62,-72.51 935.2,-70.57 936.27,-77.49"/>
</a>
</g>
</g>
<!-- Node17&#45;&gt;Node5 -->
<g id="edge28_Node000017_Node000005" class="edge">
<title>Node17&#45;&gt;Node5</title>
<g id="a_edge28_Node000017_Node000005"><a xlink:title=" ">
<path fill="none" stroke="#63b8ff" d="M528.01,-117.95C542.05,-115.12 559.36,-111.96 575,-110 817.03,-79.67 882.38,-98.56 1129.76,-73.93"/>
<polygon fill="#63b8ff" stroke="#63b8ff" points="1130.18,-77.4 1139.78,-72.92 1129.48,-70.44 1130.18,-77.4"/>
</a>
</g>
</g>
<!-- Node17&#45;&gt;Node15 -->
<g id="edge22_Node000017_Node000015" class="edge">
<title>Node17&#45;&gt;Node15</title>
<g id="a_edge22_Node000017_Node000015"><a xlink:title=" ">
<path fill="none" stroke="#63b8ff" d="M518.61,-115.49C540.04,-105.7 575.44,-89.52 600.15,-78.23"/>
<polygon fill="#63b8ff" stroke="#63b8ff" points="601.72,-81.36 609.37,-74.02 598.82,-74.99 601.72,-81.36"/>
</a>
</g>
</g>
<!-- Node17&#45;&gt;Node16 -->
<g id="edge21_Node000017_Node000016" class="edge">
<title>Node17&#45;&gt;Node16</title>
<g id="a_edge21_Node000017_Node000016"><a xlink:title=" ">
<path fill="none" stroke="#63b8ff" d="M497.71,-115.4C494.56,-101.79 490.33,-74.81 500,-55 506.3,-42.09 518.35,-31.83 529.76,-24.43"/>
<polygon fill="#63b8ff" stroke="#63b8ff" points="531.86,-27.25 538.65,-19.12 528.27,-21.25 531.86,-27.25"/>
</a>
</g>
</g>
<!-- Node18 -->
<g id="Node000018" class="node">
<title>Node18</title>
<g id="a_Node000018"><a xlink:title=" ">
<polygon fill="#e0e0e0" stroke="#999999" points="317.5,-74 264.5,-74 264.5,-55 317.5,-55 317.5,-74"/>
<text text-anchor="middle" x="291" y="-62" font-family="Helvetica,sans-Serif" font-size="10.00">stdint.h</text>
</a>
</g>
</g>
<!-- Node17&#45;&gt;Node18 -->
<g id="edge24_Node000017_Node000018" class="edge">
<title>Node17&#45;&gt;Node18</title>
<g id="a_edge24_Node000017_Node000018"><a xlink:title=" ">
<path fill="none" stroke="#63b8ff" d="M471.81,-116.11C434.53,-105.67 368.74,-87.26 327.64,-75.75"/>
<polygon fill="#63b8ff" stroke="#63b8ff" points="328.32,-72.31 317.75,-72.99 326.44,-79.05 328.32,-72.31"/>
</a>
</g>
</g>
<!-- Node19 -->
<g id="Node000019" class="node">
<title>Node19</title>
<g id="a_Node000019"><a xlink:title=" ">
<polygon fill="#e0e0e0" stroke="#999999" points="246.5,-74 193.5,-74 193.5,-55 246.5,-55 246.5,-74"/>
<text text-anchor="middle" x="220" y="-62" font-family="Helvetica,sans-Serif" font-size="10.00">stdlib.h</text>
</a>
</g>
</g>
<!-- Node17&#45;&gt;Node19 -->
<g id="edge26_Node000017_Node000019" class="edge">
<title>Node17&#45;&gt;Node19</title>
<g id="a_edge26_Node000017_Node000019"><a xlink:title=" ">
<path fill="none" stroke="#63b8ff" d="M471.63,-118.56C427.66,-110.06 340.16,-92.84 256.63,-74.31"/>
<polygon fill="#63b8ff" stroke="#63b8ff" points="257.25,-70.86 246.73,-72.1 255.73,-77.69 257.25,-70.86"/>
</a>
</g>
</g>
<!-- Node20 -->
<g id="Node000020" class="node">
<title>Node20</title>
<g id="a_Node000020"><a xlink:title=" ">
<polygon fill="#e0e0e0" stroke="#999999" points="453,-74 405,-74 405,-55 453,-55 453,-74"/>
<text text-anchor="middle" x="429" y="-62" font-family="Helvetica,sans-Serif" font-size="10.00">time.h</text>
</a>
</g>
</g>
<!-- Node17&#45;&gt;Node20 -->
<g id="edge27_Node000017_Node000020" class="edge">
<title>Node17&#45;&gt;Node20</title>
<g id="a_edge27_Node000017_Node000020"><a xlink:title=" ">
<path fill="none" stroke="#63b8ff" d="M489.52,-115.37C478.51,-106.3 460.96,-91.84 447.59,-80.82"/>
<polygon fill="#63b8ff" stroke="#63b8ff" points="449.46,-77.83 439.52,-74.17 445.01,-83.23 449.46,-77.83"/>
</a>
</g>
</g>
<!-- Node41&#45;&gt;Node9 -->
<g id="edge53_Node000041_Node000009" class="edge">
<title>Node41&#45;&gt;Node9</title>
<g id="a_edge53_Node000041_Node000009"><a xlink:title=" ">
<path fill="none" stroke="#63b8ff" d="M437.26,-175.99C474.92,-165.75 538.29,-148.5 579.88,-137.19"/>
<polygon fill="#63b8ff" stroke="#63b8ff" points="580.97,-140.52 589.7,-134.52 579.13,-133.77 580.97,-140.52"/>
</a>
</g>
</g>
<!-- Node41&#45;&gt;Node11 -->
<g id="edge52_Node000041_Node000011" class="edge">
<title>Node41&#45;&gt;Node11</title>
<g id="a_edge52_Node000041_Node000011"><a xlink:title=" ">
<path fill="none" stroke="#63b8ff" d="M411.02,-175.75C418.58,-161.31 430.92,-131.91 420,-110 413.43,-96.82 400.9,-86.52 389.07,-79.16"/>
<polygon fill="#63b8ff" stroke="#63b8ff" points="390.68,-76.05 380.27,-74.1 387.2,-82.12 390.68,-76.05"/>
</a>
</g>
</g>
<!-- Node41&#45;&gt;Node17 -->
<g id="edge54_Node000041_Node000017" class="edge">
<title>Node41&#45;&gt;Node17</title>
<g id="a_edge54_Node000041_Node000017"><a xlink:title=" ">
<path fill="none" stroke="#63b8ff" d="M419.87,-175.87C435,-166.45 459.46,-151.23 477.38,-140.08"/>
<polygon fill="#63b8ff" stroke="#63b8ff" points="479.43,-142.92 486.07,-134.67 475.73,-136.98 479.43,-142.92"/>
</a>
</g>
</g>
<!-- Node41&#45;&gt;Node18 -->
<g id="edge50_Node000041_Node000018" class="edge">
<title>Node41&#45;&gt;Node18</title>
<g id="a_edge50_Node000041_Node000018"><a xlink:title=" ">
<path fill="none" stroke="#63b8ff" d="M400.19,-175.67C390.4,-161.13 369.54,-131.57 348,-110 337.08,-99.07 323.48,-88.36 312.31,-80.19"/>
<polygon fill="#63b8ff" stroke="#63b8ff" points="314.13,-77.19 303.96,-74.22 310.06,-82.88 314.13,-77.19"/>
</a>
</g>
</g>
<!-- Node41&#45;&gt;Node19 -->
<g id="edge51_Node000041_Node000019" class="edge">
<title>Node41&#45;&gt;Node19</title>
<g id="a_edge51_Node000041_Node000019"><a xlink:title=" ">
<path fill="none" stroke="#63b8ff" d="M367.06,-182.17C311.24,-177.92 212.78,-166.75 191,-140 176.97,-122.77 191.83,-97.95 204.93,-81.78"/>
<polygon fill="#63b8ff" stroke="#63b8ff" points="207.59,-84.06 211.46,-74.19 202.28,-79.49 207.59,-84.06"/>
</a>
</g>
</g>
<!-- Node41&#45;&gt;Node24 -->
<g id="edge55_Node000041_Node000024" class="edge">
<title>Node41&#45;&gt;Node24</title>
<g id="a_edge55_Node000041_Node000024"><a xlink:title=" ">
<path fill="none" stroke="#63b8ff" d="M367.3,-184.97C320.06,-183.82 239.4,-176.08 182,-140 160.01,-126.18 143.58,-100.4 134.39,-83.1"/>
<polygon fill="#63b8ff" stroke="#63b8ff" points="137.45,-81.39 129.82,-74.04 131.2,-84.55 137.45,-81.39"/>
</a>
</g>
</g>
<!-- Node42 -->
<g id="Node000042" class="node">
<title>Node42</title>
<g id="a_Node000042"><a xlink:href="math__utils__base_8h.html" target="_top" xlink:title=" ">
<polygon fill="white" stroke="#666666" points="106,-134.5 0,-134.5 0,-115.5 106,-115.5 106,-134.5"/>
<text text-anchor="middle" x="53" y="-122.5" font-family="Helvetica,sans-Serif" font-size="10.00">math_utils_base.h</text>
</a>
</g>
</g>
<!-- Node41&#45;&gt;Node42 -->
<g id="edge56_Node000041_Node000042" class="edge">
<title>Node41&#45;&gt;Node42</title>
<g id="a_edge56_Node000041_Node000042"><a xlink:title=" ">
<path fill="none" stroke="#63b8ff" d="M367.5,-179.15C312.48,-171.37 208.24,-156.07 120,-140 114.23,-138.95 108.2,-137.78 102.22,-136.59"/>
<polygon fill="#63b8ff" stroke="#63b8ff" points="102.76,-133.12 92.26,-134.56 101.36,-139.98 102.76,-133.12"/>
</a>
</g>
</g>
<!-- Node43 -->
<g id="Node000043" class="node">
<title>Node43</title>
<g id="a_Node000043"><a xlink:title=" ">
<polygon fill="#e0e0e0" stroke="#999999" points="339.5,-134.5 200.5,-134.5 200.5,-115.5 339.5,-115.5 339.5,-134.5"/>
<text text-anchor="middle" x="270" y="-122.5" font-family="Helvetica,sans-Serif" font-size="10.00">generated_comp_funcs.h</text>
</a>
</g>
</g>
<!-- Node41&#45;&gt;Node43 -->
<g id="edge58_Node000041_Node000043" class="edge">
<title>Node41&#45;&gt;Node43</title>
<g id="a_edge58_Node000041_Node000043"><a xlink:title=" ">
<path fill="none" stroke="#63b8ff" d="M386.22,-175.99C363.36,-166.16 325.51,-149.88 299.24,-138.58"/>
<polygon fill="#63b8ff" stroke="#63b8ff" points="300.37,-135.25 289.8,-134.52 297.6,-141.68 300.37,-135.25"/>
</a>
</g>
</g>
<!-- Node42&#45;&gt;Node24 -->
<g id="edge57_Node000042_Node000024" class="edge">
<title>Node42&#45;&gt;Node24</title>
<g id="a_edge57_Node000042_Node000024"><a xlink:title=" ">
<path fill="none" stroke="#63b8ff" d="M63.77,-115.37C75.2,-106.21 93.48,-91.56 107.28,-80.51"/>
<polygon fill="#63b8ff" stroke="#63b8ff" points="109.57,-83.15 115.18,-74.17 105.19,-77.69 109.57,-83.15"/>
</a>
</g>
</g>
<!-- Node44&#45;&gt;Node5 -->
<g id="edge60_Node000044_Node000005" class="edge">
<title>Node44&#45;&gt;Node5</title>
<g id="a_edge60_Node000044_Node000005"><a xlink:title=" ">
<path fill="none" stroke="#63b8ff" d="M1920.84,-176.61C1923.59,-176.39 1926.32,-176.19 1929,-176 1986.89,-171.97 2932.68,-181.74 2973,-140 2982.26,-130.41 2982.31,-119.55 2973,-110 2942.32,-78.54 1562.86,-67.87 1252.54,-65.87"/>
<polygon fill="#63b8ff" stroke="#63b8ff" points="1252.41,-62.37 1242.39,-65.8 1252.37,-69.37 1252.41,-62.37"/>
</a>
</g>
</g>
</g>
</svg>
