<?xml version="1.0" encoding="UTF-8" standalone="no"?>
<!DOCTYPE svg PUBLIC "-//W3C//DTD SVG 1.1//EN"
 "http://www.w3.org/Graphics/SVG/1.1/DTD/svg11.dtd">
<!-- Generated by graphviz version 2.43.0 (0)
 -->
<!-- Title: src/utils/config_loader.cc Pages: 1 -->
<svg width="3916pt" height="423pt"
 viewBox="0.00 0.00 3916.00 423.00" xmlns="http://www.w3.org/2000/svg" xmlns:xlink="http://www.w3.org/1999/xlink">
<g id="graph0" class="graph" transform="scale(1 1) rotate(0) translate(4 419)">
<title>src/utils/config_loader.cc</title>
<!-- Node1 -->
<g id="Node000001" class="node">
<title>Node1</title>
<g id="a_Node000001"><a xlink:title="Brief info.">
<polygon fill="#999999" stroke="#666666" points="3739.5,-415 3603.5,-415 3603.5,-396 3739.5,-396 3739.5,-415"/>
<text text-anchor="middle" x="3671.5" y="-403" font-family="Helvetica,sans-Serif" font-size="10.00">src/utils/config_loader.cc</text>
</a>
</g>
</g>
<!-- Node2 -->
<g id="Node000002" class="node">
<title>Node2</title>
<g id="a_Node000002"><a xlink:href="astaroth__utils_8h.html" target="_top" xlink:title="Functions for loading and updating AcMeshInfo.">
<polygon fill="white" stroke="#666666" points="2858.5,-360 2766.5,-360 2766.5,-341 2858.5,-341 2858.5,-360"/>
<text text-anchor="middle" x="2812.5" y="-348" font-family="Helvetica,sans-Serif" font-size="10.00">astaroth_utils.h</text>
</a>
</g>
</g>
<!-- Node1&#45;&gt;Node2 -->
<g id="edge1_Node000001_Node000002" class="edge">
<title>Node1&#45;&gt;Node2</title>
<g id="a_edge1_Node000001_Node000002"><a xlink:title=" ">
<path fill="none" stroke="#63b8ff" d="M3603.35,-401.05C3470.67,-394.22 3168.44,-378.04 2914.5,-360 2899.67,-358.95 2883.63,-357.67 2868.76,-356.44"/>
<polygon fill="#63b8ff" stroke="#63b8ff" points="2868.95,-352.94 2858.69,-355.59 2868.36,-359.91 2868.95,-352.94"/>
</a>
</g>
</g>
<!-- Node7 -->
<g id="Node000007" class="node">
<title>Node7</title>
<g id="a_Node000007"><a xlink:href="acc__runtime_8h.html" target="_top" xlink:title=" ">
<polygon fill="white" stroke="#666666" points="2342.5,-195 2256.5,-195 2256.5,-176 2342.5,-176 2342.5,-195"/>
<text text-anchor="middle" x="2299.5" y="-183" font-family="Helvetica,sans-Serif" font-size="10.00">acc_runtime.h</text>
</a>
</g>
</g>
<!-- Node1&#45;&gt;Node7 -->
<g id="edge57_Node000001_Node000007" class="edge">
<title>Node1&#45;&gt;Node7</title>
<g id="a_edge57_Node000001_Node000007"><a xlink:title=" ">
<path fill="none" stroke="#63b8ff" d="M3617.72,-395.95C3398.13,-361.06 2570.9,-229.62 2352.59,-194.94"/>
<polygon fill="#63b8ff" stroke="#63b8ff" points="2353.09,-191.47 2342.66,-193.36 2351.99,-198.38 2353.09,-191.47"/>
</a>
</g>
</g>
<!-- Node15 -->
<g id="Node000015" class="node">
<title>Node15</title>
<g id="a_Node000015"><a xlink:title=" ">
<polygon fill="#e0e0e0" stroke="#999999" points="2750,-74 2699,-74 2699,-55 2750,-55 2750,-74"/>
<text text-anchor="middle" x="2724.5" y="-62" font-family="Helvetica,sans-Serif" font-size="10.00">math.h</text>
</a>
</g>
</g>
<!-- Node1&#45;&gt;Node15 -->
<g id="edge60_Node000001_Node000015" class="edge">
<title>Node1&#45;&gt;Node15</title>
<g id="a_edge60_Node000001_Node000015"><a xlink:title=" ">
<path fill="none" stroke="#63b8ff" d="M3659.62,-395.88C3638.25,-379.26 3595.5,-340.52 3595.5,-296.5 3595.5,-296.5 3595.5,-296.5 3595.5,-184.5 3595.5,-142.81 3575.36,-129.48 3538.5,-110 3469.14,-73.35 2909.42,-66.8 2760.68,-65.71"/>
<polygon fill="#63b8ff" stroke="#63b8ff" points="2760.33,-62.21 2750.3,-65.64 2760.28,-69.21 2760.33,-62.21"/>
</a>
</g>
</g>
<!-- Node21 -->
<g id="Node000021" class="node">
<title>Node21</title>
<g id="a_Node000021"><a xlink:href="errchk_8h.html" target="_top" xlink:title="Brief info.">
<polygon fill="white" stroke="#666666" points="3679.5,-134.5 3623.5,-134.5 3623.5,-115.5 3679.5,-115.5 3679.5,-134.5"/>
<text text-anchor="middle" x="3651.5" y="-122.5" font-family="Helvetica,sans-Serif" font-size="10.00">errchk.h</text>
</a>
</g>
</g>
<!-- Node1&#45;&gt;Node21 -->
<g id="edge63_Node000001_Node000021" class="edge">
<title>Node1&#45;&gt;Node21</title>
<g id="a_edge63_Node000001_Node000021"><a xlink:title=" ">
<path fill="none" stroke="#63b8ff" d="M3668.94,-395.91C3663.75,-377.74 3652.5,-334 3652.5,-296.5 3652.5,-296.5 3652.5,-296.5 3652.5,-239.5 3652.5,-206.11 3652.06,-167.19 3651.77,-144.69"/>
<polygon fill="#63b8ff" stroke="#63b8ff" points="3655.26,-144.49 3651.63,-134.54 3648.26,-144.59 3655.26,-144.49"/>
</a>
</g>
</g>
<!-- Node22 -->
<g id="Node000022" class="node">
<title>Node22</title>
<g id="a_Node000022"><a xlink:title=" ">
<polygon fill="#e0e0e0" stroke="#999999" points="3816,-74 3763,-74 3763,-55 3816,-55 3816,-74"/>
<text text-anchor="middle" x="3789.5" y="-62" font-family="Helvetica,sans-Serif" font-size="10.00">stdint.h</text>
</a>
</g>
</g>
<!-- Node1&#45;&gt;Node22 -->
<g id="edge58_Node000001_Node000022" class="edge">
<title>Node1&#45;&gt;Node22</title>
<g id="a_edge58_Node000001_Node000022"><a xlink:title=" ">
<path fill="none" stroke="#63b8ff" d="M3674.54,-395.78C3690.12,-351 3761.27,-146.6 3783.11,-83.87"/>
<polygon fill="#63b8ff" stroke="#63b8ff" points="3786.5,-84.76 3786.48,-74.16 3779.89,-82.46 3786.5,-84.76"/>
</a>
</g>
</g>
<!-- Node59 -->
<g id="Node000059" class="node">
<title>Node59</title>
<g id="a_Node000059"><a xlink:title=" ">
<polygon fill="#e0e0e0" stroke="#999999" points="3771.5,-360 3727.5,-360 3727.5,-341 3771.5,-341 3771.5,-360"/>
<text text-anchor="middle" x="3749.5" y="-348" font-family="Helvetica,sans-Serif" font-size="10.00">string</text>
</a>
</g>
</g>
<!-- Node1&#45;&gt;Node59 -->
<g id="edge59_Node000001_Node000059" class="edge">
<title>Node1&#45;&gt;Node59</title>
<g id="a_edge59_Node000001_Node000059"><a xlink:title=" ">
<path fill="none" stroke="#63b8ff" d="M3684.03,-395.98C3695.9,-387.92 3713.96,-375.65 3728.11,-366.03"/>
<polygon fill="#63b8ff" stroke="#63b8ff" points="3730.44,-368.69 3736.74,-360.17 3726.5,-362.9 3730.44,-368.69"/>
</a>
</g>
</g>
<!-- Node60 -->
<g id="Node000060" class="node">
<title>Node60</title>
<g id="a_Node000060"><a xlink:title=" ">
<polygon fill="#e0e0e0" stroke="#999999" points="3843,-360 3790,-360 3790,-341 3843,-341 3843,-360"/>
<text text-anchor="middle" x="3816.5" y="-348" font-family="Helvetica,sans-Serif" font-size="10.00">ctype.h</text>
</a>
</g>
</g>
<!-- Node1&#45;&gt;Node60 -->
<g id="edge61_Node000001_Node000060" class="edge">
<title>Node1&#45;&gt;Node60</title>
<g id="a_edge61_Node000001_Node000060"><a xlink:title=" ">
<path fill="none" stroke="#63b8ff" d="M3694.8,-395.98C3718.75,-387.23 3756.28,-373.51 3783.33,-363.62"/>
<polygon fill="#63b8ff" stroke="#63b8ff" points="3784.59,-366.89 3792.78,-360.17 3782.19,-360.32 3784.59,-366.89"/>
</a>
</g>
</g>
<!-- Node61 -->
<g id="Node000061" class="node">
<title>Node61</title>
<g id="a_Node000061"><a xlink:title=" ">
<polygon fill="#e0e0e0" stroke="#999999" points="3908,-360 3861,-360 3861,-341 3908,-341 3908,-360"/>
<text text-anchor="middle" x="3884.5" y="-348" font-family="Helvetica,sans-Serif" font-size="10.00">vector</text>
</a>
</g>
</g>
<!-- Node1&#45;&gt;Node61 -->
<g id="edge62_Node000001_Node000061" class="edge">
<title>Node1&#45;&gt;Node61</title>
<g id="a_edge62_Node000001_Node000061"><a xlink:title=" ">
<path fill="none" stroke="#63b8ff" d="M3706.92,-396C3741.38,-387.68 3795.46,-374.51 3850.77,-360.41"/>
<polygon fill="#63b8ff" stroke="#63b8ff" points="3851.92,-363.73 3860.75,-357.86 3850.19,-356.95 3851.92,-363.73"/>
</a>
</g>
</g>
<!-- Node3 -->
<g id="Node000003" class="node">
<title>Node3</title>
<g id="a_Node000003"><a xlink:href="astaroth_8h.html" target="_top" xlink:title=" ">
<polygon fill="#fff0f0" stroke="red" points="780.5,-305 714.5,-305 714.5,-286 780.5,-286 780.5,-305"/>
<text text-anchor="middle" x="747.5" y="-293" font-family="Helvetica,sans-Serif" font-size="10.00">astaroth.h</text>
</a>
</g>
</g>
<!-- Node2&#45;&gt;Node3 -->
<g id="edge2_Node000002_Node000003" class="edge">
<title>Node2&#45;&gt;Node3</title>
<g id="a_edge2_Node000002_Node000003"><a xlink:title=" ">
<path fill="none" stroke="#63b8ff" d="M2766.47,-348.32C2490.61,-341.24 1059.28,-304.5 790.89,-297.61"/>
<polygon fill="#63b8ff" stroke="#63b8ff" points="790.85,-294.11 780.76,-297.35 790.67,-301.11 790.85,-294.11"/>
</a>
</g>
</g>
<!-- Node57 -->
<g id="Node000057" class="node">
<title>Node57</title>
<g id="a_Node000057"><a xlink:title=" ">
<polygon fill="#e0e0e0" stroke="#999999" points="2775.5,-305 2719.5,-305 2719.5,-286 2775.5,-286 2775.5,-305"/>
<text text-anchor="middle" x="2747.5" y="-293" font-family="Helvetica,sans-Serif" font-size="10.00">stdarg.h</text>
</a>
</g>
</g>
<!-- Node2&#45;&gt;Node57 -->
<g id="edge55_Node000002_Node000057" class="edge">
<title>Node2&#45;&gt;Node57</title>
<g id="a_edge55_Node000002_Node000057"><a xlink:title=" ">
<path fill="none" stroke="#63b8ff" d="M2802.06,-340.98C2792.35,-333.07 2777.68,-321.11 2766,-311.58"/>
<polygon fill="#63b8ff" stroke="#63b8ff" points="2768.1,-308.78 2758.13,-305.17 2763.67,-314.2 2768.1,-308.78"/>
</a>
</g>
</g>
<!-- Node58 -->
<g id="Node000058" class="node">
<title>Node58</title>
<g id="a_Node000058"><a xlink:href="astaroth__lib_8h.html" target="_top" xlink:title=" ">
<polygon fill="white" stroke="#666666" points="2877,-305 2794,-305 2794,-286 2877,-286 2877,-305"/>
<text text-anchor="middle" x="2835.5" y="-293" font-family="Helvetica,sans-Serif" font-size="10.00">astaroth_lib.h</text>
</a>
</g>
</g>
<!-- Node2&#45;&gt;Node58 -->
<g id="edge56_Node000002_Node000058" class="edge">
<title>Node2&#45;&gt;Node58</title>
<g id="a_edge56_Node000002_Node000058"><a xlink:title=" ">
<path fill="none" stroke="#63b8ff" d="M2816.3,-340.75C2819.41,-333.57 2823.92,-323.18 2827.79,-314.27"/>
<polygon fill="#63b8ff" stroke="#63b8ff" points="2831,-315.66 2831.77,-305.09 2824.58,-312.87 2831,-315.66"/>
</a>
</g>
</g>
<!-- Node4 -->
<g id="Node000004" class="node">
<title>Node4</title>
<g id="a_Node000004"><a xlink:href="astaroth__base_8h.html" target="_top" xlink:title=" ">
<polygon fill="#fff0f0" stroke="red" points="1270,-250 1175,-250 1175,-231 1270,-231 1270,-250"/>
<text text-anchor="middle" x="1222.5" y="-238" font-family="Helvetica,sans-Serif" font-size="10.00">astaroth_base.h</text>
</a>
</g>
</g>
<!-- Node3&#45;&gt;Node4 -->
<g id="edge3_Node000003_Node000004" class="edge">
<title>Node3&#45;&gt;Node4</title>
<g id="a_edge3_Node000003_Node000004"><a xlink:title=" ">
<path fill="none" stroke="#63b8ff" d="M780.61,-291.45C849.78,-284.98 1014.89,-269 1164.64,-250.06"/>
<polygon fill="#63b8ff" stroke="#63b8ff" points="1165.46,-253.48 1174.93,-248.75 1164.57,-246.54 1165.46,-253.48"/>
</a>
</g>
</g>
<!-- Node45 -->
<g id="Node000045" class="node">
<title>Node45</title>
<g id="a_Node000045"><a xlink:href="astaroth__grid_8h.html" target="_top" xlink:title=" ">
<polygon fill="white" stroke="#666666" points="1378.5,-250 1288.5,-250 1288.5,-231 1378.5,-231 1378.5,-250"/>
<text text-anchor="middle" x="1333.5" y="-238" font-family="Helvetica,sans-Serif" font-size="10.00">astaroth_grid.h</text>
</a>
</g>
</g>
<!-- Node3&#45;&gt;Node45 -->
<g id="edge46_Node000003_Node000045" class="edge">
<title>Node3&#45;&gt;Node45</title>
<g id="a_edge46_Node000003_Node000045"><a xlink:title=" ">
<path fill="none" stroke="#63b8ff" d="M780.51,-292.54C862.64,-287.48 1082.94,-272.87 1278.06,-249.96"/>
<polygon fill="#63b8ff" stroke="#63b8ff" points="1278.69,-253.41 1288.21,-248.75 1277.87,-246.46 1278.69,-253.41"/>
</a>
</g>
</g>
<!-- Node46 -->
<g id="Node000046" class="node">
<title>Node46</title>
<g id="a_Node000046"><a xlink:href="astaroth__node_8h.html" target="_top" xlink:title=" ">
<polygon fill="white" stroke="#666666" points="95,-250 0,-250 0,-231 95,-231 95,-250"/>
<text text-anchor="middle" x="47.5" y="-238" font-family="Helvetica,sans-Serif" font-size="10.00">astaroth_node.h</text>
</a>
</g>
</g>
<!-- Node3&#45;&gt;Node46 -->
<g id="edge47_Node000003_Node000046" class="edge">
<title>Node3&#45;&gt;Node46</title>
<g id="a_edge47_Node000003_Node000046"><a xlink:title=" ">
<path fill="none" stroke="#63b8ff" d="M714.29,-293.13C620.41,-289.05 344.94,-275.74 105.01,-249.96"/>
<polygon fill="#63b8ff" stroke="#63b8ff" points="105.37,-246.48 95.05,-248.88 104.61,-253.43 105.37,-246.48"/>
</a>
</g>
</g>
<!-- Node47 -->
<g id="Node000047" class="node">
<title>Node47</title>
<g id="a_Node000047"><a xlink:href="astaroth__device_8h.html" target="_top" xlink:title=" ">
<polygon fill="#fff0f0" stroke="red" points="217.5,-250 113.5,-250 113.5,-231 217.5,-231 217.5,-250"/>
<text text-anchor="middle" x="165.5" y="-238" font-family="Helvetica,sans-Serif" font-size="10.00">astaroth_device.h</text>
</a>
</g>
</g>
<!-- Node3&#45;&gt;Node47 -->
<g id="edge48_Node000003_Node000047" class="edge">
<title>Node3&#45;&gt;Node47</title>
<g id="a_edge48_Node000003_Node000047"><a xlink:title=" ">
<path fill="none" stroke="#63b8ff" d="M714.22,-292.28C633.01,-286.71 418.05,-271.2 227.9,-250.1"/>
<polygon fill="#63b8ff" stroke="#63b8ff" points="228.05,-246.6 217.72,-248.96 227.27,-253.55 228.05,-246.6"/>
</a>
</g>
</g>
<!-- Node50 -->
<g id="Node000050" class="node">
<title>Node50</title>
<g id="a_Node000050"><a xlink:href="astaroth__legacy_8h.html" target="_top" xlink:title=" ">
<polygon fill="white" stroke="#666666" points="337.5,-250 235.5,-250 235.5,-231 337.5,-231 337.5,-250"/>
<text text-anchor="middle" x="286.5" y="-238" font-family="Helvetica,sans-Serif" font-size="10.00">astaroth_legacy.h</text>
</a>
</g>
</g>
<!-- Node3&#45;&gt;Node50 -->
<g id="edge49_Node000003_Node000050" class="edge">
<title>Node3&#45;&gt;Node50</title>
<g id="a_edge49_Node000003_Node000050"><a xlink:title=" ">
<path fill="none" stroke="#63b8ff" d="M714.45,-291.17C647.43,-284.36 490.47,-268.01 347.8,-250.13"/>
<polygon fill="#63b8ff" stroke="#63b8ff" points="347.91,-246.62 337.55,-248.84 347.03,-253.56 347.91,-246.62"/>
</a>
</g>
</g>
<!-- Node51 -->
<g id="Node000051" class="node">
<title>Node51</title>
<g id="a_Node000051"><a xlink:title=" ">
<polygon fill="#e0e0e0" stroke="#999999" points="495,-250 356,-250 356,-231 495,-231 495,-250"/>
<text text-anchor="middle" x="425.5" y="-238" font-family="Helvetica,sans-Serif" font-size="10.00">device_set_input_decls.h</text>
</a>
</g>
</g>
<!-- Node3&#45;&gt;Node51 -->
<g id="edge50_Node000003_Node000051" class="edge">
<title>Node3&#45;&gt;Node51</title>
<g id="a_edge50_Node000003_Node000051"><a xlink:title=" ">
<path fill="none" stroke="#63b8ff" d="M714.25,-289.03C660.84,-280.24 555.05,-262.82 487.43,-251.69"/>
<polygon fill="#63b8ff" stroke="#63b8ff" points="487.76,-248.2 477.33,-250.03 486.62,-255.11 487.76,-248.2"/>
</a>
</g>
</g>
<!-- Node52 -->
<g id="Node000052" class="node">
<title>Node52</title>
<g id="a_Node000052"><a xlink:title=" ">
<polygon fill="#e0e0e0" stroke="#999999" points="659.5,-250 513.5,-250 513.5,-231 659.5,-231 659.5,-250"/>
<text text-anchor="middle" x="586.5" y="-238" font-family="Helvetica,sans-Serif" font-size="10.00">device_get_output_decls.h</text>
</a>
</g>
</g>
<!-- Node3&#45;&gt;Node52 -->
<g id="edge51_Node000003_Node000052" class="edge">
<title>Node3&#45;&gt;Node52</title>
<g id="a_edge51_Node000003_Node000052"><a xlink:title=" ">
<path fill="none" stroke="#63b8ff" d="M721.63,-285.98C694.72,-277.13 652.38,-263.19 622.27,-253.28"/>
<polygon fill="#63b8ff" stroke="#63b8ff" points="623.16,-249.88 612.57,-250.08 620.97,-256.53 623.16,-249.88"/>
</a>
</g>
</g>
<!-- Node53 -->
<g id="Node000053" class="node">
<title>Node53</title>
<g id="a_Node000053"><a xlink:title=" ">
<polygon fill="#e0e0e0" stroke="#999999" points="817.5,-250 677.5,-250 677.5,-231 817.5,-231 817.5,-250"/>
<text text-anchor="middle" x="747.5" y="-238" font-family="Helvetica,sans-Serif" font-size="10.00">device_get_input_decls.h</text>
</a>
</g>
</g>
<!-- Node3&#45;&gt;Node53 -->
<g id="edge52_Node000003_Node000053" class="edge">
<title>Node3&#45;&gt;Node53</title>
<g id="a_edge52_Node000003_Node000053"><a xlink:title=" ">
<path fill="none" stroke="#63b8ff" d="M747.5,-285.75C747.5,-278.8 747.5,-268.85 747.5,-260.13"/>
<polygon fill="#63b8ff" stroke="#63b8ff" points="751,-260.09 747.5,-250.09 744,-260.09 751,-260.09"/>
</a>
</g>
</g>
<!-- Node54 -->
<g id="Node000054" class="node">
<title>Node54</title>
<g id="a_Node000054"><a xlink:title=" ">
<polygon fill="#e0e0e0" stroke="#999999" points="965.5,-250 835.5,-250 835.5,-231 965.5,-231 965.5,-250"/>
<text text-anchor="middle" x="900.5" y="-238" font-family="Helvetica,sans-Serif" font-size="10.00">get_vtxbufs_declares.h</text>
</a>
</g>
</g>
<!-- Node3&#45;&gt;Node54 -->
<g id="edge53_Node000003_Node000054" class="edge">
<title>Node3&#45;&gt;Node54</title>
<g id="a_edge53_Node000003_Node000054"><a xlink:title=" ">
<path fill="none" stroke="#63b8ff" d="M772.08,-285.98C797.55,-277.16 837.54,-263.31 866.13,-253.41"/>
<polygon fill="#63b8ff" stroke="#63b8ff" points="867.42,-256.66 875.73,-250.08 865.13,-250.05 867.42,-256.66"/>
</a>
</g>
</g>
<!-- Node55 -->
<g id="Node000055" class="node">
<title>Node55</title>
<g id="a_Node000055"><a xlink:href="astaroth__runtime__compilation_8h.html" target="_top" xlink:title=" ">
<polygon fill="white" stroke="#666666" points="1157,-250 984,-250 984,-231 1157,-231 1157,-250"/>
<text text-anchor="middle" x="1070.5" y="-238" font-family="Helvetica,sans-Serif" font-size="10.00">astaroth_runtime_compilation.h</text>
</a>
</g>
</g>
<!-- Node3&#45;&gt;Node55 -->
<g id="edge54_Node000003_Node000055" class="edge">
<title>Node3&#45;&gt;Node55</title>
<g id="a_edge54_Node000003_Node000055"><a xlink:title=" ">
<path fill="none" stroke="#63b8ff" d="M780.55,-289.08C834.08,-280.29 940.58,-262.82 1008.54,-251.67"/>
<polygon fill="#63b8ff" stroke="#63b8ff" points="1009.39,-255.07 1018.69,-250 1008.25,-248.17 1009.39,-255.07"/>
</a>
</g>
</g>
<!-- Node5 -->
<g id="Node000005" class="node">
<title>Node5</title>
<g id="a_Node000005"><a xlink:title=" ">
<polygon fill="#e0e0e0" stroke="#999999" points="1844.5,-74 1782.5,-74 1782.5,-55 1844.5,-55 1844.5,-74"/>
<text text-anchor="middle" x="1813.5" y="-62" font-family="Helvetica,sans-Serif" font-size="10.00">stdbool.h</text>
</a>
</g>
</g>
<!-- Node4&#45;&gt;Node5 -->
<g id="edge4_Node000004_Node000005" class="edge">
<title>Node4&#45;&gt;Node5</title>
<g id="a_edge4_Node000004_Node000005"><a xlink:title=" ">
<path fill="none" stroke="#63b8ff" d="M1181.83,-230.94C1106.48,-213.41 957.79,-169.95 1014.5,-110 1040.75,-82.25 1611.69,-69.34 1771.98,-66.25"/>
<polygon fill="#63b8ff" stroke="#63b8ff" points="1772.44,-69.74 1782.37,-66.05 1772.31,-62.74 1772.44,-69.74"/>
</a>
</g>
</g>
<!-- Node4&#45;&gt;Node7 -->
<g id="edge5_Node000004_Node000007" class="edge">
<title>Node4&#45;&gt;Node7</title>
<g id="a_edge5_Node000004_Node000007"><a xlink:title=" ">
<path fill="none" stroke="#63b8ff" d="M1270.04,-232.03C1273.24,-231.65 1276.41,-231.3 1279.5,-231 1647.8,-195.6 2093.64,-188.34 2245.7,-186.87"/>
<polygon fill="#63b8ff" stroke="#63b8ff" points="2246.17,-190.37 2256.14,-186.77 2246.11,-183.37 2246.17,-190.37"/>
</a>
</g>
</g>
<!-- Node27 -->
<g id="Node000027" class="node">
<title>Node27</title>
<g id="a_Node000027"><a xlink:title=" ">
<polygon fill="#e0e0e0" stroke="#999999" points="1163,-134.5 1024,-134.5 1024,-115.5 1163,-115.5 1163,-134.5"/>
<text text-anchor="middle" x="1093.5" y="-122.5" font-family="Helvetica,sans-Serif" font-size="10.00">user_built&#45;in_constants.h</text>
</a>
</g>
</g>
<!-- Node4&#45;&gt;Node27 -->
<g id="edge45_Node000004_Node000027" class="edge">
<title>Node4&#45;&gt;Node27</title>
<g id="a_edge45_Node000004_Node000027"><a xlink:title=" ">
<path fill="none" stroke="#63b8ff" d="M1212.8,-230.97C1191.14,-211.91 1138.55,-165.63 1110.99,-141.39"/>
<polygon fill="#63b8ff" stroke="#63b8ff" points="1113.13,-138.61 1103.31,-134.63 1108.5,-143.86 1113.13,-138.61"/>
</a>
</g>
</g>
<!-- Node41 -->
<g id="Node000041" class="node">
<title>Node41</title>
<g id="a_Node000041"><a xlink:href="func__define_8h.html" target="_top" xlink:title=" ">
<polygon fill="white" stroke="#666666" points="1263.5,-134.5 1181.5,-134.5 1181.5,-115.5 1263.5,-115.5 1263.5,-134.5"/>
<text text-anchor="middle" x="1222.5" y="-122.5" font-family="Helvetica,sans-Serif" font-size="10.00">func_define.h</text>
</a>
</g>
</g>
<!-- Node4&#45;&gt;Node41 -->
<g id="edge44_Node000004_Node000041" class="edge">
<title>Node4&#45;&gt;Node41</title>
<g id="a_edge44_Node000004_Node000041"><a xlink:title=" ">
<path fill="none" stroke="#63b8ff" d="M1222.5,-230.97C1222.5,-212.73 1222.5,-169.57 1222.5,-144.64"/>
<polygon fill="#63b8ff" stroke="#63b8ff" points="1226,-144.63 1222.5,-134.63 1219,-144.63 1226,-144.63"/>
</a>
</g>
</g>
<!-- Node7&#45;&gt;Node5 -->
<g id="edge7_Node000007_Node000005" class="edge">
<title>Node7&#45;&gt;Node5</title>
<g id="a_edge7_Node000007_Node000005"><a xlink:title=" ">
<path fill="none" stroke="#63b8ff" d="M2256.47,-182.52C2168.6,-177.99 1971.59,-165.29 1909.5,-140 1876.97,-126.75 1846.14,-99.22 1828.57,-81.59"/>
<polygon fill="#63b8ff" stroke="#63b8ff" points="1830.94,-79.01 1821.47,-74.28 1825.92,-83.89 1830.94,-79.01"/>
</a>
</g>
</g>
<!-- Node8 -->
<g id="Node000008" class="node">
<title>Node8</title>
<g id="a_Node000008"><a xlink:title=" ">
<polygon fill="#e0e0e0" stroke="#999999" points="3568.5,-74 3518.5,-74 3518.5,-55 3568.5,-55 3568.5,-74"/>
<text text-anchor="middle" x="3543.5" y="-62" font-family="Helvetica,sans-Serif" font-size="10.00">stdio.h</text>
</a>
</g>
</g>
<!-- Node7&#45;&gt;Node8 -->
<g id="edge6_Node000007_Node000008" class="edge">
<title>Node7&#45;&gt;Node8</title>
<g id="a_edge6_Node000007_Node000008"><a xlink:title=" ">
<path fill="none" stroke="#63b8ff" d="M2342.61,-184.55C2556.45,-184.62 3494.7,-182.46 3538.5,-140 3553.08,-125.86 3551.69,-101.12 3548.41,-84.06"/>
<polygon fill="#63b8ff" stroke="#63b8ff" points="3551.78,-83.1 3546.13,-74.14 3544.96,-84.67 3551.78,-83.1"/>
</a>
</g>
</g>
<!-- Node9 -->
<g id="Node000009" class="node">
<title>Node9</title>
<g id="a_Node000009"><a xlink:href="device__headers_8h.html" target="_top" xlink:title=" ">
<polygon fill="#fff0f0" stroke="red" points="2078.5,-74 1976.5,-74 1976.5,-55 2078.5,-55 2078.5,-74"/>
<text text-anchor="middle" x="2027.5" y="-62" font-family="Helvetica,sans-Serif" font-size="10.00">device_headers.h</text>
</a>
</g>
</g>
<!-- Node7&#45;&gt;Node9 -->
<g id="edge8_Node000007_Node000009" class="edge">
<title>Node7&#45;&gt;Node9</title>
<g id="a_edge8_Node000007_Node000009"><a xlink:title=" ">
<path fill="none" stroke="#63b8ff" d="M2256.19,-182.33C2164.87,-177.3 1959.26,-163.48 1938.5,-140 1929.67,-130.01 1931.49,-121.34 1938.5,-110 1947.99,-94.64 1964.56,-84.41 1980.85,-77.68"/>
<polygon fill="#63b8ff" stroke="#63b8ff" points="1982.23,-80.9 1990.35,-74.1 1979.76,-74.35 1982.23,-80.9"/>
</a>
</g>
</g>
<!-- Node12 -->
<g id="Node000012" class="node">
<title>Node12</title>
<g id="a_Node000012"><a xlink:title=" ">
<polygon fill="#e0e0e0" stroke="#999999" points="1958,-74 1863,-74 1863,-55 1958,-55 1958,-74"/>
<text text-anchor="middle" x="1910.5" y="-62" font-family="Helvetica,sans-Serif" font-size="10.00">builtin_enums.h</text>
</a>
</g>
</g>
<!-- Node7&#45;&gt;Node12 -->
<g id="edge9_Node000007_Node000012" class="edge">
<title>Node7&#45;&gt;Node12</title>
<g id="a_edge9_Node000007_Node000012"><a xlink:title=" ">
<path fill="none" stroke="#63b8ff" d="M2256.24,-185.2C2169.21,-185.7 1977.21,-181.88 1929.5,-140 1913.93,-126.34 1910.26,-101.86 1909.78,-84.7"/>
<polygon fill="#63b8ff" stroke="#63b8ff" points="1913.28,-84.24 1909.85,-74.22 1906.28,-84.19 1913.28,-84.24"/>
</a>
</g>
</g>
<!-- Node13 -->
<g id="Node000013" class="node">
<title>Node13</title>
<g id="a_Node000013"><a xlink:href="datatypes_8h.html" target="_top" xlink:title=" ">
<polygon fill="#fff0f0" stroke="red" points="2021.5,-134.5 1947.5,-134.5 1947.5,-115.5 2021.5,-115.5 2021.5,-134.5"/>
<text text-anchor="middle" x="1984.5" y="-122.5" font-family="Helvetica,sans-Serif" font-size="10.00">datatypes.h</text>
</a>
</g>
</g>
<!-- Node7&#45;&gt;Node13 -->
<g id="edge10_Node000007_Node000013" class="edge">
<title>Node7&#45;&gt;Node13</title>
<g id="a_edge10_Node000007_Node000013"><a xlink:title=" ">
<path fill="none" stroke="#63b8ff" d="M2256.29,-179.14C2202.86,-172.09 2109.32,-158.43 2030.5,-140 2027.15,-139.22 2023.68,-138.32 2020.22,-137.37"/>
<polygon fill="#63b8ff" stroke="#63b8ff" points="2021.19,-134.01 2010.61,-134.6 2019.25,-140.73 2021.19,-134.01"/>
</a>
</g>
</g>
<!-- Node7&#45;&gt;Node21 -->
<g id="edge16_Node000007_Node000021" class="edge">
<title>Node7&#45;&gt;Node21</title>
<g id="a_edge16_Node000007_Node000021"><a xlink:title=" ">
<path fill="none" stroke="#63b8ff" d="M2342.62,-183.79C2536.09,-180.5 3325.36,-165.72 3571.5,-140 3585.22,-138.57 3600.14,-136.18 3613.34,-133.79"/>
<polygon fill="#63b8ff" stroke="#63b8ff" points="3614.31,-137.16 3623.5,-131.88 3613.02,-130.28 3614.31,-137.16"/>
</a>
</g>
</g>
<!-- Node25 -->
<g id="Node000025" class="node">
<title>Node25</title>
<g id="a_Node000025"><a xlink:title=" ">
<polygon fill="#e0e0e0" stroke="#999999" points="2127,-134.5 2040,-134.5 2040,-115.5 2127,-115.5 2127,-134.5"/>
<text text-anchor="middle" x="2083.5" y="-122.5" font-family="Helvetica,sans-Serif" font-size="10.00">user_defines.h</text>
</a>
</g>
</g>
<!-- Node7&#45;&gt;Node25 -->
<g id="edge25_Node000007_Node000025" class="edge">
<title>Node7&#45;&gt;Node25</title>
<g id="a_edge25_Node000007_Node000025"><a xlink:title=" ">
<path fill="none" stroke="#63b8ff" d="M2268.09,-175.99C2230.26,-165.75 2166.59,-148.5 2124.81,-137.19"/>
<polygon fill="#63b8ff" stroke="#63b8ff" points="2125.51,-133.75 2114.95,-134.52 2123.68,-140.51 2125.51,-133.75"/>
</a>
</g>
</g>
<!-- Node26 -->
<g id="Node000026" class="node">
<title>Node26</title>
<g id="a_Node000026"><a xlink:title=" ">
<polygon fill="#e0e0e0" stroke="#999999" points="2231.5,-134.5 2145.5,-134.5 2145.5,-115.5 2231.5,-115.5 2231.5,-134.5"/>
<text text-anchor="middle" x="2188.5" y="-122.5" font-family="Helvetica,sans-Serif" font-size="10.00">profiles_info.h</text>
</a>
</g>
</g>
<!-- Node7&#45;&gt;Node26 -->
<g id="edge26_Node000007_Node000026" class="edge">
<title>Node7&#45;&gt;Node26</title>
<g id="a_edge26_Node000007_Node000026"><a xlink:title=" ">
<path fill="none" stroke="#63b8ff" d="M2283.12,-175.87C2264.92,-166.28 2235.3,-150.67 2214.05,-139.47"/>
<polygon fill="#63b8ff" stroke="#63b8ff" points="2215.42,-136.23 2204.95,-134.67 2212.16,-142.43 2215.42,-136.23"/>
</a>
</g>
</g>
<!-- Node7&#45;&gt;Node27 -->
<g id="edge27_Node000007_Node000027" class="edge">
<title>Node7&#45;&gt;Node27</title>
<g id="a_edge27_Node000007_Node000027"><a xlink:title=" ">
<path fill="none" stroke="#63b8ff" d="M2256.35,-184.9C2106.24,-185.85 1593.02,-185.35 1172.5,-140 1163.75,-139.06 1154.5,-137.72 1145.54,-136.25"/>
<polygon fill="#63b8ff" stroke="#63b8ff" points="1146.02,-132.79 1135.58,-134.55 1144.84,-139.69 1146.02,-132.79"/>
</a>
</g>
</g>
<!-- Node28 -->
<g id="Node000028" class="node">
<title>Node28</title>
<g id="a_Node000028"><a xlink:href="func__attributes_8h.html" target="_top" xlink:title=" ">
<polygon fill="white" stroke="#666666" points="2349,-134.5 2250,-134.5 2250,-115.5 2349,-115.5 2349,-134.5"/>
<text text-anchor="middle" x="2299.5" y="-122.5" font-family="Helvetica,sans-Serif" font-size="10.00">func_attributes.h</text>
</a>
</g>
</g>
<!-- Node7&#45;&gt;Node28 -->
<g id="edge28_Node000007_Node000028" class="edge">
<title>Node7&#45;&gt;Node28</title>
<g id="a_edge28_Node000007_Node000028"><a xlink:title=" ">
<path fill="none" stroke="#63b8ff" d="M2299.5,-175.87C2299.5,-167.75 2299.5,-155.31 2299.5,-144.89"/>
<polygon fill="#63b8ff" stroke="#63b8ff" points="2303,-144.67 2299.5,-134.67 2296,-144.67 2303,-144.67"/>
</a>
</g>
</g>
<!-- Node29 -->
<g id="Node000029" class="node">
<title>Node29</title>
<g id="a_Node000029"><a xlink:title=" ">
<polygon fill="#e0e0e0" stroke="#999999" points="2492,-134.5 2367,-134.5 2367,-115.5 2492,-115.5 2492,-134.5"/>
<text text-anchor="middle" x="2429.5" y="-122.5" font-family="Helvetica,sans-Serif" font-size="10.00">user_input_typedefs.h</text>
</a>
</g>
</g>
<!-- Node7&#45;&gt;Node29 -->
<g id="edge29_Node000007_Node000029" class="edge">
<title>Node7&#45;&gt;Node29</title>
<g id="a_edge29_Node000007_Node000029"><a xlink:title=" ">
<path fill="none" stroke="#63b8ff" d="M2318.4,-175.99C2340.16,-166.2 2376.12,-150.02 2401.21,-138.73"/>
<polygon fill="#63b8ff" stroke="#63b8ff" points="2402.89,-141.81 2410.57,-134.52 2400.02,-135.43 2402.89,-141.81"/>
</a>
</g>
</g>
<!-- Node30 -->
<g id="Node000030" class="node">
<title>Node30</title>
<g id="a_Node000030"><a xlink:title=" ">
<polygon fill="#e0e0e0" stroke="#999999" points="2593,-134.5 2510,-134.5 2510,-115.5 2593,-115.5 2593,-134.5"/>
<text text-anchor="middle" x="2551.5" y="-122.5" font-family="Helvetica,sans-Serif" font-size="10.00">output_decl.h</text>
</a>
</g>
</g>
<!-- Node7&#45;&gt;Node30 -->
<g id="edge30_Node000007_Node000030" class="edge">
<title>Node7&#45;&gt;Node30</title>
<g id="a_edge30_Node000007_Node000030"><a xlink:title=" ">
<path fill="none" stroke="#63b8ff" d="M2340.83,-175.98C2381.57,-167.44 2445.51,-153.62 2500.5,-140 2504.1,-139.11 2507.83,-138.15 2511.56,-137.17"/>
<polygon fill="#63b8ff" stroke="#63b8ff" points="2512.61,-140.51 2521.36,-134.54 2510.8,-133.75 2512.61,-140.51"/>
</a>
</g>
</g>
<!-- Node31 -->
<g id="Node000031" class="node">
<title>Node31</title>
<g id="a_Node000031"><a xlink:title=" ">
<polygon fill="#e0e0e0" stroke="#999999" points="2727.5,-134.5 2611.5,-134.5 2611.5,-115.5 2727.5,-115.5 2727.5,-134.5"/>
<text text-anchor="middle" x="2669.5" y="-122.5" font-family="Helvetica,sans-Serif" font-size="10.00">comp_loaded_decl.h</text>
</a>
</g>
</g>
<!-- Node7&#45;&gt;Node31 -->
<g id="edge31_Node000007_Node000031" class="edge">
<title>Node7&#45;&gt;Node31</title>
<g id="a_edge31_Node000007_Node000031"><a xlink:title=" ">
<path fill="none" stroke="#63b8ff" d="M2342.63,-178.93C2401.35,-171.16 2509.65,-156.21 2601.5,-140 2607.43,-138.95 2613.64,-137.78 2619.79,-136.57"/>
<polygon fill="#63b8ff" stroke="#63b8ff" points="2620.9,-139.92 2630.02,-134.52 2619.53,-133.06 2620.9,-139.92"/>
</a>
</g>
</g>
<!-- Node32 -->
<g id="Node000032" class="node">
<title>Node32</title>
<g id="a_Node000032"><a xlink:title=" ">
<polygon fill="#e0e0e0" stroke="#999999" points="2823.5,-134.5 2745.5,-134.5 2745.5,-115.5 2823.5,-115.5 2823.5,-134.5"/>
<text text-anchor="middle" x="2784.5" y="-122.5" font-family="Helvetica,sans-Serif" font-size="10.00">comp_decl.h</text>
</a>
</g>
</g>
<!-- Node7&#45;&gt;Node32 -->
<g id="edge32_Node000007_Node000032" class="edge">
<title>Node7&#45;&gt;Node32</title>
<g id="a_edge32_Node000007_Node000032"><a xlink:title=" ">
<path fill="none" stroke="#63b8ff" d="M2342.68,-182.71C2421.55,-178.87 2593.91,-167.81 2736.5,-140 2740.46,-139.23 2744.57,-138.27 2748.63,-137.23"/>
<polygon fill="#63b8ff" stroke="#63b8ff" points="2749.84,-140.53 2758.55,-134.5 2747.98,-133.78 2749.84,-140.53"/>
</a>
</g>
</g>
<!-- Node33 -->
<g id="Node000033" class="node">
<title>Node33</title>
<g id="a_Node000033"><a xlink:title=" ">
<polygon fill="#e0e0e0" stroke="#999999" points="2949.5,-134.5 2841.5,-134.5 2841.5,-115.5 2949.5,-115.5 2949.5,-134.5"/>
<text text-anchor="middle" x="2895.5" y="-122.5" font-family="Helvetica,sans-Serif" font-size="10.00">info_loaded_decl.h</text>
</a>
</g>
</g>
<!-- Node7&#45;&gt;Node33 -->
<g id="edge33_Node000007_Node000033" class="edge">
<title>Node7&#45;&gt;Node33</title>
<g id="a_edge33_Node000007_Node000033"><a xlink:title=" ">
<path fill="none" stroke="#63b8ff" d="M2342.57,-182.88C2433.51,-179.03 2651.65,-167.51 2832.5,-140 2838.46,-139.09 2844.7,-137.95 2850.84,-136.71"/>
<polygon fill="#63b8ff" stroke="#63b8ff" points="2851.94,-140.05 2861,-134.55 2850.49,-133.2 2851.94,-140.05"/>
</a>
</g>
</g>
<!-- Node34 -->
<g id="Node000034" class="node">
<title>Node34</title>
<g id="a_Node000034"><a xlink:title=" ">
<polygon fill="#e0e0e0" stroke="#999999" points="3107.5,-134.5 2967.5,-134.5 2967.5,-115.5 3107.5,-115.5 3107.5,-134.5"/>
<text text-anchor="middle" x="3037.5" y="-122.5" font-family="Helvetica,sans-Serif" font-size="10.00">device_mesh_info_decl.h</text>
</a>
</g>
</g>
<!-- Node7&#45;&gt;Node34 -->
<g id="edge34_Node000007_Node000034" class="edge">
<title>Node7&#45;&gt;Node34</title>
<g id="a_edge34_Node000007_Node000034"><a xlink:title=" ">
<path fill="none" stroke="#63b8ff" d="M2342.83,-183.19C2448.44,-179.65 2727.43,-168.19 2958.5,-140 2966.85,-138.98 2975.65,-137.66 2984.23,-136.25"/>
<polygon fill="#63b8ff" stroke="#63b8ff" points="2984.9,-139.68 2994.16,-134.55 2983.72,-132.78 2984.9,-139.68"/>
</a>
</g>
</g>
<!-- Node35 -->
<g id="Node000035" class="node">
<title>Node35</title>
<g id="a_Node000035"><a xlink:title=" ">
<polygon fill="#e0e0e0" stroke="#999999" points="3203,-134.5 3126,-134.5 3126,-115.5 3203,-115.5 3203,-134.5"/>
<text text-anchor="middle" x="3164.5" y="-122.5" font-family="Helvetica,sans-Serif" font-size="10.00">array_decl.h</text>
</a>
</g>
</g>
<!-- Node7&#45;&gt;Node35 -->
<g id="edge35_Node000007_Node000035" class="edge">
<title>Node7&#45;&gt;Node35</title>
<g id="a_edge35_Node000007_Node000035"><a xlink:title=" ">
<path fill="none" stroke="#63b8ff" d="M2342.54,-183.46C2488.71,-179.72 2965.45,-165.79 3116.5,-140 3120.74,-139.28 3125.13,-138.31 3129.46,-137.22"/>
<polygon fill="#63b8ff" stroke="#63b8ff" points="3130.62,-140.53 3139.34,-134.51 3128.78,-133.78 3130.62,-140.53"/>
</a>
</g>
</g>
<!-- Node36 -->
<g id="Node000036" class="node">
<title>Node36</title>
<g id="a_Node000036"><a xlink:title=" ">
<polygon fill="#e0e0e0" stroke="#999999" points="3297.5,-134.5 3221.5,-134.5 3221.5,-115.5 3297.5,-115.5 3297.5,-134.5"/>
<text text-anchor="middle" x="3259.5" y="-122.5" font-family="Helvetica,sans-Serif" font-size="10.00">input_decl.h</text>
</a>
</g>
</g>
<!-- Node7&#45;&gt;Node36 -->
<g id="edge36_Node000007_Node000036" class="edge">
<title>Node7&#45;&gt;Node36</title>
<g id="a_edge36_Node000007_Node000036"><a xlink:title=" ">
<path fill="none" stroke="#63b8ff" d="M2342.61,-183.77C2499.81,-180.91 3041.99,-169.11 3212.5,-140 3216.65,-139.29 3220.96,-138.33 3225.2,-137.25"/>
<polygon fill="#63b8ff" stroke="#63b8ff" points="3226.19,-140.6 3234.88,-134.55 3224.31,-133.86 3226.19,-140.6"/>
</a>
</g>
</g>
<!-- Node37 -->
<g id="Node000037" class="node">
<title>Node37</title>
<g id="a_Node000037"><a xlink:href="ac__helpers_8h.html" target="_top" xlink:title=" ">
<polygon fill="white" stroke="#666666" points="3393.5,-134.5 3315.5,-134.5 3315.5,-115.5 3393.5,-115.5 3393.5,-134.5"/>
<text text-anchor="middle" x="3354.5" y="-122.5" font-family="Helvetica,sans-Serif" font-size="10.00">ac_helpers.h</text>
</a>
</g>
</g>
<!-- Node7&#45;&gt;Node37 -->
<g id="edge37_Node000007_Node000037" class="edge">
<title>Node7&#45;&gt;Node37</title>
<g id="a_edge37_Node000007_Node000037"><a xlink:title=" ">
<path fill="none" stroke="#63b8ff" d="M2342.66,-183.97C2510.08,-181.69 3116.69,-171.41 3306.5,-140 3310.74,-139.3 3315.13,-138.34 3319.46,-137.26"/>
<polygon fill="#63b8ff" stroke="#63b8ff" points="3320.63,-140.57 3329.35,-134.56 3318.78,-133.82 3320.63,-140.57"/>
</a>
</g>
</g>
<!-- Node38 -->
<g id="Node000038" class="node">
<title>Node38</title>
<g id="a_Node000038"><a xlink:title=" ">
<polygon fill="#e0e0e0" stroke="#999999" points="3529.5,-140 3411.5,-140 3411.5,-110 3529.5,-110 3529.5,-140"/>
<text text-anchor="start" x="3419.5" y="-128" font-family="Helvetica,sans-Serif" font-size="10.00">scalar_reduce_buffer</text>
<text text-anchor="middle" x="3470.5" y="-117" font-family="Helvetica,sans-Serif" font-size="10.00">_defs.h</text>
</a>
</g>
</g>
<!-- Node7&#45;&gt;Node38 -->
<g id="edge38_Node000007_Node000038" class="edge">
<title>Node7&#45;&gt;Node38</title>
<g id="a_edge38_Node000007_Node000038"><a xlink:title=" ">
<path fill="none" stroke="#63b8ff" d="M2342.72,-183.7C2517.38,-180.31 3172.24,-166.19 3401.32,-139.97"/>
<polygon fill="#63b8ff" stroke="#63b8ff" points="3401.74,-143.44 3411.26,-138.79 3400.91,-136.49 3401.74,-143.44"/>
</a>
</g>
</g>
<!-- Node39 -->
<g id="Node000039" class="node">
<title>Node39</title>
<g id="a_Node000039"><a xlink:title=" ">
<polygon fill="#e0e0e0" stroke="#999999" points="1405,-140 1282,-140 1282,-110 1405,-110 1405,-140"/>
<text text-anchor="start" x="1290" y="-128" font-family="Helvetica,sans-Serif" font-size="10.00">scalar_reduce_buffers</text>
<text text-anchor="middle" x="1343.5" y="-117" font-family="Helvetica,sans-Serif" font-size="10.00">_in_vba.h</text>
</a>
</g>
</g>
<!-- Node7&#45;&gt;Node39 -->
<g id="edge39_Node000007_Node000039" class="edge">
<title>Node7&#45;&gt;Node39</title>
<g id="a_edge39_Node000007_Node000039"><a xlink:title=" ">
<path fill="none" stroke="#63b8ff" d="M2256.49,-184.53C2129.36,-184.16 1744.3,-179.7 1415.57,-139.99"/>
<polygon fill="#63b8ff" stroke="#63b8ff" points="1415.72,-136.48 1405.37,-138.75 1414.87,-143.43 1415.72,-136.48"/>
</a>
</g>
</g>
<!-- Node40 -->
<g id="Node000040" class="node">
<title>Node40</title>
<g id="a_Node000040"><a xlink:href="astaroth__analysis_8h.html" target="_top" xlink:title=" ">
<polygon fill="white" stroke="#666666" points="1535.5,-134.5 1423.5,-134.5 1423.5,-115.5 1535.5,-115.5 1535.5,-134.5"/>
<text text-anchor="middle" x="1479.5" y="-122.5" font-family="Helvetica,sans-Serif" font-size="10.00">astaroth_analysis.h</text>
</a>
</g>
</g>
<!-- Node7&#45;&gt;Node40 -->
<g id="edge40_Node000007_Node000040" class="edge">
<title>Node7&#45;&gt;Node40</title>
<g id="a_edge40_Node000007_Node000040"><a xlink:title=" ">
<path fill="none" stroke="#63b8ff" d="M2256.29,-184.26C2140.44,-183.14 1813.48,-176.67 1544.5,-140 1538.04,-139.12 1531.28,-137.95 1524.65,-136.65"/>
<polygon fill="#63b8ff" stroke="#63b8ff" points="1524.91,-133.13 1514.41,-134.55 1523.5,-139.99 1524.91,-133.13"/>
</a>
</g>
</g>
<!-- Node7&#45;&gt;Node41 -->
<g id="edge41_Node000007_Node000041" class="edge">
<title>Node7&#45;&gt;Node41</title>
<g id="a_edge41_Node000007_Node000041"><a xlink:title=" ">
<path fill="none" stroke="#63b8ff" d="M2256.36,-183.95C2086.9,-181.58 1466.58,-170.95 1272.5,-140 1267.97,-139.28 1263.27,-138.29 1258.64,-137.17"/>
<polygon fill="#63b8ff" stroke="#63b8ff" points="1259.28,-133.72 1248.72,-134.56 1257.5,-140.49 1259.28,-133.72"/>
</a>
</g>
</g>
<!-- Node42 -->
<g id="Node000042" class="node">
<title>Node42</title>
<g id="a_Node000042"><a xlink:href="common__kernels_8h.html" target="_top" xlink:title=" ">
<polygon fill="white" stroke="#666666" points="1663,-134.5 1554,-134.5 1554,-115.5 1663,-115.5 1663,-134.5"/>
<text text-anchor="middle" x="1608.5" y="-122.5" font-family="Helvetica,sans-Serif" font-size="10.00">common_kernels.h</text>
</a>
</g>
</g>
<!-- Node7&#45;&gt;Node42 -->
<g id="edge42_Node000007_Node000042" class="edge">
<title>Node7&#45;&gt;Node42</title>
<g id="a_edge42_Node000007_Node000042"><a xlink:title=" ">
<path fill="none" stroke="#63b8ff" d="M2256.32,-183.58C2154.28,-180.95 1890.42,-171.4 1672.5,-140 1666.22,-139.1 1659.64,-137.92 1653.18,-136.64"/>
<polygon fill="#63b8ff" stroke="#63b8ff" points="1653.71,-133.17 1643.21,-134.55 1652.28,-140.02 1653.71,-133.17"/>
</a>
</g>
</g>
<!-- Node43 -->
<g id="Node000043" class="node">
<title>Node43</title>
<g id="a_Node000043"><a xlink:title=" ">
<polygon fill="#e0e0e0" stroke="#999999" points="1815.5,-140 1681.5,-140 1681.5,-110 1815.5,-110 1815.5,-140"/>
<text text-anchor="start" x="1689.5" y="-128" font-family="Helvetica,sans-Serif" font-size="10.00">load_and_store_uniform</text>
<text text-anchor="middle" x="1748.5" y="-117" font-family="Helvetica,sans-Serif" font-size="10.00">_header.h</text>
</a>
</g>
</g>
<!-- Node7&#45;&gt;Node43 -->
<g id="edge43_Node000007_Node000043" class="edge">
<title>Node7&#45;&gt;Node43</title>
<g id="a_edge43_Node000007_Node000043"><a xlink:title=" ">
<path fill="none" stroke="#63b8ff" d="M2256.28,-181.52C2173.32,-175.56 1986.09,-160.91 1829.5,-140 1828.23,-139.83 1826.94,-139.65 1825.65,-139.47"/>
<polygon fill="#63b8ff" stroke="#63b8ff" points="1826.02,-135.99 1815.62,-138.01 1825.01,-142.92 1826.02,-135.99"/>
</a>
</g>
</g>
<!-- Node13&#45;&gt;Node9 -->
<g id="edge12_Node000013_Node000009" class="edge">
<title>Node13&#45;&gt;Node9</title>
<g id="a_edge12_Node000013_Node000009"><a xlink:title=" ">
<path fill="none" stroke="#63b8ff" d="M1990.84,-115.37C1997.2,-106.73 2007.14,-93.2 2015.07,-82.42"/>
<polygon fill="#63b8ff" stroke="#63b8ff" points="2018.03,-84.3 2021.13,-74.17 2012.39,-80.15 2018.03,-84.3"/>
</a>
</g>
</g>
<!-- Node13&#45;&gt;Node12 -->
<g id="edge13_Node000013_Node000012" class="edge">
<title>Node13&#45;&gt;Node12</title>
<g id="a_edge13_Node000013_Node000012"><a xlink:title=" ">
<path fill="none" stroke="#63b8ff" d="M1973.58,-115.37C1961.99,-106.21 1943.47,-91.56 1929.48,-80.51"/>
<polygon fill="#63b8ff" stroke="#63b8ff" points="1931.48,-77.62 1921.46,-74.17 1927.14,-83.11 1931.48,-77.62"/>
</a>
</g>
</g>
<!-- Node13&#45;&gt;Node15 -->
<g id="edge11_Node000013_Node000015" class="edge">
<title>Node13&#45;&gt;Node15</title>
<g id="a_edge11_Node000013_Node000015"><a xlink:title=" ">
<path fill="none" stroke="#63b8ff" d="M2009.07,-115.38C2015.93,-113.28 2023.44,-111.28 2030.5,-110 2279.17,-64.82 2585.22,-63.77 2688.52,-64.89"/>
<polygon fill="#63b8ff" stroke="#63b8ff" points="2688.68,-68.4 2698.72,-65.02 2688.76,-61.4 2688.68,-68.4"/>
</a>
</g>
</g>
<!-- Node19 -->
<g id="Node000019" class="node">
<title>Node19</title>
<g id="a_Node000019"><a xlink:href="host__datatypes_8h.html" target="_top" xlink:title=" ">
<polygon fill="#fff0f0" stroke="red" points="3500,-74 3399,-74 3399,-55 3500,-55 3500,-74"/>
<text text-anchor="middle" x="3449.5" y="-62" font-family="Helvetica,sans-Serif" font-size="10.00">host_datatypes.h</text>
</a>
</g>
</g>
<!-- Node13&#45;&gt;Node19 -->
<g id="edge14_Node000013_Node000019" class="edge">
<title>Node13&#45;&gt;Node19</title>
<g id="a_edge14_Node000013_Node000019"><a xlink:title=" ">
<path fill="none" stroke="#63b8ff" d="M2008.57,-115.37C2015.55,-113.22 2023.25,-111.19 2030.5,-110 2165.58,-87.73 3134.95,-70.6 3388.79,-66.46"/>
<polygon fill="#63b8ff" stroke="#63b8ff" points="3388.98,-69.96 3398.93,-66.29 3388.87,-62.96 3388.98,-69.96"/>
</a>
</g>
</g>
<!-- Node20 -->
<g id="Node000020" class="node">
<title>Node20</title>
<g id="a_Node000020"><a xlink:title=" ">
<polygon fill="#e0e0e0" stroke="#999999" points="3550.5,-19 3494.5,-19 3494.5,0 3550.5,0 3550.5,-19"/>
<text text-anchor="middle" x="3522.5" y="-7" font-family="Helvetica,sans-Serif" font-size="10.00">stddef.h</text>
</a>
</g>
</g>
<!-- Node19&#45;&gt;Node20 -->
<g id="edge15_Node000019_Node000020" class="edge">
<title>Node19&#45;&gt;Node20</title>
<g id="a_edge15_Node000019_Node000020"><a xlink:title=" ">
<path fill="none" stroke="#63b8ff" d="M3461.23,-54.98C3472.23,-47 3488.92,-34.88 3502.1,-25.31"/>
<polygon fill="#63b8ff" stroke="#63b8ff" points="3504.52,-27.88 3510.56,-19.17 3500.41,-22.21 3504.52,-27.88"/>
</a>
</g>
</g>
<!-- Node21&#45;&gt;Node5 -->
<g id="edge19_Node000021_Node000005" class="edge">
<title>Node21&#45;&gt;Node5</title>
<g id="a_edge19_Node000021_Node000005"><a xlink:title=" ">
<path fill="none" stroke="#63b8ff" d="M3623.25,-119.69C3600.44,-116.4 3567.48,-112.1 3538.5,-110 2794.77,-56.12 2599.34,-159.29 1855.02,-73.92"/>
<polygon fill="#63b8ff" stroke="#63b8ff" points="1855.19,-70.41 1844.85,-72.74 1854.38,-77.37 1855.19,-70.41"/>
</a>
</g>
</g>
<!-- Node21&#45;&gt;Node8 -->
<g id="edge21_Node000021_Node000008" class="edge">
<title>Node21&#45;&gt;Node8</title>
<g id="a_edge21_Node000021_Node000008"><a xlink:title=" ">
<path fill="none" stroke="#63b8ff" d="M3635.56,-115.37C3617.86,-105.78 3589.04,-90.17 3568.36,-78.97"/>
<polygon fill="#63b8ff" stroke="#63b8ff" points="3569.96,-75.85 3559.5,-74.17 3566.63,-82.01 3569.96,-75.85"/>
</a>
</g>
</g>
<!-- Node21&#45;&gt;Node9 -->
<g id="edge24_Node000021_Node000009" class="edge">
<title>Node21&#45;&gt;Node9</title>
<g id="a_edge24_Node000021_Node000009"><a xlink:title=" ">
<path fill="none" stroke="#63b8ff" d="M3623.25,-119.75C3600.43,-116.5 3567.47,-112.22 3538.5,-110 3249.57,-87.9 2334.78,-70.81 2088.87,-66.54"/>
<polygon fill="#63b8ff" stroke="#63b8ff" points="2088.75,-63.03 2078.69,-66.36 2088.63,-70.03 2088.75,-63.03"/>
</a>
</g>
</g>
<!-- Node21&#45;&gt;Node19 -->
<g id="edge18_Node000021_Node000019" class="edge">
<title>Node21&#45;&gt;Node19</title>
<g id="a_edge18_Node000021_Node000019"><a xlink:title=" ">
<path fill="none" stroke="#63b8ff" d="M3626.25,-115.35C3620.74,-113.53 3614.94,-111.66 3609.5,-110 3569.94,-97.91 3524.47,-85.4 3492.13,-76.73"/>
<polygon fill="#63b8ff" stroke="#63b8ff" points="3492.69,-73.25 3482.12,-74.06 3490.88,-80.02 3492.69,-73.25"/>
</a>
</g>
</g>
<!-- Node21&#45;&gt;Node20 -->
<g id="edge17_Node000021_Node000020" class="edge">
<title>Node21&#45;&gt;Node20</title>
<g id="a_edge17_Node000021_Node000020"><a xlink:title=" ">
<path fill="none" stroke="#63b8ff" d="M3642.57,-115.29C3628.85,-102 3601.63,-75.97 3577.5,-55 3565.79,-44.83 3552.26,-33.87 3541.54,-25.37"/>
<polygon fill="#63b8ff" stroke="#63b8ff" points="3543.66,-22.58 3533.64,-19.14 3539.33,-28.08 3543.66,-22.58"/>
</a>
</g>
</g>
<!-- Node21&#45;&gt;Node22 -->
<g id="edge20_Node000021_Node000022" class="edge">
<title>Node21&#45;&gt;Node22</title>
<g id="a_edge20_Node000021_Node000022"><a xlink:title=" ">
<path fill="none" stroke="#63b8ff" d="M3671.57,-115.49C3694.87,-105.62 3733.51,-89.23 3760.18,-77.93"/>
<polygon fill="#63b8ff" stroke="#63b8ff" points="3761.57,-81.14 3769.41,-74.02 3758.84,-74.7 3761.57,-81.14"/>
</a>
</g>
</g>
<!-- Node23 -->
<g id="Node000023" class="node">
<title>Node23</title>
<g id="a_Node000023"><a xlink:title=" ">
<polygon fill="#e0e0e0" stroke="#999999" points="3678,-74 3625,-74 3625,-55 3678,-55 3678,-74"/>
<text text-anchor="middle" x="3651.5" y="-62" font-family="Helvetica,sans-Serif" font-size="10.00">stdlib.h</text>
</a>
</g>
</g>
<!-- Node21&#45;&gt;Node23 -->
<g id="edge22_Node000021_Node000023" class="edge">
<title>Node21&#45;&gt;Node23</title>
<g id="a_edge22_Node000021_Node000023"><a xlink:title=" ">
<path fill="none" stroke="#63b8ff" d="M3651.5,-115.37C3651.5,-107.25 3651.5,-94.81 3651.5,-84.39"/>
<polygon fill="#63b8ff" stroke="#63b8ff" points="3655,-84.17 3651.5,-74.17 3648,-84.17 3655,-84.17"/>
</a>
</g>
</g>
<!-- Node24 -->
<g id="Node000024" class="node">
<title>Node24</title>
<g id="a_Node000024"><a xlink:title=" ">
<polygon fill="#e0e0e0" stroke="#999999" points="3744.5,-74 3696.5,-74 3696.5,-55 3744.5,-55 3744.5,-74"/>
<text text-anchor="middle" x="3720.5" y="-62" font-family="Helvetica,sans-Serif" font-size="10.00">time.h</text>
</a>
</g>
</g>
<!-- Node21&#45;&gt;Node24 -->
<g id="edge23_Node000021_Node000024" class="edge">
<title>Node21&#45;&gt;Node24</title>
<g id="a_edge23_Node000021_Node000024"><a xlink:title=" ">
<path fill="none" stroke="#63b8ff" d="M3661.68,-115.37C3672.38,-106.3 3689.44,-91.84 3702.43,-80.82"/>
<polygon fill="#63b8ff" stroke="#63b8ff" points="3704.91,-83.3 3710.28,-74.17 3700.39,-77.96 3704.91,-83.3"/>
</a>
</g>
</g>
</g>
</svg>
