<?xml version="1.0" encoding="UTF-8" standalone="no"?>
<!DOCTYPE svg PUBLIC "-//W3C//DTD SVG 1.1//EN"
 "http://www.w3.org/Graphics/SVG/1.1/DTD/svg11.dtd">
<!-- Generated by graphviz version 2.43.0 (0)
 -->
<!-- Title: src/core/cuda_wrappers/cpu.cc Pages: 1 -->
<svg width="619pt" height="203pt"
 viewBox="0.00 0.00 619.00 203.00" xmlns="http://www.w3.org/2000/svg" xmlns:xlink="http://www.w3.org/1999/xlink">
<g id="graph0" class="graph" transform="scale(1 1) rotate(0) translate(4 199)">
<title>src/core/cuda_wrappers/cpu.cc</title>
<!-- Node1 -->
<g id="Node000001" class="node">
<title>Node1</title>
<g id="a_Node000001"><a xlink:title=" ">
<polygon fill="#999999" stroke="#666666" points="392,-195 261,-195 261,-165 392,-165 392,-195"/>
<text text-anchor="start" x="269" y="-183" font-family="Helvetica,sans-Serif" font-size="10.00">src/core/cuda_wrappers</text>
<text text-anchor="middle" x="326.5" y="-172" font-family="Helvetica,sans-Serif" font-size="10.00">/cpu.cc</text>
</a>
</g>
</g>
<!-- Node2 -->
<g id="Node000002" class="node">
<title>Node2</title>
<g id="a_Node000002"><a xlink:href="device__headers_8h.html" target="_top" xlink:title=" ">
<polygon fill="white" stroke="#666666" points="174.5,-74 72.5,-74 72.5,-55 174.5,-55 174.5,-74"/>
<text text-anchor="middle" x="123.5" y="-62" font-family="Helvetica,sans-Serif" font-size="10.00">device_headers.h</text>
</a>
</g>
</g>
<!-- Node1&#45;&gt;Node2 -->
<g id="edge1_Node000001_Node000002" class="edge">
<title>Node1&#45;&gt;Node2</title>
<g id="a_edge1_Node000001_Node000002"><a xlink:title=" ">
<path fill="none" stroke="#63b8ff" d="M275.05,-164.96C249.18,-156.65 218,-144.65 192.5,-129 171.16,-115.9 150.55,-95.62 137.5,-81.51"/>
<polygon fill="#63b8ff" stroke="#63b8ff" points="140.04,-79.1 130.75,-74.02 134.85,-83.79 140.04,-79.1"/>
</a>
</g>
</g>
<!-- Node5 -->
<g id="Node000005" class="node">
<title>Node5</title>
<g id="a_Node000005"><a xlink:href="acreal_8h.html" target="_top" xlink:title=" ">
<polygon fill="white" stroke="#666666" points="511.5,-74 455.5,-74 455.5,-55 511.5,-55 511.5,-74"/>
<text text-anchor="middle" x="483.5" y="-62" font-family="Helvetica,sans-Serif" font-size="10.00">acreal.h</text>
</a>
</g>
</g>
<!-- Node1&#45;&gt;Node5 -->
<g id="edge4_Node000001_Node000005" class="edge">
<title>Node1&#45;&gt;Node5</title>
<g id="a_edge4_Node000001_Node000005"><a xlink:title=" ">
<path fill="none" stroke="#63b8ff" d="M392.14,-167.12C416.64,-159.76 442.97,-147.93 461.5,-129 473.35,-116.9 478.84,-98.1 481.36,-84.09"/>
<polygon fill="#63b8ff" stroke="#63b8ff" points="484.84,-84.5 482.82,-74.1 477.91,-83.49 484.84,-84.5"/>
</a>
</g>
</g>
<!-- Node6 -->
<g id="Node000006" class="node">
<title>Node6</title>
<g id="a_Node000006"><a xlink:title=" ">
<polygon fill="#e0e0e0" stroke="#999999" points="251.5,-129 201.5,-129 201.5,-110 251.5,-110 251.5,-129"/>
<text text-anchor="middle" x="226.5" y="-117" font-family="Helvetica,sans-Serif" font-size="10.00">cstring</text>
</a>
</g>
</g>
<!-- Node1&#45;&gt;Node6 -->
<g id="edge5_Node000001_Node000006" class="edge">
<title>Node1&#45;&gt;Node6</title>
<g id="a_edge5_Node000001_Node000006"><a xlink:title=" ">
<path fill="none" stroke="#63b8ff" d="M302.55,-164.99C286.61,-155.66 265.77,-143.47 249.94,-134.21"/>
<polygon fill="#63b8ff" stroke="#63b8ff" points="251.67,-131.17 241.27,-129.14 248.13,-137.21 251.67,-131.17"/>
</a>
</g>
</g>
<!-- Node7 -->
<g id="Node000007" class="node">
<title>Node7</title>
<g id="a_Node000007"><a xlink:title=" ">
<polygon fill="#e0e0e0" stroke="#999999" points="319.5,-129 269.5,-129 269.5,-110 319.5,-110 319.5,-129"/>
<text text-anchor="middle" x="294.5" y="-117" font-family="Helvetica,sans-Serif" font-size="10.00">stdio.h</text>
</a>
</g>
</g>
<!-- Node1&#45;&gt;Node7 -->
<g id="edge6_Node000001_Node000007" class="edge">
<title>Node1&#45;&gt;Node7</title>
<g id="a_edge6_Node000001_Node000007"><a xlink:title=" ">
<path fill="none" stroke="#63b8ff" d="M318.75,-164.84C314.35,-156.78 308.79,-146.62 304.1,-138.06"/>
<polygon fill="#63b8ff" stroke="#63b8ff" points="307.16,-136.36 299.3,-129.27 301.02,-139.72 307.16,-136.36"/>
</a>
</g>
</g>
<!-- Node8 -->
<g id="Node000008" class="node">
<title>Node8</title>
<g id="a_Node000008"><a xlink:title=" ">
<polygon fill="#e0e0e0" stroke="#999999" points="381.5,-129 337.5,-129 337.5,-110 381.5,-110 381.5,-129"/>
<text text-anchor="middle" x="359.5" y="-117" font-family="Helvetica,sans-Serif" font-size="10.00">limits</text>
</a>
</g>
</g>
<!-- Node1&#45;&gt;Node8 -->
<g id="edge7_Node000001_Node000008" class="edge">
<title>Node1&#45;&gt;Node8</title>
<g id="a_edge7_Node000001_Node000008"><a xlink:title=" ">
<path fill="none" stroke="#63b8ff" d="M334.49,-164.84C339.03,-156.78 344.77,-146.62 349.6,-138.06"/>
<polygon fill="#63b8ff" stroke="#63b8ff" points="352.69,-139.7 354.56,-129.27 346.59,-136.26 352.69,-139.7"/>
</a>
</g>
</g>
<!-- Node9 -->
<g id="Node000009" class="node">
<title>Node9</title>
<g id="a_Node000009"><a xlink:title=" ">
<polygon fill="#e0e0e0" stroke="#999999" points="453,-129 400,-129 400,-110 453,-110 453,-129"/>
<text text-anchor="middle" x="426.5" y="-117" font-family="Helvetica,sans-Serif" font-size="10.00">stdlib.h</text>
</a>
</g>
</g>
<!-- Node1&#45;&gt;Node9 -->
<g id="edge8_Node000001_Node000009" class="edge">
<title>Node1&#45;&gt;Node9</title>
<g id="a_edge8_Node000001_Node000009"><a xlink:title=" ">
<path fill="none" stroke="#63b8ff" d="M350.45,-164.99C366.39,-155.66 387.23,-143.47 403.06,-134.21"/>
<polygon fill="#63b8ff" stroke="#63b8ff" points="404.87,-137.21 411.73,-129.14 401.33,-131.17 404.87,-137.21"/>
</a>
</g>
</g>
<!-- Node10 -->
<g id="Node000010" class="node">
<title>Node10</title>
<g id="a_Node000010"><a xlink:href="host__datatypes_8h.html" target="_top" xlink:title=" ">
<polygon fill="white" stroke="#666666" points="611,-129 510,-129 510,-110 611,-110 611,-129"/>
<text text-anchor="middle" x="560.5" y="-117" font-family="Helvetica,sans-Serif" font-size="10.00">host_datatypes.h</text>
</a>
</g>
</g>
<!-- Node1&#45;&gt;Node10 -->
<g id="edge9_Node000001_Node000010" class="edge">
<title>Node1&#45;&gt;Node10</title>
<g id="a_edge9_Node000001_Node000010"><a xlink:title=" ">
<path fill="none" stroke="#63b8ff" d="M382.55,-164.99C423.63,-154.72 478.62,-140.97 516.55,-131.49"/>
<polygon fill="#63b8ff" stroke="#63b8ff" points="517.43,-134.87 526.29,-129.05 515.74,-128.08 517.43,-134.87"/>
</a>
</g>
</g>
<!-- Node12 -->
<g id="Node000012" class="node">
<title>Node12</title>
<g id="a_Node000012"><a xlink:href="astaroth__cuda__wrappers_8h.html" target="_top" xlink:title=" ">
<polygon fill="white" stroke="#666666" points="145,-129 0,-129 0,-110 145,-110 145,-129"/>
<text text-anchor="middle" x="72.5" y="-117" font-family="Helvetica,sans-Serif" font-size="10.00">astaroth_cuda_wrappers.h</text>
</a>
</g>
</g>
<!-- Node1&#45;&gt;Node12 -->
<g id="edge12_Node000001_Node000012" class="edge">
<title>Node1&#45;&gt;Node12</title>
<g id="a_edge12_Node000001_Node000012"><a xlink:title=" ">
<path fill="none" stroke="#63b8ff" d="M265.66,-164.99C220.78,-154.65 160.61,-140.79 119.42,-131.31"/>
<polygon fill="#63b8ff" stroke="#63b8ff" points="120.17,-127.89 109.64,-129.05 118.6,-134.71 120.17,-127.89"/>
</a>
</g>
</g>
<!-- Node3 -->
<g id="Node000003" class="node">
<title>Node3</title>
<g id="a_Node000003"><a xlink:title=" ">
<polygon fill="#e0e0e0" stroke="#999999" points="124,-19 11,-19 11,0 124,0 124,-19"/>
<text text-anchor="middle" x="67.5" y="-7" font-family="Helvetica,sans-Serif" font-size="10.00">cuda_runtime_api.h</text>
</a>
</g>
</g>
<!-- Node2&#45;&gt;Node3 -->
<g id="edge2_Node000002_Node000003" class="edge">
<title>Node2&#45;&gt;Node3</title>
<g id="a_edge2_Node000002_Node000003"><a xlink:title=" ">
<path fill="none" stroke="#63b8ff" d="M114.5,-54.98C106.31,-47.23 93.99,-35.58 84.03,-26.14"/>
<polygon fill="#63b8ff" stroke="#63b8ff" points="86.33,-23.5 76.66,-19.17 81.52,-28.59 86.33,-23.5"/>
</a>
</g>
</g>
<!-- Node4 -->
<g id="Node000004" class="node">
<title>Node4</title>
<g id="a_Node000004"><a xlink:title=" ">
<polygon fill="#e0e0e0" stroke="#999999" points="218.5,-19 142.5,-19 142.5,0 218.5,0 218.5,-19"/>
<text text-anchor="middle" x="180.5" y="-7" font-family="Helvetica,sans-Serif" font-size="10.00">cuda_fp16.h</text>
</a>
</g>
</g>
<!-- Node2&#45;&gt;Node4 -->
<g id="edge3_Node000002_Node000004" class="edge">
<title>Node2&#45;&gt;Node4</title>
<g id="a_edge3_Node000002_Node000004"><a xlink:title=" ">
<path fill="none" stroke="#63b8ff" d="M132.66,-54.98C141,-47.23 153.53,-35.58 163.68,-26.14"/>
<polygon fill="#63b8ff" stroke="#63b8ff" points="166.24,-28.54 171.18,-19.17 161.47,-23.42 166.24,-28.54"/>
</a>
</g>
</g>
<!-- Node10&#45;&gt;Node5 -->
<g id="edge10_Node000010_Node000005" class="edge">
<title>Node10&#45;&gt;Node5</title>
<g id="a_edge10_Node000010_Node000005"><a xlink:title=" ">
<path fill="none" stroke="#63b8ff" d="M548.13,-109.98C536.41,-101.92 518.58,-89.65 504.61,-80.03"/>
<polygon fill="#63b8ff" stroke="#63b8ff" points="506.32,-76.96 496.1,-74.17 502.35,-82.72 506.32,-76.96"/>
</a>
</g>
</g>
<!-- Node11 -->
<g id="Node000011" class="node">
<title>Node11</title>
<g id="a_Node000011"><a xlink:title=" ">
<polygon fill="#e0e0e0" stroke="#999999" points="588.5,-74 532.5,-74 532.5,-55 588.5,-55 588.5,-74"/>
<text text-anchor="middle" x="560.5" y="-62" font-family="Helvetica,sans-Serif" font-size="10.00">stddef.h</text>
</a>
</g>
</g>
<!-- Node10&#45;&gt;Node11 -->
<g id="edge11_Node000010_Node000011" class="edge">
<title>Node10&#45;&gt;Node11</title>
<g id="a_edge11_Node000010_Node000011"><a xlink:title=" ">
<path fill="none" stroke="#63b8ff" d="M560.5,-109.75C560.5,-102.8 560.5,-92.85 560.5,-84.13"/>
<polygon fill="#63b8ff" stroke="#63b8ff" points="564,-84.09 560.5,-74.09 557,-84.09 564,-84.09"/>
</a>
</g>
</g>
<!-- Node12&#45;&gt;Node2 -->
<g id="edge13_Node000012_Node000002" class="edge">
<title>Node12&#45;&gt;Node2</title>
<g id="a_edge13_Node000012_Node000002"><a xlink:title=" ">
<path fill="none" stroke="#63b8ff" d="M80.92,-109.75C88.27,-102.11 99.13,-90.82 108.04,-81.56"/>
<polygon fill="#63b8ff" stroke="#63b8ff" points="110.82,-83.72 115.24,-74.09 105.78,-78.87 110.82,-83.72"/>
</a>
</g>
</g>
</g>
</svg>
