<?xml version="1.0" encoding="UTF-8" standalone="no"?>
<!DOCTYPE svg PUBLIC "-//W3C//DTD SVG 1.1//EN"
 "http://www.w3.org/Graphics/SVG/1.1/DTD/svg11.dtd">
<!-- Generated by graphviz version 2.43.0 (0)
 -->
<!-- Title: src/core/kernels/cpufft.cc Pages: 1 -->
<svg width="1032pt" height="247pt"
 viewBox="0.00 0.00 1031.50 247.00" xmlns="http://www.w3.org/2000/svg" xmlns:xlink="http://www.w3.org/1999/xlink">
<g id="graph0" class="graph" transform="scale(1 1) rotate(0) translate(4 243)">
<title>src/core/kernels/cpufft.cc</title>
<!-- Node1 -->
<g id="Node000001" class="node">
<title>Node1</title>
<g id="a_Node000001"><a xlink:title=" ">
<polygon fill="#999999" stroke="#666666" points="739.5,-239 602.5,-239 602.5,-220 739.5,-220 739.5,-239"/>
<text text-anchor="middle" x="671" y="-227" font-family="Helvetica,sans-Serif" font-size="10.00">src/core/kernels/cpufft.cc</text>
</a>
</g>
</g>
<!-- Node2 -->
<g id="Node000002" class="node">
<title>Node2</title>
<g id="a_Node000002"><a xlink:href="host__datatypes_8h.html" target="_top" xlink:title=" ">
<polygon fill="white" stroke="#666666" points="304.5,-129 203.5,-129 203.5,-110 304.5,-110 304.5,-129"/>
<text text-anchor="middle" x="254" y="-117" font-family="Helvetica,sans-Serif" font-size="10.00">host_datatypes.h</text>
</a>
</g>
</g>
<!-- Node1&#45;&gt;Node2 -->
<g id="edge1_Node000001_Node000002" class="edge">
<title>Node1&#45;&gt;Node2</title>
<g id="a_edge1_Node000001_Node000002"><a xlink:title=" ">
<path fill="none" stroke="#63b8ff" d="M602.48,-224.86C495.59,-218.58 298.8,-204.41 274,-184 260.9,-173.22 256.25,-153.93 254.66,-139.43"/>
<polygon fill="#63b8ff" stroke="#63b8ff" points="258.13,-138.82 253.95,-129.08 251.15,-139.3 258.13,-138.82"/>
</a>
</g>
</g>
<!-- Node11 -->
<g id="Node000011" class="node">
<title>Node11</title>
<g id="a_Node000011"><a xlink:href="ac__fft_8h.html" target="_top" xlink:title=" ">
<polygon fill="white" stroke="#666666" points="336.5,-184 283.5,-184 283.5,-165 336.5,-165 336.5,-184"/>
<text text-anchor="middle" x="310" y="-172" font-family="Helvetica,sans-Serif" font-size="10.00">ac_fft.h</text>
</a>
</g>
</g>
<!-- Node1&#45;&gt;Node11 -->
<g id="edge10_Node000001_Node000011" class="edge">
<title>Node1&#45;&gt;Node11</title>
<g id="a_edge10_Node000001_Node000011"><a xlink:title=" ">
<path fill="none" stroke="#63b8ff" d="M602.3,-221.2C538.36,-213.93 440.25,-201.58 346.61,-184.15"/>
<polygon fill="#63b8ff" stroke="#63b8ff" points="347.17,-180.69 336.69,-182.28 345.87,-187.57 347.17,-180.69"/>
</a>
</g>
</g>
<!-- Node12 -->
<g id="Node000012" class="node">
<title>Node12</title>
<g id="a_Node000012"><a xlink:href="ac__mpi_8h.html" target="_top" xlink:title=" ">
<polygon fill="white" stroke="#666666" points="747.5,-184 686.5,-184 686.5,-165 747.5,-165 747.5,-184"/>
<text text-anchor="middle" x="717" y="-172" font-family="Helvetica,sans-Serif" font-size="10.00">ac_mpi.h</text>
</a>
</g>
</g>
<!-- Node1&#45;&gt;Node12 -->
<g id="edge13_Node000001_Node000012" class="edge">
<title>Node1&#45;&gt;Node12</title>
<g id="a_edge13_Node000001_Node000012"><a xlink:title=" ">
<path fill="none" stroke="#63b8ff" d="M678.6,-219.75C685.16,-212.18 694.82,-201.05 702.81,-191.84"/>
<polygon fill="#63b8ff" stroke="#63b8ff" points="705.63,-193.94 709.55,-184.09 700.35,-189.35 705.63,-193.94"/>
</a>
</g>
</g>
<!-- Node14 -->
<g id="Node000014" class="node">
<title>Node14</title>
<g id="a_Node000014"><a xlink:title=" ">
<polygon fill="#e0e0e0" stroke="#999999" points="812,-74 762,-74 762,-55 812,-55 812,-74"/>
<text text-anchor="middle" x="787" y="-62" font-family="Helvetica,sans-Serif" font-size="10.00">stdio.h</text>
</a>
</g>
</g>
<!-- Node1&#45;&gt;Node14 -->
<g id="edge15_Node000001_Node000014" class="edge">
<title>Node1&#45;&gt;Node14</title>
<g id="a_edge15_Node000001_Node000014"><a xlink:title=" ">
<path fill="none" stroke="#63b8ff" d="M700.63,-219.87C719.13,-213.01 742,-201.6 756,-184 779.31,-154.71 785.22,-109.67 786.64,-84.39"/>
<polygon fill="#63b8ff" stroke="#63b8ff" points="790.14,-84.42 787.02,-74.29 783.15,-84.15 790.14,-84.42"/>
</a>
</g>
</g>
<!-- Node15 -->
<g id="Node000015" class="node">
<title>Node15</title>
<g id="a_Node000015"><a xlink:title=" ">
<polygon fill="#e0e0e0" stroke="#999999" points="1015.5,-184 966.5,-184 966.5,-165 1015.5,-165 1015.5,-184"/>
<text text-anchor="middle" x="991" y="-172" font-family="Helvetica,sans-Serif" font-size="10.00">cstdlib</text>
</a>
</g>
</g>
<!-- Node1&#45;&gt;Node15 -->
<g id="edge16_Node000001_Node000015" class="edge">
<title>Node1&#45;&gt;Node15</title>
<g id="a_edge16_Node000001_Node000015"><a xlink:title=" ">
<path fill="none" stroke="#63b8ff" d="M736.9,-219.97C792.79,-212.35 875.26,-200.17 956.3,-183.98"/>
<polygon fill="#63b8ff" stroke="#63b8ff" points="957.07,-187.39 966.18,-181.98 955.68,-180.53 957.07,-187.39"/>
</a>
</g>
</g>
<!-- Node16 -->
<g id="Node000016" class="node">
<title>Node16</title>
<g id="a_Node000016"><a xlink:href="kiss__fft_8h.html" target="_top" xlink:title=" ">
<polygon fill="white" stroke="#666666" points="931,-129 837,-129 837,-110 931,-110 931,-129"/>
<text text-anchor="middle" x="884" y="-117" font-family="Helvetica,sans-Serif" font-size="10.00">kissfft/kiss_fft.h</text>
</a>
</g>
</g>
<!-- Node1&#45;&gt;Node16 -->
<g id="edge17_Node000001_Node000016" class="edge">
<title>Node1&#45;&gt;Node16</title>
<g id="a_edge17_Node000001_Node000016"><a xlink:title=" ">
<path fill="none" stroke="#63b8ff" d="M699.69,-219.88C724.31,-212 760.4,-199.26 790,-184 817.53,-169.81 846.71,-149.09 865.12,-135.22"/>
<polygon fill="#63b8ff" stroke="#63b8ff" points="867.42,-137.87 873.24,-129.02 863.17,-132.3 867.42,-137.87"/>
</a>
</g>
</g>
<!-- Node20 -->
<g id="Node000020" class="node">
<title>Node20</title>
<g id="a_Node000020"><a xlink:href="kiss__fftnd_8h.html" target="_top" xlink:title=" ">
<polygon fill="white" stroke="#666666" points="948,-184 842,-184 842,-165 948,-165 948,-184"/>
<text text-anchor="middle" x="895" y="-172" font-family="Helvetica,sans-Serif" font-size="10.00">kissfft/kiss_fftnd.h</text>
</a>
</g>
</g>
<!-- Node1&#45;&gt;Node20 -->
<g id="edge22_Node000001_Node000020" class="edge">
<title>Node1&#45;&gt;Node20</title>
<g id="a_edge22_Node000001_Node000020"><a xlink:title=" ">
<path fill="none" stroke="#63b8ff" d="M706.99,-219.98C745.49,-210.87 806.69,-196.4 848.74,-186.45"/>
<polygon fill="#63b8ff" stroke="#63b8ff" points="849.8,-189.79 858.73,-184.08 848.19,-182.98 849.8,-189.79"/>
</a>
</g>
</g>
<!-- Node21 -->
<g id="Node000021" class="node">
<title>Node21</title>
<g id="a_Node000021"><a xlink:href="astaroth__cuda__wrappers_8h.html" target="_top" xlink:title=" ">
<polygon fill="white" stroke="#666666" points="696.5,-129 551.5,-129 551.5,-110 696.5,-110 696.5,-129"/>
<text text-anchor="middle" x="624" y="-117" font-family="Helvetica,sans-Serif" font-size="10.00">astaroth_cuda_wrappers.h</text>
</a>
</g>
</g>
<!-- Node1&#45;&gt;Node21 -->
<g id="edge24_Node000001_Node000021" class="edge">
<title>Node1&#45;&gt;Node21</title>
<g id="a_edge24_Node000001_Node000021"><a xlink:title=" ">
<path fill="none" stroke="#63b8ff" d="M667.15,-219.66C659.47,-202.01 642.1,-162.09 631.89,-138.64"/>
<polygon fill="#63b8ff" stroke="#63b8ff" points="634.97,-136.93 627.77,-129.16 628.55,-139.72 634.97,-136.93"/>
</a>
</g>
</g>
<!-- Node22 -->
<g id="Node000022" class="node">
<title>Node22</title>
<g id="a_Node000022"><a xlink:href="ac__helpers_8h.html" target="_top" xlink:title=" ">
<polygon fill="white" stroke="#666666" points="561,-184 483,-184 483,-165 561,-165 561,-184"/>
<text text-anchor="middle" x="522" y="-172" font-family="Helvetica,sans-Serif" font-size="10.00">ac_helpers.h</text>
</a>
</g>
</g>
<!-- Node1&#45;&gt;Node22 -->
<g id="edge26_Node000001_Node000022" class="edge">
<title>Node1&#45;&gt;Node22</title>
<g id="a_edge26_Node000001_Node000022"><a xlink:title=" ">
<path fill="none" stroke="#63b8ff" d="M647.06,-219.98C622.44,-211.23 583.88,-197.51 556.08,-187.62"/>
<polygon fill="#63b8ff" stroke="#63b8ff" points="556.97,-184.22 546.38,-184.17 554.62,-190.82 556.97,-184.22"/>
</a>
</g>
</g>
<!-- Node23 -->
<g id="Node000023" class="node">
<title>Node23</title>
<g id="a_Node000023"><a xlink:href="common__kernels_8h.html" target="_top" xlink:title=" ">
<polygon fill="white" stroke="#666666" points="463.5,-184 354.5,-184 354.5,-165 463.5,-165 463.5,-184"/>
<text text-anchor="middle" x="409" y="-172" font-family="Helvetica,sans-Serif" font-size="10.00">common_kernels.h</text>
</a>
</g>
</g>
<!-- Node1&#45;&gt;Node23 -->
<g id="edge30_Node000001_Node000023" class="edge">
<title>Node1&#45;&gt;Node23</title>
<g id="a_edge30_Node000001_Node000023"><a xlink:title=" ">
<path fill="none" stroke="#63b8ff" d="M628.91,-219.98C583.3,-210.76 510.48,-196.03 461.25,-186.07"/>
<polygon fill="#63b8ff" stroke="#63b8ff" points="461.92,-182.63 451.42,-184.08 460.53,-189.5 461.92,-182.63"/>
</a>
</g>
</g>
<!-- Node3 -->
<g id="Node000003" class="node">
<title>Node3</title>
<g id="a_Node000003"><a xlink:title=" ">
<polygon fill="#e0e0e0" stroke="#999999" points="62,-74 0,-74 0,-55 62,-55 62,-74"/>
<text text-anchor="middle" x="31" y="-62" font-family="Helvetica,sans-Serif" font-size="10.00">stdbool.h</text>
</a>
</g>
</g>
<!-- Node2&#45;&gt;Node3 -->
<g id="edge2_Node000002_Node000003" class="edge">
<title>Node2&#45;&gt;Node3</title>
<g id="a_edge2_Node000002_Node000003"><a xlink:title=" ">
<path fill="none" stroke="#63b8ff" d="M218.17,-109.98C178.25,-100.5 113.82,-85.18 71.94,-75.23"/>
<polygon fill="#63b8ff" stroke="#63b8ff" points="72.6,-71.79 62.06,-72.88 70.98,-78.6 72.6,-71.79"/>
</a>
</g>
</g>
<!-- Node4 -->
<g id="Node000004" class="node">
<title>Node4</title>
<g id="a_Node000004"><a xlink:title=" ">
<polygon fill="#e0e0e0" stroke="#999999" points="363,-74 307,-74 307,-55 363,-55 363,-74"/>
<text text-anchor="middle" x="335" y="-62" font-family="Helvetica,sans-Serif" font-size="10.00">stddef.h</text>
</a>
</g>
</g>
<!-- Node2&#45;&gt;Node4 -->
<g id="edge3_Node000002_Node000004" class="edge">
<title>Node2&#45;&gt;Node4</title>
<g id="a_edge3_Node000002_Node000004"><a xlink:title=" ">
<path fill="none" stroke="#63b8ff" d="M267.01,-109.98C279.46,-101.84 298.46,-89.41 313.21,-79.76"/>
<polygon fill="#63b8ff" stroke="#63b8ff" points="315.3,-82.57 321.75,-74.17 311.46,-76.72 315.3,-82.57"/>
</a>
</g>
</g>
<!-- Node5 -->
<g id="Node000005" class="node">
<title>Node5</title>
<g id="a_Node000005"><a xlink:href="acreal_8h.html" target="_top" xlink:title=" ">
<polygon fill="white" stroke="#666666" points="437,-74 381,-74 381,-55 437,-55 437,-74"/>
<text text-anchor="middle" x="409" y="-62" font-family="Helvetica,sans-Serif" font-size="10.00">acreal.h</text>
</a>
</g>
</g>
<!-- Node2&#45;&gt;Node5 -->
<g id="edge4_Node000002_Node000005" class="edge">
<title>Node2&#45;&gt;Node5</title>
<g id="a_edge4_Node000002_Node000005"><a xlink:title=" ">
<path fill="none" stroke="#63b8ff" d="M278.9,-109.98C304.7,-101.16 345.22,-87.31 374.18,-77.41"/>
<polygon fill="#63b8ff" stroke="#63b8ff" points="375.57,-80.63 383.9,-74.08 373.31,-74.01 375.57,-80.63"/>
</a>
</g>
</g>
<!-- Node6 -->
<g id="Node000006" class="node">
<title>Node6</title>
<g id="a_Node000006"><a xlink:title=" ">
<polygon fill="#e0e0e0" stroke="#999999" points="175.5,-74 80.5,-74 80.5,-55 175.5,-55 175.5,-74"/>
<text text-anchor="middle" x="128" y="-62" font-family="Helvetica,sans-Serif" font-size="10.00">builtin_enums.h</text>
</a>
</g>
</g>
<!-- Node2&#45;&gt;Node6 -->
<g id="edge5_Node000002_Node000006" class="edge">
<title>Node2&#45;&gt;Node6</title>
<g id="a_edge5_Node000002_Node000006"><a xlink:title=" ">
<path fill="none" stroke="#63b8ff" d="M233.76,-109.98C213.3,-101.38 181.47,-87.99 158.07,-78.15"/>
<polygon fill="#63b8ff" stroke="#63b8ff" points="159.19,-74.82 148.61,-74.17 156.47,-81.27 159.19,-74.82"/>
</a>
</g>
</g>
<!-- Node7 -->
<g id="Node000007" class="node">
<title>Node7</title>
<g id="a_Node000007"><a xlink:href="device__headers_8h.html" target="_top" xlink:title=" ">
<polygon fill="white" stroke="#666666" points="557,-74 455,-74 455,-55 557,-55 557,-74"/>
<text text-anchor="middle" x="506" y="-62" font-family="Helvetica,sans-Serif" font-size="10.00">device_headers.h</text>
</a>
</g>
</g>
<!-- Node2&#45;&gt;Node7 -->
<g id="edge6_Node000002_Node000007" class="edge">
<title>Node2&#45;&gt;Node7</title>
<g id="a_edge6_Node000002_Node000007"><a xlink:title=" ">
<path fill="none" stroke="#63b8ff" d="M294.49,-109.98C338.17,-100.8 407.81,-86.15 455.15,-76.19"/>
<polygon fill="#63b8ff" stroke="#63b8ff" points="456.13,-79.57 465.19,-74.08 454.69,-72.72 456.13,-79.57"/>
</a>
</g>
</g>
<!-- Node10 -->
<g id="Node000010" class="node">
<title>Node10</title>
<g id="a_Node000010"><a xlink:title=" ">
<polygon fill="#e0e0e0" stroke="#999999" points="288.5,-74 193.5,-74 193.5,-55 288.5,-55 288.5,-74"/>
<text text-anchor="middle" x="241" y="-62" font-family="Helvetica,sans-Serif" font-size="10.00">user_typedefs.h</text>
</a>
</g>
</g>
<!-- Node2&#45;&gt;Node10 -->
<g id="edge9_Node000002_Node000010" class="edge">
<title>Node2&#45;&gt;Node10</title>
<g id="a_edge9_Node000002_Node000010"><a xlink:title=" ">
<path fill="none" stroke="#63b8ff" d="M251.85,-109.75C250.13,-102.72 247.65,-92.62 245.5,-83.84"/>
<polygon fill="#63b8ff" stroke="#63b8ff" points="248.89,-82.97 243.11,-74.09 242.09,-84.63 248.89,-82.97"/>
</a>
</g>
</g>
<!-- Node8 -->
<g id="Node000008" class="node">
<title>Node8</title>
<g id="a_Node000008"><a xlink:title=" ">
<polygon fill="#e0e0e0" stroke="#999999" points="505.5,-19 392.5,-19 392.5,0 505.5,0 505.5,-19"/>
<text text-anchor="middle" x="449" y="-7" font-family="Helvetica,sans-Serif" font-size="10.00">cuda_runtime_api.h</text>
</a>
</g>
</g>
<!-- Node7&#45;&gt;Node8 -->
<g id="edge7_Node000007_Node000008" class="edge">
<title>Node7&#45;&gt;Node8</title>
<g id="a_edge7_Node000007_Node000008"><a xlink:title=" ">
<path fill="none" stroke="#63b8ff" d="M496.84,-54.98C488.5,-47.23 475.97,-35.58 465.82,-26.14"/>
<polygon fill="#63b8ff" stroke="#63b8ff" points="468.03,-23.42 458.32,-19.17 463.26,-28.54 468.03,-23.42"/>
</a>
</g>
</g>
<!-- Node9 -->
<g id="Node000009" class="node">
<title>Node9</title>
<g id="a_Node000009"><a xlink:title=" ">
<polygon fill="#e0e0e0" stroke="#999999" points="600,-19 524,-19 524,0 600,0 600,-19"/>
<text text-anchor="middle" x="562" y="-7" font-family="Helvetica,sans-Serif" font-size="10.00">cuda_fp16.h</text>
</a>
</g>
</g>
<!-- Node7&#45;&gt;Node9 -->
<g id="edge8_Node000007_Node000009" class="edge">
<title>Node7&#45;&gt;Node9</title>
<g id="a_edge8_Node000007_Node000009"><a xlink:title=" ">
<path fill="none" stroke="#63b8ff" d="M515,-54.98C523.19,-47.23 535.51,-35.58 545.47,-26.14"/>
<polygon fill="#63b8ff" stroke="#63b8ff" points="547.98,-28.59 552.84,-19.17 543.17,-23.5 547.98,-28.59"/>
</a>
</g>
</g>
<!-- Node11&#45;&gt;Node2 -->
<g id="edge12_Node000011_Node000002" class="edge">
<title>Node11&#45;&gt;Node2</title>
<g id="a_edge12_Node000011_Node000002"><a xlink:title=" ">
<path fill="none" stroke="#63b8ff" d="M301,-164.98C292.81,-157.23 280.49,-145.58 270.53,-136.14"/>
<polygon fill="#63b8ff" stroke="#63b8ff" points="272.83,-133.5 263.16,-129.17 268.02,-138.59 272.83,-133.5"/>
</a>
</g>
</g>
<!-- Node11&#45;&gt;Node7 -->
<g id="edge11_Node000011_Node000007" class="edge">
<title>Node11&#45;&gt;Node7</title>
<g id="a_edge11_Node000011_Node000007"><a xlink:title=" ">
<path fill="none" stroke="#63b8ff" d="M325.71,-164.84C359.77,-146.08 440.63,-101.52 481.48,-79.01"/>
<polygon fill="#63b8ff" stroke="#63b8ff" points="483.42,-81.94 490.49,-74.05 480.04,-75.81 483.42,-81.94"/>
</a>
</g>
</g>
<!-- Node13 -->
<g id="Node000013" class="node">
<title>Node13</title>
<g id="a_Node000013"><a xlink:title=" ">
<polygon fill="#e0e0e0" stroke="#999999" points="759,-129 715,-129 715,-110 759,-110 759,-129"/>
<text text-anchor="middle" x="737" y="-117" font-family="Helvetica,sans-Serif" font-size="10.00">mpi.h</text>
</a>
</g>
</g>
<!-- Node12&#45;&gt;Node13 -->
<g id="edge14_Node000012_Node000013" class="edge">
<title>Node12&#45;&gt;Node13</title>
<g id="a_edge14_Node000012_Node000013"><a xlink:title=" ">
<path fill="none" stroke="#63b8ff" d="M720.3,-164.75C722.98,-157.65 726.85,-147.4 730.19,-138.56"/>
<polygon fill="#63b8ff" stroke="#63b8ff" points="733.5,-139.68 733.76,-129.09 726.95,-137.21 733.5,-139.68"/>
</a>
</g>
</g>
<!-- Node16&#45;&gt;Node14 -->
<g id="edge19_Node000016_Node000014" class="edge">
<title>Node16&#45;&gt;Node14</title>
<g id="a_edge19_Node000016_Node000014"><a xlink:title=" ">
<path fill="none" stroke="#63b8ff" d="M868.42,-109.98C853.23,-101.69 829.9,-88.94 812.1,-79.22"/>
<polygon fill="#63b8ff" stroke="#63b8ff" points="813.32,-75.89 802.87,-74.17 809.97,-82.04 813.32,-75.89"/>
</a>
</g>
</g>
<!-- Node17 -->
<g id="Node000017" class="node">
<title>Node17</title>
<g id="a_Node000017"><a xlink:title=" ">
<polygon fill="#e0e0e0" stroke="#999999" points="881.5,-74 830.5,-74 830.5,-55 881.5,-55 881.5,-74"/>
<text text-anchor="middle" x="856" y="-62" font-family="Helvetica,sans-Serif" font-size="10.00">math.h</text>
</a>
</g>
</g>
<!-- Node16&#45;&gt;Node17 -->
<g id="edge18_Node000016_Node000017" class="edge">
<title>Node16&#45;&gt;Node17</title>
<g id="a_edge18_Node000016_Node000017"><a xlink:title=" ">
<path fill="none" stroke="#63b8ff" d="M879.38,-109.75C875.54,-102.49 869.98,-91.95 865.24,-82.98"/>
<polygon fill="#63b8ff" stroke="#63b8ff" points="868.3,-81.3 860.54,-74.09 862.11,-84.57 868.3,-81.3"/>
</a>
</g>
</g>
<!-- Node18 -->
<g id="Node000018" class="node">
<title>Node18</title>
<g id="a_Node000018"><a xlink:title=" ">
<polygon fill="#e0e0e0" stroke="#999999" points="952.5,-74 899.5,-74 899.5,-55 952.5,-55 952.5,-74"/>
<text text-anchor="middle" x="926" y="-62" font-family="Helvetica,sans-Serif" font-size="10.00">stdlib.h</text>
</a>
</g>
</g>
<!-- Node16&#45;&gt;Node18 -->
<g id="edge20_Node000016_Node000018" class="edge">
<title>Node16&#45;&gt;Node18</title>
<g id="a_edge20_Node000016_Node000018"><a xlink:title=" ">
<path fill="none" stroke="#63b8ff" d="M890.94,-109.75C896.87,-102.26 905.57,-91.28 912.82,-82.13"/>
<polygon fill="#63b8ff" stroke="#63b8ff" points="915.73,-84.1 919.19,-74.09 910.24,-79.75 915.73,-84.1"/>
</a>
</g>
</g>
<!-- Node19 -->
<g id="Node000019" class="node">
<title>Node19</title>
<g id="a_Node000019"><a xlink:title=" ">
<polygon fill="#e0e0e0" stroke="#999999" points="1023.5,-74 970.5,-74 970.5,-55 1023.5,-55 1023.5,-74"/>
<text text-anchor="middle" x="997" y="-62" font-family="Helvetica,sans-Serif" font-size="10.00">string.h</text>
</a>
</g>
</g>
<!-- Node16&#45;&gt;Node19 -->
<g id="edge21_Node000016_Node000019" class="edge">
<title>Node16&#45;&gt;Node19</title>
<g id="a_edge21_Node000016_Node000019"><a xlink:title=" ">
<path fill="none" stroke="#63b8ff" d="M902.16,-109.98C920.25,-101.5 948.28,-88.35 969.19,-78.54"/>
<polygon fill="#63b8ff" stroke="#63b8ff" points="970.95,-81.59 978.51,-74.17 967.97,-75.25 970.95,-81.59"/>
</a>
</g>
</g>
<!-- Node20&#45;&gt;Node16 -->
<g id="edge23_Node000020_Node000016" class="edge">
<title>Node20&#45;&gt;Node16</title>
<g id="a_edge23_Node000020_Node000016"><a xlink:title=" ">
<path fill="none" stroke="#63b8ff" d="M893.18,-164.75C891.74,-157.8 889.68,-147.85 887.87,-139.13"/>
<polygon fill="#63b8ff" stroke="#63b8ff" points="891.24,-138.17 885.78,-129.09 884.39,-139.59 891.24,-138.17"/>
</a>
</g>
</g>
<!-- Node21&#45;&gt;Node7 -->
<g id="edge25_Node000021_Node000007" class="edge">
<title>Node21&#45;&gt;Node7</title>
<g id="a_edge25_Node000021_Node000007"><a xlink:title=" ">
<path fill="none" stroke="#63b8ff" d="M605.04,-109.98C585.97,-101.42 556.34,-88.11 534.45,-78.28"/>
<polygon fill="#63b8ff" stroke="#63b8ff" points="535.86,-75.07 525.3,-74.17 532.99,-81.46 535.86,-75.07"/>
</a>
</g>
</g>
<!-- Node22&#45;&gt;Node2 -->
<g id="edge29_Node000022_Node000002" class="edge">
<title>Node22&#45;&gt;Node2</title>
<g id="a_edge29_Node000022_Node000002"><a xlink:title=" ">
<path fill="none" stroke="#63b8ff" d="M482.74,-165.74C436.4,-156.57 359.1,-141.29 307.36,-131.05"/>
<polygon fill="#63b8ff" stroke="#63b8ff" points="307.85,-127.58 297.36,-129.08 306.49,-134.45 307.85,-127.58"/>
</a>
</g>
</g>
<!-- Node22&#45;&gt;Node5 -->
<g id="edge27_Node000022_Node000005" class="edge">
<title>Node22&#45;&gt;Node5</title>
<g id="a_edge27_Node000022_Node000005"><a xlink:title=" ">
<path fill="none" stroke="#63b8ff" d="M512.75,-164.66C493.62,-146.38 449.47,-104.18 425.39,-81.17"/>
<polygon fill="#63b8ff" stroke="#63b8ff" points="427.71,-78.54 418.06,-74.16 422.87,-83.6 427.71,-78.54"/>
</a>
</g>
</g>
<!-- Node22&#45;&gt;Node7 -->
<g id="edge28_Node000022_Node000007" class="edge">
<title>Node22&#45;&gt;Node7</title>
<g id="a_edge28_Node000022_Node000007"><a xlink:title=" ">
<path fill="none" stroke="#63b8ff" d="M520.69,-164.66C518.1,-147.17 512.27,-107.8 508.78,-84.27"/>
<polygon fill="#63b8ff" stroke="#63b8ff" points="512.21,-83.54 507.28,-74.16 505.29,-84.56 512.21,-83.54"/>
</a>
</g>
</g>
<!-- Node23&#45;&gt;Node2 -->
<g id="edge34_Node000023_Node000002" class="edge">
<title>Node23&#45;&gt;Node2</title>
<g id="a_edge34_Node000023_Node000002"><a xlink:title=" ">
<path fill="none" stroke="#63b8ff" d="M384.1,-164.98C358.3,-156.16 317.78,-142.31 288.82,-132.41"/>
<polygon fill="#63b8ff" stroke="#63b8ff" points="289.69,-129.01 279.1,-129.08 287.43,-135.63 289.69,-129.01"/>
</a>
</g>
</g>
<!-- Node23&#45;&gt;Node4 -->
<g id="edge31_Node000023_Node000004" class="edge">
<title>Node23&#45;&gt;Node4</title>
<g id="a_edge31_Node000023_Node000004"><a xlink:title=" ">
<path fill="none" stroke="#63b8ff" d="M402.94,-164.66C390.69,-146.77 362.75,-106 346.78,-82.69"/>
<polygon fill="#63b8ff" stroke="#63b8ff" points="349.47,-80.43 340.93,-74.16 343.7,-84.39 349.47,-80.43"/>
</a>
</g>
</g>
<!-- Node23&#45;&gt;Node5 -->
<g id="edge32_Node000023_Node000005" class="edge">
<title>Node23&#45;&gt;Node5</title>
<g id="a_edge32_Node000023_Node000005"><a xlink:title=" ">
<path fill="none" stroke="#63b8ff" d="M409,-164.66C409,-147.17 409,-107.8 409,-84.27"/>
<polygon fill="#63b8ff" stroke="#63b8ff" points="412.5,-84.16 409,-74.16 405.5,-84.16 412.5,-84.16"/>
</a>
</g>
</g>
<!-- Node23&#45;&gt;Node7 -->
<g id="edge33_Node000023_Node000007" class="edge">
<title>Node23&#45;&gt;Node7</title>
<g id="a_edge33_Node000023_Node000007"><a xlink:title=" ">
<path fill="none" stroke="#63b8ff" d="M416.94,-164.66C433.22,-146.54 470.6,-104.91 491.39,-81.77"/>
<polygon fill="#63b8ff" stroke="#63b8ff" points="494.15,-83.94 498.22,-74.16 488.94,-79.26 494.15,-83.94"/>
</a>
</g>
</g>
</g>
</svg>
