<?xml version="1.0" encoding="UTF-8" standalone="no"?>
<!DOCTYPE svg PUBLIC "-//W3C//DTD SVG 1.1//EN"
 "http://www.w3.org/Graphics/SVG/1.1/DTD/svg11.dtd">
<!-- Generated by graphviz version 2.43.0 (0)
 -->
<!-- Title: acc&#45;runtime/api/datatypes.h Pages: 1 -->
<svg width="782pt" height="137pt"
 viewBox="0.00 0.00 782.00 137.00" xmlns="http://www.w3.org/2000/svg" xmlns:xlink="http://www.w3.org/1999/xlink">
<g id="graph0" class="graph" transform="scale(1 1) rotate(0) translate(4 133)">
<title>acc&#45;runtime/api/datatypes.h</title>
<!-- Node1 -->
<g id="Node000001" class="node">
<title>Node1</title>
<g id="a_Node000001"><a xlink:title=" ">
<polygon fill="#999999" stroke="#666666" points="414.5,-129 260.5,-129 260.5,-110 414.5,-110 414.5,-129"/>
<text text-anchor="middle" x="337.5" y="-117" font-family="Helvetica,sans-Serif" font-size="10.00">acc&#45;runtime/api/datatypes.h</text>
</a>
</g>
</g>
<!-- Node2 -->
<g id="Node000002" class="node">
<title>Node2</title>
<g id="a_Node000002"><a xlink:title=" ">
<polygon fill="#e0e0e0" stroke="#999999" points="47,-74 0,-74 0,-55 47,-55 47,-74"/>
<text text-anchor="middle" x="23.5" y="-62" font-family="Helvetica,sans-Serif" font-size="10.00">float.h</text>
</a>
</g>
</g>
<!-- Node1&#45;&gt;Node2 -->
<g id="edge1_Node000001_Node000002" class="edge">
<title>Node1&#45;&gt;Node2</title>
<g id="a_edge1_Node000001_Node000002"><a xlink:title=" ">
<path fill="none" stroke="#63b8ff" d="M271.05,-109.99C216.03,-102.49 135.65,-90.49 57.25,-74.2"/>
<polygon fill="#63b8ff" stroke="#63b8ff" points="57.71,-70.72 47.2,-72.09 56.27,-77.57 57.71,-70.72"/>
</a>
</g>
</g>
<!-- Node3 -->
<g id="Node000003" class="node">
<title>Node3</title>
<g id="a_Node000003"><a xlink:title=" ">
<polygon fill="#e0e0e0" stroke="#999999" points="116,-74 65,-74 65,-55 116,-55 116,-74"/>
<text text-anchor="middle" x="90.5" y="-62" font-family="Helvetica,sans-Serif" font-size="10.00">math.h</text>
</a>
</g>
</g>
<!-- Node1&#45;&gt;Node3 -->
<g id="edge2_Node000001_Node000003" class="edge">
<title>Node1&#45;&gt;Node3</title>
<g id="a_edge2_Node000001_Node000003"><a xlink:title=" ">
<path fill="none" stroke="#63b8ff" d="M297.82,-109.98C250.37,-99.8 171.68,-82.92 126.12,-73.14"/>
<polygon fill="#63b8ff" stroke="#63b8ff" points="126.61,-69.67 116.1,-70.99 125.15,-76.51 126.61,-69.67"/>
</a>
</g>
</g>
<!-- Node4 -->
<g id="Node000004" class="node">
<title>Node4</title>
<g id="a_Node000004"><a xlink:href="device__headers_8h.html" target="_top" xlink:title=" ">
<polygon fill="white" stroke="#666666" points="274.5,-74 172.5,-74 172.5,-55 274.5,-55 274.5,-74"/>
<text text-anchor="middle" x="223.5" y="-62" font-family="Helvetica,sans-Serif" font-size="10.00">device_headers.h</text>
</a>
</g>
</g>
<!-- Node1&#45;&gt;Node4 -->
<g id="edge3_Node000001_Node000004" class="edge">
<title>Node1&#45;&gt;Node4</title>
<g id="a_edge3_Node000001_Node000004"><a xlink:title=" ">
<path fill="none" stroke="#63b8ff" d="M319.18,-109.98C300.84,-101.46 272.39,-88.23 251.27,-78.41"/>
<polygon fill="#63b8ff" stroke="#63b8ff" points="252.69,-75.21 242.15,-74.17 249.74,-81.56 252.69,-75.21"/>
</a>
</g>
</g>
<!-- Node5 -->
<g id="Node000005" class="node">
<title>Node5</title>
<g id="a_Node000005"><a xlink:title=" ">
<polygon fill="#e0e0e0" stroke="#999999" points="201,-19 88,-19 88,0 201,0 201,-19"/>
<text text-anchor="middle" x="144.5" y="-7" font-family="Helvetica,sans-Serif" font-size="10.00">cuda_runtime_api.h</text>
</a>
</g>
</g>
<!-- Node1&#45;&gt;Node5 -->
<g id="edge7_Node000001_Node000005" class="edge">
<title>Node1&#45;&gt;Node5</title>
<g id="a_edge7_Node000001_Node000005"><a xlink:title=" ">
<path fill="none" stroke="#63b8ff" d="M260.39,-115.41C226.77,-110.24 189.25,-98.73 163.5,-74 151.45,-62.43 146.96,-43.56 145.32,-29.39"/>
<polygon fill="#63b8ff" stroke="#63b8ff" points="148.8,-28.96 144.54,-19.26 141.82,-29.5 148.8,-28.96"/>
</a>
</g>
</g>
<!-- Node7 -->
<g id="Node000007" class="node">
<title>Node7</title>
<g id="a_Node000007"><a xlink:title=" ">
<polygon fill="#e0e0e0" stroke="#999999" points="382,-74 293,-74 293,-55 382,-55 382,-74"/>
<text text-anchor="middle" x="337.5" y="-62" font-family="Helvetica,sans-Serif" font-size="10.00">vector_types.h</text>
</a>
</g>
</g>
<!-- Node1&#45;&gt;Node7 -->
<g id="edge6_Node000001_Node000007" class="edge">
<title>Node1&#45;&gt;Node7</title>
<g id="a_edge6_Node000001_Node000007"><a xlink:title=" ">
<path fill="none" stroke="#63b8ff" d="M337.5,-109.75C337.5,-102.8 337.5,-92.85 337.5,-84.13"/>
<polygon fill="#63b8ff" stroke="#63b8ff" points="341,-84.09 337.5,-74.09 334,-84.09 341,-84.09"/>
</a>
</g>
</g>
<!-- Node8 -->
<g id="Node000008" class="node">
<title>Node8</title>
<g id="a_Node000008"><a xlink:href="acreal_8h.html" target="_top" xlink:title=" ">
<polygon fill="white" stroke="#666666" points="557.5,-19 501.5,-19 501.5,0 557.5,0 557.5,-19"/>
<text text-anchor="middle" x="529.5" y="-7" font-family="Helvetica,sans-Serif" font-size="10.00">acreal.h</text>
</a>
</g>
</g>
<!-- Node1&#45;&gt;Node8 -->
<g id="edge8_Node000001_Node000008" class="edge">
<title>Node1&#45;&gt;Node8</title>
<g id="a_edge8_Node000001_Node000008"><a xlink:title=" ">
<path fill="none" stroke="#63b8ff" d="M348.4,-109.98C365.19,-97.09 398.7,-72.29 429.5,-55 451.57,-42.61 477.75,-31.07 497.78,-22.84"/>
<polygon fill="#63b8ff" stroke="#63b8ff" points="499.12,-26.08 507.08,-19.08 496.5,-19.59 499.12,-26.08"/>
</a>
</g>
</g>
<!-- Node9 -->
<g id="Node000009" class="node">
<title>Node9</title>
<g id="a_Node000009"><a xlink:title=" ">
<polygon fill="#e0e0e0" stroke="#999999" points="534,-74 439,-74 439,-55 534,-55 534,-74"/>
<text text-anchor="middle" x="486.5" y="-62" font-family="Helvetica,sans-Serif" font-size="10.00">builtin_enums.h</text>
</a>
</g>
</g>
<!-- Node1&#45;&gt;Node9 -->
<g id="edge9_Node000001_Node000009" class="edge">
<title>Node1&#45;&gt;Node9</title>
<g id="a_edge9_Node000001_Node000009"><a xlink:title=" ">
<path fill="none" stroke="#63b8ff" d="M361.44,-109.98C386.06,-101.23 424.62,-87.51 452.42,-77.62"/>
<polygon fill="#63b8ff" stroke="#63b8ff" points="453.88,-80.82 462.12,-74.17 451.53,-74.22 453.88,-80.82"/>
</a>
</g>
</g>
<!-- Node10 -->
<g id="Node000010" class="node">
<title>Node10</title>
<g id="a_Node000010"><a xlink:title=" ">
<polygon fill="#e0e0e0" stroke="#999999" points="655,-74 552,-74 552,-55 655,-55 655,-74"/>
<text text-anchor="middle" x="603.5" y="-62" font-family="Helvetica,sans-Serif" font-size="10.00">user_typedefs.inc</text>
</a>
</g>
</g>
<!-- Node1&#45;&gt;Node10 -->
<g id="edge10_Node000001_Node000010" class="edge">
<title>Node1&#45;&gt;Node10</title>
<g id="a_edge10_Node000001_Node000010"><a xlink:title=" ">
<path fill="none" stroke="#63b8ff" d="M380.24,-109.98C426.54,-100.76 500.48,-86.03 550.46,-76.07"/>
<polygon fill="#63b8ff" stroke="#63b8ff" points="551.3,-79.47 560.43,-74.08 549.94,-72.6 551.3,-79.47"/>
</a>
</g>
</g>
<!-- Node11 -->
<g id="Node000011" class="node">
<title>Node11</title>
<g id="a_Node000011"><a xlink:href="host__datatypes_8h.html" target="_top" xlink:title=" ">
<polygon fill="white" stroke="#666666" points="774,-74 673,-74 673,-55 774,-55 774,-74"/>
<text text-anchor="middle" x="723.5" y="-62" font-family="Helvetica,sans-Serif" font-size="10.00">host_datatypes.h</text>
</a>
</g>
</g>
<!-- Node1&#45;&gt;Node11 -->
<g id="edge11_Node000001_Node000011" class="edge">
<title>Node1&#45;&gt;Node11</title>
<g id="a_edge11_Node000001_Node000011"><a xlink:title=" ">
<path fill="none" stroke="#63b8ff" d="M401.13,-109.99C464.85,-101.44 566.01,-87.76 663,-74.2"/>
<polygon fill="#63b8ff" stroke="#63b8ff" points="663.55,-77.66 672.97,-72.81 662.58,-70.73 663.55,-77.66"/>
</a>
</g>
</g>
<!-- Node4&#45;&gt;Node5 -->
<g id="edge4_Node000004_Node000005" class="edge">
<title>Node4&#45;&gt;Node5</title>
<g id="a_edge4_Node000004_Node000005"><a xlink:title=" ">
<path fill="none" stroke="#63b8ff" d="M210.81,-54.98C198.67,-46.84 180.14,-34.41 165.75,-24.76"/>
<polygon fill="#63b8ff" stroke="#63b8ff" points="167.68,-21.84 157.42,-19.17 163.78,-27.65 167.68,-21.84"/>
</a>
</g>
</g>
<!-- Node6 -->
<g id="Node000006" class="node">
<title>Node6</title>
<g id="a_Node000006"><a xlink:title=" ">
<polygon fill="#e0e0e0" stroke="#999999" points="295.5,-19 219.5,-19 219.5,0 295.5,0 295.5,-19"/>
<text text-anchor="middle" x="257.5" y="-7" font-family="Helvetica,sans-Serif" font-size="10.00">cuda_fp16.h</text>
</a>
</g>
</g>
<!-- Node4&#45;&gt;Node6 -->
<g id="edge5_Node000004_Node000006" class="edge">
<title>Node4&#45;&gt;Node6</title>
<g id="a_edge5_Node000004_Node000006"><a xlink:title=" ">
<path fill="none" stroke="#63b8ff" d="M229.11,-54.75C233.82,-47.42 240.67,-36.73 246.47,-27.7"/>
<polygon fill="#63b8ff" stroke="#63b8ff" points="249.54,-29.4 251.99,-19.09 243.64,-25.62 249.54,-29.4"/>
</a>
</g>
</g>
<!-- Node11&#45;&gt;Node8 -->
<g id="edge12_Node000011_Node000008" class="edge">
<title>Node11&#45;&gt;Node8</title>
<g id="a_edge12_Node000011_Node000008"><a xlink:title=" ">
<path fill="none" stroke="#63b8ff" d="M692.33,-54.98C658.36,-45.7 603.99,-30.85 567.53,-20.89"/>
<polygon fill="#63b8ff" stroke="#63b8ff" points="568.32,-17.48 557.75,-18.22 566.48,-24.23 568.32,-17.48"/>
</a>
</g>
</g>
<!-- Node12 -->
<g id="Node000012" class="node">
<title>Node12</title>
<g id="a_Node000012"><a xlink:title=" ">
<polygon fill="#e0e0e0" stroke="#999999" points="751.5,-19 695.5,-19 695.5,0 751.5,0 751.5,-19"/>
<text text-anchor="middle" x="723.5" y="-7" font-family="Helvetica,sans-Serif" font-size="10.00">stddef.h</text>
</a>
</g>
</g>
<!-- Node11&#45;&gt;Node12 -->
<g id="edge13_Node000011_Node000012" class="edge">
<title>Node11&#45;&gt;Node12</title>
<g id="a_edge13_Node000011_Node000012"><a xlink:title=" ">
<path fill="none" stroke="#63b8ff" d="M723.5,-54.75C723.5,-47.8 723.5,-37.85 723.5,-29.13"/>
<polygon fill="#63b8ff" stroke="#63b8ff" points="727,-29.09 723.5,-19.09 720,-29.09 727,-29.09"/>
</a>
</g>
</g>
</g>
</svg>
