<?xml version="1.0" encoding="UTF-8" standalone="no"?>
<!DOCTYPE svg PUBLIC "-//W3C//DTD SVG 1.1//EN"
 "http://www.w3.org/Graphics/SVG/1.1/DTD/svg11.dtd">
<!-- Generated by graphviz version 2.43.0 (0)
 -->
<!-- Title: src/core/decomposition/decomposition.h Pages: 1 -->
<svg width="3143pt" height="335pt"
 viewBox="0.00 0.00 3143.29 335.00" xmlns="http://www.w3.org/2000/svg" xmlns:xlink="http://www.w3.org/1999/xlink">
<g id="graph0" class="graph" transform="scale(1 1) rotate(0) translate(4 331)">
<title>src/core/decomposition/decomposition.h</title>
<!-- Node1 -->
<g id="Node000001" class="node">
<title>Node1</title>
<g id="a_Node000001"><a xlink:title=" ">
<polygon fill="#999999" stroke="#666666" points="685.5,-327 555.5,-327 555.5,-297 685.5,-297 685.5,-327"/>
<text text-anchor="start" x="563.5" y="-315" font-family="Helvetica,sans-Serif" font-size="10.00">src/core/decomposition</text>
<text text-anchor="middle" x="620.5" y="-304" font-family="Helvetica,sans-Serif" font-size="10.00">/decomposition.h</text>
</a>
</g>
</g>
<!-- Node2 -->
<g id="Node000002" class="node">
<title>Node2</title>
<g id="a_Node000002"><a xlink:title=" ">
<polygon fill="#e0e0e0" stroke="#999999" points="53,-74 0,-74 0,-55 53,-55 53,-74"/>
<text text-anchor="middle" x="26.5" y="-62" font-family="Helvetica,sans-Serif" font-size="10.00">stdint.h</text>
</a>
</g>
</g>
<!-- Node1&#45;&gt;Node2 -->
<g id="edge1_Node000001_Node000002" class="edge">
<title>Node1&#45;&gt;Node2</title>
<g id="a_edge1_Node000001_Node000002"><a xlink:title=" ">
<path fill="none" stroke="#63b8ff" d="M555.35,-302.11C414.84,-281.46 90.8,-225.42 26.5,-140 14.62,-124.22 16.92,-100.74 20.7,-84.38"/>
<polygon fill="#63b8ff" stroke="#63b8ff" points="24.18,-84.93 23.4,-74.36 17.42,-83.11 24.18,-84.93"/>
</a>
</g>
</g>
<!-- Node3 -->
<g id="Node000003" class="node">
<title>Node3</title>
<g id="a_Node000003"><a xlink:href="math__utils_8h.html" target="_top" xlink:title="Brief info.">
<polygon fill="white" stroke="#666666" points="423,-200.5 346,-200.5 346,-181.5 423,-181.5 423,-200.5"/>
<text text-anchor="middle" x="384.5" y="-188.5" font-family="Helvetica,sans-Serif" font-size="10.00">math_utils.h</text>
</a>
</g>
</g>
<!-- Node1&#45;&gt;Node3 -->
<g id="edge2_Node000001_Node000003" class="edge">
<title>Node1&#45;&gt;Node3</title>
<g id="a_edge2_Node000001_Node000003"><a xlink:title=" ">
<path fill="none" stroke="#63b8ff" d="M592.5,-296.88C546.43,-273.65 455.3,-227.7 410.54,-205.13"/>
<polygon fill="#63b8ff" stroke="#63b8ff" points="411.98,-201.94 401.48,-200.56 408.83,-208.19 411.98,-201.94"/>
</a>
</g>
</g>
<!-- Node6 -->
<g id="Node000006" class="node">
<title>Node6</title>
<g id="a_Node000006"><a xlink:href="datatypes_8h.html" target="_top" xlink:title=" ">
<polygon fill="white" stroke="#666666" points="524.5,-134.5 450.5,-134.5 450.5,-115.5 524.5,-115.5 524.5,-134.5"/>
<text text-anchor="middle" x="487.5" y="-122.5" font-family="Helvetica,sans-Serif" font-size="10.00">datatypes.h</text>
</a>
</g>
</g>
<!-- Node1&#45;&gt;Node6 -->
<g id="edge33_Node000001_Node000006" class="edge">
<title>Node1&#45;&gt;Node6</title>
<g id="a_edge33_Node000001_Node000006"><a xlink:title=" ">
<path fill="none" stroke="#63b8ff" d="M610.28,-296.79C586.16,-263.24 525.75,-179.2 499.73,-143.01"/>
<polygon fill="#63b8ff" stroke="#63b8ff" points="502.31,-140.61 493.63,-134.53 496.63,-144.69 502.31,-140.61"/>
</a>
</g>
</g>
<!-- Node17 -->
<g id="Node000017" class="node">
<title>Node17</title>
<g id="a_Node000017"><a xlink:href="errchk_8h.html" target="_top" xlink:title="Brief info.">
<polygon fill="white" stroke="#666666" points="832.5,-134.5 776.5,-134.5 776.5,-115.5 832.5,-115.5 832.5,-134.5"/>
<text text-anchor="middle" x="804.5" y="-122.5" font-family="Helvetica,sans-Serif" font-size="10.00">errchk.h</text>
</a>
</g>
</g>
<!-- Node1&#45;&gt;Node17 -->
<g id="edge34_Node000001_Node000017" class="edge">
<title>Node1&#45;&gt;Node17</title>
<g id="a_edge34_Node000001_Node000017"><a xlink:title=" ">
<path fill="none" stroke="#63b8ff" d="M634.63,-296.79C668.43,-262.81 753.73,-177.05 788.93,-141.65"/>
<polygon fill="#63b8ff" stroke="#63b8ff" points="791.45,-144.09 796.02,-134.53 786.48,-139.15 791.45,-144.09"/>
</a>
</g>
</g>
<!-- Node24 -->
<g id="Node000024" class="node">
<title>Node24</title>
<g id="a_Node000024"><a xlink:href="astaroth__base_8h.html" target="_top" xlink:title=" ">
<polygon fill="white" stroke="#666666" points="1346,-261 1251,-261 1251,-242 1346,-242 1346,-261"/>
<text text-anchor="middle" x="1298.5" y="-249" font-family="Helvetica,sans-Serif" font-size="10.00">astaroth_base.h</text>
</a>
</g>
</g>
<!-- Node1&#45;&gt;Node24 -->
<g id="edge35_Node000001_Node000024" class="edge">
<title>Node1&#45;&gt;Node24</title>
<g id="a_edge35_Node000001_Node000024"><a xlink:title=" ">
<path fill="none" stroke="#63b8ff" d="M685.51,-305.39C817.52,-294 1115.11,-268.32 1240.77,-257.48"/>
<polygon fill="#63b8ff" stroke="#63b8ff" points="1241.29,-260.95 1250.95,-256.6 1240.69,-253.98 1241.29,-260.95"/>
</a>
</g>
</g>
<!-- Node46 -->
<g id="Node000046" class="node">
<title>Node46</title>
<g id="a_Node000046"><a xlink:href="astaroth__grid_8h.html" target="_top" xlink:title=" ">
<polygon fill="white" stroke="#666666" points="1454.5,-261 1364.5,-261 1364.5,-242 1454.5,-242 1454.5,-261"/>
<text text-anchor="middle" x="1409.5" y="-249" font-family="Helvetica,sans-Serif" font-size="10.00">astaroth_grid.h</text>
</a>
</g>
</g>
<!-- Node1&#45;&gt;Node46 -->
<g id="edge67_Node000001_Node000046" class="edge">
<title>Node1&#45;&gt;Node46</title>
<g id="a_edge67_Node000001_Node000046"><a xlink:title=" ">
<path fill="none" stroke="#63b8ff" d="M685.56,-308.5C812.28,-303.22 1101.18,-289.12 1354.33,-261.03"/>
<polygon fill="#63b8ff" stroke="#63b8ff" points="1354.91,-264.48 1364.46,-259.89 1354.13,-257.53 1354.91,-264.48"/>
</a>
</g>
</g>
<!-- Node3&#45;&gt;Node2 -->
<g id="edge3_Node000003_Node000002" class="edge">
<title>Node3&#45;&gt;Node2</title>
<g id="a_edge3_Node000003_Node000002"><a xlink:title=" ">
<path fill="none" stroke="#63b8ff" d="M345.72,-189.51C266.31,-187.7 89.02,-179.24 45.5,-140 30.12,-126.13 26.4,-101.7 25.86,-84.61"/>
<polygon fill="#63b8ff" stroke="#63b8ff" points="29.36,-84.18 25.89,-74.17 22.36,-84.16 29.36,-84.18"/>
</a>
</g>
</g>
<!-- Node4 -->
<g id="Node000004" class="node">
<title>Node4</title>
<g id="a_Node000004"><a xlink:title=" ">
<polygon fill="#e0e0e0" stroke="#999999" points="926,-74 873,-74 873,-55 926,-55 926,-74"/>
<text text-anchor="middle" x="899.5" y="-62" font-family="Helvetica,sans-Serif" font-size="10.00">stdlib.h</text>
</a>
</g>
</g>
<!-- Node3&#45;&gt;Node4 -->
<g id="edge4_Node000003_Node000004" class="edge">
<title>Node3&#45;&gt;Node4</title>
<g id="a_edge4_Node000003_Node000004"><a xlink:title=" ">
<path fill="none" stroke="#63b8ff" d="M420.79,-181.45C451.84,-173.29 497.14,-159.38 533.5,-140 552.8,-129.71 552.27,-118.3 572.5,-110 690.53,-61.6 733.75,-95.71 862.95,-74.05"/>
<polygon fill="#63b8ff" stroke="#63b8ff" points="863.57,-77.49 872.81,-72.32 862.36,-70.6 863.57,-77.49"/>
</a>
</g>
</g>
<!-- Node5 -->
<g id="Node000005" class="node">
<title>Node5</title>
<g id="a_Node000005"><a xlink:title=" ">
<polygon fill="#e0e0e0" stroke="#999999" points="253,-74 202,-74 202,-55 253,-55 253,-74"/>
<text text-anchor="middle" x="227.5" y="-62" font-family="Helvetica,sans-Serif" font-size="10.00">math.h</text>
</a>
</g>
</g>
<!-- Node3&#45;&gt;Node5 -->
<g id="edge5_Node000003_Node000005" class="edge">
<title>Node3&#45;&gt;Node5</title>
<g id="a_edge5_Node000003_Node000005"><a xlink:title=" ">
<path fill="none" stroke="#63b8ff" d="M384.38,-181.25C383.69,-165 379.87,-129.99 360.5,-110 334.88,-83.57 293.14,-72.83 263.25,-68.48"/>
<polygon fill="#63b8ff" stroke="#63b8ff" points="263.58,-64.99 253.22,-67.19 262.69,-71.93 263.58,-64.99"/>
</a>
</g>
</g>
<!-- Node3&#45;&gt;Node6 -->
<g id="edge6_Node000003_Node000006" class="edge">
<title>Node3&#45;&gt;Node6</title>
<g id="a_edge6_Node000003_Node000006"><a xlink:title=" ">
<path fill="none" stroke="#63b8ff" d="M398.39,-181.37C415.44,-170.78 444.57,-152.67 464.87,-140.06"/>
<polygon fill="#63b8ff" stroke="#63b8ff" points="466.85,-142.95 473.5,-134.7 463.16,-137 466.85,-142.95"/>
</a>
</g>
</g>
<!-- Node3&#45;&gt;Node17 -->
<g id="edge20_Node000003_Node000017" class="edge">
<title>Node3&#45;&gt;Node17</title>
<g id="a_edge20_Node000003_Node000017"><a xlink:title=" ">
<path fill="none" stroke="#63b8ff" d="M423.13,-184.92C487,-176.41 618.59,-158.38 729.5,-140 741.53,-138.01 754.6,-135.64 766.41,-133.42"/>
<polygon fill="#63b8ff" stroke="#63b8ff" points="767.24,-136.83 776.41,-131.52 765.93,-129.95 767.24,-136.83"/>
</a>
</g>
</g>
<!-- Node21 -->
<g id="Node000021" class="node">
<title>Node21</title>
<g id="a_Node000021"><a xlink:href="func__attributes_8h.html" target="_top" xlink:title=" ">
<polygon fill="white" stroke="#666666" points="184,-74 85,-74 85,-55 184,-55 184,-74"/>
<text text-anchor="middle" x="134.5" y="-62" font-family="Helvetica,sans-Serif" font-size="10.00">func_attributes.h</text>
</a>
</g>
</g>
<!-- Node3&#45;&gt;Node21 -->
<g id="edge29_Node000003_Node000021" class="edge">
<title>Node3&#45;&gt;Node21</title>
<g id="a_edge29_Node000003_Node000021"><a xlink:title=" ">
<path fill="none" stroke="#63b8ff" d="M380.82,-181.43C373.24,-164.85 354.24,-128.39 326.5,-110 305,-95.74 242.23,-82.84 194.25,-74.65"/>
<polygon fill="#63b8ff" stroke="#63b8ff" points="194.7,-71.17 184.26,-72.97 193.54,-78.08 194.7,-71.17"/>
</a>
</g>
</g>
<!-- Node22 -->
<g id="Node000022" class="node">
<title>Node22</title>
<g id="a_Node000022"><a xlink:href="math__utils__base_8h.html" target="_top" xlink:title=" ">
<polygon fill="white" stroke="#666666" points="160.5,-134.5 54.5,-134.5 54.5,-115.5 160.5,-115.5 160.5,-134.5"/>
<text text-anchor="middle" x="107.5" y="-122.5" font-family="Helvetica,sans-Serif" font-size="10.00">math_utils_base.h</text>
</a>
</g>
</g>
<!-- Node3&#45;&gt;Node22 -->
<g id="edge30_Node000003_Node000022" class="edge">
<title>Node3&#45;&gt;Node22</title>
<g id="a_edge30_Node000003_Node000022"><a xlink:title=" ">
<path fill="none" stroke="#63b8ff" d="M347.43,-181.44C297.47,-169.89 208.52,-149.34 154.09,-136.77"/>
<polygon fill="#63b8ff" stroke="#63b8ff" points="154.88,-133.36 144.35,-134.51 153.31,-140.18 154.88,-133.36"/>
</a>
</g>
</g>
<!-- Node23 -->
<g id="Node000023" class="node">
<title>Node23</title>
<g id="a_Node000023"><a xlink:title=" ">
<polygon fill="#e0e0e0" stroke="#999999" points="318,-134.5 179,-134.5 179,-115.5 318,-115.5 318,-134.5"/>
<text text-anchor="middle" x="248.5" y="-122.5" font-family="Helvetica,sans-Serif" font-size="10.00">generated_comp_funcs.h</text>
</a>
</g>
</g>
<!-- Node3&#45;&gt;Node23 -->
<g id="edge32_Node000003_Node000023" class="edge">
<title>Node3&#45;&gt;Node23</title>
<g id="a_edge32_Node000003_Node000023"><a xlink:title=" ">
<path fill="none" stroke="#63b8ff" d="M366.16,-181.37C343.04,-170.49 303.09,-151.69 276.23,-139.05"/>
<polygon fill="#63b8ff" stroke="#63b8ff" points="277.52,-135.79 266.99,-134.7 274.54,-142.12 277.52,-135.79"/>
</a>
</g>
</g>
<!-- Node6&#45;&gt;Node5 -->
<g id="edge8_Node000006_Node000005" class="edge">
<title>Node6&#45;&gt;Node5</title>
<g id="a_edge8_Node000006_Node000005"><a xlink:title=" ">
<path fill="none" stroke="#63b8ff" d="M457.64,-115.49C450.72,-113.61 443.37,-111.67 436.5,-110 434.38,-109.48 322.42,-85.68 263.27,-73.1"/>
<polygon fill="#63b8ff" stroke="#63b8ff" points="263.73,-69.62 253.22,-70.97 262.27,-76.47 263.73,-69.62"/>
</a>
</g>
</g>
<!-- Node7 -->
<g id="Node000007" class="node">
<title>Node7</title>
<g id="a_Node000007"><a xlink:title=" ">
<polygon fill="#e0e0e0" stroke="#999999" points="464,-74 417,-74 417,-55 464,-55 464,-74"/>
<text text-anchor="middle" x="440.5" y="-62" font-family="Helvetica,sans-Serif" font-size="10.00">float.h</text>
</a>
</g>
</g>
<!-- Node6&#45;&gt;Node7 -->
<g id="edge7_Node000006_Node000007" class="edge">
<title>Node6&#45;&gt;Node7</title>
<g id="a_edge7_Node000006_Node000007"><a xlink:title=" ">
<path fill="none" stroke="#63b8ff" d="M480.56,-115.37C473.55,-106.64 462.54,-92.93 453.83,-82.09"/>
<polygon fill="#63b8ff" stroke="#63b8ff" points="456.46,-79.77 447.46,-74.17 451,-84.16 456.46,-79.77"/>
</a>
</g>
</g>
<!-- Node8 -->
<g id="Node000008" class="node">
<title>Node8</title>
<g id="a_Node000008"><a xlink:href="device__headers_8h.html" target="_top" xlink:title=" ">
<polygon fill="white" stroke="#666666" points="735.5,-74 633.5,-74 633.5,-55 735.5,-55 735.5,-74"/>
<text text-anchor="middle" x="684.5" y="-62" font-family="Helvetica,sans-Serif" font-size="10.00">device_headers.h</text>
</a>
</g>
</g>
<!-- Node6&#45;&gt;Node8 -->
<g id="edge9_Node000006_Node000008" class="edge">
<title>Node6&#45;&gt;Node8</title>
<g id="a_edge9_Node000006_Node000008"><a xlink:title=" ">
<path fill="none" stroke="#63b8ff" d="M516.15,-115.49C550.43,-105.31 607.98,-88.22 646.1,-76.9"/>
<polygon fill="#63b8ff" stroke="#63b8ff" points="647.23,-80.22 655.82,-74.02 645.24,-73.51 647.23,-80.22"/>
</a>
</g>
</g>
<!-- Node9 -->
<g id="Node000009" class="node">
<title>Node9</title>
<g id="a_Node000009"><a xlink:title=" ">
<polygon fill="#e0e0e0" stroke="#999999" points="483,-19 370,-19 370,0 483,0 483,-19"/>
<text text-anchor="middle" x="426.5" y="-7" font-family="Helvetica,sans-Serif" font-size="10.00">cuda_runtime_api.h</text>
</a>
</g>
</g>
<!-- Node6&#45;&gt;Node9 -->
<g id="edge13_Node000006_Node000009" class="edge">
<title>Node6&#45;&gt;Node9</title>
<g id="a_edge13_Node000006_Node000009"><a xlink:title=" ">
<path fill="none" stroke="#63b8ff" d="M456.5,-115.44C449.9,-113.63 442.97,-111.74 436.5,-110 376.13,-93.72 338.64,-123.55 300.5,-74 279.52,-46.74 319.47,-30.28 359.81,-20.97"/>
<polygon fill="#63b8ff" stroke="#63b8ff" points="360.74,-24.36 369.77,-18.82 359.25,-17.51 360.74,-24.36"/>
</a>
</g>
</g>
<!-- Node11 -->
<g id="Node000011" class="node">
<title>Node11</title>
<g id="a_Node000011"><a xlink:title=" ">
<polygon fill="#e0e0e0" stroke="#999999" points="399,-74 310,-74 310,-55 399,-55 399,-74"/>
<text text-anchor="middle" x="354.5" y="-62" font-family="Helvetica,sans-Serif" font-size="10.00">vector_types.h</text>
</a>
</g>
</g>
<!-- Node6&#45;&gt;Node11 -->
<g id="edge12_Node000006_Node000011" class="edge">
<title>Node6&#45;&gt;Node11</title>
<g id="a_edge12_Node000006_Node000011"><a xlink:title=" ">
<path fill="none" stroke="#63b8ff" d="M468.16,-115.49C445.8,-105.66 408.79,-89.38 383.1,-78.08"/>
<polygon fill="#63b8ff" stroke="#63b8ff" points="384.43,-74.84 373.86,-74.02 381.61,-81.25 384.43,-74.84"/>
</a>
</g>
</g>
<!-- Node12 -->
<g id="Node000012" class="node">
<title>Node12</title>
<g id="a_Node000012"><a xlink:href="acreal_8h.html" target="_top" xlink:title=" ">
<polygon fill="white" stroke="#666666" points="814.5,-19 758.5,-19 758.5,0 814.5,0 814.5,-19"/>
<text text-anchor="middle" x="786.5" y="-7" font-family="Helvetica,sans-Serif" font-size="10.00">acreal.h</text>
</a>
</g>
</g>
<!-- Node6&#45;&gt;Node12 -->
<g id="edge14_Node000006_Node000012" class="edge">
<title>Node6&#45;&gt;Node12</title>
<g id="a_edge14_Node000006_Node000012"><a xlink:title=" ">
<path fill="none" stroke="#63b8ff" d="M504.35,-115.49C540.62,-97.17 622.95,-55.6 624.5,-55 665.94,-39.05 715.39,-26.33 748.66,-18.64"/>
<polygon fill="#63b8ff" stroke="#63b8ff" points="749.47,-22.05 758.44,-16.42 747.92,-15.23 749.47,-22.05"/>
</a>
</g>
</g>
<!-- Node13 -->
<g id="Node000013" class="node">
<title>Node13</title>
<g id="a_Node000013"><a xlink:title=" ">
<polygon fill="#e0e0e0" stroke="#999999" points="1039,-74 944,-74 944,-55 1039,-55 1039,-74"/>
<text text-anchor="middle" x="991.5" y="-62" font-family="Helvetica,sans-Serif" font-size="10.00">builtin_enums.h</text>
</a>
</g>
</g>
<!-- Node6&#45;&gt;Node13 -->
<g id="edge15_Node000006_Node000013" class="edge">
<title>Node6&#45;&gt;Node13</title>
<g id="a_edge15_Node000006_Node000013"><a xlink:title=" ">
<path fill="none" stroke="#63b8ff" d="M524.66,-117.35C539.51,-114.83 556.78,-112.07 572.5,-110 729.94,-89.25 772.89,-93.96 933.61,-74.18"/>
<polygon fill="#63b8ff" stroke="#63b8ff" points="934.37,-77.61 943.86,-72.9 933.51,-70.66 934.37,-77.61"/>
</a>
</g>
</g>
<!-- Node14 -->
<g id="Node000014" class="node">
<title>Node14</title>
<g id="a_Node000014"><a xlink:title=" ">
<polygon fill="#e0e0e0" stroke="#999999" points="577,-74 482,-74 482,-55 577,-55 577,-74"/>
<text text-anchor="middle" x="529.5" y="-62" font-family="Helvetica,sans-Serif" font-size="10.00">user_typedefs.h</text>
</a>
</g>
</g>
<!-- Node6&#45;&gt;Node14 -->
<g id="edge16_Node000006_Node000014" class="edge">
<title>Node6&#45;&gt;Node14</title>
<g id="a_edge16_Node000006_Node000014"><a xlink:title=" ">
<path fill="none" stroke="#63b8ff" d="M493.7,-115.37C499.9,-106.73 509.61,-93.2 517.36,-82.42"/>
<polygon fill="#63b8ff" stroke="#63b8ff" points="520.29,-84.33 523.28,-74.17 514.6,-80.25 520.29,-84.33"/>
</a>
</g>
</g>
<!-- Node15 -->
<g id="Node000015" class="node">
<title>Node15</title>
<g id="a_Node000015"><a xlink:href="host__datatypes_8h.html" target="_top" xlink:title=" ">
<polygon fill="white" stroke="#666666" points="855,-74 754,-74 754,-55 855,-55 855,-74"/>
<text text-anchor="middle" x="804.5" y="-62" font-family="Helvetica,sans-Serif" font-size="10.00">host_datatypes.h</text>
</a>
</g>
</g>
<!-- Node6&#45;&gt;Node15 -->
<g id="edge17_Node000006_Node000015" class="edge">
<title>Node6&#45;&gt;Node15</title>
<g id="a_edge17_Node000006_Node000015"><a xlink:title=" ">
<path fill="none" stroke="#63b8ff" d="M516.5,-115.49C523.66,-113.54 531.33,-111.58 538.5,-110 576.53,-101.62 677.46,-85.34 743.48,-74.97"/>
<polygon fill="#63b8ff" stroke="#63b8ff" points="744.42,-78.36 753.76,-73.35 743.34,-71.45 744.42,-78.36"/>
</a>
</g>
</g>
<!-- Node8&#45;&gt;Node9 -->
<g id="edge10_Node000008_Node000009" class="edge">
<title>Node8&#45;&gt;Node9</title>
<g id="a_edge10_Node000008_Node000009"><a xlink:title=" ">
<path fill="none" stroke="#63b8ff" d="M643.05,-54.98C598.23,-45.78 526.73,-31.09 478.25,-21.13"/>
<polygon fill="#63b8ff" stroke="#63b8ff" points="478.78,-17.67 468.28,-19.08 477.37,-24.52 478.78,-17.67"/>
</a>
</g>
</g>
<!-- Node10 -->
<g id="Node000010" class="node">
<title>Node10</title>
<g id="a_Node000010"><a xlink:title=" ">
<polygon fill="#e0e0e0" stroke="#999999" points="722.5,-19 646.5,-19 646.5,0 722.5,0 722.5,-19"/>
<text text-anchor="middle" x="684.5" y="-7" font-family="Helvetica,sans-Serif" font-size="10.00">cuda_fp16.h</text>
</a>
</g>
</g>
<!-- Node8&#45;&gt;Node10 -->
<g id="edge11_Node000008_Node000010" class="edge">
<title>Node8&#45;&gt;Node10</title>
<g id="a_edge11_Node000008_Node000010"><a xlink:title=" ">
<path fill="none" stroke="#63b8ff" d="M684.5,-54.75C684.5,-47.8 684.5,-37.85 684.5,-29.13"/>
<polygon fill="#63b8ff" stroke="#63b8ff" points="688,-29.09 684.5,-19.09 681,-29.09 688,-29.09"/>
</a>
</g>
</g>
<!-- Node15&#45;&gt;Node12 -->
<g id="edge18_Node000015_Node000012" class="edge">
<title>Node15&#45;&gt;Node12</title>
<g id="a_edge18_Node000015_Node000012"><a xlink:title=" ">
<path fill="none" stroke="#63b8ff" d="M801.53,-54.75C799.14,-47.72 795.71,-37.62 792.73,-28.84"/>
<polygon fill="#63b8ff" stroke="#63b8ff" points="795.95,-27.43 789.42,-19.09 789.32,-29.68 795.95,-27.43"/>
</a>
</g>
</g>
<!-- Node16 -->
<g id="Node000016" class="node">
<title>Node16</title>
<g id="a_Node000016"><a xlink:title=" ">
<polygon fill="#e0e0e0" stroke="#999999" points="991.5,-19 935.5,-19 935.5,0 991.5,0 991.5,-19"/>
<text text-anchor="middle" x="963.5" y="-7" font-family="Helvetica,sans-Serif" font-size="10.00">stddef.h</text>
</a>
</g>
</g>
<!-- Node15&#45;&gt;Node16 -->
<g id="edge19_Node000015_Node000016" class="edge">
<title>Node15&#45;&gt;Node16</title>
<g id="a_edge19_Node000015_Node000016"><a xlink:title=" ">
<path fill="none" stroke="#63b8ff" d="M830.05,-54.98C856.62,-46.13 898.44,-32.19 928.17,-22.28"/>
<polygon fill="#63b8ff" stroke="#63b8ff" points="929.37,-25.56 937.75,-19.08 927.16,-18.92 929.37,-25.56"/>
</a>
</g>
</g>
<!-- Node17&#45;&gt;Node2 -->
<g id="edge24_Node000017_Node000002" class="edge">
<title>Node17&#45;&gt;Node2</title>
<g id="a_edge24_Node000017_Node000002"><a xlink:title=" ">
<path fill="none" stroke="#63b8ff" d="M776.5,-117.88C762.46,-115.04 745.15,-111.88 729.5,-110 440.48,-75.22 364.74,-106.93 75.5,-74 71.51,-73.55 67.36,-72.98 63.23,-72.35"/>
<polygon fill="#63b8ff" stroke="#63b8ff" points="63.55,-68.86 53.12,-70.7 62.43,-75.76 63.55,-68.86"/>
</a>
</g>
</g>
<!-- Node17&#45;&gt;Node4 -->
<g id="edge26_Node000017_Node000004" class="edge">
<title>Node17&#45;&gt;Node4</title>
<g id="a_edge26_Node000017_Node000004"><a xlink:title=" ">
<path fill="none" stroke="#63b8ff" d="M818.52,-115.37C833.81,-105.95 858.53,-90.73 876.64,-79.58"/>
<polygon fill="#63b8ff" stroke="#63b8ff" points="878.75,-82.39 885.42,-74.17 875.07,-76.43 878.75,-82.39"/>
</a>
</g>
</g>
<!-- Node17&#45;&gt;Node8 -->
<g id="edge28_Node000017_Node000008" class="edge">
<title>Node17&#45;&gt;Node8</title>
<g id="a_edge28_Node000017_Node000008"><a xlink:title=" ">
<path fill="none" stroke="#63b8ff" d="M787.05,-115.49C767.14,-105.79 734.36,-89.81 711.23,-78.53"/>
<polygon fill="#63b8ff" stroke="#63b8ff" points="712.49,-75.25 701.97,-74.02 709.43,-81.54 712.49,-75.25"/>
</a>
</g>
</g>
<!-- Node17&#45;&gt;Node15 -->
<g id="edge22_Node000017_Node000015" class="edge">
<title>Node17&#45;&gt;Node15</title>
<g id="a_edge22_Node000017_Node000015"><a xlink:title=" ">
<path fill="none" stroke="#63b8ff" d="M804.5,-115.37C804.5,-107.25 804.5,-94.81 804.5,-84.39"/>
<polygon fill="#63b8ff" stroke="#63b8ff" points="808,-84.17 804.5,-74.17 801,-84.17 808,-84.17"/>
</a>
</g>
</g>
<!-- Node17&#45;&gt;Node16 -->
<g id="edge21_Node000017_Node000016" class="edge">
<title>Node17&#45;&gt;Node16</title>
<g id="a_edge21_Node000017_Node000016"><a xlink:title=" ">
<path fill="none" stroke="#63b8ff" d="M825.01,-115.45C830.32,-113.46 836.07,-111.49 841.5,-110 886.54,-97.68 1018.45,-109.73 1048.5,-74 1066.9,-52.12 1031.75,-33.43 1001.21,-22.11"/>
<polygon fill="#63b8ff" stroke="#63b8ff" points="1002.13,-18.72 991.54,-18.69 999.8,-25.32 1002.13,-18.72"/>
</a>
</g>
</g>
<!-- Node18 -->
<g id="Node000018" class="node">
<title>Node18</title>
<g id="a_Node000018"><a xlink:title=" ">
<polygon fill="#e0e0e0" stroke="#999999" points="2229.5,-74 2167.5,-74 2167.5,-55 2229.5,-55 2229.5,-74"/>
<text text-anchor="middle" x="2198.5" y="-62" font-family="Helvetica,sans-Serif" font-size="10.00">stdbool.h</text>
</a>
</g>
</g>
<!-- Node17&#45;&gt;Node18 -->
<g id="edge23_Node000017_Node000018" class="edge">
<title>Node17&#45;&gt;Node18</title>
<g id="a_edge23_Node000017_Node000018"><a xlink:title=" ">
<path fill="none" stroke="#63b8ff" d="M823.73,-115.36C829.35,-113.21 835.57,-111.18 841.5,-110 973.05,-83.71 1943.78,-68.99 2157.12,-66.05"/>
<polygon fill="#63b8ff" stroke="#63b8ff" points="2157.32,-69.55 2167.27,-65.91 2157.22,-62.55 2157.32,-69.55"/>
</a>
</g>
</g>
<!-- Node19 -->
<g id="Node000019" class="node">
<title>Node19</title>
<g id="a_Node000019"><a xlink:title=" ">
<polygon fill="#e0e0e0" stroke="#999999" points="1680.5,-74 1630.5,-74 1630.5,-55 1680.5,-55 1680.5,-74"/>
<text text-anchor="middle" x="1655.5" y="-62" font-family="Helvetica,sans-Serif" font-size="10.00">stdio.h</text>
</a>
</g>
</g>
<!-- Node17&#45;&gt;Node19 -->
<g id="edge25_Node000017_Node000019" class="edge">
<title>Node17&#45;&gt;Node19</title>
<g id="a_edge25_Node000017_Node000019"><a xlink:title=" ">
<path fill="none" stroke="#63b8ff" d="M823.75,-115.44C829.37,-113.29 835.59,-111.25 841.5,-110 993.51,-77.89 1483.51,-68.13 1619.95,-66"/>
<polygon fill="#63b8ff" stroke="#63b8ff" points="1620.29,-69.49 1630.24,-65.84 1620.19,-62.49 1620.29,-69.49"/>
</a>
</g>
</g>
<!-- Node20 -->
<g id="Node000020" class="node">
<title>Node20</title>
<g id="a_Node000020"><a xlink:title=" ">
<polygon fill="#e0e0e0" stroke="#999999" points="1143.5,-74 1095.5,-74 1095.5,-55 1143.5,-55 1143.5,-74"/>
<text text-anchor="middle" x="1119.5" y="-62" font-family="Helvetica,sans-Serif" font-size="10.00">time.h</text>
</a>
</g>
</g>
<!-- Node17&#45;&gt;Node20 -->
<g id="edge27_Node000017_Node000020" class="edge">
<title>Node17&#45;&gt;Node20</title>
<g id="a_edge27_Node000017_Node000020"><a xlink:title=" ">
<path fill="none" stroke="#63b8ff" d="M824.99,-115.36C830.3,-113.37 836.05,-111.42 841.5,-110 945.86,-82.76 975.47,-93.78 1081.5,-74 1082.77,-73.76 1084.06,-73.51 1085.37,-73.26"/>
<polygon fill="#63b8ff" stroke="#63b8ff" points="1086.36,-76.62 1095.43,-71.16 1084.93,-69.77 1086.36,-76.62"/>
</a>
</g>
</g>
<!-- Node22&#45;&gt;Node21 -->
<g id="edge31_Node000022_Node000021" class="edge">
<title>Node22&#45;&gt;Node21</title>
<g id="a_edge31_Node000022_Node000021"><a xlink:title=" ">
<path fill="none" stroke="#63b8ff" d="M111.48,-115.37C115.35,-106.99 121.34,-94.01 126.24,-83.39"/>
<polygon fill="#63b8ff" stroke="#63b8ff" points="129.49,-84.71 130.5,-74.17 123.13,-81.78 129.49,-84.71"/>
</a>
</g>
</g>
<!-- Node24&#45;&gt;Node18 -->
<g id="edge36_Node000024_Node000018" class="edge">
<title>Node24&#45;&gt;Node18</title>
<g id="a_edge36_Node000024_Node000018"><a xlink:title=" ">
<path fill="none" stroke="#63b8ff" d="M1346.04,-242.98C1349.23,-242.61 1352.41,-242.27 1355.5,-242 1899.81,-193.62 2039.58,-246.95 2584.5,-206 2827.37,-187.75 2966.99,-322.29 3128.5,-140 3137.34,-130.02 3137.7,-119.65 3128.5,-110 3097.43,-77.41 2415.88,-67.84 2239.75,-65.91"/>
<polygon fill="#63b8ff" stroke="#63b8ff" points="2239.63,-62.41 2229.59,-65.8 2239.56,-69.4 2239.63,-62.41"/>
</a>
</g>
</g>
<!-- Node25 -->
<g id="Node000025" class="node">
<title>Node25</title>
<g id="a_Node000025"><a xlink:href="acc__runtime_8h.html" target="_top" xlink:title=" ">
<polygon fill="white" stroke="#666666" points="1800.5,-200.5 1714.5,-200.5 1714.5,-181.5 1800.5,-181.5 1800.5,-200.5"/>
<text text-anchor="middle" x="1757.5" y="-188.5" font-family="Helvetica,sans-Serif" font-size="10.00">acc_runtime.h</text>
</a>
</g>
</g>
<!-- Node24&#45;&gt;Node25 -->
<g id="edge37_Node000024_Node000025" class="edge">
<title>Node24&#45;&gt;Node25</title>
<g id="a_edge37_Node000024_Node000025"><a xlink:title=" ">
<path fill="none" stroke="#63b8ff" d="M1346.07,-243.32C1349.26,-242.86 1352.43,-242.42 1355.5,-242 1480.37,-224.93 1627.41,-207.26 1704.39,-198.19"/>
<polygon fill="#63b8ff" stroke="#63b8ff" points="1704.8,-201.67 1714.32,-197.02 1703.98,-194.71 1704.8,-201.67"/>
</a>
</g>
</g>
<!-- Node28 -->
<g id="Node000028" class="node">
<title>Node28</title>
<g id="a_Node000028"><a xlink:title=" ">
<polygon fill="#e0e0e0" stroke="#999999" points="720,-134.5 581,-134.5 581,-115.5 720,-115.5 720,-134.5"/>
<text text-anchor="middle" x="650.5" y="-122.5" font-family="Helvetica,sans-Serif" font-size="10.00">user_built&#45;in_constants.h</text>
</a>
</g>
</g>
<!-- Node24&#45;&gt;Node28 -->
<g id="edge65_Node000024_Node000028" class="edge">
<title>Node24&#45;&gt;Node28</title>
<g id="a_edge65_Node000024_Node000028"><a xlink:title=" ">
<path fill="none" stroke="#63b8ff" d="M1254.22,-241.99C1139.15,-219.88 830.96,-160.67 705.14,-136.5"/>
<polygon fill="#63b8ff" stroke="#63b8ff" points="705.45,-132.99 694.97,-134.54 704.13,-139.87 705.45,-132.99"/>
</a>
</g>
</g>
<!-- Node41 -->
<g id="Node000041" class="node">
<title>Node41</title>
<g id="a_Node000041"><a xlink:href="func__define_8h.html" target="_top" xlink:title=" ">
<polygon fill="white" stroke="#666666" points="3119.5,-134.5 3037.5,-134.5 3037.5,-115.5 3119.5,-115.5 3119.5,-134.5"/>
<text text-anchor="middle" x="3078.5" y="-122.5" font-family="Helvetica,sans-Serif" font-size="10.00">func_define.h</text>
</a>
</g>
</g>
<!-- Node24&#45;&gt;Node41 -->
<g id="edge64_Node000024_Node000041" class="edge">
<title>Node24&#45;&gt;Node41</title>
<g id="a_edge64_Node000024_Node000041"><a xlink:title=" ">
<path fill="none" stroke="#63b8ff" d="M1346.05,-243.09C1349.24,-242.69 1352.42,-242.32 1355.5,-242 2096.38,-164.32 2293.92,-263.79 3028.5,-140 3032.97,-139.25 3037.62,-138.25 3042.19,-137.13"/>
<polygon fill="#63b8ff" stroke="#63b8ff" points="3043.23,-140.48 3052.01,-134.54 3041.45,-133.71 3043.23,-140.48"/>
</a>
</g>
</g>
<!-- Node45 -->
<g id="Node000045" class="node">
<title>Node45</title>
<g id="a_Node000045"><a xlink:title=" ">
<polygon fill="#e0e0e0" stroke="#999999" points="1364,-206 1233,-206 1233,-176 1364,-176 1364,-206"/>
<text text-anchor="start" x="1241" y="-194" font-family="Helvetica,sans-Serif" font-size="10.00">user_builtin_non_scalar</text>
<text text-anchor="middle" x="1298.5" y="-183" font-family="Helvetica,sans-Serif" font-size="10.00">_constants.h</text>
</a>
</g>
</g>
<!-- Node24&#45;&gt;Node45 -->
<g id="edge66_Node000024_Node000045" class="edge">
<title>Node24&#45;&gt;Node45</title>
<g id="a_edge66_Node000024_Node000045"><a xlink:title=" ">
<path fill="none" stroke="#63b8ff" d="M1298.5,-241.87C1298.5,-235.11 1298.5,-225.35 1298.5,-216.26"/>
<polygon fill="#63b8ff" stroke="#63b8ff" points="1302,-216.11 1298.5,-206.11 1295,-216.11 1302,-216.11"/>
</a>
</g>
</g>
<!-- Node25&#45;&gt;Node6 -->
<g id="edge42_Node000025_Node000006" class="edge">
<title>Node25&#45;&gt;Node6</title>
<g id="a_edge42_Node000025_Node000006"><a xlink:title=" ">
<path fill="none" stroke="#63b8ff" d="M1714.19,-188.32C1507.66,-180.29 630.3,-145.96 572.5,-140 560.18,-138.73 546.94,-136.82 534.66,-134.81"/>
<polygon fill="#63b8ff" stroke="#63b8ff" points="535.05,-131.33 524.61,-133.11 533.88,-138.23 535.05,-131.33"/>
</a>
</g>
</g>
<!-- Node25&#45;&gt;Node8 -->
<g id="edge40_Node000025_Node000008" class="edge">
<title>Node25&#45;&gt;Node8</title>
<g id="a_edge40_Node000025_Node000008"><a xlink:title=" ">
<path fill="none" stroke="#63b8ff" d="M1714.44,-188.22C1526.91,-180.4 789.71,-149.16 767.5,-140 759.53,-136.71 722.47,-101.93 700.66,-81.08"/>
<polygon fill="#63b8ff" stroke="#63b8ff" points="703.03,-78.5 693.39,-74.11 698.18,-83.55 703.03,-78.5"/>
</a>
</g>
</g>
<!-- Node25&#45;&gt;Node13 -->
<g id="edge41_Node000025_Node000013" class="edge">
<title>Node25&#45;&gt;Node13</title>
<g id="a_edge41_Node000025_Node000013"><a xlink:title=" ">
<path fill="none" stroke="#63b8ff" d="M1800.8,-190.46C1884.75,-190.32 2064.81,-184.68 2103.5,-140 2112.23,-129.92 2112.76,-119.59 2103.5,-110 2064.24,-69.32 1142.93,-77.52 1086.5,-74 1074.49,-73.25 1061.65,-72.24 1049.41,-71.18"/>
<polygon fill="#63b8ff" stroke="#63b8ff" points="1049.57,-67.68 1039.3,-70.28 1048.95,-74.66 1049.57,-67.68"/>
</a>
</g>
</g>
<!-- Node25&#45;&gt;Node17 -->
<g id="edge43_Node000025_Node000017" class="edge">
<title>Node25&#45;&gt;Node17</title>
<g id="a_edge43_Node000025_Node000017"><a xlink:title=" ">
<path fill="none" stroke="#63b8ff" d="M1714.5,-188.43C1544.89,-182.13 927.4,-158.14 841.5,-140 838.82,-139.43 836.08,-138.7 833.36,-137.88"/>
<polygon fill="#63b8ff" stroke="#63b8ff" points="834.34,-134.51 823.75,-134.56 832.06,-141.13 834.34,-134.51"/>
</a>
</g>
</g>
<!-- Node25&#45;&gt;Node18 -->
<g id="edge39_Node000025_Node000018" class="edge">
<title>Node25&#45;&gt;Node18</title>
<g id="a_edge39_Node000025_Node000018"><a xlink:title=" ">
<path fill="none" stroke="#63b8ff" d="M1800.76,-189.21C1891.07,-186.83 2096.06,-177.35 2153.5,-140 2173.64,-126.9 2186.12,-101.34 2192.69,-83.84"/>
<polygon fill="#63b8ff" stroke="#63b8ff" points="2196.07,-84.77 2196.03,-74.18 2189.46,-82.48 2196.07,-84.77"/>
</a>
</g>
</g>
<!-- Node25&#45;&gt;Node19 -->
<g id="edge38_Node000025_Node000019" class="edge">
<title>Node25&#45;&gt;Node19</title>
<g id="a_edge38_Node000025_Node000019"><a xlink:title=" ">
<path fill="none" stroke="#63b8ff" d="M1800.83,-187.45C1895.61,-181.43 2114.62,-164.95 2136.5,-140 2145.29,-129.97 2145.48,-119.85 2136.5,-110 2106.59,-77.2 1797.13,-68.21 1691,-66.09"/>
<polygon fill="#63b8ff" stroke="#63b8ff" points="1690.87,-62.59 1680.8,-65.89 1690.73,-69.58 1690.87,-62.59"/>
</a>
</g>
</g>
<!-- Node25&#45;&gt;Node21 -->
<g id="edge47_Node000025_Node000021" class="edge">
<title>Node25&#45;&gt;Node21</title>
<g id="a_edge47_Node000025_Node000021"><a xlink:title=" ">
<path fill="none" stroke="#63b8ff" d="M1714.37,-188.4C1488.26,-180.03 449.51,-141.51 441.5,-140 401.72,-132.48 394.54,-120.69 355.5,-110 301.57,-95.24 239,-83.09 194.23,-75.24"/>
<polygon fill="#63b8ff" stroke="#63b8ff" points="194.56,-71.75 184.11,-73.49 193.36,-78.64 194.56,-71.75"/>
</a>
</g>
</g>
<!-- Node26 -->
<g id="Node000026" class="node">
<title>Node26</title>
<g id="a_Node000026"><a xlink:title=" ">
<polygon fill="#e0e0e0" stroke="#999999" points="2314,-134.5 2227,-134.5 2227,-115.5 2314,-115.5 2314,-134.5"/>
<text text-anchor="middle" x="2270.5" y="-122.5" font-family="Helvetica,sans-Serif" font-size="10.00">user_defines.h</text>
</a>
</g>
</g>
<!-- Node25&#45;&gt;Node26 -->
<g id="edge44_Node000025_Node000026" class="edge">
<title>Node25&#45;&gt;Node26</title>
<g id="a_edge44_Node000025_Node000026"><a xlink:title=" ">
<path fill="none" stroke="#63b8ff" d="M1800.73,-187.09C1881.88,-181.23 2062.4,-166.25 2212.5,-140 2217.66,-139.1 2223.05,-138 2228.37,-136.83"/>
<polygon fill="#63b8ff" stroke="#63b8ff" points="2229.48,-140.17 2238.44,-134.51 2227.91,-133.35 2229.48,-140.17"/>
</a>
</g>
</g>
<!-- Node27 -->
<g id="Node000027" class="node">
<title>Node27</title>
<g id="a_Node000027"><a xlink:title=" ">
<polygon fill="#e0e0e0" stroke="#999999" points="2418.5,-134.5 2332.5,-134.5 2332.5,-115.5 2418.5,-115.5 2418.5,-134.5"/>
<text text-anchor="middle" x="2375.5" y="-122.5" font-family="Helvetica,sans-Serif" font-size="10.00">profiles_info.h</text>
</a>
</g>
</g>
<!-- Node25&#45;&gt;Node27 -->
<g id="edge45_Node000025_Node000027" class="edge">
<title>Node25&#45;&gt;Node27</title>
<g id="a_edge45_Node000025_Node000027"><a xlink:title=" ">
<path fill="none" stroke="#63b8ff" d="M1800.8,-188.75C1896,-185.45 2130.45,-174.24 2323.5,-140 2328.02,-139.2 2332.73,-138.19 2337.37,-137.08"/>
<polygon fill="#63b8ff" stroke="#63b8ff" points="2338.54,-140.39 2347.37,-134.54 2336.81,-133.61 2338.54,-140.39"/>
</a>
</g>
</g>
<!-- Node25&#45;&gt;Node28 -->
<g id="edge46_Node000025_Node000028" class="edge">
<title>Node25&#45;&gt;Node28</title>
<g id="a_edge46_Node000025_Node000028"><a xlink:title=" ">
<path fill="none" stroke="#63b8ff" d="M1714.32,-188.56C1545.41,-182.83 929.09,-160.9 734.5,-140 725.22,-139 715.4,-137.65 705.88,-136.17"/>
<polygon fill="#63b8ff" stroke="#63b8ff" points="706.14,-132.66 695.71,-134.53 705.02,-139.57 706.14,-132.66"/>
</a>
</g>
</g>
<!-- Node29 -->
<g id="Node000029" class="node">
<title>Node29</title>
<g id="a_Node000029"><a xlink:title=" ">
<polygon fill="#e0e0e0" stroke="#999999" points="2562,-134.5 2437,-134.5 2437,-115.5 2562,-115.5 2562,-134.5"/>
<text text-anchor="middle" x="2499.5" y="-122.5" font-family="Helvetica,sans-Serif" font-size="10.00">user_input_typedefs.h</text>
</a>
</g>
</g>
<!-- Node25&#45;&gt;Node29 -->
<g id="edge48_Node000025_Node000029" class="edge">
<title>Node25&#45;&gt;Node29</title>
<g id="a_edge48_Node000025_Node000029"><a xlink:title=" ">
<path fill="none" stroke="#63b8ff" d="M1800.79,-188.53C1907.63,-184.53 2192.24,-171.54 2427.5,-140 2434.79,-139.02 2442.45,-137.77 2449.95,-136.43"/>
<polygon fill="#63b8ff" stroke="#63b8ff" points="2450.84,-139.82 2460.03,-134.54 2449.55,-132.94 2450.84,-139.82"/>
</a>
</g>
</g>
<!-- Node30 -->
<g id="Node000030" class="node">
<title>Node30</title>
<g id="a_Node000030"><a xlink:title=" ">
<polygon fill="#e0e0e0" stroke="#999999" points="2663,-134.5 2580,-134.5 2580,-115.5 2663,-115.5 2663,-134.5"/>
<text text-anchor="middle" x="2621.5" y="-122.5" font-family="Helvetica,sans-Serif" font-size="10.00">output_decl.h</text>
</a>
</g>
</g>
<!-- Node25&#45;&gt;Node30 -->
<g id="edge49_Node000025_Node000030" class="edge">
<title>Node25&#45;&gt;Node30</title>
<g id="a_edge49_Node000025_Node000030"><a xlink:title=" ">
<path fill="none" stroke="#63b8ff" d="M1800.67,-190.55C1922.67,-191.4 2280.06,-189.18 2571.5,-140 2575.97,-139.25 2580.61,-138.25 2585.19,-137.13"/>
<polygon fill="#63b8ff" stroke="#63b8ff" points="2586.23,-140.48 2595.01,-134.54 2584.45,-133.71 2586.23,-140.48"/>
</a>
</g>
</g>
<!-- Node31 -->
<g id="Node000031" class="node">
<title>Node31</title>
<g id="a_Node000031"><a xlink:title=" ">
<polygon fill="#e0e0e0" stroke="#999999" points="2797.5,-134.5 2681.5,-134.5 2681.5,-115.5 2797.5,-115.5 2797.5,-134.5"/>
<text text-anchor="middle" x="2739.5" y="-122.5" font-family="Helvetica,sans-Serif" font-size="10.00">comp_loaded_decl.h</text>
</a>
</g>
</g>
<!-- Node25&#45;&gt;Node31 -->
<g id="edge50_Node000025_Node000031" class="edge">
<title>Node25&#45;&gt;Node31</title>
<g id="a_edge50_Node000025_Node000031"><a xlink:title=" ">
<path fill="none" stroke="#63b8ff" d="M1800.59,-189.96C1931.97,-189.33 2338.87,-183.72 2672.5,-140 2679.31,-139.11 2686.46,-137.91 2693.44,-136.58"/>
<polygon fill="#63b8ff" stroke="#63b8ff" points="2694.39,-139.96 2703.51,-134.57 2693.02,-133.09 2694.39,-139.96"/>
</a>
</g>
</g>
<!-- Node32 -->
<g id="Node000032" class="node">
<title>Node32</title>
<g id="a_Node000032"><a xlink:title=" ">
<polygon fill="#e0e0e0" stroke="#999999" points="2893.5,-134.5 2815.5,-134.5 2815.5,-115.5 2893.5,-115.5 2893.5,-134.5"/>
<text text-anchor="middle" x="2854.5" y="-122.5" font-family="Helvetica,sans-Serif" font-size="10.00">comp_decl.h</text>
</a>
</g>
</g>
<!-- Node25&#45;&gt;Node32 -->
<g id="edge51_Node000025_Node000032" class="edge">
<title>Node25&#45;&gt;Node32</title>
<g id="a_edge51_Node000025_Node000032"><a xlink:title=" ">
<path fill="none" stroke="#63b8ff" d="M1800.69,-189.3C1972.56,-186.31 2608.13,-173.18 2806.5,-140 2810.74,-139.29 2815.13,-138.33 2819.46,-137.25"/>
<polygon fill="#63b8ff" stroke="#63b8ff" points="2820.63,-140.56 2829.35,-134.55 2818.78,-133.81 2820.63,-140.56"/>
</a>
</g>
</g>
<!-- Node33 -->
<g id="Node000033" class="node">
<title>Node33</title>
<g id="a_Node000033"><a xlink:title=" ">
<polygon fill="#e0e0e0" stroke="#999999" points="3019.5,-134.5 2911.5,-134.5 2911.5,-115.5 3019.5,-115.5 3019.5,-134.5"/>
<text text-anchor="middle" x="2965.5" y="-122.5" font-family="Helvetica,sans-Serif" font-size="10.00">info_loaded_decl.h</text>
</a>
</g>
</g>
<!-- Node25&#45;&gt;Node33 -->
<g id="edge52_Node000025_Node000033" class="edge">
<title>Node25&#45;&gt;Node33</title>
<g id="a_edge52_Node000025_Node000033"><a xlink:title=" ">
<path fill="none" stroke="#63b8ff" d="M1800.53,-189.13C1981.7,-185.31 2683.29,-168.92 2902.5,-140 2908.91,-139.15 2915.64,-137.98 2922.21,-136.66"/>
<polygon fill="#63b8ff" stroke="#63b8ff" points="2923.29,-140.01 2932.34,-134.51 2921.84,-133.16 2923.29,-140.01"/>
</a>
</g>
</g>
<!-- Node34 -->
<g id="Node000034" class="node">
<title>Node34</title>
<g id="a_Node000034"><a xlink:title=" ">
<polygon fill="#e0e0e0" stroke="#999999" points="990.5,-134.5 850.5,-134.5 850.5,-115.5 990.5,-115.5 990.5,-134.5"/>
<text text-anchor="middle" x="920.5" y="-122.5" font-family="Helvetica,sans-Serif" font-size="10.00">device_mesh_info_decl.h</text>
</a>
</g>
</g>
<!-- Node25&#45;&gt;Node34 -->
<g id="edge53_Node000025_Node000034" class="edge">
<title>Node25&#45;&gt;Node34</title>
<g id="a_edge53_Node000025_Node000034"><a xlink:title=" ">
<path fill="none" stroke="#63b8ff" d="M1714.25,-188.77C1598.28,-185.11 1270.87,-172.49 1000.5,-140 992.05,-138.98 983.13,-137.67 974.44,-136.25"/>
<polygon fill="#63b8ff" stroke="#63b8ff" points="974.83,-132.77 964.39,-134.55 973.66,-139.67 974.83,-132.77"/>
</a>
</g>
</g>
<!-- Node35 -->
<g id="Node000035" class="node">
<title>Node35</title>
<g id="a_Node000035"><a xlink:title=" ">
<polygon fill="#e0e0e0" stroke="#999999" points="1086,-134.5 1009,-134.5 1009,-115.5 1086,-115.5 1086,-134.5"/>
<text text-anchor="middle" x="1047.5" y="-122.5" font-family="Helvetica,sans-Serif" font-size="10.00">array_decl.h</text>
</a>
</g>
</g>
<!-- Node25&#45;&gt;Node35 -->
<g id="edge54_Node000025_Node000035" class="edge">
<title>Node25&#45;&gt;Node35</title>
<g id="a_edge54_Node000025_Node000035"><a xlink:title=" ">
<path fill="none" stroke="#63b8ff" d="M1714.12,-189.84C1607.78,-188.76 1325.99,-181.85 1095.5,-140 1091.37,-139.25 1087.08,-138.28 1082.85,-137.21"/>
<polygon fill="#63b8ff" stroke="#63b8ff" points="1083.74,-133.82 1073.17,-134.56 1081.89,-140.57 1083.74,-133.82"/>
</a>
</g>
</g>
<!-- Node36 -->
<g id="Node000036" class="node">
<title>Node36</title>
<g id="a_Node000036"><a xlink:title=" ">
<polygon fill="#e0e0e0" stroke="#999999" points="1180.5,-134.5 1104.5,-134.5 1104.5,-115.5 1180.5,-115.5 1180.5,-134.5"/>
<text text-anchor="middle" x="1142.5" y="-122.5" font-family="Helvetica,sans-Serif" font-size="10.00">input_decl.h</text>
</a>
</g>
</g>
<!-- Node25&#45;&gt;Node36 -->
<g id="edge55_Node000025_Node000036" class="edge">
<title>Node25&#45;&gt;Node36</title>
<g id="a_edge55_Node000025_Node000036"><a xlink:title=" ">
<path fill="none" stroke="#63b8ff" d="M1714.34,-189.16C1618.89,-186.66 1383,-176.94 1189.5,-140 1185.57,-139.25 1181.49,-138.3 1177.46,-137.25"/>
<polygon fill="#63b8ff" stroke="#63b8ff" points="1178.21,-133.83 1167.64,-134.51 1176.32,-140.57 1178.21,-133.83"/>
</a>
</g>
</g>
<!-- Node37 -->
<g id="Node000037" class="node">
<title>Node37</title>
<g id="a_Node000037"><a xlink:href="ac__helpers_8h.html" target="_top" xlink:title=" ">
<polygon fill="white" stroke="#666666" points="1276.5,-134.5 1198.5,-134.5 1198.5,-115.5 1276.5,-115.5 1276.5,-134.5"/>
<text text-anchor="middle" x="1237.5" y="-122.5" font-family="Helvetica,sans-Serif" font-size="10.00">ac_helpers.h</text>
</a>
</g>
</g>
<!-- Node25&#45;&gt;Node37 -->
<g id="edge56_Node000025_Node000037" class="edge">
<title>Node25&#45;&gt;Node37</title>
<g id="a_edge56_Node000025_Node000037"><a xlink:title=" ">
<path fill="none" stroke="#63b8ff" d="M1714.49,-188.01C1631.06,-183.59 1441.74,-170.8 1285.5,-140 1281.59,-139.23 1277.53,-138.28 1273.52,-137.25"/>
<polygon fill="#63b8ff" stroke="#63b8ff" points="1274.27,-133.83 1263.7,-134.56 1272.42,-140.58 1274.27,-133.83"/>
</a>
</g>
</g>
<!-- Node38 -->
<g id="Node000038" class="node">
<title>Node38</title>
<g id="a_Node000038"><a xlink:title=" ">
<polygon fill="#e0e0e0" stroke="#999999" points="1412.5,-140 1294.5,-140 1294.5,-110 1412.5,-110 1412.5,-140"/>
<text text-anchor="start" x="1302.5" y="-128" font-family="Helvetica,sans-Serif" font-size="10.00">scalar_reduce_buffer</text>
<text text-anchor="middle" x="1353.5" y="-117" font-family="Helvetica,sans-Serif" font-size="10.00">_defs.h</text>
</a>
</g>
</g>
<!-- Node25&#45;&gt;Node38 -->
<g id="edge57_Node000025_Node000038" class="edge">
<title>Node25&#45;&gt;Node38</title>
<g id="a_edge57_Node000025_Node000038"><a xlink:title=" ">
<path fill="none" stroke="#63b8ff" d="M1714.28,-184.28C1650.36,-175.66 1526.89,-158.37 1422.5,-140 1422.4,-139.98 1422.3,-139.96 1422.2,-139.95"/>
<polygon fill="#63b8ff" stroke="#63b8ff" points="1423.02,-136.54 1412.56,-138.19 1421.77,-143.43 1423.02,-136.54"/>
</a>
</g>
</g>
<!-- Node39 -->
<g id="Node000039" class="node">
<title>Node39</title>
<g id="a_Node000039"><a xlink:title=" ">
<polygon fill="#e0e0e0" stroke="#999999" points="1554,-140 1431,-140 1431,-110 1554,-110 1554,-140"/>
<text text-anchor="start" x="1439" y="-128" font-family="Helvetica,sans-Serif" font-size="10.00">scalar_reduce_buffers</text>
<text text-anchor="middle" x="1492.5" y="-117" font-family="Helvetica,sans-Serif" font-size="10.00">_in_vba.h</text>
</a>
</g>
</g>
<!-- Node25&#45;&gt;Node39 -->
<g id="edge58_Node000025_Node000039" class="edge">
<title>Node25&#45;&gt;Node39</title>
<g id="a_edge58_Node000025_Node000039"><a xlink:title=" ">
<path fill="none" stroke="#63b8ff" d="M1722.04,-181.44C1680.83,-171.48 1611.91,-154.84 1560.32,-142.38"/>
<polygon fill="#63b8ff" stroke="#63b8ff" points="1561.11,-138.97 1550.57,-140.02 1559.47,-145.77 1561.11,-138.97"/>
</a>
</g>
</g>
<!-- Node40 -->
<g id="Node000040" class="node">
<title>Node40</title>
<g id="a_Node000040"><a xlink:href="astaroth__analysis_8h.html" target="_top" xlink:title=" ">
<polygon fill="white" stroke="#666666" points="1684.5,-134.5 1572.5,-134.5 1572.5,-115.5 1684.5,-115.5 1684.5,-134.5"/>
<text text-anchor="middle" x="1628.5" y="-122.5" font-family="Helvetica,sans-Serif" font-size="10.00">astaroth_analysis.h</text>
</a>
</g>
</g>
<!-- Node25&#45;&gt;Node40 -->
<g id="edge59_Node000025_Node000040" class="edge">
<title>Node25&#45;&gt;Node40</title>
<g id="a_edge59_Node000025_Node000040"><a xlink:title=" ">
<path fill="none" stroke="#63b8ff" d="M1740.1,-181.37C1718.27,-170.54 1680.61,-151.85 1655.14,-139.22"/>
<polygon fill="#63b8ff" stroke="#63b8ff" points="1656.55,-136.01 1646.03,-134.7 1653.44,-142.28 1656.55,-136.01"/>
</a>
</g>
</g>
<!-- Node25&#45;&gt;Node41 -->
<g id="edge60_Node000025_Node000041" class="edge">
<title>Node25&#45;&gt;Node41</title>
<g id="a_edge60_Node000025_Node000041"><a xlink:title=" ">
<path fill="none" stroke="#63b8ff" d="M1800.69,-188.9C2009.05,-183.52 2905.25,-159.41 3028.5,-140 3033.08,-139.28 3037.84,-138.28 3042.52,-137.15"/>
<polygon fill="#63b8ff" stroke="#63b8ff" points="3043.77,-140.44 3052.55,-134.51 3041.98,-133.67 3043.77,-140.44"/>
</a>
</g>
</g>
<!-- Node42 -->
<g id="Node000042" class="node">
<title>Node42</title>
<g id="a_Node000042"><a xlink:href="common__kernels_8h.html" target="_top" xlink:title=" ">
<polygon fill="white" stroke="#666666" points="1812,-134.5 1703,-134.5 1703,-115.5 1812,-115.5 1812,-134.5"/>
<text text-anchor="middle" x="1757.5" y="-122.5" font-family="Helvetica,sans-Serif" font-size="10.00">common_kernels.h</text>
</a>
</g>
</g>
<!-- Node25&#45;&gt;Node42 -->
<g id="edge61_Node000025_Node000042" class="edge">
<title>Node25&#45;&gt;Node42</title>
<g id="a_edge61_Node000025_Node000042"><a xlink:title=" ">
<path fill="none" stroke="#63b8ff" d="M1757.5,-181.37C1757.5,-172.16 1757.5,-157.29 1757.5,-145.27"/>
<polygon fill="#63b8ff" stroke="#63b8ff" points="1761,-144.91 1757.5,-134.91 1754,-144.91 1761,-144.91"/>
</a>
</g>
</g>
<!-- Node43 -->
<g id="Node000043" class="node">
<title>Node43</title>
<g id="a_Node000043"><a xlink:title=" ">
<polygon fill="#e0e0e0" stroke="#999999" points="1942.5,-134.5 1830.5,-134.5 1830.5,-115.5 1942.5,-115.5 1942.5,-134.5"/>
<text text-anchor="middle" x="1886.5" y="-122.5" font-family="Helvetica,sans-Serif" font-size="10.00">user_declarations.h</text>
</a>
</g>
</g>
<!-- Node25&#45;&gt;Node43 -->
<g id="edge62_Node000025_Node000043" class="edge">
<title>Node25&#45;&gt;Node43</title>
<g id="a_edge62_Node000025_Node000043"><a xlink:title=" ">
<path fill="none" stroke="#63b8ff" d="M1774.9,-181.37C1796.73,-170.54 1834.39,-151.85 1859.86,-139.22"/>
<polygon fill="#63b8ff" stroke="#63b8ff" points="1861.56,-142.28 1868.97,-134.7 1858.45,-136.01 1861.56,-142.28"/>
</a>
</g>
</g>
<!-- Node44 -->
<g id="Node000044" class="node">
<title>Node44</title>
<g id="a_Node000044"><a xlink:title=" ">
<polygon fill="#e0e0e0" stroke="#999999" points="2094.5,-140 1960.5,-140 1960.5,-110 2094.5,-110 2094.5,-140"/>
<text text-anchor="start" x="1968.5" y="-128" font-family="Helvetica,sans-Serif" font-size="10.00">load_and_store_uniform</text>
<text text-anchor="middle" x="2027.5" y="-117" font-family="Helvetica,sans-Serif" font-size="10.00">_header.h</text>
</a>
</g>
</g>
<!-- Node25&#45;&gt;Node44 -->
<g id="edge63_Node000025_Node000044" class="edge">
<title>Node25&#45;&gt;Node44</title>
<g id="a_edge63_Node000025_Node000044"><a xlink:title=" ">
<path fill="none" stroke="#63b8ff" d="M1793.63,-181.44C1835.62,-171.48 1905.84,-154.84 1958.4,-142.38"/>
<polygon fill="#63b8ff" stroke="#63b8ff" points="1959.41,-145.74 1968.33,-140.02 1957.8,-138.93 1959.41,-145.74"/>
</a>
</g>
</g>
</g>
</svg>
