<?xml version="1.0" encoding="UTF-8" standalone="no"?>
<!DOCTYPE svg PUBLIC "-//W3C//DTD SVG 1.1//EN"
 "http://www.w3.org/Graphics/SVG/1.1/DTD/svg11.dtd">
<!-- Generated by graphviz version 2.43.0 (0)
 -->
<!-- Title: acc&#45;runtime/api/device_details.h Pages: 1 -->
<svg width="314pt" height="159pt"
 viewBox="0.00 0.00 314.00 159.00" xmlns="http://www.w3.org/2000/svg" xmlns:xlink="http://www.w3.org/1999/xlink">
<g id="graph0" class="graph" transform="scale(1 1) rotate(0) translate(4 155)">
<title>acc&#45;runtime/api/device_details.h</title>
<!-- Node1 -->
<g id="Node000001" class="node">
<title>Node1</title>
<g id="a_Node000001"><a xlink:title=" ">
<polygon fill="#999999" stroke="#666666" points="214,-151 86,-151 86,-121 214,-121 214,-151"/>
<text text-anchor="start" x="94" y="-139" font-family="Helvetica,sans-Serif" font-size="10.00">acc&#45;runtime/api/device</text>
<text text-anchor="middle" x="150" y="-128" font-family="Helvetica,sans-Serif" font-size="10.00">_details.h</text>
</a>
</g>
</g>
<!-- Node2 -->
<g id="Node000002" class="node">
<title>Node2</title>
<g id="a_Node000002"><a xlink:href="acc__runtime_8cu.html" target="_top" xlink:title=" ">
<polygon fill="white" stroke="#666666" points="129.5,-85 16.5,-85 16.5,-55 129.5,-55 129.5,-85"/>
<text text-anchor="start" x="24.5" y="-73" font-family="Helvetica,sans-Serif" font-size="10.00">acc&#45;runtime/api/acc</text>
<text text-anchor="middle" x="73" y="-62" font-family="Helvetica,sans-Serif" font-size="10.00">_runtime.cu</text>
</a>
</g>
</g>
<!-- Node1&#45;&gt;Node2 -->
<g id="edge1_Node000001_Node000002" class="edge">
<title>Node1&#45;&gt;Node2</title>
<g id="a_edge1_Node000001_Node000002"><a xlink:title=" ">
<path fill="none" stroke="#63b8ff" d="M124.98,-114.2C113.55,-104.7 100.3,-93.69 90.04,-85.16"/>
<polygon fill="#63b8ff" stroke="#63b8ff" points="122.98,-117.1 132.91,-120.8 127.46,-111.71 122.98,-117.1"/>
</a>
</g>
</g>
<!-- Node4 -->
<g id="Node000004" class="node">
<title>Node4</title>
<g id="a_Node000004"><a xlink:href="transpose_8cu.html" target="_top" xlink:title=" ">
<polygon fill="white" stroke="#666666" points="306,-79.5 148,-79.5 148,-60.5 306,-60.5 306,-79.5"/>
<text text-anchor="middle" x="227" y="-67.5" font-family="Helvetica,sans-Serif" font-size="10.00">src/core/kernels/transpose.cu</text>
</a>
</g>
</g>
<!-- Node1&#45;&gt;Node4 -->
<g id="edge3_Node000001_Node000004" class="edge">
<title>Node1&#45;&gt;Node4</title>
<g id="a_edge3_Node000001_Node000004"><a xlink:title=" ">
<path fill="none" stroke="#63b8ff" d="M174.95,-114.26C188.96,-102.61 205.72,-88.69 216.36,-79.84"/>
<polygon fill="#63b8ff" stroke="#63b8ff" points="172.54,-111.71 167.09,-120.8 177.02,-117.1 172.54,-111.71"/>
</a>
</g>
</g>
<!-- Node3 -->
<g id="Node000003" class="node">
<title>Node3</title>
<g id="a_Node000003"><a xlink:href="kernels_8cu.html" target="_top" xlink:title=" ">
<polygon fill="white" stroke="#666666" points="146,-19 0,-19 0,0 146,0 146,-19"/>
<text text-anchor="middle" x="73" y="-7" font-family="Helvetica,sans-Serif" font-size="10.00">src/core/kernels/kernels.cu</text>
</a>
</g>
</g>
<!-- Node2&#45;&gt;Node3 -->
<g id="edge2_Node000002_Node000003" class="edge">
<title>Node2&#45;&gt;Node3</title>
<g id="a_edge2_Node000002_Node000003"><a xlink:title=" ">
<path fill="none" stroke="#63b8ff" d="M73,-44.75C73,-35.72 73,-26.03 73,-19.27"/>
<polygon fill="#63b8ff" stroke="#63b8ff" points="69.5,-44.84 73,-54.84 76.5,-44.84 69.5,-44.84"/>
</a>
</g>
</g>
</g>
</svg>
