<?xml version="1.0" encoding="UTF-8" standalone="no"?>
<!DOCTYPE svg PUBLIC "-//W3C//DTD SVG 1.1//EN"
 "http://www.w3.org/Graphics/SVG/1.1/DTD/svg11.dtd">
<!-- Generated by graphviz version 2.43.0 (0)
 -->
<!-- Title: include/device_detail.h Pages: 1 -->
<!--zoomable 368 -->

<svg id="main" version="1.1" xmlns="http://www.w3.org/2000/svg" xmlns:xlink="http://www.w3.org/1999/xlink" xml:space="preserve" onload="init(evt)">
<style type="text/css"><![CDATA[
.node, .edge {opacity: 0.7;}
.node.selected, .edge.selected {opacity: 1;}
.edge:hover path { stroke: red; }
.edge:hover polygon { stroke: red; fill: red; }
]]></style>

<defs>
  <circle id="rim" cx="0" cy="0" r="7"/>
  <circle id="rim2" cx="0" cy="0" r="3.5"/>
  <g id="zoomPlus">
    <use xlink:href="#rim" fill="#404040"><set attributeName="fill" to="#808080" begin="zoomplus.mouseover" end="zoomplus.mouseout"/></use>
    <path d="M-4,0h8M0,-4v8" fill="none" stroke="white" stroke-width="1.5" pointer-events="none"/>
  </g>
  <g id="zoomMin">
    <use xlink:href="#rim" fill="#404040"><set attributeName="fill" to="#808080" begin="zoomminus.mouseover" end="zoomminus.mouseout"/></use>
    <path d="M-4,0h8" fill="none" stroke="white" stroke-width="1.5" pointer-events="none"/>
  </g>
  <g id="arrowUp" transform="translate(30 24)">
    <use xlink:href="#rim"/>
    <path pointer-events="none" fill="none" stroke="white" stroke-width="1.5" d="M0,-3.0v7 M-2.5,-0.5L0,-3.0L2.5,-0.5"/>
  </g>
  <g id="arrowRight" transform="rotate(90) translate(36 -43)">
    <use xlink:href="#rim"/>
    <path pointer-events="none" fill="none" stroke="white" stroke-width="1.5" d="M0,-3.0v7 M-2.5,-0.5L0,-3.0L2.5,-0.5"/>
  </g>
  <g id="arrowDown" transform="rotate(180) translate(-30 -48)">
    <use xlink:href="#rim"/>
    <path pointer-events="none" fill="none" stroke="white" stroke-width="1.5" d="M0,-3.0v7 M-2.5,-0.5L0,-3.0L2.5,-0.5"/>
  </g>
  <g id="arrowLeft" transform="rotate(270) translate(-36 17)">
    <use xlink:href="#rim"/>
    <path pointer-events="none" fill="none" stroke="white" stroke-width="1.5" d="M0,-3.0v7 M-2.5,-0.5L0,-3.0L2.5,-0.5"/>
  </g>
  <g id="resetDef">
    <use xlink:href="#rim2" fill="#404040"><set attributeName="fill" to="#808080" begin="reset.mouseover" end="reset.mouseout"/></use>
  </g>
</defs>
<script type="application/ecmascript">
var viewWidth = 2871;
var viewHeight = 368;
var sectionId = 'dynsection-0';
</script>
<script type="application/ecmascript" xlink:href="svg.min.js"/>
<svg id="graph" class="graph">
<g id="viewport">
<title>include/device_detail.h</title>
<!-- Node1 -->
<g id="Node000001" class="node">
<title>Node1</title>
<g id="a_Node000001"><a xlink:title=" ">
<polygon fill="#999999" stroke="#666666" points="1730.5,-360 1601.5,-360 1601.5,-341 1730.5,-341 1730.5,-360"/>
<text text-anchor="middle" x="1666" y="-348" font-family="Helvetica,sans-Serif" font-size="10.00">include/device_detail.h</text>
</a>
</g>
</g>
<!-- Node2 -->
<g id="Node000002" class="node">
<title>Node2</title>
<g id="a_Node000002"><a xlink:href="acc__runtime_8h.html" target="_top" xlink:title=" ">
<polygon fill="white" stroke="#666666" points="1524,-195 1438,-195 1438,-176 1524,-176 1524,-195"/>
<text text-anchor="middle" x="1481" y="-183" font-family="Helvetica,sans-Serif" font-size="10.00">acc_runtime.h</text>
</a>
</g>
</g>
<!-- Node1&#45;&gt;Node2 -->
<g id="edge1_Node000001_Node000002" class="edge">
<title>Node1&#45;&gt;Node2</title>
<g id="a_edge1_Node000001_Node000002"><a xlink:title=" ">
<path fill="none" stroke="#63b8ff" d="M1601.46,-345.01C1539.22,-336.85 1448.14,-313.98 1404,-250 1389.15,-228.47 1418.59,-210.25 1445.25,-198.92"/>
<polygon fill="#63b8ff" stroke="#63b8ff" points="1446.88,-202.04 1454.85,-195.07 1444.27,-195.54 1446.88,-202.04"/>
</a>
</g>
</g>
<!-- Node40 -->
<g id="Node000040" class="node">
<title>Node40</title>
<g id="a_Node000040"><a xlink:href="astaroth_8h.html" target="_top" xlink:title=" ">
<polygon fill="white" stroke="#666666" points="2060,-305 1994,-305 1994,-286 2060,-286 2060,-305"/>
<text text-anchor="middle" x="2027" y="-293" font-family="Helvetica,sans-Serif" font-size="10.00">astaroth.h</text>
</a>
</g>
</g>
<!-- Node1&#45;&gt;Node40 -->
<g id="edge47_Node000001_Node000040" class="edge">
<title>Node1&#45;&gt;Node40</title>
<g id="a_edge47_Node000001_Node000040"><a xlink:title=" ">
<path fill="none" stroke="#63b8ff" d="M1724,-340.98C1796.46,-330.35 1918.79,-312.39 1983.63,-302.87"/>
<polygon fill="#63b8ff" stroke="#63b8ff" points="1984.14,-306.33 1993.53,-301.41 1983.12,-299.4 1984.14,-306.33"/>
</a>
</g>
</g>
<!-- Node3 -->
<g id="Node000003" class="node">
<title>Node3</title>
<g id="a_Node000003"><a xlink:title=" ">
<polygon fill="#e0e0e0" stroke="#999999" points="2655,-74 2605,-74 2605,-55 2655,-55 2655,-74"/>
<text text-anchor="middle" x="2630" y="-62" font-family="Helvetica,sans-Serif" font-size="10.00">stdio.h</text>
</a>
</g>
</g>
<!-- Node2&#45;&gt;Node3 -->
<g id="edge2_Node000002_Node000003" class="edge">
<title>Node2&#45;&gt;Node3</title>
<g id="a_edge2_Node000002_Node000003"><a xlink:title=" ">
<path fill="none" stroke="#63b8ff" d="M1524.13,-184.23C1725.84,-182.8 2568.02,-174.77 2611,-140 2627.34,-126.78 2630.77,-101.63 2630.98,-84.23"/>
<polygon fill="#63b8ff" stroke="#63b8ff" points="2634.48,-84.04 2630.77,-74.12 2627.48,-84.19 2634.48,-84.04"/>
</a>
</g>
</g>
<!-- Node4 -->
<g id="Node000004" class="node">
<title>Node4</title>
<g id="a_Node000004"><a xlink:title=" ">
<polygon fill="#e0e0e0" stroke="#999999" points="2735,-74 2673,-74 2673,-55 2735,-55 2735,-74"/>
<text text-anchor="middle" x="2704" y="-62" font-family="Helvetica,sans-Serif" font-size="10.00">stdbool.h</text>
</a>
</g>
</g>
<!-- Node2&#45;&gt;Node4 -->
<g id="edge3_Node000002_Node000004" class="edge">
<title>Node2&#45;&gt;Node4</title>
<g id="a_edge3_Node000002_Node000004"><a xlink:title=" ">
<path fill="none" stroke="#63b8ff" d="M1524.05,-184.74C1720.96,-185.6 2530.56,-186.24 2633,-140 2659.63,-127.98 2681.2,-100.93 2693.32,-82.94"/>
<polygon fill="#63b8ff" stroke="#63b8ff" points="2696.29,-84.79 2698.77,-74.49 2690.41,-81 2696.29,-84.79"/>
</a>
</g>
</g>
<!-- Node5 -->
<g id="Node000005" class="node">
<title>Node5</title>
<g id="a_Node000005"><a xlink:href="device__headers_8h.html" target="_top" xlink:title=" ">
<polygon fill="white" stroke="#666666" points="102,-74 0,-74 0,-55 102,-55 102,-74"/>
<text text-anchor="middle" x="51" y="-62" font-family="Helvetica,sans-Serif" font-size="10.00">device_headers.h</text>
</a>
</g>
</g>
<!-- Node2&#45;&gt;Node5 -->
<g id="edge4_Node000002_Node000005" class="edge">
<title>Node2&#45;&gt;Node5</title>
<g id="a_edge4_Node000002_Node000005"><a xlink:title=" ">
<path fill="none" stroke="#63b8ff" d="M1437.97,-183.97C1230.43,-181.27 337.84,-168.1 217,-140 162.91,-127.42 104.82,-96.98 73.74,-79.15"/>
<polygon fill="#63b8ff" stroke="#63b8ff" points="75.39,-76.06 64.99,-74.05 71.87,-82.11 75.39,-76.06"/>
</a>
</g>
</g>
<!-- Node8 -->
<g id="Node000008" class="node">
<title>Node8</title>
<g id="a_Node000008"><a xlink:title=" ">
<polygon fill="#e0e0e0" stroke="#999999" points="646.5,-74 551.5,-74 551.5,-55 646.5,-55 646.5,-74"/>
<text text-anchor="middle" x="599" y="-62" font-family="Helvetica,sans-Serif" font-size="10.00">builtin_enums.h</text>
</a>
</g>
</g>
<!-- Node2&#45;&gt;Node8 -->
<g id="edge7_Node000002_Node000008" class="edge">
<title>Node2&#45;&gt;Node8</title>
<g id="a_edge7_Node000002_Node000008"><a xlink:title=" ">
<path fill="none" stroke="#63b8ff" d="M1437.89,-184.46C1235.33,-184.05 386.44,-179.98 348,-140 338.76,-130.39 339.43,-120.22 348,-110 351.12,-106.27 468.24,-86.69 541.37,-74.78"/>
<polygon fill="#63b8ff" stroke="#63b8ff" points="542.07,-78.21 551.38,-73.15 540.95,-71.3 542.07,-78.21"/>
</a>
</g>
</g>
<!-- Node9 -->
<g id="Node000009" class="node">
<title>Node9</title>
<g id="a_Node000009"><a xlink:href="datatypes_8h.html" target="_top" xlink:title=" ">
<polygon fill="white" stroke="#666666" points="300,-134.5 226,-134.5 226,-115.5 300,-115.5 300,-134.5"/>
<text text-anchor="middle" x="263" y="-122.5" font-family="Helvetica,sans-Serif" font-size="10.00">datatypes.h</text>
</a>
</g>
</g>
<!-- Node2&#45;&gt;Node9 -->
<g id="edge8_Node000002_Node000009" class="edge">
<title>Node2&#45;&gt;Node9</title>
<g id="a_edge8_Node000002_Node000009"><a xlink:title=" ">
<path fill="none" stroke="#63b8ff" d="M1437.73,-184.18C1253.9,-182.61 536.93,-174.38 314,-140 309.2,-139.26 304.22,-138.23 299.32,-137.06"/>
<polygon fill="#63b8ff" stroke="#63b8ff" points="300.04,-133.63 289.48,-134.51 298.28,-140.41 300.04,-133.63"/>
</a>
</g>
</g>
<!-- Node17 -->
<g id="Node000017" class="node">
<title>Node17</title>
<g id="a_Node000017"><a xlink:href="errchk_8h.html" target="_top" xlink:title="Brief info.">
<polygon fill="#fff0f0" stroke="red" points="2602,-134.5 2546,-134.5 2546,-115.5 2602,-115.5 2602,-134.5"/>
<text text-anchor="middle" x="2574" y="-122.5" font-family="Helvetica,sans-Serif" font-size="10.00">errchk.h</text>
</a>
</g>
</g>
<!-- Node2&#45;&gt;Node17 -->
<g id="edge20_Node000002_Node000017" class="edge">
<title>Node2&#45;&gt;Node17</title>
<g id="a_edge20_Node000002_Node000017"><a xlink:title=" ">
<path fill="none" stroke="#63b8ff" d="M1524.27,-184.51C1697.15,-184.27 2338.58,-180.62 2537,-140 2539.68,-139.45 2542.43,-138.73 2545.15,-137.91"/>
<polygon fill="#63b8ff" stroke="#63b8ff" points="2546.44,-141.17 2554.76,-134.61 2544.17,-134.55 2546.44,-141.17"/>
</a>
</g>
</g>
<!-- Node21 -->
<g id="Node000021" class="node">
<title>Node21</title>
<g id="a_Node000021"><a xlink:title=" ">
<polygon fill="#e0e0e0" stroke="#999999" points="443.5,-134.5 356.5,-134.5 356.5,-115.5 443.5,-115.5 443.5,-134.5"/>
<text text-anchor="middle" x="400" y="-122.5" font-family="Helvetica,sans-Serif" font-size="10.00">user_defines.h</text>
</a>
</g>
</g>
<!-- Node2&#45;&gt;Node21 -->
<g id="edge28_Node000002_Node000021" class="edge">
<title>Node2&#45;&gt;Node21</title>
<g id="a_edge28_Node000002_Node000021"><a xlink:title=" ">
<path fill="none" stroke="#63b8ff" d="M1437.84,-183.87C1268.25,-181.19 647.5,-169.55 453,-140 447.95,-139.23 442.7,-138.17 437.54,-136.98"/>
<polygon fill="#63b8ff" stroke="#63b8ff" points="438.37,-133.58 427.82,-134.55 436.67,-140.37 438.37,-133.58"/>
</a>
</g>
</g>
<!-- Node22 -->
<g id="Node000022" class="node">
<title>Node22</title>
<g id="a_Node000022"><a xlink:title=" ">
<polygon fill="#e0e0e0" stroke="#999999" points="548,-134.5 462,-134.5 462,-115.5 548,-115.5 548,-134.5"/>
<text text-anchor="middle" x="505" y="-122.5" font-family="Helvetica,sans-Serif" font-size="10.00">profiles_info.h</text>
</a>
</g>
</g>
<!-- Node2&#45;&gt;Node22 -->
<g id="edge29_Node000002_Node000022" class="edge">
<title>Node2&#45;&gt;Node22</title>
<g id="a_edge29_Node000002_Node000022"><a xlink:title=" ">
<path fill="none" stroke="#63b8ff" d="M1437.99,-183.63C1279.88,-180.22 731.02,-166.72 558,-140 552.96,-139.22 547.7,-138.15 542.54,-136.95"/>
<polygon fill="#63b8ff" stroke="#63b8ff" points="543.37,-133.55 532.82,-134.52 541.68,-140.35 543.37,-133.55"/>
</a>
</g>
</g>
<!-- Node23 -->
<g id="Node000023" class="node">
<title>Node23</title>
<g id="a_Node000023"><a xlink:title=" ">
<polygon fill="#e0e0e0" stroke="#999999" points="2835.5,-134.5 2696.5,-134.5 2696.5,-115.5 2835.5,-115.5 2835.5,-134.5"/>
<text text-anchor="middle" x="2766" y="-122.5" font-family="Helvetica,sans-Serif" font-size="10.00">user_built&#45;in_constants.h</text>
</a>
</g>
</g>
<!-- Node2&#45;&gt;Node23 -->
<g id="edge30_Node000002_Node000023" class="edge">
<title>Node2&#45;&gt;Node23</title>
<g id="a_edge30_Node000002_Node000023"><a xlink:title=" ">
<path fill="none" stroke="#63b8ff" d="M1524.22,-184.89C1680.54,-185.9 2231.02,-185.75 2682,-140 2691.5,-139.04 2701.55,-137.67 2711.27,-136.16"/>
<polygon fill="#63b8ff" stroke="#63b8ff" points="2711.93,-139.6 2721.24,-134.55 2710.81,-132.69 2711.93,-139.6"/>
</a>
</g>
</g>
<!-- Node24 -->
<g id="Node000024" class="node">
<title>Node24</title>
<g id="a_Node000024"><a xlink:href="func__attributes_8h.html" target="_top" xlink:title=" ">
<polygon fill="white" stroke="#666666" points="665.5,-134.5 566.5,-134.5 566.5,-115.5 665.5,-115.5 665.5,-134.5"/>
<text text-anchor="middle" x="616" y="-122.5" font-family="Helvetica,sans-Serif" font-size="10.00">func_attributes.h</text>
</a>
</g>
</g>
<!-- Node2&#45;&gt;Node24 -->
<g id="edge31_Node000002_Node000024" class="edge">
<title>Node2&#45;&gt;Node24</title>
<g id="a_edge31_Node000002_Node000024"><a xlink:title=" ">
<path fill="none" stroke="#63b8ff" d="M1437.92,-184.81C1316.96,-185.09 964.17,-181.95 675,-140 669.19,-139.16 663.12,-138.02 657.17,-136.75"/>
<polygon fill="#63b8ff" stroke="#63b8ff" points="657.86,-133.32 647.34,-134.53 656.32,-140.15 657.86,-133.32"/>
</a>
</g>
</g>
<!-- Node25 -->
<g id="Node000025" class="node">
<title>Node25</title>
<g id="a_Node000025"><a xlink:title=" ">
<polygon fill="#e0e0e0" stroke="#999999" points="808.5,-134.5 683.5,-134.5 683.5,-115.5 808.5,-115.5 808.5,-134.5"/>
<text text-anchor="middle" x="746" y="-122.5" font-family="Helvetica,sans-Serif" font-size="10.00">user_input_typedefs.h</text>
</a>
</g>
</g>
<!-- Node2&#45;&gt;Node25 -->
<g id="edge32_Node000002_Node000025" class="edge">
<title>Node2&#45;&gt;Node25</title>
<g id="a_edge32_Node000002_Node000025"><a xlink:title=" ">
<path fill="none" stroke="#63b8ff" d="M1437.77,-183.47C1331.74,-180.53 1050.51,-170.29 818,-140 810.54,-139.03 802.68,-137.76 795.01,-136.38"/>
<polygon fill="#63b8ff" stroke="#63b8ff" points="795.56,-132.92 785.09,-134.52 794.28,-139.8 795.56,-132.92"/>
</a>
</g>
</g>
<!-- Node26 -->
<g id="Node000026" class="node">
<title>Node26</title>
<g id="a_Node000026"><a xlink:title=" ">
<polygon fill="#e0e0e0" stroke="#999999" points="909.5,-134.5 826.5,-134.5 826.5,-115.5 909.5,-115.5 909.5,-134.5"/>
<text text-anchor="middle" x="868" y="-122.5" font-family="Helvetica,sans-Serif" font-size="10.00">output_decl.h</text>
</a>
</g>
</g>
<!-- Node2&#45;&gt;Node26 -->
<g id="edge33_Node000002_Node000026" class="edge">
<title>Node2&#45;&gt;Node26</title>
<g id="a_edge33_Node000002_Node000026"><a xlink:title=" ">
<path fill="none" stroke="#63b8ff" d="M1438,-183.86C1343.44,-181.84 1110.61,-173.57 919,-140 914.5,-139.21 909.83,-138.2 905.22,-137.09"/>
<polygon fill="#63b8ff" stroke="#63b8ff" points="905.87,-133.64 895.31,-134.52 904.11,-140.42 905.87,-133.64"/>
</a>
</g>
</g>
<!-- Node27 -->
<g id="Node000027" class="node">
<title>Node27</title>
<g id="a_Node000027"><a xlink:title=" ">
<polygon fill="#e0e0e0" stroke="#999999" points="1044,-134.5 928,-134.5 928,-115.5 1044,-115.5 1044,-134.5"/>
<text text-anchor="middle" x="986" y="-122.5" font-family="Helvetica,sans-Serif" font-size="10.00">comp_loaded_decl.h</text>
</a>
</g>
</g>
<!-- Node2&#45;&gt;Node27 -->
<g id="edge34_Node000002_Node000027" class="edge">
<title>Node2&#45;&gt;Node27</title>
<g id="a_edge34_Node000002_Node000027"><a xlink:title=" ">
<path fill="none" stroke="#63b8ff" d="M1437.98,-181.49C1360.63,-175.76 1193.06,-161.86 1053,-140 1046.68,-139.01 1040.06,-137.82 1033.54,-136.56"/>
<polygon fill="#63b8ff" stroke="#63b8ff" points="1033.93,-133.07 1023.44,-134.53 1032.55,-139.93 1033.93,-133.07"/>
</a>
</g>
</g>
<!-- Node28 -->
<g id="Node000028" class="node">
<title>Node28</title>
<g id="a_Node000028"><a xlink:title=" ">
<polygon fill="#e0e0e0" stroke="#999999" points="1140,-134.5 1062,-134.5 1062,-115.5 1140,-115.5 1140,-134.5"/>
<text text-anchor="middle" x="1101" y="-122.5" font-family="Helvetica,sans-Serif" font-size="10.00">comp_decl.h</text>
</a>
</g>
</g>
<!-- Node2&#45;&gt;Node28 -->
<g id="edge35_Node000002_Node000028" class="edge">
<title>Node2&#45;&gt;Node28</title>
<g id="a_edge35_Node000002_Node000028"><a xlink:title=" ">
<path fill="none" stroke="#63b8ff" d="M1437.93,-180.82C1374.28,-174.9 1251.55,-161.7 1149,-140 1145.3,-139.22 1141.47,-138.3 1137.66,-137.3"/>
<polygon fill="#63b8ff" stroke="#63b8ff" points="1138.3,-133.85 1127.73,-134.57 1136.44,-140.6 1138.3,-133.85"/>
</a>
</g>
</g>
<!-- Node29 -->
<g id="Node000029" class="node">
<title>Node29</title>
<g id="a_Node000029"><a xlink:title=" ">
<polygon fill="#e0e0e0" stroke="#999999" points="1266,-134.5 1158,-134.5 1158,-115.5 1266,-115.5 1266,-134.5"/>
<text text-anchor="middle" x="1212" y="-122.5" font-family="Helvetica,sans-Serif" font-size="10.00">info_loaded_decl.h</text>
</a>
</g>
</g>
<!-- Node2&#45;&gt;Node29 -->
<g id="edge36_Node000002_Node000029" class="edge">
<title>Node2&#45;&gt;Node29</title>
<g id="a_edge36_Node000002_Node000029"><a xlink:title=" ">
<path fill="none" stroke="#63b8ff" d="M1441.11,-175.96C1399.6,-167.05 1332.72,-152.65 1275,-140 1270.26,-138.96 1265.31,-137.87 1260.37,-136.78"/>
<polygon fill="#63b8ff" stroke="#63b8ff" points="1260.83,-133.3 1250.31,-134.55 1259.31,-140.13 1260.83,-133.3"/>
</a>
</g>
</g>
<!-- Node30 -->
<g id="Node000030" class="node">
<title>Node30</title>
<g id="a_Node000030"><a xlink:title=" ">
<polygon fill="#e0e0e0" stroke="#999999" points="1424,-134.5 1284,-134.5 1284,-115.5 1424,-115.5 1424,-134.5"/>
<text text-anchor="middle" x="1354" y="-122.5" font-family="Helvetica,sans-Serif" font-size="10.00">device_mesh_info_decl.h</text>
</a>
</g>
</g>
<!-- Node2&#45;&gt;Node30 -->
<g id="edge37_Node000002_Node000030" class="edge">
<title>Node2&#45;&gt;Node30</title>
<g id="a_edge37_Node000002_Node000030"><a xlink:title=" ">
<path fill="none" stroke="#63b8ff" d="M1462.53,-175.99C1441.28,-166.2 1406.15,-150.02 1381.63,-138.73"/>
<polygon fill="#63b8ff" stroke="#63b8ff" points="1383.04,-135.52 1372.49,-134.52 1380.11,-141.88 1383.04,-135.52"/>
</a>
</g>
</g>
<!-- Node31 -->
<g id="Node000031" class="node">
<title>Node31</title>
<g id="a_Node000031"><a xlink:title=" ">
<polygon fill="#e0e0e0" stroke="#999999" points="1519.5,-134.5 1442.5,-134.5 1442.5,-115.5 1519.5,-115.5 1519.5,-134.5"/>
<text text-anchor="middle" x="1481" y="-122.5" font-family="Helvetica,sans-Serif" font-size="10.00">array_decl.h</text>
</a>
</g>
</g>
<!-- Node2&#45;&gt;Node31 -->
<g id="edge38_Node000002_Node000031" class="edge">
<title>Node2&#45;&gt;Node31</title>
<g id="a_edge38_Node000002_Node000031"><a xlink:title=" ">
<path fill="none" stroke="#63b8ff" d="M1481,-175.87C1481,-167.75 1481,-155.31 1481,-144.89"/>
<polygon fill="#63b8ff" stroke="#63b8ff" points="1484.5,-144.67 1481,-134.67 1477.5,-144.67 1484.5,-144.67"/>
</a>
</g>
</g>
<!-- Node32 -->
<g id="Node000032" class="node">
<title>Node32</title>
<g id="a_Node000032"><a xlink:title=" ">
<polygon fill="#e0e0e0" stroke="#999999" points="1614,-134.5 1538,-134.5 1538,-115.5 1614,-115.5 1614,-134.5"/>
<text text-anchor="middle" x="1576" y="-122.5" font-family="Helvetica,sans-Serif" font-size="10.00">input_decl.h</text>
</a>
</g>
</g>
<!-- Node2&#45;&gt;Node32 -->
<g id="edge39_Node000002_Node000032" class="edge">
<title>Node2&#45;&gt;Node32</title>
<g id="a_edge39_Node000002_Node000032"><a xlink:title=" ">
<path fill="none" stroke="#63b8ff" d="M1495.02,-175.87C1510.31,-166.45 1535.03,-151.23 1553.14,-140.08"/>
<polygon fill="#63b8ff" stroke="#63b8ff" points="1555.25,-142.89 1561.92,-134.67 1551.57,-136.93 1555.25,-142.89"/>
</a>
</g>
</g>
<!-- Node33 -->
<g id="Node000033" class="node">
<title>Node33</title>
<g id="a_Node000033"><a xlink:href="ac__helpers_8h.html" target="_top" xlink:title=" ">
<polygon fill="white" stroke="#666666" points="1710,-134.5 1632,-134.5 1632,-115.5 1710,-115.5 1710,-134.5"/>
<text text-anchor="middle" x="1671" y="-122.5" font-family="Helvetica,sans-Serif" font-size="10.00">ac_helpers.h</text>
</a>
</g>
</g>
<!-- Node2&#45;&gt;Node33 -->
<g id="edge40_Node000002_Node000033" class="edge">
<title>Node2&#45;&gt;Node33</title>
<g id="a_edge40_Node000002_Node000033"><a xlink:title=" ">
<path fill="none" stroke="#63b8ff" d="M1508.63,-175.99C1541.55,-165.86 1596.73,-148.87 1633.49,-137.55"/>
<polygon fill="#63b8ff" stroke="#63b8ff" points="1634.81,-140.8 1643.34,-134.52 1632.75,-134.11 1634.81,-140.8"/>
</a>
</g>
</g>
<!-- Node34 -->
<g id="Node000034" class="node">
<title>Node34</title>
<g id="a_Node000034"><a xlink:title=" ">
<polygon fill="#e0e0e0" stroke="#999999" points="1846,-140 1728,-140 1728,-110 1846,-110 1846,-140"/>
<text text-anchor="start" x="1736" y="-128" font-family="Helvetica,sans-Serif" font-size="10.00">scalar_reduce_buffer</text>
<text text-anchor="middle" x="1787" y="-117" font-family="Helvetica,sans-Serif" font-size="10.00">_defs.h</text>
</a>
</g>
</g>
<!-- Node2&#45;&gt;Node34 -->
<g id="edge41_Node000002_Node000034" class="edge">
<title>Node2&#45;&gt;Node34</title>
<g id="a_edge41_Node000002_Node000034"><a xlink:title=" ">
<path fill="none" stroke="#63b8ff" d="M1524.04,-176.7C1569.69,-168.36 1644.19,-154.61 1717.77,-140.22"/>
<polygon fill="#63b8ff" stroke="#63b8ff" points="1718.54,-143.64 1727.67,-138.28 1717.19,-136.77 1718.54,-143.64"/>
</a>
</g>
</g>
<!-- Node35 -->
<g id="Node000035" class="node">
<title>Node35</title>
<g id="a_Node000035"><a xlink:title=" ">
<polygon fill="#e0e0e0" stroke="#999999" points="1987.5,-140 1864.5,-140 1864.5,-110 1987.5,-110 1987.5,-140"/>
<text text-anchor="start" x="1872.5" y="-128" font-family="Helvetica,sans-Serif" font-size="10.00">scalar_reduce_buffers</text>
<text text-anchor="middle" x="1926" y="-117" font-family="Helvetica,sans-Serif" font-size="10.00">_in_vba.h</text>
</a>
</g>
</g>
<!-- Node2&#45;&gt;Node35 -->
<g id="edge42_Node000002_Node000035" class="edge">
<title>Node2&#45;&gt;Node35</title>
<g id="a_edge42_Node000002_Node000035"><a xlink:title=" ">
<path fill="none" stroke="#63b8ff" d="M1524.06,-180.45C1591.95,-173.84 1728.24,-159.61 1854.26,-140.03"/>
<polygon fill="#63b8ff" stroke="#63b8ff" points="1855.14,-143.44 1864.48,-138.43 1854.06,-136.52 1855.14,-143.44"/>
</a>
</g>
</g>
<!-- Node36 -->
<g id="Node000036" class="node">
<title>Node36</title>
<g id="a_Node000036"><a xlink:href="astaroth__analysis_8h.html" target="_top" xlink:title=" ">
<polygon fill="white" stroke="#666666" points="2118,-134.5 2006,-134.5 2006,-115.5 2118,-115.5 2118,-134.5"/>
<text text-anchor="middle" x="2062" y="-122.5" font-family="Helvetica,sans-Serif" font-size="10.00">astaroth_analysis.h</text>
</a>
</g>
</g>
<!-- Node2&#45;&gt;Node36 -->
<g id="edge43_Node000002_Node000036" class="edge">
<title>Node2&#45;&gt;Node36</title>
<g id="a_edge43_Node000002_Node000036"><a xlink:title=" ">
<path fill="none" stroke="#63b8ff" d="M1524.03,-182.63C1612.84,-178.36 1822.72,-166.18 1997,-140 2003.29,-139.05 2009.89,-137.87 2016.37,-136.59"/>
<polygon fill="#63b8ff" stroke="#63b8ff" points="2017.3,-139.97 2026.39,-134.52 2015.89,-133.11 2017.3,-139.97"/>
</a>
</g>
</g>
<!-- Node37 -->
<g id="Node000037" class="node">
<title>Node37</title>
<g id="a_Node000037"><a xlink:href="common__kernels_8h.html" target="_top" xlink:title=" ">
<polygon fill="white" stroke="#666666" points="2245.5,-134.5 2136.5,-134.5 2136.5,-115.5 2245.5,-115.5 2245.5,-134.5"/>
<text text-anchor="middle" x="2191" y="-122.5" font-family="Helvetica,sans-Serif" font-size="10.00">common_kernels.h</text>
</a>
</g>
</g>
<!-- Node2&#45;&gt;Node37 -->
<g id="edge44_Node000002_Node000037" class="edge">
<title>Node2&#45;&gt;Node37</title>
<g id="a_edge44_Node000002_Node000037"><a xlink:title=" ">
<path fill="none" stroke="#63b8ff" d="M1524.32,-183.71C1628.6,-181.32 1901.65,-172.23 2127,-140 2133.28,-139.1 2139.86,-137.93 2146.32,-136.65"/>
<polygon fill="#63b8ff" stroke="#63b8ff" points="2147.22,-140.03 2156.29,-134.56 2145.79,-133.18 2147.22,-140.03"/>
</a>
</g>
</g>
<!-- Node38 -->
<g id="Node000038" class="node">
<title>Node38</title>
<g id="a_Node000038"><a xlink:title=" ">
<polygon fill="#e0e0e0" stroke="#999999" points="2376,-134.5 2264,-134.5 2264,-115.5 2376,-115.5 2376,-134.5"/>
<text text-anchor="middle" x="2320" y="-122.5" font-family="Helvetica,sans-Serif" font-size="10.00">user_declarations.h</text>
</a>
</g>
</g>
<!-- Node2&#45;&gt;Node38 -->
<g id="edge45_Node000002_Node000038" class="edge">
<title>Node2&#45;&gt;Node38</title>
<g id="a_edge45_Node000002_Node000038"><a xlink:title=" ">
<path fill="none" stroke="#63b8ff" d="M1524.02,-184.35C1641.63,-183.46 1978.24,-177.53 2255,-140 2261.46,-139.12 2268.22,-137.95 2274.85,-136.66"/>
<polygon fill="#63b8ff" stroke="#63b8ff" points="2276,-140 2285.09,-134.56 2274.59,-133.14 2276,-140"/>
</a>
</g>
</g>
<!-- Node39 -->
<g id="Node000039" class="node">
<title>Node39</title>
<g id="a_Node000039"><a xlink:title=" ">
<polygon fill="#e0e0e0" stroke="#999999" points="2528,-140 2394,-140 2394,-110 2528,-110 2528,-140"/>
<text text-anchor="start" x="2402" y="-128" font-family="Helvetica,sans-Serif" font-size="10.00">load_and_store_uniform</text>
<text text-anchor="middle" x="2461" y="-117" font-family="Helvetica,sans-Serif" font-size="10.00">_header.h</text>
</a>
</g>
</g>
<!-- Node2&#45;&gt;Node39 -->
<g id="edge46_Node000002_Node000039" class="edge">
<title>Node2&#45;&gt;Node39</title>
<g id="a_edge46_Node000002_Node000039"><a xlink:title=" ">
<path fill="none" stroke="#63b8ff" d="M1524.45,-184.41C1653.76,-183.69 2047.48,-178.38 2383.51,-140.06"/>
<polygon fill="#63b8ff" stroke="#63b8ff" points="2384.4,-143.48 2393.94,-138.85 2383.6,-136.52 2384.4,-143.48"/>
</a>
</g>
</g>
<!-- Node6 -->
<g id="Node000006" class="node">
<title>Node6</title>
<g id="a_Node000006"><a xlink:title=" ">
<polygon fill="#e0e0e0" stroke="#999999" points="264.5,-19 151.5,-19 151.5,0 264.5,0 264.5,-19"/>
<text text-anchor="middle" x="208" y="-7" font-family="Helvetica,sans-Serif" font-size="10.00">cuda_runtime_api.h</text>
</a>
</g>
</g>
<!-- Node5&#45;&gt;Node6 -->
<g id="edge5_Node000005_Node000006" class="edge">
<title>Node5&#45;&gt;Node6</title>
<g id="a_edge5_Node000005_Node000006"><a xlink:title=" ">
<path fill="none" stroke="#63b8ff" d="M76.22,-54.98C102.36,-46.16 143.4,-32.31 172.73,-22.41"/>
<polygon fill="#63b8ff" stroke="#63b8ff" points="174.22,-25.6 182.58,-19.08 171.98,-18.96 174.22,-25.6"/>
</a>
</g>
</g>
<!-- Node7 -->
<g id="Node000007" class="node">
<title>Node7</title>
<g id="a_Node000007"><a xlink:title=" ">
<polygon fill="#e0e0e0" stroke="#999999" points="89,-19 13,-19 13,0 89,0 89,-19"/>
<text text-anchor="middle" x="51" y="-7" font-family="Helvetica,sans-Serif" font-size="10.00">cuda_fp16.h</text>
</a>
</g>
</g>
<!-- Node5&#45;&gt;Node7 -->
<g id="edge6_Node000005_Node000007" class="edge">
<title>Node5&#45;&gt;Node7</title>
<g id="a_edge6_Node000005_Node000007"><a xlink:title=" ">
<path fill="none" stroke="#63b8ff" d="M51,-54.75C51,-47.8 51,-37.85 51,-29.13"/>
<polygon fill="#63b8ff" stroke="#63b8ff" points="54.5,-29.09 51,-19.09 47.5,-29.09 54.5,-29.09"/>
</a>
</g>
</g>
<!-- Node9&#45;&gt;Node5 -->
<g id="edge11_Node000009_Node000005" class="edge">
<title>Node9&#45;&gt;Node5</title>
<g id="a_edge11_Node000009_Node000005"><a xlink:title=" ">
<path fill="none" stroke="#63b8ff" d="M232.17,-115.49C195.04,-105.25 132.55,-88 91.54,-76.69"/>
<polygon fill="#63b8ff" stroke="#63b8ff" points="92.43,-73.3 81.86,-74.02 90.57,-80.05 92.43,-73.3"/>
</a>
</g>
</g>
<!-- Node9&#45;&gt;Node6 -->
<g id="edge13_Node000009_Node000006" class="edge">
<title>Node9&#45;&gt;Node6</title>
<g id="a_edge13_Node000009_Node000006"><a xlink:title=" ">
<path fill="none" stroke="#63b8ff" d="M258.87,-115.47C249.91,-96.98 228.55,-52.9 216.55,-28.14"/>
<polygon fill="#63b8ff" stroke="#63b8ff" points="219.69,-26.6 212.18,-19.13 213.39,-29.66 219.69,-26.6"/>
</a>
</g>
</g>
<!-- Node9&#45;&gt;Node8 -->
<g id="edge15_Node000009_Node000008" class="edge">
<title>Node9&#45;&gt;Node8</title>
<g id="a_edge15_Node000009_Node000008"><a xlink:title=" ">
<path fill="none" stroke="#63b8ff" d="M291.99,-115.43C299.14,-113.49 306.82,-111.54 314,-110 325.02,-107.64 461.52,-86.58 541.54,-74.3"/>
<polygon fill="#63b8ff" stroke="#63b8ff" points="542.13,-77.75 551.48,-72.78 541.07,-70.83 542.13,-77.75"/>
</a>
</g>
</g>
<!-- Node10 -->
<g id="Node000010" class="node">
<title>Node10</title>
<g id="a_Node000010"><a xlink:title=" ">
<polygon fill="#e0e0e0" stroke="#999999" points="357.5,-74 310.5,-74 310.5,-55 357.5,-55 357.5,-74"/>
<text text-anchor="middle" x="334" y="-62" font-family="Helvetica,sans-Serif" font-size="10.00">float.h</text>
</a>
</g>
</g>
<!-- Node9&#45;&gt;Node10 -->
<g id="edge9_Node000009_Node000010" class="edge">
<title>Node9&#45;&gt;Node10</title>
<g id="a_edge9_Node000009_Node000010"><a xlink:title=" ">
<path fill="none" stroke="#63b8ff" d="M273.48,-115.37C284.49,-106.3 302.04,-91.84 315.41,-80.82"/>
<polygon fill="#63b8ff" stroke="#63b8ff" points="317.99,-83.23 323.48,-74.17 313.54,-77.83 317.99,-83.23"/>
</a>
</g>
</g>
<!-- Node11 -->
<g id="Node000011" class="node">
<title>Node11</title>
<g id="a_Node000011"><a xlink:title=" ">
<polygon fill="#e0e0e0" stroke="#999999" points="426.5,-74 375.5,-74 375.5,-55 426.5,-55 426.5,-74"/>
<text text-anchor="middle" x="401" y="-62" font-family="Helvetica,sans-Serif" font-size="10.00">math.h</text>
</a>
</g>
</g>
<!-- Node9&#45;&gt;Node11 -->
<g id="edge10_Node000009_Node000011" class="edge">
<title>Node9&#45;&gt;Node11</title>
<g id="a_edge10_Node000009_Node000011"><a xlink:title=" ">
<path fill="none" stroke="#63b8ff" d="M283.07,-115.49C306.37,-105.62 345.01,-89.23 371.68,-77.93"/>
<polygon fill="#63b8ff" stroke="#63b8ff" points="373.07,-81.14 380.91,-74.02 370.34,-74.7 373.07,-81.14"/>
</a>
</g>
</g>
<!-- Node12 -->
<g id="Node000012" class="node">
<title>Node12</title>
<g id="a_Node000012"><a xlink:title=" ">
<polygon fill="#e0e0e0" stroke="#999999" points="533.5,-74 444.5,-74 444.5,-55 533.5,-55 533.5,-74"/>
<text text-anchor="middle" x="489" y="-62" font-family="Helvetica,sans-Serif" font-size="10.00">vector_types.h</text>
</a>
</g>
</g>
<!-- Node9&#45;&gt;Node12 -->
<g id="edge12_Node000009_Node000012" class="edge">
<title>Node9&#45;&gt;Node12</title>
<g id="a_edge12_Node000009_Node000012"><a xlink:title=" ">
<path fill="none" stroke="#63b8ff" d="M293.72,-115.47C300.4,-113.64 307.43,-111.74 314,-110 358.41,-98.26 409.32,-85.38 444.73,-76.51"/>
<polygon fill="#63b8ff" stroke="#63b8ff" points="445.89,-79.83 454.75,-74.01 444.2,-73.04 445.89,-79.83"/>
</a>
</g>
</g>
<!-- Node13 -->
<g id="Node000013" class="node">
<title>Node13</title>
<g id="a_Node000013"><a xlink:href="acreal_8h.html" target="_top" xlink:title=" ">
<polygon fill="white" stroke="#666666" points="346,-19 290,-19 290,0 346,0 346,-19"/>
<text text-anchor="middle" x="318" y="-7" font-family="Helvetica,sans-Serif" font-size="10.00">acreal.h</text>
</a>
</g>
</g>
<!-- Node9&#45;&gt;Node13 -->
<g id="edge14_Node000009_Node000013" class="edge">
<title>Node9&#45;&gt;Node13</title>
<g id="a_edge14_Node000009_Node000013"><a xlink:title=" ">
<path fill="none" stroke="#63b8ff" d="M267.13,-115.47C276.09,-96.98 297.45,-52.9 309.45,-28.14"/>
<polygon fill="#63b8ff" stroke="#63b8ff" points="312.61,-29.66 313.82,-19.13 306.31,-26.6 312.61,-29.66"/>
</a>
</g>
</g>
<!-- Node14 -->
<g id="Node000014" class="node">
<title>Node14</title>
<g id="a_Node000014"><a xlink:title=" ">
<polygon fill="#e0e0e0" stroke="#999999" points="215.5,-74 120.5,-74 120.5,-55 215.5,-55 215.5,-74"/>
<text text-anchor="middle" x="168" y="-62" font-family="Helvetica,sans-Serif" font-size="10.00">user_typedefs.h</text>
</a>
</g>
</g>
<!-- Node9&#45;&gt;Node14 -->
<g id="edge16_Node000009_Node000014" class="edge">
<title>Node9&#45;&gt;Node14</title>
<g id="a_edge16_Node000009_Node000014"><a xlink:title=" ">
<path fill="none" stroke="#63b8ff" d="M248.98,-115.37C233.69,-105.95 208.97,-90.73 190.86,-79.58"/>
<polygon fill="#63b8ff" stroke="#63b8ff" points="192.43,-76.43 182.08,-74.17 188.75,-82.39 192.43,-76.43"/>
</a>
</g>
</g>
<!-- Node15 -->
<g id="Node000015" class="node">
<title>Node15</title>
<g id="a_Node000015"><a xlink:href="host__datatypes_8h.html" target="_top" xlink:title=" ">
<polygon fill="white" stroke="#666666" points="1575.5,-74 1474.5,-74 1474.5,-55 1575.5,-55 1575.5,-74"/>
<text text-anchor="middle" x="1525" y="-62" font-family="Helvetica,sans-Serif" font-size="10.00">host_datatypes.h</text>
</a>
</g>
</g>
<!-- Node9&#45;&gt;Node15 -->
<g id="edge17_Node000009_Node000015" class="edge">
<title>Node9&#45;&gt;Node15</title>
<g id="a_edge17_Node000009_Node000015"><a xlink:title=" ">
<path fill="none" stroke="#63b8ff" d="M300.1,-116.85C314.94,-114.26 332.23,-111.59 348,-110 773.68,-67.07 1289.74,-64.59 1464.11,-65.11"/>
<polygon fill="#63b8ff" stroke="#63b8ff" points="1464.36,-68.61 1474.37,-65.15 1464.38,-61.62 1464.36,-68.61"/>
</a>
</g>
</g>
<!-- Node15&#45;&gt;Node13 -->
<g id="edge18_Node000015_Node000013" class="edge">
<title>Node15&#45;&gt;Node13</title>
<g id="a_edge18_Node000015_Node000013"><a xlink:title=" ">
<path fill="none" stroke="#63b8ff" d="M1474.29,-61.27C1273.03,-52.44 532.94,-19.94 356.13,-12.17"/>
<polygon fill="#63b8ff" stroke="#63b8ff" points="356.15,-8.67 346,-11.73 355.84,-15.67 356.15,-8.67"/>
</a>
</g>
</g>
<!-- Node16 -->
<g id="Node000016" class="node">
<title>Node16</title>
<g id="a_Node000016"><a xlink:title=" ">
<polygon fill="#e0e0e0" stroke="#999999" points="1805,-19 1749,-19 1749,0 1805,0 1805,-19"/>
<text text-anchor="middle" x="1777" y="-7" font-family="Helvetica,sans-Serif" font-size="10.00">stddef.h</text>
</a>
</g>
</g>
<!-- Node15&#45;&gt;Node16 -->
<g id="edge19_Node000015_Node000016" class="edge">
<title>Node15&#45;&gt;Node16</title>
<g id="a_edge19_Node000015_Node000016"><a xlink:title=" ">
<path fill="none" stroke="#63b8ff" d="M1565.49,-54.98C1613.22,-44.95 1691.94,-28.39 1738.7,-18.56"/>
<polygon fill="#63b8ff" stroke="#63b8ff" points="1739.67,-21.93 1748.73,-16.45 1738.23,-15.08 1739.67,-21.93"/>
</a>
</g>
</g>
<!-- Node17&#45;&gt;Node3 -->
<g id="edge25_Node000017_Node000003" class="edge">
<title>Node17&#45;&gt;Node3</title>
<g id="a_edge25_Node000017_Node000003"><a xlink:title=" ">
<path fill="none" stroke="#63b8ff" d="M2582.26,-115.37C2590.78,-106.47 2604.26,-92.39 2614.73,-81.45"/>
<polygon fill="#63b8ff" stroke="#63b8ff" points="2617.32,-83.81 2621.7,-74.17 2612.26,-78.97 2617.32,-83.81"/>
</a>
</g>
</g>
<!-- Node17&#45;&gt;Node4 -->
<g id="edge23_Node000017_Node000004" class="edge">
<title>Node17&#45;&gt;Node4</title>
<g id="a_edge23_Node000017_Node000004"><a xlink:title=" ">
<path fill="none" stroke="#63b8ff" d="M2592.9,-115.49C2614.66,-105.7 2650.62,-89.52 2675.71,-78.23"/>
<polygon fill="#63b8ff" stroke="#63b8ff" points="2677.39,-81.31 2685.07,-74.02 2674.52,-74.93 2677.39,-81.31"/>
</a>
</g>
</g>
<!-- Node17&#45;&gt;Node5 -->
<g id="edge27_Node000017_Node000005" class="edge">
<title>Node17&#45;&gt;Node5</title>
<g id="a_edge27_Node000017_Node000005"><a xlink:title=" ">
<path fill="none" stroke="#63b8ff" d="M2555.16,-115.43C2549.45,-113.23 2543.07,-111.16 2537,-110 2275.28,-60.13 423.9,-94.13 112.44,-73.91"/>
<polygon fill="#63b8ff" stroke="#63b8ff" points="112.24,-70.39 102.01,-73.17 111.74,-77.37 112.24,-70.39"/>
</a>
</g>
</g>
<!-- Node17&#45;&gt;Node15 -->
<g id="edge22_Node000017_Node000015" class="edge">
<title>Node17&#45;&gt;Node15</title>
<g id="a_edge22_Node000017_Node000015"><a xlink:title=" ">
<path fill="none" stroke="#63b8ff" d="M2554.76,-115.4C2549.14,-113.25 2542.92,-111.22 2537,-110 2444.19,-90.91 1790.49,-72.43 1585.99,-67.06"/>
<polygon fill="#63b8ff" stroke="#63b8ff" points="1585.83,-63.55 1575.74,-66.79 1585.65,-70.55 1585.83,-63.55"/>
</a>
</g>
</g>
<!-- Node17&#45;&gt;Node16 -->
<g id="edge21_Node000017_Node000016" class="edge">
<title>Node17&#45;&gt;Node16</title>
<g id="a_edge21_Node000017_Node000016"><a xlink:title=" ">
<path fill="none" stroke="#63b8ff" d="M2553.91,-115.44C2548.5,-113.39 2542.6,-111.4 2537,-110 2265.68,-41.89 1927.48,-18.54 1815.19,-12.37"/>
<polygon fill="#63b8ff" stroke="#63b8ff" points="1815.21,-8.87 1805.04,-11.83 1814.84,-15.86 1815.21,-8.87"/>
</a>
</g>
</g>
<!-- Node18 -->
<g id="Node000018" class="node">
<title>Node18</title>
<g id="a_Node000018"><a xlink:title=" ">
<polygon fill="#e0e0e0" stroke="#999999" points="2515.5,-74 2462.5,-74 2462.5,-55 2515.5,-55 2515.5,-74"/>
<text text-anchor="middle" x="2489" y="-62" font-family="Helvetica,sans-Serif" font-size="10.00">stdint.h</text>
</a>
</g>
</g>
<!-- Node17&#45;&gt;Node18 -->
<g id="edge24_Node000017_Node000018" class="edge">
<title>Node17&#45;&gt;Node18</title>
<g id="a_edge24_Node000017_Node000018"><a xlink:title=" ">
<path fill="none" stroke="#63b8ff" d="M2561.46,-115.37C2547.9,-106.04 2526.06,-91.01 2509.9,-79.88"/>
<polygon fill="#63b8ff" stroke="#63b8ff" points="2511.82,-76.95 2501.59,-74.17 2507.85,-82.72 2511.82,-76.95"/>
</a>
</g>
</g>
<!-- Node19 -->
<g id="Node000019" class="node">
<title>Node19</title>
<g id="a_Node000019"><a xlink:title=" ">
<polygon fill="#e0e0e0" stroke="#999999" points="2586.5,-74 2533.5,-74 2533.5,-55 2586.5,-55 2586.5,-74"/>
<text text-anchor="middle" x="2560" y="-62" font-family="Helvetica,sans-Serif" font-size="10.00">stdlib.h</text>
</a>
</g>
</g>
<!-- Node17&#45;&gt;Node19 -->
<g id="edge26_Node000017_Node000019" class="edge">
<title>Node17&#45;&gt;Node19</title>
<g id="a_edge26_Node000017_Node000019"><a xlink:title=" ">
<path fill="none" stroke="#63b8ff" d="M2571.93,-115.37C2569.97,-107.16 2566.95,-94.54 2564.44,-84.05"/>
<polygon fill="#63b8ff" stroke="#63b8ff" points="2567.81,-83.08 2562.07,-74.17 2561,-84.71 2567.81,-83.08"/>
</a>
</g>
</g>
<!-- Node41 -->
<g id="Node000041" class="node">
<title>Node41</title>
<g id="a_Node000041"><a xlink:href="astaroth__base_8h.html" target="_top" xlink:title=" ">
<polygon fill="#fff0f0" stroke="red" points="2862.5,-250 2767.5,-250 2767.5,-231 2862.5,-231 2862.5,-250"/>
<text text-anchor="middle" x="2815" y="-238" font-family="Helvetica,sans-Serif" font-size="10.00">astaroth_base.h</text>
</a>
</g>
</g>
<!-- Node40&#45;&gt;Node41 -->
<g id="edge48_Node000040_Node000041" class="edge">
<title>Node40&#45;&gt;Node41</title>
<g id="a_edge48_Node000040_Node000041"><a xlink:title=" ">
<path fill="none" stroke="#63b8ff" d="M2060.28,-293.54C2162.7,-290.37 2482.34,-278.79 2757.21,-250.1"/>
<polygon fill="#63b8ff" stroke="#63b8ff" points="2757.8,-253.55 2767.38,-249.03 2757.07,-246.59 2757.8,-253.55"/>
</a>
</g>
</g>
<!-- Node43 -->
<g id="Node000043" class="node">
<title>Node43</title>
<g id="a_Node000043"><a xlink:href="astaroth__grid_8h.html" target="_top" xlink:title=" ">
<polygon fill="white" stroke="#666666" points="1503,-250 1413,-250 1413,-231 1503,-231 1503,-250"/>
<text text-anchor="middle" x="1458" y="-238" font-family="Helvetica,sans-Serif" font-size="10.00">astaroth_grid.h</text>
</a>
</g>
</g>
<!-- Node40&#45;&gt;Node43 -->
<g id="edge52_Node000040_Node000043" class="edge">
<title>Node40&#45;&gt;Node43</title>
<g id="a_edge52_Node000040_Node000043"><a xlink:title=" ">
<path fill="none" stroke="#63b8ff" d="M1993.85,-292.4C1913.46,-287.15 1701.59,-272.33 1513.37,-249.95"/>
<polygon fill="#63b8ff" stroke="#63b8ff" points="1513.63,-246.46 1503.29,-248.74 1512.8,-253.41 1513.63,-246.46"/>
</a>
</g>
</g>
<!-- Node44 -->
<g id="Node000044" class="node">
<title>Node44</title>
<g id="a_Node000044"><a xlink:href="astaroth__node_8h.html" target="_top" xlink:title=" ">
<polygon fill="white" stroke="#666666" points="1616.5,-250 1521.5,-250 1521.5,-231 1616.5,-231 1616.5,-250"/>
<text text-anchor="middle" x="1569" y="-238" font-family="Helvetica,sans-Serif" font-size="10.00">astaroth_node.h</text>
</a>
</g>
</g>
<!-- Node40&#45;&gt;Node44 -->
<g id="edge53_Node000040_Node000044" class="edge">
<title>Node40&#45;&gt;Node44</title>
<g id="a_edge53_Node000040_Node000044"><a xlink:title=" ">
<path fill="none" stroke="#63b8ff" d="M1993.94,-291.26C1926.9,-284.58 1769.9,-268.5 1626.84,-250.06"/>
<polygon fill="#63b8ff" stroke="#63b8ff" points="1626.93,-246.54 1616.57,-248.73 1626.03,-253.49 1626.93,-246.54"/>
</a>
</g>
</g>
<!-- Node45 -->
<g id="Node000045" class="node">
<title>Node45</title>
<g id="a_Node000045"><a xlink:href="astaroth__device_8h.html" target="_top" xlink:title=" ">
<polygon fill="#fff0f0" stroke="red" points="1739,-250 1635,-250 1635,-231 1739,-231 1739,-250"/>
<text text-anchor="middle" x="1687" y="-238" font-family="Helvetica,sans-Serif" font-size="10.00">astaroth_device.h</text>
</a>
</g>
</g>
<!-- Node40&#45;&gt;Node45 -->
<g id="edge54_Node000040_Node000045" class="edge">
<title>Node40&#45;&gt;Node45</title>
<g id="a_edge54_Node000040_Node000045"><a xlink:title=" ">
<path fill="none" stroke="#63b8ff" d="M1993.78,-289.32C1937.24,-280.51 1821.45,-262.46 1749.41,-251.23"/>
<polygon fill="#63b8ff" stroke="#63b8ff" points="1749.53,-247.71 1739.11,-249.62 1748.46,-254.62 1749.53,-247.71"/>
</a>
</g>
</g>
<!-- Node48 -->
<g id="Node000048" class="node">
<title>Node48</title>
<g id="a_Node000048"><a xlink:href="astaroth__legacy_8h.html" target="_top" xlink:title=" ">
<polygon fill="white" stroke="#666666" points="1859,-250 1757,-250 1757,-231 1859,-231 1859,-250"/>
<text text-anchor="middle" x="1808" y="-238" font-family="Helvetica,sans-Serif" font-size="10.00">astaroth_legacy.h</text>
</a>
</g>
</g>
<!-- Node40&#45;&gt;Node48 -->
<g id="edge55_Node000040_Node000048" class="edge">
<title>Node40&#45;&gt;Node48</title>
<g id="a_edge55_Node000040_Node000048"><a xlink:title=" ">
<path fill="none" stroke="#63b8ff" d="M1993.74,-286.45C1956.26,-277.38 1895.14,-262.59 1853.32,-252.47"/>
<polygon fill="#63b8ff" stroke="#63b8ff" points="1853.94,-249.02 1843.39,-250.07 1852.29,-255.82 1853.94,-249.02"/>
</a>
</g>
</g>
<!-- Node49 -->
<g id="Node000049" class="node">
<title>Node49</title>
<g id="a_Node000049"><a xlink:title=" ">
<polygon fill="#e0e0e0" stroke="#999999" points="2016.5,-250 1877.5,-250 1877.5,-231 2016.5,-231 2016.5,-250"/>
<text text-anchor="middle" x="1947" y="-238" font-family="Helvetica,sans-Serif" font-size="10.00">device_set_input_decls.h</text>
</a>
</g>
</g>
<!-- Node40&#45;&gt;Node49 -->
<g id="edge56_Node000040_Node000049" class="edge">
<title>Node40&#45;&gt;Node49</title>
<g id="a_edge56_Node000040_Node000049"><a xlink:title=" ">
<path fill="none" stroke="#63b8ff" d="M2014.15,-285.98C2001.86,-277.84 1983.09,-265.41 1968.52,-255.76"/>
<polygon fill="#63b8ff" stroke="#63b8ff" points="1970.36,-252.78 1960.09,-250.17 1966.49,-258.61 1970.36,-252.78"/>
</a>
</g>
</g>
<!-- Node50 -->
<g id="Node000050" class="node">
<title>Node50</title>
<g id="a_Node000050"><a xlink:title=" ">
<polygon fill="#e0e0e0" stroke="#999999" points="2181,-250 2035,-250 2035,-231 2181,-231 2181,-250"/>
<text text-anchor="middle" x="2108" y="-238" font-family="Helvetica,sans-Serif" font-size="10.00">device_get_output_decls.h</text>
</a>
</g>
</g>
<!-- Node40&#45;&gt;Node50 -->
<g id="edge57_Node000040_Node000050" class="edge">
<title>Node40&#45;&gt;Node50</title>
<g id="a_edge57_Node000040_Node000050"><a xlink:title=" ">
<path fill="none" stroke="#63b8ff" d="M2040.01,-285.98C2052.46,-277.84 2071.46,-265.41 2086.21,-255.76"/>
<polygon fill="#63b8ff" stroke="#63b8ff" points="2088.3,-258.57 2094.75,-250.17 2084.46,-252.72 2088.3,-258.57"/>
</a>
</g>
</g>
<!-- Node51 -->
<g id="Node000051" class="node">
<title>Node51</title>
<g id="a_Node000051"><a xlink:title=" ">
<polygon fill="#e0e0e0" stroke="#999999" points="2339,-250 2199,-250 2199,-231 2339,-231 2339,-250"/>
<text text-anchor="middle" x="2269" y="-238" font-family="Helvetica,sans-Serif" font-size="10.00">device_get_input_decls.h</text>
</a>
</g>
</g>
<!-- Node40&#45;&gt;Node51 -->
<g id="edge58_Node000040_Node000051" class="edge">
<title>Node40&#45;&gt;Node51</title>
<g id="a_edge58_Node000040_Node000051"><a xlink:title=" ">
<path fill="none" stroke="#63b8ff" d="M2060.14,-287.24C2101.47,-278.19 2172.48,-262.64 2220.07,-252.22"/>
<polygon fill="#63b8ff" stroke="#63b8ff" points="2220.84,-255.63 2229.86,-250.07 2219.34,-248.79 2220.84,-255.63"/>
</a>
</g>
</g>
<!-- Node52 -->
<g id="Node000052" class="node">
<title>Node52</title>
<g id="a_Node000052"><a xlink:title=" ">
<polygon fill="#e0e0e0" stroke="#999999" points="2487,-250 2357,-250 2357,-231 2487,-231 2487,-250"/>
<text text-anchor="middle" x="2422" y="-238" font-family="Helvetica,sans-Serif" font-size="10.00">get_vtxbufs_declares.h</text>
</a>
</g>
</g>
<!-- Node40&#45;&gt;Node52 -->
<g id="edge59_Node000040_Node000052" class="edge">
<title>Node40&#45;&gt;Node52</title>
<g id="a_edge59_Node000040_Node000052"><a xlink:title=" ">
<path fill="none" stroke="#63b8ff" d="M2060.34,-290.03C2123.58,-281.54 2262.34,-262.92 2348.42,-251.37"/>
<polygon fill="#63b8ff" stroke="#63b8ff" points="2348.94,-254.83 2358.38,-250.04 2348.01,-247.9 2348.94,-254.83"/>
</a>
</g>
</g>
<!-- Node53 -->
<g id="Node000053" class="node">
<title>Node53</title>
<g id="a_Node000053"><a xlink:href="astaroth__runtime__compilation_8h.html" target="_top" xlink:title=" ">
<polygon fill="white" stroke="#666666" points="2678.5,-250 2505.5,-250 2505.5,-231 2678.5,-231 2678.5,-250"/>
<text text-anchor="middle" x="2592" y="-238" font-family="Helvetica,sans-Serif" font-size="10.00">astaroth_runtime_compilation.h</text>
</a>
</g>
</g>
<!-- Node40&#45;&gt;Node53 -->
<g id="edge60_Node000040_Node000053" class="edge">
<title>Node40&#45;&gt;Node53</title>
<g id="a_edge60_Node000040_Node000053"><a xlink:title=" ">
<path fill="none" stroke="#63b8ff" d="M2060.23,-291.38C2143.95,-283.53 2366.02,-262.7 2495.16,-250.58"/>
<polygon fill="#63b8ff" stroke="#63b8ff" points="2495.82,-254.04 2505.45,-249.62 2495.16,-247.07 2495.82,-254.04"/>
</a>
</g>
</g>
<!-- Node54 -->
<g id="Node000054" class="node">
<title>Node54</title>
<g id="a_Node000054"><a xlink:title=" ">
<polygon fill="#e0e0e0" stroke="#999999" points="2749.5,-250 2696.5,-250 2696.5,-231 2749.5,-231 2749.5,-250"/>
<text text-anchor="middle" x="2723" y="-238" font-family="Helvetica,sans-Serif" font-size="10.00">string.h</text>
</a>
</g>
</g>
<!-- Node40&#45;&gt;Node54 -->
<g id="edge61_Node000040_Node000054" class="edge">
<title>Node40&#45;&gt;Node54</title>
<g id="a_edge61_Node000040_Node000054"><a xlink:title=" ">
<path fill="none" stroke="#63b8ff" d="M2060.23,-294.27C2156.08,-293.17 2441.33,-286.92 2686.18,-250.02"/>
<polygon fill="#63b8ff" stroke="#63b8ff" points="2686.98,-253.44 2696.34,-248.47 2685.93,-246.52 2686.98,-253.44"/>
</a>
</g>
</g>
<!-- Node41&#45;&gt;Node2 -->
<g id="edge50_Node000041_Node000002" class="edge">
<title>Node41&#45;&gt;Node2</title>
<g id="a_edge50_Node000041_Node000002"><a xlink:title=" ">
<path fill="none" stroke="#63b8ff" d="M2767.39,-231.89C2764.55,-231.56 2761.74,-231.25 2759,-231 2285.66,-186.99 1710.05,-185.47 1534.4,-186.15"/>
<polygon fill="#63b8ff" stroke="#63b8ff" points="1534.13,-182.65 1524.14,-186.19 1534.16,-189.65 1534.13,-182.65"/>
</a>
</g>
</g>
<!-- Node41&#45;&gt;Node4 -->
<g id="edge49_Node000041_Node000004" class="edge">
<title>Node41&#45;&gt;Node4</title>
<g id="a_edge49_Node000041_Node000004"><a xlink:title=" ">
<path fill="none" stroke="#63b8ff" d="M2821.2,-231C2836.55,-208.83 2873.11,-148.34 2845,-110 2822.41,-79.18 2778.4,-69.15 2745.53,-66.16"/>
<polygon fill="#63b8ff" stroke="#63b8ff" points="2745.52,-62.65 2735.29,-65.42 2745.01,-69.64 2745.52,-62.65"/>
</a>
</g>
</g>
<!-- Node41&#45;&gt;Node23 -->
<g id="edge51_Node000041_Node000023" class="edge">
<title>Node41&#45;&gt;Node23</title>
<g id="a_edge51_Node000041_Node000023"><a xlink:title=" ">
<path fill="none" stroke="#63b8ff" d="M2811.32,-230.97C2803.37,-212.56 2784.47,-168.79 2773.76,-143.98"/>
<polygon fill="#63b8ff" stroke="#63b8ff" points="2776.9,-142.42 2769.73,-134.63 2770.48,-145.2 2776.9,-142.42"/>
</a>
</g>
</g>
</g>
</svg>

<g id="navigator" transform="translate(0 0)" fill="#404254">
  <rect fill="#f2f5e9" fill-opacity="0.5" stroke="#606060" stroke-width=".5" x="0" y="0" width="60" height="60"/>
  <use id="zoomplus" xlink:href="#zoomPlus" x="17" y="9" onmousedown="handleZoom(evt,'in')"/>
  <use id="zoomminus" xlink:href="#zoomMin" x="42" y="9" onmousedown="handleZoom(evt,'out')"/>
  <use id="reset" xlink:href="#resetDef" x="30" y="36" onmousedown="handleReset()"/>
   <use id="arrowup" xlink:href="#arrowUp" x="0" y="0" onmousedown="handlePan(0,-1)"/>
  <use id="arrowright" xlink:href="#arrowRight" x="0" y="0" onmousedown="handlePan(1,0)"/>
  <use id="arrowdown" xlink:href="#arrowDown" x="0" y="0" onmousedown="handlePan(0,1)"/>
  <use id="arrowleft" xlink:href="#arrowLeft" x="0" y="0" onmousedown="handlePan(-1,0)"/>
</g>
<svg viewBox="0 0 15 15" width="100%" height="30px" preserveAspectRatio="xMaxYMin meet">
 <g id="arrow_out" transform="scale(0.3 0.3)">
  <a xlink:href="device__detail_8h__incl_org.svg" target="_base">
   <rect id="button" ry="5" rx="5" y="6" x="6" height="38" width="38"
        fill="#f2f5e9" fill-opacity="0.5" stroke="#606060" stroke-width="1.0"/>
   <path id="arrow"
     d="M 11.500037,31.436501 C 11.940474,20.09759 22.043105,11.32322 32.158766,21.979434 L 37.068811,17.246167 C 37.068811,17.246167 37.088388,32 37.088388,32 L 22.160133,31.978069 C 22.160133,31.978069 26.997745,27.140456 26.997745,27.140456 C 18.528582,18.264221 13.291696,25.230495 11.500037,31.436501 z"
     style="fill:#404040;"/>
  </a>
 </g>
</svg>

<style type='text/css'>
<![CDATA[
[data-mouse-over-selected='false'] { opacity: 0.7; }
[data-mouse-over-selected='true']  { opacity: 1.0; }
]]>
</style>
<script type="application/ecmascript"><![CDATA[
document.addEventListener('DOMContentLoaded', (event) => {
  highlightEdges();
  highlightAdjacentNodes();
});
]]></script>
</svg>
