<?xml version="1.0" encoding="UTF-8" standalone="no"?>
<!DOCTYPE svg PUBLIC "-//W3C//DTD SVG 1.1//EN"
 "http://www.w3.org/Graphics/SVG/1.1/DTD/svg11.dtd">
<!-- Generated by graphviz version 2.43.0 (0)
 -->
<!-- Title: acc&#45;runtime/api/device_details.h Pages: 1 -->
<svg width="306pt" height="93pt"
 viewBox="0.00 0.00 305.50 93.00" xmlns="http://www.w3.org/2000/svg" xmlns:xlink="http://www.w3.org/1999/xlink">
<g id="graph0" class="graph" transform="scale(1 1) rotate(0) translate(4 89)">
<title>acc&#45;runtime/api/device_details.h</title>
<!-- Node1 -->
<g id="Node000001" class="node">
<title>Node1</title>
<g id="a_Node000001"><a xlink:title=" ">
<polygon fill="#999999" stroke="#666666" points="221.5,-85 93.5,-85 93.5,-55 221.5,-55 221.5,-85"/>
<text text-anchor="start" x="101.5" y="-73" font-family="Helvetica,sans-Serif" font-size="10.00">acc&#45;runtime/api/device</text>
<text text-anchor="middle" x="157.5" y="-62" font-family="Helvetica,sans-Serif" font-size="10.00">_details.h</text>
</a>
</g>
</g>
<!-- Node2 -->
<g id="Node000002" class="node">
<title>Node2</title>
<g id="a_Node000002"><a xlink:title=" ">
<polygon fill="#e0e0e0" stroke="#999999" points="157,-19 0,-19 0,0 157,0 157,-19"/>
<text text-anchor="middle" x="78.5" y="-7" font-family="Helvetica,sans-Serif" font-size="10.00">rocprim/rocprim_version.hpp</text>
</a>
</g>
</g>
<!-- Node1&#45;&gt;Node2 -->
<g id="edge1_Node000001_Node000002" class="edge">
<title>Node1&#45;&gt;Node2</title>
<g id="a_edge1_Node000001_Node000002"><a xlink:title=" ">
<path fill="none" stroke="#63b8ff" d="M138.38,-54.84C126.32,-45.91 110.79,-34.41 98.56,-25.35"/>
<polygon fill="#63b8ff" stroke="#63b8ff" points="100.46,-22.4 90.34,-19.27 96.29,-28.03 100.46,-22.4"/>
</a>
</g>
</g>
<!-- Node3 -->
<g id="Node000003" class="node">
<title>Node3</title>
<g id="a_Node000003"><a xlink:title=" ">
<polygon fill="#e0e0e0" stroke="#999999" points="297.5,-19 175.5,-19 175.5,0 297.5,0 297.5,-19"/>
<text text-anchor="middle" x="236.5" y="-7" font-family="Helvetica,sans-Serif" font-size="10.00">cooperative_groups.h</text>
</a>
</g>
</g>
<!-- Node1&#45;&gt;Node3 -->
<g id="edge2_Node000001_Node000003" class="edge">
<title>Node1&#45;&gt;Node3</title>
<g id="a_edge2_Node000001_Node000003"><a xlink:title=" ">
<path fill="none" stroke="#63b8ff" d="M176.62,-54.84C188.68,-45.91 204.21,-34.41 216.44,-25.35"/>
<polygon fill="#63b8ff" stroke="#63b8ff" points="218.71,-28.03 224.66,-19.27 214.54,-22.4 218.71,-28.03"/>
</a>
</g>
</g>
</g>
</svg>
