<?xml version="1.0" encoding="UTF-8" standalone="no"?>
<!DOCTYPE svg PUBLIC "-//W3C//DTD SVG 1.1//EN"
 "http://www.w3.org/Graphics/SVG/1.1/DTD/svg11.dtd">
<!-- Generated by graphviz version 2.43.0 (0)
 -->
<!-- Title: test/multigrid&#45;tests Pages: 1 -->
<svg width="990pt" height="125pt"
 viewBox="0.00 0.00 990.00 125.00" xmlns="http://www.w3.org/2000/svg" xmlns:xlink="http://www.w3.org/1999/xlink">
<g id="graph0" class="graph" transform="scale(1 1) rotate(0) translate(4 121)">
<title>test/multigrid&#45;tests</title>
<g id="clust1" class="cluster">
<title>clusterdir_13e138d54eb8818da29c3992edef070a</title>
<g id="a_clust1"><a xlink:href="dir_13e138d54eb8818da29c3992edef070a.html" target="_top" xlink:title="test">
<polygon fill="#edf0f7" stroke="#404040" stroke-dasharray="5,2" points="8,-39 8,-109 974,-109 974,-39 8,-39"/>
<text text-anchor="middle" x="491" y="-97" font-family="Helvetica,sans-Serif" font-size="10.00">test</text>
</a>
</g>
</g>
<g id="clust2" class="cluster">
<title>clusterdir_feb66a904c95b0525e2b760f133c1390</title>
<g id="a_clust2"><a xlink:href="dir_feb66a904c95b0525e2b760f133c1390.html" target="_top">
<polygon fill="#edf0f7" stroke="#404040" stroke-width="2" points="16,-47 16,-82 966,-82 966,-47 16,-47"/>
</a>
</g>
</g>
<!-- dir_feb66a904c95b0525e2b760f133c1390 -->
<g id="node1" class="node">
<title>dir_feb66a904c95b0525e2b760f133c1390</title>
<text text-anchor="middle" x="914" y="-62" font-family="Helvetica,sans-Serif" font-size="10.00">multigrid&#45;tests</text>
</g>
<!-- dir_e7f348ebe77e69fbdaa4e39d270782cb -->
<g id="node2" class="node">
<title>dir_e7f348ebe77e69fbdaa4e39d270782cb</title>
<g id="a_node2"><a xlink:href="dir_e7f348ebe77e69fbdaa4e39d270782cb.html" target="_top" xlink:title="anisotropic&#45;test">
<polygon fill="#a2b4d6" stroke="#404040" points="574.5,-74 481.5,-74 481.5,-55 574.5,-55 574.5,-74"/>
<text text-anchor="middle" x="528" y="-62" font-family="Helvetica,sans-Serif" font-size="10.00">anisotropic&#45;test</text>
</a>
</g>
</g>
<!-- dir_2dc8787002676dc565357b7cfa0121df -->
<g id="node8" class="node">
<title>dir_2dc8787002676dc565357b7cfa0121df</title>
<g id="a_node8"><a xlink:href="dir_2dc8787002676dc565357b7cfa0121df.html" target="_top" xlink:title="acc&#45;runtime">
<polygon fill="#edf0f7" stroke="red" points="450.5,-19 375.5,-19 375.5,0 450.5,0 450.5,-19"/>
<text text-anchor="middle" x="413" y="-7" font-family="Helvetica,sans-Serif" font-size="10.00">acc&#45;runtime</text>
</a>
</g>
</g>
<!-- dir_e7f348ebe77e69fbdaa4e39d270782cb&#45;&gt;dir_2dc8787002676dc565357b7cfa0121df -->
<g id="edge1" class="edge">
<title>dir_e7f348ebe77e69fbdaa4e39d270782cb&#45;&gt;dir_2dc8787002676dc565357b7cfa0121df</title>
<g id="a_edge1"><a xlink:href="dir_000005_000004.html" target="_top">
<path fill="none" stroke="#63b8ff" d="M509.52,-54.98C491.02,-46.46 462.32,-33.23 441.02,-23.41"/>
<polygon fill="#63b8ff" stroke="#63b8ff" points="442.36,-20.18 431.81,-19.17 439.43,-26.53 442.36,-20.18"/>
</a>
</g>
<g id="a_edge1&#45;headlabel"><a xlink:href="dir_000005_000004.html" target="_top" xlink:title="2">
<text text-anchor="middle" x="446.81" y="-16.6" font-family="Helvetica,sans-Serif" font-size="10.00" fill="#63b8ff">2</text>
</a>
</g>
</g>
<!-- dir_d44c64559bbebec7f509842c48db8b23 -->
<g id="node9" class="node">
<title>dir_d44c64559bbebec7f509842c48db8b23</title>
<g id="a_node9"><a xlink:href="dir_d44c64559bbebec7f509842c48db8b23.html" target="_top" xlink:title="include">
<polygon fill="#edf0f7" stroke="#404040" points="537,-19 485,-19 485,0 537,0 537,-19"/>
<text text-anchor="middle" x="511" y="-7" font-family="Helvetica,sans-Serif" font-size="10.00">include</text>
</a>
</g>
</g>
<!-- dir_e7f348ebe77e69fbdaa4e39d270782cb&#45;&gt;dir_d44c64559bbebec7f509842c48db8b23 -->
<g id="edge2" class="edge">
<title>dir_e7f348ebe77e69fbdaa4e39d270782cb&#45;&gt;dir_d44c64559bbebec7f509842c48db8b23</title>
<g id="a_edge2"><a xlink:href="dir_000005_000035.html" target="_top">
<path fill="none" stroke="#63b8ff" d="M525.19,-54.75C522.94,-47.72 519.7,-37.62 516.88,-28.84"/>
<polygon fill="#63b8ff" stroke="#63b8ff" points="520.14,-27.54 513.75,-19.09 513.48,-29.68 520.14,-27.54"/>
</a>
</g>
<g id="a_edge2&#45;headlabel"><a xlink:href="dir_000005_000035.html" target="_top" xlink:title="2">
<text text-anchor="middle" x="523.94" y="-27.6" font-family="Helvetica,sans-Serif" font-size="10.00" fill="#63b8ff">2</text>
</a>
</g>
</g>
<!-- dir_94ffd519f25ad377fc0dbe9934d1b37c -->
<g id="node3" class="node">
<title>dir_94ffd519f25ad377fc0dbe9934d1b37c</title>
<g id="a_node3"><a xlink:href="dir_94ffd519f25ad377fc0dbe9934d1b37c.html" target="_top" xlink:title="compact&#45;stencil&#45;multigrid&#45;test">
<polygon fill="#a2b4d6" stroke="#404040" points="463.5,-74 298.5,-74 298.5,-55 463.5,-55 463.5,-74"/>
<text text-anchor="middle" x="381" y="-62" font-family="Helvetica,sans-Serif" font-size="10.00">compact&#45;stencil&#45;multigrid&#45;test</text>
</a>
</g>
</g>
<!-- dir_94ffd519f25ad377fc0dbe9934d1b37c&#45;&gt;dir_2dc8787002676dc565357b7cfa0121df -->
<g id="edge3" class="edge">
<title>dir_94ffd519f25ad377fc0dbe9934d1b37c&#45;&gt;dir_2dc8787002676dc565357b7cfa0121df</title>
<g id="a_edge3"><a xlink:href="dir_000017_000004.html" target="_top">
<path fill="none" stroke="#63b8ff" d="M386.28,-54.75C390.71,-47.42 397.16,-36.73 402.62,-27.7"/>
<polygon fill="#63b8ff" stroke="#63b8ff" points="405.64,-29.46 407.81,-19.09 399.65,-25.84 405.64,-29.46"/>
</a>
</g>
<g id="a_edge3&#45;headlabel"><a xlink:href="dir_000017_000004.html" target="_top" xlink:title="2">
<text text-anchor="middle" x="406.21" y="-31.5" font-family="Helvetica,sans-Serif" font-size="10.00" fill="#63b8ff">2</text>
</a>
</g>
</g>
<!-- dir_94ffd519f25ad377fc0dbe9934d1b37c&#45;&gt;dir_d44c64559bbebec7f509842c48db8b23 -->
<g id="edge4" class="edge">
<title>dir_94ffd519f25ad377fc0dbe9934d1b37c&#45;&gt;dir_d44c64559bbebec7f509842c48db8b23</title>
<g id="a_edge4"><a xlink:href="dir_000017_000035.html" target="_top">
<path fill="none" stroke="#63b8ff" d="M401.89,-54.98C423.08,-46.34 456.13,-32.87 480.3,-23.02"/>
<polygon fill="#63b8ff" stroke="#63b8ff" points="481.79,-26.19 489.73,-19.17 479.15,-19.7 481.79,-26.19"/>
</a>
</g>
<g id="a_edge4&#45;headlabel"><a xlink:href="dir_000017_000035.html" target="_top" xlink:title="2">
<text text-anchor="middle" x="479.54" y="-27.67" font-family="Helvetica,sans-Serif" font-size="10.00" fill="#63b8ff">2</text>
</a>
</g>
</g>
<!-- dir_018932a62f952d37211eff8b92193bcb -->
<g id="node4" class="node">
<title>dir_018932a62f952d37211eff8b92193bcb</title>
<g id="a_node4"><a xlink:href="dir_018932a62f952d37211eff8b92193bcb.html" target="_top" xlink:title="line&#45;smoother&#45;multigrid&#45;test">
<polygon fill="#a2b4d6" stroke="#404040" points="280.5,-74 125.5,-74 125.5,-55 280.5,-55 280.5,-74"/>
<text text-anchor="middle" x="203" y="-62" font-family="Helvetica,sans-Serif" font-size="10.00">line&#45;smoother&#45;multigrid&#45;test</text>
</a>
</g>
</g>
<!-- dir_018932a62f952d37211eff8b92193bcb&#45;&gt;dir_2dc8787002676dc565357b7cfa0121df -->
<g id="edge5" class="edge">
<title>dir_018932a62f952d37211eff8b92193bcb&#45;&gt;dir_2dc8787002676dc565357b7cfa0121df</title>
<g id="a_edge5"><a xlink:href="dir_000041_000004.html" target="_top">
<path fill="none" stroke="#63b8ff" d="M231.91,-54.99C248.79,-50.12 270.54,-43.99 290,-39 314.88,-32.62 342.75,-26.11 365.66,-20.93"/>
<polygon fill="#63b8ff" stroke="#63b8ff" points="366.49,-24.33 375.48,-18.72 364.95,-17.5 366.49,-24.33"/>
</a>
</g>
<g id="a_edge5&#45;headlabel"><a xlink:href="dir_000041_000004.html" target="_top" xlink:title="2">
<text text-anchor="middle" x="363.61" y="-25.38" font-family="Helvetica,sans-Serif" font-size="10.00" fill="#63b8ff">2</text>
</a>
</g>
</g>
<!-- dir_018932a62f952d37211eff8b92193bcb&#45;&gt;dir_d44c64559bbebec7f509842c48db8b23 -->
<g id="edge6" class="edge">
<title>dir_018932a62f952d37211eff8b92193bcb&#45;&gt;dir_d44c64559bbebec7f509842c48db8b23</title>
<g id="a_edge6"><a xlink:href="dir_000041_000035.html" target="_top">
<path fill="none" stroke="#63b8ff" d="M229.39,-54.9C246.5,-49.61 269.37,-43.09 290,-39 364.62,-24.2 384.68,-29.7 460,-19 464.8,-18.32 469.85,-17.54 474.82,-16.75"/>
<polygon fill="#63b8ff" stroke="#63b8ff" points="475.53,-20.18 484.83,-15.11 474.4,-13.27 475.53,-20.18"/>
</a>
</g>
<g id="a_edge6&#45;headlabel"><a xlink:href="dir_000041_000035.html" target="_top" xlink:title="2">
<text text-anchor="middle" x="472.44" y="-21.06" font-family="Helvetica,sans-Serif" font-size="10.00" fill="#63b8ff">2</text>
</a>
</g>
</g>
<!-- dir_849c5565baf6ce7432bb98c3b7629fed -->
<g id="node5" class="node">
<title>dir_849c5565baf6ce7432bb98c3b7629fed</title>
<g id="a_node5"><a xlink:href="dir_849c5565baf6ce7432bb98c3b7629fed.html" target="_top" xlink:title="multigrid&#45;test">
<polygon fill="#a2b4d6" stroke="#404040" points="107.5,-74 24.5,-74 24.5,-55 107.5,-55 107.5,-74"/>
<text text-anchor="middle" x="66" y="-62" font-family="Helvetica,sans-Serif" font-size="10.00">multigrid&#45;test</text>
</a>
</g>
</g>
<!-- dir_849c5565baf6ce7432bb98c3b7629fed&#45;&gt;dir_2dc8787002676dc565357b7cfa0121df -->
<g id="edge7" class="edge">
<title>dir_849c5565baf6ce7432bb98c3b7629fed&#45;&gt;dir_2dc8787002676dc565357b7cfa0121df</title>
<g id="a_edge7"><a xlink:href="dir_000048_000004.html" target="_top">
<path fill="none" stroke="#63b8ff" d="M79.89,-55C89.64,-49.47 103.16,-42.63 116,-39 201.34,-14.86 305.38,-10.26 364.93,-9.86"/>
<polygon fill="#63b8ff" stroke="#63b8ff" points="365.18,-13.36 375.17,-9.84 365.16,-6.36 365.18,-13.36"/>
</a>
</g>
<g id="a_edge7&#45;headlabel"><a xlink:href="dir_000048_000004.html" target="_top" xlink:title="2">
<text text-anchor="middle" x="361.59" y="-13.71" font-family="Helvetica,sans-Serif" font-size="10.00" fill="#63b8ff">2</text>
</a>
</g>
</g>
<!-- dir_849c5565baf6ce7432bb98c3b7629fed&#45;&gt;dir_d44c64559bbebec7f509842c48db8b23 -->
<g id="edge8" class="edge">
<title>dir_849c5565baf6ce7432bb98c3b7629fed&#45;&gt;dir_d44c64559bbebec7f509842c48db8b23</title>
<g id="a_edge8"><a xlink:href="dir_000048_000035.html" target="_top">
<path fill="none" stroke="#63b8ff" d="M79.85,-54.84C89.58,-49.24 103.1,-42.39 116,-39 264.12,-0.1 307.81,-36.06 460,-19 464.82,-18.46 469.88,-17.77 474.86,-17.02"/>
<polygon fill="#63b8ff" stroke="#63b8ff" points="475.55,-20.45 484.87,-15.41 474.44,-13.54 475.55,-20.45"/>
</a>
</g>
<g id="a_edge8&#45;headlabel"><a xlink:href="dir_000048_000035.html" target="_top" xlink:title="2">
<text text-anchor="middle" x="472.45" y="-21.32" font-family="Helvetica,sans-Serif" font-size="10.00" fill="#63b8ff">2</text>
</a>
</g>
</g>
<!-- dir_d9acce0c466e50450841ce000a12dbb3 -->
<g id="node6" class="node">
<title>dir_d9acce0c466e50450841ce000a12dbb3</title>
<g id="a_node6"><a xlink:href="dir_d9acce0c466e50450841ce000a12dbb3.html" target="_top" xlink:title="non&#45;equidistant&#45;test">
<polygon fill="#a2b4d6" stroke="#404040" points="851,-74 735,-74 735,-55 851,-55 851,-74"/>
<text text-anchor="middle" x="793" y="-62" font-family="Helvetica,sans-Serif" font-size="10.00">non&#45;equidistant&#45;test</text>
</a>
</g>
</g>
<!-- dir_d9acce0c466e50450841ce000a12dbb3&#45;&gt;dir_2dc8787002676dc565357b7cfa0121df -->
<g id="edge9" class="edge">
<title>dir_d9acce0c466e50450841ce000a12dbb3&#45;&gt;dir_2dc8787002676dc565357b7cfa0121df</title>
<g id="a_edge9"><a xlink:href="dir_000050_000004.html" target="_top">
<path fill="none" stroke="#63b8ff" d="M773.77,-54.89C760.6,-49.39 742.58,-42.62 726,-39 617.1,-15.2 586.83,-30.9 476,-19 470.98,-18.46 465.75,-17.84 460.54,-17.19"/>
<polygon fill="#63b8ff" stroke="#63b8ff" points="460.97,-13.72 450.6,-15.91 460.07,-20.66 460.97,-13.72"/>
</a>
</g>
<g id="a_edge9&#45;headlabel"><a xlink:href="dir_000050_000004.html" target="_top" xlink:title="2">
<text text-anchor="middle" x="464.9" y="-8.86" font-family="Helvetica,sans-Serif" font-size="10.00" fill="#63b8ff">2</text>
</a>
</g>
</g>
<!-- dir_d9acce0c466e50450841ce000a12dbb3&#45;&gt;dir_d44c64559bbebec7f509842c48db8b23 -->
<g id="edge10" class="edge">
<title>dir_d9acce0c466e50450841ce000a12dbb3&#45;&gt;dir_d44c64559bbebec7f509842c48db8b23</title>
<g id="a_edge10"><a xlink:href="dir_000050_000035.html" target="_top">
<path fill="none" stroke="#63b8ff" d="M773.13,-54.93C759.98,-49.59 742.24,-42.99 726,-39 664.19,-23.8 590.25,-16.24 547.16,-12.87"/>
<polygon fill="#63b8ff" stroke="#63b8ff" points="547.39,-9.38 537.15,-12.12 546.86,-16.36 547.39,-9.38"/>
</a>
</g>
<g id="a_edge10&#45;headlabel"><a xlink:href="dir_000050_000035.html" target="_top" xlink:title="2">
<text text-anchor="middle" x="551.19" y="-4.31" font-family="Helvetica,sans-Serif" font-size="10.00" fill="#63b8ff">2</text>
</a>
</g>
</g>
<!-- dir_709ecb211430ae2fbdb0746edcb5ddf4 -->
<g id="node7" class="node">
<title>dir_709ecb211430ae2fbdb0746edcb5ddf4</title>
<g id="a_node7"><a xlink:href="dir_709ecb211430ae2fbdb0746edcb5ddf4.html" target="_top" xlink:title="parallel&#45;multigrid&#45;test">
<polygon fill="#a2b4d6" stroke="#404040" points="717,-74 593,-74 593,-55 717,-55 717,-74"/>
<text text-anchor="middle" x="655" y="-62" font-family="Helvetica,sans-Serif" font-size="10.00">parallel&#45;multigrid&#45;test</text>
</a>
</g>
</g>
<!-- dir_709ecb211430ae2fbdb0746edcb5ddf4&#45;&gt;dir_2dc8787002676dc565357b7cfa0121df -->
<g id="edge11" class="edge">
<title>dir_709ecb211430ae2fbdb0746edcb5ddf4&#45;&gt;dir_2dc8787002676dc565357b7cfa0121df</title>
<g id="a_edge11"><a xlink:href="dir_000051_000004.html" target="_top">
<path fill="none" stroke="#63b8ff" d="M633.22,-54.92C619.32,-49.72 600.81,-43.27 584,-39 561.3,-33.23 502.98,-23.94 460.75,-17.54"/>
<polygon fill="#63b8ff" stroke="#63b8ff" points="461.07,-14.05 450.66,-16.02 460.03,-20.98 461.07,-14.05"/>
</a>
</g>
<g id="a_edge11&#45;headlabel"><a xlink:href="dir_000051_000004.html" target="_top" xlink:title="2">
<text text-anchor="middle" x="465.05" y="-9.28" font-family="Helvetica,sans-Serif" font-size="10.00" fill="#63b8ff">2</text>
</a>
</g>
</g>
<!-- dir_709ecb211430ae2fbdb0746edcb5ddf4&#45;&gt;dir_d44c64559bbebec7f509842c48db8b23 -->
<g id="edge12" class="edge">
<title>dir_709ecb211430ae2fbdb0746edcb5ddf4&#45;&gt;dir_d44c64559bbebec7f509842c48db8b23</title>
<g id="a_edge12"><a xlink:href="dir_000051_000035.html" target="_top">
<path fill="none" stroke="#63b8ff" d="M631.86,-54.98C608.18,-46.27 571.13,-32.63 544.29,-22.75"/>
<polygon fill="#63b8ff" stroke="#63b8ff" points="545.15,-19.34 534.56,-19.17 542.73,-25.91 545.15,-19.34"/>
</a>
</g>
<g id="a_edge12&#45;headlabel"><a xlink:href="dir_000051_000035.html" target="_top" xlink:title="2">
<text text-anchor="middle" x="549.5" y="-15.42" font-family="Helvetica,sans-Serif" font-size="10.00" fill="#63b8ff">2</text>
</a>
</g>
</g>
</g>
</svg>
