<?xml version="1.0" encoding="UTF-8" standalone="no"?>
<!DOCTYPE svg PUBLIC "-//W3C//DTD SVG 1.1//EN"
 "http://www.w3.org/Graphics/SVG/1.1/DTD/svg11.dtd">
<!-- Generated by graphviz version 2.43.0 (0)
 -->
<!-- Title: config/samples Pages: 1 -->
<!--zoomable 105 -->

<svg id="main" version="1.1" xmlns="http://www.w3.org/2000/svg" xmlns:xlink="http://www.w3.org/1999/xlink" xml:space="preserve" onload="init(evt)">
<style type="text/css"><![CDATA[
.node, .edge {opacity: 0.7;}
.node.selected, .edge.selected {opacity: 1;}
.edge:hover path { stroke: red; }
.edge:hover polygon { stroke: red; fill: red; }
]]></style>

<defs>
  <circle id="rim" cx="0" cy="0" r="7"/>
  <circle id="rim2" cx="0" cy="0" r="3.5"/>
  <g id="zoomPlus">
    <use xlink:href="#rim" fill="#404040"><set attributeName="fill" to="#808080" begin="zoomplus.mouseover" end="zoomplus.mouseout"/></use>
    <path d="M-4,0h8M0,-4v8" fill="none" stroke="white" stroke-width="1.5" pointer-events="none"/>
  </g>
  <g id="zoomMin">
    <use xlink:href="#rim" fill="#404040"><set attributeName="fill" to="#808080" begin="zoomminus.mouseover" end="zoomminus.mouseout"/></use>
    <path d="M-4,0h8" fill="none" stroke="white" stroke-width="1.5" pointer-events="none"/>
  </g>
  <g id="arrowUp" transform="translate(30 24)">
    <use xlink:href="#rim"/>
    <path pointer-events="none" fill="none" stroke="white" stroke-width="1.5" d="M0,-3.0v7 M-2.5,-0.5L0,-3.0L2.5,-0.5"/>
  </g>
  <g id="arrowRight" transform="rotate(90) translate(36 -43)">
    <use xlink:href="#rim"/>
    <path pointer-events="none" fill="none" stroke="white" stroke-width="1.5" d="M0,-3.0v7 M-2.5,-0.5L0,-3.0L2.5,-0.5"/>
  </g>
  <g id="arrowDown" transform="rotate(180) translate(-30 -48)">
    <use xlink:href="#rim"/>
    <path pointer-events="none" fill="none" stroke="white" stroke-width="1.5" d="M0,-3.0v7 M-2.5,-0.5L0,-3.0L2.5,-0.5"/>
  </g>
  <g id="arrowLeft" transform="rotate(270) translate(-36 17)">
    <use xlink:href="#rim"/>
    <path pointer-events="none" fill="none" stroke="white" stroke-width="1.5" d="M0,-3.0v7 M-2.5,-0.5L0,-3.0L2.5,-0.5"/>
  </g>
  <g id="resetDef">
    <use xlink:href="#rim2" fill="#404040"><set attributeName="fill" to="#808080" begin="reset.mouseover" end="reset.mouseout"/></use>
  </g>
</defs>
<script type="application/ecmascript">
var viewWidth = 785;
var viewHeight = 105;
var sectionId = 'dynsection-0';
</script>
<script type="application/ecmascript" xlink:href="svg.min.js"/>
<svg id="graph" class="graph">
<g id="viewport">
<title>config/samples</title>
<g id="clust1" class="cluster">
<title>clusterdir_9f351d46ce3cc29445a41dc3a31e6919</title>
<g id="a_clust1"><a xlink:href="dir_9f351d46ce3cc29445a41dc3a31e6919.html" target="_top" xlink:title="config">
<polygon fill="#edf0f7" stroke="#404040" stroke-dasharray="5,2" points="8,-8 8,-89 769,-89 769,-8 8,-8"/>
<text text-anchor="middle" x="388.5" y="-77" font-family="Helvetica,sans-Serif" font-size="10.00">config</text>
</a>
</g>
</g>
<g id="clust2" class="cluster">
<title>clusterdir_cbef3dd30ea35b42936fa38be9fb8640</title>
<g id="a_clust2"><a xlink:href="dir_cbef3dd30ea35b42936fa38be9fb8640.html" target="_top">
<polygon fill="#edf0f7" stroke="#404040" stroke-width="2" points="16,-16 16,-62 761,-62 761,-16 16,-16"/>
</a>
</g>
</g>
<!-- dir_cbef3dd30ea35b42936fa38be9fb8640 -->
<g id="node1" class="node">
<title>dir_cbef3dd30ea35b42936fa38be9fb8640</title>
<text text-anchor="middle" x="724" y="-36.5" font-family="Helvetica,sans-Serif" font-size="10.00">samples</text>
</g>
<!-- dir_fccb457abdd3c5a506d818110d7acd23 -->
<g id="node2" class="node">
<title>dir_fccb457abdd3c5a506d818110d7acd23</title>
<g id="a_node2"><a xlink:href="dir_fccb457abdd3c5a506d818110d7acd23.html" target="_top" xlink:title="boundtest">
<polygon fill="#a2b4d6" stroke="#404040" points="676.5,-48.5 611.5,-48.5 611.5,-29.5 676.5,-29.5 676.5,-48.5"/>
<text text-anchor="middle" x="644" y="-36.5" font-family="Helvetica,sans-Serif" font-size="10.00">boundtest</text>
</a>
</g>
</g>
<!-- dir_f80c7322c429cf5141a07ed3238c5fc3 -->
<g id="node3" class="node">
<title>dir_f80c7322c429cf5141a07ed3238c5fc3</title>
<g id="a_node3"><a xlink:href="dir_f80c7322c429cf5141a07ed3238c5fc3.html" target="_top" xlink:title="haatouken">
<polygon fill="#a2b4d6" stroke="#404040" points="593,-48.5 525,-48.5 525,-29.5 593,-29.5 593,-48.5"/>
<text text-anchor="middle" x="559" y="-36.5" font-family="Helvetica,sans-Serif" font-size="10.00">haatouken</text>
</a>
</g>
</g>
<!-- dir_e43ace3d5746d316eb1da6d914ad77b5 -->
<g id="node4" class="node">
<title>dir_e43ace3d5746d316eb1da6d914ad77b5</title>
<g id="a_node4"><a xlink:href="dir_e43ace3d5746d316eb1da6d914ad77b5.html" target="_top" xlink:title="shockturb">
<polygon fill="#a2b4d6" stroke="#404040" points="506.5,-48.5 441.5,-48.5 441.5,-29.5 506.5,-29.5 506.5,-48.5"/>
<text text-anchor="middle" x="474" y="-36.5" font-family="Helvetica,sans-Serif" font-size="10.00">shockturb</text>
</a>
</g>
</g>
<!-- dir_525a6b62f687cc91b8fe627efca90d59 -->
<g id="node5" class="node">
<title>dir_525a6b62f687cc91b8fe627efca90d59</title>
<g id="a_node5"><a xlink:href="dir_525a6b62f687cc91b8fe627efca90d59.html" target="_top" xlink:title="subsonic_forced_nonhelical\l_turbulence">
<polygon fill="#a2b4d6" stroke="#404040" points="423.5,-54 272.5,-54 272.5,-24 423.5,-24 423.5,-54"/>
<text text-anchor="start" x="280.5" y="-42" font-family="Helvetica,sans-Serif" font-size="10.00">subsonic_forced_nonhelical</text>
<text text-anchor="middle" x="348" y="-31" font-family="Helvetica,sans-Serif" font-size="10.00">_turbulence</text>
</a>
</g>
</g>
<!-- dir_8aa1f03ef9d09c61ca29b35fb2d4e974 -->
<g id="node6" class="node">
<title>dir_8aa1f03ef9d09c61ca29b35fb2d4e974</title>
<g id="a_node6"><a xlink:href="dir_8aa1f03ef9d09c61ca29b35fb2d4e974.html" target="_top" xlink:title="subsonic_forced_turbulence">
<polygon fill="#a2b4d6" stroke="#404040" points="254,-48.5 102,-48.5 102,-29.5 254,-29.5 254,-48.5"/>
<text text-anchor="middle" x="178" y="-36.5" font-family="Helvetica,sans-Serif" font-size="10.00">subsonic_forced_turbulence</text>
</a>
</g>
</g>
<!-- dir_a054b6d30fbe83ef2804ece7fbcdf043 -->
<g id="node7" class="node">
<title>dir_a054b6d30fbe83ef2804ece7fbcdf043</title>
<g id="a_node7"><a xlink:href="dir_a054b6d30fbe83ef2804ece7fbcdf043.html" target="_top" xlink:title="tubeflow">
<polygon fill="#a2b4d6" stroke="#404040" points="83.5,-48.5 24.5,-48.5 24.5,-29.5 83.5,-29.5 83.5,-48.5"/>
<text text-anchor="middle" x="54" y="-36.5" font-family="Helvetica,sans-Serif" font-size="10.00">tubeflow</text>
</a>
</g>
</g>
</g>
</svg>

<g id="navigator" transform="translate(0 0)" fill="#404254">
  <rect fill="#f2f5e9" fill-opacity="0.5" stroke="#606060" stroke-width=".5" x="0" y="0" width="60" height="60"/>
  <use id="zoomplus" xlink:href="#zoomPlus" x="17" y="9" onmousedown="handleZoom(evt,'in')"/>
  <use id="zoomminus" xlink:href="#zoomMin" x="42" y="9" onmousedown="handleZoom(evt,'out')"/>
  <use id="reset" xlink:href="#resetDef" x="30" y="36" onmousedown="handleReset()"/>
   <use id="arrowup" xlink:href="#arrowUp" x="0" y="0" onmousedown="handlePan(0,-1)"/>
  <use id="arrowright" xlink:href="#arrowRight" x="0" y="0" onmousedown="handlePan(1,0)"/>
  <use id="arrowdown" xlink:href="#arrowDown" x="0" y="0" onmousedown="handlePan(0,1)"/>
  <use id="arrowleft" xlink:href="#arrowLeft" x="0" y="0" onmousedown="handlePan(-1,0)"/>
</g>
<svg viewBox="0 0 15 15" width="100%" height="30px" preserveAspectRatio="xMaxYMin meet">
 <g id="arrow_out" transform="scale(0.3 0.3)">
  <a xlink:href="dir_cbef3dd30ea35b42936fa38be9fb8640_dep_org.svg" target="_base">
   <rect id="button" ry="5" rx="5" y="6" x="6" height="38" width="38"
        fill="#f2f5e9" fill-opacity="0.5" stroke="#606060" stroke-width="1.0"/>
   <path id="arrow"
     d="M 11.500037,31.436501 C 11.940474,20.09759 22.043105,11.32322 32.158766,21.979434 L 37.068811,17.246167 C 37.068811,17.246167 37.088388,32 37.088388,32 L 22.160133,31.978069 C 22.160133,31.978069 26.997745,27.140456 26.997745,27.140456 C 18.528582,18.264221 13.291696,25.230495 11.500037,31.436501 z"
     style="fill:#404040;"/>
  </a>
 </g>
</svg>

<style type='text/css'>
<![CDATA[
[data-mouse-over-selected='false'] { opacity: 0.7; }
[data-mouse-over-selected='true']  { opacity: 1.0; }
]]>
</style>
<script type="application/ecmascript"><![CDATA[
document.addEventListener('DOMContentLoaded', (event) => {
  highlightEdges();
  highlightAdjacentNodes();
});
]]></script>
</svg>
