<?xml version="1.0" encoding="UTF-8" standalone="no"?>
<!DOCTYPE svg PUBLIC "-//W3C//DTD SVG 1.1//EN"
 "http://www.w3.org/Graphics/SVG/1.1/DTD/svg11.dtd">
<!-- Generated by graphviz version 2.43.0 (0)
 -->
<!-- Title: src/core Pages: 1 -->
<svg width="416pt" height="180pt"
 viewBox="0.00 0.00 416.32 180.00" xmlns="http://www.w3.org/2000/svg" xmlns:xlink="http://www.w3.org/1999/xlink">

<svg id="main" version="1.1" xmlns="http://www.w3.org/2000/svg" xmlns:xlink="http://www.w3.org/1999/xlink" xml:space="preserve" onload="init(evt)">
<style type="text/css"><![CDATA[
.node, .edge {opacity: 0.7;}
.node.selected, .edge.selected {opacity: 1;}
.edge:hover path { stroke: red; }
.edge:hover polygon { stroke: red; fill: red; }
]]></style>
<script type="application/ecmascript" xlink:href="svg.min.js"/>
<svg id="graph" class="graph">
<g id="graph0" class="graph" transform="scale(1 1) rotate(0) translate(4 176)">
<title>src/core</title>
<g id="clust1" class="cluster">
<title>clusterdir_68267d1309a1af8e8297ef4c3efbcdba</title>
<g id="a_clust1"><a xlink:href="dir_68267d1309a1af8e8297ef4c3efbcdba.html" target="_top" xlink:title="src">
<polygon fill="#edf0f7" stroke="#404040" stroke-dasharray="5,2" points="26.34,-39 26.34,-164 386.34,-164 386.34,-39 26.34,-39"/>
<text text-anchor="middle" x="206.34" y="-152" font-family="Helvetica,sans-Serif" font-size="10.00">src</text>
</a>
</g>
</g>
<g id="clust2" class="cluster">
<title>clusterdir_aebb8dcc11953d78e620bbef0b9e2183</title>
<g id="a_clust2"><a xlink:href="dir_aebb8dcc11953d78e620bbef0b9e2183.html" target="_top">
<polygon fill="#edf0f7" stroke="#404040" stroke-width="2" points="34.34,-47 34.34,-137 378.34,-137 378.34,-47 34.34,-47"/>
</a>
</g>
</g>
<!-- dir_aebb8dcc11953d78e620bbef0b9e2183 -->
<g id="node1" class="node">
<title>dir_aebb8dcc11953d78e620bbef0b9e2183</title>
<text text-anchor="middle" x="169.34" y="-117" font-family="Helvetica,sans-Serif" font-size="10.00">core</text>
</g>
<!-- dir_1d6db6d7d0e8d182b8afd20380f7ce88 -->
<g id="node3" class="node">
<title>dir_1d6db6d7d0e8d182b8afd20380f7ce88</title>
<g id="a_node3"><a xlink:href="dir_1d6db6d7d0e8d182b8afd20380f7ce88.html" target="_top" xlink:title="decomposition">
<polygon fill="#a2b4d6" stroke="#404040" points="213.84,-74 124.84,-74 124.84,-55 213.84,-55 213.84,-74"/>
<text text-anchor="middle" x="169.34" y="-62" font-family="Helvetica,sans-Serif" font-size="10.00">decomposition</text>
</a>
</g>
</g>
<!-- dir_aebb8dcc11953d78e620bbef0b9e2183&#45;&gt;dir_1d6db6d7d0e8d182b8afd20380f7ce88 -->
<g id="edge1" class="edge">
<title>dir_aebb8dcc11953d78e620bbef0b9e2183&#45;&gt;dir_1d6db6d7d0e8d182b8afd20380f7ce88</title>
<g id="a_edge1"><a xlink:href="dir_000022_000024.html" target="_top">
<path fill="none" stroke="#63b8ff" d="M169.34,-109.75C169.34,-102.8 169.34,-92.85 169.34,-84.13"/>
<polygon fill="#63b8ff" stroke="#63b8ff" points="172.84,-84.09 169.34,-74.09 165.84,-84.09 172.84,-84.09"/>
</a>
</g>
<g id="a_edge1&#45;headlabel"><a xlink:href="dir_000022_000024.html" target="_top" xlink:title="1">
<text text-anchor="middle" x="175.68" y="-85.18" font-family="Helvetica,sans-Serif" font-size="10.00" fill="#63b8ff">1</text>
</a>
</g>
</g>
<!-- dir_6c4b2ad16fd083bd77445f3f3def4082 -->
<g id="node5" class="node">
<title>dir_6c4b2ad16fd083bd77445f3f3def4082</title>
<g id="a_node5"><a xlink:href="dir_6c4b2ad16fd083bd77445f3f3def4082.html" target="_top" xlink:title="kernels">
<polygon fill="#a2b4d6" stroke="#404040" points="284.34,-74 232.34,-74 232.34,-55 284.34,-55 284.34,-74"/>
<text text-anchor="middle" x="258.34" y="-62" font-family="Helvetica,sans-Serif" font-size="10.00">kernels</text>
</a>
</g>
</g>
<!-- dir_aebb8dcc11953d78e620bbef0b9e2183&#45;&gt;dir_6c4b2ad16fd083bd77445f3f3def4082 -->
<g id="edge3" class="edge">
<title>dir_aebb8dcc11953d78e620bbef0b9e2183&#45;&gt;dir_6c4b2ad16fd083bd77445f3f3def4082</title>
<g id="a_edge3"><a xlink:href="dir_000022_000040.html" target="_top">
<path fill="none" stroke="#63b8ff" d="M183.64,-109.98C197.44,-101.77 218.58,-89.18 234.85,-79.49"/>
<polygon fill="#63b8ff" stroke="#63b8ff" points="236.98,-82.29 243.78,-74.17 233.39,-76.28 236.98,-82.29"/>
</a>
</g>
<g id="a_edge3&#45;headlabel"><a xlink:href="dir_000022_000040.html" target="_top" xlink:title="7">
<text text-anchor="middle" x="235.34" y="-84.07" font-family="Helvetica,sans-Serif" font-size="10.00" fill="#63b8ff">7</text>
</a>
</g>
</g>
<!-- dir_2dc8787002676dc565357b7cfa0121df -->
<g id="node7" class="node">
<title>dir_2dc8787002676dc565357b7cfa0121df</title>
<g id="a_node7"><a xlink:href="dir_2dc8787002676dc565357b7cfa0121df.html" target="_top" xlink:title="acc&#45;runtime">
<polygon fill="#edf0f7" stroke="red" points="114.84,-19 39.84,-19 39.84,0 114.84,0 114.84,-19"/>
<text text-anchor="middle" x="77.34" y="-7" font-family="Helvetica,sans-Serif" font-size="10.00">acc&#45;runtime</text>
</a>
</g>
</g>
<!-- dir_aebb8dcc11953d78e620bbef0b9e2183&#45;&gt;dir_2dc8787002676dc565357b7cfa0121df -->
<g id="edge2" class="edge">
<title>dir_aebb8dcc11953d78e620bbef0b9e2183&#45;&gt;dir_2dc8787002676dc565357b7cfa0121df</title>
<g id="a_edge2"><a xlink:href="dir_000022_000004.html" target="_top">
<path fill="none" stroke="#63b8ff" d="M150.14,-112.31C115.89,-101.17 47.52,-78.51 44.34,-74 35.37,-61.29 37.86,-53.14 44.34,-39 46.64,-33.97 50.32,-29.48 54.4,-25.65"/>
<polygon fill="#63b8ff" stroke="#63b8ff" points="56.93,-28.11 62.49,-19.09 52.52,-22.67 56.93,-28.11"/>
</a>
</g>
<g id="a_edge2&#45;headlabel"><a xlink:href="dir_000022_000004.html" target="_top" xlink:title="92">
<text text-anchor="middle" x="55.92" y="-30.07" font-family="Helvetica,sans-Serif" font-size="10.00" fill="#63b8ff">92</text>
</a>
</g>
</g>
<!-- dir_d44c64559bbebec7f509842c48db8b23 -->
<g id="node8" class="node">
<title>dir_d44c64559bbebec7f509842c48db8b23</title>
<g id="a_node8"><a xlink:href="dir_d44c64559bbebec7f509842c48db8b23.html" target="_top" xlink:title="include">
<polygon fill="#edf0f7" stroke="#404040" points="357.34,-19 305.34,-19 305.34,0 357.34,0 357.34,-19"/>
<text text-anchor="middle" x="331.34" y="-7" font-family="Helvetica,sans-Serif" font-size="10.00">include</text>
</a>
</g>
</g>
<!-- dir_aebb8dcc11953d78e620bbef0b9e2183&#45;&gt;dir_d44c64559bbebec7f509842c48db8b23 -->
<g id="edge4" class="edge">
<title>dir_aebb8dcc11953d78e620bbef0b9e2183&#45;&gt;dir_d44c64559bbebec7f509842c48db8b23</title>
<g id="a_edge4"><a xlink:href="dir_000022_000035.html" target="_top">
<path fill="none" stroke="#63b8ff" d="M188.6,-112.59C191.52,-111.71 194.51,-110.82 197.34,-110 254.49,-93.35 288.51,-119.96 326.34,-74 336.54,-61.6 336.78,-42.84 335.07,-28.93"/>
<polygon fill="#63b8ff" stroke="#63b8ff" points="338.52,-28.31 333.44,-19.02 331.61,-29.45 338.52,-28.31"/>
</a>
</g>
<g id="a_edge4&#45;headlabel"><a xlink:href="dir_000022_000035.html" target="_top" xlink:title="51">
<text text-anchor="middle" x="341.9" y="-28.9" font-family="Helvetica,sans-Serif" font-size="10.00" fill="#63b8ff">51</text>
</a>
</g>
</g>
<!-- dir_d9c09af936de384e942a3cb07f82204c -->
<g id="node2" class="node">
<title>dir_d9c09af936de384e942a3cb07f82204c</title>
<g id="a_node2"><a xlink:href="dir_d9c09af936de384e942a3cb07f82204c.html" target="_top" xlink:title="cuda_wrappers">
<polygon fill="#a2b4d6" stroke="#404040" points="132.34,-129 42.34,-129 42.34,-110 132.34,-110 132.34,-129"/>
<text text-anchor="middle" x="87.34" y="-117" font-family="Helvetica,sans-Serif" font-size="10.00">cuda_wrappers</text>
</a>
</g>
</g>
<!-- dir_d9c09af936de384e942a3cb07f82204c&#45;&gt;dir_2dc8787002676dc565357b7cfa0121df -->
<g id="edge5" class="edge">
<title>dir_d9c09af936de384e942a3cb07f82204c&#45;&gt;dir_2dc8787002676dc565357b7cfa0121df</title>
<g id="a_edge5"><a xlink:href="dir_000023_000004.html" target="_top">
<path fill="none" stroke="#63b8ff" d="M55.91,-109.97C38,-103.32 17.04,-92.09 6.34,-74 -1.58,-60.61 -2.38,-51.89 6.34,-39 12.08,-30.5 20.83,-24.53 30.24,-20.35"/>
<polygon fill="#63b8ff" stroke="#63b8ff" points="31.67,-23.55 39.78,-16.73 29.19,-17 31.67,-23.55"/>
</a>
</g>
<g id="a_edge5&#45;headlabel"><a xlink:href="dir_000023_000004.html" target="_top" xlink:title="4">
<text text-anchor="middle" x="29.32" y="-24.98" font-family="Helvetica,sans-Serif" font-size="10.00" fill="#63b8ff">4</text>
</a>
</g>
</g>
<!-- dir_d9c09af936de384e942a3cb07f82204c&#45;&gt;dir_d44c64559bbebec7f509842c48db8b23 -->
<g id="edge6" class="edge">
<title>dir_d9c09af936de384e942a3cb07f82204c&#45;&gt;dir_d44c64559bbebec7f509842c48db8b23</title>
<g id="a_edge6"><a xlink:href="dir_000023_000035.html" target="_top">
<path fill="none" stroke="#63b8ff" d="M132.73,-110.67C189.36,-100.6 280.37,-83.3 293.34,-74 308.96,-62.79 319.31,-42.99 325.2,-28.46"/>
<polygon fill="#63b8ff" stroke="#63b8ff" points="328.51,-29.62 328.72,-19.02 321.95,-27.17 328.51,-29.62"/>
</a>
</g>
<g id="a_edge6&#45;headlabel"><a xlink:href="dir_000023_000035.html" target="_top" xlink:title="2">
<text text-anchor="middle" x="329.91" y="-31.48" font-family="Helvetica,sans-Serif" font-size="10.00" fill="#63b8ff">2</text>
</a>
</g>
</g>
<!-- dir_1d6db6d7d0e8d182b8afd20380f7ce88&#45;&gt;dir_2dc8787002676dc565357b7cfa0121df -->
<g id="edge7" class="edge">
<title>dir_1d6db6d7d0e8d182b8afd20380f7ce88&#45;&gt;dir_2dc8787002676dc565357b7cfa0121df</title>
<g id="a_edge7"><a xlink:href="dir_000024_000004.html" target="_top">
<path fill="none" stroke="#63b8ff" d="M154.56,-54.98C140.16,-46.69 118.03,-33.94 101.14,-24.22"/>
<polygon fill="#63b8ff" stroke="#63b8ff" points="102.8,-21.13 92.39,-19.17 99.3,-27.19 102.8,-21.13"/>
</a>
</g>
<g id="a_edge7&#45;headlabel"><a xlink:href="dir_000024_000004.html" target="_top" xlink:title="5">
<text text-anchor="middle" x="107.33" y="-17.96" font-family="Helvetica,sans-Serif" font-size="10.00" fill="#63b8ff">5</text>
</a>
</g>
</g>
<!-- dir_1d6db6d7d0e8d182b8afd20380f7ce88&#45;&gt;dir_d44c64559bbebec7f509842c48db8b23 -->
<g id="edge8" class="edge">
<title>dir_1d6db6d7d0e8d182b8afd20380f7ce88&#45;&gt;dir_d44c64559bbebec7f509842c48db8b23</title>
<g id="a_edge8"><a xlink:href="dir_000024_000035.html" target="_top">
<path fill="none" stroke="#63b8ff" d="M186.54,-54.8C197,-49.74 210.73,-43.49 223.34,-39 246.89,-30.62 274.1,-23.45 295.32,-18.4"/>
<polygon fill="#63b8ff" stroke="#63b8ff" points="296.27,-21.77 305.22,-16.1 294.68,-14.96 296.27,-21.77"/>
</a>
</g>
<g id="a_edge8&#45;headlabel"><a xlink:href="dir_000024_000035.html" target="_top" xlink:title="2">
<text text-anchor="middle" x="293.41" y="-22.85" font-family="Helvetica,sans-Serif" font-size="10.00" fill="#63b8ff">2</text>
</a>
</g>
</g>
<!-- dir_707aa52d67938117542c6646238d6f70 -->
<g id="node4" class="node">
<title>dir_707aa52d67938117542c6646238d6f70</title>
<g id="a_node4"><a xlink:href="dir_707aa52d67938117542c6646238d6f70.html" target="_top" xlink:title="helpers">
<polygon fill="#a2b4d6" stroke="#404040" points="369.84,-129 316.84,-129 316.84,-110 369.84,-110 369.84,-129"/>
<text text-anchor="middle" x="343.34" y="-117" font-family="Helvetica,sans-Serif" font-size="10.00">helpers</text>
</a>
</g>
</g>
<!-- dir_707aa52d67938117542c6646238d6f70&#45;&gt;dir_6c4b2ad16fd083bd77445f3f3def4082 -->
<g id="edge10" class="edge">
<title>dir_707aa52d67938117542c6646238d6f70&#45;&gt;dir_6c4b2ad16fd083bd77445f3f3def4082</title>
<g id="a_edge10"><a xlink:href="dir_000034_000040.html" target="_top">
<path fill="none" stroke="#63b8ff" d="M329.68,-109.98C316.5,-101.77 296.31,-89.18 280.77,-79.49"/>
<polygon fill="#63b8ff" stroke="#63b8ff" points="282.58,-76.49 272.24,-74.17 278.88,-82.43 282.58,-76.49"/>
</a>
</g>
<g id="a_edge10&#45;headlabel"><a xlink:href="dir_000034_000040.html" target="_top" xlink:title="2">
<text text-anchor="middle" x="287.13" y="-73.48" font-family="Helvetica,sans-Serif" font-size="10.00" fill="#63b8ff">2</text>
</a>
</g>
</g>
<!-- dir_707aa52d67938117542c6646238d6f70&#45;&gt;dir_2dc8787002676dc565357b7cfa0121df -->
<g id="edge9" class="edge">
<title>dir_707aa52d67938117542c6646238d6f70&#45;&gt;dir_2dc8787002676dc565357b7cfa0121df</title>
<g id="a_edge9"><a xlink:href="dir_000034_000004.html" target="_top">
<path fill="none" stroke="#63b8ff" d="M316.63,-112.05C313.5,-111.34 310.35,-110.64 307.34,-110 222.83,-92.07 187.48,-123 116.34,-74 100.39,-63.02 89.76,-43.17 83.68,-28.58"/>
<polygon fill="#63b8ff" stroke="#63b8ff" points="86.89,-27.17 80.04,-19.09 80.35,-29.68 86.89,-27.17"/>
</a>
</g>
<g id="a_edge9&#45;headlabel"><a xlink:href="dir_000034_000004.html" target="_top" xlink:title="12">
<text text-anchor="middle" x="90.82" y="-27.02" font-family="Helvetica,sans-Serif" font-size="10.00" fill="#63b8ff">12</text>
</a>
</g>
</g>
<!-- dir_707aa52d67938117542c6646238d6f70&#45;&gt;dir_d44c64559bbebec7f509842c48db8b23 -->
<g id="edge11" class="edge">
<title>dir_707aa52d67938117542c6646238d6f70&#45;&gt;dir_d44c64559bbebec7f509842c48db8b23</title>
<g id="a_edge11"><a xlink:href="dir_000034_000035.html" target="_top">
<path fill="none" stroke="#63b8ff" d="M362.6,-109.9C376.46,-102.55 394.1,-90.54 402.34,-74 409.27,-60.08 411.05,-51.89 402.34,-39 394.39,-27.25 380.72,-20.34 367.49,-16.29"/>
<polygon fill="#63b8ff" stroke="#63b8ff" points="368.11,-12.83 357.55,-13.7 366.35,-19.61 368.11,-12.83"/>
</a>
</g>
<g id="a_edge11&#45;headlabel"><a xlink:href="dir_000034_000035.html" target="_top" xlink:title="6">
<text text-anchor="middle" x="372.3" y="-8.49" font-family="Helvetica,sans-Serif" font-size="10.00" fill="#63b8ff">6</text>
</a>
</g>
</g>
<!-- dir_6c4b2ad16fd083bd77445f3f3def4082&#45;&gt;dir_2dc8787002676dc565357b7cfa0121df -->
<g id="edge12" class="edge">
<title>dir_6c4b2ad16fd083bd77445f3f3def4082&#45;&gt;dir_2dc8787002676dc565357b7cfa0121df</title>
<g id="a_edge12"><a xlink:href="dir_000040_000004.html" target="_top">
<path fill="none" stroke="#63b8ff" d="M248.6,-55C241.92,-49.61 232.62,-42.94 223.34,-39 191.97,-25.68 154.16,-18.52 124.87,-14.7"/>
<polygon fill="#63b8ff" stroke="#63b8ff" points="125.24,-11.22 114.89,-13.49 124.4,-18.17 125.24,-11.22"/>
</a>
</g>
<g id="a_edge12&#45;headlabel"><a xlink:href="dir_000040_000004.html" target="_top" xlink:title="43">
<text text-anchor="middle" x="129.15" y="-6.34" font-family="Helvetica,sans-Serif" font-size="10.00" fill="#63b8ff">43</text>
</a>
</g>
</g>
<!-- dir_6c4b2ad16fd083bd77445f3f3def4082&#45;&gt;dir_d44c64559bbebec7f509842c48db8b23 -->
<g id="edge13" class="edge">
<title>dir_6c4b2ad16fd083bd77445f3f3def4082&#45;&gt;dir_d44c64559bbebec7f509842c48db8b23</title>
<g id="a_edge13"><a xlink:href="dir_000040_000035.html" target="_top">
<path fill="none" stroke="#63b8ff" d="M270.07,-54.98C281.07,-47 297.76,-34.88 310.94,-25.31"/>
<polygon fill="#63b8ff" stroke="#63b8ff" points="313.36,-27.88 319.39,-19.17 309.25,-22.21 313.36,-27.88"/>
</a>
</g>
<g id="a_edge13&#45;headlabel"><a xlink:href="dir_000040_000035.html" target="_top" xlink:title="19">
<text text-anchor="middle" x="312.12" y="-29.79" font-family="Helvetica,sans-Serif" font-size="10.00" fill="#63b8ff">19</text>
</a>
</g>
</g>
<!-- dir_3a2ce0b22f3ec8f8685484a8dd397970 -->
<g id="node6" class="node">
<title>dir_3a2ce0b22f3ec8f8685484a8dd397970</title>
<g id="a_node6"><a xlink:href="dir_3a2ce0b22f3ec8f8685484a8dd397970.html" target="_top" xlink:title="update_params">
<polygon fill="#a2b4d6" stroke="#404040" points="298.34,-129 206.34,-129 206.34,-110 298.34,-110 298.34,-129"/>
<text text-anchor="middle" x="252.34" y="-117" font-family="Helvetica,sans-Serif" font-size="10.00">update_params</text>
</a>
</g>
</g>
<!-- dir_3a2ce0b22f3ec8f8685484a8dd397970&#45;&gt;dir_2dc8787002676dc565357b7cfa0121df -->
<g id="edge14" class="edge">
<title>dir_3a2ce0b22f3ec8f8685484a8dd397970&#45;&gt;dir_2dc8787002676dc565357b7cfa0121df</title>
<g id="a_edge14"><a xlink:href="dir_000084_000004.html" target="_top">
<path fill="none" stroke="#63b8ff" d="M209.22,-109.91C161.62,-100.02 90.58,-83.86 82.34,-74 72.03,-61.69 71.81,-42.91 73.55,-28.97"/>
<polygon fill="#63b8ff" stroke="#63b8ff" points="77.01,-29.48 75.2,-19.04 70.1,-28.33 77.01,-29.48"/>
</a>
</g>
<g id="a_edge14&#45;headlabel"><a xlink:href="dir_000084_000004.html" target="_top" xlink:title="5">
<text text-anchor="middle" x="79.22" y="-30.99" font-family="Helvetica,sans-Serif" font-size="10.00" fill="#63b8ff">5</text>
</a>
</g>
</g>
<!-- dir_3a2ce0b22f3ec8f8685484a8dd397970&#45;&gt;dir_d44c64559bbebec7f509842c48db8b23 -->
<g id="edge15" class="edge">
<title>dir_3a2ce0b22f3ec8f8685484a8dd397970&#45;&gt;dir_d44c64559bbebec7f509842c48db8b23</title>
<g id="a_edge15"><a xlink:href="dir_000084_000035.html" target="_top">
<path fill="none" stroke="#63b8ff" d="M298.48,-112.54C322.39,-106.85 349.59,-95.73 364.34,-74 373.07,-61.13 370.81,-53.14 364.34,-39 362.03,-33.97 358.35,-29.48 354.27,-25.65"/>
<polygon fill="#63b8ff" stroke="#63b8ff" points="356.15,-22.67 346.18,-19.09 351.75,-28.11 356.15,-22.67"/>
</a>
</g>
<g id="a_edge15&#45;headlabel"><a xlink:href="dir_000084_000035.html" target="_top" xlink:title="2">
<text text-anchor="middle" x="360.73" y="-20.22" font-family="Helvetica,sans-Serif" font-size="10.00" fill="#63b8ff">2</text>
</a>
</g>
</g>
</g>
</svg>
</svg>

<style type='text/css'>
<![CDATA[
[data-mouse-over-selected='false'] { opacity: 0.7; }
[data-mouse-over-selected='true']  { opacity: 1.0; }
]]>
</style>
<script type="application/ecmascript"><![CDATA[
document.addEventListener('DOMContentLoaded', (event) => {
  highlightEdges();
  highlightAdjacentNodes();
});
]]></script>
</svg>
