<?xml version="1.0" encoding="UTF-8" standalone="no"?>
<!DOCTYPE svg PUBLIC "-//W3C//DTD SVG 1.1//EN"
 "http://www.w3.org/Graphics/SVG/1.1/DTD/svg11.dtd">
<!-- Generated by graphviz version 2.43.0 (0)
 -->
<!-- Title: acc&#45;runtime/api/func_attributes.h Pages: 1 -->
<!--zoomable 357 -->

<svg id="main" version="1.1" xmlns="http://www.w3.org/2000/svg" xmlns:xlink="http://www.w3.org/1999/xlink" xml:space="preserve" onload="init(evt)">
<style type="text/css"><![CDATA[
.node, .edge {opacity: 0.7;}
.node.selected, .edge.selected {opacity: 1;}
.edge:hover path { stroke: red; }
.edge:hover polygon { stroke: red; fill: red; }
]]></style>

<defs>
  <circle id="rim" cx="0" cy="0" r="7"/>
  <circle id="rim2" cx="0" cy="0" r="3.5"/>
  <g id="zoomPlus">
    <use xlink:href="#rim" fill="#404040"><set attributeName="fill" to="#808080" begin="zoomplus.mouseover" end="zoomplus.mouseout"/></use>
    <path d="M-4,0h8M0,-4v8" fill="none" stroke="white" stroke-width="1.5" pointer-events="none"/>
  </g>
  <g id="zoomMin">
    <use xlink:href="#rim" fill="#404040"><set attributeName="fill" to="#808080" begin="zoomminus.mouseover" end="zoomminus.mouseout"/></use>
    <path d="M-4,0h8" fill="none" stroke="white" stroke-width="1.5" pointer-events="none"/>
  </g>
  <g id="arrowUp" transform="translate(30 24)">
    <use xlink:href="#rim"/>
    <path pointer-events="none" fill="none" stroke="white" stroke-width="1.5" d="M0,-3.0v7 M-2.5,-0.5L0,-3.0L2.5,-0.5"/>
  </g>
  <g id="arrowRight" transform="rotate(90) translate(36 -43)">
    <use xlink:href="#rim"/>
    <path pointer-events="none" fill="none" stroke="white" stroke-width="1.5" d="M0,-3.0v7 M-2.5,-0.5L0,-3.0L2.5,-0.5"/>
  </g>
  <g id="arrowDown" transform="rotate(180) translate(-30 -48)">
    <use xlink:href="#rim"/>
    <path pointer-events="none" fill="none" stroke="white" stroke-width="1.5" d="M0,-3.0v7 M-2.5,-0.5L0,-3.0L2.5,-0.5"/>
  </g>
  <g id="arrowLeft" transform="rotate(270) translate(-36 17)">
    <use xlink:href="#rim"/>
    <path pointer-events="none" fill="none" stroke="white" stroke-width="1.5" d="M0,-3.0v7 M-2.5,-0.5L0,-3.0L2.5,-0.5"/>
  </g>
  <g id="resetDef">
    <use xlink:href="#rim2" fill="#404040"><set attributeName="fill" to="#808080" begin="reset.mouseover" end="reset.mouseout"/></use>
  </g>
</defs>
<script type="application/ecmascript">
var viewWidth = 2106;
var viewHeight = 357;
var sectionId = 'dynsection-0';
</script>
<script type="application/ecmascript" xlink:href="svg.min.js"/>
<svg id="graph" class="graph">
<g id="viewport">
<title>acc&#45;runtime/api/func_attributes.h</title>
<!-- Node1 -->
<g id="Node000001" class="node">
<title>Node1</title>
<g id="a_Node000001"><a xlink:title=" ">
<polygon fill="#999999" stroke="#666666" points="1370.5,-349 1253.5,-349 1253.5,-319 1370.5,-319 1370.5,-349"/>
<text text-anchor="start" x="1261.5" y="-337" font-family="Helvetica,sans-Serif" font-size="10.00">acc&#45;runtime/api/func</text>
<text text-anchor="middle" x="1312" y="-326" font-family="Helvetica,sans-Serif" font-size="10.00">_attributes.h</text>
</a>
</g>
</g>
<!-- Node2 -->
<g id="Node000002" class="node">
<title>Node2</title>
<g id="a_Node000002"><a xlink:href="math__utils_8h.html" target="_top" xlink:title="Brief info.">
<polygon fill="white" stroke="#666666" points="985,-217 863,-217 863,-187 985,-187 985,-217"/>
<text text-anchor="start" x="871" y="-205" font-family="Helvetica,sans-Serif" font-size="10.00">acc&#45;runtime/api/math</text>
<text text-anchor="middle" x="924" y="-194" font-family="Helvetica,sans-Serif" font-size="10.00">_utils.h</text>
</a>
</g>
</g>
<!-- Node1&#45;&gt;Node2 -->
<g id="edge1_Node000001_Node000002" class="edge">
<title>Node1&#45;&gt;Node2</title>
<g id="a_edge1_Node000001_Node000002"><a xlink:title=" ">
<path fill="none" stroke="#63b8ff" d="M1260.54,-315.76C1182.98,-289.77 1037.59,-241.06 966.01,-217.08"/>
<polygon fill="#63b8ff" stroke="#63b8ff" points="1259.51,-319.11 1270.11,-318.96 1261.74,-312.47 1259.51,-319.11"/>
</a>
</g>
</g>
<!-- Node6 -->
<g id="Node000006" class="node">
<title>Node6</title>
<g id="a_Node000006"><a xlink:href="vba_8cc.html" target="_top" xlink:title=" ">
<polygon fill="white" stroke="#666666" points="1414,-145.5 1286,-145.5 1286,-126.5 1414,-126.5 1414,-145.5"/>
<text text-anchor="middle" x="1350" y="-133.5" font-family="Helvetica,sans-Serif" font-size="10.00">acc&#45;runtime/api/vba.cc</text>
</a>
</g>
</g>
<!-- Node1&#45;&gt;Node6 -->
<g id="edge34_Node000001_Node000006" class="edge">
<title>Node1&#45;&gt;Node6</title>
<g id="a_edge34_Node000001_Node000006"><a xlink:title=" ">
<path fill="none" stroke="#63b8ff" d="M1316.69,-308.83C1325.19,-264.97 1342.79,-174.18 1348.31,-145.73"/>
<polygon fill="#63b8ff" stroke="#63b8ff" points="1313.2,-308.42 1314.73,-318.9 1320.07,-309.75 1313.2,-308.42"/>
</a>
</g>
</g>
<!-- Node19 -->
<g id="Node000019" class="node">
<title>Node19</title>
<g id="a_Node000019"><a xlink:href="stencil__accesses_8cpp.html" target="_top" xlink:title=" ">
<polygon fill="white" stroke="#666666" points="160,-145.5 0,-145.5 0,-126.5 160,-126.5 160,-145.5"/>
<text text-anchor="middle" x="80" y="-133.5" font-family="Helvetica,sans-Serif" font-size="10.00">src/core/stencil_accesses.cpp</text>
</a>
</g>
</g>
<!-- Node1&#45;&gt;Node19 -->
<g id="edge36_Node000001_Node000019" class="edge">
<title>Node1&#45;&gt;Node19</title>
<g id="a_edge36_Node000001_Node000019"><a xlink:title=" ">
<path fill="none" stroke="#63b8ff" d="M1243.23,-322.06C1022.04,-286.87 331.8,-177.06 133.67,-145.54"/>
<polygon fill="#63b8ff" stroke="#63b8ff" points="1242.98,-325.56 1253.41,-323.68 1244.08,-318.65 1242.98,-325.56"/>
</a>
</g>
</g>
<!-- Node21 -->
<g id="Node000021" class="node">
<title>Node21</title>
<g id="a_Node000021"><a xlink:href="math__utils__base_8h.html" target="_top" xlink:title=" ">
<polygon fill="white" stroke="#666666" points="1487,-283 1365,-283 1365,-253 1487,-253 1487,-283"/>
<text text-anchor="start" x="1373" y="-271" font-family="Helvetica,sans-Serif" font-size="10.00">acc&#45;runtime/api/math</text>
<text text-anchor="middle" x="1426" y="-260" font-family="Helvetica,sans-Serif" font-size="10.00">_utils_base.h</text>
</a>
</g>
</g>
<!-- Node1&#45;&gt;Node21 -->
<g id="edge25_Node000001_Node000021" class="edge">
<title>Node1&#45;&gt;Node21</title>
<g id="a_edge25_Node000001_Node000021"><a xlink:title=" ">
<path fill="none" stroke="#63b8ff" d="M1345.9,-313.97C1363.6,-304.03 1384.87,-292.09 1401.04,-283.01"/>
<polygon fill="#63b8ff" stroke="#63b8ff" points="1344.02,-311.01 1337.02,-318.95 1347.45,-317.11 1344.02,-311.01"/>
</a>
</g>
</g>
<!-- Node23 -->
<g id="Node000023" class="node">
<title>Node23</title>
<g id="a_Node000023"><a xlink:href="reductions_8cu.html" target="_top" xlink:title=" ">
<polygon fill="white" stroke="#666666" points="2097.5,-211.5 1936.5,-211.5 1936.5,-192.5 2097.5,-192.5 2097.5,-211.5"/>
<text text-anchor="middle" x="2017" y="-199.5" font-family="Helvetica,sans-Serif" font-size="10.00">src/core/kernels/reductions.cu</text>
</a>
</g>
</g>
<!-- Node1&#45;&gt;Node23 -->
<g id="edge35_Node000001_Node000023" class="edge">
<title>Node1&#45;&gt;Node23</title>
<g id="a_edge35_Node000001_Node000023"><a xlink:title=" ">
<path fill="none" stroke="#63b8ff" d="M1380.55,-320.36C1523.32,-294.03 1849.32,-233.92 1970.5,-211.57"/>
<polygon fill="#63b8ff" stroke="#63b8ff" points="1379.79,-316.94 1370.59,-322.2 1381.06,-323.82 1379.79,-316.94"/>
</a>
</g>
</g>
<!-- Node3 -->
<g id="Node000003" class="node">
<title>Node3</title>
<g id="a_Node000003"><a xlink:href="acc__runtime_8cu.html" target="_top" xlink:title=" ">
<polygon fill="white" stroke="#666666" points="1267.5,-151 1154.5,-151 1154.5,-121 1267.5,-121 1267.5,-151"/>
<text text-anchor="start" x="1162.5" y="-139" font-family="Helvetica,sans-Serif" font-size="10.00">acc&#45;runtime/api/acc</text>
<text text-anchor="middle" x="1211" y="-128" font-family="Helvetica,sans-Serif" font-size="10.00">_runtime.cu</text>
</a>
</g>
</g>
<!-- Node2&#45;&gt;Node3 -->
<g id="edge2_Node000002_Node000003" class="edge">
<title>Node2&#45;&gt;Node3</title>
<g id="a_edge2_Node000002_Node000003"><a xlink:title=" ">
<path fill="none" stroke="#63b8ff" d="M995.13,-185.14C1044.23,-174.19 1108.62,-159.83 1154.27,-149.65"/>
<polygon fill="#63b8ff" stroke="#63b8ff" points="994.22,-181.76 985.22,-187.35 995.74,-188.59 994.22,-181.76"/>
</a>
</g>
</g>
<!-- Node5 -->
<g id="Node000005" class="node">
<title>Node5</title>
<g id="a_Node000005"><a xlink:href="common__kernels_8cc.html" target="_top" xlink:title=" ">
<polygon fill="white" stroke="#666666" points="1571.5,-151 1432.5,-151 1432.5,-121 1571.5,-121 1571.5,-151"/>
<text text-anchor="start" x="1440.5" y="-139" font-family="Helvetica,sans-Serif" font-size="10.00">acc&#45;runtime/api/common</text>
<text text-anchor="middle" x="1502" y="-128" font-family="Helvetica,sans-Serif" font-size="10.00">_kernels.cc</text>
</a>
</g>
</g>
<!-- Node2&#45;&gt;Node5 -->
<g id="edge4_Node000002_Node000005" class="edge">
<title>Node2&#45;&gt;Node5</title>
<g id="a_edge4_Node000002_Node000005"><a xlink:title=" ">
<path fill="none" stroke="#63b8ff" d="M995.23,-195.57C1092.24,-187.78 1271.2,-172.03 1423,-151 1426.04,-150.58 1429.13,-150.13 1432.26,-149.65"/>
<polygon fill="#63b8ff" stroke="#63b8ff" points="994.94,-192.08 985.25,-196.36 995.49,-199.06 994.94,-192.08"/>
</a>
</g>
</g>
<!-- Node2&#45;&gt;Node6 -->
<g id="edge5_Node000002_Node000006" class="edge">
<title>Node2&#45;&gt;Node6</title>
<g id="a_edge5_Node000002_Node000006"><a xlink:title=" ">
<path fill="none" stroke="#63b8ff" d="M995.27,-191.94C1066.68,-182.62 1179.67,-167.22 1277,-151 1286.8,-149.37 1297.31,-147.45 1307.22,-145.57"/>
<polygon fill="#63b8ff" stroke="#63b8ff" points="994.51,-188.51 985.04,-193.27 995.41,-195.45 994.51,-188.51"/>
</a>
</g>
</g>
<!-- Node7 -->
<g id="Node000007" class="node">
<title>Node7</title>
<g id="a_Node000007"><a xlink:href="compute__steps_8cc.html" target="_top" xlink:title=" ">
<polygon fill="white" stroke="#666666" points="191,-19 45,-19 45,0 191,0 191,-19"/>
<text text-anchor="middle" x="118" y="-7" font-family="Helvetica,sans-Serif" font-size="10.00">src/core/compute_steps.cc</text>
</a>
</g>
</g>
<!-- Node2&#45;&gt;Node7 -->
<g id="edge6_Node000002_Node000007" class="edge">
<title>Node2&#45;&gt;Node7</title>
<g id="a_edge6_Node000002_Node000007"><a xlink:title=" ">
<path fill="none" stroke="#63b8ff" d="M852.47,-197.67C721.28,-191.07 447.18,-174.89 355,-151 285.28,-132.93 268.09,-123.15 207,-85 174.87,-64.93 141.93,-34.16 126.7,-19.23"/>
<polygon fill="#63b8ff" stroke="#63b8ff" points="852.65,-201.18 862.81,-198.19 853,-194.19 852.65,-201.18"/>
</a>
</g>
</g>
<!-- Node8 -->
<g id="Node000008" class="node">
<title>Node8</title>
<g id="a_Node000008"><a xlink:href="decomposition_8h.html" target="_top" xlink:title=" ">
<polygon fill="white" stroke="#666666" points="579,-151 449,-151 449,-121 579,-121 579,-151"/>
<text text-anchor="start" x="457" y="-139" font-family="Helvetica,sans-Serif" font-size="10.00">src/core/decomposition</text>
<text text-anchor="middle" x="514" y="-128" font-family="Helvetica,sans-Serif" font-size="10.00">/decomposition.h</text>
</a>
</g>
</g>
<!-- Node2&#45;&gt;Node8 -->
<g id="edge7_Node000002_Node000008" class="edge">
<title>Node2&#45;&gt;Node8</title>
<g id="a_edge7_Node000002_Node000008"><a xlink:title=" ">
<path fill="none" stroke="#63b8ff" d="M852.51,-189.84C775.42,-177.81 653.75,-158.81 579.19,-147.18"/>
<polygon fill="#63b8ff" stroke="#63b8ff" points="852.2,-193.33 862.62,-191.42 853.28,-186.42 852.2,-193.33"/>
</a>
</g>
</g>
<!-- Node11 -->
<g id="Node000011" class="node">
<title>Node11</title>
<g id="a_Node000011"><a xlink:href="grid_8cc.html" target="_top" xlink:title=" ">
<polygon fill="white" stroke="#666666" points="529,-19 439,-19 439,0 529,0 529,-19"/>
<text text-anchor="middle" x="484" y="-7" font-family="Helvetica,sans-Serif" font-size="10.00">src/core/grid.cc</text>
</a>
</g>
</g>
<!-- Node2&#45;&gt;Node11 -->
<g id="edge18_Node000002_Node000011" class="edge">
<title>Node2&#45;&gt;Node11</title>
<g id="a_edge18_Node000002_Node000011"><a xlink:title=" ">
<path fill="none" stroke="#63b8ff" d="M852.86,-191.53C804.94,-183.52 747.86,-170.25 733,-151 724.85,-140.45 726.71,-132.76 733,-121 746.61,-95.57 773.39,-110.43 787,-85 793.29,-73.24 795.72,-65.09 787,-55 754.24,-17.08 605.44,-10.88 529.26,-10.24"/>
<polygon fill="#63b8ff" stroke="#63b8ff" points="852.5,-195.02 862.93,-193.16 853.61,-188.11 852.5,-195.02"/>
</a>
</g>
</g>
<!-- Node12 -->
<g id="Node000012" class="node">
<title>Node12</title>
<g id="a_Node000012"><a xlink:href="grid__commdata__based_8cc.html" target="_top" xlink:title=" ">
<polygon fill="white" stroke="#666666" points="778,-85 644,-85 644,-55 778,-55 778,-85"/>
<text text-anchor="start" x="652" y="-73" font-family="Helvetica,sans-Serif" font-size="10.00">src/core/grid_commdata</text>
<text text-anchor="middle" x="711" y="-62" font-family="Helvetica,sans-Serif" font-size="10.00">_based.cc</text>
</a>
</g>
</g>
<!-- Node2&#45;&gt;Node12 -->
<g id="edge19_Node000002_Node000012" class="edge">
<title>Node2&#45;&gt;Node12</title>
<g id="a_edge19_Node000002_Node000012"><a xlink:title=" ">
<path fill="none" stroke="#63b8ff" d="M852.64,-194.66C794.47,-187.85 718.95,-174.65 700,-151 684.92,-132.18 695.07,-102.54 703.35,-85.11"/>
<polygon fill="#63b8ff" stroke="#63b8ff" points="852.59,-198.18 862.92,-195.82 853.37,-191.22 852.59,-198.18"/>
</a>
</g>
</g>
<!-- Node13 -->
<g id="Node000013" class="node">
<title>Node13</title>
<g id="a_Node000013"><a xlink:href="task_8h.html" target="_top" xlink:title=" ">
<polygon fill="white" stroke="#666666" points="304,-79.5 216,-79.5 216,-60.5 304,-60.5 304,-79.5"/>
<text text-anchor="middle" x="260" y="-67.5" font-family="Helvetica,sans-Serif" font-size="10.00">src/core/task.h</text>
</a>
</g>
</g>
<!-- Node2&#45;&gt;Node13 -->
<g id="edge23_Node000002_Node000013" class="edge">
<title>Node2&#45;&gt;Node13</title>
<g id="a_edge23_Node000002_Node000013"><a xlink:title=" ">
<path fill="none" stroke="#63b8ff" d="M852.79,-200.6C757.28,-198.51 583.13,-189.17 440,-151 375.57,-133.82 304.85,-96.39 274.81,-79.54"/>
<polygon fill="#63b8ff" stroke="#63b8ff" points="852.84,-204.1 862.91,-200.8 852.98,-197.11 852.84,-204.1"/>
</a>
</g>
</g>
<!-- Node16 -->
<g id="Node000016" class="node">
<title>Node16</title>
<g id="a_Node000016"><a xlink:href="device_8cc.html" target="_top" xlink:title=" ">
<polygon fill="white" stroke="#666666" points="846,-145.5 742,-145.5 742,-126.5 846,-126.5 846,-145.5"/>
<text text-anchor="middle" x="794" y="-133.5" font-family="Helvetica,sans-Serif" font-size="10.00">src/core/device.cc</text>
</a>
</g>
</g>
<!-- Node2&#45;&gt;Node16 -->
<g id="edge17_Node000002_Node000016" class="edge">
<title>Node2&#45;&gt;Node16</title>
<g id="a_edge17_Node000002_Node000016"><a xlink:title=" ">
<path fill="none" stroke="#63b8ff" d="M886.34,-182.46C861.58,-170.27 830.36,-154.9 811.3,-145.52"/>
<polygon fill="#63b8ff" stroke="#63b8ff" points="884.95,-185.68 895.47,-186.95 888.05,-179.4 884.95,-185.68"/>
</a>
</g>
</g>
<!-- Node17 -->
<g id="Node000017" class="node">
<title>Node17</title>
<g id="a_Node000017"><a xlink:href="pack__unpack_8cuh.html" target="_top" xlink:title=" ">
<polygon fill="white" stroke="#666666" points="983.5,-151 864.5,-151 864.5,-121 983.5,-121 983.5,-151"/>
<text text-anchor="start" x="872.5" y="-139" font-family="Helvetica,sans-Serif" font-size="10.00">src/core/kernels/pack</text>
<text text-anchor="middle" x="924" y="-128" font-family="Helvetica,sans-Serif" font-size="10.00">_unpack.cuh</text>
</a>
</g>
</g>
<!-- Node2&#45;&gt;Node17 -->
<g id="edge20_Node000002_Node000017" class="edge">
<title>Node2&#45;&gt;Node17</title>
<g id="a_edge20_Node000002_Node000017"><a xlink:title=" ">
<path fill="none" stroke="#63b8ff" d="M924,-176.54C924,-167.96 924,-158.61 924,-151.16"/>
<polygon fill="#63b8ff" stroke="#63b8ff" points="920.5,-176.8 924,-186.8 927.5,-176.8 920.5,-176.8"/>
</a>
</g>
</g>
<!-- Node18 -->
<g id="Node000018" class="node">
<title>Node18</title>
<g id="a_Node000018"><a xlink:href="node_8cc.html" target="_top" xlink:title="Multi&#45;GPU implementation.">
<polygon fill="white" stroke="#666666" points="1684.5,-145.5 1589.5,-145.5 1589.5,-126.5 1684.5,-126.5 1684.5,-145.5"/>
<text text-anchor="middle" x="1637" y="-133.5" font-family="Helvetica,sans-Serif" font-size="10.00">src/core/node.cc</text>
</a>
</g>
</g>
<!-- Node2&#45;&gt;Node18 -->
<g id="edge21_Node000002_Node000018" class="edge">
<title>Node2&#45;&gt;Node18</title>
<g id="a_edge21_Node000002_Node000018"><a xlink:title=" ">
<path fill="none" stroke="#63b8ff" d="M995.34,-199.51C1116.47,-196.11 1369.78,-185.19 1581,-151 1589.41,-149.64 1598.41,-147.64 1606.68,-145.57"/>
<polygon fill="#63b8ff" stroke="#63b8ff" points="994.99,-196.02 985.09,-199.79 995.18,-203.02 994.99,-196.02"/>
</a>
</g>
</g>
<!-- Node2&#45;&gt;Node19 -->
<g id="edge22_Node000002_Node000019" class="edge">
<title>Node2&#45;&gt;Node19</title>
<g id="a_edge22_Node000002_Node000019"><a xlink:title=" ">
<path fill="none" stroke="#63b8ff" d="M852.5,-198.17C718.92,-192.46 422.48,-177.74 174,-151 160.38,-149.53 145.72,-147.55 132.11,-145.53"/>
<polygon fill="#63b8ff" stroke="#63b8ff" points="852.47,-201.67 862.61,-198.6 852.76,-194.68 852.47,-201.67"/>
</a>
</g>
</g>
<!-- Node20 -->
<g id="Node000020" class="node">
<title>Node20</title>
<g id="a_Node000020"><a xlink:href="update__params_8cc.html" target="_top" xlink:title=" ">
<polygon fill="white" stroke="#666666" points="1136,-151 1002,-151 1002,-121 1136,-121 1136,-151"/>
<text text-anchor="start" x="1010" y="-139" font-family="Helvetica,sans-Serif" font-size="10.00">src/core/update_params</text>
<text text-anchor="middle" x="1069" y="-128" font-family="Helvetica,sans-Serif" font-size="10.00">/update_params.cc</text>
</a>
</g>
</g>
<!-- Node2&#45;&gt;Node20 -->
<g id="edge24_Node000002_Node000020" class="edge">
<title>Node2&#45;&gt;Node20</title>
<g id="a_edge24_Node000002_Node000020"><a xlink:title=" ">
<path fill="none" stroke="#63b8ff" d="M965.27,-182.78C988.13,-172.69 1016.12,-160.34 1037.25,-151.01"/>
<polygon fill="#63b8ff" stroke="#63b8ff" points="963.56,-179.71 955.82,-186.95 966.38,-186.12 963.56,-179.71"/>
</a>
</g>
</g>
<!-- Node4 -->
<g id="Node000004" class="node">
<title>Node4</title>
<g id="a_Node000004"><a xlink:href="kernels_8cu.html" target="_top" xlink:title=" ">
<polygon fill="white" stroke="#666666" points="1284,-79.5 1138,-79.5 1138,-60.5 1284,-60.5 1284,-79.5"/>
<text text-anchor="middle" x="1211" y="-67.5" font-family="Helvetica,sans-Serif" font-size="10.00">src/core/kernels/kernels.cu</text>
</a>
</g>
</g>
<!-- Node3&#45;&gt;Node4 -->
<g id="edge3_Node000003_Node000004" class="edge">
<title>Node3&#45;&gt;Node4</title>
<g id="a_edge3_Node000003_Node000004"><a xlink:title=" ">
<path fill="none" stroke="#63b8ff" d="M1211,-110.6C1211,-99.8 1211,-87.78 1211,-79.84"/>
<polygon fill="#63b8ff" stroke="#63b8ff" points="1207.5,-110.8 1211,-120.8 1214.5,-110.8 1207.5,-110.8"/>
</a>
</g>
</g>
<!-- Node9 -->
<g id="Node000009" class="node">
<title>Node9</title>
<g id="a_Node000009"><a xlink:href="compiler_8cpp.html" target="_top" xlink:title=" ">
<polygon fill="white" stroke="#666666" points="626,-85 508,-85 508,-55 626,-55 626,-85"/>
<text text-anchor="start" x="516" y="-73" font-family="Helvetica,sans-Serif" font-size="10.00">runtime_compilation</text>
<text text-anchor="middle" x="567" y="-62" font-family="Helvetica,sans-Serif" font-size="10.00">/compiler.cpp</text>
</a>
</g>
</g>
<!-- Node8&#45;&gt;Node9 -->
<g id="edge8_Node000008_Node000009" class="edge">
<title>Node8&#45;&gt;Node9</title>
<g id="a_edge8_Node000008_Node000009"><a xlink:title=" ">
<path fill="none" stroke="#63b8ff" d="M532.15,-113.09C539.8,-103.85 548.48,-93.36 555.27,-85.16"/>
<polygon fill="#63b8ff" stroke="#63b8ff" points="529.44,-110.86 525.76,-120.8 534.84,-115.33 529.44,-110.86"/>
</a>
</g>
</g>
<!-- Node10 -->
<g id="Node000010" class="node">
<title>Node10</title>
<g id="a_Node000010"><a xlink:href="decomposition_8cc.html" target="_top" xlink:title=" ">
<polygon fill="white" stroke="#666666" points="452,-85 322,-85 322,-55 452,-55 452,-85"/>
<text text-anchor="start" x="330" y="-73" font-family="Helvetica,sans-Serif" font-size="10.00">src/core/decomposition</text>
<text text-anchor="middle" x="387" y="-62" font-family="Helvetica,sans-Serif" font-size="10.00">/decomposition.cc</text>
</a>
</g>
</g>
<!-- Node8&#45;&gt;Node10 -->
<g id="edge9_Node000008_Node000010" class="edge">
<title>Node8&#45;&gt;Node10</title>
<g id="a_edge9_Node000008_Node000010"><a xlink:title=" ">
<path fill="none" stroke="#63b8ff" d="M477.05,-116.38C457.17,-106.36 433.07,-94.22 414.81,-85.01"/>
<polygon fill="#63b8ff" stroke="#63b8ff" points="475.62,-119.58 486.13,-120.95 478.77,-113.33 475.62,-119.58"/>
</a>
</g>
</g>
<!-- Node8&#45;&gt;Node11 -->
<g id="edge10_Node000008_Node000011" class="edge">
<title>Node8&#45;&gt;Node11</title>
<g id="a_edge10_Node000008_Node000011"><a xlink:title=" ">
<path fill="none" stroke="#63b8ff" d="M506.3,-110.97C503.8,-102.78 501.13,-93.53 499,-85 493.11,-61.45 487.94,-33.27 485.49,-19.28"/>
<polygon fill="#63b8ff" stroke="#63b8ff" points="503,-112.15 509.31,-120.66 509.68,-110.07 503,-112.15"/>
</a>
</g>
</g>
<!-- Node8&#45;&gt;Node12 -->
<g id="edge11_Node000008_Node000012" class="edge">
<title>Node8&#45;&gt;Node12</title>
<g id="a_edge11_Node000008_Node000012"><a xlink:title=" ">
<path fill="none" stroke="#63b8ff" d="M566.77,-117.86C598.4,-107.58 638.12,-94.68 667.87,-85.01"/>
<polygon fill="#63b8ff" stroke="#63b8ff" points="565.66,-114.54 557.23,-120.95 567.82,-121.19 565.66,-114.54"/>
</a>
</g>
</g>
<!-- Node8&#45;&gt;Node13 -->
<g id="edge12_Node000008_Node000013" class="edge">
<title>Node8&#45;&gt;Node13</title>
<g id="a_edge12_Node000008_Node000013"><a xlink:title=" ">
<path fill="none" stroke="#63b8ff" d="M446.57,-118.48C407.52,-108.85 357.45,-96.4 313,-85 306.18,-83.25 298.87,-81.34 291.93,-79.51"/>
<polygon fill="#63b8ff" stroke="#63b8ff" points="446.22,-122 456.76,-120.99 447.89,-115.2 446.22,-122"/>
</a>
</g>
</g>
<!-- Node13&#45;&gt;Node7 -->
<g id="edge13_Node000013_Node000007" class="edge">
<title>Node13&#45;&gt;Node7</title>
<g id="a_edge13_Node000013_Node000007"><a xlink:title=" ">
<path fill="none" stroke="#63b8ff" d="M229.86,-56.58C202.43,-45.28 162.66,-28.9 138.67,-19.02"/>
<polygon fill="#63b8ff" stroke="#63b8ff" points="228.77,-59.92 239.35,-60.49 231.44,-53.45 228.77,-59.92"/>
</a>
</g>
</g>
<!-- Node13&#45;&gt;Node11 -->
<g id="edge15_Node000013_Node000011" class="edge">
<title>Node13&#45;&gt;Node11</title>
<g id="a_edge15_Node000013_Node000011"><a xlink:title=" ">
<path fill="none" stroke="#63b8ff" d="M302.01,-57.89C305.73,-56.91 309.43,-55.94 313,-55 360.92,-42.44 416.44,-28.01 450.89,-19.08"/>
<polygon fill="#63b8ff" stroke="#63b8ff" points="301,-54.53 292.23,-60.47 302.79,-61.3 301,-54.53"/>
</a>
</g>
</g>
<!-- Node14 -->
<g id="Node000014" class="node">
<title>Node14</title>
<g id="a_Node000014"><a xlink:href="debug_8cc.html" target="_top" xlink:title=" ">
<polygon fill="white" stroke="#666666" points="310.5,-19 209.5,-19 209.5,0 310.5,0 310.5,-19"/>
<text text-anchor="middle" x="260" y="-7" font-family="Helvetica,sans-Serif" font-size="10.00">src/core/debug.cc</text>
</a>
</g>
</g>
<!-- Node13&#45;&gt;Node14 -->
<g id="edge14_Node000013_Node000014" class="edge">
<title>Node13&#45;&gt;Node14</title>
<g id="a_edge14_Node000013_Node000014"><a xlink:title=" ">
<path fill="none" stroke="#63b8ff" d="M260,-50.16C260,-39.74 260,-27.3 260,-19.17"/>
<polygon fill="#63b8ff" stroke="#63b8ff" points="256.5,-50.37 260,-60.37 263.5,-50.37 256.5,-50.37"/>
</a>
</g>
</g>
<!-- Node15 -->
<g id="Node000015" class="node">
<title>Node15</title>
<g id="a_Node000015"><a xlink:href="task_8cc.html" target="_top" xlink:title=" ">
<polygon fill="white" stroke="#666666" points="421,-19 329,-19 329,0 421,0 421,-19"/>
<text text-anchor="middle" x="375" y="-7" font-family="Helvetica,sans-Serif" font-size="10.00">src/core/task.cc</text>
</a>
</g>
</g>
<!-- Node13&#45;&gt;Node15 -->
<g id="edge16_Node000013_Node000015" class="edge">
<title>Node13&#45;&gt;Node15</title>
<g id="a_edge16_Node000013_Node000015"><a xlink:title=" ">
<path fill="none" stroke="#63b8ff" d="M286.09,-55.73C308.11,-44.53 338.99,-28.82 357.96,-19.17"/>
<polygon fill="#63b8ff" stroke="#63b8ff" points="284.29,-52.71 276.97,-60.37 287.47,-58.95 284.29,-52.71"/>
</a>
</g>
</g>
<!-- Node21&#45;&gt;Node2 -->
<g id="edge27_Node000021_Node000002" class="edge">
<title>Node21&#45;&gt;Node2</title>
<g id="a_edge27_Node000021_Node000002"><a xlink:title=" ">
<path fill="none" stroke="#63b8ff" d="M1354.74,-257.91C1255.73,-245.29 1078.25,-222.67 985.02,-210.78"/>
<polygon fill="#63b8ff" stroke="#63b8ff" points="1354.58,-261.42 1364.95,-259.22 1355.47,-254.48 1354.58,-261.42"/>
</a>
</g>
</g>
<!-- Node21&#45;&gt;Node5 -->
<g id="edge26_Node000021_Node000005" class="edge">
<title>Node21&#45;&gt;Node5</title>
<g id="a_edge26_Node000021_Node000005"><a xlink:title=" ">
<path fill="none" stroke="#63b8ff" d="M1414.12,-243.84C1407.27,-227.02 1401.84,-204.27 1412,-187 1421.79,-170.36 1439.34,-158.86 1456.35,-151.13"/>
<polygon fill="#63b8ff" stroke="#63b8ff" points="1410.93,-245.28 1418.21,-252.98 1417.32,-242.42 1410.93,-245.28"/>
</a>
</g>
</g>
<!-- Node21&#45;&gt;Node6 -->
<g id="edge28_Node000021_Node000006" class="edge">
<title>Node21&#45;&gt;Node6</title>
<g id="a_edge28_Node000021_Node000006"><a xlink:title=" ">
<path fill="none" stroke="#63b8ff" d="M1412.62,-244.11C1395.52,-214.86 1366.75,-165.65 1355.11,-145.75"/>
<polygon fill="#63b8ff" stroke="#63b8ff" points="1409.65,-245.97 1417.72,-252.84 1415.7,-242.44 1409.65,-245.97"/>
</a>
</g>
</g>
<!-- Node21&#45;&gt;Node18 -->
<g id="edge33_Node000021_Node000018" class="edge">
<title>Node21&#45;&gt;Node18</title>
<g id="a_edge33_Node000021_Node000018"><a xlink:title=" ">
<path fill="none" stroke="#63b8ff" d="M1425.49,-242.63C1426.45,-224.93 1430.7,-201.62 1445,-187 1446.41,-185.56 1548.75,-159.41 1603.42,-145.51"/>
<polygon fill="#63b8ff" stroke="#63b8ff" points="1421.98,-242.71 1425.25,-252.79 1428.98,-242.88 1421.98,-242.71"/>
</a>
</g>
</g>
<!-- Node22 -->
<g id="Node000022" class="node">
<title>Node22</title>
<g id="a_Node000022"><a xlink:href="astaroth_8cc.html" target="_top" xlink:title=" ">
<polygon fill="white" stroke="#666666" points="1566,-211.5 1454,-211.5 1454,-192.5 1566,-192.5 1566,-211.5"/>
<text text-anchor="middle" x="1510" y="-199.5" font-family="Helvetica,sans-Serif" font-size="10.00">src/core/astaroth.cc</text>
</a>
</g>
</g>
<!-- Node21&#45;&gt;Node22 -->
<g id="edge29_Node000021_Node000022" class="edge">
<title>Node21&#45;&gt;Node22</title>
<g id="a_edge29_Node000021_Node000022"><a xlink:title=" ">
<path fill="none" stroke="#63b8ff" d="M1452.79,-246.58C1468.16,-234.87 1486.67,-220.77 1498.39,-211.84"/>
<polygon fill="#63b8ff" stroke="#63b8ff" points="1450.48,-243.95 1444.64,-252.8 1454.72,-249.52 1450.48,-243.95"/>
</a>
</g>
</g>
<!-- Node21&#45;&gt;Node23 -->
<g id="edge30_Node000021_Node000023" class="edge">
<title>Node21&#45;&gt;Node23</title>
<g id="a_edge30_Node000021_Node000023"><a xlink:title=" ">
<path fill="none" stroke="#63b8ff" d="M1497.06,-261.14C1594.28,-252.85 1774.17,-236.5 1927,-217 1939.39,-215.42 1952.71,-213.48 1965.19,-211.56"/>
<polygon fill="#63b8ff" stroke="#63b8ff" points="1496.72,-257.66 1487.05,-261.99 1497.31,-264.64 1496.72,-257.66"/>
</a>
</g>
</g>
<!-- Node24 -->
<g id="Node000024" class="node">
<title>Node24</title>
<g id="a_Node000024"><a xlink:href="transpose_8cc.html" target="_top" xlink:title=" ">
<polygon fill="white" stroke="#666666" points="1742,-211.5 1584,-211.5 1584,-192.5 1742,-192.5 1742,-211.5"/>
<text text-anchor="middle" x="1663" y="-199.5" font-family="Helvetica,sans-Serif" font-size="10.00">src/core/kernels/transpose.cc</text>
</a>
</g>
</g>
<!-- Node21&#45;&gt;Node24 -->
<g id="edge31_Node000021_Node000024" class="edge">
<title>Node21&#45;&gt;Node24</title>
<g id="a_edge31_Node000021_Node000024"><a xlink:title=" ">
<path fill="none" stroke="#63b8ff" d="M1487.9,-250.29C1533.97,-237.84 1594.96,-221.37 1631.46,-211.52"/>
<polygon fill="#63b8ff" stroke="#63b8ff" points="1486.75,-246.97 1478.01,-252.95 1488.58,-253.73 1486.75,-246.97"/>
</a>
</g>
</g>
<!-- Node25 -->
<g id="Node000025" class="node">
<title>Node25</title>
<g id="a_Node000025"><a xlink:href="transpose_8cu.html" target="_top" xlink:title=" ">
<polygon fill="white" stroke="#666666" points="1918,-211.5 1760,-211.5 1760,-192.5 1918,-192.5 1918,-211.5"/>
<text text-anchor="middle" x="1839" y="-199.5" font-family="Helvetica,sans-Serif" font-size="10.00">src/core/kernels/transpose.cu</text>
</a>
</g>
</g>
<!-- Node21&#45;&gt;Node25 -->
<g id="edge32_Node000021_Node000025" class="edge">
<title>Node21&#45;&gt;Node25</title>
<g id="a_edge32_Node000021_Node000025"><a xlink:title=" ">
<path fill="none" stroke="#63b8ff" d="M1497.38,-256.13C1563.24,-246.07 1663.73,-230.65 1751,-217 1762.16,-215.25 1774.11,-213.37 1785.49,-211.56"/>
<polygon fill="#63b8ff" stroke="#63b8ff" points="1496.47,-252.72 1487.11,-257.69 1497.53,-259.64 1496.47,-252.72"/>
</a>
</g>
</g>
</g>
</svg>

<g id="navigator" transform="translate(0 0)" fill="#404254">
  <rect fill="#f2f5e9" fill-opacity="0.5" stroke="#606060" stroke-width=".5" x="0" y="0" width="60" height="60"/>
  <use id="zoomplus" xlink:href="#zoomPlus" x="17" y="9" onmousedown="handleZoom(evt,'in')"/>
  <use id="zoomminus" xlink:href="#zoomMin" x="42" y="9" onmousedown="handleZoom(evt,'out')"/>
  <use id="reset" xlink:href="#resetDef" x="30" y="36" onmousedown="handleReset()"/>
   <use id="arrowup" xlink:href="#arrowUp" x="0" y="0" onmousedown="handlePan(0,-1)"/>
  <use id="arrowright" xlink:href="#arrowRight" x="0" y="0" onmousedown="handlePan(1,0)"/>
  <use id="arrowdown" xlink:href="#arrowDown" x="0" y="0" onmousedown="handlePan(0,1)"/>
  <use id="arrowleft" xlink:href="#arrowLeft" x="0" y="0" onmousedown="handlePan(-1,0)"/>
</g>
<svg viewBox="0 0 15 15" width="100%" height="30px" preserveAspectRatio="xMaxYMin meet">
 <g id="arrow_out" transform="scale(0.3 0.3)">
  <a xlink:href="func__attributes_8h__dep__incl_org.svg" target="_base">
   <rect id="button" ry="5" rx="5" y="6" x="6" height="38" width="38"
        fill="#f2f5e9" fill-opacity="0.5" stroke="#606060" stroke-width="1.0"/>
   <path id="arrow"
     d="M 11.500037,31.436501 C 11.940474,20.09759 22.043105,11.32322 32.158766,21.979434 L 37.068811,17.246167 C 37.068811,17.246167 37.088388,32 37.088388,32 L 22.160133,31.978069 C 22.160133,31.978069 26.997745,27.140456 26.997745,27.140456 C 18.528582,18.264221 13.291696,25.230495 11.500037,31.436501 z"
     style="fill:#404040;"/>
  </a>
 </g>
</svg>

<style type='text/css'>
<![CDATA[
[data-mouse-over-selected='false'] { opacity: 0.7; }
[data-mouse-over-selected='true']  { opacity: 1.0; }
]]>
</style>
<script type="application/ecmascript"><![CDATA[
document.addEventListener('DOMContentLoaded', (event) => {
  highlightEdges();
  highlightAdjacentNodes();
});
]]></script>
</svg>
