<?xml version="1.0" encoding="UTF-8" standalone="no"?>
<!DOCTYPE svg PUBLIC "-//W3C//DTD SVG 1.1//EN"
 "http://www.w3.org/Graphics/SVG/1.1/DTD/svg11.dtd">
<!-- Generated by graphviz version 2.43.0 (0)
 -->
<!-- Title: acc&#45;runtime/api/func_attributes.h Pages: 1 -->
<!--zoomable 313 -->

<svg id="main" version="1.1" xmlns="http://www.w3.org/2000/svg" xmlns:xlink="http://www.w3.org/1999/xlink" xml:space="preserve" onload="init(evt)">
<style type="text/css"><![CDATA[
.node, .edge {opacity: 0.7;}
.node.selected, .edge.selected {opacity: 1;}
.edge:hover path { stroke: red; }
.edge:hover polygon { stroke: red; fill: red; }
]]></style>

<defs>
  <circle id="rim" cx="0" cy="0" r="7"/>
  <circle id="rim2" cx="0" cy="0" r="3.5"/>
  <g id="zoomPlus">
    <use xlink:href="#rim" fill="#404040"><set attributeName="fill" to="#808080" begin="zoomplus.mouseover" end="zoomplus.mouseout"/></use>
    <path d="M-4,0h8M0,-4v8" fill="none" stroke="white" stroke-width="1.5" pointer-events="none"/>
  </g>
  <g id="zoomMin">
    <use xlink:href="#rim" fill="#404040"><set attributeName="fill" to="#808080" begin="zoomminus.mouseover" end="zoomminus.mouseout"/></use>
    <path d="M-4,0h8" fill="none" stroke="white" stroke-width="1.5" pointer-events="none"/>
  </g>
  <g id="arrowUp" transform="translate(30 24)">
    <use xlink:href="#rim"/>
    <path pointer-events="none" fill="none" stroke="white" stroke-width="1.5" d="M0,-3.0v7 M-2.5,-0.5L0,-3.0L2.5,-0.5"/>
  </g>
  <g id="arrowRight" transform="rotate(90) translate(36 -43)">
    <use xlink:href="#rim"/>
    <path pointer-events="none" fill="none" stroke="white" stroke-width="1.5" d="M0,-3.0v7 M-2.5,-0.5L0,-3.0L2.5,-0.5"/>
  </g>
  <g id="arrowDown" transform="rotate(180) translate(-30 -48)">
    <use xlink:href="#rim"/>
    <path pointer-events="none" fill="none" stroke="white" stroke-width="1.5" d="M0,-3.0v7 M-2.5,-0.5L0,-3.0L2.5,-0.5"/>
  </g>
  <g id="arrowLeft" transform="rotate(270) translate(-36 17)">
    <use xlink:href="#rim"/>
    <path pointer-events="none" fill="none" stroke="white" stroke-width="1.5" d="M0,-3.0v7 M-2.5,-0.5L0,-3.0L2.5,-0.5"/>
  </g>
  <g id="resetDef">
    <use xlink:href="#rim2" fill="#404040"><set attributeName="fill" to="#808080" begin="reset.mouseover" end="reset.mouseout"/></use>
  </g>
</defs>
<script type="application/ecmascript">
var viewWidth = 2885;
var viewHeight = 313;
var sectionId = 'dynsection-0';
</script>
<script type="application/ecmascript" xlink:href="svg.min.js"/>
<svg id="graph" class="graph">
<g id="viewport">
<title>acc&#45;runtime/api/func_attributes.h</title>
<!-- Node1 -->
<g id="Node000001" class="node">
<title>Node1</title>
<g id="a_Node000001"><a xlink:title=" ">
<polygon fill="#999999" stroke="#666666" points="1078.5,-305 961.5,-305 961.5,-275 1078.5,-275 1078.5,-305"/>
<text text-anchor="start" x="969.5" y="-293" font-family="Helvetica,sans-Serif" font-size="10.00">acc&#45;runtime/api/func</text>
<text text-anchor="middle" x="1020" y="-282" font-family="Helvetica,sans-Serif" font-size="10.00">_attributes.h</text>
</a>
</g>
</g>
<!-- Node2 -->
<g id="Node000002" class="node">
<title>Node2</title>
<g id="a_Node000002"><a xlink:href="math__utils_8h.html" target="_top" xlink:title="Brief info.">
<polygon fill="white" stroke="#666666" points="1293,-173 1171,-173 1171,-143 1293,-143 1293,-173"/>
<text text-anchor="start" x="1179" y="-161" font-family="Helvetica,sans-Serif" font-size="10.00">acc&#45;runtime/api/math</text>
<text text-anchor="middle" x="1232" y="-150" font-family="Helvetica,sans-Serif" font-size="10.00">_utils.h</text>
</a>
</g>
</g>
<!-- Node1&#45;&gt;Node2 -->
<g id="edge1_Node000001_Node000002" class="edge">
<title>Node1&#45;&gt;Node2</title>
<g id="a_edge1_Node000001_Node000002"><a xlink:title=" ">
<path fill="none" stroke="#63b8ff" d="M1051.77,-269.52C1094.88,-243.09 1170.88,-196.48 1208.94,-173.14"/>
<polygon fill="#63b8ff" stroke="#63b8ff" points="1049.79,-266.63 1043.09,-274.84 1053.45,-272.6 1049.79,-266.63"/>
</a>
</g>
</g>
<!-- Node6 -->
<g id="Node000006" class="node">
<title>Node6</title>
<g id="a_Node000006"><a xlink:href="vba_8cc.html" target="_top" xlink:title=" ">
<polygon fill="white" stroke="#666666" points="128,-96 0,-96 0,-77 128,-77 128,-96"/>
<text text-anchor="middle" x="64" y="-84" font-family="Helvetica,sans-Serif" font-size="10.00">acc&#45;runtime/api/vba.cc</text>
</a>
</g>
</g>
<!-- Node1&#45;&gt;Node6 -->
<g id="edge35_Node000001_Node000006" class="edge">
<title>Node1&#45;&gt;Node6</title>
<g id="a_edge35_Node000001_Node000006"><a xlink:title=" ">
<path fill="none" stroke="#63b8ff" d="M951.09,-280.34C827.45,-264.13 560.22,-225.98 339,-173 244.43,-150.35 134.82,-112.76 87.61,-96.01"/>
<polygon fill="#63b8ff" stroke="#63b8ff" points="950.8,-283.84 961.17,-281.66 951.71,-276.89 950.8,-283.84"/>
</a>
</g>
</g>
<!-- Node26 -->
<g id="Node000026" class="node">
<title>Node26</title>
<g id="a_Node000026"><a xlink:href="math__utils__base_8h.html" target="_top" xlink:title=" ">
<polygon fill="white" stroke="#666666" points="1037,-239 915,-239 915,-209 1037,-209 1037,-239"/>
<text text-anchor="start" x="923" y="-227" font-family="Helvetica,sans-Serif" font-size="10.00">acc&#45;runtime/api/math</text>
<text text-anchor="middle" x="976" y="-216" font-family="Helvetica,sans-Serif" font-size="10.00">_utils_base.h</text>
</a>
</g>
</g>
<!-- Node1&#45;&gt;Node26 -->
<g id="edge26_Node000001_Node000026" class="edge">
<title>Node1&#45;&gt;Node26</title>
<g id="a_edge26_Node000001_Node000026"><a xlink:title=" ">
<path fill="none" stroke="#63b8ff" d="M1004.55,-266.53C998.29,-257.43 991.26,-247.19 985.74,-239.16"/>
<polygon fill="#63b8ff" stroke="#63b8ff" points="1001.69,-268.54 1010.23,-274.8 1007.45,-264.57 1001.69,-268.54"/>
</a>
</g>
</g>
<!-- Node28 -->
<g id="Node000028" class="node">
<title>Node28</title>
<g id="a_Node000028"><a xlink:href="reductions_8cu.html" target="_top" xlink:title=" ">
<polygon fill="white" stroke="#666666" points="1472.5,-167.5 1311.5,-167.5 1311.5,-148.5 1472.5,-148.5 1472.5,-167.5"/>
<text text-anchor="middle" x="1392" y="-155.5" font-family="Helvetica,sans-Serif" font-size="10.00">src/core/kernels/reductions.cu</text>
</a>
</g>
</g>
<!-- Node1&#45;&gt;Node28 -->
<g id="edge36_Node000001_Node000028" class="edge">
<title>Node1&#45;&gt;Node28</title>
<g id="a_edge36_Node000001_Node000028"><a xlink:title=" ">
<path fill="none" stroke="#63b8ff" d="M1069.61,-271.66C1150.27,-243.47 1306.91,-188.73 1367.37,-167.61"/>
<polygon fill="#63b8ff" stroke="#63b8ff" points="1068.45,-268.36 1060.16,-274.96 1070.76,-274.97 1068.45,-268.36"/>
</a>
</g>
</g>
<!-- Node3 -->
<g id="Node000003" class="node">
<title>Node3</title>
<g id="a_Node000003"><a xlink:href="acc__runtime_8cu.html" target="_top" xlink:title=" ">
<polygon fill="white" stroke="#666666" points="2278.5,-101.5 2165.5,-101.5 2165.5,-71.5 2278.5,-71.5 2278.5,-101.5"/>
<text text-anchor="start" x="2173.5" y="-89.5" font-family="Helvetica,sans-Serif" font-size="10.00">acc&#45;runtime/api/acc</text>
<text text-anchor="middle" x="2222" y="-78.5" font-family="Helvetica,sans-Serif" font-size="10.00">_runtime.cu</text>
</a>
</g>
</g>
<!-- Node2&#45;&gt;Node3 -->
<g id="edge2_Node000002_Node000003" class="edge">
<title>Node2&#45;&gt;Node3</title>
<g id="a_edge2_Node000002_Node000003"><a xlink:title=" ">
<path fill="none" stroke="#63b8ff" d="M1303.48,-142.96C1680.99,-98.86 1784.54,-168.74 2156,-107 2163.9,-105.69 2172.18,-103.73 2180.11,-101.55"/>
<polygon fill="#63b8ff" stroke="#63b8ff" points="1302.89,-139.51 1293.37,-144.17 1303.72,-146.46 1302.89,-139.51"/>
</a>
</g>
</g>
<!-- Node5 -->
<g id="Node000005" class="node">
<title>Node5</title>
<g id="a_Node000005"><a xlink:href="common__kernels_8cc.html" target="_top" xlink:title=" ">
<polygon fill="white" stroke="#666666" points="398.5,-101.5 259.5,-101.5 259.5,-71.5 398.5,-71.5 398.5,-101.5"/>
<text text-anchor="start" x="267.5" y="-89.5" font-family="Helvetica,sans-Serif" font-size="10.00">acc&#45;runtime/api/common</text>
<text text-anchor="middle" x="329" y="-78.5" font-family="Helvetica,sans-Serif" font-size="10.00">_kernels.cc</text>
</a>
</g>
</g>
<!-- Node2&#45;&gt;Node5 -->
<g id="edge4_Node000002_Node000005" class="edge">
<title>Node2&#45;&gt;Node5</title>
<g id="a_edge4_Node000002_Node000005"><a xlink:title=" ">
<path fill="none" stroke="#63b8ff" d="M1160.96,-148.94C1140.35,-146.79 1117.79,-144.62 1097,-143 790.84,-119.15 710.7,-152.45 407,-107 397.89,-105.64 388.29,-103.68 379.06,-101.53"/>
<polygon fill="#63b8ff" stroke="#63b8ff" points="1160.59,-152.42 1170.9,-149.99 1161.33,-145.46 1160.59,-152.42"/>
</a>
</g>
</g>
<!-- Node2&#45;&gt;Node6 -->
<g id="edge5_Node000002_Node000006" class="edge">
<title>Node2&#45;&gt;Node6</title>
<g id="a_edge5_Node000002_Node000006"><a xlink:title=" ">
<path fill="none" stroke="#63b8ff" d="M1160.3,-150.32C1130.53,-147.73 1095.62,-144.93 1064,-143 652.46,-117.87 544.69,-168.58 137,-107 121.31,-104.63 104.14,-100.14 90.4,-96.07"/>
<polygon fill="#63b8ff" stroke="#63b8ff" points="1160.34,-153.84 1170.61,-151.23 1160.95,-146.86 1160.34,-153.84"/>
</a>
</g>
</g>
<!-- Node7 -->
<g id="Node000007" class="node">
<title>Node7</title>
<g id="a_Node000007"><a xlink:href="decomposition_8h.html" target="_top" xlink:title=" ">
<polygon fill="white" stroke="#666666" points="2427,-101.5 2297,-101.5 2297,-71.5 2427,-71.5 2427,-101.5"/>
<text text-anchor="start" x="2305" y="-89.5" font-family="Helvetica,sans-Serif" font-size="10.00">src/core/decomposition</text>
<text text-anchor="middle" x="2362" y="-78.5" font-family="Helvetica,sans-Serif" font-size="10.00">/decomposition.h</text>
</a>
</g>
</g>
<!-- Node2&#45;&gt;Node7 -->
<g id="edge6_Node000002_Node000007" class="edge">
<title>Node2&#45;&gt;Node7</title>
<g id="a_edge6_Node000002_Node000007"><a xlink:title=" ">
<path fill="none" stroke="#63b8ff" d="M1303.39,-142.98C1738.86,-93.06 1856.84,-170.01 2287,-107 2295.92,-105.69 2305.31,-103.74 2314.31,-101.56"/>
<polygon fill="#63b8ff" stroke="#63b8ff" points="1302.9,-139.51 1293.37,-144.15 1303.71,-146.47 1302.9,-139.51"/>
</a>
</g>
</g>
<!-- Node9 -->
<g id="Node000009" class="node">
<title>Node9</title>
<g id="a_Node000009"><a xlink:href="task_8h.html" target="_top" xlink:title=" ">
<polygon fill="white" stroke="#666666" points="2516,-24.5 2428,-24.5 2428,-5.5 2516,-5.5 2516,-24.5"/>
<text text-anchor="middle" x="2472" y="-12.5" font-family="Helvetica,sans-Serif" font-size="10.00">src/core/task.h</text>
</a>
</g>
</g>
<!-- Node2&#45;&gt;Node9 -->
<g id="edge12_Node000002_Node000009" class="edge">
<title>Node2&#45;&gt;Node9</title>
<g id="a_edge12_Node000002_Node000009"><a xlink:title=" ">
<path fill="none" stroke="#63b8ff" d="M1303.53,-143.35C1431.27,-136.24 2386.15,-142.06 2436,-107 2463.66,-87.55 2470.07,-43.35 2471.55,-24.63"/>
<polygon fill="#63b8ff" stroke="#63b8ff" points="1303.07,-139.87 1293.37,-144.13 1303.61,-146.85 1303.07,-139.87"/>
</a>
</g>
</g>
<!-- Node10 -->
<g id="Node000010" class="node">
<title>Node10</title>
<g id="a_Node000010"><a xlink:href="device_8cc.html" target="_top" xlink:title=" ">
<polygon fill="white" stroke="#666666" points="2587,-96 2483,-96 2483,-77 2587,-77 2587,-96"/>
<text text-anchor="middle" x="2535" y="-84" font-family="Helvetica,sans-Serif" font-size="10.00">src/core/device.cc</text>
</a>
</g>
</g>
<!-- Node2&#45;&gt;Node10 -->
<g id="edge9_Node000002_Node000010" class="edge">
<title>Node2&#45;&gt;Node10</title>
<g id="a_edge9_Node000002_Node000010"><a xlink:title=" ">
<path fill="none" stroke="#63b8ff" d="M1303.68,-142.96C1819.39,-85.29 1960.01,-188.65 2469,-107 2483.39,-104.69 2499.06,-100.15 2511.51,-96.04"/>
<polygon fill="#63b8ff" stroke="#63b8ff" points="1302.91,-139.52 1293.37,-144.13 1303.7,-146.48 1302.91,-139.52"/>
</a>
</g>
</g>
<!-- Node11 -->
<g id="Node000011" class="node">
<title>Node11</title>
<g id="a_Node000011"><a xlink:href="pack__unpack_8cuh.html" target="_top" xlink:title=" ">
<polygon fill="white" stroke="#666666" points="2724.5,-101.5 2605.5,-101.5 2605.5,-71.5 2724.5,-71.5 2724.5,-101.5"/>
<text text-anchor="start" x="2613.5" y="-89.5" font-family="Helvetica,sans-Serif" font-size="10.00">src/core/kernels/pack</text>
<text text-anchor="middle" x="2665" y="-78.5" font-family="Helvetica,sans-Serif" font-size="10.00">_unpack.cuh</text>
</a>
</g>
</g>
<!-- Node2&#45;&gt;Node11 -->
<g id="edge10_Node000002_Node000011" class="edge">
<title>Node2&#45;&gt;Node11</title>
<g id="a_edge10_Node000002_Node000011"><a xlink:title=" ">
<path fill="none" stroke="#63b8ff" d="M1303.52,-142.98C1875.5,-79.7 2030.6,-193.39 2596,-107 2604.37,-105.72 2613.16,-103.75 2621.56,-101.53"/>
<polygon fill="#63b8ff" stroke="#63b8ff" points="1302.92,-139.52 1293.37,-144.11 1303.69,-146.48 1302.92,-139.52"/>
</a>
</g>
</g>
<!-- Node12 -->
<g id="Node000012" class="node">
<title>Node12</title>
<g id="a_Node000012"><a xlink:href="node_8cc.html" target="_top" xlink:title="Multi&#45;GPU implementation.">
<polygon fill="white" stroke="#666666" points="241.5,-96 146.5,-96 146.5,-77 241.5,-77 241.5,-96"/>
<text text-anchor="middle" x="194" y="-84" font-family="Helvetica,sans-Serif" font-size="10.00">src/core/node.cc</text>
</a>
</g>
</g>
<!-- Node2&#45;&gt;Node12 -->
<g id="edge11_Node000002_Node000012" class="edge">
<title>Node2&#45;&gt;Node12</title>
<g id="a_edge11_Node000002_Node000012"><a xlink:title=" ">
<path fill="none" stroke="#63b8ff" d="M1160.67,-150.44C1130.82,-147.85 1095.75,-145.02 1064,-143 702.6,-119.96 605.64,-175.26 250,-107 237.77,-104.65 224.59,-100.17 214.09,-96.09"/>
<polygon fill="#63b8ff" stroke="#63b8ff" points="1160.73,-153.96 1171,-151.34 1161.34,-146.98 1160.73,-153.96"/>
</a>
</g>
</g>
<!-- Node13 -->
<g id="Node000013" class="node">
<title>Node13</title>
<g id="a_Node000013"><a xlink:href="update__params_8cc.html" target="_top" xlink:title=" ">
<polygon fill="white" stroke="#666666" points="2877,-101.5 2743,-101.5 2743,-71.5 2877,-71.5 2877,-101.5"/>
<text text-anchor="start" x="2751" y="-89.5" font-family="Helvetica,sans-Serif" font-size="10.00">src/core/update_params</text>
<text text-anchor="middle" x="2810" y="-78.5" font-family="Helvetica,sans-Serif" font-size="10.00">/update_params.cc</text>
</a>
</g>
</g>
<!-- Node2&#45;&gt;Node13 -->
<g id="edge13_Node000002_Node000013" class="edge">
<title>Node2&#45;&gt;Node13</title>
<g id="a_edge13_Node000002_Node000013"><a xlink:title=" ">
<path fill="none" stroke="#63b8ff" d="M1303.66,-142.97C1936.53,-73.62 2106.81,-194.2 2734,-107 2743.17,-105.72 2752.84,-103.75 2762.08,-101.54"/>
<polygon fill="#63b8ff" stroke="#63b8ff" points="1302.92,-139.53 1293.37,-144.11 1303.69,-146.48 1302.92,-139.53"/>
</a>
</g>
</g>
<!-- Node14 -->
<g id="Node000014" class="node">
<title>Node14</title>
<g id="a_Node000014"><a xlink:href="stdlib_2geometric__multigrid_8h.html" target="_top" xlink:title=" ">
<polygon fill="white" stroke="#666666" points="571.5,-96 416.5,-96 416.5,-77 571.5,-77 571.5,-96"/>
<text text-anchor="middle" x="494" y="-84" font-family="Helvetica,sans-Serif" font-size="10.00">stdlib/geometric_multigrid.h</text>
</a>
</g>
</g>
<!-- Node2&#45;&gt;Node14 -->
<g id="edge14_Node000002_Node000014" class="edge">
<title>Node2&#45;&gt;Node14</title>
<g id="a_edge14_Node000002_Node000014"><a xlink:title=" ">
<path fill="none" stroke="#63b8ff" d="M1160.94,-149.18C1140.33,-147.03 1117.78,-144.8 1097,-143 867.97,-123.14 808.48,-140.23 581,-107 562.93,-104.36 543.03,-100.01 526.83,-96.09"/>
<polygon fill="#63b8ff" stroke="#63b8ff" points="1160.58,-152.66 1170.89,-150.22 1161.31,-145.7 1160.58,-152.66"/>
</a>
</g>
</g>
<!-- Node15 -->
<g id="Node000015" class="node">
<title>Node15</title>
<g id="a_Node000015"><a xlink:href="bwtest_8cu.html" target="_top" xlink:title=" ">
<polygon fill="white" stroke="#666666" points="712,-96 590,-96 590,-77 712,-77 712,-96"/>
<text text-anchor="middle" x="651" y="-84" font-family="Helvetica,sans-Serif" font-size="10.00">test/bwtest/bwtest.cu</text>
</a>
</g>
</g>
<!-- Node2&#45;&gt;Node15 -->
<g id="edge15_Node000002_Node000015" class="edge">
<title>Node2&#45;&gt;Node15</title>
<g id="a_edge15_Node000002_Node000015"><a xlink:title=" ">
<path fill="none" stroke="#63b8ff" d="M1160.91,-149.52C1140.3,-147.38 1117.75,-145.07 1097,-143 929.95,-126.34 886.05,-137.64 721,-107 706.36,-104.28 690.35,-99.93 677.33,-96.02"/>
<polygon fill="#63b8ff" stroke="#63b8ff" points="1160.55,-153 1170.86,-150.56 1161.27,-146.04 1160.55,-153"/>
</a>
</g>
</g>
<!-- Node16 -->
<g id="Node000016" class="node">
<title>Node16</title>
<g id="a_Node000016"><a xlink:href="main_8cu.html" target="_top" xlink:title=" ">
<polygon fill="white" stroke="#666666" points="826,-101.5 730,-101.5 730,-71.5 826,-71.5 826,-101.5"/>
<text text-anchor="start" x="738" y="-89.5" font-family="Helvetica,sans-Serif" font-size="10.00">test/fft&#45;shift&#45;test</text>
<text text-anchor="middle" x="778" y="-78.5" font-family="Helvetica,sans-Serif" font-size="10.00">/main.cu</text>
</a>
</g>
</g>
<!-- Node2&#45;&gt;Node16 -->
<g id="edge16_Node000002_Node000016" class="edge">
<title>Node2&#45;&gt;Node16</title>
<g id="a_edge16_Node000002_Node000016"><a xlink:title=" ">
<path fill="none" stroke="#63b8ff" d="M1160.59,-149.78C1063.55,-139.66 895.22,-120.94 835,-107 828.58,-105.51 821.87,-103.58 815.4,-101.5"/>
<polygon fill="#63b8ff" stroke="#63b8ff" points="1160.31,-153.27 1170.62,-150.82 1161.03,-146.31 1160.31,-153.27"/>
</a>
</g>
</g>
<!-- Node17 -->
<g id="Node000017" class="node">
<title>Node17</title>
<g id="a_Node000017"><a xlink:href="multigrid-tests_2anisotropic-test_2main_8cc.html" target="_top" xlink:title=" ">
<polygon fill="white" stroke="#666666" points="981.5,-101.5 844.5,-101.5 844.5,-71.5 981.5,-71.5 981.5,-101.5"/>
<text text-anchor="start" x="852.5" y="-89.5" font-family="Helvetica,sans-Serif" font-size="10.00">test/multigrid&#45;tests</text>
<text text-anchor="middle" x="913" y="-78.5" font-family="Helvetica,sans-Serif" font-size="10.00">/anisotropic&#45;test/main.cc</text>
</a>
</g>
</g>
<!-- Node2&#45;&gt;Node17 -->
<g id="edge17_Node000002_Node000017" class="edge">
<title>Node2&#45;&gt;Node17</title>
<g id="a_edge17_Node000002_Node000017"><a xlink:title=" ">
<path fill="none" stroke="#63b8ff" d="M1160.94,-143.04C1112.86,-133.41 1047.97,-120.03 991,-107 983.52,-105.29 975.65,-103.41 967.91,-101.52"/>
<polygon fill="#63b8ff" stroke="#63b8ff" points="1160.45,-146.51 1170.94,-145.04 1161.82,-139.65 1160.45,-146.51"/>
</a>
</g>
</g>
<!-- Node18 -->
<g id="Node000018" class="node">
<title>Node18</title>
<g id="a_Node000018"><a xlink:href="multigrid-tests_2compact-stencil-multigrid-test_2main_8cc.html" target="_top" xlink:title=" ">
<polygon fill="white" stroke="#666666" points="1146,-107 1000,-107 1000,-66 1146,-66 1146,-107"/>
<text text-anchor="start" x="1008" y="-95" font-family="Helvetica,sans-Serif" font-size="10.00">test/multigrid&#45;tests</text>
<text text-anchor="start" x="1008" y="-84" font-family="Helvetica,sans-Serif" font-size="10.00">/compact&#45;stencil&#45;multigrid</text>
<text text-anchor="middle" x="1073" y="-73" font-family="Helvetica,sans-Serif" font-size="10.00">&#45;test/main.cc</text>
</a>
</g>
</g>
<!-- Node2&#45;&gt;Node18 -->
<g id="edge18_Node000002_Node000018" class="edge">
<title>Node2&#45;&gt;Node18</title>
<g id="a_edge18_Node000002_Node000018"><a xlink:title=" ">
<path fill="none" stroke="#63b8ff" d="M1190.6,-138.9C1168.24,-129.13 1140.63,-117.06 1117.78,-107.07"/>
<polygon fill="#63b8ff" stroke="#63b8ff" points="1189.26,-142.14 1199.82,-142.94 1192.06,-135.72 1189.26,-142.14"/>
</a>
</g>
</g>
<!-- Node19 -->
<g id="Node000019" class="node">
<title>Node19</title>
<g id="a_Node000019"><a xlink:href="multigrid-tests_2line-smoother-multigrid-test_2main_8cc.html" target="_top" xlink:title=" ">
<polygon fill="white" stroke="#666666" points="1300,-107 1164,-107 1164,-66 1300,-66 1300,-107"/>
<text text-anchor="start" x="1172" y="-95" font-family="Helvetica,sans-Serif" font-size="10.00">test/multigrid&#45;tests</text>
<text text-anchor="start" x="1172" y="-84" font-family="Helvetica,sans-Serif" font-size="10.00">/line&#45;smoother&#45;multigrid</text>
<text text-anchor="middle" x="1232" y="-73" font-family="Helvetica,sans-Serif" font-size="10.00">&#45;test/main.cc</text>
</a>
</g>
</g>
<!-- Node2&#45;&gt;Node19 -->
<g id="edge19_Node000002_Node000019" class="edge">
<title>Node2&#45;&gt;Node19</title>
<g id="a_edge19_Node000002_Node000019"><a xlink:title=" ">
<path fill="none" stroke="#63b8ff" d="M1232,-132.91C1232,-124.47 1232,-115.1 1232,-107.07"/>
<polygon fill="#63b8ff" stroke="#63b8ff" points="1228.5,-132.94 1232,-142.94 1235.5,-132.94 1228.5,-132.94"/>
</a>
</g>
</g>
<!-- Node20 -->
<g id="Node000020" class="node">
<title>Node20</title>
<g id="a_Node000020"><a xlink:href="multigrid-tests_2multigrid-test_2main_8cc.html" target="_top" xlink:title=" ">
<polygon fill="white" stroke="#666666" points="1446,-101.5 1318,-101.5 1318,-71.5 1446,-71.5 1446,-101.5"/>
<text text-anchor="start" x="1326" y="-89.5" font-family="Helvetica,sans-Serif" font-size="10.00">test/multigrid&#45;tests</text>
<text text-anchor="middle" x="1382" y="-78.5" font-family="Helvetica,sans-Serif" font-size="10.00">/multigrid&#45;test/main.cc</text>
</a>
</g>
</g>
<!-- Node2&#45;&gt;Node20 -->
<g id="edge20_Node000002_Node000020" class="edge">
<title>Node2&#45;&gt;Node20</title>
<g id="a_edge20_Node000002_Node000020"><a xlink:title=" ">
<path fill="none" stroke="#63b8ff" d="M1271.6,-138.65C1296.68,-127.03 1328.63,-112.23 1351.69,-101.54"/>
<polygon fill="#63b8ff" stroke="#63b8ff" points="1269.96,-135.56 1262.35,-142.94 1272.9,-141.91 1269.96,-135.56"/>
</a>
</g>
</g>
<!-- Node21 -->
<g id="Node000021" class="node">
<title>Node21</title>
<g id="a_Node000021"><a xlink:href="multigrid-tests_2non-equidistant-test_2main_8cc.html" target="_top" xlink:title=" ">
<polygon fill="white" stroke="#666666" points="1583.5,-107 1464.5,-107 1464.5,-66 1583.5,-66 1583.5,-107"/>
<text text-anchor="start" x="1472.5" y="-95" font-family="Helvetica,sans-Serif" font-size="10.00">test/multigrid&#45;tests</text>
<text text-anchor="start" x="1472.5" y="-84" font-family="Helvetica,sans-Serif" font-size="10.00">/non&#45;equidistant&#45;test</text>
<text text-anchor="middle" x="1524" y="-73" font-family="Helvetica,sans-Serif" font-size="10.00">/main.cc</text>
</a>
</g>
</g>
<!-- Node2&#45;&gt;Node21 -->
<g id="edge21_Node000002_Node000021" class="edge">
<title>Node2&#45;&gt;Node21</title>
<g id="a_edge21_Node000002_Node000021"><a xlink:title=" ">
<path fill="none" stroke="#63b8ff" d="M1303.27,-142.06C1347.16,-132.61 1404.51,-119.78 1455,-107 1458.02,-106.24 1461.1,-105.44 1464.21,-104.61"/>
<polygon fill="#63b8ff" stroke="#63b8ff" points="1302.31,-138.69 1293.26,-144.21 1303.78,-145.53 1302.31,-138.69"/>
</a>
</g>
</g>
<!-- Node22 -->
<g id="Node000022" class="node">
<title>Node22</title>
<g id="a_Node000022"><a xlink:href="multigrid-tests_2parallel-multigrid-test_2main_8cc.html" target="_top" xlink:title=" ">
<polygon fill="white" stroke="#666666" points="1728.5,-107 1601.5,-107 1601.5,-66 1728.5,-66 1728.5,-107"/>
<text text-anchor="start" x="1609.5" y="-95" font-family="Helvetica,sans-Serif" font-size="10.00">test/multigrid&#45;tests</text>
<text text-anchor="start" x="1609.5" y="-84" font-family="Helvetica,sans-Serif" font-size="10.00">/parallel&#45;multigrid&#45;test</text>
<text text-anchor="middle" x="1665" y="-73" font-family="Helvetica,sans-Serif" font-size="10.00">/main.cc</text>
</a>
</g>
</g>
<!-- Node2&#45;&gt;Node22 -->
<g id="edge22_Node000002_Node000022" class="edge">
<title>Node2&#45;&gt;Node22</title>
<g id="a_edge22_Node000002_Node000022"><a xlink:title=" ">
<path fill="none" stroke="#63b8ff" d="M1303.29,-142.88C1432.01,-122.71 1467.75,-131.19 1592,-107 1595.09,-106.4 1598.24,-105.74 1601.42,-105.04"/>
<polygon fill="#63b8ff" stroke="#63b8ff" points="1302.36,-139.49 1293.04,-144.52 1303.46,-146.4 1302.36,-139.49"/>
</a>
</g>
</g>
<!-- Node23 -->
<g id="Node000023" class="node">
<title>Node23</title>
<g id="a_Node000023"><a xlink:href="ray-mpi-test_2main_8cc.html" target="_top" xlink:title=" ">
<polygon fill="white" stroke="#666666" points="1887,-96 1747,-96 1747,-77 1887,-77 1887,-96"/>
<text text-anchor="middle" x="1817" y="-84" font-family="Helvetica,sans-Serif" font-size="10.00">test/ray&#45;mpi&#45;test/main.cc</text>
</a>
</g>
</g>
<!-- Node2&#45;&gt;Node23 -->
<g id="edge23_Node000002_Node000023" class="edge">
<title>Node2&#45;&gt;Node23</title>
<g id="a_edge23_Node000002_Node000023"><a xlink:title=" ">
<path fill="none" stroke="#63b8ff" d="M1303.19,-142.95C1495.89,-116.67 1548.78,-137.53 1737,-107 1753.65,-104.3 1771.95,-99.94 1786.84,-96.04"/>
<polygon fill="#63b8ff" stroke="#63b8ff" points="1302.44,-139.53 1293.01,-144.37 1303.4,-146.46 1302.44,-139.53"/>
</a>
</g>
</g>
<!-- Node24 -->
<g id="Node000024" class="node">
<title>Node24</title>
<g id="a_Node000024"><a xlink:href="ray-test_2main_8cc.html" target="_top" xlink:title=" ">
<polygon fill="white" stroke="#666666" points="2023,-96 1905,-96 1905,-77 2023,-77 2023,-96"/>
<text text-anchor="middle" x="1964" y="-84" font-family="Helvetica,sans-Serif" font-size="10.00">test/ray&#45;test/main.cc</text>
</a>
</g>
</g>
<!-- Node2&#45;&gt;Node24 -->
<g id="edge24_Node000002_Node000024" class="edge">
<title>Node2&#45;&gt;Node24</title>
<g id="a_edge24_Node000002_Node000024"><a xlink:title=" ">
<path fill="none" stroke="#63b8ff" d="M1303.24,-142.98C1566.12,-110.06 1638.63,-151.15 1896,-107 1910.53,-104.51 1926.37,-100.07 1939.12,-96.05"/>
<polygon fill="#63b8ff" stroke="#63b8ff" points="1302.48,-139.55 1293,-144.29 1303.36,-146.49 1302.48,-139.55"/>
</a>
</g>
</g>
<!-- Node25 -->
<g id="Node000025" class="node">
<title>Node25</title>
<g id="a_Node000025"><a xlink:href="variable-dims_2main_8cc.html" target="_top" xlink:title=" ">
<polygon fill="white" stroke="#666666" points="2147,-101.5 2041,-101.5 2041,-71.5 2147,-71.5 2147,-101.5"/>
<text text-anchor="start" x="2049" y="-89.5" font-family="Helvetica,sans-Serif" font-size="10.00">test/variable&#45;dims</text>
<text text-anchor="middle" x="2094" y="-78.5" font-family="Helvetica,sans-Serif" font-size="10.00">/main.cc</text>
</a>
</g>
</g>
<!-- Node2&#45;&gt;Node25 -->
<g id="edge25_Node000002_Node000025" class="edge">
<title>Node2&#45;&gt;Node25</title>
<g id="a_edge25_Node000002_Node000025"><a xlink:title=" ">
<path fill="none" stroke="#63b8ff" d="M1303.48,-142.96C1626.2,-104.28 1715.52,-163.61 2032,-107 2039.44,-105.67 2047.24,-103.7 2054.69,-101.52"/>
<polygon fill="#63b8ff" stroke="#63b8ff" points="1302.88,-139.5 1293.38,-144.19 1303.73,-146.45 1302.88,-139.5"/>
</a>
</g>
</g>
<!-- Node4 -->
<g id="Node000004" class="node">
<title>Node4</title>
<g id="a_Node000004"><a xlink:href="kernels_8cu.html" target="_top" xlink:title=" ">
<polygon fill="white" stroke="#666666" points="2262,-24.5 2116,-24.5 2116,-5.5 2262,-5.5 2262,-24.5"/>
<text text-anchor="middle" x="2189" y="-12.5" font-family="Helvetica,sans-Serif" font-size="10.00">src/core/kernels/kernels.cu</text>
</a>
</g>
</g>
<!-- Node3&#45;&gt;Node4 -->
<g id="edge3_Node000003_Node000004" class="edge">
<title>Node3&#45;&gt;Node4</title>
<g id="a_edge3_Node000003_Node000004"><a xlink:title=" ">
<path fill="none" stroke="#63b8ff" d="M2210.94,-62.2C2204.83,-49.34 2197.61,-34.12 2193.16,-24.77"/>
<polygon fill="#63b8ff" stroke="#63b8ff" points="2207.87,-63.9 2215.32,-71.44 2214.19,-60.9 2207.87,-63.9"/>
</a>
</g>
</g>
<!-- Node8 -->
<g id="Node000008" class="node">
<title>Node8</title>
<g id="a_Node000008"><a xlink:href="decomposition_8cc.html" target="_top" xlink:title=" ">
<polygon fill="white" stroke="#666666" points="2410,-30 2280,-30 2280,0 2410,0 2410,-30"/>
<text text-anchor="start" x="2288" y="-18" font-family="Helvetica,sans-Serif" font-size="10.00">src/core/decomposition</text>
<text text-anchor="middle" x="2345" y="-7" font-family="Helvetica,sans-Serif" font-size="10.00">/decomposition.cc</text>
</a>
</g>
</g>
<!-- Node7&#45;&gt;Node8 -->
<g id="edge7_Node000007_Node000008" class="edge">
<title>Node7&#45;&gt;Node8</title>
<g id="a_edge7_Node000007_Node000008"><a xlink:title=" ">
<path fill="none" stroke="#63b8ff" d="M2356.15,-61.58C2353.58,-51.06 2350.65,-39.08 2348.44,-30.04"/>
<polygon fill="#63b8ff" stroke="#63b8ff" points="2352.78,-62.55 2358.56,-71.44 2359.58,-60.89 2352.78,-62.55"/>
</a>
</g>
</g>
<!-- Node7&#45;&gt;Node9 -->
<g id="edge8_Node000007_Node000009" class="edge">
<title>Node7&#45;&gt;Node9</title>
<g id="a_edge8_Node000007_Node000009"><a xlink:title=" ">
<path fill="none" stroke="#63b8ff" d="M2392.78,-66.05C2414.36,-52.42 2442.16,-34.85 2458.44,-24.57"/>
<polygon fill="#63b8ff" stroke="#63b8ff" points="2390.84,-63.14 2384.26,-71.44 2394.58,-69.05 2390.84,-63.14"/>
</a>
</g>
</g>
<!-- Node26&#45;&gt;Node2 -->
<g id="edge28_Node000026_Node000002" class="edge">
<title>Node26&#45;&gt;Node2</title>
<g id="a_edge28_Node000026_Node000002"><a xlink:title=" ">
<path fill="none" stroke="#63b8ff" d="M1041.93,-206.52C1083.45,-196.14 1136.47,-182.88 1175.95,-173.01"/>
<polygon fill="#63b8ff" stroke="#63b8ff" points="1041.03,-203.13 1032.18,-208.95 1042.73,-209.92 1041.03,-203.13"/>
</a>
</g>
</g>
<!-- Node26&#45;&gt;Node5 -->
<g id="edge27_Node000026_Node000005" class="edge">
<title>Node26&#45;&gt;Node5</title>
<g id="a_edge27_Node000026_Node000005"><a xlink:title=" ">
<path fill="none" stroke="#63b8ff" d="M1020.19,-204.55C1051.75,-188.86 1085.19,-165.38 1064,-143 1013.74,-89.91 479.29,-117.92 407,-107 397.89,-105.62 388.29,-103.66 379.07,-101.51"/>
<polygon fill="#63b8ff" stroke="#63b8ff" points="1018.46,-201.49 1010.95,-208.96 1021.48,-207.81 1018.46,-201.49"/>
</a>
</g>
</g>
<!-- Node26&#45;&gt;Node6 -->
<g id="edge29_Node000026_Node000006" class="edge">
<title>Node26&#45;&gt;Node6</title>
<g id="a_edge29_Node000026_Node000006"><a xlink:title=" ">
<path fill="none" stroke="#63b8ff" d="M904.8,-216.72C759.36,-203.12 418.19,-167.2 137,-107 122.51,-103.9 106.58,-99.73 93.32,-96.05"/>
<polygon fill="#63b8ff" stroke="#63b8ff" points="904.65,-220.22 914.93,-217.66 905.29,-213.25 904.65,-220.22"/>
</a>
</g>
</g>
<!-- Node26&#45;&gt;Node12 -->
<g id="edge34_Node000026_Node000012" class="edge">
<title>Node26&#45;&gt;Node12</title>
<g id="a_edge34_Node000026_Node000012"><a xlink:title=" ">
<path fill="none" stroke="#63b8ff" d="M939.66,-203.97C923.5,-195.1 904.45,-184.07 888,-173 870.15,-160.98 870.11,-150.66 850,-143 725.18,-95.43 380.98,-133.21 250,-107 237.79,-104.56 224.61,-100.07 214.1,-96.01"/>
<polygon fill="#63b8ff" stroke="#63b8ff" points="938.34,-207.24 948.79,-208.93 941.67,-201.08 938.34,-207.24"/>
</a>
</g>
</g>
<!-- Node27 -->
<g id="Node000027" class="node">
<title>Node27</title>
<g id="a_Node000027"><a xlink:href="astaroth_8cc.html" target="_top" xlink:title=" ">
<polygon fill="white" stroke="#666666" points="665,-167.5 553,-167.5 553,-148.5 665,-148.5 665,-167.5"/>
<text text-anchor="middle" x="609" y="-155.5" font-family="Helvetica,sans-Serif" font-size="10.00">src/core/astaroth.cc</text>
</a>
</g>
</g>
<!-- Node26&#45;&gt;Node27 -->
<g id="edge30_Node000026_Node000027" class="edge">
<title>Node26&#45;&gt;Node27</title>
<g id="a_edge30_Node000026_Node000027"><a xlink:title=" ">
<path fill="none" stroke="#63b8ff" d="M904.87,-212.21C843.56,-202.68 752.76,-187.99 674,-173 665.27,-171.34 655.91,-169.41 647.09,-167.52"/>
<polygon fill="#63b8ff" stroke="#63b8ff" points="904.41,-215.68 914.82,-213.75 905.48,-208.76 904.41,-215.68"/>
</a>
</g>
</g>
<!-- Node26&#45;&gt;Node28 -->
<g id="edge31_Node000026_Node000028" class="edge">
<title>Node26&#45;&gt;Node28</title>
<g id="a_edge31_Node000026_Node000028"><a xlink:title=" ">
<path fill="none" stroke="#63b8ff" d="M1047.18,-212.13C1113.23,-202.03 1214.27,-186.55 1302,-173 1313.41,-171.24 1325.63,-169.34 1337.27,-167.53"/>
<polygon fill="#63b8ff" stroke="#63b8ff" points="1046.65,-208.67 1037.29,-213.64 1047.71,-215.59 1046.65,-208.67"/>
</a>
</g>
</g>
<!-- Node29 -->
<g id="Node000029" class="node">
<title>Node29</title>
<g id="a_Node000029"><a xlink:href="transpose_8cc.html" target="_top" xlink:title=" ">
<polygon fill="white" stroke="#666666" points="841,-167.5 683,-167.5 683,-148.5 841,-148.5 841,-167.5"/>
<text text-anchor="middle" x="762" y="-155.5" font-family="Helvetica,sans-Serif" font-size="10.00">src/core/kernels/transpose.cc</text>
</a>
</g>
</g>
<!-- Node26&#45;&gt;Node29 -->
<g id="edge32_Node000026_Node000029" class="edge">
<title>Node26&#45;&gt;Node29</title>
<g id="a_edge32_Node000026_Node000029"><a xlink:title=" ">
<path fill="none" stroke="#63b8ff" d="M919.32,-206.05C877.82,-193.64 823.23,-177.31 790.48,-167.52"/>
<polygon fill="#63b8ff" stroke="#63b8ff" points="918.45,-209.44 929.04,-208.95 920.46,-202.74 918.45,-209.44"/>
</a>
</g>
</g>
<!-- Node30 -->
<g id="Node000030" class="node">
<title>Node30</title>
<g id="a_Node000030"><a xlink:href="transpose_8cu.html" target="_top" xlink:title=" ">
<polygon fill="white" stroke="#666666" points="1055,-167.5 897,-167.5 897,-148.5 1055,-148.5 1055,-167.5"/>
<text text-anchor="middle" x="976" y="-155.5" font-family="Helvetica,sans-Serif" font-size="10.00">src/core/kernels/transpose.cu</text>
</a>
</g>
</g>
<!-- Node26&#45;&gt;Node30 -->
<g id="edge33_Node000026_Node000030" class="edge">
<title>Node26&#45;&gt;Node30</title>
<g id="a_edge33_Node000026_Node000030"><a xlink:title=" ">
<path fill="none" stroke="#63b8ff" d="M976,-198.6C976,-187.8 976,-175.78 976,-167.84"/>
<polygon fill="#63b8ff" stroke="#63b8ff" points="972.5,-198.8 976,-208.8 979.5,-198.8 972.5,-198.8"/>
</a>
</g>
</g>
</g>
</svg>

<g id="navigator" transform="translate(0 0)" fill="#404254">
  <rect fill="#f2f5e9" fill-opacity="0.5" stroke="#606060" stroke-width=".5" x="0" y="0" width="60" height="60"/>
  <use id="zoomplus" xlink:href="#zoomPlus" x="17" y="9" onmousedown="handleZoom(evt,'in')"/>
  <use id="zoomminus" xlink:href="#zoomMin" x="42" y="9" onmousedown="handleZoom(evt,'out')"/>
  <use id="reset" xlink:href="#resetDef" x="30" y="36" onmousedown="handleReset()"/>
   <use id="arrowup" xlink:href="#arrowUp" x="0" y="0" onmousedown="handlePan(0,-1)"/>
  <use id="arrowright" xlink:href="#arrowRight" x="0" y="0" onmousedown="handlePan(1,0)"/>
  <use id="arrowdown" xlink:href="#arrowDown" x="0" y="0" onmousedown="handlePan(0,1)"/>
  <use id="arrowleft" xlink:href="#arrowLeft" x="0" y="0" onmousedown="handlePan(-1,0)"/>
</g>
<svg viewBox="0 0 15 15" width="100%" height="30px" preserveAspectRatio="xMaxYMin meet">
 <g id="arrow_out" transform="scale(0.3 0.3)">
  <a xlink:href="func__attributes_8h__dep__incl_org.svg" target="_base">
   <rect id="button" ry="5" rx="5" y="6" x="6" height="38" width="38"
        fill="#f2f5e9" fill-opacity="0.5" stroke="#606060" stroke-width="1.0"/>
   <path id="arrow"
     d="M 11.500037,31.436501 C 11.940474,20.09759 22.043105,11.32322 32.158766,21.979434 L 37.068811,17.246167 C 37.068811,17.246167 37.088388,32 37.088388,32 L 22.160133,31.978069 C 22.160133,31.978069 26.997745,27.140456 26.997745,27.140456 C 18.528582,18.264221 13.291696,25.230495 11.500037,31.436501 z"
     style="fill:#404040;"/>
  </a>
 </g>
</svg>

<style type='text/css'>
<![CDATA[
[data-mouse-over-selected='false'] { opacity: 0.7; }
[data-mouse-over-selected='true']  { opacity: 1.0; }
]]>
</style>
<script type="application/ecmascript"><![CDATA[
document.addEventListener('DOMContentLoaded', (event) => {
  highlightEdges();
  highlightAdjacentNodes();
});
]]></script>
</svg>
