<?xml version="1.0" encoding="UTF-8" standalone="no"?>
<!DOCTYPE svg PUBLIC "-//W3C//DTD SVG 1.1//EN"
 "http://www.w3.org/Graphics/SVG/1.1/DTD/svg11.dtd">
<!-- Generated by graphviz version 2.43.0 (0)
 -->
<!-- Title: test/grid&#45;calculation/main.cc Pages: 1 -->
<svg width="2345pt" height="445pt"
 viewBox="0.00 0.00 2345.00 445.00" xmlns="http://www.w3.org/2000/svg" xmlns:xlink="http://www.w3.org/1999/xlink">
<g id="graph0" class="graph" transform="scale(1 1) rotate(0) translate(4 441)">
<title>test/grid&#45;calculation/main.cc</title>
<!-- Node1 -->
<g id="Node000001" class="node">
<title>Node1</title>
<g id="a_Node000001"><a xlink:title=" ">
<polygon fill="#999999" stroke="#666666" points="2193.5,-437 2079.5,-437 2079.5,-407 2193.5,-407 2193.5,-437"/>
<text text-anchor="start" x="2087.5" y="-425" font-family="Helvetica,sans-Serif" font-size="10.00">test/grid&#45;calculation</text>
<text text-anchor="middle" x="2136.5" y="-414" font-family="Helvetica,sans-Serif" font-size="10.00">/main.cc</text>
</a>
</g>
</g>
<!-- Node2 -->
<g id="Node000002" class="node">
<title>Node2</title>
<g id="a_Node000002"><a xlink:href="astaroth_8h.html" target="_top" xlink:title=" ">
<polygon fill="white" stroke="#666666" points="1009.5,-316 943.5,-316 943.5,-297 1009.5,-297 1009.5,-316"/>
<text text-anchor="middle" x="976.5" y="-304" font-family="Helvetica,sans-Serif" font-size="10.00">astaroth.h</text>
</a>
</g>
</g>
<!-- Node1&#45;&gt;Node2 -->
<g id="edge1_Node000001_Node000002" class="edge">
<title>Node1&#45;&gt;Node2</title>
<g id="a_edge1_Node000001_Node000002"><a xlink:title=" ">
<path fill="none" stroke="#63b8ff" d="M2079.37,-415.41C1877.17,-395.63 1198,-329.17 1019.68,-311.72"/>
<polygon fill="#63b8ff" stroke="#63b8ff" points="1019.92,-308.23 1009.63,-310.74 1019.24,-315.2 1019.92,-308.23"/>
</a>
</g>
</g>
<!-- Node19 -->
<g id="Node000019" class="node">
<title>Node19</title>
<g id="a_Node000019"><a xlink:href="errchk_8h.html" target="_top" xlink:title="Brief info.">
<polygon fill="white" stroke="#666666" points="2145.5,-134.5 2089.5,-134.5 2089.5,-115.5 2145.5,-115.5 2145.5,-134.5"/>
<text text-anchor="middle" x="2117.5" y="-122.5" font-family="Helvetica,sans-Serif" font-size="10.00">errchk.h</text>
</a>
</g>
</g>
<!-- Node1&#45;&gt;Node19 -->
<g id="edge61_Node000001_Node000019" class="edge">
<title>Node1&#45;&gt;Node19</title>
<g id="a_edge61_Node000001_Node000019"><a xlink:title=" ">
<path fill="none" stroke="#63b8ff" d="M2128.65,-406.79C2117.79,-385.76 2099.5,-344.81 2099.5,-307.5 2099.5,-307.5 2099.5,-307.5 2099.5,-250.5 2099.5,-212.6 2107.77,-168.88 2113.1,-144.64"/>
<polygon fill="#63b8ff" stroke="#63b8ff" points="2116.56,-145.22 2115.36,-134.69 2109.73,-143.67 2116.56,-145.22"/>
</a>
</g>
</g>
<!-- Node55 -->
<g id="Node000055" class="node">
<title>Node55</title>
<g id="a_Node000055"><a xlink:href="astaroth__utils_8h.html" target="_top" xlink:title="Functions for loading and updating AcMeshInfo.">
<polygon fill="white" stroke="#666666" points="2219.5,-371 2127.5,-371 2127.5,-352 2219.5,-352 2219.5,-371"/>
<text text-anchor="middle" x="2173.5" y="-359" font-family="Helvetica,sans-Serif" font-size="10.00">astaroth_utils.h</text>
</a>
</g>
</g>
<!-- Node1&#45;&gt;Node55 -->
<g id="edge57_Node000001_Node000055" class="edge">
<title>Node1&#45;&gt;Node55</title>
<g id="a_edge57_Node000001_Node000055"><a xlink:title=" ">
<path fill="none" stroke="#63b8ff" d="M2145.46,-406.84C2150.61,-398.69 2157.12,-388.4 2162.57,-379.78"/>
<polygon fill="#63b8ff" stroke="#63b8ff" points="2165.57,-381.59 2167.96,-371.27 2159.65,-377.85 2165.57,-381.59"/>
</a>
</g>
</g>
<!-- Node58 -->
<g id="Node000058" class="node">
<title>Node58</title>
<g id="a_Node000058"><a xlink:title=" ">
<polygon fill="#e0e0e0" stroke="#999999" points="2337,-371 2238,-371 2238,-352 2337,-352 2337,-371"/>
<text text-anchor="middle" x="2287.5" y="-359" font-family="Helvetica,sans-Serif" font-size="10.00">user_constants.h</text>
</a>
</g>
</g>
<!-- Node1&#45;&gt;Node58 -->
<g id="edge62_Node000001_Node000058" class="edge">
<title>Node1&#45;&gt;Node58</title>
<g id="a_edge62_Node000001_Node000058"><a xlink:title=" ">
<path fill="none" stroke="#63b8ff" d="M2172.67,-406.99C2197.97,-397.18 2231.46,-384.21 2255.74,-374.81"/>
<polygon fill="#63b8ff" stroke="#63b8ff" points="2257.14,-378.02 2265.2,-371.14 2254.61,-371.49 2257.14,-378.02"/>
</a>
</g>
</g>
<!-- Node3 -->
<g id="Node000003" class="node">
<title>Node3</title>
<g id="a_Node000003"><a xlink:href="astaroth__base_8h.html" target="_top" xlink:title=" ">
<polygon fill="white" stroke="#666666" points="1570,-261 1475,-261 1475,-242 1570,-242 1570,-261"/>
<text text-anchor="middle" x="1522.5" y="-249" font-family="Helvetica,sans-Serif" font-size="10.00">astaroth_base.h</text>
</a>
</g>
</g>
<!-- Node2&#45;&gt;Node3 -->
<g id="edge2_Node000002_Node000003" class="edge">
<title>Node2&#45;&gt;Node3</title>
<g id="a_edge2_Node000002_Node000003"><a xlink:title=" ">
<path fill="none" stroke="#63b8ff" d="M1009.77,-303.13C1087.44,-297.47 1286.94,-282.09 1464.87,-261"/>
<polygon fill="#63b8ff" stroke="#63b8ff" points="1465.43,-264.46 1474.94,-259.8 1464.6,-257.51 1465.43,-264.46"/>
</a>
</g>
</g>
<!-- Node43 -->
<g id="Node000043" class="node">
<title>Node43</title>
<g id="a_Node000043"><a xlink:href="astaroth__grid_8h.html" target="_top" xlink:title=" ">
<polygon fill="white" stroke="#666666" points="210.5,-261 120.5,-261 120.5,-242 210.5,-242 210.5,-261"/>
<text text-anchor="middle" x="165.5" y="-249" font-family="Helvetica,sans-Serif" font-size="10.00">astaroth_grid.h</text>
</a>
</g>
</g>
<!-- Node2&#45;&gt;Node43 -->
<g id="edge45_Node000002_Node000043" class="edge">
<title>Node2&#45;&gt;Node43</title>
<g id="a_edge45_Node000002_Node000043"><a xlink:title=" ">
<path fill="none" stroke="#63b8ff" d="M943.2,-304.7C838.45,-301.94 506.21,-291.32 220.67,-261.01"/>
<polygon fill="#63b8ff" stroke="#63b8ff" points="220.85,-257.51 210.54,-259.93 220.11,-264.47 220.85,-257.51"/>
</a>
</g>
</g>
<!-- Node44 -->
<g id="Node000044" class="node">
<title>Node44</title>
<g id="a_Node000044"><a xlink:href="astaroth__node_8h.html" target="_top" xlink:title=" ">
<polygon fill="white" stroke="#666666" points="324,-261 229,-261 229,-242 324,-242 324,-261"/>
<text text-anchor="middle" x="276.5" y="-249" font-family="Helvetica,sans-Serif" font-size="10.00">astaroth_node.h</text>
</a>
</g>
</g>
<!-- Node2&#45;&gt;Node44 -->
<g id="edge46_Node000002_Node000044" class="edge">
<title>Node2&#45;&gt;Node44</title>
<g id="a_edge46_Node000002_Node000044"><a xlink:title=" ">
<path fill="none" stroke="#63b8ff" d="M943.29,-304.13C849.41,-300.05 573.94,-286.74 334.01,-260.96"/>
<polygon fill="#63b8ff" stroke="#63b8ff" points="334.37,-257.48 324.05,-259.88 333.61,-264.43 334.37,-257.48"/>
</a>
</g>
</g>
<!-- Node45 -->
<g id="Node000045" class="node">
<title>Node45</title>
<g id="a_Node000045"><a xlink:href="astaroth__device_8h.html" target="_top" xlink:title=" ">
<polygon fill="white" stroke="#666666" points="446.5,-261 342.5,-261 342.5,-242 446.5,-242 446.5,-261"/>
<text text-anchor="middle" x="394.5" y="-249" font-family="Helvetica,sans-Serif" font-size="10.00">astaroth_device.h</text>
</a>
</g>
</g>
<!-- Node2&#45;&gt;Node45 -->
<g id="edge47_Node000002_Node000045" class="edge">
<title>Node2&#45;&gt;Node45</title>
<g id="a_edge47_Node000002_Node000045"><a xlink:title=" ">
<path fill="none" stroke="#63b8ff" d="M943.22,-303.28C862.01,-297.71 647.05,-282.2 456.9,-261.1"/>
<polygon fill="#63b8ff" stroke="#63b8ff" points="457.05,-257.6 446.72,-259.96 456.27,-264.55 457.05,-257.6"/>
</a>
</g>
</g>
<!-- Node48 -->
<g id="Node000048" class="node">
<title>Node48</title>
<g id="a_Node000048"><a xlink:href="astaroth__legacy_8h.html" target="_top" xlink:title=" ">
<polygon fill="white" stroke="#666666" points="566.5,-261 464.5,-261 464.5,-242 566.5,-242 566.5,-261"/>
<text text-anchor="middle" x="515.5" y="-249" font-family="Helvetica,sans-Serif" font-size="10.00">astaroth_legacy.h</text>
</a>
</g>
</g>
<!-- Node2&#45;&gt;Node48 -->
<g id="edge50_Node000002_Node000048" class="edge">
<title>Node2&#45;&gt;Node48</title>
<g id="a_edge50_Node000002_Node000048"><a xlink:title=" ">
<path fill="none" stroke="#63b8ff" d="M943.45,-302.17C876.43,-295.36 719.47,-279.01 576.8,-261.13"/>
<polygon fill="#63b8ff" stroke="#63b8ff" points="576.91,-257.62 566.55,-259.84 576.03,-264.56 576.91,-257.62"/>
</a>
</g>
</g>
<!-- Node49 -->
<g id="Node000049" class="node">
<title>Node49</title>
<g id="a_Node000049"><a xlink:title=" ">
<polygon fill="#e0e0e0" stroke="#999999" points="724,-261 585,-261 585,-242 724,-242 724,-261"/>
<text text-anchor="middle" x="654.5" y="-249" font-family="Helvetica,sans-Serif" font-size="10.00">device_set_input_decls.h</text>
</a>
</g>
</g>
<!-- Node2&#45;&gt;Node49 -->
<g id="edge51_Node000002_Node000049" class="edge">
<title>Node2&#45;&gt;Node49</title>
<g id="a_edge51_Node000002_Node000049"><a xlink:title=" ">
<path fill="none" stroke="#63b8ff" d="M943.25,-300.03C889.84,-291.24 784.05,-273.82 716.43,-262.69"/>
<polygon fill="#63b8ff" stroke="#63b8ff" points="716.76,-259.2 706.33,-261.03 715.62,-266.11 716.76,-259.2"/>
</a>
</g>
</g>
<!-- Node50 -->
<g id="Node000050" class="node">
<title>Node50</title>
<g id="a_Node000050"><a xlink:title=" ">
<polygon fill="#e0e0e0" stroke="#999999" points="888.5,-261 742.5,-261 742.5,-242 888.5,-242 888.5,-261"/>
<text text-anchor="middle" x="815.5" y="-249" font-family="Helvetica,sans-Serif" font-size="10.00">device_get_output_decls.h</text>
</a>
</g>
</g>
<!-- Node2&#45;&gt;Node50 -->
<g id="edge52_Node000002_Node000050" class="edge">
<title>Node2&#45;&gt;Node50</title>
<g id="a_edge52_Node000002_Node000050"><a xlink:title=" ">
<path fill="none" stroke="#63b8ff" d="M950.63,-296.98C923.72,-288.13 881.38,-274.19 851.27,-264.28"/>
<polygon fill="#63b8ff" stroke="#63b8ff" points="852.16,-260.88 841.57,-261.08 849.97,-267.53 852.16,-260.88"/>
</a>
</g>
</g>
<!-- Node51 -->
<g id="Node000051" class="node">
<title>Node51</title>
<g id="a_Node000051"><a xlink:title=" ">
<polygon fill="#e0e0e0" stroke="#999999" points="1046.5,-261 906.5,-261 906.5,-242 1046.5,-242 1046.5,-261"/>
<text text-anchor="middle" x="976.5" y="-249" font-family="Helvetica,sans-Serif" font-size="10.00">device_get_input_decls.h</text>
</a>
</g>
</g>
<!-- Node2&#45;&gt;Node51 -->
<g id="edge53_Node000002_Node000051" class="edge">
<title>Node2&#45;&gt;Node51</title>
<g id="a_edge53_Node000002_Node000051"><a xlink:title=" ">
<path fill="none" stroke="#63b8ff" d="M976.5,-296.75C976.5,-289.8 976.5,-279.85 976.5,-271.13"/>
<polygon fill="#63b8ff" stroke="#63b8ff" points="980,-271.09 976.5,-261.09 973,-271.09 980,-271.09"/>
</a>
</g>
</g>
<!-- Node52 -->
<g id="Node000052" class="node">
<title>Node52</title>
<g id="a_Node000052"><a xlink:title=" ">
<polygon fill="#e0e0e0" stroke="#999999" points="1194.5,-261 1064.5,-261 1064.5,-242 1194.5,-242 1194.5,-261"/>
<text text-anchor="middle" x="1129.5" y="-249" font-family="Helvetica,sans-Serif" font-size="10.00">get_vtxbufs_declares.h</text>
</a>
</g>
</g>
<!-- Node2&#45;&gt;Node52 -->
<g id="edge54_Node000002_Node000052" class="edge">
<title>Node2&#45;&gt;Node52</title>
<g id="a_edge54_Node000002_Node000052"><a xlink:title=" ">
<path fill="none" stroke="#63b8ff" d="M1001.08,-296.98C1026.55,-288.16 1066.54,-274.31 1095.13,-264.41"/>
<polygon fill="#63b8ff" stroke="#63b8ff" points="1096.42,-267.66 1104.73,-261.08 1094.13,-261.05 1096.42,-267.66"/>
</a>
</g>
</g>
<!-- Node53 -->
<g id="Node000053" class="node">
<title>Node53</title>
<g id="a_Node000053"><a xlink:href="astaroth__runtime__compilation_8h.html" target="_top" xlink:title=" ">
<polygon fill="white" stroke="#666666" points="1386,-261 1213,-261 1213,-242 1386,-242 1386,-261"/>
<text text-anchor="middle" x="1299.5" y="-249" font-family="Helvetica,sans-Serif" font-size="10.00">astaroth_runtime_compilation.h</text>
</a>
</g>
</g>
<!-- Node2&#45;&gt;Node53 -->
<g id="edge55_Node000002_Node000053" class="edge">
<title>Node2&#45;&gt;Node53</title>
<g id="a_edge55_Node000002_Node000053"><a xlink:title=" ">
<path fill="none" stroke="#63b8ff" d="M1009.55,-300.08C1063.08,-291.29 1169.58,-273.82 1237.54,-262.67"/>
<polygon fill="#63b8ff" stroke="#63b8ff" points="1238.39,-266.07 1247.69,-261 1237.25,-259.17 1238.39,-266.07"/>
</a>
</g>
</g>
<!-- Node54 -->
<g id="Node000054" class="node">
<title>Node54</title>
<g id="a_Node000054"><a xlink:title=" ">
<polygon fill="#e0e0e0" stroke="#999999" points="1457,-261 1404,-261 1404,-242 1457,-242 1457,-261"/>
<text text-anchor="middle" x="1430.5" y="-249" font-family="Helvetica,sans-Serif" font-size="10.00">string.h</text>
</a>
</g>
</g>
<!-- Node2&#45;&gt;Node54 -->
<g id="edge56_Node000002_Node000054" class="edge">
<title>Node2&#45;&gt;Node54</title>
<g id="a_edge56_Node000002_Node000054"><a xlink:title=" ">
<path fill="none" stroke="#63b8ff" d="M1009.75,-303.39C1079.18,-298.67 1244.76,-285.83 1393.61,-260.93"/>
<polygon fill="#63b8ff" stroke="#63b8ff" points="1394.57,-264.31 1403.84,-259.19 1393.4,-257.41 1394.57,-264.31"/>
</a>
</g>
</g>
<!-- Node4 -->
<g id="Node000004" class="node">
<title>Node4</title>
<g id="a_Node000004"><a xlink:title=" ">
<polygon fill="#e0e0e0" stroke="#999999" points="1993.5,-74 1931.5,-74 1931.5,-55 1993.5,-55 1993.5,-74"/>
<text text-anchor="middle" x="1962.5" y="-62" font-family="Helvetica,sans-Serif" font-size="10.00">stdbool.h</text>
</a>
</g>
</g>
<!-- Node3&#45;&gt;Node4 -->
<g id="edge3_Node000003_Node000004" class="edge">
<title>Node3&#45;&gt;Node4</title>
<g id="a_edge3_Node000003_Node000004"><a xlink:title=" ">
<path fill="none" stroke="#63b8ff" d="M1570.2,-246.4C1677.63,-236.08 1933.16,-205.07 1984.5,-140 1997.63,-123.36 1986.35,-99.08 1975.68,-82.8"/>
<polygon fill="#63b8ff" stroke="#63b8ff" points="1978.28,-80.42 1969.66,-74.26 1972.56,-84.45 1978.28,-80.42"/>
</a>
</g>
</g>
<!-- Node5 -->
<g id="Node000005" class="node">
<title>Node5</title>
<g id="a_Node000005"><a xlink:href="acc__runtime_8h.html" target="_top" xlink:title=" ">
<polygon fill="#fff0f0" stroke="red" points="1224.5,-200.5 1138.5,-200.5 1138.5,-181.5 1224.5,-181.5 1224.5,-200.5"/>
<text text-anchor="middle" x="1181.5" y="-188.5" font-family="Helvetica,sans-Serif" font-size="10.00">acc_runtime.h</text>
</a>
</g>
</g>
<!-- Node3&#45;&gt;Node5 -->
<g id="edge4_Node000003_Node000005" class="edge">
<title>Node3&#45;&gt;Node5</title>
<g id="a_edge4_Node000003_Node000005"><a xlink:title=" ">
<path fill="none" stroke="#63b8ff" d="M1474.73,-242.3C1411.57,-231.47 1300.62,-212.43 1234.8,-201.14"/>
<polygon fill="#63b8ff" stroke="#63b8ff" points="1235.09,-197.64 1224.64,-199.4 1233.91,-204.54 1235.09,-197.64"/>
</a>
</g>
</g>
<!-- Node25 -->
<g id="Node000025" class="node">
<title>Node25</title>
<g id="a_Node000025"><a xlink:title=" ">
<polygon fill="#e0e0e0" stroke="#999999" points="139,-134.5 0,-134.5 0,-115.5 139,-115.5 139,-134.5"/>
<text text-anchor="middle" x="69.5" y="-122.5" font-family="Helvetica,sans-Serif" font-size="10.00">user_built&#45;in_constants.h</text>
</a>
</g>
</g>
<!-- Node3&#45;&gt;Node25 -->
<g id="edge43_Node000003_Node000025" class="edge">
<title>Node3&#45;&gt;Node25</title>
<g id="a_edge43_Node000003_Node000025"><a xlink:title=" ">
<path fill="none" stroke="#63b8ff" d="M1474.93,-243.26C1471.74,-242.82 1468.58,-242.39 1465.5,-242 1316.53,-222.92 1268.91,-261.88 1129.5,-206 1109.2,-197.86 1111.06,-183.45 1090.5,-176 994.84,-141.35 276.88,-148.67 175.5,-140 162.95,-138.93 149.6,-137.44 136.77,-135.83"/>
<polygon fill="#63b8ff" stroke="#63b8ff" points="136.97,-132.33 126.61,-134.52 136.08,-139.27 136.97,-132.33"/>
</a>
</g>
</g>
<!-- Node42 -->
<g id="Node000042" class="node">
<title>Node42</title>
<g id="a_Node000042"><a xlink:title=" ">
<polygon fill="#e0e0e0" stroke="#999999" points="1082,-206 951,-206 951,-176 1082,-176 1082,-206"/>
<text text-anchor="start" x="959" y="-194" font-family="Helvetica,sans-Serif" font-size="10.00">user_builtin_non_scalar</text>
<text text-anchor="middle" x="1016.5" y="-183" font-family="Helvetica,sans-Serif" font-size="10.00">_constants.h</text>
</a>
</g>
</g>
<!-- Node3&#45;&gt;Node42 -->
<g id="edge44_Node000003_Node000042" class="edge">
<title>Node3&#45;&gt;Node42</title>
<g id="a_edge44_Node000003_Node000042"><a xlink:title=" ">
<path fill="none" stroke="#63b8ff" d="M1474.94,-243.22C1471.75,-242.79 1468.58,-242.38 1465.5,-242 1301.96,-221.84 1259.77,-228.22 1096.5,-206 1095.2,-205.82 1093.9,-205.64 1092.58,-205.45"/>
<polygon fill="#63b8ff" stroke="#63b8ff" points="1092.77,-201.94 1082.36,-203.93 1091.74,-208.87 1092.77,-201.94"/>
</a>
</g>
</g>
<!-- Node5&#45;&gt;Node4 -->
<g id="edge6_Node000005_Node000004" class="edge">
<title>Node5&#45;&gt;Node4</title>
<g id="a_edge6_Node000005_Node000004"><a xlink:title=" ">
<path fill="none" stroke="#63b8ff" d="M1224.57,-188.87C1385,-184.44 1939.97,-167.21 1965.5,-140 1979.3,-125.29 1975.19,-100.87 1969.86,-84.03"/>
<polygon fill="#63b8ff" stroke="#63b8ff" points="1973.01,-82.46 1966.35,-74.23 1966.42,-84.82 1973.01,-82.46"/>
</a>
</g>
</g>
<!-- Node6 -->
<g id="Node000006" class="node">
<title>Node6</title>
<g id="a_Node000006"><a xlink:title=" ">
<polygon fill="#e0e0e0" stroke="#999999" points="2061.5,-74 2011.5,-74 2011.5,-55 2061.5,-55 2061.5,-74"/>
<text text-anchor="middle" x="2036.5" y="-62" font-family="Helvetica,sans-Serif" font-size="10.00">stdio.h</text>
</a>
</g>
</g>
<!-- Node5&#45;&gt;Node6 -->
<g id="edge5_Node000005_Node000006" class="edge">
<title>Node5&#45;&gt;Node6</title>
<g id="a_edge5_Node000005_Node000006"><a xlink:title=" ">
<path fill="none" stroke="#63b8ff" d="M1224.67,-189.49C1381.88,-187.34 1918.09,-177.3 1984.5,-140 2006.57,-127.6 2021.41,-101.47 2029.4,-83.69"/>
<polygon fill="#63b8ff" stroke="#63b8ff" points="2032.68,-84.93 2033.33,-74.36 2026.23,-82.22 2032.68,-84.93"/>
</a>
</g>
</g>
<!-- Node7 -->
<g id="Node000007" class="node">
<title>Node7</title>
<g id="a_Node000007"><a xlink:href="device__headers_8h.html" target="_top" xlink:title=" ">
<polygon fill="white" stroke="#666666" points="250.5,-74 148.5,-74 148.5,-55 250.5,-55 250.5,-74"/>
<text text-anchor="middle" x="199.5" y="-62" font-family="Helvetica,sans-Serif" font-size="10.00">device_headers.h</text>
</a>
</g>
</g>
<!-- Node5&#45;&gt;Node7 -->
<g id="edge7_Node000005_Node000007" class="edge">
<title>Node5&#45;&gt;Node7</title>
<g id="a_edge7_Node000005_Node000007"><a xlink:title=" ">
<path fill="none" stroke="#63b8ff" d="M1151.55,-181.44C1142.89,-179.29 1133.38,-177.25 1124.5,-176 1072.86,-168.74 222.66,-177.58 186.5,-140 172.04,-124.97 180.53,-99.92 189.05,-83.06"/>
<polygon fill="#63b8ff" stroke="#63b8ff" points="192.16,-84.67 193.9,-74.22 186.02,-81.3 192.16,-84.67"/>
</a>
</g>
</g>
<!-- Node10 -->
<g id="Node000010" class="node">
<title>Node10</title>
<g id="a_Node000010"><a xlink:title=" ">
<polygon fill="#e0e0e0" stroke="#999999" points="402,-74 307,-74 307,-55 402,-55 402,-74"/>
<text text-anchor="middle" x="354.5" y="-62" font-family="Helvetica,sans-Serif" font-size="10.00">builtin_enums.h</text>
</a>
</g>
</g>
<!-- Node5&#45;&gt;Node10 -->
<g id="edge10_Node000005_Node000010" class="edge">
<title>Node5&#45;&gt;Node10</title>
<g id="a_edge10_Node000005_Node000010"><a xlink:title=" ">
<path fill="none" stroke="#63b8ff" d="M1151.54,-181.47C1142.89,-179.33 1133.38,-177.28 1124.5,-176 1080.02,-169.61 347.56,-172.47 316.5,-140 300.2,-122.96 319.88,-97.55 336.45,-81.25"/>
<polygon fill="#63b8ff" stroke="#63b8ff" points="339.23,-83.44 344.16,-74.06 334.46,-78.32 339.23,-83.44"/>
</a>
</g>
</g>
<!-- Node11 -->
<g id="Node000011" class="node">
<title>Node11</title>
<g id="a_Node000011"><a xlink:href="datatypes_8h.html" target="_top" xlink:title=" ">
<polygon fill="#fff0f0" stroke="red" points="269.5,-134.5 195.5,-134.5 195.5,-115.5 269.5,-115.5 269.5,-134.5"/>
<text text-anchor="middle" x="232.5" y="-122.5" font-family="Helvetica,sans-Serif" font-size="10.00">datatypes.h</text>
</a>
</g>
</g>
<!-- Node5&#45;&gt;Node11 -->
<g id="edge11_Node000005_Node000011" class="edge">
<title>Node5&#45;&gt;Node11</title>
<g id="a_edge11_Node000005_Node000011"><a xlink:title=" ">
<path fill="none" stroke="#63b8ff" d="M1151.54,-181.46C1142.89,-179.32 1133.38,-177.27 1124.5,-176 754.14,-123.12 653.11,-197.88 283.5,-140 278.76,-139.26 273.83,-138.24 268.99,-137.08"/>
<polygon fill="#63b8ff" stroke="#63b8ff" points="269.81,-133.68 259.25,-134.56 268.06,-140.45 269.81,-133.68"/>
</a>
</g>
</g>
<!-- Node5&#45;&gt;Node19 -->
<g id="edge19_Node000005_Node000019" class="edge">
<title>Node5&#45;&gt;Node19</title>
<g id="a_edge19_Node000005_Node000019"><a xlink:title=" ">
<path fill="none" stroke="#63b8ff" d="M1224.85,-189.23C1350.79,-186.6 1727.35,-176.08 2037.5,-140 2051.2,-138.41 2066.12,-135.99 2079.32,-133.6"/>
<polygon fill="#63b8ff" stroke="#63b8ff" points="2080.28,-136.98 2089.48,-131.72 2079.01,-130.1 2080.28,-136.98"/>
</a>
</g>
</g>
<!-- Node23 -->
<g id="Node000023" class="node">
<title>Node23</title>
<g id="a_Node000023"><a xlink:title=" ">
<polygon fill="#e0e0e0" stroke="#999999" points="413,-134.5 326,-134.5 326,-115.5 413,-115.5 413,-134.5"/>
<text text-anchor="middle" x="369.5" y="-122.5" font-family="Helvetica,sans-Serif" font-size="10.00">user_defines.h</text>
</a>
</g>
</g>
<!-- Node5&#45;&gt;Node23 -->
<g id="edge28_Node000005_Node000023" class="edge">
<title>Node5&#45;&gt;Node23</title>
<g id="a_edge28_Node000005_Node000023"><a xlink:title=" ">
<path fill="none" stroke="#63b8ff" d="M1151.24,-181.44C1142.66,-179.32 1133.27,-177.29 1124.5,-176 815.42,-130.54 731.18,-188.15 422.5,-140 417.46,-139.21 412.2,-138.14 407.04,-136.94"/>
<polygon fill="#63b8ff" stroke="#63b8ff" points="407.88,-133.54 397.33,-134.51 406.18,-140.33 407.88,-133.54"/>
</a>
</g>
</g>
<!-- Node24 -->
<g id="Node000024" class="node">
<title>Node24</title>
<g id="a_Node000024"><a xlink:title=" ">
<polygon fill="#e0e0e0" stroke="#999999" points="517.5,-134.5 431.5,-134.5 431.5,-115.5 517.5,-115.5 517.5,-134.5"/>
<text text-anchor="middle" x="474.5" y="-122.5" font-family="Helvetica,sans-Serif" font-size="10.00">profiles_info.h</text>
</a>
</g>
</g>
<!-- Node5&#45;&gt;Node24 -->
<g id="edge29_Node000005_Node000024" class="edge">
<title>Node5&#45;&gt;Node24</title>
<g id="a_edge29_Node000005_Node000024"><a xlink:title=" ">
<path fill="none" stroke="#63b8ff" d="M1151.23,-181.49C1142.66,-179.37 1133.27,-177.33 1124.5,-176 861.25,-136.08 789.29,-182.83 526.5,-140 521.73,-139.22 516.77,-138.19 511.89,-137.04"/>
<polygon fill="#63b8ff" stroke="#63b8ff" points="512.62,-133.61 502.07,-134.54 510.9,-140.39 512.62,-133.61"/>
</a>
</g>
</g>
<!-- Node5&#45;&gt;Node25 -->
<g id="edge30_Node000005_Node000025" class="edge">
<title>Node5&#45;&gt;Node25</title>
<g id="a_edge30_Node000005_Node000025"><a xlink:title=" ">
<path fill="none" stroke="#63b8ff" d="M1151.55,-181.43C1142.89,-179.28 1133.38,-177.24 1124.5,-176 696.81,-116.19 583.15,-183.59 153.5,-140 144,-139.04 133.95,-137.67 124.23,-136.16"/>
<polygon fill="#63b8ff" stroke="#63b8ff" points="124.69,-132.69 114.26,-134.55 123.57,-139.6 124.69,-132.69"/>
</a>
</g>
</g>
<!-- Node26 -->
<g id="Node000026" class="node">
<title>Node26</title>
<g id="a_Node000026"><a xlink:href="func__attributes_8h.html" target="_top" xlink:title=" ">
<polygon fill="white" stroke="#666666" points="635,-134.5 536,-134.5 536,-115.5 635,-115.5 635,-134.5"/>
<text text-anchor="middle" x="585.5" y="-122.5" font-family="Helvetica,sans-Serif" font-size="10.00">func_attributes.h</text>
</a>
</g>
</g>
<!-- Node5&#45;&gt;Node26 -->
<g id="edge31_Node000005_Node000026" class="edge">
<title>Node5&#45;&gt;Node26</title>
<g id="a_edge31_Node000005_Node000026"><a xlink:title=" ">
<path fill="none" stroke="#63b8ff" d="M1150.93,-181.5C1142.43,-179.41 1133.15,-177.38 1124.5,-176 912.79,-142.32 855.28,-173.26 643.5,-140 638.06,-139.15 632.39,-138.04 626.8,-136.83"/>
<polygon fill="#63b8ff" stroke="#63b8ff" points="627.45,-133.39 616.92,-134.57 625.88,-140.21 627.45,-133.39"/>
</a>
</g>
</g>
<!-- Node27 -->
<g id="Node000027" class="node">
<title>Node27</title>
<g id="a_Node000027"><a xlink:title=" ">
<polygon fill="#e0e0e0" stroke="#999999" points="778,-134.5 653,-134.5 653,-115.5 778,-115.5 778,-134.5"/>
<text text-anchor="middle" x="715.5" y="-122.5" font-family="Helvetica,sans-Serif" font-size="10.00">user_input_typedefs.h</text>
</a>
</g>
</g>
<!-- Node5&#45;&gt;Node27 -->
<g id="edge32_Node000005_Node000027" class="edge">
<title>Node5&#45;&gt;Node27</title>
<g id="a_edge32_Node000005_Node000027"><a xlink:title=" ">
<path fill="none" stroke="#63b8ff" d="M1150,-181.46C1141.75,-179.44 1132.83,-177.46 1124.5,-176 975.7,-149.92 935.87,-162.64 786.5,-140 779.74,-138.98 772.65,-137.75 765.66,-136.47"/>
<polygon fill="#63b8ff" stroke="#63b8ff" points="766.05,-132.98 755.57,-134.54 764.74,-139.85 766.05,-132.98"/>
</a>
</g>
</g>
<!-- Node28 -->
<g id="Node000028" class="node">
<title>Node28</title>
<g id="a_Node000028"><a xlink:title=" ">
<polygon fill="#e0e0e0" stroke="#999999" points="879,-134.5 796,-134.5 796,-115.5 879,-115.5 879,-134.5"/>
<text text-anchor="middle" x="837.5" y="-122.5" font-family="Helvetica,sans-Serif" font-size="10.00">output_decl.h</text>
</a>
</g>
</g>
<!-- Node5&#45;&gt;Node28 -->
<g id="edge33_Node000005_Node000028" class="edge">
<title>Node5&#45;&gt;Node28</title>
<g id="a_edge33_Node000005_Node000028"><a xlink:title=" ">
<path fill="none" stroke="#63b8ff" d="M1149.06,-181.5C1141.06,-179.55 1132.5,-177.59 1124.5,-176 1020.43,-155.33 992.28,-162.08 888.5,-140 884.41,-139.13 880.16,-138.13 875.93,-137.06"/>
<polygon fill="#63b8ff" stroke="#63b8ff" points="876.78,-133.67 866.22,-134.51 875,-140.44 876.78,-133.67"/>
</a>
</g>
</g>
<!-- Node29 -->
<g id="Node000029" class="node">
<title>Node29</title>
<g id="a_Node000029"><a xlink:title=" ">
<polygon fill="#e0e0e0" stroke="#999999" points="1013.5,-134.5 897.5,-134.5 897.5,-115.5 1013.5,-115.5 1013.5,-134.5"/>
<text text-anchor="middle" x="955.5" y="-122.5" font-family="Helvetica,sans-Serif" font-size="10.00">comp_loaded_decl.h</text>
</a>
</g>
</g>
<!-- Node5&#45;&gt;Node29 -->
<g id="edge34_Node000005_Node000029" class="edge">
<title>Node5&#45;&gt;Node29</title>
<g id="a_edge34_Node000005_Node000029"><a xlink:title=" ">
<path fill="none" stroke="#63b8ff" d="M1151.02,-181.37C1110.89,-170 1040.24,-150 995.75,-137.4"/>
<polygon fill="#63b8ff" stroke="#63b8ff" points="996.43,-133.95 985.86,-134.6 994.52,-140.69 996.43,-133.95"/>
</a>
</g>
</g>
<!-- Node30 -->
<g id="Node000030" class="node">
<title>Node30</title>
<g id="a_Node000030"><a xlink:title=" ">
<polygon fill="#e0e0e0" stroke="#999999" points="1109.5,-134.5 1031.5,-134.5 1031.5,-115.5 1109.5,-115.5 1109.5,-134.5"/>
<text text-anchor="middle" x="1070.5" y="-122.5" font-family="Helvetica,sans-Serif" font-size="10.00">comp_decl.h</text>
</a>
</g>
</g>
<!-- Node5&#45;&gt;Node30 -->
<g id="edge35_Node000005_Node000030" class="edge">
<title>Node5&#45;&gt;Node30</title>
<g id="a_edge35_Node000005_Node000030"><a xlink:title=" ">
<path fill="none" stroke="#63b8ff" d="M1166.53,-181.37C1147.99,-170.68 1116.19,-152.35 1094.3,-139.72"/>
<polygon fill="#63b8ff" stroke="#63b8ff" points="1096,-136.66 1085.59,-134.7 1092.5,-142.73 1096,-136.66"/>
</a>
</g>
</g>
<!-- Node31 -->
<g id="Node000031" class="node">
<title>Node31</title>
<g id="a_Node000031"><a xlink:title=" ">
<polygon fill="#e0e0e0" stroke="#999999" points="1235.5,-134.5 1127.5,-134.5 1127.5,-115.5 1235.5,-115.5 1235.5,-134.5"/>
<text text-anchor="middle" x="1181.5" y="-122.5" font-family="Helvetica,sans-Serif" font-size="10.00">info_loaded_decl.h</text>
</a>
</g>
</g>
<!-- Node5&#45;&gt;Node31 -->
<g id="edge36_Node000005_Node000031" class="edge">
<title>Node5&#45;&gt;Node31</title>
<g id="a_edge36_Node000005_Node000031"><a xlink:title=" ">
<path fill="none" stroke="#63b8ff" d="M1181.5,-181.37C1181.5,-172.16 1181.5,-157.29 1181.5,-145.27"/>
<polygon fill="#63b8ff" stroke="#63b8ff" points="1185,-144.91 1181.5,-134.91 1178,-144.91 1185,-144.91"/>
</a>
</g>
</g>
<!-- Node32 -->
<g id="Node000032" class="node">
<title>Node32</title>
<g id="a_Node000032"><a xlink:title=" ">
<polygon fill="#e0e0e0" stroke="#999999" points="1393.5,-134.5 1253.5,-134.5 1253.5,-115.5 1393.5,-115.5 1393.5,-134.5"/>
<text text-anchor="middle" x="1323.5" y="-122.5" font-family="Helvetica,sans-Serif" font-size="10.00">device_mesh_info_decl.h</text>
</a>
</g>
</g>
<!-- Node5&#45;&gt;Node32 -->
<g id="edge37_Node000005_Node000032" class="edge">
<title>Node5&#45;&gt;Node32</title>
<g id="a_edge37_Node000005_Node000032"><a xlink:title=" ">
<path fill="none" stroke="#63b8ff" d="M1200.65,-181.37C1224.89,-170.44 1266.87,-151.52 1294.91,-138.88"/>
<polygon fill="#63b8ff" stroke="#63b8ff" points="1296.52,-142 1304.2,-134.7 1293.64,-135.62 1296.52,-142"/>
</a>
</g>
</g>
<!-- Node33 -->
<g id="Node000033" class="node">
<title>Node33</title>
<g id="a_Node000033"><a xlink:title=" ">
<polygon fill="#e0e0e0" stroke="#999999" points="1489,-134.5 1412,-134.5 1412,-115.5 1489,-115.5 1489,-134.5"/>
<text text-anchor="middle" x="1450.5" y="-122.5" font-family="Helvetica,sans-Serif" font-size="10.00">array_decl.h</text>
</a>
</g>
</g>
<!-- Node5&#45;&gt;Node33 -->
<g id="edge38_Node000005_Node000033" class="edge">
<title>Node5&#45;&gt;Node33</title>
<g id="a_edge38_Node000005_Node000033"><a xlink:title=" ">
<path fill="none" stroke="#63b8ff" d="M1222.82,-181.44C1267.36,-172.04 1340.23,-156.11 1402.5,-140 1405.84,-139.14 1409.29,-138.2 1412.75,-137.25"/>
<polygon fill="#63b8ff" stroke="#63b8ff" points="1413.74,-140.6 1422.41,-134.51 1411.83,-133.87 1413.74,-140.6"/>
</a>
</g>
</g>
<!-- Node34 -->
<g id="Node000034" class="node">
<title>Node34</title>
<g id="a_Node000034"><a xlink:title=" ">
<polygon fill="#e0e0e0" stroke="#999999" points="1583.5,-134.5 1507.5,-134.5 1507.5,-115.5 1583.5,-115.5 1583.5,-134.5"/>
<text text-anchor="middle" x="1545.5" y="-122.5" font-family="Helvetica,sans-Serif" font-size="10.00">input_decl.h</text>
</a>
</g>
</g>
<!-- Node5&#45;&gt;Node34 -->
<g id="edge39_Node000005_Node000034" class="edge">
<title>Node5&#45;&gt;Node34</title>
<g id="a_edge39_Node000005_Node000034"><a xlink:title=" ">
<path fill="none" stroke="#63b8ff" d="M1224.5,-184.95C1285.61,-177.39 1400.89,-161.64 1497.5,-140 1501.15,-139.18 1504.92,-138.25 1508.68,-137.25"/>
<polygon fill="#63b8ff" stroke="#63b8ff" points="1509.79,-140.57 1518.49,-134.53 1507.92,-133.83 1509.79,-140.57"/>
</a>
</g>
</g>
<!-- Node35 -->
<g id="Node000035" class="node">
<title>Node35</title>
<g id="a_Node000035"><a xlink:href="ac__helpers_8h.html" target="_top" xlink:title=" ">
<polygon fill="white" stroke="#666666" points="1679.5,-134.5 1601.5,-134.5 1601.5,-115.5 1679.5,-115.5 1679.5,-134.5"/>
<text text-anchor="middle" x="1640.5" y="-122.5" font-family="Helvetica,sans-Serif" font-size="10.00">ac_helpers.h</text>
</a>
</g>
</g>
<!-- Node5&#45;&gt;Node35 -->
<g id="edge40_Node000005_Node000035" class="edge">
<title>Node5&#45;&gt;Node35</title>
<g id="a_edge40_Node000005_Node000035"><a xlink:title=" ">
<path fill="none" stroke="#63b8ff" d="M1224.77,-187.06C1300.1,-181.44 1459.95,-167.2 1592.5,-140 1596.36,-139.21 1600.36,-138.26 1604.33,-137.23"/>
<polygon fill="#63b8ff" stroke="#63b8ff" points="1605.32,-140.58 1614.03,-134.55 1603.46,-133.84 1605.32,-140.58"/>
</a>
</g>
</g>
<!-- Node36 -->
<g id="Node000036" class="node">
<title>Node36</title>
<g id="a_Node000036"><a xlink:title=" ">
<polygon fill="#e0e0e0" stroke="#999999" points="1815.5,-140 1697.5,-140 1697.5,-110 1815.5,-110 1815.5,-140"/>
<text text-anchor="start" x="1705.5" y="-128" font-family="Helvetica,sans-Serif" font-size="10.00">scalar_reduce_buffer</text>
<text text-anchor="middle" x="1756.5" y="-117" font-family="Helvetica,sans-Serif" font-size="10.00">_defs.h</text>
</a>
</g>
</g>
<!-- Node5&#45;&gt;Node36 -->
<g id="edge41_Node000005_Node000036" class="edge">
<title>Node5&#45;&gt;Node36</title>
<g id="a_edge41_Node000005_Node000036"><a xlink:title=" ">
<path fill="none" stroke="#63b8ff" d="M1224.76,-187.27C1310.91,-181.5 1510.19,-166.49 1687.21,-140.09"/>
<polygon fill="#63b8ff" stroke="#63b8ff" points="1687.86,-143.54 1697.23,-138.58 1686.82,-136.61 1687.86,-143.54"/>
</a>
</g>
</g>
<!-- Node37 -->
<g id="Node000037" class="node">
<title>Node37</title>
<g id="a_Node000037"><a xlink:title=" ">
<polygon fill="#e0e0e0" stroke="#999999" points="1957,-140 1834,-140 1834,-110 1957,-110 1957,-140"/>
<text text-anchor="start" x="1842" y="-128" font-family="Helvetica,sans-Serif" font-size="10.00">scalar_reduce_buffers</text>
<text text-anchor="middle" x="1895.5" y="-117" font-family="Helvetica,sans-Serif" font-size="10.00">_in_vba.h</text>
</a>
</g>
</g>
<!-- Node5&#45;&gt;Node37 -->
<g id="edge42_Node000005_Node000037" class="edge">
<title>Node5&#45;&gt;Node37</title>
<g id="a_edge42_Node000005_Node000037"><a xlink:title=" ">
<path fill="none" stroke="#63b8ff" d="M1224.58,-188.39C1326.81,-184.21 1592.2,-171.15 1823.66,-140"/>
<polygon fill="#63b8ff" stroke="#63b8ff" points="1824.18,-143.46 1833.62,-138.65 1823.24,-136.53 1824.18,-143.46"/>
</a>
</g>
</g>
<!-- Node8 -->
<g id="Node000008" class="node">
<title>Node8</title>
<g id="a_Node000008"><a xlink:title=" ">
<polygon fill="#e0e0e0" stroke="#999999" points="177,-19 64,-19 64,0 177,0 177,-19"/>
<text text-anchor="middle" x="120.5" y="-7" font-family="Helvetica,sans-Serif" font-size="10.00">cuda_runtime_api.h</text>
</a>
</g>
</g>
<!-- Node7&#45;&gt;Node8 -->
<g id="edge8_Node000007_Node000008" class="edge">
<title>Node7&#45;&gt;Node8</title>
<g id="a_edge8_Node000007_Node000008"><a xlink:title=" ">
<path fill="none" stroke="#63b8ff" d="M186.81,-54.98C174.67,-46.84 156.14,-34.41 141.75,-24.76"/>
<polygon fill="#63b8ff" stroke="#63b8ff" points="143.68,-21.84 133.42,-19.17 139.78,-27.65 143.68,-21.84"/>
</a>
</g>
</g>
<!-- Node9 -->
<g id="Node000009" class="node">
<title>Node9</title>
<g id="a_Node000009"><a xlink:title=" ">
<polygon fill="#e0e0e0" stroke="#999999" points="271.5,-19 195.5,-19 195.5,0 271.5,0 271.5,-19"/>
<text text-anchor="middle" x="233.5" y="-7" font-family="Helvetica,sans-Serif" font-size="10.00">cuda_fp16.h</text>
</a>
</g>
</g>
<!-- Node7&#45;&gt;Node9 -->
<g id="edge9_Node000007_Node000009" class="edge">
<title>Node7&#45;&gt;Node9</title>
<g id="a_edge9_Node000007_Node000009"><a xlink:title=" ">
<path fill="none" stroke="#63b8ff" d="M205.11,-54.75C209.82,-47.42 216.67,-36.73 222.47,-27.7"/>
<polygon fill="#63b8ff" stroke="#63b8ff" points="225.54,-29.4 227.99,-19.09 219.64,-25.62 225.54,-29.4"/>
</a>
</g>
</g>
<!-- Node11&#45;&gt;Node7 -->
<g id="edge12_Node000011_Node000007" class="edge">
<title>Node11&#45;&gt;Node7</title>
<g id="a_edge12_Node000011_Node000007"><a xlink:title=" ">
<path fill="none" stroke="#63b8ff" d="M227.63,-115.37C222.85,-106.9 215.43,-93.74 209.41,-83.07"/>
<polygon fill="#63b8ff" stroke="#63b8ff" points="212.35,-81.16 204.39,-74.17 206.25,-84.6 212.35,-81.16"/>
</a>
</g>
</g>
<!-- Node11&#45;&gt;Node8 -->
<g id="edge13_Node000011_Node000008" class="edge">
<title>Node11&#45;&gt;Node8</title>
<g id="a_edge13_Node000011_Node000008"><a xlink:title=" ">
<path fill="none" stroke="#63b8ff" d="M204.25,-115.41C183.52,-107.72 156.18,-94.46 139.5,-74 129.16,-61.32 124.44,-43.14 122.3,-29.47"/>
<polygon fill="#63b8ff" stroke="#63b8ff" points="125.74,-28.77 121.03,-19.28 118.79,-29.64 125.74,-28.77"/>
</a>
</g>
</g>
<!-- Node11&#45;&gt;Node10 -->
<g id="edge15_Node000011_Node000010" class="edge">
<title>Node11&#45;&gt;Node10</title>
<g id="a_edge15_Node000011_Node000010"><a xlink:title=" ">
<path fill="none" stroke="#63b8ff" d="M250.24,-115.49C270.57,-105.75 304.11,-89.66 327.64,-78.38"/>
<polygon fill="#63b8ff" stroke="#63b8ff" points="329.24,-81.5 336.74,-74.02 326.21,-75.18 329.24,-81.5"/>
</a>
</g>
</g>
<!-- Node15 -->
<g id="Node000015" class="node">
<title>Node15</title>
<g id="a_Node000015"><a xlink:href="acreal_8h.html" target="_top" xlink:title=" ">
<polygon fill="white" stroke="#666666" points="1146.5,-19 1090.5,-19 1090.5,0 1146.5,0 1146.5,-19"/>
<text text-anchor="middle" x="1118.5" y="-7" font-family="Helvetica,sans-Serif" font-size="10.00">acreal.h</text>
</a>
</g>
</g>
<!-- Node11&#45;&gt;Node15 -->
<g id="edge14_Node000011_Node000015" class="edge">
<title>Node11&#45;&gt;Node15</title>
<g id="a_edge14_Node000011_Node000015"><a xlink:title=" ">
<path fill="none" stroke="#63b8ff" d="M237.58,-115.23C247.07,-99.8 269.14,-68.17 297.5,-55 368.94,-21.83 927.41,-12.78 1080.06,-10.91"/>
<polygon fill="#63b8ff" stroke="#63b8ff" points="1080.37,-14.41 1090.33,-10.79 1080.29,-7.41 1080.37,-14.41"/>
</a>
</g>
</g>
<!-- Node17 -->
<g id="Node000017" class="node">
<title>Node17</title>
<g id="a_Node000017"><a xlink:href="host__datatypes_8h.html" target="_top" xlink:title=" ">
<polygon fill="white" stroke="#666666" points="1226,-74 1125,-74 1125,-55 1226,-55 1226,-74"/>
<text text-anchor="middle" x="1175.5" y="-62" font-family="Helvetica,sans-Serif" font-size="10.00">host_datatypes.h</text>
</a>
</g>
</g>
<!-- Node11&#45;&gt;Node17 -->
<g id="edge16_Node000011_Node000017" class="edge">
<title>Node11&#45;&gt;Node17</title>
<g id="a_edge16_Node000011_Node000017"><a xlink:title=" ">
<path fill="none" stroke="#63b8ff" d="M269.59,-116.89C284.16,-114.34 301.07,-111.68 316.5,-110 614.85,-77.52 974.16,-68.61 1114.85,-66.28"/>
<polygon fill="#63b8ff" stroke="#63b8ff" points="1115.05,-69.78 1124.99,-66.12 1114.94,-62.78 1115.05,-69.78"/>
</a>
</g>
</g>
<!-- Node17&#45;&gt;Node15 -->
<g id="edge17_Node000017_Node000015" class="edge">
<title>Node17&#45;&gt;Node15</title>
<g id="a_edge17_Node000017_Node000015"><a xlink:title=" ">
<path fill="none" stroke="#63b8ff" d="M1166.34,-54.98C1158,-47.23 1145.47,-35.58 1135.32,-26.14"/>
<polygon fill="#63b8ff" stroke="#63b8ff" points="1137.53,-23.42 1127.82,-19.17 1132.76,-28.54 1137.53,-23.42"/>
</a>
</g>
</g>
<!-- Node18 -->
<g id="Node000018" class="node">
<title>Node18</title>
<g id="a_Node000018"><a xlink:title=" ">
<polygon fill="#e0e0e0" stroke="#999999" points="1259.5,-19 1203.5,-19 1203.5,0 1259.5,0 1259.5,-19"/>
<text text-anchor="middle" x="1231.5" y="-7" font-family="Helvetica,sans-Serif" font-size="10.00">stddef.h</text>
</a>
</g>
</g>
<!-- Node17&#45;&gt;Node18 -->
<g id="edge18_Node000017_Node000018" class="edge">
<title>Node17&#45;&gt;Node18</title>
<g id="a_edge18_Node000017_Node000018"><a xlink:title=" ">
<path fill="none" stroke="#63b8ff" d="M1184.5,-54.98C1192.69,-47.23 1205.01,-35.58 1214.97,-26.14"/>
<polygon fill="#63b8ff" stroke="#63b8ff" points="1217.48,-28.59 1222.34,-19.17 1212.67,-23.5 1217.48,-28.59"/>
</a>
</g>
</g>
<!-- Node19&#45;&gt;Node4 -->
<g id="edge22_Node000019_Node000004" class="edge">
<title>Node19&#45;&gt;Node4</title>
<g id="a_edge22_Node000019_Node000004"><a xlink:title=" ">
<path fill="none" stroke="#63b8ff" d="M2094.96,-115.49C2068.56,-105.53 2024.62,-88.95 1994.65,-77.63"/>
<polygon fill="#63b8ff" stroke="#63b8ff" points="1995.66,-74.27 1985.07,-74.02 1993.19,-80.82 1995.66,-74.27"/>
</a>
</g>
</g>
<!-- Node19&#45;&gt;Node6 -->
<g id="edge24_Node000019_Node000006" class="edge">
<title>Node19&#45;&gt;Node6</title>
<g id="a_edge24_Node000019_Node000006"><a xlink:title=" ">
<path fill="none" stroke="#63b8ff" d="M2105.55,-115.37C2092.75,-106.12 2072.2,-91.28 2056.85,-80.19"/>
<polygon fill="#63b8ff" stroke="#63b8ff" points="2058.66,-77.18 2048.5,-74.17 2054.56,-82.86 2058.66,-77.18"/>
</a>
</g>
</g>
<!-- Node19&#45;&gt;Node7 -->
<g id="edge27_Node000019_Node000007" class="edge">
<title>Node19&#45;&gt;Node7</title>
<g id="a_edge27_Node000019_Node000007"><a xlink:title=" ">
<path fill="none" stroke="#63b8ff" d="M2089.25,-120.8C2058.76,-117.49 2008.76,-112.46 1965.5,-110 1225.19,-67.97 1037.92,-114.06 297.5,-74 285.58,-73.35 272.86,-72.43 260.66,-71.42"/>
<polygon fill="#63b8ff" stroke="#63b8ff" points="260.83,-67.92 250.57,-70.56 260.24,-74.9 260.83,-67.92"/>
</a>
</g>
</g>
<!-- Node19&#45;&gt;Node17 -->
<g id="edge21_Node000019_Node000017" class="edge">
<title>Node19&#45;&gt;Node17</title>
<g id="a_edge21_Node000019_Node000017"><a xlink:title=" ">
<path fill="none" stroke="#63b8ff" d="M2089.23,-121.09C2058.73,-118.03 2008.71,-113.21 1965.5,-110 1694.07,-89.86 1369.57,-74.24 1236.74,-68.21"/>
<polygon fill="#63b8ff" stroke="#63b8ff" points="1236.52,-64.69 1226.37,-67.74 1236.21,-71.69 1236.52,-64.69"/>
</a>
</g>
</g>
<!-- Node19&#45;&gt;Node18 -->
<g id="edge20_Node000019_Node000018" class="edge">
<title>Node19&#45;&gt;Node18</title>
<g id="a_edge20_Node000019_Node000018"><a xlink:title=" ">
<path fill="none" stroke="#63b8ff" d="M2124.56,-115.1C2135.18,-100.58 2152.44,-71.74 2136.5,-55 2106.17,-23.14 1437.8,-12.98 1269.63,-10.92"/>
<polygon fill="#63b8ff" stroke="#63b8ff" points="1269.55,-7.42 1259.51,-10.8 1269.47,-14.42 1269.55,-7.42"/>
</a>
</g>
</g>
<!-- Node20 -->
<g id="Node000020" class="node">
<title>Node20</title>
<g id="a_Node000020"><a xlink:title=" ">
<polygon fill="#e0e0e0" stroke="#999999" points="2237,-74 2184,-74 2184,-55 2237,-55 2237,-74"/>
<text text-anchor="middle" x="2210.5" y="-62" font-family="Helvetica,sans-Serif" font-size="10.00">stdint.h</text>
</a>
</g>
</g>
<!-- Node19&#45;&gt;Node20 -->
<g id="edge23_Node000019_Node000020" class="edge">
<title>Node19&#45;&gt;Node20</title>
<g id="a_edge23_Node000019_Node000020"><a xlink:title=" ">
<path fill="none" stroke="#63b8ff" d="M2131.22,-115.37C2146.2,-105.95 2170.39,-90.73 2188.12,-79.58"/>
<polygon fill="#63b8ff" stroke="#63b8ff" points="2190.12,-82.45 2196.72,-74.17 2186.39,-76.53 2190.12,-82.45"/>
</a>
</g>
</g>
<!-- Node21 -->
<g id="Node000021" class="node">
<title>Node21</title>
<g id="a_Node000021"><a xlink:title=" ">
<polygon fill="#e0e0e0" stroke="#999999" points="2308,-74 2255,-74 2255,-55 2308,-55 2308,-74"/>
<text text-anchor="middle" x="2281.5" y="-62" font-family="Helvetica,sans-Serif" font-size="10.00">stdlib.h</text>
</a>
</g>
</g>
<!-- Node19&#45;&gt;Node21 -->
<g id="edge25_Node000019_Node000021" class="edge">
<title>Node19&#45;&gt;Node21</title>
<g id="a_edge25_Node000019_Node000021"><a xlink:title=" ">
<path fill="none" stroke="#63b8ff" d="M2141.35,-115.49C2169.4,-105.49 2216.17,-88.8 2247.9,-77.49"/>
<polygon fill="#63b8ff" stroke="#63b8ff" points="2249.38,-80.67 2257.62,-74.02 2247.03,-74.08 2249.38,-80.67"/>
</a>
</g>
</g>
<!-- Node22 -->
<g id="Node000022" class="node">
<title>Node22</title>
<g id="a_Node000022"><a xlink:title=" ">
<polygon fill="#e0e0e0" stroke="#999999" points="2127.5,-74 2079.5,-74 2079.5,-55 2127.5,-55 2127.5,-74"/>
<text text-anchor="middle" x="2103.5" y="-62" font-family="Helvetica,sans-Serif" font-size="10.00">time.h</text>
</a>
</g>
</g>
<!-- Node19&#45;&gt;Node22 -->
<g id="edge26_Node000019_Node000022" class="edge">
<title>Node19&#45;&gt;Node22</title>
<g id="a_edge26_Node000019_Node000022"><a xlink:title=" ">
<path fill="none" stroke="#63b8ff" d="M2115.43,-115.37C2113.47,-107.16 2110.45,-94.54 2107.94,-84.05"/>
<polygon fill="#63b8ff" stroke="#63b8ff" points="2111.31,-83.08 2105.57,-74.17 2104.5,-84.71 2111.31,-83.08"/>
</a>
</g>
</g>
<!-- Node46 -->
<g id="Node000046" class="node">
<title>Node46</title>
<g id="a_Node000046"><a xlink:title=" ">
<polygon fill="#e0e0e0" stroke="#999999" points="523,-206 404,-206 404,-176 523,-176 523,-206"/>
<text text-anchor="start" x="412" y="-194" font-family="Helvetica,sans-Serif" font-size="10.00">device_load_uniform</text>
<text text-anchor="middle" x="463.5" y="-183" font-family="Helvetica,sans-Serif" font-size="10.00">_decl.h</text>
</a>
</g>
</g>
<!-- Node45&#45;&gt;Node46 -->
<g id="edge48_Node000045_Node000046" class="edge">
<title>Node45&#45;&gt;Node46</title>
<g id="a_edge48_Node000045_Node000046"><a xlink:title=" ">
<path fill="none" stroke="#63b8ff" d="M404.68,-241.87C413.7,-234.22 427.22,-222.76 439.03,-212.75"/>
<polygon fill="#63b8ff" stroke="#63b8ff" points="441.49,-215.25 446.85,-206.11 436.96,-209.91 441.49,-215.25"/>
</a>
</g>
</g>
<!-- Node47 -->
<g id="Node000047" class="node">
<title>Node47</title>
<g id="a_Node000047"><a xlink:title=" ">
<polygon fill="#e0e0e0" stroke="#999999" points="385.5,-206 263.5,-206 263.5,-176 385.5,-176 385.5,-206"/>
<text text-anchor="start" x="271.5" y="-194" font-family="Helvetica,sans-Serif" font-size="10.00">device_store_uniform</text>
<text text-anchor="middle" x="324.5" y="-183" font-family="Helvetica,sans-Serif" font-size="10.00">_decl.h</text>
</a>
</g>
</g>
<!-- Node45&#45;&gt;Node47 -->
<g id="edge49_Node000045_Node000047" class="edge">
<title>Node45&#45;&gt;Node47</title>
<g id="a_edge49_Node000045_Node000047"><a xlink:title=" ">
<path fill="none" stroke="#63b8ff" d="M384.17,-241.87C375.02,-234.22 361.31,-222.76 349.33,-212.75"/>
<polygon fill="#63b8ff" stroke="#63b8ff" points="351.31,-209.84 341.39,-206.11 346.82,-215.21 351.31,-209.84"/>
</a>
</g>
</g>
<!-- Node55&#45;&gt;Node2 -->
<g id="edge58_Node000055_Node000002" class="edge">
<title>Node55&#45;&gt;Node2</title>
<g id="a_edge58_Node000055_Node000002"><a xlink:title=" ">
<path fill="none" stroke="#63b8ff" d="M2127.31,-358.45C1935.86,-349.98 1205.98,-317.66 1019.89,-309.42"/>
<polygon fill="#63b8ff" stroke="#63b8ff" points="1019.82,-305.91 1009.67,-308.97 1019.51,-312.91 1019.82,-305.91"/>
</a>
</g>
</g>
<!-- Node56 -->
<g id="Node000056" class="node">
<title>Node56</title>
<g id="a_Node000056"><a xlink:title=" ">
<polygon fill="#e0e0e0" stroke="#999999" points="2192.5,-316 2136.5,-316 2136.5,-297 2192.5,-297 2192.5,-316"/>
<text text-anchor="middle" x="2164.5" y="-304" font-family="Helvetica,sans-Serif" font-size="10.00">stdarg.h</text>
</a>
</g>
</g>
<!-- Node55&#45;&gt;Node56 -->
<g id="edge59_Node000055_Node000056" class="edge">
<title>Node55&#45;&gt;Node56</title>
<g id="a_edge59_Node000055_Node000056"><a xlink:title=" ">
<path fill="none" stroke="#63b8ff" d="M2172.01,-351.75C2170.83,-344.8 2169.14,-334.85 2167.66,-326.13"/>
<polygon fill="#63b8ff" stroke="#63b8ff" points="2171.08,-325.36 2165.96,-316.09 2164.18,-326.53 2171.08,-325.36"/>
</a>
</g>
</g>
<!-- Node57 -->
<g id="Node000057" class="node">
<title>Node57</title>
<g id="a_Node000057"><a xlink:href="astaroth__lib_8h.html" target="_top" xlink:title=" ">
<polygon fill="white" stroke="#666666" points="2294,-316 2211,-316 2211,-297 2294,-297 2294,-316"/>
<text text-anchor="middle" x="2252.5" y="-304" font-family="Helvetica,sans-Serif" font-size="10.00">astaroth_lib.h</text>
</a>
</g>
</g>
<!-- Node55&#45;&gt;Node57 -->
<g id="edge60_Node000055_Node000057" class="edge">
<title>Node55&#45;&gt;Node57</title>
<g id="a_edge60_Node000055_Node000057"><a xlink:title=" ">
<path fill="none" stroke="#63b8ff" d="M2186.19,-351.98C2198.33,-343.84 2216.86,-331.41 2231.25,-321.76"/>
<polygon fill="#63b8ff" stroke="#63b8ff" points="2233.22,-324.65 2239.58,-316.17 2229.32,-318.84 2233.22,-324.65"/>
</a>
</g>
</g>
</g>
</svg>
