<?xml version="1.0" encoding="UTF-8" standalone="no"?>
<!DOCTYPE svg PUBLIC "-//W3C//DTD SVG 1.1//EN"
 "http://www.w3.org/Graphics/SVG/1.1/DTD/svg11.dtd">
<!-- Generated by graphviz version 2.43.0 (0)
 -->
<!-- Title: test/grid&#45;calculation/main.cc Pages: 1 -->
<!--zoomable 434 -->

<svg id="main" version="1.1" xmlns="http://www.w3.org/2000/svg" xmlns:xlink="http://www.w3.org/1999/xlink" xml:space="preserve" onload="init(evt)">
<style type="text/css"><![CDATA[
.node, .edge {opacity: 0.7;}
.node.selected, .edge.selected {opacity: 1;}
.edge:hover path { stroke: red; }
.edge:hover polygon { stroke: red; fill: red; }
]]></style>

<defs>
  <circle id="rim" cx="0" cy="0" r="7"/>
  <circle id="rim2" cx="0" cy="0" r="3.5"/>
  <g id="zoomPlus">
    <use xlink:href="#rim" fill="#404040"><set attributeName="fill" to="#808080" begin="zoomplus.mouseover" end="zoomplus.mouseout"/></use>
    <path d="M-4,0h8M0,-4v8" fill="none" stroke="white" stroke-width="1.5" pointer-events="none"/>
  </g>
  <g id="zoomMin">
    <use xlink:href="#rim" fill="#404040"><set attributeName="fill" to="#808080" begin="zoomminus.mouseover" end="zoomminus.mouseout"/></use>
    <path d="M-4,0h8" fill="none" stroke="white" stroke-width="1.5" pointer-events="none"/>
  </g>
  <g id="arrowUp" transform="translate(30 24)">
    <use xlink:href="#rim"/>
    <path pointer-events="none" fill="none" stroke="white" stroke-width="1.5" d="M0,-3.0v7 M-2.5,-0.5L0,-3.0L2.5,-0.5"/>
  </g>
  <g id="arrowRight" transform="rotate(90) translate(36 -43)">
    <use xlink:href="#rim"/>
    <path pointer-events="none" fill="none" stroke="white" stroke-width="1.5" d="M0,-3.0v7 M-2.5,-0.5L0,-3.0L2.5,-0.5"/>
  </g>
  <g id="arrowDown" transform="rotate(180) translate(-30 -48)">
    <use xlink:href="#rim"/>
    <path pointer-events="none" fill="none" stroke="white" stroke-width="1.5" d="M0,-3.0v7 M-2.5,-0.5L0,-3.0L2.5,-0.5"/>
  </g>
  <g id="arrowLeft" transform="rotate(270) translate(-36 17)">
    <use xlink:href="#rim"/>
    <path pointer-events="none" fill="none" stroke="white" stroke-width="1.5" d="M0,-3.0v7 M-2.5,-0.5L0,-3.0L2.5,-0.5"/>
  </g>
  <g id="resetDef">
    <use xlink:href="#rim2" fill="#404040"><set attributeName="fill" to="#808080" begin="reset.mouseover" end="reset.mouseout"/></use>
  </g>
</defs>
<script type="application/ecmascript">
var viewWidth = 1997;
var viewHeight = 434;
var sectionId = 'dynsection-0';
</script>
<script type="application/ecmascript" xlink:href="svg.min.js"/>
<svg id="graph" class="graph">
<g id="viewport">
<title>test/grid&#45;calculation/main.cc</title>
<!-- Node1 -->
<g id="Node000001" class="node">
<title>Node1</title>
<g id="a_Node000001"><a xlink:title=" ">
<polygon fill="#999999" stroke="#666666" points="1694.5,-426 1580.5,-426 1580.5,-396 1694.5,-396 1694.5,-426"/>
<text text-anchor="start" x="1588.5" y="-414" font-family="Helvetica,sans-Serif" font-size="10.00">test/grid&#45;calculation</text>
<text text-anchor="middle" x="1637.5" y="-403" font-family="Helvetica,sans-Serif" font-size="10.00">/main.cc</text>
</a>
</g>
</g>
<!-- Node2 -->
<g id="Node000002" class="node">
<title>Node2</title>
<g id="a_Node000002"><a xlink:href="astaroth_8h.html" target="_top" xlink:title=" ">
<polygon fill="white" stroke="#666666" points="1124.5,-305 1058.5,-305 1058.5,-286 1124.5,-286 1124.5,-305"/>
<text text-anchor="middle" x="1091.5" y="-293" font-family="Helvetica,sans-Serif" font-size="10.00">astaroth.h</text>
</a>
</g>
</g>
<!-- Node1&#45;&gt;Node2 -->
<g id="edge1_Node000001_Node000002" class="edge">
<title>Node1&#45;&gt;Node2</title>
<g id="a_edge1_Node000001_Node000002"><a xlink:title=" ">
<path fill="none" stroke="#63b8ff" d="M1580.36,-398.12C1470.48,-375.28 1232.01,-325.71 1134.43,-305.43"/>
<polygon fill="#63b8ff" stroke="#63b8ff" points="1135.12,-301.99 1124.62,-303.38 1133.69,-308.85 1135.12,-301.99"/>
</a>
</g>
</g>
<!-- Node20 -->
<g id="Node000020" class="node">
<title>Node20</title>
<g id="a_Node000020"><a xlink:href="errchk_8h.html" target="_top" xlink:title="Brief info.">
<polygon fill="white" stroke="#666666" points="1679.5,-129 1623.5,-129 1623.5,-110 1679.5,-110 1679.5,-129"/>
<text text-anchor="middle" x="1651.5" y="-117" font-family="Helvetica,sans-Serif" font-size="10.00">errchk.h</text>
</a>
</g>
</g>
<!-- Node1&#45;&gt;Node20 -->
<g id="edge62_Node000001_Node000020" class="edge">
<title>Node1&#45;&gt;Node20</title>
<g id="a_edge62_Node000001_Node000020"><a xlink:title=" ">
<path fill="none" stroke="#63b8ff" d="M1629.65,-395.79C1618.79,-374.76 1600.5,-333.81 1600.5,-296.5 1600.5,-296.5 1600.5,-296.5 1600.5,-239.5 1600.5,-205.33 1605.05,-195.97 1619.5,-165 1624.17,-154.99 1631.18,-144.92 1637.45,-136.89"/>
<polygon fill="#63b8ff" stroke="#63b8ff" points="1640.21,-139.04 1643.82,-129.08 1634.78,-134.62 1640.21,-139.04"/>
</a>
</g>
</g>
<!-- Node56 -->
<g id="Node000056" class="node">
<title>Node56</title>
<g id="a_Node000056"><a xlink:href="astaroth__utils_8h.html" target="_top" xlink:title="Functions for loading and updating AcMeshInfo.">
<polygon fill="white" stroke="#666666" points="1720.5,-360 1628.5,-360 1628.5,-341 1720.5,-341 1720.5,-360"/>
<text text-anchor="middle" x="1674.5" y="-348" font-family="Helvetica,sans-Serif" font-size="10.00">astaroth_utils.h</text>
</a>
</g>
</g>
<!-- Node1&#45;&gt;Node56 -->
<g id="edge58_Node000001_Node000056" class="edge">
<title>Node1&#45;&gt;Node56</title>
<g id="a_edge58_Node000001_Node000056"><a xlink:title=" ">
<path fill="none" stroke="#63b8ff" d="M1646.46,-395.84C1651.61,-387.69 1658.12,-377.4 1663.57,-368.78"/>
<polygon fill="#63b8ff" stroke="#63b8ff" points="1666.57,-370.59 1668.96,-360.27 1660.65,-366.85 1666.57,-370.59"/>
</a>
</g>
</g>
<!-- Node59 -->
<g id="Node000059" class="node">
<title>Node59</title>
<g id="a_Node000059"><a xlink:title=" ">
<polygon fill="#e0e0e0" stroke="#999999" points="1838,-360 1739,-360 1739,-341 1838,-341 1838,-360"/>
<text text-anchor="middle" x="1788.5" y="-348" font-family="Helvetica,sans-Serif" font-size="10.00">user_constants.h</text>
</a>
</g>
</g>
<!-- Node1&#45;&gt;Node59 -->
<g id="edge63_Node000001_Node000059" class="edge">
<title>Node1&#45;&gt;Node59</title>
<g id="a_edge63_Node000001_Node000059"><a xlink:title=" ">
<path fill="none" stroke="#63b8ff" d="M1673.67,-395.99C1698.97,-386.18 1732.46,-373.21 1756.74,-363.81"/>
<polygon fill="#63b8ff" stroke="#63b8ff" points="1758.14,-367.02 1766.2,-360.14 1755.61,-360.49 1758.14,-367.02"/>
</a>
</g>
</g>
<!-- Node3 -->
<g id="Node000003" class="node">
<title>Node3</title>
<g id="a_Node000003"><a xlink:href="astaroth__base_8h.html" target="_top" xlink:title=" ">
<polygon fill="white" stroke="#666666" points="1856,-250 1761,-250 1761,-231 1856,-231 1856,-250"/>
<text text-anchor="middle" x="1808.5" y="-238" font-family="Helvetica,sans-Serif" font-size="10.00">astaroth_base.h</text>
</a>
</g>
</g>
<!-- Node2&#45;&gt;Node3 -->
<g id="edge2_Node000002_Node000003" class="edge">
<title>Node2&#45;&gt;Node3</title>
<g id="a_edge2_Node000002_Node000003"><a xlink:title=" ">
<path fill="none" stroke="#63b8ff" d="M1124.64,-292.05C1237.36,-283.72 1606.82,-256.41 1750.56,-245.78"/>
<polygon fill="#63b8ff" stroke="#63b8ff" points="1751.2,-249.25 1760.92,-245.02 1750.69,-242.26 1751.2,-249.25"/>
</a>
</g>
</g>
<!-- Node44 -->
<g id="Node000044" class="node">
<title>Node44</title>
<g id="a_Node000044"><a xlink:href="astaroth__grid_8h.html" target="_top" xlink:title=" ">
<polygon fill="white" stroke="#666666" points="325.5,-250 235.5,-250 235.5,-231 325.5,-231 325.5,-250"/>
<text text-anchor="middle" x="280.5" y="-238" font-family="Helvetica,sans-Serif" font-size="10.00">astaroth_grid.h</text>
</a>
</g>
</g>
<!-- Node2&#45;&gt;Node44 -->
<g id="edge46_Node000002_Node000044" class="edge">
<title>Node2&#45;&gt;Node44</title>
<g id="a_edge46_Node000002_Node000044"><a xlink:title=" ">
<path fill="none" stroke="#63b8ff" d="M1058.2,-293.7C953.45,-290.94 621.21,-280.32 335.67,-250.01"/>
<polygon fill="#63b8ff" stroke="#63b8ff" points="335.85,-246.51 325.54,-248.93 335.11,-253.47 335.85,-246.51"/>
</a>
</g>
</g>
<!-- Node45 -->
<g id="Node000045" class="node">
<title>Node45</title>
<g id="a_Node000045"><a xlink:href="astaroth__node_8h.html" target="_top" xlink:title=" ">
<polygon fill="white" stroke="#666666" points="439,-250 344,-250 344,-231 439,-231 439,-250"/>
<text text-anchor="middle" x="391.5" y="-238" font-family="Helvetica,sans-Serif" font-size="10.00">astaroth_node.h</text>
</a>
</g>
</g>
<!-- Node2&#45;&gt;Node45 -->
<g id="edge47_Node000002_Node000045" class="edge">
<title>Node2&#45;&gt;Node45</title>
<g id="a_edge47_Node000002_Node000045"><a xlink:title=" ">
<path fill="none" stroke="#63b8ff" d="M1058.29,-293.13C964.41,-289.05 688.94,-275.74 449.01,-249.96"/>
<polygon fill="#63b8ff" stroke="#63b8ff" points="449.37,-246.48 439.05,-248.88 448.61,-253.43 449.37,-246.48"/>
</a>
</g>
</g>
<!-- Node46 -->
<g id="Node000046" class="node">
<title>Node46</title>
<g id="a_Node000046"><a xlink:href="astaroth__device_8h.html" target="_top" xlink:title=" ">
<polygon fill="white" stroke="#666666" points="561.5,-250 457.5,-250 457.5,-231 561.5,-231 561.5,-250"/>
<text text-anchor="middle" x="509.5" y="-238" font-family="Helvetica,sans-Serif" font-size="10.00">astaroth_device.h</text>
</a>
</g>
</g>
<!-- Node2&#45;&gt;Node46 -->
<g id="edge48_Node000002_Node000046" class="edge">
<title>Node2&#45;&gt;Node46</title>
<g id="a_edge48_Node000002_Node000046"><a xlink:title=" ">
<path fill="none" stroke="#63b8ff" d="M1058.22,-292.28C977.01,-286.71 762.05,-271.2 571.9,-250.1"/>
<polygon fill="#63b8ff" stroke="#63b8ff" points="572.05,-246.6 561.72,-248.96 571.27,-253.55 572.05,-246.6"/>
</a>
</g>
</g>
<!-- Node49 -->
<g id="Node000049" class="node">
<title>Node49</title>
<g id="a_Node000049"><a xlink:href="astaroth__legacy_8h.html" target="_top" xlink:title=" ">
<polygon fill="white" stroke="#666666" points="681.5,-250 579.5,-250 579.5,-231 681.5,-231 681.5,-250"/>
<text text-anchor="middle" x="630.5" y="-238" font-family="Helvetica,sans-Serif" font-size="10.00">astaroth_legacy.h</text>
</a>
</g>
</g>
<!-- Node2&#45;&gt;Node49 -->
<g id="edge51_Node000002_Node000049" class="edge">
<title>Node2&#45;&gt;Node49</title>
<g id="a_edge51_Node000002_Node000049"><a xlink:title=" ">
<path fill="none" stroke="#63b8ff" d="M1058.45,-291.17C991.43,-284.36 834.47,-268.01 691.8,-250.13"/>
<polygon fill="#63b8ff" stroke="#63b8ff" points="691.91,-246.62 681.55,-248.84 691.03,-253.56 691.91,-246.62"/>
</a>
</g>
</g>
<!-- Node50 -->
<g id="Node000050" class="node">
<title>Node50</title>
<g id="a_Node000050"><a xlink:title=" ">
<polygon fill="#e0e0e0" stroke="#999999" points="839,-250 700,-250 700,-231 839,-231 839,-250"/>
<text text-anchor="middle" x="769.5" y="-238" font-family="Helvetica,sans-Serif" font-size="10.00">device_set_input_decls.h</text>
</a>
</g>
</g>
<!-- Node2&#45;&gt;Node50 -->
<g id="edge52_Node000002_Node000050" class="edge">
<title>Node2&#45;&gt;Node50</title>
<g id="a_edge52_Node000002_Node000050"><a xlink:title=" ">
<path fill="none" stroke="#63b8ff" d="M1058.25,-289.03C1004.84,-280.24 899.05,-262.82 831.43,-251.69"/>
<polygon fill="#63b8ff" stroke="#63b8ff" points="831.76,-248.2 821.33,-250.03 830.62,-255.11 831.76,-248.2"/>
</a>
</g>
</g>
<!-- Node51 -->
<g id="Node000051" class="node">
<title>Node51</title>
<g id="a_Node000051"><a xlink:title=" ">
<polygon fill="#e0e0e0" stroke="#999999" points="1003.5,-250 857.5,-250 857.5,-231 1003.5,-231 1003.5,-250"/>
<text text-anchor="middle" x="930.5" y="-238" font-family="Helvetica,sans-Serif" font-size="10.00">device_get_output_decls.h</text>
</a>
</g>
</g>
<!-- Node2&#45;&gt;Node51 -->
<g id="edge53_Node000002_Node000051" class="edge">
<title>Node2&#45;&gt;Node51</title>
<g id="a_edge53_Node000002_Node000051"><a xlink:title=" ">
<path fill="none" stroke="#63b8ff" d="M1065.63,-285.98C1038.72,-277.13 996.38,-263.19 966.27,-253.28"/>
<polygon fill="#63b8ff" stroke="#63b8ff" points="967.16,-249.88 956.57,-250.08 964.97,-256.53 967.16,-249.88"/>
</a>
</g>
</g>
<!-- Node52 -->
<g id="Node000052" class="node">
<title>Node52</title>
<g id="a_Node000052"><a xlink:title=" ">
<polygon fill="#e0e0e0" stroke="#999999" points="1161.5,-250 1021.5,-250 1021.5,-231 1161.5,-231 1161.5,-250"/>
<text text-anchor="middle" x="1091.5" y="-238" font-family="Helvetica,sans-Serif" font-size="10.00">device_get_input_decls.h</text>
</a>
</g>
</g>
<!-- Node2&#45;&gt;Node52 -->
<g id="edge54_Node000002_Node000052" class="edge">
<title>Node2&#45;&gt;Node52</title>
<g id="a_edge54_Node000002_Node000052"><a xlink:title=" ">
<path fill="none" stroke="#63b8ff" d="M1091.5,-285.75C1091.5,-278.8 1091.5,-268.85 1091.5,-260.13"/>
<polygon fill="#63b8ff" stroke="#63b8ff" points="1095,-260.09 1091.5,-250.09 1088,-260.09 1095,-260.09"/>
</a>
</g>
</g>
<!-- Node53 -->
<g id="Node000053" class="node">
<title>Node53</title>
<g id="a_Node000053"><a xlink:title=" ">
<polygon fill="#e0e0e0" stroke="#999999" points="1309.5,-250 1179.5,-250 1179.5,-231 1309.5,-231 1309.5,-250"/>
<text text-anchor="middle" x="1244.5" y="-238" font-family="Helvetica,sans-Serif" font-size="10.00">get_vtxbufs_declares.h</text>
</a>
</g>
</g>
<!-- Node2&#45;&gt;Node53 -->
<g id="edge55_Node000002_Node000053" class="edge">
<title>Node2&#45;&gt;Node53</title>
<g id="a_edge55_Node000002_Node000053"><a xlink:title=" ">
<path fill="none" stroke="#63b8ff" d="M1116.08,-285.98C1141.55,-277.16 1181.54,-263.31 1210.13,-253.41"/>
<polygon fill="#63b8ff" stroke="#63b8ff" points="1211.42,-256.66 1219.73,-250.08 1209.13,-250.05 1211.42,-256.66"/>
</a>
</g>
</g>
<!-- Node54 -->
<g id="Node000054" class="node">
<title>Node54</title>
<g id="a_Node000054"><a xlink:href="astaroth__runtime__compilation_8h.html" target="_top" xlink:title=" ">
<polygon fill="white" stroke="#666666" points="1501,-250 1328,-250 1328,-231 1501,-231 1501,-250"/>
<text text-anchor="middle" x="1414.5" y="-238" font-family="Helvetica,sans-Serif" font-size="10.00">astaroth_runtime_compilation.h</text>
</a>
</g>
</g>
<!-- Node2&#45;&gt;Node54 -->
<g id="edge56_Node000002_Node000054" class="edge">
<title>Node2&#45;&gt;Node54</title>
<g id="a_edge56_Node000002_Node000054"><a xlink:title=" ">
<path fill="none" stroke="#63b8ff" d="M1124.55,-289.08C1178.08,-280.29 1284.58,-262.82 1352.54,-251.67"/>
<polygon fill="#63b8ff" stroke="#63b8ff" points="1353.39,-255.07 1362.69,-250 1352.25,-248.17 1353.39,-255.07"/>
</a>
</g>
</g>
<!-- Node55 -->
<g id="Node000055" class="node">
<title>Node55</title>
<g id="a_Node000055"><a xlink:title=" ">
<polygon fill="#e0e0e0" stroke="#999999" points="1572,-250 1519,-250 1519,-231 1572,-231 1572,-250"/>
<text text-anchor="middle" x="1545.5" y="-238" font-family="Helvetica,sans-Serif" font-size="10.00">string.h</text>
</a>
</g>
</g>
<!-- Node2&#45;&gt;Node55 -->
<g id="edge57_Node000002_Node000055" class="edge">
<title>Node2&#45;&gt;Node55</title>
<g id="a_edge57_Node000002_Node000055"><a xlink:title=" ">
<path fill="none" stroke="#63b8ff" d="M1124.75,-292.39C1194.18,-287.67 1359.76,-274.83 1508.61,-249.93"/>
<polygon fill="#63b8ff" stroke="#63b8ff" points="1509.57,-253.31 1518.84,-248.19 1508.4,-246.41 1509.57,-253.31"/>
</a>
</g>
</g>
<!-- Node4 -->
<g id="Node000004" class="node">
<title>Node4</title>
<g id="a_Node000004"><a xlink:title=" ">
<polygon fill="#e0e0e0" stroke="#999999" points="1859.5,-74 1797.5,-74 1797.5,-55 1859.5,-55 1859.5,-74"/>
<text text-anchor="middle" x="1828.5" y="-62" font-family="Helvetica,sans-Serif" font-size="10.00">stdbool.h</text>
</a>
</g>
</g>
<!-- Node3&#45;&gt;Node4 -->
<g id="edge3_Node000003_Node000004" class="edge">
<title>Node3&#45;&gt;Node4</title>
<g id="a_edge3_Node000003_Node000004"><a xlink:title=" ">
<path fill="none" stroke="#63b8ff" d="M1838.84,-230.9C1880.7,-217.19 1954.38,-185.92 1984.5,-129 2008.85,-82.99 1923.89,-70.26 1869.88,-66.78"/>
<polygon fill="#63b8ff" stroke="#63b8ff" points="1870.04,-63.28 1859.86,-66.21 1869.64,-70.27 1870.04,-63.28"/>
</a>
</g>
</g>
<!-- Node5 -->
<g id="Node000005" class="node">
<title>Node5</title>
<g id="a_Node000005"><a xlink:href="ac__mpi_8h.html" target="_top" xlink:title=" ">
<polygon fill="white" stroke="#666666" points="1839,-189.5 1778,-189.5 1778,-170.5 1839,-170.5 1839,-189.5"/>
<text text-anchor="middle" x="1808.5" y="-177.5" font-family="Helvetica,sans-Serif" font-size="10.00">ac_mpi.h</text>
</a>
</g>
</g>
<!-- Node3&#45;&gt;Node5 -->
<g id="edge4_Node000003_Node000005" class="edge">
<title>Node3&#45;&gt;Node5</title>
<g id="a_edge4_Node000003_Node000005"><a xlink:title=" ">
<path fill="none" stroke="#63b8ff" d="M1808.5,-230.87C1808.5,-222.75 1808.5,-210.31 1808.5,-199.89"/>
<polygon fill="#63b8ff" stroke="#63b8ff" points="1812,-199.67 1808.5,-189.67 1805,-199.67 1812,-199.67"/>
</a>
</g>
</g>
<!-- Node6 -->
<g id="Node000006" class="node">
<title>Node6</title>
<g id="a_Node000006"><a xlink:href="acc__runtime_8h.html" target="_top" xlink:title=" ">
<polygon fill="#fff0f0" stroke="red" points="1112.5,-189.5 1026.5,-189.5 1026.5,-170.5 1112.5,-170.5 1112.5,-189.5"/>
<text text-anchor="middle" x="1069.5" y="-177.5" font-family="Helvetica,sans-Serif" font-size="10.00">acc_runtime.h</text>
</a>
</g>
</g>
<!-- Node3&#45;&gt;Node6 -->
<g id="edge5_Node000003_Node000006" class="edge">
<title>Node3&#45;&gt;Node6</title>
<g id="a_edge5_Node000003_Node000006"><a xlink:title=" ">
<path fill="none" stroke="#63b8ff" d="M1760.87,-235.73C1629.27,-225.31 1261.36,-196.19 1123.01,-185.24"/>
<polygon fill="#63b8ff" stroke="#63b8ff" points="1122.91,-181.72 1112.67,-184.42 1122.36,-188.7 1122.91,-181.72"/>
</a>
</g>
</g>
<!-- Node26 -->
<g id="Node000026" class="node">
<title>Node26</title>
<g id="a_Node000026"><a xlink:title=" ">
<polygon fill="#e0e0e0" stroke="#999999" points="1975,-129 1836,-129 1836,-110 1975,-110 1975,-129"/>
<text text-anchor="middle" x="1905.5" y="-117" font-family="Helvetica,sans-Serif" font-size="10.00">user_built&#45;in_constants.h</text>
</a>
</g>
</g>
<!-- Node3&#45;&gt;Node26 -->
<g id="edge44_Node000003_Node000026" class="edge">
<title>Node3&#45;&gt;Node26</title>
<g id="a_edge44_Node000003_Node000026"><a xlink:title=" ">
<path fill="none" stroke="#63b8ff" d="M1822.21,-230.89C1834.4,-222.75 1852.16,-209.61 1864.5,-195 1879.03,-177.79 1890.81,-154.63 1897.95,-138.73"/>
<polygon fill="#63b8ff" stroke="#63b8ff" points="1901.2,-140.03 1901.95,-129.46 1894.77,-137.25 1901.2,-140.03"/>
</a>
</g>
</g>
<!-- Node40 -->
<g id="Node000040" class="node">
<title>Node40</title>
<g id="a_Node000040"><a xlink:href="func__define_8h.html" target="_top" xlink:title=" ">
<polygon fill="white" stroke="#666666" points="1817.5,-129 1735.5,-129 1735.5,-110 1817.5,-110 1817.5,-129"/>
<text text-anchor="middle" x="1776.5" y="-117" font-family="Helvetica,sans-Serif" font-size="10.00">func_define.h</text>
</a>
</g>
</g>
<!-- Node3&#45;&gt;Node40 -->
<g id="edge43_Node000003_Node000040" class="edge">
<title>Node3&#45;&gt;Node40</title>
<g id="a_edge43_Node000003_Node000040"><a xlink:title=" ">
<path fill="none" stroke="#63b8ff" d="M1820.14,-230.73C1829.81,-222.67 1842.85,-209.74 1848.5,-195 1853.27,-182.55 1854.99,-176.65 1848.5,-165 1840.46,-150.58 1825.6,-140.24 1811.46,-133.18"/>
<polygon fill="#63b8ff" stroke="#63b8ff" points="1812.9,-129.99 1802.35,-129.01 1809.99,-136.36 1812.9,-129.99"/>
</a>
</g>
</g>
<!-- Node43 -->
<g id="Node000043" class="node">
<title>Node43</title>
<g id="a_Node000043"><a xlink:title=" ">
<polygon fill="#e0e0e0" stroke="#999999" points="1760,-195 1629,-195 1629,-165 1760,-165 1760,-195"/>
<text text-anchor="start" x="1637" y="-183" font-family="Helvetica,sans-Serif" font-size="10.00">user_builtin_non_scalar</text>
<text text-anchor="middle" x="1694.5" y="-172" font-family="Helvetica,sans-Serif" font-size="10.00">_constants.h</text>
</a>
</g>
</g>
<!-- Node3&#45;&gt;Node43 -->
<g id="edge45_Node000003_Node000043" class="edge">
<title>Node3&#45;&gt;Node43</title>
<g id="a_edge45_Node000003_Node000043"><a xlink:title=" ">
<path fill="none" stroke="#63b8ff" d="M1791.68,-230.87C1775.78,-222.71 1751.4,-210.2 1731.03,-199.75"/>
<polygon fill="#63b8ff" stroke="#63b8ff" points="1732.5,-196.57 1722.01,-195.11 1729.3,-202.79 1732.5,-196.57"/>
</a>
</g>
</g>
<!-- Node6&#45;&gt;Node4 -->
<g id="edge7_Node000006_Node000004" class="edge">
<title>Node6&#45;&gt;Node4</title>
<g id="a_edge7_Node000006_Node000004"><a xlink:title=" ">
<path fill="none" stroke="#63b8ff" d="M1112.58,-177.65C1234.43,-173.51 1579.72,-159.35 1688.5,-129 1706.69,-123.92 1709.4,-118 1726.5,-110 1750.56,-98.74 1778.2,-86.74 1798.64,-78.04"/>
<polygon fill="#63b8ff" stroke="#63b8ff" points="1800.2,-81.18 1808.04,-74.05 1797.47,-74.74 1800.2,-81.18"/>
</a>
</g>
</g>
<!-- Node7 -->
<g id="Node000007" class="node">
<title>Node7</title>
<g id="a_Node000007"><a xlink:title=" ">
<polygon fill="#e0e0e0" stroke="#999999" points="1532.5,-74 1482.5,-74 1482.5,-55 1532.5,-55 1532.5,-74"/>
<text text-anchor="middle" x="1507.5" y="-62" font-family="Helvetica,sans-Serif" font-size="10.00">stdio.h</text>
</a>
</g>
</g>
<!-- Node6&#45;&gt;Node7 -->
<g id="edge6_Node000006_Node000007" class="edge">
<title>Node6&#45;&gt;Node7</title>
<g id="a_edge6_Node000006_Node000007"><a xlink:title=" ">
<path fill="none" stroke="#63b8ff" d="M1112.61,-177.99C1229.46,-174.82 1545.58,-163.12 1576.5,-129 1593.64,-110.09 1563.92,-90.53 1538.3,-78.21"/>
<polygon fill="#63b8ff" stroke="#63b8ff" points="1539.69,-74.99 1529.14,-74.01 1536.77,-81.36 1539.69,-74.99"/>
</a>
</g>
</g>
<!-- Node8 -->
<g id="Node000008" class="node">
<title>Node8</title>
<g id="a_Node000008"><a xlink:href="device__headers_8h.html" target="_top" xlink:title=" ">
<polygon fill="white" stroke="#666666" points="291.5,-74 189.5,-74 189.5,-55 291.5,-55 291.5,-74"/>
<text text-anchor="middle" x="240.5" y="-62" font-family="Helvetica,sans-Serif" font-size="10.00">device_headers.h</text>
</a>
</g>
</g>
<!-- Node6&#45;&gt;Node8 -->
<g id="edge8_Node000006_Node000008" class="edge">
<title>Node6&#45;&gt;Node8</title>
<g id="a_edge8_Node000006_Node000008"><a xlink:title=" ">
<path fill="none" stroke="#63b8ff" d="M1026.22,-177.3C853.04,-170.39 218.76,-144.11 204.5,-129 191.14,-114.85 206.76,-94.83 221.4,-81.07"/>
<polygon fill="#63b8ff" stroke="#63b8ff" points="224.06,-83.39 229.25,-74.15 219.43,-78.14 224.06,-83.39"/>
</a>
</g>
</g>
<!-- Node11 -->
<g id="Node000011" class="node">
<title>Node11</title>
<g id="a_Node000011"><a xlink:title=" ">
<polygon fill="#e0e0e0" stroke="#999999" points="95,-74 0,-74 0,-55 95,-55 95,-74"/>
<text text-anchor="middle" x="47.5" y="-62" font-family="Helvetica,sans-Serif" font-size="10.00">builtin_enums.h</text>
</a>
</g>
</g>
<!-- Node6&#45;&gt;Node11 -->
<g id="edge11_Node000006_Node000011" class="edge">
<title>Node6&#45;&gt;Node11</title>
<g id="a_edge11_Node000006_Node000011"><a xlink:title=" ">
<path fill="none" stroke="#63b8ff" d="M1026.42,-177.46C837.93,-170.62 94.31,-142.83 74.5,-129 59.94,-118.84 53.19,-99.16 50.09,-84.38"/>
<polygon fill="#63b8ff" stroke="#63b8ff" points="53.49,-83.55 48.35,-74.29 46.59,-84.73 53.49,-83.55"/>
</a>
</g>
</g>
<!-- Node12 -->
<g id="Node000012" class="node">
<title>Node12</title>
<g id="a_Node000012"><a xlink:href="datatypes_8h.html" target="_top" xlink:title=" ">
<polygon fill="#fff0f0" stroke="red" points="157.5,-129 83.5,-129 83.5,-110 157.5,-110 157.5,-129"/>
<text text-anchor="middle" x="120.5" y="-117" font-family="Helvetica,sans-Serif" font-size="10.00">datatypes.h</text>
</a>
</g>
</g>
<!-- Node6&#45;&gt;Node12 -->
<g id="edge12_Node000006_Node000012" class="edge">
<title>Node6&#45;&gt;Node12</title>
<g id="a_edge12_Node000006_Node000012"><a xlink:title=" ">
<path fill="none" stroke="#63b8ff" d="M1026.37,-178.27C896.67,-175.73 498.96,-165.29 171.5,-129 170.25,-128.86 168.97,-128.71 167.69,-128.55"/>
<polygon fill="#63b8ff" stroke="#63b8ff" points="168.14,-125.08 157.76,-127.19 167.19,-132.02 168.14,-125.08"/>
</a>
</g>
</g>
<!-- Node6&#45;&gt;Node20 -->
<g id="edge20_Node000006_Node000020" class="edge">
<title>Node6&#45;&gt;Node20</title>
<g id="a_edge20_Node000006_Node000020"><a xlink:title=" ">
<path fill="none" stroke="#63b8ff" d="M1112.74,-176.58C1204.58,-171.09 1425.76,-156.02 1609.5,-129 1610.6,-128.84 1611.72,-128.67 1612.85,-128.48"/>
<polygon fill="#63b8ff" stroke="#63b8ff" points="1613.87,-131.86 1623.11,-126.68 1612.65,-124.97 1613.87,-131.86"/>
</a>
</g>
</g>
<!-- Node24 -->
<g id="Node000024" class="node">
<title>Node24</title>
<g id="a_Node000024"><a xlink:title=" ">
<polygon fill="#e0e0e0" stroke="#999999" points="301,-129 214,-129 214,-110 301,-110 301,-129"/>
<text text-anchor="middle" x="257.5" y="-117" font-family="Helvetica,sans-Serif" font-size="10.00">user_defines.h</text>
</a>
</g>
</g>
<!-- Node6&#45;&gt;Node24 -->
<g id="edge29_Node000006_Node000024" class="edge">
<title>Node6&#45;&gt;Node24</title>
<g id="a_edge29_Node000006_Node000024"><a xlink:title=" ">
<path fill="none" stroke="#63b8ff" d="M1026.16,-177.56C911.36,-173.45 589.78,-159.96 311.43,-128.98"/>
<polygon fill="#63b8ff" stroke="#63b8ff" points="311.46,-125.47 301.13,-127.83 310.68,-132.42 311.46,-125.47"/>
</a>
</g>
</g>
<!-- Node25 -->
<g id="Node000025" class="node">
<title>Node25</title>
<g id="a_Node000025"><a xlink:title=" ">
<polygon fill="#e0e0e0" stroke="#999999" points="405.5,-129 319.5,-129 319.5,-110 405.5,-110 405.5,-129"/>
<text text-anchor="middle" x="362.5" y="-117" font-family="Helvetica,sans-Serif" font-size="10.00">profiles_info.h</text>
</a>
</g>
</g>
<!-- Node6&#45;&gt;Node25 -->
<g id="edge30_Node000006_Node000025" class="edge">
<title>Node6&#45;&gt;Node25</title>
<g id="a_edge30_Node000006_Node000025"><a xlink:title=" ">
<path fill="none" stroke="#63b8ff" d="M1026.46,-177C923.03,-171.9 652.19,-156.94 415.76,-129.05"/>
<polygon fill="#63b8ff" stroke="#63b8ff" points="415.93,-125.54 405.59,-127.84 415.11,-132.49 415.93,-125.54"/>
</a>
</g>
</g>
<!-- Node6&#45;&gt;Node26 -->
<g id="edge31_Node000006_Node000026" class="edge">
<title>Node6&#45;&gt;Node26</title>
<g id="a_edge31_Node000006_Node000026"><a xlink:title=" ">
<path fill="none" stroke="#63b8ff" d="M1112.65,-176.77C1226.95,-170.75 1547.26,-152.98 1825.44,-129.05"/>
<polygon fill="#63b8ff" stroke="#63b8ff" points="1826.07,-132.51 1835.73,-128.16 1825.46,-125.54 1826.07,-132.51"/>
</a>
</g>
</g>
<!-- Node27 -->
<g id="Node000027" class="node">
<title>Node27</title>
<g id="a_Node000027"><a xlink:href="func__attributes_8h.html" target="_top" xlink:title=" ">
<polygon fill="white" stroke="#666666" points="523,-129 424,-129 424,-110 523,-110 523,-129"/>
<text text-anchor="middle" x="473.5" y="-117" font-family="Helvetica,sans-Serif" font-size="10.00">func_attributes.h</text>
</a>
</g>
</g>
<!-- Node6&#45;&gt;Node27 -->
<g id="edge32_Node000006_Node000027" class="edge">
<title>Node6&#45;&gt;Node27</title>
<g id="a_edge32_Node000006_Node000027"><a xlink:title=" ">
<path fill="none" stroke="#63b8ff" d="M1026.18,-175.76C936.28,-168.85 722.67,-151.58 533.29,-129.16"/>
<polygon fill="#63b8ff" stroke="#63b8ff" points="533.49,-125.66 523.15,-127.95 532.67,-132.61 533.49,-125.66"/>
</a>
</g>
</g>
<!-- Node28 -->
<g id="Node000028" class="node">
<title>Node28</title>
<g id="a_Node000028"><a xlink:title=" ">
<polygon fill="#e0e0e0" stroke="#999999" points="666,-129 541,-129 541,-110 666,-110 666,-129"/>
<text text-anchor="middle" x="603.5" y="-117" font-family="Helvetica,sans-Serif" font-size="10.00">user_input_typedefs.h</text>
</a>
</g>
</g>
<!-- Node6&#45;&gt;Node28 -->
<g id="edge33_Node000006_Node000028" class="edge">
<title>Node6&#45;&gt;Node28</title>
<g id="a_edge33_Node000006_Node000028"><a xlink:title=" ">
<path fill="none" stroke="#63b8ff" d="M1026.5,-173.6C946.63,-163.58 774.61,-141.98 676.32,-129.64"/>
<polygon fill="#63b8ff" stroke="#63b8ff" points="676.52,-126.14 666.17,-128.37 675.65,-133.09 676.52,-126.14"/>
</a>
</g>
</g>
<!-- Node29 -->
<g id="Node000029" class="node">
<title>Node29</title>
<g id="a_Node000029"><a xlink:title=" ">
<polygon fill="#e0e0e0" stroke="#999999" points="767,-129 684,-129 684,-110 767,-110 767,-129"/>
<text text-anchor="middle" x="725.5" y="-117" font-family="Helvetica,sans-Serif" font-size="10.00">output_decl.h</text>
</a>
</g>
</g>
<!-- Node6&#45;&gt;Node29 -->
<g id="edge34_Node000006_Node000029" class="edge">
<title>Node6&#45;&gt;Node29</title>
<g id="a_edge34_Node000006_Node000029"><a xlink:title=" ">
<path fill="none" stroke="#63b8ff" d="M1026.28,-171.65C962.95,-160.88 845.1,-140.84 777.24,-129.3"/>
<polygon fill="#63b8ff" stroke="#63b8ff" points="777.65,-125.82 767.2,-127.59 776.47,-132.72 777.65,-125.82"/>
</a>
</g>
</g>
<!-- Node30 -->
<g id="Node000030" class="node">
<title>Node30</title>
<g id="a_Node000030"><a xlink:title=" ">
<polygon fill="#e0e0e0" stroke="#999999" points="901.5,-129 785.5,-129 785.5,-110 901.5,-110 901.5,-129"/>
<text text-anchor="middle" x="843.5" y="-117" font-family="Helvetica,sans-Serif" font-size="10.00">comp_loaded_decl.h</text>
</a>
</g>
</g>
<!-- Node6&#45;&gt;Node30 -->
<g id="edge35_Node000006_Node000030" class="edge">
<title>Node6&#45;&gt;Node30</title>
<g id="a_edge35_Node000006_Node000030"><a xlink:title=" ">
<path fill="none" stroke="#63b8ff" d="M1036.64,-170.49C996.89,-160.2 929.87,-142.86 886.17,-131.54"/>
<polygon fill="#63b8ff" stroke="#63b8ff" points="886.96,-128.13 876.4,-129.02 885.21,-134.91 886.96,-128.13"/>
</a>
</g>
</g>
<!-- Node31 -->
<g id="Node000031" class="node">
<title>Node31</title>
<g id="a_Node000031"><a xlink:title=" ">
<polygon fill="#e0e0e0" stroke="#999999" points="997.5,-129 919.5,-129 919.5,-110 997.5,-110 997.5,-129"/>
<text text-anchor="middle" x="958.5" y="-117" font-family="Helvetica,sans-Serif" font-size="10.00">comp_decl.h</text>
</a>
</g>
</g>
<!-- Node6&#45;&gt;Node31 -->
<g id="edge36_Node000006_Node000031" class="edge">
<title>Node6&#45;&gt;Node31</title>
<g id="a_edge36_Node000006_Node000031"><a xlink:title=" ">
<path fill="none" stroke="#63b8ff" d="M1053.12,-170.37C1034.92,-160.78 1005.3,-145.17 984.05,-133.97"/>
<polygon fill="#63b8ff" stroke="#63b8ff" points="985.42,-130.73 974.95,-129.17 982.16,-136.93 985.42,-130.73"/>
</a>
</g>
</g>
<!-- Node32 -->
<g id="Node000032" class="node">
<title>Node32</title>
<g id="a_Node000032"><a xlink:title=" ">
<polygon fill="#e0e0e0" stroke="#999999" points="1123.5,-129 1015.5,-129 1015.5,-110 1123.5,-110 1123.5,-129"/>
<text text-anchor="middle" x="1069.5" y="-117" font-family="Helvetica,sans-Serif" font-size="10.00">info_loaded_decl.h</text>
</a>
</g>
</g>
<!-- Node6&#45;&gt;Node32 -->
<g id="edge37_Node000006_Node000032" class="edge">
<title>Node6&#45;&gt;Node32</title>
<g id="a_edge37_Node000006_Node000032"><a xlink:title=" ">
<path fill="none" stroke="#63b8ff" d="M1069.5,-170.37C1069.5,-162.25 1069.5,-149.81 1069.5,-139.39"/>
<polygon fill="#63b8ff" stroke="#63b8ff" points="1073,-139.17 1069.5,-129.17 1066,-139.17 1073,-139.17"/>
</a>
</g>
</g>
<!-- Node33 -->
<g id="Node000033" class="node">
<title>Node33</title>
<g id="a_Node000033"><a xlink:title=" ">
<polygon fill="#e0e0e0" stroke="#999999" points="1281.5,-129 1141.5,-129 1141.5,-110 1281.5,-110 1281.5,-129"/>
<text text-anchor="middle" x="1211.5" y="-117" font-family="Helvetica,sans-Serif" font-size="10.00">device_mesh_info_decl.h</text>
</a>
</g>
</g>
<!-- Node6&#45;&gt;Node33 -->
<g id="edge38_Node000006_Node000033" class="edge">
<title>Node6&#45;&gt;Node33</title>
<g id="a_edge38_Node000006_Node000033"><a xlink:title=" ">
<path fill="none" stroke="#63b8ff" d="M1090.15,-170.49C1114.13,-160.62 1153.89,-144.23 1181.33,-132.93"/>
<polygon fill="#63b8ff" stroke="#63b8ff" points="1182.91,-136.06 1190.83,-129.02 1180.25,-129.59 1182.91,-136.06"/>
</a>
</g>
</g>
<!-- Node34 -->
<g id="Node000034" class="node">
<title>Node34</title>
<g id="a_Node000034"><a xlink:title=" ">
<polygon fill="#e0e0e0" stroke="#999999" points="1377,-129 1300,-129 1300,-110 1377,-110 1377,-129"/>
<text text-anchor="middle" x="1338.5" y="-117" font-family="Helvetica,sans-Serif" font-size="10.00">array_decl.h</text>
</a>
</g>
</g>
<!-- Node6&#45;&gt;Node34 -->
<g id="edge39_Node000006_Node000034" class="edge">
<title>Node6&#45;&gt;Node34</title>
<g id="a_edge39_Node000006_Node000034"><a xlink:title=" ">
<path fill="none" stroke="#63b8ff" d="M1108.61,-170.49C1156.56,-160.07 1237.84,-142.39 1289.79,-131.09"/>
<polygon fill="#63b8ff" stroke="#63b8ff" points="1290.75,-134.47 1299.77,-128.92 1289.26,-127.63 1290.75,-134.47"/>
</a>
</g>
</g>
<!-- Node35 -->
<g id="Node000035" class="node">
<title>Node35</title>
<g id="a_Node000035"><a xlink:title=" ">
<polygon fill="#e0e0e0" stroke="#999999" points="1471.5,-129 1395.5,-129 1395.5,-110 1471.5,-110 1471.5,-129"/>
<text text-anchor="middle" x="1433.5" y="-117" font-family="Helvetica,sans-Serif" font-size="10.00">input_decl.h</text>
</a>
</g>
</g>
<!-- Node6&#45;&gt;Node35 -->
<g id="edge40_Node000006_Node000035" class="edge">
<title>Node6&#45;&gt;Node35</title>
<g id="a_edge40_Node000006_Node000035"><a xlink:title=" ">
<path fill="none" stroke="#63b8ff" d="M1112.73,-172.42C1171.73,-163.38 1281.03,-146.43 1385.2,-129.02"/>
<polygon fill="#63b8ff" stroke="#63b8ff" points="1385.97,-132.44 1395.26,-127.34 1384.82,-125.54 1385.97,-132.44"/>
</a>
</g>
</g>
<!-- Node36 -->
<g id="Node000036" class="node">
<title>Node36</title>
<g id="a_Node000036"><a xlink:href="ac__helpers_8h.html" target="_top" xlink:title=" ">
<polygon fill="white" stroke="#666666" points="1567.5,-129 1489.5,-129 1489.5,-110 1567.5,-110 1567.5,-129"/>
<text text-anchor="middle" x="1528.5" y="-117" font-family="Helvetica,sans-Serif" font-size="10.00">ac_helpers.h</text>
</a>
</g>
</g>
<!-- Node6&#45;&gt;Node36 -->
<g id="edge41_Node000006_Node000036" class="edge">
<title>Node6&#45;&gt;Node36</title>
<g id="a_edge41_Node000006_Node000036"><a xlink:title=" ">
<path fill="none" stroke="#63b8ff" d="M1112.5,-174.54C1185.66,-166.8 1339.25,-149.8 1479.43,-129.09"/>
<polygon fill="#63b8ff" stroke="#63b8ff" points="1480.12,-132.52 1489.5,-127.59 1479.09,-125.6 1480.12,-132.52"/>
</a>
</g>
</g>
<!-- Node6&#45;&gt;Node40 -->
<g id="edge42_Node000006_Node000040" class="edge">
<title>Node6&#45;&gt;Node40</title>
<g id="a_edge42_Node000006_Node000040"><a xlink:title=" ">
<path fill="none" stroke="#63b8ff" d="M1112.71,-176.84C1217.41,-171.34 1492.84,-155.4 1721.5,-129 1722.77,-128.85 1724.05,-128.7 1725.35,-128.54"/>
<polygon fill="#63b8ff" stroke="#63b8ff" points="1725.95,-131.99 1735.4,-127.2 1725.03,-125.05 1725.95,-131.99"/>
</a>
</g>
</g>
<!-- Node9 -->
<g id="Node000009" class="node">
<title>Node9</title>
<g id="a_Node000009"><a xlink:title=" ">
<polygon fill="#e0e0e0" stroke="#999999" points="182,-19 69,-19 69,0 182,0 182,-19"/>
<text text-anchor="middle" x="125.5" y="-7" font-family="Helvetica,sans-Serif" font-size="10.00">cuda_runtime_api.h</text>
</a>
</g>
</g>
<!-- Node8&#45;&gt;Node9 -->
<g id="edge9_Node000008_Node000009" class="edge">
<title>Node8&#45;&gt;Node9</title>
<g id="a_edge9_Node000008_Node000009"><a xlink:title=" ">
<path fill="none" stroke="#63b8ff" d="M222.02,-54.98C203.52,-46.46 174.82,-33.23 153.52,-23.41"/>
<polygon fill="#63b8ff" stroke="#63b8ff" points="154.86,-20.18 144.31,-19.17 151.93,-26.53 154.86,-20.18"/>
</a>
</g>
</g>
<!-- Node10 -->
<g id="Node000010" class="node">
<title>Node10</title>
<g id="a_Node000010"><a xlink:title=" ">
<polygon fill="#e0e0e0" stroke="#999999" points="278.5,-19 202.5,-19 202.5,0 278.5,0 278.5,-19"/>
<text text-anchor="middle" x="240.5" y="-7" font-family="Helvetica,sans-Serif" font-size="10.00">cuda_fp16.h</text>
</a>
</g>
</g>
<!-- Node8&#45;&gt;Node10 -->
<g id="edge10_Node000008_Node000010" class="edge">
<title>Node8&#45;&gt;Node10</title>
<g id="a_edge10_Node000008_Node000010"><a xlink:title=" ">
<path fill="none" stroke="#63b8ff" d="M240.5,-54.75C240.5,-47.8 240.5,-37.85 240.5,-29.13"/>
<polygon fill="#63b8ff" stroke="#63b8ff" points="244,-29.09 240.5,-19.09 237,-29.09 244,-29.09"/>
</a>
</g>
</g>
<!-- Node12&#45;&gt;Node8 -->
<g id="edge13_Node000012_Node000008" class="edge">
<title>Node12&#45;&gt;Node8</title>
<g id="a_edge13_Node000012_Node000008"><a xlink:title=" ">
<path fill="none" stroke="#63b8ff" d="M139.78,-109.98C159.17,-101.42 189.31,-88.11 211.57,-78.28"/>
<polygon fill="#63b8ff" stroke="#63b8ff" points="213.14,-81.41 220.87,-74.17 210.31,-75.01 213.14,-81.41"/>
</a>
</g>
</g>
<!-- Node12&#45;&gt;Node9 -->
<g id="edge14_Node000012_Node000009" class="edge">
<title>Node12&#45;&gt;Node9</title>
<g id="a_edge14_Node000012_Node000009"><a xlink:title=" ">
<path fill="none" stroke="#63b8ff" d="M120.91,-109.66C121.72,-92.17 123.54,-52.8 124.63,-29.27"/>
<polygon fill="#63b8ff" stroke="#63b8ff" points="128.13,-29.31 125.1,-19.16 121.14,-28.99 128.13,-29.31"/>
</a>
</g>
</g>
<!-- Node12&#45;&gt;Node11 -->
<g id="edge16_Node000012_Node000011" class="edge">
<title>Node12&#45;&gt;Node11</title>
<g id="a_edge16_Node000012_Node000011"><a xlink:title=" ">
<path fill="none" stroke="#63b8ff" d="M108.77,-109.98C97.77,-102 81.08,-89.88 67.9,-80.31"/>
<polygon fill="#63b8ff" stroke="#63b8ff" points="69.59,-77.21 59.44,-74.17 65.48,-82.88 69.59,-77.21"/>
</a>
</g>
</g>
<!-- Node16 -->
<g id="Node000016" class="node">
<title>Node16</title>
<g id="a_Node000016"><a xlink:href="acreal_8h.html" target="_top" xlink:title=" ">
<polygon fill="white" stroke="#666666" points="851.5,-19 795.5,-19 795.5,0 851.5,0 851.5,-19"/>
<text text-anchor="middle" x="823.5" y="-7" font-family="Helvetica,sans-Serif" font-size="10.00">acreal.h</text>
</a>
</g>
</g>
<!-- Node12&#45;&gt;Node16 -->
<g id="edge15_Node000012_Node000016" class="edge">
<title>Node12&#45;&gt;Node16</title>
<g id="a_edge15_Node000012_Node000016"><a xlink:title=" ">
<path fill="none" stroke="#63b8ff" d="M125.78,-109.56C134.88,-95.11 154.99,-67.05 180.5,-55 235.12,-29.19 655.06,-15.26 785.19,-11.53"/>
<polygon fill="#63b8ff" stroke="#63b8ff" points="785.56,-15.02 795.46,-11.24 785.36,-8.03 785.56,-15.02"/>
</a>
</g>
</g>
<!-- Node18 -->
<g id="Node000018" class="node">
<title>Node18</title>
<g id="a_Node000018"><a xlink:href="host__datatypes_8h.html" target="_top" xlink:title=" ">
<polygon fill="white" stroke="#666666" points="1179,-74 1078,-74 1078,-55 1179,-55 1179,-74"/>
<text text-anchor="middle" x="1128.5" y="-62" font-family="Helvetica,sans-Serif" font-size="10.00">host_datatypes.h</text>
</a>
</g>
</g>
<!-- Node12&#45;&gt;Node18 -->
<g id="edge17_Node000012_Node000018" class="edge">
<title>Node12&#45;&gt;Node18</title>
<g id="a_edge17_Node000012_Node000018"><a xlink:title=" ">
<path fill="none" stroke="#63b8ff" d="M157.68,-114.31C172.26,-112.78 189.15,-111.15 204.5,-110 529.43,-85.75 919.67,-71.99 1067.63,-67.32"/>
<polygon fill="#63b8ff" stroke="#63b8ff" points="1067.98,-70.81 1077.86,-67 1067.76,-63.82 1067.98,-70.81"/>
</a>
</g>
</g>
<!-- Node18&#45;&gt;Node16 -->
<g id="edge18_Node000018_Node000016" class="edge">
<title>Node18&#45;&gt;Node16</title>
<g id="a_edge18_Node000018_Node000016"><a xlink:title=" ">
<path fill="none" stroke="#63b8ff" d="M1079.5,-54.98C1018.91,-44.46 917.05,-26.76 861.85,-17.16"/>
<polygon fill="#63b8ff" stroke="#63b8ff" points="862.23,-13.68 851.78,-15.41 861.03,-20.57 862.23,-13.68"/>
</a>
</g>
</g>
<!-- Node19 -->
<g id="Node000019" class="node">
<title>Node19</title>
<g id="a_Node000019"><a xlink:title=" ">
<polygon fill="#e0e0e0" stroke="#999999" points="1175.5,-19 1119.5,-19 1119.5,0 1175.5,0 1175.5,-19"/>
<text text-anchor="middle" x="1147.5" y="-7" font-family="Helvetica,sans-Serif" font-size="10.00">stddef.h</text>
</a>
</g>
</g>
<!-- Node18&#45;&gt;Node19 -->
<g id="edge19_Node000018_Node000019" class="edge">
<title>Node18&#45;&gt;Node19</title>
<g id="a_edge19_Node000018_Node000019"><a xlink:title=" ">
<path fill="none" stroke="#63b8ff" d="M1131.64,-54.75C1134.18,-47.65 1137.86,-37.4 1141.03,-28.56"/>
<polygon fill="#63b8ff" stroke="#63b8ff" points="1144.34,-29.68 1144.42,-19.09 1137.75,-27.32 1144.34,-29.68"/>
</a>
</g>
</g>
<!-- Node20&#45;&gt;Node4 -->
<g id="edge23_Node000020_Node000004" class="edge">
<title>Node20&#45;&gt;Node4</title>
<g id="a_edge23_Node000020_Node000004"><a xlink:title=" ">
<path fill="none" stroke="#63b8ff" d="M1679.55,-110.1C1709.41,-101.16 1756.85,-86.95 1790.15,-76.98"/>
<polygon fill="#63b8ff" stroke="#63b8ff" points="1791.42,-80.26 1800,-74.03 1789.42,-73.55 1791.42,-80.26"/>
</a>
</g>
</g>
<!-- Node20&#45;&gt;Node7 -->
<g id="edge25_Node000020_Node000007" class="edge">
<title>Node20&#45;&gt;Node7</title>
<g id="a_edge25_Node000020_Node000007"><a xlink:title=" ">
<path fill="none" stroke="#63b8ff" d="M1628.36,-109.98C1604.68,-101.27 1567.63,-87.63 1540.79,-77.75"/>
<polygon fill="#63b8ff" stroke="#63b8ff" points="1541.65,-74.34 1531.06,-74.17 1539.23,-80.91 1541.65,-74.34"/>
</a>
</g>
</g>
<!-- Node20&#45;&gt;Node8 -->
<g id="edge28_Node000020_Node000008" class="edge">
<title>Node20&#45;&gt;Node8</title>
<g id="a_edge28_Node000020_Node000008"><a xlink:title=" ">
<path fill="none" stroke="#63b8ff" d="M1623.41,-114.78C1609.35,-113.06 1592.05,-111.14 1576.5,-110 1085.59,-74.06 491.06,-67.13 301.59,-65.81"/>
<polygon fill="#63b8ff" stroke="#63b8ff" points="301.57,-62.31 291.54,-65.74 301.52,-69.31 301.57,-62.31"/>
</a>
</g>
</g>
<!-- Node20&#45;&gt;Node18 -->
<g id="edge22_Node000020_Node000018" class="edge">
<title>Node20&#45;&gt;Node18</title>
<g id="a_edge22_Node000020_Node000018"><a xlink:title=" ">
<path fill="none" stroke="#63b8ff" d="M1623.37,-115.22C1609.3,-113.6 1592.01,-111.65 1576.5,-110 1438.14,-95.29 1275.58,-79.52 1189.38,-71.28"/>
<polygon fill="#63b8ff" stroke="#63b8ff" points="1189.54,-67.78 1179.25,-70.31 1188.87,-74.75 1189.54,-67.78"/>
</a>
</g>
</g>
<!-- Node20&#45;&gt;Node19 -->
<g id="edge21_Node000020_Node000019" class="edge">
<title>Node20&#45;&gt;Node19</title>
<g id="a_edge21_Node000020_Node000019"><a xlink:title=" ">
<path fill="none" stroke="#63b8ff" d="M1638.08,-109.82C1613.43,-94.03 1561.61,-61.62 1541.5,-55 1416.18,-13.75 1257.66,-9.32 1185.9,-9.7"/>
<polygon fill="#63b8ff" stroke="#63b8ff" points="1185.52,-6.21 1175.55,-9.79 1185.58,-13.21 1185.52,-6.21"/>
</a>
</g>
</g>
<!-- Node21 -->
<g id="Node000021" class="node">
<title>Node21</title>
<g id="a_Node000021"><a xlink:title=" ">
<polygon fill="#e0e0e0" stroke="#999999" points="1642,-74 1589,-74 1589,-55 1642,-55 1642,-74"/>
<text text-anchor="middle" x="1615.5" y="-62" font-family="Helvetica,sans-Serif" font-size="10.00">stdint.h</text>
</a>
</g>
</g>
<!-- Node20&#45;&gt;Node21 -->
<g id="edge24_Node000020_Node000021" class="edge">
<title>Node20&#45;&gt;Node21</title>
<g id="a_edge24_Node000020_Node000021"><a xlink:title=" ">
<path fill="none" stroke="#63b8ff" d="M1645.56,-109.75C1640.52,-102.34 1633.16,-91.5 1626.99,-82.41"/>
<polygon fill="#63b8ff" stroke="#63b8ff" points="1629.85,-80.39 1621.33,-74.09 1624.06,-84.33 1629.85,-80.39"/>
</a>
</g>
</g>
<!-- Node22 -->
<g id="Node000022" class="node">
<title>Node22</title>
<g id="a_Node000022"><a xlink:title=" ">
<polygon fill="#e0e0e0" stroke="#999999" points="1713,-74 1660,-74 1660,-55 1713,-55 1713,-74"/>
<text text-anchor="middle" x="1686.5" y="-62" font-family="Helvetica,sans-Serif" font-size="10.00">stdlib.h</text>
</a>
</g>
</g>
<!-- Node20&#45;&gt;Node22 -->
<g id="edge26_Node000020_Node000022" class="edge">
<title>Node20&#45;&gt;Node22</title>
<g id="a_edge26_Node000020_Node000022"><a xlink:title=" ">
<path fill="none" stroke="#63b8ff" d="M1657.28,-109.75C1662.12,-102.42 1669.18,-91.73 1675.14,-82.7"/>
<polygon fill="#63b8ff" stroke="#63b8ff" points="1678.24,-84.36 1680.83,-74.09 1672.4,-80.5 1678.24,-84.36"/>
</a>
</g>
</g>
<!-- Node23 -->
<g id="Node000023" class="node">
<title>Node23</title>
<g id="a_Node000023"><a xlink:title=" ">
<polygon fill="#e0e0e0" stroke="#999999" points="1779.5,-74 1731.5,-74 1731.5,-55 1779.5,-55 1779.5,-74"/>
<text text-anchor="middle" x="1755.5" y="-62" font-family="Helvetica,sans-Serif" font-size="10.00">time.h</text>
</a>
</g>
</g>
<!-- Node20&#45;&gt;Node23 -->
<g id="edge27_Node000020_Node000023" class="edge">
<title>Node20&#45;&gt;Node23</title>
<g id="a_edge27_Node000020_Node000023"><a xlink:title=" ">
<path fill="none" stroke="#63b8ff" d="M1668.21,-109.98C1684.71,-101.57 1710.2,-88.59 1729.38,-78.81"/>
<polygon fill="#63b8ff" stroke="#63b8ff" points="1731.17,-81.83 1738.49,-74.17 1727.99,-75.59 1731.17,-81.83"/>
</a>
</g>
</g>
<!-- Node47 -->
<g id="Node000047" class="node">
<title>Node47</title>
<g id="a_Node000047"><a xlink:title=" ">
<polygon fill="#e0e0e0" stroke="#999999" points="638,-195 519,-195 519,-165 638,-165 638,-195"/>
<text text-anchor="start" x="527" y="-183" font-family="Helvetica,sans-Serif" font-size="10.00">device_load_uniform</text>
<text text-anchor="middle" x="578.5" y="-172" font-family="Helvetica,sans-Serif" font-size="10.00">_decl.h</text>
</a>
</g>
</g>
<!-- Node46&#45;&gt;Node47 -->
<g id="edge49_Node000046_Node000047" class="edge">
<title>Node46&#45;&gt;Node47</title>
<g id="a_edge49_Node000046_Node000047"><a xlink:title=" ">
<path fill="none" stroke="#63b8ff" d="M519.68,-230.87C528.7,-223.22 542.22,-211.76 554.03,-201.75"/>
<polygon fill="#63b8ff" stroke="#63b8ff" points="556.49,-204.25 561.85,-195.11 551.96,-198.91 556.49,-204.25"/>
</a>
</g>
</g>
<!-- Node48 -->
<g id="Node000048" class="node">
<title>Node48</title>
<g id="a_Node000048"><a xlink:title=" ">
<polygon fill="#e0e0e0" stroke="#999999" points="500.5,-195 378.5,-195 378.5,-165 500.5,-165 500.5,-195"/>
<text text-anchor="start" x="386.5" y="-183" font-family="Helvetica,sans-Serif" font-size="10.00">device_store_uniform</text>
<text text-anchor="middle" x="439.5" y="-172" font-family="Helvetica,sans-Serif" font-size="10.00">_decl.h</text>
</a>
</g>
</g>
<!-- Node46&#45;&gt;Node48 -->
<g id="edge50_Node000046_Node000048" class="edge">
<title>Node46&#45;&gt;Node48</title>
<g id="a_edge50_Node000046_Node000048"><a xlink:title=" ">
<path fill="none" stroke="#63b8ff" d="M499.17,-230.87C490.02,-223.22 476.31,-211.76 464.33,-201.75"/>
<polygon fill="#63b8ff" stroke="#63b8ff" points="466.31,-198.84 456.39,-195.11 461.82,-204.21 466.31,-198.84"/>
</a>
</g>
</g>
<!-- Node56&#45;&gt;Node2 -->
<g id="edge59_Node000056_Node000002" class="edge">
<title>Node56&#45;&gt;Node2</title>
<g id="a_edge59_Node000056_Node000002"><a xlink:title=" ">
<path fill="none" stroke="#63b8ff" d="M1628.27,-345.3C1518.14,-335.29 1241.58,-310.14 1134.65,-300.42"/>
<polygon fill="#63b8ff" stroke="#63b8ff" points="1134.82,-296.92 1124.54,-299.5 1134.18,-303.89 1134.82,-296.92"/>
</a>
</g>
</g>
<!-- Node57 -->
<g id="Node000057" class="node">
<title>Node57</title>
<g id="a_Node000057"><a xlink:title=" ">
<polygon fill="#e0e0e0" stroke="#999999" points="1693.5,-305 1637.5,-305 1637.5,-286 1693.5,-286 1693.5,-305"/>
<text text-anchor="middle" x="1665.5" y="-293" font-family="Helvetica,sans-Serif" font-size="10.00">stdarg.h</text>
</a>
</g>
</g>
<!-- Node56&#45;&gt;Node57 -->
<g id="edge60_Node000056_Node000057" class="edge">
<title>Node56&#45;&gt;Node57</title>
<g id="a_edge60_Node000056_Node000057"><a xlink:title=" ">
<path fill="none" stroke="#63b8ff" d="M1673.01,-340.75C1671.83,-333.8 1670.14,-323.85 1668.66,-315.13"/>
<polygon fill="#63b8ff" stroke="#63b8ff" points="1672.08,-314.36 1666.96,-305.09 1665.18,-315.53 1672.08,-314.36"/>
</a>
</g>
</g>
<!-- Node58 -->
<g id="Node000058" class="node">
<title>Node58</title>
<g id="a_Node000058"><a xlink:href="astaroth__lib_8h.html" target="_top" xlink:title=" ">
<polygon fill="white" stroke="#666666" points="1795,-305 1712,-305 1712,-286 1795,-286 1795,-305"/>
<text text-anchor="middle" x="1753.5" y="-293" font-family="Helvetica,sans-Serif" font-size="10.00">astaroth_lib.h</text>
</a>
</g>
</g>
<!-- Node56&#45;&gt;Node58 -->
<g id="edge61_Node000056_Node000058" class="edge">
<title>Node56&#45;&gt;Node58</title>
<g id="a_edge61_Node000056_Node000058"><a xlink:title=" ">
<path fill="none" stroke="#63b8ff" d="M1687.19,-340.98C1699.33,-332.84 1717.86,-320.41 1732.25,-310.76"/>
<polygon fill="#63b8ff" stroke="#63b8ff" points="1734.22,-313.65 1740.58,-305.17 1730.32,-307.84 1734.22,-313.65"/>
</a>
</g>
</g>
</g>
</svg>

<g id="navigator" transform="translate(0 0)" fill="#404254">
  <rect fill="#f2f5e9" fill-opacity="0.5" stroke="#606060" stroke-width=".5" x="0" y="0" width="60" height="60"/>
  <use id="zoomplus" xlink:href="#zoomPlus" x="17" y="9" onmousedown="handleZoom(evt,'in')"/>
  <use id="zoomminus" xlink:href="#zoomMin" x="42" y="9" onmousedown="handleZoom(evt,'out')"/>
  <use id="reset" xlink:href="#resetDef" x="30" y="36" onmousedown="handleReset()"/>
   <use id="arrowup" xlink:href="#arrowUp" x="0" y="0" onmousedown="handlePan(0,-1)"/>
  <use id="arrowright" xlink:href="#arrowRight" x="0" y="0" onmousedown="handlePan(1,0)"/>
  <use id="arrowdown" xlink:href="#arrowDown" x="0" y="0" onmousedown="handlePan(0,1)"/>
  <use id="arrowleft" xlink:href="#arrowLeft" x="0" y="0" onmousedown="handlePan(-1,0)"/>
</g>
<svg viewBox="0 0 15 15" width="100%" height="30px" preserveAspectRatio="xMaxYMin meet">
 <g id="arrow_out" transform="scale(0.3 0.3)">
  <a xlink:href="grid-calculation_2main_8cc__incl_org.svg" target="_base">
   <rect id="button" ry="5" rx="5" y="6" x="6" height="38" width="38"
        fill="#f2f5e9" fill-opacity="0.5" stroke="#606060" stroke-width="1.0"/>
   <path id="arrow"
     d="M 11.500037,31.436501 C 11.940474,20.09759 22.043105,11.32322 32.158766,21.979434 L 37.068811,17.246167 C 37.068811,17.246167 37.088388,32 37.088388,32 L 22.160133,31.978069 C 22.160133,31.978069 26.997745,27.140456 26.997745,27.140456 C 18.528582,18.264221 13.291696,25.230495 11.500037,31.436501 z"
     style="fill:#404040;"/>
  </a>
 </g>
</svg>

<style type='text/css'>
<![CDATA[
[data-mouse-over-selected='false'] { opacity: 0.7; }
[data-mouse-over-selected='true']  { opacity: 1.0; }
]]>
</style>
<script type="application/ecmascript"><![CDATA[
document.addEventListener('DOMContentLoaded', (event) => {
  highlightEdges();
  highlightAdjacentNodes();
});
]]></script>
</svg>
