<?xml version="1.0" encoding="UTF-8" standalone="no"?>
<!DOCTYPE svg PUBLIC "-//W3C//DTD SVG 1.1//EN"
 "http://www.w3.org/Graphics/SVG/1.1/DTD/svg11.dtd">
<!-- Generated by graphviz version 2.43.0 (0)
 -->
<!-- Title: acc&#45;runtime/acc/hashtable.h Pages: 1 -->
<svg width="438pt" height="258pt"
 viewBox="0.00 0.00 437.50 258.00" xmlns="http://www.w3.org/2000/svg" xmlns:xlink="http://www.w3.org/1999/xlink">
<g id="graph0" class="graph" transform="scale(1 1) rotate(0) translate(4 254)">
<title>acc&#45;runtime/acc/hashtable.h</title>
<!-- Node1 -->
<g id="Node000001" class="node">
<title>Node1</title>
<g id="a_Node000001"><a xlink:title=" ">
<polygon fill="#999999" stroke="#666666" points="155,-250 0,-250 0,-231 155,-231 155,-250"/>
<text text-anchor="middle" x="77.5" y="-238" font-family="Helvetica,sans-Serif" font-size="10.00">acc&#45;runtime/acc/hashtable.h</text>
</a>
</g>
</g>
<!-- Node2 -->
<g id="Node000002" class="node">
<title>Node2</title>
<g id="a_Node000002"><a xlink:href="codegen_8c.html" target="_top" xlink:title=" ">
<polygon fill="white" stroke="#666666" points="181,-19 34,-19 34,0 181,0 181,-19"/>
<text text-anchor="middle" x="107.5" y="-7" font-family="Helvetica,sans-Serif" font-size="10.00">acc&#45;runtime/acc/codegen.c</text>
</a>
</g>
</g>
<!-- Node1&#45;&gt;Node2 -->
<g id="edge1_Node000001_Node000002" class="edge">
<title>Node1&#45;&gt;Node2</title>
<g id="a_edge1_Node000001_Node000002"><a xlink:title=" ">
<path fill="none" stroke="#63b8ff" d="M64.29,-222.68C58.89,-214.75 53.26,-204.88 50.5,-195 48.23,-186.87 49.11,-184.33 50.5,-176 60.93,-113.66 92.04,-43.37 103.34,-19.2"/>
<polygon fill="#63b8ff" stroke="#63b8ff" points="61.63,-224.96 70.35,-230.97 67.28,-220.83 61.63,-224.96"/>
</a>
</g>
</g>
<!-- Node3 -->
<g id="Node000003" class="node">
<title>Node3</title>
<g id="a_Node000003"><a xlink:href="hash_8h.html" target="_top" xlink:title=" ">
<polygon fill="white" stroke="#666666" points="189.5,-195 59.5,-195 59.5,-176 189.5,-176 189.5,-195"/>
<text text-anchor="middle" x="124.5" y="-183" font-family="Helvetica,sans-Serif" font-size="10.00">acc&#45;runtime/acc/hash.h</text>
</a>
</g>
</g>
<!-- Node1&#45;&gt;Node3 -->
<g id="edge2_Node000001_Node000003" class="edge">
<title>Node1&#45;&gt;Node3</title>
<g id="a_edge2_Node000001_Node000003"><a xlink:title=" ">
<path fill="none" stroke="#63b8ff" d="M91.92,-223.24C100.16,-213.95 110.15,-202.68 116.88,-195.09"/>
<polygon fill="#63b8ff" stroke="#63b8ff" points="89.28,-220.94 85.26,-230.75 94.51,-225.59 89.28,-220.94"/>
</a>
</g>
</g>
<!-- Node3&#45;&gt;Node2 -->
<g id="edge9_Node000003_Node000002" class="edge">
<title>Node3&#45;&gt;Node2</title>
<g id="a_edge9_Node000003_Node000002"><a xlink:title=" ">
<path fill="none" stroke="#63b8ff" d="M119.19,-166.02C117.1,-158.08 114.87,-148.65 113.5,-140 106.34,-94.88 106.76,-39.89 107.24,-19.05"/>
<polygon fill="#63b8ff" stroke="#63b8ff" points="115.83,-167.02 121.86,-175.73 122.58,-165.15 115.83,-167.02"/>
</a>
</g>
</g>
<!-- Node4 -->
<g id="Node000004" class="node">
<title>Node4</title>
<g id="a_Node000004"><a xlink:href="ast_8h.html" target="_top" xlink:title=" ">
<polygon fill="white" stroke="#666666" points="244.5,-140 122.5,-140 122.5,-121 244.5,-121 244.5,-140"/>
<text text-anchor="middle" x="183.5" y="-128" font-family="Helvetica,sans-Serif" font-size="10.00">acc&#45;runtime/acc/ast.h</text>
</a>
</g>
</g>
<!-- Node3&#45;&gt;Node4 -->
<g id="edge3_Node000003_Node000004" class="edge">
<title>Node3&#45;&gt;Node4</title>
<g id="a_edge3_Node000003_Node000004"><a xlink:title=" ">
<path fill="none" stroke="#63b8ff" d="M141.7,-169.04C152.17,-159.64 165.15,-147.98 173.85,-140.17"/>
<polygon fill="#63b8ff" stroke="#63b8ff" points="139.08,-166.7 133.98,-175.98 143.76,-171.91 139.08,-166.7"/>
</a>
</g>
</g>
<!-- Node4&#45;&gt;Node2 -->
<g id="edge4_Node000004_Node000002" class="edge">
<title>Node4&#45;&gt;Node2</title>
<g id="a_edge4_Node000004_Node000002"><a xlink:title=" ">
<path fill="none" stroke="#63b8ff" d="M158.61,-115.38C147.25,-107.75 134.57,-97.36 126.5,-85 112.77,-63.99 108.96,-33.66 107.9,-19.03"/>
<polygon fill="#63b8ff" stroke="#63b8ff" points="156.99,-118.49 167.31,-120.88 160.73,-112.58 156.99,-118.49"/>
</a>
</g>
</g>
<!-- Node5 -->
<g id="Node000005" class="node">
<title>Node5</title>
<g id="a_Node000005"><a xlink:href="codegen_8h.html" target="_top" xlink:title=" ">
<polygon fill="white" stroke="#666666" points="283.5,-79.5 135.5,-79.5 135.5,-60.5 283.5,-60.5 283.5,-79.5"/>
<text text-anchor="middle" x="209.5" y="-67.5" font-family="Helvetica,sans-Serif" font-size="10.00">acc&#45;runtime/acc/codegen.h</text>
</a>
</g>
</g>
<!-- Node4&#45;&gt;Node5 -->
<g id="edge5_Node000004_Node000005" class="edge">
<title>Node4&#45;&gt;Node5</title>
<g id="a_edge5_Node000004_Node000005"><a xlink:title=" ">
<path fill="none" stroke="#63b8ff" d="M191.43,-111.65C196.15,-101.04 201.92,-88.06 205.65,-79.67"/>
<polygon fill="#63b8ff" stroke="#63b8ff" points="188.2,-110.31 187.34,-120.87 194.6,-113.15 188.2,-110.31"/>
</a>
</g>
</g>
<!-- Node6 -->
<g id="Node000006" class="node">
<title>Node6</title>
<g id="a_Node000006"><a xlink:href="create__node_8h.html" target="_top" xlink:title=" ">
<polygon fill="white" stroke="#666666" points="429.5,-85 301.5,-85 301.5,-55 429.5,-55 429.5,-85"/>
<text text-anchor="start" x="309.5" y="-73" font-family="Helvetica,sans-Serif" font-size="10.00">acc&#45;runtime/acc/create</text>
<text text-anchor="middle" x="365.5" y="-62" font-family="Helvetica,sans-Serif" font-size="10.00">_node.h</text>
</a>
</g>
</g>
<!-- Node4&#45;&gt;Node6 -->
<g id="edge7_Node000004_Node000006" class="edge">
<title>Node4&#45;&gt;Node6</title>
<g id="a_edge7_Node000004_Node000006"><a xlink:title=" ">
<path fill="none" stroke="#63b8ff" d="M219.81,-117.83C249.15,-108.4 290.57,-95.09 321.74,-85.06"/>
<polygon fill="#63b8ff" stroke="#63b8ff" points="218.41,-114.6 209.96,-120.99 220.56,-121.27 218.41,-114.6"/>
</a>
</g>
</g>
<!-- Node5&#45;&gt;Node2 -->
<g id="edge6_Node000005_Node000002" class="edge">
<title>Node5&#45;&gt;Node2</title>
<g id="a_edge6_Node000005_Node000002"><a xlink:title=" ">
<path fill="none" stroke="#63b8ff" d="M185.56,-55.27C166.09,-44.1 139.21,-28.69 122.61,-19.17"/>
<polygon fill="#63b8ff" stroke="#63b8ff" points="184.03,-58.43 194.45,-60.37 187.52,-52.36 184.03,-58.43"/>
</a>
</g>
</g>
<!-- Node6&#45;&gt;Node2 -->
<g id="edge8_Node000006_Node000002" class="edge">
<title>Node6&#45;&gt;Node2</title>
<g id="a_edge8_Node000006_Node000002"><a xlink:title=" ">
<path fill="none" stroke="#63b8ff" d="M293.95,-52.78C245.76,-41.85 184.13,-27.88 145.22,-19.05"/>
<polygon fill="#63b8ff" stroke="#63b8ff" points="293.18,-56.19 303.7,-54.99 294.72,-49.36 293.18,-56.19"/>
</a>
</g>
</g>
</g>
</svg>
