<?xml version="1.0" encoding="UTF-8" standalone="no"?>
<!DOCTYPE svg PUBLIC "-//W3C//DTD SVG 1.1//EN"
 "http://www.w3.org/Graphics/SVG/1.1/DTD/svg11.dtd">
<!-- Generated by graphviz version 2.43.0 (0)
 -->
<!-- Title: acc&#45;runtime/acc/hash.h Pages: 1 -->
<svg width="336pt" height="203pt"
 viewBox="0.00 0.00 336.14 203.00" xmlns="http://www.w3.org/2000/svg" xmlns:xlink="http://www.w3.org/1999/xlink">
<g id="graph0" class="graph" transform="scale(1 1) rotate(0) translate(4 199)">
<title>acc&#45;runtime/acc/hash.h</title>
<!-- Node1 -->
<g id="Node000001" class="node">
<title>Node1</title>
<g id="a_Node000001"><a xlink:title=" ">
<polygon fill="#999999" stroke="#666666" points="279.49,-195 149.49,-195 149.49,-176 279.49,-176 279.49,-195"/>
<text text-anchor="middle" x="214.49" y="-183" font-family="Helvetica,sans-Serif" font-size="10.00">acc&#45;runtime/acc/hash.h</text>
</a>
</g>
</g>
<!-- Node2 -->
<g id="Node000002" class="node">
<title>Node2</title>
<g id="a_Node000002"><a xlink:href="acc-runtime_2acc_2ast_8h.html" target="_top" xlink:title=" ">
<polygon fill="white" stroke="#666666" points="229.49,-140 107.49,-140 107.49,-121 229.49,-121 229.49,-140"/>
<text text-anchor="middle" x="168.49" y="-128" font-family="Helvetica,sans-Serif" font-size="10.00">acc&#45;runtime/acc/ast.h</text>
</a>
</g>
</g>
<!-- Node1&#45;&gt;Node2 -->
<g id="edge1_Node000001_Node000002" class="edge">
<title>Node1&#45;&gt;Node2</title>
<g id="a_edge1_Node000001_Node000002"><a xlink:title=" ">
<path fill="none" stroke="#63b8ff" d="M200.13,-167.96C192.11,-158.72 182.46,-147.6 175.94,-140.09"/>
<polygon fill="#63b8ff" stroke="#63b8ff" points="197.69,-170.49 206.89,-175.75 202.98,-165.9 197.69,-170.49"/>
</a>
</g>
</g>
<!-- Node3 -->
<g id="Node000003" class="node">
<title>Node3</title>
<g id="a_Node000003"><a xlink:href="codegen_8c.html" target="_top" xlink:title=" ">
<polygon fill="white" stroke="#666666" points="241.99,-19 94.99,-19 94.99,0 241.99,0 241.99,-19"/>
<text text-anchor="middle" x="168.49" y="-7" font-family="Helvetica,sans-Serif" font-size="10.00">acc&#45;runtime/acc/codegen.c</text>
</a>
</g>
</g>
<!-- Node1&#45;&gt;Node3 -->
<g id="edge7_Node000001_Node000003" class="edge">
<title>Node1&#45;&gt;Node3</title>
<g id="a_edge7_Node000001_Node000003"><a xlink:title=" ">
<path fill="none" stroke="#63b8ff" d="M240.06,-170.95C280.63,-147.68 351.97,-98.44 319.49,-55 301.48,-30.92 271.07,-19.32 242.24,-13.92"/>
<polygon fill="#63b8ff" stroke="#63b8ff" points="238.23,-167.96 231.21,-175.89 241.64,-174.07 238.23,-167.96"/>
</a>
</g>
</g>
<!-- Node2&#45;&gt;Node3 -->
<g id="edge2_Node000002_Node000003" class="edge">
<title>Node2&#45;&gt;Node3</title>
<g id="a_edge2_Node000002_Node000003"><a xlink:title=" ">
<path fill="none" stroke="#63b8ff" d="M100.08,-119.04C61.64,-111.62 19.1,-100.25 7.49,-85 -20.77,-47.87 40.8,-28.6 95.78,-19.05"/>
<polygon fill="#63b8ff" stroke="#63b8ff" points="99.79,-122.55 110.26,-120.94 101.07,-115.67 99.79,-122.55"/>
</a>
</g>
</g>
<!-- Node4 -->
<g id="Node000004" class="node">
<title>Node4</title>
<g id="a_Node000004"><a xlink:href="codegen_8h.html" target="_top" xlink:title=" ">
<polygon fill="white" stroke="#666666" points="164.49,-79.5 16.49,-79.5 16.49,-60.5 164.49,-60.5 164.49,-79.5"/>
<text text-anchor="middle" x="90.49" y="-67.5" font-family="Helvetica,sans-Serif" font-size="10.00">acc&#45;runtime/acc/codegen.h</text>
</a>
</g>
</g>
<!-- Node2&#45;&gt;Node4 -->
<g id="edge3_Node000002_Node000004" class="edge">
<title>Node2&#45;&gt;Node4</title>
<g id="a_edge3_Node000002_Node000004"><a xlink:title=" ">
<path fill="none" stroke="#63b8ff" d="M148.95,-114.85C134.18,-103.77 114.39,-88.93 102.04,-79.67"/>
<polygon fill="#63b8ff" stroke="#63b8ff" points="146.88,-117.67 156.98,-120.87 151.08,-112.07 146.88,-117.67"/>
</a>
</g>
</g>
<!-- Node5 -->
<g id="Node000005" class="node">
<title>Node5</title>
<g id="a_Node000005"><a xlink:href="create__node_8h.html" target="_top" xlink:title=" ">
<polygon fill="white" stroke="#666666" points="310.49,-85 182.49,-85 182.49,-55 310.49,-55 310.49,-85"/>
<text text-anchor="start" x="190.49" y="-73" font-family="Helvetica,sans-Serif" font-size="10.00">acc&#45;runtime/acc/create</text>
<text text-anchor="middle" x="246.49" y="-62" font-family="Helvetica,sans-Serif" font-size="10.00">_node.h</text>
</a>
</g>
</g>
<!-- Node2&#45;&gt;Node5 -->
<g id="edge5_Node000002_Node000005" class="edge">
<title>Node2&#45;&gt;Node5</title>
<g id="a_edge5_Node000002_Node000005"><a xlink:title=" ">
<path fill="none" stroke="#63b8ff" d="M188.13,-114.77C200.25,-105.68 215.71,-94.09 227.67,-85.11"/>
<polygon fill="#63b8ff" stroke="#63b8ff" points="185.9,-112.07 180,-120.87 190.1,-117.67 185.9,-112.07"/>
</a>
</g>
</g>
<!-- Node4&#45;&gt;Node3 -->
<g id="edge4_Node000004_Node000003" class="edge">
<title>Node4&#45;&gt;Node3</title>
<g id="a_edge4_Node000004_Node000003"><a xlink:title=" ">
<path fill="none" stroke="#63b8ff" d="M110.02,-54.35C124.8,-43.27 144.58,-28.43 156.93,-19.17"/>
<polygon fill="#63b8ff" stroke="#63b8ff" points="107.9,-51.57 102,-60.37 112.1,-57.17 107.9,-51.57"/>
</a>
</g>
</g>
<!-- Node5&#45;&gt;Node3 -->
<g id="edge6_Node000005_Node000003" class="edge">
<title>Node5&#45;&gt;Node3</title>
<g id="a_edge6_Node000005_Node000003"><a xlink:title=" ">
<path fill="none" stroke="#63b8ff" d="M219.58,-48.82C206.13,-38.73 190.56,-27.05 180.18,-19.27"/>
<polygon fill="#63b8ff" stroke="#63b8ff" points="217.51,-51.64 227.61,-54.84 221.71,-46.04 217.51,-51.64"/>
</a>
</g>
</g>
</g>
</svg>
