<?xml version="1.0" encoding="UTF-8" standalone="no"?>
<!DOCTYPE svg PUBLIC "-//W3C//DTD SVG 1.1//EN"
 "http://www.w3.org/Graphics/SVG/1.1/DTD/svg11.dtd">
<!-- Generated by graphviz version 2.43.0 (0)
 -->
<!-- Title: src/core/kernels/heffte.cc Pages: 1 -->
<!--zoomable 247 -->

<svg id="main" version="1.1" xmlns="http://www.w3.org/2000/svg" xmlns:xlink="http://www.w3.org/1999/xlink" xml:space="preserve" onload="init(evt)">
<style type="text/css"><![CDATA[
.node, .edge {opacity: 0.7;}
.node.selected, .edge.selected {opacity: 1;}
.edge:hover path { stroke: red; }
.edge:hover polygon { stroke: red; fill: red; }
]]></style>

<defs>
  <circle id="rim" cx="0" cy="0" r="7"/>
  <circle id="rim2" cx="0" cy="0" r="3.5"/>
  <g id="zoomPlus">
    <use xlink:href="#rim" fill="#404040"><set attributeName="fill" to="#808080" begin="zoomplus.mouseover" end="zoomplus.mouseout"/></use>
    <path d="M-4,0h8M0,-4v8" fill="none" stroke="white" stroke-width="1.5" pointer-events="none"/>
  </g>
  <g id="zoomMin">
    <use xlink:href="#rim" fill="#404040"><set attributeName="fill" to="#808080" begin="zoomminus.mouseover" end="zoomminus.mouseout"/></use>
    <path d="M-4,0h8" fill="none" stroke="white" stroke-width="1.5" pointer-events="none"/>
  </g>
  <g id="arrowUp" transform="translate(30 24)">
    <use xlink:href="#rim"/>
    <path pointer-events="none" fill="none" stroke="white" stroke-width="1.5" d="M0,-3.0v7 M-2.5,-0.5L0,-3.0L2.5,-0.5"/>
  </g>
  <g id="arrowRight" transform="rotate(90) translate(36 -43)">
    <use xlink:href="#rim"/>
    <path pointer-events="none" fill="none" stroke="white" stroke-width="1.5" d="M0,-3.0v7 M-2.5,-0.5L0,-3.0L2.5,-0.5"/>
  </g>
  <g id="arrowDown" transform="rotate(180) translate(-30 -48)">
    <use xlink:href="#rim"/>
    <path pointer-events="none" fill="none" stroke="white" stroke-width="1.5" d="M0,-3.0v7 M-2.5,-0.5L0,-3.0L2.5,-0.5"/>
  </g>
  <g id="arrowLeft" transform="rotate(270) translate(-36 17)">
    <use xlink:href="#rim"/>
    <path pointer-events="none" fill="none" stroke="white" stroke-width="1.5" d="M0,-3.0v7 M-2.5,-0.5L0,-3.0L2.5,-0.5"/>
  </g>
  <g id="resetDef">
    <use xlink:href="#rim2" fill="#404040"><set attributeName="fill" to="#808080" begin="reset.mouseover" end="reset.mouseout"/></use>
  </g>
</defs>
<script type="application/ecmascript">
var viewWidth = 893;
var viewHeight = 247;
var sectionId = 'dynsection-0';
</script>
<script type="application/ecmascript" xlink:href="svg.min.js"/>
<svg id="graph" class="graph">
<g id="viewport">
<title>src/core/kernels/heffte.cc</title>
<!-- Node1 -->
<g id="Node000001" class="node">
<title>Node1</title>
<g id="a_Node000001"><a xlink:title=" ">
<polygon fill="#999999" stroke="#666666" points="515.5,-239 377.5,-239 377.5,-220 515.5,-220 515.5,-239"/>
<text text-anchor="middle" x="446.5" y="-227" font-family="Helvetica,sans-Serif" font-size="10.00">src/core/kernels/heffte.cc</text>
</a>
</g>
</g>
<!-- Node2 -->
<g id="Node000002" class="node">
<title>Node2</title>
<g id="a_Node000002"><a xlink:title=" ">
<polygon fill="#e0e0e0" stroke="#999999" points="64.5,-184 10.5,-184 10.5,-165 64.5,-165 64.5,-184"/>
<text text-anchor="middle" x="37.5" y="-172" font-family="Helvetica,sans-Serif" font-size="10.00">heffte.h</text>
</a>
</g>
</g>
<!-- Node1&#45;&gt;Node2 -->
<g id="edge1_Node000001_Node000002" class="edge">
<title>Node1&#45;&gt;Node2</title>
<g id="a_edge1_Node000001_Node000002"><a xlink:title=" ">
<path fill="none" stroke="#63b8ff" d="M377.41,-222.62C304.48,-215.87 186.01,-203.41 74.62,-184.01"/>
<polygon fill="#63b8ff" stroke="#63b8ff" points="75.01,-180.53 64.56,-182.24 73.8,-187.42 75.01,-180.53"/>
</a>
</g>
</g>
<!-- Node3 -->
<g id="Node000003" class="node">
<title>Node3</title>
<g id="a_Node000003"><a xlink:title=" ">
<polygon fill="#e0e0e0" stroke="#999999" points="126.5,-184 82.5,-184 82.5,-165 126.5,-165 126.5,-184"/>
<text text-anchor="middle" x="104.5" y="-172" font-family="Helvetica,sans-Serif" font-size="10.00">mpi.h</text>
</a>
</g>
</g>
<!-- Node1&#45;&gt;Node3 -->
<g id="edge2_Node000001_Node000003" class="edge">
<title>Node1&#45;&gt;Node3</title>
<g id="a_edge2_Node000001_Node000003"><a xlink:title=" ">
<path fill="none" stroke="#63b8ff" d="M377.24,-220.18C315.03,-212.3 221.32,-199.39 140.5,-184 139.22,-183.76 137.92,-183.5 136.61,-183.23"/>
<polygon fill="#63b8ff" stroke="#63b8ff" points="137.04,-179.74 126.52,-181.02 135.54,-186.58 137.04,-179.74"/>
</a>
</g>
</g>
<!-- Node4 -->
<g id="Node000004" class="node">
<title>Node4</title>
<g id="a_Node000004"><a xlink:title=" ">
<polygon fill="#e0e0e0" stroke="#999999" points="561.5,-129 511.5,-129 511.5,-110 561.5,-110 561.5,-129"/>
<text text-anchor="middle" x="536.5" y="-117" font-family="Helvetica,sans-Serif" font-size="10.00">stdio.h</text>
</a>
</g>
</g>
<!-- Node1&#45;&gt;Node4 -->
<g id="edge3_Node000001_Node000004" class="edge">
<title>Node1&#45;&gt;Node4</title>
<g id="a_edge3_Node000001_Node000004"><a xlink:title=" ">
<path fill="none" stroke="#63b8ff" d="M454.12,-219.68C461.84,-210.73 474.07,-196.47 484.5,-184 497.72,-168.19 512.6,-149.98 523.04,-137.12"/>
<polygon fill="#63b8ff" stroke="#63b8ff" points="525.91,-139.15 529.49,-129.17 520.47,-134.74 525.91,-139.15"/>
</a>
</g>
</g>
<!-- Node5 -->
<g id="Node000005" class="node">
<title>Node5</title>
<g id="a_Node000005"><a xlink:title=" ">
<polygon fill="#e0e0e0" stroke="#999999" points="684,-184 635,-184 635,-165 684,-165 684,-184"/>
<text text-anchor="middle" x="659.5" y="-172" font-family="Helvetica,sans-Serif" font-size="10.00">cstdlib</text>
</a>
</g>
</g>
<!-- Node1&#45;&gt;Node5 -->
<g id="edge4_Node000001_Node000005" class="edge">
<title>Node1&#45;&gt;Node5</title>
<g id="a_edge4_Node000001_Node000005"><a xlink:title=" ">
<path fill="none" stroke="#63b8ff" d="M480.82,-219.98C514.88,-211.52 568.85,-198.12 625.19,-184.07"/>
<polygon fill="#63b8ff" stroke="#63b8ff" points="626.13,-187.45 634.99,-181.63 624.44,-180.66 626.13,-187.45"/>
</a>
</g>
</g>
<!-- Node6 -->
<g id="Node000006" class="node">
<title>Node6</title>
<g id="a_Node000006"><a xlink:title=" ">
<polygon fill="#e0e0e0" stroke="#999999" points="795,-184 702,-184 702,-165 795,-165 795,-184"/>
<text text-anchor="middle" x="748.5" y="-172" font-family="Helvetica,sans-Serif" font-size="10.00">unordered_map</text>
</a>
</g>
</g>
<!-- Node1&#45;&gt;Node6 -->
<g id="edge5_Node000001_Node000006" class="edge">
<title>Node1&#45;&gt;Node6</title>
<g id="a_edge5_Node000001_Node000006"><a xlink:title=" ">
<path fill="none" stroke="#63b8ff" d="M495.02,-219.98C548.66,-210.57 634.96,-195.43 691.7,-185.47"/>
<polygon fill="#63b8ff" stroke="#63b8ff" points="692.35,-188.91 701.59,-183.73 691.14,-182.01 692.35,-188.91"/>
</a>
</g>
</g>
<!-- Node7 -->
<g id="Node000007" class="node">
<title>Node7</title>
<g id="a_Node000007"><a xlink:href="ac__fft_8h.html" target="_top" xlink:title=" ">
<polygon fill="white" stroke="#666666" points="236,-184 183,-184 183,-165 236,-165 236,-184"/>
<text text-anchor="middle" x="209.5" y="-172" font-family="Helvetica,sans-Serif" font-size="10.00">ac_fft.h</text>
</a>
</g>
</g>
<!-- Node1&#45;&gt;Node7 -->
<g id="edge6_Node000001_Node000007" class="edge">
<title>Node1&#45;&gt;Node7</title>
<g id="a_edge6_Node000001_Node000007"><a xlink:title=" ">
<path fill="none" stroke="#63b8ff" d="M407.18,-219.96C368.69,-211.57 308.14,-198.27 246.18,-184.13"/>
<polygon fill="#63b8ff" stroke="#63b8ff" points="246.76,-180.67 236.23,-181.85 245.19,-187.5 246.76,-180.67"/>
</a>
</g>
</g>
<!-- Node11 -->
<g id="Node000011" class="node">
<title>Node11</title>
<g id="a_Node000011"><a xlink:href="host__datatypes_8h.html" target="_top" xlink:title=" ">
<polygon fill="white" stroke="#666666" points="455,-129 354,-129 354,-110 455,-110 455,-129"/>
<text text-anchor="middle" x="404.5" y="-117" font-family="Helvetica,sans-Serif" font-size="10.00">host_datatypes.h</text>
</a>
</g>
</g>
<!-- Node1&#45;&gt;Node11 -->
<g id="edge38_Node000001_Node000011" class="edge">
<title>Node1&#45;&gt;Node11</title>
<g id="a_edge38_Node000001_Node000011"><a xlink:title=" ">
<path fill="none" stroke="#63b8ff" d="M453.98,-219.97C463.97,-207.48 479.34,-183.67 469.5,-165 462.26,-151.27 448.67,-140.97 435.78,-133.76"/>
<polygon fill="#63b8ff" stroke="#63b8ff" points="437.11,-130.51 426.62,-129.05 433.91,-136.73 437.11,-130.51"/>
</a>
</g>
</g>
<!-- Node17 -->
<g id="Node000017" class="node">
<title>Node17</title>
<g id="a_Node000017"><a xlink:href="ac__helpers_8h.html" target="_top" xlink:title=" ">
<polygon fill="white" stroke="#666666" points="332.5,-184 254.5,-184 254.5,-165 332.5,-165 332.5,-184"/>
<text text-anchor="middle" x="293.5" y="-172" font-family="Helvetica,sans-Serif" font-size="10.00">ac_helpers.h</text>
</a>
</g>
</g>
<!-- Node1&#45;&gt;Node17 -->
<g id="edge17_Node000001_Node000017" class="edge">
<title>Node1&#45;&gt;Node17</title>
<g id="a_edge17_Node000001_Node000017"><a xlink:title=" ">
<path fill="none" stroke="#63b8ff" d="M421.92,-219.98C396.45,-211.16 356.46,-197.31 327.87,-187.41"/>
<polygon fill="#63b8ff" stroke="#63b8ff" points="328.87,-184.05 318.27,-184.08 326.58,-190.66 328.87,-184.05"/>
</a>
</g>
</g>
<!-- Node18 -->
<g id="Node000018" class="node">
<title>Node18</title>
<g id="a_Node000018"><a xlink:href="ac__mpi_8h.html" target="_top" xlink:title=" ">
<polygon fill="white" stroke="#666666" points="874,-184 813,-184 813,-165 874,-165 874,-184"/>
<text text-anchor="middle" x="843.5" y="-172" font-family="Helvetica,sans-Serif" font-size="10.00">ac_mpi.h</text>
</a>
</g>
</g>
<!-- Node1&#45;&gt;Node18 -->
<g id="edge21_Node000001_Node000018" class="edge">
<title>Node1&#45;&gt;Node18</title>
<g id="a_edge21_Node000001_Node000018"><a xlink:title=" ">
<path fill="none" stroke="#63b8ff" d="M515.74,-221.78C585.79,-214.55 697.4,-201.88 802.72,-184.17"/>
<polygon fill="#63b8ff" stroke="#63b8ff" points="803.62,-187.57 812.89,-182.45 802.45,-180.67 803.62,-187.57"/>
</a>
</g>
</g>
<!-- Node19 -->
<g id="Node000019" class="node">
<title>Node19</title>
<g id="a_Node000019"><a xlink:href="astaroth__cuda__wrappers_8h.html" target="_top" xlink:title=" ">
<polygon fill="white" stroke="#666666" points="145,-129 0,-129 0,-110 145,-110 145,-129"/>
<text text-anchor="middle" x="72.5" y="-117" font-family="Helvetica,sans-Serif" font-size="10.00">astaroth_cuda_wrappers.h</text>
</a>
</g>
</g>
<!-- Node1&#45;&gt;Node19 -->
<g id="edge22_Node000001_Node000019" class="edge">
<title>Node1&#45;&gt;Node19</title>
<g id="a_edge22_Node000001_Node000019"><a xlink:title=" ">
<path fill="none" stroke="#63b8ff" d="M377.23,-224.84C320.84,-220.08 239.98,-209.13 173.5,-184 156.94,-177.74 117.44,-151.51 93.03,-134.78"/>
<polygon fill="#63b8ff" stroke="#63b8ff" points="95.01,-131.9 84.79,-129.1 91.04,-137.66 95.01,-131.9"/>
</a>
</g>
</g>
<!-- Node20 -->
<g id="Node000020" class="node">
<title>Node20</title>
<g id="a_Node000020"><a xlink:href="common__kernels_8h.html" target="_top" xlink:title=" ">
<polygon fill="white" stroke="#666666" points="460,-184 351,-184 351,-165 460,-165 460,-184"/>
<text text-anchor="middle" x="405.5" y="-172" font-family="Helvetica,sans-Serif" font-size="10.00">common_kernels.h</text>
</a>
</g>
</g>
<!-- Node1&#45;&gt;Node20 -->
<g id="edge24_Node000001_Node000020" class="edge">
<title>Node1&#45;&gt;Node20</title>
<g id="a_edge24_Node000001_Node000020"><a xlink:title=" ">
<path fill="none" stroke="#63b8ff" d="M439.73,-219.75C433.94,-212.26 425.44,-201.28 418.36,-192.13"/>
<polygon fill="#63b8ff" stroke="#63b8ff" points="421.03,-189.86 412.14,-184.09 415.49,-194.14 421.03,-189.86"/>
</a>
</g>
</g>
<!-- Node21 -->
<g id="Node000021" class="node">
<title>Node21</title>
<g id="a_Node000021"><a xlink:href="errchk_8h.html" target="_top" xlink:title="Brief info.">
<polygon fill="white" stroke="#666666" points="616.5,-184 560.5,-184 560.5,-165 616.5,-165 616.5,-184"/>
<text text-anchor="middle" x="588.5" y="-172" font-family="Helvetica,sans-Serif" font-size="10.00">errchk.h</text>
</a>
</g>
</g>
<!-- Node1&#45;&gt;Node21 -->
<g id="edge29_Node000001_Node000021" class="edge">
<title>Node1&#45;&gt;Node21</title>
<g id="a_edge29_Node000001_Node000021"><a xlink:title=" ">
<path fill="none" stroke="#63b8ff" d="M469.31,-219.98C492.67,-211.27 529.2,-197.63 555.67,-187.75"/>
<polygon fill="#63b8ff" stroke="#63b8ff" points="557.13,-190.95 565.27,-184.17 554.68,-184.39 557.13,-190.95"/>
</a>
</g>
</g>
<!-- Node8 -->
<g id="Node000008" class="node">
<title>Node8</title>
<g id="a_Node000008"><a xlink:href="device__headers_8h.html" target="_top" xlink:title=" ">
<polygon fill="white" stroke="#666666" points="263.5,-74 161.5,-74 161.5,-55 263.5,-55 263.5,-74"/>
<text text-anchor="middle" x="212.5" y="-62" font-family="Helvetica,sans-Serif" font-size="10.00">device_headers.h</text>
</a>
</g>
</g>
<!-- Node7&#45;&gt;Node8 -->
<g id="edge7_Node000007_Node000008" class="edge">
<title>Node7&#45;&gt;Node8</title>
<g id="a_edge7_Node000007_Node000008"><a xlink:title=" ">
<path fill="none" stroke="#63b8ff" d="M205.94,-164.9C201.33,-152.71 194.27,-129.71 197.5,-110 198.97,-101.05 201.99,-91.47 204.94,-83.51"/>
<polygon fill="#63b8ff" stroke="#63b8ff" points="208.22,-84.74 208.64,-74.15 201.71,-82.16 208.22,-84.74"/>
</a>
</g>
</g>
<!-- Node7&#45;&gt;Node11 -->
<g id="edge10_Node000007_Node000011" class="edge">
<title>Node7&#45;&gt;Node11</title>
<g id="a_edge10_Node000007_Node000011"><a xlink:title=" ">
<path fill="none" stroke="#63b8ff" d="M236.21,-166.24C268.95,-157.34 324.82,-142.16 363.13,-131.74"/>
<polygon fill="#63b8ff" stroke="#63b8ff" points="364.23,-135.07 372.96,-129.07 362.39,-128.32 364.23,-135.07"/>
</a>
</g>
</g>
<!-- Node9 -->
<g id="Node000009" class="node">
<title>Node9</title>
<g id="a_Node000009"><a xlink:title=" ">
<polygon fill="#e0e0e0" stroke="#999999" points="213,-19 100,-19 100,0 213,0 213,-19"/>
<text text-anchor="middle" x="156.5" y="-7" font-family="Helvetica,sans-Serif" font-size="10.00">cuda_runtime_api.h</text>
</a>
</g>
</g>
<!-- Node8&#45;&gt;Node9 -->
<g id="edge8_Node000008_Node000009" class="edge">
<title>Node8&#45;&gt;Node9</title>
<g id="a_edge8_Node000008_Node000009"><a xlink:title=" ">
<path fill="none" stroke="#63b8ff" d="M203.5,-54.98C195.31,-47.23 182.99,-35.58 173.03,-26.14"/>
<polygon fill="#63b8ff" stroke="#63b8ff" points="175.33,-23.5 165.66,-19.17 170.52,-28.59 175.33,-23.5"/>
</a>
</g>
</g>
<!-- Node10 -->
<g id="Node000010" class="node">
<title>Node10</title>
<g id="a_Node000010"><a xlink:title=" ">
<polygon fill="#e0e0e0" stroke="#999999" points="307.5,-19 231.5,-19 231.5,0 307.5,0 307.5,-19"/>
<text text-anchor="middle" x="269.5" y="-7" font-family="Helvetica,sans-Serif" font-size="10.00">cuda_fp16.h</text>
</a>
</g>
</g>
<!-- Node8&#45;&gt;Node10 -->
<g id="edge9_Node000008_Node000010" class="edge">
<title>Node8&#45;&gt;Node10</title>
<g id="a_edge9_Node000008_Node000010"><a xlink:title=" ">
<path fill="none" stroke="#63b8ff" d="M221.66,-54.98C230,-47.23 242.53,-35.58 252.68,-26.14"/>
<polygon fill="#63b8ff" stroke="#63b8ff" points="255.24,-28.54 260.18,-19.17 250.47,-23.42 255.24,-28.54"/>
</a>
</g>
</g>
<!-- Node11&#45;&gt;Node8 -->
<g id="edge15_Node000011_Node000008" class="edge">
<title>Node11&#45;&gt;Node8</title>
<g id="a_edge15_Node000011_Node000008"><a xlink:title=" ">
<path fill="none" stroke="#63b8ff" d="M373.65,-109.98C341,-100.97 289.3,-86.7 253.3,-76.76"/>
<polygon fill="#63b8ff" stroke="#63b8ff" points="254.16,-73.37 243.59,-74.08 252.3,-80.12 254.16,-73.37"/>
</a>
</g>
</g>
<!-- Node12 -->
<g id="Node000012" class="node">
<title>Node12</title>
<g id="a_Node000012"><a xlink:title=" ">
<polygon fill="#e0e0e0" stroke="#999999" points="644.5,-74 582.5,-74 582.5,-55 644.5,-55 644.5,-74"/>
<text text-anchor="middle" x="613.5" y="-62" font-family="Helvetica,sans-Serif" font-size="10.00">stdbool.h</text>
</a>
</g>
</g>
<!-- Node11&#45;&gt;Node12 -->
<g id="edge11_Node000011_Node000012" class="edge">
<title>Node11&#45;&gt;Node12</title>
<g id="a_edge11_Node000011_Node000012"><a xlink:title=" ">
<path fill="none" stroke="#63b8ff" d="M438.08,-109.98C474.7,-100.7 533.32,-85.83 572.6,-75.87"/>
<polygon fill="#63b8ff" stroke="#63b8ff" points="573.56,-79.24 582.39,-73.39 571.84,-72.45 573.56,-79.24"/>
</a>
</g>
</g>
<!-- Node13 -->
<g id="Node000013" class="node">
<title>Node13</title>
<g id="a_Node000013"><a xlink:title=" ">
<polygon fill="#e0e0e0" stroke="#999999" points="718.5,-74 662.5,-74 662.5,-55 718.5,-55 718.5,-74"/>
<text text-anchor="middle" x="690.5" y="-62" font-family="Helvetica,sans-Serif" font-size="10.00">stddef.h</text>
</a>
</g>
</g>
<!-- Node11&#45;&gt;Node13 -->
<g id="edge12_Node000011_Node000013" class="edge">
<title>Node11&#45;&gt;Node13</title>
<g id="a_edge12_Node000011_Node000013"><a xlink:title=" ">
<path fill="none" stroke="#63b8ff" d="M455.19,-110.19C503.44,-102.11 578.31,-89.14 652.29,-74.17"/>
<polygon fill="#63b8ff" stroke="#63b8ff" points="653.15,-77.57 662.25,-72.14 651.75,-70.71 653.15,-77.57"/>
</a>
</g>
</g>
<!-- Node14 -->
<g id="Node000014" class="node">
<title>Node14</title>
<g id="a_Node000014"><a xlink:href="acreal_8h.html" target="_top" xlink:title=" ">
<polygon fill="white" stroke="#666666" points="337.5,-74 281.5,-74 281.5,-55 337.5,-55 337.5,-74"/>
<text text-anchor="middle" x="309.5" y="-62" font-family="Helvetica,sans-Serif" font-size="10.00">acreal.h</text>
</a>
</g>
</g>
<!-- Node11&#45;&gt;Node14 -->
<g id="edge13_Node000011_Node000014" class="edge">
<title>Node11&#45;&gt;Node14</title>
<g id="a_edge13_Node000011_Node000014"><a xlink:title=" ">
<path fill="none" stroke="#63b8ff" d="M389.24,-109.98C374.37,-101.69 351.52,-88.94 334.08,-79.22"/>
<polygon fill="#63b8ff" stroke="#63b8ff" points="335.48,-75.99 325.04,-74.17 332.07,-82.1 335.48,-75.99"/>
</a>
</g>
</g>
<!-- Node15 -->
<g id="Node000015" class="node">
<title>Node15</title>
<g id="a_Node000015"><a xlink:title=" ">
<polygon fill="#e0e0e0" stroke="#999999" points="564,-74 469,-74 469,-55 564,-55 564,-74"/>
<text text-anchor="middle" x="516.5" y="-62" font-family="Helvetica,sans-Serif" font-size="10.00">builtin_enums.h</text>
</a>
</g>
</g>
<!-- Node11&#45;&gt;Node15 -->
<g id="edge14_Node000011_Node000015" class="edge">
<title>Node11&#45;&gt;Node15</title>
<g id="a_edge14_Node000011_Node000015"><a xlink:title=" ">
<path fill="none" stroke="#63b8ff" d="M422.49,-109.98C440.43,-101.5 468.22,-88.35 488.93,-78.54"/>
<polygon fill="#63b8ff" stroke="#63b8ff" points="490.64,-81.61 498.18,-74.17 487.64,-75.28 490.64,-81.61"/>
</a>
</g>
</g>
<!-- Node16 -->
<g id="Node000016" class="node">
<title>Node16</title>
<g id="a_Node000016"><a xlink:title=" ">
<polygon fill="#e0e0e0" stroke="#999999" points="451,-74 356,-74 356,-55 451,-55 451,-74"/>
<text text-anchor="middle" x="403.5" y="-62" font-family="Helvetica,sans-Serif" font-size="10.00">user_typedefs.h</text>
</a>
</g>
</g>
<!-- Node11&#45;&gt;Node16 -->
<g id="edge16_Node000011_Node000016" class="edge">
<title>Node11&#45;&gt;Node16</title>
<g id="a_edge16_Node000011_Node000016"><a xlink:title=" ">
<path fill="none" stroke="#63b8ff" d="M404.33,-109.75C404.2,-102.8 404.02,-92.85 403.85,-84.13"/>
<polygon fill="#63b8ff" stroke="#63b8ff" points="407.35,-84.02 403.66,-74.09 400.35,-84.15 407.35,-84.02"/>
</a>
</g>
</g>
<!-- Node17&#45;&gt;Node8 -->
<g id="edge19_Node000017_Node000008" class="edge">
<title>Node17&#45;&gt;Node8</title>
<g id="a_edge19_Node000017_Node000008"><a xlink:title=" ">
<path fill="none" stroke="#63b8ff" d="M286.87,-164.66C273.4,-146.69 242.61,-105.64 225.16,-82.38"/>
<polygon fill="#63b8ff" stroke="#63b8ff" points="227.79,-80.06 218.99,-74.16 222.19,-84.26 227.79,-80.06"/>
</a>
</g>
</g>
<!-- Node17&#45;&gt;Node11 -->
<g id="edge20_Node000017_Node000011" class="edge">
<title>Node17&#45;&gt;Node11</title>
<g id="a_edge20_Node000017_Node000011"><a xlink:title=" ">
<path fill="none" stroke="#63b8ff" d="M311.33,-164.98C329.11,-156.5 356.65,-143.35 377.18,-133.54"/>
<polygon fill="#63b8ff" stroke="#63b8ff" points="378.83,-136.64 386.34,-129.17 375.81,-130.32 378.83,-136.64"/>
</a>
</g>
</g>
<!-- Node17&#45;&gt;Node14 -->
<g id="edge18_Node000017_Node000014" class="edge">
<title>Node17&#45;&gt;Node14</title>
<g id="a_edge18_Node000017_Node000014"><a xlink:title=" ">
<path fill="none" stroke="#63b8ff" d="M294.81,-164.66C297.4,-147.17 303.23,-107.8 306.72,-84.27"/>
<polygon fill="#63b8ff" stroke="#63b8ff" points="310.21,-84.56 308.22,-74.16 303.29,-83.54 310.21,-84.56"/>
</a>
</g>
</g>
<!-- Node19&#45;&gt;Node8 -->
<g id="edge23_Node000019_Node000008" class="edge">
<title>Node19&#45;&gt;Node8</title>
<g id="a_edge23_Node000019_Node000008"><a xlink:title=" ">
<path fill="none" stroke="#63b8ff" d="M94.99,-109.98C118.02,-101.27 154.04,-87.63 180.13,-77.75"/>
<polygon fill="#63b8ff" stroke="#63b8ff" points="181.48,-80.98 189.6,-74.17 179.01,-74.44 181.48,-80.98"/>
</a>
</g>
</g>
<!-- Node20&#45;&gt;Node8 -->
<g id="edge27_Node000020_Node000008" class="edge">
<title>Node20&#45;&gt;Node8</title>
<g id="a_edge27_Node000020_Node000008"><a xlink:title=" ">
<path fill="none" stroke="#63b8ff" d="M390.03,-164.84C356.49,-146.08 276.87,-101.52 236.64,-79.01"/>
<polygon fill="#63b8ff" stroke="#63b8ff" points="238.21,-75.88 227.77,-74.05 234.79,-81.98 238.21,-75.88"/>
</a>
</g>
</g>
<!-- Node20&#45;&gt;Node11 -->
<g id="edge28_Node000020_Node000011" class="edge">
<title>Node20&#45;&gt;Node11</title>
<g id="a_edge28_Node000020_Node000011"><a xlink:title=" ">
<path fill="none" stroke="#63b8ff" d="M405.33,-164.75C405.2,-157.8 405.02,-147.85 404.85,-139.13"/>
<polygon fill="#63b8ff" stroke="#63b8ff" points="408.35,-139.02 404.66,-129.09 401.35,-139.15 408.35,-139.02"/>
</a>
</g>
</g>
<!-- Node20&#45;&gt;Node13 -->
<g id="edge25_Node000020_Node000013" class="edge">
<title>Node20&#45;&gt;Node13</title>
<g id="a_edge25_Node000020_Node000013"><a xlink:title=" ">
<path fill="none" stroke="#63b8ff" d="M415.85,-164.95C432.87,-151.32 468.29,-124.71 502.5,-110 505.98,-108.5 598.36,-86.91 652.3,-74.37"/>
<polygon fill="#63b8ff" stroke="#63b8ff" points="653.27,-77.74 662.22,-72.06 651.69,-70.92 653.27,-77.74"/>
</a>
</g>
</g>
<!-- Node20&#45;&gt;Node14 -->
<g id="edge26_Node000020_Node000014" class="edge">
<title>Node20&#45;&gt;Node14</title>
<g id="a_edge26_Node000020_Node000014"><a xlink:title=" ">
<path fill="none" stroke="#63b8ff" d="M390.26,-164.99C376.96,-157.01 357.76,-144.05 344.5,-129 332.55,-115.43 322.99,-97.11 316.91,-83.63"/>
<polygon fill="#63b8ff" stroke="#63b8ff" points="319.95,-81.85 312.79,-74.04 313.52,-84.61 319.95,-81.85"/>
</a>
</g>
</g>
<!-- Node21&#45;&gt;Node4 -->
<g id="edge33_Node000021_Node000004" class="edge">
<title>Node21&#45;&gt;Node4</title>
<g id="a_edge33_Node000021_Node000004"><a xlink:title=" ">
<path fill="none" stroke="#63b8ff" d="M579.91,-164.75C572.34,-157.03 561.12,-145.6 551.99,-136.28"/>
<polygon fill="#63b8ff" stroke="#63b8ff" points="554.43,-133.78 544.93,-129.09 549.43,-138.68 554.43,-133.78"/>
</a>
</g>
</g>
<!-- Node21&#45;&gt;Node8 -->
<g id="edge36_Node000021_Node000008" class="edge">
<title>Node21&#45;&gt;Node8</title>
<g id="a_edge36_Node000021_Node000008"><a xlink:title=" ">
<path fill="none" stroke="#63b8ff" d="M588.83,-164.96C588.86,-151.1 586.7,-123.85 570.5,-110 521.98,-68.51 353.96,-81.41 273.8,-73.94"/>
<polygon fill="#63b8ff" stroke="#63b8ff" points="273.88,-70.43 263.55,-72.81 273.11,-77.39 273.88,-70.43"/>
</a>
</g>
</g>
<!-- Node21&#45;&gt;Node11 -->
<g id="edge37_Node000021_Node000011" class="edge">
<title>Node21&#45;&gt;Node11</title>
<g id="a_edge37_Node000021_Node000011"><a xlink:title=" ">
<path fill="none" stroke="#63b8ff" d="M560.15,-165.33C529.05,-156.38 478.91,-141.93 443.97,-131.87"/>
<polygon fill="#63b8ff" stroke="#63b8ff" points="444.68,-128.43 434.1,-129.03 442.74,-135.16 444.68,-128.43"/>
</a>
</g>
</g>
<!-- Node21&#45;&gt;Node12 -->
<g id="edge30_Node000021_Node000012" class="edge">
<title>Node21&#45;&gt;Node12</title>
<g id="a_edge30_Node000021_Node000012"><a xlink:title=" ">
<path fill="none" stroke="#63b8ff" d="M591.93,-164.76C595.31,-155.88 600.39,-141.67 603.5,-129 607.12,-114.23 609.72,-97.19 611.36,-84.48"/>
<polygon fill="#63b8ff" stroke="#63b8ff" points="614.88,-84.57 612.6,-74.22 607.93,-83.73 614.88,-84.57"/>
</a>
</g>
</g>
<!-- Node21&#45;&gt;Node13 -->
<g id="edge31_Node000021_Node000013" class="edge">
<title>Node21&#45;&gt;Node13</title>
<g id="a_edge31_Node000021_Node000013"><a xlink:title=" ">
<path fill="none" stroke="#63b8ff" d="M616.72,-167.18C620.02,-166.44 623.33,-165.7 626.5,-165 698.92,-148.9 743.04,-186.84 789.5,-129 810.36,-103.03 764.42,-84.37 728.35,-74.25"/>
<polygon fill="#63b8ff" stroke="#63b8ff" points="729.07,-70.82 718.5,-71.62 727.26,-77.58 729.07,-70.82"/>
</a>
</g>
</g>
<!-- Node22 -->
<g id="Node000022" class="node">
<title>Node22</title>
<g id="a_Node000022"><a xlink:title=" ">
<polygon fill="#e0e0e0" stroke="#999999" points="709,-129 656,-129 656,-110 709,-110 709,-129"/>
<text text-anchor="middle" x="682.5" y="-117" font-family="Helvetica,sans-Serif" font-size="10.00">stdint.h</text>
</a>
</g>
</g>
<!-- Node21&#45;&gt;Node22 -->
<g id="edge32_Node000021_Node000022" class="edge">
<title>Node21&#45;&gt;Node22</title>
<g id="a_edge32_Node000021_Node000022"><a xlink:title=" ">
<path fill="none" stroke="#63b8ff" d="M603.6,-164.98C618.32,-156.69 640.92,-143.94 658.17,-134.22"/>
<polygon fill="#63b8ff" stroke="#63b8ff" points="660.13,-137.13 667.12,-129.17 656.69,-131.03 660.13,-137.13"/>
</a>
</g>
</g>
<!-- Node23 -->
<g id="Node000023" class="node">
<title>Node23</title>
<g id="a_Node000023"><a xlink:title=" ">
<polygon fill="#e0e0e0" stroke="#999999" points="780,-129 727,-129 727,-110 780,-110 780,-129"/>
<text text-anchor="middle" x="753.5" y="-117" font-family="Helvetica,sans-Serif" font-size="10.00">stdlib.h</text>
</a>
</g>
</g>
<!-- Node21&#45;&gt;Node23 -->
<g id="edge34_Node000021_Node000023" class="edge">
<title>Node21&#45;&gt;Node23</title>
<g id="a_edge34_Node000021_Node000023"><a xlink:title=" ">
<path fill="none" stroke="#63b8ff" d="M615.01,-164.98C642.71,-156.09 686.36,-142.07 717.24,-132.15"/>
<polygon fill="#63b8ff" stroke="#63b8ff" points="718.33,-135.47 726.78,-129.08 716.19,-128.81 718.33,-135.47"/>
</a>
</g>
</g>
<!-- Node24 -->
<g id="Node000024" class="node">
<title>Node24</title>
<g id="a_Node000024"><a xlink:title=" ">
<polygon fill="#e0e0e0" stroke="#999999" points="884.5,-129 836.5,-129 836.5,-110 884.5,-110 884.5,-129"/>
<text text-anchor="middle" x="860.5" y="-117" font-family="Helvetica,sans-Serif" font-size="10.00">time.h</text>
</a>
</g>
</g>
<!-- Node21&#45;&gt;Node24 -->
<g id="edge35_Node000021_Node000024" class="edge">
<title>Node21&#45;&gt;Node24</title>
<g id="a_edge35_Node000021_Node000024"><a xlink:title=" ">
<path fill="none" stroke="#63b8ff" d="M616.7,-167.07C620,-166.35 623.32,-165.65 626.5,-165 713.29,-147.33 735.71,-146.67 822.5,-129 823.77,-128.74 825.06,-128.48 826.36,-128.2"/>
<polygon fill="#63b8ff" stroke="#63b8ff" points="827.37,-131.56 836.41,-126.04 825.89,-124.72 827.37,-131.56"/>
</a>
</g>
</g>
</g>
</svg>

<g id="navigator" transform="translate(0 0)" fill="#404254">
  <rect fill="#f2f5e9" fill-opacity="0.5" stroke="#606060" stroke-width=".5" x="0" y="0" width="60" height="60"/>
  <use id="zoomplus" xlink:href="#zoomPlus" x="17" y="9" onmousedown="handleZoom(evt,'in')"/>
  <use id="zoomminus" xlink:href="#zoomMin" x="42" y="9" onmousedown="handleZoom(evt,'out')"/>
  <use id="reset" xlink:href="#resetDef" x="30" y="36" onmousedown="handleReset()"/>
   <use id="arrowup" xlink:href="#arrowUp" x="0" y="0" onmousedown="handlePan(0,-1)"/>
  <use id="arrowright" xlink:href="#arrowRight" x="0" y="0" onmousedown="handlePan(1,0)"/>
  <use id="arrowdown" xlink:href="#arrowDown" x="0" y="0" onmousedown="handlePan(0,1)"/>
  <use id="arrowleft" xlink:href="#arrowLeft" x="0" y="0" onmousedown="handlePan(-1,0)"/>
</g>
<svg viewBox="0 0 15 15" width="100%" height="30px" preserveAspectRatio="xMaxYMin meet">
 <g id="arrow_out" transform="scale(0.3 0.3)">
  <a xlink:href="heffte_8cc__incl_org.svg" target="_base">
   <rect id="button" ry="5" rx="5" y="6" x="6" height="38" width="38"
        fill="#f2f5e9" fill-opacity="0.5" stroke="#606060" stroke-width="1.0"/>
   <path id="arrow"
     d="M 11.500037,31.436501 C 11.940474,20.09759 22.043105,11.32322 32.158766,21.979434 L 37.068811,17.246167 C 37.068811,17.246167 37.088388,32 37.088388,32 L 22.160133,31.978069 C 22.160133,31.978069 26.997745,27.140456 26.997745,27.140456 C 18.528582,18.264221 13.291696,25.230495 11.500037,31.436501 z"
     style="fill:#404040;"/>
  </a>
 </g>
</svg>

<style type='text/css'>
<![CDATA[
[data-mouse-over-selected='false'] { opacity: 0.7; }
[data-mouse-over-selected='true']  { opacity: 1.0; }
]]>
</style>
<script type="application/ecmascript"><![CDATA[
document.addEventListener('DOMContentLoaded', (event) => {
  highlightEdges();
  highlightAdjacentNodes();
});
]]></script>
</svg>
