<?xml version="1.0" encoding="UTF-8" standalone="no"?>
<!DOCTYPE svg PUBLIC "-//W3C//DTD SVG 1.1//EN"
 "http://www.w3.org/Graphics/SVG/1.1/DTD/svg11.dtd">
<!-- Generated by graphviz version 2.43.0 (0)
 -->
<!-- Title: src/utils/helical_forcing.cc Pages: 1 -->
<!--zoomable 313 -->

<svg id="main" version="1.1" xmlns="http://www.w3.org/2000/svg" xmlns:xlink="http://www.w3.org/1999/xlink" xml:space="preserve" onload="init(evt)">
<style type="text/css"><![CDATA[
.node, .edge {opacity: 0.7;}
.node.selected, .edge.selected {opacity: 1;}
.edge:hover path { stroke: red; }
.edge:hover polygon { stroke: red; fill: red; }
]]></style>

<defs>
  <circle id="rim" cx="0" cy="0" r="7"/>
  <circle id="rim2" cx="0" cy="0" r="3.5"/>
  <g id="zoomPlus">
    <use xlink:href="#rim" fill="#404040"><set attributeName="fill" to="#808080" begin="zoomplus.mouseover" end="zoomplus.mouseout"/></use>
    <path d="M-4,0h8M0,-4v8" fill="none" stroke="white" stroke-width="1.5" pointer-events="none"/>
  </g>
  <g id="zoomMin">
    <use xlink:href="#rim" fill="#404040"><set attributeName="fill" to="#808080" begin="zoomminus.mouseover" end="zoomminus.mouseout"/></use>
    <path d="M-4,0h8" fill="none" stroke="white" stroke-width="1.5" pointer-events="none"/>
  </g>
  <g id="arrowUp" transform="translate(30 24)">
    <use xlink:href="#rim"/>
    <path pointer-events="none" fill="none" stroke="white" stroke-width="1.5" d="M0,-3.0v7 M-2.5,-0.5L0,-3.0L2.5,-0.5"/>
  </g>
  <g id="arrowRight" transform="rotate(90) translate(36 -43)">
    <use xlink:href="#rim"/>
    <path pointer-events="none" fill="none" stroke="white" stroke-width="1.5" d="M0,-3.0v7 M-2.5,-0.5L0,-3.0L2.5,-0.5"/>
  </g>
  <g id="arrowDown" transform="rotate(180) translate(-30 -48)">
    <use xlink:href="#rim"/>
    <path pointer-events="none" fill="none" stroke="white" stroke-width="1.5" d="M0,-3.0v7 M-2.5,-0.5L0,-3.0L2.5,-0.5"/>
  </g>
  <g id="arrowLeft" transform="rotate(270) translate(-36 17)">
    <use xlink:href="#rim"/>
    <path pointer-events="none" fill="none" stroke="white" stroke-width="1.5" d="M0,-3.0v7 M-2.5,-0.5L0,-3.0L2.5,-0.5"/>
  </g>
  <g id="resetDef">
    <use xlink:href="#rim2" fill="#404040"><set attributeName="fill" to="#808080" begin="reset.mouseover" end="reset.mouseout"/></use>
  </g>
</defs>
<script type="application/ecmascript">
var viewWidth = 3043;
var viewHeight = 313;
var sectionId = 'dynsection-0';
</script>
<script type="application/ecmascript" xlink:href="svg.min.js"/>
<svg id="graph" class="graph">
<g id="viewport">
<title>src/utils/helical_forcing.cc</title>
<!-- Node1 -->
<g id="Node000001" class="node">
<title>Node1</title>
<g id="a_Node000001"><a xlink:title=" ">
<polygon fill="#999999" stroke="#666666" points="1885.5,-305 1742.5,-305 1742.5,-286 1885.5,-286 1885.5,-305"/>
<text text-anchor="middle" x="1814" y="-293" font-family="Helvetica,sans-Serif" font-size="10.00">src/utils/helical_forcing.cc</text>
</a>
</g>
</g>
<!-- Node2 -->
<g id="Node000002" class="node">
<title>Node2</title>
<g id="a_Node000002"><a xlink:href="astaroth__forcing_8h.html" target="_top" xlink:title=" ">
<polygon fill="white" stroke="#666666" points="1643.5,-250 1538.5,-250 1538.5,-231 1643.5,-231 1643.5,-250"/>
<text text-anchor="middle" x="1591" y="-238" font-family="Helvetica,sans-Serif" font-size="10.00">astaroth_forcing.h</text>
</a>
</g>
</g>
<!-- Node1&#45;&gt;Node2 -->
<g id="edge1_Node000001_Node000002" class="edge">
<title>Node1&#45;&gt;Node2</title>
<g id="a_edge1_Node000001_Node000002"><a xlink:title=" ">
<path fill="none" stroke="#63b8ff" d="M1778.17,-285.98C1739.84,-276.87 1678.92,-262.4 1637.05,-252.45"/>
<polygon fill="#63b8ff" stroke="#63b8ff" points="1637.65,-248.99 1627.11,-250.08 1636.03,-255.8 1637.65,-248.99"/>
</a>
</g>
</g>
<!-- Node18 -->
<g id="Node000018" class="node">
<title>Node18</title>
<g id="a_Node000018"><a xlink:href="errchk_8h.html" target="_top" xlink:title="Brief info.">
<polygon fill="white" stroke="#666666" points="157,-134.5 101,-134.5 101,-115.5 157,-115.5 157,-134.5"/>
<text text-anchor="middle" x="129" y="-122.5" font-family="Helvetica,sans-Serif" font-size="10.00">errchk.h</text>
</a>
</g>
</g>
<!-- Node1&#45;&gt;Node18 -->
<g id="edge58_Node000001_Node000018" class="edge">
<title>Node1&#45;&gt;Node18</title>
<g id="a_edge58_Node000001_Node000018"><a xlink:title=" ">
<path fill="none" stroke="#63b8ff" d="M1742.23,-290.58C1514.65,-277.51 789.12,-231.06 195,-140 185.91,-138.61 176.2,-136.75 167.09,-134.85"/>
<polygon fill="#63b8ff" stroke="#63b8ff" points="167.65,-131.39 157.13,-132.71 166.17,-138.23 167.65,-131.39"/>
</a>
</g>
</g>
<!-- Node41 -->
<g id="Node000041" class="node">
<title>Node41</title>
<g id="a_Node000041"><a xlink:title=" ">
<polygon fill="#e0e0e0" stroke="#999999" points="1730,-250 1688,-250 1688,-231 1730,-231 1730,-250"/>
<text text-anchor="middle" x="1709" y="-238" font-family="Helvetica,sans-Serif" font-size="10.00">array</text>
</a>
</g>
</g>
<!-- Node1&#45;&gt;Node41 -->
<g id="edge49_Node000001_Node000041" class="edge">
<title>Node1&#45;&gt;Node41</title>
<g id="a_edge49_Node000001_Node000041"><a xlink:title=" ">
<path fill="none" stroke="#63b8ff" d="M1797.13,-285.98C1780.39,-277.54 1754.5,-264.47 1735.11,-254.68"/>
<polygon fill="#63b8ff" stroke="#63b8ff" points="1736.68,-251.55 1726.18,-250.17 1733.53,-257.8 1736.68,-251.55"/>
</a>
</g>
</g>
<!-- Node42 -->
<g id="Node000042" class="node">
<title>Node42</title>
<g id="a_Node000042"><a xlink:title=" ">
<polygon fill="#e0e0e0" stroke="#999999" points="1807.5,-250 1748.5,-250 1748.5,-231 1807.5,-231 1807.5,-250"/>
<text text-anchor="middle" x="1778" y="-238" font-family="Helvetica,sans-Serif" font-size="10.00">complex</text>
</a>
</g>
</g>
<!-- Node1&#45;&gt;Node42 -->
<g id="edge50_Node000001_Node000042" class="edge">
<title>Node1&#45;&gt;Node42</title>
<g id="a_edge50_Node000001_Node000042"><a xlink:title=" ">
<path fill="none" stroke="#63b8ff" d="M1808.06,-285.75C1803.02,-278.34 1795.66,-267.5 1789.49,-258.41"/>
<polygon fill="#63b8ff" stroke="#63b8ff" points="1792.35,-256.39 1783.83,-250.09 1786.56,-260.33 1792.35,-256.39"/>
</a>
</g>
</g>
<!-- Node43 -->
<g id="Node000043" class="node">
<title>Node43</title>
<g id="a_Node000043"><a xlink:title=" ">
<polygon fill="#e0e0e0" stroke="#999999" points="1874.5,-250 1825.5,-250 1825.5,-231 1874.5,-231 1874.5,-250"/>
<text text-anchor="middle" x="1850" y="-238" font-family="Helvetica,sans-Serif" font-size="10.00">cstdlib</text>
</a>
</g>
</g>
<!-- Node1&#45;&gt;Node43 -->
<g id="edge51_Node000001_Node000043" class="edge">
<title>Node1&#45;&gt;Node43</title>
<g id="a_edge51_Node000001_Node000043"><a xlink:title=" ">
<path fill="none" stroke="#63b8ff" d="M1819.94,-285.75C1824.98,-278.34 1832.34,-267.5 1838.51,-258.41"/>
<polygon fill="#63b8ff" stroke="#63b8ff" points="1841.44,-260.33 1844.17,-250.09 1835.65,-256.39 1841.44,-260.33"/>
</a>
</g>
</g>
<!-- Node44 -->
<g id="Node000044" class="node">
<title>Node44</title>
<g id="a_Node000044"><a xlink:title=" ">
<polygon fill="#e0e0e0" stroke="#999999" points="1953,-250 1893,-250 1893,-231 1953,-231 1953,-250"/>
<text text-anchor="middle" x="1923" y="-238" font-family="Helvetica,sans-Serif" font-size="10.00">iostream</text>
</a>
</g>
</g>
<!-- Node1&#45;&gt;Node44 -->
<g id="edge52_Node000001_Node000044" class="edge">
<title>Node1&#45;&gt;Node44</title>
<g id="a_edge52_Node000001_Node000044"><a xlink:title=" ">
<path fill="none" stroke="#63b8ff" d="M1831.51,-285.98C1848.97,-277.5 1876.01,-264.35 1896.17,-254.54"/>
<polygon fill="#63b8ff" stroke="#63b8ff" points="1897.71,-257.69 1905.17,-250.17 1894.64,-251.4 1897.71,-257.69"/>
</a>
</g>
</g>
<!-- Node45 -->
<g id="Node000045" class="node">
<title>Node45</title>
<g id="a_Node000045"><a xlink:title=" ">
<polygon fill="#e0e0e0" stroke="#999999" points="2547,-195 2493,-195 2493,-176 2547,-176 2547,-195"/>
<text text-anchor="middle" x="2520" y="-183" font-family="Helvetica,sans-Serif" font-size="10.00">random</text>
</a>
</g>
</g>
<!-- Node1&#45;&gt;Node45 -->
<g id="edge53_Node000001_Node000045" class="edge">
<title>Node1&#45;&gt;Node45</title>
<g id="a_edge53_Node000001_Node000045"><a xlink:title=" ">
<path fill="none" stroke="#63b8ff" d="M1869.69,-285.98C2008.31,-264.78 2365.99,-210.06 2482.62,-192.22"/>
<polygon fill="#63b8ff" stroke="#63b8ff" points="2483.47,-195.63 2492.83,-190.66 2482.41,-188.71 2483.47,-195.63"/>
</a>
</g>
</g>
<!-- Node46 -->
<g id="Node000046" class="node">
<title>Node46</title>
<g id="a_Node000046"><a xlink:href="astaroth__random_8h.html" target="_top" xlink:title=" ">
<polygon fill="white" stroke="#666666" points="2733.5,-250 2624.5,-250 2624.5,-231 2733.5,-231 2733.5,-250"/>
<text text-anchor="middle" x="2679" y="-238" font-family="Helvetica,sans-Serif" font-size="10.00">astaroth_random.h</text>
</a>
</g>
</g>
<!-- Node1&#45;&gt;Node46 -->
<g id="edge54_Node000001_Node000046" class="edge">
<title>Node1&#45;&gt;Node46</title>
<g id="a_edge54_Node000001_Node000046"><a xlink:title=" ">
<path fill="none" stroke="#63b8ff" d="M1885.52,-290.12C2050.59,-280 2456.07,-255.16 2614.29,-245.46"/>
<polygon fill="#63b8ff" stroke="#63b8ff" points="2614.58,-248.95 2624.35,-244.85 2614.15,-241.97 2614.58,-248.95"/>
</a>
</g>
</g>
<!-- Node3 -->
<g id="Node000003" class="node">
<title>Node3</title>
<g id="a_Node000003"><a xlink:href="acc__runtime_8h.html" target="_top" xlink:title=" ">
<polygon fill="white" stroke="#666666" points="1531,-195 1445,-195 1445,-176 1531,-176 1531,-195"/>
<text text-anchor="middle" x="1488" y="-183" font-family="Helvetica,sans-Serif" font-size="10.00">acc_runtime.h</text>
</a>
</g>
</g>
<!-- Node2&#45;&gt;Node3 -->
<g id="edge2_Node000002_Node000003" class="edge">
<title>Node2&#45;&gt;Node3</title>
<g id="a_edge2_Node000002_Node000003"><a xlink:title=" ">
<path fill="none" stroke="#63b8ff" d="M1574.45,-230.98C1558.11,-222.57 1532.87,-209.59 1513.87,-199.81"/>
<polygon fill="#63b8ff" stroke="#63b8ff" points="1515.34,-196.63 1504.85,-195.17 1512.14,-202.86 1515.34,-196.63"/>
</a>
</g>
</g>
<!-- Node4 -->
<g id="Node000004" class="node">
<title>Node4</title>
<g id="a_Node000004"><a xlink:title=" ">
<polygon fill="#e0e0e0" stroke="#999999" points="50,-74 0,-74 0,-55 50,-55 50,-74"/>
<text text-anchor="middle" x="25" y="-62" font-family="Helvetica,sans-Serif" font-size="10.00">stdio.h</text>
</a>
</g>
</g>
<!-- Node3&#45;&gt;Node4 -->
<g id="edge3_Node000003_Node000004" class="edge">
<title>Node3&#45;&gt;Node4</title>
<g id="a_edge3_Node000003_Node000004"><a xlink:title=" ">
<path fill="none" stroke="#63b8ff" d="M1444.93,-184.08C1216.52,-181.71 154.77,-169.18 92,-140 66.45,-128.12 46.4,-101.44 35.13,-83.45"/>
<polygon fill="#63b8ff" stroke="#63b8ff" points="37.92,-81.3 29.79,-74.5 31.91,-84.88 37.92,-81.3"/>
</a>
</g>
</g>
<!-- Node5 -->
<g id="Node000005" class="node">
<title>Node5</title>
<g id="a_Node000005"><a xlink:title=" ">
<polygon fill="#e0e0e0" stroke="#999999" points="306,-74 244,-74 244,-55 306,-55 306,-74"/>
<text text-anchor="middle" x="275" y="-62" font-family="Helvetica,sans-Serif" font-size="10.00">stdbool.h</text>
</a>
</g>
</g>
<!-- Node3&#45;&gt;Node5 -->
<g id="edge4_Node000003_Node000005" class="edge">
<title>Node3&#45;&gt;Node5</title>
<g id="a_edge4_Node000003_Node000005"><a xlink:title=" ">
<path fill="none" stroke="#63b8ff" d="M1444.99,-183.82C1224.03,-180.24 226.05,-162.82 204,-140 194.74,-130.41 197.54,-121.67 204,-110 211.84,-95.83 226.29,-85.57 240.11,-78.5"/>
<polygon fill="#63b8ff" stroke="#63b8ff" points="241.92,-81.52 249.49,-74.1 238.95,-75.18 241.92,-81.52"/>
</a>
</g>
</g>
<!-- Node6 -->
<g id="Node000006" class="node">
<title>Node6</title>
<g id="a_Node000006"><a xlink:href="device__headers_8h.html" target="_top" xlink:title=" ">
<polygon fill="white" stroke="#666666" points="2362,-74 2260,-74 2260,-55 2362,-55 2362,-74"/>
<text text-anchor="middle" x="2311" y="-62" font-family="Helvetica,sans-Serif" font-size="10.00">device_headers.h</text>
</a>
</g>
</g>
<!-- Node3&#45;&gt;Node6 -->
<g id="edge5_Node000003_Node000006" class="edge">
<title>Node3&#45;&gt;Node6</title>
<g id="a_edge5_Node000003_Node000006"><a xlink:title=" ">
<path fill="none" stroke="#63b8ff" d="M1531.03,-184.44C1732.22,-183.96 2571.96,-179.57 2610,-140 2619.24,-130.39 2618.71,-120.1 2610,-110 2608.06,-107.75 2459.26,-86.42 2372.34,-74.13"/>
<polygon fill="#63b8ff" stroke="#63b8ff" points="2372.71,-70.64 2362.32,-72.71 2371.73,-77.57 2372.71,-70.64"/>
</a>
</g>
</g>
<!-- Node9 -->
<g id="Node000009" class="node">
<title>Node9</title>
<g id="a_Node000009"><a xlink:title=" ">
<polygon fill="#e0e0e0" stroke="#999999" points="2594.5,-74 2499.5,-74 2499.5,-55 2594.5,-55 2594.5,-74"/>
<text text-anchor="middle" x="2547" y="-62" font-family="Helvetica,sans-Serif" font-size="10.00">builtin_enums.h</text>
</a>
</g>
</g>
<!-- Node3&#45;&gt;Node9 -->
<g id="edge8_Node000003_Node000009" class="edge">
<title>Node3&#45;&gt;Node9</title>
<g id="a_edge8_Node000003_Node000009"><a xlink:title=" ">
<path fill="none" stroke="#63b8ff" d="M1531,-184.47C1734.02,-184.11 2588.33,-180.21 2627,-140 2636.24,-130.39 2633.76,-121.49 2627,-110 2618.26,-95.14 2602.56,-84.88 2587.37,-77.99"/>
<polygon fill="#63b8ff" stroke="#63b8ff" points="2588.62,-74.72 2578.05,-74.13 2585.94,-81.19 2588.62,-74.72"/>
</a>
</g>
</g>
<!-- Node10 -->
<g id="Node000010" class="node">
<title>Node10</title>
<g id="a_Node000010"><a xlink:href="datatypes_8h.html" target="_top" xlink:title=" ">
<polygon fill="white" stroke="#666666" points="2807,-134.5 2733,-134.5 2733,-115.5 2807,-115.5 2807,-134.5"/>
<text text-anchor="middle" x="2770" y="-122.5" font-family="Helvetica,sans-Serif" font-size="10.00">datatypes.h</text>
</a>
</g>
</g>
<!-- Node3&#45;&gt;Node10 -->
<g id="edge9_Node000003_Node000010" class="edge">
<title>Node3&#45;&gt;Node10</title>
<g id="a_edge9_Node000003_Node000010"><a xlink:title=" ">
<path fill="none" stroke="#63b8ff" d="M1531.19,-184.74C1686.78,-185.2 2233.08,-183.43 2681,-140 2694.65,-138.68 2709.38,-136.62 2722.86,-134.48"/>
<polygon fill="#63b8ff" stroke="#63b8ff" points="2723.58,-137.91 2732.89,-132.85 2722.45,-131 2723.58,-137.91"/>
</a>
</g>
</g>
<!-- Node3&#45;&gt;Node18 -->
<g id="edge21_Node000003_Node000018" class="edge">
<title>Node3&#45;&gt;Node18</title>
<g id="a_edge21_Node000003_Node000018"><a xlink:title=" ">
<path fill="none" stroke="#63b8ff" d="M1445,-183.78C1232.38,-180.13 298.57,-162.92 171,-140 167.57,-139.38 164.03,-138.55 160.54,-137.58"/>
<polygon fill="#63b8ff" stroke="#63b8ff" points="161.51,-134.22 150.92,-134.63 159.45,-140.91 161.51,-134.22"/>
</a>
</g>
</g>
<!-- Node22 -->
<g id="Node000022" class="node">
<title>Node22</title>
<g id="a_Node000022"><a xlink:title=" ">
<polygon fill="#e0e0e0" stroke="#999999" points="308.5,-134.5 213.5,-134.5 213.5,-115.5 308.5,-115.5 308.5,-134.5"/>
<text text-anchor="middle" x="261" y="-122.5" font-family="Helvetica,sans-Serif" font-size="10.00">user_defines.inc</text>
</a>
</g>
</g>
<!-- Node3&#45;&gt;Node22 -->
<g id="edge30_Node000003_Node000022" class="edge">
<title>Node3&#45;&gt;Node22</title>
<g id="a_edge30_Node000003_Node000022"><a xlink:title=" ">
<path fill="none" stroke="#63b8ff" d="M1444.95,-184.03C1261.24,-181.85 542.07,-171.45 318,-140 312.45,-139.22 306.65,-138.13 300.97,-136.9"/>
<polygon fill="#63b8ff" stroke="#63b8ff" points="301.48,-133.42 290.95,-134.56 299.9,-140.24 301.48,-133.42"/>
</a>
</g>
</g>
<!-- Node23 -->
<g id="Node000023" class="node">
<title>Node23</title>
<g id="a_Node000023"><a xlink:title=" ">
<polygon fill="#e0e0e0" stroke="#999999" points="421,-134.5 327,-134.5 327,-115.5 421,-115.5 421,-134.5"/>
<text text-anchor="middle" x="374" y="-122.5" font-family="Helvetica,sans-Serif" font-size="10.00">profiles_info.inc</text>
</a>
</g>
</g>
<!-- Node3&#45;&gt;Node23 -->
<g id="edge31_Node000003_Node000023" class="edge">
<title>Node3&#45;&gt;Node23</title>
<g id="a_edge31_Node000003_Node000023"><a xlink:title=" ">
<path fill="none" stroke="#63b8ff" d="M1444.77,-183.85C1272,-181.08 630.83,-169.02 430,-140 424.54,-139.21 418.85,-138.12 413.27,-136.88"/>
<polygon fill="#63b8ff" stroke="#63b8ff" points="413.96,-133.45 403.42,-134.54 412.34,-140.26 413.96,-133.45"/>
</a>
</g>
</g>
<!-- Node24 -->
<g id="Node000024" class="node">
<title>Node24</title>
<g id="a_Node000024"><a xlink:title=" ">
<polygon fill="#e0e0e0" stroke="#999999" points="586.5,-134.5 439.5,-134.5 439.5,-115.5 586.5,-115.5 586.5,-134.5"/>
<text text-anchor="middle" x="513" y="-122.5" font-family="Helvetica,sans-Serif" font-size="10.00">user_built&#45;in_constants.inc</text>
</a>
</g>
</g>
<!-- Node3&#45;&gt;Node24 -->
<g id="edge32_Node000003_Node000024" class="edge">
<title>Node3&#45;&gt;Node24</title>
<g id="a_edge32_Node000003_Node000024"><a xlink:title=" ">
<path fill="none" stroke="#63b8ff" d="M1444.64,-184.17C1315.17,-182.79 920.18,-175.73 595,-140 585.93,-139 576.35,-137.65 567.06,-136.17"/>
<polygon fill="#63b8ff" stroke="#63b8ff" points="567.56,-132.7 557.12,-134.53 566.42,-139.61 567.56,-132.7"/>
</a>
</g>
</g>
<!-- Node25 -->
<g id="Node000025" class="node">
<title>Node25</title>
<g id="a_Node000025"><a xlink:href="func__attributes_8h.html" target="_top" xlink:title=" ">
<polygon fill="white" stroke="#666666" points="703.5,-134.5 604.5,-134.5 604.5,-115.5 703.5,-115.5 703.5,-134.5"/>
<text text-anchor="middle" x="654" y="-122.5" font-family="Helvetica,sans-Serif" font-size="10.00">func_attributes.h</text>
</a>
</g>
</g>
<!-- Node3&#45;&gt;Node25 -->
<g id="edge33_Node000003_Node000025" class="edge">
<title>Node3&#45;&gt;Node25</title>
<g id="a_edge33_Node000003_Node000025"><a xlink:title=" ">
<path fill="none" stroke="#63b8ff" d="M1444.82,-184.73C1326.77,-184.78 988.99,-181.03 712,-140 706.43,-139.17 700.61,-138.07 694.89,-136.84"/>
<polygon fill="#63b8ff" stroke="#63b8ff" points="695.33,-133.35 684.8,-134.52 693.77,-140.17 695.33,-133.35"/>
</a>
</g>
</g>
<!-- Node26 -->
<g id="Node000026" class="node">
<title>Node26</title>
<g id="a_Node000026"><a xlink:title=" ">
<polygon fill="#e0e0e0" stroke="#999999" points="854.5,-134.5 721.5,-134.5 721.5,-115.5 854.5,-115.5 854.5,-134.5"/>
<text text-anchor="middle" x="788" y="-122.5" font-family="Helvetica,sans-Serif" font-size="10.00">user_input_typedefs.inc</text>
</a>
</g>
</g>
<!-- Node3&#45;&gt;Node26 -->
<g id="edge34_Node000003_Node000026" class="edge">
<title>Node3&#45;&gt;Node26</title>
<g id="a_edge34_Node000003_Node000026"><a xlink:title=" ">
<path fill="none" stroke="#63b8ff" d="M1444.64,-183.11C1342.78,-179.47 1080.41,-167.94 863,-140 855.24,-139 847.07,-137.72 839.09,-136.34"/>
<polygon fill="#63b8ff" stroke="#63b8ff" points="839.59,-132.87 829.13,-134.55 838.35,-139.76 839.59,-132.87"/>
</a>
</g>
</g>
<!-- Node27 -->
<g id="Node000027" class="node">
<title>Node27</title>
<g id="a_Node000027"><a xlink:title=" ">
<polygon fill="#e0e0e0" stroke="#999999" points="963.5,-134.5 872.5,-134.5 872.5,-115.5 963.5,-115.5 963.5,-134.5"/>
<text text-anchor="middle" x="918" y="-122.5" font-family="Helvetica,sans-Serif" font-size="10.00">output_decl.inc</text>
</a>
</g>
</g>
<!-- Node3&#45;&gt;Node27 -->
<g id="edge35_Node000003_Node000027" class="edge">
<title>Node3&#45;&gt;Node27</title>
<g id="a_edge35_Node000003_Node000027"><a xlink:title=" ">
<path fill="none" stroke="#63b8ff" d="M1444.88,-183.22C1355.89,-180.05 1145.7,-169.79 972,-140 967.18,-139.17 962.17,-138.13 957.22,-136.98"/>
<polygon fill="#63b8ff" stroke="#63b8ff" points="957.78,-133.52 947.23,-134.53 956.11,-140.32 957.78,-133.52"/>
</a>
</g>
</g>
<!-- Node28 -->
<g id="Node000028" class="node">
<title>Node28</title>
<g id="a_Node000028"><a xlink:title=" ">
<polygon fill="#e0e0e0" stroke="#999999" points="1106.5,-134.5 981.5,-134.5 981.5,-115.5 1106.5,-115.5 1106.5,-134.5"/>
<text text-anchor="middle" x="1044" y="-122.5" font-family="Helvetica,sans-Serif" font-size="10.00">comp_loaded_decl.inc</text>
</a>
</g>
</g>
<!-- Node3&#45;&gt;Node28 -->
<g id="edge36_Node000003_Node000028" class="edge">
<title>Node3&#45;&gt;Node28</title>
<g id="a_edge36_Node000003_Node000028"><a xlink:title=" ">
<path fill="none" stroke="#63b8ff" d="M1444.9,-180.38C1375.45,-173.5 1234.56,-158.59 1116,-140 1109.24,-138.94 1102.14,-137.71 1095.15,-136.42"/>
<polygon fill="#63b8ff" stroke="#63b8ff" points="1095.51,-132.93 1085.03,-134.51 1094.21,-139.81 1095.51,-132.93"/>
</a>
</g>
</g>
<!-- Node29 -->
<g id="Node000029" class="node">
<title>Node29</title>
<g id="a_Node000029"><a xlink:title=" ">
<polygon fill="#e0e0e0" stroke="#999999" points="1211,-134.5 1125,-134.5 1125,-115.5 1211,-115.5 1211,-134.5"/>
<text text-anchor="middle" x="1168" y="-122.5" font-family="Helvetica,sans-Serif" font-size="10.00">comp_decl.inc</text>
</a>
</g>
</g>
<!-- Node3&#45;&gt;Node29 -->
<g id="edge37_Node000003_Node000029" class="edge">
<title>Node3&#45;&gt;Node29</title>
<g id="a_edge37_Node000003_Node000029"><a xlink:title=" ">
<path fill="none" stroke="#63b8ff" d="M1444.58,-178.63C1391.37,-171.13 1298.59,-157.06 1220,-140 1215.89,-139.11 1211.62,-138.1 1207.37,-137.04"/>
<polygon fill="#63b8ff" stroke="#63b8ff" points="1208.13,-133.62 1197.58,-134.5 1206.38,-140.4 1208.13,-133.62"/>
</a>
</g>
</g>
<!-- Node30 -->
<g id="Node000030" class="node">
<title>Node30</title>
<g id="a_Node000030"><a xlink:title=" ">
<polygon fill="#e0e0e0" stroke="#999999" points="1345,-134.5 1229,-134.5 1229,-115.5 1345,-115.5 1345,-134.5"/>
<text text-anchor="middle" x="1287" y="-122.5" font-family="Helvetica,sans-Serif" font-size="10.00">info_loaded_decl.inc</text>
</a>
</g>
</g>
<!-- Node3&#45;&gt;Node30 -->
<g id="edge38_Node000003_Node000030" class="edge">
<title>Node3&#45;&gt;Node30</title>
<g id="a_edge38_Node000003_Node000030"><a xlink:title=" ">
<path fill="none" stroke="#63b8ff" d="M1458.77,-175.99C1423.79,-165.81 1365.07,-148.72 1326.18,-137.4"/>
<polygon fill="#63b8ff" stroke="#63b8ff" points="1326.84,-133.95 1316.26,-134.52 1324.89,-140.67 1326.84,-133.95"/>
</a>
</g>
</g>
<!-- Node31 -->
<g id="Node000031" class="node">
<title>Node31</title>
<g id="a_Node000031"><a xlink:title=" ">
<polygon fill="#e0e0e0" stroke="#999999" points="1511,-134.5 1363,-134.5 1363,-115.5 1511,-115.5 1511,-134.5"/>
<text text-anchor="middle" x="1437" y="-122.5" font-family="Helvetica,sans-Serif" font-size="10.00">device_mesh_info_decl.inc</text>
</a>
</g>
</g>
<!-- Node3&#45;&gt;Node31 -->
<g id="edge39_Node000003_Node000031" class="edge">
<title>Node3&#45;&gt;Node31</title>
<g id="a_edge39_Node000003_Node000031"><a xlink:title=" ">
<path fill="none" stroke="#63b8ff" d="M1480.47,-175.87C1472.79,-167.05 1460.68,-153.16 1451.19,-142.27"/>
<polygon fill="#63b8ff" stroke="#63b8ff" points="1453.77,-139.91 1444.56,-134.67 1448.49,-144.51 1453.77,-139.91"/>
</a>
</g>
</g>
<!-- Node32 -->
<g id="Node000032" class="node">
<title>Node32</title>
<g id="a_Node000032"><a xlink:title=" ">
<polygon fill="#e0e0e0" stroke="#999999" points="1614.5,-134.5 1529.5,-134.5 1529.5,-115.5 1614.5,-115.5 1614.5,-134.5"/>
<text text-anchor="middle" x="1572" y="-122.5" font-family="Helvetica,sans-Serif" font-size="10.00">array_decl.inc</text>
</a>
</g>
</g>
<!-- Node3&#45;&gt;Node32 -->
<g id="edge40_Node000003_Node000032" class="edge">
<title>Node3&#45;&gt;Node32</title>
<g id="a_edge40_Node000003_Node000032"><a xlink:title=" ">
<path fill="none" stroke="#63b8ff" d="M1500.39,-175.87C1513.79,-166.54 1535.38,-151.51 1551.35,-140.38"/>
<polygon fill="#63b8ff" stroke="#63b8ff" points="1553.35,-143.25 1559.55,-134.67 1549.35,-137.51 1553.35,-143.25"/>
</a>
</g>
</g>
<!-- Node33 -->
<g id="Node000033" class="node">
<title>Node33</title>
<g id="a_Node000033"><a xlink:title=" ">
<polygon fill="#e0e0e0" stroke="#999999" points="1717,-134.5 1633,-134.5 1633,-115.5 1717,-115.5 1717,-134.5"/>
<text text-anchor="middle" x="1675" y="-122.5" font-family="Helvetica,sans-Serif" font-size="10.00">input_decl.inc</text>
</a>
</g>
</g>
<!-- Node3&#45;&gt;Node33 -->
<g id="edge41_Node000003_Node000033" class="edge">
<title>Node3&#45;&gt;Node33</title>
<g id="a_edge41_Node000003_Node000033"><a xlink:title=" ">
<path fill="none" stroke="#63b8ff" d="M1515.19,-175.99C1547.6,-165.86 1601.9,-148.87 1638.08,-137.55"/>
<polygon fill="#63b8ff" stroke="#63b8ff" points="1639.28,-140.84 1647.78,-134.52 1637.19,-134.16 1639.28,-140.84"/>
</a>
</g>
</g>
<!-- Node34 -->
<g id="Node000034" class="node">
<title>Node34</title>
<g id="a_Node000034"><a xlink:href="ac__helpers_8h.html" target="_top" xlink:title=" ">
<polygon fill="white" stroke="#666666" points="1813,-134.5 1735,-134.5 1735,-115.5 1813,-115.5 1813,-134.5"/>
<text text-anchor="middle" x="1774" y="-122.5" font-family="Helvetica,sans-Serif" font-size="10.00">ac_helpers.h</text>
</a>
</g>
</g>
<!-- Node3&#45;&gt;Node34 -->
<g id="edge42_Node000003_Node000034" class="edge">
<title>Node3&#45;&gt;Node34</title>
<g id="a_edge42_Node000003_Node000034"><a xlink:title=" ">
<path fill="none" stroke="#63b8ff" d="M1531.27,-177.73C1579.17,-169.93 1658.54,-156.1 1726,-140 1729.44,-139.18 1733,-138.26 1736.55,-137.31"/>
<polygon fill="#63b8ff" stroke="#63b8ff" points="1737.77,-140.6 1746.46,-134.54 1735.88,-133.86 1737.77,-140.6"/>
</a>
</g>
</g>
<!-- Node35 -->
<g id="Node000035" class="node">
<title>Node35</title>
<g id="a_Node000035"><a xlink:title=" ">
<polygon fill="#e0e0e0" stroke="#999999" points="1949,-140 1831,-140 1831,-110 1949,-110 1949,-140"/>
<text text-anchor="start" x="1839" y="-128" font-family="Helvetica,sans-Serif" font-size="10.00">scalar_reduce_buffer</text>
<text text-anchor="middle" x="1890" y="-117" font-family="Helvetica,sans-Serif" font-size="10.00">_defs.inc</text>
</a>
</g>
</g>
<!-- Node3&#45;&gt;Node35 -->
<g id="edge43_Node000003_Node000035" class="edge">
<title>Node3&#45;&gt;Node35</title>
<g id="a_edge43_Node000003_Node000035"><a xlink:title=" ">
<path fill="none" stroke="#63b8ff" d="M1531.12,-179.74C1593.02,-172.69 1710.87,-158.47 1820.78,-140.14"/>
<polygon fill="#63b8ff" stroke="#63b8ff" points="1821.43,-143.58 1830.71,-138.46 1820.27,-136.67 1821.43,-143.58"/>
</a>
</g>
</g>
<!-- Node36 -->
<g id="Node000036" class="node">
<title>Node36</title>
<g id="a_Node000036"><a xlink:title=" ">
<polygon fill="#e0e0e0" stroke="#999999" points="2090.5,-140 1967.5,-140 1967.5,-110 2090.5,-110 2090.5,-140"/>
<text text-anchor="start" x="1975.5" y="-128" font-family="Helvetica,sans-Serif" font-size="10.00">scalar_reduce_buffers</text>
<text text-anchor="middle" x="2029" y="-117" font-family="Helvetica,sans-Serif" font-size="10.00">_in_vba.inc</text>
</a>
</g>
</g>
<!-- Node3&#45;&gt;Node36 -->
<g id="edge44_Node000003_Node000036" class="edge">
<title>Node3&#45;&gt;Node36</title>
<g id="a_edge44_Node000003_Node000036"><a xlink:title=" ">
<path fill="none" stroke="#63b8ff" d="M1531.26,-181.86C1612.6,-176.58 1794.02,-163.31 1957.26,-140"/>
<polygon fill="#63b8ff" stroke="#63b8ff" points="1958.09,-143.41 1967.49,-138.52 1957.09,-136.49 1958.09,-143.41"/>
</a>
</g>
</g>
<!-- Node37 -->
<g id="Node000037" class="node">
<title>Node37</title>
<g id="a_Node000037"><a xlink:href="astaroth__analysis_8h.html" target="_top" xlink:title=" ">
<polygon fill="white" stroke="#666666" points="2221,-134.5 2109,-134.5 2109,-115.5 2221,-115.5 2221,-134.5"/>
<text text-anchor="middle" x="2165" y="-122.5" font-family="Helvetica,sans-Serif" font-size="10.00">astaroth_analysis.h</text>
</a>
</g>
</g>
<!-- Node3&#45;&gt;Node37 -->
<g id="edge45_Node000003_Node000037" class="edge">
<title>Node3&#45;&gt;Node37</title>
<g id="a_edge45_Node000003_Node000037"><a xlink:title=" ">
<path fill="none" stroke="#63b8ff" d="M1531.26,-183.43C1631.64,-180.49 1888.04,-170.38 2100,-140 2106.37,-139.09 2113.06,-137.91 2119.61,-136.62"/>
<polygon fill="#63b8ff" stroke="#63b8ff" points="2120.65,-139.98 2129.74,-134.53 2119.24,-133.12 2120.65,-139.98"/>
</a>
</g>
</g>
<!-- Node38 -->
<g id="Node000038" class="node">
<title>Node38</title>
<g id="a_Node000038"><a xlink:href="func__define_8h.html" target="_top" xlink:title=" ">
<polygon fill="white" stroke="#666666" points="2321,-134.5 2239,-134.5 2239,-115.5 2321,-115.5 2321,-134.5"/>
<text text-anchor="middle" x="2280" y="-122.5" font-family="Helvetica,sans-Serif" font-size="10.00">func_define.h</text>
</a>
</g>
</g>
<!-- Node3&#45;&gt;Node38 -->
<g id="edge46_Node000003_Node000038" class="edge">
<title>Node3&#45;&gt;Node38</title>
<g id="a_edge46_Node000003_Node000038"><a xlink:title=" ">
<path fill="none" stroke="#63b8ff" d="M1531.02,-185.1C1645.57,-186.03 1967.19,-184.15 2230,-140 2234.47,-139.25 2239.12,-138.25 2243.69,-137.14"/>
<polygon fill="#63b8ff" stroke="#63b8ff" points="2244.73,-140.48 2253.51,-134.55 2242.95,-133.71 2244.73,-140.48"/>
</a>
</g>
</g>
<!-- Node39 -->
<g id="Node000039" class="node">
<title>Node39</title>
<g id="a_Node000039"><a xlink:href="common__kernels_8h.html" target="_top" xlink:title=" ">
<polygon fill="white" stroke="#666666" points="2448.5,-134.5 2339.5,-134.5 2339.5,-115.5 2448.5,-115.5 2448.5,-134.5"/>
<text text-anchor="middle" x="2394" y="-122.5" font-family="Helvetica,sans-Serif" font-size="10.00">common_kernels.h</text>
</a>
</g>
</g>
<!-- Node3&#45;&gt;Node39 -->
<g id="edge47_Node000003_Node000039" class="edge">
<title>Node3&#45;&gt;Node39</title>
<g id="a_edge47_Node000003_Node000039"><a xlink:title=" ">
<path fill="none" stroke="#63b8ff" d="M1531.17,-184.69C1655.69,-184.7 2026.08,-181 2330,-140 2336.44,-139.13 2343.18,-137.95 2349.79,-136.65"/>
<polygon fill="#63b8ff" stroke="#63b8ff" points="2350.9,-139.99 2359.97,-134.52 2349.47,-133.14 2350.9,-139.99"/>
</a>
</g>
</g>
<!-- Node40 -->
<g id="Node000040" class="node">
<title>Node40</title>
<g id="a_Node000040"><a xlink:title=" ">
<polygon fill="#e0e0e0" stroke="#999999" points="2601,-140 2467,-140 2467,-110 2601,-110 2601,-140"/>
<text text-anchor="start" x="2475" y="-128" font-family="Helvetica,sans-Serif" font-size="10.00">load_and_store_uniform</text>
<text text-anchor="middle" x="2534" y="-117" font-family="Helvetica,sans-Serif" font-size="10.00">_header.inc</text>
</a>
</g>
</g>
<!-- Node3&#45;&gt;Node40 -->
<g id="edge48_Node000003_Node000040" class="edge">
<title>Node3&#45;&gt;Node40</title>
<g id="a_edge48_Node000003_Node000040"><a xlink:title=" ">
<path fill="none" stroke="#63b8ff" d="M1531.19,-184.61C1666.4,-184.52 2093.65,-180.87 2456.75,-140.02"/>
<polygon fill="#63b8ff" stroke="#63b8ff" points="2457.4,-143.47 2466.94,-138.87 2456.61,-136.52 2457.4,-143.47"/>
</a>
</g>
</g>
<!-- Node7 -->
<g id="Node000007" class="node">
<title>Node7</title>
<g id="a_Node000007"><a xlink:title=" ">
<polygon fill="#e0e0e0" stroke="#999999" points="2679.5,-19 2566.5,-19 2566.5,0 2679.5,0 2679.5,-19"/>
<text text-anchor="middle" x="2623" y="-7" font-family="Helvetica,sans-Serif" font-size="10.00">cuda_runtime_api.h</text>
</a>
</g>
</g>
<!-- Node6&#45;&gt;Node7 -->
<g id="edge6_Node000006_Node000007" class="edge">
<title>Node6&#45;&gt;Node7</title>
<g id="a_edge6_Node000006_Node000007"><a xlink:title=" ">
<path fill="none" stroke="#63b8ff" d="M2361.13,-54.98C2416.09,-45.65 2504.23,-30.67 2562.87,-20.71"/>
<polygon fill="#63b8ff" stroke="#63b8ff" points="2563.47,-24.16 2572.74,-19.04 2562.29,-17.26 2563.47,-24.16"/>
</a>
</g>
</g>
<!-- Node8 -->
<g id="Node000008" class="node">
<title>Node8</title>
<g id="a_Node000008"><a xlink:title=" ">
<polygon fill="#e0e0e0" stroke="#999999" points="2349,-19 2273,-19 2273,0 2349,0 2349,-19"/>
<text text-anchor="middle" x="2311" y="-7" font-family="Helvetica,sans-Serif" font-size="10.00">cuda_fp16.h</text>
</a>
</g>
</g>
<!-- Node6&#45;&gt;Node8 -->
<g id="edge7_Node000006_Node000008" class="edge">
<title>Node6&#45;&gt;Node8</title>
<g id="a_edge7_Node000006_Node000008"><a xlink:title=" ">
<path fill="none" stroke="#63b8ff" d="M2311,-54.75C2311,-47.8 2311,-37.85 2311,-29.13"/>
<polygon fill="#63b8ff" stroke="#63b8ff" points="2314.5,-29.09 2311,-19.09 2307.5,-29.09 2314.5,-29.09"/>
</a>
</g>
</g>
<!-- Node10&#45;&gt;Node6 -->
<g id="edge12_Node000010_Node000006" class="edge">
<title>Node10&#45;&gt;Node6</title>
<g id="a_edge12_Node000010_Node000006"><a xlink:title=" ">
<path fill="none" stroke="#63b8ff" d="M2742.13,-115.46C2734.68,-113.42 2726.58,-111.42 2719,-110 2569.89,-82 2527.72,-92.23 2372.62,-74.01"/>
<polygon fill="#63b8ff" stroke="#63b8ff" points="2372.58,-70.49 2362.24,-72.77 2371.75,-77.44 2372.58,-70.49"/>
</a>
</g>
</g>
<!-- Node10&#45;&gt;Node7 -->
<g id="edge14_Node000010_Node000007" class="edge">
<title>Node10&#45;&gt;Node7</title>
<g id="a_edge14_Node000010_Node000007"><a xlink:title=" ">
<path fill="none" stroke="#63b8ff" d="M2764.35,-115.41C2754.75,-101.33 2734.06,-73.11 2711,-55 2694.07,-41.71 2672.55,-30.74 2655.02,-23.02"/>
<polygon fill="#63b8ff" stroke="#63b8ff" points="2656.33,-19.77 2645.76,-19.07 2653.58,-26.21 2656.33,-19.77"/>
</a>
</g>
</g>
<!-- Node10&#45;&gt;Node9 -->
<g id="edge16_Node000010_Node000009" class="edge">
<title>Node10&#45;&gt;Node9</title>
<g id="a_edge16_Node000010_Node000009"><a xlink:title=" ">
<path fill="none" stroke="#63b8ff" d="M2739.28,-115.49C2732.6,-113.66 2725.57,-111.75 2719,-110 2675.33,-98.36 2625.3,-85.46 2590.5,-76.56"/>
<polygon fill="#63b8ff" stroke="#63b8ff" points="2591.21,-73.13 2580.66,-74.05 2589.48,-79.92 2591.21,-73.13"/>
</a>
</g>
</g>
<!-- Node11 -->
<g id="Node000011" class="node">
<title>Node11</title>
<g id="a_Node000011"><a xlink:title=" ">
<polygon fill="#e0e0e0" stroke="#999999" points="2965.5,-74 2918.5,-74 2918.5,-55 2965.5,-55 2965.5,-74"/>
<text text-anchor="middle" x="2942" y="-62" font-family="Helvetica,sans-Serif" font-size="10.00">float.h</text>
</a>
</g>
</g>
<!-- Node10&#45;&gt;Node11 -->
<g id="edge10_Node000010_Node000011" class="edge">
<title>Node10&#45;&gt;Node11</title>
<g id="a_edge10_Node000010_Node000011"><a xlink:title=" ">
<path fill="none" stroke="#63b8ff" d="M2795.01,-115.49C2824.99,-105.3 2875.33,-88.18 2908.6,-76.86"/>
<polygon fill="#63b8ff" stroke="#63b8ff" points="2910,-80.08 2918.34,-73.55 2907.75,-73.45 2910,-80.08"/>
</a>
</g>
</g>
<!-- Node12 -->
<g id="Node000012" class="node">
<title>Node12</title>
<g id="a_Node000012"><a xlink:title=" ">
<polygon fill="#e0e0e0" stroke="#999999" points="3034.5,-74 2983.5,-74 2983.5,-55 3034.5,-55 3034.5,-74"/>
<text text-anchor="middle" x="3009" y="-62" font-family="Helvetica,sans-Serif" font-size="10.00">math.h</text>
</a>
</g>
</g>
<!-- Node10&#45;&gt;Node12 -->
<g id="edge11_Node000010_Node000012" class="edge">
<title>Node10&#45;&gt;Node12</title>
<g id="a_edge11_Node000010_Node000012"><a xlink:title=" ">
<path fill="none" stroke="#63b8ff" d="M2805.2,-115.48C2844.06,-106.06 2908.72,-90.34 2973.42,-74.38"/>
<polygon fill="#63b8ff" stroke="#63b8ff" points="2974.51,-77.72 2983.38,-71.92 2972.84,-70.92 2974.51,-77.72"/>
</a>
</g>
</g>
<!-- Node13 -->
<g id="Node000013" class="node">
<title>Node13</title>
<g id="a_Node000013"><a xlink:title=" ">
<polygon fill="#e0e0e0" stroke="#999999" points="2701.5,-74 2612.5,-74 2612.5,-55 2701.5,-55 2701.5,-74"/>
<text text-anchor="middle" x="2657" y="-62" font-family="Helvetica,sans-Serif" font-size="10.00">vector_types.h</text>
</a>
</g>
</g>
<!-- Node10&#45;&gt;Node13 -->
<g id="edge13_Node000010_Node000013" class="edge">
<title>Node10&#45;&gt;Node13</title>
<g id="a_edge13_Node000010_Node000013"><a xlink:title=" ">
<path fill="none" stroke="#63b8ff" d="M2753.33,-115.37C2734.72,-105.73 2704.38,-90.03 2682.72,-78.81"/>
<polygon fill="#63b8ff" stroke="#63b8ff" points="2684.23,-75.66 2673.74,-74.17 2681.01,-81.87 2684.23,-75.66"/>
</a>
</g>
</g>
<!-- Node14 -->
<g id="Node000014" class="node">
<title>Node14</title>
<g id="a_Node000014"><a xlink:href="acreal_8h.html" target="_top" xlink:title=" ">
<polygon fill="white" stroke="#666666" points="2836,-19 2780,-19 2780,0 2836,0 2836,-19"/>
<text text-anchor="middle" x="2808" y="-7" font-family="Helvetica,sans-Serif" font-size="10.00">acreal.h</text>
</a>
</g>
</g>
<!-- Node10&#45;&gt;Node14 -->
<g id="edge15_Node000010_Node000014" class="edge">
<title>Node10&#45;&gt;Node14</title>
<g id="a_edge15_Node000010_Node000014"><a xlink:title=" ">
<path fill="none" stroke="#63b8ff" d="M2807.02,-116.09C2829.74,-109.12 2857.07,-96.44 2871,-74 2883.33,-54.14 2859.39,-35.69 2837.56,-23.85"/>
<polygon fill="#63b8ff" stroke="#63b8ff" points="2838.95,-20.62 2828.45,-19.19 2835.76,-26.86 2838.95,-20.62"/>
</a>
</g>
</g>
<!-- Node15 -->
<g id="Node000015" class="node">
<title>Node15</title>
<g id="a_Node000015"><a xlink:title=" ">
<polygon fill="#e0e0e0" stroke="#999999" points="2861.5,-74 2758.5,-74 2758.5,-55 2861.5,-55 2861.5,-74"/>
<text text-anchor="middle" x="2810" y="-62" font-family="Helvetica,sans-Serif" font-size="10.00">user_typedefs.inc</text>
</a>
</g>
</g>
<!-- Node10&#45;&gt;Node15 -->
<g id="edge17_Node000010_Node000015" class="edge">
<title>Node10&#45;&gt;Node15</title>
<g id="a_edge17_Node000010_Node000015"><a xlink:title=" ">
<path fill="none" stroke="#63b8ff" d="M2775.9,-115.37C2781.75,-106.81 2790.87,-93.47 2798.21,-82.74"/>
<polygon fill="#63b8ff" stroke="#63b8ff" points="2801.32,-84.4 2804.07,-74.17 2795.54,-80.45 2801.32,-84.4"/>
</a>
</g>
</g>
<!-- Node16 -->
<g id="Node000016" class="node">
<title>Node16</title>
<g id="a_Node000016"><a xlink:href="host__datatypes_8h.html" target="_top" xlink:title=" ">
<polygon fill="white" stroke="#666666" points="2481.5,-74 2380.5,-74 2380.5,-55 2481.5,-55 2481.5,-74"/>
<text text-anchor="middle" x="2431" y="-62" font-family="Helvetica,sans-Serif" font-size="10.00">host_datatypes.h</text>
</a>
</g>
</g>
<!-- Node10&#45;&gt;Node16 -->
<g id="edge18_Node000010_Node000016" class="edge">
<title>Node10&#45;&gt;Node16</title>
<g id="a_edge18_Node000010_Node000016"><a xlink:title=" ">
<path fill="none" stroke="#63b8ff" d="M2741.28,-115.5C2734.05,-113.53 2726.27,-111.55 2719,-110 2697.28,-105.36 2569.83,-86.14 2491.93,-74.53"/>
<polygon fill="#63b8ff" stroke="#63b8ff" points="2492.16,-71.03 2481.75,-73.02 2491.13,-77.95 2492.16,-71.03"/>
</a>
</g>
</g>
<!-- Node16&#45;&gt;Node14 -->
<g id="edge19_Node000016_Node000014" class="edge">
<title>Node16&#45;&gt;Node14</title>
<g id="a_edge19_Node000016_Node000014"><a xlink:title=" ">
<path fill="none" stroke="#63b8ff" d="M2481.74,-56.31C2484.87,-55.86 2487.98,-55.43 2491,-55 2591.45,-40.83 2709.82,-24.24 2769.49,-15.89"/>
<polygon fill="#63b8ff" stroke="#63b8ff" points="2770.16,-19.33 2779.58,-14.48 2769.19,-12.4 2770.16,-19.33"/>
</a>
</g>
</g>
<!-- Node17 -->
<g id="Node000017" class="node">
<title>Node17</title>
<g id="a_Node000017"><a xlink:title=" ">
<polygon fill="#e0e0e0" stroke="#999999" points="2441,-19 2385,-19 2385,0 2441,0 2441,-19"/>
<text text-anchor="middle" x="2413" y="-7" font-family="Helvetica,sans-Serif" font-size="10.00">stddef.h</text>
</a>
</g>
</g>
<!-- Node16&#45;&gt;Node17 -->
<g id="edge20_Node000016_Node000017" class="edge">
<title>Node16&#45;&gt;Node17</title>
<g id="a_edge20_Node000016_Node000017"><a xlink:title=" ">
<path fill="none" stroke="#63b8ff" d="M2428.03,-54.75C2425.64,-47.72 2422.21,-37.62 2419.23,-28.84"/>
<polygon fill="#63b8ff" stroke="#63b8ff" points="2422.45,-27.43 2415.92,-19.09 2415.82,-29.68 2422.45,-27.43"/>
</a>
</g>
</g>
<!-- Node18&#45;&gt;Node4 -->
<g id="edge26_Node000018_Node000004" class="edge">
<title>Node18&#45;&gt;Node4</title>
<g id="a_edge26_Node000018_Node000004"><a xlink:title=" ">
<path fill="none" stroke="#63b8ff" d="M113.65,-115.37C96.68,-105.82 69.1,-90.31 49.21,-79.12"/>
<polygon fill="#63b8ff" stroke="#63b8ff" points="50.84,-76.02 40.41,-74.17 47.41,-82.12 50.84,-76.02"/>
</a>
</g>
</g>
<!-- Node18&#45;&gt;Node5 -->
<g id="edge24_Node000018_Node000005" class="edge">
<title>Node18&#45;&gt;Node5</title>
<g id="a_edge24_Node000018_Node000005"><a xlink:title=" ">
<path fill="none" stroke="#63b8ff" d="M150.23,-115.49C174.99,-105.57 216.12,-89.09 244.35,-77.78"/>
<polygon fill="#63b8ff" stroke="#63b8ff" points="245.76,-80.99 253.74,-74.02 243.16,-74.49 245.76,-80.99"/>
</a>
</g>
</g>
<!-- Node18&#45;&gt;Node6 -->
<g id="edge29_Node000018_Node000006" class="edge">
<title>Node18&#45;&gt;Node6</title>
<g id="a_edge29_Node000018_Node000006"><a xlink:title=" ">
<path fill="none" stroke="#63b8ff" d="M157.33,-117.58C171.3,-114.7 188.45,-111.6 204,-110 411.7,-88.57 1924.27,-69.97 2249.51,-66.2"/>
<polygon fill="#63b8ff" stroke="#63b8ff" points="2249.72,-69.7 2259.68,-66.08 2249.64,-62.7 2249.72,-69.7"/>
</a>
</g>
</g>
<!-- Node18&#45;&gt;Node16 -->
<g id="edge23_Node000018_Node000016" class="edge">
<title>Node18&#45;&gt;Node16</title>
<g id="a_edge23_Node000018_Node000016"><a xlink:title=" ">
<path fill="none" stroke="#63b8ff" d="M157.33,-117.55C171.3,-114.67 188.45,-111.57 204,-110 679.91,-61.97 1874.39,-111.17 2370.17,-73.91"/>
<polygon fill="#63b8ff" stroke="#63b8ff" points="2370.61,-77.39 2380.31,-73.13 2370.07,-70.41 2370.61,-77.39"/>
</a>
</g>
</g>
<!-- Node18&#45;&gt;Node17 -->
<g id="edge22_Node000018_Node000017" class="edge">
<title>Node18&#45;&gt;Node17</title>
<g id="a_edge22_Node000018_Node000017"><a xlink:title=" ">
<path fill="none" stroke="#63b8ff" d="M140.35,-115.44C163.22,-98.4 214.42,-61.3 235,-55 347.8,-20.48 2240.47,-29.03 2358,-19 2363.48,-18.53 2369.23,-17.85 2374.88,-17.08"/>
<polygon fill="#63b8ff" stroke="#63b8ff" points="2375.45,-20.53 2384.83,-15.61 2374.42,-13.61 2375.45,-20.53"/>
</a>
</g>
</g>
<!-- Node19 -->
<g id="Node000019" class="node">
<title>Node19</title>
<g id="a_Node000019"><a xlink:title=" ">
<polygon fill="#e0e0e0" stroke="#999999" points="1346.5,-74 1293.5,-74 1293.5,-55 1346.5,-55 1346.5,-74"/>
<text text-anchor="middle" x="1320" y="-62" font-family="Helvetica,sans-Serif" font-size="10.00">stdint.h</text>
</a>
</g>
</g>
<!-- Node18&#45;&gt;Node19 -->
<g id="edge25_Node000018_Node000019" class="edge">
<title>Node18&#45;&gt;Node19</title>
<g id="a_edge25_Node000018_Node000019"><a xlink:title=" ">
<path fill="none" stroke="#63b8ff" d="M157.35,-117.71C171.32,-114.86 188.47,-111.75 204,-110 625.59,-62.5 1141.75,-63.69 1282.86,-65.04"/>
<polygon fill="#63b8ff" stroke="#63b8ff" points="1283.08,-68.54 1293.12,-65.14 1283.15,-61.54 1283.08,-68.54"/>
</a>
</g>
</g>
<!-- Node20 -->
<g id="Node000020" class="node">
<title>Node20</title>
<g id="a_Node000020"><a xlink:title=" ">
<polygon fill="#e0e0e0" stroke="#999999" points="121.5,-74 68.5,-74 68.5,-55 121.5,-55 121.5,-74"/>
<text text-anchor="middle" x="95" y="-62" font-family="Helvetica,sans-Serif" font-size="10.00">stdlib.h</text>
</a>
</g>
</g>
<!-- Node18&#45;&gt;Node20 -->
<g id="edge27_Node000018_Node000020" class="edge">
<title>Node18&#45;&gt;Node20</title>
<g id="a_edge27_Node000018_Node000020"><a xlink:title=" ">
<path fill="none" stroke="#63b8ff" d="M123.98,-115.37C119.06,-106.9 111.41,-93.74 105.21,-83.07"/>
<polygon fill="#63b8ff" stroke="#63b8ff" points="108.09,-81.05 100.04,-74.17 102.04,-84.57 108.09,-81.05"/>
</a>
</g>
</g>
<!-- Node21 -->
<g id="Node000021" class="node">
<title>Node21</title>
<g id="a_Node000021"><a xlink:title=" ">
<polygon fill="#e0e0e0" stroke="#999999" points="188,-74 140,-74 140,-55 188,-55 188,-74"/>
<text text-anchor="middle" x="164" y="-62" font-family="Helvetica,sans-Serif" font-size="10.00">time.h</text>
</a>
</g>
</g>
<!-- Node18&#45;&gt;Node21 -->
<g id="edge28_Node000018_Node000021" class="edge">
<title>Node18&#45;&gt;Node21</title>
<g id="a_edge28_Node000018_Node000021"><a xlink:title=" ">
<path fill="none" stroke="#63b8ff" d="M134.16,-115.37C139.23,-106.9 147.1,-93.74 153.49,-83.07"/>
<polygon fill="#63b8ff" stroke="#63b8ff" points="156.68,-84.55 158.81,-74.17 150.68,-80.95 156.68,-84.55"/>
</a>
</g>
</g>
<!-- Node46&#45;&gt;Node10 -->
<g id="edge55_Node000046_Node000010" class="edge">
<title>Node46&#45;&gt;Node10</title>
<g id="a_edge55_Node000046_Node000010"><a xlink:title=" ">
<path fill="none" stroke="#63b8ff" d="M2687.22,-230.85C2695.49,-222.04 2708.49,-207.88 2719,-195 2733.06,-177.77 2748.07,-157.17 2758.13,-142.99"/>
<polygon fill="#63b8ff" stroke="#63b8ff" points="2761.08,-144.89 2763.98,-134.7 2755.35,-140.86 2761.08,-144.89"/>
</a>
</g>
</g>
<!-- Node46&#45;&gt;Node19 -->
<g id="edge57_Node000046_Node000019" class="edge">
<title>Node46&#45;&gt;Node19</title>
<g id="a_edge57_Node000046_Node000019"><a xlink:title=" ">
<path fill="none" stroke="#63b8ff" d="M2677.44,-230.86C2672.58,-206.66 2655.17,-138.19 2610,-110 2555.46,-75.97 1561.8,-67.19 1356.8,-65.74"/>
<polygon fill="#63b8ff" stroke="#63b8ff" points="1356.59,-62.24 1346.57,-65.67 1356.54,-69.24 1356.59,-62.24"/>
</a>
</g>
</g>
<!-- Node46&#45;&gt;Node45 -->
<g id="edge56_Node000046_Node000045" class="edge">
<title>Node46&#45;&gt;Node45</title>
<g id="a_edge56_Node000046_Node000045"><a xlink:title=" ">
<path fill="none" stroke="#63b8ff" d="M2653.45,-230.98C2626.88,-222.13 2585.06,-208.19 2555.33,-198.28"/>
<polygon fill="#63b8ff" stroke="#63b8ff" points="2556.34,-194.92 2545.75,-195.08 2554.13,-201.56 2556.34,-194.92"/>
</a>
</g>
</g>
</g>
</svg>

<g id="navigator" transform="translate(0 0)" fill="#404254">
  <rect fill="#f2f5e9" fill-opacity="0.5" stroke="#606060" stroke-width=".5" x="0" y="0" width="60" height="60"/>
  <use id="zoomplus" xlink:href="#zoomPlus" x="17" y="9" onmousedown="handleZoom(evt,'in')"/>
  <use id="zoomminus" xlink:href="#zoomMin" x="42" y="9" onmousedown="handleZoom(evt,'out')"/>
  <use id="reset" xlink:href="#resetDef" x="30" y="36" onmousedown="handleReset()"/>
   <use id="arrowup" xlink:href="#arrowUp" x="0" y="0" onmousedown="handlePan(0,-1)"/>
  <use id="arrowright" xlink:href="#arrowRight" x="0" y="0" onmousedown="handlePan(1,0)"/>
  <use id="arrowdown" xlink:href="#arrowDown" x="0" y="0" onmousedown="handlePan(0,1)"/>
  <use id="arrowleft" xlink:href="#arrowLeft" x="0" y="0" onmousedown="handlePan(-1,0)"/>
</g>
<svg viewBox="0 0 15 15" width="100%" height="30px" preserveAspectRatio="xMaxYMin meet">
 <g id="arrow_out" transform="scale(0.3 0.3)">
  <a xlink:href="helical__forcing_8cc__incl_org.svg" target="_base">
   <rect id="button" ry="5" rx="5" y="6" x="6" height="38" width="38"
        fill="#f2f5e9" fill-opacity="0.5" stroke="#606060" stroke-width="1.0"/>
   <path id="arrow"
     d="M 11.500037,31.436501 C 11.940474,20.09759 22.043105,11.32322 32.158766,21.979434 L 37.068811,17.246167 C 37.068811,17.246167 37.088388,32 37.088388,32 L 22.160133,31.978069 C 22.160133,31.978069 26.997745,27.140456 26.997745,27.140456 C 18.528582,18.264221 13.291696,25.230495 11.500037,31.436501 z"
     style="fill:#404040;"/>
  </a>
 </g>
</svg>

<style type='text/css'>
<![CDATA[
[data-mouse-over-selected='false'] { opacity: 0.7; }
[data-mouse-over-selected='true']  { opacity: 1.0; }
]]>
</style>
<script type="application/ecmascript"><![CDATA[
document.addEventListener('DOMContentLoaded', (event) => {
  highlightEdges();
  highlightAdjacentNodes();
});
]]></script>
</svg>
