<?xml version="1.0" encoding="UTF-8" standalone="no"?>
<!DOCTYPE svg PUBLIC "-//W3C//DTD SVG 1.1//EN"
 "http://www.w3.org/Graphics/SVG/1.1/DTD/svg11.dtd">
<!-- Generated by graphviz version 2.43.0 (0)
 -->
<!-- Title: src/utils/helical_forcing.cc Pages: 1 -->
<svg width="2948pt" height="313pt"
 viewBox="0.00 0.00 2947.50 313.00" xmlns="http://www.w3.org/2000/svg" xmlns:xlink="http://www.w3.org/1999/xlink">
<g id="graph0" class="graph" transform="scale(1 1) rotate(0) translate(4 309)">
<title>src/utils/helical_forcing.cc</title>
<!-- Node1 -->
<g id="Node000001" class="node">
<title>Node1</title>
<g id="a_Node000001"><a xlink:title=" ">
<polygon fill="#999999" stroke="#666666" points="1812.5,-305 1669.5,-305 1669.5,-286 1812.5,-286 1812.5,-305"/>
<text text-anchor="middle" x="1741" y="-293" font-family="Helvetica,sans-Serif" font-size="10.00">src/utils/helical_forcing.cc</text>
</a>
</g>
</g>
<!-- Node2 -->
<g id="Node000002" class="node">
<title>Node2</title>
<g id="a_Node000002"><a xlink:href="astaroth__forcing_8h.html" target="_top" xlink:title=" ">
<polygon fill="white" stroke="#666666" points="1570.5,-250 1465.5,-250 1465.5,-231 1570.5,-231 1570.5,-250"/>
<text text-anchor="middle" x="1518" y="-238" font-family="Helvetica,sans-Serif" font-size="10.00">astaroth_forcing.h</text>
</a>
</g>
</g>
<!-- Node1&#45;&gt;Node2 -->
<g id="edge1_Node000001_Node000002" class="edge">
<title>Node1&#45;&gt;Node2</title>
<g id="a_edge1_Node000001_Node000002"><a xlink:title=" ">
<path fill="none" stroke="#63b8ff" d="M1705.17,-285.98C1666.84,-276.87 1605.92,-262.4 1564.05,-252.45"/>
<polygon fill="#63b8ff" stroke="#63b8ff" points="1564.65,-248.99 1554.11,-250.08 1563.03,-255.8 1564.65,-248.99"/>
</a>
</g>
</g>
<!-- Node18 -->
<g id="Node000018" class="node">
<title>Node18</title>
<g id="a_Node000018"><a xlink:href="errchk_8h.html" target="_top" xlink:title="Brief info.">
<polygon fill="white" stroke="#666666" points="157,-134.5 101,-134.5 101,-115.5 157,-115.5 157,-134.5"/>
<text text-anchor="middle" x="129" y="-122.5" font-family="Helvetica,sans-Serif" font-size="10.00">errchk.h</text>
</a>
</g>
</g>
<!-- Node1&#45;&gt;Node18 -->
<g id="edge58_Node000001_Node000018" class="edge">
<title>Node1&#45;&gt;Node18</title>
<g id="a_edge58_Node000001_Node000018"><a xlink:title=" ">
<path fill="none" stroke="#63b8ff" d="M1669.37,-290.14C1448.66,-276.11 759.72,-227.84 195,-140 185.92,-138.59 176.2,-136.73 167.1,-134.82"/>
<polygon fill="#63b8ff" stroke="#63b8ff" points="167.65,-131.36 157.14,-132.68 166.18,-138.2 167.65,-131.36"/>
</a>
</g>
</g>
<!-- Node41 -->
<g id="Node000041" class="node">
<title>Node41</title>
<g id="a_Node000041"><a xlink:title=" ">
<polygon fill="#e0e0e0" stroke="#999999" points="1657,-250 1615,-250 1615,-231 1657,-231 1657,-250"/>
<text text-anchor="middle" x="1636" y="-238" font-family="Helvetica,sans-Serif" font-size="10.00">array</text>
</a>
</g>
</g>
<!-- Node1&#45;&gt;Node41 -->
<g id="edge49_Node000001_Node000041" class="edge">
<title>Node1&#45;&gt;Node41</title>
<g id="a_edge49_Node000001_Node000041"><a xlink:title=" ">
<path fill="none" stroke="#63b8ff" d="M1724.13,-285.98C1707.39,-277.54 1681.5,-264.47 1662.11,-254.68"/>
<polygon fill="#63b8ff" stroke="#63b8ff" points="1663.68,-251.55 1653.18,-250.17 1660.53,-257.8 1663.68,-251.55"/>
</a>
</g>
</g>
<!-- Node42 -->
<g id="Node000042" class="node">
<title>Node42</title>
<g id="a_Node000042"><a xlink:title=" ">
<polygon fill="#e0e0e0" stroke="#999999" points="1734.5,-250 1675.5,-250 1675.5,-231 1734.5,-231 1734.5,-250"/>
<text text-anchor="middle" x="1705" y="-238" font-family="Helvetica,sans-Serif" font-size="10.00">complex</text>
</a>
</g>
</g>
<!-- Node1&#45;&gt;Node42 -->
<g id="edge50_Node000001_Node000042" class="edge">
<title>Node1&#45;&gt;Node42</title>
<g id="a_edge50_Node000001_Node000042"><a xlink:title=" ">
<path fill="none" stroke="#63b8ff" d="M1735.06,-285.75C1730.02,-278.34 1722.66,-267.5 1716.49,-258.41"/>
<polygon fill="#63b8ff" stroke="#63b8ff" points="1719.35,-256.39 1710.83,-250.09 1713.56,-260.33 1719.35,-256.39"/>
</a>
</g>
</g>
<!-- Node43 -->
<g id="Node000043" class="node">
<title>Node43</title>
<g id="a_Node000043"><a xlink:title=" ">
<polygon fill="#e0e0e0" stroke="#999999" points="1801.5,-250 1752.5,-250 1752.5,-231 1801.5,-231 1801.5,-250"/>
<text text-anchor="middle" x="1777" y="-238" font-family="Helvetica,sans-Serif" font-size="10.00">cstdlib</text>
</a>
</g>
</g>
<!-- Node1&#45;&gt;Node43 -->
<g id="edge51_Node000001_Node000043" class="edge">
<title>Node1&#45;&gt;Node43</title>
<g id="a_edge51_Node000001_Node000043"><a xlink:title=" ">
<path fill="none" stroke="#63b8ff" d="M1746.94,-285.75C1751.98,-278.34 1759.34,-267.5 1765.51,-258.41"/>
<polygon fill="#63b8ff" stroke="#63b8ff" points="1768.44,-260.33 1771.17,-250.09 1762.65,-256.39 1768.44,-260.33"/>
</a>
</g>
</g>
<!-- Node44 -->
<g id="Node000044" class="node">
<title>Node44</title>
<g id="a_Node000044"><a xlink:title=" ">
<polygon fill="#e0e0e0" stroke="#999999" points="1880,-250 1820,-250 1820,-231 1880,-231 1880,-250"/>
<text text-anchor="middle" x="1850" y="-238" font-family="Helvetica,sans-Serif" font-size="10.00">iostream</text>
</a>
</g>
</g>
<!-- Node1&#45;&gt;Node44 -->
<g id="edge52_Node000001_Node000044" class="edge">
<title>Node1&#45;&gt;Node44</title>
<g id="a_edge52_Node000001_Node000044"><a xlink:title=" ">
<path fill="none" stroke="#63b8ff" d="M1758.51,-285.98C1775.97,-277.5 1803.01,-264.35 1823.17,-254.54"/>
<polygon fill="#63b8ff" stroke="#63b8ff" points="1824.71,-257.69 1832.17,-250.17 1821.64,-251.4 1824.71,-257.69"/>
</a>
</g>
</g>
<!-- Node45 -->
<g id="Node000045" class="node">
<title>Node45</title>
<g id="a_Node000045"><a xlink:title=" ">
<polygon fill="#e0e0e0" stroke="#999999" points="2461,-195 2407,-195 2407,-176 2461,-176 2461,-195"/>
<text text-anchor="middle" x="2434" y="-183" font-family="Helvetica,sans-Serif" font-size="10.00">random</text>
</a>
</g>
</g>
<!-- Node1&#45;&gt;Node45 -->
<g id="edge53_Node000001_Node000045" class="edge">
<title>Node1&#45;&gt;Node45</title>
<g id="a_edge53_Node000001_Node000045"><a xlink:title=" ">
<path fill="none" stroke="#63b8ff" d="M1795.67,-285.98C1931.57,-264.8 2282.03,-210.18 2396.92,-192.28"/>
<polygon fill="#63b8ff" stroke="#63b8ff" points="2397.64,-195.71 2406.98,-190.71 2396.56,-188.79 2397.64,-195.71"/>
</a>
</g>
</g>
<!-- Node46 -->
<g id="Node000046" class="node">
<title>Node46</title>
<g id="a_Node000046"><a xlink:href="astaroth__random_8h.html" target="_top" xlink:title=" ">
<polygon fill="white" stroke="#666666" points="2645.5,-250 2536.5,-250 2536.5,-231 2645.5,-231 2645.5,-250"/>
<text text-anchor="middle" x="2591" y="-238" font-family="Helvetica,sans-Serif" font-size="10.00">astaroth_random.h</text>
</a>
</g>
</g>
<!-- Node1&#45;&gt;Node46 -->
<g id="edge54_Node000001_Node000046" class="edge">
<title>Node1&#45;&gt;Node46</title>
<g id="a_edge54_Node000001_Node000046"><a xlink:title=" ">
<path fill="none" stroke="#63b8ff" d="M1812.74,-290.03C1975.4,-279.88 2370.19,-255.27 2526.11,-245.55"/>
<polygon fill="#63b8ff" stroke="#63b8ff" points="2526.71,-249.02 2536.47,-244.9 2526.27,-242.03 2526.71,-249.02"/>
</a>
</g>
</g>
<!-- Node3 -->
<g id="Node000003" class="node">
<title>Node3</title>
<g id="a_Node000003"><a xlink:href="acc__runtime_8h.html" target="_top" xlink:title=" ">
<polygon fill="white" stroke="#666666" points="1461,-195 1375,-195 1375,-176 1461,-176 1461,-195"/>
<text text-anchor="middle" x="1418" y="-183" font-family="Helvetica,sans-Serif" font-size="10.00">acc_runtime.h</text>
</a>
</g>
</g>
<!-- Node2&#45;&gt;Node3 -->
<g id="edge2_Node000002_Node000003" class="edge">
<title>Node2&#45;&gt;Node3</title>
<g id="a_edge2_Node000002_Node000003"><a xlink:title=" ">
<path fill="none" stroke="#63b8ff" d="M1501.93,-230.98C1486.14,-222.61 1461.78,-209.7 1443.37,-199.95"/>
<polygon fill="#63b8ff" stroke="#63b8ff" points="1444.83,-196.76 1434.36,-195.17 1441.56,-202.95 1444.83,-196.76"/>
</a>
</g>
</g>
<!-- Node4 -->
<g id="Node000004" class="node">
<title>Node4</title>
<g id="a_Node000004"><a xlink:title=" ">
<polygon fill="#e0e0e0" stroke="#999999" points="50,-74 0,-74 0,-55 50,-55 50,-74"/>
<text text-anchor="middle" x="25" y="-62" font-family="Helvetica,sans-Serif" font-size="10.00">stdio.h</text>
</a>
</g>
</g>
<!-- Node3&#45;&gt;Node4 -->
<g id="edge3_Node000003_Node000004" class="edge">
<title>Node3&#45;&gt;Node4</title>
<g id="a_edge3_Node000003_Node000004"><a xlink:title=" ">
<path fill="none" stroke="#63b8ff" d="M1374.93,-184C1153.51,-181.32 151.41,-167.67 92,-140 66.46,-128.1 46.41,-101.43 35.13,-83.44"/>
<polygon fill="#63b8ff" stroke="#63b8ff" points="37.92,-81.29 29.79,-74.5 31.91,-84.88 37.92,-81.29"/>
</a>
</g>
</g>
<!-- Node5 -->
<g id="Node000005" class="node">
<title>Node5</title>
<g id="a_Node000005"><a xlink:title=" ">
<polygon fill="#e0e0e0" stroke="#999999" points="306,-74 244,-74 244,-55 306,-55 306,-74"/>
<text text-anchor="middle" x="275" y="-62" font-family="Helvetica,sans-Serif" font-size="10.00">stdbool.h</text>
</a>
</g>
</g>
<!-- Node3&#45;&gt;Node5 -->
<g id="edge4_Node000003_Node000005" class="edge">
<title>Node3&#45;&gt;Node5</title>
<g id="a_edge4_Node000003_Node000005"><a xlink:title=" ">
<path fill="none" stroke="#63b8ff" d="M1374.89,-183.73C1161.17,-179.83 224.74,-161.52 204,-140 194.75,-130.4 197.54,-121.67 204,-110 211.84,-95.83 226.29,-85.57 240.11,-78.5"/>
<polygon fill="#63b8ff" stroke="#63b8ff" points="241.92,-81.52 249.49,-74.1 238.95,-75.18 241.92,-81.52"/>
</a>
</g>
</g>
<!-- Node6 -->
<g id="Node000006" class="node">
<title>Node6</title>
<g id="a_Node000006"><a xlink:href="device__headers_8h.html" target="_top" xlink:title=" ">
<polygon fill="white" stroke="#666666" points="2275,-74 2173,-74 2173,-55 2275,-55 2275,-74"/>
<text text-anchor="middle" x="2224" y="-62" font-family="Helvetica,sans-Serif" font-size="10.00">device_headers.h</text>
</a>
</g>
</g>
<!-- Node3&#45;&gt;Node6 -->
<g id="edge5_Node000003_Node000006" class="edge">
<title>Node3&#45;&gt;Node6</title>
<g id="a_edge5_Node000003_Node000006"><a xlink:title=" ">
<path fill="none" stroke="#63b8ff" d="M1461.29,-184.41C1660.83,-183.78 2483.68,-178.85 2521,-140 2530.24,-130.38 2529.7,-120.1 2521,-110 2519.08,-107.77 2371.67,-86.48 2285.27,-74.18"/>
<polygon fill="#63b8ff" stroke="#63b8ff" points="2285.7,-70.7 2275.31,-72.76 2284.72,-77.63 2285.7,-70.7"/>
</a>
</g>
</g>
<!-- Node9 -->
<g id="Node000009" class="node">
<title>Node9</title>
<g id="a_Node000009"><a xlink:title=" ">
<polygon fill="#e0e0e0" stroke="#999999" points="2507.5,-74 2412.5,-74 2412.5,-55 2507.5,-55 2507.5,-74"/>
<text text-anchor="middle" x="2460" y="-62" font-family="Helvetica,sans-Serif" font-size="10.00">builtin_enums.h</text>
</a>
</g>
</g>
<!-- Node3&#45;&gt;Node9 -->
<g id="edge8_Node000003_Node000009" class="edge">
<title>Node3&#45;&gt;Node9</title>
<g id="a_edge8_Node000003_Node000009"><a xlink:title=" ">
<path fill="none" stroke="#63b8ff" d="M1461.29,-184.44C1662.71,-183.94 2500.05,-179.48 2538,-140 2547.24,-130.39 2544.7,-121.53 2538,-110 2529.46,-95.29 2514.03,-85.04 2499.14,-78.11"/>
<polygon fill="#63b8ff" stroke="#63b8ff" points="2500.08,-74.71 2489.5,-74.03 2497.34,-81.15 2500.08,-74.71"/>
</a>
</g>
</g>
<!-- Node10 -->
<g id="Node000010" class="node">
<title>Node10</title>
<g id="a_Node000010"><a xlink:href="datatypes_8h.html" target="_top" xlink:title=" ">
<polygon fill="white" stroke="#666666" points="2718,-134.5 2644,-134.5 2644,-115.5 2718,-115.5 2718,-134.5"/>
<text text-anchor="middle" x="2681" y="-122.5" font-family="Helvetica,sans-Serif" font-size="10.00">datatypes.h</text>
</a>
</g>
</g>
<!-- Node3&#45;&gt;Node10 -->
<g id="edge9_Node000003_Node000010" class="edge">
<title>Node3&#45;&gt;Node10</title>
<g id="a_edge9_Node000003_Node000010"><a xlink:title=" ">
<path fill="none" stroke="#63b8ff" d="M1461.03,-184.7C1614.85,-185.03 2151.73,-182.82 2592,-140 2605.65,-138.67 2620.38,-136.61 2633.86,-134.48"/>
<polygon fill="#63b8ff" stroke="#63b8ff" points="2634.58,-137.91 2643.88,-132.84 2633.45,-131 2634.58,-137.91"/>
</a>
</g>
</g>
<!-- Node3&#45;&gt;Node18 -->
<g id="edge21_Node000003_Node000018" class="edge">
<title>Node3&#45;&gt;Node18</title>
<g id="a_edge21_Node000003_Node000018"><a xlink:title=" ">
<path fill="none" stroke="#63b8ff" d="M1374.92,-183.69C1169.14,-179.74 291.31,-161.73 171,-140 167.57,-139.38 164.03,-138.54 160.54,-137.58"/>
<polygon fill="#63b8ff" stroke="#63b8ff" points="161.51,-134.21 150.92,-134.62 159.45,-140.91 161.51,-134.21"/>
</a>
</g>
</g>
<!-- Node22 -->
<g id="Node000022" class="node">
<title>Node22</title>
<g id="a_Node000022"><a xlink:title=" ">
<polygon fill="#e0e0e0" stroke="#999999" points="300.5,-134.5 213.5,-134.5 213.5,-115.5 300.5,-115.5 300.5,-134.5"/>
<text text-anchor="middle" x="257" y="-122.5" font-family="Helvetica,sans-Serif" font-size="10.00">user_defines.h</text>
</a>
</g>
</g>
<!-- Node3&#45;&gt;Node22 -->
<g id="edge30_Node000003_Node000022" class="edge">
<title>Node3&#45;&gt;Node22</title>
<g id="a_edge30_Node000003_Node000022"><a xlink:title=" ">
<path fill="none" stroke="#63b8ff" d="M1374.84,-184.02C1197.07,-181.87 520.96,-171.71 310,-140 304.95,-139.24 299.7,-138.19 294.54,-136.99"/>
<polygon fill="#63b8ff" stroke="#63b8ff" points="295.37,-133.59 284.82,-134.57 293.67,-140.38 295.37,-133.59"/>
</a>
</g>
</g>
<!-- Node23 -->
<g id="Node000023" class="node">
<title>Node23</title>
<g id="a_Node000023"><a xlink:title=" ">
<polygon fill="#e0e0e0" stroke="#999999" points="405,-134.5 319,-134.5 319,-115.5 405,-115.5 405,-134.5"/>
<text text-anchor="middle" x="362" y="-122.5" font-family="Helvetica,sans-Serif" font-size="10.00">profiles_info.h</text>
</a>
</g>
</g>
<!-- Node3&#45;&gt;Node23 -->
<g id="edge31_Node000003_Node000023" class="edge">
<title>Node3&#45;&gt;Node23</title>
<g id="a_edge31_Node000003_Node000023"><a xlink:title=" ">
<path fill="none" stroke="#63b8ff" d="M1374.99,-183.85C1208.13,-181.11 603.56,-169.36 414,-140 409.17,-139.25 404.15,-138.23 399.21,-137.07"/>
<polygon fill="#63b8ff" stroke="#63b8ff" points="399.84,-133.62 389.29,-134.55 398.12,-140.4 399.84,-133.62"/>
</a>
</g>
</g>
<!-- Node24 -->
<g id="Node000024" class="node">
<title>Node24</title>
<g id="a_Node000024"><a xlink:title=" ">
<polygon fill="#e0e0e0" stroke="#999999" points="562.5,-134.5 423.5,-134.5 423.5,-115.5 562.5,-115.5 562.5,-134.5"/>
<text text-anchor="middle" x="493" y="-122.5" font-family="Helvetica,sans-Serif" font-size="10.00">user_built&#45;in_constants.h</text>
</a>
</g>
</g>
<!-- Node3&#45;&gt;Node24 -->
<g id="edge32_Node000003_Node000024" class="edge">
<title>Node3&#45;&gt;Node24</title>
<g id="a_edge32_Node000003_Node000024"><a xlink:title=" ">
<path fill="none" stroke="#63b8ff" d="M1374.65,-184.13C1249.57,-182.67 877.45,-175.41 571,-140 562.55,-139.02 553.64,-137.7 544.97,-136.26"/>
<polygon fill="#63b8ff" stroke="#63b8ff" points="545.41,-132.78 534.96,-134.52 544.21,-139.68 545.41,-132.78"/>
</a>
</g>
</g>
<!-- Node25 -->
<g id="Node000025" class="node">
<title>Node25</title>
<g id="a_Node000025"><a xlink:href="func__attributes_8h.html" target="_top" xlink:title=" ">
<polygon fill="white" stroke="#666666" points="679.5,-134.5 580.5,-134.5 580.5,-115.5 679.5,-115.5 679.5,-134.5"/>
<text text-anchor="middle" x="630" y="-122.5" font-family="Helvetica,sans-Serif" font-size="10.00">func_attributes.h</text>
</a>
</g>
</g>
<!-- Node3&#45;&gt;Node25 -->
<g id="edge33_Node000003_Node000025" class="edge">
<title>Node3&#45;&gt;Node25</title>
<g id="a_edge33_Node000003_Node000025"><a xlink:title=" ">
<path fill="none" stroke="#63b8ff" d="M1374.94,-184.51C1261.73,-183.97 946.67,-178.79 688,-140 682.43,-139.16 676.61,-138.05 670.9,-136.82"/>
<polygon fill="#63b8ff" stroke="#63b8ff" points="671.33,-133.33 660.8,-134.5 669.77,-140.15 671.33,-133.33"/>
</a>
</g>
</g>
<!-- Node26 -->
<g id="Node000026" class="node">
<title>Node26</title>
<g id="a_Node000026"><a xlink:title=" ">
<polygon fill="#e0e0e0" stroke="#999999" points="822.5,-134.5 697.5,-134.5 697.5,-115.5 822.5,-115.5 822.5,-134.5"/>
<text text-anchor="middle" x="760" y="-122.5" font-family="Helvetica,sans-Serif" font-size="10.00">user_input_typedefs.h</text>
</a>
</g>
</g>
<!-- Node3&#45;&gt;Node26 -->
<g id="edge34_Node000003_Node000026" class="edge">
<title>Node3&#45;&gt;Node26</title>
<g id="a_edge34_Node000003_Node000026"><a xlink:title=" ">
<path fill="none" stroke="#63b8ff" d="M1374.73,-182.98C1277.28,-179.18 1033.29,-167.51 831,-140 823.81,-139.02 816.25,-137.77 808.86,-136.42"/>
<polygon fill="#63b8ff" stroke="#63b8ff" points="809.4,-132.97 798.92,-134.54 808.09,-139.84 809.4,-132.97"/>
</a>
</g>
</g>
<!-- Node27 -->
<g id="Node000027" class="node">
<title>Node27</title>
<g id="a_Node000027"><a xlink:title=" ">
<polygon fill="#e0e0e0" stroke="#999999" points="923.5,-134.5 840.5,-134.5 840.5,-115.5 923.5,-115.5 923.5,-134.5"/>
<text text-anchor="middle" x="882" y="-122.5" font-family="Helvetica,sans-Serif" font-size="10.00">output_decl.h</text>
</a>
</g>
</g>
<!-- Node3&#45;&gt;Node27 -->
<g id="edge35_Node000003_Node000027" class="edge">
<title>Node3&#45;&gt;Node27</title>
<g id="a_edge35_Node000003_Node000027"><a xlink:title=" ">
<path fill="none" stroke="#63b8ff" d="M1374.84,-183.09C1289.7,-179.76 1094.4,-169.32 933,-140 928.56,-139.19 923.95,-138.18 919.39,-137.07"/>
<polygon fill="#63b8ff" stroke="#63b8ff" points="920.15,-133.65 909.59,-134.53 918.39,-140.43 920.15,-133.65"/>
</a>
</g>
</g>
<!-- Node28 -->
<g id="Node000028" class="node">
<title>Node28</title>
<g id="a_Node000028"><a xlink:title=" ">
<polygon fill="#e0e0e0" stroke="#999999" points="1058,-134.5 942,-134.5 942,-115.5 1058,-115.5 1058,-134.5"/>
<text text-anchor="middle" x="1000" y="-122.5" font-family="Helvetica,sans-Serif" font-size="10.00">comp_loaded_decl.h</text>
</a>
</g>
</g>
<!-- Node3&#45;&gt;Node28 -->
<g id="edge36_Node000003_Node000028" class="edge">
<title>Node3&#45;&gt;Node28</title>
<g id="a_edge36_Node000003_Node000028"><a xlink:title=" ">
<path fill="none" stroke="#63b8ff" d="M1374.88,-180.16C1308.51,-173.21 1177.41,-158.5 1067,-140 1060.85,-138.97 1054.4,-137.77 1048.04,-136.52"/>
<polygon fill="#63b8ff" stroke="#63b8ff" points="1048.66,-133.08 1038.17,-134.52 1047.27,-139.94 1048.66,-133.08"/>
</a>
</g>
</g>
<!-- Node29 -->
<g id="Node000029" class="node">
<title>Node29</title>
<g id="a_Node000029"><a xlink:title=" ">
<polygon fill="#e0e0e0" stroke="#999999" points="1154,-134.5 1076,-134.5 1076,-115.5 1154,-115.5 1154,-134.5"/>
<text text-anchor="middle" x="1115" y="-122.5" font-family="Helvetica,sans-Serif" font-size="10.00">comp_decl.h</text>
</a>
</g>
</g>
<!-- Node3&#45;&gt;Node29 -->
<g id="edge37_Node000003_Node000029" class="edge">
<title>Node3&#45;&gt;Node29</title>
<g id="a_edge37_Node000003_Node000029"><a xlink:title=" ">
<path fill="none" stroke="#63b8ff" d="M1374.84,-178.46C1323.9,-170.99 1236.76,-157.14 1163,-140 1159.41,-139.17 1155.68,-138.22 1151.97,-137.23"/>
<polygon fill="#63b8ff" stroke="#63b8ff" points="1152.85,-133.84 1142.28,-134.52 1150.97,-140.58 1152.85,-133.84"/>
</a>
</g>
</g>
<!-- Node30 -->
<g id="Node000030" class="node">
<title>Node30</title>
<g id="a_Node000030"><a xlink:title=" ">
<polygon fill="#e0e0e0" stroke="#999999" points="1280,-134.5 1172,-134.5 1172,-115.5 1280,-115.5 1280,-134.5"/>
<text text-anchor="middle" x="1226" y="-122.5" font-family="Helvetica,sans-Serif" font-size="10.00">info_loaded_decl.h</text>
</a>
</g>
</g>
<!-- Node3&#45;&gt;Node30 -->
<g id="edge38_Node000003_Node000030" class="edge">
<title>Node3&#45;&gt;Node30</title>
<g id="a_edge38_Node000003_Node000030"><a xlink:title=" ">
<path fill="none" stroke="#63b8ff" d="M1390.08,-175.99C1356.81,-165.86 1301.05,-148.87 1263.9,-137.55"/>
<polygon fill="#63b8ff" stroke="#63b8ff" points="1264.54,-134.08 1253.95,-134.52 1262.5,-140.78 1264.54,-134.08"/>
</a>
</g>
</g>
<!-- Node31 -->
<g id="Node000031" class="node">
<title>Node31</title>
<g id="a_Node000031"><a xlink:title=" ">
<polygon fill="#e0e0e0" stroke="#999999" points="1438,-134.5 1298,-134.5 1298,-115.5 1438,-115.5 1438,-134.5"/>
<text text-anchor="middle" x="1368" y="-122.5" font-family="Helvetica,sans-Serif" font-size="10.00">device_mesh_info_decl.h</text>
</a>
</g>
</g>
<!-- Node3&#45;&gt;Node31 -->
<g id="edge39_Node000003_Node000031" class="edge">
<title>Node3&#45;&gt;Node31</title>
<g id="a_edge39_Node000003_Node000031"><a xlink:title=" ">
<path fill="none" stroke="#63b8ff" d="M1410.62,-175.87C1403.09,-167.05 1391.21,-153.16 1381.91,-142.27"/>
<polygon fill="#63b8ff" stroke="#63b8ff" points="1384.57,-140 1375.41,-134.67 1379.24,-144.54 1384.57,-140"/>
</a>
</g>
</g>
<!-- Node32 -->
<g id="Node000032" class="node">
<title>Node32</title>
<g id="a_Node000032"><a xlink:title=" ">
<polygon fill="#e0e0e0" stroke="#999999" points="1533.5,-134.5 1456.5,-134.5 1456.5,-115.5 1533.5,-115.5 1533.5,-134.5"/>
<text text-anchor="middle" x="1495" y="-122.5" font-family="Helvetica,sans-Serif" font-size="10.00">array_decl.h</text>
</a>
</g>
</g>
<!-- Node3&#45;&gt;Node32 -->
<g id="edge40_Node000003_Node000032" class="edge">
<title>Node3&#45;&gt;Node32</title>
<g id="a_edge40_Node000003_Node000032"><a xlink:title=" ">
<path fill="none" stroke="#63b8ff" d="M1429.36,-175.87C1441.42,-166.71 1460.7,-152.06 1475.25,-141.01"/>
<polygon fill="#63b8ff" stroke="#63b8ff" points="1477.75,-143.5 1483.59,-134.67 1473.51,-137.93 1477.75,-143.5"/>
</a>
</g>
</g>
<!-- Node33 -->
<g id="Node000033" class="node">
<title>Node33</title>
<g id="a_Node000033"><a xlink:title=" ">
<polygon fill="#e0e0e0" stroke="#999999" points="1628,-134.5 1552,-134.5 1552,-115.5 1628,-115.5 1628,-134.5"/>
<text text-anchor="middle" x="1590" y="-122.5" font-family="Helvetica,sans-Serif" font-size="10.00">input_decl.h</text>
</a>
</g>
</g>
<!-- Node3&#45;&gt;Node33 -->
<g id="edge41_Node000003_Node000033" class="edge">
<title>Node3&#45;&gt;Node33</title>
<g id="a_edge41_Node000003_Node000033"><a xlink:title=" ">
<path fill="none" stroke="#63b8ff" d="M1443.01,-175.99C1472.56,-165.94 1521.91,-149.16 1555.19,-137.84"/>
<polygon fill="#63b8ff" stroke="#63b8ff" points="1556.62,-141.05 1564.96,-134.52 1554.37,-134.42 1556.62,-141.05"/>
</a>
</g>
</g>
<!-- Node34 -->
<g id="Node000034" class="node">
<title>Node34</title>
<g id="a_Node000034"><a xlink:href="ac__helpers_8h.html" target="_top" xlink:title=" ">
<polygon fill="white" stroke="#666666" points="1724,-134.5 1646,-134.5 1646,-115.5 1724,-115.5 1724,-134.5"/>
<text text-anchor="middle" x="1685" y="-122.5" font-family="Helvetica,sans-Serif" font-size="10.00">ac_helpers.h</text>
</a>
</g>
</g>
<!-- Node3&#45;&gt;Node34 -->
<g id="edge42_Node000003_Node000034" class="edge">
<title>Node3&#45;&gt;Node34</title>
<g id="a_edge42_Node000003_Node000034"><a xlink:title=" ">
<path fill="none" stroke="#63b8ff" d="M1461.04,-176.85C1505.37,-168.72 1576.36,-154.98 1637,-140 1640.39,-139.16 1643.9,-138.24 1647.41,-137.29"/>
<polygon fill="#63b8ff" stroke="#63b8ff" points="1648.51,-140.61 1657.19,-134.54 1646.61,-133.88 1648.51,-140.61"/>
</a>
</g>
</g>
<!-- Node35 -->
<g id="Node000035" class="node">
<title>Node35</title>
<g id="a_Node000035"><a xlink:title=" ">
<polygon fill="#e0e0e0" stroke="#999999" points="1860,-140 1742,-140 1742,-110 1860,-110 1860,-140"/>
<text text-anchor="start" x="1750" y="-128" font-family="Helvetica,sans-Serif" font-size="10.00">scalar_reduce_buffer</text>
<text text-anchor="middle" x="1801" y="-117" font-family="Helvetica,sans-Serif" font-size="10.00">_defs.h</text>
</a>
</g>
</g>
<!-- Node3&#45;&gt;Node35 -->
<g id="edge43_Node000003_Node000035" class="edge">
<title>Node3&#45;&gt;Node35</title>
<g id="a_edge43_Node000003_Node000035"><a xlink:title=" ">
<path fill="none" stroke="#63b8ff" d="M1461.19,-179.27C1520.1,-171.94 1629.18,-157.7 1731.8,-140.15"/>
<polygon fill="#63b8ff" stroke="#63b8ff" points="1732.44,-143.59 1741.7,-138.44 1731.25,-136.69 1732.44,-143.59"/>
</a>
</g>
</g>
<!-- Node36 -->
<g id="Node000036" class="node">
<title>Node36</title>
<g id="a_Node000036"><a xlink:title=" ">
<polygon fill="#e0e0e0" stroke="#999999" points="2001.5,-140 1878.5,-140 1878.5,-110 2001.5,-110 2001.5,-140"/>
<text text-anchor="start" x="1886.5" y="-128" font-family="Helvetica,sans-Serif" font-size="10.00">scalar_reduce_buffers</text>
<text text-anchor="middle" x="1940" y="-117" font-family="Helvetica,sans-Serif" font-size="10.00">_in_vba.h</text>
</a>
</g>
</g>
<!-- Node3&#45;&gt;Node36 -->
<g id="edge44_Node000003_Node000036" class="edge">
<title>Node3&#45;&gt;Node36</title>
<g id="a_edge44_Node000003_Node000036"><a xlink:title=" ">
<path fill="none" stroke="#63b8ff" d="M1461.08,-181.64C1539.79,-176.11 1712.32,-162.59 1868.24,-140.01"/>
<polygon fill="#63b8ff" stroke="#63b8ff" points="1869.1,-143.42 1878.49,-138.51 1868.09,-136.49 1869.1,-143.42"/>
</a>
</g>
</g>
<!-- Node37 -->
<g id="Node000037" class="node">
<title>Node37</title>
<g id="a_Node000037"><a xlink:href="astaroth__analysis_8h.html" target="_top" xlink:title=" ">
<polygon fill="white" stroke="#666666" points="2132,-134.5 2020,-134.5 2020,-115.5 2132,-115.5 2132,-134.5"/>
<text text-anchor="middle" x="2076" y="-122.5" font-family="Helvetica,sans-Serif" font-size="10.00">astaroth_analysis.h</text>
</a>
</g>
</g>
<!-- Node3&#45;&gt;Node37 -->
<g id="edge45_Node000003_Node000037" class="edge">
<title>Node3&#45;&gt;Node37</title>
<g id="a_edge45_Node000003_Node000037"><a xlink:title=" ">
<path fill="none" stroke="#63b8ff" d="M1461.01,-183.3C1559.04,-180.11 1806.39,-169.57 2011,-140 2017.37,-139.08 2024.05,-137.89 2030.61,-136.61"/>
<polygon fill="#63b8ff" stroke="#63b8ff" points="2031.65,-139.96 2040.74,-134.52 2030.24,-133.11 2031.65,-139.96"/>
</a>
</g>
</g>
<!-- Node38 -->
<g id="Node000038" class="node">
<title>Node38</title>
<g id="a_Node000038"><a xlink:href="func__define_8h.html" target="_top" xlink:title=" ">
<polygon fill="white" stroke="#666666" points="2232,-134.5 2150,-134.5 2150,-115.5 2232,-115.5 2232,-134.5"/>
<text text-anchor="middle" x="2191" y="-122.5" font-family="Helvetica,sans-Serif" font-size="10.00">func_define.h</text>
</a>
</g>
</g>
<!-- Node3&#45;&gt;Node38 -->
<g id="edge46_Node000003_Node000038" class="edge">
<title>Node3&#45;&gt;Node38</title>
<g id="a_edge46_Node000003_Node000038"><a xlink:title=" ">
<path fill="none" stroke="#63b8ff" d="M1461.14,-185.01C1573.82,-185.65 1885.86,-183.07 2141,-140 2145.47,-139.25 2150.11,-138.25 2154.69,-137.13"/>
<polygon fill="#63b8ff" stroke="#63b8ff" points="2155.73,-140.47 2164.51,-134.54 2153.95,-133.71 2155.73,-140.47"/>
</a>
</g>
</g>
<!-- Node39 -->
<g id="Node000039" class="node">
<title>Node39</title>
<g id="a_Node000039"><a xlink:href="common__kernels_8h.html" target="_top" xlink:title=" ">
<polygon fill="white" stroke="#666666" points="2359.5,-134.5 2250.5,-134.5 2250.5,-115.5 2359.5,-115.5 2359.5,-134.5"/>
<text text-anchor="middle" x="2305" y="-122.5" font-family="Helvetica,sans-Serif" font-size="10.00">common_kernels.h</text>
</a>
</g>
</g>
<!-- Node3&#45;&gt;Node39 -->
<g id="edge47_Node000003_Node000039" class="edge">
<title>Node3&#45;&gt;Node39</title>
<g id="a_edge47_Node000003_Node000039"><a xlink:title=" ">
<path fill="none" stroke="#63b8ff" d="M1461.07,-184.61C1583.64,-184.41 1944.65,-180.16 2241,-140 2247.43,-139.13 2254.18,-137.95 2260.78,-136.64"/>
<polygon fill="#63b8ff" stroke="#63b8ff" points="2261.9,-139.98 2270.97,-134.51 2260.47,-133.13 2261.9,-139.98"/>
</a>
</g>
</g>
<!-- Node40 -->
<g id="Node000040" class="node">
<title>Node40</title>
<g id="a_Node000040"><a xlink:title=" ">
<polygon fill="#e0e0e0" stroke="#999999" points="2512,-140 2378,-140 2378,-110 2512,-110 2512,-140"/>
<text text-anchor="start" x="2386" y="-128" font-family="Helvetica,sans-Serif" font-size="10.00">load_and_store_uniform</text>
<text text-anchor="middle" x="2445" y="-117" font-family="Helvetica,sans-Serif" font-size="10.00">_header.h</text>
</a>
</g>
</g>
<!-- Node3&#45;&gt;Node40 -->
<g id="edge48_Node000003_Node000040" class="edge">
<title>Node3&#45;&gt;Node40</title>
<g id="a_edge48_Node000003_Node000040"><a xlink:title=" ">
<path fill="none" stroke="#63b8ff" d="M1461.3,-184.56C1594.9,-184.29 2012.63,-180.15 2367.97,-140"/>
<polygon fill="#63b8ff" stroke="#63b8ff" points="2368.4,-143.47 2377.94,-138.86 2367.6,-136.52 2368.4,-143.47"/>
</a>
</g>
</g>
<!-- Node7 -->
<g id="Node000007" class="node">
<title>Node7</title>
<g id="a_Node000007"><a xlink:title=" ">
<polygon fill="#e0e0e0" stroke="#999999" points="2592.5,-19 2479.5,-19 2479.5,0 2592.5,0 2592.5,-19"/>
<text text-anchor="middle" x="2536" y="-7" font-family="Helvetica,sans-Serif" font-size="10.00">cuda_runtime_api.h</text>
</a>
</g>
</g>
<!-- Node6&#45;&gt;Node7 -->
<g id="edge6_Node000006_Node000007" class="edge">
<title>Node6&#45;&gt;Node7</title>
<g id="a_edge6_Node000006_Node000007"><a xlink:title=" ">
<path fill="none" stroke="#63b8ff" d="M2274.13,-54.98C2329.09,-45.65 2417.23,-30.67 2475.87,-20.71"/>
<polygon fill="#63b8ff" stroke="#63b8ff" points="2476.47,-24.16 2485.74,-19.04 2475.29,-17.26 2476.47,-24.16"/>
</a>
</g>
</g>
<!-- Node8 -->
<g id="Node000008" class="node">
<title>Node8</title>
<g id="a_Node000008"><a xlink:title=" ">
<polygon fill="#e0e0e0" stroke="#999999" points="2262,-19 2186,-19 2186,0 2262,0 2262,-19"/>
<text text-anchor="middle" x="2224" y="-7" font-family="Helvetica,sans-Serif" font-size="10.00">cuda_fp16.h</text>
</a>
</g>
</g>
<!-- Node6&#45;&gt;Node8 -->
<g id="edge7_Node000006_Node000008" class="edge">
<title>Node6&#45;&gt;Node8</title>
<g id="a_edge7_Node000006_Node000008"><a xlink:title=" ">
<path fill="none" stroke="#63b8ff" d="M2224,-54.75C2224,-47.8 2224,-37.85 2224,-29.13"/>
<polygon fill="#63b8ff" stroke="#63b8ff" points="2227.5,-29.09 2224,-19.09 2220.5,-29.09 2227.5,-29.09"/>
</a>
</g>
</g>
<!-- Node10&#45;&gt;Node6 -->
<g id="edge12_Node000010_Node000006" class="edge">
<title>Node10&#45;&gt;Node6</title>
<g id="a_edge12_Node000010_Node000006"><a xlink:title=" ">
<path fill="none" stroke="#63b8ff" d="M2653.13,-115.46C2645.68,-113.42 2637.58,-111.43 2630,-110 2481.75,-82.11 2439.82,-92.18 2285.56,-74.01"/>
<polygon fill="#63b8ff" stroke="#63b8ff" points="2285.58,-70.49 2275.24,-72.77 2284.75,-77.44 2285.58,-70.49"/>
</a>
</g>
</g>
<!-- Node10&#45;&gt;Node7 -->
<g id="edge14_Node000010_Node000007" class="edge">
<title>Node10&#45;&gt;Node7</title>
<g id="a_edge14_Node000010_Node000007"><a xlink:title=" ">
<path fill="none" stroke="#63b8ff" d="M2675.61,-115.39C2666.44,-101.29 2646.58,-73.04 2624,-55 2607.3,-41.65 2585.95,-30.74 2568.47,-23.06"/>
<polygon fill="#63b8ff" stroke="#63b8ff" points="2569.78,-19.81 2559.2,-19.13 2567.04,-26.26 2569.78,-19.81"/>
</a>
</g>
</g>
<!-- Node10&#45;&gt;Node9 -->
<g id="edge16_Node000010_Node000009" class="edge">
<title>Node10&#45;&gt;Node9</title>
<g id="a_edge16_Node000010_Node000009"><a xlink:title=" ">
<path fill="none" stroke="#63b8ff" d="M2650,-115.43C2643.4,-113.62 2636.47,-111.74 2630,-110 2586.82,-98.42 2537.37,-85.52 2502.98,-76.6"/>
<polygon fill="#63b8ff" stroke="#63b8ff" points="2503.82,-73.2 2493.26,-74.08 2502.06,-79.98 2503.82,-73.2"/>
</a>
</g>
</g>
<!-- Node11 -->
<g id="Node000011" class="node">
<title>Node11</title>
<g id="a_Node000011"><a xlink:title=" ">
<polygon fill="#e0e0e0" stroke="#999999" points="2870.5,-74 2823.5,-74 2823.5,-55 2870.5,-55 2870.5,-74"/>
<text text-anchor="middle" x="2847" y="-62" font-family="Helvetica,sans-Serif" font-size="10.00">float.h</text>
</a>
</g>
</g>
<!-- Node10&#45;&gt;Node11 -->
<g id="edge10_Node000010_Node000011" class="edge">
<title>Node10&#45;&gt;Node11</title>
<g id="a_edge10_Node000010_Node000011"><a xlink:title=" ">
<path fill="none" stroke="#63b8ff" d="M2705.14,-115.49C2733.7,-105.43 2781.42,-88.61 2813.54,-77.29"/>
<polygon fill="#63b8ff" stroke="#63b8ff" points="2815.1,-80.45 2823.37,-73.83 2812.78,-73.85 2815.1,-80.45"/>
</a>
</g>
</g>
<!-- Node12 -->
<g id="Node000012" class="node">
<title>Node12</title>
<g id="a_Node000012"><a xlink:title=" ">
<polygon fill="#e0e0e0" stroke="#999999" points="2939.5,-74 2888.5,-74 2888.5,-55 2939.5,-55 2939.5,-74"/>
<text text-anchor="middle" x="2914" y="-62" font-family="Helvetica,sans-Serif" font-size="10.00">math.h</text>
</a>
</g>
</g>
<!-- Node10&#45;&gt;Node12 -->
<g id="edge11_Node000010_Node000012" class="edge">
<title>Node10&#45;&gt;Node12</title>
<g id="a_edge11_Node000010_Node000012"><a xlink:title=" ">
<path fill="none" stroke="#63b8ff" d="M2714.88,-115.49C2758.56,-104.53 2834.15,-85.55 2878.57,-74.4"/>
<polygon fill="#63b8ff" stroke="#63b8ff" points="2879.5,-77.77 2888.35,-71.94 2877.8,-70.98 2879.5,-77.77"/>
</a>
</g>
</g>
<!-- Node13 -->
<g id="Node000013" class="node">
<title>Node13</title>
<g id="a_Node000013"><a xlink:title=" ">
<polygon fill="#e0e0e0" stroke="#999999" points="2614.5,-74 2525.5,-74 2525.5,-55 2614.5,-55 2614.5,-74"/>
<text text-anchor="middle" x="2570" y="-62" font-family="Helvetica,sans-Serif" font-size="10.00">vector_types.h</text>
</a>
</g>
</g>
<!-- Node10&#45;&gt;Node13 -->
<g id="edge13_Node000010_Node000013" class="edge">
<title>Node10&#45;&gt;Node13</title>
<g id="a_edge13_Node000010_Node000013"><a xlink:title=" ">
<path fill="none" stroke="#63b8ff" d="M2664.62,-115.37C2646.42,-105.78 2616.8,-90.17 2595.55,-78.97"/>
<polygon fill="#63b8ff" stroke="#63b8ff" points="2596.92,-75.73 2586.45,-74.17 2593.66,-81.93 2596.92,-75.73"/>
</a>
</g>
</g>
<!-- Node14 -->
<g id="Node000014" class="node">
<title>Node14</title>
<g id="a_Node000014"><a xlink:href="acreal_8h.html" target="_top" xlink:title=" ">
<polygon fill="white" stroke="#666666" points="2745,-19 2689,-19 2689,0 2745,0 2745,-19"/>
<text text-anchor="middle" x="2717" y="-7" font-family="Helvetica,sans-Serif" font-size="10.00">acreal.h</text>
</a>
</g>
</g>
<!-- Node10&#45;&gt;Node14 -->
<g id="edge15_Node000010_Node000014" class="edge">
<title>Node10&#45;&gt;Node14</title>
<g id="a_edge15_Node000010_Node000014"><a xlink:title=" ">
<path fill="none" stroke="#63b8ff" d="M2715.89,-115.49C2737.29,-108.27 2763,-95.54 2776,-74 2787.72,-54.59 2765.2,-36.02 2744.68,-24.04"/>
<polygon fill="#63b8ff" stroke="#63b8ff" points="2746.28,-20.92 2735.83,-19.17 2742.9,-27.05 2746.28,-20.92"/>
</a>
</g>
</g>
<!-- Node15 -->
<g id="Node000015" class="node">
<title>Node15</title>
<g id="a_Node000015"><a xlink:title=" ">
<polygon fill="#e0e0e0" stroke="#999999" points="2766.5,-74 2671.5,-74 2671.5,-55 2766.5,-55 2766.5,-74"/>
<text text-anchor="middle" x="2719" y="-62" font-family="Helvetica,sans-Serif" font-size="10.00">user_typedefs.h</text>
</a>
</g>
</g>
<!-- Node10&#45;&gt;Node15 -->
<g id="edge17_Node000010_Node000015" class="edge">
<title>Node10&#45;&gt;Node15</title>
<g id="a_edge17_Node000010_Node000015"><a xlink:title=" ">
<path fill="none" stroke="#63b8ff" d="M2686.61,-115.37C2692.16,-106.81 2700.83,-93.47 2707.8,-82.74"/>
<polygon fill="#63b8ff" stroke="#63b8ff" points="2710.86,-84.46 2713.37,-74.17 2704.99,-80.65 2710.86,-84.46"/>
</a>
</g>
</g>
<!-- Node16 -->
<g id="Node000016" class="node">
<title>Node16</title>
<g id="a_Node000016"><a xlink:href="host__datatypes_8h.html" target="_top" xlink:title=" ">
<polygon fill="white" stroke="#666666" points="2394.5,-74 2293.5,-74 2293.5,-55 2394.5,-55 2394.5,-74"/>
<text text-anchor="middle" x="2344" y="-62" font-family="Helvetica,sans-Serif" font-size="10.00">host_datatypes.h</text>
</a>
</g>
</g>
<!-- Node10&#45;&gt;Node16 -->
<g id="edge18_Node000010_Node000016" class="edge">
<title>Node10&#45;&gt;Node16</title>
<g id="a_edge18_Node000010_Node000016"><a xlink:title=" ">
<path fill="none" stroke="#63b8ff" d="M2652.01,-115.43C2644.86,-113.48 2637.18,-111.54 2630,-110 2588.2,-101.04 2475.64,-84.34 2404.84,-74.14"/>
<polygon fill="#63b8ff" stroke="#63b8ff" points="2405.1,-70.64 2394.71,-72.68 2404.11,-77.57 2405.1,-70.64"/>
</a>
</g>
</g>
<!-- Node16&#45;&gt;Node14 -->
<g id="edge19_Node000016_Node000014" class="edge">
<title>Node16&#45;&gt;Node14</title>
<g id="a_edge19_Node000016_Node000014"><a xlink:title=" ">
<path fill="none" stroke="#63b8ff" d="M2394.69,-56.3C2470.32,-45.55 2611.03,-25.56 2678.7,-15.94"/>
<polygon fill="#63b8ff" stroke="#63b8ff" points="2679.51,-19.36 2688.92,-14.49 2678.52,-12.43 2679.51,-19.36"/>
</a>
</g>
</g>
<!-- Node17 -->
<g id="Node000017" class="node">
<title>Node17</title>
<g id="a_Node000017"><a xlink:title=" ">
<polygon fill="#e0e0e0" stroke="#999999" points="2354,-19 2298,-19 2298,0 2354,0 2354,-19"/>
<text text-anchor="middle" x="2326" y="-7" font-family="Helvetica,sans-Serif" font-size="10.00">stddef.h</text>
</a>
</g>
</g>
<!-- Node16&#45;&gt;Node17 -->
<g id="edge20_Node000016_Node000017" class="edge">
<title>Node16&#45;&gt;Node17</title>
<g id="a_edge20_Node000016_Node000017"><a xlink:title=" ">
<path fill="none" stroke="#63b8ff" d="M2341.03,-54.75C2338.64,-47.72 2335.21,-37.62 2332.23,-28.84"/>
<polygon fill="#63b8ff" stroke="#63b8ff" points="2335.45,-27.43 2328.92,-19.09 2328.82,-29.68 2335.45,-27.43"/>
</a>
</g>
</g>
<!-- Node18&#45;&gt;Node4 -->
<g id="edge26_Node000018_Node000004" class="edge">
<title>Node18&#45;&gt;Node4</title>
<g id="a_edge26_Node000018_Node000004"><a xlink:title=" ">
<path fill="none" stroke="#63b8ff" d="M113.65,-115.37C96.68,-105.82 69.1,-90.31 49.21,-79.12"/>
<polygon fill="#63b8ff" stroke="#63b8ff" points="50.84,-76.02 40.41,-74.17 47.41,-82.12 50.84,-76.02"/>
</a>
</g>
</g>
<!-- Node18&#45;&gt;Node5 -->
<g id="edge24_Node000018_Node000005" class="edge">
<title>Node18&#45;&gt;Node5</title>
<g id="a_edge24_Node000018_Node000005"><a xlink:title=" ">
<path fill="none" stroke="#63b8ff" d="M150.23,-115.49C174.99,-105.57 216.12,-89.09 244.35,-77.78"/>
<polygon fill="#63b8ff" stroke="#63b8ff" points="245.76,-80.99 253.74,-74.02 243.16,-74.49 245.76,-80.99"/>
</a>
</g>
</g>
<!-- Node18&#45;&gt;Node6 -->
<g id="edge29_Node000018_Node000006" class="edge">
<title>Node18&#45;&gt;Node6</title>
<g id="a_edge29_Node000018_Node000006"><a xlink:title=" ">
<path fill="none" stroke="#63b8ff" d="M157.33,-117.59C171.3,-114.71 188.45,-111.61 204,-110 402.59,-89.42 1845.54,-70.25 2162.53,-66.26"/>
<polygon fill="#63b8ff" stroke="#63b8ff" points="2162.94,-69.75 2172.9,-66.13 2162.85,-62.75 2162.94,-69.75"/>
</a>
</g>
</g>
<!-- Node18&#45;&gt;Node16 -->
<g id="edge23_Node000018_Node000016" class="edge">
<title>Node18&#45;&gt;Node16</title>
<g id="a_edge23_Node000018_Node000016"><a xlink:title=" ">
<path fill="none" stroke="#63b8ff" d="M157.33,-117.55C171.3,-114.67 188.45,-111.57 204,-110 1120.51,-17.19 1360.55,-146.03 2283.11,-73.93"/>
<polygon fill="#63b8ff" stroke="#63b8ff" points="2283.62,-77.4 2293.31,-73.13 2283.07,-70.43 2283.62,-77.4"/>
</a>
</g>
</g>
<!-- Node18&#45;&gt;Node17 -->
<g id="edge22_Node000018_Node000017" class="edge">
<title>Node18&#45;&gt;Node17</title>
<g id="a_edge22_Node000018_Node000017"><a xlink:title=" ">
<path fill="none" stroke="#63b8ff" d="M140.35,-115.44C163.22,-98.4 214.43,-61.3 235,-55 451.33,11.29 2045.57,-38.32 2271,-19 2276.48,-18.53 2282.23,-17.85 2287.88,-17.08"/>
<polygon fill="#63b8ff" stroke="#63b8ff" points="2288.44,-20.53 2297.83,-15.61 2287.42,-13.61 2288.44,-20.53"/>
</a>
</g>
</g>
<!-- Node19 -->
<g id="Node000019" class="node">
<title>Node19</title>
<g id="a_Node000019"><a xlink:title=" ">
<polygon fill="#e0e0e0" stroke="#999999" points="1302.5,-74 1249.5,-74 1249.5,-55 1302.5,-55 1302.5,-74"/>
<text text-anchor="middle" x="1276" y="-62" font-family="Helvetica,sans-Serif" font-size="10.00">stdint.h</text>
</a>
</g>
</g>
<!-- Node18&#45;&gt;Node19 -->
<g id="edge25_Node000018_Node000019" class="edge">
<title>Node18&#45;&gt;Node19</title>
<g id="a_edge25_Node000018_Node000019"><a xlink:title=" ">
<path fill="none" stroke="#63b8ff" d="M157.35,-117.72C171.32,-114.87 188.47,-111.76 204,-110 607.65,-64.19 1101.58,-64.14 1239,-65.12"/>
<polygon fill="#63b8ff" stroke="#63b8ff" points="1239.34,-68.63 1249.37,-65.21 1239.4,-61.63 1239.34,-68.63"/>
</a>
</g>
</g>
<!-- Node20 -->
<g id="Node000020" class="node">
<title>Node20</title>
<g id="a_Node000020"><a xlink:title=" ">
<polygon fill="#e0e0e0" stroke="#999999" points="121.5,-74 68.5,-74 68.5,-55 121.5,-55 121.5,-74"/>
<text text-anchor="middle" x="95" y="-62" font-family="Helvetica,sans-Serif" font-size="10.00">stdlib.h</text>
</a>
</g>
</g>
<!-- Node18&#45;&gt;Node20 -->
<g id="edge27_Node000018_Node000020" class="edge">
<title>Node18&#45;&gt;Node20</title>
<g id="a_edge27_Node000018_Node000020"><a xlink:title=" ">
<path fill="none" stroke="#63b8ff" d="M123.98,-115.37C119.06,-106.9 111.41,-93.74 105.21,-83.07"/>
<polygon fill="#63b8ff" stroke="#63b8ff" points="108.09,-81.05 100.04,-74.17 102.04,-84.57 108.09,-81.05"/>
</a>
</g>
</g>
<!-- Node21 -->
<g id="Node000021" class="node">
<title>Node21</title>
<g id="a_Node000021"><a xlink:title=" ">
<polygon fill="#e0e0e0" stroke="#999999" points="188,-74 140,-74 140,-55 188,-55 188,-74"/>
<text text-anchor="middle" x="164" y="-62" font-family="Helvetica,sans-Serif" font-size="10.00">time.h</text>
</a>
</g>
</g>
<!-- Node18&#45;&gt;Node21 -->
<g id="edge28_Node000018_Node000021" class="edge">
<title>Node18&#45;&gt;Node21</title>
<g id="a_edge28_Node000018_Node000021"><a xlink:title=" ">
<path fill="none" stroke="#63b8ff" d="M134.16,-115.37C139.23,-106.9 147.1,-93.74 153.49,-83.07"/>
<polygon fill="#63b8ff" stroke="#63b8ff" points="156.68,-84.55 158.81,-74.17 150.68,-80.95 156.68,-84.55"/>
</a>
</g>
</g>
<!-- Node46&#45;&gt;Node10 -->
<g id="edge55_Node000046_Node000010" class="edge">
<title>Node46&#45;&gt;Node10</title>
<g id="a_edge55_Node000046_Node000010"><a xlink:title=" ">
<path fill="none" stroke="#63b8ff" d="M2598.99,-230.82C2607.03,-221.98 2619.69,-207.8 2630,-195 2643.95,-177.68 2658.98,-157.09 2669.08,-142.94"/>
<polygon fill="#63b8ff" stroke="#63b8ff" points="2672.01,-144.85 2674.94,-134.67 2666.3,-140.8 2672.01,-144.85"/>
</a>
</g>
</g>
<!-- Node46&#45;&gt;Node19 -->
<g id="edge57_Node000046_Node000019" class="edge">
<title>Node46&#45;&gt;Node19</title>
<g id="a_edge57_Node000046_Node000019"><a xlink:title=" ">
<path fill="none" stroke="#63b8ff" d="M2589.38,-230.86C2584.32,-206.66 2566.38,-138.17 2521,-110 2468.39,-77.35 1513.45,-67.5 1312.8,-65.79"/>
<polygon fill="#63b8ff" stroke="#63b8ff" points="1312.79,-62.29 1302.76,-65.71 1312.73,-69.29 1312.79,-62.29"/>
</a>
</g>
</g>
<!-- Node46&#45;&gt;Node45 -->
<g id="edge56_Node000046_Node000045" class="edge">
<title>Node46&#45;&gt;Node45</title>
<g id="a_edge56_Node000046_Node000045"><a xlink:title=" ">
<path fill="none" stroke="#63b8ff" d="M2565.78,-230.98C2539.64,-222.16 2498.6,-208.31 2469.27,-198.41"/>
<polygon fill="#63b8ff" stroke="#63b8ff" points="2470.02,-194.96 2459.42,-195.08 2467.78,-201.6 2470.02,-194.96"/>
</a>
</g>
</g>
</g>
</svg>
