<?xml version="1.0" encoding="UTF-8" standalone="no"?>
<!DOCTYPE svg PUBLIC "-//W3C//DTD SVG 1.1//EN"
 "http://www.w3.org/Graphics/SVG/1.1/DTD/svg11.dtd">
<!-- Generated by graphviz version 2.43.0 (0)
 -->
<!-- Title: src/core/helpers/helpers.cc Pages: 1 -->
<svg width="862pt" height="192pt"
 viewBox="0.00 0.00 862.00 192.00" xmlns="http://www.w3.org/2000/svg" xmlns:xlink="http://www.w3.org/1999/xlink">
<g id="graph0" class="graph" transform="scale(1 1) rotate(0) translate(4 188)">
<title>src/core/helpers/helpers.cc</title>
<!-- Node1 -->
<g id="Node000001" class="node">
<title>Node1</title>
<g id="a_Node000001"><a xlink:title=" ">
<polygon fill="#999999" stroke="#666666" points="542.5,-184 396.5,-184 396.5,-165 542.5,-165 542.5,-184"/>
<text text-anchor="middle" x="469.5" y="-172" font-family="Helvetica,sans-Serif" font-size="10.00">src/core/helpers/helpers.cc</text>
</a>
</g>
</g>
<!-- Node2 -->
<g id="Node000002" class="node">
<title>Node2</title>
<g id="a_Node000002"><a xlink:href="host__datatypes_8h.html" target="_top" xlink:title=" ">
<polygon fill="white" stroke="#666666" points="322,-74 221,-74 221,-55 322,-55 322,-74"/>
<text text-anchor="middle" x="271.5" y="-62" font-family="Helvetica,sans-Serif" font-size="10.00">host_datatypes.h</text>
</a>
</g>
</g>
<!-- Node1&#45;&gt;Node2 -->
<g id="edge1_Node000001_Node000002" class="edge">
<title>Node1&#45;&gt;Node2</title>
<g id="a_edge1_Node000001_Node000002"><a xlink:title=" ">
<path fill="none" stroke="#63b8ff" d="M449.52,-164.94C430.07,-156.42 399.82,-142.68 374.5,-129 345.49,-113.33 313.33,-93 292.79,-79.62"/>
<polygon fill="#63b8ff" stroke="#63b8ff" points="294.51,-76.56 284.23,-74 290.67,-82.41 294.51,-76.56"/>
</a>
</g>
</g>
<!-- Node5 -->
<g id="Node000005" class="node">
<title>Node5</title>
<g id="a_Node000005"><a xlink:href="device__headers_8h.html" target="_top" xlink:title=" ">
<polygon fill="white" stroke="#666666" points="202.5,-74 100.5,-74 100.5,-55 202.5,-55 202.5,-74"/>
<text text-anchor="middle" x="151.5" y="-62" font-family="Helvetica,sans-Serif" font-size="10.00">device_headers.h</text>
</a>
</g>
</g>
<!-- Node1&#45;&gt;Node5 -->
<g id="edge4_Node000001_Node000005" class="edge">
<title>Node1&#45;&gt;Node5</title>
<g id="a_edge4_Node000001_Node000005"><a xlink:title=" ">
<path fill="none" stroke="#63b8ff" d="M396.48,-173.91C312.62,-172.64 182.6,-164.75 151.5,-129 141,-116.92 142.41,-98.12 145.6,-84.11"/>
<polygon fill="#63b8ff" stroke="#63b8ff" points="149.07,-84.68 148.34,-74.11 142.32,-82.83 149.07,-84.68"/>
</a>
</g>
</g>
<!-- Node8 -->
<g id="Node000008" class="node">
<title>Node8</title>
<g id="a_Node000008"><a xlink:href="ac__helpers_8h.html" target="_top" xlink:title=" ">
<polygon fill="white" stroke="#666666" points="551.5,-129 473.5,-129 473.5,-110 551.5,-110 551.5,-129"/>
<text text-anchor="middle" x="512.5" y="-117" font-family="Helvetica,sans-Serif" font-size="10.00">ac_helpers.h</text>
</a>
</g>
</g>
<!-- Node1&#45;&gt;Node8 -->
<g id="edge7_Node000001_Node000008" class="edge">
<title>Node1&#45;&gt;Node8</title>
<g id="a_edge7_Node000001_Node000008"><a xlink:title=" ">
<path fill="none" stroke="#63b8ff" d="M476.6,-164.75C482.67,-157.26 491.59,-146.28 499.01,-137.13"/>
<polygon fill="#63b8ff" stroke="#63b8ff" points="501.95,-139.06 505.53,-129.09 496.51,-134.65 501.95,-139.06"/>
</a>
</g>
</g>
<!-- Node9 -->
<g id="Node000009" class="node">
<title>Node9</title>
<g id="a_Node000009"><a xlink:title=" ">
<polygon fill="#e0e0e0" stroke="#999999" points="657,-129 570,-129 570,-110 657,-110 657,-129"/>
<text text-anchor="middle" x="613.5" y="-117" font-family="Helvetica,sans-Serif" font-size="10.00">sys/resource.h</text>
</a>
</g>
</g>
<!-- Node1&#45;&gt;Node9 -->
<g id="edge8_Node000001_Node000009" class="edge">
<title>Node1&#45;&gt;Node9</title>
<g id="a_edge8_Node000001_Node000009"><a xlink:title=" ">
<path fill="none" stroke="#63b8ff" d="M492.64,-164.98C516.32,-156.27 553.37,-142.63 580.21,-132.75"/>
<polygon fill="#63b8ff" stroke="#63b8ff" points="581.77,-135.91 589.94,-129.17 579.35,-129.34 581.77,-135.91"/>
</a>
</g>
</g>
<!-- Node10 -->
<g id="Node000010" class="node">
<title>Node10</title>
<g id="a_Node000010"><a xlink:href="astaroth__cuda__wrappers_8h.html" target="_top" xlink:title=" ">
<polygon fill="white" stroke="#666666" points="305,-129 160,-129 160,-110 305,-110 305,-129"/>
<text text-anchor="middle" x="232.5" y="-117" font-family="Helvetica,sans-Serif" font-size="10.00">astaroth_cuda_wrappers.h</text>
</a>
</g>
</g>
<!-- Node1&#45;&gt;Node10 -->
<g id="edge9_Node000001_Node000010" class="edge">
<title>Node1&#45;&gt;Node10</title>
<g id="a_edge9_Node000001_Node000010"><a xlink:title=" ">
<path fill="none" stroke="#63b8ff" d="M431.42,-164.98C390.51,-155.84 325.39,-141.27 280.88,-131.32"/>
<polygon fill="#63b8ff" stroke="#63b8ff" points="281.4,-127.85 270.88,-129.08 279.87,-134.68 281.4,-127.85"/>
</a>
</g>
</g>
<!-- Node11 -->
<g id="Node000011" class="node">
<title>Node11</title>
<g id="a_Node000011"><a xlink:title=" ">
<polygon fill="#e0e0e0" stroke="#999999" points="390.5,-74 340.5,-74 340.5,-55 390.5,-55 390.5,-74"/>
<text text-anchor="middle" x="365.5" y="-62" font-family="Helvetica,sans-Serif" font-size="10.00">stdio.h</text>
</a>
</g>
</g>
<!-- Node1&#45;&gt;Node11 -->
<g id="edge11_Node000001_Node000011" class="edge">
<title>Node1&#45;&gt;Node11</title>
<g id="a_edge11_Node000001_Node000011"><a xlink:title=" ">
<path fill="none" stroke="#63b8ff" d="M445.19,-164.91C427.88,-157.71 405.18,-145.86 390.5,-129 379.33,-116.17 372.82,-97.75 369.26,-84.05"/>
<polygon fill="#63b8ff" stroke="#63b8ff" points="372.67,-83.23 367.01,-74.27 365.85,-84.8 372.67,-83.23"/>
</a>
</g>
</g>
<!-- Node12 -->
<g id="Node000012" class="node">
<title>Node12</title>
<g id="a_Node000012"><a xlink:title=" ">
<polygon fill="#e0e0e0" stroke="#999999" points="726,-129 675,-129 675,-110 726,-110 726,-129"/>
<text text-anchor="middle" x="700.5" y="-117" font-family="Helvetica,sans-Serif" font-size="10.00">math.h</text>
</a>
</g>
</g>
<!-- Node1&#45;&gt;Node12 -->
<g id="edge12_Node000001_Node000012" class="edge">
<title>Node1&#45;&gt;Node12</title>
<g id="a_edge12_Node000001_Node000012"><a xlink:title=" ">
<path fill="none" stroke="#63b8ff" d="M508.43,-164.98C546.12,-156.67 605.12,-143.51 664.91,-129.34"/>
<polygon fill="#63b8ff" stroke="#63b8ff" points="665.98,-132.69 674.9,-126.97 664.36,-125.87 665.98,-132.69"/>
</a>
</g>
</g>
<!-- Node13 -->
<g id="Node000013" class="node">
<title>Node13</title>
<g id="a_Node000013"><a xlink:href="errchk_8h.html" target="_top" xlink:title="Brief info.">
<polygon fill="white" stroke="#666666" points="455.5,-129 399.5,-129 399.5,-110 455.5,-110 455.5,-129"/>
<text text-anchor="middle" x="427.5" y="-117" font-family="Helvetica,sans-Serif" font-size="10.00">errchk.h</text>
</a>
</g>
</g>
<!-- Node1&#45;&gt;Node13 -->
<g id="edge13_Node000001_Node000013" class="edge">
<title>Node1&#45;&gt;Node13</title>
<g id="a_edge13_Node000001_Node000013"><a xlink:title=" ">
<path fill="none" stroke="#63b8ff" d="M462.56,-164.75C456.63,-157.26 447.93,-146.28 440.68,-137.13"/>
<polygon fill="#63b8ff" stroke="#63b8ff" points="443.26,-134.75 434.31,-129.09 437.77,-139.1 443.26,-134.75"/>
</a>
</g>
</g>
<!-- Node18 -->
<g id="Node000018" class="node">
<title>Node18</title>
<g id="a_Node000018"><a xlink:title=" ">
<polygon fill="#e0e0e0" stroke="#999999" points="788.5,-129 744.5,-129 744.5,-110 788.5,-110 788.5,-129"/>
<text text-anchor="middle" x="766.5" y="-117" font-family="Helvetica,sans-Serif" font-size="10.00">cfloat</text>
</a>
</g>
</g>
<!-- Node1&#45;&gt;Node18 -->
<g id="edge22_Node000001_Node000018" class="edge">
<title>Node1&#45;&gt;Node18</title>
<g id="a_edge22_Node000001_Node000018"><a xlink:title=" ">
<path fill="none" stroke="#63b8ff" d="M531.39,-164.97C583.19,-157.42 659.23,-145.37 734.14,-129.12"/>
<polygon fill="#63b8ff" stroke="#63b8ff" points="735.2,-132.47 744.22,-126.9 733.7,-125.63 735.2,-132.47"/>
</a>
</g>
</g>
<!-- Node19 -->
<g id="Node000019" class="node">
<title>Node19</title>
<g id="a_Node000019"><a xlink:title=" ">
<polygon fill="#e0e0e0" stroke="#999999" points="854,-129 807,-129 807,-110 854,-110 854,-129"/>
<text text-anchor="middle" x="830.5" y="-117" font-family="Helvetica,sans-Serif" font-size="10.00">fenv.h</text>
</a>
</g>
</g>
<!-- Node1&#45;&gt;Node19 -->
<g id="edge23_Node000001_Node000019" class="edge">
<title>Node1&#45;&gt;Node19</title>
<g id="a_edge23_Node000001_Node000019"><a xlink:title=" ">
<path fill="none" stroke="#63b8ff" d="M542.53,-166.08C606.99,-158.96 703.63,-146.9 796.9,-128.9"/>
<polygon fill="#63b8ff" stroke="#63b8ff" points="797.64,-132.32 806.78,-126.96 796.3,-125.45 797.64,-132.32"/>
</a>
</g>
</g>
<!-- Node3 -->
<g id="Node000003" class="node">
<title>Node3</title>
<g id="a_Node000003"><a xlink:href="acreal_8h.html" target="_top" xlink:title=" ">
<polygon fill="white" stroke="#666666" points="299.5,-19 243.5,-19 243.5,0 299.5,0 299.5,-19"/>
<text text-anchor="middle" x="271.5" y="-7" font-family="Helvetica,sans-Serif" font-size="10.00">acreal.h</text>
</a>
</g>
</g>
<!-- Node2&#45;&gt;Node3 -->
<g id="edge2_Node000002_Node000003" class="edge">
<title>Node2&#45;&gt;Node3</title>
<g id="a_edge2_Node000002_Node000003"><a xlink:title=" ">
<path fill="none" stroke="#63b8ff" d="M271.5,-54.75C271.5,-47.8 271.5,-37.85 271.5,-29.13"/>
<polygon fill="#63b8ff" stroke="#63b8ff" points="275,-29.09 271.5,-19.09 268,-29.09 275,-29.09"/>
</a>
</g>
</g>
<!-- Node4 -->
<g id="Node000004" class="node">
<title>Node4</title>
<g id="a_Node000004"><a xlink:title=" ">
<polygon fill="#e0e0e0" stroke="#999999" points="442.5,-19 386.5,-19 386.5,0 442.5,0 442.5,-19"/>
<text text-anchor="middle" x="414.5" y="-7" font-family="Helvetica,sans-Serif" font-size="10.00">stddef.h</text>
</a>
</g>
</g>
<!-- Node2&#45;&gt;Node4 -->
<g id="edge3_Node000002_Node000004" class="edge">
<title>Node2&#45;&gt;Node4</title>
<g id="a_edge3_Node000002_Node000004"><a xlink:title=" ">
<path fill="none" stroke="#63b8ff" d="M294.48,-54.98C318,-46.27 354.79,-32.63 381.44,-22.75"/>
<polygon fill="#63b8ff" stroke="#63b8ff" points="382.95,-25.93 391.11,-19.17 380.51,-19.36 382.95,-25.93"/>
</a>
</g>
</g>
<!-- Node6 -->
<g id="Node000006" class="node">
<title>Node6</title>
<g id="a_Node000006"><a xlink:title=" ">
<polygon fill="#e0e0e0" stroke="#999999" points="113,-19 0,-19 0,0 113,0 113,-19"/>
<text text-anchor="middle" x="56.5" y="-7" font-family="Helvetica,sans-Serif" font-size="10.00">cuda_runtime_api.h</text>
</a>
</g>
</g>
<!-- Node5&#45;&gt;Node6 -->
<g id="edge5_Node000005_Node000006" class="edge">
<title>Node5&#45;&gt;Node6</title>
<g id="a_edge5_Node000005_Node000006"><a xlink:title=" ">
<path fill="none" stroke="#63b8ff" d="M136.24,-54.98C121.37,-46.69 98.52,-33.94 81.08,-24.22"/>
<polygon fill="#63b8ff" stroke="#63b8ff" points="82.48,-20.99 72.04,-19.17 79.07,-27.1 82.48,-20.99"/>
</a>
</g>
</g>
<!-- Node7 -->
<g id="Node000007" class="node">
<title>Node7</title>
<g id="a_Node000007"><a xlink:title=" ">
<polygon fill="#e0e0e0" stroke="#999999" points="207.5,-19 131.5,-19 131.5,0 207.5,0 207.5,-19"/>
<text text-anchor="middle" x="169.5" y="-7" font-family="Helvetica,sans-Serif" font-size="10.00">cuda_fp16.h</text>
</a>
</g>
</g>
<!-- Node5&#45;&gt;Node7 -->
<g id="edge6_Node000005_Node000007" class="edge">
<title>Node5&#45;&gt;Node7</title>
<g id="a_edge6_Node000005_Node000007"><a xlink:title=" ">
<path fill="none" stroke="#63b8ff" d="M154.47,-54.75C156.86,-47.72 160.29,-37.62 163.27,-28.84"/>
<polygon fill="#63b8ff" stroke="#63b8ff" points="166.68,-29.68 166.58,-19.09 160.05,-27.43 166.68,-29.68"/>
</a>
</g>
</g>
<!-- Node10&#45;&gt;Node5 -->
<g id="edge10_Node000010_Node000005" class="edge">
<title>Node10&#45;&gt;Node5</title>
<g id="a_edge10_Node000010_Node000005"><a xlink:title=" ">
<path fill="none" stroke="#63b8ff" d="M219.49,-109.98C207.04,-101.84 188.04,-89.41 173.29,-79.76"/>
<polygon fill="#63b8ff" stroke="#63b8ff" points="175.04,-76.72 164.75,-74.17 171.2,-82.57 175.04,-76.72"/>
</a>
</g>
</g>
<!-- Node13&#45;&gt;Node2 -->
<g id="edge15_Node000013_Node000002" class="edge">
<title>Node13&#45;&gt;Node2</title>
<g id="a_edge15_Node000013_Node000002"><a xlink:title=" ">
<path fill="none" stroke="#63b8ff" d="M402.44,-109.98C376.47,-101.16 335.69,-87.31 306.54,-77.41"/>
<polygon fill="#63b8ff" stroke="#63b8ff" points="307.35,-73.99 296.76,-74.08 305.1,-80.61 307.35,-73.99"/>
</a>
</g>
</g>
<!-- Node13&#45;&gt;Node4 -->
<g id="edge14_Node000013_Node000004" class="edge">
<title>Node13&#45;&gt;Node4</title>
<g id="a_edge14_Node000013_Node000004"><a xlink:title=" ">
<path fill="none" stroke="#63b8ff" d="M439.06,-109.8C453.39,-97.88 474.86,-75.58 465.5,-55 459.88,-42.63 448.93,-32.36 438.61,-24.81"/>
<polygon fill="#63b8ff" stroke="#63b8ff" points="440.47,-21.84 430.23,-19.12 436.54,-27.63 440.47,-21.84"/>
</a>
</g>
</g>
<!-- Node13&#45;&gt;Node5 -->
<g id="edge21_Node000013_Node000005" class="edge">
<title>Node13&#45;&gt;Node5</title>
<g id="a_edge21_Node000013_Node000005"><a xlink:title=" ">
<path fill="none" stroke="#63b8ff" d="M399.26,-113.08C353.9,-104.37 264.01,-87.1 205.88,-75.94"/>
<polygon fill="#63b8ff" stroke="#63b8ff" points="206.25,-72.45 195.77,-74 204.93,-79.32 206.25,-72.45"/>
</a>
</g>
</g>
<!-- Node13&#45;&gt;Node11 -->
<g id="edge18_Node000013_Node000011" class="edge">
<title>Node13&#45;&gt;Node11</title>
<g id="a_edge18_Node000013_Node000011"><a xlink:title=" ">
<path fill="none" stroke="#63b8ff" d="M417.54,-109.98C408.37,-102.15 394.56,-90.34 383.47,-80.86"/>
<polygon fill="#63b8ff" stroke="#63b8ff" points="385.52,-78.01 375.64,-74.17 380.97,-83.33 385.52,-78.01"/>
</a>
</g>
</g>
<!-- Node14 -->
<g id="Node000014" class="node">
<title>Node14</title>
<g id="a_Node000014"><a xlink:title=" ">
<polygon fill="#e0e0e0" stroke="#999999" points="574.5,-74 512.5,-74 512.5,-55 574.5,-55 574.5,-74"/>
<text text-anchor="middle" x="543.5" y="-62" font-family="Helvetica,sans-Serif" font-size="10.00">stdbool.h</text>
</a>
</g>
</g>
<!-- Node13&#45;&gt;Node14 -->
<g id="edge16_Node000013_Node000014" class="edge">
<title>Node13&#45;&gt;Node14</title>
<g id="a_edge16_Node000013_Node000014"><a xlink:title=" ">
<path fill="none" stroke="#63b8ff" d="M446.14,-109.98C464.8,-101.46 493.75,-88.23 515.24,-78.41"/>
<polygon fill="#63b8ff" stroke="#63b8ff" points="516.88,-81.51 524.52,-74.17 513.97,-75.14 516.88,-81.51"/>
</a>
</g>
</g>
<!-- Node15 -->
<g id="Node000015" class="node">
<title>Node15</title>
<g id="a_Node000015"><a xlink:title=" ">
<polygon fill="#e0e0e0" stroke="#999999" points="646,-74 593,-74 593,-55 646,-55 646,-74"/>
<text text-anchor="middle" x="619.5" y="-62" font-family="Helvetica,sans-Serif" font-size="10.00">stdint.h</text>
</a>
</g>
</g>
<!-- Node13&#45;&gt;Node15 -->
<g id="edge17_Node000013_Node000015" class="edge">
<title>Node13&#45;&gt;Node15</title>
<g id="a_edge17_Node000013_Node000015"><a xlink:title=" ">
<path fill="none" stroke="#63b8ff" d="M455.83,-110.68C489.58,-101.36 546.04,-85.78 583.03,-75.57"/>
<polygon fill="#63b8ff" stroke="#63b8ff" points="584.2,-78.87 592.91,-72.84 582.34,-72.13 584.2,-78.87"/>
</a>
</g>
</g>
<!-- Node16 -->
<g id="Node000016" class="node">
<title>Node16</title>
<g id="a_Node000016"><a xlink:title=" ">
<polygon fill="#e0e0e0" stroke="#999999" points="717,-74 664,-74 664,-55 717,-55 717,-74"/>
<text text-anchor="middle" x="690.5" y="-62" font-family="Helvetica,sans-Serif" font-size="10.00">stdlib.h</text>
</a>
</g>
</g>
<!-- Node13&#45;&gt;Node16 -->
<g id="edge19_Node000013_Node000016" class="edge">
<title>Node13&#45;&gt;Node16</title>
<g id="a_edge19_Node000013_Node000016"><a xlink:title=" ">
<path fill="none" stroke="#63b8ff" d="M455.76,-111.89C458.71,-111.23 461.66,-110.59 464.5,-110 546,-92.96 569.38,-92.23 654,-74.24"/>
<polygon fill="#63b8ff" stroke="#63b8ff" points="654.74,-77.66 663.78,-72.14 653.27,-70.82 654.74,-77.66"/>
</a>
</g>
</g>
<!-- Node17 -->
<g id="Node000017" class="node">
<title>Node17</title>
<g id="a_Node000017"><a xlink:title=" ">
<polygon fill="#e0e0e0" stroke="#999999" points="456.5,-74 408.5,-74 408.5,-55 456.5,-55 456.5,-74"/>
<text text-anchor="middle" x="432.5" y="-62" font-family="Helvetica,sans-Serif" font-size="10.00">time.h</text>
</a>
</g>
</g>
<!-- Node13&#45;&gt;Node17 -->
<g id="edge20_Node000013_Node000017" class="edge">
<title>Node13&#45;&gt;Node17</title>
<g id="a_edge20_Node000013_Node000017"><a xlink:title=" ">
<path fill="none" stroke="#63b8ff" d="M428.33,-109.75C428.98,-102.8 429.92,-92.85 430.74,-84.13"/>
<polygon fill="#63b8ff" stroke="#63b8ff" points="434.23,-84.37 431.69,-74.09 427.27,-83.72 434.23,-84.37"/>
</a>
</g>
</g>
</g>
</svg>
