<?xml version="1.0" encoding="UTF-8" standalone="no"?>
<!DOCTYPE svg PUBLIC "-//W3C//DTD SVG 1.1//EN"
 "http://www.w3.org/Graphics/SVG/1.1/DTD/svg11.dtd">
<!-- Generated by graphviz version 2.43.0 (0)
 -->
<!-- Title: src/core/helpers/device.cc Pages: 1 -->
<svg width="678pt" height="247pt"
 viewBox="0.00 0.00 677.63 247.00" xmlns="http://www.w3.org/2000/svg" xmlns:xlink="http://www.w3.org/1999/xlink">
<g id="graph0" class="graph" transform="scale(1 1) rotate(0) translate(4 243)">
<title>src/core/helpers/device.cc</title>
<!-- Node1 -->
<g id="Node000001" class="node">
<title>Node1</title>
<g id="a_Node000001"><a xlink:title=" ">
<polygon fill="#999999" stroke="#666666" points="299.13,-239 156.13,-239 156.13,-220 299.13,-220 299.13,-239"/>
<text text-anchor="middle" x="227.63" y="-227" font-family="Helvetica,sans-Serif" font-size="10.00">src/core/helpers/device.cc</text>
</a>
</g>
</g>
<!-- Node2 -->
<g id="Node000002" class="node">
<title>Node2</title>
<g id="a_Node000002"><a xlink:title=" ">
<polygon fill="#e0e0e0" stroke="#999999" points="362.63,-129 312.63,-129 312.63,-110 362.63,-110 362.63,-129"/>
<text text-anchor="middle" x="337.63" y="-117" font-family="Helvetica,sans-Serif" font-size="10.00">stdio.h</text>
</a>
</g>
</g>
<!-- Node1&#45;&gt;Node2 -->
<g id="edge1_Node000001_Node000002" class="edge">
<title>Node1&#45;&gt;Node2</title>
<g id="a_edge1_Node000001_Node000002"><a xlink:title=" ">
<path fill="none" stroke="#63b8ff" d="M266.03,-219.87C286.39,-213.35 310.11,-202.28 324.63,-184 334.58,-171.47 337.49,-153.27 338.11,-139.56"/>
<polygon fill="#63b8ff" stroke="#63b8ff" points="341.61,-139.36 338.19,-129.33 334.61,-139.3 341.61,-139.36"/>
</a>
</g>
</g>
<!-- Node3 -->
<g id="Node000003" class="node">
<title>Node3</title>
<g id="a_Node000003"><a xlink:href="ac__helpers_8h.html" target="_top" xlink:title=" ">
<polygon fill="white" stroke="#666666" points="98.63,-184 20.63,-184 20.63,-165 98.63,-165 98.63,-184"/>
<text text-anchor="middle" x="59.63" y="-172" font-family="Helvetica,sans-Serif" font-size="10.00">ac_helpers.h</text>
</a>
</g>
</g>
<!-- Node1&#45;&gt;Node3 -->
<g id="edge2_Node000001_Node000003" class="edge">
<title>Node1&#45;&gt;Node3</title>
<g id="a_edge2_Node000001_Node000003"><a xlink:title=" ">
<path fill="none" stroke="#63b8ff" d="M200.64,-219.98C172.43,-211.09 127.99,-197.07 96.55,-187.15"/>
<polygon fill="#63b8ff" stroke="#63b8ff" points="97.43,-183.75 86.84,-184.08 95.32,-190.43 97.43,-183.75"/>
</a>
</g>
</g>
<!-- Node4 -->
<g id="Node000004" class="node">
<title>Node4</title>
<g id="a_Node000004"><a xlink:href="acreal_8h.html" target="_top" xlink:title=" ">
<polygon fill="white" stroke="#666666" points="60.63,-74 4.63,-74 4.63,-55 60.63,-55 60.63,-74"/>
<text text-anchor="middle" x="32.63" y="-62" font-family="Helvetica,sans-Serif" font-size="10.00">acreal.h</text>
</a>
</g>
</g>
<!-- Node1&#45;&gt;Node4 -->
<g id="edge14_Node000001_Node000004" class="edge">
<title>Node1&#45;&gt;Node4</title>
<g id="a_edge14_Node000001_Node000004"><a xlink:title=" ">
<path fill="none" stroke="#63b8ff" d="M155.97,-223.32C100.34,-217.64 29.71,-206.19 11.63,-184 -12.14,-154.83 7.93,-108.06 21.92,-82.88"/>
<polygon fill="#63b8ff" stroke="#63b8ff" points="25.03,-84.49 27.05,-74.09 18.99,-80.96 25.03,-84.49"/>
</a>
</g>
</g>
<!-- Node5 -->
<g id="Node000005" class="node">
<title>Node5</title>
<g id="a_Node000005"><a xlink:href="device__headers_8h.html" target="_top" xlink:title=" ">
<polygon fill="white" stroke="#666666" points="180.63,-74 78.63,-74 78.63,-55 180.63,-55 180.63,-74"/>
<text text-anchor="middle" x="129.63" y="-62" font-family="Helvetica,sans-Serif" font-size="10.00">device_headers.h</text>
</a>
</g>
</g>
<!-- Node1&#45;&gt;Node5 -->
<g id="edge17_Node000001_Node000005" class="edge">
<title>Node1&#45;&gt;Node5</title>
<g id="a_edge17_Node000001_Node000005"><a xlink:title=" ">
<path fill="none" stroke="#63b8ff" d="M198.31,-219.86C180.49,-213.04 158.87,-201.68 146.63,-184 125.81,-153.92 125.58,-109.17 127.48,-84.16"/>
<polygon fill="#63b8ff" stroke="#63b8ff" points="130.96,-84.46 128.43,-74.17 123.99,-83.8 130.96,-84.46"/>
</a>
</g>
</g>
<!-- Node8 -->
<g id="Node000008" class="node">
<title>Node8</title>
<g id="a_Node000008"><a xlink:href="host__datatypes_8h.html" target="_top" xlink:title=" ">
<polygon fill="white" stroke="#666666" points="294.13,-129 193.13,-129 193.13,-110 294.13,-110 294.13,-129"/>
<text text-anchor="middle" x="243.63" y="-117" font-family="Helvetica,sans-Serif" font-size="10.00">host_datatypes.h</text>
</a>
</g>
</g>
<!-- Node1&#45;&gt;Node8 -->
<g id="edge27_Node000001_Node000008" class="edge">
<title>Node1&#45;&gt;Node8</title>
<g id="a_edge27_Node000001_Node000008"><a xlink:title=" ">
<path fill="none" stroke="#63b8ff" d="M259.85,-219.92C277.89,-213.29 298.86,-202.09 309.63,-184 321.85,-163.46 296.98,-145.15 274.35,-133.53"/>
<polygon fill="#63b8ff" stroke="#63b8ff" points="275.75,-130.33 265.23,-129.12 272.71,-136.63 275.75,-130.33"/>
</a>
</g>
</g>
<!-- Node13 -->
<g id="Node000013" class="node">
<title>Node13</title>
<g id="a_Node000013"><a xlink:href="astaroth__cuda__wrappers_8h.html" target="_top" xlink:title=" ">
<polygon fill="white" stroke="#666666" points="300.13,-184 155.13,-184 155.13,-165 300.13,-165 300.13,-184"/>
<text text-anchor="middle" x="227.63" y="-172" font-family="Helvetica,sans-Serif" font-size="10.00">astaroth_cuda_wrappers.h</text>
</a>
</g>
</g>
<!-- Node1&#45;&gt;Node13 -->
<g id="edge15_Node000001_Node000013" class="edge">
<title>Node1&#45;&gt;Node13</title>
<g id="a_edge15_Node000001_Node000013"><a xlink:title=" ">
<path fill="none" stroke="#63b8ff" d="M227.63,-219.75C227.63,-212.8 227.63,-202.85 227.63,-194.13"/>
<polygon fill="#63b8ff" stroke="#63b8ff" points="231.13,-194.09 227.63,-184.09 224.13,-194.09 231.13,-194.09"/>
</a>
</g>
</g>
<!-- Node14 -->
<g id="Node000014" class="node">
<title>Node14</title>
<g id="a_Node000014"><a xlink:href="errchk_8h.html" target="_top" xlink:title="Brief info.">
<polygon fill="white" stroke="#666666" points="506.63,-184 450.63,-184 450.63,-165 506.63,-165 506.63,-184"/>
<text text-anchor="middle" x="478.63" y="-172" font-family="Helvetica,sans-Serif" font-size="10.00">errchk.h</text>
</a>
</g>
</g>
<!-- Node1&#45;&gt;Node14 -->
<g id="edge18_Node000001_Node000014" class="edge">
<title>Node1&#45;&gt;Node14</title>
<g id="a_edge18_Node000001_Node000014"><a xlink:title=" ">
<path fill="none" stroke="#63b8ff" d="M267.96,-219.98C315.5,-209.95 393.91,-193.39 440.48,-183.56"/>
<polygon fill="#63b8ff" stroke="#63b8ff" points="441.42,-186.94 450.48,-181.45 439.97,-180.09 441.42,-186.94"/>
</a>
</g>
</g>
<!-- Node3&#45;&gt;Node4 -->
<g id="edge3_Node000003_Node000004" class="edge">
<title>Node3&#45;&gt;Node4</title>
<g id="a_edge3_Node000003_Node000004"><a xlink:title=" ">
<path fill="none" stroke="#63b8ff" d="M57.42,-164.66C53.03,-147.09 43.12,-107.45 37.24,-83.95"/>
<polygon fill="#63b8ff" stroke="#63b8ff" points="40.62,-83.01 34.8,-74.16 33.83,-84.71 40.62,-83.01"/>
</a>
</g>
</g>
<!-- Node3&#45;&gt;Node5 -->
<g id="edge4_Node000003_Node000005" class="edge">
<title>Node3&#45;&gt;Node5</title>
<g id="a_edge4_Node000003_Node000005"><a xlink:title=" ">
<path fill="none" stroke="#63b8ff" d="M65.36,-164.66C76.95,-146.77 103.38,-106 118.49,-82.69"/>
<polygon fill="#63b8ff" stroke="#63b8ff" points="121.52,-84.45 124.02,-74.16 115.64,-80.65 121.52,-84.45"/>
</a>
</g>
</g>
<!-- Node3&#45;&gt;Node8 -->
<g id="edge7_Node000003_Node000008" class="edge">
<title>Node3&#45;&gt;Node8</title>
<g id="a_edge7_Node000003_Node000008"><a xlink:title=" ">
<path fill="none" stroke="#63b8ff" d="M89.19,-164.98C120.35,-156.01 169.6,-141.82 204.09,-131.89"/>
<polygon fill="#63b8ff" stroke="#63b8ff" points="205.2,-135.21 213.84,-129.08 203.26,-128.49 205.2,-135.21"/>
</a>
</g>
</g>
<!-- Node6 -->
<g id="Node000006" class="node">
<title>Node6</title>
<g id="a_Node000006"><a xlink:title=" ">
<polygon fill="#e0e0e0" stroke="#999999" points="130.13,-19 17.13,-19 17.13,0 130.13,0 130.13,-19"/>
<text text-anchor="middle" x="73.63" y="-7" font-family="Helvetica,sans-Serif" font-size="10.00">cuda_runtime_api.h</text>
</a>
</g>
</g>
<!-- Node5&#45;&gt;Node6 -->
<g id="edge5_Node000005_Node000006" class="edge">
<title>Node5&#45;&gt;Node6</title>
<g id="a_edge5_Node000005_Node000006"><a xlink:title=" ">
<path fill="none" stroke="#63b8ff" d="M120.63,-54.98C112.44,-47.23 100.13,-35.58 90.16,-26.14"/>
<polygon fill="#63b8ff" stroke="#63b8ff" points="92.46,-23.5 82.79,-19.17 87.65,-28.59 92.46,-23.5"/>
</a>
</g>
</g>
<!-- Node7 -->
<g id="Node000007" class="node">
<title>Node7</title>
<g id="a_Node000007"><a xlink:title=" ">
<polygon fill="#e0e0e0" stroke="#999999" points="224.63,-19 148.63,-19 148.63,0 224.63,0 224.63,-19"/>
<text text-anchor="middle" x="186.63" y="-7" font-family="Helvetica,sans-Serif" font-size="10.00">cuda_fp16.h</text>
</a>
</g>
</g>
<!-- Node5&#45;&gt;Node7 -->
<g id="edge6_Node000005_Node000007" class="edge">
<title>Node5&#45;&gt;Node7</title>
<g id="a_edge6_Node000005_Node000007"><a xlink:title=" ">
<path fill="none" stroke="#63b8ff" d="M138.79,-54.98C147.13,-47.23 159.66,-35.58 169.81,-26.14"/>
<polygon fill="#63b8ff" stroke="#63b8ff" points="172.37,-28.54 177.31,-19.17 167.6,-23.42 172.37,-28.54"/>
</a>
</g>
</g>
<!-- Node8&#45;&gt;Node4 -->
<g id="edge10_Node000008_Node000004" class="edge">
<title>Node8&#45;&gt;Node4</title>
<g id="a_edge10_Node000008_Node000004"><a xlink:title=" ">
<path fill="none" stroke="#63b8ff" d="M209.73,-109.98C171.69,-100.43 110.12,-84.97 70.52,-75.02"/>
<polygon fill="#63b8ff" stroke="#63b8ff" points="71.26,-71.59 60.71,-72.55 69.56,-78.38 71.26,-71.59"/>
</a>
</g>
</g>
<!-- Node8&#45;&gt;Node5 -->
<g id="edge12_Node000008_Node000005" class="edge">
<title>Node8&#45;&gt;Node5</title>
<g id="a_edge12_Node000008_Node000005"><a xlink:title=" ">
<path fill="none" stroke="#63b8ff" d="M225.32,-109.98C206.98,-101.46 178.52,-88.23 157.4,-78.41"/>
<polygon fill="#63b8ff" stroke="#63b8ff" points="158.82,-75.21 148.28,-74.17 155.87,-81.56 158.82,-75.21"/>
</a>
</g>
</g>
<!-- Node9 -->
<g id="Node000009" class="node">
<title>Node9</title>
<g id="a_Node000009"><a xlink:title=" ">
<polygon fill="#e0e0e0" stroke="#999999" points="559.63,-74 497.63,-74 497.63,-55 559.63,-55 559.63,-74"/>
<text text-anchor="middle" x="528.63" y="-62" font-family="Helvetica,sans-Serif" font-size="10.00">stdbool.h</text>
</a>
</g>
</g>
<!-- Node8&#45;&gt;Node9 -->
<g id="edge8_Node000008_Node000009" class="edge">
<title>Node8&#45;&gt;Node9</title>
<g id="a_edge8_Node000008_Node000009"><a xlink:title=" ">
<path fill="none" stroke="#63b8ff" d="M289.42,-109.98C344.15,-99.81 434.91,-82.93 487.5,-73.15"/>
<polygon fill="#63b8ff" stroke="#63b8ff" points="488.29,-76.56 497.48,-71.29 487.01,-69.68 488.29,-76.56"/>
</a>
</g>
</g>
<!-- Node10 -->
<g id="Node000010" class="node">
<title>Node10</title>
<g id="a_Node000010"><a xlink:title=" ">
<polygon fill="#e0e0e0" stroke="#999999" points="669.63,-74 613.63,-74 613.63,-55 669.63,-55 669.63,-74"/>
<text text-anchor="middle" x="641.63" y="-62" font-family="Helvetica,sans-Serif" font-size="10.00">stddef.h</text>
</a>
</g>
</g>
<!-- Node8&#45;&gt;Node10 -->
<g id="edge9_Node000008_Node000010" class="edge">
<title>Node8&#45;&gt;Node10</title>
<g id="a_edge9_Node000008_Node000010"><a xlink:title=" ">
<path fill="none" stroke="#63b8ff" d="M294.37,-111.28C297.5,-110.84 300.61,-110.41 303.63,-110 412.28,-95.15 540.71,-78.49 603.38,-70.41"/>
<polygon fill="#63b8ff" stroke="#63b8ff" points="604.1,-73.85 613.58,-69.1 603.21,-66.9 604.1,-73.85"/>
</a>
</g>
</g>
<!-- Node11 -->
<g id="Node000011" class="node">
<title>Node11</title>
<g id="a_Node000011"><a xlink:title=" ">
<polygon fill="#e0e0e0" stroke="#999999" points="294.13,-74 199.13,-74 199.13,-55 294.13,-55 294.13,-74"/>
<text text-anchor="middle" x="246.63" y="-62" font-family="Helvetica,sans-Serif" font-size="10.00">builtin_enums.h</text>
</a>
</g>
</g>
<!-- Node8&#45;&gt;Node11 -->
<g id="edge11_Node000008_Node000011" class="edge">
<title>Node8&#45;&gt;Node11</title>
<g id="a_edge11_Node000008_Node000011"><a xlink:title=" ">
<path fill="none" stroke="#63b8ff" d="M244.13,-109.75C244.52,-102.8 245.08,-92.85 245.58,-84.13"/>
<polygon fill="#63b8ff" stroke="#63b8ff" points="249.07,-84.27 246.15,-74.09 242.09,-83.88 249.07,-84.27"/>
</a>
</g>
</g>
<!-- Node12 -->
<g id="Node000012" class="node">
<title>Node12</title>
<g id="a_Node000012"><a xlink:title=" ">
<polygon fill="#e0e0e0" stroke="#999999" points="407.13,-74 312.13,-74 312.13,-55 407.13,-55 407.13,-74"/>
<text text-anchor="middle" x="359.63" y="-62" font-family="Helvetica,sans-Serif" font-size="10.00">user_typedefs.h</text>
</a>
</g>
</g>
<!-- Node8&#45;&gt;Node12 -->
<g id="edge13_Node000008_Node000012" class="edge">
<title>Node8&#45;&gt;Node12</title>
<g id="a_edge13_Node000008_Node000012"><a xlink:title=" ">
<path fill="none" stroke="#63b8ff" d="M262.27,-109.98C280.93,-101.46 309.88,-88.23 331.37,-78.41"/>
<polygon fill="#63b8ff" stroke="#63b8ff" points="333.01,-81.51 340.66,-74.17 330.11,-75.14 333.01,-81.51"/>
</a>
</g>
</g>
<!-- Node13&#45;&gt;Node5 -->
<g id="edge16_Node000013_Node000005" class="edge">
<title>Node13&#45;&gt;Node5</title>
<g id="a_edge16_Node000013_Node000005"><a xlink:title=" ">
<path fill="none" stroke="#63b8ff" d="M218.92,-164.77C210.13,-155.89 196.24,-141.68 184.63,-129 170.39,-113.44 154.69,-95.19 143.72,-82.26"/>
<polygon fill="#63b8ff" stroke="#63b8ff" points="146.08,-79.64 136.96,-74.26 140.74,-84.16 146.08,-79.64"/>
</a>
</g>
</g>
<!-- Node14&#45;&gt;Node2 -->
<g id="edge22_Node000014_Node000002" class="edge">
<title>Node14&#45;&gt;Node2</title>
<g id="a_edge22_Node000014_Node000002"><a xlink:title=" ">
<path fill="none" stroke="#63b8ff" d="M455.98,-164.98C432.78,-156.27 396.51,-142.63 370.23,-132.75"/>
<polygon fill="#63b8ff" stroke="#63b8ff" points="371.29,-129.41 360.7,-129.17 368.83,-135.97 371.29,-129.41"/>
</a>
</g>
</g>
<!-- Node14&#45;&gt;Node5 -->
<g id="edge25_Node000014_Node000005" class="edge">
<title>Node14&#45;&gt;Node5</title>
<g id="a_edge25_Node000014_Node000005"><a xlink:title=" ">
<path fill="none" stroke="#63b8ff" d="M506.63,-167.45C544.89,-157.98 606,-137.82 580.63,-110 552.8,-79.48 265.36,-78.97 190.91,-73.71"/>
<polygon fill="#63b8ff" stroke="#63b8ff" points="191.13,-70.21 180.86,-72.81 190.52,-77.18 191.13,-70.21"/>
</a>
</g>
</g>
<!-- Node14&#45;&gt;Node8 -->
<g id="edge26_Node000014_Node000008" class="edge">
<title>Node14&#45;&gt;Node8</title>
<g id="a_edge26_Node000014_Node000008"><a xlink:title=" ">
<path fill="none" stroke="#63b8ff" d="M450.29,-167.11C410.85,-158.21 338.92,-141.99 291.19,-131.23"/>
<polygon fill="#63b8ff" stroke="#63b8ff" points="291.92,-127.8 281.39,-129.02 290.38,-134.63 291.92,-127.8"/>
</a>
</g>
</g>
<!-- Node14&#45;&gt;Node9 -->
<g id="edge19_Node000014_Node000009" class="edge">
<title>Node14&#45;&gt;Node9</title>
<g id="a_edge19_Node000014_Node000009"><a xlink:title=" ">
<path fill="none" stroke="#63b8ff" d="M506.91,-173.25C538.79,-171.26 589.33,-162.59 613.63,-129 629.88,-106.54 597.65,-88.54 568.33,-77.52"/>
<polygon fill="#63b8ff" stroke="#63b8ff" points="569.16,-74.11 558.57,-74.06 566.82,-80.7 569.16,-74.11"/>
</a>
</g>
</g>
<!-- Node14&#45;&gt;Node10 -->
<g id="edge20_Node000014_Node000010" class="edge">
<title>Node14&#45;&gt;Node10</title>
<g id="a_edge20_Node000014_Node000010"><a xlink:title=" ">
<path fill="none" stroke="#63b8ff" d="M506.85,-173.52C541.1,-171.92 598.18,-163.75 629.63,-129 640.56,-116.92 642.95,-98.12 642.98,-84.1"/>
<polygon fill="#63b8ff" stroke="#63b8ff" points="646.47,-83.97 642.6,-74.11 639.48,-84.23 646.47,-83.97"/>
</a>
</g>
</g>
<!-- Node15 -->
<g id="Node000015" class="node">
<title>Node15</title>
<g id="a_Node000015"><a xlink:title=" ">
<polygon fill="#e0e0e0" stroke="#999999" points="434.13,-129 381.13,-129 381.13,-110 434.13,-110 434.13,-129"/>
<text text-anchor="middle" x="407.63" y="-117" font-family="Helvetica,sans-Serif" font-size="10.00">stdint.h</text>
</a>
</g>
</g>
<!-- Node14&#45;&gt;Node15 -->
<g id="edge21_Node000014_Node000015" class="edge">
<title>Node14&#45;&gt;Node15</title>
<g id="a_edge21_Node000014_Node000015"><a xlink:title=" ">
<path fill="none" stroke="#63b8ff" d="M467.22,-164.98C456.52,-157 440.29,-144.88 427.47,-135.31"/>
<polygon fill="#63b8ff" stroke="#63b8ff" points="429.35,-132.35 419.25,-129.17 425.17,-137.96 429.35,-132.35"/>
</a>
</g>
</g>
<!-- Node16 -->
<g id="Node000016" class="node">
<title>Node16</title>
<g id="a_Node000016"><a xlink:title=" ">
<polygon fill="#e0e0e0" stroke="#999999" points="505.13,-129 452.13,-129 452.13,-110 505.13,-110 505.13,-129"/>
<text text-anchor="middle" x="478.63" y="-117" font-family="Helvetica,sans-Serif" font-size="10.00">stdlib.h</text>
</a>
</g>
</g>
<!-- Node14&#45;&gt;Node16 -->
<g id="edge23_Node000014_Node000016" class="edge">
<title>Node14&#45;&gt;Node16</title>
<g id="a_edge23_Node000014_Node000016"><a xlink:title=" ">
<path fill="none" stroke="#63b8ff" d="M478.63,-164.75C478.63,-157.8 478.63,-147.85 478.63,-139.13"/>
<polygon fill="#63b8ff" stroke="#63b8ff" points="482.13,-139.09 478.63,-129.09 475.13,-139.09 482.13,-139.09"/>
</a>
</g>
</g>
<!-- Node17 -->
<g id="Node000017" class="node">
<title>Node17</title>
<g id="a_Node000017"><a xlink:title=" ">
<polygon fill="#e0e0e0" stroke="#999999" points="571.63,-129 523.63,-129 523.63,-110 571.63,-110 571.63,-129"/>
<text text-anchor="middle" x="547.63" y="-117" font-family="Helvetica,sans-Serif" font-size="10.00">time.h</text>
</a>
</g>
</g>
<!-- Node14&#45;&gt;Node17 -->
<g id="edge24_Node000014_Node000017" class="edge">
<title>Node14&#45;&gt;Node17</title>
<g id="a_edge24_Node000014_Node000017"><a xlink:title=" ">
<path fill="none" stroke="#63b8ff" d="M489.72,-164.98C500.12,-157 515.89,-144.88 528.35,-135.31"/>
<polygon fill="#63b8ff" stroke="#63b8ff" points="530.55,-138.04 536.34,-129.17 526.28,-132.49 530.55,-138.04"/>
</a>
</g>
</g>
</g>
</svg>
