<?xml version="1.0" encoding="UTF-8" standalone="no"?>
<!DOCTYPE svg PUBLIC "-//W3C//DTD SVG 1.1//EN"
 "http://www.w3.org/Graphics/SVG/1.1/DTD/svg11.dtd">
<!-- Generated by graphviz version 2.43.0 (0)
 -->
<!-- Title: acc&#45;runtime/acc/implementation.h Pages: 1 -->
<svg width="680pt" height="148pt"
 viewBox="0.00 0.00 680.00 148.00" xmlns="http://www.w3.org/2000/svg" xmlns:xlink="http://www.w3.org/1999/xlink">
<g id="graph0" class="graph" transform="scale(1 1) rotate(0) translate(4 144)">
<title>acc&#45;runtime/acc/implementation.h</title>
<!-- Node1 -->
<g id="Node000001" class="node">
<title>Node1</title>
<g id="a_Node000001"><a xlink:title=" ">
<polygon fill="#999999" stroke="#666666" points="453.5,-140 268.5,-140 268.5,-121 453.5,-121 453.5,-140"/>
<text text-anchor="middle" x="361" y="-128" font-family="Helvetica,sans-Serif" font-size="10.00">acc&#45;runtime/acc/implementation.h</text>
</a>
</g>
</g>
<!-- Node2 -->
<g id="Node000002" class="node">
<title>Node2</title>
<g id="a_Node000002"><a xlink:href="implementation_8c.html" target="_top" xlink:title=" ">
<polygon fill="white" stroke="#666666" points="184,-79.5 0,-79.5 0,-60.5 184,-60.5 184,-79.5"/>
<text text-anchor="middle" x="92" y="-67.5" font-family="Helvetica,sans-Serif" font-size="10.00">acc&#45;runtime/acc/implementation.c</text>
</a>
</g>
</g>
<!-- Node1&#45;&gt;Node2 -->
<g id="edge1_Node000001_Node000002" class="edge">
<title>Node1&#45;&gt;Node2</title>
<g id="a_edge1_Node000001_Node000002"><a xlink:title=" ">
<path fill="none" stroke="#63b8ff" d="M311.9,-118.82C259.94,-107.52 179,-89.92 131.16,-79.52"/>
<polygon fill="#63b8ff" stroke="#63b8ff" points="311.37,-122.29 321.89,-120.99 312.86,-115.45 311.37,-122.29"/>
</a>
</g>
</g>
<!-- Node3 -->
<g id="Node000003" class="node">
<title>Node3</title>
<g id="a_Node000003"><a xlink:href="stencilgen_01copy_8c.html" target="_top" xlink:title=" ">
<polygon fill="white" stroke="#666666" points="350,-85 202,-85 202,-55 350,-55 350,-85"/>
<text text-anchor="start" x="210" y="-73" font-family="Helvetica,sans-Serif" font-size="10.00">acc&#45;runtime/acc/stencilgen</text>
<text text-anchor="middle" x="276" y="-62" font-family="Helvetica,sans-Serif" font-size="10.00"> copy.c</text>
</a>
</g>
</g>
<!-- Node1&#45;&gt;Node3 -->
<g id="edge2_Node000001_Node000003" class="edge">
<title>Node1&#45;&gt;Node3</title>
<g id="a_edge2_Node000001_Node000003"><a xlink:title=" ">
<path fill="none" stroke="#63b8ff" d="M339.98,-115.03C326.71,-105.9 309.67,-94.17 296.51,-85.11"/>
<polygon fill="#63b8ff" stroke="#63b8ff" points="338.24,-118.08 348.46,-120.87 342.2,-112.32 338.24,-118.08"/>
</a>
</g>
</g>
<!-- Node4 -->
<g id="Node000004" class="node">
<title>Node4</title>
<g id="a_Node000004"><a xlink:href="stencilgen_8c.html" target="_top" xlink:title=" ">
<polygon fill="white" stroke="#666666" points="524,-79.5 368,-79.5 368,-60.5 524,-60.5 524,-79.5"/>
<text text-anchor="middle" x="446" y="-67.5" font-family="Helvetica,sans-Serif" font-size="10.00">acc&#45;runtime/acc/stencilgen.c</text>
</a>
</g>
</g>
<!-- Node1&#45;&gt;Node4 -->
<g id="edge3_Node000001_Node000004" class="edge">
<title>Node1&#45;&gt;Node4</title>
<g id="a_edge3_Node000001_Node000004"><a xlink:title=" ">
<path fill="none" stroke="#63b8ff" d="M381.84,-115.16C397.99,-104.05 419.83,-89.01 433.41,-79.67"/>
<polygon fill="#63b8ff" stroke="#63b8ff" points="379.8,-112.32 373.54,-120.87 383.76,-118.08 379.8,-112.32"/>
</a>
</g>
</g>
<!-- Node5 -->
<g id="Node000005" class="node">
<title>Node5</title>
<g id="a_Node000005"><a xlink:href="acc__runtime_8cu.html" target="_top" xlink:title=" ">
<polygon fill="white" stroke="#666666" points="655.5,-85 542.5,-85 542.5,-55 655.5,-55 655.5,-85"/>
<text text-anchor="start" x="550.5" y="-73" font-family="Helvetica,sans-Serif" font-size="10.00">acc&#45;runtime/api/acc</text>
<text text-anchor="middle" x="599" y="-62" font-family="Helvetica,sans-Serif" font-size="10.00">_runtime.cu</text>
</a>
</g>
</g>
<!-- Node1&#45;&gt;Node5 -->
<g id="edge4_Node000001_Node000005" class="edge">
<title>Node1&#45;&gt;Node5</title>
<g id="a_edge4_Node000001_Node000005"><a xlink:title=" ">
<path fill="none" stroke="#63b8ff" d="M405.53,-118.56C444.18,-109.05 500.37,-95.24 542.24,-84.95"/>
<polygon fill="#63b8ff" stroke="#63b8ff" points="404.48,-115.21 395.61,-120.99 406.15,-122.01 404.48,-115.21"/>
</a>
</g>
</g>
<!-- Node6 -->
<g id="Node000006" class="node">
<title>Node6</title>
<g id="a_Node000006"><a xlink:href="kernels_8cu.html" target="_top" xlink:title=" ">
<polygon fill="white" stroke="#666666" points="672,-19 526,-19 526,0 672,0 672,-19"/>
<text text-anchor="middle" x="599" y="-7" font-family="Helvetica,sans-Serif" font-size="10.00">src/core/kernels/kernels.cu</text>
</a>
</g>
</g>
<!-- Node5&#45;&gt;Node6 -->
<g id="edge5_Node000005_Node000006" class="edge">
<title>Node5&#45;&gt;Node6</title>
<g id="a_edge5_Node000005_Node000006"><a xlink:title=" ">
<path fill="none" stroke="#63b8ff" d="M599,-44.75C599,-35.72 599,-26.03 599,-19.27"/>
<polygon fill="#63b8ff" stroke="#63b8ff" points="595.5,-44.84 599,-54.84 602.5,-44.84 595.5,-44.84"/>
</a>
</g>
</g>
</g>
</svg>
