<?xml version="1.0" encoding="UTF-8" standalone="no"?>
<!DOCTYPE svg PUBLIC "-//W3C//DTD SVG 1.1//EN"
 "http://www.w3.org/Graphics/SVG/1.1/DTD/svg11.dtd">
<!-- Generated by graphviz version 2.43.0 (0)
 -->
<!-- Title: Graphical Class Hierarchy Pages: 1 -->
<svg width="213pt" height="212pt"
 viewBox="0.00 0.00 213.00 212.00" xmlns="http://www.w3.org/2000/svg" xmlns:xlink="http://www.w3.org/1999/xlink">
<g id="graph0" class="graph" transform="scale(1 1) rotate(0) translate(4 208)">
<title>Graphical Class Hierarchy</title>
<!-- Node0 -->
<g id="Node000000" class="node">
<title>Node0</title>
<g id="a_Node000000"><a xlink:href="classTask.html" target="_top" xlink:title=" ">
<polygon fill="white" stroke="#666666" points="38,-111 0,-111 0,-92 38,-92 38,-111"/>
<text text-anchor="middle" x="19" y="-99" font-family="Helvetica,sans-Serif" font-size="10.00">Task</text>
</a>
</g>
</g>
<!-- Node1 -->
<g id="Node000001" class="node">
<title>Node1</title>
<g id="a_Node000001"><a xlink:href="classBoundaryConditionTask.html" target="_top" xlink:title=" ">
<polygon fill="white" stroke="#666666" points="205,-204 74,-204 74,-185 205,-185 205,-204"/>
<text text-anchor="middle" x="139.5" y="-192" font-family="Helvetica,sans-Serif" font-size="10.00">BoundaryConditionTask</text>
</a>
</g>
</g>
<!-- Node0&#45;&gt;Node1 -->
<g id="edge3_Node000000_Node000001" class="edge">
<title>Node0&#45;&gt;Node1</title>
<g id="a_edge3_Node000000_Node000001"><a xlink:title=" ">
<path fill="none" stroke="#63b8ff" d="M28.83,-120.23C37.85,-137.35 53.43,-162.14 74,-176.5 78.86,-179.89 84.35,-182.65 90.01,-184.89"/>
<polygon fill="#63b8ff" stroke="#63b8ff" points="31.9,-118.54 24.29,-111.17 25.64,-121.67 31.9,-118.54"/>
</a>
</g>
</g>
<!-- Node2 -->
<g id="Node000002" class="node">
<title>Node2</title>
<g id="a_Node000002"><a xlink:href="classComputeTask.html" target="_top" xlink:title=" ">
<polygon fill="white" stroke="#666666" points="181,-167 98,-167 98,-148 181,-148 181,-167"/>
<text text-anchor="middle" x="139.5" y="-155" font-family="Helvetica,sans-Serif" font-size="10.00">ComputeTask</text>
</a>
</g>
</g>
<!-- Node0&#45;&gt;Node2 -->
<g id="edge4_Node000000_Node000002" class="edge">
<title>Node0&#45;&gt;Node2</title>
<g id="a_edge4_Node000000_Node000002"><a xlink:title=" ">
<path fill="none" stroke="#63b8ff" d="M39.22,-117.46C49.12,-125.02 61.66,-133.65 74,-139.5 81.46,-143.04 89.74,-145.99 97.82,-148.43"/>
<polygon fill="#63b8ff" stroke="#63b8ff" points="41.31,-114.64 31.29,-111.19 36.97,-120.13 41.31,-114.64"/>
</a>
</g>
</g>
<!-- Node3 -->
<g id="Node000003" class="node">
<title>Node3</title>
<g id="a_Node000003"><a xlink:href="classHaloExchangeTask.html" target="_top" xlink:title=" ">
<polygon fill="white" stroke="#666666" points="193.5,-130 85.5,-130 85.5,-111 193.5,-111 193.5,-130"/>
<text text-anchor="middle" x="139.5" y="-118" font-family="Helvetica,sans-Serif" font-size="10.00">HaloExchangeTask</text>
</a>
</g>
</g>
<!-- Node0&#45;&gt;Node3 -->
<g id="edge5_Node000000_Node000003" class="edge">
<title>Node0&#45;&gt;Node3</title>
<g id="a_edge5_Node000000_Node000003"><a xlink:title=" ">
<path fill="none" stroke="#63b8ff" d="M48.24,-106.03C59.38,-107.81 72.56,-109.93 85.36,-111.98"/>
<polygon fill="#63b8ff" stroke="#63b8ff" points="48.68,-102.55 38.26,-104.43 47.58,-109.47 48.68,-102.55"/>
</a>
</g>
</g>
<!-- Node4 -->
<g id="Node000004" class="node">
<title>Node4</title>
<g id="a_Node000004"><a xlink:href="classMPIScanTask.html" target="_top" xlink:title=" ">
<polygon fill="white" stroke="#666666" points="179.5,-93 99.5,-93 99.5,-74 179.5,-74 179.5,-93"/>
<text text-anchor="middle" x="139.5" y="-81" font-family="Helvetica,sans-Serif" font-size="10.00">MPIScanTask</text>
</a>
</g>
</g>
<!-- Node0&#45;&gt;Node4 -->
<g id="edge6_Node000000_Node000004" class="edge">
<title>Node0&#45;&gt;Node4</title>
<g id="a_edge6_Node000000_Node000004"><a xlink:title=" ">
<path fill="none" stroke="#63b8ff" d="M48.16,-97.22C63.46,-94.9 82.63,-91.99 99.37,-89.44"/>
<polygon fill="#63b8ff" stroke="#63b8ff" points="47.62,-93.76 38.26,-98.73 48.67,-100.69 47.62,-93.76"/>
</a>
</g>
</g>
<!-- Node5 -->
<g id="Node000005" class="node">
<title>Node5</title>
<g id="a_Node000005"><a xlink:href="classPeriodicRayTask.html" target="_top" xlink:title=" ">
<polygon fill="white" stroke="#666666" points="187.5,-56 91.5,-56 91.5,-37 187.5,-37 187.5,-56"/>
<text text-anchor="middle" x="139.5" y="-44" font-family="Helvetica,sans-Serif" font-size="10.00">PeriodicRayTask</text>
</a>
</g>
</g>
<!-- Node0&#45;&gt;Node5 -->
<g id="edge7_Node000000_Node000005" class="edge">
<title>Node0&#45;&gt;Node5</title>
<g id="a_edge7_Node000000_Node000005"><a xlink:title=" ">
<path fill="none" stroke="#63b8ff" d="M40.46,-85.73C50.21,-78.79 62.28,-70.98 74,-65.5 81.93,-61.79 90.75,-58.63 99.26,-56"/>
<polygon fill="#63b8ff" stroke="#63b8ff" points="38.22,-83.03 32.23,-91.78 42.36,-88.67 38.22,-83.03"/>
</a>
</g>
</g>
<!-- Node6 -->
<g id="Node000006" class="node">
<title>Node6</title>
<g id="a_Node000006"><a xlink:href="classReduceTask.html" target="_top" xlink:title=" ">
<polygon fill="white" stroke="#666666" points="176.5,-19 102.5,-19 102.5,0 176.5,0 176.5,-19"/>
<text text-anchor="middle" x="139.5" y="-7" font-family="Helvetica,sans-Serif" font-size="10.00">ReduceTask</text>
</a>
</g>
</g>
<!-- Node0&#45;&gt;Node6 -->
<g id="edge8_Node000000_Node000006" class="edge">
<title>Node0&#45;&gt;Node6</title>
<g id="a_edge8_Node000000_Node000006"><a xlink:title=" ">
<path fill="none" stroke="#63b8ff" d="M29.41,-82.6C38.6,-66.01 54.1,-42.41 74,-28.5 82.32,-22.68 92.44,-18.62 102.17,-15.8"/>
<polygon fill="#63b8ff" stroke="#63b8ff" points="26.08,-81.4 24.51,-91.88 32.27,-84.67 26.08,-81.4"/>
</a>
</g>
</g>
</g>
</svg>
