<?xml version="1.0" encoding="UTF-8" standalone="no"?>
<!DOCTYPE svg PUBLIC "-//W3C//DTD SVG 1.1//EN"
 "http://www.w3.org/Graphics/SVG/1.1/DTD/svg11.dtd">
<!-- Generated by graphviz version 2.43.0 (0)
 -->
<!-- Title: src/core/kernels/kissfft/kiss_fft.h Pages: 1 -->
<svg width="434pt" height="170pt"
 viewBox="0.00 0.00 433.50 170.00" xmlns="http://www.w3.org/2000/svg" xmlns:xlink="http://www.w3.org/1999/xlink">

<svg id="main" version="1.1" xmlns="http://www.w3.org/2000/svg" xmlns:xlink="http://www.w3.org/1999/xlink" xml:space="preserve" onload="init(evt)">
<style type="text/css"><![CDATA[
.node, .edge {opacity: 0.7;}
.node.selected, .edge.selected {opacity: 1;}
.edge:hover path { stroke: red; }
.edge:hover polygon { stroke: red; fill: red; }
]]></style>
<script type="application/ecmascript" xlink:href="svg.min.js"/>
<svg id="graph" class="graph">
<g id="graph0" class="graph" transform="scale(1 1) rotate(0) translate(4 166)">
<title>src/core/kernels/kissfft/kiss_fft.h</title>
<!-- Node1 -->
<g id="Node000001" class="node">
<title>Node1</title>
<g id="a_Node000001"><a xlink:title=" ">
<polygon fill="#999999" stroke="#666666" points="222.5,-162 96.5,-162 96.5,-132 222.5,-132 222.5,-162"/>
<text text-anchor="start" x="104.5" y="-150" font-family="Helvetica,sans-Serif" font-size="10.00">src/core/kernels/kissfft</text>
<text text-anchor="middle" x="159.5" y="-139" font-family="Helvetica,sans-Serif" font-size="10.00">/kiss_fft.h</text>
</a>
</g>
</g>
<!-- Node2 -->
<g id="Node000002" class="node">
<title>Node2</title>
<g id="a_Node000002"><a xlink:href="cpufft_8cc.html" target="_top" xlink:title=" ">
<polygon fill="white" stroke="#666666" points="137,-24.5 0,-24.5 0,-5.5 137,-5.5 137,-24.5"/>
<text text-anchor="middle" x="68.5" y="-12.5" font-family="Helvetica,sans-Serif" font-size="10.00">src/core/kernels/cpufft.cc</text>
</a>
</g>
</g>
<!-- Node1&#45;&gt;Node2 -->
<g id="edge1_Node000001_Node000002" class="edge">
<title>Node1&#45;&gt;Node2</title>
<g id="a_edge1_Node000001_Node000002"><a xlink:title=" ">
<path fill="none" stroke="#63b8ff" d="M120.74,-126.49C108.47,-118.57 95.92,-108.34 87.5,-96 72.22,-73.59 69.15,-40.38 68.59,-24.74"/>
<polygon fill="#63b8ff" stroke="#63b8ff" points="119.2,-129.66 129.57,-131.85 122.84,-123.67 119.2,-129.66"/>
</a>
</g>
</g>
<!-- Node3 -->
<g id="Node000003" class="node">
<title>Node3</title>
<g id="a_Node000003"><a xlink:href="__kiss__fft__guts_8h.html" target="_top" xlink:title=" ">
<polygon fill="white" stroke="#666666" points="366.5,-96 240.5,-96 240.5,-66 366.5,-66 366.5,-96"/>
<text text-anchor="start" x="248.5" y="-84" font-family="Helvetica,sans-Serif" font-size="10.00">src/core/kernels/kissfft</text>
<text text-anchor="middle" x="303.5" y="-73" font-family="Helvetica,sans-Serif" font-size="10.00">/_kiss_fft_guts.h</text>
</a>
</g>
</g>
<!-- Node1&#45;&gt;Node3 -->
<g id="edge2_Node000001_Node000003" class="edge">
<title>Node1&#45;&gt;Node3</title>
<g id="a_edge2_Node000001_Node000003"><a xlink:title=" ">
<path fill="none" stroke="#63b8ff" d="M200.49,-127.78C223.19,-117.69 250.98,-105.34 271.97,-96.01"/>
<polygon fill="#63b8ff" stroke="#63b8ff" points="198.82,-124.7 191.1,-131.95 201.66,-131.09 198.82,-124.7"/>
</a>
</g>
</g>
<!-- Node6 -->
<g id="Node000006" class="node">
<title>Node6</title>
<g id="a_Node000006"><a xlink:href="kiss__fftnd_8h.html" target="_top" xlink:title=" ">
<polygon fill="white" stroke="#666666" points="222.5,-96 96.5,-96 96.5,-66 222.5,-66 222.5,-96"/>
<text text-anchor="start" x="104.5" y="-84" font-family="Helvetica,sans-Serif" font-size="10.00">src/core/kernels/kissfft</text>
<text text-anchor="middle" x="159.5" y="-73" font-family="Helvetica,sans-Serif" font-size="10.00">/kiss_fftnd.h</text>
</a>
</g>
</g>
<!-- Node1&#45;&gt;Node6 -->
<g id="edge5_Node000001_Node000006" class="edge">
<title>Node1&#45;&gt;Node6</title>
<g id="a_edge5_Node000001_Node000006"><a xlink:title=" ">
<path fill="none" stroke="#63b8ff" d="M159.5,-121.54C159.5,-112.96 159.5,-103.61 159.5,-96.16"/>
<polygon fill="#63b8ff" stroke="#63b8ff" points="156,-121.8 159.5,-131.8 163,-121.8 156,-121.8"/>
</a>
</g>
</g>
<!-- Node4 -->
<g id="Node000004" class="node">
<title>Node4</title>
<g id="a_Node000004"><a xlink:href="kiss__fft_8c.html" target="_top" xlink:title=" ">
<polygon fill="white" stroke="#666666" points="425.5,-30 299.5,-30 299.5,0 425.5,0 425.5,-30"/>
<text text-anchor="start" x="307.5" y="-18" font-family="Helvetica,sans-Serif" font-size="10.00">src/core/kernels/kissfft</text>
<text text-anchor="middle" x="362.5" y="-7" font-family="Helvetica,sans-Serif" font-size="10.00">/kiss_fft.c</text>
</a>
</g>
</g>
<!-- Node3&#45;&gt;Node4 -->
<g id="edge3_Node000003_Node000004" class="edge">
<title>Node3&#45;&gt;Node4</title>
<g id="a_edge3_Node000003_Node000004"><a xlink:title=" ">
<path fill="none" stroke="#63b8ff" d="M323.44,-58.37C332.02,-49.06 341.81,-38.44 349.44,-30.16"/>
<polygon fill="#63b8ff" stroke="#63b8ff" points="320.8,-56.07 316.59,-65.8 325.95,-60.82 320.8,-56.07"/>
</a>
</g>
</g>
<!-- Node5 -->
<g id="Node000005" class="node">
<title>Node5</title>
<g id="a_Node000005"><a xlink:href="kiss__fftnd_8c.html" target="_top" xlink:title=" ">
<polygon fill="white" stroke="#666666" points="281.5,-30 155.5,-30 155.5,0 281.5,0 281.5,-30"/>
<text text-anchor="start" x="163.5" y="-18" font-family="Helvetica,sans-Serif" font-size="10.00">src/core/kernels/kissfft</text>
<text text-anchor="middle" x="218.5" y="-7" font-family="Helvetica,sans-Serif" font-size="10.00">/kiss_fftnd.c</text>
</a>
</g>
</g>
<!-- Node3&#45;&gt;Node5 -->
<g id="edge4_Node000003_Node000005" class="edge">
<title>Node3&#45;&gt;Node5</title>
<g id="a_edge4_Node000003_Node000005"><a xlink:title=" ">
<path fill="none" stroke="#63b8ff" d="M276.61,-59.75C263.83,-50.13 248.86,-38.86 237.31,-30.16"/>
<polygon fill="#63b8ff" stroke="#63b8ff" points="274.54,-62.58 284.64,-65.8 278.75,-56.99 274.54,-62.58"/>
</a>
</g>
</g>
<!-- Node6&#45;&gt;Node2 -->
<g id="edge6_Node000006_Node000002" class="edge">
<title>Node6&#45;&gt;Node2</title>
<g id="a_edge6_Node000006_Node000002"><a xlink:title=" ">
<path fill="none" stroke="#63b8ff" d="M130.88,-59.87C114.04,-48.03 93.59,-33.65 80.81,-24.66"/>
<polygon fill="#63b8ff" stroke="#63b8ff" points="129.11,-62.91 139.3,-65.8 133.14,-57.18 129.11,-62.91"/>
</a>
</g>
</g>
<!-- Node6&#45;&gt;Node5 -->
<g id="edge7_Node000006_Node000005" class="edge">
<title>Node6&#45;&gt;Node5</title>
<g id="a_edge7_Node000006_Node000005"><a xlink:title=" ">
<path fill="none" stroke="#63b8ff" d="M179.44,-58.37C188.02,-49.06 197.81,-38.44 205.44,-30.16"/>
<polygon fill="#63b8ff" stroke="#63b8ff" points="176.8,-56.07 172.59,-65.8 181.95,-60.82 176.8,-56.07"/>
</a>
</g>
</g>
</g>
</svg>
</svg>

<style type='text/css'>
<![CDATA[
[data-mouse-over-selected='false'] { opacity: 0.7; }
[data-mouse-over-selected='true']  { opacity: 1.0; }
]]>
</style>
<script type="application/ecmascript"><![CDATA[
document.addEventListener('DOMContentLoaded', (event) => {
  highlightEdges();
  highlightAdjacentNodes();
});
]]></script>
</svg>
