<?xml version="1.0" encoding="UTF-8" standalone="no"?>
<!DOCTYPE svg PUBLIC "-//W3C//DTD SVG 1.1//EN"
 "http://www.w3.org/Graphics/SVG/1.1/DTD/svg11.dtd">
<!-- Generated by graphviz version 2.43.0 (0)
 -->
<!-- Title: src/core/kernels/kissfft/kiss_fft.c Pages: 1 -->
<svg width="339pt" height="203pt"
 viewBox="0.00 0.00 339.00 203.00" xmlns="http://www.w3.org/2000/svg" xmlns:xlink="http://www.w3.org/1999/xlink">
<g id="graph0" class="graph" transform="scale(1 1) rotate(0) translate(4 199)">
<title>src/core/kernels/kissfft/kiss_fft.c</title>
<!-- Node1 -->
<g id="Node000001" class="node">
<title>Node1</title>
<g id="a_Node000001"><a xlink:title=" ">
<polygon fill="#999999" stroke="#666666" points="282.5,-195 156.5,-195 156.5,-165 282.5,-165 282.5,-195"/>
<text text-anchor="start" x="164.5" y="-183" font-family="Helvetica,sans-Serif" font-size="10.00">src/core/kernels/kissfft</text>
<text text-anchor="middle" x="219.5" y="-172" font-family="Helvetica,sans-Serif" font-size="10.00">/kiss_fft.c</text>
</a>
</g>
</g>
<!-- Node2 -->
<g id="Node000002" class="node">
<title>Node2</title>
<g id="a_Node000002"><a xlink:href="__kiss__fft__guts_8h.html" target="_top" xlink:title=" ">
<polygon fill="white" stroke="#666666" points="265.5,-129 173.5,-129 173.5,-110 265.5,-110 265.5,-129"/>
<text text-anchor="middle" x="219.5" y="-117" font-family="Helvetica,sans-Serif" font-size="10.00">_kiss_fft_guts.h</text>
</a>
</g>
</g>
<!-- Node1&#45;&gt;Node2 -->
<g id="edge1_Node000001_Node000002" class="edge">
<title>Node1&#45;&gt;Node2</title>
<g id="a_edge1_Node000001_Node000002"><a xlink:title=" ">
<path fill="none" stroke="#63b8ff" d="M219.5,-164.84C219.5,-157.21 219.5,-147.7 219.5,-139.45"/>
<polygon fill="#63b8ff" stroke="#63b8ff" points="223,-139.27 219.5,-129.27 216,-139.27 223,-139.27"/>
</a>
</g>
</g>
<!-- Node3 -->
<g id="Node000003" class="node">
<title>Node3</title>
<g id="a_Node000003"><a xlink:href="kiss__fft_8h.html" target="_top" xlink:title=" ">
<polygon fill="white" stroke="#666666" points="161,-74 100,-74 100,-55 161,-55 161,-74"/>
<text text-anchor="middle" x="130.5" y="-62" font-family="Helvetica,sans-Serif" font-size="10.00">kiss_fft.h</text>
</a>
</g>
</g>
<!-- Node2&#45;&gt;Node3 -->
<g id="edge2_Node000002_Node000003" class="edge">
<title>Node2&#45;&gt;Node3</title>
<g id="a_edge2_Node000002_Node000003"><a xlink:title=" ">
<path fill="none" stroke="#63b8ff" d="M205.2,-109.98C191.4,-101.77 170.26,-89.18 153.99,-79.49"/>
<polygon fill="#63b8ff" stroke="#63b8ff" points="155.44,-76.28 145.06,-74.17 151.86,-82.29 155.44,-76.28"/>
</a>
</g>
</g>
<!-- Node8 -->
<g id="Node000008" class="node">
<title>Node8</title>
<g id="a_Node000008"><a xlink:href="kiss__fft__log_8h.html" target="_top" xlink:title=" ">
<polygon fill="white" stroke="#666666" points="260,-74 179,-74 179,-55 260,-55 260,-74"/>
<text text-anchor="middle" x="219.5" y="-62" font-family="Helvetica,sans-Serif" font-size="10.00">kiss_fft_log.h</text>
</a>
</g>
</g>
<!-- Node2&#45;&gt;Node8 -->
<g id="edge7_Node000002_Node000008" class="edge">
<title>Node2&#45;&gt;Node8</title>
<g id="a_edge7_Node000002_Node000008"><a xlink:title=" ">
<path fill="none" stroke="#63b8ff" d="M219.5,-109.75C219.5,-102.8 219.5,-92.85 219.5,-84.13"/>
<polygon fill="#63b8ff" stroke="#63b8ff" points="223,-84.09 219.5,-74.09 216,-84.09 223,-84.09"/>
</a>
</g>
</g>
<!-- Node9 -->
<g id="Node000009" class="node">
<title>Node9</title>
<g id="a_Node000009"><a xlink:title=" ">
<polygon fill="#e0e0e0" stroke="#999999" points="331,-74 278,-74 278,-55 331,-55 331,-74"/>
<text text-anchor="middle" x="304.5" y="-62" font-family="Helvetica,sans-Serif" font-size="10.00">limits.h</text>
</a>
</g>
</g>
<!-- Node2&#45;&gt;Node9 -->
<g id="edge8_Node000002_Node000009" class="edge">
<title>Node2&#45;&gt;Node9</title>
<g id="a_edge8_Node000002_Node000009"><a xlink:title=" ">
<path fill="none" stroke="#63b8ff" d="M233.16,-109.98C246.34,-101.77 266.53,-89.18 282.07,-79.49"/>
<polygon fill="#63b8ff" stroke="#63b8ff" points="283.96,-82.43 290.59,-74.17 280.26,-76.49 283.96,-82.43"/>
</a>
</g>
</g>
<!-- Node4 -->
<g id="Node000004" class="node">
<title>Node4</title>
<g id="a_Node000004"><a xlink:title=" ">
<polygon fill="#e0e0e0" stroke="#999999" points="53,-19 0,-19 0,0 53,0 53,-19"/>
<text text-anchor="middle" x="26.5" y="-7" font-family="Helvetica,sans-Serif" font-size="10.00">stdlib.h</text>
</a>
</g>
</g>
<!-- Node3&#45;&gt;Node4 -->
<g id="edge3_Node000003_Node000004" class="edge">
<title>Node3&#45;&gt;Node4</title>
<g id="a_edge3_Node000003_Node000004"><a xlink:title=" ">
<path fill="none" stroke="#63b8ff" d="M113.79,-54.98C97.29,-46.57 71.8,-33.59 52.62,-23.81"/>
<polygon fill="#63b8ff" stroke="#63b8ff" points="54.01,-20.59 43.51,-19.17 50.83,-26.83 54.01,-20.59"/>
</a>
</g>
</g>
<!-- Node5 -->
<g id="Node000005" class="node">
<title>Node5</title>
<g id="a_Node000005"><a xlink:title=" ">
<polygon fill="#e0e0e0" stroke="#999999" points="121.5,-19 71.5,-19 71.5,0 121.5,0 121.5,-19"/>
<text text-anchor="middle" x="96.5" y="-7" font-family="Helvetica,sans-Serif" font-size="10.00">stdio.h</text>
</a>
</g>
</g>
<!-- Node3&#45;&gt;Node5 -->
<g id="edge4_Node000003_Node000005" class="edge">
<title>Node3&#45;&gt;Node5</title>
<g id="a_edge4_Node000003_Node000005"><a xlink:title=" ">
<path fill="none" stroke="#63b8ff" d="M124.89,-54.75C120.18,-47.42 113.33,-36.73 107.53,-27.7"/>
<polygon fill="#63b8ff" stroke="#63b8ff" points="110.36,-25.62 102.01,-19.09 104.46,-29.4 110.36,-25.62"/>
</a>
</g>
</g>
<!-- Node6 -->
<g id="Node000006" class="node">
<title>Node6</title>
<g id="a_Node000006"><a xlink:title=" ">
<polygon fill="#e0e0e0" stroke="#999999" points="191,-19 140,-19 140,0 191,0 191,-19"/>
<text text-anchor="middle" x="165.5" y="-7" font-family="Helvetica,sans-Serif" font-size="10.00">math.h</text>
</a>
</g>
</g>
<!-- Node3&#45;&gt;Node6 -->
<g id="edge5_Node000003_Node000006" class="edge">
<title>Node3&#45;&gt;Node6</title>
<g id="a_edge5_Node000003_Node000006"><a xlink:title=" ">
<path fill="none" stroke="#63b8ff" d="M136.28,-54.75C141.12,-47.42 148.18,-36.73 154.14,-27.7"/>
<polygon fill="#63b8ff" stroke="#63b8ff" points="157.24,-29.36 159.83,-19.09 151.4,-25.5 157.24,-29.36"/>
</a>
</g>
</g>
<!-- Node7 -->
<g id="Node000007" class="node">
<title>Node7</title>
<g id="a_Node000007"><a xlink:title=" ">
<polygon fill="#e0e0e0" stroke="#999999" points="262,-19 209,-19 209,0 262,0 262,-19"/>
<text text-anchor="middle" x="235.5" y="-7" font-family="Helvetica,sans-Serif" font-size="10.00">string.h</text>
</a>
</g>
</g>
<!-- Node3&#45;&gt;Node7 -->
<g id="edge6_Node000003_Node000007" class="edge">
<title>Node3&#45;&gt;Node7</title>
<g id="a_edge6_Node000003_Node000007"><a xlink:title=" ">
<path fill="none" stroke="#63b8ff" d="M147.37,-54.98C164.11,-46.54 190,-33.47 209.39,-23.68"/>
<polygon fill="#63b8ff" stroke="#63b8ff" points="210.97,-26.8 218.32,-19.17 207.82,-20.55 210.97,-26.8"/>
</a>
</g>
</g>
</g>
</svg>
