<?xml version="1.0" encoding="UTF-8" standalone="no"?>
<!DOCTYPE svg PUBLIC "-//W3C//DTD SVG 1.1//EN"
 "http://www.w3.org/Graphics/SVG/1.1/DTD/svg11.dtd">
<!-- Generated by graphviz version 2.43.0 (0)
 -->
<!-- Title: src/core/kernels/kissfft/kiss_fftnd.c Pages: 1 -->
<svg width="342pt" height="203pt"
 viewBox="0.00 0.00 342.00 203.00" xmlns="http://www.w3.org/2000/svg" xmlns:xlink="http://www.w3.org/1999/xlink">
<g id="graph0" class="graph" transform="scale(1 1) rotate(0) translate(4 199)">
<title>src/core/kernels/kissfft/kiss_fftnd.c</title>
<!-- Node1 -->
<g id="Node000001" class="node">
<title>Node1</title>
<g id="a_Node000001"><a xlink:title=" ">
<polygon fill="#999999" stroke="#666666" points="237.5,-195 111.5,-195 111.5,-165 237.5,-165 237.5,-195"/>
<text text-anchor="start" x="119.5" y="-183" font-family="Helvetica,sans-Serif" font-size="10.00">src/core/kernels/kissfft</text>
<text text-anchor="middle" x="174.5" y="-172" font-family="Helvetica,sans-Serif" font-size="10.00">/kiss_fftnd.c</text>
</a>
</g>
</g>
<!-- Node2 -->
<g id="Node000002" class="node">
<title>Node2</title>
<g id="a_Node000002"><a xlink:href="kiss__fftnd_8h.html" target="_top" xlink:title=" ">
<polygon fill="white" stroke="#666666" points="161,-129 88,-129 88,-110 161,-110 161,-129"/>
<text text-anchor="middle" x="124.5" y="-117" font-family="Helvetica,sans-Serif" font-size="10.00">kiss_fftnd.h</text>
</a>
</g>
</g>
<!-- Node1&#45;&gt;Node2 -->
<g id="edge1_Node000001_Node000002" class="edge">
<title>Node1&#45;&gt;Node2</title>
<g id="a_edge1_Node000001_Node000002"><a xlink:title=" ">
<path fill="none" stroke="#63b8ff" d="M162.4,-164.84C155.21,-156.43 146.07,-145.74 138.57,-136.96"/>
<polygon fill="#63b8ff" stroke="#63b8ff" points="141.15,-134.59 131.99,-129.27 135.83,-139.14 141.15,-134.59"/>
</a>
</g>
</g>
<!-- Node8 -->
<g id="Node000008" class="node">
<title>Node8</title>
<g id="a_Node000008"><a xlink:href="__kiss__fft__guts_8h.html" target="_top" xlink:title=" ">
<polygon fill="white" stroke="#666666" points="271.5,-129 179.5,-129 179.5,-110 271.5,-110 271.5,-129"/>
<text text-anchor="middle" x="225.5" y="-117" font-family="Helvetica,sans-Serif" font-size="10.00">_kiss_fft_guts.h</text>
</a>
</g>
</g>
<!-- Node1&#45;&gt;Node8 -->
<g id="edge7_Node000001_Node000008" class="edge">
<title>Node1&#45;&gt;Node8</title>
<g id="a_edge7_Node000001_Node000008"><a xlink:title=" ">
<path fill="none" stroke="#63b8ff" d="M186.85,-164.84C194.17,-156.43 203.5,-145.74 211.15,-136.96"/>
<polygon fill="#63b8ff" stroke="#63b8ff" points="213.92,-139.1 217.86,-129.27 208.65,-134.5 213.92,-139.1"/>
</a>
</g>
</g>
<!-- Node3 -->
<g id="Node000003" class="node">
<title>Node3</title>
<g id="a_Node000003"><a xlink:href="kiss__fft_8h.html" target="_top" xlink:title=" ">
<polygon fill="white" stroke="#666666" points="161,-74 100,-74 100,-55 161,-55 161,-74"/>
<text text-anchor="middle" x="130.5" y="-62" font-family="Helvetica,sans-Serif" font-size="10.00">kiss_fft.h</text>
</a>
</g>
</g>
<!-- Node2&#45;&gt;Node3 -->
<g id="edge2_Node000002_Node000003" class="edge">
<title>Node2&#45;&gt;Node3</title>
<g id="a_edge2_Node000002_Node000003"><a xlink:title=" ">
<path fill="none" stroke="#63b8ff" d="M125.49,-109.75C126.28,-102.8 127.4,-92.85 128.39,-84.13"/>
<polygon fill="#63b8ff" stroke="#63b8ff" points="131.88,-84.42 129.53,-74.09 124.92,-83.63 131.88,-84.42"/>
</a>
</g>
</g>
<!-- Node4 -->
<g id="Node000004" class="node">
<title>Node4</title>
<g id="a_Node000004"><a xlink:title=" ">
<polygon fill="#e0e0e0" stroke="#999999" points="53,-19 0,-19 0,0 53,0 53,-19"/>
<text text-anchor="middle" x="26.5" y="-7" font-family="Helvetica,sans-Serif" font-size="10.00">stdlib.h</text>
</a>
</g>
</g>
<!-- Node3&#45;&gt;Node4 -->
<g id="edge3_Node000003_Node000004" class="edge">
<title>Node3&#45;&gt;Node4</title>
<g id="a_edge3_Node000003_Node000004"><a xlink:title=" ">
<path fill="none" stroke="#63b8ff" d="M113.79,-54.98C97.29,-46.57 71.8,-33.59 52.62,-23.81"/>
<polygon fill="#63b8ff" stroke="#63b8ff" points="54.01,-20.59 43.51,-19.17 50.83,-26.83 54.01,-20.59"/>
</a>
</g>
</g>
<!-- Node5 -->
<g id="Node000005" class="node">
<title>Node5</title>
<g id="a_Node000005"><a xlink:title=" ">
<polygon fill="#e0e0e0" stroke="#999999" points="121.5,-19 71.5,-19 71.5,0 121.5,0 121.5,-19"/>
<text text-anchor="middle" x="96.5" y="-7" font-family="Helvetica,sans-Serif" font-size="10.00">stdio.h</text>
</a>
</g>
</g>
<!-- Node3&#45;&gt;Node5 -->
<g id="edge4_Node000003_Node000005" class="edge">
<title>Node3&#45;&gt;Node5</title>
<g id="a_edge4_Node000003_Node000005"><a xlink:title=" ">
<path fill="none" stroke="#63b8ff" d="M124.89,-54.75C120.18,-47.42 113.33,-36.73 107.53,-27.7"/>
<polygon fill="#63b8ff" stroke="#63b8ff" points="110.36,-25.62 102.01,-19.09 104.46,-29.4 110.36,-25.62"/>
</a>
</g>
</g>
<!-- Node6 -->
<g id="Node000006" class="node">
<title>Node6</title>
<g id="a_Node000006"><a xlink:title=" ">
<polygon fill="#e0e0e0" stroke="#999999" points="191,-19 140,-19 140,0 191,0 191,-19"/>
<text text-anchor="middle" x="165.5" y="-7" font-family="Helvetica,sans-Serif" font-size="10.00">math.h</text>
</a>
</g>
</g>
<!-- Node3&#45;&gt;Node6 -->
<g id="edge5_Node000003_Node000006" class="edge">
<title>Node3&#45;&gt;Node6</title>
<g id="a_edge5_Node000003_Node000006"><a xlink:title=" ">
<path fill="none" stroke="#63b8ff" d="M136.28,-54.75C141.12,-47.42 148.18,-36.73 154.14,-27.7"/>
<polygon fill="#63b8ff" stroke="#63b8ff" points="157.24,-29.36 159.83,-19.09 151.4,-25.5 157.24,-29.36"/>
</a>
</g>
</g>
<!-- Node7 -->
<g id="Node000007" class="node">
<title>Node7</title>
<g id="a_Node000007"><a xlink:title=" ">
<polygon fill="#e0e0e0" stroke="#999999" points="262,-19 209,-19 209,0 262,0 262,-19"/>
<text text-anchor="middle" x="235.5" y="-7" font-family="Helvetica,sans-Serif" font-size="10.00">string.h</text>
</a>
</g>
</g>
<!-- Node3&#45;&gt;Node7 -->
<g id="edge6_Node000003_Node000007" class="edge">
<title>Node3&#45;&gt;Node7</title>
<g id="a_edge6_Node000003_Node000007"><a xlink:title=" ">
<path fill="none" stroke="#63b8ff" d="M147.37,-54.98C164.11,-46.54 190,-33.47 209.39,-23.68"/>
<polygon fill="#63b8ff" stroke="#63b8ff" points="210.97,-26.8 218.32,-19.17 207.82,-20.55 210.97,-26.8"/>
</a>
</g>
</g>
<!-- Node8&#45;&gt;Node3 -->
<g id="edge8_Node000008_Node000003" class="edge">
<title>Node8&#45;&gt;Node3</title>
<g id="a_edge8_Node000008_Node000003"><a xlink:title=" ">
<path fill="none" stroke="#63b8ff" d="M210.24,-109.98C195.37,-101.69 172.52,-88.94 155.08,-79.22"/>
<polygon fill="#63b8ff" stroke="#63b8ff" points="156.48,-75.99 146.04,-74.17 153.07,-82.1 156.48,-75.99"/>
</a>
</g>
</g>
<!-- Node9 -->
<g id="Node000009" class="node">
<title>Node9</title>
<g id="a_Node000009"><a xlink:href="kiss__fft__log_8h.html" target="_top" xlink:title=" ">
<polygon fill="white" stroke="#666666" points="263,-74 182,-74 182,-55 263,-55 263,-74"/>
<text text-anchor="middle" x="222.5" y="-62" font-family="Helvetica,sans-Serif" font-size="10.00">kiss_fft_log.h</text>
</a>
</g>
</g>
<!-- Node8&#45;&gt;Node9 -->
<g id="edge9_Node000008_Node000009" class="edge">
<title>Node8&#45;&gt;Node9</title>
<g id="a_edge9_Node000008_Node000009"><a xlink:title=" ">
<path fill="none" stroke="#63b8ff" d="M225,-109.75C224.61,-102.8 224.05,-92.85 223.55,-84.13"/>
<polygon fill="#63b8ff" stroke="#63b8ff" points="227.05,-83.88 222.99,-74.09 220.06,-84.27 227.05,-83.88"/>
</a>
</g>
</g>
<!-- Node10 -->
<g id="Node000010" class="node">
<title>Node10</title>
<g id="a_Node000010"><a xlink:title=" ">
<polygon fill="#e0e0e0" stroke="#999999" points="334,-74 281,-74 281,-55 334,-55 334,-74"/>
<text text-anchor="middle" x="307.5" y="-62" font-family="Helvetica,sans-Serif" font-size="10.00">limits.h</text>
</a>
</g>
</g>
<!-- Node8&#45;&gt;Node10 -->
<g id="edge10_Node000008_Node000010" class="edge">
<title>Node8&#45;&gt;Node10</title>
<g id="a_edge10_Node000008_Node000010"><a xlink:title=" ">
<path fill="none" stroke="#63b8ff" d="M238.67,-109.98C251.27,-101.84 270.5,-89.41 285.44,-79.76"/>
<polygon fill="#63b8ff" stroke="#63b8ff" points="287.59,-82.54 294.09,-74.17 283.79,-76.66 287.59,-82.54"/>
</a>
</g>
</g>
</g>
</svg>
