<?xml version="1.0" encoding="UTF-8" standalone="no"?>
<!DOCTYPE svg PUBLIC "-//W3C//DTD SVG 1.1//EN"
 "http://www.w3.org/Graphics/SVG/1.1/DTD/svg11.dtd">
<!-- Generated by graphviz version 2.43.0 (0)
 -->
<!-- Title: src/core/kernels/kissfft/kiss_fft_log.h Pages: 1 -->
<svg width="278pt" height="170pt"
 viewBox="0.00 0.00 278.00 170.00" xmlns="http://www.w3.org/2000/svg" xmlns:xlink="http://www.w3.org/1999/xlink">
<g id="graph0" class="graph" transform="scale(1 1) rotate(0) translate(4 166)">
<title>src/core/kernels/kissfft/kiss_fft_log.h</title>
<!-- Node1 -->
<g id="Node000001" class="node">
<title>Node1</title>
<g id="a_Node000001"><a xlink:title=" ">
<polygon fill="#999999" stroke="#666666" points="198,-162 72,-162 72,-132 198,-132 198,-162"/>
<text text-anchor="start" x="80" y="-150" font-family="Helvetica,sans-Serif" font-size="10.00">src/core/kernels/kissfft</text>
<text text-anchor="middle" x="135" y="-139" font-family="Helvetica,sans-Serif" font-size="10.00">/kiss_fft_log.h</text>
</a>
</g>
</g>
<!-- Node2 -->
<g id="Node000002" class="node">
<title>Node2</title>
<g id="a_Node000002"><a xlink:href="__kiss__fft__guts_8h.html" target="_top" xlink:title=" ">
<polygon fill="white" stroke="#666666" points="198,-96 72,-96 72,-66 198,-66 198,-96"/>
<text text-anchor="start" x="80" y="-84" font-family="Helvetica,sans-Serif" font-size="10.00">src/core/kernels/kissfft</text>
<text text-anchor="middle" x="135" y="-73" font-family="Helvetica,sans-Serif" font-size="10.00">/_kiss_fft_guts.h</text>
</a>
</g>
</g>
<!-- Node1&#45;&gt;Node2 -->
<g id="edge1_Node000001_Node000002" class="edge">
<title>Node1&#45;&gt;Node2</title>
<g id="a_edge1_Node000001_Node000002"><a xlink:title=" ">
<path fill="none" stroke="#63b8ff" d="M135,-121.54C135,-112.96 135,-103.61 135,-96.16"/>
<polygon fill="#63b8ff" stroke="#63b8ff" points="131.5,-121.8 135,-131.8 138.5,-121.8 131.5,-121.8"/>
</a>
</g>
</g>
<!-- Node3 -->
<g id="Node000003" class="node">
<title>Node3</title>
<g id="a_Node000003"><a xlink:href="kiss__fft_8c.html" target="_top" xlink:title=" ">
<polygon fill="white" stroke="#666666" points="126,-30 0,-30 0,0 126,0 126,-30"/>
<text text-anchor="start" x="8" y="-18" font-family="Helvetica,sans-Serif" font-size="10.00">src/core/kernels/kissfft</text>
<text text-anchor="middle" x="63" y="-7" font-family="Helvetica,sans-Serif" font-size="10.00">/kiss_fft.c</text>
</a>
</g>
</g>
<!-- Node2&#45;&gt;Node3 -->
<g id="edge2_Node000002_Node000003" class="edge">
<title>Node2&#45;&gt;Node3</title>
<g id="a_edge2_Node000002_Node000003"><a xlink:title=" ">
<path fill="none" stroke="#63b8ff" d="M111.29,-58.92C100.67,-49.49 88.43,-38.61 78.93,-30.16"/>
<polygon fill="#63b8ff" stroke="#63b8ff" points="109.22,-61.77 119.02,-65.8 113.87,-56.54 109.22,-61.77"/>
</a>
</g>
</g>
<!-- Node4 -->
<g id="Node000004" class="node">
<title>Node4</title>
<g id="a_Node000004"><a xlink:href="kiss__fftnd_8c.html" target="_top" xlink:title=" ">
<polygon fill="white" stroke="#666666" points="270,-30 144,-30 144,0 270,0 270,-30"/>
<text text-anchor="start" x="152" y="-18" font-family="Helvetica,sans-Serif" font-size="10.00">src/core/kernels/kissfft</text>
<text text-anchor="middle" x="207" y="-7" font-family="Helvetica,sans-Serif" font-size="10.00">/kiss_fftnd.c</text>
</a>
</g>
</g>
<!-- Node2&#45;&gt;Node4 -->
<g id="edge3_Node000002_Node000004" class="edge">
<title>Node2&#45;&gt;Node4</title>
<g id="a_edge3_Node000002_Node000004"><a xlink:title=" ">
<path fill="none" stroke="#63b8ff" d="M158.71,-58.92C169.33,-49.49 181.57,-38.61 191.07,-30.16"/>
<polygon fill="#63b8ff" stroke="#63b8ff" points="156.13,-56.54 150.98,-65.8 160.78,-61.77 156.13,-56.54"/>
</a>
</g>
</g>
</g>
</svg>
