<?xml version="1.0" encoding="UTF-8" standalone="no"?>
<!DOCTYPE svg PUBLIC "-//W3C//DTD SVG 1.1//EN"
 "http://www.w3.org/Graphics/SVG/1.1/DTD/svg11.dtd">
<!-- Generated by graphviz version 2.43.0 (0)
 -->
<!-- Title: src/core/kernels/kissfft/kiss_fftnd.c Pages: 1 -->
<svg width="344pt" height="203pt"
 viewBox="0.00 0.00 344.00 203.00" xmlns="http://www.w3.org/2000/svg" xmlns:xlink="http://www.w3.org/1999/xlink">
<g id="graph0" class="graph" transform="scale(1 1) rotate(0) translate(4 199)">
<title>src/core/kernels/kissfft/kiss_fftnd.c</title>
<!-- Node1 -->
<g id="Node000001" class="node">
<title>Node1</title>
<g id="a_Node000001"><a xlink:title=" ">
<polygon fill="#999999" stroke="#666666" points="229.5,-195 103.5,-195 103.5,-165 229.5,-165 229.5,-195"/>
<text text-anchor="start" x="111.5" y="-183" font-family="Helvetica,sans-Serif" font-size="10.00">src/core/kernels/kissfft</text>
<text text-anchor="middle" x="166.5" y="-172" font-family="Helvetica,sans-Serif" font-size="10.00">/kiss_fftnd.c</text>
</a>
</g>
</g>
<!-- Node2 -->
<g id="Node000002" class="node">
<title>Node2</title>
<g id="a_Node000002"><a xlink:href="kiss__fftnd_8h.html" target="_top" xlink:title=" ">
<polygon fill="white" stroke="#666666" points="153,-129 80,-129 80,-110 153,-110 153,-129"/>
<text text-anchor="middle" x="116.5" y="-117" font-family="Helvetica,sans-Serif" font-size="10.00">kiss_fftnd.h</text>
</a>
</g>
</g>
<!-- Node1&#45;&gt;Node2 -->
<g id="edge1_Node000001_Node000002" class="edge">
<title>Node1&#45;&gt;Node2</title>
<g id="a_edge1_Node000001_Node000002"><a xlink:title=" ">
<path fill="none" stroke="#63b8ff" d="M154.4,-164.84C147.21,-156.43 138.07,-145.74 130.57,-136.96"/>
<polygon fill="#63b8ff" stroke="#63b8ff" points="133.15,-134.59 123.99,-129.27 127.83,-139.14 133.15,-134.59"/>
</a>
</g>
</g>
<!-- Node8 -->
<g id="Node000008" class="node">
<title>Node8</title>
<g id="a_Node000008"><a xlink:href="__kiss__fft__guts_8h.html" target="_top" xlink:title=" ">
<polygon fill="white" stroke="#666666" points="263.5,-129 171.5,-129 171.5,-110 263.5,-110 263.5,-129"/>
<text text-anchor="middle" x="217.5" y="-117" font-family="Helvetica,sans-Serif" font-size="10.00">_kiss_fft_guts.h</text>
</a>
</g>
</g>
<!-- Node1&#45;&gt;Node8 -->
<g id="edge7_Node000001_Node000008" class="edge">
<title>Node1&#45;&gt;Node8</title>
<g id="a_edge7_Node000001_Node000008"><a xlink:title=" ">
<path fill="none" stroke="#63b8ff" d="M178.85,-164.84C186.17,-156.43 195.5,-145.74 203.15,-136.96"/>
<polygon fill="#63b8ff" stroke="#63b8ff" points="205.92,-139.1 209.86,-129.27 200.65,-134.5 205.92,-139.1"/>
</a>
</g>
</g>
<!-- Node3 -->
<g id="Node000003" class="node">
<title>Node3</title>
<g id="a_Node000003"><a xlink:href="kiss__fft_8h.html" target="_top" xlink:title=" ">
<polygon fill="white" stroke="#666666" points="160,-74 99,-74 99,-55 160,-55 160,-74"/>
<text text-anchor="middle" x="129.5" y="-62" font-family="Helvetica,sans-Serif" font-size="10.00">kiss_fft.h</text>
</a>
</g>
</g>
<!-- Node2&#45;&gt;Node3 -->
<g id="edge2_Node000002_Node000003" class="edge">
<title>Node2&#45;&gt;Node3</title>
<g id="a_edge2_Node000002_Node000003"><a xlink:title=" ">
<path fill="none" stroke="#63b8ff" d="M118.65,-109.75C120.37,-102.72 122.85,-92.62 125,-83.84"/>
<polygon fill="#63b8ff" stroke="#63b8ff" points="128.41,-84.63 127.39,-74.09 121.61,-82.97 128.41,-84.63"/>
</a>
</g>
</g>
<!-- Node4 -->
<g id="Node000004" class="node">
<title>Node4</title>
<g id="a_Node000004"><a xlink:title=" ">
<polygon fill="#e0e0e0" stroke="#999999" points="51,-19 0,-19 0,0 51,0 51,-19"/>
<text text-anchor="middle" x="25.5" y="-7" font-family="Helvetica,sans-Serif" font-size="10.00">math.h</text>
</a>
</g>
</g>
<!-- Node3&#45;&gt;Node4 -->
<g id="edge3_Node000003_Node000004" class="edge">
<title>Node3&#45;&gt;Node4</title>
<g id="a_edge3_Node000003_Node000004"><a xlink:title=" ">
<path fill="none" stroke="#63b8ff" d="M112.79,-54.98C96.29,-46.57 70.8,-33.59 51.62,-23.81"/>
<polygon fill="#63b8ff" stroke="#63b8ff" points="53.01,-20.59 42.51,-19.17 49.83,-26.83 53.01,-20.59"/>
</a>
</g>
</g>
<!-- Node5 -->
<g id="Node000005" class="node">
<title>Node5</title>
<g id="a_Node000005"><a xlink:title=" ">
<polygon fill="#e0e0e0" stroke="#999999" points="119.5,-19 69.5,-19 69.5,0 119.5,0 119.5,-19"/>
<text text-anchor="middle" x="94.5" y="-7" font-family="Helvetica,sans-Serif" font-size="10.00">stdio.h</text>
</a>
</g>
</g>
<!-- Node3&#45;&gt;Node5 -->
<g id="edge4_Node000003_Node000005" class="edge">
<title>Node3&#45;&gt;Node5</title>
<g id="a_edge4_Node000003_Node000005"><a xlink:title=" ">
<path fill="none" stroke="#63b8ff" d="M123.72,-54.75C118.88,-47.42 111.82,-36.73 105.86,-27.7"/>
<polygon fill="#63b8ff" stroke="#63b8ff" points="108.6,-25.5 100.17,-19.09 102.76,-29.36 108.6,-25.5"/>
</a>
</g>
</g>
<!-- Node6 -->
<g id="Node000006" class="node">
<title>Node6</title>
<g id="a_Node000006"><a xlink:title=" ">
<polygon fill="#e0e0e0" stroke="#999999" points="191,-19 138,-19 138,0 191,0 191,-19"/>
<text text-anchor="middle" x="164.5" y="-7" font-family="Helvetica,sans-Serif" font-size="10.00">stdlib.h</text>
</a>
</g>
</g>
<!-- Node3&#45;&gt;Node6 -->
<g id="edge5_Node000003_Node000006" class="edge">
<title>Node3&#45;&gt;Node6</title>
<g id="a_edge5_Node000003_Node000006"><a xlink:title=" ">
<path fill="none" stroke="#63b8ff" d="M135.28,-54.75C140.12,-47.42 147.18,-36.73 153.14,-27.7"/>
<polygon fill="#63b8ff" stroke="#63b8ff" points="156.24,-29.36 158.83,-19.09 150.4,-25.5 156.24,-29.36"/>
</a>
</g>
</g>
<!-- Node7 -->
<g id="Node000007" class="node">
<title>Node7</title>
<g id="a_Node000007"><a xlink:title=" ">
<polygon fill="#e0e0e0" stroke="#999999" points="262,-19 209,-19 209,0 262,0 262,-19"/>
<text text-anchor="middle" x="235.5" y="-7" font-family="Helvetica,sans-Serif" font-size="10.00">string.h</text>
</a>
</g>
</g>
<!-- Node3&#45;&gt;Node7 -->
<g id="edge6_Node000003_Node000007" class="edge">
<title>Node3&#45;&gt;Node7</title>
<g id="a_edge6_Node000003_Node000007"><a xlink:title=" ">
<path fill="none" stroke="#63b8ff" d="M146.53,-54.98C163.43,-46.54 189.56,-33.47 209.14,-23.68"/>
<polygon fill="#63b8ff" stroke="#63b8ff" points="210.78,-26.77 218.16,-19.17 207.65,-20.51 210.78,-26.77"/>
</a>
</g>
</g>
<!-- Node8&#45;&gt;Node3 -->
<g id="edge9_Node000008_Node000003" class="edge">
<title>Node8&#45;&gt;Node3</title>
<g id="a_edge9_Node000008_Node000003"><a xlink:title=" ">
<path fill="none" stroke="#63b8ff" d="M203.36,-109.98C189.71,-101.77 168.81,-89.18 152.72,-79.49"/>
<polygon fill="#63b8ff" stroke="#63b8ff" points="154.27,-76.33 143.9,-74.17 150.66,-82.33 154.27,-76.33"/>
</a>
</g>
</g>
<!-- Node9 -->
<g id="Node000009" class="node">
<title>Node9</title>
<g id="a_Node000009"><a xlink:title=" ">
<polygon fill="#e0e0e0" stroke="#999999" points="237,-74 184,-74 184,-55 237,-55 237,-74"/>
<text text-anchor="middle" x="210.5" y="-62" font-family="Helvetica,sans-Serif" font-size="10.00">limits.h</text>
</a>
</g>
</g>
<!-- Node8&#45;&gt;Node9 -->
<g id="edge8_Node000008_Node000009" class="edge">
<title>Node8&#45;&gt;Node9</title>
<g id="a_edge8_Node000008_Node000009"><a xlink:title=" ">
<path fill="none" stroke="#63b8ff" d="M216.34,-109.75C215.43,-102.8 214.11,-92.85 212.96,-84.13"/>
<polygon fill="#63b8ff" stroke="#63b8ff" points="216.41,-83.54 211.63,-74.09 209.47,-84.46 216.41,-83.54"/>
</a>
</g>
</g>
<!-- Node10 -->
<g id="Node000010" class="node">
<title>Node10</title>
<g id="a_Node000010"><a xlink:href="kiss__fft__log_8h.html" target="_top" xlink:title=" ">
<polygon fill="white" stroke="#666666" points="336,-74 255,-74 255,-55 336,-55 336,-74"/>
<text text-anchor="middle" x="295.5" y="-62" font-family="Helvetica,sans-Serif" font-size="10.00">kiss_fft_log.h</text>
</a>
</g>
</g>
<!-- Node8&#45;&gt;Node10 -->
<g id="edge10_Node000008_Node000010" class="edge">
<title>Node8&#45;&gt;Node10</title>
<g id="a_edge10_Node000008_Node000010"><a xlink:title=" ">
<path fill="none" stroke="#63b8ff" d="M230.03,-109.98C241.9,-101.92 259.96,-89.65 274.11,-80.03"/>
<polygon fill="#63b8ff" stroke="#63b8ff" points="276.44,-82.69 282.74,-74.17 272.5,-76.9 276.44,-82.69"/>
</a>
</g>
</g>
</g>
</svg>
