<?xml version="1.0" encoding="UTF-8" standalone="no"?>
<!DOCTYPE svg PUBLIC "-//W3C//DTD SVG 1.1//EN"
 "http://www.w3.org/Graphics/SVG/1.1/DTD/svg11.dtd">
<!-- Generated by graphviz version 2.43.0 (0)
 -->
<!-- Title: acc&#45;runtime/api/math_utils.h Pages: 1 -->
<svg width="3210pt" height="181pt"
 viewBox="0.00 0.00 3210.00 181.00" xmlns="http://www.w3.org/2000/svg" xmlns:xlink="http://www.w3.org/1999/xlink">
<g id="graph0" class="graph" transform="scale(1 1) rotate(0) translate(4 177)">
<title>acc&#45;runtime/api/math_utils.h</title>
<!-- Node1 -->
<g id="Node000001" class="node">
<title>Node1</title>
<g id="a_Node000001"><a xlink:title="Brief info.">
<polygon fill="#999999" stroke="#666666" points="1610,-173 1488,-173 1488,-143 1610,-143 1610,-173"/>
<text text-anchor="start" x="1496" y="-161" font-family="Helvetica,sans-Serif" font-size="10.00">acc&#45;runtime/api/math</text>
<text text-anchor="middle" x="1549" y="-150" font-family="Helvetica,sans-Serif" font-size="10.00">_utils.h</text>
</a>
</g>
</g>
<!-- Node2 -->
<g id="Node000002" class="node">
<title>Node2</title>
<g id="a_Node000002"><a xlink:href="acc__runtime_8cu.html" target="_top" xlink:title=" ">
<polygon fill="white" stroke="#666666" points="129.5,-101.5 16.5,-101.5 16.5,-71.5 129.5,-71.5 129.5,-101.5"/>
<text text-anchor="start" x="24.5" y="-89.5" font-family="Helvetica,sans-Serif" font-size="10.00">acc&#45;runtime/api/acc</text>
<text text-anchor="middle" x="73" y="-78.5" font-family="Helvetica,sans-Serif" font-size="10.00">_runtime.cu</text>
</a>
</g>
</g>
<!-- Node1&#45;&gt;Node2 -->
<g id="edge1_Node000001_Node000002" class="edge">
<title>Node1&#45;&gt;Node2</title>
<g id="a_edge1_Node000001_Node000002"><a xlink:title=" ">
<path fill="none" stroke="#63b8ff" d="M1477.71,-156.88C1228.89,-156.09 399.95,-150.2 138,-107 130.21,-105.72 122.05,-103.77 114.24,-101.59"/>
<polygon fill="#63b8ff" stroke="#63b8ff" points="1477.71,-160.38 1487.72,-156.91 1477.73,-153.38 1477.71,-160.38"/>
</a>
</g>
</g>
<!-- Node4 -->
<g id="Node000004" class="node">
<title>Node4</title>
<g id="a_Node000004"><a xlink:href="common__kernels_8cc.html" target="_top" xlink:title=" ">
<polygon fill="white" stroke="#666666" points="286.5,-101.5 147.5,-101.5 147.5,-71.5 286.5,-71.5 286.5,-101.5"/>
<text text-anchor="start" x="155.5" y="-89.5" font-family="Helvetica,sans-Serif" font-size="10.00">acc&#45;runtime/api/common</text>
<text text-anchor="middle" x="217" y="-78.5" font-family="Helvetica,sans-Serif" font-size="10.00">_kernels.cc</text>
</a>
</g>
</g>
<!-- Node1&#45;&gt;Node4 -->
<g id="edge3_Node000001_Node000004" class="edge">
<title>Node1&#45;&gt;Node4</title>
<g id="a_edge3_Node000001_Node000004"><a xlink:title=" ">
<path fill="none" stroke="#63b8ff" d="M1477.39,-156.04C1247,-152.67 526.6,-139.72 296,-107 286.63,-105.67 276.75,-103.7 267.28,-101.52"/>
<polygon fill="#63b8ff" stroke="#63b8ff" points="1477.61,-159.55 1487.66,-156.19 1477.71,-152.55 1477.61,-159.55"/>
</a>
</g>
</g>
<!-- Node5 -->
<g id="Node000005" class="node">
<title>Node5</title>
<g id="a_Node000005"><a xlink:href="vba_8cc.html" target="_top" xlink:title=" ">
<polygon fill="white" stroke="#666666" points="433,-96 305,-96 305,-77 433,-77 433,-96"/>
<text text-anchor="middle" x="369" y="-84" font-family="Helvetica,sans-Serif" font-size="10.00">acc&#45;runtime/api/vba.cc</text>
</a>
</g>
</g>
<!-- Node1&#45;&gt;Node5 -->
<g id="edge4_Node000001_Node000005" class="edge">
<title>Node1&#45;&gt;Node5</title>
<g id="a_edge4_Node000001_Node000005"><a xlink:title=" ">
<path fill="none" stroke="#63b8ff" d="M1477.88,-155.79C1266.25,-151.89 642.87,-137.99 442,-107 426.31,-104.58 409.15,-100.09 395.4,-96.03"/>
<polygon fill="#63b8ff" stroke="#63b8ff" points="1477.88,-159.29 1487.94,-155.98 1478,-152.29 1477.88,-159.29"/>
</a>
</g>
</g>
<!-- Node6 -->
<g id="Node000006" class="node">
<title>Node6</title>
<g id="a_Node000006"><a xlink:href="astaroth_8cc.html" target="_top" xlink:title=" ">
<polygon fill="white" stroke="#666666" points="563,-96 451,-96 451,-77 563,-77 563,-96"/>
<text text-anchor="middle" x="507" y="-84" font-family="Helvetica,sans-Serif" font-size="10.00">src/core/astaroth.cc</text>
</a>
</g>
</g>
<!-- Node1&#45;&gt;Node6 -->
<g id="edge5_Node000001_Node000006" class="edge">
<title>Node1&#45;&gt;Node6</title>
<g id="a_edge5_Node000001_Node000006"><a xlink:title=" ">
<path fill="none" stroke="#63b8ff" d="M1477.62,-155.57C1283.02,-151.32 746.17,-137.13 572,-107 557.95,-104.57 542.66,-100.08 530.44,-96.02"/>
<polygon fill="#63b8ff" stroke="#63b8ff" points="1477.66,-159.07 1487.73,-155.79 1477.81,-152.07 1477.66,-159.07"/>
</a>
</g>
</g>
<!-- Node7 -->
<g id="Node000007" class="node">
<title>Node7</title>
<g id="a_Node000007"><a xlink:href="decomposition_8h.html" target="_top" xlink:title=" ">
<polygon fill="white" stroke="#666666" points="711,-101.5 581,-101.5 581,-71.5 711,-71.5 711,-101.5"/>
<text text-anchor="start" x="589" y="-89.5" font-family="Helvetica,sans-Serif" font-size="10.00">src/core/decomposition</text>
<text text-anchor="middle" x="646" y="-78.5" font-family="Helvetica,sans-Serif" font-size="10.00">/decomposition.h</text>
</a>
</g>
</g>
<!-- Node1&#45;&gt;Node7 -->
<g id="edge6_Node000001_Node000007" class="edge">
<title>Node1&#45;&gt;Node7</title>
<g id="a_edge6_Node000001_Node000007"><a xlink:title=" ">
<path fill="none" stroke="#63b8ff" d="M1477.45,-157.01C1333.91,-156.07 1000.93,-149.07 725,-107 715.92,-105.62 706.36,-103.68 697.15,-101.56"/>
<polygon fill="#63b8ff" stroke="#63b8ff" points="1477.85,-160.51 1487.87,-157.07 1477.89,-153.51 1477.85,-160.51"/>
</a>
</g>
</g>
<!-- Node9 -->
<g id="Node000009" class="node">
<title>Node9</title>
<g id="a_Node000009"><a xlink:href="task_8h.html" target="_top" xlink:title=" ">
<polygon fill="white" stroke="#666666" points="783,-24.5 695,-24.5 695,-5.5 783,-5.5 783,-24.5"/>
<text text-anchor="middle" x="739" y="-12.5" font-family="Helvetica,sans-Serif" font-size="10.00">src/core/task.h</text>
</a>
</g>
</g>
<!-- Node1&#45;&gt;Node9 -->
<g id="edge13_Node000001_Node000009" class="edge">
<title>Node1&#45;&gt;Node9</title>
<g id="a_edge13_Node000001_Node000009"><a xlink:title=" ">
<path fill="none" stroke="#63b8ff" d="M1477.66,-157.33C1293.31,-157.52 811.68,-153.51 758,-107 733.85,-86.07 735.69,-43.08 737.77,-24.67"/>
<polygon fill="#63b8ff" stroke="#63b8ff" points="1477.8,-160.83 1487.79,-157.32 1477.79,-153.83 1477.8,-160.83"/>
</a>
</g>
</g>
<!-- Node10 -->
<g id="Node000010" class="node">
<title>Node10</title>
<g id="a_Node000010"><a xlink:href="device_8cc.html" target="_top" xlink:title=" ">
<polygon fill="white" stroke="#666666" points="871,-96 767,-96 767,-77 871,-77 871,-96"/>
<text text-anchor="middle" x="819" y="-84" font-family="Helvetica,sans-Serif" font-size="10.00">src/core/device.cc</text>
</a>
</g>
</g>
<!-- Node1&#45;&gt;Node10 -->
<g id="edge9_Node000001_Node000010" class="edge">
<title>Node1&#45;&gt;Node10</title>
<g id="a_edge9_Node000001_Node000010"><a xlink:title=" ">
<path fill="none" stroke="#63b8ff" d="M1477.55,-157.01C1354.56,-155.85 1095.4,-148.17 881,-107 867.7,-104.45 853.25,-100 841.64,-96"/>
<polygon fill="#63b8ff" stroke="#63b8ff" points="1477.56,-160.51 1487.59,-157.1 1477.62,-153.51 1477.56,-160.51"/>
</a>
</g>
</g>
<!-- Node11 -->
<g id="Node000011" class="node">
<title>Node11</title>
<g id="a_Node000011"><a xlink:href="pack__unpack_8cuh.html" target="_top" xlink:title=" ">
<polygon fill="white" stroke="#666666" points="1008.5,-101.5 889.5,-101.5 889.5,-71.5 1008.5,-71.5 1008.5,-101.5"/>
<text text-anchor="start" x="897.5" y="-89.5" font-family="Helvetica,sans-Serif" font-size="10.00">src/core/kernels/pack</text>
<text text-anchor="middle" x="949" y="-78.5" font-family="Helvetica,sans-Serif" font-size="10.00">_unpack.cuh</text>
</a>
</g>
</g>
<!-- Node1&#45;&gt;Node11 -->
<g id="edge10_Node000001_Node000011" class="edge">
<title>Node1&#45;&gt;Node11</title>
<g id="a_edge10_Node000001_Node000011"><a xlink:title=" ">
<path fill="none" stroke="#63b8ff" d="M1477.76,-154.4C1375.31,-149.73 1180.8,-137.41 1018,-107 1010.29,-105.56 1002.2,-103.65 994.38,-101.58"/>
<polygon fill="#63b8ff" stroke="#63b8ff" points="1477.83,-157.91 1487.98,-154.85 1478.15,-150.91 1477.83,-157.91"/>
</a>
</g>
</g>
<!-- Node12 -->
<g id="Node000012" class="node">
<title>Node12</title>
<g id="a_Node000012"><a xlink:href="reductions_8cu.html" target="_top" xlink:title=" ">
<polygon fill="white" stroke="#666666" points="1187.5,-96 1026.5,-96 1026.5,-77 1187.5,-77 1187.5,-96"/>
<text text-anchor="middle" x="1107" y="-84" font-family="Helvetica,sans-Serif" font-size="10.00">src/core/kernels/reductions.cu</text>
</a>
</g>
</g>
<!-- Node1&#45;&gt;Node12 -->
<g id="edge11_Node000001_Node000012" class="edge">
<title>Node1&#45;&gt;Node12</title>
<g id="a_edge11_Node000001_Node000012"><a xlink:title=" ">
<path fill="none" stroke="#63b8ff" d="M1477.53,-148.39C1406.24,-139.43 1293.71,-124.32 1197,-107 1179.37,-103.84 1159.94,-99.72 1143.66,-96.07"/>
<polygon fill="#63b8ff" stroke="#63b8ff" points="1477.38,-151.9 1487.74,-149.66 1478.25,-144.95 1477.38,-151.9"/>
</a>
</g>
</g>
<!-- Node13 -->
<g id="Node000013" class="node">
<title>Node13</title>
<g id="a_Node000013"><a xlink:href="node_8cc.html" target="_top" xlink:title="Multi&#45;GPU implementation.">
<polygon fill="white" stroke="#666666" points="1300.5,-96 1205.5,-96 1205.5,-77 1300.5,-77 1300.5,-96"/>
<text text-anchor="middle" x="1253" y="-84" font-family="Helvetica,sans-Serif" font-size="10.00">src/core/node.cc</text>
</a>
</g>
</g>
<!-- Node1&#45;&gt;Node13 -->
<g id="edge12_Node000001_Node000013" class="edge">
<title>Node1&#45;&gt;Node13</title>
<g id="a_edge12_Node000001_Node000013"><a xlink:title=" ">
<path fill="none" stroke="#63b8ff" d="M1477.66,-144.46C1429.86,-135.48 1365.72,-122.3 1310,-107 1298.6,-103.87 1286.16,-99.71 1275.82,-96.03"/>
<polygon fill="#63b8ff" stroke="#63b8ff" points="1477.13,-147.92 1487.6,-146.31 1478.41,-141.04 1477.13,-147.92"/>
</a>
</g>
</g>
<!-- Node14 -->
<g id="Node000014" class="node">
<title>Node14</title>
<g id="a_Node000014"><a xlink:href="update__params_8cc.html" target="_top" xlink:title=" ">
<polygon fill="white" stroke="#666666" points="1453,-101.5 1319,-101.5 1319,-71.5 1453,-71.5 1453,-101.5"/>
<text text-anchor="start" x="1327" y="-89.5" font-family="Helvetica,sans-Serif" font-size="10.00">src/core/update_params</text>
<text text-anchor="middle" x="1386" y="-78.5" font-family="Helvetica,sans-Serif" font-size="10.00">/update_params.cc</text>
</a>
</g>
</g>
<!-- Node1&#45;&gt;Node14 -->
<g id="edge14_Node000001_Node000014" class="edge">
<title>Node1&#45;&gt;Node14</title>
<g id="a_edge14_Node000001_Node000014"><a xlink:title=" ">
<path fill="none" stroke="#63b8ff" d="M1506.69,-138.96C1479.32,-127.29 1444.22,-112.32 1418.94,-101.54"/>
<polygon fill="#63b8ff" stroke="#63b8ff" points="1505.44,-142.23 1516.01,-142.94 1508.19,-135.79 1505.44,-142.23"/>
</a>
</g>
</g>
<!-- Node15 -->
<g id="Node000015" class="node">
<title>Node15</title>
<g id="a_Node000015"><a xlink:href="stdlib_2geometric__multigrid_8h.html" target="_top" xlink:title=" ">
<polygon fill="white" stroke="#666666" points="1626.5,-96 1471.5,-96 1471.5,-77 1626.5,-77 1626.5,-96"/>
<text text-anchor="middle" x="1549" y="-84" font-family="Helvetica,sans-Serif" font-size="10.00">stdlib/geometric_multigrid.h</text>
</a>
</g>
</g>
<!-- Node1&#45;&gt;Node15 -->
<g id="edge15_Node000001_Node000015" class="edge">
<title>Node1&#45;&gt;Node15</title>
<g id="a_edge15_Node000001_Node000015"><a xlink:title=" ">
<path fill="none" stroke="#63b8ff" d="M1549,-132.56C1549,-119.95 1549,-105.35 1549,-96.27"/>
<polygon fill="#63b8ff" stroke="#63b8ff" points="1545.5,-132.94 1549,-142.94 1552.5,-132.94 1545.5,-132.94"/>
</a>
</g>
</g>
<!-- Node16 -->
<g id="Node000016" class="node">
<title>Node16</title>
<g id="a_Node000016"><a xlink:href="bwtest_8cu.html" target="_top" xlink:title=" ">
<polygon fill="white" stroke="#666666" points="1767,-96 1645,-96 1645,-77 1767,-77 1767,-96"/>
<text text-anchor="middle" x="1706" y="-84" font-family="Helvetica,sans-Serif" font-size="10.00">test/bwtest/bwtest.cu</text>
</a>
</g>
</g>
<!-- Node1&#45;&gt;Node16 -->
<g id="edge16_Node000001_Node000016" class="edge">
<title>Node1&#45;&gt;Node16</title>
<g id="a_edge16_Node000001_Node000016"><a xlink:title=" ">
<path fill="none" stroke="#63b8ff" d="M1590.08,-138.81C1621.25,-125.02 1662.69,-106.67 1686.65,-96.07"/>
<polygon fill="#63b8ff" stroke="#63b8ff" points="1588.5,-135.69 1580.77,-142.94 1591.33,-142.09 1588.5,-135.69"/>
</a>
</g>
</g>
<!-- Node17 -->
<g id="Node000017" class="node">
<title>Node17</title>
<g id="a_Node000017"><a xlink:href="main_8cu.html" target="_top" xlink:title=" ">
<polygon fill="white" stroke="#666666" points="1881,-101.5 1785,-101.5 1785,-71.5 1881,-71.5 1881,-101.5"/>
<text text-anchor="start" x="1793" y="-89.5" font-family="Helvetica,sans-Serif" font-size="10.00">test/fft&#45;shift&#45;test</text>
<text text-anchor="middle" x="1833" y="-78.5" font-family="Helvetica,sans-Serif" font-size="10.00">/main.cu</text>
</a>
</g>
</g>
<!-- Node1&#45;&gt;Node17 -->
<g id="edge17_Node000001_Node000017" class="edge">
<title>Node1&#45;&gt;Node17</title>
<g id="a_edge17_Node000001_Node000017"><a xlink:title=" ">
<path fill="none" stroke="#63b8ff" d="M1620.12,-143.48C1665.12,-134.4 1724.34,-121.48 1776,-107 1781.84,-105.36 1787.96,-103.47 1793.93,-101.51"/>
<polygon fill="#63b8ff" stroke="#63b8ff" points="1619.28,-140.08 1610.16,-145.48 1620.65,-146.94 1619.28,-140.08"/>
</a>
</g>
</g>
<!-- Node18 -->
<g id="Node000018" class="node">
<title>Node18</title>
<g id="a_Node000018"><a xlink:href="multigrid-tests_2anisotropic-test_2main_8cc.html" target="_top" xlink:title=" ">
<polygon fill="white" stroke="#666666" points="2036.5,-101.5 1899.5,-101.5 1899.5,-71.5 2036.5,-71.5 2036.5,-101.5"/>
<text text-anchor="start" x="1907.5" y="-89.5" font-family="Helvetica,sans-Serif" font-size="10.00">test/multigrid&#45;tests</text>
<text text-anchor="middle" x="1968" y="-78.5" font-family="Helvetica,sans-Serif" font-size="10.00">/anisotropic&#45;test/main.cc</text>
</a>
</g>
</g>
<!-- Node1&#45;&gt;Node18 -->
<g id="edge18_Node000001_Node000018" class="edge">
<title>Node1&#45;&gt;Node18</title>
<g id="a_edge18_Node000001_Node000018"><a xlink:title=" ">
<path fill="none" stroke="#63b8ff" d="M1620.22,-148.65C1689.45,-140.04 1797.41,-125.31 1890,-107 1898.08,-105.4 1906.58,-103.5 1914.87,-101.53"/>
<polygon fill="#63b8ff" stroke="#63b8ff" points="1619.79,-145.18 1610.3,-149.88 1620.65,-152.12 1619.79,-145.18"/>
</a>
</g>
</g>
<!-- Node19 -->
<g id="Node000019" class="node">
<title>Node19</title>
<g id="a_Node000019"><a xlink:href="multigrid-tests_2compact-stencil-multigrid-test_2main_8cc.html" target="_top" xlink:title=" ">
<polygon fill="white" stroke="#666666" points="2201,-107 2055,-107 2055,-66 2201,-66 2201,-107"/>
<text text-anchor="start" x="2063" y="-95" font-family="Helvetica,sans-Serif" font-size="10.00">test/multigrid&#45;tests</text>
<text text-anchor="start" x="2063" y="-84" font-family="Helvetica,sans-Serif" font-size="10.00">/compact&#45;stencil&#45;multigrid</text>
<text text-anchor="middle" x="2128" y="-73" font-family="Helvetica,sans-Serif" font-size="10.00">&#45;test/main.cc</text>
</a>
</g>
</g>
<!-- Node1&#45;&gt;Node19 -->
<g id="edge19_Node000001_Node000019" class="edge">
<title>Node1&#45;&gt;Node19</title>
<g id="a_edge19_Node000001_Node000019"><a xlink:title=" ">
<path fill="none" stroke="#63b8ff" d="M1620.44,-152.81C1717.34,-146.45 1895.63,-132.33 2046,-107 2048.89,-106.51 2051.82,-105.98 2054.78,-105.42"/>
<polygon fill="#63b8ff" stroke="#63b8ff" points="1619.93,-149.34 1610.17,-153.48 1620.38,-156.32 1619.93,-149.34"/>
</a>
</g>
</g>
<!-- Node20 -->
<g id="Node000020" class="node">
<title>Node20</title>
<g id="a_Node000020"><a xlink:href="multigrid-tests_2line-smoother-multigrid-test_2main_8cc.html" target="_top" xlink:title=" ">
<polygon fill="white" stroke="#666666" points="2355,-107 2219,-107 2219,-66 2355,-66 2355,-107"/>
<text text-anchor="start" x="2227" y="-95" font-family="Helvetica,sans-Serif" font-size="10.00">test/multigrid&#45;tests</text>
<text text-anchor="start" x="2227" y="-84" font-family="Helvetica,sans-Serif" font-size="10.00">/line&#45;smoother&#45;multigrid</text>
<text text-anchor="middle" x="2287" y="-73" font-family="Helvetica,sans-Serif" font-size="10.00">&#45;test/main.cc</text>
</a>
</g>
</g>
<!-- Node1&#45;&gt;Node20 -->
<g id="edge20_Node000001_Node000020" class="edge">
<title>Node1&#45;&gt;Node20</title>
<g id="a_edge20_Node000001_Node000020"><a xlink:title=" ">
<path fill="none" stroke="#63b8ff" d="M1620.31,-155.63C1742.01,-152.4 1997.27,-141.72 2210,-107 2212.86,-106.53 2215.77,-106.01 2218.69,-105.45"/>
<polygon fill="#63b8ff" stroke="#63b8ff" points="1619.93,-152.14 1610.02,-155.89 1620.1,-159.14 1619.93,-152.14"/>
</a>
</g>
</g>
<!-- Node21 -->
<g id="Node000021" class="node">
<title>Node21</title>
<g id="a_Node000021"><a xlink:href="multigrid-tests_2multigrid-test_2main_8cc.html" target="_top" xlink:title=" ">
<polygon fill="white" stroke="#666666" points="2501,-101.5 2373,-101.5 2373,-71.5 2501,-71.5 2501,-101.5"/>
<text text-anchor="start" x="2381" y="-89.5" font-family="Helvetica,sans-Serif" font-size="10.00">test/multigrid&#45;tests</text>
<text text-anchor="middle" x="2437" y="-78.5" font-family="Helvetica,sans-Serif" font-size="10.00">/multigrid&#45;test/main.cc</text>
</a>
</g>
</g>
<!-- Node1&#45;&gt;Node21 -->
<g id="edge21_Node000001_Node000021" class="edge">
<title>Node1&#45;&gt;Node21</title>
<g id="a_edge21_Node000001_Node000021"><a xlink:title=" ">
<path fill="none" stroke="#63b8ff" d="M1620.37,-157.39C1762.76,-157.12 2091.84,-151.24 2364,-107 2372.42,-105.63 2381.26,-103.7 2389.78,-101.58"/>
<polygon fill="#63b8ff" stroke="#63b8ff" points="1620.03,-153.89 1610.04,-157.4 1620.04,-160.89 1620.03,-153.89"/>
</a>
</g>
</g>
<!-- Node22 -->
<g id="Node000022" class="node">
<title>Node22</title>
<g id="a_Node000022"><a xlink:href="multigrid-tests_2non-equidistant-test_2main_8cc.html" target="_top" xlink:title=" ">
<polygon fill="white" stroke="#666666" points="2638.5,-107 2519.5,-107 2519.5,-66 2638.5,-66 2638.5,-107"/>
<text text-anchor="start" x="2527.5" y="-95" font-family="Helvetica,sans-Serif" font-size="10.00">test/multigrid&#45;tests</text>
<text text-anchor="start" x="2527.5" y="-84" font-family="Helvetica,sans-Serif" font-size="10.00">/non&#45;equidistant&#45;test</text>
<text text-anchor="middle" x="2579" y="-73" font-family="Helvetica,sans-Serif" font-size="10.00">/main.cc</text>
</a>
</g>
</g>
<!-- Node1&#45;&gt;Node22 -->
<g id="edge22_Node000001_Node000022" class="edge">
<title>Node1&#45;&gt;Node22</title>
<g id="a_edge22_Node000001_Node000022"><a xlink:title=" ">
<path fill="none" stroke="#63b8ff" d="M1620.5,-155.35C1812.93,-150.58 2338.84,-135.27 2510,-107 2513.07,-106.49 2516.2,-105.9 2519.35,-105.24"/>
<polygon fill="#63b8ff" stroke="#63b8ff" points="1620.13,-151.86 1610.22,-155.6 1620.3,-158.86 1620.13,-151.86"/>
</a>
</g>
</g>
<!-- Node23 -->
<g id="Node000023" class="node">
<title>Node23</title>
<g id="a_Node000023"><a xlink:href="multigrid-tests_2parallel-multigrid-test_2main_8cc.html" target="_top" xlink:title=" ">
<polygon fill="white" stroke="#666666" points="2783.5,-107 2656.5,-107 2656.5,-66 2783.5,-66 2783.5,-107"/>
<text text-anchor="start" x="2664.5" y="-95" font-family="Helvetica,sans-Serif" font-size="10.00">test/multigrid&#45;tests</text>
<text text-anchor="start" x="2664.5" y="-84" font-family="Helvetica,sans-Serif" font-size="10.00">/parallel&#45;multigrid&#45;test</text>
<text text-anchor="middle" x="2720" y="-73" font-family="Helvetica,sans-Serif" font-size="10.00">/main.cc</text>
</a>
</g>
</g>
<!-- Node1&#45;&gt;Node23 -->
<g id="edge23_Node000001_Node000023" class="edge">
<title>Node1&#45;&gt;Node23</title>
<g id="a_edge23_Node000001_Node000023"><a xlink:title=" ">
<path fill="none" stroke="#63b8ff" d="M1620.35,-155.79C1831.16,-151.91 2448.87,-138.11 2648,-107 2650.69,-106.58 2653.42,-106.1 2656.17,-105.57"/>
<polygon fill="#63b8ff" stroke="#63b8ff" points="1620.26,-152.29 1610.32,-155.98 1620.39,-159.29 1620.26,-152.29"/>
</a>
</g>
</g>
<!-- Node24 -->
<g id="Node000024" class="node">
<title>Node24</title>
<g id="a_Node000024"><a xlink:href="ray-mpi-test_2main_8cc.html" target="_top" xlink:title=" ">
<polygon fill="white" stroke="#666666" points="2942,-96 2802,-96 2802,-77 2942,-77 2942,-96"/>
<text text-anchor="middle" x="2872" y="-84" font-family="Helvetica,sans-Serif" font-size="10.00">test/ray&#45;mpi&#45;test/main.cc</text>
</a>
</g>
</g>
<!-- Node1&#45;&gt;Node24 -->
<g id="edge24_Node000001_Node000024" class="edge">
<title>Node1&#45;&gt;Node24</title>
<g id="a_edge24_Node000001_Node000024"><a xlink:title=" ">
<path fill="none" stroke="#63b8ff" d="M1620.49,-156.02C1849.65,-152.59 2564.19,-139.5 2793,-107 2809.92,-104.6 2828.5,-100.11 2843.38,-96.04"/>
<polygon fill="#63b8ff" stroke="#63b8ff" points="1620.22,-152.53 1610.28,-156.17 1620.33,-159.53 1620.22,-152.53"/>
</a>
</g>
</g>
<!-- Node25 -->
<g id="Node000025" class="node">
<title>Node25</title>
<g id="a_Node000025"><a xlink:href="ray-test_2main_8cc.html" target="_top" xlink:title=" ">
<polygon fill="white" stroke="#666666" points="3078,-96 2960,-96 2960,-77 3078,-77 3078,-96"/>
<text text-anchor="middle" x="3019" y="-84" font-family="Helvetica,sans-Serif" font-size="10.00">test/ray&#45;test/main.cc</text>
</a>
</g>
</g>
<!-- Node1&#45;&gt;Node25 -->
<g id="edge25_Node000001_Node000025" class="edge">
<title>Node1&#45;&gt;Node25</title>
<g id="a_edge25_Node000001_Node000025"><a xlink:title=" ">
<path fill="none" stroke="#63b8ff" d="M1620.61,-156.75C1868.74,-155.51 2690.74,-148.32 2951,-107 2965.8,-104.65 2981.94,-100.11 2994.77,-96"/>
<polygon fill="#63b8ff" stroke="#63b8ff" points="1620.26,-153.25 1610.27,-156.8 1620.29,-160.25 1620.26,-153.25"/>
</a>
</g>
</g>
<!-- Node26 -->
<g id="Node000026" class="node">
<title>Node26</title>
<g id="a_Node000026"><a xlink:href="variable-dims_2main_8cc.html" target="_top" xlink:title=" ">
<polygon fill="white" stroke="#666666" points="3202,-101.5 3096,-101.5 3096,-71.5 3202,-71.5 3202,-101.5"/>
<text text-anchor="start" x="3104" y="-89.5" font-family="Helvetica,sans-Serif" font-size="10.00">test/variable&#45;dims</text>
<text text-anchor="middle" x="3149" y="-78.5" font-family="Helvetica,sans-Serif" font-size="10.00">/main.cc</text>
</a>
</g>
</g>
<!-- Node1&#45;&gt;Node26 -->
<g id="edge26_Node000001_Node000026" class="edge">
<title>Node1&#45;&gt;Node26</title>
<g id="a_edge26_Node000001_Node000026"><a xlink:title=" ">
<path fill="none" stroke="#63b8ff" d="M1620.42,-157.25C1883.69,-157.77 2799.49,-155.94 3087,-107 3094.56,-105.71 3102.48,-103.73 3110.04,-101.52"/>
<polygon fill="#63b8ff" stroke="#63b8ff" points="1620.23,-153.75 1610.22,-157.23 1620.21,-160.75 1620.23,-153.75"/>
</a>
</g>
</g>
<!-- Node3 -->
<g id="Node000003" class="node">
<title>Node3</title>
<g id="a_Node000003"><a xlink:href="kernels_8cu.html" target="_top" xlink:title=" ">
<polygon fill="white" stroke="#666666" points="146,-24.5 0,-24.5 0,-5.5 146,-5.5 146,-24.5"/>
<text text-anchor="middle" x="73" y="-12.5" font-family="Helvetica,sans-Serif" font-size="10.00">src/core/kernels/kernels.cu</text>
</a>
</g>
</g>
<!-- Node2&#45;&gt;Node3 -->
<g id="edge2_Node000002_Node000003" class="edge">
<title>Node2&#45;&gt;Node3</title>
<g id="a_edge2_Node000002_Node000003"><a xlink:title=" ">
<path fill="none" stroke="#63b8ff" d="M73,-61.06C73,-48.45 73,-33.85 73,-24.77"/>
<polygon fill="#63b8ff" stroke="#63b8ff" points="69.5,-61.44 73,-71.44 76.5,-61.44 69.5,-61.44"/>
</a>
</g>
</g>
<!-- Node8 -->
<g id="Node000008" class="node">
<title>Node8</title>
<g id="a_Node000008"><a xlink:href="decomposition_8cc.html" target="_top" xlink:title=" ">
<polygon fill="white" stroke="#666666" points="677,-30 547,-30 547,0 677,0 677,-30"/>
<text text-anchor="start" x="555" y="-18" font-family="Helvetica,sans-Serif" font-size="10.00">src/core/decomposition</text>
<text text-anchor="middle" x="612" y="-7" font-family="Helvetica,sans-Serif" font-size="10.00">/decomposition.cc</text>
</a>
</g>
</g>
<!-- Node7&#45;&gt;Node8 -->
<g id="edge7_Node000007_Node000008" class="edge">
<title>Node7&#45;&gt;Node8</title>
<g id="a_edge7_Node000007_Node000008"><a xlink:title=" ">
<path fill="none" stroke="#63b8ff" d="M634.62,-62.23C629.4,-51.56 623.38,-39.27 618.87,-30.04"/>
<polygon fill="#63b8ff" stroke="#63b8ff" points="631.58,-63.99 639.12,-71.44 637.87,-60.91 631.58,-63.99"/>
</a>
</g>
</g>
<!-- Node7&#45;&gt;Node9 -->
<g id="edge8_Node000007_Node000009" class="edge">
<title>Node7&#45;&gt;Node9</title>
<g id="a_edge8_Node000007_Node000009"><a xlink:title=" ">
<path fill="none" stroke="#63b8ff" d="M673.25,-65.14C691.31,-51.64 714.08,-34.62 727.54,-24.57"/>
<polygon fill="#63b8ff" stroke="#63b8ff" points="670.74,-62.65 664.82,-71.44 674.93,-68.25 670.74,-62.65"/>
</a>
</g>
</g>
</g>
</svg>
