<?xml version="1.0" encoding="UTF-8" standalone="no"?>
<!DOCTYPE svg PUBLIC "-//W3C//DTD SVG 1.1//EN"
 "http://www.w3.org/Graphics/SVG/1.1/DTD/svg11.dtd">
<!-- Generated by graphviz version 2.43.0 (0)
 -->
<!-- Title: acc&#45;runtime/api/math_utils.h Pages: 1 -->
<svg width="1300pt" height="203pt"
 viewBox="0.00 0.00 1300.00 203.00" xmlns="http://www.w3.org/2000/svg" xmlns:xlink="http://www.w3.org/1999/xlink">
<g id="graph0" class="graph" transform="scale(1 1) rotate(0) translate(4 199)">
<title>acc&#45;runtime/api/math_utils.h</title>
<!-- Node1 -->
<g id="Node000001" class="node">
<title>Node1</title>
<g id="a_Node000001"><a xlink:title="Brief info.">
<polygon fill="#999999" stroke="#666666" points="969.5,-195 847.5,-195 847.5,-165 969.5,-165 969.5,-195"/>
<text text-anchor="start" x="855.5" y="-183" font-family="Helvetica,sans-Serif" font-size="10.00">acc&#45;runtime/api/math</text>
<text text-anchor="middle" x="908.5" y="-172" font-family="Helvetica,sans-Serif" font-size="10.00">_utils.h</text>
</a>
</g>
</g>
<!-- Node2 -->
<g id="Node000002" class="node">
<title>Node2</title>
<g id="a_Node000002"><a xlink:title=" ">
<polygon fill="#e0e0e0" stroke="#999999" points="845,-74 792,-74 792,-55 845,-55 845,-74"/>
<text text-anchor="middle" x="818.5" y="-62" font-family="Helvetica,sans-Serif" font-size="10.00">stdint.h</text>
</a>
</g>
</g>
<!-- Node1&#45;&gt;Node2 -->
<g id="edge1_Node000001_Node000002" class="edge">
<title>Node1&#45;&gt;Node2</title>
<g id="a_edge1_Node000001_Node000002"><a xlink:title=" ">
<path fill="none" stroke="#63b8ff" d="M897.1,-164.63C880.4,-143.56 849.35,-104.4 831.68,-82.13"/>
<polygon fill="#63b8ff" stroke="#63b8ff" points="834.38,-79.89 825.42,-74.23 828.89,-84.24 834.38,-79.89"/>
</a>
</g>
</g>
<!-- Node3 -->
<g id="Node000003" class="node">
<title>Node3</title>
<g id="a_Node000003"><a xlink:title=" ">
<polygon fill="#e0e0e0" stroke="#999999" points="916,-74 863,-74 863,-55 916,-55 916,-74"/>
<text text-anchor="middle" x="889.5" y="-62" font-family="Helvetica,sans-Serif" font-size="10.00">stdlib.h</text>
</a>
</g>
</g>
<!-- Node1&#45;&gt;Node3 -->
<g id="edge2_Node000001_Node000003" class="edge">
<title>Node1&#45;&gt;Node3</title>
<g id="a_edge2_Node000001_Node000003"><a xlink:title=" ">
<path fill="none" stroke="#63b8ff" d="M905.82,-164.57C903.98,-154.59 901.52,-141 899.5,-129 896.97,-114 894.3,-96.98 892.36,-84.33"/>
<polygon fill="#63b8ff" stroke="#63b8ff" points="895.77,-83.49 890.8,-74.14 888.85,-84.55 895.77,-83.49"/>
</a>
</g>
</g>
<!-- Node4 -->
<g id="Node000004" class="node">
<title>Node4</title>
<g id="a_Node000004"><a xlink:title=" ">
<polygon fill="#e0e0e0" stroke="#999999" points="51,-74 0,-74 0,-55 51,-55 51,-74"/>
<text text-anchor="middle" x="25.5" y="-62" font-family="Helvetica,sans-Serif" font-size="10.00">math.h</text>
</a>
</g>
</g>
<!-- Node1&#45;&gt;Node4 -->
<g id="edge3_Node000001_Node000004" class="edge">
<title>Node1&#45;&gt;Node4</title>
<g id="a_edge3_Node000001_Node000004"><a xlink:title=" ">
<path fill="none" stroke="#63b8ff" d="M847.3,-175.85C742.93,-169.97 523.96,-155.48 340.5,-129 238.15,-114.23 118.86,-87.55 60.83,-73.96"/>
<polygon fill="#63b8ff" stroke="#63b8ff" points="61.59,-70.54 51.06,-71.66 59.99,-77.36 61.59,-70.54"/>
</a>
</g>
</g>
<!-- Node5 -->
<g id="Node000005" class="node">
<title>Node5</title>
<g id="a_Node000005"><a xlink:href="datatypes_8h.html" target="_top" xlink:title=" ">
<polygon fill="white" stroke="#666666" points="423.5,-129 349.5,-129 349.5,-110 423.5,-110 423.5,-129"/>
<text text-anchor="middle" x="386.5" y="-117" font-family="Helvetica,sans-Serif" font-size="10.00">datatypes.h</text>
</a>
</g>
</g>
<!-- Node1&#45;&gt;Node5 -->
<g id="edge4_Node000001_Node000005" class="edge">
<title>Node1&#45;&gt;Node5</title>
<g id="a_edge4_Node000001_Node000005"><a xlink:title=" ">
<path fill="none" stroke="#63b8ff" d="M847.34,-172.15C741.99,-160.34 528.47,-136.41 433.67,-125.79"/>
<polygon fill="#63b8ff" stroke="#63b8ff" points="433.85,-122.28 423.52,-124.65 433.07,-129.24 433.85,-122.28"/>
</a>
</g>
</g>
<!-- Node16 -->
<g id="Node000016" class="node">
<title>Node16</title>
<g id="a_Node000016"><a xlink:href="errchk_8h.html" target="_top" xlink:title="Brief info.">
<polygon fill="white" stroke="#666666" points="964.5,-129 908.5,-129 908.5,-110 964.5,-110 964.5,-129"/>
<text text-anchor="middle" x="936.5" y="-117" font-family="Helvetica,sans-Serif" font-size="10.00">errchk.h</text>
</a>
</g>
</g>
<!-- Node1&#45;&gt;Node16 -->
<g id="edge18_Node000001_Node000016" class="edge">
<title>Node1&#45;&gt;Node16</title>
<g id="a_edge18_Node000001_Node000016"><a xlink:title=" ">
<path fill="none" stroke="#63b8ff" d="M915.28,-164.84C919.09,-156.87 923.89,-146.84 927.96,-138.33"/>
<polygon fill="#63b8ff" stroke="#63b8ff" points="931.14,-139.8 932.3,-129.27 924.83,-136.77 931.14,-139.8"/>
</a>
</g>
</g>
<!-- Node20 -->
<g id="Node000020" class="node">
<title>Node20</title>
<g id="a_Node000020"><a xlink:href="func__attributes_8h.html" target="_top" xlink:title=" ">
<polygon fill="white" stroke="#666666" points="1286,-74 1187,-74 1187,-55 1286,-55 1286,-74"/>
<text text-anchor="middle" x="1236.5" y="-62" font-family="Helvetica,sans-Serif" font-size="10.00">func_attributes.h</text>
</a>
</g>
</g>
<!-- Node1&#45;&gt;Node20 -->
<g id="edge27_Node000001_Node000020" class="edge">
<title>Node1&#45;&gt;Node20</title>
<g id="a_edge27_Node000001_Node000020"><a xlink:title=" ">
<path fill="none" stroke="#63b8ff" d="M925.15,-164.77C944.58,-148.93 978.29,-123.76 1011.5,-110 1040.76,-97.88 1120.56,-83.63 1176.77,-74.59"/>
<polygon fill="#63b8ff" stroke="#63b8ff" points="1177.65,-77.99 1186.97,-72.96 1176.55,-71.08 1177.65,-77.99"/>
</a>
</g>
</g>
<!-- Node21 -->
<g id="Node000021" class="node">
<title>Node21</title>
<g id="a_Node000021"><a xlink:href="math__utils__base_8h.html" target="_top" xlink:title=" ">
<polygon fill="white" stroke="#666666" points="1126.5,-129 1020.5,-129 1020.5,-110 1126.5,-110 1126.5,-129"/>
<text text-anchor="middle" x="1073.5" y="-117" font-family="Helvetica,sans-Serif" font-size="10.00">math_utils_base.h</text>
</a>
</g>
</g>
<!-- Node1&#45;&gt;Node21 -->
<g id="edge28_Node000001_Node000021" class="edge">
<title>Node1&#45;&gt;Node21</title>
<g id="a_edge28_Node000001_Node000021"><a xlink:title=" ">
<path fill="none" stroke="#63b8ff" d="M948.02,-164.99C975.92,-155.1 1012.91,-141.98 1039.5,-132.56"/>
<polygon fill="#63b8ff" stroke="#63b8ff" points="1040.88,-135.78 1049.13,-129.14 1038.54,-129.18 1040.88,-135.78"/>
</a>
</g>
</g>
<!-- Node22 -->
<g id="Node000022" class="node">
<title>Node22</title>
<g id="a_Node000022"><a xlink:title=" ">
<polygon fill="#e0e0e0" stroke="#999999" points="1292,-129 1145,-129 1145,-110 1292,-110 1292,-129"/>
<text text-anchor="middle" x="1218.5" y="-117" font-family="Helvetica,sans-Serif" font-size="10.00">generated_comp_funcs.inc</text>
</a>
</g>
</g>
<!-- Node1&#45;&gt;Node22 -->
<g id="edge30_Node000001_Node000022" class="edge">
<title>Node1&#45;&gt;Node22</title>
<g id="a_edge30_Node000001_Node000022"><a xlink:title=" ">
<path fill="none" stroke="#63b8ff" d="M969.75,-167.44C1026.11,-156.81 1108.96,-141.17 1163.31,-130.91"/>
<polygon fill="#63b8ff" stroke="#63b8ff" points="1164.28,-134.29 1173.45,-129 1162.98,-127.42 1164.28,-134.29"/>
</a>
</g>
</g>
<!-- Node5&#45;&gt;Node4 -->
<g id="edge6_Node000005_Node000004" class="edge">
<title>Node5&#45;&gt;Node4</title>
<g id="a_edge6_Node000005_Node000004"><a xlink:title=" ">
<path fill="none" stroke="#63b8ff" d="M349.29,-114.22C289.34,-107.13 167.74,-91.93 65.5,-74 64.06,-73.75 62.59,-73.48 61.11,-73.2"/>
<polygon fill="#63b8ff" stroke="#63b8ff" points="61.76,-69.76 51.27,-71.26 60.4,-76.63 61.76,-69.76"/>
</a>
</g>
</g>
<!-- Node6 -->
<g id="Node000006" class="node">
<title>Node6</title>
<g id="a_Node000006"><a xlink:title=" ">
<polygon fill="#e0e0e0" stroke="#999999" points="155,-74 108,-74 108,-55 155,-55 155,-74"/>
<text text-anchor="middle" x="131.5" y="-62" font-family="Helvetica,sans-Serif" font-size="10.00">float.h</text>
</a>
</g>
</g>
<!-- Node5&#45;&gt;Node6 -->
<g id="edge5_Node000005_Node000006" class="edge">
<title>Node5&#45;&gt;Node6</title>
<g id="a_edge5_Node000005_Node000006"><a xlink:title=" ">
<path fill="none" stroke="#63b8ff" d="M349.26,-111.81C306.85,-104.02 235.28,-90.39 165.11,-74.27"/>
<polygon fill="#63b8ff" stroke="#63b8ff" points="165.76,-70.83 155.22,-71.98 164.18,-77.65 165.76,-70.83"/>
</a>
</g>
</g>
<!-- Node7 -->
<g id="Node000007" class="node">
<title>Node7</title>
<g id="a_Node000007"><a xlink:href="device__headers_8h.html" target="_top" xlink:title=" ">
<polygon fill="white" stroke="#666666" points="616.5,-74 514.5,-74 514.5,-55 616.5,-55 616.5,-74"/>
<text text-anchor="middle" x="565.5" y="-62" font-family="Helvetica,sans-Serif" font-size="10.00">device_headers.h</text>
</a>
</g>
</g>
<!-- Node5&#45;&gt;Node7 -->
<g id="edge7_Node000005_Node000007" class="edge">
<title>Node5&#45;&gt;Node7</title>
<g id="a_edge7_Node000005_Node000007"><a xlink:title=" ">
<path fill="none" stroke="#63b8ff" d="M415.26,-109.98C445.44,-101.05 493.07,-86.94 526.6,-77.02"/>
<polygon fill="#63b8ff" stroke="#63b8ff" points="527.92,-80.28 536.52,-74.08 525.93,-73.57 527.92,-80.28"/>
</a>
</g>
</g>
<!-- Node8 -->
<g id="Node000008" class="node">
<title>Node8</title>
<g id="a_Node000008"><a xlink:title=" ">
<polygon fill="#e0e0e0" stroke="#999999" points="323,-19 210,-19 210,0 323,0 323,-19"/>
<text text-anchor="middle" x="266.5" y="-7" font-family="Helvetica,sans-Serif" font-size="10.00">cuda_runtime_api.h</text>
</a>
</g>
</g>
<!-- Node5&#45;&gt;Node8 -->
<g id="edge11_Node000005_Node000008" class="edge">
<title>Node5&#45;&gt;Node8</title>
<g id="a_edge11_Node000005_Node000008"><a xlink:title=" ">
<path fill="none" stroke="#63b8ff" d="M349.35,-118.49C278.98,-117.59 130.4,-111.21 98.5,-74 66.03,-36.13 139.77,-20.79 199.64,-14.61"/>
<polygon fill="#63b8ff" stroke="#63b8ff" points="200.25,-18.07 209.87,-13.63 199.58,-11.1 200.25,-18.07"/>
</a>
</g>
</g>
<!-- Node10 -->
<g id="Node000010" class="node">
<title>Node10</title>
<g id="a_Node000010"><a xlink:title=" ">
<polygon fill="#e0e0e0" stroke="#999999" points="262,-74 173,-74 173,-55 262,-55 262,-74"/>
<text text-anchor="middle" x="217.5" y="-62" font-family="Helvetica,sans-Serif" font-size="10.00">vector_types.h</text>
</a>
</g>
</g>
<!-- Node5&#45;&gt;Node10 -->
<g id="edge10_Node000005_Node000010" class="edge">
<title>Node5&#45;&gt;Node10</title>
<g id="a_edge10_Node000005_Node000010"><a xlink:title=" ">
<path fill="none" stroke="#63b8ff" d="M359.35,-109.98C330.97,-101.09 286.27,-87.07 254.64,-77.15"/>
<polygon fill="#63b8ff" stroke="#63b8ff" points="255.45,-73.73 244.87,-74.08 253.36,-80.41 255.45,-73.73"/>
</a>
</g>
</g>
<!-- Node11 -->
<g id="Node000011" class="node">
<title>Node11</title>
<g id="a_Node000011"><a xlink:href="acreal_8h.html" target="_top" xlink:title=" ">
<polygon fill="white" stroke="#666666" points="714.5,-19 658.5,-19 658.5,0 714.5,0 714.5,-19"/>
<text text-anchor="middle" x="686.5" y="-7" font-family="Helvetica,sans-Serif" font-size="10.00">acreal.h</text>
</a>
</g>
</g>
<!-- Node5&#45;&gt;Node11 -->
<g id="edge12_Node000005_Node000011" class="edge">
<title>Node5&#45;&gt;Node11</title>
<g id="a_edge12_Node000005_Node000011"><a xlink:title=" ">
<path fill="none" stroke="#63b8ff" d="M423.62,-118.49C472.68,-116.99 560.5,-109.07 625.5,-74 646.22,-62.82 664.09,-42.1 675.04,-27.38"/>
<polygon fill="#63b8ff" stroke="#63b8ff" points="677.97,-29.29 680.92,-19.12 672.27,-25.23 677.97,-29.29"/>
</a>
</g>
</g>
<!-- Node12 -->
<g id="Node000012" class="node">
<title>Node12</title>
<g id="a_Node000012"><a xlink:title=" ">
<polygon fill="#e0e0e0" stroke="#999999" points="375,-74 280,-74 280,-55 375,-55 375,-74"/>
<text text-anchor="middle" x="327.5" y="-62" font-family="Helvetica,sans-Serif" font-size="10.00">builtin_enums.h</text>
</a>
</g>
</g>
<!-- Node5&#45;&gt;Node12 -->
<g id="edge13_Node000005_Node000012" class="edge">
<title>Node5&#45;&gt;Node12</title>
<g id="a_edge13_Node000005_Node000012"><a xlink:title=" ">
<path fill="none" stroke="#63b8ff" d="M377.02,-109.98C368.3,-102.15 355.16,-90.34 344.6,-80.86"/>
<polygon fill="#63b8ff" stroke="#63b8ff" points="346.93,-78.25 337.15,-74.17 342.25,-83.46 346.93,-78.25"/>
</a>
</g>
</g>
<!-- Node13 -->
<g id="Node000013" class="node">
<title>Node13</title>
<g id="a_Node000013"><a xlink:title=" ">
<polygon fill="#e0e0e0" stroke="#999999" points="496,-74 393,-74 393,-55 496,-55 496,-74"/>
<text text-anchor="middle" x="444.5" y="-62" font-family="Helvetica,sans-Serif" font-size="10.00">user_typedefs.inc</text>
</a>
</g>
</g>
<!-- Node5&#45;&gt;Node13 -->
<g id="edge14_Node000005_Node000013" class="edge">
<title>Node5&#45;&gt;Node13</title>
<g id="a_edge14_Node000005_Node000013"><a xlink:title=" ">
<path fill="none" stroke="#63b8ff" d="M395.82,-109.98C404.31,-102.23 417.06,-90.58 427.38,-81.14"/>
<polygon fill="#63b8ff" stroke="#63b8ff" points="429.99,-83.5 435.01,-74.17 425.27,-78.33 429.99,-83.5"/>
</a>
</g>
</g>
<!-- Node14 -->
<g id="Node000014" class="node">
<title>Node14</title>
<g id="a_Node000014"><a xlink:href="host__datatypes_8h.html" target="_top" xlink:title=" ">
<polygon fill="white" stroke="#666666" points="774,-74 673,-74 673,-55 774,-55 774,-74"/>
<text text-anchor="middle" x="723.5" y="-62" font-family="Helvetica,sans-Serif" font-size="10.00">host_datatypes.h</text>
</a>
</g>
</g>
<!-- Node5&#45;&gt;Node14 -->
<g id="edge15_Node000005_Node000014" class="edge">
<title>Node5&#45;&gt;Node14</title>
<g id="a_edge15_Node000005_Node000014"><a xlink:title=" ">
<path fill="none" stroke="#63b8ff" d="M423.53,-112.68C481.22,-103.6 593.14,-86 662.77,-75.05"/>
<polygon fill="#63b8ff" stroke="#63b8ff" points="663.39,-78.5 672.72,-73.49 662.3,-71.58 663.39,-78.5"/>
</a>
</g>
</g>
<!-- Node7&#45;&gt;Node8 -->
<g id="edge8_Node000007_Node000008" class="edge">
<title>Node7&#45;&gt;Node8</title>
<g id="a_edge8_Node000007_Node000008"><a xlink:title=" ">
<path fill="none" stroke="#63b8ff" d="M517.46,-54.98C465.09,-45.7 381.26,-30.84 325.07,-20.88"/>
<polygon fill="#63b8ff" stroke="#63b8ff" points="325.37,-17.38 314.92,-19.08 324.15,-24.27 325.37,-17.38"/>
</a>
</g>
</g>
<!-- Node9 -->
<g id="Node000009" class="node">
<title>Node9</title>
<g id="a_Node000009"><a xlink:title=" ">
<polygon fill="#e0e0e0" stroke="#999999" points="603.5,-19 527.5,-19 527.5,0 603.5,0 603.5,-19"/>
<text text-anchor="middle" x="565.5" y="-7" font-family="Helvetica,sans-Serif" font-size="10.00">cuda_fp16.h</text>
</a>
</g>
</g>
<!-- Node7&#45;&gt;Node9 -->
<g id="edge9_Node000007_Node000009" class="edge">
<title>Node7&#45;&gt;Node9</title>
<g id="a_edge9_Node000007_Node000009"><a xlink:title=" ">
<path fill="none" stroke="#63b8ff" d="M565.5,-54.75C565.5,-47.8 565.5,-37.85 565.5,-29.13"/>
<polygon fill="#63b8ff" stroke="#63b8ff" points="569,-29.09 565.5,-19.09 562,-29.09 569,-29.09"/>
</a>
</g>
</g>
<!-- Node14&#45;&gt;Node11 -->
<g id="edge16_Node000014_Node000011" class="edge">
<title>Node14&#45;&gt;Node11</title>
<g id="a_edge16_Node000014_Node000011"><a xlink:title=" ">
<path fill="none" stroke="#63b8ff" d="M717.39,-54.75C712.22,-47.34 704.65,-36.5 698.31,-27.41"/>
<polygon fill="#63b8ff" stroke="#63b8ff" points="701.09,-25.29 692.5,-19.09 695.35,-29.29 701.09,-25.29"/>
</a>
</g>
</g>
<!-- Node15 -->
<g id="Node000015" class="node">
<title>Node15</title>
<g id="a_Node000015"><a xlink:title=" ">
<polygon fill="#e0e0e0" stroke="#999999" points="880.5,-19 824.5,-19 824.5,0 880.5,0 880.5,-19"/>
<text text-anchor="middle" x="852.5" y="-7" font-family="Helvetica,sans-Serif" font-size="10.00">stddef.h</text>
</a>
</g>
</g>
<!-- Node14&#45;&gt;Node15 -->
<g id="edge17_Node000014_Node000015" class="edge">
<title>Node14&#45;&gt;Node15</title>
<g id="a_edge17_Node000014_Node000015"><a xlink:title=" ">
<path fill="none" stroke="#63b8ff" d="M744.23,-54.98C765.26,-46.34 798.05,-32.87 822.04,-23.02"/>
<polygon fill="#63b8ff" stroke="#63b8ff" points="823.48,-26.21 831.4,-19.17 820.82,-19.73 823.48,-26.21"/>
</a>
</g>
</g>
<!-- Node16&#45;&gt;Node2 -->
<g id="edge22_Node000016_Node000002" class="edge">
<title>Node16&#45;&gt;Node2</title>
<g id="a_edge22_Node000016_Node000002"><a xlink:title=" ">
<path fill="none" stroke="#63b8ff" d="M917.54,-109.98C898.47,-101.42 868.84,-88.11 846.95,-78.28"/>
<polygon fill="#63b8ff" stroke="#63b8ff" points="848.36,-75.07 837.8,-74.17 845.49,-81.46 848.36,-75.07"/>
</a>
</g>
</g>
<!-- Node16&#45;&gt;Node3 -->
<g id="edge24_Node000016_Node000003" class="edge">
<title>Node16&#45;&gt;Node3</title>
<g id="a_edge24_Node000016_Node000003"><a xlink:title=" ">
<path fill="none" stroke="#63b8ff" d="M928.74,-109.75C922.03,-102.18 912.16,-91.05 903.99,-81.84"/>
<polygon fill="#63b8ff" stroke="#63b8ff" points="906.37,-79.25 897.12,-74.09 901.13,-83.89 906.37,-79.25"/>
</a>
</g>
</g>
<!-- Node16&#45;&gt;Node7 -->
<g id="edge26_Node000016_Node000007" class="edge">
<title>Node16&#45;&gt;Node7</title>
<g id="a_edge26_Node000016_Node000007"><a xlink:title=" ">
<path fill="none" stroke="#63b8ff" d="M908.31,-114.47C848.55,-105.94 707.98,-85.85 626.61,-74.23"/>
<polygon fill="#63b8ff" stroke="#63b8ff" points="626.9,-70.74 616.51,-72.79 625.91,-77.67 626.9,-70.74"/>
</a>
</g>
</g>
<!-- Node16&#45;&gt;Node14 -->
<g id="edge20_Node000016_Node000014" class="edge">
<title>Node16&#45;&gt;Node14</title>
<g id="a_edge20_Node000016_Node000014"><a xlink:title=" ">
<path fill="none" stroke="#63b8ff" d="M908.22,-111.46C872.28,-102.52 809.87,-86.99 767.64,-76.48"/>
<polygon fill="#63b8ff" stroke="#63b8ff" points="768.45,-73.08 757.9,-74.06 766.76,-79.87 768.45,-73.08"/>
</a>
</g>
</g>
<!-- Node16&#45;&gt;Node15 -->
<g id="edge19_Node000016_Node000015" class="edge">
<title>Node16&#45;&gt;Node15</title>
<g id="a_edge19_Node000016_Node000015"><a xlink:title=" ">
<path fill="none" stroke="#63b8ff" d="M936.97,-109.87C937.25,-96.82 936.06,-71.83 924.5,-55 914.88,-40.99 899.25,-30.56 885.01,-23.33"/>
<polygon fill="#63b8ff" stroke="#63b8ff" points="886.47,-20.14 875.93,-19.03 883.48,-26.47 886.47,-20.14"/>
</a>
</g>
</g>
<!-- Node17 -->
<g id="Node000017" class="node">
<title>Node17</title>
<g id="a_Node000017"><a xlink:title=" ">
<polygon fill="#e0e0e0" stroke="#999999" points="1034.5,-74 972.5,-74 972.5,-55 1034.5,-55 1034.5,-74"/>
<text text-anchor="middle" x="1003.5" y="-62" font-family="Helvetica,sans-Serif" font-size="10.00">stdbool.h</text>
</a>
</g>
</g>
<!-- Node16&#45;&gt;Node17 -->
<g id="edge21_Node000016_Node000017" class="edge">
<title>Node16&#45;&gt;Node17</title>
<g id="a_edge21_Node000016_Node000017"><a xlink:title=" ">
<path fill="none" stroke="#63b8ff" d="M947.26,-109.98C957.27,-102.07 972.39,-90.11 984.43,-80.58"/>
<polygon fill="#63b8ff" stroke="#63b8ff" points="986.87,-83.12 992.54,-74.17 982.53,-77.63 986.87,-83.12"/>
</a>
</g>
</g>
<!-- Node18 -->
<g id="Node000018" class="node">
<title>Node18</title>
<g id="a_Node000018"><a xlink:title=" ">
<polygon fill="#e0e0e0" stroke="#999999" points="1102.5,-74 1052.5,-74 1052.5,-55 1102.5,-55 1102.5,-74"/>
<text text-anchor="middle" x="1077.5" y="-62" font-family="Helvetica,sans-Serif" font-size="10.00">stdio.h</text>
</a>
</g>
</g>
<!-- Node16&#45;&gt;Node18 -->
<g id="edge23_Node000016_Node000018" class="edge">
<title>Node16&#45;&gt;Node18</title>
<g id="a_edge23_Node000016_Node000018"><a xlink:title=" ">
<path fill="none" stroke="#63b8ff" d="M959.15,-109.98C982.35,-101.27 1018.62,-87.63 1044.9,-77.75"/>
<polygon fill="#63b8ff" stroke="#63b8ff" points="1046.3,-80.97 1054.43,-74.17 1043.84,-74.41 1046.3,-80.97"/>
</a>
</g>
</g>
<!-- Node19 -->
<g id="Node000019" class="node">
<title>Node19</title>
<g id="a_Node000019"><a xlink:title=" ">
<polygon fill="#e0e0e0" stroke="#999999" points="1168.5,-74 1120.5,-74 1120.5,-55 1168.5,-55 1168.5,-74"/>
<text text-anchor="middle" x="1144.5" y="-62" font-family="Helvetica,sans-Serif" font-size="10.00">time.h</text>
</a>
</g>
</g>
<!-- Node16&#45;&gt;Node19 -->
<g id="edge25_Node000016_Node000019" class="edge">
<title>Node16&#45;&gt;Node19</title>
<g id="a_edge25_Node000016_Node000019"><a xlink:title=" ">
<path fill="none" stroke="#63b8ff" d="M964.69,-111.36C997.39,-103.07 1053.19,-88.91 1110.41,-74.27"/>
<polygon fill="#63b8ff" stroke="#63b8ff" points="1111.53,-77.6 1120.35,-71.73 1109.8,-70.82 1111.53,-77.6"/>
</a>
</g>
</g>
<!-- Node21&#45;&gt;Node20 -->
<g id="edge29_Node000021_Node000020" class="edge">
<title>Node21&#45;&gt;Node20</title>
<g id="a_edge29_Node000021_Node000020"><a xlink:title=" ">
<path fill="none" stroke="#63b8ff" d="M1099.69,-109.98C1126.94,-101.13 1169.8,-87.19 1200.28,-77.28"/>
<polygon fill="#63b8ff" stroke="#63b8ff" points="1201.68,-80.5 1210.11,-74.08 1199.51,-73.85 1201.68,-80.5"/>
</a>
</g>
</g>
</g>
</svg>
