<?xml version="1.0" encoding="UTF-8" standalone="no"?>
<!DOCTYPE svg PUBLIC "-//W3C//DTD SVG 1.1//EN"
 "http://www.w3.org/Graphics/SVG/1.1/DTD/svg11.dtd">
<!-- Generated by graphviz version 2.43.0 (0)
 -->
<!-- Title: acc&#45;runtime/api/math_utils.h Pages: 1 -->
<!--zoomable 181 -->

<svg id="main" version="1.1" xmlns="http://www.w3.org/2000/svg" xmlns:xlink="http://www.w3.org/1999/xlink" xml:space="preserve" onload="init(evt)">
<style type="text/css"><![CDATA[
.node, .edge {opacity: 0.7;}
.node.selected, .edge.selected {opacity: 1;}
.edge:hover path { stroke: red; }
.edge:hover polygon { stroke: red; fill: red; }
]]></style>

<defs>
  <circle id="rim" cx="0" cy="0" r="7"/>
  <circle id="rim2" cx="0" cy="0" r="3.5"/>
  <g id="zoomPlus">
    <use xlink:href="#rim" fill="#404040"><set attributeName="fill" to="#808080" begin="zoomplus.mouseover" end="zoomplus.mouseout"/></use>
    <path d="M-4,0h8M0,-4v8" fill="none" stroke="white" stroke-width="1.5" pointer-events="none"/>
  </g>
  <g id="zoomMin">
    <use xlink:href="#rim" fill="#404040"><set attributeName="fill" to="#808080" begin="zoomminus.mouseover" end="zoomminus.mouseout"/></use>
    <path d="M-4,0h8" fill="none" stroke="white" stroke-width="1.5" pointer-events="none"/>
  </g>
  <g id="arrowUp" transform="translate(30 24)">
    <use xlink:href="#rim"/>
    <path pointer-events="none" fill="none" stroke="white" stroke-width="1.5" d="M0,-3.0v7 M-2.5,-0.5L0,-3.0L2.5,-0.5"/>
  </g>
  <g id="arrowRight" transform="rotate(90) translate(36 -43)">
    <use xlink:href="#rim"/>
    <path pointer-events="none" fill="none" stroke="white" stroke-width="1.5" d="M0,-3.0v7 M-2.5,-0.5L0,-3.0L2.5,-0.5"/>
  </g>
  <g id="arrowDown" transform="rotate(180) translate(-30 -48)">
    <use xlink:href="#rim"/>
    <path pointer-events="none" fill="none" stroke="white" stroke-width="1.5" d="M0,-3.0v7 M-2.5,-0.5L0,-3.0L2.5,-0.5"/>
  </g>
  <g id="arrowLeft" transform="rotate(270) translate(-36 17)">
    <use xlink:href="#rim"/>
    <path pointer-events="none" fill="none" stroke="white" stroke-width="1.5" d="M0,-3.0v7 M-2.5,-0.5L0,-3.0L2.5,-0.5"/>
  </g>
  <g id="resetDef">
    <use xlink:href="#rim2" fill="#404040"><set attributeName="fill" to="#808080" begin="reset.mouseover" end="reset.mouseout"/></use>
  </g>
</defs>
<script type="application/ecmascript">
var viewWidth = 2901;
var viewHeight = 181;
var sectionId = 'dynsection-1';
</script>
<script type="application/ecmascript" xlink:href="svg.min.js"/>
<svg id="graph" class="graph">
<g id="viewport">
<title>acc&#45;runtime/api/math_utils.h</title>
<!-- Node1 -->
<g id="Node000001" class="node">
<title>Node1</title>
<g id="a_Node000001"><a xlink:title="Brief info.">
<polygon fill="#999999" stroke="#666666" points="1458,-173 1336,-173 1336,-143 1458,-143 1458,-173"/>
<text text-anchor="start" x="1344" y="-161" font-family="Helvetica,sans-Serif" font-size="10.00">acc&#45;runtime/api/math</text>
<text text-anchor="middle" x="1397" y="-150" font-family="Helvetica,sans-Serif" font-size="10.00">_utils.h</text>
</a>
</g>
</g>
<!-- Node2 -->
<g id="Node000002" class="node">
<title>Node2</title>
<g id="a_Node000002"><a xlink:href="acc__runtime_8cu.html" target="_top" xlink:title=" ">
<polygon fill="white" stroke="#666666" points="129.5,-101.5 16.5,-101.5 16.5,-71.5 129.5,-71.5 129.5,-101.5"/>
<text text-anchor="start" x="24.5" y="-89.5" font-family="Helvetica,sans-Serif" font-size="10.00">acc&#45;runtime/api/acc</text>
<text text-anchor="middle" x="73" y="-78.5" font-family="Helvetica,sans-Serif" font-size="10.00">_runtime.cu</text>
</a>
</g>
</g>
<!-- Node1&#45;&gt;Node2 -->
<g id="edge1_Node000001_Node000002" class="edge">
<title>Node1&#45;&gt;Node2</title>
<g id="a_edge1_Node000001_Node000002"><a xlink:title=" ">
<path fill="none" stroke="#63b8ff" d="M1325.37,-156.52C1094.1,-154.61 368.95,-145.59 138,-107 130.21,-105.7 122.05,-103.74 114.24,-101.56"/>
<polygon fill="#63b8ff" stroke="#63b8ff" points="1325.65,-160.02 1335.68,-156.6 1325.71,-153.02 1325.65,-160.02"/>
</a>
</g>
</g>
<!-- Node4 -->
<g id="Node000004" class="node">
<title>Node4</title>
<g id="a_Node000004"><a xlink:href="common__kernels_8cc.html" target="_top" xlink:title=" ">
<polygon fill="white" stroke="#666666" points="286.5,-101.5 147.5,-101.5 147.5,-71.5 286.5,-71.5 286.5,-101.5"/>
<text text-anchor="start" x="155.5" y="-89.5" font-family="Helvetica,sans-Serif" font-size="10.00">acc&#45;runtime/api/common</text>
<text text-anchor="middle" x="217" y="-78.5" font-family="Helvetica,sans-Serif" font-size="10.00">_kernels.cc</text>
</a>
</g>
</g>
<!-- Node1&#45;&gt;Node4 -->
<g id="edge3_Node000001_Node000004" class="edge">
<title>Node1&#45;&gt;Node4</title>
<g id="a_edge3_Node000001_Node000004"><a xlink:title=" ">
<path fill="none" stroke="#63b8ff" d="M1325.92,-155.6C1115.16,-151.15 495.94,-135.93 296,-107 286.77,-105.66 277.05,-103.72 267.71,-101.57"/>
<polygon fill="#63b8ff" stroke="#63b8ff" points="1325.87,-159.1 1335.94,-155.81 1326.02,-152.1 1325.87,-159.1"/>
</a>
</g>
</g>
<!-- Node5 -->
<g id="Node000005" class="node">
<title>Node5</title>
<g id="a_Node000005"><a xlink:href="vba_8cc.html" target="_top" xlink:title=" ">
<polygon fill="white" stroke="#666666" points="433,-96 305,-96 305,-77 433,-77 433,-96"/>
<text text-anchor="middle" x="369" y="-84" font-family="Helvetica,sans-Serif" font-size="10.00">acc&#45;runtime/api/vba.cc</text>
</a>
</g>
</g>
<!-- Node1&#45;&gt;Node5 -->
<g id="edge4_Node000001_Node000005" class="edge">
<title>Node1&#45;&gt;Node5</title>
<g id="a_edge4_Node000001_Node000005"><a xlink:title=" ">
<path fill="none" stroke="#63b8ff" d="M1325.63,-155.19C1134.17,-150.04 612.19,-133.88 442,-107 426.45,-104.54 409.44,-100.11 395.75,-96.08"/>
<polygon fill="#63b8ff" stroke="#63b8ff" points="1325.77,-158.7 1335.86,-155.47 1325.96,-151.7 1325.77,-158.7"/>
</a>
</g>
</g>
<!-- Node6 -->
<g id="Node000006" class="node">
<title>Node6</title>
<g id="a_Node000006"><a xlink:href="decomposition_8h.html" target="_top" xlink:title=" ">
<polygon fill="white" stroke="#666666" points="581,-101.5 451,-101.5 451,-71.5 581,-71.5 581,-101.5"/>
<text text-anchor="start" x="459" y="-89.5" font-family="Helvetica,sans-Serif" font-size="10.00">src/core/decomposition</text>
<text text-anchor="middle" x="516" y="-78.5" font-family="Helvetica,sans-Serif" font-size="10.00">/decomposition.h</text>
</a>
</g>
</g>
<!-- Node1&#45;&gt;Node6 -->
<g id="edge5_Node000001_Node000006" class="edge">
<title>Node1&#45;&gt;Node6</title>
<g id="a_edge5_Node000001_Node000006"><a xlink:title=" ">
<path fill="none" stroke="#63b8ff" d="M1325.78,-156.84C1185.22,-155.58 862.54,-148.02 595,-107 585.92,-105.61 576.36,-103.67 567.15,-101.54"/>
<polygon fill="#63b8ff" stroke="#63b8ff" points="1325.96,-160.34 1335.99,-156.92 1326.01,-153.34 1325.96,-160.34"/>
</a>
</g>
</g>
<!-- Node8 -->
<g id="Node000008" class="node">
<title>Node8</title>
<g id="a_Node000008"><a xlink:href="task_8h.html" target="_top" xlink:title=" ">
<polygon fill="white" stroke="#666666" points="653,-24.5 565,-24.5 565,-5.5 653,-5.5 653,-24.5"/>
<text text-anchor="middle" x="609" y="-12.5" font-family="Helvetica,sans-Serif" font-size="10.00">src/core/task.h</text>
</a>
</g>
</g>
<!-- Node1&#45;&gt;Node8 -->
<g id="edge11_Node000001_Node000008" class="edge">
<title>Node1&#45;&gt;Node8</title>
<g id="a_edge11_Node000001_Node000008"><a xlink:title=" ">
<path fill="none" stroke="#63b8ff" d="M1325.77,-157.19C1145.16,-157.01 679.97,-152.12 628,-107 603.87,-86.05 605.7,-43.07 607.77,-24.67"/>
<polygon fill="#63b8ff" stroke="#63b8ff" points="1325.96,-160.69 1335.96,-157.2 1325.96,-153.69 1325.96,-160.69"/>
</a>
</g>
</g>
<!-- Node9 -->
<g id="Node000009" class="node">
<title>Node9</title>
<g id="a_Node000009"><a xlink:href="device_8cc.html" target="_top" xlink:title=" ">
<polygon fill="white" stroke="#666666" points="741,-96 637,-96 637,-77 741,-77 741,-96"/>
<text text-anchor="middle" x="689" y="-84" font-family="Helvetica,sans-Serif" font-size="10.00">src/core/device.cc</text>
</a>
</g>
</g>
<!-- Node1&#45;&gt;Node9 -->
<g id="edge8_Node000001_Node000009" class="edge">
<title>Node1&#45;&gt;Node9</title>
<g id="a_edge8_Node000001_Node000009"><a xlink:title=" ">
<path fill="none" stroke="#63b8ff" d="M1325.68,-156.75C1205.86,-155.17 957.05,-146.84 751,-107 737.82,-104.45 723.49,-100.06 711.94,-96.09"/>
<polygon fill="#63b8ff" stroke="#63b8ff" points="1325.78,-160.25 1335.82,-156.87 1325.86,-153.25 1325.78,-160.25"/>
</a>
</g>
</g>
<!-- Node10 -->
<g id="Node000010" class="node">
<title>Node10</title>
<g id="a_Node000010"><a xlink:href="pack__unpack_8cuh.html" target="_top" xlink:title=" ">
<polygon fill="white" stroke="#666666" points="878.5,-101.5 759.5,-101.5 759.5,-71.5 878.5,-71.5 878.5,-101.5"/>
<text text-anchor="start" x="767.5" y="-89.5" font-family="Helvetica,sans-Serif" font-size="10.00">src/core/kernels/pack</text>
<text text-anchor="middle" x="819" y="-78.5" font-family="Helvetica,sans-Serif" font-size="10.00">_unpack.cuh</text>
</a>
</g>
</g>
<!-- Node1&#45;&gt;Node10 -->
<g id="edge9_Node000001_Node000010" class="edge">
<title>Node1&#45;&gt;Node10</title>
<g id="a_edge9_Node000001_Node000010"><a xlink:title=" ">
<path fill="none" stroke="#63b8ff" d="M1325.6,-153.99C1226.61,-148.9 1042.42,-136.17 888,-107 880.29,-105.54 872.2,-103.62 864.38,-101.56"/>
<polygon fill="#63b8ff" stroke="#63b8ff" points="1325.62,-157.49 1335.78,-154.5 1325.97,-150.5 1325.62,-157.49"/>
</a>
</g>
</g>
<!-- Node11 -->
<g id="Node000011" class="node">
<title>Node11</title>
<g id="a_Node000011"><a xlink:href="node_8cc.html" target="_top" xlink:title="Multi&#45;GPU implementation.">
<polygon fill="white" stroke="#666666" points="991.5,-96 896.5,-96 896.5,-77 991.5,-77 991.5,-96"/>
<text text-anchor="middle" x="944" y="-84" font-family="Helvetica,sans-Serif" font-size="10.00">src/core/node.cc</text>
</a>
</g>
</g>
<!-- Node1&#45;&gt;Node11 -->
<g id="edge10_Node000001_Node000011" class="edge">
<title>Node1&#45;&gt;Node11</title>
<g id="a_edge10_Node000001_Node000011"><a xlink:title=" ">
<path fill="none" stroke="#63b8ff" d="M1325.51,-152.38C1245.61,-146.2 1112.77,-132.89 1001,-107 989.08,-104.24 976.15,-99.93 965.62,-96.06"/>
<polygon fill="#63b8ff" stroke="#63b8ff" points="1325.71,-155.91 1335.94,-153.17 1326.23,-148.93 1325.71,-155.91"/>
</a>
</g>
</g>
<!-- Node12 -->
<g id="Node000012" class="node">
<title>Node12</title>
<g id="a_Node000012"><a xlink:href="update__params_8cc.html" target="_top" xlink:title=" ">
<polygon fill="white" stroke="#666666" points="1144,-101.5 1010,-101.5 1010,-71.5 1144,-71.5 1144,-101.5"/>
<text text-anchor="start" x="1018" y="-89.5" font-family="Helvetica,sans-Serif" font-size="10.00">src/core/update_params</text>
<text text-anchor="middle" x="1077" y="-78.5" font-family="Helvetica,sans-Serif" font-size="10.00">/update_params.cc</text>
</a>
</g>
</g>
<!-- Node1&#45;&gt;Node12 -->
<g id="edge12_Node000001_Node000012" class="edge">
<title>Node1&#45;&gt;Node12</title>
<g id="a_edge12_Node000001_Node000012"><a xlink:title=" ">
<path fill="none" stroke="#63b8ff" d="M1325.83,-143.23C1277.29,-133.63 1211.61,-120.22 1154,-107 1146.61,-105.3 1138.84,-103.44 1131.19,-101.55"/>
<polygon fill="#63b8ff" stroke="#63b8ff" points="1325.43,-146.72 1335.92,-145.22 1326.78,-139.86 1325.43,-146.72"/>
</a>
</g>
</g>
<!-- Node13 -->
<g id="Node000013" class="node">
<title>Node13</title>
<g id="a_Node000013"><a xlink:href="stdlib_2geometric__multigrid_8h.html" target="_top" xlink:title=" ">
<polygon fill="white" stroke="#666666" points="1317.5,-96 1162.5,-96 1162.5,-77 1317.5,-77 1317.5,-96"/>
<text text-anchor="middle" x="1240" y="-84" font-family="Helvetica,sans-Serif" font-size="10.00">stdlib/geometric_multigrid.h</text>
</a>
</g>
</g>
<!-- Node1&#45;&gt;Node13 -->
<g id="edge13_Node000001_Node000013" class="edge">
<title>Node1&#45;&gt;Node13</title>
<g id="a_edge13_Node000001_Node000013"><a xlink:title=" ">
<path fill="none" stroke="#63b8ff" d="M1355.92,-138.81C1324.75,-125.02 1283.31,-106.67 1259.35,-96.07"/>
<polygon fill="#63b8ff" stroke="#63b8ff" points="1354.67,-142.09 1365.23,-142.94 1357.5,-135.69 1354.67,-142.09"/>
</a>
</g>
</g>
<!-- Node14 -->
<g id="Node000014" class="node">
<title>Node14</title>
<g id="a_Node000014"><a xlink:href="bwtest_8cu.html" target="_top" xlink:title=" ">
<polygon fill="white" stroke="#666666" points="1458,-96 1336,-96 1336,-77 1458,-77 1458,-96"/>
<text text-anchor="middle" x="1397" y="-84" font-family="Helvetica,sans-Serif" font-size="10.00">test/bwtest/bwtest.cu</text>
</a>
</g>
</g>
<!-- Node1&#45;&gt;Node14 -->
<g id="edge14_Node000001_Node000014" class="edge">
<title>Node1&#45;&gt;Node14</title>
<g id="a_edge14_Node000001_Node000014"><a xlink:title=" ">
<path fill="none" stroke="#63b8ff" d="M1397,-132.56C1397,-119.95 1397,-105.35 1397,-96.27"/>
<polygon fill="#63b8ff" stroke="#63b8ff" points="1393.5,-132.94 1397,-142.94 1400.5,-132.94 1393.5,-132.94"/>
</a>
</g>
</g>
<!-- Node15 -->
<g id="Node000015" class="node">
<title>Node15</title>
<g id="a_Node000015"><a xlink:href="main_8cu.html" target="_top" xlink:title=" ">
<polygon fill="white" stroke="#666666" points="1572,-101.5 1476,-101.5 1476,-71.5 1572,-71.5 1572,-101.5"/>
<text text-anchor="start" x="1484" y="-89.5" font-family="Helvetica,sans-Serif" font-size="10.00">test/fft&#45;shift&#45;test</text>
<text text-anchor="middle" x="1524" y="-78.5" font-family="Helvetica,sans-Serif" font-size="10.00">/main.cu</text>
</a>
</g>
</g>
<!-- Node1&#45;&gt;Node15 -->
<g id="edge15_Node000001_Node000015" class="edge">
<title>Node1&#45;&gt;Node15</title>
<g id="a_edge15_Node000001_Node000015"><a xlink:title=" ">
<path fill="none" stroke="#63b8ff" d="M1431.66,-138.03C1452.72,-126.51 1479.15,-112.04 1498.34,-101.54"/>
<polygon fill="#63b8ff" stroke="#63b8ff" points="1429.79,-135.06 1422.7,-142.94 1433.15,-141.21 1429.79,-135.06"/>
</a>
</g>
</g>
<!-- Node16 -->
<g id="Node000016" class="node">
<title>Node16</title>
<g id="a_Node000016"><a xlink:href="multigrid-tests_2anisotropic-test_2main_8cc.html" target="_top" xlink:title=" ">
<polygon fill="white" stroke="#666666" points="1727.5,-101.5 1590.5,-101.5 1590.5,-71.5 1727.5,-71.5 1727.5,-101.5"/>
<text text-anchor="start" x="1598.5" y="-89.5" font-family="Helvetica,sans-Serif" font-size="10.00">test/multigrid&#45;tests</text>
<text text-anchor="middle" x="1659" y="-78.5" font-family="Helvetica,sans-Serif" font-size="10.00">/anisotropic&#45;test/main.cc</text>
</a>
</g>
</g>
<!-- Node1&#45;&gt;Node16 -->
<g id="edge16_Node000001_Node000016" class="edge">
<title>Node1&#45;&gt;Node16</title>
<g id="a_edge16_Node000001_Node000016"><a xlink:title=" ">
<path fill="none" stroke="#63b8ff" d="M1459.89,-140.32C1504.54,-128.47 1563.82,-112.75 1606.06,-101.54"/>
<polygon fill="#63b8ff" stroke="#63b8ff" points="1458.79,-136.99 1450.02,-142.94 1460.58,-143.75 1458.79,-136.99"/>
</a>
</g>
</g>
<!-- Node17 -->
<g id="Node000017" class="node">
<title>Node17</title>
<g id="a_Node000017"><a xlink:href="multigrid-tests_2compact-stencil-multigrid-test_2main_8cc.html" target="_top" xlink:title=" ">
<polygon fill="white" stroke="#666666" points="1892,-107 1746,-107 1746,-66 1892,-66 1892,-107"/>
<text text-anchor="start" x="1754" y="-95" font-family="Helvetica,sans-Serif" font-size="10.00">test/multigrid&#45;tests</text>
<text text-anchor="start" x="1754" y="-84" font-family="Helvetica,sans-Serif" font-size="10.00">/compact&#45;stencil&#45;multigrid</text>
<text text-anchor="middle" x="1819" y="-73" font-family="Helvetica,sans-Serif" font-size="10.00">&#45;test/main.cc</text>
</a>
</g>
</g>
<!-- Node1&#45;&gt;Node17 -->
<g id="edge17_Node000001_Node000017" class="edge">
<title>Node1&#45;&gt;Node17</title>
<g id="a_edge17_Node000001_Node000017"><a xlink:title=" ">
<path fill="none" stroke="#63b8ff" d="M1468.39,-148.35C1537.4,-139.55 1644.77,-124.71 1737,-107 1739.87,-106.45 1742.8,-105.86 1745.75,-105.25"/>
<polygon fill="#63b8ff" stroke="#63b8ff" points="1467.56,-144.93 1458.07,-149.65 1468.44,-151.87 1467.56,-144.93"/>
</a>
</g>
</g>
<!-- Node18 -->
<g id="Node000018" class="node">
<title>Node18</title>
<g id="a_Node000018"><a xlink:href="multigrid-tests_2line-smoother-multigrid-test_2main_8cc.html" target="_top" xlink:title=" ">
<polygon fill="white" stroke="#666666" points="2046,-107 1910,-107 1910,-66 2046,-66 2046,-107"/>
<text text-anchor="start" x="1918" y="-95" font-family="Helvetica,sans-Serif" font-size="10.00">test/multigrid&#45;tests</text>
<text text-anchor="start" x="1918" y="-84" font-family="Helvetica,sans-Serif" font-size="10.00">/line&#45;smoother&#45;multigrid</text>
<text text-anchor="middle" x="1978" y="-73" font-family="Helvetica,sans-Serif" font-size="10.00">&#45;test/main.cc</text>
</a>
</g>
</g>
<!-- Node1&#45;&gt;Node18 -->
<g id="edge18_Node000001_Node000018" class="edge">
<title>Node1&#45;&gt;Node18</title>
<g id="a_edge18_Node000001_Node000018"><a xlink:title=" ">
<path fill="none" stroke="#63b8ff" d="M1468.39,-153.28C1566.47,-147.4 1748.13,-133.79 1901,-107 1903.85,-106.5 1906.76,-105.95 1909.68,-105.36"/>
<polygon fill="#63b8ff" stroke="#63b8ff" points="1468.08,-149.79 1458.3,-153.87 1468.49,-156.78 1468.08,-149.79"/>
</a>
</g>
</g>
<!-- Node19 -->
<g id="Node000019" class="node">
<title>Node19</title>
<g id="a_Node000019"><a xlink:href="multigrid-tests_2multigrid-test_2main_8cc.html" target="_top" xlink:title=" ">
<polygon fill="white" stroke="#666666" points="2192,-101.5 2064,-101.5 2064,-71.5 2192,-71.5 2192,-101.5"/>
<text text-anchor="start" x="2072" y="-89.5" font-family="Helvetica,sans-Serif" font-size="10.00">test/multigrid&#45;tests</text>
<text text-anchor="middle" x="2128" y="-78.5" font-family="Helvetica,sans-Serif" font-size="10.00">/multigrid&#45;test/main.cc</text>
</a>
</g>
</g>
<!-- Node1&#45;&gt;Node19 -->
<g id="edge19_Node000001_Node000019" class="edge">
<title>Node1&#45;&gt;Node19</title>
<g id="a_edge19_Node000001_Node000019"><a xlink:title=" ">
<path fill="none" stroke="#63b8ff" d="M1468.51,-155.89C1589.92,-153.04 1843.74,-142.92 2055,-107 2063.28,-105.59 2071.98,-103.67 2080.37,-101.58"/>
<polygon fill="#63b8ff" stroke="#63b8ff" points="1468.16,-152.4 1458.24,-156.12 1468.32,-159.4 1468.16,-152.4"/>
</a>
</g>
</g>
<!-- Node20 -->
<g id="Node000020" class="node">
<title>Node20</title>
<g id="a_Node000020"><a xlink:href="multigrid-tests_2non-equidistant-test_2main_8cc.html" target="_top" xlink:title=" ">
<polygon fill="white" stroke="#666666" points="2329.5,-107 2210.5,-107 2210.5,-66 2329.5,-66 2329.5,-107"/>
<text text-anchor="start" x="2218.5" y="-95" font-family="Helvetica,sans-Serif" font-size="10.00">test/multigrid&#45;tests</text>
<text text-anchor="start" x="2218.5" y="-84" font-family="Helvetica,sans-Serif" font-size="10.00">/non&#45;equidistant&#45;test</text>
<text text-anchor="middle" x="2270" y="-73" font-family="Helvetica,sans-Serif" font-size="10.00">/main.cc</text>
</a>
</g>
</g>
<!-- Node1&#45;&gt;Node20 -->
<g id="edge20_Node000001_Node000020" class="edge">
<title>Node1&#45;&gt;Node20</title>
<g id="a_edge20_Node000001_Node000020"><a xlink:title=" ">
<path fill="none" stroke="#63b8ff" d="M1468.26,-157.64C1609.26,-157.8 1933.34,-152.61 2201,-107 2204.07,-106.48 2207.19,-105.87 2210.34,-105.2"/>
<polygon fill="#63b8ff" stroke="#63b8ff" points="1468.03,-154.14 1458.02,-157.62 1468.02,-161.14 1468.03,-154.14"/>
</a>
</g>
</g>
<!-- Node21 -->
<g id="Node000021" class="node">
<title>Node21</title>
<g id="a_Node000021"><a xlink:href="multigrid-tests_2parallel-multigrid-test_2main_8cc.html" target="_top" xlink:title=" ">
<polygon fill="white" stroke="#666666" points="2474.5,-107 2347.5,-107 2347.5,-66 2474.5,-66 2474.5,-107"/>
<text text-anchor="start" x="2355.5" y="-95" font-family="Helvetica,sans-Serif" font-size="10.00">test/multigrid&#45;tests</text>
<text text-anchor="start" x="2355.5" y="-84" font-family="Helvetica,sans-Serif" font-size="10.00">/parallel&#45;multigrid&#45;test</text>
<text text-anchor="middle" x="2411" y="-73" font-family="Helvetica,sans-Serif" font-size="10.00">/main.cc</text>
</a>
</g>
</g>
<!-- Node1&#45;&gt;Node21 -->
<g id="edge21_Node000001_Node000021" class="edge">
<title>Node1&#45;&gt;Node21</title>
<g id="a_edge21_Node000001_Node000021"><a xlink:title=" ">
<path fill="none" stroke="#63b8ff" d="M1468.41,-155.17C1658.09,-149.98 2171.48,-133.82 2339,-107 2341.69,-106.57 2344.41,-106.08 2347.16,-105.54"/>
<polygon fill="#63b8ff" stroke="#63b8ff" points="1468.17,-151.67 1458.27,-155.44 1468.36,-158.67 1468.17,-151.67"/>
</a>
</g>
</g>
<!-- Node22 -->
<g id="Node000022" class="node">
<title>Node22</title>
<g id="a_Node000022"><a xlink:href="ray-mpi-test_2main_8cc.html" target="_top" xlink:title=" ">
<polygon fill="white" stroke="#666666" points="2633,-96 2493,-96 2493,-77 2633,-77 2633,-96"/>
<text text-anchor="middle" x="2563" y="-84" font-family="Helvetica,sans-Serif" font-size="10.00">test/ray&#45;mpi&#45;test/main.cc</text>
</a>
</g>
</g>
<!-- Node1&#45;&gt;Node22 -->
<g id="edge22_Node000001_Node000022" class="edge">
<title>Node1&#45;&gt;Node22</title>
<g id="a_edge22_Node000001_Node000022"><a xlink:title=" ">
<path fill="none" stroke="#63b8ff" d="M1468.58,-155.54C1677.99,-150.98 2287.04,-135.56 2484,-107 2500.92,-104.55 2519.49,-100.06 2534.38,-96"/>
<polygon fill="#63b8ff" stroke="#63b8ff" points="1468.24,-152.05 1458.32,-155.76 1468.4,-159.04 1468.24,-152.05"/>
</a>
</g>
</g>
<!-- Node23 -->
<g id="Node000023" class="node">
<title>Node23</title>
<g id="a_Node000023"><a xlink:href="ray-test_2main_8cc.html" target="_top" xlink:title=" ">
<polygon fill="white" stroke="#666666" points="2769,-96 2651,-96 2651,-77 2769,-77 2769,-96"/>
<text text-anchor="middle" x="2710" y="-84" font-family="Helvetica,sans-Serif" font-size="10.00">test/ray&#45;test/main.cc</text>
</a>
</g>
</g>
<!-- Node1&#45;&gt;Node23 -->
<g id="edge23_Node000001_Node000023" class="edge">
<title>Node1&#45;&gt;Node23</title>
<g id="a_edge23_Node000001_Node000023"><a xlink:title=" ">
<path fill="none" stroke="#63b8ff" d="M1468.6,-156.37C1698.1,-154 2413.66,-143.78 2642,-107 2656.67,-104.64 2672.67,-100.15 2685.45,-96.08"/>
<polygon fill="#63b8ff" stroke="#63b8ff" points="1468.33,-152.87 1458.37,-156.47 1468.41,-159.87 1468.33,-152.87"/>
</a>
</g>
</g>
<!-- Node24 -->
<g id="Node000024" class="node">
<title>Node24</title>
<g id="a_Node000024"><a xlink:href="variable-dims_2main_8cc.html" target="_top" xlink:title=" ">
<polygon fill="white" stroke="#666666" points="2893,-101.5 2787,-101.5 2787,-71.5 2893,-71.5 2893,-101.5"/>
<text text-anchor="start" x="2795" y="-89.5" font-family="Helvetica,sans-Serif" font-size="10.00">test/variable&#45;dims</text>
<text text-anchor="middle" x="2840" y="-78.5" font-family="Helvetica,sans-Serif" font-size="10.00">/main.cc</text>
</a>
</g>
</g>
<!-- Node1&#45;&gt;Node24 -->
<g id="edge24_Node000001_Node000024" class="edge">
<title>Node1&#45;&gt;Node24</title>
<g id="a_edge24_Node000001_Node000024"><a xlink:title=" ">
<path fill="none" stroke="#63b8ff" d="M1468.41,-156.94C1713.96,-156.34 2522.48,-150.98 2778,-107 2785.45,-105.72 2793.25,-103.77 2800.7,-101.6"/>
<polygon fill="#63b8ff" stroke="#63b8ff" points="1468.18,-153.44 1458.18,-156.96 1468.19,-160.44 1468.18,-153.44"/>
</a>
</g>
</g>
<!-- Node3 -->
<g id="Node000003" class="node">
<title>Node3</title>
<g id="a_Node000003"><a xlink:href="kernels_8cu.html" target="_top" xlink:title=" ">
<polygon fill="white" stroke="#666666" points="146,-24.5 0,-24.5 0,-5.5 146,-5.5 146,-24.5"/>
<text text-anchor="middle" x="73" y="-12.5" font-family="Helvetica,sans-Serif" font-size="10.00">src/core/kernels/kernels.cu</text>
</a>
</g>
</g>
<!-- Node2&#45;&gt;Node3 -->
<g id="edge2_Node000002_Node000003" class="edge">
<title>Node2&#45;&gt;Node3</title>
<g id="a_edge2_Node000002_Node000003"><a xlink:title=" ">
<path fill="none" stroke="#63b8ff" d="M73,-61.06C73,-48.45 73,-33.85 73,-24.77"/>
<polygon fill="#63b8ff" stroke="#63b8ff" points="69.5,-61.44 73,-71.44 76.5,-61.44 69.5,-61.44"/>
</a>
</g>
</g>
<!-- Node7 -->
<g id="Node000007" class="node">
<title>Node7</title>
<g id="a_Node000007"><a xlink:href="decomposition_8cc.html" target="_top" xlink:title=" ">
<polygon fill="white" stroke="#666666" points="547,-30 417,-30 417,0 547,0 547,-30"/>
<text text-anchor="start" x="425" y="-18" font-family="Helvetica,sans-Serif" font-size="10.00">src/core/decomposition</text>
<text text-anchor="middle" x="482" y="-7" font-family="Helvetica,sans-Serif" font-size="10.00">/decomposition.cc</text>
</a>
</g>
</g>
<!-- Node6&#45;&gt;Node7 -->
<g id="edge6_Node000006_Node000007" class="edge">
<title>Node6&#45;&gt;Node7</title>
<g id="a_edge6_Node000006_Node000007"><a xlink:title=" ">
<path fill="none" stroke="#63b8ff" d="M504.62,-62.23C499.4,-51.56 493.38,-39.27 488.87,-30.04"/>
<polygon fill="#63b8ff" stroke="#63b8ff" points="501.58,-63.99 509.12,-71.44 507.87,-60.91 501.58,-63.99"/>
</a>
</g>
</g>
<!-- Node6&#45;&gt;Node8 -->
<g id="edge7_Node000006_Node000008" class="edge">
<title>Node6&#45;&gt;Node8</title>
<g id="a_edge7_Node000006_Node000008"><a xlink:title=" ">
<path fill="none" stroke="#63b8ff" d="M543.25,-65.14C561.31,-51.64 584.08,-34.62 597.54,-24.57"/>
<polygon fill="#63b8ff" stroke="#63b8ff" points="540.74,-62.65 534.82,-71.44 544.93,-68.25 540.74,-62.65"/>
</a>
</g>
</g>
</g>
</svg>

<g id="navigator" transform="translate(0 0)" fill="#404254">
  <rect fill="#f2f5e9" fill-opacity="0.5" stroke="#606060" stroke-width=".5" x="0" y="0" width="60" height="60"/>
  <use id="zoomplus" xlink:href="#zoomPlus" x="17" y="9" onmousedown="handleZoom(evt,'in')"/>
  <use id="zoomminus" xlink:href="#zoomMin" x="42" y="9" onmousedown="handleZoom(evt,'out')"/>
  <use id="reset" xlink:href="#resetDef" x="30" y="36" onmousedown="handleReset()"/>
   <use id="arrowup" xlink:href="#arrowUp" x="0" y="0" onmousedown="handlePan(0,-1)"/>
  <use id="arrowright" xlink:href="#arrowRight" x="0" y="0" onmousedown="handlePan(1,0)"/>
  <use id="arrowdown" xlink:href="#arrowDown" x="0" y="0" onmousedown="handlePan(0,1)"/>
  <use id="arrowleft" xlink:href="#arrowLeft" x="0" y="0" onmousedown="handlePan(-1,0)"/>
</g>
<svg viewBox="0 0 15 15" width="100%" height="30px" preserveAspectRatio="xMaxYMin meet">
 <g id="arrow_out" transform="scale(0.3 0.3)">
  <a xlink:href="math__utils_8h__dep__incl_org.svg" target="_base">
   <rect id="button" ry="5" rx="5" y="6" x="6" height="38" width="38"
        fill="#f2f5e9" fill-opacity="0.5" stroke="#606060" stroke-width="1.0"/>
   <path id="arrow"
     d="M 11.500037,31.436501 C 11.940474,20.09759 22.043105,11.32322 32.158766,21.979434 L 37.068811,17.246167 C 37.068811,17.246167 37.088388,32 37.088388,32 L 22.160133,31.978069 C 22.160133,31.978069 26.997745,27.140456 26.997745,27.140456 C 18.528582,18.264221 13.291696,25.230495 11.500037,31.436501 z"
     style="fill:#404040;"/>
  </a>
 </g>
</svg>

<style type='text/css'>
<![CDATA[
[data-mouse-over-selected='false'] { opacity: 0.7; }
[data-mouse-over-selected='true']  { opacity: 1.0; }
]]>
</style>
<script type="application/ecmascript"><![CDATA[
document.addEventListener('DOMContentLoaded', (event) => {
  highlightEdges();
  highlightAdjacentNodes();
});
]]></script>
</svg>
