<?xml version="1.0" encoding="UTF-8" standalone="no"?>
<!DOCTYPE svg PUBLIC "-//W3C//DTD SVG 1.1//EN"
 "http://www.w3.org/Graphics/SVG/1.1/DTD/svg11.dtd">
<!-- Generated by graphviz version 2.43.0 (0)
 -->
<!-- Title: acc&#45;runtime/api/math_utils_base.h Pages: 1 -->
<svg width="1429pt" height="291pt"
 viewBox="0.00 0.00 1429.00 291.00" xmlns="http://www.w3.org/2000/svg" xmlns:xlink="http://www.w3.org/1999/xlink">
<g id="graph0" class="graph" transform="scale(1 1) rotate(0) translate(4 287)">
<title>acc&#45;runtime/api/math_utils_base.h</title>
<!-- Node1 -->
<g id="Node000001" class="node">
<title>Node1</title>
<g id="a_Node000001"><a xlink:title=" ">
<polygon fill="#999999" stroke="#666666" points="820.5,-283 698.5,-283 698.5,-253 820.5,-253 820.5,-283"/>
<text text-anchor="start" x="706.5" y="-271" font-family="Helvetica,sans-Serif" font-size="10.00">acc&#45;runtime/api/math</text>
<text text-anchor="middle" x="759.5" y="-260" font-family="Helvetica,sans-Serif" font-size="10.00">_utils_base.h</text>
</a>
</g>
</g>
<!-- Node2 -->
<g id="Node000002" class="node">
<title>Node2</title>
<g id="a_Node000002"><a xlink:href="common__kernels_8cc.html" target="_top" xlink:title=" ">
<polygon fill="white" stroke="#666666" points="139,-151 0,-151 0,-121 139,-121 139,-151"/>
<text text-anchor="start" x="8" y="-139" font-family="Helvetica,sans-Serif" font-size="10.00">acc&#45;runtime/api/common</text>
<text text-anchor="middle" x="69.5" y="-128" font-family="Helvetica,sans-Serif" font-size="10.00">_kernels.cc</text>
</a>
</g>
</g>
<!-- Node1&#45;&gt;Node2 -->
<g id="edge1_Node000001_Node000002" class="edge">
<title>Node1&#45;&gt;Node2</title>
<g id="a_edge1_Node000001_Node000002"><a xlink:title=" ">
<path fill="none" stroke="#63b8ff" d="M688.21,-257.13C623.03,-247.81 524.03,-232.92 438.5,-217 328.78,-196.58 201.8,-167.94 129.04,-151.04"/>
<polygon fill="#63b8ff" stroke="#63b8ff" points="687.98,-260.63 698.38,-258.57 688.97,-253.7 687.98,-260.63"/>
</a>
</g>
</g>
<!-- Node3 -->
<g id="Node000003" class="node">
<title>Node3</title>
<g id="a_Node000003"><a xlink:href="math__utils_8h.html" target="_top" xlink:title="Brief info.">
<polygon fill="white" stroke="#666666" points="689.5,-217 567.5,-217 567.5,-187 689.5,-187 689.5,-217"/>
<text text-anchor="start" x="575.5" y="-205" font-family="Helvetica,sans-Serif" font-size="10.00">acc&#45;runtime/api/math</text>
<text text-anchor="middle" x="628.5" y="-194" font-family="Helvetica,sans-Serif" font-size="10.00">_utils.h</text>
</a>
</g>
</g>
<!-- Node1&#45;&gt;Node3 -->
<g id="edge2_Node000001_Node000003" class="edge">
<title>Node1&#45;&gt;Node3</title>
<g id="a_edge2_Node000001_Node000003"><a xlink:title=" ">
<path fill="none" stroke="#63b8ff" d="M721.66,-248.51C701.11,-238.47 676.11,-226.26 657.18,-217.01"/>
<polygon fill="#63b8ff" stroke="#63b8ff" points="720.23,-251.71 730.75,-252.95 723.3,-245.42 720.23,-251.71"/>
</a>
</g>
</g>
<!-- Node6 -->
<g id="Node000006" class="node">
<title>Node6</title>
<g id="a_Node000006"><a xlink:href="vba_8cc.html" target="_top" xlink:title=" ">
<polygon fill="white" stroke="#666666" points="285.5,-145.5 157.5,-145.5 157.5,-126.5 285.5,-126.5 285.5,-145.5"/>
<text text-anchor="middle" x="221.5" y="-133.5" font-family="Helvetica,sans-Serif" font-size="10.00">acc&#45;runtime/api/vba.cc</text>
</a>
</g>
</g>
<!-- Node1&#45;&gt;Node6 -->
<g id="edge26_Node000001_Node000006" class="edge">
<title>Node1&#45;&gt;Node6</title>
<g id="a_edge26_Node000001_Node000006"><a xlink:title=" ">
<path fill="none" stroke="#63b8ff" d="M691.61,-250.59C576.01,-222.66 344.95,-166.83 256.79,-145.53"/>
<polygon fill="#63b8ff" stroke="#63b8ff" points="690.87,-254.02 701.41,-252.96 692.52,-247.21 690.87,-254.02"/>
</a>
</g>
</g>
<!-- Node18 -->
<g id="Node000018" class="node">
<title>Node18</title>
<g id="a_Node000018"><a xlink:href="node_8cc.html" target="_top" xlink:title="Multi&#45;GPU implementation.">
<polygon fill="white" stroke="#666666" points="1421,-145.5 1326,-145.5 1326,-126.5 1421,-126.5 1421,-145.5"/>
<text text-anchor="middle" x="1373.5" y="-133.5" font-family="Helvetica,sans-Serif" font-size="10.00">src/core/node.cc</text>
</a>
</g>
</g>
<!-- Node1&#45;&gt;Node18 -->
<g id="edge31_Node000001_Node000018" class="edge">
<title>Node1&#45;&gt;Node18</title>
<g id="a_edge31_Node000001_Node000018"><a xlink:title=" ">
<path fill="none" stroke="#63b8ff" d="M742.7,-244.38C731.74,-226.67 721.92,-202.52 736.5,-187 780.33,-140.34 1248.13,-160.08 1311.5,-151 1320.89,-149.65 1330.97,-147.63 1340.22,-145.54"/>
<polygon fill="#63b8ff" stroke="#63b8ff" points="739.97,-246.58 748.42,-252.97 745.79,-242.71 739.97,-246.58"/>
</a>
</g>
</g>
<!-- Node21 -->
<g id="Node000021" class="node">
<title>Node21</title>
<g id="a_Node000021"><a xlink:href="astaroth_8cc.html" target="_top" xlink:title=" ">
<polygon fill="white" stroke="#666666" points="857.5,-211.5 745.5,-211.5 745.5,-192.5 857.5,-192.5 857.5,-211.5"/>
<text text-anchor="middle" x="801.5" y="-199.5" font-family="Helvetica,sans-Serif" font-size="10.00">src/core/astaroth.cc</text>
</a>
</g>
</g>
<!-- Node1&#45;&gt;Node21 -->
<g id="edge27_Node000001_Node000021" class="edge">
<title>Node1&#45;&gt;Node21</title>
<g id="a_edge27_Node000001_Node000021"><a xlink:title=" ">
<path fill="none" stroke="#63b8ff" d="M774.41,-244.28C781.77,-233.07 790.22,-220.19 795.7,-211.84"/>
<polygon fill="#63b8ff" stroke="#63b8ff" points="771.38,-242.52 768.82,-252.8 777.23,-246.36 771.38,-242.52"/>
</a>
</g>
</g>
<!-- Node22 -->
<g id="Node000022" class="node">
<title>Node22</title>
<g id="a_Node000022"><a xlink:href="reductions_8cu.html" target="_top" xlink:title=" ">
<polygon fill="white" stroke="#666666" points="1037,-211.5 876,-211.5 876,-192.5 1037,-192.5 1037,-211.5"/>
<text text-anchor="middle" x="956.5" y="-199.5" font-family="Helvetica,sans-Serif" font-size="10.00">src/core/kernels/reductions.cu</text>
</a>
</g>
</g>
<!-- Node1&#45;&gt;Node22 -->
<g id="edge28_Node000001_Node000022" class="edge">
<title>Node1&#45;&gt;Node22</title>
<g id="a_edge28_Node000001_Node000022"><a xlink:title=" ">
<path fill="none" stroke="#63b8ff" d="M812.64,-249.74C850.73,-237.36 900.39,-221.23 930.28,-211.52"/>
<polygon fill="#63b8ff" stroke="#63b8ff" points="811.16,-246.54 802.73,-252.95 813.32,-253.19 811.16,-246.54"/>
</a>
</g>
</g>
<!-- Node23 -->
<g id="Node000023" class="node">
<title>Node23</title>
<g id="a_Node000023"><a xlink:href="transpose_8cc.html" target="_top" xlink:title=" ">
<polygon fill="white" stroke="#666666" points="1213.5,-211.5 1055.5,-211.5 1055.5,-192.5 1213.5,-192.5 1213.5,-211.5"/>
<text text-anchor="middle" x="1134.5" y="-199.5" font-family="Helvetica,sans-Serif" font-size="10.00">src/core/kernels/transpose.cc</text>
</a>
</g>
</g>
<!-- Node1&#45;&gt;Node23 -->
<g id="edge29_Node000001_Node000023" class="edge">
<title>Node1&#45;&gt;Node23</title>
<g id="a_edge29_Node000001_Node000023"><a xlink:title=" ">
<path fill="none" stroke="#63b8ff" d="M830.78,-254.83C905.03,-242.16 1019.4,-222.64 1084.55,-211.53"/>
<polygon fill="#63b8ff" stroke="#63b8ff" points="829.85,-251.44 820.58,-256.57 831.03,-258.34 829.85,-251.44"/>
</a>
</g>
</g>
<!-- Node24 -->
<g id="Node000024" class="node">
<title>Node24</title>
<g id="a_Node000024"><a xlink:href="transpose_8cu.html" target="_top" xlink:title=" ">
<polygon fill="white" stroke="#666666" points="1389.5,-211.5 1231.5,-211.5 1231.5,-192.5 1389.5,-192.5 1389.5,-211.5"/>
<text text-anchor="middle" x="1310.5" y="-199.5" font-family="Helvetica,sans-Serif" font-size="10.00">src/core/kernels/transpose.cu</text>
</a>
</g>
</g>
<!-- Node1&#45;&gt;Node24 -->
<g id="edge30_Node000001_Node000024" class="edge">
<title>Node1&#45;&gt;Node24</title>
<g id="a_edge30_Node000001_Node000024"><a xlink:title=" ">
<path fill="none" stroke="#63b8ff" d="M830.86,-260.41C921.91,-251.76 1084.18,-235.46 1222.5,-217 1234.61,-215.38 1247.63,-213.43 1259.84,-211.5"/>
<polygon fill="#63b8ff" stroke="#63b8ff" points="830.28,-256.95 820.66,-261.38 830.94,-263.92 830.28,-256.95"/>
</a>
</g>
</g>
<!-- Node3&#45;&gt;Node2 -->
<g id="edge5_Node000003_Node000002" class="edge">
<title>Node3&#45;&gt;Node2</title>
<g id="a_edge5_Node000003_Node000002"><a xlink:title=" ">
<path fill="none" stroke="#63b8ff" d="M557.1,-195.17C463.16,-187.13 293.05,-171.31 148.5,-151 145.47,-150.57 142.37,-150.12 139.24,-149.64"/>
<polygon fill="#63b8ff" stroke="#63b8ff" points="557.07,-198.68 567.33,-196.04 557.67,-191.71 557.07,-198.68"/>
</a>
</g>
</g>
<!-- Node4 -->
<g id="Node000004" class="node">
<title>Node4</title>
<g id="a_Node000004"><a xlink:href="acc__runtime_8cu.html" target="_top" xlink:title=" ">
<polygon fill="white" stroke="#666666" points="455,-151 342,-151 342,-121 455,-121 455,-151"/>
<text text-anchor="start" x="350" y="-139" font-family="Helvetica,sans-Serif" font-size="10.00">acc&#45;runtime/api/acc</text>
<text text-anchor="middle" x="398.5" y="-128" font-family="Helvetica,sans-Serif" font-size="10.00">_runtime.cu</text>
</a>
</g>
</g>
<!-- Node3&#45;&gt;Node4 -->
<g id="edge3_Node000003_Node000004" class="edge">
<title>Node3&#45;&gt;Node4</title>
<g id="a_edge3_Node000003_Node000004"><a xlink:title=" ">
<path fill="none" stroke="#63b8ff" d="M568.32,-184.25C531.16,-173.91 484.03,-160.8 448.86,-151.01"/>
<polygon fill="#63b8ff" stroke="#63b8ff" points="567.45,-187.65 578.03,-186.95 569.33,-180.9 567.45,-187.65"/>
</a>
</g>
</g>
<!-- Node3&#45;&gt;Node6 -->
<g id="edge6_Node000003_Node000006" class="edge">
<title>Node3&#45;&gt;Node6</title>
<g id="a_edge6_Node000003_Node000006"><a xlink:title=" ">
<path fill="none" stroke="#63b8ff" d="M557.5,-190.77C490.81,-181.03 388.27,-165.71 299.5,-151 289.32,-149.31 278.41,-147.41 268.07,-145.57"/>
<polygon fill="#63b8ff" stroke="#63b8ff" points="557.08,-194.25 567.48,-192.23 558.09,-187.32 557.08,-194.25"/>
</a>
</g>
</g>
<!-- Node7 -->
<g id="Node000007" class="node">
<title>Node7</title>
<g id="a_Node000007"><a xlink:href="compute__steps_8cc.html" target="_top" xlink:title=" ">
<polygon fill="white" stroke="#666666" points="1402.5,-19 1256.5,-19 1256.5,0 1402.5,0 1402.5,-19"/>
<text text-anchor="middle" x="1329.5" y="-7" font-family="Helvetica,sans-Serif" font-size="10.00">src/core/compute_steps.cc</text>
</a>
</g>
</g>
<!-- Node3&#45;&gt;Node7 -->
<g id="edge7_Node000003_Node000007" class="edge">
<title>Node3&#45;&gt;Node7</title>
<g id="a_edge7_Node000003_Node000007"><a xlink:title=" ">
<path fill="none" stroke="#63b8ff" d="M699.81,-190.08C708.46,-188.94 717.17,-187.88 725.5,-187 784.64,-180.75 1210.02,-183.98 1259.5,-151 1307.35,-119.11 1323.87,-44.34 1328.21,-19.04"/>
<polygon fill="#63b8ff" stroke="#63b8ff" points="699.17,-186.63 689.73,-191.44 700.11,-193.57 699.17,-186.63"/>
</a>
</g>
</g>
<!-- Node8 -->
<g id="Node000008" class="node">
<title>Node8</title>
<g id="a_Node000008"><a xlink:href="decomposition_8h.html" target="_top" xlink:title=" ">
<polygon fill="white" stroke="#666666" points="1231.5,-151 1101.5,-151 1101.5,-121 1231.5,-121 1231.5,-151"/>
<text text-anchor="start" x="1109.5" y="-139" font-family="Helvetica,sans-Serif" font-size="10.00">src/core/decomposition</text>
<text text-anchor="middle" x="1166.5" y="-128" font-family="Helvetica,sans-Serif" font-size="10.00">/decomposition.h</text>
</a>
</g>
</g>
<!-- Node3&#45;&gt;Node8 -->
<g id="edge8_Node000003_Node000008" class="edge">
<title>Node3&#45;&gt;Node8</title>
<g id="a_edge8_Node000003_Node000008"><a xlink:title=" ">
<path fill="none" stroke="#63b8ff" d="M699.71,-187.54C700.98,-187.36 702.25,-187.17 703.5,-187 875.47,-163.04 920.56,-175.17 1092.5,-151 1095.35,-150.6 1098.25,-150.16 1101.19,-149.7"/>
<polygon fill="#63b8ff" stroke="#63b8ff" points="699.16,-184.09 689.82,-189.08 700.24,-191 699.16,-184.09"/>
</a>
</g>
</g>
<!-- Node11 -->
<g id="Node000011" class="node">
<title>Node11</title>
<g id="a_Node000011"><a xlink:href="grid_8cc.html" target="_top" xlink:title=" ">
<polygon fill="white" stroke="#666666" points="914.5,-19 824.5,-19 824.5,0 914.5,0 914.5,-19"/>
<text text-anchor="middle" x="869.5" y="-7" font-family="Helvetica,sans-Serif" font-size="10.00">src/core/grid.cc</text>
</a>
</g>
</g>
<!-- Node3&#45;&gt;Node11 -->
<g id="edge19_Node000003_Node000011" class="edge">
<title>Node3&#45;&gt;Node11</title>
<g id="a_edge19_Node000003_Node000011"><a xlink:title=" ">
<path fill="none" stroke="#63b8ff" d="M557.22,-191.3C471.98,-179.35 339.76,-159.59 332.5,-151 304.96,-118.41 303.6,-86.39 332.5,-55 365.53,-19.12 700.97,-12.17 824.31,-10.82"/>
<polygon fill="#63b8ff" stroke="#63b8ff" points="556.99,-194.8 567.38,-192.72 557.96,-187.87 556.99,-194.8"/>
</a>
</g>
</g>
<!-- Node12 -->
<g id="Node000012" class="node">
<title>Node12</title>
<g id="a_Node000012"><a xlink:href="grid__commdata__based_8cc.html" target="_top" xlink:title=" ">
<polygon fill="white" stroke="#666666" points="740.5,-85 606.5,-85 606.5,-55 740.5,-55 740.5,-85"/>
<text text-anchor="start" x="614.5" y="-73" font-family="Helvetica,sans-Serif" font-size="10.00">src/core/grid_commdata</text>
<text text-anchor="middle" x="673.5" y="-62" font-family="Helvetica,sans-Serif" font-size="10.00">_based.cc</text>
</a>
</g>
</g>
<!-- Node3&#45;&gt;Node12 -->
<g id="edge20_Node000003_Node000012" class="edge">
<title>Node3&#45;&gt;Node12</title>
<g id="a_edge20_Node000003_Node000012"><a xlink:title=" ">
<path fill="none" stroke="#63b8ff" d="M559.15,-183.9C519.31,-170.61 481.06,-149.6 502.5,-121 515.3,-103.92 563.99,-90.73 606.16,-82.19"/>
<polygon fill="#63b8ff" stroke="#63b8ff" points="558.14,-187.25 568.73,-186.95 560.26,-180.58 558.14,-187.25"/>
</a>
</g>
</g>
<!-- Node13 -->
<g id="Node000013" class="node">
<title>Node13</title>
<g id="a_Node000013"><a xlink:href="task_8h.html" target="_top" xlink:title=" ">
<polygon fill="white" stroke="#666666" points="1269.5,-79.5 1181.5,-79.5 1181.5,-60.5 1269.5,-60.5 1269.5,-79.5"/>
<text text-anchor="middle" x="1225.5" y="-67.5" font-family="Helvetica,sans-Serif" font-size="10.00">src/core/task.h</text>
</a>
</g>
</g>
<!-- Node3&#45;&gt;Node13 -->
<g id="edge24_Node000003_Node000013" class="edge">
<title>Node3&#45;&gt;Node13</title>
<g id="a_edge24_Node000003_Node000013"><a xlink:title=" ">
<path fill="none" stroke="#63b8ff" d="M699.7,-187.5C700.98,-187.33 702.24,-187.16 703.5,-187 762.83,-179.5 1199.65,-194.68 1240.5,-151 1259.03,-131.18 1241.33,-96.09 1231.32,-79.78"/>
<polygon fill="#63b8ff" stroke="#63b8ff" points="699.19,-184.04 689.8,-188.95 700.2,-190.96 699.19,-184.04"/>
</a>
</g>
</g>
<!-- Node16 -->
<g id="Node000016" class="node">
<title>Node16</title>
<g id="a_Node000016"><a xlink:href="device_8cc.html" target="_top" xlink:title=" ">
<polygon fill="white" stroke="#666666" points="615.5,-145.5 511.5,-145.5 511.5,-126.5 615.5,-126.5 615.5,-145.5"/>
<text text-anchor="middle" x="563.5" y="-133.5" font-family="Helvetica,sans-Serif" font-size="10.00">src/core/device.cc</text>
</a>
</g>
</g>
<!-- Node3&#45;&gt;Node16 -->
<g id="edge18_Node000003_Node000016" class="edge">
<title>Node3&#45;&gt;Node16</title>
<g id="a_edge18_Node000003_Node000016"><a xlink:title=" ">
<path fill="none" stroke="#63b8ff" d="M606.77,-179.6C595.08,-168.1 581.3,-154.52 572.48,-145.84"/>
<polygon fill="#63b8ff" stroke="#63b8ff" points="604.49,-182.27 614.07,-186.8 609.4,-177.29 604.49,-182.27"/>
</a>
</g>
</g>
<!-- Node17 -->
<g id="Node000017" class="node">
<title>Node17</title>
<g id="a_Node000017"><a xlink:href="pack__unpack_8cuh.html" target="_top" xlink:title=" ">
<polygon fill="white" stroke="#666666" points="753,-151 634,-151 634,-121 753,-121 753,-151"/>
<text text-anchor="start" x="642" y="-139" font-family="Helvetica,sans-Serif" font-size="10.00">src/core/kernels/pack</text>
<text text-anchor="middle" x="693.5" y="-128" font-family="Helvetica,sans-Serif" font-size="10.00">_unpack.cuh</text>
</a>
</g>
</g>
<!-- Node3&#45;&gt;Node17 -->
<g id="edge21_Node000003_Node000017" class="edge">
<title>Node3&#45;&gt;Node17</title>
<g id="a_edge21_Node000003_Node000017"><a xlink:title=" ">
<path fill="none" stroke="#63b8ff" d="M650.19,-179.65C659.71,-170.27 670.62,-159.53 679.11,-151.16"/>
<polygon fill="#63b8ff" stroke="#63b8ff" points="647.6,-177.29 642.93,-186.8 652.51,-182.27 647.6,-177.29"/>
</a>
</g>
</g>
<!-- Node3&#45;&gt;Node18 -->
<g id="edge22_Node000003_Node000018" class="edge">
<title>Node3&#45;&gt;Node18</title>
<g id="a_edge22_Node000003_Node000018"><a xlink:title=" ">
<path fill="none" stroke="#63b8ff" d="M699.7,-187.49C700.97,-187.32 702.24,-187.15 703.5,-187 972.19,-154.1 1043.48,-188.94 1311.5,-151 1320.9,-149.67 1330.98,-147.65 1340.22,-145.56"/>
<polygon fill="#63b8ff" stroke="#63b8ff" points="699.2,-184.02 689.8,-188.91 700.19,-190.95 699.2,-184.02"/>
</a>
</g>
</g>
<!-- Node19 -->
<g id="Node000019" class="node">
<title>Node19</title>
<g id="a_Node000019"><a xlink:href="stencil__accesses_8cpp.html" target="_top" xlink:title=" ">
<polygon fill="white" stroke="#666666" points="931.5,-145.5 771.5,-145.5 771.5,-126.5 931.5,-126.5 931.5,-145.5"/>
<text text-anchor="middle" x="851.5" y="-133.5" font-family="Helvetica,sans-Serif" font-size="10.00">src/core/stencil_accesses.cpp</text>
</a>
</g>
</g>
<!-- Node3&#45;&gt;Node19 -->
<g id="edge23_Node000003_Node000019" class="edge">
<title>Node3&#45;&gt;Node19</title>
<g id="a_edge23_Node000003_Node000019"><a xlink:title=" ">
<path fill="none" stroke="#63b8ff" d="M687.29,-184.13C730.57,-171.71 787.62,-155.33 821.82,-145.52"/>
<polygon fill="#63b8ff" stroke="#63b8ff" points="686.08,-180.83 677.44,-186.95 688.02,-187.56 686.08,-180.83"/>
</a>
</g>
</g>
<!-- Node20 -->
<g id="Node000020" class="node">
<title>Node20</title>
<g id="a_Node000020"><a xlink:href="update__params_8cc.html" target="_top" xlink:title=" ">
<polygon fill="white" stroke="#666666" points="1083.5,-151 949.5,-151 949.5,-121 1083.5,-121 1083.5,-151"/>
<text text-anchor="start" x="957.5" y="-139" font-family="Helvetica,sans-Serif" font-size="10.00">src/core/update_params</text>
<text text-anchor="middle" x="1016.5" y="-128" font-family="Helvetica,sans-Serif" font-size="10.00">/update_params.cc</text>
</a>
</g>
</g>
<!-- Node3&#45;&gt;Node20 -->
<g id="edge25_Node000003_Node000020" class="edge">
<title>Node3&#45;&gt;Node20</title>
<g id="a_edge25_Node000003_Node000020"><a xlink:title=" ">
<path fill="none" stroke="#63b8ff" d="M699.72,-187.64C700.99,-187.43 702.25,-187.21 703.5,-187 808.55,-169.22 835.43,-168.65 940.5,-151 943.41,-150.51 946.38,-150 949.38,-149.48"/>
<polygon fill="#63b8ff" stroke="#63b8ff" points="699.11,-184.2 689.86,-189.37 700.32,-191.09 699.11,-184.2"/>
</a>
</g>
</g>
<!-- Node5 -->
<g id="Node000005" class="node">
<title>Node5</title>
<g id="a_Node000005"><a xlink:href="kernels_8cu.html" target="_top" xlink:title=" ">
<polygon fill="white" stroke="#666666" points="487.5,-79.5 341.5,-79.5 341.5,-60.5 487.5,-60.5 487.5,-79.5"/>
<text text-anchor="middle" x="414.5" y="-67.5" font-family="Helvetica,sans-Serif" font-size="10.00">src/core/kernels/kernels.cu</text>
</a>
</g>
</g>
<!-- Node4&#45;&gt;Node5 -->
<g id="edge4_Node000004_Node000005" class="edge">
<title>Node4&#45;&gt;Node5</title>
<g id="a_edge4_Node000004_Node000005"><a xlink:title=" ">
<path fill="none" stroke="#63b8ff" d="M404.51,-110.94C407.24,-100.06 410.28,-87.86 412.29,-79.84"/>
<polygon fill="#63b8ff" stroke="#63b8ff" points="401.08,-110.25 402.05,-120.8 407.87,-111.94 401.08,-110.25"/>
</a>
</g>
</g>
<!-- Node9 -->
<g id="Node000009" class="node">
<title>Node9</title>
<g id="a_Node000009"><a xlink:href="compiler_8cpp.html" target="_top" xlink:title=" ">
<polygon fill="white" stroke="#666666" points="1015.5,-85 897.5,-85 897.5,-55 1015.5,-55 1015.5,-85"/>
<text text-anchor="start" x="905.5" y="-73" font-family="Helvetica,sans-Serif" font-size="10.00">runtime_compilation</text>
<text text-anchor="middle" x="956.5" y="-62" font-family="Helvetica,sans-Serif" font-size="10.00">/compiler.cpp</text>
</a>
</g>
</g>
<!-- Node8&#45;&gt;Node9 -->
<g id="edge9_Node000008_Node000009" class="edge">
<title>Node8&#45;&gt;Node9</title>
<g id="a_edge9_Node000008_Node000009"><a xlink:title=" ">
<path fill="none" stroke="#63b8ff" d="M1110.68,-117.99C1076.89,-107.69 1034.32,-94.72 1002.48,-85.01"/>
<polygon fill="#63b8ff" stroke="#63b8ff" points="1109.83,-121.39 1120.41,-120.95 1111.87,-114.69 1109.83,-121.39"/>
</a>
</g>
</g>
<!-- Node10 -->
<g id="Node000010" class="node">
<title>Node10</title>
<g id="a_Node000010"><a xlink:href="decomposition_8cc.html" target="_top" xlink:title=" ">
<polygon fill="white" stroke="#666666" points="1163.5,-85 1033.5,-85 1033.5,-55 1163.5,-55 1163.5,-85"/>
<text text-anchor="start" x="1041.5" y="-73" font-family="Helvetica,sans-Serif" font-size="10.00">src/core/decomposition</text>
<text text-anchor="middle" x="1098.5" y="-62" font-family="Helvetica,sans-Serif" font-size="10.00">/decomposition.cc</text>
</a>
</g>
</g>
<!-- Node8&#45;&gt;Node10 -->
<g id="edge10_Node000008_Node000010" class="edge">
<title>Node8&#45;&gt;Node10</title>
<g id="a_edge10_Node000008_Node000010"><a xlink:title=" ">
<path fill="none" stroke="#63b8ff" d="M1144.11,-113.92C1134.08,-104.49 1122.52,-93.61 1113.55,-85.16"/>
<polygon fill="#63b8ff" stroke="#63b8ff" points="1141.73,-116.49 1151.41,-120.8 1146.53,-111.39 1141.73,-116.49"/>
</a>
</g>
</g>
<!-- Node8&#45;&gt;Node11 -->
<g id="edge11_Node000008_Node000011" class="edge">
<title>Node8&#45;&gt;Node11</title>
<g id="a_edge11_Node000008_Node000011"><a xlink:title=" ">
<path fill="none" stroke="#63b8ff" d="M1091.15,-120.94C998.77,-107.27 953.69,-145.47 888.5,-85 869.81,-67.66 868.43,-34.72 868.94,-19.12"/>
<polygon fill="#63b8ff" stroke="#63b8ff" points="1090.7,-124.41 1101.14,-122.59 1091.84,-117.5 1090.7,-124.41"/>
</a>
</g>
</g>
<!-- Node8&#45;&gt;Node12 -->
<g id="edge12_Node000008_Node000012" class="edge">
<title>Node8&#45;&gt;Node12</title>
<g id="a_edge12_Node000008_Node000012"><a xlink:title=" ">
<path fill="none" stroke="#63b8ff" d="M1091.07,-120.84C961.54,-101.15 821.65,-85.85 740.82,-77.6"/>
<polygon fill="#63b8ff" stroke="#63b8ff" points="1090.76,-124.34 1101.17,-122.39 1091.82,-117.42 1090.76,-124.34"/>
</a>
</g>
</g>
<!-- Node8&#45;&gt;Node13 -->
<g id="edge13_Node000008_Node000013" class="edge">
<title>Node8&#45;&gt;Node13</title>
<g id="a_edge13_Node000008_Node000013"><a xlink:title=" ">
<path fill="none" stroke="#63b8ff" d="M1186.53,-113.27C1197.07,-101.84 1209.42,-88.44 1217.35,-79.84"/>
<polygon fill="#63b8ff" stroke="#63b8ff" points="1183.8,-111.07 1179.59,-120.8 1188.95,-115.82 1183.8,-111.07"/>
</a>
</g>
</g>
<!-- Node13&#45;&gt;Node7 -->
<g id="edge14_Node000013_Node000007" class="edge">
<title>Node13&#45;&gt;Node7</title>
<g id="a_edge14_Node000013_Node000007"><a xlink:title=" ">
<path fill="none" stroke="#63b8ff" d="M1249.64,-55.42C1269.51,-44.24 1297.09,-28.73 1314.09,-19.17"/>
<polygon fill="#63b8ff" stroke="#63b8ff" points="1247.85,-52.41 1240.85,-60.37 1251.28,-58.52 1247.85,-52.41"/>
</a>
</g>
</g>
<!-- Node13&#45;&gt;Node11 -->
<g id="edge16_Node000013_Node000011" class="edge">
<title>Node13&#45;&gt;Node11</title>
<g id="a_edge16_Node000013_Node000011"><a xlink:title=" ">
<path fill="none" stroke="#63b8ff" d="M1185.92,-58.03C1181.41,-56.93 1176.87,-55.89 1172.5,-55 1081.74,-36.41 974.15,-22.51 914.7,-15.53"/>
<polygon fill="#63b8ff" stroke="#63b8ff" points="1185.09,-61.43 1195.65,-60.49 1186.81,-54.64 1185.09,-61.43"/>
</a>
</g>
</g>
<!-- Node14 -->
<g id="Node000014" class="node">
<title>Node14</title>
<g id="a_Node000014"><a xlink:href="debug_8cc.html" target="_top" xlink:title=" ">
<polygon fill="white" stroke="#666666" points="1128,-19 1027,-19 1027,0 1128,0 1128,-19"/>
<text text-anchor="middle" x="1077.5" y="-7" font-family="Helvetica,sans-Serif" font-size="10.00">src/core/debug.cc</text>
</a>
</g>
</g>
<!-- Node13&#45;&gt;Node14 -->
<g id="edge15_Node000013_Node000014" class="edge">
<title>Node13&#45;&gt;Node14</title>
<g id="a_edge15_Node000013_Node000014"><a xlink:title=" ">
<path fill="none" stroke="#63b8ff" d="M1194.46,-56.73C1165.86,-45.42 1124.16,-28.94 1099.05,-19.02"/>
<polygon fill="#63b8ff" stroke="#63b8ff" points="1193.39,-60.07 1203.98,-60.49 1195.97,-53.56 1193.39,-60.07"/>
</a>
</g>
</g>
<!-- Node15 -->
<g id="Node000015" class="node">
<title>Node15</title>
<g id="a_Node000015"><a xlink:href="task_8cc.html" target="_top" xlink:title=" ">
<polygon fill="white" stroke="#666666" points="1238.5,-19 1146.5,-19 1146.5,0 1238.5,0 1238.5,-19"/>
<text text-anchor="middle" x="1192.5" y="-7" font-family="Helvetica,sans-Serif" font-size="10.00">src/core/task.cc</text>
</a>
</g>
</g>
<!-- Node13&#45;&gt;Node15 -->
<g id="edge17_Node000013_Node000015" class="edge">
<title>Node13&#45;&gt;Node15</title>
<g id="a_edge17_Node000013_Node000015"><a xlink:title=" ">
<path fill="none" stroke="#63b8ff" d="M1215.62,-51.48C1209.6,-40.81 1202.17,-27.65 1197.39,-19.17"/>
<polygon fill="#63b8ff" stroke="#63b8ff" points="1212.67,-53.38 1220.63,-60.37 1218.77,-49.94 1212.67,-53.38"/>
</a>
</g>
</g>
</g>
</svg>
