<?xml version="1.0" encoding="UTF-8" standalone="no"?>
<!DOCTYPE svg PUBLIC "-//W3C//DTD SVG 1.1//EN"
 "http://www.w3.org/Graphics/SVG/1.1/DTD/svg11.dtd">
<!-- Generated by graphviz version 2.43.0 (0)
 -->
<!-- Title: acc&#45;runtime/api/math_utils_base.h Pages: 1 -->
<!--zoomable 247 -->

<svg id="main" version="1.1" xmlns="http://www.w3.org/2000/svg" xmlns:xlink="http://www.w3.org/1999/xlink" xml:space="preserve" onload="init(evt)">
<style type="text/css"><![CDATA[
.node, .edge {opacity: 0.7;}
.node.selected, .edge.selected {opacity: 1;}
.edge:hover path { stroke: red; }
.edge:hover polygon { stroke: red; fill: red; }
]]></style>

<defs>
  <circle id="rim" cx="0" cy="0" r="7"/>
  <circle id="rim2" cx="0" cy="0" r="3.5"/>
  <g id="zoomPlus">
    <use xlink:href="#rim" fill="#404040"><set attributeName="fill" to="#808080" begin="zoomplus.mouseover" end="zoomplus.mouseout"/></use>
    <path d="M-4,0h8M0,-4v8" fill="none" stroke="white" stroke-width="1.5" pointer-events="none"/>
  </g>
  <g id="zoomMin">
    <use xlink:href="#rim" fill="#404040"><set attributeName="fill" to="#808080" begin="zoomminus.mouseover" end="zoomminus.mouseout"/></use>
    <path d="M-4,0h8" fill="none" stroke="white" stroke-width="1.5" pointer-events="none"/>
  </g>
  <g id="arrowUp" transform="translate(30 24)">
    <use xlink:href="#rim"/>
    <path pointer-events="none" fill="none" stroke="white" stroke-width="1.5" d="M0,-3.0v7 M-2.5,-0.5L0,-3.0L2.5,-0.5"/>
  </g>
  <g id="arrowRight" transform="rotate(90) translate(36 -43)">
    <use xlink:href="#rim"/>
    <path pointer-events="none" fill="none" stroke="white" stroke-width="1.5" d="M0,-3.0v7 M-2.5,-0.5L0,-3.0L2.5,-0.5"/>
  </g>
  <g id="arrowDown" transform="rotate(180) translate(-30 -48)">
    <use xlink:href="#rim"/>
    <path pointer-events="none" fill="none" stroke="white" stroke-width="1.5" d="M0,-3.0v7 M-2.5,-0.5L0,-3.0L2.5,-0.5"/>
  </g>
  <g id="arrowLeft" transform="rotate(270) translate(-36 17)">
    <use xlink:href="#rim"/>
    <path pointer-events="none" fill="none" stroke="white" stroke-width="1.5" d="M0,-3.0v7 M-2.5,-0.5L0,-3.0L2.5,-0.5"/>
  </g>
  <g id="resetDef">
    <use xlink:href="#rim2" fill="#404040"><set attributeName="fill" to="#808080" begin="reset.mouseover" end="reset.mouseout"/></use>
  </g>
</defs>
<script type="application/ecmascript">
var viewWidth = 2886;
var viewHeight = 247;
var sectionId = 'dynsection-1';
</script>
<script type="application/ecmascript" xlink:href="svg.min.js"/>
<svg id="graph" class="graph">
<g id="viewport">
<title>acc&#45;runtime/api/math_utils_base.h</title>
<!-- Node1 -->
<g id="Node000001" class="node">
<title>Node1</title>
<g id="a_Node000001"><a xlink:title=" ">
<polygon fill="#999999" stroke="#666666" points="1441.5,-239 1319.5,-239 1319.5,-209 1441.5,-209 1441.5,-239"/>
<text text-anchor="start" x="1327.5" y="-227" font-family="Helvetica,sans-Serif" font-size="10.00">acc&#45;runtime/api/math</text>
<text text-anchor="middle" x="1380.5" y="-216" font-family="Helvetica,sans-Serif" font-size="10.00">_utils_base.h</text>
</a>
</g>
</g>
<!-- Node2 -->
<g id="Node000002" class="node">
<title>Node2</title>
<g id="a_Node000002"><a xlink:href="common__kernels_8cc.html" target="_top" xlink:title=" ">
<polygon fill="white" stroke="#666666" points="139,-101.5 0,-101.5 0,-71.5 139,-71.5 139,-101.5"/>
<text text-anchor="start" x="8" y="-89.5" font-family="Helvetica,sans-Serif" font-size="10.00">acc&#45;runtime/api/common</text>
<text text-anchor="middle" x="69.5" y="-78.5" font-family="Helvetica,sans-Serif" font-size="10.00">_kernels.cc</text>
</a>
</g>
</g>
<!-- Node1&#45;&gt;Node2 -->
<g id="edge1_Node000001_Node000002" class="edge">
<title>Node1&#45;&gt;Node2</title>
<g id="a_edge1_Node000001_Node000002"><a xlink:title=" ">
<path fill="none" stroke="#63b8ff" d="M1309.23,-221.58C1162.36,-218.05 815.54,-206.58 526.5,-173 357.1,-153.32 315.39,-142.12 148.5,-107 140.62,-105.34 132.33,-103.46 124.21,-101.52"/>
<polygon fill="#63b8ff" stroke="#63b8ff" points="1309.38,-225.08 1319.46,-221.82 1309.54,-218.09 1309.38,-225.08"/>
</a>
</g>
</g>
<!-- Node3 -->
<g id="Node000003" class="node">
<title>Node3</title>
<g id="a_Node000003"><a xlink:href="math__utils_8h.html" target="_top" xlink:title="Brief info.">
<polygon fill="white" stroke="#666666" points="1374.5,-173 1252.5,-173 1252.5,-143 1374.5,-143 1374.5,-173"/>
<text text-anchor="start" x="1260.5" y="-161" font-family="Helvetica,sans-Serif" font-size="10.00">acc&#45;runtime/api/math</text>
<text text-anchor="middle" x="1313.5" y="-150" font-family="Helvetica,sans-Serif" font-size="10.00">_utils.h</text>
</a>
</g>
</g>
<!-- Node1&#45;&gt;Node3 -->
<g id="edge2_Node000001_Node000003" class="edge">
<title>Node1&#45;&gt;Node3</title>
<g id="a_edge2_Node000001_Node000003"><a xlink:title=" ">
<path fill="none" stroke="#63b8ff" d="M1358.15,-201.65C1348.33,-192.27 1337.08,-181.53 1328.33,-173.16"/>
<polygon fill="#63b8ff" stroke="#63b8ff" points="1355.98,-204.42 1365.63,-208.8 1360.82,-199.36 1355.98,-204.42"/>
</a>
</g>
</g>
<!-- Node6 -->
<g id="Node000006" class="node">
<title>Node6</title>
<g id="a_Node000006"><a xlink:href="vba_8cc.html" target="_top" xlink:title=" ">
<polygon fill="white" stroke="#666666" points="285.5,-96 157.5,-96 157.5,-77 285.5,-77 285.5,-96"/>
<text text-anchor="middle" x="221.5" y="-84" font-family="Helvetica,sans-Serif" font-size="10.00">acc&#45;runtime/api/vba.cc</text>
</a>
</g>
</g>
<!-- Node1&#45;&gt;Node6 -->
<g id="edge27_Node000001_Node000006" class="edge">
<title>Node1&#45;&gt;Node6</title>
<g id="a_edge27_Node000001_Node000006"><a xlink:title=" ">
<path fill="none" stroke="#63b8ff" d="M1309.23,-219.64C1134.73,-210.49 672.69,-180.7 294.5,-107 279.56,-104.09 263.18,-99.81 249.72,-96.01"/>
<polygon fill="#63b8ff" stroke="#63b8ff" points="1309.15,-223.14 1319.32,-220.16 1309.51,-216.15 1309.15,-223.14"/>
</a>
</g>
</g>
<!-- Node12 -->
<g id="Node000012" class="node">
<title>Node12</title>
<g id="a_Node000012"><a xlink:href="node_8cc.html" target="_top" xlink:title="Multi&#45;GPU implementation.">
<polygon fill="white" stroke="#666666" points="399,-96 304,-96 304,-77 399,-77 399,-96"/>
<text text-anchor="middle" x="351.5" y="-84" font-family="Helvetica,sans-Serif" font-size="10.00">src/core/node.cc</text>
</a>
</g>
</g>
<!-- Node1&#45;&gt;Node12 -->
<g id="edge32_Node000001_Node000012" class="edge">
<title>Node1&#45;&gt;Node12</title>
<g id="a_edge32_Node000001_Node000012"><a xlink:title=" ">
<path fill="none" stroke="#63b8ff" d="M1309.45,-211.46C1203.9,-194.61 999.31,-163.11 824.5,-143 639.7,-121.74 589.41,-145.89 407.5,-107 395.52,-104.44 382.58,-100.05 372.16,-96.08"/>
<polygon fill="#63b8ff" stroke="#63b8ff" points="1308.93,-214.92 1319.35,-213.04 1310.03,-208.01 1308.93,-214.92"/>
</a>
</g>
</g>
<!-- Node26 -->
<g id="Node000026" class="node">
<title>Node26</title>
<g id="a_Node000026"><a xlink:href="astaroth_8cc.html" target="_top" xlink:title=" ">
<polygon fill="white" stroke="#666666" points="1504.5,-167.5 1392.5,-167.5 1392.5,-148.5 1504.5,-148.5 1504.5,-167.5"/>
<text text-anchor="middle" x="1448.5" y="-155.5" font-family="Helvetica,sans-Serif" font-size="10.00">src/core/astaroth.cc</text>
</a>
</g>
</g>
<!-- Node1&#45;&gt;Node26 -->
<g id="edge28_Node000001_Node000026" class="edge">
<title>Node1&#45;&gt;Node26</title>
<g id="a_edge28_Node000001_Node000026"><a xlink:title=" ">
<path fill="none" stroke="#63b8ff" d="M1402.88,-201.93C1415.19,-190.35 1429.79,-176.61 1439.1,-167.84"/>
<polygon fill="#63b8ff" stroke="#63b8ff" points="1400.47,-199.39 1395.59,-208.8 1405.27,-204.49 1400.47,-199.39"/>
</a>
</g>
</g>
<!-- Node27 -->
<g id="Node000027" class="node">
<title>Node27</title>
<g id="a_Node000027"><a xlink:href="reductions_8cu.html" target="_top" xlink:title=" ">
<polygon fill="white" stroke="#666666" points="1684,-167.5 1523,-167.5 1523,-148.5 1684,-148.5 1684,-167.5"/>
<text text-anchor="middle" x="1603.5" y="-155.5" font-family="Helvetica,sans-Serif" font-size="10.00">src/core/kernels/reductions.cu</text>
</a>
</g>
</g>
<!-- Node1&#45;&gt;Node27 -->
<g id="edge29_Node000001_Node000027" class="edge">
<title>Node1&#45;&gt;Node27</title>
<g id="a_edge29_Node000001_Node000027"><a xlink:title=" ">
<path fill="none" stroke="#63b8ff" d="M1439.29,-206.13C1482.57,-193.71 1539.62,-177.33 1573.82,-167.52"/>
<polygon fill="#63b8ff" stroke="#63b8ff" points="1438.08,-202.83 1429.44,-208.95 1440.02,-209.56 1438.08,-202.83"/>
</a>
</g>
</g>
<!-- Node28 -->
<g id="Node000028" class="node">
<title>Node28</title>
<g id="a_Node000028"><a xlink:href="transpose_8cc.html" target="_top" xlink:title=" ">
<polygon fill="white" stroke="#666666" points="1860.5,-167.5 1702.5,-167.5 1702.5,-148.5 1860.5,-148.5 1860.5,-167.5"/>
<text text-anchor="middle" x="1781.5" y="-155.5" font-family="Helvetica,sans-Serif" font-size="10.00">src/core/kernels/transpose.cc</text>
</a>
</g>
</g>
<!-- Node1&#45;&gt;Node28 -->
<g id="edge30_Node000001_Node000028" class="edge">
<title>Node1&#45;&gt;Node28</title>
<g id="a_edge30_Node000001_Node000028"><a xlink:title=" ">
<path fill="none" stroke="#63b8ff" d="M1451.74,-211.63C1530.94,-198.99 1657.06,-178.86 1728.18,-167.51"/>
<polygon fill="#63b8ff" stroke="#63b8ff" points="1451.16,-208.18 1441.84,-213.21 1452.27,-215.09 1451.16,-208.18"/>
</a>
</g>
</g>
<!-- Node29 -->
<g id="Node000029" class="node">
<title>Node29</title>
<g id="a_Node000029"><a xlink:href="transpose_8cu.html" target="_top" xlink:title=" ">
<polygon fill="white" stroke="#666666" points="2036.5,-167.5 1878.5,-167.5 1878.5,-148.5 2036.5,-148.5 2036.5,-167.5"/>
<text text-anchor="middle" x="1957.5" y="-155.5" font-family="Helvetica,sans-Serif" font-size="10.00">src/core/kernels/transpose.cu</text>
</a>
</g>
</g>
<!-- Node1&#45;&gt;Node29 -->
<g id="edge31_Node000001_Node000029" class="edge">
<title>Node1&#45;&gt;Node29</title>
<g id="a_edge31_Node000001_Node000029"><a xlink:title=" ">
<path fill="none" stroke="#63b8ff" d="M1451.72,-216.97C1547.04,-208.62 1721.31,-192.35 1869.5,-173 1881.62,-171.42 1894.64,-169.48 1906.85,-167.55"/>
<polygon fill="#63b8ff" stroke="#63b8ff" points="1451.27,-213.5 1441.61,-217.86 1451.88,-220.47 1451.27,-213.5"/>
</a>
</g>
</g>
<!-- Node3&#45;&gt;Node2 -->
<g id="edge5_Node000003_Node000002" class="edge">
<title>Node3&#45;&gt;Node2</title>
<g id="a_edge5_Node000003_Node000002"><a xlink:title=" ">
<path fill="none" stroke="#63b8ff" d="M1242.09,-155.8C1022.82,-151.81 361.3,-137.52 148.5,-107 139.27,-105.68 129.55,-103.74 120.2,-101.59"/>
<polygon fill="#63b8ff" stroke="#63b8ff" points="1242.13,-159.3 1252.19,-155.98 1242.26,-152.3 1242.13,-159.3"/>
</a>
</g>
</g>
<!-- Node4 -->
<g id="Node000004" class="node">
<title>Node4</title>
<g id="a_Node000004"><a xlink:href="acc__runtime_8cu.html" target="_top" xlink:title=" ">
<polygon fill="white" stroke="#666666" points="1851,-101.5 1738,-101.5 1738,-71.5 1851,-71.5 1851,-101.5"/>
<text text-anchor="start" x="1746" y="-89.5" font-family="Helvetica,sans-Serif" font-size="10.00">acc&#45;runtime/api/acc</text>
<text text-anchor="middle" x="1794.5" y="-78.5" font-family="Helvetica,sans-Serif" font-size="10.00">_runtime.cu</text>
</a>
</g>
</g>
<!-- Node3&#45;&gt;Node4 -->
<g id="edge3_Node000003_Node000004" class="edge">
<title>Node3&#45;&gt;Node4</title>
<g id="a_edge3_Node000003_Node000004"><a xlink:title=" ">
<path fill="none" stroke="#63b8ff" d="M1384.76,-142.92C1537.75,-120.57 1580.52,-136.32 1728.5,-107 1735.88,-105.54 1743.63,-103.61 1751.11,-101.54"/>
<polygon fill="#63b8ff" stroke="#63b8ff" points="1383.9,-139.51 1374.52,-144.45 1384.93,-146.43 1383.9,-139.51"/>
</a>
</g>
</g>
<!-- Node3&#45;&gt;Node6 -->
<g id="edge6_Node000003_Node000006" class="edge">
<title>Node3&#45;&gt;Node6</title>
<g id="a_edge6_Node000003_Node000006"><a xlink:title=" ">
<path fill="none" stroke="#63b8ff" d="M1242.24,-155.47C1042.11,-150.85 477.58,-135.61 294.5,-107 278.82,-104.55 261.65,-100.06 247.91,-96"/>
<polygon fill="#63b8ff" stroke="#63b8ff" points="1242.27,-158.97 1252.35,-155.7 1242.43,-151.97 1242.27,-158.97"/>
</a>
</g>
</g>
<!-- Node7 -->
<g id="Node000007" class="node">
<title>Node7</title>
<g id="a_Node000007"><a xlink:href="decomposition_8h.html" target="_top" xlink:title=" ">
<polygon fill="white" stroke="#666666" points="1999.5,-101.5 1869.5,-101.5 1869.5,-71.5 1999.5,-71.5 1999.5,-101.5"/>
<text text-anchor="start" x="1877.5" y="-89.5" font-family="Helvetica,sans-Serif" font-size="10.00">src/core/decomposition</text>
<text text-anchor="middle" x="1934.5" y="-78.5" font-family="Helvetica,sans-Serif" font-size="10.00">/decomposition.h</text>
</a>
</g>
</g>
<!-- Node3&#45;&gt;Node7 -->
<g id="edge7_Node000003_Node000007" class="edge">
<title>Node3&#45;&gt;Node7</title>
<g id="a_edge7_Node000003_Node000007"><a xlink:title=" ">
<path fill="none" stroke="#63b8ff" d="M1384.67,-142.97C1595.49,-114.99 1653.49,-141.29 1859.5,-107 1867.99,-105.59 1876.93,-103.66 1885.55,-101.57"/>
<polygon fill="#63b8ff" stroke="#63b8ff" points="1383.95,-139.53 1374.51,-144.34 1384.89,-146.47 1383.95,-139.53"/>
</a>
</g>
</g>
<!-- Node9 -->
<g id="Node000009" class="node">
<title>Node9</title>
<g id="a_Node000009"><a xlink:href="task_8h.html" target="_top" xlink:title=" ">
<polygon fill="white" stroke="#666666" points="2088.5,-24.5 2000.5,-24.5 2000.5,-5.5 2088.5,-5.5 2088.5,-24.5"/>
<text text-anchor="middle" x="2044.5" y="-12.5" font-family="Helvetica,sans-Serif" font-size="10.00">src/core/task.h</text>
</a>
</g>
</g>
<!-- Node3&#45;&gt;Node9 -->
<g id="edge13_Node000003_Node000009" class="edge">
<title>Node3&#45;&gt;Node9</title>
<g id="a_edge13_Node000003_Node000009"><a xlink:title=" ">
<path fill="none" stroke="#63b8ff" d="M1384.57,-143.27C1488.02,-135.07 1954.16,-146.27 2008.5,-107 2035.9,-87.2 2042.46,-43.19 2044.02,-24.58"/>
<polygon fill="#63b8ff" stroke="#63b8ff" points="1384.1,-139.8 1374.5,-144.28 1384.8,-146.76 1384.1,-139.8"/>
</a>
</g>
</g>
<!-- Node10 -->
<g id="Node000010" class="node">
<title>Node10</title>
<g id="a_Node000010"><a xlink:href="device_8cc.html" target="_top" xlink:title=" ">
<polygon fill="white" stroke="#666666" points="2159.5,-96 2055.5,-96 2055.5,-77 2159.5,-77 2159.5,-96"/>
<text text-anchor="middle" x="2107.5" y="-84" font-family="Helvetica,sans-Serif" font-size="10.00">src/core/device.cc</text>
</a>
</g>
</g>
<!-- Node3&#45;&gt;Node10 -->
<g id="edge10_Node000003_Node000010" class="edge">
<title>Node3&#45;&gt;Node10</title>
<g id="a_edge10_Node000003_Node000010"><a xlink:title=" ">
<path fill="none" stroke="#63b8ff" d="M1384.88,-142.96C1675.86,-107.31 1756.13,-156.27 2041.5,-107 2055.63,-104.56 2071.01,-100.12 2083.37,-96.1"/>
<polygon fill="#63b8ff" stroke="#63b8ff" points="1384.37,-139.5 1374.88,-144.21 1385.24,-146.44 1384.37,-139.5"/>
</a>
</g>
</g>
<!-- Node11 -->
<g id="Node000011" class="node">
<title>Node11</title>
<g id="a_Node000011"><a xlink:href="pack__unpack_8cuh.html" target="_top" xlink:title=" ">
<polygon fill="white" stroke="#666666" points="2297,-101.5 2178,-101.5 2178,-71.5 2297,-71.5 2297,-101.5"/>
<text text-anchor="start" x="2186" y="-89.5" font-family="Helvetica,sans-Serif" font-size="10.00">src/core/kernels/pack</text>
<text text-anchor="middle" x="2237.5" y="-78.5" font-family="Helvetica,sans-Serif" font-size="10.00">_unpack.cuh</text>
</a>
</g>
</g>
<!-- Node3&#45;&gt;Node11 -->
<g id="edge11_Node000003_Node000011" class="edge">
<title>Node3&#45;&gt;Node11</title>
<g id="a_edge11_Node000003_Node000011"><a xlink:title=" ">
<path fill="none" stroke="#63b8ff" d="M1384.95,-142.96C1731.98,-101.81 1827.02,-162.33 2168.5,-107 2176.73,-105.67 2185.38,-103.69 2193.67,-101.51"/>
<polygon fill="#63b8ff" stroke="#63b8ff" points="1384.38,-139.51 1374.87,-144.18 1385.22,-146.46 1384.38,-139.51"/>
</a>
</g>
</g>
<!-- Node3&#45;&gt;Node12 -->
<g id="edge12_Node000003_Node000012" class="edge">
<title>Node3&#45;&gt;Node12</title>
<g id="a_edge12_Node000003_Node000012"><a xlink:title=" ">
<path fill="none" stroke="#63b8ff" d="M1242.25,-151.68C1204.08,-148.92 1156.24,-145.59 1113.5,-143 799.89,-124.03 715.85,-167.27 407.5,-107 395.27,-104.61 382.1,-100.12 371.6,-96.06"/>
<polygon fill="#63b8ff" stroke="#63b8ff" points="1242.02,-155.18 1252.25,-152.41 1242.53,-148.19 1242.02,-155.18"/>
</a>
</g>
</g>
<!-- Node13 -->
<g id="Node000013" class="node">
<title>Node13</title>
<g id="a_Node000013"><a xlink:href="update__params_8cc.html" target="_top" xlink:title=" ">
<polygon fill="white" stroke="#666666" points="2449.5,-101.5 2315.5,-101.5 2315.5,-71.5 2449.5,-71.5 2449.5,-101.5"/>
<text text-anchor="start" x="2323.5" y="-89.5" font-family="Helvetica,sans-Serif" font-size="10.00">src/core/update_params</text>
<text text-anchor="middle" x="2382.5" y="-78.5" font-family="Helvetica,sans-Serif" font-size="10.00">/update_params.cc</text>
</a>
</g>
</g>
<!-- Node3&#45;&gt;Node13 -->
<g id="edge14_Node000003_Node000013" class="edge">
<title>Node3&#45;&gt;Node13</title>
<g id="a_edge14_Node000003_Node000013"><a xlink:title=" ">
<path fill="none" stroke="#63b8ff" d="M1384.87,-142.98C1792.95,-95.74 1903.55,-165.87 2306.5,-107 2315.53,-105.68 2325.04,-103.72 2334.16,-101.53"/>
<polygon fill="#63b8ff" stroke="#63b8ff" points="1384.4,-139.51 1374.87,-144.15 1385.21,-146.46 1384.4,-139.51"/>
</a>
</g>
</g>
<!-- Node14 -->
<g id="Node000014" class="node">
<title>Node14</title>
<g id="a_Node000014"><a xlink:href="stdlib_2geometric__multigrid_8h.html" target="_top" xlink:title=" ">
<polygon fill="white" stroke="#666666" points="2623,-96 2468,-96 2468,-77 2623,-77 2623,-96"/>
<text text-anchor="middle" x="2545.5" y="-84" font-family="Helvetica,sans-Serif" font-size="10.00">stdlib/geometric_multigrid.h</text>
</a>
</g>
</g>
<!-- Node3&#45;&gt;Node14 -->
<g id="edge15_Node000003_Node000014" class="edge">
<title>Node3&#45;&gt;Node14</title>
<g id="a_edge15_Node000003_Node000014"><a xlink:title=" ">
<path fill="none" stroke="#63b8ff" d="M1385.09,-142.96C1860.16,-89.06 1987.66,-167.11 2458.5,-107 2477.08,-104.63 2497.53,-100.14 2513.93,-96.07"/>
<polygon fill="#63b8ff" stroke="#63b8ff" points="1384.4,-139.52 1374.87,-144.13 1385.2,-146.47 1384.4,-139.52"/>
</a>
</g>
</g>
<!-- Node15 -->
<g id="Node000015" class="node">
<title>Node15</title>
<g id="a_Node000015"><a xlink:href="bwtest_8cu.html" target="_top" xlink:title=" ">
<polygon fill="white" stroke="#666666" points="2763.5,-96 2641.5,-96 2641.5,-77 2763.5,-77 2763.5,-96"/>
<text text-anchor="middle" x="2702.5" y="-84" font-family="Helvetica,sans-Serif" font-size="10.00">test/bwtest/bwtest.cu</text>
</a>
</g>
</g>
<!-- Node3&#45;&gt;Node15 -->
<g id="edge16_Node000003_Node000015" class="edge">
<title>Node3&#45;&gt;Node15</title>
<g id="a_edge16_Node000003_Node000015"><a xlink:title=" ">
<path fill="none" stroke="#63b8ff" d="M1385.08,-142.97C1937.12,-81.65 2086.77,-189.62 2632.5,-107 2647.72,-104.7 2664.33,-100.16 2677.55,-96.04"/>
<polygon fill="#63b8ff" stroke="#63b8ff" points="1384.41,-139.52 1374.87,-144.12 1385.2,-146.48 1384.41,-139.52"/>
</a>
</g>
</g>
<!-- Node16 -->
<g id="Node000016" class="node">
<title>Node16</title>
<g id="a_Node000016"><a xlink:href="main_8cu.html" target="_top" xlink:title=" ">
<polygon fill="white" stroke="#666666" points="2877.5,-101.5 2781.5,-101.5 2781.5,-71.5 2877.5,-71.5 2877.5,-101.5"/>
<text text-anchor="start" x="2789.5" y="-89.5" font-family="Helvetica,sans-Serif" font-size="10.00">test/fft&#45;shift&#45;test</text>
<text text-anchor="middle" x="2829.5" y="-78.5" font-family="Helvetica,sans-Serif" font-size="10.00">/main.cu</text>
</a>
</g>
</g>
<!-- Node3&#45;&gt;Node16 -->
<g id="edge17_Node000003_Node000016" class="edge">
<title>Node3&#45;&gt;Node16</title>
<g id="a_edge17_Node000003_Node000016"><a xlink:title=" ">
<path fill="none" stroke="#63b8ff" d="M1385.19,-142.99C1707.01,-109.72 2471.86,-161.01 2772.5,-107 2779.5,-105.74 2786.8,-103.78 2793.75,-101.57"/>
<polygon fill="#63b8ff" stroke="#63b8ff" points="1384.43,-139.56 1374.87,-144.11 1385.18,-146.52 1384.43,-139.56"/>
</a>
</g>
</g>
<!-- Node17 -->
<g id="Node000017" class="node">
<title>Node17</title>
<g id="a_Node000017"><a xlink:href="multigrid-tests_2anisotropic-test_2main_8cc.html" target="_top" xlink:title=" ">
<polygon fill="white" stroke="#666666" points="554,-101.5 417,-101.5 417,-71.5 554,-71.5 554,-101.5"/>
<text text-anchor="start" x="425" y="-89.5" font-family="Helvetica,sans-Serif" font-size="10.00">test/multigrid&#45;tests</text>
<text text-anchor="middle" x="485.5" y="-78.5" font-family="Helvetica,sans-Serif" font-size="10.00">/anisotropic&#45;test/main.cc</text>
</a>
</g>
</g>
<!-- Node3&#45;&gt;Node17 -->
<g id="edge18_Node000003_Node000017" class="edge">
<title>Node3&#45;&gt;Node17</title>
<g id="a_edge18_Node000003_Node000017"><a xlink:title=" ">
<path fill="none" stroke="#63b8ff" d="M1242.24,-151.93C1204.06,-149.24 1156.22,-145.89 1113.5,-143 869.09,-126.45 805.52,-144.86 563.5,-107 554.54,-105.6 545.1,-103.65 536,-101.53"/>
<polygon fill="#63b8ff" stroke="#63b8ff" points="1242.01,-155.43 1252.23,-152.64 1242.5,-148.44 1242.01,-155.43"/>
</a>
</g>
</g>
<!-- Node18 -->
<g id="Node000018" class="node">
<title>Node18</title>
<g id="a_Node000018"><a xlink:href="multigrid-tests_2compact-stencil-multigrid-test_2main_8cc.html" target="_top" xlink:title=" ">
<polygon fill="white" stroke="#666666" points="718.5,-107 572.5,-107 572.5,-66 718.5,-66 718.5,-107"/>
<text text-anchor="start" x="580.5" y="-95" font-family="Helvetica,sans-Serif" font-size="10.00">test/multigrid&#45;tests</text>
<text text-anchor="start" x="580.5" y="-84" font-family="Helvetica,sans-Serif" font-size="10.00">/compact&#45;stencil&#45;multigrid</text>
<text text-anchor="middle" x="645.5" y="-73" font-family="Helvetica,sans-Serif" font-size="10.00">&#45;test/main.cc</text>
</a>
</g>
</g>
<!-- Node3&#45;&gt;Node18 -->
<g id="edge19_Node000003_Node000018" class="edge">
<title>Node3&#45;&gt;Node18</title>
<g id="a_edge19_Node000003_Node000018"><a xlink:title=" ">
<path fill="none" stroke="#63b8ff" d="M1242.16,-151.51C1097.08,-140.26 777.13,-114.97 727.5,-107 724.61,-106.54 721.67,-106.03 718.71,-105.48"/>
<polygon fill="#63b8ff" stroke="#63b8ff" points="1242.06,-155.01 1252.3,-152.3 1242.6,-148.03 1242.06,-155.01"/>
</a>
</g>
</g>
<!-- Node19 -->
<g id="Node000019" class="node">
<title>Node19</title>
<g id="a_Node000019"><a xlink:href="multigrid-tests_2line-smoother-multigrid-test_2main_8cc.html" target="_top" xlink:title=" ">
<polygon fill="white" stroke="#666666" points="872.5,-107 736.5,-107 736.5,-66 872.5,-66 872.5,-107"/>
<text text-anchor="start" x="744.5" y="-95" font-family="Helvetica,sans-Serif" font-size="10.00">test/multigrid&#45;tests</text>
<text text-anchor="start" x="744.5" y="-84" font-family="Helvetica,sans-Serif" font-size="10.00">/line&#45;smoother&#45;multigrid</text>
<text text-anchor="middle" x="804.5" y="-73" font-family="Helvetica,sans-Serif" font-size="10.00">&#45;test/main.cc</text>
</a>
</g>
</g>
<!-- Node3&#45;&gt;Node19 -->
<g id="edge20_Node000003_Node000019" class="edge">
<title>Node3&#45;&gt;Node19</title>
<g id="a_edge20_Node000003_Node000019"><a xlink:title=" ">
<path fill="none" stroke="#63b8ff" d="M1242.14,-151.66C1156.13,-144.56 1007.45,-130.13 881.5,-107 878.65,-106.48 875.75,-105.91 872.83,-105.31"/>
<polygon fill="#63b8ff" stroke="#63b8ff" points="1242.06,-155.17 1252.31,-152.49 1242.63,-148.19 1242.06,-155.17"/>
</a>
</g>
</g>
<!-- Node20 -->
<g id="Node000020" class="node">
<title>Node20</title>
<g id="a_Node000020"><a xlink:href="multigrid-tests_2multigrid-test_2main_8cc.html" target="_top" xlink:title=" ">
<polygon fill="white" stroke="#666666" points="1018.5,-101.5 890.5,-101.5 890.5,-71.5 1018.5,-71.5 1018.5,-101.5"/>
<text text-anchor="start" x="898.5" y="-89.5" font-family="Helvetica,sans-Serif" font-size="10.00">test/multigrid&#45;tests</text>
<text text-anchor="middle" x="954.5" y="-78.5" font-family="Helvetica,sans-Serif" font-size="10.00">/multigrid&#45;test/main.cc</text>
</a>
</g>
</g>
<!-- Node3&#45;&gt;Node20 -->
<g id="edge21_Node000003_Node000020" class="edge">
<title>Node3&#45;&gt;Node20</title>
<g id="a_edge21_Node000003_Node000020"><a xlink:title=" ">
<path fill="none" stroke="#63b8ff" d="M1242.21,-146.32C1184.14,-137.2 1100.17,-123.03 1027.5,-107 1020.07,-105.36 1012.26,-103.46 1004.62,-101.51"/>
<polygon fill="#63b8ff" stroke="#63b8ff" points="1241.96,-149.83 1252.38,-147.91 1243.04,-142.91 1241.96,-149.83"/>
</a>
</g>
</g>
<!-- Node21 -->
<g id="Node000021" class="node">
<title>Node21</title>
<g id="a_Node000021"><a xlink:href="multigrid-tests_2non-equidistant-test_2main_8cc.html" target="_top" xlink:title=" ">
<polygon fill="white" stroke="#666666" points="1156,-107 1037,-107 1037,-66 1156,-66 1156,-107"/>
<text text-anchor="start" x="1045" y="-95" font-family="Helvetica,sans-Serif" font-size="10.00">test/multigrid&#45;tests</text>
<text text-anchor="start" x="1045" y="-84" font-family="Helvetica,sans-Serif" font-size="10.00">/non&#45;equidistant&#45;test</text>
<text text-anchor="middle" x="1096.5" y="-73" font-family="Helvetica,sans-Serif" font-size="10.00">/main.cc</text>
</a>
</g>
</g>
<!-- Node3&#45;&gt;Node21 -->
<g id="edge22_Node000003_Node000021" class="edge">
<title>Node3&#45;&gt;Node21</title>
<g id="a_edge22_Node000003_Node000021"><a xlink:title=" ">
<path fill="none" stroke="#63b8ff" d="M1259.71,-139.77C1228.35,-129.73 1188.73,-117.04 1156.38,-106.68"/>
<polygon fill="#63b8ff" stroke="#63b8ff" points="1259,-143.22 1269.59,-142.94 1261.13,-136.55 1259,-143.22"/>
</a>
</g>
</g>
<!-- Node22 -->
<g id="Node000022" class="node">
<title>Node22</title>
<g id="a_Node000022"><a xlink:href="multigrid-tests_2parallel-multigrid-test_2main_8cc.html" target="_top" xlink:title=" ">
<polygon fill="white" stroke="#666666" points="1301,-107 1174,-107 1174,-66 1301,-66 1301,-107"/>
<text text-anchor="start" x="1182" y="-95" font-family="Helvetica,sans-Serif" font-size="10.00">test/multigrid&#45;tests</text>
<text text-anchor="start" x="1182" y="-84" font-family="Helvetica,sans-Serif" font-size="10.00">/parallel&#45;multigrid&#45;test</text>
<text text-anchor="middle" x="1237.5" y="-73" font-family="Helvetica,sans-Serif" font-size="10.00">/main.cc</text>
</a>
</g>
</g>
<!-- Node3&#45;&gt;Node22 -->
<g id="edge23_Node000003_Node000022" class="edge">
<title>Node3&#45;&gt;Node22</title>
<g id="a_edge23_Node000003_Node000022"><a xlink:title=" ">
<path fill="none" stroke="#63b8ff" d="M1290.49,-135.96C1280.45,-126.78 1268.75,-116.08 1258.9,-107.07"/>
<polygon fill="#63b8ff" stroke="#63b8ff" points="1288.38,-138.77 1298.12,-142.94 1293.1,-133.6 1288.38,-138.77"/>
</a>
</g>
</g>
<!-- Node23 -->
<g id="Node000023" class="node">
<title>Node23</title>
<g id="a_Node000023"><a xlink:href="ray-mpi-test_2main_8cc.html" target="_top" xlink:title=" ">
<polygon fill="white" stroke="#666666" points="1459.5,-96 1319.5,-96 1319.5,-77 1459.5,-77 1459.5,-96"/>
<text text-anchor="middle" x="1389.5" y="-84" font-family="Helvetica,sans-Serif" font-size="10.00">test/ray&#45;mpi&#45;test/main.cc</text>
</a>
</g>
</g>
<!-- Node3&#45;&gt;Node23 -->
<g id="edge24_Node000003_Node000023" class="edge">
<title>Node3&#45;&gt;Node23</title>
<g id="a_edge24_Node000003_Node000023"><a xlink:title=" ">
<path fill="none" stroke="#63b8ff" d="M1336.53,-135.94C1351.07,-122.65 1369.08,-106.17 1379.91,-96.27"/>
<polygon fill="#63b8ff" stroke="#63b8ff" points="1333.9,-133.6 1328.88,-142.94 1338.62,-138.77 1333.9,-133.6"/>
</a>
</g>
</g>
<!-- Node24 -->
<g id="Node000024" class="node">
<title>Node24</title>
<g id="a_Node000024"><a xlink:href="ray-test_2main_8cc.html" target="_top" xlink:title=" ">
<polygon fill="white" stroke="#666666" points="1595.5,-96 1477.5,-96 1477.5,-77 1595.5,-77 1595.5,-96"/>
<text text-anchor="middle" x="1536.5" y="-84" font-family="Helvetica,sans-Serif" font-size="10.00">test/ray&#45;test/main.cc</text>
</a>
</g>
</g>
<!-- Node3&#45;&gt;Node24 -->
<g id="edge25_Node000003_Node000024" class="edge">
<title>Node3&#45;&gt;Node24</title>
<g id="a_edge25_Node000003_Node000024"><a xlink:title=" ">
<path fill="none" stroke="#63b8ff" d="M1368.45,-139.87C1413.06,-125.97 1474.1,-106.95 1509.01,-96.07"/>
<polygon fill="#63b8ff" stroke="#63b8ff" points="1367.13,-136.62 1358.63,-142.94 1369.22,-143.3 1367.13,-136.62"/>
</a>
</g>
</g>
<!-- Node25 -->
<g id="Node000025" class="node">
<title>Node25</title>
<g id="a_Node000025"><a xlink:href="variable-dims_2main_8cc.html" target="_top" xlink:title=" ">
<polygon fill="white" stroke="#666666" points="1719.5,-101.5 1613.5,-101.5 1613.5,-71.5 1719.5,-71.5 1719.5,-101.5"/>
<text text-anchor="start" x="1621.5" y="-89.5" font-family="Helvetica,sans-Serif" font-size="10.00">test/variable&#45;dims</text>
<text text-anchor="middle" x="1666.5" y="-78.5" font-family="Helvetica,sans-Serif" font-size="10.00">/main.cc</text>
</a>
</g>
</g>
<!-- Node3&#45;&gt;Node25 -->
<g id="edge26_Node000003_Node000025" class="edge">
<title>Node3&#45;&gt;Node25</title>
<g id="a_edge26_Node000003_Node000025"><a xlink:title=" ">
<path fill="none" stroke="#63b8ff" d="M1384.64,-142.85C1483.18,-125.52 1510.79,-129.25 1604.5,-107 1611.09,-105.44 1617.99,-103.53 1624.7,-101.54"/>
<polygon fill="#63b8ff" stroke="#63b8ff" points="1383.79,-139.45 1374.56,-144.65 1385.02,-146.34 1383.79,-139.45"/>
</a>
</g>
</g>
<!-- Node5 -->
<g id="Node000005" class="node">
<title>Node5</title>
<g id="a_Node000005"><a xlink:href="kernels_8cu.html" target="_top" xlink:title=" ">
<polygon fill="white" stroke="#666666" points="1834.5,-24.5 1688.5,-24.5 1688.5,-5.5 1834.5,-5.5 1834.5,-24.5"/>
<text text-anchor="middle" x="1761.5" y="-12.5" font-family="Helvetica,sans-Serif" font-size="10.00">src/core/kernels/kernels.cu</text>
</a>
</g>
</g>
<!-- Node4&#45;&gt;Node5 -->
<g id="edge4_Node000004_Node000005" class="edge">
<title>Node4&#45;&gt;Node5</title>
<g id="a_edge4_Node000004_Node000005"><a xlink:title=" ">
<path fill="none" stroke="#63b8ff" d="M1783.44,-62.2C1777.33,-49.34 1770.11,-34.12 1765.66,-24.77"/>
<polygon fill="#63b8ff" stroke="#63b8ff" points="1780.37,-63.9 1787.82,-71.44 1786.69,-60.9 1780.37,-63.9"/>
</a>
</g>
</g>
<!-- Node8 -->
<g id="Node000008" class="node">
<title>Node8</title>
<g id="a_Node000008"><a xlink:href="decomposition_8cc.html" target="_top" xlink:title=" ">
<polygon fill="white" stroke="#666666" points="1982.5,-30 1852.5,-30 1852.5,0 1982.5,0 1982.5,-30"/>
<text text-anchor="start" x="1860.5" y="-18" font-family="Helvetica,sans-Serif" font-size="10.00">src/core/decomposition</text>
<text text-anchor="middle" x="1917.5" y="-7" font-family="Helvetica,sans-Serif" font-size="10.00">/decomposition.cc</text>
</a>
</g>
</g>
<!-- Node7&#45;&gt;Node8 -->
<g id="edge8_Node000007_Node000008" class="edge">
<title>Node7&#45;&gt;Node8</title>
<g id="a_edge8_Node000007_Node000008"><a xlink:title=" ">
<path fill="none" stroke="#63b8ff" d="M1928.65,-61.58C1926.08,-51.06 1923.15,-39.08 1920.94,-30.04"/>
<polygon fill="#63b8ff" stroke="#63b8ff" points="1925.28,-62.55 1931.06,-71.44 1932.08,-60.89 1925.28,-62.55"/>
</a>
</g>
</g>
<!-- Node7&#45;&gt;Node9 -->
<g id="edge9_Node000007_Node000009" class="edge">
<title>Node7&#45;&gt;Node9</title>
<g id="a_edge9_Node000007_Node000009"><a xlink:title=" ">
<path fill="none" stroke="#63b8ff" d="M1965.28,-66.05C1986.86,-52.42 2014.66,-34.85 2030.94,-24.57"/>
<polygon fill="#63b8ff" stroke="#63b8ff" points="1963.34,-63.14 1956.76,-71.44 1967.08,-69.05 1963.34,-63.14"/>
</a>
</g>
</g>
</g>
</svg>

<g id="navigator" transform="translate(0 0)" fill="#404254">
  <rect fill="#f2f5e9" fill-opacity="0.5" stroke="#606060" stroke-width=".5" x="0" y="0" width="60" height="60"/>
  <use id="zoomplus" xlink:href="#zoomPlus" x="17" y="9" onmousedown="handleZoom(evt,'in')"/>
  <use id="zoomminus" xlink:href="#zoomMin" x="42" y="9" onmousedown="handleZoom(evt,'out')"/>
  <use id="reset" xlink:href="#resetDef" x="30" y="36" onmousedown="handleReset()"/>
   <use id="arrowup" xlink:href="#arrowUp" x="0" y="0" onmousedown="handlePan(0,-1)"/>
  <use id="arrowright" xlink:href="#arrowRight" x="0" y="0" onmousedown="handlePan(1,0)"/>
  <use id="arrowdown" xlink:href="#arrowDown" x="0" y="0" onmousedown="handlePan(0,1)"/>
  <use id="arrowleft" xlink:href="#arrowLeft" x="0" y="0" onmousedown="handlePan(-1,0)"/>
</g>
<svg viewBox="0 0 15 15" width="100%" height="30px" preserveAspectRatio="xMaxYMin meet">
 <g id="arrow_out" transform="scale(0.3 0.3)">
  <a xlink:href="math__utils__base_8h__dep__incl_org.svg" target="_base">
   <rect id="button" ry="5" rx="5" y="6" x="6" height="38" width="38"
        fill="#f2f5e9" fill-opacity="0.5" stroke="#606060" stroke-width="1.0"/>
   <path id="arrow"
     d="M 11.500037,31.436501 C 11.940474,20.09759 22.043105,11.32322 32.158766,21.979434 L 37.068811,17.246167 C 37.068811,17.246167 37.088388,32 37.088388,32 L 22.160133,31.978069 C 22.160133,31.978069 26.997745,27.140456 26.997745,27.140456 C 18.528582,18.264221 13.291696,25.230495 11.500037,31.436501 z"
     style="fill:#404040;"/>
  </a>
 </g>
</svg>

<style type='text/css'>
<![CDATA[
[data-mouse-over-selected='false'] { opacity: 0.7; }
[data-mouse-over-selected='true']  { opacity: 1.0; }
]]>
</style>
<script type="application/ecmascript"><![CDATA[
document.addEventListener('DOMContentLoaded', (event) => {
  highlightEdges();
  highlightAdjacentNodes();
});
]]></script>
</svg>
