<?xml version="1.0" encoding="UTF-8" standalone="no"?>
<!DOCTYPE svg PUBLIC "-//W3C//DTD SVG 1.1//EN"
 "http://www.w3.org/Graphics/SVG/1.1/DTD/svg11.dtd">
<!-- Generated by graphviz version 2.43.0 (0)
 -->
<!-- Title: src/utils/memory.cc Pages: 1 -->
<svg width="2390pt" height="434pt"
 viewBox="0.00 0.00 2390.00 434.00" xmlns="http://www.w3.org/2000/svg" xmlns:xlink="http://www.w3.org/1999/xlink">
<g id="graph0" class="graph" transform="scale(1 1) rotate(0) translate(4 430)">
<title>src/utils/memory.cc</title>
<!-- Node1 -->
<g id="Node000001" class="node">
<title>Node1</title>
<g id="a_Node000001"><a xlink:title=" ">
<polygon fill="#999999" stroke="#666666" points="2209,-426 2098,-426 2098,-407 2209,-407 2209,-426"/>
<text text-anchor="middle" x="2153.5" y="-414" font-family="Helvetica,sans-Serif" font-size="10.00">src/utils/memory.cc</text>
</a>
</g>
</g>
<!-- Node2 -->
<g id="Node000002" class="node">
<title>Node2</title>
<g id="a_Node000002"><a xlink:href="astaroth__utils_8h.html" target="_top" xlink:title="Functions for loading and updating AcMeshInfo.">
<polygon fill="white" stroke="#666666" points="910.5,-371 818.5,-371 818.5,-352 910.5,-352 910.5,-371"/>
<text text-anchor="middle" x="864.5" y="-359" font-family="Helvetica,sans-Serif" font-size="10.00">astaroth_utils.h</text>
</a>
</g>
</g>
<!-- Node1&#45;&gt;Node2 -->
<g id="edge1_Node000001_Node000002" class="edge">
<title>Node1&#45;&gt;Node2</title>
<g id="a_edge1_Node000001_Node000002"><a xlink:title=" ">
<path fill="none" stroke="#63b8ff" d="M2097.7,-413.21C1885.89,-404.5 1132.93,-373.54 920.6,-364.81"/>
<polygon fill="#63b8ff" stroke="#63b8ff" points="920.75,-361.31 910.61,-364.4 920.46,-368.3 920.75,-361.31"/>
</a>
</g>
</g>
<!-- Node21 -->
<g id="Node000021" class="node">
<title>Node21</title>
<g id="a_Node000021"><a xlink:href="errchk_8h.html" target="_top" xlink:title="Brief info.">
<polygon fill="white" stroke="#666666" points="2209.5,-134.5 2153.5,-134.5 2153.5,-115.5 2209.5,-115.5 2209.5,-134.5"/>
<text text-anchor="middle" x="2181.5" y="-122.5" font-family="Helvetica,sans-Serif" font-size="10.00">errchk.h</text>
</a>
</g>
</g>
<!-- Node1&#45;&gt;Node21 -->
<g id="edge63_Node000001_Node000021" class="edge">
<title>Node1&#45;&gt;Node21</title>
<g id="a_edge63_Node000001_Node000021"><a xlink:title=" ">
<path fill="none" stroke="#63b8ff" d="M2169.45,-406.83C2196.26,-390.96 2247.5,-354.48 2247.5,-307.5 2247.5,-307.5 2247.5,-307.5 2247.5,-250.5 2247.5,-216.33 2244.95,-205.95 2228.5,-176 2221.33,-162.95 2209.96,-150.72 2200.2,-141.62"/>
<polygon fill="#63b8ff" stroke="#63b8ff" points="2202.3,-138.81 2192.5,-134.77 2197.64,-144.04 2202.3,-138.81"/>
</a>
</g>
</g>
<!-- Node44 -->
<g id="Node000044" class="node">
<title>Node44</title>
<g id="a_Node000044"><a xlink:title=" ">
<polygon fill="#e0e0e0" stroke="#999999" points="2219,-206 2088,-206 2088,-176 2219,-176 2219,-206"/>
<text text-anchor="start" x="2096" y="-194" font-family="Helvetica,sans-Serif" font-size="10.00">user_builtin_non_scalar</text>
<text text-anchor="middle" x="2153.5" y="-183" font-family="Helvetica,sans-Serif" font-size="10.00">_constants.h</text>
</a>
</g>
</g>
<!-- Node1&#45;&gt;Node44 -->
<g id="edge62_Node000001_Node000044" class="edge">
<title>Node1&#45;&gt;Node44</title>
<g id="a_edge62_Node000001_Node000044"><a xlink:title=" ">
<path fill="none" stroke="#63b8ff" d="M2153.5,-406.74C2153.5,-375 2153.5,-265.33 2153.5,-216.17"/>
<polygon fill="#63b8ff" stroke="#63b8ff" points="2157,-216.12 2153.5,-206.12 2150,-216.12 2157,-216.12"/>
</a>
</g>
</g>
<!-- Node3 -->
<g id="Node000003" class="node">
<title>Node3</title>
<g id="a_Node000003"><a xlink:href="astaroth_8h.html" target="_top" xlink:title=" ">
<polygon fill="white" stroke="#666666" points="857.5,-316 791.5,-316 791.5,-297 857.5,-297 857.5,-316"/>
<text text-anchor="middle" x="824.5" y="-304" font-family="Helvetica,sans-Serif" font-size="10.00">astaroth.h</text>
</a>
</g>
</g>
<!-- Node2&#45;&gt;Node3 -->
<g id="edge2_Node000002_Node000003" class="edge">
<title>Node2&#45;&gt;Node3</title>
<g id="a_edge2_Node000002_Node000003"><a xlink:title=" ">
<path fill="none" stroke="#63b8ff" d="M857.89,-351.75C852.24,-344.26 843.96,-333.28 837.05,-324.13"/>
<polygon fill="#63b8ff" stroke="#63b8ff" points="839.8,-321.96 830.98,-316.09 834.21,-326.18 839.8,-321.96"/>
</a>
</g>
</g>
<!-- Node57 -->
<g id="Node000057" class="node">
<title>Node57</title>
<g id="a_Node000057"><a xlink:title=" ">
<polygon fill="#e0e0e0" stroke="#999999" points="931.5,-316 875.5,-316 875.5,-297 931.5,-297 931.5,-316"/>
<text text-anchor="middle" x="903.5" y="-304" font-family="Helvetica,sans-Serif" font-size="10.00">stdarg.h</text>
</a>
</g>
</g>
<!-- Node2&#45;&gt;Node57 -->
<g id="edge60_Node000002_Node000057" class="edge">
<title>Node2&#45;&gt;Node57</title>
<g id="a_edge60_Node000002_Node000057"><a xlink:title=" ">
<path fill="none" stroke="#63b8ff" d="M870.94,-351.75C876.39,-344.34 884.36,-333.5 891.06,-324.41"/>
<polygon fill="#63b8ff" stroke="#63b8ff" points="894.07,-326.22 897.18,-316.09 888.43,-322.07 894.07,-326.22"/>
</a>
</g>
</g>
<!-- Node58 -->
<g id="Node000058" class="node">
<title>Node58</title>
<g id="a_Node000058"><a xlink:href="astaroth__lib_8h.html" target="_top" xlink:title=" ">
<polygon fill="white" stroke="#666666" points="773,-316 690,-316 690,-297 773,-297 773,-316"/>
<text text-anchor="middle" x="731.5" y="-304" font-family="Helvetica,sans-Serif" font-size="10.00">astaroth_lib.h</text>
</a>
</g>
</g>
<!-- Node2&#45;&gt;Node58 -->
<g id="edge61_Node000002_Node000058" class="edge">
<title>Node2&#45;&gt;Node58</title>
<g id="a_edge61_Node000002_Node000058"><a xlink:title=" ">
<path fill="none" stroke="#63b8ff" d="M843.13,-351.98C821.35,-343.3 787.34,-329.75 762.58,-319.88"/>
<polygon fill="#63b8ff" stroke="#63b8ff" points="763.84,-316.62 753.26,-316.17 761.25,-323.12 763.84,-316.62"/>
</a>
</g>
</g>
<!-- Node4 -->
<g id="Node000004" class="node">
<title>Node4</title>
<g id="a_Node000004"><a xlink:href="astaroth__base_8h.html" target="_top" xlink:title=" ">
<polygon fill="white" stroke="#666666" points="1341,-261 1246,-261 1246,-242 1341,-242 1341,-261"/>
<text text-anchor="middle" x="1293.5" y="-249" font-family="Helvetica,sans-Serif" font-size="10.00">astaroth_base.h</text>
</a>
</g>
</g>
<!-- Node3&#45;&gt;Node4 -->
<g id="edge3_Node000003_Node000004" class="edge">
<title>Node3&#45;&gt;Node4</title>
<g id="a_edge3_Node000003_Node000004"><a xlink:title=" ">
<path fill="none" stroke="#63b8ff" d="M857.92,-298.41C860.81,-297.9 863.7,-297.42 866.5,-297 1027.15,-273.01 1071.39,-281.1 1235.89,-261.14"/>
<polygon fill="#63b8ff" stroke="#63b8ff" points="1236.37,-264.6 1245.87,-259.91 1235.51,-257.66 1236.37,-264.6"/>
</a>
</g>
</g>
<!-- Node45 -->
<g id="Node000045" class="node">
<title>Node45</title>
<g id="a_Node000045"><a xlink:href="astaroth__grid_8h.html" target="_top" xlink:title=" ">
<polygon fill="white" stroke="#666666" points="1449.5,-261 1359.5,-261 1359.5,-242 1449.5,-242 1449.5,-261"/>
<text text-anchor="middle" x="1404.5" y="-249" font-family="Helvetica,sans-Serif" font-size="10.00">astaroth_grid.h</text>
</a>
</g>
</g>
<!-- Node3&#45;&gt;Node45 -->
<g id="edge48_Node000003_Node000045" class="edge">
<title>Node3&#45;&gt;Node45</title>
<g id="a_edge48_Node000003_Node000045"><a xlink:title=" ">
<path fill="none" stroke="#63b8ff" d="M857.91,-298.35C860.8,-297.84 863.7,-297.39 866.5,-297 1076.95,-267.99 1134.49,-285.25 1349.43,-261.02"/>
<polygon fill="#63b8ff" stroke="#63b8ff" points="1349.92,-264.49 1359.46,-259.87 1349.12,-257.53 1349.92,-264.49"/>
</a>
</g>
</g>
<!-- Node46 -->
<g id="Node000046" class="node">
<title>Node46</title>
<g id="a_Node000046"><a xlink:href="astaroth__node_8h.html" target="_top" xlink:title=" ">
<polygon fill="white" stroke="#666666" points="95,-261 0,-261 0,-242 95,-242 95,-261"/>
<text text-anchor="middle" x="47.5" y="-249" font-family="Helvetica,sans-Serif" font-size="10.00">astaroth_node.h</text>
</a>
</g>
</g>
<!-- Node3&#45;&gt;Node46 -->
<g id="edge49_Node000003_Node000046" class="edge">
<title>Node3&#45;&gt;Node46</title>
<g id="a_edge49_Node000003_Node000046"><a xlink:title=" ">
<path fill="none" stroke="#63b8ff" d="M791.1,-298.28C788.2,-297.79 785.3,-297.36 782.5,-297 486.51,-259.4 406.52,-290.57 105.39,-260.97"/>
<polygon fill="#63b8ff" stroke="#63b8ff" points="105.34,-257.45 95.04,-259.93 104.65,-264.41 105.34,-257.45"/>
</a>
</g>
</g>
<!-- Node47 -->
<g id="Node000047" class="node">
<title>Node47</title>
<g id="a_Node000047"><a xlink:href="astaroth__device_8h.html" target="_top" xlink:title=" ">
<polygon fill="white" stroke="#666666" points="217.5,-261 113.5,-261 113.5,-242 217.5,-242 217.5,-261"/>
<text text-anchor="middle" x="165.5" y="-249" font-family="Helvetica,sans-Serif" font-size="10.00">astaroth_device.h</text>
</a>
</g>
</g>
<!-- Node3&#45;&gt;Node47 -->
<g id="edge50_Node000003_Node000047" class="edge">
<title>Node3&#45;&gt;Node47</title>
<g id="a_edge50_Node000003_Node000047"><a xlink:title=" ">
<path fill="none" stroke="#63b8ff" d="M791.1,-298.32C788.2,-297.82 785.3,-297.37 782.5,-297 540.27,-264.8 474.58,-285.54 227.71,-261.04"/>
<polygon fill="#63b8ff" stroke="#63b8ff" points="228.01,-257.55 217.71,-260.03 227.31,-264.52 228.01,-257.55"/>
</a>
</g>
</g>
<!-- Node50 -->
<g id="Node000050" class="node">
<title>Node50</title>
<g id="a_Node000050"><a xlink:href="astaroth__legacy_8h.html" target="_top" xlink:title=" ">
<polygon fill="white" stroke="#666666" points="337.5,-261 235.5,-261 235.5,-242 337.5,-242 337.5,-261"/>
<text text-anchor="middle" x="286.5" y="-249" font-family="Helvetica,sans-Serif" font-size="10.00">astaroth_legacy.h</text>
</a>
</g>
</g>
<!-- Node3&#45;&gt;Node50 -->
<g id="edge53_Node000003_Node000050" class="edge">
<title>Node3&#45;&gt;Node50</title>
<g id="a_edge53_Node000003_Node000050"><a xlink:title=" ">
<path fill="none" stroke="#63b8ff" d="M791.09,-298.37C788.19,-297.86 785.3,-297.4 782.5,-297 593.62,-270.17 542.01,-281.98 347.69,-260.94"/>
<polygon fill="#63b8ff" stroke="#63b8ff" points="348.05,-257.46 337.73,-259.85 347.29,-264.42 348.05,-257.46"/>
</a>
</g>
</g>
<!-- Node51 -->
<g id="Node000051" class="node">
<title>Node51</title>
<g id="a_Node000051"><a xlink:title=" ">
<polygon fill="#e0e0e0" stroke="#999999" points="495,-261 356,-261 356,-242 495,-242 495,-261"/>
<text text-anchor="middle" x="425.5" y="-249" font-family="Helvetica,sans-Serif" font-size="10.00">device_set_input_decls.h</text>
</a>
</g>
</g>
<!-- Node3&#45;&gt;Node51 -->
<g id="edge54_Node000003_Node000051" class="edge">
<title>Node3&#45;&gt;Node51</title>
<g id="a_edge54_Node000003_Node000051"><a xlink:title=" ">
<path fill="none" stroke="#63b8ff" d="M791.07,-298.5C788.18,-297.96 785.29,-297.46 782.5,-297 730.79,-288.56 593.51,-272.07 505.04,-261.7"/>
<polygon fill="#63b8ff" stroke="#63b8ff" points="505.37,-258.22 495.03,-260.53 504.56,-265.17 505.37,-258.22"/>
</a>
</g>
</g>
<!-- Node52 -->
<g id="Node000052" class="node">
<title>Node52</title>
<g id="a_Node000052"><a xlink:title=" ">
<polygon fill="#e0e0e0" stroke="#999999" points="659.5,-261 513.5,-261 513.5,-242 659.5,-242 659.5,-261"/>
<text text-anchor="middle" x="586.5" y="-249" font-family="Helvetica,sans-Serif" font-size="10.00">device_get_output_decls.h</text>
</a>
</g>
</g>
<!-- Node3&#45;&gt;Node52 -->
<g id="edge55_Node000003_Node000052" class="edge">
<title>Node3&#45;&gt;Node52</title>
<g id="a_edge55_Node000003_Node000052"><a xlink:title=" ">
<path fill="none" stroke="#63b8ff" d="M791.41,-298.13C750.71,-289.07 681.31,-273.61 634.69,-263.23"/>
<polygon fill="#63b8ff" stroke="#63b8ff" points="635.34,-259.79 624.82,-261.03 633.82,-266.62 635.34,-259.79"/>
</a>
</g>
</g>
<!-- Node53 -->
<g id="Node000053" class="node">
<title>Node53</title>
<g id="a_Node000053"><a xlink:title=" ">
<polygon fill="#e0e0e0" stroke="#999999" points="817.5,-261 677.5,-261 677.5,-242 817.5,-242 817.5,-261"/>
<text text-anchor="middle" x="747.5" y="-249" font-family="Helvetica,sans-Serif" font-size="10.00">device_get_input_decls.h</text>
</a>
</g>
</g>
<!-- Node3&#45;&gt;Node53 -->
<g id="edge56_Node000003_Node000053" class="edge">
<title>Node3&#45;&gt;Node53</title>
<g id="a_edge56_Node000003_Node000053"><a xlink:title=" ">
<path fill="none" stroke="#63b8ff" d="M812.13,-296.98C800.41,-288.92 782.58,-276.65 768.61,-267.03"/>
<polygon fill="#63b8ff" stroke="#63b8ff" points="770.32,-263.96 760.1,-261.17 766.35,-269.72 770.32,-263.96"/>
</a>
</g>
</g>
<!-- Node54 -->
<g id="Node000054" class="node">
<title>Node54</title>
<g id="a_Node000054"><a xlink:title=" ">
<polygon fill="#e0e0e0" stroke="#999999" points="965.5,-261 835.5,-261 835.5,-242 965.5,-242 965.5,-261"/>
<text text-anchor="middle" x="900.5" y="-249" font-family="Helvetica,sans-Serif" font-size="10.00">get_vtxbufs_declares.h</text>
</a>
</g>
</g>
<!-- Node3&#45;&gt;Node54 -->
<g id="edge57_Node000003_Node000054" class="edge">
<title>Node3&#45;&gt;Node54</title>
<g id="a_edge57_Node000003_Node000054"><a xlink:title=" ">
<path fill="none" stroke="#63b8ff" d="M836.71,-296.98C848.28,-288.92 865.88,-276.65 879.66,-267.03"/>
<polygon fill="#63b8ff" stroke="#63b8ff" points="881.87,-269.76 888.07,-261.17 877.86,-264.02 881.87,-269.76"/>
</a>
</g>
</g>
<!-- Node55 -->
<g id="Node000055" class="node">
<title>Node55</title>
<g id="a_Node000055"><a xlink:href="astaroth__runtime__compilation_8h.html" target="_top" xlink:title=" ">
<polygon fill="white" stroke="#666666" points="1157,-261 984,-261 984,-242 1157,-242 1157,-261"/>
<text text-anchor="middle" x="1070.5" y="-249" font-family="Helvetica,sans-Serif" font-size="10.00">astaroth_runtime_compilation.h</text>
</a>
</g>
</g>
<!-- Node3&#45;&gt;Node55 -->
<g id="edge58_Node000003_Node000055" class="edge">
<title>Node3&#45;&gt;Node55</title>
<g id="a_edge58_Node000003_Node000055"><a xlink:title=" ">
<path fill="none" stroke="#63b8ff" d="M857.68,-298.35C899.67,-289.3 972.39,-273.64 1020.97,-263.17"/>
<polygon fill="#63b8ff" stroke="#63b8ff" points="1021.91,-266.55 1030.95,-261.02 1020.44,-259.71 1021.91,-266.55"/>
</a>
</g>
</g>
<!-- Node56 -->
<g id="Node000056" class="node">
<title>Node56</title>
<g id="a_Node000056"><a xlink:title=" ">
<polygon fill="#e0e0e0" stroke="#999999" points="1228,-261 1175,-261 1175,-242 1228,-242 1228,-261"/>
<text text-anchor="middle" x="1201.5" y="-249" font-family="Helvetica,sans-Serif" font-size="10.00">string.h</text>
</a>
</g>
</g>
<!-- Node3&#45;&gt;Node56 -->
<g id="edge59_Node000003_Node000056" class="edge">
<title>Node3&#45;&gt;Node56</title>
<g id="a_edge59_Node000003_Node000056"><a xlink:title=" ">
<path fill="none" stroke="#63b8ff" d="M857.93,-298.48C860.82,-297.95 863.71,-297.45 866.5,-297 995.85,-276.18 1032.57,-284.46 1164.71,-261.14"/>
<polygon fill="#63b8ff" stroke="#63b8ff" points="1165.59,-264.54 1174.82,-259.33 1164.36,-257.65 1165.59,-264.54"/>
</a>
</g>
</g>
<!-- Node5 -->
<g id="Node000005" class="node">
<title>Node5</title>
<g id="a_Node000005"><a xlink:title=" ">
<polygon fill="#e0e0e0" stroke="#999999" points="2135.5,-74 2073.5,-74 2073.5,-55 2135.5,-55 2135.5,-74"/>
<text text-anchor="middle" x="2104.5" y="-62" font-family="Helvetica,sans-Serif" font-size="10.00">stdbool.h</text>
</a>
</g>
</g>
<!-- Node4&#45;&gt;Node5 -->
<g id="edge4_Node000004_Node000005" class="edge">
<title>Node4&#45;&gt;Node5</title>
<g id="a_edge4_Node000004_Node000005"><a xlink:title=" ">
<path fill="none" stroke="#63b8ff" d="M1341.08,-243.38C1344.27,-242.91 1347.43,-242.45 1350.5,-242 1509.1,-218.85 1933.13,-231.81 2064.5,-140 2083.45,-126.75 2094.22,-101.61 2099.71,-84.22"/>
<polygon fill="#63b8ff" stroke="#63b8ff" points="2103.21,-84.69 2102.58,-74.11 2096.48,-82.77 2103.21,-84.69"/>
</a>
</g>
</g>
<!-- Node6 -->
<g id="Node000006" class="node">
<title>Node6</title>
<g id="a_Node000006"><a xlink:href="ac__mpi_8h.html" target="_top" xlink:title=" ">
<polygon fill="white" stroke="#666666" points="1232,-200.5 1171,-200.5 1171,-181.5 1232,-181.5 1232,-200.5"/>
<text text-anchor="middle" x="1201.5" y="-188.5" font-family="Helvetica,sans-Serif" font-size="10.00">ac_mpi.h</text>
</a>
</g>
</g>
<!-- Node4&#45;&gt;Node6 -->
<g id="edge5_Node000004_Node000006" class="edge">
<title>Node4&#45;&gt;Node6</title>
<g id="a_edge5_Node000004_Node000006"><a xlink:title=" ">
<path fill="none" stroke="#63b8ff" d="M1279.93,-241.87C1265.11,-232.45 1241.17,-217.23 1223.64,-206.08"/>
<polygon fill="#63b8ff" stroke="#63b8ff" points="1225.45,-203.08 1215.13,-200.67 1221.69,-208.99 1225.45,-203.08"/>
</a>
</g>
</g>
<!-- Node7 -->
<g id="Node000007" class="node">
<title>Node7</title>
<g id="a_Node000007"><a xlink:href="acc__runtime_8h.html" target="_top" xlink:title=" ">
<polygon fill="#fff0f0" stroke="red" points="1336.5,-200.5 1250.5,-200.5 1250.5,-181.5 1336.5,-181.5 1336.5,-200.5"/>
<text text-anchor="middle" x="1293.5" y="-188.5" font-family="Helvetica,sans-Serif" font-size="10.00">acc_runtime.h</text>
</a>
</g>
</g>
<!-- Node4&#45;&gt;Node7 -->
<g id="edge6_Node000004_Node000007" class="edge">
<title>Node4&#45;&gt;Node7</title>
<g id="a_edge6_Node000004_Node000007"><a xlink:title=" ">
<path fill="none" stroke="#63b8ff" d="M1293.5,-241.87C1293.5,-233.75 1293.5,-221.31 1293.5,-210.89"/>
<polygon fill="#63b8ff" stroke="#63b8ff" points="1297,-210.67 1293.5,-200.67 1290,-210.67 1297,-210.67"/>
</a>
</g>
</g>
<!-- Node27 -->
<g id="Node000027" class="node">
<title>Node27</title>
<g id="a_Node000027"><a xlink:title=" ">
<polygon fill="#e0e0e0" stroke="#999999" points="345,-134.5 206,-134.5 206,-115.5 345,-115.5 345,-134.5"/>
<text text-anchor="middle" x="275.5" y="-122.5" font-family="Helvetica,sans-Serif" font-size="10.00">user_built&#45;in_constants.h</text>
</a>
</g>
</g>
<!-- Node4&#45;&gt;Node27 -->
<g id="edge46_Node000004_Node000027" class="edge">
<title>Node4&#45;&gt;Node27</title>
<g id="a_edge46_Node000004_Node000027"><a xlink:title=" ">
<path fill="none" stroke="#63b8ff" d="M1245.86,-243.16C1243.03,-242.76 1240.23,-242.37 1237.5,-242 857.39,-190.55 761.06,-188.02 380.5,-140 370.13,-138.69 359.19,-137.27 348.44,-135.86"/>
<polygon fill="#63b8ff" stroke="#63b8ff" points="348.59,-132.35 338.22,-134.51 347.68,-139.29 348.59,-132.35"/>
</a>
</g>
</g>
<!-- Node41 -->
<g id="Node000041" class="node">
<title>Node41</title>
<g id="a_Node000041"><a xlink:href="func__define_8h.html" target="_top" xlink:title=" ">
<polygon fill="white" stroke="#666666" points="187.5,-134.5 105.5,-134.5 105.5,-115.5 187.5,-115.5 187.5,-134.5"/>
<text text-anchor="middle" x="146.5" y="-122.5" font-family="Helvetica,sans-Serif" font-size="10.00">func_define.h</text>
</a>
</g>
</g>
<!-- Node4&#45;&gt;Node41 -->
<g id="edge45_Node000004_Node000041" class="edge">
<title>Node4&#45;&gt;Node41</title>
<g id="a_edge45_Node000004_Node000041"><a xlink:title=" ">
<path fill="none" stroke="#63b8ff" d="M1245.88,-242.99C1243.05,-242.63 1240.24,-242.3 1237.5,-242 993.96,-215.6 931.25,-230.36 687.5,-206 468.85,-184.14 412.82,-183.85 197.5,-140 193.35,-139.15 189.04,-138.16 184.76,-137.1"/>
<polygon fill="#63b8ff" stroke="#63b8ff" points="185.49,-133.67 174.93,-134.53 183.72,-140.44 185.49,-133.67"/>
</a>
</g>
</g>
<!-- Node4&#45;&gt;Node44 -->
<g id="edge47_Node000004_Node000044" class="edge">
<title>Node4&#45;&gt;Node44</title>
<g id="a_edge47_Node000004_Node000044"><a xlink:title=" ">
<path fill="none" stroke="#63b8ff" d="M1341.04,-243.05C1344.24,-242.66 1347.41,-242.31 1350.5,-242 1670.66,-210.24 1753.77,-241.8 2073.5,-206 2074.8,-205.85 2076.11,-205.7 2077.43,-205.54"/>
<polygon fill="#63b8ff" stroke="#63b8ff" points="2078.22,-208.97 2087.67,-204.18 2077.3,-202.03 2078.22,-208.97"/>
</a>
</g>
</g>
<!-- Node7&#45;&gt;Node5 -->
<g id="edge8_Node000007_Node000005" class="edge">
<title>Node7&#45;&gt;Node5</title>
<g id="a_edge8_Node000007_Node000005"><a xlink:title=" ">
<path fill="none" stroke="#63b8ff" d="M1336.54,-188.87C1484.75,-184.72 1968.4,-169.06 2031.5,-140 2058.39,-127.61 2080.71,-100.66 2093.33,-82.8"/>
<polygon fill="#63b8ff" stroke="#63b8ff" points="2096.3,-84.65 2099.01,-74.41 2090.51,-80.73 2096.3,-84.65"/>
</a>
</g>
</g>
<!-- Node8 -->
<g id="Node000008" class="node">
<title>Node8</title>
<g id="a_Node000008"><a xlink:title=" ">
<polygon fill="#e0e0e0" stroke="#999999" points="2055.5,-74 2005.5,-74 2005.5,-55 2055.5,-55 2055.5,-74"/>
<text text-anchor="middle" x="2030.5" y="-62" font-family="Helvetica,sans-Serif" font-size="10.00">stdio.h</text>
</a>
</g>
</g>
<!-- Node7&#45;&gt;Node8 -->
<g id="edge7_Node000007_Node000008" class="edge">
<title>Node7&#45;&gt;Node8</title>
<g id="a_edge7_Node000007_Node000008"><a xlink:title=" ">
<path fill="none" stroke="#63b8ff" d="M1336.66,-189.83C1483.46,-188.86 1957.3,-182.46 2009.5,-140 2025.92,-126.64 2030.08,-101.52 2030.86,-84.17"/>
<polygon fill="#63b8ff" stroke="#63b8ff" points="2034.36,-84.13 2030.97,-74.09 2027.36,-84.05 2034.36,-84.13"/>
</a>
</g>
</g>
<!-- Node9 -->
<g id="Node000009" class="node">
<title>Node9</title>
<g id="a_Node000009"><a xlink:href="device__headers_8h.html" target="_top" xlink:title=" ">
<polygon fill="white" stroke="#666666" points="1708.5,-74 1606.5,-74 1606.5,-55 1708.5,-55 1708.5,-74"/>
<text text-anchor="middle" x="1657.5" y="-62" font-family="Helvetica,sans-Serif" font-size="10.00">device_headers.h</text>
</a>
</g>
</g>
<!-- Node7&#45;&gt;Node9 -->
<g id="edge9_Node000007_Node000009" class="edge">
<title>Node7&#45;&gt;Node9</title>
<g id="a_edge9_Node000007_Node000009"><a xlink:title=" ">
<path fill="none" stroke="#63b8ff" d="M1336.59,-190.24C1481.96,-190.62 1947.78,-188.03 1992.5,-140 2001.59,-130.24 2001.29,-120.03 1992.5,-110 1988.02,-104.88 1814.15,-83.82 1718.72,-72.6"/>
<polygon fill="#63b8ff" stroke="#63b8ff" points="1718.95,-69.11 1708.61,-71.42 1718.14,-76.06 1718.95,-69.11"/>
</a>
</g>
</g>
<!-- Node12 -->
<g id="Node000012" class="node">
<title>Node12</title>
<g id="a_Node000012"><a xlink:title=" ">
<polygon fill="#e0e0e0" stroke="#999999" points="454,-74 359,-74 359,-55 454,-55 454,-74"/>
<text text-anchor="middle" x="406.5" y="-62" font-family="Helvetica,sans-Serif" font-size="10.00">builtin_enums.h</text>
</a>
</g>
</g>
<!-- Node7&#45;&gt;Node12 -->
<g id="edge12_Node000007_Node000012" class="edge">
<title>Node7&#45;&gt;Node12</title>
<g id="a_edge12_Node000007_Node000012"><a xlink:title=" ">
<path fill="none" stroke="#63b8ff" d="M1266.22,-181.44C1258.32,-179.3 1249.63,-177.25 1241.5,-176 1194.84,-168.82 425.17,-174.08 392.5,-140 378.04,-124.91 386.91,-99.87 395.73,-83.03"/>
<polygon fill="#63b8ff" stroke="#63b8ff" points="398.85,-84.63 400.74,-74.2 392.76,-81.17 398.85,-84.63"/>
</a>
</g>
</g>
<!-- Node13 -->
<g id="Node000013" class="node">
<title>Node13</title>
<g id="a_Node000013"><a xlink:href="datatypes_8h.html" target="_top" xlink:title=" ">
<polygon fill="#fff0f0" stroke="red" points="475.5,-134.5 401.5,-134.5 401.5,-115.5 475.5,-115.5 475.5,-134.5"/>
<text text-anchor="middle" x="438.5" y="-122.5" font-family="Helvetica,sans-Serif" font-size="10.00">datatypes.h</text>
</a>
</g>
</g>
<!-- Node7&#45;&gt;Node13 -->
<g id="edge13_Node000007_Node000013" class="edge">
<title>Node7&#45;&gt;Node13</title>
<g id="a_edge13_Node000007_Node000013"><a xlink:title=" ">
<path fill="none" stroke="#63b8ff" d="M1266.21,-181.47C1258.31,-179.32 1249.63,-177.27 1241.5,-176 909.17,-123.97 817.11,-196.43 485.5,-140 481.35,-139.29 477.04,-138.34 472.8,-137.25"/>
<polygon fill="#63b8ff" stroke="#63b8ff" points="473.69,-133.87 463.11,-134.55 471.81,-140.61 473.69,-133.87"/>
</a>
</g>
</g>
<!-- Node7&#45;&gt;Node21 -->
<g id="edge21_Node000007_Node000021" class="edge">
<title>Node7&#45;&gt;Node21</title>
<g id="a_edge21_Node000007_Node000021"><a xlink:title=" ">
<path fill="none" stroke="#63b8ff" d="M1336.57,-189.02C1457.53,-185.92 1810.48,-174.36 2101.5,-140 2115.2,-138.38 2130.11,-135.96 2143.31,-133.58"/>
<polygon fill="#63b8ff" stroke="#63b8ff" points="2144.28,-136.96 2153.47,-131.69 2143,-130.07 2144.28,-136.96"/>
</a>
</g>
</g>
<!-- Node25 -->
<g id="Node000025" class="node">
<title>Node25</title>
<g id="a_Node000025"><a xlink:title=" ">
<polygon fill="#e0e0e0" stroke="#999999" points="581,-134.5 494,-134.5 494,-115.5 581,-115.5 581,-134.5"/>
<text text-anchor="middle" x="537.5" y="-122.5" font-family="Helvetica,sans-Serif" font-size="10.00">user_defines.h</text>
</a>
</g>
</g>
<!-- Node7&#45;&gt;Node25 -->
<g id="edge30_Node000007_Node000025" class="edge">
<title>Node7&#45;&gt;Node25</title>
<g id="a_edge30_Node000007_Node000025"><a xlink:title=" ">
<path fill="none" stroke="#63b8ff" d="M1265.94,-181.44C1258.11,-179.32 1249.53,-177.29 1241.5,-176 955.39,-130.09 876.72,-185.24 590.5,-140 585.64,-139.23 580.59,-138.2 575.62,-137.05"/>
<polygon fill="#63b8ff" stroke="#63b8ff" points="576.15,-133.58 565.6,-134.56 574.46,-140.37 576.15,-133.58"/>
</a>
</g>
</g>
<!-- Node26 -->
<g id="Node000026" class="node">
<title>Node26</title>
<g id="a_Node000026"><a xlink:title=" ">
<polygon fill="#e0e0e0" stroke="#999999" points="685.5,-134.5 599.5,-134.5 599.5,-115.5 685.5,-115.5 685.5,-134.5"/>
<text text-anchor="middle" x="642.5" y="-122.5" font-family="Helvetica,sans-Serif" font-size="10.00">profiles_info.h</text>
</a>
</g>
</g>
<!-- Node7&#45;&gt;Node26 -->
<g id="edge31_Node000007_Node000026" class="edge">
<title>Node7&#45;&gt;Node26</title>
<g id="a_edge31_Node000007_Node000026"><a xlink:title=" ">
<path fill="none" stroke="#63b8ff" d="M1265.93,-181.49C1258.1,-179.37 1249.52,-177.33 1241.5,-176 1001.59,-136.19 935.51,-179.24 695.5,-140 690.65,-139.21 685.6,-138.16 680.62,-137"/>
<polygon fill="#63b8ff" stroke="#63b8ff" points="681.16,-133.53 670.61,-134.5 679.47,-140.32 681.16,-133.53"/>
</a>
</g>
</g>
<!-- Node7&#45;&gt;Node27 -->
<g id="edge32_Node000007_Node000027" class="edge">
<title>Node7&#45;&gt;Node27</title>
<g id="a_edge32_Node000007_Node000027"><a xlink:title=" ">
<path fill="none" stroke="#63b8ff" d="M1266.22,-181.43C1258.32,-179.29 1249.63,-177.24 1241.5,-176 853.69,-116.64 749.75,-180.33 359.5,-140 350,-139.02 339.95,-137.64 330.23,-136.13"/>
<polygon fill="#63b8ff" stroke="#63b8ff" points="330.69,-132.66 320.26,-134.52 329.58,-139.57 330.69,-132.66"/>
</a>
</g>
</g>
<!-- Node28 -->
<g id="Node000028" class="node">
<title>Node28</title>
<g id="a_Node000028"><a xlink:href="func__attributes_8h.html" target="_top" xlink:title=" ">
<polygon fill="white" stroke="#666666" points="803,-134.5 704,-134.5 704,-115.5 803,-115.5 803,-134.5"/>
<text text-anchor="middle" x="753.5" y="-122.5" font-family="Helvetica,sans-Serif" font-size="10.00">func_attributes.h</text>
</a>
</g>
</g>
<!-- Node7&#45;&gt;Node28 -->
<g id="edge33_Node000007_Node000028" class="edge">
<title>Node7&#45;&gt;Node28</title>
<g id="a_edge33_Node000007_Node000028"><a xlink:title=" ">
<path fill="none" stroke="#63b8ff" d="M1265.37,-181.44C1257.69,-179.37 1249.33,-177.37 1241.5,-176 1053.03,-143 1001.44,-170.17 812.5,-140 806.98,-139.12 801.21,-138 795.53,-136.78"/>
<polygon fill="#63b8ff" stroke="#63b8ff" points="796,-133.3 785.48,-134.51 794.46,-140.13 796,-133.3"/>
</a>
</g>
</g>
<!-- Node29 -->
<g id="Node000029" class="node">
<title>Node29</title>
<g id="a_Node000029"><a xlink:title=" ">
<polygon fill="#e0e0e0" stroke="#999999" points="946,-134.5 821,-134.5 821,-115.5 946,-115.5 946,-134.5"/>
<text text-anchor="middle" x="883.5" y="-122.5" font-family="Helvetica,sans-Serif" font-size="10.00">user_input_typedefs.h</text>
</a>
</g>
</g>
<!-- Node7&#45;&gt;Node29 -->
<g id="edge34_Node000007_Node000029" class="edge">
<title>Node7&#45;&gt;Node29</title>
<g id="a_edge34_Node000007_Node000029"><a xlink:title=" ">
<path fill="none" stroke="#63b8ff" d="M1264.51,-181.44C1257.06,-179.45 1249.02,-177.48 1241.5,-176 1115.79,-151.29 1082.01,-160.24 955.5,-140 948.83,-138.93 941.82,-137.71 934.92,-136.43"/>
<polygon fill="#63b8ff" stroke="#63b8ff" points="935.39,-132.96 924.92,-134.54 934.09,-139.84 935.39,-132.96"/>
</a>
</g>
</g>
<!-- Node30 -->
<g id="Node000030" class="node">
<title>Node30</title>
<g id="a_Node000030"><a xlink:title=" ">
<polygon fill="#e0e0e0" stroke="#999999" points="1047,-134.5 964,-134.5 964,-115.5 1047,-115.5 1047,-134.5"/>
<text text-anchor="middle" x="1005.5" y="-122.5" font-family="Helvetica,sans-Serif" font-size="10.00">output_decl.h</text>
</a>
</g>
</g>
<!-- Node7&#45;&gt;Node30 -->
<g id="edge35_Node000007_Node000030" class="edge">
<title>Node7&#45;&gt;Node30</title>
<g id="a_edge35_Node000007_Node000030"><a xlink:title=" ">
<path fill="none" stroke="#63b8ff" d="M1263.34,-181.49C1256.21,-179.59 1248.6,-177.65 1241.5,-176 1159.9,-157.1 1138.06,-159.1 1056.5,-140 1052.69,-139.11 1048.73,-138.12 1044.78,-137.1"/>
<polygon fill="#63b8ff" stroke="#63b8ff" points="1045.63,-133.71 1035.07,-134.52 1043.83,-140.47 1045.63,-133.71"/>
</a>
</g>
</g>
<!-- Node31 -->
<g id="Node000031" class="node">
<title>Node31</title>
<g id="a_Node000031"><a xlink:title=" ">
<polygon fill="#e0e0e0" stroke="#999999" points="1181.5,-134.5 1065.5,-134.5 1065.5,-115.5 1181.5,-115.5 1181.5,-134.5"/>
<text text-anchor="middle" x="1123.5" y="-122.5" font-family="Helvetica,sans-Serif" font-size="10.00">comp_loaded_decl.h</text>
</a>
</g>
</g>
<!-- Node7&#45;&gt;Node31 -->
<g id="edge36_Node000007_Node000031" class="edge">
<title>Node7&#45;&gt;Node31</title>
<g id="a_edge36_Node000007_Node000031"><a xlink:title=" ">
<path fill="none" stroke="#63b8ff" d="M1270.57,-181.37C1240.96,-170.22 1189.25,-150.75 1155.7,-138.12"/>
<polygon fill="#63b8ff" stroke="#63b8ff" points="1156.93,-134.84 1146.33,-134.6 1154.46,-141.4 1156.93,-134.84"/>
</a>
</g>
</g>
<!-- Node32 -->
<g id="Node000032" class="node">
<title>Node32</title>
<g id="a_Node000032"><a xlink:title=" ">
<polygon fill="#e0e0e0" stroke="#999999" points="1277.5,-134.5 1199.5,-134.5 1199.5,-115.5 1277.5,-115.5 1277.5,-134.5"/>
<text text-anchor="middle" x="1238.5" y="-122.5" font-family="Helvetica,sans-Serif" font-size="10.00">comp_decl.h</text>
</a>
</g>
</g>
<!-- Node7&#45;&gt;Node32 -->
<g id="edge37_Node000007_Node000032" class="edge">
<title>Node7&#45;&gt;Node32</title>
<g id="a_edge37_Node000007_Node000032"><a xlink:title=" ">
<path fill="none" stroke="#63b8ff" d="M1286.08,-181.37C1277.6,-171.5 1263.52,-155.11 1252.87,-142.72"/>
<polygon fill="#63b8ff" stroke="#63b8ff" points="1255.33,-140.21 1246.15,-134.91 1250.02,-144.77 1255.33,-140.21"/>
</a>
</g>
</g>
<!-- Node33 -->
<g id="Node000033" class="node">
<title>Node33</title>
<g id="a_Node000033"><a xlink:title=" ">
<polygon fill="#e0e0e0" stroke="#999999" points="1403.5,-134.5 1295.5,-134.5 1295.5,-115.5 1403.5,-115.5 1403.5,-134.5"/>
<text text-anchor="middle" x="1349.5" y="-122.5" font-family="Helvetica,sans-Serif" font-size="10.00">info_loaded_decl.h</text>
</a>
</g>
</g>
<!-- Node7&#45;&gt;Node33 -->
<g id="edge38_Node000007_Node000033" class="edge">
<title>Node7&#45;&gt;Node33</title>
<g id="a_edge38_Node000007_Node000033"><a xlink:title=" ">
<path fill="none" stroke="#63b8ff" d="M1301.05,-181.37C1309.69,-171.5 1324.03,-155.11 1334.87,-142.72"/>
<polygon fill="#63b8ff" stroke="#63b8ff" points="1337.76,-144.74 1341.71,-134.91 1332.49,-140.13 1337.76,-144.74"/>
</a>
</g>
</g>
<!-- Node34 -->
<g id="Node000034" class="node">
<title>Node34</title>
<g id="a_Node000034"><a xlink:title=" ">
<polygon fill="#e0e0e0" stroke="#999999" points="1561.5,-134.5 1421.5,-134.5 1421.5,-115.5 1561.5,-115.5 1561.5,-134.5"/>
<text text-anchor="middle" x="1491.5" y="-122.5" font-family="Helvetica,sans-Serif" font-size="10.00">device_mesh_info_decl.h</text>
</a>
</g>
</g>
<!-- Node7&#45;&gt;Node34 -->
<g id="edge39_Node000007_Node000034" class="edge">
<title>Node7&#45;&gt;Node34</title>
<g id="a_edge39_Node000007_Node000034"><a xlink:title=" ">
<path fill="none" stroke="#63b8ff" d="M1320.2,-181.37C1354.99,-170.12 1415.96,-150.42 1455,-137.8"/>
<polygon fill="#63b8ff" stroke="#63b8ff" points="1456.47,-141 1464.9,-134.6 1454.31,-134.34 1456.47,-141"/>
</a>
</g>
</g>
<!-- Node35 -->
<g id="Node000035" class="node">
<title>Node35</title>
<g id="a_Node000035"><a xlink:title=" ">
<polygon fill="#e0e0e0" stroke="#999999" points="1657,-134.5 1580,-134.5 1580,-115.5 1657,-115.5 1657,-134.5"/>
<text text-anchor="middle" x="1618.5" y="-122.5" font-family="Helvetica,sans-Serif" font-size="10.00">array_decl.h</text>
</a>
</g>
</g>
<!-- Node7&#45;&gt;Node35 -->
<g id="edge40_Node000007_Node000035" class="edge">
<title>Node7&#45;&gt;Node35</title>
<g id="a_edge40_Node000007_Node000035"><a xlink:title=" ">
<path fill="none" stroke="#63b8ff" d="M1336.97,-183.6C1391.77,-175.21 1488.68,-159.26 1570.5,-140 1573.94,-139.19 1577.5,-138.28 1581.06,-137.33"/>
<polygon fill="#63b8ff" stroke="#63b8ff" points="1582.27,-140.63 1590.97,-134.57 1580.39,-133.88 1582.27,-140.63"/>
</a>
</g>
</g>
<!-- Node36 -->
<g id="Node000036" class="node">
<title>Node36</title>
<g id="a_Node000036"><a xlink:title=" ">
<polygon fill="#e0e0e0" stroke="#999999" points="1751.5,-134.5 1675.5,-134.5 1675.5,-115.5 1751.5,-115.5 1751.5,-134.5"/>
<text text-anchor="middle" x="1713.5" y="-122.5" font-family="Helvetica,sans-Serif" font-size="10.00">input_decl.h</text>
</a>
</g>
</g>
<!-- Node7&#45;&gt;Node36 -->
<g id="edge41_Node000007_Node000036" class="edge">
<title>Node7&#45;&gt;Node36</title>
<g id="a_edge41_Node000007_Node000036"><a xlink:title=" ">
<path fill="none" stroke="#63b8ff" d="M1336.67,-186.42C1406.54,-180.14 1548.48,-165.33 1666.5,-140 1670.13,-139.22 1673.88,-138.3 1677.61,-137.31"/>
<polygon fill="#63b8ff" stroke="#63b8ff" points="1678.66,-140.66 1687.34,-134.58 1676.76,-133.92 1678.66,-140.66"/>
</a>
</g>
</g>
<!-- Node37 -->
<g id="Node000037" class="node">
<title>Node37</title>
<g id="a_Node000037"><a xlink:href="ac__helpers_8h.html" target="_top" xlink:title=" ">
<polygon fill="white" stroke="#666666" points="1847.5,-134.5 1769.5,-134.5 1769.5,-115.5 1847.5,-115.5 1847.5,-134.5"/>
<text text-anchor="middle" x="1808.5" y="-122.5" font-family="Helvetica,sans-Serif" font-size="10.00">ac_helpers.h</text>
</a>
</g>
</g>
<!-- Node7&#45;&gt;Node37 -->
<g id="edge42_Node000007_Node000037" class="edge">
<title>Node7&#45;&gt;Node37</title>
<g id="a_edge42_Node000007_Node000037"><a xlink:title=" ">
<path fill="none" stroke="#63b8ff" d="M1336.7,-187.94C1419.57,-183.41 1606.32,-170.49 1760.5,-140 1764.41,-139.23 1768.47,-138.28 1772.48,-137.25"/>
<polygon fill="#63b8ff" stroke="#63b8ff" points="1773.58,-140.57 1782.3,-134.55 1771.73,-133.82 1773.58,-140.57"/>
</a>
</g>
</g>
<!-- Node38 -->
<g id="Node000038" class="node">
<title>Node38</title>
<g id="a_Node000038"><a xlink:title=" ">
<polygon fill="#e0e0e0" stroke="#999999" points="1983.5,-140 1865.5,-140 1865.5,-110 1983.5,-110 1983.5,-140"/>
<text text-anchor="start" x="1873.5" y="-128" font-family="Helvetica,sans-Serif" font-size="10.00">scalar_reduce_buffer</text>
<text text-anchor="middle" x="1924.5" y="-117" font-family="Helvetica,sans-Serif" font-size="10.00">_defs.h</text>
</a>
</g>
</g>
<!-- Node7&#45;&gt;Node38 -->
<g id="edge43_Node000007_Node000038" class="edge">
<title>Node7&#45;&gt;Node38</title>
<g id="a_edge43_Node000007_Node000038"><a xlink:title=" ">
<path fill="none" stroke="#63b8ff" d="M1336.78,-187.85C1429.86,-182.86 1656.11,-168.78 1855.17,-140.08"/>
<polygon fill="#63b8ff" stroke="#63b8ff" points="1855.84,-143.52 1865.23,-138.62 1854.83,-136.6 1855.84,-143.52"/>
</a>
</g>
</g>
<!-- Node7&#45;&gt;Node41 -->
<g id="edge44_Node000007_Node000041" class="edge">
<title>Node7&#45;&gt;Node41</title>
<g id="a_edge44_Node000007_Node000041"><a xlink:title=" ">
<path fill="none" stroke="#63b8ff" d="M1266.49,-181.47C1258.52,-179.3 1249.73,-177.23 1241.5,-176 782.35,-107.2 656.48,-209.93 197.5,-140 192.7,-139.27 187.71,-138.24 182.82,-137.08"/>
<polygon fill="#63b8ff" stroke="#63b8ff" points="183.54,-133.65 172.98,-134.53 181.78,-140.42 183.54,-133.65"/>
</a>
</g>
</g>
<!-- Node10 -->
<g id="Node000010" class="node">
<title>Node10</title>
<g id="a_Node000010"><a xlink:title=" ">
<polygon fill="#e0e0e0" stroke="#999999" points="1149,-19 1036,-19 1036,0 1149,0 1149,-19"/>
<text text-anchor="middle" x="1092.5" y="-7" font-family="Helvetica,sans-Serif" font-size="10.00">cuda_runtime_api.h</text>
</a>
</g>
</g>
<!-- Node9&#45;&gt;Node10 -->
<g id="edge10_Node000009_Node000010" class="edge">
<title>Node9&#45;&gt;Node10</title>
<g id="a_edge10_Node000009_Node000010"><a xlink:title=" ">
<path fill="none" stroke="#63b8ff" d="M1606.36,-58.7C1503.92,-49.09 1273.61,-27.49 1159.37,-16.77"/>
<polygon fill="#63b8ff" stroke="#63b8ff" points="1159.63,-13.28 1149.35,-15.83 1158.98,-20.25 1159.63,-13.28"/>
</a>
</g>
</g>
<!-- Node11 -->
<g id="Node000011" class="node">
<title>Node11</title>
<g id="a_Node000011"><a xlink:title=" ">
<polygon fill="#e0e0e0" stroke="#999999" points="1695.5,-19 1619.5,-19 1619.5,0 1695.5,0 1695.5,-19"/>
<text text-anchor="middle" x="1657.5" y="-7" font-family="Helvetica,sans-Serif" font-size="10.00">cuda_fp16.h</text>
</a>
</g>
</g>
<!-- Node9&#45;&gt;Node11 -->
<g id="edge11_Node000009_Node000011" class="edge">
<title>Node9&#45;&gt;Node11</title>
<g id="a_edge11_Node000009_Node000011"><a xlink:title=" ">
<path fill="none" stroke="#63b8ff" d="M1657.5,-54.75C1657.5,-47.8 1657.5,-37.85 1657.5,-29.13"/>
<polygon fill="#63b8ff" stroke="#63b8ff" points="1661,-29.09 1657.5,-19.09 1654,-29.09 1661,-29.09"/>
</a>
</g>
</g>
<!-- Node13&#45;&gt;Node9 -->
<g id="edge14_Node000013_Node000009" class="edge">
<title>Node13&#45;&gt;Node9</title>
<g id="a_edge14_Node000013_Node000009"><a xlink:title=" ">
<path fill="none" stroke="#63b8ff" d="M463.11,-115.4C470.24,-113.26 478.11,-111.22 485.5,-110 595.19,-91.88 1370.68,-72.29 1596.16,-66.93"/>
<polygon fill="#63b8ff" stroke="#63b8ff" points="1596.24,-70.42 1606.16,-66.69 1596.08,-63.43 1596.24,-70.42"/>
</a>
</g>
</g>
<!-- Node13&#45;&gt;Node10 -->
<g id="edge15_Node000013_Node000010" class="edge">
<title>Node13&#45;&gt;Node10</title>
<g id="a_edge15_Node000013_Node000010"><a xlink:title=" ">
<path fill="none" stroke="#63b8ff" d="M465.19,-115.41C471.78,-113.47 478.86,-111.53 485.5,-110 679.78,-65.33 913.48,-32.9 1025.81,-18.61"/>
<polygon fill="#63b8ff" stroke="#63b8ff" points="1026.48,-22.05 1035.97,-17.33 1025.61,-15.11 1026.48,-22.05"/>
</a>
</g>
</g>
<!-- Node13&#45;&gt;Node12 -->
<g id="edge17_Node000013_Node000012" class="edge">
<title>Node13&#45;&gt;Node12</title>
<g id="a_edge17_Node000013_Node000012"><a xlink:title=" ">
<path fill="none" stroke="#63b8ff" d="M433.78,-115.37C429.15,-106.9 421.95,-93.74 416.11,-83.07"/>
<polygon fill="#63b8ff" stroke="#63b8ff" points="419.11,-81.26 411.24,-74.17 412.97,-84.62 419.11,-81.26"/>
</a>
</g>
</g>
<!-- Node17 -->
<g id="Node000017" class="node">
<title>Node17</title>
<g id="a_Node000017"><a xlink:href="acreal_8h.html" target="_top" xlink:title=" ">
<polygon fill="white" stroke="#666666" points="1796.5,-19 1740.5,-19 1740.5,0 1796.5,0 1796.5,-19"/>
<text text-anchor="middle" x="1768.5" y="-7" font-family="Helvetica,sans-Serif" font-size="10.00">acreal.h</text>
</a>
</g>
</g>
<!-- Node13&#45;&gt;Node17 -->
<g id="edge16_Node000013_Node000017" class="edge">
<title>Node13&#45;&gt;Node17</title>
<g id="a_edge16_Node000013_Node000017"><a xlink:title=" ">
<path fill="none" stroke="#63b8ff" d="M463.62,-115.43C470.63,-113.34 478.3,-111.33 485.5,-110 752.66,-60.83 1434.3,-47 1704.5,-19 1712.82,-18.14 1721.73,-17.06 1730.18,-15.95"/>
<polygon fill="#63b8ff" stroke="#63b8ff" points="1730.74,-19.41 1740.19,-14.62 1729.81,-12.47 1730.74,-19.41"/>
</a>
</g>
</g>
<!-- Node19 -->
<g id="Node000019" class="node">
<title>Node19</title>
<g id="a_Node000019"><a xlink:href="host__datatypes_8h.html" target="_top" xlink:title=" ">
<polygon fill="white" stroke="#666666" points="1847,-74 1746,-74 1746,-55 1847,-55 1847,-74"/>
<text text-anchor="middle" x="1796.5" y="-62" font-family="Helvetica,sans-Serif" font-size="10.00">host_datatypes.h</text>
</a>
</g>
</g>
<!-- Node13&#45;&gt;Node19 -->
<g id="edge18_Node000013_Node000019" class="edge">
<title>Node13&#45;&gt;Node19</title>
<g id="a_edge18_Node000013_Node000019"><a xlink:title=" ">
<path fill="none" stroke="#63b8ff" d="M463.1,-115.36C470.24,-113.21 478.1,-111.19 485.5,-110 755.92,-66.54 1444.24,-92.66 1717.5,-74 1723.41,-73.6 1729.55,-73.09 1735.69,-72.52"/>
<polygon fill="#63b8ff" stroke="#63b8ff" points="1736.36,-75.98 1745.98,-71.53 1735.69,-69.01 1736.36,-75.98"/>
</a>
</g>
</g>
<!-- Node19&#45;&gt;Node17 -->
<g id="edge19_Node000019_Node000017" class="edge">
<title>Node19&#45;&gt;Node17</title>
<g id="a_edge19_Node000019_Node000017"><a xlink:title=" ">
<path fill="none" stroke="#63b8ff" d="M1791.88,-54.75C1788.04,-47.49 1782.48,-36.95 1777.74,-27.98"/>
<polygon fill="#63b8ff" stroke="#63b8ff" points="1780.8,-26.3 1773.04,-19.09 1774.61,-29.57 1780.8,-26.3"/>
</a>
</g>
</g>
<!-- Node20 -->
<g id="Node000020" class="node">
<title>Node20</title>
<g id="a_Node000020"><a xlink:title=" ">
<polygon fill="#e0e0e0" stroke="#999999" points="2030.5,-19 1974.5,-19 1974.5,0 2030.5,0 2030.5,-19"/>
<text text-anchor="middle" x="2002.5" y="-7" font-family="Helvetica,sans-Serif" font-size="10.00">stddef.h</text>
</a>
</g>
</g>
<!-- Node19&#45;&gt;Node20 -->
<g id="edge20_Node000019_Node000020" class="edge">
<title>Node19&#45;&gt;Node20</title>
<g id="a_edge20_Node000019_Node000020"><a xlink:title=" ">
<path fill="none" stroke="#63b8ff" d="M1829.6,-54.98C1866.45,-45.5 1925.91,-30.2 1964.6,-20.25"/>
<polygon fill="#63b8ff" stroke="#63b8ff" points="1965.64,-23.6 1974.45,-17.72 1963.89,-16.82 1965.64,-23.6"/>
</a>
</g>
</g>
<!-- Node21&#45;&gt;Node5 -->
<g id="edge24_Node000021_Node000005" class="edge">
<title>Node21&#45;&gt;Node5</title>
<g id="a_edge24_Node000021_Node000005"><a xlink:title=" ">
<path fill="none" stroke="#63b8ff" d="M2170.14,-115.37C2158.08,-106.21 2138.8,-91.56 2124.25,-80.51"/>
<polygon fill="#63b8ff" stroke="#63b8ff" points="2125.99,-77.43 2115.91,-74.17 2121.75,-83 2125.99,-77.43"/>
</a>
</g>
</g>
<!-- Node21&#45;&gt;Node8 -->
<g id="edge26_Node000021_Node000008" class="edge">
<title>Node21&#45;&gt;Node8</title>
<g id="a_edge26_Node000021_Node000008"><a xlink:title=" ">
<path fill="none" stroke="#63b8ff" d="M2159.54,-115.49C2133.82,-105.53 2091.02,-88.95 2061.82,-77.63"/>
<polygon fill="#63b8ff" stroke="#63b8ff" points="2063.07,-74.37 2052.48,-74.02 2060.54,-80.89 2063.07,-74.37"/>
</a>
</g>
</g>
<!-- Node21&#45;&gt;Node9 -->
<g id="edge29_Node000021_Node000009" class="edge">
<title>Node21&#45;&gt;Node9</title>
<g id="a_edge29_Node000021_Node000009"><a xlink:title=" ">
<path fill="none" stroke="#63b8ff" d="M2153.33,-120.85C2071.49,-111.72 1832.39,-85.03 1718.8,-72.34"/>
<polygon fill="#63b8ff" stroke="#63b8ff" points="1718.86,-68.83 1708.53,-71.2 1718.08,-75.79 1718.86,-68.83"/>
</a>
</g>
</g>
<!-- Node21&#45;&gt;Node19 -->
<g id="edge23_Node000021_Node000019" class="edge">
<title>Node21&#45;&gt;Node19</title>
<g id="a_edge23_Node000021_Node000019"><a xlink:title=" ">
<path fill="none" stroke="#63b8ff" d="M2153.19,-119.7C2091.03,-110.25 1941.45,-87.52 1857.06,-74.7"/>
<polygon fill="#63b8ff" stroke="#63b8ff" points="1857.51,-71.23 1847.1,-73.19 1856.46,-78.15 1857.51,-71.23"/>
</a>
</g>
</g>
<!-- Node21&#45;&gt;Node20 -->
<g id="edge22_Node000021_Node000020" class="edge">
<title>Node21&#45;&gt;Node20</title>
<g id="a_edge22_Node000021_Node000020"><a xlink:title=" ">
<path fill="none" stroke="#63b8ff" d="M2179.22,-115.43C2174.91,-100.87 2164.19,-71.29 2144.5,-55 2114.81,-30.44 2071.52,-19.39 2040.55,-14.45"/>
<polygon fill="#63b8ff" stroke="#63b8ff" points="2040.96,-10.97 2030.56,-13 2039.95,-17.9 2040.96,-10.97"/>
</a>
</g>
</g>
<!-- Node22 -->
<g id="Node000022" class="node">
<title>Node22</title>
<g id="a_Node000022"><a xlink:title=" ">
<polygon fill="#e0e0e0" stroke="#999999" points="2311,-74 2258,-74 2258,-55 2311,-55 2311,-74"/>
<text text-anchor="middle" x="2284.5" y="-62" font-family="Helvetica,sans-Serif" font-size="10.00">stdint.h</text>
</a>
</g>
</g>
<!-- Node21&#45;&gt;Node22 -->
<g id="edge25_Node000021_Node000022" class="edge">
<title>Node21&#45;&gt;Node22</title>
<g id="a_edge25_Node000021_Node000022"><a xlink:title=" ">
<path fill="none" stroke="#63b8ff" d="M2196.7,-115.37C2213.51,-105.82 2240.82,-90.31 2260.52,-79.12"/>
<polygon fill="#63b8ff" stroke="#63b8ff" points="2262.27,-82.15 2269.24,-74.17 2258.82,-76.06 2262.27,-82.15"/>
</a>
</g>
</g>
<!-- Node23 -->
<g id="Node000023" class="node">
<title>Node23</title>
<g id="a_Node000023"><a xlink:title=" ">
<polygon fill="#e0e0e0" stroke="#999999" points="2382,-74 2329,-74 2329,-55 2382,-55 2382,-74"/>
<text text-anchor="middle" x="2355.5" y="-62" font-family="Helvetica,sans-Serif" font-size="10.00">stdlib.h</text>
</a>
</g>
</g>
<!-- Node21&#45;&gt;Node23 -->
<g id="edge27_Node000021_Node000023" class="edge">
<title>Node21&#45;&gt;Node23</title>
<g id="a_edge27_Node000021_Node000023"><a xlink:title=" ">
<path fill="none" stroke="#63b8ff" d="M2206.8,-115.49C2236.7,-105.44 2286.62,-88.66 2320.28,-77.34"/>
<polygon fill="#63b8ff" stroke="#63b8ff" points="2321.81,-80.52 2330.17,-74.02 2319.57,-73.89 2321.81,-80.52"/>
</a>
</g>
</g>
<!-- Node24 -->
<g id="Node000024" class="node">
<title>Node24</title>
<g id="a_Node000024"><a xlink:title=" ">
<polygon fill="#e0e0e0" stroke="#999999" points="2239.5,-74 2191.5,-74 2191.5,-55 2239.5,-55 2239.5,-74"/>
<text text-anchor="middle" x="2215.5" y="-62" font-family="Helvetica,sans-Serif" font-size="10.00">time.h</text>
</a>
</g>
</g>
<!-- Node21&#45;&gt;Node24 -->
<g id="edge28_Node000021_Node000024" class="edge">
<title>Node21&#45;&gt;Node24</title>
<g id="a_edge28_Node000021_Node000024"><a xlink:title=" ">
<path fill="none" stroke="#63b8ff" d="M2186.52,-115.37C2191.44,-106.9 2199.09,-93.74 2205.29,-83.07"/>
<polygon fill="#63b8ff" stroke="#63b8ff" points="2208.46,-84.57 2210.46,-74.17 2202.41,-81.05 2208.46,-84.57"/>
</a>
</g>
</g>
<!-- Node48 -->
<g id="Node000048" class="node">
<title>Node48</title>
<g id="a_Node000048"><a xlink:title=" ">
<polygon fill="#e0e0e0" stroke="#999999" points="295,-206 176,-206 176,-176 295,-176 295,-206"/>
<text text-anchor="start" x="184" y="-194" font-family="Helvetica,sans-Serif" font-size="10.00">device_load_uniform</text>
<text text-anchor="middle" x="235.5" y="-183" font-family="Helvetica,sans-Serif" font-size="10.00">_decl.h</text>
</a>
</g>
</g>
<!-- Node47&#45;&gt;Node48 -->
<g id="edge51_Node000047_Node000048" class="edge">
<title>Node47&#45;&gt;Node48</title>
<g id="a_edge51_Node000047_Node000048"><a xlink:title=" ">
<path fill="none" stroke="#63b8ff" d="M175.83,-241.87C184.98,-234.22 198.69,-222.76 210.67,-212.75"/>
<polygon fill="#63b8ff" stroke="#63b8ff" points="213.18,-215.21 218.61,-206.11 208.69,-209.84 213.18,-215.21"/>
</a>
</g>
</g>
<!-- Node49 -->
<g id="Node000049" class="node">
<title>Node49</title>
<g id="a_Node000049"><a xlink:title=" ">
<polygon fill="#e0e0e0" stroke="#999999" points="157.5,-206 35.5,-206 35.5,-176 157.5,-176 157.5,-206"/>
<text text-anchor="start" x="43.5" y="-194" font-family="Helvetica,sans-Serif" font-size="10.00">device_store_uniform</text>
<text text-anchor="middle" x="96.5" y="-183" font-family="Helvetica,sans-Serif" font-size="10.00">_decl.h</text>
</a>
</g>
</g>
<!-- Node47&#45;&gt;Node49 -->
<g id="edge52_Node000047_Node000049" class="edge">
<title>Node47&#45;&gt;Node49</title>
<g id="a_edge52_Node000047_Node000049"><a xlink:title=" ">
<path fill="none" stroke="#63b8ff" d="M155.32,-241.87C146.3,-234.22 132.78,-222.76 120.97,-212.75"/>
<polygon fill="#63b8ff" stroke="#63b8ff" points="123.04,-209.91 113.15,-206.11 118.51,-215.25 123.04,-209.91"/>
</a>
</g>
</g>
</g>
</svg>
