<?xml version="1.0" encoding="UTF-8" standalone="no"?>
<!DOCTYPE svg PUBLIC "-//W3C//DTD SVG 1.1//EN"
 "http://www.w3.org/Graphics/SVG/1.1/DTD/svg11.dtd">
<!-- Generated by graphviz version 2.43.0 (0)
 -->
<!-- Title: src/utils/memory.cc Pages: 1 -->
<svg width="2447pt" height="434pt"
 viewBox="0.00 0.00 2447.27 434.00" xmlns="http://www.w3.org/2000/svg" xmlns:xlink="http://www.w3.org/1999/xlink">
<g id="graph0" class="graph" transform="scale(1 1) rotate(0) translate(4 430)">
<title>src/utils/memory.cc</title>
<!-- Node1 -->
<g id="Node000001" class="node">
<title>Node1</title>
<g id="a_Node000001"><a xlink:title=" ">
<polygon fill="#999999" stroke="#666666" points="2421,-426 2310,-426 2310,-407 2421,-407 2421,-426"/>
<text text-anchor="middle" x="2365.5" y="-414" font-family="Helvetica,sans-Serif" font-size="10.00">src/utils/memory.cc</text>
</a>
</g>
</g>
<!-- Node2 -->
<g id="Node000002" class="node">
<title>Node2</title>
<g id="a_Node000002"><a xlink:href="astaroth__utils_8h.html" target="_top" xlink:title="Functions for loading and updating AcMeshInfo.">
<polygon fill="white" stroke="#666666" points="1790.5,-371 1698.5,-371 1698.5,-352 1790.5,-352 1790.5,-371"/>
<text text-anchor="middle" x="1744.5" y="-359" font-family="Helvetica,sans-Serif" font-size="10.00">astaroth_utils.h</text>
</a>
</g>
</g>
<!-- Node1&#45;&gt;Node2 -->
<g id="edge1_Node000001_Node000002" class="edge">
<title>Node1&#45;&gt;Node2</title>
<g id="a_edge1_Node000001_Node000002"><a xlink:title=" ">
<path fill="none" stroke="#63b8ff" d="M2309.84,-410.75C2192.23,-400.71 1919.51,-377.44 1801.08,-367.33"/>
<polygon fill="#63b8ff" stroke="#63b8ff" points="1801.05,-363.81 1790.79,-366.45 1800.46,-370.79 1801.05,-363.81"/>
</a>
</g>
</g>
<!-- Node20 -->
<g id="Node000020" class="node">
<title>Node20</title>
<g id="a_Node000020"><a xlink:href="errchk_8h.html" target="_top" xlink:title="Brief info.">
<polygon fill="white" stroke="#666666" points="2334.5,-134.5 2278.5,-134.5 2278.5,-115.5 2334.5,-115.5 2334.5,-134.5"/>
<text text-anchor="middle" x="2306.5" y="-122.5" font-family="Helvetica,sans-Serif" font-size="10.00">errchk.h</text>
</a>
</g>
</g>
<!-- Node1&#45;&gt;Node20 -->
<g id="edge63_Node000001_Node000020" class="edge">
<title>Node1&#45;&gt;Node20</title>
<g id="a_edge63_Node000001_Node000020"><a xlink:title=" ">
<path fill="none" stroke="#63b8ff" d="M2376.91,-406.77C2397.44,-389.98 2438.5,-350.95 2438.5,-307.5 2438.5,-307.5 2438.5,-307.5 2438.5,-250.5 2438.5,-216.33 2441.56,-202.09 2419.5,-176 2400.51,-153.54 2369.44,-140.8 2344.69,-133.8"/>
<polygon fill="#63b8ff" stroke="#63b8ff" points="2345.42,-130.38 2334.86,-131.23 2343.65,-137.15 2345.42,-130.38"/>
</a>
</g>
</g>
<!-- Node43 -->
<g id="Node000043" class="node">
<title>Node43</title>
<g id="a_Node000043"><a xlink:title=" ">
<polygon fill="#e0e0e0" stroke="#999999" points="2410,-206 2279,-206 2279,-176 2410,-176 2410,-206"/>
<text text-anchor="start" x="2287" y="-194" font-family="Helvetica,sans-Serif" font-size="10.00">user_builtin_non_scalar</text>
<text text-anchor="middle" x="2344.5" y="-183" font-family="Helvetica,sans-Serif" font-size="10.00">_constants.inc</text>
</a>
</g>
</g>
<!-- Node1&#45;&gt;Node43 -->
<g id="edge62_Node000001_Node000043" class="edge">
<title>Node1&#45;&gt;Node43</title>
<g id="a_edge62_Node000001_Node000043"><a xlink:title=" ">
<path fill="none" stroke="#63b8ff" d="M2364.68,-406.74C2361.69,-375 2351.39,-265.33 2346.77,-216.17"/>
<polygon fill="#63b8ff" stroke="#63b8ff" points="2350.25,-215.74 2345.83,-206.12 2343.28,-216.4 2350.25,-215.74"/>
</a>
</g>
</g>
<!-- Node3 -->
<g id="Node000003" class="node">
<title>Node3</title>
<g id="a_Node000003"><a xlink:href="astaroth_8h.html" target="_top" xlink:title=" ">
<polygon fill="white" stroke="#666666" points="1737.5,-316 1671.5,-316 1671.5,-297 1737.5,-297 1737.5,-316"/>
<text text-anchor="middle" x="1704.5" y="-304" font-family="Helvetica,sans-Serif" font-size="10.00">astaroth.h</text>
</a>
</g>
</g>
<!-- Node2&#45;&gt;Node3 -->
<g id="edge2_Node000002_Node000003" class="edge">
<title>Node2&#45;&gt;Node3</title>
<g id="a_edge2_Node000002_Node000003"><a xlink:title=" ">
<path fill="none" stroke="#63b8ff" d="M1737.89,-351.75C1732.24,-344.26 1723.96,-333.28 1717.05,-324.13"/>
<polygon fill="#63b8ff" stroke="#63b8ff" points="1719.8,-321.96 1710.98,-316.09 1714.21,-326.18 1719.8,-321.96"/>
</a>
</g>
</g>
<!-- Node56 -->
<g id="Node000056" class="node">
<title>Node56</title>
<g id="a_Node000056"><a xlink:title=" ">
<polygon fill="#e0e0e0" stroke="#999999" points="1811.5,-316 1755.5,-316 1755.5,-297 1811.5,-297 1811.5,-316"/>
<text text-anchor="middle" x="1783.5" y="-304" font-family="Helvetica,sans-Serif" font-size="10.00">stdarg.h</text>
</a>
</g>
</g>
<!-- Node2&#45;&gt;Node56 -->
<g id="edge60_Node000002_Node000056" class="edge">
<title>Node2&#45;&gt;Node56</title>
<g id="a_edge60_Node000002_Node000056"><a xlink:title=" ">
<path fill="none" stroke="#63b8ff" d="M1750.94,-351.75C1756.39,-344.34 1764.36,-333.5 1771.06,-324.41"/>
<polygon fill="#63b8ff" stroke="#63b8ff" points="1774.07,-326.22 1777.18,-316.09 1768.43,-322.07 1774.07,-326.22"/>
</a>
</g>
</g>
<!-- Node57 -->
<g id="Node000057" class="node">
<title>Node57</title>
<g id="a_Node000057"><a xlink:href="astaroth__lib_8h.html" target="_top" xlink:title=" ">
<polygon fill="white" stroke="#666666" points="1653,-316 1570,-316 1570,-297 1653,-297 1653,-316"/>
<text text-anchor="middle" x="1611.5" y="-304" font-family="Helvetica,sans-Serif" font-size="10.00">astaroth_lib.h</text>
</a>
</g>
</g>
<!-- Node2&#45;&gt;Node57 -->
<g id="edge61_Node000002_Node000057" class="edge">
<title>Node2&#45;&gt;Node57</title>
<g id="a_edge61_Node000002_Node000057"><a xlink:title=" ">
<path fill="none" stroke="#63b8ff" d="M1723.13,-351.98C1701.35,-343.3 1667.34,-329.75 1642.58,-319.88"/>
<polygon fill="#63b8ff" stroke="#63b8ff" points="1643.84,-316.62 1633.26,-316.17 1641.25,-323.12 1643.84,-316.62"/>
</a>
</g>
</g>
<!-- Node4 -->
<g id="Node000004" class="node">
<title>Node4</title>
<g id="a_Node000004"><a xlink:href="astaroth__base_8h.html" target="_top" xlink:title=" ">
<polygon fill="white" stroke="#666666" points="2229,-261 2134,-261 2134,-242 2229,-242 2229,-261"/>
<text text-anchor="middle" x="2181.5" y="-249" font-family="Helvetica,sans-Serif" font-size="10.00">astaroth_base.h</text>
</a>
</g>
</g>
<!-- Node3&#45;&gt;Node4 -->
<g id="edge3_Node000003_Node000004" class="edge">
<title>Node3&#45;&gt;Node4</title>
<g id="a_edge3_Node000003_Node000004"><a xlink:title=" ">
<path fill="none" stroke="#63b8ff" d="M1737.91,-298.41C1740.81,-297.89 1743.7,-297.41 1746.5,-297 1910.69,-272.66 1955.86,-281.35 2123.94,-261.13"/>
<polygon fill="#63b8ff" stroke="#63b8ff" points="2124.36,-264.6 2133.87,-259.92 2123.52,-257.65 2124.36,-264.6"/>
</a>
</g>
</g>
<!-- Node44 -->
<g id="Node000044" class="node">
<title>Node44</title>
<g id="a_Node000044"><a xlink:href="astaroth__grid_8h.html" target="_top" xlink:title=" ">
<polygon fill="white" stroke="#666666" points="2337.5,-261 2247.5,-261 2247.5,-242 2337.5,-242 2337.5,-261"/>
<text text-anchor="middle" x="2292.5" y="-249" font-family="Helvetica,sans-Serif" font-size="10.00">astaroth_grid.h</text>
</a>
</g>
</g>
<!-- Node3&#45;&gt;Node44 -->
<g id="edge48_Node000003_Node000044" class="edge">
<title>Node3&#45;&gt;Node44</title>
<g id="a_edge48_Node000003_Node000044"><a xlink:title=" ">
<path fill="none" stroke="#63b8ff" d="M1737.91,-298.34C1740.8,-297.84 1743.7,-297.38 1746.5,-297 1960.43,-267.65 2018.93,-285.51 2237.27,-261.04"/>
<polygon fill="#63b8ff" stroke="#63b8ff" points="2237.92,-264.49 2247.46,-259.88 2237.13,-257.53 2237.92,-264.49"/>
</a>
</g>
</g>
<!-- Node45 -->
<g id="Node000045" class="node">
<title>Node45</title>
<g id="a_Node000045"><a xlink:href="astaroth__node_8h.html" target="_top" xlink:title=" ">
<polygon fill="white" stroke="#666666" points="950,-261 855,-261 855,-242 950,-242 950,-261"/>
<text text-anchor="middle" x="902.5" y="-249" font-family="Helvetica,sans-Serif" font-size="10.00">astaroth_node.h</text>
</a>
</g>
</g>
<!-- Node3&#45;&gt;Node45 -->
<g id="edge49_Node000003_Node000045" class="edge">
<title>Node3&#45;&gt;Node45</title>
<g id="a_edge49_Node000003_Node000045"><a xlink:title=" ">
<path fill="none" stroke="#63b8ff" d="M1671.1,-298.28C1668.2,-297.79 1665.3,-297.35 1662.5,-297 1355.44,-258.28 1272.58,-291.38 960.3,-260.96"/>
<polygon fill="#63b8ff" stroke="#63b8ff" points="960.34,-257.44 950.04,-259.94 959.65,-264.41 960.34,-257.44"/>
</a>
</g>
</g>
<!-- Node46 -->
<g id="Node000046" class="node">
<title>Node46</title>
<g id="a_Node000046"><a xlink:href="astaroth__device_8h.html" target="_top" xlink:title=" ">
<polygon fill="white" stroke="#666666" points="1072.5,-261 968.5,-261 968.5,-242 1072.5,-242 1072.5,-261"/>
<text text-anchor="middle" x="1020.5" y="-249" font-family="Helvetica,sans-Serif" font-size="10.00">astaroth_device.h</text>
</a>
</g>
</g>
<!-- Node3&#45;&gt;Node46 -->
<g id="edge50_Node000003_Node000046" class="edge">
<title>Node3&#45;&gt;Node46</title>
<g id="a_edge50_Node000003_Node000046"><a xlink:title=" ">
<path fill="none" stroke="#63b8ff" d="M1671.1,-298.31C1668.2,-297.82 1665.3,-297.37 1662.5,-297 1409.25,-263.69 1340.65,-286.28 1082.76,-261.04"/>
<polygon fill="#63b8ff" stroke="#63b8ff" points="1083.01,-257.55 1072.71,-260.04 1082.32,-264.51 1083.01,-257.55"/>
</a>
</g>
</g>
<!-- Node49 -->
<g id="Node000049" class="node">
<title>Node49</title>
<g id="a_Node000049"><a xlink:href="astaroth__legacy_8h.html" target="_top" xlink:title=" ">
<polygon fill="white" stroke="#666666" points="1192.5,-261 1090.5,-261 1090.5,-242 1192.5,-242 1192.5,-261"/>
<text text-anchor="middle" x="1141.5" y="-249" font-family="Helvetica,sans-Serif" font-size="10.00">astaroth_legacy.h</text>
</a>
</g>
</g>
<!-- Node3&#45;&gt;Node49 -->
<g id="edge53_Node000003_Node000049" class="edge">
<title>Node3&#45;&gt;Node49</title>
<g id="a_edge53_Node000003_Node000049"><a xlink:title=" ">
<path fill="none" stroke="#63b8ff" d="M1671.09,-298.36C1668.19,-297.85 1665.3,-297.39 1662.5,-297 1462.68,-269.07 1408.12,-282.7 1202.93,-260.96"/>
<polygon fill="#63b8ff" stroke="#63b8ff" points="1203.04,-257.46 1192.73,-259.87 1202.3,-264.42 1203.04,-257.46"/>
</a>
</g>
</g>
<!-- Node50 -->
<g id="Node000050" class="node">
<title>Node50</title>
<g id="a_Node000050"><a xlink:title=" ">
<polygon fill="#e0e0e0" stroke="#999999" points="1358,-261 1211,-261 1211,-242 1358,-242 1358,-261"/>
<text text-anchor="middle" x="1284.5" y="-249" font-family="Helvetica,sans-Serif" font-size="10.00">device_set_input_decls.inc</text>
</a>
</g>
</g>
<!-- Node3&#45;&gt;Node50 -->
<g id="edge54_Node000003_Node000050" class="edge">
<title>Node3&#45;&gt;Node50</title>
<g id="a_edge54_Node000003_Node000050"><a xlink:title=" ">
<path fill="none" stroke="#63b8ff" d="M1671.07,-298.48C1668.18,-297.95 1665.29,-297.45 1662.5,-297 1607.65,-288.24 1461.81,-271.79 1368.15,-261.53"/>
<polygon fill="#63b8ff" stroke="#63b8ff" points="1368.45,-258.04 1358.13,-260.44 1367.69,-265 1368.45,-258.04"/>
</a>
</g>
</g>
<!-- Node51 -->
<g id="Node000051" class="node">
<title>Node51</title>
<g id="a_Node000051"><a xlink:title=" ">
<polygon fill="#e0e0e0" stroke="#999999" points="1531,-261 1376,-261 1376,-242 1531,-242 1531,-261"/>
<text text-anchor="middle" x="1453.5" y="-249" font-family="Helvetica,sans-Serif" font-size="10.00">device_get_output_decls.inc</text>
</a>
</g>
</g>
<!-- Node3&#45;&gt;Node51 -->
<g id="edge55_Node000003_Node000051" class="edge">
<title>Node3&#45;&gt;Node51</title>
<g id="a_edge55_Node000003_Node000051"><a xlink:title=" ">
<path fill="none" stroke="#63b8ff" d="M1671.43,-298.52C1628.71,-289.5 1553.94,-273.71 1504.07,-263.18"/>
<polygon fill="#63b8ff" stroke="#63b8ff" points="1504.64,-259.72 1494.13,-261.08 1503.19,-266.57 1504.64,-259.72"/>
</a>
</g>
</g>
<!-- Node52 -->
<g id="Node000052" class="node">
<title>Node52</title>
<g id="a_Node000052"><a xlink:title=" ">
<polygon fill="#e0e0e0" stroke="#999999" points="1697.5,-261 1549.5,-261 1549.5,-242 1697.5,-242 1697.5,-261"/>
<text text-anchor="middle" x="1623.5" y="-249" font-family="Helvetica,sans-Serif" font-size="10.00">device_get_input_decls.inc</text>
</a>
</g>
</g>
<!-- Node3&#45;&gt;Node52 -->
<g id="edge56_Node000003_Node000052" class="edge">
<title>Node3&#45;&gt;Node52</title>
<g id="a_edge56_Node000003_Node000052"><a xlink:title=" ">
<path fill="none" stroke="#63b8ff" d="M1691.49,-296.98C1679.04,-288.84 1660.04,-276.41 1645.29,-266.76"/>
<polygon fill="#63b8ff" stroke="#63b8ff" points="1647.04,-263.72 1636.75,-261.17 1643.2,-269.57 1647.04,-263.72"/>
</a>
</g>
</g>
<!-- Node53 -->
<g id="Node000053" class="node">
<title>Node53</title>
<g id="a_Node000053"><a xlink:title=" ">
<polygon fill="#e0e0e0" stroke="#999999" points="1853.5,-261 1715.5,-261 1715.5,-242 1853.5,-242 1853.5,-261"/>
<text text-anchor="middle" x="1784.5" y="-249" font-family="Helvetica,sans-Serif" font-size="10.00">get_vtxbufs_declares.inc</text>
</a>
</g>
</g>
<!-- Node3&#45;&gt;Node53 -->
<g id="edge57_Node000003_Node000053" class="edge">
<title>Node3&#45;&gt;Node53</title>
<g id="a_edge57_Node000003_Node000053"><a xlink:title=" ">
<path fill="none" stroke="#63b8ff" d="M1717.35,-296.98C1729.64,-288.84 1748.41,-276.41 1762.98,-266.76"/>
<polygon fill="#63b8ff" stroke="#63b8ff" points="1765.01,-269.61 1771.41,-261.17 1761.14,-263.78 1765.01,-269.61"/>
</a>
</g>
</g>
<!-- Node54 -->
<g id="Node000054" class="node">
<title>Node54</title>
<g id="a_Node000054"><a xlink:href="astaroth__runtime__compilation_8h.html" target="_top" xlink:title=" ">
<polygon fill="white" stroke="#666666" points="2045,-261 1872,-261 1872,-242 2045,-242 2045,-261"/>
<text text-anchor="middle" x="1958.5" y="-249" font-family="Helvetica,sans-Serif" font-size="10.00">astaroth_runtime_compilation.h</text>
</a>
</g>
</g>
<!-- Node3&#45;&gt;Node54 -->
<g id="edge58_Node000003_Node000054" class="edge">
<title>Node3&#45;&gt;Node54</title>
<g id="a_edge58_Node000003_Node000054"><a xlink:title=" ">
<path fill="none" stroke="#63b8ff" d="M1737.71,-298.57C1780.98,-289.54 1857.09,-273.66 1907.66,-263.11"/>
<polygon fill="#63b8ff" stroke="#63b8ff" points="1908.65,-266.48 1917.73,-261.01 1907.22,-259.62 1908.65,-266.48"/>
</a>
</g>
</g>
<!-- Node55 -->
<g id="Node000055" class="node">
<title>Node55</title>
<g id="a_Node000055"><a xlink:title=" ">
<polygon fill="#e0e0e0" stroke="#999999" points="2116,-261 2063,-261 2063,-242 2116,-242 2116,-261"/>
<text text-anchor="middle" x="2089.5" y="-249" font-family="Helvetica,sans-Serif" font-size="10.00">string.h</text>
</a>
</g>
</g>
<!-- Node3&#45;&gt;Node55 -->
<g id="edge59_Node000003_Node000055" class="edge">
<title>Node3&#45;&gt;Node55</title>
<g id="a_edge59_Node000003_Node000055"><a xlink:title=" ">
<path fill="none" stroke="#63b8ff" d="M1737.93,-298.47C1740.82,-297.94 1743.71,-297.44 1746.5,-297 1879.41,-275.82 1917.09,-284.86 2052.87,-261.1"/>
<polygon fill="#63b8ff" stroke="#63b8ff" points="2053.58,-264.53 2062.82,-259.33 2052.36,-257.64 2053.58,-264.53"/>
</a>
</g>
</g>
<!-- Node5 -->
<g id="Node000005" class="node">
<title>Node5</title>
<g id="a_Node000005"><a xlink:title=" ">
<polygon fill="#e0e0e0" stroke="#999999" points="2124.5,-74 2062.5,-74 2062.5,-55 2124.5,-55 2124.5,-74"/>
<text text-anchor="middle" x="2093.5" y="-62" font-family="Helvetica,sans-Serif" font-size="10.00">stdbool.h</text>
</a>
</g>
</g>
<!-- Node4&#45;&gt;Node5 -->
<g id="edge4_Node000004_Node000005" class="edge">
<title>Node4&#45;&gt;Node5</title>
<g id="a_edge4_Node000004_Node000005"><a xlink:title=" ">
<path fill="none" stroke="#63b8ff" d="M2189.76,-241.79C2210.89,-218.45 2263.05,-153.32 2231.5,-110 2225.57,-101.85 2173.03,-86.48 2134.53,-76.11"/>
<polygon fill="#63b8ff" stroke="#63b8ff" points="2135.15,-72.65 2124.59,-73.46 2133.35,-79.42 2135.15,-72.65"/>
</a>
</g>
</g>
<!-- Node6 -->
<g id="Node000006" class="node">
<title>Node6</title>
<g id="a_Node000006"><a xlink:href="acc__runtime_8h.html" target="_top" xlink:title=" ">
<polygon fill="#fff0f0" stroke="red" points="1397.5,-200.5 1311.5,-200.5 1311.5,-181.5 1397.5,-181.5 1397.5,-200.5"/>
<text text-anchor="middle" x="1354.5" y="-188.5" font-family="Helvetica,sans-Serif" font-size="10.00">acc_runtime.h</text>
</a>
</g>
</g>
<!-- Node4&#45;&gt;Node6 -->
<g id="edge5_Node000004_Node000006" class="edge">
<title>Node4&#45;&gt;Node6</title>
<g id="a_edge5_Node000004_Node000006"><a xlink:title=" ">
<path fill="none" stroke="#63b8ff" d="M2133.88,-242.99C2131.05,-242.63 2128.24,-242.3 2125.5,-242 1856.67,-212.94 1533.15,-198.64 1407.76,-193.88"/>
<polygon fill="#63b8ff" stroke="#63b8ff" points="1407.79,-190.38 1397.66,-193.5 1407.52,-197.37 1407.79,-190.38"/>
</a>
</g>
</g>
<!-- Node26 -->
<g id="Node000026" class="node">
<title>Node26</title>
<g id="a_Node000026"><a xlink:title=" ">
<polygon fill="#e0e0e0" stroke="#999999" points="147,-134.5 0,-134.5 0,-115.5 147,-115.5 147,-134.5"/>
<text text-anchor="middle" x="73.5" y="-122.5" font-family="Helvetica,sans-Serif" font-size="10.00">user_built&#45;in_constants.inc</text>
</a>
</g>
</g>
<!-- Node4&#45;&gt;Node26 -->
<g id="edge46_Node000004_Node000026" class="edge">
<title>Node4&#45;&gt;Node26</title>
<g id="a_edge46_Node000004_Node000026"><a xlink:title=" ">
<path fill="none" stroke="#63b8ff" d="M2133.88,-242.92C2131.05,-242.58 2128.24,-242.27 2125.5,-242 1761.1,-206.48 1665.76,-251.74 1302.5,-206 1238.07,-197.89 1223.96,-183.89 1159.5,-176 728.64,-123.25 616.12,-175.44 183.5,-140 170.35,-138.92 156.36,-137.42 142.92,-135.79"/>
<polygon fill="#63b8ff" stroke="#63b8ff" points="143.12,-132.29 132.77,-134.53 142.26,-139.24 143.12,-132.29"/>
</a>
</g>
</g>
<!-- Node40 -->
<g id="Node000040" class="node">
<title>Node40</title>
<g id="a_Node000040"><a xlink:href="func__define_8h.html" target="_top" xlink:title=" ">
<polygon fill="white" stroke="#666666" points="2222.5,-134.5 2140.5,-134.5 2140.5,-115.5 2222.5,-115.5 2222.5,-134.5"/>
<text text-anchor="middle" x="2181.5" y="-122.5" font-family="Helvetica,sans-Serif" font-size="10.00">func_define.h</text>
</a>
</g>
</g>
<!-- Node4&#45;&gt;Node40 -->
<g id="edge45_Node000004_Node000040" class="edge">
<title>Node4&#45;&gt;Node40</title>
<g id="a_edge45_Node000004_Node000040"><a xlink:title=" ">
<path fill="none" stroke="#63b8ff" d="M2181.5,-241.94C2181.5,-222.04 2181.5,-172.26 2181.5,-144.85"/>
<polygon fill="#63b8ff" stroke="#63b8ff" points="2185,-144.62 2181.5,-134.62 2178,-144.62 2185,-144.62"/>
</a>
</g>
</g>
<!-- Node4&#45;&gt;Node43 -->
<g id="edge47_Node000004_Node000043" class="edge">
<title>Node4&#45;&gt;Node43</title>
<g id="a_edge47_Node000004_Node000043"><a xlink:title=" ">
<path fill="none" stroke="#63b8ff" d="M2205.2,-241.99C2228.86,-233.5 2265.92,-220.2 2295.87,-209.45"/>
<polygon fill="#63b8ff" stroke="#63b8ff" points="2297.08,-212.74 2305.31,-206.06 2294.72,-206.15 2297.08,-212.74"/>
</a>
</g>
</g>
<!-- Node6&#45;&gt;Node5 -->
<g id="edge7_Node000006_Node000005" class="edge">
<title>Node6&#45;&gt;Node5</title>
<g id="a_edge7_Node000006_Node000005"><a xlink:title=" ">
<path fill="none" stroke="#63b8ff" d="M1397.89,-188.83C1538.91,-184.74 1978.41,-169.72 2034.5,-140 2058.01,-127.55 2075.31,-101.22 2084.9,-83.44"/>
<polygon fill="#63b8ff" stroke="#63b8ff" points="2088.1,-84.86 2089.53,-74.36 2081.87,-81.68 2088.1,-84.86"/>
</a>
</g>
</g>
<!-- Node7 -->
<g id="Node000007" class="node">
<title>Node7</title>
<g id="a_Node000007"><a xlink:title=" ">
<polygon fill="#e0e0e0" stroke="#999999" points="2192.5,-74 2142.5,-74 2142.5,-55 2192.5,-55 2192.5,-74"/>
<text text-anchor="middle" x="2167.5" y="-62" font-family="Helvetica,sans-Serif" font-size="10.00">stdio.h</text>
</a>
</g>
</g>
<!-- Node6&#45;&gt;Node7 -->
<g id="edge6_Node000006_Node000007" class="edge">
<title>Node6&#45;&gt;Node7</title>
<g id="a_edge6_Node000006_Node000007"><a xlink:title=" ">
<path fill="none" stroke="#63b8ff" d="M1397.87,-190.04C1532.39,-189.69 1940.94,-184.86 2064.5,-140 2099.2,-127.4 2132.52,-99.47 2151.46,-81.61"/>
<polygon fill="#63b8ff" stroke="#63b8ff" points="2154.12,-83.9 2158.87,-74.43 2149.26,-78.87 2154.12,-83.9"/>
</a>
</g>
</g>
<!-- Node8 -->
<g id="Node000008" class="node">
<title>Node8</title>
<g id="a_Node000008"><a xlink:href="device__headers_8h.html" target="_top" xlink:title=" ">
<polygon fill="white" stroke="#666666" points="1733.5,-74 1631.5,-74 1631.5,-55 1733.5,-55 1733.5,-74"/>
<text text-anchor="middle" x="1682.5" y="-62" font-family="Helvetica,sans-Serif" font-size="10.00">device_headers.h</text>
</a>
</g>
</g>
<!-- Node6&#45;&gt;Node8 -->
<g id="edge8_Node000006_Node000008" class="edge">
<title>Node6&#45;&gt;Node8</title>
<g id="a_edge8_Node000006_Node000008"><a xlink:title=" ">
<path fill="none" stroke="#63b8ff" d="M1397.8,-190.06C1538.39,-189.82 1975.41,-185.39 2017.5,-140 2026.57,-130.22 2026.29,-120.03 2017.5,-110 2013.02,-104.88 1839.15,-83.82 1743.72,-72.6"/>
<polygon fill="#63b8ff" stroke="#63b8ff" points="1743.95,-69.11 1733.61,-71.42 1743.14,-76.06 1743.95,-69.11"/>
</a>
</g>
</g>
<!-- Node11 -->
<g id="Node000011" class="node">
<title>Node11</title>
<g id="a_Node000011"><a xlink:title=" ">
<polygon fill="#e0e0e0" stroke="#999999" points="256,-74 161,-74 161,-55 256,-55 256,-74"/>
<text text-anchor="middle" x="208.5" y="-62" font-family="Helvetica,sans-Serif" font-size="10.00">builtin_enums.h</text>
</a>
</g>
</g>
<!-- Node6&#45;&gt;Node11 -->
<g id="edge11_Node000006_Node000011" class="edge">
<title>Node6&#45;&gt;Node11</title>
<g id="a_edge11_Node000006_Node000011"><a xlink:title=" ">
<path fill="none" stroke="#63b8ff" d="M1314.96,-181.46C1303.57,-179.32 1291.09,-177.27 1279.5,-176 1219.55,-169.45 236.43,-183.35 194.5,-140 179.97,-124.98 188.86,-99.92 197.7,-83.06"/>
<polygon fill="#63b8ff" stroke="#63b8ff" points="200.82,-84.64 202.72,-74.22 194.74,-81.18 200.82,-84.64"/>
</a>
</g>
</g>
<!-- Node12 -->
<g id="Node000012" class="node">
<title>Node12</title>
<g id="a_Node000012"><a xlink:href="datatypes_8h.html" target="_top" xlink:title=" ">
<polygon fill="#fff0f0" stroke="red" points="277.5,-134.5 203.5,-134.5 203.5,-115.5 277.5,-115.5 277.5,-134.5"/>
<text text-anchor="middle" x="240.5" y="-122.5" font-family="Helvetica,sans-Serif" font-size="10.00">datatypes.h</text>
</a>
</g>
</g>
<!-- Node6&#45;&gt;Node12 -->
<g id="edge12_Node000006_Node000012" class="edge">
<title>Node6&#45;&gt;Node12</title>
<g id="a_edge12_Node000006_Node000012"><a xlink:title=" ">
<path fill="none" stroke="#63b8ff" d="M1314.96,-181.48C1303.57,-179.34 1291.09,-177.28 1279.5,-176 840.56,-127.35 722.06,-212.9 286.5,-140 282.54,-139.34 278.44,-138.43 274.4,-137.39"/>
<polygon fill="#63b8ff" stroke="#63b8ff" points="275.14,-133.96 264.57,-134.61 273.24,-140.7 275.14,-133.96"/>
</a>
</g>
</g>
<!-- Node6&#45;&gt;Node20 -->
<g id="edge20_Node000006_Node000020" class="edge">
<title>Node6&#45;&gt;Node20</title>
<g id="a_edge20_Node000006_Node000020"><a xlink:title=" ">
<path fill="none" stroke="#63b8ff" d="M1397.56,-189.49C1525.26,-187.55 1912.82,-178.67 2231.5,-140 2243.6,-138.53 2256.7,-136.31 2268.51,-134.07"/>
<polygon fill="#63b8ff" stroke="#63b8ff" points="2269.36,-137.47 2278.5,-132.11 2268.01,-130.6 2269.36,-137.47"/>
</a>
</g>
</g>
<!-- Node24 -->
<g id="Node000024" class="node">
<title>Node24</title>
<g id="a_Node000024"><a xlink:title=" ">
<polygon fill="#e0e0e0" stroke="#999999" points="391,-134.5 296,-134.5 296,-115.5 391,-115.5 391,-134.5"/>
<text text-anchor="middle" x="343.5" y="-122.5" font-family="Helvetica,sans-Serif" font-size="10.00">user_defines.inc</text>
</a>
</g>
</g>
<!-- Node6&#45;&gt;Node24 -->
<g id="edge29_Node000006_Node000024" class="edge">
<title>Node6&#45;&gt;Node24</title>
<g id="a_edge29_Node000006_Node000024"><a xlink:title=" ">
<path fill="none" stroke="#63b8ff" d="M1314.57,-181.45C1303.28,-179.33 1290.95,-177.3 1279.5,-176 890.99,-132.01 787.62,-194.9 400.5,-140 394.95,-139.21 389.16,-138.12 383.48,-136.88"/>
<polygon fill="#63b8ff" stroke="#63b8ff" points="383.99,-133.41 373.45,-134.55 382.4,-140.23 383.99,-133.41"/>
</a>
</g>
</g>
<!-- Node25 -->
<g id="Node000025" class="node">
<title>Node25</title>
<g id="a_Node000025"><a xlink:title=" ">
<polygon fill="#e0e0e0" stroke="#999999" points="503.5,-134.5 409.5,-134.5 409.5,-115.5 503.5,-115.5 503.5,-134.5"/>
<text text-anchor="middle" x="456.5" y="-122.5" font-family="Helvetica,sans-Serif" font-size="10.00">profiles_info.inc</text>
</a>
</g>
</g>
<!-- Node6&#45;&gt;Node25 -->
<g id="edge30_Node000006_Node000025" class="edge">
<title>Node6&#45;&gt;Node25</title>
<g id="a_edge30_Node000006_Node000025"><a xlink:title=" ">
<path fill="none" stroke="#63b8ff" d="M1314.56,-181.49C1303.28,-179.37 1290.95,-177.33 1279.5,-176 940.52,-136.6 850.14,-189.63 512.5,-140 507.05,-139.2 501.35,-138.1 495.77,-136.86"/>
<polygon fill="#63b8ff" stroke="#63b8ff" points="496.46,-133.42 485.92,-134.52 494.85,-140.23 496.46,-133.42"/>
</a>
</g>
</g>
<!-- Node6&#45;&gt;Node26 -->
<g id="edge31_Node000006_Node000026" class="edge">
<title>Node6&#45;&gt;Node26</title>
<g id="a_edge31_Node000006_Node000026"><a xlink:title=" ">
<path fill="none" stroke="#63b8ff" d="M1314.97,-181.45C1303.57,-179.31 1291.09,-177.26 1279.5,-176 785.27,-122.23 656.41,-187.15 161.5,-140 151.23,-139.02 140.34,-137.6 129.85,-136.04"/>
<polygon fill="#63b8ff" stroke="#63b8ff" points="130.36,-132.58 119.94,-134.51 129.29,-139.5 130.36,-132.58"/>
</a>
</g>
</g>
<!-- Node27 -->
<g id="Node000027" class="node">
<title>Node27</title>
<g id="a_Node000027"><a xlink:href="func__attributes_8h.html" target="_top" xlink:title=" ">
<polygon fill="white" stroke="#666666" points="621,-134.5 522,-134.5 522,-115.5 621,-115.5 621,-134.5"/>
<text text-anchor="middle" x="571.5" y="-122.5" font-family="Helvetica,sans-Serif" font-size="10.00">func_attributes.h</text>
</a>
</g>
</g>
<!-- Node6&#45;&gt;Node27 -->
<g id="edge32_Node000006_Node000027" class="edge">
<title>Node6&#45;&gt;Node27</title>
<g id="a_edge32_Node000006_Node000027"><a xlink:title=" ">
<path fill="none" stroke="#63b8ff" d="M1314.17,-181.48C1302.98,-179.39 1290.81,-177.36 1279.5,-176 992.25,-141.38 915.75,-182.12 629.5,-140 623.93,-139.18 618.11,-138.08 612.39,-136.85"/>
<polygon fill="#63b8ff" stroke="#63b8ff" points="612.83,-133.36 602.3,-134.53 611.26,-140.18 612.83,-133.36"/>
</a>
</g>
</g>
<!-- Node28 -->
<g id="Node000028" class="node">
<title>Node28</title>
<g id="a_Node000028"><a xlink:title=" ">
<polygon fill="#e0e0e0" stroke="#999999" points="772,-134.5 639,-134.5 639,-115.5 772,-115.5 772,-134.5"/>
<text text-anchor="middle" x="705.5" y="-122.5" font-family="Helvetica,sans-Serif" font-size="10.00">user_input_typedefs.inc</text>
</a>
</g>
</g>
<!-- Node6&#45;&gt;Node28 -->
<g id="edge33_Node000006_Node000028" class="edge">
<title>Node6&#45;&gt;Node28</title>
<g id="a_edge33_Node000006_Node000028"><a xlink:title=" ">
<path fill="none" stroke="#63b8ff" d="M1313.37,-181.46C1302.4,-179.42 1290.54,-177.42 1279.5,-176 1058.97,-147.55 1001.03,-168.45 780.5,-140 772.74,-139 764.57,-137.71 756.59,-136.33"/>
<polygon fill="#63b8ff" stroke="#63b8ff" points="757.09,-132.87 746.63,-134.54 755.85,-139.75 757.09,-132.87"/>
</a>
</g>
</g>
<!-- Node29 -->
<g id="Node000029" class="node">
<title>Node29</title>
<g id="a_Node000029"><a xlink:title=" ">
<polygon fill="#e0e0e0" stroke="#999999" points="881,-134.5 790,-134.5 790,-115.5 881,-115.5 881,-134.5"/>
<text text-anchor="middle" x="835.5" y="-122.5" font-family="Helvetica,sans-Serif" font-size="10.00">output_decl.inc</text>
</a>
</g>
</g>
<!-- Node6&#45;&gt;Node29 -->
<g id="edge34_Node000006_Node000029" class="edge">
<title>Node6&#45;&gt;Node29</title>
<g id="a_edge34_Node000006_Node000029"><a xlink:title=" ">
<path fill="none" stroke="#63b8ff" d="M1312.56,-181.47C1301.82,-179.47 1290.26,-177.5 1279.5,-176 1107.53,-152.04 1061.6,-169.51 890.5,-140 885.66,-139.16 880.61,-138.12 875.63,-136.99"/>
<polygon fill="#63b8ff" stroke="#63b8ff" points="876.12,-133.51 865.58,-134.56 874.48,-140.31 876.12,-133.51"/>
</a>
</g>
</g>
<!-- Node30 -->
<g id="Node000030" class="node">
<title>Node30</title>
<g id="a_Node000030"><a xlink:title=" ">
<polygon fill="#e0e0e0" stroke="#999999" points="1024,-134.5 899,-134.5 899,-115.5 1024,-115.5 1024,-134.5"/>
<text text-anchor="middle" x="961.5" y="-122.5" font-family="Helvetica,sans-Serif" font-size="10.00">comp_loaded_decl.inc</text>
</a>
</g>
</g>
<!-- Node6&#45;&gt;Node30 -->
<g id="edge35_Node000006_Node000030" class="edge">
<title>Node6&#45;&gt;Node30</title>
<g id="a_edge35_Node000006_Node000030"><a xlink:title=" ">
<path fill="none" stroke="#63b8ff" d="M1311.32,-181.64C1300.92,-179.71 1289.82,-177.72 1279.5,-176 1170.5,-157.86 1142.43,-158.55 1033.5,-140 1027.16,-138.92 1020.51,-137.72 1013.93,-136.49"/>
<polygon fill="#63b8ff" stroke="#63b8ff" points="1014.18,-132.98 1003.7,-134.55 1012.87,-139.85 1014.18,-132.98"/>
</a>
</g>
</g>
<!-- Node31 -->
<g id="Node000031" class="node">
<title>Node31</title>
<g id="a_Node000031"><a xlink:title=" ">
<polygon fill="#e0e0e0" stroke="#999999" points="1128.5,-134.5 1042.5,-134.5 1042.5,-115.5 1128.5,-115.5 1128.5,-134.5"/>
<text text-anchor="middle" x="1085.5" y="-122.5" font-family="Helvetica,sans-Serif" font-size="10.00">comp_decl.inc</text>
</a>
</g>
</g>
<!-- Node6&#45;&gt;Node31 -->
<g id="edge36_Node000006_Node000031" class="edge">
<title>Node6&#45;&gt;Node31</title>
<g id="a_edge36_Node000006_Node000031"><a xlink:title=" ">
<path fill="none" stroke="#63b8ff" d="M1315.59,-181.48C1272.08,-171.86 1199.58,-155.5 1137.5,-140 1133.89,-139.1 1130.14,-138.14 1126.38,-137.16"/>
<polygon fill="#63b8ff" stroke="#63b8ff" points="1127.09,-133.72 1116.52,-134.55 1125.3,-140.49 1127.09,-133.72"/>
</a>
</g>
</g>
<!-- Node32 -->
<g id="Node000032" class="node">
<title>Node32</title>
<g id="a_Node000032"><a xlink:title=" ">
<polygon fill="#e0e0e0" stroke="#999999" points="1262.5,-134.5 1146.5,-134.5 1146.5,-115.5 1262.5,-115.5 1262.5,-134.5"/>
<text text-anchor="middle" x="1204.5" y="-122.5" font-family="Helvetica,sans-Serif" font-size="10.00">info_loaded_decl.inc</text>
</a>
</g>
</g>
<!-- Node6&#45;&gt;Node32 -->
<g id="edge37_Node000006_Node000032" class="edge">
<title>Node6&#45;&gt;Node32</title>
<g id="a_edge37_Node000006_Node000032"><a xlink:title=" ">
<path fill="none" stroke="#63b8ff" d="M1334.27,-181.37C1308.55,-170.39 1263.93,-151.36 1234.31,-138.72"/>
<polygon fill="#63b8ff" stroke="#63b8ff" points="1235.46,-135.4 1224.89,-134.7 1232.71,-141.84 1235.46,-135.4"/>
</a>
</g>
</g>
<!-- Node33 -->
<g id="Node000033" class="node">
<title>Node33</title>
<g id="a_Node000033"><a xlink:title=" ">
<polygon fill="#e0e0e0" stroke="#999999" points="1428.5,-134.5 1280.5,-134.5 1280.5,-115.5 1428.5,-115.5 1428.5,-134.5"/>
<text text-anchor="middle" x="1354.5" y="-122.5" font-family="Helvetica,sans-Serif" font-size="10.00">device_mesh_info_decl.inc</text>
</a>
</g>
</g>
<!-- Node6&#45;&gt;Node33 -->
<g id="edge38_Node000006_Node000033" class="edge">
<title>Node6&#45;&gt;Node33</title>
<g id="a_edge38_Node000006_Node000033"><a xlink:title=" ">
<path fill="none" stroke="#63b8ff" d="M1354.5,-181.37C1354.5,-172.16 1354.5,-157.29 1354.5,-145.27"/>
<polygon fill="#63b8ff" stroke="#63b8ff" points="1358,-144.91 1354.5,-134.91 1351,-144.91 1358,-144.91"/>
</a>
</g>
</g>
<!-- Node34 -->
<g id="Node000034" class="node">
<title>Node34</title>
<g id="a_Node000034"><a xlink:title=" ">
<polygon fill="#e0e0e0" stroke="#999999" points="1532,-134.5 1447,-134.5 1447,-115.5 1532,-115.5 1532,-134.5"/>
<text text-anchor="middle" x="1489.5" y="-122.5" font-family="Helvetica,sans-Serif" font-size="10.00">array_decl.inc</text>
</a>
</g>
</g>
<!-- Node6&#45;&gt;Node34 -->
<g id="edge39_Node000006_Node000034" class="edge">
<title>Node6&#45;&gt;Node34</title>
<g id="a_edge39_Node000006_Node000034"><a xlink:title=" ">
<path fill="none" stroke="#63b8ff" d="M1372.71,-181.37C1395.65,-170.49 1435.31,-151.69 1461.97,-139.05"/>
<polygon fill="#63b8ff" stroke="#63b8ff" points="1463.61,-142.15 1471.15,-134.7 1460.62,-135.82 1463.61,-142.15"/>
</a>
</g>
</g>
<!-- Node35 -->
<g id="Node000035" class="node">
<title>Node35</title>
<g id="a_Node000035"><a xlink:title=" ">
<polygon fill="#e0e0e0" stroke="#999999" points="1634.5,-134.5 1550.5,-134.5 1550.5,-115.5 1634.5,-115.5 1634.5,-134.5"/>
<text text-anchor="middle" x="1592.5" y="-122.5" font-family="Helvetica,sans-Serif" font-size="10.00">input_decl.inc</text>
</a>
</g>
</g>
<!-- Node6&#45;&gt;Node35 -->
<g id="edge40_Node000006_Node000035" class="edge">
<title>Node6&#45;&gt;Node35</title>
<g id="a_edge40_Node000006_Node000035"><a xlink:title=" ">
<path fill="none" stroke="#63b8ff" d="M1386.61,-181.48C1423.88,-171.58 1487.17,-154.72 1541.5,-140 1544.84,-139.1 1548.29,-138.16 1551.76,-137.21"/>
<polygon fill="#63b8ff" stroke="#63b8ff" points="1552.77,-140.56 1561.49,-134.55 1550.92,-133.81 1552.77,-140.56"/>
</a>
</g>
</g>
<!-- Node36 -->
<g id="Node000036" class="node">
<title>Node36</title>
<g id="a_Node000036"><a xlink:href="ac__helpers_8h.html" target="_top" xlink:title=" ">
<polygon fill="white" stroke="#666666" points="1730.5,-134.5 1652.5,-134.5 1652.5,-115.5 1730.5,-115.5 1730.5,-134.5"/>
<text text-anchor="middle" x="1691.5" y="-122.5" font-family="Helvetica,sans-Serif" font-size="10.00">ac_helpers.h</text>
</a>
</g>
</g>
<!-- Node6&#45;&gt;Node36 -->
<g id="edge41_Node000006_Node000036" class="edge">
<title>Node6&#45;&gt;Node36</title>
<g id="a_edge41_Node000006_Node000036"><a xlink:title=" ">
<path fill="none" stroke="#63b8ff" d="M1397.89,-184.05C1454.69,-175.9 1557.18,-159.99 1643.5,-140 1647.09,-139.17 1650.82,-138.23 1654.53,-137.23"/>
<polygon fill="#63b8ff" stroke="#63b8ff" points="1655.53,-140.59 1664.23,-134.53 1653.65,-133.84 1655.53,-140.59"/>
</a>
</g>
</g>
<!-- Node37 -->
<g id="Node000037" class="node">
<title>Node37</title>
<g id="a_Node000037"><a xlink:title=" ">
<polygon fill="#e0e0e0" stroke="#999999" points="1866.5,-140 1748.5,-140 1748.5,-110 1866.5,-110 1866.5,-140"/>
<text text-anchor="start" x="1756.5" y="-128" font-family="Helvetica,sans-Serif" font-size="10.00">scalar_reduce_buffer</text>
<text text-anchor="middle" x="1807.5" y="-117" font-family="Helvetica,sans-Serif" font-size="10.00">_defs.inc</text>
</a>
</g>
</g>
<!-- Node6&#45;&gt;Node37 -->
<g id="edge42_Node000006_Node000037" class="edge">
<title>Node6&#45;&gt;Node37</title>
<g id="a_edge42_Node000006_Node000037"><a xlink:title=" ">
<path fill="none" stroke="#63b8ff" d="M1397.67,-185.45C1467.23,-177.88 1608.61,-161.56 1738.11,-140.16"/>
<polygon fill="#63b8ff" stroke="#63b8ff" points="1738.92,-143.57 1748.21,-138.48 1737.77,-136.67 1738.92,-143.57"/>
</a>
</g>
</g>
<!-- Node38 -->
<g id="Node000038" class="node">
<title>Node38</title>
<g id="a_Node000038"><a xlink:title=" ">
<polygon fill="#e0e0e0" stroke="#999999" points="2008,-140 1885,-140 1885,-110 2008,-110 2008,-140"/>
<text text-anchor="start" x="1893" y="-128" font-family="Helvetica,sans-Serif" font-size="10.00">scalar_reduce_buffers</text>
<text text-anchor="middle" x="1946.5" y="-117" font-family="Helvetica,sans-Serif" font-size="10.00">_in_vba.inc</text>
</a>
</g>
</g>
<!-- Node6&#45;&gt;Node38 -->
<g id="edge43_Node000006_Node000038" class="edge">
<title>Node6&#45;&gt;Node38</title>
<g id="a_edge43_Node000006_Node000038"><a xlink:title=" ">
<path fill="none" stroke="#63b8ff" d="M1397.56,-187.32C1485.34,-181.53 1691.43,-166.36 1874.89,-139.98"/>
<polygon fill="#63b8ff" stroke="#63b8ff" points="1875.6,-143.42 1884.99,-138.52 1874.59,-136.49 1875.6,-143.42"/>
</a>
</g>
</g>
<!-- Node6&#45;&gt;Node40 -->
<g id="edge44_Node000006_Node000040" class="edge">
<title>Node6&#45;&gt;Node40</title>
<g id="a_edge44_Node000006_Node000040"><a xlink:title=" ">
<path fill="none" stroke="#63b8ff" d="M1397.91,-189.98C1515.82,-189.34 1851.57,-183.51 2126.5,-140 2131.6,-139.19 2136.92,-138.13 2142.15,-136.95"/>
<polygon fill="#63b8ff" stroke="#63b8ff" points="2143.12,-140.31 2152.02,-134.57 2141.48,-133.51 2143.12,-140.31"/>
</a>
</g>
</g>
<!-- Node9 -->
<g id="Node000009" class="node">
<title>Node9</title>
<g id="a_Node000009"><a xlink:title=" ">
<polygon fill="#e0e0e0" stroke="#999999" points="1080,-19 967,-19 967,0 1080,0 1080,-19"/>
<text text-anchor="middle" x="1023.5" y="-7" font-family="Helvetica,sans-Serif" font-size="10.00">cuda_runtime_api.h</text>
</a>
</g>
</g>
<!-- Node8&#45;&gt;Node9 -->
<g id="edge9_Node000008_Node000009" class="edge">
<title>Node8&#45;&gt;Node9</title>
<g id="a_edge9_Node000008_Node000009"><a xlink:title=" ">
<path fill="none" stroke="#63b8ff" d="M1631.34,-59.39C1513.3,-49.89 1221.96,-26.46 1090.16,-15.86"/>
<polygon fill="#63b8ff" stroke="#63b8ff" points="1090.44,-12.37 1080.19,-15.06 1089.88,-19.35 1090.44,-12.37"/>
</a>
</g>
</g>
<!-- Node10 -->
<g id="Node000010" class="node">
<title>Node10</title>
<g id="a_Node000010"><a xlink:title=" ">
<polygon fill="#e0e0e0" stroke="#999999" points="1720.5,-19 1644.5,-19 1644.5,0 1720.5,0 1720.5,-19"/>
<text text-anchor="middle" x="1682.5" y="-7" font-family="Helvetica,sans-Serif" font-size="10.00">cuda_fp16.h</text>
</a>
</g>
</g>
<!-- Node8&#45;&gt;Node10 -->
<g id="edge10_Node000008_Node000010" class="edge">
<title>Node8&#45;&gt;Node10</title>
<g id="a_edge10_Node000008_Node000010"><a xlink:title=" ">
<path fill="none" stroke="#63b8ff" d="M1682.5,-54.75C1682.5,-47.8 1682.5,-37.85 1682.5,-29.13"/>
<polygon fill="#63b8ff" stroke="#63b8ff" points="1686,-29.09 1682.5,-19.09 1679,-29.09 1686,-29.09"/>
</a>
</g>
</g>
<!-- Node12&#45;&gt;Node8 -->
<g id="edge13_Node000012_Node000008" class="edge">
<title>Node12&#45;&gt;Node8</title>
<g id="a_edge13_Node000012_Node000008"><a xlink:title=" ">
<path fill="none" stroke="#63b8ff" d="M264.57,-115.37C271.55,-113.23 279.25,-111.2 286.5,-110 353.12,-99 1360.94,-73.45 1621.42,-67"/>
<polygon fill="#63b8ff" stroke="#63b8ff" points="1621.55,-70.5 1631.46,-66.75 1621.37,-63.5 1621.55,-70.5"/>
</a>
</g>
</g>
<!-- Node12&#45;&gt;Node9 -->
<g id="edge14_Node000012_Node000009" class="edge">
<title>Node12&#45;&gt;Node9</title>
<g id="a_edge14_Node000012_Node000009"><a xlink:title=" ">
<path fill="none" stroke="#63b8ff" d="M266.1,-115.41C272.69,-113.42 279.81,-111.46 286.5,-110 530.29,-56.81 826.03,-27.22 956.34,-15.91"/>
<polygon fill="#63b8ff" stroke="#63b8ff" points="956.89,-19.38 966.56,-15.04 956.29,-12.41 956.89,-19.38"/>
</a>
</g>
</g>
<!-- Node12&#45;&gt;Node11 -->
<g id="edge16_Node000012_Node000011" class="edge">
<title>Node12&#45;&gt;Node11</title>
<g id="a_edge16_Node000012_Node000011"><a xlink:title=" ">
<path fill="none" stroke="#63b8ff" d="M235.78,-115.37C231.15,-106.9 223.95,-93.74 218.11,-83.07"/>
<polygon fill="#63b8ff" stroke="#63b8ff" points="221.11,-81.26 213.24,-74.17 214.97,-84.62 221.11,-81.26"/>
</a>
</g>
</g>
<!-- Node16 -->
<g id="Node000016" class="node">
<title>Node16</title>
<g id="a_Node000016"><a xlink:href="acreal_8h.html" target="_top" xlink:title=" ">
<polygon fill="white" stroke="#666666" points="1821.5,-19 1765.5,-19 1765.5,0 1821.5,0 1821.5,-19"/>
<text text-anchor="middle" x="1793.5" y="-7" font-family="Helvetica,sans-Serif" font-size="10.00">acreal.h</text>
</a>
</g>
</g>
<!-- Node12&#45;&gt;Node16 -->
<g id="edge15_Node000012_Node000016" class="edge">
<title>Node12&#45;&gt;Node16</title>
<g id="a_edge15_Node000012_Node000016"><a xlink:title=" ">
<path fill="none" stroke="#63b8ff" d="M265.07,-115.37C271.93,-113.28 279.44,-111.28 286.5,-110 602.66,-52.73 1409.72,-50.28 1729.5,-19 1737.83,-18.19 1746.74,-17.12 1755.19,-16.03"/>
<polygon fill="#63b8ff" stroke="#63b8ff" points="1755.75,-19.48 1765.19,-14.69 1754.82,-12.55 1755.75,-19.48"/>
</a>
</g>
</g>
<!-- Node18 -->
<g id="Node000018" class="node">
<title>Node18</title>
<g id="a_Node000018"><a xlink:href="host__datatypes_8h.html" target="_top" xlink:title=" ">
<polygon fill="white" stroke="#666666" points="1872,-74 1771,-74 1771,-55 1872,-55 1872,-74"/>
<text text-anchor="middle" x="1821.5" y="-62" font-family="Helvetica,sans-Serif" font-size="10.00">host_datatypes.h</text>
</a>
</g>
</g>
<!-- Node12&#45;&gt;Node18 -->
<g id="edge17_Node000012_Node000018" class="edge">
<title>Node12&#45;&gt;Node18</title>
<g id="a_edge17_Node000012_Node000018"><a xlink:title=" ">
<path fill="none" stroke="#63b8ff" d="M264.09,-115.49C271.2,-113.28 279.08,-111.2 286.5,-110 606.02,-58.41 1419.55,-95.33 1742.5,-74 1748.41,-73.61 1754.56,-73.11 1760.7,-72.55"/>
<polygon fill="#63b8ff" stroke="#63b8ff" points="1761.36,-76 1770.98,-71.56 1760.69,-69.04 1761.36,-76"/>
</a>
</g>
</g>
<!-- Node18&#45;&gt;Node16 -->
<g id="edge18_Node000018_Node000016" class="edge">
<title>Node18&#45;&gt;Node16</title>
<g id="a_edge18_Node000018_Node000016"><a xlink:title=" ">
<path fill="none" stroke="#63b8ff" d="M1816.88,-54.75C1813.04,-47.49 1807.48,-36.95 1802.74,-27.98"/>
<polygon fill="#63b8ff" stroke="#63b8ff" points="1805.8,-26.3 1798.04,-19.09 1799.61,-29.57 1805.8,-26.3"/>
</a>
</g>
</g>
<!-- Node19 -->
<g id="Node000019" class="node">
<title>Node19</title>
<g id="a_Node000019"><a xlink:title=" ">
<polygon fill="#e0e0e0" stroke="#999999" points="2104.5,-19 2048.5,-19 2048.5,0 2104.5,0 2104.5,-19"/>
<text text-anchor="middle" x="2076.5" y="-7" font-family="Helvetica,sans-Serif" font-size="10.00">stddef.h</text>
</a>
</g>
</g>
<!-- Node18&#45;&gt;Node19 -->
<g id="edge19_Node000018_Node000019" class="edge">
<title>Node18&#45;&gt;Node19</title>
<g id="a_edge19_Node000018_Node000019"><a xlink:title=" ">
<path fill="none" stroke="#63b8ff" d="M1862.47,-54.98C1911,-44.9 1991.2,-28.23 2038.43,-18.41"/>
<polygon fill="#63b8ff" stroke="#63b8ff" points="2039.18,-21.83 2048.26,-16.37 2037.76,-14.98 2039.18,-21.83"/>
</a>
</g>
</g>
<!-- Node20&#45;&gt;Node5 -->
<g id="edge23_Node000020_Node000005" class="edge">
<title>Node20&#45;&gt;Node5</title>
<g id="a_edge23_Node000020_Node000005"><a xlink:title=" ">
<path fill="none" stroke="#63b8ff" d="M2281.71,-115.43C2276.08,-113.57 2270.1,-111.66 2264.5,-110 2220.33,-96.91 2169.14,-83.86 2134.36,-75.31"/>
<polygon fill="#63b8ff" stroke="#63b8ff" points="2135.11,-71.89 2124.56,-72.92 2133.45,-78.69 2135.11,-71.89"/>
</a>
</g>
</g>
<!-- Node20&#45;&gt;Node7 -->
<g id="edge25_Node000020_Node000007" class="edge">
<title>Node20&#45;&gt;Node7</title>
<g id="a_edge25_Node000020_Node000007"><a xlink:title=" ">
<path fill="none" stroke="#63b8ff" d="M2286.29,-115.49C2262.82,-105.62 2223.89,-89.23 2197.04,-77.93"/>
<polygon fill="#63b8ff" stroke="#63b8ff" points="2198.31,-74.67 2187.74,-74.02 2195.6,-81.12 2198.31,-74.67"/>
</a>
</g>
</g>
<!-- Node20&#45;&gt;Node8 -->
<g id="edge28_Node000020_Node000008" class="edge">
<title>Node20&#45;&gt;Node8</title>
<g id="a_edge28_Node000020_Node000008"><a xlink:title=" ">
<path fill="none" stroke="#63b8ff" d="M2278.48,-118.03C2264.43,-115.22 2247.13,-112.05 2231.5,-110 2024.22,-82.78 1970.69,-93.05 1762.5,-74 1756.38,-73.44 1750.01,-72.82 1743.65,-72.18"/>
<polygon fill="#63b8ff" stroke="#63b8ff" points="1744,-68.7 1733.69,-71.16 1743.28,-75.66 1744,-68.7"/>
</a>
</g>
</g>
<!-- Node20&#45;&gt;Node18 -->
<g id="edge22_Node000020_Node000018" class="edge">
<title>Node20&#45;&gt;Node18</title>
<g id="a_edge22_Node000020_Node000018"><a xlink:title=" ">
<path fill="none" stroke="#63b8ff" d="M2278.45,-118.24C2264.4,-115.48 2247.09,-112.3 2231.5,-110 2108.12,-91.82 1962.83,-77.78 1882.56,-70.66"/>
<polygon fill="#63b8ff" stroke="#63b8ff" points="1882.42,-67.13 1872.15,-69.74 1881.81,-74.11 1882.42,-67.13"/>
</a>
</g>
</g>
<!-- Node20&#45;&gt;Node19 -->
<g id="edge21_Node000020_Node000019" class="edge">
<title>Node20&#45;&gt;Node19</title>
<g id="a_edge21_Node000020_Node000019"><a xlink:title=" ">
<path fill="none" stroke="#63b8ff" d="M2304.09,-115.26C2299.53,-100.45 2288.21,-70.5 2267.5,-55 2222.62,-21.4 2156.45,-12.61 2114.95,-10.62"/>
<polygon fill="#63b8ff" stroke="#63b8ff" points="2114.82,-7.11 2104.7,-10.24 2114.57,-14.11 2114.82,-7.11"/>
</a>
</g>
</g>
<!-- Node21 -->
<g id="Node000021" class="node">
<title>Node21</title>
<g id="a_Node000021"><a xlink:title=" ">
<polygon fill="#e0e0e0" stroke="#999999" points="2368,-74 2315,-74 2315,-55 2368,-55 2368,-74"/>
<text text-anchor="middle" x="2341.5" y="-62" font-family="Helvetica,sans-Serif" font-size="10.00">stdint.h</text>
</a>
</g>
</g>
<!-- Node20&#45;&gt;Node21 -->
<g id="edge24_Node000020_Node000021" class="edge">
<title>Node20&#45;&gt;Node21</title>
<g id="a_edge24_Node000020_Node000021"><a xlink:title=" ">
<path fill="none" stroke="#63b8ff" d="M2311.66,-115.37C2316.73,-106.9 2324.6,-93.74 2330.99,-83.07"/>
<polygon fill="#63b8ff" stroke="#63b8ff" points="2334.18,-84.55 2336.31,-74.17 2328.18,-80.95 2334.18,-84.55"/>
</a>
</g>
</g>
<!-- Node22 -->
<g id="Node000022" class="node">
<title>Node22</title>
<g id="a_Node000022"><a xlink:title=" ">
<polygon fill="#e0e0e0" stroke="#999999" points="2439,-74 2386,-74 2386,-55 2439,-55 2439,-74"/>
<text text-anchor="middle" x="2412.5" y="-62" font-family="Helvetica,sans-Serif" font-size="10.00">stdlib.h</text>
</a>
</g>
</g>
<!-- Node20&#45;&gt;Node22 -->
<g id="edge26_Node000020_Node000022" class="edge">
<title>Node20&#45;&gt;Node22</title>
<g id="a_edge26_Node000020_Node000022"><a xlink:title=" ">
<path fill="none" stroke="#63b8ff" d="M2322.14,-115.37C2339.44,-105.82 2367.55,-90.31 2387.83,-79.12"/>
<polygon fill="#63b8ff" stroke="#63b8ff" points="2389.73,-82.06 2396.8,-74.17 2386.35,-75.93 2389.73,-82.06"/>
</a>
</g>
</g>
<!-- Node23 -->
<g id="Node000023" class="node">
<title>Node23</title>
<g id="a_Node000023"><a xlink:title=" ">
<polygon fill="#e0e0e0" stroke="#999999" points="2258.5,-74 2210.5,-74 2210.5,-55 2258.5,-55 2258.5,-74"/>
<text text-anchor="middle" x="2234.5" y="-62" font-family="Helvetica,sans-Serif" font-size="10.00">time.h</text>
</a>
</g>
</g>
<!-- Node20&#45;&gt;Node23 -->
<g id="edge27_Node000020_Node000023" class="edge">
<title>Node20&#45;&gt;Node23</title>
<g id="a_edge27_Node000020_Node000023"><a xlink:title=" ">
<path fill="none" stroke="#63b8ff" d="M2295.88,-115.37C2284.6,-106.21 2266.58,-91.56 2252.97,-80.51"/>
<polygon fill="#63b8ff" stroke="#63b8ff" points="2255.14,-77.76 2245.17,-74.17 2250.72,-83.19 2255.14,-77.76"/>
</a>
</g>
</g>
<!-- Node47 -->
<g id="Node000047" class="node">
<title>Node47</title>
<g id="a_Node000047"><a xlink:title=" ">
<polygon fill="#e0e0e0" stroke="#999999" points="1150,-206 1031,-206 1031,-176 1150,-176 1150,-206"/>
<text text-anchor="start" x="1039" y="-194" font-family="Helvetica,sans-Serif" font-size="10.00">device_load_uniform</text>
<text text-anchor="middle" x="1090.5" y="-183" font-family="Helvetica,sans-Serif" font-size="10.00">_decl.inc</text>
</a>
</g>
</g>
<!-- Node46&#45;&gt;Node47 -->
<g id="edge51_Node000046_Node000047" class="edge">
<title>Node46&#45;&gt;Node47</title>
<g id="a_edge51_Node000046_Node000047"><a xlink:title=" ">
<path fill="none" stroke="#63b8ff" d="M1030.83,-241.87C1039.98,-234.22 1053.69,-222.76 1065.67,-212.75"/>
<polygon fill="#63b8ff" stroke="#63b8ff" points="1068.18,-215.21 1073.61,-206.11 1063.69,-209.84 1068.18,-215.21"/>
</a>
</g>
</g>
<!-- Node48 -->
<g id="Node000048" class="node">
<title>Node48</title>
<g id="a_Node000048"><a xlink:title=" ">
<polygon fill="#e0e0e0" stroke="#999999" points="1012.5,-206 890.5,-206 890.5,-176 1012.5,-176 1012.5,-206"/>
<text text-anchor="start" x="898.5" y="-194" font-family="Helvetica,sans-Serif" font-size="10.00">device_store_uniform</text>
<text text-anchor="middle" x="951.5" y="-183" font-family="Helvetica,sans-Serif" font-size="10.00">_decl.inc</text>
</a>
</g>
</g>
<!-- Node46&#45;&gt;Node48 -->
<g id="edge52_Node000046_Node000048" class="edge">
<title>Node46&#45;&gt;Node48</title>
<g id="a_edge52_Node000046_Node000048"><a xlink:title=" ">
<path fill="none" stroke="#63b8ff" d="M1010.32,-241.87C1001.3,-234.22 987.78,-222.76 975.97,-212.75"/>
<polygon fill="#63b8ff" stroke="#63b8ff" points="978.04,-209.91 968.15,-206.11 973.51,-215.25 978.04,-209.91"/>
</a>
</g>
</g>
</g>
</svg>
