<?xml version="1.0" encoding="UTF-8" standalone="no"?>
<!DOCTYPE svg PUBLIC "-//W3C//DTD SVG 1.1//EN"
 "http://www.w3.org/Graphics/SVG/1.1/DTD/svg11.dtd">
<!-- Generated by graphviz version 2.43.0 (0)
 -->
<!-- Title: src/utils/memory.cc Pages: 1 -->
<svg width="2358pt" height="434pt"
 viewBox="0.00 0.00 2358.27 434.00" xmlns="http://www.w3.org/2000/svg" xmlns:xlink="http://www.w3.org/1999/xlink">
<g id="graph0" class="graph" transform="scale(1 1) rotate(0) translate(4 430)">
<title>src/utils/memory.cc</title>
<!-- Node1 -->
<g id="Node000001" class="node">
<title>Node1</title>
<g id="a_Node000001"><a xlink:title=" ">
<polygon fill="#999999" stroke="#666666" points="2332,-426 2221,-426 2221,-407 2332,-407 2332,-426"/>
<text text-anchor="middle" x="2276.5" y="-414" font-family="Helvetica,sans-Serif" font-size="10.00">src/utils/memory.cc</text>
</a>
</g>
</g>
<!-- Node2 -->
<g id="Node000002" class="node">
<title>Node2</title>
<g id="a_Node000002"><a xlink:href="astaroth__utils_8h.html" target="_top" xlink:title="Functions for loading and updating AcMeshInfo.">
<polygon fill="white" stroke="#666666" points="1709.5,-371 1617.5,-371 1617.5,-352 1709.5,-352 1709.5,-371"/>
<text text-anchor="middle" x="1663.5" y="-359" font-family="Helvetica,sans-Serif" font-size="10.00">astaroth_utils.h</text>
</a>
</g>
</g>
<!-- Node1&#45;&gt;Node2 -->
<g id="edge1_Node000001_Node000002" class="edge">
<title>Node1&#45;&gt;Node2</title>
<g id="a_edge1_Node000001_Node000002"><a xlink:title=" ">
<path fill="none" stroke="#63b8ff" d="M2220.75,-410.68C2104.43,-400.62 1837.01,-377.5 1720.03,-367.39"/>
<polygon fill="#63b8ff" stroke="#63b8ff" points="1720.12,-363.88 1709.86,-366.51 1719.52,-370.86 1720.12,-363.88"/>
</a>
</g>
</g>
<!-- Node20 -->
<g id="Node000020" class="node">
<title>Node20</title>
<g id="a_Node000020"><a xlink:href="errchk_8h.html" target="_top" xlink:title="Brief info.">
<polygon fill="white" stroke="#666666" points="2245.5,-134.5 2189.5,-134.5 2189.5,-115.5 2245.5,-115.5 2245.5,-134.5"/>
<text text-anchor="middle" x="2217.5" y="-122.5" font-family="Helvetica,sans-Serif" font-size="10.00">errchk.h</text>
</a>
</g>
</g>
<!-- Node1&#45;&gt;Node20 -->
<g id="edge63_Node000001_Node000020" class="edge">
<title>Node1&#45;&gt;Node20</title>
<g id="a_edge63_Node000001_Node000020"><a xlink:title=" ">
<path fill="none" stroke="#63b8ff" d="M2287.91,-406.77C2308.44,-389.98 2349.5,-350.95 2349.5,-307.5 2349.5,-307.5 2349.5,-307.5 2349.5,-250.5 2349.5,-216.33 2352.56,-202.09 2330.5,-176 2311.51,-153.54 2280.44,-140.8 2255.69,-133.8"/>
<polygon fill="#63b8ff" stroke="#63b8ff" points="2256.42,-130.38 2245.86,-131.23 2254.65,-137.15 2256.42,-130.38"/>
</a>
</g>
</g>
<!-- Node44 -->
<g id="Node000044" class="node">
<title>Node44</title>
<g id="a_Node000044"><a xlink:title=" ">
<polygon fill="#e0e0e0" stroke="#999999" points="2321,-206 2190,-206 2190,-176 2321,-176 2321,-206"/>
<text text-anchor="start" x="2198" y="-194" font-family="Helvetica,sans-Serif" font-size="10.00">user_builtin_non_scalar</text>
<text text-anchor="middle" x="2255.5" y="-183" font-family="Helvetica,sans-Serif" font-size="10.00">_constants.h</text>
</a>
</g>
</g>
<!-- Node1&#45;&gt;Node44 -->
<g id="edge62_Node000001_Node000044" class="edge">
<title>Node1&#45;&gt;Node44</title>
<g id="a_edge62_Node000001_Node000044"><a xlink:title=" ">
<path fill="none" stroke="#63b8ff" d="M2275.68,-406.74C2272.69,-375 2262.39,-265.33 2257.77,-216.17"/>
<polygon fill="#63b8ff" stroke="#63b8ff" points="2261.25,-215.74 2256.83,-206.12 2254.28,-216.4 2261.25,-215.74"/>
</a>
</g>
</g>
<!-- Node3 -->
<g id="Node000003" class="node">
<title>Node3</title>
<g id="a_Node000003"><a xlink:href="astaroth_8h.html" target="_top" xlink:title=" ">
<polygon fill="white" stroke="#666666" points="1656.5,-316 1590.5,-316 1590.5,-297 1656.5,-297 1656.5,-316"/>
<text text-anchor="middle" x="1623.5" y="-304" font-family="Helvetica,sans-Serif" font-size="10.00">astaroth.h</text>
</a>
</g>
</g>
<!-- Node2&#45;&gt;Node3 -->
<g id="edge2_Node000002_Node000003" class="edge">
<title>Node2&#45;&gt;Node3</title>
<g id="a_edge2_Node000002_Node000003"><a xlink:title=" ">
<path fill="none" stroke="#63b8ff" d="M1656.89,-351.75C1651.24,-344.26 1642.96,-333.28 1636.05,-324.13"/>
<polygon fill="#63b8ff" stroke="#63b8ff" points="1638.8,-321.96 1629.98,-316.09 1633.21,-326.18 1638.8,-321.96"/>
</a>
</g>
</g>
<!-- Node57 -->
<g id="Node000057" class="node">
<title>Node57</title>
<g id="a_Node000057"><a xlink:title=" ">
<polygon fill="#e0e0e0" stroke="#999999" points="1730.5,-316 1674.5,-316 1674.5,-297 1730.5,-297 1730.5,-316"/>
<text text-anchor="middle" x="1702.5" y="-304" font-family="Helvetica,sans-Serif" font-size="10.00">stdarg.h</text>
</a>
</g>
</g>
<!-- Node2&#45;&gt;Node57 -->
<g id="edge60_Node000002_Node000057" class="edge">
<title>Node2&#45;&gt;Node57</title>
<g id="a_edge60_Node000002_Node000057"><a xlink:title=" ">
<path fill="none" stroke="#63b8ff" d="M1669.94,-351.75C1675.39,-344.34 1683.36,-333.5 1690.06,-324.41"/>
<polygon fill="#63b8ff" stroke="#63b8ff" points="1693.07,-326.22 1696.18,-316.09 1687.43,-322.07 1693.07,-326.22"/>
</a>
</g>
</g>
<!-- Node58 -->
<g id="Node000058" class="node">
<title>Node58</title>
<g id="a_Node000058"><a xlink:href="astaroth__lib_8h.html" target="_top" xlink:title=" ">
<polygon fill="white" stroke="#666666" points="1572,-316 1489,-316 1489,-297 1572,-297 1572,-316"/>
<text text-anchor="middle" x="1530.5" y="-304" font-family="Helvetica,sans-Serif" font-size="10.00">astaroth_lib.h</text>
</a>
</g>
</g>
<!-- Node2&#45;&gt;Node58 -->
<g id="edge61_Node000002_Node000058" class="edge">
<title>Node2&#45;&gt;Node58</title>
<g id="a_edge61_Node000002_Node000058"><a xlink:title=" ">
<path fill="none" stroke="#63b8ff" d="M1642.13,-351.98C1620.35,-343.3 1586.34,-329.75 1561.58,-319.88"/>
<polygon fill="#63b8ff" stroke="#63b8ff" points="1562.84,-316.62 1552.26,-316.17 1560.25,-323.12 1562.84,-316.62"/>
</a>
</g>
</g>
<!-- Node4 -->
<g id="Node000004" class="node">
<title>Node4</title>
<g id="a_Node000004"><a xlink:href="astaroth__base_8h.html" target="_top" xlink:title=" ">
<polygon fill="white" stroke="#666666" points="2140,-261 2045,-261 2045,-242 2140,-242 2140,-261"/>
<text text-anchor="middle" x="2092.5" y="-249" font-family="Helvetica,sans-Serif" font-size="10.00">astaroth_base.h</text>
</a>
</g>
</g>
<!-- Node3&#45;&gt;Node4 -->
<g id="edge3_Node000003_Node000004" class="edge">
<title>Node3&#45;&gt;Node4</title>
<g id="a_edge3_Node000003_Node000004"><a xlink:title=" ">
<path fill="none" stroke="#63b8ff" d="M1656.92,-298.41C1659.81,-297.9 1662.7,-297.42 1665.5,-297 1826.15,-273.01 1870.39,-281.1 2034.89,-261.14"/>
<polygon fill="#63b8ff" stroke="#63b8ff" points="2035.37,-264.6 2044.87,-259.91 2034.51,-257.66 2035.37,-264.6"/>
</a>
</g>
</g>
<!-- Node45 -->
<g id="Node000045" class="node">
<title>Node45</title>
<g id="a_Node000045"><a xlink:href="astaroth__grid_8h.html" target="_top" xlink:title=" ">
<polygon fill="white" stroke="#666666" points="2248.5,-261 2158.5,-261 2158.5,-242 2248.5,-242 2248.5,-261"/>
<text text-anchor="middle" x="2203.5" y="-249" font-family="Helvetica,sans-Serif" font-size="10.00">astaroth_grid.h</text>
</a>
</g>
</g>
<!-- Node3&#45;&gt;Node45 -->
<g id="edge48_Node000003_Node000045" class="edge">
<title>Node3&#45;&gt;Node45</title>
<g id="a_edge48_Node000003_Node000045"><a xlink:title=" ">
<path fill="none" stroke="#63b8ff" d="M1656.91,-298.35C1659.8,-297.84 1662.7,-297.39 1665.5,-297 1875.95,-267.99 1933.49,-285.25 2148.43,-261.02"/>
<polygon fill="#63b8ff" stroke="#63b8ff" points="2148.92,-264.49 2158.46,-259.87 2148.12,-257.53 2148.92,-264.49"/>
</a>
</g>
</g>
<!-- Node46 -->
<g id="Node000046" class="node">
<title>Node46</title>
<g id="a_Node000046"><a xlink:href="astaroth__node_8h.html" target="_top" xlink:title=" ">
<polygon fill="white" stroke="#666666" points="894,-261 799,-261 799,-242 894,-242 894,-261"/>
<text text-anchor="middle" x="846.5" y="-249" font-family="Helvetica,sans-Serif" font-size="10.00">astaroth_node.h</text>
</a>
</g>
</g>
<!-- Node3&#45;&gt;Node46 -->
<g id="edge49_Node000003_Node000046" class="edge">
<title>Node3&#45;&gt;Node46</title>
<g id="a_edge49_Node000003_Node000046"><a xlink:title=" ">
<path fill="none" stroke="#63b8ff" d="M1590.1,-298.28C1587.2,-297.79 1584.3,-297.36 1581.5,-297 1285.51,-259.4 1205.52,-290.57 904.39,-260.97"/>
<polygon fill="#63b8ff" stroke="#63b8ff" points="904.34,-257.45 894.04,-259.93 903.65,-264.41 904.34,-257.45"/>
</a>
</g>
</g>
<!-- Node47 -->
<g id="Node000047" class="node">
<title>Node47</title>
<g id="a_Node000047"><a xlink:href="astaroth__device_8h.html" target="_top" xlink:title=" ">
<polygon fill="white" stroke="#666666" points="1016.5,-261 912.5,-261 912.5,-242 1016.5,-242 1016.5,-261"/>
<text text-anchor="middle" x="964.5" y="-249" font-family="Helvetica,sans-Serif" font-size="10.00">astaroth_device.h</text>
</a>
</g>
</g>
<!-- Node3&#45;&gt;Node47 -->
<g id="edge50_Node000003_Node000047" class="edge">
<title>Node3&#45;&gt;Node47</title>
<g id="a_edge50_Node000003_Node000047"><a xlink:title=" ">
<path fill="none" stroke="#63b8ff" d="M1590.1,-298.32C1587.2,-297.82 1584.3,-297.37 1581.5,-297 1339.27,-264.8 1273.58,-285.54 1026.71,-261.04"/>
<polygon fill="#63b8ff" stroke="#63b8ff" points="1027.01,-257.55 1016.71,-260.03 1026.31,-264.52 1027.01,-257.55"/>
</a>
</g>
</g>
<!-- Node50 -->
<g id="Node000050" class="node">
<title>Node50</title>
<g id="a_Node000050"><a xlink:href="astaroth__legacy_8h.html" target="_top" xlink:title=" ">
<polygon fill="white" stroke="#666666" points="1136.5,-261 1034.5,-261 1034.5,-242 1136.5,-242 1136.5,-261"/>
<text text-anchor="middle" x="1085.5" y="-249" font-family="Helvetica,sans-Serif" font-size="10.00">astaroth_legacy.h</text>
</a>
</g>
</g>
<!-- Node3&#45;&gt;Node50 -->
<g id="edge53_Node000003_Node000050" class="edge">
<title>Node3&#45;&gt;Node50</title>
<g id="a_edge53_Node000003_Node000050"><a xlink:title=" ">
<path fill="none" stroke="#63b8ff" d="M1590.09,-298.37C1587.19,-297.86 1584.3,-297.4 1581.5,-297 1392.62,-270.17 1341.01,-281.98 1146.69,-260.94"/>
<polygon fill="#63b8ff" stroke="#63b8ff" points="1147.05,-257.46 1136.73,-259.85 1146.29,-264.42 1147.05,-257.46"/>
</a>
</g>
</g>
<!-- Node51 -->
<g id="Node000051" class="node">
<title>Node51</title>
<g id="a_Node000051"><a xlink:title=" ">
<polygon fill="#e0e0e0" stroke="#999999" points="1294,-261 1155,-261 1155,-242 1294,-242 1294,-261"/>
<text text-anchor="middle" x="1224.5" y="-249" font-family="Helvetica,sans-Serif" font-size="10.00">device_set_input_decls.h</text>
</a>
</g>
</g>
<!-- Node3&#45;&gt;Node51 -->
<g id="edge54_Node000003_Node000051" class="edge">
<title>Node3&#45;&gt;Node51</title>
<g id="a_edge54_Node000003_Node000051"><a xlink:title=" ">
<path fill="none" stroke="#63b8ff" d="M1590.07,-298.5C1587.18,-297.96 1584.29,-297.46 1581.5,-297 1529.79,-288.56 1392.51,-272.07 1304.04,-261.7"/>
<polygon fill="#63b8ff" stroke="#63b8ff" points="1304.37,-258.22 1294.03,-260.53 1303.56,-265.17 1304.37,-258.22"/>
</a>
</g>
</g>
<!-- Node52 -->
<g id="Node000052" class="node">
<title>Node52</title>
<g id="a_Node000052"><a xlink:title=" ">
<polygon fill="#e0e0e0" stroke="#999999" points="1458.5,-261 1312.5,-261 1312.5,-242 1458.5,-242 1458.5,-261"/>
<text text-anchor="middle" x="1385.5" y="-249" font-family="Helvetica,sans-Serif" font-size="10.00">device_get_output_decls.h</text>
</a>
</g>
</g>
<!-- Node3&#45;&gt;Node52 -->
<g id="edge55_Node000003_Node000052" class="edge">
<title>Node3&#45;&gt;Node52</title>
<g id="a_edge55_Node000003_Node000052"><a xlink:title=" ">
<path fill="none" stroke="#63b8ff" d="M1590.41,-298.13C1549.71,-289.07 1480.31,-273.61 1433.69,-263.23"/>
<polygon fill="#63b8ff" stroke="#63b8ff" points="1434.34,-259.79 1423.82,-261.03 1432.82,-266.62 1434.34,-259.79"/>
</a>
</g>
</g>
<!-- Node53 -->
<g id="Node000053" class="node">
<title>Node53</title>
<g id="a_Node000053"><a xlink:title=" ">
<polygon fill="#e0e0e0" stroke="#999999" points="1616.5,-261 1476.5,-261 1476.5,-242 1616.5,-242 1616.5,-261"/>
<text text-anchor="middle" x="1546.5" y="-249" font-family="Helvetica,sans-Serif" font-size="10.00">device_get_input_decls.h</text>
</a>
</g>
</g>
<!-- Node3&#45;&gt;Node53 -->
<g id="edge56_Node000003_Node000053" class="edge">
<title>Node3&#45;&gt;Node53</title>
<g id="a_edge56_Node000003_Node000053"><a xlink:title=" ">
<path fill="none" stroke="#63b8ff" d="M1611.13,-296.98C1599.41,-288.92 1581.58,-276.65 1567.61,-267.03"/>
<polygon fill="#63b8ff" stroke="#63b8ff" points="1569.32,-263.96 1559.1,-261.17 1565.35,-269.72 1569.32,-263.96"/>
</a>
</g>
</g>
<!-- Node54 -->
<g id="Node000054" class="node">
<title>Node54</title>
<g id="a_Node000054"><a xlink:title=" ">
<polygon fill="#e0e0e0" stroke="#999999" points="1764.5,-261 1634.5,-261 1634.5,-242 1764.5,-242 1764.5,-261"/>
<text text-anchor="middle" x="1699.5" y="-249" font-family="Helvetica,sans-Serif" font-size="10.00">get_vtxbufs_declares.h</text>
</a>
</g>
</g>
<!-- Node3&#45;&gt;Node54 -->
<g id="edge57_Node000003_Node000054" class="edge">
<title>Node3&#45;&gt;Node54</title>
<g id="a_edge57_Node000003_Node000054"><a xlink:title=" ">
<path fill="none" stroke="#63b8ff" d="M1635.71,-296.98C1647.28,-288.92 1664.88,-276.65 1678.66,-267.03"/>
<polygon fill="#63b8ff" stroke="#63b8ff" points="1680.87,-269.76 1687.07,-261.17 1676.86,-264.02 1680.87,-269.76"/>
</a>
</g>
</g>
<!-- Node55 -->
<g id="Node000055" class="node">
<title>Node55</title>
<g id="a_Node000055"><a xlink:href="astaroth__runtime__compilation_8h.html" target="_top" xlink:title=" ">
<polygon fill="white" stroke="#666666" points="1956,-261 1783,-261 1783,-242 1956,-242 1956,-261"/>
<text text-anchor="middle" x="1869.5" y="-249" font-family="Helvetica,sans-Serif" font-size="10.00">astaroth_runtime_compilation.h</text>
</a>
</g>
</g>
<!-- Node3&#45;&gt;Node55 -->
<g id="edge58_Node000003_Node000055" class="edge">
<title>Node3&#45;&gt;Node55</title>
<g id="a_edge58_Node000003_Node000055"><a xlink:title=" ">
<path fill="none" stroke="#63b8ff" d="M1656.68,-298.35C1698.67,-289.3 1771.39,-273.64 1819.97,-263.17"/>
<polygon fill="#63b8ff" stroke="#63b8ff" points="1820.91,-266.55 1829.95,-261.02 1819.44,-259.71 1820.91,-266.55"/>
</a>
</g>
</g>
<!-- Node56 -->
<g id="Node000056" class="node">
<title>Node56</title>
<g id="a_Node000056"><a xlink:title=" ">
<polygon fill="#e0e0e0" stroke="#999999" points="2027,-261 1974,-261 1974,-242 2027,-242 2027,-261"/>
<text text-anchor="middle" x="2000.5" y="-249" font-family="Helvetica,sans-Serif" font-size="10.00">string.h</text>
</a>
</g>
</g>
<!-- Node3&#45;&gt;Node56 -->
<g id="edge59_Node000003_Node000056" class="edge">
<title>Node3&#45;&gt;Node56</title>
<g id="a_edge59_Node000003_Node000056"><a xlink:title=" ">
<path fill="none" stroke="#63b8ff" d="M1656.93,-298.48C1659.82,-297.95 1662.71,-297.45 1665.5,-297 1794.85,-276.18 1831.57,-284.46 1963.71,-261.14"/>
<polygon fill="#63b8ff" stroke="#63b8ff" points="1964.59,-264.54 1973.82,-259.33 1963.36,-257.65 1964.59,-264.54"/>
</a>
</g>
</g>
<!-- Node5 -->
<g id="Node000005" class="node">
<title>Node5</title>
<g id="a_Node000005"><a xlink:title=" ">
<polygon fill="#e0e0e0" stroke="#999999" points="2035.5,-74 1973.5,-74 1973.5,-55 2035.5,-55 2035.5,-74"/>
<text text-anchor="middle" x="2004.5" y="-62" font-family="Helvetica,sans-Serif" font-size="10.00">stdbool.h</text>
</a>
</g>
</g>
<!-- Node4&#45;&gt;Node5 -->
<g id="edge4_Node000004_Node000005" class="edge">
<title>Node4&#45;&gt;Node5</title>
<g id="a_edge4_Node000004_Node000005"><a xlink:title=" ">
<path fill="none" stroke="#63b8ff" d="M2100.76,-241.79C2121.89,-218.45 2174.05,-153.32 2142.5,-110 2136.57,-101.85 2084.03,-86.48 2045.53,-76.11"/>
<polygon fill="#63b8ff" stroke="#63b8ff" points="2046.15,-72.65 2035.59,-73.46 2044.35,-79.42 2046.15,-72.65"/>
</a>
</g>
</g>
<!-- Node6 -->
<g id="Node000006" class="node">
<title>Node6</title>
<g id="a_Node000006"><a xlink:href="acc__runtime_8h.html" target="_top" xlink:title=" ">
<polygon fill="#fff0f0" stroke="red" points="1328.5,-200.5 1242.5,-200.5 1242.5,-181.5 1328.5,-181.5 1328.5,-200.5"/>
<text text-anchor="middle" x="1285.5" y="-188.5" font-family="Helvetica,sans-Serif" font-size="10.00">acc_runtime.h</text>
</a>
</g>
</g>
<!-- Node4&#45;&gt;Node6 -->
<g id="edge5_Node000004_Node000006" class="edge">
<title>Node4&#45;&gt;Node6</title>
<g id="a_edge5_Node000004_Node000006"><a xlink:title=" ">
<path fill="none" stroke="#63b8ff" d="M2044.88,-242.99C2042.05,-242.63 2039.24,-242.3 2036.5,-242 1775.85,-213.59 1462.43,-199 1339.08,-194.02"/>
<polygon fill="#63b8ff" stroke="#63b8ff" points="1338.92,-190.51 1328.79,-193.61 1338.64,-197.5 1338.92,-190.51"/>
</a>
</g>
</g>
<!-- Node26 -->
<g id="Node000026" class="node">
<title>Node26</title>
<g id="a_Node000026"><a xlink:title=" ">
<polygon fill="#e0e0e0" stroke="#999999" points="139,-134.5 0,-134.5 0,-115.5 139,-115.5 139,-134.5"/>
<text text-anchor="middle" x="69.5" y="-122.5" font-family="Helvetica,sans-Serif" font-size="10.00">user_built&#45;in_constants.h</text>
</a>
</g>
</g>
<!-- Node4&#45;&gt;Node26 -->
<g id="edge46_Node000004_Node000026" class="edge">
<title>Node4&#45;&gt;Node26</title>
<g id="a_edge46_Node000004_Node000026"><a xlink:title=" ">
<path fill="none" stroke="#63b8ff" d="M2044.88,-242.92C2042.05,-242.58 2039.24,-242.27 2036.5,-242 1680.96,-207.15 1587.46,-254.37 1233.5,-206 1174.75,-197.97 1162.27,-183.85 1103.5,-176 694.38,-121.35 586.76,-175.06 175.5,-140 162.95,-138.93 149.6,-137.44 136.77,-135.84"/>
<polygon fill="#63b8ff" stroke="#63b8ff" points="136.97,-132.33 126.61,-134.53 136.08,-139.28 136.97,-132.33"/>
</a>
</g>
</g>
<!-- Node40 -->
<g id="Node000040" class="node">
<title>Node40</title>
<g id="a_Node000040"><a xlink:href="func__define_8h.html" target="_top" xlink:title=" ">
<polygon fill="white" stroke="#666666" points="2133.5,-134.5 2051.5,-134.5 2051.5,-115.5 2133.5,-115.5 2133.5,-134.5"/>
<text text-anchor="middle" x="2092.5" y="-122.5" font-family="Helvetica,sans-Serif" font-size="10.00">func_define.h</text>
</a>
</g>
</g>
<!-- Node4&#45;&gt;Node40 -->
<g id="edge45_Node000004_Node000040" class="edge">
<title>Node4&#45;&gt;Node40</title>
<g id="a_edge45_Node000004_Node000040"><a xlink:title=" ">
<path fill="none" stroke="#63b8ff" d="M2092.5,-241.94C2092.5,-222.04 2092.5,-172.26 2092.5,-144.85"/>
<polygon fill="#63b8ff" stroke="#63b8ff" points="2096,-144.62 2092.5,-134.62 2089,-144.62 2096,-144.62"/>
</a>
</g>
</g>
<!-- Node4&#45;&gt;Node44 -->
<g id="edge47_Node000004_Node000044" class="edge">
<title>Node4&#45;&gt;Node44</title>
<g id="a_edge47_Node000004_Node000044"><a xlink:title=" ">
<path fill="none" stroke="#63b8ff" d="M2116.2,-241.99C2139.86,-233.5 2176.92,-220.2 2206.87,-209.45"/>
<polygon fill="#63b8ff" stroke="#63b8ff" points="2208.08,-212.74 2216.31,-206.06 2205.72,-206.15 2208.08,-212.74"/>
</a>
</g>
</g>
<!-- Node6&#45;&gt;Node5 -->
<g id="edge7_Node000006_Node000005" class="edge">
<title>Node6&#45;&gt;Node5</title>
<g id="a_edge7_Node000006_Node000005"><a xlink:title=" ">
<path fill="none" stroke="#63b8ff" d="M1328.58,-188.73C1466.48,-184.4 1891.21,-168.84 1945.5,-140 1969,-127.52 1986.3,-101.2 1995.89,-83.43"/>
<polygon fill="#63b8ff" stroke="#63b8ff" points="1999.1,-84.85 2000.53,-74.35 1992.86,-81.67 1999.1,-84.85"/>
</a>
</g>
</g>
<!-- Node7 -->
<g id="Node000007" class="node">
<title>Node7</title>
<g id="a_Node000007"><a xlink:title=" ">
<polygon fill="#e0e0e0" stroke="#999999" points="2103.5,-74 2053.5,-74 2053.5,-55 2103.5,-55 2103.5,-74"/>
<text text-anchor="middle" x="2078.5" y="-62" font-family="Helvetica,sans-Serif" font-size="10.00">stdio.h</text>
</a>
</g>
</g>
<!-- Node6&#45;&gt;Node7 -->
<g id="edge6_Node000006_Node000007" class="edge">
<title>Node6&#45;&gt;Node7</title>
<g id="a_edge6_Node000006_Node000007"><a xlink:title=" ">
<path fill="none" stroke="#63b8ff" d="M1328.58,-189.94C1460.25,-189.28 1855.73,-183.62 1975.5,-140 2010.18,-127.37 2043.51,-99.44 2062.45,-81.6"/>
<polygon fill="#63b8ff" stroke="#63b8ff" points="2065.12,-83.89 2069.87,-74.42 2060.25,-78.86 2065.12,-83.89"/>
</a>
</g>
</g>
<!-- Node8 -->
<g id="Node000008" class="node">
<title>Node8</title>
<g id="a_Node000008"><a xlink:href="device__headers_8h.html" target="_top" xlink:title=" ">
<polygon fill="white" stroke="#666666" points="1654.5,-74 1552.5,-74 1552.5,-55 1654.5,-55 1654.5,-74"/>
<text text-anchor="middle" x="1603.5" y="-62" font-family="Helvetica,sans-Serif" font-size="10.00">device_headers.h</text>
</a>
</g>
</g>
<!-- Node6&#45;&gt;Node8 -->
<g id="edge8_Node000006_Node000008" class="edge">
<title>Node6&#45;&gt;Node8</title>
<g id="a_edge8_Node000006_Node000008"><a xlink:title=" ">
<path fill="none" stroke="#63b8ff" d="M1328.94,-189.95C1466.81,-189.35 1887.86,-183.92 1928.5,-140 1937.56,-130.21 1937.27,-120.05 1928.5,-110 1924.19,-105.06 1758,-84.21 1664.99,-72.89"/>
<polygon fill="#63b8ff" stroke="#63b8ff" points="1665.2,-69.39 1654.85,-71.66 1664.36,-76.34 1665.2,-69.39"/>
</a>
</g>
</g>
<!-- Node11 -->
<g id="Node000011" class="node">
<title>Node11</title>
<g id="a_Node000011"><a xlink:title=" ">
<polygon fill="#e0e0e0" stroke="#999999" points="248,-74 153,-74 153,-55 248,-55 248,-74"/>
<text text-anchor="middle" x="200.5" y="-62" font-family="Helvetica,sans-Serif" font-size="10.00">builtin_enums.h</text>
</a>
</g>
</g>
<!-- Node6&#45;&gt;Node11 -->
<g id="edge11_Node000006_Node000011" class="edge">
<title>Node6&#45;&gt;Node11</title>
<g id="a_edge11_Node000006_Node000011"><a xlink:title=" ">
<path fill="none" stroke="#63b8ff" d="M1249.69,-181.45C1239.36,-179.31 1228.03,-177.26 1217.5,-176 1160.59,-169.2 226.31,-181.23 186.5,-140 171.98,-124.96 180.87,-99.91 189.7,-83.05"/>
<polygon fill="#63b8ff" stroke="#63b8ff" points="192.83,-84.64 194.72,-74.22 186.74,-81.18 192.83,-84.64"/>
</a>
</g>
</g>
<!-- Node12 -->
<g id="Node000012" class="node">
<title>Node12</title>
<g id="a_Node000012"><a xlink:href="datatypes_8h.html" target="_top" xlink:title=" ">
<polygon fill="#fff0f0" stroke="red" points="269.5,-134.5 195.5,-134.5 195.5,-115.5 269.5,-115.5 269.5,-134.5"/>
<text text-anchor="middle" x="232.5" y="-122.5" font-family="Helvetica,sans-Serif" font-size="10.00">datatypes.h</text>
</a>
</g>
</g>
<!-- Node6&#45;&gt;Node12 -->
<g id="edge12_Node000006_Node000012" class="edge">
<title>Node6&#45;&gt;Node12</title>
<g id="a_edge12_Node000006_Node000012"><a xlink:title=" ">
<path fill="none" stroke="#63b8ff" d="M1249.69,-181.48C1239.36,-179.33 1228.03,-177.28 1217.5,-176 802.9,-125.72 690.34,-209.37 278.5,-140 274.54,-139.33 270.44,-138.42 266.4,-137.38"/>
<polygon fill="#63b8ff" stroke="#63b8ff" points="267.15,-133.96 256.57,-134.6 265.24,-140.69 267.15,-133.96"/>
</a>
</g>
</g>
<!-- Node6&#45;&gt;Node20 -->
<g id="edge20_Node000006_Node000020" class="edge">
<title>Node6&#45;&gt;Node20</title>
<g id="a_edge20_Node000006_Node000020"><a xlink:title=" ">
<path fill="none" stroke="#63b8ff" d="M1328.92,-189.4C1455.06,-187.25 1832.19,-177.86 2142.5,-140 2154.6,-138.52 2167.7,-136.3 2179.5,-134.06"/>
<polygon fill="#63b8ff" stroke="#63b8ff" points="2180.35,-137.46 2189.49,-132.1 2179.01,-130.59 2180.35,-137.46"/>
</a>
</g>
</g>
<!-- Node24 -->
<g id="Node000024" class="node">
<title>Node24</title>
<g id="a_Node000024"><a xlink:title=" ">
<polygon fill="#e0e0e0" stroke="#999999" points="375,-134.5 288,-134.5 288,-115.5 375,-115.5 375,-134.5"/>
<text text-anchor="middle" x="331.5" y="-122.5" font-family="Helvetica,sans-Serif" font-size="10.00">user_defines.h</text>
</a>
</g>
</g>
<!-- Node6&#45;&gt;Node24 -->
<g id="edge29_Node000006_Node000024" class="edge">
<title>Node6&#45;&gt;Node24</title>
<g id="a_edge29_Node000006_Node000024"><a xlink:title=" ">
<path fill="none" stroke="#63b8ff" d="M1249.33,-181.44C1239.09,-179.32 1227.91,-177.29 1217.5,-176 849.74,-130.49 750.87,-195.64 384.5,-140 379.45,-139.23 374.2,-138.17 369.04,-136.98"/>
<polygon fill="#63b8ff" stroke="#63b8ff" points="369.87,-133.58 359.32,-134.55 368.17,-140.37 369.87,-133.58"/>
</a>
</g>
</g>
<!-- Node25 -->
<g id="Node000025" class="node">
<title>Node25</title>
<g id="a_Node000025"><a xlink:title=" ">
<polygon fill="#e0e0e0" stroke="#999999" points="479.5,-134.5 393.5,-134.5 393.5,-115.5 479.5,-115.5 479.5,-134.5"/>
<text text-anchor="middle" x="436.5" y="-122.5" font-family="Helvetica,sans-Serif" font-size="10.00">profiles_info.h</text>
</a>
</g>
</g>
<!-- Node6&#45;&gt;Node25 -->
<g id="edge30_Node000006_Node000025" class="edge">
<title>Node6&#45;&gt;Node25</title>
<g id="a_edge30_Node000006_Node000025"><a xlink:title=" ">
<path fill="none" stroke="#63b8ff" d="M1249.32,-181.48C1239.09,-179.36 1227.9,-177.32 1217.5,-176 895.68,-135.17 808.95,-190.45 488.5,-140 483.67,-139.24 478.65,-138.21 473.72,-137.04"/>
<polygon fill="#63b8ff" stroke="#63b8ff" points="474.34,-133.59 463.79,-134.52 472.62,-140.38 474.34,-133.59"/>
</a>
</g>
</g>
<!-- Node6&#45;&gt;Node26 -->
<g id="edge31_Node000006_Node000026" class="edge">
<title>Node6&#45;&gt;Node26</title>
<g id="a_edge31_Node000006_Node000026"><a xlink:title=" ">
<path fill="none" stroke="#63b8ff" d="M1249.69,-181.44C1239.36,-179.3 1228.03,-177.25 1217.5,-176 747.66,-120.09 624.32,-186.99 153.5,-140 143.89,-139.04 133.72,-137.66 123.89,-136.13"/>
<polygon fill="#63b8ff" stroke="#63b8ff" points="124.25,-132.65 113.82,-134.5 123.13,-139.56 124.25,-132.65"/>
</a>
</g>
</g>
<!-- Node27 -->
<g id="Node000027" class="node">
<title>Node27</title>
<g id="a_Node000027"><a xlink:href="func__attributes_8h.html" target="_top" xlink:title=" ">
<polygon fill="white" stroke="#666666" points="597,-134.5 498,-134.5 498,-115.5 597,-115.5 597,-134.5"/>
<text text-anchor="middle" x="547.5" y="-122.5" font-family="Helvetica,sans-Serif" font-size="10.00">func_attributes.h</text>
</a>
</g>
</g>
<!-- Node6&#45;&gt;Node27 -->
<g id="edge32_Node000006_Node000027" class="edge">
<title>Node6&#45;&gt;Node27</title>
<g id="a_edge32_Node000006_Node000027"><a xlink:title=" ">
<path fill="none" stroke="#63b8ff" d="M1248.96,-181.47C1238.82,-179.38 1227.78,-177.35 1217.5,-176 947.36,-140.44 875,-180.13 605.5,-140 599.93,-139.17 594.11,-138.06 588.39,-136.83"/>
<polygon fill="#63b8ff" stroke="#63b8ff" points="588.83,-133.34 578.3,-134.51 587.27,-140.16 588.83,-133.34"/>
</a>
</g>
</g>
<!-- Node28 -->
<g id="Node000028" class="node">
<title>Node28</title>
<g id="a_Node000028"><a xlink:title=" ">
<polygon fill="#e0e0e0" stroke="#999999" points="740,-134.5 615,-134.5 615,-115.5 740,-115.5 740,-134.5"/>
<text text-anchor="middle" x="677.5" y="-122.5" font-family="Helvetica,sans-Serif" font-size="10.00">user_input_typedefs.h</text>
</a>
</g>
</g>
<!-- Node6&#45;&gt;Node28 -->
<g id="edge33_Node000006_Node000028" class="edge">
<title>Node6&#45;&gt;Node28</title>
<g id="a_edge33_Node000006_Node000028"><a xlink:title=" ">
<path fill="none" stroke="#63b8ff" d="M1248.24,-181.44C1238.29,-179.4 1227.53,-177.41 1217.5,-176 1010.48,-146.86 955.64,-168.27 748.5,-140 741.31,-139.02 733.75,-137.77 726.36,-136.42"/>
<polygon fill="#63b8ff" stroke="#63b8ff" points="726.9,-132.96 716.42,-134.53 725.6,-139.84 726.9,-132.96"/>
</a>
</g>
</g>
<!-- Node29 -->
<g id="Node000029" class="node">
<title>Node29</title>
<g id="a_Node000029"><a xlink:title=" ">
<polygon fill="#e0e0e0" stroke="#999999" points="841,-134.5 758,-134.5 758,-115.5 841,-115.5 841,-134.5"/>
<text text-anchor="middle" x="799.5" y="-122.5" font-family="Helvetica,sans-Serif" font-size="10.00">output_decl.h</text>
</a>
</g>
</g>
<!-- Node6&#45;&gt;Node29 -->
<g id="edge34_Node000006_Node000029" class="edge">
<title>Node6&#45;&gt;Node29</title>
<g id="a_edge34_Node000006_Node000029"><a xlink:title=" ">
<path fill="none" stroke="#63b8ff" d="M1247.5,-181.44C1237.76,-179.45 1227.27,-177.48 1217.5,-176 1055.46,-151.44 1011.66,-169.8 850.5,-140 846.12,-139.19 841.56,-138.18 837.05,-137.08"/>
<polygon fill="#63b8ff" stroke="#63b8ff" points="837.92,-133.69 827.36,-134.57 836.16,-140.47 837.92,-133.69"/>
</a>
</g>
</g>
<!-- Node30 -->
<g id="Node000030" class="node">
<title>Node30</title>
<g id="a_Node000030"><a xlink:title=" ">
<polygon fill="#e0e0e0" stroke="#999999" points="975.5,-134.5 859.5,-134.5 859.5,-115.5 975.5,-115.5 975.5,-134.5"/>
<text text-anchor="middle" x="917.5" y="-122.5" font-family="Helvetica,sans-Serif" font-size="10.00">comp_loaded_decl.h</text>
</a>
</g>
</g>
<!-- Node6&#45;&gt;Node30 -->
<g id="edge35_Node000006_Node000030" class="edge">
<title>Node6&#45;&gt;Node30</title>
<g id="a_edge35_Node000006_Node000030"><a xlink:title=" ">
<path fill="none" stroke="#63b8ff" d="M1245.65,-181.45C1236.43,-179.57 1226.63,-177.64 1217.5,-176 1114.37,-157.43 1087.6,-158.72 984.5,-140 978.73,-138.95 972.7,-137.79 966.72,-136.59"/>
<polygon fill="#63b8ff" stroke="#63b8ff" points="967.25,-133.13 956.76,-134.56 965.86,-139.99 967.25,-133.13"/>
</a>
</g>
</g>
<!-- Node31 -->
<g id="Node000031" class="node">
<title>Node31</title>
<g id="a_Node000031"><a xlink:title=" ">
<polygon fill="#e0e0e0" stroke="#999999" points="1071.5,-134.5 993.5,-134.5 993.5,-115.5 1071.5,-115.5 1071.5,-134.5"/>
<text text-anchor="middle" x="1032.5" y="-122.5" font-family="Helvetica,sans-Serif" font-size="10.00">comp_decl.h</text>
</a>
</g>
</g>
<!-- Node6&#45;&gt;Node31 -->
<g id="edge36_Node000006_Node000031" class="edge">
<title>Node6&#45;&gt;Node31</title>
<g id="a_edge36_Node000006_Node000031"><a xlink:title=" ">
<path fill="none" stroke="#63b8ff" d="M1248.34,-181.46C1207.17,-171.88 1138.89,-155.63 1080.5,-140 1077.31,-139.15 1074.02,-138.24 1070.71,-137.31"/>
<polygon fill="#63b8ff" stroke="#63b8ff" points="1071.45,-133.88 1060.87,-134.5 1069.52,-140.61 1071.45,-133.88"/>
</a>
</g>
</g>
<!-- Node32 -->
<g id="Node000032" class="node">
<title>Node32</title>
<g id="a_Node000032"><a xlink:title=" ">
<polygon fill="#e0e0e0" stroke="#999999" points="1197.5,-134.5 1089.5,-134.5 1089.5,-115.5 1197.5,-115.5 1197.5,-134.5"/>
<text text-anchor="middle" x="1143.5" y="-122.5" font-family="Helvetica,sans-Serif" font-size="10.00">info_loaded_decl.h</text>
</a>
</g>
</g>
<!-- Node6&#45;&gt;Node32 -->
<g id="edge37_Node000006_Node000032" class="edge">
<title>Node6&#45;&gt;Node32</title>
<g id="a_edge37_Node000006_Node000032"><a xlink:title=" ">
<path fill="none" stroke="#63b8ff" d="M1266.35,-181.37C1242.11,-170.44 1200.13,-151.52 1172.09,-138.88"/>
<polygon fill="#63b8ff" stroke="#63b8ff" points="1173.36,-135.62 1162.8,-134.7 1170.48,-142 1173.36,-135.62"/>
</a>
</g>
</g>
<!-- Node33 -->
<g id="Node000033" class="node">
<title>Node33</title>
<g id="a_Node000033"><a xlink:title=" ">
<polygon fill="#e0e0e0" stroke="#999999" points="1355.5,-134.5 1215.5,-134.5 1215.5,-115.5 1355.5,-115.5 1355.5,-134.5"/>
<text text-anchor="middle" x="1285.5" y="-122.5" font-family="Helvetica,sans-Serif" font-size="10.00">device_mesh_info_decl.h</text>
</a>
</g>
</g>
<!-- Node6&#45;&gt;Node33 -->
<g id="edge38_Node000006_Node000033" class="edge">
<title>Node6&#45;&gt;Node33</title>
<g id="a_edge38_Node000006_Node000033"><a xlink:title=" ">
<path fill="none" stroke="#63b8ff" d="M1285.5,-181.37C1285.5,-172.16 1285.5,-157.29 1285.5,-145.27"/>
<polygon fill="#63b8ff" stroke="#63b8ff" points="1289,-144.91 1285.5,-134.91 1282,-144.91 1289,-144.91"/>
</a>
</g>
</g>
<!-- Node34 -->
<g id="Node000034" class="node">
<title>Node34</title>
<g id="a_Node000034"><a xlink:title=" ">
<polygon fill="#e0e0e0" stroke="#999999" points="1451,-134.5 1374,-134.5 1374,-115.5 1451,-115.5 1451,-134.5"/>
<text text-anchor="middle" x="1412.5" y="-122.5" font-family="Helvetica,sans-Serif" font-size="10.00">array_decl.h</text>
</a>
</g>
</g>
<!-- Node6&#45;&gt;Node34 -->
<g id="edge39_Node000006_Node000034" class="edge">
<title>Node6&#45;&gt;Node34</title>
<g id="a_edge39_Node000006_Node000034"><a xlink:title=" ">
<path fill="none" stroke="#63b8ff" d="M1302.63,-181.37C1324.12,-170.54 1361.2,-151.85 1386.27,-139.22"/>
<polygon fill="#63b8ff" stroke="#63b8ff" points="1387.88,-142.32 1395.24,-134.7 1384.73,-136.07 1387.88,-142.32"/>
</a>
</g>
</g>
<!-- Node35 -->
<g id="Node000035" class="node">
<title>Node35</title>
<g id="a_Node000035"><a xlink:title=" ">
<polygon fill="#e0e0e0" stroke="#999999" points="1545.5,-134.5 1469.5,-134.5 1469.5,-115.5 1545.5,-115.5 1545.5,-134.5"/>
<text text-anchor="middle" x="1507.5" y="-122.5" font-family="Helvetica,sans-Serif" font-size="10.00">input_decl.h</text>
</a>
</g>
</g>
<!-- Node6&#45;&gt;Node35 -->
<g id="edge40_Node000006_Node000035" class="edge">
<title>Node6&#45;&gt;Node35</title>
<g id="a_edge40_Node000006_Node000035"><a xlink:title=" ">
<path fill="none" stroke="#63b8ff" d="M1315.88,-181.43C1350.81,-171.55 1409.84,-154.78 1460.5,-140 1463.26,-139.2 1466.11,-138.36 1468.97,-137.51"/>
<polygon fill="#63b8ff" stroke="#63b8ff" points="1470.09,-140.83 1478.68,-134.64 1468.1,-134.12 1470.09,-140.83"/>
</a>
</g>
</g>
<!-- Node36 -->
<g id="Node000036" class="node">
<title>Node36</title>
<g id="a_Node000036"><a xlink:href="ac__helpers_8h.html" target="_top" xlink:title=" ">
<polygon fill="white" stroke="#666666" points="1641.5,-134.5 1563.5,-134.5 1563.5,-115.5 1641.5,-115.5 1641.5,-134.5"/>
<text text-anchor="middle" x="1602.5" y="-122.5" font-family="Helvetica,sans-Serif" font-size="10.00">ac_helpers.h</text>
</a>
</g>
</g>
<!-- Node6&#45;&gt;Node36 -->
<g id="edge41_Node000006_Node000036" class="edge">
<title>Node6&#45;&gt;Node36</title>
<g id="a_edge41_Node000006_Node000036"><a xlink:title=" ">
<path fill="none" stroke="#63b8ff" d="M1328.64,-183.35C1382,-174.8 1475.48,-158.82 1554.5,-140 1557.94,-139.18 1561.5,-138.27 1565.06,-137.31"/>
<polygon fill="#63b8ff" stroke="#63b8ff" points="1566.27,-140.61 1574.96,-134.54 1564.39,-133.86 1566.27,-140.61"/>
</a>
</g>
</g>
<!-- Node37 -->
<g id="Node000037" class="node">
<title>Node37</title>
<g id="a_Node000037"><a xlink:title=" ">
<polygon fill="#e0e0e0" stroke="#999999" points="1777.5,-140 1659.5,-140 1659.5,-110 1777.5,-110 1777.5,-140"/>
<text text-anchor="start" x="1667.5" y="-128" font-family="Helvetica,sans-Serif" font-size="10.00">scalar_reduce_buffer</text>
<text text-anchor="middle" x="1718.5" y="-117" font-family="Helvetica,sans-Serif" font-size="10.00">_defs.h</text>
</a>
</g>
</g>
<!-- Node6&#45;&gt;Node37 -->
<g id="edge42_Node000006_Node000037" class="edge">
<title>Node6&#45;&gt;Node37</title>
<g id="a_edge42_Node000006_Node000037"><a xlink:title=" ">
<path fill="none" stroke="#63b8ff" d="M1328.63,-185.04C1395.26,-177.17 1527.45,-160.73 1649.33,-140.13"/>
<polygon fill="#63b8ff" stroke="#63b8ff" points="1649.94,-143.58 1659.21,-138.45 1648.76,-136.68 1649.94,-143.58"/>
</a>
</g>
</g>
<!-- Node38 -->
<g id="Node000038" class="node">
<title>Node38</title>
<g id="a_Node000038"><a xlink:title=" ">
<polygon fill="#e0e0e0" stroke="#999999" points="1919,-140 1796,-140 1796,-110 1919,-110 1919,-140"/>
<text text-anchor="start" x="1804" y="-128" font-family="Helvetica,sans-Serif" font-size="10.00">scalar_reduce_buffers</text>
<text text-anchor="middle" x="1857.5" y="-117" font-family="Helvetica,sans-Serif" font-size="10.00">_in_vba.h</text>
</a>
</g>
</g>
<!-- Node6&#45;&gt;Node38 -->
<g id="edge43_Node000006_Node000038" class="edge">
<title>Node6&#45;&gt;Node38</title>
<g id="a_edge43_Node000006_Node000038"><a xlink:title=" ">
<path fill="none" stroke="#63b8ff" d="M1328.56,-187.09C1413.85,-181.03 1610.42,-165.57 1786.05,-139.96"/>
<polygon fill="#63b8ff" stroke="#63b8ff" points="1786.6,-143.42 1795.99,-138.5 1785.59,-136.5 1786.6,-143.42"/>
</a>
</g>
</g>
<!-- Node6&#45;&gt;Node40 -->
<g id="edge44_Node000006_Node000040" class="edge">
<title>Node6&#45;&gt;Node40</title>
<g id="a_edge44_Node000006_Node000040"><a xlink:title=" ">
<path fill="none" stroke="#63b8ff" d="M1328.62,-189.88C1444.22,-188.97 1770.34,-182.52 2037.5,-140 2042.6,-139.19 2047.92,-138.12 2053.15,-136.94"/>
<polygon fill="#63b8ff" stroke="#63b8ff" points="2054.12,-140.31 2063.02,-134.56 2052.48,-133.5 2054.12,-140.31"/>
</a>
</g>
</g>
<!-- Node9 -->
<g id="Node000009" class="node">
<title>Node9</title>
<g id="a_Node000009"><a xlink:title=" ">
<polygon fill="#e0e0e0" stroke="#999999" points="1031,-19 918,-19 918,0 1031,0 1031,-19"/>
<text text-anchor="middle" x="974.5" y="-7" font-family="Helvetica,sans-Serif" font-size="10.00">cuda_runtime_api.h</text>
</a>
</g>
</g>
<!-- Node8&#45;&gt;Node9 -->
<g id="edge9_Node000008_Node000009" class="edge">
<title>Node8&#45;&gt;Node9</title>
<g id="a_edge9_Node000008_Node000009"><a xlink:title=" ">
<path fill="none" stroke="#63b8ff" d="M1552.29,-59.19C1439.18,-49.65 1168.03,-26.81 1041.57,-16.15"/>
<polygon fill="#63b8ff" stroke="#63b8ff" points="1041.51,-12.63 1031.25,-15.28 1040.92,-19.61 1041.51,-12.63"/>
</a>
</g>
</g>
<!-- Node10 -->
<g id="Node000010" class="node">
<title>Node10</title>
<g id="a_Node000010"><a xlink:title=" ">
<polygon fill="#e0e0e0" stroke="#999999" points="1641.5,-19 1565.5,-19 1565.5,0 1641.5,0 1641.5,-19"/>
<text text-anchor="middle" x="1603.5" y="-7" font-family="Helvetica,sans-Serif" font-size="10.00">cuda_fp16.h</text>
</a>
</g>
</g>
<!-- Node8&#45;&gt;Node10 -->
<g id="edge10_Node000008_Node000010" class="edge">
<title>Node8&#45;&gt;Node10</title>
<g id="a_edge10_Node000008_Node000010"><a xlink:title=" ">
<path fill="none" stroke="#63b8ff" d="M1603.5,-54.75C1603.5,-47.8 1603.5,-37.85 1603.5,-29.13"/>
<polygon fill="#63b8ff" stroke="#63b8ff" points="1607,-29.09 1603.5,-19.09 1600,-29.09 1607,-29.09"/>
</a>
</g>
</g>
<!-- Node12&#45;&gt;Node8 -->
<g id="edge13_Node000012_Node000008" class="edge">
<title>Node12&#45;&gt;Node8</title>
<g id="a_edge13_Node000012_Node000008"><a xlink:title=" ">
<path fill="none" stroke="#63b8ff" d="M256.57,-115.38C263.55,-113.23 271.25,-111.2 278.5,-110 341.45,-99.55 1289.95,-73.8 1542.25,-67.11"/>
<polygon fill="#63b8ff" stroke="#63b8ff" points="1542.43,-70.61 1552.33,-66.84 1542.24,-63.61 1542.43,-70.61"/>
</a>
</g>
</g>
<!-- Node12&#45;&gt;Node9 -->
<g id="edge14_Node000012_Node000009" class="edge">
<title>Node12&#45;&gt;Node9</title>
<g id="a_edge14_Node000012_Node000009"><a xlink:title=" ">
<path fill="none" stroke="#63b8ff" d="M258.1,-115.45C264.7,-113.46 271.82,-111.49 278.5,-110 506.52,-59.32 782.57,-28.81 907.42,-16.63"/>
<polygon fill="#63b8ff" stroke="#63b8ff" points="907.97,-20.1 917.58,-15.65 907.29,-13.13 907.97,-20.1"/>
</a>
</g>
</g>
<!-- Node12&#45;&gt;Node11 -->
<g id="edge16_Node000012_Node000011" class="edge">
<title>Node12&#45;&gt;Node11</title>
<g id="a_edge16_Node000012_Node000011"><a xlink:title=" ">
<path fill="none" stroke="#63b8ff" d="M227.78,-115.37C223.15,-106.9 215.95,-93.74 210.11,-83.07"/>
<polygon fill="#63b8ff" stroke="#63b8ff" points="213.11,-81.26 205.24,-74.17 206.97,-84.62 213.11,-81.26"/>
</a>
</g>
</g>
<!-- Node16 -->
<g id="Node000016" class="node">
<title>Node16</title>
<g id="a_Node000016"><a xlink:href="acreal_8h.html" target="_top" xlink:title=" ">
<polygon fill="white" stroke="#666666" points="1742.5,-19 1686.5,-19 1686.5,0 1742.5,0 1742.5,-19"/>
<text text-anchor="middle" x="1714.5" y="-7" font-family="Helvetica,sans-Serif" font-size="10.00">acreal.h</text>
</a>
</g>
</g>
<!-- Node12&#45;&gt;Node16 -->
<g id="edge15_Node000012_Node000016" class="edge">
<title>Node12&#45;&gt;Node16</title>
<g id="a_edge15_Node000012_Node000016"><a xlink:title=" ">
<path fill="none" stroke="#63b8ff" d="M257.07,-115.39C263.93,-113.29 271.44,-111.29 278.5,-110 579.08,-55.04 1346.44,-49.24 1650.5,-19 1658.83,-18.17 1667.74,-17.1 1676.19,-16.01"/>
<polygon fill="#63b8ff" stroke="#63b8ff" points="1676.74,-19.46 1686.19,-14.67 1675.82,-12.53 1676.74,-19.46"/>
</a>
</g>
</g>
<!-- Node18 -->
<g id="Node000018" class="node">
<title>Node18</title>
<g id="a_Node000018"><a xlink:href="host__datatypes_8h.html" target="_top" xlink:title=" ">
<polygon fill="white" stroke="#666666" points="1793,-74 1692,-74 1692,-55 1793,-55 1793,-74"/>
<text text-anchor="middle" x="1742.5" y="-62" font-family="Helvetica,sans-Serif" font-size="10.00">host_datatypes.h</text>
</a>
</g>
</g>
<!-- Node12&#45;&gt;Node18 -->
<g id="edge17_Node000012_Node000018" class="edge">
<title>Node12&#45;&gt;Node18</title>
<g id="a_edge17_Node000012_Node000018"><a xlink:title=" ">
<path fill="none" stroke="#63b8ff" d="M256.09,-115.49C263.2,-113.29 271.08,-111.2 278.5,-110 582.41,-60.73 1356.3,-94.49 1663.5,-74 1669.41,-73.61 1675.56,-73.11 1681.7,-72.54"/>
<polygon fill="#63b8ff" stroke="#63b8ff" points="1682.36,-76 1691.98,-71.55 1681.69,-69.03 1682.36,-76"/>
</a>
</g>
</g>
<!-- Node18&#45;&gt;Node16 -->
<g id="edge18_Node000018_Node000016" class="edge">
<title>Node18&#45;&gt;Node16</title>
<g id="a_edge18_Node000018_Node000016"><a xlink:title=" ">
<path fill="none" stroke="#63b8ff" d="M1737.88,-54.75C1734.04,-47.49 1728.48,-36.95 1723.74,-27.98"/>
<polygon fill="#63b8ff" stroke="#63b8ff" points="1726.8,-26.3 1719.04,-19.09 1720.61,-29.57 1726.8,-26.3"/>
</a>
</g>
</g>
<!-- Node19 -->
<g id="Node000019" class="node">
<title>Node19</title>
<g id="a_Node000019"><a xlink:title=" ">
<polygon fill="#e0e0e0" stroke="#999999" points="2020.5,-19 1964.5,-19 1964.5,0 2020.5,0 2020.5,-19"/>
<text text-anchor="middle" x="1992.5" y="-7" font-family="Helvetica,sans-Serif" font-size="10.00">stddef.h</text>
</a>
</g>
</g>
<!-- Node18&#45;&gt;Node19 -->
<g id="edge19_Node000018_Node000019" class="edge">
<title>Node18&#45;&gt;Node19</title>
<g id="a_edge19_Node000018_Node000019"><a xlink:title=" ">
<path fill="none" stroke="#63b8ff" d="M1782.67,-54.98C1830.02,-44.95 1908.12,-28.39 1954.5,-18.56"/>
<polygon fill="#63b8ff" stroke="#63b8ff" points="1955.4,-21.94 1964.46,-16.45 1953.95,-15.1 1955.4,-21.94"/>
</a>
</g>
</g>
<!-- Node20&#45;&gt;Node5 -->
<g id="edge23_Node000020_Node000005" class="edge">
<title>Node20&#45;&gt;Node5</title>
<g id="a_edge23_Node000020_Node000005"><a xlink:title=" ">
<path fill="none" stroke="#63b8ff" d="M2192.71,-115.43C2187.08,-113.57 2181.1,-111.66 2175.5,-110 2131.33,-96.91 2080.14,-83.86 2045.36,-75.31"/>
<polygon fill="#63b8ff" stroke="#63b8ff" points="2046.11,-71.89 2035.56,-72.92 2044.45,-78.69 2046.11,-71.89"/>
</a>
</g>
</g>
<!-- Node20&#45;&gt;Node7 -->
<g id="edge25_Node000020_Node000007" class="edge">
<title>Node20&#45;&gt;Node7</title>
<g id="a_edge25_Node000020_Node000007"><a xlink:title=" ">
<path fill="none" stroke="#63b8ff" d="M2197.29,-115.49C2173.82,-105.62 2134.89,-89.23 2108.04,-77.93"/>
<polygon fill="#63b8ff" stroke="#63b8ff" points="2109.31,-74.67 2098.74,-74.02 2106.6,-81.12 2109.31,-74.67"/>
</a>
</g>
</g>
<!-- Node20&#45;&gt;Node8 -->
<g id="edge28_Node000020_Node000008" class="edge">
<title>Node20&#45;&gt;Node8</title>
<g id="a_edge28_Node000020_Node000008"><a xlink:title=" ">
<path fill="none" stroke="#63b8ff" d="M2189.48,-118.04C2175.43,-115.24 2158.13,-112.07 2142.5,-110 1939.64,-83.19 1887.26,-92.81 1683.5,-74 1677.38,-73.44 1671.01,-72.81 1664.65,-72.17"/>
<polygon fill="#63b8ff" stroke="#63b8ff" points="1665,-68.69 1654.69,-71.15 1664.28,-75.65 1665,-68.69"/>
</a>
</g>
</g>
<!-- Node20&#45;&gt;Node18 -->
<g id="edge22_Node000020_Node000018" class="edge">
<title>Node20&#45;&gt;Node18</title>
<g id="a_edge22_Node000020_Node000018"><a xlink:title=" ">
<path fill="none" stroke="#63b8ff" d="M2189.45,-118.26C2175.39,-115.51 2158.09,-112.32 2142.5,-110 2022.78,-92.19 1881.94,-78.11 1803.37,-70.86"/>
<polygon fill="#63b8ff" stroke="#63b8ff" points="1803.45,-67.36 1793.17,-69.93 1802.81,-74.33 1803.45,-67.36"/>
</a>
</g>
</g>
<!-- Node20&#45;&gt;Node19 -->
<g id="edge21_Node000020_Node000019" class="edge">
<title>Node20&#45;&gt;Node19</title>
<g id="a_edge21_Node000020_Node000019"><a xlink:title=" ">
<path fill="none" stroke="#63b8ff" d="M2215.08,-115.28C2210.51,-100.48 2199.16,-70.56 2178.5,-55 2135.07,-22.29 2071.1,-13.22 2030.64,-10.93"/>
<polygon fill="#63b8ff" stroke="#63b8ff" points="2030.78,-7.43 2020.63,-10.47 2030.46,-14.42 2030.78,-7.43"/>
</a>
</g>
</g>
<!-- Node21 -->
<g id="Node000021" class="node">
<title>Node21</title>
<g id="a_Node000021"><a xlink:title=" ">
<polygon fill="#e0e0e0" stroke="#999999" points="2279,-74 2226,-74 2226,-55 2279,-55 2279,-74"/>
<text text-anchor="middle" x="2252.5" y="-62" font-family="Helvetica,sans-Serif" font-size="10.00">stdint.h</text>
</a>
</g>
</g>
<!-- Node20&#45;&gt;Node21 -->
<g id="edge24_Node000020_Node000021" class="edge">
<title>Node20&#45;&gt;Node21</title>
<g id="a_edge24_Node000020_Node000021"><a xlink:title=" ">
<path fill="none" stroke="#63b8ff" d="M2222.66,-115.37C2227.73,-106.9 2235.6,-93.74 2241.99,-83.07"/>
<polygon fill="#63b8ff" stroke="#63b8ff" points="2245.18,-84.55 2247.31,-74.17 2239.18,-80.95 2245.18,-84.55"/>
</a>
</g>
</g>
<!-- Node22 -->
<g id="Node000022" class="node">
<title>Node22</title>
<g id="a_Node000022"><a xlink:title=" ">
<polygon fill="#e0e0e0" stroke="#999999" points="2350,-74 2297,-74 2297,-55 2350,-55 2350,-74"/>
<text text-anchor="middle" x="2323.5" y="-62" font-family="Helvetica,sans-Serif" font-size="10.00">stdlib.h</text>
</a>
</g>
</g>
<!-- Node20&#45;&gt;Node22 -->
<g id="edge26_Node000020_Node000022" class="edge">
<title>Node20&#45;&gt;Node22</title>
<g id="a_edge26_Node000020_Node000022"><a xlink:title=" ">
<path fill="none" stroke="#63b8ff" d="M2233.14,-115.37C2250.44,-105.82 2278.55,-90.31 2298.83,-79.12"/>
<polygon fill="#63b8ff" stroke="#63b8ff" points="2300.73,-82.06 2307.8,-74.17 2297.35,-75.93 2300.73,-82.06"/>
</a>
</g>
</g>
<!-- Node23 -->
<g id="Node000023" class="node">
<title>Node23</title>
<g id="a_Node000023"><a xlink:title=" ">
<polygon fill="#e0e0e0" stroke="#999999" points="2169.5,-74 2121.5,-74 2121.5,-55 2169.5,-55 2169.5,-74"/>
<text text-anchor="middle" x="2145.5" y="-62" font-family="Helvetica,sans-Serif" font-size="10.00">time.h</text>
</a>
</g>
</g>
<!-- Node20&#45;&gt;Node23 -->
<g id="edge27_Node000020_Node000023" class="edge">
<title>Node20&#45;&gt;Node23</title>
<g id="a_edge27_Node000020_Node000023"><a xlink:title=" ">
<path fill="none" stroke="#63b8ff" d="M2206.88,-115.37C2195.6,-106.21 2177.58,-91.56 2163.97,-80.51"/>
<polygon fill="#63b8ff" stroke="#63b8ff" points="2166.14,-77.76 2156.17,-74.17 2161.72,-83.19 2166.14,-77.76"/>
</a>
</g>
</g>
<!-- Node48 -->
<g id="Node000048" class="node">
<title>Node48</title>
<g id="a_Node000048"><a xlink:title=" ">
<polygon fill="#e0e0e0" stroke="#999999" points="1094,-206 975,-206 975,-176 1094,-176 1094,-206"/>
<text text-anchor="start" x="983" y="-194" font-family="Helvetica,sans-Serif" font-size="10.00">device_load_uniform</text>
<text text-anchor="middle" x="1034.5" y="-183" font-family="Helvetica,sans-Serif" font-size="10.00">_decl.h</text>
</a>
</g>
</g>
<!-- Node47&#45;&gt;Node48 -->
<g id="edge51_Node000047_Node000048" class="edge">
<title>Node47&#45;&gt;Node48</title>
<g id="a_edge51_Node000047_Node000048"><a xlink:title=" ">
<path fill="none" stroke="#63b8ff" d="M974.83,-241.87C983.98,-234.22 997.69,-222.76 1009.67,-212.75"/>
<polygon fill="#63b8ff" stroke="#63b8ff" points="1012.18,-215.21 1017.61,-206.11 1007.69,-209.84 1012.18,-215.21"/>
</a>
</g>
</g>
<!-- Node49 -->
<g id="Node000049" class="node">
<title>Node49</title>
<g id="a_Node000049"><a xlink:title=" ">
<polygon fill="#e0e0e0" stroke="#999999" points="956.5,-206 834.5,-206 834.5,-176 956.5,-176 956.5,-206"/>
<text text-anchor="start" x="842.5" y="-194" font-family="Helvetica,sans-Serif" font-size="10.00">device_store_uniform</text>
<text text-anchor="middle" x="895.5" y="-183" font-family="Helvetica,sans-Serif" font-size="10.00">_decl.h</text>
</a>
</g>
</g>
<!-- Node47&#45;&gt;Node49 -->
<g id="edge52_Node000047_Node000049" class="edge">
<title>Node47&#45;&gt;Node49</title>
<g id="a_edge52_Node000047_Node000049"><a xlink:title=" ">
<path fill="none" stroke="#63b8ff" d="M954.32,-241.87C945.3,-234.22 931.78,-222.76 919.97,-212.75"/>
<polygon fill="#63b8ff" stroke="#63b8ff" points="922.04,-209.91 912.15,-206.11 917.51,-215.25 922.04,-209.91"/>
</a>
</g>
</g>
</g>
</svg>
