<?xml version="1.0" encoding="UTF-8" standalone="no"?>
<!DOCTYPE svg PUBLIC "-//W3C//DTD SVG 1.1//EN"
 "http://www.w3.org/Graphics/SVG/1.1/DTD/svg11.dtd">
<!-- Generated by graphviz version 2.43.0 (0)
 -->
<!-- Title: src/utils/modelsolver&#45;legacy&#45;do&#45;not&#45;modify.c Pages: 1 -->
<svg width="2804pt" height="434pt"
 viewBox="0.00 0.00 2804.23 434.00" xmlns="http://www.w3.org/2000/svg" xmlns:xlink="http://www.w3.org/1999/xlink">
<g id="graph0" class="graph" transform="scale(1 1) rotate(0) translate(4 430)">
<title>src/utils/modelsolver&#45;legacy&#45;do&#45;not&#45;modify.c</title>
<!-- Node1 -->
<g id="Node000001" class="node">
<title>Node1</title>
<g id="a_Node000001"><a xlink:title=" ">
<polygon fill="#999999" stroke="#666666" points="1619.73,-426 1487.73,-426 1487.73,-396 1619.73,-396 1619.73,-426"/>
<text text-anchor="start" x="1495.73" y="-414" font-family="Helvetica,sans-Serif" font-size="10.00">src/utils/modelsolver</text>
<text text-anchor="middle" x="1553.73" y="-403" font-family="Helvetica,sans-Serif" font-size="10.00">&#45;legacy&#45;do&#45;not&#45;modify.c</text>
</a>
</g>
</g>
<!-- Node2 -->
<g id="Node000002" class="node">
<title>Node2</title>
<g id="a_Node000002"><a xlink:href="astaroth__utils_8h.html" target="_top" xlink:title="Functions for loading and updating AcMeshInfo.">
<polygon fill="white" stroke="#666666" points="1978.73,-360 1886.73,-360 1886.73,-341 1978.73,-341 1978.73,-360"/>
<text text-anchor="middle" x="1932.73" y="-348" font-family="Helvetica,sans-Serif" font-size="10.00">astaroth_utils.h</text>
</a>
</g>
</g>
<!-- Node1&#45;&gt;Node2 -->
<g id="edge1_Node000001_Node000002" class="edge">
<title>Node1&#45;&gt;Node2</title>
<g id="a_edge1_Node000001_Node000002"><a xlink:title=" ">
<path fill="none" stroke="#63b8ff" d="M1619.74,-399.81C1692.36,-388.6 1807.84,-370.78 1876.37,-360.2"/>
<polygon fill="#63b8ff" stroke="#63b8ff" points="1877.19,-363.61 1886.54,-358.63 1876.12,-356.7 1877.19,-363.61"/>
</a>
</g>
</g>
<!-- Node5 -->
<g id="Node000005" class="node">
<title>Node5</title>
<g id="a_Node000005"><a xlink:title=" ">
<polygon fill="#e0e0e0" stroke="#999999" points="286.73,-74 224.73,-74 224.73,-55 286.73,-55 286.73,-74"/>
<text text-anchor="middle" x="255.73" y="-62" font-family="Helvetica,sans-Serif" font-size="10.00">stdbool.h</text>
</a>
</g>
</g>
<!-- Node1&#45;&gt;Node5 -->
<g id="edge62_Node000001_Node000005" class="edge">
<title>Node1&#45;&gt;Node5</title>
<g id="a_edge62_Node000001_Node000005"><a xlink:title=" ">
<path fill="none" stroke="#63b8ff" d="M1487.44,-408.08C1211.69,-399.66 169.73,-363.44 169.73,-296.5 169.73,-296.5 169.73,-296.5 169.73,-179 169.73,-136.32 208.84,-99.58 234.31,-80.19"/>
<polygon fill="#63b8ff" stroke="#63b8ff" points="236.66,-82.8 242.66,-74.07 232.53,-77.15 236.66,-82.8"/>
</a>
</g>
</g>
<!-- Node14 -->
<g id="Node000014" class="node">
<title>Node14</title>
<g id="a_Node000014"><a xlink:title=" ">
<polygon fill="#e0e0e0" stroke="#999999" points="2073.23,-74 2022.23,-74 2022.23,-55 2073.23,-55 2073.23,-74"/>
<text text-anchor="middle" x="2047.73" y="-62" font-family="Helvetica,sans-Serif" font-size="10.00">math.h</text>
</a>
</g>
</g>
<!-- Node1&#45;&gt;Node14 -->
<g id="edge61_Node000001_Node000014" class="edge">
<title>Node1&#45;&gt;Node14</title>
<g id="a_edge61_Node000001_Node000014"><a xlink:title=" ">
<path fill="none" stroke="#63b8ff" d="M1550.21,-395.67C1542.88,-362.06 1530.03,-277.5 1572.73,-231 1734.39,-54.96 1948.59,-313.33 2100.73,-129 2114.9,-111.83 2092.46,-92.16 2072.56,-79.32"/>
<polygon fill="#63b8ff" stroke="#63b8ff" points="2074.38,-76.33 2064.02,-74.1 2070.73,-82.3 2074.38,-76.33"/>
</a>
</g>
</g>
<!-- Node20 -->
<g id="Node000020" class="node">
<title>Node20</title>
<g id="a_Node000020"><a xlink:href="errchk_8h.html" target="_top" xlink:title="Brief info.">
<polygon fill="white" stroke="#666666" points="141.73,-129 85.73,-129 85.73,-110 141.73,-110 141.73,-129"/>
<text text-anchor="middle" x="113.73" y="-117" font-family="Helvetica,sans-Serif" font-size="10.00">errchk.h</text>
</a>
</g>
</g>
<!-- Node1&#45;&gt;Node20 -->
<g id="edge63_Node000001_Node000020" class="edge">
<title>Node1&#45;&gt;Node20</title>
<g id="a_edge63_Node000001_Node000020"><a xlink:title=" ">
<path fill="none" stroke="#63b8ff" d="M1487.5,-409.48C1217.63,-407.11 212.57,-395.93 155.73,-360 128.84,-343.01 122.73,-328.31 122.73,-296.5 122.73,-296.5 122.73,-296.5 122.73,-239.5 122.73,-204.05 118.71,-162.83 116.04,-139.39"/>
<polygon fill="#63b8ff" stroke="#63b8ff" points="119.48,-138.66 114.83,-129.14 112.53,-139.48 119.48,-138.66"/>
</a>
</g>
</g>
<!-- Node58 -->
<g id="Node000058" class="node">
<title>Node58</title>
<g id="a_Node000058"><a xlink:title=" ">
<polygon fill="#e0e0e0" stroke="#999999" points="2062.23,-360 1997.23,-360 1997.23,-341 2062.23,-341 2062.23,-360"/>
<text text-anchor="middle" x="2029.73" y="-348" font-family="Helvetica,sans-Serif" font-size="10.00">memory.h</text>
</a>
</g>
</g>
<!-- Node1&#45;&gt;Node58 -->
<g id="edge64_Node000001_Node000058" class="edge">
<title>Node1&#45;&gt;Node58</title>
<g id="a_edge64_Node000001_Node000058"><a xlink:title=" ">
<path fill="none" stroke="#63b8ff" d="M1619.77,-404.15C1702.97,-396.39 1850.52,-381.33 1986.99,-359.98"/>
<polygon fill="#63b8ff" stroke="#63b8ff" points="1987.88,-363.38 1997.22,-358.36 1986.79,-356.47 1987.88,-363.38"/>
</a>
</g>
</g>
<!-- Node3 -->
<g id="Node000003" class="node">
<title>Node3</title>
<g id="a_Node000003"><a xlink:href="astaroth_8h.html" target="_top" xlink:title=" ">
<polygon fill="white" stroke="#666666" points="1965.73,-305 1899.73,-305 1899.73,-286 1965.73,-286 1965.73,-305"/>
<text text-anchor="middle" x="1932.73" y="-293" font-family="Helvetica,sans-Serif" font-size="10.00">astaroth.h</text>
</a>
</g>
</g>
<!-- Node2&#45;&gt;Node3 -->
<g id="edge2_Node000002_Node000003" class="edge">
<title>Node2&#45;&gt;Node3</title>
<g id="a_edge2_Node000002_Node000003"><a xlink:title=" ">
<path fill="none" stroke="#63b8ff" d="M1932.73,-340.75C1932.73,-333.8 1932.73,-323.85 1932.73,-315.13"/>
<polygon fill="#63b8ff" stroke="#63b8ff" points="1936.23,-315.09 1932.73,-305.09 1929.23,-315.09 1936.23,-315.09"/>
</a>
</g>
</g>
<!-- Node56 -->
<g id="Node000056" class="node">
<title>Node56</title>
<g id="a_Node000056"><a xlink:title=" ">
<polygon fill="#e0e0e0" stroke="#999999" points="2039.73,-305 1983.73,-305 1983.73,-286 2039.73,-286 2039.73,-305"/>
<text text-anchor="middle" x="2011.73" y="-293" font-family="Helvetica,sans-Serif" font-size="10.00">stdarg.h</text>
</a>
</g>
</g>
<!-- Node2&#45;&gt;Node56 -->
<g id="edge59_Node000002_Node000056" class="edge">
<title>Node2&#45;&gt;Node56</title>
<g id="a_edge59_Node000002_Node000056"><a xlink:title=" ">
<path fill="none" stroke="#63b8ff" d="M1945.42,-340.98C1957.55,-332.84 1976.08,-320.41 1990.47,-310.76"/>
<polygon fill="#63b8ff" stroke="#63b8ff" points="1992.45,-313.65 1998.8,-305.17 1988.55,-307.84 1992.45,-313.65"/>
</a>
</g>
</g>
<!-- Node57 -->
<g id="Node000057" class="node">
<title>Node57</title>
<g id="a_Node000057"><a xlink:href="astaroth__lib_8h.html" target="_top" xlink:title=" ">
<polygon fill="white" stroke="#666666" points="2141.23,-305 2058.23,-305 2058.23,-286 2141.23,-286 2141.23,-305"/>
<text text-anchor="middle" x="2099.73" y="-293" font-family="Helvetica,sans-Serif" font-size="10.00">astaroth_lib.h</text>
</a>
</g>
</g>
<!-- Node2&#45;&gt;Node57 -->
<g id="edge60_Node000002_Node000057" class="edge">
<title>Node2&#45;&gt;Node57</title>
<g id="a_edge60_Node000002_Node000057"><a xlink:title=" ">
<path fill="none" stroke="#63b8ff" d="M1959.56,-340.98C1987.59,-332.09 2031.77,-318.07 2063.03,-308.15"/>
<polygon fill="#63b8ff" stroke="#63b8ff" points="2064.21,-311.44 2072.68,-305.08 2062.09,-304.77 2064.21,-311.44"/>
</a>
</g>
</g>
<!-- Node4 -->
<g id="Node000004" class="node">
<title>Node4</title>
<g id="a_Node000004"><a xlink:href="astaroth__base_8h.html" target="_top" xlink:title=" ">
<polygon fill="white" stroke="#666666" points="1246.23,-250 1151.23,-250 1151.23,-231 1246.23,-231 1246.23,-250"/>
<text text-anchor="middle" x="1198.73" y="-238" font-family="Helvetica,sans-Serif" font-size="10.00">astaroth_base.h</text>
</a>
</g>
</g>
<!-- Node3&#45;&gt;Node4 -->
<g id="edge3_Node000003_Node000004" class="edge">
<title>Node3&#45;&gt;Node4</title>
<g id="a_edge3_Node000003_Node000004"><a xlink:title=" ">
<path fill="none" stroke="#63b8ff" d="M1899.28,-292.08C1784.11,-283.77 1403.04,-256.25 1256.68,-245.68"/>
<polygon fill="#63b8ff" stroke="#63b8ff" points="1256.78,-242.18 1246.55,-244.95 1256.27,-249.16 1256.78,-242.18"/>
</a>
</g>
</g>
<!-- Node44 -->
<g id="Node000044" class="node">
<title>Node44</title>
<g id="a_Node000044"><a xlink:href="astaroth__grid_8h.html" target="_top" xlink:title=" ">
<polygon fill="white" stroke="#666666" points="2682.73,-250 2592.73,-250 2592.73,-231 2682.73,-231 2682.73,-250"/>
<text text-anchor="middle" x="2637.73" y="-238" font-family="Helvetica,sans-Serif" font-size="10.00">astaroth_grid.h</text>
</a>
</g>
</g>
<!-- Node3&#45;&gt;Node44 -->
<g id="edge47_Node000003_Node000044" class="edge">
<title>Node3&#45;&gt;Node44</title>
<g id="a_edge47_Node000003_Node000044"><a xlink:title=" ">
<path fill="none" stroke="#63b8ff" d="M1966.13,-287.3C1969.03,-286.81 1971.92,-286.36 1974.73,-286 2240.32,-251.45 2312.4,-278.44 2582.58,-250"/>
<polygon fill="#63b8ff" stroke="#63b8ff" points="2583.12,-253.47 2592.69,-248.92 2582.37,-246.51 2583.12,-253.47"/>
</a>
</g>
</g>
<!-- Node45 -->
<g id="Node000045" class="node">
<title>Node45</title>
<g id="a_Node000045"><a xlink:href="astaroth__node_8h.html" target="_top" xlink:title=" ">
<polygon fill="white" stroke="#666666" points="2796.23,-250 2701.23,-250 2701.23,-231 2796.23,-231 2796.23,-250"/>
<text text-anchor="middle" x="2748.73" y="-238" font-family="Helvetica,sans-Serif" font-size="10.00">astaroth_node.h</text>
</a>
</g>
</g>
<!-- Node3&#45;&gt;Node45 -->
<g id="edge48_Node000003_Node000045" class="edge">
<title>Node3&#45;&gt;Node45</title>
<g id="a_edge48_Node000003_Node000045"><a xlink:title=" ">
<path fill="none" stroke="#63b8ff" d="M1966.12,-287.27C1969.02,-286.79 1971.92,-286.35 1974.73,-286 2288.06,-246.65 2372.5,-280.85 2691.2,-249.93"/>
<polygon fill="#63b8ff" stroke="#63b8ff" points="2691.57,-253.41 2701.18,-248.95 2690.89,-246.44 2691.57,-253.41"/>
</a>
</g>
</g>
<!-- Node46 -->
<g id="Node000046" class="node">
<title>Node46</title>
<g id="a_Node000046"><a xlink:href="astaroth__device_8h.html" target="_top" xlink:title=" ">
<polygon fill="white" stroke="#666666" points="449.73,-250 345.73,-250 345.73,-231 449.73,-231 449.73,-250"/>
<text text-anchor="middle" x="397.73" y="-238" font-family="Helvetica,sans-Serif" font-size="10.00">astaroth_device.h</text>
</a>
</g>
</g>
<!-- Node3&#45;&gt;Node46 -->
<g id="edge49_Node000003_Node000046" class="edge">
<title>Node3&#45;&gt;Node46</title>
<g id="a_edge49_Node000003_Node000046"><a xlink:title=" ">
<path fill="none" stroke="#63b8ff" d="M1899.6,-293.36C1705.87,-286.67 719.37,-252.61 460.18,-243.66"/>
<polygon fill="#63b8ff" stroke="#63b8ff" points="459.94,-240.15 449.82,-243.3 459.69,-247.14 459.94,-240.15"/>
</a>
</g>
</g>
<!-- Node49 -->
<g id="Node000049" class="node">
<title>Node49</title>
<g id="a_Node000049"><a xlink:href="astaroth__legacy_8h.html" target="_top" xlink:title=" ">
<polygon fill="white" stroke="#666666" points="1683.73,-250 1581.73,-250 1581.73,-231 1683.73,-231 1683.73,-250"/>
<text text-anchor="middle" x="1632.73" y="-238" font-family="Helvetica,sans-Serif" font-size="10.00">astaroth_legacy.h</text>
</a>
</g>
</g>
<!-- Node3&#45;&gt;Node49 -->
<g id="edge52_Node000003_Node000049" class="edge">
<title>Node3&#45;&gt;Node49</title>
<g id="a_edge52_Node000003_Node000049"><a xlink:title=" ">
<path fill="none" stroke="#63b8ff" d="M1899.47,-288.63C1849.18,-279.74 1753.08,-262.76 1691,-251.79"/>
<polygon fill="#63b8ff" stroke="#63b8ff" points="1691.41,-248.31 1680.96,-250.02 1690.2,-255.21 1691.41,-248.31"/>
</a>
</g>
</g>
<!-- Node50 -->
<g id="Node000050" class="node">
<title>Node50</title>
<g id="a_Node000050"><a xlink:title=" ">
<polygon fill="#e0e0e0" stroke="#999999" points="1841.23,-250 1702.23,-250 1702.23,-231 1841.23,-231 1841.23,-250"/>
<text text-anchor="middle" x="1771.73" y="-238" font-family="Helvetica,sans-Serif" font-size="10.00">device_set_input_decls.h</text>
</a>
</g>
</g>
<!-- Node3&#45;&gt;Node50 -->
<g id="edge53_Node000003_Node000050" class="edge">
<title>Node3&#45;&gt;Node50</title>
<g id="a_edge53_Node000003_Node000050"><a xlink:title=" ">
<path fill="none" stroke="#63b8ff" d="M1906.86,-285.98C1879.95,-277.13 1837.61,-263.19 1807.5,-253.28"/>
<polygon fill="#63b8ff" stroke="#63b8ff" points="1808.39,-249.88 1797.8,-250.08 1806.2,-256.53 1808.39,-249.88"/>
</a>
</g>
</g>
<!-- Node51 -->
<g id="Node000051" class="node">
<title>Node51</title>
<g id="a_Node000051"><a xlink:title=" ">
<polygon fill="#e0e0e0" stroke="#999999" points="2005.73,-250 1859.73,-250 1859.73,-231 2005.73,-231 2005.73,-250"/>
<text text-anchor="middle" x="1932.73" y="-238" font-family="Helvetica,sans-Serif" font-size="10.00">device_get_output_decls.h</text>
</a>
</g>
</g>
<!-- Node3&#45;&gt;Node51 -->
<g id="edge54_Node000003_Node000051" class="edge">
<title>Node3&#45;&gt;Node51</title>
<g id="a_edge54_Node000003_Node000051"><a xlink:title=" ">
<path fill="none" stroke="#63b8ff" d="M1932.73,-285.75C1932.73,-278.8 1932.73,-268.85 1932.73,-260.13"/>
<polygon fill="#63b8ff" stroke="#63b8ff" points="1936.23,-260.09 1932.73,-250.09 1929.23,-260.09 1936.23,-260.09"/>
</a>
</g>
</g>
<!-- Node52 -->
<g id="Node000052" class="node">
<title>Node52</title>
<g id="a_Node000052"><a xlink:title=" ">
<polygon fill="#e0e0e0" stroke="#999999" points="2163.73,-250 2023.73,-250 2023.73,-231 2163.73,-231 2163.73,-250"/>
<text text-anchor="middle" x="2093.73" y="-238" font-family="Helvetica,sans-Serif" font-size="10.00">device_get_input_decls.h</text>
</a>
</g>
</g>
<!-- Node3&#45;&gt;Node52 -->
<g id="edge55_Node000003_Node000052" class="edge">
<title>Node3&#45;&gt;Node52</title>
<g id="a_edge55_Node000003_Node000052"><a xlink:title=" ">
<path fill="none" stroke="#63b8ff" d="M1958.59,-285.98C1985.51,-277.13 2027.84,-263.19 2057.95,-253.28"/>
<polygon fill="#63b8ff" stroke="#63b8ff" points="2059.25,-256.53 2067.66,-250.08 2057.06,-249.88 2059.25,-256.53"/>
</a>
</g>
</g>
<!-- Node53 -->
<g id="Node000053" class="node">
<title>Node53</title>
<g id="a_Node000053"><a xlink:title=" ">
<polygon fill="#e0e0e0" stroke="#999999" points="2311.73,-250 2181.73,-250 2181.73,-231 2311.73,-231 2311.73,-250"/>
<text text-anchor="middle" x="2246.73" y="-238" font-family="Helvetica,sans-Serif" font-size="10.00">get_vtxbufs_declares.h</text>
</a>
</g>
</g>
<!-- Node3&#45;&gt;Node53 -->
<g id="edge56_Node000003_Node000053" class="edge">
<title>Node3&#45;&gt;Node53</title>
<g id="a_edge56_Node000003_Node000053"><a xlink:title=" ">
<path fill="none" stroke="#63b8ff" d="M1966.17,-287.61C1969.06,-287.05 1971.94,-286.51 1974.73,-286 2044.96,-273.15 2125.73,-260.16 2180.89,-251.56"/>
<polygon fill="#63b8ff" stroke="#63b8ff" points="2181.54,-255 2190.88,-250.01 2180.46,-248.09 2181.54,-255"/>
</a>
</g>
</g>
<!-- Node54 -->
<g id="Node000054" class="node">
<title>Node54</title>
<g id="a_Node000054"><a xlink:href="astaroth__runtime__compilation_8h.html" target="_top" xlink:title=" ">
<polygon fill="white" stroke="#666666" points="2503.23,-250 2330.23,-250 2330.23,-231 2503.23,-231 2503.23,-250"/>
<text text-anchor="middle" x="2416.73" y="-238" font-family="Helvetica,sans-Serif" font-size="10.00">astaroth_runtime_compilation.h</text>
</a>
</g>
</g>
<!-- Node3&#45;&gt;Node54 -->
<g id="edge57_Node000003_Node000054" class="edge">
<title>Node3&#45;&gt;Node54</title>
<g id="a_edge57_Node000003_Node000054"><a xlink:title=" ">
<path fill="none" stroke="#63b8ff" d="M1966.14,-287.43C1969.04,-286.91 1971.93,-286.42 1974.73,-286 2039.06,-276.28 2210.61,-260.04 2320.08,-250.1"/>
<polygon fill="#63b8ff" stroke="#63b8ff" points="2320.51,-253.57 2330.15,-249.19 2319.88,-246.6 2320.51,-253.57"/>
</a>
</g>
</g>
<!-- Node55 -->
<g id="Node000055" class="node">
<title>Node55</title>
<g id="a_Node000055"><a xlink:title=" ">
<polygon fill="#e0e0e0" stroke="#999999" points="2574.23,-250 2521.23,-250 2521.23,-231 2574.23,-231 2574.23,-250"/>
<text text-anchor="middle" x="2547.73" y="-238" font-family="Helvetica,sans-Serif" font-size="10.00">string.h</text>
</a>
</g>
</g>
<!-- Node3&#45;&gt;Node55 -->
<g id="edge58_Node000003_Node000055" class="edge">
<title>Node3&#45;&gt;Node55</title>
<g id="a_edge58_Node000003_Node000055"><a xlink:title=" ">
<path fill="none" stroke="#63b8ff" d="M1966.13,-287.32C1969.03,-286.83 1971.92,-286.38 1974.73,-286 2209,-254.6 2274.09,-285.54 2511.11,-249.99"/>
<polygon fill="#63b8ff" stroke="#63b8ff" points="2511.71,-253.44 2521.07,-248.47 2510.65,-246.52 2511.71,-253.44"/>
</a>
</g>
</g>
<!-- Node4&#45;&gt;Node5 -->
<g id="edge4_Node000004_Node000005" class="edge">
<title>Node4&#45;&gt;Node5</title>
<g id="a_edge4_Node000004_Node000005"><a xlink:title=" ">
<path fill="none" stroke="#63b8ff" d="M1150.89,-237.13C1054.36,-232.04 829.42,-218.54 641.73,-195 563.43,-185.18 544.64,-177.52 466.73,-165 413.48,-156.44 261.92,-169.86 226.73,-129 214.69,-115.03 227.21,-95.24 239.34,-81.48"/>
<polygon fill="#63b8ff" stroke="#63b8ff" points="241.93,-83.83 246.25,-74.16 236.84,-79.03 241.93,-83.83"/>
</a>
</g>
</g>
<!-- Node6 -->
<g id="Node000006" class="node">
<title>Node6</title>
<g id="a_Node000006"><a xlink:href="acc__runtime_8h.html" target="_top" xlink:title=" ">
<polygon fill="#fff0f0" stroke="red" points="1206.73,-189.5 1120.73,-189.5 1120.73,-170.5 1206.73,-170.5 1206.73,-189.5"/>
<text text-anchor="middle" x="1163.73" y="-177.5" font-family="Helvetica,sans-Serif" font-size="10.00">acc_runtime.h</text>
</a>
</g>
</g>
<!-- Node4&#45;&gt;Node6 -->
<g id="edge5_Node000004_Node000006" class="edge">
<title>Node4&#45;&gt;Node6</title>
<g id="a_edge5_Node000004_Node000006"><a xlink:title=" ">
<path fill="none" stroke="#63b8ff" d="M1193.56,-230.87C1188.5,-222.4 1180.62,-209.24 1174.24,-198.57"/>
<polygon fill="#63b8ff" stroke="#63b8ff" points="1177.05,-196.45 1168.91,-189.67 1171.04,-200.05 1177.05,-196.45"/>
</a>
</g>
</g>
<!-- Node26 -->
<g id="Node000026" class="node">
<title>Node26</title>
<g id="a_Node000026"><a xlink:title=" ">
<polygon fill="#e0e0e0" stroke="#999999" points="375.23,-129 236.23,-129 236.23,-110 375.23,-110 375.23,-129"/>
<text text-anchor="middle" x="305.73" y="-117" font-family="Helvetica,sans-Serif" font-size="10.00">user_built&#45;in_constants.h</text>
</a>
</g>
</g>
<!-- Node4&#45;&gt;Node26 -->
<g id="edge45_Node000004_Node000026" class="edge">
<title>Node4&#45;&gt;Node26</title>
<g id="a_edge45_Node000004_Node000026"><a xlink:title=" ">
<path fill="none" stroke="#63b8ff" d="M1151.03,-233.14C1004.07,-213.56 557.41,-154.04 379.75,-130.36"/>
<polygon fill="#63b8ff" stroke="#63b8ff" points="380.09,-126.88 369.71,-129.03 379.16,-133.82 380.09,-126.88"/>
</a>
</g>
</g>
<!-- Node40 -->
<g id="Node000040" class="node">
<title>Node40</title>
<g id="a_Node000040"><a xlink:href="func__define_8h.html" target="_top" xlink:title=" ">
<polygon fill="white" stroke="#666666" points="2091.73,-129 2009.73,-129 2009.73,-110 2091.73,-110 2091.73,-129"/>
<text text-anchor="middle" x="2050.73" y="-117" font-family="Helvetica,sans-Serif" font-size="10.00">func_define.h</text>
</a>
</g>
</g>
<!-- Node4&#45;&gt;Node40 -->
<g id="edge44_Node000004_Node000040" class="edge">
<title>Node4&#45;&gt;Node40</title>
<g id="a_edge44_Node000004_Node000040"><a xlink:title=" ">
<path fill="none" stroke="#63b8ff" d="M1202.33,-230.59C1209.5,-214.18 1227.27,-179.54 1254.73,-165 1325.76,-127.36 1881.85,-137.28 1999.59,-128.78"/>
<polygon fill="#63b8ff" stroke="#63b8ff" points="1999.93,-132.26 2009.58,-127.9 1999.31,-125.29 1999.93,-132.26"/>
</a>
</g>
</g>
<!-- Node43 -->
<g id="Node000043" class="node">
<title>Node43</title>
<g id="a_Node000043"><a xlink:title=" ">
<polygon fill="#e0e0e0" stroke="#999999" points="1394.23,-195 1263.23,-195 1263.23,-165 1394.23,-165 1394.23,-195"/>
<text text-anchor="start" x="1271.23" y="-183" font-family="Helvetica,sans-Serif" font-size="10.00">user_builtin_non_scalar</text>
<text text-anchor="middle" x="1328.73" y="-172" font-family="Helvetica,sans-Serif" font-size="10.00">_constants.h</text>
</a>
</g>
</g>
<!-- Node4&#45;&gt;Node43 -->
<g id="edge46_Node000004_Node000043" class="edge">
<title>Node4&#45;&gt;Node43</title>
<g id="a_edge46_Node000004_Node000043"><a xlink:title=" ">
<path fill="none" stroke="#63b8ff" d="M1217.63,-230.99C1236.01,-222.72 1264.53,-209.89 1288.07,-199.3"/>
<polygon fill="#63b8ff" stroke="#63b8ff" points="1289.79,-202.36 1297.47,-195.06 1286.92,-195.98 1289.79,-202.36"/>
</a>
</g>
</g>
<!-- Node6&#45;&gt;Node5 -->
<g id="edge7_Node000006_Node000005" class="edge">
<title>Node6&#45;&gt;Node5</title>
<g id="a_edge7_Node000006_Node000005"><a xlink:title=" ">
<path fill="none" stroke="#63b8ff" d="M1120.51,-178.08C983.42,-174.86 559.5,-162.38 426.73,-129 406.86,-124 403.76,-117.57 384.73,-110 354.12,-97.83 318.7,-85.75 292.73,-77.26"/>
<polygon fill="#63b8ff" stroke="#63b8ff" points="293.52,-73.83 282.92,-74.07 291.35,-80.49 293.52,-73.83"/>
</a>
</g>
</g>
<!-- Node7 -->
<g id="Node000007" class="node">
<title>Node7</title>
<g id="a_Node000007"><a xlink:title=" ">
<polygon fill="#e0e0e0" stroke="#999999" points="410.73,-74 360.73,-74 360.73,-55 410.73,-55 410.73,-74"/>
<text text-anchor="middle" x="385.73" y="-62" font-family="Helvetica,sans-Serif" font-size="10.00">stdio.h</text>
</a>
</g>
</g>
<!-- Node6&#45;&gt;Node7 -->
<g id="edge6_Node000006_Node000007" class="edge">
<title>Node6&#45;&gt;Node7</title>
<g id="a_edge6_Node000006_Node000007"><a xlink:title=" ">
<path fill="none" stroke="#63b8ff" d="M1120.61,-176.67C972.43,-168.58 491.37,-141.48 460.73,-129 435.93,-118.9 413.35,-97.32 399.59,-82.13"/>
<polygon fill="#63b8ff" stroke="#63b8ff" points="402.1,-79.69 392.89,-74.46 396.83,-84.3 402.1,-79.69"/>
</a>
</g>
</g>
<!-- Node8 -->
<g id="Node000008" class="node">
<title>Node8</title>
<g id="a_Node000008"><a xlink:href="device__headers_8h.html" target="_top" xlink:title=" ">
<polygon fill="white" stroke="#666666" points="1738.73,-74 1636.73,-74 1636.73,-55 1738.73,-55 1738.73,-74"/>
<text text-anchor="middle" x="1687.73" y="-62" font-family="Helvetica,sans-Serif" font-size="10.00">device_headers.h</text>
</a>
</g>
</g>
<!-- Node6&#45;&gt;Node8 -->
<g id="edge8_Node000006_Node000008" class="edge">
<title>Node6&#45;&gt;Node8</title>
<g id="a_edge8_Node000006_Node000008"><a xlink:title=" ">
<path fill="none" stroke="#63b8ff" d="M1194.3,-170.48C1202.8,-168.39 1212.07,-166.36 1220.73,-165 1276.41,-156.25 1688.31,-170.25 1726.73,-129 1740.39,-114.33 1723.22,-94.15 1707.53,-80.5"/>
<polygon fill="#63b8ff" stroke="#63b8ff" points="1709.59,-77.67 1699.64,-74.03 1705.15,-83.08 1709.59,-77.67"/>
</a>
</g>
</g>
<!-- Node11 -->
<g id="Node000011" class="node">
<title>Node11</title>
<g id="a_Node000011"><a xlink:title=" ">
<polygon fill="#e0e0e0" stroke="#999999" points="1928.23,-74 1833.23,-74 1833.23,-55 1928.23,-55 1928.23,-74"/>
<text text-anchor="middle" x="1880.73" y="-62" font-family="Helvetica,sans-Serif" font-size="10.00">builtin_enums.h</text>
</a>
</g>
</g>
<!-- Node6&#45;&gt;Node11 -->
<g id="edge11_Node000006_Node000011" class="edge">
<title>Node6&#45;&gt;Node11</title>
<g id="a_edge11_Node000006_Node000011"><a xlink:title=" ">
<path fill="none" stroke="#63b8ff" d="M1193.99,-170.47C1202.57,-168.35 1211.96,-166.31 1220.73,-165 1290.72,-154.51 1799.66,-170.87 1856.73,-129 1870.81,-118.67 1876.63,-99.01 1879.03,-84.29"/>
<polygon fill="#63b8ff" stroke="#63b8ff" points="1882.52,-84.59 1880.29,-74.24 1875.58,-83.73 1882.52,-84.59"/>
</a>
</g>
</g>
<!-- Node12 -->
<g id="Node000012" class="node">
<title>Node12</title>
<g id="a_Node000012"><a xlink:href="datatypes_8h.html" target="_top" xlink:title=" ">
<polygon fill="#fff0f0" stroke="red" points="1847.73,-129 1773.73,-129 1773.73,-110 1847.73,-110 1847.73,-129"/>
<text text-anchor="middle" x="1810.73" y="-117" font-family="Helvetica,sans-Serif" font-size="10.00">datatypes.h</text>
</a>
</g>
</g>
<!-- Node6&#45;&gt;Node12 -->
<g id="edge12_Node000006_Node000012" class="edge">
<title>Node6&#45;&gt;Node12</title>
<g id="a_edge12_Node000006_Node000012"><a xlink:title=" ">
<path fill="none" stroke="#63b8ff" d="M1194.29,-170.45C1202.79,-168.36 1212.07,-166.34 1220.73,-165 1457.98,-128.23 1521.25,-156.77 1759.73,-129 1760.98,-128.85 1762.25,-128.7 1763.53,-128.53"/>
<polygon fill="#63b8ff" stroke="#63b8ff" points="1764.04,-132 1773.46,-127.15 1763.07,-125.06 1764.04,-132"/>
</a>
</g>
</g>
<!-- Node6&#45;&gt;Node20 -->
<g id="edge21_Node000006_Node000020" class="edge">
<title>Node6&#45;&gt;Node20</title>
<g id="a_edge21_Node000006_Node000020"><a xlink:title=" ">
<path fill="none" stroke="#63b8ff" d="M1120.27,-177.02C986.8,-170.86 570.97,-151.13 226.73,-129 201.92,-127.41 174.08,-125.31 152.24,-123.61"/>
<polygon fill="#63b8ff" stroke="#63b8ff" points="152.29,-120.1 142.04,-122.8 151.74,-127.08 152.29,-120.1"/>
</a>
</g>
</g>
<!-- Node24 -->
<g id="Node000024" class="node">
<title>Node24</title>
<g id="a_Node000024"><a xlink:title=" ">
<polygon fill="#e0e0e0" stroke="#999999" points="1991.23,-129 1904.23,-129 1904.23,-110 1991.23,-110 1991.23,-129"/>
<text text-anchor="middle" x="1947.73" y="-117" font-family="Helvetica,sans-Serif" font-size="10.00">user_defines.h</text>
</a>
</g>
</g>
<!-- Node6&#45;&gt;Node24 -->
<g id="edge30_Node000006_Node000024" class="edge">
<title>Node6&#45;&gt;Node24</title>
<g id="a_edge30_Node000006_Node000024"><a xlink:title=" ">
<path fill="none" stroke="#63b8ff" d="M1193.99,-170.45C1202.56,-168.33 1211.96,-166.3 1220.73,-165 1515.26,-121.3 1593.44,-158.62 1889.73,-129 1891.18,-128.85 1892.66,-128.7 1894.14,-128.53"/>
<polygon fill="#63b8ff" stroke="#63b8ff" points="1894.57,-132.01 1904.07,-127.34 1893.73,-125.06 1894.57,-132.01"/>
</a>
</g>
</g>
<!-- Node25 -->
<g id="Node000025" class="node">
<title>Node25</title>
<g id="a_Node000025"><a xlink:title=" ">
<polygon fill="#e0e0e0" stroke="#999999" points="555.73,-129 469.73,-129 469.73,-110 555.73,-110 555.73,-129"/>
<text text-anchor="middle" x="512.73" y="-117" font-family="Helvetica,sans-Serif" font-size="10.00">profiles_info.h</text>
</a>
</g>
</g>
<!-- Node6&#45;&gt;Node25 -->
<g id="edge31_Node000006_Node000025" class="edge">
<title>Node6&#45;&gt;Node25</title>
<g id="a_edge31_Node000006_Node000025"><a xlink:title=" ">
<path fill="none" stroke="#63b8ff" d="M1120.46,-176.51C1021.83,-170.58 772.82,-154.23 565.73,-129 565.62,-128.99 565.52,-128.98 565.42,-128.96"/>
<polygon fill="#63b8ff" stroke="#63b8ff" points="566.16,-125.53 555.79,-127.68 565.24,-132.47 566.16,-125.53"/>
</a>
</g>
</g>
<!-- Node6&#45;&gt;Node26 -->
<g id="edge32_Node000006_Node000026" class="edge">
<title>Node6&#45;&gt;Node26</title>
<g id="a_edge32_Node000006_Node000026"><a xlink:title=" ">
<path fill="none" stroke="#63b8ff" d="M1120.47,-176.76C1002.93,-170.55 667.85,-152.05 389.73,-129 388.41,-128.89 387.09,-128.78 385.75,-128.66"/>
<polygon fill="#63b8ff" stroke="#63b8ff" points="385.65,-125.14 375.38,-127.75 385.03,-132.12 385.65,-125.14"/>
</a>
</g>
</g>
<!-- Node27 -->
<g id="Node000027" class="node">
<title>Node27</title>
<g id="a_Node000027"><a xlink:href="func__attributes_8h.html" target="_top" xlink:title=" ">
<polygon fill="white" stroke="#666666" points="673.23,-129 574.23,-129 574.23,-110 673.23,-110 673.23,-129"/>
<text text-anchor="middle" x="623.73" y="-117" font-family="Helvetica,sans-Serif" font-size="10.00">func_attributes.h</text>
</a>
</g>
</g>
<!-- Node6&#45;&gt;Node27 -->
<g id="edge33_Node000006_Node000027" class="edge">
<title>Node6&#45;&gt;Node27</title>
<g id="a_edge33_Node000006_Node000027"><a xlink:title=" ">
<path fill="none" stroke="#63b8ff" d="M1120.54,-175.09C1037.9,-167.48 851.42,-149.7 683.31,-129.02"/>
<polygon fill="#63b8ff" stroke="#63b8ff" points="683.64,-125.54 673.28,-127.78 682.78,-132.48 683.64,-125.54"/>
</a>
</g>
</g>
<!-- Node28 -->
<g id="Node000028" class="node">
<title>Node28</title>
<g id="a_Node000028"><a xlink:title=" ">
<polygon fill="#e0e0e0" stroke="#999999" points="816.23,-129 691.23,-129 691.23,-110 816.23,-110 816.23,-129"/>
<text text-anchor="middle" x="753.73" y="-117" font-family="Helvetica,sans-Serif" font-size="10.00">user_input_typedefs.h</text>
</a>
</g>
</g>
<!-- Node6&#45;&gt;Node28 -->
<g id="edge34_Node000006_Node000028" class="edge">
<title>Node6&#45;&gt;Node28</title>
<g id="a_edge34_Node000006_Node000028"><a xlink:title=" ">
<path fill="none" stroke="#63b8ff" d="M1120.62,-172.85C1049.89,-162.76 908.57,-142.59 823.45,-130.45"/>
<polygon fill="#63b8ff" stroke="#63b8ff" points="823.75,-126.96 813.36,-129.01 822.77,-133.89 823.75,-126.96"/>
</a>
</g>
</g>
<!-- Node29 -->
<g id="Node000029" class="node">
<title>Node29</title>
<g id="a_Node000029"><a xlink:title=" ">
<polygon fill="#e0e0e0" stroke="#999999" points="917.23,-129 834.23,-129 834.23,-110 917.23,-110 917.23,-129"/>
<text text-anchor="middle" x="875.73" y="-117" font-family="Helvetica,sans-Serif" font-size="10.00">output_decl.h</text>
</a>
</g>
</g>
<!-- Node6&#45;&gt;Node29 -->
<g id="edge35_Node000006_Node000029" class="edge">
<title>Node6&#45;&gt;Node29</title>
<g id="a_edge35_Node000006_Node000029"><a xlink:title=" ">
<path fill="none" stroke="#63b8ff" d="M1121.85,-170.49C1070.44,-160.05 983.27,-142.35 927.66,-131.05"/>
<polygon fill="#63b8ff" stroke="#63b8ff" points="928.15,-127.58 917.65,-129.02 926.76,-134.44 928.15,-127.58"/>
</a>
</g>
</g>
<!-- Node30 -->
<g id="Node000030" class="node">
<title>Node30</title>
<g id="a_Node000030"><a xlink:title=" ">
<polygon fill="#e0e0e0" stroke="#999999" points="1051.73,-129 935.73,-129 935.73,-110 1051.73,-110 1051.73,-129"/>
<text text-anchor="middle" x="993.73" y="-117" font-family="Helvetica,sans-Serif" font-size="10.00">comp_loaded_decl.h</text>
</a>
</g>
</g>
<!-- Node6&#45;&gt;Node30 -->
<g id="edge36_Node000006_Node000030" class="edge">
<title>Node6&#45;&gt;Node30</title>
<g id="a_edge36_Node000006_Node000030"><a xlink:title=" ">
<path fill="none" stroke="#63b8ff" d="M1139.01,-170.49C1109.8,-160.44 1061.02,-143.66 1028.13,-132.34"/>
<polygon fill="#63b8ff" stroke="#63b8ff" points="1029.07,-128.96 1018.48,-129.02 1026.79,-135.58 1029.07,-128.96"/>
</a>
</g>
</g>
<!-- Node31 -->
<g id="Node000031" class="node">
<title>Node31</title>
<g id="a_Node000031"><a xlink:title=" ">
<polygon fill="#e0e0e0" stroke="#999999" points="1147.73,-129 1069.73,-129 1069.73,-110 1147.73,-110 1147.73,-129"/>
<text text-anchor="middle" x="1108.73" y="-117" font-family="Helvetica,sans-Serif" font-size="10.00">comp_decl.h</text>
</a>
</g>
</g>
<!-- Node6&#45;&gt;Node31 -->
<g id="edge37_Node000006_Node000031" class="edge">
<title>Node6&#45;&gt;Node31</title>
<g id="a_edge37_Node000006_Node000031"><a xlink:title=" ">
<path fill="none" stroke="#63b8ff" d="M1155.61,-170.37C1147.32,-161.55 1134.26,-147.66 1124.02,-136.77"/>
<polygon fill="#63b8ff" stroke="#63b8ff" points="1126.27,-134.06 1116.87,-129.17 1121.17,-138.85 1126.27,-134.06"/>
</a>
</g>
</g>
<!-- Node32 -->
<g id="Node000032" class="node">
<title>Node32</title>
<g id="a_Node000032"><a xlink:title=" ">
<polygon fill="#e0e0e0" stroke="#999999" points="1273.73,-129 1165.73,-129 1165.73,-110 1273.73,-110 1273.73,-129"/>
<text text-anchor="middle" x="1219.73" y="-117" font-family="Helvetica,sans-Serif" font-size="10.00">info_loaded_decl.h</text>
</a>
</g>
</g>
<!-- Node6&#45;&gt;Node32 -->
<g id="edge38_Node000006_Node000032" class="edge">
<title>Node6&#45;&gt;Node32</title>
<g id="a_edge38_Node000006_Node000032"><a xlink:title=" ">
<path fill="none" stroke="#63b8ff" d="M1171.99,-170.37C1180.51,-161.47 1193.99,-147.39 1204.45,-136.45"/>
<polygon fill="#63b8ff" stroke="#63b8ff" points="1207.04,-138.81 1211.43,-129.17 1201.99,-133.97 1207.04,-138.81"/>
</a>
</g>
</g>
<!-- Node33 -->
<g id="Node000033" class="node">
<title>Node33</title>
<g id="a_Node000033"><a xlink:title=" ">
<polygon fill="#e0e0e0" stroke="#999999" points="1431.73,-129 1291.73,-129 1291.73,-110 1431.73,-110 1431.73,-129"/>
<text text-anchor="middle" x="1361.73" y="-117" font-family="Helvetica,sans-Serif" font-size="10.00">device_mesh_info_decl.h</text>
</a>
</g>
</g>
<!-- Node6&#45;&gt;Node33 -->
<g id="edge39_Node000006_Node000033" class="edge">
<title>Node6&#45;&gt;Node33</title>
<g id="a_edge39_Node000006_Node000033"><a xlink:title=" ">
<path fill="none" stroke="#63b8ff" d="M1192.52,-170.49C1226.98,-160.31 1284.82,-143.22 1323.13,-131.9"/>
<polygon fill="#63b8ff" stroke="#63b8ff" points="1324.3,-135.21 1332.9,-129.02 1322.32,-128.49 1324.3,-135.21"/>
</a>
</g>
</g>
<!-- Node34 -->
<g id="Node000034" class="node">
<title>Node34</title>
<g id="a_Node000034"><a xlink:title=" ">
<polygon fill="#e0e0e0" stroke="#999999" points="1527.23,-129 1450.23,-129 1450.23,-110 1527.23,-110 1527.23,-129"/>
<text text-anchor="middle" x="1488.73" y="-117" font-family="Helvetica,sans-Serif" font-size="10.00">array_decl.h</text>
</a>
</g>
</g>
<!-- Node6&#45;&gt;Node34 -->
<g id="edge40_Node000006_Node000034" class="edge">
<title>Node6&#45;&gt;Node34</title>
<g id="a_edge40_Node000006_Node000034"><a xlink:title=" ">
<path fill="none" stroke="#63b8ff" d="M1196.48,-170.49C1204.39,-168.56 1212.84,-166.61 1220.73,-165 1314.67,-145.81 1341.35,-145.63 1440.11,-129.07"/>
<polygon fill="#63b8ff" stroke="#63b8ff" points="1440.94,-132.48 1450.22,-127.36 1439.78,-125.58 1440.94,-132.48"/>
</a>
</g>
</g>
<!-- Node35 -->
<g id="Node000035" class="node">
<title>Node35</title>
<g id="a_Node000035"><a xlink:title=" ">
<polygon fill="#e0e0e0" stroke="#999999" points="1621.73,-129 1545.73,-129 1545.73,-110 1621.73,-110 1621.73,-129"/>
<text text-anchor="middle" x="1583.73" y="-117" font-family="Helvetica,sans-Serif" font-size="10.00">input_decl.h</text>
</a>
</g>
</g>
<!-- Node6&#45;&gt;Node35 -->
<g id="edge41_Node000006_Node000035" class="edge">
<title>Node6&#45;&gt;Node35</title>
<g id="a_edge41_Node000006_Node000035"><a xlink:title=" ">
<path fill="none" stroke="#63b8ff" d="M1195.53,-170.43C1203.7,-168.44 1212.5,-166.47 1220.73,-165 1356.61,-140.68 1395.09,-149.16 1535.27,-129.12"/>
<polygon fill="#63b8ff" stroke="#63b8ff" points="1536.15,-132.52 1545.54,-127.62 1535.14,-125.6 1536.15,-132.52"/>
</a>
</g>
</g>
<!-- Node36 -->
<g id="Node000036" class="node">
<title>Node36</title>
<g id="a_Node000036"><a xlink:href="ac__helpers_8h.html" target="_top" xlink:title=" ">
<polygon fill="white" stroke="#666666" points="1717.73,-129 1639.73,-129 1639.73,-110 1717.73,-110 1717.73,-129"/>
<text text-anchor="middle" x="1678.73" y="-117" font-family="Helvetica,sans-Serif" font-size="10.00">ac_helpers.h</text>
</a>
</g>
</g>
<!-- Node6&#45;&gt;Node36 -->
<g id="edge42_Node000006_Node000036" class="edge">
<title>Node6&#45;&gt;Node36</title>
<g id="a_edge42_Node000006_Node000036"><a xlink:title=" ">
<path fill="none" stroke="#63b8ff" d="M1194.91,-170.43C1203.24,-168.39 1212.28,-166.4 1220.73,-165 1397.93,-135.64 1447.6,-152.34 1629.31,-129.07"/>
<polygon fill="#63b8ff" stroke="#63b8ff" points="1630.01,-132.5 1639.48,-127.74 1629.11,-125.56 1630.01,-132.5"/>
</a>
</g>
</g>
<!-- Node6&#45;&gt;Node40 -->
<g id="edge43_Node000006_Node000040" class="edge">
<title>Node6&#45;&gt;Node40</title>
<g id="a_edge43_Node000006_Node000040"><a xlink:title=" ">
<path fill="none" stroke="#63b8ff" d="M1193.68,-170.48C1202.34,-168.34 1211.85,-166.28 1220.73,-165 1560.92,-115.85 1653.92,-165.19 1999.54,-128.97"/>
<polygon fill="#63b8ff" stroke="#63b8ff" points="2000.01,-132.44 2009.58,-127.9 1999.27,-125.48 2000.01,-132.44"/>
</a>
</g>
</g>
<!-- Node9 -->
<g id="Node000009" class="node">
<title>Node9</title>
<g id="a_Node000009"><a xlink:title=" ">
<polygon fill="#e0e0e0" stroke="#999999" points="1861.23,-19 1748.23,-19 1748.23,0 1861.23,0 1861.23,-19"/>
<text text-anchor="middle" x="1804.73" y="-7" font-family="Helvetica,sans-Serif" font-size="10.00">cuda_runtime_api.h</text>
</a>
</g>
</g>
<!-- Node8&#45;&gt;Node9 -->
<g id="edge9_Node000008_Node000009" class="edge">
<title>Node8&#45;&gt;Node9</title>
<g id="a_edge9_Node000008_Node000009"><a xlink:title=" ">
<path fill="none" stroke="#63b8ff" d="M1706.52,-54.98C1725.35,-46.46 1754.55,-33.23 1776.22,-23.41"/>
<polygon fill="#63b8ff" stroke="#63b8ff" points="1777.92,-26.48 1785.59,-19.17 1775.03,-20.11 1777.92,-26.48"/>
</a>
</g>
</g>
<!-- Node10 -->
<g id="Node000010" class="node">
<title>Node10</title>
<g id="a_Node000010"><a xlink:title=" ">
<polygon fill="#e0e0e0" stroke="#999999" points="1655.73,-19 1579.73,-19 1579.73,0 1655.73,0 1655.73,-19"/>
<text text-anchor="middle" x="1617.73" y="-7" font-family="Helvetica,sans-Serif" font-size="10.00">cuda_fp16.h</text>
</a>
</g>
</g>
<!-- Node8&#45;&gt;Node10 -->
<g id="edge10_Node000008_Node000010" class="edge">
<title>Node8&#45;&gt;Node10</title>
<g id="a_edge10_Node000008_Node000010"><a xlink:title=" ">
<path fill="none" stroke="#63b8ff" d="M1676.48,-54.98C1665.93,-47 1649.93,-34.88 1637.28,-25.31"/>
<polygon fill="#63b8ff" stroke="#63b8ff" points="1639.26,-22.42 1629.18,-19.17 1635.04,-28 1639.26,-22.42"/>
</a>
</g>
</g>
<!-- Node12&#45;&gt;Node8 -->
<g id="edge14_Node000012_Node000008" class="edge">
<title>Node12&#45;&gt;Node8</title>
<g id="a_edge14_Node000012_Node000008"><a xlink:title=" ">
<path fill="none" stroke="#63b8ff" d="M1790.96,-109.98C1771,-101.38 1739.92,-87.99 1717.08,-78.15"/>
<polygon fill="#63b8ff" stroke="#63b8ff" points="1718.42,-74.91 1707.85,-74.17 1715.65,-81.34 1718.42,-74.91"/>
</a>
</g>
</g>
<!-- Node12&#45;&gt;Node9 -->
<g id="edge15_Node000012_Node000009" class="edge">
<title>Node12&#45;&gt;Node9</title>
<g id="a_edge15_Node000012_Node000009"><a xlink:title=" ">
<path fill="none" stroke="#63b8ff" d="M1810.23,-109.66C1809.26,-92.17 1807.08,-52.8 1805.77,-29.27"/>
<polygon fill="#63b8ff" stroke="#63b8ff" points="1809.26,-28.95 1805.21,-19.16 1802.27,-29.34 1809.26,-28.95"/>
</a>
</g>
</g>
<!-- Node12&#45;&gt;Node11 -->
<g id="edge17_Node000012_Node000011" class="edge">
<title>Node12&#45;&gt;Node11</title>
<g id="a_edge17_Node000012_Node000011"><a xlink:title=" ">
<path fill="none" stroke="#63b8ff" d="M1821.97,-109.98C1832.52,-102 1848.53,-89.88 1861.17,-80.31"/>
<polygon fill="#63b8ff" stroke="#63b8ff" points="1863.41,-83 1869.27,-74.17 1859.19,-77.42 1863.41,-83"/>
</a>
</g>
</g>
<!-- Node12&#45;&gt;Node14 -->
<g id="edge13_Node000012_Node000014" class="edge">
<title>Node12&#45;&gt;Node14</title>
<g id="a_edge13_Node000012_Node000014"><a xlink:title=" ">
<path fill="none" stroke="#63b8ff" d="M1847.76,-110.22C1892.59,-100.19 1967.59,-83.42 2011.88,-73.52"/>
<polygon fill="#63b8ff" stroke="#63b8ff" points="2012.92,-76.87 2021.91,-71.27 2011.39,-70.04 2012.92,-76.87"/>
</a>
</g>
</g>
<!-- Node16 -->
<g id="Node000016" class="node">
<title>Node16</title>
<g id="a_Node000016"><a xlink:href="acreal_8h.html" target="_top" xlink:title=" ">
<polygon fill="white" stroke="#666666" points="1729.73,-19 1673.73,-19 1673.73,0 1729.73,0 1729.73,-19"/>
<text text-anchor="middle" x="1701.73" y="-7" font-family="Helvetica,sans-Serif" font-size="10.00">acreal.h</text>
</a>
</g>
</g>
<!-- Node12&#45;&gt;Node16 -->
<g id="edge16_Node000012_Node000016" class="edge">
<title>Node12&#45;&gt;Node16</title>
<g id="a_edge16_Node000012_Node000016"><a xlink:title=" ">
<path fill="none" stroke="#63b8ff" d="M1802.22,-109.82C1790.17,-97.54 1767.39,-74.42 1747.73,-55 1738.04,-45.44 1727.09,-34.84 1718.31,-26.38"/>
<polygon fill="#63b8ff" stroke="#63b8ff" points="1720.58,-23.71 1710.94,-19.31 1715.73,-28.76 1720.58,-23.71"/>
</a>
</g>
</g>
<!-- Node18 -->
<g id="Node000018" class="node">
<title>Node18</title>
<g id="a_Node000018"><a xlink:href="host__datatypes_8h.html" target="_top" xlink:title=" ">
<polygon fill="white" stroke="#666666" points="1216.23,-74 1115.23,-74 1115.23,-55 1216.23,-55 1216.23,-74"/>
<text text-anchor="middle" x="1165.73" y="-62" font-family="Helvetica,sans-Serif" font-size="10.00">host_datatypes.h</text>
</a>
</g>
</g>
<!-- Node12&#45;&gt;Node18 -->
<g id="edge18_Node000012_Node000018" class="edge">
<title>Node12&#45;&gt;Node18</title>
<g id="a_edge18_Node000012_Node000018"><a xlink:title=" ">
<path fill="none" stroke="#63b8ff" d="M1773.53,-114.56C1758.94,-113.06 1742.05,-111.38 1726.73,-110 1544.92,-93.59 1329.68,-77.43 1226.64,-69.9"/>
<polygon fill="#63b8ff" stroke="#63b8ff" points="1226.65,-66.39 1216.43,-69.15 1226.14,-73.37 1226.65,-66.39"/>
</a>
</g>
</g>
<!-- Node18&#45;&gt;Node16 -->
<g id="edge19_Node000018_Node000016" class="edge">
<title>Node18&#45;&gt;Node16</title>
<g id="a_edge19_Node000018_Node000016"><a xlink:title=" ">
<path fill="none" stroke="#63b8ff" d="M1216.29,-61.28C1304.96,-56.89 1494.36,-45.3 1663.44,-18.99"/>
<polygon fill="#63b8ff" stroke="#63b8ff" points="1664.19,-22.41 1673.52,-17.4 1663.1,-15.5 1664.19,-22.41"/>
</a>
</g>
</g>
<!-- Node19 -->
<g id="Node000019" class="node">
<title>Node19</title>
<g id="a_Node000019"><a xlink:title=" ">
<polygon fill="#e0e0e0" stroke="#999999" points="791.73,-19 735.73,-19 735.73,0 791.73,0 791.73,-19"/>
<text text-anchor="middle" x="763.73" y="-7" font-family="Helvetica,sans-Serif" font-size="10.00">stddef.h</text>
</a>
</g>
</g>
<!-- Node18&#45;&gt;Node19 -->
<g id="edge20_Node000018_Node000019" class="edge">
<title>Node18&#45;&gt;Node19</title>
<g id="a_edge20_Node000018_Node000019"><a xlink:title=" ">
<path fill="none" stroke="#63b8ff" d="M1115.22,-56.84C1033.82,-46.11 875.36,-25.22 802.31,-15.59"/>
<polygon fill="#63b8ff" stroke="#63b8ff" points="802.54,-12.09 792.17,-14.25 801.63,-19.03 802.54,-12.09"/>
</a>
</g>
</g>
<!-- Node20&#45;&gt;Node5 -->
<g id="edge24_Node000020_Node000005" class="edge">
<title>Node20&#45;&gt;Node5</title>
<g id="a_edge24_Node000020_Node000005"><a xlink:title=" ">
<path fill="none" stroke="#63b8ff" d="M136.54,-109.98C159.9,-101.27 196.43,-87.63 222.89,-77.75"/>
<polygon fill="#63b8ff" stroke="#63b8ff" points="224.35,-80.95 232.5,-74.17 221.9,-74.39 224.35,-80.95"/>
</a>
</g>
</g>
<!-- Node20&#45;&gt;Node7 -->
<g id="edge26_Node000020_Node000007" class="edge">
<title>Node20&#45;&gt;Node7</title>
<g id="a_edge26_Node000020_Node000007"><a xlink:title=" ">
<path fill="none" stroke="#63b8ff" d="M141.81,-113.03C191.8,-103.29 296.06,-82.97 350.67,-72.33"/>
<polygon fill="#63b8ff" stroke="#63b8ff" points="351.43,-75.75 360.58,-70.4 350.09,-68.88 351.43,-75.75"/>
</a>
</g>
</g>
<!-- Node20&#45;&gt;Node8 -->
<g id="edge29_Node000020_Node000008" class="edge">
<title>Node20&#45;&gt;Node8</title>
<g id="a_edge29_Node000020_Node000008"><a xlink:title=" ">
<path fill="none" stroke="#63b8ff" d="M142.03,-116.02C164.87,-114.1 197.85,-111.53 226.73,-110 769.1,-81.36 1425.78,-69.5 1626.53,-66.39"/>
<polygon fill="#63b8ff" stroke="#63b8ff" points="1626.64,-69.89 1636.58,-66.23 1626.53,-62.89 1626.64,-69.89"/>
</a>
</g>
</g>
<!-- Node20&#45;&gt;Node18 -->
<g id="edge23_Node000020_Node000018" class="edge">
<title>Node20&#45;&gt;Node18</title>
<g id="a_edge23_Node000020_Node000018"><a xlink:title=" ">
<path fill="none" stroke="#63b8ff" d="M142.04,-116.15C164.89,-114.31 197.86,-111.77 226.73,-110 557.81,-89.71 955.06,-73.59 1104.72,-67.8"/>
<polygon fill="#63b8ff" stroke="#63b8ff" points="1105.2,-71.29 1115.06,-67.41 1104.93,-64.29 1105.2,-71.29"/>
</a>
</g>
</g>
<!-- Node20&#45;&gt;Node19 -->
<g id="edge22_Node000020_Node000019" class="edge">
<title>Node20&#45;&gt;Node19</title>
<g id="a_edge22_Node000020_Node000019"><a xlink:title=" ">
<path fill="none" stroke="#63b8ff" d="M85.64,-112.9C45.57,-103.74 -20.32,-83.68 6.73,-55 31.62,-28.6 575.04,-14.67 725.44,-11.31"/>
<polygon fill="#63b8ff" stroke="#63b8ff" points="725.66,-14.8 735.58,-11.08 725.51,-7.81 725.66,-14.8"/>
</a>
</g>
</g>
<!-- Node21 -->
<g id="Node000021" class="node">
<title>Node21</title>
<g id="a_Node000021"><a xlink:title=" ">
<polygon fill="#e0e0e0" stroke="#999999" points="69.23,-74 16.23,-74 16.23,-55 69.23,-55 69.23,-74"/>
<text text-anchor="middle" x="42.73" y="-62" font-family="Helvetica,sans-Serif" font-size="10.00">stdint.h</text>
</a>
</g>
</g>
<!-- Node20&#45;&gt;Node21 -->
<g id="edge25_Node000020_Node000021" class="edge">
<title>Node20&#45;&gt;Node21</title>
<g id="a_edge25_Node000020_Node000021"><a xlink:title=" ">
<path fill="none" stroke="#63b8ff" d="M102.32,-109.98C91.62,-102 75.39,-89.88 62.56,-80.31"/>
<polygon fill="#63b8ff" stroke="#63b8ff" points="64.45,-77.35 54.34,-74.17 60.26,-82.96 64.45,-77.35"/>
</a>
</g>
</g>
<!-- Node22 -->
<g id="Node000022" class="node">
<title>Node22</title>
<g id="a_Node000022"><a xlink:title=" ">
<polygon fill="#e0e0e0" stroke="#999999" points="140.23,-74 87.23,-74 87.23,-55 140.23,-55 140.23,-74"/>
<text text-anchor="middle" x="113.73" y="-62" font-family="Helvetica,sans-Serif" font-size="10.00">stdlib.h</text>
</a>
</g>
</g>
<!-- Node20&#45;&gt;Node22 -->
<g id="edge27_Node000020_Node000022" class="edge">
<title>Node20&#45;&gt;Node22</title>
<g id="a_edge27_Node000020_Node000022"><a xlink:title=" ">
<path fill="none" stroke="#63b8ff" d="M113.73,-109.75C113.73,-102.8 113.73,-92.85 113.73,-84.13"/>
<polygon fill="#63b8ff" stroke="#63b8ff" points="117.23,-84.09 113.73,-74.09 110.23,-84.09 117.23,-84.09"/>
</a>
</g>
</g>
<!-- Node23 -->
<g id="Node000023" class="node">
<title>Node23</title>
<g id="a_Node000023"><a xlink:title=" ">
<polygon fill="#e0e0e0" stroke="#999999" points="206.73,-74 158.73,-74 158.73,-55 206.73,-55 206.73,-74"/>
<text text-anchor="middle" x="182.73" y="-62" font-family="Helvetica,sans-Serif" font-size="10.00">time.h</text>
</a>
</g>
</g>
<!-- Node20&#45;&gt;Node23 -->
<g id="edge28_Node000020_Node000023" class="edge">
<title>Node20&#45;&gt;Node23</title>
<g id="a_edge28_Node000020_Node000023"><a xlink:title=" ">
<path fill="none" stroke="#63b8ff" d="M124.81,-109.98C135.21,-102 150.99,-89.88 163.45,-80.31"/>
<polygon fill="#63b8ff" stroke="#63b8ff" points="165.64,-83.04 171.44,-74.17 161.38,-77.49 165.64,-83.04"/>
</a>
</g>
</g>
<!-- Node47 -->
<g id="Node000047" class="node">
<title>Node47</title>
<g id="a_Node000047"><a xlink:title=" ">
<polygon fill="#e0e0e0" stroke="#999999" points="457.23,-195 338.23,-195 338.23,-165 457.23,-165 457.23,-195"/>
<text text-anchor="start" x="346.23" y="-183" font-family="Helvetica,sans-Serif" font-size="10.00">device_load_uniform</text>
<text text-anchor="middle" x="397.73" y="-172" font-family="Helvetica,sans-Serif" font-size="10.00">_decl.h</text>
</a>
</g>
</g>
<!-- Node46&#45;&gt;Node47 -->
<g id="edge50_Node000046_Node000047" class="edge">
<title>Node46&#45;&gt;Node47</title>
<g id="a_edge50_Node000046_Node000047"><a xlink:title=" ">
<path fill="none" stroke="#63b8ff" d="M397.73,-230.87C397.73,-224.11 397.73,-214.35 397.73,-205.26"/>
<polygon fill="#63b8ff" stroke="#63b8ff" points="401.23,-205.11 397.73,-195.11 394.23,-205.11 401.23,-205.11"/>
</a>
</g>
</g>
<!-- Node48 -->
<g id="Node000048" class="node">
<title>Node48</title>
<g id="a_Node000048"><a xlink:title=" ">
<polygon fill="#e0e0e0" stroke="#999999" points="319.73,-195 197.73,-195 197.73,-165 319.73,-165 319.73,-195"/>
<text text-anchor="start" x="205.73" y="-183" font-family="Helvetica,sans-Serif" font-size="10.00">device_store_uniform</text>
<text text-anchor="middle" x="258.73" y="-172" font-family="Helvetica,sans-Serif" font-size="10.00">_decl.h</text>
</a>
</g>
</g>
<!-- Node46&#45;&gt;Node48 -->
<g id="edge51_Node000046_Node000048" class="edge">
<title>Node46&#45;&gt;Node48</title>
<g id="a_edge51_Node000046_Node000048"><a xlink:title=" ">
<path fill="none" stroke="#63b8ff" d="M377.51,-230.99C357.68,-222.65 326.83,-209.66 301.53,-199.02"/>
<polygon fill="#63b8ff" stroke="#63b8ff" points="302.72,-195.72 292.14,-195.06 300,-202.17 302.72,-195.72"/>
</a>
</g>
</g>
</g>
</svg>
