<?xml version="1.0" encoding="UTF-8" standalone="no"?>
<!DOCTYPE svg PUBLIC "-//W3C//DTD SVG 1.1//EN"
 "http://www.w3.org/Graphics/SVG/1.1/DTD/svg11.dtd">
<!-- Generated by graphviz version 2.43.0 (0)
 -->
<!-- Title: src/utils/modelsolver&#45;legacy&#45;do&#45;not&#45;modify.c Pages: 1 -->
<svg width="2327pt" height="445pt"
 viewBox="0.00 0.00 2326.50 445.00" xmlns="http://www.w3.org/2000/svg" xmlns:xlink="http://www.w3.org/1999/xlink">
<g id="graph0" class="graph" transform="scale(1 1) rotate(0) translate(4 441)">
<title>src/utils/modelsolver&#45;legacy&#45;do&#45;not&#45;modify.c</title>
<!-- Node1 -->
<g id="Node000001" class="node">
<title>Node1</title>
<g id="a_Node000001"><a xlink:title=" ">
<polygon fill="#999999" stroke="#666666" points="2061.5,-437 1929.5,-437 1929.5,-407 2061.5,-407 2061.5,-437"/>
<text text-anchor="start" x="1937.5" y="-425" font-family="Helvetica,sans-Serif" font-size="10.00">src/utils/modelsolver</text>
<text text-anchor="middle" x="1995.5" y="-414" font-family="Helvetica,sans-Serif" font-size="10.00">&#45;legacy&#45;do&#45;not&#45;modify.c</text>
</a>
</g>
</g>
<!-- Node2 -->
<g id="Node000002" class="node">
<title>Node2</title>
<g id="a_Node000002"><a xlink:href="astaroth__utils_8h.html" target="_top" xlink:title="Functions for loading and updating AcMeshInfo.">
<polygon fill="white" stroke="#666666" points="1868.5,-371 1776.5,-371 1776.5,-352 1868.5,-352 1868.5,-371"/>
<text text-anchor="middle" x="1822.5" y="-359" font-family="Helvetica,sans-Serif" font-size="10.00">astaroth_utils.h</text>
</a>
</g>
</g>
<!-- Node1&#45;&gt;Node2 -->
<g id="edge1_Node000001_Node000002" class="edge">
<title>Node1&#45;&gt;Node2</title>
<g id="a_edge1_Node000001_Node000002"><a xlink:title=" ">
<path fill="none" stroke="#63b8ff" d="M1954.06,-406.99C1924.59,-397.02 1885.44,-383.78 1857.53,-374.35"/>
<polygon fill="#63b8ff" stroke="#63b8ff" points="1858.39,-370.94 1847.8,-371.05 1856.15,-377.57 1858.39,-370.94"/>
</a>
</g>
</g>
<!-- Node5 -->
<g id="Node000005" class="node">
<title>Node5</title>
<g id="a_Node000005"><a xlink:title=" ">
<polygon fill="#e0e0e0" stroke="#999999" points="2071.5,-74 2009.5,-74 2009.5,-55 2071.5,-55 2071.5,-74"/>
<text text-anchor="middle" x="2040.5" y="-62" font-family="Helvetica,sans-Serif" font-size="10.00">stdbool.h</text>
</a>
</g>
</g>
<!-- Node1&#45;&gt;Node5 -->
<g id="edge61_Node000001_Node000005" class="edge">
<title>Node1&#45;&gt;Node5</title>
<g id="a_edge61_Node000001_Node000005"><a xlink:title=" ">
<path fill="none" stroke="#63b8ff" d="M1995.5,-406.67C1995.5,-385.14 1995.5,-343.17 1995.5,-307.5 1995.5,-307.5 1995.5,-307.5 1995.5,-190 1995.5,-153.46 2000.91,-143.92 2014.5,-110 2018.28,-100.57 2023.82,-90.75 2028.82,-82.74"/>
<polygon fill="#63b8ff" stroke="#63b8ff" points="2031.79,-84.59 2034.3,-74.3 2025.92,-80.78 2031.79,-84.59"/>
</a>
</g>
</g>
<!-- Node14 -->
<g id="Node000014" class="node">
<title>Node14</title>
<g id="a_Node000014"><a xlink:title=" ">
<polygon fill="#e0e0e0" stroke="#999999" points="1804,-74 1753,-74 1753,-55 1804,-55 1804,-74"/>
<text text-anchor="middle" x="1778.5" y="-62" font-family="Helvetica,sans-Serif" font-size="10.00">math.h</text>
</a>
</g>
</g>
<!-- Node1&#45;&gt;Node14 -->
<g id="edge60_Node000001_Node000014" class="edge">
<title>Node1&#45;&gt;Node14</title>
<g id="a_edge60_Node000001_Node000014"><a xlink:title=" ">
<path fill="none" stroke="#63b8ff" d="M1982.85,-406.74C1966.06,-386.29 1938.5,-346.75 1938.5,-307.5 1938.5,-307.5 1938.5,-307.5 1938.5,-250.5 1938.5,-169.03 1848.64,-105.77 1803.6,-79.18"/>
<polygon fill="#63b8ff" stroke="#63b8ff" points="1805.14,-76.02 1794.72,-74.07 1801.64,-82.09 1805.14,-76.02"/>
</a>
</g>
</g>
<!-- Node20 -->
<g id="Node000020" class="node">
<title>Node20</title>
<g id="a_Node000020"><a xlink:href="errchk_8h.html" target="_top" xlink:title="Brief info.">
<polygon fill="white" stroke="#666666" points="2079.5,-134.5 2023.5,-134.5 2023.5,-115.5 2079.5,-115.5 2079.5,-134.5"/>
<text text-anchor="middle" x="2051.5" y="-122.5" font-family="Helvetica,sans-Serif" font-size="10.00">errchk.h</text>
</a>
</g>
</g>
<!-- Node1&#45;&gt;Node20 -->
<g id="edge62_Node000001_Node000020" class="edge">
<title>Node1&#45;&gt;Node20</title>
<g id="a_edge62_Node000001_Node000020"><a xlink:title=" ">
<path fill="none" stroke="#63b8ff" d="M2003.56,-406.82C2014.71,-385.82 2033.5,-344.9 2033.5,-307.5 2033.5,-307.5 2033.5,-307.5 2033.5,-250.5 2033.5,-212.6 2041.77,-168.88 2047.1,-144.64"/>
<polygon fill="#63b8ff" stroke="#63b8ff" points="2050.56,-145.22 2049.36,-134.69 2043.73,-143.67 2050.56,-145.22"/>
</a>
</g>
</g>
<!-- Node58 -->
<g id="Node000058" class="node">
<title>Node58</title>
<g id="a_Node000058"><a xlink:title=" ">
<polygon fill="#e0e0e0" stroke="#999999" points="2127,-371 2062,-371 2062,-352 2127,-352 2127,-371"/>
<text text-anchor="middle" x="2094.5" y="-359" font-family="Helvetica,sans-Serif" font-size="10.00">memory.h</text>
</a>
</g>
</g>
<!-- Node1&#45;&gt;Node58 -->
<g id="edge63_Node000001_Node000058" class="edge">
<title>Node1&#45;&gt;Node58</title>
<g id="a_edge63_Node000001_Node000058"><a xlink:title=" ">
<path fill="none" stroke="#63b8ff" d="M2019.21,-406.99C2034.85,-397.75 2055.24,-385.7 2070.86,-376.47"/>
<polygon fill="#63b8ff" stroke="#63b8ff" points="2073.05,-379.24 2079.88,-371.14 2069.49,-373.21 2073.05,-379.24"/>
</a>
</g>
</g>
<!-- Node3 -->
<g id="Node000003" class="node">
<title>Node3</title>
<g id="a_Node000003"><a xlink:href="astaroth_8h.html" target="_top" xlink:title=" ">
<polygon fill="white" stroke="#666666" points="1196.5,-316 1130.5,-316 1130.5,-297 1196.5,-297 1196.5,-316"/>
<text text-anchor="middle" x="1163.5" y="-304" font-family="Helvetica,sans-Serif" font-size="10.00">astaroth.h</text>
</a>
</g>
</g>
<!-- Node2&#45;&gt;Node3 -->
<g id="edge2_Node000002_Node000003" class="edge">
<title>Node2&#45;&gt;Node3</title>
<g id="a_edge2_Node000002_Node000003"><a xlink:title=" ">
<path fill="none" stroke="#63b8ff" d="M1776.42,-356.79C1654.64,-347 1325.5,-320.53 1206.86,-310.99"/>
<polygon fill="#63b8ff" stroke="#63b8ff" points="1206.96,-307.48 1196.71,-310.17 1206.4,-314.46 1206.96,-307.48"/>
</a>
</g>
</g>
<!-- Node56 -->
<g id="Node000056" class="node">
<title>Node56</title>
<g id="a_Node000056"><a xlink:title=" ">
<polygon fill="#e0e0e0" stroke="#999999" points="1785.5,-316 1729.5,-316 1729.5,-297 1785.5,-297 1785.5,-316"/>
<text text-anchor="middle" x="1757.5" y="-304" font-family="Helvetica,sans-Serif" font-size="10.00">stdarg.h</text>
</a>
</g>
</g>
<!-- Node2&#45;&gt;Node56 -->
<g id="edge58_Node000002_Node000056" class="edge">
<title>Node2&#45;&gt;Node56</title>
<g id="a_edge58_Node000002_Node000056"><a xlink:title=" ">
<path fill="none" stroke="#63b8ff" d="M1812.06,-351.98C1802.35,-344.07 1787.68,-332.11 1776,-322.58"/>
<polygon fill="#63b8ff" stroke="#63b8ff" points="1778.1,-319.78 1768.13,-316.17 1773.67,-325.2 1778.1,-319.78"/>
</a>
</g>
</g>
<!-- Node57 -->
<g id="Node000057" class="node">
<title>Node57</title>
<g id="a_Node000057"><a xlink:href="astaroth__lib_8h.html" target="_top" xlink:title=" ">
<polygon fill="white" stroke="#666666" points="1887,-316 1804,-316 1804,-297 1887,-297 1887,-316"/>
<text text-anchor="middle" x="1845.5" y="-304" font-family="Helvetica,sans-Serif" font-size="10.00">astaroth_lib.h</text>
</a>
</g>
</g>
<!-- Node2&#45;&gt;Node57 -->
<g id="edge59_Node000002_Node000057" class="edge">
<title>Node2&#45;&gt;Node57</title>
<g id="a_edge59_Node000002_Node000057"><a xlink:title=" ">
<path fill="none" stroke="#63b8ff" d="M1826.3,-351.75C1829.41,-344.57 1833.92,-334.18 1837.79,-325.27"/>
<polygon fill="#63b8ff" stroke="#63b8ff" points="1841,-326.66 1841.77,-316.09 1834.58,-323.87 1841,-326.66"/>
</a>
</g>
</g>
<!-- Node4 -->
<g id="Node000004" class="node">
<title>Node4</title>
<g id="a_Node000004"><a xlink:href="astaroth__base_8h.html" target="_top" xlink:title=" ">
<polygon fill="white" stroke="#666666" points="1519,-261 1424,-261 1424,-242 1519,-242 1519,-261"/>
<text text-anchor="middle" x="1471.5" y="-249" font-family="Helvetica,sans-Serif" font-size="10.00">astaroth_base.h</text>
</a>
</g>
</g>
<!-- Node3&#45;&gt;Node4 -->
<g id="edge3_Node000003_Node000004" class="edge">
<title>Node3&#45;&gt;Node4</title>
<g id="a_edge3_Node000003_Node000004"><a xlink:title=" ">
<path fill="none" stroke="#63b8ff" d="M1196.75,-299.78C1248.73,-290.83 1349.87,-273.43 1413.88,-262.42"/>
<polygon fill="#63b8ff" stroke="#63b8ff" points="1414.56,-265.85 1423.82,-260.7 1413.37,-258.95 1414.56,-265.85"/>
</a>
</g>
</g>
<!-- Node44 -->
<g id="Node000044" class="node">
<title>Node44</title>
<g id="a_Node000044"><a xlink:href="astaroth__grid_8h.html" target="_top" xlink:title=" ">
<polygon fill="white" stroke="#666666" points="1627.5,-261 1537.5,-261 1537.5,-242 1627.5,-242 1627.5,-261"/>
<text text-anchor="middle" x="1582.5" y="-249" font-family="Helvetica,sans-Serif" font-size="10.00">astaroth_grid.h</text>
</a>
</g>
</g>
<!-- Node3&#45;&gt;Node44 -->
<g id="edge46_Node000003_Node000044" class="edge">
<title>Node3&#45;&gt;Node44</title>
<g id="a_edge46_Node000003_Node000044"><a xlink:title=" ">
<path fill="none" stroke="#63b8ff" d="M1196.77,-301.84C1259.35,-294.86 1399.14,-278.88 1527.43,-261.11"/>
<polygon fill="#63b8ff" stroke="#63b8ff" points="1528.01,-264.56 1537.44,-259.71 1527.05,-257.63 1528.01,-264.56"/>
</a>
</g>
</g>
<!-- Node45 -->
<g id="Node000045" class="node">
<title>Node45</title>
<g id="a_Node000045"><a xlink:href="astaroth__node_8h.html" target="_top" xlink:title=" ">
<polygon fill="white" stroke="#666666" points="1741,-261 1646,-261 1646,-242 1741,-242 1741,-261"/>
<text text-anchor="middle" x="1693.5" y="-249" font-family="Helvetica,sans-Serif" font-size="10.00">astaroth_node.h</text>
</a>
</g>
</g>
<!-- Node3&#45;&gt;Node45 -->
<g id="edge47_Node000003_Node000045" class="edge">
<title>Node3&#45;&gt;Node45</title>
<g id="a_edge47_Node000003_Node000045"><a xlink:title=" ">
<path fill="none" stroke="#63b8ff" d="M1196.54,-303.01C1272.23,-297.18 1464.22,-281.63 1635.96,-261"/>
<polygon fill="#63b8ff" stroke="#63b8ff" points="1636.43,-264.47 1645.94,-259.79 1635.59,-257.52 1636.43,-264.47"/>
</a>
</g>
</g>
<!-- Node46 -->
<g id="Node000046" class="node">
<title>Node46</title>
<g id="a_Node000046"><a xlink:href="astaroth__device_8h.html" target="_top" xlink:title=" ">
<polygon fill="white" stroke="#666666" points="395.5,-261 291.5,-261 291.5,-242 395.5,-242 395.5,-261"/>
<text text-anchor="middle" x="343.5" y="-249" font-family="Helvetica,sans-Serif" font-size="10.00">astaroth_device.h</text>
</a>
</g>
</g>
<!-- Node3&#45;&gt;Node46 -->
<g id="edge48_Node000003_Node000046" class="edge">
<title>Node3&#45;&gt;Node46</title>
<g id="a_edge48_Node000003_Node000046"><a xlink:title=" ">
<path fill="none" stroke="#63b8ff" d="M1130.13,-304.5C1025.17,-301.14 692.22,-288.94 405.88,-261.05"/>
<polygon fill="#63b8ff" stroke="#63b8ff" points="406,-257.55 395.71,-260.05 405.32,-264.52 406,-257.55"/>
</a>
</g>
</g>
<!-- Node49 -->
<g id="Node000049" class="node">
<title>Node49</title>
<g id="a_Node000049"><a xlink:href="astaroth__legacy_8h.html" target="_top" xlink:title=" ">
<polygon fill="white" stroke="#666666" points="515.5,-261 413.5,-261 413.5,-242 515.5,-242 515.5,-261"/>
<text text-anchor="middle" x="464.5" y="-249" font-family="Helvetica,sans-Serif" font-size="10.00">astaroth_legacy.h</text>
</a>
</g>
</g>
<!-- Node3&#45;&gt;Node49 -->
<g id="edge51_Node000003_Node000049" class="edge">
<title>Node3&#45;&gt;Node49</title>
<g id="a_edge51_Node000003_Node000049"><a xlink:title=" ">
<path fill="none" stroke="#63b8ff" d="M1130.22,-303.99C1036.83,-299.57 764.17,-285.51 525.97,-260.96"/>
<polygon fill="#63b8ff" stroke="#63b8ff" points="526.03,-257.45 515.72,-259.9 525.31,-264.41 526.03,-257.45"/>
</a>
</g>
</g>
<!-- Node50 -->
<g id="Node000050" class="node">
<title>Node50</title>
<g id="a_Node000050"><a xlink:title=" ">
<polygon fill="#e0e0e0" stroke="#999999" points="673,-261 534,-261 534,-242 673,-242 673,-261"/>
<text text-anchor="middle" x="603.5" y="-249" font-family="Helvetica,sans-Serif" font-size="10.00">device_set_input_decls.h</text>
</a>
</g>
</g>
<!-- Node3&#45;&gt;Node50 -->
<g id="edge52_Node000003_Node000050" class="edge">
<title>Node3&#45;&gt;Node50</title>
<g id="a_edge52_Node000003_Node000050"><a xlink:title=" ">
<path fill="none" stroke="#63b8ff" d="M1130.24,-302.6C1053.58,-295.86 858.27,-278.5 683.44,-261.08"/>
<polygon fill="#63b8ff" stroke="#63b8ff" points="683.58,-257.58 673.28,-260.07 682.88,-264.54 683.58,-257.58"/>
</a>
</g>
</g>
<!-- Node51 -->
<g id="Node000051" class="node">
<title>Node51</title>
<g id="a_Node000051"><a xlink:title=" ">
<polygon fill="#e0e0e0" stroke="#999999" points="837.5,-261 691.5,-261 691.5,-242 837.5,-242 837.5,-261"/>
<text text-anchor="middle" x="764.5" y="-249" font-family="Helvetica,sans-Serif" font-size="10.00">device_get_output_decls.h</text>
</a>
</g>
</g>
<!-- Node3&#45;&gt;Node51 -->
<g id="edge53_Node000003_Node000051" class="edge">
<title>Node3&#45;&gt;Node51</title>
<g id="a_edge53_Node000003_Node000051"><a xlink:title=" ">
<path fill="none" stroke="#63b8ff" d="M1130.17,-301.07C1066.39,-292.6 925.7,-273.91 838.62,-262.35"/>
<polygon fill="#63b8ff" stroke="#63b8ff" points="838.91,-258.85 828.53,-261.01 837.99,-265.79 838.91,-258.85"/>
</a>
</g>
</g>
<!-- Node52 -->
<g id="Node000052" class="node">
<title>Node52</title>
<g id="a_Node000052"><a xlink:title=" ">
<polygon fill="#e0e0e0" stroke="#999999" points="995.5,-261 855.5,-261 855.5,-242 995.5,-242 995.5,-261"/>
<text text-anchor="middle" x="925.5" y="-249" font-family="Helvetica,sans-Serif" font-size="10.00">device_get_input_decls.h</text>
</a>
</g>
</g>
<!-- Node3&#45;&gt;Node52 -->
<g id="edge54_Node000003_Node000052" class="edge">
<title>Node3&#45;&gt;Node52</title>
<g id="a_edge54_Node000003_Node000052"><a xlink:title=" ">
<path fill="none" stroke="#63b8ff" d="M1130.41,-298.13C1089.71,-289.07 1020.31,-273.61 973.69,-263.23"/>
<polygon fill="#63b8ff" stroke="#63b8ff" points="974.34,-259.79 963.82,-261.03 972.82,-266.62 974.34,-259.79"/>
</a>
</g>
</g>
<!-- Node53 -->
<g id="Node000053" class="node">
<title>Node53</title>
<g id="a_Node000053"><a xlink:title=" ">
<polygon fill="#e0e0e0" stroke="#999999" points="1143.5,-261 1013.5,-261 1013.5,-242 1143.5,-242 1143.5,-261"/>
<text text-anchor="middle" x="1078.5" y="-249" font-family="Helvetica,sans-Serif" font-size="10.00">get_vtxbufs_declares.h</text>
</a>
</g>
</g>
<!-- Node3&#45;&gt;Node53 -->
<g id="edge55_Node000003_Node000053" class="edge">
<title>Node3&#45;&gt;Node53</title>
<g id="a_edge55_Node000003_Node000053"><a xlink:title=" ">
<path fill="none" stroke="#63b8ff" d="M1149.84,-296.98C1136.66,-288.77 1116.47,-276.18 1100.93,-266.49"/>
<polygon fill="#63b8ff" stroke="#63b8ff" points="1102.74,-263.49 1092.41,-261.17 1099.04,-269.43 1102.74,-263.49"/>
</a>
</g>
</g>
<!-- Node54 -->
<g id="Node000054" class="node">
<title>Node54</title>
<g id="a_Node000054"><a xlink:href="astaroth__runtime__compilation_8h.html" target="_top" xlink:title=" ">
<polygon fill="white" stroke="#666666" points="1335,-261 1162,-261 1162,-242 1335,-242 1335,-261"/>
<text text-anchor="middle" x="1248.5" y="-249" font-family="Helvetica,sans-Serif" font-size="10.00">astaroth_runtime_compilation.h</text>
</a>
</g>
</g>
<!-- Node3&#45;&gt;Node54 -->
<g id="edge56_Node000003_Node000054" class="edge">
<title>Node3&#45;&gt;Node54</title>
<g id="a_edge56_Node000003_Node000054"><a xlink:title=" ">
<path fill="none" stroke="#63b8ff" d="M1177.16,-296.98C1190.34,-288.77 1210.53,-276.18 1226.07,-266.49"/>
<polygon fill="#63b8ff" stroke="#63b8ff" points="1227.96,-269.43 1234.59,-261.17 1224.26,-263.49 1227.96,-269.43"/>
</a>
</g>
</g>
<!-- Node55 -->
<g id="Node000055" class="node">
<title>Node55</title>
<g id="a_Node000055"><a xlink:title=" ">
<polygon fill="#e0e0e0" stroke="#999999" points="1406,-261 1353,-261 1353,-242 1406,-242 1406,-261"/>
<text text-anchor="middle" x="1379.5" y="-249" font-family="Helvetica,sans-Serif" font-size="10.00">string.h</text>
</a>
</g>
</g>
<!-- Node3&#45;&gt;Node55 -->
<g id="edge57_Node000003_Node000055" class="edge">
<title>Node3&#45;&gt;Node55</title>
<g id="a_edge57_Node000003_Node000055"><a xlink:title=" ">
<path fill="none" stroke="#63b8ff" d="M1196.78,-297.33C1236.38,-287.62 1302.27,-271.45 1343.17,-261.41"/>
<polygon fill="#63b8ff" stroke="#63b8ff" points="1344.12,-264.79 1353,-259 1342.45,-257.99 1344.12,-264.79"/>
</a>
</g>
</g>
<!-- Node4&#45;&gt;Node5 -->
<g id="edge4_Node000004_Node000005" class="edge">
<title>Node4&#45;&gt;Node5</title>
<g id="a_edge4_Node000004_Node000005"><a xlink:title=" ">
<path fill="none" stroke="#63b8ff" d="M1519.09,-243.02C1601.3,-229.13 1774.26,-195.59 1911.5,-140 1951.88,-123.64 1994.99,-96.55 2019.74,-79.93"/>
<polygon fill="#63b8ff" stroke="#63b8ff" points="2021.98,-82.64 2028.28,-74.12 2018.04,-76.85 2021.98,-82.64"/>
</a>
</g>
</g>
<!-- Node6 -->
<g id="Node000006" class="node">
<title>Node6</title>
<g id="a_Node000006"><a xlink:href="acc__runtime_8h.html" target="_top" xlink:title=" ">
<polygon fill="#fff0f0" stroke="red" points="1236.5,-200.5 1150.5,-200.5 1150.5,-181.5 1236.5,-181.5 1236.5,-200.5"/>
<text text-anchor="middle" x="1193.5" y="-188.5" font-family="Helvetica,sans-Serif" font-size="10.00">acc_runtime.h</text>
</a>
</g>
</g>
<!-- Node4&#45;&gt;Node6 -->
<g id="edge5_Node000004_Node000006" class="edge">
<title>Node4&#45;&gt;Node6</title>
<g id="a_edge5_Node000004_Node000006"><a xlink:title=" ">
<path fill="none" stroke="#63b8ff" d="M1431.08,-241.99C1381.56,-231.57 1297.66,-213.92 1243.96,-202.62"/>
<polygon fill="#63b8ff" stroke="#63b8ff" points="1244.48,-199.15 1233.97,-200.52 1243.04,-206 1244.48,-199.15"/>
</a>
</g>
</g>
<!-- Node26 -->
<g id="Node000026" class="node">
<title>Node26</title>
<g id="a_Node000026"><a xlink:title=" ">
<polygon fill="#e0e0e0" stroke="#999999" points="139,-134.5 0,-134.5 0,-115.5 139,-115.5 139,-134.5"/>
<text text-anchor="middle" x="69.5" y="-122.5" font-family="Helvetica,sans-Serif" font-size="10.00">user_built&#45;in_constants.h</text>
</a>
</g>
</g>
<!-- Node4&#45;&gt;Node26 -->
<g id="edge44_Node000004_Node000026" class="edge">
<title>Node4&#45;&gt;Node26</title>
<g id="a_edge44_Node000004_Node000026"><a xlink:title=" ">
<path fill="none" stroke="#63b8ff" d="M1423.87,-243.04C1421.04,-242.67 1418.23,-242.32 1415.5,-242 866.71,-177.84 725.92,-198.52 176.5,-140 164.86,-138.76 152.52,-137.29 140.52,-135.78"/>
<polygon fill="#63b8ff" stroke="#63b8ff" points="140.91,-132.3 130.55,-134.5 140.03,-139.24 140.91,-132.3"/>
</a>
</g>
</g>
<!-- Node43 -->
<g id="Node000043" class="node">
<title>Node43</title>
<g id="a_Node000043"><a xlink:title=" ">
<polygon fill="#e0e0e0" stroke="#999999" points="1537,-206 1406,-206 1406,-176 1537,-176 1537,-206"/>
<text text-anchor="start" x="1414" y="-194" font-family="Helvetica,sans-Serif" font-size="10.00">user_builtin_non_scalar</text>
<text text-anchor="middle" x="1471.5" y="-183" font-family="Helvetica,sans-Serif" font-size="10.00">_constants.h</text>
</a>
</g>
</g>
<!-- Node4&#45;&gt;Node43 -->
<g id="edge45_Node000004_Node000043" class="edge">
<title>Node4&#45;&gt;Node43</title>
<g id="a_edge45_Node000004_Node000043"><a xlink:title=" ">
<path fill="none" stroke="#63b8ff" d="M1471.5,-241.87C1471.5,-235.11 1471.5,-225.35 1471.5,-216.26"/>
<polygon fill="#63b8ff" stroke="#63b8ff" points="1475,-216.11 1471.5,-206.11 1468,-216.11 1475,-216.11"/>
</a>
</g>
</g>
<!-- Node6&#45;&gt;Node5 -->
<g id="edge7_Node000006_Node000005" class="edge">
<title>Node6&#45;&gt;Node5</title>
<g id="a_edge7_Node000006_Node000005"><a xlink:title=" ">
<path fill="none" stroke="#63b8ff" d="M1236.59,-186.95C1381.68,-176.65 1844.29,-143.61 1859.5,-140 1889.87,-132.8 1969.85,-97.58 2012.61,-78.25"/>
<polygon fill="#63b8ff" stroke="#63b8ff" points="2014.22,-81.36 2021.88,-74.04 2011.33,-74.99 2014.22,-81.36"/>
</a>
</g>
</g>
<!-- Node7 -->
<g id="Node000007" class="node">
<title>Node7</title>
<g id="a_Node000007"><a xlink:title=" ">
<polygon fill="#e0e0e0" stroke="#999999" points="1991.5,-74 1941.5,-74 1941.5,-55 1991.5,-55 1991.5,-74"/>
<text text-anchor="middle" x="1966.5" y="-62" font-family="Helvetica,sans-Serif" font-size="10.00">stdio.h</text>
</a>
</g>
</g>
<!-- Node6&#45;&gt;Node7 -->
<g id="edge6_Node000006_Node000007" class="edge">
<title>Node6&#45;&gt;Node7</title>
<g id="a_edge6_Node000006_Node000007"><a xlink:title=" ">
<path fill="none" stroke="#63b8ff" d="M1236.78,-186.88C1377,-176.71 1810.63,-144.97 1824.5,-140 1846.44,-132.14 1847.23,-121.49 1867.5,-110 1889.24,-97.68 1915.02,-86.18 1934.82,-77.96"/>
<polygon fill="#63b8ff" stroke="#63b8ff" points="1936.36,-81.11 1944.29,-74.09 1933.71,-74.63 1936.36,-81.11"/>
</a>
</g>
</g>
<!-- Node8 -->
<g id="Node000008" class="node">
<title>Node8</title>
<g id="a_Node000008"><a xlink:href="device__headers_8h.html" target="_top" xlink:title=" ">
<polygon fill="white" stroke="#666666" points="1696.5,-74 1594.5,-74 1594.5,-55 1696.5,-55 1696.5,-74"/>
<text text-anchor="middle" x="1645.5" y="-62" font-family="Helvetica,sans-Serif" font-size="10.00">device_headers.h</text>
</a>
</g>
</g>
<!-- Node6&#45;&gt;Node8 -->
<g id="edge8_Node000006_Node000008" class="edge">
<title>Node6&#45;&gt;Node8</title>
<g id="a_edge8_Node000006_Node000008"><a xlink:title=" ">
<path fill="none" stroke="#63b8ff" d="M1236.84,-187.25C1355.72,-179.49 1679.19,-156.91 1694.5,-140 1711.5,-121.22 1686.75,-96.01 1666.68,-80.26"/>
<polygon fill="#63b8ff" stroke="#63b8ff" points="1668.6,-77.33 1658.49,-74.14 1664.4,-82.94 1668.6,-77.33"/>
</a>
</g>
</g>
<!-- Node11 -->
<g id="Node000011" class="node">
<title>Node11</title>
<g id="a_Node000011"><a xlink:title=" ">
<polygon fill="#e0e0e0" stroke="#999999" points="877,-74 782,-74 782,-55 877,-55 877,-74"/>
<text text-anchor="middle" x="829.5" y="-62" font-family="Helvetica,sans-Serif" font-size="10.00">builtin_enums.h</text>
</a>
</g>
</g>
<!-- Node6&#45;&gt;Node11 -->
<g id="edge11_Node000006_Node000011" class="edge">
<title>Node6&#45;&gt;Node11</title>
<g id="a_edge11_Node000006_Node000011"><a xlink:title=" ">
<path fill="none" stroke="#63b8ff" d="M1150.31,-188.25C958.74,-180.47 194.94,-148.87 186.5,-140 177.31,-130.34 177.4,-119.75 186.5,-110 225.94,-67.73 620.75,-64.71 771.46,-65.11"/>
<polygon fill="#63b8ff" stroke="#63b8ff" points="771.87,-68.61 781.88,-65.15 771.89,-61.61 771.87,-68.61"/>
</a>
</g>
</g>
<!-- Node12 -->
<g id="Node000012" class="node">
<title>Node12</title>
<g id="a_Node000012"><a xlink:href="datatypes_8h.html" target="_top" xlink:title=" ">
<polygon fill="#fff0f0" stroke="red" points="1815.5,-134.5 1741.5,-134.5 1741.5,-115.5 1815.5,-115.5 1815.5,-134.5"/>
<text text-anchor="middle" x="1778.5" y="-122.5" font-family="Helvetica,sans-Serif" font-size="10.00">datatypes.h</text>
</a>
</g>
</g>
<!-- Node6&#45;&gt;Node12 -->
<g id="edge12_Node000006_Node000012" class="edge">
<title>Node6&#45;&gt;Node12</title>
<g id="a_edge12_Node000006_Node000012"><a xlink:title=" ">
<path fill="none" stroke="#63b8ff" d="M1236.65,-186.94C1346.27,-179 1633.38,-157.19 1727.5,-140 1731.94,-139.19 1736.55,-138.17 1741.11,-137.06"/>
<polygon fill="#63b8ff" stroke="#63b8ff" points="1742.11,-140.42 1750.91,-134.52 1740.35,-133.64 1742.11,-140.42"/>
</a>
</g>
</g>
<!-- Node6&#45;&gt;Node20 -->
<g id="edge21_Node000006_Node000020" class="edge">
<title>Node6&#45;&gt;Node20</title>
<g id="a_edge21_Node000006_Node000020"><a xlink:title=" ">
<path fill="none" stroke="#63b8ff" d="M1236.68,-187.03C1368.76,-177.93 1766.25,-150.4 1895.5,-140 1935.68,-136.77 1981.64,-132.58 2013.21,-129.63"/>
<polygon fill="#63b8ff" stroke="#63b8ff" points="2013.7,-133.1 2023.33,-128.69 2013.05,-126.13 2013.7,-133.1"/>
</a>
</g>
</g>
<!-- Node24 -->
<g id="Node000024" class="node">
<title>Node24</title>
<g id="a_Node000024"><a xlink:title=" ">
<polygon fill="#e0e0e0" stroke="#999999" points="283,-134.5 196,-134.5 196,-115.5 283,-115.5 283,-134.5"/>
<text text-anchor="middle" x="239.5" y="-122.5" font-family="Helvetica,sans-Serif" font-size="10.00">user_defines.h</text>
</a>
</g>
</g>
<!-- Node6&#45;&gt;Node24 -->
<g id="edge30_Node000006_Node000024" class="edge">
<title>Node6&#45;&gt;Node24</title>
<g id="a_edge30_Node000006_Node000024"><a xlink:title=" ">
<path fill="none" stroke="#63b8ff" d="M1150.39,-188.12C982.53,-180.74 377.66,-153.47 292.5,-140 287.64,-139.23 282.59,-138.2 277.62,-137.05"/>
<polygon fill="#63b8ff" stroke="#63b8ff" points="278.15,-133.58 267.6,-134.56 276.46,-140.37 278.15,-133.58"/>
</a>
</g>
</g>
<!-- Node25 -->
<g id="Node000025" class="node">
<title>Node25</title>
<g id="a_Node000025"><a xlink:title=" ">
<polygon fill="#e0e0e0" stroke="#999999" points="387.5,-134.5 301.5,-134.5 301.5,-115.5 387.5,-115.5 387.5,-134.5"/>
<text text-anchor="middle" x="344.5" y="-122.5" font-family="Helvetica,sans-Serif" font-size="10.00">profiles_info.h</text>
</a>
</g>
</g>
<!-- Node6&#45;&gt;Node25 -->
<g id="edge31_Node000006_Node000025" class="edge">
<title>Node6&#45;&gt;Node25</title>
<g id="a_edge31_Node000006_Node000025"><a xlink:title=" ">
<path fill="none" stroke="#63b8ff" d="M1150.09,-188.39C1006.02,-182.89 544.44,-163.79 397.5,-140 392.65,-139.21 387.59,-138.18 382.62,-137.02"/>
<polygon fill="#63b8ff" stroke="#63b8ff" points="383.16,-133.55 372.61,-134.52 381.46,-140.34 383.16,-133.55"/>
</a>
</g>
</g>
<!-- Node6&#45;&gt;Node26 -->
<g id="edge32_Node000006_Node000026" class="edge">
<title>Node6&#45;&gt;Node26</title>
<g id="a_edge32_Node000006_Node000026"><a xlink:title=" ">
<path fill="none" stroke="#63b8ff" d="M1150.49,-188.23C966.89,-180.64 253.59,-150.71 153.5,-140 144.22,-139.01 134.4,-137.65 124.88,-136.17"/>
<polygon fill="#63b8ff" stroke="#63b8ff" points="125.13,-132.67 114.7,-134.53 124.02,-139.58 125.13,-132.67"/>
</a>
</g>
</g>
<!-- Node27 -->
<g id="Node000027" class="node">
<title>Node27</title>
<g id="a_Node000027"><a xlink:href="func__attributes_8h.html" target="_top" xlink:title=" ">
<polygon fill="white" stroke="#666666" points="505,-134.5 406,-134.5 406,-115.5 505,-115.5 505,-134.5"/>
<text text-anchor="middle" x="455.5" y="-122.5" font-family="Helvetica,sans-Serif" font-size="10.00">func_attributes.h</text>
</a>
</g>
</g>
<!-- Node6&#45;&gt;Node27 -->
<g id="edge33_Node000006_Node000027" class="edge">
<title>Node6&#45;&gt;Node27</title>
<g id="a_edge33_Node000006_Node000027"><a xlink:title=" ">
<path fill="none" stroke="#63b8ff" d="M1150.33,-189.21C1042.48,-186.7 752.8,-176.81 514.5,-140 508.97,-139.15 503.2,-138.04 497.52,-136.83"/>
<polygon fill="#63b8ff" stroke="#63b8ff" points="497.99,-133.35 487.47,-134.57 496.45,-140.18 497.99,-133.35"/>
</a>
</g>
</g>
<!-- Node28 -->
<g id="Node000028" class="node">
<title>Node28</title>
<g id="a_Node000028"><a xlink:title=" ">
<polygon fill="#e0e0e0" stroke="#999999" points="648,-134.5 523,-134.5 523,-115.5 648,-115.5 648,-134.5"/>
<text text-anchor="middle" x="585.5" y="-122.5" font-family="Helvetica,sans-Serif" font-size="10.00">user_input_typedefs.h</text>
</a>
</g>
</g>
<!-- Node6&#45;&gt;Node28 -->
<g id="edge34_Node000006_Node000028" class="edge">
<title>Node6&#45;&gt;Node28</title>
<g id="a_edge34_Node000006_Node000028"><a xlink:title=" ">
<path fill="none" stroke="#63b8ff" d="M1150.25,-187.42C1058.91,-181.66 839.75,-166.15 657.5,-140 650.39,-138.98 642.93,-137.73 635.6,-136.4"/>
<polygon fill="#63b8ff" stroke="#63b8ff" points="636.22,-132.96 625.75,-134.56 634.93,-139.84 636.22,-132.96"/>
</a>
</g>
</g>
<!-- Node29 -->
<g id="Node000029" class="node">
<title>Node29</title>
<g id="a_Node000029"><a xlink:title=" ">
<polygon fill="#e0e0e0" stroke="#999999" points="749,-134.5 666,-134.5 666,-115.5 749,-115.5 749,-134.5"/>
<text text-anchor="middle" x="707.5" y="-122.5" font-family="Helvetica,sans-Serif" font-size="10.00">output_decl.h</text>
</a>
</g>
</g>
<!-- Node6&#45;&gt;Node29 -->
<g id="edge35_Node000006_Node000029" class="edge">
<title>Node6&#45;&gt;Node29</title>
<g id="a_edge35_Node000006_Node000029"><a xlink:title=" ">
<path fill="none" stroke="#63b8ff" d="M1150.25,-187.24C1071.68,-181.73 900.49,-167.48 758.5,-140 754.29,-139.19 749.92,-138.2 745.59,-137.14"/>
<polygon fill="#63b8ff" stroke="#63b8ff" points="746.2,-133.68 735.64,-134.56 744.44,-140.46 746.2,-133.68"/>
</a>
</g>
</g>
<!-- Node30 -->
<g id="Node000030" class="node">
<title>Node30</title>
<g id="a_Node000030"><a xlink:title=" ">
<polygon fill="#e0e0e0" stroke="#999999" points="883.5,-134.5 767.5,-134.5 767.5,-115.5 883.5,-115.5 883.5,-134.5"/>
<text text-anchor="middle" x="825.5" y="-122.5" font-family="Helvetica,sans-Serif" font-size="10.00">comp_loaded_decl.h</text>
</a>
</g>
</g>
<!-- Node6&#45;&gt;Node30 -->
<g id="edge36_Node000006_Node000030" class="edge">
<title>Node6&#45;&gt;Node30</title>
<g id="a_edge36_Node000006_Node000030"><a xlink:title=" ">
<path fill="none" stroke="#63b8ff" d="M1150.29,-183.4C1091.74,-174.32 984.01,-157.15 892.5,-140 886.81,-138.93 880.87,-137.77 874.96,-136.58"/>
<polygon fill="#63b8ff" stroke="#63b8ff" points="875.62,-133.14 865.13,-134.56 874.22,-140 875.62,-133.14"/>
</a>
</g>
</g>
<!-- Node31 -->
<g id="Node000031" class="node">
<title>Node31</title>
<g id="a_Node000031"><a xlink:title=" ">
<polygon fill="#e0e0e0" stroke="#999999" points="979.5,-134.5 901.5,-134.5 901.5,-115.5 979.5,-115.5 979.5,-134.5"/>
<text text-anchor="middle" x="940.5" y="-122.5" font-family="Helvetica,sans-Serif" font-size="10.00">comp_decl.h</text>
</a>
</g>
</g>
<!-- Node6&#45;&gt;Node31 -->
<g id="edge37_Node000006_Node000031" class="edge">
<title>Node6&#45;&gt;Node31</title>
<g id="a_edge37_Node000006_Node000031"><a xlink:title=" ">
<path fill="none" stroke="#63b8ff" d="M1156.34,-181.46C1115.17,-171.88 1046.89,-155.63 988.5,-140 985.31,-139.15 982.02,-138.24 978.71,-137.31"/>
<polygon fill="#63b8ff" stroke="#63b8ff" points="979.45,-133.88 968.87,-134.5 977.52,-140.61 979.45,-133.88"/>
</a>
</g>
</g>
<!-- Node32 -->
<g id="Node000032" class="node">
<title>Node32</title>
<g id="a_Node000032"><a xlink:title=" ">
<polygon fill="#e0e0e0" stroke="#999999" points="1105.5,-134.5 997.5,-134.5 997.5,-115.5 1105.5,-115.5 1105.5,-134.5"/>
<text text-anchor="middle" x="1051.5" y="-122.5" font-family="Helvetica,sans-Serif" font-size="10.00">info_loaded_decl.h</text>
</a>
</g>
</g>
<!-- Node6&#45;&gt;Node32 -->
<g id="edge38_Node000006_Node000032" class="edge">
<title>Node6&#45;&gt;Node32</title>
<g id="a_edge38_Node000006_Node000032"><a xlink:title=" ">
<path fill="none" stroke="#63b8ff" d="M1174.35,-181.37C1150.11,-170.44 1108.13,-151.52 1080.09,-138.88"/>
<polygon fill="#63b8ff" stroke="#63b8ff" points="1081.36,-135.62 1070.8,-134.7 1078.48,-142 1081.36,-135.62"/>
</a>
</g>
</g>
<!-- Node33 -->
<g id="Node000033" class="node">
<title>Node33</title>
<g id="a_Node000033"><a xlink:title=" ">
<polygon fill="#e0e0e0" stroke="#999999" points="1263.5,-134.5 1123.5,-134.5 1123.5,-115.5 1263.5,-115.5 1263.5,-134.5"/>
<text text-anchor="middle" x="1193.5" y="-122.5" font-family="Helvetica,sans-Serif" font-size="10.00">device_mesh_info_decl.h</text>
</a>
</g>
</g>
<!-- Node6&#45;&gt;Node33 -->
<g id="edge39_Node000006_Node000033" class="edge">
<title>Node6&#45;&gt;Node33</title>
<g id="a_edge39_Node000006_Node000033"><a xlink:title=" ">
<path fill="none" stroke="#63b8ff" d="M1193.5,-181.37C1193.5,-172.16 1193.5,-157.29 1193.5,-145.27"/>
<polygon fill="#63b8ff" stroke="#63b8ff" points="1197,-144.91 1193.5,-134.91 1190,-144.91 1197,-144.91"/>
</a>
</g>
</g>
<!-- Node34 -->
<g id="Node000034" class="node">
<title>Node34</title>
<g id="a_Node000034"><a xlink:title=" ">
<polygon fill="#e0e0e0" stroke="#999999" points="1359,-134.5 1282,-134.5 1282,-115.5 1359,-115.5 1359,-134.5"/>
<text text-anchor="middle" x="1320.5" y="-122.5" font-family="Helvetica,sans-Serif" font-size="10.00">array_decl.h</text>
</a>
</g>
</g>
<!-- Node6&#45;&gt;Node34 -->
<g id="edge40_Node000006_Node000034" class="edge">
<title>Node6&#45;&gt;Node34</title>
<g id="a_edge40_Node000006_Node000034"><a xlink:title=" ">
<path fill="none" stroke="#63b8ff" d="M1210.63,-181.37C1232.12,-170.54 1269.2,-151.85 1294.27,-139.22"/>
<polygon fill="#63b8ff" stroke="#63b8ff" points="1295.88,-142.32 1303.24,-134.7 1292.73,-136.07 1295.88,-142.32"/>
</a>
</g>
</g>
<!-- Node35 -->
<g id="Node000035" class="node">
<title>Node35</title>
<g id="a_Node000035"><a xlink:title=" ">
<polygon fill="#e0e0e0" stroke="#999999" points="1453.5,-134.5 1377.5,-134.5 1377.5,-115.5 1453.5,-115.5 1453.5,-134.5"/>
<text text-anchor="middle" x="1415.5" y="-122.5" font-family="Helvetica,sans-Serif" font-size="10.00">input_decl.h</text>
</a>
</g>
</g>
<!-- Node6&#45;&gt;Node35 -->
<g id="edge41_Node000006_Node000035" class="edge">
<title>Node6&#45;&gt;Node35</title>
<g id="a_edge41_Node000006_Node000035"><a xlink:title=" ">
<path fill="none" stroke="#63b8ff" d="M1223.88,-181.43C1258.81,-171.55 1317.84,-154.78 1368.5,-140 1371.26,-139.2 1374.11,-138.36 1376.97,-137.51"/>
<polygon fill="#63b8ff" stroke="#63b8ff" points="1378.09,-140.83 1386.68,-134.64 1376.1,-134.12 1378.09,-140.83"/>
</a>
</g>
</g>
<!-- Node36 -->
<g id="Node000036" class="node">
<title>Node36</title>
<g id="a_Node000036"><a xlink:href="ac__helpers_8h.html" target="_top" xlink:title=" ">
<polygon fill="white" stroke="#666666" points="1549.5,-134.5 1471.5,-134.5 1471.5,-115.5 1549.5,-115.5 1549.5,-134.5"/>
<text text-anchor="middle" x="1510.5" y="-122.5" font-family="Helvetica,sans-Serif" font-size="10.00">ac_helpers.h</text>
</a>
</g>
</g>
<!-- Node6&#45;&gt;Node36 -->
<g id="edge42_Node000006_Node000036" class="edge">
<title>Node6&#45;&gt;Node36</title>
<g id="a_edge42_Node000006_Node000036"><a xlink:title=" ">
<path fill="none" stroke="#63b8ff" d="M1236.64,-183.35C1290,-174.8 1383.48,-158.82 1462.5,-140 1465.94,-139.18 1469.5,-138.27 1473.06,-137.31"/>
<polygon fill="#63b8ff" stroke="#63b8ff" points="1474.27,-140.61 1482.96,-134.54 1472.39,-133.86 1474.27,-140.61"/>
</a>
</g>
</g>
<!-- Node37 -->
<g id="Node000037" class="node">
<title>Node37</title>
<g id="a_Node000037"><a xlink:title=" ">
<polygon fill="#e0e0e0" stroke="#999999" points="1685.5,-140 1567.5,-140 1567.5,-110 1685.5,-110 1685.5,-140"/>
<text text-anchor="start" x="1575.5" y="-128" font-family="Helvetica,sans-Serif" font-size="10.00">scalar_reduce_buffer</text>
<text text-anchor="middle" x="1626.5" y="-117" font-family="Helvetica,sans-Serif" font-size="10.00">_defs.h</text>
</a>
</g>
</g>
<!-- Node6&#45;&gt;Node37 -->
<g id="edge43_Node000006_Node000037" class="edge">
<title>Node6&#45;&gt;Node37</title>
<g id="a_edge43_Node000006_Node000037"><a xlink:title=" ">
<path fill="none" stroke="#63b8ff" d="M1236.63,-185.04C1303.26,-177.17 1435.45,-160.73 1557.33,-140.13"/>
<polygon fill="#63b8ff" stroke="#63b8ff" points="1557.94,-143.58 1567.21,-138.45 1556.76,-136.68 1557.94,-143.58"/>
</a>
</g>
</g>
<!-- Node9 -->
<g id="Node000009" class="node">
<title>Node9</title>
<g id="a_Node000009"><a xlink:title=" ">
<polygon fill="#e0e0e0" stroke="#999999" points="1623,-19 1510,-19 1510,0 1623,0 1623,-19"/>
<text text-anchor="middle" x="1566.5" y="-7" font-family="Helvetica,sans-Serif" font-size="10.00">cuda_runtime_api.h</text>
</a>
</g>
</g>
<!-- Node8&#45;&gt;Node9 -->
<g id="edge9_Node000008_Node000009" class="edge">
<title>Node8&#45;&gt;Node9</title>
<g id="a_edge9_Node000008_Node000009"><a xlink:title=" ">
<path fill="none" stroke="#63b8ff" d="M1632.81,-54.98C1620.67,-46.84 1602.14,-34.41 1587.75,-24.76"/>
<polygon fill="#63b8ff" stroke="#63b8ff" points="1589.68,-21.84 1579.42,-19.17 1585.78,-27.65 1589.68,-21.84"/>
</a>
</g>
</g>
<!-- Node10 -->
<g id="Node000010" class="node">
<title>Node10</title>
<g id="a_Node000010"><a xlink:title=" ">
<polygon fill="#e0e0e0" stroke="#999999" points="1717.5,-19 1641.5,-19 1641.5,0 1717.5,0 1717.5,-19"/>
<text text-anchor="middle" x="1679.5" y="-7" font-family="Helvetica,sans-Serif" font-size="10.00">cuda_fp16.h</text>
</a>
</g>
</g>
<!-- Node8&#45;&gt;Node10 -->
<g id="edge10_Node000008_Node000010" class="edge">
<title>Node8&#45;&gt;Node10</title>
<g id="a_edge10_Node000008_Node000010"><a xlink:title=" ">
<path fill="none" stroke="#63b8ff" d="M1651.11,-54.75C1655.82,-47.42 1662.67,-36.73 1668.47,-27.7"/>
<polygon fill="#63b8ff" stroke="#63b8ff" points="1671.54,-29.4 1673.99,-19.09 1665.64,-25.62 1671.54,-29.4"/>
</a>
</g>
</g>
<!-- Node12&#45;&gt;Node8 -->
<g id="edge14_Node000012_Node000008" class="edge">
<title>Node12&#45;&gt;Node8</title>
<g id="a_edge14_Node000012_Node000008"><a xlink:title=" ">
<path fill="none" stroke="#63b8ff" d="M1759.16,-115.49C1736.8,-105.66 1699.79,-89.38 1674.1,-78.08"/>
<polygon fill="#63b8ff" stroke="#63b8ff" points="1675.43,-74.84 1664.86,-74.02 1672.61,-81.25 1675.43,-74.84"/>
</a>
</g>
</g>
<!-- Node12&#45;&gt;Node9 -->
<g id="edge15_Node000012_Node000009" class="edge">
<title>Node12&#45;&gt;Node9</title>
<g id="a_edge15_Node000012_Node000009"><a xlink:title=" ">
<path fill="none" stroke="#63b8ff" d="M1741.41,-116.44C1688.59,-105.36 1596.78,-84.87 1585.5,-74 1573.47,-62.41 1568.97,-43.54 1567.34,-29.38"/>
<polygon fill="#63b8ff" stroke="#63b8ff" points="1570.81,-28.95 1566.54,-19.26 1563.83,-29.5 1570.81,-28.95"/>
</a>
</g>
</g>
<!-- Node12&#45;&gt;Node11 -->
<g id="edge17_Node000012_Node000011" class="edge">
<title>Node12&#45;&gt;Node11</title>
<g id="a_edge17_Node000012_Node000011"><a xlink:title=" ">
<path fill="none" stroke="#63b8ff" d="M1741.41,-116.88C1726.84,-114.33 1709.93,-111.68 1694.5,-110 1391.51,-77.07 1026.1,-68.39 887.01,-66.2"/>
<polygon fill="#63b8ff" stroke="#63b8ff" points="887.06,-62.7 877,-66.05 886.95,-69.7 887.06,-62.7"/>
</a>
</g>
</g>
<!-- Node12&#45;&gt;Node14 -->
<g id="edge13_Node000012_Node000014" class="edge">
<title>Node12&#45;&gt;Node14</title>
<g id="a_edge13_Node000012_Node000014"><a xlink:title=" ">
<path fill="none" stroke="#63b8ff" d="M1778.5,-115.37C1778.5,-107.25 1778.5,-94.81 1778.5,-84.39"/>
<polygon fill="#63b8ff" stroke="#63b8ff" points="1782,-84.17 1778.5,-74.17 1775,-84.17 1782,-84.17"/>
</a>
</g>
</g>
<!-- Node16 -->
<g id="Node000016" class="node">
<title>Node16</title>
<g id="a_Node000016"><a xlink:href="acreal_8h.html" target="_top" xlink:title=" ">
<polygon fill="white" stroke="#666666" points="1854.5,-19 1798.5,-19 1798.5,0 1854.5,0 1854.5,-19"/>
<text text-anchor="middle" x="1826.5" y="-7" font-family="Helvetica,sans-Serif" font-size="10.00">acreal.h</text>
</a>
</g>
</g>
<!-- Node12&#45;&gt;Node16 -->
<g id="edge16_Node000012_Node000016" class="edge">
<title>Node12&#45;&gt;Node16</title>
<g id="a_edge16_Node000012_Node000016"><a xlink:title=" ">
<path fill="none" stroke="#63b8ff" d="M1768.5,-115.27C1754.5,-101.95 1732.07,-75.89 1744.5,-55 1754.19,-38.71 1772.16,-28.01 1788.81,-21.2"/>
<polygon fill="#63b8ff" stroke="#63b8ff" points="1790.25,-24.4 1798.39,-17.63 1787.8,-17.84 1790.25,-24.4"/>
</a>
</g>
</g>
<!-- Node18 -->
<g id="Node000018" class="node">
<title>Node18</title>
<g id="a_Node000018"><a xlink:href="host__datatypes_8h.html" target="_top" xlink:title=" ">
<polygon fill="white" stroke="#666666" points="1923,-74 1822,-74 1822,-55 1923,-55 1923,-74"/>
<text text-anchor="middle" x="1872.5" y="-62" font-family="Helvetica,sans-Serif" font-size="10.00">host_datatypes.h</text>
</a>
</g>
</g>
<!-- Node12&#45;&gt;Node18 -->
<g id="edge18_Node000012_Node000018" class="edge">
<title>Node12&#45;&gt;Node18</title>
<g id="a_edge18_Node000012_Node000018"><a xlink:title=" ">
<path fill="none" stroke="#63b8ff" d="M1792.37,-115.37C1807.5,-105.95 1831.96,-90.73 1849.88,-79.58"/>
<polygon fill="#63b8ff" stroke="#63b8ff" points="1851.93,-82.42 1858.57,-74.17 1848.23,-76.48 1851.93,-82.42"/>
</a>
</g>
</g>
<!-- Node18&#45;&gt;Node16 -->
<g id="edge19_Node000018_Node000016" class="edge">
<title>Node18&#45;&gt;Node16</title>
<g id="a_edge19_Node000018_Node000016"><a xlink:title=" ">
<path fill="none" stroke="#63b8ff" d="M1864.9,-54.75C1858.34,-47.18 1848.68,-36.05 1840.69,-26.84"/>
<polygon fill="#63b8ff" stroke="#63b8ff" points="1843.15,-24.35 1833.95,-19.09 1837.87,-28.94 1843.15,-24.35"/>
</a>
</g>
</g>
<!-- Node19 -->
<g id="Node000019" class="node">
<title>Node19</title>
<g id="a_Node000019"><a xlink:title=" ">
<polygon fill="#e0e0e0" stroke="#999999" points="1945.5,-19 1889.5,-19 1889.5,0 1945.5,0 1945.5,-19"/>
<text text-anchor="middle" x="1917.5" y="-7" font-family="Helvetica,sans-Serif" font-size="10.00">stddef.h</text>
</a>
</g>
</g>
<!-- Node18&#45;&gt;Node19 -->
<g id="edge20_Node000018_Node000019" class="edge">
<title>Node18&#45;&gt;Node19</title>
<g id="a_edge20_Node000018_Node000019"><a xlink:title=" ">
<path fill="none" stroke="#63b8ff" d="M1879.93,-54.75C1886.35,-47.18 1895.81,-36.05 1903.62,-26.84"/>
<polygon fill="#63b8ff" stroke="#63b8ff" points="1906.4,-28.98 1910.21,-19.09 1901.07,-24.45 1906.4,-28.98"/>
</a>
</g>
</g>
<!-- Node20&#45;&gt;Node5 -->
<g id="edge24_Node000020_Node000005" class="edge">
<title>Node20&#45;&gt;Node5</title>
<g id="a_edge24_Node000020_Node000005"><a xlink:title=" ">
<path fill="none" stroke="#63b8ff" d="M2049.88,-115.37C2048.33,-107.16 2045.96,-94.54 2043.99,-84.05"/>
<polygon fill="#63b8ff" stroke="#63b8ff" points="2047.42,-83.35 2042.13,-74.17 2040.54,-84.64 2047.42,-83.35"/>
</a>
</g>
</g>
<!-- Node20&#45;&gt;Node7 -->
<g id="edge26_Node000020_Node000007" class="edge">
<title>Node20&#45;&gt;Node7</title>
<g id="a_edge26_Node000020_Node000007"><a xlink:title=" ">
<path fill="none" stroke="#63b8ff" d="M2038.96,-115.37C2025.4,-106.04 2003.56,-91.01 1987.4,-79.88"/>
<polygon fill="#63b8ff" stroke="#63b8ff" points="1989.32,-76.95 1979.09,-74.17 1985.35,-82.72 1989.32,-76.95"/>
</a>
</g>
</g>
<!-- Node20&#45;&gt;Node8 -->
<g id="edge29_Node000020_Node000008" class="edge">
<title>Node20&#45;&gt;Node8</title>
<g id="a_edge29_Node000020_Node000008"><a xlink:title=" ">
<path fill="none" stroke="#63b8ff" d="M2023.27,-119.93C1958.08,-110.54 1795.81,-87.16 1706.62,-74.31"/>
<polygon fill="#63b8ff" stroke="#63b8ff" points="1707.04,-70.83 1696.65,-72.87 1706.04,-77.76 1707.04,-70.83"/>
</a>
</g>
</g>
<!-- Node20&#45;&gt;Node18 -->
<g id="edge23_Node000020_Node000018" class="edge">
<title>Node20&#45;&gt;Node18</title>
<g id="a_edge23_Node000020_Node000018"><a xlink:title=" ">
<path fill="none" stroke="#63b8ff" d="M2025.47,-115.49C1994.58,-105.4 1942.92,-88.51 1908.28,-77.19"/>
<polygon fill="#63b8ff" stroke="#63b8ff" points="1909.15,-73.8 1898.56,-74.02 1906.98,-80.45 1909.15,-73.8"/>
</a>
</g>
</g>
<!-- Node20&#45;&gt;Node19 -->
<g id="edge22_Node000020_Node000019" class="edge">
<title>Node20&#45;&gt;Node19</title>
<g id="a_edge22_Node000020_Node000019"><a xlink:title=" ">
<path fill="none" stroke="#63b8ff" d="M2060.53,-115.21C2073.68,-101.33 2095.01,-74 2080.5,-55 2065.42,-35.25 1998.91,-22.15 1955.65,-15.55"/>
<polygon fill="#63b8ff" stroke="#63b8ff" points="1956.13,-12.08 1945.73,-14.09 1955.11,-19.01 1956.13,-12.08"/>
</a>
</g>
</g>
<!-- Node21 -->
<g id="Node000021" class="node">
<title>Node21</title>
<g id="a_Node000021"><a xlink:title=" ">
<polygon fill="#e0e0e0" stroke="#999999" points="2181,-74 2128,-74 2128,-55 2181,-55 2181,-74"/>
<text text-anchor="middle" x="2154.5" y="-62" font-family="Helvetica,sans-Serif" font-size="10.00">stdint.h</text>
</a>
</g>
</g>
<!-- Node20&#45;&gt;Node21 -->
<g id="edge25_Node000020_Node000021" class="edge">
<title>Node20&#45;&gt;Node21</title>
<g id="a_edge25_Node000020_Node000021"><a xlink:title=" ">
<path fill="none" stroke="#63b8ff" d="M2066.7,-115.37C2083.51,-105.82 2110.82,-90.31 2130.52,-79.12"/>
<polygon fill="#63b8ff" stroke="#63b8ff" points="2132.27,-82.15 2139.24,-74.17 2128.82,-76.06 2132.27,-82.15"/>
</a>
</g>
</g>
<!-- Node22 -->
<g id="Node000022" class="node">
<title>Node22</title>
<g id="a_Node000022"><a xlink:title=" ">
<polygon fill="#e0e0e0" stroke="#999999" points="2252,-74 2199,-74 2199,-55 2252,-55 2252,-74"/>
<text text-anchor="middle" x="2225.5" y="-62" font-family="Helvetica,sans-Serif" font-size="10.00">stdlib.h</text>
</a>
</g>
</g>
<!-- Node20&#45;&gt;Node22 -->
<g id="edge27_Node000020_Node000022" class="edge">
<title>Node20&#45;&gt;Node22</title>
<g id="a_edge27_Node000020_Node000022"><a xlink:title=" ">
<path fill="none" stroke="#63b8ff" d="M2076.8,-115.49C2106.7,-105.44 2156.62,-88.66 2190.28,-77.34"/>
<polygon fill="#63b8ff" stroke="#63b8ff" points="2191.81,-80.52 2200.17,-74.02 2189.57,-73.89 2191.81,-80.52"/>
</a>
</g>
</g>
<!-- Node23 -->
<g id="Node000023" class="node">
<title>Node23</title>
<g id="a_Node000023"><a xlink:title=" ">
<polygon fill="#e0e0e0" stroke="#999999" points="2318.5,-74 2270.5,-74 2270.5,-55 2318.5,-55 2318.5,-74"/>
<text text-anchor="middle" x="2294.5" y="-62" font-family="Helvetica,sans-Serif" font-size="10.00">time.h</text>
</a>
</g>
</g>
<!-- Node20&#45;&gt;Node23 -->
<g id="edge28_Node000020_Node000023" class="edge">
<title>Node20&#45;&gt;Node23</title>
<g id="a_edge28_Node000020_Node000023"><a xlink:title=" ">
<path fill="none" stroke="#63b8ff" d="M2079.73,-117.45C2118.27,-108.47 2189.77,-91.69 2260.4,-74.24"/>
<polygon fill="#63b8ff" stroke="#63b8ff" points="2261.5,-77.57 2270.36,-71.77 2259.81,-70.78 2261.5,-77.57"/>
</a>
</g>
</g>
<!-- Node47 -->
<g id="Node000047" class="node">
<title>Node47</title>
<g id="a_Node000047"><a xlink:title=" ">
<polygon fill="#e0e0e0" stroke="#999999" points="473,-206 354,-206 354,-176 473,-176 473,-206"/>
<text text-anchor="start" x="362" y="-194" font-family="Helvetica,sans-Serif" font-size="10.00">device_load_uniform</text>
<text text-anchor="middle" x="413.5" y="-183" font-family="Helvetica,sans-Serif" font-size="10.00">_decl.h</text>
</a>
</g>
</g>
<!-- Node46&#45;&gt;Node47 -->
<g id="edge49_Node000046_Node000047" class="edge">
<title>Node46&#45;&gt;Node47</title>
<g id="a_edge49_Node000046_Node000047"><a xlink:title=" ">
<path fill="none" stroke="#63b8ff" d="M353.83,-241.87C362.98,-234.22 376.69,-222.76 388.67,-212.75"/>
<polygon fill="#63b8ff" stroke="#63b8ff" points="391.18,-215.21 396.61,-206.11 386.69,-209.84 391.18,-215.21"/>
</a>
</g>
</g>
<!-- Node48 -->
<g id="Node000048" class="node">
<title>Node48</title>
<g id="a_Node000048"><a xlink:title=" ">
<polygon fill="#e0e0e0" stroke="#999999" points="335.5,-206 213.5,-206 213.5,-176 335.5,-176 335.5,-206"/>
<text text-anchor="start" x="221.5" y="-194" font-family="Helvetica,sans-Serif" font-size="10.00">device_store_uniform</text>
<text text-anchor="middle" x="274.5" y="-183" font-family="Helvetica,sans-Serif" font-size="10.00">_decl.h</text>
</a>
</g>
</g>
<!-- Node46&#45;&gt;Node48 -->
<g id="edge50_Node000046_Node000048" class="edge">
<title>Node46&#45;&gt;Node48</title>
<g id="a_edge50_Node000046_Node000048"><a xlink:title=" ">
<path fill="none" stroke="#63b8ff" d="M333.32,-241.87C324.3,-234.22 310.78,-222.76 298.97,-212.75"/>
<polygon fill="#63b8ff" stroke="#63b8ff" points="301.04,-209.91 291.15,-206.11 296.51,-215.25 301.04,-209.91"/>
</a>
</g>
</g>
</g>
</svg>
