<?xml version="1.0" encoding="UTF-8" standalone="no"?>
<!DOCTYPE svg PUBLIC "-//W3C//DTD SVG 1.1//EN"
 "http://www.w3.org/Graphics/SVG/1.1/DTD/svg11.dtd">
<!-- Generated by graphviz version 2.43.0 (0)
 -->
<!-- Title: src/utils/modelsolver.cc Pages: 1 -->
<svg width="2253pt" height="423pt"
 viewBox="0.00 0.00 2252.55 423.00" xmlns="http://www.w3.org/2000/svg" xmlns:xlink="http://www.w3.org/1999/xlink">
<g id="graph0" class="graph" transform="scale(1 1) rotate(0) translate(4 419)">
<title>src/utils/modelsolver.cc</title>
<!-- Node1 -->
<g id="Node000001" class="node">
<title>Node1</title>
<g id="a_Node000001"><a xlink:title="Brief info.">
<polygon fill="#999999" stroke="#666666" points="1469.55,-415 1338.55,-415 1338.55,-396 1469.55,-396 1469.55,-415"/>
<text text-anchor="middle" x="1404.05" y="-403" font-family="Helvetica,sans-Serif" font-size="10.00">src/utils/modelsolver.cc</text>
</a>
</g>
</g>
<!-- Node2 -->
<g id="Node000002" class="node">
<title>Node2</title>
<g id="a_Node000002"><a xlink:href="astaroth__utils_8h.html" target="_top" xlink:title="Functions for loading and updating AcMeshInfo.">
<polygon fill="white" stroke="#666666" points="1450.05,-360 1358.05,-360 1358.05,-341 1450.05,-341 1450.05,-360"/>
<text text-anchor="middle" x="1404.05" y="-348" font-family="Helvetica,sans-Serif" font-size="10.00">astaroth_utils.h</text>
</a>
</g>
</g>
<!-- Node1&#45;&gt;Node2 -->
<g id="edge1_Node000001_Node000002" class="edge">
<title>Node1&#45;&gt;Node2</title>
<g id="a_edge1_Node000001_Node000002"><a xlink:title=" ">
<path fill="none" stroke="#63b8ff" d="M1404.05,-395.75C1404.05,-388.8 1404.05,-378.85 1404.05,-370.13"/>
<polygon fill="#63b8ff" stroke="#63b8ff" points="1407.55,-370.09 1404.05,-360.09 1400.55,-370.09 1407.55,-370.09"/>
</a>
</g>
</g>
<!-- Node5 -->
<g id="Node000005" class="node">
<title>Node5</title>
<g id="a_Node000005"><a xlink:title=" ">
<polygon fill="#e0e0e0" stroke="#999999" points="287.05,-74 225.05,-74 225.05,-55 287.05,-55 287.05,-74"/>
<text text-anchor="middle" x="256.05" y="-62" font-family="Helvetica,sans-Serif" font-size="10.00">stdbool.h</text>
</a>
</g>
</g>
<!-- Node1&#45;&gt;Node5 -->
<g id="edge63_Node000001_Node000005" class="edge">
<title>Node1&#45;&gt;Node5</title>
<g id="a_edge63_Node000001_Node000005"><a xlink:title=" ">
<path fill="none" stroke="#63b8ff" d="M1338.25,-402.17C1084.01,-392.76 180.05,-355.16 180.05,-296.5 180.05,-296.5 180.05,-296.5 180.05,-179 180.05,-138.03 214.67,-100.66 237.18,-80.69"/>
<polygon fill="#63b8ff" stroke="#63b8ff" points="239.51,-83.31 244.84,-74.15 234.96,-77.99 239.51,-83.31"/>
</a>
</g>
</g>
<!-- Node14 -->
<g id="Node000014" class="node">
<title>Node14</title>
<g id="a_Node000014"><a xlink:title=" ">
<polygon fill="#e0e0e0" stroke="#999999" points="1961.55,-74 1910.55,-74 1910.55,-55 1961.55,-55 1961.55,-74"/>
<text text-anchor="middle" x="1936.05" y="-62" font-family="Helvetica,sans-Serif" font-size="10.00">math.h</text>
</a>
</g>
</g>
<!-- Node1&#45;&gt;Node14 -->
<g id="edge62_Node000001_Node000014" class="edge">
<title>Node1&#45;&gt;Node14</title>
<g id="a_edge62_Node000001_Node000014"><a xlink:title=" ">
<path fill="none" stroke="#63b8ff" d="M1469.69,-400.08C1631.05,-388.33 2034.05,-353.3 2034.05,-296.5 2034.05,-296.5 2034.05,-296.5 2034.05,-179 2034.05,-147.19 2034.64,-135.06 2015.05,-110 2003.82,-95.62 1986.56,-85.14 1971.03,-77.97"/>
<polygon fill="#63b8ff" stroke="#63b8ff" points="1972.23,-74.68 1961.66,-73.93 1969.46,-81.1 1972.23,-74.68"/>
</a>
</g>
</g>
<!-- Node20 -->
<g id="Node000020" class="node">
<title>Node20</title>
<g id="a_Node000020"><a xlink:href="errchk_8h.html" target="_top" xlink:title="Brief info.">
<polygon fill="white" stroke="#666666" points="152.05,-129 96.05,-129 96.05,-110 152.05,-110 152.05,-129"/>
<text text-anchor="middle" x="124.05" y="-117" font-family="Helvetica,sans-Serif" font-size="10.00">errchk.h</text>
</a>
</g>
</g>
<!-- Node1&#45;&gt;Node20 -->
<g id="edge64_Node000001_Node000020" class="edge">
<title>Node1&#45;&gt;Node20</title>
<g id="a_edge64_Node000001_Node000020"><a xlink:title=" ">
<path fill="none" stroke="#63b8ff" d="M1338.35,-403.96C1089.43,-401.69 215.9,-391.51 166.05,-360 139.17,-343 133.05,-328.31 133.05,-296.5 133.05,-296.5 133.05,-296.5 133.05,-239.5 133.05,-204.05 129.03,-162.83 126.37,-139.39"/>
<polygon fill="#63b8ff" stroke="#63b8ff" points="129.81,-138.66 125.16,-129.14 122.85,-139.48 129.81,-138.66"/>
</a>
</g>
</g>
<!-- Node43 -->
<g id="Node000043" class="node">
<title>Node43</title>
<g id="a_Node000043"><a xlink:title=" ">
<polygon fill="#e0e0e0" stroke="#999999" points="339.55,-195 208.55,-195 208.55,-165 339.55,-165 339.55,-195"/>
<text text-anchor="start" x="216.55" y="-183" font-family="Helvetica,sans-Serif" font-size="10.00">user_builtin_non_scalar</text>
<text text-anchor="middle" x="274.05" y="-172" font-family="Helvetica,sans-Serif" font-size="10.00">_constants.h</text>
</a>
</g>
</g>
<!-- Node1&#45;&gt;Node43 -->
<g id="edge60_Node000001_Node000043" class="edge">
<title>Node1&#45;&gt;Node43</title>
<g id="a_edge60_Node000001_Node000043"><a xlink:title=" ">
<path fill="none" stroke="#63b8ff" d="M1347.19,-395.99C1208.19,-374.82 840.37,-316.7 537.05,-250 466.24,-234.43 385.72,-212.7 332.64,-197.81"/>
<polygon fill="#63b8ff" stroke="#63b8ff" points="333.3,-194.36 322.73,-195.02 331.4,-201.1 333.3,-194.36"/>
</a>
</g>
</g>
<!-- Node58 -->
<g id="Node000058" class="node">
<title>Node58</title>
<g id="a_Node000058"><a xlink:title=" ">
<polygon fill="#e0e0e0" stroke="#999999" points="2161.55,-360 2062.55,-360 2062.55,-341 2161.55,-341 2161.55,-360"/>
<text text-anchor="middle" x="2112.05" y="-348" font-family="Helvetica,sans-Serif" font-size="10.00">user_constants.h</text>
</a>
</g>
</g>
<!-- Node1&#45;&gt;Node58 -->
<g id="edge61_Node000001_Node000058" class="edge">
<title>Node1&#45;&gt;Node58</title>
<g id="a_edge61_Node000001_Node000058"><a xlink:title=" ">
<path fill="none" stroke="#63b8ff" d="M1469.99,-401.32C1586.72,-395.38 1837.31,-381.25 2048.05,-360 2049.52,-359.85 2051,-359.7 2052.49,-359.54"/>
<polygon fill="#63b8ff" stroke="#63b8ff" points="2052.94,-363.01 2062.48,-358.4 2052.14,-356.05 2052.94,-363.01"/>
</a>
</g>
</g>
<!-- Node59 -->
<g id="Node000059" class="node">
<title>Node59</title>
<g id="a_Node000059"><a xlink:title=" ">
<polygon fill="#e0e0e0" stroke="#999999" points="2244.55,-360 2179.55,-360 2179.55,-341 2244.55,-341 2244.55,-360"/>
<text text-anchor="middle" x="2212.05" y="-348" font-family="Helvetica,sans-Serif" font-size="10.00">memory.h</text>
</a>
</g>
</g>
<!-- Node1&#45;&gt;Node59 -->
<g id="edge65_Node000001_Node000059" class="edge">
<title>Node1&#45;&gt;Node59</title>
<g id="a_edge65_Node000001_Node000059"><a xlink:title=" ">
<path fill="none" stroke="#63b8ff" d="M1469.77,-403.92C1601.06,-402.07 1905.18,-394.25 2169.29,-360.04"/>
<polygon fill="#63b8ff" stroke="#63b8ff" points="2169.99,-363.48 2179.45,-358.71 2169.08,-356.54 2169.99,-363.48"/>
</a>
</g>
</g>
<!-- Node3 -->
<g id="Node000003" class="node">
<title>Node3</title>
<g id="a_Node000003"><a xlink:href="astaroth_8h.html" target="_top" xlink:title=" ">
<polygon fill="white" stroke="#666666" points="1358.05,-305 1292.05,-305 1292.05,-286 1358.05,-286 1358.05,-305"/>
<text text-anchor="middle" x="1325.05" y="-293" font-family="Helvetica,sans-Serif" font-size="10.00">astaroth.h</text>
</a>
</g>
</g>
<!-- Node2&#45;&gt;Node3 -->
<g id="edge2_Node000002_Node000003" class="edge">
<title>Node2&#45;&gt;Node3</title>
<g id="a_edge2_Node000002_Node000003"><a xlink:title=" ">
<path fill="none" stroke="#63b8ff" d="M1391.36,-340.98C1379.23,-332.84 1360.7,-320.41 1346.31,-310.76"/>
<polygon fill="#63b8ff" stroke="#63b8ff" points="1348.23,-307.84 1337.98,-305.17 1344.33,-313.65 1348.23,-307.84"/>
</a>
</g>
</g>
<!-- Node56 -->
<g id="Node000056" class="node">
<title>Node56</title>
<g id="a_Node000056"><a xlink:title=" ">
<polygon fill="#e0e0e0" stroke="#999999" points="1432.05,-305 1376.05,-305 1376.05,-286 1432.05,-286 1432.05,-305"/>
<text text-anchor="middle" x="1404.05" y="-293" font-family="Helvetica,sans-Serif" font-size="10.00">stdarg.h</text>
</a>
</g>
</g>
<!-- Node2&#45;&gt;Node56 -->
<g id="edge58_Node000002_Node000056" class="edge">
<title>Node2&#45;&gt;Node56</title>
<g id="a_edge58_Node000002_Node000056"><a xlink:title=" ">
<path fill="none" stroke="#63b8ff" d="M1404.05,-340.75C1404.05,-333.8 1404.05,-323.85 1404.05,-315.13"/>
<polygon fill="#63b8ff" stroke="#63b8ff" points="1407.55,-315.09 1404.05,-305.09 1400.55,-315.09 1407.55,-315.09"/>
</a>
</g>
</g>
<!-- Node57 -->
<g id="Node000057" class="node">
<title>Node57</title>
<g id="a_Node000057"><a xlink:href="astaroth__lib_8h.html" target="_top" xlink:title=" ">
<polygon fill="white" stroke="#666666" points="1533.55,-305 1450.55,-305 1450.55,-286 1533.55,-286 1533.55,-305"/>
<text text-anchor="middle" x="1492.05" y="-293" font-family="Helvetica,sans-Serif" font-size="10.00">astaroth_lib.h</text>
</a>
</g>
</g>
<!-- Node2&#45;&gt;Node57 -->
<g id="edge59_Node000002_Node000057" class="edge">
<title>Node2&#45;&gt;Node57</title>
<g id="a_edge59_Node000002_Node000057"><a xlink:title=" ">
<path fill="none" stroke="#63b8ff" d="M1418.19,-340.98C1431.84,-332.77 1452.74,-320.18 1468.83,-310.49"/>
<polygon fill="#63b8ff" stroke="#63b8ff" points="1470.9,-313.33 1477.66,-305.17 1467.29,-307.33 1470.9,-313.33"/>
</a>
</g>
</g>
<!-- Node4 -->
<g id="Node000004" class="node">
<title>Node4</title>
<g id="a_Node000004"><a xlink:href="astaroth__base_8h.html" target="_top" xlink:title=" ">
<polygon fill="white" stroke="#666666" points="641.55,-250 546.55,-250 546.55,-231 641.55,-231 641.55,-250"/>
<text text-anchor="middle" x="594.05" y="-238" font-family="Helvetica,sans-Serif" font-size="10.00">astaroth_base.h</text>
</a>
</g>
</g>
<!-- Node3&#45;&gt;Node4 -->
<g id="edge3_Node000003_Node000004" class="edge">
<title>Node3&#45;&gt;Node4</title>
<g id="a_edge3_Node000003_Node000004"><a xlink:title=" ">
<path fill="none" stroke="#63b8ff" d="M1292.01,-293.28C1195.3,-289.51 904.3,-276.7 651.71,-249.97"/>
<polygon fill="#63b8ff" stroke="#63b8ff" points="651.92,-246.47 641.6,-248.89 651.17,-253.43 651.92,-246.47"/>
</a>
</g>
</g>
<!-- Node44 -->
<g id="Node000044" class="node">
<title>Node44</title>
<g id="a_Node000044"><a xlink:href="astaroth__grid_8h.html" target="_top" xlink:title=" ">
<polygon fill="white" stroke="#666666" points="1761.05,-250 1671.05,-250 1671.05,-231 1761.05,-231 1761.05,-250"/>
<text text-anchor="middle" x="1716.05" y="-238" font-family="Helvetica,sans-Serif" font-size="10.00">astaroth_grid.h</text>
</a>
</g>
</g>
<!-- Node3&#45;&gt;Node44 -->
<g id="edge46_Node000003_Node000044" class="edge">
<title>Node3&#45;&gt;Node44</title>
<g id="a_edge46_Node000003_Node000044"><a xlink:title=" ">
<path fill="none" stroke="#63b8ff" d="M1358.48,-287.49C1361.38,-286.96 1364.26,-286.45 1367.05,-286 1497,-264.93 1530.66,-268.06 1661.05,-250 1661.16,-249.99 1661.26,-249.97 1661.36,-249.96"/>
<polygon fill="#63b8ff" stroke="#63b8ff" points="1661.64,-253.45 1671.05,-248.57 1660.65,-246.52 1661.64,-253.45"/>
</a>
</g>
</g>
<!-- Node45 -->
<g id="Node000045" class="node">
<title>Node45</title>
<g id="a_Node000045"><a xlink:href="astaroth__node_8h.html" target="_top" xlink:title=" ">
<polygon fill="white" stroke="#666666" points="1874.55,-250 1779.55,-250 1779.55,-231 1874.55,-231 1874.55,-250"/>
<text text-anchor="middle" x="1827.05" y="-238" font-family="Helvetica,sans-Serif" font-size="10.00">astaroth_node.h</text>
</a>
</g>
</g>
<!-- Node3&#45;&gt;Node45 -->
<g id="edge47_Node000003_Node000045" class="edge">
<title>Node3&#45;&gt;Node45</title>
<g id="a_edge47_Node000003_Node000045"><a xlink:title=" ">
<path fill="none" stroke="#63b8ff" d="M1358.47,-287.39C1361.36,-286.88 1364.26,-286.41 1367.05,-286 1541.79,-260.59 1589.77,-270.88 1769.44,-249.99"/>
<polygon fill="#63b8ff" stroke="#63b8ff" points="1769.98,-253.45 1779.5,-248.81 1769.16,-246.5 1769.98,-253.45"/>
</a>
</g>
</g>
<!-- Node46 -->
<g id="Node000046" class="node">
<title>Node46</title>
<g id="a_Node000046"><a xlink:href="astaroth__device_8h.html" target="_top" xlink:title=" ">
<polygon fill="white" stroke="#666666" points="1997.05,-250 1893.05,-250 1893.05,-231 1997.05,-231 1997.05,-250"/>
<text text-anchor="middle" x="1945.05" y="-238" font-family="Helvetica,sans-Serif" font-size="10.00">astaroth_device.h</text>
</a>
</g>
</g>
<!-- Node3&#45;&gt;Node46 -->
<g id="edge48_Node000003_Node000046" class="edge">
<title>Node3&#45;&gt;Node46</title>
<g id="a_edge48_Node000003_Node000046"><a xlink:title=" ">
<path fill="none" stroke="#63b8ff" d="M1358.46,-287.33C1361.36,-286.83 1364.25,-286.38 1367.05,-286 1592.07,-255.53 1653.24,-273.39 1882.84,-250.05"/>
<polygon fill="#63b8ff" stroke="#63b8ff" points="1883.25,-253.52 1892.84,-249.02 1882.53,-246.56 1883.25,-253.52"/>
</a>
</g>
</g>
<!-- Node49 -->
<g id="Node000049" class="node">
<title>Node49</title>
<g id="a_Node000049"><a xlink:href="astaroth__legacy_8h.html" target="_top" xlink:title=" ">
<polygon fill="white" stroke="#666666" points="762.05,-250 660.05,-250 660.05,-231 762.05,-231 762.05,-250"/>
<text text-anchor="middle" x="711.05" y="-238" font-family="Helvetica,sans-Serif" font-size="10.00">astaroth_legacy.h</text>
</a>
</g>
</g>
<!-- Node3&#45;&gt;Node49 -->
<g id="edge51_Node000003_Node000049" class="edge">
<title>Node3&#45;&gt;Node49</title>
<g id="a_edge51_Node000003_Node000049"><a xlink:title=" ">
<path fill="none" stroke="#63b8ff" d="M1291.89,-292.54C1207.18,-287.38 975.75,-272.35 772.07,-250.05"/>
<polygon fill="#63b8ff" stroke="#63b8ff" points="772.41,-246.56 762.09,-248.94 771.65,-253.52 772.41,-246.56"/>
</a>
</g>
</g>
<!-- Node50 -->
<g id="Node000050" class="node">
<title>Node50</title>
<g id="a_Node000050"><a xlink:title=" ">
<polygon fill="#e0e0e0" stroke="#999999" points="919.55,-250 780.55,-250 780.55,-231 919.55,-231 919.55,-250"/>
<text text-anchor="middle" x="850.05" y="-238" font-family="Helvetica,sans-Serif" font-size="10.00">device_set_input_decls.h</text>
</a>
</g>
</g>
<!-- Node3&#45;&gt;Node50 -->
<g id="edge52_Node000003_Node000050" class="edge">
<title>Node3&#45;&gt;Node50</title>
<g id="a_edge52_Node000003_Node000050"><a xlink:title=" ">
<path fill="none" stroke="#63b8ff" d="M1292.03,-290.82C1217.74,-282.53 1035.7,-262.21 929.87,-250.41"/>
<polygon fill="#63b8ff" stroke="#63b8ff" points="930.2,-246.92 919.87,-249.29 929.42,-253.88 930.2,-246.92"/>
</a>
</g>
</g>
<!-- Node51 -->
<g id="Node000051" class="node">
<title>Node51</title>
<g id="a_Node000051"><a xlink:title=" ">
<polygon fill="#e0e0e0" stroke="#999999" points="1084.05,-250 938.05,-250 938.05,-231 1084.05,-231 1084.05,-250"/>
<text text-anchor="middle" x="1011.05" y="-238" font-family="Helvetica,sans-Serif" font-size="10.00">device_get_output_decls.h</text>
</a>
</g>
</g>
<!-- Node3&#45;&gt;Node51 -->
<g id="edge53_Node000003_Node000051" class="edge">
<title>Node3&#45;&gt;Node51</title>
<g id="a_edge53_Node000003_Node000051"><a xlink:title=" ">
<path fill="none" stroke="#63b8ff" d="M1292.04,-288.93C1239.88,-280.12 1137.59,-262.86 1071.87,-251.76"/>
<polygon fill="#63b8ff" stroke="#63b8ff" points="1072.09,-248.25 1061.65,-250.04 1070.93,-255.16 1072.09,-248.25"/>
</a>
</g>
</g>
<!-- Node52 -->
<g id="Node000052" class="node">
<title>Node52</title>
<g id="a_Node000052"><a xlink:title=" ">
<polygon fill="#e0e0e0" stroke="#999999" points="1242.05,-250 1102.05,-250 1102.05,-231 1242.05,-231 1242.05,-250"/>
<text text-anchor="middle" x="1172.05" y="-238" font-family="Helvetica,sans-Serif" font-size="10.00">device_get_input_decls.h</text>
</a>
</g>
</g>
<!-- Node3&#45;&gt;Node52 -->
<g id="edge54_Node000003_Node000052" class="edge">
<title>Node3&#45;&gt;Node52</title>
<g id="a_edge54_Node000003_Node000052"><a xlink:title=" ">
<path fill="none" stroke="#63b8ff" d="M1300.47,-285.98C1275.01,-277.16 1235.01,-263.31 1206.42,-253.41"/>
<polygon fill="#63b8ff" stroke="#63b8ff" points="1207.42,-250.05 1196.83,-250.08 1205.13,-256.66 1207.42,-250.05"/>
</a>
</g>
</g>
<!-- Node53 -->
<g id="Node000053" class="node">
<title>Node53</title>
<g id="a_Node000053"><a xlink:title=" ">
<polygon fill="#e0e0e0" stroke="#999999" points="1390.05,-250 1260.05,-250 1260.05,-231 1390.05,-231 1390.05,-250"/>
<text text-anchor="middle" x="1325.05" y="-238" font-family="Helvetica,sans-Serif" font-size="10.00">get_vtxbufs_declares.h</text>
</a>
</g>
</g>
<!-- Node3&#45;&gt;Node53 -->
<g id="edge55_Node000003_Node000053" class="edge">
<title>Node3&#45;&gt;Node53</title>
<g id="a_edge55_Node000003_Node000053"><a xlink:title=" ">
<path fill="none" stroke="#63b8ff" d="M1325.05,-285.75C1325.05,-278.8 1325.05,-268.85 1325.05,-260.13"/>
<polygon fill="#63b8ff" stroke="#63b8ff" points="1328.55,-260.09 1325.05,-250.09 1321.55,-260.09 1328.55,-260.09"/>
</a>
</g>
</g>
<!-- Node54 -->
<g id="Node000054" class="node">
<title>Node54</title>
<g id="a_Node000054"><a xlink:href="astaroth__runtime__compilation_8h.html" target="_top" xlink:title=" ">
<polygon fill="white" stroke="#666666" points="1581.55,-250 1408.55,-250 1408.55,-231 1581.55,-231 1581.55,-250"/>
<text text-anchor="middle" x="1495.05" y="-238" font-family="Helvetica,sans-Serif" font-size="10.00">astaroth_runtime_compilation.h</text>
</a>
</g>
</g>
<!-- Node3&#45;&gt;Node54 -->
<g id="edge56_Node000003_Node000054" class="edge">
<title>Node3&#45;&gt;Node54</title>
<g id="a_edge56_Node000003_Node000054"><a xlink:title=" ">
<path fill="none" stroke="#63b8ff" d="M1352.37,-285.98C1380.91,-277.09 1425.88,-263.07 1457.7,-253.15"/>
<polygon fill="#63b8ff" stroke="#63b8ff" points="1459.02,-256.4 1467.53,-250.08 1456.94,-249.72 1459.02,-256.4"/>
</a>
</g>
</g>
<!-- Node55 -->
<g id="Node000055" class="node">
<title>Node55</title>
<g id="a_Node000055"><a xlink:title=" ">
<polygon fill="#e0e0e0" stroke="#999999" points="1652.55,-250 1599.55,-250 1599.55,-231 1652.55,-231 1652.55,-250"/>
<text text-anchor="middle" x="1626.05" y="-238" font-family="Helvetica,sans-Serif" font-size="10.00">string.h</text>
</a>
</g>
</g>
<!-- Node3&#45;&gt;Node55 -->
<g id="edge57_Node000003_Node000055" class="edge">
<title>Node3&#45;&gt;Node55</title>
<g id="a_edge57_Node000003_Node000055"><a xlink:title=" ">
<path fill="none" stroke="#63b8ff" d="M1358.5,-287.61C1361.39,-287.05 1364.27,-286.51 1367.05,-286 1462.74,-268.6 1489.9,-269.47 1589.5,-249.98"/>
<polygon fill="#63b8ff" stroke="#63b8ff" points="1590.23,-253.4 1599.36,-248.03 1588.88,-246.53 1590.23,-253.4"/>
</a>
</g>
</g>
<!-- Node4&#45;&gt;Node5 -->
<g id="edge4_Node000004_Node000005" class="edge">
<title>Node4&#45;&gt;Node5</title>
<g id="a_edge4_Node000004_Node000005"><a xlink:title=" ">
<path fill="none" stroke="#63b8ff" d="M565.21,-230.99C485.53,-207.37 267.66,-141.85 258.05,-129 248.57,-116.32 249.09,-97.88 251.39,-84.14"/>
<polygon fill="#63b8ff" stroke="#63b8ff" points="254.82,-84.83 253.44,-74.32 247.97,-83.39 254.82,-84.83"/>
</a>
</g>
</g>
<!-- Node6 -->
<g id="Node000006" class="node">
<title>Node6</title>
<g id="a_Node000006"><a xlink:href="acc__runtime_8h.html" target="_top" xlink:title=" ">
<polygon fill="#fff0f0" stroke="red" points="1128.05,-189.5 1042.05,-189.5 1042.05,-170.5 1128.05,-170.5 1128.05,-189.5"/>
<text text-anchor="middle" x="1085.05" y="-177.5" font-family="Helvetica,sans-Serif" font-size="10.00">acc_runtime.h</text>
</a>
</g>
</g>
<!-- Node4&#45;&gt;Node6 -->
<g id="edge5_Node000004_Node000006" class="edge">
<title>Node4&#45;&gt;Node6</title>
<g id="a_edge5_Node000004_Node000006"><a xlink:title=" ">
<path fill="none" stroke="#63b8ff" d="M641.62,-232.29C644.81,-231.84 647.98,-231.41 651.05,-231 788.06,-212.9 949.9,-195.23 1031.81,-186.56"/>
<polygon fill="#63b8ff" stroke="#63b8ff" points="1032.3,-190.02 1041.88,-185.49 1031.56,-183.06 1032.3,-190.02"/>
</a>
</g>
</g>
<!-- Node26 -->
<g id="Node000026" class="node">
<title>Node26</title>
<g id="a_Node000026"><a xlink:title=" ">
<polygon fill="#e0e0e0" stroke="#999999" points="2005.55,-129 1866.55,-129 1866.55,-110 2005.55,-110 2005.55,-129"/>
<text text-anchor="middle" x="1936.05" y="-117" font-family="Helvetica,sans-Serif" font-size="10.00">user_built&#45;in_constants.h</text>
</a>
</g>
</g>
<!-- Node4&#45;&gt;Node26 -->
<g id="edge44_Node000004_Node000026" class="edge">
<title>Node4&#45;&gt;Node26</title>
<g id="a_edge44_Node000004_Node000026"><a xlink:title=" ">
<path fill="none" stroke="#63b8ff" d="M641.6,-232.07C644.79,-231.68 647.97,-231.32 651.05,-231 937.56,-201.73 1011.12,-219.71 1298.05,-195 1503.72,-177.29 1745.53,-146.24 1863.68,-130.4"/>
<polygon fill="#63b8ff" stroke="#63b8ff" points="1864.25,-133.86 1873.7,-129.06 1863.32,-126.92 1864.25,-133.86"/>
</a>
</g>
</g>
<!-- Node40 -->
<g id="Node000040" class="node">
<title>Node40</title>
<g id="a_Node000040"><a xlink:href="func__define_8h.html" target="_top" xlink:title=" ">
<polygon fill="white" stroke="#666666" points="1848.05,-129 1766.05,-129 1766.05,-110 1848.05,-110 1848.05,-129"/>
<text text-anchor="middle" x="1807.05" y="-117" font-family="Helvetica,sans-Serif" font-size="10.00">func_define.h</text>
</a>
</g>
</g>
<!-- Node4&#45;&gt;Node40 -->
<g id="edge43_Node000004_Node000040" class="edge">
<title>Node4&#45;&gt;Node40</title>
<g id="a_edge43_Node000004_Node000040"><a xlink:title=" ">
<path fill="none" stroke="#63b8ff" d="M641.61,-232.14C644.8,-231.73 647.97,-231.34 651.05,-231 866.31,-207.01 921.37,-214.77 1137.05,-195 1405.97,-170.36 1472.9,-160.91 1741.05,-129 1745.82,-128.43 1750.78,-127.83 1755.74,-127.21"/>
<polygon fill="#63b8ff" stroke="#63b8ff" points="1756.39,-130.65 1765.88,-125.93 1755.52,-123.71 1756.39,-130.65"/>
</a>
</g>
</g>
<!-- Node4&#45;&gt;Node43 -->
<g id="edge45_Node000004_Node000043" class="edge">
<title>Node4&#45;&gt;Node43</title>
<g id="a_edge45_Node000004_Node000043"><a xlink:title=" ">
<path fill="none" stroke="#63b8ff" d="M547.52,-230.99C495.72,-221.52 411.21,-206.07 349.84,-194.85"/>
<polygon fill="#63b8ff" stroke="#63b8ff" points="350.28,-191.38 339.81,-193.02 349.02,-198.26 350.28,-191.38"/>
</a>
</g>
</g>
<!-- Node6&#45;&gt;Node5 -->
<g id="edge7_Node000006_Node000005" class="edge">
<title>Node6&#45;&gt;Node5</title>
<g id="a_edge7_Node000006_Node000005"><a xlink:title=" ">
<path fill="none" stroke="#63b8ff" d="M1041.88,-179.18C882.79,-179.44 335.34,-176.84 275.05,-129 261.83,-118.5 257.52,-99.17 256.25,-84.58"/>
<polygon fill="#63b8ff" stroke="#63b8ff" points="259.73,-83.99 255.78,-74.16 252.74,-84.31 259.73,-83.99"/>
</a>
</g>
</g>
<!-- Node7 -->
<g id="Node000007" class="node">
<title>Node7</title>
<g id="a_Node000007"><a xlink:title=" ">
<polygon fill="#e0e0e0" stroke="#999999" points="861.05,-74 811.05,-74 811.05,-55 861.05,-55 861.05,-74"/>
<text text-anchor="middle" x="836.05" y="-62" font-family="Helvetica,sans-Serif" font-size="10.00">stdio.h</text>
</a>
</g>
</g>
<!-- Node6&#45;&gt;Node7 -->
<g id="edge6_Node000006_Node000007" class="edge">
<title>Node6&#45;&gt;Node7</title>
<g id="a_edge6_Node000006_Node000007"><a xlink:title=" ">
<path fill="none" stroke="#63b8ff" d="M1128.19,-175.93C1240.99,-167.69 1536.98,-144.66 1551.05,-129 1556.7,-122.72 1556.84,-116.15 1551.05,-110 1527.55,-84.99 1012.93,-70.02 871.66,-66.38"/>
<polygon fill="#63b8ff" stroke="#63b8ff" points="871.47,-62.87 861.39,-66.11 871.3,-69.87 871.47,-62.87"/>
</a>
</g>
</g>
<!-- Node8 -->
<g id="Node000008" class="node">
<title>Node8</title>
<g id="a_Node000008"><a xlink:href="device__headers_8h.html" target="_top" xlink:title=" ">
<polygon fill="white" stroke="#666666" points="1481.05,-74 1379.05,-74 1379.05,-55 1481.05,-55 1481.05,-74"/>
<text text-anchor="middle" x="1430.05" y="-62" font-family="Helvetica,sans-Serif" font-size="10.00">device_headers.h</text>
</a>
</g>
</g>
<!-- Node6&#45;&gt;Node8 -->
<g id="edge8_Node000006_Node000008" class="edge">
<title>Node6&#45;&gt;Node8</title>
<g id="a_edge8_Node000006_Node000008"><a xlink:title=" ">
<path fill="none" stroke="#63b8ff" d="M1128.08,-176.1C1243.69,-168.11 1553.38,-145.28 1568.05,-129 1573.71,-122.73 1573.03,-116.83 1568.05,-110 1557.87,-96.02 1518.85,-84.22 1484.89,-76.3"/>
<polygon fill="#63b8ff" stroke="#63b8ff" points="1485.54,-72.85 1475.01,-74.06 1483.99,-79.68 1485.54,-72.85"/>
</a>
</g>
</g>
<!-- Node11 -->
<g id="Node000011" class="node">
<title>Node11</title>
<g id="a_Node000011"><a xlink:title=" ">
<polygon fill="#e0e0e0" stroke="#999999" points="1790.55,-74 1695.55,-74 1695.55,-55 1790.55,-55 1790.55,-74"/>
<text text-anchor="middle" x="1743.05" y="-62" font-family="Helvetica,sans-Serif" font-size="10.00">builtin_enums.h</text>
</a>
</g>
</g>
<!-- Node6&#45;&gt;Node11 -->
<g id="edge11_Node000006_Node000011" class="edge">
<title>Node6&#45;&gt;Node11</title>
<g id="a_edge11_Node000006_Node000011"><a xlink:title=" ">
<path fill="none" stroke="#63b8ff" d="M1128.21,-176.22C1269.09,-167.05 1707.2,-137.9 1719.05,-129 1733.02,-118.51 1738.86,-98.88 1741.3,-84.21"/>
<polygon fill="#63b8ff" stroke="#63b8ff" points="1744.79,-84.56 1742.58,-74.19 1737.84,-83.67 1744.79,-84.56"/>
</a>
</g>
</g>
<!-- Node12 -->
<g id="Node000012" class="node">
<title>Node12</title>
<g id="a_Node000012"><a xlink:href="datatypes_8h.html" target="_top" xlink:title=" ">
<polygon fill="#fff0f0" stroke="red" points="1710.05,-129 1636.05,-129 1636.05,-110 1710.05,-110 1710.05,-129"/>
<text text-anchor="middle" x="1673.05" y="-117" font-family="Helvetica,sans-Serif" font-size="10.00">datatypes.h</text>
</a>
</g>
</g>
<!-- Node6&#45;&gt;Node12 -->
<g id="edge12_Node000006_Node000012" class="edge">
<title>Node6&#45;&gt;Node12</title>
<g id="a_edge12_Node000006_Node000012"><a xlink:title=" ">
<path fill="none" stroke="#63b8ff" d="M1128.33,-176.04C1219.74,-169.55 1439.13,-152.73 1622.05,-129 1623.33,-128.83 1624.62,-128.66 1625.93,-128.48"/>
<polygon fill="#63b8ff" stroke="#63b8ff" points="1626.67,-131.91 1636.05,-126.99 1625.65,-124.98 1626.67,-131.91"/>
</a>
</g>
</g>
<!-- Node6&#45;&gt;Node20 -->
<g id="edge21_Node000006_Node000020" class="edge">
<title>Node6&#45;&gt;Node20</title>
<g id="a_edge21_Node000006_Node000020"><a xlink:title=" ">
<path fill="none" stroke="#63b8ff" d="M1041.61,-176.62C917.08,-169.75 548.18,-149.1 242.05,-129 215.39,-127.25 185.36,-125.08 162.27,-123.38"/>
<polygon fill="#63b8ff" stroke="#63b8ff" points="162.41,-119.88 152.18,-122.63 161.89,-126.86 162.41,-119.88"/>
</a>
</g>
</g>
<!-- Node24 -->
<g id="Node000024" class="node">
<title>Node24</title>
<g id="a_Node000024"><a xlink:title=" ">
<polygon fill="#e0e0e0" stroke="#999999" points="371.55,-129 284.55,-129 284.55,-110 371.55,-110 371.55,-129"/>
<text text-anchor="middle" x="328.05" y="-117" font-family="Helvetica,sans-Serif" font-size="10.00">user_defines.h</text>
</a>
</g>
</g>
<!-- Node6&#45;&gt;Node24 -->
<g id="edge30_Node000006_Node000024" class="edge">
<title>Node6&#45;&gt;Node24</title>
<g id="a_edge30_Node000006_Node000024"><a xlink:title=" ">
<path fill="none" stroke="#63b8ff" d="M1041.67,-177.25C932.64,-172.57 638.18,-158.17 381.93,-128.99"/>
<polygon fill="#63b8ff" stroke="#63b8ff" points="382.02,-125.47 371.68,-127.81 381.22,-132.43 382.02,-125.47"/>
</a>
</g>
</g>
<!-- Node25 -->
<g id="Node000025" class="node">
<title>Node25</title>
<g id="a_Node000025"><a xlink:title=" ">
<polygon fill="#e0e0e0" stroke="#999999" points="476.05,-129 390.05,-129 390.05,-110 476.05,-110 476.05,-129"/>
<text text-anchor="middle" x="433.05" y="-117" font-family="Helvetica,sans-Serif" font-size="10.00">profiles_info.h</text>
</a>
</g>
</g>
<!-- Node6&#45;&gt;Node25 -->
<g id="edge31_Node000006_Node000025" class="edge">
<title>Node6&#45;&gt;Node25</title>
<g id="a_edge31_Node000006_Node000025"><a xlink:title=" ">
<path fill="none" stroke="#63b8ff" d="M1042.01,-176.58C944.83,-170.87 700.84,-155.13 486.34,-129.06"/>
<polygon fill="#63b8ff" stroke="#63b8ff" points="486.5,-125.56 476.15,-127.81 485.65,-132.5 486.5,-125.56"/>
</a>
</g>
</g>
<!-- Node6&#45;&gt;Node26 -->
<g id="edge32_Node000006_Node000026" class="edge">
<title>Node6&#45;&gt;Node26</title>
<g id="a_edge32_Node000006_Node000026"><a xlink:title=" ">
<path fill="none" stroke="#63b8ff" d="M1128.21,-176.85C1244.09,-170.94 1571.92,-153.31 1856.19,-129.04"/>
<polygon fill="#63b8ff" stroke="#63b8ff" points="1856.62,-132.51 1866.28,-128.17 1856.02,-125.54 1856.62,-132.51"/>
</a>
</g>
</g>
<!-- Node27 -->
<g id="Node000027" class="node">
<title>Node27</title>
<g id="a_Node000027"><a xlink:href="func__attributes_8h.html" target="_top" xlink:title=" ">
<polygon fill="white" stroke="#666666" points="593.55,-129 494.55,-129 494.55,-110 593.55,-110 593.55,-129"/>
<text text-anchor="middle" x="544.05" y="-117" font-family="Helvetica,sans-Serif" font-size="10.00">func_attributes.h</text>
</a>
</g>
</g>
<!-- Node6&#45;&gt;Node27 -->
<g id="edge33_Node000006_Node000027" class="edge">
<title>Node6&#45;&gt;Node27</title>
<g id="a_edge33_Node000006_Node000027"><a xlink:title=" ">
<path fill="none" stroke="#63b8ff" d="M1042.02,-175.16C959.19,-167.64 771.64,-149.96 603.72,-129.16"/>
<polygon fill="#63b8ff" stroke="#63b8ff" points="604.07,-125.68 593.71,-127.92 603.2,-132.63 604.07,-125.68"/>
</a>
</g>
</g>
<!-- Node28 -->
<g id="Node000028" class="node">
<title>Node28</title>
<g id="a_Node000028"><a xlink:title=" ">
<polygon fill="#e0e0e0" stroke="#999999" points="736.55,-129 611.55,-129 611.55,-110 736.55,-110 736.55,-129"/>
<text text-anchor="middle" x="674.05" y="-117" font-family="Helvetica,sans-Serif" font-size="10.00">user_input_typedefs.h</text>
</a>
</g>
</g>
<!-- Node6&#45;&gt;Node28 -->
<g id="edge34_Node000006_Node000028" class="edge">
<title>Node6&#45;&gt;Node28</title>
<g id="a_edge34_Node000006_Node000028"><a xlink:title=" ">
<path fill="none" stroke="#63b8ff" d="M1041.85,-172.85C970.95,-162.76 829.28,-142.59 743.95,-130.45"/>
<polygon fill="#63b8ff" stroke="#63b8ff" points="744.23,-126.95 733.83,-129.01 743.24,-133.88 744.23,-126.95"/>
</a>
</g>
</g>
<!-- Node29 -->
<g id="Node000029" class="node">
<title>Node29</title>
<g id="a_Node000029"><a xlink:title=" ">
<polygon fill="#e0e0e0" stroke="#999999" points="837.55,-129 754.55,-129 754.55,-110 837.55,-110 837.55,-129"/>
<text text-anchor="middle" x="796.05" y="-117" font-family="Helvetica,sans-Serif" font-size="10.00">output_decl.h</text>
</a>
</g>
</g>
<!-- Node6&#45;&gt;Node29 -->
<g id="edge35_Node000006_Node000029" class="edge">
<title>Node6&#45;&gt;Node29</title>
<g id="a_edge35_Node000006_Node000029"><a xlink:title=" ">
<path fill="none" stroke="#63b8ff" d="M1043.03,-170.49C991.3,-160.02 903.47,-142.24 847.69,-130.95"/>
<polygon fill="#63b8ff" stroke="#63b8ff" points="848.15,-127.48 837.66,-128.92 846.77,-134.34 848.15,-127.48"/>
</a>
</g>
</g>
<!-- Node30 -->
<g id="Node000030" class="node">
<title>Node30</title>
<g id="a_Node000030"><a xlink:title=" ">
<polygon fill="#e0e0e0" stroke="#999999" points="972.05,-129 856.05,-129 856.05,-110 972.05,-110 972.05,-129"/>
<text text-anchor="middle" x="914.05" y="-117" font-family="Helvetica,sans-Serif" font-size="10.00">comp_loaded_decl.h</text>
</a>
</g>
</g>
<!-- Node6&#45;&gt;Node30 -->
<g id="edge36_Node000006_Node000030" class="edge">
<title>Node6&#45;&gt;Node30</title>
<g id="a_edge36_Node000006_Node000030"><a xlink:title=" ">
<path fill="none" stroke="#63b8ff" d="M1060.19,-170.49C1030.81,-160.44 981.75,-143.66 948.66,-132.34"/>
<polygon fill="#63b8ff" stroke="#63b8ff" points="949.54,-128.94 938.95,-129.02 947.28,-135.57 949.54,-128.94"/>
</a>
</g>
</g>
<!-- Node31 -->
<g id="Node000031" class="node">
<title>Node31</title>
<g id="a_Node000031"><a xlink:title=" ">
<polygon fill="#e0e0e0" stroke="#999999" points="1068.05,-129 990.05,-129 990.05,-110 1068.05,-110 1068.05,-129"/>
<text text-anchor="middle" x="1029.05" y="-117" font-family="Helvetica,sans-Serif" font-size="10.00">comp_decl.h</text>
</a>
</g>
</g>
<!-- Node6&#45;&gt;Node31 -->
<g id="edge37_Node000006_Node000031" class="edge">
<title>Node6&#45;&gt;Node31</title>
<g id="a_edge37_Node000006_Node000031"><a xlink:title=" ">
<path fill="none" stroke="#63b8ff" d="M1076.79,-170.37C1068.27,-161.47 1054.79,-147.39 1044.33,-136.45"/>
<polygon fill="#63b8ff" stroke="#63b8ff" points="1046.79,-133.97 1037.35,-129.17 1041.74,-138.81 1046.79,-133.97"/>
</a>
</g>
</g>
<!-- Node32 -->
<g id="Node000032" class="node">
<title>Node32</title>
<g id="a_Node000032"><a xlink:title=" ">
<polygon fill="#e0e0e0" stroke="#999999" points="1194.05,-129 1086.05,-129 1086.05,-110 1194.05,-110 1194.05,-129"/>
<text text-anchor="middle" x="1140.05" y="-117" font-family="Helvetica,sans-Serif" font-size="10.00">info_loaded_decl.h</text>
</a>
</g>
</g>
<!-- Node6&#45;&gt;Node32 -->
<g id="edge38_Node000006_Node000032" class="edge">
<title>Node6&#45;&gt;Node32</title>
<g id="a_edge38_Node000006_Node000032"><a xlink:title=" ">
<path fill="none" stroke="#63b8ff" d="M1093.17,-170.37C1101.46,-161.55 1114.52,-147.66 1124.76,-136.77"/>
<polygon fill="#63b8ff" stroke="#63b8ff" points="1127.61,-138.85 1131.91,-129.17 1122.51,-134.06 1127.61,-138.85"/>
</a>
</g>
</g>
<!-- Node33 -->
<g id="Node000033" class="node">
<title>Node33</title>
<g id="a_Node000033"><a xlink:title=" ">
<polygon fill="#e0e0e0" stroke="#999999" points="1352.05,-129 1212.05,-129 1212.05,-110 1352.05,-110 1352.05,-129"/>
<text text-anchor="middle" x="1282.05" y="-117" font-family="Helvetica,sans-Serif" font-size="10.00">device_mesh_info_decl.h</text>
</a>
</g>
</g>
<!-- Node6&#45;&gt;Node33 -->
<g id="edge39_Node000006_Node000033" class="edge">
<title>Node6&#45;&gt;Node33</title>
<g id="a_edge39_Node000006_Node000033"><a xlink:title=" ">
<path fill="none" stroke="#63b8ff" d="M1113.7,-170.49C1147.99,-160.31 1205.54,-143.22 1243.65,-131.9"/>
<polygon fill="#63b8ff" stroke="#63b8ff" points="1244.78,-135.22 1253.37,-129.02 1242.79,-128.51 1244.78,-135.22"/>
</a>
</g>
</g>
<!-- Node34 -->
<g id="Node000034" class="node">
<title>Node34</title>
<g id="a_Node000034"><a xlink:title=" ">
<polygon fill="#e0e0e0" stroke="#999999" points="1447.55,-129 1370.55,-129 1370.55,-110 1447.55,-110 1447.55,-129"/>
<text text-anchor="middle" x="1409.05" y="-117" font-family="Helvetica,sans-Serif" font-size="10.00">array_decl.h</text>
</a>
</g>
</g>
<!-- Node6&#45;&gt;Node34 -->
<g id="edge40_Node000006_Node000034" class="edge">
<title>Node6&#45;&gt;Node34</title>
<g id="a_edge40_Node000006_Node000034"><a xlink:title=" ">
<path fill="none" stroke="#63b8ff" d="M1128.08,-171.23C1188.25,-160.37 1297.22,-140.69 1360.31,-129.3"/>
<polygon fill="#63b8ff" stroke="#63b8ff" points="1361.19,-132.7 1370.41,-127.48 1359.95,-125.81 1361.19,-132.7"/>
</a>
</g>
</g>
<!-- Node35 -->
<g id="Node000035" class="node">
<title>Node35</title>
<g id="a_Node000035"><a xlink:title=" ">
<polygon fill="#e0e0e0" stroke="#999999" points="1542.05,-129 1466.05,-129 1466.05,-110 1542.05,-110 1542.05,-129"/>
<text text-anchor="middle" x="1504.05" y="-117" font-family="Helvetica,sans-Serif" font-size="10.00">input_decl.h</text>
</a>
</g>
</g>
<!-- Node6&#45;&gt;Node35 -->
<g id="edge41_Node000006_Node000035" class="edge">
<title>Node6&#45;&gt;Node35</title>
<g id="a_edge41_Node000006_Node000035"><a xlink:title=" ">
<path fill="none" stroke="#63b8ff" d="M1128.26,-173.76C1195.72,-165.46 1330.39,-148.37 1455.67,-129"/>
<polygon fill="#63b8ff" stroke="#63b8ff" points="1456.48,-132.41 1465.83,-127.42 1455.41,-125.49 1456.48,-132.41"/>
</a>
</g>
</g>
<!-- Node6&#45;&gt;Node40 -->
<g id="edge42_Node000006_Node000040" class="edge">
<title>Node6&#45;&gt;Node40</title>
<g id="a_edge42_Node000006_Node000040"><a xlink:title=" ">
<path fill="none" stroke="#63b8ff" d="M1128.36,-176.2C1256.15,-167.87 1630.34,-142.95 1752.05,-129 1753.32,-128.85 1754.61,-128.7 1755.9,-128.54"/>
<polygon fill="#63b8ff" stroke="#63b8ff" points="1756.5,-131.99 1765.96,-127.21 1755.58,-125.05 1756.5,-131.99"/>
</a>
</g>
</g>
<!-- Node9 -->
<g id="Node000009" class="node">
<title>Node9</title>
<g id="a_Node000009"><a xlink:title=" ">
<polygon fill="#e0e0e0" stroke="#999999" points="1609.55,-19 1496.55,-19 1496.55,0 1609.55,0 1609.55,-19"/>
<text text-anchor="middle" x="1553.05" y="-7" font-family="Helvetica,sans-Serif" font-size="10.00">cuda_runtime_api.h</text>
</a>
</g>
</g>
<!-- Node8&#45;&gt;Node9 -->
<g id="edge9_Node000008_Node000009" class="edge">
<title>Node8&#45;&gt;Node9</title>
<g id="a_edge9_Node000008_Node000009"><a xlink:title=" ">
<path fill="none" stroke="#63b8ff" d="M1449.82,-54.98C1469.78,-46.38 1500.86,-32.99 1523.7,-23.15"/>
<polygon fill="#63b8ff" stroke="#63b8ff" points="1525.13,-26.34 1532.93,-19.17 1522.36,-19.91 1525.13,-26.34"/>
</a>
</g>
</g>
<!-- Node10 -->
<g id="Node000010" class="node">
<title>Node10</title>
<g id="a_Node000010"><a xlink:title=" ">
<polygon fill="#e0e0e0" stroke="#999999" points="1468.05,-19 1392.05,-19 1392.05,0 1468.05,0 1468.05,-19"/>
<text text-anchor="middle" x="1430.05" y="-7" font-family="Helvetica,sans-Serif" font-size="10.00">cuda_fp16.h</text>
</a>
</g>
</g>
<!-- Node8&#45;&gt;Node10 -->
<g id="edge10_Node000008_Node000010" class="edge">
<title>Node8&#45;&gt;Node10</title>
<g id="a_edge10_Node000008_Node000010"><a xlink:title=" ">
<path fill="none" stroke="#63b8ff" d="M1430.05,-54.75C1430.05,-47.8 1430.05,-37.85 1430.05,-29.13"/>
<polygon fill="#63b8ff" stroke="#63b8ff" points="1433.55,-29.09 1430.05,-19.09 1426.55,-29.09 1433.55,-29.09"/>
</a>
</g>
</g>
<!-- Node12&#45;&gt;Node8 -->
<g id="edge14_Node000012_Node000008" class="edge">
<title>Node12&#45;&gt;Node8</title>
<g id="a_edge14_Node000012_Node000008"><a xlink:title=" ">
<path fill="none" stroke="#63b8ff" d="M1635.88,-110.39C1593.89,-101.23 1525.39,-86.29 1479.06,-76.19"/>
<polygon fill="#63b8ff" stroke="#63b8ff" points="1479.75,-72.76 1469.24,-74.05 1478.26,-79.6 1479.75,-72.76"/>
</a>
</g>
</g>
<!-- Node12&#45;&gt;Node9 -->
<g id="edge15_Node000012_Node000009" class="edge">
<title>Node12&#45;&gt;Node9</title>
<g id="a_edge15_Node000012_Node000009"><a xlink:title=" ">
<path fill="none" stroke="#63b8ff" d="M1665.05,-109.98C1653.2,-97.5 1630.11,-73.71 1609.05,-55 1597.33,-44.59 1583.55,-33.62 1572.6,-25.18"/>
<polygon fill="#63b8ff" stroke="#63b8ff" points="1574.58,-22.29 1564.51,-19.01 1570.34,-27.86 1574.58,-22.29"/>
</a>
</g>
</g>
<!-- Node12&#45;&gt;Node11 -->
<g id="edge17_Node000012_Node000011" class="edge">
<title>Node12&#45;&gt;Node11</title>
<g id="a_edge17_Node000012_Node000011"><a xlink:title=" ">
<path fill="none" stroke="#63b8ff" d="M1684.3,-109.98C1694.85,-102 1710.85,-89.88 1723.5,-80.31"/>
<polygon fill="#63b8ff" stroke="#63b8ff" points="1725.74,-83 1731.6,-74.17 1721.52,-77.42 1725.74,-83"/>
</a>
</g>
</g>
<!-- Node12&#45;&gt;Node14 -->
<g id="edge13_Node000012_Node000014" class="edge">
<title>Node12&#45;&gt;Node14</title>
<g id="a_edge13_Node000012_Node000014"><a xlink:title=" ">
<path fill="none" stroke="#63b8ff" d="M1710.18,-111.02C1760.67,-100.84 1850.42,-82.76 1900.23,-72.72"/>
<polygon fill="#63b8ff" stroke="#63b8ff" points="1901.11,-76.11 1910.22,-70.71 1899.73,-69.25 1901.11,-76.11"/>
</a>
</g>
</g>
<!-- Node16 -->
<g id="Node000016" class="node">
<title>Node16</title>
<g id="a_Node000016"><a xlink:href="acreal_8h.html" target="_top" xlink:title=" ">
<polygon fill="white" stroke="#666666" points="1689.05,-19 1633.05,-19 1633.05,0 1689.05,0 1689.05,-19"/>
<text text-anchor="middle" x="1661.05" y="-7" font-family="Helvetica,sans-Serif" font-size="10.00">acreal.h</text>
</a>
</g>
</g>
<!-- Node12&#45;&gt;Node16 -->
<g id="edge16_Node000012_Node000016" class="edge">
<title>Node12&#45;&gt;Node16</title>
<g id="a_edge16_Node000012_Node000016"><a xlink:title=" ">
<path fill="none" stroke="#63b8ff" d="M1672.07,-109.66C1670.13,-92.17 1665.75,-52.8 1663.14,-29.27"/>
<polygon fill="#63b8ff" stroke="#63b8ff" points="1666.6,-28.71 1662.02,-19.16 1659.64,-29.48 1666.6,-28.71"/>
</a>
</g>
</g>
<!-- Node18 -->
<g id="Node000018" class="node">
<title>Node18</title>
<g id="a_Node000018"><a xlink:href="host__datatypes_8h.html" target="_top" xlink:title=" ">
<polygon fill="white" stroke="#666666" points="1600.55,-74 1499.55,-74 1499.55,-55 1600.55,-55 1600.55,-74"/>
<text text-anchor="middle" x="1550.05" y="-62" font-family="Helvetica,sans-Serif" font-size="10.00">host_datatypes.h</text>
</a>
</g>
</g>
<!-- Node12&#45;&gt;Node18 -->
<g id="edge18_Node000012_Node000018" class="edge">
<title>Node12&#45;&gt;Node18</title>
<g id="a_edge18_Node000012_Node000018"><a xlink:title=" ">
<path fill="none" stroke="#63b8ff" d="M1653.29,-109.98C1633.33,-101.38 1602.25,-87.99 1579.41,-78.15"/>
<polygon fill="#63b8ff" stroke="#63b8ff" points="1580.74,-74.91 1570.18,-74.17 1577.97,-81.34 1580.74,-74.91"/>
</a>
</g>
</g>
<!-- Node18&#45;&gt;Node16 -->
<g id="edge19_Node000018_Node000016" class="edge">
<title>Node18&#45;&gt;Node16</title>
<g id="a_edge19_Node000018_Node000016"><a xlink:title=" ">
<path fill="none" stroke="#63b8ff" d="M1567.89,-54.98C1585.66,-46.5 1613.2,-33.35 1633.73,-23.54"/>
<polygon fill="#63b8ff" stroke="#63b8ff" points="1635.38,-26.64 1642.9,-19.17 1632.36,-20.32 1635.38,-26.64"/>
</a>
</g>
</g>
<!-- Node19 -->
<g id="Node000019" class="node">
<title>Node19</title>
<g id="a_Node000019"><a xlink:title=" ">
<polygon fill="#e0e0e0" stroke="#999999" points="698.05,-19 642.05,-19 642.05,0 698.05,0 698.05,-19"/>
<text text-anchor="middle" x="670.05" y="-7" font-family="Helvetica,sans-Serif" font-size="10.00">stddef.h</text>
</a>
</g>
</g>
<!-- Node18&#45;&gt;Node19 -->
<g id="edge20_Node000018_Node000019" class="edge">
<title>Node18&#45;&gt;Node19</title>
<g id="a_edge20_Node000018_Node000019"><a xlink:title=" ">
<path fill="none" stroke="#63b8ff" d="M1499.35,-56C1496.21,-55.64 1493.09,-55.3 1490.05,-55 1189.75,-25.64 825.53,-14.41 708.33,-11.4"/>
<polygon fill="#63b8ff" stroke="#63b8ff" points="708.17,-7.9 698.09,-11.14 707.99,-14.89 708.17,-7.9"/>
</a>
</g>
</g>
<!-- Node20&#45;&gt;Node5 -->
<g id="edge24_Node000020_Node000005" class="edge">
<title>Node20&#45;&gt;Node5</title>
<g id="a_edge24_Node000020_Node000005"><a xlink:title=" ">
<path fill="none" stroke="#63b8ff" d="M145.26,-109.98C166.78,-101.34 200.34,-87.87 224.88,-78.02"/>
<polygon fill="#63b8ff" stroke="#63b8ff" points="226.48,-81.14 234.46,-74.17 223.88,-74.65 226.48,-81.14"/>
</a>
</g>
</g>
<!-- Node20&#45;&gt;Node7 -->
<g id="edge26_Node000020_Node000007" class="edge">
<title>Node20&#45;&gt;Node7</title>
<g id="a_edge26_Node000020_Node000007"><a xlink:title=" ">
<path fill="none" stroke="#63b8ff" d="M152.4,-116.39C264.62,-108.04 677.55,-77.3 800.98,-68.11"/>
<polygon fill="#63b8ff" stroke="#63b8ff" points="801.31,-71.6 811.02,-67.36 800.79,-64.62 801.31,-71.6"/>
</a>
</g>
</g>
<!-- Node20&#45;&gt;Node8 -->
<g id="edge29_Node000020_Node000008" class="edge">
<title>Node20&#45;&gt;Node8</title>
<g id="a_edge29_Node000020_Node000008"><a xlink:title=" ">
<path fill="none" stroke="#63b8ff" d="M152.15,-116.77C182.47,-114.94 232.17,-112.03 275.05,-110 692.96,-90.19 1196.25,-73.13 1368.66,-67.48"/>
<polygon fill="#63b8ff" stroke="#63b8ff" points="1368.93,-70.98 1378.81,-67.15 1368.7,-63.98 1368.93,-70.98"/>
</a>
</g>
</g>
<!-- Node20&#45;&gt;Node18 -->
<g id="edge23_Node000020_Node000018" class="edge">
<title>Node20&#45;&gt;Node18</title>
<g id="a_edge23_Node000020_Node000018"><a xlink:title=" ">
<path fill="none" stroke="#63b8ff" d="M152.15,-116.69C182.47,-114.8 232.16,-111.84 275.05,-110 811.5,-86.96 950.09,-119.56 1489.38,-73.93"/>
<polygon fill="#63b8ff" stroke="#63b8ff" points="1489.69,-77.42 1499.36,-73.09 1489.1,-70.45 1489.69,-77.42"/>
</a>
</g>
</g>
<!-- Node20&#45;&gt;Node19 -->
<g id="edge22_Node000020_Node000019" class="edge">
<title>Node20&#45;&gt;Node19</title>
<g id="a_edge22_Node000020_Node000019"><a xlink:title=" ">
<path fill="none" stroke="#63b8ff" d="M96.01,-113.9C52.76,-105.69 -22.31,-86.4 7.05,-55 49.82,-9.26 496.95,-9.1 631.78,-10.1"/>
<polygon fill="#63b8ff" stroke="#63b8ff" points="632.01,-13.6 642.03,-10.19 632.06,-6.6 632.01,-13.6"/>
</a>
</g>
</g>
<!-- Node21 -->
<g id="Node000021" class="node">
<title>Node21</title>
<g id="a_Node000021"><a xlink:title=" ">
<polygon fill="#e0e0e0" stroke="#999999" points="69.55,-74 16.55,-74 16.55,-55 69.55,-55 69.55,-74"/>
<text text-anchor="middle" x="43.05" y="-62" font-family="Helvetica,sans-Serif" font-size="10.00">stdint.h</text>
</a>
</g>
</g>
<!-- Node20&#45;&gt;Node21 -->
<g id="edge25_Node000020_Node000021" class="edge">
<title>Node20&#45;&gt;Node21</title>
<g id="a_edge25_Node000020_Node000021"><a xlink:title=" ">
<path fill="none" stroke="#63b8ff" d="M111.04,-109.98C98.6,-101.84 79.6,-89.41 64.85,-79.76"/>
<polygon fill="#63b8ff" stroke="#63b8ff" points="66.59,-76.72 56.31,-74.17 62.76,-82.57 66.59,-76.72"/>
</a>
</g>
</g>
<!-- Node22 -->
<g id="Node000022" class="node">
<title>Node22</title>
<g id="a_Node000022"><a xlink:title=" ">
<polygon fill="#e0e0e0" stroke="#999999" points="140.55,-74 87.55,-74 87.55,-55 140.55,-55 140.55,-74"/>
<text text-anchor="middle" x="114.05" y="-62" font-family="Helvetica,sans-Serif" font-size="10.00">stdlib.h</text>
</a>
</g>
</g>
<!-- Node20&#45;&gt;Node22 -->
<g id="edge27_Node000020_Node000022" class="edge">
<title>Node20&#45;&gt;Node22</title>
<g id="a_edge27_Node000020_Node000022"><a xlink:title=" ">
<path fill="none" stroke="#63b8ff" d="M122.4,-109.75C121.09,-102.8 119.21,-92.85 117.57,-84.13"/>
<polygon fill="#63b8ff" stroke="#63b8ff" points="120.97,-83.27 115.67,-74.09 114.09,-84.56 120.97,-83.27"/>
</a>
</g>
</g>
<!-- Node23 -->
<g id="Node000023" class="node">
<title>Node23</title>
<g id="a_Node000023"><a xlink:title=" ">
<polygon fill="#e0e0e0" stroke="#999999" points="207.05,-74 159.05,-74 159.05,-55 207.05,-55 207.05,-74"/>
<text text-anchor="middle" x="183.05" y="-62" font-family="Helvetica,sans-Serif" font-size="10.00">time.h</text>
</a>
</g>
</g>
<!-- Node20&#45;&gt;Node23 -->
<g id="edge28_Node000020_Node000023" class="edge">
<title>Node20&#45;&gt;Node23</title>
<g id="a_edge28_Node000020_Node000023"><a xlink:title=" ">
<path fill="none" stroke="#63b8ff" d="M133.53,-109.98C142.26,-102.15 155.4,-90.34 165.95,-80.86"/>
<polygon fill="#63b8ff" stroke="#63b8ff" points="168.3,-83.46 173.4,-74.17 163.62,-78.25 168.3,-83.46"/>
</a>
</g>
</g>
<!-- Node47 -->
<g id="Node000047" class="node">
<title>Node47</title>
<g id="a_Node000047"><a xlink:title=" ">
<polygon fill="#e0e0e0" stroke="#999999" points="1865.55,-195 1746.55,-195 1746.55,-165 1865.55,-165 1865.55,-195"/>
<text text-anchor="start" x="1754.55" y="-183" font-family="Helvetica,sans-Serif" font-size="10.00">device_load_uniform</text>
<text text-anchor="middle" x="1806.05" y="-172" font-family="Helvetica,sans-Serif" font-size="10.00">_decl.h</text>
</a>
</g>
</g>
<!-- Node46&#45;&gt;Node47 -->
<g id="edge49_Node000046_Node000047" class="edge">
<title>Node46&#45;&gt;Node47</title>
<g id="a_edge49_Node000046_Node000047"><a xlink:title=" ">
<path fill="none" stroke="#63b8ff" d="M1924.84,-230.99C1905.01,-222.65 1874.15,-209.66 1848.86,-199.02"/>
<polygon fill="#63b8ff" stroke="#63b8ff" points="1850.05,-195.72 1839.47,-195.06 1847.33,-202.17 1850.05,-195.72"/>
</a>
</g>
</g>
<!-- Node48 -->
<g id="Node000048" class="node">
<title>Node48</title>
<g id="a_Node000048"><a xlink:title=" ">
<polygon fill="#e0e0e0" stroke="#999999" points="2006.05,-195 1884.05,-195 1884.05,-165 2006.05,-165 2006.05,-195"/>
<text text-anchor="start" x="1892.05" y="-183" font-family="Helvetica,sans-Serif" font-size="10.00">device_store_uniform</text>
<text text-anchor="middle" x="1945.05" y="-172" font-family="Helvetica,sans-Serif" font-size="10.00">_decl.h</text>
</a>
</g>
</g>
<!-- Node46&#45;&gt;Node48 -->
<g id="edge50_Node000046_Node000048" class="edge">
<title>Node46&#45;&gt;Node48</title>
<g id="a_edge50_Node000046_Node000048"><a xlink:title=" ">
<path fill="none" stroke="#63b8ff" d="M1945.05,-230.87C1945.05,-224.11 1945.05,-214.35 1945.05,-205.26"/>
<polygon fill="#63b8ff" stroke="#63b8ff" points="1948.55,-205.11 1945.05,-195.11 1941.55,-205.11 1948.55,-205.11"/>
</a>
</g>
</g>
</g>
</svg>
