<?xml version="1.0" encoding="UTF-8" standalone="no"?>
<!DOCTYPE svg PUBLIC "-//W3C//DTD SVG 1.1//EN"
 "http://www.w3.org/Graphics/SVG/1.1/DTD/svg11.dtd">
<!-- Generated by graphviz version 2.43.0 (0)
 -->
<!-- Title: src/core/node.cc Pages: 1 -->
<svg width="2591pt" height="368pt"
 viewBox="0.00 0.00 2591.00 368.00" xmlns="http://www.w3.org/2000/svg" xmlns:xlink="http://www.w3.org/1999/xlink">
<g id="graph0" class="graph" transform="scale(1 1) rotate(0) translate(4 364)">
<title>src/core/node.cc</title>
<!-- Node1 -->
<g id="Node000001" class="node">
<title>Node1</title>
<g id="a_Node000001"><a xlink:title="Multi&#45;GPU implementation.">
<polygon fill="#999999" stroke="#666666" points="2007,-360 1912,-360 1912,-341 2007,-341 2007,-360"/>
<text text-anchor="middle" x="1959.5" y="-348" font-family="Helvetica,sans-Serif" font-size="10.00">src/core/node.cc</text>
</a>
</g>
</g>
<!-- Node2 -->
<g id="Node000002" class="node">
<title>Node2</title>
<g id="a_Node000002"><a xlink:href="astaroth_8h.html" target="_top" xlink:title=" ">
<polygon fill="white" stroke="#666666" points="857.5,-305 791.5,-305 791.5,-286 857.5,-286 857.5,-305"/>
<text text-anchor="middle" x="824.5" y="-293" font-family="Helvetica,sans-Serif" font-size="10.00">astaroth.h</text>
</a>
</g>
</g>
<!-- Node1&#45;&gt;Node2 -->
<g id="edge1_Node000001_Node000002" class="edge">
<title>Node1&#45;&gt;Node2</title>
<g id="a_edge1_Node000001_Node000002"><a xlink:title=" ">
<path fill="none" stroke="#63b8ff" d="M1911.82,-347.27C1725.25,-338.56 1046.3,-306.86 867.76,-298.52"/>
<polygon fill="#63b8ff" stroke="#63b8ff" points="867.85,-295.02 857.69,-298.05 867.52,-302.01 867.85,-295.02"/>
</a>
</g>
</g>
<!-- Node55 -->
<g id="Node000055" class="node">
<title>Node55</title>
<g id="a_Node000055"><a xlink:href="math__utils_8h.html" target="_top" xlink:title="Brief info.">
<polygon fill="white" stroke="#666666" points="2099,-189.5 2022,-189.5 2022,-170.5 2099,-170.5 2099,-189.5"/>
<text text-anchor="middle" x="2060.5" y="-177.5" font-family="Helvetica,sans-Serif" font-size="10.00">math_utils.h</text>
</a>
</g>
</g>
<!-- Node1&#45;&gt;Node55 -->
<g id="edge57_Node000001_Node000055" class="edge">
<title>Node1&#45;&gt;Node55</title>
<g id="a_edge57_Node000001_Node000055"><a xlink:title=" ">
<path fill="none" stroke="#63b8ff" d="M1989.11,-340.91C2007.13,-334.12 2029.02,-322.75 2041.5,-305 2063.76,-273.34 2064.27,-225.88 2062.5,-199.82"/>
<polygon fill="#63b8ff" stroke="#63b8ff" points="2065.98,-199.43 2061.63,-189.77 2059.01,-200.04 2065.98,-199.43"/>
</a>
</g>
</g>
<!-- Node58 -->
<g id="Node000058" class="node">
<title>Node58</title>
<g id="a_Node000058"><a xlink:href="astaroth__cuda__wrappers_8h.html" target="_top" xlink:title=" ">
<polygon fill="white" stroke="#666666" points="2032,-305 1887,-305 1887,-286 2032,-286 2032,-305"/>
<text text-anchor="middle" x="1959.5" y="-293" font-family="Helvetica,sans-Serif" font-size="10.00">astaroth_cuda_wrappers.h</text>
</a>
</g>
</g>
<!-- Node1&#45;&gt;Node58 -->
<g id="edge67_Node000001_Node000058" class="edge">
<title>Node1&#45;&gt;Node58</title>
<g id="a_edge67_Node000001_Node000058"><a xlink:title=" ">
<path fill="none" stroke="#63b8ff" d="M1959.5,-340.75C1959.5,-333.8 1959.5,-323.85 1959.5,-315.13"/>
<polygon fill="#63b8ff" stroke="#63b8ff" points="1963,-315.09 1959.5,-305.09 1956,-315.09 1963,-315.09"/>
</a>
</g>
</g>
<!-- Node3 -->
<g id="Node000003" class="node">
<title>Node3</title>
<g id="a_Node000003"><a xlink:href="astaroth__base_8h.html" target="_top" xlink:title=" ">
<polygon fill="white" stroke="#666666" points="1341,-250 1246,-250 1246,-231 1341,-231 1341,-250"/>
<text text-anchor="middle" x="1293.5" y="-238" font-family="Helvetica,sans-Serif" font-size="10.00">astaroth_base.h</text>
</a>
</g>
</g>
<!-- Node2&#45;&gt;Node3 -->
<g id="edge2_Node000002_Node000003" class="edge">
<title>Node2&#45;&gt;Node3</title>
<g id="a_edge2_Node000002_Node000003"><a xlink:title=" ">
<path fill="none" stroke="#63b8ff" d="M857.75,-291.41C926.41,-284.92 1089.09,-269.01 1235.78,-250.18"/>
<polygon fill="#63b8ff" stroke="#63b8ff" points="1236.39,-253.63 1245.86,-248.87 1235.49,-246.68 1236.39,-253.63"/>
</a>
</g>
</g>
<!-- Node43 -->
<g id="Node000043" class="node">
<title>Node43</title>
<g id="a_Node000043"><a xlink:href="astaroth__grid_8h.html" target="_top" xlink:title=" ">
<polygon fill="white" stroke="#666666" points="1449.5,-250 1359.5,-250 1359.5,-231 1449.5,-231 1449.5,-250"/>
<text text-anchor="middle" x="1404.5" y="-238" font-family="Helvetica,sans-Serif" font-size="10.00">astaroth_grid.h</text>
</a>
</g>
</g>
<!-- Node2&#45;&gt;Node43 -->
<g id="edge45_Node000002_Node000043" class="edge">
<title>Node2&#45;&gt;Node43</title>
<g id="a_edge45_Node000002_Node000043"><a xlink:title=" ">
<path fill="none" stroke="#63b8ff" d="M857.51,-292.53C939.11,-287.49 1157.05,-272.97 1349.44,-250.04"/>
<polygon fill="#63b8ff" stroke="#63b8ff" points="1349.94,-253.51 1359.45,-248.84 1349.11,-246.56 1349.94,-253.51"/>
</a>
</g>
</g>
<!-- Node44 -->
<g id="Node000044" class="node">
<title>Node44</title>
<g id="a_Node000044"><a xlink:href="astaroth__node_8h.html" target="_top" xlink:title=" ">
<polygon fill="white" stroke="#666666" points="95,-250 0,-250 0,-231 95,-231 95,-250"/>
<text text-anchor="middle" x="47.5" y="-238" font-family="Helvetica,sans-Serif" font-size="10.00">astaroth_node.h</text>
</a>
</g>
</g>
<!-- Node2&#45;&gt;Node44 -->
<g id="edge46_Node000002_Node000044" class="edge">
<title>Node2&#45;&gt;Node44</title>
<g id="a_edge46_Node000002_Node000044"><a xlink:title=" ">
<path fill="none" stroke="#63b8ff" d="M791.4,-293.47C690.29,-290.11 376.34,-278.09 105.08,-249.95"/>
<polygon fill="#63b8ff" stroke="#63b8ff" points="105.36,-246.46 95.05,-248.9 104.63,-253.43 105.36,-246.46"/>
</a>
</g>
</g>
<!-- Node45 -->
<g id="Node000045" class="node">
<title>Node45</title>
<g id="a_Node000045"><a xlink:href="astaroth__device_8h.html" target="_top" xlink:title=" ">
<polygon fill="white" stroke="#666666" points="217.5,-250 113.5,-250 113.5,-231 217.5,-231 217.5,-250"/>
<text text-anchor="middle" x="165.5" y="-238" font-family="Helvetica,sans-Serif" font-size="10.00">astaroth_device.h</text>
</a>
</g>
</g>
<!-- Node2&#45;&gt;Node45 -->
<g id="edge47_Node000002_Node000045" class="edge">
<title>Node2&#45;&gt;Node45</title>
<g id="a_edge47_Node000002_Node000045"><a xlink:title=" ">
<path fill="none" stroke="#63b8ff" d="M791.37,-292.78C702.14,-288 449.12,-273.39 227.89,-250.08"/>
<polygon fill="#63b8ff" stroke="#63b8ff" points="228.03,-246.58 217.72,-249 227.29,-253.54 228.03,-246.58"/>
</a>
</g>
</g>
<!-- Node48 -->
<g id="Node000048" class="node">
<title>Node48</title>
<g id="a_Node000048"><a xlink:href="astaroth__legacy_8h.html" target="_top" xlink:title=" ">
<polygon fill="white" stroke="#666666" points="337.5,-250 235.5,-250 235.5,-231 337.5,-231 337.5,-250"/>
<text text-anchor="middle" x="286.5" y="-238" font-family="Helvetica,sans-Serif" font-size="10.00">astaroth_legacy.h</text>
</a>
</g>
</g>
<!-- Node2&#45;&gt;Node48 -->
<g id="edge50_Node000002_Node000048" class="edge">
<title>Node2&#45;&gt;Node48</title>
<g id="a_edge50_Node000002_Node000048"><a xlink:title=" ">
<path fill="none" stroke="#63b8ff" d="M791.48,-291.94C715.38,-285.93 521.54,-269.98 347.83,-249.98"/>
<polygon fill="#63b8ff" stroke="#63b8ff" points="348.07,-246.49 337.73,-248.81 347.26,-253.44 348.07,-246.49"/>
</a>
</g>
</g>
<!-- Node49 -->
<g id="Node000049" class="node">
<title>Node49</title>
<g id="a_Node000049"><a xlink:title=" ">
<polygon fill="#e0e0e0" stroke="#999999" points="495,-250 356,-250 356,-231 495,-231 495,-250"/>
<text text-anchor="middle" x="425.5" y="-238" font-family="Helvetica,sans-Serif" font-size="10.00">device_set_input_decls.h</text>
</a>
</g>
</g>
<!-- Node2&#45;&gt;Node49 -->
<g id="edge51_Node000002_Node000049" class="edge">
<title>Node2&#45;&gt;Node49</title>
<g id="a_edge51_Node000002_Node000049"><a xlink:title=" ">
<path fill="none" stroke="#63b8ff" d="M791.17,-290.07C727.39,-281.6 586.7,-262.91 499.62,-251.35"/>
<polygon fill="#63b8ff" stroke="#63b8ff" points="499.91,-247.85 489.53,-250.01 498.99,-254.79 499.91,-247.85"/>
</a>
</g>
</g>
<!-- Node50 -->
<g id="Node000050" class="node">
<title>Node50</title>
<g id="a_Node000050"><a xlink:title=" ">
<polygon fill="#e0e0e0" stroke="#999999" points="659.5,-250 513.5,-250 513.5,-231 659.5,-231 659.5,-250"/>
<text text-anchor="middle" x="586.5" y="-238" font-family="Helvetica,sans-Serif" font-size="10.00">device_get_output_decls.h</text>
</a>
</g>
</g>
<!-- Node2&#45;&gt;Node50 -->
<g id="edge52_Node000002_Node000050" class="edge">
<title>Node2&#45;&gt;Node50</title>
<g id="a_edge52_Node000002_Node000050"><a xlink:title=" ">
<path fill="none" stroke="#63b8ff" d="M791.41,-287.13C750.71,-278.07 681.31,-262.61 634.69,-252.23"/>
<polygon fill="#63b8ff" stroke="#63b8ff" points="635.34,-248.79 624.82,-250.03 633.82,-255.62 635.34,-248.79"/>
</a>
</g>
</g>
<!-- Node51 -->
<g id="Node000051" class="node">
<title>Node51</title>
<g id="a_Node000051"><a xlink:title=" ">
<polygon fill="#e0e0e0" stroke="#999999" points="817.5,-250 677.5,-250 677.5,-231 817.5,-231 817.5,-250"/>
<text text-anchor="middle" x="747.5" y="-238" font-family="Helvetica,sans-Serif" font-size="10.00">device_get_input_decls.h</text>
</a>
</g>
</g>
<!-- Node2&#45;&gt;Node51 -->
<g id="edge53_Node000002_Node000051" class="edge">
<title>Node2&#45;&gt;Node51</title>
<g id="a_edge53_Node000002_Node000051"><a xlink:title=" ">
<path fill="none" stroke="#63b8ff" d="M812.13,-285.98C800.41,-277.92 782.58,-265.65 768.61,-256.03"/>
<polygon fill="#63b8ff" stroke="#63b8ff" points="770.32,-252.96 760.1,-250.17 766.35,-258.72 770.32,-252.96"/>
</a>
</g>
</g>
<!-- Node52 -->
<g id="Node000052" class="node">
<title>Node52</title>
<g id="a_Node000052"><a xlink:title=" ">
<polygon fill="#e0e0e0" stroke="#999999" points="965.5,-250 835.5,-250 835.5,-231 965.5,-231 965.5,-250"/>
<text text-anchor="middle" x="900.5" y="-238" font-family="Helvetica,sans-Serif" font-size="10.00">get_vtxbufs_declares.h</text>
</a>
</g>
</g>
<!-- Node2&#45;&gt;Node52 -->
<g id="edge54_Node000002_Node000052" class="edge">
<title>Node2&#45;&gt;Node52</title>
<g id="a_edge54_Node000002_Node000052"><a xlink:title=" ">
<path fill="none" stroke="#63b8ff" d="M836.71,-285.98C848.28,-277.92 865.88,-265.65 879.66,-256.03"/>
<polygon fill="#63b8ff" stroke="#63b8ff" points="881.87,-258.76 888.07,-250.17 877.86,-253.02 881.87,-258.76"/>
</a>
</g>
</g>
<!-- Node53 -->
<g id="Node000053" class="node">
<title>Node53</title>
<g id="a_Node000053"><a xlink:href="astaroth__runtime__compilation_8h.html" target="_top" xlink:title=" ">
<polygon fill="white" stroke="#666666" points="1157,-250 984,-250 984,-231 1157,-231 1157,-250"/>
<text text-anchor="middle" x="1070.5" y="-238" font-family="Helvetica,sans-Serif" font-size="10.00">astaroth_runtime_compilation.h</text>
</a>
</g>
</g>
<!-- Node2&#45;&gt;Node53 -->
<g id="edge55_Node000002_Node000053" class="edge">
<title>Node2&#45;&gt;Node53</title>
<g id="a_edge55_Node000002_Node000053"><a xlink:title=" ">
<path fill="none" stroke="#63b8ff" d="M857.68,-287.35C899.67,-278.3 972.39,-262.64 1020.97,-252.17"/>
<polygon fill="#63b8ff" stroke="#63b8ff" points="1021.91,-255.55 1030.95,-250.02 1020.44,-248.71 1021.91,-255.55"/>
</a>
</g>
</g>
<!-- Node54 -->
<g id="Node000054" class="node">
<title>Node54</title>
<g id="a_Node000054"><a xlink:title=" ">
<polygon fill="#e0e0e0" stroke="#999999" points="1228,-250 1175,-250 1175,-231 1228,-231 1228,-250"/>
<text text-anchor="middle" x="1201.5" y="-238" font-family="Helvetica,sans-Serif" font-size="10.00">string.h</text>
</a>
</g>
</g>
<!-- Node2&#45;&gt;Node54 -->
<g id="edge56_Node000002_Node000054" class="edge">
<title>Node2&#45;&gt;Node54</title>
<g id="a_edge56_Node000002_Node000054"><a xlink:title=" ">
<path fill="none" stroke="#63b8ff" d="M857.7,-291.39C917.35,-285.55 1046.73,-271.69 1164.88,-250.13"/>
<polygon fill="#63b8ff" stroke="#63b8ff" points="1165.61,-253.56 1174.81,-248.3 1164.34,-246.67 1165.61,-253.56"/>
</a>
</g>
</g>
<!-- Node4 -->
<g id="Node000004" class="node">
<title>Node4</title>
<g id="a_Node000004"><a xlink:title=" ">
<polygon fill="#e0e0e0" stroke="#999999" points="640.5,-74 578.5,-74 578.5,-55 640.5,-55 640.5,-74"/>
<text text-anchor="middle" x="609.5" y="-62" font-family="Helvetica,sans-Serif" font-size="10.00">stdbool.h</text>
</a>
</g>
</g>
<!-- Node3&#45;&gt;Node4 -->
<g id="edge3_Node000003_Node000004" class="edge">
<title>Node3&#45;&gt;Node4</title>
<g id="a_edge3_Node000003_Node000004"><a xlink:title=" ">
<path fill="none" stroke="#63b8ff" d="M1245.87,-232.05C1243.04,-231.67 1240.23,-231.32 1237.5,-231 1058.63,-210.01 549.16,-267.05 433.5,-129 394.77,-82.77 504.79,-70.2 568.17,-66.78"/>
<polygon fill="#63b8ff" stroke="#63b8ff" points="568.47,-70.27 578.29,-66.29 568.13,-63.27 568.47,-70.27"/>
</a>
</g>
</g>
<!-- Node5 -->
<g id="Node000005" class="node">
<title>Node5</title>
<g id="a_Node000005"><a xlink:href="acc__runtime_8h.html" target="_top" xlink:title=" ">
<polygon fill="#fff0f0" stroke="red" points="1336.5,-189.5 1250.5,-189.5 1250.5,-170.5 1336.5,-170.5 1336.5,-189.5"/>
<text text-anchor="middle" x="1293.5" y="-177.5" font-family="Helvetica,sans-Serif" font-size="10.00">acc_runtime.h</text>
</a>
</g>
</g>
<!-- Node3&#45;&gt;Node5 -->
<g id="edge4_Node000003_Node000005" class="edge">
<title>Node3&#45;&gt;Node5</title>
<g id="a_edge4_Node000003_Node000005"><a xlink:title=" ">
<path fill="none" stroke="#63b8ff" d="M1293.5,-230.87C1293.5,-222.75 1293.5,-210.31 1293.5,-199.89"/>
<polygon fill="#63b8ff" stroke="#63b8ff" points="1297,-199.67 1293.5,-189.67 1290,-199.67 1297,-199.67"/>
</a>
</g>
</g>
<!-- Node25 -->
<g id="Node000025" class="node">
<title>Node25</title>
<g id="a_Node000025"><a xlink:title=" ">
<polygon fill="#e0e0e0" stroke="#999999" points="581,-129 442,-129 442,-110 581,-110 581,-129"/>
<text text-anchor="middle" x="511.5" y="-117" font-family="Helvetica,sans-Serif" font-size="10.00">user_built&#45;in_constants.h</text>
</a>
</g>
</g>
<!-- Node3&#45;&gt;Node25 -->
<g id="edge43_Node000003_Node000025" class="edge">
<title>Node3&#45;&gt;Node25</title>
<g id="a_edge43_Node000003_Node000025"><a xlink:title=" ">
<path fill="none" stroke="#63b8ff" d="M1245.76,-232.24C1111.8,-211.85 732.14,-154.08 577.88,-130.6"/>
<polygon fill="#63b8ff" stroke="#63b8ff" points="578.03,-127.08 567.61,-129.04 576.97,-134 578.03,-127.08"/>
</a>
</g>
</g>
<!-- Node42 -->
<g id="Node000042" class="node">
<title>Node42</title>
<g id="a_Node000042"><a xlink:title=" ">
<polygon fill="#e0e0e0" stroke="#999999" points="1486,-195 1355,-195 1355,-165 1486,-165 1486,-195"/>
<text text-anchor="start" x="1363" y="-183" font-family="Helvetica,sans-Serif" font-size="10.00">user_builtin_non_scalar</text>
<text text-anchor="middle" x="1420.5" y="-172" font-family="Helvetica,sans-Serif" font-size="10.00">_constants.h</text>
</a>
</g>
</g>
<!-- Node3&#45;&gt;Node42 -->
<g id="edge44_Node000003_Node000042" class="edge">
<title>Node3&#45;&gt;Node42</title>
<g id="a_edge44_Node000003_Node000042"><a xlink:title=" ">
<path fill="none" stroke="#63b8ff" d="M1311.97,-230.99C1329.86,-222.75 1357.6,-209.98 1380.55,-199.4"/>
<polygon fill="#63b8ff" stroke="#63b8ff" points="1382.1,-202.54 1389.72,-195.18 1379.17,-196.18 1382.1,-202.54"/>
</a>
</g>
</g>
<!-- Node5&#45;&gt;Node4 -->
<g id="edge6_Node000005_Node000004" class="edge">
<title>Node5&#45;&gt;Node4</title>
<g id="a_edge6_Node000005_Node000004"><a xlink:title=" ">
<path fill="none" stroke="#63b8ff" d="M1250.16,-177.09C1106.37,-170.57 652.77,-148.53 628.5,-129 615.34,-118.41 611.03,-99.09 609.74,-84.53"/>
<polygon fill="#63b8ff" stroke="#63b8ff" points="613.22,-83.96 609.24,-74.14 606.22,-84.29 613.22,-83.96"/>
</a>
</g>
</g>
<!-- Node6 -->
<g id="Node000006" class="node">
<title>Node6</title>
<g id="a_Node000006"><a xlink:title=" ">
<polygon fill="#e0e0e0" stroke="#999999" points="1374.5,-74 1324.5,-74 1324.5,-55 1374.5,-55 1374.5,-74"/>
<text text-anchor="middle" x="1349.5" y="-62" font-family="Helvetica,sans-Serif" font-size="10.00">stdio.h</text>
</a>
</g>
</g>
<!-- Node5&#45;&gt;Node6 -->
<g id="edge5_Node000005_Node000006" class="edge">
<title>Node5&#45;&gt;Node6</title>
<g id="a_edge5_Node000005_Node000006"><a xlink:title=" ">
<path fill="none" stroke="#63b8ff" d="M1287.8,-170.39C1279.57,-156.76 1266.48,-129.76 1277.5,-110 1285.66,-95.37 1300.83,-84.94 1315.16,-77.88"/>
<polygon fill="#63b8ff" stroke="#63b8ff" points="1316.69,-81.02 1324.36,-73.71 1313.81,-74.64 1316.69,-81.02"/>
</a>
</g>
</g>
<!-- Node7 -->
<g id="Node000007" class="node">
<title>Node7</title>
<g id="a_Node000007"><a xlink:href="device__headers_8h.html" target="_top" xlink:title=" ">
<polygon fill="white" stroke="#666666" points="1914.5,-74 1812.5,-74 1812.5,-55 1914.5,-55 1914.5,-74"/>
<text text-anchor="middle" x="1863.5" y="-62" font-family="Helvetica,sans-Serif" font-size="10.00">device_headers.h</text>
</a>
</g>
</g>
<!-- Node5&#45;&gt;Node7 -->
<g id="edge7_Node000005_Node000007" class="edge">
<title>Node5&#45;&gt;Node7</title>
<g id="a_edge7_Node000005_Node000007"><a xlink:title=" ">
<path fill="none" stroke="#63b8ff" d="M1321.89,-170.46C1329.8,-168.37 1338.43,-166.35 1346.5,-165 1401.11,-155.89 1800.07,-163.34 1843.5,-129 1856.94,-118.38 1861.52,-98.77 1863,-84.14"/>
<polygon fill="#63b8ff" stroke="#63b8ff" points="1866.49,-84.35 1863.61,-74.16 1859.5,-83.92 1866.49,-84.35"/>
</a>
</g>
</g>
<!-- Node10 -->
<g id="Node000010" class="node">
<title>Node10</title>
<g id="a_Node000010"><a xlink:title=" ">
<polygon fill="#e0e0e0" stroke="#999999" points="1585,-74 1490,-74 1490,-55 1585,-55 1585,-74"/>
<text text-anchor="middle" x="1537.5" y="-62" font-family="Helvetica,sans-Serif" font-size="10.00">builtin_enums.h</text>
</a>
</g>
</g>
<!-- Node5&#45;&gt;Node10 -->
<g id="edge10_Node000005_Node000010" class="edge">
<title>Node5&#45;&gt;Node10</title>
<g id="a_edge10_Node000005_Node000010"><a xlink:title=" ">
<path fill="none" stroke="#63b8ff" d="M1325.72,-170.45C1332.58,-168.64 1339.78,-166.75 1346.5,-165 1408.67,-148.8 1432.51,-163.83 1486.5,-129 1504.26,-117.54 1518.67,-97.81 1527.59,-83.38"/>
<polygon fill="#63b8ff" stroke="#63b8ff" points="1530.81,-84.79 1532.85,-74.4 1524.78,-81.25 1530.81,-84.79"/>
</a>
</g>
</g>
<!-- Node11 -->
<g id="Node000011" class="node">
<title>Node11</title>
<g id="a_Node000011"><a xlink:href="datatypes_8h.html" target="_top" xlink:title=" ">
<polygon fill="white" stroke="#666666" points="2087.5,-129 2013.5,-129 2013.5,-110 2087.5,-110 2087.5,-129"/>
<text text-anchor="middle" x="2050.5" y="-117" font-family="Helvetica,sans-Serif" font-size="10.00">datatypes.h</text>
</a>
</g>
</g>
<!-- Node5&#45;&gt;Node11 -->
<g id="edge11_Node000005_Node000011" class="edge">
<title>Node5&#45;&gt;Node11</title>
<g id="a_edge11_Node000005_Node000011"><a xlink:title=" ">
<path fill="none" stroke="#63b8ff" d="M1321.61,-170.46C1329.58,-168.35 1338.32,-166.31 1346.5,-165 1612.91,-122.34 1683.41,-148.66 1952.5,-129 1968.99,-127.8 1987.02,-126.29 2003.07,-124.88"/>
<polygon fill="#63b8ff" stroke="#63b8ff" points="2003.64,-128.34 2013.29,-123.97 2003.02,-121.37 2003.64,-128.34"/>
</a>
</g>
</g>
<!-- Node19 -->
<g id="Node000019" class="node">
<title>Node19</title>
<g id="a_Node000019"><a xlink:href="errchk_8h.html" target="_top" xlink:title="Brief info.">
<polygon fill="white" stroke="#666666" points="1834.5,-129 1778.5,-129 1778.5,-110 1834.5,-110 1834.5,-129"/>
<text text-anchor="middle" x="1806.5" y="-117" font-family="Helvetica,sans-Serif" font-size="10.00">errchk.h</text>
</a>
</g>
</g>
<!-- Node5&#45;&gt;Node19 -->
<g id="edge23_Node000005_Node000019" class="edge">
<title>Node5&#45;&gt;Node19</title>
<g id="a_edge23_Node000005_Node000019"><a xlink:title=" ">
<path fill="none" stroke="#63b8ff" d="M1322.18,-170.45C1330.01,-168.39 1338.53,-166.38 1346.5,-165 1529.23,-133.34 1581.32,-157.34 1768.42,-128.94"/>
<polygon fill="#63b8ff" stroke="#63b8ff" points="1768.95,-132.4 1778.3,-127.41 1767.88,-125.48 1768.95,-132.4"/>
</a>
</g>
</g>
<!-- Node23 -->
<g id="Node000023" class="node">
<title>Node23</title>
<g id="a_Node000023"><a xlink:title=" ">
<polygon fill="#e0e0e0" stroke="#999999" points="1373,-129 1286,-129 1286,-110 1373,-110 1373,-129"/>
<text text-anchor="middle" x="1329.5" y="-117" font-family="Helvetica,sans-Serif" font-size="10.00">user_defines.h</text>
</a>
</g>
</g>
<!-- Node5&#45;&gt;Node23 -->
<g id="edge32_Node000005_Node000023" class="edge">
<title>Node5&#45;&gt;Node23</title>
<g id="a_edge32_Node000005_Node000023"><a xlink:title=" ">
<path fill="none" stroke="#63b8ff" d="M1298.81,-170.37C1304.08,-161.81 1312.29,-148.47 1318.89,-137.74"/>
<polygon fill="#63b8ff" stroke="#63b8ff" points="1321.91,-139.52 1324.17,-129.17 1315.94,-135.85 1321.91,-139.52"/>
</a>
</g>
</g>
<!-- Node24 -->
<g id="Node000024" class="node">
<title>Node24</title>
<g id="a_Node000024"><a xlink:title=" ">
<polygon fill="#e0e0e0" stroke="#999999" points="1477.5,-129 1391.5,-129 1391.5,-110 1477.5,-110 1477.5,-129"/>
<text text-anchor="middle" x="1434.5" y="-117" font-family="Helvetica,sans-Serif" font-size="10.00">profiles_info.h</text>
</a>
</g>
</g>
<!-- Node5&#45;&gt;Node24 -->
<g id="edge33_Node000005_Node000024" class="edge">
<title>Node5&#45;&gt;Node24</title>
<g id="a_edge33_Node000005_Node000024"><a xlink:title=" ">
<path fill="none" stroke="#63b8ff" d="M1314,-170.49C1337.81,-160.62 1377.29,-144.23 1404.54,-132.93"/>
<polygon fill="#63b8ff" stroke="#63b8ff" points="1406.08,-136.08 1413.97,-129.02 1403.39,-129.62 1406.08,-136.08"/>
</a>
</g>
</g>
<!-- Node5&#45;&gt;Node25 -->
<g id="edge34_Node000005_Node000025" class="edge">
<title>Node5&#45;&gt;Node25</title>
<g id="a_edge34_Node000005_Node000025"><a xlink:title=" ">
<path fill="none" stroke="#63b8ff" d="M1250.17,-176.34C1140.5,-169.51 843.03,-150.38 595.5,-129 594.19,-128.89 592.86,-128.77 591.53,-128.65"/>
<polygon fill="#63b8ff" stroke="#63b8ff" points="591.43,-125.13 581.16,-127.71 590.8,-132.1 591.43,-125.13"/>
</a>
</g>
</g>
<!-- Node26 -->
<g id="Node000026" class="node">
<title>Node26</title>
<g id="a_Node000026"><a xlink:href="func__attributes_8h.html" target="_top" xlink:title=" ">
<polygon fill="white" stroke="#666666" points="2583,-74 2484,-74 2484,-55 2583,-55 2583,-74"/>
<text text-anchor="middle" x="2533.5" y="-62" font-family="Helvetica,sans-Serif" font-size="10.00">func_attributes.h</text>
</a>
</g>
</g>
<!-- Node5&#45;&gt;Node26 -->
<g id="edge35_Node000005_Node000026" class="edge">
<title>Node5&#45;&gt;Node26</title>
<g id="a_edge35_Node000005_Node000026"><a xlink:title=" ">
<path fill="none" stroke="#63b8ff" d="M1321.32,-170.48C1329.37,-168.33 1338.22,-166.28 1346.5,-165 1511.41,-139.55 1936.38,-175.94 2096.5,-129 2112.74,-124.24 2113.4,-115.21 2129.5,-110 2273.43,-63.41 2320.09,-91.93 2473.58,-74.16"/>
<polygon fill="#63b8ff" stroke="#63b8ff" points="2474.34,-77.59 2483.84,-72.92 2473.5,-70.64 2474.34,-77.59"/>
</a>
</g>
</g>
<!-- Node27 -->
<g id="Node000027" class="node">
<title>Node27</title>
<g id="a_Node000027"><a xlink:title=" ">
<polygon fill="#e0e0e0" stroke="#999999" points="1659,-129 1534,-129 1534,-110 1659,-110 1659,-129"/>
<text text-anchor="middle" x="1596.5" y="-117" font-family="Helvetica,sans-Serif" font-size="10.00">user_input_typedefs.h</text>
</a>
</g>
</g>
<!-- Node5&#45;&gt;Node27 -->
<g id="edge36_Node000005_Node000027" class="edge">
<title>Node5&#45;&gt;Node27</title>
<g id="a_edge36_Node000005_Node000027"><a xlink:title=" ">
<path fill="none" stroke="#63b8ff" d="M1324.22,-170.43C1331.5,-168.52 1339.25,-166.6 1346.5,-165 1408.72,-151.27 1480.38,-138.86 1530.98,-130.65"/>
<polygon fill="#63b8ff" stroke="#63b8ff" points="1531.81,-134.06 1541.13,-129.02 1530.7,-127.15 1531.81,-134.06"/>
</a>
</g>
</g>
<!-- Node28 -->
<g id="Node000028" class="node">
<title>Node28</title>
<g id="a_Node000028"><a xlink:title=" ">
<polygon fill="#e0e0e0" stroke="#999999" points="1760,-129 1677,-129 1677,-110 1760,-110 1760,-129"/>
<text text-anchor="middle" x="1718.5" y="-117" font-family="Helvetica,sans-Serif" font-size="10.00">output_decl.h</text>
</a>
</g>
</g>
<!-- Node5&#45;&gt;Node28 -->
<g id="edge37_Node000005_Node000028" class="edge">
<title>Node5&#45;&gt;Node28</title>
<g id="a_edge37_Node000005_Node000028"><a xlink:title=" ">
<path fill="none" stroke="#63b8ff" d="M1322.76,-170.45C1330.43,-168.43 1338.74,-166.45 1346.5,-165 1484.87,-139.13 1524.15,-148.62 1666.79,-129.16"/>
<polygon fill="#63b8ff" stroke="#63b8ff" points="1667.36,-132.62 1676.79,-127.77 1666.4,-125.68 1667.36,-132.62"/>
</a>
</g>
</g>
<!-- Node29 -->
<g id="Node000029" class="node">
<title>Node29</title>
<g id="a_Node000029"><a xlink:title=" ">
<polygon fill="#e0e0e0" stroke="#999999" points="753.5,-129 637.5,-129 637.5,-110 753.5,-110 753.5,-129"/>
<text text-anchor="middle" x="695.5" y="-117" font-family="Helvetica,sans-Serif" font-size="10.00">comp_loaded_decl.h</text>
</a>
</g>
</g>
<!-- Node5&#45;&gt;Node29 -->
<g id="edge38_Node000005_Node000029" class="edge">
<title>Node5&#45;&gt;Node29</title>
<g id="a_edge38_Node000005_Node000029"><a xlink:title=" ">
<path fill="none" stroke="#63b8ff" d="M1250.43,-175.42C1161.56,-167.93 951.15,-149.66 763.63,-129.09"/>
<polygon fill="#63b8ff" stroke="#63b8ff" points="763.91,-125.6 753.59,-127.99 763.15,-132.56 763.91,-125.6"/>
</a>
</g>
</g>
<!-- Node30 -->
<g id="Node000030" class="node">
<title>Node30</title>
<g id="a_Node000030"><a xlink:title=" ">
<polygon fill="#e0e0e0" stroke="#999999" points="849.5,-129 771.5,-129 771.5,-110 849.5,-110 849.5,-129"/>
<text text-anchor="middle" x="810.5" y="-117" font-family="Helvetica,sans-Serif" font-size="10.00">comp_decl.h</text>
</a>
</g>
</g>
<!-- Node5&#45;&gt;Node30 -->
<g id="edge39_Node000005_Node000030" class="edge">
<title>Node5&#45;&gt;Node30</title>
<g id="a_edge39_Node000005_Node000030"><a xlink:title=" ">
<path fill="none" stroke="#63b8ff" d="M1250.48,-174.93C1174.02,-167.51 1009.23,-150.66 859.78,-129.1"/>
<polygon fill="#63b8ff" stroke="#63b8ff" points="859.9,-125.59 849.5,-127.61 858.89,-132.51 859.9,-125.59"/>
</a>
</g>
</g>
<!-- Node31 -->
<g id="Node000031" class="node">
<title>Node31</title>
<g id="a_Node000031"><a xlink:title=" ">
<polygon fill="#e0e0e0" stroke="#999999" points="975.5,-129 867.5,-129 867.5,-110 975.5,-110 975.5,-129"/>
<text text-anchor="middle" x="921.5" y="-117" font-family="Helvetica,sans-Serif" font-size="10.00">info_loaded_decl.h</text>
</a>
</g>
</g>
<!-- Node5&#45;&gt;Node31 -->
<g id="edge40_Node000005_Node000031" class="edge">
<title>Node5&#45;&gt;Node31</title>
<g id="a_edge40_Node000005_Node000031"><a xlink:title=" ">
<path fill="none" stroke="#63b8ff" d="M1250.46,-172.23C1185.3,-161.99 1061.2,-142.47 985.45,-130.56"/>
<polygon fill="#63b8ff" stroke="#63b8ff" points="985.97,-127.1 975.55,-129 984.88,-134.01 985.97,-127.1"/>
</a>
</g>
</g>
<!-- Node32 -->
<g id="Node000032" class="node">
<title>Node32</title>
<g id="a_Node000032"><a xlink:title=" ">
<polygon fill="#e0e0e0" stroke="#999999" points="1133.5,-129 993.5,-129 993.5,-110 1133.5,-110 1133.5,-129"/>
<text text-anchor="middle" x="1063.5" y="-117" font-family="Helvetica,sans-Serif" font-size="10.00">device_mesh_info_decl.h</text>
</a>
</g>
</g>
<!-- Node5&#45;&gt;Node32 -->
<g id="edge41_Node000005_Node000032" class="edge">
<title>Node5&#45;&gt;Node32</title>
<g id="a_edge41_Node000005_Node000032"><a xlink:title=" ">
<path fill="none" stroke="#63b8ff" d="M1260.06,-170.49C1219.6,-160.2 1151.4,-142.86 1106.92,-131.54"/>
<polygon fill="#63b8ff" stroke="#63b8ff" points="1107.54,-128.09 1096.98,-129.02 1105.81,-134.87 1107.54,-128.09"/>
</a>
</g>
</g>
<!-- Node33 -->
<g id="Node000033" class="node">
<title>Node33</title>
<g id="a_Node000033"><a xlink:title=" ">
<polygon fill="#e0e0e0" stroke="#999999" points="1229,-129 1152,-129 1152,-110 1229,-110 1229,-129"/>
<text text-anchor="middle" x="1190.5" y="-117" font-family="Helvetica,sans-Serif" font-size="10.00">array_decl.h</text>
</a>
</g>
</g>
<!-- Node5&#45;&gt;Node33 -->
<g id="edge42_Node000005_Node000033" class="edge">
<title>Node5&#45;&gt;Node33</title>
<g id="a_edge42_Node000005_Node000033"><a xlink:title=" ">
<path fill="none" stroke="#63b8ff" d="M1278.3,-170.37C1261.49,-160.82 1234.18,-145.31 1214.48,-134.12"/>
<polygon fill="#63b8ff" stroke="#63b8ff" points="1216.18,-131.06 1205.76,-129.17 1212.73,-137.15 1216.18,-131.06"/>
</a>
</g>
</g>
<!-- Node8 -->
<g id="Node000008" class="node">
<title>Node8</title>
<g id="a_Node000008"><a xlink:title=" ">
<polygon fill="#e0e0e0" stroke="#999999" points="2178,-19 2065,-19 2065,0 2178,0 2178,-19"/>
<text text-anchor="middle" x="2121.5" y="-7" font-family="Helvetica,sans-Serif" font-size="10.00">cuda_runtime_api.h</text>
</a>
</g>
</g>
<!-- Node7&#45;&gt;Node8 -->
<g id="edge8_Node000007_Node000008" class="edge">
<title>Node7&#45;&gt;Node8</title>
<g id="a_edge8_Node000007_Node000008"><a xlink:title=" ">
<path fill="none" stroke="#63b8ff" d="M1904.95,-54.98C1949.77,-45.78 2021.27,-31.09 2069.75,-21.13"/>
<polygon fill="#63b8ff" stroke="#63b8ff" points="2070.63,-24.52 2079.72,-19.08 2069.22,-17.67 2070.63,-24.52"/>
</a>
</g>
</g>
<!-- Node9 -->
<g id="Node000009" class="node">
<title>Node9</title>
<g id="a_Node000009"><a xlink:title=" ">
<polygon fill="#e0e0e0" stroke="#999999" points="1901.5,-19 1825.5,-19 1825.5,0 1901.5,0 1901.5,-19"/>
<text text-anchor="middle" x="1863.5" y="-7" font-family="Helvetica,sans-Serif" font-size="10.00">cuda_fp16.h</text>
</a>
</g>
</g>
<!-- Node7&#45;&gt;Node9 -->
<g id="edge9_Node000007_Node000009" class="edge">
<title>Node7&#45;&gt;Node9</title>
<g id="a_edge9_Node000007_Node000009"><a xlink:title=" ">
<path fill="none" stroke="#63b8ff" d="M1863.5,-54.75C1863.5,-47.8 1863.5,-37.85 1863.5,-29.13"/>
<polygon fill="#63b8ff" stroke="#63b8ff" points="1867,-29.09 1863.5,-19.09 1860,-29.09 1867,-29.09"/>
</a>
</g>
</g>
<!-- Node11&#45;&gt;Node7 -->
<g id="edge14_Node000011_Node000007" class="edge">
<title>Node11&#45;&gt;Node7</title>
<g id="a_edge14_Node000011_Node000007"><a xlink:title=" ">
<path fill="none" stroke="#63b8ff" d="M2020.46,-109.98C1988.79,-101.01 1938.73,-86.82 1903.69,-76.89"/>
<polygon fill="#63b8ff" stroke="#63b8ff" points="1904.36,-73.44 1893.78,-74.08 1902.45,-80.18 1904.36,-73.44"/>
</a>
</g>
</g>
<!-- Node11&#45;&gt;Node8 -->
<g id="edge16_Node000011_Node000008" class="edge">
<title>Node11&#45;&gt;Node8</title>
<g id="a_edge16_Node000011_Node000008"><a xlink:title=" ">
<path fill="none" stroke="#63b8ff" d="M2087.58,-113.47C2111.64,-108.08 2141.25,-96.94 2156.5,-74 2166.87,-58.4 2153.36,-39.48 2140.23,-26.37"/>
<polygon fill="#63b8ff" stroke="#63b8ff" points="2142.43,-23.64 2132.72,-19.4 2137.66,-28.77 2142.43,-23.64"/>
</a>
</g>
</g>
<!-- Node11&#45;&gt;Node10 -->
<g id="edge18_Node000011_Node000010" class="edge">
<title>Node11&#45;&gt;Node10</title>
<g id="a_edge18_Node000011_Node000010"><a xlink:title=" ">
<path fill="none" stroke="#63b8ff" d="M2013.49,-115.53C1937.34,-109.28 1757.4,-93.8 1595.22,-74.02"/>
<polygon fill="#63b8ff" stroke="#63b8ff" points="1595.41,-70.52 1585.06,-72.78 1594.56,-77.47 1595.41,-70.52"/>
</a>
</g>
</g>
<!-- Node12 -->
<g id="Node000012" class="node">
<title>Node12</title>
<g id="a_Node000012"><a xlink:title=" ">
<polygon fill="#e0e0e0" stroke="#999999" points="2251,-74 2204,-74 2204,-55 2251,-55 2251,-74"/>
<text text-anchor="middle" x="2227.5" y="-62" font-family="Helvetica,sans-Serif" font-size="10.00">float.h</text>
</a>
</g>
</g>
<!-- Node11&#45;&gt;Node12 -->
<g id="edge12_Node000011_Node000012" class="edge">
<title>Node11&#45;&gt;Node12</title>
<g id="a_edge12_Node000011_Node000012"><a xlink:title=" ">
<path fill="none" stroke="#63b8ff" d="M2078.94,-109.98C2110.38,-100.57 2160.96,-85.42 2194.22,-75.46"/>
<polygon fill="#63b8ff" stroke="#63b8ff" points="2195.37,-78.77 2203.95,-72.55 2193.36,-72.07 2195.37,-78.77"/>
</a>
</g>
</g>
<!-- Node13 -->
<g id="Node000013" class="node">
<title>Node13</title>
<g id="a_Node000013"><a xlink:title=" ">
<polygon fill="#e0e0e0" stroke="#999999" points="2466,-74 2415,-74 2415,-55 2466,-55 2466,-74"/>
<text text-anchor="middle" x="2440.5" y="-62" font-family="Helvetica,sans-Serif" font-size="10.00">math.h</text>
</a>
</g>
</g>
<!-- Node11&#45;&gt;Node13 -->
<g id="edge13_Node000011_Node000013" class="edge">
<title>Node11&#45;&gt;Node13</title>
<g id="a_edge13_Node000011_Node000013"><a xlink:title=" ">
<path fill="none" stroke="#63b8ff" d="M2087.52,-112.13C2092.22,-111.38 2096.97,-110.65 2101.5,-110 2233.99,-90.99 2268.46,-95.93 2400.5,-74 2401.94,-73.76 2403.42,-73.5 2404.9,-73.23"/>
<polygon fill="#63b8ff" stroke="#63b8ff" points="2405.59,-76.67 2414.74,-71.33 2404.26,-69.79 2405.59,-76.67"/>
</a>
</g>
</g>
<!-- Node14 -->
<g id="Node000014" class="node">
<title>Node14</title>
<g id="a_Node000014"><a xlink:title=" ">
<polygon fill="#e0e0e0" stroke="#999999" points="2358,-74 2269,-74 2269,-55 2358,-55 2358,-74"/>
<text text-anchor="middle" x="2313.5" y="-62" font-family="Helvetica,sans-Serif" font-size="10.00">vector_types.h</text>
</a>
</g>
</g>
<!-- Node11&#45;&gt;Node14 -->
<g id="edge15_Node000011_Node000014" class="edge">
<title>Node11&#45;&gt;Node14</title>
<g id="a_edge15_Node000011_Node000014"><a xlink:title=" ">
<path fill="none" stroke="#63b8ff" d="M2087.62,-111.02C2132.89,-101.9 2209.69,-86.42 2261,-76.08"/>
<polygon fill="#63b8ff" stroke="#63b8ff" points="2261.79,-79.49 2270.9,-74.08 2260.41,-72.63 2261.79,-79.49"/>
</a>
</g>
</g>
<!-- Node15 -->
<g id="Node000015" class="node">
<title>Node15</title>
<g id="a_Node000015"><a xlink:href="acreal_8h.html" target="_top" xlink:title=" ">
<polygon fill="white" stroke="#666666" points="2333.5,-19 2277.5,-19 2277.5,0 2333.5,0 2333.5,-19"/>
<text text-anchor="middle" x="2305.5" y="-7" font-family="Helvetica,sans-Serif" font-size="10.00">acreal.h</text>
</a>
</g>
</g>
<!-- Node11&#45;&gt;Node15 -->
<g id="edge17_Node000011_Node000015" class="edge">
<title>Node11&#45;&gt;Node15</title>
<g id="a_edge17_Node000011_Node000015"><a xlink:title=" ">
<path fill="none" stroke="#63b8ff" d="M2087.53,-112.19C2092.23,-111.43 2096.97,-110.68 2101.5,-110 2160.48,-101.1 2328.25,-118.92 2367.5,-74 2383.34,-55.87 2356.75,-36.21 2333.62,-23.65"/>
<polygon fill="#63b8ff" stroke="#63b8ff" points="2335.19,-20.52 2324.7,-19.04 2331.97,-26.74 2335.19,-20.52"/>
</a>
</g>
</g>
<!-- Node16 -->
<g id="Node000016" class="node">
<title>Node16</title>
<g id="a_Node000016"><a xlink:title=" ">
<polygon fill="#e0e0e0" stroke="#999999" points="2147,-74 2052,-74 2052,-55 2147,-55 2147,-74"/>
<text text-anchor="middle" x="2099.5" y="-62" font-family="Helvetica,sans-Serif" font-size="10.00">user_typedefs.h</text>
</a>
</g>
</g>
<!-- Node11&#45;&gt;Node16 -->
<g id="edge19_Node000011_Node000016" class="edge">
<title>Node11&#45;&gt;Node16</title>
<g id="a_edge19_Node000011_Node000016"><a xlink:title=" ">
<path fill="none" stroke="#63b8ff" d="M2058.59,-109.75C2065.66,-102.11 2076.09,-90.82 2084.65,-81.56"/>
<polygon fill="#63b8ff" stroke="#63b8ff" points="2087.34,-83.81 2091.56,-74.09 2082.2,-79.06 2087.34,-83.81"/>
</a>
</g>
</g>
<!-- Node17 -->
<g id="Node000017" class="node">
<title>Node17</title>
<g id="a_Node000017"><a xlink:href="host__datatypes_8h.html" target="_top" xlink:title=" ">
<polygon fill="white" stroke="#666666" points="2034,-74 1933,-74 1933,-55 2034,-55 2034,-74"/>
<text text-anchor="middle" x="1983.5" y="-62" font-family="Helvetica,sans-Serif" font-size="10.00">host_datatypes.h</text>
</a>
</g>
</g>
<!-- Node11&#45;&gt;Node17 -->
<g id="edge20_Node000011_Node000017" class="edge">
<title>Node11&#45;&gt;Node17</title>
<g id="a_edge20_Node000011_Node000017"><a xlink:title=" ">
<path fill="none" stroke="#63b8ff" d="M2039.74,-109.98C2029.73,-102.07 2014.61,-90.11 2002.57,-80.58"/>
<polygon fill="#63b8ff" stroke="#63b8ff" points="2004.47,-77.63 1994.46,-74.17 2000.13,-83.12 2004.47,-77.63"/>
</a>
</g>
</g>
<!-- Node17&#45;&gt;Node15 -->
<g id="edge21_Node000017_Node000015" class="edge">
<title>Node17&#45;&gt;Node15</title>
<g id="a_edge21_Node000017_Node000015"><a xlink:title=" ">
<path fill="none" stroke="#63b8ff" d="M2034.17,-55.16C2098.69,-44.54 2208.77,-26.42 2266.91,-16.85"/>
<polygon fill="#63b8ff" stroke="#63b8ff" points="2267.84,-20.25 2277.13,-15.17 2266.7,-13.34 2267.84,-20.25"/>
</a>
</g>
</g>
<!-- Node18 -->
<g id="Node000018" class="node">
<title>Node18</title>
<g id="a_Node000018"><a xlink:title=" ">
<polygon fill="#e0e0e0" stroke="#999999" points="1993.5,-19 1937.5,-19 1937.5,0 1993.5,0 1993.5,-19"/>
<text text-anchor="middle" x="1965.5" y="-7" font-family="Helvetica,sans-Serif" font-size="10.00">stddef.h</text>
</a>
</g>
</g>
<!-- Node17&#45;&gt;Node18 -->
<g id="edge22_Node000017_Node000018" class="edge">
<title>Node17&#45;&gt;Node18</title>
<g id="a_edge22_Node000017_Node000018"><a xlink:title=" ">
<path fill="none" stroke="#63b8ff" d="M1980.53,-54.75C1978.14,-47.72 1974.71,-37.62 1971.73,-28.84"/>
<polygon fill="#63b8ff" stroke="#63b8ff" points="1974.95,-27.43 1968.42,-19.09 1968.32,-29.68 1974.95,-27.43"/>
</a>
</g>
</g>
<!-- Node19&#45;&gt;Node4 -->
<g id="edge26_Node000019_Node000004" class="edge">
<title>Node19&#45;&gt;Node4</title>
<g id="a_edge26_Node000019_Node000004"><a xlink:title=" ">
<path fill="none" stroke="#63b8ff" d="M1778.32,-111.45C1775.35,-110.88 1772.37,-110.38 1769.5,-110 1546.56,-80.38 830.71,-68.58 650.82,-66.05"/>
<polygon fill="#63b8ff" stroke="#63b8ff" points="650.76,-62.55 640.71,-65.91 650.66,-69.54 650.76,-62.55"/>
</a>
</g>
</g>
<!-- Node19&#45;&gt;Node6 -->
<g id="edge28_Node000019_Node000006" class="edge">
<title>Node19&#45;&gt;Node6</title>
<g id="a_edge28_Node000019_Node000006"><a xlink:title=" ">
<path fill="none" stroke="#63b8ff" d="M1778.29,-111.65C1775.33,-111.04 1772.36,-110.48 1769.5,-110 1695.56,-97.64 1471.8,-76.63 1384.71,-68.68"/>
<polygon fill="#63b8ff" stroke="#63b8ff" points="1384.83,-65.18 1374.55,-67.75 1384.19,-72.15 1384.83,-65.18"/>
</a>
</g>
</g>
<!-- Node19&#45;&gt;Node7 -->
<g id="edge31_Node000019_Node000007" class="edge">
<title>Node19&#45;&gt;Node7</title>
<g id="a_edge31_Node000019_Node000007"><a xlink:title=" ">
<path fill="none" stroke="#63b8ff" d="M1815.66,-109.98C1824,-102.23 1836.53,-90.58 1846.68,-81.14"/>
<polygon fill="#63b8ff" stroke="#63b8ff" points="1849.24,-83.54 1854.18,-74.17 1844.47,-78.42 1849.24,-83.54"/>
</a>
</g>
</g>
<!-- Node19&#45;&gt;Node17 -->
<g id="edge25_Node000019_Node000017" class="edge">
<title>Node19&#45;&gt;Node17</title>
<g id="a_edge25_Node000019_Node000017"><a xlink:title=" ">
<path fill="none" stroke="#63b8ff" d="M1834.55,-110.1C1864.41,-101.16 1911.85,-86.95 1945.15,-76.98"/>
<polygon fill="#63b8ff" stroke="#63b8ff" points="1946.42,-80.26 1955,-74.03 1944.42,-73.55 1946.42,-80.26"/>
</a>
</g>
</g>
<!-- Node19&#45;&gt;Node18 -->
<g id="edge24_Node000019_Node000018" class="edge">
<title>Node19&#45;&gt;Node18</title>
<g id="a_edge24_Node000019_Node000018"><a xlink:title=" ">
<path fill="none" stroke="#63b8ff" d="M1778.28,-111.71C1775.32,-111.09 1772.36,-110.51 1769.5,-110 1705.99,-98.77 1524.18,-122.35 1481.5,-74 1475.91,-67.67 1475.78,-61.22 1481.5,-55 1513.88,-19.79 1863,-24.66 1910.5,-19 1915.96,-18.35 1921.7,-17.57 1927.34,-16.75"/>
<polygon fill="#63b8ff" stroke="#63b8ff" points="1927.92,-20.2 1937.29,-15.25 1926.88,-13.28 1927.92,-20.2"/>
</a>
</g>
</g>
<!-- Node20 -->
<g id="Node000020" class="node">
<title>Node20</title>
<g id="a_Node000020"><a xlink:title=" ">
<polygon fill="#e0e0e0" stroke="#999999" points="1723,-74 1670,-74 1670,-55 1723,-55 1723,-74"/>
<text text-anchor="middle" x="1696.5" y="-62" font-family="Helvetica,sans-Serif" font-size="10.00">stdint.h</text>
</a>
</g>
</g>
<!-- Node19&#45;&gt;Node20 -->
<g id="edge27_Node000019_Node000020" class="edge">
<title>Node19&#45;&gt;Node20</title>
<g id="a_edge27_Node000019_Node000020"><a xlink:title=" ">
<path fill="none" stroke="#63b8ff" d="M1788.83,-109.98C1771.21,-101.5 1743.92,-88.35 1723.57,-78.54"/>
<polygon fill="#63b8ff" stroke="#63b8ff" points="1725.02,-75.36 1714.49,-74.17 1721.98,-81.66 1725.02,-75.36"/>
</a>
</g>
</g>
<!-- Node21 -->
<g id="Node000021" class="node">
<title>Node21</title>
<g id="a_Node000021"><a xlink:title=" ">
<polygon fill="#e0e0e0" stroke="#999999" points="1794,-74 1741,-74 1741,-55 1794,-55 1794,-74"/>
<text text-anchor="middle" x="1767.5" y="-62" font-family="Helvetica,sans-Serif" font-size="10.00">stdlib.h</text>
</a>
</g>
</g>
<!-- Node19&#45;&gt;Node21 -->
<g id="edge29_Node000019_Node000021" class="edge">
<title>Node19&#45;&gt;Node21</title>
<g id="a_edge29_Node000019_Node000021"><a xlink:title=" ">
<path fill="none" stroke="#63b8ff" d="M1800.06,-109.75C1794.61,-102.34 1786.64,-91.5 1779.94,-82.41"/>
<polygon fill="#63b8ff" stroke="#63b8ff" points="1782.57,-80.07 1773.82,-74.09 1776.93,-84.22 1782.57,-80.07"/>
</a>
</g>
</g>
<!-- Node22 -->
<g id="Node000022" class="node">
<title>Node22</title>
<g id="a_Node000022"><a xlink:title=" ">
<polygon fill="#e0e0e0" stroke="#999999" points="1651.5,-74 1603.5,-74 1603.5,-55 1651.5,-55 1651.5,-74"/>
<text text-anchor="middle" x="1627.5" y="-62" font-family="Helvetica,sans-Serif" font-size="10.00">time.h</text>
</a>
</g>
</g>
<!-- Node19&#45;&gt;Node22 -->
<g id="edge30_Node000019_Node000022" class="edge">
<title>Node19&#45;&gt;Node22</title>
<g id="a_edge30_Node000019_Node000022"><a xlink:title=" ">
<path fill="none" stroke="#63b8ff" d="M1778.14,-110.1C1746.51,-100.74 1695.38,-85.6 1661.6,-75.6"/>
<polygon fill="#63b8ff" stroke="#63b8ff" points="1662.29,-72.15 1651.71,-72.67 1660.31,-78.86 1662.29,-72.15"/>
</a>
</g>
</g>
<!-- Node46 -->
<g id="Node000046" class="node">
<title>Node46</title>
<g id="a_Node000046"><a xlink:title=" ">
<polygon fill="#e0e0e0" stroke="#999999" points="184,-195 65,-195 65,-165 184,-165 184,-195"/>
<text text-anchor="start" x="73" y="-183" font-family="Helvetica,sans-Serif" font-size="10.00">device_load_uniform</text>
<text text-anchor="middle" x="124.5" y="-172" font-family="Helvetica,sans-Serif" font-size="10.00">_decl.h</text>
</a>
</g>
</g>
<!-- Node45&#45;&gt;Node46 -->
<g id="edge48_Node000045_Node000046" class="edge">
<title>Node45&#45;&gt;Node46</title>
<g id="a_edge48_Node000045_Node000046"><a xlink:title=" ">
<path fill="none" stroke="#63b8ff" d="M159.45,-230.87C154.4,-223.67 146.98,-213.07 140.26,-203.49"/>
<polygon fill="#63b8ff" stroke="#63b8ff" points="143,-201.29 134.39,-195.11 137.27,-205.31 143,-201.29"/>
</a>
</g>
</g>
<!-- Node47 -->
<g id="Node000047" class="node">
<title>Node47</title>
<g id="a_Node000047"><a xlink:title=" ">
<polygon fill="#e0e0e0" stroke="#999999" points="324.5,-195 202.5,-195 202.5,-165 324.5,-165 324.5,-195"/>
<text text-anchor="start" x="210.5" y="-183" font-family="Helvetica,sans-Serif" font-size="10.00">device_store_uniform</text>
<text text-anchor="middle" x="263.5" y="-172" font-family="Helvetica,sans-Serif" font-size="10.00">_decl.h</text>
</a>
</g>
</g>
<!-- Node45&#45;&gt;Node47 -->
<g id="edge49_Node000045_Node000047" class="edge">
<title>Node45&#45;&gt;Node47</title>
<g id="a_edge49_Node000045_Node000047"><a xlink:title=" ">
<path fill="none" stroke="#63b8ff" d="M179.96,-230.87C193.38,-222.86 213.83,-210.65 231.14,-200.31"/>
<polygon fill="#63b8ff" stroke="#63b8ff" points="233.06,-203.25 239.86,-195.11 229.47,-197.23 233.06,-203.25"/>
</a>
</g>
</g>
<!-- Node55&#45;&gt;Node11 -->
<g id="edge61_Node000055_Node000011" class="edge">
<title>Node55&#45;&gt;Node11</title>
<g id="a_edge61_Node000055_Node000011"><a xlink:title=" ">
<path fill="none" stroke="#63b8ff" d="M2059.02,-170.37C2057.62,-162.16 2055.46,-149.54 2053.67,-139.05"/>
<polygon fill="#63b8ff" stroke="#63b8ff" points="2057.12,-138.43 2051.98,-129.17 2050.22,-139.61 2057.12,-138.43"/>
</a>
</g>
</g>
<!-- Node55&#45;&gt;Node13 -->
<g id="edge60_Node000055_Node000013" class="edge">
<title>Node55&#45;&gt;Node13</title>
<g id="a_edge60_Node000055_Node000013"><a xlink:title=" ">
<path fill="none" stroke="#63b8ff" d="M2099.09,-176.95C2193.7,-171.55 2431.2,-155.45 2454.5,-129 2465.66,-116.34 2459.01,-96.81 2451.55,-82.75"/>
<polygon fill="#63b8ff" stroke="#63b8ff" points="2454.53,-80.91 2446.46,-74.05 2448.48,-84.44 2454.53,-80.91"/>
</a>
</g>
</g>
<!-- Node55&#45;&gt;Node19 -->
<g id="edge62_Node000055_Node000019" class="edge">
<title>Node55&#45;&gt;Node19</title>
<g id="a_edge62_Node000055_Node000019"><a xlink:title=" ">
<path fill="none" stroke="#63b8ff" d="M2023.57,-170.49C1975.78,-159.49 1892.95,-140.41 1844.6,-129.28"/>
<polygon fill="#63b8ff" stroke="#63b8ff" points="1845.36,-125.86 1834.83,-127.03 1843.79,-132.68 1845.36,-125.86"/>
</a>
</g>
</g>
<!-- Node55&#45;&gt;Node20 -->
<g id="edge58_Node000055_Node000020" class="edge">
<title>Node55&#45;&gt;Node20</title>
<g id="a_edge58_Node000055_Node000020"><a xlink:title=" ">
<path fill="none" stroke="#63b8ff" d="M2023.31,-170.43C1987.08,-161.63 1930.73,-146.74 1883.5,-129 1865.08,-122.08 1861.86,-117.09 1843.5,-110 1806.68,-95.77 1763.28,-83.12 1733.23,-74.98"/>
<polygon fill="#63b8ff" stroke="#63b8ff" points="1733.76,-71.49 1723.19,-72.29 1731.95,-78.26 1733.76,-71.49"/>
</a>
</g>
</g>
<!-- Node55&#45;&gt;Node21 -->
<g id="edge59_Node000055_Node000021" class="edge">
<title>Node55&#45;&gt;Node21</title>
<g id="a_edge59_Node000055_Node000021"><a xlink:title=" ">
<path fill="none" stroke="#63b8ff" d="M2038.48,-170.47C1987.15,-150.59 1859.38,-101.09 1799.47,-77.88"/>
<polygon fill="#63b8ff" stroke="#63b8ff" points="1800.37,-74.48 1789.78,-74.13 1797.84,-81.01 1800.37,-74.48"/>
</a>
</g>
</g>
<!-- Node55&#45;&gt;Node26 -->
<g id="edge63_Node000055_Node000026" class="edge">
<title>Node55&#45;&gt;Node26</title>
<g id="a_edge63_Node000055_Node000026"><a xlink:title=" ">
<path fill="none" stroke="#63b8ff" d="M2070.82,-170.45C2089.68,-155.37 2131.52,-124.27 2172.5,-110 2297.44,-66.48 2339.03,-90.58 2473.56,-74.18"/>
<polygon fill="#63b8ff" stroke="#63b8ff" points="2474.36,-77.6 2483.84,-72.87 2473.48,-70.66 2474.36,-77.6"/>
</a>
</g>
</g>
<!-- Node56 -->
<g id="Node000056" class="node">
<title>Node56</title>
<g id="a_Node000056"><a xlink:href="math__utils__base_8h.html" target="_top" xlink:title=" ">
<polygon fill="white" stroke="#666666" points="2287.5,-129 2181.5,-129 2181.5,-110 2287.5,-110 2287.5,-129"/>
<text text-anchor="middle" x="2234.5" y="-117" font-family="Helvetica,sans-Serif" font-size="10.00">math_utils_base.h</text>
</a>
</g>
</g>
<!-- Node55&#45;&gt;Node56 -->
<g id="edge64_Node000055_Node000056" class="edge">
<title>Node55&#45;&gt;Node56</title>
<g id="a_edge64_Node000055_Node000056"><a xlink:title=" ">
<path fill="none" stroke="#63b8ff" d="M2085.8,-170.49C2115.7,-160.44 2165.62,-143.66 2199.28,-132.34"/>
<polygon fill="#63b8ff" stroke="#63b8ff" points="2200.81,-135.52 2209.17,-129.02 2198.57,-128.89 2200.81,-135.52"/>
</a>
</g>
</g>
<!-- Node57 -->
<g id="Node000057" class="node">
<title>Node57</title>
<g id="a_Node000057"><a xlink:title=" ">
<polygon fill="#e0e0e0" stroke="#999999" points="2445,-129 2306,-129 2306,-110 2445,-110 2445,-129"/>
<text text-anchor="middle" x="2375.5" y="-117" font-family="Helvetica,sans-Serif" font-size="10.00">generated_comp_funcs.h</text>
</a>
</g>
</g>
<!-- Node55&#45;&gt;Node57 -->
<g id="edge66_Node000055_Node000057" class="edge">
<title>Node55&#45;&gt;Node57</title>
<g id="a_edge66_Node000055_Node000057"><a xlink:title=" ">
<path fill="none" stroke="#63b8ff" d="M2099.13,-171.83C2154.41,-161.56 2256.4,-142.62 2319.83,-130.84"/>
<polygon fill="#63b8ff" stroke="#63b8ff" points="2320.47,-134.28 2329.66,-129.01 2319.19,-127.4 2320.47,-134.28"/>
</a>
</g>
</g>
<!-- Node56&#45;&gt;Node26 -->
<g id="edge65_Node000056_Node000026" class="edge">
<title>Node56&#45;&gt;Node26</title>
<g id="a_edge65_Node000056_Node000026"><a xlink:title=" ">
<path fill="none" stroke="#63b8ff" d="M2282.54,-109.98C2334.91,-100.7 2418.74,-85.84 2474.93,-75.88"/>
<polygon fill="#63b8ff" stroke="#63b8ff" points="2475.85,-79.27 2485.08,-74.08 2474.63,-72.38 2475.85,-79.27"/>
</a>
</g>
</g>
<!-- Node58&#45;&gt;Node7 -->
<g id="edge68_Node000058_Node000007" class="edge">
<title>Node58&#45;&gt;Node7</title>
<g id="a_edge68_Node000058_Node000007"><a xlink:title=" ">
<path fill="none" stroke="#63b8ff" d="M1955.85,-285.8C1941.75,-252.15 1890.56,-130.05 1871.09,-83.61"/>
<polygon fill="#63b8ff" stroke="#63b8ff" points="1874.24,-82.08 1867.15,-74.21 1867.79,-84.78 1874.24,-82.08"/>
</a>
</g>
</g>
</g>
</svg>
