<?xml version="1.0" encoding="UTF-8" standalone="no"?>
<!DOCTYPE svg PUBLIC "-//W3C//DTD SVG 1.1//EN"
 "http://www.w3.org/Graphics/SVG/1.1/DTD/svg11.dtd">
<!-- Generated by graphviz version 2.43.0 (0)
 -->
<!-- Title: src/core/kernels/nofft.cc Pages: 1 -->
<!--zoomable 247 -->

<svg id="main" version="1.1" xmlns="http://www.w3.org/2000/svg" xmlns:xlink="http://www.w3.org/1999/xlink" xml:space="preserve" onload="init(evt)">
<style type="text/css"><![CDATA[
.node, .edge {opacity: 0.7;}
.node.selected, .edge.selected {opacity: 1;}
.edge:hover path { stroke: red; }
.edge:hover polygon { stroke: red; fill: red; }
]]></style>

<defs>
  <circle id="rim" cx="0" cy="0" r="7"/>
  <circle id="rim2" cx="0" cy="0" r="3.5"/>
  <g id="zoomPlus">
    <use xlink:href="#rim" fill="#404040"><set attributeName="fill" to="#808080" begin="zoomplus.mouseover" end="zoomplus.mouseout"/></use>
    <path d="M-4,0h8M0,-4v8" fill="none" stroke="white" stroke-width="1.5" pointer-events="none"/>
  </g>
  <g id="zoomMin">
    <use xlink:href="#rim" fill="#404040"><set attributeName="fill" to="#808080" begin="zoomminus.mouseover" end="zoomminus.mouseout"/></use>
    <path d="M-4,0h8" fill="none" stroke="white" stroke-width="1.5" pointer-events="none"/>
  </g>
  <g id="arrowUp" transform="translate(30 24)">
    <use xlink:href="#rim"/>
    <path pointer-events="none" fill="none" stroke="white" stroke-width="1.5" d="M0,-3.0v7 M-2.5,-0.5L0,-3.0L2.5,-0.5"/>
  </g>
  <g id="arrowRight" transform="rotate(90) translate(36 -43)">
    <use xlink:href="#rim"/>
    <path pointer-events="none" fill="none" stroke="white" stroke-width="1.5" d="M0,-3.0v7 M-2.5,-0.5L0,-3.0L2.5,-0.5"/>
  </g>
  <g id="arrowDown" transform="rotate(180) translate(-30 -48)">
    <use xlink:href="#rim"/>
    <path pointer-events="none" fill="none" stroke="white" stroke-width="1.5" d="M0,-3.0v7 M-2.5,-0.5L0,-3.0L2.5,-0.5"/>
  </g>
  <g id="arrowLeft" transform="rotate(270) translate(-36 17)">
    <use xlink:href="#rim"/>
    <path pointer-events="none" fill="none" stroke="white" stroke-width="1.5" d="M0,-3.0v7 M-2.5,-0.5L0,-3.0L2.5,-0.5"/>
  </g>
  <g id="resetDef">
    <use xlink:href="#rim2" fill="#404040"><set attributeName="fill" to="#808080" begin="reset.mouseover" end="reset.mouseout"/></use>
  </g>
</defs>
<script type="application/ecmascript">
var viewWidth = 627;
var viewHeight = 247;
var sectionId = 'dynsection-0';
</script>
<script type="application/ecmascript" xlink:href="svg.min.js"/>
<svg id="graph" class="graph">
<g id="viewport">
<title>src/core/kernels/nofft.cc</title>
<!-- Node1 -->
<g id="Node000001" class="node">
<title>Node1</title>
<g id="a_Node000001"><a xlink:title=" ">
<polygon fill="#999999" stroke="#666666" points="318.5,-239 186.5,-239 186.5,-220 318.5,-220 318.5,-239"/>
<text text-anchor="middle" x="252.5" y="-227" font-family="Helvetica,sans-Serif" font-size="10.00">src/core/kernels/nofft.cc</text>
</a>
</g>
</g>
<!-- Node2 -->
<g id="Node000002" class="node">
<title>Node2</title>
<g id="a_Node000002"><a xlink:title=" ">
<polygon fill="#e0e0e0" stroke="#999999" points="129.5,-184 79.5,-184 79.5,-165 129.5,-165 129.5,-184"/>
<text text-anchor="middle" x="104.5" y="-172" font-family="Helvetica,sans-Serif" font-size="10.00">stdio.h</text>
</a>
</g>
</g>
<!-- Node1&#45;&gt;Node2 -->
<g id="edge1_Node000001_Node000002" class="edge">
<title>Node1&#45;&gt;Node2</title>
<g id="a_edge1_Node000001_Node000002"><a xlink:title=" ">
<path fill="none" stroke="#63b8ff" d="M228.72,-219.98C204.27,-211.23 165.97,-197.51 138.35,-187.62"/>
<polygon fill="#63b8ff" stroke="#63b8ff" points="139.31,-184.25 128.71,-184.17 136.95,-190.84 139.31,-184.25"/>
</a>
</g>
</g>
<!-- Node3 -->
<g id="Node000003" class="node">
<title>Node3</title>
<g id="a_Node000003"><a xlink:title=" ">
<polygon fill="#e0e0e0" stroke="#999999" points="197,-184 148,-184 148,-165 197,-165 197,-184"/>
<text text-anchor="middle" x="172.5" y="-172" font-family="Helvetica,sans-Serif" font-size="10.00">cstdlib</text>
</a>
</g>
</g>
<!-- Node1&#45;&gt;Node3 -->
<g id="edge2_Node000001_Node000003" class="edge">
<title>Node1&#45;&gt;Node3</title>
<g id="a_edge2_Node000001_Node000003"><a xlink:title=" ">
<path fill="none" stroke="#63b8ff" d="M239.65,-219.98C227.36,-211.84 208.59,-199.41 194.02,-189.76"/>
<polygon fill="#63b8ff" stroke="#63b8ff" points="195.86,-186.78 185.59,-184.17 191.99,-192.61 195.86,-186.78"/>
</a>
</g>
</g>
<!-- Node4 -->
<g id="Node000004" class="node">
<title>Node4</title>
<g id="a_Node000004"><a xlink:href="ac__fft_8h.html" target="_top" xlink:title=" ">
<polygon fill="white" stroke="#666666" points="307,-184 254,-184 254,-165 307,-165 307,-184"/>
<text text-anchor="middle" x="280.5" y="-172" font-family="Helvetica,sans-Serif" font-size="10.00">ac_fft.h</text>
</a>
</g>
</g>
<!-- Node1&#45;&gt;Node4 -->
<g id="edge3_Node000001_Node000004" class="edge">
<title>Node1&#45;&gt;Node4</title>
<g id="a_edge3_Node000001_Node000004"><a xlink:title=" ">
<path fill="none" stroke="#63b8ff" d="M257.12,-219.75C260.96,-212.49 266.52,-201.95 271.26,-192.98"/>
<polygon fill="#63b8ff" stroke="#63b8ff" points="274.39,-194.57 275.96,-184.09 268.2,-191.3 274.39,-194.57"/>
</a>
</g>
</g>
<!-- Node5 -->
<g id="Node000005" class="node">
<title>Node5</title>
<g id="a_Node000005"><a xlink:href="device__headers_8h.html" target="_top" xlink:title=" ">
<polygon fill="white" stroke="#666666" points="163.5,-74 61.5,-74 61.5,-55 163.5,-55 163.5,-74"/>
<text text-anchor="middle" x="112.5" y="-62" font-family="Helvetica,sans-Serif" font-size="10.00">device_headers.h</text>
</a>
</g>
</g>
<!-- Node1&#45;&gt;Node5 -->
<g id="edge15_Node000001_Node000005" class="edge">
<title>Node1&#45;&gt;Node5</title>
<g id="a_edge15_Node000001_Node000005"><a xlink:title=" ">
<path fill="none" stroke="#63b8ff" d="M246.42,-219.63C237.74,-207.13 221.12,-183.76 205.5,-165 179.95,-134.32 147.64,-100.82 128.6,-81.57"/>
<polygon fill="#63b8ff" stroke="#63b8ff" points="130.85,-78.86 121.32,-74.24 125.89,-83.8 130.85,-78.86"/>
</a>
</g>
</g>
<!-- Node8 -->
<g id="Node000008" class="node">
<title>Node8</title>
<g id="a_Node000008"><a xlink:href="host__datatypes_8h.html" target="_top" xlink:title=" ">
<polygon fill="white" stroke="#666666" points="393,-129 292,-129 292,-110 393,-110 393,-129"/>
<text text-anchor="middle" x="342.5" y="-117" font-family="Helvetica,sans-Serif" font-size="10.00">host_datatypes.h</text>
</a>
</g>
</g>
<!-- Node1&#45;&gt;Node8 -->
<g id="edge16_Node000001_Node000008" class="edge">
<title>Node1&#45;&gt;Node8</title>
<g id="a_edge16_Node000001_Node000008"><a xlink:title=" ">
<path fill="none" stroke="#63b8ff" d="M269.47,-219.97C283.43,-212.22 302.89,-199.63 315.5,-184 326.3,-170.61 333.48,-152.26 337.7,-138.73"/>
<polygon fill="#63b8ff" stroke="#63b8ff" points="341.07,-139.67 340.47,-129.1 334.35,-137.74 341.07,-139.67"/>
</a>
</g>
</g>
<!-- Node11 -->
<g id="Node000011" class="node">
<title>Node11</title>
<g id="a_Node000011"><a xlink:href="acreal_8h.html" target="_top" xlink:title=" ">
<polygon fill="white" stroke="#666666" points="618.5,-74 562.5,-74 562.5,-55 618.5,-55 618.5,-74"/>
<text text-anchor="middle" x="590.5" y="-62" font-family="Helvetica,sans-Serif" font-size="10.00">acreal.h</text>
</a>
</g>
</g>
<!-- Node1&#45;&gt;Node11 -->
<g id="edge14_Node000001_Node000011" class="edge">
<title>Node1&#45;&gt;Node11</title>
<g id="a_edge14_Node000001_Node000011"><a xlink:title=" ">
<path fill="none" stroke="#63b8ff" d="M270.2,-219.97C325.74,-193.18 496.85,-110.66 563.52,-78.51"/>
<polygon fill="#63b8ff" stroke="#63b8ff" points="565.08,-81.64 572.57,-74.15 562.04,-75.34 565.08,-81.64"/>
</a>
</g>
</g>
<!-- Node4&#45;&gt;Node5 -->
<g id="edge4_Node000004_Node000005" class="edge">
<title>Node4&#45;&gt;Node5</title>
<g id="a_edge4_Node000004_Node000005"><a xlink:title=" ">
<path fill="none" stroke="#63b8ff" d="M277.1,-164.8C271.35,-151.21 258.47,-124.94 239.5,-110 219.11,-93.93 192.49,-83.43 168.89,-76.69"/>
<polygon fill="#63b8ff" stroke="#63b8ff" points="169.56,-73.24 158.99,-74.02 167.74,-80 169.56,-73.24"/>
</a>
</g>
</g>
<!-- Node4&#45;&gt;Node8 -->
<g id="edge7_Node000004_Node000008" class="edge">
<title>Node4&#45;&gt;Node8</title>
<g id="a_edge7_Node000004_Node000008"><a xlink:title=" ">
<path fill="none" stroke="#63b8ff" d="M290.46,-164.98C299.63,-157.15 313.44,-145.34 324.53,-135.86"/>
<polygon fill="#63b8ff" stroke="#63b8ff" points="327.03,-138.33 332.36,-129.17 322.48,-133.01 327.03,-138.33"/>
</a>
</g>
</g>
<!-- Node6 -->
<g id="Node000006" class="node">
<title>Node6</title>
<g id="a_Node000006"><a xlink:title=" ">
<polygon fill="#e0e0e0" stroke="#999999" points="113,-19 0,-19 0,0 113,0 113,-19"/>
<text text-anchor="middle" x="56.5" y="-7" font-family="Helvetica,sans-Serif" font-size="10.00">cuda_runtime_api.h</text>
</a>
</g>
</g>
<!-- Node5&#45;&gt;Node6 -->
<g id="edge5_Node000005_Node000006" class="edge">
<title>Node5&#45;&gt;Node6</title>
<g id="a_edge5_Node000005_Node000006"><a xlink:title=" ">
<path fill="none" stroke="#63b8ff" d="M103.5,-54.98C95.31,-47.23 82.99,-35.58 73.03,-26.14"/>
<polygon fill="#63b8ff" stroke="#63b8ff" points="75.33,-23.5 65.66,-19.17 70.52,-28.59 75.33,-23.5"/>
</a>
</g>
</g>
<!-- Node7 -->
<g id="Node000007" class="node">
<title>Node7</title>
<g id="a_Node000007"><a xlink:title=" ">
<polygon fill="#e0e0e0" stroke="#999999" points="207.5,-19 131.5,-19 131.5,0 207.5,0 207.5,-19"/>
<text text-anchor="middle" x="169.5" y="-7" font-family="Helvetica,sans-Serif" font-size="10.00">cuda_fp16.h</text>
</a>
</g>
</g>
<!-- Node5&#45;&gt;Node7 -->
<g id="edge6_Node000005_Node000007" class="edge">
<title>Node5&#45;&gt;Node7</title>
<g id="a_edge6_Node000005_Node000007"><a xlink:title=" ">
<path fill="none" stroke="#63b8ff" d="M121.66,-54.98C130,-47.23 142.53,-35.58 152.68,-26.14"/>
<polygon fill="#63b8ff" stroke="#63b8ff" points="155.24,-28.54 160.18,-19.17 150.47,-23.42 155.24,-28.54"/>
</a>
</g>
</g>
<!-- Node8&#45;&gt;Node5 -->
<g id="edge12_Node000008_Node000005" class="edge">
<title>Node8&#45;&gt;Node5</title>
<g id="a_edge12_Node000008_Node000005"><a xlink:title=" ">
<path fill="none" stroke="#63b8ff" d="M305.55,-109.98C265.93,-100.86 202.91,-86.33 159.73,-76.38"/>
<polygon fill="#63b8ff" stroke="#63b8ff" points="160.27,-72.92 149.74,-74.08 158.7,-79.74 160.27,-72.92"/>
</a>
</g>
</g>
<!-- Node9 -->
<g id="Node000009" class="node">
<title>Node9</title>
<g id="a_Node000009"><a xlink:title=" ">
<polygon fill="#e0e0e0" stroke="#999999" points="470.5,-74 408.5,-74 408.5,-55 470.5,-55 470.5,-74"/>
<text text-anchor="middle" x="439.5" y="-62" font-family="Helvetica,sans-Serif" font-size="10.00">stdbool.h</text>
</a>
</g>
</g>
<!-- Node8&#45;&gt;Node9 -->
<g id="edge8_Node000008_Node000009" class="edge">
<title>Node8&#45;&gt;Node9</title>
<g id="a_edge8_Node000008_Node000009"><a xlink:title=" ">
<path fill="none" stroke="#63b8ff" d="M358.08,-109.98C373.27,-101.69 396.6,-88.94 414.4,-79.22"/>
<polygon fill="#63b8ff" stroke="#63b8ff" points="416.53,-82.04 423.63,-74.17 413.18,-75.89 416.53,-82.04"/>
</a>
</g>
</g>
<!-- Node10 -->
<g id="Node000010" class="node">
<title>Node10</title>
<g id="a_Node000010"><a xlink:title=" ">
<polygon fill="#e0e0e0" stroke="#999999" points="544.5,-74 488.5,-74 488.5,-55 544.5,-55 544.5,-74"/>
<text text-anchor="middle" x="516.5" y="-62" font-family="Helvetica,sans-Serif" font-size="10.00">stddef.h</text>
</a>
</g>
</g>
<!-- Node8&#45;&gt;Node10 -->
<g id="edge9_Node000008_Node000010" class="edge">
<title>Node8&#45;&gt;Node10</title>
<g id="a_edge9_Node000008_Node000010"><a xlink:title=" ">
<path fill="none" stroke="#63b8ff" d="M370.46,-109.98C399.8,-101.05 446.1,-86.94 478.69,-77.02"/>
<polygon fill="#63b8ff" stroke="#63b8ff" points="479.78,-80.34 488.32,-74.08 477.74,-73.65 479.78,-80.34"/>
</a>
</g>
</g>
<!-- Node8&#45;&gt;Node11 -->
<g id="edge10_Node000008_Node000011" class="edge">
<title>Node8&#45;&gt;Node11</title>
<g id="a_edge10_Node000008_Node000011"><a xlink:title=" ">
<path fill="none" stroke="#63b8ff" d="M384.18,-109.94C424.7,-101.57 488.24,-88.3 552.35,-74.22"/>
<polygon fill="#63b8ff" stroke="#63b8ff" points="553.22,-77.62 562.23,-72.05 551.71,-70.78 553.22,-77.62"/>
</a>
</g>
</g>
<!-- Node12 -->
<g id="Node000012" class="node">
<title>Node12</title>
<g id="a_Node000012"><a xlink:title=" ">
<polygon fill="#e0e0e0" stroke="#999999" points="277,-74 182,-74 182,-55 277,-55 277,-74"/>
<text text-anchor="middle" x="229.5" y="-62" font-family="Helvetica,sans-Serif" font-size="10.00">builtin_enums.h</text>
</a>
</g>
</g>
<!-- Node8&#45;&gt;Node12 -->
<g id="edge11_Node000008_Node000012" class="edge">
<title>Node8&#45;&gt;Node12</title>
<g id="a_edge11_Node000008_Node000012"><a xlink:title=" ">
<path fill="none" stroke="#63b8ff" d="M324.34,-109.98C306.25,-101.5 278.22,-88.35 257.31,-78.54"/>
<polygon fill="#63b8ff" stroke="#63b8ff" points="258.53,-75.25 247.99,-74.17 255.55,-81.59 258.53,-75.25"/>
</a>
</g>
</g>
<!-- Node13 -->
<g id="Node000013" class="node">
<title>Node13</title>
<g id="a_Node000013"><a xlink:title=" ">
<polygon fill="#e0e0e0" stroke="#999999" points="390,-74 295,-74 295,-55 390,-55 390,-74"/>
<text text-anchor="middle" x="342.5" y="-62" font-family="Helvetica,sans-Serif" font-size="10.00">user_typedefs.h</text>
</a>
</g>
</g>
<!-- Node8&#45;&gt;Node13 -->
<g id="edge13_Node000008_Node000013" class="edge">
<title>Node8&#45;&gt;Node13</title>
<g id="a_edge13_Node000008_Node000013"><a xlink:title=" ">
<path fill="none" stroke="#63b8ff" d="M342.5,-109.75C342.5,-102.8 342.5,-92.85 342.5,-84.13"/>
<polygon fill="#63b8ff" stroke="#63b8ff" points="346,-84.09 342.5,-74.09 339,-84.09 346,-84.09"/>
</a>
</g>
</g>
</g>
</svg>

<g id="navigator" transform="translate(0 0)" fill="#404254">
  <rect fill="#f2f5e9" fill-opacity="0.5" stroke="#606060" stroke-width=".5" x="0" y="0" width="60" height="60"/>
  <use id="zoomplus" xlink:href="#zoomPlus" x="17" y="9" onmousedown="handleZoom(evt,'in')"/>
  <use id="zoomminus" xlink:href="#zoomMin" x="42" y="9" onmousedown="handleZoom(evt,'out')"/>
  <use id="reset" xlink:href="#resetDef" x="30" y="36" onmousedown="handleReset()"/>
   <use id="arrowup" xlink:href="#arrowUp" x="0" y="0" onmousedown="handlePan(0,-1)"/>
  <use id="arrowright" xlink:href="#arrowRight" x="0" y="0" onmousedown="handlePan(1,0)"/>
  <use id="arrowdown" xlink:href="#arrowDown" x="0" y="0" onmousedown="handlePan(0,1)"/>
  <use id="arrowleft" xlink:href="#arrowLeft" x="0" y="0" onmousedown="handlePan(-1,0)"/>
</g>
<svg viewBox="0 0 15 15" width="100%" height="30px" preserveAspectRatio="xMaxYMin meet">
 <g id="arrow_out" transform="scale(0.3 0.3)">
  <a xlink:href="nofft_8cc__incl_org.svg" target="_base">
   <rect id="button" ry="5" rx="5" y="6" x="6" height="38" width="38"
        fill="#f2f5e9" fill-opacity="0.5" stroke="#606060" stroke-width="1.0"/>
   <path id="arrow"
     d="M 11.500037,31.436501 C 11.940474,20.09759 22.043105,11.32322 32.158766,21.979434 L 37.068811,17.246167 C 37.068811,17.246167 37.088388,32 37.088388,32 L 22.160133,31.978069 C 22.160133,31.978069 26.997745,27.140456 26.997745,27.140456 C 18.528582,18.264221 13.291696,25.230495 11.500037,31.436501 z"
     style="fill:#404040;"/>
  </a>
 </g>
</svg>

<style type='text/css'>
<![CDATA[
[data-mouse-over-selected='false'] { opacity: 0.7; }
[data-mouse-over-selected='true']  { opacity: 1.0; }
]]>
</style>
<script type="application/ecmascript"><![CDATA[
document.addEventListener('DOMContentLoaded', (event) => {
  highlightEdges();
  highlightAdjacentNodes();
});
]]></script>
</svg>
