<?xml version="1.0" encoding="UTF-8" standalone="no"?>
<!DOCTYPE svg PUBLIC "-//W3C//DTD SVG 1.1//EN"
 "http://www.w3.org/Graphics/SVG/1.1/DTD/svg11.dtd">
<!-- Generated by graphviz version 2.43.0 (0)
 -->
<!-- Title: src/core/kernels/nofft.cc Pages: 1 -->
<svg width="627pt" height="247pt"
 viewBox="0.00 0.00 626.50 247.00" xmlns="http://www.w3.org/2000/svg" xmlns:xlink="http://www.w3.org/1999/xlink">
<g id="graph0" class="graph" transform="scale(1 1) rotate(0) translate(4 243)">
<title>src/core/kernels/nofft.cc</title>
<!-- Node1 -->
<g id="Node000001" class="node">
<title>Node1</title>
<g id="a_Node000001"><a xlink:title=" ">
<polygon fill="#999999" stroke="#666666" points="318.5,-239 186.5,-239 186.5,-220 318.5,-220 318.5,-239"/>
<text text-anchor="middle" x="252.5" y="-227" font-family="Helvetica,sans-Serif" font-size="10.00">src/core/kernels/nofft.cc</text>
</a>
</g>
</g>
<!-- Node2 -->
<g id="Node000002" class="node">
<title>Node2</title>
<g id="a_Node000002"><a xlink:title=" ">
<polygon fill="#e0e0e0" stroke="#999999" points="129.5,-184 79.5,-184 79.5,-165 129.5,-165 129.5,-184"/>
<text text-anchor="middle" x="104.5" y="-172" font-family="Helvetica,sans-Serif" font-size="10.00">stdio.h</text>
</a>
</g>
</g>
<!-- Node1&#45;&gt;Node2 -->
<g id="edge1_Node000001_Node000002" class="edge">
<title>Node1&#45;&gt;Node2</title>
<g id="a_edge1_Node000001_Node000002"><a xlink:title=" ">
<path fill="none" stroke="#63b8ff" d="M228.72,-219.98C204.27,-211.23 165.97,-197.51 138.35,-187.62"/>
<polygon fill="#63b8ff" stroke="#63b8ff" points="139.31,-184.25 128.71,-184.17 136.95,-190.84 139.31,-184.25"/>
</a>
</g>
</g>
<!-- Node3 -->
<g id="Node000003" class="node">
<title>Node3</title>
<g id="a_Node000003"><a xlink:title=" ">
<polygon fill="#e0e0e0" stroke="#999999" points="197,-184 148,-184 148,-165 197,-165 197,-184"/>
<text text-anchor="middle" x="172.5" y="-172" font-family="Helvetica,sans-Serif" font-size="10.00">cstdlib</text>
</a>
</g>
</g>
<!-- Node1&#45;&gt;Node3 -->
<g id="edge2_Node000001_Node000003" class="edge">
<title>Node1&#45;&gt;Node3</title>
<g id="a_edge2_Node000001_Node000003"><a xlink:title=" ">
<path fill="none" stroke="#63b8ff" d="M239.65,-219.98C227.36,-211.84 208.59,-199.41 194.02,-189.76"/>
<polygon fill="#63b8ff" stroke="#63b8ff" points="195.86,-186.78 185.59,-184.17 191.99,-192.61 195.86,-186.78"/>
</a>
</g>
</g>
<!-- Node4 -->
<g id="Node000004" class="node">
<title>Node4</title>
<g id="a_Node000004"><a xlink:href="ac__fft_8h.html" target="_top" xlink:title=" ">
<polygon fill="white" stroke="#666666" points="307,-184 254,-184 254,-165 307,-165 307,-184"/>
<text text-anchor="middle" x="280.5" y="-172" font-family="Helvetica,sans-Serif" font-size="10.00">ac_fft.h</text>
</a>
</g>
</g>
<!-- Node1&#45;&gt;Node4 -->
<g id="edge3_Node000001_Node000004" class="edge">
<title>Node1&#45;&gt;Node4</title>
<g id="a_edge3_Node000001_Node000004"><a xlink:title=" ">
<path fill="none" stroke="#63b8ff" d="M257.12,-219.75C260.96,-212.49 266.52,-201.95 271.26,-192.98"/>
<polygon fill="#63b8ff" stroke="#63b8ff" points="274.39,-194.57 275.96,-184.09 268.2,-191.3 274.39,-194.57"/>
</a>
</g>
</g>
<!-- Node5 -->
<g id="Node000005" class="node">
<title>Node5</title>
<g id="a_Node000005"><a xlink:href="device__headers_8h.html" target="_top" xlink:title=" ">
<polygon fill="white" stroke="#666666" points="163.5,-74 61.5,-74 61.5,-55 163.5,-55 163.5,-74"/>
<text text-anchor="middle" x="112.5" y="-62" font-family="Helvetica,sans-Serif" font-size="10.00">device_headers.h</text>
</a>
</g>
</g>
<!-- Node1&#45;&gt;Node5 -->
<g id="edge15_Node000001_Node000005" class="edge">
<title>Node1&#45;&gt;Node5</title>
<g id="a_edge15_Node000001_Node000005"><a xlink:title=" ">
<path fill="none" stroke="#63b8ff" d="M246.42,-219.63C237.74,-207.13 221.12,-183.76 205.5,-165 179.95,-134.32 147.64,-100.82 128.6,-81.57"/>
<polygon fill="#63b8ff" stroke="#63b8ff" points="130.85,-78.86 121.32,-74.24 125.89,-83.8 130.85,-78.86"/>
</a>
</g>
</g>
<!-- Node8 -->
<g id="Node000008" class="node">
<title>Node8</title>
<g id="a_Node000008"><a xlink:href="host__datatypes_8h.html" target="_top" xlink:title=" ">
<polygon fill="white" stroke="#666666" points="393,-129 292,-129 292,-110 393,-110 393,-129"/>
<text text-anchor="middle" x="342.5" y="-117" font-family="Helvetica,sans-Serif" font-size="10.00">host_datatypes.h</text>
</a>
</g>
</g>
<!-- Node1&#45;&gt;Node8 -->
<g id="edge16_Node000001_Node000008" class="edge">
<title>Node1&#45;&gt;Node8</title>
<g id="a_edge16_Node000001_Node000008"><a xlink:title=" ">
<path fill="none" stroke="#63b8ff" d="M269.47,-219.97C283.43,-212.22 302.89,-199.63 315.5,-184 326.3,-170.61 333.48,-152.26 337.7,-138.73"/>
<polygon fill="#63b8ff" stroke="#63b8ff" points="341.07,-139.67 340.47,-129.1 334.35,-137.74 341.07,-139.67"/>
</a>
</g>
</g>
<!-- Node11 -->
<g id="Node000011" class="node">
<title>Node11</title>
<g id="a_Node000011"><a xlink:href="acreal_8h.html" target="_top" xlink:title=" ">
<polygon fill="white" stroke="#666666" points="618.5,-74 562.5,-74 562.5,-55 618.5,-55 618.5,-74"/>
<text text-anchor="middle" x="590.5" y="-62" font-family="Helvetica,sans-Serif" font-size="10.00">acreal.h</text>
</a>
</g>
</g>
<!-- Node1&#45;&gt;Node11 -->
<g id="edge14_Node000001_Node000011" class="edge">
<title>Node1&#45;&gt;Node11</title>
<g id="a_edge14_Node000001_Node000011"><a xlink:title=" ">
<path fill="none" stroke="#63b8ff" d="M270.2,-219.97C325.74,-193.18 496.85,-110.66 563.52,-78.51"/>
<polygon fill="#63b8ff" stroke="#63b8ff" points="565.08,-81.64 572.57,-74.15 562.04,-75.34 565.08,-81.64"/>
</a>
</g>
</g>
<!-- Node4&#45;&gt;Node5 -->
<g id="edge4_Node000004_Node000005" class="edge">
<title>Node4&#45;&gt;Node5</title>
<g id="a_edge4_Node000004_Node000005"><a xlink:title=" ">
<path fill="none" stroke="#63b8ff" d="M277.1,-164.8C271.35,-151.21 258.47,-124.94 239.5,-110 219.11,-93.93 192.49,-83.43 168.89,-76.69"/>
<polygon fill="#63b8ff" stroke="#63b8ff" points="169.56,-73.24 158.99,-74.02 167.74,-80 169.56,-73.24"/>
</a>
</g>
</g>
<!-- Node4&#45;&gt;Node8 -->
<g id="edge7_Node000004_Node000008" class="edge">
<title>Node4&#45;&gt;Node8</title>
<g id="a_edge7_Node000004_Node000008"><a xlink:title=" ">
<path fill="none" stroke="#63b8ff" d="M290.46,-164.98C299.63,-157.15 313.44,-145.34 324.53,-135.86"/>
<polygon fill="#63b8ff" stroke="#63b8ff" points="327.03,-138.33 332.36,-129.17 322.48,-133.01 327.03,-138.33"/>
</a>
</g>
</g>
<!-- Node6 -->
<g id="Node000006" class="node">
<title>Node6</title>
<g id="a_Node000006"><a xlink:title=" ">
<polygon fill="#e0e0e0" stroke="#999999" points="113,-19 0,-19 0,0 113,0 113,-19"/>
<text text-anchor="middle" x="56.5" y="-7" font-family="Helvetica,sans-Serif" font-size="10.00">cuda_runtime_api.h</text>
</a>
</g>
</g>
<!-- Node5&#45;&gt;Node6 -->
<g id="edge5_Node000005_Node000006" class="edge">
<title>Node5&#45;&gt;Node6</title>
<g id="a_edge5_Node000005_Node000006"><a xlink:title=" ">
<path fill="none" stroke="#63b8ff" d="M103.5,-54.98C95.31,-47.23 82.99,-35.58 73.03,-26.14"/>
<polygon fill="#63b8ff" stroke="#63b8ff" points="75.33,-23.5 65.66,-19.17 70.52,-28.59 75.33,-23.5"/>
</a>
</g>
</g>
<!-- Node7 -->
<g id="Node000007" class="node">
<title>Node7</title>
<g id="a_Node000007"><a xlink:title=" ">
<polygon fill="#e0e0e0" stroke="#999999" points="207.5,-19 131.5,-19 131.5,0 207.5,0 207.5,-19"/>
<text text-anchor="middle" x="169.5" y="-7" font-family="Helvetica,sans-Serif" font-size="10.00">cuda_fp16.h</text>
</a>
</g>
</g>
<!-- Node5&#45;&gt;Node7 -->
<g id="edge6_Node000005_Node000007" class="edge">
<title>Node5&#45;&gt;Node7</title>
<g id="a_edge6_Node000005_Node000007"><a xlink:title=" ">
<path fill="none" stroke="#63b8ff" d="M121.66,-54.98C130,-47.23 142.53,-35.58 152.68,-26.14"/>
<polygon fill="#63b8ff" stroke="#63b8ff" points="155.24,-28.54 160.18,-19.17 150.47,-23.42 155.24,-28.54"/>
</a>
</g>
</g>
<!-- Node8&#45;&gt;Node5 -->
<g id="edge12_Node000008_Node000005" class="edge">
<title>Node8&#45;&gt;Node5</title>
<g id="a_edge12_Node000008_Node000005"><a xlink:title=" ">
<path fill="none" stroke="#63b8ff" d="M305.55,-109.98C265.93,-100.86 202.91,-86.33 159.73,-76.38"/>
<polygon fill="#63b8ff" stroke="#63b8ff" points="160.27,-72.92 149.74,-74.08 158.7,-79.74 160.27,-72.92"/>
</a>
</g>
</g>
<!-- Node9 -->
<g id="Node000009" class="node">
<title>Node9</title>
<g id="a_Node000009"><a xlink:title=" ">
<polygon fill="#e0e0e0" stroke="#999999" points="470.5,-74 408.5,-74 408.5,-55 470.5,-55 470.5,-74"/>
<text text-anchor="middle" x="439.5" y="-62" font-family="Helvetica,sans-Serif" font-size="10.00">stdbool.h</text>
</a>
</g>
</g>
<!-- Node8&#45;&gt;Node9 -->
<g id="edge8_Node000008_Node000009" class="edge">
<title>Node8&#45;&gt;Node9</title>
<g id="a_edge8_Node000008_Node000009"><a xlink:title=" ">
<path fill="none" stroke="#63b8ff" d="M358.08,-109.98C373.27,-101.69 396.6,-88.94 414.4,-79.22"/>
<polygon fill="#63b8ff" stroke="#63b8ff" points="416.53,-82.04 423.63,-74.17 413.18,-75.89 416.53,-82.04"/>
</a>
</g>
</g>
<!-- Node10 -->
<g id="Node000010" class="node">
<title>Node10</title>
<g id="a_Node000010"><a xlink:title=" ">
<polygon fill="#e0e0e0" stroke="#999999" points="544.5,-74 488.5,-74 488.5,-55 544.5,-55 544.5,-74"/>
<text text-anchor="middle" x="516.5" y="-62" font-family="Helvetica,sans-Serif" font-size="10.00">stddef.h</text>
</a>
</g>
</g>
<!-- Node8&#45;&gt;Node10 -->
<g id="edge9_Node000008_Node000010" class="edge">
<title>Node8&#45;&gt;Node10</title>
<g id="a_edge9_Node000008_Node000010"><a xlink:title=" ">
<path fill="none" stroke="#63b8ff" d="M370.46,-109.98C399.8,-101.05 446.1,-86.94 478.69,-77.02"/>
<polygon fill="#63b8ff" stroke="#63b8ff" points="479.78,-80.34 488.32,-74.08 477.74,-73.65 479.78,-80.34"/>
</a>
</g>
</g>
<!-- Node8&#45;&gt;Node11 -->
<g id="edge10_Node000008_Node000011" class="edge">
<title>Node8&#45;&gt;Node11</title>
<g id="a_edge10_Node000008_Node000011"><a xlink:title=" ">
<path fill="none" stroke="#63b8ff" d="M384.18,-109.94C424.7,-101.57 488.24,-88.3 552.35,-74.22"/>
<polygon fill="#63b8ff" stroke="#63b8ff" points="553.22,-77.62 562.23,-72.05 551.71,-70.78 553.22,-77.62"/>
</a>
</g>
</g>
<!-- Node12 -->
<g id="Node000012" class="node">
<title>Node12</title>
<g id="a_Node000012"><a xlink:title=" ">
<polygon fill="#e0e0e0" stroke="#999999" points="277,-74 182,-74 182,-55 277,-55 277,-74"/>
<text text-anchor="middle" x="229.5" y="-62" font-family="Helvetica,sans-Serif" font-size="10.00">builtin_enums.h</text>
</a>
</g>
</g>
<!-- Node8&#45;&gt;Node12 -->
<g id="edge11_Node000008_Node000012" class="edge">
<title>Node8&#45;&gt;Node12</title>
<g id="a_edge11_Node000008_Node000012"><a xlink:title=" ">
<path fill="none" stroke="#63b8ff" d="M324.34,-109.98C306.25,-101.5 278.22,-88.35 257.31,-78.54"/>
<polygon fill="#63b8ff" stroke="#63b8ff" points="258.53,-75.25 247.99,-74.17 255.55,-81.59 258.53,-75.25"/>
</a>
</g>
</g>
<!-- Node13 -->
<g id="Node000013" class="node">
<title>Node13</title>
<g id="a_Node000013"><a xlink:title=" ">
<polygon fill="#e0e0e0" stroke="#999999" points="390,-74 295,-74 295,-55 390,-55 390,-74"/>
<text text-anchor="middle" x="342.5" y="-62" font-family="Helvetica,sans-Serif" font-size="10.00">user_typedefs.h</text>
</a>
</g>
</g>
<!-- Node8&#45;&gt;Node13 -->
<g id="edge13_Node000008_Node000013" class="edge">
<title>Node8&#45;&gt;Node13</title>
<g id="a_edge13_Node000008_Node000013"><a xlink:title=" ">
<path fill="none" stroke="#63b8ff" d="M342.5,-109.75C342.5,-102.8 342.5,-92.85 342.5,-84.13"/>
<polygon fill="#63b8ff" stroke="#63b8ff" points="346,-84.09 342.5,-74.09 339,-84.09 346,-84.09"/>
</a>
</g>
</g>
</g>
</svg>
