<?xml version="1.0" encoding="UTF-8" standalone="no"?>
<!DOCTYPE svg PUBLIC "-//W3C//DTD SVG 1.1//EN"
 "http://www.w3.org/Graphics/SVG/1.1/DTD/svg11.dtd">
<!-- Generated by graphviz version 2.43.0 (0)
 -->
<!-- Title: test/planetest/main.cc Pages: 1 -->
<svg width="2388pt" height="434pt"
 viewBox="0.00 0.00 2388.27 434.00" xmlns="http://www.w3.org/2000/svg" xmlns:xlink="http://www.w3.org/1999/xlink">
<g id="graph0" class="graph" transform="scale(1 1) rotate(0) translate(4 430)">
<title>test/planetest/main.cc</title>
<!-- Node1 -->
<g id="Node000001" class="node">
<title>Node1</title>
<g id="a_Node000001"><a xlink:title=" ">
<polygon fill="#999999" stroke="#666666" points="390.27,-426 265.27,-426 265.27,-407 390.27,-407 390.27,-426"/>
<text text-anchor="middle" x="327.77" y="-414" font-family="Helvetica,sans-Serif" font-size="10.00">test/planetest/main.cc</text>
</a>
</g>
</g>
<!-- Node2 -->
<g id="Node000002" class="node">
<title>Node2</title>
<g id="a_Node000002"><a xlink:href="astaroth_8h.html" target="_top" xlink:title=" ">
<polygon fill="white" stroke="#666666" points="696.77,-316 630.77,-316 630.77,-297 696.77,-297 696.77,-316"/>
<text text-anchor="middle" x="663.77" y="-304" font-family="Helvetica,sans-Serif" font-size="10.00">astaroth.h</text>
</a>
</g>
</g>
<!-- Node1&#45;&gt;Node2 -->
<g id="edge1_Node000001_Node000002" class="edge">
<title>Node1&#45;&gt;Node2</title>
<g id="a_edge1_Node000001_Node000002"><a xlink:title=" ">
<path fill="none" stroke="#63b8ff" d="M354.41,-406.94C414.21,-387.72 559.15,-341.13 627.26,-319.24"/>
<polygon fill="#63b8ff" stroke="#63b8ff" points="628.67,-322.46 637.12,-316.07 626.53,-315.79 628.67,-322.46"/>
</a>
</g>
</g>
<!-- Node19 -->
<g id="Node000019" class="node">
<title>Node19</title>
<g id="a_Node000019"><a xlink:href="errchk_8h.html" target="_top" xlink:title="Brief info.">
<polygon fill="white" stroke="#666666" points="160.77,-134.5 104.77,-134.5 104.77,-115.5 160.77,-115.5 160.77,-134.5"/>
<text text-anchor="middle" x="132.77" y="-122.5" font-family="Helvetica,sans-Serif" font-size="10.00">errchk.h</text>
</a>
</g>
</g>
<!-- Node1&#45;&gt;Node19 -->
<g id="edge62_Node000001_Node000019" class="edge">
<title>Node1&#45;&gt;Node19</title>
<g id="a_edge62_Node000001_Node000019"><a xlink:title=" ">
<path fill="none" stroke="#63b8ff" d="M265.1,-407.78C170.15,-394.32 0.77,-362.58 0.77,-307.5 0.77,-307.5 0.77,-307.5 0.77,-250.5 0.77,-216.33 -2.3,-202.09 19.77,-176 38.76,-153.54 69.82,-140.8 94.58,-133.8"/>
<polygon fill="#63b8ff" stroke="#63b8ff" points="95.61,-137.15 104.4,-131.23 93.84,-130.38 95.61,-137.15"/>
</a>
</g>
</g>
<!-- Node42 -->
<g id="Node000042" class="node">
<title>Node42</title>
<g id="a_Node000042"><a xlink:title=" ">
<polygon fill="#e0e0e0" stroke="#999999" points="160.27,-206 29.27,-206 29.27,-176 160.27,-176 160.27,-206"/>
<text text-anchor="start" x="37.27" y="-194" font-family="Helvetica,sans-Serif" font-size="10.00">user_builtin_non_scalar</text>
<text text-anchor="middle" x="94.77" y="-183" font-family="Helvetica,sans-Serif" font-size="10.00">_constants.h</text>
</a>
</g>
</g>
<!-- Node1&#45;&gt;Node42 -->
<g id="edge63_Node000001_Node000042" class="edge">
<title>Node1&#45;&gt;Node42</title>
<g id="a_edge63_Node000001_Node000042"><a xlink:title=" ">
<path fill="none" stroke="#63b8ff" d="M298.16,-406.96C244.3,-389.64 131.64,-344.71 85.77,-261 78.27,-247.32 80.62,-229.89 84.8,-215.97"/>
<polygon fill="#63b8ff" stroke="#63b8ff" points="88.24,-216.73 88.21,-206.14 81.63,-214.44 88.24,-216.73"/>
</a>
</g>
</g>
<!-- Node55 -->
<g id="Node000055" class="node">
<title>Node55</title>
<g id="a_Node000055"><a xlink:href="astaroth__utils_8h.html" target="_top" xlink:title="Functions for loading and updating AcMeshInfo.">
<polygon fill="white" stroke="#666666" points="748.77,-371 656.77,-371 656.77,-352 748.77,-352 748.77,-371"/>
<text text-anchor="middle" x="702.77" y="-359" font-family="Helvetica,sans-Serif" font-size="10.00">astaroth_utils.h</text>
</a>
</g>
</g>
<!-- Node1&#45;&gt;Node55 -->
<g id="edge58_Node000001_Node000055" class="edge">
<title>Node1&#45;&gt;Node55</title>
<g id="a_edge58_Node000001_Node000055"><a xlink:title=" ">
<path fill="none" stroke="#63b8ff" d="M388.02,-406.98C459.21,-396.92 576.74,-380.31 646.25,-370.49"/>
<polygon fill="#63b8ff" stroke="#63b8ff" points="647.16,-373.89 656.57,-369.03 646.18,-366.96 647.16,-373.89"/>
</a>
</g>
</g>
<!-- Node3 -->
<g id="Node000003" class="node">
<title>Node3</title>
<g id="a_Node000003"><a xlink:href="astaroth__base_8h.html" target="_top" xlink:title=" ">
<polygon fill="white" stroke="#666666" points="600.27,-261 505.27,-261 505.27,-242 600.27,-242 600.27,-261"/>
<text text-anchor="middle" x="552.77" y="-249" font-family="Helvetica,sans-Serif" font-size="10.00">astaroth_base.h</text>
</a>
</g>
</g>
<!-- Node2&#45;&gt;Node3 -->
<g id="edge2_Node000002_Node000003" class="edge">
<title>Node2&#45;&gt;Node3</title>
<g id="a_edge2_Node000002_Node000003"><a xlink:title=" ">
<path fill="none" stroke="#63b8ff" d="M645.93,-296.98C628.16,-288.5 600.62,-275.35 580.09,-265.54"/>
<polygon fill="#63b8ff" stroke="#63b8ff" points="581.46,-262.32 570.92,-261.17 578.44,-268.64 581.46,-262.32"/>
</a>
</g>
</g>
<!-- Node43 -->
<g id="Node000043" class="node">
<title>Node43</title>
<g id="a_Node000043"><a xlink:href="astaroth__grid_8h.html" target="_top" xlink:title=" ">
<polygon fill="white" stroke="#666666" points="708.77,-261 618.77,-261 618.77,-242 708.77,-242 708.77,-261"/>
<text text-anchor="middle" x="663.77" y="-249" font-family="Helvetica,sans-Serif" font-size="10.00">astaroth_grid.h</text>
</a>
</g>
</g>
<!-- Node2&#45;&gt;Node43 -->
<g id="edge46_Node000002_Node000043" class="edge">
<title>Node2&#45;&gt;Node43</title>
<g id="a_edge46_Node000002_Node000043"><a xlink:title=" ">
<path fill="none" stroke="#63b8ff" d="M663.77,-296.75C663.77,-289.8 663.77,-279.85 663.77,-271.13"/>
<polygon fill="#63b8ff" stroke="#63b8ff" points="667.27,-271.09 663.77,-261.09 660.27,-271.09 667.27,-271.09"/>
</a>
</g>
</g>
<!-- Node44 -->
<g id="Node000044" class="node">
<title>Node44</title>
<g id="a_Node000044"><a xlink:href="astaroth__node_8h.html" target="_top" xlink:title=" ">
<polygon fill="white" stroke="#666666" points="944.27,-261 849.27,-261 849.27,-242 944.27,-242 944.27,-261"/>
<text text-anchor="middle" x="896.77" y="-249" font-family="Helvetica,sans-Serif" font-size="10.00">astaroth_node.h</text>
</a>
</g>
</g>
<!-- Node2&#45;&gt;Node44 -->
<g id="edge47_Node000002_Node000044" class="edge">
<title>Node2&#45;&gt;Node44</title>
<g id="a_edge47_Node000002_Node000044"><a xlink:title=" ">
<path fill="none" stroke="#63b8ff" d="M697.15,-297.91C737.04,-288.83 804.06,-273.59 849.32,-263.29"/>
<polygon fill="#63b8ff" stroke="#63b8ff" points="850.22,-266.68 859.2,-261.05 848.67,-259.85 850.22,-266.68"/>
</a>
</g>
</g>
<!-- Node45 -->
<g id="Node000045" class="node">
<title>Node45</title>
<g id="a_Node000045"><a xlink:href="astaroth__device_8h.html" target="_top" xlink:title=" ">
<polygon fill="white" stroke="#666666" points="830.77,-261 726.77,-261 726.77,-242 830.77,-242 830.77,-261"/>
<text text-anchor="middle" x="778.77" y="-249" font-family="Helvetica,sans-Serif" font-size="10.00">astaroth_device.h</text>
</a>
</g>
</g>
<!-- Node2&#45;&gt;Node45 -->
<g id="edge48_Node000002_Node000045" class="edge">
<title>Node2&#45;&gt;Node45</title>
<g id="a_edge48_Node000002_Node000045"><a xlink:title=" ">
<path fill="none" stroke="#63b8ff" d="M682.24,-296.98C700.74,-288.46 729.45,-275.23 750.75,-265.41"/>
<polygon fill="#63b8ff" stroke="#63b8ff" points="752.34,-268.53 759.95,-261.17 749.41,-262.18 752.34,-268.53"/>
</a>
</g>
</g>
<!-- Node48 -->
<g id="Node000048" class="node">
<title>Node48</title>
<g id="a_Node000048"><a xlink:href="astaroth__legacy_8h.html" target="_top" xlink:title=" ">
<polygon fill="white" stroke="#666666" points="1064.77,-261 962.77,-261 962.77,-242 1064.77,-242 1064.77,-261"/>
<text text-anchor="middle" x="1013.77" y="-249" font-family="Helvetica,sans-Serif" font-size="10.00">astaroth_legacy.h</text>
</a>
</g>
</g>
<!-- Node2&#45;&gt;Node48 -->
<g id="edge51_Node000002_Node000048" class="edge">
<title>Node2&#45;&gt;Node48</title>
<g id="a_edge51_Node000002_Node000048"><a xlink:title=" ">
<path fill="none" stroke="#63b8ff" d="M697.2,-298.56C700.1,-298.01 702.98,-297.48 705.77,-297 717.8,-294.91 866.53,-273.57 952.82,-261.22"/>
<polygon fill="#63b8ff" stroke="#63b8ff" points="953.36,-264.67 962.76,-259.79 952.37,-257.74 953.36,-264.67"/>
</a>
</g>
</g>
<!-- Node49 -->
<g id="Node000049" class="node">
<title>Node49</title>
<g id="a_Node000049"><a xlink:title=" ">
<polygon fill="#e0e0e0" stroke="#999999" points="1222.27,-261 1083.27,-261 1083.27,-242 1222.27,-242 1222.27,-261"/>
<text text-anchor="middle" x="1152.77" y="-249" font-family="Helvetica,sans-Serif" font-size="10.00">device_set_input_decls.h</text>
</a>
</g>
</g>
<!-- Node2&#45;&gt;Node49 -->
<g id="edge52_Node000002_Node000049" class="edge">
<title>Node2&#45;&gt;Node49</title>
<g id="a_edge52_Node000002_Node000049"><a xlink:title=" ">
<path fill="none" stroke="#63b8ff" d="M697.18,-298.42C700.08,-297.9 702.97,-297.42 705.77,-297 865.12,-273.14 908.6,-277.6 1073.01,-261.06"/>
<polygon fill="#63b8ff" stroke="#63b8ff" points="1073.39,-264.54 1082.98,-260.05 1072.68,-257.58 1073.39,-264.54"/>
</a>
</g>
</g>
<!-- Node50 -->
<g id="Node000050" class="node">
<title>Node50</title>
<g id="a_Node000050"><a xlink:title=" ">
<polygon fill="#e0e0e0" stroke="#999999" points="1386.77,-261 1240.77,-261 1240.77,-242 1386.77,-242 1386.77,-261"/>
<text text-anchor="middle" x="1313.77" y="-249" font-family="Helvetica,sans-Serif" font-size="10.00">device_get_output_decls.h</text>
</a>
</g>
</g>
<!-- Node2&#45;&gt;Node50 -->
<g id="edge53_Node000002_Node000050" class="edge">
<title>Node2&#45;&gt;Node50</title>
<g id="a_edge53_Node000002_Node000050"><a xlink:title=" ">
<path fill="none" stroke="#63b8ff" d="M697.17,-298.33C700.07,-297.83 702.96,-297.38 705.77,-297 934.7,-266.14 996.56,-280.66 1230.28,-261.09"/>
<polygon fill="#63b8ff" stroke="#63b8ff" points="1230.79,-264.56 1240.46,-260.23 1230.2,-257.59 1230.79,-264.56"/>
</a>
</g>
</g>
<!-- Node51 -->
<g id="Node000051" class="node">
<title>Node51</title>
<g id="a_Node000051"><a xlink:title=" ">
<polygon fill="#e0e0e0" stroke="#999999" points="1544.77,-261 1404.77,-261 1404.77,-242 1544.77,-242 1544.77,-261"/>
<text text-anchor="middle" x="1474.77" y="-249" font-family="Helvetica,sans-Serif" font-size="10.00">device_get_input_decls.h</text>
</a>
</g>
</g>
<!-- Node2&#45;&gt;Node51 -->
<g id="edge54_Node000002_Node000051" class="edge">
<title>Node2&#45;&gt;Node51</title>
<g id="a_edge54_Node000002_Node000051"><a xlink:title=" ">
<path fill="none" stroke="#63b8ff" d="M697.16,-298.28C700.06,-297.79 702.96,-297.35 705.77,-297 1007.15,-258.85 1087.93,-284.86 1394.51,-261.05"/>
<polygon fill="#63b8ff" stroke="#63b8ff" points="1394.88,-264.53 1404.57,-260.26 1394.33,-257.55 1394.88,-264.53"/>
</a>
</g>
</g>
<!-- Node52 -->
<g id="Node000052" class="node">
<title>Node52</title>
<g id="a_Node000052"><a xlink:title=" ">
<polygon fill="#e0e0e0" stroke="#999999" points="224.77,-261 94.77,-261 94.77,-242 224.77,-242 224.77,-261"/>
<text text-anchor="middle" x="159.77" y="-249" font-family="Helvetica,sans-Serif" font-size="10.00">get_vtxbufs_declares.h</text>
</a>
</g>
</g>
<!-- Node2&#45;&gt;Node52 -->
<g id="edge55_Node000002_Node000052" class="edge">
<title>Node2&#45;&gt;Node52</title>
<g id="a_edge55_Node000002_Node000052"><a xlink:title=" ">
<path fill="none" stroke="#63b8ff" d="M630.57,-302.19C559.93,-295.13 389.22,-277.91 235.25,-261.15"/>
<polygon fill="#63b8ff" stroke="#63b8ff" points="235.45,-257.65 225.13,-260.05 234.69,-264.61 235.45,-257.65"/>
</a>
</g>
</g>
<!-- Node53 -->
<g id="Node000053" class="node">
<title>Node53</title>
<g id="a_Node000053"><a xlink:href="astaroth__runtime__compilation_8h.html" target="_top" xlink:title=" ">
<polygon fill="white" stroke="#666666" points="416.27,-261 243.27,-261 243.27,-242 416.27,-242 416.27,-261"/>
<text text-anchor="middle" x="329.77" y="-249" font-family="Helvetica,sans-Serif" font-size="10.00">astaroth_runtime_compilation.h</text>
</a>
</g>
</g>
<!-- Node2&#45;&gt;Node53 -->
<g id="edge56_Node000002_Node000053" class="edge">
<title>Node2&#45;&gt;Node53</title>
<g id="a_edge56_Node000002_Node000053"><a xlink:title=" ">
<path fill="none" stroke="#63b8ff" d="M630.52,-300.22C575.4,-291.48 464.17,-273.83 393.52,-262.62"/>
<polygon fill="#63b8ff" stroke="#63b8ff" points="393.82,-259.12 383.4,-261.01 392.73,-266.03 393.82,-259.12"/>
</a>
</g>
</g>
<!-- Node54 -->
<g id="Node000054" class="node">
<title>Node54</title>
<g id="a_Node000054"><a xlink:title=" ">
<polygon fill="#e0e0e0" stroke="#999999" points="487.27,-261 434.27,-261 434.27,-242 487.27,-242 487.27,-261"/>
<text text-anchor="middle" x="460.77" y="-249" font-family="Helvetica,sans-Serif" font-size="10.00">string.h</text>
</a>
</g>
</g>
<!-- Node2&#45;&gt;Node54 -->
<g id="edge57_Node000002_Node000054" class="edge">
<title>Node2&#45;&gt;Node54</title>
<g id="a_edge57_Node000002_Node000054"><a xlink:title=" ">
<path fill="none" stroke="#63b8ff" d="M631.15,-296.98C594.68,-287.46 535.74,-272.08 497.63,-262.12"/>
<polygon fill="#63b8ff" stroke="#63b8ff" points="498.03,-258.61 487.47,-259.47 496.26,-265.38 498.03,-258.61"/>
</a>
</g>
</g>
<!-- Node4 -->
<g id="Node000004" class="node">
<title>Node4</title>
<g id="a_Node000004"><a xlink:title=" ">
<polygon fill="#e0e0e0" stroke="#999999" points="338.77,-74 276.77,-74 276.77,-55 338.77,-55 338.77,-74"/>
<text text-anchor="middle" x="307.77" y="-62" font-family="Helvetica,sans-Serif" font-size="10.00">stdbool.h</text>
</a>
</g>
</g>
<!-- Node3&#45;&gt;Node4 -->
<g id="edge3_Node000003_Node000004" class="edge">
<title>Node3&#45;&gt;Node4</title>
<g id="a_edge3_Node000003_Node000004"><a xlink:title=" ">
<path fill="none" stroke="#63b8ff" d="M505.05,-242.43C418.76,-226.73 242.51,-189.28 207.77,-140 200.08,-129.1 200.5,-121.18 207.77,-110 215.12,-98.67 245.14,-86.21 270.38,-77.36"/>
<polygon fill="#63b8ff" stroke="#63b8ff" points="271.78,-80.58 280.12,-74.04 269.52,-73.95 271.78,-80.58"/>
</a>
</g>
</g>
<!-- Node5 -->
<g id="Node000005" class="node">
<title>Node5</title>
<g id="a_Node000005"><a xlink:href="acc__runtime_8h.html" target="_top" xlink:title=" ">
<polygon fill="#fff0f0" stroke="red" points="1261.77,-200.5 1175.77,-200.5 1175.77,-181.5 1261.77,-181.5 1261.77,-200.5"/>
<text text-anchor="middle" x="1218.77" y="-188.5" font-family="Helvetica,sans-Serif" font-size="10.00">acc_runtime.h</text>
</a>
</g>
</g>
<!-- Node3&#45;&gt;Node5 -->
<g id="edge4_Node000003_Node000005" class="edge">
<title>Node3&#45;&gt;Node5</title>
<g id="a_edge4_Node000003_Node000005"><a xlink:title=" ">
<path fill="none" stroke="#63b8ff" d="M600.32,-243.17C603.51,-242.75 606.69,-242.36 609.77,-242 814.51,-218.36 1059.24,-201.8 1165.34,-195.19"/>
<polygon fill="#63b8ff" stroke="#63b8ff" points="1165.71,-198.68 1175.47,-194.57 1165.28,-191.69 1165.71,-198.68"/>
</a>
</g>
</g>
<!-- Node25 -->
<g id="Node000025" class="node">
<title>Node25</title>
<g id="a_Node000025"><a xlink:title=" ">
<polygon fill="#e0e0e0" stroke="#999999" points="356.27,-134.5 217.27,-134.5 217.27,-115.5 356.27,-115.5 356.27,-134.5"/>
<text text-anchor="middle" x="286.77" y="-122.5" font-family="Helvetica,sans-Serif" font-size="10.00">user_built&#45;in_constants.h</text>
</a>
</g>
</g>
<!-- Node3&#45;&gt;Node25 -->
<g id="edge44_Node000003_Node000025" class="edge">
<title>Node3&#45;&gt;Node25</title>
<g id="a_edge44_Node000003_Node000025"><a xlink:title=" ">
<path fill="none" stroke="#63b8ff" d="M534.48,-241.94C488.74,-220.53 369.1,-164.53 314.57,-139.01"/>
<polygon fill="#63b8ff" stroke="#63b8ff" points="315.72,-135.69 305.18,-134.62 312.75,-142.03 315.72,-135.69"/>
</a>
</g>
</g>
<!-- Node3&#45;&gt;Node42 -->
<g id="edge45_Node000003_Node000042" class="edge">
<title>Node3&#45;&gt;Node42</title>
<g id="a_edge45_Node000003_Node000042"><a xlink:title=" ">
<path fill="none" stroke="#63b8ff" d="M505.2,-243.27C502.01,-242.83 498.84,-242.4 495.77,-242 353.41,-223.41 316.87,-226.38 174.77,-206 173.47,-205.81 172.16,-205.62 170.85,-205.43"/>
<polygon fill="#63b8ff" stroke="#63b8ff" points="171.05,-201.92 160.64,-203.86 169.99,-208.84 171.05,-201.92"/>
</a>
</g>
</g>
<!-- Node5&#45;&gt;Node4 -->
<g id="edge6_Node000005_Node000004" class="edge">
<title>Node5&#45;&gt;Node4</title>
<g id="a_edge6_Node000005_Node000004"><a xlink:title=" ">
<path fill="none" stroke="#63b8ff" d="M1247.45,-181.48C1255.28,-179.41 1263.8,-177.4 1271.77,-176 1316.05,-168.23 1644.42,-173.17 1674.77,-140 1683.77,-130.16 1684.04,-119.58 1674.77,-110 1668.85,-103.89 577.42,-73.04 349.27,-66.66"/>
<polygon fill="#63b8ff" stroke="#63b8ff" points="349.16,-63.15 339.07,-66.37 348.97,-70.15 349.16,-63.15"/>
</a>
</g>
</g>
<!-- Node6 -->
<g id="Node000006" class="node">
<title>Node6</title>
<g id="a_Node000006"><a xlink:title=" ">
<polygon fill="#e0e0e0" stroke="#999999" points="706.77,-74 656.77,-74 656.77,-55 706.77,-55 706.77,-74"/>
<text text-anchor="middle" x="681.77" y="-62" font-family="Helvetica,sans-Serif" font-size="10.00">stdio.h</text>
</a>
</g>
</g>
<!-- Node5&#45;&gt;Node6 -->
<g id="edge5_Node000005_Node000006" class="edge">
<title>Node5&#45;&gt;Node6</title>
<g id="a_edge5_Node000005_Node000006"><a xlink:title=" ">
<path fill="none" stroke="#63b8ff" d="M1247.45,-181.44C1255.27,-179.38 1263.79,-177.37 1271.77,-176 1319.67,-167.76 1674.84,-175.76 1707.77,-140 1716.8,-130.19 1716.99,-119.63 1707.77,-110 1672.8,-73.48 894.05,-66.74 717.25,-65.68"/>
<polygon fill="#63b8ff" stroke="#63b8ff" points="717.2,-62.18 707.18,-65.62 717.16,-69.18 717.2,-62.18"/>
</a>
</g>
</g>
<!-- Node7 -->
<g id="Node000007" class="node">
<title>Node7</title>
<g id="a_Node000007"><a xlink:href="device__headers_8h.html" target="_top" xlink:title=" ">
<polygon fill="white" stroke="#666666" points="2050.77,-74 1948.77,-74 1948.77,-55 2050.77,-55 2050.77,-74"/>
<text text-anchor="middle" x="1999.77" y="-62" font-family="Helvetica,sans-Serif" font-size="10.00">device_headers.h</text>
</a>
</g>
</g>
<!-- Node5&#45;&gt;Node7 -->
<g id="edge7_Node000005_Node000007" class="edge">
<title>Node5&#45;&gt;Node7</title>
<g id="a_edge7_Node000005_Node000007"><a xlink:title=" ">
<path fill="none" stroke="#63b8ff" d="M1246.59,-181.49C1254.64,-179.34 1263.49,-177.29 1271.77,-176 1350.37,-163.78 1927.18,-192.7 1986.77,-140 2002.26,-126.3 2003.61,-101.26 2002.35,-84.02"/>
<polygon fill="#63b8ff" stroke="#63b8ff" points="2005.83,-83.58 2001.28,-74.01 1998.87,-84.33 2005.83,-83.58"/>
</a>
</g>
</g>
<!-- Node10 -->
<g id="Node000010" class="node">
<title>Node10</title>
<g id="a_Node000010"><a xlink:title=" ">
<polygon fill="#e0e0e0" stroke="#999999" points="1822.27,-74 1727.27,-74 1727.27,-55 1822.27,-55 1822.27,-74"/>
<text text-anchor="middle" x="1774.77" y="-62" font-family="Helvetica,sans-Serif" font-size="10.00">builtin_enums.h</text>
</a>
</g>
</g>
<!-- Node5&#45;&gt;Node10 -->
<g id="edge10_Node000005_Node000010" class="edge">
<title>Node5&#45;&gt;Node10</title>
<g id="a_edge10_Node000005_Node000010"><a xlink:title=" ">
<path fill="none" stroke="#63b8ff" d="M1247.17,-181.5C1255.07,-179.41 1263.7,-177.37 1271.77,-176 1371.32,-159.04 1637.61,-191.01 1724.77,-140 1746.14,-127.49 1760.25,-101.78 1767.88,-84.09"/>
<polygon fill="#63b8ff" stroke="#63b8ff" points="1771.33,-84.89 1771.79,-74.31 1764.83,-82.29 1771.33,-84.89"/>
</a>
</g>
</g>
<!-- Node11 -->
<g id="Node000011" class="node">
<title>Node11</title>
<g id="a_Node000011"><a xlink:href="datatypes_8h.html" target="_top" xlink:title=" ">
<polygon fill="#fff0f0" stroke="red" points="1977.77,-134.5 1903.77,-134.5 1903.77,-115.5 1977.77,-115.5 1977.77,-134.5"/>
<text text-anchor="middle" x="1940.77" y="-122.5" font-family="Helvetica,sans-Serif" font-size="10.00">datatypes.h</text>
</a>
</g>
</g>
<!-- Node5&#45;&gt;Node11 -->
<g id="edge11_Node000005_Node000011" class="edge">
<title>Node5&#45;&gt;Node11</title>
<g id="a_edge11_Node000005_Node000011"><a xlink:title=" ">
<path fill="none" stroke="#63b8ff" d="M1246.87,-181.45C1254.85,-179.34 1263.59,-177.3 1271.77,-176 1545.66,-132.36 1621.73,-188.72 1894.77,-140 1898.72,-139.29 1902.81,-138.36 1906.86,-137.31"/>
<polygon fill="#63b8ff" stroke="#63b8ff" points="1908.02,-140.61 1916.68,-134.51 1906.1,-133.88 1908.02,-140.61"/>
</a>
</g>
</g>
<!-- Node5&#45;&gt;Node19 -->
<g id="edge19_Node000005_Node000019" class="edge">
<title>Node5&#45;&gt;Node19</title>
<g id="a_edge19_Node000005_Node000019"><a xlink:title=" ">
<path fill="none" stroke="#63b8ff" d="M1175.73,-189.95C1035.74,-189.33 580.83,-183.84 207.77,-140 195.76,-138.59 182.78,-136.4 171.05,-134.18"/>
<polygon fill="#63b8ff" stroke="#63b8ff" points="171.61,-130.72 161.12,-132.23 170.26,-137.59 171.61,-130.72"/>
</a>
</g>
</g>
<!-- Node23 -->
<g id="Node000023" class="node">
<title>Node23</title>
<g id="a_Node000023"><a xlink:title=" ">
<polygon fill="#e0e0e0" stroke="#999999" points="1885.27,-134.5 1798.27,-134.5 1798.27,-115.5 1885.27,-115.5 1885.27,-134.5"/>
<text text-anchor="middle" x="1841.77" y="-122.5" font-family="Helvetica,sans-Serif" font-size="10.00">user_defines.h</text>
</a>
</g>
</g>
<!-- Node5&#45;&gt;Node23 -->
<g id="edge28_Node000005_Node000023" class="edge">
<title>Node5&#45;&gt;Node23</title>
<g id="a_edge28_Node000005_Node000023"><a xlink:title=" ">
<path fill="none" stroke="#63b8ff" d="M1247.16,-181.45C1255.06,-179.36 1263.69,-177.34 1271.77,-176 1496.81,-138.71 1558.33,-174.88 1783.77,-140 1789.27,-139.15 1795.02,-138.04 1800.67,-136.81"/>
<polygon fill="#63b8ff" stroke="#63b8ff" points="1801.69,-140.17 1810.65,-134.52 1800.12,-133.35 1801.69,-140.17"/>
</a>
</g>
</g>
<!-- Node24 -->
<g id="Node000024" class="node">
<title>Node24</title>
<g id="a_Node000024"><a xlink:title=" ">
<polygon fill="#e0e0e0" stroke="#999999" points="2119.77,-134.5 2033.77,-134.5 2033.77,-115.5 2119.77,-115.5 2119.77,-134.5"/>
<text text-anchor="middle" x="2076.77" y="-122.5" font-family="Helvetica,sans-Serif" font-size="10.00">profiles_info.h</text>
</a>
</g>
</g>
<!-- Node5&#45;&gt;Node24 -->
<g id="edge29_Node000005_Node000024" class="edge">
<title>Node5&#45;&gt;Node24</title>
<g id="a_edge29_Node000005_Node000024"><a xlink:title=" ">
<path fill="none" stroke="#63b8ff" d="M1246.59,-181.48C1254.64,-179.33 1263.49,-177.28 1271.77,-176 1600.7,-125.22 1690.4,-187.92 2019.77,-140 2025.31,-139.19 2031.11,-138.09 2036.79,-136.85"/>
<polygon fill="#63b8ff" stroke="#63b8ff" points="2037.86,-140.19 2046.81,-134.51 2036.27,-133.37 2037.86,-140.19"/>
</a>
</g>
</g>
<!-- Node5&#45;&gt;Node25 -->
<g id="edge30_Node000005_Node000025" class="edge">
<title>Node5&#45;&gt;Node25</title>
<g id="a_edge30_Node000005_Node000025"><a xlink:title=" ">
<path fill="none" stroke="#63b8ff" d="M1175.51,-189.29C1049.84,-186.82 674.11,-176.69 364.77,-140 356.42,-139.01 347.61,-137.7 339.04,-136.27"/>
<polygon fill="#63b8ff" stroke="#63b8ff" points="339.59,-132.81 329.13,-134.55 338.39,-139.71 339.59,-132.81"/>
</a>
</g>
</g>
<!-- Node26 -->
<g id="Node000026" class="node">
<title>Node26</title>
<g id="a_Node000026"><a xlink:href="func__attributes_8h.html" target="_top" xlink:title=" ">
<polygon fill="white" stroke="#666666" points="2237.27,-134.5 2138.27,-134.5 2138.27,-115.5 2237.27,-115.5 2237.27,-134.5"/>
<text text-anchor="middle" x="2187.77" y="-122.5" font-family="Helvetica,sans-Serif" font-size="10.00">func_attributes.h</text>
</a>
</g>
</g>
<!-- Node5&#45;&gt;Node26 -->
<g id="edge31_Node000005_Node000026" class="edge">
<title>Node5&#45;&gt;Node26</title>
<g id="a_edge31_Node000005_Node000026"><a xlink:title=" ">
<path fill="none" stroke="#63b8ff" d="M1246.59,-181.44C1254.63,-179.3 1263.49,-177.25 1271.77,-176 1648.7,-118.99 1751.14,-192.25 2128.77,-140 2134.65,-139.19 2140.8,-138.05 2146.81,-136.78"/>
<polygon fill="#63b8ff" stroke="#63b8ff" points="2147.76,-140.15 2156.74,-134.53 2146.22,-133.32 2147.76,-140.15"/>
</a>
</g>
</g>
<!-- Node27 -->
<g id="Node000027" class="node">
<title>Node27</title>
<g id="a_Node000027"><a xlink:title=" ">
<polygon fill="#e0e0e0" stroke="#999999" points="2380.27,-134.5 2255.27,-134.5 2255.27,-115.5 2380.27,-115.5 2380.27,-134.5"/>
<text text-anchor="middle" x="2317.77" y="-122.5" font-family="Helvetica,sans-Serif" font-size="10.00">user_input_typedefs.h</text>
</a>
</g>
</g>
<!-- Node5&#45;&gt;Node27 -->
<g id="edge32_Node000005_Node000027" class="edge">
<title>Node5&#45;&gt;Node27</title>
<g id="a_edge32_Node000005_Node000027"><a xlink:title=" ">
<path fill="none" stroke="#63b8ff" d="M1246.31,-181.49C1254.43,-179.32 1263.39,-177.25 1271.77,-176 1700.68,-112.24 1816.04,-190.1 2246.77,-140 2254.49,-139.1 2262.62,-137.82 2270.52,-136.39"/>
<polygon fill="#63b8ff" stroke="#63b8ff" points="2271.19,-139.83 2280.36,-134.52 2269.88,-132.95 2271.19,-139.83"/>
</a>
</g>
</g>
<!-- Node28 -->
<g id="Node000028" class="node">
<title>Node28</title>
<g id="a_Node000028"><a xlink:title=" ">
<polygon fill="#e0e0e0" stroke="#999999" points="457.27,-134.5 374.27,-134.5 374.27,-115.5 457.27,-115.5 457.27,-134.5"/>
<text text-anchor="middle" x="415.77" y="-122.5" font-family="Helvetica,sans-Serif" font-size="10.00">output_decl.h</text>
</a>
</g>
</g>
<!-- Node5&#45;&gt;Node28 -->
<g id="edge33_Node000005_Node000028" class="edge">
<title>Node5&#45;&gt;Node28</title>
<g id="a_edge33_Node000005_Node000028"><a xlink:title=" ">
<path fill="none" stroke="#63b8ff" d="M1175.6,-190.16C1059.89,-189.93 733.52,-185.01 466.77,-140 462.21,-139.23 457.48,-138.22 452.81,-137.1"/>
<polygon fill="#63b8ff" stroke="#63b8ff" points="453.36,-133.63 442.8,-134.51 451.6,-140.41 453.36,-133.63"/>
</a>
</g>
</g>
<!-- Node29 -->
<g id="Node000029" class="node">
<title>Node29</title>
<g id="a_Node000029"><a xlink:title=" ">
<polygon fill="#e0e0e0" stroke="#999999" points="591.77,-134.5 475.77,-134.5 475.77,-115.5 591.77,-115.5 591.77,-134.5"/>
<text text-anchor="middle" x="533.77" y="-122.5" font-family="Helvetica,sans-Serif" font-size="10.00">comp_loaded_decl.h</text>
</a>
</g>
</g>
<!-- Node5&#45;&gt;Node29 -->
<g id="edge34_Node000005_Node000029" class="edge">
<title>Node5&#45;&gt;Node29</title>
<g id="a_edge34_Node000005_Node000029"><a xlink:title=" ">
<path fill="none" stroke="#63b8ff" d="M1175.48,-188.36C1074.4,-184.14 815.17,-170.95 600.77,-140 594.13,-139.04 587.16,-137.83 580.33,-136.51"/>
<polygon fill="#63b8ff" stroke="#63b8ff" points="580.97,-133.07 570.48,-134.54 579.6,-139.93 580.97,-133.07"/>
</a>
</g>
</g>
<!-- Node30 -->
<g id="Node000030" class="node">
<title>Node30</title>
<g id="a_Node000030"><a xlink:title=" ">
<polygon fill="#e0e0e0" stroke="#999999" points="687.77,-134.5 609.77,-134.5 609.77,-115.5 687.77,-115.5 687.77,-134.5"/>
<text text-anchor="middle" x="648.77" y="-122.5" font-family="Helvetica,sans-Serif" font-size="10.00">comp_decl.h</text>
</a>
</g>
</g>
<!-- Node5&#45;&gt;Node30 -->
<g id="edge35_Node000005_Node000030" class="edge">
<title>Node5&#45;&gt;Node30</title>
<g id="a_edge35_Node000005_Node000030"><a xlink:title=" ">
<path fill="none" stroke="#63b8ff" d="M1175.75,-188.62C1085.98,-185.13 872.45,-173.72 696.77,-140 692.8,-139.24 688.7,-138.29 684.63,-137.25"/>
<polygon fill="#63b8ff" stroke="#63b8ff" points="685.28,-133.8 674.71,-134.53 683.42,-140.55 685.28,-133.8"/>
</a>
</g>
</g>
<!-- Node31 -->
<g id="Node000031" class="node">
<title>Node31</title>
<g id="a_Node000031"><a xlink:title=" ">
<polygon fill="#e0e0e0" stroke="#999999" points="813.77,-134.5 705.77,-134.5 705.77,-115.5 813.77,-115.5 813.77,-134.5"/>
<text text-anchor="middle" x="759.77" y="-122.5" font-family="Helvetica,sans-Serif" font-size="10.00">info_loaded_decl.h</text>
</a>
</g>
</g>
<!-- Node5&#45;&gt;Node31 -->
<g id="edge36_Node000005_Node000031" class="edge">
<title>Node5&#45;&gt;Node31</title>
<g id="a_edge36_Node000005_Node000031"><a xlink:title=" ">
<path fill="none" stroke="#63b8ff" d="M1175.5,-185.87C1102.48,-178.6 950.26,-162.17 822.77,-140 817.04,-139 811.04,-137.84 805.13,-136.61"/>
<polygon fill="#63b8ff" stroke="#63b8ff" points="805.81,-133.18 795.3,-134.5 804.35,-140.02 805.81,-133.18"/>
</a>
</g>
</g>
<!-- Node32 -->
<g id="Node000032" class="node">
<title>Node32</title>
<g id="a_Node000032"><a xlink:title=" ">
<polygon fill="#e0e0e0" stroke="#999999" points="971.77,-134.5 831.77,-134.5 831.77,-115.5 971.77,-115.5 971.77,-134.5"/>
<text text-anchor="middle" x="901.77" y="-122.5" font-family="Helvetica,sans-Serif" font-size="10.00">device_mesh_info_decl.h</text>
</a>
</g>
</g>
<!-- Node5&#45;&gt;Node32 -->
<g id="edge37_Node000005_Node000032" class="edge">
<title>Node5&#45;&gt;Node32</title>
<g id="a_edge37_Node000005_Node000032"><a xlink:title=" ">
<path fill="none" stroke="#63b8ff" d="M1176.34,-181.44C1118.81,-169.82 1016.11,-149.09 953.93,-136.53"/>
<polygon fill="#63b8ff" stroke="#63b8ff" points="954.43,-133.06 943.94,-134.51 953.05,-139.92 954.43,-133.06"/>
</a>
</g>
</g>
<!-- Node33 -->
<g id="Node000033" class="node">
<title>Node33</title>
<g id="a_Node000033"><a xlink:title=" ">
<polygon fill="#e0e0e0" stroke="#999999" points="1067.27,-134.5 990.27,-134.5 990.27,-115.5 1067.27,-115.5 1067.27,-134.5"/>
<text text-anchor="middle" x="1028.77" y="-122.5" font-family="Helvetica,sans-Serif" font-size="10.00">array_decl.h</text>
</a>
</g>
</g>
<!-- Node5&#45;&gt;Node33 -->
<g id="edge38_Node000005_Node000033" class="edge">
<title>Node5&#45;&gt;Node33</title>
<g id="a_edge38_Node000005_Node000033"><a xlink:title=" ">
<path fill="none" stroke="#63b8ff" d="M1193.14,-181.37C1159.76,-170.12 1101.25,-150.42 1063.79,-137.8"/>
<polygon fill="#63b8ff" stroke="#63b8ff" points="1064.88,-134.47 1054.29,-134.6 1062.65,-141.11 1064.88,-134.47"/>
</a>
</g>
</g>
<!-- Node34 -->
<g id="Node000034" class="node">
<title>Node34</title>
<g id="a_Node000034"><a xlink:title=" ">
<polygon fill="#e0e0e0" stroke="#999999" points="1161.77,-134.5 1085.77,-134.5 1085.77,-115.5 1161.77,-115.5 1161.77,-134.5"/>
<text text-anchor="middle" x="1123.77" y="-122.5" font-family="Helvetica,sans-Serif" font-size="10.00">input_decl.h</text>
</a>
</g>
</g>
<!-- Node5&#45;&gt;Node34 -->
<g id="edge39_Node000005_Node000034" class="edge">
<title>Node5&#45;&gt;Node34</title>
<g id="a_edge39_Node000005_Node000034"><a xlink:title=" ">
<path fill="none" stroke="#63b8ff" d="M1205.95,-181.37C1190.37,-170.87 1163.84,-153 1145.14,-140.4"/>
<polygon fill="#63b8ff" stroke="#63b8ff" points="1146.93,-137.38 1136.68,-134.7 1143.02,-143.19 1146.93,-137.38"/>
</a>
</g>
</g>
<!-- Node35 -->
<g id="Node000035" class="node">
<title>Node35</title>
<g id="a_Node000035"><a xlink:href="ac__helpers_8h.html" target="_top" xlink:title=" ">
<polygon fill="white" stroke="#666666" points="1257.77,-134.5 1179.77,-134.5 1179.77,-115.5 1257.77,-115.5 1257.77,-134.5"/>
<text text-anchor="middle" x="1218.77" y="-122.5" font-family="Helvetica,sans-Serif" font-size="10.00">ac_helpers.h</text>
</a>
</g>
</g>
<!-- Node5&#45;&gt;Node35 -->
<g id="edge40_Node000005_Node000035" class="edge">
<title>Node5&#45;&gt;Node35</title>
<g id="a_edge40_Node000005_Node000035"><a xlink:title=" ">
<path fill="none" stroke="#63b8ff" d="M1218.77,-181.37C1218.77,-172.16 1218.77,-157.29 1218.77,-145.27"/>
<polygon fill="#63b8ff" stroke="#63b8ff" points="1222.27,-144.91 1218.77,-134.91 1215.27,-144.91 1222.27,-144.91"/>
</a>
</g>
</g>
<!-- Node36 -->
<g id="Node000036" class="node">
<title>Node36</title>
<g id="a_Node000036"><a xlink:title=" ">
<polygon fill="#e0e0e0" stroke="#999999" points="1393.77,-140 1275.77,-140 1275.77,-110 1393.77,-110 1393.77,-140"/>
<text text-anchor="start" x="1283.77" y="-128" font-family="Helvetica,sans-Serif" font-size="10.00">scalar_reduce_buffer</text>
<text text-anchor="middle" x="1334.77" y="-117" font-family="Helvetica,sans-Serif" font-size="10.00">_defs.h</text>
</a>
</g>
</g>
<!-- Node5&#45;&gt;Node36 -->
<g id="edge41_Node000005_Node000036" class="edge">
<title>Node5&#45;&gt;Node36</title>
<g id="a_edge41_Node000005_Node000036"><a xlink:title=" ">
<path fill="none" stroke="#63b8ff" d="M1234.41,-181.37C1251.19,-172.11 1278.35,-157.12 1300.19,-145.07"/>
<polygon fill="#63b8ff" stroke="#63b8ff" points="1302.12,-148.01 1309.18,-140.12 1298.74,-141.88 1302.12,-148.01"/>
</a>
</g>
</g>
<!-- Node37 -->
<g id="Node000037" class="node">
<title>Node37</title>
<g id="a_Node000037"><a xlink:title=" ">
<polygon fill="#e0e0e0" stroke="#999999" points="1535.27,-140 1412.27,-140 1412.27,-110 1535.27,-110 1535.27,-140"/>
<text text-anchor="start" x="1420.27" y="-128" font-family="Helvetica,sans-Serif" font-size="10.00">scalar_reduce_buffers</text>
<text text-anchor="middle" x="1473.77" y="-117" font-family="Helvetica,sans-Serif" font-size="10.00">_in_vba.h</text>
</a>
</g>
</g>
<!-- Node5&#45;&gt;Node37 -->
<g id="edge42_Node000005_Node000037" class="edge">
<title>Node5&#45;&gt;Node37</title>
<g id="a_edge42_Node000005_Node000037"><a xlink:title=" ">
<path fill="none" stroke="#63b8ff" d="M1250.7,-181.48C1257.64,-179.65 1264.94,-177.75 1271.77,-176 1316.45,-164.57 1366.81,-152.1 1406.07,-142.48"/>
<polygon fill="#63b8ff" stroke="#63b8ff" points="1406.92,-145.87 1415.8,-140.09 1405.26,-139.07 1406.92,-145.87"/>
</a>
</g>
</g>
<!-- Node38 -->
<g id="Node000038" class="node">
<title>Node38</title>
<g id="a_Node000038"><a xlink:href="astaroth__analysis_8h.html" target="_top" xlink:title=" ">
<polygon fill="white" stroke="#666666" points="1665.77,-134.5 1553.77,-134.5 1553.77,-115.5 1665.77,-115.5 1665.77,-134.5"/>
<text text-anchor="middle" x="1609.77" y="-122.5" font-family="Helvetica,sans-Serif" font-size="10.00">astaroth_analysis.h</text>
</a>
</g>
</g>
<!-- Node5&#45;&gt;Node38 -->
<g id="edge43_Node000005_Node000038" class="edge">
<title>Node5&#45;&gt;Node38</title>
<g id="a_edge43_Node000005_Node000038"><a xlink:title=" ">
<path fill="none" stroke="#63b8ff" d="M1248.33,-181.48C1255.92,-179.49 1264.11,-177.51 1271.77,-176 1391.84,-152.32 1424.18,-160.9 1544.77,-140 1550.6,-138.99 1556.7,-137.82 1562.72,-136.6"/>
<polygon fill="#63b8ff" stroke="#63b8ff" points="1563.67,-139.98 1572.74,-134.52 1562.24,-133.13 1563.67,-139.98"/>
</a>
</g>
</g>
<!-- Node8 -->
<g id="Node000008" class="node">
<title>Node8</title>
<g id="a_Node000008"><a xlink:title=" ">
<polygon fill="#e0e0e0" stroke="#999999" points="1977.27,-19 1864.27,-19 1864.27,0 1977.27,0 1977.27,-19"/>
<text text-anchor="middle" x="1920.77" y="-7" font-family="Helvetica,sans-Serif" font-size="10.00">cuda_runtime_api.h</text>
</a>
</g>
</g>
<!-- Node7&#45;&gt;Node8 -->
<g id="edge8_Node000007_Node000008" class="edge">
<title>Node7&#45;&gt;Node8</title>
<g id="a_edge8_Node000007_Node000008"><a xlink:title=" ">
<path fill="none" stroke="#63b8ff" d="M1987.07,-54.98C1974.94,-46.84 1956.41,-34.41 1942.02,-24.76"/>
<polygon fill="#63b8ff" stroke="#63b8ff" points="1943.94,-21.84 1933.69,-19.17 1940.04,-27.65 1943.94,-21.84"/>
</a>
</g>
</g>
<!-- Node9 -->
<g id="Node000009" class="node">
<title>Node9</title>
<g id="a_Node000009"><a xlink:title=" ">
<polygon fill="#e0e0e0" stroke="#999999" points="2071.77,-19 1995.77,-19 1995.77,0 2071.77,0 2071.77,-19"/>
<text text-anchor="middle" x="2033.77" y="-7" font-family="Helvetica,sans-Serif" font-size="10.00">cuda_fp16.h</text>
</a>
</g>
</g>
<!-- Node7&#45;&gt;Node9 -->
<g id="edge9_Node000007_Node000009" class="edge">
<title>Node7&#45;&gt;Node9</title>
<g id="a_edge9_Node000007_Node000009"><a xlink:title=" ">
<path fill="none" stroke="#63b8ff" d="M2005.38,-54.75C2010.08,-47.42 2016.94,-36.73 2022.74,-27.7"/>
<polygon fill="#63b8ff" stroke="#63b8ff" points="2025.8,-29.4 2028.26,-19.09 2019.91,-25.62 2025.8,-29.4"/>
</a>
</g>
</g>
<!-- Node11&#45;&gt;Node7 -->
<g id="edge12_Node000011_Node000007" class="edge">
<title>Node11&#45;&gt;Node7</title>
<g id="a_edge12_Node000011_Node000007"><a xlink:title=" ">
<path fill="none" stroke="#63b8ff" d="M1949.47,-115.37C1958.45,-106.47 1972.65,-92.39 1983.68,-81.45"/>
<polygon fill="#63b8ff" stroke="#63b8ff" points="1986.39,-83.69 1991.02,-74.17 1981.46,-78.72 1986.39,-83.69"/>
</a>
</g>
</g>
<!-- Node11&#45;&gt;Node8 -->
<g id="edge13_Node000011_Node000008" class="edge">
<title>Node11&#45;&gt;Node8</title>
<g id="a_edge13_Node000011_Node000008"><a xlink:title=" ">
<path fill="none" stroke="#63b8ff" d="M1939.26,-115.47C1936.05,-97.23 1928.44,-54.07 1924.05,-29.14"/>
<polygon fill="#63b8ff" stroke="#63b8ff" points="1927.47,-28.37 1922.29,-19.13 1920.58,-29.59 1927.47,-28.37"/>
</a>
</g>
</g>
<!-- Node11&#45;&gt;Node10 -->
<g id="edge15_Node000011_Node000010" class="edge">
<title>Node11&#45;&gt;Node10</title>
<g id="a_edge15_Node000011_Node000010"><a xlink:title=" ">
<path fill="none" stroke="#63b8ff" d="M1916.63,-115.49C1888.23,-105.49 1840.89,-88.8 1808.78,-77.49"/>
<polygon fill="#63b8ff" stroke="#63b8ff" points="1809.53,-74.04 1798.93,-74.02 1807.2,-80.64 1809.53,-74.04"/>
</a>
</g>
</g>
<!-- Node15 -->
<g id="Node000015" class="node">
<title>Node15</title>
<g id="a_Node000015"><a xlink:href="acreal_8h.html" target="_top" xlink:title=" ">
<polygon fill="white" stroke="#666666" points="1618.77,-19 1562.77,-19 1562.77,0 1618.77,0 1618.77,-19"/>
<text text-anchor="middle" x="1590.77" y="-7" font-family="Helvetica,sans-Serif" font-size="10.00">acreal.h</text>
</a>
</g>
</g>
<!-- Node11&#45;&gt;Node15 -->
<g id="edge14_Node000011_Node000015" class="edge">
<title>Node11&#45;&gt;Node15</title>
<g id="a_edge14_Node000011_Node000015"><a xlink:title=" ">
<path fill="none" stroke="#63b8ff" d="M1930.37,-115.47C1911.81,-100.69 1871.18,-70.44 1831.77,-55 1763.3,-28.17 1677.45,-17.29 1628.88,-13.04"/>
<polygon fill="#63b8ff" stroke="#63b8ff" points="1629.07,-9.55 1618.81,-12.21 1628.49,-16.52 1629.07,-9.55"/>
</a>
</g>
</g>
<!-- Node17 -->
<g id="Node000017" class="node">
<title>Node17</title>
<g id="a_Node000017"><a xlink:href="host__datatypes_8h.html" target="_top" xlink:title=" ">
<polygon fill="white" stroke="#666666" points="1415.27,-74 1314.27,-74 1314.27,-55 1415.27,-55 1415.27,-74"/>
<text text-anchor="middle" x="1364.77" y="-62" font-family="Helvetica,sans-Serif" font-size="10.00">host_datatypes.h</text>
</a>
</g>
</g>
<!-- Node11&#45;&gt;Node17 -->
<g id="edge16_Node000011_Node000017" class="edge">
<title>Node11&#45;&gt;Node17</title>
<g id="a_edge16_Node000011_Node000017"><a xlink:title=" ">
<path fill="none" stroke="#63b8ff" d="M1916.18,-115.47C1909.32,-113.38 1901.82,-111.35 1894.77,-110 1726.83,-77.77 1524.5,-68.88 1425.43,-66.43"/>
<polygon fill="#63b8ff" stroke="#63b8ff" points="1425.38,-62.93 1415.3,-66.2 1425.22,-69.93 1425.38,-62.93"/>
</a>
</g>
</g>
<!-- Node17&#45;&gt;Node15 -->
<g id="edge17_Node000017_Node000015" class="edge">
<title>Node17&#45;&gt;Node15</title>
<g id="a_edge17_Node000017_Node000015"><a xlink:title=" ">
<path fill="none" stroke="#63b8ff" d="M1401.08,-54.98C1442.69,-45.23 1510.57,-29.31 1552.85,-19.39"/>
<polygon fill="#63b8ff" stroke="#63b8ff" points="1553.82,-22.76 1562.75,-17.07 1552.22,-15.94 1553.82,-22.76"/>
</a>
</g>
</g>
<!-- Node18 -->
<g id="Node000018" class="node">
<title>Node18</title>
<g id="a_Node000018"><a xlink:title=" ">
<polygon fill="#e0e0e0" stroke="#999999" points="954.77,-19 898.77,-19 898.77,0 954.77,0 954.77,-19"/>
<text text-anchor="middle" x="926.77" y="-7" font-family="Helvetica,sans-Serif" font-size="10.00">stddef.h</text>
</a>
</g>
</g>
<!-- Node17&#45;&gt;Node18 -->
<g id="edge18_Node000017_Node000018" class="edge">
<title>Node17&#45;&gt;Node18</title>
<g id="a_edge18_Node000017_Node000018"><a xlink:title=" ">
<path fill="none" stroke="#63b8ff" d="M1314.09,-57.37C1225.41,-46.64 1044,-24.69 964.97,-15.12"/>
<polygon fill="#63b8ff" stroke="#63b8ff" points="965.32,-11.64 954.97,-13.91 964.47,-18.59 965.32,-11.64"/>
</a>
</g>
</g>
<!-- Node19&#45;&gt;Node4 -->
<g id="edge22_Node000019_Node000004" class="edge">
<title>Node19&#45;&gt;Node4</title>
<g id="a_edge22_Node000019_Node000004"><a xlink:title=" ">
<path fill="none" stroke="#63b8ff" d="M158.21,-115.49C188.41,-105.4 238.92,-88.51 272.78,-77.19"/>
<polygon fill="#63b8ff" stroke="#63b8ff" points="273.91,-80.51 282.29,-74.02 271.7,-73.87 273.91,-80.51"/>
</a>
</g>
</g>
<!-- Node19&#45;&gt;Node6 -->
<g id="edge24_Node000019_Node000006" class="edge">
<title>Node19&#45;&gt;Node6</title>
<g id="a_edge24_Node000019_Node000006"><a xlink:title=" ">
<path fill="none" stroke="#63b8ff" d="M160.8,-118.14C174.85,-115.36 192.16,-112.19 207.77,-110 370.96,-87.16 567.46,-72.9 646.4,-67.72"/>
<polygon fill="#63b8ff" stroke="#63b8ff" points="647,-71.18 656.75,-67.04 646.54,-64.2 647,-71.18"/>
</a>
</g>
</g>
<!-- Node19&#45;&gt;Node7 -->
<g id="edge27_Node000019_Node000007" class="edge">
<title>Node19&#45;&gt;Node7</title>
<g id="a_edge27_Node000019_Node000007"><a xlink:title=" ">
<path fill="none" stroke="#63b8ff" d="M161.1,-117.59C175.07,-114.71 192.22,-111.61 207.77,-110 566.82,-72.76 1471.03,-87.12 1831.77,-74 1867.19,-72.71 1906.78,-70.73 1938.63,-69.01"/>
<polygon fill="#63b8ff" stroke="#63b8ff" points="1938.89,-72.5 1948.69,-68.46 1938.51,-65.51 1938.89,-72.5"/>
</a>
</g>
</g>
<!-- Node19&#45;&gt;Node17 -->
<g id="edge21_Node000019_Node000017" class="edge">
<title>Node19&#45;&gt;Node17</title>
<g id="a_edge21_Node000019_Node000017"><a xlink:title=" ">
<path fill="none" stroke="#63b8ff" d="M161.11,-117.7C175.09,-114.85 192.23,-111.74 207.77,-110 423.25,-85.88 1097.2,-70.81 1303.89,-66.67"/>
<polygon fill="#63b8ff" stroke="#63b8ff" points="1304.02,-70.16 1313.95,-66.47 1303.88,-63.17 1304.02,-70.16"/>
</a>
</g>
</g>
<!-- Node19&#45;&gt;Node18 -->
<g id="edge20_Node000019_Node000018" class="edge">
<title>Node19&#45;&gt;Node18</title>
<g id="a_edge20_Node000019_Node000018"><a xlink:title=" ">
<path fill="none" stroke="#63b8ff" d="M128.07,-115.47C120.8,-100.96 109.19,-71.47 124.77,-55 151.29,-26.96 731.86,-14.14 888.26,-11.18"/>
<polygon fill="#63b8ff" stroke="#63b8ff" points="888.42,-14.68 898.35,-10.99 888.29,-7.68 888.42,-14.68"/>
</a>
</g>
</g>
<!-- Node20 -->
<g id="Node000020" class="node">
<title>Node20</title>
<g id="a_Node000020"><a xlink:title=" ">
<polygon fill="#e0e0e0" stroke="#999999" points="187.27,-74 134.27,-74 134.27,-55 187.27,-55 187.27,-74"/>
<text text-anchor="middle" x="160.77" y="-62" font-family="Helvetica,sans-Serif" font-size="10.00">stdint.h</text>
</a>
</g>
</g>
<!-- Node19&#45;&gt;Node20 -->
<g id="edge23_Node000019_Node000020" class="edge">
<title>Node19&#45;&gt;Node20</title>
<g id="a_edge23_Node000019_Node000020"><a xlink:title=" ">
<path fill="none" stroke="#63b8ff" d="M136.9,-115.37C140.91,-106.99 147.12,-94.01 152.2,-83.39"/>
<polygon fill="#63b8ff" stroke="#63b8ff" points="155.46,-84.7 156.62,-74.17 149.14,-81.68 155.46,-84.7"/>
</a>
</g>
</g>
<!-- Node21 -->
<g id="Node000021" class="node">
<title>Node21</title>
<g id="a_Node000021"><a xlink:title=" ">
<polygon fill="#e0e0e0" stroke="#999999" points="258.27,-74 205.27,-74 205.27,-55 258.27,-55 258.27,-74"/>
<text text-anchor="middle" x="231.77" y="-62" font-family="Helvetica,sans-Serif" font-size="10.00">stdlib.h</text>
</a>
</g>
</g>
<!-- Node19&#45;&gt;Node21 -->
<g id="edge25_Node000019_Node000021" class="edge">
<title>Node19&#45;&gt;Node21</title>
<g id="a_edge25_Node000019_Node000021"><a xlink:title=" ">
<path fill="none" stroke="#63b8ff" d="M147.37,-115.37C163.46,-105.86 189.55,-90.45 208.46,-79.27"/>
<polygon fill="#63b8ff" stroke="#63b8ff" points="210.27,-82.27 217.1,-74.17 206.71,-76.24 210.27,-82.27"/>
</a>
</g>
</g>
<!-- Node22 -->
<g id="Node000022" class="node">
<title>Node22</title>
<g id="a_Node000022"><a xlink:title=" ">
<polygon fill="#e0e0e0" stroke="#999999" points="77.77,-74 29.77,-74 29.77,-55 77.77,-55 77.77,-74"/>
<text text-anchor="middle" x="53.77" y="-62" font-family="Helvetica,sans-Serif" font-size="10.00">time.h</text>
</a>
</g>
</g>
<!-- Node19&#45;&gt;Node22 -->
<g id="edge26_Node000019_Node000022" class="edge">
<title>Node19&#45;&gt;Node22</title>
<g id="a_edge26_Node000019_Node000022"><a xlink:title=" ">
<path fill="none" stroke="#63b8ff" d="M121.11,-115.37C108.62,-106.12 88.59,-91.28 73.61,-80.19"/>
<polygon fill="#63b8ff" stroke="#63b8ff" points="75.59,-77.31 65.47,-74.17 71.42,-82.93 75.59,-77.31"/>
</a>
</g>
</g>
<!-- Node46 -->
<g id="Node000046" class="node">
<title>Node46</title>
<g id="a_Node000046"><a xlink:title=" ">
<polygon fill="#e0e0e0" stroke="#999999" points="1399.27,-206 1280.27,-206 1280.27,-176 1399.27,-176 1399.27,-206"/>
<text text-anchor="start" x="1288.27" y="-194" font-family="Helvetica,sans-Serif" font-size="10.00">device_load_uniform</text>
<text text-anchor="middle" x="1339.77" y="-183" font-family="Helvetica,sans-Serif" font-size="10.00">_decl.h</text>
</a>
</g>
</g>
<!-- Node45&#45;&gt;Node46 -->
<g id="edge49_Node000045_Node000046" class="edge">
<title>Node45&#45;&gt;Node46</title>
<g id="a_edge49_Node000045_Node000046"><a xlink:title=" ">
<path fill="none" stroke="#63b8ff" d="M830.84,-243.16C834.19,-242.75 837.53,-242.36 840.77,-242 1028.13,-221.33 1079.18,-232.71 1269.92,-206"/>
<polygon fill="#63b8ff" stroke="#63b8ff" points="1270.59,-209.44 1280,-204.57 1269.61,-202.51 1270.59,-209.44"/>
</a>
</g>
</g>
<!-- Node47 -->
<g id="Node000047" class="node">
<title>Node47</title>
<g id="a_Node000047"><a xlink:title=" ">
<polygon fill="#e0e0e0" stroke="#999999" points="1539.77,-206 1417.77,-206 1417.77,-176 1539.77,-176 1539.77,-206"/>
<text text-anchor="start" x="1425.77" y="-194" font-family="Helvetica,sans-Serif" font-size="10.00">device_store_uniform</text>
<text text-anchor="middle" x="1478.77" y="-183" font-family="Helvetica,sans-Serif" font-size="10.00">_decl.h</text>
</a>
</g>
</g>
<!-- Node45&#45;&gt;Node47 -->
<g id="edge50_Node000045_Node000047" class="edge">
<title>Node45&#45;&gt;Node47</title>
<g id="a_edge50_Node000045_Node000047"><a xlink:title=" ">
<path fill="none" stroke="#63b8ff" d="M830.83,-243.08C834.19,-242.69 837.52,-242.32 840.77,-242 1089.14,-217.14 1156.2,-238.3 1407.59,-206.02"/>
<polygon fill="#63b8ff" stroke="#63b8ff" points="1408.3,-209.46 1417.76,-204.7 1407.4,-202.52 1408.3,-209.46"/>
</a>
</g>
</g>
<!-- Node55&#45;&gt;Node2 -->
<g id="edge59_Node000055_Node000002" class="edge">
<title>Node55&#45;&gt;Node2</title>
<g id="a_edge59_Node000055_Node000002"><a xlink:title=" ">
<path fill="none" stroke="#63b8ff" d="M696.33,-351.75C690.87,-344.34 682.9,-333.5 676.21,-324.41"/>
<polygon fill="#63b8ff" stroke="#63b8ff" points="678.83,-322.07 670.09,-316.09 673.19,-326.22 678.83,-322.07"/>
</a>
</g>
</g>
<!-- Node56 -->
<g id="Node000056" class="node">
<title>Node56</title>
<g id="a_Node000056"><a xlink:title=" ">
<polygon fill="#e0e0e0" stroke="#999999" points="770.77,-316 714.77,-316 714.77,-297 770.77,-297 770.77,-316"/>
<text text-anchor="middle" x="742.77" y="-304" font-family="Helvetica,sans-Serif" font-size="10.00">stdarg.h</text>
</a>
</g>
</g>
<!-- Node55&#45;&gt;Node56 -->
<g id="edge60_Node000055_Node000056" class="edge">
<title>Node55&#45;&gt;Node56</title>
<g id="a_edge60_Node000055_Node000056"><a xlink:title=" ">
<path fill="none" stroke="#63b8ff" d="M709.37,-351.75C715.02,-344.26 723.31,-333.28 730.22,-324.13"/>
<polygon fill="#63b8ff" stroke="#63b8ff" points="733.05,-326.18 736.28,-316.09 727.47,-321.96 733.05,-326.18"/>
</a>
</g>
</g>
<!-- Node57 -->
<g id="Node000057" class="node">
<title>Node57</title>
<g id="a_Node000057"><a xlink:href="astaroth__lib_8h.html" target="_top" xlink:title=" ">
<polygon fill="white" stroke="#666666" points="872.27,-316 789.27,-316 789.27,-297 872.27,-297 872.27,-316"/>
<text text-anchor="middle" x="830.77" y="-304" font-family="Helvetica,sans-Serif" font-size="10.00">astaroth_lib.h</text>
</a>
</g>
</g>
<!-- Node55&#45;&gt;Node57 -->
<g id="edge61_Node000055_Node000057" class="edge">
<title>Node55&#45;&gt;Node57</title>
<g id="a_edge61_Node000055_Node000057"><a xlink:title=" ">
<path fill="none" stroke="#63b8ff" d="M723.33,-351.98C744.2,-343.34 776.74,-329.87 800.54,-320.02"/>
<polygon fill="#63b8ff" stroke="#63b8ff" points="801.93,-323.23 809.83,-316.17 799.25,-316.76 801.93,-323.23"/>
</a>
</g>
</g>
</g>
</svg>
