<?xml version="1.0" encoding="UTF-8" standalone="no"?>
<!DOCTYPE svg PUBLIC "-//W3C//DTD SVG 1.1//EN"
 "http://www.w3.org/Graphics/SVG/1.1/DTD/svg11.dtd">
<!-- Generated by graphviz version 2.43.0 (0)
 -->
<!-- Title: test/planetest/main.cc Pages: 1 -->
<svg width="2215pt" height="434pt"
 viewBox="0.00 0.00 2214.50 434.00" xmlns="http://www.w3.org/2000/svg" xmlns:xlink="http://www.w3.org/1999/xlink">
<g id="graph0" class="graph" transform="scale(1 1) rotate(0) translate(4 430)">
<title>test/planetest/main.cc</title>
<!-- Node1 -->
<g id="Node000001" class="node">
<title>Node1</title>
<g id="a_Node000001"><a xlink:title=" ">
<polygon fill="#999999" stroke="#666666" points="416,-426 291,-426 291,-407 416,-407 416,-426"/>
<text text-anchor="middle" x="353.5" y="-414" font-family="Helvetica,sans-Serif" font-size="10.00">test/planetest/main.cc</text>
</a>
</g>
</g>
<!-- Node2 -->
<g id="Node000002" class="node">
<title>Node2</title>
<g id="a_Node000002"><a xlink:href="astaroth_8h.html" target="_top" xlink:title=" ">
<polygon fill="white" stroke="#666666" points="722.5,-316 656.5,-316 656.5,-297 722.5,-297 722.5,-316"/>
<text text-anchor="middle" x="689.5" y="-304" font-family="Helvetica,sans-Serif" font-size="10.00">astaroth.h</text>
</a>
</g>
</g>
<!-- Node1&#45;&gt;Node2 -->
<g id="edge1_Node000001_Node000002" class="edge">
<title>Node1&#45;&gt;Node2</title>
<g id="a_edge1_Node000001_Node000002"><a xlink:title=" ">
<path fill="none" stroke="#63b8ff" d="M380.15,-406.94C439.94,-387.72 584.88,-341.13 652.99,-319.24"/>
<polygon fill="#63b8ff" stroke="#63b8ff" points="654.4,-322.46 662.85,-316.07 652.26,-315.79 654.4,-322.46"/>
</a>
</g>
</g>
<!-- Node20 -->
<g id="Node000020" class="node">
<title>Node20</title>
<g id="a_Node000020"><a xlink:href="errchk_8h.html" target="_top" xlink:title="Brief info.">
<polygon fill="white" stroke="#666666" points="159.5,-134.5 103.5,-134.5 103.5,-115.5 159.5,-115.5 159.5,-134.5"/>
<text text-anchor="middle" x="131.5" y="-122.5" font-family="Helvetica,sans-Serif" font-size="10.00">errchk.h</text>
</a>
</g>
</g>
<!-- Node1&#45;&gt;Node20 -->
<g id="edge63_Node000001_Node000020" class="edge">
<title>Node1&#45;&gt;Node20</title>
<g id="a_edge63_Node000001_Node000020"><a xlink:title=" ">
<path fill="none" stroke="#63b8ff" d="M290.84,-407.78C195.89,-394.32 26.5,-362.58 26.5,-307.5 26.5,-307.5 26.5,-307.5 26.5,-250.5 26.5,-216.33 24.9,-203.27 45.5,-176 58.32,-159.02 78.72,-146.81 96.43,-138.7"/>
<polygon fill="#63b8ff" stroke="#63b8ff" points="98.12,-141.78 105.93,-134.62 95.36,-135.35 98.12,-141.78"/>
</a>
</g>
</g>
<!-- Node43 -->
<g id="Node000043" class="node">
<title>Node43</title>
<g id="a_Node000043"><a xlink:title=" ">
<polygon fill="#e0e0e0" stroke="#999999" points="186,-206 55,-206 55,-176 186,-176 186,-206"/>
<text text-anchor="start" x="63" y="-194" font-family="Helvetica,sans-Serif" font-size="10.00">user_builtin_non_scalar</text>
<text text-anchor="middle" x="120.5" y="-183" font-family="Helvetica,sans-Serif" font-size="10.00">_constants.h</text>
</a>
</g>
</g>
<!-- Node1&#45;&gt;Node43 -->
<g id="edge64_Node000001_Node000043" class="edge">
<title>Node1&#45;&gt;Node43</title>
<g id="a_edge64_Node000001_Node000043"><a xlink:title=" ">
<path fill="none" stroke="#63b8ff" d="M323.89,-406.96C270.03,-389.64 157.37,-344.71 111.5,-261 104.01,-247.32 106.36,-229.89 110.53,-215.97"/>
<polygon fill="#63b8ff" stroke="#63b8ff" points="113.98,-216.73 113.95,-206.14 107.36,-214.44 113.98,-216.73"/>
</a>
</g>
</g>
<!-- Node56 -->
<g id="Node000056" class="node">
<title>Node56</title>
<g id="a_Node000056"><a xlink:href="astaroth__utils_8h.html" target="_top" xlink:title="Functions for loading and updating AcMeshInfo.">
<polygon fill="white" stroke="#666666" points="774.5,-371 682.5,-371 682.5,-352 774.5,-352 774.5,-371"/>
<text text-anchor="middle" x="728.5" y="-359" font-family="Helvetica,sans-Serif" font-size="10.00">astaroth_utils.h</text>
</a>
</g>
</g>
<!-- Node1&#45;&gt;Node56 -->
<g id="edge59_Node000001_Node000056" class="edge">
<title>Node1&#45;&gt;Node56</title>
<g id="a_edge59_Node000001_Node000056"><a xlink:title=" ">
<path fill="none" stroke="#63b8ff" d="M413.75,-406.98C484.94,-396.92 602.47,-380.31 671.99,-370.49"/>
<polygon fill="#63b8ff" stroke="#63b8ff" points="672.89,-373.89 682.3,-369.03 671.91,-366.96 672.89,-373.89"/>
</a>
</g>
</g>
<!-- Node3 -->
<g id="Node000003" class="node">
<title>Node3</title>
<g id="a_Node000003"><a xlink:href="astaroth__base_8h.html" target="_top" xlink:title=" ">
<polygon fill="white" stroke="#666666" points="626,-261 531,-261 531,-242 626,-242 626,-261"/>
<text text-anchor="middle" x="578.5" y="-249" font-family="Helvetica,sans-Serif" font-size="10.00">astaroth_base.h</text>
</a>
</g>
</g>
<!-- Node2&#45;&gt;Node3 -->
<g id="edge2_Node000002_Node000003" class="edge">
<title>Node2&#45;&gt;Node3</title>
<g id="a_edge2_Node000002_Node000003"><a xlink:title=" ">
<path fill="none" stroke="#63b8ff" d="M671.67,-296.98C653.89,-288.5 626.35,-275.35 605.82,-265.54"/>
<polygon fill="#63b8ff" stroke="#63b8ff" points="607.19,-262.32 596.66,-261.17 604.17,-268.64 607.19,-262.32"/>
</a>
</g>
</g>
<!-- Node44 -->
<g id="Node000044" class="node">
<title>Node44</title>
<g id="a_Node000044"><a xlink:href="astaroth__grid_8h.html" target="_top" xlink:title=" ">
<polygon fill="white" stroke="#666666" points="734.5,-261 644.5,-261 644.5,-242 734.5,-242 734.5,-261"/>
<text text-anchor="middle" x="689.5" y="-249" font-family="Helvetica,sans-Serif" font-size="10.00">astaroth_grid.h</text>
</a>
</g>
</g>
<!-- Node2&#45;&gt;Node44 -->
<g id="edge47_Node000002_Node000044" class="edge">
<title>Node2&#45;&gt;Node44</title>
<g id="a_edge47_Node000002_Node000044"><a xlink:title=" ">
<path fill="none" stroke="#63b8ff" d="M689.5,-296.75C689.5,-289.8 689.5,-279.85 689.5,-271.13"/>
<polygon fill="#63b8ff" stroke="#63b8ff" points="693,-271.09 689.5,-261.09 686,-271.09 693,-271.09"/>
</a>
</g>
</g>
<!-- Node45 -->
<g id="Node000045" class="node">
<title>Node45</title>
<g id="a_Node000045"><a xlink:href="astaroth__node_8h.html" target="_top" xlink:title=" ">
<polygon fill="white" stroke="#666666" points="970,-261 875,-261 875,-242 970,-242 970,-261"/>
<text text-anchor="middle" x="922.5" y="-249" font-family="Helvetica,sans-Serif" font-size="10.00">astaroth_node.h</text>
</a>
</g>
</g>
<!-- Node2&#45;&gt;Node45 -->
<g id="edge48_Node000002_Node000045" class="edge">
<title>Node2&#45;&gt;Node45</title>
<g id="a_edge48_Node000002_Node000045"><a xlink:title=" ">
<path fill="none" stroke="#63b8ff" d="M722.88,-297.91C762.78,-288.83 829.8,-273.59 875.06,-263.29"/>
<polygon fill="#63b8ff" stroke="#63b8ff" points="875.96,-266.68 884.93,-261.05 874.41,-259.85 875.96,-266.68"/>
</a>
</g>
</g>
<!-- Node46 -->
<g id="Node000046" class="node">
<title>Node46</title>
<g id="a_Node000046"><a xlink:href="astaroth__device_8h.html" target="_top" xlink:title=" ">
<polygon fill="white" stroke="#666666" points="856.5,-261 752.5,-261 752.5,-242 856.5,-242 856.5,-261"/>
<text text-anchor="middle" x="804.5" y="-249" font-family="Helvetica,sans-Serif" font-size="10.00">astaroth_device.h</text>
</a>
</g>
</g>
<!-- Node2&#45;&gt;Node46 -->
<g id="edge49_Node000002_Node000046" class="edge">
<title>Node2&#45;&gt;Node46</title>
<g id="a_edge49_Node000002_Node000046"><a xlink:title=" ">
<path fill="none" stroke="#63b8ff" d="M707.98,-296.98C726.48,-288.46 755.18,-275.23 776.48,-265.41"/>
<polygon fill="#63b8ff" stroke="#63b8ff" points="778.07,-268.53 785.69,-261.17 775.14,-262.18 778.07,-268.53"/>
</a>
</g>
</g>
<!-- Node49 -->
<g id="Node000049" class="node">
<title>Node49</title>
<g id="a_Node000049"><a xlink:href="astaroth__legacy_8h.html" target="_top" xlink:title=" ">
<polygon fill="white" stroke="#666666" points="1090.5,-261 988.5,-261 988.5,-242 1090.5,-242 1090.5,-261"/>
<text text-anchor="middle" x="1039.5" y="-249" font-family="Helvetica,sans-Serif" font-size="10.00">astaroth_legacy.h</text>
</a>
</g>
</g>
<!-- Node2&#45;&gt;Node49 -->
<g id="edge52_Node000002_Node000049" class="edge">
<title>Node2&#45;&gt;Node49</title>
<g id="a_edge52_Node000002_Node000049"><a xlink:title=" ">
<path fill="none" stroke="#63b8ff" d="M722.94,-298.56C725.83,-298.01 728.71,-297.48 731.5,-297 743.53,-294.91 892.26,-273.57 978.55,-261.22"/>
<polygon fill="#63b8ff" stroke="#63b8ff" points="979.1,-264.67 988.5,-259.79 978.1,-257.74 979.1,-264.67"/>
</a>
</g>
</g>
<!-- Node50 -->
<g id="Node000050" class="node">
<title>Node50</title>
<g id="a_Node000050"><a xlink:title=" ">
<polygon fill="#e0e0e0" stroke="#999999" points="1248,-261 1109,-261 1109,-242 1248,-242 1248,-261"/>
<text text-anchor="middle" x="1178.5" y="-249" font-family="Helvetica,sans-Serif" font-size="10.00">device_set_input_decls.h</text>
</a>
</g>
</g>
<!-- Node2&#45;&gt;Node50 -->
<g id="edge53_Node000002_Node000050" class="edge">
<title>Node2&#45;&gt;Node50</title>
<g id="a_edge53_Node000002_Node000050"><a xlink:title=" ">
<path fill="none" stroke="#63b8ff" d="M722.92,-298.42C725.81,-297.9 728.7,-297.42 731.5,-297 890.85,-273.14 934.34,-277.6 1098.75,-261.06"/>
<polygon fill="#63b8ff" stroke="#63b8ff" points="1099.12,-264.54 1108.72,-260.05 1098.41,-257.58 1099.12,-264.54"/>
</a>
</g>
</g>
<!-- Node51 -->
<g id="Node000051" class="node">
<title>Node51</title>
<g id="a_Node000051"><a xlink:title=" ">
<polygon fill="#e0e0e0" stroke="#999999" points="1412.5,-261 1266.5,-261 1266.5,-242 1412.5,-242 1412.5,-261"/>
<text text-anchor="middle" x="1339.5" y="-249" font-family="Helvetica,sans-Serif" font-size="10.00">device_get_output_decls.h</text>
</a>
</g>
</g>
<!-- Node2&#45;&gt;Node51 -->
<g id="edge54_Node000002_Node000051" class="edge">
<title>Node2&#45;&gt;Node51</title>
<g id="a_edge54_Node000002_Node000051"><a xlink:title=" ">
<path fill="none" stroke="#63b8ff" d="M722.9,-298.33C725.8,-297.83 728.7,-297.38 731.5,-297 960.44,-266.14 1022.29,-280.66 1256.02,-261.09"/>
<polygon fill="#63b8ff" stroke="#63b8ff" points="1256.53,-264.56 1266.19,-260.23 1255.93,-257.59 1256.53,-264.56"/>
</a>
</g>
</g>
<!-- Node52 -->
<g id="Node000052" class="node">
<title>Node52</title>
<g id="a_Node000052"><a xlink:title=" ">
<polygon fill="#e0e0e0" stroke="#999999" points="1570.5,-261 1430.5,-261 1430.5,-242 1570.5,-242 1570.5,-261"/>
<text text-anchor="middle" x="1500.5" y="-249" font-family="Helvetica,sans-Serif" font-size="10.00">device_get_input_decls.h</text>
</a>
</g>
</g>
<!-- Node2&#45;&gt;Node52 -->
<g id="edge55_Node000002_Node000052" class="edge">
<title>Node2&#45;&gt;Node52</title>
<g id="a_edge55_Node000002_Node000052"><a xlink:title=" ">
<path fill="none" stroke="#63b8ff" d="M722.9,-298.28C725.8,-297.79 728.7,-297.35 731.5,-297 1032.88,-258.85 1113.66,-284.86 1420.24,-261.05"/>
<polygon fill="#63b8ff" stroke="#63b8ff" points="1420.61,-264.53 1430.31,-260.26 1420.06,-257.55 1420.61,-264.53"/>
</a>
</g>
</g>
<!-- Node53 -->
<g id="Node000053" class="node">
<title>Node53</title>
<g id="a_Node000053"><a xlink:title=" ">
<polygon fill="#e0e0e0" stroke="#999999" points="250.5,-261 120.5,-261 120.5,-242 250.5,-242 250.5,-261"/>
<text text-anchor="middle" x="185.5" y="-249" font-family="Helvetica,sans-Serif" font-size="10.00">get_vtxbufs_declares.h</text>
</a>
</g>
</g>
<!-- Node2&#45;&gt;Node53 -->
<g id="edge56_Node000002_Node000053" class="edge">
<title>Node2&#45;&gt;Node53</title>
<g id="a_edge56_Node000002_Node000053"><a xlink:title=" ">
<path fill="none" stroke="#63b8ff" d="M656.31,-302.19C585.66,-295.13 414.96,-277.91 260.98,-261.15"/>
<polygon fill="#63b8ff" stroke="#63b8ff" points="261.19,-257.65 250.87,-260.05 260.43,-264.61 261.19,-257.65"/>
</a>
</g>
</g>
<!-- Node54 -->
<g id="Node000054" class="node">
<title>Node54</title>
<g id="a_Node000054"><a xlink:href="astaroth__runtime__compilation_8h.html" target="_top" xlink:title=" ">
<polygon fill="white" stroke="#666666" points="442,-261 269,-261 269,-242 442,-242 442,-261"/>
<text text-anchor="middle" x="355.5" y="-249" font-family="Helvetica,sans-Serif" font-size="10.00">astaroth_runtime_compilation.h</text>
</a>
</g>
</g>
<!-- Node2&#45;&gt;Node54 -->
<g id="edge57_Node000002_Node000054" class="edge">
<title>Node2&#45;&gt;Node54</title>
<g id="a_edge57_Node000002_Node000054"><a xlink:title=" ">
<path fill="none" stroke="#63b8ff" d="M656.25,-300.22C601.13,-291.48 489.9,-273.83 419.25,-262.62"/>
<polygon fill="#63b8ff" stroke="#63b8ff" points="419.56,-259.12 409.13,-261.01 418.46,-266.03 419.56,-259.12"/>
</a>
</g>
</g>
<!-- Node55 -->
<g id="Node000055" class="node">
<title>Node55</title>
<g id="a_Node000055"><a xlink:title=" ">
<polygon fill="#e0e0e0" stroke="#999999" points="513,-261 460,-261 460,-242 513,-242 513,-261"/>
<text text-anchor="middle" x="486.5" y="-249" font-family="Helvetica,sans-Serif" font-size="10.00">string.h</text>
</a>
</g>
</g>
<!-- Node2&#45;&gt;Node55 -->
<g id="edge58_Node000002_Node000055" class="edge">
<title>Node2&#45;&gt;Node55</title>
<g id="a_edge58_Node000002_Node000055"><a xlink:title=" ">
<path fill="none" stroke="#63b8ff" d="M656.88,-296.98C620.41,-287.46 561.48,-272.08 523.36,-262.12"/>
<polygon fill="#63b8ff" stroke="#63b8ff" points="523.76,-258.61 513.2,-259.47 521.99,-265.38 523.76,-258.61"/>
</a>
</g>
</g>
<!-- Node4 -->
<g id="Node000004" class="node">
<title>Node4</title>
<g id="a_Node000004"><a xlink:title=" ">
<polygon fill="#e0e0e0" stroke="#999999" points="308.5,-74 246.5,-74 246.5,-55 308.5,-55 308.5,-74"/>
<text text-anchor="middle" x="277.5" y="-62" font-family="Helvetica,sans-Serif" font-size="10.00">stdbool.h</text>
</a>
</g>
</g>
<!-- Node3&#45;&gt;Node4 -->
<g id="edge3_Node000003_Node000004" class="edge">
<title>Node3&#45;&gt;Node4</title>
<g id="a_edge3_Node000003_Node000004"><a xlink:title=" ">
<path fill="none" stroke="#63b8ff" d="M540.5,-241.98C449.77,-221.24 226.5,-167.84 206.5,-140 198.72,-129.17 200.04,-121.67 206.5,-110 214.34,-95.83 228.79,-85.57 242.61,-78.5"/>
<polygon fill="#63b8ff" stroke="#63b8ff" points="244.42,-81.52 251.99,-74.1 241.45,-75.18 244.42,-81.52"/>
</a>
</g>
</g>
<!-- Node5 -->
<g id="Node000005" class="node">
<title>Node5</title>
<g id="a_Node000005"><a xlink:href="ac__mpi_8h.html" target="_top" xlink:title=" ">
<polygon fill="white" stroke="#666666" points="265,-200.5 204,-200.5 204,-181.5 265,-181.5 265,-200.5"/>
<text text-anchor="middle" x="234.5" y="-188.5" font-family="Helvetica,sans-Serif" font-size="10.00">ac_mpi.h</text>
</a>
</g>
</g>
<!-- Node3&#45;&gt;Node5 -->
<g id="edge4_Node000003_Node000005" class="edge">
<title>Node3&#45;&gt;Node5</title>
<g id="a_edge4_Node000003_Node000005"><a xlink:title=" ">
<path fill="none" stroke="#63b8ff" d="M530.91,-243.4C527.73,-242.93 524.57,-242.46 521.5,-242 413.95,-225.98 385.51,-230.22 279.5,-206 276.13,-205.23 272.64,-204.33 269.17,-203.37"/>
<polygon fill="#63b8ff" stroke="#63b8ff" points="270.12,-200 259.54,-200.54 268.15,-206.72 270.12,-200"/>
</a>
</g>
</g>
<!-- Node6 -->
<g id="Node000006" class="node">
<title>Node6</title>
<g id="a_Node000006"><a xlink:href="acc__runtime_8h.html" target="_top" xlink:title=" ">
<polygon fill="#fff0f0" stroke="red" points="982.5,-200.5 896.5,-200.5 896.5,-181.5 982.5,-181.5 982.5,-200.5"/>
<text text-anchor="middle" x="939.5" y="-188.5" font-family="Helvetica,sans-Serif" font-size="10.00">acc_runtime.h</text>
</a>
</g>
</g>
<!-- Node3&#45;&gt;Node6 -->
<g id="edge5_Node000003_Node000006" class="edge">
<title>Node3&#45;&gt;Node6</title>
<g id="a_edge5_Node000003_Node000006"><a xlink:title=" ">
<path fill="none" stroke="#63b8ff" d="M626.07,-242.79C693.4,-231.88 816.13,-211.99 886.37,-200.61"/>
<polygon fill="#63b8ff" stroke="#63b8ff" points="887.03,-204.05 896.34,-198.99 885.91,-197.14 887.03,-204.05"/>
</a>
</g>
</g>
<!-- Node26 -->
<g id="Node000026" class="node">
<title>Node26</title>
<g id="a_Node000026"><a xlink:title=" ">
<polygon fill="#e0e0e0" stroke="#999999" points="355,-134.5 216,-134.5 216,-115.5 355,-115.5 355,-134.5"/>
<text text-anchor="middle" x="285.5" y="-122.5" font-family="Helvetica,sans-Serif" font-size="10.00">user_built&#45;in_constants.h</text>
</a>
</g>
</g>
<!-- Node3&#45;&gt;Node26 -->
<g id="edge45_Node000003_Node000026" class="edge">
<title>Node3&#45;&gt;Node26</title>
<g id="a_edge45_Node000003_Node000026"><a xlink:title=" ">
<path fill="none" stroke="#63b8ff" d="M558.36,-241.94C507.66,-220.4 374.54,-163.84 315.01,-138.54"/>
<polygon fill="#63b8ff" stroke="#63b8ff" points="316.35,-135.31 305.78,-134.62 313.61,-141.75 316.35,-135.31"/>
</a>
</g>
</g>
<!-- Node40 -->
<g id="Node000040" class="node">
<title>Node40</title>
<g id="a_Node000040"><a xlink:href="func__define_8h.html" target="_top" xlink:title=" ">
<polygon fill="white" stroke="#666666" points="2206.5,-134.5 2124.5,-134.5 2124.5,-115.5 2206.5,-115.5 2206.5,-134.5"/>
<text text-anchor="middle" x="2165.5" y="-122.5" font-family="Helvetica,sans-Serif" font-size="10.00">func_define.h</text>
</a>
</g>
</g>
<!-- Node3&#45;&gt;Node40 -->
<g id="edge44_Node000003_Node000040" class="edge">
<title>Node3&#45;&gt;Node40</title>
<g id="a_edge44_Node000003_Node000040"><a xlink:title=" ">
<path fill="none" stroke="#63b8ff" d="M626.06,-243.24C629.25,-242.8 632.42,-242.38 635.5,-242 793.3,-222.27 843.71,-264.73 991.5,-206 1011.82,-197.92 1009.92,-183.38 1030.5,-176 1144.04,-135.27 1996.29,-158.39 2115.5,-140 2120.08,-139.29 2124.85,-138.3 2129.53,-137.18"/>
<polygon fill="#63b8ff" stroke="#63b8ff" points="2130.77,-140.47 2139.55,-134.54 2128.99,-133.7 2130.77,-140.47"/>
</a>
</g>
</g>
<!-- Node3&#45;&gt;Node43 -->
<g id="edge46_Node000003_Node000043" class="edge">
<title>Node3&#45;&gt;Node43</title>
<g id="a_edge46_Node000003_Node000043"><a xlink:title=" ">
<path fill="none" stroke="#63b8ff" d="M530.93,-243.27C527.74,-242.83 524.58,-242.4 521.5,-242 379.76,-223.64 340.84,-227.42 196.35,-206.21"/>
<polygon fill="#63b8ff" stroke="#63b8ff" points="196.63,-202.71 186.22,-204.71 195.6,-209.64 196.63,-202.71"/>
</a>
</g>
</g>
<!-- Node6&#45;&gt;Node4 -->
<g id="edge7_Node000006_Node000004" class="edge">
<title>Node6&#45;&gt;Node4</title>
<g id="a_edge7_Node000006_Node000004"><a xlink:title=" ">
<path fill="none" stroke="#63b8ff" d="M911.26,-181.44C885.85,-173.02 848.07,-158.74 818.5,-140 801.76,-129.39 803.66,-117.95 785.5,-110 774.82,-105.33 437.78,-78.22 318.68,-68.76"/>
<polygon fill="#63b8ff" stroke="#63b8ff" points="318.76,-65.25 308.51,-67.95 318.2,-72.23 318.76,-65.25"/>
</a>
</g>
</g>
<!-- Node7 -->
<g id="Node000007" class="node">
<title>Node7</title>
<g id="a_Node000007"><a xlink:title=" ">
<polygon fill="#e0e0e0" stroke="#999999" points="454.5,-74 404.5,-74 404.5,-55 454.5,-55 454.5,-74"/>
<text text-anchor="middle" x="429.5" y="-62" font-family="Helvetica,sans-Serif" font-size="10.00">stdio.h</text>
</a>
</g>
</g>
<!-- Node6&#45;&gt;Node7 -->
<g id="edge6_Node000006_Node000007" class="edge">
<title>Node6&#45;&gt;Node7</title>
<g id="a_edge6_Node000006_Node000007"><a xlink:title=" ">
<path fill="none" stroke="#63b8ff" d="M925.87,-181.49C910.22,-171.66 883.83,-154.94 861.5,-140 842.13,-127.04 840.3,-118.24 818.5,-110 754.09,-85.64 547.95,-71.97 464.79,-67.32"/>
<polygon fill="#63b8ff" stroke="#63b8ff" points="464.76,-63.81 454.58,-66.76 464.37,-70.8 464.76,-63.81"/>
</a>
</g>
</g>
<!-- Node8 -->
<g id="Node000008" class="node">
<title>Node8</title>
<g id="a_Node000008"><a xlink:href="device__headers_8h.html" target="_top" xlink:title=" ">
<polygon fill="white" stroke="#666666" points="990.5,-74 888.5,-74 888.5,-55 990.5,-55 990.5,-74"/>
<text text-anchor="middle" x="939.5" y="-62" font-family="Helvetica,sans-Serif" font-size="10.00">device_headers.h</text>
</a>
</g>
</g>
<!-- Node6&#45;&gt;Node8 -->
<g id="edge8_Node000006_Node000008" class="edge">
<title>Node6&#45;&gt;Node8</title>
<g id="a_edge8_Node000006_Node000008"><a xlink:title=" ">
<path fill="none" stroke="#63b8ff" d="M942.72,-181.3C946.18,-171.45 951.46,-154.82 953.5,-140 955.31,-126.79 955.52,-123.18 953.5,-110 952.15,-101.19 949.37,-91.74 946.65,-83.82"/>
<polygon fill="#63b8ff" stroke="#63b8ff" points="949.84,-82.35 943.1,-74.18 943.27,-84.77 949.84,-82.35"/>
</a>
</g>
</g>
<!-- Node11 -->
<g id="Node000011" class="node">
<title>Node11</title>
<g id="a_Node000011"><a xlink:title=" ">
<polygon fill="#e0e0e0" stroke="#999999" points="1450,-74 1355,-74 1355,-55 1450,-55 1450,-74"/>
<text text-anchor="middle" x="1402.5" y="-62" font-family="Helvetica,sans-Serif" font-size="10.00">builtin_enums.h</text>
</a>
</g>
</g>
<!-- Node6&#45;&gt;Node11 -->
<g id="edge11_Node000006_Node000011" class="edge">
<title>Node6&#45;&gt;Node11</title>
<g id="a_edge11_Node000006_Node000011"><a xlink:title=" ">
<path fill="none" stroke="#63b8ff" d="M969.76,-181.44C978.34,-179.32 987.73,-177.29 996.5,-176 1073.66,-164.65 1643.78,-196.54 1697.5,-140 1706.68,-130.33 1706.2,-120.11 1697.5,-110 1667.51,-75.15 1537.25,-67.23 1460.21,-65.66"/>
<polygon fill="#63b8ff" stroke="#63b8ff" points="1460.23,-62.16 1450.17,-65.48 1460.1,-69.16 1460.23,-62.16"/>
</a>
</g>
</g>
<!-- Node12 -->
<g id="Node000012" class="node">
<title>Node12</title>
<g id="a_Node000012"><a xlink:href="datatypes_8h.html" target="_top" xlink:title=" ">
<polygon fill="#fff0f0" stroke="red" points="944.5,-134.5 870.5,-134.5 870.5,-115.5 944.5,-115.5 944.5,-134.5"/>
<text text-anchor="middle" x="907.5" y="-122.5" font-family="Helvetica,sans-Serif" font-size="10.00">datatypes.h</text>
</a>
</g>
</g>
<!-- Node6&#45;&gt;Node12 -->
<g id="edge12_Node000006_Node000012" class="edge">
<title>Node6&#45;&gt;Node12</title>
<g id="a_edge12_Node000006_Node000012"><a xlink:title=" ">
<path fill="none" stroke="#63b8ff" d="M935.18,-181.37C930.44,-171.88 922.68,-156.36 916.58,-144.16"/>
<polygon fill="#63b8ff" stroke="#63b8ff" points="919.56,-142.28 911.95,-134.91 913.29,-145.41 919.56,-142.28"/>
</a>
</g>
</g>
<!-- Node6&#45;&gt;Node20 -->
<g id="edge20_Node000006_Node000020" class="edge">
<title>Node6&#45;&gt;Node20</title>
<g id="a_edge20_Node000006_Node000020"><a xlink:title=" ">
<path fill="none" stroke="#63b8ff" d="M896.37,-188.81C782.96,-185.31 467.16,-173.1 206.5,-140 194.41,-138.46 181.31,-136.22 169.5,-133.98"/>
<polygon fill="#63b8ff" stroke="#63b8ff" points="170,-130.51 159.51,-132.03 168.66,-137.38 170,-130.51"/>
</a>
</g>
</g>
<!-- Node24 -->
<g id="Node000024" class="node">
<title>Node24</title>
<g id="a_Node000024"><a xlink:title=" ">
<polygon fill="#e0e0e0" stroke="#999999" points="1088,-134.5 1001,-134.5 1001,-115.5 1088,-115.5 1088,-134.5"/>
<text text-anchor="middle" x="1044.5" y="-122.5" font-family="Helvetica,sans-Serif" font-size="10.00">user_defines.h</text>
</a>
</g>
</g>
<!-- Node6&#45;&gt;Node24 -->
<g id="edge29_Node000006_Node000024" class="edge">
<title>Node6&#45;&gt;Node24</title>
<g id="a_edge29_Node000006_Node000024"><a xlink:title=" ">
<path fill="none" stroke="#63b8ff" d="M953.66,-181.37C971.04,-170.78 1000.74,-152.67 1021.43,-140.06"/>
<polygon fill="#63b8ff" stroke="#63b8ff" points="1023.51,-142.89 1030.23,-134.7 1019.87,-136.92 1023.51,-142.89"/>
</a>
</g>
</g>
<!-- Node25 -->
<g id="Node000025" class="node">
<title>Node25</title>
<g id="a_Node000025"><a xlink:title=" ">
<polygon fill="#e0e0e0" stroke="#999999" points="1192.5,-134.5 1106.5,-134.5 1106.5,-115.5 1192.5,-115.5 1192.5,-134.5"/>
<text text-anchor="middle" x="1149.5" y="-122.5" font-family="Helvetica,sans-Serif" font-size="10.00">profiles_info.h</text>
</a>
</g>
</g>
<!-- Node6&#45;&gt;Node25 -->
<g id="edge30_Node000006_Node000025" class="edge">
<title>Node6&#45;&gt;Node25</title>
<g id="a_edge30_Node000006_Node000025"><a xlink:title=" ">
<path fill="none" stroke="#63b8ff" d="M967.82,-181.37C1004.95,-170.05 1070.21,-150.16 1111.58,-137.56"/>
<polygon fill="#63b8ff" stroke="#63b8ff" points="1112.75,-140.86 1121.29,-134.6 1110.71,-134.16 1112.75,-140.86"/>
</a>
</g>
</g>
<!-- Node6&#45;&gt;Node26 -->
<g id="edge31_Node000006_Node000026" class="edge">
<title>Node6&#45;&gt;Node26</title>
<g id="a_edge31_Node000006_Node000026"><a xlink:title=" ">
<path fill="none" stroke="#63b8ff" d="M896.36,-187.6C800.33,-181.97 561.76,-166.34 363.5,-140 355.55,-138.94 347.17,-137.64 338.98,-136.26"/>
<polygon fill="#63b8ff" stroke="#63b8ff" points="339.57,-132.81 329.12,-134.55 338.37,-139.71 339.57,-132.81"/>
</a>
</g>
</g>
<!-- Node27 -->
<g id="Node000027" class="node">
<title>Node27</title>
<g id="a_Node000027"><a xlink:href="func__attributes_8h.html" target="_top" xlink:title=" ">
<polygon fill="white" stroke="#666666" points="1310,-134.5 1211,-134.5 1211,-115.5 1310,-115.5 1310,-134.5"/>
<text text-anchor="middle" x="1260.5" y="-122.5" font-family="Helvetica,sans-Serif" font-size="10.00">func_attributes.h</text>
</a>
</g>
</g>
<!-- Node6&#45;&gt;Node27 -->
<g id="edge32_Node000006_Node000027" class="edge">
<title>Node6&#45;&gt;Node27</title>
<g id="a_edge32_Node000006_Node000027"><a xlink:title=" ">
<path fill="none" stroke="#63b8ff" d="M972.57,-181.48C980.39,-179.58 988.72,-177.64 996.5,-176 1087.02,-156.96 1110.9,-158.69 1201.5,-140 1206.21,-139.03 1211.13,-137.96 1216.01,-136.85"/>
<polygon fill="#63b8ff" stroke="#63b8ff" points="1216.99,-140.22 1225.95,-134.56 1215.42,-133.4 1216.99,-140.22"/>
</a>
</g>
</g>
<!-- Node28 -->
<g id="Node000028" class="node">
<title>Node28</title>
<g id="a_Node000028"><a xlink:title=" ">
<polygon fill="#e0e0e0" stroke="#999999" points="1453,-134.5 1328,-134.5 1328,-115.5 1453,-115.5 1453,-134.5"/>
<text text-anchor="middle" x="1390.5" y="-122.5" font-family="Helvetica,sans-Serif" font-size="10.00">user_input_typedefs.h</text>
</a>
</g>
</g>
<!-- Node6&#45;&gt;Node28 -->
<g id="edge33_Node000006_Node000028" class="edge">
<title>Node6&#45;&gt;Node28</title>
<g id="a_edge33_Node000006_Node000028"><a xlink:title=" ">
<path fill="none" stroke="#63b8ff" d="M971,-181.49C979.25,-179.47 988.17,-177.48 996.5,-176 1138.72,-150.72 1176.74,-161.99 1319.5,-140 1326.26,-138.96 1333.35,-137.73 1340.33,-136.43"/>
<polygon fill="#63b8ff" stroke="#63b8ff" points="1341.26,-139.82 1350.43,-134.51 1339.95,-132.94 1341.26,-139.82"/>
</a>
</g>
</g>
<!-- Node29 -->
<g id="Node000029" class="node">
<title>Node29</title>
<g id="a_Node000029"><a xlink:title=" ">
<polygon fill="#e0e0e0" stroke="#999999" points="1554,-134.5 1471,-134.5 1471,-115.5 1554,-115.5 1554,-134.5"/>
<text text-anchor="middle" x="1512.5" y="-122.5" font-family="Helvetica,sans-Serif" font-size="10.00">output_decl.h</text>
</a>
</g>
</g>
<!-- Node6&#45;&gt;Node29 -->
<g id="edge34_Node000006_Node000029" class="edge">
<title>Node6&#45;&gt;Node29</title>
<g id="a_edge34_Node000006_Node000029"><a xlink:title=" ">
<path fill="none" stroke="#63b8ff" d="M970.37,-181.44C978.79,-179.38 987.95,-177.37 996.5,-176 1201.61,-143.12 1257.95,-176.18 1462.5,-140 1466.91,-139.22 1471.5,-138.21 1476.02,-137.1"/>
<polygon fill="#63b8ff" stroke="#63b8ff" points="1476.96,-140.47 1485.74,-134.54 1475.17,-133.7 1476.96,-140.47"/>
</a>
</g>
</g>
<!-- Node30 -->
<g id="Node000030" class="node">
<title>Node30</title>
<g id="a_Node000030"><a xlink:title=" ">
<polygon fill="#e0e0e0" stroke="#999999" points="1688.5,-134.5 1572.5,-134.5 1572.5,-115.5 1688.5,-115.5 1688.5,-134.5"/>
<text text-anchor="middle" x="1630.5" y="-122.5" font-family="Helvetica,sans-Serif" font-size="10.00">comp_loaded_decl.h</text>
</a>
</g>
</g>
<!-- Node6&#45;&gt;Node30 -->
<g id="edge35_Node000006_Node000030" class="edge">
<title>Node6&#45;&gt;Node30</title>
<g id="a_edge35_Node000006_Node000030"><a xlink:title=" ">
<path fill="none" stroke="#63b8ff" d="M970.06,-181.44C978.56,-179.34 987.84,-177.33 996.5,-176 1246.09,-137.73 1313.28,-173.91 1563.5,-140 1570.3,-139.08 1577.45,-137.86 1584.44,-136.52"/>
<polygon fill="#63b8ff" stroke="#63b8ff" points="1585.38,-139.9 1594.5,-134.51 1584.01,-133.04 1585.38,-139.9"/>
</a>
</g>
</g>
<!-- Node31 -->
<g id="Node000031" class="node">
<title>Node31</title>
<g id="a_Node000031"><a xlink:title=" ">
<polygon fill="#e0e0e0" stroke="#999999" points="1822.5,-134.5 1744.5,-134.5 1744.5,-115.5 1822.5,-115.5 1822.5,-134.5"/>
<text text-anchor="middle" x="1783.5" y="-122.5" font-family="Helvetica,sans-Serif" font-size="10.00">comp_decl.h</text>
</a>
</g>
</g>
<!-- Node6&#45;&gt;Node31 -->
<g id="edge36_Node000006_Node000031" class="edge">
<title>Node6&#45;&gt;Node31</title>
<g id="a_edge36_Node000006_Node000031"><a xlink:title=" ">
<path fill="none" stroke="#63b8ff" d="M969.46,-181.5C978.12,-179.35 987.63,-177.3 996.5,-176 1319.69,-128.83 1407.73,-189.98 1730.5,-140 1735.54,-139.22 1740.8,-138.15 1745.96,-136.95"/>
<polygon fill="#63b8ff" stroke="#63b8ff" points="1746.82,-140.34 1755.68,-134.52 1745.12,-133.55 1746.82,-140.34"/>
</a>
</g>
</g>
<!-- Node32 -->
<g id="Node000032" class="node">
<title>Node32</title>
<g id="a_Node000032"><a xlink:title=" ">
<polygon fill="#e0e0e0" stroke="#999999" points="1948.5,-134.5 1840.5,-134.5 1840.5,-115.5 1948.5,-115.5 1948.5,-134.5"/>
<text text-anchor="middle" x="1894.5" y="-122.5" font-family="Helvetica,sans-Serif" font-size="10.00">info_loaded_decl.h</text>
</a>
</g>
</g>
<!-- Node6&#45;&gt;Node32 -->
<g id="edge37_Node000006_Node000032" class="edge">
<title>Node6&#45;&gt;Node32</title>
<g id="a_edge37_Node000006_Node000032"><a xlink:title=" ">
<path fill="none" stroke="#63b8ff" d="M969.46,-181.46C978.11,-179.32 987.62,-177.27 996.5,-176 1364.22,-123.44 1463.22,-188.48 1831.5,-140 1837.92,-139.16 1844.64,-137.98 1851.21,-136.66"/>
<polygon fill="#63b8ff" stroke="#63b8ff" points="1852.29,-140.01 1861.34,-134.51 1850.84,-133.17 1852.29,-140.01"/>
</a>
</g>
</g>
<!-- Node33 -->
<g id="Node000033" class="node">
<title>Node33</title>
<g id="a_Node000033"><a xlink:title=" ">
<polygon fill="#e0e0e0" stroke="#999999" points="2106.5,-134.5 1966.5,-134.5 1966.5,-115.5 2106.5,-115.5 2106.5,-134.5"/>
<text text-anchor="middle" x="2036.5" y="-122.5" font-family="Helvetica,sans-Serif" font-size="10.00">device_mesh_info_decl.h</text>
</a>
</g>
</g>
<!-- Node6&#45;&gt;Node33 -->
<g id="edge38_Node000006_Node000033" class="edge">
<title>Node6&#45;&gt;Node33</title>
<g id="a_edge38_Node000006_Node000033"><a xlink:title=" ">
<path fill="none" stroke="#63b8ff" d="M969.45,-181.43C978.11,-179.29 987.62,-177.24 996.5,-176 1419.78,-116.72 1532.51,-185.4 1957.5,-140 1966.25,-139.06 1975.5,-137.74 1984.47,-136.27"/>
<polygon fill="#63b8ff" stroke="#63b8ff" points="1985.16,-139.7 1994.42,-134.57 1983.98,-132.8 1985.16,-139.7"/>
</a>
</g>
</g>
<!-- Node34 -->
<g id="Node000034" class="node">
<title>Node34</title>
<g id="a_Node000034"><a xlink:title=" ">
<polygon fill="#e0e0e0" stroke="#999999" points="450,-134.5 373,-134.5 373,-115.5 450,-115.5 450,-134.5"/>
<text text-anchor="middle" x="411.5" y="-122.5" font-family="Helvetica,sans-Serif" font-size="10.00">array_decl.h</text>
</a>
</g>
</g>
<!-- Node6&#45;&gt;Node34 -->
<g id="edge39_Node000006_Node000034" class="edge">
<title>Node6&#45;&gt;Node34</title>
<g id="a_edge39_Node000006_Node000034"><a xlink:title=" ">
<path fill="none" stroke="#63b8ff" d="M896.41,-188.11C811.91,-183.84 618.79,-171.26 459.5,-140 455.59,-139.23 451.53,-138.29 447.51,-137.26"/>
<polygon fill="#63b8ff" stroke="#63b8ff" points="448.27,-133.84 437.7,-134.57 446.42,-140.59 448.27,-133.84"/>
</a>
</g>
</g>
<!-- Node35 -->
<g id="Node000035" class="node">
<title>Node35</title>
<g id="a_Node000035"><a xlink:title=" ">
<polygon fill="#e0e0e0" stroke="#999999" points="544.5,-134.5 468.5,-134.5 468.5,-115.5 544.5,-115.5 544.5,-134.5"/>
<text text-anchor="middle" x="506.5" y="-122.5" font-family="Helvetica,sans-Serif" font-size="10.00">input_decl.h</text>
</a>
</g>
</g>
<!-- Node6&#45;&gt;Node35 -->
<g id="edge40_Node000006_Node000035" class="edge">
<title>Node6&#45;&gt;Node35</title>
<g id="a_edge40_Node000006_Node000035"><a xlink:title=" ">
<path fill="none" stroke="#63b8ff" d="M896.28,-186.68C824.5,-180.67 676.45,-166.1 553.5,-140 549.87,-139.23 546.12,-138.32 542.39,-137.33"/>
<polygon fill="#63b8ff" stroke="#63b8ff" points="543.23,-133.93 532.66,-134.6 541.34,-140.67 543.23,-133.93"/>
</a>
</g>
</g>
<!-- Node36 -->
<g id="Node000036" class="node">
<title>Node36</title>
<g id="a_Node000036"><a xlink:href="ac__helpers_8h.html" target="_top" xlink:title=" ">
<polygon fill="white" stroke="#666666" points="640.5,-134.5 562.5,-134.5 562.5,-115.5 640.5,-115.5 640.5,-134.5"/>
<text text-anchor="middle" x="601.5" y="-122.5" font-family="Helvetica,sans-Serif" font-size="10.00">ac_helpers.h</text>
</a>
</g>
</g>
<!-- Node6&#45;&gt;Node36 -->
<g id="edge41_Node000006_Node000036" class="edge">
<title>Node6&#45;&gt;Node36</title>
<g id="a_edge41_Node000006_Node000036"><a xlink:title=" ">
<path fill="none" stroke="#63b8ff" d="M896.45,-184.13C839.55,-176.02 736.36,-160.09 649.5,-140 645.91,-139.17 642.18,-138.23 638.47,-137.24"/>
<polygon fill="#63b8ff" stroke="#63b8ff" points="639.35,-133.85 628.77,-134.53 637.47,-140.59 639.35,-133.85"/>
</a>
</g>
</g>
<!-- Node37 -->
<g id="Node000037" class="node">
<title>Node37</title>
<g id="a_Node000037"><a xlink:title=" ">
<polygon fill="#e0e0e0" stroke="#999999" points="776.5,-140 658.5,-140 658.5,-110 776.5,-110 776.5,-140"/>
<text text-anchor="start" x="666.5" y="-128" font-family="Helvetica,sans-Serif" font-size="10.00">scalar_reduce_buffer</text>
<text text-anchor="middle" x="717.5" y="-117" font-family="Helvetica,sans-Serif" font-size="10.00">_defs.h</text>
</a>
</g>
</g>
<!-- Node6&#45;&gt;Node37 -->
<g id="edge42_Node000006_Node000037" class="edge">
<title>Node6&#45;&gt;Node37</title>
<g id="a_edge42_Node000006_Node000037"><a xlink:title=" ">
<path fill="none" stroke="#63b8ff" d="M909.56,-181.37C875.52,-171.56 819.12,-155.3 776.23,-142.93"/>
<polygon fill="#63b8ff" stroke="#63b8ff" points="777.04,-139.52 766.46,-140.12 775.1,-146.25 777.04,-139.52"/>
</a>
</g>
</g>
<!-- Node6&#45;&gt;Node40 -->
<g id="edge43_Node000006_Node000040" class="edge">
<title>Node6&#45;&gt;Node40</title>
<g id="a_edge43_Node000006_Node000040"><a xlink:title=" ">
<path fill="none" stroke="#63b8ff" d="M969.15,-181.48C977.89,-179.3 987.52,-177.23 996.5,-176 1489.46,-108.29 1623.69,-215.63 2115.5,-140 2120.08,-139.3 2124.85,-138.31 2129.53,-137.18"/>
<polygon fill="#63b8ff" stroke="#63b8ff" points="2130.77,-140.47 2139.55,-134.54 2128.99,-133.7 2130.77,-140.47"/>
</a>
</g>
</g>
<!-- Node9 -->
<g id="Node000009" class="node">
<title>Node9</title>
<g id="a_Node000009"><a xlink:title=" ">
<polygon fill="#e0e0e0" stroke="#999999" points="917,-19 804,-19 804,0 917,0 917,-19"/>
<text text-anchor="middle" x="860.5" y="-7" font-family="Helvetica,sans-Serif" font-size="10.00">cuda_runtime_api.h</text>
</a>
</g>
</g>
<!-- Node8&#45;&gt;Node9 -->
<g id="edge9_Node000008_Node000009" class="edge">
<title>Node8&#45;&gt;Node9</title>
<g id="a_edge9_Node000008_Node000009"><a xlink:title=" ">
<path fill="none" stroke="#63b8ff" d="M926.81,-54.98C914.67,-46.84 896.14,-34.41 881.75,-24.76"/>
<polygon fill="#63b8ff" stroke="#63b8ff" points="883.68,-21.84 873.42,-19.17 879.78,-27.65 883.68,-21.84"/>
</a>
</g>
</g>
<!-- Node10 -->
<g id="Node000010" class="node">
<title>Node10</title>
<g id="a_Node000010"><a xlink:title=" ">
<polygon fill="#e0e0e0" stroke="#999999" points="1011.5,-19 935.5,-19 935.5,0 1011.5,0 1011.5,-19"/>
<text text-anchor="middle" x="973.5" y="-7" font-family="Helvetica,sans-Serif" font-size="10.00">cuda_fp16.h</text>
</a>
</g>
</g>
<!-- Node8&#45;&gt;Node10 -->
<g id="edge10_Node000008_Node000010" class="edge">
<title>Node8&#45;&gt;Node10</title>
<g id="a_edge10_Node000008_Node000010"><a xlink:title=" ">
<path fill="none" stroke="#63b8ff" d="M945.11,-54.75C949.82,-47.42 956.67,-36.73 962.47,-27.7"/>
<polygon fill="#63b8ff" stroke="#63b8ff" points="965.54,-29.4 967.99,-19.09 959.64,-25.62 965.54,-29.4"/>
</a>
</g>
</g>
<!-- Node12&#45;&gt;Node8 -->
<g id="edge13_Node000012_Node000008" class="edge">
<title>Node12&#45;&gt;Node8</title>
<g id="a_edge13_Node000012_Node000008"><a xlink:title=" ">
<path fill="none" stroke="#63b8ff" d="M912.22,-115.37C916.85,-106.9 924.05,-93.74 929.89,-83.07"/>
<polygon fill="#63b8ff" stroke="#63b8ff" points="933.03,-84.62 934.76,-74.17 926.89,-81.26 933.03,-84.62"/>
</a>
</g>
</g>
<!-- Node12&#45;&gt;Node9 -->
<g id="edge14_Node000012_Node000009" class="edge">
<title>Node12&#45;&gt;Node9</title>
<g id="a_edge14_Node000012_Node000009"><a xlink:title=" ">
<path fill="none" stroke="#63b8ff" d="M901.94,-115.44C895.8,-105.72 885.94,-89.21 879.5,-74 873.32,-59.41 868.29,-42.15 864.97,-29.31"/>
<polygon fill="#63b8ff" stroke="#63b8ff" points="868.3,-28.2 862.49,-19.34 861.5,-29.89 868.3,-28.2"/>
</a>
</g>
</g>
<!-- Node12&#45;&gt;Node11 -->
<g id="edge16_Node000012_Node000011" class="edge">
<title>Node12&#45;&gt;Node11</title>
<g id="a_edge16_Node000012_Node000011"><a xlink:title=" ">
<path fill="none" stroke="#63b8ff" d="M944.67,-117.42C959.52,-114.91 976.79,-112.14 992.5,-110 1117.59,-92.92 1264.88,-78.26 1344.44,-70.79"/>
<polygon fill="#63b8ff" stroke="#63b8ff" points="1345.1,-74.24 1354.74,-69.82 1344.45,-67.27 1345.1,-74.24"/>
</a>
</g>
</g>
<!-- Node16 -->
<g id="Node000016" class="node">
<title>Node16</title>
<g id="a_Node000016"><a xlink:href="acreal_8h.html" target="_top" xlink:title=" ">
<polygon fill="white" stroke="#666666" points="726.5,-19 670.5,-19 670.5,0 726.5,0 726.5,-19"/>
<text text-anchor="middle" x="698.5" y="-7" font-family="Helvetica,sans-Serif" font-size="10.00">acreal.h</text>
</a>
</g>
</g>
<!-- Node12&#45;&gt;Node16 -->
<g id="edge15_Node000012_Node000016" class="edge">
<title>Node12&#45;&gt;Node16</title>
<g id="a_edge15_Node000012_Node000016"><a xlink:title=" ">
<path fill="none" stroke="#63b8ff" d="M891.79,-115.47C855.71,-95.87 766.67,-47.52 723.19,-23.91"/>
<polygon fill="#63b8ff" stroke="#63b8ff" points="724.85,-20.83 714.39,-19.13 721.51,-26.98 724.85,-20.83"/>
</a>
</g>
</g>
<!-- Node18 -->
<g id="Node000018" class="node">
<title>Node18</title>
<g id="a_Node000018"><a xlink:href="host__datatypes_8h.html" target="_top" xlink:title=" ">
<polygon fill="white" stroke="#666666" points="690,-74 589,-74 589,-55 690,-55 690,-74"/>
<text text-anchor="middle" x="639.5" y="-62" font-family="Helvetica,sans-Serif" font-size="10.00">host_datatypes.h</text>
</a>
</g>
</g>
<!-- Node12&#45;&gt;Node18 -->
<g id="edge17_Node000012_Node000018" class="edge">
<title>Node12&#45;&gt;Node18</title>
<g id="a_edge17_Node000012_Node000018"><a xlink:title=" ">
<path fill="none" stroke="#63b8ff" d="M877.65,-115.45C870.73,-113.57 863.38,-111.65 856.5,-110 802.03,-96.95 739.29,-84.35 695.33,-75.9"/>
<polygon fill="#63b8ff" stroke="#63b8ff" points="695.89,-72.45 685.41,-74.01 694.58,-79.32 695.89,-72.45"/>
</a>
</g>
</g>
<!-- Node18&#45;&gt;Node16 -->
<g id="edge18_Node000018_Node000016" class="edge">
<title>Node18&#45;&gt;Node16</title>
<g id="a_edge18_Node000018_Node000016"><a xlink:title=" ">
<path fill="none" stroke="#63b8ff" d="M648.98,-54.98C657.7,-47.15 670.84,-35.34 681.4,-25.86"/>
<polygon fill="#63b8ff" stroke="#63b8ff" points="683.75,-28.46 688.85,-19.17 679.07,-23.25 683.75,-28.46"/>
</a>
</g>
</g>
<!-- Node19 -->
<g id="Node000019" class="node">
<title>Node19</title>
<g id="a_Node000019"><a xlink:title=" ">
<polygon fill="#e0e0e0" stroke="#999999" points="472.5,-19 416.5,-19 416.5,0 472.5,0 472.5,-19"/>
<text text-anchor="middle" x="444.5" y="-7" font-family="Helvetica,sans-Serif" font-size="10.00">stddef.h</text>
</a>
</g>
</g>
<!-- Node18&#45;&gt;Node19 -->
<g id="edge19_Node000018_Node000019" class="edge">
<title>Node18&#45;&gt;Node19</title>
<g id="a_edge19_Node000018_Node000019"><a xlink:title=" ">
<path fill="none" stroke="#63b8ff" d="M608.17,-54.98C573.92,-45.68 519.06,-30.76 482.41,-20.8"/>
<polygon fill="#63b8ff" stroke="#63b8ff" points="483.16,-17.38 472.59,-18.13 481.32,-24.13 483.16,-17.38"/>
</a>
</g>
</g>
<!-- Node20&#45;&gt;Node4 -->
<g id="edge23_Node000020_Node000004" class="edge">
<title>Node20&#45;&gt;Node4</title>
<g id="a_edge23_Node000020_Node000004"><a xlink:title=" ">
<path fill="none" stroke="#63b8ff" d="M152.73,-115.49C177.49,-105.57 218.62,-89.09 246.85,-77.78"/>
<polygon fill="#63b8ff" stroke="#63b8ff" points="248.26,-80.99 256.24,-74.02 245.66,-74.49 248.26,-80.99"/>
</a>
</g>
</g>
<!-- Node20&#45;&gt;Node7 -->
<g id="edge25_Node000020_Node000007" class="edge">
<title>Node20&#45;&gt;Node7</title>
<g id="a_edge25_Node000020_Node000007"><a xlink:title=" ">
<path fill="none" stroke="#63b8ff" d="M159.54,-118.5C214.07,-107.79 334.33,-84.18 394.2,-72.43"/>
<polygon fill="#63b8ff" stroke="#63b8ff" points="395.16,-75.81 404.3,-70.45 393.82,-68.94 395.16,-75.81"/>
</a>
</g>
</g>
<!-- Node20&#45;&gt;Node8 -->
<g id="edge28_Node000020_Node000008" class="edge">
<title>Node20&#45;&gt;Node8</title>
<g id="a_edge28_Node000020_Node000008"><a xlink:title=" ">
<path fill="none" stroke="#63b8ff" d="M159.51,-117.92C173.55,-115.09 190.86,-111.93 206.5,-110 335.91,-94.06 726.49,-75.18 878.26,-68.24"/>
<polygon fill="#63b8ff" stroke="#63b8ff" points="878.51,-71.73 888.34,-67.78 878.19,-64.74 878.51,-71.73"/>
</a>
</g>
</g>
<!-- Node20&#45;&gt;Node18 -->
<g id="edge22_Node000020_Node000018" class="edge">
<title>Node20&#45;&gt;Node18</title>
<g id="a_edge22_Node000020_Node000018"><a xlink:title=" ">
<path fill="none" stroke="#63b8ff" d="M159.54,-118.2C173.6,-115.44 190.9,-112.25 206.5,-110 338.61,-90.91 494.55,-76.98 578.54,-70.18"/>
<polygon fill="#63b8ff" stroke="#63b8ff" points="578.98,-73.65 588.67,-69.36 578.42,-66.67 578.98,-73.65"/>
</a>
</g>
</g>
<!-- Node20&#45;&gt;Node19 -->
<g id="edge21_Node000020_Node000019" class="edge">
<title>Node20&#45;&gt;Node19</title>
<g id="a_edge21_Node000020_Node000019"><a xlink:title=" ">
<path fill="none" stroke="#63b8ff" d="M141.9,-115.34C160.09,-100.64 199.39,-70.86 237.5,-55 293.66,-31.63 363.7,-19.88 406.22,-14.49"/>
<polygon fill="#63b8ff" stroke="#63b8ff" points="406.91,-17.93 416.41,-13.25 406.06,-10.98 406.91,-17.93"/>
</a>
</g>
</g>
<!-- Node21 -->
<g id="Node000021" class="node">
<title>Node21</title>
<g id="a_Node000021"><a xlink:title=" ">
<polygon fill="#e0e0e0" stroke="#999999" points="53,-74 0,-74 0,-55 53,-55 53,-74"/>
<text text-anchor="middle" x="26.5" y="-62" font-family="Helvetica,sans-Serif" font-size="10.00">stdint.h</text>
</a>
</g>
</g>
<!-- Node20&#45;&gt;Node21 -->
<g id="edge24_Node000020_Node000021" class="edge">
<title>Node20&#45;&gt;Node21</title>
<g id="a_edge24_Node000020_Node000021"><a xlink:title=" ">
<path fill="none" stroke="#63b8ff" d="M116.01,-115.37C98.87,-105.82 71.03,-90.31 50.94,-79.12"/>
<polygon fill="#63b8ff" stroke="#63b8ff" points="52.5,-75.98 42.06,-74.17 49.09,-82.09 52.5,-75.98"/>
</a>
</g>
</g>
<!-- Node22 -->
<g id="Node000022" class="node">
<title>Node22</title>
<g id="a_Node000022"><a xlink:title=" ">
<polygon fill="#e0e0e0" stroke="#999999" points="124,-74 71,-74 71,-55 124,-55 124,-74"/>
<text text-anchor="middle" x="97.5" y="-62" font-family="Helvetica,sans-Serif" font-size="10.00">stdlib.h</text>
</a>
</g>
</g>
<!-- Node20&#45;&gt;Node22 -->
<g id="edge26_Node000020_Node000022" class="edge">
<title>Node20&#45;&gt;Node22</title>
<g id="a_edge26_Node000020_Node000022"><a xlink:title=" ">
<path fill="none" stroke="#63b8ff" d="M126.48,-115.37C121.56,-106.9 113.91,-93.74 107.71,-83.07"/>
<polygon fill="#63b8ff" stroke="#63b8ff" points="110.59,-81.05 102.54,-74.17 104.54,-84.57 110.59,-81.05"/>
</a>
</g>
</g>
<!-- Node23 -->
<g id="Node000023" class="node">
<title>Node23</title>
<g id="a_Node000023"><a xlink:title=" ">
<polygon fill="#e0e0e0" stroke="#999999" points="190.5,-74 142.5,-74 142.5,-55 190.5,-55 190.5,-74"/>
<text text-anchor="middle" x="166.5" y="-62" font-family="Helvetica,sans-Serif" font-size="10.00">time.h</text>
</a>
</g>
</g>
<!-- Node20&#45;&gt;Node23 -->
<g id="edge27_Node000020_Node000023" class="edge">
<title>Node20&#45;&gt;Node23</title>
<g id="a_edge27_Node000020_Node000023"><a xlink:title=" ">
<path fill="none" stroke="#63b8ff" d="M136.66,-115.37C141.73,-106.9 149.6,-93.74 155.99,-83.07"/>
<polygon fill="#63b8ff" stroke="#63b8ff" points="159.18,-84.55 161.31,-74.17 153.18,-80.95 159.18,-84.55"/>
</a>
</g>
</g>
<!-- Node47 -->
<g id="Node000047" class="node">
<title>Node47</title>
<g id="a_Node000047"><a xlink:title=" ">
<polygon fill="#e0e0e0" stroke="#999999" points="1158,-206 1039,-206 1039,-176 1158,-176 1158,-206"/>
<text text-anchor="start" x="1047" y="-194" font-family="Helvetica,sans-Serif" font-size="10.00">device_load_uniform</text>
<text text-anchor="middle" x="1098.5" y="-183" font-family="Helvetica,sans-Serif" font-size="10.00">_decl.h</text>
</a>
</g>
</g>
<!-- Node46&#45;&gt;Node47 -->
<g id="edge50_Node000046_Node000047" class="edge">
<title>Node46&#45;&gt;Node47</title>
<g id="a_edge50_Node000046_Node000047"><a xlink:title=" ">
<path fill="none" stroke="#63b8ff" d="M847.25,-241.99C894.88,-232.52 972.58,-217.06 1028.98,-205.83"/>
<polygon fill="#63b8ff" stroke="#63b8ff" points="1029.77,-209.24 1038.9,-203.86 1028.4,-202.38 1029.77,-209.24"/>
</a>
</g>
</g>
<!-- Node48 -->
<g id="Node000048" class="node">
<title>Node48</title>
<g id="a_Node000048"><a xlink:title=" ">
<polygon fill="#e0e0e0" stroke="#999999" points="1298.5,-206 1176.5,-206 1176.5,-176 1298.5,-176 1298.5,-206"/>
<text text-anchor="start" x="1184.5" y="-194" font-family="Helvetica,sans-Serif" font-size="10.00">device_store_uniform</text>
<text text-anchor="middle" x="1237.5" y="-183" font-family="Helvetica,sans-Serif" font-size="10.00">_decl.h</text>
</a>
</g>
</g>
<!-- Node46&#45;&gt;Node48 -->
<g id="edge51_Node000046_Node000048" class="edge">
<title>Node46&#45;&gt;Node48</title>
<g id="a_edge51_Node000046_Node000048"><a xlink:title=" ">
<path fill="none" stroke="#63b8ff" d="M856.59,-243.29C859.94,-242.85 863.27,-242.41 866.5,-242 996.87,-225.27 1032.72,-227.12 1166.26,-206.12"/>
<polygon fill="#63b8ff" stroke="#63b8ff" points="1167.14,-209.52 1176.47,-204.5 1166.04,-202.61 1167.14,-209.52"/>
</a>
</g>
</g>
<!-- Node56&#45;&gt;Node2 -->
<g id="edge60_Node000056_Node000002" class="edge">
<title>Node56&#45;&gt;Node2</title>
<g id="a_edge60_Node000056_Node000002"><a xlink:title=" ">
<path fill="none" stroke="#63b8ff" d="M722.06,-351.75C716.61,-344.34 708.64,-333.5 701.94,-324.41"/>
<polygon fill="#63b8ff" stroke="#63b8ff" points="704.57,-322.07 695.82,-316.09 698.93,-326.22 704.57,-322.07"/>
</a>
</g>
</g>
<!-- Node57 -->
<g id="Node000057" class="node">
<title>Node57</title>
<g id="a_Node000057"><a xlink:title=" ">
<polygon fill="#e0e0e0" stroke="#999999" points="796.5,-316 740.5,-316 740.5,-297 796.5,-297 796.5,-316"/>
<text text-anchor="middle" x="768.5" y="-304" font-family="Helvetica,sans-Serif" font-size="10.00">stdarg.h</text>
</a>
</g>
</g>
<!-- Node56&#45;&gt;Node57 -->
<g id="edge61_Node000056_Node000057" class="edge">
<title>Node56&#45;&gt;Node57</title>
<g id="a_edge61_Node000056_Node000057"><a xlink:title=" ">
<path fill="none" stroke="#63b8ff" d="M735.11,-351.75C740.76,-344.26 749.04,-333.28 755.95,-324.13"/>
<polygon fill="#63b8ff" stroke="#63b8ff" points="758.79,-326.18 762.02,-316.09 753.2,-321.96 758.79,-326.18"/>
</a>
</g>
</g>
<!-- Node58 -->
<g id="Node000058" class="node">
<title>Node58</title>
<g id="a_Node000058"><a xlink:href="astaroth__lib_8h.html" target="_top" xlink:title=" ">
<polygon fill="white" stroke="#666666" points="898,-316 815,-316 815,-297 898,-297 898,-316"/>
<text text-anchor="middle" x="856.5" y="-304" font-family="Helvetica,sans-Serif" font-size="10.00">astaroth_lib.h</text>
</a>
</g>
</g>
<!-- Node56&#45;&gt;Node58 -->
<g id="edge62_Node000056_Node000058" class="edge">
<title>Node56&#45;&gt;Node58</title>
<g id="a_edge62_Node000056_Node000058"><a xlink:title=" ">
<path fill="none" stroke="#63b8ff" d="M749.07,-351.98C769.93,-343.34 802.47,-329.87 826.27,-320.02"/>
<polygon fill="#63b8ff" stroke="#63b8ff" points="827.66,-323.23 835.56,-316.17 824.98,-316.76 827.66,-323.23"/>
</a>
</g>
</g>
</g>
</svg>
