<?xml version="1.0" encoding="UTF-8" standalone="no"?>
<!DOCTYPE svg PUBLIC "-//W3C//DTD SVG 1.1//EN"
 "http://www.w3.org/Graphics/SVG/1.1/DTD/svg11.dtd">
<!-- Generated by graphviz version 2.43.0 (0)
 -->
<!-- Title: acc&#45;runtime/stdlib/poisson.h Pages: 1 -->
<svg width="294pt" height="115pt"
 viewBox="0.00 0.00 293.50 115.00" xmlns="http://www.w3.org/2000/svg" xmlns:xlink="http://www.w3.org/1999/xlink">
<g id="graph0" class="graph" transform="scale(1 1) rotate(0) translate(4 111)">
<title>acc&#45;runtime/stdlib/poisson.h</title>
<!-- Node1 -->
<g id="Node000001" class="node">
<title>Node1</title>
<g id="a_Node000001"><a xlink:title=" ">
<polygon fill="#999999" stroke="#666666" points="195,-107 90,-107 90,-77 195,-77 195,-107"/>
<text text-anchor="start" x="98" y="-95" font-family="Helvetica,sans-Serif" font-size="10.00">acc&#45;runtime/stdlib</text>
<text text-anchor="middle" x="142.5" y="-84" font-family="Helvetica,sans-Serif" font-size="10.00">/poisson.h</text>
</a>
</g>
</g>
<!-- Node2 -->
<g id="Node000002" class="node">
<title>Node2</title>
<g id="a_Node000002"><a xlink:title=" ">
<polygon fill="#e0e0e0" stroke="#999999" points="133,-35.5 0,-35.5 0,-5.5 133,-5.5 133,-35.5"/>
<text text-anchor="start" x="8" y="-23.5" font-family="Helvetica,sans-Serif" font-size="10.00">$AC_HOME/acc&#45;runtime</text>
<text text-anchor="middle" x="66.5" y="-12.5" font-family="Helvetica,sans-Serif" font-size="10.00">/stdlib/colors.h</text>
</a>
</g>
</g>
<!-- Node1&#45;&gt;Node2 -->
<g id="edge1_Node000001_Node000002" class="edge">
<title>Node1&#45;&gt;Node2</title>
<g id="a_edge1_Node000001_Node000002"><a xlink:title=" ">
<path fill="none" stroke="#63b8ff" d="M127.12,-76.94C116.3,-67.04 101.64,-53.64 89.45,-42.49"/>
<polygon fill="#63b8ff" stroke="#63b8ff" points="91.6,-39.71 81.86,-35.54 86.87,-44.87 91.6,-39.71"/>
</a>
</g>
</g>
<!-- Node3 -->
<g id="Node000003" class="node">
<title>Node3</title>
<g id="a_Node000003"><a xlink:title=" ">
<polygon fill="#e0e0e0" stroke="#999999" points="285.5,-41 151.5,-41 151.5,0 285.5,0 285.5,-41"/>
<text text-anchor="start" x="159.5" y="-29" font-family="Helvetica,sans-Serif" font-size="10.00">$AC_HOME/acc&#45;runtime</text>
<text text-anchor="start" x="159.5" y="-18" font-family="Helvetica,sans-Serif" font-size="10.00">/stdlib/compact_poisson</text>
<text text-anchor="middle" x="218.5" y="-7" font-family="Helvetica,sans-Serif" font-size="10.00">_operators.h</text>
</a>
</g>
</g>
<!-- Node1&#45;&gt;Node3 -->
<g id="edge2_Node000001_Node000003" class="edge">
<title>Node1&#45;&gt;Node3</title>
<g id="a_edge2_Node000001_Node000003"><a xlink:title=" ">
<path fill="none" stroke="#63b8ff" d="M157.88,-76.94C166.95,-68.64 178.73,-57.86 189.49,-48.02"/>
<polygon fill="#63b8ff" stroke="#63b8ff" points="192.08,-50.4 197.1,-41.07 187.35,-45.24 192.08,-50.4"/>
</a>
</g>
</g>
</g>
</svg>
