<?xml version="1.0" encoding="UTF-8" standalone="no"?>
<!DOCTYPE svg PUBLIC "-//W3C//DTD SVG 1.1//EN"
 "http://www.w3.org/Graphics/SVG/1.1/DTD/svg11.dtd">
<!-- Generated by graphviz version 2.43.0 (0)
 -->
<!-- Title: src/utils/profiles.cc Pages: 1 -->
<svg width="2768pt" height="379pt"
 viewBox="0.00 0.00 2768.45 379.00" xmlns="http://www.w3.org/2000/svg" xmlns:xlink="http://www.w3.org/1999/xlink">
<g id="graph0" class="graph" transform="scale(1 1) rotate(0) translate(4 375)">
<title>src/utils/profiles.cc</title>
<!-- Node1 -->
<g id="Node000001" class="node">
<title>Node1</title>
<g id="a_Node000001"><a xlink:title="Brief info.">
<polygon fill="#999999" stroke="#666666" points="941.45,-371 834.45,-371 834.45,-352 941.45,-352 941.45,-371"/>
<text text-anchor="middle" x="887.95" y="-359" font-family="Helvetica,sans-Serif" font-size="10.00">src/utils/profiles.cc</text>
</a>
</g>
</g>
<!-- Node2 -->
<g id="Node000002" class="node">
<title>Node2</title>
<g id="a_Node000002"><a xlink:href="astaroth_8h.html" target="_top" xlink:title=" ">
<polygon fill="white" stroke="#666666" points="920.95,-316 854.95,-316 854.95,-297 920.95,-297 920.95,-316"/>
<text text-anchor="middle" x="887.95" y="-304" font-family="Helvetica,sans-Serif" font-size="10.00">astaroth.h</text>
</a>
</g>
</g>
<!-- Node1&#45;&gt;Node2 -->
<g id="edge1_Node000001_Node000002" class="edge">
<title>Node1&#45;&gt;Node2</title>
<g id="a_edge1_Node000001_Node000002"><a xlink:title=" ">
<path fill="none" stroke="#63b8ff" d="M887.95,-351.75C887.95,-344.8 887.95,-334.85 887.95,-326.13"/>
<polygon fill="#63b8ff" stroke="#63b8ff" points="891.45,-326.09 887.95,-316.09 884.45,-326.09 891.45,-326.09"/>
</a>
</g>
</g>
<!-- Node13 -->
<g id="Node000013" class="node">
<title>Node13</title>
<g id="a_Node000013"><a xlink:title=" ">
<polygon fill="#e0e0e0" stroke="#999999" points="2760.45,-74 2709.45,-74 2709.45,-55 2760.45,-55 2760.45,-74"/>
<text text-anchor="middle" x="2734.95" y="-62" font-family="Helvetica,sans-Serif" font-size="10.00">math.h</text>
</a>
</g>
</g>
<!-- Node1&#45;&gt;Node13 -->
<g id="edge63_Node000001_Node000013" class="edge">
<title>Node1&#45;&gt;Node13</title>
<g id="a_edge63_Node000001_Node000013"><a xlink:title=" ">
<path fill="none" stroke="#63b8ff" d="M941.78,-360.27C1247.74,-358.63 2753.95,-345.79 2753.95,-252.5 2753.95,-252.5 2753.95,-252.5 2753.95,-190 2753.95,-152.06 2745.22,-108.35 2739.6,-84.13"/>
<polygon fill="#63b8ff" stroke="#63b8ff" points="2742.95,-83.09 2737.21,-74.19 2736.14,-84.73 2742.95,-83.09"/>
</a>
</g>
</g>
<!-- Node19 -->
<g id="Node000019" class="node">
<title>Node19</title>
<g id="a_Node000019"><a xlink:href="errchk_8h.html" target="_top" xlink:title="Brief info.">
<polygon fill="white" stroke="#666666" points="277.95,-134.5 221.95,-134.5 221.95,-115.5 277.95,-115.5 277.95,-134.5"/>
<text text-anchor="middle" x="249.95" y="-122.5" font-family="Helvetica,sans-Serif" font-size="10.00">errchk.h</text>
</a>
</g>
</g>
<!-- Node1&#45;&gt;Node19 -->
<g id="edge62_Node000001_Node000019" class="edge">
<title>Node1&#45;&gt;Node19</title>
<g id="a_edge62_Node000001_Node000019"><a xlink:title=" ">
<path fill="none" stroke="#63b8ff" d="M834.23,-360.41C658.06,-358.78 103.77,-342.71 8.95,-206 -41,-133.98 132.01,-125.57 211.78,-125.41"/>
<polygon fill="#63b8ff" stroke="#63b8ff" points="211.92,-128.91 221.93,-125.43 211.94,-121.91 211.92,-128.91"/>
</a>
</g>
</g>
<!-- Node3 -->
<g id="Node000003" class="node">
<title>Node3</title>
<g id="a_Node000003"><a xlink:href="astaroth__base_8h.html" target="_top" xlink:title=" ">
<polygon fill="white" stroke="#666666" points="518.45,-261 423.45,-261 423.45,-242 518.45,-242 518.45,-261"/>
<text text-anchor="middle" x="470.95" y="-249" font-family="Helvetica,sans-Serif" font-size="10.00">astaroth_base.h</text>
</a>
</g>
</g>
<!-- Node2&#45;&gt;Node3 -->
<g id="edge2_Node000002_Node000003" class="edge">
<title>Node2&#45;&gt;Node3</title>
<g id="a_edge2_Node000002_Node000003"><a xlink:title=" ">
<path fill="none" stroke="#63b8ff" d="M854.66,-301.67C792.77,-294.48 655.56,-278.26 528.8,-261.08"/>
<polygon fill="#63b8ff" stroke="#63b8ff" points="528.91,-257.57 518.52,-259.69 527.96,-264.5 528.91,-257.57"/>
</a>
</g>
</g>
<!-- Node43 -->
<g id="Node000043" class="node">
<title>Node43</title>
<g id="a_Node000043"><a xlink:href="astaroth__grid_8h.html" target="_top" xlink:title=" ">
<polygon fill="white" stroke="#666666" points="1637.95,-261 1547.95,-261 1547.95,-242 1637.95,-242 1637.95,-261"/>
<text text-anchor="middle" x="1592.95" y="-249" font-family="Helvetica,sans-Serif" font-size="10.00">astaroth_grid.h</text>
</a>
</g>
</g>
<!-- Node2&#45;&gt;Node43 -->
<g id="edge50_Node000002_Node000043" class="edge">
<title>Node2&#45;&gt;Node43</title>
<g id="a_edge50_Node000002_Node000043"><a xlink:title=" ">
<path fill="none" stroke="#63b8ff" d="M921.24,-304.26C1015.98,-300.51 1295.33,-287.92 1537.85,-261.02"/>
<polygon fill="#63b8ff" stroke="#63b8ff" points="1538.36,-264.48 1547.91,-259.89 1537.58,-257.53 1538.36,-264.48"/>
</a>
</g>
</g>
<!-- Node44 -->
<g id="Node000044" class="node">
<title>Node44</title>
<g id="a_Node000044"><a xlink:href="astaroth__node_8h.html" target="_top" xlink:title=" ">
<polygon fill="white" stroke="#666666" points="405.45,-261 310.45,-261 310.45,-242 405.45,-242 405.45,-261"/>
<text text-anchor="middle" x="357.95" y="-249" font-family="Helvetica,sans-Serif" font-size="10.00">astaroth_node.h</text>
</a>
</g>
</g>
<!-- Node2&#45;&gt;Node44 -->
<g id="edge51_Node000002_Node000044" class="edge">
<title>Node2&#45;&gt;Node44</title>
<g id="a_edge51_Node000002_Node000044"><a xlink:title=" ">
<path fill="none" stroke="#63b8ff" d="M854.91,-303.01C779.22,-297.18 587.23,-281.63 415.49,-261"/>
<polygon fill="#63b8ff" stroke="#63b8ff" points="415.86,-257.52 405.51,-259.79 415.02,-264.47 415.86,-257.52"/>
</a>
</g>
</g>
<!-- Node45 -->
<g id="Node000045" class="node">
<title>Node45</title>
<g id="a_Node000045"><a xlink:href="astaroth__device_8h.html" target="_top" xlink:title=" ">
<polygon fill="white" stroke="#666666" points="268.95,-261 164.95,-261 164.95,-242 268.95,-242 268.95,-261"/>
<text text-anchor="middle" x="216.95" y="-249" font-family="Helvetica,sans-Serif" font-size="10.00">astaroth_device.h</text>
</a>
</g>
</g>
<!-- Node2&#45;&gt;Node45 -->
<g id="edge52_Node000002_Node000045" class="edge">
<title>Node2&#45;&gt;Node45</title>
<g id="a_edge52_Node000002_Node000045"><a xlink:title=" ">
<path fill="none" stroke="#63b8ff" d="M854.89,-303.27C765.63,-297.18 512.34,-279.51 301.95,-261 294.56,-260.35 286.8,-259.63 279.11,-258.89"/>
<polygon fill="#63b8ff" stroke="#63b8ff" points="279.37,-255.4 269.08,-257.91 278.69,-262.36 279.37,-255.4"/>
</a>
</g>
</g>
<!-- Node48 -->
<g id="Node000048" class="node">
<title>Node48</title>
<g id="a_Node000048"><a xlink:href="astaroth__legacy_8h.html" target="_top" xlink:title=" ">
<polygon fill="white" stroke="#666666" points="638.95,-261 536.95,-261 536.95,-242 638.95,-242 638.95,-261"/>
<text text-anchor="middle" x="587.95" y="-249" font-family="Helvetica,sans-Serif" font-size="10.00">astaroth_legacy.h</text>
</a>
</g>
</g>
<!-- Node2&#45;&gt;Node48 -->
<g id="edge55_Node000002_Node000048" class="edge">
<title>Node2&#45;&gt;Node48</title>
<g id="a_edge55_Node000002_Node000048"><a xlink:title=" ">
<path fill="none" stroke="#63b8ff" d="M854.7,-299.63C804.41,-290.74 708.3,-273.76 646.22,-262.79"/>
<polygon fill="#63b8ff" stroke="#63b8ff" points="646.64,-259.31 636.18,-261.02 645.42,-266.21 646.64,-259.31"/>
</a>
</g>
</g>
<!-- Node49 -->
<g id="Node000049" class="node">
<title>Node49</title>
<g id="a_Node000049"><a xlink:title=" ">
<polygon fill="#e0e0e0" stroke="#999999" points="796.45,-261 657.45,-261 657.45,-242 796.45,-242 796.45,-261"/>
<text text-anchor="middle" x="726.95" y="-249" font-family="Helvetica,sans-Serif" font-size="10.00">device_set_input_decls.h</text>
</a>
</g>
</g>
<!-- Node2&#45;&gt;Node49 -->
<g id="edge56_Node000002_Node000049" class="edge">
<title>Node2&#45;&gt;Node49</title>
<g id="a_edge56_Node000002_Node000049"><a xlink:title=" ">
<path fill="none" stroke="#63b8ff" d="M862.08,-296.98C835.17,-288.13 792.83,-274.19 762.72,-264.28"/>
<polygon fill="#63b8ff" stroke="#63b8ff" points="763.61,-260.88 753.02,-261.08 761.43,-267.53 763.61,-260.88"/>
</a>
</g>
</g>
<!-- Node50 -->
<g id="Node000050" class="node">
<title>Node50</title>
<g id="a_Node000050"><a xlink:title=" ">
<polygon fill="#e0e0e0" stroke="#999999" points="960.95,-261 814.95,-261 814.95,-242 960.95,-242 960.95,-261"/>
<text text-anchor="middle" x="887.95" y="-249" font-family="Helvetica,sans-Serif" font-size="10.00">device_get_output_decls.h</text>
</a>
</g>
</g>
<!-- Node2&#45;&gt;Node50 -->
<g id="edge57_Node000002_Node000050" class="edge">
<title>Node2&#45;&gt;Node50</title>
<g id="a_edge57_Node000002_Node000050"><a xlink:title=" ">
<path fill="none" stroke="#63b8ff" d="M887.95,-296.75C887.95,-289.8 887.95,-279.85 887.95,-271.13"/>
<polygon fill="#63b8ff" stroke="#63b8ff" points="891.45,-271.09 887.95,-261.09 884.45,-271.09 891.45,-271.09"/>
</a>
</g>
</g>
<!-- Node51 -->
<g id="Node000051" class="node">
<title>Node51</title>
<g id="a_Node000051"><a xlink:title=" ">
<polygon fill="#e0e0e0" stroke="#999999" points="1118.95,-261 978.95,-261 978.95,-242 1118.95,-242 1118.95,-261"/>
<text text-anchor="middle" x="1048.95" y="-249" font-family="Helvetica,sans-Serif" font-size="10.00">device_get_input_decls.h</text>
</a>
</g>
</g>
<!-- Node2&#45;&gt;Node51 -->
<g id="edge58_Node000002_Node000051" class="edge">
<title>Node2&#45;&gt;Node51</title>
<g id="a_edge58_Node000002_Node000051"><a xlink:title=" ">
<path fill="none" stroke="#63b8ff" d="M913.82,-296.98C940.73,-288.13 983.07,-274.19 1013.18,-264.28"/>
<polygon fill="#63b8ff" stroke="#63b8ff" points="1014.48,-267.53 1022.88,-261.08 1012.29,-260.88 1014.48,-267.53"/>
</a>
</g>
</g>
<!-- Node52 -->
<g id="Node000052" class="node">
<title>Node52</title>
<g id="a_Node000052"><a xlink:title=" ">
<polygon fill="#e0e0e0" stroke="#999999" points="1266.95,-261 1136.95,-261 1136.95,-242 1266.95,-242 1266.95,-261"/>
<text text-anchor="middle" x="1201.95" y="-249" font-family="Helvetica,sans-Serif" font-size="10.00">get_vtxbufs_declares.h</text>
</a>
</g>
</g>
<!-- Node2&#45;&gt;Node52 -->
<g id="edge59_Node000002_Node000052" class="edge">
<title>Node2&#45;&gt;Node52</title>
<g id="a_edge59_Node000002_Node000052"><a xlink:title=" ">
<path fill="none" stroke="#63b8ff" d="M920.96,-299.93C973.12,-291.12 1075.42,-273.86 1141.14,-262.76"/>
<polygon fill="#63b8ff" stroke="#63b8ff" points="1142.08,-266.16 1151.36,-261.04 1140.91,-259.25 1142.08,-266.16"/>
</a>
</g>
</g>
<!-- Node53 -->
<g id="Node000053" class="node">
<title>Node53</title>
<g id="a_Node000053"><a xlink:href="astaroth__runtime__compilation_8h.html" target="_top" xlink:title=" ">
<polygon fill="white" stroke="#666666" points="1458.45,-261 1285.45,-261 1285.45,-242 1458.45,-242 1458.45,-261"/>
<text text-anchor="middle" x="1371.95" y="-249" font-family="Helvetica,sans-Serif" font-size="10.00">astaroth_runtime_compilation.h</text>
</a>
</g>
</g>
<!-- Node2&#45;&gt;Node53 -->
<g id="edge60_Node000002_Node000053" class="edge">
<title>Node2&#45;&gt;Node53</title>
<g id="a_edge60_Node000002_Node000053"><a xlink:title=" ">
<path fill="none" stroke="#63b8ff" d="M921.22,-301.86C995.16,-293.76 1175.18,-274.05 1284.02,-262.13"/>
<polygon fill="#63b8ff" stroke="#63b8ff" points="1284.44,-265.6 1294,-261.04 1283.68,-258.65 1284.44,-265.6"/>
</a>
</g>
</g>
<!-- Node54 -->
<g id="Node000054" class="node">
<title>Node54</title>
<g id="a_Node000054"><a xlink:title=" ">
<polygon fill="#e0e0e0" stroke="#999999" points="1529.45,-261 1476.45,-261 1476.45,-242 1529.45,-242 1529.45,-261"/>
<text text-anchor="middle" x="1502.95" y="-249" font-family="Helvetica,sans-Serif" font-size="10.00">string.h</text>
</a>
</g>
</g>
<!-- Node2&#45;&gt;Node54 -->
<g id="edge61_Node000002_Node000054" class="edge">
<title>Node2&#45;&gt;Node54</title>
<g id="a_edge61_Node000002_Node000054"><a xlink:title=" ">
<path fill="none" stroke="#63b8ff" d="M921.19,-304.83C1008.91,-302.65 1253.92,-294.01 1466.21,-261.03"/>
<polygon fill="#63b8ff" stroke="#63b8ff" points="1466.95,-264.46 1476.29,-259.45 1465.87,-257.54 1466.95,-264.46"/>
</a>
</g>
</g>
<!-- Node4 -->
<g id="Node000004" class="node">
<title>Node4</title>
<g id="a_Node000004"><a xlink:title=" ">
<polygon fill="#e0e0e0" stroke="#999999" points="458.95,-74 396.95,-74 396.95,-55 458.95,-55 458.95,-74"/>
<text text-anchor="middle" x="427.95" y="-62" font-family="Helvetica,sans-Serif" font-size="10.00">stdbool.h</text>
</a>
</g>
</g>
<!-- Node3&#45;&gt;Node4 -->
<g id="edge3_Node000003_Node000004" class="edge">
<title>Node3&#45;&gt;Node4</title>
<g id="a_edge3_Node000003_Node000004"><a xlink:title=" ">
<path fill="none" stroke="#63b8ff" d="M423.37,-242.18C385.77,-234.51 337.73,-221.93 325.95,-206 300.59,-171.69 302.58,-145.7 325.95,-110 333.48,-98.5 364.16,-86.03 389.93,-77.23"/>
<polygon fill="#63b8ff" stroke="#63b8ff" points="391.12,-80.52 399.5,-74.04 388.91,-73.88 391.12,-80.52"/>
</a>
</g>
</g>
<!-- Node5 -->
<g id="Node000005" class="node">
<title>Node5</title>
<g id="a_Node000005"><a xlink:href="acc__runtime_8h.html" target="_top" xlink:title=" ">
<polygon fill="#fff0f0" stroke="red" points="1570.95,-200.5 1484.95,-200.5 1484.95,-181.5 1570.95,-181.5 1570.95,-200.5"/>
<text text-anchor="middle" x="1527.95" y="-188.5" font-family="Helvetica,sans-Serif" font-size="10.00">acc_runtime.h</text>
</a>
</g>
</g>
<!-- Node3&#45;&gt;Node5 -->
<g id="edge4_Node000003_Node000005" class="edge">
<title>Node3&#45;&gt;Node5</title>
<g id="a_edge4_Node000003_Node000005"><a xlink:title=" ">
<path fill="none" stroke="#63b8ff" d="M518.49,-243.05C521.69,-242.66 524.87,-242.31 527.95,-242 888.18,-206.22 1324.08,-195.57 1474.16,-192.84"/>
<polygon fill="#63b8ff" stroke="#63b8ff" points="1474.53,-196.33 1484.47,-192.65 1474.4,-189.33 1474.53,-196.33"/>
</a>
</g>
</g>
<!-- Node25 -->
<g id="Node000025" class="node">
<title>Node25</title>
<g id="a_Node000025"><a xlink:title=" ">
<polygon fill="#e0e0e0" stroke="#999999" points="473.45,-134.5 334.45,-134.5 334.45,-115.5 473.45,-115.5 473.45,-134.5"/>
<text text-anchor="middle" x="403.95" y="-122.5" font-family="Helvetica,sans-Serif" font-size="10.00">user_built&#45;in_constants.h</text>
</a>
</g>
</g>
<!-- Node3&#45;&gt;Node25 -->
<g id="edge48_Node000003_Node000025" class="edge">
<title>Node3&#45;&gt;Node25</title>
<g id="a_edge48_Node000003_Node000025"><a xlink:title=" ">
<path fill="none" stroke="#63b8ff" d="M474.17,-241.63C478.91,-227.02 486.05,-197.38 474.95,-176 466.44,-159.6 449.81,-147.44 434.78,-139.22"/>
<polygon fill="#63b8ff" stroke="#63b8ff" points="436.21,-136.03 425.71,-134.61 433.04,-142.27 436.21,-136.03"/>
</a>
</g>
</g>
<!-- Node39 -->
<g id="Node000039" class="node">
<title>Node39</title>
<g id="a_Node000039"><a xlink:href="func__define_8h.html" target="_top" xlink:title=" ">
<polygon fill="white" stroke="#666666" points="2725.95,-134.5 2643.95,-134.5 2643.95,-115.5 2725.95,-115.5 2725.95,-134.5"/>
<text text-anchor="middle" x="2684.95" y="-122.5" font-family="Helvetica,sans-Serif" font-size="10.00">func_define.h</text>
</a>
</g>
</g>
<!-- Node3&#45;&gt;Node39 -->
<g id="edge47_Node000003_Node000039" class="edge">
<title>Node3&#45;&gt;Node39</title>
<g id="a_edge47_Node000003_Node000039"><a xlink:title=" ">
<path fill="none" stroke="#63b8ff" d="M518.49,-243C521.69,-242.62 524.86,-242.28 527.95,-242 993.84,-199.43 1112.68,-228.82 1579.95,-206 2042.55,-183.41 2161.19,-203.6 2619.95,-140 2626.4,-139.11 2633.17,-137.92 2639.8,-136.63"/>
<polygon fill="#63b8ff" stroke="#63b8ff" points="2640.95,-139.96 2650.04,-134.52 2639.54,-133.11 2640.95,-139.96"/>
</a>
</g>
</g>
<!-- Node42 -->
<g id="Node000042" class="node">
<title>Node42</title>
<g id="a_Node000042"><a xlink:title=" ">
<polygon fill="#e0e0e0" stroke="#999999" points="465.45,-206 334.45,-206 334.45,-176 465.45,-176 465.45,-206"/>
<text text-anchor="start" x="342.45" y="-194" font-family="Helvetica,sans-Serif" font-size="10.00">user_builtin_non_scalar</text>
<text text-anchor="middle" x="399.95" y="-183" font-family="Helvetica,sans-Serif" font-size="10.00">_constants.h</text>
</a>
</g>
</g>
<!-- Node3&#45;&gt;Node42 -->
<g id="edge49_Node000003_Node000042" class="edge">
<title>Node3&#45;&gt;Node42</title>
<g id="a_edge49_Node000003_Node000042"><a xlink:title=" ">
<path fill="none" stroke="#63b8ff" d="M460.48,-241.87C451.2,-234.22 437.28,-222.76 425.13,-212.75"/>
<polygon fill="#63b8ff" stroke="#63b8ff" points="427.03,-209.77 417.08,-206.11 422.57,-215.17 427.03,-209.77"/>
</a>
</g>
</g>
<!-- Node5&#45;&gt;Node4 -->
<g id="edge6_Node000005_Node000004" class="edge">
<title>Node5&#45;&gt;Node4</title>
<g id="a_edge6_Node000005_Node000004"><a xlink:title=" ">
<path fill="none" stroke="#63b8ff" d="M1484.85,-189.41C1304.16,-186.71 612.89,-174.22 521.95,-140 519.74,-139.17 473.48,-102.12 446.7,-80.59"/>
<polygon fill="#63b8ff" stroke="#63b8ff" points="448.75,-77.75 438.76,-74.21 444.36,-83.21 448.75,-77.75"/>
</a>
</g>
</g>
<!-- Node6 -->
<g id="Node000006" class="node">
<title>Node6</title>
<g id="a_Node000006"><a xlink:title=" ">
<polygon fill="#e0e0e0" stroke="#999999" points="1402.95,-74 1352.95,-74 1352.95,-55 1402.95,-55 1402.95,-74"/>
<text text-anchor="middle" x="1377.95" y="-62" font-family="Helvetica,sans-Serif" font-size="10.00">stdio.h</text>
</a>
</g>
</g>
<!-- Node5&#45;&gt;Node6 -->
<g id="edge5_Node000005_Node000006" class="edge">
<title>Node5&#45;&gt;Node6</title>
<g id="a_edge5_Node000005_Node000006"><a xlink:title=" ">
<path fill="none" stroke="#63b8ff" d="M1571.01,-189.24C1746.4,-185.92 2399.14,-171.51 2428.95,-140 2438.11,-130.31 2438.18,-119.63 2428.95,-110 2393.04,-72.53 1591.95,-66.52 1413.13,-65.64"/>
<polygon fill="#63b8ff" stroke="#63b8ff" points="1412.98,-62.14 1402.97,-65.59 1412.95,-69.14 1412.98,-62.14"/>
</a>
</g>
</g>
<!-- Node7 -->
<g id="Node000007" class="node">
<title>Node7</title>
<g id="a_Node000007"><a xlink:href="device__headers_8h.html" target="_top" xlink:title=" ">
<polygon fill="white" stroke="#666666" points="2358.95,-74 2256.95,-74 2256.95,-55 2358.95,-55 2358.95,-74"/>
<text text-anchor="middle" x="2307.95" y="-62" font-family="Helvetica,sans-Serif" font-size="10.00">device_headers.h</text>
</a>
</g>
</g>
<!-- Node5&#45;&gt;Node7 -->
<g id="edge7_Node000005_Node000007" class="edge">
<title>Node5&#45;&gt;Node7</title>
<g id="a_edge7_Node000005_Node000007"><a xlink:title=" ">
<path fill="none" stroke="#63b8ff" d="M1571.22,-189.28C1749.02,-186.11 2415.53,-172.12 2445.95,-140 2475.44,-108.86 2416.41,-87.84 2366.62,-76.27"/>
<polygon fill="#63b8ff" stroke="#63b8ff" points="2367.33,-72.85 2356.81,-74.08 2365.81,-79.68 2367.33,-72.85"/>
</a>
</g>
</g>
<!-- Node10 -->
<g id="Node000010" class="node">
<title>Node10</title>
<g id="a_Node000010"><a xlink:title=" ">
<polygon fill="#e0e0e0" stroke="#999999" points="2668.45,-74 2573.45,-74 2573.45,-55 2668.45,-55 2668.45,-74"/>
<text text-anchor="middle" x="2620.95" y="-62" font-family="Helvetica,sans-Serif" font-size="10.00">builtin_enums.h</text>
</a>
</g>
</g>
<!-- Node5&#45;&gt;Node10 -->
<g id="edge10_Node000005_Node000010" class="edge">
<title>Node5&#45;&gt;Node10</title>
<g id="a_edge10_Node000005_Node000010"><a xlink:title=" ">
<path fill="none" stroke="#63b8ff" d="M1570.97,-189.35C1765.53,-186.23 2555.56,-171.66 2596.95,-140 2613.95,-127 2619.12,-101.8 2620.58,-84.33"/>
<polygon fill="#63b8ff" stroke="#63b8ff" points="2624.08,-84.33 2621.09,-74.17 2617.09,-83.98 2624.08,-84.33"/>
</a>
</g>
</g>
<!-- Node11 -->
<g id="Node000011" class="node">
<title>Node11</title>
<g id="a_Node000011"><a xlink:href="datatypes_8h.html" target="_top" xlink:title=" ">
<polygon fill="#fff0f0" stroke="red" points="2587.95,-134.5 2513.95,-134.5 2513.95,-115.5 2587.95,-115.5 2587.95,-134.5"/>
<text text-anchor="middle" x="2550.95" y="-122.5" font-family="Helvetica,sans-Serif" font-size="10.00">datatypes.h</text>
</a>
</g>
</g>
<!-- Node5&#45;&gt;Node11 -->
<g id="edge11_Node000005_Node000011" class="edge">
<title>Node5&#45;&gt;Node11</title>
<g id="a_edge11_Node000005_Node000011"><a xlink:title=" ">
<path fill="none" stroke="#63b8ff" d="M1570.99,-189.03C1734.48,-185.13 2317.07,-169.45 2499.95,-140 2504.69,-139.24 2509.62,-138.2 2514.46,-137.04"/>
<polygon fill="#63b8ff" stroke="#63b8ff" points="2515.39,-140.41 2524.19,-134.51 2513.64,-133.64 2515.39,-140.41"/>
</a>
</g>
</g>
<!-- Node5&#45;&gt;Node19 -->
<g id="edge20_Node000005_Node000019" class="edge">
<title>Node5&#45;&gt;Node19</title>
<g id="a_edge20_Node000005_Node000019"><a xlink:title=" ">
<path fill="none" stroke="#63b8ff" d="M1484.93,-190.39C1328.75,-191.34 777.13,-190.68 325.95,-140 313.58,-138.61 300.19,-136.39 288.14,-134.12"/>
<polygon fill="#63b8ff" stroke="#63b8ff" points="288.45,-130.61 277.96,-132.13 287.11,-137.48 288.45,-130.61"/>
</a>
</g>
</g>
<!-- Node23 -->
<g id="Node000023" class="node">
<title>Node23</title>
<g id="a_Node000023"><a xlink:title=" ">
<polygon fill="#e0e0e0" stroke="#999999" points="617.45,-134.5 530.45,-134.5 530.45,-115.5 617.45,-115.5 617.45,-134.5"/>
<text text-anchor="middle" x="573.95" y="-122.5" font-family="Helvetica,sans-Serif" font-size="10.00">user_defines.h</text>
</a>
</g>
</g>
<!-- Node5&#45;&gt;Node23 -->
<g id="edge29_Node000005_Node000023" class="edge">
<title>Node5&#45;&gt;Node23</title>
<g id="a_edge29_Node000005_Node000023"><a xlink:title=" ">
<path fill="none" stroke="#63b8ff" d="M1484.9,-188.77C1329.17,-184.14 795.43,-166.64 626.95,-140 622.1,-139.23 617.04,-138.2 612.07,-137.05"/>
<polygon fill="#63b8ff" stroke="#63b8ff" points="612.61,-133.58 602.06,-134.56 610.91,-140.37 612.61,-133.58"/>
</a>
</g>
</g>
<!-- Node24 -->
<g id="Node000024" class="node">
<title>Node24</title>
<g id="a_Node000024"><a xlink:title=" ">
<polygon fill="#e0e0e0" stroke="#999999" points="721.95,-134.5 635.95,-134.5 635.95,-115.5 721.95,-115.5 721.95,-134.5"/>
<text text-anchor="middle" x="678.95" y="-122.5" font-family="Helvetica,sans-Serif" font-size="10.00">profiles_info.h</text>
</a>
</g>
</g>
<!-- Node5&#45;&gt;Node24 -->
<g id="edge30_Node000005_Node000024" class="edge">
<title>Node5&#45;&gt;Node24</title>
<g id="a_edge30_Node000005_Node000024"><a xlink:title=" ">
<path fill="none" stroke="#63b8ff" d="M1484.91,-190.24C1364.89,-190.28 1016.6,-186.08 731.95,-140 727.1,-139.21 722.05,-138.18 717.07,-137.02"/>
<polygon fill="#63b8ff" stroke="#63b8ff" points="717.61,-133.55 707.06,-134.52 715.92,-140.34 717.61,-133.55"/>
</a>
</g>
</g>
<!-- Node5&#45;&gt;Node25 -->
<g id="edge31_Node000005_Node000025" class="edge">
<title>Node5&#45;&gt;Node25</title>
<g id="a_edge31_Node000005_Node000025"><a xlink:title=" ">
<path fill="none" stroke="#63b8ff" d="M1484.72,-189.73C1342,-188.46 873.04,-181.2 487.95,-140 478.67,-139.01 468.85,-137.65 459.33,-136.17"/>
<polygon fill="#63b8ff" stroke="#63b8ff" points="459.59,-132.67 449.16,-134.53 458.47,-139.58 459.59,-132.67"/>
</a>
</g>
</g>
<!-- Node26 -->
<g id="Node000026" class="node">
<title>Node26</title>
<g id="a_Node000026"><a xlink:href="func__attributes_8h.html" target="_top" xlink:title=" ">
<polygon fill="white" stroke="#666666" points="839.45,-134.5 740.45,-134.5 740.45,-115.5 839.45,-115.5 839.45,-134.5"/>
<text text-anchor="middle" x="789.95" y="-122.5" font-family="Helvetica,sans-Serif" font-size="10.00">func_attributes.h</text>
</a>
</g>
</g>
<!-- Node5&#45;&gt;Node26 -->
<g id="edge32_Node000005_Node000026" class="edge">
<title>Node5&#45;&gt;Node26</title>
<g id="a_edge32_Node000005_Node000026"><a xlink:title=" ">
<path fill="none" stroke="#63b8ff" d="M1484.78,-189.21C1376.93,-186.7 1087.26,-176.81 848.95,-140 843.42,-139.15 837.65,-138.04 831.97,-136.83"/>
<polygon fill="#63b8ff" stroke="#63b8ff" points="832.45,-133.35 821.92,-134.57 830.9,-140.18 832.45,-133.35"/>
</a>
</g>
</g>
<!-- Node27 -->
<g id="Node000027" class="node">
<title>Node27</title>
<g id="a_Node000027"><a xlink:title=" ">
<polygon fill="#e0e0e0" stroke="#999999" points="982.45,-134.5 857.45,-134.5 857.45,-115.5 982.45,-115.5 982.45,-134.5"/>
<text text-anchor="middle" x="919.95" y="-122.5" font-family="Helvetica,sans-Serif" font-size="10.00">user_input_typedefs.h</text>
</a>
</g>
</g>
<!-- Node5&#45;&gt;Node27 -->
<g id="edge33_Node000005_Node000027" class="edge">
<title>Node5&#45;&gt;Node27</title>
<g id="a_edge33_Node000005_Node000027"><a xlink:title=" ">
<path fill="none" stroke="#63b8ff" d="M1484.7,-187.42C1393.36,-181.66 1174.2,-166.15 991.95,-140 984.85,-138.98 977.38,-137.73 970.05,-136.4"/>
<polygon fill="#63b8ff" stroke="#63b8ff" points="970.67,-132.96 960.2,-134.56 969.38,-139.84 970.67,-132.96"/>
</a>
</g>
</g>
<!-- Node28 -->
<g id="Node000028" class="node">
<title>Node28</title>
<g id="a_Node000028"><a xlink:title=" ">
<polygon fill="#e0e0e0" stroke="#999999" points="1083.45,-134.5 1000.45,-134.5 1000.45,-115.5 1083.45,-115.5 1083.45,-134.5"/>
<text text-anchor="middle" x="1041.95" y="-122.5" font-family="Helvetica,sans-Serif" font-size="10.00">output_decl.h</text>
</a>
</g>
</g>
<!-- Node5&#45;&gt;Node28 -->
<g id="edge34_Node000005_Node000028" class="edge">
<title>Node5&#45;&gt;Node28</title>
<g id="a_edge34_Node000005_Node000028"><a xlink:title=" ">
<path fill="none" stroke="#63b8ff" d="M1484.71,-187.24C1406.13,-181.73 1234.94,-167.48 1092.95,-140 1088.74,-139.19 1084.37,-138.2 1080.04,-137.14"/>
<polygon fill="#63b8ff" stroke="#63b8ff" points="1080.65,-133.68 1070.09,-134.56 1078.89,-140.46 1080.65,-133.68"/>
</a>
</g>
</g>
<!-- Node29 -->
<g id="Node000029" class="node">
<title>Node29</title>
<g id="a_Node000029"><a xlink:title=" ">
<polygon fill="#e0e0e0" stroke="#999999" points="1217.95,-134.5 1101.95,-134.5 1101.95,-115.5 1217.95,-115.5 1217.95,-134.5"/>
<text text-anchor="middle" x="1159.95" y="-122.5" font-family="Helvetica,sans-Serif" font-size="10.00">comp_loaded_decl.h</text>
</a>
</g>
</g>
<!-- Node5&#45;&gt;Node29 -->
<g id="edge35_Node000005_Node000029" class="edge">
<title>Node5&#45;&gt;Node29</title>
<g id="a_edge35_Node000005_Node000029"><a xlink:title=" ">
<path fill="none" stroke="#63b8ff" d="M1484.74,-183.4C1426.19,-174.32 1318.46,-157.15 1226.95,-140 1221.26,-138.93 1215.32,-137.77 1209.42,-136.58"/>
<polygon fill="#63b8ff" stroke="#63b8ff" points="1210.08,-133.14 1199.58,-134.56 1208.67,-140 1210.08,-133.14"/>
</a>
</g>
</g>
<!-- Node30 -->
<g id="Node000030" class="node">
<title>Node30</title>
<g id="a_Node000030"><a xlink:title=" ">
<polygon fill="#e0e0e0" stroke="#999999" points="1313.95,-134.5 1235.95,-134.5 1235.95,-115.5 1313.95,-115.5 1313.95,-134.5"/>
<text text-anchor="middle" x="1274.95" y="-122.5" font-family="Helvetica,sans-Serif" font-size="10.00">comp_decl.h</text>
</a>
</g>
</g>
<!-- Node5&#45;&gt;Node30 -->
<g id="edge36_Node000005_Node000030" class="edge">
<title>Node5&#45;&gt;Node30</title>
<g id="a_edge36_Node000005_Node000030"><a xlink:title=" ">
<path fill="none" stroke="#63b8ff" d="M1490.79,-181.46C1449.62,-171.88 1381.34,-155.63 1322.95,-140 1319.77,-139.15 1316.47,-138.24 1313.16,-137.31"/>
<polygon fill="#63b8ff" stroke="#63b8ff" points="1313.9,-133.88 1303.32,-134.5 1311.97,-140.61 1313.9,-133.88"/>
</a>
</g>
</g>
<!-- Node31 -->
<g id="Node000031" class="node">
<title>Node31</title>
<g id="a_Node000031"><a xlink:title=" ">
<polygon fill="#e0e0e0" stroke="#999999" points="1439.95,-134.5 1331.95,-134.5 1331.95,-115.5 1439.95,-115.5 1439.95,-134.5"/>
<text text-anchor="middle" x="1385.95" y="-122.5" font-family="Helvetica,sans-Serif" font-size="10.00">info_loaded_decl.h</text>
</a>
</g>
</g>
<!-- Node5&#45;&gt;Node31 -->
<g id="edge37_Node000005_Node000031" class="edge">
<title>Node5&#45;&gt;Node31</title>
<g id="a_edge37_Node000005_Node000031"><a xlink:title=" ">
<path fill="none" stroke="#63b8ff" d="M1508.8,-181.37C1484.56,-170.44 1442.58,-151.52 1414.54,-138.88"/>
<polygon fill="#63b8ff" stroke="#63b8ff" points="1415.81,-135.62 1405.25,-134.7 1412.93,-142 1415.81,-135.62"/>
</a>
</g>
</g>
<!-- Node32 -->
<g id="Node000032" class="node">
<title>Node32</title>
<g id="a_Node000032"><a xlink:title=" ">
<polygon fill="#e0e0e0" stroke="#999999" points="1597.95,-134.5 1457.95,-134.5 1457.95,-115.5 1597.95,-115.5 1597.95,-134.5"/>
<text text-anchor="middle" x="1527.95" y="-122.5" font-family="Helvetica,sans-Serif" font-size="10.00">device_mesh_info_decl.h</text>
</a>
</g>
</g>
<!-- Node5&#45;&gt;Node32 -->
<g id="edge38_Node000005_Node000032" class="edge">
<title>Node5&#45;&gt;Node32</title>
<g id="a_edge38_Node000005_Node000032"><a xlink:title=" ">
<path fill="none" stroke="#63b8ff" d="M1527.95,-181.37C1527.95,-172.16 1527.95,-157.29 1527.95,-145.27"/>
<polygon fill="#63b8ff" stroke="#63b8ff" points="1531.45,-144.91 1527.95,-134.91 1524.45,-144.91 1531.45,-144.91"/>
</a>
</g>
</g>
<!-- Node33 -->
<g id="Node000033" class="node">
<title>Node33</title>
<g id="a_Node000033"><a xlink:title=" ">
<polygon fill="#e0e0e0" stroke="#999999" points="1693.45,-134.5 1616.45,-134.5 1616.45,-115.5 1693.45,-115.5 1693.45,-134.5"/>
<text text-anchor="middle" x="1654.95" y="-122.5" font-family="Helvetica,sans-Serif" font-size="10.00">array_decl.h</text>
</a>
</g>
</g>
<!-- Node5&#45;&gt;Node33 -->
<g id="edge39_Node000005_Node000033" class="edge">
<title>Node5&#45;&gt;Node33</title>
<g id="a_edge39_Node000005_Node000033"><a xlink:title=" ">
<path fill="none" stroke="#63b8ff" d="M1545.08,-181.37C1566.57,-170.54 1603.65,-151.85 1628.72,-139.22"/>
<polygon fill="#63b8ff" stroke="#63b8ff" points="1630.33,-142.32 1637.69,-134.7 1627.18,-136.07 1630.33,-142.32"/>
</a>
</g>
</g>
<!-- Node34 -->
<g id="Node000034" class="node">
<title>Node34</title>
<g id="a_Node000034"><a xlink:title=" ">
<polygon fill="#e0e0e0" stroke="#999999" points="1787.95,-134.5 1711.95,-134.5 1711.95,-115.5 1787.95,-115.5 1787.95,-134.5"/>
<text text-anchor="middle" x="1749.95" y="-122.5" font-family="Helvetica,sans-Serif" font-size="10.00">input_decl.h</text>
</a>
</g>
</g>
<!-- Node5&#45;&gt;Node34 -->
<g id="edge40_Node000005_Node000034" class="edge">
<title>Node5&#45;&gt;Node34</title>
<g id="a_edge40_Node000005_Node000034"><a xlink:title=" ">
<path fill="none" stroke="#63b8ff" d="M1558.33,-181.43C1593.26,-171.55 1652.3,-154.78 1702.95,-140 1705.71,-139.2 1708.56,-138.36 1711.42,-137.51"/>
<polygon fill="#63b8ff" stroke="#63b8ff" points="1712.54,-140.83 1721.13,-134.64 1710.55,-134.12 1712.54,-140.83"/>
</a>
</g>
</g>
<!-- Node35 -->
<g id="Node000035" class="node">
<title>Node35</title>
<g id="a_Node000035"><a xlink:href="ac__helpers_8h.html" target="_top" xlink:title=" ">
<polygon fill="white" stroke="#666666" points="1883.95,-134.5 1805.95,-134.5 1805.95,-115.5 1883.95,-115.5 1883.95,-134.5"/>
<text text-anchor="middle" x="1844.95" y="-122.5" font-family="Helvetica,sans-Serif" font-size="10.00">ac_helpers.h</text>
</a>
</g>
</g>
<!-- Node5&#45;&gt;Node35 -->
<g id="edge41_Node000005_Node000035" class="edge">
<title>Node5&#45;&gt;Node35</title>
<g id="a_edge41_Node000005_Node000035"><a xlink:title=" ">
<path fill="none" stroke="#63b8ff" d="M1571.09,-183.35C1624.46,-174.8 1717.93,-158.82 1796.95,-140 1800.39,-139.18 1803.95,-138.27 1807.51,-137.31"/>
<polygon fill="#63b8ff" stroke="#63b8ff" points="1808.72,-140.61 1817.41,-134.54 1806.84,-133.86 1808.72,-140.61"/>
</a>
</g>
</g>
<!-- Node36 -->
<g id="Node000036" class="node">
<title>Node36</title>
<g id="a_Node000036"><a xlink:title=" ">
<polygon fill="#e0e0e0" stroke="#999999" points="2019.95,-140 1901.95,-140 1901.95,-110 2019.95,-110 2019.95,-140"/>
<text text-anchor="start" x="1909.95" y="-128" font-family="Helvetica,sans-Serif" font-size="10.00">scalar_reduce_buffer</text>
<text text-anchor="middle" x="1960.95" y="-117" font-family="Helvetica,sans-Serif" font-size="10.00">_defs.h</text>
</a>
</g>
</g>
<!-- Node5&#45;&gt;Node36 -->
<g id="edge42_Node000005_Node000036" class="edge">
<title>Node5&#45;&gt;Node36</title>
<g id="a_edge42_Node000005_Node000036"><a xlink:title=" ">
<path fill="none" stroke="#63b8ff" d="M1571.08,-185.04C1637.71,-177.17 1769.9,-160.73 1891.78,-140.13"/>
<polygon fill="#63b8ff" stroke="#63b8ff" points="1892.39,-143.58 1901.66,-138.45 1891.21,-136.68 1892.39,-143.58"/>
</a>
</g>
</g>
<!-- Node37 -->
<g id="Node000037" class="node">
<title>Node37</title>
<g id="a_Node000037"><a xlink:title=" ">
<polygon fill="#e0e0e0" stroke="#999999" points="2161.45,-140 2038.45,-140 2038.45,-110 2161.45,-110 2161.45,-140"/>
<text text-anchor="start" x="2046.45" y="-128" font-family="Helvetica,sans-Serif" font-size="10.00">scalar_reduce_buffers</text>
<text text-anchor="middle" x="2099.95" y="-117" font-family="Helvetica,sans-Serif" font-size="10.00">_in_vba.h</text>
</a>
</g>
</g>
<!-- Node5&#45;&gt;Node37 -->
<g id="edge43_Node000005_Node000037" class="edge">
<title>Node5&#45;&gt;Node37</title>
<g id="a_edge43_Node000005_Node000037"><a xlink:title=" ">
<path fill="none" stroke="#63b8ff" d="M1571.01,-187.09C1656.3,-181.03 1852.87,-165.57 2028.5,-139.96"/>
<polygon fill="#63b8ff" stroke="#63b8ff" points="2029.06,-143.42 2038.44,-138.5 2028.04,-136.5 2029.06,-143.42"/>
</a>
</g>
</g>
<!-- Node38 -->
<g id="Node000038" class="node">
<title>Node38</title>
<g id="a_Node000038"><a xlink:href="astaroth__analysis_8h.html" target="_top" xlink:title=" ">
<polygon fill="white" stroke="#666666" points="2291.95,-134.5 2179.95,-134.5 2179.95,-115.5 2291.95,-115.5 2291.95,-134.5"/>
<text text-anchor="middle" x="2235.95" y="-122.5" font-family="Helvetica,sans-Serif" font-size="10.00">astaroth_analysis.h</text>
</a>
</g>
</g>
<!-- Node5&#45;&gt;Node38 -->
<g id="edge44_Node000005_Node000038" class="edge">
<title>Node5&#45;&gt;Node38</title>
<g id="a_edge44_Node000005_Node000038"><a xlink:title=" ">
<path fill="none" stroke="#63b8ff" d="M1571.07,-188.65C1674.85,-184.97 1946.59,-172.73 2170.95,-140 2177.25,-139.08 2183.85,-137.91 2190.33,-136.64"/>
<polygon fill="#63b8ff" stroke="#63b8ff" points="2191.26,-140.02 2200.35,-134.57 2189.85,-133.16 2191.26,-140.02"/>
</a>
</g>
</g>
<!-- Node5&#45;&gt;Node39 -->
<g id="edge45_Node000005_Node000039" class="edge">
<title>Node5&#45;&gt;Node39</title>
<g id="a_edge45_Node000005_Node000039"><a xlink:title=" ">
<path fill="none" stroke="#63b8ff" d="M1571.17,-189.22C1748.41,-185.82 2420.14,-171.13 2629.95,-140 2635.18,-139.22 2640.63,-138.16 2645.98,-136.96"/>
<polygon fill="#63b8ff" stroke="#63b8ff" points="2647.16,-140.28 2656.06,-134.53 2645.52,-133.47 2647.16,-140.28"/>
</a>
</g>
</g>
<!-- Node40 -->
<g id="Node000040" class="node">
<title>Node40</title>
<g id="a_Node000040"><a xlink:href="common__kernels_8h.html" target="_top" xlink:title=" ">
<polygon fill="white" stroke="#666666" points="2419.45,-134.5 2310.45,-134.5 2310.45,-115.5 2419.45,-115.5 2419.45,-134.5"/>
<text text-anchor="middle" x="2364.95" y="-122.5" font-family="Helvetica,sans-Serif" font-size="10.00">common_kernels.h</text>
</a>
</g>
</g>
<!-- Node5&#45;&gt;Node40 -->
<g id="edge46_Node000005_Node000040" class="edge">
<title>Node5&#45;&gt;Node40</title>
<g id="a_edge46_Node000005_Node000040"><a xlink:title=" ">
<path fill="none" stroke="#63b8ff" d="M1571.35,-189.48C1689.21,-187.58 2024.96,-178.89 2300.95,-140 2307.31,-139.1 2313.97,-137.92 2320.5,-136.63"/>
<polygon fill="#63b8ff" stroke="#63b8ff" points="2321.51,-139.99 2330.58,-134.52 2320.08,-133.14 2321.51,-139.99"/>
</a>
</g>
</g>
<!-- Node8 -->
<g id="Node000008" class="node">
<title>Node8</title>
<g id="a_Node000008"><a xlink:title=" ">
<polygon fill="#e0e0e0" stroke="#999999" points="2487.45,-19 2374.45,-19 2374.45,0 2487.45,0 2487.45,-19"/>
<text text-anchor="middle" x="2430.95" y="-7" font-family="Helvetica,sans-Serif" font-size="10.00">cuda_runtime_api.h</text>
</a>
</g>
</g>
<!-- Node7&#45;&gt;Node8 -->
<g id="edge8_Node000007_Node000008" class="edge">
<title>Node7&#45;&gt;Node8</title>
<g id="a_edge8_Node000007_Node000008"><a xlink:title=" ">
<path fill="none" stroke="#63b8ff" d="M2327.71,-54.98C2347.68,-46.38 2378.76,-32.99 2401.6,-23.15"/>
<polygon fill="#63b8ff" stroke="#63b8ff" points="2403.03,-26.34 2410.83,-19.17 2400.26,-19.91 2403.03,-26.34"/>
</a>
</g>
</g>
<!-- Node9 -->
<g id="Node000009" class="node">
<title>Node9</title>
<g id="a_Node000009"><a xlink:title=" ">
<polygon fill="#e0e0e0" stroke="#999999" points="2345.95,-19 2269.95,-19 2269.95,0 2345.95,0 2345.95,-19"/>
<text text-anchor="middle" x="2307.95" y="-7" font-family="Helvetica,sans-Serif" font-size="10.00">cuda_fp16.h</text>
</a>
</g>
</g>
<!-- Node7&#45;&gt;Node9 -->
<g id="edge9_Node000007_Node000009" class="edge">
<title>Node7&#45;&gt;Node9</title>
<g id="a_edge9_Node000007_Node000009"><a xlink:title=" ">
<path fill="none" stroke="#63b8ff" d="M2307.95,-54.75C2307.95,-47.8 2307.95,-37.85 2307.95,-29.13"/>
<polygon fill="#63b8ff" stroke="#63b8ff" points="2311.45,-29.09 2307.95,-19.09 2304.45,-29.09 2311.45,-29.09"/>
</a>
</g>
</g>
<!-- Node11&#45;&gt;Node7 -->
<g id="edge13_Node000011_Node000007" class="edge">
<title>Node11&#45;&gt;Node7</title>
<g id="a_edge13_Node000011_Node000007"><a xlink:title=" ">
<path fill="none" stroke="#63b8ff" d="M2520.53,-115.43C2513.77,-113.59 2506.63,-111.69 2499.95,-110 2451.54,-97.75 2395.92,-85 2357.04,-76.31"/>
<polygon fill="#63b8ff" stroke="#63b8ff" points="2357.56,-72.84 2347.04,-74.08 2356.04,-79.67 2357.56,-72.84"/>
</a>
</g>
</g>
<!-- Node11&#45;&gt;Node8 -->
<g id="edge14_Node000011_Node000008" class="edge">
<title>Node11&#45;&gt;Node8</title>
<g id="a_edge14_Node000011_Node000008"><a xlink:title=" ">
<path fill="none" stroke="#63b8ff" d="M2543.63,-115.06C2532.32,-101.47 2509.62,-75.06 2487.95,-55 2476.47,-44.37 2462.65,-33.54 2451.49,-25.22"/>
<polygon fill="#63b8ff" stroke="#63b8ff" points="2453.35,-22.24 2443.22,-19.15 2449.21,-27.89 2453.35,-22.24"/>
</a>
</g>
</g>
<!-- Node11&#45;&gt;Node10 -->
<g id="edge16_Node000011_Node000010" class="edge">
<title>Node11&#45;&gt;Node10</title>
<g id="a_edge16_Node000011_Node000010"><a xlink:title=" ">
<path fill="none" stroke="#63b8ff" d="M2561.28,-115.37C2572.14,-106.3 2589.44,-91.84 2602.62,-80.82"/>
<polygon fill="#63b8ff" stroke="#63b8ff" points="2605.15,-83.27 2610.58,-74.17 2600.66,-77.89 2605.15,-83.27"/>
</a>
</g>
</g>
<!-- Node11&#45;&gt;Node13 -->
<g id="edge12_Node000011_Node000013" class="edge">
<title>Node11&#45;&gt;Node13</title>
<g id="a_edge12_Node000011_Node000013"><a xlink:title=" ">
<path fill="none" stroke="#63b8ff" d="M2577.71,-115.49C2609.82,-105.28 2663.79,-88.13 2699.38,-76.81"/>
<polygon fill="#63b8ff" stroke="#63b8ff" points="2700.88,-80 2709.35,-73.64 2698.76,-73.33 2700.88,-80"/>
</a>
</g>
</g>
<!-- Node15 -->
<g id="Node000015" class="node">
<title>Node15</title>
<g id="a_Node000015"><a xlink:href="acreal_8h.html" target="_top" xlink:title=" ">
<polygon fill="white" stroke="#666666" points="2566.95,-19 2510.95,-19 2510.95,0 2566.95,0 2566.95,-19"/>
<text text-anchor="middle" x="2538.95" y="-7" font-family="Helvetica,sans-Serif" font-size="10.00">acreal.h</text>
</a>
</g>
</g>
<!-- Node11&#45;&gt;Node15 -->
<g id="edge15_Node000011_Node000015" class="edge">
<title>Node11&#45;&gt;Node15</title>
<g id="a_edge15_Node000011_Node000015"><a xlink:title=" ">
<path fill="none" stroke="#63b8ff" d="M2550.05,-115.47C2548.12,-97.23 2543.56,-54.07 2540.92,-29.14"/>
<polygon fill="#63b8ff" stroke="#63b8ff" points="2544.4,-28.71 2539.86,-19.13 2537.43,-29.44 2544.4,-28.71"/>
</a>
</g>
</g>
<!-- Node17 -->
<g id="Node000017" class="node">
<title>Node17</title>
<g id="a_Node000017"><a xlink:href="host__datatypes_8h.html" target="_top" xlink:title=" ">
<polygon fill="white" stroke="#666666" points="2478.45,-74 2377.45,-74 2377.45,-55 2478.45,-55 2478.45,-74"/>
<text text-anchor="middle" x="2427.95" y="-62" font-family="Helvetica,sans-Serif" font-size="10.00">host_datatypes.h</text>
</a>
</g>
</g>
<!-- Node11&#45;&gt;Node17 -->
<g id="edge17_Node000011_Node000017" class="edge">
<title>Node11&#45;&gt;Node17</title>
<g id="a_edge17_Node000011_Node000017"><a xlink:title=" ">
<path fill="none" stroke="#63b8ff" d="M2533.07,-115.49C2512.57,-105.75 2478.76,-89.66 2455.03,-78.38"/>
<polygon fill="#63b8ff" stroke="#63b8ff" points="2456.39,-75.15 2445.86,-74.02 2453.39,-81.47 2456.39,-75.15"/>
</a>
</g>
</g>
<!-- Node17&#45;&gt;Node15 -->
<g id="edge18_Node000017_Node000015" class="edge">
<title>Node17&#45;&gt;Node15</title>
<g id="a_edge18_Node000017_Node000015"><a xlink:title=" ">
<path fill="none" stroke="#63b8ff" d="M2445.79,-54.98C2463.56,-46.5 2491.1,-33.35 2511.63,-23.54"/>
<polygon fill="#63b8ff" stroke="#63b8ff" points="2513.28,-26.64 2520.79,-19.17 2510.26,-20.32 2513.28,-26.64"/>
</a>
</g>
</g>
<!-- Node18 -->
<g id="Node000018" class="node">
<title>Node18</title>
<g id="a_Node000018"><a xlink:title=" ">
<polygon fill="#e0e0e0" stroke="#999999" points="1239.95,-19 1183.95,-19 1183.95,0 1239.95,0 1239.95,-19"/>
<text text-anchor="middle" x="1211.95" y="-7" font-family="Helvetica,sans-Serif" font-size="10.00">stddef.h</text>
</a>
</g>
</g>
<!-- Node17&#45;&gt;Node18 -->
<g id="edge19_Node000017_Node000018" class="edge">
<title>Node17&#45;&gt;Node18</title>
<g id="a_edge19_Node000017_Node000018"><a xlink:title=" ">
<path fill="none" stroke="#63b8ff" d="M2377.25,-55.95C2374.11,-55.59 2370.99,-55.27 2367.95,-55 1930.32,-15.68 1396.42,-11.07 1250.41,-10.56"/>
<polygon fill="#63b8ff" stroke="#63b8ff" points="1250.2,-7.05 1240.18,-10.52 1250.17,-14.05 1250.2,-7.05"/>
</a>
</g>
</g>
<!-- Node19&#45;&gt;Node4 -->
<g id="edge23_Node000019_Node000004" class="edge">
<title>Node19&#45;&gt;Node4</title>
<g id="a_edge23_Node000019_Node000004"><a xlink:title=" ">
<path fill="none" stroke="#63b8ff" d="M275.71,-115.39C281.08,-113.6 286.7,-111.74 291.95,-110 325.88,-98.79 364.62,-86.13 392.05,-77.19"/>
<polygon fill="#63b8ff" stroke="#63b8ff" points="393.19,-80.5 401.61,-74.07 391.02,-73.84 393.19,-80.5"/>
</a>
</g>
</g>
<!-- Node19&#45;&gt;Node6 -->
<g id="edge25_Node000019_Node000006" class="edge">
<title>Node19&#45;&gt;Node6</title>
<g id="a_edge25_Node000019_Node000006"><a xlink:title=" ">
<path fill="none" stroke="#63b8ff" d="M277.96,-117.87C292.25,-114.99 309.95,-111.8 325.95,-110 723.01,-65.25 1208.96,-64.48 1342.54,-65.21"/>
<polygon fill="#63b8ff" stroke="#63b8ff" points="1342.59,-68.71 1352.61,-65.27 1342.63,-61.71 1342.59,-68.71"/>
</a>
</g>
</g>
<!-- Node19&#45;&gt;Node7 -->
<g id="edge28_Node000019_Node000007" class="edge">
<title>Node19&#45;&gt;Node7</title>
<g id="a_edge28_Node000019_Node000007"><a xlink:title=" ">
<path fill="none" stroke="#63b8ff" d="M278.31,-117.66C292.53,-114.77 310.07,-111.63 325.95,-110 520.61,-90.01 1933.54,-70.42 2246.62,-66.29"/>
<polygon fill="#63b8ff" stroke="#63b8ff" points="2246.91,-69.79 2256.86,-66.16 2246.82,-62.79 2246.91,-69.79"/>
</a>
</g>
</g>
<!-- Node19&#45;&gt;Node17 -->
<g id="edge22_Node000019_Node000017" class="edge">
<title>Node19&#45;&gt;Node17</title>
<g id="a_edge22_Node000019_Node000017"><a xlink:title=" ">
<path fill="none" stroke="#63b8ff" d="M278.3,-117.63C292.53,-114.73 310.07,-111.59 325.95,-110 1225.82,-19.81 1461.38,-144.87 2367.25,-73.92"/>
<polygon fill="#63b8ff" stroke="#63b8ff" points="2367.57,-77.4 2377.26,-73.13 2367.02,-70.43 2367.57,-77.4"/>
</a>
</g>
</g>
<!-- Node19&#45;&gt;Node18 -->
<g id="edge21_Node000019_Node000018" class="edge">
<title>Node19&#45;&gt;Node18</title>
<g id="a_edge21_Node000019_Node000018"><a xlink:title=" ">
<path fill="none" stroke="#63b8ff" d="M229.7,-115.49C201.83,-102.66 157.43,-77.47 178.95,-55 213.99,-18.42 990.55,-11.75 1173.56,-10.68"/>
<polygon fill="#63b8ff" stroke="#63b8ff" points="1173.8,-14.18 1183.78,-10.63 1173.77,-7.18 1173.8,-14.18"/>
</a>
</g>
</g>
<!-- Node20 -->
<g id="Node000020" class="node">
<title>Node20</title>
<g id="a_Node000020"><a xlink:title=" ">
<polygon fill="#e0e0e0" stroke="#999999" points="241.45,-74 188.45,-74 188.45,-55 241.45,-55 241.45,-74"/>
<text text-anchor="middle" x="214.95" y="-62" font-family="Helvetica,sans-Serif" font-size="10.00">stdint.h</text>
</a>
</g>
</g>
<!-- Node19&#45;&gt;Node20 -->
<g id="edge24_Node000019_Node000020" class="edge">
<title>Node19&#45;&gt;Node20</title>
<g id="a_edge24_Node000019_Node000020"><a xlink:title=" ">
<path fill="none" stroke="#63b8ff" d="M244.79,-115.37C239.72,-106.9 231.85,-93.74 225.46,-83.07"/>
<polygon fill="#63b8ff" stroke="#63b8ff" points="228.27,-80.95 220.14,-74.17 222.27,-84.55 228.27,-80.95"/>
</a>
</g>
</g>
<!-- Node21 -->
<g id="Node000021" class="node">
<title>Node21</title>
<g id="a_Node000021"><a xlink:title=" ">
<polygon fill="#e0e0e0" stroke="#999999" points="312.45,-74 259.45,-74 259.45,-55 312.45,-55 312.45,-74"/>
<text text-anchor="middle" x="285.95" y="-62" font-family="Helvetica,sans-Serif" font-size="10.00">stdlib.h</text>
</a>
</g>
</g>
<!-- Node19&#45;&gt;Node21 -->
<g id="edge26_Node000019_Node000021" class="edge">
<title>Node19&#45;&gt;Node21</title>
<g id="a_edge26_Node000019_Node000021"><a xlink:title=" ">
<path fill="none" stroke="#63b8ff" d="M255.26,-115.37C260.53,-106.81 268.74,-93.47 275.34,-82.74"/>
<polygon fill="#63b8ff" stroke="#63b8ff" points="278.36,-84.52 280.62,-74.17 272.4,-80.85 278.36,-84.52"/>
</a>
</g>
</g>
<!-- Node22 -->
<g id="Node000022" class="node">
<title>Node22</title>
<g id="a_Node000022"><a xlink:title=" ">
<polygon fill="#e0e0e0" stroke="#999999" points="378.95,-74 330.95,-74 330.95,-55 378.95,-55 378.95,-74"/>
<text text-anchor="middle" x="354.95" y="-62" font-family="Helvetica,sans-Serif" font-size="10.00">time.h</text>
</a>
</g>
</g>
<!-- Node19&#45;&gt;Node22 -->
<g id="edge27_Node000019_Node000022" class="edge">
<title>Node19&#45;&gt;Node22</title>
<g id="a_edge27_Node000019_Node000022"><a xlink:title=" ">
<path fill="none" stroke="#63b8ff" d="M265.44,-115.37C282.58,-105.82 310.42,-90.31 330.51,-79.12"/>
<polygon fill="#63b8ff" stroke="#63b8ff" points="332.36,-82.09 339.39,-74.17 328.96,-75.98 332.36,-82.09"/>
</a>
</g>
</g>
<!-- Node46 -->
<g id="Node000046" class="node">
<title>Node46</title>
<g id="a_Node000046"><a xlink:title=" ">
<polygon fill="#e0e0e0" stroke="#999999" points="137.45,-206 18.45,-206 18.45,-176 137.45,-176 137.45,-206"/>
<text text-anchor="start" x="26.45" y="-194" font-family="Helvetica,sans-Serif" font-size="10.00">device_load_uniform</text>
<text text-anchor="middle" x="77.95" y="-183" font-family="Helvetica,sans-Serif" font-size="10.00">_decl.h</text>
</a>
</g>
</g>
<!-- Node45&#45;&gt;Node46 -->
<g id="edge53_Node000045_Node000046" class="edge">
<title>Node45&#45;&gt;Node46</title>
<g id="a_edge53_Node000045_Node000046"><a xlink:title=" ">
<path fill="none" stroke="#63b8ff" d="M196.74,-241.99C176.91,-233.65 146.05,-220.66 120.76,-210.02"/>
<polygon fill="#63b8ff" stroke="#63b8ff" points="121.94,-206.72 111.37,-206.06 119.23,-213.17 121.94,-206.72"/>
</a>
</g>
</g>
<!-- Node47 -->
<g id="Node000047" class="node">
<title>Node47</title>
<g id="a_Node000047"><a xlink:title=" ">
<polygon fill="#e0e0e0" stroke="#999999" points="277.95,-206 155.95,-206 155.95,-176 277.95,-176 277.95,-206"/>
<text text-anchor="start" x="163.95" y="-194" font-family="Helvetica,sans-Serif" font-size="10.00">device_store_uniform</text>
<text text-anchor="middle" x="216.95" y="-183" font-family="Helvetica,sans-Serif" font-size="10.00">_decl.h</text>
</a>
</g>
</g>
<!-- Node45&#45;&gt;Node47 -->
<g id="edge54_Node000045_Node000047" class="edge">
<title>Node45&#45;&gt;Node47</title>
<g id="a_edge54_Node000045_Node000047"><a xlink:title=" ">
<path fill="none" stroke="#63b8ff" d="M216.95,-241.87C216.95,-235.11 216.95,-225.35 216.95,-216.26"/>
<polygon fill="#63b8ff" stroke="#63b8ff" points="220.45,-216.11 216.95,-206.11 213.45,-216.11 220.45,-216.11"/>
</a>
</g>
</g>
</g>
</svg>
