<?xml version="1.0" encoding="UTF-8" standalone="no"?>
<!DOCTYPE svg PUBLIC "-//W3C//DTD SVG 1.1//EN"
 "http://www.w3.org/Graphics/SVG/1.1/DTD/svg11.dtd">
<!-- Generated by graphviz version 2.43.0 (0)
 -->
<!-- Title: src/utils/profiles.cc Pages: 1 -->
<svg width="3008pt" height="379pt"
 viewBox="0.00 0.00 3007.56 379.00" xmlns="http://www.w3.org/2000/svg" xmlns:xlink="http://www.w3.org/1999/xlink">
<g id="graph0" class="graph" transform="scale(1 1) rotate(0) translate(4 375)">
<title>src/utils/profiles.cc</title>
<!-- Node1 -->
<g id="Node000001" class="node">
<title>Node1</title>
<g id="a_Node000001"><a xlink:title="Brief info.">
<polygon fill="#999999" stroke="#666666" points="1608,-371 1501,-371 1501,-352 1608,-352 1608,-371"/>
<text text-anchor="middle" x="1554.5" y="-359" font-family="Helvetica,sans-Serif" font-size="10.00">src/utils/profiles.cc</text>
</a>
</g>
</g>
<!-- Node2 -->
<g id="Node000002" class="node">
<title>Node2</title>
<g id="a_Node000002"><a xlink:href="astaroth_8h.html" target="_top" xlink:title=" ">
<polygon fill="white" stroke="#666666" points="1012.5,-316 946.5,-316 946.5,-297 1012.5,-297 1012.5,-316"/>
<text text-anchor="middle" x="979.5" y="-304" font-family="Helvetica,sans-Serif" font-size="10.00">astaroth.h</text>
</a>
</g>
</g>
<!-- Node1&#45;&gt;Node2 -->
<g id="edge1_Node000001_Node000002" class="edge">
<title>Node1&#45;&gt;Node2</title>
<g id="a_edge1_Node000001_Node000002"><a xlink:title=" ">
<path fill="none" stroke="#63b8ff" d="M1500.92,-355.56C1387.72,-345.13 1126.11,-321.01 1022.7,-311.48"/>
<polygon fill="#63b8ff" stroke="#63b8ff" points="1022.89,-307.98 1012.61,-310.55 1022.25,-314.96 1022.89,-307.98"/>
</a>
</g>
</g>
<!-- Node14 -->
<g id="Node000014" class="node">
<title>Node14</title>
<g id="a_Node000014"><a xlink:title=" ">
<polygon fill="#e0e0e0" stroke="#999999" points="2638,-74 2587,-74 2587,-55 2638,-55 2638,-74"/>
<text text-anchor="middle" x="2612.5" y="-62" font-family="Helvetica,sans-Serif" font-size="10.00">math.h</text>
</a>
</g>
</g>
<!-- Node1&#45;&gt;Node14 -->
<g id="edge63_Node000001_Node000014" class="edge">
<title>Node1&#45;&gt;Node14</title>
<g id="a_edge63_Node000001_Node000014"><a xlink:title=" ">
<path fill="none" stroke="#63b8ff" d="M1608,-359.35C1869.15,-353.4 2997.5,-323.59 2997.5,-252.5 2997.5,-252.5 2997.5,-252.5 2997.5,-190 2997.5,-153.46 3005.75,-134.35 2978.5,-110 2930.32,-66.94 2730.48,-64.12 2648.17,-64.85"/>
<polygon fill="#63b8ff" stroke="#63b8ff" points="2648.01,-61.35 2638.05,-64.97 2648.09,-68.35 2648.01,-61.35"/>
</a>
</g>
</g>
<!-- Node20 -->
<g id="Node000020" class="node">
<title>Node20</title>
<g id="a_Node000020"><a xlink:href="errchk_8h.html" target="_top" xlink:title="Brief info.">
<polygon fill="white" stroke="#666666" points="882.5,-134.5 826.5,-134.5 826.5,-115.5 882.5,-115.5 882.5,-134.5"/>
<text text-anchor="middle" x="854.5" y="-122.5" font-family="Helvetica,sans-Serif" font-size="10.00">errchk.h</text>
</a>
</g>
</g>
<!-- Node1&#45;&gt;Node20 -->
<g id="edge62_Node000001_Node000020" class="edge">
<title>Node1&#45;&gt;Node20</title>
<g id="a_edge62_Node000001_Node000020"><a xlink:title=" ">
<path fill="none" stroke="#63b8ff" d="M1555.72,-351.95C1558.25,-330.81 1561.8,-275.39 1535.5,-242 1488.42,-182.21 1451.51,-193.71 1377.5,-176 1166.85,-125.61 1102.97,-186.81 891.5,-140 888.98,-139.44 886.4,-138.74 883.83,-137.96"/>
<polygon fill="#63b8ff" stroke="#63b8ff" points="884.74,-134.58 874.15,-134.63 882.47,-141.2 884.74,-134.58"/>
</a>
</g>
</g>
<!-- Node3 -->
<g id="Node000003" class="node">
<title>Node3</title>
<g id="a_Node000003"><a xlink:href="astaroth__base_8h.html" target="_top" xlink:title=" ">
<polygon fill="white" stroke="#666666" points="1293,-261 1198,-261 1198,-242 1293,-242 1293,-261"/>
<text text-anchor="middle" x="1245.5" y="-249" font-family="Helvetica,sans-Serif" font-size="10.00">astaroth_base.h</text>
</a>
</g>
</g>
<!-- Node2&#45;&gt;Node3 -->
<g id="edge2_Node000002_Node000003" class="edge">
<title>Node2&#45;&gt;Node3</title>
<g id="a_edge2_Node000002_Node000003"><a xlink:title=" ">
<path fill="none" stroke="#63b8ff" d="M1012.65,-298.89C1057.79,-289.9 1139.09,-273.7 1192.68,-263.02"/>
<polygon fill="#63b8ff" stroke="#63b8ff" points="1193.56,-266.42 1202.68,-261.03 1192.19,-259.55 1193.56,-266.42"/>
</a>
</g>
</g>
<!-- Node44 -->
<g id="Node000044" class="node">
<title>Node44</title>
<g id="a_Node000044"><a xlink:href="astaroth__grid_8h.html" target="_top" xlink:title=" ">
<polygon fill="white" stroke="#666666" points="1179.5,-261 1089.5,-261 1089.5,-242 1179.5,-242 1179.5,-261"/>
<text text-anchor="middle" x="1134.5" y="-249" font-family="Helvetica,sans-Serif" font-size="10.00">astaroth_grid.h</text>
</a>
</g>
</g>
<!-- Node2&#45;&gt;Node44 -->
<g id="edge50_Node000002_Node000044" class="edge">
<title>Node2&#45;&gt;Node44</title>
<g id="a_edge50_Node000002_Node000044"><a xlink:title=" ">
<path fill="none" stroke="#63b8ff" d="M1004.4,-296.98C1030.2,-288.16 1070.72,-274.31 1099.68,-264.41"/>
<polygon fill="#63b8ff" stroke="#63b8ff" points="1101.07,-267.63 1109.4,-261.08 1098.81,-261.01 1101.07,-267.63"/>
</a>
</g>
</g>
<!-- Node45 -->
<g id="Node000045" class="node">
<title>Node45</title>
<g id="a_Node000045"><a xlink:href="astaroth__node_8h.html" target="_top" xlink:title=" ">
<polygon fill="white" stroke="#666666" points="1406,-261 1311,-261 1311,-242 1406,-242 1406,-261"/>
<text text-anchor="middle" x="1358.5" y="-249" font-family="Helvetica,sans-Serif" font-size="10.00">astaroth_node.h</text>
</a>
</g>
</g>
<!-- Node2&#45;&gt;Node45 -->
<g id="edge51_Node000002_Node000045" class="edge">
<title>Node2&#45;&gt;Node45</title>
<g id="a_edge51_Node000002_Node000045"><a xlink:title=" ">
<path fill="none" stroke="#63b8ff" d="M1012.53,-301.1C1069.31,-293.51 1189.32,-277.31 1300.78,-261.23"/>
<polygon fill="#63b8ff" stroke="#63b8ff" points="1301.45,-264.67 1310.85,-259.78 1300.45,-257.75 1301.45,-264.67"/>
</a>
</g>
</g>
<!-- Node46 -->
<g id="Node000046" class="node">
<title>Node46</title>
<g id="a_Node000046"><a xlink:href="astaroth__device_8h.html" target="_top" xlink:title=" ">
<polygon fill="white" stroke="#666666" points="180.5,-261 76.5,-261 76.5,-242 180.5,-242 180.5,-261"/>
<text text-anchor="middle" x="128.5" y="-249" font-family="Helvetica,sans-Serif" font-size="10.00">astaroth_device.h</text>
</a>
</g>
</g>
<!-- Node2&#45;&gt;Node46 -->
<g id="edge52_Node000002_Node000046" class="edge">
<title>Node2&#45;&gt;Node46</title>
<g id="a_edge52_Node000002_Node000046"><a xlink:title=" ">
<path fill="none" stroke="#63b8ff" d="M946.31,-304.61C838.77,-301.51 490.03,-289.84 190.88,-261.05"/>
<polygon fill="#63b8ff" stroke="#63b8ff" points="191,-257.55 180.71,-260.06 190.32,-264.51 191,-257.55"/>
</a>
</g>
</g>
<!-- Node49 -->
<g id="Node000049" class="node">
<title>Node49</title>
<g id="a_Node000049"><a xlink:href="astaroth__legacy_8h.html" target="_top" xlink:title=" ">
<polygon fill="white" stroke="#666666" points="1526.5,-261 1424.5,-261 1424.5,-242 1526.5,-242 1526.5,-261"/>
<text text-anchor="middle" x="1475.5" y="-249" font-family="Helvetica,sans-Serif" font-size="10.00">astaroth_legacy.h</text>
</a>
</g>
</g>
<!-- Node2&#45;&gt;Node49 -->
<g id="edge55_Node000002_Node000049" class="edge">
<title>Node2&#45;&gt;Node49</title>
<g id="a_edge55_Node000002_Node000049"><a xlink:title=" ">
<path fill="none" stroke="#63b8ff" d="M1012.64,-302.56C1083.99,-296.14 1257.71,-280 1414.17,-261.12"/>
<polygon fill="#63b8ff" stroke="#63b8ff" points="1414.95,-264.55 1424.45,-259.87 1414.11,-257.6 1414.95,-264.55"/>
</a>
</g>
</g>
<!-- Node50 -->
<g id="Node000050" class="node">
<title>Node50</title>
<g id="a_Node000050"><a xlink:title=" ">
<polygon fill="#e0e0e0" stroke="#999999" points="338,-261 199,-261 199,-242 338,-242 338,-261"/>
<text text-anchor="middle" x="268.5" y="-249" font-family="Helvetica,sans-Serif" font-size="10.00">device_set_input_decls.h</text>
</a>
</g>
</g>
<!-- Node2&#45;&gt;Node50 -->
<g id="edge56_Node000002_Node000050" class="edge">
<title>Node2&#45;&gt;Node50</title>
<g id="a_edge56_Node000002_Node000050"><a xlink:title=" ">
<path fill="none" stroke="#63b8ff" d="M946.23,-303.59C853.49,-298.18 583.99,-281.82 348.4,-261.05"/>
<polygon fill="#63b8ff" stroke="#63b8ff" points="348.54,-257.55 338.27,-260.15 347.93,-264.52 348.54,-257.55"/>
</a>
</g>
</g>
<!-- Node51 -->
<g id="Node000051" class="node">
<title>Node51</title>
<g id="a_Node000051"><a xlink:title=" ">
<polygon fill="#e0e0e0" stroke="#999999" points="502.5,-261 356.5,-261 356.5,-242 502.5,-242 502.5,-261"/>
<text text-anchor="middle" x="429.5" y="-249" font-family="Helvetica,sans-Serif" font-size="10.00">device_get_output_decls.h</text>
</a>
</g>
</g>
<!-- Node2&#45;&gt;Node51 -->
<g id="edge57_Node000002_Node000051" class="edge">
<title>Node2&#45;&gt;Node51</title>
<g id="a_edge57_Node000002_Node000051"><a xlink:title=" ">
<path fill="none" stroke="#63b8ff" d="M946.3,-302.44C871.16,-295.5 682.12,-277.91 512.9,-261.13"/>
<polygon fill="#63b8ff" stroke="#63b8ff" points="513.11,-257.64 502.81,-260.13 512.42,-264.6 513.11,-257.64"/>
</a>
</g>
</g>
<!-- Node52 -->
<g id="Node000052" class="node">
<title>Node52</title>
<g id="a_Node000052"><a xlink:title=" ">
<polygon fill="#e0e0e0" stroke="#999999" points="660.5,-261 520.5,-261 520.5,-242 660.5,-242 660.5,-261"/>
<text text-anchor="middle" x="590.5" y="-249" font-family="Helvetica,sans-Serif" font-size="10.00">device_get_input_decls.h</text>
</a>
</g>
</g>
<!-- Node2&#45;&gt;Node52 -->
<g id="edge58_Node000002_Node000052" class="edge">
<title>Node2&#45;&gt;Node52</title>
<g id="a_edge58_Node000002_Node000052"><a xlink:title=" ">
<path fill="none" stroke="#63b8ff" d="M946.33,-300.98C883.92,-292.48 747.69,-273.92 663.07,-262.39"/>
<polygon fill="#63b8ff" stroke="#63b8ff" points="663.4,-258.9 653.02,-261.02 662.45,-265.84 663.4,-258.9"/>
</a>
</g>
</g>
<!-- Node53 -->
<g id="Node000053" class="node">
<title>Node53</title>
<g id="a_Node000053"><a xlink:title=" ">
<polygon fill="#e0e0e0" stroke="#999999" points="808.5,-261 678.5,-261 678.5,-242 808.5,-242 808.5,-261"/>
<text text-anchor="middle" x="743.5" y="-249" font-family="Helvetica,sans-Serif" font-size="10.00">get_vtxbufs_declares.h</text>
</a>
</g>
</g>
<!-- Node2&#45;&gt;Node53 -->
<g id="edge59_Node000002_Node000053" class="edge">
<title>Node2&#45;&gt;Node53</title>
<g id="a_edge59_Node000002_Node000053"><a xlink:title=" ">
<path fill="none" stroke="#63b8ff" d="M946.44,-298.07C906.02,-289 837.31,-273.57 791.18,-263.21"/>
<polygon fill="#63b8ff" stroke="#63b8ff" points="791.94,-259.79 781.41,-261.01 790.4,-266.62 791.94,-259.79"/>
</a>
</g>
</g>
<!-- Node54 -->
<g id="Node000054" class="node">
<title>Node54</title>
<g id="a_Node000054"><a xlink:href="astaroth__runtime__compilation_8h.html" target="_top" xlink:title=" ">
<polygon fill="white" stroke="#666666" points="1000,-261 827,-261 827,-242 1000,-242 1000,-261"/>
<text text-anchor="middle" x="913.5" y="-249" font-family="Helvetica,sans-Serif" font-size="10.00">astaroth_runtime_compilation.h</text>
</a>
</g>
</g>
<!-- Node2&#45;&gt;Node54 -->
<g id="edge60_Node000002_Node000054" class="edge">
<title>Node2&#45;&gt;Node54</title>
<g id="a_edge60_Node000002_Node000054"><a xlink:title=" ">
<path fill="none" stroke="#63b8ff" d="M968.9,-296.98C959.04,-289.07 944.15,-277.11 932.28,-267.58"/>
<polygon fill="#63b8ff" stroke="#63b8ff" points="934.29,-264.7 924.3,-261.17 929.9,-270.16 934.29,-264.7"/>
</a>
</g>
</g>
<!-- Node55 -->
<g id="Node000055" class="node">
<title>Node55</title>
<g id="a_Node000055"><a xlink:title=" ">
<polygon fill="#e0e0e0" stroke="#999999" points="1071,-261 1018,-261 1018,-242 1071,-242 1071,-261"/>
<text text-anchor="middle" x="1044.5" y="-249" font-family="Helvetica,sans-Serif" font-size="10.00">string.h</text>
</a>
</g>
</g>
<!-- Node2&#45;&gt;Node55 -->
<g id="edge61_Node000002_Node000055" class="edge">
<title>Node2&#45;&gt;Node55</title>
<g id="a_edge61_Node000002_Node000055"><a xlink:title=" ">
<path fill="none" stroke="#63b8ff" d="M989.94,-296.98C999.65,-289.07 1014.32,-277.11 1026,-267.58"/>
<polygon fill="#63b8ff" stroke="#63b8ff" points="1028.33,-270.2 1033.87,-261.17 1023.9,-264.78 1028.33,-270.2"/>
</a>
</g>
</g>
<!-- Node4 -->
<g id="Node000004" class="node">
<title>Node4</title>
<g id="a_Node000004"><a xlink:title=" ">
<polygon fill="#e0e0e0" stroke="#999999" points="786.5,-74 724.5,-74 724.5,-55 786.5,-55 786.5,-74"/>
<text text-anchor="middle" x="755.5" y="-62" font-family="Helvetica,sans-Serif" font-size="10.00">stdbool.h</text>
</a>
</g>
</g>
<!-- Node3&#45;&gt;Node4 -->
<g id="edge3_Node000003_Node000004" class="edge">
<title>Node3&#45;&gt;Node4</title>
<g id="a_edge3_Node000003_Node000004"><a xlink:title=" ">
<path fill="none" stroke="#63b8ff" d="M1197.92,-243.35C1194.73,-242.89 1191.57,-242.43 1188.5,-242 1061.74,-224.07 701.64,-239.83 621.5,-140 592.49,-103.86 664.93,-82.42 714.24,-72.4"/>
<polygon fill="#63b8ff" stroke="#63b8ff" points="715.21,-75.77 724.36,-70.43 713.88,-68.9 715.21,-75.77"/>
</a>
</g>
</g>
<!-- Node5 -->
<g id="Node000005" class="node">
<title>Node5</title>
<g id="a_Node000005"><a xlink:href="ac__mpi_8h.html" target="_top" xlink:title=" ">
<polygon fill="white" stroke="#666666" points="1219,-200.5 1158,-200.5 1158,-181.5 1219,-181.5 1219,-200.5"/>
<text text-anchor="middle" x="1188.5" y="-188.5" font-family="Helvetica,sans-Serif" font-size="10.00">ac_mpi.h</text>
</a>
</g>
</g>
<!-- Node3&#45;&gt;Node5 -->
<g id="edge4_Node000003_Node000005" class="edge">
<title>Node3&#45;&gt;Node5</title>
<g id="a_edge4_Node000003_Node000005"><a xlink:title=" ">
<path fill="none" stroke="#63b8ff" d="M1237.09,-241.87C1228.42,-232.97 1214.7,-218.89 1204.04,-207.95"/>
<polygon fill="#63b8ff" stroke="#63b8ff" points="1206.43,-205.39 1196.95,-200.67 1201.42,-210.27 1206.43,-205.39"/>
</a>
</g>
</g>
<!-- Node6 -->
<g id="Node000006" class="node">
<title>Node6</title>
<g id="a_Node000006"><a xlink:href="acc__runtime_8h.html" target="_top" xlink:title=" ">
<polygon fill="#fff0f0" stroke="red" points="1824.5,-200.5 1738.5,-200.5 1738.5,-181.5 1824.5,-181.5 1824.5,-200.5"/>
<text text-anchor="middle" x="1781.5" y="-188.5" font-family="Helvetica,sans-Serif" font-size="10.00">acc_runtime.h</text>
</a>
</g>
</g>
<!-- Node3&#45;&gt;Node6 -->
<g id="edge5_Node000003_Node000006" class="edge">
<title>Node3&#45;&gt;Node6</title>
<g id="a_edge5_Node000003_Node000006"><a xlink:title=" ">
<path fill="none" stroke="#63b8ff" d="M1293.06,-243.25C1296.26,-242.81 1299.42,-242.39 1302.5,-242 1456.89,-222.44 1639.99,-204.89 1728.44,-196.77"/>
<polygon fill="#63b8ff" stroke="#63b8ff" points="1728.85,-200.25 1738.49,-195.85 1728.21,-193.28 1728.85,-200.25"/>
</a>
</g>
</g>
<!-- Node26 -->
<g id="Node000026" class="node">
<title>Node26</title>
<g id="a_Node000026"><a xlink:title=" ">
<polygon fill="#e0e0e0" stroke="#999999" points="770,-134.5 631,-134.5 631,-115.5 770,-115.5 770,-134.5"/>
<text text-anchor="middle" x="700.5" y="-122.5" font-family="Helvetica,sans-Serif" font-size="10.00">user_built&#45;in_constants.h</text>
</a>
</g>
</g>
<!-- Node3&#45;&gt;Node26 -->
<g id="edge48_Node000003_Node000026" class="edge">
<title>Node3&#45;&gt;Node26</title>
<g id="a_edge48_Node000003_Node000026"><a xlink:title=" ">
<path fill="none" stroke="#63b8ff" d="M1208.04,-241.94C1111.47,-219.88 854.2,-161.11 747.69,-136.78"/>
<polygon fill="#63b8ff" stroke="#63b8ff" points="748.39,-133.35 737.86,-134.53 746.83,-140.17 748.39,-133.35"/>
</a>
</g>
</g>
<!-- Node40 -->
<g id="Node000040" class="node">
<title>Node40</title>
<g id="a_Node000040"><a xlink:href="func__define_8h.html" target="_top" xlink:title=" ">
<polygon fill="white" stroke="#666666" points="2969.5,-134.5 2887.5,-134.5 2887.5,-115.5 2969.5,-115.5 2969.5,-134.5"/>
<text text-anchor="middle" x="2928.5" y="-122.5" font-family="Helvetica,sans-Serif" font-size="10.00">func_define.h</text>
</a>
</g>
</g>
<!-- Node3&#45;&gt;Node40 -->
<g id="edge47_Node000003_Node000040" class="edge">
<title>Node3&#45;&gt;Node40</title>
<g id="a_edge47_Node000003_Node000040"><a xlink:title=" ">
<path fill="none" stroke="#63b8ff" d="M1293.05,-243.11C1296.24,-242.7 1299.42,-242.33 1302.5,-242 2000.45,-167.51 2186.57,-257.93 2878.5,-140 2882.97,-139.24 2887.61,-138.24 2892.19,-137.12"/>
<polygon fill="#63b8ff" stroke="#63b8ff" points="2893.23,-140.46 2902.01,-134.53 2891.44,-133.69 2893.23,-140.46"/>
</a>
</g>
</g>
<!-- Node43 -->
<g id="Node000043" class="node">
<title>Node43</title>
<g id="a_Node000043"><a xlink:title=" ">
<polygon fill="#e0e0e0" stroke="#999999" points="1368,-206 1237,-206 1237,-176 1368,-176 1368,-206"/>
<text text-anchor="start" x="1245" y="-194" font-family="Helvetica,sans-Serif" font-size="10.00">user_builtin_non_scalar</text>
<text text-anchor="middle" x="1302.5" y="-183" font-family="Helvetica,sans-Serif" font-size="10.00">_constants.h</text>
</a>
</g>
</g>
<!-- Node3&#45;&gt;Node43 -->
<g id="edge49_Node000003_Node000043" class="edge">
<title>Node3&#45;&gt;Node43</title>
<g id="a_edge49_Node000003_Node000043"><a xlink:title=" ">
<path fill="none" stroke="#63b8ff" d="M1253.91,-241.87C1261.22,-234.37 1272.1,-223.2 1281.72,-213.33"/>
<polygon fill="#63b8ff" stroke="#63b8ff" points="1284.28,-215.72 1288.75,-206.11 1279.26,-210.83 1284.28,-215.72"/>
</a>
</g>
</g>
<!-- Node6&#45;&gt;Node4 -->
<g id="edge7_Node000006_Node000004" class="edge">
<title>Node6&#45;&gt;Node4</title>
<g id="a_edge7_Node000006_Node000004"><a xlink:title=" ">
<path fill="none" stroke="#63b8ff" d="M1738.3,-188.23C1553.57,-180.6 838.37,-150.45 817.5,-140 793.13,-127.79 774.77,-101.2 764.58,-83.32"/>
<polygon fill="#63b8ff" stroke="#63b8ff" points="767.61,-81.56 759.77,-74.43 761.45,-84.89 767.61,-81.56"/>
</a>
</g>
</g>
<!-- Node7 -->
<g id="Node000007" class="node">
<title>Node7</title>
<g id="a_Node000007"><a xlink:title=" ">
<polygon fill="#e0e0e0" stroke="#999999" points="1254.5,-74 1204.5,-74 1204.5,-55 1254.5,-55 1254.5,-74"/>
<text text-anchor="middle" x="1229.5" y="-62" font-family="Helvetica,sans-Serif" font-size="10.00">stdio.h</text>
</a>
</g>
</g>
<!-- Node6&#45;&gt;Node7 -->
<g id="edge6_Node000006_Node000007" class="edge">
<title>Node6&#45;&gt;Node7</title>
<g id="a_edge6_Node000006_Node000007"><a xlink:title=" ">
<path fill="none" stroke="#63b8ff" d="M1780.25,-181.45C1777.29,-164.57 1768.13,-127.1 1743.5,-110 1704.34,-82.81 1374.79,-70.07 1264.96,-66.55"/>
<polygon fill="#63b8ff" stroke="#63b8ff" points="1264.84,-63.04 1254.73,-66.23 1264.62,-70.04 1264.84,-63.04"/>
</a>
</g>
</g>
<!-- Node8 -->
<g id="Node000008" class="node">
<title>Node8</title>
<g id="a_Node000008"><a xlink:href="device__headers_8h.html" target="_top" xlink:title=" ">
<polygon fill="white" stroke="#666666" points="1818.5,-74 1716.5,-74 1716.5,-55 1818.5,-55 1818.5,-74"/>
<text text-anchor="middle" x="1767.5" y="-62" font-family="Helvetica,sans-Serif" font-size="10.00">device_headers.h</text>
</a>
</g>
</g>
<!-- Node6&#45;&gt;Node8 -->
<g id="edge8_Node000006_Node000008" class="edge">
<title>Node6&#45;&gt;Node8</title>
<g id="a_edge8_Node000006_Node000008"><a xlink:title=" ">
<path fill="none" stroke="#63b8ff" d="M1781.34,-181.08C1780.99,-166.27 1779.88,-135.66 1776.5,-110 1775.38,-101.5 1773.59,-92.19 1771.9,-84.3"/>
<polygon fill="#63b8ff" stroke="#63b8ff" points="1775.26,-83.3 1769.65,-74.31 1768.43,-84.83 1775.26,-83.3"/>
</a>
</g>
</g>
<!-- Node11 -->
<g id="Node000011" class="node">
<title>Node11</title>
<g id="a_Node000011"><a xlink:title=" ">
<polygon fill="#e0e0e0" stroke="#999999" points="2166,-74 2071,-74 2071,-55 2166,-55 2166,-74"/>
<text text-anchor="middle" x="2118.5" y="-62" font-family="Helvetica,sans-Serif" font-size="10.00">builtin_enums.h</text>
</a>
</g>
</g>
<!-- Node6&#45;&gt;Node11 -->
<g id="edge11_Node000006_Node000011" class="edge">
<title>Node6&#45;&gt;Node11</title>
<g id="a_edge11_Node000006_Node000011"><a xlink:title=" ">
<path fill="none" stroke="#63b8ff" d="M1824.73,-188.5C1933.55,-184.29 2212.06,-170.59 2239.5,-140 2265.84,-110.63 2212.06,-88.88 2167.98,-76.7"/>
<polygon fill="#63b8ff" stroke="#63b8ff" points="2168.75,-73.28 2158.18,-74.1 2166.95,-80.04 2168.75,-73.28"/>
</a>
</g>
</g>
<!-- Node12 -->
<g id="Node000012" class="node">
<title>Node12</title>
<g id="a_Node000012"><a xlink:href="datatypes_8h.html" target="_top" xlink:title=" ">
<polygon fill="#fff0f0" stroke="red" points="1902.5,-134.5 1828.5,-134.5 1828.5,-115.5 1902.5,-115.5 1902.5,-134.5"/>
<text text-anchor="middle" x="1865.5" y="-122.5" font-family="Helvetica,sans-Serif" font-size="10.00">datatypes.h</text>
</a>
</g>
</g>
<!-- Node6&#45;&gt;Node12 -->
<g id="edge12_Node000006_Node000012" class="edge">
<title>Node6&#45;&gt;Node12</title>
<g id="a_edge12_Node000006_Node000012"><a xlink:title=" ">
<path fill="none" stroke="#63b8ff" d="M1792.83,-181.37C1806.36,-171.06 1829.22,-153.65 1845.69,-141.09"/>
<polygon fill="#63b8ff" stroke="#63b8ff" points="1848.25,-143.54 1854.08,-134.7 1844.01,-137.98 1848.25,-143.54"/>
</a>
</g>
</g>
<!-- Node6&#45;&gt;Node20 -->
<g id="edge21_Node000006_Node000020" class="edge">
<title>Node6&#45;&gt;Node20</title>
<g id="a_edge21_Node000006_Node000020"><a xlink:title=" ">
<path fill="none" stroke="#63b8ff" d="M1738.27,-187C1695.24,-184.05 1627.32,-179.5 1568.5,-176 1267.72,-158.12 1186.36,-202.05 891.5,-140 888.82,-139.44 886.08,-138.71 883.36,-137.88"/>
<polygon fill="#63b8ff" stroke="#63b8ff" points="884.34,-134.52 873.75,-134.57 882.06,-141.14 884.34,-134.52"/>
</a>
</g>
</g>
<!-- Node24 -->
<g id="Node000024" class="node">
<title>Node24</title>
<g id="a_Node000024"><a xlink:title=" ">
<polygon fill="#e0e0e0" stroke="#999999" points="2008,-134.5 1921,-134.5 1921,-115.5 2008,-115.5 2008,-134.5"/>
<text text-anchor="middle" x="1964.5" y="-122.5" font-family="Helvetica,sans-Serif" font-size="10.00">user_defines.h</text>
</a>
</g>
</g>
<!-- Node6&#45;&gt;Node24 -->
<g id="edge30_Node000006_Node000024" class="edge">
<title>Node6&#45;&gt;Node24</title>
<g id="a_edge30_Node000006_Node000024"><a xlink:title=" ">
<path fill="none" stroke="#63b8ff" d="M1806.18,-181.37C1838.19,-170.17 1894.21,-150.58 1930.3,-137.96"/>
<polygon fill="#63b8ff" stroke="#63b8ff" points="1931.64,-141.2 1939.92,-134.6 1929.32,-134.59 1931.64,-141.2"/>
</a>
</g>
</g>
<!-- Node25 -->
<g id="Node000025" class="node">
<title>Node25</title>
<g id="a_Node000025"><a xlink:title=" ">
<polygon fill="#e0e0e0" stroke="#999999" points="2112.5,-134.5 2026.5,-134.5 2026.5,-115.5 2112.5,-115.5 2112.5,-134.5"/>
<text text-anchor="middle" x="2069.5" y="-122.5" font-family="Helvetica,sans-Serif" font-size="10.00">profiles_info.h</text>
</a>
</g>
</g>
<!-- Node6&#45;&gt;Node25 -->
<g id="edge31_Node000006_Node000025" class="edge">
<title>Node6&#45;&gt;Node25</title>
<g id="a_edge31_Node000006_Node000025"><a xlink:title=" ">
<path fill="none" stroke="#63b8ff" d="M1824.72,-181.57C1872.17,-172.16 1950.51,-156.1 2017.5,-140 2021.17,-139.12 2024.98,-138.17 2028.78,-137.19"/>
<polygon fill="#63b8ff" stroke="#63b8ff" points="2029.99,-140.49 2038.77,-134.57 2028.21,-133.72 2029.99,-140.49"/>
</a>
</g>
</g>
<!-- Node6&#45;&gt;Node26 -->
<g id="edge32_Node000006_Node000026" class="edge">
<title>Node6&#45;&gt;Node26</title>
<g id="a_edge32_Node000006_Node000026"><a xlink:title=" ">
<path fill="none" stroke="#63b8ff" d="M1738.29,-188.5C1572.07,-182.61 973.71,-160.44 784.5,-140 775.22,-139 765.4,-137.64 755.88,-136.16"/>
<polygon fill="#63b8ff" stroke="#63b8ff" points="756.14,-132.65 745.71,-134.51 755.02,-139.56 756.14,-132.65"/>
</a>
</g>
</g>
<!-- Node27 -->
<g id="Node000027" class="node">
<title>Node27</title>
<g id="a_Node000027"><a xlink:href="func__attributes_8h.html" target="_top" xlink:title=" ">
<polygon fill="white" stroke="#666666" points="2230,-134.5 2131,-134.5 2131,-115.5 2230,-115.5 2230,-134.5"/>
<text text-anchor="middle" x="2180.5" y="-122.5" font-family="Helvetica,sans-Serif" font-size="10.00">func_attributes.h</text>
</a>
</g>
</g>
<!-- Node6&#45;&gt;Node27 -->
<g id="edge33_Node000006_Node000027" class="edge">
<title>Node6&#45;&gt;Node27</title>
<g id="a_edge33_Node000006_Node000027"><a xlink:title=" ">
<path fill="none" stroke="#63b8ff" d="M1824.64,-184.88C1889.39,-176.91 2015.44,-160.34 2121.5,-140 2126.54,-139.03 2131.8,-137.93 2137.01,-136.77"/>
<polygon fill="#63b8ff" stroke="#63b8ff" points="2137.95,-140.15 2146.91,-134.5 2136.38,-133.32 2137.95,-140.15"/>
</a>
</g>
</g>
<!-- Node28 -->
<g id="Node000028" class="node">
<title>Node28</title>
<g id="a_Node000028"><a xlink:title=" ">
<polygon fill="#e0e0e0" stroke="#999999" points="2412,-134.5 2287,-134.5 2287,-115.5 2412,-115.5 2412,-134.5"/>
<text text-anchor="middle" x="2349.5" y="-122.5" font-family="Helvetica,sans-Serif" font-size="10.00">user_input_typedefs.h</text>
</a>
</g>
</g>
<!-- Node6&#45;&gt;Node28 -->
<g id="edge34_Node000006_Node000028" class="edge">
<title>Node6&#45;&gt;Node28</title>
<g id="a_edge34_Node000006_Node000028"><a xlink:title=" ">
<path fill="none" stroke="#63b8ff" d="M1824.66,-186.75C1910.3,-180.05 2107.7,-163.34 2272.5,-140 2280.16,-138.92 2288.23,-137.62 2296.13,-136.26"/>
<polygon fill="#63b8ff" stroke="#63b8ff" points="2296.78,-139.7 2306.02,-134.52 2295.57,-132.81 2296.78,-139.7"/>
</a>
</g>
</g>
<!-- Node29 -->
<g id="Node000029" class="node">
<title>Node29</title>
<g id="a_Node000029"><a xlink:title=" ">
<polygon fill="#e0e0e0" stroke="#999999" points="2513,-134.5 2430,-134.5 2430,-115.5 2513,-115.5 2513,-134.5"/>
<text text-anchor="middle" x="2471.5" y="-122.5" font-family="Helvetica,sans-Serif" font-size="10.00">output_decl.h</text>
</a>
</g>
</g>
<!-- Node6&#45;&gt;Node29 -->
<g id="edge35_Node000006_Node000029" class="edge">
<title>Node6&#45;&gt;Node29</title>
<g id="a_edge35_Node000006_Node000029"><a xlink:title=" ">
<path fill="none" stroke="#63b8ff" d="M1824.56,-189.52C1928.17,-187.75 2199.28,-179.4 2421.5,-140 2425.91,-139.22 2430.5,-138.21 2435.02,-137.1"/>
<polygon fill="#63b8ff" stroke="#63b8ff" points="2435.96,-140.47 2444.74,-134.53 2434.17,-133.7 2435.96,-140.47"/>
</a>
</g>
</g>
<!-- Node30 -->
<g id="Node000030" class="node">
<title>Node30</title>
<g id="a_Node000030"><a xlink:title=" ">
<polygon fill="#e0e0e0" stroke="#999999" points="2647.5,-134.5 2531.5,-134.5 2531.5,-115.5 2647.5,-115.5 2647.5,-134.5"/>
<text text-anchor="middle" x="2589.5" y="-122.5" font-family="Helvetica,sans-Serif" font-size="10.00">comp_loaded_decl.h</text>
</a>
</g>
</g>
<!-- Node6&#45;&gt;Node30 -->
<g id="edge36_Node000006_Node000030" class="edge">
<title>Node6&#45;&gt;Node30</title>
<g id="a_edge36_Node000006_Node000030"><a xlink:title=" ">
<path fill="none" stroke="#63b8ff" d="M1824.73,-189.17C1939.12,-186.54 2259.04,-176.24 2522.5,-140 2529.22,-139.08 2536.28,-137.87 2543.19,-136.55"/>
<polygon fill="#63b8ff" stroke="#63b8ff" points="2544.03,-139.95 2553.15,-134.55 2542.66,-133.08 2544.03,-139.95"/>
</a>
</g>
</g>
<!-- Node31 -->
<g id="Node000031" class="node">
<title>Node31</title>
<g id="a_Node000031"><a xlink:title=" ">
<polygon fill="#e0e0e0" stroke="#999999" points="2743.5,-134.5 2665.5,-134.5 2665.5,-115.5 2743.5,-115.5 2743.5,-134.5"/>
<text text-anchor="middle" x="2704.5" y="-122.5" font-family="Helvetica,sans-Serif" font-size="10.00">comp_decl.h</text>
</a>
</g>
</g>
<!-- Node6&#45;&gt;Node31 -->
<g id="edge37_Node000006_Node000031" class="edge">
<title>Node6&#45;&gt;Node31</title>
<g id="a_edge37_Node000006_Node000031"><a xlink:title=" ">
<path fill="none" stroke="#63b8ff" d="M1824.64,-188.83C1977.63,-184.48 2493.71,-168.02 2656.5,-140 2660.73,-139.27 2665.13,-138.3 2669.46,-137.21"/>
<polygon fill="#63b8ff" stroke="#63b8ff" points="2670.62,-140.52 2679.34,-134.5 2668.77,-133.77 2670.62,-140.52"/>
</a>
</g>
</g>
<!-- Node32 -->
<g id="Node000032" class="node">
<title>Node32</title>
<g id="a_Node000032"><a xlink:title=" ">
<polygon fill="#e0e0e0" stroke="#999999" points="2869.5,-134.5 2761.5,-134.5 2761.5,-115.5 2869.5,-115.5 2869.5,-134.5"/>
<text text-anchor="middle" x="2815.5" y="-122.5" font-family="Helvetica,sans-Serif" font-size="10.00">info_loaded_decl.h</text>
</a>
</g>
</g>
<!-- Node6&#45;&gt;Node32 -->
<g id="edge38_Node000006_Node000032" class="edge">
<title>Node6&#45;&gt;Node32</title>
<g id="a_edge38_Node000006_Node000032"><a xlink:title=" ">
<path fill="none" stroke="#63b8ff" d="M1824.81,-190.34C1961.64,-190.87 2396.65,-188.36 2752.5,-140 2758.84,-139.14 2765.48,-137.97 2771.98,-136.66"/>
<polygon fill="#63b8ff" stroke="#63b8ff" points="2772.96,-140.03 2782.01,-134.53 2771.5,-133.19 2772.96,-140.03"/>
</a>
</g>
</g>
<!-- Node33 -->
<g id="Node000033" class="node">
<title>Node33</title>
<g id="a_Node000033"><a xlink:title=" ">
<polygon fill="#e0e0e0" stroke="#999999" points="1040.5,-134.5 900.5,-134.5 900.5,-115.5 1040.5,-115.5 1040.5,-134.5"/>
<text text-anchor="middle" x="970.5" y="-122.5" font-family="Helvetica,sans-Serif" font-size="10.00">device_mesh_info_decl.h</text>
</a>
</g>
</g>
<!-- Node6&#45;&gt;Node33 -->
<g id="edge39_Node000006_Node000033" class="edge">
<title>Node6&#45;&gt;Node33</title>
<g id="a_edge39_Node000006_Node000033"><a xlink:title=" ">
<path fill="none" stroke="#63b8ff" d="M1738.42,-187.18C1586.75,-177.23 1084.77,-144.16 1050.5,-140 1042.05,-138.97 1033.13,-137.65 1024.45,-136.23"/>
<polygon fill="#63b8ff" stroke="#63b8ff" points="1024.83,-132.75 1014.39,-134.53 1023.67,-139.65 1024.83,-132.75"/>
</a>
</g>
</g>
<!-- Node34 -->
<g id="Node000034" class="node">
<title>Node34</title>
<g id="a_Node000034"><a xlink:title=" ">
<polygon fill="#e0e0e0" stroke="#999999" points="1136,-134.5 1059,-134.5 1059,-115.5 1136,-115.5 1136,-134.5"/>
<text text-anchor="middle" x="1097.5" y="-122.5" font-family="Helvetica,sans-Serif" font-size="10.00">array_decl.h</text>
</a>
</g>
</g>
<!-- Node6&#45;&gt;Node34 -->
<g id="edge40_Node000006_Node000034" class="edge">
<title>Node6&#45;&gt;Node34</title>
<g id="a_edge40_Node000006_Node000034"><a xlink:title=" ">
<path fill="none" stroke="#63b8ff" d="M1738.14,-187.11C1604.33,-178.12 1203.45,-150.61 1145.5,-140 1141.37,-139.24 1137.09,-138.27 1132.85,-137.2"/>
<polygon fill="#63b8ff" stroke="#63b8ff" points="1133.74,-133.81 1123.17,-134.54 1131.89,-140.56 1133.74,-133.81"/>
</a>
</g>
</g>
<!-- Node35 -->
<g id="Node000035" class="node">
<title>Node35</title>
<g id="a_Node000035"><a xlink:title=" ">
<polygon fill="#e0e0e0" stroke="#999999" points="1230.5,-134.5 1154.5,-134.5 1154.5,-115.5 1230.5,-115.5 1230.5,-134.5"/>
<text text-anchor="middle" x="1192.5" y="-122.5" font-family="Helvetica,sans-Serif" font-size="10.00">input_decl.h</text>
</a>
</g>
</g>
<!-- Node6&#45;&gt;Node35 -->
<g id="edge41_Node000006_Node000035" class="edge">
<title>Node6&#45;&gt;Node35</title>
<g id="a_edge41_Node000006_Node000035"><a xlink:title=" ">
<path fill="none" stroke="#63b8ff" d="M1738.49,-187.13C1627.79,-179.58 1335.07,-158.45 1239.5,-140 1235.77,-139.28 1231.91,-138.39 1228.08,-137.4"/>
<polygon fill="#63b8ff" stroke="#63b8ff" points="1228.7,-133.94 1218.13,-134.63 1226.83,-140.68 1228.7,-133.94"/>
</a>
</g>
</g>
<!-- Node36 -->
<g id="Node000036" class="node">
<title>Node36</title>
<g id="a_Node000036"><a xlink:href="ac__helpers_8h.html" target="_top" xlink:title=" ">
<polygon fill="white" stroke="#666666" points="1326.5,-134.5 1248.5,-134.5 1248.5,-115.5 1326.5,-115.5 1326.5,-134.5"/>
<text text-anchor="middle" x="1287.5" y="-122.5" font-family="Helvetica,sans-Serif" font-size="10.00">ac_helpers.h</text>
</a>
</g>
</g>
<!-- Node6&#45;&gt;Node36 -->
<g id="edge42_Node000006_Node000036" class="edge">
<title>Node6&#45;&gt;Node36</title>
<g id="a_edge42_Node000006_Node000036"><a xlink:title=" ">
<path fill="none" stroke="#63b8ff" d="M1738.38,-187.64C1658.33,-182.71 1481.61,-169.27 1335.5,-140 1331.59,-139.22 1327.54,-138.26 1323.52,-137.23"/>
<polygon fill="#63b8ff" stroke="#63b8ff" points="1324.28,-133.81 1313.71,-134.53 1322.42,-140.55 1324.28,-133.81"/>
</a>
</g>
</g>
<!-- Node37 -->
<g id="Node000037" class="node">
<title>Node37</title>
<g id="a_Node000037"><a xlink:title=" ">
<polygon fill="#e0e0e0" stroke="#999999" points="1462.5,-140 1344.5,-140 1344.5,-110 1462.5,-110 1462.5,-140"/>
<text text-anchor="start" x="1352.5" y="-128" font-family="Helvetica,sans-Serif" font-size="10.00">scalar_reduce_buffer</text>
<text text-anchor="middle" x="1403.5" y="-117" font-family="Helvetica,sans-Serif" font-size="10.00">_defs.h</text>
</a>
</g>
</g>
<!-- Node6&#45;&gt;Node37 -->
<g id="edge43_Node000006_Node000037" class="edge">
<title>Node6&#45;&gt;Node37</title>
<g id="a_edge43_Node000006_Node000037"><a xlink:title=" ">
<path fill="none" stroke="#63b8ff" d="M1738.42,-183.58C1678.62,-174.55 1567.13,-157.25 1472.5,-140 1472.4,-139.98 1472.3,-139.96 1472.2,-139.94"/>
<polygon fill="#63b8ff" stroke="#63b8ff" points="1473.04,-136.54 1462.57,-138.14 1471.75,-143.42 1473.04,-136.54"/>
</a>
</g>
</g>
<!-- Node38 -->
<g id="Node000038" class="node">
<title>Node38</title>
<g id="a_Node000038"><a xlink:title=" ">
<polygon fill="#e0e0e0" stroke="#999999" points="1604,-140 1481,-140 1481,-110 1604,-110 1604,-140"/>
<text text-anchor="start" x="1489" y="-128" font-family="Helvetica,sans-Serif" font-size="10.00">scalar_reduce_buffers</text>
<text text-anchor="middle" x="1542.5" y="-117" font-family="Helvetica,sans-Serif" font-size="10.00">_in_vba.h</text>
</a>
</g>
</g>
<!-- Node6&#45;&gt;Node38 -->
<g id="edge44_Node000006_Node000038" class="edge">
<title>Node6&#45;&gt;Node38</title>
<g id="a_edge44_Node000006_Node000038"><a xlink:title=" ">
<path fill="none" stroke="#63b8ff" d="M1749.27,-181.37C1712.47,-171.51 1651.39,-155.16 1605.14,-142.77"/>
<polygon fill="#63b8ff" stroke="#63b8ff" points="1605.78,-139.32 1595.21,-140.12 1603.97,-146.08 1605.78,-139.32"/>
</a>
</g>
</g>
<!-- Node39 -->
<g id="Node000039" class="node">
<title>Node39</title>
<g id="a_Node000039"><a xlink:href="astaroth__analysis_8h.html" target="_top" xlink:title=" ">
<polygon fill="white" stroke="#666666" points="1734.5,-134.5 1622.5,-134.5 1622.5,-115.5 1734.5,-115.5 1734.5,-134.5"/>
<text text-anchor="middle" x="1678.5" y="-122.5" font-family="Helvetica,sans-Serif" font-size="10.00">astaroth_analysis.h</text>
</a>
</g>
</g>
<!-- Node6&#45;&gt;Node39 -->
<g id="edge45_Node000006_Node000039" class="edge">
<title>Node6&#45;&gt;Node39</title>
<g id="a_edge45_Node000006_Node000039"><a xlink:title=" ">
<path fill="none" stroke="#63b8ff" d="M1767.61,-181.37C1750.56,-170.78 1721.43,-152.67 1701.13,-140.06"/>
<polygon fill="#63b8ff" stroke="#63b8ff" points="1702.84,-137 1692.5,-134.7 1699.15,-142.95 1702.84,-137"/>
</a>
</g>
</g>
<!-- Node6&#45;&gt;Node40 -->
<g id="edge46_Node000006_Node000040" class="edge">
<title>Node6&#45;&gt;Node40</title>
<g id="a_edge46_Node000006_Node000040"><a xlink:title=" ">
<path fill="none" stroke="#63b8ff" d="M1824.54,-189.35C2001.06,-186.46 2670.03,-173.49 2878.5,-140 2883.03,-139.27 2887.73,-138.28 2892.36,-137.16"/>
<polygon fill="#63b8ff" stroke="#63b8ff" points="2893.5,-140.48 2902.28,-134.55 2891.72,-133.71 2893.5,-140.48"/>
</a>
</g>
</g>
<!-- Node9 -->
<g id="Node000009" class="node">
<title>Node9</title>
<g id="a_Node000009"><a xlink:title=" ">
<polygon fill="#e0e0e0" stroke="#999999" points="1941,-19 1828,-19 1828,0 1941,0 1941,-19"/>
<text text-anchor="middle" x="1884.5" y="-7" font-family="Helvetica,sans-Serif" font-size="10.00">cuda_runtime_api.h</text>
</a>
</g>
</g>
<!-- Node8&#45;&gt;Node9 -->
<g id="edge9_Node000008_Node000009" class="edge">
<title>Node8&#45;&gt;Node9</title>
<g id="a_edge9_Node000008_Node000009"><a xlink:title=" ">
<path fill="none" stroke="#63b8ff" d="M1786.3,-54.98C1805.12,-46.46 1834.32,-33.23 1856,-23.41"/>
<polygon fill="#63b8ff" stroke="#63b8ff" points="1857.7,-26.48 1865.36,-19.17 1854.81,-20.11 1857.7,-26.48"/>
</a>
</g>
</g>
<!-- Node10 -->
<g id="Node000010" class="node">
<title>Node10</title>
<g id="a_Node000010"><a xlink:title=" ">
<polygon fill="#e0e0e0" stroke="#999999" points="1735.5,-19 1659.5,-19 1659.5,0 1735.5,0 1735.5,-19"/>
<text text-anchor="middle" x="1697.5" y="-7" font-family="Helvetica,sans-Serif" font-size="10.00">cuda_fp16.h</text>
</a>
</g>
</g>
<!-- Node8&#45;&gt;Node10 -->
<g id="edge10_Node000008_Node000010" class="edge">
<title>Node8&#45;&gt;Node10</title>
<g id="a_edge10_Node000008_Node000010"><a xlink:title=" ">
<path fill="none" stroke="#63b8ff" d="M1756.25,-54.98C1745.7,-47 1729.7,-34.88 1717.06,-25.31"/>
<polygon fill="#63b8ff" stroke="#63b8ff" points="1719.04,-22.42 1708.95,-19.17 1714.81,-28 1719.04,-22.42"/>
</a>
</g>
</g>
<!-- Node12&#45;&gt;Node8 -->
<g id="edge14_Node000012_Node000008" class="edge">
<title>Node12&#45;&gt;Node8</title>
<g id="a_edge14_Node000012_Node000008"><a xlink:title=" ">
<path fill="none" stroke="#63b8ff" d="M1851.04,-115.37C1835.19,-105.91 1809.53,-90.59 1790.82,-79.42"/>
<polygon fill="#63b8ff" stroke="#63b8ff" points="1792.4,-76.29 1782.02,-74.17 1788.81,-82.3 1792.4,-76.29"/>
</a>
</g>
</g>
<!-- Node12&#45;&gt;Node9 -->
<g id="edge15_Node000012_Node000009" class="edge">
<title>Node12&#45;&gt;Node9</title>
<g id="a_edge15_Node000012_Node000009"><a xlink:title=" ">
<path fill="none" stroke="#63b8ff" d="M1866.93,-115.47C1869.98,-97.23 1877.21,-54.07 1881.38,-29.14"/>
<polygon fill="#63b8ff" stroke="#63b8ff" points="1884.86,-29.57 1883.06,-19.13 1877.95,-28.41 1884.86,-29.57"/>
</a>
</g>
</g>
<!-- Node12&#45;&gt;Node11 -->
<g id="edge17_Node000012_Node000011" class="edge">
<title>Node12&#45;&gt;Node11</title>
<g id="a_edge17_Node000012_Node000011"><a xlink:title=" ">
<path fill="none" stroke="#63b8ff" d="M1893.24,-115.35C1899.54,-113.5 1906.23,-111.61 1912.5,-110 1963.58,-96.9 2022.43,-84.44 2064.12,-76.06"/>
<polygon fill="#63b8ff" stroke="#63b8ff" points="2064.95,-79.47 2074.07,-74.07 2063.57,-72.6 2064.95,-79.47"/>
</a>
</g>
</g>
<!-- Node12&#45;&gt;Node14 -->
<g id="edge13_Node000012_Node000014" class="edge">
<title>Node12&#45;&gt;Node14</title>
<g id="a_edge13_Node000012_Node000014"><a xlink:title=" ">
<path fill="none" stroke="#63b8ff" d="M1890.62,-115.38C1897.62,-113.29 1905.29,-111.29 1912.5,-110 2163.75,-65.19 2472.78,-63.92 2576.59,-64.94"/>
<polygon fill="#63b8ff" stroke="#63b8ff" points="2576.79,-68.44 2586.82,-65.05 2576.86,-61.44 2576.79,-68.44"/>
</a>
</g>
</g>
<!-- Node16 -->
<g id="Node000016" class="node">
<title>Node16</title>
<g id="a_Node000016"><a xlink:href="acreal_8h.html" target="_top" xlink:title=" ">
<polygon fill="white" stroke="#666666" points="1809.5,-19 1753.5,-19 1753.5,0 1809.5,0 1809.5,-19"/>
<text text-anchor="middle" x="1781.5" y="-7" font-family="Helvetica,sans-Serif" font-size="10.00">acreal.h</text>
</a>
</g>
</g>
<!-- Node12&#45;&gt;Node16 -->
<g id="edge16_Node000012_Node000016" class="edge">
<title>Node12&#45;&gt;Node16</title>
<g id="a_edge16_Node000012_Node000016"><a xlink:title=" ">
<path fill="none" stroke="#63b8ff" d="M1861.8,-115.44C1855.73,-101.89 1842.78,-74.99 1827.5,-55 1819.44,-44.46 1808.89,-34.06 1799.92,-25.98"/>
<polygon fill="#63b8ff" stroke="#63b8ff" points="1802.08,-23.22 1792.25,-19.26 1797.47,-28.48 1802.08,-23.22"/>
</a>
</g>
</g>
<!-- Node18 -->
<g id="Node000018" class="node">
<title>Node18</title>
<g id="a_Node000018"><a xlink:href="host__datatypes_8h.html" target="_top" xlink:title=" ">
<polygon fill="white" stroke="#666666" points="1590,-74 1489,-74 1489,-55 1590,-55 1590,-74"/>
<text text-anchor="middle" x="1539.5" y="-62" font-family="Helvetica,sans-Serif" font-size="10.00">host_datatypes.h</text>
</a>
</g>
</g>
<!-- Node12&#45;&gt;Node18 -->
<g id="edge18_Node000012_Node000018" class="edge">
<title>Node12&#45;&gt;Node18</title>
<g id="a_edge18_Node000012_Node000018"><a xlink:title=" ">
<path fill="none" stroke="#63b8ff" d="M1828.42,-117.35C1771.91,-107.21 1663.77,-87.8 1597.02,-75.82"/>
<polygon fill="#63b8ff" stroke="#63b8ff" points="1597.54,-72.36 1587.07,-74.04 1596.3,-79.25 1597.54,-72.36"/>
</a>
</g>
</g>
<!-- Node18&#45;&gt;Node16 -->
<g id="edge19_Node000018_Node000016" class="edge">
<title>Node18&#45;&gt;Node16</title>
<g id="a_edge19_Node000018_Node000016"><a xlink:title=" ">
<path fill="none" stroke="#63b8ff" d="M1579.6,-54.95C1618.85,-46.54 1680.6,-33.22 1743.18,-19.28"/>
<polygon fill="#63b8ff" stroke="#63b8ff" points="1744.23,-22.63 1753.23,-17.03 1742.7,-15.8 1744.23,-22.63"/>
</a>
</g>
</g>
<!-- Node19 -->
<g id="Node000019" class="node">
<title>Node19</title>
<g id="a_Node000019"><a xlink:title=" ">
<polygon fill="#e0e0e0" stroke="#999999" points="1297.5,-19 1241.5,-19 1241.5,0 1297.5,0 1297.5,-19"/>
<text text-anchor="middle" x="1269.5" y="-7" font-family="Helvetica,sans-Serif" font-size="10.00">stddef.h</text>
</a>
</g>
</g>
<!-- Node18&#45;&gt;Node19 -->
<g id="edge20_Node000018_Node000019" class="edge">
<title>Node18&#45;&gt;Node19</title>
<g id="a_edge20_Node000018_Node000019"><a xlink:title=" ">
<path fill="none" stroke="#63b8ff" d="M1496.12,-54.98C1444.07,-44.77 1357.62,-27.8 1307.89,-18.04"/>
<polygon fill="#63b8ff" stroke="#63b8ff" points="1308.35,-14.56 1297.86,-16.07 1307,-21.43 1308.35,-14.56"/>
</a>
</g>
</g>
<!-- Node20&#45;&gt;Node4 -->
<g id="edge24_Node000020_Node000004" class="edge">
<title>Node20&#45;&gt;Node4</title>
<g id="a_edge24_Node000020_Node000004"><a xlink:title=" ">
<path fill="none" stroke="#63b8ff" d="M839.89,-115.37C823.81,-105.86 797.72,-90.45 778.8,-79.27"/>
<polygon fill="#63b8ff" stroke="#63b8ff" points="780.56,-76.24 770.17,-74.17 777,-82.27 780.56,-76.24"/>
</a>
</g>
</g>
<!-- Node20&#45;&gt;Node7 -->
<g id="edge26_Node000020_Node000007" class="edge">
<title>Node20&#45;&gt;Node7</title>
<g id="a_edge26_Node000020_Node000007"><a xlink:title=" ">
<path fill="none" stroke="#63b8ff" d="M874.59,-115.44C880,-113.4 885.9,-111.41 891.5,-110 999.75,-82.78 1131.94,-71.52 1194.05,-67.47"/>
<polygon fill="#63b8ff" stroke="#63b8ff" points="1194.35,-70.96 1204.11,-66.84 1193.91,-63.97 1194.35,-70.96"/>
</a>
</g>
</g>
<!-- Node20&#45;&gt;Node8 -->
<g id="edge29_Node000020_Node000008" class="edge">
<title>Node20&#45;&gt;Node8</title>
<g id="a_edge29_Node000020_Node000008"><a xlink:title=" ">
<path fill="none" stroke="#63b8ff" d="M873.75,-115.42C879.36,-113.28 885.58,-111.24 891.5,-110 892.12,-109.87 1507.53,-78.67 1706.35,-68.6"/>
<polygon fill="#63b8ff" stroke="#63b8ff" points="1706.53,-72.09 1716.34,-68.09 1706.17,-65.1 1706.53,-72.09"/>
</a>
</g>
</g>
<!-- Node20&#45;&gt;Node18 -->
<g id="edge23_Node000020_Node000018" class="edge">
<title>Node20&#45;&gt;Node18</title>
<g id="a_edge23_Node000020_Node000018"><a xlink:title=" ">
<path fill="none" stroke="#63b8ff" d="M873.76,-115.49C879.38,-113.35 885.6,-111.29 891.5,-110 1002.47,-85.75 1340.08,-72.11 1478.9,-67.4"/>
<polygon fill="#63b8ff" stroke="#63b8ff" points="1479.07,-70.89 1488.95,-67.06 1478.83,-63.9 1479.07,-70.89"/>
</a>
</g>
</g>
<!-- Node20&#45;&gt;Node19 -->
<g id="edge22_Node000020_Node000019" class="edge">
<title>Node20&#45;&gt;Node19</title>
<g id="a_edge22_Node000020_Node000019"><a xlink:title=" ">
<path fill="none" stroke="#63b8ff" d="M857.45,-115.46C863.15,-100.4 877.2,-69.33 900.5,-55 955.26,-21.32 1148.34,-13.11 1231.23,-11.13"/>
<polygon fill="#63b8ff" stroke="#63b8ff" points="1231.56,-14.62 1241.48,-10.9 1231.4,-7.62 1231.56,-14.62"/>
</a>
</g>
</g>
<!-- Node21 -->
<g id="Node000021" class="node">
<title>Node21</title>
<g id="a_Node000021"><a xlink:title=" ">
<polygon fill="#e0e0e0" stroke="#999999" points="962,-74 909,-74 909,-55 962,-55 962,-74"/>
<text text-anchor="middle" x="935.5" y="-62" font-family="Helvetica,sans-Serif" font-size="10.00">stdint.h</text>
</a>
</g>
</g>
<!-- Node20&#45;&gt;Node21 -->
<g id="edge25_Node000020_Node000021" class="edge">
<title>Node20&#45;&gt;Node21</title>
<g id="a_edge25_Node000020_Node000021"><a xlink:title=" ">
<path fill="none" stroke="#63b8ff" d="M866.45,-115.37C879.25,-106.12 899.8,-91.28 915.15,-80.19"/>
<polygon fill="#63b8ff" stroke="#63b8ff" points="917.44,-82.86 923.5,-74.17 913.34,-77.18 917.44,-82.86"/>
</a>
</g>
</g>
<!-- Node22 -->
<g id="Node000022" class="node">
<title>Node22</title>
<g id="a_Node000022"><a xlink:title=" ">
<polygon fill="#e0e0e0" stroke="#999999" points="1033,-74 980,-74 980,-55 1033,-55 1033,-74"/>
<text text-anchor="middle" x="1006.5" y="-62" font-family="Helvetica,sans-Serif" font-size="10.00">stdlib.h</text>
</a>
</g>
</g>
<!-- Node20&#45;&gt;Node22 -->
<g id="edge27_Node000020_Node000022" class="edge">
<title>Node20&#45;&gt;Node22</title>
<g id="a_edge27_Node000020_Node000022"><a xlink:title=" ">
<path fill="none" stroke="#63b8ff" d="M876.6,-115.49C902.49,-105.53 945.58,-88.95 974.97,-77.63"/>
<polygon fill="#63b8ff" stroke="#63b8ff" points="976.3,-80.88 984.37,-74.02 973.78,-74.34 976.3,-80.88"/>
</a>
</g>
</g>
<!-- Node23 -->
<g id="Node000023" class="node">
<title>Node23</title>
<g id="a_Node000023"><a xlink:title=" ">
<polygon fill="#e0e0e0" stroke="#999999" points="852.5,-74 804.5,-74 804.5,-55 852.5,-55 852.5,-74"/>
<text text-anchor="middle" x="828.5" y="-62" font-family="Helvetica,sans-Serif" font-size="10.00">time.h</text>
</a>
</g>
</g>
<!-- Node20&#45;&gt;Node23 -->
<g id="edge28_Node000020_Node000023" class="edge">
<title>Node20&#45;&gt;Node23</title>
<g id="a_edge28_Node000020_Node000023"><a xlink:title=" ">
<path fill="none" stroke="#63b8ff" d="M850.66,-115.37C846.94,-106.99 841.17,-94.01 836.45,-83.39"/>
<polygon fill="#63b8ff" stroke="#63b8ff" points="839.61,-81.88 832.35,-74.17 833.22,-84.73 839.61,-81.88"/>
</a>
</g>
</g>
<!-- Node47 -->
<g id="Node000047" class="node">
<title>Node47</title>
<g id="a_Node000047"><a xlink:title=" ">
<polygon fill="#e0e0e0" stroke="#999999" points="119,-206 0,-206 0,-176 119,-176 119,-206"/>
<text text-anchor="start" x="8" y="-194" font-family="Helvetica,sans-Serif" font-size="10.00">device_load_uniform</text>
<text text-anchor="middle" x="59.5" y="-183" font-family="Helvetica,sans-Serif" font-size="10.00">_decl.h</text>
</a>
</g>
</g>
<!-- Node46&#45;&gt;Node47 -->
<g id="edge53_Node000046_Node000047" class="edge">
<title>Node46&#45;&gt;Node47</title>
<g id="a_edge53_Node000046_Node000047"><a xlink:title=" ">
<path fill="none" stroke="#63b8ff" d="M118.32,-241.87C109.3,-234.22 95.78,-222.76 83.97,-212.75"/>
<polygon fill="#63b8ff" stroke="#63b8ff" points="86.04,-209.91 76.15,-206.11 81.51,-215.25 86.04,-209.91"/>
</a>
</g>
</g>
<!-- Node48 -->
<g id="Node000048" class="node">
<title>Node48</title>
<g id="a_Node000048"><a xlink:title=" ">
<polygon fill="#e0e0e0" stroke="#999999" points="259.5,-206 137.5,-206 137.5,-176 259.5,-176 259.5,-206"/>
<text text-anchor="start" x="145.5" y="-194" font-family="Helvetica,sans-Serif" font-size="10.00">device_store_uniform</text>
<text text-anchor="middle" x="198.5" y="-183" font-family="Helvetica,sans-Serif" font-size="10.00">_decl.h</text>
</a>
</g>
</g>
<!-- Node46&#45;&gt;Node48 -->
<g id="edge54_Node000046_Node000048" class="edge">
<title>Node46&#45;&gt;Node48</title>
<g id="a_edge54_Node000046_Node000048"><a xlink:title=" ">
<path fill="none" stroke="#63b8ff" d="M138.83,-241.87C147.98,-234.22 161.69,-222.76 173.67,-212.75"/>
<polygon fill="#63b8ff" stroke="#63b8ff" points="176.18,-215.21 181.61,-206.11 171.69,-209.84 176.18,-215.21"/>
</a>
</g>
</g>
</g>
</svg>
