<?xml version="1.0" encoding="UTF-8" standalone="no"?>
<!DOCTYPE svg PUBLIC "-//W3C//DTD SVG 1.1//EN"
 "http://www.w3.org/Graphics/SVG/1.1/DTD/svg11.dtd">
<!-- Generated by graphviz version 2.43.0 (0)
 -->
<!-- Title: src/core/kernels/reindex.h Pages: 1 -->
<svg width="562pt" height="137pt"
 viewBox="0.00 0.00 562.00 137.00" xmlns="http://www.w3.org/2000/svg" xmlns:xlink="http://www.w3.org/1999/xlink">
<g id="graph0" class="graph" transform="scale(1 1) rotate(0) translate(4 133)">
<title>src/core/kernels/reindex.h</title>
<!-- Node1 -->
<g id="Node000001" class="node">
<title>Node1</title>
<g id="a_Node000001"><a xlink:title=" ">
<polygon fill="#999999" stroke="#666666" points="352,-129 210,-129 210,-110 352,-110 352,-129"/>
<text text-anchor="middle" x="281" y="-117" font-family="Helvetica,sans-Serif" font-size="10.00">src/core/kernels/reindex.h</text>
</a>
</g>
</g>
<!-- Node2 -->
<g id="Node000002" class="node">
<title>Node2</title>
<g id="a_Node000002"><a xlink:href="buffer_8cc.html" target="_top" xlink:title=" ">
<polygon fill="white" stroke="#666666" points="193,-74 55,-74 55,-55 193,-55 193,-74"/>
<text text-anchor="middle" x="124" y="-62" font-family="Helvetica,sans-Serif" font-size="10.00">src/core/helpers/buffer.cc</text>
</a>
</g>
</g>
<!-- Node1&#45;&gt;Node2 -->
<g id="edge1_Node000001_Node000002" class="edge">
<title>Node1&#45;&gt;Node2</title>
<g id="a_edge1_Node000001_Node000002"><a xlink:title=" ">
<path fill="none" stroke="#63b8ff" d="M245.95,-106.67C216.68,-96.79 175.63,-82.93 149.42,-74.08"/>
<polygon fill="#63b8ff" stroke="#63b8ff" points="245.18,-110.1 255.78,-109.98 247.42,-103.47 245.18,-110.1"/>
</a>
</g>
</g>
<!-- Node3 -->
<g id="Node000003" class="node">
<title>Node3</title>
<g id="a_Node000003"><a xlink:href="src_2core_2kernels_2kernels_8h.html" target="_top" xlink:title=" ">
<polygon fill="white" stroke="#666666" points="351,-74 211,-74 211,-55 351,-55 351,-74"/>
<text text-anchor="middle" x="281" y="-62" font-family="Helvetica,sans-Serif" font-size="10.00">src/core/kernels/kernels.h</text>
</a>
</g>
</g>
<!-- Node1&#45;&gt;Node3 -->
<g id="edge2_Node000001_Node000003" class="edge">
<title>Node1&#45;&gt;Node3</title>
<g id="a_edge2_Node000001_Node000003"><a xlink:title=" ">
<path fill="none" stroke="#63b8ff" d="M281,-99.66C281,-90.93 281,-80.99 281,-74.09"/>
<polygon fill="#63b8ff" stroke="#63b8ff" points="277.5,-99.75 281,-109.75 284.5,-99.75 277.5,-99.75"/>
</a>
</g>
</g>
<!-- Node8 -->
<g id="Node000008" class="node">
<title>Node8</title>
<g id="a_Node000008"><a xlink:href="reindex_8cu.html" target="_top" xlink:title=" ">
<polygon fill="white" stroke="#666666" points="516.5,-74 369.5,-74 369.5,-55 516.5,-55 516.5,-74"/>
<text text-anchor="middle" x="443" y="-62" font-family="Helvetica,sans-Serif" font-size="10.00">src/core/kernels/reindex.cu</text>
</a>
</g>
</g>
<!-- Node1&#45;&gt;Node8 -->
<g id="edge7_Node000001_Node000008" class="edge">
<title>Node1&#45;&gt;Node8</title>
<g id="a_edge7_Node000001_Node000008"><a xlink:title=" ">
<path fill="none" stroke="#63b8ff" d="M316.77,-106.8C347,-96.91 389.61,-82.97 416.77,-74.08"/>
<polygon fill="#63b8ff" stroke="#63b8ff" points="315.44,-103.55 307.03,-109.98 317.62,-110.2 315.44,-103.55"/>
</a>
</g>
</g>
<!-- Node4 -->
<g id="Node000004" class="node">
<title>Node4</title>
<g id="a_Node000004"><a xlink:href="device_8cc.html" target="_top" xlink:title=" ">
<polygon fill="white" stroke="#666666" points="104,-19 0,-19 0,0 104,0 104,-19"/>
<text text-anchor="middle" x="52" y="-7" font-family="Helvetica,sans-Serif" font-size="10.00">src/core/device.cc</text>
</a>
</g>
</g>
<!-- Node3&#45;&gt;Node4 -->
<g id="edge3_Node000003_Node000004" class="edge">
<title>Node3&#45;&gt;Node4</title>
<g id="a_edge3_Node000003_Node000004"><a xlink:title=" ">
<path fill="none" stroke="#63b8ff" d="M234.29,-52.69C191.39,-42.76 128.64,-28.24 89.08,-19.08"/>
<polygon fill="#63b8ff" stroke="#63b8ff" points="233.68,-56.14 244.21,-54.98 235.25,-49.32 233.68,-56.14"/>
</a>
</g>
</g>
<!-- Node5 -->
<g id="Node000005" class="node">
<title>Node5</title>
<g id="a_Node000005"><a xlink:href="kernels_8cu.html" target="_top" xlink:title=" ">
<polygon fill="white" stroke="#666666" points="268,-19 122,-19 122,0 268,0 268,-19"/>
<text text-anchor="middle" x="195" y="-7" font-family="Helvetica,sans-Serif" font-size="10.00">src/core/kernels/kernels.cu</text>
</a>
</g>
</g>
<!-- Node3&#45;&gt;Node5 -->
<g id="edge4_Node000003_Node000005" class="edge">
<title>Node3&#45;&gt;Node5</title>
<g id="a_edge4_Node000003_Node000005"><a xlink:title=" ">
<path fill="none" stroke="#63b8ff" d="M258.6,-49.7C242.93,-40.04 222.49,-27.44 209.07,-19.17"/>
<polygon fill="#63b8ff" stroke="#63b8ff" points="256.83,-52.72 267.18,-54.98 260.51,-46.76 256.83,-52.72"/>
</a>
</g>
</g>
<!-- Node6 -->
<g id="Node000006" class="node">
<title>Node6</title>
<g id="a_Node000006"><a xlink:href="reductions_8cu.html" target="_top" xlink:title=" ">
<polygon fill="white" stroke="#666666" points="447.5,-19 286.5,-19 286.5,0 447.5,0 447.5,-19"/>
<text text-anchor="middle" x="367" y="-7" font-family="Helvetica,sans-Serif" font-size="10.00">src/core/kernels/reductions.cu</text>
</a>
</g>
</g>
<!-- Node3&#45;&gt;Node6 -->
<g id="edge5_Node000003_Node000006" class="edge">
<title>Node3&#45;&gt;Node6</title>
<g id="a_edge5_Node000003_Node000006"><a xlink:title=" ">
<path fill="none" stroke="#63b8ff" d="M303.4,-49.7C319.07,-40.04 339.51,-27.44 352.93,-19.17"/>
<polygon fill="#63b8ff" stroke="#63b8ff" points="301.49,-46.76 294.82,-54.98 305.17,-52.72 301.49,-46.76"/>
</a>
</g>
</g>
<!-- Node7 -->
<g id="Node000007" class="node">
<title>Node7</title>
<g id="a_Node000007"><a xlink:href="task_8h.html" target="_top" xlink:title=" ">
<polygon fill="white" stroke="#666666" points="554,-19 466,-19 466,0 554,0 554,-19"/>
<text text-anchor="middle" x="510" y="-7" font-family="Helvetica,sans-Serif" font-size="10.00">src/core/task.h</text>
</a>
</g>
</g>
<!-- Node3&#45;&gt;Node7 -->
<g id="edge6_Node000003_Node000007" class="edge">
<title>Node3&#45;&gt;Node7</title>
<g id="a_edge6_Node000003_Node000007"><a xlink:title=" ">
<path fill="none" stroke="#63b8ff" d="M327.71,-52.69C370.61,-42.76 433.36,-28.24 472.92,-19.08"/>
<polygon fill="#63b8ff" stroke="#63b8ff" points="326.75,-49.32 317.79,-54.98 328.32,-56.14 326.75,-49.32"/>
</a>
</g>
</g>
</g>
</svg>
