<?xml version="1.0" encoding="UTF-8" standalone="no"?>
<!DOCTYPE svg PUBLIC "-//W3C//DTD SVG 1.1//EN"
 "http://www.w3.org/Graphics/SVG/1.1/DTD/svg11.dtd">
<!-- Generated by graphviz version 2.43.0 (0)
 -->
<!-- Title: src/core/kernels/rocfft.cc Pages: 1 -->
<!--zoomable 247 -->

<svg id="main" version="1.1" xmlns="http://www.w3.org/2000/svg" xmlns:xlink="http://www.w3.org/1999/xlink" xml:space="preserve" onload="init(evt)">
<style type="text/css"><![CDATA[
.node, .edge {opacity: 0.7;}
.node.selected, .edge.selected {opacity: 1;}
.edge:hover path { stroke: red; }
.edge:hover polygon { stroke: red; fill: red; }
]]></style>

<defs>
  <circle id="rim" cx="0" cy="0" r="7"/>
  <circle id="rim2" cx="0" cy="0" r="3.5"/>
  <g id="zoomPlus">
    <use xlink:href="#rim" fill="#404040"><set attributeName="fill" to="#808080" begin="zoomplus.mouseover" end="zoomplus.mouseout"/></use>
    <path d="M-4,0h8M0,-4v8" fill="none" stroke="white" stroke-width="1.5" pointer-events="none"/>
  </g>
  <g id="zoomMin">
    <use xlink:href="#rim" fill="#404040"><set attributeName="fill" to="#808080" begin="zoomminus.mouseover" end="zoomminus.mouseout"/></use>
    <path d="M-4,0h8" fill="none" stroke="white" stroke-width="1.5" pointer-events="none"/>
  </g>
  <g id="arrowUp" transform="translate(30 24)">
    <use xlink:href="#rim"/>
    <path pointer-events="none" fill="none" stroke="white" stroke-width="1.5" d="M0,-3.0v7 M-2.5,-0.5L0,-3.0L2.5,-0.5"/>
  </g>
  <g id="arrowRight" transform="rotate(90) translate(36 -43)">
    <use xlink:href="#rim"/>
    <path pointer-events="none" fill="none" stroke="white" stroke-width="1.5" d="M0,-3.0v7 M-2.5,-0.5L0,-3.0L2.5,-0.5"/>
  </g>
  <g id="arrowDown" transform="rotate(180) translate(-30 -48)">
    <use xlink:href="#rim"/>
    <path pointer-events="none" fill="none" stroke="white" stroke-width="1.5" d="M0,-3.0v7 M-2.5,-0.5L0,-3.0L2.5,-0.5"/>
  </g>
  <g id="arrowLeft" transform="rotate(270) translate(-36 17)">
    <use xlink:href="#rim"/>
    <path pointer-events="none" fill="none" stroke="white" stroke-width="1.5" d="M0,-3.0v7 M-2.5,-0.5L0,-3.0L2.5,-0.5"/>
  </g>
  <g id="resetDef">
    <use xlink:href="#rim2" fill="#404040"><set attributeName="fill" to="#808080" begin="reset.mouseover" end="reset.mouseout"/></use>
  </g>
</defs>
<script type="application/ecmascript">
var viewWidth = 893;
var viewHeight = 247;
var sectionId = 'dynsection-0';
</script>
<script type="application/ecmascript" xlink:href="svg.min.js"/>
<svg id="graph" class="graph">
<g id="viewport">
<title>src/core/kernels/rocfft.cc</title>
<!-- Node1 -->
<g id="Node000001" class="node">
<title>Node1</title>
<g id="a_Node000001"><a xlink:title=" ">
<polygon fill="#999999" stroke="#666666" points="513,-239 378,-239 378,-220 513,-220 513,-239"/>
<text text-anchor="middle" x="445.5" y="-227" font-family="Helvetica,sans-Serif" font-size="10.00">src/core/kernels/rocfft.cc</text>
</a>
</g>
</g>
<!-- Node2 -->
<g id="Node000002" class="node">
<title>Node2</title>
<g id="a_Node000002"><a xlink:title=" ">
<polygon fill="#e0e0e0" stroke="#999999" points="125.5,-184 45.5,-184 45.5,-165 125.5,-165 125.5,-184"/>
<text text-anchor="middle" x="85.5" y="-172" font-family="Helvetica,sans-Serif" font-size="10.00">rocfft/rocfft.h</text>
</a>
</g>
</g>
<!-- Node1&#45;&gt;Node2 -->
<g id="edge1_Node000001_Node000002" class="edge">
<title>Node1&#45;&gt;Node2</title>
<g id="a_edge1_Node000001_Node000002"><a xlink:title=" ">
<path fill="none" stroke="#63b8ff" d="M385.37,-219.97C323.65,-211.16 224.82,-196.92 139.5,-184 138.23,-183.81 136.95,-183.61 135.66,-183.42"/>
<polygon fill="#63b8ff" stroke="#63b8ff" points="136.01,-179.93 125.6,-181.86 134.95,-186.85 136.01,-179.93"/>
</a>
</g>
</g>
<!-- Node3 -->
<g id="Node000003" class="node">
<title>Node3</title>
<g id="a_Node000003"><a xlink:title=" ">
<polygon fill="#e0e0e0" stroke="#999999" points="561.5,-129 511.5,-129 511.5,-110 561.5,-110 561.5,-129"/>
<text text-anchor="middle" x="536.5" y="-117" font-family="Helvetica,sans-Serif" font-size="10.00">stdio.h</text>
</a>
</g>
</g>
<!-- Node1&#45;&gt;Node3 -->
<g id="edge2_Node000001_Node000003" class="edge">
<title>Node1&#45;&gt;Node3</title>
<g id="a_edge2_Node000001_Node000003"><a xlink:title=" ">
<path fill="none" stroke="#63b8ff" d="M452.81,-219.99C460.49,-211.06 472.88,-196.58 483.5,-184 496.9,-168.13 512.07,-149.93 522.74,-137.09"/>
<polygon fill="#63b8ff" stroke="#63b8ff" points="525.63,-139.08 529.33,-129.15 520.25,-134.61 525.63,-139.08"/>
</a>
</g>
</g>
<!-- Node4 -->
<g id="Node000004" class="node">
<title>Node4</title>
<g id="a_Node000004"><a xlink:title=" ">
<polygon fill="#e0e0e0" stroke="#999999" points="685,-184 636,-184 636,-165 685,-165 685,-184"/>
<text text-anchor="middle" x="660.5" y="-172" font-family="Helvetica,sans-Serif" font-size="10.00">cstdlib</text>
</a>
</g>
</g>
<!-- Node1&#45;&gt;Node4 -->
<g id="edge3_Node000001_Node000004" class="edge">
<title>Node1&#45;&gt;Node4</title>
<g id="a_edge3_Node000001_Node000004"><a xlink:title=" ">
<path fill="none" stroke="#63b8ff" d="M480.55,-219.93C515.02,-211.48 569.42,-198.14 626.13,-184.08"/>
<polygon fill="#63b8ff" stroke="#63b8ff" points="627.12,-187.44 635.99,-181.64 625.44,-180.65 627.12,-187.44"/>
</a>
</g>
</g>
<!-- Node5 -->
<g id="Node000005" class="node">
<title>Node5</title>
<g id="a_Node000005"><a xlink:title=" ">
<polygon fill="#e0e0e0" stroke="#999999" points="796,-184 703,-184 703,-165 796,-165 796,-184"/>
<text text-anchor="middle" x="749.5" y="-172" font-family="Helvetica,sans-Serif" font-size="10.00">unordered_map</text>
</a>
</g>
</g>
<!-- Node1&#45;&gt;Node5 -->
<g id="edge4_Node000001_Node000005" class="edge">
<title>Node1&#45;&gt;Node5</title>
<g id="a_edge4_Node000001_Node000005"><a xlink:title=" ">
<path fill="none" stroke="#63b8ff" d="M494.34,-219.98C548.49,-210.54 635.71,-195.34 692.83,-185.38"/>
<polygon fill="#63b8ff" stroke="#63b8ff" points="693.52,-188.81 702.78,-183.65 692.32,-181.92 693.52,-188.81"/>
</a>
</g>
</g>
<!-- Node6 -->
<g id="Node000006" class="node">
<title>Node6</title>
<g id="a_Node000006"><a xlink:href="ac__fft_8h.html" target="_top" xlink:title=" ">
<polygon fill="white" stroke="#666666" points="235,-184 182,-184 182,-165 235,-165 235,-184"/>
<text text-anchor="middle" x="208.5" y="-172" font-family="Helvetica,sans-Serif" font-size="10.00">ac_fft.h</text>
</a>
</g>
</g>
<!-- Node1&#45;&gt;Node6 -->
<g id="edge5_Node000001_Node000006" class="edge">
<title>Node1&#45;&gt;Node6</title>
<g id="a_edge5_Node000001_Node000006"><a xlink:title=" ">
<path fill="none" stroke="#63b8ff" d="M406.18,-219.96C367.69,-211.57 307.14,-198.27 245.18,-184.13"/>
<polygon fill="#63b8ff" stroke="#63b8ff" points="245.76,-180.67 235.23,-181.85 244.19,-187.5 245.76,-180.67"/>
</a>
</g>
</g>
<!-- Node10 -->
<g id="Node000010" class="node">
<title>Node10</title>
<g id="a_Node000010"><a xlink:href="host__datatypes_8h.html" target="_top" xlink:title=" ">
<polygon fill="white" stroke="#666666" points="455,-129 354,-129 354,-110 455,-110 455,-129"/>
<text text-anchor="middle" x="404.5" y="-117" font-family="Helvetica,sans-Serif" font-size="10.00">host_datatypes.h</text>
</a>
</g>
</g>
<!-- Node1&#45;&gt;Node10 -->
<g id="edge36_Node000001_Node000010" class="edge">
<title>Node1&#45;&gt;Node10</title>
<g id="a_edge36_Node000001_Node000010"><a xlink:title=" ">
<path fill="none" stroke="#63b8ff" d="M452.96,-219.98C462.93,-207.5 478.28,-183.7 468.5,-165 461.39,-151.39 448.01,-141.1 435.31,-133.87"/>
<polygon fill="#63b8ff" stroke="#63b8ff" points="436.77,-130.68 426.29,-129.13 433.52,-136.88 436.77,-130.68"/>
</a>
</g>
</g>
<!-- Node16 -->
<g id="Node000016" class="node">
<title>Node16</title>
<g id="a_Node000016"><a xlink:href="ac__helpers_8h.html" target="_top" xlink:title=" ">
<polygon fill="white" stroke="#666666" points="331.5,-184 253.5,-184 253.5,-165 331.5,-165 331.5,-184"/>
<text text-anchor="middle" x="292.5" y="-172" font-family="Helvetica,sans-Serif" font-size="10.00">ac_helpers.h</text>
</a>
</g>
</g>
<!-- Node1&#45;&gt;Node16 -->
<g id="edge16_Node000001_Node000016" class="edge">
<title>Node1&#45;&gt;Node16</title>
<g id="a_edge16_Node000001_Node000016"><a xlink:title=" ">
<path fill="none" stroke="#63b8ff" d="M420.92,-219.98C395.45,-211.16 355.46,-197.31 326.87,-187.41"/>
<polygon fill="#63b8ff" stroke="#63b8ff" points="327.87,-184.05 317.27,-184.08 325.58,-190.66 327.87,-184.05"/>
</a>
</g>
</g>
<!-- Node17 -->
<g id="Node000017" class="node">
<title>Node17</title>
<g id="a_Node000017"><a xlink:href="astaroth__cuda__wrappers_8h.html" target="_top" xlink:title=" ">
<polygon fill="white" stroke="#666666" points="145,-129 0,-129 0,-110 145,-110 145,-129"/>
<text text-anchor="middle" x="72.5" y="-117" font-family="Helvetica,sans-Serif" font-size="10.00">astaroth_cuda_wrappers.h</text>
</a>
</g>
</g>
<!-- Node1&#45;&gt;Node17 -->
<g id="edge20_Node000001_Node000017" class="edge">
<title>Node1&#45;&gt;Node17</title>
<g id="a_edge20_Node000001_Node000017"><a xlink:title=" ">
<path fill="none" stroke="#63b8ff" d="M377.91,-225.06C321.43,-220.42 239.6,-209.54 172.5,-184 156.14,-177.77 117.31,-151.74 93.14,-135"/>
<polygon fill="#63b8ff" stroke="#63b8ff" points="94.87,-131.95 84.67,-129.11 90.87,-137.69 94.87,-131.95"/>
</a>
</g>
</g>
<!-- Node18 -->
<g id="Node000018" class="node">
<title>Node18</title>
<g id="a_Node000018"><a xlink:href="common__kernels_8h.html" target="_top" xlink:title=" ">
<polygon fill="white" stroke="#666666" points="459,-184 350,-184 350,-165 459,-165 459,-184"/>
<text text-anchor="middle" x="404.5" y="-172" font-family="Helvetica,sans-Serif" font-size="10.00">common_kernels.h</text>
</a>
</g>
</g>
<!-- Node1&#45;&gt;Node18 -->
<g id="edge22_Node000001_Node000018" class="edge">
<title>Node1&#45;&gt;Node18</title>
<g id="a_edge22_Node000001_Node000018"><a xlink:title=" ">
<path fill="none" stroke="#63b8ff" d="M438.73,-219.75C432.94,-212.26 424.44,-201.28 417.36,-192.13"/>
<polygon fill="#63b8ff" stroke="#63b8ff" points="420.03,-189.86 411.14,-184.09 414.49,-194.14 420.03,-189.86"/>
</a>
</g>
</g>
<!-- Node19 -->
<g id="Node000019" class="node">
<title>Node19</title>
<g id="a_Node000019"><a xlink:href="errchk_8h.html" target="_top" xlink:title="Brief info.">
<polygon fill="white" stroke="#666666" points="617.5,-184 561.5,-184 561.5,-165 617.5,-165 617.5,-184"/>
<text text-anchor="middle" x="589.5" y="-172" font-family="Helvetica,sans-Serif" font-size="10.00">errchk.h</text>
</a>
</g>
</g>
<!-- Node1&#45;&gt;Node19 -->
<g id="edge27_Node000001_Node000019" class="edge">
<title>Node1&#45;&gt;Node19</title>
<g id="a_edge27_Node000001_Node000019"><a xlink:title=" ">
<path fill="none" stroke="#63b8ff" d="M468.64,-219.98C492.32,-211.27 529.37,-197.63 556.21,-187.75"/>
<polygon fill="#63b8ff" stroke="#63b8ff" points="557.77,-190.91 565.94,-184.17 555.35,-184.34 557.77,-190.91"/>
</a>
</g>
</g>
<!-- Node7 -->
<g id="Node000007" class="node">
<title>Node7</title>
<g id="a_Node000007"><a xlink:href="device__headers_8h.html" target="_top" xlink:title=" ">
<polygon fill="white" stroke="#666666" points="263.5,-74 161.5,-74 161.5,-55 263.5,-55 263.5,-74"/>
<text text-anchor="middle" x="212.5" y="-62" font-family="Helvetica,sans-Serif" font-size="10.00">device_headers.h</text>
</a>
</g>
</g>
<!-- Node6&#45;&gt;Node7 -->
<g id="edge6_Node000006_Node000007" class="edge">
<title>Node6&#45;&gt;Node7</title>
<g id="a_edge6_Node000006_Node000007"><a xlink:title=" ">
<path fill="none" stroke="#63b8ff" d="M205.16,-164.88C200.85,-152.68 194.28,-129.65 197.5,-110 198.97,-101.05 201.99,-91.47 204.94,-83.51"/>
<polygon fill="#63b8ff" stroke="#63b8ff" points="208.22,-84.74 208.64,-74.15 201.71,-82.16 208.22,-84.74"/>
</a>
</g>
</g>
<!-- Node6&#45;&gt;Node10 -->
<g id="edge9_Node000006_Node000010" class="edge">
<title>Node6&#45;&gt;Node10</title>
<g id="a_edge9_Node000006_Node000010"><a xlink:title=" ">
<path fill="none" stroke="#63b8ff" d="M235.34,-166.24C268.26,-157.34 324.41,-142.16 362.92,-131.74"/>
<polygon fill="#63b8ff" stroke="#63b8ff" points="364.06,-135.06 372.8,-129.07 362.23,-128.3 364.06,-135.06"/>
</a>
</g>
</g>
<!-- Node8 -->
<g id="Node000008" class="node">
<title>Node8</title>
<g id="a_Node000008"><a xlink:title=" ">
<polygon fill="#e0e0e0" stroke="#999999" points="213,-19 100,-19 100,0 213,0 213,-19"/>
<text text-anchor="middle" x="156.5" y="-7" font-family="Helvetica,sans-Serif" font-size="10.00">cuda_runtime_api.h</text>
</a>
</g>
</g>
<!-- Node7&#45;&gt;Node8 -->
<g id="edge7_Node000007_Node000008" class="edge">
<title>Node7&#45;&gt;Node8</title>
<g id="a_edge7_Node000007_Node000008"><a xlink:title=" ">
<path fill="none" stroke="#63b8ff" d="M203.5,-54.98C195.31,-47.23 182.99,-35.58 173.03,-26.14"/>
<polygon fill="#63b8ff" stroke="#63b8ff" points="175.33,-23.5 165.66,-19.17 170.52,-28.59 175.33,-23.5"/>
</a>
</g>
</g>
<!-- Node9 -->
<g id="Node000009" class="node">
<title>Node9</title>
<g id="a_Node000009"><a xlink:title=" ">
<polygon fill="#e0e0e0" stroke="#999999" points="307.5,-19 231.5,-19 231.5,0 307.5,0 307.5,-19"/>
<text text-anchor="middle" x="269.5" y="-7" font-family="Helvetica,sans-Serif" font-size="10.00">cuda_fp16.h</text>
</a>
</g>
</g>
<!-- Node7&#45;&gt;Node9 -->
<g id="edge8_Node000007_Node000009" class="edge">
<title>Node7&#45;&gt;Node9</title>
<g id="a_edge8_Node000007_Node000009"><a xlink:title=" ">
<path fill="none" stroke="#63b8ff" d="M221.66,-54.98C230,-47.23 242.53,-35.58 252.68,-26.14"/>
<polygon fill="#63b8ff" stroke="#63b8ff" points="255.24,-28.54 260.18,-19.17 250.47,-23.42 255.24,-28.54"/>
</a>
</g>
</g>
<!-- Node10&#45;&gt;Node7 -->
<g id="edge14_Node000010_Node000007" class="edge">
<title>Node10&#45;&gt;Node7</title>
<g id="a_edge14_Node000010_Node000007"><a xlink:title=" ">
<path fill="none" stroke="#63b8ff" d="M373.65,-109.98C341,-100.97 289.3,-86.7 253.3,-76.76"/>
<polygon fill="#63b8ff" stroke="#63b8ff" points="254.16,-73.37 243.59,-74.08 252.3,-80.12 254.16,-73.37"/>
</a>
</g>
</g>
<!-- Node11 -->
<g id="Node000011" class="node">
<title>Node11</title>
<g id="a_Node000011"><a xlink:title=" ">
<polygon fill="#e0e0e0" stroke="#999999" points="644.5,-74 582.5,-74 582.5,-55 644.5,-55 644.5,-74"/>
<text text-anchor="middle" x="613.5" y="-62" font-family="Helvetica,sans-Serif" font-size="10.00">stdbool.h</text>
</a>
</g>
</g>
<!-- Node10&#45;&gt;Node11 -->
<g id="edge10_Node000010_Node000011" class="edge">
<title>Node10&#45;&gt;Node11</title>
<g id="a_edge10_Node000010_Node000011"><a xlink:title=" ">
<path fill="none" stroke="#63b8ff" d="M438.08,-109.98C474.7,-100.7 533.32,-85.83 572.6,-75.87"/>
<polygon fill="#63b8ff" stroke="#63b8ff" points="573.56,-79.24 582.39,-73.39 571.84,-72.45 573.56,-79.24"/>
</a>
</g>
</g>
<!-- Node12 -->
<g id="Node000012" class="node">
<title>Node12</title>
<g id="a_Node000012"><a xlink:title=" ">
<polygon fill="#e0e0e0" stroke="#999999" points="718.5,-74 662.5,-74 662.5,-55 718.5,-55 718.5,-74"/>
<text text-anchor="middle" x="690.5" y="-62" font-family="Helvetica,sans-Serif" font-size="10.00">stddef.h</text>
</a>
</g>
</g>
<!-- Node10&#45;&gt;Node12 -->
<g id="edge11_Node000010_Node000012" class="edge">
<title>Node10&#45;&gt;Node12</title>
<g id="a_edge11_Node000010_Node000012"><a xlink:title=" ">
<path fill="none" stroke="#63b8ff" d="M455.19,-110.19C503.44,-102.11 578.31,-89.14 652.29,-74.17"/>
<polygon fill="#63b8ff" stroke="#63b8ff" points="653.15,-77.57 662.25,-72.14 651.75,-70.71 653.15,-77.57"/>
</a>
</g>
</g>
<!-- Node13 -->
<g id="Node000013" class="node">
<title>Node13</title>
<g id="a_Node000013"><a xlink:href="acreal_8h.html" target="_top" xlink:title=" ">
<polygon fill="white" stroke="#666666" points="337.5,-74 281.5,-74 281.5,-55 337.5,-55 337.5,-74"/>
<text text-anchor="middle" x="309.5" y="-62" font-family="Helvetica,sans-Serif" font-size="10.00">acreal.h</text>
</a>
</g>
</g>
<!-- Node10&#45;&gt;Node13 -->
<g id="edge12_Node000010_Node000013" class="edge">
<title>Node10&#45;&gt;Node13</title>
<g id="a_edge12_Node000010_Node000013"><a xlink:title=" ">
<path fill="none" stroke="#63b8ff" d="M389.24,-109.98C374.37,-101.69 351.52,-88.94 334.08,-79.22"/>
<polygon fill="#63b8ff" stroke="#63b8ff" points="335.48,-75.99 325.04,-74.17 332.07,-82.1 335.48,-75.99"/>
</a>
</g>
</g>
<!-- Node14 -->
<g id="Node000014" class="node">
<title>Node14</title>
<g id="a_Node000014"><a xlink:title=" ">
<polygon fill="#e0e0e0" stroke="#999999" points="564,-74 469,-74 469,-55 564,-55 564,-74"/>
<text text-anchor="middle" x="516.5" y="-62" font-family="Helvetica,sans-Serif" font-size="10.00">builtin_enums.h</text>
</a>
</g>
</g>
<!-- Node10&#45;&gt;Node14 -->
<g id="edge13_Node000010_Node000014" class="edge">
<title>Node10&#45;&gt;Node14</title>
<g id="a_edge13_Node000010_Node000014"><a xlink:title=" ">
<path fill="none" stroke="#63b8ff" d="M422.49,-109.98C440.43,-101.5 468.22,-88.35 488.93,-78.54"/>
<polygon fill="#63b8ff" stroke="#63b8ff" points="490.64,-81.61 498.18,-74.17 487.64,-75.28 490.64,-81.61"/>
</a>
</g>
</g>
<!-- Node15 -->
<g id="Node000015" class="node">
<title>Node15</title>
<g id="a_Node000015"><a xlink:title=" ">
<polygon fill="#e0e0e0" stroke="#999999" points="451,-74 356,-74 356,-55 451,-55 451,-74"/>
<text text-anchor="middle" x="403.5" y="-62" font-family="Helvetica,sans-Serif" font-size="10.00">user_typedefs.h</text>
</a>
</g>
</g>
<!-- Node10&#45;&gt;Node15 -->
<g id="edge15_Node000010_Node000015" class="edge">
<title>Node10&#45;&gt;Node15</title>
<g id="a_edge15_Node000010_Node000015"><a xlink:title=" ">
<path fill="none" stroke="#63b8ff" d="M404.33,-109.75C404.2,-102.8 404.02,-92.85 403.85,-84.13"/>
<polygon fill="#63b8ff" stroke="#63b8ff" points="407.35,-84.02 403.66,-74.09 400.35,-84.15 407.35,-84.02"/>
</a>
</g>
</g>
<!-- Node16&#45;&gt;Node7 -->
<g id="edge18_Node000016_Node000007" class="edge">
<title>Node16&#45;&gt;Node7</title>
<g id="a_edge18_Node000016_Node000007"><a xlink:title=" ">
<path fill="none" stroke="#63b8ff" d="M285.95,-164.66C272.64,-146.69 242.23,-105.64 225.01,-82.38"/>
<polygon fill="#63b8ff" stroke="#63b8ff" points="227.68,-80.11 218.91,-74.16 222.05,-84.28 227.68,-80.11"/>
</a>
</g>
</g>
<!-- Node16&#45;&gt;Node10 -->
<g id="edge19_Node000016_Node000010" class="edge">
<title>Node16&#45;&gt;Node10</title>
<g id="a_edge19_Node000016_Node000010"><a xlink:title=" ">
<path fill="none" stroke="#63b8ff" d="M310.49,-164.98C328.43,-156.5 356.22,-143.35 376.93,-133.54"/>
<polygon fill="#63b8ff" stroke="#63b8ff" points="378.64,-136.61 386.18,-129.17 375.64,-130.28 378.64,-136.61"/>
</a>
</g>
</g>
<!-- Node16&#45;&gt;Node13 -->
<g id="edge17_Node000016_Node000013" class="edge">
<title>Node16&#45;&gt;Node13</title>
<g id="a_edge17_Node000016_Node000013"><a xlink:title=" ">
<path fill="none" stroke="#63b8ff" d="M293.89,-164.66C296.64,-147.17 302.84,-107.8 306.54,-84.27"/>
<polygon fill="#63b8ff" stroke="#63b8ff" points="310.04,-84.58 308.14,-74.16 303.12,-83.49 310.04,-84.58"/>
</a>
</g>
</g>
<!-- Node17&#45;&gt;Node7 -->
<g id="edge21_Node000017_Node000007" class="edge">
<title>Node17&#45;&gt;Node7</title>
<g id="a_edge21_Node000017_Node000007"><a xlink:title=" ">
<path fill="none" stroke="#63b8ff" d="M94.99,-109.98C118.02,-101.27 154.04,-87.63 180.13,-77.75"/>
<polygon fill="#63b8ff" stroke="#63b8ff" points="181.48,-80.98 189.6,-74.17 179.01,-74.44 181.48,-80.98"/>
</a>
</g>
</g>
<!-- Node18&#45;&gt;Node7 -->
<g id="edge25_Node000018_Node000007" class="edge">
<title>Node18&#45;&gt;Node7</title>
<g id="a_edge25_Node000018_Node000007"><a xlink:title=" ">
<path fill="none" stroke="#63b8ff" d="M389.11,-164.84C355.75,-146.08 276.54,-101.52 236.52,-79.01"/>
<polygon fill="#63b8ff" stroke="#63b8ff" points="238.13,-75.9 227.69,-74.05 234.69,-82 238.13,-75.9"/>
</a>
</g>
</g>
<!-- Node18&#45;&gt;Node10 -->
<g id="edge26_Node000018_Node000010" class="edge">
<title>Node18&#45;&gt;Node10</title>
<g id="a_edge26_Node000018_Node000010"><a xlink:title=" ">
<path fill="none" stroke="#63b8ff" d="M404.5,-164.75C404.5,-157.8 404.5,-147.85 404.5,-139.13"/>
<polygon fill="#63b8ff" stroke="#63b8ff" points="408,-139.09 404.5,-129.09 401,-139.09 408,-139.09"/>
</a>
</g>
</g>
<!-- Node18&#45;&gt;Node12 -->
<g id="edge23_Node000018_Node000012" class="edge">
<title>Node18&#45;&gt;Node12</title>
<g id="a_edge23_Node000018_Node000012"><a xlink:title=" ">
<path fill="none" stroke="#63b8ff" d="M414.97,-164.96C432.19,-151.33 468.01,-124.73 502.5,-110 505.99,-108.51 598.37,-86.92 652.31,-74.37"/>
<polygon fill="#63b8ff" stroke="#63b8ff" points="653.27,-77.74 662.22,-72.06 651.69,-70.92 653.27,-77.74"/>
</a>
</g>
</g>
<!-- Node18&#45;&gt;Node13 -->
<g id="edge24_Node000018_Node000013" class="edge">
<title>Node18&#45;&gt;Node13</title>
<g id="a_edge24_Node000018_Node000013"><a xlink:title=" ">
<path fill="none" stroke="#63b8ff" d="M389.52,-164.94C376.44,-156.92 357.56,-143.94 344.5,-129 332.6,-115.39 323.04,-97.06 316.94,-83.6"/>
<polygon fill="#63b8ff" stroke="#63b8ff" points="319.98,-81.82 312.8,-74.03 313.55,-84.59 319.98,-81.82"/>
</a>
</g>
</g>
<!-- Node19&#45;&gt;Node3 -->
<g id="edge31_Node000019_Node000003" class="edge">
<title>Node19&#45;&gt;Node3</title>
<g id="a_edge31_Node000019_Node000003"><a xlink:title=" ">
<path fill="none" stroke="#63b8ff" d="M580.75,-164.75C573.03,-157.03 561.6,-145.6 552.28,-136.28"/>
<polygon fill="#63b8ff" stroke="#63b8ff" points="554.64,-133.69 545.09,-129.09 549.69,-138.64 554.64,-133.69"/>
</a>
</g>
</g>
<!-- Node19&#45;&gt;Node7 -->
<g id="edge34_Node000019_Node000007" class="edge">
<title>Node19&#45;&gt;Node7</title>
<g id="a_edge34_Node000019_Node000007"><a xlink:title=" ">
<path fill="none" stroke="#63b8ff" d="M589.69,-164.95C589.48,-151.06 586.87,-123.79 570.5,-110 521.68,-68.87 353.94,-81.44 273.8,-73.94"/>
<polygon fill="#63b8ff" stroke="#63b8ff" points="273.88,-70.43 263.55,-72.81 273.11,-77.39 273.88,-70.43"/>
</a>
</g>
</g>
<!-- Node19&#45;&gt;Node10 -->
<g id="edge35_Node000019_Node000010" class="edge">
<title>Node19&#45;&gt;Node10</title>
<g id="a_edge35_Node000019_Node000010"><a xlink:title=" ">
<path fill="none" stroke="#63b8ff" d="M561.4,-165.45C530.21,-156.52 479.64,-142.03 444.36,-131.92"/>
<polygon fill="#63b8ff" stroke="#63b8ff" points="444.98,-128.46 434.4,-129.07 443.05,-135.18 444.98,-128.46"/>
</a>
</g>
</g>
<!-- Node19&#45;&gt;Node11 -->
<g id="edge28_Node000019_Node000011" class="edge">
<title>Node19&#45;&gt;Node11</title>
<g id="a_edge28_Node000019_Node000011"><a xlink:title=" ">
<path fill="none" stroke="#63b8ff" d="M592.68,-164.74C595.81,-155.84 600.54,-141.62 603.5,-129 606.97,-114.19 609.58,-97.16 611.26,-84.46"/>
<polygon fill="#63b8ff" stroke="#63b8ff" points="614.78,-84.56 612.54,-74.21 607.83,-83.7 614.78,-84.56"/>
</a>
</g>
</g>
<!-- Node19&#45;&gt;Node12 -->
<g id="edge29_Node000019_Node000012" class="edge">
<title>Node19&#45;&gt;Node12</title>
<g id="a_edge29_Node000019_Node000012"><a xlink:title=" ">
<path fill="none" stroke="#63b8ff" d="M617.72,-167.18C621.02,-166.45 624.33,-165.71 627.5,-165 699.49,-148.95 743.35,-186.53 789.5,-129 810.29,-103.08 764.66,-84.46 728.65,-74.33"/>
<polygon fill="#63b8ff" stroke="#63b8ff" points="729.37,-70.9 718.81,-71.7 727.56,-77.66 729.37,-70.9"/>
</a>
</g>
</g>
<!-- Node20 -->
<g id="Node000020" class="node">
<title>Node20</title>
<g id="a_Node000020"><a xlink:title=" ">
<polygon fill="#e0e0e0" stroke="#999999" points="709,-129 656,-129 656,-110 709,-110 709,-129"/>
<text text-anchor="middle" x="682.5" y="-117" font-family="Helvetica,sans-Serif" font-size="10.00">stdint.h</text>
</a>
</g>
</g>
<!-- Node19&#45;&gt;Node20 -->
<g id="edge30_Node000019_Node000020" class="edge">
<title>Node19&#45;&gt;Node20</title>
<g id="a_edge30_Node000019_Node000020"><a xlink:title=" ">
<path fill="none" stroke="#63b8ff" d="M604.44,-164.98C619,-156.69 641.37,-143.94 658.43,-134.22"/>
<polygon fill="#63b8ff" stroke="#63b8ff" points="660.33,-137.16 667.29,-129.17 656.86,-131.08 660.33,-137.16"/>
</a>
</g>
</g>
<!-- Node21 -->
<g id="Node000021" class="node">
<title>Node21</title>
<g id="a_Node000021"><a xlink:title=" ">
<polygon fill="#e0e0e0" stroke="#999999" points="780,-129 727,-129 727,-110 780,-110 780,-129"/>
<text text-anchor="middle" x="753.5" y="-117" font-family="Helvetica,sans-Serif" font-size="10.00">stdlib.h</text>
</a>
</g>
</g>
<!-- Node19&#45;&gt;Node21 -->
<g id="edge32_Node000019_Node000021" class="edge">
<title>Node19&#45;&gt;Node21</title>
<g id="a_edge32_Node000019_Node000021"><a xlink:title=" ">
<path fill="none" stroke="#63b8ff" d="M615.85,-164.98C643.26,-156.13 686.39,-142.19 717.06,-132.28"/>
<polygon fill="#63b8ff" stroke="#63b8ff" points="718.5,-135.49 726.94,-129.08 716.35,-128.83 718.5,-135.49"/>
</a>
</g>
</g>
<!-- Node22 -->
<g id="Node000022" class="node">
<title>Node22</title>
<g id="a_Node000022"><a xlink:title=" ">
<polygon fill="#e0e0e0" stroke="#999999" points="884.5,-129 836.5,-129 836.5,-110 884.5,-110 884.5,-129"/>
<text text-anchor="middle" x="860.5" y="-117" font-family="Helvetica,sans-Serif" font-size="10.00">time.h</text>
</a>
</g>
</g>
<!-- Node19&#45;&gt;Node22 -->
<g id="edge33_Node000019_Node000022" class="edge">
<title>Node19&#45;&gt;Node22</title>
<g id="a_edge33_Node000019_Node000022"><a xlink:title=" ">
<path fill="none" stroke="#63b8ff" d="M617.7,-167.07C621,-166.35 624.32,-165.65 627.5,-165 713.85,-147.38 736.15,-146.62 822.5,-129 823.77,-128.74 825.06,-128.47 826.36,-128.2"/>
<polygon fill="#63b8ff" stroke="#63b8ff" points="827.37,-131.56 836.41,-126.03 825.89,-124.72 827.37,-131.56"/>
</a>
</g>
</g>
</g>
</svg>

<g id="navigator" transform="translate(0 0)" fill="#404254">
  <rect fill="#f2f5e9" fill-opacity="0.5" stroke="#606060" stroke-width=".5" x="0" y="0" width="60" height="60"/>
  <use id="zoomplus" xlink:href="#zoomPlus" x="17" y="9" onmousedown="handleZoom(evt,'in')"/>
  <use id="zoomminus" xlink:href="#zoomMin" x="42" y="9" onmousedown="handleZoom(evt,'out')"/>
  <use id="reset" xlink:href="#resetDef" x="30" y="36" onmousedown="handleReset()"/>
   <use id="arrowup" xlink:href="#arrowUp" x="0" y="0" onmousedown="handlePan(0,-1)"/>
  <use id="arrowright" xlink:href="#arrowRight" x="0" y="0" onmousedown="handlePan(1,0)"/>
  <use id="arrowdown" xlink:href="#arrowDown" x="0" y="0" onmousedown="handlePan(0,1)"/>
  <use id="arrowleft" xlink:href="#arrowLeft" x="0" y="0" onmousedown="handlePan(-1,0)"/>
</g>
<svg viewBox="0 0 15 15" width="100%" height="30px" preserveAspectRatio="xMaxYMin meet">
 <g id="arrow_out" transform="scale(0.3 0.3)">
  <a xlink:href="rocfft_8cc__incl_org.svg" target="_base">
   <rect id="button" ry="5" rx="5" y="6" x="6" height="38" width="38"
        fill="#f2f5e9" fill-opacity="0.5" stroke="#606060" stroke-width="1.0"/>
   <path id="arrow"
     d="M 11.500037,31.436501 C 11.940474,20.09759 22.043105,11.32322 32.158766,21.979434 L 37.068811,17.246167 C 37.068811,17.246167 37.088388,32 37.088388,32 L 22.160133,31.978069 C 22.160133,31.978069 26.997745,27.140456 26.997745,27.140456 C 18.528582,18.264221 13.291696,25.230495 11.500037,31.436501 z"
     style="fill:#404040;"/>
  </a>
 </g>
</svg>

<style type='text/css'>
<![CDATA[
[data-mouse-over-selected='false'] { opacity: 0.7; }
[data-mouse-over-selected='true']  { opacity: 1.0; }
]]>
</style>
<script type="application/ecmascript"><![CDATA[
document.addEventListener('DOMContentLoaded', (event) => {
  highlightEdges();
  highlightAdjacentNodes();
});
]]></script>
</svg>
