<?xml version="1.0" encoding="UTF-8" standalone="no"?>
<!DOCTYPE svg PUBLIC "-//W3C//DTD SVG 1.1//EN"
 "http://www.w3.org/Graphics/SVG/1.1/DTD/svg11.dtd">
<!-- Generated by graphviz version 2.43.0 (0)
 -->
<!-- Title: src/core/kernels/rocfft.cc Pages: 1 -->
<svg width="893pt" height="247pt"
 viewBox="0.00 0.00 892.50 247.00" xmlns="http://www.w3.org/2000/svg" xmlns:xlink="http://www.w3.org/1999/xlink">
<g id="graph0" class="graph" transform="scale(1 1) rotate(0) translate(4 243)">
<title>src/core/kernels/rocfft.cc</title>
<!-- Node1 -->
<g id="Node000001" class="node">
<title>Node1</title>
<g id="a_Node000001"><a xlink:title=" ">
<polygon fill="#999999" stroke="#666666" points="556,-239 421,-239 421,-220 556,-220 556,-239"/>
<text text-anchor="middle" x="488.5" y="-227" font-family="Helvetica,sans-Serif" font-size="10.00">src/core/kernels/rocfft.cc</text>
</a>
</g>
</g>
<!-- Node2 -->
<g id="Node000002" class="node">
<title>Node2</title>
<g id="a_Node000002"><a xlink:title=" ">
<polygon fill="#e0e0e0" stroke="#999999" points="126.5,-184 46.5,-184 46.5,-165 126.5,-165 126.5,-184"/>
<text text-anchor="middle" x="86.5" y="-172" font-family="Helvetica,sans-Serif" font-size="10.00">rocfft/rocfft.h</text>
</a>
</g>
</g>
<!-- Node1&#45;&gt;Node2 -->
<g id="edge1_Node000001_Node000002" class="edge">
<title>Node1&#45;&gt;Node2</title>
<g id="a_edge1_Node000001_Node000002"><a xlink:title=" ">
<path fill="none" stroke="#63b8ff" d="M420.73,-220.42C350.54,-211.92 237.73,-197.87 140.5,-184 139.23,-183.82 137.95,-183.63 136.65,-183.44"/>
<polygon fill="#63b8ff" stroke="#63b8ff" points="136.99,-179.96 126.59,-181.94 135.96,-186.88 136.99,-179.96"/>
</a>
</g>
</g>
<!-- Node3 -->
<g id="Node000003" class="node">
<title>Node3</title>
<g id="a_Node000003"><a xlink:title=" ">
<polygon fill="#e0e0e0" stroke="#999999" points="561.5,-129 511.5,-129 511.5,-110 561.5,-110 561.5,-129"/>
<text text-anchor="middle" x="536.5" y="-117" font-family="Helvetica,sans-Serif" font-size="10.00">stdio.h</text>
</a>
</g>
</g>
<!-- Node1&#45;&gt;Node3 -->
<g id="edge2_Node000001_Node000003" class="edge">
<title>Node1&#45;&gt;Node3</title>
<g id="a_edge2_Node000001_Node000003"><a xlink:title=" ">
<path fill="none" stroke="#63b8ff" d="M492.43,-219.66C500.31,-201.93 518.18,-161.73 528.58,-138.32"/>
<polygon fill="#63b8ff" stroke="#63b8ff" points="531.79,-139.72 532.65,-129.16 525.39,-136.87 531.79,-139.72"/>
</a>
</g>
</g>
<!-- Node4 -->
<g id="Node000004" class="node">
<title>Node4</title>
<g id="a_Node000004"><a xlink:title=" ">
<polygon fill="#e0e0e0" stroke="#999999" points="684,-184 635,-184 635,-165 684,-165 684,-184"/>
<text text-anchor="middle" x="659.5" y="-172" font-family="Helvetica,sans-Serif" font-size="10.00">cstdlib</text>
</a>
</g>
</g>
<!-- Node1&#45;&gt;Node4 -->
<g id="edge3_Node000001_Node000004" class="edge">
<title>Node1&#45;&gt;Node4</title>
<g id="a_edge3_Node000001_Node000004"><a xlink:title=" ">
<path fill="none" stroke="#63b8ff" d="M515.97,-219.98C545.62,-210.8 592.89,-196.15 625.01,-186.19"/>
<polygon fill="#63b8ff" stroke="#63b8ff" points="626.35,-189.44 634.87,-183.13 624.28,-182.75 626.35,-189.44"/>
</a>
</g>
</g>
<!-- Node5 -->
<g id="Node000005" class="node">
<title>Node5</title>
<g id="a_Node000005"><a xlink:title=" ">
<polygon fill="#e0e0e0" stroke="#999999" points="795,-184 702,-184 702,-165 795,-165 795,-184"/>
<text text-anchor="middle" x="748.5" y="-172" font-family="Helvetica,sans-Serif" font-size="10.00">unordered_map</text>
</a>
</g>
</g>
<!-- Node1&#45;&gt;Node5 -->
<g id="edge4_Node000001_Node000005" class="edge">
<title>Node1&#45;&gt;Node5</title>
<g id="a_edge4_Node000001_Node000005"><a xlink:title=" ">
<path fill="none" stroke="#63b8ff" d="M530.27,-219.98C575.44,-210.78 647.5,-196.09 696.35,-186.13"/>
<polygon fill="#63b8ff" stroke="#63b8ff" points="697.3,-189.51 706.4,-184.08 695.9,-182.65 697.3,-189.51"/>
</a>
</g>
</g>
<!-- Node6 -->
<g id="Node000006" class="node">
<title>Node6</title>
<g id="a_Node000006"><a xlink:href="ac__fft_8h.html" target="_top" xlink:title=" ">
<polygon fill="white" stroke="#666666" points="236,-184 183,-184 183,-165 236,-165 236,-184"/>
<text text-anchor="middle" x="209.5" y="-172" font-family="Helvetica,sans-Serif" font-size="10.00">ac_fft.h</text>
</a>
</g>
</g>
<!-- Node1&#45;&gt;Node6 -->
<g id="edge5_Node000001_Node000006" class="edge">
<title>Node1&#45;&gt;Node6</title>
<g id="a_edge5_Node000001_Node000006"><a xlink:title=" ">
<path fill="none" stroke="#63b8ff" d="M437.62,-219.96C390.57,-211.88 318.45,-199.07 246.37,-184.09"/>
<polygon fill="#63b8ff" stroke="#63b8ff" points="246.71,-180.59 236.2,-181.96 245.27,-187.44 246.71,-180.59"/>
</a>
</g>
</g>
<!-- Node10 -->
<g id="Node000010" class="node">
<title>Node10</title>
<g id="a_Node000010"><a xlink:href="host__datatypes_8h.html" target="_top" xlink:title=" ">
<polygon fill="white" stroke="#666666" points="455,-129 354,-129 354,-110 455,-110 455,-129"/>
<text text-anchor="middle" x="404.5" y="-117" font-family="Helvetica,sans-Serif" font-size="10.00">host_datatypes.h</text>
</a>
</g>
</g>
<!-- Node1&#45;&gt;Node10 -->
<g id="edge37_Node000001_Node000010" class="edge">
<title>Node1&#45;&gt;Node10</title>
<g id="a_edge37_Node000001_Node000010"><a xlink:title=" ">
<path fill="none" stroke="#63b8ff" d="M487.75,-219.89C486.24,-206.87 481.85,-181.92 469.5,-165 459.96,-151.93 445.36,-141.44 432.41,-133.93"/>
<polygon fill="#63b8ff" stroke="#63b8ff" points="433.82,-130.72 423.37,-129 430.47,-136.86 433.82,-130.72"/>
</a>
</g>
</g>
<!-- Node16 -->
<g id="Node000016" class="node">
<title>Node16</title>
<g id="a_Node000016"><a xlink:href="ac__helpers_8h.html" target="_top" xlink:title=" ">
<polygon fill="white" stroke="#666666" points="332.5,-184 254.5,-184 254.5,-165 332.5,-165 332.5,-184"/>
<text text-anchor="middle" x="293.5" y="-172" font-family="Helvetica,sans-Serif" font-size="10.00">ac_helpers.h</text>
</a>
</g>
</g>
<!-- Node1&#45;&gt;Node16 -->
<g id="edge16_Node000001_Node000016" class="edge">
<title>Node1&#45;&gt;Node16</title>
<g id="a_edge16_Node000001_Node000016"><a xlink:title=" ">
<path fill="none" stroke="#63b8ff" d="M457.17,-219.98C424.01,-210.97 371.5,-196.7 334.94,-186.76"/>
<polygon fill="#63b8ff" stroke="#63b8ff" points="335.64,-183.33 325.08,-184.08 333.81,-190.08 335.64,-183.33"/>
</a>
</g>
</g>
<!-- Node17 -->
<g id="Node000017" class="node">
<title>Node17</title>
<g id="a_Node000017"><a xlink:href="ac__mpi_8h.html" target="_top" xlink:title=" ">
<polygon fill="white" stroke="#666666" points="874,-184 813,-184 813,-165 874,-165 874,-184"/>
<text text-anchor="middle" x="843.5" y="-172" font-family="Helvetica,sans-Serif" font-size="10.00">ac_mpi.h</text>
</a>
</g>
</g>
<!-- Node1&#45;&gt;Node17 -->
<g id="edge20_Node000001_Node000017" class="edge">
<title>Node1&#45;&gt;Node17</title>
<g id="a_edge20_Node000001_Node000017"><a xlink:title=" ">
<path fill="none" stroke="#63b8ff" d="M556.23,-220.45C618.12,-212.75 712.38,-200.19 803,-184.16"/>
<polygon fill="#63b8ff" stroke="#63b8ff" points="803.66,-187.6 812.89,-182.4 802.43,-180.71 803.66,-187.6"/>
</a>
</g>
</g>
<!-- Node18 -->
<g id="Node000018" class="node">
<title>Node18</title>
<g id="a_Node000018"><a xlink:href="astaroth__cuda__wrappers_8h.html" target="_top" xlink:title=" ">
<polygon fill="white" stroke="#666666" points="145,-129 0,-129 0,-110 145,-110 145,-129"/>
<text text-anchor="middle" x="72.5" y="-117" font-family="Helvetica,sans-Serif" font-size="10.00">astaroth_cuda_wrappers.h</text>
</a>
</g>
</g>
<!-- Node1&#45;&gt;Node18 -->
<g id="edge21_Node000001_Node000018" class="edge">
<title>Node1&#45;&gt;Node18</title>
<g id="a_edge21_Node000001_Node000018"><a xlink:title=" ">
<path fill="none" stroke="#63b8ff" d="M420.77,-227.08C355.59,-223.85 255.19,-213.89 173.5,-184 156.87,-177.91 117.39,-151.63 93.01,-134.84"/>
<polygon fill="#63b8ff" stroke="#63b8ff" points="94.99,-131.96 84.78,-129.14 91.01,-137.71 94.99,-131.96"/>
</a>
</g>
</g>
<!-- Node19 -->
<g id="Node000019" class="node">
<title>Node19</title>
<g id="a_Node000019"><a xlink:href="common__kernels_8h.html" target="_top" xlink:title=" ">
<polygon fill="white" stroke="#666666" points="460,-184 351,-184 351,-165 460,-165 460,-184"/>
<text text-anchor="middle" x="405.5" y="-172" font-family="Helvetica,sans-Serif" font-size="10.00">common_kernels.h</text>
</a>
</g>
</g>
<!-- Node1&#45;&gt;Node19 -->
<g id="edge23_Node000001_Node000019" class="edge">
<title>Node1&#45;&gt;Node19</title>
<g id="a_edge23_Node000001_Node000019"><a xlink:title=" ">
<path fill="none" stroke="#63b8ff" d="M475.16,-219.98C462.41,-211.84 442.95,-199.41 427.83,-189.76"/>
<polygon fill="#63b8ff" stroke="#63b8ff" points="429.39,-186.6 419.08,-184.17 425.62,-192.5 429.39,-186.6"/>
</a>
</g>
</g>
<!-- Node20 -->
<g id="Node000020" class="node">
<title>Node20</title>
<g id="a_Node000020"><a xlink:href="errchk_8h.html" target="_top" xlink:title="Brief info.">
<polygon fill="white" stroke="#666666" points="616.5,-184 560.5,-184 560.5,-165 616.5,-165 616.5,-184"/>
<text text-anchor="middle" x="588.5" y="-172" font-family="Helvetica,sans-Serif" font-size="10.00">errchk.h</text>
</a>
</g>
</g>
<!-- Node1&#45;&gt;Node20 -->
<g id="edge28_Node000001_Node000020" class="edge">
<title>Node1&#45;&gt;Node20</title>
<g id="a_edge28_Node000001_Node000020"><a xlink:title=" ">
<path fill="none" stroke="#63b8ff" d="M504.57,-219.98C520.36,-211.61 544.72,-198.7 563.13,-188.95"/>
<polygon fill="#63b8ff" stroke="#63b8ff" points="564.94,-191.95 572.14,-184.17 561.67,-185.76 564.94,-191.95"/>
</a>
</g>
</g>
<!-- Node7 -->
<g id="Node000007" class="node">
<title>Node7</title>
<g id="a_Node000007"><a xlink:href="device__headers_8h.html" target="_top" xlink:title=" ">
<polygon fill="white" stroke="#666666" points="263.5,-74 161.5,-74 161.5,-55 263.5,-55 263.5,-74"/>
<text text-anchor="middle" x="212.5" y="-62" font-family="Helvetica,sans-Serif" font-size="10.00">device_headers.h</text>
</a>
</g>
</g>
<!-- Node6&#45;&gt;Node7 -->
<g id="edge6_Node000006_Node000007" class="edge">
<title>Node6&#45;&gt;Node7</title>
<g id="a_edge6_Node000006_Node000007"><a xlink:title=" ">
<path fill="none" stroke="#63b8ff" d="M205.94,-164.9C201.33,-152.71 194.27,-129.71 197.5,-110 198.97,-101.05 201.99,-91.47 204.94,-83.51"/>
<polygon fill="#63b8ff" stroke="#63b8ff" points="208.22,-84.74 208.64,-74.15 201.71,-82.16 208.22,-84.74"/>
</a>
</g>
</g>
<!-- Node6&#45;&gt;Node10 -->
<g id="edge9_Node000006_Node000010" class="edge">
<title>Node6&#45;&gt;Node10</title>
<g id="a_edge9_Node000006_Node000010"><a xlink:title=" ">
<path fill="none" stroke="#63b8ff" d="M236.21,-166.24C268.95,-157.34 324.82,-142.16 363.13,-131.74"/>
<polygon fill="#63b8ff" stroke="#63b8ff" points="364.23,-135.07 372.96,-129.07 362.39,-128.32 364.23,-135.07"/>
</a>
</g>
</g>
<!-- Node8 -->
<g id="Node000008" class="node">
<title>Node8</title>
<g id="a_Node000008"><a xlink:title=" ">
<polygon fill="#e0e0e0" stroke="#999999" points="213,-19 100,-19 100,0 213,0 213,-19"/>
<text text-anchor="middle" x="156.5" y="-7" font-family="Helvetica,sans-Serif" font-size="10.00">cuda_runtime_api.h</text>
</a>
</g>
</g>
<!-- Node7&#45;&gt;Node8 -->
<g id="edge7_Node000007_Node000008" class="edge">
<title>Node7&#45;&gt;Node8</title>
<g id="a_edge7_Node000007_Node000008"><a xlink:title=" ">
<path fill="none" stroke="#63b8ff" d="M203.5,-54.98C195.31,-47.23 182.99,-35.58 173.03,-26.14"/>
<polygon fill="#63b8ff" stroke="#63b8ff" points="175.33,-23.5 165.66,-19.17 170.52,-28.59 175.33,-23.5"/>
</a>
</g>
</g>
<!-- Node9 -->
<g id="Node000009" class="node">
<title>Node9</title>
<g id="a_Node000009"><a xlink:title=" ">
<polygon fill="#e0e0e0" stroke="#999999" points="307.5,-19 231.5,-19 231.5,0 307.5,0 307.5,-19"/>
<text text-anchor="middle" x="269.5" y="-7" font-family="Helvetica,sans-Serif" font-size="10.00">cuda_fp16.h</text>
</a>
</g>
</g>
<!-- Node7&#45;&gt;Node9 -->
<g id="edge8_Node000007_Node000009" class="edge">
<title>Node7&#45;&gt;Node9</title>
<g id="a_edge8_Node000007_Node000009"><a xlink:title=" ">
<path fill="none" stroke="#63b8ff" d="M221.66,-54.98C230,-47.23 242.53,-35.58 252.68,-26.14"/>
<polygon fill="#63b8ff" stroke="#63b8ff" points="255.24,-28.54 260.18,-19.17 250.47,-23.42 255.24,-28.54"/>
</a>
</g>
</g>
<!-- Node10&#45;&gt;Node7 -->
<g id="edge14_Node000010_Node000007" class="edge">
<title>Node10&#45;&gt;Node7</title>
<g id="a_edge14_Node000010_Node000007"><a xlink:title=" ">
<path fill="none" stroke="#63b8ff" d="M373.65,-109.98C341,-100.97 289.3,-86.7 253.3,-76.76"/>
<polygon fill="#63b8ff" stroke="#63b8ff" points="254.16,-73.37 243.59,-74.08 252.3,-80.12 254.16,-73.37"/>
</a>
</g>
</g>
<!-- Node11 -->
<g id="Node000011" class="node">
<title>Node11</title>
<g id="a_Node000011"><a xlink:title=" ">
<polygon fill="#e0e0e0" stroke="#999999" points="644.5,-74 582.5,-74 582.5,-55 644.5,-55 644.5,-74"/>
<text text-anchor="middle" x="613.5" y="-62" font-family="Helvetica,sans-Serif" font-size="10.00">stdbool.h</text>
</a>
</g>
</g>
<!-- Node10&#45;&gt;Node11 -->
<g id="edge10_Node000010_Node000011" class="edge">
<title>Node10&#45;&gt;Node11</title>
<g id="a_edge10_Node000010_Node000011"><a xlink:title=" ">
<path fill="none" stroke="#63b8ff" d="M438.08,-109.98C474.7,-100.7 533.32,-85.83 572.6,-75.87"/>
<polygon fill="#63b8ff" stroke="#63b8ff" points="573.56,-79.24 582.39,-73.39 571.84,-72.45 573.56,-79.24"/>
</a>
</g>
</g>
<!-- Node12 -->
<g id="Node000012" class="node">
<title>Node12</title>
<g id="a_Node000012"><a xlink:title=" ">
<polygon fill="#e0e0e0" stroke="#999999" points="718.5,-74 662.5,-74 662.5,-55 718.5,-55 718.5,-74"/>
<text text-anchor="middle" x="690.5" y="-62" font-family="Helvetica,sans-Serif" font-size="10.00">stddef.h</text>
</a>
</g>
</g>
<!-- Node10&#45;&gt;Node12 -->
<g id="edge11_Node000010_Node000012" class="edge">
<title>Node10&#45;&gt;Node12</title>
<g id="a_edge11_Node000010_Node000012"><a xlink:title=" ">
<path fill="none" stroke="#63b8ff" d="M455.19,-110.19C503.44,-102.11 578.31,-89.14 652.29,-74.17"/>
<polygon fill="#63b8ff" stroke="#63b8ff" points="653.15,-77.57 662.25,-72.14 651.75,-70.71 653.15,-77.57"/>
</a>
</g>
</g>
<!-- Node13 -->
<g id="Node000013" class="node">
<title>Node13</title>
<g id="a_Node000013"><a xlink:href="acreal_8h.html" target="_top" xlink:title=" ">
<polygon fill="white" stroke="#666666" points="337.5,-74 281.5,-74 281.5,-55 337.5,-55 337.5,-74"/>
<text text-anchor="middle" x="309.5" y="-62" font-family="Helvetica,sans-Serif" font-size="10.00">acreal.h</text>
</a>
</g>
</g>
<!-- Node10&#45;&gt;Node13 -->
<g id="edge12_Node000010_Node000013" class="edge">
<title>Node10&#45;&gt;Node13</title>
<g id="a_edge12_Node000010_Node000013"><a xlink:title=" ">
<path fill="none" stroke="#63b8ff" d="M389.24,-109.98C374.37,-101.69 351.52,-88.94 334.08,-79.22"/>
<polygon fill="#63b8ff" stroke="#63b8ff" points="335.48,-75.99 325.04,-74.17 332.07,-82.1 335.48,-75.99"/>
</a>
</g>
</g>
<!-- Node14 -->
<g id="Node000014" class="node">
<title>Node14</title>
<g id="a_Node000014"><a xlink:title=" ">
<polygon fill="#e0e0e0" stroke="#999999" points="564,-74 469,-74 469,-55 564,-55 564,-74"/>
<text text-anchor="middle" x="516.5" y="-62" font-family="Helvetica,sans-Serif" font-size="10.00">builtin_enums.h</text>
</a>
</g>
</g>
<!-- Node10&#45;&gt;Node14 -->
<g id="edge13_Node000010_Node000014" class="edge">
<title>Node10&#45;&gt;Node14</title>
<g id="a_edge13_Node000010_Node000014"><a xlink:title=" ">
<path fill="none" stroke="#63b8ff" d="M422.49,-109.98C440.43,-101.5 468.22,-88.35 488.93,-78.54"/>
<polygon fill="#63b8ff" stroke="#63b8ff" points="490.64,-81.61 498.18,-74.17 487.64,-75.28 490.64,-81.61"/>
</a>
</g>
</g>
<!-- Node15 -->
<g id="Node000015" class="node">
<title>Node15</title>
<g id="a_Node000015"><a xlink:title=" ">
<polygon fill="#e0e0e0" stroke="#999999" points="451,-74 356,-74 356,-55 451,-55 451,-74"/>
<text text-anchor="middle" x="403.5" y="-62" font-family="Helvetica,sans-Serif" font-size="10.00">user_typedefs.h</text>
</a>
</g>
</g>
<!-- Node10&#45;&gt;Node15 -->
<g id="edge15_Node000010_Node000015" class="edge">
<title>Node10&#45;&gt;Node15</title>
<g id="a_edge15_Node000010_Node000015"><a xlink:title=" ">
<path fill="none" stroke="#63b8ff" d="M404.33,-109.75C404.2,-102.8 404.02,-92.85 403.85,-84.13"/>
<polygon fill="#63b8ff" stroke="#63b8ff" points="407.35,-84.02 403.66,-74.09 400.35,-84.15 407.35,-84.02"/>
</a>
</g>
</g>
<!-- Node16&#45;&gt;Node7 -->
<g id="edge18_Node000016_Node000007" class="edge">
<title>Node16&#45;&gt;Node7</title>
<g id="a_edge18_Node000016_Node000007"><a xlink:title=" ">
<path fill="none" stroke="#63b8ff" d="M286.87,-164.66C273.4,-146.69 242.61,-105.64 225.16,-82.38"/>
<polygon fill="#63b8ff" stroke="#63b8ff" points="227.79,-80.06 218.99,-74.16 222.19,-84.26 227.79,-80.06"/>
</a>
</g>
</g>
<!-- Node16&#45;&gt;Node10 -->
<g id="edge19_Node000016_Node000010" class="edge">
<title>Node16&#45;&gt;Node10</title>
<g id="a_edge19_Node000016_Node000010"><a xlink:title=" ">
<path fill="none" stroke="#63b8ff" d="M311.33,-164.98C329.11,-156.5 356.65,-143.35 377.18,-133.54"/>
<polygon fill="#63b8ff" stroke="#63b8ff" points="378.83,-136.64 386.34,-129.17 375.81,-130.32 378.83,-136.64"/>
</a>
</g>
</g>
<!-- Node16&#45;&gt;Node13 -->
<g id="edge17_Node000016_Node000013" class="edge">
<title>Node16&#45;&gt;Node13</title>
<g id="a_edge17_Node000016_Node000013"><a xlink:title=" ">
<path fill="none" stroke="#63b8ff" d="M294.81,-164.66C297.4,-147.17 303.23,-107.8 306.72,-84.27"/>
<polygon fill="#63b8ff" stroke="#63b8ff" points="310.21,-84.56 308.22,-74.16 303.29,-83.54 310.21,-84.56"/>
</a>
</g>
</g>
<!-- Node18&#45;&gt;Node7 -->
<g id="edge22_Node000018_Node000007" class="edge">
<title>Node18&#45;&gt;Node7</title>
<g id="a_edge22_Node000018_Node000007"><a xlink:title=" ">
<path fill="none" stroke="#63b8ff" d="M94.99,-109.98C118.02,-101.27 154.04,-87.63 180.13,-77.75"/>
<polygon fill="#63b8ff" stroke="#63b8ff" points="181.48,-80.98 189.6,-74.17 179.01,-74.44 181.48,-80.98"/>
</a>
</g>
</g>
<!-- Node19&#45;&gt;Node7 -->
<g id="edge26_Node000019_Node000007" class="edge">
<title>Node19&#45;&gt;Node7</title>
<g id="a_edge26_Node000019_Node000007"><a xlink:title=" ">
<path fill="none" stroke="#63b8ff" d="M390.03,-164.84C356.49,-146.08 276.87,-101.52 236.64,-79.01"/>
<polygon fill="#63b8ff" stroke="#63b8ff" points="238.21,-75.88 227.77,-74.05 234.79,-81.98 238.21,-75.88"/>
</a>
</g>
</g>
<!-- Node19&#45;&gt;Node10 -->
<g id="edge27_Node000019_Node000010" class="edge">
<title>Node19&#45;&gt;Node10</title>
<g id="a_edge27_Node000019_Node000010"><a xlink:title=" ">
<path fill="none" stroke="#63b8ff" d="M405.33,-164.75C405.2,-157.8 405.02,-147.85 404.85,-139.13"/>
<polygon fill="#63b8ff" stroke="#63b8ff" points="408.35,-139.02 404.66,-129.09 401.35,-139.15 408.35,-139.02"/>
</a>
</g>
</g>
<!-- Node19&#45;&gt;Node12 -->
<g id="edge24_Node000019_Node000012" class="edge">
<title>Node19&#45;&gt;Node12</title>
<g id="a_edge24_Node000019_Node000012"><a xlink:title=" ">
<path fill="none" stroke="#63b8ff" d="M415.85,-164.95C432.87,-151.32 468.29,-124.71 502.5,-110 505.98,-108.5 598.36,-86.91 652.3,-74.37"/>
<polygon fill="#63b8ff" stroke="#63b8ff" points="653.27,-77.74 662.22,-72.06 651.69,-70.92 653.27,-77.74"/>
</a>
</g>
</g>
<!-- Node19&#45;&gt;Node13 -->
<g id="edge25_Node000019_Node000013" class="edge">
<title>Node19&#45;&gt;Node13</title>
<g id="a_edge25_Node000019_Node000013"><a xlink:title=" ">
<path fill="none" stroke="#63b8ff" d="M390.26,-164.99C376.96,-157.01 357.76,-144.05 344.5,-129 332.55,-115.43 322.99,-97.11 316.91,-83.63"/>
<polygon fill="#63b8ff" stroke="#63b8ff" points="319.95,-81.85 312.79,-74.04 313.52,-84.61 319.95,-81.85"/>
</a>
</g>
</g>
<!-- Node20&#45;&gt;Node3 -->
<g id="edge32_Node000020_Node000003" class="edge">
<title>Node20&#45;&gt;Node3</title>
<g id="a_edge32_Node000020_Node000003"><a xlink:title=" ">
<path fill="none" stroke="#63b8ff" d="M579.91,-164.75C572.34,-157.03 561.12,-145.6 551.99,-136.28"/>
<polygon fill="#63b8ff" stroke="#63b8ff" points="554.43,-133.78 544.93,-129.09 549.43,-138.68 554.43,-133.78"/>
</a>
</g>
</g>
<!-- Node20&#45;&gt;Node7 -->
<g id="edge35_Node000020_Node000007" class="edge">
<title>Node20&#45;&gt;Node7</title>
<g id="a_edge35_Node000020_Node000007"><a xlink:title=" ">
<path fill="none" stroke="#63b8ff" d="M588.83,-164.96C588.86,-151.1 586.7,-123.85 570.5,-110 521.98,-68.51 353.96,-81.41 273.8,-73.94"/>
<polygon fill="#63b8ff" stroke="#63b8ff" points="273.88,-70.43 263.55,-72.81 273.11,-77.39 273.88,-70.43"/>
</a>
</g>
</g>
<!-- Node20&#45;&gt;Node10 -->
<g id="edge36_Node000020_Node000010" class="edge">
<title>Node20&#45;&gt;Node10</title>
<g id="a_edge36_Node000020_Node000010"><a xlink:title=" ">
<path fill="none" stroke="#63b8ff" d="M560.15,-165.33C529.05,-156.38 478.91,-141.93 443.97,-131.87"/>
<polygon fill="#63b8ff" stroke="#63b8ff" points="444.68,-128.43 434.1,-129.03 442.74,-135.16 444.68,-128.43"/>
</a>
</g>
</g>
<!-- Node20&#45;&gt;Node11 -->
<g id="edge29_Node000020_Node000011" class="edge">
<title>Node20&#45;&gt;Node11</title>
<g id="a_edge29_Node000020_Node000011"><a xlink:title=" ">
<path fill="none" stroke="#63b8ff" d="M591.93,-164.76C595.31,-155.88 600.39,-141.67 603.5,-129 607.12,-114.23 609.72,-97.19 611.36,-84.48"/>
<polygon fill="#63b8ff" stroke="#63b8ff" points="614.88,-84.57 612.6,-74.22 607.93,-83.73 614.88,-84.57"/>
</a>
</g>
</g>
<!-- Node20&#45;&gt;Node12 -->
<g id="edge30_Node000020_Node000012" class="edge">
<title>Node20&#45;&gt;Node12</title>
<g id="a_edge30_Node000020_Node000012"><a xlink:title=" ">
<path fill="none" stroke="#63b8ff" d="M616.72,-167.18C620.02,-166.44 623.33,-165.7 626.5,-165 698.92,-148.9 743.04,-186.84 789.5,-129 810.36,-103.03 764.42,-84.37 728.35,-74.25"/>
<polygon fill="#63b8ff" stroke="#63b8ff" points="729.07,-70.82 718.5,-71.62 727.26,-77.58 729.07,-70.82"/>
</a>
</g>
</g>
<!-- Node21 -->
<g id="Node000021" class="node">
<title>Node21</title>
<g id="a_Node000021"><a xlink:title=" ">
<polygon fill="#e0e0e0" stroke="#999999" points="709,-129 656,-129 656,-110 709,-110 709,-129"/>
<text text-anchor="middle" x="682.5" y="-117" font-family="Helvetica,sans-Serif" font-size="10.00">stdint.h</text>
</a>
</g>
</g>
<!-- Node20&#45;&gt;Node21 -->
<g id="edge31_Node000020_Node000021" class="edge">
<title>Node20&#45;&gt;Node21</title>
<g id="a_edge31_Node000020_Node000021"><a xlink:title=" ">
<path fill="none" stroke="#63b8ff" d="M603.6,-164.98C618.32,-156.69 640.92,-143.94 658.17,-134.22"/>
<polygon fill="#63b8ff" stroke="#63b8ff" points="660.13,-137.13 667.12,-129.17 656.69,-131.03 660.13,-137.13"/>
</a>
</g>
</g>
<!-- Node22 -->
<g id="Node000022" class="node">
<title>Node22</title>
<g id="a_Node000022"><a xlink:title=" ">
<polygon fill="#e0e0e0" stroke="#999999" points="780,-129 727,-129 727,-110 780,-110 780,-129"/>
<text text-anchor="middle" x="753.5" y="-117" font-family="Helvetica,sans-Serif" font-size="10.00">stdlib.h</text>
</a>
</g>
</g>
<!-- Node20&#45;&gt;Node22 -->
<g id="edge33_Node000020_Node000022" class="edge">
<title>Node20&#45;&gt;Node22</title>
<g id="a_edge33_Node000020_Node000022"><a xlink:title=" ">
<path fill="none" stroke="#63b8ff" d="M615.01,-164.98C642.71,-156.09 686.36,-142.07 717.24,-132.15"/>
<polygon fill="#63b8ff" stroke="#63b8ff" points="718.33,-135.47 726.78,-129.08 716.19,-128.81 718.33,-135.47"/>
</a>
</g>
</g>
<!-- Node23 -->
<g id="Node000023" class="node">
<title>Node23</title>
<g id="a_Node000023"><a xlink:title=" ">
<polygon fill="#e0e0e0" stroke="#999999" points="884.5,-129 836.5,-129 836.5,-110 884.5,-110 884.5,-129"/>
<text text-anchor="middle" x="860.5" y="-117" font-family="Helvetica,sans-Serif" font-size="10.00">time.h</text>
</a>
</g>
</g>
<!-- Node20&#45;&gt;Node23 -->
<g id="edge34_Node000020_Node000023" class="edge">
<title>Node20&#45;&gt;Node23</title>
<g id="a_edge34_Node000020_Node000023"><a xlink:title=" ">
<path fill="none" stroke="#63b8ff" d="M616.7,-167.07C620,-166.35 623.32,-165.65 626.5,-165 713.29,-147.33 735.71,-146.67 822.5,-129 823.77,-128.74 825.06,-128.48 826.36,-128.2"/>
<polygon fill="#63b8ff" stroke="#63b8ff" points="827.37,-131.56 836.41,-126.04 825.89,-124.72 827.37,-131.56"/>
</a>
</g>
</g>
</g>
</svg>
