<?xml version="1.0" encoding="UTF-8" standalone="no"?>
<!DOCTYPE svg PUBLIC "-//W3C//DTD SVG 1.1//EN"
 "http://www.w3.org/Graphics/SVG/1.1/DTD/svg11.dtd">
<!-- Generated by graphviz version 2.43.0 (0)
 -->
<!-- Title: src/core/kernels/rocfft.cc Pages: 1 -->
<!--zoomable 247 -->

<svg id="main" version="1.1" xmlns="http://www.w3.org/2000/svg" xmlns:xlink="http://www.w3.org/1999/xlink" xml:space="preserve" onload="init(evt)">
<style type="text/css"><![CDATA[
.node, .edge {opacity: 0.7;}
.node.selected, .edge.selected {opacity: 1;}
.edge:hover path { stroke: red; }
.edge:hover polygon { stroke: red; fill: red; }
]]></style>

<defs>
  <circle id="rim" cx="0" cy="0" r="7"/>
  <circle id="rim2" cx="0" cy="0" r="3.5"/>
  <g id="zoomPlus">
    <use xlink:href="#rim" fill="#404040"><set attributeName="fill" to="#808080" begin="zoomplus.mouseover" end="zoomplus.mouseout"/></use>
    <path d="M-4,0h8M0,-4v8" fill="none" stroke="white" stroke-width="1.5" pointer-events="none"/>
  </g>
  <g id="zoomMin">
    <use xlink:href="#rim" fill="#404040"><set attributeName="fill" to="#808080" begin="zoomminus.mouseover" end="zoomminus.mouseout"/></use>
    <path d="M-4,0h8" fill="none" stroke="white" stroke-width="1.5" pointer-events="none"/>
  </g>
  <g id="arrowUp" transform="translate(30 24)">
    <use xlink:href="#rim"/>
    <path pointer-events="none" fill="none" stroke="white" stroke-width="1.5" d="M0,-3.0v7 M-2.5,-0.5L0,-3.0L2.5,-0.5"/>
  </g>
  <g id="arrowRight" transform="rotate(90) translate(36 -43)">
    <use xlink:href="#rim"/>
    <path pointer-events="none" fill="none" stroke="white" stroke-width="1.5" d="M0,-3.0v7 M-2.5,-0.5L0,-3.0L2.5,-0.5"/>
  </g>
  <g id="arrowDown" transform="rotate(180) translate(-30 -48)">
    <use xlink:href="#rim"/>
    <path pointer-events="none" fill="none" stroke="white" stroke-width="1.5" d="M0,-3.0v7 M-2.5,-0.5L0,-3.0L2.5,-0.5"/>
  </g>
  <g id="arrowLeft" transform="rotate(270) translate(-36 17)">
    <use xlink:href="#rim"/>
    <path pointer-events="none" fill="none" stroke="white" stroke-width="1.5" d="M0,-3.0v7 M-2.5,-0.5L0,-3.0L2.5,-0.5"/>
  </g>
  <g id="resetDef">
    <use xlink:href="#rim2" fill="#404040"><set attributeName="fill" to="#808080" begin="reset.mouseover" end="reset.mouseout"/></use>
  </g>
</defs>
<script type="application/ecmascript">
var viewWidth = 985;
var viewHeight = 247;
var sectionId = 'dynsection-0';
</script>
<script type="application/ecmascript" xlink:href="svg.min.js"/>
<svg id="graph" class="graph">
<g id="viewport">
<title>src/core/kernels/rocfft.cc</title>
<!-- Node1 -->
<g id="Node000001" class="node">
<title>Node1</title>
<g id="a_Node000001"><a xlink:title=" ">
<polygon fill="#999999" stroke="#666666" points="517.5,-239 382.5,-239 382.5,-220 517.5,-220 517.5,-239"/>
<text text-anchor="middle" x="450" y="-227" font-family="Helvetica,sans-Serif" font-size="10.00">src/core/kernels/rocfft.cc</text>
</a>
</g>
</g>
<!-- Node2 -->
<g id="Node000002" class="node">
<title>Node2</title>
<g id="a_Node000002"><a xlink:title=" ">
<polygon fill="#e0e0e0" stroke="#999999" points="80,-184 0,-184 0,-165 80,-165 80,-184"/>
<text text-anchor="middle" x="40" y="-172" font-family="Helvetica,sans-Serif" font-size="10.00">rocfft/rocfft.h</text>
</a>
</g>
</g>
<!-- Node1&#45;&gt;Node2 -->
<g id="edge1_Node000001_Node000002" class="edge">
<title>Node1&#45;&gt;Node2</title>
<g id="a_edge1_Node000001_Node000002"><a xlink:title=" ">
<path fill="none" stroke="#63b8ff" d="M382.33,-221.16C311.89,-213.3 198.12,-199.96 90.18,-184.11"/>
<polygon fill="#63b8ff" stroke="#63b8ff" points="90.49,-180.62 80.09,-182.62 89.47,-187.54 90.49,-180.62"/>
</a>
</g>
</g>
<!-- Node3 -->
<g id="Node000003" class="node">
<title>Node3</title>
<g id="a_Node000003"><a xlink:title=" ">
<polygon fill="#e0e0e0" stroke="#999999" points="591,-129 541,-129 541,-110 591,-110 591,-129"/>
<text text-anchor="middle" x="566" y="-117" font-family="Helvetica,sans-Serif" font-size="10.00">stdio.h</text>
</a>
</g>
</g>
<!-- Node1&#45;&gt;Node3 -->
<g id="edge2_Node000001_Node000003" class="edge">
<title>Node1&#45;&gt;Node3</title>
<g id="a_edge2_Node000001_Node000003"><a xlink:title=" ">
<path fill="none" stroke="#63b8ff" d="M459.49,-219.66C479.13,-201.38 524.45,-159.18 549.17,-136.17"/>
<polygon fill="#63b8ff" stroke="#63b8ff" points="551.77,-138.53 556.7,-129.16 547,-133.41 551.77,-138.53"/>
</a>
</g>
</g>
<!-- Node4 -->
<g id="Node000004" class="node">
<title>Node4</title>
<g id="a_Node000004"><a xlink:title=" ">
<polygon fill="#e0e0e0" stroke="#999999" points="714.5,-184 665.5,-184 665.5,-165 714.5,-165 714.5,-184"/>
<text text-anchor="middle" x="690" y="-172" font-family="Helvetica,sans-Serif" font-size="10.00">cstdlib</text>
</a>
</g>
</g>
<!-- Node1&#45;&gt;Node4 -->
<g id="edge3_Node000001_Node000004" class="edge">
<title>Node1&#45;&gt;Node4</title>
<g id="a_edge3_Node000001_Node000004"><a xlink:title=" ">
<path fill="none" stroke="#63b8ff" d="M491.52,-219.94C531.07,-211.7 592.52,-198.65 655.09,-184.15"/>
<polygon fill="#63b8ff" stroke="#63b8ff" points="656.19,-187.49 665.14,-181.81 654.61,-180.67 656.19,-187.49"/>
</a>
</g>
</g>
<!-- Node5 -->
<g id="Node000005" class="node">
<title>Node5</title>
<g id="a_Node000005"><a xlink:title=" ">
<polygon fill="#e0e0e0" stroke="#999999" points="825.5,-184 732.5,-184 732.5,-165 825.5,-165 825.5,-184"/>
<text text-anchor="middle" x="779" y="-172" font-family="Helvetica,sans-Serif" font-size="10.00">unordered_map</text>
</a>
</g>
</g>
<!-- Node1&#45;&gt;Node5 -->
<g id="edge4_Node000001_Node000005" class="edge">
<title>Node1&#45;&gt;Node5</title>
<g id="a_edge4_Node000001_Node000005"><a xlink:title=" ">
<path fill="none" stroke="#63b8ff" d="M502.86,-219.98C563,-210.3 660.82,-194.54 722.45,-184.61"/>
<polygon fill="#63b8ff" stroke="#63b8ff" points="723.08,-188.05 732.39,-183.01 721.96,-181.14 723.08,-188.05"/>
</a>
</g>
</g>
<!-- Node6 -->
<g id="Node000006" class="node">
<title>Node6</title>
<g id="a_Node000006"><a xlink:href="ac__fft_8h.html" target="_top" xlink:title=" ">
<polygon fill="white" stroke="#666666" points="413.5,-184 360.5,-184 360.5,-165 413.5,-165 413.5,-184"/>
<text text-anchor="middle" x="387" y="-172" font-family="Helvetica,sans-Serif" font-size="10.00">ac_fft.h</text>
</a>
</g>
</g>
<!-- Node1&#45;&gt;Node6 -->
<g id="edge5_Node000001_Node000006" class="edge">
<title>Node1&#45;&gt;Node6</title>
<g id="a_edge5_Node000001_Node000006"><a xlink:title=" ">
<path fill="none" stroke="#63b8ff" d="M439.88,-219.98C430.56,-212.15 416.53,-200.34 405.26,-190.86"/>
<polygon fill="#63b8ff" stroke="#63b8ff" points="407.21,-187.93 397.31,-184.17 402.71,-193.29 407.21,-187.93"/>
</a>
</g>
</g>
<!-- Node10 -->
<g id="Node000010" class="node">
<title>Node10</title>
<g id="a_Node000010"><a xlink:href="host__datatypes_8h.html" target="_top" xlink:title=" ">
<polygon fill="white" stroke="#666666" points="282.5,-129 181.5,-129 181.5,-110 282.5,-110 282.5,-129"/>
<text text-anchor="middle" x="232" y="-117" font-family="Helvetica,sans-Serif" font-size="10.00">host_datatypes.h</text>
</a>
</g>
</g>
<!-- Node1&#45;&gt;Node10 -->
<g id="edge38_Node000001_Node000010" class="edge">
<title>Node1&#45;&gt;Node10</title>
<g id="a_edge38_Node000001_Node000010"><a xlink:title=" ">
<path fill="none" stroke="#63b8ff" d="M429.72,-219.86C409.57,-211.17 377.9,-197.2 351,-184 317.74,-167.68 280.14,-147.28 256.27,-134.07"/>
<polygon fill="#63b8ff" stroke="#63b8ff" points="257.67,-130.85 247.23,-129.06 254.28,-136.97 257.67,-130.85"/>
</a>
</g>
</g>
<!-- Node16 -->
<g id="Node000016" class="node">
<title>Node16</title>
<g id="a_Node000016"><a xlink:href="ac__helpers_8h.html" target="_top" xlink:title=" ">
<polygon fill="white" stroke="#666666" points="304,-184 226,-184 226,-165 304,-165 304,-184"/>
<text text-anchor="middle" x="265" y="-172" font-family="Helvetica,sans-Serif" font-size="10.00">ac_helpers.h</text>
</a>
</g>
</g>
<!-- Node1&#45;&gt;Node16 -->
<g id="edge16_Node000001_Node000016" class="edge">
<title>Node1&#45;&gt;Node16</title>
<g id="a_edge16_Node000001_Node000016"><a xlink:title=" ">
<path fill="none" stroke="#63b8ff" d="M420.28,-219.98C388.95,-211.01 339.43,-196.82 304.76,-186.89"/>
<polygon fill="#63b8ff" stroke="#63b8ff" points="305.53,-183.47 294.96,-184.08 303.61,-190.2 305.53,-183.47"/>
</a>
</g>
</g>
<!-- Node17 -->
<g id="Node000017" class="node">
<title>Node17</title>
<g id="a_Node000017"><a xlink:href="ac__mpi_8h.html" target="_top" xlink:title=" ">
<polygon fill="white" stroke="#666666" points="944.5,-184 883.5,-184 883.5,-165 944.5,-165 944.5,-184"/>
<text text-anchor="middle" x="914" y="-172" font-family="Helvetica,sans-Serif" font-size="10.00">ac_mpi.h</text>
</a>
</g>
</g>
<!-- Node1&#45;&gt;Node17 -->
<g id="edge20_Node000001_Node000017" class="edge">
<title>Node1&#45;&gt;Node17</title>
<g id="a_edge20_Node000001_Node000017"><a xlink:title=" ">
<path fill="none" stroke="#63b8ff" d="M517.97,-220.74C615.77,-209.56 793.21,-189.3 873.09,-180.17"/>
<polygon fill="#63b8ff" stroke="#63b8ff" points="873.71,-183.63 883.25,-179.01 872.91,-176.67 873.71,-183.63"/>
</a>
</g>
</g>
<!-- Node19 -->
<g id="Node000019" class="node">
<title>Node19</title>
<g id="a_Node000019"><a xlink:href="astaroth__cuda__wrappers_8h.html" target="_top" xlink:title=" ">
<polygon fill="white" stroke="#666666" points="522.5,-129 377.5,-129 377.5,-110 522.5,-110 522.5,-129"/>
<text text-anchor="middle" x="450" y="-117" font-family="Helvetica,sans-Serif" font-size="10.00">astaroth_cuda_wrappers.h</text>
</a>
</g>
</g>
<!-- Node1&#45;&gt;Node19 -->
<g id="edge22_Node000001_Node000019" class="edge">
<title>Node1&#45;&gt;Node19</title>
<g id="a_edge22_Node000001_Node000019"><a xlink:title=" ">
<path fill="none" stroke="#63b8ff" d="M450,-219.66C450,-202.17 450,-162.8 450,-139.27"/>
<polygon fill="#63b8ff" stroke="#63b8ff" points="453.5,-139.16 450,-129.16 446.5,-139.16 453.5,-139.16"/>
</a>
</g>
</g>
<!-- Node20 -->
<g id="Node000020" class="node">
<title>Node20</title>
<g id="a_Node000020"><a xlink:href="common__kernels_8h.html" target="_top" xlink:title=" ">
<polygon fill="white" stroke="#666666" points="207.5,-184 98.5,-184 98.5,-165 207.5,-165 207.5,-184"/>
<text text-anchor="middle" x="153" y="-172" font-family="Helvetica,sans-Serif" font-size="10.00">common_kernels.h</text>
</a>
</g>
</g>
<!-- Node1&#45;&gt;Node20 -->
<g id="edge24_Node000001_Node000020" class="edge">
<title>Node1&#45;&gt;Node20</title>
<g id="a_edge24_Node000001_Node000020"><a xlink:title=" ">
<path fill="none" stroke="#63b8ff" d="M402.28,-219.98C350.26,-210.7 267,-195.84 211.18,-185.88"/>
<polygon fill="#63b8ff" stroke="#63b8ff" points="211.55,-182.39 201.09,-184.08 210.32,-189.28 211.55,-182.39"/>
</a>
</g>
</g>
<!-- Node21 -->
<g id="Node000021" class="node">
<title>Node21</title>
<g id="a_Node000021"><a xlink:href="errchk_8h.html" target="_top" xlink:title="Brief info.">
<polygon fill="white" stroke="#666666" points="647,-184 591,-184 591,-165 647,-165 647,-184"/>
<text text-anchor="middle" x="619" y="-172" font-family="Helvetica,sans-Serif" font-size="10.00">errchk.h</text>
</a>
</g>
</g>
<!-- Node1&#45;&gt;Node21 -->
<g id="edge29_Node000001_Node000021" class="edge">
<title>Node1&#45;&gt;Node21</title>
<g id="a_edge29_Node000001_Node000021"><a xlink:title=" ">
<path fill="none" stroke="#63b8ff" d="M477.15,-219.98C505.53,-211.09 550.23,-197.07 581.86,-187.15"/>
<polygon fill="#63b8ff" stroke="#63b8ff" points="583.14,-190.41 591.63,-184.08 581.05,-183.73 583.14,-190.41"/>
</a>
</g>
</g>
<!-- Node7 -->
<g id="Node000007" class="node">
<title>Node7</title>
<g id="a_Node000007"><a xlink:href="device__headers_8h.html" target="_top" xlink:title=" ">
<polygon fill="white" stroke="#666666" points="478,-74 376,-74 376,-55 478,-55 478,-74"/>
<text text-anchor="middle" x="427" y="-62" font-family="Helvetica,sans-Serif" font-size="10.00">device_headers.h</text>
</a>
</g>
</g>
<!-- Node6&#45;&gt;Node7 -->
<g id="edge6_Node000006_Node000007" class="edge">
<title>Node6&#45;&gt;Node7</title>
<g id="a_edge6_Node000006_Node000007"><a xlink:title=" ">
<path fill="none" stroke="#63b8ff" d="M380.53,-164.94C371.91,-152.4 358.76,-128.54 368,-110 374.57,-96.82 387.1,-86.52 398.93,-79.16"/>
<polygon fill="#63b8ff" stroke="#63b8ff" points="400.8,-82.12 407.73,-74.1 397.32,-76.05 400.8,-82.12"/>
</a>
</g>
</g>
<!-- Node6&#45;&gt;Node10 -->
<g id="edge9_Node000006_Node000010" class="edge">
<title>Node6&#45;&gt;Node10</title>
<g id="a_edge9_Node000006_Node000010"><a xlink:title=" ">
<path fill="none" stroke="#63b8ff" d="M362.1,-164.98C336.3,-156.16 295.78,-142.31 266.82,-132.41"/>
<polygon fill="#63b8ff" stroke="#63b8ff" points="267.69,-129.01 257.1,-129.08 265.43,-135.63 267.69,-129.01"/>
</a>
</g>
</g>
<!-- Node8 -->
<g id="Node000008" class="node">
<title>Node8</title>
<g id="a_Node000008"><a xlink:title=" ">
<polygon fill="#e0e0e0" stroke="#999999" points="426.5,-19 313.5,-19 313.5,0 426.5,0 426.5,-19"/>
<text text-anchor="middle" x="370" y="-7" font-family="Helvetica,sans-Serif" font-size="10.00">cuda_runtime_api.h</text>
</a>
</g>
</g>
<!-- Node7&#45;&gt;Node8 -->
<g id="edge7_Node000007_Node000008" class="edge">
<title>Node7&#45;&gt;Node8</title>
<g id="a_edge7_Node000007_Node000008"><a xlink:title=" ">
<path fill="none" stroke="#63b8ff" d="M417.84,-54.98C409.5,-47.23 396.97,-35.58 386.82,-26.14"/>
<polygon fill="#63b8ff" stroke="#63b8ff" points="389.03,-23.42 379.32,-19.17 384.26,-28.54 389.03,-23.42"/>
</a>
</g>
</g>
<!-- Node9 -->
<g id="Node000009" class="node">
<title>Node9</title>
<g id="a_Node000009"><a xlink:title=" ">
<polygon fill="#e0e0e0" stroke="#999999" points="521,-19 445,-19 445,0 521,0 521,-19"/>
<text text-anchor="middle" x="483" y="-7" font-family="Helvetica,sans-Serif" font-size="10.00">cuda_fp16.h</text>
</a>
</g>
</g>
<!-- Node7&#45;&gt;Node9 -->
<g id="edge8_Node000007_Node000009" class="edge">
<title>Node7&#45;&gt;Node9</title>
<g id="a_edge8_Node000007_Node000009"><a xlink:title=" ">
<path fill="none" stroke="#63b8ff" d="M436,-54.98C444.19,-47.23 456.51,-35.58 466.47,-26.14"/>
<polygon fill="#63b8ff" stroke="#63b8ff" points="468.98,-28.59 473.84,-19.17 464.17,-23.5 468.98,-28.59"/>
</a>
</g>
</g>
<!-- Node10&#45;&gt;Node7 -->
<g id="edge14_Node000010_Node000007" class="edge">
<title>Node10&#45;&gt;Node7</title>
<g id="a_edge14_Node000010_Node000007"><a xlink:title=" ">
<path fill="none" stroke="#63b8ff" d="M263.33,-109.98C296.49,-100.97 349,-86.7 385.56,-76.76"/>
<polygon fill="#63b8ff" stroke="#63b8ff" points="386.69,-80.08 395.42,-74.08 384.86,-73.33 386.69,-80.08"/>
</a>
</g>
</g>
<!-- Node11 -->
<g id="Node000011" class="node">
<title>Node11</title>
<g id="a_Node000011"><a xlink:title=" ">
<polygon fill="#e0e0e0" stroke="#999999" points="747,-74 685,-74 685,-55 747,-55 747,-74"/>
<text text-anchor="middle" x="716" y="-62" font-family="Helvetica,sans-Serif" font-size="10.00">stdbool.h</text>
</a>
</g>
</g>
<!-- Node10&#45;&gt;Node11 -->
<g id="edge10_Node000010_Node000011" class="edge">
<title>Node10&#45;&gt;Node11</title>
<g id="a_edge10_Node000010_Node000011"><a xlink:title=" ">
<path fill="none" stroke="#63b8ff" d="M282.88,-112.93C379.2,-102.38 586.43,-79.69 674.76,-70.02"/>
<polygon fill="#63b8ff" stroke="#63b8ff" points="675.37,-73.47 684.93,-68.9 674.6,-66.51 675.37,-73.47"/>
</a>
</g>
</g>
<!-- Node12 -->
<g id="Node000012" class="node">
<title>Node12</title>
<g id="a_Node000012"><a xlink:title=" ">
<polygon fill="#e0e0e0" stroke="#999999" points="358,-74 302,-74 302,-55 358,-55 358,-74"/>
<text text-anchor="middle" x="330" y="-62" font-family="Helvetica,sans-Serif" font-size="10.00">stddef.h</text>
</a>
</g>
</g>
<!-- Node10&#45;&gt;Node12 -->
<g id="edge11_Node000010_Node000012" class="edge">
<title>Node10&#45;&gt;Node12</title>
<g id="a_edge11_Node000010_Node000012"><a xlink:title=" ">
<path fill="none" stroke="#63b8ff" d="M247.75,-109.98C263.23,-101.61 287.09,-88.7 305.14,-78.95"/>
<polygon fill="#63b8ff" stroke="#63b8ff" points="306.84,-82.01 313.97,-74.17 303.51,-75.85 306.84,-82.01"/>
</a>
</g>
</g>
<!-- Node13 -->
<g id="Node000013" class="node">
<title>Node13</title>
<g id="a_Node000013"><a xlink:href="acreal_8h.html" target="_top" xlink:title=" ">
<polygon fill="white" stroke="#666666" points="57,-74 1,-74 1,-55 57,-55 57,-74"/>
<text text-anchor="middle" x="29" y="-62" font-family="Helvetica,sans-Serif" font-size="10.00">acreal.h</text>
</a>
</g>
</g>
<!-- Node10&#45;&gt;Node13 -->
<g id="edge12_Node000010_Node000013" class="edge">
<title>Node10&#45;&gt;Node13</title>
<g id="a_edge12_Node000010_Node000013"><a xlink:title=" ">
<path fill="none" stroke="#63b8ff" d="M199.38,-109.98C163.27,-100.56 105.13,-85.38 66.99,-75.42"/>
<polygon fill="#63b8ff" stroke="#63b8ff" points="67.84,-72.02 57.28,-72.88 66.07,-78.8 67.84,-72.02"/>
</a>
</g>
</g>
<!-- Node14 -->
<g id="Node000014" class="node">
<title>Node14</title>
<g id="a_Node000014"><a xlink:title=" ">
<polygon fill="#e0e0e0" stroke="#999999" points="283.5,-74 188.5,-74 188.5,-55 283.5,-55 283.5,-74"/>
<text text-anchor="middle" x="236" y="-62" font-family="Helvetica,sans-Serif" font-size="10.00">builtin_enums.h</text>
</a>
</g>
</g>
<!-- Node10&#45;&gt;Node14 -->
<g id="edge13_Node000010_Node000014" class="edge">
<title>Node10&#45;&gt;Node14</title>
<g id="a_edge13_Node000010_Node000014"><a xlink:title=" ">
<path fill="none" stroke="#63b8ff" d="M232.66,-109.75C233.18,-102.8 233.94,-92.85 234.59,-84.13"/>
<polygon fill="#63b8ff" stroke="#63b8ff" points="238.09,-84.32 235.35,-74.09 231.11,-83.8 238.09,-84.32"/>
</a>
</g>
</g>
<!-- Node15 -->
<g id="Node000015" class="node">
<title>Node15</title>
<g id="a_Node000015"><a xlink:title=" ">
<polygon fill="#e0e0e0" stroke="#999999" points="170.5,-74 75.5,-74 75.5,-55 170.5,-55 170.5,-74"/>
<text text-anchor="middle" x="123" y="-62" font-family="Helvetica,sans-Serif" font-size="10.00">user_typedefs.h</text>
</a>
</g>
</g>
<!-- Node10&#45;&gt;Node15 -->
<g id="edge15_Node000010_Node000015" class="edge">
<title>Node10&#45;&gt;Node15</title>
<g id="a_edge15_Node000010_Node000015"><a xlink:title=" ">
<path fill="none" stroke="#63b8ff" d="M214.49,-109.98C197.03,-101.5 169.99,-88.35 149.83,-78.54"/>
<polygon fill="#63b8ff" stroke="#63b8ff" points="151.36,-75.4 140.83,-74.17 148.29,-81.69 151.36,-75.4"/>
</a>
</g>
</g>
<!-- Node16&#45;&gt;Node7 -->
<g id="edge18_Node000016_Node000007" class="edge">
<title>Node16&#45;&gt;Node7</title>
<g id="a_edge18_Node000016_Node000007"><a xlink:title=" ">
<path fill="none" stroke="#63b8ff" d="M277.98,-164.84C305.83,-146.28 371.52,-102.49 405.62,-79.75"/>
<polygon fill="#63b8ff" stroke="#63b8ff" points="407.58,-82.66 413.95,-74.2 403.69,-76.83 407.58,-82.66"/>
</a>
</g>
</g>
<!-- Node16&#45;&gt;Node10 -->
<g id="edge19_Node000016_Node000010" class="edge">
<title>Node16&#45;&gt;Node10</title>
<g id="a_edge19_Node000016_Node000010"><a xlink:title=" ">
<path fill="none" stroke="#63b8ff" d="M259.55,-164.75C254.99,-157.42 248.33,-146.73 242.71,-137.7"/>
<polygon fill="#63b8ff" stroke="#63b8ff" points="245.6,-135.73 237.35,-129.09 239.66,-139.43 245.6,-135.73"/>
</a>
</g>
</g>
<!-- Node16&#45;&gt;Node13 -->
<g id="edge17_Node000016_Node000013" class="edge">
<title>Node16&#45;&gt;Node13</title>
<g id="a_edge17_Node000016_Node000013"><a xlink:title=" ">
<path fill="none" stroke="#63b8ff" d="M246.09,-164.84C204.64,-145.88 105.65,-100.58 56.98,-78.31"/>
<polygon fill="#63b8ff" stroke="#63b8ff" points="58.23,-75.03 47.68,-74.05 55.31,-81.39 58.23,-75.03"/>
</a>
</g>
</g>
<!-- Node18 -->
<g id="Node000018" class="node">
<title>Node18</title>
<g id="a_Node000018"><a xlink:title=" ">
<polygon fill="#e0e0e0" stroke="#999999" points="977,-129 933,-129 933,-110 977,-110 977,-129"/>
<text text-anchor="middle" x="955" y="-117" font-family="Helvetica,sans-Serif" font-size="10.00">mpi.h</text>
</a>
</g>
</g>
<!-- Node17&#45;&gt;Node18 -->
<g id="edge21_Node000017_Node000018" class="edge">
<title>Node17&#45;&gt;Node18</title>
<g id="a_edge21_Node000017_Node000018"><a xlink:title=" ">
<path fill="none" stroke="#63b8ff" d="M920.77,-164.75C926.56,-157.26 935.06,-146.28 942.14,-137.13"/>
<polygon fill="#63b8ff" stroke="#63b8ff" points="945.01,-139.14 948.36,-129.09 939.47,-134.86 945.01,-139.14"/>
</a>
</g>
</g>
<!-- Node19&#45;&gt;Node7 -->
<g id="edge23_Node000019_Node000007" class="edge">
<title>Node19&#45;&gt;Node7</title>
<g id="a_edge23_Node000019_Node000007"><a xlink:title=" ">
<path fill="none" stroke="#63b8ff" d="M446.2,-109.75C443.09,-102.57 438.58,-92.18 434.71,-83.27"/>
<polygon fill="#63b8ff" stroke="#63b8ff" points="437.92,-81.87 430.73,-74.09 431.5,-84.66 437.92,-81.87"/>
</a>
</g>
</g>
<!-- Node20&#45;&gt;Node7 -->
<g id="edge27_Node000020_Node000007" class="edge">
<title>Node20&#45;&gt;Node7</title>
<g id="a_edge27_Node000020_Node000007"><a xlink:title=" ">
<path fill="none" stroke="#63b8ff" d="M152.91,-164.59C153.28,-150.71 156.17,-124.06 172,-110 179.25,-103.56 292.68,-85.57 365.79,-74.54"/>
<polygon fill="#63b8ff" stroke="#63b8ff" points="366.45,-77.97 375.82,-73.03 365.41,-71.05 366.45,-77.97"/>
</a>
</g>
</g>
<!-- Node20&#45;&gt;Node10 -->
<g id="edge28_Node000020_Node000010" class="edge">
<title>Node20&#45;&gt;Node10</title>
<g id="a_edge28_Node000020_Node000010"><a xlink:title=" ">
<path fill="none" stroke="#63b8ff" d="M165.69,-164.98C177.83,-156.84 196.36,-144.41 210.75,-134.76"/>
<polygon fill="#63b8ff" stroke="#63b8ff" points="212.72,-137.65 219.08,-129.17 208.82,-131.84 212.72,-137.65"/>
</a>
</g>
</g>
<!-- Node20&#45;&gt;Node12 -->
<g id="edge25_Node000020_Node000012" class="edge">
<title>Node20&#45;&gt;Node12</title>
<g id="a_edge25_Node000020_Node000012"><a xlink:title=" ">
<path fill="none" stroke="#63b8ff" d="M146.96,-164.68C138.69,-151.4 126.23,-126.09 139,-110 140.21,-108.48 236.4,-86.59 291.8,-74.09"/>
<polygon fill="#63b8ff" stroke="#63b8ff" points="292.65,-77.49 301.63,-71.87 291.11,-70.66 292.65,-77.49"/>
</a>
</g>
</g>
<!-- Node20&#45;&gt;Node13 -->
<g id="edge26_Node000020_Node000013" class="edge">
<title>Node20&#45;&gt;Node13</title>
<g id="a_edge26_Node000020_Node000013"><a xlink:title=" ">
<path fill="none" stroke="#63b8ff" d="M125.52,-164.98C106.17,-157.86 80.66,-146.09 63,-129 49.97,-116.39 40.79,-97.68 35.28,-83.84"/>
<polygon fill="#63b8ff" stroke="#63b8ff" points="38.53,-82.55 31.78,-74.38 31.97,-84.98 38.53,-82.55"/>
</a>
</g>
</g>
<!-- Node21&#45;&gt;Node3 -->
<g id="edge33_Node000021_Node000003" class="edge">
<title>Node21&#45;&gt;Node3</title>
<g id="a_edge33_Node000021_Node000003"><a xlink:title=" ">
<path fill="none" stroke="#63b8ff" d="M610.25,-164.75C602.53,-157.03 591.1,-145.6 581.78,-136.28"/>
<polygon fill="#63b8ff" stroke="#63b8ff" points="584.14,-133.69 574.59,-129.09 579.19,-138.64 584.14,-133.69"/>
</a>
</g>
</g>
<!-- Node21&#45;&gt;Node7 -->
<g id="edge36_Node000021_Node000007" class="edge">
<title>Node21&#45;&gt;Node7</title>
<g id="a_edge36_Node000021_Node000007"><a xlink:title=" ">
<path fill="none" stroke="#63b8ff" d="M647.15,-166.15C681.34,-155.89 731.91,-135.62 710,-110 682.06,-77.33 562.81,-68.49 488.31,-66.19"/>
<polygon fill="#63b8ff" stroke="#63b8ff" points="488.2,-62.69 478.11,-65.91 488.01,-69.69 488.2,-62.69"/>
</a>
</g>
</g>
<!-- Node21&#45;&gt;Node10 -->
<g id="edge37_Node000021_Node000010" class="edge">
<title>Node21&#45;&gt;Node10</title>
<g id="a_edge37_Node000021_Node000010"><a xlink:title=" ">
<path fill="none" stroke="#63b8ff" d="M590.86,-169.65C528.51,-161.11 377.59,-140.44 292.66,-128.81"/>
<polygon fill="#63b8ff" stroke="#63b8ff" points="293.02,-125.32 282.64,-127.44 292.07,-132.26 293.02,-125.32"/>
</a>
</g>
</g>
<!-- Node21&#45;&gt;Node11 -->
<g id="edge30_Node000021_Node000011" class="edge">
<title>Node21&#45;&gt;Node11</title>
<g id="a_edge30_Node000021_Node000011"><a xlink:title=" ">
<path fill="none" stroke="#63b8ff" d="M647.18,-166.99C650.48,-166.28 653.81,-165.61 657,-165 707.61,-155.37 852.52,-168.15 886,-129 923.74,-84.86 818.99,-71.36 757.38,-67.27"/>
<polygon fill="#63b8ff" stroke="#63b8ff" points="757.35,-63.76 747.16,-66.64 756.93,-70.74 757.35,-63.76"/>
</a>
</g>
</g>
<!-- Node21&#45;&gt;Node12 -->
<g id="edge31_Node000021_Node000012" class="edge">
<title>Node21&#45;&gt;Node12</title>
<g id="a_edge31_Node000021_Node000012"><a xlink:title=" ">
<path fill="none" stroke="#63b8ff" d="M619.13,-164.56C618.8,-150.63 615.96,-123.91 600,-110 562.58,-77.4 433.15,-83.12 368.42,-73.9"/>
<polygon fill="#63b8ff" stroke="#63b8ff" points="368.67,-70.39 358.24,-72.21 367.53,-77.3 368.67,-70.39"/>
</a>
</g>
</g>
<!-- Node22 -->
<g id="Node000022" class="node">
<title>Node22</title>
<g id="a_Node000022"><a xlink:title=" ">
<polygon fill="#e0e0e0" stroke="#999999" points="700.5,-129 647.5,-129 647.5,-110 700.5,-110 700.5,-129"/>
<text text-anchor="middle" x="674" y="-117" font-family="Helvetica,sans-Serif" font-size="10.00">stdint.h</text>
</a>
</g>
</g>
<!-- Node21&#45;&gt;Node22 -->
<g id="edge32_Node000021_Node000022" class="edge">
<title>Node21&#45;&gt;Node22</title>
<g id="a_edge32_Node000021_Node000022"><a xlink:title=" ">
<path fill="none" stroke="#63b8ff" d="M628.08,-164.75C636.09,-157.03 647.96,-145.6 657.62,-136.28"/>
<polygon fill="#63b8ff" stroke="#63b8ff" points="660.31,-138.55 665.09,-129.09 655.46,-133.51 660.31,-138.55"/>
</a>
</g>
</g>
<!-- Node23 -->
<g id="Node000023" class="node">
<title>Node23</title>
<g id="a_Node000023"><a xlink:title=" ">
<polygon fill="#e0e0e0" stroke="#999999" points="810.5,-129 757.5,-129 757.5,-110 810.5,-110 810.5,-129"/>
<text text-anchor="middle" x="784" y="-117" font-family="Helvetica,sans-Serif" font-size="10.00">stdlib.h</text>
</a>
</g>
</g>
<!-- Node21&#45;&gt;Node23 -->
<g id="edge34_Node000021_Node000023" class="edge">
<title>Node21&#45;&gt;Node23</title>
<g id="a_edge34_Node000021_Node000023"><a xlink:title=" ">
<path fill="none" stroke="#63b8ff" d="M645.51,-164.98C673.21,-156.09 716.86,-142.07 747.74,-132.15"/>
<polygon fill="#63b8ff" stroke="#63b8ff" points="748.83,-135.47 757.28,-129.08 746.69,-128.81 748.83,-135.47"/>
</a>
</g>
</g>
<!-- Node24 -->
<g id="Node000024" class="node">
<title>Node24</title>
<g id="a_Node000024"><a xlink:title=" ">
<polygon fill="#e0e0e0" stroke="#999999" points="877,-129 829,-129 829,-110 877,-110 877,-129"/>
<text text-anchor="middle" x="853" y="-117" font-family="Helvetica,sans-Serif" font-size="10.00">time.h</text>
</a>
</g>
</g>
<!-- Node21&#45;&gt;Node24 -->
<g id="edge35_Node000021_Node000024" class="edge">
<title>Node21&#45;&gt;Node24</title>
<g id="a_edge35_Node000021_Node000024"><a xlink:title=" ">
<path fill="none" stroke="#63b8ff" d="M647.22,-167.18C650.52,-166.44 653.83,-165.7 657,-165 726.31,-149.59 746.16,-146.51 818.77,-129.23"/>
<polygon fill="#63b8ff" stroke="#63b8ff" points="819.96,-132.55 828.87,-126.82 818.33,-125.74 819.96,-132.55"/>
</a>
</g>
</g>
</g>
</svg>

<g id="navigator" transform="translate(0 0)" fill="#404254">
  <rect fill="#f2f5e9" fill-opacity="0.5" stroke="#606060" stroke-width=".5" x="0" y="0" width="60" height="60"/>
  <use id="zoomplus" xlink:href="#zoomPlus" x="17" y="9" onmousedown="handleZoom(evt,'in')"/>
  <use id="zoomminus" xlink:href="#zoomMin" x="42" y="9" onmousedown="handleZoom(evt,'out')"/>
  <use id="reset" xlink:href="#resetDef" x="30" y="36" onmousedown="handleReset()"/>
   <use id="arrowup" xlink:href="#arrowUp" x="0" y="0" onmousedown="handlePan(0,-1)"/>
  <use id="arrowright" xlink:href="#arrowRight" x="0" y="0" onmousedown="handlePan(1,0)"/>
  <use id="arrowdown" xlink:href="#arrowDown" x="0" y="0" onmousedown="handlePan(0,1)"/>
  <use id="arrowleft" xlink:href="#arrowLeft" x="0" y="0" onmousedown="handlePan(-1,0)"/>
</g>
<svg viewBox="0 0 15 15" width="100%" height="30px" preserveAspectRatio="xMaxYMin meet">
 <g id="arrow_out" transform="scale(0.3 0.3)">
  <a xlink:href="rocfft_8cc__incl_org.svg" target="_base">
   <rect id="button" ry="5" rx="5" y="6" x="6" height="38" width="38"
        fill="#f2f5e9" fill-opacity="0.5" stroke="#606060" stroke-width="1.0"/>
   <path id="arrow"
     d="M 11.500037,31.436501 C 11.940474,20.09759 22.043105,11.32322 32.158766,21.979434 L 37.068811,17.246167 C 37.068811,17.246167 37.088388,32 37.088388,32 L 22.160133,31.978069 C 22.160133,31.978069 26.997745,27.140456 26.997745,27.140456 C 18.528582,18.264221 13.291696,25.230495 11.500037,31.436501 z"
     style="fill:#404040;"/>
  </a>
 </g>
</svg>

<style type='text/css'>
<![CDATA[
[data-mouse-over-selected='false'] { opacity: 0.7; }
[data-mouse-over-selected='true']  { opacity: 1.0; }
]]>
</style>
<script type="application/ecmascript"><![CDATA[
document.addEventListener('DOMContentLoaded', (event) => {
  highlightEdges();
  highlightAdjacentNodes();
});
]]></script>
</svg>
