<?xml version="1.0" encoding="UTF-8" standalone="no"?>
<!DOCTYPE svg PUBLIC "-//W3C//DTD SVG 1.1//EN"
 "http://www.w3.org/Graphics/SVG/1.1/DTD/svg11.dtd">
<!-- Generated by graphviz version 2.43.0 (0)
 -->
<!-- Title: src/core/kernels/kernels.h Pages: 1 -->
<!--zoomable 258 -->

<svg id="main" version="1.1" xmlns="http://www.w3.org/2000/svg" xmlns:xlink="http://www.w3.org/1999/xlink" xml:space="preserve" onload="init(evt)">
<style type="text/css"><![CDATA[
.node, .edge {opacity: 0.7;}
.node.selected, .edge.selected {opacity: 1;}
.edge:hover path { stroke: red; }
.edge:hover polygon { stroke: red; fill: red; }
]]></style>

<defs>
  <circle id="rim" cx="0" cy="0" r="7"/>
  <circle id="rim2" cx="0" cy="0" r="3.5"/>
  <g id="zoomPlus">
    <use xlink:href="#rim" fill="#404040"><set attributeName="fill" to="#808080" begin="zoomplus.mouseover" end="zoomplus.mouseout"/></use>
    <path d="M-4,0h8M0,-4v8" fill="none" stroke="white" stroke-width="1.5" pointer-events="none"/>
  </g>
  <g id="zoomMin">
    <use xlink:href="#rim" fill="#404040"><set attributeName="fill" to="#808080" begin="zoomminus.mouseover" end="zoomminus.mouseout"/></use>
    <path d="M-4,0h8" fill="none" stroke="white" stroke-width="1.5" pointer-events="none"/>
  </g>
  <g id="arrowUp" transform="translate(30 24)">
    <use xlink:href="#rim"/>
    <path pointer-events="none" fill="none" stroke="white" stroke-width="1.5" d="M0,-3.0v7 M-2.5,-0.5L0,-3.0L2.5,-0.5"/>
  </g>
  <g id="arrowRight" transform="rotate(90) translate(36 -43)">
    <use xlink:href="#rim"/>
    <path pointer-events="none" fill="none" stroke="white" stroke-width="1.5" d="M0,-3.0v7 M-2.5,-0.5L0,-3.0L2.5,-0.5"/>
  </g>
  <g id="arrowDown" transform="rotate(180) translate(-30 -48)">
    <use xlink:href="#rim"/>
    <path pointer-events="none" fill="none" stroke="white" stroke-width="1.5" d="M0,-3.0v7 M-2.5,-0.5L0,-3.0L2.5,-0.5"/>
  </g>
  <g id="arrowLeft" transform="rotate(270) translate(-36 17)">
    <use xlink:href="#rim"/>
    <path pointer-events="none" fill="none" stroke="white" stroke-width="1.5" d="M0,-3.0v7 M-2.5,-0.5L0,-3.0L2.5,-0.5"/>
  </g>
  <g id="resetDef">
    <use xlink:href="#rim2" fill="#404040"><set attributeName="fill" to="#808080" begin="reset.mouseover" end="reset.mouseout"/></use>
  </g>
</defs>
<script type="application/ecmascript">
var viewWidth = 2880;
var viewHeight = 258;
var sectionId = 'dynsection-0';
</script>
<script type="application/ecmascript" xlink:href="svg.min.js"/>
<svg id="graph" class="graph">
<g id="viewport">
<title>src/core/kernels/kernels.h</title>
<!-- Node1 -->
<g id="Node000001" class="node">
<title>Node1</title>
<g id="a_Node000001"><a xlink:title=" ">
<polygon fill="#999999" stroke="#666666" points="2729,-250 2589,-250 2589,-231 2729,-231 2729,-250"/>
<text text-anchor="middle" x="2659" y="-238" font-family="Helvetica,sans-Serif" font-size="10.00">src/core/kernels/kernels.h</text>
</a>
</g>
</g>
<!-- Node2 -->
<g id="Node000002" class="node">
<title>Node2</title>
<g id="a_Node000002"><a xlink:href="acc__runtime_8h.html" target="_top" xlink:title=" ">
<polygon fill="white" stroke="#666666" points="1595,-195 1509,-195 1509,-176 1595,-176 1595,-195"/>
<text text-anchor="middle" x="1552" y="-183" font-family="Helvetica,sans-Serif" font-size="10.00">acc_runtime.h</text>
</a>
</g>
</g>
<!-- Node1&#45;&gt;Node2 -->
<g id="edge1_Node000001_Node000002" class="edge">
<title>Node1&#45;&gt;Node2</title>
<g id="a_edge1_Node000001_Node000002"><a xlink:title=" ">
<path fill="none" stroke="#63b8ff" d="M2588.91,-236.14C2383.66,-226.32 1786.93,-197.75 1605.17,-189.05"/>
<polygon fill="#63b8ff" stroke="#63b8ff" points="1605.21,-185.54 1595.05,-188.56 1604.88,-192.54 1605.21,-185.54"/>
</a>
</g>
</g>
<!-- Node4 -->
<g id="Node000004" class="node">
<title>Node4</title>
<g id="a_Node000004"><a xlink:title=" ">
<polygon fill="#e0e0e0" stroke="#999999" points="2872,-74 2810,-74 2810,-55 2872,-55 2872,-74"/>
<text text-anchor="middle" x="2841" y="-62" font-family="Helvetica,sans-Serif" font-size="10.00">stdbool.h</text>
</a>
</g>
</g>
<!-- Node1&#45;&gt;Node4 -->
<g id="edge48_Node000001_Node000004" class="edge">
<title>Node1&#45;&gt;Node4</title>
<g id="a_edge48_Node000001_Node000004"><a xlink:title=" ">
<path fill="none" stroke="#63b8ff" d="M2668.28,-230.63C2697.37,-202.82 2787.1,-117.03 2824.44,-81.34"/>
<polygon fill="#63b8ff" stroke="#63b8ff" points="2827.15,-83.58 2831.96,-74.14 2822.31,-78.52 2827.15,-83.58"/>
</a>
</g>
</g>
<!-- Node38 -->
<g id="Node000038" class="node">
<title>Node38</title>
<g id="a_Node000038"><a xlink:href="common__kernels_8h.html" target="_top" xlink:title=" ">
<polygon fill="white" stroke="#666666" points="2713.5,-134.5 2604.5,-134.5 2604.5,-115.5 2713.5,-115.5 2713.5,-134.5"/>
<text text-anchor="middle" x="2659" y="-122.5" font-family="Helvetica,sans-Serif" font-size="10.00">common_kernels.h</text>
</a>
</g>
</g>
<!-- Node1&#45;&gt;Node38 -->
<g id="edge53_Node000001_Node000038" class="edge">
<title>Node1&#45;&gt;Node38</title>
<g id="a_edge53_Node000001_Node000038"><a xlink:title=" ">
<path fill="none" stroke="#63b8ff" d="M2659,-230.97C2659,-212.73 2659,-169.57 2659,-144.64"/>
<polygon fill="#63b8ff" stroke="#63b8ff" points="2662.5,-144.63 2659,-134.63 2655.5,-144.63 2662.5,-144.63"/>
</a>
</g>
</g>
<!-- Node40 -->
<g id="Node000040" class="node">
<title>Node40</title>
<g id="a_Node000040"><a xlink:href="transpose_8h.html" target="_top" xlink:title=" ">
<polygon fill="white" stroke="#666666" points="2469,-134.5 2395,-134.5 2395,-115.5 2469,-115.5 2469,-134.5"/>
<text text-anchor="middle" x="2432" y="-122.5" font-family="Helvetica,sans-Serif" font-size="10.00">transpose.h</text>
</a>
</g>
</g>
<!-- Node1&#45;&gt;Node40 -->
<g id="edge49_Node000001_Node000040" class="edge">
<title>Node1&#45;&gt;Node40</title>
<g id="a_edge49_Node000001_Node000040"><a xlink:title=" ">
<path fill="none" stroke="#63b8ff" d="M2641.94,-230.97C2602.58,-211.29 2505.22,-162.61 2458.22,-139.11"/>
<polygon fill="#63b8ff" stroke="#63b8ff" points="2459.77,-135.97 2449.26,-134.63 2456.64,-142.23 2459.77,-135.97"/>
</a>
</g>
</g>
<!-- Node41 -->
<g id="Node000041" class="node">
<title>Node41</title>
<g id="a_Node000041"><a xlink:href="reindex_8h.html" target="_top" xlink:title=" ">
<polygon fill="white" stroke="#666666" points="2832,-195 2770,-195 2770,-176 2832,-176 2832,-195"/>
<text text-anchor="middle" x="2801" y="-183" font-family="Helvetica,sans-Serif" font-size="10.00">reindex.h</text>
</a>
</g>
</g>
<!-- Node1&#45;&gt;Node41 -->
<g id="edge54_Node000001_Node000041" class="edge">
<title>Node1&#45;&gt;Node41</title>
<g id="a_edge54_Node000001_Node000041"><a xlink:title=" ">
<path fill="none" stroke="#63b8ff" d="M2681.81,-230.98C2705.17,-222.27 2741.7,-208.63 2768.17,-198.75"/>
<polygon fill="#63b8ff" stroke="#63b8ff" points="2769.63,-201.95 2777.77,-195.17 2767.18,-195.39 2769.63,-201.95"/>
</a>
</g>
</g>
<!-- Node3 -->
<g id="Node000003" class="node">
<title>Node3</title>
<g id="a_Node000003"><a xlink:title=" ">
<polygon fill="#e0e0e0" stroke="#999999" points="2545,-74 2495,-74 2495,-55 2545,-55 2545,-74"/>
<text text-anchor="middle" x="2520" y="-62" font-family="Helvetica,sans-Serif" font-size="10.00">stdio.h</text>
</a>
</g>
</g>
<!-- Node2&#45;&gt;Node3 -->
<g id="edge2_Node000002_Node000003" class="edge">
<title>Node2&#45;&gt;Node3</title>
<g id="a_edge2_Node000002_Node000003"><a xlink:title=" ">
<path fill="none" stroke="#63b8ff" d="M1595.24,-183.84C1723.71,-181.55 2101.52,-172.16 2220,-140 2248.77,-132.19 2251.69,-119.34 2280,-110 2367.85,-81.01 2394.45,-92.93 2485,-74 2485.1,-73.98 2485.2,-73.96 2485.3,-73.94"/>
<polygon fill="#63b8ff" stroke="#63b8ff" points="2485.81,-77.41 2494.81,-71.82 2484.29,-70.58 2485.81,-77.41"/>
</a>
</g>
</g>
<!-- Node2&#45;&gt;Node4 -->
<g id="edge3_Node000002_Node000004" class="edge">
<title>Node2&#45;&gt;Node4</title>
<g id="a_edge3_Node000002_Node000004"><a xlink:title=" ">
<path fill="none" stroke="#63b8ff" d="M1595.05,-184.15C1775.54,-182.46 2466.05,-173.85 2557,-140 2577.17,-132.5 2575.36,-118.79 2595,-110 2676.94,-73.34 2707.64,-90.39 2799.58,-74.14"/>
<polygon fill="#63b8ff" stroke="#63b8ff" points="2800.38,-77.55 2809.58,-72.29 2799.11,-70.67 2800.38,-77.55"/>
</a>
</g>
</g>
<!-- Node5 -->
<g id="Node000005" class="node">
<title>Node5</title>
<g id="a_Node000005"><a xlink:href="device__headers_8h.html" target="_top" xlink:title=" ">
<polygon fill="white" stroke="#666666" points="2319,-74 2217,-74 2217,-55 2319,-55 2319,-74"/>
<text text-anchor="middle" x="2268" y="-62" font-family="Helvetica,sans-Serif" font-size="10.00">device_headers.h</text>
</a>
</g>
</g>
<!-- Node2&#45;&gt;Node5 -->
<g id="edge4_Node000002_Node000005" class="edge">
<title>Node2&#45;&gt;Node5</title>
<g id="a_edge4_Node000002_Node000005"><a xlink:title=" ">
<path fill="none" stroke="#63b8ff" d="M1595.13,-185.04C1719.61,-186.03 2077.4,-184.81 2184,-140 2213.65,-127.54 2239.97,-100.19 2254.94,-82.32"/>
<polygon fill="#63b8ff" stroke="#63b8ff" points="2257.77,-84.4 2261.34,-74.42 2252.33,-79.99 2257.77,-84.4"/>
</a>
</g>
</g>
<!-- Node8 -->
<g id="Node000008" class="node">
<title>Node8</title>
<g id="a_Node000008"><a xlink:title=" ">
<polygon fill="#e0e0e0" stroke="#999999" points="2198.5,-74 2103.5,-74 2103.5,-55 2198.5,-55 2198.5,-74"/>
<text text-anchor="middle" x="2151" y="-62" font-family="Helvetica,sans-Serif" font-size="10.00">builtin_enums.h</text>
</a>
</g>
</g>
<!-- Node2&#45;&gt;Node8 -->
<g id="edge7_Node000002_Node000008" class="edge">
<title>Node2&#45;&gt;Node8</title>
<g id="a_edge7_Node000002_Node000008"><a xlink:title=" ">
<path fill="none" stroke="#63b8ff" d="M1595.34,-184.68C1728.86,-184.8 2127.28,-181.62 2166,-140 2180.27,-124.66 2171.06,-99.67 2162.01,-82.92"/>
<polygon fill="#63b8ff" stroke="#63b8ff" points="2164.95,-81.01 2156.88,-74.14 2158.91,-84.54 2164.95,-81.01"/>
</a>
</g>
</g>
<!-- Node9 -->
<g id="Node000009" class="node">
<title>Node9</title>
<g id="a_Node000009"><a xlink:href="datatypes_8h.html" target="_top" xlink:title=" ">
<polygon fill="white" stroke="#666666" points="2157,-134.5 2083,-134.5 2083,-115.5 2157,-115.5 2157,-134.5"/>
<text text-anchor="middle" x="2120" y="-122.5" font-family="Helvetica,sans-Serif" font-size="10.00">datatypes.h</text>
</a>
</g>
</g>
<!-- Node2&#45;&gt;Node9 -->
<g id="edge8_Node000002_Node000009" class="edge">
<title>Node2&#45;&gt;Node9</title>
<g id="a_edge8_Node000002_Node000009"><a xlink:title=" ">
<path fill="none" stroke="#63b8ff" d="M1595.05,-183.88C1684.87,-181.93 1898.5,-173.8 2074,-140 2077.86,-139.26 2081.85,-138.32 2085.79,-137.27"/>
<polygon fill="#63b8ff" stroke="#63b8ff" points="2086.76,-140.64 2095.41,-134.53 2084.84,-133.91 2086.76,-140.64"/>
</a>
</g>
</g>
<!-- Node17 -->
<g id="Node000017" class="node">
<title>Node17</title>
<g id="a_Node000017"><a xlink:href="errchk_8h.html" target="_top" xlink:title="Brief info.">
<polygon fill="white" stroke="#666666" points="2548,-134.5 2492,-134.5 2492,-115.5 2548,-115.5 2548,-134.5"/>
<text text-anchor="middle" x="2520" y="-122.5" font-family="Helvetica,sans-Serif" font-size="10.00">errchk.h</text>
</a>
</g>
</g>
<!-- Node2&#45;&gt;Node17 -->
<g id="edge20_Node000002_Node000017" class="edge">
<title>Node2&#45;&gt;Node17</title>
<g id="a_edge20_Node000002_Node000017"><a xlink:title=" ">
<path fill="none" stroke="#63b8ff" d="M1595.21,-183.99C1754.05,-181.87 2305.36,-172.29 2478,-140 2481.43,-139.36 2484.96,-138.51 2488.45,-137.53"/>
<polygon fill="#63b8ff" stroke="#63b8ff" points="2489.54,-140.86 2498.07,-134.57 2487.48,-134.17 2489.54,-140.86"/>
</a>
</g>
</g>
<!-- Node21 -->
<g id="Node000021" class="node">
<title>Node21</title>
<g id="a_Node000021"><a xlink:title=" ">
<polygon fill="#e0e0e0" stroke="#999999" points="2376.5,-134.5 2289.5,-134.5 2289.5,-115.5 2376.5,-115.5 2376.5,-134.5"/>
<text text-anchor="middle" x="2333" y="-122.5" font-family="Helvetica,sans-Serif" font-size="10.00">user_defines.h</text>
</a>
</g>
</g>
<!-- Node2&#45;&gt;Node21 -->
<g id="edge29_Node000002_Node000021" class="edge">
<title>Node2&#45;&gt;Node21</title>
<g id="a_edge29_Node000002_Node000021"><a xlink:title=" ">
<path fill="none" stroke="#63b8ff" d="M1595.06,-184.47C1707.53,-183.84 2019.13,-178.45 2275,-140 2280.51,-139.17 2286.26,-138.08 2291.91,-136.86"/>
<polygon fill="#63b8ff" stroke="#63b8ff" points="2292.93,-140.22 2301.89,-134.57 2291.36,-133.39 2292.93,-140.22"/>
</a>
</g>
</g>
<!-- Node22 -->
<g id="Node000022" class="node">
<title>Node22</title>
<g id="a_Node000022"><a xlink:title=" ">
<polygon fill="#e0e0e0" stroke="#999999" points="86,-134.5 0,-134.5 0,-115.5 86,-115.5 86,-134.5"/>
<text text-anchor="middle" x="43" y="-122.5" font-family="Helvetica,sans-Serif" font-size="10.00">profiles_info.h</text>
</a>
</g>
</g>
<!-- Node2&#45;&gt;Node22 -->
<g id="edge30_Node000002_Node000022" class="edge">
<title>Node2&#45;&gt;Node22</title>
<g id="a_edge30_Node000002_Node000022"><a xlink:title=" ">
<path fill="none" stroke="#63b8ff" d="M1508.67,-184.53C1297.84,-184.49 378.05,-181.84 95,-140 90.11,-139.28 85.03,-138.26 80.03,-137.09"/>
<polygon fill="#63b8ff" stroke="#63b8ff" points="80.56,-133.61 70.01,-134.55 78.84,-140.4 80.56,-133.61"/>
</a>
</g>
</g>
<!-- Node23 -->
<g id="Node000023" class="node">
<title>Node23</title>
<g id="a_Node000023"><a xlink:title=" ">
<polygon fill="#e0e0e0" stroke="#999999" points="243.5,-134.5 104.5,-134.5 104.5,-115.5 243.5,-115.5 243.5,-134.5"/>
<text text-anchor="middle" x="174" y="-122.5" font-family="Helvetica,sans-Serif" font-size="10.00">user_built&#45;in_constants.h</text>
</a>
</g>
</g>
<!-- Node2&#45;&gt;Node23 -->
<g id="edge31_Node000002_Node000023" class="edge">
<title>Node2&#45;&gt;Node23</title>
<g id="a_edge31_Node000002_Node000023"><a xlink:title=" ">
<path fill="none" stroke="#63b8ff" d="M1508.92,-183.86C1312.89,-180.8 503.93,-166.78 252,-140 243.25,-139.07 234.01,-137.73 225.06,-136.25"/>
<polygon fill="#63b8ff" stroke="#63b8ff" points="225.58,-132.78 215.13,-134.52 224.38,-139.68 225.58,-132.78"/>
</a>
</g>
</g>
<!-- Node24 -->
<g id="Node000024" class="node">
<title>Node24</title>
<g id="a_Node000024"><a xlink:href="func__attributes_8h.html" target="_top" xlink:title=" ">
<polygon fill="white" stroke="#666666" points="360.5,-134.5 261.5,-134.5 261.5,-115.5 360.5,-115.5 360.5,-134.5"/>
<text text-anchor="middle" x="311" y="-122.5" font-family="Helvetica,sans-Serif" font-size="10.00">func_attributes.h</text>
</a>
</g>
</g>
<!-- Node2&#45;&gt;Node24 -->
<g id="edge32_Node000002_Node000024" class="edge">
<title>Node2&#45;&gt;Node24</title>
<g id="a_edge32_Node000002_Node000024"><a xlink:title=" ">
<path fill="none" stroke="#63b8ff" d="M1508.79,-184.03C1323.56,-181.83 595.75,-171.31 369,-140 363.22,-139.2 357.17,-138.08 351.25,-136.81"/>
<polygon fill="#63b8ff" stroke="#63b8ff" points="352.01,-133.39 341.48,-134.56 350.45,-140.21 352.01,-133.39"/>
</a>
</g>
</g>
<!-- Node25 -->
<g id="Node000025" class="node">
<title>Node25</title>
<g id="a_Node000025"><a xlink:title=" ">
<polygon fill="#e0e0e0" stroke="#999999" points="503.5,-134.5 378.5,-134.5 378.5,-115.5 503.5,-115.5 503.5,-134.5"/>
<text text-anchor="middle" x="441" y="-122.5" font-family="Helvetica,sans-Serif" font-size="10.00">user_input_typedefs.h</text>
</a>
</g>
</g>
<!-- Node2&#45;&gt;Node25 -->
<g id="edge33_Node000002_Node000025" class="edge">
<title>Node2&#45;&gt;Node25</title>
<g id="a_edge33_Node000002_Node000025"><a xlink:title=" ">
<path fill="none" stroke="#63b8ff" d="M1508.72,-184.99C1365.85,-186.13 896.47,-185.86 512,-140 504.45,-139.1 496.51,-137.84 488.78,-136.45"/>
<polygon fill="#63b8ff" stroke="#63b8ff" points="489.26,-132.98 478.78,-134.56 487.96,-139.86 489.26,-132.98"/>
</a>
</g>
</g>
<!-- Node26 -->
<g id="Node000026" class="node">
<title>Node26</title>
<g id="a_Node000026"><a xlink:title=" ">
<polygon fill="#e0e0e0" stroke="#999999" points="604.5,-134.5 521.5,-134.5 521.5,-115.5 604.5,-115.5 604.5,-134.5"/>
<text text-anchor="middle" x="563" y="-122.5" font-family="Helvetica,sans-Serif" font-size="10.00">output_decl.h</text>
</a>
</g>
</g>
<!-- Node2&#45;&gt;Node26 -->
<g id="edge34_Node000002_Node000026" class="edge">
<title>Node2&#45;&gt;Node26</title>
<g id="a_edge34_Node000002_Node000026"><a xlink:title=" ">
<path fill="none" stroke="#63b8ff" d="M1508.84,-183.72C1348.86,-180.61 789.9,-167.96 614,-140 609.26,-139.25 604.33,-138.22 599.49,-137.06"/>
<polygon fill="#63b8ff" stroke="#63b8ff" points="600.31,-133.65 589.75,-134.54 598.56,-140.43 600.31,-133.65"/>
</a>
</g>
</g>
<!-- Node27 -->
<g id="Node000027" class="node">
<title>Node27</title>
<g id="a_Node000027"><a xlink:title=" ">
<polygon fill="#e0e0e0" stroke="#999999" points="739,-134.5 623,-134.5 623,-115.5 739,-115.5 739,-134.5"/>
<text text-anchor="middle" x="681" y="-122.5" font-family="Helvetica,sans-Serif" font-size="10.00">comp_loaded_decl.h</text>
</a>
</g>
</g>
<!-- Node2&#45;&gt;Node27 -->
<g id="edge35_Node000002_Node000027" class="edge">
<title>Node2&#45;&gt;Node27</title>
<g id="a_edge35_Node000002_Node000027"><a xlink:title=" ">
<path fill="none" stroke="#63b8ff" d="M1508.65,-184.39C1387.72,-183.6 1036.65,-177.93 748,-140 741.19,-139.11 734.04,-137.9 727.06,-136.57"/>
<polygon fill="#63b8ff" stroke="#63b8ff" points="727.48,-133.09 716.99,-134.56 726.11,-139.95 727.48,-133.09"/>
</a>
</g>
</g>
<!-- Node28 -->
<g id="Node000028" class="node">
<title>Node28</title>
<g id="a_Node000028"><a xlink:title=" ">
<polygon fill="#e0e0e0" stroke="#999999" points="835,-134.5 757,-134.5 757,-115.5 835,-115.5 835,-134.5"/>
<text text-anchor="middle" x="796" y="-122.5" font-family="Helvetica,sans-Serif" font-size="10.00">comp_decl.h</text>
</a>
</g>
</g>
<!-- Node2&#45;&gt;Node28 -->
<g id="edge36_Node000002_Node000028" class="edge">
<title>Node2&#45;&gt;Node28</title>
<g id="a_edge36_Node000002_Node000028"><a xlink:title=" ">
<path fill="none" stroke="#63b8ff" d="M1508.92,-185.09C1397.84,-185.89 1093,-183.58 844,-140 839.82,-139.27 835.48,-138.3 831.2,-137.22"/>
<polygon fill="#63b8ff" stroke="#63b8ff" points="831.98,-133.81 821.41,-134.55 830.13,-140.56 831.98,-133.81"/>
</a>
</g>
</g>
<!-- Node29 -->
<g id="Node000029" class="node">
<title>Node29</title>
<g id="a_Node000029"><a xlink:title=" ">
<polygon fill="#e0e0e0" stroke="#999999" points="961,-134.5 853,-134.5 853,-115.5 961,-115.5 961,-134.5"/>
<text text-anchor="middle" x="907" y="-122.5" font-family="Helvetica,sans-Serif" font-size="10.00">info_loaded_decl.h</text>
</a>
</g>
</g>
<!-- Node2&#45;&gt;Node29 -->
<g id="edge37_Node000002_Node000029" class="edge">
<title>Node2&#45;&gt;Node29</title>
<g id="a_edge37_Node000002_Node000029"><a xlink:title=" ">
<path fill="none" stroke="#63b8ff" d="M1508.69,-183.3C1411.72,-180.14 1169.97,-169.71 970,-140 963.82,-139.08 957.34,-137.9 950.99,-136.61"/>
<polygon fill="#63b8ff" stroke="#63b8ff" points="951.68,-133.18 941.17,-134.52 950.22,-140.03 951.68,-133.18"/>
</a>
</g>
</g>
<!-- Node30 -->
<g id="Node000030" class="node">
<title>Node30</title>
<g id="a_Node000030"><a xlink:title=" ">
<polygon fill="#e0e0e0" stroke="#999999" points="1119,-134.5 979,-134.5 979,-115.5 1119,-115.5 1119,-134.5"/>
<text text-anchor="middle" x="1049" y="-122.5" font-family="Helvetica,sans-Serif" font-size="10.00">device_mesh_info_decl.h</text>
</a>
</g>
</g>
<!-- Node2&#45;&gt;Node30 -->
<g id="edge38_Node000002_Node000030" class="edge">
<title>Node2&#45;&gt;Node30</title>
<g id="a_edge38_Node000002_Node000030"><a xlink:title=" ">
<path fill="none" stroke="#63b8ff" d="M1508.84,-180.99C1432.05,-174.51 1266.7,-159.54 1128,-140 1120.24,-138.91 1112.08,-137.62 1104.06,-136.27"/>
<polygon fill="#63b8ff" stroke="#63b8ff" points="1104.48,-132.79 1094.03,-134.55 1103.29,-139.69 1104.48,-132.79"/>
</a>
</g>
</g>
<!-- Node31 -->
<g id="Node000031" class="node">
<title>Node31</title>
<g id="a_Node000031"><a xlink:title=" ">
<polygon fill="#e0e0e0" stroke="#999999" points="1214.5,-134.5 1137.5,-134.5 1137.5,-115.5 1214.5,-115.5 1214.5,-134.5"/>
<text text-anchor="middle" x="1176" y="-122.5" font-family="Helvetica,sans-Serif" font-size="10.00">array_decl.h</text>
</a>
</g>
</g>
<!-- Node2&#45;&gt;Node31 -->
<g id="edge39_Node000002_Node000031" class="edge">
<title>Node2&#45;&gt;Node31</title>
<g id="a_edge39_Node000002_Node000031"><a xlink:title=" ">
<path fill="none" stroke="#63b8ff" d="M1508.93,-180.72C1445.9,-174.73 1325.04,-161.46 1224,-140 1220.3,-139.21 1216.47,-138.29 1212.66,-137.3"/>
<polygon fill="#63b8ff" stroke="#63b8ff" points="1213.3,-133.84 1202.73,-134.56 1211.44,-140.59 1213.3,-133.84"/>
</a>
</g>
</g>
<!-- Node32 -->
<g id="Node000032" class="node">
<title>Node32</title>
<g id="a_Node000032"><a xlink:title=" ">
<polygon fill="#e0e0e0" stroke="#999999" points="1309,-134.5 1233,-134.5 1233,-115.5 1309,-115.5 1309,-134.5"/>
<text text-anchor="middle" x="1271" y="-122.5" font-family="Helvetica,sans-Serif" font-size="10.00">input_decl.h</text>
</a>
</g>
</g>
<!-- Node2&#45;&gt;Node32 -->
<g id="edge40_Node000002_Node000032" class="edge">
<title>Node2&#45;&gt;Node32</title>
<g id="a_edge40_Node000002_Node000032"><a xlink:title=" ">
<path fill="none" stroke="#63b8ff" d="M1508.59,-177.6C1461.4,-169.79 1383.9,-156.04 1318,-140 1314.77,-139.21 1311.44,-138.34 1308.11,-137.43"/>
<polygon fill="#63b8ff" stroke="#63b8ff" points="1308.79,-133.99 1298.21,-134.62 1306.87,-140.72 1308.79,-133.99"/>
</a>
</g>
</g>
<!-- Node33 -->
<g id="Node000033" class="node">
<title>Node33</title>
<g id="a_Node000033"><a xlink:href="ac__helpers_8h.html" target="_top" xlink:title=" ">
<polygon fill="white" stroke="#666666" points="1405,-134.5 1327,-134.5 1327,-115.5 1405,-115.5 1405,-134.5"/>
<text text-anchor="middle" x="1366" y="-122.5" font-family="Helvetica,sans-Serif" font-size="10.00">ac_helpers.h</text>
</a>
</g>
</g>
<!-- Node2&#45;&gt;Node33 -->
<g id="edge41_Node000002_Node000033" class="edge">
<title>Node2&#45;&gt;Node33</title>
<g id="a_edge41_Node000002_Node000033"><a xlink:title=" ">
<path fill="none" stroke="#63b8ff" d="M1524.95,-175.99C1492.72,-165.86 1438.71,-148.87 1402.72,-137.55"/>
<polygon fill="#63b8ff" stroke="#63b8ff" points="1403.67,-134.18 1393.08,-134.52 1401.57,-140.86 1403.67,-134.18"/>
</a>
</g>
</g>
<!-- Node34 -->
<g id="Node000034" class="node">
<title>Node34</title>
<g id="a_Node000034"><a xlink:title=" ">
<polygon fill="#e0e0e0" stroke="#999999" points="1541,-140 1423,-140 1423,-110 1541,-110 1541,-140"/>
<text text-anchor="start" x="1431" y="-128" font-family="Helvetica,sans-Serif" font-size="10.00">scalar_reduce_buffer</text>
<text text-anchor="middle" x="1482" y="-117" font-family="Helvetica,sans-Serif" font-size="10.00">_defs.h</text>
</a>
</g>
</g>
<!-- Node2&#45;&gt;Node34 -->
<g id="edge42_Node000002_Node000034" class="edge">
<title>Node2&#45;&gt;Node34</title>
<g id="a_edge42_Node000002_Node000034"><a xlink:title=" ">
<path fill="none" stroke="#63b8ff" d="M1541.67,-175.87C1532.52,-168.22 1518.81,-156.76 1506.83,-146.75"/>
<polygon fill="#63b8ff" stroke="#63b8ff" points="1508.81,-143.84 1498.89,-140.11 1504.32,-149.21 1508.81,-143.84"/>
</a>
</g>
</g>
<!-- Node35 -->
<g id="Node000035" class="node">
<title>Node35</title>
<g id="a_Node000035"><a xlink:title=" ">
<polygon fill="#e0e0e0" stroke="#999999" points="1682.5,-140 1559.5,-140 1559.5,-110 1682.5,-110 1682.5,-140"/>
<text text-anchor="start" x="1567.5" y="-128" font-family="Helvetica,sans-Serif" font-size="10.00">scalar_reduce_buffers</text>
<text text-anchor="middle" x="1621" y="-117" font-family="Helvetica,sans-Serif" font-size="10.00">_in_vba.h</text>
</a>
</g>
</g>
<!-- Node2&#45;&gt;Node35 -->
<g id="edge43_Node000002_Node000035" class="edge">
<title>Node2&#45;&gt;Node35</title>
<g id="a_edge43_Node000002_Node000035"><a xlink:title=" ">
<path fill="none" stroke="#63b8ff" d="M1562.18,-175.87C1571.2,-168.22 1584.72,-156.76 1596.53,-146.75"/>
<polygon fill="#63b8ff" stroke="#63b8ff" points="1598.99,-149.25 1604.35,-140.11 1594.46,-143.91 1598.99,-149.25"/>
</a>
</g>
</g>
<!-- Node36 -->
<g id="Node000036" class="node">
<title>Node36</title>
<g id="a_Node000036"><a xlink:href="astaroth__analysis_8h.html" target="_top" xlink:title=" ">
<polygon fill="white" stroke="#666666" points="1813,-134.5 1701,-134.5 1701,-115.5 1813,-115.5 1813,-134.5"/>
<text text-anchor="middle" x="1757" y="-122.5" font-family="Helvetica,sans-Serif" font-size="10.00">astaroth_analysis.h</text>
</a>
</g>
</g>
<!-- Node2&#45;&gt;Node36 -->
<g id="edge44_Node000002_Node000036" class="edge">
<title>Node2&#45;&gt;Node36</title>
<g id="a_edge44_Node000002_Node000036"><a xlink:title=" ">
<path fill="none" stroke="#63b8ff" d="M1581.81,-175.99C1617.56,-165.79 1677.63,-148.65 1717.29,-137.33"/>
<polygon fill="#63b8ff" stroke="#63b8ff" points="1718.5,-140.63 1727.16,-134.52 1716.58,-133.9 1718.5,-140.63"/>
</a>
</g>
</g>
<!-- Node37 -->
<g id="Node000037" class="node">
<title>Node37</title>
<g id="a_Node000037"><a xlink:href="func__define_8h.html" target="_top" xlink:title=" ">
<polygon fill="white" stroke="#666666" points="1913,-134.5 1831,-134.5 1831,-115.5 1913,-115.5 1913,-134.5"/>
<text text-anchor="middle" x="1872" y="-122.5" font-family="Helvetica,sans-Serif" font-size="10.00">func_define.h</text>
</a>
</g>
</g>
<!-- Node2&#45;&gt;Node37 -->
<g id="edge45_Node000002_Node000037" class="edge">
<title>Node2&#45;&gt;Node37</title>
<g id="a_edge45_Node000002_Node000037"><a xlink:title=" ">
<path fill="none" stroke="#63b8ff" d="M1595.3,-178.86C1648.86,-171.53 1742.69,-157.58 1822,-140 1825.85,-139.15 1829.84,-138.18 1833.82,-137.15"/>
<polygon fill="#63b8ff" stroke="#63b8ff" points="1834.83,-140.51 1843.58,-134.54 1833.01,-133.75 1834.83,-140.51"/>
</a>
</g>
</g>
<!-- Node2&#45;&gt;Node38 -->
<g id="edge46_Node000002_Node000038" class="edge">
<title>Node2&#45;&gt;Node38</title>
<g id="a_edge46_Node000002_Node000038"><a xlink:title=" ">
<path fill="none" stroke="#63b8ff" d="M1595.21,-185.07C1737.84,-186.45 2206.4,-186.84 2590,-140 2597.26,-139.11 2604.89,-137.88 2612.33,-136.5"/>
<polygon fill="#63b8ff" stroke="#63b8ff" points="2613.14,-139.91 2622.29,-134.56 2611.81,-133.04 2613.14,-139.91"/>
</a>
</g>
</g>
<!-- Node39 -->
<g id="Node000039" class="node">
<title>Node39</title>
<g id="a_Node000039"><a xlink:title=" ">
<polygon fill="#e0e0e0" stroke="#999999" points="2065,-140 1931,-140 1931,-110 2065,-110 2065,-140"/>
<text text-anchor="start" x="1939" y="-128" font-family="Helvetica,sans-Serif" font-size="10.00">load_and_store_uniform</text>
<text text-anchor="middle" x="1998" y="-117" font-family="Helvetica,sans-Serif" font-size="10.00">_header.h</text>
</a>
</g>
</g>
<!-- Node2&#45;&gt;Node39 -->
<g id="edge47_Node000002_Node000039" class="edge">
<title>Node2&#45;&gt;Node39</title>
<g id="a_edge47_Node000002_Node000039"><a xlink:title=" ">
<path fill="none" stroke="#63b8ff" d="M1595.13,-180.2C1662.45,-173.29 1796.82,-158.72 1920.85,-140.12"/>
<polygon fill="#63b8ff" stroke="#63b8ff" points="1921.54,-143.55 1930.9,-138.6 1920.49,-136.63 1921.54,-143.55"/>
</a>
</g>
</g>
<!-- Node6 -->
<g id="Node000006" class="node">
<title>Node6</title>
<g id="a_Node000006"><a xlink:title=" ">
<polygon fill="#e0e0e0" stroke="#999999" points="2062.5,-19 1949.5,-19 1949.5,0 2062.5,0 2062.5,-19"/>
<text text-anchor="middle" x="2006" y="-7" font-family="Helvetica,sans-Serif" font-size="10.00">cuda_runtime_api.h</text>
</a>
</g>
</g>
<!-- Node5&#45;&gt;Node6 -->
<g id="edge5_Node000005_Node000006" class="edge">
<title>Node5&#45;&gt;Node6</title>
<g id="a_edge5_Node000005_Node000006"><a xlink:title=" ">
<path fill="none" stroke="#63b8ff" d="M2225.91,-54.98C2180.3,-45.76 2107.48,-31.03 2058.25,-21.07"/>
<polygon fill="#63b8ff" stroke="#63b8ff" points="2058.92,-17.63 2048.42,-19.08 2057.53,-24.5 2058.92,-17.63"/>
</a>
</g>
</g>
<!-- Node7 -->
<g id="Node000007" class="node">
<title>Node7</title>
<g id="a_Node000007"><a xlink:title=" ">
<polygon fill="#e0e0e0" stroke="#999999" points="2303,-19 2227,-19 2227,0 2303,0 2303,-19"/>
<text text-anchor="middle" x="2265" y="-7" font-family="Helvetica,sans-Serif" font-size="10.00">cuda_fp16.h</text>
</a>
</g>
</g>
<!-- Node5&#45;&gt;Node7 -->
<g id="edge6_Node000005_Node000007" class="edge">
<title>Node5&#45;&gt;Node7</title>
<g id="a_edge6_Node000005_Node000007"><a xlink:title=" ">
<path fill="none" stroke="#63b8ff" d="M2267.5,-54.75C2267.11,-47.8 2266.55,-37.85 2266.05,-29.13"/>
<polygon fill="#63b8ff" stroke="#63b8ff" points="2269.55,-28.88 2265.49,-19.09 2262.56,-29.27 2269.55,-28.88"/>
</a>
</g>
</g>
<!-- Node9&#45;&gt;Node5 -->
<g id="edge11_Node000009_Node000005" class="edge">
<title>Node9&#45;&gt;Node5</title>
<g id="a_edge11_Node000009_Node000005"><a xlink:title=" ">
<path fill="none" stroke="#63b8ff" d="M2141.52,-115.49C2166.62,-105.57 2208.32,-89.09 2236.93,-77.78"/>
<polygon fill="#63b8ff" stroke="#63b8ff" points="2238.44,-80.95 2246.45,-74.02 2235.87,-74.44 2238.44,-80.95"/>
</a>
</g>
</g>
<!-- Node9&#45;&gt;Node6 -->
<g id="edge13_Node000009_Node000006" class="edge">
<title>Node9&#45;&gt;Node6</title>
<g id="a_edge13_Node000009_Node000006"><a xlink:title=" ">
<path fill="none" stroke="#63b8ff" d="M2093.87,-115.48C2087.42,-113.53 2080.49,-111.58 2074,-110 2030.75,-99.5 1905.5,-108.18 1877,-74 1854.16,-46.61 1896.99,-30.01 1939.31,-20.69"/>
<polygon fill="#63b8ff" stroke="#63b8ff" points="1940.08,-24.11 1949.16,-18.65 1938.65,-17.26 1940.08,-24.11"/>
</a>
</g>
</g>
<!-- Node9&#45;&gt;Node8 -->
<g id="edge15_Node000009_Node000008" class="edge">
<title>Node9&#45;&gt;Node8</title>
<g id="a_edge15_Node000009_Node000008"><a xlink:title=" ">
<path fill="none" stroke="#63b8ff" d="M2124.57,-115.37C2129.06,-106.9 2136.03,-93.74 2141.69,-83.07"/>
<polygon fill="#63b8ff" stroke="#63b8ff" points="2144.82,-84.64 2146.41,-74.17 2138.63,-81.36 2144.82,-84.64"/>
</a>
</g>
</g>
<!-- Node10 -->
<g id="Node000010" class="node">
<title>Node10</title>
<g id="a_Node000010"><a xlink:title=" ">
<polygon fill="#e0e0e0" stroke="#999999" points="2046.5,-74 1999.5,-74 1999.5,-55 2046.5,-55 2046.5,-74"/>
<text text-anchor="middle" x="2023" y="-62" font-family="Helvetica,sans-Serif" font-size="10.00">float.h</text>
</a>
</g>
</g>
<!-- Node9&#45;&gt;Node10 -->
<g id="edge9_Node000009_Node000010" class="edge">
<title>Node9&#45;&gt;Node10</title>
<g id="a_edge9_Node000009_Node000010"><a xlink:title=" ">
<path fill="none" stroke="#63b8ff" d="M2105.69,-115.37C2090,-105.91 2064.6,-90.59 2046.09,-79.42"/>
<polygon fill="#63b8ff" stroke="#63b8ff" points="2047.74,-76.33 2037.37,-74.17 2044.13,-82.33 2047.74,-76.33"/>
</a>
</g>
</g>
<!-- Node11 -->
<g id="Node000011" class="node">
<title>Node11</title>
<g id="a_Node000011"><a xlink:title=" ">
<polygon fill="#e0e0e0" stroke="#999999" points="1722.5,-74 1671.5,-74 1671.5,-55 1722.5,-55 1722.5,-74"/>
<text text-anchor="middle" x="1697" y="-62" font-family="Helvetica,sans-Serif" font-size="10.00">math.h</text>
</a>
</g>
</g>
<!-- Node9&#45;&gt;Node11 -->
<g id="edge10_Node000009_Node000011" class="edge">
<title>Node9&#45;&gt;Node11</title>
<g id="a_edge10_Node000009_Node000011"><a xlink:title=" ">
<path fill="none" stroke="#63b8ff" d="M2094.91,-115.42C2088.19,-113.38 2080.87,-111.39 2074,-110 1927,-80.2 1883.79,-99.77 1732.65,-74.05"/>
<polygon fill="#63b8ff" stroke="#63b8ff" points="1732.99,-70.56 1722.54,-72.29 1731.79,-77.46 1732.99,-70.56"/>
</a>
</g>
</g>
<!-- Node12 -->
<g id="Node000012" class="node">
<title>Node12</title>
<g id="a_Node000012"><a xlink:title=" ">
<polygon fill="#e0e0e0" stroke="#999999" points="1829.5,-74 1740.5,-74 1740.5,-55 1829.5,-55 1829.5,-74"/>
<text text-anchor="middle" x="1785" y="-62" font-family="Helvetica,sans-Serif" font-size="10.00">vector_types.h</text>
</a>
</g>
</g>
<!-- Node9&#45;&gt;Node12 -->
<g id="edge12_Node000009_Node000012" class="edge">
<title>Node9&#45;&gt;Node12</title>
<g id="a_edge12_Node000009_Node000012"><a xlink:title=" ">
<path fill="none" stroke="#63b8ff" d="M2094.38,-115.5C2087.79,-113.5 2080.67,-111.52 2074,-110 2051.65,-104.91 1916.95,-84.84 1839.58,-73.47"/>
<polygon fill="#63b8ff" stroke="#63b8ff" points="1839.92,-69.99 1829.52,-72 1838.9,-76.91 1839.92,-69.99"/>
</a>
</g>
</g>
<!-- Node13 -->
<g id="Node000013" class="node">
<title>Node13</title>
<g id="a_Node000013"><a xlink:href="acreal_8h.html" target="_top" xlink:title=" ">
<polygon fill="white" stroke="#666666" points="2377,-19 2321,-19 2321,0 2377,0 2377,-19"/>
<text text-anchor="middle" x="2349" y="-7" font-family="Helvetica,sans-Serif" font-size="10.00">acreal.h</text>
</a>
</g>
</g>
<!-- Node9&#45;&gt;Node13 -->
<g id="edge14_Node000009_Node000013" class="edge">
<title>Node9&#45;&gt;Node13</title>
<g id="a_edge14_Node000009_Node000013"><a xlink:title=" ">
<path fill="none" stroke="#63b8ff" d="M2111.78,-115.42C2099.3,-101.35 2078.6,-73.16 2094,-55 2124.03,-19.61 2249.04,-27.45 2310.72,-18.85"/>
<polygon fill="#63b8ff" stroke="#63b8ff" points="2311.47,-22.27 2320.76,-17.18 2310.32,-15.37 2311.47,-22.27"/>
</a>
</g>
</g>
<!-- Node14 -->
<g id="Node000014" class="node">
<title>Node14</title>
<g id="a_Node000014"><a xlink:title=" ">
<polygon fill="#e0e0e0" stroke="#999999" points="1981.5,-74 1886.5,-74 1886.5,-55 1981.5,-55 1981.5,-74"/>
<text text-anchor="middle" x="1934" y="-62" font-family="Helvetica,sans-Serif" font-size="10.00">user_typedefs.h</text>
</a>
</g>
</g>
<!-- Node9&#45;&gt;Node14 -->
<g id="edge16_Node000009_Node000014" class="edge">
<title>Node9&#45;&gt;Node14</title>
<g id="a_edge16_Node000009_Node000014"><a xlink:title=" ">
<path fill="none" stroke="#63b8ff" d="M2092.95,-115.49C2060.72,-105.36 2006.71,-88.37 1970.72,-77.05"/>
<polygon fill="#63b8ff" stroke="#63b8ff" points="1971.67,-73.68 1961.08,-74.02 1969.57,-80.36 1971.67,-73.68"/>
</a>
</g>
</g>
<!-- Node15 -->
<g id="Node000015" class="node">
<title>Node15</title>
<g id="a_Node000015"><a xlink:href="host__datatypes_8h.html" target="_top" xlink:title=" ">
<polygon fill="white" stroke="#666666" points="2476.5,-74 2375.5,-74 2375.5,-55 2476.5,-55 2476.5,-74"/>
<text text-anchor="middle" x="2426" y="-62" font-family="Helvetica,sans-Serif" font-size="10.00">host_datatypes.h</text>
</a>
</g>
</g>
<!-- Node9&#45;&gt;Node15 -->
<g id="edge17_Node000009_Node000015" class="edge">
<title>Node9&#45;&gt;Node15</title>
<g id="a_edge17_Node000009_Node000015"><a xlink:title=" ">
<path fill="none" stroke="#63b8ff" d="M2157.22,-116.89C2210.7,-106.66 2309.65,-87.74 2371.42,-75.93"/>
<polygon fill="#63b8ff" stroke="#63b8ff" points="2372.21,-79.35 2381.37,-74.03 2370.89,-72.47 2372.21,-79.35"/>
</a>
</g>
</g>
<!-- Node15&#45;&gt;Node13 -->
<g id="edge18_Node000015_Node000013" class="edge">
<title>Node15&#45;&gt;Node13</title>
<g id="a_edge18_Node000015_Node000013"><a xlink:title=" ">
<path fill="none" stroke="#63b8ff" d="M2413.63,-54.98C2401.91,-46.92 2384.08,-34.65 2370.11,-25.03"/>
<polygon fill="#63b8ff" stroke="#63b8ff" points="2371.82,-21.96 2361.6,-19.17 2367.85,-27.72 2371.82,-21.96"/>
</a>
</g>
</g>
<!-- Node16 -->
<g id="Node000016" class="node">
<title>Node16</title>
<g id="a_Node000016"><a xlink:title=" ">
<polygon fill="#e0e0e0" stroke="#999999" points="2527,-19 2471,-19 2471,0 2527,0 2527,-19"/>
<text text-anchor="middle" x="2499" y="-7" font-family="Helvetica,sans-Serif" font-size="10.00">stddef.h</text>
</a>
</g>
</g>
<!-- Node15&#45;&gt;Node16 -->
<g id="edge19_Node000015_Node000016" class="edge">
<title>Node15&#45;&gt;Node16</title>
<g id="a_edge19_Node000015_Node000016"><a xlink:title=" ">
<path fill="none" stroke="#63b8ff" d="M2437.73,-54.98C2448.73,-47 2465.42,-34.88 2478.6,-25.31"/>
<polygon fill="#63b8ff" stroke="#63b8ff" points="2481.02,-27.88 2487.06,-19.17 2476.91,-22.21 2481.02,-27.88"/>
</a>
</g>
</g>
<!-- Node17&#45;&gt;Node3 -->
<g id="edge25_Node000017_Node000003" class="edge">
<title>Node17&#45;&gt;Node3</title>
<g id="a_edge25_Node000017_Node000003"><a xlink:title=" ">
<path fill="none" stroke="#63b8ff" d="M2520,-115.37C2520,-107.25 2520,-94.81 2520,-84.39"/>
<polygon fill="#63b8ff" stroke="#63b8ff" points="2523.5,-84.17 2520,-74.17 2516.5,-84.17 2523.5,-84.17"/>
</a>
</g>
</g>
<!-- Node17&#45;&gt;Node4 -->
<g id="edge23_Node000017_Node000004" class="edge">
<title>Node17&#45;&gt;Node4</title>
<g id="a_edge23_Node000017_Node000004"><a xlink:title=" ">
<path fill="none" stroke="#63b8ff" d="M2543.34,-115.43C2549.36,-113.44 2555.87,-111.47 2562,-110 2663.29,-85.68 2693.49,-92.7 2799.44,-74.17"/>
<polygon fill="#63b8ff" stroke="#63b8ff" points="2800.36,-77.56 2809.59,-72.36 2799.13,-70.67 2800.36,-77.56"/>
</a>
</g>
</g>
<!-- Node17&#45;&gt;Node5 -->
<g id="edge28_Node000017_Node000005" class="edge">
<title>Node17&#45;&gt;Node5</title>
<g id="a_edge28_Node000017_Node000005"><a xlink:title=" ">
<path fill="none" stroke="#63b8ff" d="M2495.71,-115.39C2489.94,-113.49 2483.79,-111.57 2478,-110 2427.06,-96.16 2368.2,-84.01 2325.78,-75.92"/>
<polygon fill="#63b8ff" stroke="#63b8ff" points="2326.38,-72.47 2315.91,-74.05 2325.08,-79.35 2326.38,-72.47"/>
</a>
</g>
</g>
<!-- Node17&#45;&gt;Node15 -->
<g id="edge22_Node000017_Node000015" class="edge">
<title>Node17&#45;&gt;Node15</title>
<g id="a_edge22_Node000017_Node000015"><a xlink:title=" ">
<path fill="none" stroke="#63b8ff" d="M2506.13,-115.37C2491,-105.95 2466.54,-90.73 2448.62,-79.58"/>
<polygon fill="#63b8ff" stroke="#63b8ff" points="2450.27,-76.48 2439.93,-74.17 2446.57,-82.42 2450.27,-76.48"/>
</a>
</g>
</g>
<!-- Node17&#45;&gt;Node16 -->
<g id="edge21_Node000017_Node000016" class="edge">
<title>Node17&#45;&gt;Node16</title>
<g id="a_edge21_Node000017_Node000016"><a xlink:title=" ">
<path fill="none" stroke="#63b8ff" d="M2529.95,-115.1C2543.34,-101.99 2564.35,-76.69 2554,-55 2547.91,-42.23 2536.16,-31.94 2525.08,-24.49"/>
<polygon fill="#63b8ff" stroke="#63b8ff" points="2526.8,-21.43 2516.46,-19.12 2523.1,-27.38 2526.8,-21.43"/>
</a>
</g>
</g>
<!-- Node18 -->
<g id="Node000018" class="node">
<title>Node18</title>
<g id="a_Node000018"><a xlink:title=" ">
<polygon fill="#e0e0e0" stroke="#999999" points="2654.5,-74 2601.5,-74 2601.5,-55 2654.5,-55 2654.5,-74"/>
<text text-anchor="middle" x="2628" y="-62" font-family="Helvetica,sans-Serif" font-size="10.00">stdint.h</text>
</a>
</g>
</g>
<!-- Node17&#45;&gt;Node18 -->
<g id="edge24_Node000017_Node000018" class="edge">
<title>Node17&#45;&gt;Node18</title>
<g id="a_edge24_Node000017_Node000018"><a xlink:title=" ">
<path fill="none" stroke="#63b8ff" d="M2535.94,-115.37C2553.64,-105.78 2582.46,-90.17 2603.14,-78.97"/>
<polygon fill="#63b8ff" stroke="#63b8ff" points="2604.87,-82.01 2612,-74.17 2601.54,-75.85 2604.87,-82.01"/>
</a>
</g>
</g>
<!-- Node19 -->
<g id="Node000019" class="node">
<title>Node19</title>
<g id="a_Node000019"><a xlink:title=" ">
<polygon fill="#e0e0e0" stroke="#999999" points="2725.5,-74 2672.5,-74 2672.5,-55 2725.5,-55 2725.5,-74"/>
<text text-anchor="middle" x="2699" y="-62" font-family="Helvetica,sans-Serif" font-size="10.00">stdlib.h</text>
</a>
</g>
</g>
<!-- Node17&#45;&gt;Node19 -->
<g id="edge26_Node000017_Node000019" class="edge">
<title>Node17&#45;&gt;Node19</title>
<g id="a_edge26_Node000017_Node000019"><a xlink:title=" ">
<path fill="none" stroke="#63b8ff" d="M2545.76,-115.38C2551.12,-113.59 2556.74,-111.73 2562,-110 2596.17,-98.76 2635.19,-86.1 2662.82,-77.17"/>
<polygon fill="#63b8ff" stroke="#63b8ff" points="2664.02,-80.46 2672.46,-74.05 2661.87,-73.8 2664.02,-80.46"/>
</a>
</g>
</g>
<!-- Node20 -->
<g id="Node000020" class="node">
<title>Node20</title>
<g id="a_Node000020"><a xlink:title=" ">
<polygon fill="#e0e0e0" stroke="#999999" points="2792,-74 2744,-74 2744,-55 2792,-55 2792,-74"/>
<text text-anchor="middle" x="2768" y="-62" font-family="Helvetica,sans-Serif" font-size="10.00">time.h</text>
</a>
</g>
</g>
<!-- Node17&#45;&gt;Node20 -->
<g id="edge27_Node000017_Node000020" class="edge">
<title>Node17&#45;&gt;Node20</title>
<g id="a_edge27_Node000017_Node000020"><a xlink:title=" ">
<path fill="none" stroke="#63b8ff" d="M2544.28,-115.38C2550.05,-113.48 2556.21,-111.56 2562,-110 2637.39,-89.62 2657.88,-91.47 2734,-74 2734.1,-73.98 2734.2,-73.95 2734.3,-73.93"/>
<polygon fill="#63b8ff" stroke="#63b8ff" points="2734.96,-77.37 2743.88,-71.65 2733.34,-70.56 2734.96,-77.37"/>
</a>
</g>
</g>
<!-- Node40&#45;&gt;Node5 -->
<g id="edge50_Node000040_Node000005" class="edge">
<title>Node40&#45;&gt;Node5</title>
<g id="a_edge50_Node000040_Node000005"><a xlink:title=" ">
<path fill="none" stroke="#63b8ff" d="M2408.15,-115.49C2380.1,-105.49 2333.33,-88.8 2301.6,-77.49"/>
<polygon fill="#63b8ff" stroke="#63b8ff" points="2302.47,-74.08 2291.88,-74.02 2300.12,-80.67 2302.47,-74.08"/>
</a>
</g>
</g>
<!-- Node40&#45;&gt;Node13 -->
<g id="edge51_Node000040_Node000013" class="edge">
<title>Node40&#45;&gt;Node13</title>
<g id="a_edge51_Node000040_Node000013"><a xlink:title=" ">
<path fill="none" stroke="#63b8ff" d="M2415.09,-115.43C2400.01,-106.92 2378.43,-92.49 2366,-74 2356.94,-60.53 2352.7,-42.44 2350.72,-29.01"/>
<polygon fill="#63b8ff" stroke="#63b8ff" points="2354.19,-28.55 2349.53,-19.03 2347.24,-29.37 2354.19,-28.55"/>
</a>
</g>
</g>
<!-- Node40&#45;&gt;Node15 -->
<g id="edge52_Node000040_Node000015" class="edge">
<title>Node40&#45;&gt;Node15</title>
<g id="a_edge52_Node000040_Node000015"><a xlink:title=" ">
<path fill="none" stroke="#63b8ff" d="M2431.11,-115.37C2430.28,-107.25 2429.01,-94.81 2427.94,-84.39"/>
<polygon fill="#63b8ff" stroke="#63b8ff" points="2431.39,-83.76 2426.89,-74.17 2424.43,-84.47 2431.39,-83.76"/>
</a>
</g>
</g>
</g>
</svg>

<g id="navigator" transform="translate(0 0)" fill="#404254">
  <rect fill="#f2f5e9" fill-opacity="0.5" stroke="#606060" stroke-width=".5" x="0" y="0" width="60" height="60"/>
  <use id="zoomplus" xlink:href="#zoomPlus" x="17" y="9" onmousedown="handleZoom(evt,'in')"/>
  <use id="zoomminus" xlink:href="#zoomMin" x="42" y="9" onmousedown="handleZoom(evt,'out')"/>
  <use id="reset" xlink:href="#resetDef" x="30" y="36" onmousedown="handleReset()"/>
   <use id="arrowup" xlink:href="#arrowUp" x="0" y="0" onmousedown="handlePan(0,-1)"/>
  <use id="arrowright" xlink:href="#arrowRight" x="0" y="0" onmousedown="handlePan(1,0)"/>
  <use id="arrowdown" xlink:href="#arrowDown" x="0" y="0" onmousedown="handlePan(0,1)"/>
  <use id="arrowleft" xlink:href="#arrowLeft" x="0" y="0" onmousedown="handlePan(-1,0)"/>
</g>
<svg viewBox="0 0 15 15" width="100%" height="30px" preserveAspectRatio="xMaxYMin meet">
 <g id="arrow_out" transform="scale(0.3 0.3)">
  <a xlink:href="src_2core_2kernels_2kernels_8h__incl_org.svg" target="_base">
   <rect id="button" ry="5" rx="5" y="6" x="6" height="38" width="38"
        fill="#f2f5e9" fill-opacity="0.5" stroke="#606060" stroke-width="1.0"/>
   <path id="arrow"
     d="M 11.500037,31.436501 C 11.940474,20.09759 22.043105,11.32322 32.158766,21.979434 L 37.068811,17.246167 C 37.068811,17.246167 37.088388,32 37.088388,32 L 22.160133,31.978069 C 22.160133,31.978069 26.997745,27.140456 26.997745,27.140456 C 18.528582,18.264221 13.291696,25.230495 11.500037,31.436501 z"
     style="fill:#404040;"/>
  </a>
 </g>
</svg>

<style type='text/css'>
<![CDATA[
[data-mouse-over-selected='false'] { opacity: 0.7; }
[data-mouse-over-selected='true']  { opacity: 1.0; }
]]>
</style>
<script type="application/ecmascript"><![CDATA[
document.addEventListener('DOMContentLoaded', (event) => {
  highlightEdges();
  highlightAdjacentNodes();
});
]]></script>
</svg>
