<?xml version="1.0" encoding="UTF-8" standalone="no"?>
<!DOCTYPE svg PUBLIC "-//W3C//DTD SVG 1.1//EN"
 "http://www.w3.org/Graphics/SVG/1.1/DTD/svg11.dtd">
<!-- Generated by graphviz version 2.43.0 (0)
 -->
<!-- Title: stdlib/geometric_multigrid.h Pages: 1 -->
<svg width="1033pt" height="302pt"
 viewBox="0.00 0.00 1033.00 302.00" xmlns="http://www.w3.org/2000/svg" xmlns:xlink="http://www.w3.org/1999/xlink">
<g id="graph0" class="graph" transform="scale(1 1) rotate(0) translate(4 298)">
<title>stdlib/geometric_multigrid.h</title>
<!-- Node1 -->
<g id="Node000001" class="node">
<title>Node1</title>
<g id="a_Node000001"><a xlink:title=" ">
<polygon fill="#999999" stroke="#666666" points="771,-294 616,-294 616,-275 771,-275 771,-294"/>
<text text-anchor="middle" x="693.5" y="-282" font-family="Helvetica,sans-Serif" font-size="10.00">stdlib/geometric_multigrid.h</text>
</a>
</g>
</g>
<!-- Node2 -->
<g id="Node000002" class="node">
<title>Node2</title>
<g id="a_Node000002"><a xlink:href="math__utils_8h.html" target="_top" xlink:title="Brief info.">
<polygon fill="white" stroke="#666666" points="681,-239 604,-239 604,-220 681,-220 681,-239"/>
<text text-anchor="middle" x="642.5" y="-227" font-family="Helvetica,sans-Serif" font-size="10.00">math_utils.h</text>
</a>
</g>
</g>
<!-- Node1&#45;&gt;Node2 -->
<g id="edge1_Node000001_Node000002" class="edge">
<title>Node1&#45;&gt;Node2</title>
<g id="a_edge1_Node000001_Node000002"><a xlink:title=" ">
<path fill="none" stroke="#63b8ff" d="M685.08,-274.75C677.73,-267.11 666.87,-255.82 657.96,-246.56"/>
<polygon fill="#63b8ff" stroke="#63b8ff" points="660.22,-243.87 650.76,-239.09 655.18,-248.72 660.22,-243.87"/>
</a>
</g>
</g>
<!-- Node24 -->
<g id="Node000024" class="node">
<title>Node24</title>
<g id="a_Node000024"><a xlink:href="astaroth__grid_8h.html" target="_top" xlink:title=" ">
<polygon fill="white" stroke="#666666" points="789.5,-239 699.5,-239 699.5,-220 789.5,-220 789.5,-239"/>
<text text-anchor="middle" x="744.5" y="-227" font-family="Helvetica,sans-Serif" font-size="10.00">astaroth_grid.h</text>
</a>
</g>
</g>
<!-- Node1&#45;&gt;Node24 -->
<g id="edge35_Node000001_Node000024" class="edge">
<title>Node1&#45;&gt;Node24</title>
<g id="a_edge35_Node000001_Node000024"><a xlink:title=" ">
<path fill="none" stroke="#63b8ff" d="M701.92,-274.75C709.27,-267.11 720.13,-255.82 729.04,-246.56"/>
<polygon fill="#63b8ff" stroke="#63b8ff" points="731.82,-248.72 736.24,-239.09 726.78,-243.87 731.82,-248.72"/>
</a>
</g>
</g>
<!-- Node3 -->
<g id="Node000003" class="node">
<title>Node3</title>
<g id="a_Node000003"><a xlink:title=" ">
<polygon fill="#e0e0e0" stroke="#999999" points="51,-129 0,-129 0,-110 51,-110 51,-129"/>
<text text-anchor="middle" x="25.5" y="-117" font-family="Helvetica,sans-Serif" font-size="10.00">math.h</text>
</a>
</g>
</g>
<!-- Node2&#45;&gt;Node3 -->
<g id="edge2_Node000002_Node000003" class="edge">
<title>Node2&#45;&gt;Node3</title>
<g id="a_edge2_Node000002_Node000003"><a xlink:title=" ">
<path fill="none" stroke="#63b8ff" d="M603.91,-228.81C522.98,-228.59 330.13,-223.55 174.5,-184 128.71,-172.37 78.85,-148.65 49.98,-133.73"/>
<polygon fill="#63b8ff" stroke="#63b8ff" points="51.51,-130.58 41.03,-129.03 48.26,-136.78 51.51,-130.58"/>
</a>
</g>
</g>
<!-- Node4 -->
<g id="Node000004" class="node">
<title>Node4</title>
<g id="a_Node000004"><a xlink:title=" ">
<polygon fill="#e0e0e0" stroke="#999999" points="567,-129 514,-129 514,-110 567,-110 567,-129"/>
<text text-anchor="middle" x="540.5" y="-117" font-family="Helvetica,sans-Serif" font-size="10.00">stdint.h</text>
</a>
</g>
</g>
<!-- Node2&#45;&gt;Node4 -->
<g id="edge3_Node000002_Node000004" class="edge">
<title>Node2&#45;&gt;Node4</title>
<g id="a_edge3_Node000002_Node000004"><a xlink:title=" ">
<path fill="none" stroke="#63b8ff" d="M634.15,-219.66C616.96,-201.46 577.38,-159.55 555.58,-136.47"/>
<polygon fill="#63b8ff" stroke="#63b8ff" points="558.09,-134.03 548.68,-129.16 553,-138.83 558.09,-134.03"/>
</a>
</g>
</g>
<!-- Node5 -->
<g id="Node000005" class="node">
<title>Node5</title>
<g id="a_Node000005"><a xlink:title=" ">
<polygon fill="#e0e0e0" stroke="#999999" points="638,-129 585,-129 585,-110 638,-110 638,-129"/>
<text text-anchor="middle" x="611.5" y="-117" font-family="Helvetica,sans-Serif" font-size="10.00">stdlib.h</text>
</a>
</g>
</g>
<!-- Node2&#45;&gt;Node5 -->
<g id="edge4_Node000002_Node000005" class="edge">
<title>Node2&#45;&gt;Node5</title>
<g id="a_edge4_Node000002_Node000005"><a xlink:title=" ">
<path fill="none" stroke="#63b8ff" d="M639.96,-219.66C634.92,-202.09 623.54,-162.45 616.8,-138.95"/>
<polygon fill="#63b8ff" stroke="#63b8ff" points="620.11,-137.8 613.99,-129.16 613.38,-139.74 620.11,-137.8"/>
</a>
</g>
</g>
<!-- Node6 -->
<g id="Node000006" class="node">
<title>Node6</title>
<g id="a_Node000006"><a xlink:href="datatypes_8h.html" target="_top" xlink:title=" ">
<polygon fill="white" stroke="#666666" points="257.5,-184 183.5,-184 183.5,-165 257.5,-165 257.5,-184"/>
<text text-anchor="middle" x="220.5" y="-172" font-family="Helvetica,sans-Serif" font-size="10.00">datatypes.h</text>
</a>
</g>
</g>
<!-- Node2&#45;&gt;Node6 -->
<g id="edge5_Node000002_Node000006" class="edge">
<title>Node2&#45;&gt;Node6</title>
<g id="a_edge5_Node000002_Node000006"><a xlink:title=" ">
<path fill="none" stroke="#63b8ff" d="M603.93,-223.66C526.39,-213.92 351.84,-192 267.66,-181.42"/>
<polygon fill="#63b8ff" stroke="#63b8ff" points="267.97,-177.94 257.62,-180.16 267.1,-184.88 267.97,-177.94"/>
</a>
</g>
</g>
<!-- Node18 -->
<g id="Node000018" class="node">
<title>Node18</title>
<g id="a_Node000018"><a xlink:href="errchk_8h.html" target="_top" xlink:title="Brief info.">
<polygon fill="white" stroke="#666666" points="705.5,-184 649.5,-184 649.5,-165 705.5,-165 705.5,-184"/>
<text text-anchor="middle" x="677.5" y="-172" font-family="Helvetica,sans-Serif" font-size="10.00">errchk.h</text>
</a>
</g>
</g>
<!-- Node2&#45;&gt;Node18 -->
<g id="edge22_Node000002_Node000018" class="edge">
<title>Node2&#45;&gt;Node18</title>
<g id="a_edge22_Node000002_Node000018"><a xlink:title=" ">
<path fill="none" stroke="#63b8ff" d="M648.28,-219.75C653.12,-212.42 660.18,-201.73 666.14,-192.7"/>
<polygon fill="#63b8ff" stroke="#63b8ff" points="669.24,-194.36 671.83,-184.09 663.4,-190.5 669.24,-194.36"/>
</a>
</g>
</g>
<!-- Node21 -->
<g id="Node000021" class="node">
<title>Node21</title>
<g id="a_Node000021"><a xlink:href="func__attributes_8h.html" target="_top" xlink:title=" ">
<polygon fill="white" stroke="#666666" points="1004,-129 905,-129 905,-110 1004,-110 1004,-129"/>
<text text-anchor="middle" x="954.5" y="-117" font-family="Helvetica,sans-Serif" font-size="10.00">func_attributes.h</text>
</a>
</g>
</g>
<!-- Node2&#45;&gt;Node21 -->
<g id="edge31_Node000002_Node000021" class="edge">
<title>Node2&#45;&gt;Node21</title>
<g id="a_edge31_Node000002_Node000021"><a xlink:title=" ">
<path fill="none" stroke="#63b8ff" d="M656.38,-219.77C681.3,-204.22 732.87,-172.62 752.5,-165 798.64,-147.09 853.65,-135.57 894.6,-128.75"/>
<polygon fill="#63b8ff" stroke="#63b8ff" points="895.38,-132.17 904.69,-127.11 894.26,-125.26 895.38,-132.17"/>
</a>
</g>
</g>
<!-- Node22 -->
<g id="Node000022" class="node">
<title>Node22</title>
<g id="a_Node000022"><a xlink:href="math__utils__base_8h.html" target="_top" xlink:title=" ">
<polygon fill="white" stroke="#666666" points="867.5,-184 761.5,-184 761.5,-165 867.5,-165 867.5,-184"/>
<text text-anchor="middle" x="814.5" y="-172" font-family="Helvetica,sans-Serif" font-size="10.00">math_utils_base.h</text>
</a>
</g>
</g>
<!-- Node2&#45;&gt;Node22 -->
<g id="edge32_Node000002_Node000022" class="edge">
<title>Node2&#45;&gt;Node22</title>
<g id="a_edge32_Node000002_Node000022"><a xlink:title=" ">
<path fill="none" stroke="#63b8ff" d="M670.13,-219.98C699.01,-211.09 744.51,-197.07 776.7,-187.15"/>
<polygon fill="#63b8ff" stroke="#63b8ff" points="778.12,-190.37 786.65,-184.08 776.06,-183.68 778.12,-190.37"/>
</a>
</g>
</g>
<!-- Node23 -->
<g id="Node000023" class="node">
<title>Node23</title>
<g id="a_Node000023"><a xlink:title=" ">
<polygon fill="#e0e0e0" stroke="#999999" points="1025,-184 886,-184 886,-165 1025,-165 1025,-184"/>
<text text-anchor="middle" x="955.5" y="-172" font-family="Helvetica,sans-Serif" font-size="10.00">generated_comp_funcs.h</text>
</a>
</g>
</g>
<!-- Node2&#45;&gt;Node23 -->
<g id="edge34_Node000002_Node000023" class="edge">
<title>Node2&#45;&gt;Node23</title>
<g id="a_edge34_Node000002_Node000023"><a xlink:title=" ">
<path fill="none" stroke="#63b8ff" d="M681.01,-221.65C684.22,-221.09 687.41,-220.53 690.5,-220 760.03,-208.01 839.91,-194.65 893.63,-185.73"/>
<polygon fill="#63b8ff" stroke="#63b8ff" points="894.39,-189.15 903.68,-184.06 893.24,-182.25 894.39,-189.15"/>
</a>
</g>
</g>
<!-- Node6&#45;&gt;Node3 -->
<g id="edge7_Node000006_Node000003" class="edge">
<title>Node6&#45;&gt;Node3</title>
<g id="a_edge7_Node000006_Node000003"><a xlink:title=" ">
<path fill="none" stroke="#63b8ff" d="M189.17,-164.98C154.14,-155.46 97.52,-140.08 60.91,-130.12"/>
<polygon fill="#63b8ff" stroke="#63b8ff" points="61.72,-126.72 51.15,-127.47 59.88,-133.47 61.72,-126.72"/>
</a>
</g>
</g>
<!-- Node7 -->
<g id="Node000007" class="node">
<title>Node7</title>
<g id="a_Node000007"><a xlink:title=" ">
<polygon fill="#e0e0e0" stroke="#999999" points="116,-129 69,-129 69,-110 116,-110 116,-129"/>
<text text-anchor="middle" x="92.5" y="-117" font-family="Helvetica,sans-Serif" font-size="10.00">float.h</text>
</a>
</g>
</g>
<!-- Node6&#45;&gt;Node7 -->
<g id="edge6_Node000006_Node000007" class="edge">
<title>Node6&#45;&gt;Node7</title>
<g id="a_edge6_Node000006_Node000007"><a xlink:title=" ">
<path fill="none" stroke="#63b8ff" d="M199.93,-164.98C179.07,-156.34 146.53,-142.87 122.73,-133.02"/>
<polygon fill="#63b8ff" stroke="#63b8ff" points="124.02,-129.76 113.44,-129.17 121.34,-136.23 124.02,-129.76"/>
</a>
</g>
</g>
<!-- Node8 -->
<g id="Node000008" class="node">
<title>Node8</title>
<g id="a_Node000008"><a xlink:href="acreal_8h.html" target="_top" xlink:title=" ">
<polygon fill="white" stroke="#666666" points="342.5,-74 286.5,-74 286.5,-55 342.5,-55 342.5,-74"/>
<text text-anchor="middle" x="314.5" y="-62" font-family="Helvetica,sans-Serif" font-size="10.00">acreal.h</text>
</a>
</g>
</g>
<!-- Node6&#45;&gt;Node8 -->
<g id="edge8_Node000006_Node000008" class="edge">
<title>Node6&#45;&gt;Node8</title>
<g id="a_edge8_Node000006_Node000008"><a xlink:title=" ">
<path fill="none" stroke="#63b8ff" d="M221.11,-164.79C222.44,-151.64 226.61,-126.51 239.5,-110 250.35,-96.1 266.86,-85.64 281.63,-78.36"/>
<polygon fill="#63b8ff" stroke="#63b8ff" points="283.39,-81.4 291,-74.03 280.45,-75.05 283.39,-81.4"/>
</a>
</g>
</g>
<!-- Node9 -->
<g id="Node000009" class="node">
<title>Node9</title>
<g id="a_Node000009"><a xlink:title=" ">
<polygon fill="#e0e0e0" stroke="#999999" points="268,-74 173,-74 173,-55 268,-55 268,-74"/>
<text text-anchor="middle" x="220.5" y="-62" font-family="Helvetica,sans-Serif" font-size="10.00">builtin_enums.h</text>
</a>
</g>
</g>
<!-- Node6&#45;&gt;Node9 -->
<g id="edge9_Node000006_Node000009" class="edge">
<title>Node6&#45;&gt;Node9</title>
<g id="a_edge9_Node000006_Node000009"><a xlink:title=" ">
<path fill="none" stroke="#63b8ff" d="M216.54,-164.94C211.41,-152.8 203.45,-129.86 206.5,-110 207.85,-101.19 210.63,-91.74 213.35,-83.82"/>
<polygon fill="#63b8ff" stroke="#63b8ff" points="216.73,-84.77 216.9,-74.18 210.16,-82.35 216.73,-84.77"/>
</a>
</g>
</g>
<!-- Node10 -->
<g id="Node000010" class="node">
<title>Node10</title>
<g id="a_Node000010"><a xlink:href="device__headers_8h.html" target="_top" xlink:title=" ">
<polygon fill="white" stroke="#666666" points="462.5,-74 360.5,-74 360.5,-55 462.5,-55 462.5,-74"/>
<text text-anchor="middle" x="411.5" y="-62" font-family="Helvetica,sans-Serif" font-size="10.00">device_headers.h</text>
</a>
</g>
</g>
<!-- Node6&#45;&gt;Node10 -->
<g id="edge10_Node000006_Node000010" class="edge">
<title>Node6&#45;&gt;Node10</title>
<g id="a_edge10_Node000006_Node000010"><a xlink:title=" ">
<path fill="none" stroke="#63b8ff" d="M257.68,-164.94C283.83,-157.86 318.92,-146.16 346.5,-129 366.91,-116.3 386.05,-96.22 398.2,-82.05"/>
<polygon fill="#63b8ff" stroke="#63b8ff" points="401.11,-84.03 404.82,-74.1 395.73,-79.55 401.11,-84.03"/>
</a>
</g>
</g>
<!-- Node11 -->
<g id="Node000011" class="node">
<title>Node11</title>
<g id="a_Node000011"><a xlink:title=" ">
<polygon fill="#e0e0e0" stroke="#999999" points="278,-19 165,-19 165,0 278,0 278,-19"/>
<text text-anchor="middle" x="221.5" y="-7" font-family="Helvetica,sans-Serif" font-size="10.00">cuda_runtime_api.h</text>
</a>
</g>
</g>
<!-- Node6&#45;&gt;Node11 -->
<g id="edge20_Node000006_Node000011" class="edge">
<title>Node6&#45;&gt;Node11</title>
<g id="a_edge20_Node000006_Node000011"><a xlink:title=" ">
<path fill="none" stroke="#63b8ff" d="M213.44,-164.88C200.48,-148.44 173.33,-110.94 163.5,-74 161.33,-65.84 159.76,-62.57 163.5,-55 169.99,-41.85 182.43,-31.5 194.14,-24.11"/>
<polygon fill="#63b8ff" stroke="#63b8ff" points="195.96,-27.1 202.83,-19.03 192.43,-21.05 195.96,-27.1"/>
</a>
</g>
</g>
<!-- Node13 -->
<g id="Node000013" class="node">
<title>Node13</title>
<g id="a_Node000013"><a xlink:href="host__datatypes_8h.html" target="_top" xlink:title=" ">
<polygon fill="white" stroke="#666666" points="496,-129 395,-129 395,-110 496,-110 496,-129"/>
<text text-anchor="middle" x="445.5" y="-117" font-family="Helvetica,sans-Serif" font-size="10.00">host_datatypes.h</text>
</a>
</g>
</g>
<!-- Node6&#45;&gt;Node13 -->
<g id="edge13_Node000006_Node000013" class="edge">
<title>Node6&#45;&gt;Node13</title>
<g id="a_edge13_Node000006_Node000013"><a xlink:title=" ">
<path fill="none" stroke="#63b8ff" d="M256.65,-164.98C295.41,-155.86 357.05,-141.33 399.3,-131.38"/>
<polygon fill="#63b8ff" stroke="#63b8ff" points="400.14,-134.78 409.07,-129.08 398.53,-127.97 400.14,-134.78"/>
</a>
</g>
</g>
<!-- Node17 -->
<g id="Node000017" class="node">
<title>Node17</title>
<g id="a_Node000017"><a xlink:title=" ">
<polygon fill="#e0e0e0" stroke="#999999" points="338,-129 249,-129 249,-110 338,-110 338,-129"/>
<text text-anchor="middle" x="293.5" y="-117" font-family="Helvetica,sans-Serif" font-size="10.00">vector_types.h</text>
</a>
</g>
</g>
<!-- Node6&#45;&gt;Node17 -->
<g id="edge21_Node000006_Node000017" class="edge">
<title>Node6&#45;&gt;Node17</title>
<g id="a_edge21_Node000006_Node000017"><a xlink:title=" ">
<path fill="none" stroke="#63b8ff" d="M232.23,-164.98C243.23,-157 259.92,-144.88 273.1,-135.31"/>
<polygon fill="#63b8ff" stroke="#63b8ff" points="275.52,-137.88 281.56,-129.17 271.41,-132.21 275.52,-137.88"/>
</a>
</g>
</g>
<!-- Node10&#45;&gt;Node11 -->
<g id="edge11_Node000010_Node000011" class="edge">
<title>Node10&#45;&gt;Node11</title>
<g id="a_edge11_Node000010_Node000011"><a xlink:title=" ">
<path fill="none" stroke="#63b8ff" d="M380.97,-54.98C348.8,-46.01 297.94,-31.82 262.33,-21.89"/>
<polygon fill="#63b8ff" stroke="#63b8ff" points="262.84,-18.4 252.27,-19.08 260.96,-25.14 262.84,-18.4"/>
</a>
</g>
</g>
<!-- Node12 -->
<g id="Node000012" class="node">
<title>Node12</title>
<g id="a_Node000012"><a xlink:title=" ">
<polygon fill="#e0e0e0" stroke="#999999" points="449.5,-19 373.5,-19 373.5,0 449.5,0 449.5,-19"/>
<text text-anchor="middle" x="411.5" y="-7" font-family="Helvetica,sans-Serif" font-size="10.00">cuda_fp16.h</text>
</a>
</g>
</g>
<!-- Node10&#45;&gt;Node12 -->
<g id="edge12_Node000010_Node000012" class="edge">
<title>Node10&#45;&gt;Node12</title>
<g id="a_edge12_Node000010_Node000012"><a xlink:title=" ">
<path fill="none" stroke="#63b8ff" d="M411.5,-54.75C411.5,-47.8 411.5,-37.85 411.5,-29.13"/>
<polygon fill="#63b8ff" stroke="#63b8ff" points="415,-29.09 411.5,-19.09 408,-29.09 415,-29.09"/>
</a>
</g>
</g>
<!-- Node13&#45;&gt;Node8 -->
<g id="edge16_Node000013_Node000008" class="edge">
<title>Node13&#45;&gt;Node8</title>
<g id="a_edge16_Node000013_Node000008"><a xlink:title=" ">
<path fill="none" stroke="#63b8ff" d="M424.45,-109.98C403.09,-101.34 369.8,-87.87 345.44,-78.02"/>
<polygon fill="#63b8ff" stroke="#63b8ff" points="346.51,-74.68 335.93,-74.17 343.89,-81.17 346.51,-74.68"/>
</a>
</g>
</g>
<!-- Node13&#45;&gt;Node9 -->
<g id="edge17_Node000013_Node000009" class="edge">
<title>Node13&#45;&gt;Node9</title>
<g id="a_edge17_Node000013_Node000009"><a xlink:title=" ">
<path fill="none" stroke="#63b8ff" d="M409.35,-109.98C370.59,-100.86 308.95,-86.33 266.7,-76.38"/>
<polygon fill="#63b8ff" stroke="#63b8ff" points="267.47,-72.97 256.93,-74.08 265.86,-79.78 267.47,-72.97"/>
</a>
</g>
</g>
<!-- Node13&#45;&gt;Node10 -->
<g id="edge18_Node000013_Node000010" class="edge">
<title>Node13&#45;&gt;Node10</title>
<g id="a_edge18_Node000013_Node000010"><a xlink:title=" ">
<path fill="none" stroke="#63b8ff" d="M439.89,-109.75C435.18,-102.42 428.33,-91.73 422.53,-82.7"/>
<polygon fill="#63b8ff" stroke="#63b8ff" points="425.36,-80.62 417.01,-74.09 419.46,-84.4 425.36,-80.62"/>
</a>
</g>
</g>
<!-- Node14 -->
<g id="Node000014" class="node">
<title>Node14</title>
<g id="a_Node000014"><a xlink:title=" ">
<polygon fill="#e0e0e0" stroke="#999999" points="743.5,-74 681.5,-74 681.5,-55 743.5,-55 743.5,-74"/>
<text text-anchor="middle" x="712.5" y="-62" font-family="Helvetica,sans-Serif" font-size="10.00">stdbool.h</text>
</a>
</g>
</g>
<!-- Node13&#45;&gt;Node14 -->
<g id="edge14_Node000013_Node000014" class="edge">
<title>Node13&#45;&gt;Node14</title>
<g id="a_edge14_Node000013_Node000014"><a xlink:title=" ">
<path fill="none" stroke="#63b8ff" d="M488.4,-109.98C538.77,-99.99 621.72,-83.52 671.33,-73.67"/>
<polygon fill="#63b8ff" stroke="#63b8ff" points="672.26,-77.06 681.39,-71.68 670.9,-70.19 672.26,-77.06"/>
</a>
</g>
</g>
<!-- Node15 -->
<g id="Node000015" class="node">
<title>Node15</title>
<g id="a_Node000015"><a xlink:title=" ">
<polygon fill="#e0e0e0" stroke="#999999" points="860.5,-74 804.5,-74 804.5,-55 860.5,-55 860.5,-74"/>
<text text-anchor="middle" x="832.5" y="-62" font-family="Helvetica,sans-Serif" font-size="10.00">stddef.h</text>
</a>
</g>
</g>
<!-- Node13&#45;&gt;Node15 -->
<g id="edge15_Node000013_Node000015" class="edge">
<title>Node13&#45;&gt;Node15</title>
<g id="a_edge15_Node000013_Node000015"><a xlink:title=" ">
<path fill="none" stroke="#63b8ff" d="M496.03,-111.19C498.89,-110.79 501.73,-110.39 504.5,-110 609.41,-95.33 733.3,-78.71 794.44,-70.56"/>
<polygon fill="#63b8ff" stroke="#63b8ff" points="794.96,-74.02 804.41,-69.23 794.03,-67.08 794.96,-74.02"/>
</a>
</g>
</g>
<!-- Node16 -->
<g id="Node000016" class="node">
<title>Node16</title>
<g id="a_Node000016"><a xlink:title=" ">
<polygon fill="#e0e0e0" stroke="#999999" points="576,-74 481,-74 481,-55 576,-55 576,-74"/>
<text text-anchor="middle" x="528.5" y="-62" font-family="Helvetica,sans-Serif" font-size="10.00">user_typedefs.h</text>
</a>
</g>
</g>
<!-- Node13&#45;&gt;Node16 -->
<g id="edge19_Node000013_Node000016" class="edge">
<title>Node13&#45;&gt;Node16</title>
<g id="a_edge19_Node000013_Node000016"><a xlink:title=" ">
<path fill="none" stroke="#63b8ff" d="M458.84,-109.98C471.59,-101.84 491.05,-89.41 506.17,-79.76"/>
<polygon fill="#63b8ff" stroke="#63b8ff" points="508.38,-82.5 514.92,-74.17 504.61,-76.6 508.38,-82.5"/>
</a>
</g>
</g>
<!-- Node18&#45;&gt;Node4 -->
<g id="edge25_Node000018_Node000004" class="edge">
<title>Node18&#45;&gt;Node4</title>
<g id="a_edge25_Node000018_Node000004"><a xlink:title=" ">
<path fill="none" stroke="#63b8ff" d="M655.49,-164.98C633.05,-156.3 598.02,-142.75 572.51,-132.88"/>
<polygon fill="#63b8ff" stroke="#63b8ff" points="573.5,-129.51 562.91,-129.17 570.98,-136.04 573.5,-129.51"/>
</a>
</g>
</g>
<!-- Node18&#45;&gt;Node5 -->
<g id="edge27_Node000018_Node000005" class="edge">
<title>Node18&#45;&gt;Node5</title>
<g id="a_edge27_Node000018_Node000005"><a xlink:title=" ">
<path fill="none" stroke="#63b8ff" d="M666.9,-164.98C657.04,-157.07 642.15,-145.11 630.28,-135.58"/>
<polygon fill="#63b8ff" stroke="#63b8ff" points="632.29,-132.7 622.3,-129.17 627.9,-138.16 632.29,-132.7"/>
</a>
</g>
</g>
<!-- Node18&#45;&gt;Node10 -->
<g id="edge29_Node000018_Node000010" class="edge">
<title>Node18&#45;&gt;Node10</title>
<g id="a_edge29_Node000018_Node000010"><a xlink:title=" ">
<path fill="none" stroke="#63b8ff" d="M705.61,-167.71C744.43,-158.5 806.97,-138.59 781.5,-110 737.27,-60.33 556.04,-80.97 472.69,-73.89"/>
<polygon fill="#63b8ff" stroke="#63b8ff" points="472.86,-70.39 462.55,-72.82 472.13,-77.35 472.86,-70.39"/>
</a>
</g>
</g>
<!-- Node18&#45;&gt;Node13 -->
<g id="edge30_Node000018_Node000013" class="edge">
<title>Node18&#45;&gt;Node13</title>
<g id="a_edge30_Node000018_Node000013"><a xlink:title=" ">
<path fill="none" stroke="#63b8ff" d="M649.05,-167C610.16,-158.12 539.88,-142.06 492.95,-131.34"/>
<polygon fill="#63b8ff" stroke="#63b8ff" points="493.54,-127.89 483.02,-129.07 491.99,-134.71 493.54,-127.89"/>
</a>
</g>
</g>
<!-- Node18&#45;&gt;Node14 -->
<g id="edge23_Node000018_Node000014" class="edge">
<title>Node18&#45;&gt;Node14</title>
<g id="a_edge23_Node000018_Node000014"><a xlink:title=" ">
<path fill="none" stroke="#63b8ff" d="M705.76,-166.22C743.92,-156.1 807.94,-138.03 814.5,-129 834,-102.16 789.9,-84.16 753.7,-74.38"/>
<polygon fill="#63b8ff" stroke="#63b8ff" points="754.31,-70.92 743.76,-71.83 752.58,-77.7 754.31,-70.92"/>
</a>
</g>
</g>
<!-- Node18&#45;&gt;Node15 -->
<g id="edge24_Node000018_Node000015" class="edge">
<title>Node18&#45;&gt;Node15</title>
<g id="a_edge24_Node000018_Node000015"><a xlink:title=" ">
<path fill="none" stroke="#63b8ff" d="M705.84,-167.15C747.89,-157.44 822.74,-139 830.5,-129 840.21,-116.48 839.65,-98.03 837.29,-84.23"/>
<polygon fill="#63b8ff" stroke="#63b8ff" points="840.7,-83.42 835.18,-74.37 833.86,-84.89 840.7,-83.42"/>
</a>
</g>
</g>
<!-- Node19 -->
<g id="Node000019" class="node">
<title>Node19</title>
<g id="a_Node000019"><a xlink:title=" ">
<polygon fill="#e0e0e0" stroke="#999999" points="706.5,-129 656.5,-129 656.5,-110 706.5,-110 706.5,-129"/>
<text text-anchor="middle" x="681.5" y="-117" font-family="Helvetica,sans-Serif" font-size="10.00">stdio.h</text>
</a>
</g>
</g>
<!-- Node18&#45;&gt;Node19 -->
<g id="edge26_Node000018_Node000019" class="edge">
<title>Node18&#45;&gt;Node19</title>
<g id="a_edge26_Node000018_Node000019"><a xlink:title=" ">
<path fill="none" stroke="#63b8ff" d="M678.16,-164.75C678.68,-157.8 679.44,-147.85 680.09,-139.13"/>
<polygon fill="#63b8ff" stroke="#63b8ff" points="683.59,-139.32 680.85,-129.09 676.61,-138.8 683.59,-139.32"/>
</a>
</g>
</g>
<!-- Node20 -->
<g id="Node000020" class="node">
<title>Node20</title>
<g id="a_Node000020"><a xlink:title=" ">
<polygon fill="#e0e0e0" stroke="#999999" points="772.5,-129 724.5,-129 724.5,-110 772.5,-110 772.5,-129"/>
<text text-anchor="middle" x="748.5" y="-117" font-family="Helvetica,sans-Serif" font-size="10.00">time.h</text>
</a>
</g>
</g>
<!-- Node18&#45;&gt;Node20 -->
<g id="edge28_Node000018_Node000020" class="edge">
<title>Node18&#45;&gt;Node20</title>
<g id="a_edge28_Node000018_Node000020"><a xlink:title=" ">
<path fill="none" stroke="#63b8ff" d="M688.91,-164.98C699.61,-157 715.84,-144.88 728.66,-135.31"/>
<polygon fill="#63b8ff" stroke="#63b8ff" points="730.97,-137.96 736.89,-129.17 726.78,-132.35 730.97,-137.96"/>
</a>
</g>
</g>
<!-- Node22&#45;&gt;Node21 -->
<g id="edge33_Node000022_Node000021" class="edge">
<title>Node22&#45;&gt;Node21</title>
<g id="a_edge33_Node000022_Node000021"><a xlink:title=" ">
<path fill="none" stroke="#63b8ff" d="M836.99,-164.98C860.02,-156.27 896.04,-142.63 922.13,-132.75"/>
<polygon fill="#63b8ff" stroke="#63b8ff" points="923.48,-135.98 931.6,-129.17 921.01,-129.44 923.48,-135.98"/>
</a>
</g>
</g>
</g>
</svg>
