<?xml version="1.0" encoding="UTF-8" standalone="no"?>
<!DOCTYPE svg PUBLIC "-//W3C//DTD SVG 1.1//EN"
 "http://www.w3.org/Graphics/SVG/1.1/DTD/svg11.dtd">
<!-- Generated by graphviz version 2.43.0 (0)
 -->
<!-- Title: stdlib/geometric_multigrid.h Pages: 1 -->
<svg width="1286pt" height="247pt"
 viewBox="0.00 0.00 1286.00 247.00" xmlns="http://www.w3.org/2000/svg" xmlns:xlink="http://www.w3.org/1999/xlink">
<g id="graph0" class="graph" transform="scale(1 1) rotate(0) translate(4 243)">
<title>stdlib/geometric_multigrid.h</title>
<!-- Node1 -->
<g id="Node000001" class="node">
<title>Node1</title>
<g id="a_Node000001"><a xlink:title=" ">
<polygon fill="#999999" stroke="#666666" points="1029,-239 874,-239 874,-220 1029,-220 1029,-239"/>
<text text-anchor="middle" x="951.5" y="-227" font-family="Helvetica,sans-Serif" font-size="10.00">stdlib/geometric_multigrid.h</text>
</a>
</g>
</g>
<!-- Node2 -->
<g id="Node000002" class="node">
<title>Node2</title>
<g id="a_Node000002"><a xlink:href="math__utils_8h.html" target="_top" xlink:title="Brief info.">
<polygon fill="white" stroke="#666666" points="939,-184 862,-184 862,-165 939,-165 939,-184"/>
<text text-anchor="middle" x="900.5" y="-172" font-family="Helvetica,sans-Serif" font-size="10.00">math_utils.h</text>
</a>
</g>
</g>
<!-- Node1&#45;&gt;Node2 -->
<g id="edge1_Node000001_Node000002" class="edge">
<title>Node1&#45;&gt;Node2</title>
<g id="a_edge1_Node000001_Node000002"><a xlink:title=" ">
<path fill="none" stroke="#63b8ff" d="M943.08,-219.75C935.73,-212.11 924.87,-200.82 915.96,-191.56"/>
<polygon fill="#63b8ff" stroke="#63b8ff" points="918.22,-188.87 908.76,-184.09 913.18,-193.72 918.22,-188.87"/>
</a>
</g>
</g>
<!-- Node24 -->
<g id="Node000024" class="node">
<title>Node24</title>
<g id="a_Node000024"><a xlink:href="astaroth__grid_8h.html" target="_top" xlink:title=" ">
<polygon fill="white" stroke="#666666" points="1047.5,-184 957.5,-184 957.5,-165 1047.5,-165 1047.5,-184"/>
<text text-anchor="middle" x="1002.5" y="-172" font-family="Helvetica,sans-Serif" font-size="10.00">astaroth_grid.h</text>
</a>
</g>
</g>
<!-- Node1&#45;&gt;Node24 -->
<g id="edge32_Node000001_Node000024" class="edge">
<title>Node1&#45;&gt;Node24</title>
<g id="a_edge32_Node000001_Node000024"><a xlink:title=" ">
<path fill="none" stroke="#63b8ff" d="M959.92,-219.75C967.27,-212.11 978.13,-200.82 987.04,-191.56"/>
<polygon fill="#63b8ff" stroke="#63b8ff" points="989.82,-193.72 994.24,-184.09 984.78,-188.87 989.82,-193.72"/>
</a>
</g>
</g>
<!-- Node3 -->
<g id="Node000003" class="node">
<title>Node3</title>
<g id="a_Node000003"><a xlink:title=" ">
<polygon fill="#e0e0e0" stroke="#999999" points="837,-74 784,-74 784,-55 837,-55 837,-74"/>
<text text-anchor="middle" x="810.5" y="-62" font-family="Helvetica,sans-Serif" font-size="10.00">stdint.h</text>
</a>
</g>
</g>
<!-- Node2&#45;&gt;Node3 -->
<g id="edge2_Node000002_Node000003" class="edge">
<title>Node2&#45;&gt;Node3</title>
<g id="a_edge2_Node000002_Node000003"><a xlink:title=" ">
<path fill="none" stroke="#63b8ff" d="M893.13,-164.66C878.1,-146.61 843.65,-105.28 824.31,-82.08"/>
<polygon fill="#63b8ff" stroke="#63b8ff" points="826.81,-79.6 817.72,-74.16 821.43,-84.08 826.81,-79.6"/>
</a>
</g>
</g>
<!-- Node4 -->
<g id="Node000004" class="node">
<title>Node4</title>
<g id="a_Node000004"><a xlink:title=" ">
<polygon fill="#e0e0e0" stroke="#999999" points="908,-74 855,-74 855,-55 908,-55 908,-74"/>
<text text-anchor="middle" x="881.5" y="-62" font-family="Helvetica,sans-Serif" font-size="10.00">stdlib.h</text>
</a>
</g>
</g>
<!-- Node2&#45;&gt;Node4 -->
<g id="edge3_Node000002_Node000004" class="edge">
<title>Node2&#45;&gt;Node4</title>
<g id="a_edge3_Node000002_Node000004"><a xlink:title=" ">
<path fill="none" stroke="#63b8ff" d="M898.66,-164.99C896.76,-156.05 893.76,-141.57 891.5,-129 888.81,-114.03 886.15,-97 884.25,-84.35"/>
<polygon fill="#63b8ff" stroke="#63b8ff" points="887.67,-83.53 882.74,-74.15 880.74,-84.55 887.67,-83.53"/>
</a>
</g>
</g>
<!-- Node5 -->
<g id="Node000005" class="node">
<title>Node5</title>
<g id="a_Node000005"><a xlink:title=" ">
<polygon fill="#e0e0e0" stroke="#999999" points="51,-74 0,-74 0,-55 51,-55 51,-74"/>
<text text-anchor="middle" x="25.5" y="-62" font-family="Helvetica,sans-Serif" font-size="10.00">math.h</text>
</a>
</g>
</g>
<!-- Node2&#45;&gt;Node5 -->
<g id="edge4_Node000002_Node000005" class="edge">
<title>Node2&#45;&gt;Node5</title>
<g id="a_edge4_Node000002_Node000005"><a xlink:title=" ">
<path fill="none" stroke="#63b8ff" d="M861.83,-172.05C770.42,-168.28 534.04,-156.47 338.5,-129 236.98,-114.74 118.83,-87.95 61.03,-74.17"/>
<polygon fill="#63b8ff" stroke="#63b8ff" points="61.83,-70.77 51.29,-71.84 60.19,-77.57 61.83,-70.77"/>
</a>
</g>
</g>
<!-- Node6 -->
<g id="Node000006" class="node">
<title>Node6</title>
<g id="a_Node000006"><a xlink:href="datatypes_8h.html" target="_top" xlink:title=" ">
<polygon fill="white" stroke="#666666" points="421.5,-129 347.5,-129 347.5,-110 421.5,-110 421.5,-129"/>
<text text-anchor="middle" x="384.5" y="-117" font-family="Helvetica,sans-Serif" font-size="10.00">datatypes.h</text>
</a>
</g>
</g>
<!-- Node2&#45;&gt;Node6 -->
<g id="edge5_Node000002_Node000006" class="edge">
<title>Node2&#45;&gt;Node6</title>
<g id="a_edge5_Node000002_Node000006"><a xlink:title=" ">
<path fill="none" stroke="#63b8ff" d="M861.72,-169.52C768.68,-159.96 533.06,-135.76 431.86,-125.36"/>
<polygon fill="#63b8ff" stroke="#63b8ff" points="431.94,-121.85 421.64,-124.31 431.23,-128.82 431.94,-121.85"/>
</a>
</g>
</g>
<!-- Node17 -->
<g id="Node000017" class="node">
<title>Node17</title>
<g id="a_Node000017"><a xlink:href="errchk_8h.html" target="_top" xlink:title="Brief info.">
<polygon fill="white" stroke="#666666" points="956.5,-129 900.5,-129 900.5,-110 956.5,-110 956.5,-129"/>
<text text-anchor="middle" x="928.5" y="-117" font-family="Helvetica,sans-Serif" font-size="10.00">errchk.h</text>
</a>
</g>
</g>
<!-- Node2&#45;&gt;Node17 -->
<g id="edge19_Node000002_Node000017" class="edge">
<title>Node2&#45;&gt;Node17</title>
<g id="a_edge19_Node000002_Node000017"><a xlink:title=" ">
<path fill="none" stroke="#63b8ff" d="M905.12,-164.75C908.96,-157.49 914.52,-146.95 919.26,-137.98"/>
<polygon fill="#63b8ff" stroke="#63b8ff" points="922.39,-139.57 923.96,-129.09 916.2,-136.3 922.39,-139.57"/>
</a>
</g>
</g>
<!-- Node21 -->
<g id="Node000021" class="node">
<title>Node21</title>
<g id="a_Node000021"><a xlink:href="func__attributes_8h.html" target="_top" xlink:title=" ">
<polygon fill="white" stroke="#666666" points="1278,-74 1179,-74 1179,-55 1278,-55 1278,-74"/>
<text text-anchor="middle" x="1228.5" y="-62" font-family="Helvetica,sans-Serif" font-size="10.00">func_attributes.h</text>
</a>
</g>
</g>
<!-- Node2&#45;&gt;Node21 -->
<g id="edge28_Node000002_Node000021" class="edge">
<title>Node2&#45;&gt;Node21</title>
<g id="a_edge28_Node000002_Node000021"><a xlink:title=" ">
<path fill="none" stroke="#63b8ff" d="M913.07,-164.96C936.18,-149.4 984.73,-117.37 1003.5,-110 1032.9,-98.47 1112.25,-84.14 1168.37,-74.91"/>
<polygon fill="#63b8ff" stroke="#63b8ff" points="1169.25,-78.31 1178.56,-73.25 1168.12,-71.4 1169.25,-78.31"/>
</a>
</g>
</g>
<!-- Node22 -->
<g id="Node000022" class="node">
<title>Node22</title>
<g id="a_Node000022"><a xlink:href="math__utils__base_8h.html" target="_top" xlink:title=" ">
<polygon fill="white" stroke="#666666" points="1118.5,-129 1012.5,-129 1012.5,-110 1118.5,-110 1118.5,-129"/>
<text text-anchor="middle" x="1065.5" y="-117" font-family="Helvetica,sans-Serif" font-size="10.00">math_utils_base.h</text>
</a>
</g>
</g>
<!-- Node2&#45;&gt;Node22 -->
<g id="edge29_Node000002_Node000022" class="edge">
<title>Node2&#45;&gt;Node22</title>
<g id="a_edge29_Node000002_Node000022"><a xlink:title=" ">
<path fill="none" stroke="#63b8ff" d="M927.01,-164.98C954.71,-156.09 998.36,-142.07 1029.24,-132.15"/>
<polygon fill="#63b8ff" stroke="#63b8ff" points="1030.33,-135.47 1038.78,-129.08 1028.19,-128.81 1030.33,-135.47"/>
</a>
</g>
</g>
<!-- Node23 -->
<g id="Node000023" class="node">
<title>Node23</title>
<g id="a_Node000023"><a xlink:title=" ">
<polygon fill="#e0e0e0" stroke="#999999" points="1276,-129 1137,-129 1137,-110 1276,-110 1276,-129"/>
<text text-anchor="middle" x="1206.5" y="-117" font-family="Helvetica,sans-Serif" font-size="10.00">generated_comp_funcs.h</text>
</a>
</g>
</g>
<!-- Node2&#45;&gt;Node23 -->
<g id="edge31_Node000002_Node000023" class="edge">
<title>Node2&#45;&gt;Node23</title>
<g id="a_edge31_Node000002_Node000023"><a xlink:title=" ">
<path fill="none" stroke="#63b8ff" d="M939.01,-166.66C942.22,-166.1 945.42,-165.54 948.5,-165 1016.29,-153.15 1094.14,-139.75 1146.44,-130.78"/>
<polygon fill="#63b8ff" stroke="#63b8ff" points="1147.28,-134.19 1156.55,-129.05 1146.1,-127.29 1147.28,-134.19"/>
</a>
</g>
</g>
<!-- Node6&#45;&gt;Node5 -->
<g id="edge7_Node000006_Node000005" class="edge">
<title>Node6&#45;&gt;Node5</title>
<g id="a_edge7_Node000006_Node000005"><a xlink:title=" ">
<path fill="none" stroke="#63b8ff" d="M347.04,-114.15C287.3,-107.01 166.84,-91.81 65.5,-74 64.06,-73.75 62.59,-73.48 61.11,-73.2"/>
<polygon fill="#63b8ff" stroke="#63b8ff" points="61.76,-69.76 51.27,-71.26 60.4,-76.63 61.76,-69.76"/>
</a>
</g>
</g>
<!-- Node7 -->
<g id="Node000007" class="node">
<title>Node7</title>
<g id="a_Node000007"><a xlink:title=" ">
<polygon fill="#e0e0e0" stroke="#999999" points="155,-74 108,-74 108,-55 155,-55 155,-74"/>
<text text-anchor="middle" x="131.5" y="-62" font-family="Helvetica,sans-Serif" font-size="10.00">float.h</text>
</a>
</g>
</g>
<!-- Node6&#45;&gt;Node7 -->
<g id="edge6_Node000006_Node000007" class="edge">
<title>Node6&#45;&gt;Node7</title>
<g id="a_edge6_Node000006_Node000007"><a xlink:title=" ">
<path fill="none" stroke="#63b8ff" d="M347.2,-111.71C305.13,-103.89 234.44,-90.27 165.01,-74.25"/>
<polygon fill="#63b8ff" stroke="#63b8ff" points="165.76,-70.83 155.23,-71.97 164.17,-77.65 165.76,-70.83"/>
</a>
</g>
</g>
<!-- Node8 -->
<g id="Node000008" class="node">
<title>Node8</title>
<g id="a_Node000008"><a xlink:href="device__headers_8h.html" target="_top" xlink:title=" ">
<polygon fill="white" stroke="#666666" points="608.5,-74 506.5,-74 506.5,-55 608.5,-55 608.5,-74"/>
<text text-anchor="middle" x="557.5" y="-62" font-family="Helvetica,sans-Serif" font-size="10.00">device_headers.h</text>
</a>
</g>
</g>
<!-- Node6&#45;&gt;Node8 -->
<g id="edge8_Node000006_Node000008" class="edge">
<title>Node6&#45;&gt;Node8</title>
<g id="a_edge8_Node000006_Node000008"><a xlink:title=" ">
<path fill="none" stroke="#63b8ff" d="M412.3,-109.98C441.47,-101.05 487.5,-86.94 519.9,-77.02"/>
<polygon fill="#63b8ff" stroke="#63b8ff" points="520.95,-80.36 529.49,-74.08 518.9,-73.66 520.95,-80.36"/>
</a>
</g>
</g>
<!-- Node9 -->
<g id="Node000009" class="node">
<title>Node9</title>
<g id="a_Node000009"><a xlink:title=" ">
<polygon fill="#e0e0e0" stroke="#999999" points="319,-19 206,-19 206,0 319,0 319,-19"/>
<text text-anchor="middle" x="262.5" y="-7" font-family="Helvetica,sans-Serif" font-size="10.00">cuda_runtime_api.h</text>
</a>
</g>
</g>
<!-- Node6&#45;&gt;Node9 -->
<g id="edge12_Node000006_Node000009" class="edge">
<title>Node6&#45;&gt;Node9</title>
<g id="a_edge12_Node000006_Node000009"><a xlink:title=" ">
<path fill="none" stroke="#63b8ff" d="M347.34,-118.44C277.34,-117.45 130.12,-110.93 98.5,-74 66.96,-37.17 137.67,-21.6 195.9,-15.08"/>
<polygon fill="#63b8ff" stroke="#63b8ff" points="196.28,-18.56 205.86,-14.04 195.55,-11.6 196.28,-18.56"/>
</a>
</g>
</g>
<!-- Node11 -->
<g id="Node000011" class="node">
<title>Node11</title>
<g id="a_Node000011"><a xlink:title=" ">
<polygon fill="#e0e0e0" stroke="#999999" points="262,-74 173,-74 173,-55 262,-55 262,-74"/>
<text text-anchor="middle" x="217.5" y="-62" font-family="Helvetica,sans-Serif" font-size="10.00">vector_types.h</text>
</a>
</g>
</g>
<!-- Node6&#45;&gt;Node11 -->
<g id="edge11_Node000006_Node000011" class="edge">
<title>Node6&#45;&gt;Node11</title>
<g id="a_edge11_Node000006_Node000011"><a xlink:title=" ">
<path fill="none" stroke="#63b8ff" d="M357.67,-109.98C329.63,-101.09 285.45,-87.07 254.2,-77.15"/>
<polygon fill="#63b8ff" stroke="#63b8ff" points="255.13,-73.77 244.54,-74.08 253.01,-80.44 255.13,-73.77"/>
</a>
</g>
</g>
<!-- Node12 -->
<g id="Node000012" class="node">
<title>Node12</title>
<g id="a_Node000012"><a xlink:href="acreal_8h.html" target="_top" xlink:title=" ">
<polygon fill="white" stroke="#666666" points="706.5,-19 650.5,-19 650.5,0 706.5,0 706.5,-19"/>
<text text-anchor="middle" x="678.5" y="-7" font-family="Helvetica,sans-Serif" font-size="10.00">acreal.h</text>
</a>
</g>
</g>
<!-- Node6&#45;&gt;Node12 -->
<g id="edge13_Node000006_Node000012" class="edge">
<title>Node6&#45;&gt;Node12</title>
<g id="a_edge13_Node000006_Node000012"><a xlink:title=" ">
<path fill="none" stroke="#63b8ff" d="M421.52,-118.25C469.51,-116.45 554.52,-108.17 617.5,-74 638.2,-62.77 656.07,-42.07 667.03,-27.35"/>
<polygon fill="#63b8ff" stroke="#63b8ff" points="669.95,-29.28 672.92,-19.11 664.26,-25.21 669.95,-29.28"/>
</a>
</g>
</g>
<!-- Node13 -->
<g id="Node000013" class="node">
<title>Node13</title>
<g id="a_Node000013"><a xlink:title=" ">
<polygon fill="#e0e0e0" stroke="#999999" points="375,-74 280,-74 280,-55 375,-55 375,-74"/>
<text text-anchor="middle" x="327.5" y="-62" font-family="Helvetica,sans-Serif" font-size="10.00">builtin_enums.h</text>
</a>
</g>
</g>
<!-- Node6&#45;&gt;Node13 -->
<g id="edge14_Node000006_Node000013" class="edge">
<title>Node6&#45;&gt;Node13</title>
<g id="a_edge14_Node000006_Node000013"><a xlink:title=" ">
<path fill="none" stroke="#63b8ff" d="M375.34,-109.98C367,-102.23 354.47,-90.58 344.32,-81.14"/>
<polygon fill="#63b8ff" stroke="#63b8ff" points="346.53,-78.42 336.82,-74.17 341.76,-83.54 346.53,-78.42"/>
</a>
</g>
</g>
<!-- Node14 -->
<g id="Node000014" class="node">
<title>Node14</title>
<g id="a_Node000014"><a xlink:title=" ">
<polygon fill="#e0e0e0" stroke="#999999" points="488,-74 393,-74 393,-55 488,-55 488,-74"/>
<text text-anchor="middle" x="440.5" y="-62" font-family="Helvetica,sans-Serif" font-size="10.00">user_typedefs.h</text>
</a>
</g>
</g>
<!-- Node6&#45;&gt;Node14 -->
<g id="edge15_Node000006_Node000014" class="edge">
<title>Node6&#45;&gt;Node14</title>
<g id="a_edge15_Node000006_Node000014"><a xlink:title=" ">
<path fill="none" stroke="#63b8ff" d="M393.5,-109.98C401.69,-102.23 414.01,-90.58 423.97,-81.14"/>
<polygon fill="#63b8ff" stroke="#63b8ff" points="426.48,-83.59 431.34,-74.17 421.67,-78.5 426.48,-83.59"/>
</a>
</g>
</g>
<!-- Node15 -->
<g id="Node000015" class="node">
<title>Node15</title>
<g id="a_Node000015"><a xlink:href="host__datatypes_8h.html" target="_top" xlink:title=" ">
<polygon fill="white" stroke="#666666" points="766,-74 665,-74 665,-55 766,-55 766,-74"/>
<text text-anchor="middle" x="715.5" y="-62" font-family="Helvetica,sans-Serif" font-size="10.00">host_datatypes.h</text>
</a>
</g>
</g>
<!-- Node6&#45;&gt;Node15 -->
<g id="edge16_Node000006_Node000015" class="edge">
<title>Node6&#45;&gt;Node15</title>
<g id="a_edge16_Node000006_Node000015"><a xlink:title=" ">
<path fill="none" stroke="#63b8ff" d="M421.51,-112.57C478.07,-103.52 586.63,-86.14 654.82,-75.22"/>
<polygon fill="#63b8ff" stroke="#63b8ff" points="655.67,-78.62 665,-73.59 654.57,-71.71 655.67,-78.62"/>
</a>
</g>
</g>
<!-- Node8&#45;&gt;Node9 -->
<g id="edge9_Node000008_Node000009" class="edge">
<title>Node8&#45;&gt;Node9</title>
<g id="a_edge9_Node000008_Node000009"><a xlink:title=" ">
<path fill="none" stroke="#63b8ff" d="M510.1,-54.98C458.43,-45.7 375.73,-30.84 320.29,-20.88"/>
<polygon fill="#63b8ff" stroke="#63b8ff" points="320.73,-17.41 310.27,-19.08 319.49,-24.3 320.73,-17.41"/>
</a>
</g>
</g>
<!-- Node10 -->
<g id="Node000010" class="node">
<title>Node10</title>
<g id="a_Node000010"><a xlink:title=" ">
<polygon fill="#e0e0e0" stroke="#999999" points="595.5,-19 519.5,-19 519.5,0 595.5,0 595.5,-19"/>
<text text-anchor="middle" x="557.5" y="-7" font-family="Helvetica,sans-Serif" font-size="10.00">cuda_fp16.h</text>
</a>
</g>
</g>
<!-- Node8&#45;&gt;Node10 -->
<g id="edge10_Node000008_Node000010" class="edge">
<title>Node8&#45;&gt;Node10</title>
<g id="a_edge10_Node000008_Node000010"><a xlink:title=" ">
<path fill="none" stroke="#63b8ff" d="M557.5,-54.75C557.5,-47.8 557.5,-37.85 557.5,-29.13"/>
<polygon fill="#63b8ff" stroke="#63b8ff" points="561,-29.09 557.5,-19.09 554,-29.09 561,-29.09"/>
</a>
</g>
</g>
<!-- Node15&#45;&gt;Node12 -->
<g id="edge17_Node000015_Node000012" class="edge">
<title>Node15&#45;&gt;Node12</title>
<g id="a_edge17_Node000015_Node000012"><a xlink:title=" ">
<path fill="none" stroke="#63b8ff" d="M709.39,-54.75C704.22,-47.34 696.65,-36.5 690.31,-27.41"/>
<polygon fill="#63b8ff" stroke="#63b8ff" points="693.09,-25.29 684.5,-19.09 687.35,-29.29 693.09,-25.29"/>
</a>
</g>
</g>
<!-- Node16 -->
<g id="Node000016" class="node">
<title>Node16</title>
<g id="a_Node000016"><a xlink:title=" ">
<polygon fill="#e0e0e0" stroke="#999999" points="872.5,-19 816.5,-19 816.5,0 872.5,0 872.5,-19"/>
<text text-anchor="middle" x="844.5" y="-7" font-family="Helvetica,sans-Serif" font-size="10.00">stddef.h</text>
</a>
</g>
</g>
<!-- Node15&#45;&gt;Node16 -->
<g id="edge18_Node000015_Node000016" class="edge">
<title>Node15&#45;&gt;Node16</title>
<g id="a_edge18_Node000015_Node000016"><a xlink:title=" ">
<path fill="none" stroke="#63b8ff" d="M736.23,-54.98C757.26,-46.34 790.05,-32.87 814.04,-23.02"/>
<polygon fill="#63b8ff" stroke="#63b8ff" points="815.48,-26.21 823.4,-19.17 812.82,-19.73 815.48,-26.21"/>
</a>
</g>
</g>
<!-- Node17&#45;&gt;Node3 -->
<g id="edge23_Node000017_Node000003" class="edge">
<title>Node17&#45;&gt;Node3</title>
<g id="a_edge23_Node000017_Node000003"><a xlink:title=" ">
<path fill="none" stroke="#63b8ff" d="M909.54,-109.98C890.47,-101.42 860.84,-88.11 838.95,-78.28"/>
<polygon fill="#63b8ff" stroke="#63b8ff" points="840.36,-75.07 829.8,-74.17 837.49,-81.46 840.36,-75.07"/>
</a>
</g>
</g>
<!-- Node17&#45;&gt;Node4 -->
<g id="edge25_Node000017_Node000004" class="edge">
<title>Node17&#45;&gt;Node4</title>
<g id="a_edge25_Node000017_Node000004"><a xlink:title=" ">
<path fill="none" stroke="#63b8ff" d="M920.74,-109.75C914.03,-102.18 904.16,-91.05 895.99,-81.84"/>
<polygon fill="#63b8ff" stroke="#63b8ff" points="898.37,-79.25 889.12,-74.09 893.13,-83.89 898.37,-79.25"/>
</a>
</g>
</g>
<!-- Node17&#45;&gt;Node8 -->
<g id="edge27_Node000017_Node000008" class="edge">
<title>Node17&#45;&gt;Node8</title>
<g id="a_edge27_Node000017_Node000008"><a xlink:title=" ">
<path fill="none" stroke="#63b8ff" d="M900.31,-114.47C840.55,-105.94 699.98,-85.85 618.61,-74.23"/>
<polygon fill="#63b8ff" stroke="#63b8ff" points="618.9,-70.74 608.51,-72.79 617.91,-77.67 618.9,-70.74"/>
</a>
</g>
</g>
<!-- Node17&#45;&gt;Node15 -->
<g id="edge21_Node000017_Node000015" class="edge">
<title>Node17&#45;&gt;Node15</title>
<g id="a_edge21_Node000017_Node000015"><a xlink:title=" ">
<path fill="none" stroke="#63b8ff" d="M900.22,-111.46C864.28,-102.52 801.87,-86.99 759.64,-76.48"/>
<polygon fill="#63b8ff" stroke="#63b8ff" points="760.45,-73.08 749.9,-74.06 758.76,-79.87 760.45,-73.08"/>
</a>
</g>
</g>
<!-- Node17&#45;&gt;Node16 -->
<g id="edge20_Node000017_Node000016" class="edge">
<title>Node17&#45;&gt;Node16</title>
<g id="a_edge20_Node000017_Node000016"><a xlink:title=" ">
<path fill="none" stroke="#63b8ff" d="M928.97,-109.87C929.25,-96.82 928.06,-71.83 916.5,-55 906.88,-40.99 891.25,-30.56 877.01,-23.33"/>
<polygon fill="#63b8ff" stroke="#63b8ff" points="878.47,-20.14 867.93,-19.03 875.48,-26.47 878.47,-20.14"/>
</a>
</g>
</g>
<!-- Node18 -->
<g id="Node000018" class="node">
<title>Node18</title>
<g id="a_Node000018"><a xlink:title=" ">
<polygon fill="#e0e0e0" stroke="#999999" points="1026.5,-74 964.5,-74 964.5,-55 1026.5,-55 1026.5,-74"/>
<text text-anchor="middle" x="995.5" y="-62" font-family="Helvetica,sans-Serif" font-size="10.00">stdbool.h</text>
</a>
</g>
</g>
<!-- Node17&#45;&gt;Node18 -->
<g id="edge22_Node000017_Node000018" class="edge">
<title>Node17&#45;&gt;Node18</title>
<g id="a_edge22_Node000017_Node000018"><a xlink:title=" ">
<path fill="none" stroke="#63b8ff" d="M939.26,-109.98C949.27,-102.07 964.39,-90.11 976.43,-80.58"/>
<polygon fill="#63b8ff" stroke="#63b8ff" points="978.87,-83.12 984.54,-74.17 974.53,-77.63 978.87,-83.12"/>
</a>
</g>
</g>
<!-- Node19 -->
<g id="Node000019" class="node">
<title>Node19</title>
<g id="a_Node000019"><a xlink:title=" ">
<polygon fill="#e0e0e0" stroke="#999999" points="1094.5,-74 1044.5,-74 1044.5,-55 1094.5,-55 1094.5,-74"/>
<text text-anchor="middle" x="1069.5" y="-62" font-family="Helvetica,sans-Serif" font-size="10.00">stdio.h</text>
</a>
</g>
</g>
<!-- Node17&#45;&gt;Node19 -->
<g id="edge24_Node000017_Node000019" class="edge">
<title>Node17&#45;&gt;Node19</title>
<g id="a_edge24_Node000017_Node000019"><a xlink:title=" ">
<path fill="none" stroke="#63b8ff" d="M951.15,-109.98C974.35,-101.27 1010.62,-87.63 1036.9,-77.75"/>
<polygon fill="#63b8ff" stroke="#63b8ff" points="1038.3,-80.97 1046.43,-74.17 1035.84,-74.41 1038.3,-80.97"/>
</a>
</g>
</g>
<!-- Node20 -->
<g id="Node000020" class="node">
<title>Node20</title>
<g id="a_Node000020"><a xlink:title=" ">
<polygon fill="#e0e0e0" stroke="#999999" points="1160.5,-74 1112.5,-74 1112.5,-55 1160.5,-55 1160.5,-74"/>
<text text-anchor="middle" x="1136.5" y="-62" font-family="Helvetica,sans-Serif" font-size="10.00">time.h</text>
</a>
</g>
</g>
<!-- Node17&#45;&gt;Node20 -->
<g id="edge26_Node000017_Node000020" class="edge">
<title>Node17&#45;&gt;Node20</title>
<g id="a_edge26_Node000017_Node000020"><a xlink:title=" ">
<path fill="none" stroke="#63b8ff" d="M956.69,-111.36C989.39,-103.07 1045.19,-88.91 1102.41,-74.27"/>
<polygon fill="#63b8ff" stroke="#63b8ff" points="1103.53,-77.6 1112.35,-71.73 1101.8,-70.82 1103.53,-77.6"/>
</a>
</g>
</g>
<!-- Node22&#45;&gt;Node21 -->
<g id="edge30_Node000022_Node000021" class="edge">
<title>Node22&#45;&gt;Node21</title>
<g id="a_edge30_Node000022_Node000021"><a xlink:title=" ">
<path fill="none" stroke="#63b8ff" d="M1091.69,-109.98C1118.94,-101.13 1161.8,-87.19 1192.28,-77.28"/>
<polygon fill="#63b8ff" stroke="#63b8ff" points="1193.68,-80.5 1202.11,-74.08 1191.51,-73.85 1193.68,-80.5"/>
</a>
</g>
</g>
</g>
</svg>
