<?xml version="1.0" encoding="UTF-8" standalone="no"?>
<!DOCTYPE svg PUBLIC "-//W3C//DTD SVG 1.1//EN"
 "http://www.w3.org/Graphics/SVG/1.1/DTD/svg11.dtd">
<!-- Generated by graphviz version 2.43.0 (0)
 -->
<!-- Title: acc&#45;runtime/acc/stencilgen.c Pages: 1 -->
<svg width="1855pt" height="93pt"
 viewBox="0.00 0.00 1854.50 93.00" xmlns="http://www.w3.org/2000/svg" xmlns:xlink="http://www.w3.org/1999/xlink">
<g id="graph0" class="graph" transform="scale(1 1) rotate(0) translate(4 89)">
<title>acc&#45;runtime/acc/stencilgen.c</title>
<!-- Node1 -->
<g id="Node000001" class="node">
<title>Node1</title>
<g id="a_Node000001"><a xlink:title=" ">
<polygon fill="#999999" stroke="#666666" points="877,-85 721,-85 721,-66 877,-66 877,-85"/>
<text text-anchor="middle" x="799" y="-73" font-family="Helvetica,sans-Serif" font-size="10.00">acc&#45;runtime/acc/stencilgen.c</text>
</a>
</g>
</g>
<!-- Node2 -->
<g id="Node000002" class="node">
<title>Node2</title>
<g id="a_Node000002"><a xlink:title=" ">
<polygon fill="#e0e0e0" stroke="#999999" points="62,-24.5 0,-24.5 0,-5.5 62,-5.5 62,-24.5"/>
<text text-anchor="middle" x="31" y="-12.5" font-family="Helvetica,sans-Serif" font-size="10.00">stdbool.h</text>
</a>
</g>
</g>
<!-- Node1&#45;&gt;Node2 -->
<g id="edge1_Node000001_Node000002" class="edge">
<title>Node1&#45;&gt;Node2</title>
<g id="a_edge1_Node000001_Node000002"><a xlink:title=" ">
<path fill="none" stroke="#63b8ff" d="M720.92,-72.44C559.39,-67.74 193.42,-54.67 71,-30 67.93,-29.38 64.77,-28.58 61.64,-27.67"/>
<polygon fill="#63b8ff" stroke="#63b8ff" points="62.46,-24.26 51.87,-24.52 60.31,-30.92 62.46,-24.26"/>
</a>
</g>
</g>
<!-- Node3 -->
<g id="Node000003" class="node">
<title>Node3</title>
<g id="a_Node000003"><a xlink:title=" ">
<polygon fill="#e0e0e0" stroke="#999999" points="130,-24.5 80,-24.5 80,-5.5 130,-5.5 130,-24.5"/>
<text text-anchor="middle" x="105" y="-12.5" font-family="Helvetica,sans-Serif" font-size="10.00">stdio.h</text>
</a>
</g>
</g>
<!-- Node1&#45;&gt;Node3 -->
<g id="edge2_Node000001_Node000003" class="edge">
<title>Node1&#45;&gt;Node3</title>
<g id="a_edge2_Node000001_Node000003"><a xlink:title=" ">
<path fill="none" stroke="#63b8ff" d="M721,-72.39C570.99,-67.82 247.56,-55.3 139,-30 136.78,-29.48 134.51,-28.84 132.26,-28.11"/>
<polygon fill="#63b8ff" stroke="#63b8ff" points="133.23,-24.73 122.64,-24.53 130.79,-31.3 133.23,-24.73"/>
</a>
</g>
</g>
<!-- Node4 -->
<g id="Node000004" class="node">
<title>Node4</title>
<g id="a_Node000004"><a xlink:title=" ">
<polygon fill="#e0e0e0" stroke="#999999" points="201.5,-24.5 148.5,-24.5 148.5,-5.5 201.5,-5.5 201.5,-24.5"/>
<text text-anchor="middle" x="175" y="-12.5" font-family="Helvetica,sans-Serif" font-size="10.00">stdlib.h</text>
</a>
</g>
</g>
<!-- Node1&#45;&gt;Node4 -->
<g id="edge3_Node000001_Node000004" class="edge">
<title>Node1&#45;&gt;Node4</title>
<g id="a_edge3_Node000001_Node000004"><a xlink:title=" ">
<path fill="none" stroke="#63b8ff" d="M720.93,-71.55C583.75,-65.88 304.96,-52.03 210,-30 207.69,-29.46 205.33,-28.8 202.98,-28.05"/>
<polygon fill="#63b8ff" stroke="#63b8ff" points="204.15,-24.75 193.55,-24.64 201.76,-31.33 204.15,-24.75"/>
</a>
</g>
</g>
<!-- Node5 -->
<g id="Node000005" class="node">
<title>Node5</title>
<g id="a_Node000005"><a xlink:title=" ">
<polygon fill="#e0e0e0" stroke="#999999" points="272.5,-24.5 219.5,-24.5 219.5,-5.5 272.5,-5.5 272.5,-24.5"/>
<text text-anchor="middle" x="246" y="-12.5" font-family="Helvetica,sans-Serif" font-size="10.00">string.h</text>
</a>
</g>
</g>
<!-- Node1&#45;&gt;Node5 -->
<g id="edge4_Node000001_Node000005" class="edge">
<title>Node1&#45;&gt;Node5</title>
<g id="a_edge4_Node000001_Node000005"><a xlink:title=" ">
<path fill="none" stroke="#63b8ff" d="M720.64,-74.89C618.2,-73.8 433.81,-66.28 281,-30 278.69,-29.45 276.33,-28.78 273.98,-28.02"/>
<polygon fill="#63b8ff" stroke="#63b8ff" points="275.15,-24.72 264.56,-24.6 272.76,-31.3 275.15,-24.72"/>
</a>
</g>
</g>
<!-- Node6 -->
<g id="Node000006" class="node">
<title>Node6</title>
<g id="a_Node000006"><a xlink:title=" ">
<polygon fill="#e0e0e0" stroke="#999999" points="385.5,-24.5 290.5,-24.5 290.5,-5.5 385.5,-5.5 385.5,-24.5"/>
<text text-anchor="middle" x="338" y="-12.5" font-family="Helvetica,sans-Serif" font-size="10.00">builtin_enums.h</text>
</a>
</g>
</g>
<!-- Node1&#45;&gt;Node6 -->
<g id="edge5_Node000001_Node000006" class="edge">
<title>Node1&#45;&gt;Node6</title>
<g id="a_edge5_Node000001_Node000006"><a xlink:title=" ">
<path fill="none" stroke="#63b8ff" d="M720.91,-69.08C639.02,-62.65 506.8,-50.2 394,-30 389.01,-29.11 383.81,-28.02 378.67,-26.85"/>
<polygon fill="#63b8ff" stroke="#63b8ff" points="379.48,-23.45 368.94,-24.53 377.86,-30.25 379.48,-23.45"/>
</a>
</g>
</g>
<!-- Node7 -->
<g id="Node000007" class="node">
<title>Node7</title>
<g id="a_Node000007"><a xlink:title=" ">
<polygon fill="#e0e0e0" stroke="#999999" points="498.5,-24.5 403.5,-24.5 403.5,-5.5 498.5,-5.5 498.5,-24.5"/>
<text text-anchor="middle" x="451" y="-12.5" font-family="Helvetica,sans-Serif" font-size="10.00">user_typedefs.h</text>
</a>
</g>
</g>
<!-- Node1&#45;&gt;Node7 -->
<g id="edge6_Node000001_Node000007" class="edge">
<title>Node1&#45;&gt;Node7</title>
<g id="a_edge6_Node000001_Node000007"><a xlink:title=" ">
<path fill="none" stroke="#63b8ff" d="M731.13,-65.99C671.74,-58.11 583.3,-45.32 507,-30 502.33,-29.06 497.47,-27.99 492.64,-26.87"/>
<polygon fill="#63b8ff" stroke="#63b8ff" points="493.41,-23.45 482.87,-24.52 491.77,-30.26 493.41,-23.45"/>
</a>
</g>
</g>
<!-- Node8 -->
<g id="Node000008" class="node">
<title>Node8</title>
<g id="a_Node000008"><a xlink:title=" ">
<polygon fill="#e0e0e0" stroke="#999999" points="603.5,-24.5 516.5,-24.5 516.5,-5.5 603.5,-5.5 603.5,-24.5"/>
<text text-anchor="middle" x="560" y="-12.5" font-family="Helvetica,sans-Serif" font-size="10.00">user_defines.h</text>
</a>
</g>
</g>
<!-- Node1&#45;&gt;Node8 -->
<g id="edge7_Node000001_Node000008" class="edge">
<title>Node1&#45;&gt;Node8</title>
<g id="a_edge7_Node000001_Node000008"><a xlink:title=" ">
<path fill="none" stroke="#63b8ff" d="M761.67,-65.96C723.86,-57.22 663.76,-43.12 612,-30 608.39,-29.08 604.64,-28.11 600.89,-27.13"/>
<polygon fill="#63b8ff" stroke="#63b8ff" points="601.6,-23.7 591.03,-24.51 599.8,-30.46 601.6,-23.7"/>
</a>
</g>
</g>
<!-- Node9 -->
<g id="Node000009" class="node">
<title>Node9</title>
<g id="a_Node000009"><a xlink:title=" ">
<polygon fill="#e0e0e0" stroke="#999999" points="728.5,-24.5 621.5,-24.5 621.5,-5.5 728.5,-5.5 728.5,-24.5"/>
<text text-anchor="middle" x="675" y="-12.5" font-family="Helvetica,sans-Serif" font-size="10.00">stencil_accesses.h</text>
</a>
</g>
</g>
<!-- Node1&#45;&gt;Node9 -->
<g id="edge8_Node000001_Node000009" class="edge">
<title>Node1&#45;&gt;Node9</title>
<g id="a_edge8_Node000001_Node000009"><a xlink:title=" ">
<path fill="none" stroke="#63b8ff" d="M780.97,-65.99C760.31,-56.25 726.22,-40.16 702.3,-28.88"/>
<polygon fill="#63b8ff" stroke="#63b8ff" points="703.59,-25.62 693.05,-24.52 700.6,-31.95 703.59,-25.62"/>
</a>
</g>
</g>
<!-- Node10 -->
<g id="Node000010" class="node">
<title>Node10</title>
<g id="a_Node000010"><a xlink:title=" ">
<polygon fill="#e0e0e0" stroke="#999999" points="851,-30 747,-30 747,0 851,0 851,-30"/>
<text text-anchor="start" x="755" y="-18" font-family="Helvetica,sans-Serif" font-size="10.00">stencilgen_calling</text>
<text text-anchor="middle" x="799" y="-7" font-family="Helvetica,sans-Serif" font-size="10.00">_info.h</text>
</a>
</g>
</g>
<!-- Node1&#45;&gt;Node10 -->
<g id="edge9_Node000001_Node000010" class="edge">
<title>Node1&#45;&gt;Node10</title>
<g id="a_edge9_Node000001_Node000010"><a xlink:title=" ">
<path fill="none" stroke="#63b8ff" d="M799,-65.87C799,-59.11 799,-49.35 799,-40.26"/>
<polygon fill="#63b8ff" stroke="#63b8ff" points="802.5,-40.11 799,-30.11 795.5,-40.11 802.5,-40.11"/>
</a>
</g>
</g>
<!-- Node11 -->
<g id="Node000011" class="node">
<title>Node11</title>
<g id="a_Node000011"><a xlink:title=" ">
<polygon fill="#e0e0e0" stroke="#999999" points="945,-24.5 869,-24.5 869,-5.5 945,-5.5 945,-24.5"/>
<text text-anchor="middle" x="907" y="-12.5" font-family="Helvetica,sans-Serif" font-size="10.00">stencilgen.h</text>
</a>
</g>
</g>
<!-- Node1&#45;&gt;Node11 -->
<g id="edge10_Node000001_Node000011" class="edge">
<title>Node1&#45;&gt;Node11</title>
<g id="a_edge10_Node000001_Node000011"><a xlink:title=" ">
<path fill="none" stroke="#63b8ff" d="M814.94,-65.87C832.64,-56.28 861.46,-40.67 882.14,-29.47"/>
<polygon fill="#63b8ff" stroke="#63b8ff" points="883.87,-32.51 891,-24.67 880.54,-26.35 883.87,-32.51"/>
</a>
</g>
</g>
<!-- Node12 -->
<g id="Node000012" class="node">
<title>Node12</title>
<g id="a_Node000012"><a xlink:href="implementation_8h.html" target="_top" xlink:title=" ">
<polygon fill="white" stroke="#666666" points="1067,-24.5 963,-24.5 963,-5.5 1067,-5.5 1067,-24.5"/>
<text text-anchor="middle" x="1015" y="-12.5" font-family="Helvetica,sans-Serif" font-size="10.00">implementation.h</text>
</a>
</g>
</g>
<!-- Node1&#45;&gt;Node12 -->
<g id="edge11_Node000001_Node000012" class="edge">
<title>Node1&#45;&gt;Node12</title>
<g id="a_edge11_Node000001_Node000012"><a xlink:title=" ">
<path fill="none" stroke="#63b8ff" d="M830.41,-65.99C868.24,-55.75 931.91,-38.5 973.69,-27.19"/>
<polygon fill="#63b8ff" stroke="#63b8ff" points="974.82,-30.51 983.55,-24.52 972.99,-23.75 974.82,-30.51"/>
</a>
</g>
</g>
<!-- Node13 -->
<g id="Node000013" class="node">
<title>Node13</title>
<g id="a_Node000013"><a xlink:title=" ">
<polygon fill="#e0e0e0" stroke="#999999" points="1171,-24.5 1085,-24.5 1085,-5.5 1171,-5.5 1171,-24.5"/>
<text text-anchor="middle" x="1128" y="-12.5" font-family="Helvetica,sans-Serif" font-size="10.00">profiles_info.h</text>
</a>
</g>
</g>
<!-- Node1&#45;&gt;Node13 -->
<g id="edge12_Node000001_Node000013" class="edge">
<title>Node1&#45;&gt;Node13</title>
<g id="a_edge12_Node000001_Node000013"><a xlink:title=" ">
<path fill="none" stroke="#63b8ff" d="M864.28,-65.96C920.64,-58.13 1004.09,-45.41 1076,-30 1080.11,-29.12 1084.39,-28.11 1088.64,-27.06"/>
<polygon fill="#63b8ff" stroke="#63b8ff" points="1089.62,-30.42 1098.43,-24.53 1087.87,-23.64 1089.62,-30.42"/>
</a>
</g>
</g>
<!-- Node14 -->
<g id="Node000014" class="node">
<title>Node14</title>
<g id="a_Node000014"><a xlink:title=" ">
<polygon fill="#e0e0e0" stroke="#999999" points="1307,-24.5 1189,-24.5 1189,-5.5 1307,-5.5 1307,-24.5"/>
<text text-anchor="middle" x="1248" y="-12.5" font-family="Helvetica,sans-Serif" font-size="10.00">kernel_reduce_info.h</text>
</a>
</g>
</g>
<!-- Node1&#45;&gt;Node14 -->
<g id="edge13_Node000001_Node000014" class="edge">
<title>Node1&#45;&gt;Node14</title>
<g id="a_edge13_Node000001_Node000014"><a xlink:title=" ">
<path fill="none" stroke="#63b8ff" d="M877.35,-67.35C954.57,-59.84 1075.79,-46.78 1180,-30 1186.33,-28.98 1192.96,-27.78 1199.49,-26.52"/>
<polygon fill="#63b8ff" stroke="#63b8ff" points="1200.5,-29.89 1209.63,-24.51 1199.14,-23.02 1200.5,-29.89"/>
</a>
</g>
</g>
<!-- Node15 -->
<g id="Node000015" class="node">
<title>Node15</title>
<g id="a_Node000015"><a xlink:href="mem__access__helper__funcs_8h.html" target="_top" xlink:title=" ">
<polygon fill="white" stroke="#666666" points="1482.5,-24.5 1325.5,-24.5 1325.5,-5.5 1482.5,-5.5 1482.5,-24.5"/>
<text text-anchor="middle" x="1404" y="-12.5" font-family="Helvetica,sans-Serif" font-size="10.00">mem_access_helper_funcs.h</text>
</a>
</g>
</g>
<!-- Node1&#45;&gt;Node15 -->
<g id="edge14_Node000001_Node000015" class="edge">
<title>Node1&#45;&gt;Node15</title>
<g id="a_edge14_Node000001_Node000015"><a xlink:title=" ">
<path fill="none" stroke="#63b8ff" d="M877.13,-69.53C978.53,-62.68 1160.85,-48.99 1316,-30 1325.13,-28.88 1334.77,-27.53 1344.19,-26.11"/>
<polygon fill="#63b8ff" stroke="#63b8ff" points="1344.94,-29.53 1354.29,-24.55 1343.87,-22.61 1344.94,-29.53"/>
</a>
</g>
</g>
<!-- Node16 -->
<g id="Node000016" class="node">
<title>Node16</title>
<g id="a_Node000016"><a xlink:href="warp__reduce_8h.html" target="_top" xlink:title=" ">
<polygon fill="white" stroke="#666666" points="1589,-24.5 1501,-24.5 1501,-5.5 1589,-5.5 1589,-24.5"/>
<text text-anchor="middle" x="1545" y="-12.5" font-family="Helvetica,sans-Serif" font-size="10.00">warp_reduce.h</text>
</a>
</g>
</g>
<!-- Node1&#45;&gt;Node16 -->
<g id="edge15_Node000001_Node000016" class="edge">
<title>Node1&#45;&gt;Node16</title>
<g id="a_edge15_Node000001_Node000016"><a xlink:title=" ">
<path fill="none" stroke="#63b8ff" d="M877.24,-74.4C1006.2,-73.14 1271.11,-65.92 1492,-30 1496.85,-29.21 1501.9,-28.17 1506.88,-27.01"/>
<polygon fill="#63b8ff" stroke="#63b8ff" points="1508.03,-30.33 1516.89,-24.51 1506.34,-23.54 1508.03,-30.33"/>
</a>
</g>
</g>
<!-- Node17 -->
<g id="Node000017" class="node">
<title>Node17</title>
<g id="a_Node000017"><a xlink:href="3d__caching__implementations_8h.html" target="_top" xlink:title=" ">
<polygon fill="white" stroke="#666666" points="1775.5,-24.5 1606.5,-24.5 1606.5,-5.5 1775.5,-5.5 1775.5,-24.5"/>
<text text-anchor="middle" x="1691" y="-12.5" font-family="Helvetica,sans-Serif" font-size="10.00">3d_caching_implementations.h</text>
</a>
</g>
</g>
<!-- Node1&#45;&gt;Node17 -->
<g id="edge16_Node000001_Node000017" class="edge">
<title>Node1&#45;&gt;Node17</title>
<g id="a_edge16_Node000001_Node000017"><a xlink:title=" ">
<path fill="none" stroke="#63b8ff" d="M877.16,-72.58C1020.42,-68.52 1334.55,-57.11 1598,-30 1608.34,-28.94 1619.29,-27.54 1629.9,-26.03"/>
<polygon fill="#63b8ff" stroke="#63b8ff" points="1630.55,-29.47 1639.94,-24.57 1629.54,-22.55 1630.55,-29.47"/>
</a>
</g>
</g>
<!-- Node18 -->
<g id="Node000018" class="node">
<title>Node18</title>
<g id="a_Node000018"><a xlink:title=" ">
<polygon fill="#e0e0e0" stroke="#999999" points="1846.5,-24.5 1793.5,-24.5 1793.5,-5.5 1846.5,-5.5 1846.5,-24.5"/>
<text text-anchor="middle" x="1820" y="-12.5" font-family="Helvetica,sans-Serif" font-size="10.00">stdint.h</text>
</a>
</g>
</g>
<!-- Node1&#45;&gt;Node18 -->
<g id="edge17_Node000001_Node000018" class="edge">
<title>Node1&#45;&gt;Node18</title>
<g id="a_edge17_Node000001_Node000018"><a xlink:title=" ">
<path fill="none" stroke="#63b8ff" d="M877.04,-74.34C1078.51,-73.38 1612.38,-67.3 1785,-30 1787.37,-29.49 1789.8,-28.83 1792.2,-28.08"/>
<polygon fill="#63b8ff" stroke="#63b8ff" points="1793.62,-31.29 1801.84,-24.6 1791.24,-24.7 1793.62,-31.29"/>
</a>
</g>
</g>
</g>
</svg>
