<?xml version="1.0" encoding="UTF-8" standalone="no"?>
<!DOCTYPE svg PUBLIC "-//W3C//DTD SVG 1.1//EN"
 "http://www.w3.org/Graphics/SVG/1.1/DTD/svg11.dtd">
<!-- Generated by graphviz version 2.43.0 (0)
 -->
<!-- Title: acc&#45;runtime/acc/string_vec.h Pages: 1 -->
<!--zoomable 291 -->

<svg id="main" version="1.1" xmlns="http://www.w3.org/2000/svg" xmlns:xlink="http://www.w3.org/1999/xlink" xml:space="preserve" onload="init(evt)">
<style type="text/css"><![CDATA[
.node, .edge {opacity: 0.7;}
.node.selected, .edge.selected {opacity: 1;}
.edge:hover path { stroke: red; }
.edge:hover polygon { stroke: red; fill: red; }
]]></style>

<defs>
  <circle id="rim" cx="0" cy="0" r="7"/>
  <circle id="rim2" cx="0" cy="0" r="3.5"/>
  <g id="zoomPlus">
    <use xlink:href="#rim" fill="#404040"><set attributeName="fill" to="#808080" begin="zoomplus.mouseover" end="zoomplus.mouseout"/></use>
    <path d="M-4,0h8M0,-4v8" fill="none" stroke="white" stroke-width="1.5" pointer-events="none"/>
  </g>
  <g id="zoomMin">
    <use xlink:href="#rim" fill="#404040"><set attributeName="fill" to="#808080" begin="zoomminus.mouseover" end="zoomminus.mouseout"/></use>
    <path d="M-4,0h8" fill="none" stroke="white" stroke-width="1.5" pointer-events="none"/>
  </g>
  <g id="arrowUp" transform="translate(30 24)">
    <use xlink:href="#rim"/>
    <path pointer-events="none" fill="none" stroke="white" stroke-width="1.5" d="M0,-3.0v7 M-2.5,-0.5L0,-3.0L2.5,-0.5"/>
  </g>
  <g id="arrowRight" transform="rotate(90) translate(36 -43)">
    <use xlink:href="#rim"/>
    <path pointer-events="none" fill="none" stroke="white" stroke-width="1.5" d="M0,-3.0v7 M-2.5,-0.5L0,-3.0L2.5,-0.5"/>
  </g>
  <g id="arrowDown" transform="rotate(180) translate(-30 -48)">
    <use xlink:href="#rim"/>
    <path pointer-events="none" fill="none" stroke="white" stroke-width="1.5" d="M0,-3.0v7 M-2.5,-0.5L0,-3.0L2.5,-0.5"/>
  </g>
  <g id="arrowLeft" transform="rotate(270) translate(-36 17)">
    <use xlink:href="#rim"/>
    <path pointer-events="none" fill="none" stroke="white" stroke-width="1.5" d="M0,-3.0v7 M-2.5,-0.5L0,-3.0L2.5,-0.5"/>
  </g>
  <g id="resetDef">
    <use xlink:href="#rim2" fill="#404040"><set attributeName="fill" to="#808080" begin="reset.mouseover" end="reset.mouseout"/></use>
  </g>
</defs>
<script type="application/ecmascript">
var viewWidth = 683;
var viewHeight = 291;
var sectionId = 'dynsection-1';
</script>
<script type="application/ecmascript" xlink:href="svg.min.js"/>
<svg id="graph" class="graph">
<g id="viewport">
<title>acc&#45;runtime/acc/string_vec.h</title>
<!-- Node1 -->
<g id="Node000001" class="node">
<title>Node1</title>
<g id="a_Node000001"><a xlink:title=" ">
<polygon fill="#999999" stroke="#666666" points="543.14,-283 418.14,-283 418.14,-253 543.14,-253 543.14,-283"/>
<text text-anchor="start" x="426.14" y="-271" font-family="Helvetica,sans-Serif" font-size="10.00">acc&#45;runtime/acc/string</text>
<text text-anchor="middle" x="480.64" y="-260" font-family="Helvetica,sans-Serif" font-size="10.00">_vec.h</text>
</a>
</g>
</g>
<!-- Node2 -->
<g id="Node000002" class="node">
<title>Node2</title>
<g id="a_Node000002"><a xlink:href="vecs_8h.html" target="_top" xlink:title=" ">
<polygon fill="white" stroke="#666666" points="450.14,-211.5 321.14,-211.5 321.14,-192.5 450.14,-192.5 450.14,-211.5"/>
<text text-anchor="middle" x="385.64" y="-199.5" font-family="Helvetica,sans-Serif" font-size="10.00">acc&#45;runtime/acc/vecs.h</text>
</a>
</g>
</g>
<!-- Node1&#45;&gt;Node2 -->
<g id="edge1_Node000001_Node000002" class="edge">
<title>Node1&#45;&gt;Node2</title>
<g id="a_edge1_Node000001_Node000002"><a xlink:title=" ">
<path fill="none" stroke="#63b8ff" d="M451.24,-247.2C433.57,-235.29 411.95,-220.73 398.49,-211.66"/>
<polygon fill="#63b8ff" stroke="#63b8ff" points="449.3,-250.11 459.55,-252.8 453.22,-244.31 449.3,-250.11"/>
</a>
</g>
</g>
<!-- Node9 -->
<g id="Node000009" class="node">
<title>Node9</title>
<g id="a_Node000009"><a xlink:href="acc__runtime_8cu.html" target="_top" xlink:title=" ">
<polygon fill="white" stroke="#666666" points="632.14,-217 519.14,-217 519.14,-187 632.14,-187 632.14,-217"/>
<text text-anchor="start" x="527.14" y="-205" font-family="Helvetica,sans-Serif" font-size="10.00">acc&#45;runtime/api/acc</text>
<text text-anchor="middle" x="575.64" y="-194" font-family="Helvetica,sans-Serif" font-size="10.00">_runtime.cu</text>
</a>
</g>
</g>
<!-- Node1&#45;&gt;Node9 -->
<g id="edge12_Node000001_Node000009" class="edge">
<title>Node1&#45;&gt;Node9</title>
<g id="a_edge12_Node000001_Node000009"><a xlink:title=" ">
<path fill="none" stroke="#63b8ff" d="M510.28,-247.03C524.66,-237.34 541.59,-225.94 554.61,-217.16"/>
<polygon fill="#63b8ff" stroke="#63b8ff" points="508.06,-244.31 501.72,-252.8 511.97,-250.11 508.06,-244.31"/>
</a>
</g>
</g>
<!-- Node3 -->
<g id="Node000003" class="node">
<title>Node3</title>
<g id="a_Node000003"><a xlink:href="ast_8h.html" target="_top" xlink:title=" ">
<polygon fill="white" stroke="#666666" points="263.64,-145.5 141.64,-145.5 141.64,-126.5 263.64,-126.5 263.64,-145.5"/>
<text text-anchor="middle" x="202.64" y="-133.5" font-family="Helvetica,sans-Serif" font-size="10.00">acc&#45;runtime/acc/ast.h</text>
</a>
</g>
</g>
<!-- Node2&#45;&gt;Node3 -->
<g id="edge2_Node000002_Node000003" class="edge">
<title>Node2&#45;&gt;Node3</title>
<g id="a_edge2_Node000002_Node000003"><a xlink:title=" ">
<path fill="none" stroke="#63b8ff" d="M351.33,-189C315.19,-176.36 259.18,-156.78 227.22,-145.6"/>
<polygon fill="#63b8ff" stroke="#63b8ff" points="350.36,-192.37 360.96,-192.37 352.67,-185.76 350.36,-192.37"/>
</a>
</g>
</g>
<!-- Node7 -->
<g id="Node000007" class="node">
<title>Node7</title>
<g id="a_Node000007"><a xlink:href="stencilgen_8c.html" target="_top" xlink:title=" ">
<polygon fill="white" stroke="#666666" points="484.64,-79.5 328.64,-79.5 328.64,-60.5 484.64,-60.5 484.64,-79.5"/>
<text text-anchor="middle" x="406.64" y="-67.5" font-family="Helvetica,sans-Serif" font-size="10.00">acc&#45;runtime/acc/stencilgen.c</text>
</a>
</g>
</g>
<!-- Node2&#45;&gt;Node7 -->
<g id="edge8_Node000002_Node000007" class="edge">
<title>Node2&#45;&gt;Node7</title>
<g id="a_edge8_Node000002_Node000007"><a xlink:title=" ">
<path fill="none" stroke="#63b8ff" d="M380.95,-182.52C377.57,-166.12 374.42,-141.63 379.64,-121 383.6,-105.31 393.57,-89.21 400.22,-79.65"/>
<polygon fill="#63b8ff" stroke="#63b8ff" points="377.58,-183.48 383.23,-192.44 384.4,-181.91 377.58,-183.48"/>
</a>
</g>
</g>
<!-- Node8 -->
<g id="Node000008" class="node">
<title>Node8</title>
<g id="a_Node000008"><a xlink:href="warp__reduce_8h.html" target="_top" xlink:title=" ">
<polygon fill="white" stroke="#666666" points="510.64,-151 388.64,-151 388.64,-121 510.64,-121 510.64,-151"/>
<text text-anchor="start" x="396.64" y="-139" font-family="Helvetica,sans-Serif" font-size="10.00">acc&#45;runtime/acc/warp</text>
<text text-anchor="middle" x="449.64" y="-128" font-family="Helvetica,sans-Serif" font-size="10.00">_reduce.h</text>
</a>
</g>
</g>
<!-- Node2&#45;&gt;Node8 -->
<g id="edge9_Node000002_Node000008" class="edge">
<title>Node2&#45;&gt;Node8</title>
<g id="a_edge9_Node000002_Node000008"><a xlink:title=" ">
<path fill="none" stroke="#63b8ff" d="M401.48,-185.16C411.83,-174.81 425.24,-161.4 435.28,-151.36"/>
<polygon fill="#63b8ff" stroke="#63b8ff" points="398.86,-182.82 394.27,-192.37 403.81,-187.77 398.86,-182.82"/>
</a>
</g>
</g>
<!-- Node4 -->
<g id="Node000004" class="node">
<title>Node4</title>
<g id="a_Node000004"><a xlink:href="codegen_8c.html" target="_top" xlink:title=" ">
<polygon fill="white" stroke="#666666" points="242.14,-19 95.14,-19 95.14,0 242.14,0 242.14,-19"/>
<text text-anchor="middle" x="168.64" y="-7" font-family="Helvetica,sans-Serif" font-size="10.00">acc&#45;runtime/acc/codegen.c</text>
</a>
</g>
</g>
<!-- Node3&#45;&gt;Node4 -->
<g id="edge3_Node000003_Node000004" class="edge">
<title>Node3&#45;&gt;Node4</title>
<g id="a_edge3_Node000003_Node000004"><a xlink:title=" ">
<path fill="none" stroke="#63b8ff" d="M131.29,-125.94C82.12,-118.06 22.97,-104.76 7.64,-85 -21.11,-47.95 41.28,-28.62 96.58,-19.04"/>
<polygon fill="#63b8ff" stroke="#63b8ff" points="130.88,-129.41 141.3,-127.49 131.95,-122.5 130.88,-129.41"/>
</a>
</g>
</g>
<!-- Node5 -->
<g id="Node000005" class="node">
<title>Node5</title>
<g id="a_Node000005"><a xlink:href="codegen_8h.html" target="_top" xlink:title=" ">
<polygon fill="white" stroke="#666666" points="164.64,-79.5 16.64,-79.5 16.64,-60.5 164.64,-60.5 164.64,-79.5"/>
<text text-anchor="middle" x="90.64" y="-67.5" font-family="Helvetica,sans-Serif" font-size="10.00">acc&#45;runtime/acc/codegen.h</text>
</a>
</g>
</g>
<!-- Node3&#45;&gt;Node5 -->
<g id="edge4_Node000003_Node000005" class="edge">
<title>Node3&#45;&gt;Node5</title>
<g id="a_edge4_Node000003_Node000005"><a xlink:title=" ">
<path fill="none" stroke="#63b8ff" d="M178.76,-121.36C156.71,-108.76 124.62,-90.42 105.86,-79.7"/>
<polygon fill="#63b8ff" stroke="#63b8ff" points="177.11,-124.45 187.53,-126.37 180.59,-118.37 177.11,-124.45"/>
</a>
</g>
</g>
<!-- Node6 -->
<g id="Node000006" class="node">
<title>Node6</title>
<g id="a_Node000006"><a xlink:href="create__node_8h.html" target="_top" xlink:title=" ">
<polygon fill="white" stroke="#666666" points="310.64,-85 182.64,-85 182.64,-55 310.64,-55 310.64,-85"/>
<text text-anchor="start" x="190.64" y="-73" font-family="Helvetica,sans-Serif" font-size="10.00">acc&#45;runtime/acc/create</text>
<text text-anchor="middle" x="246.64" y="-62" font-family="Helvetica,sans-Serif" font-size="10.00">_node.h</text>
</a>
</g>
</g>
<!-- Node3&#45;&gt;Node6 -->
<g id="edge6_Node000003_Node000006" class="edge">
<title>Node3&#45;&gt;Node6</title>
<g id="a_edge6_Node000003_Node000006"><a xlink:title=" ">
<path fill="none" stroke="#63b8ff" d="M214.38,-117.92C221.36,-107.76 230.13,-95.01 236.76,-85.36"/>
<polygon fill="#63b8ff" stroke="#63b8ff" points="211.35,-116.15 208.57,-126.37 217.12,-120.11 211.35,-116.15"/>
</a>
</g>
</g>
<!-- Node5&#45;&gt;Node4 -->
<g id="edge5_Node000005_Node000004" class="edge">
<title>Node5&#45;&gt;Node4</title>
<g id="a_edge5_Node000005_Node000004"><a xlink:title=" ">
<path fill="none" stroke="#63b8ff" d="M110.17,-54.35C124.95,-43.27 144.73,-28.43 157.08,-19.17"/>
<polygon fill="#63b8ff" stroke="#63b8ff" points="108.05,-51.57 102.15,-60.37 112.25,-57.17 108.05,-51.57"/>
</a>
</g>
</g>
<!-- Node6&#45;&gt;Node4 -->
<g id="edge7_Node000006_Node000004" class="edge">
<title>Node6&#45;&gt;Node4</title>
<g id="a_edge7_Node000006_Node000004"><a xlink:title=" ">
<path fill="none" stroke="#63b8ff" d="M219.72,-48.82C206.28,-38.73 190.71,-27.05 180.32,-19.27"/>
<polygon fill="#63b8ff" stroke="#63b8ff" points="217.65,-51.64 227.75,-54.84 221.85,-46.04 217.65,-51.64"/>
</a>
</g>
</g>
<!-- Node8&#45;&gt;Node4 -->
<g id="edge10_Node000008_Node000004" class="edge">
<title>Node8&#45;&gt;Node4</title>
<g id="a_edge10_Node000008_Node000004"><a xlink:title=" ">
<path fill="none" stroke="#63b8ff" d="M474.5,-114C491.77,-96.9 509.14,-72.77 493.64,-55 461.72,-18.42 328.15,-10.82 242.5,-9.83"/>
<polygon fill="#63b8ff" stroke="#63b8ff" points="472.09,-111.46 467.19,-120.86 476.88,-116.56 472.09,-111.46"/>
</a>
</g>
</g>
<!-- Node8&#45;&gt;Node7 -->
<g id="edge11_Node000008_Node000007" class="edge">
<title>Node8&#45;&gt;Node7</title>
<g id="a_edge11_Node000008_Node000007"><a xlink:title=" ">
<path fill="none" stroke="#63b8ff" d="M434.37,-112.28C426.84,-101.07 418.19,-88.19 412.58,-79.84"/>
<polygon fill="#63b8ff" stroke="#63b8ff" points="431.61,-114.45 440.09,-120.8 437.42,-110.54 431.61,-114.45"/>
</a>
</g>
</g>
<!-- Node10 -->
<g id="Node000010" class="node">
<title>Node10</title>
<g id="a_Node000010"><a xlink:href="kernels_8cu.html" target="_top" xlink:title=" ">
<polygon fill="white" stroke="#666666" points="674.64,-145.5 528.64,-145.5 528.64,-126.5 674.64,-126.5 674.64,-145.5"/>
<text text-anchor="middle" x="601.64" y="-133.5" font-family="Helvetica,sans-Serif" font-size="10.00">src/core/kernels/kernels.cu</text>
</a>
</g>
</g>
<!-- Node9&#45;&gt;Node10 -->
<g id="edge13_Node000009_Node000010" class="edge">
<title>Node9&#45;&gt;Node10</title>
<g id="a_edge13_Node000009_Node000010"><a xlink:title=" ">
<path fill="none" stroke="#63b8ff" d="M585.27,-177.28C589.73,-166.31 594.75,-153.94 598.04,-145.84"/>
<polygon fill="#63b8ff" stroke="#63b8ff" points="581.93,-176.21 581.41,-186.8 588.41,-178.85 581.93,-176.21"/>
</a>
</g>
</g>
</g>
</svg>

<g id="navigator" transform="translate(0 0)" fill="#404254">
  <rect fill="#f2f5e9" fill-opacity="0.5" stroke="#606060" stroke-width=".5" x="0" y="0" width="60" height="60"/>
  <use id="zoomplus" xlink:href="#zoomPlus" x="17" y="9" onmousedown="handleZoom(evt,'in')"/>
  <use id="zoomminus" xlink:href="#zoomMin" x="42" y="9" onmousedown="handleZoom(evt,'out')"/>
  <use id="reset" xlink:href="#resetDef" x="30" y="36" onmousedown="handleReset()"/>
   <use id="arrowup" xlink:href="#arrowUp" x="0" y="0" onmousedown="handlePan(0,-1)"/>
  <use id="arrowright" xlink:href="#arrowRight" x="0" y="0" onmousedown="handlePan(1,0)"/>
  <use id="arrowdown" xlink:href="#arrowDown" x="0" y="0" onmousedown="handlePan(0,1)"/>
  <use id="arrowleft" xlink:href="#arrowLeft" x="0" y="0" onmousedown="handlePan(-1,0)"/>
</g>
<svg viewBox="0 0 15 15" width="100%" height="30px" preserveAspectRatio="xMaxYMin meet">
 <g id="arrow_out" transform="scale(0.3 0.3)">
  <a xlink:href="string__vec_8h__dep__incl_org.svg" target="_base">
   <rect id="button" ry="5" rx="5" y="6" x="6" height="38" width="38"
        fill="#f2f5e9" fill-opacity="0.5" stroke="#606060" stroke-width="1.0"/>
   <path id="arrow"
     d="M 11.500037,31.436501 C 11.940474,20.09759 22.043105,11.32322 32.158766,21.979434 L 37.068811,17.246167 C 37.068811,17.246167 37.088388,32 37.088388,32 L 22.160133,31.978069 C 22.160133,31.978069 26.997745,27.140456 26.997745,27.140456 C 18.528582,18.264221 13.291696,25.230495 11.500037,31.436501 z"
     style="fill:#404040;"/>
  </a>
 </g>
</svg>

<style type='text/css'>
<![CDATA[
[data-mouse-over-selected='false'] { opacity: 0.7; }
[data-mouse-over-selected='true']  { opacity: 1.0; }
]]>
</style>
<script type="application/ecmascript"><![CDATA[
document.addEventListener('DOMContentLoaded', (event) => {
  highlightEdges();
  highlightAdjacentNodes();
});
]]></script>
</svg>
