<?xml version="1.0" encoding="UTF-8" standalone="no"?>
<!DOCTYPE svg PUBLIC "-//W3C//DTD SVG 1.1//EN"
 "http://www.w3.org/Graphics/SVG/1.1/DTD/svg11.dtd">
<!-- Generated by graphviz version 2.43.0 (0)
 -->
<!-- Title: AcTaskDefinition Pages: 1 -->
<svg width="627pt" height="245pt"
 viewBox="0.00 0.00 627.00 245.44" xmlns="http://www.w3.org/2000/svg" xmlns:xlink="http://www.w3.org/1999/xlink">
<g id="graph0" class="graph" transform="scale(1 1) rotate(0) translate(4 241.44)">
<title>AcTaskDefinition</title>
<!-- Node1 -->
<g id="Node000001" class="node">
<title>Node1</title>
<g id="a_Node000001"><a xlink:title=" ">
<polygon fill="#999999" stroke="#666666" points="619,-132.44 521,-132.44 521,-113.44 619,-113.44 619,-132.44"/>
<text text-anchor="middle" x="570" y="-120.44" font-family="Helvetica,sans-Serif" font-size="10.00">AcTaskDefinition</text>
</a>
</g>
</g>
<!-- Node2 -->
<g id="Node000002" class="node">
<title>Node2</title>
<g id="a_Node000002"><a xlink:href="structLoadKernelParamsFunc.html" target="_top" xlink:title=" ">
<polygon fill="white" stroke="#666666" points="357,-237.44 228,-237.44 228,-218.44 357,-218.44 357,-237.44"/>
<text text-anchor="middle" x="292.5" y="-225.44" font-family="Helvetica,sans-Serif" font-size="10.00">LoadKernelParamsFunc</text>
</a>
</g>
</g>
<!-- Node2&#45;&gt;Node1 -->
<g id="edge1_Node000001_Node000002" class="edge">
<title>Node2&#45;&gt;Node1</title>
<g id="a_edge1_Node000001_Node000002"><a xlink:title=" ">
<path fill="none" stroke="#9a32cd" stroke-dasharray="5,2" d="M367.48,-226.54C409.34,-223.05 461.46,-214.04 503,-191.94 529.93,-177.62 552.24,-148.24 562.66,-132.85"/>
<polygon fill="#9a32cd" stroke="#9a32cd" points="367.05,-223.06 357.34,-227.29 367.57,-230.04 367.05,-223.06"/>
</a>
</g>
<text text-anchor="middle" x="439" y="-227.94" font-family="Helvetica,sans-Serif" font-size="10.00" fill="grey"> load_kernel_params_func</text>
</g>
<!-- Node3 -->
<g id="Node000003" class="node">
<title>Node3</title>
<g id="a_Node000003"><a xlink:href="structKernelReduceOutput.html" target="_top" xlink:title=" ">
<polygon fill="white" stroke="#666666" points="116,-164.44 0,-164.44 0,-145.44 116,-145.44 116,-164.44"/>
<text text-anchor="middle" x="58" y="-152.44" font-family="Helvetica,sans-Serif" font-size="10.00">KernelReduceOutput</text>
</a>
</g>
</g>
<!-- Node3&#45;&gt;Node1 -->
<g id="edge2_Node000001_Node000003" class="edge">
<title>Node3&#45;&gt;Node1</title>
<g id="a_edge2_Node000001_Node000003"><a xlink:title=" ">
<path fill="none" stroke="#9a32cd" stroke-dasharray="5,2" d="M126.33,-163.41C128.91,-163.61 131.48,-163.79 134,-163.94 167.72,-165.96 176.24,-164.92 210,-163.94 340.39,-160.16 375.25,-173.29 503,-146.94 518.4,-143.76 535.04,-137.7 547.76,-132.46"/>
<polygon fill="#9a32cd" stroke="#9a32cd" points="126.53,-159.91 116.26,-162.53 125.92,-166.89 126.53,-159.91"/>
</a>
</g>
<text text-anchor="middle" x="292.5" y="-177.94" font-family="Helvetica,sans-Serif" font-size="10.00" fill="grey"> outputs_in</text>
<text text-anchor="middle" x="292.5" y="-166.94" font-family="Helvetica,sans-Serif" font-size="10.00" fill="grey">outputs_out</text>
</g>
<!-- Node7 -->
<g id="Node000007" class="node">
<title>Node7</title>
<g id="a_Node000007"><a xlink:href="structKernelAnalysisInfo.html" target="_top" xlink:title=" ">
<polygon fill="white" stroke="#666666" points="346,-141.44 239,-141.44 239,-122.44 346,-122.44 346,-141.44"/>
<text text-anchor="middle" x="292.5" y="-129.44" font-family="Helvetica,sans-Serif" font-size="10.00">KernelAnalysisInfo</text>
</a>
</g>
</g>
<!-- Node3&#45;&gt;Node7 -->
<g id="edge7_Node000007_Node000003" class="edge">
<title>Node3&#45;&gt;Node7</title>
<g id="a_edge7_Node000007_Node000003"><a xlink:title=" ">
<path fill="none" stroke="#9a32cd" stroke-dasharray="5,2" d="M119.65,-143.85C124.5,-143.14 129.32,-142.49 134,-141.94 168.83,-137.83 208.2,-135.33 238.87,-133.86"/>
<polygon fill="#9a32cd" stroke="#9a32cd" points="119.07,-140.4 109.72,-145.38 120.14,-147.32 119.07,-140.4"/>
</a>
</g>
<text text-anchor="middle" x="172" y="-155.94" font-family="Helvetica,sans-Serif" font-size="10.00" fill="grey"> reduce_inputs</text>
<text text-anchor="middle" x="172" y="-144.94" font-family="Helvetica,sans-Serif" font-size="10.00" fill="grey">reduce_outputs</text>
</g>
<!-- Node4 -->
<g id="Node000004" class="node">
<title>Node4</title>
<g id="a_Node000004"><a xlink:href="structVolume.html" target="_top" xlink:title=" ">
<polygon fill="white" stroke="#666666" points="319,-104.44 266,-104.44 266,-85.44 319,-85.44 319,-104.44"/>
<text text-anchor="middle" x="292.5" y="-92.44" font-family="Helvetica,sans-Serif" font-size="10.00">Volume</text>
</a>
</g>
</g>
<!-- Node4&#45;&gt;Node1 -->
<g id="edge3_Node000001_Node000004" class="edge">
<title>Node4&#45;&gt;Node1</title>
<g id="a_edge3_Node000001_Node000004"><a xlink:title=" ">
<path fill="none" stroke="#9a32cd" stroke-dasharray="5,2" d="M329.08,-89.47C371.17,-84.13 443.11,-78.58 503,-91.94 521.41,-96.05 540.75,-105.88 553.7,-113.37"/>
<polygon fill="#9a32cd" stroke="#9a32cd" points="328.49,-86.02 319.04,-90.81 329.42,-92.96 328.49,-86.02"/>
</a>
</g>
<text text-anchor="middle" x="439" y="-116.94" font-family="Helvetica,sans-Serif" font-size="10.00" fill="grey"> end</text>
<text text-anchor="middle" x="439" y="-105.94" font-family="Helvetica,sans-Serif" font-size="10.00" fill="grey">halo_sizes</text>
<text text-anchor="middle" x="439" y="-94.94" font-family="Helvetica,sans-Serif" font-size="10.00" fill="grey">start</text>
</g>
<!-- Node5 -->
<g id="Node000005" class="node">
<title>Node5</title>
<g id="a_Node000005"><a xlink:href="structint3.html" target="_top" xlink:title=" ">
<polygon fill="white" stroke="#666666" points="310,-59.44 275,-59.44 275,-40.44 310,-40.44 310,-59.44"/>
<text text-anchor="middle" x="292.5" y="-47.44" font-family="Helvetica,sans-Serif" font-size="10.00">int3</text>
</a>
</g>
</g>
<!-- Node5&#45;&gt;Node1 -->
<g id="edge4_Node000001_Node000005" class="edge">
<title>Node5&#45;&gt;Node1</title>
<g id="a_edge4_Node000001_Node000005"><a xlink:title=" ">
<path fill="none" stroke="#9a32cd" stroke-dasharray="5,2" d="M320.21,-44.82C361.39,-38.22 442.01,-30.48 503,-56.94 530.35,-68.81 552.48,-97.71 562.77,-113.03"/>
<polygon fill="#9a32cd" stroke="#9a32cd" points="319.42,-41.41 310.15,-46.54 320.6,-48.31 319.42,-41.41"/>
</a>
</g>
<text text-anchor="middle" x="439" y="-70.94" font-family="Helvetica,sans-Serif" font-size="10.00" fill="grey"> id</text>
<text text-anchor="middle" x="439" y="-59.94" font-family="Helvetica,sans-Serif" font-size="10.00" fill="grey">ray_direction</text>
</g>
<!-- Node6 -->
<g id="Node000006" class="node">
<title>Node6</title>
<g id="a_Node000006"><a xlink:href="structfacet__class__range.html" target="_top" xlink:title=" ">
<polygon fill="white" stroke="#666666" points="344.5,-22.44 240.5,-22.44 240.5,-3.44 344.5,-3.44 344.5,-22.44"/>
<text text-anchor="middle" x="292.5" y="-10.44" font-family="Helvetica,sans-Serif" font-size="10.00">facet_class_range</text>
</a>
</g>
</g>
<!-- Node6&#45;&gt;Node1 -->
<g id="edge5_Node000001_Node000006" class="edge">
<title>Node6&#45;&gt;Node1</title>
<g id="a_edge5_Node000001_Node000006"><a xlink:title=" ">
<path fill="none" stroke="#9a32cd" stroke-dasharray="5,2" d="M354.88,-2.27C398.95,2.23 458.22,1.56 503,-23.94 538.72,-44.28 558.79,-92.82 565.95,-113.43"/>
<polygon fill="#9a32cd" stroke="#9a32cd" points="354.42,1.2 344.87,-3.4 355.21,-5.75 354.42,1.2"/>
</a>
</g>
<text text-anchor="middle" x="439" y="-26.94" font-family="Helvetica,sans-Serif" font-size="10.00" fill="grey"> halo_types</text>
</g>
<!-- Node7&#45;&gt;Node1 -->
<g id="edge6_Node000001_Node000007" class="edge">
<title>Node7&#45;&gt;Node1</title>
<g id="a_edge6_Node000001_Node000007"><a xlink:title=" ">
<path fill="none" stroke="#9a32cd" stroke-dasharray="5,2" d="M356.06,-132.29C397.72,-132.22 453.67,-131.53 503,-128.94 508.74,-128.64 514.76,-128.23 520.73,-127.76"/>
<polygon fill="#9a32cd" stroke="#9a32cd" points="356.05,-128.79 346.06,-132.3 356.06,-135.79 356.05,-128.79"/>
</a>
</g>
<text text-anchor="middle" x="439" y="-134.94" font-family="Helvetica,sans-Serif" font-size="10.00" fill="grey"> analysis_info</text>
</g>
</g>
</svg>
