<?xml version="1.0" encoding="UTF-8" standalone="no"?>
<!DOCTYPE svg PUBLIC "-//W3C//DTD SVG 1.1//EN"
 "http://www.w3.org/Graphics/SVG/1.1/DTD/svg11.dtd">
<!-- Generated by graphviz version 2.43.0 (0)
 -->
<!-- Title: DeviceConfiguration Pages: 1 -->
<!--zoomable 391 -->

<svg id="main" version="1.1" xmlns="http://www.w3.org/2000/svg" xmlns:xlink="http://www.w3.org/1999/xlink" xml:space="preserve" onload="init(evt)">
<style type="text/css"><![CDATA[
.node, .edge {opacity: 0.7;}
.node.selected, .edge.selected {opacity: 1;}
.edge:hover path { stroke: red; }
.edge:hover polygon { stroke: red; fill: red; }
]]></style>

<defs>
  <circle id="rim" cx="0" cy="0" r="7"/>
  <circle id="rim2" cx="0" cy="0" r="3.5"/>
  <g id="zoomPlus">
    <use xlink:href="#rim" fill="#404040"><set attributeName="fill" to="#808080" begin="zoomplus.mouseover" end="zoomplus.mouseout"/></use>
    <path d="M-4,0h8M0,-4v8" fill="none" stroke="white" stroke-width="1.5" pointer-events="none"/>
  </g>
  <g id="zoomMin">
    <use xlink:href="#rim" fill="#404040"><set attributeName="fill" to="#808080" begin="zoomminus.mouseover" end="zoomminus.mouseout"/></use>
    <path d="M-4,0h8" fill="none" stroke="white" stroke-width="1.5" pointer-events="none"/>
  </g>
  <g id="arrowUp" transform="translate(30 24)">
    <use xlink:href="#rim"/>
    <path pointer-events="none" fill="none" stroke="white" stroke-width="1.5" d="M0,-3.0v7 M-2.5,-0.5L0,-3.0L2.5,-0.5"/>
  </g>
  <g id="arrowRight" transform="rotate(90) translate(36 -43)">
    <use xlink:href="#rim"/>
    <path pointer-events="none" fill="none" stroke="white" stroke-width="1.5" d="M0,-3.0v7 M-2.5,-0.5L0,-3.0L2.5,-0.5"/>
  </g>
  <g id="arrowDown" transform="rotate(180) translate(-30 -48)">
    <use xlink:href="#rim"/>
    <path pointer-events="none" fill="none" stroke="white" stroke-width="1.5" d="M0,-3.0v7 M-2.5,-0.5L0,-3.0L2.5,-0.5"/>
  </g>
  <g id="arrowLeft" transform="rotate(270) translate(-36 17)">
    <use xlink:href="#rim"/>
    <path pointer-events="none" fill="none" stroke="white" stroke-width="1.5" d="M0,-3.0v7 M-2.5,-0.5L0,-3.0L2.5,-0.5"/>
  </g>
  <g id="resetDef">
    <use xlink:href="#rim2" fill="#404040"><set attributeName="fill" to="#808080" begin="reset.mouseover" end="reset.mouseout"/></use>
  </g>
</defs>
<script type="application/ecmascript">
var viewWidth = 1183;
var viewHeight = 391;
var sectionId = 'dynsection-0';
</script>
<script type="application/ecmascript" xlink:href="svg.min.js"/>
<svg id="graph" class="graph">
<g id="viewport">
<title>DeviceConfiguration</title>
<!-- Node1 -->
<g id="Node000001" class="node">
<title>Node1</title>
<g id="a_Node000001"><a xlink:title=" ">
<polygon fill="#999999" stroke="#666666" points="1175,-193 1059,-193 1059,-174 1175,-174 1175,-193"/>
<text text-anchor="middle" x="1117" y="-181" font-family="Helvetica,sans-Serif" font-size="10.00">DeviceConfiguration</text>
</a>
</g>
</g>
<!-- Node2 -->
<g id="Node000002" class="node">
<title>Node2</title>
<g id="a_Node000002"><a xlink:href="structdevice__s.html" target="_top" xlink:title=" ">
<polygon fill="white" stroke="#666666" points="982,-131 923,-131 923,-112 982,-112 982,-131"/>
<text text-anchor="middle" x="952.5" y="-119" font-family="Helvetica,sans-Serif" font-size="10.00">device_s</text>
</a>
</g>
</g>
<!-- Node2&#45;&gt;Node1 -->
<g id="edge1_Node000001_Node000002" class="edge">
<title>Node2&#45;&gt;Node1</title>
<g id="a_edge1_Node000001_Node000002"><a xlink:title=" ">
<path fill="none" stroke="#9a32cd" stroke-dasharray="5,2" d="M988.04,-134.68C1018.9,-146.45 1063.37,-163.42 1090.94,-173.94"/>
<polygon fill="#9a32cd" stroke="#9a32cd" points="989.13,-131.35 978.53,-131.05 986.63,-137.89 989.13,-131.35"/>
</a>
</g>
<text text-anchor="middle" x="1020.5" y="-157.5" font-family="Helvetica,sans-Serif" font-size="10.00" fill="grey"> devices</text>
</g>
<!-- Node3 -->
<g id="Node000003" class="node">
<title>Node3</title>
<g id="a_Node000003"><a xlink:href="structAcMeshInfo.html" target="_top" xlink:title=" ">
<polygon fill="white" stroke="#666666" points="800,-131 726,-131 726,-112 800,-112 800,-131"/>
<text text-anchor="middle" x="763" y="-119" font-family="Helvetica,sans-Serif" font-size="10.00">AcMeshInfo</text>
</a>
</g>
</g>
<!-- Node3&#45;&gt;Node2 -->
<g id="edge2_Node000002_Node000003" class="edge">
<title>Node3&#45;&gt;Node2</title>
<g id="a_edge2_Node000002_Node000003"><a xlink:title=" ">
<path fill="none" stroke="#9a32cd" stroke-dasharray="5,2" d="M810.2,-121.5C845.44,-121.5 892.87,-121.5 922.82,-121.5"/>
<polygon fill="#9a32cd" stroke="#9a32cd" points="810.15,-118 800.15,-121.5 810.15,-125 810.15,-118"/>
</a>
</g>
<text text-anchor="middle" x="874.5" y="-124.5" font-family="Helvetica,sans-Serif" font-size="10.00" fill="grey"> local_config</text>
</g>
<!-- Node4 -->
<g id="Node000004" class="node">
<title>Node4</title>
<g id="a_Node000004"><a xlink:href="structAcMeshInfoLoaded.html" target="_top" xlink:title=" ">
<polygon fill="white" stroke="#666666" points="538,-56 429,-56 429,-37 538,-37 538,-56"/>
<text text-anchor="middle" x="483.5" y="-44" font-family="Helvetica,sans-Serif" font-size="10.00">AcMeshInfoLoaded</text>
</a>
</g>
</g>
<!-- Node4&#45;&gt;Node3 -->
<g id="edge3_Node000003_Node000004" class="edge">
<title>Node4&#45;&gt;Node3</title>
<g id="a_edge3_Node000003_Node000004"><a xlink:title=" ">
<path fill="none" stroke="#9a32cd" stroke-dasharray="5,2" d="M548.22,-44.92C589.1,-46.65 641.86,-54.22 682,-78.5 693.41,-85.4 689.09,-94.84 700,-102.5 707.65,-107.87 716.85,-111.76 725.8,-114.55"/>
<polygon fill="#9a32cd" stroke="#9a32cd" points="548.2,-41.42 538.09,-44.6 547.98,-48.42 548.2,-41.42"/>
</a>
</g>
<text text-anchor="middle" x="626" y="-81.5" font-family="Helvetica,sans-Serif" font-size="10.00" fill="grey"> is_loaded</text>
</g>
<!-- Node5 -->
<g id="Node000005" class="node">
<title>Node5</title>
<g id="a_Node000005"><a xlink:href="structAcCommunicator.html" target="_top" xlink:title=" ">
<polygon fill="white" stroke="#666666" points="534,-131 433,-131 433,-112 534,-112 534,-131"/>
<text text-anchor="middle" x="483.5" y="-119" font-family="Helvetica,sans-Serif" font-size="10.00">AcCommunicator</text>
</a>
</g>
</g>
<!-- Node5&#45;&gt;Node3 -->
<g id="edge4_Node000003_Node000005" class="edge">
<title>Node5&#45;&gt;Node3</title>
<g id="a_edge4_Node000003_Node000005"><a xlink:title=" ">
<path fill="none" stroke="#9a32cd" stroke-dasharray="5,2" d="M544.45,-121.5C599.59,-121.5 679.59,-121.5 725.64,-121.5"/>
<polygon fill="#9a32cd" stroke="#9a32cd" points="544.11,-118 534.11,-121.5 544.11,-125 544.11,-118"/>
</a>
</g>
<text text-anchor="middle" x="626" y="-124.5" font-family="Helvetica,sans-Serif" font-size="10.00" fill="grey"> comm</text>
</g>
<!-- Node6 -->
<g id="Node000006" class="node">
<title>Node6</title>
<g id="a_Node000006"><a xlink:href="structAcCompInfo.html" target="_top" xlink:title=" ">
<polygon fill="white" stroke="#666666" points="521.5,-93 445.5,-93 445.5,-74 521.5,-74 521.5,-93"/>
<text text-anchor="middle" x="483.5" y="-81" font-family="Helvetica,sans-Serif" font-size="10.00">AcCompInfo</text>
</a>
</g>
</g>
<!-- Node6&#45;&gt;Node3 -->
<g id="edge5_Node000003_Node000006" class="edge">
<title>Node6&#45;&gt;Node3</title>
<g id="a_edge5_Node000003_Node000006"><a xlink:title=" ">
<path fill="none" stroke="#9a32cd" stroke-dasharray="5,2" d="M531.75,-88.07C571.84,-92.17 630.82,-98.73 682,-106.5 696.39,-108.68 712.15,-111.54 725.85,-114.17"/>
<polygon fill="#9a32cd" stroke="#9a32cd" points="532.03,-84.58 521.73,-87.06 531.33,-91.55 532.03,-84.58"/>
</a>
</g>
<text text-anchor="middle" x="626" y="-109.5" font-family="Helvetica,sans-Serif" font-size="10.00" fill="grey"> run_consts</text>
</g>
<!-- Node7 -->
<g id="Node000007" class="node">
<title>Node7</title>
<g id="a_Node000007"><a xlink:href="structAcCompInfoConfig.html" target="_top" xlink:title=" ">
<polygon fill="white" stroke="#666666" points="260.5,-56 153.5,-56 153.5,-37 260.5,-37 260.5,-56"/>
<text text-anchor="middle" x="207" y="-44" font-family="Helvetica,sans-Serif" font-size="10.00">AcCompInfoConfig</text>
</a>
</g>
</g>
<!-- Node7&#45;&gt;Node6 -->
<g id="edge6_Node000006_Node000007" class="edge">
<title>Node7&#45;&gt;Node6</title>
<g id="a_edge6_Node000006_Node000007"><a xlink:title=" ">
<path fill="none" stroke="#9a32cd" stroke-dasharray="5,2" d="M270.75,-52.89C307.59,-56.86 355.02,-62.38 397,-68.5 412.81,-70.8 430.18,-73.77 445.12,-76.46"/>
<polygon fill="#9a32cd" stroke="#9a32cd" points="270.97,-49.39 260.65,-51.8 270.23,-56.35 270.97,-49.39"/>
</a>
</g>
<text text-anchor="middle" x="350.5" y="-71.5" font-family="Helvetica,sans-Serif" font-size="10.00" fill="grey"> config</text>
</g>
<!-- Node8 -->
<g id="Node000008" class="node">
<title>Node8</title>
<g id="a_Node000008"><a xlink:href="structAcCompInfoLoaded.html" target="_top" xlink:title=" ">
<polygon fill="white" stroke="#666666" points="262.5,-19 151.5,-19 151.5,0 262.5,0 262.5,-19"/>
<text text-anchor="middle" x="207" y="-7" font-family="Helvetica,sans-Serif" font-size="10.00">AcCompInfoLoaded</text>
</a>
</g>
</g>
<!-- Node8&#45;&gt;Node6 -->
<g id="edge7_Node000006_Node000008" class="edge">
<title>Node8&#45;&gt;Node6</title>
<g id="a_edge7_Node000006_Node000008"><a xlink:title=" ">
<path fill="none" stroke="#9a32cd" stroke-dasharray="5,2" d="M272.81,-9.71C311.2,-12.44 359.52,-20.59 397,-42.5 407.91,-48.88 404.43,-57.58 415,-64.5 424.06,-70.44 434.98,-74.54 445.38,-77.37"/>
<polygon fill="#9a32cd" stroke="#9a32cd" points="272.96,-6.21 262.77,-9.1 272.54,-13.2 272.96,-6.21"/>
</a>
</g>
<text text-anchor="middle" x="350.5" y="-45.5" font-family="Helvetica,sans-Serif" font-size="10.00" fill="grey"> is_loaded</text>
</g>
<!-- Node9 -->
<g id="Node000009" class="node">
<title>Node9</title>
<g id="a_Node000009"><a xlink:href="structAcCompInfoHasDefaultValue.html" target="_top" xlink:title=" ">
<polygon fill="white" stroke="#666666" points="286,-93 128,-93 128,-74 286,-74 286,-93"/>
<text text-anchor="middle" x="207" y="-81" font-family="Helvetica,sans-Serif" font-size="10.00">AcCompInfoHasDefaultValue</text>
</a>
</g>
</g>
<!-- Node9&#45;&gt;Node6 -->
<g id="edge8_Node000006_Node000009" class="edge">
<title>Node9&#45;&gt;Node6</title>
<g id="a_edge8_Node000006_Node000009"><a xlink:title=" ">
<path fill="none" stroke="#9a32cd" stroke-dasharray="5,2" d="M296.54,-83.5C346.85,-83.5 407.2,-83.5 445.2,-83.5"/>
<polygon fill="#9a32cd" stroke="#9a32cd" points="296.29,-80 286.29,-83.5 296.29,-87 296.29,-80"/>
</a>
</g>
<text text-anchor="middle" x="350.5" y="-86.5" font-family="Helvetica,sans-Serif" font-size="10.00" fill="grey"> has_default_value</text>
</g>
<!-- Node10 -->
<g id="Node000010" class="node">
<title>Node10</title>
<g id="a_Node000010"><a xlink:href="structAcInputs.html" target="_top" xlink:title=" ">
<polygon fill="white" stroke="#666666" points="792.5,-94 733.5,-94 733.5,-75 792.5,-75 792.5,-94"/>
<text text-anchor="middle" x="763" y="-82" font-family="Helvetica,sans-Serif" font-size="10.00">AcInputs</text>
</a>
</g>
</g>
<!-- Node10&#45;&gt;Node2 -->
<g id="edge9_Node000002_Node000010" class="edge">
<title>Node10&#45;&gt;Node2</title>
<g id="a_edge9_Node000002_Node000010"><a xlink:title=" ">
<path fill="none" stroke="#9a32cd" stroke-dasharray="5,2" d="M802.58,-88.86C831.1,-92.48 870.76,-98.36 905,-106.5 911.27,-107.99 917.92,-109.92 924.16,-111.89"/>
<polygon fill="#9a32cd" stroke="#9a32cd" points="802.97,-85.38 792.61,-87.63 802.11,-92.33 802.97,-85.38"/>
</a>
</g>
<text text-anchor="middle" x="874.5" y="-109.5" font-family="Helvetica,sans-Serif" font-size="10.00" fill="grey"> input</text>
</g>
<!-- Node11 -->
<g id="Node000011" class="node">
<title>Node11</title>
<g id="a_Node000011"><a xlink:href="structVertexBufferArray.html" target="_top" xlink:title=" ">
<polygon fill="white" stroke="#666666" points="815,-205 711,-205 711,-186 815,-186 815,-205"/>
<text text-anchor="middle" x="763" y="-193" font-family="Helvetica,sans-Serif" font-size="10.00">VertexBufferArray</text>
</a>
</g>
</g>
<!-- Node11&#45;&gt;Node2 -->
<g id="edge10_Node000002_Node000011" class="edge">
<title>Node11&#45;&gt;Node2</title>
<g id="a_edge10_Node000002_Node000011"><a xlink:title=" ">
<path fill="none" stroke="#9a32cd" stroke-dasharray="5,2" d="M797.56,-182.26C834.83,-167.54 894.1,-144.15 927.17,-131.1"/>
<polygon fill="#9a32cd" stroke="#9a32cd" points="796.15,-179.05 788.13,-185.98 798.72,-185.56 796.15,-179.05"/>
</a>
</g>
<text text-anchor="middle" x="874.5" y="-166.5" font-family="Helvetica,sans-Serif" font-size="10.00" fill="grey"> vba</text>
</g>
<!-- Node12 -->
<g id="Node000012" class="node">
<title>Node12</title>
<g id="a_Node000012"><a xlink:href="structAcMeshDims.html" target="_top" xlink:title=" ">
<polygon fill="white" stroke="#666666" points="523.5,-321 443.5,-321 443.5,-302 523.5,-302 523.5,-321"/>
<text text-anchor="middle" x="483.5" y="-309" font-family="Helvetica,sans-Serif" font-size="10.00">AcMeshDims</text>
</a>
</g>
</g>
<!-- Node12&#45;&gt;Node11 -->
<g id="edge11_Node000011_Node000012" class="edge">
<title>Node12&#45;&gt;Node11</title>
<g id="a_edge11_Node000011_Node000012"><a xlink:title=" ">
<path fill="none" stroke="#9a32cd" stroke-dasharray="5,2" d="M533.8,-313.21C575.56,-312.64 635.83,-306.92 682,-282.5 717.19,-263.89 744.99,-223.52 756.39,-205.06"/>
<polygon fill="#9a32cd" stroke="#9a32cd" points="533.59,-309.71 523.6,-313.25 533.62,-316.71 533.59,-309.71"/>
</a>
</g>
<text text-anchor="middle" x="626" y="-336.5" font-family="Helvetica,sans-Serif" font-size="10.00" fill="grey"> computational_dims</text>
<text text-anchor="middle" x="626" y="-325.5" font-family="Helvetica,sans-Serif" font-size="10.00" fill="grey">dims</text>
<text text-anchor="middle" x="626" y="-314.5" font-family="Helvetica,sans-Serif" font-size="10.00" fill="grey">profile_dims</text>
</g>
<!-- Node13 -->
<g id="Node000013" class="node">
<title>Node13</title>
<g id="a_Node000013"><a xlink:href="structVolume.html" target="_top" xlink:title=" ">
<polygon fill="white" stroke="#666666" points="233.5,-302 180.5,-302 180.5,-283 233.5,-283 233.5,-302"/>
<text text-anchor="middle" x="207" y="-290" font-family="Helvetica,sans-Serif" font-size="10.00">Volume</text>
</a>
</g>
</g>
<!-- Node13&#45;&gt;Node12 -->
<g id="edge12_Node000012_Node000013" class="edge">
<title>Node13&#45;&gt;Node12</title>
<g id="a_edge12_Node000012_Node000013"><a xlink:title=" ">
<path fill="none" stroke="#9a32cd" stroke-dasharray="5,2" d="M243.84,-294.98C295.39,-298.55 390.12,-305.11 443.41,-308.79"/>
<polygon fill="#9a32cd" stroke="#9a32cd" points="244.04,-291.49 233.82,-294.29 243.56,-298.47 244.04,-291.49"/>
</a>
</g>
<text text-anchor="middle" x="350.5" y="-374.5" font-family="Helvetica,sans-Serif" font-size="10.00" fill="grey"> m0</text>
<text text-anchor="middle" x="350.5" y="-363.5" font-family="Helvetica,sans-Serif" font-size="10.00" fill="grey">m1</text>
<text text-anchor="middle" x="350.5" y="-352.5" font-family="Helvetica,sans-Serif" font-size="10.00" fill="grey">n0</text>
<text text-anchor="middle" x="350.5" y="-341.5" font-family="Helvetica,sans-Serif" font-size="10.00" fill="grey">n1</text>
<text text-anchor="middle" x="350.5" y="-330.5" font-family="Helvetica,sans-Serif" font-size="10.00" fill="grey">nn</text>
<text text-anchor="start" x="327.5" y="-319.5" font-family="Helvetica,sans-Serif" font-size="10.00" fill="grey">reduction</text>
<text text-anchor="middle" x="350.5" y="-308.5" font-family="Helvetica,sans-Serif" font-size="10.00" fill="grey">_tile</text>
</g>
<!-- Node23 -->
<g id="Node000023" class="node">
<title>Node23</title>
<g id="a_Node000023"><a xlink:href="structGridDims.html" target="_top" xlink:title=" ">
<polygon fill="white" stroke="#666666" points="657,-274 595,-274 595,-255 657,-255 657,-274"/>
<text text-anchor="middle" x="626" y="-262" font-family="Helvetica,sans-Serif" font-size="10.00">GridDims</text>
</a>
</g>
</g>
<!-- Node13&#45;&gt;Node23 -->
<g id="edge23_Node000023_Node000013" class="edge">
<title>Node13&#45;&gt;Node23</title>
<g id="a_edge23_Node000023_Node000013"><a xlink:title=" ">
<path fill="none" stroke="#9a32cd" stroke-dasharray="5,2" d="M243.67,-283.96C261.66,-280.04 283.86,-275.76 304,-273.5 410.37,-261.57 537.75,-262.47 594.79,-263.67"/>
<polygon fill="#9a32cd" stroke="#9a32cd" points="242.89,-280.55 233.89,-286.15 244.42,-287.38 242.89,-280.55"/>
</a>
</g>
<text text-anchor="middle" x="350.5" y="-287.5" font-family="Helvetica,sans-Serif" font-size="10.00" fill="grey"> m</text>
<text text-anchor="middle" x="350.5" y="-276.5" font-family="Helvetica,sans-Serif" font-size="10.00" fill="grey">n</text>
</g>
<!-- Node14 -->
<g id="Node000014" class="node">
<title>Node14</title>
<g id="a_Node000014"><a xlink:href="structDeviceVertexBufferArray.html" target="_top" xlink:title=" ">
<polygon fill="white" stroke="#666666" points="552,-168 415,-168 415,-149 552,-149 552,-168"/>
<text text-anchor="middle" x="483.5" y="-156" font-family="Helvetica,sans-Serif" font-size="10.00">DeviceVertexBufferArray</text>
</a>
</g>
</g>
<!-- Node14&#45;&gt;Node11 -->
<g id="edge13_Node000011_Node000014" class="edge">
<title>Node14&#45;&gt;Node11</title>
<g id="a_edge13_Node000011_Node000014"><a xlink:title=" ">
<path fill="none" stroke="#9a32cd" stroke-dasharray="5,2" d="M562.37,-165.82C598.79,-169.59 642.7,-174.64 682,-180.5 692.48,-182.06 703.69,-184 714.3,-185.95"/>
<polygon fill="#9a32cd" stroke="#9a32cd" points="562.61,-162.33 552.3,-164.79 561.89,-169.29 562.61,-162.33"/>
</a>
</g>
<text text-anchor="middle" x="626" y="-183.5" font-family="Helvetica,sans-Serif" font-size="10.00" fill="grey"> on_device</text>
</g>
<!-- Node15 -->
<g id="Node000015" class="node">
<title>Node15</title>
<g id="a_Node000015"><a xlink:href="structAcComplex.html" target="_top" xlink:title=" ">
<polygon fill="white" stroke="#666666" points="243,-204 171,-204 171,-185 243,-185 243,-204"/>
<text text-anchor="middle" x="207" y="-192" font-family="Helvetica,sans-Serif" font-size="10.00">AcComplex</text>
</a>
</g>
</g>
<!-- Node15&#45;&gt;Node14 -->
<g id="edge14_Node000014_Node000015" class="edge">
<title>Node15&#45;&gt;Node14</title>
<g id="a_edge14_Node000014_Node000015"><a xlink:title=" ">
<path fill="none" stroke="#9a32cd" stroke-dasharray="5,2" d="M253.14,-188.58C297.1,-182.82 364.45,-173.98 414.82,-167.38"/>
<polygon fill="#9a32cd" stroke="#9a32cd" points="252.5,-185.13 243.04,-189.9 253.41,-192.07 252.5,-185.13"/>
</a>
</g>
<text text-anchor="middle" x="350.5" y="-185.5" font-family="Helvetica,sans-Serif" font-size="10.00" fill="grey"> complex_in</text>
</g>
<!-- Node16 -->
<g id="Node000016" class="node">
<title>Node16</title>
<g id="a_Node000016"><a xlink:href="structProfileBufferArray.html" target="_top" xlink:title=" ">
<polygon fill="white" stroke="#666666" points="258.5,-167 155.5,-167 155.5,-148 258.5,-148 258.5,-167"/>
<text text-anchor="middle" x="207" y="-155" font-family="Helvetica,sans-Serif" font-size="10.00">ProfileBufferArray</text>
</a>
</g>
</g>
<!-- Node16&#45;&gt;Node14 -->
<g id="edge15_Node000014_Node000016" class="edge">
<title>Node16&#45;&gt;Node14</title>
<g id="a_edge15_Node000014_Node000016"><a xlink:title=" ">
<path fill="none" stroke="#9a32cd" stroke-dasharray="5,2" d="M268.76,-157.72C311.99,-157.88 370.08,-158.09 414.79,-158.25"/>
<polygon fill="#9a32cd" stroke="#9a32cd" points="268.68,-154.22 258.67,-157.68 268.65,-161.22 268.68,-154.22"/>
</a>
</g>
<text text-anchor="middle" x="350.5" y="-161.5" font-family="Helvetica,sans-Serif" font-size="10.00" fill="grey"> profiles</text>
</g>
<!-- Node17 -->
<g id="Node000017" class="node">
<title>Node17</title>
<g id="a_Node000017"><a xlink:href="structint3.html" target="_top" xlink:title=" ">
<polygon fill="white" stroke="#666666" points="224.5,-130 189.5,-130 189.5,-111 224.5,-111 224.5,-130"/>
<text text-anchor="middle" x="207" y="-118" font-family="Helvetica,sans-Serif" font-size="10.00">int3</text>
</a>
</g>
</g>
<!-- Node17&#45;&gt;Node14 -->
<g id="edge16_Node000014_Node000017" class="edge">
<title>Node17&#45;&gt;Node14</title>
<g id="a_edge16_Node000014_Node000017"><a xlink:title=" ">
<path fill="none" stroke="#9a32cd" stroke-dasharray="5,2" d="M235.09,-123.34C271.85,-127.31 339.52,-134.97 397,-143.5 407.88,-145.12 419.51,-147.03 430.57,-148.94"/>
<polygon fill="#9a32cd" stroke="#9a32cd" points="235.04,-119.82 224.73,-122.24 234.3,-126.78 235.04,-119.82"/>
</a>
</g>
<text text-anchor="middle" x="350.5" y="-146.5" font-family="Helvetica,sans-Serif" font-size="10.00" fill="grey"> block_factor</text>
</g>
<!-- Node18 -->
<g id="Node000018" class="node">
<title>Node18</title>
<g id="a_Node000018"><a xlink:href="structAcScratchpadStates.html" target="_top" xlink:title=" ">
<polygon fill="white" stroke="#666666" points="540,-242 427,-242 427,-223 540,-223 540,-242"/>
<text text-anchor="middle" x="483.5" y="-230" font-family="Helvetica,sans-Serif" font-size="10.00">AcScratchpadStates</text>
</a>
</g>
</g>
<!-- Node18&#45;&gt;Node11 -->
<g id="edge17_Node000011_Node000018" class="edge">
<title>Node18&#45;&gt;Node11</title>
<g id="a_edge17_Node000011_Node000018"><a xlink:title=" ">
<path fill="none" stroke="#9a32cd" stroke-dasharray="5,2" d="M550.44,-226.39C588.9,-222.52 638.3,-217.02 682,-210.5 692.48,-208.94 703.69,-207 714.3,-205.05"/>
<polygon fill="#9a32cd" stroke="#9a32cd" points="550.01,-222.92 540.4,-227.39 550.7,-229.89 550.01,-222.92"/>
</a>
</g>
<text text-anchor="middle" x="626" y="-227.5" font-family="Helvetica,sans-Serif" font-size="10.00" fill="grey"> scratchpad_states</text>
</g>
<!-- Node19 -->
<g id="Node000019" class="node">
<title>Node19</title>
<g id="a_Node000019"><a xlink:href="structAcReduceBuffer.html" target="_top" xlink:title=" ">
<polygon fill="white" stroke="#666666" points="530.5,-205 436.5,-205 436.5,-186 530.5,-186 530.5,-205"/>
<text text-anchor="middle" x="483.5" y="-193" font-family="Helvetica,sans-Serif" font-size="10.00">AcReduceBuffer</text>
</a>
</g>
</g>
<!-- Node19&#45;&gt;Node11 -->
<g id="edge18_Node000011_Node000019" class="edge">
<title>Node19&#45;&gt;Node11</title>
<g id="a_edge18_Node000011_Node000019"><a xlink:title=" ">
<path fill="none" stroke="#9a32cd" stroke-dasharray="5,2" d="M540.89,-195.5C590.6,-195.5 662.4,-195.5 710.56,-195.5"/>
<polygon fill="#9a32cd" stroke="#9a32cd" points="540.64,-192 530.63,-195.5 540.63,-199 540.64,-192"/>
</a>
</g>
<text text-anchor="middle" x="626" y="-198.5" font-family="Helvetica,sans-Serif" font-size="10.00" fill="grey"> profile_reduce_buffers</text>
</g>
<!-- Node20 -->
<g id="Node000020" class="node">
<title>Node20</title>
<g id="a_Node000020"><a xlink:href="structAcBuffer.html" target="_top" xlink:title=" ">
<polygon fill="white" stroke="#666666" points="236,-241 178,-241 178,-222 236,-222 236,-241"/>
<text text-anchor="middle" x="207" y="-229" font-family="Helvetica,sans-Serif" font-size="10.00">AcBuffer</text>
</a>
</g>
</g>
<!-- Node20&#45;&gt;Node19 -->
<g id="edge19_Node000019_Node000020" class="edge">
<title>Node20&#45;&gt;Node19</title>
<g id="a_edge19_Node000019_Node000020"><a xlink:title=" ">
<path fill="none" stroke="#9a32cd" stroke-dasharray="5,2" d="M246.12,-226.5C295.93,-219.97 383.08,-208.54 436.5,-201.53"/>
<polygon fill="#9a32cd" stroke="#9a32cd" points="245.55,-223.05 236.09,-227.82 246.46,-229.99 245.55,-223.05"/>
</a>
</g>
<text text-anchor="middle" x="350.5" y="-233.5" font-family="Helvetica,sans-Serif" font-size="10.00" fill="grey"> src</text>
<text text-anchor="middle" x="350.5" y="-222.5" font-family="Helvetica,sans-Serif" font-size="10.00" fill="grey">transposed</text>
</g>
<!-- Node21 -->
<g id="Node000021" class="node">
<title>Node21</title>
<g id="a_Node000021"><a xlink:href="structAcShape.html" target="_top" xlink:title=" ">
<polygon fill="white" stroke="#666666" points="59,-241 0,-241 0,-222 59,-222 59,-241"/>
<text text-anchor="middle" x="29.5" y="-229" font-family="Helvetica,sans-Serif" font-size="10.00">AcShape</text>
</a>
</g>
</g>
<!-- Node21&#45;&gt;Node20 -->
<g id="edge20_Node000020_Node000021" class="edge">
<title>Node21&#45;&gt;Node20</title>
<g id="a_edge20_Node000020_Node000021"><a xlink:title=" ">
<path fill="none" stroke="#9a32cd" stroke-dasharray="5,2" d="M69.23,-231.5C102.03,-231.5 148.29,-231.5 177.72,-231.5"/>
<polygon fill="#9a32cd" stroke="#9a32cd" points="69.09,-228 59.09,-231.5 69.09,-235 69.09,-228"/>
</a>
</g>
<text text-anchor="middle" x="93.5" y="-234.5" font-family="Helvetica,sans-Serif" font-size="10.00" fill="grey"> shape</text>
</g>
<!-- Node22 -->
<g id="Node000022" class="node">
<title>Node22</title>
<g id="a_Node000022"><a xlink:href="structAcDeviceKernelOutput.html" target="_top" xlink:title=" ">
<polygon fill="white" stroke="#666666" points="826,-57 700,-57 700,-38 826,-38 826,-57"/>
<text text-anchor="middle" x="763" y="-45" font-family="Helvetica,sans-Serif" font-size="10.00">AcDeviceKernelOutput</text>
</a>
</g>
</g>
<!-- Node22&#45;&gt;Node2 -->
<g id="edge21_Node000002_Node000022" class="edge">
<title>Node22&#45;&gt;Node2</title>
<g id="a_edge21_Node000002_Node000022"><a xlink:title=" ">
<path fill="none" stroke="#9a32cd" stroke-dasharray="5,2" d="M836.33,-57.32C859.14,-62.26 883.88,-69.61 905,-80.5 920.3,-88.39 934.64,-102.44 943.24,-111.86"/>
<polygon fill="#9a32cd" stroke="#9a32cd" points="836.84,-53.86 826.34,-55.29 835.44,-60.71 836.84,-53.86"/>
</a>
</g>
<text text-anchor="middle" x="874.5" y="-83.5" font-family="Helvetica,sans-Serif" font-size="10.00" fill="grey"> output</text>
</g>
<!-- Node23&#45;&gt;Node1 -->
<g id="edge22_Node000001_Node000023" class="edge">
<title>Node23&#45;&gt;Node1</title>
<g id="a_edge22_Node000001_Node000023"><a xlink:title=" ">
<path fill="none" stroke="#9a32cd" stroke-dasharray="5,2" d="M667.19,-257.84C753.9,-243.48 958.77,-209.54 1058.9,-192.96"/>
<polygon fill="#9a32cd" stroke="#9a32cd" points="666.51,-254.41 657.22,-259.49 667.66,-261.31 666.51,-254.41"/>
</a>
</g>
<text text-anchor="middle" x="874.5" y="-242.5" font-family="Helvetica,sans-Serif" font-size="10.00" fill="grey"> grid</text>
<text text-anchor="middle" x="874.5" y="-231.5" font-family="Helvetica,sans-Serif" font-size="10.00" fill="grey">subgrid</text>
</g>
</g>
</svg>

<g id="navigator" transform="translate(0 0)" fill="#404254">
  <rect fill="#f2f5e9" fill-opacity="0.5" stroke="#606060" stroke-width=".5" x="0" y="0" width="60" height="60"/>
  <use id="zoomplus" xlink:href="#zoomPlus" x="17" y="9" onmousedown="handleZoom(evt,'in')"/>
  <use id="zoomminus" xlink:href="#zoomMin" x="42" y="9" onmousedown="handleZoom(evt,'out')"/>
  <use id="reset" xlink:href="#resetDef" x="30" y="36" onmousedown="handleReset()"/>
   <use id="arrowup" xlink:href="#arrowUp" x="0" y="0" onmousedown="handlePan(0,-1)"/>
  <use id="arrowright" xlink:href="#arrowRight" x="0" y="0" onmousedown="handlePan(1,0)"/>
  <use id="arrowdown" xlink:href="#arrowDown" x="0" y="0" onmousedown="handlePan(0,1)"/>
  <use id="arrowleft" xlink:href="#arrowLeft" x="0" y="0" onmousedown="handlePan(-1,0)"/>
</g>
<svg viewBox="0 0 15 15" width="100%" height="30px" preserveAspectRatio="xMaxYMin meet">
 <g id="arrow_out" transform="scale(0.3 0.3)">
  <a xlink:href="structDeviceConfiguration__coll__graph_org.svg" target="_base">
   <rect id="button" ry="5" rx="5" y="6" x="6" height="38" width="38"
        fill="#f2f5e9" fill-opacity="0.5" stroke="#606060" stroke-width="1.0"/>
   <path id="arrow"
     d="M 11.500037,31.436501 C 11.940474,20.09759 22.043105,11.32322 32.158766,21.979434 L 37.068811,17.246167 C 37.068811,17.246167 37.088388,32 37.088388,32 L 22.160133,31.978069 C 22.160133,31.978069 26.997745,27.140456 26.997745,27.140456 C 18.528582,18.264221 13.291696,25.230495 11.500037,31.436501 z"
     style="fill:#404040;"/>
  </a>
 </g>
</svg>

<style type='text/css'>
<![CDATA[
[data-mouse-over-selected='false'] { opacity: 0.7; }
[data-mouse-over-selected='true']  { opacity: 1.0; }
]]>
</style>
<script type="application/ecmascript"><![CDATA[
document.addEventListener('DOMContentLoaded', (event) => {
  highlightEdges();
  highlightAdjacentNodes();
});
]]></script>
</svg>
