<?xml version="1.0" encoding="UTF-8" standalone="no"?>
<!DOCTYPE svg PUBLIC "-//W3C//DTD SVG 1.1//EN"
 "http://www.w3.org/Graphics/SVG/1.1/DTD/svg11.dtd">
<!-- Generated by graphviz version 2.43.0 (0)
 -->
<!-- Title: AcMeshInfo Pages: 1 -->
<svg width="525pt" height="159pt"
 viewBox="0.00 0.00 524.50 159.00" xmlns="http://www.w3.org/2000/svg" xmlns:xlink="http://www.w3.org/1999/xlink">
<g id="graph0" class="graph" transform="scale(1 1) rotate(0) translate(4 155)">
<title>AcMeshInfo</title>
<!-- Node1 -->
<g id="Node000001" class="node">
<title>Node1</title>
<g id="a_Node000001"><a xlink:title=" ">
<polygon fill="#999999" stroke="#666666" points="214.5,-19 140.5,-19 140.5,0 214.5,0 214.5,-19"/>
<text text-anchor="middle" x="177.5" y="-7" font-family="Helvetica,sans-Serif" font-size="10.00">AcMeshInfo</text>
</a>
</g>
</g>
<!-- Node2 -->
<g id="Node000002" class="node">
<title>Node2</title>
<g id="a_Node000002"><a xlink:href="structAcMeshInfoLoaded.html" target="_top" xlink:title=" ">
<polygon fill="white" stroke="#666666" points="109,-85 0,-85 0,-66 109,-66 109,-85"/>
<text text-anchor="middle" x="54.5" y="-73" font-family="Helvetica,sans-Serif" font-size="10.00">AcMeshInfoLoaded</text>
</a>
</g>
</g>
<!-- Node2&#45;&gt;Node1 -->
<g id="edge1_Node000001_Node000002" class="edge">
<title>Node2&#45;&gt;Node1</title>
<g id="a_edge1_Node000001_Node000002"><a xlink:title=" ">
<path fill="none" stroke="#9a32cd" stroke-dasharray="5,2" d="M78.66,-61.05C91.84,-53.79 108.49,-44.76 123.5,-37 135.37,-30.86 148.87,-24.24 159.41,-19.15"/>
<polygon fill="#9a32cd" stroke="#9a32cd" points="76.81,-58.07 69.75,-65.98 80.19,-64.2 76.81,-58.07"/>
</a>
</g>
<text text-anchor="middle" x="148.5" y="-40" font-family="Helvetica,sans-Serif" font-size="10.00" fill="grey"> is_loaded</text>
</g>
<!-- Node3 -->
<g id="Node000003" class="node">
<title>Node3</title>
<g id="a_Node000003"><a xlink:href="structAcCommunicator.html" target="_top" xlink:title=" ">
<polygon fill="white" stroke="#666666" points="228,-85 127,-85 127,-66 228,-66 228,-85"/>
<text text-anchor="middle" x="177.5" y="-73" font-family="Helvetica,sans-Serif" font-size="10.00">AcCommunicator</text>
</a>
</g>
</g>
<!-- Node3&#45;&gt;Node1 -->
<g id="edge2_Node000001_Node000003" class="edge">
<title>Node3&#45;&gt;Node1</title>
<g id="a_edge2_Node000001_Node000003"><a xlink:title=" ">
<path fill="none" stroke="#9a32cd" stroke-dasharray="5,2" d="M177.5,-55.58C177.5,-43.63 177.5,-28.72 177.5,-19.41"/>
<polygon fill="#9a32cd" stroke="#9a32cd" points="174,-55.87 177.5,-65.87 181,-55.87 174,-55.87"/>
</a>
</g>
<text text-anchor="middle" x="194.5" y="-40" font-family="Helvetica,sans-Serif" font-size="10.00" fill="grey"> comm</text>
</g>
<!-- Node4 -->
<g id="Node000004" class="node">
<title>Node4</title>
<g id="a_Node000004"><a xlink:href="structAcCompInfo.html" target="_top" xlink:title=" ">
<polygon fill="white" stroke="#666666" points="322.5,-85 246.5,-85 246.5,-66 322.5,-66 322.5,-85"/>
<text text-anchor="middle" x="284.5" y="-73" font-family="Helvetica,sans-Serif" font-size="10.00">AcCompInfo</text>
</a>
</g>
</g>
<!-- Node4&#45;&gt;Node1 -->
<g id="edge3_Node000001_Node000004" class="edge">
<title>Node4&#45;&gt;Node1</title>
<g id="a_edge3_Node000001_Node000004"><a xlink:title=" ">
<path fill="none" stroke="#9a32cd" stroke-dasharray="5,2" d="M261.41,-60.69C240.35,-48.09 209.89,-29.87 192.04,-19.2"/>
<polygon fill="#9a32cd" stroke="#9a32cd" points="259.69,-63.74 270.07,-65.87 263.28,-57.73 259.69,-63.74"/>
</a>
</g>
<text text-anchor="middle" x="265.5" y="-40" font-family="Helvetica,sans-Serif" font-size="10.00" fill="grey"> run_consts</text>
</g>
<!-- Node5 -->
<g id="Node000005" class="node">
<title>Node5</title>
<g id="a_Node000005"><a xlink:href="structAcCompInfoConfig.html" target="_top" xlink:title=" ">
<polygon fill="white" stroke="#666666" points="211,-151 104,-151 104,-132 211,-132 211,-151"/>
<text text-anchor="middle" x="157.5" y="-139" font-family="Helvetica,sans-Serif" font-size="10.00">AcCompInfoConfig</text>
</a>
</g>
</g>
<!-- Node5&#45;&gt;Node4 -->
<g id="edge4_Node000004_Node000005" class="edge">
<title>Node5&#45;&gt;Node4</title>
<g id="a_edge4_Node000004_Node000005"><a xlink:title=" ">
<path fill="none" stroke="#9a32cd" stroke-dasharray="5,2" d="M183.57,-127.36C208.6,-114.75 245.68,-96.06 267.24,-85.2"/>
<polygon fill="#9a32cd" stroke="#9a32cd" points="181.98,-124.24 174.63,-131.87 185.13,-130.49 181.98,-124.24"/>
</a>
</g>
<text text-anchor="middle" x="246" y="-106" font-family="Helvetica,sans-Serif" font-size="10.00" fill="grey"> config</text>
</g>
<!-- Node6 -->
<g id="Node000006" class="node">
<title>Node6</title>
<g id="a_Node000006"><a xlink:href="structAcCompInfoLoaded.html" target="_top" xlink:title=" ">
<polygon fill="white" stroke="#666666" points="340,-151 229,-151 229,-132 340,-132 340,-151"/>
<text text-anchor="middle" x="284.5" y="-139" font-family="Helvetica,sans-Serif" font-size="10.00">AcCompInfoLoaded</text>
</a>
</g>
</g>
<!-- Node6&#45;&gt;Node4 -->
<g id="edge5_Node000004_Node000006" class="edge">
<title>Node6&#45;&gt;Node4</title>
<g id="a_edge5_Node000004_Node000006"><a xlink:title=" ">
<path fill="none" stroke="#9a32cd" stroke-dasharray="5,2" d="M284.5,-121.58C284.5,-109.63 284.5,-94.72 284.5,-85.41"/>
<polygon fill="#9a32cd" stroke="#9a32cd" points="281,-121.87 284.5,-131.87 288,-121.87 281,-121.87"/>
</a>
</g>
<text text-anchor="middle" x="309.5" y="-106" font-family="Helvetica,sans-Serif" font-size="10.00" fill="grey"> is_loaded</text>
</g>
<!-- Node7 -->
<g id="Node000007" class="node">
<title>Node7</title>
<g id="a_Node000007"><a xlink:href="structAcCompInfoHasDefaultValue.html" target="_top" xlink:title=" ">
<polygon fill="white" stroke="#666666" points="516.5,-151 358.5,-151 358.5,-132 516.5,-132 516.5,-151"/>
<text text-anchor="middle" x="437.5" y="-139" font-family="Helvetica,sans-Serif" font-size="10.00">AcCompInfoHasDefaultValue</text>
</a>
</g>
</g>
<!-- Node7&#45;&gt;Node4 -->
<g id="edge6_Node000004_Node000007" class="edge">
<title>Node7&#45;&gt;Node4</title>
<g id="a_edge6_Node000004_Node000007"><a xlink:title=" ">
<path fill="none" stroke="#9a32cd" stroke-dasharray="5,2" d="M407.28,-127.86C377.13,-115.25 331.61,-96.21 305.3,-85.2"/>
<polygon fill="#9a32cd" stroke="#9a32cd" points="406.29,-131.24 416.87,-131.87 408.99,-124.78 406.29,-131.24"/>
</a>
</g>
<text text-anchor="middle" x="416" y="-106" font-family="Helvetica,sans-Serif" font-size="10.00" fill="grey"> has_default_value</text>
</g>
</g>
</svg>
