<?xml version="1.0" encoding="UTF-8" standalone="no"?>
<!DOCTYPE svg PUBLIC "-//W3C//DTD SVG 1.1//EN"
 "http://www.w3.org/Graphics/SVG/1.1/DTD/svg11.dtd">
<!-- Generated by graphviz version 2.43.0 (0)
 -->
<!-- Title: node_s Pages: 1 -->
<!--zoomable 395 -->

<svg id="main" version="1.1" xmlns="http://www.w3.org/2000/svg" xmlns:xlink="http://www.w3.org/1999/xlink" xml:space="preserve" onload="init(evt)">
<style type="text/css"><![CDATA[
.node, .edge {opacity: 0.7;}
.node.selected, .edge.selected {opacity: 1;}
.edge:hover path { stroke: red; }
.edge:hover polygon { stroke: red; fill: red; }
]]></style>

<defs>
  <circle id="rim" cx="0" cy="0" r="7"/>
  <circle id="rim2" cx="0" cy="0" r="3.5"/>
  <g id="zoomPlus">
    <use xlink:href="#rim" fill="#404040"><set attributeName="fill" to="#808080" begin="zoomplus.mouseover" end="zoomplus.mouseout"/></use>
    <path d="M-4,0h8M0,-4v8" fill="none" stroke="white" stroke-width="1.5" pointer-events="none"/>
  </g>
  <g id="zoomMin">
    <use xlink:href="#rim" fill="#404040"><set attributeName="fill" to="#808080" begin="zoomminus.mouseover" end="zoomminus.mouseout"/></use>
    <path d="M-4,0h8" fill="none" stroke="white" stroke-width="1.5" pointer-events="none"/>
  </g>
  <g id="arrowUp" transform="translate(30 24)">
    <use xlink:href="#rim"/>
    <path pointer-events="none" fill="none" stroke="white" stroke-width="1.5" d="M0,-3.0v7 M-2.5,-0.5L0,-3.0L2.5,-0.5"/>
  </g>
  <g id="arrowRight" transform="rotate(90) translate(36 -43)">
    <use xlink:href="#rim"/>
    <path pointer-events="none" fill="none" stroke="white" stroke-width="1.5" d="M0,-3.0v7 M-2.5,-0.5L0,-3.0L2.5,-0.5"/>
  </g>
  <g id="arrowDown" transform="rotate(180) translate(-30 -48)">
    <use xlink:href="#rim"/>
    <path pointer-events="none" fill="none" stroke="white" stroke-width="1.5" d="M0,-3.0v7 M-2.5,-0.5L0,-3.0L2.5,-0.5"/>
  </g>
  <g id="arrowLeft" transform="rotate(270) translate(-36 17)">
    <use xlink:href="#rim"/>
    <path pointer-events="none" fill="none" stroke="white" stroke-width="1.5" d="M0,-3.0v7 M-2.5,-0.5L0,-3.0L2.5,-0.5"/>
  </g>
  <g id="resetDef">
    <use xlink:href="#rim2" fill="#404040"><set attributeName="fill" to="#808080" begin="reset.mouseover" end="reset.mouseout"/></use>
  </g>
</defs>
<script type="application/ecmascript">
var viewWidth = 1118;
var viewHeight = 395;
var sectionId = 'dynsection-0';
</script>
<script type="application/ecmascript" xlink:href="svg.min.js"/>
<svg id="graph" class="graph">
<g id="viewport">
<title>node_s</title>
<!-- Node1 -->
<g id="Node000001" class="node">
<title>Node1</title>
<g id="a_Node000001"><a xlink:title=" ">
<polygon fill="#999999" stroke="#666666" points="1110,-221 1059,-221 1059,-202 1110,-202 1110,-221"/>
<text text-anchor="middle" x="1084.5" y="-209" font-family="Helvetica,sans-Serif" font-size="10.00">node_s</text>
</a>
</g>
</g>
<!-- Node2 -->
<g id="Node000002" class="node">
<title>Node2</title>
<g id="a_Node000002"><a xlink:href="structdevice__s.html" target="_top" xlink:title=" ">
<polygon fill="white" stroke="#666666" points="982,-148 923,-148 923,-129 982,-129 982,-148"/>
<text text-anchor="middle" x="952.5" y="-136" font-family="Helvetica,sans-Serif" font-size="10.00">device_s</text>
</a>
</g>
</g>
<!-- Node2&#45;&gt;Node1 -->
<g id="edge1_Node000001_Node000002" class="edge">
<title>Node2&#45;&gt;Node1</title>
<g id="a_edge1_Node000001_Node000002"><a xlink:title=" ">
<path fill="none" stroke="#9a32cd" stroke-dasharray="5,2" d="M980.36,-152.97C997.73,-162.39 1020.79,-175.02 1041,-186.5 1049.78,-191.49 1059.5,-197.19 1067.42,-201.89"/>
<polygon fill="#9a32cd" stroke="#9a32cd" points="981.81,-149.77 971.35,-148.09 978.48,-155.93 981.81,-149.77"/>
</a>
</g>
<text text-anchor="middle" x="1020.5" y="-189.5" font-family="Helvetica,sans-Serif" font-size="10.00" fill="grey"> devices</text>
</g>
<!-- Node3 -->
<g id="Node000003" class="node">
<title>Node3</title>
<g id="a_Node000003"><a xlink:href="structAcMeshInfo.html" target="_top" xlink:title=" ">
<polygon fill="white" stroke="#666666" points="800,-292 726,-292 726,-273 800,-273 800,-292"/>
<text text-anchor="middle" x="763" y="-280" font-family="Helvetica,sans-Serif" font-size="10.00">AcMeshInfo</text>
</a>
</g>
</g>
<!-- Node3&#45;&gt;Node1 -->
<g id="edge23_Node000001_Node000003" class="edge">
<title>Node3&#45;&gt;Node1</title>
<g id="a_edge23_Node000001_Node000003"><a xlink:title=" ">
<path fill="none" stroke="#9a32cd" stroke-dasharray="5,2" d="M810.43,-280.32C838.1,-278.42 873.8,-274.91 905,-268.5 967.1,-255.74 980.67,-244.97 1041,-225.5 1046.77,-223.64 1052.96,-221.61 1058.8,-219.69"/>
<polygon fill="#9a32cd" stroke="#9a32cd" points="810,-276.84 800.24,-280.97 810.44,-283.82 810,-276.84"/>
</a>
</g>
<text text-anchor="middle" x="952.5" y="-266.5" font-family="Helvetica,sans-Serif" font-size="10.00" fill="grey"> config</text>
</g>
<!-- Node3&#45;&gt;Node2 -->
<g id="edge2_Node000002_Node000003" class="edge">
<title>Node3&#45;&gt;Node2</title>
<g id="a_edge2_Node000002_Node000003"><a xlink:title=" ">
<path fill="none" stroke="#9a32cd" stroke-dasharray="5,2" d="M803.68,-269.82C843.97,-256.82 901.02,-238.02 905,-234.5 932.06,-210.58 944.87,-167.4 949.45,-148.18"/>
<polygon fill="#9a32cd" stroke="#9a32cd" points="802.54,-266.51 794.09,-272.91 804.68,-273.18 802.54,-266.51"/>
</a>
</g>
<text text-anchor="middle" x="874.5" y="-258.5" font-family="Helvetica,sans-Serif" font-size="10.00" fill="grey"> local_config</text>
</g>
<!-- Node4 -->
<g id="Node000004" class="node">
<title>Node4</title>
<g id="a_Node000004"><a xlink:href="structAcMeshInfoLoaded.html" target="_top" xlink:title=" ">
<polygon fill="white" stroke="#666666" points="538,-276 429,-276 429,-257 538,-257 538,-276"/>
<text text-anchor="middle" x="483.5" y="-264" font-family="Helvetica,sans-Serif" font-size="10.00">AcMeshInfoLoaded</text>
</a>
</g>
</g>
<!-- Node4&#45;&gt;Node3 -->
<g id="edge3_Node000003_Node000004" class="edge">
<title>Node4&#45;&gt;Node3</title>
<g id="a_edge3_Node000003_Node000004"><a xlink:title=" ">
<path fill="none" stroke="#9a32cd" stroke-dasharray="5,2" d="M548.34,-265.72C587.07,-265.76 637.46,-266.72 682,-270.5 696.41,-271.72 712.18,-273.9 725.88,-276.07"/>
<polygon fill="#9a32cd" stroke="#9a32cd" points="548.24,-262.22 538.25,-265.73 548.25,-269.22 548.24,-262.22"/>
</a>
</g>
<text text-anchor="middle" x="626" y="-273.5" font-family="Helvetica,sans-Serif" font-size="10.00" fill="grey"> is_loaded</text>
</g>
<!-- Node5 -->
<g id="Node000005" class="node">
<title>Node5</title>
<g id="a_Node000005"><a xlink:href="structAcCommunicator.html" target="_top" xlink:title=" ">
<polygon fill="white" stroke="#666666" points="534,-313 433,-313 433,-294 534,-294 534,-313"/>
<text text-anchor="middle" x="483.5" y="-301" font-family="Helvetica,sans-Serif" font-size="10.00">AcCommunicator</text>
</a>
</g>
</g>
<!-- Node5&#45;&gt;Node3 -->
<g id="edge4_Node000003_Node000005" class="edge">
<title>Node5&#45;&gt;Node3</title>
<g id="a_edge4_Node000003_Node000005"><a xlink:title=" ">
<path fill="none" stroke="#9a32cd" stroke-dasharray="5,2" d="M544.1,-298.99C599.26,-294.82 679.49,-288.74 725.64,-285.25"/>
<polygon fill="#9a32cd" stroke="#9a32cd" points="543.82,-295.5 534.11,-299.75 544.35,-302.48 543.82,-295.5"/>
</a>
</g>
<text text-anchor="middle" x="626" y="-299.5" font-family="Helvetica,sans-Serif" font-size="10.00" fill="grey"> comm</text>
</g>
<!-- Node6 -->
<g id="Node000006" class="node">
<title>Node6</title>
<g id="a_Node000006"><a xlink:href="structAcCompInfo.html" target="_top" xlink:title=" ">
<polygon fill="white" stroke="#666666" points="521.5,-350 445.5,-350 445.5,-331 521.5,-331 521.5,-350"/>
<text text-anchor="middle" x="483.5" y="-338" font-family="Helvetica,sans-Serif" font-size="10.00">AcCompInfo</text>
</a>
</g>
</g>
<!-- Node6&#45;&gt;Node3 -->
<g id="edge5_Node000003_Node000006" class="edge">
<title>Node6&#45;&gt;Node3</title>
<g id="a_edge5_Node000003_Node000006"><a xlink:title=" ">
<path fill="none" stroke="#9a32cd" stroke-dasharray="5,2" d="M531.79,-336.27C572.13,-332.01 631.45,-324.23 682,-311.5 701.77,-306.52 723.47,-298.48 739.28,-292.13"/>
<polygon fill="#9a32cd" stroke="#9a32cd" points="531.29,-332.8 521.7,-337.3 532.01,-339.76 531.29,-332.8"/>
</a>
</g>
<text text-anchor="middle" x="626" y="-334.5" font-family="Helvetica,sans-Serif" font-size="10.00" fill="grey"> run_consts</text>
</g>
<!-- Node7 -->
<g id="Node000007" class="node">
<title>Node7</title>
<g id="a_Node000007"><a xlink:href="structAcCompInfoConfig.html" target="_top" xlink:title=" ">
<polygon fill="white" stroke="#666666" points="260.5,-387 153.5,-387 153.5,-368 260.5,-368 260.5,-387"/>
<text text-anchor="middle" x="207" y="-375" font-family="Helvetica,sans-Serif" font-size="10.00">AcCompInfoConfig</text>
</a>
</g>
</g>
<!-- Node7&#45;&gt;Node6 -->
<g id="edge6_Node000006_Node000007" class="edge">
<title>Node7&#45;&gt;Node6</title>
<g id="a_edge6_Node000006_Node000007"><a xlink:title=" ">
<path fill="none" stroke="#9a32cd" stroke-dasharray="5,2" d="M270.75,-371.11C307.59,-367.14 355.02,-361.62 397,-355.5 412.81,-353.2 430.18,-350.23 445.12,-347.54"/>
<polygon fill="#9a32cd" stroke="#9a32cd" points="270.23,-367.65 260.65,-372.2 270.97,-374.61 270.23,-367.65"/>
</a>
</g>
<text text-anchor="middle" x="350.5" y="-369.5" font-family="Helvetica,sans-Serif" font-size="10.00" fill="grey"> config</text>
</g>
<!-- Node8 -->
<g id="Node000008" class="node">
<title>Node8</title>
<g id="a_Node000008"><a xlink:href="structAcCompInfoLoaded.html" target="_top" xlink:title=" ">
<polygon fill="white" stroke="#666666" points="262.5,-350 151.5,-350 151.5,-331 262.5,-331 262.5,-350"/>
<text text-anchor="middle" x="207" y="-338" font-family="Helvetica,sans-Serif" font-size="10.00">AcCompInfoLoaded</text>
</a>
</g>
</g>
<!-- Node8&#45;&gt;Node6 -->
<g id="edge7_Node000006_Node000008" class="edge">
<title>Node8&#45;&gt;Node6</title>
<g id="a_edge7_Node000006_Node000008"><a xlink:title=" ">
<path fill="none" stroke="#9a32cd" stroke-dasharray="5,2" d="M272.67,-340.5C326.39,-340.5 400.93,-340.5 445.19,-340.5"/>
<polygon fill="#9a32cd" stroke="#9a32cd" points="272.56,-337 262.56,-340.5 272.56,-344 272.56,-337"/>
</a>
</g>
<text text-anchor="middle" x="350.5" y="-343.5" font-family="Helvetica,sans-Serif" font-size="10.00" fill="grey"> is_loaded</text>
</g>
<!-- Node9 -->
<g id="Node000009" class="node">
<title>Node9</title>
<g id="a_Node000009"><a xlink:href="structAcCompInfoHasDefaultValue.html" target="_top" xlink:title=" ">
<polygon fill="white" stroke="#666666" points="286,-313 128,-313 128,-294 286,-294 286,-313"/>
<text text-anchor="middle" x="207" y="-301" font-family="Helvetica,sans-Serif" font-size="10.00">AcCompInfoHasDefaultValue</text>
</a>
</g>
</g>
<!-- Node9&#45;&gt;Node6 -->
<g id="edge8_Node000006_Node000009" class="edge">
<title>Node9&#45;&gt;Node6</title>
<g id="a_edge8_Node000006_Node000009"><a xlink:title=" ">
<path fill="none" stroke="#9a32cd" stroke-dasharray="5,2" d="M296.45,-312.73C328.21,-316.32 364.26,-320.73 397,-325.5 412.81,-327.8 430.18,-330.77 445.12,-333.46"/>
<polygon fill="#9a32cd" stroke="#9a32cd" points="296.62,-309.22 286.29,-311.59 295.84,-316.18 296.62,-309.22"/>
</a>
</g>
<text text-anchor="middle" x="350.5" y="-328.5" font-family="Helvetica,sans-Serif" font-size="10.00" fill="grey"> has_default_value</text>
</g>
<!-- Node10 -->
<g id="Node000010" class="node">
<title>Node10</title>
<g id="a_Node000010"><a xlink:href="structAcInputs.html" target="_top" xlink:title=" ">
<polygon fill="white" stroke="#666666" points="792.5,-74 733.5,-74 733.5,-55 792.5,-55 792.5,-74"/>
<text text-anchor="middle" x="763" y="-62" font-family="Helvetica,sans-Serif" font-size="10.00">AcInputs</text>
</a>
</g>
</g>
<!-- Node10&#45;&gt;Node2 -->
<g id="edge9_Node000002_Node000010" class="edge">
<title>Node10&#45;&gt;Node2</title>
<g id="a_edge9_Node000002_Node000010"><a xlink:title=" ">
<path fill="none" stroke="#9a32cd" stroke-dasharray="5,2" d="M803.03,-67.96C832.41,-71.82 872.96,-79.86 905,-96.5 920.64,-104.62 935.11,-119.28 943.62,-128.95"/>
<polygon fill="#9a32cd" stroke="#9a32cd" points="803.09,-64.45 792.75,-66.73 802.26,-71.4 803.09,-64.45"/>
</a>
</g>
<text text-anchor="middle" x="874.5" y="-99.5" font-family="Helvetica,sans-Serif" font-size="10.00" fill="grey"> input</text>
</g>
<!-- Node11 -->
<g id="Node000011" class="node">
<title>Node11</title>
<g id="a_Node000011"><a xlink:href="structVertexBufferArray.html" target="_top" xlink:title=" ">
<polygon fill="white" stroke="#666666" points="815,-148 711,-148 711,-129 815,-129 815,-148"/>
<text text-anchor="middle" x="763" y="-136" font-family="Helvetica,sans-Serif" font-size="10.00">VertexBufferArray</text>
</a>
</g>
</g>
<!-- Node11&#45;&gt;Node2 -->
<g id="edge10_Node000002_Node000011" class="edge">
<title>Node11&#45;&gt;Node2</title>
<g id="a_edge10_Node000002_Node000011"><a xlink:title=" ">
<path fill="none" stroke="#9a32cd" stroke-dasharray="5,2" d="M825.62,-138.5C858.34,-138.5 897,-138.5 922.75,-138.5"/>
<polygon fill="#9a32cd" stroke="#9a32cd" points="825.24,-135 815.24,-138.5 825.24,-142 825.24,-135"/>
</a>
</g>
<text text-anchor="middle" x="874.5" y="-141.5" font-family="Helvetica,sans-Serif" font-size="10.00" fill="grey"> vba</text>
</g>
<!-- Node12 -->
<g id="Node000012" class="node">
<title>Node12</title>
<g id="a_Node000012"><a xlink:href="structAcMeshDims.html" target="_top" xlink:title=" ">
<polygon fill="white" stroke="#666666" points="523.5,-167 443.5,-167 443.5,-148 523.5,-148 523.5,-167"/>
<text text-anchor="middle" x="483.5" y="-155" font-family="Helvetica,sans-Serif" font-size="10.00">AcMeshDims</text>
</a>
</g>
</g>
<!-- Node12&#45;&gt;Node11 -->
<g id="edge11_Node000011_Node000012" class="edge">
<title>Node12&#45;&gt;Node11</title>
<g id="a_edge11_Node000011_Node000012"><a xlink:title=" ">
<path fill="none" stroke="#9a32cd" stroke-dasharray="5,2" d="M533.88,-154.12C583.7,-150.71 660.29,-145.46 710.77,-142.01"/>
<polygon fill="#9a32cd" stroke="#9a32cd" points="533.41,-150.64 523.67,-154.82 533.89,-157.63 533.41,-150.64"/>
</a>
</g>
<text text-anchor="middle" x="626" y="-175.5" font-family="Helvetica,sans-Serif" font-size="10.00" fill="grey"> computational_dims</text>
<text text-anchor="middle" x="626" y="-164.5" font-family="Helvetica,sans-Serif" font-size="10.00" fill="grey">dims</text>
<text text-anchor="middle" x="626" y="-153.5" font-family="Helvetica,sans-Serif" font-size="10.00" fill="grey">profile_dims</text>
</g>
<!-- Node13 -->
<g id="Node000013" class="node">
<title>Node13</title>
<g id="a_Node000013"><a xlink:href="structVolume.html" target="_top" xlink:title=" ">
<polygon fill="white" stroke="#666666" points="233.5,-188 180.5,-188 180.5,-169 233.5,-169 233.5,-188"/>
<text text-anchor="middle" x="207" y="-176" font-family="Helvetica,sans-Serif" font-size="10.00">Volume</text>
</a>
</g>
</g>
<!-- Node13&#45;&gt;Node12 -->
<g id="edge12_Node000012_Node000013" class="edge">
<title>Node13&#45;&gt;Node12</title>
<g id="a_edge12_Node000012_Node000013"><a xlink:title=" ">
<path fill="none" stroke="#9a32cd" stroke-dasharray="5,2" d="M229.89,-163.52C248.62,-151.66 276.79,-136.04 304,-129.5 344.19,-119.84 356.99,-119.13 397,-129.5 405.86,-131.8 406.51,-136.07 415,-139.5 424,-143.13 433.96,-146.25 443.41,-148.83"/>
<polygon fill="#9a32cd" stroke="#9a32cd" points="227.97,-160.59 221.49,-168.98 231.78,-166.46 227.97,-160.59"/>
</a>
</g>
<text text-anchor="middle" x="350.5" y="-198.5" font-family="Helvetica,sans-Serif" font-size="10.00" fill="grey"> m0</text>
<text text-anchor="middle" x="350.5" y="-187.5" font-family="Helvetica,sans-Serif" font-size="10.00" fill="grey">m1</text>
<text text-anchor="middle" x="350.5" y="-176.5" font-family="Helvetica,sans-Serif" font-size="10.00" fill="grey">n0</text>
<text text-anchor="middle" x="350.5" y="-165.5" font-family="Helvetica,sans-Serif" font-size="10.00" fill="grey">n1</text>
<text text-anchor="middle" x="350.5" y="-154.5" font-family="Helvetica,sans-Serif" font-size="10.00" fill="grey">nn</text>
<text text-anchor="start" x="327.5" y="-143.5" font-family="Helvetica,sans-Serif" font-size="10.00" fill="grey">reduction</text>
<text text-anchor="middle" x="350.5" y="-132.5" font-family="Helvetica,sans-Serif" font-size="10.00" fill="grey">_tile</text>
</g>
<!-- Node22 -->
<g id="Node000022" class="node">
<title>Node22</title>
<g id="a_Node000022"><a xlink:href="structGridDims.html" target="_top" xlink:title=" ">
<polygon fill="white" stroke="#666666" points="657,-230 595,-230 595,-211 657,-211 657,-230"/>
<text text-anchor="middle" x="626" y="-218" font-family="Helvetica,sans-Serif" font-size="10.00">GridDims</text>
</a>
</g>
</g>
<!-- Node13&#45;&gt;Node22 -->
<g id="edge22_Node000022_Node000013" class="edge">
<title>Node13&#45;&gt;Node22</title>
<g id="a_edge22_Node000022_Node000013"><a xlink:title=" ">
<path fill="none" stroke="#9a32cd" stroke-dasharray="5,2" d="M243.42,-191.04C261.34,-196.82 283.57,-203.13 304,-206.5 409.67,-223.95 537.4,-223.1 594.66,-221.58"/>
<polygon fill="#9a32cd" stroke="#9a32cd" points="244.28,-187.64 233.69,-187.82 242.08,-194.29 244.28,-187.64"/>
</a>
</g>
<text text-anchor="middle" x="350.5" y="-230.5" font-family="Helvetica,sans-Serif" font-size="10.00" fill="grey"> m</text>
<text text-anchor="middle" x="350.5" y="-219.5" font-family="Helvetica,sans-Serif" font-size="10.00" fill="grey">n</text>
</g>
<!-- Node14 -->
<g id="Node000014" class="node">
<title>Node14</title>
<g id="a_Node000014"><a xlink:href="structDeviceVertexBufferArray.html" target="_top" xlink:title=" ">
<polygon fill="white" stroke="#666666" points="552,-56 415,-56 415,-37 552,-37 552,-56"/>
<text text-anchor="middle" x="483.5" y="-44" font-family="Helvetica,sans-Serif" font-size="10.00">DeviceVertexBufferArray</text>
</a>
</g>
</g>
<!-- Node14&#45;&gt;Node11 -->
<g id="edge13_Node000011_Node000014" class="edge">
<title>Node14&#45;&gt;Node11</title>
<g id="a_edge13_Node000011_Node000014"><a xlink:title=" ">
<path fill="none" stroke="#9a32cd" stroke-dasharray="5,2" d="M544.32,-35.86C587.16,-31.74 643.81,-33.91 682,-64.5 702.4,-80.84 681.25,-102.28 700,-120.5 703.54,-123.94 707.69,-126.72 712.14,-128.98"/>
<polygon fill="#9a32cd" stroke="#9a32cd" points="543.85,-32.39 534.29,-36.96 544.62,-39.34 543.85,-32.39"/>
</a>
</g>
<text text-anchor="middle" x="626" y="-67.5" font-family="Helvetica,sans-Serif" font-size="10.00" fill="grey"> on_device</text>
</g>
<!-- Node15 -->
<g id="Node000015" class="node">
<title>Node15</title>
<g id="a_Node000015"><a xlink:href="structProfileBufferArray.html" target="_top" xlink:title=" ">
<polygon fill="white" stroke="#666666" points="258.5,-19 155.5,-19 155.5,0 258.5,0 258.5,-19"/>
<text text-anchor="middle" x="207" y="-7" font-family="Helvetica,sans-Serif" font-size="10.00">ProfileBufferArray</text>
</a>
</g>
</g>
<!-- Node15&#45;&gt;Node14 -->
<g id="edge14_Node000014_Node000015" class="edge">
<title>Node15&#45;&gt;Node14</title>
<g id="a_edge14_Node000014_Node000015"><a xlink:title=" ">
<path fill="none" stroke="#9a32cd" stroke-dasharray="5,2" d="M268.8,-15.67C305.9,-19.67 354.27,-25.27 397,-31.5 408.04,-33.11 419.84,-35.04 431.04,-36.98"/>
<polygon fill="#9a32cd" stroke="#9a32cd" points="268.96,-12.17 258.64,-14.59 268.21,-19.13 268.96,-12.17"/>
</a>
</g>
<text text-anchor="middle" x="350.5" y="-34.5" font-family="Helvetica,sans-Serif" font-size="10.00" fill="grey"> profiles</text>
</g>
<!-- Node16 -->
<g id="Node000016" class="node">
<title>Node16</title>
<g id="a_Node000016"><a xlink:href="structint3.html" target="_top" xlink:title=" ">
<polygon fill="white" stroke="#666666" points="224.5,-56 189.5,-56 189.5,-37 224.5,-37 224.5,-56"/>
<text text-anchor="middle" x="207" y="-44" font-family="Helvetica,sans-Serif" font-size="10.00">int3</text>
</a>
</g>
</g>
<!-- Node16&#45;&gt;Node14 -->
<g id="edge15_Node000014_Node000016" class="edge">
<title>Node16&#45;&gt;Node14</title>
<g id="a_edge15_Node000014_Node000016"><a xlink:title=" ">
<path fill="none" stroke="#9a32cd" stroke-dasharray="5,2" d="M234.87,-46.5C276.24,-46.5 356.85,-46.5 414.88,-46.5"/>
<polygon fill="#9a32cd" stroke="#9a32cd" points="234.76,-43 224.76,-46.5 234.76,-50 234.76,-43"/>
</a>
</g>
<text text-anchor="middle" x="350.5" y="-49.5" font-family="Helvetica,sans-Serif" font-size="10.00" fill="grey"> block_factor</text>
</g>
<!-- Node17 -->
<g id="Node000017" class="node">
<title>Node17</title>
<g id="a_Node000017"><a xlink:href="structAcScratchpadStates.html" target="_top" xlink:title=" ">
<polygon fill="white" stroke="#666666" points="540,-130 427,-130 427,-111 540,-111 540,-130"/>
<text text-anchor="middle" x="483.5" y="-118" font-family="Helvetica,sans-Serif" font-size="10.00">AcScratchpadStates</text>
</a>
</g>
</g>
<!-- Node17&#45;&gt;Node11 -->
<g id="edge16_Node000011_Node000017" class="edge">
<title>Node17&#45;&gt;Node11</title>
<g id="a_edge16_Node000011_Node000017"><a xlink:title=" ">
<path fill="none" stroke="#9a32cd" stroke-dasharray="5,2" d="M550.44,-118.71C588.91,-118.36 638.31,-119.1 682,-123.5 693.95,-124.7 706.79,-126.76 718.6,-128.97"/>
<polygon fill="#9a32cd" stroke="#9a32cd" points="550.36,-115.21 540.41,-118.82 550.45,-122.21 550.36,-115.21"/>
</a>
</g>
<text text-anchor="middle" x="626" y="-126.5" font-family="Helvetica,sans-Serif" font-size="10.00" fill="grey"> scratchpad_states</text>
</g>
<!-- Node18 -->
<g id="Node000018" class="node">
<title>Node18</title>
<g id="a_Node000018"><a xlink:href="structAcReduceBuffer.html" target="_top" xlink:title=" ">
<polygon fill="white" stroke="#666666" points="530.5,-93 436.5,-93 436.5,-74 530.5,-74 530.5,-93"/>
<text text-anchor="middle" x="483.5" y="-81" font-family="Helvetica,sans-Serif" font-size="10.00">AcReduceBuffer</text>
</a>
</g>
</g>
<!-- Node18&#45;&gt;Node11 -->
<g id="edge17_Node000011_Node000018" class="edge">
<title>Node18&#45;&gt;Node11</title>
<g id="a_edge17_Node000011_Node000018"><a xlink:title=" ">
<path fill="none" stroke="#9a32cd" stroke-dasharray="5,2" d="M540.66,-79.76C581.62,-79.22 637.5,-83.15 682,-103.5 692.01,-108.08 690.45,-115.04 700,-120.5 705.93,-123.9 712.56,-126.69 719.21,-128.99"/>
<polygon fill="#9a32cd" stroke="#9a32cd" points="540.51,-76.26 530.59,-79.98 540.66,-83.26 540.51,-76.26"/>
</a>
</g>
<text text-anchor="middle" x="626" y="-106.5" font-family="Helvetica,sans-Serif" font-size="10.00" fill="grey"> profile_reduce_buffers</text>
</g>
<!-- Node19 -->
<g id="Node000019" class="node">
<title>Node19</title>
<g id="a_Node000019"><a xlink:href="structAcBuffer.html" target="_top" xlink:title=" ">
<polygon fill="white" stroke="#666666" points="236,-93 178,-93 178,-74 236,-74 236,-93"/>
<text text-anchor="middle" x="207" y="-81" font-family="Helvetica,sans-Serif" font-size="10.00">AcBuffer</text>
</a>
</g>
</g>
<!-- Node19&#45;&gt;Node18 -->
<g id="edge18_Node000018_Node000019" class="edge">
<title>Node19&#45;&gt;Node18</title>
<g id="a_edge18_Node000018_Node000019"><a xlink:title=" ">
<path fill="none" stroke="#9a32cd" stroke-dasharray="5,2" d="M246.12,-83.5C295.93,-83.5 383.08,-83.5 436.5,-83.5"/>
<polygon fill="#9a32cd" stroke="#9a32cd" points="246.09,-80 236.09,-83.5 246.09,-87 246.09,-80"/>
</a>
</g>
<text text-anchor="middle" x="350.5" y="-97.5" font-family="Helvetica,sans-Serif" font-size="10.00" fill="grey"> src</text>
<text text-anchor="middle" x="350.5" y="-86.5" font-family="Helvetica,sans-Serif" font-size="10.00" fill="grey">transposed</text>
</g>
<!-- Node20 -->
<g id="Node000020" class="node">
<title>Node20</title>
<g id="a_Node000020"><a xlink:href="structAcShape.html" target="_top" xlink:title=" ">
<polygon fill="white" stroke="#666666" points="59,-93 0,-93 0,-74 59,-74 59,-93"/>
<text text-anchor="middle" x="29.5" y="-81" font-family="Helvetica,sans-Serif" font-size="10.00">AcShape</text>
</a>
</g>
</g>
<!-- Node20&#45;&gt;Node19 -->
<g id="edge19_Node000019_Node000020" class="edge">
<title>Node20&#45;&gt;Node19</title>
<g id="a_edge19_Node000019_Node000020"><a xlink:title=" ">
<path fill="none" stroke="#9a32cd" stroke-dasharray="5,2" d="M69.23,-83.5C102.03,-83.5 148.29,-83.5 177.72,-83.5"/>
<polygon fill="#9a32cd" stroke="#9a32cd" points="69.09,-80 59.09,-83.5 69.09,-87 69.09,-80"/>
</a>
</g>
<text text-anchor="middle" x="93.5" y="-86.5" font-family="Helvetica,sans-Serif" font-size="10.00" fill="grey"> shape</text>
</g>
<!-- Node21 -->
<g id="Node000021" class="node">
<title>Node21</title>
<g id="a_Node000021"><a xlink:href="structAcDeviceKernelOutput.html" target="_top" xlink:title=" ">
<polygon fill="white" stroke="#666666" points="826,-111 700,-111 700,-92 826,-92 826,-111"/>
<text text-anchor="middle" x="763" y="-99" font-family="Helvetica,sans-Serif" font-size="10.00">AcDeviceKernelOutput</text>
</a>
</g>
</g>
<!-- Node21&#45;&gt;Node2 -->
<g id="edge20_Node000002_Node000021" class="edge">
<title>Node21&#45;&gt;Node2</title>
<g id="a_edge20_Node000002_Node000021"><a xlink:title=" ">
<path fill="none" stroke="#9a32cd" stroke-dasharray="5,2" d="M836.21,-110.54C858.42,-113.91 882.84,-118.23 905,-123.5 911.27,-124.99 917.92,-126.92 924.16,-128.89"/>
<polygon fill="#9a32cd" stroke="#9a32cd" points="836.59,-107.05 826.18,-109.05 835.56,-113.98 836.59,-107.05"/>
</a>
</g>
<text text-anchor="middle" x="874.5" y="-126.5" font-family="Helvetica,sans-Serif" font-size="10.00" fill="grey"> output</text>
</g>
<!-- Node22&#45;&gt;Node1 -->
<g id="edge21_Node000001_Node000022" class="edge">
<title>Node22&#45;&gt;Node1</title>
<g id="a_edge21_Node000001_Node000022"><a xlink:title=" ">
<path fill="none" stroke="#9a32cd" stroke-dasharray="5,2" d="M667.35,-217.6C710.91,-214.63 782.33,-210.2 844,-208.5 871.1,-207.75 877.89,-208.27 905,-208.5 960.01,-208.96 1024.55,-210.23 1058.96,-210.96"/>
<polygon fill="#9a32cd" stroke="#9a32cd" points="666.9,-214.12 657.17,-218.3 667.39,-221.11 666.9,-214.12"/>
</a>
</g>
<text text-anchor="middle" x="874.5" y="-222.5" font-family="Helvetica,sans-Serif" font-size="10.00" fill="grey"> grid</text>
<text text-anchor="middle" x="874.5" y="-211.5" font-family="Helvetica,sans-Serif" font-size="10.00" fill="grey">subgrid</text>
</g>
</g>
</svg>

<g id="navigator" transform="translate(0 0)" fill="#404254">
  <rect fill="#f2f5e9" fill-opacity="0.5" stroke="#606060" stroke-width=".5" x="0" y="0" width="60" height="60"/>
  <use id="zoomplus" xlink:href="#zoomPlus" x="17" y="9" onmousedown="handleZoom(evt,'in')"/>
  <use id="zoomminus" xlink:href="#zoomMin" x="42" y="9" onmousedown="handleZoom(evt,'out')"/>
  <use id="reset" xlink:href="#resetDef" x="30" y="36" onmousedown="handleReset()"/>
   <use id="arrowup" xlink:href="#arrowUp" x="0" y="0" onmousedown="handlePan(0,-1)"/>
  <use id="arrowright" xlink:href="#arrowRight" x="0" y="0" onmousedown="handlePan(1,0)"/>
  <use id="arrowdown" xlink:href="#arrowDown" x="0" y="0" onmousedown="handlePan(0,1)"/>
  <use id="arrowleft" xlink:href="#arrowLeft" x="0" y="0" onmousedown="handlePan(-1,0)"/>
</g>
<svg viewBox="0 0 15 15" width="100%" height="30px" preserveAspectRatio="xMaxYMin meet">
 <g id="arrow_out" transform="scale(0.3 0.3)">
  <a xlink:href="structnode__s__coll__graph_org.svg" target="_base">
   <rect id="button" ry="5" rx="5" y="6" x="6" height="38" width="38"
        fill="#f2f5e9" fill-opacity="0.5" stroke="#606060" stroke-width="1.0"/>
   <path id="arrow"
     d="M 11.500037,31.436501 C 11.940474,20.09759 22.043105,11.32322 32.158766,21.979434 L 37.068811,17.246167 C 37.068811,17.246167 37.088388,32 37.088388,32 L 22.160133,31.978069 C 22.160133,31.978069 26.997745,27.140456 26.997745,27.140456 C 18.528582,18.264221 13.291696,25.230495 11.500037,31.436501 z"
     style="fill:#404040;"/>
  </a>
 </g>
</svg>

<style type='text/css'>
<![CDATA[
[data-mouse-over-selected='false'] { opacity: 0.7; }
[data-mouse-over-selected='true']  { opacity: 1.0; }
]]>
</style>
<script type="application/ecmascript"><![CDATA[
document.addEventListener('DOMContentLoaded', (event) => {
  highlightEdges();
  highlightAdjacentNodes();
});
]]></script>
</svg>
