<?xml version="1.0" encoding="UTF-8" standalone="no"?>
<!DOCTYPE svg PUBLIC "-//W3C//DTD SVG 1.1//EN"
 "http://www.w3.org/Graphics/SVG/1.1/DTD/svg11.dtd">
<!-- Generated by graphviz version 2.43.0 (0)
 -->
<!-- Title: func_params_info Pages: 1 -->
<svg width="163pt" height="159pt"
 viewBox="0.00 0.00 162.50 159.00" xmlns="http://www.w3.org/2000/svg" xmlns:xlink="http://www.w3.org/1999/xlink">
<g id="graph0" class="graph" transform="scale(1 1) rotate(0) translate(4 155)">
<title>func_params_info</title>
<!-- Node1 -->
<g id="Node000001" class="node">
<title>Node1</title>
<g id="a_Node000001"><a xlink:title=" ">
<polygon fill="#999999" stroke="#666666" points="119.5,-19 15.5,-19 15.5,0 119.5,0 119.5,-19"/>
<text text-anchor="middle" x="67.5" y="-7" font-family="Helvetica,sans-Serif" font-size="10.00">func_params_info</text>
</a>
</g>
</g>
<!-- Node2 -->
<g id="Node000002" class="node">
<title>Node2</title>
<g id="a_Node000002"><a xlink:href="structstring__vec.html" target="_top" xlink:title=" ">
<polygon fill="white" stroke="#666666" points="67,-85 0,-85 0,-66 67,-66 67,-85"/>
<text text-anchor="middle" x="33.5" y="-73" font-family="Helvetica,sans-Serif" font-size="10.00">string_vec</text>
</a>
</g>
</g>
<!-- Node2&#45;&gt;Node1 -->
<g id="edge1_Node000001_Node000002" class="edge">
<title>Node2&#45;&gt;Node1</title>
<g id="a_edge1_Node000001_Node000002"><a xlink:title=" ">
<path fill="none" stroke="#9a32cd" stroke-dasharray="5,2" d="M39.77,-56.29C42.19,-50.03 45.18,-43.07 48.5,-37 51.87,-30.84 56.44,-24.43 60.25,-19.46"/>
<polygon fill="#9a32cd" stroke="#9a32cd" points="36.4,-55.3 36.27,-65.89 42.98,-57.69 36.4,-55.3"/>
</a>
</g>
<text text-anchor="middle" x="64" y="-40" font-family="Helvetica,sans-Serif" font-size="10.00" fill="grey"> types</text>
</g>
<!-- Node3 -->
<g id="Node000003" class="node">
<title>Node3</title>
<g id="a_Node000003"><a xlink:href="structnode__vec.html" target="_top" xlink:title=" ">
<polygon fill="white" stroke="#666666" points="148,-85 85,-85 85,-66 148,-66 148,-85"/>
<text text-anchor="middle" x="116.5" y="-73" font-family="Helvetica,sans-Serif" font-size="10.00">node_vec</text>
</a>
</g>
</g>
<!-- Node3&#45;&gt;Node1 -->
<g id="edge2_Node000001_Node000003" class="edge">
<title>Node3&#45;&gt;Node1</title>
<g id="a_edge2_Node000001_Node000003"><a xlink:title=" ">
<path fill="none" stroke="#9a32cd" stroke-dasharray="5,2" d="M103.69,-57.77C94.29,-45.49 81.89,-29.3 74.32,-19.41"/>
<polygon fill="#9a32cd" stroke="#9a32cd" points="101.03,-60.06 109.89,-65.87 106.59,-55.8 101.03,-60.06"/>
</a>
</g>
<text text-anchor="middle" x="124.5" y="-40" font-family="Helvetica,sans-Serif" font-size="10.00" fill="grey"> expr_nodes</text>
</g>
<!-- Node4 -->
<g id="Node000004" class="node">
<title>Node4</title>
<g id="a_Node000004"><a xlink:href="structASTNode.html" target="_top" xlink:title=" ">
<polygon fill="white" stroke="#666666" points="147,-151 86,-151 86,-132 147,-132 147,-151"/>
<text text-anchor="middle" x="116.5" y="-139" font-family="Helvetica,sans-Serif" font-size="10.00">ASTNode</text>
</a>
</g>
</g>
<!-- Node4&#45;&gt;Node3 -->
<g id="edge3_Node000003_Node000004" class="edge">
<title>Node4&#45;&gt;Node3</title>
<g id="a_edge3_Node000003_Node000004"><a xlink:title=" ">
<path fill="none" stroke="#9a32cd" stroke-dasharray="5,2" d="M116.5,-121.58C116.5,-109.63 116.5,-94.72 116.5,-85.41"/>
<polygon fill="#9a32cd" stroke="#9a32cd" points="113,-121.87 116.5,-131.87 120,-121.87 113,-121.87"/>
</a>
</g>
<text text-anchor="middle" x="129" y="-106" font-family="Helvetica,sans-Serif" font-size="10.00" fill="grey"> data</text>
</g>
</g>
</svg>
