<?xml version="1.0" encoding="UTF-8" standalone="no"?>
<!DOCTYPE svg PUBLIC "-//W3C//DTD SVG 1.1//EN"
 "http://www.w3.org/Graphics/SVG/1.1/DTD/svg11.dtd">
<!-- Generated by graphviz version 2.43.0 (0)
 -->
<!-- Title: AcMeshDims Pages: 1 -->
<svg width="94pt" height="159pt"
 viewBox="0.00 0.00 94.00 159.00" xmlns="http://www.w3.org/2000/svg" xmlns:xlink="http://www.w3.org/1999/xlink">
<g id="graph0" class="graph" transform="scale(1 1) rotate(0) translate(4 155)">
<title>AcMeshDims</title>
<!-- Node1 -->
<g id="Node000001" class="node">
<title>Node1</title>
<g id="a_Node000001"><a xlink:title=" ">
<polygon fill="#999999" stroke="#666666" points="80,-19 0,-19 0,0 80,0 80,-19"/>
<text text-anchor="middle" x="40" y="-7" font-family="Helvetica,sans-Serif" font-size="10.00">AcMeshDims</text>
</a>
</g>
</g>
<!-- Node2 -->
<g id="Node000002" class="node">
<title>Node2</title>
<g id="a_Node000002"><a xlink:href="structVolume.html" target="_top" xlink:title=" ">
<polygon fill="white" stroke="#666666" points="66.5,-151 13.5,-151 13.5,-132 66.5,-132 66.5,-151"/>
<text text-anchor="middle" x="40" y="-139" font-family="Helvetica,sans-Serif" font-size="10.00">Volume</text>
</a>
</g>
</g>
<!-- Node2&#45;&gt;Node1 -->
<g id="edge1_Node000001_Node000002" class="edge">
<title>Node2&#45;&gt;Node1</title>
<g id="a_edge1_Node000001_Node000002"><a xlink:title=" ">
<path fill="none" stroke="#9a32cd" stroke-dasharray="5,2" d="M40,-121.73C40,-93.22 40,-40.09 40,-19.23"/>
<polygon fill="#9a32cd" stroke="#9a32cd" points="36.5,-121.97 40,-131.97 43.5,-121.97 36.5,-121.97"/>
</a>
</g>
<text text-anchor="middle" x="63" y="-106" font-family="Helvetica,sans-Serif" font-size="10.00" fill="grey"> m0</text>
<text text-anchor="middle" x="63" y="-95" font-family="Helvetica,sans-Serif" font-size="10.00" fill="grey">m1</text>
<text text-anchor="middle" x="63" y="-84" font-family="Helvetica,sans-Serif" font-size="10.00" fill="grey">n0</text>
<text text-anchor="middle" x="63" y="-73" font-family="Helvetica,sans-Serif" font-size="10.00" fill="grey">n1</text>
<text text-anchor="middle" x="63" y="-62" font-family="Helvetica,sans-Serif" font-size="10.00" fill="grey">nn</text>
<text text-anchor="start" x="40" y="-51" font-family="Helvetica,sans-Serif" font-size="10.00" fill="grey">reduction</text>
<text text-anchor="middle" x="63" y="-40" font-family="Helvetica,sans-Serif" font-size="10.00" fill="grey">_tile</text>
</g>
</g>
</svg>
