<?xml version="1.0" encoding="UTF-8" standalone="no"?>
<!DOCTYPE svg PUBLIC "-//W3C//DTD SVG 1.1//EN"
 "http://www.w3.org/Graphics/SVG/1.1/DTD/svg11.dtd">
<!-- Generated by graphviz version 2.43.0 (0)
 -->
<!-- Title: Grid Pages: 1 -->
<svg width="551pt" height="357pt"
 viewBox="0.00 0.00 551.00 357.00" xmlns="http://www.w3.org/2000/svg" xmlns:xlink="http://www.w3.org/1999/xlink">
<g id="graph0" class="graph" transform="scale(1 1) rotate(0) translate(4 353)">
<title>Grid</title>
<!-- Node1 -->
<g id="Node000001" class="node">
<title>Node1</title>
<g id="a_Node000001"><a xlink:title=" ">
<polygon fill="#999999" stroke="#666666" points="389.5,-19 352.5,-19 352.5,0 389.5,0 389.5,-19"/>
<text text-anchor="middle" x="371" y="-7" font-family="Helvetica,sans-Serif" font-size="10.00">Grid</text>
</a>
</g>
</g>
<!-- Node2 -->
<g id="Node000002" class="node">
<title>Node2</title>
<g id="a_Node000002"><a xlink:href="structAcMesh.html" target="_top" xlink:title=" ">
<polygon fill="white" stroke="#666666" points="224.5,-151 169.5,-151 169.5,-132 224.5,-132 224.5,-151"/>
<text text-anchor="middle" x="197" y="-139" font-family="Helvetica,sans-Serif" font-size="10.00">AcMesh</text>
</a>
</g>
</g>
<!-- Node2&#45;&gt;Node1 -->
<g id="edge1_Node000001_Node000002" class="edge">
<title>Node2&#45;&gt;Node1</title>
<g id="a_edge1_Node000001_Node000002"><a xlink:title=" ">
<path fill="none" stroke="#9a32cd" stroke-dasharray="5,2" d="M194.18,-121.85C191.82,-98.62 191.81,-59.29 214,-37 233.11,-17.8 314.99,-12.47 352.32,-11.02"/>
<polygon fill="#9a32cd" stroke="#9a32cd" points="190.72,-122.33 195.44,-131.81 197.66,-121.45 190.72,-122.33"/>
</a>
</g>
<text text-anchor="middle" x="238" y="-73" font-family="Helvetica,sans-Serif" font-size="10.00" fill="grey"> submesh</text>
</g>
<!-- Node3 -->
<g id="Node000003" class="node">
<title>Node3</title>
<g id="a_Node000003"><a xlink:href="structAcMeshInfo.html" target="_top" xlink:title=" ">
<polygon fill="white" stroke="#666666" points="234,-217 160,-217 160,-198 234,-198 234,-217"/>
<text text-anchor="middle" x="197" y="-205" font-family="Helvetica,sans-Serif" font-size="10.00">AcMeshInfo</text>
</a>
</g>
</g>
<!-- Node3&#45;&gt;Node2 -->
<g id="edge2_Node000002_Node000003" class="edge">
<title>Node3&#45;&gt;Node2</title>
<g id="a_edge2_Node000002_Node000003"><a xlink:title=" ">
<path fill="none" stroke="#9a32cd" stroke-dasharray="5,2" d="M197,-187.58C197,-175.63 197,-160.72 197,-151.41"/>
<polygon fill="#9a32cd" stroke="#9a32cd" points="193.5,-187.87 197,-197.87 200.5,-187.87 193.5,-187.87"/>
</a>
</g>
<text text-anchor="middle" x="208" y="-172" font-family="Helvetica,sans-Serif" font-size="10.00" fill="grey"> info</text>
</g>
<!-- Node4 -->
<g id="Node000004" class="node">
<title>Node4</title>
<g id="a_Node000004"><a xlink:href="structAcMeshInfoLoadedInfo.html" target="_top" xlink:title=" ">
<polygon fill="white" stroke="#666666" points="128,-283 0,-283 0,-264 128,-264 128,-283"/>
<text text-anchor="middle" x="64" y="-271" font-family="Helvetica,sans-Serif" font-size="10.00">AcMeshInfoLoadedInfo</text>
</a>
</g>
</g>
<!-- Node4&#45;&gt;Node3 -->
<g id="edge3_Node000003_Node000004" class="edge">
<title>Node4&#45;&gt;Node3</title>
<g id="a_edge3_Node000003_Node000004"><a xlink:title=" ">
<path fill="none" stroke="#9a32cd" stroke-dasharray="5,2" d="M90.96,-259.53C117.17,-246.92 156.25,-228.11 178.92,-217.2"/>
<polygon fill="#9a32cd" stroke="#9a32cd" points="89.43,-256.38 81.94,-263.87 92.47,-262.69 89.43,-256.38"/>
</a>
</g>
<text text-anchor="middle" x="164" y="-238" font-family="Helvetica,sans-Serif" font-size="10.00" fill="grey"> is_loaded</text>
</g>
<!-- Node5 -->
<g id="Node000005" class="node">
<title>Node5</title>
<g id="a_Node000005"><a xlink:href="structAcCommunicator.html" target="_top" xlink:title=" ">
<polygon fill="white" stroke="#666666" points="247.5,-283 146.5,-283 146.5,-264 247.5,-264 247.5,-283"/>
<text text-anchor="middle" x="197" y="-271" font-family="Helvetica,sans-Serif" font-size="10.00">AcCommunicator</text>
</a>
</g>
</g>
<!-- Node5&#45;&gt;Node3 -->
<g id="edge4_Node000003_Node000005" class="edge">
<title>Node5&#45;&gt;Node3</title>
<g id="a_edge4_Node000003_Node000005"><a xlink:title=" ">
<path fill="none" stroke="#9a32cd" stroke-dasharray="5,2" d="M197,-253.58C197,-241.63 197,-226.72 197,-217.41"/>
<polygon fill="#9a32cd" stroke="#9a32cd" points="193.5,-253.87 197,-263.87 200.5,-253.87 193.5,-253.87"/>
</a>
</g>
<text text-anchor="middle" x="214" y="-238" font-family="Helvetica,sans-Serif" font-size="10.00" fill="grey"> comm</text>
</g>
<!-- Node6 -->
<g id="Node000006" class="node">
<title>Node6</title>
<g id="a_Node000006"><a xlink:href="structAcCompInfo.html" target="_top" xlink:title=" ">
<polygon fill="white" stroke="#666666" points="342,-283 266,-283 266,-264 342,-264 342,-283"/>
<text text-anchor="middle" x="304" y="-271" font-family="Helvetica,sans-Serif" font-size="10.00">AcCompInfo</text>
</a>
</g>
</g>
<!-- Node6&#45;&gt;Node3 -->
<g id="edge5_Node000003_Node000006" class="edge">
<title>Node6&#45;&gt;Node3</title>
<g id="a_edge5_Node000003_Node000006"><a xlink:title=" ">
<path fill="none" stroke="#9a32cd" stroke-dasharray="5,2" d="M280.91,-258.69C259.85,-246.09 229.39,-227.87 211.54,-217.2"/>
<polygon fill="#9a32cd" stroke="#9a32cd" points="279.19,-261.74 289.57,-263.87 282.78,-255.73 279.19,-261.74"/>
</a>
</g>
<text text-anchor="middle" x="285" y="-238" font-family="Helvetica,sans-Serif" font-size="10.00" fill="grey"> run_consts</text>
</g>
<!-- Node7 -->
<g id="Node000007" class="node">
<title>Node7</title>
<g id="a_Node000007"><a xlink:href="structAcCompInfoConfig.html" target="_top" xlink:title=" ">
<polygon fill="white" stroke="#666666" points="230.5,-349 123.5,-349 123.5,-330 230.5,-330 230.5,-349"/>
<text text-anchor="middle" x="177" y="-337" font-family="Helvetica,sans-Serif" font-size="10.00">AcCompInfoConfig</text>
</a>
</g>
</g>
<!-- Node7&#45;&gt;Node6 -->
<g id="edge6_Node000006_Node000007" class="edge">
<title>Node7&#45;&gt;Node6</title>
<g id="a_edge6_Node000006_Node000007"><a xlink:title=" ">
<path fill="none" stroke="#9a32cd" stroke-dasharray="5,2" d="M203.07,-325.36C228.1,-312.75 265.18,-294.06 286.74,-283.2"/>
<polygon fill="#9a32cd" stroke="#9a32cd" points="201.48,-322.24 194.13,-329.87 204.63,-328.49 201.48,-322.24"/>
</a>
</g>
<text text-anchor="middle" x="265.5" y="-304" font-family="Helvetica,sans-Serif" font-size="10.00" fill="grey"> config</text>
</g>
<!-- Node8 -->
<g id="Node000008" class="node">
<title>Node8</title>
<g id="a_Node000008"><a xlink:href="structAcCompInfoLoaded.html" target="_top" xlink:title=" ">
<polygon fill="white" stroke="#666666" points="359.5,-349 248.5,-349 248.5,-330 359.5,-330 359.5,-349"/>
<text text-anchor="middle" x="304" y="-337" font-family="Helvetica,sans-Serif" font-size="10.00">AcCompInfoLoaded</text>
</a>
</g>
</g>
<!-- Node8&#45;&gt;Node6 -->
<g id="edge7_Node000006_Node000008" class="edge">
<title>Node8&#45;&gt;Node6</title>
<g id="a_edge7_Node000006_Node000008"><a xlink:title=" ">
<path fill="none" stroke="#9a32cd" stroke-dasharray="5,2" d="M304,-319.58C304,-307.63 304,-292.72 304,-283.41"/>
<polygon fill="#9a32cd" stroke="#9a32cd" points="300.5,-319.87 304,-329.87 307.5,-319.87 300.5,-319.87"/>
</a>
</g>
<text text-anchor="middle" x="329" y="-304" font-family="Helvetica,sans-Serif" font-size="10.00" fill="grey"> is_loaded</text>
</g>
<!-- Node9 -->
<g id="Node000009" class="node">
<title>Node9</title>
<g id="a_Node000009"><a xlink:href="structAcCompInfoHasDefaultValue.html" target="_top" xlink:title=" ">
<polygon fill="white" stroke="#666666" points="536,-349 378,-349 378,-330 536,-330 536,-349"/>
<text text-anchor="middle" x="457" y="-337" font-family="Helvetica,sans-Serif" font-size="10.00">AcCompInfoHasDefaultValue</text>
</a>
</g>
</g>
<!-- Node9&#45;&gt;Node6 -->
<g id="edge8_Node000006_Node000009" class="edge">
<title>Node9&#45;&gt;Node6</title>
<g id="a_edge8_Node000006_Node000009"><a xlink:title=" ">
<path fill="none" stroke="#9a32cd" stroke-dasharray="5,2" d="M426.78,-325.86C396.63,-313.25 351.11,-294.21 324.8,-283.2"/>
<polygon fill="#9a32cd" stroke="#9a32cd" points="425.79,-329.24 436.37,-329.87 428.49,-322.78 425.79,-329.24"/>
</a>
</g>
<text text-anchor="middle" x="436.5" y="-304" font-family="Helvetica,sans-Serif" font-size="10.00" fill="grey"> has_default_value</text>
</g>
<!-- Node10 -->
<g id="Node000010" class="node">
<title>Node10</title>
<g id="a_Node000010"><a xlink:href="structuint3__64.html" target="_top" xlink:title=" ">
<polygon fill="white" stroke="#666666" points="301.5,-151 242.5,-151 242.5,-132 301.5,-132 301.5,-151"/>
<text text-anchor="middle" x="272" y="-139" font-family="Helvetica,sans-Serif" font-size="10.00">uint3_64</text>
</a>
</g>
</g>
<!-- Node10&#45;&gt;Node1 -->
<g id="edge9_Node000001_Node000010" class="edge">
<title>Node10&#45;&gt;Node1</title>
<g id="a_edge9_Node000001_Node000010"><a xlink:title=" ">
<path fill="none" stroke="#9a32cd" stroke-dasharray="5,2" d="M267.87,-121.78C264.02,-99.08 261.46,-60.89 281,-37 298.22,-15.94 331.27,-11.08 352.17,-10.25"/>
<polygon fill="#9a32cd" stroke="#9a32cd" points="264.47,-122.67 269.82,-131.82 271.34,-121.33 264.47,-122.67"/>
</a>
</g>
<text text-anchor="middle" x="319" y="-73" font-family="Helvetica,sans-Serif" font-size="10.00" fill="grey"> decomposition</text>
</g>
<!-- Node11 -->
<g id="Node000011" class="node">
<title>Node11</title>
<g id="a_Node000011"><a xlink:href="structVolume.html" target="_top" xlink:title=" ">
<polygon fill="white" stroke="#666666" points="384.5,-151 331.5,-151 331.5,-132 384.5,-132 384.5,-151"/>
<text text-anchor="middle" x="358" y="-139" font-family="Helvetica,sans-Serif" font-size="10.00">Volume</text>
</a>
</g>
</g>
<!-- Node11&#45;&gt;Node1 -->
<g id="edge10_Node000001_Node000011" class="edge">
<title>Node11&#45;&gt;Node1</title>
<g id="a_edge10_Node000001_Node000011"><a xlink:title=" ">
<path fill="none" stroke="#9a32cd" stroke-dasharray="5,2" d="M359.88,-121.73C362.73,-93.22 368.04,-40.09 370.13,-19.23"/>
<polygon fill="#9a32cd" stroke="#9a32cd" points="356.37,-121.67 358.85,-131.97 363.33,-122.37 356.37,-121.67"/>
</a>
</g>
<text text-anchor="middle" x="377" y="-73" font-family="Helvetica,sans-Serif" font-size="10.00" fill="grey"> nn</text>
</g>
<!-- Node12 -->
<g id="Node000012" class="node">
<title>Node12</title>
<g id="a_Node000012"><a xlink:href="structint3.html" target="_top" xlink:title=" ">
<polygon fill="white" stroke="#666666" points="464.5,-217 429.5,-217 429.5,-198 464.5,-198 464.5,-217"/>
<text text-anchor="middle" x="447" y="-205" font-family="Helvetica,sans-Serif" font-size="10.00">int3</text>
</a>
</g>
</g>
<!-- Node12&#45;&gt;Node1 -->
<g id="edge11_Node000001_Node000012" class="edge">
<title>Node12&#45;&gt;Node1</title>
<g id="a_edge11_Node000001_Node000012"><a xlink:title=" ">
<path fill="none" stroke="#9a32cd" stroke-dasharray="5,2" d="M441.45,-188.3C429.79,-150.45 402.72,-64.48 389,-37 385.92,-30.83 381.6,-24.42 377.96,-19.45"/>
<polygon fill="#9a32cd" stroke="#9a32cd" points="438.14,-189.46 444.42,-198 444.84,-187.41 438.14,-189.46"/>
</a>
</g>
<text text-anchor="middle" x="438" y="-139" font-family="Helvetica,sans-Serif" font-size="10.00" fill="grey"> nn</text>
</g>
<!-- Node13 -->
<g id="Node000013" class="node">
<title>Node13</title>
<g id="a_Node000013"><a xlink:href="structCommData.html" target="_top" xlink:title=" ">
<polygon fill="white" stroke="#666666" points="527,-151 455,-151 455,-132 527,-132 527,-151"/>
<text text-anchor="middle" x="491" y="-139" font-family="Helvetica,sans-Serif" font-size="10.00">CommData</text>
</a>
</g>
</g>
<!-- Node12&#45;&gt;Node13 -->
<g id="edge13_Node000013_Node000012" class="edge">
<title>Node12&#45;&gt;Node13</title>
<g id="a_edge13_Node000013_Node000012"><a xlink:title=" ">
<path fill="none" stroke="#9a32cd" stroke-dasharray="5,2" d="M458.75,-189.41C467.16,-177.18 478.14,-161.2 484.88,-151.41"/>
<polygon fill="#9a32cd" stroke="#9a32cd" points="455.72,-187.65 452.93,-197.87 461.48,-191.61 455.72,-187.65"/>
</a>
</g>
<text text-anchor="middle" x="486" y="-172" font-family="Helvetica,sans-Serif" font-size="10.00" fill="grey"> dims</text>
</g>
<!-- Node13&#45;&gt;Node1 -->
<g id="edge12_Node000001_Node000013" class="edge">
<title>Node13&#45;&gt;Node1</title>
<g id="a_edge12_Node000001_Node000013"><a xlink:title=" ">
<path fill="none" stroke="#9a32cd" stroke-dasharray="5,2" d="M485.28,-121.93C477.38,-99.11 461.08,-60.51 435,-37 422.14,-25.4 403.5,-18.47 389.65,-14.62"/>
<polygon fill="#9a32cd" stroke="#9a32cd" points="482.05,-123.32 488.49,-131.74 488.71,-121.14 482.05,-123.32"/>
</a>
</g>
<text text-anchor="middle" x="512.5" y="-106" font-family="Helvetica,sans-Serif" font-size="10.00" fill="grey"> corner_data</text>
<text text-anchor="middle" x="512.5" y="-95" font-family="Helvetica,sans-Serif" font-size="10.00" fill="grey">edgex_data</text>
<text text-anchor="middle" x="512.5" y="-84" font-family="Helvetica,sans-Serif" font-size="10.00" fill="grey">edgey_data</text>
<text text-anchor="middle" x="512.5" y="-73" font-family="Helvetica,sans-Serif" font-size="10.00" fill="grey">edgez_data</text>
<text text-anchor="middle" x="512.5" y="-62" font-family="Helvetica,sans-Serif" font-size="10.00" fill="grey">sidexy_data</text>
<text text-anchor="middle" x="512.5" y="-51" font-family="Helvetica,sans-Serif" font-size="10.00" fill="grey">sidexz_data</text>
<text text-anchor="middle" x="512.5" y="-40" font-family="Helvetica,sans-Serif" font-size="10.00" fill="grey">sideyz_data</text>
</g>
</g>
</svg>
