<?xml version="1.0" encoding="UTF-8" standalone="no"?>
<!DOCTYPE svg PUBLIC "-//W3C//DTD SVG 1.1//EN"
 "http://www.w3.org/Graphics/SVG/1.1/DTD/svg11.dtd">
<!-- Generated by graphviz version 2.43.0 (0)
 -->
<!-- Title: Grid Pages: 1 -->
<!--zoomable 451 -->

<svg id="main" version="1.1" xmlns="http://www.w3.org/2000/svg" xmlns:xlink="http://www.w3.org/1999/xlink" xml:space="preserve" onload="init(evt)">
<style type="text/css"><![CDATA[
.node, .edge {opacity: 0.7;}
.node.selected, .edge.selected {opacity: 1;}
.edge:hover path { stroke: red; }
.edge:hover polygon { stroke: red; fill: red; }
]]></style>

<defs>
  <circle id="rim" cx="0" cy="0" r="7"/>
  <circle id="rim2" cx="0" cy="0" r="3.5"/>
  <g id="zoomPlus">
    <use xlink:href="#rim" fill="#404040"><set attributeName="fill" to="#808080" begin="zoomplus.mouseover" end="zoomplus.mouseout"/></use>
    <path d="M-4,0h8M0,-4v8" fill="none" stroke="white" stroke-width="1.5" pointer-events="none"/>
  </g>
  <g id="zoomMin">
    <use xlink:href="#rim" fill="#404040"><set attributeName="fill" to="#808080" begin="zoomminus.mouseover" end="zoomminus.mouseout"/></use>
    <path d="M-4,0h8" fill="none" stroke="white" stroke-width="1.5" pointer-events="none"/>
  </g>
  <g id="arrowUp" transform="translate(30 24)">
    <use xlink:href="#rim"/>
    <path pointer-events="none" fill="none" stroke="white" stroke-width="1.5" d="M0,-3.0v7 M-2.5,-0.5L0,-3.0L2.5,-0.5"/>
  </g>
  <g id="arrowRight" transform="rotate(90) translate(36 -43)">
    <use xlink:href="#rim"/>
    <path pointer-events="none" fill="none" stroke="white" stroke-width="1.5" d="M0,-3.0v7 M-2.5,-0.5L0,-3.0L2.5,-0.5"/>
  </g>
  <g id="arrowDown" transform="rotate(180) translate(-30 -48)">
    <use xlink:href="#rim"/>
    <path pointer-events="none" fill="none" stroke="white" stroke-width="1.5" d="M0,-3.0v7 M-2.5,-0.5L0,-3.0L2.5,-0.5"/>
  </g>
  <g id="arrowLeft" transform="rotate(270) translate(-36 17)">
    <use xlink:href="#rim"/>
    <path pointer-events="none" fill="none" stroke="white" stroke-width="1.5" d="M0,-3.0v7 M-2.5,-0.5L0,-3.0L2.5,-0.5"/>
  </g>
  <g id="resetDef">
    <use xlink:href="#rim2" fill="#404040"><set attributeName="fill" to="#808080" begin="reset.mouseover" end="reset.mouseout"/></use>
  </g>
</defs>
<script type="application/ecmascript">
var viewWidth = 1139;
var viewHeight = 451;
var sectionId = 'dynsection-0';
</script>
<script type="application/ecmascript" xlink:href="svg.min.js"/>
<svg id="graph" class="graph">
<g id="viewport">
<title>Grid</title>
<!-- Node1 -->
<g id="Node000001" class="node">
<title>Node1</title>
<g id="a_Node000001"><a xlink:title=" ">
<polygon fill="#999999" stroke="#666666" points="1131,-125.19 1094,-125.19 1094,-106.19 1131,-106.19 1131,-125.19"/>
<text text-anchor="middle" x="1112.5" y="-113.19" font-family="Helvetica,sans-Serif" font-size="10.00">Grid</text>
</a>
</g>
</g>
<!-- Node2 -->
<g id="Node000002" class="node">
<title>Node2</title>
<g id="a_Node000002"><a xlink:href="structdevice__s.html" target="_top" xlink:title=" ">
<polygon fill="white" stroke="#666666" points="982,-210.19 923,-210.19 923,-191.19 982,-191.19 982,-210.19"/>
<text text-anchor="middle" x="952.5" y="-198.19" font-family="Helvetica,sans-Serif" font-size="10.00">device_s</text>
</a>
</g>
</g>
<!-- Node2&#45;&gt;Node1 -->
<g id="edge1_Node000001_Node000002" class="edge">
<title>Node2&#45;&gt;Node1</title>
<g id="a_edge1_Node000001_Node000002"><a xlink:title=" ">
<path fill="none" stroke="#9a32cd" stroke-dasharray="5,2" d="M980.25,-186.3C1012.69,-168.85 1066.42,-139.94 1093.99,-125.11"/>
<polygon fill="#9a32cd" stroke="#9a32cd" points="978.47,-183.28 971.32,-191.1 981.78,-189.45 978.47,-183.28"/>
</a>
</g>
<text text-anchor="middle" x="1038" y="-177.69" font-family="Helvetica,sans-Serif" font-size="10.00" fill="grey"> device</text>
</g>
<!-- Node3 -->
<g id="Node000003" class="node">
<title>Node3</title>
<g id="a_Node000003"><a xlink:href="structAcMeshInfo.html" target="_top" xlink:title=" ">
<polygon fill="white" stroke="#666666" points="800,-361.19 726,-361.19 726,-342.19 800,-342.19 800,-361.19"/>
<text text-anchor="middle" x="763" y="-349.19" font-family="Helvetica,sans-Serif" font-size="10.00">AcMeshInfo</text>
</a>
</g>
</g>
<!-- Node3&#45;&gt;Node2 -->
<g id="edge2_Node000002_Node000003" class="edge">
<title>Node3&#45;&gt;Node2</title>
<g id="a_edge2_Node000002_Node000003"><a xlink:title=" ">
<path fill="none" stroke="#9a32cd" stroke-dasharray="5,2" d="M784.01,-335.57C822.94,-304.23 907.77,-235.9 939.34,-210.48"/>
<polygon fill="#9a32cd" stroke="#9a32cd" points="781.61,-333.02 776.01,-342.01 786,-338.47 781.61,-333.02"/>
</a>
</g>
<text text-anchor="middle" x="874.5" y="-287.69" font-family="Helvetica,sans-Serif" font-size="10.00" fill="grey"> local_config</text>
</g>
<!-- Node22 -->
<g id="Node000022" class="node">
<title>Node22</title>
<g id="a_Node000022"><a xlink:href="structAcMesh.html" target="_top" xlink:title=" ">
<polygon fill="white" stroke="#666666" points="980,-346.19 925,-346.19 925,-327.19 980,-327.19 980,-346.19"/>
<text text-anchor="middle" x="952.5" y="-334.19" font-family="Helvetica,sans-Serif" font-size="10.00">AcMesh</text>
</a>
</g>
</g>
<!-- Node3&#45;&gt;Node22 -->
<g id="edge22_Node000022_Node000003" class="edge">
<title>Node3&#45;&gt;Node22</title>
<g id="a_edge22_Node000022_Node000003"><a xlink:title=" ">
<path fill="none" stroke="#9a32cd" stroke-dasharray="5,2" d="M810.42,-347.98C846.44,-345.09 895.11,-341.2 924.85,-338.82"/>
<polygon fill="#9a32cd" stroke="#9a32cd" points="809.84,-344.51 800.15,-348.8 810.4,-351.49 809.84,-344.51"/>
</a>
</g>
<text text-anchor="middle" x="874.5" y="-347.69" font-family="Helvetica,sans-Serif" font-size="10.00" fill="grey"> info</text>
</g>
<!-- Node4 -->
<g id="Node000004" class="node">
<title>Node4</title>
<g id="a_Node000004"><a xlink:href="structAcMeshInfoLoaded.html" target="_top" xlink:title=" ">
<polygon fill="white" stroke="#666666" points="538,-369.19 429,-369.19 429,-350.19 538,-350.19 538,-369.19"/>
<text text-anchor="middle" x="483.5" y="-357.19" font-family="Helvetica,sans-Serif" font-size="10.00">AcMeshInfoLoaded</text>
</a>
</g>
</g>
<!-- Node4&#45;&gt;Node3 -->
<g id="edge3_Node000003_Node000004" class="edge">
<title>Node4&#45;&gt;Node3</title>
<g id="a_edge3_Node000003_Node000004"><a xlink:title=" ">
<path fill="none" stroke="#9a32cd" stroke-dasharray="5,2" d="M548.01,-357.86C603.09,-356.27 680.85,-354.03 725.88,-352.73"/>
<polygon fill="#9a32cd" stroke="#9a32cd" points="547.9,-354.36 538,-358.15 548.1,-361.36 547.9,-354.36"/>
</a>
</g>
<text text-anchor="middle" x="626" y="-359.69" font-family="Helvetica,sans-Serif" font-size="10.00" fill="grey"> is_loaded</text>
</g>
<!-- Node5 -->
<g id="Node000005" class="node">
<title>Node5</title>
<g id="a_Node000005"><a xlink:href="structAcCommunicator.html" target="_top" xlink:title=" ">
<polygon fill="white" stroke="#666666" points="534,-332.19 433,-332.19 433,-313.19 534,-313.19 534,-332.19"/>
<text text-anchor="middle" x="483.5" y="-320.19" font-family="Helvetica,sans-Serif" font-size="10.00">AcCommunicator</text>
</a>
</g>
</g>
<!-- Node5&#45;&gt;Node3 -->
<g id="edge4_Node000003_Node000005" class="edge">
<title>Node5&#45;&gt;Node3</title>
<g id="a_edge4_Node000003_Node000005"><a xlink:title=" ">
<path fill="none" stroke="#9a32cd" stroke-dasharray="5,2" d="M544.31,-326.28C583.54,-328.95 635.92,-333.09 682,-338.69 696.39,-340.44 712.15,-342.88 725.85,-345.18"/>
<polygon fill="#9a32cd" stroke="#9a32cd" points="544.33,-322.78 534.12,-325.6 543.87,-329.76 544.33,-322.78"/>
</a>
</g>
<text text-anchor="middle" x="626" y="-341.69" font-family="Helvetica,sans-Serif" font-size="10.00" fill="grey"> comm</text>
</g>
<!-- Node6 -->
<g id="Node000006" class="node">
<title>Node6</title>
<g id="a_Node000006"><a xlink:href="structAcCompInfo.html" target="_top" xlink:title=" ">
<polygon fill="white" stroke="#666666" points="521.5,-406.19 445.5,-406.19 445.5,-387.19 521.5,-387.19 521.5,-406.19"/>
<text text-anchor="middle" x="483.5" y="-394.19" font-family="Helvetica,sans-Serif" font-size="10.00">AcCompInfo</text>
</a>
</g>
</g>
<!-- Node6&#45;&gt;Node3 -->
<g id="edge5_Node000003_Node000006" class="edge">
<title>Node6&#45;&gt;Node3</title>
<g id="a_edge5_Node000003_Node000006"><a xlink:title=" ">
<path fill="none" stroke="#9a32cd" stroke-dasharray="5,2" d="M531.88,-392.29C572.04,-388.18 631.06,-381.25 682,-371.69 697.06,-368.86 713.5,-364.91 727.55,-361.26"/>
<polygon fill="#9a32cd" stroke="#9a32cd" points="531.43,-388.82 521.83,-393.3 532.13,-395.78 531.43,-388.82"/>
</a>
</g>
<text text-anchor="middle" x="626" y="-389.69" font-family="Helvetica,sans-Serif" font-size="10.00" fill="grey"> run_consts</text>
</g>
<!-- Node7 -->
<g id="Node000007" class="node">
<title>Node7</title>
<g id="a_Node000007"><a xlink:href="structAcCompInfoConfig.html" target="_top" xlink:title=" ">
<polygon fill="white" stroke="#666666" points="260.5,-443.19 153.5,-443.19 153.5,-424.19 260.5,-424.19 260.5,-443.19"/>
<text text-anchor="middle" x="207" y="-431.19" font-family="Helvetica,sans-Serif" font-size="10.00">AcCompInfoConfig</text>
</a>
</g>
</g>
<!-- Node7&#45;&gt;Node6 -->
<g id="edge6_Node000006_Node000007" class="edge">
<title>Node7&#45;&gt;Node6</title>
<g id="a_edge6_Node000006_Node000007"><a xlink:title=" ">
<path fill="none" stroke="#9a32cd" stroke-dasharray="5,2" d="M270.75,-427.3C307.59,-423.33 355.02,-417.81 397,-411.69 412.81,-409.38 430.18,-406.42 445.12,-403.73"/>
<polygon fill="#9a32cd" stroke="#9a32cd" points="270.23,-423.84 260.65,-428.38 270.97,-430.8 270.23,-423.84"/>
</a>
</g>
<text text-anchor="middle" x="350.5" y="-425.69" font-family="Helvetica,sans-Serif" font-size="10.00" fill="grey"> config</text>
</g>
<!-- Node8 -->
<g id="Node000008" class="node">
<title>Node8</title>
<g id="a_Node000008"><a xlink:href="structAcCompInfoLoaded.html" target="_top" xlink:title=" ">
<polygon fill="white" stroke="#666666" points="262.5,-406.19 151.5,-406.19 151.5,-387.19 262.5,-387.19 262.5,-406.19"/>
<text text-anchor="middle" x="207" y="-394.19" font-family="Helvetica,sans-Serif" font-size="10.00">AcCompInfoLoaded</text>
</a>
</g>
</g>
<!-- Node8&#45;&gt;Node6 -->
<g id="edge7_Node000006_Node000008" class="edge">
<title>Node8&#45;&gt;Node6</title>
<g id="a_edge7_Node000006_Node000008"><a xlink:title=" ">
<path fill="none" stroke="#9a32cd" stroke-dasharray="5,2" d="M272.67,-396.69C326.39,-396.69 400.93,-396.69 445.19,-396.69"/>
<polygon fill="#9a32cd" stroke="#9a32cd" points="272.56,-393.19 262.56,-396.69 272.56,-400.19 272.56,-393.19"/>
</a>
</g>
<text text-anchor="middle" x="350.5" y="-399.69" font-family="Helvetica,sans-Serif" font-size="10.00" fill="grey"> is_loaded</text>
</g>
<!-- Node9 -->
<g id="Node000009" class="node">
<title>Node9</title>
<g id="a_Node000009"><a xlink:href="structAcCompInfoHasDefaultValue.html" target="_top" xlink:title=" ">
<polygon fill="white" stroke="#666666" points="286,-369.19 128,-369.19 128,-350.19 286,-350.19 286,-369.19"/>
<text text-anchor="middle" x="207" y="-357.19" font-family="Helvetica,sans-Serif" font-size="10.00">AcCompInfoHasDefaultValue</text>
</a>
</g>
</g>
<!-- Node9&#45;&gt;Node6 -->
<g id="edge8_Node000006_Node000009" class="edge">
<title>Node9&#45;&gt;Node6</title>
<g id="a_edge8_Node000006_Node000009"><a xlink:title=" ">
<path fill="none" stroke="#9a32cd" stroke-dasharray="5,2" d="M296.45,-368.91C328.21,-372.51 364.26,-376.92 397,-381.69 412.81,-383.99 430.18,-386.96 445.12,-389.65"/>
<polygon fill="#9a32cd" stroke="#9a32cd" points="296.62,-365.41 286.29,-367.78 295.84,-372.37 296.62,-365.41"/>
</a>
</g>
<text text-anchor="middle" x="350.5" y="-384.69" font-family="Helvetica,sans-Serif" font-size="10.00" fill="grey"> has_default_value</text>
</g>
<!-- Node10 -->
<g id="Node000010" class="node">
<title>Node10</title>
<g id="a_Node000010"><a xlink:href="structAcInputs.html" target="_top" xlink:title=" ">
<polygon fill="white" stroke="#666666" points="792.5,-244.19 733.5,-244.19 733.5,-225.19 792.5,-225.19 792.5,-244.19"/>
<text text-anchor="middle" x="763" y="-232.19" font-family="Helvetica,sans-Serif" font-size="10.00">AcInputs</text>
</a>
</g>
</g>
<!-- Node10&#45;&gt;Node2 -->
<g id="edge9_Node000002_Node000010" class="edge">
<title>Node10&#45;&gt;Node2</title>
<g id="a_edge9_Node000002_Node000010"><a xlink:title=" ">
<path fill="none" stroke="#9a32cd" stroke-dasharray="5,2" d="M802.45,-229.72C830.9,-225.8 870.53,-219.81 905,-212.69 910.72,-211.51 916.78,-210.08 922.58,-208.62"/>
<polygon fill="#9a32cd" stroke="#9a32cd" points="801.94,-226.26 792.5,-231.08 802.88,-233.2 801.94,-226.26"/>
</a>
</g>
<text text-anchor="middle" x="874.5" y="-225.69" font-family="Helvetica,sans-Serif" font-size="10.00" fill="grey"> input</text>
</g>
<!-- Node11 -->
<g id="Node000011" class="node">
<title>Node11</title>
<g id="a_Node000011"><a xlink:href="structVertexBufferArray.html" target="_top" xlink:title=" ">
<polygon fill="white" stroke="#666666" points="815,-203.19 711,-203.19 711,-184.19 815,-184.19 815,-203.19"/>
<text text-anchor="middle" x="763" y="-191.19" font-family="Helvetica,sans-Serif" font-size="10.00">VertexBufferArray</text>
</a>
</g>
</g>
<!-- Node11&#45;&gt;Node2 -->
<g id="edge10_Node000002_Node000011" class="edge">
<title>Node11&#45;&gt;Node2</title>
<g id="a_edge10_Node000002_Node000011"><a xlink:title=" ">
<path fill="none" stroke="#9a32cd" stroke-dasharray="5,2" d="M825.62,-195.99C858.34,-197.21 897,-198.65 922.75,-199.62"/>
<polygon fill="#9a32cd" stroke="#9a32cd" points="825.36,-192.48 815.24,-195.6 825.1,-199.47 825.36,-192.48"/>
</a>
</g>
<text text-anchor="middle" x="874.5" y="-201.69" font-family="Helvetica,sans-Serif" font-size="10.00" fill="grey"> vba</text>
</g>
<!-- Node12 -->
<g id="Node000012" class="node">
<title>Node12</title>
<g id="a_Node000012"><a xlink:href="structAcMeshDims.html" target="_top" xlink:title=" ">
<polygon fill="white" stroke="#666666" points="523.5,-203.19 443.5,-203.19 443.5,-184.19 523.5,-184.19 523.5,-203.19"/>
<text text-anchor="middle" x="483.5" y="-191.19" font-family="Helvetica,sans-Serif" font-size="10.00">AcMeshDims</text>
</a>
</g>
</g>
<!-- Node12&#45;&gt;Node11 -->
<g id="edge11_Node000011_Node000012" class="edge">
<title>Node12&#45;&gt;Node11</title>
<g id="a_edge11_Node000011_Node000012"><a xlink:title=" ">
<path fill="none" stroke="#9a32cd" stroke-dasharray="5,2" d="M533.88,-193.69C583.7,-193.69 660.29,-193.69 710.77,-193.69"/>
<polygon fill="#9a32cd" stroke="#9a32cd" points="533.67,-190.19 523.67,-193.69 533.67,-197.19 533.67,-190.19"/>
</a>
</g>
<text text-anchor="middle" x="626" y="-218.69" font-family="Helvetica,sans-Serif" font-size="10.00" fill="grey"> computational_dims</text>
<text text-anchor="middle" x="626" y="-207.69" font-family="Helvetica,sans-Serif" font-size="10.00" fill="grey">dims</text>
<text text-anchor="middle" x="626" y="-196.69" font-family="Helvetica,sans-Serif" font-size="10.00" fill="grey">profile_dims</text>
</g>
<!-- Node13 -->
<g id="Node000013" class="node">
<title>Node13</title>
<g id="a_Node000013"><a xlink:href="structVolume.html" target="_top" xlink:title=" ">
<polygon fill="white" stroke="#666666" points="233.5,-248.19 180.5,-248.19 180.5,-229.19 233.5,-229.19 233.5,-248.19"/>
<text text-anchor="middle" x="207" y="-236.19" font-family="Helvetica,sans-Serif" font-size="10.00">Volume</text>
</a>
</g>
</g>
<!-- Node13&#45;&gt;Node1 -->
<g id="edge24_Node000001_Node000013" class="edge">
<title>Node13&#45;&gt;Node1</title>
<g id="a_edge24_Node000001_Node000013"><a xlink:title=" ">
<path fill="none" stroke="#9a32cd" stroke-dasharray="5,2" d="M240.83,-251.84C259.13,-258.61 282.5,-266.33 304,-270.69 381.99,-286.5 402.92,-284.69 482.5,-284.69 482.5,-284.69 482.5,-284.69 953.5,-284.69 1041.46,-284.69 1094.56,-161.01 1108.06,-125.26"/>
<polygon fill="#9a32cd" stroke="#9a32cd" points="241.83,-248.48 231.24,-248.21 239.35,-255.02 241.83,-248.48"/>
</a>
</g>
<text text-anchor="middle" x="763" y="-287.69" font-family="Helvetica,sans-Serif" font-size="10.00" fill="grey"> nn</text>
</g>
<!-- Node13&#45;&gt;Node12 -->
<g id="edge12_Node000012_Node000013" class="edge">
<title>Node13&#45;&gt;Node12</title>
<g id="a_edge12_Node000012_Node000013"><a xlink:title=" ">
<path fill="none" stroke="#9a32cd" stroke-dasharray="5,2" d="M231.63,-224.01C250.45,-213.24 277.87,-199.51 304,-193.69 351.04,-183.21 406.79,-185.46 443.32,-188.85"/>
<polygon fill="#9a32cd" stroke="#9a32cd" points="229.72,-221.08 222.88,-229.17 233.27,-227.11 229.72,-221.08"/>
</a>
</g>
<text text-anchor="middle" x="350.5" y="-262.69" font-family="Helvetica,sans-Serif" font-size="10.00" fill="grey"> m0</text>
<text text-anchor="middle" x="350.5" y="-251.69" font-family="Helvetica,sans-Serif" font-size="10.00" fill="grey">m1</text>
<text text-anchor="middle" x="350.5" y="-240.69" font-family="Helvetica,sans-Serif" font-size="10.00" fill="grey">n0</text>
<text text-anchor="middle" x="350.5" y="-229.69" font-family="Helvetica,sans-Serif" font-size="10.00" fill="grey">n1</text>
<text text-anchor="middle" x="350.5" y="-218.69" font-family="Helvetica,sans-Serif" font-size="10.00" fill="grey">nn</text>
<text text-anchor="start" x="327.5" y="-207.69" font-family="Helvetica,sans-Serif" font-size="10.00" fill="grey">reduction</text>
<text text-anchor="middle" x="350.5" y="-196.69" font-family="Helvetica,sans-Serif" font-size="10.00" fill="grey">_tile</text>
</g>
<!-- Node14 -->
<g id="Node000014" class="node">
<title>Node14</title>
<g id="a_Node000014"><a xlink:href="structDeviceVertexBufferArray.html" target="_top" xlink:title=" ">
<polygon fill="white" stroke="#666666" points="552,-129.19 415,-129.19 415,-110.19 552,-110.19 552,-129.19"/>
<text text-anchor="middle" x="483.5" y="-117.19" font-family="Helvetica,sans-Serif" font-size="10.00">DeviceVertexBufferArray</text>
</a>
</g>
</g>
<!-- Node14&#45;&gt;Node11 -->
<g id="edge13_Node000011_Node000014" class="edge">
<title>Node14&#45;&gt;Node11</title>
<g id="a_edge13_Node000011_Node000014"><a xlink:title=" ">
<path fill="none" stroke="#9a32cd" stroke-dasharray="5,2" d="M562.36,-117.42C600.9,-119.65 646.62,-127.61 682,-149.69 693.92,-157.13 688.59,-167.48 700,-175.69 704.73,-179.09 710.1,-181.86 715.65,-184.1"/>
<polygon fill="#9a32cd" stroke="#9a32cd" points="562.36,-113.92 552.21,-116.96 562.04,-120.91 562.36,-113.92"/>
</a>
</g>
<text text-anchor="middle" x="626" y="-152.69" font-family="Helvetica,sans-Serif" font-size="10.00" fill="grey"> on_device</text>
</g>
<!-- Node15 -->
<g id="Node000015" class="node">
<title>Node15</title>
<g id="a_Node000015"><a xlink:href="structProfileBufferArray.html" target="_top" xlink:title=" ">
<polygon fill="white" stroke="#666666" points="258.5,-123.19 155.5,-123.19 155.5,-104.19 258.5,-104.19 258.5,-123.19"/>
<text text-anchor="middle" x="207" y="-111.19" font-family="Helvetica,sans-Serif" font-size="10.00">ProfileBufferArray</text>
</a>
</g>
</g>
<!-- Node15&#45;&gt;Node14 -->
<g id="edge14_Node000014_Node000015" class="edge">
<title>Node15&#45;&gt;Node14</title>
<g id="a_edge14_Node000014_Node000015"><a xlink:title=" ">
<path fill="none" stroke="#9a32cd" stroke-dasharray="5,2" d="M268.69,-113.19C305.77,-113.09 354.13,-113.32 397,-114.69 402.8,-114.87 408.81,-115.12 414.84,-115.4"/>
<polygon fill="#9a32cd" stroke="#9a32cd" points="268.54,-109.69 258.55,-113.23 268.56,-116.69 268.54,-109.69"/>
</a>
</g>
<text text-anchor="middle" x="350.5" y="-117.69" font-family="Helvetica,sans-Serif" font-size="10.00" fill="grey"> profiles</text>
</g>
<!-- Node16 -->
<g id="Node000016" class="node">
<title>Node16</title>
<g id="a_Node000016"><a xlink:href="structint3.html" target="_top" xlink:title=" ">
<polygon fill="white" stroke="#666666" points="224.5,-54.19 189.5,-54.19 189.5,-35.19 224.5,-35.19 224.5,-54.19"/>
<text text-anchor="middle" x="207" y="-42.19" font-family="Helvetica,sans-Serif" font-size="10.00">int3</text>
</a>
</g>
</g>
<!-- Node16&#45;&gt;Node1 -->
<g id="edge25_Node000001_Node000016" class="edge">
<title>Node16&#45;&gt;Node1</title>
<g id="a_edge25_Node000001_Node000016"><a xlink:title=" ">
<path fill="none" stroke="#9a32cd" stroke-dasharray="5,2" d="M234.28,-37.62C282.9,-25.18 390.32,-0.69 482.5,-0.69 482.5,-0.69 482.5,-0.69 953.5,-0.69 1009.45,-0.69 1033.42,6.61 1076,-29.69 1099.6,-49.81 1107.77,-88.12 1110.38,-106.02"/>
<polygon fill="#9a32cd" stroke="#9a32cd" points="233.36,-34.24 224.56,-40.15 235.12,-41.02 233.36,-34.24"/>
</a>
</g>
<text text-anchor="middle" x="763" y="-3.69" font-family="Helvetica,sans-Serif" font-size="10.00" fill="grey"> nn</text>
</g>
<!-- Node16&#45;&gt;Node14 -->
<g id="edge15_Node000014_Node000016" class="edge">
<title>Node16&#45;&gt;Node14</title>
<g id="a_edge15_Node000014_Node000016"><a xlink:title=" ">
<path fill="none" stroke="#9a32cd" stroke-dasharray="5,2" d="M234.48,-52.05C273.83,-62.98 350.08,-84.09 415,-101.69 425.18,-104.45 436.24,-107.41 446.4,-110.12"/>
<polygon fill="#9a32cd" stroke="#9a32cd" points="235.2,-48.62 224.62,-49.32 233.32,-55.37 235.2,-48.62"/>
</a>
</g>
<text text-anchor="middle" x="350.5" y="-97.69" font-family="Helvetica,sans-Serif" font-size="10.00" fill="grey"> block_factor</text>
</g>
<!-- Node24 -->
<g id="Node000024" class="node">
<title>Node24</title>
<g id="a_Node000024"><a xlink:href="structCommData.html" target="_top" xlink:title=" ">
<polygon fill="white" stroke="#666666" points="662,-57.19 590,-57.19 590,-38.19 662,-38.19 662,-57.19"/>
<text text-anchor="middle" x="626" y="-45.19" font-family="Helvetica,sans-Serif" font-size="10.00">CommData</text>
</a>
</g>
</g>
<!-- Node16&#45;&gt;Node24 -->
<g id="edge27_Node000024_Node000016" class="edge">
<title>Node16&#45;&gt;Node24</title>
<g id="a_edge27_Node000024_Node000016"><a xlink:title=" ">
<path fill="none" stroke="#9a32cd" stroke-dasharray="5,2" d="M234.74,-44.88C307.34,-45.4 508.16,-46.85 589.8,-47.44"/>
<polygon fill="#9a32cd" stroke="#9a32cd" points="234.63,-41.38 224.6,-44.81 234.58,-48.38 234.63,-41.38"/>
</a>
</g>
<text text-anchor="middle" x="350.5" y="-48.69" font-family="Helvetica,sans-Serif" font-size="10.00" fill="grey"> dims</text>
</g>
<!-- Node17 -->
<g id="Node000017" class="node">
<title>Node17</title>
<g id="a_Node000017"><a xlink:href="structAcScratchpadStates.html" target="_top" xlink:title=" ">
<polygon fill="white" stroke="#666666" points="540,-92.19 427,-92.19 427,-73.19 540,-73.19 540,-92.19"/>
<text text-anchor="middle" x="483.5" y="-80.19" font-family="Helvetica,sans-Serif" font-size="10.00">AcScratchpadStates</text>
</a>
</g>
</g>
<!-- Node17&#45;&gt;Node11 -->
<g id="edge16_Node000011_Node000017" class="edge">
<title>Node17&#45;&gt;Node11</title>
<g id="a_edge16_Node000011_Node000017"><a xlink:title=" ">
<path fill="none" stroke="#9a32cd" stroke-dasharray="5,2" d="M544.19,-72.06C587.5,-67.92 644.78,-70.37 682,-102.69 707.23,-124.6 676.86,-151.58 700,-175.69 703.26,-179.09 707.12,-181.85 711.29,-184.1"/>
<polygon fill="#9a32cd" stroke="#9a32cd" points="543.62,-68.6 534.06,-73.17 544.38,-75.56 543.62,-68.6"/>
</a>
</g>
<text text-anchor="middle" x="626" y="-105.69" font-family="Helvetica,sans-Serif" font-size="10.00" fill="grey"> scratchpad_states</text>
</g>
<!-- Node18 -->
<g id="Node000018" class="node">
<title>Node18</title>
<g id="a_Node000018"><a xlink:href="structAcReduceBuffer.html" target="_top" xlink:title=" ">
<polygon fill="white" stroke="#666666" points="530.5,-166.19 436.5,-166.19 436.5,-147.19 530.5,-147.19 530.5,-166.19"/>
<text text-anchor="middle" x="483.5" y="-154.19" font-family="Helvetica,sans-Serif" font-size="10.00">AcReduceBuffer</text>
</a>
</g>
</g>
<!-- Node18&#45;&gt;Node11 -->
<g id="edge17_Node000011_Node000018" class="edge">
<title>Node18&#45;&gt;Node11</title>
<g id="a_edge17_Node000011_Node000018"><a xlink:title=" ">
<path fill="none" stroke="#9a32cd" stroke-dasharray="5,2" d="M540.52,-161.81C580.13,-165.7 634.44,-171.59 682,-178.69 692.48,-180.25 703.69,-182.19 714.3,-184.14"/>
<polygon fill="#9a32cd" stroke="#9a32cd" points="540.81,-158.32 530.52,-160.84 540.13,-165.29 540.81,-158.32"/>
</a>
</g>
<text text-anchor="middle" x="626" y="-181.69" font-family="Helvetica,sans-Serif" font-size="10.00" fill="grey"> profile_reduce_buffers</text>
</g>
<!-- Node19 -->
<g id="Node000019" class="node">
<title>Node19</title>
<g id="a_Node000019"><a xlink:href="structAcBuffer.html" target="_top" xlink:title=" ">
<polygon fill="white" stroke="#666666" points="236,-160.19 178,-160.19 178,-141.19 236,-141.19 236,-160.19"/>
<text text-anchor="middle" x="207" y="-148.19" font-family="Helvetica,sans-Serif" font-size="10.00">AcBuffer</text>
</a>
</g>
</g>
<!-- Node19&#45;&gt;Node18 -->
<g id="edge18_Node000018_Node000019" class="edge">
<title>Node19&#45;&gt;Node18</title>
<g id="a_edge18_Node000018_Node000019"><a xlink:title=" ">
<path fill="none" stroke="#9a32cd" stroke-dasharray="5,2" d="M246.36,-149C284.56,-147.62 344.87,-146.26 397,-148.69 409.81,-149.29 423.66,-150.39 436.41,-151.58"/>
<polygon fill="#9a32cd" stroke="#9a32cd" points="246.06,-145.51 236.2,-149.39 246.32,-152.5 246.06,-145.51"/>
</a>
</g>
<text text-anchor="middle" x="350.5" y="-162.69" font-family="Helvetica,sans-Serif" font-size="10.00" fill="grey"> src</text>
<text text-anchor="middle" x="350.5" y="-151.69" font-family="Helvetica,sans-Serif" font-size="10.00" fill="grey">transposed</text>
</g>
<!-- Node20 -->
<g id="Node000020" class="node">
<title>Node20</title>
<g id="a_Node000020"><a xlink:href="structAcShape.html" target="_top" xlink:title=" ">
<polygon fill="white" stroke="#666666" points="59,-160.19 0,-160.19 0,-141.19 59,-141.19 59,-160.19"/>
<text text-anchor="middle" x="29.5" y="-148.19" font-family="Helvetica,sans-Serif" font-size="10.00">AcShape</text>
</a>
</g>
</g>
<!-- Node20&#45;&gt;Node19 -->
<g id="edge19_Node000019_Node000020" class="edge">
<title>Node20&#45;&gt;Node19</title>
<g id="a_edge19_Node000019_Node000020"><a xlink:title=" ">
<path fill="none" stroke="#9a32cd" stroke-dasharray="5,2" d="M69.23,-150.69C102.03,-150.69 148.29,-150.69 177.72,-150.69"/>
<polygon fill="#9a32cd" stroke="#9a32cd" points="69.09,-147.19 59.09,-150.69 69.09,-154.19 69.09,-147.19"/>
</a>
</g>
<text text-anchor="middle" x="93.5" y="-153.69" font-family="Helvetica,sans-Serif" font-size="10.00" fill="grey"> shape</text>
</g>
<!-- Node21 -->
<g id="Node000021" class="node">
<title>Node21</title>
<g id="a_Node000021"><a xlink:href="structAcDeviceKernelOutput.html" target="_top" xlink:title=" ">
<polygon fill="white" stroke="#666666" points="826,-166.19 700,-166.19 700,-147.19 826,-147.19 826,-166.19"/>
<text text-anchor="middle" x="763" y="-154.19" font-family="Helvetica,sans-Serif" font-size="10.00">AcDeviceKernelOutput</text>
</a>
</g>
</g>
<!-- Node21&#45;&gt;Node2 -->
<g id="edge20_Node000002_Node000021" class="edge">
<title>Node21&#45;&gt;Node2</title>
<g id="a_edge20_Node000002_Node000021"><a xlink:title=" ">
<path fill="none" stroke="#9a32cd" stroke-dasharray="5,2" d="M836.15,-166.45C858.45,-170.28 882.94,-175.31 905,-181.69 913.54,-184.16 922.66,-187.68 930.54,-191.02"/>
<polygon fill="#9a32cd" stroke="#9a32cd" points="836.51,-162.96 826.07,-164.78 835.37,-169.87 836.51,-162.96"/>
</a>
</g>
<text text-anchor="middle" x="874.5" y="-184.69" font-family="Helvetica,sans-Serif" font-size="10.00" fill="grey"> output</text>
</g>
<!-- Node22&#45;&gt;Node1 -->
<g id="edge21_Node000001_Node000022" class="edge">
<title>Node22&#45;&gt;Node1</title>
<g id="a_edge21_Node000001_Node000022"><a xlink:title=" ">
<path fill="none" stroke="#9a32cd" stroke-dasharray="5,2" d="M990.22,-335.04C1017.8,-331.78 1054.39,-322.8 1076,-298.69 1099.44,-272.54 1108.65,-159.23 1110.91,-125.32"/>
<polygon fill="#9a32cd" stroke="#9a32cd" points="989.76,-331.57 980.15,-336.03 990.44,-338.54 989.76,-331.57"/>
</a>
</g>
<text text-anchor="middle" x="1038" y="-335.69" font-family="Helvetica,sans-Serif" font-size="10.00" fill="grey"> submesh</text>
</g>
<!-- Node23 -->
<g id="Node000023" class="node">
<title>Node23</title>
<g id="a_Node000023"><a xlink:href="structuint3__64.html" target="_top" xlink:title=" ">
<polygon fill="white" stroke="#666666" points="982,-48.19 923,-48.19 923,-29.19 982,-29.19 982,-48.19"/>
<text text-anchor="middle" x="952.5" y="-36.19" font-family="Helvetica,sans-Serif" font-size="10.00">uint3_64</text>
</a>
</g>
</g>
<!-- Node23&#45;&gt;Node1 -->
<g id="edge23_Node000001_Node000023" class="edge">
<title>Node23&#45;&gt;Node1</title>
<g id="a_edge23_Node000001_Node000023"><a xlink:title=" ">
<path fill="none" stroke="#9a32cd" stroke-dasharray="5,2" d="M992.4,-34.02C1018.15,-32.92 1051.55,-35.5 1076,-51.69 1095.28,-64.46 1105.09,-91.42 1109.15,-105.94"/>
<polygon fill="#9a32cd" stroke="#9a32cd" points="992,-30.54 982.24,-34.66 992.44,-37.52 992,-30.54"/>
</a>
</g>
<text text-anchor="middle" x="1038" y="-54.69" font-family="Helvetica,sans-Serif" font-size="10.00" fill="grey"> decomposition</text>
</g>
<!-- Node24&#45;&gt;Node1 -->
<g id="edge26_Node000001_Node000024" class="edge">
<title>Node24&#45;&gt;Node1</title>
<g id="a_edge26_Node000001_Node000024"><a xlink:title=" ">
<path fill="none" stroke="#9a32cd" stroke-dasharray="5,2" d="M672.22,-54.03C727.24,-61.75 822.93,-75.17 905,-86.69 974.91,-96.5 1058.13,-108.19 1093.82,-113.21"/>
<polygon fill="#9a32cd" stroke="#9a32cd" points="672.5,-50.54 662.11,-52.61 671.53,-57.47 672.5,-50.54"/>
</a>
</g>
<text text-anchor="middle" x="874.5" y="-155.69" font-family="Helvetica,sans-Serif" font-size="10.00" fill="grey"> corner_data</text>
<text text-anchor="middle" x="874.5" y="-144.69" font-family="Helvetica,sans-Serif" font-size="10.00" fill="grey">edgex_data</text>
<text text-anchor="middle" x="874.5" y="-133.69" font-family="Helvetica,sans-Serif" font-size="10.00" fill="grey">edgey_data</text>
<text text-anchor="middle" x="874.5" y="-122.69" font-family="Helvetica,sans-Serif" font-size="10.00" fill="grey">edgez_data</text>
<text text-anchor="middle" x="874.5" y="-111.69" font-family="Helvetica,sans-Serif" font-size="10.00" fill="grey">sidexy_data</text>
<text text-anchor="middle" x="874.5" y="-100.69" font-family="Helvetica,sans-Serif" font-size="10.00" fill="grey">sidexz_data</text>
<text text-anchor="middle" x="874.5" y="-89.69" font-family="Helvetica,sans-Serif" font-size="10.00" fill="grey">sideyz_data</text>
</g>
</g>
</svg>

<g id="navigator" transform="translate(0 0)" fill="#404254">
  <rect fill="#f2f5e9" fill-opacity="0.5" stroke="#606060" stroke-width=".5" x="0" y="0" width="60" height="60"/>
  <use id="zoomplus" xlink:href="#zoomPlus" x="17" y="9" onmousedown="handleZoom(evt,'in')"/>
  <use id="zoomminus" xlink:href="#zoomMin" x="42" y="9" onmousedown="handleZoom(evt,'out')"/>
  <use id="reset" xlink:href="#resetDef" x="30" y="36" onmousedown="handleReset()"/>
   <use id="arrowup" xlink:href="#arrowUp" x="0" y="0" onmousedown="handlePan(0,-1)"/>
  <use id="arrowright" xlink:href="#arrowRight" x="0" y="0" onmousedown="handlePan(1,0)"/>
  <use id="arrowdown" xlink:href="#arrowDown" x="0" y="0" onmousedown="handlePan(0,1)"/>
  <use id="arrowleft" xlink:href="#arrowLeft" x="0" y="0" onmousedown="handlePan(-1,0)"/>
</g>
<svg viewBox="0 0 15 15" width="100%" height="30px" preserveAspectRatio="xMaxYMin meet">
 <g id="arrow_out" transform="scale(0.3 0.3)">
  <a xlink:href="structGrid__coll__graph_org.svg" target="_base">
   <rect id="button" ry="5" rx="5" y="6" x="6" height="38" width="38"
        fill="#f2f5e9" fill-opacity="0.5" stroke="#606060" stroke-width="1.0"/>
   <path id="arrow"
     d="M 11.500037,31.436501 C 11.940474,20.09759 22.043105,11.32322 32.158766,21.979434 L 37.068811,17.246167 C 37.068811,17.246167 37.088388,32 37.088388,32 L 22.160133,31.978069 C 22.160133,31.978069 26.997745,27.140456 26.997745,27.140456 C 18.528582,18.264221 13.291696,25.230495 11.500037,31.436501 z"
     style="fill:#404040;"/>
  </a>
 </g>
</svg>

<style type='text/css'>
<![CDATA[
[data-mouse-over-selected='false'] { opacity: 0.7; }
[data-mouse-over-selected='true']  { opacity: 1.0; }
]]>
</style>
<script type="application/ecmascript"><![CDATA[
document.addEventListener('DOMContentLoaded', (event) => {
  highlightEdges();
  highlightAdjacentNodes();
});
]]></script>
</svg>
