<?xml version="1.0" encoding="UTF-8" standalone="no"?>
<!DOCTYPE svg PUBLIC "-//W3C//DTD SVG 1.1//EN"
 "http://www.w3.org/Graphics/SVG/1.1/DTD/svg11.dtd">
<!-- Generated by graphviz version 2.43.0 (0)
 -->
<!-- Title: overloaded_dfuncs Pages: 1 -->
<svg width="146pt" height="93pt"
 viewBox="0.00 0.00 145.50 93.00" xmlns="http://www.w3.org/2000/svg" xmlns:xlink="http://www.w3.org/1999/xlink">
<g id="graph0" class="graph" transform="scale(1 1) rotate(0) translate(4 89)">
<title>overloaded_dfuncs</title>
<!-- Node1 -->
<g id="Node000001" class="node">
<title>Node1</title>
<g id="a_Node000001"><a xlink:title=" ">
<polygon fill="#999999" stroke="#666666" points="127,-19 18,-19 18,0 127,0 127,-19"/>
<text text-anchor="middle" x="72.5" y="-7" font-family="Helvetica,sans-Serif" font-size="10.00">overloaded_dfuncs</text>
</a>
</g>
</g>
<!-- Node2 -->
<g id="Node000002" class="node">
<title>Node2</title>
<g id="a_Node000002"><a xlink:href="structstring__vec.html" target="_top" xlink:title=" ">
<polygon fill="white" stroke="#666666" points="67,-85 0,-85 0,-66 67,-66 67,-85"/>
<text text-anchor="middle" x="33.5" y="-73" font-family="Helvetica,sans-Serif" font-size="10.00">string_vec</text>
</a>
</g>
</g>
<!-- Node2&#45;&gt;Node1 -->
<g id="edge1_Node000001_Node000002" class="edge">
<title>Node2&#45;&gt;Node1</title>
<g id="a_edge1_Node000001_Node000002"><a xlink:title=" ">
<path fill="none" stroke="#9a32cd" stroke-dasharray="5,2" d="M41.66,-56.8C44.81,-50.42 48.6,-43.26 52.5,-37 56.4,-30.74 61.4,-24.12 65.43,-19.06"/>
<polygon fill="#9a32cd" stroke="#9a32cd" points="38.46,-55.39 37.31,-65.93 44.77,-58.41 38.46,-55.39"/>
</a>
</g>
<text text-anchor="middle" x="71" y="-40" font-family="Helvetica,sans-Serif" font-size="10.00" fill="grey"> names</text>
</g>
<!-- Node3 -->
<g id="Node000003" class="node">
<title>Node3</title>
<g id="a_Node000003"><a xlink:href="structint__vec.html" target="_top" xlink:title=" ">
<polygon fill="white" stroke="#666666" points="137.5,-85 85.5,-85 85.5,-66 137.5,-66 137.5,-85"/>
<text text-anchor="middle" x="111.5" y="-73" font-family="Helvetica,sans-Serif" font-size="10.00">int_vec</text>
</a>
</g>
</g>
<!-- Node3&#45;&gt;Node1 -->
<g id="edge2_Node000001_Node000003" class="edge">
<title>Node3&#45;&gt;Node1</title>
<g id="a_edge2_Node000001_Node000003"><a xlink:title=" ">
<path fill="none" stroke="#9a32cd" stroke-dasharray="5,2" d="M101.32,-56.82C97.65,-50.53 93.44,-43.42 89.5,-37 85.84,-31.04 81.59,-24.41 78.26,-19.28"/>
<polygon fill="#9a32cd" stroke="#9a32cd" points="98.49,-58.91 106.53,-65.8 104.54,-55.4 98.49,-58.91"/>
</a>
</g>
<text text-anchor="middle" x="113.5" y="-40" font-family="Helvetica,sans-Serif" font-size="10.00" fill="grey"> counts</text>
</g>
</g>
</svg>
