<?xml version="1.0" encoding="UTF-8" standalone="no"?>
<!DOCTYPE svg PUBLIC "-//W3C//DTD SVG 1.1//EN"
 "http://www.w3.org/Graphics/SVG/1.1/DTD/svg11.dtd">
<!-- Generated by graphviz version 2.43.0 (0)
 -->
<!-- Title: DeviceVertexBufferArray Pages: 1 -->
<svg width="271pt" height="93pt"
 viewBox="0.00 0.00 271.00 93.00" xmlns="http://www.w3.org/2000/svg" xmlns:xlink="http://www.w3.org/1999/xlink">

<svg id="main" version="1.1" xmlns="http://www.w3.org/2000/svg" xmlns:xlink="http://www.w3.org/1999/xlink" xml:space="preserve" onload="init(evt)">
<style type="text/css"><![CDATA[
.node, .edge {opacity: 0.7;}
.node.selected, .edge.selected {opacity: 1;}
.edge:hover path { stroke: red; }
.edge:hover polygon { stroke: red; fill: red; }
]]></style>
<script type="application/ecmascript" xlink:href="svg.min.js"/>
<svg id="graph" class="graph">
<g id="graph0" class="graph" transform="scale(1 1) rotate(0) translate(4 89)">
<title>DeviceVertexBufferArray</title>
<!-- Node1 -->
<g id="Node000001" class="node">
<title>Node1</title>
<g id="a_Node000001"><a xlink:title=" ">
<polygon fill="#999999" stroke="#666666" points="210.5,-19 73.5,-19 73.5,0 210.5,0 210.5,-19"/>
<text text-anchor="middle" x="142" y="-7" font-family="Helvetica,sans-Serif" font-size="10.00">DeviceVertexBufferArray</text>
</a>
</g>
</g>
<!-- Node2 -->
<g id="Node000002" class="node">
<title>Node2</title>
<g id="a_Node000002"><a xlink:href="structAcComplex.html" target="_top" xlink:title=" ">
<polygon fill="white" stroke="#666666" points="72,-85 0,-85 0,-66 72,-66 72,-85"/>
<text text-anchor="middle" x="36" y="-73" font-family="Helvetica,sans-Serif" font-size="10.00">AcComplex</text>
</a>
</g>
</g>
<!-- Node2&#45;&gt;Node1 -->
<g id="edge1_Node000001_Node000002" class="edge">
<title>Node2&#45;&gt;Node1</title>
<g id="a_edge1_Node000001_Node000002"><a xlink:title=" ">
<path fill="none" stroke="#9a32cd" stroke-dasharray="5,2" d="M51.32,-58.54C58.87,-51.3 68.39,-43.03 78,-37 89.71,-29.65 103.82,-23.55 115.8,-19.07"/>
<polygon fill="#9a32cd" stroke="#9a32cd" points="48.61,-56.29 44,-65.83 53.56,-61.25 48.61,-56.29"/>
</a>
</g>
<text text-anchor="middle" x="108" y="-40" font-family="Helvetica,sans-Serif" font-size="10.00" fill="grey"> complex_in</text>
</g>
<!-- Node3 -->
<g id="Node000003" class="node">
<title>Node3</title>
<g id="a_Node000003"><a xlink:href="structProfileBufferArray.html" target="_top" xlink:title=" ">
<polygon fill="white" stroke="#666666" points="193.5,-85 90.5,-85 90.5,-66 193.5,-66 193.5,-85"/>
<text text-anchor="middle" x="142" y="-73" font-family="Helvetica,sans-Serif" font-size="10.00">ProfileBufferArray</text>
</a>
</g>
</g>
<!-- Node3&#45;&gt;Node1 -->
<g id="edge2_Node000001_Node000003" class="edge">
<title>Node3&#45;&gt;Node1</title>
<g id="a_edge2_Node000001_Node000003"><a xlink:title=" ">
<path fill="none" stroke="#9a32cd" stroke-dasharray="5,2" d="M142,-55.58C142,-43.63 142,-28.72 142,-19.41"/>
<polygon fill="#9a32cd" stroke="#9a32cd" points="138.5,-55.87 142,-65.87 145.5,-55.87 138.5,-55.87"/>
</a>
</g>
<text text-anchor="middle" x="162" y="-40" font-family="Helvetica,sans-Serif" font-size="10.00" fill="grey"> profiles</text>
</g>
<!-- Node4 -->
<g id="Node000004" class="node">
<title>Node4</title>
<g id="a_Node000004"><a xlink:href="structint3.html" target="_top" xlink:title=" ">
<polygon fill="white" stroke="#666666" points="246.5,-85 211.5,-85 211.5,-66 246.5,-66 246.5,-85"/>
<text text-anchor="middle" x="229" y="-73" font-family="Helvetica,sans-Serif" font-size="10.00">int3</text>
</a>
</g>
</g>
<!-- Node4&#45;&gt;Node1 -->
<g id="edge3_Node000001_Node000004" class="edge">
<title>Node4&#45;&gt;Node1</title>
<g id="a_edge3_Node000001_Node000004"><a xlink:title=" ">
<path fill="none" stroke="#9a32cd" stroke-dasharray="5,2" d="M212.53,-58.93C204.75,-51.89 195.17,-43.68 186,-37 177.06,-30.49 166.46,-24.07 157.9,-19.18"/>
<polygon fill="#9a32cd" stroke="#9a32cd" points="210.44,-61.76 220.16,-65.97 215.18,-56.62 210.44,-61.76"/>
</a>
</g>
<text text-anchor="middle" x="231" y="-40" font-family="Helvetica,sans-Serif" font-size="10.00" fill="grey"> block_factor</text>
</g>
</g>
</svg>
</svg>

<style type='text/css'>
<![CDATA[
[data-mouse-over-selected='false'] { opacity: 0.7; }
[data-mouse-over-selected='true']  { opacity: 1.0; }
]]>
</style>
<script type="application/ecmascript"><![CDATA[
document.addEventListener('DOMContentLoaded', (event) => {
  highlightEdges();
  highlightAdjacentNodes();
});
]]></script>
</svg>
