<?xml version="1.0" encoding="UTF-8" standalone="no"?>
<!DOCTYPE svg PUBLIC "-//W3C//DTD SVG 1.1//EN"
 "http://www.w3.org/Graphics/SVG/1.1/DTD/svg11.dtd">
<!-- Generated by graphviz version 2.43.0 (0)
 -->
<!-- Title: VertexBufferArray Pages: 1 -->
<svg width="540pt" height="313pt"
 viewBox="0.00 0.00 540.00 313.00" xmlns="http://www.w3.org/2000/svg" xmlns:xlink="http://www.w3.org/1999/xlink">
<g id="graph0" class="graph" transform="scale(1 1) rotate(0) translate(4 309)">
<title>VertexBufferArray</title>
<!-- Node1 -->
<g id="Node000001" class="node">
<title>Node1</title>
<g id="a_Node000001"><a xlink:title=" ">
<polygon fill="#999999" stroke="#666666" points="323,-19 219,-19 219,0 323,0 323,-19"/>
<text text-anchor="middle" x="271" y="-7" font-family="Helvetica,sans-Serif" font-size="10.00">VertexBufferArray</text>
</a>
</g>
</g>
<!-- Node2 -->
<g id="Node000002" class="node">
<title>Node2</title>
<g id="a_Node000002"><a xlink:href="structAcMeshDims.html" target="_top" xlink:title=" ">
<polygon fill="white" stroke="#666666" points="80,-107 0,-107 0,-88 80,-88 80,-107"/>
<text text-anchor="middle" x="40" y="-95" font-family="Helvetica,sans-Serif" font-size="10.00">AcMeshDims</text>
</a>
</g>
</g>
<!-- Node2&#45;&gt;Node1 -->
<g id="edge1_Node000001_Node000002" class="edge">
<title>Node2&#45;&gt;Node1</title>
<g id="a_edge1_Node000001_Node000002"><a xlink:title=" ">
<path fill="none" stroke="#9a32cd" stroke-dasharray="5,2" d="M48.44,-78.88C56.01,-65.11 68.48,-46.73 85,-37 107.06,-24 172.02,-16.98 218.96,-13.49"/>
<polygon fill="#9a32cd" stroke="#9a32cd" points="45.26,-77.4 43.8,-87.9 51.49,-80.61 45.26,-77.4"/>
</a>
</g>
<text text-anchor="middle" x="136.5" y="-62" font-family="Helvetica,sans-Serif" font-size="10.00" fill="grey"> computational_dims</text>
<text text-anchor="middle" x="136.5" y="-51" font-family="Helvetica,sans-Serif" font-size="10.00" fill="grey">dims</text>
<text text-anchor="middle" x="136.5" y="-40" font-family="Helvetica,sans-Serif" font-size="10.00" fill="grey">profile_dims</text>
</g>
<!-- Node3 -->
<g id="Node000003" class="node">
<title>Node3</title>
<g id="a_Node000003"><a xlink:href="structVolume.html" target="_top" xlink:title=" ">
<polygon fill="white" stroke="#666666" points="66.5,-239 13.5,-239 13.5,-220 66.5,-220 66.5,-239"/>
<text text-anchor="middle" x="40" y="-227" font-family="Helvetica,sans-Serif" font-size="10.00">Volume</text>
</a>
</g>
</g>
<!-- Node3&#45;&gt;Node2 -->
<g id="edge2_Node000002_Node000003" class="edge">
<title>Node3&#45;&gt;Node2</title>
<g id="a_edge2_Node000002_Node000003"><a xlink:title=" ">
<path fill="none" stroke="#9a32cd" stroke-dasharray="5,2" d="M40,-209.73C40,-181.22 40,-128.09 40,-107.23"/>
<polygon fill="#9a32cd" stroke="#9a32cd" points="36.5,-209.97 40,-219.97 43.5,-209.97 36.5,-209.97"/>
</a>
</g>
<text text-anchor="middle" x="63" y="-194" font-family="Helvetica,sans-Serif" font-size="10.00" fill="grey"> m0</text>
<text text-anchor="middle" x="63" y="-183" font-family="Helvetica,sans-Serif" font-size="10.00" fill="grey">m1</text>
<text text-anchor="middle" x="63" y="-172" font-family="Helvetica,sans-Serif" font-size="10.00" fill="grey">n0</text>
<text text-anchor="middle" x="63" y="-161" font-family="Helvetica,sans-Serif" font-size="10.00" fill="grey">n1</text>
<text text-anchor="middle" x="63" y="-150" font-family="Helvetica,sans-Serif" font-size="10.00" fill="grey">nn</text>
<text text-anchor="start" x="40" y="-139" font-family="Helvetica,sans-Serif" font-size="10.00" fill="grey">reduction</text>
<text text-anchor="middle" x="63" y="-128" font-family="Helvetica,sans-Serif" font-size="10.00" fill="grey">_tile</text>
</g>
<!-- Node4 -->
<g id="Node000004" class="node">
<title>Node4</title>
<g id="a_Node000004"><a xlink:href="structDeviceVertexBufferArray.html" target="_top" xlink:title=" ">
<polygon fill="white" stroke="#666666" points="235.5,-107 98.5,-107 98.5,-88 235.5,-88 235.5,-107"/>
<text text-anchor="middle" x="167" y="-95" font-family="Helvetica,sans-Serif" font-size="10.00">DeviceVertexBufferArray</text>
</a>
</g>
</g>
<!-- Node4&#45;&gt;Node1 -->
<g id="edge3_Node000001_Node000004" class="edge">
<title>Node4&#45;&gt;Node1</title>
<g id="a_edge3_Node000001_Node000004"><a xlink:title=" ">
<path fill="none" stroke="#9a32cd" stroke-dasharray="5,2" d="M181.35,-80.28C192.96,-67.67 210.1,-50.16 227,-37 235.58,-30.32 245.98,-23.98 254.51,-19.19"/>
<polygon fill="#9a32cd" stroke="#9a32cd" points="178.69,-78 174.58,-87.76 183.88,-82.7 178.69,-78"/>
</a>
</g>
<text text-anchor="middle" x="253.5" y="-51" font-family="Helvetica,sans-Serif" font-size="10.00" fill="grey"> on_device</text>
</g>
<!-- Node5 -->
<g id="Node000005" class="node">
<title>Node5</title>
<g id="a_Node000005"><a xlink:href="structProfileBufferArray.html" target="_top" xlink:title=" ">
<polygon fill="white" stroke="#666666" points="203.5,-239 100.5,-239 100.5,-220 203.5,-220 203.5,-239"/>
<text text-anchor="middle" x="152" y="-227" font-family="Helvetica,sans-Serif" font-size="10.00">ProfileBufferArray</text>
</a>
</g>
</g>
<!-- Node5&#45;&gt;Node4 -->
<g id="edge4_Node000004_Node000005" class="edge">
<title>Node5&#45;&gt;Node4</title>
<g id="a_edge4_Node000004_Node000005"><a xlink:title=" ">
<path fill="none" stroke="#9a32cd" stroke-dasharray="5,2" d="M154.17,-209.73C157.46,-181.22 163.59,-128.09 165.99,-107.23"/>
<polygon fill="#9a32cd" stroke="#9a32cd" points="150.65,-209.64 152.98,-219.97 157.61,-210.44 150.65,-209.64"/>
</a>
</g>
<text text-anchor="middle" x="184" y="-161" font-family="Helvetica,sans-Serif" font-size="10.00" fill="grey"> profiles</text>
</g>
<!-- Node6 -->
<g id="Node000006" class="node">
<title>Node6</title>
<g id="a_Node000006"><a xlink:href="structint3.html" target="_top" xlink:title=" ">
<polygon fill="white" stroke="#666666" points="256.5,-239 221.5,-239 221.5,-220 256.5,-220 256.5,-239"/>
<text text-anchor="middle" x="239" y="-227" font-family="Helvetica,sans-Serif" font-size="10.00">int3</text>
</a>
</g>
</g>
<!-- Node6&#45;&gt;Node4 -->
<g id="edge5_Node000004_Node000006" class="edge">
<title>Node6&#45;&gt;Node4</title>
<g id="a_edge5_Node000004_Node000006"><a xlink:title=" ">
<path fill="none" stroke="#9a32cd" stroke-dasharray="5,2" d="M237.31,-209.73C234.49,-187.54 227.08,-150.42 208,-125 202.3,-117.41 193.74,-111.39 185.91,-107.02"/>
<polygon fill="#9a32cd" stroke="#9a32cd" points="233.85,-210.27 238.41,-219.83 240.81,-209.51 233.85,-210.27"/>
</a>
</g>
<text text-anchor="middle" x="269" y="-161" font-family="Helvetica,sans-Serif" font-size="10.00" fill="grey"> block_factor</text>
</g>
<!-- Node7 -->
<g id="Node000007" class="node">
<title>Node7</title>
<g id="a_Node000007"><a xlink:href="structAcScratchpadStates.html" target="_top" xlink:title=" ">
<polygon fill="white" stroke="#666666" points="366.5,-107 253.5,-107 253.5,-88 366.5,-88 366.5,-107"/>
<text text-anchor="middle" x="310" y="-95" font-family="Helvetica,sans-Serif" font-size="10.00">AcScratchpadStates</text>
</a>
</g>
</g>
<!-- Node7&#45;&gt;Node1 -->
<g id="edge6_Node000001_Node000007" class="edge">
<title>Node7&#45;&gt;Node1</title>
<g id="a_edge6_Node000001_Node000007"><a xlink:title=" ">
<path fill="none" stroke="#9a32cd" stroke-dasharray="5,2" d="M301.92,-78.68C293.64,-60.43 281.13,-32.85 274.87,-19.03"/>
<polygon fill="#9a32cd" stroke="#9a32cd" points="298.8,-80.28 306.12,-87.94 305.18,-77.39 298.8,-80.28"/>
</a>
</g>
<text text-anchor="middle" x="344" y="-51" font-family="Helvetica,sans-Serif" font-size="10.00" fill="grey"> scratchpad_states</text>
</g>
<!-- Node8 -->
<g id="Node000008" class="node">
<title>Node8</title>
<g id="a_Node000008"><a xlink:href="structAcReduceBuffer.html" target="_top" xlink:title=" ">
<polygon fill="white" stroke="#666666" points="479,-107 385,-107 385,-88 479,-88 479,-107"/>
<text text-anchor="middle" x="432" y="-95" font-family="Helvetica,sans-Serif" font-size="10.00">AcReduceBuffer</text>
</a>
</g>
</g>
<!-- Node8&#45;&gt;Node1 -->
<g id="edge7_Node000001_Node000008" class="edge">
<title>Node8&#45;&gt;Node1</title>
<g id="a_edge7_Node000001_Node000008"><a xlink:title=" ">
<path fill="none" stroke="#9a32cd" stroke-dasharray="5,2" d="M425,-78.37C418.85,-64.89 408.6,-47.14 394,-37 373.37,-22.66 346.46,-15.86 323.06,-12.72"/>
<polygon fill="#9a32cd" stroke="#9a32cd" points="421.8,-79.79 428.9,-87.65 428.25,-77.08 421.8,-79.79"/>
</a>
</g>
<text text-anchor="middle" x="476" y="-51" font-family="Helvetica,sans-Serif" font-size="10.00" fill="grey"> profile_reduce_buffers</text>
</g>
<!-- Node9 -->
<g id="Node000009" class="node">
<title>Node9</title>
<g id="a_Node000009"><a xlink:href="structAcBuffer.html" target="_top" xlink:title=" ">
<polygon fill="white" stroke="#666666" points="461,-239 403,-239 403,-220 461,-220 461,-239"/>
<text text-anchor="middle" x="432" y="-227" font-family="Helvetica,sans-Serif" font-size="10.00">AcBuffer</text>
</a>
</g>
</g>
<!-- Node9&#45;&gt;Node8 -->
<g id="edge8_Node000008_Node000009" class="edge">
<title>Node9&#45;&gt;Node8</title>
<g id="a_edge8_Node000008_Node000009"><a xlink:title=" ">
<path fill="none" stroke="#9a32cd" stroke-dasharray="5,2" d="M432,-209.73C432,-181.22 432,-128.09 432,-107.23"/>
<polygon fill="#9a32cd" stroke="#9a32cd" points="428.5,-209.97 432,-219.97 435.5,-209.97 428.5,-209.97"/>
</a>
</g>
<text text-anchor="middle" x="459.5" y="-166.5" font-family="Helvetica,sans-Serif" font-size="10.00" fill="grey"> src</text>
<text text-anchor="middle" x="459.5" y="-155.5" font-family="Helvetica,sans-Serif" font-size="10.00" fill="grey">transposed</text>
</g>
<!-- Node10 -->
<g id="Node000010" class="node">
<title>Node10</title>
<g id="a_Node000010"><a xlink:href="structAcShape.html" target="_top" xlink:title=" ">
<polygon fill="white" stroke="#666666" points="461.5,-305 402.5,-305 402.5,-286 461.5,-286 461.5,-305"/>
<text text-anchor="middle" x="432" y="-293" font-family="Helvetica,sans-Serif" font-size="10.00">AcShape</text>
</a>
</g>
</g>
<!-- Node10&#45;&gt;Node9 -->
<g id="edge9_Node000009_Node000010" class="edge">
<title>Node10&#45;&gt;Node9</title>
<g id="a_edge9_Node000009_Node000010"><a xlink:title=" ">
<path fill="none" stroke="#9a32cd" stroke-dasharray="5,2" d="M432,-275.58C432,-263.63 432,-248.72 432,-239.41"/>
<polygon fill="#9a32cd" stroke="#9a32cd" points="428.5,-275.87 432,-285.87 435.5,-275.87 428.5,-275.87"/>
</a>
</g>
<text text-anchor="middle" x="448.5" y="-260" font-family="Helvetica,sans-Serif" font-size="10.00" fill="grey"> shape</text>
</g>
</g>
</svg>
