<?xml version="1.0" encoding="UTF-8" standalone="no"?>
<!DOCTYPE svg PUBLIC "-//W3C//DTD SVG 1.1//EN"
 "http://www.w3.org/Graphics/SVG/1.1/DTD/svg11.dtd">
<!-- Generated by graphviz version 2.43.0 (0)
 -->
<!-- Title: AcMesh Pages: 1 -->
<svg width="525pt" height="225pt"
 viewBox="0.00 0.00 524.50 225.00" xmlns="http://www.w3.org/2000/svg" xmlns:xlink="http://www.w3.org/1999/xlink">
<g id="graph0" class="graph" transform="scale(1 1) rotate(0) translate(4 221)">
<title>AcMesh</title>
<!-- Node1 -->
<g id="Node000001" class="node">
<title>Node1</title>
<g id="a_Node000001"><a xlink:title=" ">
<polygon fill="#999999" stroke="#666666" points="205,-19 150,-19 150,0 205,0 205,-19"/>
<text text-anchor="middle" x="177.5" y="-7" font-family="Helvetica,sans-Serif" font-size="10.00">AcMesh</text>
</a>
</g>
</g>
<!-- Node2 -->
<g id="Node000002" class="node">
<title>Node2</title>
<g id="a_Node000002"><a xlink:href="structAcMeshInfo.html" target="_top" xlink:title=" ">
<polygon fill="white" stroke="#666666" points="214.5,-85 140.5,-85 140.5,-66 214.5,-66 214.5,-85"/>
<text text-anchor="middle" x="177.5" y="-73" font-family="Helvetica,sans-Serif" font-size="10.00">AcMeshInfo</text>
</a>
</g>
</g>
<!-- Node2&#45;&gt;Node1 -->
<g id="edge1_Node000001_Node000002" class="edge">
<title>Node2&#45;&gt;Node1</title>
<g id="a_edge1_Node000001_Node000002"><a xlink:title=" ">
<path fill="none" stroke="#9a32cd" stroke-dasharray="5,2" d="M177.5,-55.58C177.5,-43.63 177.5,-28.72 177.5,-19.41"/>
<polygon fill="#9a32cd" stroke="#9a32cd" points="174,-55.87 177.5,-65.87 181,-55.87 174,-55.87"/>
</a>
</g>
<text text-anchor="middle" x="188.5" y="-40" font-family="Helvetica,sans-Serif" font-size="10.00" fill="grey"> info</text>
</g>
<!-- Node3 -->
<g id="Node000003" class="node">
<title>Node3</title>
<g id="a_Node000003"><a xlink:href="structAcMeshInfoLoaded.html" target="_top" xlink:title=" ">
<polygon fill="white" stroke="#666666" points="109,-151 0,-151 0,-132 109,-132 109,-151"/>
<text text-anchor="middle" x="54.5" y="-139" font-family="Helvetica,sans-Serif" font-size="10.00">AcMeshInfoLoaded</text>
</a>
</g>
</g>
<!-- Node3&#45;&gt;Node2 -->
<g id="edge2_Node000002_Node000003" class="edge">
<title>Node3&#45;&gt;Node2</title>
<g id="a_edge2_Node000002_Node000003"><a xlink:title=" ">
<path fill="none" stroke="#9a32cd" stroke-dasharray="5,2" d="M78.66,-127.05C91.84,-119.79 108.49,-110.76 123.5,-103 135.37,-96.86 148.87,-90.24 159.41,-85.15"/>
<polygon fill="#9a32cd" stroke="#9a32cd" points="76.81,-124.07 69.75,-131.98 80.19,-130.2 76.81,-124.07"/>
</a>
</g>
<text text-anchor="middle" x="148.5" y="-106" font-family="Helvetica,sans-Serif" font-size="10.00" fill="grey"> is_loaded</text>
</g>
<!-- Node4 -->
<g id="Node000004" class="node">
<title>Node4</title>
<g id="a_Node000004"><a xlink:href="structAcCommunicator.html" target="_top" xlink:title=" ">
<polygon fill="white" stroke="#666666" points="228,-151 127,-151 127,-132 228,-132 228,-151"/>
<text text-anchor="middle" x="177.5" y="-139" font-family="Helvetica,sans-Serif" font-size="10.00">AcCommunicator</text>
</a>
</g>
</g>
<!-- Node4&#45;&gt;Node2 -->
<g id="edge3_Node000002_Node000004" class="edge">
<title>Node4&#45;&gt;Node2</title>
<g id="a_edge3_Node000002_Node000004"><a xlink:title=" ">
<path fill="none" stroke="#9a32cd" stroke-dasharray="5,2" d="M177.5,-121.58C177.5,-109.63 177.5,-94.72 177.5,-85.41"/>
<polygon fill="#9a32cd" stroke="#9a32cd" points="174,-121.87 177.5,-131.87 181,-121.87 174,-121.87"/>
</a>
</g>
<text text-anchor="middle" x="194.5" y="-106" font-family="Helvetica,sans-Serif" font-size="10.00" fill="grey"> comm</text>
</g>
<!-- Node5 -->
<g id="Node000005" class="node">
<title>Node5</title>
<g id="a_Node000005"><a xlink:href="structAcCompInfo.html" target="_top" xlink:title=" ">
<polygon fill="white" stroke="#666666" points="322.5,-151 246.5,-151 246.5,-132 322.5,-132 322.5,-151"/>
<text text-anchor="middle" x="284.5" y="-139" font-family="Helvetica,sans-Serif" font-size="10.00">AcCompInfo</text>
</a>
</g>
</g>
<!-- Node5&#45;&gt;Node2 -->
<g id="edge4_Node000002_Node000005" class="edge">
<title>Node5&#45;&gt;Node2</title>
<g id="a_edge4_Node000002_Node000005"><a xlink:title=" ">
<path fill="none" stroke="#9a32cd" stroke-dasharray="5,2" d="M261.41,-126.69C240.35,-114.09 209.89,-95.87 192.04,-85.2"/>
<polygon fill="#9a32cd" stroke="#9a32cd" points="259.69,-129.74 270.07,-131.87 263.28,-123.73 259.69,-129.74"/>
</a>
</g>
<text text-anchor="middle" x="265.5" y="-106" font-family="Helvetica,sans-Serif" font-size="10.00" fill="grey"> run_consts</text>
</g>
<!-- Node6 -->
<g id="Node000006" class="node">
<title>Node6</title>
<g id="a_Node000006"><a xlink:href="structAcCompInfoConfig.html" target="_top" xlink:title=" ">
<polygon fill="white" stroke="#666666" points="211,-217 104,-217 104,-198 211,-198 211,-217"/>
<text text-anchor="middle" x="157.5" y="-205" font-family="Helvetica,sans-Serif" font-size="10.00">AcCompInfoConfig</text>
</a>
</g>
</g>
<!-- Node6&#45;&gt;Node5 -->
<g id="edge5_Node000005_Node000006" class="edge">
<title>Node6&#45;&gt;Node5</title>
<g id="a_edge5_Node000005_Node000006"><a xlink:title=" ">
<path fill="none" stroke="#9a32cd" stroke-dasharray="5,2" d="M183.57,-193.36C208.6,-180.75 245.68,-162.06 267.24,-151.2"/>
<polygon fill="#9a32cd" stroke="#9a32cd" points="181.98,-190.24 174.63,-197.87 185.13,-196.49 181.98,-190.24"/>
</a>
</g>
<text text-anchor="middle" x="246" y="-172" font-family="Helvetica,sans-Serif" font-size="10.00" fill="grey"> config</text>
</g>
<!-- Node7 -->
<g id="Node000007" class="node">
<title>Node7</title>
<g id="a_Node000007"><a xlink:href="structAcCompInfoLoaded.html" target="_top" xlink:title=" ">
<polygon fill="white" stroke="#666666" points="340,-217 229,-217 229,-198 340,-198 340,-217"/>
<text text-anchor="middle" x="284.5" y="-205" font-family="Helvetica,sans-Serif" font-size="10.00">AcCompInfoLoaded</text>
</a>
</g>
</g>
<!-- Node7&#45;&gt;Node5 -->
<g id="edge6_Node000005_Node000007" class="edge">
<title>Node7&#45;&gt;Node5</title>
<g id="a_edge6_Node000005_Node000007"><a xlink:title=" ">
<path fill="none" stroke="#9a32cd" stroke-dasharray="5,2" d="M284.5,-187.58C284.5,-175.63 284.5,-160.72 284.5,-151.41"/>
<polygon fill="#9a32cd" stroke="#9a32cd" points="281,-187.87 284.5,-197.87 288,-187.87 281,-187.87"/>
</a>
</g>
<text text-anchor="middle" x="309.5" y="-172" font-family="Helvetica,sans-Serif" font-size="10.00" fill="grey"> is_loaded</text>
</g>
<!-- Node8 -->
<g id="Node000008" class="node">
<title>Node8</title>
<g id="a_Node000008"><a xlink:href="structAcCompInfoHasDefaultValue.html" target="_top" xlink:title=" ">
<polygon fill="white" stroke="#666666" points="516.5,-217 358.5,-217 358.5,-198 516.5,-198 516.5,-217"/>
<text text-anchor="middle" x="437.5" y="-205" font-family="Helvetica,sans-Serif" font-size="10.00">AcCompInfoHasDefaultValue</text>
</a>
</g>
</g>
<!-- Node8&#45;&gt;Node5 -->
<g id="edge7_Node000005_Node000008" class="edge">
<title>Node8&#45;&gt;Node5</title>
<g id="a_edge7_Node000005_Node000008"><a xlink:title=" ">
<path fill="none" stroke="#9a32cd" stroke-dasharray="5,2" d="M407.28,-193.86C377.13,-181.25 331.61,-162.21 305.3,-151.2"/>
<polygon fill="#9a32cd" stroke="#9a32cd" points="406.29,-197.24 416.87,-197.87 408.99,-190.78 406.29,-197.24"/>
</a>
</g>
<text text-anchor="middle" x="416" y="-172" font-family="Helvetica,sans-Serif" font-size="10.00" fill="grey"> has_default_value</text>
</g>
</g>
</svg>
