<?xml version="1.0" encoding="UTF-8" standalone="no"?>
<!DOCTYPE svg PUBLIC "-//W3C//DTD SVG 1.1//EN"
 "http://www.w3.org/Graphics/SVG/1.1/DTD/svg11.dtd">
<!-- Generated by graphviz version 2.43.0 (0)
 -->
<!-- Title: gen_constexpr_params Pages: 1 -->
<svg width="156pt" height="107pt"
 viewBox="0.00 0.00 156.00 107.00" xmlns="http://www.w3.org/2000/svg" xmlns:xlink="http://www.w3.org/1999/xlink">
<g id="graph0" class="graph" transform="scale(1 1) rotate(0) translate(4 103)">
<title>gen_constexpr_params</title>
<!-- Node1 -->
<g id="Node000001" class="node">
<title>Node1</title>
<g id="a_Node000001"><a xlink:title=" ">
<polygon fill="#999999" stroke="#666666" points="130,-19 0,-19 0,0 130,0 130,-19"/>
<text text-anchor="middle" x="65" y="-7" font-family="Helvetica,sans-Serif" font-size="10.00">gen_constexpr_params</text>
</a>
</g>
</g>
<!-- Node2 -->
<g id="Node000002" class="node">
<title>Node2</title>
<g id="a_Node000002"><a xlink:href="structastnode__s.html" target="_top" xlink:title=" ">
<polygon fill="white" stroke="#666666" points="98,-92 32,-92 32,-73 98,-73 98,-92"/>
<text text-anchor="middle" x="65" y="-80" font-family="Helvetica,sans-Serif" font-size="10.00">astnode_s</text>
</a>
</g>
</g>
<!-- Node2&#45;&gt;Node1 -->
<g id="edge1_Node000001_Node000002" class="edge">
<title>Node2&#45;&gt;Node1</title>
<g id="a_edge1_Node000001_Node000002"><a xlink:title=" ">
<path fill="none" stroke="#9a32cd" stroke-dasharray="5,2" d="M65,-62.73C65,-48.66 65,-30.06 65,-19.28"/>
<polygon fill="#9a32cd" stroke="#9a32cd" points="61.5,-62.79 65,-72.79 68.5,-62.79 61.5,-62.79"/>
</a>
</g>
<text text-anchor="middle" x="91.5" y="-40" font-family="Helvetica,sans-Serif" font-size="10.00" fill="grey"> func_base</text>
</g>
<!-- Node2&#45;&gt;Node2 -->
<g id="edge2_Node000002_Node000002" class="edge">
<title>Node2&#45;&gt;Node2</title>
<g id="a_edge2_Node000002_Node000002"><a xlink:title=" ">
<path fill="none" stroke="#9a32cd" stroke-dasharray="5,2" d="M108.3,-88.77C112.98,-87.57 116,-85.48 116,-82.5 116,-77.73 108.28,-75.24 98.35,-75.02"/>
<polygon fill="#9a32cd" stroke="#9a32cd" points="107.86,-85.3 98.35,-89.98 108.7,-92.25 107.86,-85.3"/>
</a>
</g>
<text text-anchor="middle" x="132" y="-91" font-family="Helvetica,sans-Serif" font-size="10.00" fill="grey"> lhs</text>
<text text-anchor="middle" x="132" y="-80" font-family="Helvetica,sans-Serif" font-size="10.00" fill="grey">parent</text>
<text text-anchor="middle" x="132" y="-69" font-family="Helvetica,sans-Serif" font-size="10.00" fill="grey">rhs</text>
</g>
</g>
</svg>
