<?xml version="1.0" encoding="UTF-8" standalone="no"?>
<!DOCTYPE svg PUBLIC "-//W3C//DTD SVG 1.1//EN"
 "http://www.w3.org/Graphics/SVG/1.1/DTD/svg11.dtd">
<!-- Generated by graphviz version 2.43.0 (0)
 -->
<!-- Title: kiss_fftnd_state Pages: 1 -->
<svg width="168pt" height="159pt"
 viewBox="0.00 0.00 168.00 159.00" xmlns="http://www.w3.org/2000/svg" xmlns:xlink="http://www.w3.org/1999/xlink">
<g id="graph0" class="graph" transform="scale(1 1) rotate(0) translate(4 155)">
<title>kiss_fftnd_state</title>
<!-- Node1 -->
<g id="Node000001" class="node">
<title>Node1</title>
<g id="a_Node000001"><a xlink:title=" ">
<polygon fill="#999999" stroke="#666666" points="100,-19 6,-19 6,0 100,0 100,-19"/>
<text text-anchor="middle" x="53" y="-7" font-family="Helvetica,sans-Serif" font-size="10.00">kiss_fftnd_state</text>
</a>
</g>
</g>
<!-- Node2 -->
<g id="Node000002" class="node">
<title>Node2</title>
<g id="a_Node000002"><a xlink:href="structkiss__fft__state.html" target="_top" xlink:title=" ">
<polygon fill="white" stroke="#666666" points="160,-85 78,-85 78,-66 160,-66 160,-85"/>
<text text-anchor="middle" x="119" y="-73" font-family="Helvetica,sans-Serif" font-size="10.00">kiss_fft_state</text>
</a>
</g>
</g>
<!-- Node2&#45;&gt;Node1 -->
<g id="edge1_Node000001_Node000002" class="edge">
<title>Node2&#45;&gt;Node1</title>
<g id="a_edge1_Node000001_Node000002"><a xlink:title=" ">
<path fill="none" stroke="#9a32cd" stroke-dasharray="5,2" d="M102.84,-58.83C90.06,-46.44 72.68,-29.59 62.18,-19.41"/>
<polygon fill="#9a32cd" stroke="#9a32cd" points="100.48,-61.42 110.1,-65.87 105.36,-56.39 100.48,-61.42"/>
</a>
</g>
<text text-anchor="middle" x="106" y="-40" font-family="Helvetica,sans-Serif" font-size="10.00" fill="grey"> states</text>
</g>
<!-- Node3 -->
<g id="Node000003" class="node">
<title>Node3</title>
<g id="a_Node000003"><a xlink:href="structkiss__fft__cpx.html" target="_top" xlink:title=" ">
<polygon fill="white" stroke="#666666" points="74,-151 0,-151 0,-132 74,-132 74,-151"/>
<text text-anchor="middle" x="37" y="-139" font-family="Helvetica,sans-Serif" font-size="10.00">kiss_fft_cpx</text>
</a>
</g>
</g>
<!-- Node3&#45;&gt;Node1 -->
<g id="edge3_Node000001_Node000003" class="edge">
<title>Node3&#45;&gt;Node1</title>
<g id="a_edge3_Node000001_Node000003"><a xlink:title=" ">
<path fill="none" stroke="#9a32cd" stroke-dasharray="5,2" d="M32.22,-121.55C29.12,-106.4 26.28,-84.68 30,-66 33.46,-48.61 42.47,-29.84 48.13,-19.19"/>
<polygon fill="#9a32cd" stroke="#9a32cd" points="28.9,-122.73 34.54,-131.7 35.73,-121.17 28.9,-122.73"/>
</a>
</g>
<text text-anchor="middle" x="49.5" y="-73" font-family="Helvetica,sans-Serif" font-size="10.00" fill="grey"> tmpbuf</text>
</g>
<!-- Node3&#45;&gt;Node2 -->
<g id="edge2_Node000002_Node000003" class="edge">
<title>Node3&#45;&gt;Node2</title>
<g id="a_edge2_Node000002_Node000003"><a xlink:title=" ">
<path fill="none" stroke="#9a32cd" stroke-dasharray="5,2" d="M56.23,-125.49C72.29,-112.96 94.61,-95.54 107.85,-85.2"/>
<polygon fill="#9a32cd" stroke="#9a32cd" points="53.79,-122.96 48.06,-131.87 58.1,-128.48 53.79,-122.96"/>
</a>
</g>
<text text-anchor="middle" x="104.5" y="-106" font-family="Helvetica,sans-Serif" font-size="10.00" fill="grey"> twiddles</text>
</g>
</g>
</svg>
