<?xml version="1.0" encoding="UTF-8" standalone="no"?>
<!DOCTYPE svg PUBLIC "-//W3C//DTD SVG 1.1//EN"
 "http://www.w3.org/Graphics/SVG/1.1/DTD/svg11.dtd">
<!-- Generated by graphviz version 2.43.0 (0)
 -->
<!-- Title: node_s Pages: 1 -->
<svg width="1118pt" height="385pt"
 viewBox="0.00 0.00 1118.00 385.00" xmlns="http://www.w3.org/2000/svg" xmlns:xlink="http://www.w3.org/1999/xlink">
<g id="graph0" class="graph" transform="scale(1 1) rotate(0) translate(4 381)">
<title>node_s</title>
<!-- Node1 -->
<g id="Node000001" class="node">
<title>Node1</title>
<g id="a_Node000001"><a xlink:title=" ">
<polygon fill="#999999" stroke="#666666" points="1110,-200 1059,-200 1059,-181 1110,-181 1110,-200"/>
<text text-anchor="middle" x="1084.5" y="-188" font-family="Helvetica,sans-Serif" font-size="10.00">node_s</text>
</a>
</g>
</g>
<!-- Node2 -->
<g id="Node000002" class="node">
<title>Node2</title>
<g id="a_Node000002"><a xlink:href="structdevice__s.html" target="_top" xlink:title=" ">
<polygon fill="white" stroke="#666666" points="982,-200 923,-200 923,-181 982,-181 982,-200"/>
<text text-anchor="middle" x="952.5" y="-188" font-family="Helvetica,sans-Serif" font-size="10.00">device_s</text>
</a>
</g>
</g>
<!-- Node2&#45;&gt;Node1 -->
<g id="edge1_Node000001_Node000002" class="edge">
<title>Node2&#45;&gt;Node1</title>
<g id="a_edge1_Node000001_Node000002"><a xlink:title=" ">
<path fill="none" stroke="#9a32cd" stroke-dasharray="5,2" d="M992.22,-190.5C1013.86,-190.5 1040.17,-190.5 1058.97,-190.5"/>
<polygon fill="#9a32cd" stroke="#9a32cd" points="992.03,-187 982.03,-190.5 992.03,-194 992.03,-187"/>
</a>
</g>
<text text-anchor="middle" x="1020.5" y="-193.5" font-family="Helvetica,sans-Serif" font-size="10.00" fill="grey"> devices</text>
</g>
<!-- Node3 -->
<g id="Node000003" class="node">
<title>Node3</title>
<g id="a_Node000003"><a xlink:href="structAcMeshInfo.html" target="_top" xlink:title=" ">
<polygon fill="white" stroke="#666666" points="800,-278 726,-278 726,-259 800,-259 800,-278"/>
<text text-anchor="middle" x="763" y="-266" font-family="Helvetica,sans-Serif" font-size="10.00">AcMeshInfo</text>
</a>
</g>
</g>
<!-- Node3&#45;&gt;Node1 -->
<g id="edge24_Node000001_Node000003" class="edge">
<title>Node3&#45;&gt;Node1</title>
<g id="a_edge24_Node000001_Node000003"><a xlink:title=" ">
<path fill="none" stroke="#9a32cd" stroke-dasharray="5,2" d="M810.23,-266.31C837.97,-264.32 873.81,-260.56 905,-253.5 963.17,-240.33 1028.58,-214.17 1061.73,-200.05"/>
<polygon fill="#9a32cd" stroke="#9a32cd" points="809.76,-262.83 800.02,-266.99 810.23,-269.81 809.76,-262.83"/>
</a>
</g>
<text text-anchor="middle" x="952.5" y="-251.5" font-family="Helvetica,sans-Serif" font-size="10.00" fill="grey"> config</text>
</g>
<!-- Node3&#45;&gt;Node2 -->
<g id="edge2_Node000002_Node000003" class="edge">
<title>Node3&#45;&gt;Node2</title>
<g id="a_edge2_Node000002_Node000003"><a xlink:title=" ">
<path fill="none" stroke="#9a32cd" stroke-dasharray="5,2" d="M802.46,-255.61C831.13,-245.63 871.03,-230.93 905,-215.5 915.18,-210.87 926.22,-204.98 934.98,-200.08"/>
<polygon fill="#9a32cd" stroke="#9a32cd" points="801.12,-252.37 792.81,-258.94 803.41,-258.99 801.12,-252.37"/>
</a>
</g>
<text text-anchor="middle" x="874.5" y="-241.5" font-family="Helvetica,sans-Serif" font-size="10.00" fill="grey"> local_config</text>
</g>
<!-- Node4 -->
<g id="Node000004" class="node">
<title>Node4</title>
<g id="a_Node000004"><a xlink:href="structAcMeshInfoLoaded.html" target="_top" xlink:title=" ">
<polygon fill="white" stroke="#666666" points="538,-270 429,-270 429,-251 538,-251 538,-270"/>
<text text-anchor="middle" x="483.5" y="-258" font-family="Helvetica,sans-Serif" font-size="10.00">AcMeshInfoLoaded</text>
</a>
</g>
</g>
<!-- Node4&#45;&gt;Node3 -->
<g id="edge3_Node000003_Node000004" class="edge">
<title>Node4&#45;&gt;Node3</title>
<g id="a_edge3_Node000003_Node000004"><a xlink:title=" ">
<path fill="none" stroke="#9a32cd" stroke-dasharray="5,2" d="M548.25,-260.71C586.95,-261.02 637.33,-261.77 682,-263.5 696.32,-264.06 712.07,-264.97 725.78,-265.87"/>
<polygon fill="#9a32cd" stroke="#9a32cd" points="548.19,-257.21 538.17,-260.63 548.14,-264.2 548.19,-257.21"/>
</a>
</g>
<text text-anchor="middle" x="626" y="-266.5" font-family="Helvetica,sans-Serif" font-size="10.00" fill="grey"> is_loaded</text>
</g>
<!-- Node5 -->
<g id="Node000005" class="node">
<title>Node5</title>
<g id="a_Node000005"><a xlink:href="structAcCommunicator.html" target="_top" xlink:title=" ">
<polygon fill="white" stroke="#666666" points="534,-344 433,-344 433,-325 534,-325 534,-344"/>
<text text-anchor="middle" x="483.5" y="-332" font-family="Helvetica,sans-Serif" font-size="10.00">AcCommunicator</text>
</a>
</g>
</g>
<!-- Node5&#45;&gt;Node3 -->
<g id="edge4_Node000003_Node000005" class="edge">
<title>Node5&#45;&gt;Node3</title>
<g id="a_edge4_Node000003_Node000005"><a xlink:title=" ">
<path fill="none" stroke="#9a32cd" stroke-dasharray="5,2" d="M544.36,-328.61C583.96,-323.79 636.72,-315.58 682,-302.5 703.6,-296.26 727.16,-285.76 743.08,-278.08"/>
<polygon fill="#9a32cd" stroke="#9a32cd" points="543.85,-325.14 534.33,-329.79 544.67,-332.1 543.85,-325.14"/>
</a>
</g>
<text text-anchor="middle" x="626" y="-327.5" font-family="Helvetica,sans-Serif" font-size="10.00" fill="grey"> comm</text>
</g>
<!-- Node6 -->
<g id="Node000006" class="node">
<title>Node6</title>
<g id="a_Node000006"><a xlink:href="structAcCompInfo.html" target="_top" xlink:title=" ">
<polygon fill="white" stroke="#666666" points="521.5,-307 445.5,-307 445.5,-288 521.5,-288 521.5,-307"/>
<text text-anchor="middle" x="483.5" y="-295" font-family="Helvetica,sans-Serif" font-size="10.00">AcCompInfo</text>
</a>
</g>
</g>
<!-- Node6&#45;&gt;Node3 -->
<g id="edge5_Node000003_Node000006" class="edge">
<title>Node6&#45;&gt;Node3</title>
<g id="a_edge5_Node000003_Node000006"><a xlink:title=" ">
<path fill="none" stroke="#9a32cd" stroke-dasharray="5,2" d="M531.82,-292.56C586.8,-286.81 676.32,-277.45 725.96,-272.27"/>
<polygon fill="#9a32cd" stroke="#9a32cd" points="531.22,-289.1 521.64,-293.62 531.95,-296.06 531.22,-289.1"/>
</a>
</g>
<text text-anchor="middle" x="626" y="-290.5" font-family="Helvetica,sans-Serif" font-size="10.00" fill="grey"> run_consts</text>
</g>
<!-- Node7 -->
<g id="Node000007" class="node">
<title>Node7</title>
<g id="a_Node000007"><a xlink:href="structAcCompInfoConfig.html" target="_top" xlink:title=" ">
<polygon fill="white" stroke="#666666" points="260.5,-377 153.5,-377 153.5,-358 260.5,-358 260.5,-377"/>
<text text-anchor="middle" x="207" y="-365" font-family="Helvetica,sans-Serif" font-size="10.00">AcCompInfoConfig</text>
</a>
</g>
</g>
<!-- Node7&#45;&gt;Node6 -->
<g id="edge6_Node000006_Node000007" class="edge">
<title>Node7&#45;&gt;Node6</title>
<g id="a_edge6_Node000006_Node000007"><a xlink:title=" ">
<path fill="none" stroke="#9a32cd" stroke-dasharray="5,2" d="M270.85,-366.02C309.15,-362.88 358.06,-354.73 397,-334.5 407.04,-329.28 405.24,-322.22 415,-316.5 424.24,-311.09 435.11,-307.15 445.39,-304.31"/>
<polygon fill="#9a32cd" stroke="#9a32cd" points="270.56,-362.53 260.84,-366.75 271.07,-369.51 270.56,-362.53"/>
</a>
</g>
<text text-anchor="middle" x="350.5" y="-364.5" font-family="Helvetica,sans-Serif" font-size="10.00" fill="grey"> config</text>
</g>
<!-- Node8 -->
<g id="Node000008" class="node">
<title>Node8</title>
<g id="a_Node000008"><a xlink:href="structAcCompInfoLoaded.html" target="_top" xlink:title=" ">
<polygon fill="white" stroke="#666666" points="262.5,-340 151.5,-340 151.5,-321 262.5,-321 262.5,-340"/>
<text text-anchor="middle" x="207" y="-328" font-family="Helvetica,sans-Serif" font-size="10.00">AcCompInfoLoaded</text>
</a>
</g>
</g>
<!-- Node8&#45;&gt;Node6 -->
<g id="edge7_Node000006_Node000008" class="edge">
<title>Node8&#45;&gt;Node6</title>
<g id="a_edge7_Node000006_Node000008"><a xlink:title=" ">
<path fill="none" stroke="#9a32cd" stroke-dasharray="5,2" d="M272.63,-323.17C309.15,-318.98 355.64,-313.57 397,-308.5 412.89,-306.55 430.44,-304.31 445.48,-302.36"/>
<polygon fill="#9a32cd" stroke="#9a32cd" points="272.14,-319.71 262.61,-324.32 272.94,-326.66 272.14,-319.71"/>
</a>
</g>
<text text-anchor="middle" x="350.5" y="-322.5" font-family="Helvetica,sans-Serif" font-size="10.00" fill="grey"> is_loaded</text>
</g>
<!-- Node9 -->
<g id="Node000009" class="node">
<title>Node9</title>
<g id="a_Node000009"><a xlink:href="structAcCompInfoHasDefaultValue.html" target="_top" xlink:title=" ">
<polygon fill="white" stroke="#666666" points="286,-303 128,-303 128,-284 286,-284 286,-303"/>
<text text-anchor="middle" x="207" y="-291" font-family="Helvetica,sans-Serif" font-size="10.00">AcCompInfoHasDefaultValue</text>
</a>
</g>
</g>
<!-- Node9&#45;&gt;Node6 -->
<g id="edge8_Node000006_Node000009" class="edge">
<title>Node9&#45;&gt;Node6</title>
<g id="a_edge8_Node000006_Node000009"><a xlink:title=" ">
<path fill="none" stroke="#9a32cd" stroke-dasharray="5,2" d="M296.54,-294.79C346.85,-295.52 407.2,-296.4 445.2,-296.96"/>
<polygon fill="#9a32cd" stroke="#9a32cd" points="296.34,-291.29 286.29,-294.64 296.24,-298.29 296.34,-291.29"/>
</a>
</g>
<text text-anchor="middle" x="350.5" y="-298.5" font-family="Helvetica,sans-Serif" font-size="10.00" fill="grey"> has_default_value</text>
</g>
<!-- Node10 -->
<g id="Node000010" class="node">
<title>Node10</title>
<g id="a_Node000010"><a xlink:href="structAcInputs.html" target="_top" xlink:title=" ">
<polygon fill="white" stroke="#666666" points="792.5,-145 733.5,-145 733.5,-126 792.5,-126 792.5,-145"/>
<text text-anchor="middle" x="763" y="-133" font-family="Helvetica,sans-Serif" font-size="10.00">AcInputs</text>
</a>
</g>
</g>
<!-- Node10&#45;&gt;Node2 -->
<g id="edge9_Node000002_Node000010" class="edge">
<title>Node10&#45;&gt;Node2</title>
<g id="a_edge9_Node000002_Node000010"><a xlink:title=" ">
<path fill="none" stroke="#9a32cd" stroke-dasharray="5,2" d="M802.88,-135.36C832.02,-136.51 872.33,-140.83 905,-154.5 919.5,-160.57 933.38,-172.36 942.14,-180.8"/>
<polygon fill="#9a32cd" stroke="#9a32cd" points="802.78,-131.85 792.68,-135.06 802.58,-138.85 802.78,-131.85"/>
</a>
</g>
<text text-anchor="middle" x="874.5" y="-157.5" font-family="Helvetica,sans-Serif" font-size="10.00" fill="grey"> input</text>
</g>
<!-- Node11 -->
<g id="Node000011" class="node">
<title>Node11</title>
<g id="a_Node000011"><a xlink:href="structVertexBufferArray.html" target="_top" xlink:title=" ">
<polygon fill="white" stroke="#666666" points="815,-182 711,-182 711,-163 815,-163 815,-182"/>
<text text-anchor="middle" x="763" y="-170" font-family="Helvetica,sans-Serif" font-size="10.00">VertexBufferArray</text>
</a>
</g>
</g>
<!-- Node11&#45;&gt;Node2 -->
<g id="edge10_Node000002_Node000011" class="edge">
<title>Node11&#45;&gt;Node2</title>
<g id="a_edge10_Node000002_Node000011"><a xlink:title=" ">
<path fill="none" stroke="#9a32cd" stroke-dasharray="5,2" d="M825.28,-169.95C850.17,-169.91 879.11,-171.14 905,-175.5 912.03,-176.68 919.45,-178.7 926.25,-180.89"/>
<polygon fill="#9a32cd" stroke="#9a32cd" points="825.21,-166.45 815.24,-170.03 825.27,-173.45 825.21,-166.45"/>
</a>
</g>
<text text-anchor="middle" x="874.5" y="-178.5" font-family="Helvetica,sans-Serif" font-size="10.00" fill="grey"> vba</text>
</g>
<!-- Node12 -->
<g id="Node000012" class="node">
<title>Node12</title>
<g id="a_Node000012"><a xlink:href="structAcMeshDims.html" target="_top" xlink:title=" ">
<polygon fill="white" stroke="#666666" points="523.5,-65 443.5,-65 443.5,-46 523.5,-46 523.5,-65"/>
<text text-anchor="middle" x="483.5" y="-53" font-family="Helvetica,sans-Serif" font-size="10.00">AcMeshDims</text>
</a>
</g>
</g>
<!-- Node12&#45;&gt;Node11 -->
<g id="edge11_Node000011_Node000012" class="edge">
<title>Node12&#45;&gt;Node11</title>
<g id="a_edge11_Node000011_Node000012"><a xlink:title=" ">
<path fill="none" stroke="#9a32cd" stroke-dasharray="5,2" d="M534,-57.02C577.86,-60.89 641.12,-73.02 682,-109.5 698.07,-123.84 684.04,-140.03 700,-154.5 703.74,-157.89 708.08,-160.64 712.69,-162.88"/>
<polygon fill="#9a32cd" stroke="#9a32cd" points="534.09,-53.51 523.85,-56.24 533.55,-60.49 534.09,-53.51"/>
</a>
</g>
<text text-anchor="middle" x="626" y="-134.5" font-family="Helvetica,sans-Serif" font-size="10.00" fill="grey"> computational_dims</text>
<text text-anchor="middle" x="626" y="-123.5" font-family="Helvetica,sans-Serif" font-size="10.00" fill="grey">dims</text>
<text text-anchor="middle" x="626" y="-112.5" font-family="Helvetica,sans-Serif" font-size="10.00" fill="grey">profile_dims</text>
</g>
<!-- Node13 -->
<g id="Node000013" class="node">
<title>Node13</title>
<g id="a_Node000013"><a xlink:href="structVolume.html" target="_top" xlink:title=" ">
<polygon fill="white" stroke="#666666" points="233.5,-28 180.5,-28 180.5,-9 233.5,-9 233.5,-28"/>
<text text-anchor="middle" x="207" y="-16" font-family="Helvetica,sans-Serif" font-size="10.00">Volume</text>
</a>
</g>
</g>
<!-- Node13&#45;&gt;Node12 -->
<g id="edge12_Node000012_Node000013" class="edge">
<title>Node13&#45;&gt;Node12</title>
<g id="a_edge12_Node000012_Node000013"><a xlink:title=" ">
<path fill="none" stroke="#9a32cd" stroke-dasharray="5,2" d="M243.84,-23.33C295.39,-30.28 390.12,-43.05 443.41,-50.23"/>
<polygon fill="#9a32cd" stroke="#9a32cd" points="244.2,-19.85 233.82,-21.98 243.27,-26.79 244.2,-19.85"/>
</a>
</g>
<text text-anchor="middle" x="350.5" y="-113.5" font-family="Helvetica,sans-Serif" font-size="10.00" fill="grey"> m0</text>
<text text-anchor="middle" x="350.5" y="-102.5" font-family="Helvetica,sans-Serif" font-size="10.00" fill="grey">m1</text>
<text text-anchor="middle" x="350.5" y="-91.5" font-family="Helvetica,sans-Serif" font-size="10.00" fill="grey">n0</text>
<text text-anchor="middle" x="350.5" y="-80.5" font-family="Helvetica,sans-Serif" font-size="10.00" fill="grey">n1</text>
<text text-anchor="middle" x="350.5" y="-69.5" font-family="Helvetica,sans-Serif" font-size="10.00" fill="grey">nn</text>
<text text-anchor="start" x="327.5" y="-58.5" font-family="Helvetica,sans-Serif" font-size="10.00" fill="grey">reduction</text>
<text text-anchor="middle" x="350.5" y="-47.5" font-family="Helvetica,sans-Serif" font-size="10.00" fill="grey">_tile</text>
</g>
<!-- Node23 -->
<g id="Node000023" class="node">
<title>Node23</title>
<g id="a_Node000023"><a xlink:href="structGridDims.html" target="_top" xlink:title=" ">
<polygon fill="white" stroke="#666666" points="657,-19 595,-19 595,0 657,0 657,-19"/>
<text text-anchor="middle" x="626" y="-7" font-family="Helvetica,sans-Serif" font-size="10.00">GridDims</text>
</a>
</g>
</g>
<!-- Node13&#45;&gt;Node23 -->
<g id="edge23_Node000023_Node000013" class="edge">
<title>Node13&#45;&gt;Node23</title>
<g id="a_edge23_Node000023_Node000013"><a xlink:title=" ">
<path fill="none" stroke="#9a32cd" stroke-dasharray="5,2" d="M243.67,-12.97C261.7,-10.45 283.96,-7.75 304,-6.5 410.8,0.15 537.96,-4.86 594.87,-7.78"/>
<polygon fill="#9a32cd" stroke="#9a32cd" points="242.99,-9.53 233.59,-14.42 243.99,-16.46 242.99,-9.53"/>
</a>
</g>
<text text-anchor="middle" x="350.5" y="-20.5" font-family="Helvetica,sans-Serif" font-size="10.00" fill="grey"> m</text>
<text text-anchor="middle" x="350.5" y="-9.5" font-family="Helvetica,sans-Serif" font-size="10.00" fill="grey">n</text>
</g>
<!-- Node14 -->
<g id="Node000014" class="node">
<title>Node14</title>
<g id="a_Node000014"><a xlink:href="structDeviceVertexBufferArray.html" target="_top" xlink:title=" ">
<polygon fill="white" stroke="#666666" points="552,-227 415,-227 415,-208 552,-208 552,-227"/>
<text text-anchor="middle" x="483.5" y="-215" font-family="Helvetica,sans-Serif" font-size="10.00">DeviceVertexBufferArray</text>
</a>
</g>
</g>
<!-- Node14&#45;&gt;Node11 -->
<g id="edge13_Node000011_Node000014" class="edge">
<title>Node14&#45;&gt;Node11</title>
<g id="a_edge13_Node000011_Node000014"><a xlink:title=" ">
<path fill="none" stroke="#9a32cd" stroke-dasharray="5,2" d="M562.44,-208.41C598.87,-203.75 642.78,-197.58 682,-190.5 695.31,-188.1 709.76,-185 722.67,-182.05"/>
<polygon fill="#9a32cd" stroke="#9a32cd" points="561.85,-204.95 552.37,-209.68 562.73,-211.9 561.85,-204.95"/>
</a>
</g>
<text text-anchor="middle" x="626" y="-209.5" font-family="Helvetica,sans-Serif" font-size="10.00" fill="grey"> on_device</text>
</g>
<!-- Node15 -->
<g id="Node000015" class="node">
<title>Node15</title>
<g id="a_Node000015"><a xlink:href="structAcComplex.html" target="_top" xlink:title=" ">
<polygon fill="white" stroke="#666666" points="243,-266 171,-266 171,-247 243,-247 243,-266"/>
<text text-anchor="middle" x="207" y="-254" font-family="Helvetica,sans-Serif" font-size="10.00">AcComplex</text>
</a>
</g>
</g>
<!-- Node15&#45;&gt;Node14 -->
<g id="edge14_Node000014_Node000015" class="edge">
<title>Node15&#45;&gt;Node14</title>
<g id="a_edge14_Node000014_Node000015"><a xlink:title=" ">
<path fill="none" stroke="#9a32cd" stroke-dasharray="5,2" d="M253.6,-251.78C291.95,-247.61 348.18,-241.03 397,-233.5 409.24,-231.61 422.41,-229.29 434.66,-227.01"/>
<polygon fill="#9a32cd" stroke="#9a32cd" points="252.84,-248.34 243.27,-252.89 253.59,-255.3 252.84,-248.34"/>
</a>
</g>
<text text-anchor="middle" x="350.5" y="-248.5" font-family="Helvetica,sans-Serif" font-size="10.00" fill="grey"> complex_in</text>
</g>
<!-- Node16 -->
<g id="Node000016" class="node">
<title>Node16</title>
<g id="a_Node000016"><a xlink:href="structProfileBufferArray.html" target="_top" xlink:title=" ">
<polygon fill="white" stroke="#666666" points="258.5,-229 155.5,-229 155.5,-210 258.5,-210 258.5,-229"/>
<text text-anchor="middle" x="207" y="-217" font-family="Helvetica,sans-Serif" font-size="10.00">ProfileBufferArray</text>
</a>
</g>
</g>
<!-- Node16&#45;&gt;Node14 -->
<g id="edge15_Node000014_Node000016" class="edge">
<title>Node16&#45;&gt;Node14</title>
<g id="a_edge15_Node000014_Node000016"><a xlink:title=" ">
<path fill="none" stroke="#9a32cd" stroke-dasharray="5,2" d="M268.76,-219.06C311.99,-218.74 370.08,-218.32 414.79,-217.99"/>
<polygon fill="#9a32cd" stroke="#9a32cd" points="268.64,-215.56 258.67,-219.13 268.69,-222.56 268.64,-215.56"/>
</a>
</g>
<text text-anchor="middle" x="350.5" y="-221.5" font-family="Helvetica,sans-Serif" font-size="10.00" fill="grey"> profiles</text>
</g>
<!-- Node17 -->
<g id="Node000017" class="node">
<title>Node17</title>
<g id="a_Node000017"><a xlink:href="structint3.html" target="_top" xlink:title=" ">
<polygon fill="white" stroke="#666666" points="224.5,-192 189.5,-192 189.5,-173 224.5,-173 224.5,-192"/>
<text text-anchor="middle" x="207" y="-180" font-family="Helvetica,sans-Serif" font-size="10.00">int3</text>
</a>
</g>
</g>
<!-- Node17&#45;&gt;Node14 -->
<g id="edge16_Node000014_Node000017" class="edge">
<title>Node17&#45;&gt;Node14</title>
<g id="a_edge16_Node000014_Node000017"><a xlink:title=" ">
<path fill="none" stroke="#9a32cd" stroke-dasharray="5,2" d="M235.1,-184.78C271.87,-188.01 339.55,-194.43 397,-202.5 408.19,-204.07 420.17,-206.01 431.5,-207.97"/>
<polygon fill="#9a32cd" stroke="#9a32cd" points="235,-181.26 224.73,-183.88 234.39,-188.23 235,-181.26"/>
</a>
</g>
<text text-anchor="middle" x="350.5" y="-205.5" font-family="Helvetica,sans-Serif" font-size="10.00" fill="grey"> block_factor</text>
</g>
<!-- Node18 -->
<g id="Node000018" class="node">
<title>Node18</title>
<g id="a_Node000018"><a xlink:href="structAcScratchpadStates.html" target="_top" xlink:title=" ">
<polygon fill="white" stroke="#666666" points="540,-187 427,-187 427,-168 540,-168 540,-187"/>
<text text-anchor="middle" x="483.5" y="-175" font-family="Helvetica,sans-Serif" font-size="10.00">AcScratchpadStates</text>
</a>
</g>
</g>
<!-- Node18&#45;&gt;Node11 -->
<g id="edge17_Node000011_Node000018" class="edge">
<title>Node18&#45;&gt;Node11</title>
<g id="a_edge17_Node000011_Node000018"><a xlink:title=" ">
<path fill="none" stroke="#9a32cd" stroke-dasharray="5,2" d="M550.54,-176.31C599.69,-175.42 665.81,-174.23 710.94,-173.42"/>
<polygon fill="#9a32cd" stroke="#9a32cd" points="550.26,-172.81 540.32,-176.49 550.38,-179.81 550.26,-172.81"/>
</a>
</g>
<text text-anchor="middle" x="626" y="-178.5" font-family="Helvetica,sans-Serif" font-size="10.00" fill="grey"> scratchpad_states</text>
</g>
<!-- Node19 -->
<g id="Node000019" class="node">
<title>Node19</title>
<g id="a_Node000019"><a xlink:href="structAcReduceBuffer.html" target="_top" xlink:title=" ">
<polygon fill="white" stroke="#666666" points="530.5,-150 436.5,-150 436.5,-131 530.5,-131 530.5,-150"/>
<text text-anchor="middle" x="483.5" y="-138" font-family="Helvetica,sans-Serif" font-size="10.00">AcReduceBuffer</text>
</a>
</g>
</g>
<!-- Node19&#45;&gt;Node11 -->
<g id="edge18_Node000011_Node000019" class="edge">
<title>Node19&#45;&gt;Node11</title>
<g id="a_edge18_Node000011_Node000019"><a xlink:title=" ">
<path fill="none" stroke="#9a32cd" stroke-dasharray="5,2" d="M540.51,-144.37C580.12,-147.41 634.43,-152.18 682,-158.5 691.5,-159.76 701.6,-161.34 711.31,-162.98"/>
<polygon fill="#9a32cd" stroke="#9a32cd" points="540.75,-140.88 530.51,-143.62 540.22,-147.86 540.75,-140.88"/>
</a>
</g>
<text text-anchor="middle" x="626" y="-161.5" font-family="Helvetica,sans-Serif" font-size="10.00" fill="grey"> profile_reduce_buffers</text>
</g>
<!-- Node20 -->
<g id="Node000020" class="node">
<title>Node20</title>
<g id="a_Node000020"><a xlink:href="structAcBuffer.html" target="_top" xlink:title=" ">
<polygon fill="white" stroke="#666666" points="236,-150 178,-150 178,-131 236,-131 236,-150"/>
<text text-anchor="middle" x="207" y="-138" font-family="Helvetica,sans-Serif" font-size="10.00">AcBuffer</text>
</a>
</g>
</g>
<!-- Node20&#45;&gt;Node19 -->
<g id="edge19_Node000019_Node000020" class="edge">
<title>Node20&#45;&gt;Node19</title>
<g id="a_edge19_Node000019_Node000020"><a xlink:title=" ">
<path fill="none" stroke="#9a32cd" stroke-dasharray="5,2" d="M246.12,-140.5C295.93,-140.5 383.08,-140.5 436.5,-140.5"/>
<polygon fill="#9a32cd" stroke="#9a32cd" points="246.09,-137 236.09,-140.5 246.09,-144 246.09,-137"/>
</a>
</g>
<text text-anchor="middle" x="350.5" y="-154.5" font-family="Helvetica,sans-Serif" font-size="10.00" fill="grey"> src</text>
<text text-anchor="middle" x="350.5" y="-143.5" font-family="Helvetica,sans-Serif" font-size="10.00" fill="grey">transposed</text>
</g>
<!-- Node21 -->
<g id="Node000021" class="node">
<title>Node21</title>
<g id="a_Node000021"><a xlink:href="structAcShape.html" target="_top" xlink:title=" ">
<polygon fill="white" stroke="#666666" points="59,-150 0,-150 0,-131 59,-131 59,-150"/>
<text text-anchor="middle" x="29.5" y="-138" font-family="Helvetica,sans-Serif" font-size="10.00">AcShape</text>
</a>
</g>
</g>
<!-- Node21&#45;&gt;Node20 -->
<g id="edge20_Node000020_Node000021" class="edge">
<title>Node21&#45;&gt;Node20</title>
<g id="a_edge20_Node000020_Node000021"><a xlink:title=" ">
<path fill="none" stroke="#9a32cd" stroke-dasharray="5,2" d="M69.23,-140.5C102.03,-140.5 148.29,-140.5 177.72,-140.5"/>
<polygon fill="#9a32cd" stroke="#9a32cd" points="69.09,-137 59.09,-140.5 69.09,-144 69.09,-137"/>
</a>
</g>
<text text-anchor="middle" x="93.5" y="-143.5" font-family="Helvetica,sans-Serif" font-size="10.00" fill="grey"> shape</text>
</g>
<!-- Node22 -->
<g id="Node000022" class="node">
<title>Node22</title>
<g id="a_Node000022"><a xlink:href="structAcDeviceKernelOutput.html" target="_top" xlink:title=" ">
<polygon fill="white" stroke="#666666" points="826,-219 700,-219 700,-200 826,-200 826,-219"/>
<text text-anchor="middle" x="763" y="-207" font-family="Helvetica,sans-Serif" font-size="10.00">AcDeviceKernelOutput</text>
</a>
</g>
</g>
<!-- Node22&#45;&gt;Node2 -->
<g id="edge21_Node000002_Node000022" class="edge">
<title>Node22&#45;&gt;Node2</title>
<g id="a_edge21_Node000002_Node000022"><a xlink:title=" ">
<path fill="none" stroke="#9a32cd" stroke-dasharray="5,2" d="M836.27,-202.18C866.46,-199.12 899.79,-195.74 922.8,-193.41"/>
<polygon fill="#9a32cd" stroke="#9a32cd" points="835.77,-198.71 826.17,-203.2 836.48,-205.67 835.77,-198.71"/>
</a>
</g>
<text text-anchor="middle" x="874.5" y="-203.5" font-family="Helvetica,sans-Serif" font-size="10.00" fill="grey"> output</text>
</g>
<!-- Node23&#45;&gt;Node1 -->
<g id="edge22_Node000001_Node000023" class="edge">
<title>Node23&#45;&gt;Node1</title>
<g id="a_edge22_Node000001_Node000023"><a xlink:title=" ">
<path fill="none" stroke="#9a32cd" stroke-dasharray="5,2" d="M664.16,-22.51C717.72,-41.42 819.57,-78.04 905,-112.5 962.71,-135.78 1029.67,-165.89 1062.78,-180.98"/>
<polygon fill="#9a32cd" stroke="#9a32cd" points="665.02,-19.1 654.43,-19.07 662.69,-25.7 665.02,-19.1"/>
</a>
</g>
<text text-anchor="middle" x="874.5" y="-126.5" font-family="Helvetica,sans-Serif" font-size="10.00" fill="grey"> grid</text>
<text text-anchor="middle" x="874.5" y="-115.5" font-family="Helvetica,sans-Serif" font-size="10.00" fill="grey">subgrid</text>
</g>
</g>
</svg>
