<?xml version="1.0" encoding="UTF-8" standalone="no"?>
<!DOCTYPE svg PUBLIC "-//W3C//DTD SVG 1.1//EN"
 "http://www.w3.org/Graphics/SVG/1.1/DTD/svg11.dtd">
<!-- Generated by graphviz version 2.43.0 (0)
 -->
<!-- Title: node_vec Pages: 1 -->
<svg width="124pt" height="107pt"
 viewBox="0.00 0.00 124.00 107.00" xmlns="http://www.w3.org/2000/svg" xmlns:xlink="http://www.w3.org/1999/xlink">
<g id="graph0" class="graph" transform="scale(1 1) rotate(0) translate(4 103)">
<title>node_vec</title>
<!-- Node1 -->
<g id="Node000001" class="node">
<title>Node1</title>
<g id="a_Node000001"><a xlink:title=" ">
<polygon fill="#999999" stroke="#666666" points="64.5,-19 1.5,-19 1.5,0 64.5,0 64.5,-19"/>
<text text-anchor="middle" x="33" y="-7" font-family="Helvetica,sans-Serif" font-size="10.00">node_vec</text>
</a>
</g>
</g>
<!-- Node2 -->
<g id="Node000002" class="node">
<title>Node2</title>
<g id="a_Node000002"><a xlink:href="structastnode__s.html" target="_top" xlink:title=" ">
<polygon fill="white" stroke="#666666" points="66,-92 0,-92 0,-73 66,-73 66,-92"/>
<text text-anchor="middle" x="33" y="-80" font-family="Helvetica,sans-Serif" font-size="10.00">astnode_s</text>
</a>
</g>
</g>
<!-- Node2&#45;&gt;Node1 -->
<g id="edge1_Node000001_Node000002" class="edge">
<title>Node2&#45;&gt;Node1</title>
<g id="a_edge1_Node000001_Node000002"><a xlink:title=" ">
<path fill="none" stroke="#9a32cd" stroke-dasharray="5,2" d="M33,-62.73C33,-48.66 33,-30.06 33,-19.28"/>
<polygon fill="#9a32cd" stroke="#9a32cd" points="29.5,-62.79 33,-72.79 36.5,-62.79 29.5,-62.79"/>
</a>
</g>
<text text-anchor="middle" x="45.5" y="-40" font-family="Helvetica,sans-Serif" font-size="10.00" fill="grey"> data</text>
</g>
<!-- Node2&#45;&gt;Node2 -->
<g id="edge2_Node000002_Node000002" class="edge">
<title>Node2&#45;&gt;Node2</title>
<g id="a_edge2_Node000002_Node000002"><a xlink:title=" ">
<path fill="none" stroke="#9a32cd" stroke-dasharray="5,2" d="M76.3,-88.77C80.98,-87.57 84,-85.48 84,-82.5 84,-77.73 76.28,-75.24 66.35,-75.02"/>
<polygon fill="#9a32cd" stroke="#9a32cd" points="75.86,-85.3 66.35,-89.98 76.7,-92.25 75.86,-85.3"/>
</a>
</g>
<text text-anchor="middle" x="100" y="-91" font-family="Helvetica,sans-Serif" font-size="10.00" fill="grey"> lhs</text>
<text text-anchor="middle" x="100" y="-80" font-family="Helvetica,sans-Serif" font-size="10.00" fill="grey">parent</text>
<text text-anchor="middle" x="100" y="-69" font-family="Helvetica,sans-Serif" font-size="10.00" fill="grey">rhs</text>
</g>
</g>
</svg>
