<?xml version="1.0" encoding="UTF-8" standalone="no"?>
<!DOCTYPE svg PUBLIC "-//W3C//DTD SVG 1.1//EN"
 "http://www.w3.org/Graphics/SVG/1.1/DTD/svg11.dtd">
<!-- Generated by graphviz version 2.43.0 (0)
 -->
<!-- Title: device_s Pages: 1 -->
<svg width="990pt" height="370pt"
 viewBox="0.00 0.00 990.00 370.00" xmlns="http://www.w3.org/2000/svg" xmlns:xlink="http://www.w3.org/1999/xlink">
<g id="graph0" class="graph" transform="scale(1 1) rotate(0) translate(4 366)">
<title>device_s</title>
<!-- Node1 -->
<g id="Node000001" class="node">
<title>Node1</title>
<g id="a_Node000001"><a xlink:title=" ">
<polygon fill="#999999" stroke="#666666" points="982,-126 923,-126 923,-107 982,-107 982,-126"/>
<text text-anchor="middle" x="952.5" y="-114" font-family="Helvetica,sans-Serif" font-size="10.00">device_s</text>
</a>
</g>
</g>
<!-- Node2 -->
<g id="Node000002" class="node">
<title>Node2</title>
<g id="a_Node000002"><a xlink:href="structAcMeshInfo.html" target="_top" xlink:title=" ">
<polygon fill="white" stroke="#666666" points="800,-307 726,-307 726,-288 800,-288 800,-307"/>
<text text-anchor="middle" x="763" y="-295" font-family="Helvetica,sans-Serif" font-size="10.00">AcMeshInfo</text>
</a>
</g>
</g>
<!-- Node2&#45;&gt;Node1 -->
<g id="edge1_Node000001_Node000002" class="edge">
<title>Node2&#45;&gt;Node1</title>
<g id="a_edge1_Node000001_Node000002"><a xlink:title=" ">
<path fill="none" stroke="#9a32cd" stroke-dasharray="5,2" d="M781.45,-280.66C819.89,-243.55 910.91,-155.68 941.37,-126.28"/>
<polygon fill="#9a32cd" stroke="#9a32cd" points="778.84,-278.31 774.08,-287.77 783.71,-283.34 778.84,-278.31"/>
</a>
</g>
<text text-anchor="middle" x="874.5" y="-220.5" font-family="Helvetica,sans-Serif" font-size="10.00" fill="grey"> local_config</text>
</g>
<!-- Node3 -->
<g id="Node000003" class="node">
<title>Node3</title>
<g id="a_Node000003"><a xlink:href="structAcMeshInfoLoaded.html" target="_top" xlink:title=" ">
<polygon fill="white" stroke="#666666" points="538,-362 429,-362 429,-343 538,-343 538,-362"/>
<text text-anchor="middle" x="483.5" y="-350" font-family="Helvetica,sans-Serif" font-size="10.00">AcMeshInfoLoaded</text>
</a>
</g>
</g>
<!-- Node3&#45;&gt;Node2 -->
<g id="edge2_Node000002_Node000003" class="edge">
<title>Node3&#45;&gt;Node2</title>
<g id="a_edge2_Node000002_Node000003"><a xlink:title=" ">
<path fill="none" stroke="#9a32cd" stroke-dasharray="5,2" d="M548.38,-346.47C587.33,-342.05 637.92,-334.97 682,-324.5 700.97,-320 721.82,-312.88 737.48,-307.09"/>
<polygon fill="#9a32cd" stroke="#9a32cd" points="547.78,-343.01 538.23,-347.59 548.55,-349.97 547.78,-343.01"/>
</a>
</g>
<text text-anchor="middle" x="626" y="-346.5" font-family="Helvetica,sans-Serif" font-size="10.00" fill="grey"> is_loaded</text>
</g>
<!-- Node4 -->
<g id="Node000004" class="node">
<title>Node4</title>
<g id="a_Node000004"><a xlink:href="structAcCommunicator.html" target="_top" xlink:title=" ">
<polygon fill="white" stroke="#666666" points="534,-325 433,-325 433,-306 534,-306 534,-325"/>
<text text-anchor="middle" x="483.5" y="-313" font-family="Helvetica,sans-Serif" font-size="10.00">AcCommunicator</text>
</a>
</g>
</g>
<!-- Node4&#45;&gt;Node2 -->
<g id="edge3_Node000002_Node000004" class="edge">
<title>Node4&#45;&gt;Node2</title>
<g id="a_edge3_Node000002_Node000004"><a xlink:title=" ">
<path fill="none" stroke="#9a32cd" stroke-dasharray="5,2" d="M544.1,-311.63C599.26,-308.06 679.49,-302.85 725.64,-299.86"/>
<polygon fill="#9a32cd" stroke="#9a32cd" points="543.86,-308.14 534.11,-312.28 544.32,-315.13 543.86,-308.14"/>
</a>
</g>
<text text-anchor="middle" x="626" y="-312.5" font-family="Helvetica,sans-Serif" font-size="10.00" fill="grey"> comm</text>
</g>
<!-- Node5 -->
<g id="Node000005" class="node">
<title>Node5</title>
<g id="a_Node000005"><a xlink:href="structAcCompInfo.html" target="_top" xlink:title=" ">
<polygon fill="white" stroke="#666666" points="521.5,-288 445.5,-288 445.5,-269 521.5,-269 521.5,-288"/>
<text text-anchor="middle" x="483.5" y="-276" font-family="Helvetica,sans-Serif" font-size="10.00">AcCompInfo</text>
</a>
</g>
</g>
<!-- Node5&#45;&gt;Node2 -->
<g id="edge4_Node000002_Node000005" class="edge">
<title>Node5&#45;&gt;Node2</title>
<g id="a_edge4_Node000002_Node000005"><a xlink:title=" ">
<path fill="none" stroke="#9a32cd" stroke-dasharray="5,2" d="M531.7,-279.61C571.75,-280.79 630.72,-283.13 682,-287.5 696.36,-288.72 712.12,-290.58 725.82,-292.36"/>
<polygon fill="#9a32cd" stroke="#9a32cd" points="531.78,-276.11 521.69,-279.32 531.58,-283.1 531.78,-276.11"/>
</a>
</g>
<text text-anchor="middle" x="626" y="-290.5" font-family="Helvetica,sans-Serif" font-size="10.00" fill="grey"> run_consts</text>
</g>
<!-- Node6 -->
<g id="Node000006" class="node">
<title>Node6</title>
<g id="a_Node000006"><a xlink:href="structAcCompInfoConfig.html" target="_top" xlink:title=" ">
<polygon fill="white" stroke="#666666" points="260.5,-343 153.5,-343 153.5,-324 260.5,-324 260.5,-343"/>
<text text-anchor="middle" x="207" y="-331" font-family="Helvetica,sans-Serif" font-size="10.00">AcCompInfoConfig</text>
</a>
</g>
</g>
<!-- Node6&#45;&gt;Node5 -->
<g id="edge5_Node000005_Node000006" class="edge">
<title>Node6&#45;&gt;Node5</title>
<g id="a_edge5_Node000005_Node000006"><a xlink:title=" ">
<path fill="none" stroke="#9a32cd" stroke-dasharray="5,2" d="M270.95,-327.33C308.05,-322.84 355.67,-315.56 397,-304.5 405.29,-302.28 406.86,-300.22 415,-297.5 425.05,-294.14 436.06,-290.87 446.22,-288.02"/>
<polygon fill="#9a32cd" stroke="#9a32cd" points="270.3,-323.89 260.78,-328.53 271.12,-330.84 270.3,-323.89"/>
</a>
</g>
<text text-anchor="middle" x="350.5" y="-325.5" font-family="Helvetica,sans-Serif" font-size="10.00" fill="grey"> config</text>
</g>
<!-- Node7 -->
<g id="Node000007" class="node">
<title>Node7</title>
<g id="a_Node000007"><a xlink:href="structAcCompInfoLoaded.html" target="_top" xlink:title=" ">
<polygon fill="white" stroke="#666666" points="262.5,-306 151.5,-306 151.5,-287 262.5,-287 262.5,-306"/>
<text text-anchor="middle" x="207" y="-294" font-family="Helvetica,sans-Serif" font-size="10.00">AcCompInfoLoaded</text>
</a>
</g>
</g>
<!-- Node7&#45;&gt;Node5 -->
<g id="edge6_Node000005_Node000007" class="edge">
<title>Node7&#45;&gt;Node5</title>
<g id="a_edge6_Node000005_Node000007"><a xlink:title=" ">
<path fill="none" stroke="#9a32cd" stroke-dasharray="5,2" d="M272.67,-292.26C326.39,-288.74 400.93,-283.85 445.19,-280.95"/>
<polygon fill="#9a32cd" stroke="#9a32cd" points="272.31,-288.78 262.56,-292.92 272.77,-295.76 272.31,-288.78"/>
</a>
</g>
<text text-anchor="middle" x="350.5" y="-292.5" font-family="Helvetica,sans-Serif" font-size="10.00" fill="grey"> is_loaded</text>
</g>
<!-- Node8 -->
<g id="Node000008" class="node">
<title>Node8</title>
<g id="a_Node000008"><a xlink:href="structAcCompInfoHasDefaultValue.html" target="_top" xlink:title=" ">
<polygon fill="white" stroke="#666666" points="286,-269 128,-269 128,-250 286,-250 286,-269"/>
<text text-anchor="middle" x="207" y="-257" font-family="Helvetica,sans-Serif" font-size="10.00">AcCompInfoHasDefaultValue</text>
</a>
</g>
</g>
<!-- Node8&#45;&gt;Node5 -->
<g id="edge7_Node000005_Node000008" class="edge">
<title>Node8&#45;&gt;Node5</title>
<g id="a_edge7_Node000005_Node000008"><a xlink:title=" ">
<path fill="none" stroke="#9a32cd" stroke-dasharray="5,2" d="M296.39,-262.45C328.14,-263.84 364.21,-265.8 397,-268.5 412.79,-269.8 430.16,-271.74 445.1,-273.56"/>
<polygon fill="#9a32cd" stroke="#9a32cd" points="296.38,-258.95 286.24,-262.02 296.08,-265.94 296.38,-258.95"/>
</a>
</g>
<text text-anchor="middle" x="350.5" y="-271.5" font-family="Helvetica,sans-Serif" font-size="10.00" fill="grey"> has_default_value</text>
</g>
<!-- Node9 -->
<g id="Node000009" class="node">
<title>Node9</title>
<g id="a_Node000009"><a xlink:href="structAcInputs.html" target="_top" xlink:title=" ">
<polygon fill="white" stroke="#666666" points="792.5,-144 733.5,-144 733.5,-125 792.5,-125 792.5,-144"/>
<text text-anchor="middle" x="763" y="-132" font-family="Helvetica,sans-Serif" font-size="10.00">AcInputs</text>
</a>
</g>
</g>
<!-- Node9&#45;&gt;Node1 -->
<g id="edge8_Node000001_Node000009" class="edge">
<title>Node9&#45;&gt;Node1</title>
<g id="a_edge8_Node000001_Node000009"><a xlink:title=" ">
<path fill="none" stroke="#9a32cd" stroke-dasharray="5,2" d="M802.96,-130.76C838.71,-127.33 890.84,-122.32 922.89,-119.25"/>
<polygon fill="#9a32cd" stroke="#9a32cd" points="802.51,-127.29 792.89,-131.73 803.17,-134.26 802.51,-127.29"/>
</a>
</g>
<text text-anchor="middle" x="874.5" y="-129.5" font-family="Helvetica,sans-Serif" font-size="10.00" fill="grey"> input</text>
</g>
<!-- Node10 -->
<g id="Node000010" class="node">
<title>Node10</title>
<g id="a_Node000010"><a xlink:href="structVertexBufferArray.html" target="_top" xlink:title=" ">
<polygon fill="white" stroke="#666666" points="815,-107 711,-107 711,-88 815,-88 815,-107"/>
<text text-anchor="middle" x="763" y="-95" font-family="Helvetica,sans-Serif" font-size="10.00">VertexBufferArray</text>
</a>
</g>
</g>
<!-- Node10&#45;&gt;Node1 -->
<g id="edge9_Node000001_Node000010" class="edge">
<title>Node10&#45;&gt;Node1</title>
<g id="a_edge9_Node000001_Node000010"><a xlink:title=" ">
<path fill="none" stroke="#9a32cd" stroke-dasharray="5,2" d="M825.15,-98.63C850.02,-99.7 878.98,-101.71 905,-105.5 910.75,-106.34 916.83,-107.54 922.63,-108.84"/>
<polygon fill="#9a32cd" stroke="#9a32cd" points="825.25,-95.13 815.12,-98.24 824.98,-102.13 825.25,-95.13"/>
</a>
</g>
<text text-anchor="middle" x="874.5" y="-108.5" font-family="Helvetica,sans-Serif" font-size="10.00" fill="grey"> vba</text>
</g>
<!-- Node11 -->
<g id="Node000011" class="node">
<title>Node11</title>
<g id="a_Node000011"><a xlink:href="structAcMeshDims.html" target="_top" xlink:title=" ">
<polygon fill="white" stroke="#666666" points="523.5,-154 443.5,-154 443.5,-135 523.5,-135 523.5,-154"/>
<text text-anchor="middle" x="483.5" y="-142" font-family="Helvetica,sans-Serif" font-size="10.00">AcMeshDims</text>
</a>
</g>
</g>
<!-- Node11&#45;&gt;Node10 -->
<g id="edge10_Node000010_Node000011" class="edge">
<title>Node11&#45;&gt;Node10</title>
<g id="a_edge10_Node000010_Node000011"><a xlink:title=" ">
<path fill="none" stroke="#9a32cd" stroke-dasharray="5,2" d="M533.54,-136.9C573.54,-130.62 631.48,-121.33 682,-112.5 691.74,-110.8 702.14,-108.9 712.1,-107.05"/>
<polygon fill="#9a32cd" stroke="#9a32cd" points="532.86,-133.46 523.52,-138.47 533.94,-140.38 532.86,-133.46"/>
</a>
</g>
<text text-anchor="middle" x="626" y="-154.5" font-family="Helvetica,sans-Serif" font-size="10.00" fill="grey"> computational_dims</text>
<text text-anchor="middle" x="626" y="-143.5" font-family="Helvetica,sans-Serif" font-size="10.00" fill="grey">dims</text>
<text text-anchor="middle" x="626" y="-132.5" font-family="Helvetica,sans-Serif" font-size="10.00" fill="grey">profile_dims</text>
</g>
<!-- Node12 -->
<g id="Node000012" class="node">
<title>Node12</title>
<g id="a_Node000012"><a xlink:href="structVolume.html" target="_top" xlink:title=" ">
<polygon fill="white" stroke="#666666" points="233.5,-173 180.5,-173 180.5,-154 233.5,-154 233.5,-173"/>
<text text-anchor="middle" x="207" y="-161" font-family="Helvetica,sans-Serif" font-size="10.00">Volume</text>
</a>
</g>
</g>
<!-- Node12&#45;&gt;Node11 -->
<g id="edge11_Node000011_Node000012" class="edge">
<title>Node12&#45;&gt;Node11</title>
<g id="a_edge11_Node000011_Node000012"><a xlink:title=" ">
<path fill="none" stroke="#9a32cd" stroke-dasharray="5,2" d="M243.84,-161.02C295.39,-157.45 390.12,-150.89 443.41,-147.21"/>
<polygon fill="#9a32cd" stroke="#9a32cd" points="243.56,-157.53 233.82,-161.71 244.04,-164.51 243.56,-157.53"/>
</a>
</g>
<text text-anchor="middle" x="350.5" y="-225.5" font-family="Helvetica,sans-Serif" font-size="10.00" fill="grey"> m0</text>
<text text-anchor="middle" x="350.5" y="-214.5" font-family="Helvetica,sans-Serif" font-size="10.00" fill="grey">m1</text>
<text text-anchor="middle" x="350.5" y="-203.5" font-family="Helvetica,sans-Serif" font-size="10.00" fill="grey">n0</text>
<text text-anchor="middle" x="350.5" y="-192.5" font-family="Helvetica,sans-Serif" font-size="10.00" fill="grey">n1</text>
<text text-anchor="middle" x="350.5" y="-181.5" font-family="Helvetica,sans-Serif" font-size="10.00" fill="grey">nn</text>
<text text-anchor="start" x="327.5" y="-170.5" font-family="Helvetica,sans-Serif" font-size="10.00" fill="grey">reduction</text>
<text text-anchor="middle" x="350.5" y="-159.5" font-family="Helvetica,sans-Serif" font-size="10.00" fill="grey">_tile</text>
</g>
<!-- Node13 -->
<g id="Node000013" class="node">
<title>Node13</title>
<g id="a_Node000013"><a xlink:href="structDeviceVertexBufferArray.html" target="_top" xlink:title=" ">
<polygon fill="white" stroke="#666666" points="552,-107 415,-107 415,-88 552,-88 552,-107"/>
<text text-anchor="middle" x="483.5" y="-95" font-family="Helvetica,sans-Serif" font-size="10.00">DeviceVertexBufferArray</text>
</a>
</g>
</g>
<!-- Node13&#45;&gt;Node10 -->
<g id="edge12_Node000010_Node000013" class="edge">
<title>Node13&#45;&gt;Node10</title>
<g id="a_edge12_Node000010_Node000013"><a xlink:title=" ">
<path fill="none" stroke="#9a32cd" stroke-dasharray="5,2" d="M562.28,-97.5C609.77,-97.5 669.16,-97.5 710.78,-97.5"/>
<polygon fill="#9a32cd" stroke="#9a32cd" points="562.03,-94 552.03,-97.5 562.03,-101 562.03,-94"/>
</a>
</g>
<text text-anchor="middle" x="626" y="-100.5" font-family="Helvetica,sans-Serif" font-size="10.00" fill="grey"> on_device</text>
</g>
<!-- Node14 -->
<g id="Node000014" class="node">
<title>Node14</title>
<g id="a_Node000014"><a xlink:href="structAcComplex.html" target="_top" xlink:title=" ">
<polygon fill="white" stroke="#666666" points="243,-136 171,-136 171,-117 243,-117 243,-136"/>
<text text-anchor="middle" x="207" y="-124" font-family="Helvetica,sans-Serif" font-size="10.00">AcComplex</text>
</a>
</g>
</g>
<!-- Node14&#45;&gt;Node13 -->
<g id="edge13_Node000013_Node000014" class="edge">
<title>Node14&#45;&gt;Node13</title>
<g id="a_edge13_Node000013_Node000014"><a xlink:title=" ">
<path fill="none" stroke="#9a32cd" stroke-dasharray="5,2" d="M253.14,-121.73C297.1,-117.09 364.45,-109.97 414.82,-104.65"/>
<polygon fill="#9a32cd" stroke="#9a32cd" points="252.62,-118.27 243.04,-122.8 253.36,-125.23 252.62,-118.27"/>
</a>
</g>
<text text-anchor="middle" x="350.5" y="-118.5" font-family="Helvetica,sans-Serif" font-size="10.00" fill="grey"> complex_in</text>
</g>
<!-- Node15 -->
<g id="Node000015" class="node">
<title>Node15</title>
<g id="a_Node000015"><a xlink:href="structProfileBufferArray.html" target="_top" xlink:title=" ">
<polygon fill="white" stroke="#666666" points="258.5,-99 155.5,-99 155.5,-80 258.5,-80 258.5,-99"/>
<text text-anchor="middle" x="207" y="-87" font-family="Helvetica,sans-Serif" font-size="10.00">ProfileBufferArray</text>
</a>
</g>
</g>
<!-- Node15&#45;&gt;Node13 -->
<g id="edge14_Node000013_Node000015" class="edge">
<title>Node15&#45;&gt;Node13</title>
<g id="a_edge14_Node000013_Node000015"><a xlink:title=" ">
<path fill="none" stroke="#9a32cd" stroke-dasharray="5,2" d="M268.69,-90.39C305.76,-91.03 354.13,-92.04 397,-93.5 402.79,-93.7 408.8,-93.93 414.83,-94.17"/>
<polygon fill="#9a32cd" stroke="#9a32cd" points="268.61,-86.89 258.55,-90.22 268.49,-93.89 268.61,-86.89"/>
</a>
</g>
<text text-anchor="middle" x="350.5" y="-96.5" font-family="Helvetica,sans-Serif" font-size="10.00" fill="grey"> profiles</text>
</g>
<!-- Node16 -->
<g id="Node000016" class="node">
<title>Node16</title>
<g id="a_Node000016"><a xlink:href="structint3.html" target="_top" xlink:title=" ">
<polygon fill="white" stroke="#666666" points="224.5,-62 189.5,-62 189.5,-43 224.5,-43 224.5,-62"/>
<text text-anchor="middle" x="207" y="-50" font-family="Helvetica,sans-Serif" font-size="10.00">int3</text>
</a>
</g>
</g>
<!-- Node16&#45;&gt;Node13 -->
<g id="edge15_Node000013_Node000016" class="edge">
<title>Node16&#45;&gt;Node13</title>
<g id="a_edge15_Node000013_Node000016"><a xlink:title=" ">
<path fill="none" stroke="#9a32cd" stroke-dasharray="5,2" d="M234.92,-54.66C271.73,-57.87 339.75,-64.7 397,-75.5 406.71,-77.33 428.35,-82.9 447.42,-87.98"/>
<polygon fill="#9a32cd" stroke="#9a32cd" points="234.8,-51.14 224.54,-53.78 234.21,-58.11 234.8,-51.14"/>
</a>
</g>
<text text-anchor="middle" x="350.5" y="-78.5" font-family="Helvetica,sans-Serif" font-size="10.00" fill="grey"> block_factor</text>
</g>
<!-- Node17 -->
<g id="Node000017" class="node">
<title>Node17</title>
<g id="a_Node000017"><a xlink:href="structAcScratchpadStates.html" target="_top" xlink:title=" ">
<polygon fill="white" stroke="#666666" points="540,-70 427,-70 427,-51 540,-51 540,-70"/>
<text text-anchor="middle" x="483.5" y="-58" font-family="Helvetica,sans-Serif" font-size="10.00">AcScratchpadStates</text>
</a>
</g>
</g>
<!-- Node17&#45;&gt;Node10 -->
<g id="edge16_Node000010_Node000017" class="edge">
<title>Node17&#45;&gt;Node10</title>
<g id="a_edge16_Node000010_Node000017"><a xlink:title=" ">
<path fill="none" stroke="#9a32cd" stroke-dasharray="5,2" d="M550.44,-66.61C588.9,-70.48 638.3,-75.98 682,-82.5 692.48,-84.06 703.69,-86 714.3,-87.95"/>
<polygon fill="#9a32cd" stroke="#9a32cd" points="550.7,-63.11 540.4,-65.61 550.01,-70.08 550.7,-63.11"/>
</a>
</g>
<text text-anchor="middle" x="626" y="-85.5" font-family="Helvetica,sans-Serif" font-size="10.00" fill="grey"> scratchpad_states</text>
</g>
<!-- Node18 -->
<g id="Node000018" class="node">
<title>Node18</title>
<g id="a_Node000018"><a xlink:href="structAcReduceBuffer.html" target="_top" xlink:title=" ">
<polygon fill="white" stroke="#666666" points="530.5,-31 436.5,-31 436.5,-12 530.5,-12 530.5,-31"/>
<text text-anchor="middle" x="483.5" y="-19" font-family="Helvetica,sans-Serif" font-size="10.00">AcReduceBuffer</text>
</a>
</g>
</g>
<!-- Node18&#45;&gt;Node10 -->
<g id="edge17_Node000010_Node000018" class="edge">
<title>Node18&#45;&gt;Node10</title>
<g id="a_edge17_Node000010_Node000018"><a xlink:title=" ">
<path fill="none" stroke="#9a32cd" stroke-dasharray="5,2" d="M540.84,-19.19C582.77,-20.05 639.8,-26.87 682,-53.5 693.89,-61 688.59,-71.29 700,-79.5 704.73,-82.9 710.1,-85.67 715.65,-87.91"/>
<polygon fill="#9a32cd" stroke="#9a32cd" points="540.83,-15.69 530.8,-19.1 540.76,-22.69 540.83,-15.69"/>
</a>
</g>
<text text-anchor="middle" x="626" y="-56.5" font-family="Helvetica,sans-Serif" font-size="10.00" fill="grey"> profile_reduce_buffers</text>
</g>
<!-- Node19 -->
<g id="Node000019" class="node">
<title>Node19</title>
<g id="a_Node000019"><a xlink:href="structAcBuffer.html" target="_top" xlink:title=" ">
<polygon fill="white" stroke="#666666" points="236,-19 178,-19 178,0 236,0 236,-19"/>
<text text-anchor="middle" x="207" y="-7" font-family="Helvetica,sans-Serif" font-size="10.00">AcBuffer</text>
</a>
</g>
</g>
<!-- Node19&#45;&gt;Node18 -->
<g id="edge18_Node000018_Node000019" class="edge">
<title>Node19&#45;&gt;Node18</title>
<g id="a_edge18_Node000018_Node000019"><a xlink:title=" ">
<path fill="none" stroke="#9a32cd" stroke-dasharray="5,2" d="M246.39,-8.33C284.61,-7.48 344.93,-7.03 397,-10.5 409.84,-11.36 423.71,-12.88 436.45,-14.52"/>
<polygon fill="#9a32cd" stroke="#9a32cd" points="246.13,-4.83 236.22,-8.57 246.3,-11.83 246.13,-4.83"/>
</a>
</g>
<text text-anchor="middle" x="350.5" y="-24.5" font-family="Helvetica,sans-Serif" font-size="10.00" fill="grey"> src</text>
<text text-anchor="middle" x="350.5" y="-13.5" font-family="Helvetica,sans-Serif" font-size="10.00" fill="grey">transposed</text>
</g>
<!-- Node20 -->
<g id="Node000020" class="node">
<title>Node20</title>
<g id="a_Node000020"><a xlink:href="structAcShape.html" target="_top" xlink:title=" ">
<polygon fill="white" stroke="#666666" points="59,-19 0,-19 0,0 59,0 59,-19"/>
<text text-anchor="middle" x="29.5" y="-7" font-family="Helvetica,sans-Serif" font-size="10.00">AcShape</text>
</a>
</g>
</g>
<!-- Node20&#45;&gt;Node19 -->
<g id="edge19_Node000019_Node000020" class="edge">
<title>Node20&#45;&gt;Node19</title>
<g id="a_edge19_Node000019_Node000020"><a xlink:title=" ">
<path fill="none" stroke="#9a32cd" stroke-dasharray="5,2" d="M69.23,-9.5C102.03,-9.5 148.29,-9.5 177.72,-9.5"/>
<polygon fill="#9a32cd" stroke="#9a32cd" points="69.09,-6 59.09,-9.5 69.09,-13 69.09,-6"/>
</a>
</g>
<text text-anchor="middle" x="93.5" y="-12.5" font-family="Helvetica,sans-Serif" font-size="10.00" fill="grey"> shape</text>
</g>
<!-- Node21 -->
<g id="Node000021" class="node">
<title>Node21</title>
<g id="a_Node000021"><a xlink:href="structAcDeviceKernelOutput.html" target="_top" xlink:title=" ">
<polygon fill="white" stroke="#666666" points="826,-70 700,-70 700,-51 826,-51 826,-70"/>
<text text-anchor="middle" x="763" y="-58" font-family="Helvetica,sans-Serif" font-size="10.00">AcDeviceKernelOutput</text>
</a>
</g>
</g>
<!-- Node21&#45;&gt;Node1 -->
<g id="edge20_Node000001_Node000021" class="edge">
<title>Node21&#45;&gt;Node1</title>
<g id="a_edge20_Node000001_Node000021"><a xlink:title=" ">
<path fill="none" stroke="#9a32cd" stroke-dasharray="5,2" d="M836.51,-66.71C859.03,-70.24 883.55,-75.79 905,-84.5 918.26,-89.88 931.52,-99.53 940.46,-106.83"/>
<polygon fill="#9a32cd" stroke="#9a32cd" points="836.73,-63.2 826.32,-65.22 835.71,-70.13 836.73,-63.2"/>
</a>
</g>
<text text-anchor="middle" x="874.5" y="-87.5" font-family="Helvetica,sans-Serif" font-size="10.00" fill="grey"> output</text>
</g>
</g>
</svg>
