<?xml version="1.0" encoding="UTF-8" standalone="no"?>
<!DOCTYPE svg PUBLIC "-//W3C//DTD SVG 1.1//EN"
 "http://www.w3.org/Graphics/SVG/1.1/DTD/svg11.dtd">
<!-- Generated by graphviz version 2.43.0 (0)
 -->
<!-- Title: include/timer_hires.h Pages: 1 -->
<svg width="221pt" height="93pt"
 viewBox="0.00 0.00 220.50 93.00" xmlns="http://www.w3.org/2000/svg" xmlns:xlink="http://www.w3.org/1999/xlink">
<g id="graph0" class="graph" transform="scale(1 1) rotate(0) translate(4 89)">
<title>include/timer_hires.h</title>
<!-- Node1 -->
<g id="Node000001" class="node">
<title>Node1</title>
<g id="a_Node000001"><a xlink:title="High&#45;resolution timer.">
<polygon fill="#999999" stroke="#666666" points="160.5,-85 41.5,-85 41.5,-66 160.5,-66 160.5,-85"/>
<text text-anchor="middle" x="101" y="-73" font-family="Helvetica,sans-Serif" font-size="10.00">include/timer_hires.h</text>
</a>
</g>
</g>
<!-- Node2 -->
<g id="Node000002" class="node">
<title>Node2</title>
<g id="a_Node000002"><a xlink:href="task_8h.html" target="_top" xlink:title=" ">
<polygon fill="white" stroke="#666666" points="88,-24.5 0,-24.5 0,-5.5 88,-5.5 88,-24.5"/>
<text text-anchor="middle" x="44" y="-12.5" font-family="Helvetica,sans-Serif" font-size="10.00">src/core/task.h</text>
</a>
</g>
</g>
<!-- Node1&#45;&gt;Node2 -->
<g id="edge1_Node000001_Node000002" class="edge">
<title>Node1&#45;&gt;Node2</title>
<g id="a_edge1_Node000001_Node000002"><a xlink:title=" ">
<path fill="none" stroke="#63b8ff" d="M85.5,-58.59C74.85,-47.67 61.13,-33.58 52.45,-24.67"/>
<polygon fill="#63b8ff" stroke="#63b8ff" points="83.1,-61.15 92.59,-65.87 88.12,-56.26 83.1,-61.15"/>
</a>
</g>
</g>
<!-- Node3 -->
<g id="Node000003" class="node">
<title>Node3</title>
<g id="a_Node000003"><a xlink:href="bwtest-io_8cu.html" target="_top" xlink:title=" ">
<polygon fill="white" stroke="#666666" points="212.5,-30 105.5,-30 105.5,0 212.5,0 212.5,-30"/>
<text text-anchor="start" x="113.5" y="-18" font-family="Helvetica,sans-Serif" font-size="10.00">test/bwtest/bwtest</text>
<text text-anchor="middle" x="159" y="-7" font-family="Helvetica,sans-Serif" font-size="10.00">&#45;io.cu</text>
</a>
</g>
</g>
<!-- Node1&#45;&gt;Node3 -->
<g id="edge2_Node000001_Node000003" class="edge">
<title>Node1&#45;&gt;Node3</title>
<g id="a_edge2_Node000001_Node000003"><a xlink:title=" ">
<path fill="none" stroke="#63b8ff" d="M116.67,-58.7C125.51,-49.78 136.46,-38.74 145.01,-30.11"/>
<polygon fill="#63b8ff" stroke="#63b8ff" points="114.11,-56.3 109.56,-65.87 119.08,-61.23 114.11,-56.3"/>
</a>
</g>
</g>
</g>
</svg>
