<?xml version="1.0" encoding="UTF-8" standalone="no"?>
<!DOCTYPE svg PUBLIC "-//W3C//DTD SVG 1.1//EN"
 "http://www.w3.org/Graphics/SVG/1.1/DTD/svg11.dtd">
<!-- Generated by graphviz version 14.1.2 (0)
 -->
<!-- Title: acc&#45;runtime/acc/tinyexpr.h Pages: 1 -->
<svg width="154pt" height="142pt"
 viewBox="0.00 0.00 154.00 142.00" xmlns="http://www.w3.org/2000/svg" xmlns:xlink="http://www.w3.org/1999/xlink">
<g id="graph0" class="graph" transform="scale(1 1) rotate(0) translate(4 138.25)">
<title>acc&#45;runtime/acc/tinyexpr.h</title>
<!-- Node1 -->
<g id="Node000001" class="node">
<title>Node1</title>
<g id="a_Node000001"><a xlink:title=" ">
<polygon fill="#999999" stroke="#666666" points="145.75,-134.25 0,-134.25 0,-113.5 145.75,-113.5 145.75,-134.25"/>
<text xml:space="preserve" text-anchor="middle" x="72.88" y="-120.75" font-family="Helvetica,sans-Serif" font-size="10.00">acc&#45;runtime/acc/tinyexpr.h</text>
</a>
</g>
</g>
<!-- Node2 -->
<g id="Node000002" class="node">
<title>Node2</title>
<g id="a_Node000002"><a xlink:href="func__define_8h.html" target="_top" xlink:title=" ">
<polygon fill="white" stroke="#666666" points="113.5,-77.5 32.25,-77.5 32.25,-56.75 113.5,-56.75 113.5,-77.5"/>
<text xml:space="preserve" text-anchor="middle" x="72.88" y="-64" font-family="Helvetica,sans-Serif" font-size="10.00">func_define.h</text>
</a>
</g>
</g>
<!-- Node1&#45;&gt;Node2 -->
<g id="edge1_Node000001_Node000002" class="edge">
<title>Node1&#45;&gt;Node2</title>
<g id="a_edge1_Node000001_Node000002"><a xlink:title=" ">
<path fill="none" stroke="#63b8ff" d="M72.88,-113.09C72.88,-106.47 72.88,-97.47 72.88,-89.27"/>
<polygon fill="#63b8ff" stroke="#63b8ff" points="76.38,-89.34 72.88,-79.34 69.38,-89.34 76.38,-89.34"/>
</a>
</g>
</g>
<!-- Node3 -->
<g id="Node000003" class="node">
<title>Node3</title>
<g id="a_Node000003"><a xlink:title=" ">
<polygon fill="#e0e0e0" stroke="#999999" points="63.38,-20.75 14.38,-20.75 14.38,0 63.38,0 63.38,-20.75"/>
<text xml:space="preserve" text-anchor="middle" x="38.88" y="-7.25" font-family="Helvetica,sans-Serif" font-size="10.00">stdio.h</text>
</a>
</g>
</g>
<!-- Node2&#45;&gt;Node3 -->
<g id="edge2_Node000002_Node000003" class="edge">
<title>Node2&#45;&gt;Node3</title>
<g id="a_edge2_Node000002_Node000003"><a xlink:title=" ">
<path fill="none" stroke="#63b8ff" d="M66.8,-56.34C62.4,-49.25 56.3,-39.44 50.93,-30.79"/>
<polygon fill="#63b8ff" stroke="#63b8ff" points="53.95,-29.01 45.7,-22.36 48,-32.71 53.95,-29.01"/>
</a>
</g>
</g>
<!-- Node4 -->
<g id="Node000004" class="node">
<title>Node4</title>
<g id="a_Node000004"><a xlink:title=" ">
<polygon fill="#e0e0e0" stroke="#999999" points="133.88,-20.75 81.88,-20.75 81.88,0 133.88,0 133.88,-20.75"/>
<text xml:space="preserve" text-anchor="middle" x="107.88" y="-7.25" font-family="Helvetica,sans-Serif" font-size="10.00">stdlib.h</text>
</a>
</g>
</g>
<!-- Node2&#45;&gt;Node4 -->
<g id="edge3_Node000002_Node000004" class="edge">
<title>Node2&#45;&gt;Node4</title>
<g id="a_edge3_Node000002_Node000004"><a xlink:title=" ">
<path fill="none" stroke="#63b8ff" d="M79.13,-56.34C83.71,-49.17 90.07,-39.23 95.64,-30.51"/>
<polygon fill="#63b8ff" stroke="#63b8ff" points="98.42,-32.66 100.86,-22.35 92.52,-28.89 98.42,-32.66"/>
</a>
</g>
</g>
</g>
</svg>
