<?xml version="1.0" encoding="UTF-8" standalone="no"?>
<!DOCTYPE svg PUBLIC "-//W3C//DTD SVG 1.1//EN"
 "http://www.w3.org/Graphics/SVG/1.1/DTD/svg11.dtd">
<!-- Generated by graphviz version 2.43.0 (0)
 -->
<!-- Title: src/core/update_params/update_params.cc Pages: 1 -->
<svg width="2435pt" height="379pt"
 viewBox="0.00 0.00 2435.00 379.00" xmlns="http://www.w3.org/2000/svg" xmlns:xlink="http://www.w3.org/1999/xlink">
<g id="graph0" class="graph" transform="scale(1 1) rotate(0) translate(4 375)">
<title>src/core/update_params/update_params.cc</title>
<!-- Node1 -->
<g id="Node000001" class="node">
<title>Node1</title>
<g id="a_Node000001"><a xlink:title=" ">
<polygon fill="#999999" stroke="#666666" points="1864.5,-371 1730.5,-371 1730.5,-341 1864.5,-341 1864.5,-371"/>
<text text-anchor="start" x="1738.5" y="-359" font-family="Helvetica,sans-Serif" font-size="10.00">src/core/update_params</text>
<text text-anchor="middle" x="1797.5" y="-348" font-family="Helvetica,sans-Serif" font-size="10.00">/update_params.cc</text>
</a>
</g>
</g>
<!-- Node2 -->
<g id="Node000002" class="node">
<title>Node2</title>
<g id="a_Node000002"><a xlink:href="astaroth_8h.html" target="_top" xlink:title=" ">
<polygon fill="white" stroke="#666666" points="857.5,-305 791.5,-305 791.5,-286 857.5,-286 857.5,-305"/>
<text text-anchor="middle" x="824.5" y="-293" font-family="Helvetica,sans-Serif" font-size="10.00">astaroth.h</text>
</a>
</g>
</g>
<!-- Node1&#45;&gt;Node2 -->
<g id="edge1_Node000001_Node000002" class="edge">
<title>Node1&#45;&gt;Node2</title>
<g id="a_edge1_Node000001_Node000002"><a xlink:title=" ">
<path fill="none" stroke="#63b8ff" d="M1730.24,-350.96C1543.33,-339.72 1021.32,-308.33 867.61,-299.09"/>
<polygon fill="#63b8ff" stroke="#63b8ff" points="867.8,-295.6 857.61,-298.49 867.38,-302.58 867.8,-295.6"/>
</a>
</g>
</g>
<!-- Node35 -->
<g id="Node000035" class="node">
<title>Node35</title>
<g id="a_Node000035"><a xlink:href="ac__helpers_8h.html" target="_top" xlink:title=" ">
<polygon fill="white" stroke="#666666" points="1753.5,-129 1675.5,-129 1675.5,-110 1753.5,-110 1753.5,-129"/>
<text text-anchor="middle" x="1714.5" y="-117" font-family="Helvetica,sans-Serif" font-size="10.00">ac_helpers.h</text>
</a>
</g>
</g>
<!-- Node1&#45;&gt;Node35 -->
<g id="edge66_Node000001_Node000035" class="edge">
<title>Node1&#45;&gt;Node35</title>
<g id="a_edge66_Node000001_Node000035"><a xlink:title=" ">
<path fill="none" stroke="#63b8ff" d="M1786,-340.9C1778.66,-331.29 1769.43,-317.99 1763.5,-305 1737.28,-247.58 1722.95,-173.47 1717.33,-139.29"/>
<polygon fill="#63b8ff" stroke="#63b8ff" points="1720.78,-138.65 1715.76,-129.31 1713.86,-139.74 1720.78,-138.65"/>
</a>
</g>
</g>
<!-- Node55 -->
<g id="Node000055" class="node">
<title>Node55</title>
<g id="a_Node000055"><a xlink:href="math__utils_8h.html" target="_top" xlink:title="Brief info.">
<polygon fill="white" stroke="#666666" points="2062,-189.5 1985,-189.5 1985,-170.5 2062,-170.5 2062,-189.5"/>
<text text-anchor="middle" x="2023.5" y="-177.5" font-family="Helvetica,sans-Serif" font-size="10.00">math_utils.h</text>
</a>
</g>
</g>
<!-- Node1&#45;&gt;Node55 -->
<g id="edge55_Node000001_Node000055" class="edge">
<title>Node1&#45;&gt;Node55</title>
<g id="a_edge55_Node000001_Node000055"><a xlink:title=" ">
<path fill="none" stroke="#63b8ff" d="M1785.24,-340.87C1774.11,-326.25 1761.06,-303.18 1772.5,-286 1817.44,-218.49 1915,-194.3 1974.38,-185.7"/>
<polygon fill="#63b8ff" stroke="#63b8ff" points="1975.21,-189.12 1984.65,-184.31 1974.27,-182.18 1975.21,-189.12"/>
</a>
</g>
</g>
<!-- Node58 -->
<g id="Node000058" class="node">
<title>Node58</title>
<g id="a_Node000058"><a xlink:title=" ">
<polygon fill="#e0e0e0" stroke="#999999" points="1906,-305 1781,-305 1781,-286 1906,-286 1906,-305"/>
<text text-anchor="middle" x="1843.5" y="-293" font-family="Helvetica,sans-Serif" font-size="10.00">is_comptime_param.h</text>
</a>
</g>
</g>
<!-- Node1&#45;&gt;Node58 -->
<g id="edge65_Node000001_Node000058" class="edge">
<title>Node1&#45;&gt;Node58</title>
<g id="a_edge65_Node000001_Node000058"><a xlink:title=" ">
<path fill="none" stroke="#63b8ff" d="M1808.64,-340.84C1815.18,-332.52 1823.48,-321.96 1830.34,-313.23"/>
<polygon fill="#63b8ff" stroke="#63b8ff" points="1833.18,-315.29 1836.61,-305.27 1827.67,-310.96 1833.18,-315.29"/>
</a>
</g>
</g>
<!-- Node59 -->
<g id="Node000059" class="node">
<title>Node59</title>
<g id="a_Node000059"><a xlink:title=" ">
<polygon fill="#e0e0e0" stroke="#999999" points="2023,-305 1924,-305 1924,-286 2023,-286 2023,-305"/>
<text text-anchor="middle" x="1973.5" y="-293" font-family="Helvetica,sans-Serif" font-size="10.00">user_constants.h</text>
</a>
</g>
</g>
<!-- Node1&#45;&gt;Node59 -->
<g id="edge67_Node000001_Node000059" class="edge">
<title>Node1&#45;&gt;Node59</title>
<g id="a_edge67_Node000001_Node000059"><a xlink:title=" ">
<path fill="none" stroke="#63b8ff" d="M1839.66,-340.99C1869.77,-330.98 1909.81,-317.67 1938.23,-308.22"/>
<polygon fill="#63b8ff" stroke="#63b8ff" points="1939.38,-311.53 1947.77,-305.05 1937.17,-304.89 1939.38,-311.53"/>
</a>
</g>
</g>
<!-- Node60 -->
<g id="Node000060" class="node">
<title>Node60</title>
<g id="a_Node000060"><a xlink:title=" ">
<polygon fill="#e0e0e0" stroke="#999999" points="2157.5,-305 2041.5,-305 2041.5,-286 2157.5,-286 2157.5,-305"/>
<text text-anchor="middle" x="2099.5" y="-293" font-family="Helvetica,sans-Serif" font-size="10.00">user_config_loader.h</text>
</a>
</g>
</g>
<!-- Node1&#45;&gt;Node60 -->
<g id="edge68_Node000001_Node000060" class="edge">
<title>Node1&#45;&gt;Node60</title>
<g id="a_edge68_Node000001_Node000060"><a xlink:title=" ">
<path fill="none" stroke="#63b8ff" d="M1864.52,-342.02C1918.99,-331.47 1994.82,-316.78 2045.45,-306.97"/>
<polygon fill="#63b8ff" stroke="#63b8ff" points="2046.39,-310.35 2055.54,-305.02 2045.06,-303.48 2046.39,-310.35"/>
</a>
</g>
</g>
<!-- Node3 -->
<g id="Node000003" class="node">
<title>Node3</title>
<g id="a_Node000003"><a xlink:href="astaroth__base_8h.html" target="_top" xlink:title=" ">
<polygon fill="white" stroke="#666666" points="1341,-250 1246,-250 1246,-231 1341,-231 1341,-250"/>
<text text-anchor="middle" x="1293.5" y="-238" font-family="Helvetica,sans-Serif" font-size="10.00">astaroth_base.h</text>
</a>
</g>
</g>
<!-- Node2&#45;&gt;Node3 -->
<g id="edge2_Node000002_Node000003" class="edge">
<title>Node2&#45;&gt;Node3</title>
<g id="a_edge2_Node000002_Node000003"><a xlink:title=" ">
<path fill="none" stroke="#63b8ff" d="M857.75,-291.41C926.41,-284.92 1089.09,-269.01 1235.78,-250.18"/>
<polygon fill="#63b8ff" stroke="#63b8ff" points="1236.39,-253.63 1245.86,-248.87 1235.49,-246.68 1236.39,-253.63"/>
</a>
</g>
</g>
<!-- Node43 -->
<g id="Node000043" class="node">
<title>Node43</title>
<g id="a_Node000043"><a xlink:href="astaroth__grid_8h.html" target="_top" xlink:title=" ">
<polygon fill="white" stroke="#666666" points="1449.5,-250 1359.5,-250 1359.5,-231 1449.5,-231 1449.5,-250"/>
<text text-anchor="middle" x="1404.5" y="-238" font-family="Helvetica,sans-Serif" font-size="10.00">astaroth_grid.h</text>
</a>
</g>
</g>
<!-- Node2&#45;&gt;Node43 -->
<g id="edge43_Node000002_Node000043" class="edge">
<title>Node2&#45;&gt;Node43</title>
<g id="a_edge43_Node000002_Node000043"><a xlink:title=" ">
<path fill="none" stroke="#63b8ff" d="M857.51,-292.53C939.11,-287.49 1157.05,-272.97 1349.44,-250.04"/>
<polygon fill="#63b8ff" stroke="#63b8ff" points="1349.94,-253.51 1359.45,-248.84 1349.11,-246.56 1349.94,-253.51"/>
</a>
</g>
</g>
<!-- Node44 -->
<g id="Node000044" class="node">
<title>Node44</title>
<g id="a_Node000044"><a xlink:href="astaroth__node_8h.html" target="_top" xlink:title=" ">
<polygon fill="white" stroke="#666666" points="95,-250 0,-250 0,-231 95,-231 95,-250"/>
<text text-anchor="middle" x="47.5" y="-238" font-family="Helvetica,sans-Serif" font-size="10.00">astaroth_node.h</text>
</a>
</g>
</g>
<!-- Node2&#45;&gt;Node44 -->
<g id="edge44_Node000002_Node000044" class="edge">
<title>Node2&#45;&gt;Node44</title>
<g id="a_edge44_Node000002_Node000044"><a xlink:title=" ">
<path fill="none" stroke="#63b8ff" d="M791.4,-293.47C690.29,-290.11 376.34,-278.09 105.08,-249.95"/>
<polygon fill="#63b8ff" stroke="#63b8ff" points="105.36,-246.46 95.05,-248.9 104.63,-253.43 105.36,-246.46"/>
</a>
</g>
</g>
<!-- Node45 -->
<g id="Node000045" class="node">
<title>Node45</title>
<g id="a_Node000045"><a xlink:href="astaroth__device_8h.html" target="_top" xlink:title=" ">
<polygon fill="white" stroke="#666666" points="217.5,-250 113.5,-250 113.5,-231 217.5,-231 217.5,-250"/>
<text text-anchor="middle" x="165.5" y="-238" font-family="Helvetica,sans-Serif" font-size="10.00">astaroth_device.h</text>
</a>
</g>
</g>
<!-- Node2&#45;&gt;Node45 -->
<g id="edge45_Node000002_Node000045" class="edge">
<title>Node2&#45;&gt;Node45</title>
<g id="a_edge45_Node000002_Node000045"><a xlink:title=" ">
<path fill="none" stroke="#63b8ff" d="M791.37,-292.78C702.14,-288 449.12,-273.39 227.89,-250.08"/>
<polygon fill="#63b8ff" stroke="#63b8ff" points="228.03,-246.58 217.72,-249 227.29,-253.54 228.03,-246.58"/>
</a>
</g>
</g>
<!-- Node48 -->
<g id="Node000048" class="node">
<title>Node48</title>
<g id="a_Node000048"><a xlink:href="astaroth__legacy_8h.html" target="_top" xlink:title=" ">
<polygon fill="white" stroke="#666666" points="337.5,-250 235.5,-250 235.5,-231 337.5,-231 337.5,-250"/>
<text text-anchor="middle" x="286.5" y="-238" font-family="Helvetica,sans-Serif" font-size="10.00">astaroth_legacy.h</text>
</a>
</g>
</g>
<!-- Node2&#45;&gt;Node48 -->
<g id="edge48_Node000002_Node000048" class="edge">
<title>Node2&#45;&gt;Node48</title>
<g id="a_edge48_Node000002_Node000048"><a xlink:title=" ">
<path fill="none" stroke="#63b8ff" d="M791.48,-291.94C715.38,-285.93 521.54,-269.98 347.83,-249.98"/>
<polygon fill="#63b8ff" stroke="#63b8ff" points="348.07,-246.49 337.73,-248.81 347.26,-253.44 348.07,-246.49"/>
</a>
</g>
</g>
<!-- Node49 -->
<g id="Node000049" class="node">
<title>Node49</title>
<g id="a_Node000049"><a xlink:title=" ">
<polygon fill="#e0e0e0" stroke="#999999" points="495,-250 356,-250 356,-231 495,-231 495,-250"/>
<text text-anchor="middle" x="425.5" y="-238" font-family="Helvetica,sans-Serif" font-size="10.00">device_set_input_decls.h</text>
</a>
</g>
</g>
<!-- Node2&#45;&gt;Node49 -->
<g id="edge49_Node000002_Node000049" class="edge">
<title>Node2&#45;&gt;Node49</title>
<g id="a_edge49_Node000002_Node000049"><a xlink:title=" ">
<path fill="none" stroke="#63b8ff" d="M791.17,-290.07C727.39,-281.6 586.7,-262.91 499.62,-251.35"/>
<polygon fill="#63b8ff" stroke="#63b8ff" points="499.91,-247.85 489.53,-250.01 498.99,-254.79 499.91,-247.85"/>
</a>
</g>
</g>
<!-- Node50 -->
<g id="Node000050" class="node">
<title>Node50</title>
<g id="a_Node000050"><a xlink:title=" ">
<polygon fill="#e0e0e0" stroke="#999999" points="659.5,-250 513.5,-250 513.5,-231 659.5,-231 659.5,-250"/>
<text text-anchor="middle" x="586.5" y="-238" font-family="Helvetica,sans-Serif" font-size="10.00">device_get_output_decls.h</text>
</a>
</g>
</g>
<!-- Node2&#45;&gt;Node50 -->
<g id="edge50_Node000002_Node000050" class="edge">
<title>Node2&#45;&gt;Node50</title>
<g id="a_edge50_Node000002_Node000050"><a xlink:title=" ">
<path fill="none" stroke="#63b8ff" d="M791.41,-287.13C750.71,-278.07 681.31,-262.61 634.69,-252.23"/>
<polygon fill="#63b8ff" stroke="#63b8ff" points="635.34,-248.79 624.82,-250.03 633.82,-255.62 635.34,-248.79"/>
</a>
</g>
</g>
<!-- Node51 -->
<g id="Node000051" class="node">
<title>Node51</title>
<g id="a_Node000051"><a xlink:title=" ">
<polygon fill="#e0e0e0" stroke="#999999" points="817.5,-250 677.5,-250 677.5,-231 817.5,-231 817.5,-250"/>
<text text-anchor="middle" x="747.5" y="-238" font-family="Helvetica,sans-Serif" font-size="10.00">device_get_input_decls.h</text>
</a>
</g>
</g>
<!-- Node2&#45;&gt;Node51 -->
<g id="edge51_Node000002_Node000051" class="edge">
<title>Node2&#45;&gt;Node51</title>
<g id="a_edge51_Node000002_Node000051"><a xlink:title=" ">
<path fill="none" stroke="#63b8ff" d="M812.13,-285.98C800.41,-277.92 782.58,-265.65 768.61,-256.03"/>
<polygon fill="#63b8ff" stroke="#63b8ff" points="770.32,-252.96 760.1,-250.17 766.35,-258.72 770.32,-252.96"/>
</a>
</g>
</g>
<!-- Node52 -->
<g id="Node000052" class="node">
<title>Node52</title>
<g id="a_Node000052"><a xlink:title=" ">
<polygon fill="#e0e0e0" stroke="#999999" points="965.5,-250 835.5,-250 835.5,-231 965.5,-231 965.5,-250"/>
<text text-anchor="middle" x="900.5" y="-238" font-family="Helvetica,sans-Serif" font-size="10.00">get_vtxbufs_declares.h</text>
</a>
</g>
</g>
<!-- Node2&#45;&gt;Node52 -->
<g id="edge52_Node000002_Node000052" class="edge">
<title>Node2&#45;&gt;Node52</title>
<g id="a_edge52_Node000002_Node000052"><a xlink:title=" ">
<path fill="none" stroke="#63b8ff" d="M836.71,-285.98C848.28,-277.92 865.88,-265.65 879.66,-256.03"/>
<polygon fill="#63b8ff" stroke="#63b8ff" points="881.87,-258.76 888.07,-250.17 877.86,-253.02 881.87,-258.76"/>
</a>
</g>
</g>
<!-- Node53 -->
<g id="Node000053" class="node">
<title>Node53</title>
<g id="a_Node000053"><a xlink:href="astaroth__runtime__compilation_8h.html" target="_top" xlink:title=" ">
<polygon fill="white" stroke="#666666" points="1157,-250 984,-250 984,-231 1157,-231 1157,-250"/>
<text text-anchor="middle" x="1070.5" y="-238" font-family="Helvetica,sans-Serif" font-size="10.00">astaroth_runtime_compilation.h</text>
</a>
</g>
</g>
<!-- Node2&#45;&gt;Node53 -->
<g id="edge53_Node000002_Node000053" class="edge">
<title>Node2&#45;&gt;Node53</title>
<g id="a_edge53_Node000002_Node000053"><a xlink:title=" ">
<path fill="none" stroke="#63b8ff" d="M857.68,-287.35C899.67,-278.3 972.39,-262.64 1020.97,-252.17"/>
<polygon fill="#63b8ff" stroke="#63b8ff" points="1021.91,-255.55 1030.95,-250.02 1020.44,-248.71 1021.91,-255.55"/>
</a>
</g>
</g>
<!-- Node54 -->
<g id="Node000054" class="node">
<title>Node54</title>
<g id="a_Node000054"><a xlink:title=" ">
<polygon fill="#e0e0e0" stroke="#999999" points="1228,-250 1175,-250 1175,-231 1228,-231 1228,-250"/>
<text text-anchor="middle" x="1201.5" y="-238" font-family="Helvetica,sans-Serif" font-size="10.00">string.h</text>
</a>
</g>
</g>
<!-- Node2&#45;&gt;Node54 -->
<g id="edge54_Node000002_Node000054" class="edge">
<title>Node2&#45;&gt;Node54</title>
<g id="a_edge54_Node000002_Node000054"><a xlink:title=" ">
<path fill="none" stroke="#63b8ff" d="M857.7,-291.39C917.35,-285.55 1046.73,-271.69 1164.88,-250.13"/>
<polygon fill="#63b8ff" stroke="#63b8ff" points="1165.61,-253.56 1174.81,-248.3 1164.34,-246.67 1165.61,-253.56"/>
</a>
</g>
</g>
<!-- Node4 -->
<g id="Node000004" class="node">
<title>Node4</title>
<g id="a_Node000004"><a xlink:title=" ">
<polygon fill="#e0e0e0" stroke="#999999" points="753.5,-74 691.5,-74 691.5,-55 753.5,-55 753.5,-74"/>
<text text-anchor="middle" x="722.5" y="-62" font-family="Helvetica,sans-Serif" font-size="10.00">stdbool.h</text>
</a>
</g>
</g>
<!-- Node3&#45;&gt;Node4 -->
<g id="edge3_Node000003_Node000004" class="edge">
<title>Node3&#45;&gt;Node4</title>
<g id="a_edge3_Node000003_Node000004"><a xlink:title=" ">
<path fill="none" stroke="#63b8ff" d="M1245.86,-232.1C1243.04,-231.71 1240.23,-231.34 1237.5,-231 1083.49,-211.69 644.84,-249.1 546.5,-129 508.29,-82.34 618.08,-69.96 681.29,-66.68"/>
<polygon fill="#63b8ff" stroke="#63b8ff" points="681.55,-70.17 691.38,-66.21 681.23,-63.18 681.55,-70.17"/>
</a>
</g>
</g>
<!-- Node5 -->
<g id="Node000005" class="node">
<title>Node5</title>
<g id="a_Node000005"><a xlink:href="acc__runtime_8h.html" target="_top" xlink:title=" ">
<polygon fill="#fff0f0" stroke="red" points="1336.5,-189.5 1250.5,-189.5 1250.5,-170.5 1336.5,-170.5 1336.5,-189.5"/>
<text text-anchor="middle" x="1293.5" y="-177.5" font-family="Helvetica,sans-Serif" font-size="10.00">acc_runtime.h</text>
</a>
</g>
</g>
<!-- Node3&#45;&gt;Node5 -->
<g id="edge4_Node000003_Node000005" class="edge">
<title>Node3&#45;&gt;Node5</title>
<g id="a_edge4_Node000003_Node000005"><a xlink:title=" ">
<path fill="none" stroke="#63b8ff" d="M1293.5,-230.87C1293.5,-222.75 1293.5,-210.31 1293.5,-199.89"/>
<polygon fill="#63b8ff" stroke="#63b8ff" points="1297,-199.67 1293.5,-189.67 1290,-199.67 1297,-199.67"/>
</a>
</g>
</g>
<!-- Node25 -->
<g id="Node000025" class="node">
<title>Node25</title>
<g id="a_Node000025"><a xlink:title=" ">
<polygon fill="#e0e0e0" stroke="#999999" points="694,-129 555,-129 555,-110 694,-110 694,-129"/>
<text text-anchor="middle" x="624.5" y="-117" font-family="Helvetica,sans-Serif" font-size="10.00">user_built&#45;in_constants.h</text>
</a>
</g>
</g>
<!-- Node3&#45;&gt;Node25 -->
<g id="edge41_Node000003_Node000025" class="edge">
<title>Node3&#45;&gt;Node25</title>
<g id="a_edge41_Node000003_Node000025"><a xlink:title=" ">
<path fill="none" stroke="#63b8ff" d="M1245.92,-231.04C1126.32,-209.76 813.38,-154.1 682.92,-130.89"/>
<polygon fill="#63b8ff" stroke="#63b8ff" points="683.19,-127.38 672.73,-129.08 681.96,-134.28 683.19,-127.38"/>
</a>
</g>
</g>
<!-- Node42 -->
<g id="Node000042" class="node">
<title>Node42</title>
<g id="a_Node000042"><a xlink:title=" ">
<polygon fill="#e0e0e0" stroke="#999999" points="1486,-195 1355,-195 1355,-165 1486,-165 1486,-195"/>
<text text-anchor="start" x="1363" y="-183" font-family="Helvetica,sans-Serif" font-size="10.00">user_builtin_non_scalar</text>
<text text-anchor="middle" x="1420.5" y="-172" font-family="Helvetica,sans-Serif" font-size="10.00">_constants.h</text>
</a>
</g>
</g>
<!-- Node3&#45;&gt;Node42 -->
<g id="edge42_Node000003_Node000042" class="edge">
<title>Node3&#45;&gt;Node42</title>
<g id="a_edge42_Node000003_Node000042"><a xlink:title=" ">
<path fill="none" stroke="#63b8ff" d="M1311.97,-230.99C1329.86,-222.75 1357.6,-209.98 1380.55,-199.4"/>
<polygon fill="#63b8ff" stroke="#63b8ff" points="1382.1,-202.54 1389.72,-195.18 1379.17,-196.18 1382.1,-202.54"/>
</a>
</g>
</g>
<!-- Node5&#45;&gt;Node4 -->
<g id="edge6_Node000005_Node000004" class="edge">
<title>Node5&#45;&gt;Node4</title>
<g id="a_edge6_Node000005_Node000004"><a xlink:title=" ">
<path fill="none" stroke="#63b8ff" d="M1250.23,-177.83C1127.01,-174.13 780.62,-160.97 741.5,-129 728.42,-118.31 724.1,-99.01 722.78,-84.48"/>
<polygon fill="#63b8ff" stroke="#63b8ff" points="726.26,-83.92 722.27,-74.11 719.27,-84.27 726.26,-83.92"/>
</a>
</g>
</g>
<!-- Node6 -->
<g id="Node000006" class="node">
<title>Node6</title>
<g id="a_Node000006"><a xlink:title=" ">
<polygon fill="#e0e0e0" stroke="#999999" points="1209.5,-74 1159.5,-74 1159.5,-55 1209.5,-55 1209.5,-74"/>
<text text-anchor="middle" x="1184.5" y="-62" font-family="Helvetica,sans-Serif" font-size="10.00">stdio.h</text>
</a>
</g>
</g>
<!-- Node5&#45;&gt;Node6 -->
<g id="edge5_Node000005_Node000006" class="edge">
<title>Node5&#45;&gt;Node6</title>
<g id="a_edge5_Node000005_Node000006"><a xlink:title=" ">
<path fill="none" stroke="#63b8ff" d="M1250.25,-178.39C1213.36,-175.29 1162.33,-164.33 1136.5,-129 1124.02,-111.93 1143.6,-92.59 1161.37,-79.78"/>
<polygon fill="#63b8ff" stroke="#63b8ff" points="1163.49,-82.57 1169.8,-74.06 1159.56,-76.78 1163.49,-82.57"/>
</a>
</g>
</g>
<!-- Node7 -->
<g id="Node000007" class="node">
<title>Node7</title>
<g id="a_Node000007"><a xlink:href="device__headers_8h.html" target="_top" xlink:title=" ">
<polygon fill="#fff0f0" stroke="red" points="1616.5,-74 1514.5,-74 1514.5,-55 1616.5,-55 1616.5,-74"/>
<text text-anchor="middle" x="1565.5" y="-62" font-family="Helvetica,sans-Serif" font-size="10.00">device_headers.h</text>
</a>
</g>
</g>
<!-- Node5&#45;&gt;Node7 -->
<g id="edge7_Node000005_Node000007" class="edge">
<title>Node5&#45;&gt;Node7</title>
<g id="a_edge7_Node000005_Node000007"><a xlink:title=" ">
<path fill="none" stroke="#63b8ff" d="M1323.05,-170.46C1330.65,-168.47 1338.84,-166.49 1346.5,-165 1408.51,-152.91 1586.75,-176.42 1628.5,-129 1644.54,-110.79 1617.52,-91.15 1594.04,-78.61"/>
<polygon fill="#63b8ff" stroke="#63b8ff" points="1595.49,-75.42 1584.98,-74.02 1592.32,-81.66 1595.49,-75.42"/>
</a>
</g>
</g>
<!-- Node10 -->
<g id="Node000010" class="node">
<title>Node10</title>
<g id="a_Node000010"><a xlink:title=" ">
<polygon fill="#e0e0e0" stroke="#999999" points="1496,-74 1401,-74 1401,-55 1496,-55 1496,-74"/>
<text text-anchor="middle" x="1448.5" y="-62" font-family="Helvetica,sans-Serif" font-size="10.00">builtin_enums.h</text>
</a>
</g>
</g>
<!-- Node5&#45;&gt;Node10 -->
<g id="edge9_Node000005_Node000010" class="edge">
<title>Node5&#45;&gt;Node10</title>
<g id="a_edge9_Node000005_Node000010"><a xlink:title=" ">
<path fill="none" stroke="#63b8ff" d="M1304.6,-170.35C1321.63,-157.13 1355.3,-131.21 1384.5,-110 1398.6,-99.76 1414.7,-88.56 1427.23,-79.96"/>
<polygon fill="#63b8ff" stroke="#63b8ff" points="1429.36,-82.75 1435.64,-74.21 1425.41,-76.97 1429.36,-82.75"/>
</a>
</g>
</g>
<!-- Node11 -->
<g id="Node000011" class="node">
<title>Node11</title>
<g id="a_Node000011"><a xlink:href="datatypes_8h.html" target="_top" xlink:title=" ">
<polygon fill="white" stroke="#666666" points="1919.5,-129 1845.5,-129 1845.5,-110 1919.5,-110 1919.5,-129"/>
<text text-anchor="middle" x="1882.5" y="-117" font-family="Helvetica,sans-Serif" font-size="10.00">datatypes.h</text>
</a>
</g>
</g>
<!-- Node5&#45;&gt;Node11 -->
<g id="edge10_Node000005_Node000011" class="edge">
<title>Node5&#45;&gt;Node11</title>
<g id="a_edge10_Node000005_Node000011"><a xlink:title=" ">
<path fill="none" stroke="#63b8ff" d="M1321.9,-170.47C1329.8,-168.37 1338.43,-166.35 1346.5,-165 1558.61,-129.51 1618.13,-156.05 1835.27,-129"/>
<polygon fill="#63b8ff" stroke="#63b8ff" points="1835.92,-132.45 1845.4,-127.72 1835.04,-125.5 1835.92,-132.45"/>
</a>
</g>
</g>
<!-- Node19 -->
<g id="Node000019" class="node">
<title>Node19</title>
<g id="a_Node000019"><a xlink:href="errchk_8h.html" target="_top" xlink:title="Brief info.">
<polygon fill="white" stroke="#666666" points="1827.5,-129 1771.5,-129 1771.5,-110 1827.5,-110 1827.5,-129"/>
<text text-anchor="middle" x="1799.5" y="-117" font-family="Helvetica,sans-Serif" font-size="10.00">errchk.h</text>
</a>
</g>
</g>
<!-- Node5&#45;&gt;Node19 -->
<g id="edge22_Node000005_Node000019" class="edge">
<title>Node5&#45;&gt;Node19</title>
<g id="a_edge22_Node000005_Node000019"><a xlink:title=" ">
<path fill="none" stroke="#63b8ff" d="M1322.18,-170.46C1330.01,-168.4 1338.53,-166.39 1346.5,-165 1526.12,-133.74 1577.38,-157 1761.3,-128.96"/>
<polygon fill="#63b8ff" stroke="#63b8ff" points="1761.95,-132.4 1771.3,-127.41 1760.88,-125.48 1761.95,-132.4"/>
</a>
</g>
</g>
<!-- Node23 -->
<g id="Node000023" class="node">
<title>Node23</title>
<g id="a_Node000023"><a xlink:title=" ">
<polygon fill="#e0e0e0" stroke="#999999" points="1232,-129 1145,-129 1145,-110 1232,-110 1232,-129"/>
<text text-anchor="middle" x="1188.5" y="-117" font-family="Helvetica,sans-Serif" font-size="10.00">user_defines.h</text>
</a>
</g>
</g>
<!-- Node5&#45;&gt;Node23 -->
<g id="edge31_Node000005_Node000023" class="edge">
<title>Node5&#45;&gt;Node23</title>
<g id="a_edge31_Node000005_Node000023"><a xlink:title=" ">
<path fill="none" stroke="#63b8ff" d="M1278.01,-170.37C1260.87,-160.82 1233.03,-145.31 1212.94,-134.12"/>
<polygon fill="#63b8ff" stroke="#63b8ff" points="1214.5,-130.98 1204.06,-129.17 1211.09,-137.09 1214.5,-130.98"/>
</a>
</g>
</g>
<!-- Node24 -->
<g id="Node000024" class="node">
<title>Node24</title>
<g id="a_Node000024"><a xlink:title=" ">
<polygon fill="#e0e0e0" stroke="#999999" points="1336.5,-129 1250.5,-129 1250.5,-110 1336.5,-110 1336.5,-129"/>
<text text-anchor="middle" x="1293.5" y="-117" font-family="Helvetica,sans-Serif" font-size="10.00">profiles_info.h</text>
</a>
</g>
</g>
<!-- Node5&#45;&gt;Node24 -->
<g id="edge32_Node000005_Node000024" class="edge">
<title>Node5&#45;&gt;Node24</title>
<g id="a_edge32_Node000005_Node000024"><a xlink:title=" ">
<path fill="none" stroke="#63b8ff" d="M1293.5,-170.37C1293.5,-162.25 1293.5,-149.81 1293.5,-139.39"/>
<polygon fill="#63b8ff" stroke="#63b8ff" points="1297,-139.17 1293.5,-129.17 1290,-139.17 1297,-139.17"/>
</a>
</g>
</g>
<!-- Node5&#45;&gt;Node25 -->
<g id="edge33_Node000005_Node000025" class="edge">
<title>Node5&#45;&gt;Node25</title>
<g id="a_edge33_Node000005_Node000025"><a xlink:title=" ">
<path fill="none" stroke="#63b8ff" d="M1250.18,-175.53C1153.15,-167.71 910.98,-147.9 708.5,-129 707.19,-128.88 705.86,-128.75 704.53,-128.63"/>
<polygon fill="#63b8ff" stroke="#63b8ff" points="704.45,-125.1 694.16,-127.63 703.78,-132.07 704.45,-125.1"/>
</a>
</g>
</g>
<!-- Node26 -->
<g id="Node000026" class="node">
<title>Node26</title>
<g id="a_Node000026"><a xlink:href="func__attributes_8h.html" target="_top" xlink:title=" ">
<polygon fill="white" stroke="#666666" points="2427,-74 2328,-74 2328,-55 2427,-55 2427,-74"/>
<text text-anchor="middle" x="2377.5" y="-62" font-family="Helvetica,sans-Serif" font-size="10.00">func_attributes.h</text>
</a>
</g>
</g>
<!-- Node5&#45;&gt;Node26 -->
<g id="edge34_Node000005_Node000026" class="edge">
<title>Node5&#45;&gt;Node26</title>
<g id="a_edge34_Node000005_Node000026"><a xlink:title=" ">
<path fill="none" stroke="#63b8ff" d="M1321.61,-170.48C1329.59,-168.36 1338.33,-166.32 1346.5,-165 1602.35,-123.71 1670.98,-158.16 1928.5,-129 1979.98,-123.17 1992.25,-117.57 2043.5,-110 2162.65,-92.39 2195.26,-91.03 2317.69,-74.23"/>
<polygon fill="#63b8ff" stroke="#63b8ff" points="2318.41,-77.66 2327.83,-72.83 2317.45,-70.73 2318.41,-77.66"/>
</a>
</g>
</g>
<!-- Node27 -->
<g id="Node000027" class="node">
<title>Node27</title>
<g id="a_Node000027"><a xlink:title=" ">
<polygon fill="#e0e0e0" stroke="#999999" points="1518,-129 1393,-129 1393,-110 1518,-110 1518,-129"/>
<text text-anchor="middle" x="1455.5" y="-117" font-family="Helvetica,sans-Serif" font-size="10.00">user_input_typedefs.h</text>
</a>
</g>
</g>
<!-- Node5&#45;&gt;Node27 -->
<g id="edge35_Node000005_Node000027" class="edge">
<title>Node5&#45;&gt;Node27</title>
<g id="a_edge35_Node000005_Node000027"><a xlink:title=" ">
<path fill="none" stroke="#63b8ff" d="M1317.06,-170.49C1344.77,-160.49 1390.97,-143.8 1422.31,-132.49"/>
<polygon fill="#63b8ff" stroke="#63b8ff" points="1423.7,-135.71 1431.92,-129.02 1421.32,-129.12 1423.7,-135.71"/>
</a>
</g>
</g>
<!-- Node28 -->
<g id="Node000028" class="node">
<title>Node28</title>
<g id="a_Node000028"><a xlink:title=" ">
<polygon fill="#e0e0e0" stroke="#999999" points="1619,-129 1536,-129 1536,-110 1619,-110 1619,-129"/>
<text text-anchor="middle" x="1577.5" y="-117" font-family="Helvetica,sans-Serif" font-size="10.00">output_decl.h</text>
</a>
</g>
</g>
<!-- Node5&#45;&gt;Node28 -->
<g id="edge36_Node000005_Node000028" class="edge">
<title>Node5&#45;&gt;Node28</title>
<g id="a_edge36_Node000005_Node000028"><a xlink:title=" ">
<path fill="none" stroke="#63b8ff" d="M1324.52,-170.43C1331.71,-168.55 1339.36,-166.63 1346.5,-165 1407.71,-151.04 1478.7,-137.8 1525.66,-129.45"/>
<polygon fill="#63b8ff" stroke="#63b8ff" points="1526.35,-132.88 1535.59,-127.69 1525.13,-125.99 1526.35,-132.88"/>
</a>
</g>
</g>
<!-- Node29 -->
<g id="Node000029" class="node">
<title>Node29</title>
<g id="a_Node000029"><a xlink:title=" ">
<polygon fill="#e0e0e0" stroke="#999999" points="866.5,-129 750.5,-129 750.5,-110 866.5,-110 866.5,-129"/>
<text text-anchor="middle" x="808.5" y="-117" font-family="Helvetica,sans-Serif" font-size="10.00">comp_loaded_decl.h</text>
</a>
</g>
</g>
<!-- Node5&#45;&gt;Node29 -->
<g id="edge37_Node000005_Node000029" class="edge">
<title>Node5&#45;&gt;Node29</title>
<g id="a_edge37_Node000005_Node000029"><a xlink:title=" ">
<path fill="none" stroke="#63b8ff" d="M1250.46,-173.95C1176.44,-165.25 1019.97,-146.77 876.88,-129.16"/>
<polygon fill="#63b8ff" stroke="#63b8ff" points="876.95,-125.65 866.6,-127.9 876.1,-132.59 876.95,-125.65"/>
</a>
</g>
</g>
<!-- Node30 -->
<g id="Node000030" class="node">
<title>Node30</title>
<g id="a_Node000030"><a xlink:title=" ">
<polygon fill="#e0e0e0" stroke="#999999" points="962.5,-129 884.5,-129 884.5,-110 962.5,-110 962.5,-129"/>
<text text-anchor="middle" x="923.5" y="-117" font-family="Helvetica,sans-Serif" font-size="10.00">comp_decl.h</text>
</a>
</g>
</g>
<!-- Node5&#45;&gt;Node30 -->
<g id="edge38_Node000005_Node000030" class="edge">
<title>Node5&#45;&gt;Node30</title>
<g id="a_edge38_Node000005_Node000030"><a xlink:title=" ">
<path fill="none" stroke="#63b8ff" d="M1250.48,-172.62C1190.56,-163.66 1078.32,-146.65 972.42,-129.12"/>
<polygon fill="#63b8ff" stroke="#63b8ff" points="972.96,-125.67 962.52,-127.48 971.81,-132.57 972.96,-125.67"/>
</a>
</g>
</g>
<!-- Node31 -->
<g id="Node000031" class="node">
<title>Node31</title>
<g id="a_Node000031"><a xlink:title=" ">
<polygon fill="#e0e0e0" stroke="#999999" points="1088.5,-129 980.5,-129 980.5,-110 1088.5,-110 1088.5,-129"/>
<text text-anchor="middle" x="1034.5" y="-117" font-family="Helvetica,sans-Serif" font-size="10.00">info_loaded_decl.h</text>
</a>
</g>
</g>
<!-- Node5&#45;&gt;Node31 -->
<g id="edge39_Node000005_Node000031" class="edge">
<title>Node5&#45;&gt;Node31</title>
<g id="a_edge39_Node000005_Node000031"><a xlink:title=" ">
<path fill="none" stroke="#63b8ff" d="M1255.84,-170.49C1209.9,-160.12 1132.19,-142.57 1082.14,-131.26"/>
<polygon fill="#63b8ff" stroke="#63b8ff" points="1082.73,-127.81 1072.21,-129.02 1081.19,-134.63 1082.73,-127.81"/>
</a>
</g>
</g>
<!-- Node5&#45;&gt;Node35 -->
<g id="edge40_Node000005_Node000035" class="edge">
<title>Node5&#45;&gt;Node35</title>
<g id="a_edge40_Node000005_Node000035"><a xlink:title=" ">
<path fill="none" stroke="#63b8ff" d="M1322.76,-170.46C1330.44,-168.45 1338.74,-166.46 1346.5,-165 1484.98,-138.94 1521.9,-148.16 1661.5,-129 1662.77,-128.83 1664.06,-128.64 1665.36,-128.46"/>
<polygon fill="#63b8ff" stroke="#63b8ff" points="1666.07,-131.89 1675.46,-126.97 1665.05,-124.97 1666.07,-131.89"/>
</a>
</g>
</g>
<!-- Node8 -->
<g id="Node000008" class="node">
<title>Node8</title>
<g id="a_Node000008"><a xlink:title=" ">
<polygon fill="#e0e0e0" stroke="#999999" points="1781,-19 1668,-19 1668,0 1781,0 1781,-19"/>
<text text-anchor="middle" x="1724.5" y="-7" font-family="Helvetica,sans-Serif" font-size="10.00">cuda_runtime_api.h</text>
</a>
</g>
</g>
<!-- Node7&#45;&gt;Node8 -->
<g id="edge8_Node000007_Node000008" class="edge">
<title>Node7&#45;&gt;Node8</title>
<g id="a_edge8_Node000007_Node000008"><a xlink:title=" ">
<path fill="none" stroke="#63b8ff" d="M1591.05,-54.98C1617.62,-46.13 1659.44,-32.19 1689.17,-22.28"/>
<polygon fill="#63b8ff" stroke="#63b8ff" points="1690.37,-25.56 1698.75,-19.08 1688.16,-18.92 1690.37,-25.56"/>
</a>
</g>
</g>
<!-- Node11&#45;&gt;Node7 -->
<g id="edge13_Node000011_Node000007" class="edge">
<title>Node11&#45;&gt;Node7</title>
<g id="a_edge13_Node000011_Node000007"><a xlink:title=" ">
<path fill="none" stroke="#63b8ff" d="M1845.35,-111.57C1842.36,-111.03 1839.38,-110.5 1836.5,-110 1764.54,-97.44 1681.64,-83.98 1626.68,-75.19"/>
<polygon fill="#63b8ff" stroke="#63b8ff" points="1627.18,-71.72 1616.75,-73.6 1626.07,-78.64 1627.18,-71.72"/>
</a>
</g>
</g>
<!-- Node11&#45;&gt;Node8 -->
<g id="edge15_Node000011_Node000008" class="edge">
<title>Node11&#45;&gt;Node8</title>
<g id="a_edge15_Node000011_Node000008"><a xlink:title=" ">
<path fill="none" stroke="#63b8ff" d="M1919.73,-114.47C1966.44,-108.56 2042.5,-95.8 2059.5,-74 2064.69,-67.34 2065.06,-61.35 2059.5,-55 2055.1,-49.98 1887.53,-29.59 1791.1,-18.24"/>
<polygon fill="#63b8ff" stroke="#63b8ff" points="1791.48,-14.76 1781.14,-17.07 1790.66,-21.71 1791.48,-14.76"/>
</a>
</g>
</g>
<!-- Node11&#45;&gt;Node10 -->
<g id="edge17_Node000011_Node000010" class="edge">
<title>Node11&#45;&gt;Node10</title>
<g id="a_edge17_Node000011_Node000010"><a xlink:title=" ">
<path fill="none" stroke="#63b8ff" d="M1845.38,-111.4C1842.38,-110.9 1839.39,-110.42 1836.5,-110 1693.37,-89.02 1654.02,-92.73 1506.41,-74.06"/>
<polygon fill="#63b8ff" stroke="#63b8ff" points="1506.43,-70.53 1496.07,-72.74 1505.54,-77.48 1506.43,-70.53"/>
</a>
</g>
</g>
<!-- Node12 -->
<g id="Node000012" class="node">
<title>Node12</title>
<g id="a_Node000012"><a xlink:title=" ">
<polygon fill="#e0e0e0" stroke="#999999" points="1801,-74 1754,-74 1754,-55 1801,-55 1801,-74"/>
<text text-anchor="middle" x="1777.5" y="-62" font-family="Helvetica,sans-Serif" font-size="10.00">float.h</text>
</a>
</g>
</g>
<!-- Node11&#45;&gt;Node12 -->
<g id="edge11_Node000011_Node000012" class="edge">
<title>Node11&#45;&gt;Node12</title>
<g id="a_edge11_Node000011_Node000012"><a xlink:title=" ">
<path fill="none" stroke="#63b8ff" d="M1865.63,-109.98C1848.89,-101.54 1823,-88.47 1803.61,-78.68"/>
<polygon fill="#63b8ff" stroke="#63b8ff" points="1805.18,-75.55 1794.68,-74.17 1802.03,-81.8 1805.18,-75.55"/>
</a>
</g>
</g>
<!-- Node13 -->
<g id="Node000013" class="node">
<title>Node13</title>
<g id="a_Node000013"><a xlink:title=" ">
<polygon fill="#e0e0e0" stroke="#999999" points="2310,-74 2259,-74 2259,-55 2310,-55 2310,-74"/>
<text text-anchor="middle" x="2284.5" y="-62" font-family="Helvetica,sans-Serif" font-size="10.00">math.h</text>
</a>
</g>
</g>
<!-- Node11&#45;&gt;Node13 -->
<g id="edge12_Node000011_Node000013" class="edge">
<title>Node11&#45;&gt;Node13</title>
<g id="a_edge12_Node000011_Node000013"><a xlink:title=" ">
<path fill="none" stroke="#63b8ff" d="M1919.65,-115.01C1985.41,-108.6 2126.47,-93.76 2244.5,-74 2245.94,-73.76 2247.42,-73.5 2248.9,-73.23"/>
<polygon fill="#63b8ff" stroke="#63b8ff" points="2249.59,-76.66 2258.74,-71.32 2248.26,-69.79 2249.59,-76.66"/>
</a>
</g>
</g>
<!-- Node14 -->
<g id="Node000014" class="node">
<title>Node14</title>
<g id="a_Node000014"><a xlink:title=" ">
<polygon fill="#e0e0e0" stroke="#999999" points="1908,-74 1819,-74 1819,-55 1908,-55 1908,-74"/>
<text text-anchor="middle" x="1863.5" y="-62" font-family="Helvetica,sans-Serif" font-size="10.00">vector_types.h</text>
</a>
</g>
</g>
<!-- Node11&#45;&gt;Node14 -->
<g id="edge14_Node000011_Node000014" class="edge">
<title>Node11&#45;&gt;Node14</title>
<g id="a_edge14_Node000011_Node000014"><a xlink:title=" ">
<path fill="none" stroke="#63b8ff" d="M1879.36,-109.75C1876.82,-102.65 1873.14,-92.4 1869.97,-83.56"/>
<polygon fill="#63b8ff" stroke="#63b8ff" points="1873.25,-82.32 1866.58,-74.09 1866.66,-84.68 1873.25,-82.32"/>
</a>
</g>
</g>
<!-- Node15 -->
<g id="Node000015" class="node">
<title>Node15</title>
<g id="a_Node000015"><a xlink:href="acreal_8h.html" target="_top" xlink:title=" ">
<polygon fill="white" stroke="#666666" points="1863.5,-19 1807.5,-19 1807.5,0 1863.5,0 1863.5,-19"/>
<text text-anchor="middle" x="1835.5" y="-7" font-family="Helvetica,sans-Serif" font-size="10.00">acreal.h</text>
</a>
</g>
</g>
<!-- Node11&#45;&gt;Node15 -->
<g id="edge16_Node000011_Node000015" class="edge">
<title>Node11&#45;&gt;Node15</title>
<g id="a_edge16_Node000011_Node000015"><a xlink:title=" ">
<path fill="none" stroke="#63b8ff" d="M1919.59,-114.79C2003.6,-106.22 2201.95,-84.93 2211.5,-74 2217.06,-67.64 2217.11,-61.31 2211.5,-55 2189.29,-30.01 1964.92,-16.63 1873.73,-12.2"/>
<polygon fill="#63b8ff" stroke="#63b8ff" points="1873.7,-8.69 1863.54,-11.71 1873.36,-15.68 1873.7,-8.69"/>
</a>
</g>
</g>
<!-- Node16 -->
<g id="Node000016" class="node">
<title>Node16</title>
<g id="a_Node000016"><a xlink:title=" ">
<polygon fill="#e0e0e0" stroke="#999999" points="2202,-74 2107,-74 2107,-55 2202,-55 2202,-74"/>
<text text-anchor="middle" x="2154.5" y="-62" font-family="Helvetica,sans-Serif" font-size="10.00">user_typedefs.h</text>
</a>
</g>
</g>
<!-- Node11&#45;&gt;Node16 -->
<g id="edge18_Node000011_Node000016" class="edge">
<title>Node11&#45;&gt;Node16</title>
<g id="a_edge18_Node000011_Node000016"><a xlink:title=" ">
<path fill="none" stroke="#63b8ff" d="M1919.75,-111.24C1966.5,-102.13 2047.02,-86.44 2100.51,-76.02"/>
<polygon fill="#63b8ff" stroke="#63b8ff" points="2101.36,-79.42 2110.5,-74.07 2100.02,-72.55 2101.36,-79.42"/>
</a>
</g>
</g>
<!-- Node17 -->
<g id="Node000017" class="node">
<title>Node17</title>
<g id="a_Node000017"><a xlink:href="host__datatypes_8h.html" target="_top" xlink:title=" ">
<polygon fill="white" stroke="#666666" points="1736,-74 1635,-74 1635,-55 1736,-55 1736,-74"/>
<text text-anchor="middle" x="1685.5" y="-62" font-family="Helvetica,sans-Serif" font-size="10.00">host_datatypes.h</text>
</a>
</g>
</g>
<!-- Node11&#45;&gt;Node17 -->
<g id="edge19_Node000011_Node000017" class="edge">
<title>Node11&#45;&gt;Node17</title>
<g id="a_edge19_Node000011_Node000017"><a xlink:title=" ">
<path fill="none" stroke="#63b8ff" d="M1850.85,-109.98C1817.34,-100.97 1764.3,-86.7 1727.36,-76.76"/>
<polygon fill="#63b8ff" stroke="#63b8ff" points="1727.97,-73.3 1717.4,-74.08 1726.15,-80.06 1727.97,-73.3"/>
</a>
</g>
</g>
<!-- Node17&#45;&gt;Node15 -->
<g id="edge20_Node000017_Node000015" class="edge">
<title>Node17&#45;&gt;Node15</title>
<g id="a_edge20_Node000017_Node000015"><a xlink:title=" ">
<path fill="none" stroke="#63b8ff" d="M1709.6,-54.98C1734.38,-46.23 1773.2,-32.51 1801.19,-22.62"/>
<polygon fill="#63b8ff" stroke="#63b8ff" points="1802.7,-25.8 1810.96,-19.17 1800.37,-19.2 1802.7,-25.8"/>
</a>
</g>
</g>
<!-- Node18 -->
<g id="Node000018" class="node">
<title>Node18</title>
<g id="a_Node000018"><a xlink:title=" ">
<polygon fill="#e0e0e0" stroke="#999999" points="1563.5,-19 1507.5,-19 1507.5,0 1563.5,0 1563.5,-19"/>
<text text-anchor="middle" x="1535.5" y="-7" font-family="Helvetica,sans-Serif" font-size="10.00">stddef.h</text>
</a>
</g>
</g>
<!-- Node17&#45;&gt;Node18 -->
<g id="edge21_Node000017_Node000018" class="edge">
<title>Node17&#45;&gt;Node18</title>
<g id="a_edge21_Node000017_Node000018"><a xlink:title=" ">
<path fill="none" stroke="#63b8ff" d="M1661.4,-54.98C1636.62,-46.23 1597.8,-32.51 1569.81,-22.62"/>
<polygon fill="#63b8ff" stroke="#63b8ff" points="1570.63,-19.2 1560.04,-19.17 1568.3,-25.8 1570.63,-19.2"/>
</a>
</g>
</g>
<!-- Node19&#45;&gt;Node4 -->
<g id="edge25_Node000019_Node000004" class="edge">
<title>Node19&#45;&gt;Node4</title>
<g id="a_edge25_Node000019_Node000004"><a xlink:title=" ">
<path fill="none" stroke="#63b8ff" d="M1771.32,-111.47C1768.35,-110.89 1765.37,-110.39 1762.5,-110 1564.37,-83.23 931.87,-69.49 763.82,-66.26"/>
<polygon fill="#63b8ff" stroke="#63b8ff" points="763.73,-62.76 753.66,-66.06 763.59,-69.75 763.73,-62.76"/>
</a>
</g>
</g>
<!-- Node19&#45;&gt;Node6 -->
<g id="edge27_Node000019_Node000006" class="edge">
<title>Node19&#45;&gt;Node6</title>
<g id="a_edge27_Node000019_Node000006"><a xlink:title=" ">
<path fill="none" stroke="#63b8ff" d="M1771.3,-111.57C1768.34,-110.97 1765.37,-110.44 1762.5,-110 1555.39,-78.46 1501.37,-90.22 1292.5,-74 1268.28,-72.12 1241,-69.97 1219.92,-68.31"/>
<polygon fill="#63b8ff" stroke="#63b8ff" points="1220.06,-64.81 1209.81,-67.51 1219.5,-71.78 1220.06,-64.81"/>
</a>
</g>
</g>
<!-- Node19&#45;&gt;Node7 -->
<g id="edge30_Node000019_Node000007" class="edge">
<title>Node19&#45;&gt;Node7</title>
<g id="a_edge30_Node000019_Node000007"><a xlink:title=" ">
<path fill="none" stroke="#63b8ff" d="M1771.22,-111.99C1768.28,-111.32 1765.33,-110.64 1762.5,-110 1711.71,-98.43 1653.52,-85.3 1613.63,-76.32"/>
<polygon fill="#63b8ff" stroke="#63b8ff" points="1614.17,-72.85 1603.64,-74.07 1612.63,-79.68 1614.17,-72.85"/>
</a>
</g>
</g>
<!-- Node19&#45;&gt;Node17 -->
<g id="edge24_Node000019_Node000017" class="edge">
<title>Node19&#45;&gt;Node17</title>
<g id="a_edge24_Node000019_Node000017"><a xlink:title=" ">
<path fill="none" stroke="#63b8ff" d="M1781.18,-109.98C1762.84,-101.46 1734.39,-88.23 1713.27,-78.41"/>
<polygon fill="#63b8ff" stroke="#63b8ff" points="1714.69,-75.21 1704.15,-74.17 1711.74,-81.56 1714.69,-75.21"/>
</a>
</g>
</g>
<!-- Node19&#45;&gt;Node18 -->
<g id="edge23_Node000019_Node000018" class="edge">
<title>Node19&#45;&gt;Node18</title>
<g id="a_edge23_Node000019_Node000018"><a xlink:title=" ">
<path fill="none" stroke="#63b8ff" d="M1771.3,-111.58C1768.34,-110.99 1765.37,-110.44 1762.5,-110 1714.36,-102.53 1358.51,-109.84 1325.5,-74 1275.14,-19.33 1423.6,-11.11 1497.01,-10.29"/>
<polygon fill="#63b8ff" stroke="#63b8ff" points="1497.29,-13.79 1507.27,-10.22 1497.24,-6.79 1497.29,-13.79"/>
</a>
</g>
</g>
<!-- Node20 -->
<g id="Node000020" class="node">
<title>Node20</title>
<g id="a_Node000020"><a xlink:title=" ">
<polygon fill="#e0e0e0" stroke="#999999" points="1979,-74 1926,-74 1926,-55 1979,-55 1979,-74"/>
<text text-anchor="middle" x="1952.5" y="-62" font-family="Helvetica,sans-Serif" font-size="10.00">stdint.h</text>
</a>
</g>
</g>
<!-- Node19&#45;&gt;Node20 -->
<g id="edge26_Node000019_Node000020" class="edge">
<title>Node19&#45;&gt;Node20</title>
<g id="a_edge26_Node000019_Node000020"><a xlink:title=" ">
<path fill="none" stroke="#63b8ff" d="M1824.08,-109.98C1849.55,-101.16 1889.54,-87.31 1918.13,-77.41"/>
<polygon fill="#63b8ff" stroke="#63b8ff" points="1919.42,-80.66 1927.73,-74.08 1917.13,-74.05 1919.42,-80.66"/>
</a>
</g>
</g>
<!-- Node21 -->
<g id="Node000021" class="node">
<title>Node21</title>
<g id="a_Node000021"><a xlink:title=" ">
<polygon fill="#e0e0e0" stroke="#999999" points="2050,-74 1997,-74 1997,-55 2050,-55 2050,-74"/>
<text text-anchor="middle" x="2023.5" y="-62" font-family="Helvetica,sans-Serif" font-size="10.00">stdlib.h</text>
</a>
</g>
</g>
<!-- Node19&#45;&gt;Node21 -->
<g id="edge28_Node000019_Node000021" class="edge">
<title>Node19&#45;&gt;Node21</title>
<g id="a_edge28_Node000019_Node000021"><a xlink:title=" ">
<path fill="none" stroke="#63b8ff" d="M1827.69,-111.93C1862.77,-103.74 1924.75,-89.21 1986.8,-74.4"/>
<polygon fill="#63b8ff" stroke="#63b8ff" points="1987.84,-77.75 1996.75,-72.02 1986.21,-70.94 1987.84,-77.75"/>
</a>
</g>
</g>
<!-- Node22 -->
<g id="Node000022" class="node">
<title>Node22</title>
<g id="a_Node000022"><a xlink:title=" ">
<polygon fill="#e0e0e0" stroke="#999999" points="1382.5,-74 1334.5,-74 1334.5,-55 1382.5,-55 1382.5,-74"/>
<text text-anchor="middle" x="1358.5" y="-62" font-family="Helvetica,sans-Serif" font-size="10.00">time.h</text>
</a>
</g>
</g>
<!-- Node19&#45;&gt;Node22 -->
<g id="edge29_Node000019_Node000022" class="edge">
<title>Node19&#45;&gt;Node22</title>
<g id="a_edge29_Node000019_Node000022"><a xlink:title=" ">
<path fill="none" stroke="#63b8ff" d="M1771.29,-111.63C1768.33,-111.02 1765.36,-110.47 1762.5,-110 1599.43,-83.45 1555.31,-102.11 1392.5,-74 1392.4,-73.98 1392.3,-73.96 1392.2,-73.95"/>
<polygon fill="#63b8ff" stroke="#63b8ff" points="1393.05,-70.55 1382.55,-71.98 1391.65,-77.41 1393.05,-70.55"/>
</a>
</g>
</g>
<!-- Node46 -->
<g id="Node000046" class="node">
<title>Node46</title>
<g id="a_Node000046"><a xlink:title=" ">
<polygon fill="#e0e0e0" stroke="#999999" points="156,-195 37,-195 37,-165 156,-165 156,-195"/>
<text text-anchor="start" x="45" y="-183" font-family="Helvetica,sans-Serif" font-size="10.00">device_load_uniform</text>
<text text-anchor="middle" x="96.5" y="-172" font-family="Helvetica,sans-Serif" font-size="10.00">_decl.h</text>
</a>
</g>
</g>
<!-- Node45&#45;&gt;Node46 -->
<g id="edge46_Node000045_Node000046" class="edge">
<title>Node45&#45;&gt;Node46</title>
<g id="a_edge46_Node000045_Node000046"><a xlink:title=" ">
<path fill="none" stroke="#63b8ff" d="M155.32,-230.87C146.3,-223.22 132.78,-211.76 120.97,-201.75"/>
<polygon fill="#63b8ff" stroke="#63b8ff" points="123.04,-198.91 113.15,-195.11 118.51,-204.25 123.04,-198.91"/>
</a>
</g>
</g>
<!-- Node47 -->
<g id="Node000047" class="node">
<title>Node47</title>
<g id="a_Node000047"><a xlink:title=" ">
<polygon fill="#e0e0e0" stroke="#999999" points="296.5,-195 174.5,-195 174.5,-165 296.5,-165 296.5,-195"/>
<text text-anchor="start" x="182.5" y="-183" font-family="Helvetica,sans-Serif" font-size="10.00">device_store_uniform</text>
<text text-anchor="middle" x="235.5" y="-172" font-family="Helvetica,sans-Serif" font-size="10.00">_decl.h</text>
</a>
</g>
</g>
<!-- Node45&#45;&gt;Node47 -->
<g id="edge47_Node000045_Node000047" class="edge">
<title>Node45&#45;&gt;Node47</title>
<g id="a_edge47_Node000045_Node000047"><a xlink:title=" ">
<path fill="none" stroke="#63b8ff" d="M175.83,-230.87C184.98,-223.22 198.69,-211.76 210.67,-201.75"/>
<polygon fill="#63b8ff" stroke="#63b8ff" points="213.18,-204.21 218.61,-195.11 208.69,-198.84 213.18,-204.21"/>
</a>
</g>
</g>
<!-- Node55&#45;&gt;Node11 -->
<g id="edge59_Node000055_Node000011" class="edge">
<title>Node55&#45;&gt;Node11</title>
<g id="a_edge59_Node000055_Node000011"><a xlink:title=" ">
<path fill="none" stroke="#63b8ff" d="M2003,-170.49C1979.19,-160.62 1939.71,-144.23 1912.46,-132.93"/>
<polygon fill="#63b8ff" stroke="#63b8ff" points="1913.61,-129.62 1903.03,-129.02 1910.92,-136.08 1913.61,-129.62"/>
</a>
</g>
</g>
<!-- Node55&#45;&gt;Node13 -->
<g id="edge58_Node000055_Node000013" class="edge">
<title>Node55&#45;&gt;Node13</title>
<g id="a_edge58_Node000055_Node000013"><a xlink:title=" ">
<path fill="none" stroke="#63b8ff" d="M2062.3,-172.36C2099.21,-165.06 2155.61,-151.32 2200.5,-129 2226.15,-116.25 2251.87,-95.32 2267.96,-81"/>
<polygon fill="#63b8ff" stroke="#63b8ff" points="2270.41,-83.51 2275.45,-74.19 2265.7,-78.33 2270.41,-83.51"/>
</a>
</g>
</g>
<!-- Node55&#45;&gt;Node19 -->
<g id="edge60_Node000055_Node000019" class="edge">
<title>Node55&#45;&gt;Node19</title>
<g id="a_edge60_Node000055_Node000019"><a xlink:title=" ">
<path fill="none" stroke="#63b8ff" d="M1990.93,-170.49C1950.15,-159.84 1880.43,-141.64 1837.33,-130.38"/>
<polygon fill="#63b8ff" stroke="#63b8ff" points="1838.07,-126.96 1827.51,-127.81 1836.3,-133.73 1838.07,-126.96"/>
</a>
</g>
</g>
<!-- Node55&#45;&gt;Node20 -->
<g id="edge56_Node000055_Node000020" class="edge">
<title>Node55&#45;&gt;Node20</title>
<g id="a_edge56_Node000055_Node000020"><a xlink:title=" ">
<path fill="none" stroke="#63b8ff" d="M2018.16,-170.47C2006.55,-151.9 1978.78,-107.51 1963.33,-82.82"/>
<polygon fill="#63b8ff" stroke="#63b8ff" points="1966.17,-80.75 1957.9,-74.13 1960.23,-84.46 1966.17,-80.75"/>
</a>
</g>
</g>
<!-- Node55&#45;&gt;Node21 -->
<g id="edge57_Node000055_Node000021" class="edge">
<title>Node55&#45;&gt;Node21</title>
<g id="a_edge57_Node000055_Node000021"><a xlink:title=" ">
<path fill="none" stroke="#63b8ff" d="M2023.5,-170.47C2023.5,-152.23 2023.5,-109.07 2023.5,-84.14"/>
<polygon fill="#63b8ff" stroke="#63b8ff" points="2027,-84.13 2023.5,-74.13 2020,-84.13 2027,-84.13"/>
</a>
</g>
</g>
<!-- Node55&#45;&gt;Node26 -->
<g id="edge61_Node000055_Node000026" class="edge">
<title>Node55&#45;&gt;Node26</title>
<g id="a_edge61_Node000055_Node000026"><a xlink:title=" ">
<path fill="none" stroke="#63b8ff" d="M2062.04,-178.58C2141.4,-176.89 2319.28,-168.68 2362.5,-129 2374.62,-117.88 2377.81,-98.95 2378.31,-84.64"/>
<polygon fill="#63b8ff" stroke="#63b8ff" points="2381.81,-84.38 2378.25,-74.4 2374.81,-84.42 2381.81,-84.38"/>
</a>
</g>
</g>
<!-- Node56 -->
<g id="Node000056" class="node">
<title>Node56</title>
<g id="a_Node000056"><a xlink:href="math__utils__base_8h.html" target="_top" xlink:title=" ">
<polygon fill="white" stroke="#666666" points="2353.5,-129 2247.5,-129 2247.5,-110 2353.5,-110 2353.5,-129"/>
<text text-anchor="middle" x="2300.5" y="-117" font-family="Helvetica,sans-Serif" font-size="10.00">math_utils_base.h</text>
</a>
</g>
</g>
<!-- Node55&#45;&gt;Node56 -->
<g id="edge62_Node000055_Node000056" class="edge">
<title>Node55&#45;&gt;Node56</title>
<g id="a_edge62_Node000055_Node000056"><a xlink:title=" ">
<path fill="none" stroke="#63b8ff" d="M2062.02,-170.87C2111.03,-160.51 2195.83,-142.6 2249.99,-131.17"/>
<polygon fill="#63b8ff" stroke="#63b8ff" points="2251,-134.53 2260.06,-129.04 2249.56,-127.68 2251,-134.53"/>
</a>
</g>
</g>
<!-- Node57 -->
<g id="Node000057" class="node">
<title>Node57</title>
<g id="a_Node000057"><a xlink:title=" ">
<polygon fill="#e0e0e0" stroke="#999999" points="2191,-129 2052,-129 2052,-110 2191,-110 2191,-129"/>
<text text-anchor="middle" x="2121.5" y="-117" font-family="Helvetica,sans-Serif" font-size="10.00">generated_comp_funcs.h</text>
</a>
</g>
</g>
<!-- Node55&#45;&gt;Node57 -->
<g id="edge64_Node000055_Node000057" class="edge">
<title>Node55&#45;&gt;Node57</title>
<g id="a_edge64_Node000055_Node000057"><a xlink:title=" ">
<path fill="none" stroke="#63b8ff" d="M2037.96,-170.37C2053.81,-160.91 2079.47,-145.59 2098.18,-134.42"/>
<polygon fill="#63b8ff" stroke="#63b8ff" points="2100.19,-137.3 2106.98,-129.17 2096.6,-131.29 2100.19,-137.3"/>
</a>
</g>
</g>
<!-- Node56&#45;&gt;Node26 -->
<g id="edge63_Node000056_Node000026" class="edge">
<title>Node56&#45;&gt;Node26</title>
<g id="a_edge63_Node000056_Node000026"><a xlink:title=" ">
<path fill="none" stroke="#63b8ff" d="M2312.87,-109.98C2324.59,-101.92 2342.42,-89.65 2356.39,-80.03"/>
<polygon fill="#63b8ff" stroke="#63b8ff" points="2358.65,-82.72 2364.9,-74.17 2354.68,-76.96 2358.65,-82.72"/>
</a>
</g>
</g>
</g>
</svg>
