<?xml version="1.0" encoding="UTF-8" standalone="no"?>
<!DOCTYPE svg PUBLIC "-//W3C//DTD SVG 1.1//EN"
 "http://www.w3.org/Graphics/SVG/1.1/DTD/svg11.dtd">
<!-- Generated by graphviz version 2.43.0 (0)
 -->
<!-- Title: src/core/update_params/update_params.cc Pages: 1 -->
<svg width="2220pt" height="379pt"
 viewBox="0.00 0.00 2219.50 379.00" xmlns="http://www.w3.org/2000/svg" xmlns:xlink="http://www.w3.org/1999/xlink">
<g id="graph0" class="graph" transform="scale(1 1) rotate(0) translate(4 375)">
<title>src/core/update_params/update_params.cc</title>
<!-- Node1 -->
<g id="Node000001" class="node">
<title>Node1</title>
<g id="a_Node000001"><a xlink:title=" ">
<polygon fill="#999999" stroke="#666666" points="1628,-371 1494,-371 1494,-341 1628,-341 1628,-371"/>
<text text-anchor="start" x="1502" y="-359" font-family="Helvetica,sans-Serif" font-size="10.00">src/core/update_params</text>
<text text-anchor="middle" x="1561" y="-348" font-family="Helvetica,sans-Serif" font-size="10.00">/update_params.cc</text>
</a>
</g>
</g>
<!-- Node2 -->
<g id="Node000002" class="node">
<title>Node2</title>
<g id="a_Node000002"><a xlink:href="astaroth_8h.html" target="_top" xlink:title=" ">
<polygon fill="white" stroke="#666666" points="772,-305 706,-305 706,-286 772,-286 772,-305"/>
<text text-anchor="middle" x="739" y="-293" font-family="Helvetica,sans-Serif" font-size="10.00">astaroth.h</text>
</a>
</g>
</g>
<!-- Node1&#45;&gt;Node2 -->
<g id="edge1_Node000001_Node000002" class="edge">
<title>Node1&#45;&gt;Node2</title>
<g id="a_edge1_Node000001_Node000002"><a xlink:title=" ">
<path fill="none" stroke="#63b8ff" d="M1493.73,-350.21C1330.59,-338.6 917.39,-309.2 782.4,-299.59"/>
<polygon fill="#63b8ff" stroke="#63b8ff" points="782.28,-296.07 772.05,-298.85 781.78,-303.05 782.28,-296.07"/>
</a>
</g>
</g>
<!-- Node35 -->
<g id="Node000035" class="node">
<title>Node35</title>
<g id="a_Node000035"><a xlink:href="ac__helpers_8h.html" target="_top" xlink:title=" ">
<polygon fill="white" stroke="#666666" points="1462,-129 1384,-129 1384,-110 1462,-110 1462,-129"/>
<text text-anchor="middle" x="1423" y="-117" font-family="Helvetica,sans-Serif" font-size="10.00">ac_helpers.h</text>
</a>
</g>
</g>
<!-- Node1&#45;&gt;Node35 -->
<g id="edge67_Node000001_Node000035" class="edge">
<title>Node1&#45;&gt;Node35</title>
<g id="a_edge67_Node000001_Node000035"><a xlink:title=" ">
<path fill="none" stroke="#63b8ff" d="M1550.86,-340.77C1543.92,-330.88 1534.64,-317.31 1527,-305 1489.76,-244.97 1449.84,-171.13 1432.24,-138.01"/>
<polygon fill="#63b8ff" stroke="#63b8ff" points="1435.29,-136.31 1427.52,-129.11 1429.11,-139.58 1435.29,-136.31"/>
</a>
</g>
</g>
<!-- Node56 -->
<g id="Node000056" class="node">
<title>Node56</title>
<g id="a_Node000056"><a xlink:href="math__utils_8h.html" target="_top" xlink:title="Brief info.">
<polygon fill="white" stroke="#666666" points="1882.5,-189.5 1805.5,-189.5 1805.5,-170.5 1882.5,-170.5 1882.5,-189.5"/>
<text text-anchor="middle" x="1844" y="-177.5" font-family="Helvetica,sans-Serif" font-size="10.00">math_utils.h</text>
</a>
</g>
</g>
<!-- Node1&#45;&gt;Node56 -->
<g id="edge56_Node000001_Node000056" class="edge">
<title>Node1&#45;&gt;Node56</title>
<g id="a_edge56_Node000001_Node000056"><a xlink:title=" ">
<path fill="none" stroke="#63b8ff" d="M1548.71,-340.98C1537.35,-326.24 1523.91,-302.89 1536,-286 1595.46,-202.91 1724.63,-184.82 1795.34,-181.35"/>
<polygon fill="#63b8ff" stroke="#63b8ff" points="1795.48,-184.85 1805.33,-180.94 1795.19,-177.86 1795.48,-184.85"/>
</a>
</g>
</g>
<!-- Node59 -->
<g id="Node000059" class="node">
<title>Node59</title>
<g id="a_Node000059"><a xlink:title=" ">
<polygon fill="#e0e0e0" stroke="#999999" points="1669.5,-305 1544.5,-305 1544.5,-286 1669.5,-286 1669.5,-305"/>
<text text-anchor="middle" x="1607" y="-293" font-family="Helvetica,sans-Serif" font-size="10.00">is_comptime_param.h</text>
</a>
</g>
</g>
<!-- Node1&#45;&gt;Node59 -->
<g id="edge66_Node000001_Node000059" class="edge">
<title>Node1&#45;&gt;Node59</title>
<g id="a_edge66_Node000001_Node000059"><a xlink:title=" ">
<path fill="none" stroke="#63b8ff" d="M1572.14,-340.84C1578.68,-332.52 1586.98,-321.96 1593.84,-313.23"/>
<polygon fill="#63b8ff" stroke="#63b8ff" points="1596.68,-315.29 1600.11,-305.27 1591.17,-310.96 1596.68,-315.29"/>
</a>
</g>
</g>
<!-- Node60 -->
<g id="Node000060" class="node">
<title>Node60</title>
<g id="a_Node000060"><a xlink:title=" ">
<polygon fill="#e0e0e0" stroke="#999999" points="1786.5,-305 1687.5,-305 1687.5,-286 1786.5,-286 1786.5,-305"/>
<text text-anchor="middle" x="1737" y="-293" font-family="Helvetica,sans-Serif" font-size="10.00">user_constants.h</text>
</a>
</g>
</g>
<!-- Node1&#45;&gt;Node60 -->
<g id="edge68_Node000001_Node000060" class="edge">
<title>Node1&#45;&gt;Node60</title>
<g id="a_edge68_Node000001_Node000060"><a xlink:title=" ">
<path fill="none" stroke="#63b8ff" d="M1603.16,-340.99C1633.27,-330.98 1673.31,-317.67 1701.73,-308.22"/>
<polygon fill="#63b8ff" stroke="#63b8ff" points="1702.88,-311.53 1711.27,-305.05 1700.67,-304.89 1702.88,-311.53"/>
</a>
</g>
</g>
<!-- Node61 -->
<g id="Node000061" class="node">
<title>Node61</title>
<g id="a_Node000061"><a xlink:title=" ">
<polygon fill="#e0e0e0" stroke="#999999" points="1921,-305 1805,-305 1805,-286 1921,-286 1921,-305"/>
<text text-anchor="middle" x="1863" y="-293" font-family="Helvetica,sans-Serif" font-size="10.00">user_config_loader.h</text>
</a>
</g>
</g>
<!-- Node1&#45;&gt;Node61 -->
<g id="edge69_Node000001_Node000061" class="edge">
<title>Node1&#45;&gt;Node61</title>
<g id="a_edge69_Node000001_Node000061"><a xlink:title=" ">
<path fill="none" stroke="#63b8ff" d="M1628.02,-342.02C1682.49,-331.47 1758.32,-316.78 1808.95,-306.97"/>
<polygon fill="#63b8ff" stroke="#63b8ff" points="1809.89,-310.35 1819.04,-305.02 1808.56,-303.48 1809.89,-310.35"/>
</a>
</g>
</g>
<!-- Node3 -->
<g id="Node000003" class="node">
<title>Node3</title>
<g id="a_Node000003"><a xlink:href="astaroth__base_8h.html" target="_top" xlink:title=" ">
<polygon fill="white" stroke="#666666" points="505.5,-250 410.5,-250 410.5,-231 505.5,-231 505.5,-250"/>
<text text-anchor="middle" x="458" y="-238" font-family="Helvetica,sans-Serif" font-size="10.00">astaroth_base.h</text>
</a>
</g>
</g>
<!-- Node2&#45;&gt;Node3 -->
<g id="edge2_Node000002_Node000003" class="edge">
<title>Node2&#45;&gt;Node3</title>
<g id="a_edge2_Node000002_Node000003"><a xlink:title=" ">
<path fill="none" stroke="#63b8ff" d="M705.94,-288.26C658.59,-279.33 570.84,-262.78 513.45,-251.96"/>
<polygon fill="#63b8ff" stroke="#63b8ff" points="513.93,-248.49 503.46,-250.07 512.64,-255.37 513.93,-248.49"/>
</a>
</g>
</g>
<!-- Node44 -->
<g id="Node000044" class="node">
<title>Node44</title>
<g id="a_Node000044"><a xlink:href="astaroth__grid_8h.html" target="_top" xlink:title=" ">
<polygon fill="white" stroke="#666666" points="614,-250 524,-250 524,-231 614,-231 614,-250"/>
<text text-anchor="middle" x="569" y="-238" font-family="Helvetica,sans-Serif" font-size="10.00">astaroth_grid.h</text>
</a>
</g>
</g>
<!-- Node2&#45;&gt;Node44 -->
<g id="edge44_Node000002_Node000044" class="edge">
<title>Node2&#45;&gt;Node44</title>
<g id="a_edge44_Node000002_Node000044"><a xlink:title=" ">
<path fill="none" stroke="#63b8ff" d="M711.69,-285.98C683.15,-277.09 638.17,-263.07 606.36,-253.15"/>
<polygon fill="#63b8ff" stroke="#63b8ff" points="607.12,-249.72 596.53,-250.08 605.03,-256.4 607.12,-249.72"/>
</a>
</g>
</g>
<!-- Node45 -->
<g id="Node000045" class="node">
<title>Node45</title>
<g id="a_Node000045"><a xlink:href="astaroth__node_8h.html" target="_top" xlink:title=" ">
<polygon fill="white" stroke="#666666" points="727.5,-250 632.5,-250 632.5,-231 727.5,-231 727.5,-250"/>
<text text-anchor="middle" x="680" y="-238" font-family="Helvetica,sans-Serif" font-size="10.00">astaroth_node.h</text>
</a>
</g>
</g>
<!-- Node2&#45;&gt;Node45 -->
<g id="edge45_Node000002_Node000045" class="edge">
<title>Node2&#45;&gt;Node45</title>
<g id="a_edge45_Node000002_Node000045"><a xlink:title=" ">
<path fill="none" stroke="#63b8ff" d="M729.52,-285.98C720.8,-278.15 707.66,-266.34 697.1,-256.86"/>
<polygon fill="#63b8ff" stroke="#63b8ff" points="699.43,-254.25 689.65,-250.17 694.75,-259.46 699.43,-254.25"/>
</a>
</g>
</g>
<!-- Node46 -->
<g id="Node000046" class="node">
<title>Node46</title>
<g id="a_Node000046"><a xlink:href="astaroth__device_8h.html" target="_top" xlink:title=" ">
<polygon fill="white" stroke="#666666" points="850,-250 746,-250 746,-231 850,-231 850,-250"/>
<text text-anchor="middle" x="798" y="-238" font-family="Helvetica,sans-Serif" font-size="10.00">astaroth_device.h</text>
</a>
</g>
</g>
<!-- Node2&#45;&gt;Node46 -->
<g id="edge46_Node000002_Node000046" class="edge">
<title>Node2&#45;&gt;Node46</title>
<g id="a_edge46_Node000002_Node000046"><a xlink:title=" ">
<path fill="none" stroke="#63b8ff" d="M748.48,-285.98C757.2,-278.15 770.34,-266.34 780.9,-256.86"/>
<polygon fill="#63b8ff" stroke="#63b8ff" points="783.25,-259.46 788.35,-250.17 778.57,-254.25 783.25,-259.46"/>
</a>
</g>
</g>
<!-- Node49 -->
<g id="Node000049" class="node">
<title>Node49</title>
<g id="a_Node000049"><a xlink:href="astaroth__legacy_8h.html" target="_top" xlink:title=" ">
<polygon fill="white" stroke="#666666" points="970,-250 868,-250 868,-231 970,-231 970,-250"/>
<text text-anchor="middle" x="919" y="-238" font-family="Helvetica,sans-Serif" font-size="10.00">astaroth_legacy.h</text>
</a>
</g>
</g>
<!-- Node2&#45;&gt;Node49 -->
<g id="edge49_Node000002_Node000049" class="edge">
<title>Node2&#45;&gt;Node49</title>
<g id="a_edge49_Node000002_Node000049"><a xlink:title=" ">
<path fill="none" stroke="#63b8ff" d="M767.92,-285.98C798.27,-277.05 846.17,-262.94 879.88,-253.02"/>
<polygon fill="#63b8ff" stroke="#63b8ff" points="881.25,-256.26 889.85,-250.08 879.27,-249.55 881.25,-256.26"/>
</a>
</g>
</g>
<!-- Node50 -->
<g id="Node000050" class="node">
<title>Node50</title>
<g id="a_Node000050"><a xlink:title=" ">
<polygon fill="#e0e0e0" stroke="#999999" points="1127.5,-250 988.5,-250 988.5,-231 1127.5,-231 1127.5,-250"/>
<text text-anchor="middle" x="1058" y="-238" font-family="Helvetica,sans-Serif" font-size="10.00">device_set_input_decls.h</text>
</a>
</g>
</g>
<!-- Node2&#45;&gt;Node50 -->
<g id="edge50_Node000002_Node000050" class="edge">
<title>Node2&#45;&gt;Node50</title>
<g id="a_edge50_Node000002_Node000050"><a xlink:title=" ">
<path fill="none" stroke="#63b8ff" d="M772.24,-288.98C825.29,-280.16 929.92,-262.78 996.78,-251.67"/>
<polygon fill="#63b8ff" stroke="#63b8ff" points="997.48,-255.1 1006.77,-250.01 996.33,-248.2 997.48,-255.1"/>
</a>
</g>
</g>
<!-- Node51 -->
<g id="Node000051" class="node">
<title>Node51</title>
<g id="a_Node000051"><a xlink:title=" ">
<polygon fill="#e0e0e0" stroke="#999999" points="1292,-250 1146,-250 1146,-231 1292,-231 1292,-250"/>
<text text-anchor="middle" x="1219" y="-238" font-family="Helvetica,sans-Serif" font-size="10.00">device_get_output_decls.h</text>
</a>
</g>
</g>
<!-- Node2&#45;&gt;Node51 -->
<g id="edge51_Node000002_Node000051" class="edge">
<title>Node2&#45;&gt;Node51</title>
<g id="a_edge51_Node000002_Node000051"><a xlink:title=" ">
<path fill="none" stroke="#63b8ff" d="M772.37,-290.82C846.83,-282.59 1028.38,-262.55 1135.69,-250.7"/>
<polygon fill="#63b8ff" stroke="#63b8ff" points="1136.28,-254.15 1145.84,-249.58 1135.51,-247.2 1136.28,-254.15"/>
</a>
</g>
</g>
<!-- Node52 -->
<g id="Node000052" class="node">
<title>Node52</title>
<g id="a_Node000052"><a xlink:title=" ">
<polygon fill="#e0e0e0" stroke="#999999" points="1450,-250 1310,-250 1310,-231 1450,-231 1450,-250"/>
<text text-anchor="middle" x="1380" y="-238" font-family="Helvetica,sans-Serif" font-size="10.00">device_get_input_decls.h</text>
</a>
</g>
</g>
<!-- Node2&#45;&gt;Node52 -->
<g id="edge52_Node000002_Node000052" class="edge">
<title>Node2&#45;&gt;Node52</title>
<g id="a_edge52_Node000002_Node000052"><a xlink:title=" ">
<path fill="none" stroke="#63b8ff" d="M772.28,-292.19C857.86,-286.19 1092.76,-269.28 1299.66,-250.1"/>
<polygon fill="#63b8ff" stroke="#63b8ff" points="1300.17,-253.57 1309.8,-249.16 1299.52,-246.6 1300.17,-253.57"/>
</a>
</g>
</g>
<!-- Node53 -->
<g id="Node000053" class="node">
<title>Node53</title>
<g id="a_Node000053"><a xlink:title=" ">
<polygon fill="#e0e0e0" stroke="#999999" points="130,-250 0,-250 0,-231 130,-231 130,-250"/>
<text text-anchor="middle" x="65" y="-238" font-family="Helvetica,sans-Serif" font-size="10.00">get_vtxbufs_declares.h</text>
</a>
</g>
</g>
<!-- Node2&#45;&gt;Node53 -->
<g id="edge53_Node000002_Node000053" class="edge">
<title>Node2&#45;&gt;Node53</title>
<g id="a_edge53_Node000002_Node000053"><a xlink:title=" ">
<path fill="none" stroke="#63b8ff" d="M705.79,-292.51C616.33,-287.04 362.62,-270.89 140.57,-250.11"/>
<polygon fill="#63b8ff" stroke="#63b8ff" points="140.64,-246.6 130.36,-249.15 139.98,-253.57 140.64,-246.6"/>
</a>
</g>
</g>
<!-- Node54 -->
<g id="Node000054" class="node">
<title>Node54</title>
<g id="a_Node000054"><a xlink:href="astaroth__runtime__compilation_8h.html" target="_top" xlink:title=" ">
<polygon fill="white" stroke="#666666" points="321.5,-250 148.5,-250 148.5,-231 321.5,-231 321.5,-250"/>
<text text-anchor="middle" x="235" y="-238" font-family="Helvetica,sans-Serif" font-size="10.00">astaroth_runtime_compilation.h</text>
</a>
</g>
</g>
<!-- Node2&#45;&gt;Node54 -->
<g id="edge54_Node000002_Node000054" class="edge">
<title>Node2&#45;&gt;Node54</title>
<g id="a_edge54_Node000002_Node000054"><a xlink:title=" ">
<path fill="none" stroke="#63b8ff" d="M705.93,-291.02C629.83,-283.02 440.08,-263.07 326.02,-251.07"/>
<polygon fill="#63b8ff" stroke="#63b8ff" points="326.22,-247.57 315.91,-250.01 325.49,-254.53 326.22,-247.57"/>
</a>
</g>
</g>
<!-- Node55 -->
<g id="Node000055" class="node">
<title>Node55</title>
<g id="a_Node000055"><a xlink:title=" ">
<polygon fill="#e0e0e0" stroke="#999999" points="392.5,-250 339.5,-250 339.5,-231 392.5,-231 392.5,-250"/>
<text text-anchor="middle" x="366" y="-238" font-family="Helvetica,sans-Serif" font-size="10.00">string.h</text>
</a>
</g>
</g>
<!-- Node2&#45;&gt;Node55 -->
<g id="edge55_Node000002_Node000055" class="edge">
<title>Node2&#45;&gt;Node55</title>
<g id="a_edge55_Node000002_Node000055"><a xlink:title=" ">
<path fill="none" stroke="#63b8ff" d="M705.71,-291.32C646.61,-285.4 519.31,-271.51 402.84,-250.18"/>
<polygon fill="#63b8ff" stroke="#63b8ff" points="403.16,-246.68 392.69,-248.29 401.88,-253.56 403.16,-246.68"/>
</a>
</g>
</g>
<!-- Node4 -->
<g id="Node000004" class="node">
<title>Node4</title>
<g id="a_Node000004"><a xlink:title=" ">
<polygon fill="#e0e0e0" stroke="#999999" points="587,-74 525,-74 525,-55 587,-55 587,-74"/>
<text text-anchor="middle" x="556" y="-62" font-family="Helvetica,sans-Serif" font-size="10.00">stdbool.h</text>
</a>
</g>
</g>
<!-- Node3&#45;&gt;Node4 -->
<g id="edge3_Node000003_Node000004" class="edge">
<title>Node3&#45;&gt;Node4</title>
<g id="a_edge3_Node000003_Node000004"><a xlink:title=" ">
<path fill="none" stroke="#63b8ff" d="M425.08,-230.92C361.07,-212.73 230.24,-167.22 279,-110 308.75,-75.09 444.64,-67.46 514.41,-65.87"/>
<polygon fill="#63b8ff" stroke="#63b8ff" points="514.67,-69.36 524.6,-65.67 514.54,-62.36 514.67,-69.36"/>
</a>
</g>
</g>
<!-- Node5 -->
<g id="Node000005" class="node">
<title>Node5</title>
<g id="a_Node000005"><a xlink:href="acc__runtime_8h.html" target="_top" xlink:title=" ">
<polygon fill="#fff0f0" stroke="red" points="955,-189.5 869,-189.5 869,-170.5 955,-170.5 955,-189.5"/>
<text text-anchor="middle" x="912" y="-177.5" font-family="Helvetica,sans-Serif" font-size="10.00">acc_runtime.h</text>
</a>
</g>
</g>
<!-- Node3&#45;&gt;Node5 -->
<g id="edge4_Node000003_Node000005" class="edge">
<title>Node3&#45;&gt;Node5</title>
<g id="a_edge4_Node000003_Node000005"><a xlink:title=" ">
<path fill="none" stroke="#63b8ff" d="M505.57,-232.32C508.76,-231.87 511.93,-231.42 515,-231 637.75,-214.12 782.17,-196.49 858.47,-187.35"/>
<polygon fill="#63b8ff" stroke="#63b8ff" points="859.27,-190.78 868.78,-186.12 858.43,-183.83 859.27,-190.78"/>
</a>
</g>
</g>
<!-- Node25 -->
<g id="Node000025" class="node">
<title>Node25</title>
<g id="a_Node000025"><a xlink:title=" ">
<polygon fill="#e0e0e0" stroke="#999999" points="527.5,-129 388.5,-129 388.5,-110 527.5,-110 527.5,-129"/>
<text text-anchor="middle" x="458" y="-117" font-family="Helvetica,sans-Serif" font-size="10.00">user_built&#45;in_constants.h</text>
</a>
</g>
</g>
<!-- Node3&#45;&gt;Node25 -->
<g id="edge42_Node000003_Node000025" class="edge">
<title>Node3&#45;&gt;Node25</title>
<g id="a_edge42_Node000003_Node000025"><a xlink:title=" ">
<path fill="none" stroke="#63b8ff" d="M458,-230.94C458,-211.91 458,-165.69 458,-139.47"/>
<polygon fill="#63b8ff" stroke="#63b8ff" points="461.5,-139.3 458,-129.3 454.5,-139.3 461.5,-139.3"/>
</a>
</g>
</g>
<!-- Node39 -->
<g id="Node000039" class="node">
<title>Node39</title>
<g id="a_Node000039"><a xlink:href="func__define_8h.html" target="_top" xlink:title=" ">
<polygon fill="white" stroke="#666666" points="370,-129 288,-129 288,-110 370,-110 370,-129"/>
<text text-anchor="middle" x="329" y="-117" font-family="Helvetica,sans-Serif" font-size="10.00">func_define.h</text>
</a>
</g>
</g>
<!-- Node3&#45;&gt;Node39 -->
<g id="edge41_Node000003_Node000039" class="edge">
<title>Node3&#45;&gt;Node39</title>
<g id="a_edge41_Node000003_Node000039"><a xlink:title=" ">
<path fill="none" stroke="#63b8ff" d="M448.72,-230.94C427.26,-211.14 373.89,-161.91 346.24,-136.4"/>
<polygon fill="#63b8ff" stroke="#63b8ff" points="348.26,-133.51 338.54,-129.3 343.52,-138.65 348.26,-133.51"/>
</a>
</g>
</g>
<!-- Node43 -->
<g id="Node000043" class="node">
<title>Node43</title>
<g id="a_Node000043"><a xlink:title=" ">
<polygon fill="#e0e0e0" stroke="#999999" points="231.5,-195 100.5,-195 100.5,-165 231.5,-165 231.5,-195"/>
<text text-anchor="start" x="108.5" y="-183" font-family="Helvetica,sans-Serif" font-size="10.00">user_builtin_non_scalar</text>
<text text-anchor="middle" x="166" y="-172" font-family="Helvetica,sans-Serif" font-size="10.00">_constants.h</text>
</a>
</g>
</g>
<!-- Node3&#45;&gt;Node43 -->
<g id="edge43_Node000003_Node000043" class="edge">
<title>Node3&#45;&gt;Node43</title>
<g id="a_edge43_Node000003_Node000043"><a xlink:title=" ">
<path fill="none" stroke="#63b8ff" d="M415.54,-230.99C370.12,-221.89 297.17,-207.28 241.84,-196.19"/>
<polygon fill="#63b8ff" stroke="#63b8ff" points="242.22,-192.7 231.73,-194.17 240.85,-199.56 242.22,-192.7"/>
</a>
</g>
</g>
<!-- Node5&#45;&gt;Node4 -->
<g id="edge6_Node000005_Node000004" class="edge">
<title>Node5&#45;&gt;Node4</title>
<g id="a_edge6_Node000005_Node000004"><a xlink:title=" ">
<path fill="none" stroke="#63b8ff" d="M868.97,-178.2C788.22,-175.83 618.2,-166.41 575,-129 562.23,-117.94 557.86,-98.69 556.45,-84.28"/>
<polygon fill="#63b8ff" stroke="#63b8ff" points="559.93,-83.78 555.86,-74 552.94,-84.19 559.93,-83.78"/>
</a>
</g>
</g>
<!-- Node6 -->
<g id="Node000006" class="node">
<title>Node6</title>
<g id="a_Node000006"><a xlink:title=" ">
<polygon fill="#e0e0e0" stroke="#999999" points="1097,-74 1047,-74 1047,-55 1097,-55 1097,-74"/>
<text text-anchor="middle" x="1072" y="-62" font-family="Helvetica,sans-Serif" font-size="10.00">stdio.h</text>
</a>
</g>
</g>
<!-- Node5&#45;&gt;Node6 -->
<g id="edge5_Node000005_Node000006" class="edge">
<title>Node5&#45;&gt;Node6</title>
<g id="a_edge5_Node000005_Node000006"><a xlink:title=" ">
<path fill="none" stroke="#63b8ff" d="M941.57,-170.45C948.86,-168.51 956.68,-166.56 964,-165 1014.39,-154.29 1159.52,-168.15 1193,-129 1198.49,-122.58 1197.83,-116.93 1193,-110 1187.81,-102.57 1140.73,-86.72 1106.86,-76.08"/>
<polygon fill="#63b8ff" stroke="#63b8ff" points="1107.85,-72.73 1097.27,-73.1 1105.78,-79.41 1107.85,-72.73"/>
</a>
</g>
</g>
<!-- Node7 -->
<g id="Node000007" class="node">
<title>Node7</title>
<g id="a_Node000007"><a xlink:href="device__headers_8h.html" target="_top" xlink:title=" ">
<polygon fill="#fff0f0" stroke="red" points="1217,-74 1115,-74 1115,-55 1217,-55 1217,-74"/>
<text text-anchor="middle" x="1166" y="-62" font-family="Helvetica,sans-Serif" font-size="10.00">device_headers.h</text>
</a>
</g>
</g>
<!-- Node5&#45;&gt;Node7 -->
<g id="edge7_Node000005_Node000007" class="edge">
<title>Node5&#45;&gt;Node7</title>
<g id="a_edge7_Node000005_Node000007"><a xlink:title=" ">
<path fill="none" stroke="#63b8ff" d="M941.28,-170.48C948.66,-168.51 956.59,-166.54 964,-165 1017.66,-153.86 1172.18,-170.49 1208,-129 1221.24,-113.66 1203.57,-93.93 1187.25,-80.56"/>
<polygon fill="#63b8ff" stroke="#63b8ff" points="1189.07,-77.54 1179.02,-74.21 1184.8,-83.08 1189.07,-77.54"/>
</a>
</g>
</g>
<!-- Node10 -->
<g id="Node000010" class="node">
<title>Node10</title>
<g id="a_Node000010"><a xlink:title=" ">
<polygon fill="#e0e0e0" stroke="#999999" points="940.5,-74 845.5,-74 845.5,-55 940.5,-55 940.5,-74"/>
<text text-anchor="middle" x="893" y="-62" font-family="Helvetica,sans-Serif" font-size="10.00">builtin_enums.h</text>
</a>
</g>
</g>
<!-- Node5&#45;&gt;Node10 -->
<g id="edge9_Node000005_Node000010" class="edge">
<title>Node5&#45;&gt;Node10</title>
<g id="a_edge9_Node000005_Node000010"><a xlink:title=" ">
<path fill="none" stroke="#63b8ff" d="M898.16,-170.24C885.79,-161.5 868.49,-146.83 861,-129 854.1,-112.57 865.16,-94.47 876.12,-81.82"/>
<polygon fill="#63b8ff" stroke="#63b8ff" points="878.82,-84.05 883.11,-74.36 873.72,-79.26 878.82,-84.05"/>
</a>
</g>
</g>
<!-- Node11 -->
<g id="Node000011" class="node">
<title>Node11</title>
<g id="a_Node000011"><a xlink:href="datatypes_8h.html" target="_top" xlink:title=" ">
<polygon fill="white" stroke="#666666" points="1554,-129 1480,-129 1480,-110 1554,-110 1554,-129"/>
<text text-anchor="middle" x="1517" y="-117" font-family="Helvetica,sans-Serif" font-size="10.00">datatypes.h</text>
</a>
</g>
</g>
<!-- Node5&#45;&gt;Node11 -->
<g id="edge10_Node000005_Node000011" class="edge">
<title>Node5&#45;&gt;Node11</title>
<g id="a_edge10_Node000005_Node000011"><a xlink:title=" ">
<path fill="none" stroke="#63b8ff" d="M939.85,-170.45C947.6,-168.35 956.07,-166.34 964,-165 1183.5,-128.01 1245.12,-156.7 1469.77,-129"/>
<polygon fill="#63b8ff" stroke="#63b8ff" points="1470.41,-132.44 1479.9,-127.72 1469.54,-125.5 1470.41,-132.44"/>
</a>
</g>
</g>
<!-- Node19 -->
<g id="Node000019" class="node">
<title>Node19</title>
<g id="a_Node000019"><a xlink:href="errchk_8h.html" target="_top" xlink:title="Brief info.">
<polygon fill="white" stroke="#666666" points="1662,-129 1606,-129 1606,-110 1662,-110 1662,-129"/>
<text text-anchor="middle" x="1634" y="-117" font-family="Helvetica,sans-Serif" font-size="10.00">errchk.h</text>
</a>
</g>
</g>
<!-- Node5&#45;&gt;Node19 -->
<g id="edge22_Node000005_Node000019" class="edge">
<title>Node5&#45;&gt;Node19</title>
<g id="a_edge22_Node000005_Node000019"><a xlink:title=" ">
<path fill="none" stroke="#63b8ff" d="M939.57,-170.46C947.39,-168.34 955.97,-166.31 964,-165 1227.23,-122.11 1297.37,-152.86 1563,-129 1573.57,-128.05 1585,-126.79 1595.54,-125.53"/>
<polygon fill="#63b8ff" stroke="#63b8ff" points="1596.21,-128.97 1605.71,-124.28 1595.36,-122.02 1596.21,-128.97"/>
</a>
</g>
</g>
<!-- Node23 -->
<g id="Node000023" class="node">
<title>Node23</title>
<g id="a_Node000023"><a xlink:title=" ">
<polygon fill="#e0e0e0" stroke="#999999" points="1365.5,-129 1278.5,-129 1278.5,-110 1365.5,-110 1365.5,-129"/>
<text text-anchor="middle" x="1322" y="-117" font-family="Helvetica,sans-Serif" font-size="10.00">user_defines.h</text>
</a>
</g>
</g>
<!-- Node5&#45;&gt;Node23 -->
<g id="edge31_Node000005_Node000023" class="edge">
<title>Node5&#45;&gt;Node23</title>
<g id="a_edge31_Node000005_Node000023"><a xlink:title=" ">
<path fill="none" stroke="#63b8ff" d="M940.71,-170.48C948.24,-168.46 956.38,-166.47 964,-165 1095.84,-139.48 1130.89,-146.74 1264,-129 1265.45,-128.81 1266.92,-128.61 1268.4,-128.41"/>
<polygon fill="#63b8ff" stroke="#63b8ff" points="1268.89,-131.87 1278.31,-127.03 1267.93,-124.94 1268.89,-131.87"/>
</a>
</g>
</g>
<!-- Node24 -->
<g id="Node000024" class="node">
<title>Node24</title>
<g id="a_Node000024"><a xlink:title=" ">
<polygon fill="#e0e0e0" stroke="#999999" points="670,-129 584,-129 584,-110 670,-110 670,-129"/>
<text text-anchor="middle" x="627" y="-117" font-family="Helvetica,sans-Serif" font-size="10.00">profiles_info.h</text>
</a>
</g>
</g>
<!-- Node5&#45;&gt;Node24 -->
<g id="edge32_Node000005_Node000024" class="edge">
<title>Node5&#45;&gt;Node24</title>
<g id="a_edge32_Node000005_Node000024"><a xlink:title=" ">
<path fill="none" stroke="#63b8ff" d="M870.56,-170.49C819.69,-160.05 733.43,-142.35 678.39,-131.05"/>
<polygon fill="#63b8ff" stroke="#63b8ff" points="678.99,-127.6 668.49,-129.02 677.58,-134.46 678.99,-127.6"/>
</a>
</g>
</g>
<!-- Node5&#45;&gt;Node25 -->
<g id="edge33_Node000005_Node000025" class="edge">
<title>Node5&#45;&gt;Node25</title>
<g id="a_edge33_Node000005_Node000025"><a xlink:title=" ">
<path fill="none" stroke="#63b8ff" d="M868.88,-173.44C791.92,-163.53 630,-142.66 534.01,-130.29"/>
<polygon fill="#63b8ff" stroke="#63b8ff" points="534.43,-126.82 524.07,-129.01 533.54,-133.76 534.43,-126.82"/>
</a>
</g>
</g>
<!-- Node26 -->
<g id="Node000026" class="node">
<title>Node26</title>
<g id="a_Node000026"><a xlink:href="func__attributes_8h.html" target="_top" xlink:title=" ">
<polygon fill="white" stroke="#666666" points="2092.5,-74 1993.5,-74 1993.5,-55 2092.5,-55 2092.5,-74"/>
<text text-anchor="middle" x="2043" y="-62" font-family="Helvetica,sans-Serif" font-size="10.00">func_attributes.h</text>
</a>
</g>
</g>
<!-- Node5&#45;&gt;Node26 -->
<g id="edge34_Node000005_Node000026" class="edge">
<title>Node5&#45;&gt;Node26</title>
<g id="a_edge34_Node000005_Node000026"><a xlink:title=" ">
<path fill="none" stroke="#63b8ff" d="M939.29,-170.49C947.19,-168.34 955.87,-166.29 964,-165 1274.76,-115.83 1358.27,-163.53 1671,-129 1786.76,-116.22 1921.12,-90.57 1992.43,-76.09"/>
<polygon fill="#63b8ff" stroke="#63b8ff" points="1993.39,-79.46 2002.49,-74.03 1991.99,-72.61 1993.39,-79.46"/>
</a>
</g>
</g>
<!-- Node27 -->
<g id="Node000027" class="node">
<title>Node27</title>
<g id="a_Node000027"><a xlink:title=" ">
<polygon fill="#e0e0e0" stroke="#999999" points="813.5,-129 688.5,-129 688.5,-110 813.5,-110 813.5,-129"/>
<text text-anchor="middle" x="751" y="-117" font-family="Helvetica,sans-Serif" font-size="10.00">user_input_typedefs.h</text>
</a>
</g>
</g>
<!-- Node5&#45;&gt;Node27 -->
<g id="edge35_Node000005_Node000027" class="edge">
<title>Node5&#45;&gt;Node27</title>
<g id="a_edge35_Node000005_Node000027"><a xlink:title=" ">
<path fill="none" stroke="#63b8ff" d="M888.59,-170.49C861.05,-160.49 815.13,-143.8 783.99,-132.49"/>
<polygon fill="#63b8ff" stroke="#63b8ff" points="785.03,-129.14 774.44,-129.02 782.64,-135.72 785.03,-129.14"/>
</a>
</g>
</g>
<!-- Node28 -->
<g id="Node000028" class="node">
<title>Node28</title>
<g id="a_Node000028"><a xlink:title=" ">
<polygon fill="#e0e0e0" stroke="#999999" points="953.5,-129 870.5,-129 870.5,-110 953.5,-110 953.5,-129"/>
<text text-anchor="middle" x="912" y="-117" font-family="Helvetica,sans-Serif" font-size="10.00">output_decl.h</text>
</a>
</g>
</g>
<!-- Node5&#45;&gt;Node28 -->
<g id="edge36_Node000005_Node000028" class="edge">
<title>Node5&#45;&gt;Node28</title>
<g id="a_edge36_Node000005_Node000028"><a xlink:title=" ">
<path fill="none" stroke="#63b8ff" d="M912,-170.37C912,-162.25 912,-149.81 912,-139.39"/>
<polygon fill="#63b8ff" stroke="#63b8ff" points="915.5,-139.17 912,-129.17 908.5,-139.17 915.5,-139.17"/>
</a>
</g>
</g>
<!-- Node29 -->
<g id="Node000029" class="node">
<title>Node29</title>
<g id="a_Node000029"><a xlink:title=" ">
<polygon fill="#e0e0e0" stroke="#999999" points="1088,-129 972,-129 972,-110 1088,-110 1088,-129"/>
<text text-anchor="middle" x="1030" y="-117" font-family="Helvetica,sans-Serif" font-size="10.00">comp_loaded_decl.h</text>
</a>
</g>
</g>
<!-- Node5&#45;&gt;Node29 -->
<g id="edge37_Node000005_Node000029" class="edge">
<title>Node5&#45;&gt;Node29</title>
<g id="a_edge37_Node000005_Node000029"><a xlink:title=" ">
<path fill="none" stroke="#63b8ff" d="M929.16,-170.49C948.73,-160.79 980.97,-144.81 1003.72,-133.53"/>
<polygon fill="#63b8ff" stroke="#63b8ff" points="1005.42,-136.59 1012.82,-129.02 1002.31,-130.32 1005.42,-136.59"/>
</a>
</g>
</g>
<!-- Node30 -->
<g id="Node000030" class="node">
<title>Node30</title>
<g id="a_Node000030"><a xlink:title=" ">
<polygon fill="#e0e0e0" stroke="#999999" points="1184,-129 1106,-129 1106,-110 1184,-110 1184,-129"/>
<text text-anchor="middle" x="1145" y="-117" font-family="Helvetica,sans-Serif" font-size="10.00">comp_decl.h</text>
</a>
</g>
</g>
<!-- Node5&#45;&gt;Node30 -->
<g id="edge38_Node000005_Node000030" class="edge">
<title>Node5&#45;&gt;Node30</title>
<g id="a_edge38_Node000005_Node000030"><a xlink:title=" ">
<path fill="none" stroke="#63b8ff" d="M943.32,-170.45C950.13,-168.62 957.3,-166.73 964,-165 1009.97,-153.16 1062.7,-140.28 1099.34,-131.43"/>
<polygon fill="#63b8ff" stroke="#63b8ff" points="1100.32,-134.8 1109.23,-129.05 1098.68,-127.99 1100.32,-134.8"/>
</a>
</g>
</g>
<!-- Node5&#45;&gt;Node35 -->
<g id="edge39_Node000005_Node000035" class="edge">
<title>Node5&#45;&gt;Node35</title>
<g id="a_edge39_Node000005_Node000035"><a xlink:title=" ">
<path fill="none" stroke="#63b8ff" d="M940.13,-170.46C947.81,-168.39 956.17,-166.39 964,-165 1141.39,-133.6 1191.46,-152.32 1373.83,-129.03"/>
<polygon fill="#63b8ff" stroke="#63b8ff" points="1374.29,-132.5 1383.75,-127.74 1373.38,-125.56 1374.29,-132.5"/>
</a>
</g>
</g>
<!-- Node5&#45;&gt;Node39 -->
<g id="edge40_Node000005_Node000039" class="edge">
<title>Node5&#45;&gt;Node39</title>
<g id="a_edge40_Node000005_Node000039"><a xlink:title=" ">
<path fill="none" stroke="#63b8ff" d="M868.7,-176.04C779.35,-169.7 567.9,-153.46 380.21,-129.07"/>
<polygon fill="#63b8ff" stroke="#63b8ff" points="380.53,-125.58 370.16,-127.75 379.62,-132.52 380.53,-125.58"/>
</a>
</g>
</g>
<!-- Node8 -->
<g id="Node000008" class="node">
<title>Node8</title>
<g id="a_Node000008"><a xlink:title=" ">
<polygon fill="#e0e0e0" stroke="#999999" points="1149.5,-19 1036.5,-19 1036.5,0 1149.5,0 1149.5,-19"/>
<text text-anchor="middle" x="1093" y="-7" font-family="Helvetica,sans-Serif" font-size="10.00">cuda_runtime_api.h</text>
</a>
</g>
</g>
<!-- Node7&#45;&gt;Node8 -->
<g id="edge8_Node000007_Node000008" class="edge">
<title>Node7&#45;&gt;Node8</title>
<g id="a_edge8_Node000007_Node000008"><a xlink:title=" ">
<path fill="none" stroke="#63b8ff" d="M1154.27,-54.98C1143.27,-47 1126.58,-34.88 1113.4,-25.31"/>
<polygon fill="#63b8ff" stroke="#63b8ff" points="1115.09,-22.21 1104.94,-19.17 1110.98,-27.88 1115.09,-22.21"/>
</a>
</g>
</g>
<!-- Node11&#45;&gt;Node7 -->
<g id="edge13_Node000011_Node000007" class="edge">
<title>Node11&#45;&gt;Node7</title>
<g id="a_edge13_Node000011_Node000007"><a xlink:title=" ">
<path fill="none" stroke="#63b8ff" d="M1479.86,-111.51C1476.87,-110.99 1473.88,-110.48 1471,-110 1386.61,-96.05 1288.69,-82.17 1227.04,-73.71"/>
<polygon fill="#63b8ff" stroke="#63b8ff" points="1227.47,-70.24 1217.09,-72.35 1226.52,-77.18 1227.47,-70.24"/>
</a>
</g>
</g>
<!-- Node11&#45;&gt;Node8 -->
<g id="edge15_Node000011_Node000008" class="edge">
<title>Node11&#45;&gt;Node8</title>
<g id="a_edge15_Node000011_Node000008"><a xlink:title=" ">
<path fill="none" stroke="#63b8ff" d="M1479.89,-111.31C1476.89,-110.83 1473.9,-110.39 1471,-110 1423.15,-103.61 1070.69,-109.52 1038,-74 1022.53,-57.19 1046.58,-37.18 1067.58,-24.18"/>
<polygon fill="#63b8ff" stroke="#63b8ff" points="1069.42,-27.15 1076.27,-19.06 1065.87,-21.12 1069.42,-27.15"/>
</a>
</g>
</g>
<!-- Node11&#45;&gt;Node10 -->
<g id="edge17_Node000011_Node000010" class="edge">
<title>Node11&#45;&gt;Node10</title>
<g id="a_edge17_Node000011_Node000010"><a xlink:title=" ">
<path fill="none" stroke="#63b8ff" d="M1479.9,-111.3C1476.89,-110.82 1473.9,-110.38 1471,-110 1464.59,-109.16 1095.78,-80.98 950.71,-69.9"/>
<polygon fill="#63b8ff" stroke="#63b8ff" points="950.9,-66.41 940.66,-69.14 950.37,-73.39 950.9,-66.41"/>
</a>
</g>
</g>
<!-- Node12 -->
<g id="Node000012" class="node">
<title>Node12</title>
<g id="a_Node000012"><a xlink:title=" ">
<polygon fill="#e0e0e0" stroke="#999999" points="1540.5,-74 1493.5,-74 1493.5,-55 1540.5,-55 1540.5,-74"/>
<text text-anchor="middle" x="1517" y="-62" font-family="Helvetica,sans-Serif" font-size="10.00">float.h</text>
</a>
</g>
</g>
<!-- Node11&#45;&gt;Node12 -->
<g id="edge11_Node000011_Node000012" class="edge">
<title>Node11&#45;&gt;Node12</title>
<g id="a_edge11_Node000011_Node000012"><a xlink:title=" ">
<path fill="none" stroke="#63b8ff" d="M1517,-109.75C1517,-102.8 1517,-92.85 1517,-84.13"/>
<polygon fill="#63b8ff" stroke="#63b8ff" points="1520.5,-84.09 1517,-74.09 1513.5,-84.09 1520.5,-84.09"/>
</a>
</g>
</g>
<!-- Node13 -->
<g id="Node000013" class="node">
<title>Node13</title>
<g id="a_Node000013"><a xlink:title=" ">
<polygon fill="#e0e0e0" stroke="#999999" points="1833.5,-74 1782.5,-74 1782.5,-55 1833.5,-55 1833.5,-74"/>
<text text-anchor="middle" x="1808" y="-62" font-family="Helvetica,sans-Serif" font-size="10.00">math.h</text>
</a>
</g>
</g>
<!-- Node11&#45;&gt;Node13 -->
<g id="edge12_Node000011_Node000013" class="edge">
<title>Node11&#45;&gt;Node13</title>
<g id="a_edge12_Node000011_Node000013"><a xlink:title=" ">
<path fill="none" stroke="#63b8ff" d="M1554.03,-112.85C1602.04,-105.35 1688.58,-91.26 1772.48,-73.98"/>
<polygon fill="#63b8ff" stroke="#63b8ff" points="1773.35,-77.38 1782.43,-71.92 1771.93,-70.52 1773.35,-77.38"/>
</a>
</g>
</g>
<!-- Node14 -->
<g id="Node000014" class="node">
<title>Node14</title>
<g id="a_Node000014"><a xlink:title=" ">
<polygon fill="#e0e0e0" stroke="#999999" points="1475.5,-74 1386.5,-74 1386.5,-55 1475.5,-55 1475.5,-74"/>
<text text-anchor="middle" x="1431" y="-62" font-family="Helvetica,sans-Serif" font-size="10.00">vector_types.h</text>
</a>
</g>
</g>
<!-- Node11&#45;&gt;Node14 -->
<g id="edge14_Node000011_Node000014" class="edge">
<title>Node11&#45;&gt;Node14</title>
<g id="a_edge14_Node000011_Node000014"><a xlink:title=" ">
<path fill="none" stroke="#63b8ff" d="M1503.18,-109.98C1489.85,-101.77 1469.42,-89.18 1453.69,-79.49"/>
<polygon fill="#63b8ff" stroke="#63b8ff" points="1455.42,-76.44 1445.07,-74.17 1451.75,-82.4 1455.42,-76.44"/>
</a>
</g>
</g>
<!-- Node15 -->
<g id="Node000015" class="node">
<title>Node15</title>
<g id="a_Node000015"><a xlink:href="acreal_8h.html" target="_top" xlink:title=" ">
<polygon fill="white" stroke="#666666" points="1469,-19 1413,-19 1413,0 1469,0 1469,-19"/>
<text text-anchor="middle" x="1441" y="-7" font-family="Helvetica,sans-Serif" font-size="10.00">acreal.h</text>
</a>
</g>
</g>
<!-- Node11&#45;&gt;Node15 -->
<g id="edge16_Node000011_Node000015" class="edge">
<title>Node11&#45;&gt;Node15</title>
<g id="a_edge16_Node000011_Node000015"><a xlink:title=" ">
<path fill="none" stroke="#63b8ff" d="M1479.85,-111.6C1476.86,-111.06 1473.88,-110.52 1471,-110 1425.26,-101.78 1294.9,-109.58 1265,-74 1225.59,-27.1 1339.76,-14.84 1402.62,-11.63"/>
<polygon fill="#63b8ff" stroke="#63b8ff" points="1403.14,-15.11 1412.97,-11.16 1402.82,-8.12 1403.14,-15.11"/>
</a>
</g>
</g>
<!-- Node16 -->
<g id="Node000016" class="node">
<title>Node16</title>
<g id="a_Node000016"><a xlink:title=" ">
<polygon fill="#e0e0e0" stroke="#999999" points="1368.5,-74 1273.5,-74 1273.5,-55 1368.5,-55 1368.5,-74"/>
<text text-anchor="middle" x="1321" y="-62" font-family="Helvetica,sans-Serif" font-size="10.00">user_typedefs.h</text>
</a>
</g>
</g>
<!-- Node11&#45;&gt;Node16 -->
<g id="edge18_Node000011_Node000016" class="edge">
<title>Node11&#45;&gt;Node16</title>
<g id="a_edge18_Node000011_Node000016"><a xlink:title=" ">
<path fill="none" stroke="#63b8ff" d="M1485.51,-109.98C1452.18,-100.97 1399.4,-86.7 1362.65,-76.76"/>
<polygon fill="#63b8ff" stroke="#63b8ff" points="1363.3,-73.31 1352.74,-74.08 1361.48,-80.07 1363.3,-73.31"/>
</a>
</g>
</g>
<!-- Node17 -->
<g id="Node000017" class="node">
<title>Node17</title>
<g id="a_Node000017"><a xlink:href="host__datatypes_8h.html" target="_top" xlink:title=" ">
<polygon fill="white" stroke="#666666" points="1659.5,-74 1558.5,-74 1558.5,-55 1659.5,-55 1659.5,-74"/>
<text text-anchor="middle" x="1609" y="-62" font-family="Helvetica,sans-Serif" font-size="10.00">host_datatypes.h</text>
</a>
</g>
</g>
<!-- Node11&#45;&gt;Node17 -->
<g id="edge19_Node000011_Node000017" class="edge">
<title>Node11&#45;&gt;Node17</title>
<g id="a_edge19_Node000011_Node000017"><a xlink:title=" ">
<path fill="none" stroke="#63b8ff" d="M1531.78,-109.98C1546.18,-101.69 1568.31,-88.94 1585.19,-79.22"/>
<polygon fill="#63b8ff" stroke="#63b8ff" points="1587.03,-82.19 1593.95,-74.17 1583.54,-76.13 1587.03,-82.19"/>
</a>
</g>
</g>
<!-- Node17&#45;&gt;Node15 -->
<g id="edge20_Node000017_Node000015" class="edge">
<title>Node17&#45;&gt;Node15</title>
<g id="a_edge20_Node000017_Node000015"><a xlink:title=" ">
<path fill="none" stroke="#63b8ff" d="M1582.01,-54.98C1553.8,-46.09 1509.36,-32.07 1477.92,-22.15"/>
<polygon fill="#63b8ff" stroke="#63b8ff" points="1478.79,-18.75 1468.2,-19.08 1476.69,-25.43 1478.79,-18.75"/>
</a>
</g>
</g>
<!-- Node18 -->
<g id="Node000018" class="node">
<title>Node18</title>
<g id="a_Node000018"><a xlink:title=" ">
<polygon fill="#e0e0e0" stroke="#999999" points="1676,-19 1620,-19 1620,0 1676,0 1676,-19"/>
<text text-anchor="middle" x="1648" y="-7" font-family="Helvetica,sans-Serif" font-size="10.00">stddef.h</text>
</a>
</g>
</g>
<!-- Node17&#45;&gt;Node18 -->
<g id="edge21_Node000017_Node000018" class="edge">
<title>Node17&#45;&gt;Node18</title>
<g id="a_edge21_Node000017_Node000018"><a xlink:title=" ">
<path fill="none" stroke="#63b8ff" d="M1615.44,-54.75C1620.89,-47.34 1628.86,-36.5 1635.56,-27.41"/>
<polygon fill="#63b8ff" stroke="#63b8ff" points="1638.57,-29.22 1641.68,-19.09 1632.93,-25.07 1638.57,-29.22"/>
</a>
</g>
</g>
<!-- Node19&#45;&gt;Node4 -->
<g id="edge25_Node000019_Node000004" class="edge">
<title>Node19&#45;&gt;Node4</title>
<g id="a_edge25_Node000019_Node000004"><a xlink:title=" ">
<path fill="none" stroke="#63b8ff" d="M1605.72,-114.62C1592.73,-112.97 1577.11,-111.15 1563,-110 1370.57,-94.25 761.73,-72.59 597.28,-66.91"/>
<polygon fill="#63b8ff" stroke="#63b8ff" points="597.22,-63.41 587.1,-66.56 596.97,-70.4 597.22,-63.41"/>
</a>
</g>
</g>
<!-- Node19&#45;&gt;Node6 -->
<g id="edge27_Node000019_Node000006" class="edge">
<title>Node19&#45;&gt;Node6</title>
<g id="a_edge27_Node000019_Node000006"><a xlink:title=" ">
<path fill="none" stroke="#63b8ff" d="M1605.7,-114.85C1592.7,-113.24 1577.08,-111.4 1563,-110 1363.52,-90.21 1308.83,-106.28 1107.18,-73.91"/>
<polygon fill="#63b8ff" stroke="#63b8ff" points="1107.59,-70.43 1097.15,-72.28 1106.46,-77.34 1107.59,-70.43"/>
</a>
</g>
</g>
<!-- Node19&#45;&gt;Node7 -->
<g id="edge30_Node000019_Node000007" class="edge">
<title>Node19&#45;&gt;Node7</title>
<g id="a_edge30_Node000019_Node000007"><a xlink:title=" ">
<path fill="none" stroke="#63b8ff" d="M1605.68,-115.06C1592.68,-113.49 1577.06,-111.63 1563,-110 1444.15,-96.23 1305.21,-80.81 1227.22,-72.22"/>
<polygon fill="#63b8ff" stroke="#63b8ff" points="1227.41,-68.72 1217.09,-71.1 1226.65,-75.68 1227.41,-68.72"/>
</a>
</g>
</g>
<!-- Node19&#45;&gt;Node17 -->
<g id="edge24_Node000019_Node000017" class="edge">
<title>Node19&#45;&gt;Node17</title>
<g id="a_edge24_Node000019_Node000017"><a xlink:title=" ">
<path fill="none" stroke="#63b8ff" d="M1629.87,-109.75C1626.49,-102.57 1621.58,-92.18 1617.38,-83.27"/>
<polygon fill="#63b8ff" stroke="#63b8ff" points="1620.48,-81.64 1613.05,-74.09 1614.15,-84.63 1620.48,-81.64"/>
</a>
</g>
</g>
<!-- Node19&#45;&gt;Node18 -->
<g id="edge23_Node000019_Node000018" class="edge">
<title>Node19&#45;&gt;Node18</title>
<g id="a_edge23_Node000019_Node000018"><a xlink:title=" ">
<path fill="none" stroke="#63b8ff" d="M1643.88,-109.75C1652.39,-101.5 1664.05,-88.3 1669,-74 1674.39,-58.44 1667.36,-40.62 1660.02,-27.83"/>
<polygon fill="#63b8ff" stroke="#63b8ff" points="1662.84,-25.75 1654.54,-19.15 1656.92,-29.48 1662.84,-25.75"/>
</a>
</g>
</g>
<!-- Node20 -->
<g id="Node000020" class="node">
<title>Node20</title>
<g id="a_Node000020"><a xlink:title=" ">
<polygon fill="#e0e0e0" stroke="#999999" points="1975.5,-74 1922.5,-74 1922.5,-55 1975.5,-55 1975.5,-74"/>
<text text-anchor="middle" x="1949" y="-62" font-family="Helvetica,sans-Serif" font-size="10.00">stdint.h</text>
</a>
</g>
</g>
<!-- Node19&#45;&gt;Node20 -->
<g id="edge26_Node000019_Node000020" class="edge">
<title>Node19&#45;&gt;Node20</title>
<g id="a_edge26_Node000019_Node000020"><a xlink:title=" ">
<path fill="none" stroke="#63b8ff" d="M1662.35,-114.76C1711.38,-108.14 1815.34,-93.37 1912.33,-74.21"/>
<polygon fill="#63b8ff" stroke="#63b8ff" points="1913.17,-77.61 1922.3,-72.22 1911.8,-70.75 1913.17,-77.61"/>
</a>
</g>
</g>
<!-- Node21 -->
<g id="Node000021" class="node">
<title>Node21</title>
<g id="a_Node000021"><a xlink:title=" ">
<polygon fill="#e0e0e0" stroke="#999999" points="1904.5,-74 1851.5,-74 1851.5,-55 1904.5,-55 1904.5,-74"/>
<text text-anchor="middle" x="1878" y="-62" font-family="Helvetica,sans-Serif" font-size="10.00">stdlib.h</text>
</a>
</g>
</g>
<!-- Node19&#45;&gt;Node21 -->
<g id="edge28_Node000019_Node000021" class="edge">
<title>Node19&#45;&gt;Node21</title>
<g id="a_edge28_Node000019_Node000021"><a xlink:title=" ">
<path fill="none" stroke="#63b8ff" d="M1662.11,-112.78C1700.49,-104.91 1771.67,-90.12 1841.43,-74.31"/>
<polygon fill="#63b8ff" stroke="#63b8ff" points="1842.29,-77.71 1851.27,-72.08 1840.74,-70.88 1842.29,-77.71"/>
</a>
</g>
</g>
<!-- Node22 -->
<g id="Node000022" class="node">
<title>Node22</title>
<g id="a_Node000022"><a xlink:title=" ">
<polygon fill="#e0e0e0" stroke="#999999" points="1764,-74 1716,-74 1716,-55 1764,-55 1764,-74"/>
<text text-anchor="middle" x="1740" y="-62" font-family="Helvetica,sans-Serif" font-size="10.00">time.h</text>
</a>
</g>
</g>
<!-- Node19&#45;&gt;Node22 -->
<g id="edge29_Node000019_Node000022" class="edge">
<title>Node19&#45;&gt;Node22</title>
<g id="a_edge29_Node000019_Node000022"><a xlink:title=" ">
<path fill="none" stroke="#63b8ff" d="M1651.03,-109.98C1667.93,-101.54 1694.06,-88.47 1713.64,-78.68"/>
<polygon fill="#63b8ff" stroke="#63b8ff" points="1715.28,-81.77 1722.66,-74.17 1712.15,-75.51 1715.28,-81.77"/>
</a>
</g>
</g>
<!-- Node47 -->
<g id="Node000047" class="node">
<title>Node47</title>
<g id="a_Node000047"><a xlink:title=" ">
<polygon fill="#e0e0e0" stroke="#999999" points="1232.5,-195 1113.5,-195 1113.5,-165 1232.5,-165 1232.5,-195"/>
<text text-anchor="start" x="1121.5" y="-183" font-family="Helvetica,sans-Serif" font-size="10.00">device_load_uniform</text>
<text text-anchor="middle" x="1173" y="-172" font-family="Helvetica,sans-Serif" font-size="10.00">_decl.h</text>
</a>
</g>
</g>
<!-- Node46&#45;&gt;Node47 -->
<g id="edge47_Node000046_Node000047" class="edge">
<title>Node46&#45;&gt;Node47</title>
<g id="a_edge47_Node000046_Node000047"><a xlink:title=" ">
<path fill="none" stroke="#63b8ff" d="M850.24,-232.07C924.72,-221.44 1056.78,-202.52 1103.3,-195"/>
<polygon fill="#63b8ff" stroke="#63b8ff" points="1103.91,-198.45 1113.2,-193.35 1102.76,-191.54 1103.91,-198.45"/>
</a>
</g>
</g>
<!-- Node48 -->
<g id="Node000048" class="node">
<title>Node48</title>
<g id="a_Node000048"><a xlink:title=" ">
<polygon fill="#e0e0e0" stroke="#999999" points="1095,-195 973,-195 973,-165 1095,-165 1095,-195"/>
<text text-anchor="start" x="981" y="-183" font-family="Helvetica,sans-Serif" font-size="10.00">device_store_uniform</text>
<text text-anchor="middle" x="1034" y="-172" font-family="Helvetica,sans-Serif" font-size="10.00">_decl.h</text>
</a>
</g>
</g>
<!-- Node46&#45;&gt;Node48 -->
<g id="edge48_Node000046_Node000048" class="edge">
<title>Node46&#45;&gt;Node48</title>
<g id="a_edge48_Node000046_Node000048"><a xlink:title=" ">
<path fill="none" stroke="#63b8ff" d="M832.32,-230.99C867.62,-222.24 923.5,-208.39 967.5,-197.48"/>
<polygon fill="#63b8ff" stroke="#63b8ff" points="968.4,-200.87 977.26,-195.06 966.71,-194.07 968.4,-200.87"/>
</a>
</g>
</g>
<!-- Node56&#45;&gt;Node11 -->
<g id="edge60_Node000056_Node000011" class="edge">
<title>Node56&#45;&gt;Node11</title>
<g id="a_edge60_Node000056_Node000011"><a xlink:title=" ">
<path fill="none" stroke="#63b8ff" d="M1805.2,-172.06C1744.98,-161.29 1629.2,-140.57 1564.21,-128.95"/>
<polygon fill="#63b8ff" stroke="#63b8ff" points="1564.7,-125.48 1554.23,-127.16 1563.46,-132.37 1564.7,-125.48"/>
</a>
</g>
</g>
<!-- Node56&#45;&gt;Node13 -->
<g id="edge59_Node000056_Node000013" class="edge">
<title>Node56&#45;&gt;Node13</title>
<g id="a_edge59_Node000056_Node000013"><a xlink:title=" ">
<path fill="none" stroke="#63b8ff" d="M1841.29,-170.47C1835.48,-152.15 1821.7,-108.68 1813.81,-83.81"/>
<polygon fill="#63b8ff" stroke="#63b8ff" points="1817.1,-82.6 1810.74,-74.13 1810.42,-84.72 1817.1,-82.6"/>
</a>
</g>
</g>
<!-- Node56&#45;&gt;Node19 -->
<g id="edge61_Node000056_Node000019" class="edge">
<title>Node56&#45;&gt;Node19</title>
<g id="a_edge61_Node000056_Node000019"><a xlink:title=" ">
<path fill="none" stroke="#63b8ff" d="M1813.46,-170.49C1776.03,-160.06 1712.57,-142.39 1672.01,-131.09"/>
<polygon fill="#63b8ff" stroke="#63b8ff" points="1672.79,-127.67 1662.22,-128.36 1670.91,-134.42 1672.79,-127.67"/>
</a>
</g>
</g>
<!-- Node56&#45;&gt;Node20 -->
<g id="edge57_Node000056_Node000020" class="edge">
<title>Node56&#45;&gt;Node20</title>
<g id="a_edge57_Node000056_Node000020"><a xlink:title=" ">
<path fill="none" stroke="#63b8ff" d="M1850.67,-170.19C1860.96,-156.76 1881.58,-130.56 1901,-110 1910.66,-99.78 1922.19,-89.04 1931.54,-80.67"/>
<polygon fill="#63b8ff" stroke="#63b8ff" points="1933.91,-83.25 1939.08,-74 1929.27,-78 1933.91,-83.25"/>
</a>
</g>
</g>
<!-- Node56&#45;&gt;Node21 -->
<g id="edge58_Node000056_Node000021" class="edge">
<title>Node56&#45;&gt;Node21</title>
<g id="a_edge58_Node000056_Node000021"><a xlink:title=" ">
<path fill="none" stroke="#63b8ff" d="M1846.56,-170.47C1852.04,-152.15 1865.06,-108.68 1872.52,-83.81"/>
<polygon fill="#63b8ff" stroke="#63b8ff" points="1875.9,-84.71 1875.41,-74.13 1869.19,-82.7 1875.9,-84.71"/>
</a>
</g>
</g>
<!-- Node56&#45;&gt;Node26 -->
<g id="edge62_Node000056_Node000026" class="edge">
<title>Node56&#45;&gt;Node26</title>
<g id="a_edge62_Node000056_Node000026"><a xlink:title=" ">
<path fill="none" stroke="#63b8ff" d="M1882.63,-178.87C1923.45,-176.6 1987.07,-166.68 2025,-129 2036.8,-117.28 2041.01,-98.43 2042.44,-84.3"/>
<polygon fill="#63b8ff" stroke="#63b8ff" points="2045.94,-84.42 2043.08,-74.22 2038.95,-83.97 2045.94,-84.42"/>
</a>
</g>
</g>
<!-- Node57 -->
<g id="Node000057" class="node">
<title>Node57</title>
<g id="a_Node000057"><a xlink:href="math__utils__base_8h.html" target="_top" xlink:title=" ">
<polygon fill="white" stroke="#666666" points="2016,-129 1910,-129 1910,-110 2016,-110 2016,-129"/>
<text text-anchor="middle" x="1963" y="-117" font-family="Helvetica,sans-Serif" font-size="10.00">math_utils_base.h</text>
</a>
</g>
</g>
<!-- Node56&#45;&gt;Node57 -->
<g id="edge63_Node000056_Node000057" class="edge">
<title>Node56&#45;&gt;Node57</title>
<g id="a_edge63_Node000056_Node000057"><a xlink:title=" ">
<path fill="none" stroke="#63b8ff" d="M1861.3,-170.49C1881.05,-160.79 1913.55,-144.81 1936.49,-133.53"/>
<polygon fill="#63b8ff" stroke="#63b8ff" points="1938.25,-136.57 1945.68,-129.02 1935.16,-130.29 1938.25,-136.57"/>
</a>
</g>
</g>
<!-- Node58 -->
<g id="Node000058" class="node">
<title>Node58</title>
<g id="a_Node000058"><a xlink:title=" ">
<polygon fill="#e0e0e0" stroke="#999999" points="2211.5,-129 2072.5,-129 2072.5,-110 2211.5,-110 2211.5,-129"/>
<text text-anchor="middle" x="2142" y="-117" font-family="Helvetica,sans-Serif" font-size="10.00">generated_comp_funcs.h</text>
</a>
</g>
</g>
<!-- Node56&#45;&gt;Node58 -->
<g id="edge65_Node000056_Node000058" class="edge">
<title>Node56&#45;&gt;Node58</title>
<g id="a_edge65_Node000056_Node000058"><a xlink:title=" ">
<path fill="none" stroke="#63b8ff" d="M1882.65,-171.41C1935.2,-161.1 2029.42,-142.6 2088.67,-130.97"/>
<polygon fill="#63b8ff" stroke="#63b8ff" points="2089.45,-134.38 2098.58,-129.02 2088.1,-127.51 2089.45,-134.38"/>
</a>
</g>
</g>
<!-- Node57&#45;&gt;Node26 -->
<g id="edge64_Node000057_Node000026" class="edge">
<title>Node57&#45;&gt;Node26</title>
<g id="a_edge64_Node000057_Node000026"><a xlink:title=" ">
<path fill="none" stroke="#63b8ff" d="M1975.85,-109.98C1988.14,-101.84 2006.91,-89.41 2021.48,-79.76"/>
<polygon fill="#63b8ff" stroke="#63b8ff" points="2023.51,-82.61 2029.91,-74.17 2019.64,-76.78 2023.51,-82.61"/>
</a>
</g>
</g>
</g>
</svg>
