<?xml version="1.0" encoding="UTF-8" standalone="no"?>
<!DOCTYPE svg PUBLIC "-//W3C//DTD SVG 1.1//EN"
 "http://www.w3.org/Graphics/SVG/1.1/DTD/svg11.dtd">
<!-- Generated by graphviz version 2.43.0 (0)
 -->
<!-- Title: test/variable&#45;dims/main.cc Pages: 1 -->
<svg width="2513pt" height="434pt"
 viewBox="0.00 0.00 2513.00 434.00" xmlns="http://www.w3.org/2000/svg" xmlns:xlink="http://www.w3.org/1999/xlink">
<g id="graph0" class="graph" transform="scale(1 1) rotate(0) translate(4 430)">
<title>test/variable&#45;dims/main.cc</title>
<!-- Node1 -->
<g id="Node000001" class="node">
<title>Node1</title>
<g id="a_Node000001"><a xlink:title=" ">
<polygon fill="#999999" stroke="#666666" points="1894.5,-426 1788.5,-426 1788.5,-396 1894.5,-396 1894.5,-426"/>
<text text-anchor="start" x="1796.5" y="-414" font-family="Helvetica,sans-Serif" font-size="10.00">test/variable&#45;dims</text>
<text text-anchor="middle" x="1841.5" y="-403" font-family="Helvetica,sans-Serif" font-size="10.00">/main.cc</text>
</a>
</g>
</g>
<!-- Node2 -->
<g id="Node000002" class="node">
<title>Node2</title>
<g id="a_Node000002"><a xlink:href="astaroth_8h.html" target="_top" xlink:title=" ">
<polygon fill="white" stroke="#666666" points="1795.5,-305 1729.5,-305 1729.5,-286 1795.5,-286 1795.5,-305"/>
<text text-anchor="middle" x="1762.5" y="-293" font-family="Helvetica,sans-Serif" font-size="10.00">astaroth.h</text>
</a>
</g>
</g>
<!-- Node1&#45;&gt;Node2 -->
<g id="edge1_Node000001_Node000002" class="edge">
<title>Node1&#45;&gt;Node2</title>
<g id="a_edge1_Node000001_Node000002"><a xlink:title=" ">
<path fill="none" stroke="#63b8ff" d="M1821.77,-395.88C1810.19,-386.74 1796.01,-373.98 1786.5,-360 1777.18,-346.3 1770.86,-328.49 1767.05,-315.22"/>
<polygon fill="#63b8ff" stroke="#63b8ff" points="1770.38,-314.1 1764.44,-305.33 1763.61,-315.89 1770.38,-314.1"/>
</a>
</g>
</g>
<!-- Node19 -->
<g id="Node000019" class="node">
<title>Node19</title>
<g id="a_Node000019"><a xlink:href="errchk_8h.html" target="_top" xlink:title="Brief info.">
<polygon fill="white" stroke="#666666" points="1051.5,-129 995.5,-129 995.5,-110 1051.5,-110 1051.5,-129"/>
<text text-anchor="middle" x="1023.5" y="-117" font-family="Helvetica,sans-Serif" font-size="10.00">errchk.h</text>
</a>
</g>
</g>
<!-- Node1&#45;&gt;Node19 -->
<g id="edge58_Node000001_Node000019" class="edge">
<title>Node1&#45;&gt;Node19</title>
<g id="a_edge58_Node000001_Node000019"><a xlink:title=" ">
<path fill="none" stroke="#63b8ff" d="M1788.21,-408.31C1619.81,-401.74 1104.27,-371.84 1003.5,-250 976.9,-217.84 998.7,-165.26 1013.19,-138.05"/>
<polygon fill="#63b8ff" stroke="#63b8ff" points="1016.28,-139.7 1018.09,-129.26 1010.16,-136.29 1016.28,-139.7"/>
</a>
</g>
</g>
<!-- Node55 -->
<g id="Node000055" class="node">
<title>Node55</title>
<g id="a_Node000055"><a xlink:href="astaroth__utils_8h.html" target="_top" xlink:title="Functions for loading and updating AcMeshInfo.">
<polygon fill="white" stroke="#666666" points="1887.5,-360 1795.5,-360 1795.5,-341 1887.5,-341 1887.5,-360"/>
<text text-anchor="middle" x="1841.5" y="-348" font-family="Helvetica,sans-Serif" font-size="10.00">astaroth_utils.h</text>
</a>
</g>
</g>
<!-- Node1&#45;&gt;Node55 -->
<g id="edge54_Node000001_Node000055" class="edge">
<title>Node1&#45;&gt;Node55</title>
<g id="a_edge54_Node000001_Node000055"><a xlink:title=" ">
<path fill="none" stroke="#63b8ff" d="M1841.5,-395.84C1841.5,-388.21 1841.5,-378.7 1841.5,-370.45"/>
<polygon fill="#63b8ff" stroke="#63b8ff" points="1845,-370.27 1841.5,-360.27 1838,-370.27 1845,-370.27"/>
</a>
</g>
</g>
<!-- Node58 -->
<g id="Node000058" class="node">
<title>Node58</title>
<g id="a_Node000058"><a xlink:href="math__utils_8h.html" target="_top" xlink:title="Brief info.">
<polygon fill="white" stroke="#666666" points="1774,-189.5 1697,-189.5 1697,-170.5 1774,-170.5 1774,-189.5"/>
<text text-anchor="middle" x="1735.5" y="-177.5" font-family="Helvetica,sans-Serif" font-size="10.00">math_utils.h</text>
</a>
</g>
</g>
<!-- Node1&#45;&gt;Node58 -->
<g id="edge59_Node000001_Node000058" class="edge">
<title>Node1&#45;&gt;Node58</title>
<g id="a_edge59_Node000001_Node000058"><a xlink:title=" ">
<path fill="none" stroke="#63b8ff" d="M1894.73,-409.05C2051.94,-404.56 2494.91,-378.8 2358.5,-231 2319.82,-189.09 1924.49,-182.29 1784.4,-181.2"/>
<polygon fill="#63b8ff" stroke="#63b8ff" points="1784.39,-177.7 1774.37,-181.13 1784.34,-184.7 1784.39,-177.7"/>
</a>
</g>
</g>
<!-- Node61 -->
<g id="Node000061" class="node">
<title>Node61</title>
<g id="a_Node000061"><a xlink:title=" ">
<polygon fill="#e0e0e0" stroke="#999999" points="2505,-360 2406,-360 2406,-341 2505,-341 2505,-360"/>
<text text-anchor="middle" x="2455.5" y="-348" font-family="Helvetica,sans-Serif" font-size="10.00">user_constants.h</text>
</a>
</g>
</g>
<!-- Node1&#45;&gt;Node61 -->
<g id="edge69_Node000001_Node000061" class="edge">
<title>Node1&#45;&gt;Node61</title>
<g id="a_edge69_Node000001_Node000061"><a xlink:title=" ">
<path fill="none" stroke="#63b8ff" d="M1894.67,-405.9C1992.92,-398.17 2209.5,-380.35 2391.5,-360 2392.96,-359.84 2394.44,-359.67 2395.94,-359.49"/>
<polygon fill="#63b8ff" stroke="#63b8ff" points="2396.4,-362.96 2405.91,-358.29 2395.56,-356.01 2396.4,-362.96"/>
</a>
</g>
</g>
<!-- Node3 -->
<g id="Node000003" class="node">
<title>Node3</title>
<g id="a_Node000003"><a xlink:href="astaroth__base_8h.html" target="_top" xlink:title=" ">
<polygon fill="white" stroke="#666666" points="928,-250 833,-250 833,-231 928,-231 928,-250"/>
<text text-anchor="middle" x="880.5" y="-238" font-family="Helvetica,sans-Serif" font-size="10.00">astaroth_base.h</text>
</a>
</g>
</g>
<!-- Node2&#45;&gt;Node3 -->
<g id="edge2_Node000002_Node000003" class="edge">
<title>Node2&#45;&gt;Node3</title>
<g id="a_edge2_Node000002_Node000003"><a xlink:title=" ">
<path fill="none" stroke="#63b8ff" d="M1729.2,-292.67C1623.2,-286.83 1284.08,-267.92 1003.5,-250 982.21,-248.64 958.86,-247.05 938.27,-245.62"/>
<polygon fill="#63b8ff" stroke="#63b8ff" points="938.32,-242.11 928.1,-244.91 937.83,-249.09 938.32,-242.11"/>
</a>
</g>
</g>
<!-- Node43 -->
<g id="Node000043" class="node">
<title>Node43</title>
<g id="a_Node000043"><a xlink:href="astaroth__grid_8h.html" target="_top" xlink:title=" ">
<polygon fill="white" stroke="#666666" points="2113.5,-250 2023.5,-250 2023.5,-231 2113.5,-231 2113.5,-250"/>
<text text-anchor="middle" x="2068.5" y="-238" font-family="Helvetica,sans-Serif" font-size="10.00">astaroth_grid.h</text>
</a>
</g>
</g>
<!-- Node2&#45;&gt;Node43 -->
<g id="edge42_Node000002_Node000043" class="edge">
<title>Node2&#45;&gt;Node43</title>
<g id="a_edge42_Node000002_Node000043"><a xlink:title=" ">
<path fill="none" stroke="#63b8ff" d="M1795.95,-287.63C1798.84,-287.07 1801.72,-286.52 1804.5,-286 1876.41,-272.67 1959.67,-258.91 2013.15,-250.29"/>
<polygon fill="#63b8ff" stroke="#63b8ff" points="2013.79,-253.73 2023.11,-248.69 2012.68,-246.82 2013.79,-253.73"/>
</a>
</g>
</g>
<!-- Node44 -->
<g id="Node000044" class="node">
<title>Node44</title>
<g id="a_Node000044"><a xlink:href="astaroth__node_8h.html" target="_top" xlink:title=" ">
<polygon fill="white" stroke="#666666" points="2349,-250 2254,-250 2254,-231 2349,-231 2349,-250"/>
<text text-anchor="middle" x="2301.5" y="-238" font-family="Helvetica,sans-Serif" font-size="10.00">astaroth_node.h</text>
</a>
</g>
</g>
<!-- Node2&#45;&gt;Node44 -->
<g id="edge43_Node000002_Node000044" class="edge">
<title>Node2&#45;&gt;Node44</title>
<g id="a_edge43_Node000002_Node000044"><a xlink:title=" ">
<path fill="none" stroke="#63b8ff" d="M1795.91,-287.37C1798.81,-286.86 1801.7,-286.4 1804.5,-286 1995.55,-258.95 2047.86,-272.03 2243.89,-249.98"/>
<polygon fill="#63b8ff" stroke="#63b8ff" points="2244.41,-253.44 2253.95,-248.83 2243.61,-246.49 2244.41,-253.44"/>
</a>
</g>
</g>
<!-- Node45 -->
<g id="Node000045" class="node">
<title>Node45</title>
<g id="a_Node000045"><a xlink:href="astaroth__device_8h.html" target="_top" xlink:title=" ">
<polygon fill="white" stroke="#666666" points="2235.5,-250 2131.5,-250 2131.5,-231 2235.5,-231 2235.5,-250"/>
<text text-anchor="middle" x="2183.5" y="-238" font-family="Helvetica,sans-Serif" font-size="10.00">astaroth_device.h</text>
</a>
</g>
</g>
<!-- Node2&#45;&gt;Node45 -->
<g id="edge44_Node000002_Node000045" class="edge">
<title>Node2&#45;&gt;Node45</title>
<g id="a_edge44_Node000002_Node000045"><a xlink:title=" ">
<path fill="none" stroke="#63b8ff" d="M1795.92,-287.46C1798.82,-286.94 1801.71,-286.44 1804.5,-286 1941.85,-264.37 1979.7,-267.65 2121.34,-250.11"/>
<polygon fill="#63b8ff" stroke="#63b8ff" points="2121.78,-253.58 2131.27,-248.87 2120.91,-246.64 2121.78,-253.58"/>
</a>
</g>
</g>
<!-- Node48 -->
<g id="Node000048" class="node">
<title>Node48</title>
<g id="a_Node000048"><a xlink:href="astaroth__legacy_8h.html" target="_top" xlink:title=" ">
<polygon fill="white" stroke="#666666" points="1114.5,-250 1012.5,-250 1012.5,-231 1114.5,-231 1114.5,-250"/>
<text text-anchor="middle" x="1063.5" y="-238" font-family="Helvetica,sans-Serif" font-size="10.00">astaroth_legacy.h</text>
</a>
</g>
</g>
<!-- Node2&#45;&gt;Node48 -->
<g id="edge47_Node000002_Node000048" class="edge">
<title>Node2&#45;&gt;Node48</title>
<g id="a_edge47_Node000002_Node000048"><a xlink:title=" ">
<path fill="none" stroke="#63b8ff" d="M1729.17,-293.02C1635.62,-288.68 1362.52,-274.79 1124.76,-250.05"/>
<polygon fill="#63b8ff" stroke="#63b8ff" points="1124.84,-246.54 1114.53,-248.98 1124.11,-253.51 1124.84,-246.54"/>
</a>
</g>
</g>
<!-- Node49 -->
<g id="Node000049" class="node">
<title>Node49</title>
<g id="a_Node000049"><a xlink:title=" ">
<polygon fill="#e0e0e0" stroke="#999999" points="1272,-250 1133,-250 1133,-231 1272,-231 1272,-250"/>
<text text-anchor="middle" x="1202.5" y="-238" font-family="Helvetica,sans-Serif" font-size="10.00">device_set_input_decls.h</text>
</a>
</g>
</g>
<!-- Node2&#45;&gt;Node49 -->
<g id="edge48_Node000002_Node000049" class="edge">
<title>Node2&#45;&gt;Node49</title>
<g id="a_edge48_Node000002_Node000049"><a xlink:title=" ">
<path fill="none" stroke="#63b8ff" d="M1729.24,-291.6C1652.58,-284.86 1457.27,-267.5 1282.44,-250.08"/>
<polygon fill="#63b8ff" stroke="#63b8ff" points="1282.58,-246.58 1272.28,-249.07 1281.88,-253.54 1282.58,-246.58"/>
</a>
</g>
</g>
<!-- Node50 -->
<g id="Node000050" class="node">
<title>Node50</title>
<g id="a_Node000050"><a xlink:title=" ">
<polygon fill="#e0e0e0" stroke="#999999" points="1436.5,-250 1290.5,-250 1290.5,-231 1436.5,-231 1436.5,-250"/>
<text text-anchor="middle" x="1363.5" y="-238" font-family="Helvetica,sans-Serif" font-size="10.00">device_get_output_decls.h</text>
</a>
</g>
</g>
<!-- Node2&#45;&gt;Node50 -->
<g id="edge49_Node000002_Node000050" class="edge">
<title>Node2&#45;&gt;Node50</title>
<g id="a_edge49_Node000002_Node000050"><a xlink:title=" ">
<path fill="none" stroke="#63b8ff" d="M1729.17,-290.07C1665.39,-281.6 1524.7,-262.91 1437.62,-251.35"/>
<polygon fill="#63b8ff" stroke="#63b8ff" points="1437.91,-247.85 1427.53,-250.01 1436.99,-254.79 1437.91,-247.85"/>
</a>
</g>
</g>
<!-- Node51 -->
<g id="Node000051" class="node">
<title>Node51</title>
<g id="a_Node000051"><a xlink:title=" ">
<polygon fill="#e0e0e0" stroke="#999999" points="1594.5,-250 1454.5,-250 1454.5,-231 1594.5,-231 1594.5,-250"/>
<text text-anchor="middle" x="1524.5" y="-238" font-family="Helvetica,sans-Serif" font-size="10.00">device_get_input_decls.h</text>
</a>
</g>
</g>
<!-- Node2&#45;&gt;Node51 -->
<g id="edge50_Node000002_Node000051" class="edge">
<title>Node2&#45;&gt;Node51</title>
<g id="a_edge50_Node000002_Node000051"><a xlink:title=" ">
<path fill="none" stroke="#63b8ff" d="M1729.41,-287.13C1688.71,-278.07 1619.31,-262.61 1572.69,-252.23"/>
<polygon fill="#63b8ff" stroke="#63b8ff" points="1573.34,-248.79 1562.82,-250.03 1571.82,-255.62 1573.34,-248.79"/>
</a>
</g>
</g>
<!-- Node52 -->
<g id="Node000052" class="node">
<title>Node52</title>
<g id="a_Node000052"><a xlink:title=" ">
<polygon fill="#e0e0e0" stroke="#999999" points="1742.5,-250 1612.5,-250 1612.5,-231 1742.5,-231 1742.5,-250"/>
<text text-anchor="middle" x="1677.5" y="-238" font-family="Helvetica,sans-Serif" font-size="10.00">get_vtxbufs_declares.h</text>
</a>
</g>
</g>
<!-- Node2&#45;&gt;Node52 -->
<g id="edge51_Node000002_Node000052" class="edge">
<title>Node2&#45;&gt;Node52</title>
<g id="a_edge51_Node000002_Node000052"><a xlink:title=" ">
<path fill="none" stroke="#63b8ff" d="M1748.84,-285.98C1735.66,-277.77 1715.47,-265.18 1699.93,-255.49"/>
<polygon fill="#63b8ff" stroke="#63b8ff" points="1701.74,-252.49 1691.41,-250.17 1698.04,-258.43 1701.74,-252.49"/>
</a>
</g>
</g>
<!-- Node53 -->
<g id="Node000053" class="node">
<title>Node53</title>
<g id="a_Node000053"><a xlink:href="astaroth__runtime__compilation_8h.html" target="_top" xlink:title=" ">
<polygon fill="white" stroke="#666666" points="1934,-250 1761,-250 1761,-231 1934,-231 1934,-250"/>
<text text-anchor="middle" x="1847.5" y="-238" font-family="Helvetica,sans-Serif" font-size="10.00">astaroth_runtime_compilation.h</text>
</a>
</g>
</g>
<!-- Node2&#45;&gt;Node53 -->
<g id="edge52_Node000002_Node000053" class="edge">
<title>Node2&#45;&gt;Node53</title>
<g id="a_edge52_Node000002_Node000053"><a xlink:title=" ">
<path fill="none" stroke="#63b8ff" d="M1776.16,-285.98C1789.34,-277.77 1809.53,-265.18 1825.07,-255.49"/>
<polygon fill="#63b8ff" stroke="#63b8ff" points="1826.96,-258.43 1833.59,-250.17 1823.26,-252.49 1826.96,-258.43"/>
</a>
</g>
</g>
<!-- Node54 -->
<g id="Node000054" class="node">
<title>Node54</title>
<g id="a_Node000054"><a xlink:title=" ">
<polygon fill="#e0e0e0" stroke="#999999" points="2005,-250 1952,-250 1952,-231 2005,-231 2005,-250"/>
<text text-anchor="middle" x="1978.5" y="-238" font-family="Helvetica,sans-Serif" font-size="10.00">string.h</text>
</a>
</g>
</g>
<!-- Node2&#45;&gt;Node54 -->
<g id="edge53_Node000002_Node000054" class="edge">
<title>Node2&#45;&gt;Node54</title>
<g id="a_edge53_Node000002_Node000054"><a xlink:title=" ">
<path fill="none" stroke="#63b8ff" d="M1795.78,-286.33C1835.38,-276.62 1901.27,-260.45 1942.17,-250.41"/>
<polygon fill="#63b8ff" stroke="#63b8ff" points="1943.12,-253.79 1952,-248 1941.45,-246.99 1943.12,-253.79"/>
</a>
</g>
</g>
<!-- Node4 -->
<g id="Node000004" class="node">
<title>Node4</title>
<g id="a_Node000004"><a xlink:title=" ">
<polygon fill="#e0e0e0" stroke="#999999" points="754.5,-74 692.5,-74 692.5,-55 754.5,-55 754.5,-74"/>
<text text-anchor="middle" x="723.5" y="-62" font-family="Helvetica,sans-Serif" font-size="10.00">stdbool.h</text>
</a>
</g>
</g>
<!-- Node3&#45;&gt;Node4 -->
<g id="edge3_Node000003_Node000004" class="edge">
<title>Node3&#45;&gt;Node4</title>
<g id="a_edge3_Node000003_Node000004"><a xlink:title=" ">
<path fill="none" stroke="#63b8ff" d="M852.85,-230.98C835.92,-224.17 815.61,-212.76 805.5,-195 798.9,-183.41 797.31,-175.52 805.5,-165 847.06,-111.59 990.44,-162.31 947.5,-110 936,-95.99 826.57,-79.28 765.03,-70.88"/>
<polygon fill="#63b8ff" stroke="#63b8ff" points="765.24,-67.38 754.86,-69.51 764.3,-74.32 765.24,-67.38"/>
</a>
</g>
</g>
<!-- Node5 -->
<g id="Node000005" class="node">
<title>Node5</title>
<g id="a_Node000005"><a xlink:href="acc__runtime_8h.html" target="_top" xlink:title=" ">
<polygon fill="#fff0f0" stroke="red" points="747.5,-189.5 661.5,-189.5 661.5,-170.5 747.5,-170.5 747.5,-189.5"/>
<text text-anchor="middle" x="704.5" y="-177.5" font-family="Helvetica,sans-Serif" font-size="10.00">acc_runtime.h</text>
</a>
</g>
</g>
<!-- Node3&#45;&gt;Node5 -->
<g id="edge4_Node000003_Node000005" class="edge">
<title>Node3&#45;&gt;Node5</title>
<g id="a_edge4_Node000003_Node000005"><a xlink:title=" ">
<path fill="none" stroke="#63b8ff" d="M854.91,-230.99C824.54,-220.9 773.74,-204.01 739.68,-192.69"/>
<polygon fill="#63b8ff" stroke="#63b8ff" points="740.72,-189.35 730.12,-189.52 738.51,-195.99 740.72,-189.35"/>
</a>
</g>
</g>
<!-- Node25 -->
<g id="Node000025" class="node">
<title>Node25</title>
<g id="a_Node000025"><a xlink:title=" ">
<polygon fill="#e0e0e0" stroke="#999999" points="939,-129 800,-129 800,-110 939,-110 939,-129"/>
<text text-anchor="middle" x="869.5" y="-117" font-family="Helvetica,sans-Serif" font-size="10.00">user_built&#45;in_constants.h</text>
</a>
</g>
</g>
<!-- Node3&#45;&gt;Node25 -->
<g id="edge40_Node000003_Node000025" class="edge">
<title>Node3&#45;&gt;Node25</title>
<g id="a_edge40_Node000003_Node000025"><a xlink:title=" ">
<path fill="none" stroke="#63b8ff" d="M907.79,-230.88C924.5,-224.03 944.54,-212.62 954.5,-195 961.06,-183.39 961.4,-176.41 954.5,-165 945.36,-149.89 929.21,-139.67 913.43,-132.87"/>
<polygon fill="#63b8ff" stroke="#63b8ff" points="914.31,-129.46 903.72,-129.07 911.76,-135.97 914.31,-129.46"/>
</a>
</g>
</g>
<!-- Node42 -->
<g id="Node000042" class="node">
<title>Node42</title>
<g id="a_Node000042"><a xlink:title=" ">
<polygon fill="#e0e0e0" stroke="#999999" points="946,-195 815,-195 815,-165 946,-165 946,-195"/>
<text text-anchor="start" x="823" y="-183" font-family="Helvetica,sans-Serif" font-size="10.00">user_builtin_non_scalar</text>
<text text-anchor="middle" x="880.5" y="-172" font-family="Helvetica,sans-Serif" font-size="10.00">_constants.h</text>
</a>
</g>
</g>
<!-- Node3&#45;&gt;Node42 -->
<g id="edge41_Node000003_Node000042" class="edge">
<title>Node3&#45;&gt;Node42</title>
<g id="a_edge41_Node000003_Node000042"><a xlink:title=" ">
<path fill="none" stroke="#63b8ff" d="M880.5,-230.87C880.5,-224.11 880.5,-214.35 880.5,-205.26"/>
<polygon fill="#63b8ff" stroke="#63b8ff" points="884,-205.11 880.5,-195.11 877,-205.11 884,-205.11"/>
</a>
</g>
</g>
<!-- Node5&#45;&gt;Node4 -->
<g id="edge6_Node000005_Node000004" class="edge">
<title>Node5&#45;&gt;Node4</title>
<g id="a_edge6_Node000005_Node000004"><a xlink:title=" ">
<path fill="none" stroke="#63b8ff" d="M661.43,-177.92C589.74,-175.11 450.75,-165.05 420.5,-129 415.07,-122.53 414.98,-116.39 420.5,-110 453.86,-71.38 607.57,-65.66 682.38,-65.21"/>
<polygon fill="#63b8ff" stroke="#63b8ff" points="682.4,-68.71 692.39,-65.18 682.38,-61.71 682.4,-68.71"/>
</a>
</g>
</g>
<!-- Node6 -->
<g id="Node000006" class="node">
<title>Node6</title>
<g id="a_Node000006"><a xlink:title=" ">
<polygon fill="#e0e0e0" stroke="#999999" points="459.5,-74 409.5,-74 409.5,-55 459.5,-55 459.5,-74"/>
<text text-anchor="middle" x="434.5" y="-62" font-family="Helvetica,sans-Serif" font-size="10.00">stdio.h</text>
</a>
</g>
</g>
<!-- Node5&#45;&gt;Node6 -->
<g id="edge5_Node000005_Node000006" class="edge">
<title>Node5&#45;&gt;Node6</title>
<g id="a_edge5_Node000005_Node000006"><a xlink:title=" ">
<path fill="none" stroke="#63b8ff" d="M661.32,-177.59C551.18,-173.55 266.51,-160.17 238.5,-129 191.76,-76.97 330.77,-67.38 399.04,-65.75"/>
<polygon fill="#63b8ff" stroke="#63b8ff" points="399.42,-69.24 409.35,-65.55 399.29,-62.24 399.42,-69.24"/>
</a>
</g>
</g>
<!-- Node7 -->
<g id="Node000007" class="node">
<title>Node7</title>
<g id="a_Node000007"><a xlink:href="device__headers_8h.html" target="_top" xlink:title=" ">
<polygon fill="white" stroke="#666666" points="978.5,-74 876.5,-74 876.5,-55 978.5,-55 978.5,-74"/>
<text text-anchor="middle" x="927.5" y="-62" font-family="Helvetica,sans-Serif" font-size="10.00">device_headers.h</text>
</a>
</g>
</g>
<!-- Node5&#45;&gt;Node7 -->
<g id="edge7_Node000005_Node000007" class="edge">
<title>Node5&#45;&gt;Node7</title>
<g id="a_edge7_Node000005_Node000007"><a xlink:title=" ">
<path fill="none" stroke="#63b8ff" d="M713.25,-170.14C727.97,-155.68 759.17,-126.92 790.5,-110 818.3,-94.99 852.04,-83.95 879.07,-76.63"/>
<polygon fill="#63b8ff" stroke="#63b8ff" points="880.3,-79.92 889.08,-74 878.52,-73.15 880.3,-79.92"/>
</a>
</g>
</g>
<!-- Node10 -->
<g id="Node000010" class="node">
<title>Node10</title>
<g id="a_Node000010"><a xlink:title=" ">
<polygon fill="#e0e0e0" stroke="#999999" points="1353,-74 1258,-74 1258,-55 1353,-55 1353,-74"/>
<text text-anchor="middle" x="1305.5" y="-62" font-family="Helvetica,sans-Serif" font-size="10.00">builtin_enums.h</text>
</a>
</g>
</g>
<!-- Node5&#45;&gt;Node10 -->
<g id="edge10_Node000005_Node000010" class="edge">
<title>Node5&#45;&gt;Node10</title>
<g id="a_edge10_Node000005_Node000010"><a xlink:title=" ">
<path fill="none" stroke="#63b8ff" d="M747.75,-172.99C840.93,-160.04 1052.87,-130.52 1060.5,-129 1134.33,-114.3 1219.06,-90.84 1267.04,-76.92"/>
<polygon fill="#63b8ff" stroke="#63b8ff" points="1268.09,-80.26 1276.71,-74.11 1266.13,-73.54 1268.09,-80.26"/>
</a>
</g>
</g>
<!-- Node11 -->
<g id="Node000011" class="node">
<title>Node11</title>
<g id="a_Node000011"><a xlink:href="datatypes_8h.html" target="_top" xlink:title=" ">
<polygon fill="white" stroke="#666666" points="1517.5,-129 1443.5,-129 1443.5,-110 1517.5,-110 1517.5,-129"/>
<text text-anchor="middle" x="1480.5" y="-117" font-family="Helvetica,sans-Serif" font-size="10.00">datatypes.h</text>
</a>
</g>
</g>
<!-- Node5&#45;&gt;Node11 -->
<g id="edge11_Node000005_Node000011" class="edge">
<title>Node5&#45;&gt;Node11</title>
<g id="a_edge11_Node000005_Node000011"><a xlink:title=" ">
<path fill="none" stroke="#63b8ff" d="M747.67,-172.32C765.53,-169.74 786.48,-166.94 805.5,-165 1040.64,-140.98 1323.25,-127.23 1433.36,-122.44"/>
<polygon fill="#63b8ff" stroke="#63b8ff" points="1433.63,-125.93 1443.47,-122 1433.33,-118.94 1433.63,-125.93"/>
</a>
</g>
</g>
<!-- Node5&#45;&gt;Node19 -->
<g id="edge23_Node000005_Node000019" class="edge">
<title>Node5&#45;&gt;Node19</title>
<g id="a_edge23_Node000005_Node000019"><a xlink:title=" ">
<path fill="none" stroke="#63b8ff" d="M747.52,-171.11C810.09,-159.64 925.24,-138.52 985.1,-127.54"/>
<polygon fill="#63b8ff" stroke="#63b8ff" points="986.05,-130.93 995.26,-125.68 984.79,-124.04 986.05,-130.93"/>
</a>
</g>
</g>
<!-- Node23 -->
<g id="Node000023" class="node">
<title>Node23</title>
<g id="a_Node000023"><a xlink:title=" ">
<polygon fill="#e0e0e0" stroke="#999999" points="87,-129 0,-129 0,-110 87,-110 87,-129"/>
<text text-anchor="middle" x="43.5" y="-117" font-family="Helvetica,sans-Serif" font-size="10.00">user_defines.h</text>
</a>
</g>
</g>
<!-- Node5&#45;&gt;Node23 -->
<g id="edge32_Node000005_Node000023" class="edge">
<title>Node5&#45;&gt;Node23</title>
<g id="a_edge32_Node000005_Node000023"><a xlink:title=" ">
<path fill="none" stroke="#63b8ff" d="M661.26,-176.59C563,-170.87 315.23,-155.06 97.17,-128.98"/>
<polygon fill="#63b8ff" stroke="#63b8ff" points="97.48,-125.49 87.14,-127.77 96.64,-132.44 97.48,-125.49"/>
</a>
</g>
</g>
<!-- Node24 -->
<g id="Node000024" class="node">
<title>Node24</title>
<g id="a_Node000024"><a xlink:title=" ">
<polygon fill="#e0e0e0" stroke="#999999" points="191.5,-129 105.5,-129 105.5,-110 191.5,-110 191.5,-129"/>
<text text-anchor="middle" x="148.5" y="-117" font-family="Helvetica,sans-Serif" font-size="10.00">profiles_info.h</text>
</a>
</g>
</g>
<!-- Node5&#45;&gt;Node24 -->
<g id="edge33_Node000005_Node000024" class="edge">
<title>Node5&#45;&gt;Node24</title>
<g id="a_edge33_Node000005_Node000024"><a xlink:title=" ">
<path fill="none" stroke="#63b8ff" d="M661.37,-175.38C574.8,-167.97 373.76,-149.96 205.5,-129 204.24,-128.84 202.97,-128.68 201.69,-128.52"/>
<polygon fill="#63b8ff" stroke="#63b8ff" points="202.11,-125.04 191.73,-127.17 201.17,-131.98 202.11,-125.04"/>
</a>
</g>
</g>
<!-- Node5&#45;&gt;Node25 -->
<g id="edge34_Node000005_Node000025" class="edge">
<title>Node5&#45;&gt;Node25</title>
<g id="a_edge34_Node000005_Node000025"><a xlink:title=" ">
<path fill="none" stroke="#63b8ff" d="M728.49,-170.49C756.72,-160.49 803.78,-143.8 835.69,-132.49"/>
<polygon fill="#63b8ff" stroke="#63b8ff" points="837.22,-135.66 845.48,-129.02 834.88,-129.06 837.22,-135.66"/>
</a>
</g>
</g>
<!-- Node26 -->
<g id="Node000026" class="node">
<title>Node26</title>
<g id="a_Node000026"><a xlink:href="func__attributes_8h.html" target="_top" xlink:title=" ">
<polygon fill="white" stroke="#666666" points="1901,-74 1802,-74 1802,-55 1901,-55 1901,-74"/>
<text text-anchor="middle" x="1851.5" y="-62" font-family="Helvetica,sans-Serif" font-size="10.00">func_attributes.h</text>
</a>
</g>
</g>
<!-- Node5&#45;&gt;Node26 -->
<g id="edge35_Node000005_Node000026" class="edge">
<title>Node5&#45;&gt;Node26</title>
<g id="a_edge35_Node000005_Node000026"><a xlink:title=" ">
<path fill="none" stroke="#63b8ff" d="M747.65,-172.17C765.52,-169.56 786.47,-166.79 805.5,-165 1124.93,-134.94 1208.02,-167.86 1526.5,-129 1627.59,-116.67 1744.39,-91 1806.76,-76.35"/>
<polygon fill="#63b8ff" stroke="#63b8ff" points="1807.73,-79.72 1816.65,-74.01 1806.12,-72.91 1807.73,-79.72"/>
</a>
</g>
</g>
<!-- Node27 -->
<g id="Node000027" class="node">
<title>Node27</title>
<g id="a_Node000027"><a xlink:title=" ">
<polygon fill="#e0e0e0" stroke="#999999" points="373,-129 248,-129 248,-110 373,-110 373,-129"/>
<text text-anchor="middle" x="310.5" y="-117" font-family="Helvetica,sans-Serif" font-size="10.00">user_input_typedefs.h</text>
</a>
</g>
</g>
<!-- Node5&#45;&gt;Node27 -->
<g id="edge36_Node000005_Node000027" class="edge">
<title>Node5&#45;&gt;Node27</title>
<g id="a_edge36_Node000005_Node000027"><a xlink:title=" ">
<path fill="none" stroke="#63b8ff" d="M661.21,-172.57C592.77,-162.41 459.05,-142.56 377.95,-130.51"/>
<polygon fill="#63b8ff" stroke="#63b8ff" points="378.25,-127.02 367.84,-129.01 377.22,-133.94 378.25,-127.02"/>
</a>
</g>
</g>
<!-- Node28 -->
<g id="Node000028" class="node">
<title>Node28</title>
<g id="a_Node000028"><a xlink:title=" ">
<polygon fill="#e0e0e0" stroke="#999999" points="513,-129 430,-129 430,-110 513,-110 513,-129"/>
<text text-anchor="middle" x="471.5" y="-117" font-family="Helvetica,sans-Serif" font-size="10.00">output_decl.h</text>
</a>
</g>
</g>
<!-- Node5&#45;&gt;Node28 -->
<g id="edge37_Node000005_Node000028" class="edge">
<title>Node5&#45;&gt;Node28</title>
<g id="a_edge37_Node000005_Node000028"><a xlink:title=" ">
<path fill="none" stroke="#63b8ff" d="M670.62,-170.49C629.55,-160.18 560.26,-142.78 515.2,-131.47"/>
<polygon fill="#63b8ff" stroke="#63b8ff" points="515.97,-128.06 505.42,-129.02 514.27,-134.85 515.97,-128.06"/>
</a>
</g>
</g>
<!-- Node29 -->
<g id="Node000029" class="node">
<title>Node29</title>
<g id="a_Node000029"><a xlink:title=" ">
<polygon fill="#e0e0e0" stroke="#999999" points="647.5,-129 531.5,-129 531.5,-110 647.5,-110 647.5,-129"/>
<text text-anchor="middle" x="589.5" y="-117" font-family="Helvetica,sans-Serif" font-size="10.00">comp_loaded_decl.h</text>
</a>
</g>
</g>
<!-- Node5&#45;&gt;Node29 -->
<g id="edge38_Node000005_Node000029" class="edge">
<title>Node5&#45;&gt;Node29</title>
<g id="a_edge38_Node000005_Node000029"><a xlink:title=" ">
<path fill="none" stroke="#63b8ff" d="M687.53,-170.37C668.59,-160.73 637.71,-145.03 615.67,-133.81"/>
<polygon fill="#63b8ff" stroke="#63b8ff" points="617.04,-130.58 606.54,-129.17 613.86,-136.82 617.04,-130.58"/>
</a>
</g>
</g>
<!-- Node30 -->
<g id="Node000030" class="node">
<title>Node30</title>
<g id="a_Node000030"><a xlink:title=" ">
<polygon fill="#e0e0e0" stroke="#999999" points="743.5,-129 665.5,-129 665.5,-110 743.5,-110 743.5,-129"/>
<text text-anchor="middle" x="704.5" y="-117" font-family="Helvetica,sans-Serif" font-size="10.00">comp_decl.h</text>
</a>
</g>
</g>
<!-- Node5&#45;&gt;Node30 -->
<g id="edge39_Node000005_Node000030" class="edge">
<title>Node5&#45;&gt;Node30</title>
<g id="a_edge39_Node000005_Node000030"><a xlink:title=" ">
<path fill="none" stroke="#63b8ff" d="M704.5,-170.37C704.5,-162.25 704.5,-149.81 704.5,-139.39"/>
<polygon fill="#63b8ff" stroke="#63b8ff" points="708,-139.17 704.5,-129.17 701,-139.17 708,-139.17"/>
</a>
</g>
</g>
<!-- Node8 -->
<g id="Node000008" class="node">
<title>Node8</title>
<g id="a_Node000008"><a xlink:title=" ">
<polygon fill="#e0e0e0" stroke="#999999" points="1377,-19 1264,-19 1264,0 1377,0 1377,-19"/>
<text text-anchor="middle" x="1320.5" y="-7" font-family="Helvetica,sans-Serif" font-size="10.00">cuda_runtime_api.h</text>
</a>
</g>
</g>
<!-- Node7&#45;&gt;Node8 -->
<g id="edge8_Node000007_Node000008" class="edge">
<title>Node7&#45;&gt;Node8</title>
<g id="a_edge8_Node000007_Node000008"><a xlink:title=" ">
<path fill="none" stroke="#63b8ff" d="M978.56,-56.24C981.58,-55.82 984.58,-55.4 987.5,-55 1079.83,-42.29 1186.64,-28.11 1253.88,-19.25"/>
<polygon fill="#63b8ff" stroke="#63b8ff" points="1254.46,-22.7 1263.92,-17.92 1253.55,-15.76 1254.46,-22.7"/>
</a>
</g>
</g>
<!-- Node9 -->
<g id="Node000009" class="node">
<title>Node9</title>
<g id="a_Node000009"><a xlink:title=" ">
<polygon fill="#e0e0e0" stroke="#999999" points="965.5,-19 889.5,-19 889.5,0 965.5,0 965.5,-19"/>
<text text-anchor="middle" x="927.5" y="-7" font-family="Helvetica,sans-Serif" font-size="10.00">cuda_fp16.h</text>
</a>
</g>
</g>
<!-- Node7&#45;&gt;Node9 -->
<g id="edge9_Node000007_Node000009" class="edge">
<title>Node7&#45;&gt;Node9</title>
<g id="a_edge9_Node000007_Node000009"><a xlink:title=" ">
<path fill="none" stroke="#63b8ff" d="M927.5,-54.75C927.5,-47.8 927.5,-37.85 927.5,-29.13"/>
<polygon fill="#63b8ff" stroke="#63b8ff" points="931,-29.09 927.5,-19.09 924,-29.09 931,-29.09"/>
</a>
</g>
</g>
<!-- Node11&#45;&gt;Node7 -->
<g id="edge14_Node000011_Node000007" class="edge">
<title>Node11&#45;&gt;Node7</title>
<g id="a_edge14_Node000011_Node000007"><a xlink:title=" ">
<path fill="none" stroke="#63b8ff" d="M1443.33,-115.79C1362.58,-109.77 1164.9,-94.28 988.52,-74.06"/>
<polygon fill="#63b8ff" stroke="#63b8ff" points="988.88,-70.58 978.54,-72.91 988.07,-77.53 988.88,-70.58"/>
</a>
</g>
</g>
<!-- Node11&#45;&gt;Node8 -->
<g id="edge16_Node000011_Node000008" class="edge">
<title>Node11&#45;&gt;Node8</title>
<g id="a_edge16_Node000011_Node000008"><a xlink:title=" ">
<path fill="none" stroke="#63b8ff" d="M1517.73,-113.79C1561.72,-107.37 1630.93,-94.3 1646.5,-74 1651.64,-67.3 1652.05,-61.36 1646.5,-55 1638.05,-45.32 1480.31,-27.25 1387.4,-17.38"/>
<polygon fill="#63b8ff" stroke="#63b8ff" points="1387.55,-13.87 1377.23,-16.3 1386.81,-20.83 1387.55,-13.87"/>
</a>
</g>
</g>
<!-- Node11&#45;&gt;Node10 -->
<g id="edge18_Node000011_Node000010" class="edge">
<title>Node11&#45;&gt;Node10</title>
<g id="a_edge18_Node000011_Node000010"><a xlink:title=" ">
<path fill="none" stroke="#63b8ff" d="M1452.38,-109.98C1422.88,-101.05 1376.31,-86.94 1343.53,-77.02"/>
<polygon fill="#63b8ff" stroke="#63b8ff" points="1344.42,-73.63 1333.84,-74.08 1342.39,-80.33 1344.42,-73.63"/>
</a>
</g>
</g>
<!-- Node12 -->
<g id="Node000012" class="node">
<title>Node12</title>
<g id="a_Node000012"><a xlink:title=" ">
<polygon fill="#e0e0e0" stroke="#999999" points="1418,-74 1371,-74 1371,-55 1418,-55 1418,-74"/>
<text text-anchor="middle" x="1394.5" y="-62" font-family="Helvetica,sans-Serif" font-size="10.00">float.h</text>
</a>
</g>
</g>
<!-- Node11&#45;&gt;Node12 -->
<g id="edge12_Node000011_Node000012" class="edge">
<title>Node11&#45;&gt;Node12</title>
<g id="a_edge12_Node000011_Node000012"><a xlink:title=" ">
<path fill="none" stroke="#63b8ff" d="M1466.68,-109.98C1453.35,-101.77 1432.92,-89.18 1417.19,-79.49"/>
<polygon fill="#63b8ff" stroke="#63b8ff" points="1418.92,-76.44 1408.57,-74.17 1415.25,-82.4 1418.92,-76.44"/>
</a>
</g>
</g>
<!-- Node13 -->
<g id="Node000013" class="node">
<title>Node13</title>
<g id="a_Node000013"><a xlink:title=" ">
<polygon fill="#e0e0e0" stroke="#999999" points="1784,-74 1733,-74 1733,-55 1784,-55 1784,-74"/>
<text text-anchor="middle" x="1758.5" y="-62" font-family="Helvetica,sans-Serif" font-size="10.00">math.h</text>
</a>
</g>
</g>
<!-- Node11&#45;&gt;Node13 -->
<g id="edge13_Node000011_Node000013" class="edge">
<title>Node11&#45;&gt;Node13</title>
<g id="a_edge13_Node000011_Node000013"><a xlink:title=" ">
<path fill="none" stroke="#63b8ff" d="M1517.66,-111.84C1564.53,-103.38 1647.6,-88.16 1718.5,-74 1719.94,-73.71 1721.4,-73.42 1722.88,-73.12"/>
<polygon fill="#63b8ff" stroke="#63b8ff" points="1723.62,-76.54 1732.7,-71.08 1722.2,-69.68 1723.62,-76.54"/>
</a>
</g>
</g>
<!-- Node14 -->
<g id="Node000014" class="node">
<title>Node14</title>
<g id="a_Node000014"><a xlink:title=" ">
<polygon fill="#e0e0e0" stroke="#999999" points="1525,-74 1436,-74 1436,-55 1525,-55 1525,-74"/>
<text text-anchor="middle" x="1480.5" y="-62" font-family="Helvetica,sans-Serif" font-size="10.00">vector_types.h</text>
</a>
</g>
</g>
<!-- Node11&#45;&gt;Node14 -->
<g id="edge15_Node000011_Node000014" class="edge">
<title>Node11&#45;&gt;Node14</title>
<g id="a_edge15_Node000011_Node000014"><a xlink:title=" ">
<path fill="none" stroke="#63b8ff" d="M1480.5,-109.75C1480.5,-102.8 1480.5,-92.85 1480.5,-84.13"/>
<polygon fill="#63b8ff" stroke="#63b8ff" points="1484,-84.09 1480.5,-74.09 1477,-84.09 1484,-84.09"/>
</a>
</g>
</g>
<!-- Node15 -->
<g id="Node000015" class="node">
<title>Node15</title>
<g id="a_Node000015"><a xlink:href="acreal_8h.html" target="_top" xlink:title=" ">
<polygon fill="white" stroke="#666666" points="1474.5,-19 1418.5,-19 1418.5,0 1474.5,0 1474.5,-19"/>
<text text-anchor="middle" x="1446.5" y="-7" font-family="Helvetica,sans-Serif" font-size="10.00">acreal.h</text>
</a>
</g>
</g>
<!-- Node11&#45;&gt;Node15 -->
<g id="edge17_Node000011_Node000015" class="edge">
<title>Node11&#45;&gt;Node15</title>
<g id="a_edge17_Node000011_Node000015"><a xlink:title=" ">
<path fill="none" stroke="#63b8ff" d="M1517.62,-115.67C1569.73,-110.83 1660.47,-98.98 1680.5,-74 1685.78,-67.41 1685.88,-61.51 1680.5,-55 1656.12,-25.55 1544.89,-15.43 1484.98,-12.08"/>
<polygon fill="#63b8ff" stroke="#63b8ff" points="1484.95,-8.57 1474.78,-11.54 1484.58,-15.56 1484.95,-8.57"/>
</a>
</g>
</g>
<!-- Node16 -->
<g id="Node000016" class="node">
<title>Node16</title>
<g id="a_Node000016"><a xlink:title=" ">
<polygon fill="#e0e0e0" stroke="#999999" points="1638,-74 1543,-74 1543,-55 1638,-55 1638,-74"/>
<text text-anchor="middle" x="1590.5" y="-62" font-family="Helvetica,sans-Serif" font-size="10.00">user_typedefs.h</text>
</a>
</g>
</g>
<!-- Node11&#45;&gt;Node16 -->
<g id="edge19_Node000011_Node000016" class="edge">
<title>Node11&#45;&gt;Node16</title>
<g id="a_edge19_Node000011_Node000016"><a xlink:title=" ">
<path fill="none" stroke="#63b8ff" d="M1498.17,-109.98C1515.79,-101.5 1543.08,-88.35 1563.43,-78.54"/>
<polygon fill="#63b8ff" stroke="#63b8ff" points="1565.02,-81.66 1572.51,-74.17 1561.98,-75.36 1565.02,-81.66"/>
</a>
</g>
</g>
<!-- Node17 -->
<g id="Node000017" class="node">
<title>Node17</title>
<g id="a_Node000017"><a xlink:href="host__datatypes_8h.html" target="_top" xlink:title=" ">
<polygon fill="white" stroke="#666666" points="1240,-74 1139,-74 1139,-55 1240,-55 1240,-74"/>
<text text-anchor="middle" x="1189.5" y="-62" font-family="Helvetica,sans-Serif" font-size="10.00">host_datatypes.h</text>
</a>
</g>
</g>
<!-- Node11&#45;&gt;Node17 -->
<g id="edge20_Node000011_Node000017" class="edge">
<title>Node11&#45;&gt;Node17</title>
<g id="a_edge20_Node000011_Node000017"><a xlink:title=" ">
<path fill="none" stroke="#63b8ff" d="M1443.35,-111.73C1393.63,-102.68 1304.96,-86.53 1246.68,-75.92"/>
<polygon fill="#63b8ff" stroke="#63b8ff" points="1247,-72.41 1236.53,-74.07 1245.74,-79.3 1247,-72.41"/>
</a>
</g>
</g>
<!-- Node17&#45;&gt;Node15 -->
<g id="edge21_Node000017_Node000015" class="edge">
<title>Node17&#45;&gt;Node15</title>
<g id="a_edge21_Node000017_Node000015"><a xlink:title=" ">
<path fill="none" stroke="#63b8ff" d="M1230.79,-54.98C1279.83,-44.87 1360.97,-28.14 1408.51,-18.33"/>
<polygon fill="#63b8ff" stroke="#63b8ff" points="1409.32,-21.74 1418.41,-16.29 1407.91,-14.88 1409.32,-21.74"/>
</a>
</g>
</g>
<!-- Node18 -->
<g id="Node000018" class="node">
<title>Node18</title>
<g id="a_Node000018"><a xlink:title=" ">
<polygon fill="#e0e0e0" stroke="#999999" points="841.5,-19 785.5,-19 785.5,0 841.5,0 841.5,-19"/>
<text text-anchor="middle" x="813.5" y="-7" font-family="Helvetica,sans-Serif" font-size="10.00">stddef.h</text>
</a>
</g>
</g>
<!-- Node17&#45;&gt;Node18 -->
<g id="edge22_Node000017_Node000018" class="edge">
<title>Node17&#45;&gt;Node18</title>
<g id="a_edge22_Node000017_Node000018"><a xlink:title=" ">
<path fill="none" stroke="#63b8ff" d="M1138.76,-56.31C1135.63,-55.87 1132.52,-55.43 1129.5,-55 1029.36,-40.86 911.36,-24.26 851.89,-15.9"/>
<polygon fill="#63b8ff" stroke="#63b8ff" points="852.22,-12.41 841.83,-14.48 851.24,-19.34 852.22,-12.41"/>
</a>
</g>
</g>
<!-- Node19&#45;&gt;Node4 -->
<g id="edge26_Node000019_Node000004" class="edge">
<title>Node19&#45;&gt;Node4</title>
<g id="a_edge26_Node000019_Node000004"><a xlink:title=" ">
<path fill="none" stroke="#63b8ff" d="M995.06,-112.61C990.53,-111.71 985.89,-110.81 981.5,-110 887.1,-92.48 863.01,-90.91 768.5,-74 767.4,-73.8 766.29,-73.6 765.17,-73.4"/>
<polygon fill="#63b8ff" stroke="#63b8ff" points="765.43,-69.89 754.96,-71.52 764.16,-76.77 765.43,-69.89"/>
</a>
</g>
</g>
<!-- Node19&#45;&gt;Node6 -->
<g id="edge28_Node000019_Node000006" class="edge">
<title>Node19&#45;&gt;Node6</title>
<g id="a_edge28_Node000019_Node000006"><a xlink:title=" ">
<path fill="none" stroke="#63b8ff" d="M995.37,-115.18C981.04,-113.54 963.35,-111.57 947.5,-110 768.1,-92.19 553.01,-74.83 469.78,-68.26"/>
<polygon fill="#63b8ff" stroke="#63b8ff" points="469.85,-64.75 459.61,-67.46 469.3,-71.73 469.85,-64.75"/>
</a>
</g>
</g>
<!-- Node19&#45;&gt;Node7 -->
<g id="edge31_Node000019_Node000007" class="edge">
<title>Node19&#45;&gt;Node7</title>
<g id="a_edge31_Node000019_Node000007"><a xlink:title=" ">
<path fill="none" stroke="#63b8ff" d="M1008.08,-109.98C993.05,-101.69 969.96,-88.94 952.34,-79.22"/>
<polygon fill="#63b8ff" stroke="#63b8ff" points="953.65,-75.94 943.2,-74.17 950.27,-82.07 953.65,-75.94"/>
</a>
</g>
</g>
<!-- Node19&#45;&gt;Node17 -->
<g id="edge25_Node000019_Node000017" class="edge">
<title>Node19&#45;&gt;Node17</title>
<g id="a_edge25_Node000019_Node000017"><a xlink:title=" ">
<path fill="none" stroke="#63b8ff" d="M1050.17,-109.98C1078.04,-101.09 1121.95,-87.07 1153.02,-77.15"/>
<polygon fill="#63b8ff" stroke="#63b8ff" points="1154.16,-80.46 1162.62,-74.08 1152.03,-73.79 1154.16,-80.46"/>
</a>
</g>
</g>
<!-- Node19&#45;&gt;Node18 -->
<g id="edge24_Node000019_Node000018" class="edge">
<title>Node19&#45;&gt;Node18</title>
<g id="a_edge24_Node000019_Node000018"><a xlink:title=" ">
<path fill="none" stroke="#63b8ff" d="M995.49,-112.82C990.82,-111.88 986.02,-110.91 981.5,-110 901.52,-93.91 853.22,-137.09 801.5,-74 791.08,-61.29 796.51,-42.34 803.07,-28.45"/>
<polygon fill="#63b8ff" stroke="#63b8ff" points="806.27,-29.87 807.83,-19.39 800.08,-26.62 806.27,-29.87"/>
</a>
</g>
</g>
<!-- Node20 -->
<g id="Node000020" class="node">
<title>Node20</title>
<g id="a_Node000020"><a xlink:title=" ">
<polygon fill="#e0e0e0" stroke="#999999" points="1050,-74 997,-74 997,-55 1050,-55 1050,-74"/>
<text text-anchor="middle" x="1023.5" y="-62" font-family="Helvetica,sans-Serif" font-size="10.00">stdint.h</text>
</a>
</g>
</g>
<!-- Node19&#45;&gt;Node20 -->
<g id="edge27_Node000019_Node000020" class="edge">
<title>Node19&#45;&gt;Node20</title>
<g id="a_edge27_Node000019_Node000020"><a xlink:title=" ">
<path fill="none" stroke="#63b8ff" d="M1023.5,-109.75C1023.5,-102.8 1023.5,-92.85 1023.5,-84.13"/>
<polygon fill="#63b8ff" stroke="#63b8ff" points="1027,-84.09 1023.5,-74.09 1020,-84.09 1027,-84.09"/>
</a>
</g>
</g>
<!-- Node21 -->
<g id="Node000021" class="node">
<title>Node21</title>
<g id="a_Node000021"><a xlink:title=" ">
<polygon fill="#e0e0e0" stroke="#999999" points="1121,-74 1068,-74 1068,-55 1121,-55 1121,-74"/>
<text text-anchor="middle" x="1094.5" y="-62" font-family="Helvetica,sans-Serif" font-size="10.00">stdlib.h</text>
</a>
</g>
</g>
<!-- Node19&#45;&gt;Node21 -->
<g id="edge29_Node000019_Node000021" class="edge">
<title>Node19&#45;&gt;Node21</title>
<g id="a_edge29_Node000019_Node000021"><a xlink:title=" ">
<path fill="none" stroke="#63b8ff" d="M1034.91,-109.98C1045.61,-102 1061.84,-89.88 1074.66,-80.31"/>
<polygon fill="#63b8ff" stroke="#63b8ff" points="1076.97,-82.96 1082.89,-74.17 1072.78,-77.35 1076.97,-82.96"/>
</a>
</g>
</g>
<!-- Node22 -->
<g id="Node000022" class="node">
<title>Node22</title>
<g id="a_Node000022"><a xlink:title=" ">
<polygon fill="#e0e0e0" stroke="#999999" points="858.5,-74 810.5,-74 810.5,-55 858.5,-55 858.5,-74"/>
<text text-anchor="middle" x="834.5" y="-62" font-family="Helvetica,sans-Serif" font-size="10.00">time.h</text>
</a>
</g>
</g>
<!-- Node19&#45;&gt;Node22 -->
<g id="edge30_Node000019_Node000022" class="edge">
<title>Node19&#45;&gt;Node22</title>
<g id="a_edge30_Node000019_Node000022"><a xlink:title=" ">
<path fill="none" stroke="#63b8ff" d="M995.2,-110.57C961.32,-101.06 904.61,-85.16 868.41,-75.01"/>
<polygon fill="#63b8ff" stroke="#63b8ff" points="869.35,-71.64 858.78,-72.31 867.46,-78.38 869.35,-71.64"/>
</a>
</g>
</g>
<!-- Node46 -->
<g id="Node000046" class="node">
<title>Node46</title>
<g id="a_Node000046"><a xlink:title=" ">
<polygon fill="#e0e0e0" stroke="#999999" points="1538,-195 1419,-195 1419,-165 1538,-165 1538,-195"/>
<text text-anchor="start" x="1427" y="-183" font-family="Helvetica,sans-Serif" font-size="10.00">device_load_uniform</text>
<text text-anchor="middle" x="1478.5" y="-172" font-family="Helvetica,sans-Serif" font-size="10.00">_decl.h</text>
</a>
</g>
</g>
<!-- Node45&#45;&gt;Node46 -->
<g id="edge45_Node000045_Node000046" class="edge">
<title>Node45&#45;&gt;Node46</title>
<g id="a_edge45_Node000045_Node000046"><a xlink:title=" ">
<path fill="none" stroke="#63b8ff" d="M2131.29,-231.96C2128.32,-231.61 2125.37,-231.29 2122.5,-231 1870.97,-205.64 1803.07,-227.96 1548.18,-194.95"/>
<polygon fill="#63b8ff" stroke="#63b8ff" points="1548.62,-191.48 1538.25,-193.65 1547.71,-198.42 1548.62,-191.48"/>
</a>
</g>
</g>
<!-- Node47 -->
<g id="Node000047" class="node">
<title>Node47</title>
<g id="a_Node000047"><a xlink:title=" ">
<polygon fill="#e0e0e0" stroke="#999999" points="1678.5,-195 1556.5,-195 1556.5,-165 1678.5,-165 1678.5,-195"/>
<text text-anchor="start" x="1564.5" y="-183" font-family="Helvetica,sans-Serif" font-size="10.00">device_store_uniform</text>
<text text-anchor="middle" x="1617.5" y="-172" font-family="Helvetica,sans-Serif" font-size="10.00">_decl.h</text>
</a>
</g>
</g>
<!-- Node45&#45;&gt;Node47 -->
<g id="edge46_Node000045_Node000047" class="edge">
<title>Node45&#45;&gt;Node47</title>
<g id="a_edge46_Node000045_Node000047"><a xlink:title=" ">
<path fill="none" stroke="#63b8ff" d="M2131.28,-232.03C2128.31,-231.66 2125.37,-231.32 2122.5,-231 1932.98,-209.97 1881.35,-221.65 1688.69,-195.05"/>
<polygon fill="#63b8ff" stroke="#63b8ff" points="1688.9,-191.55 1678.51,-193.63 1687.93,-198.48 1688.9,-191.55"/>
</a>
</g>
</g>
<!-- Node55&#45;&gt;Node2 -->
<g id="edge55_Node000055_Node000002" class="edge">
<title>Node55&#45;&gt;Node2</title>
<g id="a_edge55_Node000055_Node000002"><a xlink:title=" ">
<path fill="none" stroke="#63b8ff" d="M1828.81,-340.98C1816.67,-332.84 1798.14,-320.41 1783.75,-310.76"/>
<polygon fill="#63b8ff" stroke="#63b8ff" points="1785.68,-307.84 1775.42,-305.17 1781.78,-313.65 1785.68,-307.84"/>
</a>
</g>
</g>
<!-- Node56 -->
<g id="Node000056" class="node">
<title>Node56</title>
<g id="a_Node000056"><a xlink:title=" ">
<polygon fill="#e0e0e0" stroke="#999999" points="1869.5,-305 1813.5,-305 1813.5,-286 1869.5,-286 1869.5,-305"/>
<text text-anchor="middle" x="1841.5" y="-293" font-family="Helvetica,sans-Serif" font-size="10.00">stdarg.h</text>
</a>
</g>
</g>
<!-- Node55&#45;&gt;Node56 -->
<g id="edge56_Node000055_Node000056" class="edge">
<title>Node55&#45;&gt;Node56</title>
<g id="a_edge56_Node000055_Node000056"><a xlink:title=" ">
<path fill="none" stroke="#63b8ff" d="M1841.5,-340.75C1841.5,-333.8 1841.5,-323.85 1841.5,-315.13"/>
<polygon fill="#63b8ff" stroke="#63b8ff" points="1845,-315.09 1841.5,-305.09 1838,-315.09 1845,-315.09"/>
</a>
</g>
</g>
<!-- Node57 -->
<g id="Node000057" class="node">
<title>Node57</title>
<g id="a_Node000057"><a xlink:href="astaroth__lib_8h.html" target="_top" xlink:title=" ">
<polygon fill="white" stroke="#666666" points="1971,-305 1888,-305 1888,-286 1971,-286 1971,-305"/>
<text text-anchor="middle" x="1929.5" y="-293" font-family="Helvetica,sans-Serif" font-size="10.00">astaroth_lib.h</text>
</a>
</g>
</g>
<!-- Node55&#45;&gt;Node57 -->
<g id="edge57_Node000055_Node000057" class="edge">
<title>Node55&#45;&gt;Node57</title>
<g id="a_edge57_Node000055_Node000057"><a xlink:title=" ">
<path fill="none" stroke="#63b8ff" d="M1855.64,-340.98C1869.29,-332.77 1890.19,-320.18 1906.28,-310.49"/>
<polygon fill="#63b8ff" stroke="#63b8ff" points="1908.34,-313.33 1915.1,-305.17 1904.73,-307.33 1908.34,-313.33"/>
</a>
</g>
</g>
<!-- Node58&#45;&gt;Node11 -->
<g id="edge63_Node000058_Node000011" class="edge">
<title>Node58&#45;&gt;Node11</title>
<g id="a_edge63_Node000058_Node000011"><a xlink:title=" ">
<path fill="none" stroke="#63b8ff" d="M1707.42,-170.44C1700.9,-168.56 1693.98,-166.64 1687.5,-165 1633.01,-151.22 1569.78,-138.02 1527.67,-129.63"/>
<polygon fill="#63b8ff" stroke="#63b8ff" points="1528.2,-126.17 1517.71,-127.66 1526.83,-133.04 1528.2,-126.17"/>
</a>
</g>
</g>
<!-- Node58&#45;&gt;Node13 -->
<g id="edge62_Node000058_Node000013" class="edge">
<title>Node58&#45;&gt;Node13</title>
<g id="a_edge62_Node000058_Node000013"><a xlink:title=" ">
<path fill="none" stroke="#63b8ff" d="M1711.03,-170.46C1681.88,-158.86 1639.14,-136.51 1656.5,-110 1664.29,-98.1 1696.84,-85.18 1723.11,-76.34"/>
<polygon fill="#63b8ff" stroke="#63b8ff" points="1724.39,-79.6 1732.8,-73.16 1722.21,-72.95 1724.39,-79.6"/>
</a>
</g>
</g>
<!-- Node58&#45;&gt;Node19 -->
<g id="edge64_Node000058_Node000019" class="edge">
<title>Node58&#45;&gt;Node19</title>
<g id="a_edge64_Node000058_Node000019"><a xlink:title=" ">
<path fill="none" stroke="#63b8ff" d="M1710.09,-170.45C1702.87,-168.33 1694.94,-166.3 1687.5,-165 1435.27,-120.88 1367.76,-149.17 1112.5,-129 1095.9,-127.69 1077.59,-125.98 1061.92,-124.45"/>
<polygon fill="#63b8ff" stroke="#63b8ff" points="1061.84,-120.92 1051.54,-123.41 1061.14,-127.89 1061.84,-120.92"/>
</a>
</g>
</g>
<!-- Node58&#45;&gt;Node20 -->
<g id="edge60_Node000058_Node000020" class="edge">
<title>Node58&#45;&gt;Node20</title>
<g id="a_edge60_Node000058_Node000020"><a xlink:title=" ">
<path fill="none" stroke="#63b8ff" d="M1709.56,-170.47C1702.47,-168.41 1694.75,-166.39 1687.5,-165 1523.95,-133.55 1479.08,-154.53 1314.5,-129 1222.09,-114.66 1115.02,-88.89 1060.12,-75"/>
<polygon fill="#63b8ff" stroke="#63b8ff" points="1060.73,-71.54 1050.17,-72.47 1059,-78.32 1060.73,-71.54"/>
</a>
</g>
</g>
<!-- Node58&#45;&gt;Node21 -->
<g id="edge61_Node000058_Node000021" class="edge">
<title>Node58&#45;&gt;Node21</title>
<g id="a_edge61_Node000058_Node000021"><a xlink:title=" ">
<path fill="none" stroke="#63b8ff" d="M1708.76,-170.47C1701.88,-168.48 1694.46,-166.5 1687.5,-165 1576.48,-141.04 1546.63,-147.08 1434.5,-129 1301.7,-107.59 1265.93,-102.71 1131.1,-74.25"/>
<polygon fill="#63b8ff" stroke="#63b8ff" points="1131.72,-70.81 1121.22,-72.16 1130.27,-77.66 1131.72,-70.81"/>
</a>
</g>
</g>
<!-- Node58&#45;&gt;Node26 -->
<g id="edge65_Node000058_Node000026" class="edge">
<title>Node58&#45;&gt;Node26</title>
<g id="a_edge65_Node000058_Node000026"><a xlink:title=" ">
<path fill="none" stroke="#63b8ff" d="M1753.59,-170.48C1770.57,-161.83 1795.92,-147.13 1813.5,-129 1826.47,-115.62 1836.94,-97.02 1843.58,-83.41"/>
<polygon fill="#63b8ff" stroke="#63b8ff" points="1846.85,-84.69 1847.89,-74.14 1840.5,-81.73 1846.85,-84.69"/>
</a>
</g>
</g>
<!-- Node59 -->
<g id="Node000059" class="node">
<title>Node59</title>
<g id="a_Node000059"><a xlink:href="math__utils__base_8h.html" target="_top" xlink:title=" ">
<polygon fill="white" stroke="#666666" points="1967.5,-129 1861.5,-129 1861.5,-110 1967.5,-110 1967.5,-129"/>
<text text-anchor="middle" x="1914.5" y="-117" font-family="Helvetica,sans-Serif" font-size="10.00">math_utils_base.h</text>
</a>
</g>
</g>
<!-- Node58&#45;&gt;Node59 -->
<g id="edge66_Node000058_Node000059" class="edge">
<title>Node58&#45;&gt;Node59</title>
<g id="a_edge66_Node000058_Node000059"><a xlink:title=" ">
<path fill="none" stroke="#63b8ff" d="M1761.53,-170.49C1792.42,-160.4 1844.08,-143.51 1878.72,-132.19"/>
<polygon fill="#63b8ff" stroke="#63b8ff" points="1880.02,-135.45 1888.44,-129.02 1877.85,-128.8 1880.02,-135.45"/>
</a>
</g>
</g>
<!-- Node60 -->
<g id="Node000060" class="node">
<title>Node60</title>
<g id="a_Node000060"><a xlink:title=" ">
<polygon fill="#e0e0e0" stroke="#999999" points="1805,-129 1666,-129 1666,-110 1805,-110 1805,-129"/>
<text text-anchor="middle" x="1735.5" y="-117" font-family="Helvetica,sans-Serif" font-size="10.00">generated_comp_funcs.h</text>
</a>
</g>
</g>
<!-- Node58&#45;&gt;Node60 -->
<g id="edge68_Node000058_Node000060" class="edge">
<title>Node58&#45;&gt;Node60</title>
<g id="a_edge68_Node000058_Node000060"><a xlink:title=" ">
<path fill="none" stroke="#63b8ff" d="M1735.5,-170.37C1735.5,-162.25 1735.5,-149.81 1735.5,-139.39"/>
<polygon fill="#63b8ff" stroke="#63b8ff" points="1739,-139.17 1735.5,-129.17 1732,-139.17 1739,-139.17"/>
</a>
</g>
</g>
<!-- Node59&#45;&gt;Node26 -->
<g id="edge67_Node000059_Node000026" class="edge">
<title>Node59&#45;&gt;Node26</title>
<g id="a_edge67_Node000059_Node000026"><a xlink:title=" ">
<path fill="none" stroke="#63b8ff" d="M1904.38,-109.98C1895.06,-102.15 1881.03,-90.34 1869.76,-80.86"/>
<polygon fill="#63b8ff" stroke="#63b8ff" points="1871.71,-77.93 1861.81,-74.17 1867.21,-83.29 1871.71,-77.93"/>
</a>
</g>
</g>
</g>
</svg>
