<?xml version="1.0" encoding="UTF-8" standalone="no"?>
<!DOCTYPE svg PUBLIC "-//W3C//DTD SVG 1.1//EN"
 "http://www.w3.org/Graphics/SVG/1.1/DTD/svg11.dtd">
<!-- Generated by graphviz version 2.43.0 (0)
 -->
<!-- Title: acc&#45;runtime/api/vba.cc Pages: 1 -->
<svg width="2958pt" height="269pt"
 viewBox="0.00 0.00 2957.97 269.00" xmlns="http://www.w3.org/2000/svg" xmlns:xlink="http://www.w3.org/1999/xlink">
<g id="graph0" class="graph" transform="scale(1 1) rotate(0) translate(4 265)">
<title>acc&#45;runtime/api/vba.cc</title>
<!-- Node1 -->
<g id="Node000001" class="node">
<title>Node1</title>
<g id="a_Node000001"><a xlink:title=" ">
<polygon fill="#999999" stroke="#666666" points="1984,-261 1856,-261 1856,-242 1984,-242 1984,-261"/>
<text text-anchor="middle" x="1920" y="-249" font-family="Helvetica,sans-Serif" font-size="10.00">acc&#45;runtime/api/vba.cc</text>
</a>
</g>
</g>
<!-- Node2 -->
<g id="Node000002" class="node">
<title>Node2</title>
<g id="a_Node000002"><a xlink:href="acc__runtime_8h.html" target="_top" xlink:title=" ">
<polygon fill="white" stroke="#666666" points="1757,-200.5 1671,-200.5 1671,-181.5 1757,-181.5 1757,-200.5"/>
<text text-anchor="middle" x="1714" y="-188.5" font-family="Helvetica,sans-Serif" font-size="10.00">acc_runtime.h</text>
</a>
</g>
</g>
<!-- Node1&#45;&gt;Node2 -->
<g id="edge1_Node000001_Node000002" class="edge">
<title>Node1&#45;&gt;Node2</title>
<g id="a_edge1_Node000001_Node000002"><a xlink:title=" ">
<path fill="none" stroke="#63b8ff" d="M1890.05,-241.99C1854.04,-231.77 1793.5,-214.58 1753.65,-203.26"/>
<polygon fill="#63b8ff" stroke="#63b8ff" points="1754.57,-199.88 1743.99,-200.52 1752.65,-206.62 1754.57,-199.88"/>
</a>
</g>
</g>
<!-- Node40 -->
<g id="Node000040" class="node">
<title>Node40</title>
<g id="a_Node000040"><a xlink:href="math__utils_8h.html" target="_top" xlink:title="Brief info.">
<polygon fill="white" stroke="#666666" points="444.5,-200.5 367.5,-200.5 367.5,-181.5 444.5,-181.5 444.5,-200.5"/>
<text text-anchor="middle" x="406" y="-188.5" font-family="Helvetica,sans-Serif" font-size="10.00">math_utils.h</text>
</a>
</g>
</g>
<!-- Node1&#45;&gt;Node40 -->
<g id="edge48_Node000001_Node000040" class="edge">
<title>Node1&#45;&gt;Node40</title>
<g id="a_edge48_Node000001_Node000040"><a xlink:title=" ">
<path fill="none" stroke="#63b8ff" d="M1855.91,-248.02C1603.14,-238.26 678.17,-202.52 454.8,-193.89"/>
<polygon fill="#63b8ff" stroke="#63b8ff" points="454.82,-190.38 444.69,-193.5 454.55,-197.38 454.82,-190.38"/>
</a>
</g>
</g>
<!-- Node43 -->
<g id="Node000043" class="node">
<title>Node43</title>
<g id="a_Node000043"><a xlink:href="astaroth__cuda__wrappers_8h.html" target="_top" xlink:title=" ">
<polygon fill="white" stroke="#666666" points="1920.5,-200.5 1775.5,-200.5 1775.5,-181.5 1920.5,-181.5 1920.5,-200.5"/>
<text text-anchor="middle" x="1848" y="-188.5" font-family="Helvetica,sans-Serif" font-size="10.00">astaroth_cuda_wrappers.h</text>
</a>
</g>
</g>
<!-- Node1&#45;&gt;Node43 -->
<g id="edge58_Node000001_Node000043" class="edge">
<title>Node1&#45;&gt;Node43</title>
<g id="a_edge58_Node000001_Node000043"><a xlink:title=" ">
<path fill="none" stroke="#63b8ff" d="M1909.38,-241.87C1898.1,-232.71 1880.08,-218.06 1866.47,-207.01"/>
<polygon fill="#63b8ff" stroke="#63b8ff" points="1868.64,-204.26 1858.67,-200.67 1864.22,-209.69 1868.64,-204.26"/>
</a>
</g>
</g>
<!-- Node44 -->
<g id="Node000044" class="node">
<title>Node44</title>
<g id="a_Node000044"><a xlink:title=" ">
<polygon fill="#e0e0e0" stroke="#999999" points="2045.5,-200.5 1938.5,-200.5 1938.5,-181.5 2045.5,-181.5 2045.5,-200.5"/>
<text text-anchor="middle" x="1992" y="-188.5" font-family="Helvetica,sans-Serif" font-size="10.00">stencil_accesses.h</text>
</a>
</g>
</g>
<!-- Node1&#45;&gt;Node44 -->
<g id="edge60_Node000001_Node000044" class="edge">
<title>Node1&#45;&gt;Node44</title>
<g id="a_edge60_Node000001_Node000044"><a xlink:title=" ">
<path fill="none" stroke="#63b8ff" d="M1930.62,-241.87C1941.9,-232.71 1959.92,-218.06 1973.53,-207.01"/>
<polygon fill="#63b8ff" stroke="#63b8ff" points="1975.78,-209.69 1981.33,-200.67 1971.36,-204.26 1975.78,-209.69"/>
</a>
</g>
</g>
<!-- Node45 -->
<g id="Node000045" class="node">
<title>Node45</title>
<g id="a_Node000045"><a xlink:href="static__analysis_8h.html" target="_top" xlink:title=" ">
<polygon fill="white" stroke="#666666" points="2162,-200.5 2064,-200.5 2064,-181.5 2162,-181.5 2162,-200.5"/>
<text text-anchor="middle" x="2113" y="-188.5" font-family="Helvetica,sans-Serif" font-size="10.00">static_analysis.h</text>
</a>
</g>
</g>
<!-- Node1&#45;&gt;Node45 -->
<g id="edge61_Node000001_Node000045" class="edge">
<title>Node1&#45;&gt;Node45</title>
<g id="a_edge61_Node000001_Node000045"><a xlink:title=" ">
<path fill="none" stroke="#63b8ff" d="M1948.06,-241.99C1981.51,-231.86 2037.56,-214.87 2074.9,-203.55"/>
<polygon fill="#63b8ff" stroke="#63b8ff" points="2076.35,-206.77 2084.9,-200.52 2074.32,-200.07 2076.35,-206.77"/>
</a>
</g>
</g>
<!-- Node46 -->
<g id="Node000046" class="node">
<title>Node46</title>
<g id="a_Node000046"><a xlink:title=" ">
<polygon fill="#e0e0e0" stroke="#999999" points="2311.5,-206 2180.5,-206 2180.5,-176 2311.5,-176 2311.5,-206"/>
<text text-anchor="start" x="2188.5" y="-194" font-family="Helvetica,sans-Serif" font-size="10.00">user_builtin_non_scalar</text>
<text text-anchor="middle" x="2246" y="-183" font-family="Helvetica,sans-Serif" font-size="10.00">_constants.h</text>
</a>
</g>
</g>
<!-- Node1&#45;&gt;Node46 -->
<g id="edge62_Node000001_Node000046" class="edge">
<title>Node1&#45;&gt;Node46</title>
<g id="a_edge62_Node000001_Node000046"><a xlink:title=" ">
<path fill="none" stroke="#63b8ff" d="M1969.08,-241.93C2017.52,-233.45 2093.98,-219.98 2169.93,-206.18"/>
<polygon fill="#63b8ff" stroke="#63b8ff" points="2170.94,-209.56 2180.16,-204.33 2169.69,-202.67 2170.94,-209.56"/>
</a>
</g>
</g>
<!-- Node3 -->
<g id="Node000003" class="node">
<title>Node3</title>
<g id="a_Node000003"><a xlink:title=" ">
<polygon fill="#e0e0e0" stroke="#999999" points="559,-74 509,-74 509,-55 559,-55 559,-74"/>
<text text-anchor="middle" x="534" y="-62" font-family="Helvetica,sans-Serif" font-size="10.00">stdio.h</text>
</a>
</g>
</g>
<!-- Node2&#45;&gt;Node3 -->
<g id="edge2_Node000002_Node000003" class="edge">
<title>Node2&#45;&gt;Node3</title>
<g id="a_edge2_Node000002_Node000003"><a xlink:title=" ">
<path fill="none" stroke="#63b8ff" d="M1670.7,-189.28C1468.18,-185.77 622.34,-169.4 575,-140 555.06,-127.62 544.07,-101.88 538.61,-84.15"/>
<polygon fill="#63b8ff" stroke="#63b8ff" points="541.93,-83.04 535.89,-74.34 535.19,-84.91 541.93,-83.04"/>
</a>
</g>
</g>
<!-- Node4 -->
<g id="Node000004" class="node">
<title>Node4</title>
<g id="a_Node000004"><a xlink:title=" ">
<polygon fill="#e0e0e0" stroke="#999999" points="1008,-74 946,-74 946,-55 1008,-55 1008,-74"/>
<text text-anchor="middle" x="977" y="-62" font-family="Helvetica,sans-Serif" font-size="10.00">stdbool.h</text>
</a>
</g>
</g>
<!-- Node2&#45;&gt;Node4 -->
<g id="edge3_Node000002_Node000004" class="edge">
<title>Node2&#45;&gt;Node4</title>
<g id="a_edge3_Node000002_Node000004"><a xlink:title=" ">
<path fill="none" stroke="#63b8ff" d="M1743.58,-181.5C1750.87,-179.55 1758.69,-177.59 1766,-176 1864.51,-154.62 2052.94,-182.6 1983,-110 1947.12,-72.76 1134.12,-79.98 1018.53,-73.51"/>
<polygon fill="#63b8ff" stroke="#63b8ff" points="1018.6,-70 1008.36,-72.7 1018.05,-76.98 1018.6,-70"/>
</a>
</g>
</g>
<!-- Node5 -->
<g id="Node000005" class="node">
<title>Node5</title>
<g id="a_Node000005"><a xlink:href="device__headers_8h.html" target="_top" xlink:title=" ">
<polygon fill="white" stroke="#666666" points="1242,-74 1140,-74 1140,-55 1242,-55 1242,-74"/>
<text text-anchor="middle" x="1191" y="-62" font-family="Helvetica,sans-Serif" font-size="10.00">device_headers.h</text>
</a>
</g>
</g>
<!-- Node2&#45;&gt;Node5 -->
<g id="edge4_Node000002_Node000005" class="edge">
<title>Node2&#45;&gt;Node5</title>
<g id="a_edge4_Node000002_Node000005"><a xlink:title=" ">
<path fill="none" stroke="#63b8ff" d="M1743.28,-181.46C1750.65,-179.49 1758.58,-177.53 1766,-176 1878.56,-152.83 2095.04,-193.42 2016,-110 1989.81,-82.36 1439.37,-69.96 1252.47,-66.53"/>
<polygon fill="#63b8ff" stroke="#63b8ff" points="1252.32,-63.03 1242.26,-66.34 1252.2,-70.02 1252.32,-63.03"/>
</a>
</g>
</g>
<!-- Node8 -->
<g id="Node000008" class="node">
<title>Node8</title>
<g id="a_Node000008"><a xlink:title=" ">
<polygon fill="#e0e0e0" stroke="#999999" points="2185.5,-74 2090.5,-74 2090.5,-55 2185.5,-55 2185.5,-74"/>
<text text-anchor="middle" x="2138" y="-62" font-family="Helvetica,sans-Serif" font-size="10.00">builtin_enums.h</text>
</a>
</g>
</g>
<!-- Node2&#45;&gt;Node8 -->
<g id="edge7_Node000002_Node000008" class="edge">
<title>Node2&#45;&gt;Node8</title>
<g id="a_edge7_Node000002_Node000008"><a xlink:title=" ">
<path fill="none" stroke="#63b8ff" d="M1741.01,-181.45C1748.98,-179.28 1757.77,-177.22 1766,-176 1830.72,-166.43 2897.45,-186.96 2943,-140 2952.28,-130.43 2952.16,-119.68 2943,-110 2917.36,-82.9 2375.92,-70.07 2195.74,-66.54"/>
<polygon fill="#63b8ff" stroke="#63b8ff" points="2195.73,-63.04 2185.66,-66.35 2195.59,-70.04 2195.73,-63.04"/>
</a>
</g>
</g>
<!-- Node9 -->
<g id="Node000009" class="node">
<title>Node9</title>
<g id="a_Node000009"><a xlink:href="datatypes_8h.html" target="_top" xlink:title=" ">
<polygon fill="white" stroke="#666666" points="658,-134.5 584,-134.5 584,-115.5 658,-115.5 658,-134.5"/>
<text text-anchor="middle" x="621" y="-122.5" font-family="Helvetica,sans-Serif" font-size="10.00">datatypes.h</text>
</a>
</g>
</g>
<!-- Node2&#45;&gt;Node9 -->
<g id="edge8_Node000002_Node000009" class="edge">
<title>Node2&#45;&gt;Node9</title>
<g id="a_edge8_Node000002_Node000009"><a xlink:title=" ">
<path fill="none" stroke="#63b8ff" d="M1670.88,-189.36C1499.3,-186.61 864.8,-174.27 667,-140 663.04,-139.31 658.95,-138.39 654.9,-137.34"/>
<polygon fill="#63b8ff" stroke="#63b8ff" points="655.65,-133.92 645.08,-134.55 653.74,-140.65 655.65,-133.92"/>
</a>
</g>
</g>
<!-- Node17 -->
<g id="Node000017" class="node">
<title>Node17</title>
<g id="a_Node000017"><a xlink:href="errchk_8h.html" target="_top" xlink:title="Brief info.">
<polygon fill="white" stroke="#666666" points="528,-134.5 472,-134.5 472,-115.5 528,-115.5 528,-134.5"/>
<text text-anchor="middle" x="500" y="-122.5" font-family="Helvetica,sans-Serif" font-size="10.00">errchk.h</text>
</a>
</g>
</g>
<!-- Node2&#45;&gt;Node17 -->
<g id="edge20_Node000002_Node000017" class="edge">
<title>Node2&#45;&gt;Node17</title>
<g id="a_edge20_Node000002_Node000017"><a xlink:title=" ">
<path fill="none" stroke="#63b8ff" d="M1670.8,-189.77C1486.46,-188.52 764.94,-181.07 542,-140 538.57,-139.37 535.04,-138.52 531.54,-137.55"/>
<polygon fill="#63b8ff" stroke="#63b8ff" points="532.52,-134.19 521.93,-134.59 530.46,-140.88 532.52,-134.19"/>
</a>
</g>
</g>
<!-- Node21 -->
<g id="Node000021" class="node">
<title>Node21</title>
<g id="a_Node000021"><a xlink:title=" ">
<polygon fill="#e0e0e0" stroke="#999999" points="763.5,-134.5 676.5,-134.5 676.5,-115.5 763.5,-115.5 763.5,-134.5"/>
<text text-anchor="middle" x="720" y="-122.5" font-family="Helvetica,sans-Serif" font-size="10.00">user_defines.h</text>
</a>
</g>
</g>
<!-- Node2&#45;&gt;Node21 -->
<g id="edge29_Node000002_Node000021" class="edge">
<title>Node2&#45;&gt;Node21</title>
<g id="a_edge29_Node000002_Node000021"><a xlink:title=" ">
<path fill="none" stroke="#63b8ff" d="M1670.98,-188.89C1510.88,-184.56 949.67,-167.73 773,-140 768.14,-139.24 763.09,-138.21 758.11,-137.06"/>
<polygon fill="#63b8ff" stroke="#63b8ff" points="758.65,-133.59 748.1,-134.57 756.96,-140.38 758.65,-133.59"/>
</a>
</g>
</g>
<!-- Node22 -->
<g id="Node000022" class="node">
<title>Node22</title>
<g id="a_Node000022"><a xlink:title=" ">
<polygon fill="#e0e0e0" stroke="#999999" points="868,-134.5 782,-134.5 782,-115.5 868,-115.5 868,-134.5"/>
<text text-anchor="middle" x="825" y="-122.5" font-family="Helvetica,sans-Serif" font-size="10.00">profiles_info.h</text>
</a>
</g>
</g>
<!-- Node2&#45;&gt;Node22 -->
<g id="edge30_Node000002_Node000022" class="edge">
<title>Node2&#45;&gt;Node22</title>
<g id="a_edge30_Node000002_Node000022"><a xlink:title=" ">
<path fill="none" stroke="#63b8ff" d="M1670.98,-190.5C1546.9,-191.28 1178.01,-188.99 877,-140 872.23,-139.22 867.27,-138.19 862.39,-137.04"/>
<polygon fill="#63b8ff" stroke="#63b8ff" points="863.12,-133.61 852.57,-134.54 861.4,-140.4 863.12,-133.61"/>
</a>
</g>
</g>
<!-- Node23 -->
<g id="Node000023" class="node">
<title>Node23</title>
<g id="a_Node000023"><a xlink:title=" ">
<polygon fill="#e0e0e0" stroke="#999999" points="1025.5,-134.5 886.5,-134.5 886.5,-115.5 1025.5,-115.5 1025.5,-134.5"/>
<text text-anchor="middle" x="956" y="-122.5" font-family="Helvetica,sans-Serif" font-size="10.00">user_built&#45;in_constants.h</text>
</a>
</g>
</g>
<!-- Node2&#45;&gt;Node23 -->
<g id="edge31_Node000002_Node000023" class="edge">
<title>Node2&#45;&gt;Node23</title>
<g id="a_edge31_Node000002_Node000023"><a xlink:title=" ">
<path fill="none" stroke="#63b8ff" d="M1670.88,-188.39C1563.14,-184.03 1273.58,-170.23 1034,-140 1025.85,-138.97 1017.26,-137.66 1008.87,-136.26"/>
<polygon fill="#63b8ff" stroke="#63b8ff" points="1009.24,-132.77 998.79,-134.51 1008.04,-139.67 1009.24,-132.77"/>
</a>
</g>
</g>
<!-- Node24 -->
<g id="Node000024" class="node">
<title>Node24</title>
<g id="a_Node000024"><a xlink:href="func__attributes_8h.html" target="_top" xlink:title=" ">
<polygon fill="white" stroke="#666666" points="175.5,-74 76.5,-74 76.5,-55 175.5,-55 175.5,-74"/>
<text text-anchor="middle" x="126" y="-62" font-family="Helvetica,sans-Serif" font-size="10.00">func_attributes.h</text>
</a>
</g>
</g>
<!-- Node2&#45;&gt;Node24 -->
<g id="edge32_Node000002_Node000024" class="edge">
<title>Node2&#45;&gt;Node24</title>
<g id="a_edge32_Node000002_Node000024"><a xlink:title=" ">
<path fill="none" stroke="#63b8ff" d="M1670.89,-189.52C1479.26,-187.2 703.53,-175.75 463,-140 410.75,-132.23 399.47,-121.86 348,-110 291.91,-97.07 227.36,-84.38 182.37,-75.87"/>
<polygon fill="#63b8ff" stroke="#63b8ff" points="182.99,-72.43 172.51,-74.02 181.69,-79.31 182.99,-72.43"/>
</a>
</g>
</g>
<!-- Node25 -->
<g id="Node000025" class="node">
<title>Node25</title>
<g id="a_Node000025"><a xlink:title=" ">
<polygon fill="#e0e0e0" stroke="#999999" points="1168.5,-134.5 1043.5,-134.5 1043.5,-115.5 1168.5,-115.5 1168.5,-134.5"/>
<text text-anchor="middle" x="1106" y="-122.5" font-family="Helvetica,sans-Serif" font-size="10.00">user_input_typedefs.h</text>
</a>
</g>
</g>
<!-- Node2&#45;&gt;Node25 -->
<g id="edge33_Node000002_Node000025" class="edge">
<title>Node2&#45;&gt;Node25</title>
<g id="a_edge33_Node000002_Node000025"><a xlink:title=" ">
<path fill="none" stroke="#63b8ff" d="M1670.67,-187.47C1579.15,-181.79 1359.55,-166.43 1177,-140 1170.15,-139.01 1162.96,-137.8 1155.89,-136.5"/>
<polygon fill="#63b8ff" stroke="#63b8ff" points="1156.16,-132.99 1145.68,-134.57 1154.85,-139.87 1156.16,-132.99"/>
</a>
</g>
</g>
<!-- Node26 -->
<g id="Node000026" class="node">
<title>Node26</title>
<g id="a_Node000026"><a xlink:title=" ">
<polygon fill="#e0e0e0" stroke="#999999" points="1269.5,-134.5 1186.5,-134.5 1186.5,-115.5 1269.5,-115.5 1269.5,-134.5"/>
<text text-anchor="middle" x="1228" y="-122.5" font-family="Helvetica,sans-Serif" font-size="10.00">output_decl.h</text>
</a>
</g>
</g>
<!-- Node2&#45;&gt;Node26 -->
<g id="edge34_Node000002_Node000026" class="edge">
<title>Node2&#45;&gt;Node26</title>
<g id="a_edge34_Node000002_Node000026"><a xlink:title=" ">
<path fill="none" stroke="#63b8ff" d="M1670.75,-187.24C1592.18,-181.73 1420.99,-167.48 1279,-140 1274.79,-139.19 1270.42,-138.2 1266.09,-137.14"/>
<polygon fill="#63b8ff" stroke="#63b8ff" points="1266.7,-133.68 1256.14,-134.56 1264.94,-140.46 1266.7,-133.68"/>
</a>
</g>
</g>
<!-- Node27 -->
<g id="Node000027" class="node">
<title>Node27</title>
<g id="a_Node000027"><a xlink:title=" ">
<polygon fill="#e0e0e0" stroke="#999999" points="1404,-134.5 1288,-134.5 1288,-115.5 1404,-115.5 1404,-134.5"/>
<text text-anchor="middle" x="1346" y="-122.5" font-family="Helvetica,sans-Serif" font-size="10.00">comp_loaded_decl.h</text>
</a>
</g>
</g>
<!-- Node2&#45;&gt;Node27 -->
<g id="edge35_Node000002_Node000027" class="edge">
<title>Node2&#45;&gt;Node27</title>
<g id="a_edge35_Node000002_Node000027"><a xlink:title=" ">
<path fill="none" stroke="#63b8ff" d="M1670.79,-183.4C1612.24,-174.32 1504.51,-157.15 1413,-140 1407.31,-138.93 1401.37,-137.77 1395.46,-136.58"/>
<polygon fill="#63b8ff" stroke="#63b8ff" points="1396.12,-133.14 1385.63,-134.56 1394.72,-140 1396.12,-133.14"/>
</a>
</g>
</g>
<!-- Node28 -->
<g id="Node000028" class="node">
<title>Node28</title>
<g id="a_Node000028"><a xlink:title=" ">
<polygon fill="#e0e0e0" stroke="#999999" points="1500,-134.5 1422,-134.5 1422,-115.5 1500,-115.5 1500,-134.5"/>
<text text-anchor="middle" x="1461" y="-122.5" font-family="Helvetica,sans-Serif" font-size="10.00">comp_decl.h</text>
</a>
</g>
</g>
<!-- Node2&#45;&gt;Node28 -->
<g id="edge36_Node000002_Node000028" class="edge">
<title>Node2&#45;&gt;Node28</title>
<g id="a_edge36_Node000002_Node000028"><a xlink:title=" ">
<path fill="none" stroke="#63b8ff" d="M1676.84,-181.46C1635.67,-171.88 1567.39,-155.63 1509,-140 1505.81,-139.15 1502.52,-138.24 1499.21,-137.31"/>
<polygon fill="#63b8ff" stroke="#63b8ff" points="1499.95,-133.88 1489.37,-134.5 1498.02,-140.61 1499.95,-133.88"/>
</a>
</g>
</g>
<!-- Node29 -->
<g id="Node000029" class="node">
<title>Node29</title>
<g id="a_Node000029"><a xlink:title=" ">
<polygon fill="#e0e0e0" stroke="#999999" points="1626,-134.5 1518,-134.5 1518,-115.5 1626,-115.5 1626,-134.5"/>
<text text-anchor="middle" x="1572" y="-122.5" font-family="Helvetica,sans-Serif" font-size="10.00">info_loaded_decl.h</text>
</a>
</g>
</g>
<!-- Node2&#45;&gt;Node29 -->
<g id="edge37_Node000002_Node000029" class="edge">
<title>Node2&#45;&gt;Node29</title>
<g id="a_edge37_Node000002_Node000029"><a xlink:title=" ">
<path fill="none" stroke="#63b8ff" d="M1694.85,-181.37C1670.61,-170.44 1628.63,-151.52 1600.59,-138.88"/>
<polygon fill="#63b8ff" stroke="#63b8ff" points="1601.86,-135.62 1591.3,-134.7 1598.98,-142 1601.86,-135.62"/>
</a>
</g>
</g>
<!-- Node30 -->
<g id="Node000030" class="node">
<title>Node30</title>
<g id="a_Node000030"><a xlink:title=" ">
<polygon fill="#e0e0e0" stroke="#999999" points="1784,-134.5 1644,-134.5 1644,-115.5 1784,-115.5 1784,-134.5"/>
<text text-anchor="middle" x="1714" y="-122.5" font-family="Helvetica,sans-Serif" font-size="10.00">device_mesh_info_decl.h</text>
</a>
</g>
</g>
<!-- Node2&#45;&gt;Node30 -->
<g id="edge38_Node000002_Node000030" class="edge">
<title>Node2&#45;&gt;Node30</title>
<g id="a_edge38_Node000002_Node000030"><a xlink:title=" ">
<path fill="none" stroke="#63b8ff" d="M1714,-181.37C1714,-172.16 1714,-157.29 1714,-145.27"/>
<polygon fill="#63b8ff" stroke="#63b8ff" points="1717.5,-144.91 1714,-134.91 1710.5,-144.91 1717.5,-144.91"/>
</a>
</g>
</g>
<!-- Node31 -->
<g id="Node000031" class="node">
<title>Node31</title>
<g id="a_Node000031"><a xlink:title=" ">
<polygon fill="#e0e0e0" stroke="#999999" points="1879.5,-134.5 1802.5,-134.5 1802.5,-115.5 1879.5,-115.5 1879.5,-134.5"/>
<text text-anchor="middle" x="1841" y="-122.5" font-family="Helvetica,sans-Serif" font-size="10.00">array_decl.h</text>
</a>
</g>
</g>
<!-- Node2&#45;&gt;Node31 -->
<g id="edge39_Node000002_Node000031" class="edge">
<title>Node2&#45;&gt;Node31</title>
<g id="a_edge39_Node000002_Node000031"><a xlink:title=" ">
<path fill="none" stroke="#63b8ff" d="M1731.13,-181.37C1752.62,-170.54 1789.7,-151.85 1814.77,-139.22"/>
<polygon fill="#63b8ff" stroke="#63b8ff" points="1816.38,-142.32 1823.74,-134.7 1813.23,-136.07 1816.38,-142.32"/>
</a>
</g>
</g>
<!-- Node32 -->
<g id="Node000032" class="node">
<title>Node32</title>
<g id="a_Node000032"><a xlink:title=" ">
<polygon fill="#e0e0e0" stroke="#999999" points="1974,-134.5 1898,-134.5 1898,-115.5 1974,-115.5 1974,-134.5"/>
<text text-anchor="middle" x="1936" y="-122.5" font-family="Helvetica,sans-Serif" font-size="10.00">input_decl.h</text>
</a>
</g>
</g>
<!-- Node2&#45;&gt;Node32 -->
<g id="edge40_Node000002_Node000032" class="edge">
<title>Node2&#45;&gt;Node32</title>
<g id="a_edge40_Node000002_Node000032"><a xlink:title=" ">
<path fill="none" stroke="#63b8ff" d="M1743.88,-181.45C1778.55,-171.53 1837.43,-154.64 1888,-140 1890.95,-139.15 1894,-138.26 1897.06,-137.37"/>
<polygon fill="#63b8ff" stroke="#63b8ff" points="1898.19,-140.69 1906.81,-134.53 1896.23,-133.97 1898.19,-140.69"/>
</a>
</g>
</g>
<!-- Node33 -->
<g id="Node000033" class="node">
<title>Node33</title>
<g id="a_Node000033"><a xlink:href="ac__helpers_8h.html" target="_top" xlink:title=" ">
<polygon fill="white" stroke="#666666" points="2146,-134.5 2068,-134.5 2068,-115.5 2146,-115.5 2146,-134.5"/>
<text text-anchor="middle" x="2107" y="-122.5" font-family="Helvetica,sans-Serif" font-size="10.00">ac_helpers.h</text>
</a>
</g>
</g>
<!-- Node2&#45;&gt;Node33 -->
<g id="edge41_Node000002_Node000033" class="edge">
<title>Node2&#45;&gt;Node33</title>
<g id="a_edge41_Node000002_Node000033"><a xlink:title=" ">
<path fill="none" stroke="#63b8ff" d="M1742.99,-181.43C1750.44,-179.44 1758.48,-177.48 1766,-176 1892.58,-151.17 1927.36,-164.53 2054,-140 2058.43,-139.14 2063.04,-138.12 2067.6,-137.03"/>
<polygon fill="#63b8ff" stroke="#63b8ff" points="2068.6,-140.39 2077.45,-134.55 2066.9,-133.6 2068.6,-140.39"/>
</a>
</g>
</g>
<!-- Node34 -->
<g id="Node000034" class="node">
<title>Node34</title>
<g id="a_Node000034"><a xlink:title=" ">
<polygon fill="#e0e0e0" stroke="#999999" points="2282,-140 2164,-140 2164,-110 2282,-110 2282,-140"/>
<text text-anchor="start" x="2172" y="-128" font-family="Helvetica,sans-Serif" font-size="10.00">scalar_reduce_buffer</text>
<text text-anchor="middle" x="2223" y="-117" font-family="Helvetica,sans-Serif" font-size="10.00">_defs.h</text>
</a>
</g>
</g>
<!-- Node2&#45;&gt;Node34 -->
<g id="edge42_Node000002_Node000034" class="edge">
<title>Node2&#45;&gt;Node34</title>
<g id="a_edge42_Node000002_Node000034"><a xlink:title=" ">
<path fill="none" stroke="#63b8ff" d="M1742.14,-181.49C1749.82,-179.42 1758.18,-177.4 1766,-176 1933.72,-145.89 1981.5,-164.81 2153.82,-140.06"/>
<polygon fill="#63b8ff" stroke="#63b8ff" points="2154.34,-143.52 2163.73,-138.61 2153.33,-136.59 2154.34,-143.52"/>
</a>
</g>
</g>
<!-- Node35 -->
<g id="Node000035" class="node">
<title>Node35</title>
<g id="a_Node000035"><a xlink:title=" ">
<polygon fill="#e0e0e0" stroke="#999999" points="2423.5,-140 2300.5,-140 2300.5,-110 2423.5,-110 2423.5,-140"/>
<text text-anchor="start" x="2308.5" y="-128" font-family="Helvetica,sans-Serif" font-size="10.00">scalar_reduce_buffers</text>
<text text-anchor="middle" x="2362" y="-117" font-family="Helvetica,sans-Serif" font-size="10.00">_in_vba.h</text>
</a>
</g>
</g>
<!-- Node2&#45;&gt;Node35 -->
<g id="edge43_Node000002_Node000035" class="edge">
<title>Node2&#45;&gt;Node35</title>
<g id="a_edge43_Node000002_Node000035"><a xlink:title=" ">
<path fill="none" stroke="#63b8ff" d="M1741.85,-181.43C1749.6,-179.34 1758.07,-177.33 1766,-176 1993.41,-137.96 2057.34,-169.76 2289.99,-140"/>
<polygon fill="#63b8ff" stroke="#63b8ff" points="2290.66,-143.44 2300.12,-138.68 2289.75,-136.5 2290.66,-143.44"/>
</a>
</g>
</g>
<!-- Node36 -->
<g id="Node000036" class="node">
<title>Node36</title>
<g id="a_Node000036"><a xlink:href="astaroth__analysis_8h.html" target="_top" xlink:title=" ">
<polygon fill="white" stroke="#666666" points="2554,-134.5 2442,-134.5 2442,-115.5 2554,-115.5 2554,-134.5"/>
<text text-anchor="middle" x="2498" y="-122.5" font-family="Helvetica,sans-Serif" font-size="10.00">astaroth_analysis.h</text>
</a>
</g>
</g>
<!-- Node2&#45;&gt;Node36 -->
<g id="edge44_Node000002_Node000036" class="edge">
<title>Node2&#45;&gt;Node36</title>
<g id="a_edge44_Node000002_Node000036"><a xlink:title=" ">
<path fill="none" stroke="#63b8ff" d="M1741.56,-181.43C1749.39,-179.31 1757.97,-177.28 1766,-176 2058.72,-129.21 2138.13,-178.87 2432,-140 2438.79,-139.1 2445.92,-137.88 2452.88,-136.54"/>
<polygon fill="#63b8ff" stroke="#63b8ff" points="2453.79,-139.92 2462.9,-134.5 2452.4,-133.07 2453.79,-139.92"/>
</a>
</g>
</g>
<!-- Node37 -->
<g id="Node000037" class="node">
<title>Node37</title>
<g id="a_Node000037"><a xlink:href="func__define_8h.html" target="_top" xlink:title=" ">
<polygon fill="white" stroke="#666666" points="2654,-134.5 2572,-134.5 2572,-115.5 2654,-115.5 2654,-134.5"/>
<text text-anchor="middle" x="2613" y="-122.5" font-family="Helvetica,sans-Serif" font-size="10.00">func_define.h</text>
</a>
</g>
</g>
<!-- Node2&#45;&gt;Node37 -->
<g id="edge45_Node000002_Node000037" class="edge">
<title>Node2&#45;&gt;Node37</title>
<g id="a_edge45_Node000002_Node000037"><a xlink:title=" ">
<path fill="none" stroke="#63b8ff" d="M1741.29,-181.46C1749.18,-179.31 1757.87,-177.26 1766,-176 2116.38,-121.59 2212.89,-196.17 2563,-140 2567.53,-139.27 2572.23,-138.28 2576.86,-137.16"/>
<polygon fill="#63b8ff" stroke="#63b8ff" points="2578,-140.48 2586.78,-134.55 2576.22,-133.71 2578,-140.48"/>
</a>
</g>
</g>
<!-- Node38 -->
<g id="Node000038" class="node">
<title>Node38</title>
<g id="a_Node000038"><a xlink:href="common__kernels_8h.html" target="_top" xlink:title=" ">
<polygon fill="white" stroke="#666666" points="2781.5,-134.5 2672.5,-134.5 2672.5,-115.5 2781.5,-115.5 2781.5,-134.5"/>
<text text-anchor="middle" x="2727" y="-122.5" font-family="Helvetica,sans-Serif" font-size="10.00">common_kernels.h</text>
</a>
</g>
</g>
<!-- Node2&#45;&gt;Node38 -->
<g id="edge46_Node000002_Node000038" class="edge">
<title>Node2&#45;&gt;Node38</title>
<g id="a_edge46_Node000002_Node000038"><a xlink:title=" ">
<path fill="none" stroke="#63b8ff" d="M1741.28,-181.43C1749.18,-179.28 1757.87,-177.24 1766,-176 2160.41,-115.76 2267.26,-190.83 2663,-140 2669.67,-139.14 2676.67,-137.94 2683.5,-136.58"/>
<polygon fill="#63b8ff" stroke="#63b8ff" points="2684.25,-140 2693.31,-134.53 2682.81,-133.15 2684.25,-140"/>
</a>
</g>
</g>
<!-- Node39 -->
<g id="Node000039" class="node">
<title>Node39</title>
<g id="a_Node000039"><a xlink:title=" ">
<polygon fill="#e0e0e0" stroke="#999999" points="2934,-140 2800,-140 2800,-110 2934,-110 2934,-140"/>
<text text-anchor="start" x="2808" y="-128" font-family="Helvetica,sans-Serif" font-size="10.00">load_and_store_uniform</text>
<text text-anchor="middle" x="2867" y="-117" font-family="Helvetica,sans-Serif" font-size="10.00">_header.h</text>
</a>
</g>
</g>
<!-- Node2&#45;&gt;Node39 -->
<g id="edge47_Node000002_Node000039" class="edge">
<title>Node2&#45;&gt;Node39</title>
<g id="a_edge47_Node000002_Node000039"><a xlink:title=" ">
<path fill="none" stroke="#63b8ff" d="M1741.01,-181.48C1748.98,-179.3 1757.77,-177.24 1766,-176 2213.48,-108.8 2336.06,-188.24 2789.84,-139.99"/>
<polygon fill="#63b8ff" stroke="#63b8ff" points="2790.37,-143.46 2799.94,-138.91 2789.62,-136.5 2790.37,-143.46"/>
</a>
</g>
</g>
<!-- Node6 -->
<g id="Node000006" class="node">
<title>Node6</title>
<g id="a_Node000006"><a xlink:title=" ">
<polygon fill="#e0e0e0" stroke="#999999" points="1000.5,-19 887.5,-19 887.5,0 1000.5,0 1000.5,-19"/>
<text text-anchor="middle" x="944" y="-7" font-family="Helvetica,sans-Serif" font-size="10.00">cuda_runtime_api.h</text>
</a>
</g>
</g>
<!-- Node5&#45;&gt;Node6 -->
<g id="edge5_Node000005_Node000006" class="edge">
<title>Node5&#45;&gt;Node6</title>
<g id="a_edge5_Node000005_Node000006"><a xlink:title=" ">
<path fill="none" stroke="#63b8ff" d="M1151.32,-54.98C1108.5,-45.8 1040.24,-31.15 993.84,-21.19"/>
<polygon fill="#63b8ff" stroke="#63b8ff" points="994.51,-17.76 984,-19.08 993.04,-24.6 994.51,-17.76"/>
</a>
</g>
</g>
<!-- Node7 -->
<g id="Node000007" class="node">
<title>Node7</title>
<g id="a_Node000007"><a xlink:title=" ">
<polygon fill="#e0e0e0" stroke="#999999" points="1229,-19 1153,-19 1153,0 1229,0 1229,-19"/>
<text text-anchor="middle" x="1191" y="-7" font-family="Helvetica,sans-Serif" font-size="10.00">cuda_fp16.h</text>
</a>
</g>
</g>
<!-- Node5&#45;&gt;Node7 -->
<g id="edge6_Node000005_Node000007" class="edge">
<title>Node5&#45;&gt;Node7</title>
<g id="a_edge6_Node000005_Node000007"><a xlink:title=" ">
<path fill="none" stroke="#63b8ff" d="M1191,-54.75C1191,-47.8 1191,-37.85 1191,-29.13"/>
<polygon fill="#63b8ff" stroke="#63b8ff" points="1194.5,-29.09 1191,-19.09 1187.5,-29.09 1194.5,-29.09"/>
</a>
</g>
</g>
<!-- Node9&#45;&gt;Node5 -->
<g id="edge11_Node000009_Node000005" class="edge">
<title>Node9&#45;&gt;Node5</title>
<g id="a_edge11_Node000009_Node000005"><a xlink:title=" ">
<path fill="none" stroke="#63b8ff" d="M645.58,-115.44C652.44,-113.35 659.95,-111.33 667,-110 866.65,-72.32 923.05,-95.5 1129.81,-73.93"/>
<polygon fill="#63b8ff" stroke="#63b8ff" points="1130.2,-77.41 1139.77,-72.87 1129.46,-70.45 1130.2,-77.41"/>
</a>
</g>
</g>
<!-- Node9&#45;&gt;Node6 -->
<g id="edge13_Node000009_Node000006" class="edge">
<title>Node9&#45;&gt;Node6</title>
<g id="a_edge13_Node000009_Node000006"><a xlink:title=" ">
<path fill="none" stroke="#63b8ff" d="M649.2,-115.35C655.08,-113.57 661.24,-111.71 667,-110 722.01,-93.65 737.45,-94.64 791,-74 808.99,-67.06 812.34,-62.73 830,-55 856.79,-43.27 887.72,-31.29 910.6,-22.72"/>
<polygon fill="#63b8ff" stroke="#63b8ff" points="912.04,-25.92 920.19,-19.15 909.6,-19.36 912.04,-25.92"/>
</a>
</g>
</g>
<!-- Node9&#45;&gt;Node8 -->
<g id="edge15_Node000009_Node000008" class="edge">
<title>Node9&#45;&gt;Node8</title>
<g id="a_edge15_Node000009_Node000008"><a xlink:title=" ">
<path fill="none" stroke="#63b8ff" d="M645.06,-115.36C652.05,-113.22 659.75,-111.19 667,-110 807.97,-86.84 1825.34,-70.18 2080.22,-66.34"/>
<polygon fill="#63b8ff" stroke="#63b8ff" points="2080.43,-69.84 2090.37,-66.19 2080.32,-62.84 2080.43,-69.84"/>
</a>
</g>
</g>
<!-- Node10 -->
<g id="Node000010" class="node">
<title>Node10</title>
<g id="a_Node000010"><a xlink:title=" ">
<polygon fill="#e0e0e0" stroke="#999999" points="782.5,-74 735.5,-74 735.5,-55 782.5,-55 782.5,-74"/>
<text text-anchor="middle" x="759" y="-62" font-family="Helvetica,sans-Serif" font-size="10.00">float.h</text>
</a>
</g>
</g>
<!-- Node9&#45;&gt;Node10 -->
<g id="edge9_Node000009_Node000010" class="edge">
<title>Node9&#45;&gt;Node10</title>
<g id="a_edge9_Node000009_Node000010"><a xlink:title=" ">
<path fill="none" stroke="#63b8ff" d="M641.07,-115.49C664.37,-105.62 703.01,-89.23 729.68,-77.93"/>
<polygon fill="#63b8ff" stroke="#63b8ff" points="731.07,-81.14 738.91,-74.02 728.34,-74.7 731.07,-81.14"/>
</a>
</g>
</g>
<!-- Node11 -->
<g id="Node000011" class="node">
<title>Node11</title>
<g id="a_Node000011"><a xlink:title=" ">
<polygon fill="#e0e0e0" stroke="#999999" points="386.5,-74 335.5,-74 335.5,-55 386.5,-55 386.5,-74"/>
<text text-anchor="middle" x="361" y="-62" font-family="Helvetica,sans-Serif" font-size="10.00">math.h</text>
</a>
</g>
</g>
<!-- Node9&#45;&gt;Node11 -->
<g id="edge10_Node000009_Node000011" class="edge">
<title>Node9&#45;&gt;Node11</title>
<g id="a_edge10_Node000009_Node000011"><a xlink:title=" ">
<path fill="none" stroke="#63b8ff" d="M583.92,-115.99C541.29,-106.74 468.94,-90.87 396.78,-74.14"/>
<polygon fill="#63b8ff" stroke="#63b8ff" points="397.13,-70.63 386.6,-71.78 395.55,-77.45 397.13,-70.63"/>
</a>
</g>
</g>
<!-- Node12 -->
<g id="Node000012" class="node">
<title>Node12</title>
<g id="a_Node000012"><a xlink:title=" ">
<polygon fill="#e0e0e0" stroke="#999999" points="928.5,-74 839.5,-74 839.5,-55 928.5,-55 928.5,-74"/>
<text text-anchor="middle" x="884" y="-62" font-family="Helvetica,sans-Serif" font-size="10.00">vector_types.h</text>
</a>
</g>
</g>
<!-- Node9&#45;&gt;Node12 -->
<g id="edge12_Node000009_Node000012" class="edge">
<title>Node9&#45;&gt;Node12</title>
<g id="a_edge12_Node000009_Node000012"><a xlink:title=" ">
<path fill="none" stroke="#63b8ff" d="M647.64,-115.43C653.95,-113.53 660.69,-111.6 667,-110 721.81,-96.07 785.25,-83.46 829.32,-75.25"/>
<polygon fill="#63b8ff" stroke="#63b8ff" points="830.06,-78.68 839.25,-73.41 828.78,-71.79 830.06,-78.68"/>
</a>
</g>
</g>
<!-- Node13 -->
<g id="Node000013" class="node">
<title>Node13</title>
<g id="a_Node000013"><a xlink:href="acreal_8h.html" target="_top" xlink:title=" ">
<polygon fill="white" stroke="#666666" points="695,-19 639,-19 639,0 695,0 695,-19"/>
<text text-anchor="middle" x="667" y="-7" font-family="Helvetica,sans-Serif" font-size="10.00">acreal.h</text>
</a>
</g>
</g>
<!-- Node9&#45;&gt;Node13 -->
<g id="edge14_Node000009_Node000013" class="edge">
<title>Node9&#45;&gt;Node13</title>
<g id="a_edge14_Node000009_Node000013"><a xlink:title=" ">
<path fill="none" stroke="#63b8ff" d="M640.33,-115.48C656.11,-107.34 677.34,-93.44 687,-74 694.45,-59.01 687.07,-40.65 679.25,-27.54"/>
<polygon fill="#63b8ff" stroke="#63b8ff" points="682.09,-25.49 673.69,-19.04 676.24,-29.32 682.09,-25.49"/>
</a>
</g>
</g>
<!-- Node14 -->
<g id="Node000014" class="node">
<title>Node14</title>
<g id="a_Node000014"><a xlink:title=" ">
<polygon fill="#e0e0e0" stroke="#999999" points="1121.5,-74 1026.5,-74 1026.5,-55 1121.5,-55 1121.5,-74"/>
<text text-anchor="middle" x="1074" y="-62" font-family="Helvetica,sans-Serif" font-size="10.00">user_typedefs.h</text>
</a>
</g>
</g>
<!-- Node9&#45;&gt;Node14 -->
<g id="edge16_Node000009_Node000014" class="edge">
<title>Node9&#45;&gt;Node14</title>
<g id="a_edge16_Node000009_Node000014"><a xlink:title=" ">
<path fill="none" stroke="#63b8ff" d="M646.08,-115.41C652.81,-113.37 660.13,-111.39 667,-110 817.15,-79.72 860.1,-92.96 1016.46,-73.99"/>
<polygon fill="#63b8ff" stroke="#63b8ff" points="1016.94,-77.46 1026.44,-72.76 1016.08,-70.51 1016.94,-77.46"/>
</a>
</g>
</g>
<!-- Node15 -->
<g id="Node000015" class="node">
<title>Node15</title>
<g id="a_Node000015"><a xlink:href="host__datatypes_8h.html" target="_top" xlink:title=" ">
<polygon fill="white" stroke="#666666" points="678.5,-74 577.5,-74 577.5,-55 678.5,-55 678.5,-74"/>
<text text-anchor="middle" x="628" y="-62" font-family="Helvetica,sans-Serif" font-size="10.00">host_datatypes.h</text>
</a>
</g>
</g>
<!-- Node9&#45;&gt;Node15 -->
<g id="edge17_Node000009_Node000015" class="edge">
<title>Node9&#45;&gt;Node15</title>
<g id="a_edge17_Node000009_Node000015"><a xlink:title=" ">
<path fill="none" stroke="#63b8ff" d="M622.03,-115.37C623,-107.25 624.49,-94.81 625.74,-84.39"/>
<polygon fill="#63b8ff" stroke="#63b8ff" points="629.25,-84.51 626.96,-74.17 622.3,-83.68 629.25,-84.51"/>
</a>
</g>
</g>
<!-- Node15&#45;&gt;Node13 -->
<g id="edge18_Node000015_Node000013" class="edge">
<title>Node15&#45;&gt;Node13</title>
<g id="a_edge18_Node000015_Node000013"><a xlink:title=" ">
<path fill="none" stroke="#63b8ff" d="M634.44,-54.75C639.89,-47.34 647.86,-36.5 654.56,-27.41"/>
<polygon fill="#63b8ff" stroke="#63b8ff" points="657.57,-29.22 660.68,-19.09 651.93,-25.07 657.57,-29.22"/>
</a>
</g>
</g>
<!-- Node16 -->
<g id="Node000016" class="node">
<title>Node16</title>
<g id="a_Node000016"><a xlink:title=" ">
<polygon fill="#e0e0e0" stroke="#999999" points="585,-19 529,-19 529,0 585,0 585,-19"/>
<text text-anchor="middle" x="557" y="-7" font-family="Helvetica,sans-Serif" font-size="10.00">stddef.h</text>
</a>
</g>
</g>
<!-- Node15&#45;&gt;Node16 -->
<g id="edge19_Node000015_Node000016" class="edge">
<title>Node15&#45;&gt;Node16</title>
<g id="a_edge19_Node000015_Node000016"><a xlink:title=" ">
<path fill="none" stroke="#63b8ff" d="M616.59,-54.98C605.89,-47 589.66,-34.88 576.84,-25.31"/>
<polygon fill="#63b8ff" stroke="#63b8ff" points="578.72,-22.35 568.61,-19.17 574.53,-27.96 578.72,-22.35"/>
</a>
</g>
</g>
<!-- Node17&#45;&gt;Node3 -->
<g id="edge25_Node000017_Node000003" class="edge">
<title>Node17&#45;&gt;Node3</title>
<g id="a_edge25_Node000017_Node000003"><a xlink:title=" ">
<path fill="none" stroke="#63b8ff" d="M505.02,-115.37C509.94,-106.9 517.59,-93.74 523.79,-83.07"/>
<polygon fill="#63b8ff" stroke="#63b8ff" points="526.96,-84.57 528.96,-74.17 520.91,-81.05 526.96,-84.57"/>
</a>
</g>
</g>
<!-- Node17&#45;&gt;Node4 -->
<g id="edge23_Node000017_Node000004" class="edge">
<title>Node17&#45;&gt;Node4</title>
<g id="a_edge23_Node000017_Node000004"><a xlink:title=" ">
<path fill="none" stroke="#63b8ff" d="M528.04,-118.18C542.09,-115.41 559.4,-112.23 575,-110 731.78,-87.61 775.46,-98.38 935.42,-74.08"/>
<polygon fill="#63b8ff" stroke="#63b8ff" points="936.27,-77.49 945.62,-72.51 935.2,-70.57 936.27,-77.49"/>
</a>
</g>
</g>
<!-- Node17&#45;&gt;Node5 -->
<g id="edge28_Node000017_Node000005" class="edge">
<title>Node17&#45;&gt;Node5</title>
<g id="a_edge28_Node000017_Node000005"><a xlink:title=" ">
<path fill="none" stroke="#63b8ff" d="M528.01,-117.95C542.05,-115.12 559.36,-111.96 575,-110 817.03,-79.67 882.38,-98.56 1129.76,-73.93"/>
<polygon fill="#63b8ff" stroke="#63b8ff" points="1130.18,-77.4 1139.78,-72.92 1129.48,-70.44 1130.18,-77.4"/>
</a>
</g>
</g>
<!-- Node17&#45;&gt;Node15 -->
<g id="edge22_Node000017_Node000015" class="edge">
<title>Node17&#45;&gt;Node15</title>
<g id="a_edge22_Node000017_Node000015"><a xlink:title=" ">
<path fill="none" stroke="#63b8ff" d="M518.61,-115.49C540.04,-105.7 575.44,-89.52 600.15,-78.23"/>
<polygon fill="#63b8ff" stroke="#63b8ff" points="601.72,-81.36 609.37,-74.02 598.82,-74.99 601.72,-81.36"/>
</a>
</g>
</g>
<!-- Node17&#45;&gt;Node16 -->
<g id="edge21_Node000017_Node000016" class="edge">
<title>Node17&#45;&gt;Node16</title>
<g id="a_edge21_Node000017_Node000016"><a xlink:title=" ">
<path fill="none" stroke="#63b8ff" d="M497.71,-115.4C494.56,-101.79 490.33,-74.81 500,-55 506.3,-42.09 518.35,-31.83 529.76,-24.43"/>
<polygon fill="#63b8ff" stroke="#63b8ff" points="531.86,-27.25 538.65,-19.12 528.27,-21.25 531.86,-27.25"/>
</a>
</g>
</g>
<!-- Node18 -->
<g id="Node000018" class="node">
<title>Node18</title>
<g id="a_Node000018"><a xlink:title=" ">
<polygon fill="#e0e0e0" stroke="#999999" points="317.5,-74 264.5,-74 264.5,-55 317.5,-55 317.5,-74"/>
<text text-anchor="middle" x="291" y="-62" font-family="Helvetica,sans-Serif" font-size="10.00">stdint.h</text>
</a>
</g>
</g>
<!-- Node17&#45;&gt;Node18 -->
<g id="edge24_Node000017_Node000018" class="edge">
<title>Node17&#45;&gt;Node18</title>
<g id="a_edge24_Node000017_Node000018"><a xlink:title=" ">
<path fill="none" stroke="#63b8ff" d="M471.81,-116.11C434.53,-105.67 368.74,-87.26 327.64,-75.75"/>
<polygon fill="#63b8ff" stroke="#63b8ff" points="328.32,-72.31 317.75,-72.99 326.44,-79.05 328.32,-72.31"/>
</a>
</g>
</g>
<!-- Node19 -->
<g id="Node000019" class="node">
<title>Node19</title>
<g id="a_Node000019"><a xlink:title=" ">
<polygon fill="#e0e0e0" stroke="#999999" points="246.5,-74 193.5,-74 193.5,-55 246.5,-55 246.5,-74"/>
<text text-anchor="middle" x="220" y="-62" font-family="Helvetica,sans-Serif" font-size="10.00">stdlib.h</text>
</a>
</g>
</g>
<!-- Node17&#45;&gt;Node19 -->
<g id="edge26_Node000017_Node000019" class="edge">
<title>Node17&#45;&gt;Node19</title>
<g id="a_edge26_Node000017_Node000019"><a xlink:title=" ">
<path fill="none" stroke="#63b8ff" d="M471.63,-118.56C427.66,-110.06 340.16,-92.84 256.63,-74.31"/>
<polygon fill="#63b8ff" stroke="#63b8ff" points="257.25,-70.86 246.73,-72.1 255.73,-77.69 257.25,-70.86"/>
</a>
</g>
</g>
<!-- Node20 -->
<g id="Node000020" class="node">
<title>Node20</title>
<g id="a_Node000020"><a xlink:title=" ">
<polygon fill="#e0e0e0" stroke="#999999" points="453,-74 405,-74 405,-55 453,-55 453,-74"/>
<text text-anchor="middle" x="429" y="-62" font-family="Helvetica,sans-Serif" font-size="10.00">time.h</text>
</a>
</g>
</g>
<!-- Node17&#45;&gt;Node20 -->
<g id="edge27_Node000017_Node000020" class="edge">
<title>Node17&#45;&gt;Node20</title>
<g id="a_edge27_Node000017_Node000020"><a xlink:title=" ">
<path fill="none" stroke="#63b8ff" d="M489.52,-115.37C478.51,-106.3 460.96,-91.84 447.59,-80.82"/>
<polygon fill="#63b8ff" stroke="#63b8ff" points="449.46,-77.83 439.52,-74.17 445.01,-83.23 449.46,-77.83"/>
</a>
</g>
</g>
<!-- Node40&#45;&gt;Node9 -->
<g id="edge52_Node000040_Node000009" class="edge">
<title>Node40&#45;&gt;Node9</title>
<g id="a_edge52_Node000040_Node000009"><a xlink:title=" ">
<path fill="none" stroke="#63b8ff" d="M435,-181.37C473.09,-170.03 540.11,-150.08 582.44,-137.48"/>
<polygon fill="#63b8ff" stroke="#63b8ff" points="583.54,-140.8 592.12,-134.6 581.54,-134.1 583.54,-140.8"/>
</a>
</g>
</g>
<!-- Node40&#45;&gt;Node11 -->
<g id="edge51_Node000040_Node000011" class="edge">
<title>Node40&#45;&gt;Node11</title>
<g id="a_edge51_Node000040_Node000011"><a xlink:title=" ">
<path fill="none" stroke="#63b8ff" d="M410.94,-181.09C418.73,-165.75 431.82,-133.73 420,-110 413.43,-96.82 400.9,-86.52 389.07,-79.16"/>
<polygon fill="#63b8ff" stroke="#63b8ff" points="390.68,-76.05 380.27,-74.1 387.2,-82.12 390.68,-76.05"/>
</a>
</g>
</g>
<!-- Node40&#45;&gt;Node17 -->
<g id="edge53_Node000040_Node000017" class="edge">
<title>Node40&#45;&gt;Node17</title>
<g id="a_edge53_Node000040_Node000017"><a xlink:title=" ">
<path fill="none" stroke="#63b8ff" d="M418.68,-181.37C434.09,-170.87 460.35,-153 478.85,-140.4"/>
<polygon fill="#63b8ff" stroke="#63b8ff" points="480.93,-143.22 487.22,-134.7 476.99,-137.43 480.93,-143.22"/>
</a>
</g>
</g>
<!-- Node40&#45;&gt;Node18 -->
<g id="edge49_Node000040_Node000018" class="edge">
<title>Node40&#45;&gt;Node18</title>
<g id="a_edge49_Node000040_Node000018"><a xlink:title=" ">
<path fill="none" stroke="#63b8ff" d="M400.94,-181.47C391.62,-166.16 370.63,-133.45 348,-110 337.27,-98.88 323.68,-88.17 312.46,-80.04"/>
<polygon fill="#63b8ff" stroke="#63b8ff" points="314.26,-77.02 304.07,-74.11 310.22,-82.74 314.26,-77.02"/>
</a>
</g>
</g>
<!-- Node40&#45;&gt;Node19 -->
<g id="edge50_Node000040_Node000019" class="edge">
<title>Node40&#45;&gt;Node19</title>
<g id="a_edge50_Node000040_Node000019"><a xlink:title=" ">
<path fill="none" stroke="#63b8ff" d="M367.47,-186.68C311.66,-180.98 212.63,-167.23 191,-140 177.31,-122.76 191.72,-98.28 204.66,-82.15"/>
<polygon fill="#63b8ff" stroke="#63b8ff" points="207.67,-84.02 211.51,-74.15 202.35,-79.47 207.67,-84.02"/>
</a>
</g>
</g>
<!-- Node40&#45;&gt;Node24 -->
<g id="edge54_Node000040_Node000024" class="edge">
<title>Node40&#45;&gt;Node24</title>
<g id="a_edge54_Node000040_Node000024"><a xlink:title=" ">
<path fill="none" stroke="#63b8ff" d="M367.25,-189.34C319.97,-186.84 239.26,-176.94 182,-140 160.29,-126 143.88,-100.48 134.6,-83.26"/>
<polygon fill="#63b8ff" stroke="#63b8ff" points="137.65,-81.53 129.97,-74.23 131.42,-84.73 137.65,-81.53"/>
</a>
</g>
</g>
<!-- Node41 -->
<g id="Node000041" class="node">
<title>Node41</title>
<g id="a_Node000041"><a xlink:href="math__utils__base_8h.html" target="_top" xlink:title=" ">
<polygon fill="white" stroke="#666666" points="106,-134.5 0,-134.5 0,-115.5 106,-115.5 106,-134.5"/>
<text text-anchor="middle" x="53" y="-122.5" font-family="Helvetica,sans-Serif" font-size="10.00">math_utils_base.h</text>
</a>
</g>
</g>
<!-- Node40&#45;&gt;Node41 -->
<g id="edge55_Node000040_Node000041" class="edge">
<title>Node40&#45;&gt;Node41</title>
<g id="a_edge55_Node000040_Node000041"><a xlink:title=" ">
<path fill="none" stroke="#63b8ff" d="M367.07,-183.61C311.96,-174.47 208.12,-156.9 120,-140 114.32,-138.91 108.37,-137.73 102.47,-136.53"/>
<polygon fill="#63b8ff" stroke="#63b8ff" points="103.14,-133.09 92.64,-134.51 101.73,-139.95 103.14,-133.09"/>
</a>
</g>
</g>
<!-- Node42 -->
<g id="Node000042" class="node">
<title>Node42</title>
<g id="a_Node000042"><a xlink:title=" ">
<polygon fill="#e0e0e0" stroke="#999999" points="339.5,-134.5 200.5,-134.5 200.5,-115.5 339.5,-115.5 339.5,-134.5"/>
<text text-anchor="middle" x="270" y="-122.5" font-family="Helvetica,sans-Serif" font-size="10.00">generated_comp_funcs.h</text>
</a>
</g>
</g>
<!-- Node40&#45;&gt;Node42 -->
<g id="edge57_Node000040_Node000042" class="edge">
<title>Node40&#45;&gt;Node42</title>
<g id="a_edge57_Node000040_Node000042"><a xlink:title=" ">
<path fill="none" stroke="#63b8ff" d="M387.66,-181.37C364.54,-170.49 324.59,-151.69 297.73,-139.05"/>
<polygon fill="#63b8ff" stroke="#63b8ff" points="299.02,-135.79 288.49,-134.7 296.04,-142.12 299.02,-135.79"/>
</a>
</g>
</g>
<!-- Node41&#45;&gt;Node24 -->
<g id="edge56_Node000041_Node000024" class="edge">
<title>Node41&#45;&gt;Node24</title>
<g id="a_edge56_Node000041_Node000024"><a xlink:title=" ">
<path fill="none" stroke="#63b8ff" d="M63.77,-115.37C75.2,-106.21 93.48,-91.56 107.28,-80.51"/>
<polygon fill="#63b8ff" stroke="#63b8ff" points="109.57,-83.15 115.18,-74.17 105.19,-77.69 109.57,-83.15"/>
</a>
</g>
</g>
<!-- Node43&#45;&gt;Node5 -->
<g id="edge59_Node000043_Node000005" class="edge">
<title>Node43&#45;&gt;Node5</title>
<g id="a_edge59_Node000043_Node000005"><a xlink:title=" ">
<path fill="none" stroke="#63b8ff" d="M1890.73,-181.5C1903.03,-179.35 1916.51,-177.3 1929,-176 1985.07,-170.19 2903.85,-180.56 2943,-140 2952.26,-130.41 2952.31,-119.55 2943,-110 2912.88,-79.1 1559.55,-68.02 1252.51,-65.9"/>
<polygon fill="#63b8ff" stroke="#63b8ff" points="1252.48,-62.4 1242.45,-65.83 1252.43,-69.4 1252.48,-62.4"/>
</a>
</g>
</g>
</g>
</svg>
