<?xml version="1.0" encoding="UTF-8" standalone="no"?>
<!DOCTYPE svg PUBLIC "-//W3C//DTD SVG 1.1//EN"
 "http://www.w3.org/Graphics/SVG/1.1/DTD/svg11.dtd">
<!-- Generated by graphviz version 2.43.0 (0)
 -->
<!-- Title: acc&#45;runtime/api/vba.cc Pages: 1 -->
<svg width="3224pt" height="269pt"
 viewBox="0.00 0.00 3223.50 269.00" xmlns="http://www.w3.org/2000/svg" xmlns:xlink="http://www.w3.org/1999/xlink">
<g id="graph0" class="graph" transform="scale(1 1) rotate(0) translate(4 265)">
<title>acc&#45;runtime/api/vba.cc</title>
<!-- Node1 -->
<g id="Node000001" class="node">
<title>Node1</title>
<g id="a_Node000001"><a xlink:title=" ">
<polygon fill="#999999" stroke="#666666" points="1713.5,-261 1585.5,-261 1585.5,-242 1713.5,-242 1713.5,-261"/>
<text text-anchor="middle" x="1649.5" y="-249" font-family="Helvetica,sans-Serif" font-size="10.00">acc&#45;runtime/api/vba.cc</text>
</a>
</g>
</g>
<!-- Node2 -->
<g id="Node000002" class="node">
<title>Node2</title>
<g id="a_Node000002"><a xlink:href="acc__runtime_8h.html" target="_top" xlink:title=" ">
<polygon fill="white" stroke="#666666" points="1635.5,-200.5 1549.5,-200.5 1549.5,-181.5 1635.5,-181.5 1635.5,-200.5"/>
<text text-anchor="middle" x="1592.5" y="-188.5" font-family="Helvetica,sans-Serif" font-size="10.00">acc_runtime.h</text>
</a>
</g>
</g>
<!-- Node1&#45;&gt;Node2 -->
<g id="edge1_Node000001_Node000002" class="edge">
<title>Node1&#45;&gt;Node2</title>
<g id="a_edge1_Node000001_Node000002"><a xlink:title=" ">
<path fill="none" stroke="#63b8ff" d="M1641.09,-241.87C1632.42,-232.97 1618.7,-218.89 1608.04,-207.95"/>
<polygon fill="#63b8ff" stroke="#63b8ff" points="1610.43,-205.39 1600.95,-200.67 1605.42,-210.27 1610.43,-205.39"/>
</a>
</g>
</g>
<!-- Node41 -->
<g id="Node000041" class="node">
<title>Node41</title>
<g id="a_Node000041"><a xlink:href="math__utils_8h.html" target="_top" xlink:title="Brief info.">
<polygon fill="white" stroke="#666666" points="546,-200.5 469,-200.5 469,-181.5 546,-181.5 546,-200.5"/>
<text text-anchor="middle" x="507.5" y="-188.5" font-family="Helvetica,sans-Serif" font-size="10.00">math_utils.h</text>
</a>
</g>
</g>
<!-- Node1&#45;&gt;Node41 -->
<g id="edge49_Node000001_Node000041" class="edge">
<title>Node1&#45;&gt;Node41</title>
<g id="a_edge49_Node000001_Node000041"><a xlink:title=" ">
<path fill="none" stroke="#63b8ff" d="M1585.24,-247.21C1379.27,-236.66 738.36,-203.83 556.22,-194.5"/>
<polygon fill="#63b8ff" stroke="#63b8ff" points="556.31,-191 546.14,-193.98 555.95,-197.99 556.31,-191"/>
</a>
</g>
</g>
<!-- Node44 -->
<g id="Node000044" class="node">
<title>Node44</title>
<g id="a_Node000044"><a xlink:href="astaroth__cuda__wrappers_8h.html" target="_top" xlink:title=" ">
<polygon fill="white" stroke="#666666" points="1116,-200.5 971,-200.5 971,-181.5 1116,-181.5 1116,-200.5"/>
<text text-anchor="middle" x="1043.5" y="-188.5" font-family="Helvetica,sans-Serif" font-size="10.00">astaroth_cuda_wrappers.h</text>
</a>
</g>
</g>
<!-- Node1&#45;&gt;Node44 -->
<g id="edge59_Node000001_Node000044" class="edge">
<title>Node1&#45;&gt;Node44</title>
<g id="a_edge59_Node000001_Node000044"><a xlink:title=" ">
<path fill="none" stroke="#63b8ff" d="M1585.22,-244.29C1474.71,-233.63 1248.81,-211.82 1126.54,-200.02"/>
<polygon fill="#63b8ff" stroke="#63b8ff" points="1126.77,-196.52 1116.48,-199.04 1126.1,-203.49 1126.77,-196.52"/>
</a>
</g>
</g>
<!-- Node45 -->
<g id="Node000045" class="node">
<title>Node45</title>
<g id="a_Node000045"><a xlink:title=" ">
<polygon fill="#e0e0e0" stroke="#999999" points="1761,-200.5 1654,-200.5 1654,-181.5 1761,-181.5 1761,-200.5"/>
<text text-anchor="middle" x="1707.5" y="-188.5" font-family="Helvetica,sans-Serif" font-size="10.00">stencil_accesses.h</text>
</a>
</g>
</g>
<!-- Node1&#45;&gt;Node45 -->
<g id="edge61_Node000001_Node000045" class="edge">
<title>Node1&#45;&gt;Node45</title>
<g id="a_edge61_Node000001_Node000045"><a xlink:title=" ">
<path fill="none" stroke="#63b8ff" d="M1658.06,-241.87C1666.88,-232.97 1680.84,-218.89 1691.68,-207.95"/>
<polygon fill="#63b8ff" stroke="#63b8ff" points="1694.35,-210.23 1698.91,-200.67 1689.38,-205.3 1694.35,-210.23"/>
</a>
</g>
</g>
<!-- Node46 -->
<g id="Node000046" class="node">
<title>Node46</title>
<g id="a_Node000046"><a xlink:href="static__analysis_8h.html" target="_top" xlink:title=" ">
<polygon fill="white" stroke="#666666" points="1877.5,-200.5 1779.5,-200.5 1779.5,-181.5 1877.5,-181.5 1877.5,-200.5"/>
<text text-anchor="middle" x="1828.5" y="-188.5" font-family="Helvetica,sans-Serif" font-size="10.00">static_analysis.h</text>
</a>
</g>
</g>
<!-- Node1&#45;&gt;Node46 -->
<g id="edge62_Node000001_Node000046" class="edge">
<title>Node1&#45;&gt;Node46</title>
<g id="a_edge62_Node000001_Node000046"><a xlink:title=" ">
<path fill="none" stroke="#63b8ff" d="M1675.53,-241.99C1706.42,-231.9 1758.08,-215.01 1792.72,-203.69"/>
<polygon fill="#63b8ff" stroke="#63b8ff" points="1794.02,-206.95 1802.44,-200.52 1791.85,-200.3 1794.02,-206.95"/>
</a>
</g>
</g>
<!-- Node47 -->
<g id="Node000047" class="node">
<title>Node47</title>
<g id="a_Node000047"><a xlink:title=" ">
<polygon fill="#e0e0e0" stroke="#999999" points="2027,-206 1896,-206 1896,-176 2027,-176 2027,-206"/>
<text text-anchor="start" x="1904" y="-194" font-family="Helvetica,sans-Serif" font-size="10.00">user_builtin_non_scalar</text>
<text text-anchor="middle" x="1961.5" y="-183" font-family="Helvetica,sans-Serif" font-size="10.00">_constants.h</text>
</a>
</g>
</g>
<!-- Node1&#45;&gt;Node47 -->
<g id="edge63_Node000001_Node000047" class="edge">
<title>Node1&#45;&gt;Node47</title>
<g id="a_edge63_Node000001_Node000047"><a xlink:title=" ">
<path fill="none" stroke="#63b8ff" d="M1694.87,-241.99C1744.87,-232.62 1826.13,-217.38 1885.82,-206.19"/>
<polygon fill="#63b8ff" stroke="#63b8ff" points="1886.76,-209.57 1895.95,-204.29 1885.47,-202.69 1886.76,-209.57"/>
</a>
</g>
</g>
<!-- Node3 -->
<g id="Node000003" class="node">
<title>Node3</title>
<g id="a_Node000003"><a xlink:title=" ">
<polygon fill="#e0e0e0" stroke="#999999" points="1278.5,-74 1228.5,-74 1228.5,-55 1278.5,-55 1278.5,-74"/>
<text text-anchor="middle" x="1253.5" y="-62" font-family="Helvetica,sans-Serif" font-size="10.00">stdio.h</text>
</a>
</g>
</g>
<!-- Node2&#45;&gt;Node3 -->
<g id="edge2_Node000002_Node000003" class="edge">
<title>Node2&#45;&gt;Node3</title>
<g id="a_edge2_Node000002_Node000003"><a xlink:title=" ">
<path fill="none" stroke="#63b8ff" d="M1549.24,-186.03C1502.57,-180.49 1426.95,-167.78 1367.5,-140 1347.69,-130.74 1346.6,-122.27 1328.5,-110 1312.15,-98.92 1292.99,-87.58 1278.13,-79.12"/>
<polygon fill="#63b8ff" stroke="#63b8ff" points="1279.49,-75.87 1269.06,-74.01 1276.05,-81.97 1279.49,-75.87"/>
</a>
</g>
</g>
<!-- Node4 -->
<g id="Node000004" class="node">
<title>Node4</title>
<g id="a_Node000004"><a xlink:title=" ">
<polygon fill="#e0e0e0" stroke="#999999" points="1784.5,-74 1722.5,-74 1722.5,-55 1784.5,-55 1784.5,-74"/>
<text text-anchor="middle" x="1753.5" y="-62" font-family="Helvetica,sans-Serif" font-size="10.00">stdbool.h</text>
</a>
</g>
</g>
<!-- Node2&#45;&gt;Node4 -->
<g id="edge3_Node000002_Node000004" class="edge">
<title>Node2&#45;&gt;Node4</title>
<g id="a_edge3_Node000002_Node000004"><a xlink:title=" ">
<path fill="none" stroke="#63b8ff" d="M1620.89,-181.44C1628.79,-179.35 1637.42,-177.33 1645.5,-176 1703.41,-166.46 2132.44,-182.89 2172.5,-140 2181.6,-130.26 2181.42,-119.91 2172.5,-110 2147.52,-82.22 1895.63,-70.44 1794.85,-66.81"/>
<polygon fill="#63b8ff" stroke="#63b8ff" points="1794.85,-63.31 1784.74,-66.46 1794.61,-70.31 1794.85,-63.31"/>
</a>
</g>
</g>
<!-- Node5 -->
<g id="Node000005" class="node">
<title>Node5</title>
<g id="a_Node000005"><a xlink:href="device__headers_8h.html" target="_top" xlink:title=" ">
<polygon fill="white" stroke="#666666" points="763.5,-74 661.5,-74 661.5,-55 763.5,-55 763.5,-74"/>
<text text-anchor="middle" x="712.5" y="-62" font-family="Helvetica,sans-Serif" font-size="10.00">device_headers.h</text>
</a>
</g>
</g>
<!-- Node2&#45;&gt;Node5 -->
<g id="edge4_Node000002_Node000005" class="edge">
<title>Node2&#45;&gt;Node5</title>
<g id="a_edge4_Node000002_Node000005"><a xlink:title=" ">
<path fill="none" stroke="#63b8ff" d="M1549.39,-188.72C1381.19,-183.59 776.64,-163.54 743.5,-140 725.51,-127.22 717.92,-101.97 714.75,-84.43"/>
<polygon fill="#63b8ff" stroke="#63b8ff" points="718.16,-83.6 713.23,-74.22 711.24,-84.63 718.16,-83.6"/>
</a>
</g>
</g>
<!-- Node8 -->
<g id="Node000008" class="node">
<title>Node8</title>
<g id="a_Node000008"><a xlink:title=" ">
<polygon fill="#e0e0e0" stroke="#999999" points="643,-74 548,-74 548,-55 643,-55 643,-74"/>
<text text-anchor="middle" x="595.5" y="-62" font-family="Helvetica,sans-Serif" font-size="10.00">builtin_enums.h</text>
</a>
</g>
</g>
<!-- Node2&#45;&gt;Node8 -->
<g id="edge7_Node000002_Node000008" class="edge">
<title>Node2&#45;&gt;Node8</title>
<g id="a_edge7_Node000002_Node000008"><a xlink:title=" ">
<path fill="none" stroke="#63b8ff" d="M1549.4,-188.76C1384.42,-183.83 798.2,-164.73 718.5,-140 677.87,-127.39 636.84,-98.57 613.94,-80.7"/>
<polygon fill="#63b8ff" stroke="#63b8ff" points="615.82,-77.72 605.82,-74.22 611.46,-83.19 615.82,-77.72"/>
</a>
</g>
</g>
<!-- Node9 -->
<g id="Node000009" class="node">
<title>Node9</title>
<g id="a_Node000009"><a xlink:href="datatypes_8h.html" target="_top" xlink:title=" ">
<polygon fill="white" stroke="#666666" points="544.5,-134.5 470.5,-134.5 470.5,-115.5 544.5,-115.5 544.5,-134.5"/>
<text text-anchor="middle" x="507.5" y="-122.5" font-family="Helvetica,sans-Serif" font-size="10.00">datatypes.h</text>
</a>
</g>
</g>
<!-- Node2&#45;&gt;Node9 -->
<g id="edge8_Node000002_Node000009" class="edge">
<title>Node2&#45;&gt;Node9</title>
<g id="a_edge8_Node000002_Node000009"><a xlink:title=" ">
<path fill="none" stroke="#63b8ff" d="M1549.34,-188.44C1383.31,-182.36 785.61,-159.57 596.5,-140 582.86,-138.59 568.13,-136.5 554.65,-134.37"/>
<polygon fill="#63b8ff" stroke="#63b8ff" points="555.06,-130.89 544.63,-132.74 553.93,-137.8 555.06,-130.89"/>
</a>
</g>
</g>
<!-- Node17 -->
<g id="Node000017" class="node">
<title>Node17</title>
<g id="a_Node000017"><a xlink:href="errchk_8h.html" target="_top" xlink:title="Brief info.">
<polygon fill="white" stroke="#666666" points="808.5,-134.5 752.5,-134.5 752.5,-115.5 808.5,-115.5 808.5,-134.5"/>
<text text-anchor="middle" x="780.5" y="-122.5" font-family="Helvetica,sans-Serif" font-size="10.00">errchk.h</text>
</a>
</g>
</g>
<!-- Node2&#45;&gt;Node17 -->
<g id="edge20_Node000002_Node000017" class="edge">
<title>Node2&#45;&gt;Node17</title>
<g id="a_edge20_Node000002_Node000017"><a xlink:title=" ">
<path fill="none" stroke="#63b8ff" d="M1549.15,-188.89C1407.42,-185.02 958.83,-170.58 817.5,-140 814.82,-139.42 812.08,-138.68 809.36,-137.85"/>
<polygon fill="#63b8ff" stroke="#63b8ff" points="810.35,-134.49 799.76,-134.52 808.06,-141.1 810.35,-134.49"/>
</a>
</g>
</g>
<!-- Node21 -->
<g id="Node000021" class="node">
<title>Node21</title>
<g id="a_Node000021"><a xlink:title=" ">
<polygon fill="#e0e0e0" stroke="#999999" points="914,-134.5 827,-134.5 827,-115.5 914,-115.5 914,-134.5"/>
<text text-anchor="middle" x="870.5" y="-122.5" font-family="Helvetica,sans-Serif" font-size="10.00">user_defines.h</text>
</a>
</g>
</g>
<!-- Node2&#45;&gt;Node21 -->
<g id="edge29_Node000002_Node000021" class="edge">
<title>Node2&#45;&gt;Node21</title>
<g id="a_edge29_Node000002_Node000021"><a xlink:title=" ">
<path fill="none" stroke="#63b8ff" d="M1549.12,-189.51C1442.11,-187.7 1157.24,-179.26 923.5,-140 918.71,-139.19 913.72,-138.15 908.8,-137"/>
<polygon fill="#63b8ff" stroke="#63b8ff" points="909.45,-133.56 898.9,-134.53 907.75,-140.35 909.45,-133.56"/>
</a>
</g>
</g>
<!-- Node22 -->
<g id="Node000022" class="node">
<title>Node22</title>
<g id="a_Node000022"><a xlink:title=" ">
<polygon fill="#e0e0e0" stroke="#999999" points="1018.5,-134.5 932.5,-134.5 932.5,-115.5 1018.5,-115.5 1018.5,-134.5"/>
<text text-anchor="middle" x="975.5" y="-122.5" font-family="Helvetica,sans-Serif" font-size="10.00">profiles_info.h</text>
</a>
</g>
</g>
<!-- Node2&#45;&gt;Node22 -->
<g id="edge30_Node000002_Node000022" class="edge">
<title>Node2&#45;&gt;Node22</title>
<g id="a_edge30_Node000002_Node000022"><a xlink:title=" ">
<path fill="none" stroke="#63b8ff" d="M1549.28,-188.75C1454.24,-185.43 1220.21,-174.2 1027.5,-140 1022.98,-139.2 1018.27,-138.19 1013.63,-137.08"/>
<polygon fill="#63b8ff" stroke="#63b8ff" points="1014.19,-133.61 1003.64,-134.54 1012.46,-140.39 1014.19,-133.61"/>
</a>
</g>
</g>
<!-- Node23 -->
<g id="Node000023" class="node">
<title>Node23</title>
<g id="a_Node000023"><a xlink:title=" ">
<polygon fill="#e0e0e0" stroke="#999999" points="1176,-134.5 1037,-134.5 1037,-115.5 1176,-115.5 1176,-134.5"/>
<text text-anchor="middle" x="1106.5" y="-122.5" font-family="Helvetica,sans-Serif" font-size="10.00">user_built&#45;in_constants.h</text>
</a>
</g>
</g>
<!-- Node2&#45;&gt;Node23 -->
<g id="edge31_Node000002_Node000023" class="edge">
<title>Node2&#45;&gt;Node23</title>
<g id="a_edge31_Node000002_Node000023"><a xlink:title=" ">
<path fill="none" stroke="#63b8ff" d="M1549.33,-185.46C1474.9,-177.46 1317.68,-159.82 1185.5,-140 1178.03,-138.88 1170.18,-137.61 1162.44,-136.29"/>
<polygon fill="#63b8ff" stroke="#63b8ff" points="1162.83,-132.81 1152.38,-134.56 1161.64,-139.71 1162.83,-132.81"/>
</a>
</g>
</g>
<!-- Node24 -->
<g id="Node000024" class="node">
<title>Node24</title>
<g id="a_Node000024"><a xlink:href="func__attributes_8h.html" target="_top" xlink:title=" ">
<polygon fill="white" stroke="#666666" points="99,-74 0,-74 0,-55 99,-55 99,-74"/>
<text text-anchor="middle" x="49.5" y="-62" font-family="Helvetica,sans-Serif" font-size="10.00">func_attributes.h</text>
</a>
</g>
</g>
<!-- Node2&#45;&gt;Node24 -->
<g id="edge32_Node000002_Node000024" class="edge">
<title>Node2&#45;&gt;Node24</title>
<g id="a_edge32_Node000002_Node000024"><a xlink:title=" ">
<path fill="none" stroke="#63b8ff" d="M1549.38,-188.82C1348.67,-183.24 513.46,-158.96 461.5,-140 440.96,-132.5 442.77,-118.21 422.5,-110 294.95,-58.35 249.37,-90.62 109.4,-74.16"/>
<polygon fill="#63b8ff" stroke="#63b8ff" points="109.51,-70.64 99.16,-72.88 108.65,-77.59 109.51,-70.64"/>
</a>
</g>
</g>
<!-- Node25 -->
<g id="Node000025" class="node">
<title>Node25</title>
<g id="a_Node000025"><a xlink:title=" ">
<polygon fill="#e0e0e0" stroke="#999999" points="1319,-134.5 1194,-134.5 1194,-115.5 1319,-115.5 1319,-134.5"/>
<text text-anchor="middle" x="1256.5" y="-122.5" font-family="Helvetica,sans-Serif" font-size="10.00">user_input_typedefs.h</text>
</a>
</g>
</g>
<!-- Node2&#45;&gt;Node25 -->
<g id="edge33_Node000002_Node000025" class="edge">
<title>Node2&#45;&gt;Node25</title>
<g id="a_edge33_Node000002_Node000025"><a xlink:title=" ">
<path fill="none" stroke="#63b8ff" d="M1549.26,-181.76C1488.4,-170.17 1377.5,-149.05 1311.05,-136.39"/>
<polygon fill="#63b8ff" stroke="#63b8ff" points="1311.65,-132.94 1301.18,-134.51 1310.34,-139.82 1311.65,-132.94"/>
</a>
</g>
</g>
<!-- Node26 -->
<g id="Node000026" class="node">
<title>Node26</title>
<g id="a_Node000026"><a xlink:title=" ">
<polygon fill="#e0e0e0" stroke="#999999" points="1459,-134.5 1376,-134.5 1376,-115.5 1459,-115.5 1459,-134.5"/>
<text text-anchor="middle" x="1417.5" y="-122.5" font-family="Helvetica,sans-Serif" font-size="10.00">output_decl.h</text>
</a>
</g>
</g>
<!-- Node2&#45;&gt;Node26 -->
<g id="edge34_Node000002_Node000026" class="edge">
<title>Node2&#45;&gt;Node26</title>
<g id="a_edge34_Node000002_Node000026"><a xlink:title=" ">
<path fill="none" stroke="#63b8ff" d="M1568.9,-181.37C1538.41,-170.22 1485.18,-150.75 1450.65,-138.12"/>
<polygon fill="#63b8ff" stroke="#63b8ff" points="1451.6,-134.74 1441.01,-134.6 1449.2,-141.32 1451.6,-134.74"/>
</a>
</g>
</g>
<!-- Node27 -->
<g id="Node000027" class="node">
<title>Node27</title>
<g id="a_Node000027"><a xlink:title=" ">
<polygon fill="#e0e0e0" stroke="#999999" points="1593.5,-134.5 1477.5,-134.5 1477.5,-115.5 1593.5,-115.5 1593.5,-134.5"/>
<text text-anchor="middle" x="1535.5" y="-122.5" font-family="Helvetica,sans-Serif" font-size="10.00">comp_loaded_decl.h</text>
</a>
</g>
</g>
<!-- Node2&#45;&gt;Node27 -->
<g id="edge35_Node000002_Node000027" class="edge">
<title>Node2&#45;&gt;Node27</title>
<g id="a_edge35_Node000002_Node000027"><a xlink:title=" ">
<path fill="none" stroke="#63b8ff" d="M1584.81,-181.37C1576.02,-171.5 1561.43,-155.11 1550.39,-142.72"/>
<polygon fill="#63b8ff" stroke="#63b8ff" points="1552.7,-140.05 1543.43,-134.91 1547.47,-144.7 1552.7,-140.05"/>
</a>
</g>
</g>
<!-- Node28 -->
<g id="Node000028" class="node">
<title>Node28</title>
<g id="a_Node000028"><a xlink:title=" ">
<polygon fill="#e0e0e0" stroke="#999999" points="1689.5,-134.5 1611.5,-134.5 1611.5,-115.5 1689.5,-115.5 1689.5,-134.5"/>
<text text-anchor="middle" x="1650.5" y="-122.5" font-family="Helvetica,sans-Serif" font-size="10.00">comp_decl.h</text>
</a>
</g>
</g>
<!-- Node2&#45;&gt;Node28 -->
<g id="edge36_Node000002_Node000028" class="edge">
<title>Node2&#45;&gt;Node28</title>
<g id="a_edge36_Node000002_Node000028"><a xlink:title=" ">
<path fill="none" stroke="#63b8ff" d="M1600.32,-181.37C1609.35,-171.4 1624.41,-154.79 1635.67,-142.36"/>
<polygon fill="#63b8ff" stroke="#63b8ff" points="1638.31,-144.67 1642.43,-134.91 1633.12,-139.96 1638.31,-144.67"/>
</a>
</g>
</g>
<!-- Node29 -->
<g id="Node000029" class="node">
<title>Node29</title>
<g id="a_Node000029"><a xlink:title=" ">
<polygon fill="#e0e0e0" stroke="#999999" points="1815.5,-134.5 1707.5,-134.5 1707.5,-115.5 1815.5,-115.5 1815.5,-134.5"/>
<text text-anchor="middle" x="1761.5" y="-122.5" font-family="Helvetica,sans-Serif" font-size="10.00">info_loaded_decl.h</text>
</a>
</g>
</g>
<!-- Node2&#45;&gt;Node29 -->
<g id="edge37_Node000002_Node000029" class="edge">
<title>Node2&#45;&gt;Node29</title>
<g id="a_edge37_Node000002_Node000029"><a xlink:title=" ">
<path fill="none" stroke="#63b8ff" d="M1615.29,-181.37C1644.6,-170.27 1695.7,-150.92 1729.06,-138.28"/>
<polygon fill="#63b8ff" stroke="#63b8ff" points="1730.69,-141.41 1738.8,-134.6 1728.21,-134.86 1730.69,-141.41"/>
</a>
</g>
</g>
<!-- Node30 -->
<g id="Node000030" class="node">
<title>Node30</title>
<g id="a_Node000030"><a xlink:title=" ">
<polygon fill="#e0e0e0" stroke="#999999" points="1973.5,-134.5 1833.5,-134.5 1833.5,-115.5 1973.5,-115.5 1973.5,-134.5"/>
<text text-anchor="middle" x="1903.5" y="-122.5" font-family="Helvetica,sans-Serif" font-size="10.00">device_mesh_info_decl.h</text>
</a>
</g>
</g>
<!-- Node2&#45;&gt;Node30 -->
<g id="edge38_Node000002_Node000030" class="edge">
<title>Node2&#45;&gt;Node30</title>
<g id="a_edge38_Node000002_Node000030"><a xlink:title=" ">
<path fill="none" stroke="#63b8ff" d="M1623.52,-181.43C1630.72,-179.55 1638.36,-177.63 1645.5,-176 1683.13,-167.39 1783.72,-148.32 1847.61,-136.38"/>
<polygon fill="#63b8ff" stroke="#63b8ff" points="1848.34,-139.8 1857.53,-134.53 1847.06,-132.92 1848.34,-139.8"/>
</a>
</g>
</g>
<!-- Node31 -->
<g id="Node000031" class="node">
<title>Node31</title>
<g id="a_Node000031"><a xlink:title=" ">
<polygon fill="#e0e0e0" stroke="#999999" points="2069,-134.5 1992,-134.5 1992,-115.5 2069,-115.5 2069,-134.5"/>
<text text-anchor="middle" x="2030.5" y="-122.5" font-family="Helvetica,sans-Serif" font-size="10.00">array_decl.h</text>
</a>
</g>
</g>
<!-- Node2&#45;&gt;Node31 -->
<g id="edge39_Node000002_Node000031" class="edge">
<title>Node2&#45;&gt;Node31</title>
<g id="a_edge39_Node000002_Node000031"><a xlink:title=" ">
<path fill="none" stroke="#63b8ff" d="M1621.48,-181.5C1629.23,-179.46 1637.64,-177.45 1645.5,-176 1793.63,-148.69 1834.73,-169.2 1982.5,-140 1986.41,-139.23 1990.47,-138.28 1994.48,-137.25"/>
<polygon fill="#63b8ff" stroke="#63b8ff" points="1995.58,-140.58 2004.3,-134.55 1993.73,-133.83 1995.58,-140.58"/>
</a>
</g>
</g>
<!-- Node32 -->
<g id="Node000032" class="node">
<title>Node32</title>
<g id="a_Node000032"><a xlink:title=" ">
<polygon fill="#e0e0e0" stroke="#999999" points="2163.5,-134.5 2087.5,-134.5 2087.5,-115.5 2163.5,-115.5 2163.5,-134.5"/>
<text text-anchor="middle" x="2125.5" y="-122.5" font-family="Helvetica,sans-Serif" font-size="10.00">input_decl.h</text>
</a>
</g>
</g>
<!-- Node2&#45;&gt;Node32 -->
<g id="edge40_Node000002_Node000032" class="edge">
<title>Node2&#45;&gt;Node32</title>
<g id="a_edge40_Node000002_Node000032"><a xlink:title=" ">
<path fill="none" stroke="#63b8ff" d="M1621.18,-181.44C1629.01,-179.38 1637.53,-177.37 1645.5,-176 1835.81,-143.22 1888.73,-175.75 2078.5,-140 2082.44,-139.26 2086.51,-138.32 2090.54,-137.27"/>
<polygon fill="#63b8ff" stroke="#63b8ff" points="2091.68,-140.59 2100.37,-134.53 2089.79,-133.85 2091.68,-140.59"/>
</a>
</g>
</g>
<!-- Node33 -->
<g id="Node000033" class="node">
<title>Node33</title>
<g id="a_Node000033"><a xlink:href="ac__helpers_8h.html" target="_top" xlink:title=" ">
<polygon fill="white" stroke="#666666" points="2297.5,-134.5 2219.5,-134.5 2219.5,-115.5 2297.5,-115.5 2297.5,-134.5"/>
<text text-anchor="middle" x="2258.5" y="-122.5" font-family="Helvetica,sans-Serif" font-size="10.00">ac_helpers.h</text>
</a>
</g>
</g>
<!-- Node2&#45;&gt;Node33 -->
<g id="edge41_Node000002_Node000033" class="edge">
<title>Node2&#45;&gt;Node33</title>
<g id="a_edge41_Node000002_Node000033"><a xlink:title=" ">
<path fill="none" stroke="#63b8ff" d="M1620.61,-181.49C1628.59,-179.37 1637.33,-177.33 1645.5,-176 1891.67,-135.96 1959.33,-180.04 2205.5,-140 2210.35,-139.21 2215.4,-138.17 2220.38,-137.01"/>
<polygon fill="#63b8ff" stroke="#63b8ff" points="2221.53,-140.33 2230.39,-134.51 2219.84,-133.54 2221.53,-140.33"/>
</a>
</g>
</g>
<!-- Node34 -->
<g id="Node000034" class="node">
<title>Node34</title>
<g id="a_Node000034"><a xlink:title=" ">
<polygon fill="#e0e0e0" stroke="#999999" points="2433.5,-140 2315.5,-140 2315.5,-110 2433.5,-110 2433.5,-140"/>
<text text-anchor="start" x="2323.5" y="-128" font-family="Helvetica,sans-Serif" font-size="10.00">scalar_reduce_buffer</text>
<text text-anchor="middle" x="2374.5" y="-117" font-family="Helvetica,sans-Serif" font-size="10.00">_defs.h</text>
</a>
</g>
</g>
<!-- Node2&#45;&gt;Node34 -->
<g id="edge42_Node000002_Node000034" class="edge">
<title>Node2&#45;&gt;Node34</title>
<g id="a_edge42_Node000002_Node000034"><a xlink:title=" ">
<path fill="none" stroke="#63b8ff" d="M1620.6,-181.44C1628.58,-179.32 1637.32,-177.29 1645.5,-176 1932.86,-130.71 2012.93,-176.71 2305.21,-140.02"/>
<polygon fill="#63b8ff" stroke="#63b8ff" points="2305.77,-143.48 2315.25,-138.74 2304.89,-136.53 2305.77,-143.48"/>
</a>
</g>
</g>
<!-- Node35 -->
<g id="Node000035" class="node">
<title>Node35</title>
<g id="a_Node000035"><a xlink:title=" ">
<polygon fill="#e0e0e0" stroke="#999999" points="2575,-140 2452,-140 2452,-110 2575,-110 2575,-140"/>
<text text-anchor="start" x="2460" y="-128" font-family="Helvetica,sans-Serif" font-size="10.00">scalar_reduce_buffers</text>
<text text-anchor="middle" x="2513.5" y="-117" font-family="Helvetica,sans-Serif" font-size="10.00">_in_vba.h</text>
</a>
</g>
</g>
<!-- Node2&#45;&gt;Node35 -->
<g id="edge43_Node000002_Node000035" class="edge">
<title>Node2&#45;&gt;Node35</title>
<g id="a_edge43_Node000002_Node000035"><a xlink:title=" ">
<path fill="none" stroke="#63b8ff" d="M1620.32,-181.46C1628.37,-179.32 1637.22,-177.27 1645.5,-176 1992.76,-122.91 2088.69,-181.31 2441.65,-139.95"/>
<polygon fill="#63b8ff" stroke="#63b8ff" points="2442.11,-143.42 2451.63,-138.77 2441.29,-136.47 2442.11,-143.42"/>
</a>
</g>
</g>
<!-- Node36 -->
<g id="Node000036" class="node">
<title>Node36</title>
<g id="a_Node000036"><a xlink:href="astaroth__analysis_8h.html" target="_top" xlink:title=" ">
<polygon fill="white" stroke="#666666" points="2705.5,-134.5 2593.5,-134.5 2593.5,-115.5 2705.5,-115.5 2705.5,-134.5"/>
<text text-anchor="middle" x="2649.5" y="-122.5" font-family="Helvetica,sans-Serif" font-size="10.00">astaroth_analysis.h</text>
</a>
</g>
</g>
<!-- Node2&#45;&gt;Node36 -->
<g id="edge44_Node000002_Node000036" class="edge">
<title>Node2&#45;&gt;Node36</title>
<g id="a_edge44_Node000002_Node000036"><a xlink:title=" ">
<path fill="none" stroke="#63b8ff" d="M1620.04,-181.5C1628.16,-179.32 1637.12,-177.25 1645.5,-176 2058.56,-114.3 2170.13,-192.17 2584.5,-140 2591.27,-139.15 2598.38,-137.94 2605.31,-136.59"/>
<polygon fill="#63b8ff" stroke="#63b8ff" points="2606.2,-139.98 2615.28,-134.54 2604.78,-133.13 2606.2,-139.98"/>
</a>
</g>
</g>
<!-- Node37 -->
<g id="Node000037" class="node">
<title>Node37</title>
<g id="a_Node000037"><a xlink:href="func__define_8h.html" target="_top" xlink:title=" ">
<polygon fill="white" stroke="#666666" points="2805.5,-134.5 2723.5,-134.5 2723.5,-115.5 2805.5,-115.5 2805.5,-134.5"/>
<text text-anchor="middle" x="2764.5" y="-122.5" font-family="Helvetica,sans-Serif" font-size="10.00">func_define.h</text>
</a>
</g>
</g>
<!-- Node2&#45;&gt;Node37 -->
<g id="edge45_Node000002_Node000037" class="edge">
<title>Node2&#45;&gt;Node37</title>
<g id="a_edge45_Node000002_Node000037"><a xlink:title=" ">
<path fill="none" stroke="#63b8ff" d="M1620.04,-181.47C1628.16,-179.3 1637.12,-177.23 1645.5,-176 2115.83,-106.86 2244.7,-212.61 2714.5,-140 2719.08,-139.29 2723.84,-138.3 2728.53,-137.17"/>
<polygon fill="#63b8ff" stroke="#63b8ff" points="2729.77,-140.47 2738.55,-134.54 2727.99,-133.7 2729.77,-140.47"/>
</a>
</g>
</g>
<!-- Node38 -->
<g id="Node000038" class="node">
<title>Node38</title>
<g id="a_Node000038"><a xlink:href="common__kernels_8h.html" target="_top" xlink:title=" ">
<polygon fill="white" stroke="#666666" points="2933,-134.5 2824,-134.5 2824,-115.5 2933,-115.5 2933,-134.5"/>
<text text-anchor="middle" x="2878.5" y="-122.5" font-family="Helvetica,sans-Serif" font-size="10.00">common_kernels.h</text>
</a>
</g>
</g>
<!-- Node2&#45;&gt;Node38 -->
<g id="edge46_Node000002_Node000038" class="edge">
<title>Node2&#45;&gt;Node38</title>
<g id="a_edge46_Node000002_Node000038"><a xlink:title=" ">
<path fill="none" stroke="#63b8ff" d="M1620.04,-181.46C1628.16,-179.28 1637.12,-177.22 1645.5,-176 2159.88,-101.14 2298.63,-203.81 2814.5,-140 2821.25,-139.17 2828.34,-137.96 2835.24,-136.59"/>
<polygon fill="#63b8ff" stroke="#63b8ff" points="2836.08,-139.99 2845.15,-134.51 2834.65,-133.14 2836.08,-139.99"/>
</a>
</g>
</g>
<!-- Node39 -->
<g id="Node000039" class="node">
<title>Node39</title>
<g id="a_Node000039"><a xlink:title=" ">
<polygon fill="#e0e0e0" stroke="#999999" points="3063.5,-134.5 2951.5,-134.5 2951.5,-115.5 3063.5,-115.5 3063.5,-134.5"/>
<text text-anchor="middle" x="3007.5" y="-122.5" font-family="Helvetica,sans-Serif" font-size="10.00">user_declarations.h</text>
</a>
</g>
</g>
<!-- Node2&#45;&gt;Node39 -->
<g id="edge47_Node000002_Node000039" class="edge">
<title>Node2&#45;&gt;Node39</title>
<g id="a_edge47_Node000002_Node000039"><a xlink:title=" ">
<path fill="none" stroke="#63b8ff" d="M1620.03,-181.44C1628.16,-179.27 1637.12,-177.21 1645.5,-176 2216.28,-93.82 2369.98,-209 2942.5,-140 2949.35,-139.17 2956.55,-137.97 2963.56,-136.61"/>
<polygon fill="#63b8ff" stroke="#63b8ff" points="2964.54,-139.98 2973.63,-134.53 2963.13,-133.13 2964.54,-139.98"/>
</a>
</g>
</g>
<!-- Node40 -->
<g id="Node000040" class="node">
<title>Node40</title>
<g id="a_Node000040"><a xlink:title=" ">
<polygon fill="#e0e0e0" stroke="#999999" points="3215.5,-140 3081.5,-140 3081.5,-110 3215.5,-110 3215.5,-140"/>
<text text-anchor="start" x="3089.5" y="-128" font-family="Helvetica,sans-Serif" font-size="10.00">load_and_store_uniform</text>
<text text-anchor="middle" x="3148.5" y="-117" font-family="Helvetica,sans-Serif" font-size="10.00">_header.h</text>
</a>
</g>
</g>
<!-- Node2&#45;&gt;Node40 -->
<g id="edge48_Node000002_Node000040" class="edge">
<title>Node2&#45;&gt;Node40</title>
<g id="a_edge48_Node000002_Node000040"><a xlink:title=" ">
<path fill="none" stroke="#63b8ff" d="M1620.03,-181.43C1628.15,-179.25 1637.11,-177.2 1645.5,-176 2270.19,-86.86 2439.67,-204.39 3071.17,-140"/>
<polygon fill="#63b8ff" stroke="#63b8ff" points="3071.86,-143.45 3081.45,-138.94 3071.14,-136.49 3071.86,-143.45"/>
</a>
</g>
</g>
<!-- Node6 -->
<g id="Node000006" class="node">
<title>Node6</title>
<g id="a_Node000006"><a xlink:title=" ">
<polygon fill="#e0e0e0" stroke="#999999" points="549,-19 436,-19 436,0 549,0 549,-19"/>
<text text-anchor="middle" x="492.5" y="-7" font-family="Helvetica,sans-Serif" font-size="10.00">cuda_runtime_api.h</text>
</a>
</g>
</g>
<!-- Node5&#45;&gt;Node6 -->
<g id="edge5_Node000005_Node000006" class="edge">
<title>Node5&#45;&gt;Node6</title>
<g id="a_edge5_Node000005_Node000006"><a xlink:title=" ">
<path fill="none" stroke="#63b8ff" d="M677.15,-54.98C639.34,-45.87 579.24,-31.4 537.93,-21.45"/>
<polygon fill="#63b8ff" stroke="#63b8ff" points="538.67,-18.02 528.12,-19.08 537.03,-24.83 538.67,-18.02"/>
</a>
</g>
</g>
<!-- Node7 -->
<g id="Node000007" class="node">
<title>Node7</title>
<g id="a_Node000007"><a xlink:title=" ">
<polygon fill="#e0e0e0" stroke="#999999" points="750.5,-19 674.5,-19 674.5,0 750.5,0 750.5,-19"/>
<text text-anchor="middle" x="712.5" y="-7" font-family="Helvetica,sans-Serif" font-size="10.00">cuda_fp16.h</text>
</a>
</g>
</g>
<!-- Node5&#45;&gt;Node7 -->
<g id="edge6_Node000005_Node000007" class="edge">
<title>Node5&#45;&gt;Node7</title>
<g id="a_edge6_Node000005_Node000007"><a xlink:title=" ">
<path fill="none" stroke="#63b8ff" d="M712.5,-54.75C712.5,-47.8 712.5,-37.85 712.5,-29.13"/>
<polygon fill="#63b8ff" stroke="#63b8ff" points="716,-29.09 712.5,-19.09 709,-29.09 716,-29.09"/>
</a>
</g>
</g>
<!-- Node9&#45;&gt;Node5 -->
<g id="edge11_Node000009_Node000005" class="edge">
<title>Node9&#45;&gt;Node5</title>
<g id="a_edge11_Node000009_Node000005"><a xlink:title=" ">
<path fill="none" stroke="#63b8ff" d="M537.31,-115.49C573.06,-105.29 633.13,-88.15 672.79,-76.83"/>
<polygon fill="#63b8ff" stroke="#63b8ff" points="674,-80.13 682.66,-74.02 672.08,-73.4 674,-80.13"/>
</a>
</g>
</g>
<!-- Node9&#45;&gt;Node6 -->
<g id="edge13_Node000009_Node000006" class="edge">
<title>Node9&#45;&gt;Node6</title>
<g id="a_edge13_Node000009_Node000006"><a xlink:title=" ">
<path fill="none" stroke="#63b8ff" d="M506.37,-115.47C503.96,-97.23 498.26,-54.07 494.96,-29.14"/>
<polygon fill="#63b8ff" stroke="#63b8ff" points="498.42,-28.59 493.64,-19.13 491.48,-29.5 498.42,-28.59"/>
</a>
</g>
</g>
<!-- Node9&#45;&gt;Node8 -->
<g id="edge15_Node000009_Node000008" class="edge">
<title>Node9&#45;&gt;Node8</title>
<g id="a_edge15_Node000009_Node000008"><a xlink:title=" ">
<path fill="none" stroke="#63b8ff" d="M520.48,-115.37C534.52,-106.04 557.13,-91.01 573.86,-79.88"/>
<polygon fill="#63b8ff" stroke="#63b8ff" points="576.07,-82.62 582.46,-74.17 572.2,-76.79 576.07,-82.62"/>
</a>
</g>
</g>
<!-- Node10 -->
<g id="Node000010" class="node">
<title>Node10</title>
<g id="a_Node000010"><a xlink:title=" ">
<polygon fill="#e0e0e0" stroke="#999999" points="233,-74 186,-74 186,-55 233,-55 233,-74"/>
<text text-anchor="middle" x="209.5" y="-62" font-family="Helvetica,sans-Serif" font-size="10.00">float.h</text>
</a>
</g>
</g>
<!-- Node9&#45;&gt;Node10 -->
<g id="edge9_Node000009_Node000010" class="edge">
<title>Node9&#45;&gt;Node10</title>
<g id="a_edge9_Node000009_Node000010"><a xlink:title=" ">
<path fill="none" stroke="#63b8ff" d="M478.5,-115.49C471.34,-113.54 463.67,-111.58 456.5,-110 365.03,-89.84 337.98,-94.14 243.21,-74.2"/>
<polygon fill="#63b8ff" stroke="#63b8ff" points="243.72,-70.73 233.21,-72.06 242.25,-77.58 243.72,-70.73"/>
</a>
</g>
</g>
<!-- Node11 -->
<g id="Node000011" class="node">
<title>Node11</title>
<g id="a_Node000011"><a xlink:title=" ">
<polygon fill="#e0e0e0" stroke="#999999" points="168,-74 117,-74 117,-55 168,-55 168,-74"/>
<text text-anchor="middle" x="142.5" y="-62" font-family="Helvetica,sans-Serif" font-size="10.00">math.h</text>
</a>
</g>
</g>
<!-- Node9&#45;&gt;Node11 -->
<g id="edge10_Node000009_Node000011" class="edge">
<title>Node9&#45;&gt;Node11</title>
<g id="a_edge10_Node000009_Node000011"><a xlink:title=" ">
<path fill="none" stroke="#63b8ff" d="M479.08,-115.44C471.77,-113.45 463.88,-111.48 456.5,-110 336.6,-85.96 301.56,-96.67 177.9,-74.06"/>
<polygon fill="#63b8ff" stroke="#63b8ff" points="178.52,-70.62 168.05,-72.23 177.24,-77.5 178.52,-70.62"/>
</a>
</g>
</g>
<!-- Node12 -->
<g id="Node000012" class="node">
<title>Node12</title>
<g id="a_Node000012"><a xlink:title=" ">
<polygon fill="#e0e0e0" stroke="#999999" points="453,-74 364,-74 364,-55 453,-55 453,-74"/>
<text text-anchor="middle" x="408.5" y="-62" font-family="Helvetica,sans-Serif" font-size="10.00">vector_types.h</text>
</a>
</g>
</g>
<!-- Node9&#45;&gt;Node12 -->
<g id="edge12_Node000009_Node000012" class="edge">
<title>Node9&#45;&gt;Node12</title>
<g id="a_edge12_Node000009_Node000012"><a xlink:title=" ">
<path fill="none" stroke="#63b8ff" d="M492.89,-115.37C476.81,-105.86 450.72,-90.45 431.8,-79.27"/>
<polygon fill="#63b8ff" stroke="#63b8ff" points="433.56,-76.24 423.17,-74.17 430,-82.27 433.56,-76.24"/>
</a>
</g>
</g>
<!-- Node13 -->
<g id="Node000013" class="node">
<title>Node13</title>
<g id="a_Node000013"><a xlink:href="acreal_8h.html" target="_top" xlink:title=" ">
<polygon fill="white" stroke="#666666" points="645.5,-19 589.5,-19 589.5,0 645.5,0 645.5,-19"/>
<text text-anchor="middle" x="617.5" y="-7" font-family="Helvetica,sans-Serif" font-size="10.00">acreal.h</text>
</a>
</g>
</g>
<!-- Node9&#45;&gt;Node13 -->
<g id="edge14_Node000009_Node000013" class="edge">
<title>Node9&#45;&gt;Node13</title>
<g id="a_edge14_Node000009_Node000013"><a xlink:title=" ">
<path fill="none" stroke="#63b8ff" d="M509.49,-115.39C513.13,-101.29 522.03,-73.04 538.5,-55 551.07,-41.23 568.92,-30.68 584.47,-23.32"/>
<polygon fill="#63b8ff" stroke="#63b8ff" points="586.09,-26.42 593.78,-19.14 583.23,-20.04 586.09,-26.42"/>
</a>
</g>
</g>
<!-- Node14 -->
<g id="Node000014" class="node">
<title>Node14</title>
<g id="a_Node000014"><a xlink:title=" ">
<polygon fill="#e0e0e0" stroke="#999999" points="346,-74 251,-74 251,-55 346,-55 346,-74"/>
<text text-anchor="middle" x="298.5" y="-62" font-family="Helvetica,sans-Serif" font-size="10.00">user_typedefs.h</text>
</a>
</g>
</g>
<!-- Node9&#45;&gt;Node14 -->
<g id="edge16_Node000009_Node000014" class="edge">
<title>Node9&#45;&gt;Node14</title>
<g id="a_edge16_Node000009_Node000014"><a xlink:title=" ">
<path fill="none" stroke="#63b8ff" d="M477.11,-115.49C440.58,-105.27 379.16,-88.08 338.73,-76.76"/>
<polygon fill="#63b8ff" stroke="#63b8ff" points="339.5,-73.34 328.93,-74.02 337.61,-80.08 339.5,-73.34"/>
</a>
</g>
</g>
<!-- Node15 -->
<g id="Node000015" class="node">
<title>Node15</title>
<g id="a_Node000015"><a xlink:href="host__datatypes_8h.html" target="_top" xlink:title=" ">
<polygon fill="white" stroke="#666666" points="883,-74 782,-74 782,-55 883,-55 883,-74"/>
<text text-anchor="middle" x="832.5" y="-62" font-family="Helvetica,sans-Serif" font-size="10.00">host_datatypes.h</text>
</a>
</g>
</g>
<!-- Node9&#45;&gt;Node15 -->
<g id="edge17_Node000009_Node000015" class="edge">
<title>Node9&#45;&gt;Node15</title>
<g id="a_edge17_Node000009_Node000015"><a xlink:title=" ">
<path fill="none" stroke="#63b8ff" d="M536.49,-115.46C543.65,-113.52 551.32,-111.56 558.5,-110 598.08,-101.38 703.85,-84.89 771.8,-74.58"/>
<polygon fill="#63b8ff" stroke="#63b8ff" points="772.58,-78 781.95,-73.05 771.54,-71.08 772.58,-78"/>
</a>
</g>
</g>
<!-- Node15&#45;&gt;Node13 -->
<g id="edge18_Node000015_Node000013" class="edge">
<title>Node15&#45;&gt;Node13</title>
<g id="a_edge18_Node000015_Node000013"><a xlink:title=" ">
<path fill="none" stroke="#63b8ff" d="M797.96,-54.98C759,-45.38 695.84,-29.81 655.51,-19.87"/>
<polygon fill="#63b8ff" stroke="#63b8ff" points="656.33,-16.47 645.78,-17.47 654.65,-23.26 656.33,-16.47"/>
</a>
</g>
</g>
<!-- Node16 -->
<g id="Node000016" class="node">
<title>Node16</title>
<g id="a_Node000016"><a xlink:title=" ">
<polygon fill="#e0e0e0" stroke="#999999" points="970.5,-19 914.5,-19 914.5,0 970.5,0 970.5,-19"/>
<text text-anchor="middle" x="942.5" y="-7" font-family="Helvetica,sans-Serif" font-size="10.00">stddef.h</text>
</a>
</g>
</g>
<!-- Node15&#45;&gt;Node16 -->
<g id="edge19_Node000015_Node000016" class="edge">
<title>Node15&#45;&gt;Node16</title>
<g id="a_edge19_Node000015_Node000016"><a xlink:title=" ">
<path fill="none" stroke="#63b8ff" d="M850.17,-54.98C867.79,-46.5 895.08,-33.35 915.43,-23.54"/>
<polygon fill="#63b8ff" stroke="#63b8ff" points="917.02,-26.66 924.51,-19.17 913.98,-20.36 917.02,-26.66"/>
</a>
</g>
</g>
<!-- Node17&#45;&gt;Node3 -->
<g id="edge25_Node000017_Node000003" class="edge">
<title>Node17&#45;&gt;Node3</title>
<g id="a_edge25_Node000017_Node000003"><a xlink:title=" ">
<path fill="none" stroke="#63b8ff" d="M800.17,-115.47C805.69,-113.38 811.75,-111.36 817.5,-110 856.13,-100.88 1121.49,-77.06 1218.27,-68.57"/>
<polygon fill="#63b8ff" stroke="#63b8ff" points="1218.77,-72.04 1228.43,-67.68 1218.16,-65.06 1218.77,-72.04"/>
</a>
</g>
</g>
<!-- Node17&#45;&gt;Node4 -->
<g id="edge23_Node000017_Node000004" class="edge">
<title>Node17&#45;&gt;Node4</title>
<g id="a_edge23_Node000017_Node000004"><a xlink:title=" ">
<path fill="none" stroke="#63b8ff" d="M799.74,-115.41C805.36,-113.27 811.58,-111.23 817.5,-110 992.09,-73.77 1554,-66.96 1711.89,-65.75"/>
<polygon fill="#63b8ff" stroke="#63b8ff" points="1712.15,-69.25 1722.12,-65.67 1712.1,-62.25 1712.15,-69.25"/>
</a>
</g>
</g>
<!-- Node17&#45;&gt;Node5 -->
<g id="edge28_Node000017_Node000005" class="edge">
<title>Node17&#45;&gt;Node5</title>
<g id="a_edge28_Node000017_Node000005"><a xlink:title=" ">
<path fill="none" stroke="#63b8ff" d="M770.47,-115.37C759.92,-106.3 743.11,-91.84 730.31,-80.82"/>
<polygon fill="#63b8ff" stroke="#63b8ff" points="732.44,-78.04 722.57,-74.17 727.87,-83.34 732.44,-78.04"/>
</a>
</g>
</g>
<!-- Node17&#45;&gt;Node15 -->
<g id="edge22_Node000017_Node000015" class="edge">
<title>Node17&#45;&gt;Node15</title>
<g id="a_edge22_Node000017_Node000015"><a xlink:title=" ">
<path fill="none" stroke="#63b8ff" d="M788.17,-115.37C796.01,-106.55 808.36,-92.66 818.04,-81.77"/>
<polygon fill="#63b8ff" stroke="#63b8ff" points="820.77,-83.97 824.8,-74.17 815.54,-79.32 820.77,-83.97"/>
</a>
</g>
</g>
<!-- Node17&#45;&gt;Node16 -->
<g id="edge21_Node000017_Node000016" class="edge">
<title>Node17&#45;&gt;Node16</title>
<g id="a_edge21_Node000017_Node000016"><a xlink:title=" ">
<path fill="none" stroke="#63b8ff" d="M801.01,-115.42C806.31,-113.43 812.06,-111.47 817.5,-110 864.48,-97.33 1002.05,-111.13 1033.5,-74 1053.25,-50.69 1013.6,-31.89 980.58,-20.96"/>
<polygon fill="#63b8ff" stroke="#63b8ff" points="981.2,-17.49 970.61,-17.82 979.1,-24.16 981.2,-17.49"/>
</a>
</g>
</g>
<!-- Node18 -->
<g id="Node000018" class="node">
<title>Node18</title>
<g id="a_Node000018"><a xlink:title=" ">
<polygon fill="#e0e0e0" stroke="#999999" points="954,-74 901,-74 901,-55 954,-55 954,-74"/>
<text text-anchor="middle" x="927.5" y="-62" font-family="Helvetica,sans-Serif" font-size="10.00">stdint.h</text>
</a>
</g>
</g>
<!-- Node17&#45;&gt;Node18 -->
<g id="edge24_Node000017_Node000018" class="edge">
<title>Node17&#45;&gt;Node18</title>
<g id="a_edge24_Node000017_Node000018"><a xlink:title=" ">
<path fill="none" stroke="#63b8ff" d="M801.88,-115.49C826.81,-105.57 868.22,-89.09 896.64,-77.78"/>
<polygon fill="#63b8ff" stroke="#63b8ff" points="898.1,-80.97 906.1,-74.02 895.51,-74.46 898.1,-80.97"/>
</a>
</g>
</g>
<!-- Node19 -->
<g id="Node000019" class="node">
<title>Node19</title>
<g id="a_Node000019"><a xlink:title=" ">
<polygon fill="#e0e0e0" stroke="#999999" points="1025,-74 972,-74 972,-55 1025,-55 1025,-74"/>
<text text-anchor="middle" x="998.5" y="-62" font-family="Helvetica,sans-Serif" font-size="10.00">stdlib.h</text>
</a>
</g>
</g>
<!-- Node17&#45;&gt;Node19 -->
<g id="edge26_Node000017_Node000019" class="edge">
<title>Node17&#45;&gt;Node19</title>
<g id="a_edge26_Node000017_Node000019"><a xlink:title=" ">
<path fill="none" stroke="#63b8ff" d="M801.87,-115.41C806.95,-113.51 812.38,-111.59 817.5,-110 831.24,-105.73 913.25,-85.91 962.04,-74.22"/>
<polygon fill="#63b8ff" stroke="#63b8ff" points="963,-77.58 971.91,-71.85 961.37,-70.78 963,-77.58"/>
</a>
</g>
</g>
<!-- Node20 -->
<g id="Node000020" class="node">
<title>Node20</title>
<g id="a_Node000020"><a xlink:title=" ">
<polygon fill="#e0e0e0" stroke="#999999" points="1129.5,-74 1081.5,-74 1081.5,-55 1129.5,-55 1129.5,-74"/>
<text text-anchor="middle" x="1105.5" y="-62" font-family="Helvetica,sans-Serif" font-size="10.00">time.h</text>
</a>
</g>
</g>
<!-- Node17&#45;&gt;Node20 -->
<g id="edge27_Node000017_Node000020" class="edge">
<title>Node17&#45;&gt;Node20</title>
<g id="a_edge27_Node000017_Node000020"><a xlink:title=" ">
<path fill="none" stroke="#63b8ff" d="M800.6,-115.48C806.01,-113.44 811.91,-111.44 817.5,-110 926.2,-81.97 957.09,-94.27 1067.5,-74 1068.77,-73.77 1070.07,-73.52 1071.37,-73.27"/>
<polygon fill="#63b8ff" stroke="#63b8ff" points="1072.35,-76.64 1081.43,-71.18 1070.93,-69.78 1072.35,-76.64"/>
</a>
</g>
</g>
<!-- Node41&#45;&gt;Node9 -->
<g id="edge53_Node000041_Node000009" class="edge">
<title>Node41&#45;&gt;Node9</title>
<g id="a_edge53_Node000041_Node000009"><a xlink:title=" ">
<path fill="none" stroke="#63b8ff" d="M507.5,-181.37C507.5,-172.16 507.5,-157.29 507.5,-145.27"/>
<polygon fill="#63b8ff" stroke="#63b8ff" points="511,-144.91 507.5,-134.91 504,-144.91 511,-144.91"/>
</a>
</g>
</g>
<!-- Node41&#45;&gt;Node11 -->
<g id="edge52_Node000041_Node000011" class="edge">
<title>Node41&#45;&gt;Node11</title>
<g id="a_edge52_Node000041_Node000011"><a xlink:title=" ">
<path fill="none" stroke="#63b8ff" d="M468.94,-186.4C420.1,-180.87 334.06,-167.86 265.5,-140 242.54,-130.67 239.64,-122.93 218.5,-110 201.11,-99.36 181.22,-87.74 166.15,-79.03"/>
<polygon fill="#63b8ff" stroke="#63b8ff" points="167.87,-75.99 157.45,-74.03 164.38,-82.05 167.87,-75.99"/>
</a>
</g>
</g>
<!-- Node41&#45;&gt;Node17 -->
<g id="edge54_Node000041_Node000017" class="edge">
<title>Node41&#45;&gt;Node17</title>
<g id="a_edge54_Node000041_Node000017"><a xlink:title=" ">
<path fill="none" stroke="#63b8ff" d="M544.03,-181.44C595.8,-169.3 690.01,-147.21 742.54,-134.9"/>
<polygon fill="#63b8ff" stroke="#63b8ff" points="743.52,-138.26 752.46,-132.57 741.93,-131.45 743.52,-138.26"/>
</a>
</g>
</g>
<!-- Node41&#45;&gt;Node18 -->
<g id="edge50_Node000041_Node000018" class="edge">
<title>Node41&#45;&gt;Node18</title>
<g id="a_edge50_Node000041_Node000018"><a xlink:title=" ">
<path fill="none" stroke="#63b8ff" d="M517.88,-181.25C538.57,-164.35 587.02,-127.37 634.5,-110 739.86,-71.46 776.16,-93.96 890.95,-73.89"/>
<polygon fill="#63b8ff" stroke="#63b8ff" points="891.61,-77.32 900.82,-72.09 890.36,-70.44 891.61,-77.32"/>
</a>
</g>
</g>
<!-- Node41&#45;&gt;Node19 -->
<g id="edge51_Node000041_Node000019" class="edge">
<title>Node41&#45;&gt;Node19</title>
<g id="a_edge51_Node000041_Node000019"><a xlink:title=" ">
<path fill="none" stroke="#63b8ff" d="M528.94,-181.4C569.98,-165.25 662.7,-130.19 743.5,-110 836.11,-86.86 863.99,-92.91 961.8,-73.99"/>
<polygon fill="#63b8ff" stroke="#63b8ff" points="962.68,-77.39 971.81,-72.02 961.32,-70.52 962.68,-77.39"/>
</a>
</g>
</g>
<!-- Node41&#45;&gt;Node24 -->
<g id="edge55_Node000041_Node000024" class="edge">
<title>Node41&#45;&gt;Node24</title>
<g id="a_edge55_Node000041_Node000024"><a xlink:title=" ">
<path fill="none" stroke="#63b8ff" d="M468.97,-189.56C378.58,-187.88 155.91,-179.7 94.5,-140 74.32,-126.96 61.85,-101.38 55.3,-83.86"/>
<polygon fill="#63b8ff" stroke="#63b8ff" points="58.53,-82.5 51.96,-74.19 51.91,-84.78 58.53,-82.5"/>
</a>
</g>
</g>
<!-- Node42 -->
<g id="Node000042" class="node">
<title>Node42</title>
<g id="a_Node000042"><a xlink:href="math__utils__base_8h.html" target="_top" xlink:title=" ">
<polygon fill="white" stroke="#666666" points="209.5,-134.5 103.5,-134.5 103.5,-115.5 209.5,-115.5 209.5,-134.5"/>
<text text-anchor="middle" x="156.5" y="-122.5" font-family="Helvetica,sans-Serif" font-size="10.00">math_utils_base.h</text>
</a>
</g>
</g>
<!-- Node41&#45;&gt;Node42 -->
<g id="edge56_Node000041_Node000042" class="edge">
<title>Node41&#45;&gt;Node42</title>
<g id="a_edge56_Node000041_Node000042"><a xlink:title=" ">
<path fill="none" stroke="#63b8ff" d="M468.8,-183.18C415.06,-173.69 314.84,-155.86 229.5,-140 223.34,-138.86 216.89,-137.64 210.48,-136.42"/>
<polygon fill="#63b8ff" stroke="#63b8ff" points="210.97,-132.96 200.49,-134.52 209.66,-139.83 210.97,-132.96"/>
</a>
</g>
</g>
<!-- Node43 -->
<g id="Node000043" class="node">
<title>Node43</title>
<g id="a_Node000043"><a xlink:title=" ">
<polygon fill="#e0e0e0" stroke="#999999" points="414,-134.5 275,-134.5 275,-115.5 414,-115.5 414,-134.5"/>
<text text-anchor="middle" x="344.5" y="-122.5" font-family="Helvetica,sans-Serif" font-size="10.00">generated_comp_funcs.h</text>
</a>
</g>
</g>
<!-- Node41&#45;&gt;Node43 -->
<g id="edge58_Node000041_Node000043" class="edge">
<title>Node41&#45;&gt;Node43</title>
<g id="a_edge58_Node000041_Node000043"><a xlink:title=" ">
<path fill="none" stroke="#63b8ff" d="M485.52,-181.37C457.25,-170.27 407.96,-150.92 375.79,-138.28"/>
<polygon fill="#63b8ff" stroke="#63b8ff" points="376.98,-134.99 366.39,-134.6 374.42,-141.51 376.98,-134.99"/>
</a>
</g>
</g>
<!-- Node42&#45;&gt;Node24 -->
<g id="edge57_Node000042_Node000024" class="edge">
<title>Node42&#45;&gt;Node24</title>
<g id="a_edge57_Node000042_Node000024"><a xlink:title=" ">
<path fill="none" stroke="#63b8ff" d="M140.71,-115.37C123.17,-105.78 94.62,-90.17 74.13,-78.97"/>
<polygon fill="#63b8ff" stroke="#63b8ff" points="75.81,-75.89 65.35,-74.17 72.45,-82.04 75.81,-75.89"/>
</a>
</g>
</g>
<!-- Node44&#45;&gt;Node5 -->
<g id="edge60_Node000044_Node000005" class="edge">
<title>Node44&#45;&gt;Node5</title>
<g id="a_edge60_Node000044_Node000005"><a xlink:title=" ">
<path fill="none" stroke="#63b8ff" d="M970.83,-189.71C883.16,-187.63 743.4,-178.21 710.5,-140 697.34,-124.72 700.95,-100.43 705.78,-83.77"/>
<polygon fill="#63b8ff" stroke="#63b8ff" points="709.16,-84.68 708.97,-74.09 702.52,-82.49 709.16,-84.68"/>
</a>
</g>
</g>
</g>
</svg>
