<?xml version="1.0" encoding="UTF-8" standalone="no"?>
<!DOCTYPE svg PUBLIC "-//W3C//DTD SVG 1.1//EN"
 "http://www.w3.org/Graphics/SVG/1.1/DTD/svg11.dtd">
<!-- Generated by graphviz version 2.43.0 (0)
 -->
<!-- Title: acc&#45;runtime/api/vba.cc Pages: 1 -->
<!--zoomable 269 -->

<svg id="main" version="1.1" xmlns="http://www.w3.org/2000/svg" xmlns:xlink="http://www.w3.org/1999/xlink" xml:space="preserve" onload="init(evt)">
<style type="text/css"><![CDATA[
.node, .edge {opacity: 0.7;}
.node.selected, .edge.selected {opacity: 1;}
.edge:hover path { stroke: red; }
.edge:hover polygon { stroke: red; fill: red; }
]]></style>

<defs>
  <circle id="rim" cx="0" cy="0" r="7"/>
  <circle id="rim2" cx="0" cy="0" r="3.5"/>
  <g id="zoomPlus">
    <use xlink:href="#rim" fill="#404040"><set attributeName="fill" to="#808080" begin="zoomplus.mouseover" end="zoomplus.mouseout"/></use>
    <path d="M-4,0h8M0,-4v8" fill="none" stroke="white" stroke-width="1.5" pointer-events="none"/>
  </g>
  <g id="zoomMin">
    <use xlink:href="#rim" fill="#404040"><set attributeName="fill" to="#808080" begin="zoomminus.mouseover" end="zoomminus.mouseout"/></use>
    <path d="M-4,0h8" fill="none" stroke="white" stroke-width="1.5" pointer-events="none"/>
  </g>
  <g id="arrowUp" transform="translate(30 24)">
    <use xlink:href="#rim"/>
    <path pointer-events="none" fill="none" stroke="white" stroke-width="1.5" d="M0,-3.0v7 M-2.5,-0.5L0,-3.0L2.5,-0.5"/>
  </g>
  <g id="arrowRight" transform="rotate(90) translate(36 -43)">
    <use xlink:href="#rim"/>
    <path pointer-events="none" fill="none" stroke="white" stroke-width="1.5" d="M0,-3.0v7 M-2.5,-0.5L0,-3.0L2.5,-0.5"/>
  </g>
  <g id="arrowDown" transform="rotate(180) translate(-30 -48)">
    <use xlink:href="#rim"/>
    <path pointer-events="none" fill="none" stroke="white" stroke-width="1.5" d="M0,-3.0v7 M-2.5,-0.5L0,-3.0L2.5,-0.5"/>
  </g>
  <g id="arrowLeft" transform="rotate(270) translate(-36 17)">
    <use xlink:href="#rim"/>
    <path pointer-events="none" fill="none" stroke="white" stroke-width="1.5" d="M0,-3.0v7 M-2.5,-0.5L0,-3.0L2.5,-0.5"/>
  </g>
  <g id="resetDef">
    <use xlink:href="#rim2" fill="#404040"><set attributeName="fill" to="#808080" begin="reset.mouseover" end="reset.mouseout"/></use>
  </g>
</defs>
<script type="application/ecmascript">
var viewWidth = 3055;
var viewHeight = 269;
var sectionId = 'dynsection-0';
</script>
<script type="application/ecmascript" xlink:href="svg.min.js"/>
<svg id="graph" class="graph">
<g id="viewport">
<title>acc&#45;runtime/api/vba.cc</title>
<!-- Node1 -->
<g id="Node000001" class="node">
<title>Node1</title>
<g id="a_Node000001"><a xlink:title=" ">
<polygon fill="#999999" stroke="#666666" points="2063,-261 1935,-261 1935,-242 2063,-242 2063,-261"/>
<text text-anchor="middle" x="1999" y="-249" font-family="Helvetica,sans-Serif" font-size="10.00">acc&#45;runtime/api/vba.cc</text>
</a>
</g>
</g>
<!-- Node2 -->
<g id="Node000002" class="node">
<title>Node2</title>
<g id="a_Node000002"><a xlink:href="acc__runtime_8h.html" target="_top" xlink:title=" ">
<polygon fill="white" stroke="#666666" points="1834,-200.5 1748,-200.5 1748,-181.5 1834,-181.5 1834,-200.5"/>
<text text-anchor="middle" x="1791" y="-188.5" font-family="Helvetica,sans-Serif" font-size="10.00">acc_runtime.h</text>
</a>
</g>
</g>
<!-- Node1&#45;&gt;Node2 -->
<g id="edge1_Node000001_Node000002" class="edge">
<title>Node1&#45;&gt;Node2</title>
<g id="a_edge1_Node000001_Node000002"><a xlink:title=" ">
<path fill="none" stroke="#63b8ff" d="M1968.76,-241.99C1932.4,-231.77 1871.27,-214.58 1831.03,-203.26"/>
<polygon fill="#63b8ff" stroke="#63b8ff" points="1831.86,-199.85 1821.28,-200.52 1829.96,-206.59 1831.86,-199.85"/>
</a>
</g>
</g>
<!-- Node40 -->
<g id="Node000040" class="node">
<title>Node40</title>
<g id="a_Node000040"><a xlink:href="math__utils_8h.html" target="_top" xlink:title="Brief info.">
<polygon fill="white" stroke="#666666" points="452.5,-200.5 375.5,-200.5 375.5,-181.5 452.5,-181.5 452.5,-200.5"/>
<text text-anchor="middle" x="414" y="-188.5" font-family="Helvetica,sans-Serif" font-size="10.00">math_utils.h</text>
</a>
</g>
</g>
<!-- Node1&#45;&gt;Node40 -->
<g id="edge48_Node000001_Node000040" class="edge">
<title>Node1&#45;&gt;Node40</title>
<g id="a_edge48_Node000001_Node000040"><a xlink:title=" ">
<path fill="none" stroke="#63b8ff" d="M1934.9,-248.13C1673.81,-238.5 693.35,-202.31 462.77,-193.8"/>
<polygon fill="#63b8ff" stroke="#63b8ff" points="462.8,-190.3 452.68,-193.43 462.54,-197.29 462.8,-190.3"/>
</a>
</g>
</g>
<!-- Node43 -->
<g id="Node000043" class="node">
<title>Node43</title>
<g id="a_Node000043"><a xlink:href="astaroth__cuda__wrappers_8h.html" target="_top" xlink:title=" ">
<polygon fill="white" stroke="#666666" points="1997.5,-200.5 1852.5,-200.5 1852.5,-181.5 1997.5,-181.5 1997.5,-200.5"/>
<text text-anchor="middle" x="1925" y="-188.5" font-family="Helvetica,sans-Serif" font-size="10.00">astaroth_cuda_wrappers.h</text>
</a>
</g>
</g>
<!-- Node1&#45;&gt;Node43 -->
<g id="edge58_Node000001_Node000043" class="edge">
<title>Node1&#45;&gt;Node43</title>
<g id="a_edge58_Node000001_Node000043"><a xlink:title=" ">
<path fill="none" stroke="#63b8ff" d="M1988.08,-241.87C1976.49,-232.71 1957.97,-218.06 1943.98,-207.01"/>
<polygon fill="#63b8ff" stroke="#63b8ff" points="1945.98,-204.12 1935.96,-200.67 1941.64,-209.61 1945.98,-204.12"/>
</a>
</g>
</g>
<!-- Node44 -->
<g id="Node000044" class="node">
<title>Node44</title>
<g id="a_Node000044"><a xlink:title=" ">
<polygon fill="#e0e0e0" stroke="#999999" points="2132,-200.5 2016,-200.5 2016,-181.5 2132,-181.5 2132,-200.5"/>
<text text-anchor="middle" x="2074" y="-188.5" font-family="Helvetica,sans-Serif" font-size="10.00">stencil_accesses.inc</text>
</a>
</g>
</g>
<!-- Node1&#45;&gt;Node44 -->
<g id="edge60_Node000001_Node000044" class="edge">
<title>Node1&#45;&gt;Node44</title>
<g id="a_edge60_Node000001_Node000044"><a xlink:title=" ">
<path fill="none" stroke="#63b8ff" d="M2010.07,-241.87C2021.81,-232.71 2040.59,-218.06 2054.76,-207.01"/>
<polygon fill="#63b8ff" stroke="#63b8ff" points="2057.16,-209.58 2062.89,-200.67 2052.85,-204.06 2057.16,-209.58"/>
</a>
</g>
</g>
<!-- Node45 -->
<g id="Node000045" class="node">
<title>Node45</title>
<g id="a_Node000045"><a xlink:href="static__analysis_8h.html" target="_top" xlink:title=" ">
<polygon fill="white" stroke="#666666" points="2248,-200.5 2150,-200.5 2150,-181.5 2248,-181.5 2248,-200.5"/>
<text text-anchor="middle" x="2199" y="-188.5" font-family="Helvetica,sans-Serif" font-size="10.00">static_analysis.h</text>
</a>
</g>
</g>
<!-- Node1&#45;&gt;Node45 -->
<g id="edge61_Node000001_Node000045" class="edge">
<title>Node1&#45;&gt;Node45</title>
<g id="a_edge61_Node000001_Node000045"><a xlink:title=" ">
<path fill="none" stroke="#63b8ff" d="M2028.08,-241.99C2062.89,-231.81 2121.32,-214.72 2160.01,-203.4"/>
<polygon fill="#63b8ff" stroke="#63b8ff" points="2161.27,-206.68 2169.88,-200.52 2159.3,-199.96 2161.27,-206.68"/>
</a>
</g>
</g>
<!-- Node46 -->
<g id="Node000046" class="node">
<title>Node46</title>
<g id="a_Node000046"><a xlink:title=" ">
<polygon fill="#e0e0e0" stroke="#999999" points="2397.5,-206 2266.5,-206 2266.5,-176 2397.5,-176 2397.5,-206"/>
<text text-anchor="start" x="2274.5" y="-194" font-family="Helvetica,sans-Serif" font-size="10.00">user_builtin_non_scalar</text>
<text text-anchor="middle" x="2332" y="-183" font-family="Helvetica,sans-Serif" font-size="10.00">_constants.inc</text>
</a>
</g>
</g>
<!-- Node1&#45;&gt;Node46 -->
<g id="edge62_Node000001_Node000046" class="edge">
<title>Node1&#45;&gt;Node46</title>
<g id="a_edge62_Node000001_Node000046"><a xlink:title=" ">
<path fill="none" stroke="#63b8ff" d="M2049.95,-241.92C2099.88,-233.47 2178.43,-220.05 2256.19,-206.13"/>
<polygon fill="#63b8ff" stroke="#63b8ff" points="2256.93,-209.55 2266.16,-204.34 2255.7,-202.66 2256.93,-209.55"/>
</a>
</g>
</g>
<!-- Node3 -->
<g id="Node000003" class="node">
<title>Node3</title>
<g id="a_Node000003"><a xlink:title=" ">
<polygon fill="#e0e0e0" stroke="#999999" points="563,-74 513,-74 513,-55 563,-55 563,-74"/>
<text text-anchor="middle" x="538" y="-62" font-family="Helvetica,sans-Serif" font-size="10.00">stdio.h</text>
</a>
</g>
</g>
<!-- Node2&#45;&gt;Node3 -->
<g id="edge2_Node000002_Node000003" class="edge">
<title>Node2&#45;&gt;Node3</title>
<g id="a_edge2_Node000002_Node000003"><a xlink:title=" ">
<path fill="none" stroke="#63b8ff" d="M1747.92,-189.36C1538.42,-186.08 634.09,-170.23 583,-140 562.23,-127.71 549.86,-101.74 543.49,-83.96"/>
<polygon fill="#63b8ff" stroke="#63b8ff" points="546.79,-82.78 540.35,-74.37 540.14,-84.96 546.79,-82.78"/>
</a>
</g>
</g>
<!-- Node4 -->
<g id="Node000004" class="node">
<title>Node4</title>
<g id="a_Node000004"><a xlink:title=" ">
<polygon fill="#e0e0e0" stroke="#999999" points="1012,-74 950,-74 950,-55 1012,-55 1012,-74"/>
<text text-anchor="middle" x="981" y="-62" font-family="Helvetica,sans-Serif" font-size="10.00">stdbool.h</text>
</a>
</g>
</g>
<!-- Node2&#45;&gt;Node4 -->
<g id="edge3_Node000002_Node000004" class="edge">
<title>Node2&#45;&gt;Node4</title>
<g id="a_edge3_Node000002_Node000004"><a xlink:title=" ">
<path fill="none" stroke="#63b8ff" d="M1820.29,-181.5C1827.66,-179.53 1835.59,-177.56 1843,-176 1950.01,-153.54 2155.99,-188.62 2080,-110 2040.53,-69.16 1145.77,-80.27 1022.66,-73.52"/>
<polygon fill="#63b8ff" stroke="#63b8ff" points="1022.6,-70 1012.36,-72.71 1022.05,-76.98 1022.6,-70"/>
</a>
</g>
</g>
<!-- Node5 -->
<g id="Node000005" class="node">
<title>Node5</title>
<g id="a_Node000005"><a xlink:href="device__headers_8h.html" target="_top" xlink:title=" ">
<polygon fill="white" stroke="#666666" points="1254,-74 1152,-74 1152,-55 1254,-55 1254,-74"/>
<text text-anchor="middle" x="1203" y="-62" font-family="Helvetica,sans-Serif" font-size="10.00">device_headers.h</text>
</a>
</g>
</g>
<!-- Node2&#45;&gt;Node5 -->
<g id="edge4_Node000002_Node000005" class="edge">
<title>Node2&#45;&gt;Node5</title>
<g id="a_edge4_Node000002_Node000005"><a xlink:title=" ">
<path fill="none" stroke="#63b8ff" d="M1819.99,-181.48C1827.45,-179.48 1835.48,-177.51 1843,-176 1964.13,-151.73 2198.19,-199.46 2113,-110 2083.73,-79.27 1463.82,-68.79 1264.28,-66.2"/>
<polygon fill="#63b8ff" stroke="#63b8ff" points="1264.31,-62.7 1254.26,-66.07 1264.22,-69.7 1264.31,-62.7"/>
</a>
</g>
</g>
<!-- Node8 -->
<g id="Node000008" class="node">
<title>Node8</title>
<g id="a_Node000008"><a xlink:title=" ">
<polygon fill="#e0e0e0" stroke="#999999" points="2238.5,-74 2143.5,-74 2143.5,-55 2238.5,-55 2238.5,-74"/>
<text text-anchor="middle" x="2191" y="-62" font-family="Helvetica,sans-Serif" font-size="10.00">builtin_enums.h</text>
</a>
</g>
</g>
<!-- Node2&#45;&gt;Node8 -->
<g id="edge7_Node000002_Node000008" class="edge">
<title>Node2&#45;&gt;Node8</title>
<g id="a_edge7_Node000002_Node000008"><a xlink:title=" ">
<path fill="none" stroke="#63b8ff" d="M1818.01,-181.45C1825.98,-179.28 1834.77,-177.21 1843,-176 1908.82,-166.29 2993.67,-187.75 3040,-140 3049.29,-130.43 3049.18,-119.67 3040,-110 3012.77,-81.3 2435.41,-69.46 2248.69,-66.37"/>
<polygon fill="#63b8ff" stroke="#63b8ff" points="2248.59,-62.87 2238.53,-66.2 2248.47,-69.87 2248.59,-62.87"/>
</a>
</g>
</g>
<!-- Node9 -->
<g id="Node000009" class="node">
<title>Node9</title>
<g id="a_Node000009"><a xlink:href="datatypes_8h.html" target="_top" xlink:title=" ">
<polygon fill="white" stroke="#666666" points="666,-134.5 592,-134.5 592,-115.5 666,-115.5 666,-134.5"/>
<text text-anchor="middle" x="629" y="-122.5" font-family="Helvetica,sans-Serif" font-size="10.00">datatypes.h</text>
</a>
</g>
</g>
<!-- Node2&#45;&gt;Node9 -->
<g id="edge8_Node000002_Node000009" class="edge">
<title>Node2&#45;&gt;Node9</title>
<g id="a_edge8_Node000002_Node000009"><a xlink:title=" ">
<path fill="none" stroke="#63b8ff" d="M1747.8,-189.51C1569.07,-187.26 886.93,-176.4 675,-140 671.04,-139.32 666.94,-138.4 662.9,-137.36"/>
<polygon fill="#63b8ff" stroke="#63b8ff" points="663.65,-133.93 653.08,-134.57 661.74,-140.67 663.65,-133.93"/>
</a>
</g>
</g>
<!-- Node17 -->
<g id="Node000017" class="node">
<title>Node17</title>
<g id="a_Node000017"><a xlink:href="errchk_8h.html" target="_top" xlink:title="Brief info.">
<polygon fill="white" stroke="#666666" points="536,-134.5 480,-134.5 480,-115.5 536,-115.5 536,-134.5"/>
<text text-anchor="middle" x="508" y="-122.5" font-family="Helvetica,sans-Serif" font-size="10.00">errchk.h</text>
</a>
</g>
</g>
<!-- Node2&#45;&gt;Node17 -->
<g id="edge20_Node000002_Node000017" class="edge">
<title>Node2&#45;&gt;Node17</title>
<g id="a_edge20_Node000002_Node000017"><a xlink:title=" ">
<path fill="none" stroke="#63b8ff" d="M1747.86,-189.89C1556.95,-189.13 787.16,-183.4 550,-140 546.57,-139.37 543.04,-138.53 539.54,-137.56"/>
<polygon fill="#63b8ff" stroke="#63b8ff" points="540.51,-134.2 529.93,-134.6 538.45,-140.89 540.51,-134.2"/>
</a>
</g>
</g>
<!-- Node21 -->
<g id="Node000021" class="node">
<title>Node21</title>
<g id="a_Node000021"><a xlink:title=" ">
<polygon fill="#e0e0e0" stroke="#999999" points="779.5,-134.5 684.5,-134.5 684.5,-115.5 779.5,-115.5 779.5,-134.5"/>
<text text-anchor="middle" x="732" y="-122.5" font-family="Helvetica,sans-Serif" font-size="10.00">user_defines.inc</text>
</a>
</g>
</g>
<!-- Node2&#45;&gt;Node21 -->
<g id="edge29_Node000002_Node000021" class="edge">
<title>Node2&#45;&gt;Node21</title>
<g id="a_edge29_Node000002_Node000021"><a xlink:title=" ">
<path fill="none" stroke="#63b8ff" d="M1747.81,-188.94C1580.95,-184.69 978.36,-167.72 789,-140 783.52,-139.2 777.79,-138.1 772.18,-136.88"/>
<polygon fill="#63b8ff" stroke="#63b8ff" points="772.79,-133.43 762.26,-134.57 771.2,-140.25 772.79,-133.43"/>
</a>
</g>
</g>
<!-- Node22 -->
<g id="Node000022" class="node">
<title>Node22</title>
<g id="a_Node000022"><a xlink:title=" ">
<polygon fill="#e0e0e0" stroke="#999999" points="892,-134.5 798,-134.5 798,-115.5 892,-115.5 892,-134.5"/>
<text text-anchor="middle" x="845" y="-122.5" font-family="Helvetica,sans-Serif" font-size="10.00">profiles_info.inc</text>
</a>
</g>
</g>
<!-- Node2&#45;&gt;Node22 -->
<g id="edge30_Node000002_Node000022" class="edge">
<title>Node2&#45;&gt;Node22</title>
<g id="a_edge30_Node000002_Node000022"><a xlink:title=" ">
<path fill="none" stroke="#63b8ff" d="M1747.63,-190.45C1618.17,-191.18 1223.46,-188.92 901,-140 895.61,-139.18 889.99,-138.08 884.47,-136.85"/>
<polygon fill="#63b8ff" stroke="#63b8ff" points="885.26,-133.44 874.72,-134.54 883.64,-140.25 885.26,-133.44"/>
</a>
</g>
</g>
<!-- Node23 -->
<g id="Node000023" class="node">
<title>Node23</title>
<g id="a_Node000023"><a xlink:title=" ">
<polygon fill="#e0e0e0" stroke="#999999" points="1057.5,-134.5 910.5,-134.5 910.5,-115.5 1057.5,-115.5 1057.5,-134.5"/>
<text text-anchor="middle" x="984" y="-122.5" font-family="Helvetica,sans-Serif" font-size="10.00">user_built&#45;in_constants.inc</text>
</a>
</g>
</g>
<!-- Node2&#45;&gt;Node23 -->
<g id="edge31_Node000002_Node000023" class="edge">
<title>Node2&#45;&gt;Node23</title>
<g id="a_edge31_Node000002_Node000023"><a xlink:title=" ">
<path fill="none" stroke="#63b8ff" d="M1747.96,-188.54C1635.5,-184.39 1323.75,-170.81 1066,-140 1057.25,-138.95 1048.01,-137.61 1039.01,-136.17"/>
<polygon fill="#63b8ff" stroke="#63b8ff" points="1039.43,-132.69 1029,-134.52 1038.29,-139.6 1039.43,-132.69"/>
</a>
</g>
</g>
<!-- Node24 -->
<g id="Node000024" class="node">
<title>Node24</title>
<g id="a_Node000024"><a xlink:href="func__attributes_8h.html" target="_top" xlink:title=" ">
<polygon fill="white" stroke="#666666" points="179.5,-74 80.5,-74 80.5,-55 179.5,-55 179.5,-74"/>
<text text-anchor="middle" x="130" y="-62" font-family="Helvetica,sans-Serif" font-size="10.00">func_attributes.h</text>
</a>
</g>
</g>
<!-- Node2&#45;&gt;Node24 -->
<g id="edge32_Node000002_Node000024" class="edge">
<title>Node2&#45;&gt;Node24</title>
<g id="a_edge32_Node000002_Node000024"><a xlink:title=" ">
<path fill="none" stroke="#63b8ff" d="M1747.86,-189.63C1549.73,-187.71 725.81,-177.6 471,-140 418.74,-132.29 407.49,-121.77 356,-110 299.1,-96.99 233.62,-84.35 187.83,-75.89"/>
<polygon fill="#63b8ff" stroke="#63b8ff" points="188.26,-72.41 177.8,-74.04 187,-79.29 188.26,-72.41"/>
</a>
</g>
</g>
<!-- Node25 -->
<g id="Node000025" class="node">
<title>Node25</title>
<g id="a_Node000025"><a xlink:title=" ">
<polygon fill="#e0e0e0" stroke="#999999" points="1208.5,-134.5 1075.5,-134.5 1075.5,-115.5 1208.5,-115.5 1208.5,-134.5"/>
<text text-anchor="middle" x="1142" y="-122.5" font-family="Helvetica,sans-Serif" font-size="10.00">user_input_typedefs.inc</text>
</a>
</g>
</g>
<!-- Node2&#45;&gt;Node25 -->
<g id="edge33_Node000002_Node000025" class="edge">
<title>Node2&#45;&gt;Node25</title>
<g id="a_edge33_Node000002_Node000025"><a xlink:title=" ">
<path fill="none" stroke="#63b8ff" d="M1748,-187.69C1652.27,-182.24 1414.48,-166.97 1217,-140 1209.34,-138.95 1201.28,-137.66 1193.39,-136.28"/>
<polygon fill="#63b8ff" stroke="#63b8ff" points="1194,-132.83 1183.54,-134.5 1192.76,-139.72 1194,-132.83"/>
</a>
</g>
</g>
<!-- Node26 -->
<g id="Node000026" class="node">
<title>Node26</title>
<g id="a_Node000026"><a xlink:title=" ">
<polygon fill="#e0e0e0" stroke="#999999" points="1317.5,-134.5 1226.5,-134.5 1226.5,-115.5 1317.5,-115.5 1317.5,-134.5"/>
<text text-anchor="middle" x="1272" y="-122.5" font-family="Helvetica,sans-Serif" font-size="10.00">output_decl.inc</text>
</a>
</g>
</g>
<!-- Node2&#45;&gt;Node26 -->
<g id="edge34_Node000002_Node000026" class="edge">
<title>Node2&#45;&gt;Node26</title>
<g id="a_edge34_Node000002_Node000026"><a xlink:title=" ">
<path fill="none" stroke="#63b8ff" d="M1747.74,-187.47C1665.21,-182.18 1479.76,-168.04 1326,-140 1321.3,-139.14 1316.42,-138.1 1311.58,-136.97"/>
<polygon fill="#63b8ff" stroke="#63b8ff" points="1312.36,-133.56 1301.82,-134.56 1310.69,-140.35 1312.36,-133.56"/>
</a>
</g>
</g>
<!-- Node27 -->
<g id="Node000027" class="node">
<title>Node27</title>
<g id="a_Node000027"><a xlink:title=" ">
<polygon fill="#e0e0e0" stroke="#999999" points="1460.5,-134.5 1335.5,-134.5 1335.5,-115.5 1460.5,-115.5 1460.5,-134.5"/>
<text text-anchor="middle" x="1398" y="-122.5" font-family="Helvetica,sans-Serif" font-size="10.00">comp_loaded_decl.inc</text>
</a>
</g>
</g>
<!-- Node2&#45;&gt;Node27 -->
<g id="edge35_Node000002_Node000027" class="edge">
<title>Node2&#45;&gt;Node27</title>
<g id="a_edge35_Node000002_Node000027"><a xlink:title=" ">
<path fill="none" stroke="#63b8ff" d="M1747.82,-183.8C1686.11,-174.82 1569.17,-157.36 1470,-140 1463.74,-138.9 1457.19,-137.71 1450.7,-136.48"/>
<polygon fill="#63b8ff" stroke="#63b8ff" points="1451.07,-132.99 1440.59,-134.56 1449.76,-139.87 1451.07,-132.99"/>
</a>
</g>
</g>
<!-- Node28 -->
<g id="Node000028" class="node">
<title>Node28</title>
<g id="a_Node000028"><a xlink:title=" ">
<polygon fill="#e0e0e0" stroke="#999999" points="1565,-134.5 1479,-134.5 1479,-115.5 1565,-115.5 1565,-134.5"/>
<text text-anchor="middle" x="1522" y="-122.5" font-family="Helvetica,sans-Serif" font-size="10.00">comp_decl.inc</text>
</a>
</g>
</g>
<!-- Node2&#45;&gt;Node28 -->
<g id="edge36_Node000002_Node000028" class="edge">
<title>Node2&#45;&gt;Node28</title>
<g id="a_edge36_Node000002_Node000028"><a xlink:title=" ">
<path fill="none" stroke="#63b8ff" d="M1752.09,-181.48C1708.58,-171.86 1636.08,-155.5 1574,-140 1570.39,-139.1 1566.64,-138.14 1562.88,-137.16"/>
<polygon fill="#63b8ff" stroke="#63b8ff" points="1563.59,-133.72 1553.02,-134.55 1561.8,-140.49 1563.59,-133.72"/>
</a>
</g>
</g>
<!-- Node29 -->
<g id="Node000029" class="node">
<title>Node29</title>
<g id="a_Node000029"><a xlink:title=" ">
<polygon fill="#e0e0e0" stroke="#999999" points="1699,-134.5 1583,-134.5 1583,-115.5 1699,-115.5 1699,-134.5"/>
<text text-anchor="middle" x="1641" y="-122.5" font-family="Helvetica,sans-Serif" font-size="10.00">info_loaded_decl.inc</text>
</a>
</g>
</g>
<!-- Node2&#45;&gt;Node29 -->
<g id="edge37_Node000002_Node000029" class="edge">
<title>Node2&#45;&gt;Node29</title>
<g id="a_edge37_Node000002_Node000029"><a xlink:title=" ">
<path fill="none" stroke="#63b8ff" d="M1770.77,-181.37C1745.05,-170.39 1700.43,-151.36 1670.81,-138.72"/>
<polygon fill="#63b8ff" stroke="#63b8ff" points="1671.96,-135.4 1661.39,-134.7 1669.21,-141.84 1671.96,-135.4"/>
</a>
</g>
</g>
<!-- Node30 -->
<g id="Node000030" class="node">
<title>Node30</title>
<g id="a_Node000030"><a xlink:title=" ">
<polygon fill="#e0e0e0" stroke="#999999" points="1865,-134.5 1717,-134.5 1717,-115.5 1865,-115.5 1865,-134.5"/>
<text text-anchor="middle" x="1791" y="-122.5" font-family="Helvetica,sans-Serif" font-size="10.00">device_mesh_info_decl.inc</text>
</a>
</g>
</g>
<!-- Node2&#45;&gt;Node30 -->
<g id="edge38_Node000002_Node000030" class="edge">
<title>Node2&#45;&gt;Node30</title>
<g id="a_edge38_Node000002_Node000030"><a xlink:title=" ">
<path fill="none" stroke="#63b8ff" d="M1791,-181.37C1791,-172.16 1791,-157.29 1791,-145.27"/>
<polygon fill="#63b8ff" stroke="#63b8ff" points="1794.5,-144.91 1791,-134.91 1787.5,-144.91 1794.5,-144.91"/>
</a>
</g>
</g>
<!-- Node31 -->
<g id="Node000031" class="node">
<title>Node31</title>
<g id="a_Node000031"><a xlink:title=" ">
<polygon fill="#e0e0e0" stroke="#999999" points="1968.5,-134.5 1883.5,-134.5 1883.5,-115.5 1968.5,-115.5 1968.5,-134.5"/>
<text text-anchor="middle" x="1926" y="-122.5" font-family="Helvetica,sans-Serif" font-size="10.00">array_decl.inc</text>
</a>
</g>
</g>
<!-- Node2&#45;&gt;Node31 -->
<g id="edge39_Node000002_Node000031" class="edge">
<title>Node2&#45;&gt;Node31</title>
<g id="a_edge39_Node000002_Node000031"><a xlink:title=" ">
<path fill="none" stroke="#63b8ff" d="M1809.21,-181.37C1832.15,-170.49 1871.81,-151.69 1898.47,-139.05"/>
<polygon fill="#63b8ff" stroke="#63b8ff" points="1900.11,-142.15 1907.65,-134.7 1897.12,-135.82 1900.11,-142.15"/>
</a>
</g>
</g>
<!-- Node32 -->
<g id="Node000032" class="node">
<title>Node32</title>
<g id="a_Node000032"><a xlink:title=" ">
<polygon fill="#e0e0e0" stroke="#999999" points="2071,-134.5 1987,-134.5 1987,-115.5 2071,-115.5 2071,-134.5"/>
<text text-anchor="middle" x="2029" y="-122.5" font-family="Helvetica,sans-Serif" font-size="10.00">input_decl.inc</text>
</a>
</g>
</g>
<!-- Node2&#45;&gt;Node32 -->
<g id="edge40_Node000002_Node000032" class="edge">
<title>Node2&#45;&gt;Node32</title>
<g id="a_edge40_Node000002_Node000032"><a xlink:title=" ">
<path fill="none" stroke="#63b8ff" d="M1822.62,-181.48C1829.35,-179.67 1836.41,-177.77 1843,-176 1902.55,-159.98 1917.45,-156.02 1977,-140 1980.4,-139.09 1983.92,-138.14 1987.46,-137.19"/>
<polygon fill="#63b8ff" stroke="#63b8ff" points="1988.63,-140.5 1997.38,-134.52 1986.81,-133.74 1988.63,-140.5"/>
</a>
</g>
</g>
<!-- Node33 -->
<g id="Node000033" class="node">
<title>Node33</title>
<g id="a_Node000033"><a xlink:href="ac__helpers_8h.html" target="_top" xlink:title=" ">
<polygon fill="white" stroke="#666666" points="2243,-134.5 2165,-134.5 2165,-115.5 2243,-115.5 2243,-134.5"/>
<text text-anchor="middle" x="2204" y="-122.5" font-family="Helvetica,sans-Serif" font-size="10.00">ac_helpers.h</text>
</a>
</g>
</g>
<!-- Node2&#45;&gt;Node33 -->
<g id="edge41_Node000002_Node000033" class="edge">
<title>Node2&#45;&gt;Node33</title>
<g id="a_edge41_Node000002_Node000033"><a xlink:title=" ">
<path fill="none" stroke="#63b8ff" d="M1819.71,-181.47C1827.23,-179.45 1835.38,-177.46 1843,-176 1978.35,-150.02 2015.59,-165.66 2151,-140 2155.49,-139.15 2160.15,-138.13 2164.78,-137.02"/>
<polygon fill="#63b8ff" stroke="#63b8ff" points="2165.89,-140.35 2174.73,-134.52 2164.18,-133.56 2165.89,-140.35"/>
</a>
</g>
</g>
<!-- Node34 -->
<g id="Node000034" class="node">
<title>Node34</title>
<g id="a_Node000034"><a xlink:title=" ">
<polygon fill="#e0e0e0" stroke="#999999" points="2379,-140 2261,-140 2261,-110 2379,-110 2379,-140"/>
<text text-anchor="start" x="2269" y="-128" font-family="Helvetica,sans-Serif" font-size="10.00">scalar_reduce_buffer</text>
<text text-anchor="middle" x="2320" y="-117" font-family="Helvetica,sans-Serif" font-size="10.00">_defs.inc</text>
</a>
</g>
</g>
<!-- Node2&#45;&gt;Node34 -->
<g id="edge42_Node000002_Node000034" class="edge">
<title>Node2&#45;&gt;Node34</title>
<g id="a_edge42_Node000002_Node000034"><a xlink:title=" ">
<path fill="none" stroke="#63b8ff" d="M1819.13,-181.46C1826.81,-179.4 1835.18,-177.39 1843,-176 2019.43,-144.73 2069.64,-165.66 2250.61,-140.08"/>
<polygon fill="#63b8ff" stroke="#63b8ff" points="2251.33,-143.51 2260.73,-138.62 2250.34,-136.58 2251.33,-143.51"/>
</a>
</g>
</g>
<!-- Node35 -->
<g id="Node000035" class="node">
<title>Node35</title>
<g id="a_Node000035"><a xlink:title=" ">
<polygon fill="#e0e0e0" stroke="#999999" points="2520.5,-140 2397.5,-140 2397.5,-110 2520.5,-110 2520.5,-140"/>
<text text-anchor="start" x="2405.5" y="-128" font-family="Helvetica,sans-Serif" font-size="10.00">scalar_reduce_buffers</text>
<text text-anchor="middle" x="2459" y="-117" font-family="Helvetica,sans-Serif" font-size="10.00">_in_vba.inc</text>
</a>
</g>
</g>
<!-- Node2&#45;&gt;Node35 -->
<g id="edge43_Node000002_Node000035" class="edge">
<title>Node2&#45;&gt;Node35</title>
<g id="a_edge43_Node000002_Node000035"><a xlink:title=" ">
<path fill="none" stroke="#63b8ff" d="M1818.57,-181.49C1826.4,-179.38 1834.98,-177.33 1843,-176 2079.2,-136.8 2145.5,-170.6 2386.98,-140"/>
<polygon fill="#63b8ff" stroke="#63b8ff" points="2387.65,-143.44 2397.12,-138.69 2386.76,-136.5 2387.65,-143.44"/>
</a>
</g>
</g>
<!-- Node36 -->
<g id="Node000036" class="node">
<title>Node36</title>
<g id="a_Node000036"><a xlink:href="astaroth__analysis_8h.html" target="_top" xlink:title=" ">
<polygon fill="white" stroke="#666666" points="2651,-134.5 2539,-134.5 2539,-115.5 2651,-115.5 2651,-134.5"/>
<text text-anchor="middle" x="2595" y="-122.5" font-family="Helvetica,sans-Serif" font-size="10.00">astaroth_analysis.h</text>
</a>
</g>
</g>
<!-- Node2&#45;&gt;Node36 -->
<g id="edge44_Node000002_Node000036" class="edge">
<title>Node2&#45;&gt;Node36</title>
<g id="a_edge44_Node000002_Node000036"><a xlink:title=" ">
<path fill="none" stroke="#63b8ff" d="M1818.29,-181.5C1826.19,-179.35 1834.87,-177.29 1843,-176 2144.52,-128.05 2226.3,-179.8 2529,-140 2535.79,-139.11 2542.92,-137.89 2549.88,-136.55"/>
<polygon fill="#63b8ff" stroke="#63b8ff" points="2550.79,-139.93 2559.9,-134.51 2549.4,-133.08 2550.79,-139.93"/>
</a>
</g>
</g>
<!-- Node37 -->
<g id="Node000037" class="node">
<title>Node37</title>
<g id="a_Node000037"><a xlink:href="func__define_8h.html" target="_top" xlink:title=" ">
<polygon fill="white" stroke="#666666" points="2751,-134.5 2669,-134.5 2669,-115.5 2751,-115.5 2751,-134.5"/>
<text text-anchor="middle" x="2710" y="-122.5" font-family="Helvetica,sans-Serif" font-size="10.00">func_define.h</text>
</a>
</g>
</g>
<!-- Node2&#45;&gt;Node37 -->
<g id="edge45_Node000002_Node000037" class="edge">
<title>Node2&#45;&gt;Node37</title>
<g id="a_edge45_Node000002_Node000037"><a xlink:title=" ">
<path fill="none" stroke="#63b8ff" d="M1818.29,-181.45C1826.18,-179.31 1834.87,-177.26 1843,-176 2202.19,-120.42 2301.09,-197.38 2660,-140 2664.53,-139.28 2669.23,-138.29 2673.86,-137.17"/>
<polygon fill="#63b8ff" stroke="#63b8ff" points="2675,-140.49 2683.78,-134.56 2673.22,-133.72 2675,-140.49"/>
</a>
</g>
</g>
<!-- Node38 -->
<g id="Node000038" class="node">
<title>Node38</title>
<g id="a_Node000038"><a xlink:href="common__kernels_8h.html" target="_top" xlink:title=" ">
<polygon fill="white" stroke="#666666" points="2878.5,-134.5 2769.5,-134.5 2769.5,-115.5 2878.5,-115.5 2878.5,-134.5"/>
<text text-anchor="middle" x="2824" y="-122.5" font-family="Helvetica,sans-Serif" font-size="10.00">common_kernels.h</text>
</a>
</g>
</g>
<!-- Node2&#45;&gt;Node38 -->
<g id="edge46_Node000002_Node000038" class="edge">
<title>Node2&#45;&gt;Node38</title>
<g id="a_edge46_Node000002_Node000038"><a xlink:title=" ">
<path fill="none" stroke="#63b8ff" d="M1818.01,-181.5C1825.98,-179.33 1834.77,-177.25 1843,-176 2246.22,-114.6 2355.43,-191.78 2760,-140 2766.67,-139.15 2773.67,-137.94 2780.5,-136.59"/>
<polygon fill="#63b8ff" stroke="#63b8ff" points="2781.25,-140.01 2790.32,-134.53 2779.81,-133.16 2781.25,-140.01"/>
</a>
</g>
</g>
<!-- Node39 -->
<g id="Node000039" class="node">
<title>Node39</title>
<g id="a_Node000039"><a xlink:title=" ">
<polygon fill="#e0e0e0" stroke="#999999" points="3031,-140 2897,-140 2897,-110 3031,-110 3031,-140"/>
<text text-anchor="start" x="2905" y="-128" font-family="Helvetica,sans-Serif" font-size="10.00">load_and_store_uniform</text>
<text text-anchor="middle" x="2964" y="-117" font-family="Helvetica,sans-Serif" font-size="10.00">_header.inc</text>
</a>
</g>
</g>
<!-- Node2&#45;&gt;Node39 -->
<g id="edge47_Node000002_Node000039" class="edge">
<title>Node2&#45;&gt;Node39</title>
<g id="a_edge47_Node000002_Node000039"><a xlink:title=" ">
<path fill="none" stroke="#63b8ff" d="M1818.01,-181.47C1825.98,-179.3 1834.77,-177.23 1843,-176 2299.34,-107.63 2424.24,-189.06 2886.99,-139.98"/>
<polygon fill="#63b8ff" stroke="#63b8ff" points="2887.37,-143.46 2896.94,-138.91 2886.63,-136.5 2887.37,-143.46"/>
</a>
</g>
</g>
<!-- Node6 -->
<g id="Node000006" class="node">
<title>Node6</title>
<g id="a_Node000006"><a xlink:title=" ">
<polygon fill="#e0e0e0" stroke="#999999" points="1008.5,-19 895.5,-19 895.5,0 1008.5,0 1008.5,-19"/>
<text text-anchor="middle" x="952" y="-7" font-family="Helvetica,sans-Serif" font-size="10.00">cuda_runtime_api.h</text>
</a>
</g>
</g>
<!-- Node5&#45;&gt;Node6 -->
<g id="edge5_Node000005_Node000006" class="edge">
<title>Node5&#45;&gt;Node6</title>
<g id="a_edge5_Node000005_Node000006"><a xlink:title=" ">
<path fill="none" stroke="#63b8ff" d="M1162.67,-54.98C1119.16,-45.8 1049.8,-31.15 1002.65,-21.19"/>
<polygon fill="#63b8ff" stroke="#63b8ff" points="1003.15,-17.72 992.64,-19.08 1001.7,-24.57 1003.15,-17.72"/>
</a>
</g>
</g>
<!-- Node7 -->
<g id="Node000007" class="node">
<title>Node7</title>
<g id="a_Node000007"><a xlink:title=" ">
<polygon fill="#e0e0e0" stroke="#999999" points="1241,-19 1165,-19 1165,0 1241,0 1241,-19"/>
<text text-anchor="middle" x="1203" y="-7" font-family="Helvetica,sans-Serif" font-size="10.00">cuda_fp16.h</text>
</a>
</g>
</g>
<!-- Node5&#45;&gt;Node7 -->
<g id="edge6_Node000005_Node000007" class="edge">
<title>Node5&#45;&gt;Node7</title>
<g id="a_edge6_Node000005_Node000007"><a xlink:title=" ">
<path fill="none" stroke="#63b8ff" d="M1203,-54.75C1203,-47.8 1203,-37.85 1203,-29.13"/>
<polygon fill="#63b8ff" stroke="#63b8ff" points="1206.5,-29.09 1203,-19.09 1199.5,-29.09 1206.5,-29.09"/>
</a>
</g>
</g>
<!-- Node9&#45;&gt;Node5 -->
<g id="edge11_Node000009_Node000005" class="edge">
<title>Node9&#45;&gt;Node5</title>
<g id="a_edge11_Node000009_Node000005"><a xlink:title=" ">
<path fill="none" stroke="#63b8ff" d="M653.58,-115.44C660.44,-113.34 667.94,-111.33 675,-110 876.38,-72.07 933.27,-95.61 1141.73,-73.94"/>
<polygon fill="#63b8ff" stroke="#63b8ff" points="1142.2,-77.41 1151.77,-72.87 1141.46,-70.45 1142.2,-77.41"/>
</a>
</g>
</g>
<!-- Node9&#45;&gt;Node6 -->
<g id="edge13_Node000009_Node000006" class="edge">
<title>Node9&#45;&gt;Node6</title>
<g id="a_edge13_Node000009_Node000006"><a xlink:title=" ">
<path fill="none" stroke="#63b8ff" d="M657.21,-115.39C663.09,-113.61 669.25,-111.74 675,-110 728.3,-93.89 743.13,-94.26 795,-74 812.96,-66.98 816.29,-62.63 834,-55 861.8,-43.02 893.98,-31 917.71,-22.48"/>
<polygon fill="#63b8ff" stroke="#63b8ff" points="919.08,-25.71 927.33,-19.05 916.73,-19.11 919.08,-25.71"/>
</a>
</g>
</g>
<!-- Node9&#45;&gt;Node8 -->
<g id="edge15_Node000009_Node000008" class="edge">
<title>Node9&#45;&gt;Node8</title>
<g id="a_edge15_Node000009_Node000008"><a xlink:title=" ">
<path fill="none" stroke="#63b8ff" d="M653.06,-115.36C660.05,-113.21 667.75,-111.19 675,-110 820.53,-86.16 1872.25,-69.97 2132.75,-66.29"/>
<polygon fill="#63b8ff" stroke="#63b8ff" points="2133.17,-69.79 2143.12,-66.15 2133.07,-62.79 2133.17,-69.79"/>
</a>
</g>
</g>
<!-- Node10 -->
<g id="Node000010" class="node">
<title>Node10</title>
<g id="a_Node000010"><a xlink:title=" ">
<polygon fill="#e0e0e0" stroke="#999999" points="786.5,-74 739.5,-74 739.5,-55 786.5,-55 786.5,-74"/>
<text text-anchor="middle" x="763" y="-62" font-family="Helvetica,sans-Serif" font-size="10.00">float.h</text>
</a>
</g>
</g>
<!-- Node9&#45;&gt;Node10 -->
<g id="edge9_Node000009_Node000010" class="edge">
<title>Node9&#45;&gt;Node10</title>
<g id="a_edge9_Node000009_Node000010"><a xlink:title=" ">
<path fill="none" stroke="#63b8ff" d="M648.48,-115.49C671.01,-105.66 708.31,-89.38 734.19,-78.08"/>
<polygon fill="#63b8ff" stroke="#63b8ff" points="735.73,-81.23 743.49,-74.02 732.93,-74.81 735.73,-81.23"/>
</a>
</g>
</g>
<!-- Node11 -->
<g id="Node000011" class="node">
<title>Node11</title>
<g id="a_Node000011"><a xlink:title=" ">
<polygon fill="#e0e0e0" stroke="#999999" points="390.5,-74 339.5,-74 339.5,-55 390.5,-55 390.5,-74"/>
<text text-anchor="middle" x="365" y="-62" font-family="Helvetica,sans-Serif" font-size="10.00">math.h</text>
</a>
</g>
</g>
<!-- Node9&#45;&gt;Node11 -->
<g id="edge10_Node000009_Node000011" class="edge">
<title>Node9&#45;&gt;Node11</title>
<g id="a_edge10_Node000009_Node000011"><a xlink:title=" ">
<path fill="none" stroke="#63b8ff" d="M591.66,-116.13C548.23,-106.91 474.13,-90.99 400.51,-74.07"/>
<polygon fill="#63b8ff" stroke="#63b8ff" points="401.13,-70.62 390.6,-71.79 399.56,-77.45 401.13,-70.62"/>
</a>
</g>
</g>
<!-- Node12 -->
<g id="Node000012" class="node">
<title>Node12</title>
<g id="a_Node000012"><a xlink:title=" ">
<polygon fill="#e0e0e0" stroke="#999999" points="932.5,-74 843.5,-74 843.5,-55 932.5,-55 932.5,-74"/>
<text text-anchor="middle" x="888" y="-62" font-family="Helvetica,sans-Serif" font-size="10.00">vector_types.h</text>
</a>
</g>
</g>
<!-- Node9&#45;&gt;Node12 -->
<g id="edge12_Node000009_Node000012" class="edge">
<title>Node9&#45;&gt;Node12</title>
<g id="a_edge12_Node000009_Node000012"><a xlink:title=" ">
<path fill="none" stroke="#63b8ff" d="M655.64,-115.45C661.96,-113.55 668.69,-111.62 675,-110 728.36,-96.33 790.04,-83.8 833.24,-75.54"/>
<polygon fill="#63b8ff" stroke="#63b8ff" points="834.09,-78.94 843.27,-73.64 832.79,-72.06 834.09,-78.94"/>
</a>
</g>
</g>
<!-- Node13 -->
<g id="Node000013" class="node">
<title>Node13</title>
<g id="a_Node000013"><a xlink:href="acreal_8h.html" target="_top" xlink:title=" ">
<polygon fill="white" stroke="#666666" points="699,-19 643,-19 643,0 699,0 699,-19"/>
<text text-anchor="middle" x="671" y="-7" font-family="Helvetica,sans-Serif" font-size="10.00">acreal.h</text>
</a>
</g>
</g>
<!-- Node9&#45;&gt;Node13 -->
<g id="edge14_Node000009_Node000013" class="edge">
<title>Node9&#45;&gt;Node13</title>
<g id="a_edge14_Node000009_Node000013"><a xlink:title=" ">
<path fill="none" stroke="#63b8ff" d="M646.89,-115.34C661.77,-107.03 681.93,-92.96 691,-74 698.22,-58.9 690.87,-40.56 683.12,-27.48"/>
<polygon fill="#63b8ff" stroke="#63b8ff" points="686,-25.48 677.61,-19 680.13,-29.3 686,-25.48"/>
</a>
</g>
</g>
<!-- Node14 -->
<g id="Node000014" class="node">
<title>Node14</title>
<g id="a_Node000014"><a xlink:title=" ">
<polygon fill="#e0e0e0" stroke="#999999" points="1133.5,-74 1030.5,-74 1030.5,-55 1133.5,-55 1133.5,-74"/>
<text text-anchor="middle" x="1082" y="-62" font-family="Helvetica,sans-Serif" font-size="10.00">user_typedefs.inc</text>
</a>
</g>
</g>
<!-- Node9&#45;&gt;Node14 -->
<g id="edge16_Node000009_Node000014" class="edge">
<title>Node9&#45;&gt;Node14</title>
<g id="a_edge16_Node000009_Node000014"><a xlink:title=" ">
<path fill="none" stroke="#63b8ff" d="M654.08,-115.42C660.81,-113.38 668.13,-111.39 675,-110 823.28,-80.01 865.71,-92.12 1020.1,-74.05"/>
<polygon fill="#63b8ff" stroke="#63b8ff" points="1020.92,-77.48 1030.43,-72.81 1020.09,-70.53 1020.92,-77.48"/>
</a>
</g>
</g>
<!-- Node15 -->
<g id="Node000015" class="node">
<title>Node15</title>
<g id="a_Node000015"><a xlink:href="host__datatypes_8h.html" target="_top" xlink:title=" ">
<polygon fill="white" stroke="#666666" points="682.5,-74 581.5,-74 581.5,-55 682.5,-55 682.5,-74"/>
<text text-anchor="middle" x="632" y="-62" font-family="Helvetica,sans-Serif" font-size="10.00">host_datatypes.h</text>
</a>
</g>
</g>
<!-- Node9&#45;&gt;Node15 -->
<g id="edge17_Node000009_Node000015" class="edge">
<title>Node9&#45;&gt;Node15</title>
<g id="a_edge17_Node000009_Node000015"><a xlink:title=" ">
<path fill="none" stroke="#63b8ff" d="M629.44,-115.37C629.86,-107.25 630.5,-94.81 631.03,-84.39"/>
<polygon fill="#63b8ff" stroke="#63b8ff" points="634.54,-84.33 631.56,-74.17 627.55,-83.97 634.54,-84.33"/>
</a>
</g>
</g>
<!-- Node15&#45;&gt;Node13 -->
<g id="edge18_Node000015_Node000013" class="edge">
<title>Node15&#45;&gt;Node13</title>
<g id="a_edge18_Node000015_Node000013"><a xlink:title=" ">
<path fill="none" stroke="#63b8ff" d="M638.44,-54.75C643.89,-47.34 651.86,-36.5 658.56,-27.41"/>
<polygon fill="#63b8ff" stroke="#63b8ff" points="661.57,-29.22 664.68,-19.09 655.93,-25.07 661.57,-29.22"/>
</a>
</g>
</g>
<!-- Node16 -->
<g id="Node000016" class="node">
<title>Node16</title>
<g id="a_Node000016"><a xlink:title=" ">
<polygon fill="#e0e0e0" stroke="#999999" points="589,-19 533,-19 533,0 589,0 589,-19"/>
<text text-anchor="middle" x="561" y="-7" font-family="Helvetica,sans-Serif" font-size="10.00">stddef.h</text>
</a>
</g>
</g>
<!-- Node15&#45;&gt;Node16 -->
<g id="edge19_Node000015_Node000016" class="edge">
<title>Node15&#45;&gt;Node16</title>
<g id="a_edge19_Node000015_Node000016"><a xlink:title=" ">
<path fill="none" stroke="#63b8ff" d="M620.59,-54.98C609.89,-47 593.66,-34.88 580.84,-25.31"/>
<polygon fill="#63b8ff" stroke="#63b8ff" points="582.72,-22.35 572.61,-19.17 578.53,-27.96 582.72,-22.35"/>
</a>
</g>
</g>
<!-- Node17&#45;&gt;Node3 -->
<g id="edge25_Node000017_Node000003" class="edge">
<title>Node17&#45;&gt;Node3</title>
<g id="a_edge25_Node000017_Node000003"><a xlink:title=" ">
<path fill="none" stroke="#63b8ff" d="M512.43,-115.37C516.77,-106.9 523.52,-93.74 528.99,-83.07"/>
<polygon fill="#63b8ff" stroke="#63b8ff" points="532.11,-84.66 533.56,-74.17 525.88,-81.47 532.11,-84.66"/>
</a>
</g>
</g>
<!-- Node17&#45;&gt;Node4 -->
<g id="edge23_Node000017_Node000004" class="edge">
<title>Node17&#45;&gt;Node4</title>
<g id="a_edge23_Node000017_Node000004"><a xlink:title=" ">
<path fill="none" stroke="#63b8ff" d="M536.04,-118.18C550.09,-115.42 567.4,-112.24 583,-110 738.05,-87.77 781.24,-98.21 939.52,-74.07"/>
<polygon fill="#63b8ff" stroke="#63b8ff" points="940.27,-77.5 949.62,-72.51 939.2,-70.58 940.27,-77.5"/>
</a>
</g>
</g>
<!-- Node17&#45;&gt;Node5 -->
<g id="edge28_Node000017_Node000005" class="edge">
<title>Node17&#45;&gt;Node5</title>
<g id="a_edge28_Node000017_Node000005"><a xlink:title=" ">
<path fill="none" stroke="#63b8ff" d="M536.01,-117.94C550.05,-115.12 567.36,-111.96 583,-110 826.78,-79.51 892.59,-98.68 1141.7,-73.93"/>
<polygon fill="#63b8ff" stroke="#63b8ff" points="1142.18,-77.4 1151.78,-72.92 1141.48,-70.44 1142.18,-77.4"/>
</a>
</g>
</g>
<!-- Node17&#45;&gt;Node15 -->
<g id="edge22_Node000017_Node000015" class="edge">
<title>Node17&#45;&gt;Node15</title>
<g id="a_edge22_Node000017_Node000015"><a xlink:title=" ">
<path fill="none" stroke="#63b8ff" d="M526.03,-115.49C546.69,-105.75 580.78,-89.66 604.7,-78.38"/>
<polygon fill="#63b8ff" stroke="#63b8ff" points="606.4,-81.45 613.95,-74.02 603.41,-75.12 606.4,-81.45"/>
</a>
</g>
</g>
<!-- Node17&#45;&gt;Node16 -->
<g id="edge21_Node000017_Node000016" class="edge">
<title>Node17&#45;&gt;Node16</title>
<g id="a_edge21_Node000017_Node000016"><a xlink:title=" ">
<path fill="none" stroke="#63b8ff" d="M504.93,-115.4C500.62,-101.81 494.32,-74.84 504,-55 510.3,-42.09 522.35,-31.83 533.76,-24.43"/>
<polygon fill="#63b8ff" stroke="#63b8ff" points="535.86,-27.25 542.65,-19.12 532.27,-21.25 535.86,-27.25"/>
</a>
</g>
</g>
<!-- Node18 -->
<g id="Node000018" class="node">
<title>Node18</title>
<g id="a_Node000018"><a xlink:title=" ">
<polygon fill="#e0e0e0" stroke="#999999" points="321.5,-74 268.5,-74 268.5,-55 321.5,-55 321.5,-74"/>
<text text-anchor="middle" x="295" y="-62" font-family="Helvetica,sans-Serif" font-size="10.00">stdint.h</text>
</a>
</g>
</g>
<!-- Node17&#45;&gt;Node18 -->
<g id="edge24_Node000017_Node000018" class="edge">
<title>Node17&#45;&gt;Node18</title>
<g id="a_edge24_Node000017_Node000018"><a xlink:title=" ">
<path fill="none" stroke="#63b8ff" d="M479.72,-116.23C441.56,-105.75 373.54,-87.07 331.55,-75.54"/>
<polygon fill="#63b8ff" stroke="#63b8ff" points="332.29,-72.11 321.72,-72.84 330.44,-78.86 332.29,-72.11"/>
</a>
</g>
</g>
<!-- Node19 -->
<g id="Node000019" class="node">
<title>Node19</title>
<g id="a_Node000019"><a xlink:title=" ">
<polygon fill="#e0e0e0" stroke="#999999" points="250.5,-74 197.5,-74 197.5,-55 250.5,-55 250.5,-74"/>
<text text-anchor="middle" x="224" y="-62" font-family="Helvetica,sans-Serif" font-size="10.00">stdlib.h</text>
</a>
</g>
</g>
<!-- Node17&#45;&gt;Node19 -->
<g id="edge26_Node000017_Node000019" class="edge">
<title>Node17&#45;&gt;Node19</title>
<g id="a_edge26_Node000017_Node000019"><a xlink:title=" ">
<path fill="none" stroke="#63b8ff" d="M479.92,-118.74C435.43,-110.33 345.83,-93.05 260.56,-74.28"/>
<polygon fill="#63b8ff" stroke="#63b8ff" points="261.25,-70.85 250.73,-72.11 259.74,-77.69 261.25,-70.85"/>
</a>
</g>
</g>
<!-- Node20 -->
<g id="Node000020" class="node">
<title>Node20</title>
<g id="a_Node000020"><a xlink:title=" ">
<polygon fill="#e0e0e0" stroke="#999999" points="457,-74 409,-74 409,-55 457,-55 457,-74"/>
<text text-anchor="middle" x="433" y="-62" font-family="Helvetica,sans-Serif" font-size="10.00">time.h</text>
</a>
</g>
</g>
<!-- Node17&#45;&gt;Node20 -->
<g id="edge27_Node000017_Node000020" class="edge">
<title>Node17&#45;&gt;Node20</title>
<g id="a_edge27_Node000017_Node000020"><a xlink:title=" ">
<path fill="none" stroke="#63b8ff" d="M496.93,-115.37C485.19,-106.21 466.41,-91.56 452.24,-80.51"/>
<polygon fill="#63b8ff" stroke="#63b8ff" points="454.15,-77.56 444.11,-74.17 449.84,-83.08 454.15,-77.56"/>
</a>
</g>
</g>
<!-- Node40&#45;&gt;Node9 -->
<g id="edge52_Node000040_Node000009" class="edge">
<title>Node40&#45;&gt;Node9</title>
<g id="a_edge52_Node000040_Node000009"><a xlink:title=" ">
<path fill="none" stroke="#63b8ff" d="M443,-181.37C481.09,-170.03 548.11,-150.08 590.44,-137.48"/>
<polygon fill="#63b8ff" stroke="#63b8ff" points="591.54,-140.8 600.12,-134.6 589.54,-134.1 591.54,-140.8"/>
</a>
</g>
</g>
<!-- Node40&#45;&gt;Node11 -->
<g id="edge51_Node000040_Node000011" class="edge">
<title>Node40&#45;&gt;Node11</title>
<g id="a_edge51_Node000040_Node000011"><a xlink:title=" ">
<path fill="none" stroke="#63b8ff" d="M419.02,-181.05C426.93,-165.65 440.19,-133.54 428,-110 420.96,-96.41 407.66,-86.09 395.08,-78.82"/>
<polygon fill="#63b8ff" stroke="#63b8ff" points="396.62,-75.68 386.15,-74.07 393.33,-81.86 396.62,-75.68"/>
</a>
</g>
</g>
<!-- Node40&#45;&gt;Node17 -->
<g id="edge53_Node000040_Node000017" class="edge">
<title>Node40&#45;&gt;Node17</title>
<g id="a_edge53_Node000040_Node000017"><a xlink:title=" ">
<path fill="none" stroke="#63b8ff" d="M426.68,-181.37C442.09,-170.87 468.35,-153 486.85,-140.4"/>
<polygon fill="#63b8ff" stroke="#63b8ff" points="488.93,-143.22 495.22,-134.7 484.99,-137.43 488.93,-143.22"/>
</a>
</g>
</g>
<!-- Node40&#45;&gt;Node18 -->
<g id="edge49_Node000040_Node000018" class="edge">
<title>Node40&#45;&gt;Node18</title>
<g id="a_edge49_Node000040_Node000018"><a xlink:title=" ">
<path fill="none" stroke="#63b8ff" d="M409.01,-181.39C399.82,-165.97 379.01,-133.08 356,-110 344.57,-98.53 329.97,-87.77 317.92,-79.71"/>
<polygon fill="#63b8ff" stroke="#63b8ff" points="319.58,-76.62 309.29,-74.1 315.77,-82.48 319.58,-76.62"/>
</a>
</g>
</g>
<!-- Node40&#45;&gt;Node19 -->
<g id="edge50_Node000040_Node000019" class="edge">
<title>Node40&#45;&gt;Node19</title>
<g id="a_edge50_Node000040_Node000019"><a xlink:title=" ">
<path fill="none" stroke="#63b8ff" d="M375.48,-187.03C317.89,-181.71 213.69,-168.34 191,-140 176.85,-122.32 193.3,-97.62 207.62,-81.59"/>
<polygon fill="#63b8ff" stroke="#63b8ff" points="210.39,-83.75 214.73,-74.08 205.31,-78.93 210.39,-83.75"/>
</a>
</g>
</g>
<!-- Node40&#45;&gt;Node24 -->
<g id="edge54_Node000040_Node000024" class="edge">
<title>Node40&#45;&gt;Node24</title>
<g id="a_edge54_Node000040_Node000024"><a xlink:title=" ">
<path fill="none" stroke="#63b8ff" d="M375.37,-190.09C326.44,-188.43 241.35,-179.47 182,-140 161.23,-126.19 146.27,-101 137.88,-83.77"/>
<polygon fill="#63b8ff" stroke="#63b8ff" points="140.86,-81.87 133.5,-74.24 134.49,-84.79 140.86,-81.87"/>
</a>
</g>
</g>
<!-- Node41 -->
<g id="Node000041" class="node">
<title>Node41</title>
<g id="a_Node000041"><a xlink:href="math__utils__base_8h.html" target="_top" xlink:title=" ">
<polygon fill="white" stroke="#666666" points="106,-134.5 0,-134.5 0,-115.5 106,-115.5 106,-134.5"/>
<text text-anchor="middle" x="53" y="-122.5" font-family="Helvetica,sans-Serif" font-size="10.00">math_utils_base.h</text>
</a>
</g>
</g>
<!-- Node40&#45;&gt;Node41 -->
<g id="edge55_Node000040_Node000041" class="edge">
<title>Node40&#45;&gt;Node41</title>
<g id="a_edge55_Node000040_Node000041"><a xlink:title=" ">
<path fill="none" stroke="#63b8ff" d="M375.39,-183.91C319.12,-174.92 211.31,-157.3 120,-140 114.32,-138.92 108.37,-137.75 102.47,-136.55"/>
<polygon fill="#63b8ff" stroke="#63b8ff" points="103.13,-133.12 92.63,-134.54 101.72,-139.98 103.13,-133.12"/>
</a>
</g>
</g>
<!-- Node42 -->
<g id="Node000042" class="node">
<title>Node42</title>
<g id="a_Node000042"><a xlink:title=" ">
<polygon fill="#e0e0e0" stroke="#999999" points="347.5,-134.5 200.5,-134.5 200.5,-115.5 347.5,-115.5 347.5,-134.5"/>
<text text-anchor="middle" x="274" y="-122.5" font-family="Helvetica,sans-Serif" font-size="10.00">generated_comp_funcs.inc</text>
</a>
</g>
</g>
<!-- Node40&#45;&gt;Node42 -->
<g id="edge57_Node000040_Node000042" class="edge">
<title>Node40&#45;&gt;Node42</title>
<g id="a_edge57_Node000040_Node000042"><a xlink:title=" ">
<path fill="none" stroke="#63b8ff" d="M395.12,-181.37C371.22,-170.44 329.83,-151.52 302.18,-138.88"/>
<polygon fill="#63b8ff" stroke="#63b8ff" points="303.58,-135.67 293.03,-134.7 300.67,-142.04 303.58,-135.67"/>
</a>
</g>
</g>
<!-- Node41&#45;&gt;Node24 -->
<g id="edge56_Node000041_Node000024" class="edge">
<title>Node41&#45;&gt;Node24</title>
<g id="a_edge56_Node000041_Node000024"><a xlink:title=" ">
<path fill="none" stroke="#63b8ff" d="M64.36,-115.37C76.42,-106.21 95.7,-91.56 110.25,-80.51"/>
<polygon fill="#63b8ff" stroke="#63b8ff" points="112.75,-83 118.59,-74.17 108.51,-77.43 112.75,-83"/>
</a>
</g>
</g>
<!-- Node43&#45;&gt;Node5 -->
<g id="edge59_Node000043_Node000005" class="edge">
<title>Node43&#45;&gt;Node5</title>
<g id="a_edge59_Node000043_Node000005"><a xlink:title=" ">
<path fill="none" stroke="#63b8ff" d="M1968.26,-181.5C1980.72,-179.35 1994.36,-177.29 2007,-176 2064.13,-170.15 3000.11,-181.31 3040,-140 3049.26,-130.41 3049.31,-119.54 3040,-110 3008.29,-77.52 1580.14,-67.61 1264.37,-65.82"/>
<polygon fill="#63b8ff" stroke="#63b8ff" points="1264.06,-62.32 1254.05,-65.76 1264.03,-69.32 1264.06,-62.32"/>
</a>
</g>
</g>
</g>
</svg>

<g id="navigator" transform="translate(0 0)" fill="#404254">
  <rect fill="#f2f5e9" fill-opacity="0.5" stroke="#606060" stroke-width=".5" x="0" y="0" width="60" height="60"/>
  <use id="zoomplus" xlink:href="#zoomPlus" x="17" y="9" onmousedown="handleZoom(evt,'in')"/>
  <use id="zoomminus" xlink:href="#zoomMin" x="42" y="9" onmousedown="handleZoom(evt,'out')"/>
  <use id="reset" xlink:href="#resetDef" x="30" y="36" onmousedown="handleReset()"/>
   <use id="arrowup" xlink:href="#arrowUp" x="0" y="0" onmousedown="handlePan(0,-1)"/>
  <use id="arrowright" xlink:href="#arrowRight" x="0" y="0" onmousedown="handlePan(1,0)"/>
  <use id="arrowdown" xlink:href="#arrowDown" x="0" y="0" onmousedown="handlePan(0,1)"/>
  <use id="arrowleft" xlink:href="#arrowLeft" x="0" y="0" onmousedown="handlePan(-1,0)"/>
</g>
<svg viewBox="0 0 15 15" width="100%" height="30px" preserveAspectRatio="xMaxYMin meet">
 <g id="arrow_out" transform="scale(0.3 0.3)">
  <a xlink:href="vba_8cc__incl_org.svg" target="_base">
   <rect id="button" ry="5" rx="5" y="6" x="6" height="38" width="38"
        fill="#f2f5e9" fill-opacity="0.5" stroke="#606060" stroke-width="1.0"/>
   <path id="arrow"
     d="M 11.500037,31.436501 C 11.940474,20.09759 22.043105,11.32322 32.158766,21.979434 L 37.068811,17.246167 C 37.068811,17.246167 37.088388,32 37.088388,32 L 22.160133,31.978069 C 22.160133,31.978069 26.997745,27.140456 26.997745,27.140456 C 18.528582,18.264221 13.291696,25.230495 11.500037,31.436501 z"
     style="fill:#404040;"/>
  </a>
 </g>
</svg>

<style type='text/css'>
<![CDATA[
[data-mouse-over-selected='false'] { opacity: 0.7; }
[data-mouse-over-selected='true']  { opacity: 1.0; }
]]>
</style>
<script type="application/ecmascript"><![CDATA[
document.addEventListener('DOMContentLoaded', (event) => {
  highlightEdges();
  highlightAdjacentNodes();
});
]]></script>
</svg>
