<?xml version="1.0" encoding="UTF-8" standalone="no"?>
<!DOCTYPE svg PUBLIC "-//W3C//DTD SVG 1.1//EN"
 "http://www.w3.org/Graphics/SVG/1.1/DTD/svg11.dtd">
<!-- Generated by graphviz version 2.43.0 (0)
 -->
<!-- Title: acc&#45;runtime/acc/vecs.h Pages: 1 -->
<svg width="519pt" height="214pt"
 viewBox="0.00 0.00 518.64 214.00" xmlns="http://www.w3.org/2000/svg" xmlns:xlink="http://www.w3.org/1999/xlink">
<g id="graph0" class="graph" transform="scale(1 1) rotate(0) translate(4 210)">
<title>acc&#45;runtime/acc/vecs.h</title>
<!-- Node1 -->
<g id="Node000001" class="node">
<title>Node1</title>
<g id="a_Node000001"><a xlink:title=" ">
<polygon fill="#999999" stroke="#666666" points="425.14,-206 296.14,-206 296.14,-187 425.14,-187 425.14,-206"/>
<text text-anchor="middle" x="360.64" y="-194" font-family="Helvetica,sans-Serif" font-size="10.00">acc&#45;runtime/acc/vecs.h</text>
</a>
</g>
</g>
<!-- Node2 -->
<g id="Node000002" class="node">
<title>Node2</title>
<g id="a_Node000002"><a xlink:href="acc-runtime_2acc_2ast_8h.html" target="_top" xlink:title=" ">
<polygon fill="white" stroke="#666666" points="263.64,-145.5 141.64,-145.5 141.64,-126.5 263.64,-126.5 263.64,-145.5"/>
<text text-anchor="middle" x="202.64" y="-133.5" font-family="Helvetica,sans-Serif" font-size="10.00">acc&#45;runtime/acc/ast.h</text>
</a>
</g>
</g>
<!-- Node1&#45;&gt;Node2 -->
<g id="edge1_Node000001_Node000002" class="edge">
<title>Node1&#45;&gt;Node2</title>
<g id="a_edge1_Node000001_Node000002"><a xlink:title=" ">
<path fill="none" stroke="#63b8ff" d="M327.9,-183.38C297.35,-172.07 252.56,-155.49 225.64,-145.52"/>
<polygon fill="#63b8ff" stroke="#63b8ff" points="327.07,-186.8 337.66,-186.99 329.5,-180.24 327.07,-186.8"/>
</a>
</g>
</g>
<!-- Node6 -->
<g id="Node000006" class="node">
<title>Node6</title>
<g id="a_Node000006"><a xlink:href="stencilgen_8c.html" target="_top" xlink:title=" ">
<polygon fill="white" stroke="#666666" points="484.64,-79.5 328.64,-79.5 328.64,-60.5 484.64,-60.5 484.64,-79.5"/>
<text text-anchor="middle" x="406.64" y="-67.5" font-family="Helvetica,sans-Serif" font-size="10.00">acc&#45;runtime/acc/stencilgen.c</text>
</a>
</g>
</g>
<!-- Node1&#45;&gt;Node6 -->
<g id="edge7_Node000001_Node000006" class="edge">
<title>Node1&#45;&gt;Node6</title>
<g id="a_edge7_Node000001_Node000006"><a xlink:title=" ">
<path fill="none" stroke="#63b8ff" d="M364.18,-176.31C367.32,-161.02 372.52,-139.23 379.64,-121 385.6,-105.75 395.18,-89.25 401.18,-79.54"/>
<polygon fill="#63b8ff" stroke="#63b8ff" points="360.66,-176.08 362.18,-186.56 367.53,-177.42 360.66,-176.08"/>
</a>
</g>
</g>
<!-- Node7 -->
<g id="Node000007" class="node">
<title>Node7</title>
<g id="a_Node000007"><a xlink:href="warp__reduce_8h.html" target="_top" xlink:title=" ">
<polygon fill="white" stroke="#666666" points="510.64,-151 388.64,-151 388.64,-121 510.64,-121 510.64,-151"/>
<text text-anchor="start" x="396.64" y="-139" font-family="Helvetica,sans-Serif" font-size="10.00">acc&#45;runtime/acc/warp</text>
<text text-anchor="middle" x="449.64" y="-128" font-family="Helvetica,sans-Serif" font-size="10.00">_reduce.h</text>
</a>
</g>
</g>
<!-- Node1&#45;&gt;Node7 -->
<g id="edge8_Node000001_Node000007" class="edge">
<title>Node1&#45;&gt;Node7</title>
<g id="a_edge8_Node000001_Node000007"><a xlink:title=" ">
<path fill="none" stroke="#63b8ff" d="M382.25,-181.29C396.19,-172.13 414.25,-160.26 428.16,-151.11"/>
<polygon fill="#63b8ff" stroke="#63b8ff" points="380.2,-178.45 373.77,-186.87 384.05,-184.3 380.2,-178.45"/>
</a>
</g>
</g>
<!-- Node3 -->
<g id="Node000003" class="node">
<title>Node3</title>
<g id="a_Node000003"><a xlink:href="codegen_8c.html" target="_top" xlink:title=" ">
<polygon fill="white" stroke="#666666" points="242.14,-19 95.14,-19 95.14,0 242.14,0 242.14,-19"/>
<text text-anchor="middle" x="168.64" y="-7" font-family="Helvetica,sans-Serif" font-size="10.00">acc&#45;runtime/acc/codegen.c</text>
</a>
</g>
</g>
<!-- Node2&#45;&gt;Node3 -->
<g id="edge2_Node000002_Node000003" class="edge">
<title>Node2&#45;&gt;Node3</title>
<g id="a_edge2_Node000002_Node000003"><a xlink:title=" ">
<path fill="none" stroke="#63b8ff" d="M131.29,-125.94C82.12,-118.06 22.97,-104.76 7.64,-85 -21.11,-47.95 41.28,-28.62 96.58,-19.04"/>
<polygon fill="#63b8ff" stroke="#63b8ff" points="130.88,-129.41 141.3,-127.49 131.95,-122.5 130.88,-129.41"/>
</a>
</g>
</g>
<!-- Node4 -->
<g id="Node000004" class="node">
<title>Node4</title>
<g id="a_Node000004"><a xlink:href="codegen_8h.html" target="_top" xlink:title=" ">
<polygon fill="white" stroke="#666666" points="164.64,-79.5 16.64,-79.5 16.64,-60.5 164.64,-60.5 164.64,-79.5"/>
<text text-anchor="middle" x="90.64" y="-67.5" font-family="Helvetica,sans-Serif" font-size="10.00">acc&#45;runtime/acc/codegen.h</text>
</a>
</g>
</g>
<!-- Node2&#45;&gt;Node4 -->
<g id="edge3_Node000002_Node000004" class="edge">
<title>Node2&#45;&gt;Node4</title>
<g id="a_edge3_Node000002_Node000004"><a xlink:title=" ">
<path fill="none" stroke="#63b8ff" d="M178.76,-121.36C156.71,-108.76 124.62,-90.42 105.86,-79.7"/>
<polygon fill="#63b8ff" stroke="#63b8ff" points="177.11,-124.45 187.53,-126.37 180.59,-118.37 177.11,-124.45"/>
</a>
</g>
</g>
<!-- Node5 -->
<g id="Node000005" class="node">
<title>Node5</title>
<g id="a_Node000005"><a xlink:href="create__node_8h.html" target="_top" xlink:title=" ">
<polygon fill="white" stroke="#666666" points="310.64,-85 182.64,-85 182.64,-55 310.64,-55 310.64,-85"/>
<text text-anchor="start" x="190.64" y="-73" font-family="Helvetica,sans-Serif" font-size="10.00">acc&#45;runtime/acc/create</text>
<text text-anchor="middle" x="246.64" y="-62" font-family="Helvetica,sans-Serif" font-size="10.00">_node.h</text>
</a>
</g>
</g>
<!-- Node2&#45;&gt;Node5 -->
<g id="edge5_Node000002_Node000005" class="edge">
<title>Node2&#45;&gt;Node5</title>
<g id="a_edge5_Node000002_Node000005"><a xlink:title=" ">
<path fill="none" stroke="#63b8ff" d="M214.38,-117.92C221.36,-107.76 230.13,-95.01 236.76,-85.36"/>
<polygon fill="#63b8ff" stroke="#63b8ff" points="211.35,-116.15 208.57,-126.37 217.12,-120.11 211.35,-116.15"/>
</a>
</g>
</g>
<!-- Node4&#45;&gt;Node3 -->
<g id="edge4_Node000004_Node000003" class="edge">
<title>Node4&#45;&gt;Node3</title>
<g id="a_edge4_Node000004_Node000003"><a xlink:title=" ">
<path fill="none" stroke="#63b8ff" d="M110.17,-54.35C124.95,-43.27 144.73,-28.43 157.08,-19.17"/>
<polygon fill="#63b8ff" stroke="#63b8ff" points="108.05,-51.57 102.15,-60.37 112.25,-57.17 108.05,-51.57"/>
</a>
</g>
</g>
<!-- Node5&#45;&gt;Node3 -->
<g id="edge6_Node000005_Node000003" class="edge">
<title>Node5&#45;&gt;Node3</title>
<g id="a_edge6_Node000005_Node000003"><a xlink:title=" ">
<path fill="none" stroke="#63b8ff" d="M219.72,-48.82C206.28,-38.73 190.71,-27.05 180.32,-19.27"/>
<polygon fill="#63b8ff" stroke="#63b8ff" points="217.65,-51.64 227.75,-54.84 221.85,-46.04 217.65,-51.64"/>
</a>
</g>
</g>
<!-- Node7&#45;&gt;Node3 -->
<g id="edge9_Node000007_Node000003" class="edge">
<title>Node7&#45;&gt;Node3</title>
<g id="a_edge9_Node000007_Node000003"><a xlink:title=" ">
<path fill="none" stroke="#63b8ff" d="M474.5,-114C491.77,-96.9 509.14,-72.77 493.64,-55 461.72,-18.42 328.15,-10.82 242.5,-9.83"/>
<polygon fill="#63b8ff" stroke="#63b8ff" points="472.09,-111.46 467.19,-120.86 476.88,-116.56 472.09,-111.46"/>
</a>
</g>
</g>
<!-- Node7&#45;&gt;Node6 -->
<g id="edge10_Node000007_Node000006" class="edge">
<title>Node7&#45;&gt;Node6</title>
<g id="a_edge10_Node000007_Node000006"><a xlink:title=" ">
<path fill="none" stroke="#63b8ff" d="M434.37,-112.28C426.84,-101.07 418.19,-88.19 412.58,-79.84"/>
<polygon fill="#63b8ff" stroke="#63b8ff" points="431.61,-114.45 440.09,-120.8 437.42,-110.54 431.61,-114.45"/>
</a>
</g>
</g>
</g>
</svg>
