<?xml version="1.0" encoding="UTF-8" standalone="no"?>
<!DOCTYPE svg PUBLIC "-//W3C//DTD SVG 1.1//EN"
 "http://www.w3.org/Graphics/SVG/1.1/DTD/svg11.dtd">
<!-- Generated by graphviz version 2.43.0 (0)
 -->
<!-- Title: acc&#45;runtime/acc/vecs.h Pages: 1 -->
<svg width="144pt" height="137pt"
 viewBox="0.00 0.00 143.50 137.00" xmlns="http://www.w3.org/2000/svg" xmlns:xlink="http://www.w3.org/1999/xlink">
<g id="graph0" class="graph" transform="scale(1 1) rotate(0) translate(4 133)">
<title>acc&#45;runtime/acc/vecs.h</title>
<!-- Node1 -->
<g id="Node000001" class="node">
<title>Node1</title>
<g id="a_Node000001"><a xlink:title=" ">
<polygon fill="#999999" stroke="#666666" points="129,-129 0,-129 0,-110 129,-110 129,-129"/>
<text text-anchor="middle" x="64.5" y="-117" font-family="Helvetica,sans-Serif" font-size="10.00">acc&#45;runtime/acc/vecs.h</text>
</a>
</g>
</g>
<!-- Node2 -->
<g id="Node000002" class="node">
<title>Node2</title>
<g id="a_Node000002"><a xlink:title=" ">
<polygon fill="#e0e0e0" stroke="#999999" points="92.5,-19 36.5,-19 36.5,0 92.5,0 92.5,-19"/>
<text text-anchor="middle" x="64.5" y="-7" font-family="Helvetica,sans-Serif" font-size="10.00">stdarg.h</text>
</a>
</g>
</g>
<!-- Node1&#45;&gt;Node2 -->
<g id="edge1_Node000001_Node000002" class="edge">
<title>Node1&#45;&gt;Node2</title>
<g id="a_edge1_Node000001_Node000002"><a xlink:title=" ">
<path fill="none" stroke="#63b8ff" d="M60.9,-109.82C57.44,-100.99 52.47,-86.81 50.5,-74 48.12,-58.48 52.45,-41.09 56.91,-28.43"/>
<polygon fill="#63b8ff" stroke="#63b8ff" points="60.19,-29.65 60.54,-19.06 53.67,-27.12 60.19,-29.65"/>
</a>
</g>
</g>
<!-- Node3 -->
<g id="Node000003" class="node">
<title>Node3</title>
<g id="a_Node000003"><a xlink:href="string__vec_8h.html" target="_top" xlink:title=" ">
<polygon fill="white" stroke="#666666" points="135.5,-74 59.5,-74 59.5,-55 135.5,-55 135.5,-74"/>
<text text-anchor="middle" x="97.5" y="-62" font-family="Helvetica,sans-Serif" font-size="10.00">string_vec.h</text>
</a>
</g>
</g>
<!-- Node1&#45;&gt;Node3 -->
<g id="edge2_Node000001_Node000003" class="edge">
<title>Node1&#45;&gt;Node3</title>
<g id="a_edge2_Node000001_Node000003"><a xlink:title=" ">
<path fill="none" stroke="#63b8ff" d="M69.95,-109.75C74.51,-102.42 81.17,-91.73 86.79,-82.7"/>
<polygon fill="#63b8ff" stroke="#63b8ff" points="89.84,-84.43 92.15,-74.09 83.9,-80.73 89.84,-84.43"/>
</a>
</g>
</g>
<!-- Node3&#45;&gt;Node2 -->
<g id="edge3_Node000003_Node000002" class="edge">
<title>Node3&#45;&gt;Node2</title>
<g id="a_edge3_Node000003_Node000002"><a xlink:title=" ">
<path fill="none" stroke="#63b8ff" d="M92.05,-54.75C87.49,-47.42 80.83,-36.73 75.21,-27.7"/>
<polygon fill="#63b8ff" stroke="#63b8ff" points="78.1,-25.73 69.85,-19.09 72.16,-29.43 78.1,-25.73"/>
</a>
</g>
</g>
</g>
</svg>
