<?xml version="1.0" encoding="UTF-8" standalone="no"?>
<!DOCTYPE svg PUBLIC "-//W3C//DTD SVG 1.1//EN"
 "http://www.w3.org/Graphics/SVG/1.1/DTD/svg11.dtd">
<!-- Generated by graphviz version 2.43.0 (0)
 -->
<!-- Title: src/utils/verification.cc Pages: 1 -->
<svg width="2353pt" height="434pt"
 viewBox="0.00 0.00 2353.19 434.00" xmlns="http://www.w3.org/2000/svg" xmlns:xlink="http://www.w3.org/1999/xlink">
<g id="graph0" class="graph" transform="scale(1 1) rotate(0) translate(4 430)">
<title>src/utils/verification.cc</title>
<!-- Node1 -->
<g id="Node000001" class="node">
<title>Node1</title>
<g id="a_Node000001"><a xlink:title=" ">
<polygon fill="#999999" stroke="#666666" points="335.01,-426 209.01,-426 209.01,-407 335.01,-407 335.01,-426"/>
<text text-anchor="middle" x="272.01" y="-414" font-family="Helvetica,sans-Serif" font-size="10.00">src/utils/verification.cc</text>
</a>
</g>
</g>
<!-- Node2 -->
<g id="Node000002" class="node">
<title>Node2</title>
<g id="a_Node000002"><a xlink:href="astaroth__utils_8h.html" target="_top" xlink:title="Functions for loading and updating AcMeshInfo.">
<polygon fill="white" stroke="#666666" points="964.01,-371 872.01,-371 872.01,-352 964.01,-352 964.01,-371"/>
<text text-anchor="middle" x="918.01" y="-359" font-family="Helvetica,sans-Serif" font-size="10.00">astaroth_utils.h</text>
</a>
</g>
</g>
<!-- Node1&#45;&gt;Node2 -->
<g id="edge1_Node000001_Node000002" class="edge">
<title>Node1&#45;&gt;Node2</title>
<g id="a_edge1_Node000001_Node000002"><a xlink:title=" ">
<path fill="none" stroke="#63b8ff" d="M335.12,-410.32C460.99,-400 741.41,-376.99 861.57,-367.13"/>
<polygon fill="#63b8ff" stroke="#63b8ff" points="861.98,-370.61 871.66,-366.3 861.41,-363.63 861.98,-370.61"/>
</a>
</g>
</g>
<!-- Node5 -->
<g id="Node000005" class="node">
<title>Node5</title>
<g id="a_Node000005"><a xlink:title=" ">
<polygon fill="#e0e0e0" stroke="#999999" points="287.01,-74 225.01,-74 225.01,-55 287.01,-55 287.01,-74"/>
<text text-anchor="middle" x="256.01" y="-62" font-family="Helvetica,sans-Serif" font-size="10.00">stdbool.h</text>
</a>
</g>
</g>
<!-- Node1&#45;&gt;Node5 -->
<g id="edge63_Node000001_Node000005" class="edge">
<title>Node1&#45;&gt;Node5</title>
<g id="a_edge63_Node000001_Node000005"><a xlink:title=" ">
<path fill="none" stroke="#63b8ff" d="M254.24,-406.95C225.02,-391.5 170.01,-355.99 170.01,-307.5 170.01,-307.5 170.01,-307.5 170.01,-190 170.01,-143.5 211.12,-101.79 236.49,-80.47"/>
<polygon fill="#63b8ff" stroke="#63b8ff" points="238.85,-83.06 244.41,-74.04 234.44,-77.63 238.85,-83.06"/>
</a>
</g>
</g>
<!-- Node14 -->
<g id="Node000014" class="node">
<title>Node14</title>
<g id="a_Node000014"><a xlink:title=" ">
<polygon fill="#e0e0e0" stroke="#999999" points="2294.51,-74 2243.51,-74 2243.51,-55 2294.51,-55 2294.51,-74"/>
<text text-anchor="middle" x="2269.01" y="-62" font-family="Helvetica,sans-Serif" font-size="10.00">math.h</text>
</a>
</g>
</g>
<!-- Node1&#45;&gt;Node14 -->
<g id="edge62_Node000001_Node000014" class="edge">
<title>Node1&#45;&gt;Node14</title>
<g id="a_edge62_Node000001_Node000014"><a xlink:title=" ">
<path fill="none" stroke="#63b8ff" d="M335.18,-415.59C682.6,-415.69 2345.01,-410.77 2345.01,-307.5 2345.01,-307.5 2345.01,-307.5 2345.01,-190 2345.01,-153.46 2345.75,-140.76 2326.01,-110 2318.04,-97.58 2305.36,-87.18 2293.99,-79.57"/>
<polygon fill="#63b8ff" stroke="#63b8ff" points="2295.59,-76.44 2285.26,-74.07 2291.86,-82.36 2295.59,-76.44"/>
</a>
</g>
</g>
<!-- Node20 -->
<g id="Node000020" class="node">
<title>Node20</title>
<g id="a_Node000020"><a xlink:href="errchk_8h.html" target="_top" xlink:title="Brief info.">
<polygon fill="white" stroke="#666666" points="142.01,-134.5 86.01,-134.5 86.01,-115.5 142.01,-115.5 142.01,-134.5"/>
<text text-anchor="middle" x="114.01" y="-122.5" font-family="Helvetica,sans-Serif" font-size="10.00">errchk.h</text>
</a>
</g>
</g>
<!-- Node1&#45;&gt;Node20 -->
<g id="edge65_Node000001_Node000020" class="edge">
<title>Node1&#45;&gt;Node20</title>
<g id="a_edge65_Node000001_Node000020"><a xlink:title=" ">
<path fill="none" stroke="#63b8ff" d="M229.17,-406.97C205.37,-400.43 176.52,-389.32 156.01,-371 132.28,-349.82 123.01,-339.31 123.01,-307.5 123.01,-307.5 123.01,-307.5 123.01,-250.5 123.01,-212.9 118.87,-169.07 116.21,-144.73"/>
<polygon fill="#63b8ff" stroke="#63b8ff" points="119.68,-144.28 115.08,-134.74 112.72,-145.07 119.68,-144.28"/>
</a>
</g>
</g>
<!-- Node55 -->
<g id="Node000055" class="node">
<title>Node55</title>
<g id="a_Node000055"><a xlink:title=" ">
<polygon fill="#e0e0e0" stroke="#999999" points="298.51,-261 245.51,-261 245.51,-242 298.51,-242 298.51,-261"/>
<text text-anchor="middle" x="272.01" y="-249" font-family="Helvetica,sans-Serif" font-size="10.00">string.h</text>
</a>
</g>
</g>
<!-- Node1&#45;&gt;Node55 -->
<g id="edge64_Node000001_Node000055" class="edge">
<title>Node1&#45;&gt;Node55</title>
<g id="a_edge64_Node000001_Node000055"><a xlink:title=" ">
<path fill="none" stroke="#63b8ff" d="M272.01,-406.74C272.01,-381.31 272.01,-307.08 272.01,-271.69"/>
<polygon fill="#63b8ff" stroke="#63b8ff" points="275.51,-271.31 272.01,-261.31 268.51,-271.31 275.51,-271.31"/>
</a>
</g>
</g>
<!-- Node3 -->
<g id="Node000003" class="node">
<title>Node3</title>
<g id="a_Node000003"><a xlink:href="astaroth_8h.html" target="_top" xlink:title=" ">
<polygon fill="white" stroke="#666666" points="911.01,-316 845.01,-316 845.01,-297 911.01,-297 911.01,-316"/>
<text text-anchor="middle" x="878.01" y="-304" font-family="Helvetica,sans-Serif" font-size="10.00">astaroth.h</text>
</a>
</g>
</g>
<!-- Node2&#45;&gt;Node3 -->
<g id="edge2_Node000002_Node000003" class="edge">
<title>Node2&#45;&gt;Node3</title>
<g id="a_edge2_Node000002_Node000003"><a xlink:title=" ">
<path fill="none" stroke="#63b8ff" d="M911.4,-351.75C905.75,-344.26 897.46,-333.28 890.56,-324.13"/>
<polygon fill="#63b8ff" stroke="#63b8ff" points="893.31,-321.96 884.49,-316.09 887.72,-326.18 893.31,-321.96"/>
</a>
</g>
</g>
<!-- Node56 -->
<g id="Node000056" class="node">
<title>Node56</title>
<g id="a_Node000056"><a xlink:title=" ">
<polygon fill="#e0e0e0" stroke="#999999" points="985.01,-316 929.01,-316 929.01,-297 985.01,-297 985.01,-316"/>
<text text-anchor="middle" x="957.01" y="-304" font-family="Helvetica,sans-Serif" font-size="10.00">stdarg.h</text>
</a>
</g>
</g>
<!-- Node2&#45;&gt;Node56 -->
<g id="edge60_Node000002_Node000056" class="edge">
<title>Node2&#45;&gt;Node56</title>
<g id="a_edge60_Node000002_Node000056"><a xlink:title=" ">
<path fill="none" stroke="#63b8ff" d="M924.45,-351.75C929.9,-344.34 937.87,-333.5 944.56,-324.41"/>
<polygon fill="#63b8ff" stroke="#63b8ff" points="947.58,-326.22 950.69,-316.09 941.94,-322.07 947.58,-326.22"/>
</a>
</g>
</g>
<!-- Node57 -->
<g id="Node000057" class="node">
<title>Node57</title>
<g id="a_Node000057"><a xlink:href="astaroth__lib_8h.html" target="_top" xlink:title=" ">
<polygon fill="white" stroke="#666666" points="1086.51,-316 1003.51,-316 1003.51,-297 1086.51,-297 1086.51,-316"/>
<text text-anchor="middle" x="1045.01" y="-304" font-family="Helvetica,sans-Serif" font-size="10.00">astaroth_lib.h</text>
</a>
</g>
</g>
<!-- Node2&#45;&gt;Node57 -->
<g id="edge61_Node000002_Node000057" class="edge">
<title>Node2&#45;&gt;Node57</title>
<g id="a_edge61_Node000002_Node000057"><a xlink:title=" ">
<path fill="none" stroke="#63b8ff" d="M938.41,-351.98C959.03,-343.38 991.11,-329.99 1014.7,-320.15"/>
<polygon fill="#63b8ff" stroke="#63b8ff" points="1016.35,-323.25 1024.23,-316.17 1013.65,-316.79 1016.35,-323.25"/>
</a>
</g>
</g>
<!-- Node4 -->
<g id="Node000004" class="node">
<title>Node4</title>
<g id="a_Node000004"><a xlink:href="astaroth__base_8h.html" target="_top" xlink:title=" ">
<polygon fill="white" stroke="#666666" points="411.51,-261 316.51,-261 316.51,-242 411.51,-242 411.51,-261"/>
<text text-anchor="middle" x="364.01" y="-249" font-family="Helvetica,sans-Serif" font-size="10.00">astaroth_base.h</text>
</a>
</g>
</g>
<!-- Node3&#45;&gt;Node4 -->
<g id="edge3_Node000003_Node000004" class="edge">
<title>Node3&#45;&gt;Node4</title>
<g id="a_edge3_Node000003_Node000004"><a xlink:title=" ">
<path fill="none" stroke="#63b8ff" d="M844.97,-302.86C771.19,-296.85 587.19,-281.17 421.92,-261.05"/>
<polygon fill="#63b8ff" stroke="#63b8ff" points="421.92,-257.52 411.57,-259.78 421.07,-264.47 421.92,-257.52"/>
</a>
</g>
</g>
<!-- Node44 -->
<g id="Node000044" class="node">
<title>Node44</title>
<g id="a_Node000044"><a xlink:href="astaroth__grid_8h.html" target="_top" xlink:title=" ">
<polygon fill="white" stroke="#666666" points="1493.01,-261 1403.01,-261 1403.01,-242 1493.01,-242 1493.01,-261"/>
<text text-anchor="middle" x="1448.01" y="-249" font-family="Helvetica,sans-Serif" font-size="10.00">astaroth_grid.h</text>
</a>
</g>
</g>
<!-- Node3&#45;&gt;Node44 -->
<g id="edge48_Node000003_Node000044" class="edge">
<title>Node3&#45;&gt;Node44</title>
<g id="a_edge48_Node000003_Node000044"><a xlink:title=" ">
<path fill="none" stroke="#63b8ff" d="M911.41,-298.35C914.31,-297.85 917.21,-297.39 920.01,-297 1126.01,-268.44 1182.4,-284.91 1392.83,-261.04"/>
<polygon fill="#63b8ff" stroke="#63b8ff" points="1393.43,-264.49 1402.96,-259.87 1392.63,-257.53 1393.43,-264.49"/>
</a>
</g>
</g>
<!-- Node45 -->
<g id="Node000045" class="node">
<title>Node45</title>
<g id="a_Node000045"><a xlink:href="astaroth__node_8h.html" target="_top" xlink:title=" ">
<polygon fill="white" stroke="#666666" points="1606.51,-261 1511.51,-261 1511.51,-242 1606.51,-242 1606.51,-261"/>
<text text-anchor="middle" x="1559.01" y="-249" font-family="Helvetica,sans-Serif" font-size="10.00">astaroth_node.h</text>
</a>
</g>
</g>
<!-- Node3&#45;&gt;Node45 -->
<g id="edge49_Node000003_Node000045" class="edge">
<title>Node3&#45;&gt;Node45</title>
<g id="a_edge49_Node000003_Node000045"><a xlink:title=" ">
<path fill="none" stroke="#63b8ff" d="M911.41,-298.31C914.31,-297.81 917.2,-297.37 920.01,-297 1173.7,-263.65 1242.53,-287.51 1501.38,-260.95"/>
<polygon fill="#63b8ff" stroke="#63b8ff" points="1501.88,-264.42 1511.46,-259.9 1501.15,-257.46 1501.88,-264.42"/>
</a>
</g>
</g>
<!-- Node46 -->
<g id="Node000046" class="node">
<title>Node46</title>
<g id="a_Node000046"><a xlink:href="astaroth__device_8h.html" target="_top" xlink:title=" ">
<polygon fill="white" stroke="#666666" points="1729.01,-261 1625.01,-261 1625.01,-242 1729.01,-242 1729.01,-261"/>
<text text-anchor="middle" x="1677.01" y="-249" font-family="Helvetica,sans-Serif" font-size="10.00">astaroth_device.h</text>
</a>
</g>
</g>
<!-- Node3&#45;&gt;Node46 -->
<g id="edge50_Node000003_Node000046" class="edge">
<title>Node3&#45;&gt;Node46</title>
<g id="a_edge50_Node000003_Node000046"><a xlink:title=" ">
<path fill="none" stroke="#63b8ff" d="M911.4,-298.28C914.31,-297.79 917.2,-297.35 920.01,-297 1224.01,-258.59 1305.91,-289.72 1614.66,-261.03"/>
<polygon fill="#63b8ff" stroke="#63b8ff" points="1615.17,-264.5 1624.8,-260.08 1614.51,-257.53 1615.17,-264.5"/>
</a>
</g>
</g>
<!-- Node49 -->
<g id="Node000049" class="node">
<title>Node49</title>
<g id="a_Node000049"><a xlink:href="astaroth__legacy_8h.html" target="_top" xlink:title=" ">
<polygon fill="white" stroke="#666666" points="532.01,-261 430.01,-261 430.01,-242 532.01,-242 532.01,-261"/>
<text text-anchor="middle" x="481.01" y="-249" font-family="Helvetica,sans-Serif" font-size="10.00">astaroth_legacy.h</text>
</a>
</g>
</g>
<!-- Node3&#45;&gt;Node49 -->
<g id="edge53_Node000003_Node000049" class="edge">
<title>Node3&#45;&gt;Node49</title>
<g id="a_edge53_Node000003_Node000049"><a xlink:title=" ">
<path fill="none" stroke="#63b8ff" d="M844.61,-301.15C785.86,-293.49 659.92,-276.99 542.17,-261.01"/>
<polygon fill="#63b8ff" stroke="#63b8ff" points="542.64,-257.54 532.26,-259.67 541.7,-264.48 542.64,-257.54"/>
</a>
</g>
</g>
<!-- Node50 -->
<g id="Node000050" class="node">
<title>Node50</title>
<g id="a_Node000050"><a xlink:title=" ">
<polygon fill="#e0e0e0" stroke="#999999" points="697.51,-261 550.51,-261 550.51,-242 697.51,-242 697.51,-261"/>
<text text-anchor="middle" x="624.01" y="-249" font-family="Helvetica,sans-Serif" font-size="10.00">device_set_input_decls.inc</text>
</a>
</g>
</g>
<!-- Node3&#45;&gt;Node50 -->
<g id="edge54_Node000003_Node000050" class="edge">
<title>Node3&#45;&gt;Node50</title>
<g id="a_edge54_Node000003_Node000050"><a xlink:title=" ">
<path fill="none" stroke="#63b8ff" d="M844.8,-298.57C801.52,-289.54 725.42,-273.66 674.85,-263.11"/>
<polygon fill="#63b8ff" stroke="#63b8ff" points="675.29,-259.62 664.78,-261.01 673.86,-266.48 675.29,-259.62"/>
</a>
</g>
</g>
<!-- Node51 -->
<g id="Node000051" class="node">
<title>Node51</title>
<g id="a_Node000051"><a xlink:title=" ">
<polygon fill="#e0e0e0" stroke="#999999" points="870.51,-261 715.51,-261 715.51,-242 870.51,-242 870.51,-261"/>
<text text-anchor="middle" x="793.01" y="-249" font-family="Helvetica,sans-Serif" font-size="10.00">device_get_output_decls.inc</text>
</a>
</g>
</g>
<!-- Node3&#45;&gt;Node51 -->
<g id="edge55_Node000003_Node000051" class="edge">
<title>Node3&#45;&gt;Node51</title>
<g id="a_edge55_Node000003_Node000051"><a xlink:title=" ">
<path fill="none" stroke="#63b8ff" d="M864.35,-296.98C851.17,-288.77 830.98,-276.18 815.44,-266.49"/>
<polygon fill="#63b8ff" stroke="#63b8ff" points="817.25,-263.49 806.91,-261.17 813.55,-269.43 817.25,-263.49"/>
</a>
</g>
</g>
<!-- Node52 -->
<g id="Node000052" class="node">
<title>Node52</title>
<g id="a_Node000052"><a xlink:title=" ">
<polygon fill="#e0e0e0" stroke="#999999" points="1037.01,-261 889.01,-261 889.01,-242 1037.01,-242 1037.01,-261"/>
<text text-anchor="middle" x="963.01" y="-249" font-family="Helvetica,sans-Serif" font-size="10.00">device_get_input_decls.inc</text>
</a>
</g>
</g>
<!-- Node3&#45;&gt;Node52 -->
<g id="edge56_Node000003_Node000052" class="edge">
<title>Node3&#45;&gt;Node52</title>
<g id="a_edge56_Node000003_Node000052"><a xlink:title=" ">
<path fill="none" stroke="#63b8ff" d="M891.66,-296.98C904.85,-288.77 925.03,-276.18 940.58,-266.49"/>
<polygon fill="#63b8ff" stroke="#63b8ff" points="942.47,-269.43 949.1,-261.17 938.76,-263.49 942.47,-269.43"/>
</a>
</g>
</g>
<!-- Node53 -->
<g id="Node000053" class="node">
<title>Node53</title>
<g id="a_Node000053"><a xlink:title=" ">
<polygon fill="#e0e0e0" stroke="#999999" points="1193.01,-261 1055.01,-261 1055.01,-242 1193.01,-242 1193.01,-261"/>
<text text-anchor="middle" x="1124.01" y="-249" font-family="Helvetica,sans-Serif" font-size="10.00">get_vtxbufs_declares.inc</text>
</a>
</g>
</g>
<!-- Node3&#45;&gt;Node53 -->
<g id="edge57_Node000003_Node000053" class="edge">
<title>Node3&#45;&gt;Node53</title>
<g id="a_edge57_Node000003_Node000053"><a xlink:title=" ">
<path fill="none" stroke="#63b8ff" d="M911.18,-298.35C953.18,-289.3 1025.89,-273.64 1074.48,-263.17"/>
<polygon fill="#63b8ff" stroke="#63b8ff" points="1075.42,-266.55 1084.46,-261.02 1073.94,-259.71 1075.42,-266.55"/>
</a>
</g>
</g>
<!-- Node54 -->
<g id="Node000054" class="node">
<title>Node54</title>
<g id="a_Node000054"><a xlink:href="astaroth__runtime__compilation_8h.html" target="_top" xlink:title=" ">
<polygon fill="white" stroke="#666666" points="1384.51,-261 1211.51,-261 1211.51,-242 1384.51,-242 1384.51,-261"/>
<text text-anchor="middle" x="1298.01" y="-249" font-family="Helvetica,sans-Serif" font-size="10.00">astaroth_runtime_compilation.h</text>
</a>
</g>
</g>
<!-- Node3&#45;&gt;Node54 -->
<g id="edge58_Node000003_Node000054" class="edge">
<title>Node3&#45;&gt;Node54</title>
<g id="a_edge58_Node000003_Node000054"><a xlink:title=" ">
<path fill="none" stroke="#63b8ff" d="M911.43,-298.48C914.33,-297.95 917.22,-297.45 920.01,-297 1015.24,-281.78 1124.74,-269.45 1201.3,-261.67"/>
<polygon fill="#63b8ff" stroke="#63b8ff" points="1201.81,-265.13 1211.4,-260.64 1201.1,-258.17 1201.81,-265.13"/>
</a>
</g>
</g>
<!-- Node3&#45;&gt;Node55 -->
<g id="edge59_Node000003_Node000055" class="edge">
<title>Node3&#45;&gt;Node55</title>
<g id="a_edge59_Node000003_Node000055"><a xlink:title=" ">
<path fill="none" stroke="#63b8ff" d="M844.71,-304.69C757.99,-302.2 517.94,-292.88 308.6,-260.82"/>
<polygon fill="#63b8ff" stroke="#63b8ff" points="309.07,-257.35 298.65,-259.27 308,-264.27 309.07,-257.35"/>
</a>
</g>
</g>
<!-- Node4&#45;&gt;Node5 -->
<g id="edge4_Node000004_Node000005" class="edge">
<title>Node4&#45;&gt;Node5</title>
<g id="a_edge4_Node000004_Node000005"><a xlink:title=" ">
<path fill="none" stroke="#63b8ff" d="M344.89,-241.98C313.4,-226.75 251.66,-191.55 227.01,-140 217.8,-120.74 230.12,-97.73 241.43,-82.43"/>
<polygon fill="#63b8ff" stroke="#63b8ff" points="244.33,-84.41 247.8,-74.4 238.85,-80.06 244.33,-84.41"/>
</a>
</g>
</g>
<!-- Node6 -->
<g id="Node000006" class="node">
<title>Node6</title>
<g id="a_Node000006"><a xlink:href="acc__runtime_8h.html" target="_top" xlink:title=" ">
<polygon fill="#fff0f0" stroke="red" points="1278.01,-200.5 1192.01,-200.5 1192.01,-181.5 1278.01,-181.5 1278.01,-200.5"/>
<text text-anchor="middle" x="1235.01" y="-188.5" font-family="Helvetica,sans-Serif" font-size="10.00">acc_runtime.h</text>
</a>
</g>
</g>
<!-- Node4&#45;&gt;Node6 -->
<g id="edge5_Node000004_Node000006" class="edge">
<title>Node4&#45;&gt;Node6</title>
<g id="a_edge5_Node000004_Node000006"><a xlink:title=" ">
<path fill="none" stroke="#63b8ff" d="M411.55,-243.09C414.75,-242.69 417.92,-242.32 421.01,-242 706.86,-211.96 1051.22,-198.12 1181.55,-193.68"/>
<polygon fill="#63b8ff" stroke="#63b8ff" points="1181.78,-197.17 1191.66,-193.34 1181.55,-190.18 1181.78,-197.17"/>
</a>
</g>
</g>
<!-- Node26 -->
<g id="Node000026" class="node">
<title>Node26</title>
<g id="a_Node000026"><a xlink:title=" ">
<polygon fill="#e0e0e0" stroke="#999999" points="383.51,-134.5 236.51,-134.5 236.51,-115.5 383.51,-115.5 383.51,-134.5"/>
<text text-anchor="middle" x="310.01" y="-122.5" font-family="Helvetica,sans-Serif" font-size="10.00">user_built&#45;in_constants.inc</text>
</a>
</g>
</g>
<!-- Node4&#45;&gt;Node26 -->
<g id="edge46_Node000004_Node000026" class="edge">
<title>Node4&#45;&gt;Node26</title>
<g id="a_edge46_Node000004_Node000026"><a xlink:title=" ">
<path fill="none" stroke="#63b8ff" d="M360.3,-241.94C351.59,-221.86 329.69,-171.37 317.87,-144.12"/>
<polygon fill="#63b8ff" stroke="#63b8ff" points="320.94,-142.4 313.75,-134.62 314.51,-145.18 320.94,-142.4"/>
</a>
</g>
</g>
<!-- Node40 -->
<g id="Node000040" class="node">
<title>Node40</title>
<g id="a_Node000040"><a xlink:href="func__define_8h.html" target="_top" xlink:title=" ">
<polygon fill="white" stroke="#666666" points="2317.01,-134.5 2235.01,-134.5 2235.01,-115.5 2317.01,-115.5 2317.01,-134.5"/>
<text text-anchor="middle" x="2276.01" y="-122.5" font-family="Helvetica,sans-Serif" font-size="10.00">func_define.h</text>
</a>
</g>
</g>
<!-- Node4&#45;&gt;Node40 -->
<g id="edge45_Node000004_Node000040" class="edge">
<title>Node4&#45;&gt;Node40</title>
<g id="a_edge45_Node000004_Node000040"><a xlink:title=" ">
<path fill="none" stroke="#63b8ff" d="M411.55,-243.02C414.74,-242.64 417.92,-242.29 421.01,-242 516.88,-232.88 1196.5,-238.9 1287.01,-206 1307.56,-198.53 1305.45,-183.45 1326.01,-176 1514.18,-107.77 2028.29,-171.2 2226.01,-140 2230.59,-139.28 2235.35,-138.28 2240.03,-137.15"/>
<polygon fill="#63b8ff" stroke="#63b8ff" points="2241.28,-140.44 2250.05,-134.5 2239.49,-133.67 2241.28,-140.44"/>
</a>
</g>
</g>
<!-- Node43 -->
<g id="Node000043" class="node">
<title>Node43</title>
<g id="a_Node000043"><a xlink:title=" ">
<polygon fill="#e0e0e0" stroke="#999999" points="1465.51,-206 1334.51,-206 1334.51,-176 1465.51,-176 1465.51,-206"/>
<text text-anchor="start" x="1342.51" y="-194" font-family="Helvetica,sans-Serif" font-size="10.00">user_builtin_non_scalar</text>
<text text-anchor="middle" x="1400.01" y="-183" font-family="Helvetica,sans-Serif" font-size="10.00">_constants.inc</text>
</a>
</g>
</g>
<!-- Node4&#45;&gt;Node43 -->
<g id="edge47_Node000004_Node000043" class="edge">
<title>Node4&#45;&gt;Node43</title>
<g id="a_edge47_Node000004_Node000043"><a xlink:title=" ">
<path fill="none" stroke="#63b8ff" d="M411.55,-243.02C414.74,-242.64 417.92,-242.29 421.01,-242 819.12,-204.46 922.4,-248.56 1320.01,-206 1321.31,-205.86 1322.62,-205.71 1323.94,-205.56"/>
<polygon fill="#63b8ff" stroke="#63b8ff" points="1324.72,-208.99 1334.18,-204.23 1323.82,-202.04 1324.72,-208.99"/>
</a>
</g>
</g>
<!-- Node6&#45;&gt;Node5 -->
<g id="edge7_Node000006_Node000005" class="edge">
<title>Node6&#45;&gt;Node5</title>
<g id="a_edge7_Node000006_Node000005"><a xlink:title=" ">
<path fill="none" stroke="#63b8ff" d="M1191.83,-188.82C1035.17,-184.34 502.2,-167.22 431.01,-140 410.91,-132.32 411.98,-120.15 393.01,-110 362.57,-93.72 325.12,-82.05 297.07,-74.77"/>
<polygon fill="#63b8ff" stroke="#63b8ff" points="297.75,-71.33 287.19,-72.28 296.04,-78.11 297.75,-71.33"/>
</a>
</g>
</g>
<!-- Node7 -->
<g id="Node000007" class="node">
<title>Node7</title>
<g id="a_Node000007"><a xlink:title=" ">
<polygon fill="#e0e0e0" stroke="#999999" points="1038.01,-74 988.01,-74 988.01,-55 1038.01,-55 1038.01,-74"/>
<text text-anchor="middle" x="1013.01" y="-62" font-family="Helvetica,sans-Serif" font-size="10.00">stdio.h</text>
</a>
</g>
</g>
<!-- Node6&#45;&gt;Node7 -->
<g id="edge6_Node000006_Node000007" class="edge">
<title>Node6&#45;&gt;Node7</title>
<g id="a_edge6_Node000006_Node000007"><a xlink:title=" ">
<path fill="none" stroke="#63b8ff" d="M1265.27,-181.48C1273.85,-179.36 1283.24,-177.32 1292.01,-176 1427.7,-155.53 2000.6,-209.42 1906.01,-110 1875.97,-78.43 1211.33,-68 1048.68,-65.92"/>
<polygon fill="#63b8ff" stroke="#63b8ff" points="1048.32,-62.41 1038.28,-65.79 1048.24,-69.41 1048.32,-62.41"/>
</a>
</g>
</g>
<!-- Node8 -->
<g id="Node000008" class="node">
<title>Node8</title>
<g id="a_Node000008"><a xlink:href="device__headers_8h.html" target="_top" xlink:title=" ">
<polygon fill="white" stroke="#666666" points="1836.01,-74 1734.01,-74 1734.01,-55 1836.01,-55 1836.01,-74"/>
<text text-anchor="middle" x="1785.01" y="-62" font-family="Helvetica,sans-Serif" font-size="10.00">device_headers.h</text>
</a>
</g>
</g>
<!-- Node6&#45;&gt;Node8 -->
<g id="edge8_Node000006_Node000008" class="edge">
<title>Node6&#45;&gt;Node8</title>
<g id="a_edge8_Node000006_Node000008"><a xlink:title=" ">
<path fill="none" stroke="#63b8ff" d="M1265.27,-181.47C1273.85,-179.35 1283.24,-177.31 1292.01,-176 1361.68,-165.55 1876.63,-191.21 1925.01,-140 1954.7,-108.57 1895.29,-87.67 1844.91,-76.2"/>
<polygon fill="#63b8ff" stroke="#63b8ff" points="1845.51,-72.75 1834.99,-74.04 1844.01,-79.59 1845.51,-72.75"/>
</a>
</g>
</g>
<!-- Node11 -->
<g id="Node000011" class="node">
<title>Node11</title>
<g id="a_Node000011"><a xlink:title=" ">
<polygon fill="#e0e0e0" stroke="#999999" points="2145.51,-74 2050.51,-74 2050.51,-55 2145.51,-55 2145.51,-74"/>
<text text-anchor="middle" x="2098.01" y="-62" font-family="Helvetica,sans-Serif" font-size="10.00">builtin_enums.h</text>
</a>
</g>
</g>
<!-- Node6&#45;&gt;Node11 -->
<g id="edge11_Node000006_Node000011" class="edge">
<title>Node6&#45;&gt;Node11</title>
<g id="a_edge11_Node000006_Node000011"><a xlink:title=" ">
<path fill="none" stroke="#63b8ff" d="M1264.97,-181.48C1273.62,-179.34 1283.13,-177.28 1292.01,-176 1378.1,-163.57 2004.9,-192.82 2074.01,-140 2091.01,-127 2096.18,-101.8 2097.63,-84.33"/>
<polygon fill="#63b8ff" stroke="#63b8ff" points="2101.14,-84.33 2098.14,-74.17 2094.15,-83.98 2101.14,-84.33"/>
</a>
</g>
</g>
<!-- Node12 -->
<g id="Node000012" class="node">
<title>Node12</title>
<g id="a_Node000012"><a xlink:href="datatypes_8h.html" target="_top" xlink:title=" ">
<polygon fill="#fff0f0" stroke="red" points="2065.01,-134.5 1991.01,-134.5 1991.01,-115.5 2065.01,-115.5 2065.01,-134.5"/>
<text text-anchor="middle" x="2028.01" y="-122.5" font-family="Helvetica,sans-Serif" font-size="10.00">datatypes.h</text>
</a>
</g>
</g>
<!-- Node6&#45;&gt;Node12 -->
<g id="edge12_Node000006_Node000012" class="edge">
<title>Node6&#45;&gt;Node12</title>
<g id="a_edge12_Node000006_Node000012"><a xlink:title=" ">
<path fill="none" stroke="#63b8ff" d="M1265.27,-181.45C1273.85,-179.33 1283.24,-177.3 1292.01,-176 1593.6,-131.44 1676.05,-188.63 1977.01,-140 1981.74,-139.23 1986.67,-138.2 1991.51,-137.03"/>
<polygon fill="#63b8ff" stroke="#63b8ff" points="1992.45,-140.41 2001.25,-134.51 1990.69,-133.63 1992.45,-140.41"/>
</a>
</g>
</g>
<!-- Node6&#45;&gt;Node20 -->
<g id="edge21_Node000006_Node000020" class="edge">
<title>Node6&#45;&gt;Node20</title>
<g id="a_edge21_Node000006_Node000020"><a xlink:title=" ">
<path fill="none" stroke="#63b8ff" d="M1191.7,-188.99C1051.85,-185.5 599.7,-172.29 227.01,-140 202.13,-137.84 174.29,-134.41 152.46,-131.48"/>
<polygon fill="#63b8ff" stroke="#63b8ff" points="152.66,-127.97 142.27,-130.09 151.71,-134.91 152.66,-127.97"/>
</a>
</g>
</g>
<!-- Node24 -->
<g id="Node000024" class="node">
<title>Node24</title>
<g id="a_Node000024"><a xlink:title=" ">
<polygon fill="#e0e0e0" stroke="#999999" points="2216.51,-134.5 2121.51,-134.5 2121.51,-115.5 2216.51,-115.5 2216.51,-134.5"/>
<text text-anchor="middle" x="2169.01" y="-122.5" font-family="Helvetica,sans-Serif" font-size="10.00">user_defines.inc</text>
</a>
</g>
</g>
<!-- Node6&#45;&gt;Node24 -->
<g id="edge30_Node000006_Node000024" class="edge">
<title>Node6&#45;&gt;Node24</title>
<g id="a_edge30_Node000006_Node000024"><a xlink:title=" ">
<path fill="none" stroke="#63b8ff" d="M1264.96,-181.47C1273.62,-179.33 1283.13,-177.27 1292.01,-176 1650.91,-124.51 1747.64,-188.12 2107.01,-140 2113.32,-139.15 2119.95,-137.98 2126.41,-136.66"/>
<polygon fill="#63b8ff" stroke="#63b8ff" points="2127.35,-140.04 2136.38,-134.51 2125.87,-133.2 2127.35,-140.04"/>
</a>
</g>
</g>
<!-- Node25 -->
<g id="Node000025" class="node">
<title>Node25</title>
<g id="a_Node000025"><a xlink:title=" ">
<polygon fill="#e0e0e0" stroke="#999999" points="534.01,-134.5 440.01,-134.5 440.01,-115.5 534.01,-115.5 534.01,-134.5"/>
<text text-anchor="middle" x="487.01" y="-122.5" font-family="Helvetica,sans-Serif" font-size="10.00">profiles_info.inc</text>
</a>
</g>
</g>
<!-- Node6&#45;&gt;Node25 -->
<g id="edge31_Node000006_Node000025" class="edge">
<title>Node6&#45;&gt;Node25</title>
<g id="a_edge31_Node000006_Node000025"><a xlink:title=" ">
<path fill="none" stroke="#63b8ff" d="M1191.86,-189.4C1082.71,-187.34 786.97,-178.35 544.01,-140 538.6,-139.15 532.95,-138.03 527.39,-136.81"/>
<polygon fill="#63b8ff" stroke="#63b8ff" points="528.11,-133.38 517.58,-134.51 526.52,-140.2 528.11,-133.38"/>
</a>
</g>
</g>
<!-- Node6&#45;&gt;Node26 -->
<g id="edge32_Node000006_Node000026" class="edge">
<title>Node6&#45;&gt;Node26</title>
<g id="a_edge32_Node000006_Node000026"><a xlink:title=" ">
<path fill="none" stroke="#63b8ff" d="M1191.76,-188.91C1067.82,-185.48 700.82,-173.05 398.01,-140 388.42,-138.95 378.28,-137.59 368.43,-136.12"/>
<polygon fill="#63b8ff" stroke="#63b8ff" points="368.72,-132.62 358.31,-134.56 367.66,-139.54 368.72,-132.62"/>
</a>
</g>
</g>
<!-- Node27 -->
<g id="Node000027" class="node">
<title>Node27</title>
<g id="a_Node000027"><a xlink:href="func__attributes_8h.html" target="_top" xlink:title=" ">
<polygon fill="white" stroke="#666666" points="651.51,-134.5 552.51,-134.5 552.51,-115.5 651.51,-115.5 651.51,-134.5"/>
<text text-anchor="middle" x="602.01" y="-122.5" font-family="Helvetica,sans-Serif" font-size="10.00">func_attributes.h</text>
</a>
</g>
</g>
<!-- Node6&#45;&gt;Node27 -->
<g id="edge33_Node000006_Node000027" class="edge">
<title>Node6&#45;&gt;Node27</title>
<g id="a_edge33_Node000006_Node000027"><a xlink:title=" ">
<path fill="none" stroke="#63b8ff" d="M1191.9,-188.4C1095.96,-184.36 857.77,-171.74 661.01,-140 655.55,-139.12 649.85,-138.01 644.24,-136.81"/>
<polygon fill="#63b8ff" stroke="#63b8ff" points="644.82,-133.35 634.3,-134.56 643.28,-140.18 644.82,-133.35"/>
</a>
</g>
</g>
<!-- Node28 -->
<g id="Node000028" class="node">
<title>Node28</title>
<g id="a_Node000028"><a xlink:title=" ">
<polygon fill="#e0e0e0" stroke="#999999" points="802.51,-134.5 669.51,-134.5 669.51,-115.5 802.51,-115.5 802.51,-134.5"/>
<text text-anchor="middle" x="736.01" y="-122.5" font-family="Helvetica,sans-Serif" font-size="10.00">user_input_typedefs.inc</text>
</a>
</g>
</g>
<!-- Node6&#45;&gt;Node28 -->
<g id="edge34_Node000006_Node000028" class="edge">
<title>Node6&#45;&gt;Node28</title>
<g id="a_edge34_Node000006_Node000028"><a xlink:title=" ">
<path fill="none" stroke="#63b8ff" d="M1191.95,-185.84C1115.34,-178.22 950.39,-160.9 812.01,-140 804.8,-138.91 797.23,-137.66 789.78,-136.35"/>
<polygon fill="#63b8ff" stroke="#63b8ff" points="790.19,-132.87 779.73,-134.55 788.96,-139.76 790.19,-132.87"/>
</a>
</g>
</g>
<!-- Node29 -->
<g id="Node000029" class="node">
<title>Node29</title>
<g id="a_Node000029"><a xlink:title=" ">
<polygon fill="#e0e0e0" stroke="#999999" points="911.51,-134.5 820.51,-134.5 820.51,-115.5 911.51,-115.5 911.51,-134.5"/>
<text text-anchor="middle" x="866.01" y="-122.5" font-family="Helvetica,sans-Serif" font-size="10.00">output_decl.inc</text>
</a>
</g>
</g>
<!-- Node6&#45;&gt;Node29 -->
<g id="edge35_Node000006_Node000029" class="edge">
<title>Node6&#45;&gt;Node29</title>
<g id="a_edge35_Node000006_Node000029"><a xlink:title=" ">
<path fill="none" stroke="#63b8ff" d="M1191.86,-184.4C1131.13,-176.23 1017.1,-159.84 921.01,-140 916.6,-139.09 912.02,-138.06 907.46,-136.98"/>
<polygon fill="#63b8ff" stroke="#63b8ff" points="908.14,-133.54 897.59,-134.57 906.48,-140.34 908.14,-133.54"/>
</a>
</g>
</g>
<!-- Node30 -->
<g id="Node000030" class="node">
<title>Node30</title>
<g id="a_Node000030"><a xlink:title=" ">
<polygon fill="#e0e0e0" stroke="#999999" points="1054.51,-134.5 929.51,-134.5 929.51,-115.5 1054.51,-115.5 1054.51,-134.5"/>
<text text-anchor="middle" x="992.01" y="-122.5" font-family="Helvetica,sans-Serif" font-size="10.00">comp_loaded_decl.inc</text>
</a>
</g>
</g>
<!-- Node6&#45;&gt;Node30 -->
<g id="edge36_Node000006_Node000030" class="edge">
<title>Node6&#45;&gt;Node30</title>
<g id="a_edge36_Node000006_Node000030"><a xlink:title=" ">
<path fill="none" stroke="#63b8ff" d="M1202.49,-181.44C1159.02,-169.99 1081.92,-149.68 1034.08,-137.08"/>
<polygon fill="#63b8ff" stroke="#63b8ff" points="1034.9,-133.68 1024.33,-134.51 1033.11,-140.45 1034.9,-133.68"/>
</a>
</g>
</g>
<!-- Node31 -->
<g id="Node000031" class="node">
<title>Node31</title>
<g id="a_Node000031"><a xlink:title=" ">
<polygon fill="#e0e0e0" stroke="#999999" points="1159.01,-134.5 1073.01,-134.5 1073.01,-115.5 1159.01,-115.5 1159.01,-134.5"/>
<text text-anchor="middle" x="1116.01" y="-122.5" font-family="Helvetica,sans-Serif" font-size="10.00">comp_decl.inc</text>
</a>
</g>
</g>
<!-- Node6&#45;&gt;Node31 -->
<g id="edge37_Node000006_Node000031" class="edge">
<title>Node6&#45;&gt;Node31</title>
<g id="a_edge37_Node000006_Node000031"><a xlink:title=" ">
<path fill="none" stroke="#63b8ff" d="M1218.96,-181.37C1199,-170.63 1164.69,-152.18 1141.21,-139.55"/>
<polygon fill="#63b8ff" stroke="#63b8ff" points="1142.65,-136.35 1132.18,-134.7 1139.33,-142.52 1142.65,-136.35"/>
</a>
</g>
</g>
<!-- Node32 -->
<g id="Node000032" class="node">
<title>Node32</title>
<g id="a_Node000032"><a xlink:title=" ">
<polygon fill="#e0e0e0" stroke="#999999" points="1293.01,-134.5 1177.01,-134.5 1177.01,-115.5 1293.01,-115.5 1293.01,-134.5"/>
<text text-anchor="middle" x="1235.01" y="-122.5" font-family="Helvetica,sans-Serif" font-size="10.00">info_loaded_decl.inc</text>
</a>
</g>
</g>
<!-- Node6&#45;&gt;Node32 -->
<g id="edge38_Node000006_Node000032" class="edge">
<title>Node6&#45;&gt;Node32</title>
<g id="a_edge38_Node000006_Node000032"><a xlink:title=" ">
<path fill="none" stroke="#63b8ff" d="M1235.01,-181.37C1235.01,-172.16 1235.01,-157.29 1235.01,-145.27"/>
<polygon fill="#63b8ff" stroke="#63b8ff" points="1238.51,-144.91 1235.01,-134.91 1231.51,-144.91 1238.51,-144.91"/>
</a>
</g>
</g>
<!-- Node33 -->
<g id="Node000033" class="node">
<title>Node33</title>
<g id="a_Node000033"><a xlink:title=" ">
<polygon fill="#e0e0e0" stroke="#999999" points="1459.01,-134.5 1311.01,-134.5 1311.01,-115.5 1459.01,-115.5 1459.01,-134.5"/>
<text text-anchor="middle" x="1385.01" y="-122.5" font-family="Helvetica,sans-Serif" font-size="10.00">device_mesh_info_decl.inc</text>
</a>
</g>
</g>
<!-- Node6&#45;&gt;Node33 -->
<g id="edge39_Node000006_Node000033" class="edge">
<title>Node6&#45;&gt;Node33</title>
<g id="a_edge39_Node000006_Node000033"><a xlink:title=" ">
<path fill="none" stroke="#63b8ff" d="M1255.24,-181.37C1280.96,-170.39 1325.58,-151.36 1355.2,-138.72"/>
<polygon fill="#63b8ff" stroke="#63b8ff" points="1356.8,-141.84 1364.62,-134.7 1354.05,-135.4 1356.8,-141.84"/>
</a>
</g>
</g>
<!-- Node34 -->
<g id="Node000034" class="node">
<title>Node34</title>
<g id="a_Node000034"><a xlink:title=" ">
<polygon fill="#e0e0e0" stroke="#999999" points="1562.51,-134.5 1477.51,-134.5 1477.51,-115.5 1562.51,-115.5 1562.51,-134.5"/>
<text text-anchor="middle" x="1520.01" y="-122.5" font-family="Helvetica,sans-Serif" font-size="10.00">array_decl.inc</text>
</a>
</g>
</g>
<!-- Node6&#45;&gt;Node34 -->
<g id="edge40_Node000006_Node000034" class="edge">
<title>Node6&#45;&gt;Node34</title>
<g id="a_edge40_Node000006_Node000034"><a xlink:title=" ">
<path fill="none" stroke="#63b8ff" d="M1268.71,-181.49C1276.36,-179.62 1284.45,-177.7 1292.01,-176 1369.9,-158.47 1390.31,-158.39 1468.01,-140 1471.84,-139.09 1475.82,-138.11 1479.79,-137.09"/>
<polygon fill="#63b8ff" stroke="#63b8ff" points="1480.78,-140.45 1489.57,-134.53 1479.01,-133.68 1480.78,-140.45"/>
</a>
</g>
</g>
<!-- Node35 -->
<g id="Node000035" class="node">
<title>Node35</title>
<g id="a_Node000035"><a xlink:title=" ">
<polygon fill="#e0e0e0" stroke="#999999" points="1665.01,-134.5 1581.01,-134.5 1581.01,-115.5 1665.01,-115.5 1665.01,-134.5"/>
<text text-anchor="middle" x="1623.01" y="-122.5" font-family="Helvetica,sans-Serif" font-size="10.00">input_decl.inc</text>
</a>
</g>
</g>
<!-- Node6&#45;&gt;Node35 -->
<g id="edge41_Node000006_Node000035" class="edge">
<title>Node6&#45;&gt;Node35</title>
<g id="a_edge41_Node000006_Node000035"><a xlink:title=" ">
<path fill="none" stroke="#63b8ff" d="M1267.12,-181.44C1275.21,-179.47 1283.89,-177.51 1292.01,-176 1415.35,-153 1448.99,-164.67 1572.01,-140 1576.16,-139.17 1580.47,-138.18 1584.75,-137.12"/>
<polygon fill="#63b8ff" stroke="#63b8ff" points="1585.79,-140.47 1594.58,-134.56 1584.02,-133.69 1585.79,-140.47"/>
</a>
</g>
</g>
<!-- Node36 -->
<g id="Node000036" class="node">
<title>Node36</title>
<g id="a_Node000036"><a xlink:href="ac__helpers_8h.html" target="_top" xlink:title=" ">
<polygon fill="white" stroke="#666666" points="1761.01,-134.5 1683.01,-134.5 1683.01,-115.5 1761.01,-115.5 1761.01,-134.5"/>
<text text-anchor="middle" x="1722.01" y="-122.5" font-family="Helvetica,sans-Serif" font-size="10.00">ac_helpers.h</text>
</a>
</g>
</g>
<!-- Node6&#45;&gt;Node36 -->
<g id="edge42_Node000006_Node000036" class="edge">
<title>Node6&#45;&gt;Node36</title>
<g id="a_edge42_Node000006_Node000036"><a xlink:title=" ">
<path fill="none" stroke="#63b8ff" d="M1266.19,-181.46C1274.53,-179.42 1283.57,-177.43 1292.01,-176 1460.15,-147.59 1506.51,-172.02 1674.01,-140 1677.97,-139.24 1682.08,-138.3 1686.14,-137.26"/>
<polygon fill="#63b8ff" stroke="#63b8ff" points="1687.35,-140.56 1696.07,-134.54 1685.5,-133.81 1687.35,-140.56"/>
</a>
</g>
</g>
<!-- Node37 -->
<g id="Node000037" class="node">
<title>Node37</title>
<g id="a_Node000037"><a xlink:title=" ">
<polygon fill="#e0e0e0" stroke="#999999" points="1897.01,-140 1779.01,-140 1779.01,-110 1897.01,-110 1897.01,-140"/>
<text text-anchor="start" x="1787.01" y="-128" font-family="Helvetica,sans-Serif" font-size="10.00">scalar_reduce_buffer</text>
<text text-anchor="middle" x="1838.01" y="-117" font-family="Helvetica,sans-Serif" font-size="10.00">_defs.inc</text>
</a>
</g>
</g>
<!-- Node6&#45;&gt;Node37 -->
<g id="edge43_Node000006_Node000037" class="edge">
<title>Node6&#45;&gt;Node37</title>
<g id="a_edge43_Node000006_Node000037"><a xlink:title=" ">
<path fill="none" stroke="#63b8ff" d="M1265.88,-181.43C1274.3,-179.36 1283.45,-177.36 1292.01,-176 1499.11,-143 1557.21,-168.71 1768.57,-140.07"/>
<polygon fill="#63b8ff" stroke="#63b8ff" points="1769.32,-143.5 1778.75,-138.67 1768.36,-136.57 1769.32,-143.5"/>
</a>
</g>
</g>
<!-- Node6&#45;&gt;Node40 -->
<g id="edge44_Node000006_Node000040" class="edge">
<title>Node6&#45;&gt;Node40</title>
<g id="a_edge44_Node000006_Node000040"><a xlink:title=" ">
<path fill="none" stroke="#63b8ff" d="M1264.96,-181.44C1273.62,-179.29 1283.13,-177.25 1292.01,-176 1703.38,-118.16 1815.62,-204.45 2226.01,-140 2230.59,-139.28 2235.35,-138.28 2240.03,-137.15"/>
<polygon fill="#63b8ff" stroke="#63b8ff" points="2241.28,-140.44 2250.05,-134.51 2239.49,-133.68 2241.28,-140.44"/>
</a>
</g>
</g>
<!-- Node9 -->
<g id="Node000009" class="node">
<title>Node9</title>
<g id="a_Node000009"><a xlink:title=" ">
<polygon fill="#e0e0e0" stroke="#999999" points="1964.51,-19 1851.51,-19 1851.51,0 1964.51,0 1964.51,-19"/>
<text text-anchor="middle" x="1908.01" y="-7" font-family="Helvetica,sans-Serif" font-size="10.00">cuda_runtime_api.h</text>
</a>
</g>
</g>
<!-- Node8&#45;&gt;Node9 -->
<g id="edge9_Node000008_Node000009" class="edge">
<title>Node8&#45;&gt;Node9</title>
<g id="a_edge9_Node000008_Node000009"><a xlink:title=" ">
<path fill="none" stroke="#63b8ff" d="M1804.77,-54.98C1824.73,-46.38 1855.81,-32.99 1878.66,-23.15"/>
<polygon fill="#63b8ff" stroke="#63b8ff" points="1880.09,-26.34 1887.89,-19.17 1877.32,-19.91 1880.09,-26.34"/>
</a>
</g>
</g>
<!-- Node10 -->
<g id="Node000010" class="node">
<title>Node10</title>
<g id="a_Node000010"><a xlink:title=" ">
<polygon fill="#e0e0e0" stroke="#999999" points="1823.01,-19 1747.01,-19 1747.01,0 1823.01,0 1823.01,-19"/>
<text text-anchor="middle" x="1785.01" y="-7" font-family="Helvetica,sans-Serif" font-size="10.00">cuda_fp16.h</text>
</a>
</g>
</g>
<!-- Node8&#45;&gt;Node10 -->
<g id="edge10_Node000008_Node000010" class="edge">
<title>Node8&#45;&gt;Node10</title>
<g id="a_edge10_Node000008_Node000010"><a xlink:title=" ">
<path fill="none" stroke="#63b8ff" d="M1785.01,-54.75C1785.01,-47.8 1785.01,-37.85 1785.01,-29.13"/>
<polygon fill="#63b8ff" stroke="#63b8ff" points="1788.51,-29.09 1785.01,-19.09 1781.51,-29.09 1788.51,-29.09"/>
</a>
</g>
</g>
<!-- Node12&#45;&gt;Node8 -->
<g id="edge14_Node000012_Node000008" class="edge">
<title>Node12&#45;&gt;Node8</title>
<g id="a_edge14_Node000012_Node000008"><a xlink:title=" ">
<path fill="none" stroke="#63b8ff" d="M1997.59,-115.43C1990.83,-113.59 1983.68,-111.69 1977.01,-110 1928.59,-97.75 1872.97,-85 1834.1,-76.31"/>
<polygon fill="#63b8ff" stroke="#63b8ff" points="1834.62,-72.84 1824.1,-74.08 1833.1,-79.67 1834.62,-72.84"/>
</a>
</g>
</g>
<!-- Node12&#45;&gt;Node9 -->
<g id="edge15_Node000012_Node000009" class="edge">
<title>Node12&#45;&gt;Node9</title>
<g id="a_edge15_Node000012_Node000009"><a xlink:title=" ">
<path fill="none" stroke="#63b8ff" d="M2020.69,-115.06C2009.37,-101.47 1986.67,-75.06 1965.01,-55 1953.52,-44.37 1939.7,-33.54 1928.55,-25.22"/>
<polygon fill="#63b8ff" stroke="#63b8ff" points="1930.4,-22.24 1920.27,-19.15 1926.26,-27.89 1930.4,-22.24"/>
</a>
</g>
</g>
<!-- Node12&#45;&gt;Node11 -->
<g id="edge17_Node000012_Node000011" class="edge">
<title>Node12&#45;&gt;Node11</title>
<g id="a_edge17_Node000012_Node000011"><a xlink:title=" ">
<path fill="none" stroke="#63b8ff" d="M2038.34,-115.37C2049.19,-106.3 2066.49,-91.84 2079.68,-80.82"/>
<polygon fill="#63b8ff" stroke="#63b8ff" points="2082.21,-83.27 2087.64,-74.17 2077.72,-77.89 2082.21,-83.27"/>
</a>
</g>
</g>
<!-- Node12&#45;&gt;Node14 -->
<g id="edge13_Node000012_Node000014" class="edge">
<title>Node12&#45;&gt;Node14</title>
<g id="a_edge13_Node000012_Node000014"><a xlink:title=" ">
<path fill="none" stroke="#63b8ff" d="M2063.05,-115.49C2108.56,-104.45 2187.59,-85.26 2233.38,-74.15"/>
<polygon fill="#63b8ff" stroke="#63b8ff" points="2234.28,-77.53 2243.18,-71.77 2232.63,-70.73 2234.28,-77.53"/>
</a>
</g>
</g>
<!-- Node16 -->
<g id="Node000016" class="node">
<title>Node16</title>
<g id="a_Node000016"><a xlink:href="acreal_8h.html" target="_top" xlink:title=" ">
<polygon fill="white" stroke="#666666" points="2044.01,-19 1988.01,-19 1988.01,0 2044.01,0 2044.01,-19"/>
<text text-anchor="middle" x="2016.01" y="-7" font-family="Helvetica,sans-Serif" font-size="10.00">acreal.h</text>
</a>
</g>
</g>
<!-- Node12&#45;&gt;Node16 -->
<g id="edge16_Node000012_Node000016" class="edge">
<title>Node12&#45;&gt;Node16</title>
<g id="a_edge16_Node000012_Node000016"><a xlink:title=" ">
<path fill="none" stroke="#63b8ff" d="M2027.11,-115.47C2025.18,-97.23 2020.61,-54.07 2017.98,-29.14"/>
<polygon fill="#63b8ff" stroke="#63b8ff" points="2021.45,-28.71 2016.92,-19.13 2014.49,-29.44 2021.45,-28.71"/>
</a>
</g>
</g>
<!-- Node18 -->
<g id="Node000018" class="node">
<title>Node18</title>
<g id="a_Node000018"><a xlink:href="host__datatypes_8h.html" target="_top" xlink:title=" ">
<polygon fill="white" stroke="#666666" points="1955.51,-74 1854.51,-74 1854.51,-55 1955.51,-55 1955.51,-74"/>
<text text-anchor="middle" x="1905.01" y="-62" font-family="Helvetica,sans-Serif" font-size="10.00">host_datatypes.h</text>
</a>
</g>
</g>
<!-- Node12&#45;&gt;Node18 -->
<g id="edge18_Node000012_Node000018" class="edge">
<title>Node12&#45;&gt;Node18</title>
<g id="a_edge18_Node000012_Node000018"><a xlink:title=" ">
<path fill="none" stroke="#63b8ff" d="M2010.12,-115.49C1989.63,-105.75 1955.81,-89.66 1932.09,-78.38"/>
<polygon fill="#63b8ff" stroke="#63b8ff" points="1933.45,-75.15 1922.91,-74.02 1930.44,-81.47 1933.45,-75.15"/>
</a>
</g>
</g>
<!-- Node18&#45;&gt;Node16 -->
<g id="edge19_Node000018_Node000016" class="edge">
<title>Node18&#45;&gt;Node16</title>
<g id="a_edge19_Node000018_Node000016"><a xlink:title=" ">
<path fill="none" stroke="#63b8ff" d="M1922.84,-54.98C1940.62,-46.5 1968.15,-33.35 1988.69,-23.54"/>
<polygon fill="#63b8ff" stroke="#63b8ff" points="1990.33,-26.64 1997.85,-19.17 1987.32,-20.32 1990.33,-26.64"/>
</a>
</g>
</g>
<!-- Node19 -->
<g id="Node000019" class="node">
<title>Node19</title>
<g id="a_Node000019"><a xlink:title=" ">
<polygon fill="#e0e0e0" stroke="#999999" points="875.01,-19 819.01,-19 819.01,0 875.01,0 875.01,-19"/>
<text text-anchor="middle" x="847.01" y="-7" font-family="Helvetica,sans-Serif" font-size="10.00">stddef.h</text>
</a>
</g>
</g>
<!-- Node18&#45;&gt;Node19 -->
<g id="edge20_Node000018_Node000019" class="edge">
<title>Node18&#45;&gt;Node19</title>
<g id="a_edge20_Node000018_Node000019"><a xlink:title=" ">
<path fill="none" stroke="#63b8ff" d="M1854.31,-55.97C1851.17,-55.61 1848.05,-55.28 1845.01,-55 1472.16,-20.36 1018.36,-12.5 885.35,-10.88"/>
<polygon fill="#63b8ff" stroke="#63b8ff" points="885.3,-7.38 875.26,-10.77 885.21,-14.38 885.3,-7.38"/>
</a>
</g>
</g>
<!-- Node20&#45;&gt;Node5 -->
<g id="edge24_Node000020_Node000005" class="edge">
<title>Node20&#45;&gt;Node5</title>
<g id="a_edge24_Node000020_Node000005"><a xlink:title=" ">
<path fill="none" stroke="#63b8ff" d="M134.66,-115.49C158.63,-105.62 198.4,-89.23 225.84,-77.93"/>
<polygon fill="#63b8ff" stroke="#63b8ff" points="227.42,-81.06 235.33,-74.02 224.76,-74.59 227.42,-81.06"/>
</a>
</g>
</g>
<!-- Node20&#45;&gt;Node7 -->
<g id="edge26_Node000020_Node000007" class="edge">
<title>Node20&#45;&gt;Node7</title>
<g id="a_edge26_Node000020_Node000007"><a xlink:title=" ">
<path fill="none" stroke="#63b8ff" d="M142.28,-119.97C165.1,-116.84 198.07,-112.61 227.01,-110 516.17,-83.93 866.65,-70.48 977.58,-66.66"/>
<polygon fill="#63b8ff" stroke="#63b8ff" points="977.98,-70.15 987.85,-66.31 977.74,-63.16 977.98,-70.15"/>
</a>
</g>
</g>
<!-- Node20&#45;&gt;Node8 -->
<g id="edge29_Node000020_Node000008" class="edge">
<title>Node20&#45;&gt;Node8</title>
<g id="a_edge29_Node000020_Node000008"><a xlink:title=" ">
<path fill="none" stroke="#63b8ff" d="M142.26,-119.75C165.07,-116.49 198.03,-112.2 227.01,-110 525.74,-87.28 1473.32,-70.57 1723.79,-66.47"/>
<polygon fill="#63b8ff" stroke="#63b8ff" points="1723.86,-69.97 1733.8,-66.31 1723.75,-62.97 1723.86,-69.97"/>
</a>
</g>
</g>
<!-- Node20&#45;&gt;Node18 -->
<g id="edge23_Node000020_Node000018" class="edge">
<title>Node20&#45;&gt;Node18</title>
<g id="a_edge23_Node000020_Node000018"><a xlink:title=" ">
<path fill="none" stroke="#63b8ff" d="M142.26,-119.7C165.07,-116.41 198.03,-112.11 227.01,-110 941.07,-57.96 1126.39,-131.86 1844.24,-73.93"/>
<polygon fill="#63b8ff" stroke="#63b8ff" points="1844.63,-77.41 1854.32,-73.11 1844.07,-70.43 1844.63,-77.41"/>
</a>
</g>
</g>
<!-- Node20&#45;&gt;Node19 -->
<g id="edge22_Node000020_Node000019" class="edge">
<title>Node20&#45;&gt;Node19</title>
<g id="a_edge22_Node000020_Node000019"><a xlink:title=" ">
<path fill="none" stroke="#63b8ff" d="M85.75,-117.44C45.45,-106.87 -20.75,-84.27 7.01,-55 34.91,-25.58 646.91,-13.71 808.29,-11.09"/>
<polygon fill="#63b8ff" stroke="#63b8ff" points="808.74,-14.58 818.68,-10.92 808.63,-7.58 808.74,-14.58"/>
</a>
</g>
</g>
<!-- Node21 -->
<g id="Node000021" class="node">
<title>Node21</title>
<g id="a_Node000021"><a xlink:title=" ">
<polygon fill="#e0e0e0" stroke="#999999" points="69.51,-74 16.51,-74 16.51,-55 69.51,-55 69.51,-74"/>
<text text-anchor="middle" x="43.01" y="-62" font-family="Helvetica,sans-Serif" font-size="10.00">stdint.h</text>
</a>
</g>
</g>
<!-- Node20&#45;&gt;Node21 -->
<g id="edge25_Node000020_Node000021" class="edge">
<title>Node20&#45;&gt;Node21</title>
<g id="a_edge25_Node000020_Node000021"><a xlink:title=" ">
<path fill="none" stroke="#63b8ff" d="M103.53,-115.37C92.52,-106.3 74.97,-91.84 61.6,-80.82"/>
<polygon fill="#63b8ff" stroke="#63b8ff" points="63.47,-77.83 53.53,-74.17 59.02,-83.23 63.47,-77.83"/>
</a>
</g>
</g>
<!-- Node22 -->
<g id="Node000022" class="node">
<title>Node22</title>
<g id="a_Node000022"><a xlink:title=" ">
<polygon fill="#e0e0e0" stroke="#999999" points="140.51,-74 87.51,-74 87.51,-55 140.51,-55 140.51,-74"/>
<text text-anchor="middle" x="114.01" y="-62" font-family="Helvetica,sans-Serif" font-size="10.00">stdlib.h</text>
</a>
</g>
</g>
<!-- Node20&#45;&gt;Node22 -->
<g id="edge27_Node000020_Node000022" class="edge">
<title>Node20&#45;&gt;Node22</title>
<g id="a_edge27_Node000020_Node000022"><a xlink:title=" ">
<path fill="none" stroke="#63b8ff" d="M114.01,-115.37C114.01,-107.25 114.01,-94.81 114.01,-84.39"/>
<polygon fill="#63b8ff" stroke="#63b8ff" points="117.51,-84.17 114.01,-74.17 110.51,-84.17 117.51,-84.17"/>
</a>
</g>
</g>
<!-- Node23 -->
<g id="Node000023" class="node">
<title>Node23</title>
<g id="a_Node000023"><a xlink:title=" ">
<polygon fill="#e0e0e0" stroke="#999999" points="207.01,-74 159.01,-74 159.01,-55 207.01,-55 207.01,-74"/>
<text text-anchor="middle" x="183.01" y="-62" font-family="Helvetica,sans-Serif" font-size="10.00">time.h</text>
</a>
</g>
</g>
<!-- Node20&#45;&gt;Node23 -->
<g id="edge28_Node000020_Node000023" class="edge">
<title>Node20&#45;&gt;Node23</title>
<g id="a_edge28_Node000020_Node000023"><a xlink:title=" ">
<path fill="none" stroke="#63b8ff" d="M124.19,-115.37C134.89,-106.3 151.94,-91.84 164.94,-80.82"/>
<polygon fill="#63b8ff" stroke="#63b8ff" points="167.42,-83.3 172.78,-74.17 162.89,-77.96 167.42,-83.3"/>
</a>
</g>
</g>
<!-- Node47 -->
<g id="Node000047" class="node">
<title>Node47</title>
<g id="a_Node000047"><a xlink:title=" ">
<polygon fill="#e0e0e0" stroke="#999999" points="1645.51,-206 1526.51,-206 1526.51,-176 1645.51,-176 1645.51,-206"/>
<text text-anchor="start" x="1534.51" y="-194" font-family="Helvetica,sans-Serif" font-size="10.00">device_load_uniform</text>
<text text-anchor="middle" x="1586.01" y="-183" font-family="Helvetica,sans-Serif" font-size="10.00">_decl.inc</text>
</a>
</g>
</g>
<!-- Node46&#45;&gt;Node47 -->
<g id="edge51_Node000046_Node000047" class="edge">
<title>Node46&#45;&gt;Node47</title>
<g id="a_edge51_Node000046_Node000047"><a xlink:title=" ">
<path fill="none" stroke="#63b8ff" d="M1663.58,-241.87C1651.23,-233.93 1632.47,-221.87 1616.5,-211.6"/>
<polygon fill="#63b8ff" stroke="#63b8ff" points="1618.27,-208.58 1607.96,-206.11 1614.48,-214.47 1618.27,-208.58"/>
</a>
</g>
</g>
<!-- Node48 -->
<g id="Node000048" class="node">
<title>Node48</title>
<g id="a_Node000048"><a xlink:title=" ">
<polygon fill="#e0e0e0" stroke="#999999" points="1786.01,-206 1664.01,-206 1664.01,-176 1786.01,-176 1786.01,-206"/>
<text text-anchor="start" x="1672.01" y="-194" font-family="Helvetica,sans-Serif" font-size="10.00">device_store_uniform</text>
<text text-anchor="middle" x="1725.01" y="-183" font-family="Helvetica,sans-Serif" font-size="10.00">_decl.inc</text>
</a>
</g>
</g>
<!-- Node46&#45;&gt;Node48 -->
<g id="edge52_Node000046_Node000048" class="edge">
<title>Node46&#45;&gt;Node48</title>
<g id="a_edge52_Node000046_Node000048"><a xlink:title=" ">
<path fill="none" stroke="#63b8ff" d="M1684.09,-241.87C1690.12,-234.52 1699.05,-223.63 1707.03,-213.91"/>
<polygon fill="#63b8ff" stroke="#63b8ff" points="1709.79,-216.07 1713.43,-206.11 1704.38,-211.63 1709.79,-216.07"/>
</a>
</g>
</g>
</g>
</svg>
