<?xml version="1.0" encoding="UTF-8" standalone="no"?>
<!DOCTYPE svg PUBLIC "-//W3C//DTD SVG 1.1//EN"
 "http://www.w3.org/Graphics/SVG/1.1/DTD/svg11.dtd">
<!-- Generated by graphviz version 2.43.0 (0)
 -->
<!-- Title: src/utils/verification.cc Pages: 1 -->
<svg width="2232pt" height="434pt"
 viewBox="0.00 0.00 2231.62 434.00" xmlns="http://www.w3.org/2000/svg" xmlns:xlink="http://www.w3.org/1999/xlink">
<g id="graph0" class="graph" transform="scale(1 1) rotate(0) translate(4 430)">
<title>src/utils/verification.cc</title>
<!-- Node1 -->
<g id="Node000001" class="node">
<title>Node1</title>
<g id="a_Node000001"><a xlink:title=" ">
<polygon fill="#999999" stroke="#666666" points="2193.62,-426 2067.62,-426 2067.62,-407 2193.62,-407 2193.62,-426"/>
<text text-anchor="middle" x="2130.62" y="-414" font-family="Helvetica,sans-Serif" font-size="10.00">src/utils/verification.cc</text>
</a>
</g>
</g>
<!-- Node2 -->
<g id="Node000002" class="node">
<title>Node2</title>
<g id="a_Node000002"><a xlink:href="astaroth__utils_8h.html" target="_top" xlink:title="Functions for loading and updating AcMeshInfo.">
<polygon fill="white" stroke="#666666" points="2063.62,-371 1971.62,-371 1971.62,-352 2063.62,-352 2063.62,-371"/>
<text text-anchor="middle" x="2017.62" y="-359" font-family="Helvetica,sans-Serif" font-size="10.00">astaroth_utils.h</text>
</a>
</g>
</g>
<!-- Node1&#45;&gt;Node2 -->
<g id="edge1_Node000001_Node000002" class="edge">
<title>Node1&#45;&gt;Node2</title>
<g id="a_edge1_Node000001_Node000002"><a xlink:title=" ">
<path fill="none" stroke="#63b8ff" d="M2112.46,-406.98C2094.37,-398.5 2066.33,-385.35 2045.43,-375.54"/>
<polygon fill="#63b8ff" stroke="#63b8ff" points="2046.64,-372.25 2036.1,-371.17 2043.67,-378.59 2046.64,-372.25"/>
</a>
</g>
</g>
<!-- Node5 -->
<g id="Node000005" class="node">
<title>Node5</title>
<g id="a_Node000005"><a xlink:title=" ">
<polygon fill="#e0e0e0" stroke="#999999" points="2197.62,-74 2135.62,-74 2135.62,-55 2197.62,-55 2197.62,-74"/>
<text text-anchor="middle" x="2166.62" y="-62" font-family="Helvetica,sans-Serif" font-size="10.00">stdbool.h</text>
</a>
</g>
</g>
<!-- Node1&#45;&gt;Node5 -->
<g id="edge62_Node000001_Node000005" class="edge">
<title>Node1&#45;&gt;Node5</title>
<g id="a_edge62_Node000001_Node000005"><a xlink:title=" ">
<path fill="none" stroke="#63b8ff" d="M2146.39,-406.79C2172.93,-390.85 2223.62,-354.27 2223.62,-307.5 2223.62,-307.5 2223.62,-307.5 2223.62,-190 2223.62,-148.24 2196.77,-105.16 2179.93,-82.24"/>
<polygon fill="#63b8ff" stroke="#63b8ff" points="2182.68,-80.07 2173.84,-74.23 2177.1,-84.31 2182.68,-80.07"/>
</a>
</g>
</g>
<!-- Node14 -->
<g id="Node000014" class="node">
<title>Node14</title>
<g id="a_Node000014"><a xlink:title=" ">
<polygon fill="#e0e0e0" stroke="#999999" points="212.12,-74 161.12,-74 161.12,-55 212.12,-55 212.12,-74"/>
<text text-anchor="middle" x="186.62" y="-62" font-family="Helvetica,sans-Serif" font-size="10.00">math.h</text>
</a>
</g>
</g>
<!-- Node1&#45;&gt;Node14 -->
<g id="edge61_Node000001_Node000014" class="edge">
<title>Node1&#45;&gt;Node14</title>
<g id="a_edge61_Node000001_Node000014"><a xlink:title=" ">
<path fill="none" stroke="#63b8ff" d="M2067.48,-415.68C1714.52,-416.28 1.62,-413.73 1.62,-307.5 1.62,-307.5 1.62,-307.5 1.62,-190 1.62,-153.46 -4.85,-136.21 20.62,-110 54.73,-74.89 113.31,-66.51 150.97,-65.01"/>
<polygon fill="#63b8ff" stroke="#63b8ff" points="151.1,-68.51 161,-64.76 150.92,-61.51 151.1,-68.51"/>
</a>
</g>
</g>
<!-- Node20 -->
<g id="Node000020" class="node">
<title>Node20</title>
<g id="a_Node000020"><a xlink:href="errchk_8h.html" target="_top" xlink:title="Brief info.">
<polygon fill="white" stroke="#666666" points="2100.62,-134.5 2044.62,-134.5 2044.62,-115.5 2100.62,-115.5 2100.62,-134.5"/>
<text text-anchor="middle" x="2072.62" y="-122.5" font-family="Helvetica,sans-Serif" font-size="10.00">errchk.h</text>
</a>
</g>
</g>
<!-- Node1&#45;&gt;Node20 -->
<g id="edge64_Node000001_Node000020" class="edge">
<title>Node1&#45;&gt;Node20</title>
<g id="a_edge64_Node000001_Node000020"><a xlink:title=" ">
<path fill="none" stroke="#63b8ff" d="M2138.73,-406.75C2154.03,-389.29 2185.62,-348.32 2185.62,-307.5 2185.62,-307.5 2185.62,-307.5 2185.62,-250.5 2185.62,-199 2131.95,-159.36 2098.59,-139.69"/>
<polygon fill="#63b8ff" stroke="#63b8ff" points="2100.2,-136.58 2089.78,-134.67 2096.74,-142.66 2100.2,-136.58"/>
</a>
</g>
</g>
<!-- Node55 -->
<g id="Node000055" class="node">
<title>Node55</title>
<g id="a_Node000055"><a xlink:title=" ">
<polygon fill="#e0e0e0" stroke="#999999" points="2157.12,-261 2104.12,-261 2104.12,-242 2157.12,-242 2157.12,-261"/>
<text text-anchor="middle" x="2130.62" y="-249" font-family="Helvetica,sans-Serif" font-size="10.00">string.h</text>
</a>
</g>
</g>
<!-- Node1&#45;&gt;Node55 -->
<g id="edge63_Node000001_Node000055" class="edge">
<title>Node1&#45;&gt;Node55</title>
<g id="a_edge63_Node000001_Node000055"><a xlink:title=" ">
<path fill="none" stroke="#63b8ff" d="M2130.62,-406.74C2130.62,-381.31 2130.62,-307.08 2130.62,-271.69"/>
<polygon fill="#63b8ff" stroke="#63b8ff" points="2134.12,-271.31 2130.62,-261.31 2127.12,-271.31 2134.12,-271.31"/>
</a>
</g>
</g>
<!-- Node3 -->
<g id="Node000003" class="node">
<title>Node3</title>
<g id="a_Node000003"><a xlink:href="astaroth_8h.html" target="_top" xlink:title=" ">
<polygon fill="white" stroke="#666666" points="1508.62,-316 1442.62,-316 1442.62,-297 1508.62,-297 1508.62,-316"/>
<text text-anchor="middle" x="1475.62" y="-304" font-family="Helvetica,sans-Serif" font-size="10.00">astaroth.h</text>
</a>
</g>
</g>
<!-- Node2&#45;&gt;Node3 -->
<g id="edge2_Node000002_Node000003" class="edge">
<title>Node2&#45;&gt;Node3</title>
<g id="a_edge2_Node000002_Node000003"><a xlink:title=" ">
<path fill="none" stroke="#63b8ff" d="M1971.41,-355.98C1868.06,-345.88 1619.44,-321.56 1518.9,-311.73"/>
<polygon fill="#63b8ff" stroke="#63b8ff" points="1519.09,-308.23 1508.79,-310.74 1518.41,-315.2 1519.09,-308.23"/>
</a>
</g>
</g>
<!-- Node56 -->
<g id="Node000056" class="node">
<title>Node56</title>
<g id="a_Node000056"><a xlink:title=" ">
<polygon fill="#e0e0e0" stroke="#999999" points="2093.62,-316 2037.62,-316 2037.62,-297 2093.62,-297 2093.62,-316"/>
<text text-anchor="middle" x="2065.62" y="-304" font-family="Helvetica,sans-Serif" font-size="10.00">stdarg.h</text>
</a>
</g>
</g>
<!-- Node2&#45;&gt;Node56 -->
<g id="edge59_Node000002_Node000056" class="edge">
<title>Node2&#45;&gt;Node56</title>
<g id="a_edge59_Node000002_Node000056"><a xlink:title=" ">
<path fill="none" stroke="#63b8ff" d="M2025.54,-351.75C2032.46,-344.11 2042.68,-332.82 2051.07,-323.56"/>
<polygon fill="#63b8ff" stroke="#63b8ff" points="2053.72,-325.85 2057.84,-316.09 2048.53,-321.15 2053.72,-325.85"/>
</a>
</g>
</g>
<!-- Node57 -->
<g id="Node000057" class="node">
<title>Node57</title>
<g id="a_Node000057"><a xlink:href="astaroth__lib_8h.html" target="_top" xlink:title=" ">
<polygon fill="white" stroke="#666666" points="2019.12,-316 1936.12,-316 1936.12,-297 2019.12,-297 2019.12,-316"/>
<text text-anchor="middle" x="1977.62" y="-304" font-family="Helvetica,sans-Serif" font-size="10.00">astaroth_lib.h</text>
</a>
</g>
</g>
<!-- Node2&#45;&gt;Node57 -->
<g id="edge60_Node000002_Node000057" class="edge">
<title>Node2&#45;&gt;Node57</title>
<g id="a_edge60_Node000002_Node000057"><a xlink:title=" ">
<path fill="none" stroke="#63b8ff" d="M2011.01,-351.75C2005.36,-344.26 1997.07,-333.28 1990.17,-324.13"/>
<polygon fill="#63b8ff" stroke="#63b8ff" points="1992.92,-321.96 1984.1,-316.09 1987.33,-326.18 1992.92,-321.96"/>
</a>
</g>
</g>
<!-- Node4 -->
<g id="Node000004" class="node">
<title>Node4</title>
<g id="a_Node000004"><a xlink:href="astaroth__base_8h.html" target="_top" xlink:title=" ">
<polygon fill="white" stroke="#666666" points="1115.12,-261 1020.12,-261 1020.12,-242 1115.12,-242 1115.12,-261"/>
<text text-anchor="middle" x="1067.62" y="-249" font-family="Helvetica,sans-Serif" font-size="10.00">astaroth_base.h</text>
</a>
</g>
</g>
<!-- Node3&#45;&gt;Node4 -->
<g id="edge3_Node000003_Node000004" class="edge">
<title>Node3&#45;&gt;Node4</title>
<g id="a_edge3_Node000003_Node000004"><a xlink:title=" ">
<path fill="none" stroke="#63b8ff" d="M1442.19,-301.51C1381.39,-294.2 1248.4,-277.96 1125.18,-261.05"/>
<polygon fill="#63b8ff" stroke="#63b8ff" points="1125.58,-257.57 1115.19,-259.67 1124.62,-264.51 1125.58,-257.57"/>
</a>
</g>
</g>
<!-- Node44 -->
<g id="Node000044" class="node">
<title>Node44</title>
<g id="a_Node000044"><a xlink:href="astaroth__grid_8h.html" target="_top" xlink:title=" ">
<polygon fill="white" stroke="#666666" points="1223.62,-261 1133.62,-261 1133.62,-242 1223.62,-242 1223.62,-261"/>
<text text-anchor="middle" x="1178.62" y="-249" font-family="Helvetica,sans-Serif" font-size="10.00">astaroth_grid.h</text>
</a>
</g>
</g>
<!-- Node3&#45;&gt;Node44 -->
<g id="edge47_Node000003_Node000044" class="edge">
<title>Node3&#45;&gt;Node44</title>
<g id="a_edge47_Node000003_Node000044"><a xlink:title=" ">
<path fill="none" stroke="#63b8ff" d="M1442.41,-299.57C1391.8,-290.54 1294.78,-273.23 1233.56,-262.3"/>
<polygon fill="#63b8ff" stroke="#63b8ff" points="1234.14,-258.85 1223.68,-260.54 1232.91,-265.74 1234.14,-258.85"/>
</a>
</g>
</g>
<!-- Node45 -->
<g id="Node000045" class="node">
<title>Node45</title>
<g id="a_Node000045"><a xlink:href="astaroth__node_8h.html" target="_top" xlink:title=" ">
<polygon fill="white" stroke="#666666" points="1337.12,-261 1242.12,-261 1242.12,-242 1337.12,-242 1337.12,-261"/>
<text text-anchor="middle" x="1289.62" y="-249" font-family="Helvetica,sans-Serif" font-size="10.00">astaroth_node.h</text>
</a>
</g>
</g>
<!-- Node3&#45;&gt;Node45 -->
<g id="edge48_Node000003_Node000045" class="edge">
<title>Node3&#45;&gt;Node45</title>
<g id="a_edge48_Node000003_Node000045"><a xlink:title=" ">
<path fill="none" stroke="#63b8ff" d="M1445.73,-296.98C1414.23,-288.01 1364.45,-273.82 1329.59,-263.89"/>
<polygon fill="#63b8ff" stroke="#63b8ff" points="1330.31,-260.46 1319.74,-261.08 1328.39,-267.19 1330.31,-260.46"/>
</a>
</g>
</g>
<!-- Node46 -->
<g id="Node000046" class="node">
<title>Node46</title>
<g id="a_Node000046"><a xlink:href="astaroth__device_8h.html" target="_top" xlink:title=" ">
<polygon fill="white" stroke="#666666" points="960.62,-261 856.62,-261 856.62,-242 960.62,-242 960.62,-261"/>
<text text-anchor="middle" x="908.62" y="-249" font-family="Helvetica,sans-Serif" font-size="10.00">astaroth_device.h</text>
</a>
</g>
</g>
<!-- Node3&#45;&gt;Node46 -->
<g id="edge49_Node000003_Node000046" class="edge">
<title>Node3&#45;&gt;Node46</title>
<g id="a_edge49_Node000003_Node000046"><a xlink:title=" ">
<path fill="none" stroke="#63b8ff" d="M1442.27,-302.38C1350.12,-293.77 1090.94,-269.54 970.98,-258.33"/>
<polygon fill="#63b8ff" stroke="#63b8ff" points="971.13,-254.83 960.85,-257.38 970.48,-261.8 971.13,-254.83"/>
</a>
</g>
</g>
<!-- Node49 -->
<g id="Node000049" class="node">
<title>Node49</title>
<g id="a_Node000049"><a xlink:href="astaroth__legacy_8h.html" target="_top" xlink:title=" ">
<polygon fill="white" stroke="#666666" points="1457.62,-261 1355.62,-261 1355.62,-242 1457.62,-242 1457.62,-261"/>
<text text-anchor="middle" x="1406.62" y="-249" font-family="Helvetica,sans-Serif" font-size="10.00">astaroth_legacy.h</text>
</a>
</g>
</g>
<!-- Node3&#45;&gt;Node49 -->
<g id="edge52_Node000003_Node000049" class="edge">
<title>Node3&#45;&gt;Node49</title>
<g id="a_edge52_Node000003_Node000049"><a xlink:title=" ">
<path fill="none" stroke="#63b8ff" d="M1464.53,-296.98C1454.13,-289 1438.36,-276.88 1425.9,-267.31"/>
<polygon fill="#63b8ff" stroke="#63b8ff" points="1427.97,-264.49 1417.9,-261.17 1423.7,-270.04 1427.97,-264.49"/>
</a>
</g>
</g>
<!-- Node50 -->
<g id="Node000050" class="node">
<title>Node50</title>
<g id="a_Node000050"><a xlink:title=" ">
<polygon fill="#e0e0e0" stroke="#999999" points="1615.12,-261 1476.12,-261 1476.12,-242 1615.12,-242 1615.12,-261"/>
<text text-anchor="middle" x="1545.62" y="-249" font-family="Helvetica,sans-Serif" font-size="10.00">device_set_input_decls.h</text>
</a>
</g>
</g>
<!-- Node3&#45;&gt;Node50 -->
<g id="edge53_Node000003_Node000050" class="edge">
<title>Node3&#45;&gt;Node50</title>
<g id="a_edge53_Node000003_Node000050"><a xlink:title=" ">
<path fill="none" stroke="#63b8ff" d="M1486.86,-296.98C1497.41,-289 1513.42,-276.88 1526.06,-267.31"/>
<polygon fill="#63b8ff" stroke="#63b8ff" points="1528.31,-270 1534.17,-261.17 1524.08,-264.42 1528.31,-270"/>
</a>
</g>
</g>
<!-- Node51 -->
<g id="Node000051" class="node">
<title>Node51</title>
<g id="a_Node000051"><a xlink:title=" ">
<polygon fill="#e0e0e0" stroke="#999999" points="1779.62,-261 1633.62,-261 1633.62,-242 1779.62,-242 1779.62,-261"/>
<text text-anchor="middle" x="1706.62" y="-249" font-family="Helvetica,sans-Serif" font-size="10.00">device_get_output_decls.h</text>
</a>
</g>
</g>
<!-- Node3&#45;&gt;Node51 -->
<g id="edge54_Node000003_Node000051" class="edge">
<title>Node3&#45;&gt;Node51</title>
<g id="a_edge54_Node000003_Node000051"><a xlink:title=" ">
<path fill="none" stroke="#63b8ff" d="M1508.71,-297.91C1548.26,-288.83 1614.71,-273.59 1659.58,-263.29"/>
<polygon fill="#63b8ff" stroke="#63b8ff" points="1660.41,-266.69 1669.37,-261.05 1658.84,-259.87 1660.41,-266.69"/>
</a>
</g>
</g>
<!-- Node52 -->
<g id="Node000052" class="node">
<title>Node52</title>
<g id="a_Node000052"><a xlink:title=" ">
<polygon fill="#e0e0e0" stroke="#999999" points="1937.62,-261 1797.62,-261 1797.62,-242 1937.62,-242 1937.62,-261"/>
<text text-anchor="middle" x="1867.62" y="-249" font-family="Helvetica,sans-Serif" font-size="10.00">device_get_input_decls.h</text>
</a>
</g>
</g>
<!-- Node3&#45;&gt;Node52 -->
<g id="edge55_Node000003_Node000052" class="edge">
<title>Node3&#45;&gt;Node52</title>
<g id="a_edge55_Node000003_Node000052"><a xlink:title=" ">
<path fill="none" stroke="#63b8ff" d="M1508.7,-301.03C1571.4,-292.55 1708.89,-273.96 1794.33,-262.41"/>
<polygon fill="#63b8ff" stroke="#63b8ff" points="1795.04,-265.84 1804.48,-261.04 1794.1,-258.91 1795.04,-265.84"/>
</a>
</g>
</g>
<!-- Node53 -->
<g id="Node000053" class="node">
<title>Node53</title>
<g id="a_Node000053"><a xlink:title=" ">
<polygon fill="#e0e0e0" stroke="#999999" points="2085.62,-261 1955.62,-261 1955.62,-242 2085.62,-242 2085.62,-261"/>
<text text-anchor="middle" x="2020.62" y="-249" font-family="Helvetica,sans-Serif" font-size="10.00">get_vtxbufs_declares.h</text>
</a>
</g>
</g>
<!-- Node3&#45;&gt;Node53 -->
<g id="edge56_Node000003_Node000053" class="edge">
<title>Node3&#45;&gt;Node53</title>
<g id="a_edge56_Node000003_Node000053"><a xlink:title=" ">
<path fill="none" stroke="#63b8ff" d="M1508.76,-302.6C1584.2,-295.95 1774.78,-278.87 1945.1,-261.14"/>
<polygon fill="#63b8ff" stroke="#63b8ff" points="1945.67,-264.6 1955.25,-260.08 1944.95,-257.64 1945.67,-264.6"/>
</a>
</g>
</g>
<!-- Node54 -->
<g id="Node000054" class="node">
<title>Node54</title>
<g id="a_Node000054"><a xlink:href="astaroth__runtime__compilation_8h.html" target="_top" xlink:title=" ">
<polygon fill="white" stroke="#666666" points="838.12,-261 665.12,-261 665.12,-242 838.12,-242 838.12,-261"/>
<text text-anchor="middle" x="751.62" y="-249" font-family="Helvetica,sans-Serif" font-size="10.00">astaroth_runtime_compilation.h</text>
</a>
</g>
</g>
<!-- Node3&#45;&gt;Node54 -->
<g id="edge57_Node000003_Node000054" class="edge">
<title>Node3&#45;&gt;Node54</title>
<g id="a_edge57_Node000003_Node000054"><a xlink:title=" ">
<path fill="none" stroke="#63b8ff" d="M1442.58,-303.36C1350.47,-297.37 1082.79,-279.64 848.3,-261.04"/>
<polygon fill="#63b8ff" stroke="#63b8ff" points="848.46,-257.54 838.22,-260.24 847.91,-264.52 848.46,-257.54"/>
</a>
</g>
</g>
<!-- Node3&#45;&gt;Node55 -->
<g id="edge58_Node000003_Node000055" class="edge">
<title>Node3&#45;&gt;Node55</title>
<g id="a_edge58_Node000003_Node000055"><a xlink:title=" ">
<path fill="none" stroke="#63b8ff" d="M1508.71,-304.98C1600.25,-303.15 1864.66,-295.21 2093.78,-260.84"/>
<polygon fill="#63b8ff" stroke="#63b8ff" points="2094.61,-264.26 2103.97,-259.29 2093.56,-257.34 2094.61,-264.26"/>
</a>
</g>
</g>
<!-- Node4&#45;&gt;Node5 -->
<g id="edge4_Node000004_Node000005" class="edge">
<title>Node4&#45;&gt;Node5</title>
<g id="a_edge4_Node000004_Node000005"><a xlink:title=" ">
<path fill="none" stroke="#63b8ff" d="M1115.18,-243.23C1118.37,-242.8 1121.54,-242.38 1124.62,-242 1349.57,-213.94 1960.76,-279.28 2139.62,-140 2156.71,-126.69 2162.99,-101.56 2165.29,-84.19"/>
<polygon fill="#63b8ff" stroke="#63b8ff" points="2168.79,-84.4 2166.31,-74.1 2161.83,-83.7 2168.79,-84.4"/>
</a>
</g>
</g>
<!-- Node6 -->
<g id="Node000006" class="node">
<title>Node6</title>
<g id="a_Node000006"><a xlink:href="acc__runtime_8h.html" target="_top" xlink:title=" ">
<polygon fill="#fff0f0" stroke="red" points="1218.62,-200.5 1132.62,-200.5 1132.62,-181.5 1218.62,-181.5 1218.62,-200.5"/>
<text text-anchor="middle" x="1175.62" y="-188.5" font-family="Helvetica,sans-Serif" font-size="10.00">acc_runtime.h</text>
</a>
</g>
</g>
<!-- Node4&#45;&gt;Node6 -->
<g id="edge5_Node000004_Node000006" class="edge">
<title>Node4&#45;&gt;Node6</title>
<g id="a_edge5_Node000004_Node000006"><a xlink:title=" ">
<path fill="none" stroke="#63b8ff" d="M1083.55,-241.87C1101.26,-232.28 1130.08,-216.67 1150.76,-205.47"/>
<polygon fill="#63b8ff" stroke="#63b8ff" points="1152.49,-208.51 1159.62,-200.67 1149.16,-202.35 1152.49,-208.51"/>
</a>
</g>
</g>
<!-- Node26 -->
<g id="Node000026" class="node">
<title>Node26</title>
<g id="a_Node000026"><a xlink:title=" ">
<polygon fill="#e0e0e0" stroke="#999999" points="169.12,-134.5 30.12,-134.5 30.12,-115.5 169.12,-115.5 169.12,-134.5"/>
<text text-anchor="middle" x="99.62" y="-122.5" font-family="Helvetica,sans-Serif" font-size="10.00">user_built&#45;in_constants.h</text>
</a>
</g>
</g>
<!-- Node4&#45;&gt;Node26 -->
<g id="edge45_Node000004_Node000026" class="edge">
<title>Node4&#45;&gt;Node26</title>
<g id="a_edge45_Node000004_Node000026"><a xlink:title=" ">
<path fill="none" stroke="#63b8ff" d="M1073.91,-241.82C1084.26,-226.41 1102.08,-194.17 1084.62,-176 1049.71,-139.68 228.7,-145.41 178.62,-140 169.86,-139.05 160.62,-137.72 151.65,-136.25"/>
<polygon fill="#63b8ff" stroke="#63b8ff" points="152.14,-132.79 141.69,-134.55 150.96,-139.69 152.14,-132.79"/>
</a>
</g>
</g>
<!-- Node43 -->
<g id="Node000043" class="node">
<title>Node43</title>
<g id="a_Node000043"><a xlink:title=" ">
<polygon fill="#e0e0e0" stroke="#999999" points="1076.12,-206 945.12,-206 945.12,-176 1076.12,-176 1076.12,-206"/>
<text text-anchor="start" x="953.12" y="-194" font-family="Helvetica,sans-Serif" font-size="10.00">user_builtin_non_scalar</text>
<text text-anchor="middle" x="1010.62" y="-183" font-family="Helvetica,sans-Serif" font-size="10.00">_constants.h</text>
</a>
</g>
</g>
<!-- Node4&#45;&gt;Node43 -->
<g id="edge46_Node000004_Node000043" class="edge">
<title>Node4&#45;&gt;Node43</title>
<g id="a_edge46_Node000004_Node000043"><a xlink:title=" ">
<path fill="none" stroke="#63b8ff" d="M1059.21,-241.87C1051.9,-234.37 1041.01,-223.2 1031.4,-213.33"/>
<polygon fill="#63b8ff" stroke="#63b8ff" points="1033.85,-210.83 1024.37,-206.11 1028.84,-215.72 1033.85,-210.83"/>
</a>
</g>
</g>
<!-- Node6&#45;&gt;Node5 -->
<g id="edge7_Node000006_Node000005" class="edge">
<title>Node6&#45;&gt;Node5</title>
<g id="a_edge7_Node000006_Node000005"><a xlink:title=" ">
<path fill="none" stroke="#63b8ff" d="M1218.77,-189.8C1391.85,-188.71 2030.27,-181.87 2109.62,-140 2132.84,-127.74 2149.42,-101.37 2158.52,-83.53"/>
<polygon fill="#63b8ff" stroke="#63b8ff" points="2161.72,-84.93 2162.9,-74.4 2155.41,-81.9 2161.72,-84.93"/>
</a>
</g>
</g>
<!-- Node7 -->
<g id="Node000007" class="node">
<title>Node7</title>
<g id="a_Node000007"><a xlink:title=" ">
<polygon fill="#e0e0e0" stroke="#999999" points="1642.62,-74 1592.62,-74 1592.62,-55 1642.62,-55 1642.62,-74"/>
<text text-anchor="middle" x="1617.62" y="-62" font-family="Helvetica,sans-Serif" font-size="10.00">stdio.h</text>
</a>
</g>
</g>
<!-- Node6&#45;&gt;Node7 -->
<g id="edge6_Node000006_Node000007" class="edge">
<title>Node6&#45;&gt;Node7</title>
<g id="a_edge6_Node000006_Node000007"><a xlink:title=" ">
<path fill="none" stroke="#63b8ff" d="M1218.76,-190.72C1286.15,-190.34 1419.25,-183.49 1521.62,-140 1522.72,-139.53 1570.45,-102.33 1598.18,-80.68"/>
<polygon fill="#63b8ff" stroke="#63b8ff" points="1600.67,-83.18 1606.4,-74.27 1596.36,-77.66 1600.67,-83.18"/>
</a>
</g>
</g>
<!-- Node8 -->
<g id="Node000008" class="node">
<title>Node8</title>
<g id="a_Node000008"><a xlink:href="device__headers_8h.html" target="_top" xlink:title=" ">
<polygon fill="white" stroke="#666666" points="1188.62,-74 1086.62,-74 1086.62,-55 1188.62,-55 1188.62,-74"/>
<text text-anchor="middle" x="1137.62" y="-62" font-family="Helvetica,sans-Serif" font-size="10.00">device_headers.h</text>
</a>
</g>
</g>
<!-- Node6&#45;&gt;Node8 -->
<g id="edge8_Node000006_Node000008" class="edge">
<title>Node6&#45;&gt;Node8</title>
<g id="a_edge8_Node000006_Node000008"><a xlink:title=" ">
<path fill="none" stroke="#63b8ff" d="M1172.99,-181.11C1168.62,-166.33 1159.54,-135.78 1151.62,-110 1148.97,-101.38 1145.97,-91.83 1143.44,-83.8"/>
<polygon fill="#63b8ff" stroke="#63b8ff" points="1146.69,-82.5 1140.33,-74.02 1140.02,-84.61 1146.69,-82.5"/>
</a>
</g>
</g>
<!-- Node11 -->
<g id="Node000011" class="node">
<title>Node11</title>
<g id="a_Node000011"><a xlink:title=" ">
<polygon fill="#e0e0e0" stroke="#999999" points="994.12,-74 899.12,-74 899.12,-55 994.12,-55 994.12,-74"/>
<text text-anchor="middle" x="946.62" y="-62" font-family="Helvetica,sans-Serif" font-size="10.00">builtin_enums.h</text>
</a>
</g>
</g>
<!-- Node6&#45;&gt;Node11 -->
<g id="edge11_Node000006_Node000011" class="edge">
<title>Node6&#45;&gt;Node11</title>
<g id="a_edge11_Node000006_Node000011"><a xlink:title=" ">
<path fill="none" stroke="#63b8ff" d="M1171.9,-181.5C1164.24,-165.03 1145.1,-128.77 1117.62,-110 1084.18,-87.17 1039.77,-76.06 1004.59,-70.64"/>
<polygon fill="#63b8ff" stroke="#63b8ff" points="1004.86,-67.14 994.46,-69.2 1003.87,-74.07 1004.86,-67.14"/>
</a>
</g>
</g>
<!-- Node12 -->
<g id="Node000012" class="node">
<title>Node12</title>
<g id="a_Node000012"><a xlink:href="datatypes_8h.html" target="_top" xlink:title=" ">
<polygon fill="#fff0f0" stroke="red" points="387.62,-134.5 313.62,-134.5 313.62,-115.5 387.62,-115.5 387.62,-134.5"/>
<text text-anchor="middle" x="350.62" y="-122.5" font-family="Helvetica,sans-Serif" font-size="10.00">datatypes.h</text>
</a>
</g>
</g>
<!-- Node6&#45;&gt;Node12 -->
<g id="edge12_Node000006_Node000012" class="edge">
<title>Node6&#45;&gt;Node12</title>
<g id="a_edge12_Node000006_Node000012"><a xlink:title=" ">
<path fill="none" stroke="#63b8ff" d="M1145.36,-181.43C1136.78,-179.31 1127.39,-177.28 1118.62,-176 800.72,-129.47 713.13,-195.19 396.62,-140 392.66,-139.31 388.56,-138.38 384.52,-137.34"/>
<polygon fill="#63b8ff" stroke="#63b8ff" points="385.27,-133.91 374.7,-134.54 383.36,-140.64 385.27,-133.91"/>
</a>
</g>
</g>
<!-- Node6&#45;&gt;Node20 -->
<g id="edge21_Node000006_Node000020" class="edge">
<title>Node6&#45;&gt;Node20</title>
<g id="a_edge21_Node000006_Node000020"><a xlink:title=" ">
<path fill="none" stroke="#63b8ff" d="M1218.62,-189.22C1369.92,-186.21 1877,-173.79 2035.62,-140 2038.3,-139.43 2041.04,-138.7 2043.76,-137.87"/>
<polygon fill="#63b8ff" stroke="#63b8ff" points="2045.06,-141.12 2053.36,-134.55 2042.77,-134.5 2045.06,-141.12"/>
</a>
</g>
</g>
<!-- Node24 -->
<g id="Node000024" class="node">
<title>Node24</title>
<g id="a_Node000024"><a xlink:title=" ">
<polygon fill="#e0e0e0" stroke="#999999" points="1291.12,-134.5 1204.12,-134.5 1204.12,-115.5 1291.12,-115.5 1291.12,-134.5"/>
<text text-anchor="middle" x="1247.62" y="-122.5" font-family="Helvetica,sans-Serif" font-size="10.00">user_defines.h</text>
</a>
</g>
</g>
<!-- Node6&#45;&gt;Node24 -->
<g id="edge30_Node000006_Node000024" class="edge">
<title>Node6&#45;&gt;Node24</title>
<g id="a_edge30_Node000006_Node000024"><a xlink:title=" ">
<path fill="none" stroke="#63b8ff" d="M1185.33,-181.37C1196.75,-171.21 1215.94,-154.16 1230,-141.65"/>
<polygon fill="#63b8ff" stroke="#63b8ff" points="1232.45,-144.16 1237.6,-134.91 1227.8,-138.93 1232.45,-144.16"/>
</a>
</g>
</g>
<!-- Node25 -->
<g id="Node000025" class="node">
<title>Node25</title>
<g id="a_Node000025"><a xlink:title=" ">
<polygon fill="#e0e0e0" stroke="#999999" points="1395.62,-134.5 1309.62,-134.5 1309.62,-115.5 1395.62,-115.5 1395.62,-134.5"/>
<text text-anchor="middle" x="1352.62" y="-122.5" font-family="Helvetica,sans-Serif" font-size="10.00">profiles_info.h</text>
</a>
</g>
</g>
<!-- Node6&#45;&gt;Node25 -->
<g id="edge31_Node000006_Node000025" class="edge">
<title>Node6&#45;&gt;Node25</title>
<g id="a_edge31_Node000006_Node000025"><a xlink:title=" ">
<path fill="none" stroke="#63b8ff" d="M1199.49,-181.37C1230.32,-170.22 1284.16,-150.75 1319.09,-138.12"/>
<polygon fill="#63b8ff" stroke="#63b8ff" points="1320.63,-141.29 1328.84,-134.6 1318.25,-134.71 1320.63,-141.29"/>
</a>
</g>
</g>
<!-- Node6&#45;&gt;Node26 -->
<g id="edge32_Node000006_Node000026" class="edge">
<title>Node6&#45;&gt;Node26</title>
<g id="a_edge32_Node000006_Node000026"><a xlink:title=" ">
<path fill="none" stroke="#63b8ff" d="M1145.67,-181.44C1137.01,-179.29 1127.5,-177.25 1118.62,-176 704.6,-117.84 594.32,-184.58 178.62,-140 169.86,-139.06 160.61,-137.73 151.65,-136.26"/>
<polygon fill="#63b8ff" stroke="#63b8ff" points="152.14,-132.8 141.69,-134.56 150.96,-139.7 152.14,-132.8"/>
</a>
</g>
</g>
<!-- Node27 -->
<g id="Node000027" class="node">
<title>Node27</title>
<g id="a_Node000027"><a xlink:href="func__attributes_8h.html" target="_top" xlink:title=" ">
<polygon fill="white" stroke="#666666" points="1513.12,-134.5 1414.12,-134.5 1414.12,-115.5 1513.12,-115.5 1513.12,-134.5"/>
<text text-anchor="middle" x="1463.62" y="-122.5" font-family="Helvetica,sans-Serif" font-size="10.00">func_attributes.h</text>
</a>
</g>
</g>
<!-- Node6&#45;&gt;Node27 -->
<g id="edge33_Node000006_Node000027" class="edge">
<title>Node6&#45;&gt;Node27</title>
<g id="a_edge33_Node000006_Node000027"><a xlink:title=" ">
<path fill="none" stroke="#63b8ff" d="M1215.79,-181.46C1261.56,-171.67 1338.55,-155.05 1404.62,-140 1409.01,-139 1413.58,-137.94 1418.15,-136.88"/>
<polygon fill="#63b8ff" stroke="#63b8ff" points="1419.14,-140.24 1428.07,-134.54 1417.54,-133.42 1419.14,-140.24"/>
</a>
</g>
</g>
<!-- Node28 -->
<g id="Node000028" class="node">
<title>Node28</title>
<g id="a_Node000028"><a xlink:title=" ">
<polygon fill="#e0e0e0" stroke="#999999" points="1695.12,-134.5 1570.12,-134.5 1570.12,-115.5 1695.12,-115.5 1695.12,-134.5"/>
<text text-anchor="middle" x="1632.62" y="-122.5" font-family="Helvetica,sans-Serif" font-size="10.00">user_input_typedefs.h</text>
</a>
</g>
</g>
<!-- Node6&#45;&gt;Node28 -->
<g id="edge34_Node000006_Node000028" class="edge">
<title>Node6&#45;&gt;Node28</title>
<g id="a_edge34_Node000006_Node000028"><a xlink:title=" ">
<path fill="none" stroke="#63b8ff" d="M1218.74,-185.02C1289.32,-176.72 1433.83,-159.07 1555.62,-140 1562.82,-138.87 1570.38,-137.6 1577.83,-136.3"/>
<polygon fill="#63b8ff" stroke="#63b8ff" points="1578.66,-139.71 1587.89,-134.51 1577.43,-132.82 1578.66,-139.71"/>
</a>
</g>
</g>
<!-- Node29 -->
<g id="Node000029" class="node">
<title>Node29</title>
<g id="a_Node000029"><a xlink:title=" ">
<polygon fill="#e0e0e0" stroke="#999999" points="1796.12,-134.5 1713.12,-134.5 1713.12,-115.5 1796.12,-115.5 1796.12,-134.5"/>
<text text-anchor="middle" x="1754.62" y="-122.5" font-family="Helvetica,sans-Serif" font-size="10.00">output_decl.h</text>
</a>
</g>
</g>
<!-- Node6&#45;&gt;Node29 -->
<g id="edge35_Node000006_Node000029" class="edge">
<title>Node6&#45;&gt;Node29</title>
<g id="a_edge35_Node000006_Node000029"><a xlink:title=" ">
<path fill="none" stroke="#63b8ff" d="M1218.74,-188.45C1309.25,-184.64 1525.42,-172.64 1703.62,-140 1708.05,-139.19 1712.67,-138.17 1717.23,-137.06"/>
<polygon fill="#63b8ff" stroke="#63b8ff" points="1718.23,-140.41 1727.03,-134.51 1716.47,-133.64 1718.23,-140.41"/>
</a>
</g>
</g>
<!-- Node30 -->
<g id="Node000030" class="node">
<title>Node30</title>
<g id="a_Node000030"><a xlink:title=" ">
<polygon fill="#e0e0e0" stroke="#999999" points="1930.62,-134.5 1814.62,-134.5 1814.62,-115.5 1930.62,-115.5 1930.62,-134.5"/>
<text text-anchor="middle" x="1872.62" y="-122.5" font-family="Helvetica,sans-Serif" font-size="10.00">comp_loaded_decl.h</text>
</a>
</g>
</g>
<!-- Node6&#45;&gt;Node30 -->
<g id="edge36_Node000006_Node000030" class="edge">
<title>Node6&#45;&gt;Node30</title>
<g id="a_edge36_Node000006_Node000030"><a xlink:title=" ">
<path fill="none" stroke="#63b8ff" d="M1218.91,-188.41C1321.22,-184.23 1585.81,-171.1 1804.62,-140 1811.35,-139.04 1818.42,-137.83 1825.35,-136.51"/>
<polygon fill="#63b8ff" stroke="#63b8ff" points="1826.22,-139.91 1835.35,-134.54 1824.86,-133.04 1826.22,-139.91"/>
</a>
</g>
</g>
<!-- Node31 -->
<g id="Node000031" class="node">
<title>Node31</title>
<g id="a_Node000031"><a xlink:title=" ">
<polygon fill="#e0e0e0" stroke="#999999" points="2026.62,-134.5 1948.62,-134.5 1948.62,-115.5 2026.62,-115.5 2026.62,-134.5"/>
<text text-anchor="middle" x="1987.62" y="-122.5" font-family="Helvetica,sans-Serif" font-size="10.00">comp_decl.h</text>
</a>
</g>
</g>
<!-- Node6&#45;&gt;Node31 -->
<g id="edge37_Node000006_Node000031" class="edge">
<title>Node6&#45;&gt;Node31</title>
<g id="a_edge37_Node000006_Node000031"><a xlink:title=" ">
<path fill="none" stroke="#63b8ff" d="M1218.67,-190.46C1335.56,-190.99 1668.32,-187.85 1939.62,-140 1943.8,-139.26 1948.14,-138.29 1952.42,-137.21"/>
<polygon fill="#63b8ff" stroke="#63b8ff" points="1953.48,-140.55 1962.2,-134.53 1951.63,-133.8 1953.48,-140.55"/>
</a>
</g>
</g>
<!-- Node32 -->
<g id="Node000032" class="node">
<title>Node32</title>
<g id="a_Node000032"><a xlink:title=" ">
<polygon fill="#e0e0e0" stroke="#999999" points="295.62,-134.5 187.62,-134.5 187.62,-115.5 295.62,-115.5 295.62,-134.5"/>
<text text-anchor="middle" x="241.62" y="-122.5" font-family="Helvetica,sans-Serif" font-size="10.00">info_loaded_decl.h</text>
</a>
</g>
</g>
<!-- Node6&#45;&gt;Node32 -->
<g id="edge38_Node000006_Node000032" class="edge">
<title>Node6&#45;&gt;Node32</title>
<g id="a_edge38_Node000006_Node000032"><a xlink:title=" ">
<path fill="none" stroke="#63b8ff" d="M1145.66,-181.47C1137,-179.33 1127.49,-177.27 1118.62,-176 760.16,-124.56 663.62,-187.46 304.62,-140 298.2,-139.15 291.48,-137.97 284.9,-136.66"/>
<polygon fill="#63b8ff" stroke="#63b8ff" points="285.28,-133.16 274.77,-134.5 283.83,-140.01 285.28,-133.16"/>
</a>
</g>
</g>
<!-- Node33 -->
<g id="Node000033" class="node">
<title>Node33</title>
<g id="a_Node000033"><a xlink:title=" ">
<polygon fill="#e0e0e0" stroke="#999999" points="545.62,-134.5 405.62,-134.5 405.62,-115.5 545.62,-115.5 545.62,-134.5"/>
<text text-anchor="middle" x="475.62" y="-122.5" font-family="Helvetica,sans-Serif" font-size="10.00">device_mesh_info_decl.h</text>
</a>
</g>
</g>
<!-- Node6&#45;&gt;Node33 -->
<g id="edge39_Node000006_Node000033" class="edge">
<title>Node6&#45;&gt;Node33</title>
<g id="a_edge39_Node000006_Node000033"><a xlink:title=" ">
<path fill="none" stroke="#63b8ff" d="M1145.05,-181.44C1136.55,-179.35 1127.28,-177.33 1118.62,-176 870.35,-137.89 804,-169.96 554.62,-140 546.17,-138.98 537.25,-137.66 528.57,-136.22"/>
<polygon fill="#63b8ff" stroke="#63b8ff" points="528.98,-132.74 518.54,-134.5 527.8,-139.64 528.98,-132.74"/>
</a>
</g>
</g>
<!-- Node34 -->
<g id="Node000034" class="node">
<title>Node34</title>
<g id="a_Node000034"><a xlink:title=" ">
<polygon fill="#e0e0e0" stroke="#999999" points="641.12,-134.5 564.12,-134.5 564.12,-115.5 641.12,-115.5 641.12,-134.5"/>
<text text-anchor="middle" x="602.62" y="-122.5" font-family="Helvetica,sans-Serif" font-size="10.00">array_decl.h</text>
</a>
</g>
</g>
<!-- Node6&#45;&gt;Node34 -->
<g id="edge40_Node000006_Node000034" class="edge">
<title>Node6&#45;&gt;Node34</title>
<g id="a_edge40_Node000006_Node000034"><a xlink:title=" ">
<path fill="none" stroke="#63b8ff" d="M1144.74,-181.44C1136.33,-179.37 1127.17,-177.37 1118.62,-176 912.63,-143.01 855.85,-177.41 650.62,-140 646.49,-139.25 642.2,-138.28 637.97,-137.2"/>
<polygon fill="#63b8ff" stroke="#63b8ff" points="638.86,-133.82 628.29,-134.55 637.01,-140.57 638.86,-133.82"/>
</a>
</g>
</g>
<!-- Node35 -->
<g id="Node000035" class="node">
<title>Node35</title>
<g id="a_Node000035"><a xlink:title=" ">
<polygon fill="#e0e0e0" stroke="#999999" points="735.62,-134.5 659.62,-134.5 659.62,-115.5 735.62,-115.5 735.62,-134.5"/>
<text text-anchor="middle" x="697.62" y="-122.5" font-family="Helvetica,sans-Serif" font-size="10.00">input_decl.h</text>
</a>
</g>
</g>
<!-- Node6&#45;&gt;Node35 -->
<g id="edge41_Node000006_Node000035" class="edge">
<title>Node6&#45;&gt;Node35</title>
<g id="a_edge41_Node000006_Node000035"><a xlink:title=" ">
<path fill="none" stroke="#63b8ff" d="M1144.43,-181.48C1136.09,-179.44 1127.06,-177.43 1118.62,-176 953.99,-148.01 908.52,-171.99 744.62,-140 740.89,-139.27 737.03,-138.37 733.2,-137.38"/>
<polygon fill="#63b8ff" stroke="#63b8ff" points="733.82,-133.92 723.25,-134.61 731.95,-140.67 733.82,-133.92"/>
</a>
</g>
</g>
<!-- Node36 -->
<g id="Node000036" class="node">
<title>Node36</title>
<g id="a_Node000036"><a xlink:href="ac__helpers_8h.html" target="_top" xlink:title=" ">
<polygon fill="white" stroke="#666666" points="831.62,-134.5 753.62,-134.5 753.62,-115.5 831.62,-115.5 831.62,-134.5"/>
<text text-anchor="middle" x="792.62" y="-122.5" font-family="Helvetica,sans-Serif" font-size="10.00">ac_helpers.h</text>
</a>
</g>
</g>
<!-- Node6&#45;&gt;Node36 -->
<g id="edge42_Node000006_Node000036" class="edge">
<title>Node6&#45;&gt;Node36</title>
<g id="a_edge42_Node000006_Node000036"><a xlink:title=" ">
<path fill="none" stroke="#63b8ff" d="M1143.5,-181.44C1135.42,-179.48 1126.73,-177.52 1118.62,-176 996.15,-153.11 962.56,-165.52 840.62,-140 836.76,-139.19 832.76,-138.23 828.79,-137.2"/>
<polygon fill="#63b8ff" stroke="#63b8ff" points="829.66,-133.81 819.09,-134.52 827.8,-140.55 829.66,-133.81"/>
</a>
</g>
</g>
<!-- Node37 -->
<g id="Node000037" class="node">
<title>Node37</title>
<g id="a_Node000037"><a xlink:title=" ">
<polygon fill="#e0e0e0" stroke="#999999" points="967.62,-140 849.62,-140 849.62,-110 967.62,-110 967.62,-140"/>
<text text-anchor="start" x="857.62" y="-128" font-family="Helvetica,sans-Serif" font-size="10.00">scalar_reduce_buffer</text>
<text text-anchor="middle" x="908.62" y="-117" font-family="Helvetica,sans-Serif" font-size="10.00">_defs.h</text>
</a>
</g>
</g>
<!-- Node6&#45;&gt;Node37 -->
<g id="edge43_Node000006_Node000037" class="edge">
<title>Node6&#45;&gt;Node37</title>
<g id="a_edge43_Node000006_Node000037"><a xlink:title=" ">
<path fill="none" stroke="#63b8ff" d="M1140.96,-181.45C1133.59,-179.64 1125.85,-177.75 1118.62,-176 1071.67,-164.65 1018.77,-152.05 977.81,-142.34"/>
<polygon fill="#63b8ff" stroke="#63b8ff" points="978.47,-138.9 967.93,-140 976.86,-145.72 978.47,-138.9"/>
</a>
</g>
</g>
<!-- Node38 -->
<g id="Node000038" class="node">
<title>Node38</title>
<g id="a_Node000038"><a xlink:title=" ">
<polygon fill="#e0e0e0" stroke="#999999" points="1109.12,-140 986.12,-140 986.12,-110 1109.12,-110 1109.12,-140"/>
<text text-anchor="start" x="994.12" y="-128" font-family="Helvetica,sans-Serif" font-size="10.00">scalar_reduce_buffers</text>
<text text-anchor="middle" x="1047.62" y="-117" font-family="Helvetica,sans-Serif" font-size="10.00">_in_vba.h</text>
</a>
</g>
</g>
<!-- Node6&#45;&gt;Node38 -->
<g id="edge44_Node000006_Node000038" class="edge">
<title>Node6&#45;&gt;Node38</title>
<g id="a_edge44_Node000006_Node000038"><a xlink:title=" ">
<path fill="none" stroke="#63b8ff" d="M1158.35,-181.37C1139.6,-171.99 1109.06,-156.72 1084.8,-144.59"/>
<polygon fill="#63b8ff" stroke="#63b8ff" points="1086.36,-141.46 1075.85,-140.12 1083.23,-147.72 1086.36,-141.46"/>
</a>
</g>
</g>
<!-- Node9 -->
<g id="Node000009" class="node">
<title>Node9</title>
<g id="a_Node000009"><a xlink:title=" ">
<polygon fill="#e0e0e0" stroke="#999999" points="763.12,-19 650.12,-19 650.12,0 763.12,0 763.12,-19"/>
<text text-anchor="middle" x="706.62" y="-7" font-family="Helvetica,sans-Serif" font-size="10.00">cuda_runtime_api.h</text>
</a>
</g>
</g>
<!-- Node8&#45;&gt;Node9 -->
<g id="edge9_Node000008_Node000009" class="edge">
<title>Node8&#45;&gt;Node9</title>
<g id="a_edge9_Node000008_Node000009"><a xlink:title=" ">
<path fill="none" stroke="#63b8ff" d="M1086.48,-57.21C1008.41,-47.61 859.47,-29.3 773.1,-18.68"/>
<polygon fill="#63b8ff" stroke="#63b8ff" points="773.49,-15.2 763.14,-17.45 772.64,-22.15 773.49,-15.2"/>
</a>
</g>
</g>
<!-- Node10 -->
<g id="Node000010" class="node">
<title>Node10</title>
<g id="a_Node000010"><a xlink:title=" ">
<polygon fill="#e0e0e0" stroke="#999999" points="1175.62,-19 1099.62,-19 1099.62,0 1175.62,0 1175.62,-19"/>
<text text-anchor="middle" x="1137.62" y="-7" font-family="Helvetica,sans-Serif" font-size="10.00">cuda_fp16.h</text>
</a>
</g>
</g>
<!-- Node8&#45;&gt;Node10 -->
<g id="edge10_Node000008_Node000010" class="edge">
<title>Node8&#45;&gt;Node10</title>
<g id="a_edge10_Node000008_Node000010"><a xlink:title=" ">
<path fill="none" stroke="#63b8ff" d="M1137.62,-54.75C1137.62,-47.8 1137.62,-37.85 1137.62,-29.13"/>
<polygon fill="#63b8ff" stroke="#63b8ff" points="1141.12,-29.09 1137.62,-19.09 1134.12,-29.09 1141.12,-29.09"/>
</a>
</g>
</g>
<!-- Node12&#45;&gt;Node8 -->
<g id="edge14_Node000012_Node000008" class="edge">
<title>Node12&#45;&gt;Node8</title>
<g id="a_edge14_Node000012_Node000008"><a xlink:title=" ">
<path fill="none" stroke="#63b8ff" d="M375.18,-115.35C382.04,-113.26 389.55,-111.27 396.62,-110 662.19,-62.39 733.31,-90.48 1002.62,-74 1026.71,-72.53 1053.22,-70.87 1076.32,-69.41"/>
<polygon fill="#63b8ff" stroke="#63b8ff" points="1076.58,-72.9 1086.34,-68.77 1076.13,-65.91 1076.58,-72.9"/>
</a>
</g>
</g>
<!-- Node12&#45;&gt;Node9 -->
<g id="edge15_Node000012_Node000009" class="edge">
<title>Node12&#45;&gt;Node9</title>
<g id="a_edge15_Node000012_Node000009"><a xlink:title=" ">
<path fill="none" stroke="#63b8ff" d="M377.37,-115.47C440.39,-95.38 598.19,-45.07 670.01,-22.17"/>
<polygon fill="#63b8ff" stroke="#63b8ff" points="671.08,-25.5 679.55,-19.13 668.96,-18.83 671.08,-25.5"/>
</a>
</g>
</g>
<!-- Node12&#45;&gt;Node11 -->
<g id="edge17_Node000012_Node000011" class="edge">
<title>Node12&#45;&gt;Node11</title>
<g id="a_edge17_Node000012_Node000011"><a xlink:title=" ">
<path fill="none" stroke="#63b8ff" d="M375.2,-115.45C382.06,-113.36 389.56,-111.34 396.62,-110 489.66,-92.29 767.11,-75.39 888.58,-68.61"/>
<polygon fill="#63b8ff" stroke="#63b8ff" points="889,-72.1 898.79,-68.05 888.61,-65.11 889,-72.1"/>
</a>
</g>
</g>
<!-- Node12&#45;&gt;Node14 -->
<g id="edge13_Node000012_Node000014" class="edge">
<title>Node12&#45;&gt;Node14</title>
<g id="a_edge13_Node000012_Node000014"><a xlink:title=" ">
<path fill="none" stroke="#63b8ff" d="M326.77,-115.49C298.71,-105.49 251.94,-88.8 220.22,-77.49"/>
<polygon fill="#63b8ff" stroke="#63b8ff" points="221.09,-74.08 210.49,-74.02 218.74,-80.67 221.09,-74.08"/>
</a>
</g>
</g>
<!-- Node16 -->
<g id="Node000016" class="node">
<title>Node16</title>
<g id="a_Node000016"><a xlink:href="acreal_8h.html" target="_top" xlink:title=" ">
<polygon fill="white" stroke="#666666" points="1343.62,-19 1287.62,-19 1287.62,0 1343.62,0 1343.62,-19"/>
<text text-anchor="middle" x="1315.62" y="-7" font-family="Helvetica,sans-Serif" font-size="10.00">acreal.h</text>
</a>
</g>
</g>
<!-- Node12&#45;&gt;Node16 -->
<g id="edge16_Node000012_Node000016" class="edge">
<title>Node12&#45;&gt;Node16</title>
<g id="a_edge16_Node000012_Node000016"><a xlink:title=" ">
<path fill="none" stroke="#63b8ff" d="M375.71,-115.45C382.44,-113.41 389.75,-111.42 396.62,-110 569.87,-74.29 1126.26,-26.29 1277.41,-13.66"/>
<polygon fill="#63b8ff" stroke="#63b8ff" points="1277.91,-17.13 1287.59,-12.81 1277.33,-10.15 1277.91,-17.13"/>
</a>
</g>
</g>
<!-- Node18 -->
<g id="Node000018" class="node">
<title>Node18</title>
<g id="a_Node000018"><a xlink:href="host__datatypes_8h.html" target="_top" xlink:title=" ">
<polygon fill="white" stroke="#666666" points="1427.12,-74 1326.12,-74 1326.12,-55 1427.12,-55 1427.12,-74"/>
<text text-anchor="middle" x="1376.62" y="-62" font-family="Helvetica,sans-Serif" font-size="10.00">host_datatypes.h</text>
</a>
</g>
</g>
<!-- Node12&#45;&gt;Node18 -->
<g id="edge18_Node000012_Node000018" class="edge">
<title>Node12&#45;&gt;Node18</title>
<g id="a_edge18_Node000012_Node000018"><a xlink:title=" ">
<path fill="none" stroke="#63b8ff" d="M374.69,-115.43C381.68,-113.29 389.38,-111.24 396.62,-110 747.83,-49.65 841.64,-90.45 1197.62,-74 1236.91,-72.18 1281.04,-70.09 1315.66,-68.43"/>
<polygon fill="#63b8ff" stroke="#63b8ff" points="1316.26,-71.91 1326.08,-67.93 1315.93,-64.92 1316.26,-71.91"/>
</a>
</g>
</g>
<!-- Node18&#45;&gt;Node16 -->
<g id="edge19_Node000018_Node000016" class="edge">
<title>Node18&#45;&gt;Node16</title>
<g id="a_edge19_Node000018_Node000016"><a xlink:title=" ">
<path fill="none" stroke="#63b8ff" d="M1366.82,-54.98C1357.8,-47.15 1344.21,-35.34 1333.3,-25.86"/>
<polygon fill="#63b8ff" stroke="#63b8ff" points="1335.44,-23.09 1325.6,-19.17 1330.85,-28.37 1335.44,-23.09"/>
</a>
</g>
</g>
<!-- Node19 -->
<g id="Node000019" class="node">
<title>Node19</title>
<g id="a_Node000019"><a xlink:title=" ">
<polygon fill="#e0e0e0" stroke="#999999" points="1464.62,-19 1408.62,-19 1408.62,0 1464.62,0 1464.62,-19"/>
<text text-anchor="middle" x="1436.62" y="-7" font-family="Helvetica,sans-Serif" font-size="10.00">stddef.h</text>
</a>
</g>
</g>
<!-- Node18&#45;&gt;Node19 -->
<g id="edge20_Node000018_Node000019" class="edge">
<title>Node18&#45;&gt;Node19</title>
<g id="a_edge20_Node000018_Node000019"><a xlink:title=" ">
<path fill="none" stroke="#63b8ff" d="M1386.26,-54.98C1395.13,-47.15 1408.49,-35.34 1419.22,-25.86"/>
<polygon fill="#63b8ff" stroke="#63b8ff" points="1421.62,-28.41 1426.8,-19.17 1416.99,-23.17 1421.62,-28.41"/>
</a>
</g>
</g>
<!-- Node20&#45;&gt;Node5 -->
<g id="edge24_Node000020_Node000005" class="edge">
<title>Node20&#45;&gt;Node5</title>
<g id="a_edge24_Node000020_Node000005"><a xlink:title=" ">
<path fill="none" stroke="#63b8ff" d="M2086.49,-115.37C2101.62,-105.95 2126.08,-90.73 2144,-79.58"/>
<polygon fill="#63b8ff" stroke="#63b8ff" points="2146.05,-82.42 2152.69,-74.17 2142.35,-76.48 2146.05,-82.42"/>
</a>
</g>
</g>
<!-- Node20&#45;&gt;Node7 -->
<g id="edge26_Node000020_Node000007" class="edge">
<title>Node20&#45;&gt;Node7</title>
<g id="a_edge26_Node000020_Node000007"><a xlink:title=" ">
<path fill="none" stroke="#63b8ff" d="M2052.94,-115.49C2047.42,-113.4 2041.36,-111.37 2035.62,-110 1963.04,-92.71 1739.74,-74.65 1652.78,-68.08"/>
<polygon fill="#63b8ff" stroke="#63b8ff" points="1652.87,-64.58 1642.64,-67.32 1652.35,-71.56 1652.87,-64.58"/>
</a>
</g>
</g>
<!-- Node20&#45;&gt;Node8 -->
<g id="edge29_Node000020_Node000008" class="edge">
<title>Node20&#45;&gt;Node8</title>
<g id="a_edge29_Node000020_Node000008"><a xlink:title=" ">
<path fill="none" stroke="#63b8ff" d="M2053.37,-115.42C2047.75,-113.27 2041.53,-111.23 2035.62,-110 2025.36,-107.86 1399.58,-77.96 1198.86,-68.41"/>
<polygon fill="#63b8ff" stroke="#63b8ff" points="1198.94,-64.91 1188.78,-67.93 1198.6,-71.9 1198.94,-64.91"/>
</a>
</g>
</g>
<!-- Node20&#45;&gt;Node18 -->
<g id="edge23_Node000020_Node000018" class="edge">
<title>Node20&#45;&gt;Node18</title>
<g id="a_edge23_Node000020_Node000018"><a xlink:title=" ">
<path fill="none" stroke="#63b8ff" d="M2053.36,-115.49C2047.74,-113.34 2041.52,-111.29 2035.62,-110 1978.15,-97.48 1589.54,-76.45 1437.46,-68.59"/>
<polygon fill="#63b8ff" stroke="#63b8ff" points="1437.53,-65.09 1427.36,-68.07 1437.17,-72.08 1437.53,-65.09"/>
</a>
</g>
</g>
<!-- Node20&#45;&gt;Node19 -->
<g id="edge22_Node000020_Node000019" class="edge">
<title>Node20&#45;&gt;Node19</title>
<g id="a_edge22_Node000020_Node000019"><a xlink:title=" ">
<path fill="none" stroke="#63b8ff" d="M2052.11,-115.42C2046.81,-113.43 2041.05,-111.47 2035.62,-110 1827.87,-54.03 1570.64,-24.06 1474.88,-14.21"/>
<polygon fill="#63b8ff" stroke="#63b8ff" points="1475.1,-10.71 1464.8,-13.19 1474.4,-17.68 1475.1,-10.71"/>
</a>
</g>
</g>
<!-- Node21 -->
<g id="Node000021" class="node">
<title>Node21</title>
<g id="a_Node000021"><a xlink:title=" ">
<polygon fill="#e0e0e0" stroke="#999999" points="1980.12,-74 1927.12,-74 1927.12,-55 1980.12,-55 1980.12,-74"/>
<text text-anchor="middle" x="1953.62" y="-62" font-family="Helvetica,sans-Serif" font-size="10.00">stdint.h</text>
</a>
</g>
</g>
<!-- Node20&#45;&gt;Node21 -->
<g id="edge25_Node000020_Node000021" class="edge">
<title>Node20&#45;&gt;Node21</title>
<g id="a_edge25_Node000020_Node000021"><a xlink:title=" ">
<path fill="none" stroke="#63b8ff" d="M2055.31,-115.49C2035.57,-105.79 2003.06,-89.81 1980.12,-78.53"/>
<polygon fill="#63b8ff" stroke="#63b8ff" points="1981.46,-75.29 1970.94,-74.02 1978.37,-81.57 1981.46,-75.29"/>
</a>
</g>
</g>
<!-- Node22 -->
<g id="Node000022" class="node">
<title>Node22</title>
<g id="a_Node000022"><a xlink:title=" ">
<polygon fill="#e0e0e0" stroke="#999999" points="2051.12,-74 1998.12,-74 1998.12,-55 2051.12,-55 2051.12,-74"/>
<text text-anchor="middle" x="2024.62" y="-62" font-family="Helvetica,sans-Serif" font-size="10.00">stdlib.h</text>
</a>
</g>
</g>
<!-- Node20&#45;&gt;Node22 -->
<g id="edge27_Node000020_Node000022" class="edge">
<title>Node20&#45;&gt;Node22</title>
<g id="a_edge27_Node000020_Node000022"><a xlink:title=" ">
<path fill="none" stroke="#63b8ff" d="M2065.53,-115.37C2058.37,-106.64 2047.12,-92.93 2038.23,-82.09"/>
<polygon fill="#63b8ff" stroke="#63b8ff" points="2040.78,-79.68 2031.73,-74.17 2035.37,-84.12 2040.78,-79.68"/>
</a>
</g>
</g>
<!-- Node23 -->
<g id="Node000023" class="node">
<title>Node23</title>
<g id="a_Node000023"><a xlink:title=" ">
<polygon fill="#e0e0e0" stroke="#999999" points="2117.62,-74 2069.62,-74 2069.62,-55 2117.62,-55 2117.62,-74"/>
<text text-anchor="middle" x="2093.62" y="-62" font-family="Helvetica,sans-Serif" font-size="10.00">time.h</text>
</a>
</g>
</g>
<!-- Node20&#45;&gt;Node23 -->
<g id="edge28_Node000020_Node000023" class="edge">
<title>Node20&#45;&gt;Node23</title>
<g id="a_edge28_Node000020_Node000023"><a xlink:title=" ">
<path fill="none" stroke="#63b8ff" d="M2075.72,-115.37C2078.69,-107.07 2083.29,-94.28 2087.08,-83.72"/>
<polygon fill="#63b8ff" stroke="#63b8ff" points="2090.42,-84.76 2090.51,-74.17 2083.83,-82.4 2090.42,-84.76"/>
</a>
</g>
</g>
<!-- Node47 -->
<g id="Node000047" class="node">
<title>Node47</title>
<g id="a_Node000047"><a xlink:title=" ">
<polygon fill="#e0e0e0" stroke="#999999" points="927.12,-206 808.12,-206 808.12,-176 927.12,-176 927.12,-206"/>
<text text-anchor="start" x="816.12" y="-194" font-family="Helvetica,sans-Serif" font-size="10.00">device_load_uniform</text>
<text text-anchor="middle" x="867.62" y="-183" font-family="Helvetica,sans-Serif" font-size="10.00">_decl.h</text>
</a>
</g>
</g>
<!-- Node46&#45;&gt;Node47 -->
<g id="edge50_Node000046_Node000047" class="edge">
<title>Node46&#45;&gt;Node47</title>
<g id="a_edge50_Node000046_Node000047"><a xlink:title=" ">
<path fill="none" stroke="#63b8ff" d="M902.57,-241.87C897.52,-234.67 890.09,-224.07 883.38,-214.49"/>
<polygon fill="#63b8ff" stroke="#63b8ff" points="886.11,-212.29 877.51,-206.11 880.38,-216.31 886.11,-212.29"/>
</a>
</g>
</g>
<!-- Node48 -->
<g id="Node000048" class="node">
<title>Node48</title>
<g id="a_Node000048"><a xlink:title=" ">
<polygon fill="#e0e0e0" stroke="#999999" points="789.62,-206 667.62,-206 667.62,-176 789.62,-176 789.62,-206"/>
<text text-anchor="start" x="675.62" y="-194" font-family="Helvetica,sans-Serif" font-size="10.00">device_store_uniform</text>
<text text-anchor="middle" x="728.62" y="-183" font-family="Helvetica,sans-Serif" font-size="10.00">_decl.h</text>
</a>
</g>
</g>
<!-- Node46&#45;&gt;Node48 -->
<g id="edge51_Node000046_Node000048" class="edge">
<title>Node46&#45;&gt;Node48</title>
<g id="a_edge51_Node000046_Node000048"><a xlink:title=" ">
<path fill="none" stroke="#63b8ff" d="M882.44,-241.99C856.09,-233.43 814.68,-219.97 781.47,-209.18"/>
<polygon fill="#63b8ff" stroke="#63b8ff" points="782.48,-205.83 771.89,-206.06 780.32,-212.48 782.48,-205.83"/>
</a>
</g>
</g>
</g>
</svg>
