<?xml version="1.0" encoding="UTF-8" standalone="no"?>
<!DOCTYPE svg PUBLIC "-//W3C//DTD SVG 1.1//EN"
 "http://www.w3.org/Graphics/SVG/1.1/DTD/svg11.dtd">
<!-- Generated by graphviz version 2.43.0 (0)
 -->
<!-- Title: src/utils/verification.cc Pages: 1 -->
<svg width="2264pt" height="434pt"
 viewBox="0.00 0.00 2264.04 434.00" xmlns="http://www.w3.org/2000/svg" xmlns:xlink="http://www.w3.org/1999/xlink">
<g id="graph0" class="graph" transform="scale(1 1) rotate(0) translate(4 430)">
<title>src/utils/verification.cc</title>
<!-- Node1 -->
<g id="Node000001" class="node">
<title>Node1</title>
<g id="a_Node000001"><a xlink:title=" ">
<polygon fill="#999999" stroke="#666666" points="329.99,-426 203.99,-426 203.99,-407 329.99,-407 329.99,-426"/>
<text text-anchor="middle" x="266.99" y="-414" font-family="Helvetica,sans-Serif" font-size="10.00">src/utils/verification.cc</text>
</a>
</g>
</g>
<!-- Node2 -->
<g id="Node000002" class="node">
<title>Node2</title>
<g id="a_Node000002"><a xlink:href="astaroth__utils_8h.html" target="_top" xlink:title="Functions for loading and updating AcMeshInfo.">
<polygon fill="white" stroke="#666666" points="942.99,-371 850.99,-371 850.99,-352 942.99,-352 942.99,-371"/>
<text text-anchor="middle" x="896.99" y="-359" font-family="Helvetica,sans-Serif" font-size="10.00">astaroth_utils.h</text>
</a>
</g>
</g>
<!-- Node1&#45;&gt;Node2 -->
<g id="edge1_Node000001_Node000002" class="edge">
<title>Node1&#45;&gt;Node2</title>
<g id="a_edge1_Node000001_Node000002"><a xlink:title=" ">
<path fill="none" stroke="#63b8ff" d="M329.99,-410.2C452.96,-399.86 723.16,-377.12 840.62,-367.24"/>
<polygon fill="#63b8ff" stroke="#63b8ff" points="841.16,-370.71 850.83,-366.38 840.57,-363.73 841.16,-370.71"/>
</a>
</g>
</g>
<!-- Node5 -->
<g id="Node000005" class="node">
<title>Node5</title>
<g id="a_Node000005"><a xlink:title=" ">
<polygon fill="#e0e0e0" stroke="#999999" points="286.99,-74 224.99,-74 224.99,-55 286.99,-55 286.99,-74"/>
<text text-anchor="middle" x="255.99" y="-62" font-family="Helvetica,sans-Serif" font-size="10.00">stdbool.h</text>
</a>
</g>
</g>
<!-- Node1&#45;&gt;Node5 -->
<g id="edge63_Node000001_Node000005" class="edge">
<title>Node1&#45;&gt;Node5</title>
<g id="a_edge63_Node000001_Node000005"><a xlink:title=" ">
<path fill="none" stroke="#63b8ff" d="M250.54,-406.97C222.86,-391.3 169.99,-355.13 169.99,-307.5 169.99,-307.5 169.99,-307.5 169.99,-190 169.99,-143.5 211.1,-101.79 236.47,-80.47"/>
<polygon fill="#63b8ff" stroke="#63b8ff" points="238.83,-83.06 244.39,-74.04 234.42,-77.63 238.83,-83.06"/>
</a>
</g>
</g>
<!-- Node14 -->
<g id="Node000014" class="node">
<title>Node14</title>
<g id="a_Node000014"><a xlink:title=" ">
<polygon fill="#e0e0e0" stroke="#999999" points="2209.49,-74 2158.49,-74 2158.49,-55 2209.49,-55 2209.49,-74"/>
<text text-anchor="middle" x="2183.99" y="-62" font-family="Helvetica,sans-Serif" font-size="10.00">math.h</text>
</a>
</g>
</g>
<!-- Node1&#45;&gt;Node14 -->
<g id="edge62_Node000001_Node000014" class="edge">
<title>Node1&#45;&gt;Node14</title>
<g id="a_edge62_Node000001_Node000014"><a xlink:title=" ">
<path fill="none" stroke="#63b8ff" d="M330.08,-415.45C668.76,-414.78 2255.99,-406.36 2255.99,-307.5 2255.99,-307.5 2255.99,-307.5 2255.99,-190 2255.99,-153.46 2256.18,-141.1 2236.99,-110 2229.6,-98.02 2217.87,-87.68 2207.32,-79.99"/>
<polygon fill="#63b8ff" stroke="#63b8ff" points="2209.09,-76.96 2198.86,-74.18 2205.12,-82.73 2209.09,-76.96"/>
</a>
</g>
</g>
<!-- Node20 -->
<g id="Node000020" class="node">
<title>Node20</title>
<g id="a_Node000020"><a xlink:href="errchk_8h.html" target="_top" xlink:title="Brief info.">
<polygon fill="white" stroke="#666666" points="141.99,-134.5 85.99,-134.5 85.99,-115.5 141.99,-115.5 141.99,-134.5"/>
<text text-anchor="middle" x="113.99" y="-122.5" font-family="Helvetica,sans-Serif" font-size="10.00">errchk.h</text>
</a>
</g>
</g>
<!-- Node1&#45;&gt;Node20 -->
<g id="edge65_Node000001_Node000020" class="edge">
<title>Node1&#45;&gt;Node20</title>
<g id="a_edge65_Node000001_Node000020"><a xlink:title=" ">
<path fill="none" stroke="#63b8ff" d="M227.33,-406.95C204.3,-400.32 175.99,-389.13 155.99,-371 132.43,-349.64 122.99,-339.31 122.99,-307.5 122.99,-307.5 122.99,-307.5 122.99,-250.5 122.99,-212.9 118.86,-169.07 116.19,-144.73"/>
<polygon fill="#63b8ff" stroke="#63b8ff" points="119.66,-144.28 115.06,-134.74 112.71,-145.07 119.66,-144.28"/>
</a>
</g>
</g>
<!-- Node55 -->
<g id="Node000055" class="node">
<title>Node55</title>
<g id="a_Node000055"><a xlink:title=" ">
<polygon fill="#e0e0e0" stroke="#999999" points="293.49,-261 240.49,-261 240.49,-242 293.49,-242 293.49,-261"/>
<text text-anchor="middle" x="266.99" y="-249" font-family="Helvetica,sans-Serif" font-size="10.00">string.h</text>
</a>
</g>
</g>
<!-- Node1&#45;&gt;Node55 -->
<g id="edge64_Node000001_Node000055" class="edge">
<title>Node1&#45;&gt;Node55</title>
<g id="a_edge64_Node000001_Node000055"><a xlink:title=" ">
<path fill="none" stroke="#63b8ff" d="M266.99,-406.74C266.99,-381.31 266.99,-307.08 266.99,-271.69"/>
<polygon fill="#63b8ff" stroke="#63b8ff" points="270.49,-271.31 266.99,-261.31 263.49,-271.31 270.49,-271.31"/>
</a>
</g>
</g>
<!-- Node3 -->
<g id="Node000003" class="node">
<title>Node3</title>
<g id="a_Node000003"><a xlink:href="astaroth_8h.html" target="_top" xlink:title=" ">
<polygon fill="white" stroke="#666666" points="889.99,-316 823.99,-316 823.99,-297 889.99,-297 889.99,-316"/>
<text text-anchor="middle" x="856.99" y="-304" font-family="Helvetica,sans-Serif" font-size="10.00">astaroth.h</text>
</a>
</g>
</g>
<!-- Node2&#45;&gt;Node3 -->
<g id="edge2_Node000002_Node000003" class="edge">
<title>Node2&#45;&gt;Node3</title>
<g id="a_edge2_Node000002_Node000003"><a xlink:title=" ">
<path fill="none" stroke="#63b8ff" d="M890.39,-351.75C884.74,-344.26 876.45,-333.28 869.54,-324.13"/>
<polygon fill="#63b8ff" stroke="#63b8ff" points="872.29,-321.96 863.47,-316.09 866.71,-326.18 872.29,-321.96"/>
</a>
</g>
</g>
<!-- Node56 -->
<g id="Node000056" class="node">
<title>Node56</title>
<g id="a_Node000056"><a xlink:title=" ">
<polygon fill="#e0e0e0" stroke="#999999" points="963.99,-316 907.99,-316 907.99,-297 963.99,-297 963.99,-316"/>
<text text-anchor="middle" x="935.99" y="-304" font-family="Helvetica,sans-Serif" font-size="10.00">stdarg.h</text>
</a>
</g>
</g>
<!-- Node2&#45;&gt;Node56 -->
<g id="edge60_Node000002_Node000056" class="edge">
<title>Node2&#45;&gt;Node56</title>
<g id="a_edge60_Node000002_Node000056"><a xlink:title=" ">
<path fill="none" stroke="#63b8ff" d="M903.43,-351.75C908.88,-344.34 916.86,-333.5 923.55,-324.41"/>
<polygon fill="#63b8ff" stroke="#63b8ff" points="926.56,-326.22 929.67,-316.09 920.93,-322.07 926.56,-326.22"/>
</a>
</g>
</g>
<!-- Node57 -->
<g id="Node000057" class="node">
<title>Node57</title>
<g id="a_Node000057"><a xlink:href="astaroth__lib_8h.html" target="_top" xlink:title=" ">
<polygon fill="white" stroke="#666666" points="1065.49,-316 982.49,-316 982.49,-297 1065.49,-297 1065.49,-316"/>
<text text-anchor="middle" x="1023.99" y="-304" font-family="Helvetica,sans-Serif" font-size="10.00">astaroth_lib.h</text>
</a>
</g>
</g>
<!-- Node2&#45;&gt;Node57 -->
<g id="edge61_Node000002_Node000057" class="edge">
<title>Node2&#45;&gt;Node57</title>
<g id="a_edge61_Node000002_Node000057"><a xlink:title=" ">
<path fill="none" stroke="#63b8ff" d="M917.4,-351.98C938.01,-343.38 970.1,-329.99 993.69,-320.15"/>
<polygon fill="#63b8ff" stroke="#63b8ff" points="995.34,-323.25 1003.22,-316.17 992.64,-316.79 995.34,-323.25"/>
</a>
</g>
</g>
<!-- Node4 -->
<g id="Node000004" class="node">
<title>Node4</title>
<g id="a_Node000004"><a xlink:href="astaroth__base_8h.html" target="_top" xlink:title=" ">
<polygon fill="white" stroke="#666666" points="406.49,-261 311.49,-261 311.49,-242 406.49,-242 406.49,-261"/>
<text text-anchor="middle" x="358.99" y="-249" font-family="Helvetica,sans-Serif" font-size="10.00">astaroth_base.h</text>
</a>
</g>
</g>
<!-- Node3&#45;&gt;Node4 -->
<g id="edge3_Node000003_Node000004" class="edge">
<title>Node3&#45;&gt;Node4</title>
<g id="a_edge3_Node000003_Node000004"><a xlink:title=" ">
<path fill="none" stroke="#63b8ff" d="M823.74,-302.69C751.65,-296.47 575.37,-280.65 416.51,-261"/>
<polygon fill="#63b8ff" stroke="#63b8ff" points="416.91,-257.53 406.55,-259.77 416.05,-264.47 416.91,-257.53"/>
</a>
</g>
</g>
<!-- Node44 -->
<g id="Node000044" class="node">
<title>Node44</title>
<g id="a_Node000044"><a xlink:href="astaroth__grid_8h.html" target="_top" xlink:title=" ">
<polygon fill="white" stroke="#666666" points="1454.99,-261 1364.99,-261 1364.99,-242 1454.99,-242 1454.99,-261"/>
<text text-anchor="middle" x="1409.99" y="-249" font-family="Helvetica,sans-Serif" font-size="10.00">astaroth_grid.h</text>
</a>
</g>
</g>
<!-- Node3&#45;&gt;Node44 -->
<g id="edge48_Node000003_Node000044" class="edge">
<title>Node3&#45;&gt;Node44</title>
<g id="a_edge48_Node000003_Node000044"><a xlink:title=" ">
<path fill="none" stroke="#63b8ff" d="M890.4,-298.36C893.3,-297.86 896.19,-297.39 898.99,-297 1097.51,-269.2 1151.91,-284.35 1354.86,-261.03"/>
<polygon fill="#63b8ff" stroke="#63b8ff" points="1355.42,-264.49 1364.95,-259.86 1354.61,-257.54 1355.42,-264.49"/>
</a>
</g>
</g>
<!-- Node45 -->
<g id="Node000045" class="node">
<title>Node45</title>
<g id="a_Node000045"><a xlink:href="astaroth__node_8h.html" target="_top" xlink:title=" ">
<polygon fill="white" stroke="#666666" points="1568.49,-261 1473.49,-261 1473.49,-242 1568.49,-242 1568.49,-261"/>
<text text-anchor="middle" x="1520.99" y="-249" font-family="Helvetica,sans-Serif" font-size="10.00">astaroth_node.h</text>
</a>
</g>
</g>
<!-- Node3&#45;&gt;Node45 -->
<g id="edge49_Node000003_Node000045" class="edge">
<title>Node3&#45;&gt;Node45</title>
<g id="a_edge49_Node000003_Node000045"><a xlink:title=" ">
<path fill="none" stroke="#63b8ff" d="M890.39,-298.31C893.29,-297.82 896.19,-297.37 898.99,-297 1145.15,-264.4 1212.02,-286.97 1463.28,-260.97"/>
<polygon fill="#63b8ff" stroke="#63b8ff" points="1463.87,-264.42 1473.44,-259.9 1463.13,-257.46 1463.87,-264.42"/>
</a>
</g>
</g>
<!-- Node46 -->
<g id="Node000046" class="node">
<title>Node46</title>
<g id="a_Node000046"><a xlink:href="astaroth__device_8h.html" target="_top" xlink:title=" ">
<polygon fill="white" stroke="#666666" points="1690.99,-261 1586.99,-261 1586.99,-242 1690.99,-242 1690.99,-261"/>
<text text-anchor="middle" x="1638.99" y="-249" font-family="Helvetica,sans-Serif" font-size="10.00">astaroth_device.h</text>
</a>
</g>
</g>
<!-- Node3&#45;&gt;Node46 -->
<g id="edge50_Node000003_Node000046" class="edge">
<title>Node3&#45;&gt;Node46</title>
<g id="a_edge50_Node000003_Node000046"><a xlink:title=" ">
<path fill="none" stroke="#63b8ff" d="M890.39,-298.28C893.29,-297.79 896.19,-297.36 898.99,-297 1195.42,-259.35 1275.39,-289.19 1576.44,-261.06"/>
<polygon fill="#63b8ff" stroke="#63b8ff" points="1577.16,-264.5 1586.78,-260.07 1576.5,-257.53 1577.16,-264.5"/>
</a>
</g>
</g>
<!-- Node49 -->
<g id="Node000049" class="node">
<title>Node49</title>
<g id="a_Node000049"><a xlink:href="astaroth__legacy_8h.html" target="_top" xlink:title=" ">
<polygon fill="white" stroke="#666666" points="526.99,-261 424.99,-261 424.99,-242 526.99,-242 526.99,-261"/>
<text text-anchor="middle" x="475.99" y="-249" font-family="Helvetica,sans-Serif" font-size="10.00">astaroth_legacy.h</text>
</a>
</g>
</g>
<!-- Node3&#45;&gt;Node49 -->
<g id="edge53_Node000003_Node000049" class="edge">
<title>Node3&#45;&gt;Node49</title>
<g id="a_edge53_Node000003_Node000049"><a xlink:title=" ">
<path fill="none" stroke="#63b8ff" d="M823.82,-300.89C767.42,-293.05 648.92,-276.58 537.33,-261.05"/>
<polygon fill="#63b8ff" stroke="#63b8ff" points="537.63,-257.56 527.25,-259.64 536.67,-264.49 537.63,-257.56"/>
</a>
</g>
</g>
<!-- Node50 -->
<g id="Node000050" class="node">
<title>Node50</title>
<g id="a_Node000050"><a xlink:title=" ">
<polygon fill="#e0e0e0" stroke="#999999" points="684.49,-261 545.49,-261 545.49,-242 684.49,-242 684.49,-261"/>
<text text-anchor="middle" x="614.99" y="-249" font-family="Helvetica,sans-Serif" font-size="10.00">device_set_input_decls.h</text>
</a>
</g>
</g>
<!-- Node3&#45;&gt;Node50 -->
<g id="edge54_Node000003_Node000050" class="edge">
<title>Node3&#45;&gt;Node50</title>
<g id="a_edge54_Node000003_Node000050"><a xlink:title=" ">
<path fill="none" stroke="#63b8ff" d="M823.85,-298.24C782.52,-289.19 711.51,-273.64 663.92,-263.22"/>
<polygon fill="#63b8ff" stroke="#63b8ff" points="664.65,-259.79 654.14,-261.07 663.16,-266.63 664.65,-259.79"/>
</a>
</g>
</g>
<!-- Node51 -->
<g id="Node000051" class="node">
<title>Node51</title>
<g id="a_Node000051"><a xlink:title=" ">
<polygon fill="#e0e0e0" stroke="#999999" points="848.99,-261 702.99,-261 702.99,-242 848.99,-242 848.99,-261"/>
<text text-anchor="middle" x="775.99" y="-249" font-family="Helvetica,sans-Serif" font-size="10.00">device_get_output_decls.h</text>
</a>
</g>
</g>
<!-- Node3&#45;&gt;Node51 -->
<g id="edge55_Node000003_Node000051" class="edge">
<title>Node3&#45;&gt;Node51</title>
<g id="a_edge55_Node000003_Node000051"><a xlink:title=" ">
<path fill="none" stroke="#63b8ff" d="M843.98,-296.98C831.53,-288.84 812.54,-276.41 797.78,-266.76"/>
<polygon fill="#63b8ff" stroke="#63b8ff" points="799.53,-263.72 789.24,-261.17 795.69,-269.57 799.53,-263.72"/>
</a>
</g>
</g>
<!-- Node52 -->
<g id="Node000052" class="node">
<title>Node52</title>
<g id="a_Node000052"><a xlink:title=" ">
<polygon fill="#e0e0e0" stroke="#999999" points="1006.99,-261 866.99,-261 866.99,-242 1006.99,-242 1006.99,-261"/>
<text text-anchor="middle" x="936.99" y="-249" font-family="Helvetica,sans-Serif" font-size="10.00">device_get_input_decls.h</text>
</a>
</g>
</g>
<!-- Node3&#45;&gt;Node52 -->
<g id="edge56_Node000003_Node000052" class="edge">
<title>Node3&#45;&gt;Node52</title>
<g id="a_edge56_Node000003_Node000052"><a xlink:title=" ">
<path fill="none" stroke="#63b8ff" d="M869.85,-296.98C882.14,-288.84 900.9,-276.41 915.47,-266.76"/>
<polygon fill="#63b8ff" stroke="#63b8ff" points="917.5,-269.61 923.91,-261.17 913.64,-263.78 917.5,-269.61"/>
</a>
</g>
</g>
<!-- Node53 -->
<g id="Node000053" class="node">
<title>Node53</title>
<g id="a_Node000053"><a xlink:title=" ">
<polygon fill="#e0e0e0" stroke="#999999" points="1154.99,-261 1024.99,-261 1024.99,-242 1154.99,-242 1154.99,-261"/>
<text text-anchor="middle" x="1089.99" y="-249" font-family="Helvetica,sans-Serif" font-size="10.00">get_vtxbufs_declares.h</text>
</a>
</g>
</g>
<!-- Node3&#45;&gt;Node53 -->
<g id="edge57_Node000003_Node000053" class="edge">
<title>Node3&#45;&gt;Node53</title>
<g id="a_edge57_Node000003_Node000053"><a xlink:title=" ">
<path fill="none" stroke="#63b8ff" d="M890.38,-297.91C930.27,-288.83 997.29,-273.59 1042.55,-263.29"/>
<polygon fill="#63b8ff" stroke="#63b8ff" points="1043.45,-266.68 1052.43,-261.05 1041.9,-259.85 1043.45,-266.68"/>
</a>
</g>
</g>
<!-- Node54 -->
<g id="Node000054" class="node">
<title>Node54</title>
<g id="a_Node000054"><a xlink:href="astaroth__runtime__compilation_8h.html" target="_top" xlink:title=" ">
<polygon fill="white" stroke="#666666" points="1346.49,-261 1173.49,-261 1173.49,-242 1346.49,-242 1346.49,-261"/>
<text text-anchor="middle" x="1259.99" y="-249" font-family="Helvetica,sans-Serif" font-size="10.00">astaroth_runtime_compilation.h</text>
</a>
</g>
</g>
<!-- Node3&#45;&gt;Node54 -->
<g id="edge58_Node000003_Node000054" class="edge">
<title>Node3&#45;&gt;Node54</title>
<g id="a_edge58_Node000003_Node000054"><a xlink:title=" ">
<path fill="none" stroke="#63b8ff" d="M890.42,-298.49C893.31,-297.96 896.2,-297.45 898.99,-297 989.18,-282.34 1092.74,-270.03 1165.75,-262.11"/>
<polygon fill="#63b8ff" stroke="#63b8ff" points="1166.28,-265.57 1175.85,-261.02 1165.53,-258.61 1166.28,-265.57"/>
</a>
</g>
</g>
<!-- Node3&#45;&gt;Node55 -->
<g id="edge59_Node000003_Node000055" class="edge">
<title>Node3&#45;&gt;Node55</title>
<g id="a_edge59_Node000003_Node000055"><a xlink:title=" ">
<path fill="none" stroke="#63b8ff" d="M823.69,-304.58C738.65,-301.87 506.51,-292.13 303.59,-260.82"/>
<polygon fill="#63b8ff" stroke="#63b8ff" points="304.06,-257.35 293.64,-259.27 302.98,-264.27 304.06,-257.35"/>
</a>
</g>
</g>
<!-- Node4&#45;&gt;Node5 -->
<g id="edge4_Node000004_Node000005" class="edge">
<title>Node4&#45;&gt;Node5</title>
<g id="a_edge4_Node000004_Node000005"><a xlink:title=" ">
<path fill="none" stroke="#63b8ff" d="M340.55,-241.78C310.17,-226.26 250.64,-190.64 226.99,-140 217.96,-120.66 230.25,-97.66 241.5,-82.39"/>
<polygon fill="#63b8ff" stroke="#63b8ff" points="244.38,-84.39 247.84,-74.37 238.89,-80.05 244.38,-84.39"/>
</a>
</g>
</g>
<!-- Node6 -->
<g id="Node000006" class="node">
<title>Node6</title>
<g id="a_Node000006"><a xlink:href="acc__runtime_8h.html" target="_top" xlink:title=" ">
<polygon fill="#fff0f0" stroke="red" points="1224.99,-200.5 1138.99,-200.5 1138.99,-181.5 1224.99,-181.5 1224.99,-200.5"/>
<text text-anchor="middle" x="1181.99" y="-188.5" font-family="Helvetica,sans-Serif" font-size="10.00">acc_runtime.h</text>
</a>
</g>
</g>
<!-- Node4&#45;&gt;Node6 -->
<g id="edge5_Node000004_Node000006" class="edge">
<title>Node4&#45;&gt;Node6</title>
<g id="a_edge5_Node000004_Node000006"><a xlink:title=" ">
<path fill="none" stroke="#63b8ff" d="M406.54,-243.11C409.74,-242.7 412.91,-242.33 415.99,-242 682.79,-213.45 1003.74,-198.88 1128.63,-193.96"/>
<polygon fill="#63b8ff" stroke="#63b8ff" points="1128.84,-197.45 1138.69,-193.57 1128.56,-190.46 1128.84,-197.45"/>
</a>
</g>
</g>
<!-- Node26 -->
<g id="Node000026" class="node">
<title>Node26</title>
<g id="a_Node000026"><a xlink:title=" ">
<polygon fill="#e0e0e0" stroke="#999999" points="375.49,-134.5 236.49,-134.5 236.49,-115.5 375.49,-115.5 375.49,-134.5"/>
<text text-anchor="middle" x="305.99" y="-122.5" font-family="Helvetica,sans-Serif" font-size="10.00">user_built&#45;in_constants.h</text>
</a>
</g>
</g>
<!-- Node4&#45;&gt;Node26 -->
<g id="edge46_Node000004_Node000026" class="edge">
<title>Node4&#45;&gt;Node26</title>
<g id="a_edge46_Node000004_Node000026"><a xlink:title=" ">
<path fill="none" stroke="#63b8ff" d="M355.35,-241.94C346.8,-221.86 325.31,-171.37 313.7,-144.12"/>
<polygon fill="#63b8ff" stroke="#63b8ff" points="316.8,-142.45 309.66,-134.62 310.36,-145.19 316.8,-142.45"/>
</a>
</g>
</g>
<!-- Node40 -->
<g id="Node000040" class="node">
<title>Node40</title>
<g id="a_Node000040"><a xlink:href="func__define_8h.html" target="_top" xlink:title=" ">
<polygon fill="white" stroke="#666666" points="2227.99,-134.5 2145.99,-134.5 2145.99,-115.5 2227.99,-115.5 2227.99,-134.5"/>
<text text-anchor="middle" x="2186.99" y="-122.5" font-family="Helvetica,sans-Serif" font-size="10.00">func_define.h</text>
</a>
</g>
</g>
<!-- Node4&#45;&gt;Node40 -->
<g id="edge45_Node000004_Node000040" class="edge">
<title>Node4&#45;&gt;Node40</title>
<g id="a_edge45_Node000004_Node000040"><a xlink:title=" ">
<path fill="none" stroke="#63b8ff" d="M406.53,-243.03C409.73,-242.65 412.9,-242.3 415.99,-242 597.11,-224.56 1063.06,-268.36 1233.99,-206 1254.54,-198.5 1252.44,-183.47 1272.99,-176 1453.6,-110.35 1947.2,-170.11 2136.99,-140 2141.52,-139.28 2146.23,-138.3 2150.86,-137.18"/>
<polygon fill="#63b8ff" stroke="#63b8ff" points="2152,-140.5 2160.78,-134.57 2150.22,-133.73 2152,-140.5"/>
</a>
</g>
</g>
<!-- Node43 -->
<g id="Node000043" class="node">
<title>Node43</title>
<g id="a_Node000043"><a xlink:title=" ">
<polygon fill="#e0e0e0" stroke="#999999" points="1412.49,-206 1281.49,-206 1281.49,-176 1412.49,-176 1412.49,-206"/>
<text text-anchor="start" x="1289.49" y="-194" font-family="Helvetica,sans-Serif" font-size="10.00">user_builtin_non_scalar</text>
<text text-anchor="middle" x="1346.99" y="-183" font-family="Helvetica,sans-Serif" font-size="10.00">_constants.h</text>
</a>
</g>
</g>
<!-- Node4&#45;&gt;Node43 -->
<g id="edge47_Node000004_Node000043" class="edge">
<title>Node4&#45;&gt;Node43</title>
<g id="a_edge47_Node000004_Node000043"><a xlink:title=" ">
<path fill="none" stroke="#63b8ff" d="M406.53,-243.03C409.73,-242.64 412.9,-242.29 415.99,-242 792.84,-206.03 890.63,-246.72 1266.99,-206 1268.29,-205.86 1269.61,-205.71 1270.93,-205.55"/>
<polygon fill="#63b8ff" stroke="#63b8ff" points="1271.7,-208.98 1281.17,-204.22 1270.8,-202.04 1271.7,-208.98"/>
</a>
</g>
</g>
<!-- Node6&#45;&gt;Node5 -->
<g id="edge7_Node000006_Node000005" class="edge">
<title>Node6&#45;&gt;Node5</title>
<g id="a_edge7_Node000006_Node000005"><a xlink:title=" ">
<path fill="none" stroke="#63b8ff" d="M1138.55,-190.49C997.68,-191.58 555.04,-190.76 422.99,-140 402.91,-132.28 403.87,-120.32 384.99,-110 357.19,-94.8 323.23,-83.34 297.13,-75.86"/>
<polygon fill="#63b8ff" stroke="#63b8ff" points="297.76,-72.4 287.19,-73.09 295.88,-79.14 297.76,-72.4"/>
</a>
</g>
</g>
<!-- Node7 -->
<g id="Node000007" class="node">
<title>Node7</title>
<g id="a_Node000007"><a xlink:title=" ">
<polygon fill="#e0e0e0" stroke="#999999" points="997.99,-74 947.99,-74 947.99,-55 997.99,-55 997.99,-74"/>
<text text-anchor="middle" x="972.99" y="-62" font-family="Helvetica,sans-Serif" font-size="10.00">stdio.h</text>
</a>
</g>
</g>
<!-- Node6&#45;&gt;Node7 -->
<g id="edge6_Node000006_Node000007" class="edge">
<title>Node6&#45;&gt;Node7</title>
<g id="a_edge6_Node000006_Node000007"><a xlink:title=" ">
<path fill="none" stroke="#63b8ff" d="M1212.26,-181.5C1220.84,-179.38 1230.23,-177.33 1238.99,-176 1368.54,-156.27 1915.21,-205.05 1824.99,-110 1796.43,-79.91 1164.97,-68.4 1008.05,-66"/>
<polygon fill="#63b8ff" stroke="#63b8ff" points="1008.05,-62.5 998,-65.85 1007.95,-69.5 1008.05,-62.5"/>
</a>
</g>
</g>
<!-- Node8 -->
<g id="Node000008" class="node">
<title>Node8</title>
<g id="a_Node000008"><a xlink:href="device__headers_8h.html" target="_top" xlink:title=" ">
<polygon fill="white" stroke="#666666" points="1754.99,-74 1652.99,-74 1652.99,-55 1754.99,-55 1754.99,-74"/>
<text text-anchor="middle" x="1703.99" y="-62" font-family="Helvetica,sans-Serif" font-size="10.00">device_headers.h</text>
</a>
</g>
</g>
<!-- Node6&#45;&gt;Node8 -->
<g id="edge8_Node000006_Node000008" class="edge">
<title>Node6&#45;&gt;Node8</title>
<g id="a_edge8_Node000006_Node000008"><a xlink:title=" ">
<path fill="none" stroke="#63b8ff" d="M1212.26,-181.49C1220.84,-179.37 1230.23,-177.33 1238.99,-176 1305.47,-165.94 1796.89,-188.93 1842.99,-140 1872.48,-108.71 1813.49,-87.77 1763.47,-76.26"/>
<polygon fill="#63b8ff" stroke="#63b8ff" points="1764.14,-72.83 1753.62,-74.09 1762.63,-79.66 1764.14,-72.83"/>
</a>
</g>
</g>
<!-- Node11 -->
<g id="Node000011" class="node">
<title>Node11</title>
<g id="a_Node000011"><a xlink:title=" ">
<polygon fill="#e0e0e0" stroke="#999999" points="2064.49,-74 1969.49,-74 1969.49,-55 2064.49,-55 2064.49,-74"/>
<text text-anchor="middle" x="2016.99" y="-62" font-family="Helvetica,sans-Serif" font-size="10.00">builtin_enums.h</text>
</a>
</g>
</g>
<!-- Node6&#45;&gt;Node11 -->
<g id="edge11_Node000006_Node000011" class="edge">
<title>Node6&#45;&gt;Node11</title>
<g id="a_edge11_Node000006_Node000011"><a xlink:title=" ">
<path fill="none" stroke="#63b8ff" d="M1211.95,-181.49C1220.61,-179.35 1230.12,-177.29 1238.99,-176 1321.99,-163.94 1926.4,-190.99 1992.99,-140 2009.99,-126.99 2015.15,-101.79 2016.61,-84.32"/>
<polygon fill="#63b8ff" stroke="#63b8ff" points="2020.12,-84.33 2017.13,-74.17 2013.13,-83.98 2020.12,-84.33"/>
</a>
</g>
</g>
<!-- Node12 -->
<g id="Node000012" class="node">
<title>Node12</title>
<g id="a_Node000012"><a xlink:href="datatypes_8h.html" target="_top" xlink:title=" ">
<polygon fill="#fff0f0" stroke="red" points="1983.99,-134.5 1909.99,-134.5 1909.99,-115.5 1983.99,-115.5 1983.99,-134.5"/>
<text text-anchor="middle" x="1946.99" y="-122.5" font-family="Helvetica,sans-Serif" font-size="10.00">datatypes.h</text>
</a>
</g>
</g>
<!-- Node6&#45;&gt;Node12 -->
<g id="edge12_Node000006_Node000012" class="edge">
<title>Node6&#45;&gt;Node12</title>
<g id="a_edge12_Node000006_Node000012"><a xlink:title=" ">
<path fill="none" stroke="#63b8ff" d="M1212.25,-181.46C1220.83,-179.34 1230.22,-177.31 1238.99,-176 1528.24,-132.94 1607.35,-186.97 1895.99,-140 1900.55,-139.26 1905.29,-138.27 1909.95,-137.15"/>
<polygon fill="#63b8ff" stroke="#63b8ff" points="1911.16,-140.46 1919.97,-134.57 1909.41,-133.68 1911.16,-140.46"/>
</a>
</g>
</g>
<!-- Node6&#45;&gt;Node20 -->
<g id="edge21_Node000006_Node000020" class="edge">
<title>Node6&#45;&gt;Node20</title>
<g id="a_edge21_Node000006_Node000020"><a xlink:title=" ">
<path fill="none" stroke="#63b8ff" d="M1138.61,-188.83C1003.45,-184.93 578.02,-170.9 226.99,-140 202.12,-137.81 174.27,-134.37 152.45,-131.45"/>
<polygon fill="#63b8ff" stroke="#63b8ff" points="152.64,-127.95 142.26,-130.07 151.7,-134.88 152.64,-127.95"/>
</a>
</g>
</g>
<!-- Node24 -->
<g id="Node000024" class="node">
<title>Node24</title>
<g id="a_Node000024"><a xlink:title=" ">
<polygon fill="#e0e0e0" stroke="#999999" points="2127.49,-134.5 2040.49,-134.5 2040.49,-115.5 2127.49,-115.5 2127.49,-134.5"/>
<text text-anchor="middle" x="2083.99" y="-122.5" font-family="Helvetica,sans-Serif" font-size="10.00">user_defines.h</text>
</a>
</g>
</g>
<!-- Node6&#45;&gt;Node24 -->
<g id="edge30_Node000006_Node000024" class="edge">
<title>Node6&#45;&gt;Node24</title>
<g id="a_edge30_Node000006_Node000024"><a xlink:title=" ">
<path fill="none" stroke="#63b8ff" d="M1211.95,-181.48C1220.61,-179.33 1230.12,-177.28 1238.99,-176 1585.55,-126 1679.34,-189.3 2025.99,-140 2031.77,-139.18 2037.82,-138.04 2043.74,-136.76"/>
<polygon fill="#63b8ff" stroke="#63b8ff" points="2044.54,-140.17 2053.5,-134.52 2042.97,-133.35 2044.54,-140.17"/>
</a>
</g>
</g>
<!-- Node25 -->
<g id="Node000025" class="node">
<title>Node25</title>
<g id="a_Node000025"><a xlink:title=" ">
<polygon fill="#e0e0e0" stroke="#999999" points="517.99,-134.5 431.99,-134.5 431.99,-115.5 517.99,-115.5 517.99,-134.5"/>
<text text-anchor="middle" x="474.99" y="-122.5" font-family="Helvetica,sans-Serif" font-size="10.00">profiles_info.h</text>
</a>
</g>
</g>
<!-- Node6&#45;&gt;Node25 -->
<g id="edge31_Node000006_Node000025" class="edge">
<title>Node6&#45;&gt;Node25</title>
<g id="a_edge31_Node000006_Node000025"><a xlink:title=" ">
<path fill="none" stroke="#63b8ff" d="M1138.81,-189.41C1033.61,-187.38 755.93,-178.49 527.99,-140 523.2,-139.19 518.21,-138.15 513.3,-137"/>
<polygon fill="#63b8ff" stroke="#63b8ff" points="513.94,-133.55 503.39,-134.52 512.24,-140.34 513.94,-133.55"/>
</a>
</g>
</g>
<!-- Node6&#45;&gt;Node26 -->
<g id="edge32_Node000006_Node000026" class="edge">
<title>Node6&#45;&gt;Node26</title>
<g id="a_edge32_Node000006_Node000026"><a xlink:title=" ">
<path fill="none" stroke="#63b8ff" d="M1138.93,-188.83C1019.6,-185.24 674.7,-172.63 389.99,-140 380.93,-138.96 371.36,-137.61 362.05,-136.16"/>
<polygon fill="#63b8ff" stroke="#63b8ff" points="362.52,-132.69 352.09,-134.55 361.4,-139.6 362.52,-132.69"/>
</a>
</g>
</g>
<!-- Node27 -->
<g id="Node000027" class="node">
<title>Node27</title>
<g id="a_Node000027"><a xlink:href="func__attributes_8h.html" target="_top" xlink:title=" ">
<polygon fill="white" stroke="#666666" points="635.49,-134.5 536.49,-134.5 536.49,-115.5 635.49,-115.5 635.49,-134.5"/>
<text text-anchor="middle" x="585.99" y="-122.5" font-family="Helvetica,sans-Serif" font-size="10.00">func_attributes.h</text>
</a>
</g>
</g>
<!-- Node6&#45;&gt;Node27 -->
<g id="edge33_Node000006_Node000027" class="edge">
<title>Node6&#45;&gt;Node27</title>
<g id="a_edge33_Node000006_Node000027"><a xlink:title=" ">
<path fill="none" stroke="#63b8ff" d="M1138.92,-188.04C1047.45,-183.43 827.24,-169.96 644.99,-140 639.54,-139.1 633.84,-137.99 628.23,-136.78"/>
<polygon fill="#63b8ff" stroke="#63b8ff" points="628.81,-133.32 618.29,-134.52 627.27,-140.15 628.81,-133.32"/>
</a>
</g>
</g>
<!-- Node28 -->
<g id="Node000028" class="node">
<title>Node28</title>
<g id="a_Node000028"><a xlink:title=" ">
<polygon fill="#e0e0e0" stroke="#999999" points="778.49,-134.5 653.49,-134.5 653.49,-115.5 778.49,-115.5 778.49,-134.5"/>
<text text-anchor="middle" x="715.99" y="-122.5" font-family="Helvetica,sans-Serif" font-size="10.00">user_input_typedefs.h</text>
</a>
</g>
</g>
<!-- Node6&#45;&gt;Node28 -->
<g id="edge34_Node000006_Node000028" class="edge">
<title>Node6&#45;&gt;Node28</title>
<g id="a_edge34_Node000006_Node000028"><a xlink:title=" ">
<path fill="none" stroke="#63b8ff" d="M1138.72,-185.45C1066.04,-177.6 914.96,-160.38 787.99,-140 781.32,-138.93 774.32,-137.7 767.41,-136.43"/>
<polygon fill="#63b8ff" stroke="#63b8ff" points="767.89,-132.95 757.41,-134.54 766.59,-139.83 767.89,-132.95"/>
</a>
</g>
</g>
<!-- Node29 -->
<g id="Node000029" class="node">
<title>Node29</title>
<g id="a_Node000029"><a xlink:title=" ">
<polygon fill="#e0e0e0" stroke="#999999" points="879.49,-134.5 796.49,-134.5 796.49,-115.5 879.49,-115.5 879.49,-134.5"/>
<text text-anchor="middle" x="837.99" y="-122.5" font-family="Helvetica,sans-Serif" font-size="10.00">output_decl.h</text>
</a>
</g>
</g>
<!-- Node6&#45;&gt;Node29 -->
<g id="edge35_Node000006_Node000029" class="edge">
<title>Node6&#45;&gt;Node29</title>
<g id="a_edge35_Node000006_Node000029"><a xlink:title=" ">
<path fill="none" stroke="#63b8ff" d="M1138.54,-183.96C1081.1,-175.66 976.9,-159.52 888.99,-140 885.12,-139.14 881.1,-138.17 877.1,-137.16"/>
<polygon fill="#63b8ff" stroke="#63b8ff" points="877.83,-133.73 867.26,-134.57 876.04,-140.5 877.83,-133.73"/>
</a>
</g>
</g>
<!-- Node30 -->
<g id="Node000030" class="node">
<title>Node30</title>
<g id="a_Node000030"><a xlink:title=" ">
<polygon fill="#e0e0e0" stroke="#999999" points="1013.99,-134.5 897.99,-134.5 897.99,-115.5 1013.99,-115.5 1013.99,-134.5"/>
<text text-anchor="middle" x="955.99" y="-122.5" font-family="Helvetica,sans-Serif" font-size="10.00">comp_loaded_decl.h</text>
</a>
</g>
</g>
<!-- Node6&#45;&gt;Node30 -->
<g id="edge36_Node000006_Node000030" class="edge">
<title>Node6&#45;&gt;Node30</title>
<g id="a_edge36_Node000006_Node000030"><a xlink:title=" ">
<path fill="none" stroke="#63b8ff" d="M1151.51,-181.37C1111.38,-170 1040.73,-150 996.24,-137.4"/>
<polygon fill="#63b8ff" stroke="#63b8ff" points="996.92,-133.95 986.35,-134.6 995.02,-140.69 996.92,-133.95"/>
</a>
</g>
</g>
<!-- Node31 -->
<g id="Node000031" class="node">
<title>Node31</title>
<g id="a_Node000031"><a xlink:title=" ">
<polygon fill="#e0e0e0" stroke="#999999" points="1109.99,-134.5 1031.99,-134.5 1031.99,-115.5 1109.99,-115.5 1109.99,-134.5"/>
<text text-anchor="middle" x="1070.99" y="-122.5" font-family="Helvetica,sans-Serif" font-size="10.00">comp_decl.h</text>
</a>
</g>
</g>
<!-- Node6&#45;&gt;Node31 -->
<g id="edge37_Node000006_Node000031" class="edge">
<title>Node6&#45;&gt;Node31</title>
<g id="a_edge37_Node000006_Node000031"><a xlink:title=" ">
<path fill="none" stroke="#63b8ff" d="M1167.02,-181.37C1148.49,-170.68 1116.68,-152.35 1094.79,-139.72"/>
<polygon fill="#63b8ff" stroke="#63b8ff" points="1096.49,-136.66 1086.08,-134.7 1092.99,-142.73 1096.49,-136.66"/>
</a>
</g>
</g>
<!-- Node32 -->
<g id="Node000032" class="node">
<title>Node32</title>
<g id="a_Node000032"><a xlink:title=" ">
<polygon fill="#e0e0e0" stroke="#999999" points="1235.99,-134.5 1127.99,-134.5 1127.99,-115.5 1235.99,-115.5 1235.99,-134.5"/>
<text text-anchor="middle" x="1181.99" y="-122.5" font-family="Helvetica,sans-Serif" font-size="10.00">info_loaded_decl.h</text>
</a>
</g>
</g>
<!-- Node6&#45;&gt;Node32 -->
<g id="edge38_Node000006_Node000032" class="edge">
<title>Node6&#45;&gt;Node32</title>
<g id="a_edge38_Node000006_Node000032"><a xlink:title=" ">
<path fill="none" stroke="#63b8ff" d="M1181.99,-181.37C1181.99,-172.16 1181.99,-157.29 1181.99,-145.27"/>
<polygon fill="#63b8ff" stroke="#63b8ff" points="1185.49,-144.91 1181.99,-134.91 1178.49,-144.91 1185.49,-144.91"/>
</a>
</g>
</g>
<!-- Node33 -->
<g id="Node000033" class="node">
<title>Node33</title>
<g id="a_Node000033"><a xlink:title=" ">
<polygon fill="#e0e0e0" stroke="#999999" points="1393.99,-134.5 1253.99,-134.5 1253.99,-115.5 1393.99,-115.5 1393.99,-134.5"/>
<text text-anchor="middle" x="1323.99" y="-122.5" font-family="Helvetica,sans-Serif" font-size="10.00">device_mesh_info_decl.h</text>
</a>
</g>
</g>
<!-- Node6&#45;&gt;Node33 -->
<g id="edge39_Node000006_Node000033" class="edge">
<title>Node6&#45;&gt;Node33</title>
<g id="a_edge39_Node000006_Node000033"><a xlink:title=" ">
<path fill="none" stroke="#63b8ff" d="M1201.14,-181.37C1225.39,-170.44 1267.36,-151.52 1295.41,-138.88"/>
<polygon fill="#63b8ff" stroke="#63b8ff" points="1297.01,-142 1304.69,-134.7 1294.14,-135.62 1297.01,-142"/>
</a>
</g>
</g>
<!-- Node34 -->
<g id="Node000034" class="node">
<title>Node34</title>
<g id="a_Node000034"><a xlink:title=" ">
<polygon fill="#e0e0e0" stroke="#999999" points="1489.49,-134.5 1412.49,-134.5 1412.49,-115.5 1489.49,-115.5 1489.49,-134.5"/>
<text text-anchor="middle" x="1450.99" y="-122.5" font-family="Helvetica,sans-Serif" font-size="10.00">array_decl.h</text>
</a>
</g>
</g>
<!-- Node6&#45;&gt;Node34 -->
<g id="edge40_Node000006_Node000034" class="edge">
<title>Node6&#45;&gt;Node34</title>
<g id="a_edge40_Node000006_Node000034"><a xlink:title=" ">
<path fill="none" stroke="#63b8ff" d="M1216.02,-181.5C1223.57,-179.65 1231.55,-177.73 1238.99,-176 1311.68,-159.1 1330.69,-158.46 1402.99,-140 1406.33,-139.15 1409.79,-138.22 1413.25,-137.27"/>
<polygon fill="#63b8ff" stroke="#63b8ff" points="1414.24,-140.63 1422.91,-134.54 1412.33,-133.89 1414.24,-140.63"/>
</a>
</g>
</g>
<!-- Node35 -->
<g id="Node000035" class="node">
<title>Node35</title>
<g id="a_Node000035"><a xlink:title=" ">
<polygon fill="#e0e0e0" stroke="#999999" points="1583.99,-134.5 1507.99,-134.5 1507.99,-115.5 1583.99,-115.5 1583.99,-134.5"/>
<text text-anchor="middle" x="1545.99" y="-122.5" font-family="Helvetica,sans-Serif" font-size="10.00">input_decl.h</text>
</a>
</g>
</g>
<!-- Node6&#45;&gt;Node35 -->
<g id="edge41_Node000006_Node000035" class="edge">
<title>Node6&#45;&gt;Node35</title>
<g id="a_edge41_Node000006_Node000035"><a xlink:title=" ">
<path fill="none" stroke="#63b8ff" d="M1214.12,-181.49C1222.2,-179.52 1230.89,-177.55 1238.99,-176 1353.57,-154.06 1384.98,-164.72 1498.99,-140 1502.62,-139.21 1506.37,-138.29 1510.1,-137.3"/>
<polygon fill="#63b8ff" stroke="#63b8ff" points="1511.15,-140.64 1519.83,-134.56 1509.25,-133.9 1511.15,-140.64"/>
</a>
</g>
</g>
<!-- Node36 -->
<g id="Node000036" class="node">
<title>Node36</title>
<g id="a_Node000036"><a xlink:href="ac__helpers_8h.html" target="_top" xlink:title=" ">
<polygon fill="white" stroke="#666666" points="1679.99,-134.5 1601.99,-134.5 1601.99,-115.5 1679.99,-115.5 1679.99,-134.5"/>
<text text-anchor="middle" x="1640.99" y="-122.5" font-family="Helvetica,sans-Serif" font-size="10.00">ac_helpers.h</text>
</a>
</g>
</g>
<!-- Node6&#45;&gt;Node36 -->
<g id="edge42_Node000006_Node000036" class="edge">
<title>Node6&#45;&gt;Node36</title>
<g id="a_edge42_Node000006_Node000036"><a xlink:title=" ">
<path fill="none" stroke="#63b8ff" d="M1213.48,-181.43C1221.74,-179.42 1230.66,-177.44 1238.99,-176 1394.83,-149.07 1437.77,-170.27 1592.99,-140 1596.95,-139.23 1601.06,-138.27 1605.12,-137.23"/>
<polygon fill="#63b8ff" stroke="#63b8ff" points="1606.33,-140.53 1615.05,-134.5 1604.48,-133.78 1606.33,-140.53"/>
</a>
</g>
</g>
<!-- Node37 -->
<g id="Node000037" class="node">
<title>Node37</title>
<g id="a_Node000037"><a xlink:title=" ">
<polygon fill="#e0e0e0" stroke="#999999" points="1815.99,-140 1697.99,-140 1697.99,-110 1815.99,-110 1815.99,-140"/>
<text text-anchor="start" x="1705.99" y="-128" font-family="Helvetica,sans-Serif" font-size="10.00">scalar_reduce_buffer</text>
<text text-anchor="middle" x="1756.99" y="-117" font-family="Helvetica,sans-Serif" font-size="10.00">_defs.h</text>
</a>
</g>
</g>
<!-- Node6&#45;&gt;Node37 -->
<g id="edge43_Node000006_Node000037" class="edge">
<title>Node6&#45;&gt;Node37</title>
<g id="a_edge43_Node000006_Node000037"><a xlink:title=" ">
<path fill="none" stroke="#63b8ff" d="M1212.87,-181.46C1221.29,-179.39 1230.44,-177.38 1238.99,-176 1433.87,-144.48 1488.6,-167.51 1687.82,-140.04"/>
<polygon fill="#63b8ff" stroke="#63b8ff" points="1688.31,-143.51 1697.73,-138.65 1687.34,-136.57 1688.31,-143.51"/>
</a>
</g>
</g>
<!-- Node6&#45;&gt;Node40 -->
<g id="edge44_Node000006_Node000040" class="edge">
<title>Node6&#45;&gt;Node40</title>
<g id="a_edge44_Node000006_Node000040"><a xlink:title=" ">
<path fill="none" stroke="#63b8ff" d="M1211.95,-181.45C1220.6,-179.3 1230.11,-177.26 1238.99,-176 1634.49,-120.08 1742.44,-202.27 2136.99,-140 2141.57,-139.28 2146.33,-138.28 2151.01,-137.15"/>
<polygon fill="#63b8ff" stroke="#63b8ff" points="2152.26,-140.44 2161.04,-134.5 2150.48,-133.67 2152.26,-140.44"/>
</a>
</g>
</g>
<!-- Node9 -->
<g id="Node000009" class="node">
<title>Node9</title>
<g id="a_Node000009"><a xlink:title=" ">
<polygon fill="#e0e0e0" stroke="#999999" points="1883.49,-19 1770.49,-19 1770.49,0 1883.49,0 1883.49,-19"/>
<text text-anchor="middle" x="1826.99" y="-7" font-family="Helvetica,sans-Serif" font-size="10.00">cuda_runtime_api.h</text>
</a>
</g>
</g>
<!-- Node8&#45;&gt;Node9 -->
<g id="edge9_Node000008_Node000009" class="edge">
<title>Node8&#45;&gt;Node9</title>
<g id="a_edge9_Node000008_Node000009"><a xlink:title=" ">
<path fill="none" stroke="#63b8ff" d="M1723.75,-54.98C1743.72,-46.38 1774.8,-32.99 1797.64,-23.15"/>
<polygon fill="#63b8ff" stroke="#63b8ff" points="1799.07,-26.34 1806.87,-19.17 1796.3,-19.91 1799.07,-26.34"/>
</a>
</g>
</g>
<!-- Node10 -->
<g id="Node000010" class="node">
<title>Node10</title>
<g id="a_Node000010"><a xlink:title=" ">
<polygon fill="#e0e0e0" stroke="#999999" points="1741.99,-19 1665.99,-19 1665.99,0 1741.99,0 1741.99,-19"/>
<text text-anchor="middle" x="1703.99" y="-7" font-family="Helvetica,sans-Serif" font-size="10.00">cuda_fp16.h</text>
</a>
</g>
</g>
<!-- Node8&#45;&gt;Node10 -->
<g id="edge10_Node000008_Node000010" class="edge">
<title>Node8&#45;&gt;Node10</title>
<g id="a_edge10_Node000008_Node000010"><a xlink:title=" ">
<path fill="none" stroke="#63b8ff" d="M1703.99,-54.75C1703.99,-47.8 1703.99,-37.85 1703.99,-29.13"/>
<polygon fill="#63b8ff" stroke="#63b8ff" points="1707.49,-29.09 1703.99,-19.09 1700.49,-29.09 1707.49,-29.09"/>
</a>
</g>
</g>
<!-- Node12&#45;&gt;Node8 -->
<g id="edge14_Node000012_Node000008" class="edge">
<title>Node12&#45;&gt;Node8</title>
<g id="a_edge14_Node000012_Node000008"><a xlink:title=" ">
<path fill="none" stroke="#63b8ff" d="M1916.57,-115.43C1909.81,-113.59 1902.67,-111.69 1895.99,-110 1847.58,-97.75 1791.96,-85 1753.08,-76.31"/>
<polygon fill="#63b8ff" stroke="#63b8ff" points="1753.6,-72.84 1743.08,-74.08 1752.08,-79.67 1753.6,-72.84"/>
</a>
</g>
</g>
<!-- Node12&#45;&gt;Node9 -->
<g id="edge15_Node000012_Node000009" class="edge">
<title>Node12&#45;&gt;Node9</title>
<g id="a_edge15_Node000012_Node000009"><a xlink:title=" ">
<path fill="none" stroke="#63b8ff" d="M1939.67,-115.06C1928.36,-101.47 1905.66,-75.06 1883.99,-55 1872.51,-44.37 1858.69,-33.54 1847.54,-25.22"/>
<polygon fill="#63b8ff" stroke="#63b8ff" points="1849.39,-22.24 1839.26,-19.15 1845.25,-27.89 1849.39,-22.24"/>
</a>
</g>
</g>
<!-- Node12&#45;&gt;Node11 -->
<g id="edge17_Node000012_Node000011" class="edge">
<title>Node12&#45;&gt;Node11</title>
<g id="a_edge17_Node000012_Node000011"><a xlink:title=" ">
<path fill="none" stroke="#63b8ff" d="M1957.32,-115.37C1968.18,-106.3 1985.48,-91.84 1998.66,-80.82"/>
<polygon fill="#63b8ff" stroke="#63b8ff" points="2001.19,-83.27 2006.62,-74.17 1996.7,-77.89 2001.19,-83.27"/>
</a>
</g>
</g>
<!-- Node12&#45;&gt;Node14 -->
<g id="edge13_Node000012_Node000014" class="edge">
<title>Node12&#45;&gt;Node14</title>
<g id="a_edge13_Node000012_Node000014"><a xlink:title=" ">
<path fill="none" stroke="#63b8ff" d="M1981.45,-115.49C2026,-104.5 2103.19,-85.45 2148.31,-74.31"/>
<polygon fill="#63b8ff" stroke="#63b8ff" points="2149.38,-77.65 2158.25,-71.85 2147.7,-70.85 2149.38,-77.65"/>
</a>
</g>
</g>
<!-- Node16 -->
<g id="Node000016" class="node">
<title>Node16</title>
<g id="a_Node000016"><a xlink:href="acreal_8h.html" target="_top" xlink:title=" ">
<polygon fill="white" stroke="#666666" points="1962.99,-19 1906.99,-19 1906.99,0 1962.99,0 1962.99,-19"/>
<text text-anchor="middle" x="1934.99" y="-7" font-family="Helvetica,sans-Serif" font-size="10.00">acreal.h</text>
</a>
</g>
</g>
<!-- Node12&#45;&gt;Node16 -->
<g id="edge16_Node000012_Node000016" class="edge">
<title>Node12&#45;&gt;Node16</title>
<g id="a_edge16_Node000012_Node000016"><a xlink:title=" ">
<path fill="none" stroke="#63b8ff" d="M1946.09,-115.47C1944.16,-97.23 1939.6,-54.07 1936.96,-29.14"/>
<polygon fill="#63b8ff" stroke="#63b8ff" points="1940.44,-28.71 1935.9,-19.13 1933.48,-29.44 1940.44,-28.71"/>
</a>
</g>
</g>
<!-- Node18 -->
<g id="Node000018" class="node">
<title>Node18</title>
<g id="a_Node000018"><a xlink:href="host__datatypes_8h.html" target="_top" xlink:title=" ">
<polygon fill="white" stroke="#666666" points="1874.49,-74 1773.49,-74 1773.49,-55 1874.49,-55 1874.49,-74"/>
<text text-anchor="middle" x="1823.99" y="-62" font-family="Helvetica,sans-Serif" font-size="10.00">host_datatypes.h</text>
</a>
</g>
</g>
<!-- Node12&#45;&gt;Node18 -->
<g id="edge18_Node000012_Node000018" class="edge">
<title>Node12&#45;&gt;Node18</title>
<g id="a_edge18_Node000012_Node000018"><a xlink:title=" ">
<path fill="none" stroke="#63b8ff" d="M1929.11,-115.49C1908.61,-105.75 1874.8,-89.66 1851.07,-78.38"/>
<polygon fill="#63b8ff" stroke="#63b8ff" points="1852.43,-75.15 1841.9,-74.02 1849.43,-81.47 1852.43,-75.15"/>
</a>
</g>
</g>
<!-- Node18&#45;&gt;Node16 -->
<g id="edge19_Node000018_Node000016" class="edge">
<title>Node18&#45;&gt;Node16</title>
<g id="a_edge19_Node000018_Node000016"><a xlink:title=" ">
<path fill="none" stroke="#63b8ff" d="M1841.83,-54.98C1859.6,-46.5 1887.14,-33.35 1907.67,-23.54"/>
<polygon fill="#63b8ff" stroke="#63b8ff" points="1909.32,-26.64 1916.83,-19.17 1906.3,-20.32 1909.32,-26.64"/>
</a>
</g>
</g>
<!-- Node19 -->
<g id="Node000019" class="node">
<title>Node19</title>
<g id="a_Node000019"><a xlink:title=" ">
<polygon fill="#e0e0e0" stroke="#999999" points="834.99,-19 778.99,-19 778.99,0 834.99,0 834.99,-19"/>
<text text-anchor="middle" x="806.99" y="-7" font-family="Helvetica,sans-Serif" font-size="10.00">stddef.h</text>
</a>
</g>
</g>
<!-- Node18&#45;&gt;Node19 -->
<g id="edge20_Node000018_Node000019" class="edge">
<title>Node18&#45;&gt;Node19</title>
<g id="a_edge20_Node000018_Node000019"><a xlink:title=" ">
<path fill="none" stroke="#63b8ff" d="M1773.29,-55.98C1770.15,-55.61 1767.03,-55.29 1763.99,-55 1408.03,-21.58 975.12,-12.91 845.45,-10.99"/>
<polygon fill="#63b8ff" stroke="#63b8ff" points="845.29,-7.49 835.24,-10.84 845.19,-14.48 845.29,-7.49"/>
</a>
</g>
</g>
<!-- Node20&#45;&gt;Node5 -->
<g id="edge24_Node000020_Node000005" class="edge">
<title>Node20&#45;&gt;Node5</title>
<g id="a_edge24_Node000020_Node000005"><a xlink:title=" ">
<path fill="none" stroke="#63b8ff" d="M134.64,-115.49C158.62,-105.62 198.38,-89.23 225.82,-77.93"/>
<polygon fill="#63b8ff" stroke="#63b8ff" points="227.41,-81.06 235.32,-74.02 224.74,-74.59 227.41,-81.06"/>
</a>
</g>
</g>
<!-- Node20&#45;&gt;Node7 -->
<g id="edge26_Node000020_Node000007" class="edge">
<title>Node20&#45;&gt;Node7</title>
<g id="a_edge26_Node000020_Node000007"><a xlink:title=" ">
<path fill="none" stroke="#63b8ff" d="M142.27,-119.99C165.09,-116.88 198.05,-112.65 226.99,-110 499.93,-84.98 830.39,-70.95 937.59,-66.81"/>
<polygon fill="#63b8ff" stroke="#63b8ff" points="937.97,-70.3 947.83,-66.42 937.71,-63.3 937.97,-70.3"/>
</a>
</g>
</g>
<!-- Node20&#45;&gt;Node8 -->
<g id="edge29_Node000020_Node000008" class="edge">
<title>Node20&#45;&gt;Node8</title>
<g id="a_edge29_Node000020_Node000008"><a xlink:title=" ">
<path fill="none" stroke="#63b8ff" d="M142.25,-119.76C165.06,-116.51 198.02,-112.23 226.99,-110 508.94,-88.33 1400.63,-70.98 1642.79,-66.58"/>
<polygon fill="#63b8ff" stroke="#63b8ff" points="1642.89,-70.08 1652.82,-66.4 1642.76,-63.08 1642.89,-70.08"/>
</a>
</g>
</g>
<!-- Node20&#45;&gt;Node18 -->
<g id="edge23_Node000020_Node000018" class="edge">
<title>Node20&#45;&gt;Node18</title>
<g id="a_edge23_Node000020_Node000018"><a xlink:title=" ">
<path fill="none" stroke="#63b8ff" d="M142.24,-119.71C165.05,-116.43 198.01,-112.13 226.99,-110 905.13,-60.18 1081.28,-129.34 1763.23,-73.93"/>
<polygon fill="#63b8ff" stroke="#63b8ff" points="1763.62,-77.41 1773.3,-73.11 1763.05,-70.43 1763.62,-77.41"/>
</a>
</g>
</g>
<!-- Node20&#45;&gt;Node19 -->
<g id="edge22_Node000020_Node000019" class="edge">
<title>Node20&#45;&gt;Node19</title>
<g id="a_edge22_Node000020_Node000019"><a xlink:title=" ">
<path fill="none" stroke="#63b8ff" d="M85.74,-117.45C45.45,-106.89 -20.73,-84.31 6.99,-55 33.45,-27.03 612.57,-14.15 768.58,-11.19"/>
<polygon fill="#63b8ff" stroke="#63b8ff" points="768.72,-14.68 778.65,-11 768.59,-7.69 768.72,-14.68"/>
</a>
</g>
</g>
<!-- Node21 -->
<g id="Node000021" class="node">
<title>Node21</title>
<g id="a_Node000021"><a xlink:title=" ">
<polygon fill="#e0e0e0" stroke="#999999" points="69.49,-74 16.49,-74 16.49,-55 69.49,-55 69.49,-74"/>
<text text-anchor="middle" x="42.99" y="-62" font-family="Helvetica,sans-Serif" font-size="10.00">stdint.h</text>
</a>
</g>
</g>
<!-- Node20&#45;&gt;Node21 -->
<g id="edge25_Node000020_Node000021" class="edge">
<title>Node20&#45;&gt;Node21</title>
<g id="a_edge25_Node000020_Node000021"><a xlink:title=" ">
<path fill="none" stroke="#63b8ff" d="M103.52,-115.37C92.5,-106.3 74.96,-91.84 61.59,-80.82"/>
<polygon fill="#63b8ff" stroke="#63b8ff" points="63.45,-77.83 53.51,-74.17 59,-83.23 63.45,-77.83"/>
</a>
</g>
</g>
<!-- Node22 -->
<g id="Node000022" class="node">
<title>Node22</title>
<g id="a_Node000022"><a xlink:title=" ">
<polygon fill="#e0e0e0" stroke="#999999" points="140.49,-74 87.49,-74 87.49,-55 140.49,-55 140.49,-74"/>
<text text-anchor="middle" x="113.99" y="-62" font-family="Helvetica,sans-Serif" font-size="10.00">stdlib.h</text>
</a>
</g>
</g>
<!-- Node20&#45;&gt;Node22 -->
<g id="edge27_Node000020_Node000022" class="edge">
<title>Node20&#45;&gt;Node22</title>
<g id="a_edge27_Node000020_Node000022"><a xlink:title=" ">
<path fill="none" stroke="#63b8ff" d="M113.99,-115.37C113.99,-107.25 113.99,-94.81 113.99,-84.39"/>
<polygon fill="#63b8ff" stroke="#63b8ff" points="117.49,-84.17 113.99,-74.17 110.49,-84.17 117.49,-84.17"/>
</a>
</g>
</g>
<!-- Node23 -->
<g id="Node000023" class="node">
<title>Node23</title>
<g id="a_Node000023"><a xlink:title=" ">
<polygon fill="#e0e0e0" stroke="#999999" points="206.99,-74 158.99,-74 158.99,-55 206.99,-55 206.99,-74"/>
<text text-anchor="middle" x="182.99" y="-62" font-family="Helvetica,sans-Serif" font-size="10.00">time.h</text>
</a>
</g>
</g>
<!-- Node20&#45;&gt;Node23 -->
<g id="edge28_Node000020_Node000023" class="edge">
<title>Node20&#45;&gt;Node23</title>
<g id="a_edge28_Node000020_Node000023"><a xlink:title=" ">
<path fill="none" stroke="#63b8ff" d="M124.17,-115.37C134.87,-106.3 151.93,-91.84 164.92,-80.82"/>
<polygon fill="#63b8ff" stroke="#63b8ff" points="167.41,-83.3 172.77,-74.17 162.88,-77.96 167.41,-83.3"/>
</a>
</g>
</g>
<!-- Node47 -->
<g id="Node000047" class="node">
<title>Node47</title>
<g id="a_Node000047"><a xlink:title=" ">
<polygon fill="#e0e0e0" stroke="#999999" points="1602.49,-206 1483.49,-206 1483.49,-176 1602.49,-176 1602.49,-206"/>
<text text-anchor="start" x="1491.49" y="-194" font-family="Helvetica,sans-Serif" font-size="10.00">device_load_uniform</text>
<text text-anchor="middle" x="1542.99" y="-183" font-family="Helvetica,sans-Serif" font-size="10.00">_decl.h</text>
</a>
</g>
</g>
<!-- Node46&#45;&gt;Node47 -->
<g id="edge51_Node000046_Node000047" class="edge">
<title>Node46&#45;&gt;Node47</title>
<g id="a_edge51_Node000046_Node000047"><a xlink:title=" ">
<path fill="none" stroke="#63b8ff" d="M1624.83,-241.87C1611.8,-233.93 1592.01,-221.87 1575.16,-211.6"/>
<polygon fill="#63b8ff" stroke="#63b8ff" points="1576.52,-208.33 1566.15,-206.11 1572.87,-214.31 1576.52,-208.33"/>
</a>
</g>
</g>
<!-- Node48 -->
<g id="Node000048" class="node">
<title>Node48</title>
<g id="a_Node000048"><a xlink:title=" ">
<polygon fill="#e0e0e0" stroke="#999999" points="1742.99,-206 1620.99,-206 1620.99,-176 1742.99,-176 1742.99,-206"/>
<text text-anchor="start" x="1628.99" y="-194" font-family="Helvetica,sans-Serif" font-size="10.00">device_store_uniform</text>
<text text-anchor="middle" x="1681.99" y="-183" font-family="Helvetica,sans-Serif" font-size="10.00">_decl.h</text>
</a>
</g>
</g>
<!-- Node46&#45;&gt;Node48 -->
<g id="edge52_Node000046_Node000048" class="edge">
<title>Node46&#45;&gt;Node48</title>
<g id="a_edge52_Node000046_Node000048"><a xlink:title=" ">
<path fill="none" stroke="#63b8ff" d="M1645.34,-241.87C1650.69,-234.59 1658.58,-223.85 1665.67,-214.2"/>
<polygon fill="#63b8ff" stroke="#63b8ff" points="1668.51,-216.25 1671.62,-206.11 1662.87,-212.1 1668.51,-216.25"/>
</a>
</g>
</g>
</g>
</svg>
